# https://github.com/mikedh/trimesh
v -0.01829990 0.00000000 0.02184865
v -0.00027421 -0.00000001 -0.02849869
v -0.00195148 -0.00000001 -0.02843312
v -0.00799961 -0.00000000 -0.02735426
v -0.01367602 0.00000000 -0.02500434
v -0.01871693 0.00000000 -0.02149249
v -0.02288809 -0.00000001 -0.01698191
v -0.02599568 -0.00000001 -0.01168223
v -0.02789530 0.00000001 -0.00583968
v -0.02849868 0.00000000 0.00027420
v -0.02777777 0.00000000 0.00637538
v -0.02576608 0.00000000 0.01218026
v -0.02255708 -0.00000000 0.01741918
v -0.01319235 0.00000000 0.02526287
v -0.00747178 0.00000000 0.02750314
v -0.00140400 -0.00000001 0.02846539
v 0.00027421 0.00000001 0.02849868
v 0.00195148 -0.00000001 0.02843311
v 0.00799961 0.00000000 0.02735426
v 0.01367602 -0.00000000 0.02500433
v 0.01871693 -0.00000000 0.02149249
v 0.02288809 -0.00000001 0.01698191
v 0.02789531 -0.00000000 0.00583968
v 0.02599568 -0.00000001 0.01168223
v 0.02849868 -0.00000000 -0.00027421
v 0.02777777 0.00000001 -0.00637536
v 0.02576608 0.00000000 -0.01218027
v 0.02255708 0.00000000 -0.01741918
v 0.01829990 -0.00000000 -0.02184866
v 0.01319235 0.00000001 -0.02526284
v 0.00747178 -0.00000000 -0.02750314
v 0.00140400 0.00000001 -0.02846540
v 0.00000000 -0.00000001 -0.02725000
v -0.00606370 0.00000001 -0.02656678
v -0.01182333 0.00000000 -0.02455141
v -0.01699010 0.00000001 -0.02130489
v -0.02130491 0.00000000 -0.01699010
v -0.02455140 -0.00000001 -0.01182333
v -0.02656678 -0.00000000 -0.00606368
v -0.02725000 0.00000001 0.00000001
v -0.02656678 -0.00000000 0.00606371
v -0.02455140 -0.00000001 0.01182332
v -0.02130491 -0.00000000 0.01699009
v -0.01699010 0.00000000 0.02130492
v -0.01182333 -0.00000000 0.02455140
v -0.00606370 -0.00000001 0.02656678
v 0.00000000 -0.00000001 0.02725000
v 0.00606370 0.00000001 -0.02656678
v 0.01182333 0.00000000 -0.02455141
v 0.01699010 0.00000001 -0.02130489
v 0.02130491 0.00000000 -0.01699010
v 0.02455140 -0.00000001 -0.01182333
v 0.02656679 -0.00000000 -0.00606368
v 0.02725000 0.00000001 0.00000001
v 0.02656679 -0.00000000 0.00606371
v 0.02455140 -0.00000001 0.01182332
v 0.02130491 -0.00000000 0.01699009
v 0.01699010 0.00000000 0.02130492
v 0.01182333 -0.00000000 0.02455140
v 0.00606370 -0.00000001 0.02656678
f 3 33 4
f 3 2 33
f 33 2 32
f 33 32 48
f 48 32 31
f 48 31 49
f 49 31 30
f 49 30 50
f 50 30 29
f 50 29 51
f 51 29 28
f 51 28 52
f 52 28 27
f 52 27 53
f 53 27 26
f 53 26 54
f 54 26 25
f 54 25 55
f 55 25 23
f 55 23 56
f 56 23 24
f 56 24 57
f 57 24 22
f 57 22 58
f 58 22 21
f 58 21 59
f 59 21 20
f 59 20 60
f 60 20 19
f 60 19 47
f 47 19 18
f 47 18 17
f 16 47 17
f 16 46 47
f 15 46 16
f 15 45 46
f 14 45 15
f 14 44 45
f 1 44 14
f 1 43 44
f 13 43 1
f 13 42 43
f 12 42 13
f 12 41 42
f 11 41 12
f 11 40 41
f 10 40 11
f 10 39 40
f 9 39 10
f 9 38 39
f 8 38 9
f 8 37 38
f 7 37 8
f 7 36 37
f 6 36 7
f 6 35 36
f 5 35 6
f 5 34 35
f 4 34 5
f 4 33 34

