# https://github.com/mikedh/trimesh
v -0.03101240 0.03041973 -0.04026547
v -0.03101240 0.02472751 -0.03791599
v -0.03101240 0.01970082 -0.03435876
v -0.03101226 0.06040784 0.00211065
v -0.03101225 0.05629872 0.00669721
v -0.03101240 0.03649206 -0.04128942
v -0.03101225 0.03950747 0.01362788
v -0.03101226 0.03335955 0.01327491
v -0.03101225 0.05127203 0.01025444
v -0.03101224 0.04881160 0.01145468
v -0.03101225 0.04557979 0.01260393
v -0.03101239 0.01559170 -0.02977219
v -0.03101238 0.04855523 -0.03922433
v -0.03101227 0.06339331 -0.00327532
v -0.03101239 0.04263999 -0.04093646
v -0.03101227 0.02744431 0.01156279
v -0.03101238 0.01260622 -0.02438623
v -0.03101228 0.06510546 -0.00919055
v -0.03101237 0.05394118 -0.03623883
v -0.03101237 0.01089408 -0.01847099
v -0.03101229 0.06545842 -0.01533847
v -0.03101228 0.02205835 0.00857729
v -0.03101230 0.01747178 0.00446818
v -0.03101231 0.06443446 -0.02141080
v -0.03101235 0.01054113 -0.01232305
v -0.03101233 0.06208498 -0.02710301
v -0.03101235 0.05852776 -0.03212973
v -0.03101232 0.01391456 -0.00055851
v -0.03101233 0.01156508 -0.00625075
v -0.03041246 0.05127203 0.01025444
v -0.03041246 0.05629872 0.00669721
v -0.03041246 0.06040784 0.00211065
v -0.03041246 0.06339331 -0.00327532
v -0.03041246 0.06510546 -0.00919055
v -0.03041246 0.06545842 -0.01533847
v -0.03041246 0.06443446 -0.02141080
v -0.03041246 0.06208498 -0.02710301
v -0.03041246 0.05852776 -0.03212973
v -0.03041246 0.05394118 -0.03623883
v -0.03041246 0.04855523 -0.03922433
v -0.03041246 0.04263999 -0.04093646
v -0.03041246 0.03649206 -0.04128942
v -0.03041246 0.03041973 -0.04026547
v -0.03041246 0.02472751 -0.03791599
v -0.03041246 0.01970082 -0.03435876
v -0.03041246 0.01559170 -0.02977219
v -0.03041246 0.01260622 -0.02438623
v -0.03041246 0.01089408 -0.01847099
v -0.03041246 0.01054113 -0.01232305
v -0.03041246 0.01156508 -0.00625075
v -0.03041246 0.01391456 -0.00055851
v -0.03041246 0.01747178 0.00446818
v -0.03041246 0.02205835 0.00857729
v -0.03041246 0.02744431 0.01156279
v -0.03041246 0.03335955 0.01327491
v -0.03041246 0.03950747 0.01362788
v -0.03041246 0.04557979 0.01260393
v -0.03041246 0.03799976 -0.01383077
f 10 9 30
f 30 9 5
f 30 5 31
f 31 5 4
f 31 4 32
f 32 4 14
f 32 14 33
f 33 14 18
f 33 18 34
f 34 18 21
f 34 21 35
f 35 21 24
f 35 24 36
f 36 24 26
f 36 26 37
f 37 26 27
f 37 27 38
f 38 27 19
f 38 19 39
f 39 19 13
f 39 13 40
f 40 13 15
f 40 15 41
f 41 15 6
f 41 6 42
f 42 6 1
f 42 1 43
f 43 1 2
f 43 2 44
f 44 2 3
f 44 3 45
f 45 3 12
f 45 12 46
f 46 12 17
f 46 17 47
f 47 17 20
f 47 20 48
f 48 20 25
f 48 25 49
f 49 25 29
f 49 29 50
f 50 29 28
f 50 28 51
f 51 28 23
f 51 23 52
f 52 23 22
f 52 22 53
f 53 22 16
f 53 16 54
f 54 16 8
f 54 8 55
f 55 8 7
f 55 7 56
f 56 7 11
f 56 11 57
f 57 11 10
f 57 10 30
f 58 57 30
f 56 57 58
f 58 55 56
f 58 54 55
f 53 54 58
f 58 52 53
f 58 51 52
f 50 51 58
f 58 49 50
f 58 48 49
f 47 48 58
f 58 46 47
f 58 45 46
f 44 45 58
f 43 44 58
f 58 42 43
f 58 41 42
f 40 41 58
f 58 39 40
f 58 38 39
f 37 38 58
f 58 36 37
f 58 35 36
f 34 35 58
f 58 33 34
f 58 32 33
f 31 32 58
f 58 30 31

