# https://github.com/mikedh/trimesh
v 0.00000000 0.00200001 0.02725000
v -0.00606370 0.00200001 0.02656678
v -0.01182333 0.00200001 0.02455141
v -0.01699010 0.00199999 0.02130490
v -0.02130491 0.00200000 0.01699010
v -0.02455140 0.00200000 0.01182333
v -0.02656678 0.00200000 0.00606369
v -0.02725000 0.00199999 -0.00000001
v -0.02656678 0.00200000 -0.00606370
v -0.02455140 0.00200001 -0.01182332
v -0.02130491 0.00200000 -0.01699009
v -0.01699010 0.00199999 -0.02130491
v -0.01182333 0.00200000 -0.02455140
v -0.00606370 0.00200000 -0.02656677
v 0.00000000 0.00200000 -0.02724999
v 0.00606370 0.00200000 -0.02656677
v 0.01182333 0.00200000 -0.02455140
v 0.01699010 0.00199999 -0.02130491
v 0.02130491 0.00200000 -0.01699009
v 0.02455140 0.00200001 -0.01182332
v 0.02656679 0.00200000 -0.00606370
v 0.02725000 0.00199999 -0.00000001
v 0.02656679 0.00200000 0.00606369
v 0.02455140 0.00200000 0.01182333
v 0.02130491 0.00200000 0.01699010
v 0.01699010 0.00199999 0.02130490
v 0.01182333 0.00200001 0.02455141
v 0.00606370 0.00200001 0.02656678
v 0.00000000 0.00199999 -0.00000001
f 1 2 29
f 2 3 29
f 29 3 4
f 29 4 5
f 5 6 29
f 29 6 7
f 29 7 8
f 8 9 29
f 29 9 10
f 29 10 11
f 11 12 29
f 29 12 13
f 29 13 14
f 14 15 29
f 29 15 16
f 29 16 17
f 17 18 29
f 29 18 19
f 29 19 20
f 20 21 29
f 29 21 22
f 29 22 23
f 23 24 29
f 29 24 25
f 29 25 26
f 26 27 29
f 29 27 28
f 29 28 1

