# https://github.com/mikedh/trimesh
v 0.03103571 0.06193703 -0.02588277
v 0.03043597 0.06193703 -0.02588277
v 0.03043597 0.05865505 -0.03090715
v 0.03103572 0.05865505 -0.03090715
v 0.03043597 0.05433733 -0.03507524
v 0.03103571 0.05433733 -0.03507524
v 0.03043597 0.04920038 -0.03817803
v 0.03103570 0.04920038 -0.03817803
v 0.03043597 0.04350177 -0.04005998
v 0.03103570 0.04350177 -0.04005998
v 0.03043597 0.03752727 -0.04062668
v 0.03103570 0.03752727 -0.04062668
v 0.03043597 0.03157648 -0.03984970
v 0.03103571 0.03157648 -0.03984970
v 0.03043597 0.02594776 -0.03776804
v 0.03103573 0.02594776 -0.03776804
v 0.03043597 0.02092339 -0.03448607
v 0.03103575 0.02092339 -0.03448607
v 0.03043597 0.01675531 -0.03016833
v 0.03103577 0.01675531 -0.03016833
v 0.03043597 0.01365249 -0.02503137
v 0.03103580 0.01365249 -0.02503137
v 0.03043597 0.01177056 -0.01933278
v 0.03103583 0.01177056 -0.01933278
v 0.03043597 0.01120387 -0.01335827
v 0.03103586 0.01120387 -0.01335827
v 0.03043597 0.01198084 -0.00740749
v 0.03103588 0.01198084 -0.00740749
v 0.03043597 0.01406251 -0.00177878
v 0.03103571 0.01406251 -0.00177878
v 0.03043597 0.01734448 0.00324561
v 0.03103592 0.01734448 0.00324561
v 0.03043597 0.02166221 0.00741370
v 0.03103594 0.02166221 0.00741370
v 0.03043597 0.02679917 0.01051651
v 0.03103595 0.02679917 0.01051651
v 0.03043597 0.03249776 0.01239843
v 0.03103595 0.03249776 0.01239843
v 0.03043597 0.03847227 0.01296513
v 0.03103594 0.03847227 0.01296513
v 0.03043597 0.04442306 0.01218816
v 0.03103593 0.04442306 0.01218816
v 0.03043597 0.05005177 0.01010649
v 0.03103592 0.05005177 0.01010649
v 0.03043597 0.05507615 0.00682452
v 0.03103590 0.05507615 0.00682452
v 0.03043597 0.05924423 0.00250678
v 0.03103587 0.05924423 0.00250678
v 0.03043597 0.06234704 -0.00263018
v 0.03103584 0.06234704 -0.00263018
v 0.03043597 0.06422897 -0.00832877
v 0.03103582 0.06422897 -0.00832877
v 0.03043597 0.06479566 -0.01430327
v 0.03103579 0.06479566 -0.01430327
v 0.03043597 0.06401870 -0.02025405
v 0.03103576 0.06401870 -0.02025405
f 1 2 3
f 56 2 1
f 56 55 2
f 54 55 56
f 54 53 55
f 52 53 54
f 52 51 53
f 50 51 52
f 50 49 51
f 48 49 50
f 48 47 49
f 46 47 48
f 46 45 47
f 44 45 46
f 44 43 45
f 42 43 44
f 42 41 43
f 40 41 42
f 40 39 41
f 38 39 40
f 38 37 39
f 36 37 38
f 36 35 37
f 34 35 36
f 34 33 35
f 32 33 34
f 32 31 33
f 30 31 32
f 30 29 31
f 28 29 30
f 28 27 29
f 26 27 28
f 26 25 27
f 24 25 26
f 24 23 25
f 22 23 24
f 22 21 23
f 20 21 22
f 20 19 21
f 18 19 20
f 18 17 19
f 16 17 18
f 16 15 17
f 14 15 16
f 14 13 15
f 12 13 14
f 12 11 13
f 10 11 12
f 10 9 11
f 8 9 10
f 8 7 9
f 6 7 8
f 6 5 7
f 4 5 6
f 4 3 5
f 1 3 4

