# https://github.com/mikedh/trimesh
v 0.00017529 -0.04313890 -0.00698308
v 0.00018324 -0.04377056 -0.00048306
v 0.00035153 -0.00023560 -0.00050538
v 0.00033072 -0.00024218 -0.01350539
v 0.00016736 -0.04249960 -0.01348371
v 0.00051982 0.04329936 -0.00052770
v 0.00050696 0.04266112 -0.00702709
v 0.00049407 0.04201524 -0.01352704
v 0.00822703 0.04328548 -0.00052745
v 0.01083930 0.04323148 -0.00052732
v 0.05238468 -0.00043674 -0.00050356
v 0.05236448 0.00341286 -0.00050553
v 0.05227292 0.00711116 -0.00050743
v 0.02489188 0.04222213 -0.00052634
v 0.02040211 0.04271545 -0.00052675
v 0.01507006 0.04307404 -0.00052711
v 0.05209814 0.01065830 -0.00050927
v 0.05182664 0.01405396 -0.00051100
v 0.05144211 0.01729754 -0.00051269
v 0.05013166 0.02376179 -0.00051604
v 0.04943937 0.02596427 -0.00051720
v 0.03572799 0.03972847 -0.00052471
v 0.03465511 0.04010231 -0.00052494
v 0.05092498 0.02038798 -0.00051429
v 0.05025113 0.02332369 -0.00051581
v 0.03157056 0.04098570 -0.00052549
v 0.02812931 0.04171547 -0.00052597
v 0.04291348 0.03574369 -0.00052243
v 0.04255964 0.03602907 -0.00052259
v 0.04208800 0.03638966 -0.00052278
v 0.04861578 0.02804508 -0.00051829
v 0.04764571 0.02999963 -0.00051932
v 0.04671870 0.03152149 -0.00052014
v 0.04018141 0.03765062 -0.00052350
v 0.03806942 0.03875842 -0.00052414
v 0.04548103 0.03318360 -0.00052103
v 0.04409830 0.03468132 -0.00052184
v 0.00523168 -0.04382192 -0.00048287
v 0.01006512 -0.04379024 -0.00048273
v 0.01050338 -0.04378244 -0.00048272
v 0.05063456 -0.02186421 -0.00049263
v 0.05125728 -0.01847832 -0.00049434
v 0.05163875 -0.01561375 -0.00049580
v 0.05175703 -0.01451242 -0.00049636
v 0.01468520 -0.04365977 -0.00048264
v 0.01909094 -0.04341468 -0.00048261
v 0.02328165 -0.04303447 -0.00048268
v 0.02590166 -0.04270062 -0.00048277
v 0.02728007 -0.04248838 -0.00048282
v 0.02998096 -0.04198299 -0.00048300
v 0.04753541 -0.03061160 -0.00048824
v 0.04770711 -0.03029376 -0.00048841
v 0.04794509 -0.02983302 -0.00048863
v 0.05214927 -0.00932611 -0.00049900
v 0.05235296 -0.00336341 -0.00050206
v 0.03097328 -0.04176250 -0.00048307
v 0.03255453 -0.04136543 -0.00048322
v 0.03499699 -0.04061971 -0.00048353
v 0.04897980 -0.02749601 -0.00048980
v 0.04985921 -0.02490989 -0.00049109
v 0.03730445 -0.03972627 -0.00048391
v 0.03827461 -0.03928146 -0.00048410
v 0.04013341 -0.03828415 -0.00048455
v 0.04185650 -0.03714368 -0.00048508
v 0.04343941 -0.03585135 -0.00048570
v 0.04393080 -0.03538941 -0.00048592
v 0.04534488 -0.03385457 -0.00048665
v 0.04659897 -0.03216077 -0.00048747
v 0.04923278 0.01740246 -0.01351281
v 0.04868798 0.02048299 -0.01351441
v 0.04918778 0.01957731 -0.01175846
v 0.01034535 0.04287664 -0.00418660
v 0.00913041 0.04195594 -0.01352674
v 0.00163399 0.04202126 -0.01352702
v 0.02030696 0.04213155 -0.00612581
v 0.02524886 0.04144631 -0.00708851
v 0.02486394 0.04076752 -0.01352560
v 0.02064489 0.04129545 -0.01352601
v 0.01913634 0.04143756 -0.01352614
v 0.01563548 0.04169325 -0.01352639
v 0.03386285 0.03862083 -0.01352420
v 0.03096781 0.03952012 -0.01352476
v 0.03013492 0.04042268 -0.00803923
v 0.02921182 0.03995466 -0.01352505
v 0.02773212 0.04026909 -0.01352526
v 0.03689585 0.03734457 -0.01352345
v 0.03466953 0.03832008 -0.01352402
v 0.03487900 0.03889650 -0.00896084
v 0.04134507 0.03513859 -0.01021447
v 0.03890050 0.03623267 -0.01352281
v 0.03932737 0.03662667 -0.00982332
v 0.03715732 0.03787050 -0.00940267
v 0.04257391 0.03329496 -0.01352119
v 0.04109640 0.03465574 -0.01352193
v 0.04071055 0.03496651 -0.01352210
v 0.04594636 0.02858296 -0.01351865
v 0.04506470 0.03012246 -0.01351948
v 0.04473311 0.03143722 -0.01087271
v 0.04799434 0.02455360 -0.01151474
v 0.04686324 0.02660511 -0.01351762
v 0.04713486 0.02696387 -0.01134360
v 0.04605586 0.02927483 -0.01113116
v 0.04827392 0.02227845 -0.01351535
v 0.04763384 0.02450207 -0.01351651
v 0.04963365 0.01415928 -0.01351114
v 0.05018279 0.00345793 -0.01350563
v 0.05009107 0.00718731 -0.01350756
v 0.05026655 0.00936276 -0.01199632
v 0.04991337 0.01075426 -0.01350938
v 0.04988800 0.01449001 -0.01190899
v 0.05061303 -0.00043535 -0.01121139
v 0.05020263 -0.00043497 -0.01350363
v 0.04315877 0.03340337 -0.01056645
v 0.04389499 0.03178518 -0.01352037
v 0.01881363 -0.04206607 -0.01348333
v 0.01481199 -0.04231983 -0.01348332
v 0.00822898 -0.04251539 -0.01348344
v 0.05015342 -0.00429356 -0.01350166
v 0.05003498 -0.00799123 -0.01349977
v 0.04983355 -0.01152885 -0.01349796
v 0.02890020 -0.04066110 -0.01348371
v 0.02707857 -0.04102759 -0.01348359
v 0.02419171 -0.04149036 -0.01348344
v 0.01990636 -0.04197379 -0.01348333
v 0.03416930 -0.03914431 -0.01348432
v 0.03331368 -0.03944863 -0.01348418
v 0.03036881 -0.04031479 -0.01348384
v 0.04953360 -0.01490675 -0.01349624
v 0.04911653 -0.01812486 -0.01349460
v 0.04856031 -0.02118232 -0.01349305
v 0.04802889 -0.02339403 -0.01349194
v 0.04735976 -0.02559226 -0.01349082
v 0.04656035 -0.02766872 -0.01348979
v 0.04030726 -0.03586142 -0.01348579
v 0.03846660 -0.03710559 -0.01348521
v 0.03642956 -0.03819414 -0.01348471
v 0.04561513 -0.02961859 -0.01348882
v 0.04473730 -0.03109297 -0.01348809
v 0.04353979 -0.03273752 -0.01348729
v 0.04219412 -0.03422423 -0.01348657
v 0.04069259 -0.03556133 -0.01348594
v 0.04977263 -0.01535542 -0.01189368
v 0.05019080 -0.01023135 -0.01198627
v 0.04582629 -0.03010938 -0.01110071
v 0.04692314 -0.02780703 -0.01131552
v 0.04780123 -0.02540367 -0.01148913
v 0.04903310 -0.02043700 -0.01173795
v 0.04289738 -0.03421480 -0.01053178
v 0.04448687 -0.03226121 -0.01084004
v 0.03686157 -0.03863420 -0.00936344
v 0.03904117 -0.03740762 -0.00978537
v 0.04107033 -0.03593558 -0.01017803
v 0.03457538 -0.03964211 -0.00892057
v 0.02492585 -0.04211548 -0.00704567
v 0.02981967 -0.04113062 -0.00799741
v 0.01997880 -0.04276150 -0.00608228
v 0.01001173 -0.04342756 -0.00414234
f 69 70 71
f 69 71 105
f 71 110 105
f 71 19 110
f 19 18 110
f 110 18 17
f 110 17 108
f 108 109 110
f 108 107 109
f 109 107 4
f 4 107 106
f 4 106 112
f 111 112 106
f 111 118 112
f 111 119 118
f 143 119 111
f 111 55 143
f 55 54 143
f 143 54 44
f 143 44 142
f 142 128 143
f 129 128 142
f 4 128 129
f 4 129 130
f 147 130 129
f 147 131 130
f 146 131 147
f 60 146 147
f 59 146 60
f 59 145 146
f 145 132 146
f 145 133 132
f 144 133 145
f 53 144 145
f 52 144 53
f 52 51 144
f 144 51 68
f 144 68 149
f 149 138 144
f 144 138 137
f 4 137 138
f 133 137 4
f 4 138 139
f 139 140 4
f 4 140 141
f 4 141 134
f 134 135 4
f 4 135 136
f 4 136 125
f 125 126 4
f 4 126 127
f 4 127 121
f 4 121 122
f 122 123 4
f 4 123 124
f 4 124 115
f 115 116 4
f 4 116 117
f 4 117 5
f 149 139 138
f 148 139 149
f 148 140 139
f 148 141 140
f 152 141 148
f 152 134 141
f 151 134 152
f 152 63 151
f 152 64 63
f 152 65 64
f 151 63 62
f 151 62 150
f 150 62 61
f 150 61 153
f 153 61 58
f 153 58 57
f 155 153 57
f 127 153 155
f 155 121 127
f 155 122 121
f 154 122 155
f 50 154 155
f 50 155 56
f 49 154 50
f 49 48 154
f 154 48 47
f 154 47 156
f 156 124 154
f 154 124 123
f 156 115 124
f 116 115 156
f 116 156 157
f 116 157 117
f 117 157 1
f 117 1 5
f 157 2 1
f 157 38 2
f 39 38 157
f 157 40 39
f 157 45 40
f 157 156 45
f 156 46 45
f 156 47 46
f 154 123 122
f 127 126 153
f 153 126 125
f 155 57 56
f 153 125 150
f 150 125 136
f 150 136 135
f 150 135 151
f 151 135 134
f 148 65 152
f 148 66 65
f 149 66 148
f 149 67 66
f 149 68 67
f 144 137 133
f 4 132 133
f 4 131 132
f 53 145 59
f 60 147 41
f 147 42 41
f 147 142 42
f 142 43 42
f 146 132 131
f 130 131 4
f 120 128 4
f 4 119 120
f 4 118 119
f 129 142 147
f 128 120 143
f 142 44 43
f 111 11 55
f 111 12 11
f 111 108 12
f 108 13 12
f 143 120 119
f 106 108 111
f 112 118 4
f 4 105 109
f 4 69 105
f 106 107 108
f 108 17 13
f 24 19 71
f 71 25 24
f 71 99 25
f 99 20 25
f 99 21 20
f 101 21 99
f 101 31 21
f 102 31 101
f 101 96 102
f 102 96 98
f 96 97 98
f 114 98 97
f 4 114 97
f 4 93 114
f 94 93 4
f 4 95 94
f 4 90 95
f 86 90 4
f 4 87 86
f 4 81 87
f 82 81 4
f 4 84 82
f 4 85 84
f 77 85 4
f 4 78 77
f 4 79 78
f 80 79 4
f 4 73 80
f 4 74 73
f 8 74 4
f 97 96 4
f 4 96 100
f 4 100 104
f 99 104 100
f 99 103 104
f 70 103 99
f 103 4 104
f 103 70 4
f 93 98 114
f 93 113 98
f 113 33 98
f 98 33 32
f 113 36 33
f 37 36 113
f 89 37 113
f 28 37 89
f 89 29 28
f 89 30 29
f 91 30 89
f 91 34 30
f 92 34 91
f 92 35 34
f 88 35 92
f 88 22 35
f 23 22 88
f 83 23 88
f 83 88 81
f 81 82 83
f 83 82 84
f 83 84 76
f 76 84 85
f 76 85 77
f 75 76 77
f 77 78 75
f 75 78 79
f 75 79 72
f 72 79 80
f 72 80 73
f 72 73 6
f 6 9 72
f 72 9 10
f 6 73 74
f 6 74 7
f 7 74 8
f 72 10 75
f 75 10 16
f 75 16 15
f 14 75 15
f 14 76 75
f 27 76 14
f 27 83 76
f 26 83 27
f 81 88 87
f 86 87 88
f 26 23 83
f 92 86 88
f 91 86 92
f 91 90 86
f 89 90 91
f 89 95 90
f 89 94 95
f 93 94 89
f 89 113 93
f 98 32 102
f 101 100 96
f 102 32 31
f 99 100 101
f 105 110 109
f 70 69 4
f 70 99 71
f 1 2 3
f 1 3 4
f 4 5 1
f 4 3 7
f 3 6 7
f 4 7 8

