# https://github.com/mikedh/trimesh
v -0.00066927 -0.00023832 -0.01350542
v -0.00050597 0.04200720 -0.01352707
v -0.00083258 -0.04248384 -0.01348376
v -0.05261562 -0.00003752 -0.01350725
v -0.05227849 0.00942047 -0.01351209
v -0.04968519 0.02394974 -0.01351945
v -0.04818254 0.02754886 -0.01352125
v -0.04624813 0.03071110 -0.01352280
v -0.04374541 0.03349682 -0.01352415
v -0.04264734 0.03442975 -0.01352459
v -0.03719582 0.03757348 -0.01352603
v -0.04093168 0.03564368 -0.01352515
v -0.03089068 0.03953950 -0.01352682
v -0.03303896 0.03899699 -0.01352662
v -0.03586826 0.03809291 -0.01352625
v -0.01314650 0.04165044 -0.01352731
v -0.02066913 0.04110363 -0.01352728
v -0.02791946 0.04013868 -0.01352703
v -0.02144998 0.04102481 -0.01352727
v -0.05254250 0.00420514 -0.01350943
v -0.05199862 0.01256694 -0.01351370
v -0.05102393 0.01897123 -0.01351694
v -0.05257531 -0.00428061 -0.01350507
v -0.02098815 -0.04142440 -0.01348497
v -0.01346998 -0.04202935 -0.01348441
v -0.05235162 -0.00949783 -0.01350239
v -0.02176836 -0.04133955 -0.01348504
v -0.02823080 -0.04040345 -0.01348573
v -0.03119730 -0.03978130 -0.01348615
v -0.03334132 -0.03922220 -0.01348651
v -0.03616356 -0.03829627 -0.01348708
v -0.03748706 -0.03776659 -0.01348740
v -0.04987072 -0.02404669 -0.01349485
v -0.05117094 -0.01905801 -0.01349744
v -0.05209609 -0.01264636 -0.01350076
v -0.04120788 -0.03580797 -0.01348852
v -0.04291410 -0.03458081 -0.01348921
v -0.04400493 -0.03363942 -0.01348973
v -0.04648604 -0.03083442 -0.01349125
v -0.04839594 -0.02765732 -0.01349294
f 2 1 16
f 16 1 17
f 1 19 17
f 1 18 19
f 13 18 1
f 14 13 1
f 14 1 15
f 1 11 15
f 1 12 11
f 10 12 1
f 1 9 10
f 1 8 9
f 7 8 1
f 1 6 7
f 1 22 6
f 21 22 1
f 1 5 21
f 1 20 5
f 4 20 1
f 23 4 1
f 23 1 26
f 1 35 26
f 1 34 35
f 33 34 1
f 1 40 33
f 1 39 40
f 38 39 1
f 1 37 38
f 1 36 37
f 32 36 1
f 1 31 32
f 1 30 31
f 29 30 1
f 1 28 29
f 1 27 28
f 24 27 1
f 24 1 25
f 25 1 3

