# https://github.com/mikedh/trimesh
v -0.00437338 0.02537589 -0.01361904
v 0.01966151 -0.01662791 -0.01359743
v -0.01966151 0.01662791 -0.01361462
v -0.02416286 0.00890049 -0.01361067
v -0.01278870 0.02234976 -0.01361753
v 0.00456944 0.02534132 -0.01361900
v 0.01296111 0.02225022 -0.01361738
v 0.01278869 -0.02234976 -0.01359451
v -0.02574981 0.00009954 -0.01360616
v 0.01978948 0.01647540 -0.01361440
v -0.01978948 -0.01647541 -0.01359764
v -0.01296111 -0.02225021 -0.01359466
v -0.00456944 -0.02534133 -0.01359305
v 0.00017330 -0.02574941 -0.01359282
v 0.00437338 -0.02537590 -0.01359300
v -0.02423095 -0.00871341 -0.01360164
v 0.02416286 -0.00890050 -0.01360137
v 0.02574981 -0.00009955 -0.01360589
v 0.02423095 0.00871342 -0.01361040
v 0.00437338 -0.02537590 0.00000000
v -0.00456943 -0.02534132 -0.00000000
v -0.01296111 -0.02225021 -0.00000001
v -0.01510933 -0.02085115 -0.00000000
v 0.01278870 -0.02234975 -0.00000000
v 0.01966152 -0.01662790 0.00000000
v 0.02416286 -0.00890049 0.00000000
v 0.02574981 -0.00009954 -0.00000001
v 0.02423095 0.00871341 -0.00000000
v 0.01978948 0.01647540 -0.00000001
v 0.01296111 0.02225021 0.00000001
v 0.00456943 0.02534132 0.00000000
v -0.00437338 0.02537590 -0.00000000
v -0.01278870 0.02234977 0.00000000
v -0.01966152 0.01662792 -0.00000000
v -0.02416286 0.00890049 -0.00000000
v -0.02574981 0.00009954 0.00000001
v -0.02423095 -0.00871342 0.00000000
v -0.01978948 -0.01647540 0.00000001
f 13 14 20
f 14 15 20
f 20 15 8
f 20 8 24
f 24 8 2
f 24 2 25
f 25 2 17
f 25 17 26
f 26 17 18
f 26 18 27
f 27 18 19
f 27 19 28
f 28 19 10
f 28 10 29
f 29 10 7
f 29 7 30
f 30 7 6
f 30 6 31
f 31 6 1
f 31 1 32
f 32 1 5
f 32 5 33
f 33 5 3
f 33 3 34
f 34 3 4
f 34 4 35
f 35 4 9
f 35 9 36
f 36 9 16
f 36 16 37
f 37 16 11
f 37 11 38
f 38 11 23
f 12 23 11
f 12 22 23
f 13 22 12
f 13 21 22
f 20 21 13

