# https://github.com/mikedh/trimesh
v 0.00018324 -0.04377056 -0.00048306
v 0.00035153 -0.00023560 -0.00050538
v 0.00051982 0.04329936 -0.00052770
v 0.00822703 0.04328548 -0.00052745
v 0.01083930 0.04323148 -0.00052732
v 0.05238468 -0.00043674 -0.00050356
v 0.05236448 0.00341286 -0.00050553
v 0.05227292 0.00711116 -0.00050743
v 0.02489188 0.04222213 -0.00052634
v 0.02040211 0.04271545 -0.00052675
v 0.01507006 0.04307404 -0.00052711
v 0.05209814 0.01065830 -0.00050927
v 0.05182664 0.01405396 -0.00051100
v 0.05144211 0.01729754 -0.00051269
v 0.05013166 0.02376179 -0.00051604
v 0.04943937 0.02596427 -0.00051720
v 0.03572799 0.03972847 -0.00052471
v 0.03465511 0.04010231 -0.00052494
v 0.05092498 0.02038798 -0.00051429
v 0.05025113 0.02332369 -0.00051581
v 0.03157056 0.04098570 -0.00052549
v 0.02812931 0.04171547 -0.00052597
v 0.04291348 0.03574369 -0.00052243
v 0.04255964 0.03602907 -0.00052259
v 0.04208800 0.03638966 -0.00052278
v 0.04861578 0.02804508 -0.00051829
v 0.04764571 0.02999963 -0.00051932
v 0.04671870 0.03152149 -0.00052014
v 0.04018141 0.03765062 -0.00052350
v 0.03806942 0.03875842 -0.00052414
v 0.04548103 0.03318360 -0.00052103
v 0.04409830 0.03468132 -0.00052184
v 0.00523168 -0.04382192 -0.00048287
v 0.01006512 -0.04379024 -0.00048273
v 0.01050338 -0.04378244 -0.00048272
v 0.05063456 -0.02186421 -0.00049263
v 0.05125728 -0.01847832 -0.00049434
v 0.05163875 -0.01561375 -0.00049580
v 0.05175703 -0.01451242 -0.00049636
v 0.01468520 -0.04365977 -0.00048264
v 0.01909094 -0.04341468 -0.00048261
v 0.02328165 -0.04303447 -0.00048268
v 0.02590166 -0.04270062 -0.00048277
v 0.02728007 -0.04248838 -0.00048282
v 0.02998096 -0.04198299 -0.00048300
v 0.04753541 -0.03061160 -0.00048824
v 0.04770711 -0.03029376 -0.00048841
v 0.04794509 -0.02983302 -0.00048863
v 0.05214927 -0.00932611 -0.00049900
v 0.05235296 -0.00336341 -0.00050206
v 0.03097328 -0.04176250 -0.00048307
v 0.03255453 -0.04136543 -0.00048322
v 0.03499699 -0.04061971 -0.00048353
v 0.04897980 -0.02749601 -0.00048980
v 0.04985921 -0.02490989 -0.00049109
v 0.03730445 -0.03972627 -0.00048391
v 0.03827461 -0.03928146 -0.00048410
v 0.04013341 -0.03828415 -0.00048455
v 0.04185650 -0.03714368 -0.00048508
v 0.04343941 -0.03585135 -0.00048570
v 0.04393080 -0.03538941 -0.00048592
v 0.04534488 -0.03385457 -0.00048665
v 0.04659897 -0.03216077 -0.00048747
f 3 2 4
f 4 2 5
f 2 11 5
f 2 10 11
f 9 10 2
f 2 22 9
f 2 21 22
f 18 21 2
f 17 18 2
f 2 30 17
f 2 29 30
f 25 29 2
f 2 24 25
f 23 24 2
f 2 32 23
f 2 31 32
f 28 31 2
f 2 27 28
f 2 26 27
f 16 26 2
f 2 15 16
f 2 20 15
f 2 19 20
f 14 19 2
f 2 13 14
f 2 12 13
f 8 12 2
f 2 7 8
f 6 7 2
f 2 50 6
f 2 49 50
f 39 49 2
f 2 38 39
f 2 37 38
f 36 37 2
f 2 55 36
f 2 54 55
f 48 54 2
f 2 47 48
f 46 47 2
f 2 63 46
f 2 62 63
f 61 62 2
f 2 60 61
f 2 59 60
f 58 59 2
f 2 57 58
f 2 56 57
f 53 56 2
f 2 52 53
f 2 51 52
f 45 51 2
f 2 44 45
f 2 43 44
f 42 43 2
f 2 41 42
f 2 40 41
f 35 40 2
f 2 34 35
f 2 33 34
f 1 33 2

