# https://github.com/mikedh/trimesh
v 0.06113226 -0.00459624 -0.00359768
v 0.06113226 -0.00442259 -0.00361288
v 0.06113226 -0.00425422 -0.00365799
v 0.06113226 -0.00409624 -0.00373166
v 0.06113226 -0.00395346 -0.00383164
v 0.06113226 -0.00383020 -0.00395490
v 0.06113226 -0.00373022 -0.00409768
v 0.06113225 -0.00365655 -0.00425566
v 0.06113225 -0.00361143 -0.00442404
v 0.06113225 -0.00359624 -0.00459768
v 0.06113224 -0.00361143 -0.00477133
v 0.06113224 -0.00365655 -0.00493970
v 0.06113224 -0.00373022 -0.00509768
v 0.06113224 -0.00383020 -0.00524047
v 0.06113224 -0.00395346 -0.00536373
v 0.06113224 -0.00409624 -0.00546371
v 0.06113223 -0.00425422 -0.00553738
v 0.06113223 -0.00442259 -0.00558249
v 0.06113223 -0.00459624 -0.00559768
v 0.06113223 -0.00476989 -0.00558249
v 0.06113223 -0.00493826 -0.00553738
v 0.06113224 -0.00509624 -0.00546371
v 0.06113224 -0.00523903 -0.00536373
v 0.06113224 -0.00536229 -0.00524047
v 0.06113224 -0.00546227 -0.00509768
v 0.06113224 -0.00553594 -0.00493970
v 0.06113224 -0.00558105 -0.00477133
v 0.06113225 -0.00559624 -0.00459768
v 0.06113225 -0.00558105 -0.00442404
v 0.06113225 -0.00553594 -0.00425566
v 0.06113226 -0.00546227 -0.00409768
v 0.06113226 -0.00536229 -0.00395490
v 0.06113226 -0.00523903 -0.00383164
v 0.06113226 -0.00509624 -0.00373166
v 0.06113226 -0.00493826 -0.00365799
v 0.06113226 -0.00476989 -0.00361288
v 0.06113225 -0.00459624 -0.00459768
f 17 18 37
f 37 16 17
f 37 15 16
f 14 15 37
f 37 13 14
f 37 12 13
f 11 12 37
f 37 10 11
f 37 9 10
f 8 9 37
f 37 7 8
f 37 6 7
f 5 6 37
f 37 4 5
f 37 3 4
f 2 3 37
f 37 1 2
f 37 36 1
f 35 36 37
f 37 34 35
f 37 33 34
f 32 33 37
f 37 31 32
f 37 30 31
f 29 30 37
f 37 28 29
f 37 27 28
f 26 27 37
f 37 25 26
f 37 24 25
f 23 24 37
f 37 22 23
f 37 21 22
f 20 21 37
f 37 19 20
f 37 18 19

