# https://github.com/mikedh/trimesh
v -0.06123307 -0.01663188 -0.19664685
v -0.05724023 -0.01661873 -0.19219679
v -0.05438126 -0.01661035 -0.18694587
v -0.05281030 -0.01660717 -0.18117717
v -0.05261205 -0.01660941 -0.17520167
v -0.05379718 -0.01661690 -0.16934152
v -0.05630181 -0.01662928 -0.16391264
v -0.05999092 -0.01664585 -0.15920772
v -0.06466561 -0.01666571 -0.15548037
v -0.08768241 -0.01675545 -0.15337206
v -0.09295648 -0.01677436 -0.15618812
v -0.09743895 -0.01678964 -0.16014455
v -0.10088817 -0.01680048 -0.16502807
v -0.10311821 -0.01680631 -0.17057538
v -0.10380832 -0.01680724 -0.17402323
v -0.10400884 -0.01680677 -0.17648746
v -0.10351204 -0.01680188 -0.18244557
v -0.10165460 -0.01679187 -0.18812850
v -0.08358288 -0.01671504 -0.20253791
v -0.07762901 -0.01669184 -0.20308328
v -0.07170987 -0.01666944 -0.20224088
v -0.06614455 -0.01664910 -0.20005615
v -0.09853665 -0.01677732 -0.19322990
v -0.09432628 -0.01675897 -0.19747475
v -0.08925048 -0.01673783 -0.20063418
v -0.07007389 -0.01668783 -0.15293156
v -0.07592417 -0.01671099 -0.15169868
v -0.08190109 -0.01673394 -0.15184820
v -0.05999092 -0.01752224 -0.15920772
v -0.06466562 -0.01752223 -0.15548037
v -0.07007389 -0.01752223 -0.15293156
v -0.07592417 -0.01752223 -0.15169868
v -0.08190109 -0.01752224 -0.15184820
v -0.08768241 -0.01752224 -0.15337206
v -0.09295648 -0.01752223 -0.15618812
v -0.09743895 -0.01752224 -0.16014455
v -0.10088817 -0.01752224 -0.16502807
v -0.10311821 -0.01752224 -0.17057538
v -0.10400884 -0.01752224 -0.17648746
v -0.05679006 -0.01752223 -0.16314465
v -0.10351204 -0.01752223 -0.18244557
v -0.10165460 -0.01752224 -0.18812850
v -0.09853665 -0.01752224 -0.19322990
v -0.09432628 -0.01752224 -0.19747475
v -0.08925048 -0.01752224 -0.20063418
v -0.08358288 -0.01752224 -0.20253791
v -0.07762901 -0.01752223 -0.20308326
v -0.07170987 -0.01752223 -0.20224088
v -0.06614455 -0.01752223 -0.20005615
v -0.06123307 -0.01752224 -0.19664685
v -0.05724023 -0.01752224 -0.19219679
v -0.05438126 -0.01752224 -0.18694587
v -0.05281031 -0.01752224 -0.18117717
v -0.05261205 -0.01752224 -0.17520167
v -0.05379719 -0.01752223 -0.16934152
v -0.05630181 -0.01752223 -0.16391264
v -0.07827300 -0.01752224 -0.17734133
f 29 9 30
f 29 8 9
f 29 7 8
f 40 7 29
f 56 7 40
f 55 7 56
f 55 6 7
f 54 6 55
f 54 5 6
f 53 5 54
f 53 4 5
f 52 4 53
f 52 3 4
f 51 3 52
f 51 2 3
f 50 2 51
f 50 1 2
f 49 1 50
f 49 22 1
f 48 22 49
f 48 21 22
f 47 21 48
f 47 20 21
f 46 20 47
f 46 19 20
f 45 19 46
f 45 25 19
f 44 25 45
f 44 24 25
f 43 24 44
f 43 23 24
f 42 23 43
f 42 18 23
f 41 18 42
f 41 17 18
f 39 17 41
f 39 16 17
f 15 16 39
f 38 15 39
f 38 14 15
f 37 14 38
f 37 13 14
f 36 13 37
f 36 12 13
f 35 12 36
f 35 11 12
f 34 11 35
f 34 10 11
f 33 10 34
f 33 28 10
f 32 28 33
f 32 27 28
f 31 27 32
f 31 26 27
f 30 26 31
f 38 39 57
f 57 37 38
f 57 36 37
f 35 36 57
f 57 34 35
f 57 33 34
f 32 33 57
f 57 31 32
f 57 30 31
f 29 30 57
f 40 29 57
f 57 56 40
f 57 55 56
f 54 55 57
f 57 53 54
f 57 52 53
f 51 52 57
f 57 50 51
f 57 49 50
f 48 49 57
f 57 47 48
f 57 46 47
f 45 46 57
f 57 44 45
f 57 43 44
f 42 43 57
f 57 41 42
f 57 39 41
f 30 9 26

