# https://github.com/mikedh/trimesh
v -0.09630457 -0.01675660 -0.21628137
v -0.09860937 -0.01676307 -0.22127587
v -0.09597030 -0.01675554 -0.21555455
v -0.09888353 -0.00003458 -0.22172131
v -0.09885480 -0.00619752 -0.22171386
v -0.09679675 -0.01601418 -0.21734145
v -0.09659198 -0.01633911 -0.21690060
v -0.09772819 -0.01411447 -0.21934295
v -0.09837449 -0.01195421 -0.22072424
v -0.09872843 -0.00953824 -0.22146973
v -0.09882078 -0.01626339 -0.22172956
v -0.09880649 -0.01647953 -0.22170049
v -0.09876596 -0.01663621 -0.22161406
v -0.09869999 -0.01673154 -0.22147197
v -0.09862457 -0.01676286 -0.22130881
v -0.09613959 -0.01671976 -0.21592200
f 4 11 5
f 5 11 10
f 11 9 10
f 11 8 9
f 12 8 11
f 12 13 8
f 8 13 14
f 8 14 15
f 2 8 15
f 2 6 8
f 7 6 2
f 1 7 2
f 1 16 7
f 3 16 1

