# https://github.com/mikedh/trimesh
v -0.00796208 -0.03995342 -0.01765107
v -0.00437338 -0.02537590 -0.01764361
v -0.01945362 -0.03932912 -0.01765074
v -0.01278870 -0.02234975 -0.01764203
v -0.00021254 -0.04009316 -0.01765116
v 0.00239734 -0.04010391 -0.01765117
v 0.00456944 -0.02534132 -0.01764360
v 0.01073198 -0.03997914 -0.01765113
v 0.01296111 -0.02225022 -0.01764205
v 0.01581481 -0.03973325 -0.01765101
v -0.02994213 -0.03788744 -0.01764997
v -0.02824530 -0.03821566 -0.01765015
v -0.01966152 -0.01662790 -0.01763909
v -0.02721017 -0.03839308 -0.01765024
v -0.02199693 -0.03908523 -0.01765061
v -0.05035333 -0.01569631 -0.01763856
v -0.04937577 -0.02050326 -0.01764103
v -0.02416286 -0.00890049 -0.01763513
v -0.04836612 -0.02376230 -0.01764270
v -0.05140992 0.00018213 -0.01763042
v -0.05141154 0.00004472 -0.01763049
v -0.02574981 -0.00009954 -0.01763060
v -0.05119167 -0.00748114 -0.01763435
v -0.05054265 -0.01440846 -0.01763789
v -0.03334829 0.03731637 -0.01761140
v -0.03703419 0.03600253 -0.01761207
v -0.01978948 0.01647540 -0.01762212
v -0.03714284 0.03595573 -0.01761210
v 0.01278870 0.02234976 -0.01761917
v 0.01966151 0.01662792 -0.01762212
v 0.02393974 0.03961407 -0.01761035
v -0.04059007 -0.03392653 -0.01764792
v -0.03804146 -0.03532662 -0.01764864
v -0.03362809 -0.03697275 -0.01764949
v -0.04332517 -0.03179169 -0.01764683
v -0.04371551 -0.03140957 -0.01764662
v -0.04756814 0.02584356 -0.01761726
v -0.04870372 0.02291500 -0.01761876
v -0.00456944 0.02534133 -0.01761760
v -0.01843542 0.03980777 -0.01761016
v -0.01296111 0.02225021 -0.01761917
v -0.02576722 0.03894624 -0.01761059
v -0.02870170 0.03843664 -0.01761085
v 0.02285995 0.03976149 -0.01761027
v 0.01908248 0.04016418 -0.01761005
v 0.00437337 0.02537590 -0.01761761
v 0.00960615 0.04063189 -0.01760979
v -0.00009954 0.02574980 -0.01761740
v 0.00497268 0.04067374 -0.01760976
v -0.01037720 0.04033282 -0.01760991
v 0.03649367 0.03590050 -0.01761227
v 0.03404606 0.03706600 -0.01761167
v 0.02978556 0.03846610 -0.01761094
v 0.02416286 0.00890048 -0.01762609
v 0.04712306 0.01619485 -0.01762240
v 0.01772161 -0.03959496 -0.01765095
v 0.02178134 -0.03919081 -0.01765074
v 0.01978948 -0.01647540 -0.01763910
v 0.02726342 -0.03831564 -0.01765031
v 0.03109821 -0.03735827 -0.01764982
v -0.04688849 -0.02707454 -0.01764440
v -0.04498794 -0.02997328 -0.01764588
v -0.02423095 0.00871341 -0.01762609
v -0.05004641 0.01756648 -0.01762151
v -0.05091657 0.01117838 -0.01762478
v -0.05137611 0.00267689 -0.01762914
v -0.04029309 0.03431282 -0.01761293
v -0.04142598 0.03354812 -0.01761332
v -0.04289804 0.03235927 -0.01761393
v 0.04774836 0.00827433 -0.01762646
v 0.02574981 0.00009954 -0.01763060
v 0.04791242 0.00042836 -0.01763048
v 0.03474402 -0.03601762 -0.01764914
v 0.03751767 -0.03454556 -0.01764840
v 0.04015582 -0.03253558 -0.01764737
v -0.04521615 0.02983668 -0.01761522
v -0.04704076 0.02692811 -0.01761671
v 0.04649832 0.02019435 -0.01762035
v 0.04635655 0.02089680 -0.01761998
v 0.04518934 0.02520434 -0.01761778
v 0.04463701 0.02668466 -0.01761702
v 0.04400486 0.02811751 -0.01761627
v 0.04333375 0.02939348 -0.01761562
v 0.04485013 -0.02547636 -0.01764376
v 0.04598343 -0.02198792 -0.01764198
v 0.04615048 -0.02132725 -0.01764164
v 0.02423095 -0.00871342 -0.01763513
v 0.04135014 0.03208258 -0.01761423
v 0.03943210 0.03392218 -0.01761329
v 0.04716064 -0.01566750 -0.01763874
v 0.04756654 -0.01152472 -0.01763661
v 0.04790572 -0.00229313 -0.01763187
v 0.04193889 -0.03061581 -0.01764639
v 0.04383433 -0.02769229 -0.01764488
v -0.05136443 0.00004430 -0.01693374
v -0.05133849 0.00018458 -0.01660611
v -0.05134020 0.00004432 -0.01660619
v 0.04767256 -0.01263443 -0.01661233
v 0.04709871 -0.01750352 -0.01661483
v 0.02423095 -0.00871342 -0.01661041
v 0.02049755 -0.03945108 -0.01662618
v 0.01789856 -0.03969173 -0.01662632
v 0.01296111 -0.02225022 -0.01661739
v 0.01140538 -0.04006141 -0.01662652
v 0.00456943 -0.02534132 -0.01661899
v 0.00731918 -0.04016895 -0.01662659
v -0.00437338 -0.02537590 -0.01661904
v 0.04725935 0.01660551 -0.01659735
v 0.02416286 0.00890050 -0.01660137
v 0.04668096 0.02021525 -0.01659550
v 0.01966151 0.01662792 -0.01659742
v 0.03271375 0.03770606 -0.01658658
v 0.03628820 0.03617099 -0.01658735
v 0.03682943 0.03587630 -0.01658751
v 0.03960318 0.03398545 -0.01658846
v 0.01682061 0.04042737 -0.01658523
v 0.02318437 0.03981839 -0.01658553
v 0.01278870 0.02234976 -0.01659453
v 0.02874028 0.03883736 -0.01658601
v 0.03062543 0.03835865 -0.01658625
v -0.01296111 0.02225021 -0.01659466
v -0.02257793 0.03946444 -0.01658586
v -0.01636840 0.04005995 -0.01658555
v 0.01978948 -0.01647540 -0.01661439
v -0.00656449 -0.04009140 -0.01662660
v -0.01233500 -0.03988648 -0.01662651
v -0.01278870 -0.02234975 -0.01661753
v -0.02068104 -0.03931001 -0.01662625
v -0.01966151 -0.01662791 -0.01661461
v -0.02690306 -0.03852818 -0.01662587
v 0.02701537 -0.03849256 -0.01662567
v 0.03227786 -0.03712727 -0.01662494
v 0.04744465 0.01505282 -0.01659814
v 0.04796402 0.00772543 -0.01660190
v 0.02574981 0.00009953 -0.01660588
v 0.04810656 0.00042854 -0.01660564
v 0.04794003 -0.00850331 -0.01661022
v 0.04161676 0.03203269 -0.01658946
v 0.04350184 0.02944581 -0.01659078
v 0.04422010 0.02806708 -0.01659148
v 0.04479607 0.02675031 -0.01659215
v 0.04626180 0.02214288 -0.01659451
v -0.00456944 0.02534133 -0.01659304
v -0.01231203 0.04032078 -0.01658540
v 0.00017330 0.02574941 -0.01659282
v 0.00146143 0.04074289 -0.01658512
v 0.00437338 0.02537590 -0.01659299
v 0.00508477 0.04076133 -0.01658511
v 0.01516043 0.04052509 -0.01658519
v 0.03884451 -0.03384237 -0.01662323
v 0.03627922 -0.03544237 -0.01662407
v 0.03249728 -0.03705290 -0.01662490
v 0.04618733 -0.02197594 -0.01661712
v 0.04504130 -0.02552056 -0.01661894
v 0.04353282 -0.02862664 -0.01662055
v -0.03898359 0.03513893 -0.01658814
v -0.03697440 0.03610118 -0.01658764
v -0.01978948 0.01647541 -0.01659764
v -0.02694038 0.03883934 -0.01658620
v -0.02939782 0.03837748 -0.01658645
v -0.04920533 -0.02093530 -0.01661693
v -0.02416286 -0.00890049 -0.01661067
v -0.04778396 -0.02512300 -0.01661907
v -0.03153372 -0.03760791 -0.01662541
v -0.03574694 -0.03634239 -0.01662477
v -0.03796539 -0.03541762 -0.01662431
v 0.04161437 -0.03129553 -0.01662192
v 0.03916677 -0.03359900 -0.01662311
v -0.03492334 0.03689006 -0.01658723
v -0.03000604 0.03824756 -0.01658652
v -0.02574981 -0.00009954 -0.01660617
v -0.05039415 0.01523178 -0.01659838
v -0.04953232 0.01985676 -0.01659601
v -0.02423095 0.00871341 -0.01660164
v -0.04828449 0.02407531 -0.01659384
v -0.04769384 0.02554935 -0.01659309
v -0.04420153 0.03110517 -0.01659022
v -0.04167444 0.03342372 -0.01658903
v -0.04098035 -0.03370534 -0.01662344
v -0.04334376 -0.03178504 -0.01662247
v -0.04363182 -0.03150061 -0.01662233
v -0.04605506 0.02865647 -0.01659149
v -0.04495039 0.03021540 -0.01659068
v -0.05111048 0.00788992 -0.01660215
v -0.05034612 -0.01532508 -0.01661405
v -0.05085595 -0.01106783 -0.01661187
v -0.05130962 -0.00254243 -0.01660750
v -0.04582668 -0.02879652 -0.01662094
v -0.04758734 -0.02557522 -0.01661930
v 0.03572856 0.03633507 -0.01739644
v 0.04012370 0.03335623 -0.01745981
v 0.02292095 0.03979451 -0.01718901
v 0.03051404 0.03830407 -0.01731858
v 0.01051944 0.04066831 -0.01695299
v 0.04773043 0.01027412 -0.01717269
v 0.04657533 0.02020329 -0.01719238
v -0.05080063 -0.01188896 -0.01698235
v -0.04963799 -0.01928756 -0.01706451
v -0.04783228 -0.02506544 -0.01717674
v -0.04528975 -0.02957619 -0.01732510
f 1 2 3
f 1 5 2
f 2 5 6
f 2 6 7
f 7 6 8
f 7 8 9
f 9 8 10
f 10 56 9
f 9 56 57
f 9 57 58
f 58 57 59
f 58 59 60
f 60 73 58
f 60 132 73
f 73 132 152
f 73 152 74
f 152 151 74
f 74 151 150
f 74 150 75
f 75 150 168
f 75 168 93
f 168 167 93
f 93 167 155
f 93 155 94
f 94 155 84
f 84 155 154
f 84 154 85
f 85 154 153
f 85 153 86
f 86 153 90
f 90 153 99
f 90 99 91
f 99 98 91
f 91 98 137
f 91 137 92
f 71 91 92
f 71 92 72
f 70 71 72
f 70 54 71
f 55 54 70
f 70 195 55
f 55 195 196
f 196 78 55
f 55 78 30
f 30 78 79
f 30 79 80
f 80 81 30
f 30 81 82
f 30 82 83
f 83 88 30
f 30 88 89
f 89 88 191
f 190 89 191
f 190 51 89
f 52 51 190
f 52 190 193
f 193 53 52
f 193 31 53
f 192 31 193
f 193 119 192
f 192 119 117
f 192 117 116
f 149 192 116
f 194 192 149
f 149 148 194
f 194 148 49
f 194 49 47
f 47 45 194
f 49 148 146
f 49 146 50
f 146 144 50
f 50 144 123
f 50 123 40
f 40 123 122
f 40 122 42
f 42 122 159
f 42 159 43
f 159 160 43
f 43 160 170
f 43 170 25
f 25 170 169
f 25 169 26
f 26 169 157
f 26 157 28
f 28 157 67
f 156 67 157
f 156 68 67
f 178 68 156
f 178 69 68
f 178 76 69
f 177 76 178
f 177 183 76
f 76 183 182
f 76 182 77
f 77 182 176
f 77 176 37
f 37 176 38
f 176 175 38
f 38 175 173
f 38 173 64
f 64 173 172
f 64 172 65
f 65 172 184
f 65 184 66
f 66 184 96
f 66 96 20
f 95 20 96
f 95 96 97
f 187 95 97
f 187 197 95
f 23 95 197
f 23 197 24
f 24 197 16
f 16 197 198
f 16 198 17
f 17 198 199
f 161 199 198
f 161 198 185
f 161 185 162
f 162 185 186
f 162 186 171
f 171 186 187
f 171 187 97
f 171 97 96
f 171 96 174
f 174 96 184
f 174 184 172
f 172 173 174
f 174 173 175
f 174 175 176
f 176 182 174
f 174 182 183
f 174 183 177
f 174 177 158
f 158 177 178
f 158 178 156
f 156 157 158
f 157 169 158
f 158 169 170
f 158 170 160
f 159 158 160
f 159 121 158
f 122 121 159
f 121 122 123
f 121 123 143
f 143 123 144
f 143 144 145
f 145 144 146
f 145 146 147
f 147 146 148
f 147 148 118
f 118 148 149
f 118 149 116
f 116 117 118
f 118 117 119
f 118 119 111
f 111 119 120
f 111 120 112
f 112 113 111
f 111 113 114
f 111 114 115
f 115 138 111
f 111 138 139
f 111 139 140
f 140 141 111
f 111 141 142
f 111 142 110
f 110 109 111
f 108 109 110
f 108 133 109
f 109 133 134
f 109 134 135
f 135 134 136
f 135 136 100
f 100 136 137
f 100 137 98
f 98 99 100
f 100 99 124
f 99 153 124
f 124 153 154
f 124 154 155
f 155 167 124
f 124 167 168
f 124 168 150
f 150 151 124
f 124 151 152
f 124 152 132
f 131 124 132
f 131 103 124
f 101 103 131
f 101 102 103
f 103 102 104
f 103 104 105
f 105 104 106
f 105 106 107
f 106 125 107
f 107 125 126
f 107 126 127
f 127 126 128
f 127 128 129
f 129 128 130
f 130 164 129
f 129 164 165
f 129 165 166
f 166 179 129
f 129 179 180
f 129 180 181
f 181 188 129
f 129 188 189
f 129 189 163
f 163 162 129
f 161 162 163
f 163 199 161
f 189 199 163
f 189 200 199
f 61 199 200
f 61 200 62
f 200 36 62
f 200 181 36
f 188 181 200
f 36 181 35
f 35 181 180
f 35 180 32
f 180 179 32
f 32 179 166
f 32 166 33
f 33 166 34
f 34 166 165
f 34 165 164
f 164 11 34
f 164 12 11
f 130 12 164
f 130 14 12
f 130 15 14
f 128 15 130
f 128 3 15
f 126 3 128
f 126 1 3
f 125 1 126
f 125 5 1
f 106 5 125
f 106 6 5
f 8 6 106
f 106 104 8
f 8 104 10
f 10 104 102
f 10 102 56
f 56 102 57
f 57 102 101
f 57 101 59
f 59 101 131
f 59 131 60
f 19 199 61
f 188 200 189
f 17 199 19
f 185 198 197
f 185 197 186
f 21 95 23
f 186 197 187
f 21 20 95
f 194 45 192
f 45 44 192
f 193 120 119
f 112 120 193
f 193 113 112
f 192 44 31
f 30 52 53
f 30 53 31
f 29 30 31
f 31 44 29
f 29 44 45
f 29 45 46
f 46 45 47
f 46 47 48
f 48 47 49
f 48 49 39
f 39 49 50
f 39 50 40
f 39 40 41
f 41 40 42
f 41 42 27
f 27 42 43
f 27 43 25
f 25 26 27
f 27 26 28
f 28 67 27
f 27 67 68
f 27 68 69
f 69 76 27
f 27 76 77
f 27 77 37
f 27 37 38
f 27 38 63
f 38 64 63
f 63 64 65
f 63 65 22
f 22 65 66
f 22 66 20
f 20 21 22
f 22 21 23
f 22 23 18
f 18 23 24
f 18 24 16
f 16 17 18
f 18 17 19
f 19 61 18
f 18 61 62
f 18 62 36
f 35 18 36
f 35 13 18
f 32 13 35
f 32 33 13
f 13 33 34
f 13 34 11
f 11 12 13
f 13 12 14
f 13 14 4
f 4 14 15
f 4 15 3
f 193 190 113
f 190 114 113
f 190 115 114
f 51 52 30
f 191 115 190
f 191 138 115
f 139 138 191
f 191 83 139
f 191 88 83
f 83 140 139
f 82 140 83
f 82 141 140
f 81 141 82
f 81 80 141
f 141 80 196
f 141 196 142
f 142 196 110
f 196 108 110
f 196 133 108
f 80 79 196
f 30 89 51
f 196 79 78
f 195 133 196
f 195 134 133
f 136 134 195
f 70 136 195
f 30 54 55
f 72 136 70
f 92 136 72
f 87 91 71
f 87 90 91
f 86 90 87
f 58 86 87
f 92 137 136
f 58 85 86
f 84 85 58
f 58 94 84
f 58 93 94
f 75 93 58
f 58 74 75
f 60 131 132
f 58 73 74
f 3 2 4

