# https://github.com/mikedh/trimesh
v -0.02103316 -0.00000000 0.02420712
v -0.02050351 -0.00000000 0.02120982
v -0.01457290 -0.00000000 -0.00355396
v -0.01262933 -0.00000000 -0.00809321
v -0.02571048 -0.00000000 -0.01446448
v -0.00464800 -0.00000000 -0.03195030
v -0.00622193 -0.00000000 -0.03302784
v -0.02837231 -0.00000000 -0.00807851
v -0.02947358 -0.00000000 -0.00124820
v -0.01493727 -0.00000000 0.00137042
v -0.02895374 -0.00000000 0.00565077
v -0.01368295 -0.00000000 0.00614628
v 0.01961006 -0.00000000 -0.03329280
v 0.01936227 -0.00000000 -0.03189058
v 0.02621646 -0.00000000 -0.03021088
v -0.00715695 -0.00000000 -0.03469038
v -0.01146326 -0.00000000 -0.03268997
v -0.02684136 -0.00000000 0.01223892
v -0.02325265 -0.00000000 0.01815391
v -0.01094588 -0.00000000 0.01025611
v -0.00702264 -0.00000000 0.01325453
v 0.03065364 -0.00000000 -0.02569736
v 0.01861250 -0.00000000 -0.03013668
v 0.03165210 -0.00000000 -0.02377727
v 0.01495910 -0.00000000 0.00110687
v 0.01378918 -0.00000000 0.00590411
v 0.02202581 -0.00000000 0.03338958
v 0.01112499 -0.00000000 0.01006155
v 0.02018037 -0.00000000 0.03453625
v 0.00725522 -0.00000000 0.01312866
v 0.00259924 -0.00000000 0.01477308
v -0.00233840 -0.00000000 0.01481661
v -0.01170992 -0.00000000 -0.03208675
v -0.01276824 -0.00000000 -0.02990826
v -0.01441792 -0.00000000 -0.02731608
v -0.00931718 -0.00000000 -0.01175544
v -0.00499536 -0.00000000 -0.01414377
v -0.00275981 -0.00000000 -0.03168002
v -0.00013222 -0.00000000 -0.01499942
v 0.00278330 -0.00000000 -0.03167796
v 0.00474524 -0.00000000 -0.01422964
v 0.01248469 -0.00000000 -0.00831460
v 0.01531642 -0.00000000 -0.02842240
v 0.00910849 -0.00000000 -0.01191786
v 0.01344995 -0.00000000 -0.02881560
v 0.00824183 -0.00000000 -0.03071339
v -0.01490425 -0.00000000 -0.02667317
v -0.01638526 -0.00000000 -0.02495592
v -0.01863685 -0.00000000 -0.02286740
v -0.02163451 -0.00000000 -0.02005487
v 0.02018724 -0.00000000 -0.03403196
v 0.01980663 -0.00000000 -0.03373424
v 0.02066302 -0.00000000 -0.03411645
v 0.02112287 -0.00000000 -0.03396798
v 0.01450798 -0.00000000 -0.00381032
v 0.01716432 -0.00000000 -0.02889527
v 0.03174565 -0.00000000 -0.02161512
v -0.00730135 -0.00000000 -0.03888945
v -0.00771937 -0.00000000 -0.03913189
v -0.00704583 -0.00000000 -0.03847931
v -0.00820225 -0.00000000 -0.03915001
v -0.00701245 -0.00000000 -0.03799724
v -0.00990745 -0.00000000 -0.03875361
v -0.00726023 -0.00000000 -0.03659502
v -0.01016519 -0.00000000 -0.03729508
v -0.01052437 -0.00000000 -0.03561561
v -0.02107460 -0.00000000 0.02456810
v -0.02103000 -0.00000000 0.02526874
v -0.02080972 -0.00000000 0.02597125
v -0.02052812 -0.00000000 0.02646163
v -0.01860096 -0.00000000 0.02768339
v -0.01992555 -0.00000000 0.02709348
f 3 4 5
f 5 8 3
f 3 8 9
f 3 9 10
f 10 9 11
f 10 11 12
f 11 18 12
f 12 18 19
f 12 19 20
f 20 19 2
f 20 2 21
f 2 32 21
f 2 31 32
f 29 31 2
f 2 1 29
f 29 1 67
f 29 67 68
f 68 69 29
f 29 69 70
f 29 70 71
f 71 70 72
f 29 30 31
f 28 30 29
f 27 28 29
f 27 26 28
f 25 26 27
f 56 25 27
f 56 27 23
f 23 27 57
f 23 57 24
f 22 23 24
f 22 14 23
f 15 14 22
f 13 14 15
f 54 13 15
f 53 13 54
f 53 52 13
f 51 52 53
f 43 25 56
f 43 55 25
f 42 55 43
f 42 43 44
f 44 43 45
f 44 45 41
f 41 45 46
f 41 46 40
f 40 39 41
f 38 39 40
f 38 37 39
f 6 37 38
f 6 36 37
f 4 36 6
f 5 4 6
f 5 6 7
f 7 48 5
f 5 48 49
f 5 49 50
f 7 47 48
f 35 47 7
f 7 34 35
f 7 33 34
f 17 33 7
f 7 16 17
f 16 66 17
f 16 65 66
f 64 65 16
f 64 63 65
f 62 63 64
f 62 61 63
f 60 61 62
f 60 59 61
f 58 59 60

