# https://github.com/mikedh/trimesh
v -0.03684626 -0.09032535 -0.02676978
v -0.03680737 -0.09047436 -0.02563472
v -0.03743647 -0.08920991 -0.02458210
v -0.03242616 -0.01585756 -0.01073800
v -0.03211749 -0.01469020 -0.01248479
v -0.03343448 -0.01478725 -0.01277902
v -0.03445178 -0.01253389 -0.01860742
v -0.03471666 -0.01258126 -0.01893479
v -0.03446116 -0.01280818 -0.01786972
v -0.03535765 -0.01272780 -0.01992497
v -0.03592267 -0.01291455 -0.02116575
v -0.03605748 -0.01373330 -0.01859264
v -0.03612424 -0.01300123 -0.02174213
v -0.03660418 -0.01329654 -0.02374100
v -0.03732664 -0.01500781 -0.01942425
v -0.03684579 -0.01370610 -0.02672967
v -0.03681200 -0.01393555 -0.02865453
v -0.03743657 -0.01482661 -0.02458151
v -0.03266582 -0.01234585 -0.01718937
v -0.03315281 -0.01237863 -0.01746642
v -0.03136262 -0.01231099 -0.01675660
v -0.03230381 -0.01232884 -0.01702650
v -0.03286095 -0.01772419 -0.00827754
v -0.03417601 -0.01781335 -0.00858271
v -0.03337720 -0.02033678 -0.00535609
v -0.03484968 -0.02132459 -0.00477042
v -0.03353637 -0.02124457 -0.00445532
v -0.03544593 -0.02527116 -0.00139622
v -0.03413417 -0.02520143 -0.00107232
v -0.03419119 -0.02563311 -0.00074968
v -0.03595631 -0.02959708 0.00149203
v -0.03464589 -0.02953863 0.00182346
v -0.03690653 -0.04421584 0.00686930
v -0.03538332 -0.03910350 0.00599659
v -0.03669182 -0.03913708 0.00565431
v -0.03532817 -0.03811316 0.00568450
v -0.03637357 -0.03424101 0.00385336
v -0.03506425 -0.03419467 0.00419096
v -0.03484716 -0.03160995 0.00296243
v -0.03572056 -0.05201850 0.00790503
v -0.03570698 -0.04939845 0.00782816
v -0.03701463 -0.04940527 0.00748111
v -0.03562183 -0.04497501 0.00734632
v -0.03559858 -0.04419550 0.00721475
v -0.03570697 -0.05463856 0.00782812
v -0.03701463 -0.05463174 0.00748107
v -0.03562181 -0.05906199 0.00734621
v -0.03690650 -0.05982116 0.00686918
v -0.03559856 -0.05984150 0.00721463
v -0.03669179 -0.06489991 0.00565410
v -0.03538328 -0.06493349 0.00599638
v -0.03595625 -0.07443983 0.00149167
v -0.03484710 -0.07242698 0.00296211
v -0.03637353 -0.06979594 0.00385309
v -0.03506419 -0.06984229 0.00419068
v -0.03532813 -0.06592382 0.00568428
v -0.03337711 -0.08370002 -0.00535659
v -0.03353629 -0.08279224 -0.00445580
v -0.03484958 -0.08271223 -0.00477091
v -0.03413410 -0.07883544 -0.00107275
v -0.03544585 -0.07876571 -0.00139665
v -0.03419112 -0.07840377 -0.00075009
v -0.03464583 -0.07449829 0.00182311
v -0.03286085 -0.08631257 -0.00827808
v -0.03417591 -0.08622340 -0.00858325
v -0.03242606 -0.08817916 -0.01073857
v -0.03343438 -0.08924942 -0.01277960
v -0.03211738 -0.08934648 -0.01248538
v -0.03262980 -0.09169279 -0.01717183
v -0.03136251 -0.09172563 -0.01675722
v -0.03410937 -0.09155498 -0.01823938
v -0.03314562 -0.09165863 -0.01746200
v -0.03446105 -0.09122843 -0.01787033
v -0.03296378 -0.09167219 -0.01735077
v -0.03524949 -0.08876309 -0.01340854
v -0.03605737 -0.09030330 -0.01859325
v -0.03539585 -0.09129830 -0.01999560
v -0.03446911 -0.09149977 -0.01862846
v -0.03598817 -0.09109519 -0.02134439
v -0.03732654 -0.08902878 -0.01942483
v -0.03634428 -0.09092168 -0.02250377
v -0.03660545 -0.09073856 -0.02375166
v -0.03636790 -0.08916812 -0.03381947
v -0.03584141 -0.08929168 -0.03679832
v -0.03578270 -0.08961815 -0.03678795
v -0.03652649 -0.08980188 -0.03188337
v -0.03665148 -0.08989212 -0.03075824
v -0.03713269 -0.08854508 -0.02949151
v -0.03682461 -0.09013359 -0.02836291
v -0.03787917 -0.08740398 -0.02526719
v -0.03658207 -0.08782970 -0.03319317
v -0.03594187 -0.08801816 -0.03681607
v -0.03750300 -0.08688246 -0.02798156
v -0.03790994 -0.08619552 -0.02567871
v -0.03859675 -0.08576098 -0.02120640
v -0.03840165 -0.08512697 -0.02289614
v -0.03927524 -0.08363941 -0.01736676
v -0.03925583 -0.08256853 -0.01806232
v -0.03990505 -0.08106934 -0.01380271
v -0.04003945 -0.07924917 -0.01362780
v -0.04047722 -0.07808723 -0.01056481
v -0.04041927 -0.07719696 -0.01147843
v -0.04098363 -0.07473538 -0.00769899
v -0.04071331 -0.07534537 -0.00981440
v -0.04141711 -0.07106133 -0.00524589
v -0.04129429 -0.07072438 -0.00652668
v -0.04177153 -0.06711718 -0.00324028
v -0.04174469 -0.06558272 -0.00397785
v -0.04204183 -0.06295888 -0.00171065
v -0.04193045 -0.06258524 -0.00292664
v -0.04222418 -0.05864540 -0.00067867
v -0.04203991 -0.06026250 -0.00230716
v -0.04231602 -0.05423793 -0.00015897
v -0.04218538 -0.05496439 -0.00148395
v -0.04231603 -0.04979898 -0.00015893
v -0.04220571 -0.05148518 -0.00136892
v -0.04222421 -0.04539150 -0.00067855
v -0.04212014 -0.04606469 -0.00185316
v -0.04204186 -0.04107800 -0.00171048
v -0.04188895 -0.04070359 -0.00316146
v -0.04177158 -0.03691968 -0.00324004
v -0.04151266 -0.03555160 -0.00529088
v -0.04141717 -0.03297550 -0.00524558
v -0.04098370 -0.02930141 -0.00769863
v -0.04099685 -0.03075441 -0.00820983
v -0.04047729 -0.02594951 -0.01056440
v -0.04035584 -0.02647223 -0.01183735
v -0.03990513 -0.02296735 -0.01380225
v -0.03954900 -0.02258490 -0.01640324
v -0.04031835 -0.02626012 -0.01204947
v -0.03636800 -0.01486824 -0.03381889
v -0.03691242 -0.01645345 -0.03132368
v -0.03713279 -0.01549135 -0.02949094
v -0.03786137 -0.01774994 -0.02595356
v -0.03787927 -0.01663253 -0.02526663
v -0.03874269 -0.01981652 -0.02096617
v -0.03859684 -0.01827559 -0.02120587
v -0.03927534 -0.02039723 -0.01736626
v -0.03618713 -0.01437166 -0.03434993
v -0.03578281 -0.01441815 -0.03678736
v -0.03584151 -0.01474463 -0.03679774
v -0.03594197 -0.01601816 -0.03681551
v -0.03524959 -0.01527359 -0.01340796
v -0.03598143 -0.01826016 -0.00926648
v -0.03664630 -0.02172553 -0.00550397
v -0.03723476 -0.02562054 -0.00217386
v -0.03773847 -0.02988996 0.00067666
v -0.03815030 -0.03447323 0.00300717
v -0.03846439 -0.03930534 0.00478458
v -0.03867628 -0.04431776 0.00598370
v -0.03878298 -0.04943940 0.00658752
v -0.03878297 -0.05459761 0.00658748
v -0.03867626 -0.05971923 0.00598358
v -0.03846435 -0.06473164 0.00478438
v -0.03815025 -0.06956372 0.00300688
v -0.03773842 -0.07414695 0.00067632
v -0.03723469 -0.07841632 -0.00217427
v -0.03664621 -0.08231128 -0.00550446
v -0.03598134 -0.08577658 -0.00926700
v -0.03682731 -0.01614054 -0.01423616
v -0.03754188 -0.01905665 -0.01019238
v -0.03819107 -0.02244025 -0.00651867
v -0.03876565 -0.02624337 -0.00326711
v -0.03925748 -0.03041205 -0.00048384
v -0.03965958 -0.03488718 0.00179167
v -0.03996626 -0.03960528 0.00352715
v -0.04017315 -0.04449944 0.00469797
v -0.04027733 -0.04950024 0.00528755
v -0.04027733 -0.05453675 0.00528751
v -0.04017313 -0.05953753 0.00469785
v -0.03996622 -0.06443167 0.00352695
v -0.03965953 -0.06914975 0.00179140
v -0.03925742 -0.07362484 -0.00048418
v -0.03876558 -0.07779348 -0.00326751
v -0.03819099 -0.08159655 -0.00651913
v -0.03754180 -0.08498009 -0.01019290
v -0.03682721 -0.08789613 -0.01423673
v -0.03807085 -0.01733492 -0.01521279
v -0.03876163 -0.02015395 -0.01130364
v -0.03938919 -0.02342491 -0.00775222
v -0.03994465 -0.02710142 -0.00460891
v -0.04042010 -0.03113133 -0.00191830
v -0.04080882 -0.03545748 0.00028146
v -0.04110529 -0.04001851 0.00195917
v -0.04130530 -0.04474974 0.00309102
v -0.04140601 -0.04958406 0.00366096
v -0.04140601 -0.05445290 0.00366093
v -0.04130528 -0.05928721 0.00309090
v -0.04110525 -0.06401842 0.00195897
v -0.04080878 -0.06857944 0.00028120
v -0.04042005 -0.07290555 -0.00191862
v -0.03994458 -0.07693541 -0.00460930
v -0.03938912 -0.08061187 -0.00775266
v -0.03876154 -0.08388278 -0.01130413
v -0.03807075 -0.08670174 -0.01521334
v -0.03819067 -0.08748306 -0.02031407
v -0.03890380 -0.08525321 -0.01627847
v -0.03956574 -0.08255198 -0.01253252
v -0.04016711 -0.07941768 -0.00912938
v -0.04069937 -0.07589477 -0.00611730
v -0.04115498 -0.07203320 -0.00353899
v -0.04152747 -0.06788776 -0.00143105
v -0.04181157 -0.06351724 0.00017666
v -0.04200324 -0.05898362 0.00126131
v -0.04209976 -0.05435121 0.00180753
v -0.04209977 -0.04968572 0.00180757
v -0.04200326 -0.04505330 0.00126143
v -0.04181160 -0.04051967 0.00017684
v -0.04152752 -0.03614912 -0.00143080
v -0.04115504 -0.03200365 -0.00353868
v -0.04069943 -0.02814204 -0.00611693
v -0.04016718 -0.02461909 -0.00912896
v -0.03956582 -0.02148473 -0.01253205
v -0.03890389 -0.01878344 -0.01627794
v -0.03819077 -0.01655352 -0.02031351
v -0.03674034 -0.01344405 -0.02477623
v -0.03653032 -0.01423225 -0.03185176
v -0.01303626 -0.01672683 -0.05725212
v -0.01410197 -0.01324587 -0.05122124
v -0.02051534 -0.09154513 -0.01492792
v -0.02030554 -0.01221830 -0.01611518
v -0.02051545 -0.01249148 -0.01492730
v -0.02157415 -0.01602193 -0.00893607
v -0.01289966 -0.08805504 -0.05802516
v -0.00979481 -0.05251781 -0.07559554
v -0.01394814 -0.09154484 -0.05209176
v -0.01415805 -0.09181802 -0.05090388
v -0.02252087 -0.02048078 -0.00357862
v -0.02333117 -0.02575304 0.00100686
v -0.01836294 -0.01321821 -0.02710840
v -0.02398415 -0.03170272 0.00470210
v -0.02446298 -0.03817637 0.00741180
v -0.01196065 -0.08365450 -0.06333899
v -0.01115486 -0.07845445 -0.06789897
v -0.01050265 -0.07258629 -0.07158985
v -0.01836294 -0.01221821 -0.02710839
v -0.01002050 -0.06619833 -0.07431836
v -0.00972059 -0.05945200 -0.07601552
v -0.00961051 -0.05251781 -0.07663848
v -0.02475530 -0.04500702 0.00906606
v -0.02485358 -0.05201850 0.00962223
v -0.01411242 -0.01321801 -0.05116211
v -0.02475528 -0.05902998 0.00906595
v -0.02446294 -0.06586061 0.00741158
v -0.02398409 -0.07233422 0.00470178
v -0.02333109 -0.07828383 0.00100644
v -0.02030543 -0.09181830 -0.01611581
v -0.00987388 -0.04578215 -0.07514802
v -0.01015207 -0.03892149 -0.07357380
v -0.01062256 -0.03241660 -0.07091124
v -0.02252078 -0.08355602 -0.00357911
v -0.02157406 -0.08801478 -0.00893663
v -0.01127260 -0.02644418 -0.06723268
v -0.01208451 -0.02116646 -0.06263803
v -0.02072739 -0.01231099 -0.01487725
v -0.02179093 -0.01585756 -0.00885866
v -0.02274197 -0.02033678 -0.00347675
v -0.02355596 -0.02563311 0.00112966
v -0.02421192 -0.03160995 0.00484177
v -0.02469294 -0.03811316 0.00756384
v -0.02498660 -0.04497501 0.00922566
v -0.02508533 -0.05201850 0.00978437
v -0.02498658 -0.05906199 0.00922556
v -0.02469291 -0.06592382 0.00756363
v -0.02421187 -0.07242698 0.00484145
v -0.02355589 -0.07840377 0.00112925
v -0.02274188 -0.08370002 -0.00347725
v -0.02179083 -0.08817916 -0.00885922
v -0.02072728 -0.09172563 -0.01487788
v -0.03334856 -0.01371096 -0.04656333
v -0.03292302 -0.01356195 -0.04761632
v -0.03315303 -0.01482595 -0.04882091
v -0.02370178 -0.08817875 -0.06010936
v -0.02401045 -0.08934611 -0.05836257
v -0.02534845 -0.08924907 -0.05853751
v -0.02830171 -0.09150242 -0.05341073
v -0.02866274 -0.09145505 -0.05319396
v -0.02805752 -0.09122820 -0.05410698
v -0.02960427 -0.09130851 -0.05248344
v -0.03056031 -0.09112176 -0.05151143
v -0.02980486 -0.09030318 -0.05397496
v -0.03094720 -0.09103508 -0.05103905
v -0.03208277 -0.09073988 -0.04932634
v -0.03128213 -0.08902880 -0.05362873
v -0.03333437 -0.09033021 -0.04660084
v -0.03396231 -0.09010076 -0.04478098
v -0.03315293 -0.08921016 -0.04882149
v -0.03531511 -0.01486757 -0.03977666
v -0.03508792 -0.01635354 -0.04164859
v -0.03455030 -0.01549062 -0.04410469
v -0.03380381 -0.01663174 -0.04832909
v -0.03413537 -0.01754715 -0.04703906
v -0.03308622 -0.01827477 -0.05238995
v -0.03321801 -0.01959949 -0.05223041
v -0.03240771 -0.02039638 -0.05622965
v -0.03239769 -0.02233377 -0.05687260
v -0.03177790 -0.02296649 -0.05979376
v -0.03201720 -0.02395909 -0.05902582
v -0.03164820 -0.02580438 -0.06111398
v -0.03120572 -0.02594865 -0.06303171
v -0.03147917 -0.02675390 -0.06207052
v -0.03069929 -0.02930055 -0.06589758
v -0.03085175 -0.03103379 -0.06562111
v -0.03026580 -0.03297466 -0.06835074
v -0.03055677 -0.03362532 -0.06729043
v -0.02991138 -0.03691888 -0.07035636
v -0.03034323 -0.03586761 -0.06849881
v -0.02964108 -0.04107725 -0.07188603
v -0.02997060 -0.04113411 -0.07060751
v -0.02945871 -0.04539080 -0.07291803
v -0.02975274 -0.04645318 -0.07184042
v -0.02936688 -0.04979834 -0.07343773
v -0.02967746 -0.05191546 -0.07226640
v -0.02936688 -0.05423737 -0.07343777
v -0.02945870 -0.05864492 -0.07291813
v -0.02972986 -0.05666576 -0.07196987
v -0.02964105 -0.06295849 -0.07188620
v -0.02993049 -0.06214686 -0.07083449
v -0.02991135 -0.06711689 -0.07035660
v -0.03028055 -0.06743032 -0.06885349
v -0.03026575 -0.07106113 -0.06835103
v -0.03077301 -0.07235703 -0.06606665
v -0.03069923 -0.07473529 -0.06589794
v -0.03097538 -0.07395911 -0.06492144
v -0.03137435 -0.07665601 -0.06266367
v -0.03120565 -0.07808724 -0.06303213
v -0.03154508 -0.07766124 -0.06169751
v -0.03177781 -0.08106945 -0.05979422
v -0.03227679 -0.08121370 -0.05755674
v -0.03240762 -0.08363962 -0.05623015
v -0.03262540 -0.08255921 -0.05558397
v -0.03308612 -0.08576129 -0.05239048
v -0.03310527 -0.08411594 -0.05286838
v -0.03380371 -0.08740438 -0.04832965
v -0.03401035 -0.08626415 -0.04774654
v -0.03455020 -0.08854558 -0.04410527
v -0.03497170 -0.08758378 -0.04230625
v -0.03531500 -0.08916870 -0.03977724
v -0.02613785 -0.09169047 -0.05413083
v -0.02669036 -0.09165768 -0.05403746
v -0.02476532 -0.09172532 -0.05409076
v -0.02574201 -0.09170747 -0.05415978
v -0.02326700 -0.08631212 -0.06256982
v -0.02460693 -0.08622297 -0.06273381
v -0.02275075 -0.08369954 -0.06549127
v -0.02393326 -0.08271173 -0.06654610
v -0.02259157 -0.08279174 -0.06639204
v -0.02333701 -0.07876517 -0.06992031
v -0.02199377 -0.07883488 -0.06977504
v -0.02193675 -0.07840320 -0.07009768
v -0.02282663 -0.07443924 -0.07280856
v -0.02148205 -0.07449768 -0.07267082
v -0.02187641 -0.05982047 -0.07818583
v -0.02074462 -0.06493282 -0.07684395
v -0.02209111 -0.06489924 -0.07697085
v -0.02079977 -0.06592315 -0.07653186
v -0.02240936 -0.06979531 -0.07516990
v -0.02106369 -0.06984165 -0.07503831
v -0.02128078 -0.07242636 -0.07380980
v -0.02040739 -0.05201780 -0.07875238
v -0.02042097 -0.05463785 -0.07867552
v -0.02176830 -0.05463104 -0.07879765
v -0.02050611 -0.05906130 -0.07819368
v -0.02052936 -0.05984081 -0.07806211
v -0.02042097 -0.04939775 -0.07867548
v -0.02176831 -0.04940456 -0.07879760
v -0.02050613 -0.04497431 -0.07819357
v -0.02187643 -0.04421515 -0.07818571
v -0.02052938 -0.04419481 -0.07806198
v -0.02209115 -0.03913640 -0.07697064
v -0.02074466 -0.03910282 -0.07684375
v -0.02282669 -0.02959647 -0.07280821
v -0.02128084 -0.03160933 -0.07380947
v -0.02240941 -0.03424036 -0.07516962
v -0.02106374 -0.03419402 -0.07503804
v -0.02079981 -0.03811250 -0.07653164
v -0.02275084 -0.02033629 -0.06549077
v -0.02259166 -0.02124407 -0.06639156
v -0.02393335 -0.02132408 -0.06654562
v -0.02199384 -0.02520087 -0.06977461
v -0.02333708 -0.02527059 -0.06991988
v -0.02193682 -0.02563254 -0.07009727
v -0.02148212 -0.02953803 -0.07267047
v -0.02326709 -0.01772375 -0.06256928
v -0.02460702 -0.01781291 -0.06273328
v -0.02370188 -0.01585716 -0.06010879
v -0.02534856 -0.01478687 -0.05853692
v -0.02401056 -0.01468983 -0.05836198
v -0.02609807 -0.01234352 -0.05413495
v -0.02476543 -0.01231069 -0.05409013
v -0.02785390 -0.01248133 -0.05363913
v -0.02668210 -0.01237768 -0.05403914
v -0.02805763 -0.01280781 -0.05410636
v -0.02647315 -0.01236412 -0.05408131
v -0.02726919 -0.01527316 -0.05856816
v -0.02980497 -0.01373284 -0.05397435
v -0.02966435 -0.01273801 -0.05243018
v -0.02832521 -0.01253654 -0.05339690
v -0.03068306 -0.01294112 -0.05136606
v -0.03128224 -0.01500724 -0.05362815
v -0.03141494 -0.01311464 -0.05039894
v -0.03208759 -0.01329764 -0.04931681
v -0.03480066 -0.01423443 -0.04164983
v -0.03453249 -0.01414419 -0.04274965
v -0.03387376 -0.01390256 -0.04506064
v -0.02726909 -0.08876279 -0.05856874
v -0.02653725 -0.08577621 -0.06271024
v -0.02587238 -0.08231084 -0.06647273
v -0.02528391 -0.07841582 -0.06980286
v -0.02478020 -0.07414639 -0.07265340
v -0.02436838 -0.06956311 -0.07498389
v -0.02405429 -0.06473099 -0.07676131
v -0.02384239 -0.05971856 -0.07796043
v -0.02373569 -0.05459692 -0.07856426
v -0.02373570 -0.04943870 -0.07856421
v -0.02384242 -0.04431706 -0.07796031
v -0.02405433 -0.03930465 -0.07676110
v -0.02436842 -0.03447256 -0.07498362
v -0.02478026 -0.02988933 -0.07265304
v -0.02528399 -0.02561995 -0.06980245
v -0.02587246 -0.02172498 -0.06647225
v -0.02653734 -0.01825967 -0.06270971
v -0.02903502 -0.08789593 -0.05833146
v -0.02832045 -0.08497981 -0.06237525
v -0.02767126 -0.08159619 -0.06604899
v -0.02709668 -0.07779305 -0.06930055
v -0.02660485 -0.07362436 -0.07208384
v -0.02620274 -0.06914920 -0.07435935
v -0.02589607 -0.06443108 -0.07609484
v -0.02568917 -0.05953690 -0.07726567
v -0.02558499 -0.05453608 -0.07785525
v -0.02558499 -0.04949955 -0.07785521
v -0.02568919 -0.04449874 -0.07726556
v -0.02589611 -0.03960458 -0.07609464
v -0.02620280 -0.03488649 -0.07435908
v -0.02660491 -0.03041138 -0.07208350
v -0.02709675 -0.02624272 -0.06930014
v -0.02767135 -0.02243964 -0.06604853
v -0.02832054 -0.01905608 -0.06237473
v -0.02903512 -0.01614003 -0.05833089
v -0.03053792 -0.08670167 -0.05784022
v -0.02984713 -0.08388262 -0.06174941
v -0.02921956 -0.08061163 -0.06530085
v -0.02866411 -0.07693509 -0.06844418
v -0.02818865 -0.07290515 -0.07113482
v -0.02779992 -0.06857897 -0.07333460
v -0.02750345 -0.06401789 -0.07501231
v -0.02730345 -0.05928663 -0.07614417
v -0.02720273 -0.05445227 -0.07671413
v -0.02720274 -0.04958339 -0.07671409
v -0.02730346 -0.04474904 -0.07614406
v -0.02750349 -0.04001779 -0.07501213
v -0.02779997 -0.03545675 -0.07333434
v -0.02818871 -0.03113060 -0.07113449
v -0.02866417 -0.02710070 -0.06844380
v -0.02921964 -0.02342421 -0.06530041
v -0.02984722 -0.02015328 -0.06174891
v -0.03053802 -0.01733430 -0.05783967
v -0.03239883 -0.01655282 -0.05308899
v -0.03168569 -0.01878270 -0.05712464
v -0.03102373 -0.02148396 -0.06087062
v -0.03042236 -0.02461830 -0.06427381
v -0.02989010 -0.02814126 -0.06728593
v -0.02943447 -0.03200286 -0.06986427
v -0.02906197 -0.03614835 -0.07197224
v -0.02877788 -0.04051893 -0.07357997
v -0.02858621 -0.04505260 -0.07466464
v -0.02848968 -0.04968506 -0.07521085
v -0.02848968 -0.05435062 -0.07521090
v -0.02858618 -0.05898309 -0.07466474
v -0.02877785 -0.06351679 -0.07358015
v -0.02906193 -0.06788739 -0.07197249
v -0.02943442 -0.07203291 -0.06986458
v -0.02989002 -0.07589456 -0.06728631
v -0.03042228 -0.07941756 -0.06427424
v -0.03102365 -0.08255196 -0.06087111
v -0.03168559 -0.08525328 -0.05712516
v -0.03239873 -0.08748323 -0.05308954
v -0.03256583 -0.09059227 -0.04839985
v -0.03532719 -0.08966465 -0.03921634
v -0.03479343 -0.08980407 -0.04168084
v -0.01108840 -0.05101780 -0.07689510
v -0.01127345 -0.05101781 -0.07584791
v -0.01070774 -0.05113199 -0.07575050
v -0.01059943 -0.05110234 -0.07680932
v -0.01022757 -0.05145716 -0.07567124
v -0.01016507 -0.05134640 -0.07673605
v -0.00983488 -0.05172251 -0.07668010
v -0.00990675 -0.05194379 -0.07561822
v -0.00972255 -0.05194378 -0.07666061
v -0.00964621 -0.05218821 -0.07664712
v -0.01957903 -0.01321820 -0.02884653
v -0.01957903 -0.01221820 -0.02884652
v -0.01887545 -0.01221820 -0.02851812
v -0.01887544 -0.01321820 -0.02851812
v -0.01843032 -0.01221820 -0.02788192
v -0.01843032 -0.01321820 -0.02788192
v -0.01373530 -0.05101781 -0.07628294
v -0.01355026 -0.05101780 -0.07733013
v -0.01410741 -0.05099108 -0.07742811
v -0.01488691 -0.05090284 -0.07648355
v -0.01792668 -0.04926046 -0.07694505
v -0.01702149 -0.05000838 -0.07682752
v -0.01713821 -0.04979043 -0.07792199
v -0.01485658 -0.05086945 -0.07755784
v -0.01544113 -0.05070267 -0.07765704
v -0.01599866 -0.05056109 -0.07666956
v -0.01602475 -0.05046741 -0.07775311
v -0.01669537 -0.05010017 -0.07785792
v -0.01766998 -0.04933015 -0.07799044
v -0.01818502 -0.04876241 -0.07804278
v -0.01867295 -0.04835190 -0.07700738
v -0.01846983 -0.04837639 -0.07806224
v -0.01886223 -0.04771484 -0.07806994
v -0.01923716 -0.04731391 -0.07700337
v -0.01916755 -0.04701906 -0.07804742
v -0.01967318 -0.04578215 -0.07687965
v -0.01948137 -0.04581390 -0.07794119
v -0.01974216 -0.04501782 -0.07677019
v -0.01955542 -0.04501781 -0.07782698
v -0.02587095 -0.01221817 -0.03330717
v -0.02523421 -0.01221818 -0.03222530
v -0.02523421 -0.01321818 -0.03222530
v -0.02443608 -0.01221818 -0.03125634
v -0.02298019 -0.01321819 -0.03006595
v -0.02298019 -0.01221819 -0.03006594
v -0.02007140 -0.01321820 -0.02893354
v -0.02125618 -0.01221819 -0.02923786
v -0.02007140 -0.01221820 -0.02893353
v -0.02649031 -0.01221815 -0.03508285
v -0.02649030 -0.01321815 -0.03508286
v -0.02667739 -0.01221814 -0.03698625
v -0.02655724 -0.01321813 -0.03820359
v -0.02655724 -0.01221813 -0.03820358
v -0.01999949 -0.03892149 -0.07531393
v -0.02047000 -0.03241660 -0.07265137
v -0.02112004 -0.02644418 -0.06897280
v -0.02193195 -0.02116646 -0.06437816
v -0.02288369 -0.01672683 -0.05899225
v -0.02394940 -0.01324587 -0.05296138
v -0.02050249 -0.01201830 -0.01614998
v -0.01855989 -0.01201821 -0.02714319
v -0.01861829 -0.01201820 -0.02781358
v -0.01900406 -0.01201820 -0.02836496
v -0.01961384 -0.01201820 -0.02864957
v -0.02050238 -0.09201830 -0.01615062
v -0.02010621 -0.01201820 -0.02873658
v -0.01435500 -0.09201802 -0.05093868
v -0.02675419 -0.01201813 -0.03823838
v -0.02687734 -0.01201814 -0.03699062
v -0.02679992 -0.01201815 -0.03567326
v -0.02652657 -0.01201816 -0.03443233
v -0.02605074 -0.01201817 -0.03321956
v -0.02539809 -0.01201818 -0.03211064
v -0.02458000 -0.01201818 -0.03111746
v -0.02360375 -0.01201819 -0.03025482
v -0.02253165 -0.01201819 -0.02957273
v -0.02132060 -0.01201820 -0.02904852
v -0.01413010 -0.09172532 -0.05221142
v -0.02400560 -0.01221801 -0.05264338
v -0.02420254 -0.01201801 -0.05267819
v -0.01307682 -0.08821958 -0.05817191
v -0.01213353 -0.08379896 -0.06351000
v -0.01132406 -0.07857516 -0.06809080
v -0.01066887 -0.07268021 -0.07179853
v -0.01018451 -0.06626308 -0.07453950
v -0.00988324 -0.05948595 -0.07624442
v -0.00977265 -0.05252009 -0.07687022
v -0.02397764 -0.01231069 -0.05395092
v -0.02379568 -0.01249117 -0.05383128
v -0.01075919 -0.05124938 -0.07704064
v -0.01105360 -0.05121415 -0.07709202
v -0.00984144 -0.05209743 -0.07688521
v -0.01004304 -0.05171726 -0.07691986
v -0.01036720 -0.05141801 -0.07697403
v -0.01971801 -0.04498584 -0.07805619
v -0.01971834 -0.04497431 -0.07805436
v -0.01984755 -0.03818490 -0.07617379
v -0.02001148 -0.03812173 -0.07639546
v -0.02001202 -0.03811250 -0.07639243
v -0.02032631 -0.03170896 -0.07346451
v -0.02049242 -0.03161623 -0.07367381
v -0.02114842 -0.02563722 -0.06996150
v -0.02097933 -0.02575713 -0.06976908
v -0.02114903 -0.02563254 -0.06995805
v -0.02178976 -0.02048299 -0.06518283
v -0.02196256 -0.02033899 -0.06535432
v -0.02196304 -0.02033629 -0.06535156
v -0.02273669 -0.01602263 -0.05982414
v -0.02291381 -0.01585827 -0.05997115
v -0.01351546 -0.05121415 -0.07752705
v -0.01407818 -0.05118761 -0.07762600
v -0.01486554 -0.05106011 -0.07776249
v -0.01546932 -0.05088699 -0.07786501
v -0.01605132 -0.05065260 -0.07796110
v -0.01675412 -0.05026865 -0.07807148
v -0.01722279 -0.04994004 -0.07813977
v -0.01774628 -0.04948746 -0.07820817
v -0.01829226 -0.04888789 -0.07826541
v -0.01859834 -0.04847223 -0.07828738
v -0.01898440 -0.04782274 -0.07829735
v -0.01931208 -0.04708075 -0.07827663
v -0.01963561 -0.04585207 -0.07817508
v -0.02499023 -0.09201802 -0.05281803
v -0.02493344 -0.09200021 -0.05313940
v -0.02481923 -0.09185249 -0.05378573
v -0.02487561 -0.09194481 -0.05346664
v -0.03494639 -0.09191009 -0.02667937
v -0.03416561 -0.09201825 -0.02421167
v -0.03487022 -0.09193448 -0.02417870
v -0.03396710 -0.09201827 -0.02230046
v -0.03444138 -0.09196094 -0.02167196
v -0.03354349 -0.09201828 -0.02060940
v -0.03402649 -0.09197423 -0.02043754
v -0.03304464 -0.09201829 -0.01953118
v -0.03339880 -0.09198652 -0.01927507
v -0.03235845 -0.09201830 -0.01866455
v -0.03246707 -0.09199637 -0.01827900
v -0.03160680 -0.09201830 -0.01816904
v -0.03187331 -0.09199939 -0.01792140
v -0.03113760 -0.09201830 -0.01802996
v -0.03119439 -0.09200050 -0.01770859
v -0.03482493 -0.09188940 -0.02915422
v -0.03387812 -0.09201818 -0.02990371
v -0.03414208 -0.09201822 -0.02690595
v -0.03456999 -0.09187359 -0.03160892
v -0.03383116 -0.09186033 -0.03645821
v -0.03305377 -0.09201816 -0.03535037
v -0.03286160 -0.09187368 -0.04126756
v -0.03198105 -0.09201809 -0.04104724
v -0.03111444 -0.09201809 -0.04459960
v -0.03225853 -0.09188952 -0.04366118
v -0.03152033 -0.09191027 -0.04603307
v -0.03023593 -0.09201807 -0.04733343
v -0.03058696 -0.09193470 -0.04835771
v -0.02993840 -0.09201806 -0.04808471
v -0.02932183 -0.09196107 -0.05055769
v -0.02934133 -0.09201805 -0.04935734
v -0.02850781 -0.09197428 -0.05156897
v -0.02839523 -0.09201804 -0.05088554
v -0.02747929 -0.09201802 -0.05190491
v -0.02752372 -0.09198643 -0.05243570
v -0.02725290 -0.09201802 -0.05209629
v -0.02631503 -0.09199614 -0.05304222
v -0.02659994 -0.09201802 -0.05252476
v -0.02563896 -0.09199911 -0.05317233
v -0.02577128 -0.09201802 -0.05281454
v -0.02806036 -0.09172430 -0.05310825
v -0.02655614 -0.09181463 -0.05372454
v -0.02570872 -0.09184229 -0.05384389
v -0.03027035 -0.09148819 -0.05115435
v -0.02927465 -0.09161118 -0.05220865
v -0.03179686 -0.09124256 -0.04886610
v -0.03542629 -0.09054887 -0.03674021
v -0.03440879 -0.09067359 -0.04159856
v -0.03374156 -0.09082146 -0.04403322
v -0.03289635 -0.09101495 -0.04646375
v -0.03130861 -0.09185279 -0.01706225
v -0.03217031 -0.09184247 -0.01731473
v -0.03292970 -0.09181446 -0.01772136
v -0.03413723 -0.09172288 -0.01882896
v -0.03497041 -0.09160859 -0.02010195
v -0.03554066 -0.09148502 -0.02143917
v -0.03618369 -0.09123892 -0.02411814
v -0.03634639 -0.09081943 -0.02931389
v -0.03638821 -0.09101193 -0.02674799
v -0.02567414 -0.09194029 -0.05351258
v -0.02643725 -0.09192801 -0.05338867
v -0.02779818 -0.09188780 -0.05277968
v -0.02890362 -0.09183726 -0.05189921
v -0.02981652 -0.09178204 -0.05086888
v -0.03123195 -0.09167090 -0.04862891
v -0.03226985 -0.09156681 -0.04626766
v -0.03308240 -0.09147744 -0.04386799
v -0.03373485 -0.09140855 -0.04145438
v -0.03474417 -0.09135004 -0.03661962
v -0.03613735 -0.09067216 -0.03182878
v -0.03545476 -0.09140792 -0.03173303
v -0.03567038 -0.09147656 -0.02924281
v -0.03573200 -0.09156550 -0.02671676
v -0.03557073 -0.09166935 -0.02414623
v -0.03501487 -0.09178074 -0.02155052
v -0.03451385 -0.09183624 -0.02026422
v -0.03377653 -0.09188732 -0.01904687
v -0.03270179 -0.09192809 -0.01799578
v -0.03202363 -0.09194052 -0.01761397
v -0.03125222 -0.09194510 -0.01738135
v -0.02493355 -0.01203581 -0.05313876
v -0.02499034 -0.01201801 -0.05281740
v -0.02481934 -0.01218352 -0.05378510
v -0.02487572 -0.01209121 -0.05346601
v -0.03153276 -0.01212623 -0.04599714
v -0.02995354 -0.01201806 -0.04804780
v -0.03060418 -0.01210183 -0.04832026
v -0.02911205 -0.01201804 -0.04977524
v -0.02934221 -0.01207537 -0.05052821
v -0.02813454 -0.01201803 -0.05121871
v -0.02852939 -0.01206208 -0.05154570
v -0.02729637 -0.01201802 -0.05206067
v -0.02754132 -0.01204979 -0.05242265
v -0.02635473 -0.01201802 -0.05263964
v -0.02632464 -0.01203994 -0.05303907
v -0.02547879 -0.01201801 -0.05284754
v -0.02564429 -0.01203692 -0.05317153
v -0.03226683 -0.01214690 -0.04363054
v -0.03163422 -0.01201813 -0.04260196
v -0.03085481 -0.01201809 -0.04550862
v -0.03286860 -0.01216272 -0.04123713
v -0.03383644 -0.01217598 -0.03642831
v -0.03272646 -0.01201815 -0.03720263
v -0.03457385 -0.01216264 -0.03157794
v -0.03367111 -0.01201822 -0.03148314
v -0.03407443 -0.01201822 -0.02784891
v -0.03482763 -0.01214679 -0.02912259
v -0.03494702 -0.01212604 -0.02664136
v -0.03418607 -0.01201825 -0.02497957
v -0.03486688 -0.01210162 -0.02413762
v -0.03416404 -0.01201825 -0.02417182
v -0.03443233 -0.01207524 -0.02163729
v -0.03403928 -0.01201826 -0.02277163
v -0.03401420 -0.01206203 -0.02040828
v -0.03367421 -0.01201828 -0.02101174
v -0.03316309 -0.01201828 -0.01974020
v -0.03338674 -0.01204988 -0.01925677
v -0.03301600 -0.01201829 -0.01948281
v -0.03245912 -0.01204017 -0.01827274
v -0.03254944 -0.01201829 -0.01885651
v -0.03186859 -0.01203720 -0.01791882
v -0.03187027 -0.01201829 -0.01830029
v -0.03119450 -0.01203610 -0.01770797
v -0.03113771 -0.01201830 -0.01802933
v -0.03412138 -0.01231202 -0.01880887
v -0.03291947 -0.01222168 -0.01771438
v -0.03216428 -0.01219401 -0.01731183
v -0.03552789 -0.01254812 -0.02140183
v -0.03495382 -0.01242513 -0.02007014
v -0.03617774 -0.01279375 -0.02407467
v -0.03543161 -0.01348745 -0.03671007
v -0.03614078 -0.01336272 -0.03179724
v -0.03634835 -0.01321485 -0.02928135
v -0.03638731 -0.01302136 -0.02670835
v -0.02571538 -0.01219384 -0.05384324
v -0.02656815 -0.01222186 -0.05372149
v -0.02808214 -0.01231344 -0.05309481
v -0.02930113 -0.01242772 -0.05218446
v -0.03029513 -0.01255129 -0.05112366
v -0.03181735 -0.01279739 -0.04882730
v -0.03375087 -0.01321688 -0.04400198
v -0.03291077 -0.01302439 -0.04642682
v -0.03130872 -0.01218382 -0.01706163
v -0.03125233 -0.01209150 -0.01738071
v -0.03201824 -0.01209602 -0.01761124
v -0.03269267 -0.01210831 -0.01798916
v -0.03376247 -0.01214851 -0.01902769
v -0.03449922 -0.01219905 -0.02023369
v -0.03500372 -0.01225427 -0.02151448
v -0.03556575 -0.01236541 -0.02410390
v -0.03573155 -0.01246950 -0.02667784
v -0.03567248 -0.01255887 -0.02921067
v -0.03545823 -0.01262776 -0.03170171
v -0.03474948 -0.01268627 -0.03658958
v -0.03441638 -0.01336415 -0.04156774
v -0.03374232 -0.01262839 -0.04142376
v -0.03309144 -0.01255975 -0.04383707
v -0.03228361 -0.01247081 -0.04623126
v -0.03125114 -0.01236696 -0.04859085
v -0.02983935 -0.01225556 -0.05083886
v -0.02892783 -0.01220007 -0.05187554
v -0.02781796 -0.01214899 -0.05276648
v -0.02644808 -0.01210823 -0.05338559
v -0.02568014 -0.01209579 -0.05351186
v -0.02395985 -0.01321801 -0.05290224
v -0.01044713 -0.05165577 -0.07699080
f 1 2 3
f 666 2 1
f 666 82 2
f 664 82 666
f 664 81 82
f 79 81 664
f 663 79 664
f 664 681 663
f 663 681 682
f 681 610 682
f 681 608 610
f 680 608 681
f 680 623 608
f 623 624 608
f 608 624 625
f 546 625 624
f 624 628 546
f 624 627 628
f 628 627 629
f 676 629 627
f 676 627 678
f 677 676 678
f 677 678 665
f 665 678 679
f 678 626 679
f 679 626 623
f 665 679 666
f 666 679 680
f 665 87 677
f 677 87 86
f 83 86 87
f 83 87 88
f 88 87 89
f 88 89 90
f 93 88 90
f 93 90 94
f 94 331 93
f 94 329 331
f 327 329 94
f 94 325 327
f 96 325 94
f 94 95 96
f 96 95 97
f 197 97 95
f 198 97 197
f 198 99 97
f 199 99 198
f 198 193 199
f 198 194 193
f 175 193 194
f 174 193 175
f 174 192 193
f 173 192 174
f 173 191 192
f 200 192 191
f 199 192 200
f 200 101 199
f 200 103 101
f 102 101 103
f 102 103 104
f 298 102 104
f 298 104 106
f 108 298 106
f 108 110 298
f 110 112 298
f 110 111 112
f 110 109 111
f 204 111 109
f 204 109 203
f 203 188 204
f 204 188 187
f 169 187 188
f 169 188 170
f 170 188 189
f 170 189 171
f 171 189 190
f 202 190 189
f 201 190 202
f 201 191 190
f 172 190 191
f 202 105 201
f 201 105 103
f 202 107 105
f 203 107 202
f 106 105 107
f 202 189 203
f 171 190 172
f 154 171 172
f 154 172 155
f 50 154 155
f 48 154 50
f 49 48 50
f 47 48 49
f 47 46 48
f 45 46 47
f 47 263 45
f 262 45 263
f 262 40 45
f 41 40 262
f 261 41 262
f 261 43 41
f 42 41 43
f 42 43 33
f 33 43 44
f 33 44 34
f 33 34 35
f 35 34 36
f 35 36 37
f 37 149 35
f 35 149 150
f 149 167 150
f 150 167 168
f 150 168 151
f 33 150 151
f 151 168 169
f 151 169 152
f 42 151 152
f 42 152 46
f 46 152 153
f 152 170 153
f 167 186 168
f 167 185 186
f 206 186 185
f 205 186 206
f 205 187 186
f 206 113 205
f 205 113 111
f 206 115 113
f 207 115 206
f 207 117 115
f 116 115 117
f 116 117 118
f 116 118 298
f 298 118 120
f 118 119 120
f 120 119 121
f 209 121 119
f 210 121 209
f 210 123 121
f 211 123 210
f 210 181 211
f 210 182 181
f 163 181 182
f 162 181 163
f 162 180 181
f 161 180 162
f 161 179 180
f 212 180 179
f 211 180 212
f 212 124 211
f 212 126 124
f 125 124 126
f 125 126 127
f 298 125 127
f 298 127 130
f 130 296 298
f 130 294 296
f 292 294 130
f 292 293 294
f 294 293 295
f 460 295 293
f 460 293 459
f 459 458 460
f 459 400 458
f 272 400 459
f 272 402 400
f 401 400 402
f 399 400 401
f 399 401 747
f 746 399 747
f 746 397 399
f 396 399 397
f 396 397 398
f 745 398 397
f 744 398 745
f 745 768 744
f 744 768 769
f 768 698 769
f 768 696 698
f 767 696 768
f 767 694 696
f 694 695 696
f 694 693 695
f 692 693 694
f 692 707 693
f 693 707 549
f 549 707 706
f 549 706 710
f 706 709 710
f 706 708 709
f 705 708 706
f 764 708 705
f 764 705 765
f 749 764 765
f 749 765 747
f 747 765 766
f 765 692 766
f 747 402 749
f 749 402 271
f 749 271 270
f 748 749 270
f 270 405 748
f 272 405 270
f 272 291 405
f 290 405 291
f 290 404 405
f 288 404 290
f 288 290 289
f 141 288 289
f 141 289 142
f 132 141 142
f 142 134 132
f 142 136 134
f 135 134 136
f 135 136 137
f 137 136 129
f 137 129 138
f 215 137 138
f 215 138 214
f 214 15 215
f 214 178 15
f 12 15 178
f 11 15 12
f 13 15 11
f 735 13 11
f 735 14 13
f 737 14 735
f 735 756 737
f 737 756 757
f 756 719 757
f 757 719 717
f 757 717 758
f 758 717 715
f 716 715 717
f 716 717 718
f 718 555 716
f 716 555 554
f 716 554 713
f 713 554 553
f 521 553 554
f 521 554 522
f 521 522 523
f 523 522 524
f 523 524 525
f 525 524 526
f 525 526 527
f 527 526 528
f 526 558 528
f 526 557 558
f 556 557 526
f 729 557 556
f 729 556 727
f 727 728 729
f 729 728 730
f 729 730 731
f 731 730 541
f 541 558 731
f 541 547 558
f 545 547 541
f 545 529 547
f 493 529 545
f 529 493 527
f 527 493 492
f 492 493 494
f 544 494 493
f 543 494 544
f 543 544 542
f 542 544 545
f 542 496 543
f 542 236 496
f 542 221 236
f 541 221 542
f 541 255 221
f 221 255 222
f 222 255 256
f 255 5 256
f 5 4 256
f 256 4 23
f 4 6 23
f 23 6 24
f 23 24 25
f 25 24 26
f 24 145 26
f 26 145 146
f 26 146 28
f 28 146 147
f 146 164 147
f 146 163 164
f 147 164 165
f 164 183 165
f 165 183 184
f 165 184 166
f 166 184 185
f 207 185 184
f 207 184 208
f 148 165 166
f 148 166 149
f 208 184 183
f 208 183 209
f 209 183 182
f 164 182 183
f 147 165 148
f 31 147 148
f 31 148 37
f 37 38 31
f 31 38 39
f 38 259 39
f 39 259 32
f 258 32 259
f 229 258 259
f 229 259 231
f 231 259 260
f 231 260 232
f 230 231 232
f 232 240 230
f 230 240 241
f 230 241 242
f 242 241 243
f 241 263 243
f 243 263 264
f 49 264 263
f 51 264 49
f 51 56 264
f 264 56 55
f 264 55 265
f 244 264 265
f 244 265 245
f 245 265 266
f 265 63 266
f 62 266 63
f 60 266 62
f 60 267 266
f 246 266 267
f 246 267 251
f 251 267 268
f 267 64 268
f 66 268 64
f 64 65 66
f 64 59 65
f 57 59 64
f 57 58 59
f 58 57 267
f 59 58 60
f 59 60 61
f 61 158 59
f 59 158 159
f 158 176 159
f 158 175 176
f 157 175 158
f 159 176 177
f 176 195 177
f 177 195 80
f 177 80 76
f 76 80 79
f 76 79 77
f 76 77 78
f 73 76 78
f 73 78 71
f 661 71 78
f 661 78 662
f 662 683 661
f 662 682 683
f 682 612 683
f 683 612 614
f 612 613 614
f 614 613 615
f 614 615 616
f 684 614 616
f 684 616 685
f 685 616 618
f 685 618 686
f 659 685 686
f 659 686 658
f 658 686 687
f 269 658 687
f 269 687 546
f 546 687 622
f 546 622 621
f 621 609 546
f 621 611 609
f 613 611 621
f 610 609 611
f 610 611 612
f 620 621 622
f 620 619 621
f 618 619 620
f 618 617 619
f 615 619 617
f 615 621 619
f 687 620 622
f 269 546 220
f 252 269 220
f 219 252 220
f 218 219 220
f 220 254 218
f 220 253 254
f 250 253 220
f 220 249 250
f 220 248 249
f 247 248 220
f 247 225 248
f 227 225 247
f 247 546 227
f 227 546 548
f 548 559 227
f 606 559 548
f 606 548 607
f 606 607 650
f 342 606 650
f 342 650 339
f 275 342 339
f 275 341 342
f 274 341 275
f 273 274 275
f 274 273 562
f 562 273 343
f 562 343 563
f 224 562 563
f 226 562 224
f 224 225 226
f 224 233 225
f 225 233 234
f 225 234 235
f 234 565 235
f 235 565 566
f 565 358 566
f 358 356 566
f 357 356 358
f 357 358 351
f 351 411 357
f 357 411 412
f 357 412 355
f 355 412 413
f 355 413 353
f 353 413 414
f 353 414 362
f 362 414 415
f 362 415 366
f 365 362 366
f 360 362 365
f 360 361 362
f 360 573 361
f 361 573 568
f 573 239 568
f 573 491 239
f 491 225 239
f 491 489 225
f 490 489 491
f 488 489 490
f 488 486 489
f 487 486 488
f 488 574 487
f 488 573 574
f 574 573 575
f 575 573 773
f 575 773 571
f 571 773 572
f 485 571 572
f 485 572 482
f 482 484 485
f 482 483 484
f 482 498 483
f 499 498 482
f 482 591 499
f 499 591 500
f 500 591 592
f 500 592 505
f 505 592 593
f 505 593 506
f 506 593 594
f 360 594 593
f 360 595 594
f 596 595 360
f 360 597 596
f 504 596 597
f 504 597 510
f 504 510 502
f 502 503 504
f 503 509 504
f 503 508 509
f 507 508 503
f 507 506 508
f 501 506 507
f 508 595 509
f 502 510 511
f 502 511 512
f 511 513 512
f 512 513 514
f 513 600 514
f 513 599 600
f 599 360 600
f 599 598 360
f 511 598 599
f 514 600 601
f 514 601 516
f 516 601 602
f 601 365 602
f 602 365 603
f 603 365 367
f 603 367 576
f 520 603 576
f 518 603 520
f 519 518 520
f 519 520 535
f 535 520 578
f 535 578 536
f 536 578 581
f 578 580 581
f 580 582 581
f 581 582 583
f 581 583 584
f 537 581 584
f 537 584 538
f 538 584 586
f 538 586 539
f 539 586 589
f 539 589 540
f 540 589 570
f 589 569 570
f 589 590 569
f 388 569 590
f 388 590 386
f 386 590 384
f 384 385 386
f 386 385 387
f 385 395 387
f 385 422 395
f 422 440 395
f 395 440 396
f 440 400 396
f 395 396 393
f 393 394 395
f 393 392 394
f 743 394 392
f 743 392 744
f 392 391 744
f 389 394 743
f 742 389 743
f 742 390 389
f 388 389 390
f 388 387 389
f 690 390 742
f 742 771 690
f 742 770 771
f 770 702 771
f 771 702 704
f 702 703 704
f 702 701 703
f 700 701 702
f 700 699 701
f 698 699 700
f 698 697 699
f 699 697 549
f 703 699 549
f 703 549 689
f 689 549 561
f 549 560 561
f 570 561 560
f 772 570 560
f 772 560 533
f 533 560 534
f 532 533 534
f 532 531 533
f 530 531 532
f 530 523 531
f 532 551 530
f 551 552 530
f 530 552 553
f 712 553 552
f 712 552 710
f 710 711 712
f 712 711 713
f 711 714 713
f 713 714 715
f 759 715 714
f 759 714 760
f 739 759 760
f 739 760 738
f 738 760 761
f 760 711 761
f 761 711 709
f 761 709 763
f 762 761 763
f 762 763 748
f 748 763 764
f 748 404 762
f 762 404 403
f 762 403 738
f 738 403 140
f 140 403 288
f 738 140 139
f 139 140 131
f 139 131 217
f 217 131 133
f 217 133 17
f 17 133 135
f 17 135 18
f 16 17 18
f 741 17 16
f 741 16 737
f 737 16 216
f 740 17 741
f 741 758 740
f 740 758 759
f 18 216 16
f 18 14 216
f 215 14 18
f 740 217 17
f 739 217 740
f 131 132 133
f 739 139 217
f 131 140 141
f 738 761 762
f 738 139 739
f 740 759 739
f 760 714 711
f 710 552 551
f 710 551 550
f 532 550 551
f 534 550 532
f 534 549 550
f 534 560 549
f 688 689 561
f 561 691 688
f 691 704 688
f 561 690 691
f 569 690 561
f 704 689 688
f 549 697 695
f 701 699 703
f 704 703 689
f 771 704 691
f 770 700 702
f 769 700 770
f 743 769 770
f 690 771 691
f 569 390 690
f 743 770 742
f 387 394 389
f 391 392 393
f 393 398 391
f 422 439 440
f 439 458 440
f 439 457 458
f 438 457 439
f 438 456 457
f 437 456 438
f 437 455 456
f 462 456 455
f 462 455 463
f 463 455 454
f 463 454 464
f 464 302 463
f 464 304 302
f 303 302 304
f 303 304 305
f 305 304 306
f 465 306 304
f 466 306 465
f 465 452 466
f 466 452 451
f 466 451 467
f 467 451 450
f 467 450 468
f 468 310 467
f 468 312 310
f 311 310 312
f 311 312 313
f 312 314 313
f 469 314 312
f 470 314 469
f 469 448 470
f 470 448 447
f 470 447 471
f 471 447 446
f 471 446 472
f 472 317 471
f 472 319 317
f 473 319 472
f 473 321 319
f 320 319 321
f 320 321 322
f 100 320 322
f 100 322 324
f 322 323 324
f 324 323 325
f 325 323 326
f 475 326 323
f 476 326 475
f 475 442 476
f 475 443 442
f 474 443 475
f 474 444 443
f 473 444 474
f 473 445 444
f 426 444 445
f 426 445 427
f 427 445 446
f 427 446 428
f 410 427 428
f 410 428 411
f 411 428 429
f 428 447 429
f 409 427 410
f 348 409 410
f 348 410 351
f 350 348 351
f 349 348 350
f 347 348 349
f 349 564 347
f 347 564 563
f 347 563 345
f 345 346 347
f 345 344 346
f 343 344 345
f 343 275 344
f 275 407 344
f 275 406 407
f 406 424 407
f 407 424 425
f 424 443 425
f 407 425 408
f 408 425 426
f 408 426 409
f 346 408 409
f 406 423 424
f 423 442 424
f 423 441 442
f 281 441 423
f 281 284 441
f 477 441 284
f 477 284 478
f 478 330 477
f 477 330 328
f 329 328 330
f 477 328 476
f 478 332 330
f 287 332 478
f 478 283 287
f 287 283 479
f 653 479 283
f 653 285 479
f 657 285 653
f 653 672 657
f 657 672 673
f 672 635 673
f 672 637 635
f 671 637 672
f 671 639 637
f 638 637 639
f 638 639 640
f 548 638 640
f 640 641 548
f 548 641 643
f 548 643 604
f 548 604 605
f 647 605 604
f 604 645 647
f 645 646 647
f 645 644 646
f 668 646 644
f 668 644 669
f 648 668 669
f 648 669 652
f 652 669 670
f 669 642 670
f 670 642 639
f 641 639 642
f 652 670 651
f 651 280 652
f 652 280 279
f 279 280 281
f 279 281 277
f 648 279 277
f 648 277 276
f 648 276 649
f 649 276 340
f 649 340 650
f 650 667 649
f 649 667 668
f 276 278 340
f 340 278 406
f 276 277 278
f 277 281 278
f 651 282 280
f 651 283 282
f 282 283 284
f 282 284 280
f 651 670 671
f 651 671 653
f 652 279 648
f 649 668 648
f 669 644 642
f 643 642 644
f 667 646 668
f 667 605 646
f 607 605 667
f 643 644 645
f 647 646 605
f 604 643 645
f 641 642 643
f 548 636 638
f 634 636 548
f 631 634 548
f 548 630 631
f 630 629 631
f 629 632 631
f 675 632 629
f 674 632 675
f 674 633 632
f 673 633 674
f 656 673 674
f 656 674 655
f 655 481 656
f 656 481 286
f 481 336 286
f 286 336 334
f 286 334 287
f 285 286 287
f 335 334 336
f 335 336 337
f 336 338 337
f 337 338 84
f 480 84 338
f 480 338 481
f 85 84 480
f 654 85 480
f 654 480 655
f 655 675 654
f 654 675 676
f 654 86 85
f 83 84 85
f 84 83 91
f 91 92 84
f 333 92 91
f 333 337 92
f 93 333 91
f 337 84 92
f 335 337 333
f 333 334 335
f 333 332 334
f 331 332 333
f 481 338 336
f 656 286 657
f 655 480 481
f 655 674 675
f 631 632 633
f 548 628 630
f 631 633 634
f 634 633 635
f 634 635 636
f 640 639 641
f 636 637 638
f 670 639 671
f 636 635 637
f 673 635 633
f 657 673 656
f 653 671 672
f 657 286 285
f 653 283 651
f 287 479 285
f 287 334 332
f 331 330 332
f 478 284 283
f 476 441 477
f 280 284 281
f 278 281 423
f 278 423 406
f 340 406 275
f 344 407 408
f 344 408 346
f 233 563 564
f 347 346 348
f 349 350 564
f 564 350 352
f 564 352 565
f 352 359 565
f 351 359 352
f 350 351 352
f 346 409 348
f 409 426 427
f 425 444 426
f 425 443 444
f 424 442 443
f 476 442 441
f 476 328 326
f 327 326 328
f 475 323 474
f 474 323 321
f 325 100 324
f 325 98 100
f 98 99 100
f 100 99 101
f 318 320 100
f 100 316 318
f 100 313 316
f 313 315 316
f 316 315 317
f 316 317 318
f 322 321 323
f 318 319 320
f 474 321 473
f 472 445 473
f 318 317 319
f 471 317 315
f 472 446 445
f 428 446 447
f 471 315 470
f 429 447 448
f 429 448 430
f 430 448 449
f 430 449 431
f 431 449 450
f 431 450 432
f 414 431 432
f 413 430 431
f 412 429 430
f 469 449 448
f 468 449 469
f 470 315 314
f 313 314 315
f 311 313 100
f 100 309 311
f 100 307 309
f 305 307 100
f 307 308 309
f 309 308 310
f 307 306 308
f 309 310 311
f 469 312 468
f 467 310 308
f 468 450 449
f 432 450 451
f 432 451 433
f 415 432 433
f 415 433 416
f 416 433 434
f 433 452 434
f 434 452 453
f 434 453 435
f 435 453 454
f 435 454 436
f 418 435 436
f 418 436 419
f 419 436 437
f 419 437 420
f 372 419 420
f 374 419 372
f 372 373 374
f 374 373 375
f 374 375 370
f 370 418 374
f 370 417 418
f 368 417 370
f 369 368 370
f 369 370 371
f 579 369 371
f 579 371 580
f 580 371 376
f 580 376 375
f 577 369 579
f 577 367 369
f 577 579 578
f 370 376 371
f 367 368 369
f 367 366 368
f 366 416 368
f 368 416 417
f 370 375 376
f 375 373 582
f 582 373 383
f 372 383 373
f 372 382 383
f 381 382 372
f 381 380 382
f 585 382 380
f 585 380 587
f 585 587 586
f 586 587 588
f 587 378 588
f 588 378 377
f 588 377 384
f 377 379 384
f 377 378 379
f 379 378 380
f 587 380 378
f 583 382 585
f 379 380 381
f 381 421 379
f 379 421 422
f 381 420 421
f 420 438 421
f 583 383 382
f 372 420 381
f 374 418 419
f 417 435 418
f 417 434 435
f 416 434 417
f 467 308 466
f 433 451 452
f 465 453 452
f 464 453 465
f 466 308 306
f 305 306 307
f 305 100 303
f 303 100 301
f 301 100 299
f 299 100 102
f 299 300 301
f 301 300 302
f 299 297 300
f 462 300 297
f 462 297 461
f 461 297 295
f 296 295 297
f 298 297 299
f 301 302 303
f 465 304 464
f 463 302 300
f 464 454 453
f 436 454 455
f 463 300 462
f 461 456 462
f 436 455 437
f 420 437 438
f 461 457 456
f 460 457 461
f 421 438 439
f 421 439 422
f 379 422 385
f 387 395 394
f 384 379 385
f 384 590 588
f 386 387 388
f 390 569 388
f 588 590 589
f 569 561 570
f 540 570 772
f 586 588 589
f 584 585 586
f 584 583 585
f 582 383 583
f 375 582 580
f 578 579 580
f 536 581 537
f 520 577 578
f 517 518 519
f 517 516 518
f 515 516 517
f 520 576 577
f 576 367 577
f 518 602 603
f 516 602 518
f 515 514 516
f 600 365 601
f 512 514 515
f 511 599 513
f 510 598 511
f 510 597 598
f 509 596 504
f 360 598 597
f 509 595 596
f 508 594 595
f 506 594 508
f 501 505 506
f 593 592 360
f 500 505 501
f 498 500 501
f 591 573 592
f 498 499 500
f 485 484 486
f 572 591 482
f 487 571 485
f 572 773 591
f 487 575 571
f 591 773 573
f 487 574 575
f 485 486 487
f 490 573 488
f 225 238 239
f 225 237 238
f 237 567 238
f 237 566 567
f 566 354 567
f 364 567 354
f 353 364 354
f 353 363 364
f 363 567 364
f 363 568 567
f 238 567 568
f 490 491 573
f 238 568 239
f 361 568 363
f 360 592 573
f 362 361 363
f 600 360 365
f 365 366 367
f 366 415 416
f 414 432 415
f 362 363 353
f 413 431 414
f 353 354 355
f 355 354 356
f 412 430 413
f 411 429 412
f 351 410 411
f 351 358 359
f 355 356 357
f 566 356 354
f 565 359 358
f 235 566 237
f 234 564 565
f 235 237 225
f 233 564 234
f 226 559 562
f 224 563 233
f 345 563 343
f 559 274 562
f 273 275 343
f 341 274 559
f 275 339 340
f 339 650 340
f 341 606 342
f 650 607 667
f 607 548 605
f 341 559 606
f 227 559 226
f 226 225 227
f 225 489 248
f 248 489 486
f 486 484 248
f 248 484 483
f 248 483 498
f 498 501 248
f 248 501 507
f 248 507 503
f 503 502 248
f 248 502 512
f 248 512 515
f 515 517 248
f 248 517 519
f 248 519 249
f 519 535 249
f 249 535 536
f 249 536 250
f 250 536 537
f 250 537 253
f 253 537 538
f 253 538 254
f 254 538 539
f 254 539 218
f 218 539 540
f 218 540 219
f 219 540 242
f 242 540 772
f 242 772 533
f 531 242 533
f 523 242 531
f 523 527 242
f 527 492 242
f 242 492 495
f 242 495 497
f 497 230 242
f 525 527 523
f 219 251 252
f 252 268 269
f 68 269 268
f 70 269 68
f 68 69 70
f 659 70 69
f 659 69 660
f 69 74 660
f 67 74 69
f 67 75 74
f 73 74 75
f 73 72 74
f 65 75 67
f 65 159 75
f 660 74 72
f 660 72 661
f 661 684 660
f 68 67 69
f 66 67 68
f 220 546 247
f 70 658 269
f 686 620 687
f 658 70 659
f 660 685 659
f 686 618 620
f 616 617 618
f 660 684 685
f 616 615 617
f 613 621 615
f 612 611 613
f 683 614 684
f 661 683 684
f 72 71 661
f 71 72 73
f 75 76 73
f 662 78 77
f 662 77 663
f 75 177 76
f 196 80 195
f 196 195 197
f 197 195 194
f 3 80 196
f 196 90 3
f 196 95 90
f 3 82 80
f 176 194 195
f 159 177 75
f 61 157 158
f 52 157 61
f 52 156 157
f 156 174 157
f 54 156 52
f 54 155 156
f 155 173 156
f 52 53 54
f 54 53 55
f 54 55 50
f 52 63 53
f 61 62 52
f 59 159 65
f 66 65 67
f 68 268 66
f 267 57 64
f 251 268 252
f 246 251 219
f 219 245 246
f 58 267 60
f 61 60 62
f 52 62 63
f 265 53 63
f 245 266 246
f 219 244 245
f 243 244 219
f 55 53 265
f 50 55 56
f 50 56 51
f 243 264 244
f 242 243 219
f 240 262 241
f 232 261 240
f 232 260 261
f 260 44 261
f 230 229 231
f 228 229 230
f 228 230 223
f 223 257 228
f 228 257 258
f 27 258 257
f 27 257 25
f 29 258 27
f 27 28 29
f 29 28 30
f 30 28 31
f 30 31 32
f 29 30 258
f 223 256 257
f 223 230 236
f 497 236 230
f 228 258 229
f 258 30 32
f 38 260 259
f 36 260 38
f 31 39 32
f 28 147 31
f 27 26 28
f 145 163 146
f 24 144 145
f 144 162 145
f 25 26 27
f 25 257 23
f 6 144 24
f 6 143 144
f 143 161 144
f 143 160 161
f 9 160 143
f 20 9 143
f 7 9 20
f 733 7 20
f 733 20 734
f 19 734 20
f 22 734 19
f 22 750 734
f 750 751 734
f 255 751 750
f 255 750 21
f 734 751 752
f 751 730 752
f 21 750 22
f 6 21 22
f 5 21 6
f 6 22 19
f 6 19 20
f 734 752 733
f 733 752 753
f 752 728 753
f 753 728 726
f 753 726 754
f 754 726 724
f 725 724 726
f 723 724 725
f 556 723 725
f 556 722 723
f 555 722 556
f 555 720 722
f 720 721 722
f 720 719 721
f 718 719 720
f 524 555 556
f 722 721 723
f 723 721 724
f 755 724 721
f 755 721 756
f 725 726 727
f 754 724 755
f 736 754 755
f 736 755 735
f 732 754 736
f 736 10 732
f 732 10 8
f 10 12 8
f 8 12 9
f 732 8 7
f 736 11 10
f 732 753 754
f 733 753 732
f 732 7 733
f 7 8 9
f 9 12 160
f 20 143 6
f 256 23 257
f 4 5 6
f 21 5 255
f 222 256 223
f 221 222 223
f 541 751 255
f 223 236 221
f 497 496 236
f 495 496 497
f 495 494 496
f 543 496 494
f 492 494 495
f 544 493 545
f 528 547 529
f 542 545 541
f 541 730 751
f 752 730 728
f 727 726 728
f 727 556 725
f 731 557 729
f 731 558 557
f 528 558 547
f 527 528 529
f 524 556 526
f 522 555 524
f 521 523 530
f 530 553 521
f 713 553 712
f 522 554 555
f 718 720 555
f 713 715 716
f 758 715 759
f 741 757 758
f 718 717 719
f 756 721 719
f 737 757 741
f 735 755 756
f 737 216 14
f 735 11 736
f 13 14 15
f 10 11 12
f 12 178 160
f 160 178 179
f 213 179 178
f 213 178 214
f 214 128 213
f 213 128 126
f 128 129 126
f 126 129 130
f 129 142 130
f 215 15 14
f 214 138 128
f 18 137 215
f 138 129 128
f 18 135 137
f 133 134 135
f 129 136 142
f 133 132 134
f 131 141 132
f 130 142 289
f 140 288 141
f 288 403 404
f 289 290 291
f 289 291 292
f 748 405 404
f 270 271 272
f 748 764 749
f 765 705 692
f 763 708 764
f 705 706 692
f 763 709 708
f 710 709 711
f 710 550 549
f 692 706 707
f 766 692 694
f 549 695 693
f 696 695 697
f 766 694 767
f 746 766 767
f 746 767 745
f 696 697 698
f 769 698 700
f 744 769 743
f 745 767 768
f 744 391 398
f 393 396 398
f 745 397 746
f 747 766 746
f 396 400 399
f 747 401 402
f 271 402 272
f 459 291 272
f 440 458 400
f 460 458 457
f 459 293 291
f 461 295 460
f 292 291 293
f 130 289 292
f 294 295 296
f 296 297 298
f 122 125 298
f 126 130 127
f 122 124 125
f 122 123 124
f 213 126 212
f 212 179 213
f 160 179 161
f 144 161 162
f 145 162 163
f 163 182 164
f 211 181 180
f 211 124 123
f 121 123 122
f 209 182 210
f 209 119 208
f 208 119 117
f 120 121 122
f 298 120 122
f 298 114 116
f 118 117 119
f 114 115 116
f 208 117 207
f 114 113 115
f 112 113 114
f 206 185 207
f 166 185 167
f 168 186 187
f 149 166 167
f 37 148 149
f 37 36 38
f 36 34 260
f 35 150 33
f 260 34 44
f 33 151 42
f 44 43 261
f 240 261 262
f 40 41 42
f 40 42 45
f 241 262 263
f 45 42 46
f 46 153 48
f 49 263 47
f 49 50 51
f 48 153 154
f 50 155 54
f 155 172 173
f 153 171 154
f 153 170 171
f 152 169 170
f 168 187 169
f 204 187 205
f 203 189 188
f 203 109 107
f 108 107 109
f 205 111 204
f 112 111 113
f 298 112 114
f 108 109 110
f 106 107 108
f 104 105 106
f 299 102 298
f 104 103 105
f 100 101 102
f 201 103 200
f 200 191 201
f 172 191 173
f 156 173 174
f 157 174 175
f 175 194 176
f 199 193 192
f 199 101 99
f 98 97 99
f 197 194 198
f 197 95 196
f 96 97 98
f 96 98 325
f 325 326 327
f 327 328 329
f 329 330 331
f 93 331 333
f 94 90 95
f 91 88 93
f 3 90 89
f 91 83 88
f 85 86 83
f 677 86 654
f 665 89 87
f 1 89 665
f 654 676 677
f 678 627 626
f 675 629 676
f 628 629 630
f 624 626 627
f 546 628 548
f 546 609 625
f 608 625 609
f 623 626 624
f 679 623 680
f 608 609 610
f 682 610 612
f 663 682 662
f 664 680 681
f 663 77 79
f 79 80 81
f 81 80 82
f 666 680 664
f 665 666 1
f 3 89 1
f 2 82 3

