# https://github.com/mikedh/trimesh
v 0.02711571 -0.05548269 0.00458579
v 0.02708041 -0.05200000 0.00478553
v 0.03080357 -0.08073966 -0.01628384
v 0.03199726 -0.08194924 -0.02303894
v 0.02739523 -0.06226051 0.00300395
v 0.02793922 -0.06848519 -0.00007448
v 0.03629986 -0.07128371 -0.04738741
v 0.03541820 -0.07606376 -0.04239812
v 0.03436849 -0.07954653 -0.03645778
v 0.02969059 -0.07798071 -0.00998553
v 0.02871834 -0.07382114 -0.00448354
v 0.03696593 -0.06546406 -0.05115668
v 0.03738049 -0.05891857 -0.05350272
v 0.03752121 -0.05200000 -0.05429906
v 0.03320730 -0.08154425 -0.02988663
v 0.02969065 -0.02601919 -0.00998569
v 0.02708202 -0.05125577 0.00477644
v 0.02711572 -0.04851712 0.00458577
v 0.02739526 -0.04173930 0.00300388
v 0.02793925 -0.03551465 -0.00007458
v 0.02871838 -0.03017872 -0.00448367
v 0.03080363 -0.02326029 -0.01628403
v 0.03199732 -0.02205075 -0.02303912
v 0.03320736 -0.02245578 -0.02988682
v 0.03436854 -0.02445356 -0.03645796
v 0.03541825 -0.02793636 -0.04239827
v 0.03629990 -0.03271645 -0.04738753
v 0.03696595 -0.03853611 -0.05115677
v 0.03738050 -0.04508162 -0.05350276
v 0.03749342 -0.04890839 -0.05414177
v 0.03041553 -0.05446887 -0.01006526
v 0.02808456 -0.06226051 0.00312576
v 0.03069453 -0.05913917 -0.01164409
v 0.02862854 -0.06848519 0.00004733
v 0.03122228 -0.06303583 -0.01463069
v 0.02940767 -0.07382114 -0.00436173
v 0.03194162 -0.06573658 -0.01870141
v 0.03277459 -0.03705123 -0.02341521
v 0.03149292 -0.02326029 -0.01616222
v 0.03194163 -0.03826338 -0.01870149
v 0.03037995 -0.02601919 -0.00986389
v 0.03122230 -0.04096411 -0.01463076
v 0.02940769 -0.03017872 -0.00436187
v 0.03069453 -0.04486075 -0.01164414
v 0.03441778 -0.03944253 -0.03271405
v 0.03505784 -0.02445356 -0.03633615
v 0.03363091 -0.03745901 -0.02826110
v 0.03389666 -0.02245578 -0.02976502
v 0.03268661 -0.02205075 -0.02291732
v 0.03545890 -0.04712955 -0.03860578
v 0.03765526 -0.03853611 -0.05103496
v 0.03504995 -0.04278685 -0.03629149
v 0.03698920 -0.03271645 -0.04726573
v 0.03610755 -0.02793636 -0.04227647
v 0.03504994 -0.06121323 -0.03629144
v 0.03765524 -0.06546406 -0.05103487
v 0.03545890 -0.05687054 -0.03860575
v 0.03806981 -0.05891857 -0.05338091
v 0.03560033 -0.05200005 -0.03940610
v 0.03821053 -0.05200009 -0.05417725
v 0.03806982 -0.04508162 -0.05338096
v 0.03363089 -0.06654102 -0.02826101
v 0.03505781 -0.07954653 -0.03633597
v 0.03441777 -0.06455753 -0.03271397
v 0.03610752 -0.07606376 -0.04227631
v 0.03698918 -0.07128371 -0.04726561
v 0.03037992 -0.07798071 -0.00986372
v 0.03149289 -0.08073966 -0.01616203
v 0.03277458 -0.06694876 -0.02341511
v 0.03268658 -0.08194924 -0.02291713
v 0.03389663 -0.08154425 -0.02976482
v 0.02862856 -0.03551465 0.00004722
v 0.02808456 -0.04173930 0.00312570
v 0.03041553 -0.04953103 -0.01006527
v 0.02780503 -0.04851712 0.00470758
v 0.03037993 -0.05199995 -0.00986380
v 0.02776973 -0.05199990 0.00490734
v 0.02780503 -0.05548269 0.00470760
v 0.03436063 -0.04278685 -0.03641330
v 0.03372846 -0.03944253 -0.03283586
v 0.03294159 -0.03745901 -0.02838291
v 0.03208527 -0.03705123 -0.02353702
v 0.03125231 -0.03826338 -0.01882331
v 0.03053298 -0.04096411 -0.01475257
v 0.03000521 -0.04486075 -0.01176595
v 0.02972621 -0.04953103 -0.01018708
v 0.02970096 -0.05066530 -0.01004420
v 0.03476959 -0.04712955 -0.03872759
v 0.03487447 -0.04949887 -0.03932112
v 0.02998729 -0.05200005 -0.04039798
v 0.02984586 -0.05687054 -0.03959762
v 0.02943690 -0.06121323 -0.03728331
v 0.02880473 -0.06455753 -0.03370584
v 0.02801785 -0.06654102 -0.02925288
v 0.02716154 -0.06694876 -0.02440699
v 0.02632858 -0.06573658 -0.01969328
v 0.02560925 -0.06303583 -0.01562257
v 0.02508149 -0.05913917 -0.01263597
v 0.02480249 -0.05446887 -0.01105713
v 0.02476690 -0.05199995 -0.01085568
v 0.02480249 -0.04953103 -0.01105715
v 0.02508150 -0.04486075 -0.01263602
v 0.02560926 -0.04096411 -0.01562264
v 0.02632860 -0.03826338 -0.01969337
v 0.02716156 -0.03705123 -0.02440709
v 0.02801787 -0.03745901 -0.02925298
v 0.02880475 -0.03944253 -0.03370592
v 0.02943691 -0.04278685 -0.03728337
v 0.02984587 -0.04712955 -0.03959765
f 31 32 33
f 33 32 34
f 33 34 35
f 35 34 36
f 35 36 37
f 36 67 37
f 37 67 68
f 37 68 69
f 69 68 70
f 69 70 62
f 62 70 71
f 62 71 63
f 62 63 64
f 64 63 65
f 64 65 55
f 55 65 66
f 55 66 56
f 55 56 57
f 57 56 58
f 57 58 59
f 59 58 60
f 59 60 50
f 50 60 61
f 61 60 30
f 30 29 61
f 61 29 28
f 61 28 51
f 51 28 27
f 51 27 53
f 53 27 26
f 53 26 54
f 54 26 25
f 54 25 46
f 46 25 24
f 46 24 48
f 48 24 23
f 48 23 49
f 49 23 22
f 49 22 39
f 39 22 16
f 39 16 41
f 41 16 21
f 41 21 43
f 43 21 20
f 43 20 72
f 72 20 19
f 72 19 73
f 73 19 18
f 73 18 75
f 75 18 77
f 18 17 77
f 77 17 2
f 77 2 78
f 2 1 78
f 78 1 5
f 78 5 32
f 32 5 6
f 32 6 34
f 34 6 11
f 34 11 36
f 36 11 10
f 36 10 67
f 67 10 3
f 67 3 68
f 68 3 4
f 68 4 70
f 70 4 15
f 70 15 71
f 71 15 9
f 71 9 63
f 63 9 8
f 63 8 65
f 65 8 7
f 65 7 66
f 66 7 12
f 66 12 56
f 56 12 13
f 56 13 58
f 58 13 14
f 58 14 60
f 60 14 30
f 50 61 51
f 50 51 52
f 52 51 53
f 52 53 45
f 45 53 54
f 45 54 46
f 45 46 47
f 47 46 48
f 47 48 38
f 38 48 49
f 38 49 39
f 38 39 40
f 40 39 41
f 40 41 42
f 42 41 43
f 42 43 44
f 43 72 44
f 44 72 73
f 44 73 74
f 74 73 75
f 74 75 76
f 76 75 77
f 76 77 31
f 87 76 31
f 31 99 87
f 31 98 99
f 33 98 31
f 33 97 98
f 35 97 33
f 35 96 97
f 37 96 35
f 37 95 96
f 69 95 37
f 69 94 95
f 62 94 69
f 62 93 94
f 64 93 62
f 64 92 93
f 55 92 64
f 55 91 92
f 57 91 55
f 57 90 91
f 59 90 57
f 59 89 90
f 89 109 90
f 88 109 89
f 88 108 109
f 79 108 88
f 79 107 108
f 80 107 79
f 80 106 107
f 81 106 80
f 81 105 106
f 82 105 81
f 82 104 105
f 83 104 82
f 83 103 104
f 84 103 83
f 84 102 103
f 85 102 84
f 85 101 102
f 86 101 85
f 86 100 101
f 87 100 86
f 50 89 59
f 50 88 89
f 79 88 50
f 50 52 79
f 79 52 80
f 80 52 45
f 80 45 81
f 81 45 47
f 81 47 82
f 82 47 38
f 82 38 83
f 83 38 40
f 83 40 84
f 84 40 42
f 84 42 85
f 85 42 44
f 85 44 86
f 86 44 74
f 86 74 87
f 87 99 100
f 87 74 76
f 31 77 78
f 31 78 32

