{
  "accessors": [
    {
      "bufferView": 2,
      "componentType": 5126,
      "count": 15122,
      "max": [
        76.44297790527344,
        45.597862243652344,
        658.76611328125
      ],
      "min": [
        -91.20451354980469,
        -62.06098556518555,
        202.62481689453125
      ],
      "type": "VEC3"
    },
    {
      "bufferView": 2,
      "byteOffset": 181464,
      "componentType": 5126,
      "count": 15122,
      "max": [
        0.999957263469696,
        0.9999635815620422,
        0.9999954700469971
      ],
      "min": [
        -0.9999991655349731,
        -0.9999788999557495,
        -0.9999886751174927
      ],
      "type": "VEC3"
    },
    {
      "bufferView": 1,
      "componentType": 5126,
      "count": 15122,
      "max": [
        0.9532319903373718,
        0.859932005405426
      ],
      "min": [
        0.061962999403476715,
        0.31615498661994934
      ],
      "type": "VEC2"
    },
    {
      "bufferView": 0,
      "componentType": 5125,
      "count": 76572,
      "type": "SCALAR"
    },
    {
      "bufferView": 2,
      "byteOffset": 362928,
      "componentType": 5126,
      "count": 56274,
      "max": [
        257.1039733886719,
        83.19415283203125,
        629.1295166015625
      ],
      "min": [
        -254.91989135742188,
        -49.8205680847168,
        203.25074768066406
      ],
      "type": "VEC3"
    },
    {
      "bufferView": 2,
      "byteOffset": 1038216,
      "componentType": 5126,
      "count": 56274,
      "max": [
        0.9999997615814209,
        0.9999979734420776,
        0.9998548626899719
      ],
      "min": [
        -0.9999974966049194,
        -0.9999972581863403,
        -0.9998341798782349
      ],
      "type": "VEC3"
    },
    {
      "bufferView": 1,
      "byteOffset": 120976,
      "componentType": 5126,
      "count": 56274,
      "max": [
        0.8469989895820618,
        0.9760299921035767
      ],
      "min": [
        0.46780499815940857,
        0.3614949882030487
      ],
      "type": "VEC2"
    },
    {
      "bufferView": 0,
      "byteOffset": 306288,
      "componentType": 5125,
      "count": 316344,
      "type": "SCALAR"
    },
    {
      "bufferView": 2,
      "byteOffset": 1713504,
      "componentType": 5126,
      "count": 55630,
      "max": [
        113.3121337890625,
        77.2043685913086,
        440.20916748046875
      ],
      "min": [
        -126.16691589355469,
        -73.33049011230469,
        51.455482482910156
      ],
      "type": "VEC3"
    },
    {
      "bufferView": 2,
      "byteOffset": 2381064,
      "componentType": 5126,
      "count": 55630,
      "max": [
        0.9999988079071045,
        0.9999909400939941,
        0.9998283386230469
      ],
      "min": [
        -0.9999985694885254,
        -0.9999982118606567,
        -0.9999725818634033
      ],
      "type": "VEC3"
    },
    {
      "bufferView": 1,
      "byteOffset": 571168,
      "componentType": 5126,
      "count": 55630,
      "max": [
        0.804544985294342,
        0.29252201318740845
      ],
      "min": [
        0.028797000646591187,
        0.010205999948084354
      ],
      "type": "VEC2"
    },
    {
      "bufferView": 0,
      "byteOffset": 1571664,
      "componentType": 5125,
      "count": 301356,
      "type": "SCALAR"
    },
    {
      "bufferView": 2,
      "byteOffset": 3048624,
      "componentType": 5126,
      "count": 21966,
      "max": [
        110.24321746826172,
        67.47767639160156,
        638.9754638671875
      ],
      "min": [
        -105.35679626464844,
        -60.04310989379883,
        374.86016845703125
      ],
      "type": "VEC3"
    },
    {
      "bufferView": 2,
      "byteOffset": 3312216,
      "componentType": 5126,
      "count": 21966,
      "max": [
        0.9998346567153931,
        0.9999967813491821,
        0.9970921277999878
      ],
      "min": [
        -0.9999814033508301,
        -0.9999969005584717,
        -0.9999794960021973
      ],
      "type": "VEC3"
    },
    {
      "bufferView": 1,
      "byteOffset": 1016208,
      "componentType": 5126,
      "count": 21966,
      "max": [
        0.4079909920692444,
        0.581492006778717
      ],
      "min": [
        0.028798000887036324,
        0.36101698875427246
      ],
      "type": "VEC2"
    },
    {
      "bufferView": 0,
      "byteOffset": 2777088,
      "componentType": 5125,
      "count": 120624,
      "type": "SCALAR"
    },
    {
      "bufferView": 2,
      "byteOffset": 3575808,
      "componentType": 5126,
      "count": 19461,
      "max": [
        287.16876220703125,
        59.42009353637695,
        735.0588989257813
      ],
      "min": [
        -270.6034240722656,
        -61.655643463134766,
        1.8288450241088867
      ],
      "type": "VEC3"
    },
    {
      "bufferView": 2,
      "byteOffset": 3809340,
      "componentType": 5126,
      "count": 19461,
      "max": [
        0.9999998807907104,
        1.0,
        0.9997273683547974
      ],
      "min": [
        -0.9999998807907104,
        -1.0,
        -0.9999868869781494
      ],
      "type": "VEC3"
    },
    {
      "bufferView": 1,
      "byteOffset": 1191936,
      "componentType": 5126,
      "count": 19461,
      "max": [
        6.998290061950684,
        0.9987279772758484
      ],
      "min": [
        0.001563000027090311,
        0.006471999920904636
      ],
      "type": "VEC2"
    },
    {
      "bufferView": 0,
      "byteOffset": 3259584,
      "componentType": 5125,
      "count": 100776,
      "type": "SCALAR"
    }
  ],
  "asset": {
    "extras": {
      "author": "povchik (https://sketchfab.com/povchik)",
      "license": "CC-BY-4.0 (http://creativecommons.org/licenses/by/4.0/)",
      "source": "https://sketchfab.com/3d-models/kimono-baadb6f960c7431f829bdc0ec5820d9d",
      "title": "Kimono"
    },
    "generator": "Sketchfab-15.30.0",
    "version": "2.0"
  },
  "bufferViews": [
    {
      "buffer": 0,
      "byteLength": 3662688,
      "name": "floatBufferViews",
      "target": 34963
    },
    {
      "buffer": 0,
      "byteLength": 1347624,
      "byteOffset": 3662688,
      "byteStride": 8,
      "name": "floatBufferViews",
      "target": 34962
    },
    {
      "buffer": 0,
      "byteLength": 4042872,
      "byteOffset": 5010312,
      "byteStride": 12,
      "name": "floatBufferViews",
      "target": 34962
    }
  ],
  "buffers": [
    {
      "byteLength": 9053184,
      "uri": "scene.bin"
    }
  ],
  "extensionsUsed": [
    "KHR_materials_specular"
  ],
  "materials": [
    {
      "doubleSided": true,
      "extensions": {
        "KHR_materials_specular": {
          "specularColorFactor": [
            1.0,
            1.0,
            1.0
          ],
          "specularFactor": 0.3055133732750854
        }
      },
      "name": "Belts_1",
      "pbrMetallicRoughness": {
        "baseColorFactor": [
          0.014333226904001996,
          0.01713233316922302,
          0.01884143914985526,
          1.0
        ],
        "metallicFactor": 0.0,
        "roughnessFactor": 0.3540717951263752
      }
    },
    {
      "doubleSided": true,
      "name": "Jacket_1",
      "pbrMetallicRoughness": {
        "baseColorFactor": [
          0.020433049706154442,
          0.031071111010868357,
          0.04017115079767142,
          1.0
        ],
        "metallicFactor": 0.0,
        "roughnessFactor": 0.8158826813531392
      }
    },
    {
      "doubleSided": true,
      "name": "Pants_1",
      "pbrMetallicRoughness": {
        "baseColorFactor": [
          0.0202885630566524,
          0.030713443732993628,
          0.03954623527673283,
          1.0
        ],
        "metallicFactor": 0.0,
        "roughnessFactor": 0.9827475502465659
      }
    },
    {
      "doubleSided": true,
      "name": "Shirt_1",
      "pbrMetallicRoughness": {
        "baseColorFactor": [
          0.08028467311783341,
          0.11162920852576498,
          0.13722535356292534,
          1.0
        ],
        "metallicFactor": 0.0,
        "roughnessFactor": 0.9827475502465659
      }
    },
    {
      "doubleSided": true,
      "name": "default",
      "pbrMetallicRoughness": {
        "metallicFactor": 0.0
      }
    }
  ],
  "meshes": [
    {
      "name": "Object_0",
      "primitives": [
        {
          "attributes": {
            "NORMAL": 1,
            "POSITION": 0,
            "TEXCOORD_0": 2
          },
          "indices": 3,
          "material": 0,
          "mode": 4
        }
      ]
    },
    {
      "name": "Object_1",
      "primitives": [
        {
          "attributes": {
            "NORMAL": 5,
            "POSITION": 4,
            "TEXCOORD_0": 6
          },
          "indices": 7,
          "material": 1,
          "mode": 4
        }
      ]
    },
    {
      "name": "Object_2",
      "primitives": [
        {
          "attributes": {
            "NORMAL": 9,
            "POSITION": 8,
            "TEXCOORD_0": 10
          },
          "indices": 11,
          "material": 2,
          "mode": 4
        }
      ]
    },
    {
      "name": "Object_3",
      "primitives": [
        {
          "attributes": {
            "NORMAL": 13,
            "POSITION": 12,
            "TEXCOORD_0": 14
          },
          "indices": 15,
          "material": 3,
          "mode": 4
        }
      ]
    },
    {
      "name": "Object_4",
      "primitives": [
        {
          "attributes": {
            "NORMAL": 17,
            "POSITION": 16,
            "TEXCOORD_0": 18
          },
          "indices": 19,
          "material": 4,
          "mode": 4
        }
      ]
    }
  ],
  "nodes": [
    {
      "children": [
        1
      ],
      "matrix": [
        1.0,
        0.0,
        0.0,
        0.0,
        0.0,
        2.220446049250313e-16,
        -1.0,
        0.0,
        0.0,
        1.0,
        2.220446049250313e-16,
        0.0,
        0.0,
        0.0,
        0.0,
        1.0
      ],
      "name": "Sketchfab_model"
    },
    {
      "children": [
        2,
        3,
        4,
        5,
        6
      ],
      "name": "Kimono.obj.cleaner.materialmerger.gles"
    },
    {
      "mesh": 0,
      "name": "Object_2"
    },
    {
      "mesh": 1,
      "name": "Object_3"
    },
    {
      "mesh": 2,
      "name": "Object_4"
    },
    {
      "mesh": 3,
      "name": "Object_5"
    },
    {
      "mesh": 4,
      "name": "Object_6"
    }
  ],
  "scene": 0,
  "scenes": [
    {
      "name": "Sketchfab_Scene",
      "nodes": [
        0
      ]
    }
  ]
}
