#
# File generated by Libuipc
# Vertices 563
# Edges 0
# Faces 964
#
v -0.01553555987260916 0.1478958341193012 0.04697057592561156
v -0.011407904837125749 0.14336918859347744 0.04964968998700492
v -0.002355167468897674 0.14758501617516595 0.04306186433841577
v -0.11132544095675273 0.014166497454972957 0.04643793193767904
v -0.10776738038016147 0.025858397851919106 0.04650917695093098
v -0.10941991869603108 0.02044873295057504 0.04328945732056018
v -0.05043659792741882 0.12115453233007988 0.0647764227289606
v -0.03847351246549495 0.1302541358661943 0.06026731811602059
v -0.04672411730900604 0.12731921034004637 0.057571833063331204
v -0.1123427445038638 0.00989734222245045 0.02888671666979102
v -0.11051240850254013 0.018392389080297673 0.03166795611061907
v -0.11022241157843336 0.01899050415647008 0.027069771995860165
v -0.10793893260373393 0.02815968746315358 0.025841678126934785
v -0.10659025327242187 0.0353067451549946 0.03164566553068306
v -0.1046805260678402 0.03849330753510323 0.027152078852182637
v -0.06568129117774489 0.10688969572000152 0.05974512176344092
v -0.06200967522998307 0.10999189396460111 0.06103472762836603
v -0.06530246734424641 0.10783567404878454 0.058751966409987214
v -0.11111105623293399 0.015961947765800222 0.03657941989455831
v -0.11322850945909246 0.0062348307174673705 0.03970006747977304
v -0.11051735494043329 0.017527549847503748 0.03978882156245123
v -0.03512857309868821 0.13442738672282623 0.05577677902217461
v -0.027849096772069374 0.13576986167757893 0.057246491683960204
v -0.024666986297477825 0.14035001488462562 0.05192024772302698
v -0.05845267905215877 0.11708870954182736 0.05708551063421718
v -0.05172130559780624 0.12593159665179235 0.05472594381987561
v -0.0657756797840138 0.11234909867054063 0.055100460013662325
v -0.029845771705541202 -0.13309828044103622 0.06827129300919893
v -0.03709081221624973 -0.12877499825228894 0.06676577764083233
v -0.031140850372185815 -0.13362756306169507 0.06731562183707054
v -0.039077440765098476 -0.1322176985849393 0.06496706644373364
v -0.046908204543362426 -0.1256874129555257 0.06478151094859264
v -0.045159437452642476 -0.13331942623353657 0.0602232658814639
v -0.07561851863241133 0.10038303701294735 0.05032340691288674
v -0.07843195449620999 0.09935832256124941 0.04794393431765888
v -0.08310565525979254 0.09507529865626196 0.04516942365927224
v -0.09108752732775031 0.08309856051385411 0.04157271120151513
v -0.08401701653028498 0.09135278596851687 0.04542621497392178
v -0.08722775809146839 0.09010203674380336 0.04239155281437836
v -0.053376619331303866 -0.12043653004848544 0.06252728204165703
v -0.05110785964390341 -0.12317779020170913 0.06252644354991874
v -0.10894252537076954 -0.027890022049646215 0.02809796776036649
v -0.10977916833026857 -0.02880285702676074 0.024007568839669476
v -0.10691201796347817 -0.03731840225411695 0.028016431238271473
v -0.07724328844943341 0.09350134622614209 0.05499281076964346
v -0.07242255091699937 0.10083444148619725 0.054962235955009014
v -0.0800364097291022 0.09260887543502935 0.050963562053164914
v -0.06041200500046861 -0.1153019195672377 0.06100463698052385
v -0.06213423306064036 -0.11569935359618652 0.057819887494703466
v -0.052157906927222206 -0.12055789405003778 0.06395703443297271
v -0.0884432089619544 0.08340106146985869 0.04652820163039839
v -0.10242638128052296 0.04256215615385111 0.033789062497147984
v -0.10675689492279454 0.036633197323413594 0.035257931873988915
v -0.0738239439427485 0.10394052301149072 0.051999011011844586
v -0.10152870420987879 0.06217348406724607 0.030815252795644232
v -0.0985504512571349 0.06982343824431154 0.03607207499259835
v -0.10012284223362998 0.06708232567949284 0.03263960171950931
v -0.10582676585624493 -0.046851508044017116 0.028380176791899286
v -0.10383884374146594 -0.04707093637520597 0.032555970575056305
v -0.1046014875954114 -0.05490126087424894 0.031077291086492695
v -0.10775092404661535 -0.05220165325909145 0.026507041325138214
v -0.1070413587163732 -0.056786434286800413 0.028178176664970307
v -0.09394195287068742 0.07361215576264016 0.04501677041762262
v -0.09467021982229859 0.0747961452858562 0.04189780273390896
v -0.098977801775053 0.06567289463219515 0.03715982100869767
v -0.09394692892920344 0.06702664551716354 0.05220400550524157
v -0.09069918544400912 0.07188821241584077 0.05508215932791864
v -0.08801388421874302 0.07625584292335992 0.05423992188113488
v -0.09627637529752628 0.06325837962487584 0.05031619461503806
v -0.08883043831236234 0.07570020903177963 0.052081779114199256
v -0.10297792512687295 0.04256167974718782 0.02951803772371805
v -0.10122945165219187 0.050368745024959145 0.03490837392761059
v -0.10155145010201884 0.05402484793764233 0.03311258115216036
v -0.1030250122273954 0.055338833530559975 0.05064573524943509
v -0.09771846780032732 0.06422275946242799 0.044254550380506026
v -0.09258827795896885 0.07145435583068382 0.04910790170494487
v -0.10530294494991577 0.0400426843884068 0.023755452877831637
v -0.10477615622644285 0.03848419016834804 0.02355954392903924
v -0.10452659646521152 0.03958975931987807 0.02563493453503176
v -0.08268663512190343 0.08576898963341217 0.05650293508569452
v -0.08166317970733811 0.08711952845058928 0.05523331684333116
v -0.0724334110770868 0.09884676308896093 0.060770052875526545
v -0.07710866158747115 0.09285940136135253 0.06334766192392156
v -0.04835579137016488 0.11858727531956299 0.0684185337441821
v -0.05863291034554086 0.11103191730126709 0.06646906407783244
v -0.0531455815408051 0.11401654193407566 0.06929687168324233
v -0.06548592765840305 0.10685959185797106 0.06306504051718015
v -0.10657949540220822 0.031874163788759846 0.020427698855135873
v -0.059187064953144464 0.11371620925144975 0.06039230148705523
v -0.0555002041805092 0.11421446554266425 0.0651729709260365
v -0.08600267745190775 0.0840385644937104 0.050523716043255305
v -0.1032304288383403 0.047156747955815904 0.028335228632399078
v -0.10485884266617189 -0.039033116452219956 0.03495368882339202
v -0.0988801570478124 0.07190841154004064 0.03513522702752058
v -0.06599705097667802 0.10605119756576861 0.06586268053066817
v -0.021074327099554306 0.13555274240411683 0.060945435970725985
v -0.010024259271875969 0.13825979649513626 0.05794983662360411
v -0.01716270634149368 0.1393931552658782 0.05487799744438086
v -0.10133613029205486 0.06007838372160308 0.05356576998090113
v -0.008139910384311713 0.14074948373392948 0.05303205526746331
v -0.011893777542110903 0.13369833850507776 0.06912936827705318
v -0.10629017778853599 -0.06163491872280529 0.030280560035440638
v -0.10420269647767194 -0.06617750750839291 0.03237255201864801
v -0.10215809091331214 -0.06447875101037714 0.035225765129903115
v -0.10324820613938798 0.052076795247670046 0.028102214500659438
v -0.10222547606816772 0.0567286733243825 0.030982314296615947
v -0.09158836194333625 -0.07039135854238691 0.055618281832628624
v -0.08925231682973198 -0.07568624455883645 0.05311236451247214
v -0.0829055873292166 -0.08573575964493207 0.05891655508090592
v -0.03451983340897665 0.12873508501451703 0.06926400982106949
v -0.02908747700589689 0.13183996829473352 0.06471898991000063
v -0.038183960716758336 0.12858095505304526 0.06424071814090812
v -0.0968617859151287 -0.06042118439193148 0.055316477225103064
v -0.09355836776055372 -0.06713098836378027 0.060005342717767224
v -0.05716001750042696 -0.11193864011393319 0.06829763612345593
v -0.0484253253274921 -0.11693312407371884 0.06917842103950674
v -0.05286368002773998 -0.11525439352145636 0.07040216192860962
v -0.028464757152141758 0.13047457600368503 0.07513893020025453
v -0.041686858208981936 0.12228227795385326 0.07416142530930384
v -0.05419970576609286 0.1257875082378405 0.0555445116974395
v -0.061772740272534175 0.11833517257446909 0.05442458401116245
v -0.11162972976848547 0.014141861304910656 0.018321505758840496
v -0.10997441738388304 0.018827413667711762 0.023200295523227728
v -0.10907725945319241 0.022968598016131384 0.018828543000784296
v -0.021939006637863592 0.13197177978669547 0.07076110841460558
v -0.014264982805585124 0.13348426343536726 0.07415056311086321
v -0.05982448571980413 -0.11850831963360792 0.05840868886111825
v -0.07034625208002117 0.10223079363819493 0.05721039974907961
v -0.10151036009421038 -0.04976963638638924 0.0520943683161099
v -0.0973051821785355 -0.05935408255857505 0.05154868732987802
v -0.11398010258927786 0.000242850632978362 0.021592565029010056
v -0.11467160376953839 0.004847838581213486 0.0177710569425507
v -0.11595799675669884 -0.004699377401339511 0.017605052742562032
v -0.08514843004995723 0.08270070722602545 0.05808455659192143
v -0.11539946046473581 0.003027536852900524 0.0500454177415325
v -0.11189552740637339 0.012234938145856486 0.04454522487070341
v -0.10845226656188411 0.02782626491410093 0.03133688845327943
v -0.06377137076424194 0.10766398452461953 0.06722881915453714
v -0.1123229183933005 0.009693645778142152 0.023006347020303686
v -0.11331848008432355 0.0006593089079658951 0.02587211521237741
v -0.10327068604583246 0.0445606036700698 0.041693036983167016
v -0.10865350679114863 0.026670008221232316 0.03735414314634447
v -0.10779583242411829 0.030215791906032522 0.040741099076918044
v -0.10643628746304812 0.0384159230575868 0.04011466552634479
v -0.11384117822936089 -0.009245121730419893 0.023358455214572835
v -0.11514067160293194 -0.014766991712704007 0.01822562448253682
v -0.11203040209921779 -0.020682825190896967 0.023517740581582142
v -0.11246584996323188 0.010407778000275349 0.0340894598584803
v -0.11321838099180802 -0.024425358753743315 0.01966877276556654
v -0.10652743720583986 0.04019214424672956 0.04421916920098366
v -0.10706701594759412 0.04658331421408645 0.04982586183048466
v -0.10579958668513177 0.047642050594568504 0.0521808754340077
v -0.10868765681878863 -0.028849607359127765 0.03506368039858378
v -0.1120661720691823 -0.01977734840758391 0.03787426209925788
v -0.11214345054545578 -0.017848249405969654 0.029496202554369563
v -0.027785056104055406 -0.13315290437210076 0.06906505045341288
v -0.019530290627895398 -0.13686902393291348 0.06754147906819856
v -0.022779484383132105 -0.13534360897212808 0.07118771986916679
v -0.11068779746619985 -0.03360099577410809 0.0214908902819474
v -0.020336205102109907 -0.1361861117002443 0.07519356354470355
v -0.017482091233770716 -0.13863943843439025 0.06870791860366121
v -0.1087112211936244 -0.043123040263075556 0.02409168704779717
v -0.10128408640067899 -0.05681550335231012 0.037237027919817874
v -0.02153436452169996 -0.1404471069028515 0.060038163296728106
v -0.017105186796475616 -0.13894469864423503 0.0635163110159796
v -0.024810202713796484 -0.13484949473433436 0.06604286974648449
v -0.027868476294398443 -0.13779936682043914 0.06297269066519527
v -0.09783817924445894 -0.06854518154530015 0.04130359545674658
v -0.0916339943813812 -0.08019640622169143 0.0460182291320588
v -0.09327442821270666 -0.07309086567220885 0.04751919957128574
v -0.09793544905613805 -0.07419898731935307 0.03891926213990659
v -0.09442021746383825 -0.08304855707101244 0.040904416962739255
v -0.11397995441853277 -0.010351651602464554 0.034188527595824726
v -0.09984348137801353 -0.07445676222803527 0.036831955985795105
v -0.10213996998753501 -0.07027056268404895 0.034322239263244556
v -0.03142693511594867 -0.13057405464941552 0.07196065753476669
v -0.03786012328401464 -0.1266359041236325 0.06851031625269473
v -0.03726701919856576 -0.12773264373338789 0.06767679690237231
v -0.09705451183826821 -0.07919039979538625 0.03880303148929535
v -0.02940493002683494 0.1432408156003428 0.04953324300071837
v -0.0843533640567708 -0.0963634646803286 0.04847237285244307
v -0.08180311936347419 -0.09729925790071121 0.05079427486766428
v -0.0883613985314081 -0.09214755964018485 0.046731833313002236
v -0.07331786817322629 -0.10577103236867676 0.05403046593993954
v -0.08003947862156484 -0.10051098028478503 0.05103484238050016
v -0.07520109675405112 -0.10539997008298327 0.052797087617912346
v -0.06919058927862735 -0.10540108719227963 0.06041874382265048
v -0.0752249269426886 -0.10030436838615268 0.05694679309194162
v -0.06814294316939432 -0.1079465301860849 0.05900046416880979
v -0.011253899408052591 0.13527103108527003 0.06371115384397141
v -0.08753061514585289 -0.09016785341145317 0.04914850817527813
v -0.06527477416480183 -0.11502793577026603 0.055632161838093205
v -0.11350986516571188 -0.007240678679645849 0.02852064399160282
v -0.11378761539955934 0.0007532737704860646 0.03226776364924836
v -0.07000408388712635 -0.1101370255668915 0.05451006908466974
v -0.06803532457276527 -0.10962097833429191 0.0568699329931963
v -0.10698797121422762 -0.03328368685776174 0.03127964723080468
v -0.04864158293414184 -0.12336715504866264 0.06540365305106555
v -0.036721872420039145 -0.1382946805207287 0.06228541814835435
v -0.0834779867789986 -0.09169017075273482 0.05423334135887066
v -0.08635531626931817 -0.08354781141567089 0.05246434179249711
v -0.11292407924232768 -0.015747076060386313 0.047594941466696676
v -0.1118346215187871 -0.02090903949077162 0.053563744994043296
v -0.11464414763673625 -0.00900330333504902 0.05190216327309787
v -0.1082398577681447 -0.03265358077418358 0.055290672437637106
v -0.11015976641797884 -0.025509912513782314 0.04922036212196079
v -0.10616173625913085 -0.03655579090714644 0.04955131735382409
v -0.09960865376268105 -0.05610244551592185 0.057916906101693484
v -0.10603496417601992 -0.036376446241023784 0.04192304195172705
v -0.1092656400783401 -0.027754548567024025 0.04328474555174852
v -0.08278583980186721 -0.08643947039649788 0.05622094009180651
v -0.0431258836967586 0.13656408004367615 0.05203449388877766
v -0.03784884489566938 0.13553056867412516 0.05346223093192897
v -0.06410912234852238 -0.10560330100109937 0.07001561059566709
v -0.07309719262400544 -0.09756805111351917 0.06597387659248295
v -0.06252869641921395 -0.10739446175555044 0.06659952253787903
v -0.11174954168487172 -0.020349003221280648 0.04416659145645244
v -0.07752831517608613 -0.09202935404334431 0.0639542495936804
v -0.07036129007413189 -0.1003669067222291 0.07014847767624019
v -0.08648786038456113 -0.07968682506323647 0.06148191049119052
v -0.024821381145338953 -0.14336876340890456 0.057695573770956604
v -0.032090241467955846 -0.13812812578281033 0.06336304048091224
v -0.09937321149837568 0.05525925293425662 0.041694100532968854
v -0.10011039994911315 0.058882420780200485 0.03921972431994917
v -0.031102394734343623 -0.13453185026624231 0.06651474422222427
v -0.026875327554519542 -0.13382180154897003 0.06755509898823715
v -0.01307864306186608 -0.14576002607911073 0.056494436084045176
v -0.040649842333290796 -0.12338731758499094 0.06988883344513275
v -0.030225975131503803 -0.1317269761677309 0.07106331356542696
v -0.025808213212364962 -0.13245464498327864 0.07632779776265045
v -0.026663526915113592 -0.13100337174652665 0.07813811847644984
v -0.02145604142331954 -0.13538019960842398 0.07821670141784297
v -0.042533273408211156 -0.12092827452601831 0.07075071538430842
v -0.03763851865343875 -0.12537814130925848 0.07274684174653033
v -0.035006696021393516 -0.1279570671874725 0.07161687888846237
v -0.02142671103012582 0.13292876577838136 0.06668205836208072
v -0.04568789499889035 0.1229278841336326 0.06608241801514574
v -0.040800080155920265 -0.12869757424849562 0.06656261082026767
v -0.10245982482074431 -0.04796669504265702 0.03734106945203954
v -0.1039048425426062 -0.04435214852779235 0.056651128601469244
v -0.10909735388466306 0.023771298162461377 0.04039875762180875
v -0.10705677948987327 0.03757346669192123 0.048472888012376016
v -0.11439575683920139 -0.005579794141447975 0.044525189875814795
v -0.11388841773942072 -0.012851292433589994 0.04101386141705848
v -0.10306379062746104 -0.044861025020089706 0.04147668907360464
v -0.11431904968332701 -0.0044746614549158615 0.03805109709817684
v -0.06631762753252536 0.1086145233420659 0.05613037315846841
v -0.09404362606781881 -0.0662891119957884 0.05137578959618209
v -0.0615615985944466 -0.11162967071659412 0.06302551576606431
v -0.060072655719274726 -0.11414599536912942 0.06239845013140721
v -0.060971595145268585 -0.1106722876297028 0.07311842622478913
v -0.05184578855753769 -0.11931434403562494 0.06493999710196306
v -0.04526333367265347 -0.1246838798453301 0.06676124031287921
v -0.04789635978669419 -0.11758821589671364 0.06811085528108783
v -0.10538311187578332 0.0501651717547037 0.047438540586943724
v -0.10364221287914317 0.04398902454240389 0.02591685792472925
v -0.04885261845694976 0.1297331088503668 0.05460506364576366
v -0.09931468835113366 0.05607020186461536 0.04723818188403309
v -0.09708615018348768 0.07718410052859266 0.036522413204316186
v -0.09107002899677967 0.08533580914367994 0.04029910582010699
v -0.09411997398935851 0.08121616685470057 0.03827700898445276
v -0.031000111187001113 0.13260753326862962 0.06136738306345938
v -0.10082011594938632 -0.051367726604017276 0.04678822452589183
v -0.10046951008824538 -0.05360740548538965 0.041944342950117085
v -0.09753863638166851 -0.0599479727939148 0.04713767920276282
v -0.10373323991081326 -0.04334066772163515 0.046572445516745845
v -0.10498887108827688 0.042813241587012475 0.04350609283815068
v -0.05129841916753888 0.12304837559650326 0.05897673177867666
v -0.09438068891374317 -0.06756643787342104 0.0483954726355387
v -0.07749279013563205 -0.09390870977624728 0.059757780422016266
v -0.07011338515926062 -0.10201140158624124 0.0628144029474661
v -0.05549319681084617 -0.11476280509052952 0.06596450408344015
v -0.055385154056210986 -0.11378712292250712 0.066988432966695
v -0.04151521066743884 -0.12530667751938188 0.06721760236974972
v -0.09752372386915309 -0.0631028892950534 0.04351359320252294
v -0.07770677987785062 -0.09424528611414906 0.058740634801901837
v -0.0767448444074438 -0.10047383519186963 0.05450866351021598
v -0.09207090006394861 -0.08735702159002377 0.04404195067763732
v -0.0019757364522555 -0.14445878222755823 0.05263585516307408
v -0.012843335074585354 -0.14230458257981735 0.06059986847632491
v -0.0007695053857903897 0.1397990976783645 0.05492971895129445
v -0.001398147992832161 0.1375062206874892 0.0609874579964032
v 0.009945670773106324 0.13717732460939278 0.05756904901831764
v 0.006295970938803239 -0.1458104762385395 0.05044298415306327
v 0.018555987280311853 -0.14213637364205672 0.05255698630122584
v 0.011982325614277853 -0.14174409444574618 0.055348284887241334
v -0.011369281530551356 -0.14329752099374718 0.08026925642770345
v -0.003690613755520702 -0.14366650314199134 0.07224785971916725
v -3.9107650495045196e-05 -0.14447369943540697 0.07786239244594194
v 0.015890263839105696 -0.13688155959719497 0.0758874156838479
v 0.00541146082008804 -0.14110197564463978 0.07492792037942533
v 0.0037104098532940244 -0.14006111573675228 0.06880430600378336
v 0.0452979205374006 -0.13130004960066188 0.05496603799605752
v 0.050445110194071136 -0.12525896493191518 0.05809327517780703
v 0.03836699429094521 -0.1305362286052821 0.05924146569598051
v -0.012352702485529056 -0.1419818004722863 0.07199449344689433
v -0.013598294211907253 -0.14151432721502866 0.06443073110960984
v -0.005187801619140789 -0.14291048379328686 0.0684017821478612
v 0.0036097583341475844 -0.14356686432613755 0.05423171094048582
v 0.05958579688113785 -0.12203474742985727 0.05561733348131146
v 0.05997221277872718 -0.11716577042488263 0.058863522231750634
v 0.011943361189707643 -0.1409737514656325 0.08056258653293635
v 0.02367885675378129 -0.13522676899211575 0.08308726033922424
v 0.027017252539723136 -0.129820792843785 0.0797082235765537
v 0.06617878581541455 -0.11724622990014914 0.05375400436555579
v 0.07929728893736149 -0.10254332622735483 0.05083339111563694
v 0.08432358563914634 -0.09867796751034455 0.04668173557866881
v 0.08283944039061258 -0.09515950139797903 0.049150320389259254
v -0.0016618068693136903 -0.14205441130152668 0.05811758133489193
v 0.09053028696612997 -0.088245546533957 0.04240466177022899
v 0.08785519786076328 -0.0885229695021326 0.046255473258544705
v 0.08777491972697198 -0.09326016258054114 0.04480393694758708
v 0.038067427374141 -0.12319885501757348 0.07719004744168009
v 0.025831550467065513 -0.13011470692976915 0.07463863152037598
v 0.07124756117907853 -0.10911129205392368 0.05443323968956637
v 0.07675330245841733 -0.10797118168154765 0.05038330596830382
v 0.06764321576900169 -0.10750488358032546 0.059540951747528936
v 0.06035626133096194 -0.112292288212851 0.06323063753593967
v 0.0032988285280407996 -0.1399463526253058 0.06405553822719258
v 0.010028052249374047 -0.13978755431174883 0.05972214610096735
v 0.013545064525958838 -0.137275207156999 0.06643494179856757
v 0.08933020836817229 -0.08227635397703667 0.04797835179076518
v 0.09350194269972495 -0.08327687465292029 0.04107962199553174
v 0.030271365264483163 -0.13159050835186215 0.06319430061066271
v 0.039877197713896154 -0.12687939122911274 0.06376731991557365
v 0.03158340013308131 -0.13723309994460264 0.05391404303864813
v 0.02268957439486409 -0.13701532083090148 0.05821042781407625
v 0.1009787309453279 -0.06686053399787116 0.03530578828143422
v 0.09862918900350766 -0.06496570132592172 0.03949932935608887
v 0.09907567355512459 -0.07223732233611434 0.038382447863753215
v -0.009383781387631443 -0.14158410174817274 0.06108996133831261
v 0.08314808708627343 -0.08976649307601722 0.051586805311047666
v 0.0985803653419596 -0.05700824435297844 0.04251284038880101
v 0.10189832171469634 -0.056337486630864186 0.03554219208688354
v 0.1077036523303017 -0.01804063836534463 0.03207631372510616
v 0.10808205979763924 -0.01036432738896963 0.03405176679582029
v 0.10690748786700856 -0.016137763293966413 0.03779454127279544
v 0.10623550009762205 -0.04950988112049286 0.029050779016911894
v 0.10475890288189214 -0.055081175951247854 0.0313537106597871
v 0.10205046674087924 -0.050732819295880055 0.03640812175470211
v 0.04842610464555716 -0.12349547095645615 0.06187566141568734
v 0.04626118061864895 -0.12129720655033636 0.06727015062345104
v 0.040481266248817184 -0.12307865090009078 0.07175726107960642
v 0.0487563905668451 -0.11720577432587254 0.07254575941817636
v 0.1035714228005833 -0.03797863729277753 0.038418894361903294
v 0.10122334391266681 -0.047150141677198734 0.04085289879372435
v 0.10425408338165644 -0.04322610285039683 0.0335615516976688
v 0.10704367461253719 -0.010596062893096442 0.04146592362635629
v 0.10805303002858352 -0.002590346724346421 0.03767575453366807
v 0.09058474503952466 -0.0713636858978886 0.0528693213050195
v 0.08571333570016965 -0.07705976296885012 0.05960250185728174
v 0.08530407425484317 -0.08202247185516645 0.05432910561007908
v 0.10308317181771631 -0.061029971822546276 0.03364930136104562
v 0.09443678140932812 -0.07486615458015707 0.0435488543180806
v -0.0014229495107882957 -0.14076893041815172 0.06453205433226135
v -0.013635467227357034 -0.1412389295780559 0.06263784429889824
v 0.08878904797518233 -0.07075359008860131 0.06813668167002875
v 0.0931680540834062 -0.06223098317147448 0.060872757826949626
v 0.0947612756815885 -0.059485337748348736 0.06572297299771107
v 0.0886496122044363 -0.07077041277976284 0.06210968815773666
v 0.08381300469178066 -0.07866824094631275 0.06537093759036351
v 0.10847271393524294 0.021586622103405954 0.0574845177222541
v 0.10679832684617623 0.027114671558584044 0.05286125688815733
v 0.10671629401293074 0.0334895503597816 0.05816041761127882
v 0.008093064959344717 -0.13865508066560236 0.06880719194348006
v 0.09612096467529802 0.07758208234333656 0.03965599351191797
v 0.09851161621733168 0.07837957047187508 0.03378995472377151
v 0.0954184617042353 0.08388509067515185 0.034040284346755975
v 0.07610940138101846 0.10128901959392418 0.06775959627964036
v 0.08348539813883421 0.0900615859838854 0.06658812364330177
v 0.07900147409142311 0.09618119291504164 0.06360953090255451
v 0.0177952544988973 -0.1354172775520347 0.07118246013599652
v 0.05177254367585502 -0.1147631021214881 0.07634409952125762
v 0.0784786857227202 0.09759484014866447 0.05871613645392569
v 0.08570536325205998 0.08700652943772622 0.06072447927606124
v 0.08950600593837787 0.07890179202170465 0.06486382095681544
v 0.09497659009859652 0.06788354186817204 0.06294510280394656
v 0.09211729892649434 0.07524907052964251 0.05930368131582115
v 0.05581354167126225 -0.11375222725621192 0.06779465168469323
v 0.0647884531889229 -0.10660249255729998 0.06497098214127077
v 0.06106230309424934 -0.10827004211109663 0.07127236083485348
v 0.10257007321103301 0.04867994919528027 0.055949697960188546
v 0.10481831931934052 0.038582678678248224 0.051687800874972066
v 0.10255135895205773 0.04945256475126556 0.05079629731523436
v 0.07190663553462112 -0.09799986235152507 0.06498784630426836
v 0.07578640324237572 -0.09114891703533395 0.06599095875706375
v 0.07777831546690935 -0.08783640769876297 0.06835852528703405
v 0.0705510977014977 -0.09856651343934919 0.07109062468700035
v 0.07508587218108173 -0.09228578446454087 0.07339737328967337
v 0.06730135142132557 -0.1028152891388879 0.07631986769175847
v 0.03426599896335382 -0.1267999151779395 0.08372154122116188
v 0.10964050614392769 -0.013287180137132518 0.027067062846780805
v 0.11149197434263713 -0.019305825354509303 0.021594823110342623
v 0.11333703836007186 -0.009024196155618298 0.020178307472753364
v 0.05766801529421427 -0.11269621280150222 0.07793132259789992
v 0.045516418635955194 -0.1194683627278627 0.0821142874964321
v 0.07652537239200642 -0.09947445507241195 0.05502389836170502
v 0.08031479896712379 -0.08438612443210855 0.06411488790894576
v 0.09607665793267736 -0.07843213453654903 0.040656769480611
v 0.1079247765450553 -0.03941523647933852 0.0257632536376169
v 0.10232987690647892 -0.03619378226135036 0.062447289245063535
v 0.0989300073635977 -0.04791288374217945 0.06396628349791493
v 0.10076099727859736 -0.04048162587380861 0.05768580713749734
v 0.10244296068957849 -0.03534990831036203 0.051343247142727824
v 0.10326969620406039 -0.030862851910812297 0.05620157938144705
v 0.09867121029829982 -0.0518508901864826 0.04786523462597892
v 0.09595315094811024 -0.056483471177768765 0.05438860561734911
v 0.09502747842718137 -0.06143657559892144 0.05024092762580402
v 0.09761069272970264 -0.05086048555897921 0.058337801307565676
v 0.0780976116656468 -0.09263466659289718 0.05785913459235786
v 0.1099367898271252 -0.0031577586270963172 0.02832300762961708
v 0.07952067495482451 -0.08742983544139225 0.061154796734746095
v 0.10990453973102121 -0.029278002695989763 0.023157244701410538
v 0.10892759368294372 -0.02095666353920874 0.026777887540771976
v 0.07156275308857868 -0.11253345325408513 0.05234871673154872
v 0.03580282588794829 -0.12694742276987084 0.06778034484947484
v 0.06200960580825496 -0.10749323037136001 0.07504982315441763
v 0.11292456892085188 0.001266868401668974 0.019855109797637677
v 0.11187350810109854 0.02128093669611854 0.02107600884370086
v 0.11138564554342051 0.03149025884411537 0.022626723433780672
v 0.10910971923463043 0.026793197409868783 0.02771927375107347
v 0.014885410229917384 0.13362282377253754 0.06367054944095095
v 0.0059982402632260765 0.1354979806270538 0.063822734940298
v 0.008602919048094924 0.13365652580565424 0.06876411624751397
v 0.006282758605370204 0.14046056294377526 0.05173040333244012
v 0.008068527013646375 0.14290517446936102 0.046781053822937825
v -0.0013412281896538734 0.14259497900036575 0.04946396049493975
v 0.10852303702305212 0.035456272775450576 0.027293088164258343
v 0.02019570262422353 0.13086597027519753 0.0686902909368437
v 0.01299352249275465 0.1318600830995558 0.07446600470896457
v 0.02623157774575319 0.12816460546874567 0.0742498287754868
v 0.10995042284323572 0.01863745102901939 0.026579272655647666
v 0.10253422003841736 0.052709610795242424 0.038953957832615536
v 0.10466576852970588 0.04384093924871537 0.036848145952887074
v 0.10518539319928946 0.050259001413721575 0.031886159441332655
v 0.10714345106974495 0.05459242706218089 0.028003502301550083
v 0.10354420062179469 0.06010234502457828 0.03217230963253932
v 0.10123732095672228 0.0732110523232897 0.03249739728144464
v 0.1002148009154058 0.06906476616382307 0.03533212411101886
v 0.10391847710118858 0.06660018886396231 0.03067108961350625
v 0.033002755243876164 -0.12687313724265764 0.07210850295295475
v 0.025182160775424036 -0.1319791849553701 0.0682195735024711
v 0.01914091195617608 0.14120152192318408 0.04609388081402376
v 0.024256050522197748 0.14332150217889184 0.041104449828701276
v 0.010853132769053232 0.14609820488639477 0.04148247318613665
v 0.1102494062695954 0.03776659390362469 0.02380243949255116
v 0.10892625987709809 0.043372192122433664 0.023958199156717784
v 0.09846098807513391 0.06813669118410519 0.04056840229579839
v 0.08428774424888628 0.09800796657254769 0.043045944888153824
v 0.09099676527122107 0.08802377587749854 0.04066291721471824
v 0.08922677896097808 0.09408557076343811 0.03798134574094113
v 0.10610584430183173 -0.03439161937778959 0.03108364230535641
v 0.10845040218240945 -0.0017210327862355523 0.0576671025344959
v 0.10741186221505845 -0.013164602798849559 0.05908052514629084
v 0.10720312602250778 -0.0054032620181199515 0.052665195342556814
v 0.07964691556944341 0.10074460457747701 0.048444279285167174
v 0.0864422772927993 0.09156959211565119 0.04715856587465027
v 0.096243136026081 0.07247272535243662 0.045694497663192724
v 0.08834522961467793 0.08605651216730772 0.051636745944152455
v 0.09296333251570589 0.07721363864633563 0.0510442027061479
v 0.09205343266476669 0.08226347057262834 0.04621965151363437
v 0.10713614453974495 -0.025904999418203758 0.030776525215900085
v 0.05809430680571503 0.1198224954231723 0.05270171248297969
v 0.06610200184234584 0.11269229209221363 0.05292986497859728
v 0.0639726116771118 0.11634502606574815 0.04947964866439035
v 0.03080288822015301 0.13809396323793452 0.04644168051277373
v 0.042348956432231244 0.13345696300489396 0.04670563906954786
v 0.037659570429040244 0.1388296630219644 0.04135693844043043
v 0.05412566595327642 -0.11760015713310099 0.06394797541909919
v 0.03572946743185828 0.13240762631643718 0.05282427848761276
v 0.020057060297853438 -0.1355927361896387 0.06310424602901533
v 0.05117673915753678 0.12863992532916863 0.04652979393359638
v 0.05068849624742063 0.13201882354458183 0.041712485483112106
v 0.08094350625845016 0.10548581302524175 0.04085427200049319
v 0.07673658684034113 0.10691293899849773 0.04499905161391854
v 0.10285702961602804 0.04886868052134343 0.043970153426531274
v 0.10655422478474198 0.04099925823529873 0.030889871831054783
v 0.10668729732712429 0.033631892814100554 0.034119865359448866
v 0.10776935204208732 0.004198665150516082 0.053950205984959185
v 0.10888751502407684 0.009855162615462255 0.057013791203891204
v 0.10123059750431579 0.06012925476142635 0.037301607846813044
v 0.10762657202067398 0.01639072041845551 0.046467569072888626
v 0.10743909191608209 0.005114236010726497 0.04923827703850754
v 0.10781467731005197 0.005748437833778512 0.042054110437547594
v 0.09261306081134053 0.0888259302143486 0.03567802520073623
v 0.10491311335319563 0.03895412615254669 0.04605694352868704
v 0.0996266264875164 0.061141865229593716 0.04394275657301251
v 0.06665470089068734 0.11657966581631139 0.0456229936112916
v 0.07604889877475195 0.11116494762063917 0.042407256345569924
v 0.06305218438249659 0.12306822413407599 0.04186024088335208
v 0.10017198086519113 0.05659677388818935 0.061472563195112045
v 0.10408521854364808 0.045083989162694627 0.05946194853084309
v 0.09811989505801652 0.06235535683095269 0.05578635028838771
v 0.09396673637323388 0.0728927924469418 0.05478770560227702
v 0.07153293766833244 0.1094982475419849 0.049100280199355584
v 0.10642843549015371 -0.012434295902104216 0.04840930823055289
v 0.10550816803492573 -0.01954375001015274 0.050535816711516655
v 0.10572235340929696 -0.019718099540747915 0.04416503049571447
v 0.06971684136726095 0.1054415141054716 0.06398629762595433
v 0.06378066425841405 0.10956244432665081 0.0709039256174708
v 0.0825299418740014 0.09490103982538871 0.052734378655153374
v 0.08522792014970754 0.0893429431524712 0.05611052448746165
v 0.1079938599573701 0.02221541591463096 0.034083946219816995
v 0.10947636097166072 0.01263844810016918 0.029798498620347728
v 0.10495271189371624 0.03867171519254624 0.05569849213204123
v 0.085576974968487 0.09975478416514459 0.04021023123334006
v 0.01935254834027189 0.13424136256320085 0.059270030764484685
v -0.001945930392543357 0.13534236373713196 0.06689907962336822
v 0.11053044332356166 0.005459181190710796 0.026347921226300107
v 0.11259878054738903 0.011201043391693491 0.020054024524138236
v -0.0006429405843852196 0.13431720132841818 0.0734651438182509
v 0.033165684704627295 0.12670143488535276 0.06743426672302785
v 0.039145135183838914 0.12278266378505075 0.073869851162265
v 0.043903718014403625 0.12165571280858592 0.06868542413089501
v 0.03442147145291287 0.1290029458982093 0.060145792850019496
v 0.0430598670103827 0.12394786525914675 0.06303948017814368
v 0.019353543820222124 0.13622336394857393 0.05515104085436147
v 0.04262149347043588 0.12691221493278101 0.05729890054432743
v 0.04832821949725187 0.12710214115905427 0.05166461766116123
v 0.05232976649869445 0.12114190570387098 0.05839421057603312
v 0.10434097469081399 -0.026414856400744615 0.05010574503267114
v 0.10486201847409928 -0.023357758388601386 0.054512325646890555
v 0.10791252457743908 0.0488106053350945 0.025374608987995064
v 0.014866105482960235 0.13928826361235547 0.05120572755533743
v 0.024701862266662638 0.1369019975798473 0.05126413047562045
v 0.02665948856734291 0.13327721762897973 0.056881516621295786
v 0.10610947919357856 -0.023297297577199366 0.03719697064816067
v 0.10131914834701519 -0.0418517682410054 0.04674358284374831
v 0.10528059945782611 -0.030423099589316587 0.03594066306719468
v 0.10031954252227286 -0.043173637845619686 0.0534601032729351
v 0.024937418034027194 0.13112777005377177 0.06283155918176123
v 0.1040422147926846 -0.03058394377461469 0.043277178459419946
v 0.05756214680602814 0.12278144768493998 0.04815144987410102
v 0.051764826529163165 0.11657609739398697 0.07289195303873286
v 0.06165287027512426 0.11294975724448358 0.061121240464337735
v 0.05961516200889294 0.11264231038857256 0.06698568153059753
v 0.05202436600268785 0.1182972540925493 0.06541753134315736
v 0.060962475203000084 0.11569048719394984 0.05640469260335696
v 0.07193034897177293 -0.10069478458116428 0.060606976276345835
v 0.09077521838080377 -0.0754683970741747 0.04924492864416455
v 0.09172789846949196 -0.06627273667071495 0.05672660583503703
v 0.10626125991374392 -0.016318587564479736 0.05450111393836783
v 0.10513912960554062 -0.02457354982280104 0.06108351992201877
v 0.09694048029895468 0.0675947739270364 0.05043545304037982
v 0.10776396497184036 0.013828250256844508 0.0529020228657672
v 0.1066117584954146 0.028664643597088722 0.04687595730299526
v 0.10749687370453276 0.02201126663351095 0.04149982756003359
v 0.10657631881215232 0.030365023568890277 0.04076021721037485
v 0.08978632863822593 0.08131633045460884 0.05576756545403495
v 0.07043837859562509 0.10616123643430432 0.05915268610109037
v 0.0668909393271453 0.11042446698879856 0.05674833002809531
v 0.08078584806000119 -0.10378214681551846 0.04811861132222502
v 0.08208188654508644 -0.08167291987604632 0.07043176417770088
v 0.09892172297575619 -0.048550029578954566 0.052238051554308024
v 0.057664847827674164 0.12494255306877985 0.044730766270205516
v 0.1072692648942528 -0.0033501919308877126 0.045539860327496115
v 0.10812954537133043 0.013866284305732317 0.03804405292584162
v 0.10513535763578588 0.03882251471082333 0.04055373389199969
v 0.10885708954424107 0.0053525993975068655 0.03375083821737703
v 0.09442899387963839 -0.0673680865146319 0.04648179462063554
v 0.10009202206846232 0.05804961764046002 0.04926555908863311
v 0.10556261601140383 0.06050069577641142 0.029115670476134472
v 0.0742909242005144 0.10457437183981295 0.05399726910901909
f 1 2 3
f 4 5 6
f 7 8 9
f 10 11 12
f 13 14 15
f 16 17 18
f 19 20 21
f 22 23 24
f 25 26 27
f 28 29 30
f 31 32 33
f 34 35 36
f 37 38 39
f 32 40 41
f 42 43 44
f 45 46 47
f 48 49 50
f 38 51 47
f 52 14 53
f 54 34 27
f 55 56 57
f 44 58 59
f 60 61 62
f 51 38 37
f 63 64 65
f 66 67 68
f 69 66 70
f 71 72 73
f 74 66 69
f 63 75 76
f 77 78 79
f 70 80 81
f 82 80 83
f 52 71 15
f 14 52 15
f 84 85 86
f 82 87 16
f 88 15 79
f 7 89 90
f 79 71 77
f 70 81 91
f 92 71 73
f 44 59 93
f 56 94 57
f 82 95 87
f 96 97 98
f 99 67 66
f 100 97 281
f 508 101 511
f 102 103 104
f 100 281 427
f 105 73 106
f 107 108 109
f 110 111 112
f 97 282 281
f 113 107 114
f 115 116 117
f 118 110 119
f 26 120 121
f 122 123 124
f 125 118 126
f 40 127 41
f 128 45 82
f 129 130 113
f 131 132 133
f 95 82 83
f 134 83 80
f 20 135 136
f 68 80 70
f 80 82 81
f 128 82 16
f 14 13 137
f 138 87 95
f 139 140 10
f 141 52 53
f 66 74 99
f 142 143 144
f 137 53 14
f 145 146 147
f 11 142 137
f 19 11 148
f 147 149 43
f 150 144 143
f 88 124 13
f 12 139 10
f 13 124 123
f 131 139 132
f 151 150 152
f 85 87 138
f 38 47 34
f 153 154 155
f 156 157 158
f 149 159 43
f 160 161 296
f 32 50 40
f 58 162 61
f 161 158 157
f 149 147 146
f 104 163 60
f 164 280 165
f 166 167 164
f 102 104 60
f 168 169 170
f 159 162 44
f 17 87 85
f 169 171 172
f 173 155 154
f 174 171 175
f 176 177 178
f 60 58 61
f 172 171 179
f 180 24 1
f 98 100 2
f 181 182 183
f 184 185 186
f 101 125 126
f 142 11 19
f 187 188 189
f 97 96 190
f 182 191 183
f 192 127 49
f 10 148 11
f 140 193 194
f 49 195 192
f 49 48 196
f 33 32 41
f 42 44 197
f 198 50 32
f 31 33 199
f 127 40 49
f 12 11 137
f 49 184 195
f 7 25 89
f 200 201 169
f 13 123 12
f 155 173 193
f 202 203 204
f 122 139 123
f 13 12 137
f 205 206 207
f 113 114 208
f 88 13 15
f 153 209 210
f 12 123 139
f 139 131 140
f 169 191 200
f 211 109 108
f 212 213 180
f 44 162 58
f 214 215 216
f 214 216 115
f 217 206 202
f 218 215 219
f 110 118 125
f 220 114 107
f 145 133 146
f 221 167 222
f 223 224 72
f 67 134 68
f 30 225 226
f 280 164 227
f 47 91 45
f 84 86 119
f 297 157 356
f 75 69 76
f 157 297 161
f 225 222 167
f 116 177 228
f 176 229 230
f 231 230 232
f 160 158 161
f 287 232 160
f 230 160 232
f 296 287 160
f 161 297 296
f 157 156 226
f 86 85 138
f 233 117 116
f 225 199 222
f 234 235 231
f 197 153 42
f 4 136 135
f 165 157 166
f 139 122 132
f 142 53 137
f 20 19 148
f 19 21 142
f 111 110 236
f 84 110 237
f 126 511 101
f 110 125 236
f 190 508 282
f 236 125 101
f 98 23 96
f 190 236 101
f 2 100 427
f 97 100 98
f 3 2 427
f 2 1 24
f 110 84 119
f 84 237 90
f 44 43 159
f 147 43 42
f 155 42 153
f 131 145 140
f 145 131 133
f 155 147 42
f 225 166 226
f 31 225 238
f 164 167 221
f 225 167 166
f 227 164 221
f 280 356 165
f 225 31 199
f 32 31 238
f 80 68 134
f 66 68 70
f 59 239 93
f 240 205 207
f 241 21 6
f 242 143 5
f 508 190 101
f 282 97 190
f 154 210 217
f 145 147 155
f 157 165 356
f 166 164 165
f 44 93 197
f 153 197 93
f 243 135 20
f 148 10 194
f 210 154 153
f 154 244 173
f 245 209 93
f 206 205 203
f 246 244 243
f 145 193 140
f 140 194 10
f 194 246 20
f 148 194 20
f 194 173 246
f 173 244 246
f 243 244 202
f 155 193 145
f 194 193 173
f 46 18 247
f 237 112 7
f 129 208 240
f 130 248 107
f 249 187 250
f 219 214 251
f 252 253 254
f 229 178 28
f 99 74 152
f 255 223 141
f 63 65 75
f 71 92 256
f 26 9 257
f 22 8 23
f 234 233 228
f 28 156 229
f 230 231 235
f 160 230 158
f 223 258 75
f 151 74 255
f 24 180 213
f 2 24 98
f 229 156 158
f 226 156 28
f 230 229 158
f 229 176 178
f 226 28 30
f 157 226 166
f 128 16 18
f 45 128 46
f 39 38 36
f 82 45 81
f 94 56 259
f 91 81 45
f 47 46 34
f 47 51 91
f 34 247 27
f 54 35 34
f 63 91 51
f 63 76 91
f 36 38 34
f 37 39 260
f 260 261 37
f 259 37 261
f 51 37 64
f 56 55 65
f 106 65 55
f 224 65 73
f 69 70 76
f 91 76 70
f 6 5 143
f 136 6 21
f 236 190 96
f 112 111 262
f 262 111 96
f 236 96 111
f 23 8 262
f 110 112 237
f 8 112 262
f 120 257 212
f 29 28 178
f 238 225 30
f 163 239 59
f 263 264 265
f 93 239 245
f 264 263 245
f 264 245 239
f 245 266 209
f 150 143 242
f 241 143 142
f 152 150 242
f 144 150 267
f 141 144 267
f 53 142 144
f 21 241 142
f 6 143 241
f 243 202 204
f 217 202 244
f 135 243 204
f 246 243 20
f 154 217 244
f 217 210 206
f 209 207 210
f 129 207 266
f 206 203 202
f 207 206 210
f 6 136 4
f 21 20 136
f 27 26 121
f 268 7 9
f 54 27 121
f 34 46 247
f 46 128 18
f 25 27 247
f 16 87 17
f 25 247 18
f 129 113 208
f 107 113 130
f 248 265 269
f 218 220 109
f 215 218 109
f 215 270 271
f 249 271 187
f 272 273 249
f 117 251 115
f 177 116 254
f 249 273 216
f 254 116 273
f 178 177 274
f 176 235 177
f 253 198 238
f 254 272 252
f 53 144 141
f 52 72 71
f 255 141 267
f 72 52 141
f 73 72 224
f 77 71 256
f 151 255 267
f 74 69 258
f 106 73 65
f 92 73 105
f 213 212 257
f 24 213 22
f 235 234 228
f 230 235 176
f 150 151 267
f 152 74 151
f 51 64 63
f 64 37 259
f 65 64 56
f 56 64 259
f 72 141 223
f 75 65 224
f 255 74 258
f 75 224 223
f 18 89 25
f 89 17 90
f 90 17 85
f 18 17 89
f 84 90 85
f 7 90 237
f 209 153 93
f 207 209 266
f 207 129 240
f 129 266 263
f 264 163 275
f 108 269 170
f 175 171 104
f 275 269 265
f 215 214 219
f 115 216 273
f 276 187 271
f 185 184 182
f 200 188 276
f 277 188 200
f 214 115 251
f 116 115 273
f 249 216 271
f 272 249 250
f 272 250 252
f 273 272 254
f 48 252 250
f 198 252 50
f 274 177 254
f 30 29 238
f 274 29 178
f 253 238 29
f 254 253 274
f 29 274 253
f 116 228 233
f 235 228 177
f 238 198 32
f 252 198 253
f 88 79 78
f 15 71 79
f 75 258 69
f 255 258 223
f 265 248 130
f 108 248 269
f 263 265 130
f 275 265 264
f 129 263 130
f 263 266 245
f 211 108 201
f 248 108 107
f 276 211 201
f 270 215 109
f 264 239 163
f 170 275 168
f 59 58 60
f 168 275 163
f 102 60 62
f 59 60 163
f 215 271 216
f 276 271 270
f 211 276 270
f 276 201 200
f 201 170 169
f 183 191 278
f 277 196 189
f 187 276 188
f 169 168 171
f 191 172 278
f 107 109 220
f 109 211 270
f 175 104 103
f 163 104 168
f 108 170 201
f 170 269 275
f 104 171 168
f 179 171 174
f 96 23 262
f 24 23 98
f 9 8 22
f 112 8 7
f 9 22 213
f 268 26 25
f 7 268 25
f 9 26 268
f 26 257 120
f 213 257 9
f 196 48 189
f 196 277 184
f 252 48 50
f 189 48 250
f 187 189 250
f 277 189 188
f 191 182 277
f 195 184 186
f 50 49 40
f 184 49 196
f 200 191 277
f 191 169 172
f 185 182 181
f 277 182 184
f 227 279 280
f 281 282 283
f 284 285 286
f 287 288 289
f 290 291 292
f 293 294 295
f 296 297 298
f 284 286 299
f 294 300 301
f 291 290 302
f 303 290 304
f 305 301 300
f 306 307 308
f 290 303 302
f 279 299 309
f 310 311 312
f 313 304 314
f 315 316 306
f 288 291 289
f 293 300 294
f 301 317 318
f 319 320 321
f 322 311 323
f 324 295 325
f 326 295 327
f 328 329 330
f 309 331 279
f 308 311 332
f 333 329 334
f 327 286 285
f 335 336 337
f 338 334 339
f 338 340 334
f 325 341 342
f 343 342 344
f 345 346 347
f 348 336 349
f 350 351 352
f 299 320 309
f 329 353 334
f 320 299 286
f 308 312 311
f 330 329 354
f 284 299 279
f 347 340 338
f 331 355 356
f 296 288 287
f 357 358 359
f 331 356 280
f 360 357 361
f 362 363 364
f 290 292 365
f 355 297 356
f 366 367 368
f 369 370 371
f 372 290 365
f 313 344 373
f 374 371 375
f 302 289 291
f 376 377 378
f 379 380 381
f 382 383 384
f 315 317 301
f 380 385 381
f 386 387 388
f 389 390 388
f 304 313 391
f 392 393 394
f 373 395 396
f 295 341 325
f 317 315 397
f 351 361 398
f 360 358 357
f 354 323 399
f 347 338 400
f 401 402 403
f 404 405 403
f 406 407 408
f 359 358 409
f 352 410 332
f 392 394 411
f 410 352 412
f 413 393 414
f 315 305 415
f 416 342 343
f 417 373 381
f 394 418 411
f 313 373 396
f 419 420 421
f 422 423 424
f 425 426 427
f 421 420 428
f 429 430 431
f 419 421 432
f 433 434 435
f 288 296 298
f 292 291 288
f 436 437 435
f 438 439 440
f 290 372 314
f 355 319 365
f 439 367 366
f 441 442 416
f 439 437 440
f 443 444 445
f 446 447 428
f 366 448 439
f 393 392 414
f 449 450 451
f 452 345 347
f 453 454 455
f 456 457 449
f 336 411 349
f 366 458 448
f 459 460 461
f 462 452 413
f 326 293 295
f 463 464 465
f 466 467 468
f 379 342 469
f 318 469 301
f 470 467 466
f 320 471 321
f 467 472 473
f 414 335 462
f 474 475 449
f 326 327 285
f 433 476 434
f 477 434 478
f 479 480 453
f 433 435 481
f 482 483 484
f 447 477 428
f 485 450 368
f 486 384 383
f 487 433 481
f 488 489 490
f 491 492 382
f 378 493 494
f 456 475 495
f 496 497 498
f 474 489 475
f 499 500 369
f 428 478 421
f 459 501 502
f 432 503 504
f 505 492 364
f 506 449 451
f 281 425 427
f 341 294 301
f 320 327 471
f 3 427 426
f 283 282 423
f 391 303 304
f 391 313 396
f 507 283 422
f 341 469 342
f 282 508 423
f 509 510 504
f 499 369 371
f 426 443 445
f 336 392 411
f 424 511 430
f 512 513 514
f 515 512 516
f 290 314 304
f 283 507 517
f 286 327 320
f 518 519 470
f 519 518 520
f 443 466 444
f 510 419 432
f 294 341 295
f 521 522 405
f 381 373 344
f 435 447 523
f 426 425 524
f 524 425 283
f 283 425 281
f 426 524 443
f 426 445 3
f 525 524 517
f 443 524 525
f 525 526 470
f 444 466 468
f 424 423 508
f 283 423 422
f 511 424 508
f 424 430 429
f 301 469 341
f 469 318 379
f 344 313 343
f 441 313 314
f 335 527 462
f 392 336 335
f 346 345 528
f 400 452 347
f 413 452 400
f 529 462 527
f 529 452 462
f 530 528 404
f 327 324 471
f 416 325 342
f 279 331 280
f 355 331 309
f 319 355 309
f 298 355 292
f 355 298 297
f 292 288 298
f 507 422 531
f 526 525 517
f 515 518 470
f 489 488 475
f 443 525 466
f 466 525 470
f 335 414 392
f 413 414 462
f 529 527 532
f 452 529 345
f 295 324 327
f 324 325 416
f 321 471 442
f 442 471 324
f 343 313 441
f 416 442 324
f 321 442 372
f 314 372 442
f 320 319 309
f 365 319 321
f 372 365 321
f 355 365 292
f 283 517 524
f 526 517 507
f 516 518 515
f 470 519 467
f 472 519 533
f 473 468 467
f 513 534 514
f 535 536 499
f 515 470 526
f 520 518 516
f 531 526 507
f 429 512 531
f 516 537 520
f 533 465 488
f 531 512 515
f 431 513 512
f 516 514 537
f 520 538 463
f 536 537 534
f 520 537 535
f 531 515 526
f 429 531 422
f 534 500 536
f 536 500 499
f 429 422 424
f 512 429 431
f 380 317 539
f 539 410 385
f 322 354 540
f 407 358 541
f 528 532 404
f 529 532 345
f 542 543 522
f 401 405 543
f 486 476 384
f 460 544 458
f 483 545 479
f 546 547 548
f 377 491 493
f 375 378 549
f 370 376 375
f 535 550 551
f 305 315 301
f 539 317 397
f 415 316 315
f 316 552 306
f 410 539 397
f 380 539 385
f 332 410 397
f 412 352 351
f 388 381 385
f 317 380 318
f 395 417 390
f 379 381 344
f 332 397 308
f 352 332 322
f 397 315 306
f 312 308 307
f 387 553 389
f 410 412 385
f 307 306 552
f 397 306 308
f 540 350 352
f 412 398 386
f 360 351 541
f 398 412 351
f 360 541 358
f 361 357 553
f 408 541 350
f 409 402 359
f 361 553 387
f 351 360 361
f 406 554 407
f 530 403 409
f 406 346 528
f 409 554 530
f 358 407 409
f 409 407 554
f 447 435 477
f 481 448 487
f 490 473 555
f 538 464 463
f 459 457 501
f 461 450 457
f 496 556 455
f 484 557 482
f 446 428 420
f 478 428 477
f 558 548 478
f 547 503 548
f 486 548 558
f 547 482 557
f 411 509 559
f 478 548 503
f 547 546 482
f 547 557 503
f 363 482 546
f 480 545 362
f 503 557 504
f 478 503 421
f 559 504 557
f 504 559 509
f 333 346 406
f 347 346 340
f 442 441 314
f 343 441 416
f 537 514 534
f 512 514 516
f 388 390 417
f 386 388 385
f 412 386 385
f 361 387 398
f 354 399 330
f 333 406 408
f 541 408 407
f 333 408 560
f 329 333 560
f 333 340 346
f 329 560 354
f 353 329 328
f 540 354 560
f 354 322 323
f 350 540 560
f 322 540 352
f 408 350 560
f 351 350 541
f 339 334 353
f 333 334 340
f 409 403 402
f 403 530 404
f 532 498 521
f 335 337 527
f 556 348 349
f 521 498 497
f 405 401 403
f 405 404 521
f 528 530 554
f 521 404 532
f 498 532 527
f 522 521 497
f 522 497 542
f 543 405 522
f 382 492 505
f 493 382 384
f 383 505 363
f 546 548 486
f 486 558 476
f 546 486 383
f 363 362 545
f 383 363 546
f 493 378 377
f 378 494 549
f 382 493 491
f 493 384 561
f 375 371 370
f 499 371 374
f 378 375 376
f 460 459 549
f 550 499 374
f 538 520 535
f 373 417 395
f 388 417 381
f 379 344 342
f 380 379 318
f 323 311 310
f 332 311 322
f 478 434 558
f 435 434 477
f 523 436 435
f 436 562 437
f 487 458 544
f 487 561 476
f 434 476 558
f 487 476 433
f 501 456 563
f 449 457 450
f 479 453 455
f 545 483 482
f 556 484 483
f 559 484 349
f 479 545 480
f 363 545 482
f 503 432 421
f 510 432 504
f 484 559 557
f 411 559 349
f 411 418 509
f 510 509 418
f 388 387 389
f 398 387 386
f 484 556 349
f 483 479 455
f 336 348 337
f 496 498 348
f 527 337 498
f 498 337 348
f 406 528 554
f 532 528 345
f 363 505 364
f 382 505 383
f 494 493 544
f 544 493 561
f 461 458 366
f 456 501 457
f 374 563 550
f 563 464 551
f 536 535 537
f 550 535 499
f 440 437 562
f 481 435 437
f 448 481 439
f 458 487 448
f 476 561 384
f 544 561 487
f 542 455 454
f 455 556 483
f 542 454 543
f 496 542 497
f 460 549 494
f 502 549 459
f 544 460 494
f 461 460 458
f 450 461 366
f 457 459 461
f 563 374 501
f 375 502 374
f 556 496 348
f 542 496 455
f 502 375 549
f 501 374 502
f 439 481 437
f 367 439 438
f 368 450 366
f 451 450 485
f 474 449 506
f 456 449 475
f 463 533 519
f 555 488 490
f 519 472 467
f 555 472 533
f 520 463 519
f 551 464 538
f 563 495 464
f 495 488 465
f 535 551 538
f 563 551 550
f 456 495 563
f 488 495 475
f 472 555 473
f 488 555 533
f 463 465 533
f 495 465 464
