# https://github.com/mikedh/trimesh
v 0.04150020 -0.01563367 0.00574773
v 0.04150020 -0.01628220 0.00290632
v 0.04150020 0.00300000 -0.00000000
v 0.04150020 -0.01650000 0.00000000
v 0.04150020 -0.01628220 -0.00290632
v 0.04150020 -0.01129451 0.01326337
v 0.04150020 -0.01311166 0.01098474
v 0.04150020 -0.01456889 0.00846073
v 0.04150020 -0.00412415 0.01815204
v 0.04150020 -0.00675000 0.01688750
v 0.04150020 -0.00915805 0.01524571
v 0.04150020 0.00445724 0.01944547
v 0.04150020 0.00154276 0.01944547
v 0.04150020 -0.00133916 0.01901110
v 0.04150020 0.01275000 0.01688750
v 0.04150020 0.01012415 0.01815204
v 0.04150020 0.00733916 0.01901110
v 0.04150020 0.01911166 0.01098474
v 0.04150020 0.01729451 0.01326337
v 0.04150020 0.01515805 0.01524571
v 0.04150020 0.02228220 0.00290632
v 0.04150020 0.02163367 0.00574773
v 0.04150020 0.02056889 0.00846073
v 0.04150020 0.02163367 -0.00574773
v 0.04150020 0.02228220 -0.00290632
v 0.04150020 0.02250000 -0.00000000
v 0.04150020 0.01729451 -0.01326337
v 0.04150020 0.01911166 -0.01098474
v 0.04150020 0.02056889 -0.00846073
v 0.04150020 0.01012415 -0.01815204
v 0.04150020 0.01275000 -0.01688750
v 0.04150020 0.01515805 -0.01524571
v 0.04150020 0.00154276 -0.01944547
v 0.04150020 0.00445724 -0.01944547
v 0.04150020 0.00733916 -0.01901110
v 0.04150020 -0.00675000 -0.01688750
v 0.04150020 -0.00412415 -0.01815204
v 0.04150020 -0.00133916 -0.01901110
v 0.04150020 -0.01311166 -0.01098474
v 0.04150020 -0.01129451 -0.01326337
v 0.04150020 -0.00915805 -0.01524571
v 0.04150020 -0.01563367 -0.00574773
v 0.04150020 -0.01456889 -0.00846073
f 1 2 3
f 3 8 1
f 3 7 8
f 6 7 3
f 3 11 6
f 3 10 11
f 9 10 3
f 3 14 9
f 3 13 14
f 12 13 3
f 3 17 12
f 3 16 17
f 15 16 3
f 3 20 15
f 3 19 20
f 18 19 3
f 3 23 18
f 3 22 23
f 21 22 3
f 3 26 21
f 3 25 26
f 24 25 3
f 3 29 24
f 3 28 29
f 27 28 3
f 3 32 27
f 3 31 32
f 30 31 3
f 3 35 30
f 3 34 35
f 33 34 3
f 3 38 33
f 3 37 38
f 36 37 3
f 3 41 36
f 3 40 41
f 39 40 3
f 3 43 39
f 3 42 43
f 5 42 3
f 3 4 5
f 3 2 4

