# https://github.com/mikedh/trimesh
v 0.01810831 -0.00144091 0.00219971
v 0.01810828 -0.00144087 -0.00000029
v 0.01964390 -0.00117971 0.00219969
v 0.01964387 -0.00117966 -0.00000031
v 0.02114075 -0.00161063 0.00219966
v 0.02114072 -0.00161059 -0.00000034
v 0.02230240 -0.00264834 0.00219962
v 0.02230236 -0.00264830 -0.00000038
v 0.02289876 -0.00408731 0.00219959
v 0.02289872 -0.00408727 -0.00000041
v 0.02281172 -0.00564252 0.00219956
v 0.02281168 -0.00564248 -0.00000044
v 0.02205851 -0.00700595 0.00219955
v 0.02205848 -0.00700591 -0.00000045
v 0.02078833 -0.00790756 0.00219955
v 0.02078830 -0.00790752 -0.00000045
v 0.01925274 -0.00816877 0.00219957
v 0.01925271 -0.00816873 -0.00000043
v 0.01775589 -0.00773784 0.00219960
v 0.01775586 -0.00773780 -0.00000040
v 0.01659424 -0.00670013 0.00219963
v 0.01659421 -0.00670009 -0.00000037
v 0.01599788 -0.00526117 0.00219967
v 0.01599785 -0.00526112 -0.00000033
v 0.01608493 -0.00370595 0.00219970
v 0.01608489 -0.00370591 -0.00000030
v 0.01683813 -0.00234252 0.00219971
v 0.01683810 -0.00234248 -0.00000029
f 1 2 3
f 1 28 2
f 27 28 1
f 27 26 28
f 25 26 27
f 25 24 26
f 23 24 25
f 23 22 24
f 21 22 23
f 21 20 22
f 19 20 21
f 19 18 20
f 17 18 19
f 17 16 18
f 15 16 17
f 15 14 16
f 13 14 15
f 13 12 14
f 11 12 13
f 11 10 12
f 9 10 11
f 9 8 10
f 7 8 9
f 7 6 8
f 5 6 7
f 5 4 6
f 3 4 5
f 3 2 4

