# https://github.com/mikedh/trimesh
v -0.02229523 0.02631886 0.01050082
v -0.02615584 0.02248778 0.01050080
v -0.02941936 0.01801141 0.01050077
v -0.02545380 0.01558235 0.01050066
v -0.02936640 0.01809759 0.01050077
v -0.01127159 0.02718855 0.01050067
v -0.01122800 0.02586626 0.01050065
v -0.01175743 0.02465380 0.01050063
v -0.01275691 0.02378697 0.01050063
v -0.01601748 0.02172639 0.01050064
v -0.01895117 0.01922223 0.01050064
v -0.02149810 0.01632559 0.01050062
v -0.02263392 0.01541471 0.01050062
v -0.02406483 0.01514586 0.01050063
f 6 7 1
f 1 7 8
f 1 8 9
f 9 10 1
f 1 10 11
f 1 11 2
f 2 11 12
f 2 12 13
f 14 2 13
f 4 2 14
f 4 5 2
f 3 5 4

