# https://github.com/mikedh/trimesh
v -0.00703156 -0.02732520 0.00949959
v -0.00686726 -0.02863797 0.00949956
v 0.02716823 0.00346832 0.00949967
v 0.02656923 0.00479534 0.00949970
v 0.01993557 0.01877318 0.00950006
v 0.01867096 0.01949468 0.00950009
v -0.02149811 0.01632561 0.00950062
v 0.01127188 -0.02720691 0.00949933
v 0.01122829 -0.02588462 0.00949935
v 0.02402360 -0.01316482 0.00949940
v 0.02431901 -0.01173916 0.00949943
v 0.02573970 -0.00816239 0.00949947
v 0.02663742 -0.00441997 0.00949953
v 0.02699394 -0.00058793 0.00949960
v 0.00774484 0.02619242 0.00950038
v 0.00703184 0.02730686 0.00950041
v 0.00886789 0.02549305 0.00950035
v 0.01570132 0.02195610 0.00950018
v -0.01175744 0.02465381 0.00950063
v -0.01122801 0.02586628 0.00950065
v -0.01127160 0.02718857 0.00950067
v -0.01601750 0.02172641 0.00950064
v 0.02166345 0.01675086 0.00950000
v 0.02184993 0.01819482 0.00950002
v 0.02139093 0.01873203 0.00950004
v 0.02561622 0.00852407 0.00949979
v 0.02414276 0.01207942 0.00949987
v 0.02217877 0.01538916 0.00949996
v 0.02737743 0.00081661 0.00949962
v 0.01895146 -0.01924058 0.00949936
v 0.02149840 -0.01634395 0.00949938
v 0.02263421 -0.01543307 0.00949938
v 0.02443420 -0.01456167 0.00949937
v 0.02406512 -0.01516421 0.00949937
v 0.01175772 -0.02467216 0.00949937
v 0.01275721 -0.02380533 0.00949937
v 0.01601778 -0.02174475 0.00949936
v -0.01570104 -0.02197444 0.00949982
v -0.01241097 -0.02398759 0.00949973
v -0.00886761 -0.02551139 0.00949965
v -0.00774456 -0.02621076 0.00949962
v -0.02716795 -0.00348666 0.00950033
v -0.02166317 -0.01676920 0.00950000
v -0.02656895 -0.00481369 0.00950030
v -0.02139065 -0.01875037 0.00949996
v -0.02184965 -0.01821316 0.00949998
v -0.02414248 -0.01209776 0.00950013
v -0.02217848 -0.01540750 0.00950004
v -0.02263393 0.01541473 0.00950062
v -0.02737715 -0.00083495 0.00950038
v -0.02699366 0.00056959 0.00950040
v -0.02663714 0.00440163 0.00950047
v -0.02573942 0.00814405 0.00950053
v -0.02402332 0.01314648 0.00950060
v -0.02431873 0.01172082 0.00950057
v -0.00685365 0.02753711 0.00950062
v 0.02576375 -0.00014468 0.00949962
v 0.02302161 -0.01157609 0.00949945
v -0.01597747 -0.01794105 0.00949990
v -0.01867068 -0.01951303 0.00949991
v 0.00846088 -0.01192408 0.00949965
v 0.00754648 -0.01390856 0.00949963
v 0.00727484 -0.01379698 0.00949964
v 0.01394515 0.01093875 0.00950000
v 0.01303075 0.00895427 0.00949998
v 0.01273806 0.00897807 0.00949998
v 0.00387268 0.01862262 0.00950029
v 0.00395805 0.02080596 0.00950033
v 0.00947581 0.01930165 0.00950022
v -0.01196069 -0.00318464 0.00950012
v -0.00905685 -0.00424837 0.00950005
v -0.01332123 -0.00885645 0.00950003
v -0.00740495 -0.00672963 0.00949998
v -0.00509507 -0.00861375 0.00949991
v -0.00233246 -0.00973331 0.00949985
v 0.00184844 -0.01249531 0.00949974
v -0.00725491 0.00687299 0.00950023
v -0.00896115 0.00442877 0.00950021
v -0.00921855 0.00824678 0.00950029
v -0.00987113 0.00159022 0.00950017
v -0.00990400 -0.00139044 0.00950012
v -0.00490404 0.00870570 0.00950023
v -0.00785801 0.01391859 0.00950038
v -0.00211741 0.00976406 0.00950021
v 0.00085738 0.00995402 0.00950017
v 0.00731165 0.01027974 0.00950009
v 0.00375600 0.00925871 0.00950012
v 0.00355066 -0.00935764 0.00949977
v 0.00614843 -0.00789578 0.00949976
v 0.00863538 -0.00812516 0.00949972
v 0.00819990 -0.00573316 0.00949977
v 0.00952278 -0.00306194 0.00949980
v 0.00999953 -0.00011946 0.00949985
v 0.01137752 0.00330625 0.00949990
v 0.00958780 0.00283281 0.00949991
v 0.00832416 0.00553256 0.00949998
v 0.00632089 0.00773990 0.00950005
v -0.00710373 0.01905179 0.00950046
v -0.00634707 0.01700198 0.00950041
v -0.00486357 0.01539776 0.00950036
v -0.00287910 0.01448336 0.00950031
v -0.00069575 0.01439799 0.00950028
v 0.00135406 0.01515465 0.00950026
v 0.00295828 0.01663814 0.00950027
v -0.00999732 0.01443177 0.00950042
v -0.00701836 0.02123513 0.00950050
v -0.00783317 0.02345368 0.00950055
v -0.00610396 0.02321961 0.00950052
v -0.00454759 0.02771905 0.00950058
v 0.00686754 0.02861963 0.00950043
v -0.00244993 0.02545976 0.00950051
v -0.00026658 0.02537440 0.00950048
v 0.00171789 0.02446000 0.00950043
v 0.01294538 0.00677093 0.00949994
v 0.01370205 0.00472112 0.00949989
v 0.01518554 0.00311690 0.00949984
v 0.01717002 0.00220250 0.00949979
v 0.01935336 0.00211713 0.00949976
v 0.02140317 0.00287379 0.00949974
v 0.01978253 0.01309354 0.00949996
v 0.01759919 0.01317891 0.00949999
v 0.01490221 0.01799998 0.00950012
v 0.01554937 0.01242224 0.00950001
v 0.02176701 0.01217914 0.00949991
v 0.02325050 0.01057492 0.00949986
v 0.02400716 0.00852510 0.00949981
v 0.02392179 0.00634176 0.00949977
v 0.02300739 0.00435728 0.00949975
v 0.00746111 -0.01609190 0.00949959
v 0.00679564 -0.01677177 0.00949959
v 0.00765813 -0.01778930 0.00949956
v 0.00821777 -0.01814172 0.00949954
v 0.00799427 -0.01908014 0.00949953
v 0.00799774 -0.01907986 0.00949953
v 0.00865520 -0.02741335 0.00949936
v 0.01006510 -0.01044059 0.00949966
v 0.00063741 -0.00998884 0.00949980
v 0.00970126 -0.01974594 0.00949949
v 0.01168574 -0.02066034 0.00949944
v 0.01386908 -0.02074570 0.00949941
v 0.01591890 -0.01998904 0.00949939
v 0.01752312 -0.01850555 0.00949940
v 0.01843752 -0.01652107 0.00949942
v 0.01852288 -0.01433773 0.00949946
v 0.01776622 -0.01228791 0.00949951
v 0.01628273 -0.01068369 0.00949956
v 0.01429825 -0.00976929 0.00949961
v 0.01211491 -0.00968393 0.00949964
v -0.01337348 -0.01228974 0.00949997
v -0.01497770 -0.01377323 0.00949996
v -0.01132367 -0.01153308 0.00949995
v -0.00490808 -0.02009805 0.00949970
v -0.00425063 -0.02843153 0.00949953
v 0.00132142 -0.01675713 0.00949967
v -0.00164177 -0.01673183 0.00949971
v -0.00490461 -0.02009777 0.00949970
v -0.00477505 -0.01877019 0.00949972
v -0.00500106 -0.01837022 0.00949973
v -0.00408279 -0.01763000 0.00949973
v -0.00491570 -0.01618688 0.00949977
v -0.00296468 -0.01690261 0.00949973
v -0.00567236 -0.01413706 0.00949982
v -0.00715585 -0.01253284 0.00949987
v -0.00914033 -0.01161844 0.00949992
v -0.01522081 -0.01999087 0.00949985
v -0.01373732 -0.02159509 0.00949980
v -0.01175284 -0.02250949 0.00949975
v -0.00956950 -0.02259485 0.00949972
v -0.00751968 -0.02183819 0.00949970
v -0.00591546 -0.02035470 0.00949971
v 0.00320139 0.02285578 0.00950038
v 0.01241125 0.02396925 0.00950027
v -0.00449974 0.02470310 0.00950053
v -0.01895118 0.01922224 0.00950064
v -0.01275692 0.02378699 0.00950063
v -0.01135786 0.00875995 0.00950033
v -0.02075440 -0.00078949 0.00950029
v -0.01410000 -0.00267146 0.00950016
v -0.01857106 -0.00087486 0.00950025
v -0.01652125 -0.00011819 0.00950024
v -0.02489367 0.00596229 0.00950047
v -0.02497903 0.00377895 0.00950043
v -0.01491703 0.00136530 0.00950024
v -0.01400263 0.00334978 0.00950027
v -0.01814189 0.01010155 0.00950045
v -0.02032523 0.01018692 0.00950049
v -0.02237505 0.00943026 0.00950050
v -0.01391726 0.00553312 0.00950031
v -0.01467392 0.00758293 0.00950036
v -0.01615741 0.00918715 0.00950041
v -0.02422238 0.00172913 0.00950039
v -0.02273888 0.00012491 0.00950033
v -0.02397927 0.00794677 0.00950050
v -0.01993528 -0.01879152 0.00949994
v -0.01546054 -0.00834328 0.00950007
v -0.01589210 -0.01575771 0.00949994
v -0.02561595 -0.00854241 0.00950021
v 0.00557731 -0.01622872 0.00949962
v 0.00424398 -0.01626750 0.00949963
v 0.01724230 0.00594878 0.01299986
v 0.01703113 0.00612432 0.01679987
v 0.01798653 0.00560581 0.01679984
v 0.01703107 0.00612439 0.01299987
v 0.01668599 0.00655036 0.01299988
v 0.01646297 0.00705107 0.01679989
v 0.01646292 0.00705114 0.01299989
v 0.01640224 0.00731904 0.01299990
v 0.01643431 0.00813773 0.01679991
v 0.01643425 0.00813780 0.01299991
v 0.01677715 0.00888198 0.01299992
v 0.01695282 0.00909314 0.01679992
v 0.01695276 0.00909321 0.01299992
v 0.01737873 0.00943829 0.01299992
v 0.01787956 0.00966129 0.01679992
v 0.01787951 0.00966136 0.01299992
v 0.01814742 0.00972204 0.01299992
v 0.01896623 0.00968995 0.01679990
v 0.01896617 0.00969002 0.01299990
v 0.01971035 0.00934712 0.01299989
v 0.01992163 0.00917144 0.01679988
v 0.01992158 0.00917151 0.01299988
v 0.02026666 0.00874554 0.01299987
v 0.02048979 0.00824470 0.01679986
v 0.02048973 0.00824477 0.01299985
v 0.02055041 0.00797686 0.01299985
v 0.02051845 0.00715803 0.01679984
v 0.02051839 0.00715811 0.01299983
v 0.02017549 0.00641393 0.01299983
v 0.01999994 0.00620263 0.01679982
v 0.01999989 0.00620270 0.01299982
v 0.01957391 0.00585762 0.01299982
v 0.01907319 0.00563447 0.01679983
v 0.01907314 0.00563454 0.01299983
v 0.01880523 0.00557387 0.01299983
v 0.01798648 0.00560588 0.01299984
v -0.00280681 0.01822964 0.01300038
v -0.00301799 0.01840518 0.01680039
v -0.00206258 0.01788667 0.01680036
v -0.00301804 0.01840525 0.01300039
v -0.00336312 0.01883122 0.01300040
v -0.00358614 0.01933192 0.01680041
v -0.00358620 0.01933200 0.01300041
v -0.00364687 0.01959990 0.01300042
v -0.00361480 0.02041859 0.01680044
v -0.00361486 0.02041866 0.01300043
v -0.00327196 0.02116284 0.01300044
v -0.00309630 0.02137399 0.01680044
v -0.00309635 0.02137407 0.01300044
v -0.00267038 0.02171915 0.01300044
v -0.00216955 0.02194215 0.01680044
v -0.00216960 0.02194222 0.01300044
v -0.00190170 0.02200289 0.01300044
v -0.00108289 0.02197081 0.01680043
v -0.00108294 0.02197088 0.01300043
v -0.00033876 0.02162798 0.01300041
v -0.00012748 0.02145230 0.01680040
v -0.00012753 0.02145237 0.01300040
v 0.00021755 0.02102640 0.01300039
v 0.00044067 0.02052556 0.01680038
v 0.00044062 0.02052563 0.01300038
v 0.00050129 0.02025772 0.01300037
v 0.00046934 0.01943889 0.01680036
v 0.00046928 0.01943897 0.01300036
v 0.00012638 0.01869479 0.01300035
v -0.00004917 0.01848349 0.01680035
v -0.00004923 0.01848356 0.01300035
v -0.00047520 0.01813848 0.01300035
v -0.00097592 0.01791533 0.01680035
v -0.00097597 0.01791541 0.01300035
v -0.00124388 0.01785473 0.01300035
v -0.00206263 0.01788674 0.01300036
v -0.02068212 0.00295680 0.01300036
v -0.02089330 0.00313233 0.01680036
v -0.01993789 0.00261383 0.01680034
v -0.02089335 0.00313241 0.01300036
v -0.02123843 0.00355838 0.01300038
v -0.02146145 0.00405908 0.01680039
v -0.02146150 0.00405915 0.01300039
v -0.02152218 0.00432706 0.01300039
v -0.02149011 0.00514574 0.01680041
v -0.02149017 0.00514581 0.01300041
v -0.02114727 0.00588999 0.01300042
v -0.02097160 0.00610115 0.01680042
v -0.02097166 0.00610122 0.01300042
v -0.02054568 0.00644630 0.01300042
v -0.02004486 0.00666930 0.01680042
v -0.02004491 0.00666937 0.01300042
v -0.01977700 0.00673005 0.01300041
v -0.01895819 0.00669797 0.01680040
v -0.01895825 0.00669804 0.01300040
v -0.01821407 0.00635514 0.01300038
v -0.01800279 0.00617946 0.01680038
v -0.01800284 0.00617953 0.01300038
v -0.01765776 0.00575356 0.01300037
v -0.01743463 0.00525271 0.01680035
v -0.01743469 0.00525278 0.01300035
v -0.01737401 0.00498487 0.01300035
v -0.01740597 0.00416605 0.01680033
v -0.01740603 0.00416612 0.01300033
v -0.01774893 0.00342194 0.01300032
v -0.01792448 0.00321064 0.01680032
v -0.01792453 0.00321071 0.01300032
v -0.01835051 0.00286563 0.01300032
v -0.01885123 0.00264249 0.01680033
v -0.01885128 0.00264256 0.01300032
v -0.01911919 0.00258188 0.01300033
v -0.01993794 0.00261390 0.01300034
v -0.01168056 -0.01876320 0.01299982
v -0.01189173 -0.01858766 0.01679983
v -0.01093632 -0.01910617 0.01679980
v -0.01189179 -0.01858759 0.01299983
v -0.01223687 -0.01816162 0.01299984
v -0.01245988 -0.01766092 0.01679985
v -0.01245994 -0.01766085 0.01299985
v -0.01252061 -0.01739294 0.01299986
v -0.01248855 -0.01657425 0.01679987
v -0.01248860 -0.01657418 0.01299987
v -0.01214570 -0.01583000 0.01299988
v -0.01197004 -0.01561885 0.01679988
v -0.01197009 -0.01561878 0.01299988
v -0.01154412 -0.01527369 0.01299988
v -0.01104329 -0.01505069 0.01679988
v -0.01104335 -0.01505062 0.01299988
v -0.01077544 -0.01498995 0.01299988
v -0.00995663 -0.01502203 0.01679987
v -0.00995669 -0.01502196 0.01299986
v -0.00921251 -0.01536486 0.01299985
v -0.00900122 -0.01554054 0.01679984
v -0.00900128 -0.01554047 0.01299984
v -0.00865620 -0.01596644 0.01299983
v -0.00843307 -0.01646728 0.01679981
v -0.00843312 -0.01646721 0.01299981
v -0.00837245 -0.01673512 0.01299981
v -0.00840441 -0.01755395 0.01679979
v -0.00840446 -0.01755388 0.01299979
v -0.00874736 -0.01829805 0.01299979
v -0.00892291 -0.01850935 0.01679979
v -0.00892297 -0.01850928 0.01299978
v -0.00934894 -0.01885436 0.01299978
v -0.00984966 -0.01907751 0.01679979
v -0.00984972 -0.01907744 0.01299979
v -0.01011762 -0.01913811 0.01299979
v -0.01093638 -0.01910610 0.01299980
v 0.01175802 -0.01691405 0.01299951
v 0.01154685 -0.01673851 0.01679952
v 0.01250226 -0.01725702 0.01679949
v 0.01154680 -0.01673844 0.01299952
v 0.01120171 -0.01631247 0.01299953
v 0.01097870 -0.01581177 0.01679954
v 0.01097864 -0.01581170 0.01299954
v 0.01091797 -0.01554379 0.01299955
v 0.01095003 -0.01472510 0.01679957
v 0.01094998 -0.01472503 0.01299957
v 0.01129288 -0.01398086 0.01299957
v 0.01146854 -0.01376970 0.01679958
v 0.01146849 -0.01376963 0.01299958
v 0.01189446 -0.01342455 0.01299958
v 0.01239529 -0.01320154 0.01679957
v 0.01239523 -0.01320147 0.01299957
v 0.01266314 -0.01314080 0.01299957
v 0.01348195 -0.01317288 0.01679956
v 0.01348190 -0.01317281 0.01299956
v 0.01422607 -0.01351571 0.01299954
v 0.01443736 -0.01369139 0.01679953
v 0.01443730 -0.01369132 0.01299953
v 0.01478238 -0.01411729 0.01299952
v 0.01500551 -0.01461814 0.01679951
v 0.01500546 -0.01461806 0.01299951
v 0.01506613 -0.01488597 0.01299950
v 0.01503418 -0.01570480 0.01679949
v 0.01503412 -0.01570473 0.01299949
v 0.01469122 -0.01644891 0.01299948
v 0.01451567 -0.01666021 0.01679948
v 0.01451561 -0.01666014 0.01299948
v 0.01408964 -0.01700521 0.01299948
v 0.01358892 -0.01722836 0.01679948
v 0.01358886 -0.01722829 0.01299948
v 0.01332096 -0.01728896 0.01299948
v 0.01250220 -0.01725695 0.01299949
f 20 21 56
f 56 107 20
f 56 108 107
f 106 107 108
f 108 246 106
f 108 248 246
f 249 248 108
f 173 249 108
f 173 251 249
f 249 251 250
f 250 251 252
f 250 252 253
f 252 254 253
f 253 254 255
f 112 255 254
f 112 254 111
f 111 109 112
f 112 109 16
f 109 110 16
f 112 16 113
f 113 16 171
f 171 16 15
f 171 15 68
f 68 15 17
f 68 17 69
f 69 17 172
f 69 172 18
f 69 18 122
f 66 69 122
f 66 122 64
f 64 122 123
f 123 213 64
f 213 212 64
f 64 212 210
f 64 210 65
f 65 210 209
f 65 209 114
f 94 65 114
f 94 114 115
f 115 116 94
f 94 116 117
f 116 200 117
f 117 200 235
f 117 235 118
f 118 235 234
f 118 234 233
f 118 233 119
f 119 233 231
f 231 233 232
f 229 231 232
f 229 230 231
f 228 230 229
f 226 228 229
f 226 227 228
f 127 228 227
f 127 227 126
f 227 225 126
f 126 225 224
f 223 224 225
f 222 224 223
f 220 222 223
f 220 221 222
f 222 221 124
f 124 221 219
f 124 219 120
f 120 219 218
f 120 218 121
f 120 121 122
f 120 122 23
f 23 122 5
f 23 5 24
f 24 5 25
f 122 6 5
f 218 216 121
f 121 216 215
f 214 215 216
f 214 216 217
f 213 215 214
f 211 213 214
f 121 215 123
f 216 218 217
f 217 218 219
f 217 219 220
f 120 23 124
f 124 23 28
f 124 28 125
f 125 28 27
f 125 27 126
f 126 27 26
f 125 222 124
f 219 221 220
f 125 224 222
f 223 225 226
f 126 224 125
f 126 26 127
f 127 26 4
f 127 4 128
f 57 128 4
f 57 4 29
f 29 4 3
f 29 14 57
f 13 57 14
f 58 57 13
f 58 94 57
f 90 94 58
f 58 147 90
f 90 147 148
f 147 362 148
f 147 363 362
f 146 363 147
f 146 365 363
f 363 365 364
f 361 363 364
f 364 365 366
f 364 366 367
f 366 368 367
f 367 368 369
f 144 369 368
f 371 369 144
f 143 371 144
f 143 372 371
f 142 372 143
f 31 142 143
f 31 143 58
f 32 31 58
f 32 58 34
f 34 58 33
f 10 33 58
f 58 11 10
f 58 12 11
f 30 142 31
f 30 141 142
f 37 141 30
f 37 140 141
f 140 377 141
f 141 377 375
f 375 377 376
f 373 375 376
f 373 374 375
f 372 374 373
f 370 372 373
f 375 374 142
f 376 377 378
f 376 378 346
f 346 378 379
f 140 379 378
f 139 379 140
f 139 344 379
f 138 344 139
f 35 138 139
f 35 139 36
f 132 138 35
f 132 348 138
f 348 347 138
f 345 347 348
f 345 348 349
f 348 350 349
f 349 350 351
f 349 351 352
f 351 353 352
f 353 351 129
f 62 353 129
f 62 129 130
f 130 129 131
f 131 129 132
f 129 350 132
f 131 132 133
f 133 132 134
f 62 130 63
f 63 130 198
f 63 198 76
f 76 198 199
f 76 199 154
f 76 154 155
f 163 76 155
f 164 76 163
f 164 72 76
f 151 72 164
f 164 326 151
f 164 327 326
f 325 326 327
f 325 327 328
f 327 329 328
f 163 329 327
f 330 329 163
f 162 330 163
f 161 162 163
f 161 160 162
f 159 160 161
f 159 158 160
f 157 158 159
f 157 152 158
f 156 152 157
f 152 170 158
f 170 336 158
f 158 336 335
f 334 335 336
f 334 336 337
f 336 338 337
f 337 338 339
f 339 338 170
f 169 339 170
f 169 341 339
f 168 341 169
f 168 342 341
f 168 343 342
f 310 342 343
f 310 343 308
f 167 308 343
f 166 308 167
f 39 166 167
f 39 167 40
f 40 167 168
f 40 168 41
f 38 166 39
f 38 165 166
f 165 312 166
f 312 311 166
f 309 311 312
f 309 312 313
f 312 314 313
f 313 314 315
f 59 315 314
f 59 314 165
f 317 315 59
f 315 317 316
f 316 317 318
f 316 318 319
f 318 320 319
f 150 320 318
f 150 318 196
f 195 150 196
f 195 72 150
f 149 150 72
f 149 321 150
f 149 323 321
f 321 323 322
f 319 321 322
f 322 323 324
f 322 324 325
f 151 324 323
f 151 323 149
f 178 72 195
f 178 70 72
f 70 71 72
f 72 71 73
f 73 74 72
f 72 74 75
f 70 81 71
f 70 80 81
f 79 80 70
f 176 79 70
f 105 79 176
f 105 83 79
f 82 79 83
f 77 79 82
f 77 78 79
f 82 83 84
f 84 83 85
f 85 83 86
f 85 86 87
f 86 97 87
f 86 96 97
f 66 96 86
f 66 95 96
f 94 95 66
f 94 93 95
f 92 93 94
f 83 101 86
f 83 100 101
f 99 100 83
f 99 240 100
f 240 239 100
f 237 239 240
f 236 239 237
f 236 237 238
f 238 271 236
f 101 236 271
f 101 271 102
f 102 271 270
f 102 270 269
f 102 269 103
f 103 269 267
f 267 269 268
f 265 267 268
f 265 266 267
f 264 266 265
f 104 266 264
f 104 264 67
f 67 264 263
f 67 263 68
f 263 261 68
f 68 261 260
f 259 260 261
f 259 261 262
f 258 260 259
f 256 258 259
f 256 257 258
f 258 257 113
f 113 257 255
f 255 257 256
f 171 260 258
f 261 263 262
f 262 263 264
f 67 69 104
f 86 104 69
f 103 104 86
f 262 264 265
f 267 266 104
f 103 267 104
f 86 102 103
f 268 269 270
f 268 270 238
f 238 270 271
f 237 240 241
f 240 242 241
f 241 242 243
f 241 243 244
f 243 245 244
f 244 245 246
f 244 246 247
f 245 243 98
f 106 245 98
f 98 105 106
f 98 243 242
f 98 242 99
f 100 239 236
f 99 242 240
f 83 98 99
f 100 236 101
f 86 101 102
f 98 83 105
f 176 49 105
f 105 49 7
f 105 7 174
f 174 22 105
f 105 22 175
f 105 175 107
f 107 175 19
f 54 49 176
f 54 176 185
f 185 186 54
f 185 290 186
f 185 291 290
f 289 290 291
f 289 291 292
f 291 293 292
f 190 293 291
f 294 293 190
f 189 294 190
f 176 189 190
f 176 188 189
f 184 188 176
f 184 299 188
f 299 297 188
f 188 297 296
f 295 296 297
f 295 297 298
f 294 296 295
f 292 294 295
f 297 299 298
f 298 299 300
f 298 300 301
f 300 302 301
f 183 302 300
f 183 300 184
f 178 183 184
f 180 183 178
f 180 303 183
f 180 305 303
f 179 305 180
f 179 306 305
f 179 307 306
f 274 306 307
f 274 307 272
f 272 273 274
f 272 275 273
f 273 275 276
f 273 276 277
f 276 278 277
f 191 278 276
f 191 276 192
f 50 191 192
f 50 192 177
f 50 177 178
f 178 177 179
f 42 50 178
f 42 178 44
f 192 272 177
f 51 191 50
f 51 182 191
f 52 182 51
f 181 182 52
f 181 52 193
f 193 282 181
f 193 284 282
f 282 284 283
f 283 284 285
f 283 285 286
f 285 287 286
f 187 287 285
f 187 285 193
f 193 53 187
f 187 53 55
f 187 55 54
f 186 287 187
f 186 288 287
f 286 287 288
f 286 288 289
f 280 282 283
f 280 281 282
f 279 281 280
f 281 279 182
f 182 279 278
f 277 279 280
f 285 284 193
f 181 282 281
f 193 52 53
f 181 281 182
f 182 278 191
f 277 278 279
f 276 275 192
f 192 275 272
f 177 272 307
f 304 306 274
f 177 307 179
f 304 305 306
f 303 305 304
f 301 303 304
f 178 179 180
f 303 302 183
f 301 302 303
f 184 300 299
f 178 184 176
f 188 296 189
f 189 296 294
f 292 293 294
f 288 290 289
f 190 291 185
f 290 288 186
f 54 186 187
f 185 176 190
f 79 78 80
f 176 70 178
f 44 178 195
f 44 195 197
f 197 195 47
f 195 48 47
f 195 43 48
f 194 43 195
f 194 46 43
f 45 46 194
f 194 195 60
f 60 195 196
f 60 196 59
f 59 38 60
f 321 320 150
f 319 320 321
f 196 318 317
f 196 317 59
f 313 315 316
f 308 311 309
f 165 314 312
f 59 165 38
f 166 311 308
f 308 309 310
f 340 342 310
f 167 343 168
f 340 341 342
f 41 168 169
f 41 169 152
f 41 152 1
f 1 152 153
f 1 153 2
f 339 341 340
f 337 339 340
f 333 335 334
f 335 333 160
f 160 333 332
f 331 332 333
f 330 332 331
f 328 330 331
f 331 333 334
f 170 338 336
f 152 169 170
f 158 335 160
f 160 332 162
f 162 332 330
f 328 329 330
f 324 326 325
f 326 324 151
f 149 72 151
f 72 75 76
f 137 76 75
f 88 76 137
f 163 327 164
f 163 155 161
f 88 63 76
f 90 63 88
f 88 89 90
f 90 89 91
f 91 92 90
f 90 61 63
f 136 61 90
f 136 357 61
f 357 356 61
f 61 356 354
f 61 354 62
f 354 356 355
f 352 354 355
f 355 356 357
f 355 357 358
f 357 359 358
f 358 359 360
f 358 360 361
f 360 362 361
f 148 360 359
f 148 359 136
f 136 359 357
f 61 62 63
f 62 354 353
f 352 353 354
f 129 351 350
f 344 347 345
f 344 345 346
f 132 350 348
f 134 132 35
f 134 35 135
f 135 35 9
f 135 9 8
f 138 347 344
f 36 139 140
f 346 379 344
f 140 378 377
f 36 140 37
f 141 375 142
f 142 374 372
f 370 371 372
f 58 143 144
f 58 144 145
f 145 146 58
f 145 366 146
f 369 371 370
f 144 368 145
f 367 369 370
f 145 368 366
f 366 365 146
f 361 362 363
f 362 360 148
f 90 148 136
f 58 146 147
f 90 92 94
f 13 12 58
f 119 128 57
f 128 228 127
f 225 227 226
f 128 230 228
f 231 230 128
f 119 231 128
f 57 118 119
f 232 233 234
f 232 234 202
f 202 234 235
f 57 117 118
f 202 235 200
f 200 201 202
f 200 203 201
f 201 203 204
f 204 203 116
f 201 204 205
f 204 206 205
f 115 206 204
f 205 206 207
f 205 207 208
f 207 209 208
f 114 207 206
f 116 203 200
f 94 117 57
f 115 204 116
f 114 206 115
f 66 65 94
f 209 207 114
f 208 209 210
f 208 210 211
f 210 212 211
f 211 212 213
f 123 215 213
f 122 121 123
f 64 65 66
f 86 69 66
f 122 18 6
f 67 68 69
f 68 260 171
f 171 258 113
f 111 173 109
f 113 255 112
f 253 255 256
f 254 252 111
f 111 252 251
f 247 249 250
f 111 251 173
f 109 173 108
f 247 248 249
f 246 248 247
f 106 246 245
f 106 105 107
f 109 108 56
f 107 19 20

