# https://github.com/mikedh/trimesh
v -0.01951656 0.00040644 0.01750029
v -0.01863473 0.00048443 0.01750028
v -0.01863471 0.00048440 0.01900028
v -0.01981898 0.00888966 0.01750045
v -0.01981896 0.00888964 0.01900046
v -0.01819725 0.00871766 0.01750043
v -0.01772015 0.00853877 0.01900042
v -0.01772017 0.00853880 0.01750042
v -0.01647356 0.00769151 0.01750038
v -0.01605451 0.00721449 0.01900037
v -0.01605453 0.00721452 0.01750037
v -0.01541254 0.00598906 0.01750034
v -0.01523957 0.00524880 0.01900032
v -0.01523960 0.00524882 0.01750032
v -0.01525059 0.00398959 0.01750030
v -0.01547966 0.00313445 0.01900028
v -0.01547968 0.00313448 0.01750029
v -0.01602376 0.00213856 0.01750027
v -0.01671456 0.00140151 0.01900027
v -0.01671458 0.00140154 0.01750027
v -0.01755983 0.00084837 0.01750027
v -0.02075877 0.00061306 0.01750031
v -0.02075875 0.00061303 0.01900031
v -0.02145802 0.00091123 0.01750033
v -0.02255420 0.00175515 0.01900036
v -0.02255422 0.00175518 0.01750036
v -0.02295169 0.00225029 0.01750038
v -0.02357096 0.00362445 0.01900041
v -0.02357098 0.00362448 0.01750041
v -0.02366478 0.00412528 0.01750042
v -0.02355414 0.00575231 0.01900045
v -0.02355416 0.00575234 0.01750045
v -0.02392427 0.00573609 0.01900046
v -0.01995155 0.01149392 0.01900051
v -0.01970597 0.00947462 0.01900047
v -0.02110742 0.01316780 0.01900055
v -0.02290878 0.01411279 0.01900060
v -0.02494296 0.01411240 0.01900063
v -0.02674396 0.01316673 0.01900064
v -0.02789919 0.01149241 0.01900062
v -0.02814400 0.00947301 0.01900059
v -0.02742230 0.00757115 0.01900054
v -0.02589944 0.00622253 0.01900049
v -0.01862331 0.00608499 0.01700038
v -0.01944835 0.00630589 0.01700040
v -0.01999619 0.00836561 0.01700045
v -0.02042697 0.00757252 0.01700044
v -0.02027331 0.00608468 0.01700041
v -0.02194932 0.00622332 0.01700044
v -0.02087714 0.00548062 0.01700041
v -0.02109804 0.00465558 0.01700039
v -0.01834441 0.00823982 0.01700042
v -0.01682351 0.00733439 0.01700038
v -0.01801925 0.00548116 0.01700037
v -0.01588732 0.00583222 0.01700034
v -0.01779804 0.00465621 0.01700035
v -0.01574441 0.00406799 0.01700031
v -0.01801894 0.00383116 0.01700033
v -0.01642662 0.00243473 0.01700029
v -0.01862277 0.00322711 0.01700033
v -0.01778197 0.00129632 0.01700028
v -0.01944772 0.00300589 0.01700034
v -0.01950850 0.00090638 0.01700030
v -0.02027277 0.00322679 0.01700036
v -0.02122156 0.00135179 0.01700033
v -0.02087682 0.00383062 0.01700038
v -0.02253950 0.00253331 0.01700038
v -0.02316870 0.00418771 0.01700042
v -0.02300738 0.00583640 0.01700044
v -0.02494293 0.01411237 0.02100063
v -0.02392586 0.01423606 0.02100061
v -0.02290875 0.01411275 0.02100060
v -0.02110739 0.01316776 0.02100055
v -0.01995152 0.01149388 0.02100051
v -0.01970594 0.00947458 0.02100047
v -0.02042691 0.00757245 0.02100044
v -0.02194926 0.00622325 0.02100044
v -0.02392424 0.00573606 0.02100046
v -0.02589941 0.00622249 0.02100049
v -0.02742228 0.00757112 0.02100054
v -0.02814397 0.00947297 0.02100059
v -0.02789916 0.01149237 0.02100062
v -0.02674393 0.01316669 0.02100064
f 1 2 3
f 1 3 22
f 22 3 23
f 22 23 24
f 24 23 25
f 24 25 26
f 67 24 26
f 65 24 67
f 66 65 67
f 66 67 51
f 51 67 68
f 51 68 49
f 49 68 69
f 49 69 32
f 32 69 30
f 30 31 32
f 30 28 31
f 29 28 30
f 27 28 29
f 29 67 27
f 27 25 28
f 30 68 29
f 32 31 49
f 49 31 77
f 49 77 47
f 47 77 76
f 47 76 5
f 5 46 47
f 4 46 5
f 4 5 6
f 4 6 52
f 52 46 4
f 46 52 44
f 44 45 46
f 46 45 47
f 47 45 48
f 47 48 49
f 49 48 50
f 44 52 53
f 44 53 54
f 54 53 55
f 54 55 56
f 56 55 57
f 55 14 57
f 55 12 14
f 11 12 55
f 11 10 12
f 9 10 11
f 9 7 10
f 8 7 9
f 6 7 8
f 8 9 53
f 53 9 11
f 12 10 13
f 12 13 14
f 14 13 15
f 15 13 16
f 15 16 17
f 17 16 18
f 18 16 19
f 18 19 20
f 18 20 61
f 61 20 21
f 61 21 63
f 62 61 63
f 60 61 62
f 60 59 61
f 58 59 60
f 58 57 59
f 57 17 59
f 62 63 64
f 64 63 65
f 63 1 65
f 21 2 63
f 19 2 21
f 59 18 61
f 19 21 20
f 59 17 18
f 57 15 17
f 14 15 57
f 56 57 58
f 53 11 55
f 52 8 53
f 52 6 8
f 6 5 7
f 5 76 35
f 76 75 35
f 35 75 34
f 34 75 74
f 34 74 36
f 36 74 73
f 36 73 37
f 73 72 37
f 37 72 71
f 37 71 38
f 38 71 70
f 38 70 39
f 39 70 83
f 39 83 40
f 40 83 82
f 40 82 41
f 41 82 81
f 41 81 42
f 42 81 80
f 42 80 43
f 43 80 79
f 43 79 33
f 33 79 78
f 33 78 31
f 31 78 77
f 30 69 68
f 49 50 51
f 29 68 67
f 64 65 66
f 27 67 26
f 26 25 27
f 65 22 24
f 1 22 65
f 63 2 1
f 3 2 19

