# https://github.com/mikedh/trimesh
v 0.00723827 -0.00549425 0.04644021
v 0.00723833 -0.00601293 0.04399978
v 0.00723820 -0.00549416 0.04155937
v 0.00723715 0.00061413 0.04996704
v 0.00723762 -0.00186714 0.04970620
v 0.00723789 -0.00402763 0.03954095
v 0.00723802 -0.00402780 0.04845869
v 0.00723746 -0.00186693 0.03829352
v 0.00723698 0.00061435 0.03803277
v 0.00723669 0.00298697 0.04919610
v 0.00723631 0.00484110 0.04752670
v 0.00723609 0.00585593 0.04524747
v 0.00723605 0.00585598 0.04275253
v 0.00723621 0.00484124 0.04047327
v 0.00723654 0.00298717 0.03880380
v 0.01203833 -0.00601202 0.04399971
v 0.01203827 -0.00549334 0.04644014
v 0.01203802 -0.00402688 0.04845862
v 0.01203762 -0.00186623 0.04970613
v 0.01203716 0.00061504 0.04996696
v 0.01203669 0.00298788 0.04919603
v 0.01203631 0.00484202 0.04752663
v 0.01203609 0.00585684 0.04524740
v 0.01203605 0.00585689 0.04275246
v 0.01203621 0.00484215 0.04047320
v 0.01203654 0.00298808 0.03880373
v 0.01203698 0.00061526 0.03803270
v 0.01203746 -0.00186601 0.03829345
v 0.01203789 -0.00402672 0.03954088
v 0.01203820 -0.00549324 0.04155930
f 16 2 17
f 16 3 2
f 30 3 16
f 30 6 3
f 29 6 30
f 29 8 6
f 28 8 29
f 28 9 8
f 27 9 28
f 27 15 9
f 26 15 27
f 26 14 15
f 25 14 26
f 25 13 14
f 24 13 25
f 24 12 13
f 23 12 24
f 23 11 12
f 22 11 23
f 22 10 11
f 21 10 22
f 21 4 10
f 20 4 21
f 20 5 4
f 19 5 20
f 19 7 5
f 18 7 19
f 18 1 7
f 17 1 18
f 17 2 1

