# https://github.com/mikedh/trimesh
v 0.01765997 0.00424443 0.01679982
v 0.01766000 0.00424439 0.01899982
v 0.01921752 0.00422725 0.01679980
v 0.01921755 0.00422721 0.01899980
v 0.02062828 0.00488757 0.01679979
v 0.02062831 0.00488753 0.01899979
v 0.02161283 0.00609460 0.01679980
v 0.02161286 0.00609456 0.01899980
v 0.02197617 0.00760928 0.01679982
v 0.02197620 0.00760924 0.01899982
v 0.02164633 0.00913160 0.01679986
v 0.02164636 0.00913156 0.01899986
v 0.02068864 0.01036006 0.01679989
v 0.02068867 0.01036002 0.01899989
v 0.01929279 0.01105133 0.01679992
v 0.01929282 0.01105129 0.01899992
v 0.01773524 0.01106851 0.01679995
v 0.01773527 0.01106847 0.01899995
v 0.01632448 0.01040819 0.01679996
v 0.01632451 0.01040815 0.01899996
v 0.01533993 0.00920116 0.01679995
v 0.01533996 0.00920112 0.01899995
v 0.01497659 0.00768648 0.01679992
v 0.01497662 0.00768644 0.01899992
v 0.01530643 0.00616416 0.01679989
v 0.01530646 0.00616412 0.01899989
v 0.01626412 0.00493571 0.01679986
v 0.01626415 0.00493566 0.01899986
f 1 2 3
f 1 28 2
f 27 28 1
f 27 26 28
f 25 26 27
f 25 24 26
f 23 24 25
f 23 22 24
f 21 22 23
f 21 20 22
f 19 20 21
f 19 18 20
f 17 18 19
f 17 16 18
f 15 16 17
f 15 14 16
f 13 14 15
f 13 12 14
f 11 12 13
f 11 10 12
f 9 10 11
f 9 8 10
f 7 8 9
f 7 6 8
f 5 6 7
f 5 4 6
f 3 4 5
f 3 2 4

