# https://github.com/mikedh/trimesh
v -0.00311138 -0.02027282 0.01549967
v -0.00312844 -0.01962599 0.01549968
v -0.00226817 -0.01871911 0.01549968
v -0.00281980 -0.01905730 0.01549968
v -0.00100604 -0.02077784 0.01549963
v -0.00277319 -0.02082445 0.01549965
v -0.00220450 -0.02113309 0.01549964
v -0.00155767 -0.02111603 0.01549963
v -0.00162135 -0.01870205 0.01549967
v -0.00105265 -0.01901069 0.01549966
v -0.00071446 -0.01956232 0.01549964
v -0.00069740 -0.02020914 0.01549963
v -0.00162130 -0.01870212 0.01899968
v -0.00226812 -0.01871918 0.01899968
v -0.00105260 -0.01901075 0.01899966
v -0.00071441 -0.01956239 0.01899965
v -0.00069735 -0.02020921 0.01899963
v -0.00100599 -0.02077791 0.01899963
v -0.00311133 -0.02027288 0.01899967
v -0.00312839 -0.01962606 0.01899968
v -0.00281975 -0.01905736 0.01899968
v -0.00155762 -0.02111609 0.01899963
v -0.00220445 -0.02113315 0.01899964
v -0.00277314 -0.02082452 0.01899965
f 23 7 24
f 24 7 6
f 24 6 19
f 19 6 1
f 19 1 20
f 20 1 2
f 20 2 21
f 21 2 4
f 21 4 14
f 14 4 3
f 14 3 13
f 13 3 9
f 13 9 15
f 15 9 10
f 15 10 16
f 16 10 11
f 16 11 17
f 17 11 12
f 17 12 18
f 18 12 5
f 18 5 22
f 22 5 8
f 22 8 23
f 23 8 7

