# https://github.com/mikedh/trimesh
v 0.01136498 -0.01128881 0.01899962
v 0.00972678 -0.01249471 0.01899962
v 0.01669356 -0.01312646 0.01899951
v 0.01529899 -0.01164555 0.01899956
v 0.01299133 -0.01096499 0.01899961
v 0.01337595 -0.01098236 0.01899960
v 0.01724017 -0.01508582 0.01899947
v 0.01681362 -0.01707478 0.01899944
v 0.01551160 -0.01863768 0.01899943
v 0.01363241 -0.01941649 0.01899944
v 0.01160654 -0.01923278 0.01899947
v 0.00889845 -0.01635703 0.01899957
v 0.00989809 -0.01812865 0.01899952
v 0.00883663 -0.01432379 0.01899960
v 0.01442121 -0.01603968 0.01699949
v 0.01381738 -0.01664374 0.01699949
v 0.01299242 -0.01686496 0.01699949
v 0.01216738 -0.01664405 0.01699951
v 0.01156332 -0.01604023 0.01699953
v 0.01134211 -0.01521527 0.01699955
v 0.01156301 -0.01439023 0.01699956
v 0.01216683 -0.01378617 0.01699957
v 0.01299179 -0.01356496 0.01699956
v 0.01381683 -0.01378586 0.01699954
v 0.01442089 -0.01438968 0.01699952
v 0.01464211 -0.01521464 0.01699950
v 0.01209398 -0.01157410 0.01699961
v 0.01299139 -0.01146496 0.01699960
v 0.01388885 -0.01157375 0.01699958
v 0.01547828 -0.01240757 0.01699954
v 0.01649817 -0.01388452 0.01699950
v 0.01671485 -0.01566626 0.01699946
v 0.01607870 -0.01734461 0.01699944
v 0.01473545 -0.01853508 0.01699944
v 0.01299282 -0.01896496 0.01699946
v 0.01125003 -0.01853575 0.01699949
v 0.00990632 -0.01734579 0.01699953
v 0.00926954 -0.01566768 0.01699957
v 0.00948554 -0.01388585 0.01699960
v 0.01050486 -0.01240851 0.01699962
v 0.01197424 -0.01108866 0.01749962
v 0.01400842 -0.01108827 0.01749959
v 0.01337593 -0.01098233 0.01749960
v 0.01299130 -0.01096496 0.01749961
v 0.01580978 -0.01203326 0.01749954
v 0.01529897 -0.01164552 0.01749956
v 0.01696565 -0.01370714 0.01749950
v 0.01669353 -0.01312643 0.01749951
v 0.01721122 -0.01572644 0.01749945
v 0.01724015 -0.01508579 0.01749947
v 0.01649026 -0.01762857 0.01749943
v 0.01681359 -0.01707475 0.01749944
v 0.01496790 -0.01897778 0.01749943
v 0.01551158 -0.01863765 0.01749942
v 0.01299292 -0.01946496 0.01749945
v 0.01363239 -0.01941646 0.01749944
v 0.01101776 -0.01897853 0.01749948
v 0.01160652 -0.01923275 0.01749947
v 0.00949489 -0.01762991 0.01749953
v 0.00989807 -0.01812862 0.01749952
v 0.00877320 -0.01572805 0.01749958
v 0.00889843 -0.01635700 0.01749956
v 0.00901801 -0.01370865 0.01749961
v 0.00883661 -0.01432376 0.01749960
v 0.01136496 -0.01128879 0.01749962
v 0.01017324 -0.01203433 0.01749963
v 0.00972676 -0.01249468 0.01749962
f 27 28 23
f 28 27 41
f 41 44 28
f 28 44 43
f 28 43 29
f 29 43 42
f 6 42 43
f 6 43 5
f 4 42 6
f 4 46 42
f 4 45 46
f 3 45 4
f 3 48 45
f 45 48 31
f 31 48 47
f 31 47 32
f 47 50 32
f 7 50 47
f 7 49 50
f 8 49 7
f 8 52 49
f 8 51 52
f 9 51 8
f 9 54 51
f 51 54 34
f 34 54 53
f 34 53 35
f 17 34 35
f 17 35 18
f 18 35 36
f 36 35 55
f 55 58 36
f 36 58 57
f 36 57 37
f 57 60 37
f 37 60 59
f 13 59 60
f 12 59 13
f 12 62 59
f 12 61 62
f 14 61 12
f 14 64 61
f 61 64 39
f 39 64 63
f 39 63 40
f 63 67 40
f 2 67 63
f 2 66 67
f 1 66 2
f 1 65 66
f 41 65 1
f 41 1 5
f 27 66 65
f 40 66 27
f 2 63 14
f 40 67 66
f 22 39 40
f 21 39 22
f 21 38 39
f 20 38 21
f 20 37 38
f 19 37 20
f 22 40 23
f 38 61 39
f 14 63 64
f 38 62 61
f 59 62 38
f 37 59 38
f 13 60 57
f 13 57 11
f 19 36 37
f 11 57 58
f 11 58 55
f 11 55 10
f 10 55 56
f 10 56 53
f 10 53 9
f 35 56 55
f 18 36 19
f 16 34 17
f 16 33 34
f 15 33 16
f 15 32 33
f 26 32 15
f 32 49 33
f 35 53 56
f 33 51 34
f 9 53 54
f 33 52 51
f 49 52 33
f 7 47 3
f 32 50 49
f 26 31 32
f 25 31 26
f 25 30 31
f 24 30 25
f 24 29 30
f 23 29 24
f 30 45 31
f 3 47 48
f 30 46 45
f 42 46 30
f 29 42 30
f 5 43 44
f 5 44 41
f 27 65 41
f 23 40 27
f 23 28 29

