# https://github.com/mikedh/trimesh
v -0.00074736 0.01849982 0.02400036
v -0.00157231 0.01827861 0.02400037
v -0.00074790 0.02135771 0.02400041
v -0.00239736 0.01849951 0.02400038
v -0.00300141 0.01910333 0.02400040
v -0.00322263 0.01992829 0.02400042
v -0.00014353 0.01910388 0.02400036
v 0.00007737 0.01992892 0.02400037
v -0.00014384 0.02075388 0.02400039
v -0.00300173 0.02075333 0.02400043
v -0.00239790 0.02135739 0.02400043
v -0.00157294 0.02157860 0.02400043
v -0.00239800 0.02135752 0.01700043
v -0.00157304 0.02157874 0.01700043
v -0.00074800 0.02135784 0.01700041
v -0.00014395 0.02075401 0.01700039
v 0.00007727 0.01992905 0.01700037
v -0.00014363 0.01910401 0.01700036
v -0.00074746 0.01849995 0.01700036
v -0.00157242 0.01827874 0.01700036
v -0.00239746 0.01849964 0.01700038
v -0.00300152 0.01910347 0.01700040
v -0.00322273 0.01992842 0.01700042
v -0.00300183 0.02075347 0.01700043
f 12 14 3
f 3 14 15
f 3 15 9
f 9 15 16
f 9 16 8
f 8 16 17
f 8 17 7
f 7 17 18
f 7 18 1
f 1 18 19
f 1 19 2
f 2 19 20
f 2 20 4
f 4 20 21
f 4 21 5
f 5 21 22
f 5 22 6
f 6 22 23
f 6 23 10
f 10 23 24
f 10 24 11
f 11 24 13
f 11 13 12
f 12 13 14

