# https://github.com/mikedh/trimesh
v 0.00536674 -0.02056974 0.01549954
v 0.00591837 -0.02023156 0.01549954
v 0.00483916 -0.02320055 0.01549950
v -0.00459428 -0.02407462 0.01549962
v -0.00490800 -0.02009816 0.01549970
v -0.00311138 -0.02027282 0.01549967
v -0.00490453 -0.02009788 0.01549970
v -0.00312844 -0.01962599 0.01549968
v 0.00512666 -0.02396695 0.01549948
v 0.00504216 -0.02396677 0.01549948
v 0.00496528 -0.02393172 0.01549948
v -0.00477497 -0.01877030 0.01549972
v -0.00226817 -0.01871911 0.01549968
v -0.00281980 -0.01905730 0.01549968
v 0.00831155 -0.02305645 0.01549945
v 0.00488544 -0.02378710 0.01549948
v 0.00490973 -0.02386804 0.01549948
v 0.00799436 -0.01908025 0.01549953
v 0.00799783 -0.01907997 0.01549953
v 0.00410461 -0.01851102 0.01549959
v 0.00132151 -0.01675724 0.01549967
v 0.00465624 -0.01817283 0.01549959
v 0.00424407 -0.01626761 0.01549963
v 0.00530307 -0.01815577 0.01549958
v 0.00557739 -0.01622883 0.01549962
v 0.00587176 -0.01846441 0.01549957
v 0.00622701 -0.01966286 0.01549954
v 0.00620995 -0.01901604 0.01549955
v 0.00765822 -0.01778941 0.01549956
v 0.00679573 -0.01677188 0.01549959
v 0.00095293 -0.02057327 0.01549960
v -0.00020069 -0.02124537 0.01549961
v -0.00100604 -0.02077784 0.01549963
v -0.00277319 -0.02082445 0.01549965
v -0.00220450 -0.02113309 0.01549964
v -0.00155767 -0.02111603 0.01549963
v -0.00094845 -0.02235145 0.01549960
v -0.00114225 -0.02367243 0.01549957
v -0.00109598 -0.02425899 0.01549956
v -0.00130602 -0.02447444 0.01549956
v -0.00408270 -0.01763011 0.01549973
v -0.00296459 -0.01690273 0.01549973
v -0.00162135 -0.01870205 0.01549967
v -0.00164168 -0.01673195 0.01549971
v -0.00105265 -0.01901069 0.01549966
v -0.00071446 -0.01956232 0.01549964
v 0.00379597 -0.01907971 0.01549959
v 0.00471992 -0.02058681 0.01549955
v 0.00444061 -0.02192629 0.01549952
v 0.00415122 -0.02027817 0.01549956
v 0.00352866 -0.02095115 0.01549956
v 0.00381303 -0.01972654 0.01549958
v 0.00228392 -0.02046826 0.01549958
v -0.00069740 -0.02020914 0.01549963
v -0.00110728 -0.02434273 0.01549956
v -0.00115215 -0.02441433 0.01549956
v -0.00122259 -0.02446101 0.01549956
f 1 2 3
f 1 3 48
f 48 3 49
f 48 49 50
f 50 49 51
f 50 51 52
f 52 51 53
f 52 53 31
f 46 52 31
f 46 31 54
f 54 31 33
f 31 32 33
f 33 32 36
f 32 37 36
f 36 37 38
f 36 38 4
f 4 35 36
f 4 34 35
f 6 34 4
f 4 5 6
f 6 5 7
f 6 7 8
f 7 14 8
f 7 13 14
f 12 13 7
f 12 41 13
f 13 41 42
f 13 42 43
f 43 42 44
f 43 44 45
f 45 44 21
f 45 21 46
f 46 21 20
f 20 21 22
f 22 21 23
f 22 23 24
f 24 23 25
f 24 25 26
f 30 26 25
f 29 26 30
f 29 28 26
f 18 28 29
f 18 27 28
f 2 27 18
f 46 20 47
f 4 38 39
f 4 39 40
f 39 57 40
f 39 56 57
f 55 56 39
f 47 52 46
f 2 18 3
f 3 18 19
f 3 19 15
f 3 15 16
f 16 15 9
f 16 9 17
f 17 9 11
f 9 10 11

