# https://github.com/mikedh/trimesh
v 0.02938099 -0.02158591 0.02310591
v 0.02889344 -0.02101199 0.02294195
v 0.02938091 -0.02112333 0.02324495
v 0.02889335 -0.02053382 0.02315137
v 0.02938082 -0.02068087 0.02343873
v 0.02889327 -0.02008439 0.02341690
v 0.02938075 -0.02026500 0.02368443
v 0.02889319 -0.01967024 0.02373467
v 0.02938068 -0.01988178 0.02397847
v 0.02889313 -0.01929741 0.02410004
v 0.02938062 -0.01953680 0.02431656
v 0.02889307 -0.01897134 0.02450769
v 0.02938057 -0.01923508 0.02469376
v 0.02889303 -0.01869678 0.02495167
v 0.02938053 -0.01898103 0.02510458
v 0.02889299 -0.01847774 0.02542551
v 0.02938049 -0.01877835 0.02554303
v 0.02889297 -0.01831742 0.02592229
v 0.02938047 -0.01863000 0.02600271
v 0.02889296 -0.01821814 0.02643478
v 0.02938046 -0.01853814 0.02647693
v 0.02889296 -0.01818136 0.02695550
v 0.02938046 -0.01850411 0.02695875
v 0.02889297 -0.01820762 0.02747685
v 0.02938047 -0.01852840 0.02744117
v 0.02889299 -0.01829652 0.02799124
v 0.02938050 -0.01861066 0.02791714
v 0.02889303 -0.01844678 0.02849116
v 0.02938053 -0.01874970 0.02837973
v 0.02889308 -0.01865620 0.02896933
v 0.02938057 -0.01894348 0.02882218
v 0.02889313 -0.01892174 0.02941876
v 0.02938063 -0.01918919 0.02923805
v 0.02889320 -0.01923951 0.02983292
v 0.02938069 -0.01948322 0.02962127
v 0.02889328 -0.01960488 0.03020575
v 0.02938076 -0.01982131 0.02996625
v 0.02889336 -0.02001253 0.03053181
v 0.02938083 -0.02019851 0.03026797
v 0.02889345 -0.02045651 0.03080637
v 0.02938092 -0.02060933 0.03052202
v 0.02889354 -0.02093035 0.03102541
v 0.02938100 -0.02104778 0.03072470
v 0.02889364 -0.02142713 0.03118574
v 0.02938109 -0.02150746 0.03087305
v 0.02889374 -0.02193962 0.03128501
v 0.02938118 -0.02198168 0.03096491
v 0.02889384 -0.02246034 0.03132179
v 0.02938128 -0.02246350 0.03099895
v 0.02889393 -0.02298169 0.03129554
v 0.02938137 -0.02294592 0.03097465
v 0.02889403 -0.02349608 0.03120663
v 0.02938146 -0.02342189 0.03089239
v 0.02889412 -0.02399600 0.03105637
v 0.02938154 -0.02388448 0.03075335
v 0.02889421 -0.02447416 0.03084695
v 0.02938162 -0.02432693 0.03055957
v 0.02889429 -0.02492360 0.03058141
v 0.02938170 -0.02474280 0.03031387
v 0.02889437 -0.02533775 0.03026365
v 0.02938177 -0.02512602 0.03001983
v 0.02889443 -0.02571058 0.02989827
v 0.02938183 -0.02547100 0.02968174
v 0.02889449 -0.02603665 0.02949062
v 0.02938188 -0.02577272 0.02930454
v 0.02889454 -0.02631121 0.02904664
v 0.02938192 -0.02602677 0.02889372
v 0.02889457 -0.02653025 0.02857281
v 0.02938196 -0.02622945 0.02845527
v 0.02889459 -0.02669057 0.02807602
v 0.02938198 -0.02637780 0.02799559
v 0.02889461 -0.02678985 0.02756353
v 0.02938199 -0.02646966 0.02752138
v 0.02889461 -0.02682663 0.02704282
v 0.02938199 -0.02650370 0.02703955
v 0.02889459 -0.02680037 0.02652146
v 0.02938198 -0.02647940 0.02655713
v 0.02889457 -0.02671147 0.02600707
v 0.02938195 -0.02639714 0.02608116
v 0.02889453 -0.02656121 0.02550715
v 0.02938192 -0.02625810 0.02561858
v 0.02889448 -0.02635178 0.02502899
v 0.02938188 -0.02606432 0.02517612
v 0.02889443 -0.02608625 0.02457955
v 0.02938182 -0.02581862 0.02476025
v 0.02889436 -0.02576848 0.02416540
v 0.02938176 -0.02552458 0.02437703
v 0.02889429 -0.02540311 0.02379257
v 0.02938169 -0.02518649 0.02403205
v 0.02889420 -0.02499546 0.02346650
v 0.02938162 -0.02480929 0.02373033
v 0.02889412 -0.02455148 0.02319195
v 0.02938153 -0.02439847 0.02347628
v 0.02889402 -0.02407764 0.02297291
v 0.02938145 -0.02396002 0.02327360
v 0.02889393 -0.02358086 0.02281258
v 0.02938136 -0.02350034 0.02312525
v 0.02889382 -0.02306837 0.02271330
v 0.02938127 -0.02302613 0.02303339
v 0.02889373 -0.02254765 0.02267653
v 0.02938117 -0.02254430 0.02299936
v 0.02889363 -0.02202630 0.02270278
v 0.02938108 -0.02206188 0.02302365
v 0.02889353 -0.02151191 0.02279169
v 0.02837162 -0.02092106 0.02269441
v 0.02837152 -0.02041372 0.02291662
v 0.02837144 -0.01993686 0.02319835
v 0.02837136 -0.01949744 0.02353550
v 0.02837129 -0.01910187 0.02392317
v 0.02837123 -0.01875590 0.02435569
v 0.02837118 -0.01846460 0.02482676
v 0.02837114 -0.01823219 0.02532951
v 0.02837112 -0.01806208 0.02585660
v 0.02837111 -0.01795675 0.02640036
v 0.02837111 -0.01791773 0.02695284
v 0.02837112 -0.01794559 0.02750601
v 0.02837115 -0.01803991 0.02805178
v 0.02837119 -0.01819934 0.02858220
v 0.02837123 -0.01842154 0.02908954
v 0.02837129 -0.01870328 0.02956640
v 0.02837137 -0.01904043 0.03000582
v 0.02837144 -0.01942810 0.03040139
v 0.02837153 -0.01986062 0.03074736
v 0.02837163 -0.02033169 0.03103866
v 0.02837173 -0.02083443 0.03127107
v 0.02837183 -0.02136153 0.03144117
v 0.02837193 -0.02190528 0.03154651
v 0.02837204 -0.02245777 0.03158553
v 0.02837214 -0.02301094 0.03155768
v 0.02837225 -0.02355671 0.03146334
v 0.02837235 -0.02408713 0.03130392
v 0.02837244 -0.02459447 0.03108172
v 0.02837253 -0.02507132 0.03079998
v 0.02837260 -0.02551074 0.03046283
v 0.02837267 -0.02590632 0.03007516
v 0.02837273 -0.02625228 0.02964264
v 0.02837278 -0.02654359 0.02917157
v 0.02837282 -0.02677599 0.02866882
v 0.02837284 -0.02694610 0.02814173
v 0.02837286 -0.02705144 0.02759797
v 0.02837286 -0.02709046 0.02704549
v 0.02837284 -0.02706260 0.02649232
v 0.02837282 -0.02696827 0.02594655
v 0.02837278 -0.02680884 0.02541613
v 0.02837273 -0.02658664 0.02490879
v 0.02837267 -0.02630491 0.02443193
v 0.02837260 -0.02596775 0.02399251
v 0.02837252 -0.02558009 0.02359694
v 0.02837243 -0.02514757 0.02325097
v 0.02837234 -0.02467650 0.02295967
v 0.02837224 -0.02417375 0.02272727
v 0.02837213 -0.02364666 0.02255716
v 0.02837203 -0.02310290 0.02245182
v 0.02837192 -0.02255042 0.02241280
v 0.02837182 -0.02199725 0.02244066
v 0.02837172 -0.02145148 0.02253499
v 0.02782258 -0.02085178 0.02250575
v 0.02782248 -0.02032220 0.02273769
v 0.02782239 -0.01982445 0.02303177
v 0.02782231 -0.01936577 0.02338370
v 0.02782224 -0.01895285 0.02378836
v 0.02782218 -0.01859172 0.02423984
v 0.02782213 -0.01828765 0.02473155
v 0.02782209 -0.01804506 0.02525633
v 0.02782206 -0.01786750 0.02580653
v 0.02782205 -0.01775755 0.02637412
v 0.02782205 -0.01771681 0.02695082
v 0.02782206 -0.01774589 0.02752823
v 0.02782209 -0.01784435 0.02809792
v 0.02782213 -0.01801077 0.02865160
v 0.02782218 -0.01824271 0.02918117
v 0.02782224 -0.01853679 0.02967893
v 0.02782232 -0.01888873 0.03013761
v 0.02782240 -0.01929338 0.03055052
v 0.02782249 -0.01974486 0.03091165
v 0.02782259 -0.02023658 0.03121572
v 0.02782269 -0.02076136 0.03145831
v 0.02782280 -0.02131156 0.03163587
v 0.02782291 -0.02187914 0.03174582
v 0.02782302 -0.02245585 0.03178656
v 0.02782313 -0.02303326 0.03175748
v 0.02782324 -0.02360295 0.03165902
v 0.02782334 -0.02415662 0.03149260
v 0.02782344 -0.02468619 0.03126066
v 0.02782353 -0.02518395 0.03096658
v 0.02782361 -0.02564263 0.03061465
v 0.02782368 -0.02605554 0.03020999
v 0.02782375 -0.02641667 0.02975851
v 0.02782380 -0.02672075 0.02926680
v 0.02782384 -0.02696333 0.02874201
v 0.02782386 -0.02714090 0.02819182
v 0.02782387 -0.02725085 0.02762423
v 0.02782387 -0.02729158 0.02704752
v 0.02782386 -0.02726251 0.02647012
v 0.02782383 -0.02716404 0.02590042
v 0.02782379 -0.02699763 0.02534675
v 0.02782374 -0.02676569 0.02481718
v 0.02782368 -0.02647161 0.02431942
v 0.02782360 -0.02611967 0.02386074
v 0.02782352 -0.02571501 0.02344783
v 0.02782343 -0.02526353 0.02308670
v 0.02782333 -0.02477182 0.02278262
v 0.02782323 -0.02424704 0.02254004
v 0.02782312 -0.02369684 0.02236247
v 0.02782301 -0.02312925 0.02225252
v 0.02782290 -0.02255255 0.02221179
v 0.02782279 -0.02197514 0.02224087
v 0.02782268 -0.02140545 0.02233933
v 0.02725384 -0.02080509 0.02237852
v 0.02725374 -0.02026052 0.02261702
v 0.02725364 -0.01974867 0.02291943
v 0.02725356 -0.01927701 0.02328133
v 0.02725348 -0.01885240 0.02369745
v 0.02725342 -0.01848105 0.02416171
v 0.02725337 -0.01816836 0.02466735
v 0.02725333 -0.01791890 0.02520699
v 0.02725330 -0.01773631 0.02577277
v 0.02725329 -0.01762325 0.02635643
v 0.02725329 -0.01758136 0.02694946
v 0.02725330 -0.01761126 0.02754322
v 0.02725333 -0.01771251 0.02812904
v 0.02725337 -0.01788364 0.02869839
v 0.02725343 -0.01812215 0.02924296
v 0.02725349 -0.01842456 0.02975481
v 0.02725357 -0.01878646 0.03022648
v 0.02725365 -0.01920257 0.03065109
v 0.02725375 -0.01966684 0.03102244
v 0.02725385 -0.02017247 0.03133513
v 0.02725395 -0.02071212 0.03158458
v 0.02725406 -0.02127789 0.03176718
v 0.02725418 -0.02186155 0.03188024
v 0.02725429 -0.02245459 0.03192213
v 0.02725440 -0.02304834 0.03189223
v 0.02725451 -0.02363417 0.03179098
v 0.02725462 -0.02420352 0.03161985
v 0.02725472 -0.02474809 0.03138134
v 0.02725481 -0.02525994 0.03107893
v 0.02725490 -0.02573161 0.03071703
v 0.02725497 -0.02615621 0.03030092
v 0.02725504 -0.02652757 0.02983665
v 0.02725509 -0.02684025 0.02933101
v 0.02725513 -0.02708971 0.02879137
v 0.02725516 -0.02727230 0.02822560
v 0.02725517 -0.02738537 0.02764194
v 0.02725517 -0.02742725 0.02704890
v 0.02725515 -0.02739735 0.02645514
v 0.02725513 -0.02729610 0.02586932
v 0.02725508 -0.02712497 0.02529997
v 0.02725503 -0.02688647 0.02475540
v 0.02725497 -0.02658406 0.02424355
v 0.02725489 -0.02622215 0.02377188
v 0.02725480 -0.02580604 0.02334728
v 0.02725471 -0.02534178 0.02297592
v 0.02725461 -0.02483614 0.02266324
v 0.02725450 -0.02429650 0.02241378
v 0.02725439 -0.02373072 0.02223119
v 0.02725428 -0.02314706 0.02211812
v 0.02725417 -0.02255403 0.02207624
v 0.02725405 -0.02196027 0.02210614
v 0.02725394 -0.02137444 0.02220739
v 0.02667316 -0.02078165 0.02231447
v 0.02667306 -0.02022953 0.02255628
v 0.02667296 -0.01971058 0.02286288
v 0.02667288 -0.01923238 0.02322980
v 0.02667280 -0.01880188 0.02365169
v 0.02667274 -0.01842538 0.02412238
v 0.02667269 -0.01810836 0.02463503
v 0.02667265 -0.01785545 0.02518216
v 0.02667262 -0.01767032 0.02575577
v 0.02667261 -0.01755569 0.02634753
v 0.02667261 -0.01751322 0.02694878
v 0.02667262 -0.01754354 0.02755077
v 0.02667265 -0.01764620 0.02814472
v 0.02667269 -0.01781970 0.02872196
v 0.02667275 -0.01806151 0.02927408
v 0.02667281 -0.01836811 0.02979302
v 0.02667289 -0.01873503 0.03027123
v 0.02667297 -0.01915691 0.03070172
v 0.02667307 -0.01962761 0.03107823
v 0.02667317 -0.02014026 0.03139525
v 0.02667328 -0.02068738 0.03164816
v 0.02667339 -0.02126100 0.03183328
v 0.02667351 -0.02185275 0.03194791
v 0.02667362 -0.02245401 0.03199038
v 0.02667374 -0.02305600 0.03196007
v 0.02667385 -0.02364994 0.03185741
v 0.02667395 -0.02422719 0.03168391
v 0.02667406 -0.02477930 0.03144210
v 0.02667415 -0.02529825 0.03113550
v 0.02667424 -0.02577646 0.03076858
v 0.02667431 -0.02620695 0.03034670
v 0.02667438 -0.02658345 0.02987600
v 0.02667443 -0.02690047 0.02936335
v 0.02667447 -0.02715339 0.02881623
v 0.02667450 -0.02733851 0.02824260
v 0.02667451 -0.02745314 0.02765085
v 0.02667451 -0.02749561 0.02704960
v 0.02667450 -0.02746529 0.02644761
v 0.02667447 -0.02736264 0.02585367
v 0.02667443 -0.02718914 0.02527642
v 0.02667437 -0.02694733 0.02472430
v 0.02667431 -0.02664072 0.02420536
v 0.02667423 -0.02627381 0.02372715
v 0.02667414 -0.02585192 0.02329666
v 0.02667405 -0.02538122 0.02292016
v 0.02667394 -0.02486858 0.02260314
v 0.02667384 -0.02432145 0.02235022
v 0.02667372 -0.02374783 0.02216510
v 0.02667361 -0.02315608 0.02205047
v 0.02667350 -0.02255483 0.02200800
v 0.02667338 -0.02195284 0.02203831
v 0.02667327 -0.02135889 0.02214097
v 0.02608849 -0.02078176 0.02231448
v 0.02608839 -0.02022964 0.02255629
v 0.02608830 -0.01971069 0.02286289
v 0.02608821 -0.01923249 0.02322981
v 0.02608814 -0.01880199 0.02365169
v 0.02608807 -0.01842549 0.02412239
v 0.02608802 -0.01810847 0.02463504
v 0.02608798 -0.01785556 0.02518216
v 0.02608795 -0.01767044 0.02575578
v 0.02608794 -0.01755580 0.02634753
v 0.02608794 -0.01751334 0.02694879
v 0.02608795 -0.01754365 0.02755078
v 0.02608798 -0.01764631 0.02814472
v 0.02608802 -0.01781981 0.02872197
v 0.02608808 -0.01806162 0.02927409
v 0.02608814 -0.01836822 0.02979303
v 0.02608822 -0.01873514 0.03027124
v 0.02608831 -0.01915702 0.03070173
v 0.02608840 -0.01962772 0.03107823
v 0.02608850 -0.02014037 0.03139525
v 0.02608861 -0.02068749 0.03164817
v 0.02608872 -0.02126111 0.03183329
v 0.02608884 -0.02185286 0.03194792
v 0.02608895 -0.02245412 0.03199039
v 0.02608907 -0.02305611 0.03196007
v 0.02608918 -0.02365005 0.03185742
v 0.02608929 -0.02422730 0.03168392
v 0.02608939 -0.02477941 0.03144211
v 0.02608948 -0.02529836 0.03113551
v 0.02608957 -0.02577657 0.03076859
v 0.02608964 -0.02620706 0.03034670
v 0.02608971 -0.02658356 0.02987600
v 0.02608976 -0.02690058 0.02936336
v 0.02608980 -0.02715350 0.02881623
v 0.02608983 -0.02733862 0.02824261
v 0.02608984 -0.02745325 0.02765086
v 0.02608984 -0.02749572 0.02704961
v 0.02608983 -0.02746540 0.02644762
v 0.02608980 -0.02736275 0.02585367
v 0.02608976 -0.02718925 0.02527643
v 0.02608970 -0.02694744 0.02472431
v 0.02608964 -0.02664083 0.02420536
v 0.02608956 -0.02627392 0.02372716
v 0.02608947 -0.02585203 0.02329667
v 0.02608938 -0.02538134 0.02292016
v 0.02608928 -0.02486869 0.02260314
v 0.02608917 -0.02432156 0.02235023
v 0.02608906 -0.02374794 0.02216510
v 0.02608894 -0.02315619 0.02205047
v 0.02608883 -0.02255494 0.02200801
v 0.02608871 -0.02195295 0.02203832
v 0.02608860 -0.02135900 0.02214098
v 0.02550783 -0.02080543 0.02237854
v 0.02550773 -0.02026086 0.02261705
v 0.02550764 -0.01974901 0.02291946
v 0.02550755 -0.01927734 0.02328136
v 0.02550748 -0.01885273 0.02369747
v 0.02550741 -0.01848138 0.02416174
v 0.02550736 -0.01816869 0.02466737
v 0.02550732 -0.01791924 0.02520702
v 0.02550729 -0.01773664 0.02577279
v 0.02550728 -0.01762358 0.02635645
v 0.02550728 -0.01758169 0.02694949
v 0.02550730 -0.01761159 0.02754324
v 0.02550732 -0.01771285 0.02812907
v 0.02550736 -0.01788397 0.02869842
v 0.02550742 -0.01812248 0.02924299
v 0.02550748 -0.01842489 0.02975484
v 0.02550756 -0.01878679 0.03022651
v 0.02550765 -0.01920291 0.03065111
v 0.02550774 -0.01966717 0.03102247
v 0.02550784 -0.02017281 0.03133515
v 0.02550795 -0.02071245 0.03158461
v 0.02550806 -0.02127822 0.03176720
v 0.02550817 -0.02186189 0.03188027
v 0.02550828 -0.02245492 0.03192215
v 0.02550840 -0.02304868 0.03189225
v 0.02550851 -0.02363450 0.03179100
v 0.02550861 -0.02420385 0.03161987
v 0.02550871 -0.02474842 0.03138136
v 0.02550880 -0.02526027 0.03107896
v 0.02550889 -0.02573194 0.03071706
v 0.02550896 -0.02615655 0.03030094
v 0.02550903 -0.02652790 0.02983668
v 0.02550908 -0.02684058 0.02933104
v 0.02550912 -0.02709004 0.02879140
v 0.02550915 -0.02727263 0.02822562
v 0.02550916 -0.02738570 0.02764196
v 0.02550916 -0.02742758 0.02704893
v 0.02550915 -0.02739768 0.02645517
v 0.02550912 -0.02729643 0.02586935
v 0.02550908 -0.02712530 0.02530000
v 0.02550902 -0.02688680 0.02475543
v 0.02550896 -0.02658439 0.02424357
v 0.02550888 -0.02622249 0.02377191
v 0.02550880 -0.02580637 0.02334730
v 0.02550870 -0.02534211 0.02297595
v 0.02550860 -0.02483647 0.02266326
v 0.02550850 -0.02429683 0.02241381
v 0.02550839 -0.02373105 0.02223121
v 0.02550827 -0.02314739 0.02211815
v 0.02550816 -0.02255436 0.02207626
v 0.02550805 -0.02196060 0.02210616
v 0.02550794 -0.02137478 0.02220741
v 0.02493911 -0.02085233 0.02250579
v 0.02493901 -0.02032275 0.02273773
v 0.02493892 -0.01982499 0.02303181
v 0.02493884 -0.01936631 0.02338374
v 0.02493876 -0.01895340 0.02378840
v 0.02493870 -0.01859227 0.02423988
v 0.02493865 -0.01828820 0.02473159
v 0.02493861 -0.01804561 0.02525638
v 0.02493859 -0.01786805 0.02580657
v 0.02493857 -0.01775810 0.02637416
v 0.02493857 -0.01771736 0.02695086
v 0.02493859 -0.01774644 0.02752827
v 0.02493862 -0.01784490 0.02809796
v 0.02493866 -0.01801132 0.02865164
v 0.02493871 -0.01824326 0.02918121
v 0.02493877 -0.01853734 0.02967897
v 0.02493884 -0.01888928 0.03013765
v 0.02493893 -0.01929393 0.03055056
v 0.02493902 -0.01974541 0.03091169
v 0.02493912 -0.02023713 0.03121576
v 0.02493922 -0.02076191 0.03145835
v 0.02493933 -0.02131210 0.03163592
v 0.02493944 -0.02187969 0.03174587
v 0.02493955 -0.02245640 0.03178660
v 0.02493966 -0.02303380 0.03175752
v 0.02493976 -0.02360350 0.03165906
v 0.02493987 -0.02415717 0.03149264
v 0.02493997 -0.02468674 0.03126070
v 0.02494005 -0.02518450 0.03096662
v 0.02494014 -0.02564318 0.03061469
v 0.02494021 -0.02605609 0.03021003
v 0.02494027 -0.02641722 0.02975855
v 0.02494032 -0.02672130 0.02926684
v 0.02494036 -0.02696388 0.02874205
v 0.02494039 -0.02714145 0.02819186
v 0.02494040 -0.02725140 0.02762427
v 0.02494040 -0.02729213 0.02704757
v 0.02494039 -0.02726305 0.02647016
v 0.02494036 -0.02716459 0.02590047
v 0.02494032 -0.02699818 0.02534680
v 0.02494027 -0.02676624 0.02481722
v 0.02494020 -0.02647216 0.02431946
v 0.02494013 -0.02612022 0.02386078
v 0.02494005 -0.02571556 0.02344787
v 0.02493996 -0.02526408 0.02308674
v 0.02493986 -0.02477237 0.02278267
v 0.02493975 -0.02424759 0.02254008
v 0.02493965 -0.02369739 0.02236252
v 0.02493954 -0.02312980 0.02225256
v 0.02493943 -0.02255310 0.02221183
v 0.02493932 -0.02197569 0.02224091
v 0.02493921 -0.02140600 0.02233937
v 0.02439010 -0.02092182 0.02269447
v 0.02439001 -0.02041448 0.02291667
v 0.02438992 -0.01993762 0.02319841
v 0.02438984 -0.01949820 0.02353556
v 0.02438978 -0.01910263 0.02392323
v 0.02438972 -0.01875666 0.02435575
v 0.02438967 -0.01846536 0.02482682
v 0.02438963 -0.01823295 0.02532957
v 0.02438960 -0.01806284 0.02585666
v 0.02438959 -0.01795751 0.02640042
v 0.02438959 -0.01791849 0.02695290
v 0.02438961 -0.01794634 0.02750607
v 0.02438963 -0.01804067 0.02805184
v 0.02438967 -0.01820010 0.02858226
v 0.02438972 -0.01842230 0.02908960
v 0.02438978 -0.01870403 0.02956645
v 0.02438985 -0.01904119 0.03000587
v 0.02438993 -0.01942886 0.03040145
v 0.02439002 -0.01986138 0.03074741
v 0.02439011 -0.02033245 0.03103872
v 0.02439021 -0.02083519 0.03127112
v 0.02439032 -0.02136229 0.03144123
v 0.02439042 -0.02190604 0.03154657
v 0.02439053 -0.02245853 0.03158559
v 0.02439063 -0.02301169 0.03155773
v 0.02439073 -0.02355747 0.03146340
v 0.02439083 -0.02408789 0.03130398
v 0.02439092 -0.02459523 0.03108178
v 0.02439101 -0.02507208 0.03080004
v 0.02439109 -0.02551150 0.03046288
v 0.02439116 -0.02590708 0.03007522
v 0.02439122 -0.02625304 0.02964270
v 0.02439127 -0.02654435 0.02917163
v 0.02439131 -0.02677675 0.02866888
v 0.02439133 -0.02694686 0.02814179
v 0.02439134 -0.02705219 0.02759803
v 0.02439134 -0.02709122 0.02704554
v 0.02439133 -0.02706336 0.02649238
v 0.02439130 -0.02696903 0.02594661
v 0.02439127 -0.02680960 0.02541619
v 0.02439122 -0.02658740 0.02490885
v 0.02439115 -0.02630567 0.02443199
v 0.02439108 -0.02596851 0.02399257
v 0.02439100 -0.02558085 0.02359700
v 0.02439092 -0.02514832 0.02325103
v 0.02439082 -0.02467726 0.02295973
v 0.02439072 -0.02417451 0.02272732
v 0.02439062 -0.02364742 0.02255722
v 0.02439051 -0.02310366 0.02245188
v 0.02439041 -0.02255117 0.02241286
v 0.02439030 -0.02199801 0.02244071
v 0.02439020 -0.02145224 0.02253504
v 0.02386832 -0.02101295 0.02294202
v 0.02386824 -0.02053478 0.02315144
v 0.02386815 -0.02008535 0.02341697
v 0.02386808 -0.01967119 0.02373474
v 0.02386802 -0.01929836 0.02410012
v 0.02386796 -0.01897229 0.02450777
v 0.02386791 -0.01869774 0.02495175
v 0.02386788 -0.01847870 0.02542558
v 0.02386785 -0.01831837 0.02592237
v 0.02386784 -0.01821910 0.02643486
v 0.02386784 -0.01818232 0.02695557
v 0.02386786 -0.01820857 0.02747693
v 0.02386788 -0.01829748 0.02799132
v 0.02386792 -0.01844774 0.02849124
v 0.02386796 -0.01865716 0.02896940
v 0.02386802 -0.01892269 0.02941884
v 0.02386809 -0.01924046 0.02983299
v 0.02386816 -0.01960584 0.03020582
v 0.02386825 -0.02001349 0.03053189
v 0.02386833 -0.02045747 0.03080644
v 0.02386843 -0.02093130 0.03102548
v 0.02386852 -0.02142809 0.03118581
v 0.02386862 -0.02194058 0.03128508
v 0.02386872 -0.02246129 0.03132186
v 0.02386882 -0.02298265 0.03129561
v 0.02386892 -0.02349704 0.03120670
v 0.02386901 -0.02399696 0.03105645
v 0.02386910 -0.02447512 0.03084702
v 0.02386918 -0.02492456 0.03058149
v 0.02386926 -0.02533871 0.03026372
v 0.02386932 -0.02571154 0.02989835
v 0.02386938 -0.02603761 0.02949070
v 0.02386942 -0.02631216 0.02904672
v 0.02386946 -0.02653120 0.02857288
v 0.02386948 -0.02669153 0.02807609
v 0.02386949 -0.02679081 0.02756361
v 0.02386949 -0.02682758 0.02704289
v 0.02386948 -0.02680133 0.02652153
v 0.02386945 -0.02671243 0.02600715
v 0.02386942 -0.02656217 0.02550722
v 0.02386937 -0.02635274 0.02502906
v 0.02386932 -0.02608721 0.02457963
v 0.02386925 -0.02576944 0.02416547
v 0.02386917 -0.02540407 0.02379264
v 0.02386909 -0.02499642 0.02346657
v 0.02386900 -0.02455244 0.02319202
v 0.02386891 -0.02407860 0.02297298
v 0.02386881 -0.02358181 0.02281265
v 0.02386871 -0.02306933 0.02271338
v 0.02386861 -0.02254861 0.02267660
v 0.02386851 -0.02202725 0.02270285
v 0.02386842 -0.02151287 0.02279176
v 0.02338091 -0.02112447 0.02324504
v 0.02338083 -0.02068202 0.02343882
v 0.02338075 -0.02026615 0.02368452
v 0.02338068 -0.01988293 0.02397856
v 0.02338062 -0.01953794 0.02431665
v 0.02338057 -0.01923622 0.02469385
v 0.02338053 -0.01898217 0.02510467
v 0.02338049 -0.01877950 0.02554312
v 0.02338047 -0.01863114 0.02600280
v 0.02338046 -0.01853928 0.02647701
v 0.02338046 -0.01850525 0.02695884
v 0.02338047 -0.01852954 0.02744126
v 0.02338050 -0.01861181 0.02791723
v 0.02338053 -0.01875084 0.02837981
v 0.02338057 -0.01894463 0.02882227
v 0.02338063 -0.01919033 0.02923813
v 0.02338069 -0.01948437 0.02962136
v 0.02338076 -0.01982245 0.02996634
v 0.02338083 -0.02019965 0.03026806
v 0.02338091 -0.02061048 0.03052211
v 0.02338100 -0.02104893 0.03072479
v 0.02338109 -0.02150861 0.03087314
v 0.02338118 -0.02198282 0.03096500
v 0.02338127 -0.02246465 0.03099903
v 0.02338137 -0.02294706 0.03097474
v 0.02338146 -0.02342303 0.03089247
v 0.02338154 -0.02388562 0.03075344
v 0.02338162 -0.02432807 0.03055966
v 0.02338170 -0.02474394 0.03031395
v 0.02338177 -0.02512716 0.03001992
v 0.02338183 -0.02547215 0.02968183
v 0.02338188 -0.02577386 0.02930463
v 0.02338192 -0.02602791 0.02889381
v 0.02338196 -0.02623059 0.02845536
v 0.02338198 -0.02637895 0.02799568
v 0.02338199 -0.02647081 0.02752146
v 0.02338199 -0.02650484 0.02703964
v 0.02338197 -0.02648055 0.02655722
v 0.02338195 -0.02639828 0.02608125
v 0.02338192 -0.02625924 0.02561866
v 0.02338188 -0.02606546 0.02517621
v 0.02338182 -0.02581976 0.02476034
v 0.02338176 -0.02552572 0.02437712
v 0.02338169 -0.02518764 0.02403214
v 0.02338162 -0.02481043 0.02373042
v 0.02338153 -0.02439961 0.02347637
v 0.02338145 -0.02396116 0.02327369
v 0.02338136 -0.02350148 0.02312534
v 0.02338127 -0.02302727 0.02303347
v 0.02338117 -0.02254544 0.02299944
v 0.02338108 -0.02206302 0.02302374
v 0.02338099 -0.02158705 0.02310600
v 0.02338120 -0.02262281 0.02400155
v 0.02338108 -0.02197564 0.02404632
v 0.02338086 -0.02078467 0.02454153
v 0.02338096 -0.02135323 0.02422916
v 0.02338078 -0.02029656 0.02496882
v 0.02338154 -0.02394960 0.02962854
v 0.02338143 -0.02335061 0.02987761
v 0.02338131 -0.02271208 0.02999209
v 0.02338163 -0.02448105 0.02925653
v 0.02338180 -0.02550471 0.02695454
v 0.02338179 -0.02544419 0.02760042
v 0.02338176 -0.02524624 0.02821820
v 0.02338177 -0.02542497 0.02631075
v 0.02338066 -0.01952779 0.02736800
v 0.02338065 -0.01951813 0.02671935
v 0.02338067 -0.01964813 0.02608380
v 0.02338095 -0.02085867 0.02950711
v 0.02338085 -0.02035804 0.02909456
v 0.02338076 -0.01995780 0.02858403
v 0.02338106 -0.02143628 0.02980240
v 0.02338118 -0.02206386 0.02996662
v 0.02338171 -0.02492011 0.02877898
v 0.02338172 -0.02520870 0.02569914
v 0.02338145 -0.02387062 0.02432806
v 0.02338155 -0.02441292 0.02468407
v 0.02338165 -0.02486601 0.02514833
v 0.02338133 -0.02326447 0.02409695
v 0.02338071 -0.01991171 0.02549105
v 0.02338070 -0.01967667 0.02799940
v 0.02338068 -0.01958512 0.02768773
v 0.02938177 -0.02542383 0.02631066
v 0.02938179 -0.02550357 0.02695445
v 0.02938077 -0.02029542 0.02496873
v 0.02938086 -0.02078353 0.02454144
v 0.02938096 -0.02135209 0.02422907
v 0.02938120 -0.02262167 0.02400146
v 0.02938108 -0.02197450 0.02404623
v 0.02938172 -0.02520756 0.02569906
v 0.02938171 -0.02491897 0.02877889
v 0.02938177 -0.02524509 0.02821811
v 0.02938179 -0.02544305 0.02760034
v 0.02938163 -0.02447991 0.02925645
v 0.02938118 -0.02206272 0.02996653
v 0.02938131 -0.02271093 0.02999200
v 0.02938143 -0.02334947 0.02987752
v 0.02938106 -0.02143513 0.02980232
v 0.02938154 -0.02394846 0.02962846
v 0.02938133 -0.02326333 0.02409686
v 0.02938095 -0.02085752 0.02950703
v 0.02938085 -0.02035690 0.02909447
v 0.02938070 -0.01967553 0.02799931
v 0.02938076 -0.01995666 0.02858394
v 0.02938145 -0.02386948 0.02432797
v 0.02938155 -0.02441178 0.02468398
v 0.02938165 -0.02486487 0.02514825
v 0.02938066 -0.01952665 0.02736791
v 0.02938065 -0.01951699 0.02671927
v 0.02938071 -0.01991057 0.02549096
v 0.02938067 -0.01964699 0.02608371
f 1 2 3
f 3 2 4
f 3 4 5
f 5 4 6
f 5 6 7
f 7 6 8
f 7 8 9
f 9 8 10
f 8 109 10
f 10 109 110
f 109 162 110
f 109 161 162
f 108 161 109
f 108 160 161
f 107 160 108
f 6 107 108
f 107 159 160
f 106 159 107
f 106 158 159
f 158 211 159
f 158 210 211
f 210 263 211
f 210 262 263
f 262 315 263
f 262 314 315
f 314 367 315
f 315 367 368
f 367 420 368
f 368 420 421
f 368 421 369
f 369 421 422
f 421 474 422
f 421 473 474
f 473 526 474
f 473 525 526
f 472 525 473
f 420 472 473
f 419 472 420
f 419 471 472
f 471 524 472
f 471 523 524
f 523 576 524
f 524 576 577
f 524 577 525
f 525 577 578
f 629 578 577
f 652 578 629
f 652 579 578
f 526 578 579
f 526 579 527
f 527 579 580
f 527 580 528
f 528 580 581
f 640 581 580
f 640 580 652
f 582 581 640
f 529 581 582
f 529 582 530
f 477 529 530
f 476 529 477
f 424 476 477
f 424 477 425
f 425 477 478
f 425 478 426
f 373 425 426
f 372 425 373
f 320 372 373
f 320 373 321
f 268 320 321
f 268 321 269
f 269 321 322
f 321 374 322
f 322 374 375
f 374 427 375
f 374 426 427
f 426 479 427
f 427 479 480
f 479 532 480
f 479 531 532
f 531 584 532
f 532 584 585
f 532 585 533
f 533 585 586
f 654 586 585
f 653 586 654
f 653 587 586
f 643 587 653
f 643 588 587
f 535 587 588
f 535 588 536
f 536 588 589
f 536 589 537
f 537 589 590
f 642 590 589
f 641 590 642
f 641 591 590
f 641 592 591
f 539 591 592
f 539 592 540
f 540 592 593
f 540 593 541
f 541 593 594
f 644 594 593
f 645 594 644
f 645 595 594
f 645 596 595
f 543 595 596
f 543 596 544
f 544 596 597
f 544 597 545
f 545 597 598
f 598 597 632
f 631 598 632
f 631 599 598
f 630 599 631
f 630 600 599
f 630 601 600
f 548 600 601
f 548 601 549
f 549 601 602
f 633 602 601
f 633 603 602
f 646 603 633
f 646 604 603
f 551 603 604
f 551 604 552
f 552 604 605
f 552 605 553
f 553 605 606
f 636 606 605
f 607 606 636
f 635 607 636
f 635 608 607
f 634 608 635
f 634 609 608
f 556 608 609
f 556 609 557
f 557 609 610
f 557 610 558
f 505 557 558
f 504 557 505
f 452 504 505
f 452 505 453
f 400 452 453
f 400 453 401
f 401 453 454
f 453 506 454
f 454 506 507
f 506 559 507
f 506 558 559
f 558 611 559
f 559 611 612
f 637 612 611
f 637 611 610
f 637 610 634
f 647 612 637
f 647 613 612
f 647 614 613
f 561 613 614
f 560 613 561
f 508 560 561
f 508 561 509
f 509 561 562
f 509 562 510
f 457 509 510
f 456 509 457
f 404 456 457
f 404 457 405
f 405 457 458
f 405 458 406
f 353 405 406
f 352 405 353
f 300 352 353
f 300 353 301
f 301 353 354
f 301 354 302
f 249 301 302
f 248 301 249
f 196 248 249
f 196 249 197
f 144 196 197
f 144 197 145
f 145 197 198
f 197 250 198
f 198 250 251
f 250 303 251
f 250 302 303
f 302 355 303
f 303 355 356
f 355 408 356
f 355 407 408
f 407 460 408
f 408 460 461
f 408 461 409
f 409 461 462
f 461 514 462
f 461 513 514
f 513 566 514
f 513 565 566
f 512 565 513
f 460 512 513
f 459 512 460
f 459 511 512
f 511 564 512
f 511 563 564
f 510 563 511
f 458 510 511
f 563 616 564
f 564 616 617
f 564 617 565
f 565 617 618
f 648 618 617
f 648 619 618
f 651 619 648
f 651 620 619
f 567 619 620
f 567 620 568
f 568 620 621
f 568 621 569
f 569 621 622
f 625 622 621
f 623 622 625
f 625 626 623
f 626 624 623
f 571 623 624
f 571 624 572
f 572 624 573
f 572 573 521
f 521 573 574
f 628 574 573
f 627 574 628
f 627 575 574
f 627 576 575
f 629 576 627
f 522 574 575
f 522 575 523
f 470 522 523
f 469 522 470
f 417 469 470
f 468 469 417
f 416 468 417
f 416 417 365
f 365 417 418
f 365 418 366
f 313 365 366
f 364 365 313
f 312 364 313
f 312 313 261
f 261 313 314
f 260 312 261
f 260 261 209
f 209 261 262
f 208 260 209
f 208 209 157
f 157 209 210
f 156 208 157
f 156 157 105
f 105 157 158
f 104 156 105
f 104 105 2
f 2 105 106
f 102 156 104
f 102 155 156
f 100 155 102
f 100 154 155
f 154 207 155
f 154 206 207
f 206 259 207
f 206 258 259
f 258 311 259
f 258 310 311
f 310 363 311
f 311 363 364
f 363 416 364
f 363 415 416
f 362 415 363
f 362 414 415
f 414 467 415
f 414 466 467
f 466 519 467
f 466 518 519
f 518 571 519
f 518 570 571
f 517 570 518
f 465 517 518
f 464 517 465
f 412 464 465
f 412 465 413
f 413 465 466
f 360 412 413
f 360 413 361
f 361 413 414
f 308 360 361
f 308 361 309
f 309 361 362
f 309 362 310
f 257 309 310
f 256 309 257
f 204 256 257
f 204 257 205
f 205 257 258
f 152 204 205
f 152 205 153
f 153 205 206
f 96 152 153
f 96 153 98
f 98 153 154
f 97 96 98
f 95 96 97
f 672 95 97
f 677 95 672
f 677 93 95
f 93 94 95
f 93 92 94
f 92 151 94
f 92 150 151
f 150 203 151
f 151 203 204
f 150 202 203
f 202 255 203
f 202 254 255
f 254 307 255
f 254 306 307
f 306 359 307
f 307 359 360
f 306 358 359
f 358 411 359
f 358 410 411
f 410 463 411
f 410 462 463
f 462 515 463
f 463 515 516
f 515 568 516
f 463 516 464
f 411 463 464
f 357 410 358
f 305 357 358
f 304 357 305
f 304 356 357
f 356 409 357
f 252 304 305
f 252 305 253
f 253 305 306
f 200 252 253
f 200 253 201
f 148 200 201
f 148 201 149
f 149 201 202
f 88 148 149
f 88 149 90
f 90 149 150
f 89 88 90
f 87 88 89
f 678 87 89
f 679 87 678
f 679 85 87
f 662 85 679
f 662 83 85
f 81 83 662
f 81 82 83
f 83 82 84
f 82 146 84
f 82 145 146
f 80 145 82
f 84 146 147
f 146 199 147
f 147 199 200
f 146 198 199
f 84 147 86
f 86 147 148
f 85 84 86
f 81 80 82
f 79 80 81
f 79 78 80
f 78 144 80
f 78 143 144
f 76 143 78
f 76 142 143
f 142 195 143
f 143 195 196
f 142 194 195
f 194 247 195
f 195 247 248
f 247 300 248
f 247 299 300
f 246 299 247
f 246 298 299
f 298 351 299
f 299 351 352
f 351 404 352
f 351 403 404
f 350 403 351
f 350 402 403
f 402 455 403
f 403 455 456
f 455 508 456
f 455 507 508
f 402 454 455
f 349 402 350
f 297 349 350
f 296 349 297
f 244 296 297
f 244 297 245
f 245 297 298
f 192 244 245
f 192 245 193
f 140 192 193
f 140 193 141
f 141 193 194
f 193 246 194
f 72 140 141
f 72 141 74
f 74 141 142
f 73 72 74
f 71 72 73
f 71 70 72
f 69 70 71
f 69 71 665
f 664 69 665
f 664 67 69
f 663 67 664
f 663 65 67
f 65 66 67
f 67 66 68
f 66 138 68
f 66 137 138
f 64 137 66
f 64 136 137
f 62 136 64
f 62 135 136
f 135 188 136
f 136 188 189
f 188 241 189
f 188 240 241
f 240 293 241
f 241 293 294
f 293 346 294
f 293 345 346
f 292 345 293
f 292 344 345
f 344 397 345
f 345 397 398
f 397 450 398
f 397 449 450
f 449 502 450
f 450 502 503
f 502 555 503
f 502 554 555
f 554 607 555
f 501 554 502
f 501 553 554
f 500 553 501
f 448 500 501
f 448 501 449
f 396 448 449
f 395 448 396
f 343 395 396
f 343 396 344
f 291 343 344
f 290 343 291
f 290 342 343
f 289 342 290
f 237 289 290
f 236 289 237
f 184 236 237
f 184 237 185
f 185 237 238
f 185 238 186
f 133 185 186
f 132 185 133
f 56 132 133
f 56 133 58
f 58 133 134
f 58 134 60
f 59 58 60
f 57 58 59
f 671 57 59
f 671 59 666
f 666 59 61
f 666 61 63
f 61 62 63
f 61 60 62
f 666 63 663
f 671 55 57
f 55 56 57
f 55 54 56
f 53 54 55
f 669 53 55
f 51 53 669
f 668 51 669
f 668 49 51
f 49 50 51
f 51 50 52
f 50 130 52
f 50 129 130
f 48 129 50
f 48 128 129
f 46 128 48
f 46 127 128
f 127 180 128
f 128 180 181
f 180 233 181
f 181 233 234
f 233 286 234
f 233 285 286
f 232 285 233
f 232 284 285
f 231 284 232
f 231 283 284
f 230 283 231
f 230 282 283
f 282 335 283
f 282 334 335
f 334 387 335
f 334 386 387
f 386 439 387
f 386 438 439
f 438 491 439
f 439 491 492
f 491 544 492
f 439 492 440
f 440 492 493
f 492 545 493
f 493 545 546
f 493 546 494
f 441 493 494
f 441 494 442
f 389 441 442
f 388 441 389
f 336 388 389
f 336 389 337
f 337 389 390
f 337 390 338
f 285 337 338
f 338 390 391
f 390 443 391
f 390 442 443
f 442 495 443
f 443 495 496
f 495 548 496
f 495 547 548
f 494 547 495
f 443 496 444
f 444 496 497
f 496 549 497
f 497 549 550
f 497 550 498
f 445 497 498
f 445 498 446
f 393 445 446
f 392 445 393
f 340 392 393
f 340 393 341
f 341 393 394
f 341 394 342
f 342 394 395
f 394 447 395
f 394 446 447
f 446 499 447
f 447 499 500
f 499 552 500
f 288 340 341
f 288 341 289
f 287 340 288
f 287 339 340
f 286 339 287
f 286 338 339
f 235 287 288
f 235 288 236
f 183 235 236
f 182 235 183
f 182 234 235
f 130 182 183
f 130 183 131
f 131 183 184
f 131 184 132
f 54 131 132
f 52 131 54
f 234 287 235
f 339 392 340
f 339 391 392
f 391 444 392
f 392 444 445
f 393 446 394
f 446 498 499
f 498 551 499
f 498 550 551
f 444 497 445
f 391 443 444
f 338 391 339
f 284 336 337
f 335 388 336
f 388 440 441
f 387 440 388
f 389 442 390
f 442 494 495
f 494 546 547
f 546 599 547
f 440 493 441
f 438 490 491
f 490 543 491
f 490 542 543
f 489 542 490
f 437 489 490
f 436 489 437
f 436 488 489
f 488 541 489
f 435 488 436
f 435 487 488
f 487 540 488
f 434 487 435
f 434 486 487
f 486 539 487
f 486 538 539
f 485 538 486
f 433 485 486
f 432 485 433
f 432 484 485
f 484 537 485
f 431 484 432
f 431 483 484
f 483 536 484
f 430 483 431
f 430 482 483
f 482 535 483
f 482 534 535
f 481 534 482
f 429 481 482
f 428 481 429
f 428 480 481
f 480 533 481
f 376 428 429
f 376 429 377
f 377 429 430
f 377 430 378
f 325 377 378
f 324 377 325
f 272 324 325
f 272 325 273
f 273 325 326
f 273 326 274
f 221 273 274
f 220 273 221
f 168 220 221
f 168 221 169
f 169 221 222
f 169 222 170
f 117 169 170
f 116 169 117
f 24 116 117
f 24 117 26
f 25 24 26
f 23 24 25
f 680 23 25
f 681 23 680
f 681 21 23
f 681 19 21
f 683 19 681
f 683 17 19
f 682 17 683
f 682 15 17
f 682 13 15
f 657 13 682
f 657 11 13
f 9 11 657
f 657 658 9
f 11 12 13
f 11 10 12
f 13 12 14
f 12 111 14
f 14 111 112
f 111 164 112
f 112 164 165
f 112 165 113
f 113 165 166
f 165 218 166
f 165 217 218
f 217 270 218
f 217 269 270
f 216 269 217
f 164 216 217
f 163 216 164
f 163 215 216
f 215 268 216
f 215 267 268
f 214 267 215
f 214 266 267
f 266 319 267
f 267 319 320
f 266 318 319
f 318 371 319
f 319 371 372
f 371 424 372
f 371 423 424
f 370 423 371
f 370 422 423
f 422 475 423
f 423 475 476
f 475 528 476
f 318 370 371
f 317 370 318
f 265 317 318
f 264 317 265
f 212 264 265
f 212 265 213
f 213 265 266
f 160 212 213
f 211 264 212
f 264 316 317
f 316 369 317
f 263 316 264
f 317 369 370
f 265 318 266
f 213 266 214
f 161 213 214
f 162 214 215
f 162 215 163
f 218 270 271
f 270 323 271
f 271 323 324
f 323 376 324
f 323 375 376
f 270 322 323
f 218 271 219
f 219 271 272
f 219 272 220
f 167 219 220
f 166 219 167
f 114 166 167
f 114 167 115
f 115 167 168
f 115 168 116
f 22 115 116
f 20 115 22
f 21 20 22
f 20 114 115
f 18 114 20
f 19 18 20
f 18 113 114
f 16 113 18
f 17 16 18
f 166 218 219
f 113 166 114
f 16 112 113
f 164 217 165
f 111 163 164
f 110 163 111
f 14 112 16
f 15 14 16
f 12 110 111
f 13 14 15
f 15 16 17
f 17 18 19
f 19 20 21
f 21 22 23
f 680 25 27
f 680 27 675
f 675 27 29
f 675 29 31
f 675 31 676
f 676 31 33
f 31 32 33
f 33 32 34
f 32 121 34
f 32 120 121
f 120 173 121
f 121 173 174
f 173 226 174
f 174 226 227
f 226 279 227
f 226 278 279
f 278 331 279
f 279 331 332
f 279 332 280
f 280 332 333
f 280 333 281
f 281 333 334
f 228 280 281
f 228 281 229
f 229 281 282
f 176 228 229
f 176 229 177
f 177 229 230
f 177 230 178
f 125 177 178
f 124 177 125
f 40 124 125
f 40 125 42
f 41 40 42
f 39 40 41
f 673 39 41
f 673 37 39
f 674 37 673
f 674 35 37
f 674 33 35
f 35 36 37
f 35 34 36
f 34 122 36
f 36 122 123
f 122 175 123
f 122 174 175
f 123 175 176
f 123 176 124
f 38 123 124
f 36 123 38
f 37 36 38
f 37 38 39
f 673 41 670
f 670 41 43
f 670 43 45
f 670 45 667
f 667 45 47
f 45 46 47
f 45 44 46
f 667 47 49
f 47 48 49
f 43 44 45
f 43 42 44
f 42 126 44
f 44 126 127
f 126 179 127
f 126 178 179
f 178 231 179
f 39 38 40
f 41 42 43
f 42 125 126
f 38 124 40
f 125 178 126
f 124 176 177
f 175 228 176
f 175 227 228
f 227 280 228
f 332 385 333
f 333 385 386
f 332 384 385
f 384 437 385
f 385 437 438
f 331 384 332
f 331 383 384
f 383 436 384
f 330 383 331
f 330 382 383
f 382 435 383
f 329 382 330
f 277 329 330
f 276 329 277
f 224 276 277
f 224 277 225
f 225 277 278
f 172 224 225
f 172 225 173
f 171 224 172
f 171 223 224
f 170 223 171
f 118 170 171
f 118 171 119
f 28 118 119
f 28 119 30
f 30 119 120
f 119 172 120
f 29 28 30
f 26 118 28
f 27 26 28
f 119 171 172
f 223 276 224
f 223 275 276
f 275 328 276
f 275 327 328
f 327 380 328
f 328 380 381
f 328 381 329
f 380 433 381
f 381 433 434
f 381 434 382
f 327 379 380
f 379 432 380
f 326 379 327
f 326 378 379
f 378 431 379
f 274 327 275
f 222 274 275
f 222 275 223
f 276 328 329
f 277 330 278
f 329 381 382
f 278 330 331
f 225 278 226
f 227 279 280
f 174 227 175
f 173 225 226
f 121 174 122
f 120 172 173
f 30 120 32
f 34 121 122
f 33 34 35
f 31 30 32
f 676 33 674
f 29 30 31
f 27 28 29
f 23 22 24
f 25 26 27
f 26 117 118
f 22 116 24
f 117 170 118
f 170 222 223
f 116 168 169
f 167 220 168
f 221 274 222
f 274 326 327
f 220 272 273
f 271 324 272
f 325 378 326
f 324 376 377
f 375 428 376
f 481 533 534
f 429 482 430
f 378 430 431
f 379 431 432
f 380 432 433
f 485 537 538
f 433 486 434
f 382 434 435
f 383 435 436
f 384 436 437
f 489 541 542
f 437 490 438
f 385 438 386
f 387 439 440
f 333 386 334
f 335 387 388
f 281 334 282
f 283 335 336
f 229 282 230
f 178 230 231
f 283 336 284
f 179 231 232
f 179 232 180
f 284 337 285
f 285 338 286
f 234 286 287
f 181 234 182
f 129 181 182
f 180 232 233
f 127 179 180
f 44 127 46
f 47 46 48
f 128 181 129
f 129 182 130
f 52 130 131
f 49 48 50
f 667 49 668
f 51 52 53
f 53 52 54
f 669 55 671
f 59 60 61
f 60 134 135
f 134 187 135
f 134 186 187
f 186 239 187
f 187 239 240
f 239 292 240
f 239 291 292
f 238 291 239
f 57 56 58
f 54 132 56
f 133 186 134
f 186 238 239
f 132 184 185
f 183 236 184
f 236 288 289
f 237 290 238
f 289 341 342
f 238 290 291
f 342 395 343
f 395 447 448
f 447 500 448
f 503 555 556
f 503 556 504
f 451 503 504
f 450 503 451
f 449 501 502
f 396 449 397
f 398 450 451
f 398 451 399
f 399 451 452
f 346 398 399
f 346 399 347
f 347 399 400
f 347 400 348
f 295 347 348
f 295 348 296
f 243 295 296
f 242 295 243
f 242 294 295
f 190 242 243
f 190 243 191
f 191 243 244
f 138 190 191
f 138 191 139
f 139 191 192
f 189 242 190
f 137 189 190
f 294 347 295
f 344 396 397
f 291 344 292
f 345 398 346
f 294 346 347
f 241 294 242
f 240 292 293
f 187 240 188
f 189 241 242
f 135 187 188
f 60 135 62
f 63 62 64
f 63 64 65
f 136 189 137
f 137 190 138
f 68 138 139
f 68 139 70
f 70 139 140
f 65 64 66
f 663 63 65
f 67 68 69
f 69 68 70
f 665 71 73
f 665 73 656
f 656 73 75
f 656 75 77
f 655 656 77
f 77 79 655
f 75 76 77
f 75 74 76
f 73 74 75
f 70 140 72
f 139 192 140
f 193 245 246
f 191 244 192
f 243 296 244
f 296 348 349
f 348 401 349
f 297 350 298
f 349 401 402
f 298 350 351
f 245 298 246
f 194 246 247
f 141 194 142
f 74 142 76
f 77 76 78
f 77 78 79
f 655 79 81
f 655 81 662
f 83 84 85
f 85 86 87
f 678 89 91
f 678 91 677
f 87 86 88
f 89 90 91
f 91 90 92
f 86 148 88
f 147 200 148
f 201 253 254
f 199 252 200
f 199 251 252
f 251 304 252
f 357 409 410
f 359 411 412
f 305 358 306
f 253 306 254
f 255 307 308
f 255 308 256
f 201 254 202
f 203 255 256
f 149 202 150
f 90 150 92
f 94 151 152
f 91 92 93
f 677 91 93
f 672 97 99
f 672 99 660
f 660 99 101
f 660 101 103
f 660 103 661
f 661 103 1
f 661 1 659
f 103 104 1
f 101 102 103
f 99 100 101
f 99 98 100
f 95 94 96
f 97 98 99
f 94 152 96
f 151 204 152
f 203 256 204
f 256 308 309
f 307 360 308
f 359 412 360
f 411 464 412
f 464 516 517
f 516 569 517
f 517 569 570
f 465 518 466
f 467 519 520
f 519 572 520
f 467 520 468
f 413 466 414
f 415 467 468
f 361 414 362
f 310 362 363
f 257 310 258
f 259 311 312
f 205 258 206
f 207 259 260
f 153 206 154
f 155 207 208
f 98 154 100
f 101 100 102
f 103 102 104
f 155 208 156
f 207 260 208
f 259 312 260
f 311 364 312
f 313 366 314
f 366 418 419
f 366 419 367
f 364 416 365
f 415 468 416
f 468 520 469
f 520 521 469
f 417 470 418
f 418 470 471
f 469 521 522
f 628 573 626
f 521 574 522
f 520 572 521
f 519 571 572
f 570 623 571
f 626 573 624
f 570 622 623
f 625 621 651
f 569 622 570
f 516 568 569
f 515 567 568
f 514 567 515
f 566 619 567
f 651 621 620
f 566 618 619
f 648 617 649
f 649 617 616
f 649 616 650
f 616 615 650
f 650 615 614
f 562 614 615
f 562 615 563
f 563 615 616
f 458 511 459
f 512 564 565
f 565 618 566
f 514 566 567
f 462 514 515
f 409 462 410
f 460 513 461
f 407 459 460
f 406 459 407
f 354 406 407
f 354 407 355
f 356 408 409
f 303 356 304
f 251 303 304
f 198 251 199
f 145 198 146
f 80 144 145
f 143 196 144
f 197 249 250
f 195 248 196
f 249 302 250
f 302 354 355
f 248 300 301
f 299 352 300
f 353 406 354
f 406 458 459
f 352 404 405
f 403 456 404
f 457 510 458
f 510 562 563
f 456 508 509
f 507 560 508
f 561 614 562
f 650 614 647
f 560 612 613
f 559 612 560
f 507 559 560
f 454 507 455
f 401 454 402
f 348 400 401
f 399 452 400
f 453 505 506
f 451 504 452
f 505 558 506
f 558 610 611
f 504 556 557
f 555 608 556
f 634 610 609
f 555 607 608
f 554 606 607
f 636 605 646
f 553 606 554
f 500 552 553
f 499 551 552
f 550 603 551
f 646 605 604
f 550 602 603
f 549 602 550
f 496 548 549
f 547 600 548
f 633 601 630
f 547 599 600
f 546 598 599
f 545 598 546
f 492 544 545
f 632 597 596
f 491 543 544
f 542 595 543
f 632 596 645
f 542 594 595
f 541 594 542
f 488 540 541
f 644 593 592
f 487 539 540
f 538 591 539
f 644 592 641
f 538 590 591
f 642 589 643
f 537 590 538
f 484 536 537
f 483 535 536
f 534 587 535
f 589 588 643
f 534 586 587
f 654 585 638
f 533 586 534
f 638 585 584
f 638 584 583
f 638 583 639
f 639 583 582
f 531 583 584
f 530 583 531
f 478 530 531
f 478 531 479
f 480 532 533
f 427 480 428
f 375 427 428
f 322 375 323
f 269 322 270
f 216 268 269
f 267 320 268
f 321 373 374
f 319 372 320
f 373 426 374
f 426 478 479
f 372 424 425
f 423 476 424
f 476 528 529
f 477 530 478
f 530 582 583
f 639 582 640
f 528 581 529
f 475 527 528
f 474 527 475
f 652 580 579
f 629 577 576
f 523 575 576
f 470 523 471
f 418 471 419
f 472 524 525
f 525 578 526
f 474 526 527
f 422 474 475
f 369 422 370
f 316 368 369
f 420 473 421
f 367 419 420
f 315 368 316
f 314 366 367
f 261 314 262
f 263 315 316
f 209 262 210
f 211 263 264
f 157 210 158
f 159 211 212
f 105 158 106
f 4 106 107
f 159 212 160
f 160 213 161
f 161 214 162
f 110 162 163
f 10 110 12
f 8 108 109
f 9 10 11
f 658 7 9
f 6 108 8
f 658 5 7
f 659 5 658
f 4 107 6
f 659 3 5
f 2 106 4
f 1 104 2
f 659 1 3

