# https://github.com/mikedh/trimesh
v 0.01765997 0.00424443 0.01679982
v 0.01921752 0.00422725 0.01679980
v 0.02062828 0.00488757 0.01679979
v 0.02161283 0.00609460 0.01679980
v 0.02197617 0.00760928 0.01679982
v 0.02164633 0.00913160 0.01679986
v 0.02068864 0.01036006 0.01679989
v 0.01929279 0.01105133 0.01679992
v 0.01773524 0.01106851 0.01679995
v 0.01632448 0.01040819 0.01679996
v 0.01533993 0.00920116 0.01679995
v 0.01497659 0.00768648 0.01679992
v 0.01530643 0.00616416 0.01679989
v 0.01626412 0.00493571 0.01679986
v 0.01703113 0.00612432 0.01679987
v 0.01798653 0.00560581 0.01679984
v 0.01646297 0.00705107 0.01679989
v 0.01643431 0.00813773 0.01679991
v 0.01695282 0.00909314 0.01679992
v 0.01787956 0.00966129 0.01679992
v 0.01896623 0.00968995 0.01679990
v 0.01992163 0.00917144 0.01679988
v 0.02048979 0.00824470 0.01679986
v 0.02051845 0.00715803 0.01679984
v 0.01999994 0.00620263 0.01679982
v 0.01907319 0.00563447 0.01679983
f 18 12 17
f 17 12 13
f 17 13 15
f 15 13 14
f 15 14 16
f 16 14 1
f 16 1 26
f 26 1 2
f 26 2 25
f 25 2 3
f 25 3 24
f 3 4 24
f 24 4 5
f 24 5 23
f 23 5 6
f 23 6 22
f 22 6 7
f 22 7 21
f 21 7 8
f 21 8 20
f 20 8 9
f 20 9 19
f 19 9 10
f 19 10 18
f 18 10 11
f 18 11 12

