# https://github.com/mikedh/trimesh
v -0.00625060 0.01951586 0.00350046
v -0.00616602 0.01887436 0.00350044
v -0.00517418 0.01811360 0.00350041
v -0.00577202 0.01836110 0.00350043
v -0.00425050 0.02034477 0.00350044
v -0.00600310 0.02011370 0.00350046
v -0.00548984 0.02050769 0.00350046
v -0.00484834 0.02059227 0.00350046
v -0.00453269 0.01819818 0.00350041
v -0.00401943 0.01859217 0.00350041
v -0.00377192 0.01919001 0.00350041
v -0.00385650 0.01983151 0.00350043
v -0.00453274 0.01819824 0.00000041
v -0.00517423 0.01811366 0.00000041
v -0.00401948 0.01859224 0.00000041
v -0.00377198 0.01919008 0.00000041
v -0.00385655 0.01983157 0.00000043
v -0.00425055 0.02034484 0.00000044
v -0.00625065 0.01951592 0.00000046
v -0.00616607 0.01887442 0.00000044
v -0.00577208 0.01836116 0.00000043
v -0.00484839 0.02059234 0.00000046
v -0.00548989 0.02050776 0.00000046
v -0.00600315 0.02011376 0.00000046
f 23 7 24
f 24 7 6
f 24 6 19
f 19 6 1
f 19 1 20
f 20 1 2
f 20 2 21
f 21 2 4
f 21 4 14
f 14 4 3
f 14 3 13
f 13 3 9
f 13 9 15
f 15 9 10
f 15 10 16
f 16 10 11
f 16 11 17
f 17 11 12
f 17 12 18
f 18 12 5
f 18 5 22
f 22 5 8
f 22 8 23
f 23 8 7

