# https://github.com/mikedh/trimesh
v -0.01126289 -0.02046755 0.01679978
v -0.01126285 -0.02046759 0.01899978
v -0.00970533 -0.02048473 0.01679976
v -0.00970530 -0.02048477 0.01899976
v -0.00829457 -0.01982441 0.01679975
v -0.00829454 -0.01982445 0.01899975
v -0.00731003 -0.01861738 0.01679976
v -0.00730999 -0.01861742 0.01899976
v -0.00694669 -0.01710270 0.01679978
v -0.00694666 -0.01710274 0.01899978
v -0.00727653 -0.01558038 0.01679981
v -0.00727650 -0.01558042 0.01899981
v -0.00823421 -0.01435193 0.01679985
v -0.00823418 -0.01435197 0.01899985
v -0.00963007 -0.01366065 0.01679989
v -0.00963003 -0.01366069 0.01899989
v -0.01118762 -0.01364347 0.01679991
v -0.01118759 -0.01364351 0.01899991
v -0.01259838 -0.01430379 0.01679992
v -0.01259834 -0.01430383 0.01899992
v -0.01358293 -0.01551082 0.01679991
v -0.01358289 -0.01551086 0.01899991
v -0.01394626 -0.01702550 0.01679989
v -0.01394623 -0.01702554 0.01899989
v -0.01361642 -0.01854782 0.01679985
v -0.01361639 -0.01854786 0.01899985
v -0.01265874 -0.01977628 0.01679981
v -0.01265871 -0.01977632 0.01899981
f 1 2 3
f 3 2 4
f 3 4 5
f 5 4 6
f 5 6 7
f 7 6 8
f 7 8 9
f 9 8 10
f 9 10 11
f 11 10 12
f 11 12 13
f 13 12 14
f 13 14 15
f 15 14 16
f 15 16 17
f 17 16 18
f 17 18 19
f 19 18 20
f 19 20 21
f 21 20 22
f 21 22 23
f 23 22 24
f 23 24 25
f 25 24 26
f 25 26 27
f 27 26 28
f 27 28 1
f 1 28 2

