# https://github.com/mikedh/trimesh
v 0.02337291 0.02138641 0.02978775
v 0.02337301 0.02081306 0.02948427
v 0.02337316 0.01992542 0.02854846
v 0.02337310 0.02031835 0.02906464
v 0.02337321 0.01965264 0.02795989
v 0.02337217 0.02488202 0.02518296
v 0.02337225 0.02443558 0.02471229
v 0.02337235 0.02389840 0.02434860
v 0.02337212 0.02521684 0.02573859
v 0.02337215 0.02521852 0.02825792
v 0.02337210 0.02542525 0.02764303
v 0.02337208 0.02549495 0.02699807
v 0.02337222 0.02488445 0.02881400
v 0.02337312 0.01992335 0.02545514
v 0.02337318 0.01965136 0.02604408
v 0.02337322 0.01951232 0.02667772
v 0.02337270 0.02200763 0.02403993
v 0.02337282 0.02138267 0.02421389
v 0.02337294 0.02080973 0.02451814
v 0.02337258 0.02265536 0.02400437
v 0.02337246 0.02329560 0.02410889
v 0.02337209 0.02542438 0.02635321
v 0.02337231 0.02443865 0.02928526
v 0.02337267 0.02265938 0.02999557
v 0.02337254 0.02329948 0.02989019
v 0.02337242 0.02390196 0.02964967
v 0.02337279 0.02201159 0.02996088
v 0.02337323 0.01951276 0.02732643
v 0.02337304 0.02031559 0.02493844
v 0.02337308 0.02010546 0.02518616
v 0.02937222 0.02488559 0.02881392
v 0.02937215 0.02521967 0.02825784
v 0.02937321 0.01965378 0.02795980
v 0.02937317 0.01992656 0.02854838
v 0.02937310 0.02031949 0.02906455
v 0.02937290 0.02138755 0.02978767
v 0.02937301 0.02081420 0.02948419
v 0.02937232 0.02443979 0.02928518
v 0.02937208 0.02542553 0.02635312
v 0.02937208 0.02549610 0.02699798
v 0.02937210 0.02542639 0.02764294
v 0.02937212 0.02521798 0.02573850
v 0.02937246 0.02329675 0.02410880
v 0.02937235 0.02389955 0.02434852
v 0.02937225 0.02443672 0.02471220
v 0.02937258 0.02265651 0.02400428
v 0.02937217 0.02488316 0.02518287
v 0.02937279 0.02201273 0.02996080
v 0.02937270 0.02200877 0.02403984
v 0.02937282 0.02138382 0.02421381
v 0.02937304 0.02031673 0.02493835
v 0.02937294 0.02081087 0.02451805
v 0.02937266 0.02266052 0.02999548
v 0.02937254 0.02330062 0.02989010
v 0.02937242 0.02390310 0.02964959
v 0.02937312 0.01992449 0.02545505
v 0.02937318 0.01965250 0.02604399
v 0.02937322 0.01951390 0.02732635
v 0.02937322 0.01951347 0.02667763
f 19 29 51
f 52 19 51
f 52 18 19
f 50 18 52
f 50 17 18
f 49 17 50
f 49 20 17
f 46 20 49
f 46 21 20
f 43 21 46
f 43 8 21
f 44 8 43
f 44 7 8
f 45 7 44
f 45 6 7
f 47 6 45
f 47 9 6
f 42 9 47
f 42 22 9
f 39 22 42
f 39 12 22
f 40 12 39
f 40 11 12
f 41 11 40
f 41 10 11
f 32 10 41
f 32 13 10
f 31 13 32
f 31 23 13
f 38 23 31
f 38 26 23
f 55 26 38
f 55 25 26
f 54 25 55
f 54 24 25
f 53 24 54
f 53 27 24
f 48 27 53
f 48 1 27
f 36 1 48
f 36 2 1
f 37 2 36
f 37 4 2
f 35 4 37
f 35 3 4
f 34 3 35
f 34 5 3
f 33 5 34
f 33 28 5
f 58 28 33
f 58 16 28
f 59 16 58
f 59 15 16
f 57 15 59
f 57 14 15
f 56 14 57
f 56 30 14
f 51 30 56
f 51 29 30

