# https://github.com/mikedh/trimesh
v 0.00023301 -0.01671376 0.00219968
v 0.00176859 -0.01645255 0.00219967
v 0.00326545 -0.01688348 0.00219964
v 0.00442709 -0.01792119 0.00219960
v 0.00502345 -0.01936015 0.00219956
v 0.00493641 -0.02091536 0.00219954
v 0.00418321 -0.02227880 0.00219952
v 0.00291302 -0.02318040 0.00219952
v 0.00137743 -0.02344161 0.00219954
v -0.00011942 -0.02301069 0.00219957
v -0.00128106 -0.02197297 0.00219961
v -0.00187742 -0.02053401 0.00219964
v -0.00179038 -0.01897880 0.00219967
v -0.00103718 -0.01761537 0.00219969
v -0.00009327 -0.01866900 0.00219965
v 0.00076901 -0.01800709 0.00219965
v -0.00050907 -0.01967337 0.00219964
v -0.00036698 -0.02075109 0.00219962
v 0.00029493 -0.02161337 0.00219959
v 0.00129931 -0.02202917 0.00219957
v 0.00237702 -0.02188708 0.00219956
v 0.00323930 -0.02122516 0.00219956
v 0.00365510 -0.02022079 0.00219957
v 0.00351301 -0.01914308 0.00219959
v 0.00285110 -0.01828079 0.00219962
v 0.00184672 -0.01786500 0.00219964
f 18 12 17
f 17 12 13
f 17 13 15
f 15 13 14
f 15 14 16
f 16 14 1
f 16 1 26
f 26 1 2
f 26 2 25
f 25 2 3
f 25 3 24
f 3 4 24
f 24 4 5
f 24 5 23
f 23 5 6
f 23 6 22
f 22 6 7
f 22 7 21
f 21 7 8
f 21 8 20
f 20 8 9
f 20 9 19
f 19 9 10
f 19 10 18
f 18 10 11
f 18 11 12

