# https://github.com/mikedh/trimesh
v -0.02026445 0.00125245 0.01680032
v -0.02026442 0.00125240 0.01900032
v -0.01870690 0.00123527 0.01680030
v -0.01870687 0.00123523 0.01900030
v -0.01729614 0.00189558 0.01680029
v -0.01729611 0.00189554 0.01900029
v -0.01631159 0.00310262 0.01680030
v -0.01631156 0.00310257 0.01900030
v -0.01594825 0.00461729 0.01680032
v -0.01594822 0.00461725 0.01900032
v -0.01627809 0.00613962 0.01680035
v -0.01627806 0.00613958 0.01900035
v -0.01723578 0.00736807 0.01680039
v -0.01723575 0.00736803 0.01900039
v -0.01863163 0.00805935 0.01680042
v -0.01863160 0.00805931 0.01900042
v -0.02018918 0.00807653 0.01680045
v -0.02018915 0.00807649 0.01900045
v -0.02159994 0.00741621 0.01680045
v -0.02159991 0.00741617 0.01900045
v -0.02258449 0.00620918 0.01680045
v -0.02258446 0.00620914 0.01900045
v -0.02294783 0.00469450 0.01680042
v -0.02294780 0.00469446 0.01900042
v -0.02261799 0.00317217 0.01680039
v -0.02261796 0.00317213 0.01900039
v -0.02166030 0.00194372 0.01680035
v -0.02166027 0.00194368 0.01900035
f 1 2 3
f 1 28 2
f 27 28 1
f 27 26 28
f 25 26 27
f 25 24 26
f 23 24 25
f 23 22 24
f 21 22 23
f 21 20 22
f 19 20 21
f 19 18 20
f 17 18 19
f 17 16 18
f 15 16 17
f 15 14 16
f 13 14 15
f 13 12 14
f 11 12 13
f 11 10 12
f 9 10 11
f 9 8 10
f 7 8 9
f 7 6 8
f 5 6 7
f 5 4 6
f 3 4 5
f 3 2 4

