# https://github.com/mikedh/trimesh
v 0.03437210 0.02552811 0.02874998
v 0.03437236 0.02424699 0.03003104
v 0.03437270 0.02249699 0.03049992
v 0.03437303 0.02074699 0.03003098
v 0.03437260 0.02249712 0.02349992
v 0.03437325 0.01946593 0.02874986
v 0.03437332 0.01899705 0.02699985
v 0.03437320 0.01946599 0.02524986
v 0.03437294 0.02074711 0.02396880
v 0.03437227 0.02424711 0.02396886
v 0.03437205 0.02552817 0.02524998
v 0.03437198 0.02599705 0.02699998
v 0.03937260 0.02249807 0.02349985
v 0.03937294 0.02074806 0.02396872
v 0.03937326 0.01946688 0.02874979
v 0.03937303 0.02074794 0.03003090
v 0.03937270 0.02249794 0.03049985
v 0.03937237 0.02424795 0.03003097
v 0.03937210 0.02552906 0.02874990
v 0.03937199 0.02599800 0.02699991
v 0.03937205 0.02552912 0.02524990
v 0.03937228 0.02424806 0.02396879
v 0.03937332 0.01899800 0.02699978
v 0.03937320 0.01946695 0.02524979
f 12 20 1
f 1 20 19
f 1 19 2
f 2 19 18
f 2 18 3
f 3 18 17
f 3 17 4
f 4 17 16
f 4 16 6
f 6 16 15
f 6 15 7
f 7 15 23
f 7 23 8
f 8 23 24
f 8 24 9
f 9 24 14
f 9 14 5
f 5 14 13
f 5 13 10
f 10 13 22
f 10 22 11
f 11 22 21
f 11 21 12
f 12 21 20

