# https://github.com/mikedh/trimesh
v -0.00856382 -0.00661707 0.01900000
v -0.01047315 -0.00581118 0.01900004
v -0.01253658 -0.00600405 0.01900007
v -0.01426348 -0.00714982 0.01900007
v -0.01524321 -0.00897604 0.01900006
v -0.01524282 -0.01104847 0.01900002
v -0.01426239 -0.01287431 0.01899997
v -0.01312129 -0.01376146 0.01899993
v 0.01379666 0.00846187 0.01749996
v 0.01372746 0.00754714 0.01749994
v 0.01372748 0.00754711 0.01899994
v 0.01431171 0.00536361 0.01899989
v 0.01393008 0.00627180 0.01749991
v 0.01431168 0.00536363 0.01749989
v 0.01583898 0.00369734 0.01899984
v 0.01503355 0.00437535 0.01749986
v 0.01583896 0.00369737 0.01749984
v 0.01421857 0.00975346 0.01749998
v 0.01421859 0.00975343 0.01899998
v 0.01466175 0.01047825 0.01749998
v 0.01567385 0.01148296 0.01899999
v 0.01567382 0.01148299 0.01749999
v 0.01634078 0.01189071 0.01749998
v 0.01776370 0.01234407 0.01899997
v 0.01776368 0.01234409 0.01749997
v 0.01847548 0.01239787 0.01749996
v 0.02001495 0.01214177 0.01899994
v 0.02001493 0.01214180 0.01749993
v 0.02266323 0.00837779 0.01699983
v 0.02254460 0.00641821 0.01699979
v 0.01990548 0.00682315 0.01699984
v 0.02155793 0.00472101 0.01699977
v 0.01930165 0.00621909 0.01699984
v 0.02004557 0.00369818 0.01699978
v 0.01847670 0.00599788 0.01699984
v 0.01690870 0.00369758 0.01699982
v 0.01765165 0.00621878 0.01699986
v 0.01539595 0.00471984 0.01699986
v 0.01704760 0.00682261 0.01699988
v 0.01440863 0.00641666 0.01699991
v 0.01682638 0.00764756 0.01699990
v 0.01428925 0.00837619 0.01699995
v 0.01704728 0.00847261 0.01699991
v 0.01506329 0.01018032 0.01699997
v 0.01765111 0.00907666 0.01699991
v 0.01656557 0.01144410 0.01699997
v 0.01847607 0.00929788 0.01699990
v 0.01847557 0.01189788 0.01699995
v 0.01930111 0.00907698 0.01699989
v 0.02038574 0.01144483 0.01699992
v 0.01990517 0.00847315 0.01699987
v 0.02188851 0.01018162 0.01699987
v 0.02012638 0.00764819 0.01699985
v -0.01863471 0.00048440 0.01900028
v -0.01981896 0.00888964 0.01900046
v -0.01772015 0.00853877 0.01900042
v -0.01605451 0.00721449 0.01900037
v -0.01523957 0.00524880 0.01900032
v -0.01547966 0.00313445 0.01900028
v -0.01671456 0.00140151 0.01900027
v -0.02075875 0.00061303 0.01900031
v -0.02255420 0.00175515 0.01900036
v -0.02357096 0.00362445 0.01900041
v -0.02355414 0.00575231 0.01900045
v -0.01229176 -0.02089263 0.01899979
v -0.00673969 -0.01914319 0.01899974
v -0.00820076 -0.02067238 0.01899973
v -0.01021797 -0.02130800 0.01899975
v -0.01390856 -0.01952915 0.01899984
v -0.01466798 -0.01755521 0.01899989
v -0.01438194 -0.01545966 0.01899992
v -0.02392160 -0.00791400 0.02400020
v -0.02287155 -0.00819515 0.02400018
v -0.02210275 -0.00896365 0.02400015
v -0.02182120 -0.01001360 0.02400013
v -0.02210234 -0.01106365 0.02400012
v -0.02287085 -0.01183245 0.02400011
v -0.02392080 -0.01211400 0.02400012
v -0.02497085 -0.01183285 0.02400014
v -0.02573965 -0.01106435 0.02400017
v -0.02602120 -0.01001440 0.02400019
v -0.02574005 -0.00896434 0.02400021
v -0.02497155 -0.00819554 0.02400021
v -0.01112541 0.01208844 0.02400039
v -0.01007536 0.01180729 0.02400037
v -0.00930656 0.01103879 0.02400034
v -0.00902501 0.00998884 0.02400032
v -0.00930616 0.00893879 0.02400030
v -0.01007466 0.00816999 0.02400030
v -0.01112461 0.00788844 0.02400031
v -0.01217466 0.00816959 0.02400033
v -0.01294346 0.00893809 0.02400036
v -0.01322501 0.00998804 0.02400038
v -0.01294386 0.01103809 0.02400040
v -0.01217536 0.01180689 0.02400040
v -0.02392541 0.01208600 0.02400058
v -0.02287536 0.01180485 0.02400055
v -0.02210655 0.01103635 0.02400053
v -0.02182501 0.00998640 0.02400050
v -0.02210616 0.00893635 0.02400049
v -0.02287466 0.00816755 0.02400049
v -0.02392461 0.00788600 0.02400050
v -0.02497466 0.00816715 0.02400052
v -0.02574346 0.00893565 0.02400054
v -0.02602501 0.00998560 0.02400057
v -0.02574386 0.01103565 0.02400058
v -0.02497536 0.01180445 0.02400059
v -0.01112160 -0.00791156 0.02400002
v -0.01007155 -0.00819271 0.02399999
v -0.00930275 -0.00896121 0.02399997
v -0.00902120 -0.01001116 0.02399994
v -0.00930235 -0.01106121 0.02399993
v -0.01007085 -0.01183001 0.02399993
v -0.01112080 -0.01211156 0.02399994
v -0.01217085 -0.01183041 0.02399996
v -0.01293965 -0.01106191 0.02399998
v -0.01322120 -0.01001196 0.02400001
v -0.01294005 -0.00896191 0.02400002
v -0.01217155 -0.00819311 0.02400002
v -0.02242019 -0.01840290 0.02649998
v -0.01855262 -0.02229818 0.02649985
v -0.01822162 -0.02060581 0.02649988
v -0.02387196 -0.01501404 0.02650007
v -0.02389526 -0.01501404 0.02650007
v -0.02348358 -0.01509246 0.02650006
v -0.02315614 -0.01531556 0.02650005
v -0.02134223 -0.01735142 0.02649999
v -0.01789992 -0.02153115 0.02649986
v -0.01793969 -0.02102639 0.02649987
v -0.01811249 -0.02199070 0.02649985
v -0.01842236 -0.02224171 0.02649985
v -0.02434768 -0.01512233 0.02650007
v -0.02470216 -0.01542361 0.02650007
v -0.02486241 -0.01576058 0.02650007
v -0.02242719 0.01837539 0.02650067
v -0.02387767 0.01498596 0.02650063
v -0.02348932 0.01506453 0.02650063
v 0.00837226 0.02453171 0.02650034
v 0.00837141 0.02899211 0.02650042
v 0.00829923 0.02515063 0.02650035
v 0.00825310 0.02532958 0.02650035
v -0.02486841 0.01573213 0.02650066
v -0.02470803 0.01539522 0.02650065
v 0.00781331 0.02623583 0.02650038
v 0.00791608 0.02608223 0.02650037
v 0.00795712 0.02601464 0.02650037
v -0.02390097 0.01498596 0.02650063
v -0.02435344 0.01509408 0.02650064
v 0.00686092 0.02709628 0.02650041
v 0.00636500 0.02732261 0.02650042
v 0.00618880 0.02737834 0.02650042
v 0.00709834 0.02694542 0.02650040
v 0.00724616 0.02683450 0.02650040
v -0.02316197 0.01528776 0.02650062
v -0.02134883 0.01732432 0.02650063
v -0.01884430 0.02203314 0.02650069
v -0.01794803 0.02082568 0.02650065
v -0.01467397 0.02500377 0.02650068
v -0.01398177 0.02367065 0.02650065
v -0.01004620 0.02719467 0.02650066
v -0.00957502 0.02576960 0.02650062
v -0.00510525 0.02853753 0.02650061
v -0.00486660 0.02705640 0.02650058
v -0.00000514 0.02899051 0.02650054
v -0.00000485 0.02749051 0.02650051
v 0.00537194 0.02749154 0.02650044
v -0.03499985 0.00099030 0.02350053
v -0.03499991 0.00099038 0.01900053
v -0.03499946 -0.00102250 0.02350049
v -0.03499953 -0.00102241 0.01900049
v -0.02867152 0.01323252 0.02350067
v -0.02867159 0.01323261 0.01900067
v -0.03131903 0.01083589 0.01900066
v -0.03131896 0.01083580 0.02350066
v -0.03332489 0.00788127 0.01900063
v -0.03332482 0.00788119 0.02350063
v -0.03457548 0.00453624 0.01900059
v -0.03457541 0.00453615 0.02350059
v -0.03457374 -0.00456811 0.01900042
v -0.03457368 -0.00456819 0.02350042
v -0.03332188 -0.00791266 0.01900034
v -0.03332182 -0.00791275 0.02350034
v -0.03131489 -0.01086651 0.01900025
v -0.03131483 -0.01086660 0.02350025
v -0.02866654 -0.01326223 0.01900017
v -0.02866647 -0.01326231 0.02350017
v -0.02134226 -0.01735138 0.02399999
v -0.02315617 -0.01531551 0.02400005
v -0.02316200 0.01528780 0.02400062
v -0.02134887 0.01732436 0.02400064
v 0.02289354 0.00590099 0.01899978
v 0.02289375 0.00590073 0.03299978
v 0.02255922 0.00521964 0.03299977
v 0.02315581 0.00846365 0.01749982
v 0.02293194 0.00929427 0.01899984
v 0.02320664 0.00721488 0.01899980
v 0.02178847 0.01105266 0.01749989
v 0.02178849 0.01105264 0.01899989
v 0.02228995 0.01047970 0.01749987
v 0.02293192 0.00929430 0.01749984
v 0.02111555 0.00369808 0.03299976
v 0.02111532 0.00369837 0.01749976
v 0.02234161 0.00488637 0.03299977
v 0.02192047 0.00437666 0.01749976
v 0.02255899 0.00521993 0.01749977
v 0.02302322 0.00627354 0.01749978
v 0.02320662 0.00721491 0.01749980
v 0.00723731 0.00012043 0.05399942
v 0.00723736 -0.00014667 0.05399942
v 0.01203731 0.00012134 0.05399936
v 0.01203736 -0.00014575 0.05399935
v 0.00723909 -0.01001279 0.04410631
v 0.00723530 0.00798655 0.01900004
v 0.00723623 0.00307648 0.01899995
v 0.00723880 -0.01001336 0.02399971
v 0.00724025 -0.01801326 0.01899956
v 0.00724032 -0.01801336 0.02399956
v 0.00724003 -0.01686203 0.01899958
v 0.00723951 -0.01375946 0.02399964
v 0.00723844 -0.00848703 0.01899974
v 0.00723733 -0.00267352 0.01899984
v 0.00723537 0.00798646 0.02400004
v 0.00723904 -0.00950569 0.04714567
v 0.00723881 -0.00809735 0.04988637
v 0.00723843 -0.00592147 0.05206820
v 0.00723793 -0.00318463 0.05348403
v 0.00723499 0.00998646 0.02400008
v 0.00723672 0.00316034 0.05348350
v 0.00723618 0.00589859 0.05206601
v 0.00723573 0.00807486 0.04988173
v 0.00723542 0.00948227 0.04713829
v 0.00723528 0.00998702 0.04409650
v 0.01203894 -0.01001217 0.03357138
v 0.01203909 -0.01001187 0.04410624
v 0.01137894 -0.01001230 0.03349965
v 0.01137880 -0.01001257 0.02399965
v 0.01203833 -0.00601202 0.04399971
v 0.01203827 -0.00549334 0.04644014
v 0.01203802 -0.00402688 0.04845862
v 0.01203762 -0.00186623 0.04970613
v 0.01203716 0.00061504 0.04996696
v 0.01203669 0.00298788 0.04919603
v 0.01203631 0.00484202 0.04752663
v 0.01203609 0.00585684 0.04524740
v 0.01203605 0.00585689 0.04275246
v 0.01203621 0.00484215 0.04047320
v 0.01203654 0.00298808 0.03880373
v 0.01203698 0.00061526 0.03803270
v 0.01203746 -0.00186601 0.03829345
v 0.01203789 -0.00402672 0.03954088
v 0.01203820 -0.00549324 0.04155930
v 0.01203528 0.00998794 0.04409643
v 0.01203542 0.00948319 0.04713822
v 0.01203573 0.00807578 0.04988166
v 0.01203618 0.00589951 0.05206595
v 0.01203672 0.00316126 0.05348343
v 0.01203793 -0.00318372 0.05348396
v 0.01203843 -0.00592056 0.05206813
v 0.01203881 -0.00809644 0.04988630
v 0.01203904 -0.00950478 0.04714560
v 0.00424082 -0.02101383 0.01899954
v 0.00424090 -0.02101393 0.02399955
v 0.00574075 -0.02061163 0.01899953
v 0.00574082 -0.02061172 0.02399953
v 0.00683861 -0.01951334 0.01899954
v 0.00683869 -0.01951343 0.02399954
v -0.00545925 -0.02061376 0.01899969
v -0.00634216 -0.02039102 0.01899971
v -0.00655754 -0.01951589 0.01899973
v 0.01136498 -0.01128881 0.01899962
v 0.00972678 -0.01249471 0.01899962
v 0.01038965 -0.00848643 0.01899969
v -0.03158704 0.00306909 0.01900052
v -0.02392427 0.00573609 0.01900046
v 0.03287465 0.01139884 0.01899973
v 0.03397252 0.01249712 0.01899974
v 0.03937397 0.01496733 0.01899971
v 0.03137473 0.01099663 0.01899975
v 0.03287575 0.00559499 0.01899962
v 0.03397404 0.00449712 0.01899959
v 0.03437625 0.00299720 0.01899955
v 0.02363869 0.00599515 0.01899977
v 0.02237473 0.01099491 0.01899988
v 0.03137568 0.00599663 0.01899965
v 0.03937624 0.00308261 0.01899948
v 0.03937733 -0.00266739 0.01899938
v 0.03437733 -0.00266835 0.01899945
v 0.03937844 -0.00848091 0.01899927
v 0.03397576 -0.00450288 0.01899942
v 0.03437739 -0.00300280 0.01899944
v 0.01038854 -0.00267292 0.01899980
v 0.01203739 -0.00300706 0.01899977
v 0.01243960 -0.00450698 0.01899973
v 0.01353789 -0.00560485 0.01899970
v 0.01503797 -0.00600648 0.01899967
v 0.03137796 -0.00600337 0.01899943
v 0.03287789 -0.00560116 0.01899942
v 0.01038744 0.00307708 0.01899991
v 0.01203669 0.00069661 0.01899984
v 0.01203733 -0.00267260 0.01899977
v 0.01937397 0.01496352 0.01900000
v 0.01937415 0.01399434 0.01899998
v 0.01977636 0.01249442 0.01899995
v 0.01503612 0.00369718 0.01899985
v 0.01353619 0.00329498 0.01899986
v 0.01243833 0.00219669 0.01899986
v 0.01038518 0.01496180 0.01900013
v 0.01038241 0.02949263 0.01900040
v 0.01287120 0.02949310 0.01900036
v 0.01362116 0.02969421 0.01900036
v 0.01417010 0.03024335 0.01900036
v 0.01937044 0.03349434 0.01900034
v 0.01955567 0.03453273 0.01900036
v 0.03437416 0.01399720 0.01899976
v 0.03437397 0.01496637 0.01899978
v 0.03937044 0.03349815 0.01900005
v 0.03437044 0.03349720 0.01900013
v 0.03908650 0.03560908 0.01900010
v 0.03418481 0.03453552 0.01900015
v 0.03791476 0.03809792 0.01900016
v 0.03349136 0.03561835 0.01900018
v 0.03761449 0.03849782 0.01900017
v 0.03240826 0.03631140 0.01900021
v 0.03136987 0.03649663 0.01900022
v 0.02236987 0.03649491 0.01900036
v 0.01612449 0.03849372 0.01900049
v 0.02133155 0.03630929 0.01900037
v 0.02024872 0.03561583 0.01900037
v 0.01437092 0.03099339 0.01900037
v 0.01437044 0.03349339 0.01900042
v 0.01465358 0.03560443 0.01900045
v 0.01582437 0.03809371 0.01900048
v 0.00798241 0.02949217 0.01900044
v 0.00798518 0.01496135 0.01900016
v 0.00495334 0.02949160 0.01900048
v 0.00495611 0.01496077 0.01900021
v -0.00000534 0.02949065 0.01900055
v 0.00073415 0.02349814 0.01900043
v -0.00118889 0.02416133 0.01900047
v -0.00157351 0.02417870 0.01900047
v -0.00519338 0.02902986 0.01900062
v -0.00319985 0.02385488 0.01900049
v -0.01021953 0.02766384 0.01900067
v -0.00483806 0.02264898 0.01900049
v -0.00572821 0.02081990 0.01900047
v -0.00634889 0.01495862 0.01900037
v -0.00566638 0.01878666 0.01900043
v -0.00466675 0.01701504 0.01900039
v -0.00295830 0.01591091 0.01900034
v -0.00093243 0.01572721 0.01900031
v 0.00094677 0.01650601 0.01900030
v 0.00224878 0.01806891 0.01900030
v 0.00267534 0.02005787 0.01900034
v 0.00212872 0.02201724 0.01900038
v -0.01492709 0.02543518 0.01900069
v -0.01752603 0.01495649 0.01900054
v -0.02555980 0.01576624 0.01900067
v -0.02281399 0.01869250 0.01900068
v -0.01916932 0.02241333 0.01900070
v -0.01995155 0.01149392 0.01900051
v -0.01970597 0.00947462 0.01900047
v -0.02110742 0.01316780 0.01900055
v -0.02290878 0.01411279 0.01900060
v -0.02494296 0.01411240 0.01900063
v -0.02674396 0.01316673 0.01900064
v -0.02789919 0.01149241 0.01900062
v -0.02814400 0.00947301 0.01900059
v -0.02742230 0.00757115 0.01900054
v -0.02589944 0.00622253 0.01900049
v -0.03158594 -0.00268091 0.01900041
v -0.03158484 -0.00849442 0.01900030
v -0.02392046 -0.01426390 0.01900008
v -0.02194548 -0.01377672 0.01900006
v -0.01751997 -0.01686675 0.01899994
v -0.02042313 -0.01242751 0.01900006
v -0.01752156 -0.00849175 0.01900010
v -0.01970216 -0.01052538 0.01900009
v -0.01994774 -0.00850608 0.01900013
v -0.02555379 -0.01579467 0.01900008
v -0.01751930 -0.02039315 0.01899987
v -0.02280686 -0.01871989 0.01899998
v -0.01020898 -0.02768643 0.01899963
v -0.00636198 -0.02881511 0.01899955
v -0.01491739 -0.02545956 0.01899974
v -0.01916078 -0.02243933 0.01899986
v 0.01938320 -0.03350566 0.01899909
v 0.01418162 -0.03025665 0.01899923
v 0.01938070 -0.02038612 0.01899934
v 0.01363248 -0.02970771 0.01899925
v 0.01039191 -0.02038783 0.01899947
v 0.01547738 -0.03754359 0.01899907
v 0.01466715 -0.03561754 0.01899912
v 0.01956883 -0.03454397 0.01899907
v 0.01438320 -0.03350661 0.01899916
v 0.01438273 -0.03100661 0.01899921
v 0.02026229 -0.03562681 0.01899904
v 0.02134539 -0.03631986 0.01899901
v 0.02238378 -0.03650508 0.01899899
v 0.03792928 -0.03810216 0.01899873
v 0.03762915 -0.03850218 0.01899873
v 0.01613916 -0.03850627 0.01899904
v 0.01583888 -0.03810637 0.01899906
v 0.03829057 -0.03753925 0.01899874
v 0.03138378 -0.03650337 0.01899886
v 0.03938071 -0.02038231 0.01899904
v 0.03438003 -0.01685686 0.01899918
v 0.03938003 -0.01685591 0.01899911
v 0.03437949 -0.01400280 0.01899924
v 0.03397728 -0.01250288 0.01899927
v 0.03287899 -0.01140501 0.01899931
v 0.01978113 -0.01250558 0.01899948
v 0.01669356 -0.01312646 0.01899951
v 0.01529899 -0.01164555 0.01899956
v 0.01299133 -0.01096499 0.01899961
v 0.03137892 -0.01100337 0.01899934
v 0.02237892 -0.01100508 0.01899947
v 0.02087899 -0.01140729 0.01899948
v 0.01337595 -0.01098236 0.01899960
v 0.03242209 -0.03631775 0.01899885
v 0.03350493 -0.03562428 0.01899884
v 0.03910006 -0.03561288 0.01899876
v 0.03419797 -0.03454119 0.01899886
v 0.03938320 -0.03350185 0.01899880
v 0.03438320 -0.03350280 0.01899887
v 0.03438070 -0.02038326 0.01899912
v 0.01724017 -0.01508582 0.01899947
v 0.01937949 -0.01400566 0.01899946
v 0.01681362 -0.01707478 0.01899944
v 0.01938003 -0.01685972 0.01899940
v 0.01551160 -0.01863768 0.01899943
v 0.01363241 -0.01941649 0.01899944
v 0.01160654 -0.01923278 0.01899947
v 0.00799124 -0.01686189 0.01899957
v 0.00889845 -0.01635703 0.01899957
v 0.00989809 -0.01812865 0.01899952
v 0.00883663 -0.01432379 0.01899960
v 0.00798965 -0.00848689 0.01899973
v -0.00696377 0.00307378 0.01900016
v -0.00914929 0.00622572 0.01900025
v -0.00762694 0.00757492 0.01900025
v -0.01112427 0.00573853 0.01900027
v -0.00830742 0.01317024 0.01900037
v -0.00715155 0.01149636 0.01900032
v -0.00546520 0.01058221 0.01900028
v -0.00690597 0.00947706 0.01900028
v -0.00656306 0.00948392 0.01900027
v -0.00696470 0.00798384 0.01900025
v -0.01214296 0.01411484 0.01900044
v -0.01112589 0.01423853 0.01900043
v -0.01010878 0.01411523 0.01900041
v -0.01509919 0.01149485 0.01900044
v -0.01394396 0.01316917 0.01900045
v -0.01534400 0.00947545 0.01900040
v -0.01462230 0.00757359 0.01900036
v -0.01309944 0.00622497 0.01900031
v -0.00696267 -0.00267622 0.01900005
v -0.01752267 -0.00267823 0.01900021
v -0.02110361 -0.00683220 0.01900018
v -0.02674015 -0.00683327 0.01900026
v -0.02789538 -0.00850759 0.01900025
v -0.02814019 -0.01052699 0.01900021
v -0.02741849 -0.01242885 0.01900017
v -0.02589563 -0.01377747 0.01900012
v -0.02290497 -0.00588721 0.01900022
v -0.02392208 -0.00576391 0.01900024
v -0.02493915 -0.00588760 0.01900025
v 0.00573480 0.01058434 0.01900011
v 0.00423473 0.01098598 0.01900014
v -0.00396527 0.01098442 0.01900026
v 0.00798854 -0.00267337 0.01899983
v 0.00798744 0.00307663 0.01899994
v 0.00683309 0.00948647 0.01900008
v 0.00799191 -0.02038829 0.01899950
v 0.01288244 -0.02950690 0.01899926
v 0.01039365 -0.02950737 0.01899930
v 0.00799365 -0.02950783 0.01899933
v 0.00496458 -0.02950840 0.01899938
v 0.00000590 -0.02950935 0.01899945
v -0.00395918 -0.02101540 0.01899966
v -0.00518232 -0.02905054 0.01899953
v -0.00772342 -0.00678949 0.01899999
v -0.00816305 -0.00679798 0.01899999
v -0.00696207 -0.00581819 0.01899999
v -0.00705866 -0.00624717 0.01899999
v -0.00732993 -0.00659324 0.01899998
v 0.02363889 0.00599489 0.03299977
v 0.03137589 0.00599637 0.03299965
v -0.01488623 -0.02431252 0.02399976
v -0.01550568 -0.02311380 0.02399979
v -0.01812381 -0.02200410 0.02399985
v -0.00696049 -0.01376217 0.02399984
v -0.00696264 -0.00245131 0.02400006
v -0.00891090 -0.00245169 0.02400008
v -0.02550242 0.01513936 0.02400066
v -0.02470806 0.01539527 0.02400065
v -0.02486845 0.01573218 0.02400066
v -0.03288065 0.00765158 0.02400062
v -0.03026273 0.00709425 0.02400057
v -0.03094165 0.01050770 0.02400065
v -0.01811253 -0.02199065 0.02399985
v -0.00962164 -0.01563513 0.02399985
v -0.00901759 -0.01623896 0.02399983
v -0.00890874 -0.01376254 0.02399987
v -0.01209637 -0.01706455 0.02399986
v -0.01265874 -0.01376325 0.02399993
v -0.01265696 -0.02311325 0.02399975
v -0.00901727 -0.01788896 0.02399980
v -0.00962110 -0.01849302 0.02399980
v -0.00890696 -0.02311254 0.02399970
v -0.01044606 -0.01871423 0.02399980
v -0.01187547 -0.01623951 0.02399987
v -0.01127164 -0.01563545 0.02399987
v -0.01044669 -0.01541424 0.02399986
v -0.01127110 -0.01849333 0.02399982
v -0.01187516 -0.01788951 0.02399984
v -0.00600482 -0.02311199 0.02399966
v -0.00545918 -0.02061385 0.02399969
v -0.00655747 -0.01951599 0.02399973
v -0.00695967 -0.01801606 0.02399977
v -0.01266426 0.01518232 0.02400047
v -0.00891426 0.01518303 0.02400041
v -0.01266272 0.00709760 0.02400032
v -0.00891272 0.00709831 0.02400026
v -0.01551143 0.00709706 0.02400036
v -0.01551297 0.01518178 0.02400051
v -0.01266090 -0.00245240 0.02400014
v -0.01550961 -0.00245294 0.02400018
v -0.01550746 -0.01376380 0.02399997
v -0.01822165 -0.02060576 0.02399988
v -0.01793973 -0.02102634 0.02399987
v -0.01789995 -0.02153111 0.02399986
v -0.02722789 -0.01370936 0.02400014
v -0.02486245 -0.01576054 0.02400007
v -0.02470219 -0.01542356 0.02400007
v -0.02145746 -0.01376493 0.02400006
v -0.02348361 -0.01509241 0.02400006
v -0.02434772 -0.01512229 0.02400007
v -0.02389530 -0.01501399 0.02400007
v -0.02387200 -0.01501399 0.02400007
v -0.03026091 -0.00245575 0.02400040
v -0.02145961 -0.00245408 0.02400027
v -0.02837757 -0.01285423 0.02400017
v -0.03093764 -0.01053837 0.02400025
v -0.03449984 0.00099039 0.02400052
v -0.03449946 -0.00102241 0.02400048
v -0.03408787 -0.00444991 0.02400041
v -0.03287773 -0.00768299 0.02400034
v -0.03408955 0.00441804 0.02400058
v -0.02435347 0.01509413 0.02400064
v -0.02146297 0.01518064 0.02400060
v -0.02146143 0.00709592 0.02400045
v -0.02390101 0.01498601 0.02400063
v -0.01794806 0.02082573 0.02400065
v -0.02348936 0.01506458 0.02400062
v -0.02387771 0.01498601 0.02400063
v -0.02838246 0.01282453 0.02400065
v -0.00074736 0.01849982 0.02400036
v -0.00157231 0.01827861 0.02400037
v -0.00601212 0.01518359 0.02400037
v -0.00074790 0.02135771 0.02400041
v 0.00837337 0.01848714 0.02400022
v 0.00837223 0.02449215 0.02400034
v 0.01397183 0.01648821 0.02400010
v 0.01287354 0.01758608 0.02400014
v 0.01437404 0.01498829 0.02400007
v 0.01137347 0.01798771 0.02400017
v 0.00887347 0.01798724 0.02400021
v -0.00239736 0.01849951 0.02400038
v -0.00300141 0.01910333 0.02400040
v -0.00322263 0.01992829 0.02400042
v -0.01398181 0.02367070 0.02400065
v -0.00957505 0.02576965 0.02400062
v -0.00603542 0.02682001 0.02400059
v -0.00014353 0.01910388 0.02400036
v 0.00007737 0.01992892 0.02400037
v -0.00014384 0.02075388 0.02400039
v -0.00300173 0.02075333 0.02400043
v -0.00239790 0.02135739 0.02400043
v -0.00486664 0.02705645 0.02400058
v -0.00157294 0.02157860 0.02400043
v -0.00000489 0.02749056 0.02400051
v 0.00537166 0.02749158 0.02400044
v 0.00797002 0.02599208 0.02400037
v 0.00687173 0.02708994 0.02400041
v 0.00683316 0.00948638 0.02400008
v -0.00396520 0.01098432 0.02400026
v 0.00423480 0.01098588 0.02400014
v 0.00573488 0.01058425 0.02400011
v 0.01437442 0.01298782 0.02400003
v 0.01137499 0.00998724 0.02400002
v 0.01241331 0.01017287 0.02400001
v 0.01349614 0.01086633 0.02400001
v 0.01418919 0.01194943 0.02400002
v -0.00696446 0.00709869 0.02400023
v -0.00696463 0.00798375 0.02400025
v -0.00656299 0.00948383 0.02400027
v -0.00546512 0.01058211 0.02400028
v -0.00879637 -0.01706392 0.02399981
v 0.00888032 -0.01801257 0.02399953
v 0.00838042 -0.01851267 0.02399953
v 0.00838130 -0.02310925 0.02399945
v 0.01216694 -0.01378630 0.02399956
v 0.01156311 -0.01439036 0.02399956
v 0.01134221 -0.01521540 0.02399955
v 0.01156342 -0.01604036 0.02399953
v 0.01216748 -0.01664419 0.02399951
v 0.01158774 -0.01801206 0.02399949
v 0.01299252 -0.01686509 0.02399950
v 0.01275297 -0.01777628 0.02399948
v 0.01381748 -0.01664387 0.02399949
v 0.01373512 -0.01710640 0.02399948
v 0.01437996 -0.01610763 0.02399949
v -0.00395910 -0.02101549 0.02399966
v 0.01241719 -0.01019779 0.02399963
v 0.01299189 -0.01356509 0.02399956
v 0.01350029 -0.01089084 0.02399960
v 0.01419375 -0.01197368 0.02399957
v 0.01437937 -0.01301200 0.02399955
v 0.01381694 -0.01378599 0.02399954
v 0.01437951 -0.01375810 0.02399953
v 0.01437962 -0.01432201 0.02399952
v 0.00538213 -0.02750842 0.02399941
v 0.00688206 -0.02710621 0.02399939
v 0.00797992 -0.02600792 0.02399940
v 0.00838156 -0.02450784 0.02399942
v 0.00000559 -0.02750944 0.02399949
v -0.00512137 -0.02702829 0.02399957
v -0.01006874 -0.02559974 0.02399967
v -0.01058307 -0.02554134 0.02399968
v -0.01135888 -0.02614788 0.02399968
v -0.01135202 -0.02613172 0.02399968
v -0.01105770 -0.02574793 0.02399968
v -0.01862266 0.00322698 0.02400033
v -0.01944762 0.00300576 0.02400034
v -0.02027266 0.00322666 0.02400036
v -0.02087672 0.00383049 0.02400038
v -0.02109794 0.00465545 0.02400040
v -0.02087704 0.00548049 0.02400041
v -0.02027321 0.00608455 0.02400041
v -0.01944825 0.00630576 0.02400040
v -0.01862321 0.00608486 0.02400039
v -0.01801915 0.00548103 0.02400037
v -0.01779794 0.00465608 0.02400035
v -0.01801884 0.00383103 0.02400033
v 0.01438010 -0.01610781 0.03349949
v 0.01438007 -0.01610778 0.03149949
v 0.01438027 -0.01712152 0.03199947
v 0.01438291 -0.03100684 0.03149921
v 0.01438340 -0.03350686 0.03254859
v 0.01438303 -0.03148964 0.03325851
v 0.01438263 -0.02936474 0.03349924
v 0.01438267 -0.02968398 0.03199923
v 0.01438280 -0.03039791 0.03161811
v 0.01437110 0.03099316 0.03150037
v 0.01437062 0.03349315 0.03161346
v 0.01437415 0.01498814 0.03150007
v 0.01437455 0.01298806 0.03266696
v 0.01437102 0.03148805 0.03239970
v 0.01437122 0.03038422 0.03161925
v 0.01437143 0.02935100 0.03266727
v 0.01437136 0.02967027 0.03200034
v 0.01437381 0.01679091 0.03200011
v 0.01437392 0.01620601 0.03173787
v 0.00000563 -0.02750949 0.02649949
v -0.00512133 -0.02702833 0.02649957
v -0.01006870 -0.02559979 0.02649967
v -0.01142594 -0.02666355 0.02649967
v 0.00838161 -0.02454750 0.02649942
v 0.00825764 -0.02536279 0.02649941
v 0.00838246 -0.02900789 0.02649934
v 0.00819959 -0.02553823 0.02649940
v 0.00796704 -0.02603058 0.02649940
v 0.00781274 -0.02626653 0.02649940
v 0.00769989 -0.02641286 0.02649939
v -0.01058303 -0.02554139 0.02649968
v -0.01105766 -0.02574797 0.02649968
v -0.01136541 -0.02616420 0.02649968
v 0.00709378 -0.02697206 0.02649939
v 0.00693885 -0.02707279 0.02649939
v 0.00618181 -0.02739984 0.02649940
v -0.00777819 -0.02794681 0.02649959
v -0.00392229 -0.02874296 0.02649952
v 0.00000591 -0.02900949 0.02649946
v 0.00538242 -0.02750846 0.02649941
v 0.00600228 -0.02744361 0.02649940
v -0.01080105 -0.02746084 0.02299964
v -0.02280676 -0.01872002 0.02599998
v -0.01954686 -0.02210371 0.02599987
v -0.01954691 -0.02210366 0.02299987
v -0.01540858 -0.02516524 0.02299975
v -0.01491733 -0.02545963 0.02299974
v -0.01080101 -0.02746089 0.02599964
v -0.01020888 -0.02768656 0.02599963
v -0.00791231 -0.02842847 0.02599958
v -0.00518222 -0.02905067 0.02599953
v -0.00398993 -0.02923836 0.02599951
v 0.00000600 -0.02950948 0.02599945
v 0.01637208 0.02549362 0.02700024
v 0.01937208 0.02549419 0.02700019
v 0.01637218 0.02509167 0.02850023
v 0.01937218 0.02509224 0.02850019
v 0.01637240 0.02399357 0.02959829
v 0.01937241 0.02399414 0.02959824
v 0.01637270 0.02249357 0.03000018
v 0.01937270 0.02249414 0.03000014
v 0.01637298 0.02099357 0.02959823
v 0.01937298 0.02099414 0.02959819
v 0.01637317 0.01989552 0.02850013
v 0.01937317 0.01989609 0.02850009
v 0.01637322 0.01949362 0.02700013
v 0.01937323 0.01949419 0.02700008
v 0.01637313 0.01989557 0.02550013
v 0.01937313 0.01989614 0.02550009
v 0.01637290 0.02099367 0.02440208
v 0.01937290 0.02099424 0.02440203
v 0.01637261 0.02249368 0.02400018
v 0.01937261 0.02249425 0.02400014
v 0.01637233 0.02399367 0.02440213
v 0.01937233 0.02399424 0.02440209
v 0.01637213 0.02509173 0.02550023
v 0.01937214 0.02509230 0.02550019
v 0.01638065 -0.01950638 0.02699940
v 0.01938065 -0.01950581 0.02699935
v 0.01638075 -0.01990833 0.02849939
v 0.01938075 -0.01990776 0.02849934
v 0.01638098 -0.02100643 0.02959744
v 0.01938098 -0.02100585 0.02959740
v 0.01638127 -0.02250643 0.02999934
v 0.01938127 -0.02250586 0.02999930
v 0.01638155 -0.02400643 0.02959739
v 0.01938155 -0.02400585 0.02959735
v 0.01638174 -0.02510448 0.02849929
v 0.01938174 -0.02510391 0.02849925
v 0.01638180 -0.02550638 0.02699928
v 0.01938180 -0.02550581 0.02699924
v 0.01638170 -0.02510443 0.02549929
v 0.01938170 -0.02510385 0.02549925
v 0.01638147 -0.02400633 0.02440124
v 0.01938147 -0.02400576 0.02440119
v 0.01638118 -0.02250632 0.02399934
v 0.01938118 -0.02250575 0.02399930
v 0.01638090 -0.02100633 0.02440129
v 0.01938090 -0.02100576 0.02440125
v 0.01638071 -0.01990827 0.02549939
v 0.01938071 -0.01990770 0.02549935
v 0.01442145 -0.01603999 0.03354085
v 0.01442121 -0.01603968 0.01699949
v 0.01381738 -0.01664374 0.01699949
v 0.01299242 -0.01686496 0.01699949
v 0.01216738 -0.01664405 0.01699951
v 0.01156332 -0.01604023 0.01699953
v 0.01134211 -0.01521527 0.01699955
v 0.01156301 -0.01439023 0.01699956
v 0.01216683 -0.01378617 0.01699957
v 0.01299179 -0.01356496 0.01699956
v 0.01381683 -0.01378586 0.01699954
v 0.01442089 -0.01438968 0.01699952
v 0.01437976 -0.01432219 0.03349952
v 0.01441955 -0.01438726 0.03353930
v 0.01458605 -0.01478791 0.03370570
v 0.01464211 -0.01521464 0.01699950
v 0.01464235 -0.01521495 0.03376192
v 0.01458621 -0.01564202 0.03370569
v 0.01937063 0.03349410 0.03200034
v 0.01937434 0.01399410 0.03199998
v 0.03437210 0.02552811 0.02874998
v 0.03437236 0.02424699 0.03003104
v 0.03437063 0.03349696 0.03200012
v 0.03437270 0.02249699 0.03049992
v 0.03437435 0.01399696 0.03199976
v 0.03437303 0.02074699 0.03003098
v 0.03437260 0.02249712 0.02349992
v 0.03437325 0.01946593 0.02874986
v 0.03437332 0.01899705 0.02699985
v 0.03437320 0.01946599 0.02524986
v 0.03437294 0.02074711 0.02396880
v 0.03437227 0.02424711 0.02396886
v 0.03437205 0.02552817 0.02524998
v 0.03437198 0.02599705 0.02699998
v 0.01437951 -0.01301173 0.03349953
v 0.01437951 -0.01302173 0.03349955
v 0.01219642 -0.00582237 0.03399972
v 0.01203812 -0.00565309 0.03399972
v 0.01203886 -0.00957494 0.03399965
v 0.03637971 -0.01400270 0.03399921
v 0.03638263 -0.02936056 0.03399892
v 0.03820427 -0.02936022 0.03399890
v 0.03537647 0.00299711 0.03399954
v 0.03637437 0.01399730 0.03399973
v 0.03484019 0.00499701 0.03399958
v 0.03599413 0.01208381 0.03399970
v 0.03337581 0.00646083 0.03399964
v 0.01203535 0.00886169 0.03399999
v 0.01203640 0.00334208 0.03399989
v 0.01219465 0.00351143 0.03399989
v 0.03637145 0.02935516 0.03400002
v 0.03819308 0.02935551 0.03399999
v 0.03537761 -0.00300289 0.03399943
v 0.03484210 -0.00500299 0.03399940
v 0.03599874 -0.01208935 0.03399925
v 0.03337827 -0.00646737 0.03399939
v 0.03491457 -0.01046744 0.03399930
v 0.01283831 0.00907388 0.03399998
v 0.01682663 0.00764725 0.03399990
v 0.01704784 0.00682229 0.03399988
v 0.01349677 0.00438851 0.03399989
v 0.01765190 0.00621846 0.03399986
v 0.01503614 0.00469690 0.03399987
v 0.01847694 0.00599756 0.03399984
v 0.02079236 0.00469800 0.03399979
v 0.01400315 -0.01069568 0.03399960
v 0.01775995 -0.01209283 0.03399952
v 0.01298627 -0.00990288 0.03399963
v 0.01273698 -0.00978624 0.03399963
v 0.01349888 -0.00669896 0.03399968
v 0.01503837 -0.00700676 0.03399965
v 0.01884350 -0.01047051 0.03399953
v 0.01847631 0.00929756 0.03399990
v 0.01554607 0.01274817 0.03400001
v 0.01765136 0.00907634 0.03399991
v 0.01520399 0.01131586 0.03399999
v 0.01704753 0.00847229 0.03399991
v 0.01436032 0.01006447 0.03399998
v 0.01416021 0.00987317 0.03399998
v 0.01737145 0.02935155 0.03400030
v 0.01554981 0.02935120 0.03400032
v 0.01737437 0.01399368 0.03400001
v 0.01555293 0.01298826 0.03400002
v 0.01775534 0.01208034 0.03399997
v 0.03491058 0.01046149 0.03399969
v 0.03328867 0.00937731 0.03399969
v 0.03137571 0.00699635 0.03399967
v 0.03137533 0.00899635 0.03399971
v 0.02363872 0.00699487 0.03399979
v 0.02237533 0.00899463 0.03399984
v 0.02210164 0.00668744 0.03399980
v 0.02046184 0.00937487 0.03399988
v 0.01883951 0.01045843 0.03399992
v 0.01930136 0.00907666 0.03399989
v 0.01990541 0.00847283 0.03399987
v 0.02012663 0.00764787 0.03399985
v 0.02152795 0.00546766 0.03399979
v 0.01990573 0.00682283 0.03399984
v 0.01930190 0.00621878 0.03399983
v 0.02046541 -0.00938633 0.03399953
v 0.02237876 -0.00900536 0.03399951
v 0.03137837 -0.00700365 0.03399941
v 0.03137875 -0.00900365 0.03399938
v 0.03329225 -0.00938389 0.03399934
v 0.01488263 -0.02936466 0.03399923
v 0.01738263 -0.02936418 0.03399920
v 0.01487952 -0.01302723 0.03399954
v 0.01737971 -0.01400632 0.03399948
v 0.01487869 -0.01293483 0.03399954
v 0.01462278 -0.01169646 0.03399957
v 0.01203512 0.00998762 0.03274806
v 0.01203689 0.00069635 0.03299984
v 0.01203760 -0.00300732 0.03299977
v 0.01203783 -0.00422519 0.03323752
v 0.01203666 0.00191422 0.03323764
v 0.01137512 0.00998749 0.03266690
v 0.03938152 -0.02425194 0.02396788
v 0.03938178 -0.02553305 0.02524895
v 0.03938056 -0.01900200 0.02699907
v 0.03937260 0.02249807 0.02349985
v 0.03937294 0.02074806 0.02396872
v 0.03937326 0.01946688 0.02874979
v 0.03937303 0.02074794 0.03003090
v 0.03938280 -0.03035764 0.03266579
v 0.03937270 0.02249794 0.03049985
v 0.03937143 0.02935576 0.03266690
v 0.03937237 0.02424795 0.03003097
v 0.03937102 0.03149282 0.03239934
v 0.03937210 0.02552906 0.02874990
v 0.03937063 0.03349792 0.03161309
v 0.03937199 0.02599800 0.02699991
v 0.03938339 -0.03350208 0.03167693
v 0.03938189 -0.02600200 0.02699894
v 0.03938308 -0.03184436 0.03236177
v 0.03938183 -0.02553312 0.02874895
v 0.03938160 -0.02425205 0.03003006
v 0.03938128 -0.02250206 0.03049901
v 0.03937205 0.02552912 0.02524990
v 0.03937228 0.02424806 0.02396879
v 0.03938118 -0.02250193 0.02349900
v 0.03938085 -0.02075194 0.02396795
v 0.03938062 -0.01947087 0.02524906
v 0.03938094 -0.02075205 0.03003013
v 0.03938067 -0.01947094 0.02874906
v 0.03937332 0.01899800 0.02699978
v 0.03937320 0.01946695 0.02524979
v -0.00000524 0.02949052 0.02600055
v -0.00519328 0.02902973 0.02600062
v -0.01021942 0.02766371 0.02600067
v -0.01492698 0.02543505 0.02600069
v -0.01916922 0.02241320 0.02600070
v -0.02281388 0.01869237 0.02600068
v -0.02461452 0.01668678 0.02600067
v -0.02461455 0.01668683 0.02350067
v -0.02460815 -0.01671512 0.02600005
v -0.02460819 -0.01671507 0.02350005
v -0.01142386 -0.02667847 0.02348674
v -0.01103569 -0.02732968 0.02303457
v -0.01105695 -0.02731328 0.02604185
v -0.01121727 -0.02715309 0.02312937
v -0.01121829 -0.02715181 0.02613021
v -0.01124774 -0.02711277 0.02615501
v -0.01842240 -0.02224166 0.02362652
v -0.01880573 -0.02235162 0.02329640
v -0.01880569 -0.02235167 0.02629640
v -0.01920150 -0.02230310 0.02607678
v -0.01920155 -0.02230304 0.02307678
v -0.01938076 -0.02222278 0.02602005
v -0.01938158 -0.02222228 0.02301987
v 0.01938339 -0.03350590 0.03199909
v 0.01937968 -0.01400590 0.03199946
v 0.02237001 0.03649473 0.02877838
v 0.03137001 0.03649645 0.02877825
v 0.03438183 -0.02553407 0.02874902
v 0.03438189 -0.02600295 0.02699901
v 0.03438339 -0.03350304 0.03199887
v 0.03438177 -0.02553401 0.02524902
v 0.03438151 -0.02425289 0.02396796
v 0.03438117 -0.02250288 0.02349908
v 0.03438085 -0.02075289 0.02396802
v 0.03438062 -0.01947183 0.02524913
v 0.03437968 -0.01400304 0.03199924
v 0.03438056 -0.01900295 0.02699914
v 0.03438067 -0.01947189 0.02874913
v 0.03438094 -0.02075301 0.03003020
v 0.03438127 -0.02250301 0.03049908
v 0.03438160 -0.02425301 0.03003013
v 0.03138393 -0.03650357 0.02958465
v 0.02238393 -0.03650528 0.02958478
v 0.02238482 -0.04150520 0.02534084
v 0.02238477 -0.04150514 0.02199890
v 0.03138482 -0.04150349 0.02534071
v 0.03138477 -0.04150343 0.02199877
v 0.03136901 0.04149651 0.02529343
v 0.03136896 0.04149657 0.02200032
v 0.02236901 0.04149479 0.02529357
v 0.02236896 0.04149486 0.02200045
v 0.03137492 0.01099639 0.03199975
v 0.02237492 0.01099467 0.03199988
v 0.02237911 -0.01100533 0.03199947
v 0.03137911 -0.01100361 0.03199934
v 0.03189623 0.03645003 0.02884746
v 0.03240616 0.03631204 0.02905292
v 0.03422096 0.03443214 0.03185065
v 0.03398431 0.03496902 0.03105171
v 0.03331487 0.03578112 0.02984316
v 0.03414620 0.01284886 0.03199974
v 0.03397271 0.01249688 0.03199974
v 0.03349607 0.01187547 0.03199973
v 0.03287484 0.01139859 0.03199973
v 0.03252292 0.01122497 0.03199974
v 0.02122682 0.01122281 0.03199990
v 0.02087484 0.01139631 0.03199991
v 0.01960293 0.01284609 0.03199995
v 0.02049296 0.01165803 0.01723856
v 0.02087462 0.01139659 0.01720012
v 0.02133266 0.01118152 0.01729357
v 0.02025343 0.01187295 0.03199993
v 0.01977655 0.01249418 0.03199995
v 0.01951994 0.03442934 0.03185087
v 0.01976811 0.03498699 0.03102116
v 0.02153789 0.03637685 0.02895356
v 0.02085623 0.03608445 0.02938846
v 0.02054460 0.03587500 0.02970004
v 0.02023004 0.03559661 0.03011418
v 0.02005501 0.03540206 0.03040362
v 0.03357557 -0.03555159 0.03098480
v 0.03419816 -0.03454142 0.03181343
v 0.03383138 -0.03523776 0.03144652
v 0.03198172 -0.03644329 0.02967316
v 0.03279478 -0.03615082 0.03010328
v 0.03320992 -0.03588345 0.03049660
v 0.03252720 -0.01123176 0.03199932
v 0.03287918 -0.01140525 0.03199931
v 0.03350060 -0.01188189 0.03199929
v 0.03397747 -0.01250312 0.03199927
v 0.03415110 -0.01285504 0.03199926
v 0.01960782 -0.01285781 0.03199947
v 0.01978132 -0.01250582 0.03199948
v 0.02025796 -0.01188441 0.03199948
v 0.02087918 -0.01140754 0.03199948
v 0.02123110 -0.01123391 0.03199948
v 0.02166755 -0.03641864 0.02971249
v 0.02091442 -0.03612106 0.03015059
v 0.02048236 -0.03582611 0.03058472
v 0.02010811 -0.03546059 0.03112267
v 0.01993605 -0.03524041 0.03144672
v 0.01956902 -0.03454421 0.03181364
v 0.00887138 0.02949211 0.03150042
v 0.01287138 0.02949287 0.03150037
v 0.00887130 0.02949221 0.02600042
v 0.00888254 -0.02950779 0.02599932
v 0.01288262 -0.02950713 0.03149926
v 0.00888262 -0.02950789 0.03149932
v 0.00537169 0.02749154 0.02636012
v 0.00538217 -0.02750846 0.02635909
v 0.03348000 0.04121344 0.02171674
v 0.03613192 0.03992528 0.02663389
v 0.03596926 0.04004267 0.02054542
v 0.03477533 0.04073585 0.02123887
v 0.03263897 0.04139531 0.02537991
v 0.03387677 0.04109379 0.02563719
v 0.03505101 0.04059960 0.02605875
v 0.03902351 0.03582730 0.03012855
v 0.03927436 0.03473369 0.03093682
v 0.03709208 0.03908791 0.02734803
v 0.03790715 0.03810874 0.02818306
v 0.03855645 0.03701261 0.02911780
v 0.01896286 0.04073284 0.02123910
v 0.01776917 0.04003921 0.02054569
v 0.01776547 0.04003642 0.02653640
v 0.01739904 0.03976246 0.02676995
v 0.01825952 0.04035767 0.02626256
v 0.01986141 0.04109112 0.02563740
v 0.02025803 0.04121092 0.02171693
v 0.02033867 0.04123245 0.02551696
v 0.01576021 0.03800063 0.02827197
v 0.01471681 0.03582267 0.03012890
v 0.01446623 0.03472788 0.03093787
v 0.03632684 -0.03979332 0.02680502
v 0.03598794 -0.04004548 0.02658904
v 0.03598451 -0.04004772 0.02054392
v 0.03479085 -0.04074138 0.02123735
v 0.03552094 -0.04035040 0.02632788
v 0.03349570 -0.04121948 0.02171520
v 0.03344598 -0.04123299 0.02557209
v 0.03797283 -0.03803990 0.02830697
v 0.03902602 -0.03586787 0.03016767
v 0.03928367 -0.03476269 0.03098737
v 0.02119197 -0.04141601 0.02567138
v 0.02077577 -0.04134204 0.02594508
v 0.02026454 -0.04121954 0.02606003
v 0.02027373 -0.04122200 0.02171539
v 0.01897838 -0.04074439 0.02123758
v 0.01911195 -0.04080578 0.02644816
v 0.01777012 -0.04004116 0.02716528
v 0.01452014 -0.03497817 0.03172977
v 0.01442257 -0.03429605 0.03214875
v 0.01438941 -0.03381533 0.03240233
v 0.01487034 -0.03625381 0.03071662
v 0.01585832 -0.03813387 0.02895380
v 0.01730620 -0.03968770 0.02749675
v 0.01778443 -0.04005119 0.02054419
v 0.03437760 -0.00300306 0.03299944
v 0.03437645 0.00299694 0.03299955
v 0.03137817 -0.00600363 0.03299943
v 0.01503817 -0.00600675 0.03299967
v 0.03397596 -0.00450314 0.03299942
v 0.03287809 -0.00560142 0.03299941
v 0.03287596 0.00559473 0.03299962
v 0.03397425 0.00449686 0.03299959
v 0.01388355 -0.00577589 0.03299969
v 0.01353809 -0.00560511 0.03299970
v 0.01290671 -0.00511845 0.03299972
v 0.01243981 -0.00450724 0.03299974
v 0.01225813 -0.00413571 0.03299974
v 0.01503632 0.00369692 0.03299985
v 0.01225699 0.00182482 0.03299985
v 0.01243853 0.00219643 0.03299986
v 0.01290520 0.00280782 0.03299987
v 0.01353640 0.00329471 0.03299987
v 0.01388179 0.00346563 0.03299986
v -0.02475503 -0.01652443 0.02352995
v -0.02475463 -0.01652508 0.02602978
v -0.02484823 -0.01631658 0.02361166
v -0.02484819 -0.01631663 0.02611166
v -0.02488196 -0.01585266 0.02642019
v -0.02488200 -0.01585261 0.02392018
v -0.02488800 0.01582420 0.02642078
v -0.02488803 0.01582425 0.02392078
v -0.02485440 0.01628820 0.02611227
v -0.02485444 0.01628825 0.02361227
v -0.02476105 0.01649646 0.02603047
v -0.02476095 0.01649674 0.02353040
v 0.03624916 0.03920693 0.02829066
v 0.03543043 0.03992095 0.02757652
v 0.03291148 0.03806508 0.02943188
v 0.03450873 0.04049595 0.02700138
v 0.03215270 0.03827041 0.02922642
v 0.03694418 0.03837198 0.02912570
v 0.03426367 0.03727506 0.03022211
v 0.03749784 0.03743730 0.03006044
v 0.03503417 0.03642603 0.03107124
v 0.03789611 0.03642658 0.03107120
v 0.01584401 0.03642238 0.03107152
v 0.01870595 0.03642292 0.03107148
v 0.01609014 0.03710052 0.03039344
v 0.01947610 0.03727224 0.03022233
v 0.01718750 0.03887268 0.02862154
v 0.01994033 0.03761829 0.02987637
v 0.01873052 0.04020678 0.02728776
v 0.02082796 0.03806277 0.02943206
v 0.02047917 0.04099163 0.02650325
v 0.02143164 0.03823791 0.02925703
v 0.02236907 0.04125904 0.02623618
v 0.02236967 0.03833776 0.02915735
v 0.03136907 0.04126076 0.02623605
v 0.03136967 0.03833948 0.02915722
v 0.03245197 0.04117446 0.02632253
v 0.03350745 0.04091735 0.02657982
v 0.01908142 -0.03643487 0.03107011
v 0.01533997 -0.03643559 0.03107016
v 0.01958621 -0.03692015 0.03058471
v 0.01626620 -0.03819815 0.02930735
v 0.02022196 -0.03735413 0.03015058
v 0.01762360 -0.03965486 0.02785030
v 0.02133011 -0.03779200 0.02971247
v 0.01931649 -0.04070306 0.02680172
v 0.02238420 -0.03791950 0.02958475
v 0.02117849 -0.04126136 0.02624301
v 0.03138420 -0.03791778 0.02958462
v 0.03226379 -0.03782909 0.02967313
v 0.03452810 -0.04049544 0.02700621
v 0.03346012 -0.03739875 0.03010325
v 0.03503320 -0.04020685 0.02729472
v 0.03407096 -0.03700532 0.03049656
v 0.03656524 -0.03889163 0.02860967
v 0.03460898 -0.03651703 0.03098477
v 0.03767545 -0.03712342 0.03037772
v 0.03468645 -0.03643190 0.03106988
v 0.03793116 -0.03643128 0.03106983
v 0.03138478 -0.04125940 0.02624287
v 0.03246874 -0.04117294 0.02632912
v 0.03327953 -0.04099192 0.02650997
v 0.01868724 0.03431179 0.03268361
v 0.01768235 0.03182760 0.03368896
v 0.01836760 0.03508852 0.03219121
v 0.01856891 0.03450436 0.03257073
v 0.01862456 0.03440807 0.03262790
v 0.01841775 0.03583159 0.03161697
v 0.01839806 0.03575882 0.03167829
v 0.01835750 0.03516373 0.03213803
v 0.03505373 0.03431490 0.03268338
v 0.03606328 0.03181664 0.03369238
v 0.03537917 0.03556731 0.03183643
v 0.03524419 0.03605139 0.03142703
v 0.03518566 0.03617512 0.03131356
v 0.03534088 0.03493511 0.03229847
v 0.03510769 0.03631359 0.03118194
v 0.01881107 -0.03451285 0.03257161
v 0.01902305 -0.03485022 0.03235967
v 0.01769448 -0.03184011 0.03368777
v 0.01815360 -0.03321261 0.03322887
v 0.01878295 -0.03520298 0.03211725
v 0.01870267 -0.03559075 0.03182378
v 0.01880643 -0.03602452 0.03145798
v 0.03502739 -0.03584255 0.03161371
v 0.03498708 -0.03596141 0.03151092
v 0.03505714 -0.03545656 0.03192609
v 0.03491587 -0.03506933 0.03220936
v 0.03474426 -0.03484722 0.03235944
v 0.03561311 -0.03320929 0.03322861
v 0.03496115 -0.03450138 0.03257640
v 0.03607173 -0.03183661 0.03368750
v -0.02473685 0.01620980 0.02625066
v -0.02473067 -0.01623819 0.02625006
v -0.01904904 -0.02220592 0.02624986
v 0.01488908 -0.03402919 0.03284459
v 0.01492018 -0.03450358 0.03257766
v 0.01488306 -0.03160139 0.03374583
v 0.01488345 -0.03372478 0.03299855
v 0.01501165 -0.03517674 0.03213663
v 0.03823727 -0.03410808 0.03279980
v 0.03815188 -0.03534600 0.03200940
v 0.03823655 -0.03021188 0.03396254
v 0.03823692 -0.03220793 0.03358479
v 0.03819261 0.03182127 0.03369127
v 0.03819216 0.03413478 0.03278409
v 0.03811004 0.03535061 0.03200380
v 0.01554888 0.03413047 0.03278442
v 0.01563038 0.03534526 0.03200492
v 0.01554934 0.03181696 0.03369160
v 0.00838253 -0.02900798 0.03149934
v 0.00838159 -0.02432658 0.02804942
v 0.00838162 -0.02460790 0.02699942
v 0.00838160 -0.02450789 0.02635911
v 0.00838156 -0.02432654 0.02594942
v 0.00838140 -0.02355787 0.02518078
v 0.00838119 -0.02250786 0.02489946
v 0.00838100 -0.02145787 0.02518082
v 0.00838089 -0.02068927 0.02804949
v 0.00838053 -0.01851281 0.03149953
v 0.00838082 -0.02040790 0.02699950
v 0.00838086 -0.02068923 0.02594949
v 0.00838105 -0.02145793 0.02881813
v 0.00838126 -0.02250794 0.02909946
v 0.00838145 -0.02355793 0.02881809
v 0.01410490 -0.01744359 0.03199947
v 0.01295510 -0.01823386 0.03199947
v 0.01430351 -0.02959933 0.03199924
v 0.00888054 -0.01851272 0.03199952
v 0.00888254 -0.02900790 0.03199933
v 0.01158795 -0.01851221 0.03199948
v 0.01288254 -0.02900714 0.03199927
v 0.01365228 -0.02916104 0.03199926
v 0.01158785 -0.01801220 0.03149949
v 0.00888043 -0.01801271 0.03149953
v 0.01638083 -0.02031969 0.02826188
v 0.01638102 -0.02124392 0.02918608
v 0.01638126 -0.02250643 0.02952434
v 0.01638150 -0.02376892 0.02918603
v 0.01638166 -0.02469312 0.02826180
v 0.01638171 -0.02503138 0.02699929
v 0.01638162 -0.02469307 0.02573680
v 0.01638143 -0.02376884 0.02481260
v 0.01638119 -0.02250633 0.02447434
v 0.01638095 -0.02124384 0.02481265
v 0.01638079 -0.02031964 0.02573688
v 0.01638074 -0.01998138 0.02699939
v 0.00837229 0.02431077 0.02595033
v 0.00837226 0.02449211 0.02636002
v 0.00837232 0.02431073 0.02805033
v 0.00837148 0.02899201 0.03150042
v 0.00837225 0.02459210 0.02700034
v 0.00837298 0.02067346 0.02595026
v 0.00837305 0.02039210 0.02700026
v 0.00837348 0.01848700 0.03150022
v 0.00837301 0.02067342 0.02805026
v 0.00837283 0.02144213 0.02518163
v 0.00837262 0.02249214 0.02490030
v 0.00837243 0.02354213 0.02518166
v 0.00837248 0.02354206 0.02881897
v 0.00837268 0.02249206 0.02910030
v 0.00837288 0.02144206 0.02881893
v 0.01429224 0.02958560 0.03200034
v 0.01364118 0.02914706 0.03200035
v 0.01386019 0.01745122 0.03200012
v 0.00887149 0.02899210 0.03200041
v 0.00887349 0.01848709 0.03200022
v 0.01287149 0.02899286 0.03200036
v 0.01137349 0.01848756 0.03200018
v 0.01272055 0.01821823 0.03200015
v 0.00887358 0.01798710 0.03150021
v 0.01137358 0.01798757 0.03150017
v 0.01637225 0.02468031 0.02826272
v 0.01637244 0.02375608 0.02918692
v 0.01637269 0.02249357 0.02952518
v 0.01637292 0.02123108 0.02918687
v 0.01637309 0.02030688 0.02826264
v 0.01637313 0.01996862 0.02700013
v 0.01637305 0.02030693 0.02573764
v 0.01637286 0.02123116 0.02481344
v 0.01637262 0.02249367 0.02447518
v 0.01637238 0.02375616 0.02481349
v 0.01637222 0.02468036 0.02573772
v 0.01637217 0.02501862 0.02700023
v 0.00838160 -0.02452891 0.02642892
v 0.01595656 -0.02432509 0.02594931
v 0.01595663 -0.02460646 0.02699931
v 0.01595659 -0.02432513 0.02804931
v 0.01595645 -0.02355649 0.02881798
v 0.01595625 -0.02250650 0.02909935
v 0.01595605 -0.02145649 0.02881802
v 0.01595589 -0.02068782 0.02804938
v 0.01595582 -0.02040646 0.02699939
v 0.01595586 -0.02068778 0.02594938
v 0.01595600 -0.02145642 0.02518071
v 0.01595619 -0.02250642 0.02489935
v 0.01595640 -0.02355642 0.02518067
v 0.01594725 0.02459354 0.02700023
v 0.01594729 0.02431221 0.02595022
v 0.00837226 0.02451313 0.02642984
v 0.01594743 0.02354357 0.02518155
v 0.01594762 0.02249358 0.02490019
v 0.01594783 0.02144357 0.02518152
v 0.01594798 0.02067491 0.02595015
v 0.01594805 0.02039354 0.02700015
v 0.01594801 0.02067487 0.02805015
v 0.01594788 0.02144351 0.02881882
v 0.01594768 0.02249350 0.02910019
v 0.01594748 0.02354351 0.02881886
v 0.01594732 0.02431218 0.02805022
v 0.01415362 0.01611653 0.03150009
v 0.01397194 0.01648807 0.03150010
v 0.01350504 0.01709928 0.03150012
v 0.01252820 0.01775672 0.03150015
v 0.01287365 0.01758594 0.03150014
v 0.01242549 0.01017760 0.03266689
v 0.01337460 0.01075147 0.03266690
v 0.01351827 0.01088882 0.03266690
v 0.01412401 0.01178730 0.03266692
v 0.01436962 0.01281568 0.03266696
v 0.01437877 -0.01294589 0.03349953
v 0.01415942 -0.01188444 0.03349956
v 0.01362832 -0.01102663 0.03349959
v 0.01275671 -0.01034710 0.03349962
v 0.01151187 -0.01001522 0.03349965
v 0.01254304 -0.01024713 0.03349963
v 0.01374523 -0.01709624 0.03149948
v 0.01275969 -0.01777362 0.03149948
v 0.00797996 -0.02600797 0.02635908
v 0.00688209 -0.02710625 0.02635908
v 0.00687177 0.02708990 0.02636009
v 0.00797005 0.02599203 0.02636006
v 0.01344865 0.02960852 0.03150036
v 0.01362135 0.02969398 0.03150036
v 0.01393695 0.02993742 0.03150036
v 0.01426105 0.03042892 0.03150036
v 0.01417028 0.03024312 0.03150036
v 0.01427264 -0.03044265 0.03149922
v 0.01418180 -0.03025688 0.03149923
v 0.01394835 -0.02995127 0.03149924
v 0.01345993 -0.02962255 0.03149925
v 0.01363266 -0.02970795 0.03149925
f 9 10 11
f 9 11 18
f 9 18 44
f 44 18 20
f 44 20 46
f 45 44 46
f 45 46 47
f 47 46 48
f 47 48 49
f 49 48 50
f 49 50 51
f 51 50 52
f 50 961 52
f 50 960 961
f 960 50 28
f 28 27 960
f 26 27 28
f 26 24 27
f 25 24 26
f 23 24 25
f 23 21 24
f 22 21 23
f 46 22 23
f 20 21 22
f 20 19 21
f 48 23 25
f 48 25 26
f 28 48 26
f 960 27 961
f 958 961 27
f 958 27 963
f 838 958 963
f 838 963 829
f 829 818 838
f 838 818 839
f 838 839 837
f 837 839 840
f 837 840 836
f 836 840 841
f 836 841 842
f 193 836 842
f 193 842 203
f 203 842 201
f 842 810 201
f 842 843 810
f 810 843 844
f 810 844 809
f 809 808 810
f 808 1062 810
f 1062 808 1067
f 1067 304 1062
f 1067 305 304
f 1066 305 1067
f 1065 305 1066
f 1065 306 305
f 1064 306 1065
f 795 1064 1065
f 795 1065 806
f 805 795 806
f 805 806 807
f 807 806 808
f 804 795 805
f 804 793 795
f 803 793 804
f 804 824 803
f 804 823 824
f 1285 824 823
f 1285 823 1286
f 592 1285 1286
f 592 1286 593
f 593 1286 589
f 589 1286 1287
f 589 1287 657
f 1287 819 657
f 657 819 828
f 657 828 660
f 660 662 657
f 660 661 662
f 659 661 660
f 658 659 660
f 660 1177 658
f 660 826 1177
f 1131 1177 826
f 1131 826 825
f 825 764 1131
f 1131 764 1130
f 764 965 1130
f 965 1134 1130
f 965 1133 1134
f 1132 1133 965
f 1175 1133 1132
f 1175 1132 1176
f 1024 1175 1176
f 655 1175 1024
f 658 1175 655
f 655 654 658
f 330 654 655
f 329 654 330
f 654 329 1303
f 1303 329 311
f 1303 311 1304
f 1304 311 1302
f 1230 1304 1302
f 1230 1302 1231
f 662 1230 1231
f 662 1231 1232
f 1232 1280 662
f 662 1280 1279
f 563 1279 1280
f 1278 1279 563
f 663 1279 1278
f 663 1278 656
f 656 1278 565
f 565 589 656
f 657 663 656
f 565 1278 563
f 563 1280 564
f 1282 564 1280
f 1281 564 1282
f 1281 566 564
f 1239 566 1281
f 1239 1281 1237
f 1237 1236 1239
f 1239 1236 1238
f 1238 1236 1234
f 1222 1238 1234
f 1238 1222 567
f 567 1222 561
f 1221 561 1222
f 1220 561 1221
f 1220 1224 561
f 561 1224 1225
f 561 1225 562
f 562 1225 1226
f 562 1226 1215
f 1215 1216 562
f 1216 583 562
f 1299 583 1216
f 1299 584 583
f 1298 584 1299
f 1298 582 584
f 1000 582 1298
f 165 582 1000
f 581 582 165
f 165 579 581
f 163 579 165
f 163 573 579
f 161 573 163
f 161 572 573
f 571 572 161
f 159 571 161
f 159 553 571
f 157 553 159
f 157 190 553
f 155 190 157
f 154 190 155
f 189 190 154
f 137 189 154
f 137 554 189
f 136 554 137
f 136 555 554
f 136 552 555
f 147 552 136
f 552 147 148
f 552 148 549
f 549 148 143
f 549 143 495
f 495 143 142
f 495 142 496
f 496 142 1074
f 1160 1074 142
f 1076 1074 1160
f 1160 1078 1076
f 1077 1076 1078
f 1077 1078 1079
f 1079 1078 898
f 1079 898 899
f 1079 899 171
f 899 172 171
f 899 357 172
f 358 357 899
f 899 897 358
f 896 358 897
f 156 896 897
f 156 897 135
f 135 897 898
f 135 898 1160
f 135 155 156
f 156 155 157
f 156 157 158
f 158 157 159
f 158 159 160
f 160 159 161
f 160 161 162
f 162 894 160
f 162 893 894
f 164 893 162
f 164 892 893
f 139 892 164
f 164 165 139
f 139 165 166
f 139 166 151
f 150 139 151
f 151 1298 150
f 150 1298 149
f 1298 152 149
f 1298 153 152
f 149 139 150
f 149 152 139
f 139 152 153
f 139 153 144
f 144 145 139
f 139 145 146
f 139 146 141
f 140 139 141
f 1299 140 141
f 1267 140 1299
f 1267 138 140
f 1299 141 146
f 1299 146 145
f 145 144 1299
f 138 139 140
f 1299 144 153
f 164 163 165
f 996 892 139
f 335 892 996
f 335 996 333
f 333 996 308
f 996 309 308
f 996 995 309
f 995 1300 309
f 309 1300 310
f 1300 1301 310
f 310 1301 1302
f 1300 1231 1301
f 1300 1235 1231
f 1235 1236 1231
f 995 1235 1300
f 995 1233 1235
f 1233 1234 1235
f 1218 1234 1233
f 994 1218 1233
f 1218 994 139
f 1219 1218 139
f 1219 139 138
f 1217 1218 1219
f 1217 1227 1218
f 1218 1227 1228
f 1218 1228 1222
f 1222 1228 1229
f 1222 1229 1223
f 994 1233 995
f 994 995 996
f 337 892 335
f 892 337 341
f 139 994 996
f 892 341 893
f 893 341 343
f 162 163 164
f 893 343 894
f 894 343 355
f 894 355 895
f 895 355 359
f 895 359 896
f 158 895 896
f 160 894 895
f 162 161 163
f 160 895 158
f 135 154 155
f 137 154 135
f 135 136 137
f 136 135 147
f 147 135 143
f 135 142 143
f 147 143 148
f 158 896 156
f 896 359 358
f 171 172 173
f 171 173 174
f 556 171 174
f 171 556 494
f 106 494 556
f 107 494 106
f 107 549 494
f 495 494 549
f 494 495 496
f 494 496 1075
f 552 549 107
f 107 96 552
f 96 555 552
f 96 554 555
f 97 554 96
f 97 189 554
f 550 189 97
f 97 98 550
f 550 98 99
f 550 99 551
f 551 524 550
f 550 524 525
f 550 525 553
f 553 190 550
f 553 525 571
f 525 520 571
f 525 94 520
f 93 94 525
f 94 95 520
f 520 95 84
f 520 84 521
f 521 84 85
f 85 86 521
f 521 86 87
f 521 87 523
f 523 87 88
f 523 88 89
f 90 523 89
f 522 523 90
f 493 523 522
f 493 522 526
f 526 522 524
f 522 92 524
f 524 92 93
f 522 91 92
f 526 524 527
f 118 526 527
f 119 526 118
f 119 108 526
f 118 527 117
f 117 527 528
f 527 541 528
f 528 541 535
f 528 535 187
f 187 535 188
f 535 536 188
f 535 539 536
f 535 538 539
f 532 538 535
f 532 537 538
f 534 537 532
f 532 533 534
f 186 533 532
f 186 532 542
f 543 186 542
f 543 184 186
f 184 185 186
f 184 183 185
f 182 183 184
f 182 181 183
f 180 181 182
f 546 180 182
f 545 180 546
f 540 545 546
f 544 545 540
f 540 548 544
f 548 167 544
f 548 178 167
f 178 168 167
f 167 168 169
f 545 167 169
f 169 168 170
f 169 170 179
f 169 179 180
f 178 177 168
f 176 177 178
f 176 175 177
f 174 175 176
f 499 174 176
f 499 176 497
f 497 498 499
f 104 499 498
f 104 498 103
f 103 498 102
f 551 102 498
f 101 102 551
f 551 100 101
f 551 498 541
f 541 498 540
f 541 540 83
f 83 72 541
f 541 72 73
f 73 74 541
f 541 74 75
f 83 540 82
f 81 82 540
f 543 81 540
f 80 81 543
f 543 540 547
f 541 637 551
f 541 636 637
f 635 636 541
f 541 634 635
f 633 634 541
f 551 637 638
f 551 638 639
f 639 640 551
f 105 499 104
f 105 556 499
f 498 497 540
f 497 176 178
f 497 178 548
f 540 497 548
f 544 167 545
f 547 540 546
f 545 169 180
f 546 182 547
f 180 179 181
f 547 182 184
f 379 186 185
f 379 901 186
f 901 1068 186
f 901 900 1068
f 1068 900 1069
f 1068 1069 1070
f 1069 1071 1070
f 1070 1071 1072
f 1161 1072 1071
f 1161 134 1072
f 120 134 1161
f 120 133 134
f 120 132 133
f 124 132 120
f 120 123 124
f 126 123 120
f 126 120 127
f 127 120 122
f 120 121 122
f 120 1162 121
f 120 688 1162
f 687 688 120
f 688 687 689
f 914 688 689
f 690 914 689
f 689 385 690
f 690 385 384
f 690 384 691
f 691 488 690
f 690 488 490
f 690 490 908
f 908 909 690
f 909 912 690
f 909 911 912
f 912 911 913
f 912 913 914
f 911 1162 913
f 909 910 911
f 910 121 911
f 121 910 909
f 908 121 909
f 908 131 121
f 490 131 908
f 490 130 131
f 500 130 490
f 130 500 531
f 130 531 128
f 128 531 530
f 128 530 129
f 129 530 529
f 129 529 122
f 122 529 127
f 127 529 187
f 187 188 127
f 127 188 126
f 126 188 536
f 126 536 125
f 125 536 539
f 125 539 123
f 539 538 123
f 123 538 124
f 537 124 538
f 537 132 124
f 534 132 537
f 534 133 132
f 134 133 534
f 488 489 490
f 630 489 488
f 506 489 630
f 506 528 489
f 528 530 489
f 489 530 531
f 489 531 500
f 528 529 530
f 505 528 506
f 504 505 506
f 504 511 505
f 505 511 512
f 505 512 503
f 503 512 513
f 503 513 501
f 501 502 503
f 491 503 502
f 491 502 519
f 519 502 598
f 519 598 507
f 507 518 519
f 509 518 507
f 507 508 509
f 509 508 510
f 510 506 509
f 509 506 629
f 506 632 629
f 506 631 632
f 509 629 628
f 627 509 628
f 627 516 509
f 626 516 627
f 626 601 516
f 601 262 516
f 516 262 613
f 516 613 517
f 601 264 262
f 266 264 601
f 601 217 266
f 600 217 601
f 600 219 217
f 599 219 600
f 605 219 599
f 604 219 605
f 603 219 604
f 602 219 603
f 236 219 602
f 215 219 236
f 236 602 614
f 614 602 615
f 617 614 615
f 617 615 618
f 618 615 619
f 618 619 620
f 620 619 621
f 616 614 617
f 605 599 606
f 606 599 607
f 606 607 608
f 608 607 609
f 608 609 610
f 610 609 611
f 610 611 612
f 622 601 626
f 622 625 601
f 624 625 622
f 622 623 624
f 516 517 509
f 510 514 506
f 506 514 515
f 509 517 518
f 493 503 491
f 493 111 503
f 111 112 503
f 503 112 113
f 110 111 493
f 493 109 110
f 493 108 109
f 491 492 493
f 503 113 505
f 505 113 114
f 505 114 115
f 115 116 505
f 506 515 504
f 505 116 528
f 630 631 506
f 490 489 500
f 691 630 488
f 902 630 691
f 902 667 630
f 630 667 677
f 630 677 631
f 631 677 676
f 631 676 632
f 632 676 675
f 632 675 629
f 629 675 666
f 629 666 628
f 666 627 628
f 665 627 666
f 665 626 627
f 664 626 665
f 1001 626 664
f 1001 664 684
f 684 685 1001
f 1001 685 680
f 1001 680 1297
f 623 1001 1297
f 622 1001 623
f 623 1297 624
f 624 1297 1296
f 674 1296 1297
f 673 1296 674
f 670 673 674
f 674 678 670
f 670 678 679
f 670 679 680
f 670 672 673
f 671 672 670
f 670 669 671
f 668 669 670
f 669 1296 671
f 671 1296 672
f 669 1252 1296
f 668 1252 669
f 1252 1181 1296
f 1181 1252 1253
f 1253 1252 668
f 1253 668 1254
f 1254 1208 1253
f 1253 1208 1209
f 1208 734 1209
f 1209 734 736
f 1209 736 1210
f 1264 1209 1210
f 1264 1210 1263
f 1263 1184 1264
f 1264 1184 1183
f 1264 1183 1253
f 1253 1183 1182
f 1263 1185 1184
f 1262 1185 1263
f 1263 1211 1262
f 1262 1211 1212
f 1211 740 1212
f 1212 740 742
f 1212 742 1213
f 1213 742 744
f 1213 744 1214
f 1260 1213 1214
f 1261 1213 1260
f 1260 1188 1261
f 1261 1188 1189
f 1261 1189 1262
f 1260 1186 1188
f 1259 1186 1260
f 1259 1190 1186
f 1258 1190 1259
f 1259 1203 1258
f 1258 1203 1204
f 1258 1204 1257
f 1257 1204 1205
f 1204 726 1205
f 1205 726 728
f 1205 728 1206
f 1256 1205 1206
f 1256 1206 1255
f 1255 1179 1256
f 1256 1179 1192
f 1256 1192 1257
f 1257 1192 1191
f 1255 1180 1179
f 1254 1180 1255
f 1255 1207 1254
f 1255 1206 1207
f 1206 730 1207
f 1207 730 732
f 1207 732 1208
f 1206 728 730
f 1204 724 726
f 1257 1205 1256
f 1257 1191 1258
f 1203 724 1204
f 1203 722 724
f 1214 722 1203
f 1259 1214 1203
f 1258 1191 1190
f 1260 1214 1259
f 1214 744 722
f 1261 1212 1213
f 1211 738 740
f 1210 738 1211
f 1262 1212 1261
f 1262 1189 1185
f 1263 1210 1211
f 1210 736 738
f 1208 732 734
f 1253 1209 1264
f 1254 1207 1208
f 1254 668 1180
f 1253 1182 1181
f 625 1296 1181
f 1181 1182 625
f 625 1182 1183
f 625 1183 601
f 601 1183 1184
f 601 1184 600
f 600 1184 1185
f 1189 600 1185
f 1188 600 1189
f 1188 1187 600
f 1187 1202 600
f 1187 1196 1202
f 1196 1187 1197
f 1196 1197 1198
f 1198 1197 1199
f 1198 1199 1194
f 1295 1198 1194
f 1201 1198 1295
f 1295 607 1201
f 1295 609 607
f 1294 609 1295
f 1294 611 609
f 646 611 1294
f 646 612 611
f 746 612 646
f 646 645 746
f 645 646 647
f 646 1193 647
f 647 1193 652
f 652 1193 1194
f 652 1194 1195
f 1195 1307 652
f 652 1307 1306
f 652 1306 653
f 650 652 653
f 650 653 648
f 653 1305 648
f 648 1305 395
f 395 394 648
f 648 394 649
f 394 1044 649
f 394 1043 1044
f 1042 1043 394
f 1042 394 1045
f 1045 1107 1042
f 1042 1107 1167
f 1151 1167 1107
f 1150 1167 1151
f 1150 1164 1167
f 1043 1167 1164
f 1149 1164 1150
f 1149 1145 1164
f 1148 1164 1145
f 1163 1164 1148
f 1044 1164 1163
f 1148 1166 1163
f 649 1163 1166
f 649 1166 1165
f 649 1165 650
f 650 1165 850
f 1147 850 1165
f 1147 1165 1148
f 915 1147 1148
f 851 1147 915
f 915 853 851
f 916 853 915
f 915 729 916
f 915 731 729
f 733 731 915
f 915 735 733
f 915 737 735
f 386 737 915
f 386 739 737
f 741 739 386
f 388 741 386
f 388 743 741
f 429 743 388
f 429 745 743
f 427 745 429
f 427 723 745
f 916 723 427
f 916 725 723
f 727 725 916
f 916 427 983
f 916 983 812
f 812 983 984
f 812 984 817
f 817 984 985
f 817 985 845
f 986 845 985
f 985 417 986
f 986 417 987
f 987 417 416
f 987 416 945
f 945 846 987
f 987 846 845
f 816 845 846
f 816 846 847
f 847 1051 816
f 1051 847 1054
f 1054 297 1051
f 1051 297 296
f 1051 296 1052
f 1052 296 295
f 1052 295 1057
f 1052 1057 815
f 815 1057 1058
f 1057 294 1058
f 1058 294 1059
f 1059 294 293
f 1059 293 1060
f 783 1059 1060
f 783 1060 859
f 859 1060 1061
f 859 1061 858
f 1061 292 858
f 292 300 858
f 858 300 857
f 300 299 857
f 857 299 1063
f 857 1063 860
f 252 857 860
f 252 860 794
f 793 252 794
f 793 856 252
f 860 1063 794
f 794 1063 1064
f 1063 299 306
f 858 857 252
f 252 247 858
f 252 246 247
f 245 246 252
f 245 252 244
f 244 252 253
f 244 253 243
f 243 253 254
f 243 254 242
f 254 255 242
f 242 255 256
f 242 256 241
f 241 256 210
f 241 210 211
f 241 211 240
f 240 211 257
f 240 257 239
f 257 258 239
f 239 258 259
f 239 259 238
f 238 259 260
f 238 260 237
f 237 260 234
f 237 234 251
f 251 234 784
f 234 233 784
f 251 784 250
f 250 784 783
f 858 247 248
f 858 248 249
f 1061 293 292
f 858 249 859
f 859 249 250
f 250 783 859
f 782 1059 783
f 782 783 784
f 782 784 815
f 815 784 814
f 1293 814 784
f 1293 813 814
f 1291 813 1293
f 1291 811 813
f 1290 811 1291
f 616 1290 1291
f 616 1291 614
f 617 1290 616
f 617 1289 1290
f 1288 1289 617
f 1288 854 1289
f 1289 854 855
f 854 812 855
f 855 812 811
f 854 853 812
f 852 853 854
f 1288 852 854
f 780 852 1288
f 618 780 1288
f 780 618 781
f 781 618 620
f 781 620 758
f 758 620 621
f 758 621 759
f 852 758 759
f 852 759 760
f 760 762 852
f 760 761 762
f 760 757 761
f 762 761 763
f 763 850 762
f 746 850 763
f 746 651 850
f 763 747 746
f 763 761 747
f 852 762 850
f 850 851 852
f 759 757 760
f 759 621 757
f 621 756 757
f 619 756 621
f 619 755 756
f 615 755 619
f 615 754 755
f 602 754 615
f 602 753 754
f 603 753 602
f 603 752 753
f 604 752 603
f 604 751 752
f 605 751 604
f 605 750 751
f 606 750 605
f 606 749 750
f 608 749 606
f 608 748 749
f 610 748 608
f 610 747 748
f 612 747 610
f 781 758 852
f 780 781 852
f 618 1288 617
f 1289 855 1290
f 1290 855 811
f 811 812 813
f 1293 614 1291
f 1292 614 1293
f 1292 236 614
f 235 236 1292
f 235 212 236
f 236 212 215
f 235 234 212
f 233 234 235
f 260 212 234
f 260 223 212
f 259 223 260
f 259 224 223
f 258 224 259
f 258 225 224
f 257 225 258
f 257 226 225
f 211 226 257
f 211 209 226
f 210 209 211
f 208 209 210
f 256 208 210
f 256 228 208
f 255 228 256
f 255 229 228
f 254 229 255
f 254 230 229
f 253 230 254
f 253 231 230
f 252 231 253
f 252 232 231
f 856 232 252
f 861 232 856
f 861 227 232
f 590 227 861
f 590 861 1283
f 1283 591 590
f 1283 592 591
f 1284 592 1283
f 1283 803 1284
f 1283 856 803
f 861 856 1283
f 235 1292 233
f 233 1292 1293
f 813 812 814
f 816 814 812
f 233 1293 784
f 815 814 816
f 1060 293 1061
f 782 1058 1059
f 815 1058 782
f 815 816 1052
f 1057 295 294
f 1054 289 297
f 1053 289 1054
f 1053 290 289
f 1049 290 1053
f 1053 799 1049
f 1049 799 798
f 785 798 799
f 785 799 800
f 982 785 800
f 982 800 981
f 981 800 980
f 980 409 981
f 980 410 409
f 979 410 980
f 802 979 980
f 849 979 802
f 849 978 979
f 946 978 849
f 849 848 946
f 801 848 849
f 847 848 801
f 946 848 945
f 946 415 978
f 946 416 415
f 978 415 410
f 801 849 802
f 800 801 802
f 978 410 979
f 802 980 800
f 981 409 982
f 982 409 408
f 982 408 927
f 408 926 927
f 927 926 928
f 927 928 929
f 929 930 927
f 927 930 931
f 927 931 921
f 786 927 921
f 786 921 1159
f 1159 921 1157
f 1157 921 1158
f 1157 1158 1168
f 1158 1156 1168
f 1168 1156 1155
f 1168 1155 1169
f 1169 1155 1154
f 974 1154 1155
f 1152 1154 974
f 1152 974 1153
f 1153 974 972
f 1153 972 1125
f 1125 972 1123
f 1123 1124 1125
f 1123 1122 1124
f 1121 1122 1123
f 1123 977 1121
f 1121 977 976
f 1121 976 1119
f 1119 1120 1121
f 1119 1118 1120
f 1117 1118 1119
f 1117 1129 1118
f 1129 1031 1118
f 1118 1031 1029
f 1029 1031 1030
f 1030 1031 937
f 1128 937 1031
f 1127 937 1128
f 937 1127 935
f 935 936 937
f 937 936 938
f 936 401 938
f 938 401 400
f 938 400 1027
f 1027 400 1025
f 1025 400 399
f 1025 399 1032
f 1032 399 403
f 1032 403 1033
f 1033 403 421
f 1033 421 1034
f 1034 421 423
f 1034 423 877
f 423 863 877
f 862 863 423
f 862 423 885
f 885 423 405
f 885 405 886
f 886 405 407
f 886 407 887
f 887 407 288
f 887 288 864
f 288 286 864
f 864 286 285
f 864 285 865
f 865 285 277
f 865 277 316
f 316 884 865
f 316 883 884
f 876 883 316
f 875 876 316
f 316 1010 875
f 1010 1174 875
f 875 1174 1173
f 1174 1140 1173
f 1174 1141 1140
f 1089 1141 1174
f 1089 1142 1141
f 950 1141 1142
f 1144 950 1142
f 1088 950 1144
f 1089 1088 1144
f 1087 1088 1089
f 1087 1086 1088
f 1086 951 1088
f 1086 948 951
f 1082 948 1086
f 1085 1082 1086
f 1080 1082 1085
f 1012 1080 1085
f 1012 1085 1013
f 1013 1085 1087
f 1013 1087 1009
f 318 1013 1009
f 318 1009 316
f 318 1012 1013
f 320 1012 318
f 320 1011 1012
f 322 1011 320
f 322 1003 1011
f 1003 1081 1011
f 1003 1083 1081
f 1008 1083 1003
f 1008 1105 1083
f 1007 1105 1008
f 1007 1104 1105
f 1104 1084 1105
f 1104 1103 1084
f 1102 1103 1104
f 1102 1101 1103
f 917 1103 1101
f 1099 917 1101
f 1099 967 917
f 967 325 917
f 967 327 325
f 328 327 967
f 967 968 328
f 968 969 328
f 1093 969 968
f 1093 968 1095
f 1094 1093 1095
f 1094 1095 1096
f 1017 1094 1096
f 1022 1094 1017
f 1017 332 1022
f 1017 326 332
f 1015 326 1017
f 942 326 1015
f 942 322 326
f 940 322 942
f 940 1004 322
f 1005 1004 940
f 1003 1004 1005
f 940 1002 1005
f 1002 940 939
f 939 1006 1002
f 1002 1006 1007
f 939 1102 1006
f 939 1100 1102
f 941 1100 939
f 1098 1100 941
f 1098 1099 1100
f 1098 1097 1099
f 1096 1097 1098
f 1098 1019 1096
f 1096 1019 1018
f 1096 1018 1016
f 1016 1018 1014
f 1014 1015 1016
f 1014 1018 1019
f 1014 1019 1020
f 1014 1020 942
f 1020 941 942
f 1020 1021 941
f 1019 1021 1020
f 1098 1021 1019
f 941 1021 1098
f 939 940 941
f 1002 1007 1005
f 941 940 942
f 322 325 326
f 322 324 325
f 323 324 322
f 322 321 323
f 320 321 322
f 320 319 321
f 318 319 320
f 318 317 319
f 316 317 318
f 316 315 317
f 277 315 316
f 277 314 315
f 276 314 277
f 275 276 277
f 279 275 277
f 279 277 280
f 280 277 281
f 277 285 281
f 281 285 286
f 281 286 287
f 286 290 287
f 286 289 290
f 288 289 286
f 288 297 289
f 288 296 297
f 272 296 288
f 288 416 272
f 272 416 417
f 272 417 411
f 411 413 272
f 272 413 418
f 272 418 414
f 270 272 414
f 270 271 272
f 271 437 272
f 272 437 470
f 272 470 291
f 291 292 272
f 272 292 293
f 272 293 294
f 294 295 272
f 291 300 292
f 291 299 300
f 298 299 291
f 298 306 299
f 298 305 306
f 12 305 298
f 298 11 12
f 298 19 11
f 307 19 298
f 298 334 307
f 298 471 334
f 471 213 334
f 471 214 213
f 470 214 471
f 470 221 214
f 334 213 472
f 334 472 467
f 334 467 336
f 336 467 468
f 336 468 346
f 346 350 336
f 336 350 351
f 351 352 336
f 336 352 353
f 336 353 335
f 335 353 354
f 335 354 338
f 337 335 338
f 338 339 337
f 337 339 340
f 337 340 341
f 341 340 342
f 341 342 343
f 343 342 344
f 343 344 345
f 345 347 343
f 343 347 346
f 343 346 355
f 355 346 356
f 356 359 355
f 356 358 359
f 357 358 356
f 356 363 357
f 357 363 364
f 357 364 172
f 172 364 365
f 172 365 173
f 365 366 173
f 173 366 367
f 173 367 273
f 273 367 368
f 273 368 369
f 63 273 369
f 63 369 274
f 274 64 63
f 370 273 63
f 63 62 370
f 370 62 61
f 370 61 457
f 457 465 370
f 457 464 465
f 458 464 457
f 378 458 457
f 378 457 376
f 376 377 378
f 376 375 377
f 374 375 376
f 376 71 374
f 374 71 70
f 374 70 380
f 380 70 69
f 380 69 65
f 65 384 380
f 380 384 385
f 380 385 381
f 379 380 381
f 65 382 384
f 68 382 65
f 68 67 382
f 382 67 383
f 268 383 67
f 268 67 269
f 269 67 66
f 267 268 269
f 267 383 268
f 267 480 383
f 479 480 267
f 479 478 480
f 261 478 479
f 261 477 478
f 263 477 261
f 263 476 477
f 473 476 263
f 473 475 476
f 390 475 473
f 435 390 473
f 435 473 433
f 433 473 265
f 433 265 216
f 216 218 433
f 433 218 220
f 433 220 437
f 436 433 437
f 434 433 436
f 437 220 221
f 433 434 435
f 432 390 435
f 431 390 432
f 431 388 390
f 430 388 431
f 430 429 388
f 428 429 430
f 428 427 429
f 426 427 428
f 426 411 427
f 412 411 426
f 388 389 390
f 389 474 390
f 388 387 389
f 386 387 388
f 386 395 387
f 386 394 395
f 393 394 386
f 393 392 394
f 391 392 393
f 393 396 391
f 391 396 397
f 391 397 398
f 403 391 398
f 399 391 403
f 399 402 391
f 401 402 399
f 403 398 404
f 404 419 403
f 403 419 420
f 403 420 421
f 421 420 422
f 421 422 423
f 423 422 424
f 423 424 405
f 405 424 425
f 405 425 406
f 405 406 407
f 407 406 408
f 407 408 288
f 288 408 409
f 288 409 410
f 410 415 288
f 390 474 475
f 473 263 265
f 379 374 380
f 372 374 379
f 379 463 372
f 379 462 463
f 185 462 379
f 185 461 462
f 183 461 185
f 183 460 461
f 371 460 183
f 371 459 460
f 370 459 371
f 181 370 371
f 179 370 181
f 179 170 370
f 370 466 459
f 181 371 183
f 372 373 374
f 376 6 71
f 5 6 376
f 376 4 5
f 7 71 6
f 7 8 71
f 374 373 375
f 376 457 4
f 457 3 4
f 457 2 3
f 456 2 457
f 456 1 2
f 483 1 456
f 483 481 1
f 485 481 483
f 483 484 485
f 481 482 1
f 60 456 457
f 60 438 456
f 59 438 60
f 59 58 438
f 438 58 441
f 58 455 441
f 58 454 455
f 57 454 58
f 57 453 454
f 451 453 57
f 57 56 451
f 451 56 356
f 451 356 452
f 452 356 448
f 448 356 449
f 361 356 56
f 361 56 55
f 360 356 361
f 360 362 356
f 438 441 439
f 438 439 440
f 440 447 438
f 440 446 447
f 445 446 440
f 445 444 446
f 443 444 445
f 443 346 444
f 346 469 444
f 442 346 443
f 450 346 442
f 449 346 450
f 457 54 60
f 370 465 466
f 457 61 54
f 370 170 273
f 170 168 273
f 273 168 177
f 273 177 175
f 175 173 273
f 356 362 363
f 449 356 346
f 346 347 348
f 348 349 346
f 346 349 350
f 346 468 469
f 335 334 336
f 333 334 335
f 307 334 333
f 307 333 308
f 301 307 308
f 301 308 309
f 309 310 301
f 301 310 311
f 301 311 312
f 312 311 313
f 313 311 328
f 328 311 329
f 328 329 330
f 330 331 328
f 328 331 332
f 328 332 326
f 326 327 328
f 24 307 301
f 24 21 307
f 301 302 24
f 24 302 303
f 24 303 27
f 307 21 19
f 12 304 305
f 15 304 12
f 291 471 298
f 291 470 471
f 437 221 470
f 436 437 271
f 411 412 413
f 288 415 416
f 272 295 296
f 278 275 279
f 279 283 278
f 279 195 283
f 284 195 279
f 284 196 195
f 282 196 284
f 282 191 196
f 195 198 283
f 326 325 327
f 1014 942 1015
f 1016 1015 1017
f 1022 332 331
f 1022 331 1023
f 1022 1023 1090
f 1023 1176 1090
f 1176 1137 1090
f 1090 1137 1136
f 1090 1136 1135
f 966 1135 1136
f 966 1136 965
f 965 313 966
f 965 312 313
f 313 971 966
f 313 970 971
f 328 970 313
f 970 1093 971
f 971 1093 1091
f 1092 1091 1093
f 1090 1091 1092
f 971 1091 1135
f 971 1135 966
f 1135 1091 1090
f 965 1136 1137
f 1090 1092 1022
f 1023 331 1024
f 1024 331 330
f 1022 1092 1094
f 1017 1096 1016
f 1096 1095 1097
f 1095 967 1097
f 1092 1093 1094
f 970 969 1093
f 328 969 970
f 1095 968 967
f 917 325 918
f 918 325 324
f 918 324 947
f 1084 918 947
f 1084 947 1082
f 1082 1083 1084
f 947 324 323
f 947 323 948
f 948 323 321
f 321 951 948
f 321 950 951
f 319 950 321
f 319 949 950
f 949 1138 950
f 950 1138 1143
f 1173 1143 1138
f 1139 1173 1138
f 1139 1138 796
f 796 1138 768
f 796 768 789
f 796 789 797
f 796 797 1172
f 873 1172 797
f 873 797 871
f 787 871 797
f 787 869 871
f 1170 869 787
f 1170 879 869
f 879 880 869
f 879 878 880
f 877 878 879
f 1171 877 879
f 1168 877 1171
f 1171 1159 1168
f 1170 1159 1171
f 880 881 869
f 869 881 882
f 869 882 867
f 882 888 867
f 867 888 889
f 867 889 890
f 890 889 864
f 890 864 891
f 891 864 866
f 867 868 869
f 869 868 870
f 1171 879 1170
f 787 786 1170
f 785 786 787
f 869 870 871
f 871 870 872
f 797 788 787
f 787 788 798
f 788 1050 798
f 1050 788 1056
f 1056 788 790
f 788 789 790
f 790 789 791
f 790 791 792
f 1055 790 792
f 1055 792 487
f 487 792 832
f 792 831 832
f 792 830 831
f 830 954 831
f 830 953 954
f 953 276 954
f 954 276 275
f 954 275 955
f 955 275 956
f 956 275 278
f 956 278 943
f 943 833 956
f 956 833 831
f 833 943 835
f 835 943 944
f 837 835 944
f 944 957 837
f 944 283 957
f 944 278 283
f 957 283 198
f 957 198 958
f 837 957 958
f 834 833 835
f 832 833 834
f 834 486 832
f 486 834 192
f 191 486 192
f 191 192 193
f 193 205 191
f 191 205 206
f 32 206 205
f 32 205 204
f 32 204 34
f 34 204 202
f 202 36 34
f 202 15 36
f 201 15 202
f 201 304 15
f 15 17 36
f 15 16 17
f 15 14 16
f 16 14 40
f 40 14 13
f 40 13 42
f 41 40 42
f 41 42 43
f 43 42 44
f 39 40 41
f 39 38 40
f 37 38 39
f 37 36 38
f 35 36 37
f 35 34 36
f 33 34 35
f 13 10 42
f 10 13 12
f 12 13 14
f 38 16 40
f 12 14 15
f 38 17 16
f 36 17 38
f 203 202 204
f 33 32 34
f 31 32 33
f 31 30 32
f 29 30 31
f 53 29 31
f 53 52 29
f 52 199 29
f 199 200 29
f 29 200 194
f 200 195 194
f 194 195 196
f 196 207 194
f 196 206 207
f 30 207 206
f 194 207 30
f 199 195 200
f 199 198 195
f 197 198 199
f 962 197 199
f 197 962 198
f 198 962 961
f 52 962 199
f 29 194 30
f 30 206 32
f 191 206 196
f 193 204 205
f 282 486 191
f 486 282 487
f 487 282 284
f 192 834 836
f 834 835 836
f 943 278 944
f 956 831 955
f 952 276 953
f 791 952 953
f 770 952 791
f 770 314 952
f 770 774 314
f 314 774 775
f 314 775 315
f 315 775 776
f 315 776 772
f 317 315 772
f 772 777 317
f 317 777 778
f 317 778 768
f 319 317 768
f 768 778 779
f 768 779 766
f 766 767 768
f 768 767 769
f 768 769 770
f 770 769 771
f 771 773 770
f 770 773 774
f 952 314 276
f 791 953 830
f 955 831 954
f 832 831 833
f 832 486 487
f 487 284 1055
f 1055 284 279
f 1055 279 1056
f 1056 279 280
f 791 830 792
f 791 789 770
f 1056 790 1055
f 1056 280 1050
f 1050 280 281
f 287 1050 281
f 287 1049 1050
f 871 872 873
f 873 872 874
f 873 874 875
f 1173 1172 873
f 797 789 788
f 789 768 770
f 796 1172 1139
f 1139 1172 1173
f 950 1143 1140
f 1138 949 768
f 768 949 319
f 1097 967 1099
f 1100 1099 1101
f 918 1103 917
f 1100 1101 1102
f 1006 1102 1104
f 1103 918 1084
f 1006 1104 1007
f 1005 1007 1008
f 1105 1084 1083
f 1005 1008 1003
f 1082 1081 1083
f 1011 1081 1080
f 1004 1003 322
f 1011 1080 1012
f 1080 1081 1082
f 1082 947 948
f 1085 1086 1087
f 1009 1087 1089
f 1009 1089 1010
f 1088 951 950
f 1144 1142 1089
f 1140 1141 950
f 1173 1140 1143
f 873 875 1173
f 1010 1089 1174
f 316 1009 1010
f 875 874 876
f 864 865 866
f 877 863 878
f 877 1168 1034
f 1034 1169 1033
f 1033 1169 1126
f 1033 1126 1032
f 1032 1126 1124
f 1122 1025 1032
f 1122 1026 1025
f 1120 1026 1122
f 1120 1029 1026
f 1028 1026 1029
f 1027 1026 1028
f 1025 1026 1027
f 1028 938 1027
f 1028 1030 938
f 399 400 401
f 936 1048 401
f 1041 401 1048
f 1047 401 1041
f 1047 402 401
f 1046 402 1047
f 1046 1047 1111
f 1109 1046 1111
f 1109 1045 1046
f 1045 392 1046
f 392 391 1046
f 1110 1109 1111
f 1110 1111 1112
f 1112 1111 1113
f 1112 1113 1114
f 1114 1113 1115
f 1113 1040 1115
f 1115 1040 1037
f 1115 1037 1036
f 1035 1115 1036
f 935 1115 1035
f 935 1035 1038
f 1038 1035 1037
f 1038 1037 1039
f 936 1038 1039
f 1035 1036 1037
f 1039 1037 1040
f 1039 1040 1041
f 1113 1041 1040
f 1114 1115 1116
f 1115 1127 1116
f 1116 933 1114
f 1117 933 1116
f 1116 1128 1117
f 1117 975 933
f 1114 933 934
f 988 1114 934
f 988 1112 1114
f 989 1112 988
f 1111 1041 1113
f 989 1110 1112
f 990 1110 989
f 990 1108 1110
f 991 1108 990
f 991 1106 1108
f 991 1151 1106
f 992 1151 991
f 992 1149 1151
f 1146 1149 992
f 993 1146 992
f 993 1145 1146
f 915 1145 993
f 992 393 993
f 993 393 386
f 992 396 393
f 991 396 992
f 990 396 991
f 990 397 396
f 989 397 990
f 988 397 989
f 988 398 397
f 934 398 988
f 934 404 398
f 933 404 934
f 419 404 933
f 933 975 419
f 419 975 976
f 419 976 420
f 420 976 977
f 420 977 972
f 422 420 972
f 974 422 972
f 973 422 974
f 973 424 422
f 921 424 973
f 921 920 424
f 920 922 424
f 424 922 923
f 424 923 425
f 425 923 924
f 425 924 406
f 406 924 925
f 406 925 408
f 919 920 921
f 921 932 919
f 1156 973 974
f 1106 1107 1108
f 1108 1107 1109
f 1108 1109 1110
f 1046 391 402
f 1111 1047 1041
f 1041 1048 1039
f 1039 1048 936
f 1038 936 935
f 935 1127 1115
f 1116 1127 1128
f 1030 937 938
f 1028 1029 1030
f 1128 1031 1129
f 1117 1128 1129
f 1119 975 1117
f 1118 1029 1120
f 1119 976 975
f 1121 1120 1122
f 1032 1124 1122
f 1125 1124 1126
f 1123 972 977
f 1153 1125 1126
f 1126 1152 1153
f 1126 1154 1152
f 1169 1154 1126
f 1034 1168 1169
f 974 1155 1156
f 1158 973 1156
f 1158 921 973
f 1157 1168 1159
f 1170 786 1159
f 785 927 786
f 921 931 932
f 408 925 926
f 927 785 982
f 800 799 801
f 787 798 785
f 798 1050 1049
f 1053 801 799
f 290 1049 287
f 1054 801 1053
f 1054 847 801
f 816 1051 1052
f 847 846 848
f 945 848 846
f 945 416 946
f 985 411 417
f 987 845 986
f 817 845 816
f 984 411 985
f 816 812 817
f 983 411 984
f 983 427 411
f 993 386 915
f 916 729 727
f 812 853 916
f 852 851 853
f 851 850 1147
f 650 850 651
f 1148 1165 1166
f 915 1148 1145
f 1146 1145 1149
f 1149 1150 1151
f 1151 1107 1106
f 1107 1045 1109
f 1045 394 392
f 1042 1167 1043
f 1043 1164 1044
f 1044 1163 649
f 395 1305 387
f 1305 1306 387
f 648 649 650
f 651 652 650
f 651 647 652
f 653 1306 1305
f 387 1306 1307
f 387 1307 389
f 1309 389 1307
f 1308 389 1309
f 1308 474 389
f 998 474 1308
f 998 999 474
f 474 999 997
f 474 997 475
f 475 997 476
f 476 997 477
f 477 997 697
f 997 683 697
f 670 683 997
f 684 683 670
f 664 683 684
f 664 682 683
f 665 682 664
f 665 681 682
f 694 682 681
f 694 681 693
f 693 681 667
f 693 667 907
f 906 693 907
f 902 906 907
f 905 906 902
f 905 904 906
f 904 692 906
f 903 692 904
f 686 692 903
f 692 686 693
f 693 686 382
f 384 382 686
f 686 903 691
f 691 903 905
f 903 904 905
f 906 692 693
f 693 382 694
f 694 382 383
f 694 383 695
f 695 383 480
f 695 480 696
f 695 696 682
f 682 696 697
f 696 478 697
f 696 480 478
f 695 682 694
f 667 681 665
f 665 666 667
f 666 677 667
f 666 676 677
f 675 676 666
f 684 670 685
f 997 1178 670
f 1178 1179 670
f 1178 1192 1179
f 1178 1191 1192
f 1187 1191 1178
f 1187 1190 1191
f 1186 1190 1187
f 670 1179 1180
f 670 1180 668
f 682 697 683
f 477 697 478
f 999 1178 997
f 999 1197 1178
f 1199 999 998
f 1200 1199 998
f 998 1308 1200
f 1200 1308 1309
f 1200 1309 1195
f 1195 1309 1307
f 1194 1200 1195
f 1294 1194 1193
f 645 647 651
f 645 651 746
f 746 747 612
f 1294 1193 646
f 1201 607 1202
f 1202 607 599
f 1295 1194 1294
f 1194 1199 1200
f 1197 999 1199
f 1198 1201 1196
f 1197 1187 1178
f 1196 1201 1202
f 600 1202 599
f 1186 1187 1188
f 673 672 1296
f 674 1297 678
f 1297 679 678
f 624 1296 625
f 1297 680 679
f 685 670 680
f 622 626 1001
f 902 907 667
f 691 905 902
f 691 384 686
f 690 912 914
f 914 913 688
f 689 687 385
f 687 381 385
f 687 900 381
f 1161 900 687
f 913 1162 688
f 911 121 1162
f 131 122 121
f 130 122 131
f 130 129 122
f 128 129 130
f 125 123 126
f 1161 687 120
f 134 534 1072
f 1072 534 533
f 1072 533 1073
f 1071 900 1161
f 1070 1072 1073
f 186 1070 1073
f 1071 1069 900
f 381 900 901
f 186 1068 1070
f 381 901 379
f 547 184 543
f 542 80 543
f 542 79 80
f 532 79 542
f 532 78 79
f 1073 533 186
f 535 78 532
f 535 77 78
f 76 77 535
f 535 75 76
f 187 529 528
f 541 75 535
f 527 633 541
f 644 633 527
f 527 643 644
f 117 528 116
f 527 524 643
f 524 642 643
f 524 641 642
f 640 641 524
f 526 108 493
f 492 523 493
f 492 594 523
f 523 594 595
f 90 91 522
f 523 595 521
f 521 595 596
f 521 596 559
f 559 596 597
f 559 597 586
f 565 559 586
f 567 559 565
f 567 557 559
f 557 558 559
f 558 568 559
f 559 568 569
f 559 569 570
f 573 559 570
f 572 559 573
f 570 577 573
f 573 577 578
f 573 578 579
f 579 578 580
f 579 580 581
f 581 580 560
f 581 560 582
f 560 584 582
f 560 583 584
f 562 583 560
f 560 561 562
f 576 561 560
f 575 561 576
f 575 567 561
f 574 567 575
f 574 557 567
f 565 566 567
f 565 564 566
f 563 564 565
f 586 587 565
f 565 587 588
f 565 588 589
f 227 589 588
f 590 589 227
f 590 593 589
f 592 593 590
f 590 591 592
f 227 588 585
f 585 222 227
f 572 521 559
f 571 521 572
f 571 520 521
f 524 93 525
f 551 640 524
f 551 99 100
f 550 190 189
f 106 556 105
f 494 1075 171
f 171 1075 1077
f 556 174 499
f 174 173 175
f 898 897 899
f 171 1077 1079
f 1075 1076 1077
f 1160 898 1078
f 1075 1074 1076
f 1160 142 135
f 496 1074 1075
f 165 1000 166
f 166 1000 151
f 151 1000 1298
f 1299 153 1298
f 1299 1216 1267
f 1267 1216 1266
f 1266 1216 1215
f 1266 1215 1268
f 1268 1215 1226
f 1268 1226 1269
f 1269 1248 1268
f 1268 1248 1249
f 1248 716 1249
f 1249 716 718
f 1249 718 1250
f 1266 1249 1250
f 1266 1250 1265
f 1265 138 1266
f 1265 1219 138
f 1265 1217 1219
f 1277 1217 1265
f 1265 1251 1277
f 1277 1251 1240
f 1277 1240 1276
f 1276 1227 1277
f 1276 1228 1227
f 1275 1228 1276
f 1275 1229 1228
f 1274 1229 1275
f 1274 1223 1229
f 1273 1223 1274
f 1274 1243 1273
f 1273 1243 1244
f 1273 1244 1272
f 1272 1221 1273
f 1272 1220 1221
f 1271 1220 1272
f 1271 1224 1220
f 1270 1224 1271
f 1270 1225 1224
f 1269 1225 1270
f 1270 1247 1269
f 1270 1246 1247
f 1246 712 1247
f 1247 712 714
f 1247 714 1248
f 1246 710 712
f 1245 710 1246
f 1245 708 710
f 1244 708 1245
f 1244 706 708
f 1271 1245 1246
f 1271 1246 1270
f 1272 1245 1271
f 1272 1244 1245
f 1243 706 1244
f 1243 704 706
f 1242 704 1243
f 1242 702 704
f 1241 702 1242
f 1241 700 702
f 1240 700 1241
f 1240 698 700
f 1275 1241 1242
f 1274 1242 1243
f 1273 1221 1223
f 1275 1242 1274
f 1276 1241 1275
f 1276 1240 1241
f 1251 698 1240
f 1251 720 698
f 1250 720 1251
f 1277 1227 1217
f 1265 1250 1251
f 1250 718 720
f 1248 714 716
f 1269 1247 1248
f 1269 1226 1225
f 1268 1249 1266
f 1266 138 1267
f 1221 1222 1223
f 1222 1234 1218
f 1235 1234 1236
f 1238 567 1239
f 1231 1236 1237
f 1239 567 566
f 1237 1281 1282
f 1237 1282 1232
f 662 1279 663
f 1232 1282 1280
f 1231 1237 1232
f 661 1230 662
f 1301 1231 1302
f 661 1304 1230
f 310 1302 311
f 661 1303 1304
f 654 1303 659
f 1024 330 655
f 1024 1176 1023
f 1176 1132 1137
f 965 1137 1132
f 1133 1175 1134
f 1134 1175 1177
f 1134 1177 1130
f 764 312 965
f 764 699 312
f 701 699 764
f 764 703 701
f 764 705 703
f 765 705 764
f 765 707 705
f 709 707 765
f 765 711 709
f 765 713 711
f 302 713 765
f 765 959 302
f 302 959 303
f 964 303 959
f 959 829 964
f 959 827 829
f 827 828 829
f 827 826 828
f 963 303 964
f 765 827 959
f 827 765 825
f 302 715 713
f 301 715 302
f 301 717 715
f 719 717 301
f 312 719 301
f 312 721 719
f 699 721 312
f 825 765 764
f 825 826 827
f 1130 1177 1131
f 658 1177 1175
f 658 654 659
f 659 1303 661
f 657 662 663
f 660 828 826
f 828 819 829
f 1287 821 819
f 820 819 821
f 820 821 822
f 822 821 823
f 818 819 820
f 656 589 657
f 1286 821 1287
f 1284 1285 592
f 1286 823 821
f 1284 824 1285
f 822 823 804
f 1284 803 824
f 856 793 803
f 793 794 795
f 794 1064 795
f 1063 306 1064
f 1066 806 1065
f 1067 806 1066
f 1062 304 201
f 1067 808 806
f 807 808 809
f 810 1062 201
f 201 202 203
f 203 204 193
f 192 836 193
f 842 841 843
f 836 835 837
f 829 819 818
f 964 829 963
f 837 958 838
f 963 27 303
f 198 961 958
f 961 962 52
f 51 52 53
f 28 50 48
f 46 23 48
f 43 44 45
f 20 22 46
f 18 19 20
f 42 9 44
f 18 11 19
f 42 10 9
f 11 10 12

