# https://github.com/mikedh/trimesh
v 0.02269427 0.01938095 0.00850003
v 0.02622986 0.02240180 0.00850004
v 0.03439325 0.00270424 0.00849955
v 0.02975729 0.00233849 0.00849961
v 0.03353944 0.00807569 0.00849966
v 0.03185206 0.01324621 0.00849978
v 0.02937306 0.01808729 0.00849991
v 0.02561621 0.00852409 0.00849979
v 0.02184992 0.01819484 0.00850002
v 0.02166344 0.01675088 0.00850000
v 0.02217875 0.01538918 0.00849996
v 0.02414274 0.01207944 0.00849987
v 0.02832144 0.00257961 0.00849964
v 0.02716821 0.00346834 0.00849967
v 0.02656922 0.00479536 0.00849970
f 5 6 8
f 15 5 8
f 14 5 15
f 14 4 5
f 13 4 14
f 4 3 5
f 6 12 8
f 6 11 12
f 7 11 6
f 7 10 11
f 9 10 7
f 7 1 9
f 2 1 7

