# https://github.com/mikedh/trimesh
v -0.00960956 0.00275735 0.00950019
v -0.00836718 0.00546695 0.00950022
v -0.00638133 0.00768998 0.00950024
v -0.00382845 0.00922890 0.00950023
v -0.00608596 -0.00794386 0.00949994
v -0.00815437 -0.00579744 0.00950001
v -0.00949821 -0.00313670 0.00950008
v -0.00999808 -0.00019806 0.00950014
v -0.00347678 -0.00938526 0.00949987
v -0.00055866 -0.00999355 0.00949982
v 0.00240911 -0.00971468 0.00949978
v 0.00516283 -0.00857343 0.00949976
v 0.00204080 0.00978040 0.00950015
v 0.00483566 0.00874399 0.00950009
v 0.00720087 0.00692981 0.00950002
v 0.00892626 0.00449908 0.00949995
v 0.00985853 0.00166777 0.00949989
v 0.00991484 -0.00131254 0.00949983
v 0.00909018 -0.00417705 0.00949979
v 0.00745783 -0.00667122 0.00949977
v -0.00093539 0.00994697 0.00950020
v -0.00815450 -0.00579726 0.00000001
v -0.00949834 -0.00313652 0.00000008
v -0.00999821 -0.00019789 0.00000014
v -0.00960970 0.00275753 0.00000019
v 0.00483552 0.00874416 0.00000009
v 0.00720073 0.00692999 0.00000002
v 0.00892613 0.00449926 -0.00000005
v 0.00909004 -0.00417687 -0.00000021
v 0.00991470 -0.00131237 -0.00000017
v 0.00985839 0.00166795 -0.00000011
v 0.00240897 -0.00971450 -0.00000022
v 0.00516270 -0.00857325 -0.00000024
v 0.00745769 -0.00667104 -0.00000023
v -0.00055880 -0.00999337 -0.00000018
v -0.00608610 -0.00794369 -0.00000006
v -0.00347692 -0.00938508 -0.00000013
v -0.00836732 0.00546713 0.00000022
v 0.00204066 0.00978058 0.00000015
v -0.00093553 0.00994715 0.00000020
v -0.00382859 0.00922907 0.00000023
v -0.00638147 0.00769015 0.00000024
f 41 4 42
f 42 4 3
f 42 3 38
f 38 3 2
f 38 2 25
f 25 2 1
f 25 1 24
f 24 1 8
f 24 8 23
f 23 8 7
f 23 7 22
f 22 7 6
f 22 6 36
f 36 6 5
f 36 5 37
f 37 5 9
f 37 9 35
f 35 9 10
f 35 10 32
f 32 10 11
f 32 11 33
f 33 11 12
f 33 12 34
f 34 12 20
f 34 20 29
f 29 20 19
f 29 19 30
f 30 19 18
f 30 18 31
f 31 18 17
f 31 17 28
f 28 17 16
f 28 16 27
f 27 16 15
f 27 15 26
f 26 15 14
f 26 14 39
f 39 14 13
f 39 13 40
f 40 13 21
f 40 21 41
f 41 21 4

