# https://github.com/mikedh/trimesh
v 0.01810831 -0.00144091 0.00219971
v 0.01964390 -0.00117971 0.00219969
v 0.02114075 -0.00161063 0.00219966
v 0.02230240 -0.00264834 0.00219962
v 0.02289876 -0.00408731 0.00219959
v 0.02281172 -0.00564252 0.00219956
v 0.02205851 -0.00700595 0.00219955
v 0.02078833 -0.00790756 0.00219955
v 0.01925274 -0.00816877 0.00219957
v 0.01775589 -0.00773784 0.00219960
v 0.01659424 -0.00670013 0.00219963
v 0.01599788 -0.00526117 0.00219967
v 0.01608493 -0.00370595 0.00219970
v 0.01683813 -0.00234252 0.00219971
v 0.01778204 -0.00339615 0.00219968
v 0.01864432 -0.00273424 0.00219968
v 0.01736624 -0.00440053 0.00219966
v 0.01750833 -0.00547824 0.00219964
v 0.01817024 -0.00634052 0.00219962
v 0.01917461 -0.00675632 0.00219959
v 0.02025233 -0.00661423 0.00219958
v 0.02111461 -0.00595232 0.00219958
v 0.02153041 -0.00494795 0.00219959
v 0.02138831 -0.00387023 0.00219962
v 0.02072640 -0.00300795 0.00219964
v 0.01972203 -0.00259215 0.00219966
f 18 12 17
f 17 12 13
f 17 13 15
f 15 13 14
f 15 14 16
f 16 14 1
f 16 1 26
f 26 1 2
f 26 2 25
f 25 2 3
f 25 3 24
f 3 4 24
f 24 4 5
f 24 5 23
f 23 5 6
f 23 6 22
f 22 6 7
f 22 7 21
f 21 7 8
f 21 8 20
f 20 8 9
f 20 9 19
f 19 9 10
f 19 10 18
f 18 10 11
f 18 11 12

