# https://github.com/mikedh/trimesh
v 0.02545408 -0.01560069 0.00849934
v 0.02941964 -0.01802975 0.00849923
v 0.02615612 -0.02250612 0.00849920
v 0.02229551 -0.02633720 0.00849918
v 0.02936668 -0.01811593 0.00849923
v 0.02149838 -0.01634393 0.00849938
v 0.01895145 -0.01924057 0.00849936
v 0.01601776 -0.02174473 0.00849936
v 0.01122828 -0.02588460 0.00849935
v 0.01127187 -0.02720689 0.00849933
v 0.01175771 -0.02467214 0.00849937
v 0.01275719 -0.02380531 0.00849937
v 0.02263420 -0.01543305 0.00849938
v 0.02406511 -0.01516419 0.00849937
f 3 6 4
f 4 6 7
f 4 7 8
f 12 4 8
f 11 4 12
f 11 10 4
f 9 10 11
f 14 6 3
f 13 6 14
f 14 3 1
f 1 3 5
f 1 5 2

