# https://github.com/mikedh/trimesh
v 0.09916057 -0.03550182 -0.02851222
v 0.08616997 -0.03644602 -0.02851221
v 0.09916145 0.03560176 -0.02851220
v 0.01543530 0.02955002 -0.02851215
v 0.02560912 -0.03108519 -0.02851217
v 0.01623791 -0.02954015 -0.02851217
v 0.03324915 0.03299806 -0.02851218
v 0.03584859 0.03372514 -0.02851216
v 0.03584547 -0.03362285 -0.02851220
v 0.00433332 0.02885466 -0.02851216
v 0.03848005 -0.03445785 -0.02851219
v 0.10303435 -0.03502249 -0.02851224
v -0.03376421 0.02965677 -0.02851213
v -0.03331740 0.02965497 -0.02851213
v -0.02553850 -0.02924762 -0.02851215
v 0.04637627 -0.03666661 -0.02851220
v 0.04257689 -0.03598781 -0.02851220
v 0.04175917 -0.03567750 -0.02851219
v 0.02727531 -0.03144924 -0.02851218
v 0.02560991 0.03118706 -0.02851216
v 0.02646257 0.03137148 -0.02851215
v 0.04637888 0.03676794 -0.02851218
v 0.07279121 0.03684222 -0.02851218
v 0.07294740 -0.03674069 -0.02851222
v 0.08676900 0.03651974 -0.02851219
v 0.09824576 0.03569663 -0.02851220
v 0.04257767 0.03608920 -0.02851217
v 0.00607136 -0.02879471 -0.02851217
v 0.00267311 -0.02873229 -0.02851217
v 0.00182426 0.02883206 -0.02851216
v 0.00182347 -0.02872955 -0.02851217
v -0.00796779 -0.02878892 -0.02851216
v -0.00796700 0.02889163 -0.02851214
v 0.00096153 0.02883273 -0.02851215
v -0.06374922 -0.00880169 -0.02851213
v -0.06278813 -0.01136927 -0.02851211
v -0.06203667 -0.01301138 -0.02851212
v -0.03244694 -0.02953544 -0.02851214
v -0.03331818 -0.02955162 -0.02851215
v -0.03765162 -0.02940758 -0.02851214
v -0.06401027 -0.00796625 -0.02851212
v -0.06484634 -0.00444782 -0.02851212
v -0.06507555 -0.00291585 -0.02851213
v 0.10303416 0.03512256 -0.02851220
v 0.11151968 0.03353627 -0.02851222
v 0.11151966 -0.03343636 -0.02851223
v 0.11869903 0.03142016 -0.02851222
v 0.11869887 -0.03132040 -0.02851223
v 0.12470140 0.02883281 -0.02851223
v 0.12470116 -0.02873319 -0.02851223
v 0.13016404 -0.02534127 -0.02851224
v -0.03944742 -0.02921864 -0.02851214
v -0.04300094 -0.02854358 -0.02851214
v -0.04485161 -0.02800360 -0.02851213
v -0.04644096 -0.02742112 -0.02851213
v -0.04970249 -0.02585690 -0.02851212
v -0.05125343 -0.02493183 -0.02851214
v -0.05419133 -0.02282321 -0.02851212
v -0.05686465 -0.02038678 -0.02851213
v -0.05808121 -0.01905190 -0.02851212
v -0.05613793 0.02121237 -0.02851211
v -0.05814924 0.01907539 -0.02851212
v -0.06085443 0.01528709 -0.02851212
v -0.04968129 0.02597182 -0.02851212
v -0.04483883 0.02811121 -0.02851212
v -0.05465630 0.02254283 -0.02851212
v -0.04263239 0.02873844 -0.02851212
v -0.03965342 0.02929446 -0.02851212
v 0.14149992 0.00690535 -0.02851224
v 0.14206232 0.00004949 -0.02851225
v 0.13016433 0.02544077 -0.02851224
v -0.06024795 -0.01615474 -0.02851214
v -0.06147297 -0.01409973 -0.02851212
v -0.06524368 -0.00085038 -0.02851211
v -0.06526168 0.00005220 -0.02851212
v -0.06505764 0.00316331 -0.02851211
v -0.06411357 0.00771567 -0.02851212
v -0.06140614 0.01432541 -0.02851213
v 0.14149977 -0.00680630 -0.02851223
v 0.14006187 -0.01223060 -0.02851224
v 0.14006212 0.01232975 -0.02851222
v 0.13436103 0.02167492 -0.02851223
v 0.13775712 0.01716049 -0.02851223
v 0.13775682 -0.01706121 -0.02851223
v 0.13436072 -0.02157553 -0.02851223
v -0.02383820 0.02666803 -0.01500006
v -0.03342444 0.02628826 -0.01500006
v -0.03845874 -0.02530391 -0.01500006
v -0.03775157 0.02557813 -0.01500006
v -0.03994915 -0.02488790 -0.01500006
v -0.04575018 -0.02240134 -0.01500007
v -0.03170149 -0.02634323 -0.01500007
v -0.02485796 -0.02656065 -0.01500006
v 0.00141363 0.02715695 -0.01500005
v 0.00358186 -0.02713463 -0.01500007
v 0.01471815 0.02828533 -0.01500006
v 0.01689289 -0.02846741 -0.01500005
v 0.01689361 0.02857015 -0.01500005
v 0.02781039 -0.02988516 -0.01500005
v 0.02917876 0.03013266 -0.01500006
v 0.03855659 -0.03044237 -0.01500007
v 0.04017891 0.03049573 -0.01500006
v 0.05226536 -0.02952037 -0.01500007
v 0.05977842 0.02905719 -0.01500007
v -0.05855028 -0.00309965 -0.01500006
v -0.05707343 -0.00920189 -0.01500006
v -0.05873844 0.00005232 -0.01500007
v -0.04194141 0.02431136 -0.01500007
v -0.04734925 0.02152146 -0.01500005
v 0.08126741 0.02681044 -0.01500006
v 0.07909388 -0.02698776 -0.01500005
v 0.08874167 0.02554026 -0.01500006
v 0.08902650 -0.02537395 -0.01500006
v 0.09573127 0.02327351 -0.01500005
v 0.09584345 -0.02312386 -0.01500007
v 0.10137850 0.02021379 -0.01500006
v -0.05433789 -0.01455635 -0.01500005
v -0.05057526 -0.01892891 -0.01500006
v -0.05198435 0.01763785 -0.01500005
v -0.05568939 0.01239807 -0.01500005
v -0.05796609 0.00640379 -0.01500006
v 0.10210159 -0.01961387 -0.01500005
v 0.10659183 -0.01568555 -0.01500006
v 0.10613936 0.01626542 -0.01500007
v 0.10973182 -0.01145230 -0.01500005
v 0.11201829 -0.00596483 -0.01500007
v 0.11279067 0.00005017 -0.01500005
v 0.11214413 0.00557205 -0.01500006
v 0.10988453 0.01128710 -0.01500006
v -0.06057025 0.01056166 -0.01163812
v -0.06070862 0.01015222 -0.01163359
v -0.06038780 0.01049145 -0.01157739
v -0.06163849 0.00682304 -0.01163726
v -0.06164243 0.00580405 -0.01157674
v -0.06186070 0.00573075 -0.01163749
v -0.06167744 0.00561761 -0.01157669
v -0.06206971 0.00306944 -0.01157595
v -0.06245210 0.00100008 -0.01163444
v -0.06227496 0.00048441 -0.01157405
v -0.06247691 0.00005140 -0.01163276
v -0.06228112 0.00005237 -0.01157407
v -0.06247189 -0.00038094 -0.01163345
v -0.06225445 -0.00088487 -0.01157471
v -0.06227123 -0.00296790 -0.01163641
v -0.06145092 -0.00664445 -0.01157682
v -0.06038806 -0.01038681 -0.01157739
v -0.06053728 -0.00998099 -0.01157665
v -0.06057051 -0.01045698 -0.01163812
v -0.06190637 -0.00538075 -0.01163750
v -0.04692020 -0.02512657 -0.01159276
v -0.04780182 -0.02465843 -0.01159200
v -0.04789978 -0.02483528 -0.01165288
v -0.06038239 -0.01092915 -0.01163844
v -0.05490175 -0.01942222 -0.01164706
v -0.05280311 -0.02115882 -0.01158692
v -0.05656500 -0.01716460 -0.01158285
v -0.05978828 -0.01180846 -0.01157777
v -0.05856650 -0.01456157 -0.01164056
v -0.05722422 -0.01627162 -0.01158196
v -0.05765732 -0.01598535 -0.01164163
v -0.05672087 -0.01728448 -0.01164410
v -0.05395555 -0.02037616 -0.01164766
v -0.05270632 -0.02150596 -0.01164831
v -0.05200861 -0.02182607 -0.01158771
v -0.05026671 -0.02337172 -0.01164920
v -0.04943109 -0.02392408 -0.01165026
v -0.03322893 -0.02858664 -0.01161928
v -0.03280883 -0.02881394 -0.01168208
v -0.02916703 -0.02863557 -0.01163263
v -0.02906438 -0.02884438 -0.01169496
v -0.02906793 -0.02863378 -0.01163293
v -0.04491277 -0.02627587 -0.01165321
v -0.04428564 -0.02652915 -0.01165393
v -0.04212587 -0.02707205 -0.01159981
v -0.04218672 -0.02726625 -0.01166038
v -0.04075577 -0.02746525 -0.01160362
v -0.03908994 -0.02806635 -0.01166616
v -0.03644945 -0.02830168 -0.01161087
v -0.03647647 -0.02850621 -0.01167220
v -0.03331639 -0.02879041 -0.01168138
v 0.00182661 -0.02839843 -0.01168475
v 0.00131852 -0.02839929 -0.01168224
v 0.00182550 -0.02861736 -0.01174405
v -0.00569587 -0.02837966 -0.01167437
v -0.01564069 -0.02866937 -0.01171433
v -0.02448010 -0.02872374 -0.01170364
v -0.06545492 -0.00218040 -0.02818638
v -0.06541002 -0.00262497 -0.02818642
v -0.06423842 -0.00267893 -0.01983302
v -0.06388853 -0.00932801 -0.02819023
v -0.06297100 -0.01170284 -0.02819159
v -0.06203939 -0.01143073 -0.01983784
v -0.03331584 -0.02985158 -0.02820813
v -0.03331581 -0.02984126 -0.02750794
v -0.03720479 -0.02974205 -0.02820514
v -0.03924886 -0.02954621 -0.02820335
v -0.03908898 -0.02910048 -0.01991515
v -0.04090057 -0.02929976 -0.02820179
v -0.04494340 -0.02760890 -0.01988962
v -0.04457847 -0.02840684 -0.02819896
v -0.05019726 -0.02592066 -0.02819707
v -0.04884100 -0.02665603 -0.02819755
v -0.05038177 -0.02495805 -0.01987446
v -0.04791129 -0.02710966 -0.02819749
v -0.04529480 -0.02816999 -0.02819863
v -0.05197782 -0.02481803 -0.02819665
v -0.05172481 -0.02498462 -0.02819659
v -0.05518373 -0.02128836 -0.01986141
v -0.05585923 -0.02178131 -0.02819465
v -0.05488509 -0.02263829 -0.02819533
v -0.05394363 -0.02340152 -0.02819627
v -0.05346224 -0.02376946 -0.02819659
v -0.05321898 -0.02394998 -0.02819668
v -0.05297402 -0.02412822 -0.02819673
v -0.05272742 -0.02430416 -0.02819676
v -0.05222927 -0.02464907 -0.02819669
v -0.05147023 -0.02514883 -0.02819655
v -0.05095652 -0.02547007 -0.02819662
v -0.05913029 -0.01672248 -0.01984959
v -0.05912608 -0.01824425 -0.02819292
v -0.05667604 -0.02100266 -0.02819433
v -0.06240936 -0.01293036 -0.02819200
v -0.06119243 -0.01520104 -0.02819226
v -0.05995172 -0.01712689 -0.02819258
v -0.06515897 -0.00439544 -0.02818703
v -0.06480239 -0.00614757 -0.02818794
v -0.06377485 -0.00565533 -0.01982984
v -0.06439497 0.00005436 -0.01983847
v -0.06474940 0.00005399 -0.02181889
v -0.06555615 -0.00039475 -0.02818621
v -0.06556054 0.00005206 -0.02818622
v -0.06351403 0.00005543 -0.01571768
v -0.03331535 -0.02948429 -0.01859116
v -0.00311970 0.02848637 -0.01167744
v -0.00108122 0.02849575 -0.01168001
v 0.00131660 0.02872033 -0.01174170
v 0.00182514 0.02850153 -0.01168475
v 0.00182622 0.02872013 -0.01174405
v -0.01331192 0.02853954 -0.01165773
v -0.00923512 0.02850112 -0.01166842
v -0.01539076 0.02877053 -0.01171471
v -0.00719669 0.02848770 -0.01167247
v -0.00515819 0.02848253 -0.01167488
v -0.02554239 0.02863983 -0.01164000
v -0.02350422 0.02860079 -0.01164274
v -0.02447937 0.02882686 -0.01170344
v -0.02146576 0.02858500 -0.01164404
v -0.01738880 0.02857009 -0.01164817
v -0.02757998 0.02870053 -0.01163614
v -0.02905424 0.02894742 -0.01169477
v -0.02961806 0.02874627 -0.01163119
v -0.03165681 0.02874314 -0.01162371
v -0.03331565 0.02889376 -0.01168139
v -0.03369429 0.02866504 -0.01161819
v -0.03382446 0.02886459 -0.01167950
v -0.03572619 0.02849298 -0.01161305
v -0.03585572 0.02868559 -0.01167398
v -0.03774618 0.02821299 -0.01160712
v -0.03787472 0.02839896 -0.01166770
v -0.03873329 0.02824159 -0.01166628
v -0.03974683 0.02781731 -0.01160482
v -0.03987417 0.02799741 -0.01166542
v -0.04171956 0.02729962 -0.01160118
v -0.04184536 0.02747403 -0.01166139
v -0.04365499 0.02665621 -0.01159478
v -0.04377910 0.02682567 -0.01165479
v -0.04554418 0.02588739 -0.01159275
v -0.04750668 0.02515233 -0.01165310
v -0.04663369 0.02537457 -0.01159285
v -0.04781927 0.02475279 -0.01159197
v -0.04915212 0.02396746 -0.01158998
v -0.04927099 0.02412868 -0.01165038
v -0.05084231 0.02282559 -0.01158842
v -0.05096001 0.02298518 -0.01164873
v -0.05244779 0.02156735 -0.01158731
v -0.05256618 0.02172791 -0.01164823
v -0.05395901 0.02019724 -0.01158568
v -0.05407926 0.02035993 -0.01164742
v -0.05536610 0.01872035 -0.01158424
v -0.05548799 0.01888457 -0.01164629
v -0.05666055 0.01714379 -0.01158276
v -0.05678202 0.01730760 -0.01164380
v -0.05755597 0.01623700 -0.01164176
v -0.05783453 0.01547556 -0.01158099
v -0.05795617 0.01563955 -0.01164084
v -0.05888114 0.01372461 -0.01157919
v -0.05901432 0.01389594 -0.01164151
v -0.05979382 0.01190027 -0.01157776
v -0.05985376 0.01226410 -0.01164240
v -0.06019960 0.01096511 -0.01157781
v -0.06030404 0.01122855 -0.01163929
v -0.06238426 0.01308551 -0.02819198
v -0.06287786 0.01201963 -0.02819171
v -0.06195160 0.01174265 -0.01983779
v -0.06528337 0.00371993 -0.02818673
v -0.06540097 0.00281002 -0.02818644
v -0.06554192 0.00097571 -0.02818627
v -0.06548781 0.00189662 -0.02818638
v -0.06323790 0.01116993 -0.02819127
v -0.06398990 0.00913065 -0.02819000
v -0.06372184 0.00601633 -0.01982930
v -0.06448492 0.00749917 -0.02818887
v -0.06482096 0.00617099 -0.02818789
v -0.06166843 0.01446958 -0.02819224
v -0.05902232 0.01698044 -0.01984942
v -0.06057057 0.01631089 -0.02819235
v -0.05507302 0.02149471 -0.01986117
v -0.05840556 0.01923602 -0.02819327
v -0.05984003 0.01738834 -0.02819263
v -0.05007491 0.02609401 -0.02819694
v -0.05079663 0.02567073 -0.02819666
v -0.05028515 0.02512100 -0.01987420
v -0.05324172 0.02403661 -0.02819581
v -0.05618165 0.02158434 -0.02819446
v -0.04788819 0.02722381 -0.02819755
v -0.04487199 0.02773819 -0.01988934
v -0.04522112 0.02829877 -0.02819864
v -0.03773811 0.02980493 -0.02820469
v -0.03920979 0.02965445 -0.02820337
v -0.03905107 0.02920973 -0.01991481
v -0.04086729 0.02940900 -0.02820194
v -0.04447218 0.02854352 -0.02819903
v -0.03331460 0.02963323 -0.01927854
v -0.03331508 0.02995494 -0.02820812
v -0.03419990 0.02995536 -0.02820753
v -0.03331443 0.02899571 -0.01243873
v 0.09919432 -0.03440762 -0.02269624
v 0.09919403 -0.03559301 -0.02709047
v 0.10495334 -0.03483040 -0.02709013
v 0.09919439 -0.03380253 -0.02100133
v 0.09967687 -0.03395023 -0.02153841
v 0.10746301 -0.03265569 -0.02100264
v 0.09919430 -0.03439065 -0.02264531
v 0.11098263 -0.03366885 -0.02709087
v 0.11370225 -0.03134962 -0.02100532
v 0.11419447 -0.03286452 -0.02709161
v 0.11634094 -0.03223911 -0.02709216
v 0.11794561 -0.03015972 -0.02100772
v 0.11793295 -0.03172008 -0.02709267
v 0.11906077 -0.02979635 -0.02100837
v 0.12104698 -0.03055765 -0.02709390
v 0.12518550 -0.02865295 -0.02709622
v 0.12365916 -0.02801958 -0.02101098
v 0.12880519 -0.02652053 -0.02709875
v 0.12760329 -0.02603127 -0.02101357
v 0.12985414 -0.02463140 -0.02101504
v 0.13018388 -0.02555608 -0.02709987
v 0.13098244 -0.02383566 -0.02101577
v 0.13200796 -0.02411293 -0.02710146
v 0.13474220 -0.02148722 -0.02710413
v 0.13386604 -0.02142961 -0.02101750
v 0.13710116 -0.01853825 -0.02710685
v 0.13627495 -0.01883006 -0.02101877
v 0.13767055 -0.01693978 -0.02101938
v 0.13773321 -0.01758507 -0.02710766
v 0.13841669 -0.01575946 -0.02101967
v 0.14173800 -0.00686902 -0.02102043
v 0.14124775 -0.00899588 -0.02102035
v 0.14149740 -0.00826949 -0.02711250
v 0.14006408 -0.01247293 -0.02102014
v 0.14045425 -0.01195374 -0.02711119
v 0.13904774 -0.01526836 -0.02710938
v 0.14200719 -0.00525159 -0.02102047
v 0.14214705 -0.00422148 -0.02711330
v 0.14234413 -0.00125126 -0.02102050
v 0.14236455 0.00004959 -0.02711355
v 0.14236535 0.00004817 -0.02102051
v 0.09919184 -0.03579548 -0.02815984
v 0.10538325 -0.03496327 -0.02815983
v 0.11148403 -0.03374888 -0.02816197
v 0.11708006 -0.03218830 -0.02816617
v 0.12177863 -0.03043091 -0.02816932
v 0.12250936 -0.03011233 -0.02817031
v 0.13162623 -0.02456881 -0.02818450
v 0.13022713 -0.02566664 -0.02818200
v 0.12853129 -0.02685091 -0.02817905
v 0.12512374 -0.02884908 -0.02817385
v 0.13407354 -0.02231297 -0.02818977
v 0.13642915 -0.01956379 -0.02819674
v 0.13775386 -0.01763782 -0.02820035
v 0.14024527 -0.01259875 -0.02820591
v 0.14007996 -0.01302814 -0.02820577
v 0.13990790 -0.01345488 -0.02820557
v 0.13972904 -0.01387881 -0.02820529
v 0.13954332 -0.01429980 -0.02820491
v 0.13935079 -0.01471770 -0.02820447
v 0.13851117 -0.01635662 -0.02820238
v 0.14153644 -0.00818668 -0.02820687
v 0.14143626 -0.00863576 -0.02820671
v 0.14109769 -0.00997385 -0.02820643
v 0.14121693 -0.00952945 -0.02820650
v 0.14132977 -0.00908339 -0.02820659
v 0.14097200 -0.01041647 -0.02820634
v 0.14083983 -0.01085720 -0.02820626
v 0.14070110 -0.01129592 -0.02820616
v 0.14055581 -0.01173250 -0.02820609
v 0.14040387 -0.01216682 -0.02820601
v 0.14236231 0.00004946 -0.02821282
v 0.14235328 -0.00087076 -0.02821262
v 0.14212109 -0.00454774 -0.02820980
v 0.14179526 -0.00685778 -0.02820769
v 0.00182354 -0.02902960 -0.02821193
v 0.00095220 -0.02903027 -0.02821214
v -0.02448632 -0.02950562 -0.02821120
v -0.02552621 -0.02954737 -0.02821111
v -0.03245245 0.02993903 -0.02820875
v -0.01565760 0.02933095 -0.02821326
v -0.00796325 0.02919159 -0.02821289
v 0.00182427 0.02913206 -0.02821191
v 0.14215448 0.00432930 -0.02821008
v 0.14194191 0.00604619 -0.02820846
v 0.14151213 0.00839837 -0.02820682
v 0.14014061 0.01297275 -0.02820583
v 0.14054979 0.01184993 -0.02820607
v 0.14091425 0.01071181 -0.02820629
v 0.14107993 0.01013780 -0.02820641
v 0.14137878 0.00898074 -0.02820664
v 0.13944140 0.01462309 -0.02820467
v 0.13991904 0.01352759 -0.02820557
v 0.13393264 0.02255654 -0.02818938
v 0.13445246 0.02201589 -0.02819083
v 0.13632984 0.01979493 -0.02819644
v 0.13834605 0.01674944 -0.02820193
v 0.13207795 0.02428716 -0.02818532
v 0.12912396 0.02655330 -0.02818009
v 0.12543620 0.02878359 -0.02817427
v 0.12259793 0.03017251 -0.02817040
v 0.12088761 0.03090131 -0.02816832
v 0.11594920 0.03264488 -0.02816554
v 0.11797103 0.03199021 -0.02816656
v 0.10380309 0.03530978 -0.02815966
v 0.10472189 0.03516953 -0.02815974
v 0.10655547 0.03486357 -0.02816001
v 0.10785551 0.03462434 -0.02816035
v 0.11382195 0.03325606 -0.02816371
v 0.10011645 0.03579284 -0.02815956
v 0.09919272 0.03589550 -0.02815984
v 0.11011841 0.03396170 -0.02709085
v 0.09919486 0.03569336 -0.02709056
v 0.09919505 0.03563016 -0.02679300
v 0.09919073 0.03410388 -0.02153862
v 0.09919291 0.03410364 -0.02153863
v 0.09919076 0.03428911 -0.02205406
v 0.09919079 0.03446694 -0.02257124
v 0.09919507 0.03410343 -0.02153862
v 0.09919523 0.03390158 -0.02100132
v 0.10296005 0.03344735 -0.02100187
v 0.10946588 0.03238288 -0.02100379
v 0.11078501 0.03211509 -0.02100432
v 0.11793374 0.03181965 -0.02709277
v 0.11512311 0.03107975 -0.02100650
v 0.12005068 0.02955082 -0.02100926
v 0.12172199 0.03037800 -0.02709433
v 0.12434846 0.02780494 -0.02101173
v 0.12443189 0.02913675 -0.02709582
v 0.12809756 0.02584014 -0.02101418
v 0.13018450 0.02565533 -0.02709993
v 0.13009058 0.02456748 -0.02101545
v 0.13137685 0.02363751 -0.02101624
v 0.13419969 0.02120543 -0.02101791
v 0.13441731 0.02193480 -0.02710386
v 0.13663882 0.01846755 -0.02101910
v 0.13773364 0.01768413 -0.02710771
v 0.13782537 0.01680338 -0.02101961
v 0.13918231 0.01509770 -0.02710960
v 0.13868576 0.01539308 -0.02101992
v 0.14032717 0.01191419 -0.02102032
v 0.14026189 0.01258484 -0.02711098
v 0.14141513 0.00844291 -0.02102046
v 0.14174904 0.00711700 -0.02711283
v 0.14179352 0.00667080 -0.02102049
v 0.14209551 0.00467292 -0.02102051
v 0.14235793 0.00080393 -0.02711354
v 0.11038366 -0.03207441 -0.02093931
v 0.09930026 -0.03328159 -0.02032374
v 0.09925885 -0.03344310 -0.02046949
v 0.10772436 -0.03207503 -0.02034836
v 0.11035672 -0.03188828 -0.02064685
v 0.11394241 -0.03074845 -0.02035962
v 0.11787233 -0.02996871 -0.02065193
v 0.11780258 -0.02966008 -0.02036406
v 0.12407295 -0.02762421 -0.02065358
v 0.12112869 -0.02850958 -0.02036632
v 0.11926813 -0.02918035 -0.02036525
v 0.12974142 -0.02449866 -0.02065394
v 0.12770256 -0.02540972 -0.02036614
v 0.12381317 -0.02739914 -0.02036706
v 0.13404711 -0.02104144 -0.02065251
v 0.13085034 -0.02334764 -0.02036338
v 0.12957440 -0.02424304 -0.02036474
v 0.13755892 -0.01686370 -0.02064981
v 0.13568522 -0.01886329 -0.02035376
v 0.13345189 -0.02119690 -0.02035924
v 0.14012483 -0.01200971 -0.02064672
v 0.13924240 -0.01335203 -0.02034175
v 0.13760054 -0.01628976 -0.02034793
v 0.14163516 -0.00683719 -0.02064440
v 0.14062597 -0.00979062 -0.02033493
v 0.13988040 -0.01189502 -0.02033886
v 0.14226425 0.00004783 -0.02064737
v 0.14200264 0.00004623 -0.02033041
v 0.14224742 -0.00104662 -0.02064489
v 0.14188479 -0.00305859 -0.02033206
v 0.14142707 -0.00652719 -0.02033047
v 0.14173336 -0.00686655 -0.02095035
v 0.14234589 -0.00105300 -0.02095038
v 0.14022480 -0.01205921 -0.02095070
v 0.13766165 -0.01693504 -0.02095075
v 0.13415067 -0.02113713 -0.02095002
v 0.12983991 -0.02462018 -0.02094839
v 0.12415676 -0.02777288 -0.02094572
v 0.11793304 -0.03013876 -0.02094299
v 0.11690480 -0.02670157 -0.01841386
v 0.11078676 -0.02852814 -0.01842444
v 0.10396082 -0.03011260 -0.01844209
v 0.09998772 -0.03088227 -0.01845460
v 0.11980828 -0.02563835 -0.01841118
v 0.12197552 -0.02473435 -0.01841018
v 0.12569015 -0.02289589 -0.01840977
v 0.12621346 -0.02260030 -0.01840985
v 0.12948479 -0.02046581 -0.01840673
v 0.13958506 0.00004671 -0.01844860
v 0.13945892 -0.00283892 -0.01844501
v 0.13893224 -0.00632436 -0.01844027
v 0.13796665 -0.00959950 -0.01843422
v 0.13729735 -0.01119546 -0.01843073
v 0.13653003 -0.01269407 -0.01842708
v 0.13454224 -0.01565379 -0.01841881
v 0.13227314 -0.01813197 -0.01841087
v 0.01714638 -0.02964993 -0.01169426
v 0.01711782 -0.02986869 -0.01175132
v 0.01728998 -0.02966877 -0.01169412
v 0.01723297 -0.02988443 -0.01175135
v 0.01740522 -0.02968390 -0.01169404
v 0.01737648 -0.02990297 -0.01175106
v 0.00962163 -0.02901214 -0.01174967
v 0.01667855 -0.02958904 -0.01169458
v 0.01293222 -0.02913145 -0.01169378
v 0.00948570 -0.02899974 -0.01174959
v 0.00603355 -0.02851908 -0.01168847
v 0.00229726 -0.02861858 -0.01174494
v 0.00182338 -0.02901120 -0.02452330
v 0.00182308 -0.02893783 -0.01997518
v -0.01564988 -0.02912983 -0.01995345
v -0.02448302 -0.02932967 -0.01994449
v 0.02554635 -0.03137854 -0.02821140
v 0.02471473 -0.03120441 -0.02821193
v 0.01463838 -0.02966384 -0.02821371
v 0.00432736 -0.02905230 -0.02821188
v 0.00229817 0.02850232 -0.01168571
v 0.00603426 0.02862209 -0.01168848
v 0.00967114 0.02911888 -0.01174953
v 0.00950589 0.02888279 -0.01169101
v 0.01289297 0.02945207 -0.01175184
v 0.01714710 0.02975265 -0.01169425
v 0.01664943 0.02991036 -0.01175173
v 0.01711850 0.02997142 -0.01175131
v 0.00267390 0.02913465 -0.02821196
v 0.00607215 0.02919715 -0.02821226
v 0.01286021 0.02959534 -0.02821333
v 0.01922096 0.03034113 -0.02821374
v 0.02554714 0.03148042 -0.02821139
v -0.02448228 0.02943279 -0.01994440
v -0.01564914 0.02923272 -0.01995336
v 0.00182380 0.02904030 -0.01997511
v 0.00182381 0.02904566 -0.02021060
v 0.01726316 0.02999037 -0.01175116
v 0.01726120 0.02976762 -0.01169415
v 0.01737724 0.03000536 -0.01175107
v 0.01740596 0.02978661 -0.01169403
v 0.14236370 0.00004958 -0.02763465
v 0.09147546 0.03655441 -0.02816125
v 0.04637722 0.03706350 -0.02816078
v 0.04729781 0.03706559 -0.02816000
v 0.06570935 0.03713876 -0.02815973
v 0.08043923 0.03703201 -0.02816049
v 0.08412003 0.03692309 -0.02816078
v 0.11041340 -0.01238583 -0.01154294
v 0.11147931 -0.01021419 -0.01154337
v 0.10967658 -0.01154658 -0.01272402
v 0.11110573 -0.00867170 -0.01260466
v 0.11177053 -0.00947507 -0.01154377
v 0.11154466 -0.00751095 -0.01254202
v 0.11222108 -0.00812370 -0.01154472
v 0.11201826 -0.00596488 -0.01245404
v 0.11282344 -0.00557289 -0.01154737
v 0.11238353 -0.00436109 -0.01236591
v 0.11319418 -0.00257122 -0.01155012
v 0.11276300 -0.00112378 -0.01224551
v 0.11328526 0.00005015 -0.01155095
v 0.11279067 0.00005016 -0.01223477
v 0.10933022 -0.01408654 -0.01154389
v 0.10783796 -0.01422634 -0.01277210
v 0.10725945 -0.01657356 -0.01154742
v 0.10741228 -0.01475035 -0.01277275
v 0.10659176 -0.01568561 -0.01276658
v 0.10579576 -0.01796241 -0.01155133
v 0.10503700 -0.01723972 -0.01273510
v 0.10505963 -0.01858030 -0.01155331
v 0.10405853 -0.01810132 -0.01270478
v 0.10357283 -0.01970258 -0.01155774
v 0.10210159 -0.01961387 -0.01263276
v 0.09908098 -0.02152130 -0.01251460
v 0.09911460 -0.02235009 -0.01157149
v 0.10231245 -0.01946273 -0.01264088
v 0.10154315 -0.02102067 -0.01156403
v 0.08877762 -0.02543107 -0.01248381
v 0.08926170 -0.02606406 -0.01158908
v 0.09172373 -0.02464844 -0.01239807
v 0.09311037 -0.02485554 -0.01158603
v 0.09552558 -0.02326060 -0.01241172
v 0.09687067 -0.02339568 -0.01157793
v 0.09906519 -0.02237483 -0.01157165
v 0.08434194 -0.02626183 -0.01264821
v 0.07934121 -0.02695729 -0.01271704
v 0.07642450 -0.02831163 -0.01160817
v 0.08524317 -0.02701672 -0.01159921
v 0.08581121 -0.02690450 -0.01159872
v 0.08887313 -0.02617243 -0.01159000
v 0.06101779 -0.02885096 -0.01279845
v 0.05784373 -0.03021301 -0.01161807
v 0.06767523 -0.02823201 -0.01277302
v 0.06672037 -0.02937985 -0.01161283
v 0.07378796 -0.02759643 -0.01274874
v 0.07909387 -0.02698775 -0.01271916
v 0.05385099 -0.02940827 -0.01284431
v 0.05226536 -0.02952036 -0.01285541
v 0.04482001 -0.03121875 -0.01162803
v 0.04617840 -0.02997979 -0.01285344
v 0.04438010 -0.03124742 -0.01162884
v 0.03556750 -0.03155117 -0.01164893
v 0.03910949 -0.03042959 -0.01282187
v 0.03696557 -0.03045557 -0.01283659
v 0.03510072 -0.03154308 -0.01165018
v 0.03325716 -0.03034835 -0.01286354
v 0.03098816 -0.03133697 -0.01166448
v 0.03053171 -0.03129979 -0.01166595
v 0.01714638 -0.02849962 -0.01289520
v 0.02781040 -0.02988516 -0.01288211
v 0.02628953 -0.02970701 -0.01288547
v 0.01788768 -0.02974750 -0.01169374
v 0.04637595 -0.03696189 -0.02815923
v 0.06322278 -0.03702582 -0.02816036
v 0.08384614 -0.03683231 -0.02816078
v 0.08714486 -0.03669783 -0.02816099
v 0.09826742 -0.03589135 -0.02816031
v 0.13774399 -0.01761112 -0.02763433
v 0.14235727 -0.00070572 -0.02763803
v 0.14175485 -0.00702704 -0.02763758
v 0.14026815 -0.01250186 -0.02763642
v 0.13443467 -0.02187593 -0.02763185
v 0.13020600 -0.02561162 -0.02762926
v 0.12445408 -0.02911046 -0.02762649
v 0.11012969 -0.03396116 -0.02762295
v 0.11795224 -0.03180734 -0.02762437
v 0.09527375 -0.03418012 -0.02100042
v 0.08513280 -0.03481391 -0.02100040
v 0.08864487 -0.03642577 -0.02709228
v 0.08904556 -0.03563928 -0.02400965
v 0.07719678 -0.03604405 -0.02399022
v 0.07639915 -0.03680564 -0.02709162
v 0.07156675 -0.03515857 -0.02100223
v 0.05234553 -0.03515896 -0.02100448
v 0.05374749 -0.03603312 -0.02383786
v 0.05480972 -0.03679284 -0.02709351
v 0.02620005 0.02979848 -0.01288566
v 0.03022734 0.03023216 -0.01287644
v 0.03004818 0.03136010 -0.01166745
v 0.11324366 0.00184595 -0.01155058
v 0.11257163 0.00330705 -0.01231129
v 0.11328325 0.00045313 -0.01155096
v 0.11176426 0.00694414 -0.01250437
v 0.11214408 0.00557224 -0.01242600
v 0.11285969 0.00546733 -0.01154759
v 0.11320844 0.00246646 -0.01155025
v 0.11250070 0.00378738 -0.01233288
v 0.11222423 0.00821408 -0.01154472
v 0.11140611 0.01048834 -0.01154329
v 0.11059096 0.00993161 -0.01266047
v 0.10988454 0.01128706 -0.01271264
v 0.11032101 0.01264752 -0.01154297
v 0.10979590 0.01144254 -0.01271768
v 0.10699181 0.01694671 -0.01154808
v 0.10613934 0.01626543 -0.01275984
v 0.10910460 0.01449928 -0.01154418
v 0.10791133 0.01423392 -0.01277166
v 0.10871512 0.01314560 -0.01275946
v 0.07931339 0.02805123 -0.01160592
v 0.07767805 0.02725878 -0.01273004
v 0.08581150 0.02700557 -0.01159871
v 0.08543462 0.02618393 -0.01262154
v 0.08844652 0.02638925 -0.01159082
v 0.08731481 0.02584070 -0.01255121
v 0.08887344 0.02627346 -0.01159000
v 0.08874117 0.02554038 -0.01248547
v 0.09295836 0.02500916 -0.01158624
v 0.09159173 0.02478989 -0.01239980
v 0.09597560 0.02387414 -0.01158028
v 0.09562059 0.02332109 -0.01241348
v 0.09945465 0.02227853 -0.01157045
v 0.09818234 0.02210798 -0.01248274
v 0.10242562 0.02057504 -0.01156136
v 0.10160312 0.02006190 -0.01261327
v 0.10488532 0.01882089 -0.01155381
v 0.10465245 0.01768880 -0.01272402
v 0.10561058 0.01679633 -0.01274935
v 0.05784448 0.03031471 -0.01161809
v 0.05977840 0.02905719 -0.01280431
v 0.06672112 0.02948133 -0.01161284
v 0.06267088 0.02880777 -0.01279152
v 0.07185912 0.02893540 -0.01161118
v 0.07885346 0.02811141 -0.01160635
v 0.03637796 0.03055351 -0.01284123
v 0.04017887 0.03049573 -0.01281822
v 0.04392941 0.03137782 -0.01163019
v 0.04250504 0.03037027 -0.01282147
v 0.04438091 0.03134951 -0.01162878
v 0.04919233 0.02984178 -0.01286779
v 0.05635180 0.02932767 -0.01282533
v 0.03510153 0.03164537 -0.01165019
v 0.03464367 0.03163455 -0.01165128
v 0.03053249 0.03140219 -0.01166594
v 0.01714709 0.02860235 -0.01289521
v 0.14143622 0.00657913 -0.02033027
v 0.14130777 0.00723497 -0.02033066
v 0.13930164 0.00432922 -0.01844210
v 0.14179316 0.00411219 -0.02033027
v 0.13598651 0.01371174 -0.01842607
v 0.13751324 0.01081415 -0.01843187
v 0.14011055 0.01139747 -0.02033664
v 0.13786410 0.00996343 -0.01843333
v 0.14116697 0.00787811 -0.02033126
v 0.13861167 0.00770803 -0.01843705
v 0.13892518 0.00644602 -0.01843903
v 0.13861109 0.01469329 -0.02034348
v 0.13748547 0.01656387 -0.02034761
v 0.13387980 0.01654854 -0.01841643
v 0.13661675 0.01779414 -0.02035040
v 0.13274324 0.01776915 -0.01841244
v 0.13407032 0.02070473 -0.02035704
v 0.13147245 0.01896869 -0.01841169
v 0.13128953 0.02311567 -0.02036176
v 0.12849756 0.02127051 -0.01841073
v 0.12980898 0.02418314 -0.02036332
v 0.12512252 0.02330274 -0.01841001
v 0.12772442 0.02549476 -0.02036470
v 0.12384053 0.02748385 -0.02036513
v 0.12116715 0.02518170 -0.01841080
v 0.12146622 0.02847672 -0.02036465
v 0.11648246 0.02694193 -0.01841474
v 0.11929563 0.02926856 -0.02036364
v 0.11812284 0.02965645 -0.02036271
v 0.11399002 0.03083375 -0.02035779
v 0.10778177 0.03216332 -0.02034709
v 0.11092549 0.02858964 -0.01842456
v 0.09930108 0.03338064 -0.02032374
v 0.09998849 0.03098130 -0.01845460
v 0.10288885 0.03042824 -0.01844608
v 0.11825819 0.03013515 -0.02094905
v 0.12442824 0.02774742 -0.02095181
v 0.14169222 0.00664053 -0.02064719
v 0.14023077 0.01184215 -0.02064934
v 0.13771540 0.01672953 -0.02065241
v 0.13424712 0.02094561 -0.02065509
v 0.12997861 0.02443784 -0.02065662
v 0.12434311 0.02760000 -0.02065632
v 0.11819556 0.02996589 -0.02065476
v 0.09922697 0.03368490 -0.02063765
v 0.09980625 0.03362158 -0.02063907
v 0.11074797 0.03190662 -0.02064985
v 0.11077730 0.03209256 -0.02094536
v 0.09977908 0.03381263 -0.02094157
v 0.13007779 0.02455774 -0.02095453
v 0.13435072 0.02103961 -0.02095619
v 0.13781767 0.01679934 -0.02095696
v 0.14033000 0.01189034 -0.02095694
v 0.14178964 0.00666868 -0.02095664
v 0.05311940 0.03572764 -0.02243425
v 0.05234642 0.03525993 -0.02100448
v 0.05867196 0.03528631 -0.02100398
v 0.08503115 0.03491634 -0.02100101
v 0.08953277 0.03468813 -0.02100083
v 0.08884753 0.03575166 -0.02401053
v 0.07664336 0.03517774 -0.02100214
v 0.07706577 0.03614774 -0.02399128
v 0.07345487 0.03693420 -0.02709128
v 0.05481047 0.03689408 -0.02709279
v 0.05378106 0.03615613 -0.02391843
v 0.08585289 0.03665872 -0.02709247
v 0.09562385 0.03604003 -0.02709098
v 0.04439620 -0.03146267 -0.01165829
v 0.08319675 -0.02758861 -0.01160609
v 0.08528138 -0.02721597 -0.01160062
v 0.08892566 -0.02636271 -0.01158327
v 0.07573647 -0.02860260 -0.01161925
v 0.07643991 -0.02851899 -0.01161845
v 0.04483603 -0.03143257 -0.01165554
v 0.05288577 -0.03083950 -0.01164360
v 0.05990136 -0.03024366 -0.01163570
v 0.06498507 -0.02976540 -0.01162954
v 0.09976787 -0.03057491 -0.01815790
v 0.09954999 -0.03028521 -0.01784687
v 0.09251768 -0.03144834 -0.01782739
v 0.08349863 -0.03247873 -0.01782800
v 0.08354630 -0.03303986 -0.01850407
v 0.08999287 -0.03239863 -0.01848560
v 0.03509644 -0.03176174 -0.01168868
v 0.03556324 -0.03176977 -0.01168671
v 0.07498658 -0.03473547 -0.02025292
v 0.06363205 -0.03496622 -0.02041763
v 0.08497425 -0.03452103 -0.02044436
v 0.09701223 -0.03352456 -0.02031724
v 0.08700906 -0.03428808 -0.02028530
v 0.08496284 -0.03439359 -0.02027926
v 0.08498955 -0.03463557 -0.02062278
v 0.06371599 -0.03504752 -0.02060868
v 0.05186126 -0.03488082 -0.02021852
v 0.05198581 -0.03495090 -0.02041248
v 0.05210721 -0.03502059 -0.02060674
v 0.05063462 -0.03421977 -0.01854863
v 0.06853775 -0.03385381 -0.01852742
v 0.07535443 -0.03356889 -0.01851779
v 0.08078075 -0.03324704 -0.01850935
v 0.04999233 -0.03389242 -0.01777859
v 0.06226865 -0.03360520 -0.01779552
v 0.06823678 -0.03339554 -0.01780578
v 0.07997470 -0.03275726 -0.01782633
v 0.11343270 0.00005015 -0.01150723
v 0.11334246 -0.00255739 -0.01150722
v 0.11307330 -0.00496311 -0.01150693
v 0.11277664 -0.00655014 -0.01150675
v 0.11237516 -0.00811409 -0.01150687
v 0.11186153 -0.00964508 -0.01150743
v 0.11122996 -0.01113146 -0.01150828
v 0.11006486 -0.01325365 -0.01151025
v 0.10915152 -0.01458549 -0.01151228
v 0.10702909 -0.01702786 -0.01151791
v 0.10601743 -0.01797882 -0.01152129
v 0.10523101 -0.01864875 -0.01152389
v 0.10261862 -0.02055148 -0.01153359
v 0.09911294 -0.02255219 -0.01154760
v 0.09811449 -0.02303670 -0.01155172
v 0.08931400 -0.02625344 -0.01158159
v 0.09239807 -0.02530254 -0.01157299
v 0.09542995 -0.02419697 -0.01156257
v 0.09699067 -0.02354592 -0.01155631
v 0.08584488 -0.03119292 -0.01657098
v 0.08827361 -0.02906191 -0.01439147
v 0.09770836 -0.02954943 -0.01675988
v 0.07133101 -0.03177432 -0.01566201
v 0.04542017 -0.03185322 -0.01271467
v 0.05691815 -0.03188080 -0.01424390
v 0.13918580 0.00004803 -0.01821456
v 0.13916147 -0.00125077 -0.01821239
v 0.13895941 0.00004838 -0.01813262
v 0.13874289 0.00004873 -0.01805423
v 0.13854682 -0.00345439 -0.01805312
v 0.13689508 -0.01110812 -0.01820246
v 0.13852073 -0.00634603 -0.01820801
v 0.12828124 -0.02082446 -0.01818248
v 0.13233630 -0.01751065 -0.01819198
v 0.13541472 -0.01375488 -0.01819862
v 0.12497817 -0.02281990 -0.01817685
v 0.11861375 -0.02567257 -0.01816793
v 0.11078597 -0.02814473 -0.01816521
v 0.10810578 -0.02844804 -0.01787599
v 0.11279701 -0.02718361 -0.01789340
v 0.12869141 -0.01999936 -0.01799191
v 0.12571450 -0.02191664 -0.01797099
v 0.12550595 -0.02203596 -0.01796955
v 0.12198880 -0.02382666 -0.01794631
v 0.11757866 -0.02562416 -0.01791902
v 0.13350403 -0.01557113 -0.01802543
v 0.13153899 -0.01765517 -0.01801223
v 0.13363320 -0.01541501 -0.01802625
v 0.13553976 -0.01269599 -0.01803779
v 0.13643685 -0.01101262 -0.01804290
v 0.13696410 -0.00981713 -0.01804584
v 0.13790178 -0.00697651 -0.01805079
v 0.13804016 -0.00641432 -0.01805142
v 0.04162667 0.03604836 -0.02820633
v 0.04247583 0.03637119 -0.02820131
v 0.02639981 0.03166484 -0.02821074
v 0.02980191 0.03244167 -0.02820934
v 0.03620157 0.03414380 -0.02820942
v 0.03709991 0.03442179 -0.02820946
v 0.03853251 0.03489402 -0.02820909
v 0.04060830 0.03565126 -0.02820767
v 0.01331311 0.02963564 -0.02408718
v 0.01904524 0.03032104 -0.02388389
v 0.02494391 0.03134221 -0.02488847
v 0.02396990 0.03113367 -0.02192687
v 0.02312728 0.03096411 -0.02006361
v 0.01763656 0.03010174 -0.01956511
v 0.02237436 0.03081993 -0.01866825
v 0.01994754 0.03039529 -0.01498772
v 0.01110604 0.02933079 -0.01564876
v 0.01237525 0.02951071 -0.01978144
v 0.02392797 0.03089320 -0.01174105
v 0.02725867 0.03129977 -0.01172779
v 0.03051397 0.03162100 -0.01171260
v 0.03002958 0.03157973 -0.01171455
v 0.04612505 0.03685118 -0.02709276
v 0.05046755 0.03687209 -0.02709284
v 0.04335936 0.03663496 -0.02818990
v 0.03401496 0.03349942 -0.02697212
v 0.03120814 0.03226622 -0.01534250
v 0.03299006 0.03257963 -0.01533394
v 0.02761150 0.03164752 -0.01542108
v 0.03475973 0.03340637 -0.01945408
v 0.03329083 0.03324963 -0.02435712
v 0.03088668 0.03250187 -0.01959345
v 0.03828620 0.03478888 -0.02683735
v 0.04037544 0.03553318 -0.02682266
v 0.04133380 0.03575993 -0.02452283
v 0.04169440 0.03594798 -0.02542124
v 0.04140327 0.03592455 -0.02690613
v 0.03884526 0.03455778 -0.02022383
v 0.04049248 0.03533587 -0.02280884
v 0.04048312 0.03546145 -0.02424092
v 0.03788293 0.03413294 -0.01896602
v 0.03760557 0.03415256 -0.01948111
v 0.03661909 0.03360740 -0.01748257
v 0.03666425 0.03389941 -0.01943805
v 0.03367899 0.03253055 -0.01449570
v 0.03948081 0.03510974 -0.02417373
v 0.03744581 0.03443635 -0.02419503
v 0.13894719 0.00107431 -0.01812026
v 0.13830478 0.00638110 -0.01811797
v 0.13854581 0.00358756 -0.01805373
v 0.13807157 0.00634772 -0.01804997
v 0.13210343 0.01752283 -0.01809538
v 0.13343711 0.01572469 -0.01801997
v 0.13518280 0.01379522 -0.01810685
v 0.13549750 0.01283165 -0.01803271
v 0.13668373 0.01112550 -0.01811220
v 0.13691427 0.00999974 -0.01804188
v 0.13793118 0.00692761 -0.01804894
v 0.12805225 0.02081119 -0.01807795
v 0.13094628 0.01828419 -0.01800462
v 0.13186212 0.01742679 -0.01801029
v 0.12477350 0.02278222 -0.01806531
v 0.12550420 0.02213676 -0.01796934
v 0.12796779 0.02060363 -0.01798572
v 0.10888981 0.02835573 -0.01788134
v 0.11048680 0.02793999 -0.01788831
v 0.11063466 0.02808467 -0.01802430
v 0.11505578 0.02659631 -0.01790964
v 0.11843129 0.02561903 -0.01804261
v 0.12024624 0.02469011 -0.01793687
v 0.12477972 0.02253872 -0.01796445
v 0.09955076 0.03038425 -0.01784688
v 0.10054040 0.03019671 -0.01784840
v 0.09963018 0.03051696 -0.01799189
v 0.09964050 0.03052993 -0.01800583
v 0.11078980 0.02823355 -0.01815997
v 0.09976402 0.03066710 -0.01815199
v 0.09992886 0.03086257 -0.01834825
v 0.09989988 0.03082192 -0.01830921
v 0.12826627 0.02092172 -0.01817835
v 0.12497924 0.02290722 -0.01817254
v 0.11861568 0.02576074 -0.01816319
v 0.13232322 0.01760891 -0.01818808
v 0.13690199 0.01117096 -0.01819875
v 0.13540281 0.01385487 -0.01819482
v 0.13852030 0.00640728 -0.01820426
v 0.13916235 0.00107794 -0.01820897
v 0.09147245 0.03231285 -0.01847760
v 0.08354714 0.03313770 -0.01850406
v 0.08353602 0.03300688 -0.01834487
v 0.09282418 0.03213469 -0.01847604
v 0.08352297 0.03285347 -0.01815997
v 0.09043509 0.03183429 -0.01782805
v 0.08349944 0.03257653 -0.01782801
v 0.08350997 0.03270023 -0.01797613
v 0.07083972 0.03386589 -0.01852106
v 0.07144827 0.03335694 -0.01781045
v 0.04999318 0.03399302 -0.01777858
v 0.05365217 0.03392262 -0.01778112
v 0.05063550 0.03432036 -0.01854863
v 0.06232766 0.03370456 -0.01779486
v 0.06893723 0.03346778 -0.01780625
v 0.07377046 0.03485952 -0.02024531
v 0.05186214 0.03498137 -0.02021852
v 0.09602457 0.03372045 -0.02031261
v 0.08647824 0.03441482 -0.02028014
v 0.08496194 0.03449142 -0.02027526
v 0.05210951 0.03512254 -0.02060888
v 0.06371377 0.03514704 -0.02061158
v 0.08498897 0.03473505 -0.02062553
v 0.04942423 0.03609709 -0.02391367
v 0.04361343 0.03516820 -0.02100541
v 0.04876454 0.03567724 -0.02242338
v 0.04487668 0.03590893 -0.02337865
v 0.04595116 0.03670733 -0.02644625
v 0.03097043 0.03165801 -0.01171000
v 0.03509729 0.03186370 -0.01168867
v 0.04127535 0.03403675 -0.01790938
v 0.03996000 0.03437907 -0.01905020
v 0.03970169 0.03337315 -0.01613682
v 0.03878936 0.03302139 -0.01517538
v 0.03811233 0.03277761 -0.01449088
v 0.04274896 0.03581484 -0.02339135
v 0.04373942 0.03641622 -0.02580005
v 0.04218646 0.03445226 -0.01902011
v 0.08892636 0.02646362 -0.01158328
v 0.09299084 0.02520226 -0.01157121
v 0.09600699 0.02406440 -0.01156029
v 0.09821919 0.02308835 -0.01155130
v 0.09966338 0.02237174 -0.01154532
v 0.10245743 0.02075655 -0.01153423
v 0.10379184 0.01985137 -0.01152904
v 0.10492238 0.01899843 -0.01152492
v 0.10800269 0.01609743 -0.01151504
v 0.10601690 0.01808017 -0.01152130
v 0.10569563 0.01836046 -0.01152236
v 0.11178876 0.00993548 -0.01150753
v 0.11114300 0.01141379 -0.01150840
v 0.10995828 0.01352210 -0.01151048
v 0.10924841 0.01455532 -0.01151208
v 0.11343072 0.00045313 -0.01150725
v 0.11337986 0.00206462 -0.01150726
v 0.11325320 0.00367204 -0.01150710
v 0.11289862 0.00606405 -0.01150682
v 0.11231641 0.00841116 -0.01150690
v 0.12735887 0.00005227 -0.01529139
v 0.10412362 -0.02464823 -0.01419294
v 0.07805177 0.02842240 -0.01161635
v 0.07713201 0.02853651 -0.01161759
v 0.07571537 0.02870642 -0.01161928
v 0.06499610 0.02986591 -0.01162952
v 0.05989904 0.03034559 -0.01163569
v 0.05287815 0.03094200 -0.01164361
v 0.04439514 0.03156382 -0.01165642
v 0.08849964 0.02658015 -0.01158533
v 0.08528204 0.02731698 -0.01160062
v 0.08322217 0.02768560 -0.01160602
v 0.10412645 0.02474977 -0.01419416
v 0.09763250 0.02961797 -0.01671562
v 0.04394369 0.03159283 -0.01165810
v 0.08584511 0.03129363 -0.01657055
v 0.08827373 0.02916262 -0.01439107
v 0.05691826 0.03198214 -0.01424307
v 0.04840581 0.03322848 -0.01596044
v 0.07133115 0.03187532 -0.01566137
v 0.03051333 -0.03151896 -0.01171239
v 0.02726468 -0.03119873 -0.01172792
v 0.01785886 -0.02996722 -0.01175093
v 0.01324497 -0.02952723 -0.02411575
v 0.02473943 -0.03119535 -0.02413338
v 0.02498889 -0.03125035 -0.02503544
v 0.02024245 -0.03034203 -0.01539941
v 0.01107200 -0.02922701 -0.01572266
v 0.01232202 -0.02940441 -0.01983415
v 0.02249192 -0.03074024 -0.01887731
v 0.02391643 -0.03102089 -0.02179898
v 0.03422628 -0.03347205 -0.02820932
v 0.04247462 -0.03626957 -0.02819975
v 0.04165695 -0.03595906 -0.02820622
v 0.03837756 -0.03473987 -0.02820914
v 0.03576038 -0.03391051 -0.02820944
v 0.03783240 -0.03257966 -0.01421467
v 0.03969873 -0.03327110 -0.01613444
v 0.04121323 -0.03391192 -0.01784914
v 0.04217157 -0.03435283 -0.01902553
v 0.04361254 -0.03506677 -0.02100541
v 0.04771247 -0.03512460 -0.02100036
v 0.04807432 -0.03512824 -0.02099981
v 0.03096977 -0.03155632 -0.01171013
v 0.03941169 -0.03471830 -0.02104677
v 0.03788182 -0.03403125 -0.01896567
v 0.03634131 -0.03366912 -0.01900830
v 0.03713201 -0.03420585 -0.02344278
v 0.03301376 -0.03305529 -0.02360659
v 0.04114316 -0.03568845 -0.02596259
v 0.04012261 -0.03530931 -0.02588276
v 0.03804865 -0.03458612 -0.02590007
v 0.02744178 -0.03150588 -0.01522916
v 0.03059979 -0.03231806 -0.01915717
v 0.03444799 -0.03319405 -0.01902312
v 0.03705853 -0.03368426 -0.01797947
v 0.03396795 -0.03252330 -0.01475935
v 0.03280585 -0.03241823 -0.01514575
v 0.03102820 -0.03211253 -0.01515393
v 0.03914974 -0.03485543 -0.02342150
v 0.04014386 -0.03519384 -0.02348640
v 0.04099346 -0.03548805 -0.02380886
v 0.04199300 -0.03600739 -0.02631931
v 0.04545178 -0.03690739 -0.02816885
v 0.06314230 -0.03692780 -0.02761104
v 0.08381131 -0.03673686 -0.02761714
v 0.09167039 -0.03634642 -0.02762545
v 0.04612412 -0.03674983 -0.02709275
v 0.04384937 -0.03519287 -0.02137966
v 0.04485692 -0.03580839 -0.02338096
v 0.04504395 -0.03593694 -0.02383644
v 0.04508476 -0.03596545 -0.02393908
v 0.04271601 -0.03571019 -0.02339091
v 0.03992565 -0.03427541 -0.01904975
v 0.04370755 -0.03631060 -0.02579960
v -0.05873843 0.00005232 -0.01376383
v -0.05856480 0.00308013 -0.01374925
v -0.05660279 0.01048427 -0.01375336
v -0.05741427 0.00833035 -0.01375907
v -0.05793045 0.00654694 -0.01375075
v -0.05825002 0.00511457 -0.01374637
v -0.05611147 0.01156349 -0.01374688
v -0.05568940 0.01239807 -0.01374091
v -0.05438922 0.01458354 -0.01372193
v -0.05383657 0.01537928 -0.01371388
v -0.05317374 0.01625244 -0.01370457
v -0.05198436 0.01763784 -0.01368869
v -0.05093316 0.01870074 -0.01367666
v -0.05001678 0.01952456 -0.01366783
v -0.04832579 0.02084854 -0.01365274
v -0.04758438 0.02136479 -0.01364581
v -0.04535351 0.02272843 -0.01361916
v -0.04442715 0.02321741 -0.01360562
v -0.04194142 0.02431136 -0.01357479
v -0.04109358 0.02461931 -0.01356615
v -0.03991244 0.02500322 -0.01355273
v -0.03614448 0.02590240 -0.01350369
v -0.02400531 0.02666762 -0.01329856
v -0.03003261 0.02654965 -0.01340341
v -0.03217535 0.02640930 -0.01344297
v -0.03342441 0.02628827 -0.01346445
v -0.00549300 0.02701895 -0.01308188
v -0.01652102 0.02670868 -0.01326661
v 0.00195976 0.02717432 -0.01300936
v 0.01702036 0.02858622 -0.01289491
v 0.00612234 0.02738012 -0.01295907
v 0.00923455 0.02763445 -0.01294381
v 0.01689362 0.02857015 -0.01289455
v -0.02521115 -0.02655863 -0.01331267
v -0.02867295 -0.02649979 -0.01337689
v -0.03173759 -0.02634050 -0.01343510
v -0.03617718 -0.02579265 -0.01350412
v 0.00358185 -0.02713464 -0.01298223
v -0.00259105 -0.02696412 -0.01305918
v -0.01160372 -0.02676338 -0.01317921
v -0.02215772 -0.02656685 -0.01328812
v 0.00491660 -0.02720260 -0.01296770
v 0.00913872 -0.02752231 -0.01294438
v 0.01689291 -0.02846742 -0.01289454
v 0.01701989 -0.02848352 -0.01289491
v -0.03994914 -0.02488787 -0.01355223
v -0.04009583 -0.02484275 -0.01355510
v -0.04273080 -0.02389297 -0.01358318
v -0.04594659 -0.02228782 -0.01362733
v -0.04773344 -0.02115977 -0.01364724
v -0.05001728 -0.01942016 -0.01366784
v -0.05048609 -0.01900951 -0.01367214
v -0.05284308 -0.01655537 -0.01369997
v -0.05399577 -0.01505288 -0.01371617
v -0.05433788 -0.01455635 -0.01372116
v -0.05575902 -0.01216155 -0.01374191
v -0.05660312 -0.01037958 -0.01375337
v -0.05714009 -0.00902042 -0.01376005
v -0.05780273 -0.00693042 -0.01375293
v -0.05825013 -0.00501006 -0.01374638
v -0.05850167 -0.00348150 -0.01374745
f 1 2 3
f 1 3 12
f 3 44 12
f 12 44 45
f 44 434 45
f 45 434 435
f 434 438 435
f 434 433 438
f 438 433 432
f 432 433 44
f 44 431 432
f 439 432 431
f 439 431 436
f 436 437 439
f 436 3 437
f 26 437 3
f 26 572 437
f 790 437 572
f 790 572 789
f 789 572 577
f 789 577 786
f 786 577 576
f 786 576 575
f 575 787 786
f 574 787 575
f 22 574 575
f 22 575 23
f 22 23 24
f 24 23 25
f 24 25 2
f 2 25 26
f 644 24 2
f 643 24 644
f 643 16 24
f 642 16 643
f 642 643 1090
f 1090 665 642
f 1090 661 665
f 1091 661 1090
f 1090 644 1091
f 1091 644 645
f 1091 645 1092
f 1092 645 646
f 645 2 646
f 1092 646 368
f 646 1 368
f 368 328 1092
f 368 329 328
f 327 328 329
f 658 328 327
f 327 659 658
f 658 659 660
f 662 660 659
f 662 659 657
f 657 815 662
f 657 656 815
f 333 656 657
f 333 330 656
f 331 330 333
f 332 331 333
f 332 333 327
f 330 331 332
f 330 332 474
f 478 330 474
f 478 474 480
f 479 478 480
f 477 478 479
f 479 515 477
f 479 514 515
f 514 865 515
f 515 865 801
f 866 801 865
f 866 865 867
f 867 865 864
f 513 864 865
f 517 864 513
f 513 484 517
f 517 484 483
f 517 483 518
f 518 483 487
f 482 487 483
f 482 486 487
f 485 486 482
f 482 511 485
f 482 512 511
f 512 340 511
f 511 340 343
f 340 342 343
f 343 342 344
f 343 344 345
f 345 344 346
f 346 344 347
f 346 347 348
f 510 346 348
f 510 348 509
f 509 348 351
f 509 351 353
f 351 352 353
f 353 352 354
f 354 352 355
f 354 355 356
f 362 356 355
f 361 356 362
f 361 360 356
f 507 356 360
f 508 356 507
f 494 508 507
f 494 507 497
f 497 507 505
f 507 358 505
f 505 358 357
f 505 357 363
f 357 359 363
f 363 359 364
f 649 364 359
f 649 359 361
f 649 361 650
f 650 390 649
f 649 390 391
f 390 80 391
f 390 393 80
f 80 393 394
f 80 394 395
f 395 396 80
f 80 396 397
f 397 396 650
f 650 381 397
f 650 382 381
f 381 382 80
f 80 382 383
f 80 383 384
f 384 383 650
f 650 385 384
f 650 386 385
f 647 386 650
f 650 362 647
f 647 387 386
f 84 386 387
f 84 387 380
f 379 84 380
f 379 380 647
f 379 647 651
f 651 647 352
f 651 352 350
f 349 651 350
f 652 651 349
f 349 347 652
f 652 374 651
f 374 378 651
f 374 51 378
f 374 375 51
f 51 375 376
f 51 376 50
f 50 376 377
f 653 377 376
f 653 373 377
f 372 373 653
f 372 50 373
f 372 48 50
f 48 49 50
f 48 47 49
f 46 47 48
f 46 45 47
f 45 429 47
f 47 429 430
f 450 430 429
f 450 428 430
f 453 428 450
f 450 452 453
f 453 452 454
f 453 454 455
f 453 455 426
f 426 427 453
f 426 49 427
f 425 49 426
f 425 71 49
f 424 71 425
f 424 82 71
f 81 71 82
f 81 82 83
f 83 418 81
f 81 418 419
f 81 419 413
f 468 413 419
f 468 414 413
f 415 414 468
f 414 415 81
f 81 415 416
f 81 416 69
f 69 416 417
f 468 417 416
f 470 417 468
f 470 412 417
f 411 412 470
f 411 69 412
f 410 69 411
f 410 70 69
f 69 70 71
f 398 70 410
f 398 399 70
f 398 648 399
f 571 648 398
f 473 571 398
f 473 398 470
f 470 472 473
f 470 471 472
f 469 471 470
f 777 471 469
f 777 469 776
f 776 469 467
f 776 467 466
f 776 466 775
f 775 762 776
f 775 763 762
f 774 763 775
f 774 764 763
f 738 763 764
f 738 764 740
f 739 738 740
f 737 738 739
f 737 736 738
f 728 736 737
f 728 735 736
f 735 763 736
f 730 735 728
f 728 729 730
f 964 729 728
f 964 728 965
f 965 728 963
f 963 934 965
f 965 934 936
f 934 935 936
f 936 935 937
f 936 937 929
f 964 936 929
f 964 929 966
f 966 929 928
f 966 928 967
f 726 966 967
f 726 967 522
f 967 853 522
f 853 854 522
f 854 523 522
f 503 522 523
f 503 523 504
f 497 503 504
f 497 504 498
f 504 524 498
f 498 524 525
f 859 525 524
f 859 524 854
f 854 857 859
f 859 857 880
f 857 829 880
f 880 829 830
f 880 830 879
f 879 830 831
f 830 586 831
f 830 588 586
f 587 586 588
f 587 588 589
f 589 588 590
f 589 590 591
f 671 591 590
f 590 828 671
f 828 590 829
f 1026 828 829
f 828 1026 1021
f 1021 1026 856
f 856 1026 857
f 855 856 857
f 928 856 855
f 928 855 853
f 930 856 928
f 1022 856 930
f 1022 930 1023
f 1023 930 931
f 1023 931 938
f 938 1024 1023
f 937 1024 938
f 937 1025 1024
f 677 1024 1025
f 674 1024 677
f 674 677 672
f 672 673 674
f 128 673 672
f 128 672 129
f 129 672 679
f 672 678 679
f 679 678 680
f 680 678 681
f 678 1018 681
f 681 1018 1019
f 941 1019 1018
f 940 1019 941
f 940 1020 1019
f 685 1019 1020
f 685 1020 1014
f 944 1014 1020
f 943 1014 944
f 939 943 944
f 939 944 940
f 939 940 932
f 960 939 932
f 960 932 963
f 963 741 960
f 960 741 743
f 960 743 745
f 743 744 745
f 744 746 745
f 745 746 747
f 745 747 748
f 961 745 748
f 961 748 962
f 962 942 961
f 961 942 939
f 962 949 942
f 949 950 942
f 942 950 951
f 942 951 943
f 951 1015 943
f 951 1016 1015
f 704 1015 1016
f 704 1016 1013
f 950 1013 1016
f 1012 1013 950
f 1012 950 1011
f 1011 702 1012
f 1011 700 702
f 1010 700 1011
f 1009 700 1010
f 1009 698 700
f 1008 698 1009
f 1038 1008 1009
f 1007 1008 1038
f 1038 1006 1007
f 1038 1039 1006
f 953 1039 1038
f 945 953 1038
f 1038 946 945
f 1038 948 946
f 1011 948 1038
f 947 946 948
f 947 948 949
f 956 947 949
f 955 947 956
f 956 957 955
f 956 959 957
f 956 958 959
f 971 959 958
f 968 959 971
f 971 985 968
f 968 985 986
f 968 986 969
f 968 969 970
f 970 969 976
f 976 972 970
f 976 975 972
f 975 954 972
f 975 973 954
f 974 973 975
f 977 974 975
f 1045 974 977
f 1045 977 982
f 982 1031 1045
f 1045 1031 1030
f 711 1030 1031
f 711 1031 709
f 709 710 711
f 711 710 689
f 711 689 712
f 712 689 688
f 688 689 690
f 690 689 691
f 110 691 689
f 110 689 104
f 112 691 110
f 112 693 691
f 695 693 112
f 112 697 695
f 696 695 697
f 696 697 698
f 698 697 699
f 694 695 696
f 694 696 1006
f 694 1006 692
f 692 1006 1035
f 692 1035 690
f 690 1035 1036
f 1036 1035 1042
f 1042 1037 1036
f 1037 1042 1028
f 1028 1042 1041
f 1028 1041 1029
f 1028 1029 712
f 712 1029 1030
f 1029 1041 974
f 973 1041 1042
f 1042 1006 973
f 688 1037 1028
f 688 1036 1037
f 1042 1035 1006
f 692 693 694
f 112 699 697
f 114 699 112
f 114 701 699
f 114 703 701
f 116 703 114
f 116 705 703
f 704 703 705
f 704 705 683
f 683 705 706
f 124 706 705
f 684 706 124
f 124 686 684
f 685 684 686
f 685 686 681
f 681 686 687
f 681 687 682
f 129 682 687
f 680 682 129
f 129 687 124
f 683 684 685
f 124 687 686
f 683 706 684
f 702 703 704
f 124 705 116
f 702 701 703
f 700 699 701
f 694 693 695
f 692 691 693
f 690 691 692
f 690 1036 688
f 712 688 1028
f 104 689 710
f 104 710 708
f 708 719 104
f 707 719 708
f 707 718 719
f 717 718 707
f 707 1033 717
f 717 1033 1034
f 717 1034 715
f 715 1034 1040
f 715 1040 720
f 715 720 713
f 713 714 715
f 715 714 716
f 102 716 714
f 102 718 716
f 104 718 102
f 713 102 714
f 713 100 102
f 667 100 713
f 100 667 666
f 100 666 98
f 98 666 723
f 98 723 1130
f 1130 723 555
f 555 1133 1130
f 555 1132 1133
f 553 1132 555
f 553 1131 1132
f 1132 1131 94
f 94 1131 1129
f 551 1129 1131
f 550 1129 551
f 238 550 551
f 238 551 552
f 552 551 553
f 552 553 554
f 897 552 554
f 896 897 554
f 896 554 556
f 556 557 896
f 556 555 557
f 557 555 567
f 567 555 568
f 567 568 569
f 896 567 569
f 569 899 896
f 569 570 899
f 899 570 668
f 723 668 570
f 723 570 568
f 899 668 900
f 668 902 900
f 902 907 900
f 900 907 909
f 910 909 907
f 912 909 910
f 912 893 909
f 892 893 912
f 912 891 892
f 891 890 892
f 891 561 890
f 562 561 891
f 20 561 562
f 20 562 883
f 20 883 21
f 9 20 21
f 9 21 7
f 21 884 7
f 7 884 885
f 7 885 8
f 885 886 8
f 8 886 887
f 8 887 27
f 24 8 27
f 27 887 888
f 887 914 888
f 887 913 914
f 926 914 913
f 917 914 926
f 920 917 926
f 920 915 917
f 915 916 917
f 917 916 882
f 916 905 882
f 916 1004 905
f 1003 1004 916
f 1003 994 1004
f 1004 994 995
f 994 991 995
f 995 991 903
f 991 904 903
f 903 904 574
f 574 573 903
f 905 903 573
f 573 22 905
f 905 22 27
f 788 904 991
f 788 991 778
f 778 991 993
f 778 993 779
f 778 779 780
f 988 780 779
f 989 780 988
f 989 784 780
f 990 784 989
f 990 781 784
f 782 781 990
f 781 782 783
f 782 443 783
f 783 443 444
f 783 444 789
f 789 444 440
f 444 438 440
f 438 439 440
f 790 440 439
f 443 438 444
f 443 442 438
f 442 445 438
f 438 445 446
f 438 446 447
f 447 448 438
f 771 448 447
f 771 447 772
f 772 770 771
f 771 770 767
f 771 767 759
f 759 767 766
f 749 766 767
f 749 767 751
f 767 752 751
f 767 753 752
f 752 753 750
f 750 753 754
f 750 754 755
f 956 750 755
f 956 755 758
f 962 750 956
f 754 758 755
f 754 757 758
f 756 757 754
f 757 756 971
f 769 756 754
f 768 756 769
f 985 756 768
f 990 985 768
f 768 769 772
f 772 446 768
f 782 768 446
f 782 446 442
f 442 441 782
f 769 754 770
f 758 757 958
f 770 754 753
f 750 751 752
f 750 749 751
f 748 749 750
f 747 766 749
f 759 766 760
f 452 759 760
f 760 766 765
f 746 765 766
f 760 765 773
f 773 456 760
f 760 456 454
f 773 458 456
f 773 459 458
f 458 459 457
f 457 459 460
f 774 460 459
f 774 462 460
f 461 460 462
f 461 462 463
f 463 462 464
f 775 464 462
f 463 464 465
f 465 418 463
f 463 418 423
f 463 423 422
f 83 422 423
f 464 466 465
f 463 422 461
f 461 422 421
f 82 421 422
f 420 421 82
f 461 421 420
f 461 420 457
f 457 420 424
f 457 460 461
f 774 459 773
f 457 456 458
f 455 456 457
f 773 765 764
f 742 764 765
f 742 765 744
f 759 449 771
f 759 451 449
f 449 451 450
f 438 449 450
f 770 753 767
f 772 769 770
f 771 449 448
f 438 448 449
f 772 447 446
f 442 446 445
f 441 442 443
f 782 441 443
f 990 768 782
f 781 783 784
f 784 783 785
f 786 785 783
f 788 785 786
f 788 780 785
f 989 983 990
f 990 983 987
f 969 987 983
f 990 987 986
f 989 984 983
f 976 983 984
f 976 984 980
f 980 984 992
f 992 984 988
f 992 978 980
f 978 979 980
f 978 1044 979
f 979 1044 1033
f 979 1033 1043
f 979 1043 981
f 1043 1032 981
f 981 1032 1031
f 1043 1033 1032
f 980 979 981
f 978 992 1044
f 1044 992 1005
f 1005 992 1003
f 999 1005 1003
f 999 1003 919
f 919 1003 915
f 919 918 999
f 999 918 921
f 921 918 922
f 922 918 920
f 922 920 924
f 923 922 924
f 923 924 925
f 1001 923 925
f 1001 925 1002
f 1040 1001 1002
f 1044 1001 1040
f 1044 1000 1001
f 998 1000 1044
f 998 999 1000
f 1000 999 923
f 1040 1002 997
f 1002 925 997
f 925 996 997
f 722 997 996
f 722 996 901
f 722 901 668
f 667 722 668
f 667 721 722
f 721 997 722
f 721 720 997
f 901 996 925
f 925 908 901
f 907 901 908
f 924 907 908
f 1000 923 1001
f 924 908 925
f 921 922 923
f 999 921 923
f 918 919 920
f 998 1005 999
f 1044 1005 998
f 980 981 976
f 976 981 982
f 784 785 780
f 988 984 989
f 992 988 779
f 779 993 992
f 992 993 994
f 778 780 788
f 787 904 788
f 905 995 903
f 994 993 991
f 1003 992 994
f 1004 995 905
f 905 27 882
f 881 882 27
f 917 882 881
f 881 888 917
f 916 915 1003
f 919 915 920
f 924 920 926
f 924 926 910
f 910 926 927
f 910 927 911
f 911 927 906
f 911 906 891
f 891 906 884
f 891 884 883
f 927 913 906
f 886 906 913
f 926 913 927
f 917 888 914
f 27 888 881
f 886 913 887
f 885 906 886
f 906 885 884
f 7 8 9
f 9 8 11
f 8 18 11
f 8 17 18
f 16 17 8
f 1089 17 16
f 1058 17 1089
f 1088 1058 1089
f 1088 1059 1058
f 1088 1075 1059
f 1075 1076 1059
f 1059 1076 1077
f 1085 1077 1076
f 1073 1077 1085
f 1072 1073 1085
f 1080 1073 1072
f 1080 1074 1073
f 1079 1074 1080
f 1078 1079 1080
f 1084 1078 1080
f 1084 1080 1083
f 1083 1046 1084
f 1084 1046 1047
f 1084 1047 1048
f 1047 641 1048
f 1048 641 535
f 535 1052 1048
f 535 533 1052
f 1052 533 531
f 531 1053 1052
f 1052 1053 1054
f 1052 1054 1055
f 1052 1055 1078
f 1055 1054 1056
f 1055 1056 1079
f 1056 1054 1049
f 1056 1049 1050
f 1050 1049 548
f 549 548 1049
f 1049 542 549
f 549 542 402
f 542 544 402
f 402 544 403
f 403 544 545
f 186 545 544
f 170 545 186
f 170 233 545
f 168 233 170
f 169 168 170
f 167 168 169
f 167 180 168
f 167 179 180
f 180 179 197
f 197 233 180
f 197 194 233
f 196 194 197
f 195 194 196
f 195 196 52
f 52 196 198
f 52 198 53
f 13 52 53
f 40 52 13
f 13 39 40
f 39 193 40
f 40 193 195
f 38 193 39
f 38 405 193
f 405 194 193
f 405 545 194
f 404 545 405
f 15 404 405
f 32 404 15
f 15 14 32
f 13 14 15
f 325 14 13
f 325 13 318
f 318 323 325
f 320 323 318
f 318 319 320
f 68 319 318
f 68 321 319
f 67 321 68
f 61 67 68
f 61 68 13
f 61 13 62
f 62 308 61
f 61 308 314
f 307 314 308
f 307 308 305
f 305 308 309
f 305 309 306
f 304 305 306
f 304 294 305
f 294 289 305
f 294 291 289
f 130 291 294
f 294 131 130
f 130 131 132
f 132 131 133
f 132 133 134
f 134 133 135
f 134 135 136
f 1106 134 136
f 1106 136 1102
f 1102 136 137
f 1102 137 139
f 139 1101 1102
f 1102 1101 107
f 1161 107 1101
f 143 1161 1101
f 143 1101 141
f 141 142 143
f 143 142 144
f 228 144 142
f 228 142 232
f 232 142 140
f 138 232 140
f 139 138 140
f 139 140 141
f 138 228 232
f 301 228 138
f 138 135 301
f 137 135 138
f 301 295 228
f 295 296 228
f 296 295 76
f 298 296 76
f 298 76 297
f 229 298 297
f 297 231 229
f 297 75 231
f 231 75 230
f 230 75 74
f 230 74 187
f 187 189 230
f 230 189 229
f 189 228 229
f 187 188 189
f 188 225 189
f 188 43 225
f 42 225 43
f 13 42 43
f 13 41 42
f 35 41 13
f 35 13 36
f 36 13 37
f 37 222 36
f 36 222 191
f 191 222 192
f 192 222 223
f 192 223 219
f 219 158 192
f 192 158 153
f 157 153 158
f 157 158 159
f 159 1155 157
f 159 1154 1155
f 1155 1154 117
f 117 1154 1153
f 117 1153 118
f 118 1153 1152
f 1152 1153 156
f 155 1152 156
f 154 155 156
f 154 162 155
f 154 208 162
f 154 219 208
f 219 220 208
f 219 224 220
f 72 220 224
f 60 220 72
f 60 72 13
f 13 59 60
f 13 58 59
f 57 58 13
f 57 214 58
f 57 215 214
f 216 215 57
f 57 206 216
f 203 216 206
f 206 207 203
f 207 217 203
f 217 207 57
f 57 218 217
f 57 201 218
f 56 201 57
f 56 202 201
f 204 202 56
f 56 55 204
f 13 55 56
f 54 55 13
f 54 200 55
f 53 200 54
f 55 200 205
f 199 205 200
f 199 204 205
f 203 204 199
f 172 203 199
f 172 199 173
f 199 175 173
f 174 173 175
f 174 175 176
f 176 175 177
f 176 177 178
f 178 1137 176
f 1137 1146 176
f 176 1146 1147
f 1147 1146 90
f 90 1148 1147
f 174 1147 1148
f 174 1148 150
f 150 1148 1149
f 150 1149 151
f 150 151 152
f 151 166 152
f 151 165 166
f 164 165 151
f 151 1150 164
f 164 1150 1151
f 91 1151 1150
f 91 1150 1149
f 91 1149 90
f 118 1151 91
f 164 1151 155
f 155 163 164
f 164 163 165
f 208 165 163
f 203 165 208
f 208 212 203
f 203 212 213
f 203 213 214
f 58 213 212
f 58 212 211
f 211 210 58
f 58 210 209
f 208 209 210
f 208 221 209
f 59 209 221
f 210 211 208
f 208 211 212
f 203 166 165
f 152 166 203
f 152 172 150
f 151 1149 1150
f 90 1149 1148
f 1137 90 1146
f 1137 88 90
f 1136 88 1137
f 1136 92 88
f 1135 92 1136
f 1135 93 92
f 1134 93 1135
f 169 1134 1135
f 171 1134 169
f 171 1141 1134
f 171 1140 1141
f 93 1141 1140
f 93 1140 95
f 95 1140 1139
f 184 1139 1140
f 1138 1139 184
f 184 182 1138
f 183 182 184
f 183 184 185
f 185 184 171
f 185 171 186
f 185 543 183
f 541 183 543
f 541 543 539
f 1054 539 543
f 539 540 541
f 539 538 540
f 536 538 539
f 1053 536 539
f 536 537 538
f 530 537 536
f 1145 537 530
f 1145 530 638
f 638 530 532
f 530 531 532
f 534 638 532
f 641 638 534
f 641 640 638
f 99 638 640
f 97 638 99
f 99 640 639
f 99 639 101
f 101 639 635
f 635 633 101
f 634 633 635
f 634 635 636
f 636 635 637
f 637 1046 636
f 636 1046 1069
f 1069 1046 1082
f 1062 1069 1082
f 1062 1082 1063
f 1063 1082 1081
f 1081 1082 1083
f 1083 1072 1081
f 1081 1072 1071
f 1070 1071 1072
f 1070 1099 1071
f 1071 1099 1064
f 1099 1065 1064
f 824 1064 1065
f 1065 1066 824
f 824 1066 1067
f 1066 1094 1067
f 1067 1094 1095
f 1067 1095 1068
f 1068 1095 663
f 663 1095 1096
f 663 1096 664
f 1096 1097 664
f 1096 1098 1097
f 1097 1098 1100
f 1088 1100 1098
f 1088 1098 1087
f 1087 1098 1070
f 1070 1086 1087
f 1087 1086 1075
f 1070 1085 1086
f 1097 1100 1093
f 1089 1093 1100
f 642 1093 1089
f 664 1097 1093
f 664 1093 665
f 662 663 664
f 662 816 663
f 816 819 663
f 816 810 819
f 810 818 819
f 810 817 818
f 809 817 810
f 809 810 811
f 811 814 809
f 811 813 814
f 812 813 811
f 476 812 811
f 476 811 815
f 815 330 476
f 475 812 476
f 475 476 477
f 477 516 475
f 516 812 475
f 516 813 812
f 806 813 516
f 801 806 516
f 803 806 801
f 803 805 806
f 805 814 806
f 823 814 805
f 804 823 805
f 827 823 804
f 847 827 804
f 804 803 847
f 847 803 848
f 848 796 847
f 848 792 796
f 793 792 848
f 617 792 793
f 617 793 618
f 618 793 794
f 618 794 619
f 608 619 794
f 607 619 608
f 607 608 609
f 609 608 610
f 608 844 610
f 610 844 845
f 1027 845 844
f 844 843 1027
f 1027 843 794
f 1027 794 849
f 794 848 849
f 849 802 1027
f 849 803 802
f 1027 802 866
f 1027 846 845
f 612 845 846
f 612 846 842
f 842 613 612
f 841 613 842
f 841 604 613
f 603 613 604
f 602 603 604
f 606 602 604
f 601 602 606
f 601 605 602
f 122 602 605
f 600 122 605
f 600 123 122
f 598 123 600
f 598 596 123
f 597 596 598
f 597 598 599
f 597 599 839
f 838 597 839
f 838 594 597
f 837 594 838
f 836 594 837
f 836 837 870
f 870 869 836
f 869 870 863
f 863 870 871
f 870 838 871
f 871 838 872
f 864 871 872
f 863 871 864
f 518 863 864
f 519 863 518
f 520 863 519
f 860 863 520
f 520 521 860
f 520 490 521
f 489 521 490
f 493 521 489
f 488 493 489
f 488 489 485
f 485 510 488
f 488 492 493
f 492 529 493
f 492 528 529
f 861 529 528
f 861 528 862
f 862 528 527
f 862 527 858
f 858 527 526
f 858 526 525
f 499 525 526
f 499 526 495
f 494 499 495
f 494 495 491
f 491 495 496
f 491 496 492
f 495 527 496
f 494 498 499
f 495 526 527
f 877 862 858
f 877 858 878
f 878 858 859
f 878 859 879
f 831 877 878
f 832 877 831
f 832 876 877
f 833 876 832
f 833 875 876
f 834 875 833
f 833 579 834
f 834 579 578
f 834 578 835
f 835 873 834
f 835 874 873
f 835 868 874
f 861 874 868
f 861 868 860
f 836 868 835
f 835 592 836
f 873 874 861
f 873 861 875
f 835 578 592
f 578 580 592
f 592 580 593
f 125 593 580
f 125 580 126
f 126 580 581
f 580 579 581
f 581 579 582
f 581 582 583
f 583 582 584
f 584 582 833
f 583 584 585
f 583 585 126
f 126 585 587
f 126 587 127
f 585 584 586
f 126 581 583
f 123 593 125
f 123 595 593
f 593 595 594
f 594 595 596
f 592 593 594
f 578 579 580
f 833 582 579
f 834 873 875
f 875 862 876
f 832 584 833
f 831 584 832
f 876 862 877
f 496 527 528
f 875 861 862
f 860 529 861
f 496 528 492
f 491 492 488
f 488 509 491
f 491 509 508
f 493 529 521
f 485 489 490
f 520 486 490
f 860 521 529
f 860 868 863
f 519 486 520
f 868 869 863
f 836 869 868
f 836 592 594
f 870 837 838
f 838 839 872
f 872 839 840
f 872 840 1027
f 1027 840 841
f 840 606 841
f 1027 867 872
f 839 601 840
f 839 599 601
f 599 600 601
f 594 596 597
f 596 595 123
f 599 598 600
f 600 605 601
f 840 601 606
f 122 603 602
f 115 603 122
f 115 611 603
f 611 612 603
f 611 610 612
f 115 609 611
f 113 609 115
f 606 604 841
f 1027 841 842
f 603 612 613
f 842 846 1027
f 610 845 612
f 608 843 844
f 609 610 611
f 113 607 609
f 614 607 113
f 614 113 615
f 614 615 616
f 616 617 614
f 625 616 615
f 615 111 625
f 111 624 625
f 111 622 624
f 622 623 624
f 624 623 616
f 623 795 616
f 616 795 796
f 795 850 796
f 850 827 796
f 850 826 827
f 826 822 827
f 826 821 822
f 825 821 826
f 825 820 821
f 820 817 821
f 1068 817 820
f 1068 820 824
f 824 820 825
f 852 824 825
f 852 825 800
f 800 799 852
f 852 799 798
f 621 798 799
f 621 799 623
f 628 798 621
f 621 627 628
f 621 626 627
f 103 627 626
f 103 629 627
f 103 632 629
f 101 632 103
f 629 632 631
f 630 629 631
f 628 629 630
f 628 630 791
f 791 797 628
f 851 797 791
f 851 798 797
f 791 1062 851
f 808 1062 791
f 807 1062 808
f 631 807 808
f 634 807 631
f 634 1069 807
f 630 808 791
f 631 808 630
f 631 632 633
f 626 620 103
f 103 620 622
f 620 621 622
f 620 626 621
f 628 627 629
f 628 797 798
f 852 798 851
f 623 799 800
f 800 825 850
f 851 824 852
f 851 1063 824
f 821 809 822
f 822 809 823
f 825 826 850
f 800 850 795
f 623 800 795
f 622 621 623
f 103 622 111
f 624 616 625
f 615 113 111
f 614 618 607
f 794 843 608
f 607 618 619
f 614 617 618
f 616 792 617
f 848 794 793
f 616 796 792
f 849 848 803
f 847 796 827
f 827 822 823
f 804 805 803
f 801 802 803
f 806 814 813
f 823 809 814
f 815 811 810
f 821 817 809
f 818 817 1068
f 818 1068 819
f 815 810 816
f 1096 1095 1098
f 819 1068 663
f 1095 1094 1098
f 1098 1094 1066
f 1098 1066 1099
f 824 1067 1068
f 824 1063 1064
f 1099 1066 1065
f 1071 1064 1063
f 1070 1098 1099
f 1063 1081 1071
f 851 1062 1063
f 807 1069 1062
f 636 1069 634
f 631 633 634
f 101 633 632
f 635 639 637
f 637 639 640
f 637 640 641
f 532 533 534
f 97 1145 638
f 1144 1145 97
f 1144 97 1143
f 1143 97 95
f 1143 95 1142
f 1142 95 1138
f 1138 181 1142
f 1142 181 540
f 1142 540 1143
f 1143 538 1144
f 1144 537 1145
f 536 531 530
f 1144 538 537
f 1143 540 538
f 541 540 181
f 541 181 183
f 185 544 543
f 181 182 183
f 1138 182 181
f 95 1139 1138
f 184 1140 171
f 1134 1141 93
f 167 1135 1136
f 167 1136 178
f 178 1136 1137
f 178 177 179
f 176 1147 174
f 150 173 174
f 199 177 175
f 197 177 199
f 198 197 199
f 150 172 173
f 152 203 172
f 198 199 200
f 55 205 204
f 203 202 204
f 201 202 203
f 203 218 201
f 203 217 218
f 57 207 206
f 203 215 216
f 214 215 203
f 214 213 58
f 13 56 57
f 58 209 59
f 59 221 60
f 13 72 73
f 60 221 220
f 72 224 73
f 73 224 223
f 73 223 37
f 208 220 221
f 161 219 154
f 161 160 219
f 156 160 161
f 159 160 156
f 208 163 162
f 155 162 163
f 156 161 154
f 155 1151 1152
f 118 1152 1151
f 156 1153 1154
f 117 1156 1155
f 117 1157 1156
f 106 1157 117
f 106 1158 1157
f 146 1157 1158
f 146 1158 147
f 147 1158 1159
f 147 1159 145
f 1159 1160 145
f 1159 106 1160
f 1160 106 105
f 1160 105 1161
f 145 1160 1161
f 148 147 145
f 148 145 149
f 149 145 144
f 144 227 149
f 189 227 144
f 227 148 149
f 227 192 148
f 190 192 227
f 227 226 190
f 225 226 227
f 41 190 226
f 146 147 148
f 146 148 153
f 157 1157 146
f 1159 1158 106
f 157 1156 1157
f 156 1154 159
f 1155 1156 157
f 159 158 160
f 146 153 157
f 192 153 148
f 219 160 158
f 219 223 224
f 190 191 192
f 35 191 190
f 37 223 222
f 13 73 37
f 36 191 35
f 35 190 41
f 41 226 42
f 43 74 13
f 42 226 225
f 189 225 227
f 187 43 188
f 187 74 43
f 13 74 75
f 13 75 76
f 76 77 13
f 13 77 78
f 13 78 63
f 78 304 63
f 78 292 304
f 293 292 78
f 292 293 294
f 293 299 294
f 294 299 300
f 294 300 301
f 301 300 302
f 77 302 300
f 77 303 302
f 301 302 303
f 301 133 294
f 299 77 300
f 293 78 299
f 299 78 77
f 76 303 77
f 230 229 231
f 297 76 75
f 229 296 298
f 76 295 303
f 228 296 229
f 303 295 301
f 189 144 228
f 143 144 145
f 141 140 142
f 145 1161 143
f 1161 105 107
f 141 1101 139
f 137 138 139
f 1102 107 1106
f 1106 107 121
f 1106 121 1105
f 121 1104 1105
f 121 1103 1104
f 120 1103 121
f 120 1107 1103
f 1103 1107 286
f 286 288 1103
f 1103 288 290
f 288 289 290
f 288 287 289
f 286 287 288
f 286 285 287
f 284 285 286
f 284 283 285
f 281 283 284
f 284 1109 281
f 281 1109 1110
f 281 1110 279
f 279 280 281
f 280 282 281
f 307 282 280
f 307 280 278
f 307 278 276
f 277 276 278
f 277 278 279
f 279 1111 277
f 277 1111 1112
f 1112 1111 119
f 119 1111 1110
f 119 1110 120
f 1113 1112 119
f 119 1114 1113
f 119 1115 1114
f 109 1115 119
f 109 1116 1115
f 1117 1116 109
f 270 1116 1117
f 270 1117 269
f 269 268 270
f 270 268 271
f 271 268 272
f 268 312 272
f 312 274 272
f 312 276 274
f 275 274 276
f 273 274 275
f 275 1114 273
f 273 272 274
f 268 316 312
f 315 312 316
f 315 316 317
f 317 65 315
f 315 65 64
f 64 65 66
f 66 65 67
f 65 322 67
f 66 313 64
f 66 314 313
f 64 313 311
f 64 311 310
f 310 311 312
f 312 311 313
f 312 313 307
f 315 64 310
f 317 322 65
f 316 322 317
f 316 321 322
f 320 321 316
f 316 264 320
f 320 264 262
f 320 262 260
f 261 260 262
f 261 262 263
f 263 1121 261
f 261 1121 1122
f 261 1122 258
f 1122 256 258
f 256 257 258
f 257 259 258
f 258 259 260
f 259 257 323
f 323 257 255
f 323 255 326
f 326 255 253
f 254 253 255
f 252 253 254
f 1126 252 254
f 1126 254 1122
f 89 1126 1122
f 87 1126 89
f 87 1125 1126
f 1124 1125 87
f 1124 251 1125
f 1125 251 252
f 251 250 252
f 249 250 251
f 249 246 250
f 246 563 250
f 241 563 246
f 246 247 241
f 241 247 248
f 1123 248 247
f 1123 247 245
f 1123 245 244
f 244 245 246
f 1123 244 1124
f 244 249 1124
f 1128 248 1123
f 1128 239 248
f 240 239 1128
f 239 240 241
f 241 240 242
f 1127 242 240
f 243 242 1127
f 1127 234 243
f 1127 235 234
f 234 235 236
f 236 235 237
f 236 237 238
f 238 565 236
f 236 565 564
f 564 565 566
f 566 409 564
f 409 566 898
f 889 409 898
f 558 409 889
f 558 30 409
f 10 30 558
f 10 29 30
f 10 28 29
f 6 28 10
f 6 548 28
f 6 547 548
f 5 547 6
f 4 5 6
f 5 4 19
f 19 546 5
f 19 1057 546
f 9 1057 19
f 9 1061 1057
f 1057 1061 1073
f 9 1060 1061
f 1060 1077 1061
f 546 1057 1051
f 1051 1057 1074
f 1051 1074 1050
f 1050 547 1051
f 1051 547 546
f 19 4 20
f 5 546 547
f 4 6 10
f 10 560 4
f 10 559 560
f 889 560 559
f 889 890 560
f 894 890 889
f 4 560 561
f 28 549 29
f 30 29 31
f 31 34 30
f 31 33 34
f 33 408 34
f 34 408 409
f 33 407 408
f 14 407 33
f 14 406 407
f 406 564 407
f 563 564 406
f 406 324 563
f 563 324 323
f 324 406 14
f 564 408 407
f 32 33 31
f 31 403 32
f 29 402 31
f 558 559 10
f 34 409 30
f 889 559 558
f 889 898 894
f 894 898 897
f 898 565 897
f 564 409 408
f 898 566 565
f 236 564 241
f 897 565 238
f 1129 237 235
f 1129 235 1127
f 236 243 234
f 236 242 243
f 241 242 236
f 1127 240 1128
f 1128 94 1127
f 1128 86 94
f 1123 86 1128
f 1123 87 86
f 241 248 239
f 246 245 247
f 241 564 563
f 563 323 250
f 244 246 249
f 1124 249 251
f 1124 87 1123
f 1125 252 1126
f 252 250 253
f 254 255 256
f 250 326 253
f 250 323 326
f 256 255 257
f 1122 254 256
f 89 1122 1121
f 89 1121 108
f 108 1121 1120
f 108 1120 1119
f 1119 1120 263
f 265 1119 263
f 263 264 265
f 265 264 266
f 265 266 267
f 267 1118 265
f 267 1117 1118
f 267 266 268
f 265 1118 1119
f 1118 108 1119
f 1118 109 108
f 263 1120 1121
f 258 260 261
f 260 259 320
f 263 262 264
f 316 266 264
f 310 312 315
f 266 316 268
f 271 272 273
f 273 1115 271
f 267 268 269
f 269 1117 267
f 271 1116 270
f 1117 109 1118
f 271 1115 1116
f 273 1114 1115
f 275 1113 1114
f 1112 1113 275
f 277 1112 275
f 275 276 277
f 307 276 312
f 279 278 280
f 279 1110 1111
f 120 1110 1109
f 120 1109 1108
f 284 1108 1109
f 281 282 283
f 305 283 282
f 285 283 305
f 286 1108 284
f 305 287 285
f 286 1107 1108
f 1108 1107 120
f 1103 290 1104
f 1104 290 132
f 290 291 132
f 1104 132 1105
f 1105 134 1106
f 136 135 137
f 301 135 133
f 1105 132 134
f 294 133 131
f 132 291 130
f 290 289 291
f 305 289 287
f 292 294 304
f 63 304 306
f 63 306 309
f 63 309 62
f 305 282 307
f 307 313 314
f 61 314 66
f 62 309 308
f 62 13 63
f 66 67 61
f 67 322 321
f 320 319 321
f 320 259 323
f 323 324 325
f 318 13 68
f 324 14 325
f 15 38 13
f 32 14 33
f 32 403 404
f 15 405 38
f 13 38 39
f 13 53 54
f 53 198 200
f 40 195 52
f 193 194 195
f 196 197 198
f 197 179 177
f 178 179 167
f 169 1135 167
f 169 170 171
f 168 180 233
f 545 233 194
f 186 171 170
f 186 544 185
f 403 545 404
f 31 402 403
f 542 543 544
f 29 549 402
f 1049 543 542
f 28 548 549
f 1050 548 547
f 1050 1074 1056
f 1054 543 1049
f 1053 539 1054
f 531 536 1053
f 532 531 533
f 534 533 535
f 1048 1052 1078
f 641 534 535
f 1047 637 641
f 1046 637 1047
f 1083 1082 1046
f 1048 1078 1084
f 1078 1055 1079
f 1079 1056 1074
f 1073 1074 1057
f 1083 1080 1072
f 1072 1085 1070
f 1073 1061 1077
f 1085 1076 1086
f 1059 1077 1060
f 11 1059 1060
f 1086 1076 1075
f 1087 1075 1088
f 18 1058 1059
f 1089 1100 1088
f 17 1058 18
f 18 1059 11
f 11 1060 9
f 19 20 9
f 21 883 884
f 4 561 20
f 883 562 891
f 890 561 560
f 894 892 890
f 912 911 891
f 893 892 894
f 893 894 895
f 895 894 896
f 896 909 895
f 895 909 893
f 910 911 912
f 910 907 924
f 907 902 901
f 668 901 902
f 900 909 899
f 896 899 909
f 569 568 570
f 896 557 567
f 554 555 556
f 894 897 896
f 897 238 552
f 237 550 238
f 550 237 1129
f 94 1129 1127
f 94 96 1132
f 1132 96 98
f 551 1131 553
f 554 553 555
f 1132 98 1133
f 568 555 723
f 1130 1133 98
f 666 668 723
f 666 667 668
f 713 721 667
f 713 720 721
f 720 1040 997
f 1040 1034 1044
f 715 716 717
f 1044 1034 1033
f 707 1032 1033
f 709 1032 707
f 717 716 718
f 707 708 709
f 104 719 718
f 709 708 710
f 709 1031 1032
f 712 1030 711
f 1045 1030 1029
f 981 1031 982
f 976 982 977
f 1029 974 1045
f 1041 973 974
f 973 952 954
f 952 953 954
f 954 953 955
f 973 1039 952
f 972 954 955
f 977 975 976
f 959 970 972
f 969 983 976
f 969 986 987
f 986 985 990
f 971 756 985
f 968 970 959
f 971 958 757
f 758 958 956
f 959 972 957
f 972 955 957
f 955 945 947
f 945 946 947
f 953 945 955
f 953 952 1039
f 973 1006 1039
f 1006 696 1007
f 1007 696 1008
f 1008 696 698
f 698 699 700
f 1038 1009 1010
f 1010 1011 1038
f 700 701 702
f 1012 702 704
f 1011 950 948
f 1012 704 1013
f 683 1015 704
f 683 1014 1015
f 950 1016 951
f 949 948 950
f 956 949 962
f 962 748 750
f 748 747 749
f 746 766 747
f 744 765 746
f 743 742 744
f 960 745 961
f 741 742 743
f 741 740 742
f 963 739 741
f 961 939 960
f 942 943 939
f 943 1015 1014
f 685 1014 683
f 944 1020 940
f 932 940 941
f 932 941 933
f 932 933 934
f 941 1018 933
f 933 1018 1017
f 933 1017 935
f 935 1017 1025
f 681 1019 685
f 678 1017 1018
f 677 1017 678
f 680 681 682
f 129 679 680
f 676 673 128
f 128 670 676
f 128 591 670
f 127 591 128
f 670 674 676
f 670 675 674
f 669 675 670
f 669 670 671
f 671 1021 669
f 669 1021 1022
f 669 1022 675
f 675 1023 674
f 676 674 673
f 672 677 678
f 677 1025 1017
f 674 1023 1024
f 929 938 931
f 930 929 931
f 675 1022 1023
f 1021 856 1022
f 671 828 1021
f 671 670 591
f 127 589 591
f 829 590 588
f 127 587 589
f 585 586 587
f 831 586 584
f 831 878 879
f 829 588 830
f 857 1026 829
f 859 880 879
f 854 855 857
f 858 525 859
f 498 525 499
f 502 503 497
f 502 501 503
f 500 501 502
f 502 506 500
f 500 506 367
f 367 761 500
f 777 761 367
f 777 367 472
f 500 761 727
f 761 724 727
f 761 725 724
f 724 725 726
f 725 734 726
f 725 733 734
f 732 733 725
f 732 731 733
f 731 964 733
f 730 731 732
f 762 730 732
f 762 732 761
f 733 966 734
f 761 732 725
f 724 726 727
f 506 365 367
f 365 366 367
f 473 367 366
f 365 364 366
f 648 366 364
f 506 363 365
f 502 505 506
f 500 727 501
f 727 522 501
f 504 523 524
f 501 522 503
f 854 524 523
f 853 855 854
f 727 726 522
f 734 966 726
f 967 928 853
f 928 929 930
f 733 964 966
f 929 937 938
f 935 1025 937
f 934 933 935
f 963 932 934
f 965 936 964
f 731 729 964
f 730 729 731
f 730 762 735
f 728 737 963
f 963 737 739
f 739 740 741
f 740 764 742
f 736 763 738
f 773 764 774
f 775 462 774
f 735 762 763
f 776 762 761
f 775 466 464
f 465 466 467
f 465 467 468
f 468 467 469
f 776 761 777
f 472 471 777
f 473 472 367
f 366 571 473
f 571 366 648
f 399 648 400
f 400 648 649
f 400 649 401
f 649 388 401
f 79 401 388
f 388 389 79
f 392 79 389
f 392 389 649
f 391 79 392
f 649 389 388
f 79 400 401
f 70 400 79
f 49 70 79
f 49 79 80
f 80 84 49
f 49 84 85
f 49 85 51
f 70 399 400
f 470 398 410
f 470 410 411
f 468 469 470
f 69 417 412
f 468 416 415
f 468 419 465
f 81 413 414
f 465 419 418
f 83 423 418
f 82 422 83
f 69 71 81
f 420 82 424
f 457 424 425
f 71 70 49
f 426 457 425
f 426 455 457
f 455 454 456
f 760 454 452
f 450 451 452
f 452 451 759
f 453 427 428
f 427 47 428
f 435 450 429
f 47 430 428
f 371 46 48
f 370 46 371
f 654 370 371
f 369 370 654
f 369 654 368
f 368 12 369
f 369 12 46
f 654 371 655
f 655 336 654
f 655 337 336
f 339 337 655
f 338 337 339
f 338 339 340
f 339 341 340
f 335 337 338
f 474 335 338
f 474 338 512
f 655 341 339
f 655 653 341
f 653 342 341
f 335 336 337
f 334 336 335
f 332 334 335
f 332 335 474
f 332 329 334
f 654 334 329
f 654 336 334
f 655 371 372
f 369 46 370
f 427 49 47
f 371 48 372
f 372 653 655
f 376 652 653
f 652 344 653
f 50 377 373
f 50 49 51
f 375 652 376
f 378 51 85
f 378 85 379
f 375 374 652
f 348 349 350
f 651 378 379
f 379 85 84
f 80 386 84
f 380 387 647
f 80 385 386
f 384 385 80
f 650 383 382
f 80 397 381
f 650 396 395
f 650 395 394
f 394 393 650
f 391 80 79
f 649 391 392
f 650 393 390
f 648 364 649
f 363 364 365
f 505 363 506
f 357 358 359
f 359 358 360
f 497 505 502
f 497 498 494
f 491 508 494
f 507 360 358
f 359 360 361
f 650 361 362
f 647 362 355
f 508 354 356
f 647 355 352
f 508 353 354
f 351 350 352
f 509 353 508
f 348 350 351
f 488 510 509
f 347 349 348
f 652 347 344
f 510 345 346
f 511 345 510
f 653 344 342
f 340 341 342
f 511 343 345
f 512 338 340
f 480 512 482
f 485 511 510
f 485 490 486
f 519 487 486
f 482 483 480
f 518 487 519
f 480 483 484
f 480 484 481
f 513 481 484
f 479 481 513
f 518 864 517
f 864 872 867
f 1027 866 867
f 802 801 866
f 515 801 516
f 513 865 514
f 513 514 479
f 477 515 516
f 477 476 478
f 479 480 481
f 480 474 512
f 476 330 478
f 657 327 333
f 815 656 330
f 662 815 816
f 664 660 662
f 664 661 660
f 658 660 661
f 657 659 327
f 327 329 332
f 368 654 329
f 1092 328 658
f 1092 658 1091
f 1091 658 661
f 665 661 664
f 642 665 1093
f 1089 16 642
f 16 8 24
f 1090 643 644
f 644 2 645
f 23 576 25
f 24 27 22
f 573 574 22
f 574 904 787
f 786 787 788
f 23 575 576
f 25 576 577
f 786 783 789
f 25 577 572
f 789 440 790
f 25 572 26
f 439 437 790
f 431 44 436
f 438 432 439
f 435 438 450
f 45 435 429
f 44 433 434
f 12 45 46
f 436 44 3
f 368 1 12
f 646 2 1
f 2 26 3

