# https://github.com/mikedh/trimesh
v 0.00170582 -0.02422450 -0.00681833
v 0.00514929 -0.02436453 -0.00681833
v -0.00419640 -0.02409066 -0.00681833
v -0.00071960 -0.02415958 -0.00681834
v 0.00049314 -0.02419033 -0.00681834
v -0.03595509 0.02313768 -0.00681834
v -0.03925895 0.02225743 -0.00681833
v -0.04040990 0.02186002 -0.00681834
v -0.04154764 0.02142623 -0.00681834
v -0.04257620 0.02099378 -0.00681833
v -0.04466338 0.01994504 -0.00681833
v 0.00514107 0.02456052 -0.00681835
v 0.00171039 0.02442116 -0.00681834
v -0.00418922 0.02428750 -0.00681833
v -0.00072542 0.02435605 -0.00681834
v 0.00049252 0.02438686 -0.00681835
v -0.00046369 0.02490534 -0.00681834
v -0.04304319 0.02263785 -0.00681833
v -0.04427494 0.02207590 -0.00681834
v -0.04174447 0.02199068 -0.00681833
v 0.00060719 0.02535456 -0.00681833
v 0.00120705 0.02513995 -0.00681833
v 0.00622765 0.02555478 -0.00681834
v 0.00137874 0.02499811 -0.00681834
v 0.00168847 0.02449635 -0.00681834
v -0.03743133 0.02441182 -0.00681834
v -0.03966849 0.02304144 -0.00681833
v -0.03378182 0.02499184 -0.00681834
v -0.03932701 0.02254008 -0.00681833
v 0.00001748 0.02526231 -0.00681833
v -0.00320259 0.02542606 -0.00681834
v 0.00202530 0.02542967 -0.00681834
v -0.04743075 0.02029236 -0.00681834
v -0.04925072 0.01648032 -0.00681833
v -0.03060890 0.02522666 -0.00681833
v -0.03027203 0.02378030 -0.00681834
v 0.01505685 0.02636236 -0.00681834
v 0.01809230 0.02594749 -0.00681834
v 0.02354375 0.02717592 -0.00681835
v 0.02951103 0.02739862 -0.00681834
v -0.05587190 0.00187497 -0.00681834
v -0.05481330 0.00732012 -0.00681833
v -0.05687708 0.00747076 -0.00681834
v -0.04999765 0.01839204 -0.00681833
v -0.05212939 0.01633685 -0.00681834
v -0.05263301 0.01216846 -0.00681833
v -0.05275041 0.01561772 -0.00681833
v -0.04165235 0.02259247 -0.00681834
v -0.04130647 0.02306317 -0.00681833
v -0.04083395 0.02348077 -0.00681834
v -0.04077404 0.02332771 -0.00681835
v -0.04020146 0.02332194 -0.00681833
v 0.01320793 0.02616325 -0.00681833
v 0.01121690 0.02507430 -0.00681835
v 0.01724843 0.02583938 -0.00681833
v -0.05787086 0.00009904 -0.00681833
v -0.05593846 0.00009902 -0.00681834
v -0.05777551 0.00201999 -0.00681834
v -0.05759294 0.00364226 -0.00681834
v -0.05454402 0.01309409 -0.00681833
v -0.05526919 0.01179158 -0.00681833
v -0.05591336 0.01039778 -0.00681834
v -0.01324579 0.02540681 -0.00681833
v -0.02017951 0.02391872 -0.00681833
v -0.01680030 0.02538600 -0.00681833
v -0.02927765 0.02527116 -0.00681834
v -0.05777554 -0.00182190 -0.00681832
v -0.05687728 -0.00727270 -0.00681834
v -0.05717982 -0.00591829 -0.00681833
v -0.05526952 -0.01159351 -0.00681833
v -0.05594260 -0.01012972 -0.00681833
v -0.05459791 -0.01280717 -0.00681834
v -0.05275080 -0.01541976 -0.00681834
v -0.05063435 -0.01763658 -0.00681833
v -0.04216189 -0.02280114 -0.00681834
v -0.04304378 -0.02244016 -0.00681833
v -0.04537233 -0.02131715 -0.00681834
v -0.04810777 -0.01963995 -0.00681834
v -0.03877012 -0.02389701 -0.00681834
v -0.03702770 -0.02429854 -0.00681833
v -0.03516580 -0.02462047 -0.00681834
v -0.03139004 -0.02498978 -0.00681833
v -0.00320322 -0.02522935 -0.00681834
v -0.01680019 -0.02519130 -0.00681834
v -0.02456987 -0.02511073 -0.00681833
v -0.03060916 -0.02502946 -0.00681834
v 0.01320726 -0.02596695 -0.00681833
v 0.00764592 -0.02544762 -0.00681835
v 0.00202465 -0.02523310 -0.00681834
v 0.02266233 -0.02691530 -0.00681834
v 0.02951035 -0.02720273 -0.00681835
v 0.02863934 -0.02719843 -0.00681834
v -0.04467712 -0.01973947 -0.00681833
v -0.04926018 -0.01627359 -0.00681833
v -0.05263882 -0.01196131 -0.00681833
v -0.05481696 -0.00711124 -0.00681835
v -0.05587282 -0.00166527 -0.00681833
v 0.01724777 -0.02564319 -0.00681832
v 0.01811961 -0.02575494 -0.00681833
v 0.01122068 -0.02487845 -0.00681834
v -0.04155607 -0.02122490 -0.00681833
v -0.03594994 -0.02294121 -0.00681833
v -0.03926015 -0.02205931 -0.00681834
v -0.04042961 -0.02165501 -0.00681834
v -0.03948731 -0.02262619 -0.00681833
v 0.00140575 -0.02475353 -0.00681834
v -0.00034741 -0.02480866 -0.00681834
v -0.00066824 -0.02433238 -0.00681834
v -0.03027305 -0.02358290 -0.00681834
v 0.00090187 -0.02507488 -0.00681833
v 0.00030824 -0.02512585 -0.00681834
v -0.00027686 -0.02486919 -0.00681833
v -0.04051528 -0.02314177 -0.00681834
v -0.04110603 -0.02298452 -0.00681834
v -0.02018041 -0.02372160 -0.00681833
v -0.04153664 -0.02258868 -0.00681833
v -0.04173989 -0.02204161 -0.00681834
v -0.04166774 -0.02144886 -0.00681834
v -0.03994955 -0.02301471 -0.00681833
f 14 15 17
f 17 31 14
f 14 31 63
f 14 63 64
f 64 63 65
f 64 65 36
f 36 65 66
f 36 66 35
f 35 6 36
f 28 6 35
f 28 7 6
f 29 7 28
f 8 7 29
f 29 27 8
f 8 27 52
f 26 52 27
f 26 51 52
f 50 51 26
f 50 49 51
f 49 8 51
f 48 8 49
f 48 9 8
f 20 9 48
f 9 20 10
f 10 20 19
f 18 19 20
f 10 19 11
f 11 19 33
f 11 33 34
f 33 44 34
f 34 44 45
f 34 45 46
f 46 45 47
f 47 60 46
f 46 60 61
f 46 61 42
f 42 61 62
f 42 62 43
f 41 42 43
f 59 41 43
f 58 41 59
f 58 57 41
f 56 57 58
f 57 56 97
f 97 56 67
f 97 67 96
f 96 67 69
f 96 69 68
f 71 96 68
f 71 95 96
f 70 95 71
f 72 95 70
f 73 95 72
f 73 94 95
f 74 94 73
f 74 93 94
f 78 93 74
f 78 101 93
f 118 101 78
f 77 118 78
f 77 117 118
f 118 117 104
f 104 117 116
f 76 116 117
f 75 116 76
f 75 114 116
f 79 114 75
f 79 113 114
f 113 104 114
f 119 104 113
f 119 103 104
f 105 103 119
f 102 103 105
f 80 102 105
f 81 102 80
f 81 109 102
f 82 109 81
f 82 86 109
f 109 86 115
f 85 115 86
f 84 115 85
f 84 3 115
f 83 3 84
f 83 4 3
f 108 4 83
f 107 108 83
f 83 112 107
f 83 111 112
f 89 111 83
f 89 110 111
f 5 111 110
f 110 1 5
f 106 1 110
f 2 1 106
f 106 89 2
f 2 89 88
f 2 88 100
f 100 88 87
f 100 87 98
f 98 87 99
f 99 87 90
f 99 90 92
f 92 91 99
f 106 110 89
f 5 112 111
f 107 112 5
f 107 5 108
f 108 5 4
f 80 105 79
f 79 105 119
f 79 119 113
f 104 116 114
f 76 117 77
f 104 101 118
f 20 48 18
f 18 48 49
f 18 49 50
f 26 27 28
f 8 52 51
f 28 27 29
f 17 30 31
f 31 30 21
f 31 21 32
f 32 21 23
f 21 22 23
f 23 22 24
f 23 24 25
f 25 13 23
f 23 13 12
f 23 12 53
f 53 12 54
f 53 54 37
f 37 54 55
f 37 55 38
f 37 38 39
f 39 38 40
f 13 25 16
f 16 25 24
f 21 16 24
f 21 24 22
f 30 16 21
f 30 15 16
f 17 15 30

