#
# File generated by Libuipc
# Vertices 338
# Edges 338
# Faces 0
#
v 0.006467544240959522 0.04978171649231927 -0.000494292210685372
v 0.00654071442343379 0.047781398908559404 -0.0004942924186455392
v 0.006613886729882479 0.04578102131019677 -0.0004942926266118536
v 0.006687058999948119 0.04378064470689337 -0.0004942928345779735
v 0.006760229147632299 0.04178032612547096 -0.0004942930425379685
v 0.006833401454338433 0.039779948521300484 -0.0004942932505040091
v 0.00690657372444684 0.037779571917998654 -0.0004942934584698534
v 0.006979743872170855 0.0357792533365777 -0.0004942936664295748
v 0.007052916142302896 0.03377887673327673 -0.0004942938743952363
v 0.0071260884488437825 0.03177849913491747 -0.00049429408236091
v 0.007199260755585317 0.029778121531330033 -0.0004942942903264938
v 0.007272433062144007 0.02777774393297153 -0.0004942944982919847
v 0.007345603173516448 0.0257774263466107 -0.0004942947062511462
v 0.007418775480089041 0.023777048748252594 -0.0004942949142164566
v 0.007491947772063651 0.021776671143668103 -0.000494295120622042
v 0.007565117887951663 0.019776353563886497 -0.0004942953248016108
v 0.007638290199468241 0.017775975960488667 -0.0004942955289871031
v 0.0077114625109722884 0.015775598357672237 -0.0004942957331723912
v 0.007784634822292863 0.013775220760084497 -0.0004942959373574783
v 0.00785780493842639 0.011774903174494599 -0.0004942961415362345
v 0.00793097724975958 0.009774525576907318 -0.0004942963457209139
v 0.008004147365903784 0.0077742079913177 -0.0004942965498992659
v 0.008077319677245686 0.005773830393730848 -0.000494296754083543
v 0.008150491988610524 0.0037734527909092166 -0.0004942969586156175
v 0.008223647590633196 0.0017730755840939388 -0.0004943310484253623
v 0.00802309585270748 -0.00021849430831417368 -0.0004789492354236968
v 0.007537794582572299 -0.0021602220472793443 -0.00045150377787260093
v 0.00676183100582923 -0.004005094168403622 -0.0004173537158445568
v 0.005522272120585927 -0.00557688360317321 -0.00040756710038293104
v 0.003942455612580587 -0.006806144876702551 -0.0004046687108720798
v 0.0021017354427041593 -0.007592680687380458 -0.00040475943008153736
v 0.00011666041332897665 -0.007849909651570158 -0.0004092678533381705
v -0.0018810763512462 -0.007725577927440164 -0.0004265479102379693
v -0.0038668960526617308 -0.007480561342114981 -0.0004810385800833524
v -0.0057890559512921505 -0.006923350784963167 -0.000519030737763495
v -0.0073986562541437945 -0.005733751470858317 -0.0005143782593633062
v -0.008745374580356298 -0.004268998928186307 -0.000731509104078209
v -0.009245890690954429 -0.002358526996904263 -0.0010560786750571569
v -0.008986103886093789 -0.00038603847570234156 -0.0008361052096822413
v -0.008443016505484924 0.001540029523526067 -0.0007937284664070285
v -0.007445380332613761 0.0032746644909199237 -0.0008380714637028682
v -0.006266073825249358 0.004891828715711397 -0.0008601609737727121
v -0.004834202806316486 0.006290366989346762 -0.0008756272280674348
v -0.0031115282810404814 0.007309309475761292 -0.0008944045110791793
v -0.0011950348065688362 0.007886677705399298 -0.0009057052813643665
v 0.0008062611332398839 0.00791700970856485 -0.0009269381069516719
v 0.0027515917239917752 0.007445471924838823 -0.0009346756265211542
v 0.00453698848557483 0.006540474599432138 -0.0009337254366726837
v 0.00603901709711159 0.005217343831277063 -0.000943851720591604
v 0.007180860672348488 0.0035775820973519236 -0.0010622330792357376
v 0.007901357914202775 0.001729159320329766 -0.0013277011125321179
v 0.008092329019888204 -0.0002629243193164181 -0.0013655779452889732
v 0.007752799579809145 -0.0022349512835506914 -0.001319252010362318
v 0.006974351296199637 -0.004078646344160436 -0.0012872965886212987
v 0.005761869893750908 -0.0056711240867777695 -0.001273313673752971
v 0.004173002391050527 -0.006888516490432288 -0.0012808202800111803
v 0.002349874304290417 -0.00771487642465112 -0.0012827823899501782
v 0.00037519803430122205 -0.008042201840494513 -0.00128335323743301
v -0.0016223858613317774 -0.007918132231333674 -0.001309951671364
v -0.0035739721996045962 -0.007476409969453138 -0.0013608606811367503
v -0.005491597651029152 -0.006903433404659462 -0.0013895496436528694
v -0.00712732961259812 -0.005750040813573981 -0.0013870954910711567
v -0.008190225519124208 -0.0040543565136057155 -0.001405607649093389
v -0.008346165611821306 -0.0020589038757935526 -0.0013769957368346686
v -0.008171648300277714 -6.485614124014861e-05 -0.0013632829266268347
v -0.0075125359767732325 0.0018251733430965727 -0.0013858497737433758
v -0.006408740625366169 0.003495271960659515 -0.0013953506204401542
v -0.005110715160797324 0.005019193898329693 -0.0013732819232574309
v -0.003511689112973568 0.006223453889415715 -0.0013766242405910756
v -0.001656623304822077 0.006975615780050703 -0.0013727332241613066
v 0.00033680358999639223 0.007159448224938539 -0.0013775731502890314
v 0.002301563486376394 0.006776590258282598 -0.00138020829514413
v 0.004098459044379183 0.005894848461523066 -0.0013626775797889797
v 0.005565359982792462 0.0045327429447559716 -0.0013637146210762608
v 0.006574881469851186 0.0028042114884319095 -0.0013698781986645858
v 0.007104367995059724 0.0008738990284508765 -0.0013465636161586398
v 0.00705072618731201 -0.001127115754950298 -0.0013608500192356754
v 0.006461623084595871 -0.0030401893710561316 -0.0013671722190671575
v 0.005383155501040857 -0.004726469662049943 -0.0013580365217412754
v 0.0038604510663561367 -0.006025696507533194 -0.001362029588004613
v 0.0020490746018444863 -0.006877195323499074 -0.0013714829865629514
v 6.593057557905897e-05 -0.0071472232275199814 -0.0013820978347320607
v -0.0019252993736152142 -0.006944784836885193 -0.0013725773861796187
v -0.003867309746369146 -0.006460010667125898 -0.0013711817099181672
v -0.005717299715460669 -0.005789987856045795 -0.001003738592596946
v -0.007167197369589481 -0.004415441926478371 -0.0008860906226821
v -0.008389677064616585 -0.0029060433852142616 -0.000403410781834975
v -0.008247333036449894 -0.0009091349721800439 -0.00035567344180717904
v -0.00794301851447407 0.0010603151928168812 -0.00015898941739488662
v -0.007269641720257561 0.0029396287522909788 -2.0503761669474195e-06
v -0.006221824295040318 0.004646048534142422 9.776688424624873e-06
v -0.004797454534524133 0.006053385062403821 -1.2993892876139147e-05
v -0.003090498592642082 0.007100128751057538 -2.7572183983096366e-05
v -0.0011707814425185065 0.007669313852223216 -4.340927882115748e-05
v 0.0008311388768117536 0.007709813996636422 -6.150630649198558e-05
v 0.0027781839735357304 0.007242216844777555 -6.427943140339699e-05
v 0.004539356301201115 0.006289449305605268 -6.90998686058555e-05
v 0.00599382653992161 0.004913268248376526 -9.047330914080813e-05
v 0.0070389245594791525 0.0032060075284014514 -3.766783197620048e-05
v 0.0076376550294197055 0.0013107237195365863 0.0002064462781638736
v 0.007747141730786046 -0.0006794734595310819 0.00040010159281283293
v 0.0073530122489371425 -0.0026419972969360475 0.00045690410661542564
v 0.006453879831934474 -0.004431069926890677 0.0004787915666479821
v 0.005141031122503447 -0.0059430475851052576 0.0004857753088360391
v 0.003476503833525278 -0.0070560274265700565 0.00048577302122030595
v 0.001572584741569028 -0.007676337677609552 0.00048435300963711676
v -0.00042182504255182363 -0.007855792437987593 0.0004834028167577752
v -0.002421173285846499 -0.007770442764552479 0.0005558246174996761
v -0.004352039943491881 -0.0072638344274668035 0.0007137589367057805
v -0.006072916619336883 -0.006240680621838657 0.0006671777811786772
v -0.0076095327255666385 -0.004959138499338953 0.000584781891997074
v -0.00841213402995855 -0.0031267464319368796 0.0004958152916530808
v -0.008812526527192612 -0.0011684318551655017 0.00037531480356316503
v -0.008446225466200292 0.0007865284904483933 0.0006056114554201177
v -0.0075474057366340065 0.002556271405059557 0.0008695184801072702
v -0.006519035202806921 0.004274094692915187 0.0008989600534314865
v -0.005199243475900583 0.005779755061230888 0.0008761430643149828
v -0.0035415070142633294 0.006902883194750339 0.0008593947773942737
v -0.0016491356596709974 0.007557541846333854 0.0008453169322567713
v 0.00034651164043109545 0.0077219946967605315 0.0008308503218320862
v 0.002315530262589826 0.007358172172515032 0.0008315131645411741
v 0.004132092973085514 0.006515779610085442 0.0008311445247860094
v 0.005674360544634044 0.005238875425217976 0.0008103916982165284
v 0.006860743284338546 0.0036260676986142235 0.0008426643094779367
v 0.007646195765721095 0.0017950122393265912 0.00104236366456847
v 0.00786457970573905 -0.00018301668463433765 0.0012649513873845741
v 0.007551731995493049 -0.002159316699047272 0.001346353271124557
v 0.006749938467408085 -0.003994296466466317 0.001365848671904638
v 0.0055129221462501985 -0.0055690658698637485 0.0013731096262510163
v 0.003903464599789321 -0.006760459511002678 0.0013722740233784898
v 0.0020496659318324662 -0.007517483141356566 0.0013706953566316282
v 6.577202037077978e-05 -0.007789280174048894 0.0013730660803611117
v -0.0019195747984138679 -0.007528507485072741 0.0013786991252901447
v -0.0038015280972198313 -0.006844317687805892 0.0013759529248775204
v -0.00559198610046541 -0.005947920736341505 0.0014017077964248986
v -0.007260868230570497 -0.004841293946453816 0.0014053934298156386
v -0.008277355045823923 -0.003116507395896785 0.0013841409886292538
v -0.00818110012452644 -0.001146431982061307 0.0010425474367577658
v -0.007462010514775722 0.0006489643998974252 0.0005253967672163507
v -0.006497508944455405 0.002396761408830928 0.0003736219190079284
v -0.005557614909772167 0.004164360186975002 0.0003633668034178381
v -0.004110714339495323 0.005547789126380835 0.00036903757526341396
v -0.002350771503925688 0.006501548351183623 0.0003675356529582241
v -0.0003909871450826356 0.006909545378076567 0.000358426008624383
v 0.0016030452196156724 0.00673451405298827 0.00035454135457576056
v 0.0034666146858637037 0.006003658541973238 0.0003623277302687669
v 0.005045561819941007 0.004773095645321689 0.00036117136493514306
v 0.006184841847517169 0.00312700048808633 0.0003675863121309737
v 0.006772712810169092 0.0012132037788181386 0.0003798513699011047
v 0.0068374206910739145 -0.0007876400338969744 0.0003795869939194114
v 0.006338520764222093 -0.0027263157668351336 0.0003706692399851525
v 0.005299798322195335 -0.004437441562842379 0.00036894272662057163
v 0.003820465297609213 -0.00578602863509692 0.0003677377774022722
v 0.0020038256057495715 -0.006626481201966399 0.0003601726089871994
v 2.6735525942855376e-05 -0.006940111070392339 0.0003543691638169729
v -0.0019749561332129623 -0.006926089634224453 0.0003448576117585137
v -0.003948165579648279 -0.006740879076039224 6.362478236698803e-05
v -0.005781707037066609 -0.005960591748622845 -0.0001256945406030122
v -0.007122108024289086 -0.004478306228423586 -9.565802437278243e-06
v -0.007645648132561082 -0.002564434386096729 0.00025913514794948954
v -0.007336014049115608 -0.000617032265768727 -9.035693586125381e-05
v -0.006983944053421594 0.001325280198875578 -0.0004280710171673173
v -0.0063157890894592564 0.0032088552402493413 -0.0005543783624570535
v -0.005068205524995999 0.004775310987149203 -0.0005177968335834891
v -0.0034889763014012416 0.006007322357693371 -0.0005177578646021282
v -0.0016342102295447678 0.006763739922614173 -0.0005168641662535431
v 0.00036040492924682916 0.006946623376538286 -0.0005203986119691008
v 0.002327285504636606 0.006569051730055092 -0.0005189082044444287
v 0.004102615286074295 0.005642314924705851 -0.0005099269445528554
v 0.005515263042127977 0.004222793077535667 -0.0005186217996658791
v 0.006514901036293041 0.0024874444030513307 -0.0005076763038863345
v 0.0069620864889553295 0.0005352794545968812 -0.0004900550943407653
v 0.006801332190016223 -0.0014610782178640376 -0.0005028318906117404
v 0.006097154882083419 -0.0033362850073628903 -0.0005074795084996338
v 0.004901769126110229 -0.004943477071784264 -0.0005030446114158775
v 0.0032934000073284917 -0.006136996549589461 -0.0005070144723681483
v 0.0014058218897518829 -0.006806165559820473 -0.0005166865396596383
v -0.0005932224889040162 -0.006927263575680693 -0.000522607461339174
v -0.0025526169434337683 -0.006513607479318568 -0.0005456737592656841
v -0.004403658195459813 -0.005751645353278911 -0.00048224105758975735
v -0.006008254776864952 -0.0045544839707970615 -0.00043103038206261006
v -0.007240260583149035 -0.0029886418911335873 -0.0006368240208348691
v -0.007508132527822743 -0.0010231722737008386 -0.0009115082908433691
v -0.006937448833923743 0.0008626441588904617 -0.0012694827815140028
v -0.005823743430899119 0.0025242388755756183 -0.0011681346925356934
v -0.0046325515684760175 0.004125676664348125 -0.0010011722964955194
v -0.0030796722208879957 0.005390313191867552 -0.0010153670782685207
v -0.001205200256215074 0.006094992276363823 -0.0010356314545584514
v 0.0007972031484705373 0.006127636696577344 -0.0010089308970028714
v 0.002712530276691229 0.005542009410246373 -0.0009918263150198352
v 0.0043472300288680535 0.004384574298899245 -0.0010230033049488157
v 0.005520604524217094 0.002760989442297094 -0.0010186298353343462
v 0.006125734039197011 0.0008516444721985847 -0.0009889335803473938
v 0.006090055913549773 -0.001151084756148888 -0.0009990122521424919
v 0.005428198032655324 -0.003041432270862992 -0.0010208509343326792
v 0.004174796334063279 -0.004603752634499966 -0.0010168707397768758
v 0.0024724328246807704 -0.005658945462937215 -0.0009937938899016218
v 0.0005237273545579265 -0.006123124689054039 -0.0009833191834541094
v -0.0014754161005675706 -0.006051522536260487 -0.0010929709507755299
v -0.003426069588975728 -0.00560960961264887 -0.001210921897307955
v -0.00534337028415 -0.00504178657638446 -0.0013353952593026532
v -0.006741468660218079 -0.0036096141542225984 -0.00142265190798146
v -0.00665424522074201 -0.0016152133005648162 -0.0012362214099014186
v -0.006330757285713427 0.00030573503715622456 -0.0007616095704774993
v -0.0057974235874747445 0.0021841298836739955 -0.00030800978714470075
v -0.004786214102186385 0.0039034595072228065 -0.00011061722301721377
v -0.0032602067802169547 0.005203510553603976 -0.00013189464380411063
v -0.0014142803150415332 0.005985751265396165 -0.00015405642507130765
v 0.000586837133723215 0.006108433556514754 -0.0001280107405626636
v 0.002525306278033679 0.0055970482117097655 -0.00010541917555851425
v 0.004196575316254737 0.004490153323308979 -6.942091662629468e-05
v 0.005423584390727676 0.0029047254413029342 -5.473561856699683e-05
v 0.0060621334798925805 0.0010054513375157518 -0.00010220242558076927
v 0.00606002024571445 -0.0009987669652455433 -0.0001182222779744731
v 0.005419699136974999 -0.002898217781299057 -0.0001404247088587288
v 0.00419931496160814 -0.004488865594501573 -0.00013421173780322636
v 0.002526523032683703 -0.0055935663435404135 -0.0001078769927523951
v 0.0005856614264924682 -0.0060954520250321945 -9.12251940135651e-05
v -0.0014164525833403848 -0.006059364007912273 1.2660341587249928e-05
v -0.0033933626764471652 -0.005933526878219448 0.0003231146526765223
v -0.005349914090263851 -0.005610744462834185 0.0006194227652410818
v -0.006857132560620497 -0.004303966230793311 0.0008101390596433932
v -0.00739467782688124 -0.0023960710500741285 0.0011058182447715897
v -0.007210477689187311 -0.0004186066000307433 0.0013753425895864611
v -0.006927288143049842 0.0015647979488379793 0.001321449949179702
v -0.006105841042862822 0.0033908588944990747 0.001235956820326443
v -0.0048594806085348625 0.004960264103664011 0.001240024870115366
v -0.003247595189419958 0.006151143941140318 0.0012408914332776612
v -0.001351286924221488 0.006799110820912498 0.0012360403514235444
v 0.0006518265829501176 0.0068663416842489056 0.0012167700234622832
v 0.0025914354721773987 0.006361085154813364 0.0012228350814421003
v 0.00431962080481041 0.005345517472680966 0.00122506688696252
v 0.005698591254448017 0.003891126274688962 0.0012299462561122863
v 0.006609483953628892 0.0021059429423998465 0.0012389959377666472
v 0.006952111913720423 0.00013159520230720785 0.001248056250854641
v 0.006718027429445749 -0.0018585505878624862 0.0012412889832784048
v 0.005895009262484443 -0.0036856060178284585 0.0012357708683675187
v 0.004573405579140467 -0.00519216584933024 0.001235439912013794
v 0.0028711865391168197 -0.006250252350685546 0.0012281310438973419
v 0.0009435125694651795 -0.006800172569247833 0.0012233067615798397
v -0.0010604979819933843 -0.006777851961693956 0.0012083270283890306
v -0.002987339724306707 -0.006226797787394238 0.0012040374081543302
v -0.00478623210523603 -0.005359642200010818 0.0013707863765768861
v -0.006284119376017785 -0.004029531324135409 0.0014212968404559245
v -0.006510258964049883 -0.0020510571591355426 0.0011877142406491053
v -0.0063032462031525575 -5.7212636201006394e-05 0.0011474447630954593
v -0.005882451693973049 0.0018959672200454022 0.0009802685887088667
v -0.004916226758385378 0.003646866516404619 0.0008397262903773339
v -0.0034666523716976867 0.005031556034909567 0.0008536092992910896
v -0.0016528182020624776 0.005884799691940494 0.0008493396718236929
v 0.000341392191261576 0.00608684638296178 0.0008215724197697585
v 0.002293756152284409 0.005631377415722924 0.0008237646649682612
v 0.003986999785418183 0.00455794491572926 0.0008627007391913546
v 0.005266879018231188 0.00301442138440594 0.0008698499070630937
v 0.005987183135465322 0.0011431700788421748 0.0008644727412025733
v 0.006050476558478439 -0.0008606260751356137 0.0008727435860213474
v 0.0054528902392429425 -0.0027741104994723252 0.0008674044625692532
v 0.0042588264342472105 -0.004384005187686434 0.000851396824364595
v 0.0026016046851690395 -0.005511514649704923 0.0008300622585028083
v 0.0006709439609980003 -0.006050966729950314 0.0008021010646851483
v -0.0013256641948583253 -0.005878504134184241 0.0008784043578748638
v -0.0032298163236622783 -0.005247757124688624 0.0008596737888048809
v -0.005130285942562892 -0.0046936578342347155 0.0005375180373529976
v -0.006548594423434609 -0.003298641935034204 0.00029229687513149244
v -0.006613799900060298 -0.0012943462078244365 0.0003170715075504154
v -0.006070675599865163 0.0006333891046422408 0.00020950636200495028
v -0.004927191929044949 0.0022771865304940394 0.0003322031298016717
v -0.00370058301781947 0.00386483291812355 0.0003306470496526688
v -0.0020235078746553216 0.004964464819474151 0.00033597734964870165
v -5.479339881326141e-05 0.0053477486097818615 0.000331542040392873
v 0.0019196118880499017 0.004997293506767851 0.00033184777442211446
v 0.0036278023521651927 0.003947615866088572 0.00032754054134528915
v 0.004817136259866764 0.002333416257565966 0.00033390949335270403
v 0.005334494044619969 0.00039578150231863953 0.00034390135282797395
v 0.0051123239490227955 -0.0015975821448414868 0.00035030700176862936
v 0.004168866539703553 -0.0033676251178353894 0.0003432234957646187
v 0.00263229546468763 -0.004656710968336709 0.0003374425843124035
v 0.0007318367131896166 -0.005295989103957466 0.0003412117456595317
v -0.0012708353343574039 -0.00521119833719589 0.0003089749632037278
v -0.003199283201043394 -0.004682998079555532 0.00015740346516043244
v -0.00510112720658837 -0.004201006639411895 -0.00025740302278874004
v -0.0064052189426386415 -0.002704126898954538 -0.0005324537605644458
v -0.005803170234368162 -0.0007884605640911221 -0.000448110283452483
v -0.0052180482837830755 0.0011334206948952104 -0.0005057129298715138
v -0.0044445826804172155 0.0029873567875740885 -0.0005490847413316946
v -0.0030329438567864627 0.004417114626715423 -0.0005465504933472216
v -0.0011946895362164062 0.005227577307384862 -0.0005468951611883703
v 0.0008134951838927855 0.005286146632473463 -0.0005495202432053614
v 0.0027080378005074385 0.004616941919938582 -0.0005504939730368711
v 0.00422628973274791 0.0033005725184502934 -0.000544742017191853
v 0.005135268076936117 0.0015084505805385256 -0.0005413328541960473
v 0.005325867675374637 -0.00049185543981296 -0.0005397340700914851
v 0.0047790158005701225 -0.002425055887669263 -0.0005328195910444595
v 0.0035528823649212103 -0.00401651435983784 -0.0005383183718408418
v 0.0018163695125025716 -0.005026812113645029 -0.0005440114937015015
v -0.0001660449884347642 -0.005355204871844376 -0.0005336930699938025
v -0.0021666378765677246 -0.005172648395783366 -0.0005938089975753875
v -0.004069392510995761 -0.004602120064193548 -0.0008983809977430928
v -0.005707739158920863 -0.0034888695616583586 -0.0012372311568718476
v -0.005764179818999872 -0.001484390936126221 -0.001307453248523731
v -0.005373345606040195 0.00048309536771738785 -0.0013709812716382248
v -0.0048020001001620885 0.002406693979143625 -0.0014055297867478554
v -0.003579984650574874 0.00399845529627851 -0.0014097640037040989
v -0.0018585829349114008 0.005029853725919845 -0.001415198191411306
v 0.00012176206771059614 0.005353702791100688 -0.0014126637231231046
v 0.0019991090814223465 0.004973418988869564 -0.001413206669137193
v 0.0036947472017667187 0.003900570389628955 -0.0014086647306826546
v 0.004862049555770815 0.002268610095810975 -0.0014066906120313034
v 0.0053502979755322075 0.0003223554882520154 -0.0014018938592586302
v 0.005124428205726663 -0.0015851806991390013 -0.0014030444234078845
v 0.004184682668174346 -0.003358132704935677 -0.0013930554256359367
v 0.002657206232711465 -0.004659303870163768 -0.001414464353850828
v 0.0007541637969922327 -0.00529493454941431 -0.0013955105343281904
v -0.0012518309101605639 -0.005256971070345566 -0.0014203780828498844
v -0.0030416723633029706 -0.004360299735079879 -0.0014215651175455556
v -0.0046792693661114005 -0.0032046708126390756 -0.0013391393796768432
v -0.005735395725189869 -0.0023905317910892206 0.0001576750424215819
v -0.004275783259552955 -0.003099378392606553 0.0012208434052584736
v -0.002891363150863643 -0.0045952029325261904 0.0013382842848247071
v -0.0009481214479612106 -0.0052387642004584276 0.001389132507502333
v 0.0010974277114416118 -0.005255303478415979 0.001378775792754924
v 0.0029748285625799055 -0.0044435533943373825 0.0013834675874538362
v 0.004356719858757894 -0.003103274584933663 0.0013802307020611552
v 0.005195896390355665 -0.0012387610737567903 0.001371932293902434
v 0.005304930349049718 0.000803652267584504 0.0013793676418470161
v 0.004603057584919696 0.002723871034376717 0.0013835750327005905
v 0.0033206891066645807 0.0041712396913199026 0.001385145262905049
v 0.001519680184980138 0.00513892906864034 0.0013858293801084934
v -0.0005164865859271367 0.0053332220594480735 0.0013867476748382897
v -0.002474067241817392 0.004742058063938109 0.0013769821082667546
v -0.004070160972054525 0.0034648807165652408 0.001339162993872406
v -0.004893824447250126 0.0020693290559611606 0.0012944994950997621
v -0.00545358817848706 -0.0001033694959607622 0.0005427919100070232
v -0.0049339766403060075 -0.0018394233672344306 -5.68670578951566e-05
v -0.004198105764199976 -0.003556731833419877 4.0944454615846067e-05
v -0.00550791170916453 -0.003664798418329837 0.0011252813420434475
v -0.00566569449429531 -0.0017240780726891065 0.0014229448415397795
v -0.005502837995997843 -0.00036019896950060994 0.0014024667682274196
l 2 1
l 3 2
l 4 3
l 5 4
l 6 5
l 7 6
l 8 7
l 9 8
l 10 9
l 11 10
l 12 11
l 13 12
l 14 13
l 15 14
l 16 15
l 17 16
l 18 17
l 19 18
l 20 19
l 21 20
l 22 21
l 23 22
l 24 23
l 25 24
l 26 25
l 27 26
l 28 27
l 29 28
l 30 29
l 31 30
l 32 31
l 33 32
l 34 33
l 35 34
l 36 35
l 37 36
l 38 37
l 39 38
l 40 39
l 41 40
l 42 41
l 43 42
l 44 43
l 45 44
l 46 45
l 47 46
l 48 47
l 49 48
l 50 49
l 51 50
l 52 51
l 53 52
l 54 53
l 55 54
l 56 55
l 57 56
l 58 57
l 59 58
l 60 59
l 61 60
l 62 61
l 63 62
l 64 63
l 65 64
l 66 65
l 67 66
l 68 67
l 69 68
l 70 69
l 71 70
l 72 71
l 73 72
l 74 73
l 75 74
l 76 75
l 77 76
l 78 77
l 79 78
l 80 79
l 81 80
l 82 81
l 83 82
l 84 83
l 85 84
l 86 85
l 87 86
l 88 87
l 89 88
l 90 89
l 91 90
l 92 91
l 93 92
l 94 93
l 95 94
l 96 95
l 97 96
l 98 97
l 99 98
l 100 99
l 101 100
l 102 101
l 103 102
l 104 103
l 105 104
l 106 105
l 107 106
l 108 107
l 109 108
l 110 109
l 111 110
l 112 111
l 113 112
l 114 113
l 115 114
l 116 115
l 117 116
l 118 117
l 119 118
l 120 119
l 121 120
l 122 121
l 123 122
l 124 123
l 125 124
l 126 125
l 127 126
l 128 127
l 129 128
l 130 129
l 131 130
l 132 131
l 133 132
l 134 133
l 135 134
l 136 135
l 137 136
l 138 137
l 139 138
l 140 139
l 141 140
l 142 141
l 143 142
l 144 143
l 145 144
l 146 145
l 147 146
l 148 147
l 149 148
l 150 149
l 151 150
l 152 151
l 153 152
l 154 153
l 155 154
l 156 155
l 157 156
l 158 157
l 159 158
l 160 159
l 161 160
l 162 161
l 163 162
l 164 163
l 165 164
l 166 165
l 167 166
l 168 167
l 169 168
l 170 169
l 171 170
l 172 171
l 173 172
l 174 173
l 175 174
l 176 175
l 177 176
l 178 177
l 179 178
l 180 179
l 181 180
l 182 181
l 183 182
l 184 183
l 185 184
l 186 185
l 187 186
l 188 187
l 189 188
l 190 189
l 191 190
l 192 191
l 193 192
l 194 193
l 195 194
l 196 195
l 197 196
l 198 197
l 199 198
l 200 199
l 201 200
l 202 201
l 203 202
l 204 203
l 205 204
l 206 205
l 207 206
l 208 207
l 209 208
l 210 209
l 211 210
l 212 211
l 213 212
l 214 213
l 215 214
l 216 215
l 217 216
l 218 217
l 219 218
l 220 219
l 221 220
l 222 221
l 223 222
l 224 223
l 225 224
l 226 225
l 227 226
l 228 227
l 229 228
l 230 229
l 231 230
l 232 231
l 233 232
l 234 233
l 235 234
l 236 235
l 237 236
l 238 237
l 239 238
l 240 239
l 241 240
l 242 241
l 243 242
l 244 243
l 245 244
l 246 245
l 247 246
l 248 247
l 249 248
l 250 249
l 251 250
l 252 251
l 253 252
l 254 253
l 255 254
l 256 255
l 257 256
l 258 257
l 259 258
l 260 259
l 261 260
l 262 261
l 263 262
l 264 263
l 265 264
l 266 265
l 267 266
l 268 267
l 269 268
l 270 269
l 271 270
l 272 271
l 273 272
l 274 273
l 275 274
l 276 275
l 277 276
l 278 277
l 279 278
l 280 279
l 281 280
l 282 281
l 283 282
l 284 283
l 285 284
l 286 285
l 287 286
l 288 287
l 289 288
l 290 289
l 291 290
l 292 291
l 293 292
l 294 293
l 295 294
l 296 295
l 297 296
l 298 297
l 299 298
l 300 299
l 301 300
l 302 301
l 303 302
l 304 303
l 305 304
l 306 305
l 307 306
l 308 307
l 309 308
l 310 309
l 311 310
l 312 311
l 313 312
l 314 313
l 315 314
l 316 315
l 317 316
l 318 317
l 319 318
l 320 319
l 321 320
l 322 321
l 323 322
l 324 323
l 325 324
l 326 325
l 327 326
l 328 327
l 329 328
l 330 329
l 331 330
l 332 331
l 333 332
l 334 333
l 335 334
l 336 335
l 337 336
l 338 337
l 332 338
