# line mesh exported by 38_wearing
v 0 0 0
v -0.000179133474 -0.0664123888 0.00169760145
v 0 0 0
v 0 0.064452 -0.1027
v 0 0.064452 -0.1027
v 0 0.116452 -0.133165
v 0 0.116452 -0.133165
v 0.0462176629 0.116452 -0.251041003
v 0.0462176629 0.116452 -0.251041003
v -2.32609678e-06 0.1186009 -0.439295752
v -2.32609678e-06 0.1186009 -0.439295752
v -2.32609678e-06 0.118506455 -0.739305752
v -2.32609678e-06 0.118506455 -0.739305752
v -2.32609678e-06 0.118506455 -0.791863752
v 0 0 0
v 0 -0.064452 -0.1027
v 0 -0.064452 -0.1027
v 0 -0.116452 -0.133165
v 0 -0.116452 -0.133165
v 0.0462176629 -0.116452 -0.251041003
v 0.0462176629 -0.116452 -0.251041003
v -2.32609678e-06 -0.1186009 -0.439295752
v -2.32609678e-06 -0.1186009 -0.439295752
v -2.32609678e-06 -0.118506455 -0.739305752
v -2.32609678e-06 -0.118506455 -0.739305752
v -2.32609678e-06 -0.118506455 -0.791863752
v -0.0039635 0 0.044
v -0.0039635 0 0.044
v -0.0039635 0 0.044
v 0 0 0
v -0.0039635 0 0.044
v 0 0 0
v -0.0039635 0 0.044
v -7.2e-06 0.10022 0.29178
v -7.2e-06 0.10022 0.29178
v -0.00121518373 0.140545924 0.289012833
v -0.00121518373 0.140545924 0.289012833
v -0.00916122735 0.213415123 0.216101121
v -0.00916122735 0.213415123 0.216101121
v -0.00105382186 0.271981776 0.159211152
v -0.00105382186 0.271981776 0.159211152
v 0.00256363304 0.343595607 0.0887701315
v 0.00256363304 0.343595607 0.0887701315
v 0.00768119528 0.371006548 0.0629544216
v 0.00768119528 0.371006548 0.0629544216
v 0.0138761391 0.404188214 0.0317038255
v -0.0039635 0 0.044
v -7.2e-06 -0.10021 0.29178
v -7.2e-06 -0.10021 0.29178
v -0.00121518373 -0.140535924 0.289012833
v -0.00121518373 -0.140535924 0.289012833
v -0.00916122735 -0.213405123 0.216101121
v -0.00916122735 -0.213405123 0.216101121
v -0.00105382186 -0.271971776 0.159211152
v -0.00105382186 -0.271971776 0.159211152
v 0.00256363304 -0.343585607 0.0887701315
v 0.00256363304 -0.343585607 0.0887701315
v 0.00768119528 -0.370996548 0.0629544216
v 0.00768119528 -0.370996548 0.0629544216
v 0.0138761391 -0.404178214 0.0317038255
l 1 2
l 3 4
l 5 6
l 7 8
l 9 10
l 11 12
l 13 14
l 15 16
l 17 18
l 19 20
l 21 22
l 23 24
l 25 26
l 27 28
l 29 30
l 31 32
l 33 34
l 35 36
l 37 38
l 39 40
l 41 42
l 43 44
l 45 46
l 47 48
l 49 50
l 51 52
l 53 54
l 55 56
l 57 58
l 59 60
