#
# File generated by Libuipc
# Vertices 563
# Edges 0
# Faces 964
#
v 0.006691315714500702 0.13166820374890417 0.030528918371606668
v 0.010673505988753522 0.12756894749448774 0.03444388767495272
v 0.018912590514197466 0.12872041511945173 0.026576809115068156
v -0.09705771786455734 0.013531403136569992 0.05678584945864773
v -0.09376616062672241 0.024249257163484517 0.057045400082599534
v -0.09357855692028132 0.01914867363222067 0.051978420377933966
v -0.024042068016025517 0.11504997796959321 0.05063233685327122
v -0.013725828737468703 0.12112366687252696 0.046694711499481636
v -0.02190830332820866 0.11976311209448015 0.04274685992052852
v -0.09196544905998863 0.00843683385255129 0.03215199840749249
v -0.09049588008480468 0.016294406305523607 0.03632787716073124
v -0.08965959094955724 0.017108222431681235 0.030299485182206116
v -0.08723196387837429 0.02599906493152855 0.028343882196258226
v -0.08401647818818604 0.03195819219979293 0.03355271055282593
v -0.08359192881878746 0.03564003394769148 0.029285750244366977
v -0.04211808746407096 0.09764558150920331 0.058348679160296395
v -0.035001962202852364 0.10392350778005988 0.05846924400033738
v -0.040649244458532754 0.10099229274134955 0.05284312960148307
v -0.09243485531092982 0.014021242650298147 0.0416845496381907
v -0.09547737603650568 0.005008455939740147 0.044997947994230715
v -0.0931678291365528 0.015905899799497226 0.046967510907537334
v -0.011474110110835477 0.12389213157686506 0.04107837675074922
v -0.004229337040850885 0.12414467984776115 0.04366826921277652
v -0.0020176579264787123 0.1272242877888431 0.036941824028586215
v -0.03558907280816777 0.10849749551916547 0.04747917781286162
v -0.03330988945092852 0.11470676604935308 0.04148550120378155
v -0.0440671050406738 0.10544736707865317 0.04222978362075299
v -0.0035738246181313514 -0.12237732821244204 0.0475126297909085
v -0.014290417441409383 -0.12044219595276762 0.04751545519299269
v -0.007884638164343531 -0.12363792476576572 0.0429870980943304
v -0.017859895627882785 -0.12525347700546838 0.036626218812534125
v -0.02928693438712755 -0.11992769681403191 0.03915323814310627
v -0.02428603101486039 -0.12617326196160666 0.033745428386830055
v -0.05333420737934292 0.09576261194236103 0.04215797986281001
v -0.05786861445571517 0.09779593555987263 0.03650021658169782
v -0.06140526125185609 0.09396467973462892 0.035889716007629684
v -0.06611123034882836 0.08204010920899686 0.03589982204503298
v -0.06039164249218275 0.0876162994138692 0.03980545537930297
v -0.064667493676595 0.08995473328206098 0.03481073088004805
v -0.03958941455326731 -0.11455238410046825 0.03934770096666123
v -0.03604631214115981 -0.12062799717217944 0.03579684731265799
v -0.08784066392173068 -0.027291888232869817 0.029777366807303696
v -0.08883316238703204 -0.028051874204725137 0.02543590320982755
v -0.08578080122890559 -0.03636724137598955 0.027990980150813485
v -0.053329833782039024 0.08699454130895867 0.053272572579156255
v -0.04903007474477889 0.09409190679748167 0.049687464390630466
v -0.05644043187246373 0.08662425269307061 0.046455724762501
v -0.04542261102131664 -0.10584081168951617 0.04428176179691205
v -0.04821159819437924 -0.10703162758888703 0.0401896199753903
v -0.03830581956423948 -0.11274076172541593 0.042304522274514283
v -0.06291821564655822 0.07945435471478424 0.04227824321995146
v -0.08135421157453923 0.03950062039639391 0.0353716671814381
v -0.08415382423585764 0.03294637962109621 0.03944169296936886
v -0.05436402334812582 0.10191838969468256 0.03786031842056443
v -0.07748822962199699 0.06573158516479363 0.027525213329538317
v -0.07361693479017738 0.07097890121647793 0.03207356342977124
v -0.07581658749235103 0.06991136508295634 0.02848434660173821
v -0.08394065755026081 -0.04541598806569516 0.026393492747907234
v -0.08242290037528223 -0.045537590972506384 0.031046753392402288
v -0.08207826896502247 -0.0532224730410332 0.027304169126283032
v -0.08494369280535878 -0.05060304475058613 0.023097779193151566
v -0.08416753195177079 -0.055173853061962805 0.023690880948569713
v -0.06733103059403024 0.0705577974018677 0.04351925608271328
v -0.0688986678280053 0.07410949651446089 0.037006328928894355
v -0.0736552513516371 0.06421737468037128 0.035505187179871715
v -0.07195775507904134 0.06274307504416521 0.058530683958561876
v -0.07102427033351995 0.06619827539793242 0.06390520814032874
v -0.06644199561777317 0.07107844383208972 0.06138149830780664
v -0.07168750199209138 0.06130747317412412 0.052606430541776314
v -0.06540478904426354 0.07140441036417876 0.05607849278919432
v -0.0810318273318666 0.04546246744431888 0.029000325966486145
v -0.07816975749543183 0.0483951673030664 0.03710682269799211
v -0.07779084721827227 0.05488304020062545 0.03128157225902317
v -0.07762055585629775 0.05237426512186086 0.054874449652864726
v -0.07203411931838669 0.060672421290784775 0.0449833014988129
v -0.06750878437176765 0.06813891645320935 0.049700713453297525
v -0.08400669748351695 0.04458419001946649 0.02372510994786955
v -0.08532027604613364 0.04018389355672536 0.0236902595447067
v -0.08397782011768004 0.03938683070202104 0.025874045822096094
v -0.059609144111858095 0.07915087713869579 0.06151321975324421
v -0.057930613305403146 0.08098996125025547 0.056565927077244844
v -0.049673757498109705 0.08969331987259635 0.060790352486893344
v -0.054462892832561324 0.08539874093959861 0.06748598282295735
v -0.019904621034211162 0.1132319383244461 0.06308763062195037
v -0.029877009270814728 0.10644353782220525 0.06378078081587857
v -0.02425105493425193 0.10959756527992014 0.0693924966920127
v -0.03920040388814805 0.09902296119728127 0.0634184095347318
v -0.08822511192774453 0.03156583482134892 0.02238706221772808
v -0.032375233001996004 0.10792979942984351 0.05355127572458316
v -0.026566374383785216 0.11054901702615637 0.05800104821817326
v -0.061398123258816245 0.07754187978157545 0.049938697262340084
v -0.08125708346466456 0.05241106799341587 0.024732876817954254
v -0.08444093136642467 -0.038072550460458994 0.03547428551910856
v -0.07418230717108171 0.0739201242459771 0.03049291775210286
v -0.04463321786422994 0.09376329856773981 0.06868125024095142
v 0.0031260879758941364 0.12292368280709415 0.04864328574735795
v 0.013180323516231903 0.12339926386154088 0.04454676898879279
v 0.005706551074757762 0.125331998738366 0.040866075034438454
v -0.07921305525419922 0.055459152515020926 0.060824684122937844
v 0.014132189605757649 0.1251351076467344 0.038559416294997234
v 0.013978951127963941 0.1211370209278469 0.058512777774881466
v -0.08335200129729874 -0.06007794225545876 0.024498141608731448
v -0.08164669341732135 -0.06443556300584424 0.02556696676985438
v -0.07972478688133047 -0.062516121306954 0.029146824446958722
v -0.08048776065854946 0.0566876928061585 0.025446078586553598
v -0.07929675159127007 0.06105001963858673 0.026658755623195828
v -0.0741709517362273 -0.06500993342985917 0.05564854433631837
v -0.07119551823122956 -0.07123067636552141 0.04924174721028638
v -0.06656760762686187 -0.07766474067478453 0.057197338070947734
v -0.007243775778595679 0.11906092053818489 0.060192578968731605
v -0.003748794280669805 0.12115965989279082 0.05379399655033651
v -0.012455597547691795 0.11932468273473262 0.05325059404278418
v -0.07876444198180334 -0.05559583006892331 0.05674886842038252
v -0.07698385959345158 -0.060573394574635 0.06194899348156328
v -0.04061119439897812 -0.10138049935730284 0.06344973994776912
v -0.02802070981124324 -0.10874423743447485 0.06213427939578905
v -0.033313745656461335 -0.10488833313033631 0.06737703666683736
v -0.00026142331642096 0.12144734980127178 0.06657052510429687
v -0.013023699148059101 0.11714101804788224 0.06838983966904837
v -0.03230352624546435 0.12040728581629558 0.03667174170781261
v -0.04374369121751987 0.11183743901226274 0.037200536595134434
v -0.09378790894386205 0.014051097261929426 0.02162702210554607
v -0.0905412183051128 0.0177476290717093 0.025718507073256944
v -0.0912342292694238 0.02284329594892983 0.02196546787768032
v 0.00481640744151758 0.1211145468055488 0.06119306425076055
v 0.012834007050089637 0.12199427488131169 0.06455274551080024
v -0.04689913113762771 -0.11166652204598292 0.039337371872954455
v -0.04684414613814367 0.09394886113544207 0.05517340602026126
v -0.08241096739728195 -0.04650993356275743 0.05380988747075703
v -0.07851897780374632 -0.05588147088043057 0.051396771581517654
v -0.0937760810749761 -0.0001414567090390588 0.024790708728062705
v -0.09551410520590388 0.004694145212553814 0.021316600151769793
v -0.09606473814511364 -0.004705888754362042 0.020957662183858687
v -0.06326532742718222 0.07620322916501467 0.065789797413859
v -0.09887063700220634 0.0022918586194108906 0.056890272152452785
v -0.0959089824414186 0.011176758294864782 0.051490500708823474
v -0.08704031806102311 0.02490414651805048 0.03499231714911922
v -0.034508336361856976 0.10168841463706094 0.06936354478496852
v -0.09242449676465982 0.008838859978834714 0.026268790547953287
v -0.0928005709218444 -9.957327566436483e-05 0.029084200503504007
v -0.08070342438370305 0.04212257210409439 0.04308395869392528
v -0.08914067867068214 0.023735424996448443 0.043153731128800964
v -0.08969660453870988 0.027995285730059067 0.051273617181021205
v -0.08522165452762626 0.03426268913786524 0.04665100820631465
v -0.09320292386444931 -0.009378048548298068 0.02642202782106868
v -0.09475823936752525 -0.014483295922229225 0.021104076744929683
v -0.09100231834172458 -0.020254725784102735 0.025944203144813504
v -0.09294803109000874 0.008681549559242113 0.03780666818913161
v -0.09233894020245936 -0.023766265026783126 0.021715263130390038
v -0.08558597204575999 0.03765717488304445 0.053209645040432955
v -0.08197792150926873 0.04424667476799127 0.05343820425441059
v -0.08406871277093683 0.044671738208768845 0.0599227481394262
v -0.08767941150736762 -0.028199501977586805 0.03702191559612458
v -0.09095114990081068 -0.019468898133401708 0.041014449447359685
v -0.09079963631805225 -0.017747203865808192 0.03239251137544791
v 0.005831129104182172 -0.12322642693266332 0.04758659600656662
v 0.01532847416644795 -0.12420967047798209 0.04356596766072888
v 0.011983237015406115 -0.1219232413496683 0.05160398567310004
v -0.08969169515554998 -0.032621866781019 0.022192704065353366
v 0.01939845707683067 -0.12035314328436308 0.05593446543078921
v 0.02082444083948801 -0.121828676151468 0.04994862815552683
v -0.08691461103823332 -0.041796990726628465 0.022619241296616542
v -0.07958233083778361 -0.05471345963868682 0.03401830718126016
v 0.01594860459428957 -0.12869486064949673 0.03151000940179788
v 0.0181984329420848 -0.12620816798735376 0.036194703188042715
v 0.008865304469786688 -0.12696161687917218 0.03704199062452858
v 0.006349300305847144 -0.1293826438225145 0.0323975813243581
v -0.07613944376393766 -0.0657321785873233 0.035258400967887446
v -0.07140708340141982 -0.07685523854075567 0.03698604167911388
v -0.07303798351654171 -0.0693933540296438 0.04168413647731
v -0.07674100726290002 -0.07196360142079217 0.030536573496466542
v -0.0744131623004055 -0.08113201508291584 0.028638748524743175
v -0.0929078531129 -0.010732394741769107 0.03775755442281384
v -0.07882473831940735 -0.07271428638774087 0.027999600734506854
v -0.0802367929139522 -0.06849466204961134 0.0266014323181623
v -0.00430959011040415 -0.11848781287159833 0.05681950722971941
v -0.016033660406103767 -0.11506449577046975 0.05797044817606411
v -0.009377862536825368 -0.1192594607240565 0.05257757614858168
v -0.07645262729566568 -0.07712614130399473 0.028181567300617067
v -0.006886637440156736 0.13032741118543112 0.032797599102798974
v -0.0660100491993183 -0.0926982531714218 0.03287018579985131
v -0.0635417309277751 -0.0926050975828333 0.03560183120119058
v -0.06914307059971259 -0.08919619507874953 0.031852171440155494
v -0.05696986099920017 -0.09905211336281486 0.03794961094317656
v -0.0628141358662085 -0.09632132509734188 0.03451129238007096
v -0.059322818428058546 -0.10039584282221443 0.03537313865296845
v -0.05324813485221994 -0.0961657172647657 0.049844543460405545
v -0.05782205076224241 -0.09260069139595715 0.04520067575100054
v -0.05227745264495322 -0.0991387497956969 0.045019297275342145
v 0.013251082122811886 0.12183137781346422 0.051770597776677516
v -0.06764067929627757 -0.0862114401323345 0.035409852985033394
v -0.051579023042909025 -0.10763264333987081 0.03783253565887541
v -0.09269395780244691 -0.007722331855786004 0.03189293168465577
v -0.0935819178825309 -0.00036290082276822533 0.0360432701133349
v -0.05553418661523299 -0.10395309826551104 0.03695515189203394
v -0.05225973348954549 -0.10111046111399434 0.04151832752030049
v -0.08602166366949539 -0.03244647952007336 0.032259372419012576
v -0.02994189064271938 -0.11666028239874116 0.04380865000041855
v -0.012208792924275562 -0.12950625630900725 0.03126974363064058
v -0.06406394190933065 -0.08595338681049677 0.041993018434661716
v -0.06774222070285368 -0.07861770541771446 0.0449263668860712
v -0.09381583918048576 -0.015256079433982168 0.05171115070412428
v -0.09325153661029972 -0.01943202845631863 0.057474291052649104
v -0.09728048546103728 -0.008942393510396541 0.05695238345503635
v -0.08953386181875572 -0.02979809656130419 0.0586989640988205
v -0.09059877357165363 -0.024170348253127766 0.052613980275922574
v -0.0868225487661248 -0.03464903630524195 0.05208877131868944
v -0.08135172396596853 -0.05042106835745039 0.06070800217391555
v -0.08595039224809536 -0.03517441399525004 0.04355056302252729
v -0.08902625749656481 -0.02683075978929104 0.04602587249795188
v -0.06566971354345276 -0.08020524767755267 0.051081713811761055
v -0.019832037193215434 0.12614798974210467 0.03452533650039639
v -0.014587707996787339 0.12505372400544978 0.03748770697073086
v -0.04929089732360284 -0.09501527817245864 0.06364324742999976
v -0.05726709944664916 -0.08853464479372379 0.0604483518203172
v -0.048318035504074694 -0.09701892378715127 0.05977441650337657
v -0.09160281408144588 -0.01974302224982271 0.04766681770241921
v -0.06364629561067496 -0.08133917551502513 0.06485841846115117
v -0.05462042329807856 -0.09021165377776344 0.06620680762461938
v -0.07094891832843177 -0.0712532225027454 0.06342431866235695
v 0.012447019345858993 -0.13241534356008886 0.02772770023531099
v -0.0001340829364247071 -0.13133961958712762 0.02904606769611876
v -0.07636009179660183 0.05147478834069659 0.04388729901367599
v -0.07503472929552892 0.05598908728179152 0.03876536007882065
v -0.004859787769190613 -0.12693822794885745 0.03665264722398303
v 0.0024036670231855134 -0.12486297130976116 0.04241476389907152
v 0.024952278716842382 -0.13055693095915358 0.024808145326272395
v -0.015897284878741154 -0.11314587611826 0.06319198477675755
v 0.0015055494653412457 -0.12105067467842592 0.05255389944165629
v 0.006562923983365398 -0.11954901714183161 0.05813381511919095
v 0.0037096722234847388 -0.11763731669005488 0.06466727031698444
v 0.016727309872591925 -0.11981752532041366 0.06261325902298882
v -0.021272136231382126 -0.11028192264815478 0.06709021472202537
v -0.00887580719388512 -0.11445600701462082 0.06615582403637987
v -0.005584701775790096 -0.11653316294396526 0.06136725661682176
v 0.0041284225547586345 0.1213811494370574 0.056011687882276645
v -0.018109187425748942 0.11563321664939541 0.05733350927179336
v -0.018704286233010337 -0.12192908038016084 0.042068914501206735
v -0.08164873544722324 -0.04631592199240579 0.036298729010472174
v -0.0856941838057325 -0.0402423189369945 0.05995867022181619
v -0.09131944668209548 0.02179444108299188 0.0484775460869714
v -0.08921104392594989 0.03464607801524899 0.0583967198890212
v -0.09628572738312305 -0.006052041832872435 0.04948083771748727
v -0.0934804859507244 -0.012897882860747126 0.04506727136684746
v -0.08297247482605263 -0.04324540203715847 0.04171418592670354
v -0.09464355373096295 -0.005207116286252357 0.04244087289020213
v -0.04443306999687098 0.10080083413650841 0.046873410276692604
v -0.0754893280631686 -0.06269813443205202 0.04931041567867214
v -0.04702383851864342 -0.10016987088741691 0.054736192157721394
v -0.04572564951087842 -0.10331769271433756 0.04932007171671531
v -0.044455605724256636 -0.09804162067046096 0.06707612086625488
v -0.03652627472588165 -0.1107860977978936 0.0480747855403645
v -0.025182453323022158 -0.11664178883082392 0.04810151498404583
v -0.029411826199733735 -0.11142548097743583 0.05474262537034713
v -0.07916125776209526 0.04731704099194747 0.04914611184496658
v -0.08215786397059176 0.04871031941834765 0.023667595115378588
v -0.02458466017469234 0.12146124962953647 0.03848875820877443
v -0.0753367590185651 0.054394750217948096 0.04932118663643201
v -0.07187134608694767 0.07801605716736168 0.031112577413865618
v -0.06716485741287281 0.0853765196695856 0.03370386841515527
v -0.0693538559143967 0.08175535631350823 0.031952283599423884
v -0.006342346353067949 0.1220437147844745 0.04928500469431836
v -0.08121957871564398 -0.04897795416478383 0.04682969792447388
v -0.08004406379150951 -0.05143115182144187 0.040483821135536335
v -0.0780195376807162 -0.05710051017943493 0.04536940047128433
v -0.08409191757275045 -0.04138197737608864 0.04787932321803815
v -0.08262061918832689 0.04090090176934788 0.049259396238182866
v -0.029073823947848475 0.11458395110689824 0.04535850058167132
v -0.07498340779304859 -0.06414396721018384 0.044941144299170836
v -0.061286873167129705 -0.08534042175538986 0.054801215926243346
v -0.05497189745838575 -0.09263734151183257 0.05506143181611677
v -0.0397568286076294 -0.10632657760340204 0.05348347924499991
v -0.03906728367400321 -0.1043335538606449 0.05862564660169884
v -0.019266008074646488 -0.11673862027102794 0.052365164067159166
v -0.07693942022429434 -0.06025951603115128 0.04002177168747563
v -0.06082109832502727 -0.08750656811638238 0.04901504654702595
v -0.05913211889963991 -0.0937850041493224 0.04044165014178085
v -0.0720993380413065 -0.08484412901798875 0.030726966734987232
v 0.03589211821891559 -0.12621094706614716 0.02109067525267422
v 0.025244338370493207 -0.12638515215661694 0.030910563611447246
v 0.021457113828771454 0.12298527686496749 0.04009932007753677
v 0.02208058528680988 0.12140252006537927 0.04713554376448702
v 0.03207258976609157 0.1200207418073006 0.041625093079365114
v 0.04654909653255446 -0.12087361659709658 0.0182664184203045
v 0.05725323024475071 -0.11518209550374614 0.01591442035346607
v 0.05227255000695068 -0.11619878353039584 0.021290011941140018
v 0.029852352855191392 -0.11852589923242812 0.060370036112208834
v 0.037462167802944535 -0.11716714120716387 0.05270778486385929
v 0.041236495045627194 -0.11532598654909225 0.057934635050629506
v 0.05529393426215826 -0.10997553234314414 0.04714037839157672
v 0.04599319579178157 -0.1138759561425346 0.05200300562971923
v 0.043411611611173 -0.1156745781780589 0.04650258133851909
v 0.0787621687585856 -0.10244126350697871 0.012172148328992832
v 0.08281159373928133 -0.09719424588723921 0.017016808333279905
v 0.0735703658357178 -0.1028866265705013 0.019930820220822223
v 0.028476082389349937 -0.11987976601872992 0.052069096877004166
v 0.02723090967363985 -0.12156476272809066 0.04510595024205649
v 0.034894181054676114 -0.11893177884882586 0.04726159267184175
v 0.04533339784106145 -0.11964158970250033 0.023488592804797735
v 0.09034893689733332 -0.09518079316374739 0.011754306570735302
v 0.09067353590084247 -0.09000263773679806 0.018483704373104197
v 0.051933870384761785 -0.11091090420843049 0.055755828647612186
v 0.06251962661196027 -0.10621279823930116 0.053354263054321754
v 0.06645441201351607 -0.10409205007390179 0.04727353418528254
v 0.09515851720383181 -0.09094339667020766 0.010061993216738684
v 0.10541496968982982 -0.07753652589483612 0.009488982275540214
v 0.10991939149162014 -0.07506842156682171 0.004972800931947115
v 0.10988534598127983 -0.07184921093211419 0.00965938115418705
v 0.04132869569182749 -0.12004441439998191 0.0296045520623391
v 0.11667330755620868 -0.06658125309343776 0.0030215108246094296
v 0.11479046730115197 -0.06667833070669182 0.007719457816409084
v 0.11368759468791237 -0.07090982703459281 0.0041343214990110875
v 0.0760991829385612 -0.09844235613318365 0.042779911258098116
v 0.0652729293469617 -0.10528773414005811 0.04178264737081066
v 0.0993504560840138 -0.08326858685913328 0.01309803840439285
v 0.10296843890814718 -0.08259754899039244 0.007277103179295035
v 0.09771636788754312 -0.08177525623280918 0.020962800787000493
v 0.09236191517341762 -0.08644929325438068 0.025233172325499584
v 0.04653739894276625 -0.11637233330449673 0.03426782039687246
v 0.05139539137019432 -0.11507628058960083 0.027488209674832207
v 0.05464235579916637 -0.11222063852317411 0.03422201377257607
v 0.11743288384681717 -0.06164333393353519 0.01159126149215974
v 0.1200837520617891 -0.06275476777105624 0.002608317191589863
v 0.06785757006705583 -0.10549363741500054 0.026989332355822054
v 0.07544230328606061 -0.10033005250261544 0.026341603137589972
v 0.06795895478877172 -0.10899751523941134 0.013803008490474921
v 0.061322766982422276 -0.11051733525829761 0.021785512154342303
v 0.13083478569914744 -0.05062679581527908 0.0011628655190206122
v 0.12925337650057647 -0.048721493766761395 0.006547350836124443
v 0.12794385262525387 -0.055321693381232544 0.0025406330647114875
v 0.032926966940103546 -0.12329250127474714 0.03183902152037935
v 0.11163486356873507 -0.06743968396150823 0.014653135260881063
v 0.13111864572576262 -0.04187002476244246 0.012341235366060589
v 0.13401023883521637 -0.04153021593358934 0.0047796760655789035
v 0.143062136829844 -0.006026757297090372 0.009361239804611815
v 0.14317937122931074 0.001215355609593895 0.012149016724914544
v 0.1427272922718339 -0.004642493149859797 0.015397872492491903
v 0.13908947517067458 -0.035582795242130455 -0.0002630258103720726
v 0.13674895329668232 -0.040646259623351826 0.0005719360778005181
v 0.13530134249813006 -0.036544609227568504 0.007351738518310026
v 0.08168458756256265 -0.09610027747326025 0.022902909857811595
v 0.08122387621099737 -0.09541584677244176 0.0304183036210183
v 0.07740301833072129 -0.09805027763102357 0.03636606860043506
v 0.08449963206201676 -0.09236533426635368 0.036723111556955776
v 0.1390509614847825 -0.025361976827037964 0.012671182248626041
v 0.1354914276734976 -0.03354577703920082 0.013107839975999258
v 0.1384990466318012 -0.029835825544310357 0.0062853627841353114
v 0.14267826501318953 0.000439880601472768 0.019639451486736414
v 0.14264350853999505 0.00842391008252225 0.016369765878545602
v 0.1218925061057375 -0.05320533554255962 0.020767270531264086
v 0.11792321934960501 -0.05790054846332909 0.027670769008722725
v 0.1155043862377211 -0.06149351790611821 0.02006168990223713
v 0.13407658503728084 -0.045962557710428106 0.0011336958266167268
v 0.12321790715643653 -0.056272237621544874 0.008239056148266201
v 0.0374528521029439 -0.11933331039596365 0.03917360500843454
v 0.025932502413444657 -0.12372986670710116 0.03790318741321186
v 0.12325345405700033 -0.05380464094515204 0.039060414230964395
v 0.1272895854941038 -0.04657287532252437 0.032208121249594
v 0.12985672240689955 -0.04467680856079301 0.03824682226758018
v 0.12207747233279735 -0.05327532424340458 0.031977441205685686
v 0.1171317958823931 -0.05958947770667691 0.0343191632464769
v 0.14136721498389201 0.03018647211608753 0.037026833789930304
v 0.13834106095864315 0.035385853800679073 0.03237849884441005
v 0.1378187958789892 0.040936050265779435 0.037792824885970244
v 0.04904964616331573 -0.1140781459287304 0.04031725836847995
v 0.11439345042520183 0.07693264491510525 0.013893100259752742
v 0.11569993030132968 0.07855469692255382 0.006046971767961665
v 0.11146680763206251 0.08186288812216902 0.006084094155260679
v 0.09829356544238281 0.0971418058253278 0.045310563075026795
v 0.1066872925016474 0.08790818399057888 0.044684825387465724
v 0.10092407255216412 0.09220614310132398 0.04113686845191559
v 0.05770529671396721 -0.10985280435911324 0.03975267145833916
v 0.08770328182780746 -0.09030424343544934 0.04106853421007482
v 0.09921200226268347 0.09244804881389962 0.035658695141616736
v 0.10795743109973341 0.08470483641988365 0.03849262605260982
v 0.11393390735087845 0.07871088430754637 0.04341628177513988
v 0.12066323756858877 0.06967680165795626 0.0419517264104273
v 0.11571352751401144 0.07527810702172182 0.0375151764919611
v 0.08945132749279872 -0.08840075240315333 0.03087493706975706
v 0.09672248296059309 -0.08158762897766245 0.028092565091922657
v 0.09447959454595349 -0.08353530638692433 0.03532500928562292
v 0.13020700701766708 0.05379684957603128 0.03504269235017626
v 0.1340642449866544 0.04547669101697246 0.030861344281643086
v 0.12920009148732065 0.05458091162049404 0.029360880208041
v 0.1035031159626282 -0.07429611026807746 0.029767798905120147
v 0.10817115560141412 -0.06901494213878266 0.03258362584720589
v 0.11090282777747304 -0.06677396996432515 0.035977697761918496
v 0.10324717989592241 -0.075260500363092 0.03686521062553294
v 0.10881649065493114 -0.07091796780774752 0.04075314931030489
v 0.10123561939149245 -0.07954576211880379 0.04199586827256349
v 0.0727821082447025 -0.10072636643860931 0.05087251329006039
v 0.14441091587755855 -0.0010254149172410345 0.004784877390714256
v 0.1459626517796346 -0.0063271487407765324 -0.0015710842474284813
v 0.1473102252642492 0.003817787953063897 -0.0018959248814839967
v 0.09320190347691207 -0.0886531347798299 0.042488236748872
v 0.08297902248372717 -0.09509179471174257 0.0479783800038606
v 0.10487688846399303 -0.07504193991176526 0.01627566343577463
v 0.11286362439466335 -0.06369879248626699 0.0317191200535303
v 0.12366555362912873 -0.05961298957068713 0.00320762231014397
v 0.14189114646416104 -0.025891163783492536 -0.0009479941413599041
v 0.13991874181957448 -0.024759588889104508 0.03816840883963511
v 0.13546693726762526 -0.035104811361373715 0.038086958249366046
v 0.13766909252748308 -0.02857922376435446 0.032494718428823066
v 0.13929894081205874 -0.02376237623512265 0.02667734063271692
v 0.14063277947336816 -0.01976361460242397 0.03238873877358746
v 0.1326538170879197 -0.037741180985566405 0.01958199780505886
v 0.13005439036387834 -0.041756493469522905 0.025910323952114466
v 0.12759157107893593 -0.045459143048273434 0.020015765709248037
v 0.13317014893688317 -0.03743247364247809 0.03143690252955606
v 0.10818739998631842 -0.06976278909018738 0.022101833929287964
v 0.14404880364311887 0.008658968223360807 0.00688433010436685
v 0.11102853549484776 -0.06585301043226222 0.027495589767289667
v 0.14438873115410272 -0.01609223034944448 -0.0014957563680477797
v 0.14392460221041076 -0.00839449165964735 0.003563866904574093
v 0.09927950577098885 -0.0869412987659141 0.008743072473292946
v 0.07293757325815615 -0.10153845629192869 0.03212924607030477
v 0.09600050400926217 -0.08325895839031357 0.039724773117287705
v 0.1459812792715347 0.01374550991543371 -0.0016345809812572637
v 0.14229003133815418 0.032644760699071594 -0.0005041979764043504
v 0.13998645116741384 0.04213285360879154 0.0003881509698140795
v 0.13906930274453072 0.036968219157811226 0.006155791207103434
v 0.038021522149330265 0.11776936165871828 0.04795200885335757
v 0.02968730294594908 0.11953827644815548 0.04943884014057397
v 0.03298038435483974 0.11836974417503776 0.054825705134041024
v 0.02757281577717391 0.12252075818364043 0.035482174740817184
v 0.02859778026754737 0.12385180906124241 0.029565576452163247
v 0.02019487925285274 0.12522919234416166 0.03388796762989423
v 0.13667428717987118 0.04485481817192119 0.005091976285621186
v 0.04370701726002809 0.1158484372093091 0.05283662533443772
v 0.03768590722153553 0.11723613602434632 0.060504000361364656
v 0.049888079468859176 0.11422960193687177 0.05806370937187961
v 0.14116791318369948 0.02950726660383378 0.005318648851115138
v 0.12726203230238414 0.057934184381232975 0.016111998774671656
v 0.13145460711444842 0.05087787923125675 0.014590817245100658
v 0.12980211347667395 0.05694826749230121 0.008423349804755167
v 0.13028492290855612 0.0617710689282295 0.0034434368943408932
v 0.12571462857058469 0.06514237358110454 0.007498160575874534
v 0.11970987684394258 0.07545785089637475 0.005332402465938748
v 0.12018497078993527 0.07143938417353655 0.009874067255402293
v 0.12411282482388858 0.07114117034799759 0.0045207810835223
v 0.07131934282329658 -0.10220916368263239 0.037814436115764086
v 0.06420765402926884 -0.10681610891725622 0.03451647336697147
v 0.038576087352280804 0.12108929051974987 0.026880182894184645
v 0.04255029625437835 0.1216142027747227 0.019954214572173418
v 0.030651162088485596 0.12550303649316902 0.02291086129526905
v 0.137492514236431 0.04756481753998174 0.0010257828034534358
v 0.13474851036949032 0.05217127598983949 0.000680173396166408
v 0.11933295575025868 0.0697639793484446 0.016395549560258484
v 0.10068589309031566 0.09160978588231321 0.015342582468009854
v 0.10779418860103407 0.08453918253361398 0.013654691632704923
v 0.1048133067025437 0.08954013733965935 0.008955194315495671
v 0.14117331995396484 -0.021548293574825295 0.0057593109134693515
v 0.1441097990293395 0.008224762002087117 0.036424758454535626
v 0.14383485472863947 -0.0027629707209859155 0.03700403909270074
v 0.1428115029441062 0.004789052653482622 0.031245588303744666
v 0.09715428514886719 0.09315185935703568 0.02270289540004175
v 0.10450516736897075 0.08686708471757437 0.021752624269076697
v 0.11674520413272911 0.07272675790781764 0.021833590115758323
v 0.1082955941096371 0.08308346133592796 0.027883253911642196
v 0.11403528926974836 0.07638348558092371 0.02785954196690813
v 0.11087857582222083 0.08003945832720871 0.02147706821330668
v 0.14255745490766997 -0.013482728289240548 0.00698299881637541
v 0.07599563595225119 0.10542996896644069 0.02865879566224891
v 0.08423999977876519 0.10118514614440179 0.02854415073316523
v 0.08114004833707454 0.10295935159091471 0.024181886558683165
v 0.0491330506712243 0.11761515320211383 0.024961581213424327
v 0.05962771821198826 0.11366969956636093 0.02297903213867883
v 0.054484931011870075 0.11718478497887104 0.017372817558710597
v 0.08703135643905288 -0.09125916923415787 0.025862586679110032
v 0.05501703899556591 0.11439264846370271 0.03174508968440811
v 0.05980715906769911 -0.1101547167028377 0.028830236198963872
v 0.06769150041833119 0.11015444088631814 0.021224353930411794
v 0.06632300622061092 0.11207503037629557 0.01510364419925654
v 0.09637436401797923 0.09726074448319746 0.011463393669051695
v 0.09295438299375636 0.09720066998490987 0.01751880728515614
v 0.12903287988806378 0.054504425330110545 0.02195744217080523
v 0.13356165883274299 0.04910737162460769 0.008435380933099774
v 0.13579240004277024 0.04243576479432706 0.012510136744874093
v 0.1425716557075059 0.013933194560778628 0.0330295557150291
v 0.14332308201772667 0.019244456182712453 0.03630524266725994
v 0.12393807455262092 0.06406713285834204 0.01347320123434541
v 0.140227104358063 0.025840770297427467 0.025842215465111444
v 0.1417961734734938 0.015001442209948155 0.02836688794831655
v 0.14164963072687703 0.01606533821857851 0.021125063440565986
v 0.10828451104959222 0.08556526974877397 0.007203412377825993
v 0.13353485018339284 0.046144671110651556 0.024810579218954687
v 0.12287086784034648 0.06423331163380806 0.021004872168713797
v 0.08284078210809437 0.10300450414033434 0.018857625809675392
v 0.09166944464032188 0.10099325997143027 0.012944632188677273
v 0.0784730289273954 0.10705307534069894 0.013697803114301986
v 0.12724160191481132 0.06042850335495307 0.04064929190237572
v 0.13300328349408425 0.05092061863617477 0.03888517261815836
v 0.12303826450480289 0.06490580957876138 0.03427072003565907
v 0.11684010266303727 0.0732224182934501 0.03253428926329869
v 0.08872694654272445 0.09872886841299099 0.02340236424720576
v 0.14251244861504125 -0.0017660848660294903 0.026434905833299223
v 0.14222364995713566 -0.008732153987100791 0.027925633266771985
v 0.14228134168167833 -0.008551345989986877 0.02151416183091107
v 0.0910342515482394 0.09855892058628941 0.04178146068420571
v 0.08583321023637266 0.1026266972459319 0.04953997692664108
v 0.10176431014575041 0.08962935939112623 0.02853657898076837
v 0.10602901497082019 0.08596326979404825 0.03297450749270996
v 0.13912533324927454 0.03211540973385549 0.013030014343614482
v 0.1417069067578102 0.02356722166254705 0.008743204157227446
v 0.13471773109493063 0.04538982997429155 0.03513341969727942
v 0.10125075715385438 0.09393179274092389 0.010490941639637957
v 0.04133095396975669 0.11766326466551326 0.042196845577366304
v 0.022906577496746922 0.12039852187115296 0.05427604145500934
v 0.1435208036716871 0.01708638814834269 0.005129061209455417
v 0.1444648575541045 0.023235717792376615 -0.0012753022704754258
v 0.025279864591993367 0.12016387763235091 0.06260961412367747
v 0.055609820229678655 0.11264025814217056 0.049332798208012174
v 0.061954788204022095 0.11060498197918305 0.05554174000969358
v 0.0658175903214135 0.10927319346359045 0.049144271822856044
v 0.05552745629871166 0.11342020474228254 0.0407016722862858
v 0.06410963920017757 0.11015683381946904 0.042824111549303
v 0.040443159507635655 0.1185682230421636 0.037374996429351784
v 0.0624594563347613 0.11120907476143631 0.03600771644421874
v 0.06630884542623681 0.10998599095887794 0.028333484633092154
v 0.07176279349615074 0.10727806417152579 0.036139831735590364
v 0.14140525339847848 -0.015324866078788194 0.026737836798972445
v 0.1419705709034708 -0.01258663287252625 0.03155680463097585
v 0.13237958378868828 0.056723212298169325 0.001570885466664949
v 0.035456675813141623 0.12062515304460383 0.0335285100651016
v 0.0445625717548437 0.11807336180311191 0.031882507143828176
v 0.047639358336271705 0.11632416956405078 0.03819276996391688
v 0.1421768916153136 -0.011493224612776931 0.013950228785368328
v 0.13716059477531461 -0.02936528773363279 0.020605485198161078
v 0.14114311350813402 -0.018178343008736473 0.0115644062593265
v 0.13651789014335847 -0.030811252061912875 0.027490639931320743
v 0.04726334794365334 0.11558434233834106 0.04539862257332093
v 0.14067859346786146 -0.01888818235622911 0.019155635782931463
v 0.07428204477125096 0.10668855384504791 0.022861129714312502
v 0.07382259102865857 0.10643474103465124 0.05293994791411349
v 0.08188849496421852 0.10270972266115067 0.0388760243151265
v 0.08100977421055439 0.10347955996922384 0.04568150640971426
v 0.07306040935038899 0.10666137389708441 0.04447939351221641
v 0.07990852809945573 0.10359209476615286 0.03311601620747516
v 0.10227768427547297 -0.07619733490412499 0.02365128212715405
v 0.12046907997979793 -0.056307260719571095 0.015222966429558662
v 0.12459433985546847 -0.049444373223309517 0.02652893054220293
v 0.142659575845179 -0.005785397102610974 0.032126996418306804
v 0.14266681887113844 -0.013797213559377236 0.03805891278863076
v 0.1196933744387697 0.06901976677164602 0.02785772364740647
v 0.1413250635330594 0.02311509613212517 0.03232854019418551
v 0.1373123207241392 0.037098362492560134 0.026095099229156038
v 0.1389632019020642 0.03137876096884143 0.02067917259017416
v 0.1366035783512435 0.03901268178368629 0.01963265279318766
v 0.11160018561876918 0.07981687629691214 0.033191092083067184
v 0.09051412547900685 0.09813278634791824 0.03602228726972688
v 0.08611326665017993 0.100446579675465 0.03329006113795849
v 0.10600983739538794 -0.07868557384242311 0.005588266641958278
v 0.11616765510002595 -0.06254308017087384 0.03959309976768012
v 0.1341191435390226 -0.03527653646086501 0.025109766077053383
v 0.07362971221921007 0.10780614062016797 0.018141947434848853
v 0.14237476306232638 0.007148463953370846 0.024246741918033894
v 0.14065655334651395 0.02403457891541376 0.017199937287897645
v 0.13342233026556213 0.04637490879438622 0.018945705474941166
v 0.1422368244315167 0.016316183552131942 0.012677808596818094
v 0.12533659656790982 -0.05011181360092415 0.01411863918103085
v 0.12479328425591658 0.061618727736459454 0.027213194504301243
v 0.12730182411548405 0.06641060065702213 0.0038590117371602142
v 0.09294509912874593 0.09619768508826498 0.0297059922501587
f 1 2 3
f 4 5 6
f 7 8 9
f 10 11 12
f 13 14 15
f 16 17 18
f 19 20 21
f 22 23 24
f 25 26 27
f 28 29 30
f 31 32 33
f 34 35 36
f 37 38 39
f 32 40 41
f 42 43 44
f 45 46 47
f 48 49 50
f 38 51 47
f 52 14 53
f 54 34 27
f 55 56 57
f 44 58 59
f 60 61 62
f 51 38 37
f 63 64 65
f 66 67 68
f 69 66 70
f 71 72 73
f 74 66 69
f 63 75 76
f 77 78 79
f 70 80 81
f 82 80 83
f 52 71 15
f 14 52 15
f 84 85 86
f 82 87 16
f 88 15 79
f 7 89 90
f 79 71 77
f 70 81 91
f 92 71 73
f 44 59 93
f 56 94 57
f 82 95 87
f 96 97 98
f 99 67 66
f 100 97 281
f 508 101 511
f 102 103 104
f 100 281 427
f 105 73 106
f 107 108 109
f 110 111 112
f 97 282 281
f 113 107 114
f 115 116 117
f 118 110 119
f 26 120 121
f 122 123 124
f 125 118 126
f 40 127 41
f 128 45 82
f 129 130 113
f 131 132 133
f 95 82 83
f 134 83 80
f 20 135 136
f 68 80 70
f 80 82 81
f 128 82 16
f 14 13 137
f 138 87 95
f 139 140 10
f 141 52 53
f 66 74 99
f 142 143 144
f 137 53 14
f 145 146 147
f 11 142 137
f 19 11 148
f 147 149 43
f 150 144 143
f 88 124 13
f 12 139 10
f 13 124 123
f 131 139 132
f 151 150 152
f 85 87 138
f 38 47 34
f 153 154 155
f 156 157 158
f 149 159 43
f 160 161 296
f 32 50 40
f 58 162 61
f 161 158 157
f 149 147 146
f 104 163 60
f 164 280 165
f 166 167 164
f 102 104 60
f 168 169 170
f 159 162 44
f 17 87 85
f 169 171 172
f 173 155 154
f 174 171 175
f 176 177 178
f 60 58 61
f 172 171 179
f 180 24 1
f 98 100 2
f 181 182 183
f 184 185 186
f 101 125 126
f 142 11 19
f 187 188 189
f 97 96 190
f 182 191 183
f 192 127 49
f 10 148 11
f 140 193 194
f 49 195 192
f 49 48 196
f 33 32 41
f 42 44 197
f 198 50 32
f 31 33 199
f 127 40 49
f 12 11 137
f 49 184 195
f 7 25 89
f 200 201 169
f 13 123 12
f 155 173 193
f 202 203 204
f 122 139 123
f 13 12 137
f 205 206 207
f 113 114 208
f 88 13 15
f 153 209 210
f 12 123 139
f 139 131 140
f 169 191 200
f 211 109 108
f 212 213 180
f 44 162 58
f 214 215 216
f 214 216 115
f 217 206 202
f 218 215 219
f 110 118 125
f 220 114 107
f 145 133 146
f 221 167 222
f 223 224 72
f 67 134 68
f 30 225 226
f 280 164 227
f 47 91 45
f 84 86 119
f 297 157 356
f 75 69 76
f 157 297 161
f 225 222 167
f 116 177 228
f 176 229 230
f 231 230 232
f 160 158 161
f 287 232 160
f 230 160 232
f 296 287 160
f 161 297 296
f 157 156 226
f 86 85 138
f 233 117 116
f 225 199 222
f 234 235 231
f 197 153 42
f 4 136 135
f 165 157 166
f 139 122 132
f 142 53 137
f 20 19 148
f 19 21 142
f 111 110 236
f 84 110 237
f 126 511 101
f 110 125 236
f 190 508 282
f 236 125 101
f 98 23 96
f 190 236 101
f 2 100 427
f 97 100 98
f 3 2 427
f 2 1 24
f 110 84 119
f 84 237 90
f 44 43 159
f 147 43 42
f 155 42 153
f 131 145 140
f 145 131 133
f 155 147 42
f 225 166 226
f 31 225 238
f 164 167 221
f 225 167 166
f 227 164 221
f 280 356 165
f 225 31 199
f 32 31 238
f 80 68 134
f 66 68 70
f 59 239 93
f 240 205 207
f 241 21 6
f 242 143 5
f 508 190 101
f 282 97 190
f 154 210 217
f 145 147 155
f 157 165 356
f 166 164 165
f 44 93 197
f 153 197 93
f 243 135 20
f 148 10 194
f 210 154 153
f 154 244 173
f 245 209 93
f 206 205 203
f 246 244 243
f 145 193 140
f 140 194 10
f 194 246 20
f 148 194 20
f 194 173 246
f 173 244 246
f 243 244 202
f 155 193 145
f 194 193 173
f 46 18 247
f 237 112 7
f 129 208 240
f 130 248 107
f 249 187 250
f 219 214 251
f 252 253 254
f 229 178 28
f 99 74 152
f 255 223 141
f 63 65 75
f 71 92 256
f 26 9 257
f 22 8 23
f 234 233 228
f 28 156 229
f 230 231 235
f 160 230 158
f 223 258 75
f 151 74 255
f 24 180 213
f 2 24 98
f 229 156 158
f 226 156 28
f 230 229 158
f 229 176 178
f 226 28 30
f 157 226 166
f 128 16 18
f 45 128 46
f 39 38 36
f 82 45 81
f 94 56 259
f 91 81 45
f 47 46 34
f 47 51 91
f 34 247 27
f 54 35 34
f 63 91 51
f 63 76 91
f 36 38 34
f 37 39 260
f 260 261 37
f 259 37 261
f 51 37 64
f 56 55 65
f 106 65 55
f 224 65 73
f 69 70 76
f 91 76 70
f 6 5 143
f 136 6 21
f 236 190 96
f 112 111 262
f 262 111 96
f 236 96 111
f 23 8 262
f 110 112 237
f 8 112 262
f 120 257 212
f 29 28 178
f 238 225 30
f 163 239 59
f 263 264 265
f 93 239 245
f 264 263 245
f 264 245 239
f 245 266 209
f 150 143 242
f 241 143 142
f 152 150 242
f 144 150 267
f 141 144 267
f 53 142 144
f 21 241 142
f 6 143 241
f 243 202 204
f 217 202 244
f 135 243 204
f 246 243 20
f 154 217 244
f 217 210 206
f 209 207 210
f 129 207 266
f 206 203 202
f 207 206 210
f 6 136 4
f 21 20 136
f 27 26 121
f 268 7 9
f 54 27 121
f 34 46 247
f 46 128 18
f 25 27 247
f 16 87 17
f 25 247 18
f 129 113 208
f 107 113 130
f 248 265 269
f 218 220 109
f 215 218 109
f 215 270 271
f 249 271 187
f 272 273 249
f 117 251 115
f 177 116 254
f 249 273 216
f 254 116 273
f 178 177 274
f 176 235 177
f 253 198 238
f 254 272 252
f 53 144 141
f 52 72 71
f 255 141 267
f 72 52 141
f 73 72 224
f 77 71 256
f 151 255 267
f 74 69 258
f 106 73 65
f 92 73 105
f 213 212 257
f 24 213 22
f 235 234 228
f 230 235 176
f 150 151 267
f 152 74 151
f 51 64 63
f 64 37 259
f 65 64 56
f 56 64 259
f 72 141 223
f 75 65 224
f 255 74 258
f 75 224 223
f 18 89 25
f 89 17 90
f 90 17 85
f 18 17 89
f 84 90 85
f 7 90 237
f 209 153 93
f 207 209 266
f 207 129 240
f 129 266 263
f 264 163 275
f 108 269 170
f 175 171 104
f 275 269 265
f 215 214 219
f 115 216 273
f 276 187 271
f 185 184 182
f 200 188 276
f 277 188 200
f 214 115 251
f 116 115 273
f 249 216 271
f 272 249 250
f 272 250 252
f 273 272 254
f 48 252 250
f 198 252 50
f 274 177 254
f 30 29 238
f 274 29 178
f 253 238 29
f 254 253 274
f 29 274 253
f 116 228 233
f 235 228 177
f 238 198 32
f 252 198 253
f 88 79 78
f 15 71 79
f 75 258 69
f 255 258 223
f 265 248 130
f 108 248 269
f 263 265 130
f 275 265 264
f 129 263 130
f 263 266 245
f 211 108 201
f 248 108 107
f 276 211 201
f 270 215 109
f 264 239 163
f 170 275 168
f 59 58 60
f 168 275 163
f 102 60 62
f 59 60 163
f 215 271 216
f 276 271 270
f 211 276 270
f 276 201 200
f 201 170 169
f 183 191 278
f 277 196 189
f 187 276 188
f 169 168 171
f 191 172 278
f 107 109 220
f 109 211 270
f 175 104 103
f 163 104 168
f 108 170 201
f 170 269 275
f 104 171 168
f 179 171 174
f 96 23 262
f 24 23 98
f 9 8 22
f 112 8 7
f 9 22 213
f 268 26 25
f 7 268 25
f 9 26 268
f 26 257 120
f 213 257 9
f 196 48 189
f 196 277 184
f 252 48 50
f 189 48 250
f 187 189 250
f 277 189 188
f 191 182 277
f 195 184 186
f 50 49 40
f 184 49 196
f 200 191 277
f 191 169 172
f 185 182 181
f 277 182 184
f 227 279 280
f 281 282 283
f 284 285 286
f 287 288 289
f 290 291 292
f 293 294 295
f 296 297 298
f 284 286 299
f 294 300 301
f 291 290 302
f 303 290 304
f 305 301 300
f 306 307 308
f 290 303 302
f 279 299 309
f 310 311 312
f 313 304 314
f 315 316 306
f 288 291 289
f 293 300 294
f 301 317 318
f 319 320 321
f 322 311 323
f 324 295 325
f 326 295 327
f 328 329 330
f 309 331 279
f 308 311 332
f 333 329 334
f 327 286 285
f 335 336 337
f 338 334 339
f 338 340 334
f 325 341 342
f 343 342 344
f 345 346 347
f 348 336 349
f 350 351 352
f 299 320 309
f 329 353 334
f 320 299 286
f 308 312 311
f 330 329 354
f 284 299 279
f 347 340 338
f 331 355 356
f 296 288 287
f 357 358 359
f 331 356 280
f 360 357 361
f 362 363 364
f 290 292 365
f 355 297 356
f 366 367 368
f 369 370 371
f 372 290 365
f 313 344 373
f 374 371 375
f 302 289 291
f 376 377 378
f 379 380 381
f 382 383 384
f 315 317 301
f 380 385 381
f 386 387 388
f 389 390 388
f 304 313 391
f 392 393 394
f 373 395 396
f 295 341 325
f 317 315 397
f 351 361 398
f 360 358 357
f 354 323 399
f 347 338 400
f 401 402 403
f 404 405 403
f 406 407 408
f 359 358 409
f 352 410 332
f 392 394 411
f 410 352 412
f 413 393 414
f 315 305 415
f 416 342 343
f 417 373 381
f 394 418 411
f 313 373 396
f 419 420 421
f 422 423 424
f 425 426 427
f 421 420 428
f 429 430 431
f 419 421 432
f 433 434 435
f 288 296 298
f 292 291 288
f 436 437 435
f 438 439 440
f 290 372 314
f 355 319 365
f 439 367 366
f 441 442 416
f 439 437 440
f 443 444 445
f 446 447 428
f 366 448 439
f 393 392 414
f 449 450 451
f 452 345 347
f 453 454 455
f 456 457 449
f 336 411 349
f 366 458 448
f 459 460 461
f 462 452 413
f 326 293 295
f 463 464 465
f 466 467 468
f 379 342 469
f 318 469 301
f 470 467 466
f 320 471 321
f 467 472 473
f 414 335 462
f 474 475 449
f 326 327 285
f 433 476 434
f 477 434 478
f 479 480 453
f 433 435 481
f 482 483 484
f 447 477 428
f 485 450 368
f 486 384 383
f 487 433 481
f 488 489 490
f 491 492 382
f 378 493 494
f 456 475 495
f 496 497 498
f 474 489 475
f 499 500 369
f 428 478 421
f 459 501 502
f 432 503 504
f 505 492 364
f 506 449 451
f 281 425 427
f 341 294 301
f 320 327 471
f 3 427 426
f 283 282 423
f 391 303 304
f 391 313 396
f 507 283 422
f 341 469 342
f 282 508 423
f 509 510 504
f 499 369 371
f 426 443 445
f 336 392 411
f 424 511 430
f 512 513 514
f 515 512 516
f 290 314 304
f 283 507 517
f 286 327 320
f 518 519 470
f 519 518 520
f 443 466 444
f 510 419 432
f 294 341 295
f 521 522 405
f 381 373 344
f 435 447 523
f 426 425 524
f 524 425 283
f 283 425 281
f 426 524 443
f 426 445 3
f 525 524 517
f 443 524 525
f 525 526 470
f 444 466 468
f 424 423 508
f 283 423 422
f 511 424 508
f 424 430 429
f 301 469 341
f 469 318 379
f 344 313 343
f 441 313 314
f 335 527 462
f 392 336 335
f 346 345 528
f 400 452 347
f 413 452 400
f 529 462 527
f 529 452 462
f 530 528 404
f 327 324 471
f 416 325 342
f 279 331 280
f 355 331 309
f 319 355 309
f 298 355 292
f 355 298 297
f 292 288 298
f 507 422 531
f 526 525 517
f 515 518 470
f 489 488 475
f 443 525 466
f 466 525 470
f 335 414 392
f 413 414 462
f 529 527 532
f 452 529 345
f 295 324 327
f 324 325 416
f 321 471 442
f 442 471 324
f 343 313 441
f 416 442 324
f 321 442 372
f 314 372 442
f 320 319 309
f 365 319 321
f 372 365 321
f 355 365 292
f 283 517 524
f 526 517 507
f 516 518 515
f 470 519 467
f 472 519 533
f 473 468 467
f 513 534 514
f 535 536 499
f 515 470 526
f 520 518 516
f 531 526 507
f 429 512 531
f 516 537 520
f 533 465 488
f 531 512 515
f 431 513 512
f 516 514 537
f 520 538 463
f 536 537 534
f 520 537 535
f 531 515 526
f 429 531 422
f 534 500 536
f 536 500 499
f 429 422 424
f 512 429 431
f 380 317 539
f 539 410 385
f 322 354 540
f 407 358 541
f 528 532 404
f 529 532 345
f 542 543 522
f 401 405 543
f 486 476 384
f 460 544 458
f 483 545 479
f 546 547 548
f 377 491 493
f 375 378 549
f 370 376 375
f 535 550 551
f 305 315 301
f 539 317 397
f 415 316 315
f 316 552 306
f 410 539 397
f 380 539 385
f 332 410 397
f 412 352 351
f 388 381 385
f 317 380 318
f 395 417 390
f 379 381 344
f 332 397 308
f 352 332 322
f 397 315 306
f 312 308 307
f 387 553 389
f 410 412 385
f 307 306 552
f 397 306 308
f 540 350 352
f 412 398 386
f 360 351 541
f 398 412 351
f 360 541 358
f 361 357 553
f 408 541 350
f 409 402 359
f 361 553 387
f 351 360 361
f 406 554 407
f 530 403 409
f 406 346 528
f 409 554 530
f 358 407 409
f 409 407 554
f 447 435 477
f 481 448 487
f 490 473 555
f 538 464 463
f 459 457 501
f 461 450 457
f 496 556 455
f 484 557 482
f 446 428 420
f 478 428 477
f 558 548 478
f 547 503 548
f 486 548 558
f 547 482 557
f 411 509 559
f 478 548 503
f 547 546 482
f 547 557 503
f 363 482 546
f 480 545 362
f 503 557 504
f 478 503 421
f 559 504 557
f 504 559 509
f 333 346 406
f 347 346 340
f 442 441 314
f 343 441 416
f 537 514 534
f 512 514 516
f 388 390 417
f 386 388 385
f 412 386 385
f 361 387 398
f 354 399 330
f 333 406 408
f 541 408 407
f 333 408 560
f 329 333 560
f 333 340 346
f 329 560 354
f 353 329 328
f 540 354 560
f 354 322 323
f 350 540 560
f 322 540 352
f 408 350 560
f 351 350 541
f 339 334 353
f 333 334 340
f 409 403 402
f 403 530 404
f 532 498 521
f 335 337 527
f 556 348 349
f 521 498 497
f 405 401 403
f 405 404 521
f 528 530 554
f 521 404 532
f 498 532 527
f 522 521 497
f 522 497 542
f 543 405 522
f 382 492 505
f 493 382 384
f 383 505 363
f 546 548 486
f 486 558 476
f 546 486 383
f 363 362 545
f 383 363 546
f 493 378 377
f 378 494 549
f 382 493 491
f 493 384 561
f 375 371 370
f 499 371 374
f 378 375 376
f 460 459 549
f 550 499 374
f 538 520 535
f 373 417 395
f 388 417 381
f 379 344 342
f 380 379 318
f 323 311 310
f 332 311 322
f 478 434 558
f 435 434 477
f 523 436 435
f 436 562 437
f 487 458 544
f 487 561 476
f 434 476 558
f 487 476 433
f 501 456 563
f 449 457 450
f 479 453 455
f 545 483 482
f 556 484 483
f 559 484 349
f 479 545 480
f 363 545 482
f 503 432 421
f 510 432 504
f 484 559 557
f 411 559 349
f 411 418 509
f 510 509 418
f 388 387 389
f 398 387 386
f 484 556 349
f 483 479 455
f 336 348 337
f 496 498 348
f 527 337 498
f 498 337 348
f 406 528 554
f 532 528 345
f 363 505 364
f 382 505 383
f 494 493 544
f 544 493 561
f 461 458 366
f 456 501 457
f 374 563 550
f 563 464 551
f 536 535 537
f 550 535 499
f 440 437 562
f 481 435 437
f 448 481 439
f 458 487 448
f 476 561 384
f 544 561 487
f 542 455 454
f 455 556 483
f 542 454 543
f 496 542 497
f 460 549 494
f 502 549 459
f 544 460 494
f 461 460 458
f 450 461 366
f 457 459 461
f 563 374 501
f 375 502 374
f 556 496 348
f 542 496 455
f 502 375 549
f 501 374 502
f 439 481 437
f 367 439 438
f 368 450 366
f 451 450 485
f 474 449 506
f 456 449 475
f 463 533 519
f 555 488 490
f 519 472 467
f 555 472 533
f 520 463 519
f 551 464 538
f 563 495 464
f 495 488 465
f 535 551 538
f 563 551 550
f 456 495 563
f 488 495 475
f 472 555 473
f 488 555 533
f 463 465 533
f 495 465 464
