# https://github.com/mikedh/trimesh
v -0.01216633 0.00914496 -0.27940565
v -0.01239838 0.00841364 -0.27973336
v -0.01241379 0.01257353 -0.27977043
v -0.01226845 -0.00841452 -0.27954960
v -0.01226911 -0.00846567 -0.27955079
v -0.01242818 -0.00824792 -0.27977043
v -0.01248830 0.00004690 -0.27984506
v -0.01251729 0.00003612 -0.27988485
v -0.01251730 0.00816500 -0.27988467
v -0.01249800 0.01436425 -0.27987099
v -0.01251082 0.01527920 -0.27988499
v -0.01249163 0.01538414 -0.27987456
v -0.01245593 0.01589596 -0.27988535
v -0.01238174 0.01629621 -0.27988607
v -0.01241024 0.01616364 -0.27988583
v -0.01238227 0.01629390 -0.27988607
v -0.01236688 0.01618654 -0.27981439
v -0.01227238 0.01667540 -0.27982432
v -0.01219724 0.01591620 -0.27949968
v -0.01223779 0.01677062 -0.27979049
v -0.01204798 0.01718279 -0.27953815
v -0.01237959 0.01630545 -0.27988598
v -0.01237742 0.01631470 -0.27988586
v -0.01238618 0.01626730 -0.27988124
v -0.01235914 0.01638849 -0.27988207
v -0.01238809 0.01626829 -0.27988601
v -0.01238326 0.01628955 -0.27988607
v -0.01239720 0.01622669 -0.27988592
v -0.01238281 0.01629159 -0.27988607
v -0.01242467 0.01608812 -0.27988568
v -0.01241033 0.01614255 -0.27988017
v -0.01251209 0.01429121 -0.27988175
v -0.01251730 0.01418156 -0.27988496
v -0.01251729 0.01498157 -0.27988467
v -0.01251730 -0.01215814 -0.27988526
v -0.01251372 -0.01217440 -0.27988195
v -0.01251730 -0.01419074 -0.27988583
v -0.01251361 -0.01420880 -0.27988341
v -0.01251730 -0.01490851 -0.27988544
v -0.01251080 -0.01520591 -0.27988580
v -0.01238326 -0.01621638 -0.27988690
v -0.01239582 -0.01613001 -0.27988681
v -0.01240156 -0.01609052 -0.27988672
v -0.01241993 -0.01596419 -0.27988654
v -0.01238094 -0.01622641 -0.27988690
v -0.01238268 -0.01621890 -0.27988693
v -0.01238884 -0.01619139 -0.27988681
v -0.01238958 -0.01618822 -0.27988684
v -0.01239465 -0.01616469 -0.27988669
v -0.01237955 -0.01623242 -0.27988687
v -0.01219047 -0.01681967 -0.27974200
v -0.01229758 -0.01653014 -0.27984992
v -0.01233741 -0.01580562 -0.27971137
v -0.01231599 -0.01647072 -0.27986279
v -0.01237021 -0.01622227 -0.27985844
v -0.01236801 -0.01628048 -0.27988550
v -0.01240468 -0.01610268 -0.27988207
v -0.01241050 -0.01597087 -0.27985424
v -0.01245636 -0.01546253 -0.27984601
v -0.01246140 -0.01443680 -0.27983606
v -0.01234072 -0.01478474 -0.27969149
v -0.01245219 -0.01237943 -0.27981555
v -0.01232049 -0.01265053 -0.27964777
v -0.01232076 -0.01267586 -0.27964833
v -0.01234056 -0.01475318 -0.27969089
v -0.01223514 -0.00567689 -0.27948976
v -0.01239303 0.00006856 -0.27971071
v -0.01218268 0.01301977 -0.27945462
v -0.01242144 0.01464493 -0.27979136
v -0.01241538 0.01567671 -0.27980340
v -0.01244883 0.01589128 -0.27987817
v -0.01243374 0.01603706 -0.27988559
v -0.01239617 -0.01615790 -0.27988675
v -0.01239668 -0.01615567 -0.27988675
v -0.01245670 -0.01571134 -0.27988619
v -0.01249832 -0.01542499 -0.27988574
v -0.01249870 -0.01527358 -0.27987975
v -0.01250484 -0.01425500 -0.27987695
v -0.01250296 -0.01221593 -0.27987146
v -0.01249677 -0.00813303 -0.27985960
v -0.01251730 -0.00809316 -0.27988508
v -0.01243469 -0.01586263 -0.27988639
v -0.01249622 0.01232211 -0.27986488
v -0.01251729 0.01222953 -0.27988464
v -0.01249134 0.00823305 -0.27985367
v -0.01199231 0.01727692 -0.27944332
v -0.01184936 0.01748458 -0.27914923
v -0.01188769 0.01561200 -0.27897257
v -0.01167226 0.01769780 -0.27833632
v -0.01167226 0.01569039 -0.27833638
v -0.01171719 0.01764534 -0.27873191
v -0.01177739 0.01757491 -0.27895483
v -0.01194984 -0.01309473 -0.27907950
v -0.01191057 -0.00871774 -0.27898884
v -0.01187764 0.01341918 -0.27894217
v -0.01196572 -0.01526867 -0.27912202
v -0.01206890 -0.01707165 -0.27957249
v -0.01185689 -0.01740138 -0.27916825
v -0.01177298 -0.01750695 -0.27894220
v -0.01167214 -0.01762467 -0.27833727
v -0.01167215 -0.01540363 -0.27833721
v -0.01167217 -0.01318269 -0.27833715
v -0.01167218 -0.00874064 -0.27833703
v -0.01167221 0.00014333 -0.27833679
v -0.01185265 0.00012333 -0.27886575
v -0.01167223 0.00902739 -0.27833655
v -0.01185731 0.00900370 -0.27888781
v -0.01167225 0.01346937 -0.27833644
v -0.01058800 -0.02751152 -0.17174563
v -0.01054155 -0.02843272 -0.17241430
v -0.01036421 -0.02753564 -0.17616919
v -0.01061334 0.02271566 -0.17145109
v -0.01047309 0.02036069 -0.17360009
v -0.01035396 0.02741241 -0.17689012
v -0.01054388 0.02849443 -0.17244186
v -0.01059029 0.02756997 -0.17176971
v -0.01064064 0.02664567 -0.17109761
v -0.01065897 0.02626954 -0.17086445
v -0.01068213 0.02544368 -0.17057726
v -0.01068388 0.02531605 -0.17055580
v -0.01068370 0.02444187 -0.17055710
v -0.01068189 0.02431374 -0.17057897
v -0.01067833 0.02415654 -0.17062238
v -0.01064944 0.02331212 -0.17098169
v -0.01061386 0.02272253 -0.17144416
v -0.01038998 0.01789637 -0.17544065
v -0.01036190 0.01631199 -0.17644235
v -0.01034653 0.02615098 -0.18136844
v -0.01034750 0.01477084 -0.17729796
v -0.01034263 0.01373143 -0.17781445
v -0.01033932 0.01110425 -0.17892042
v -0.01034076 0.00837780 -0.17978950
v -0.01034116 0.00780765 -0.17993788
v -0.01034274 0.00499967 -0.18050928
v -0.01034336 0.00287325 -0.18077143
v -0.01034353 0.00002383 -0.18089774
v -0.01034337 -0.00131390 -0.18086880
v -0.01034999 -0.02559592 -0.18310276
v -0.01034249 -0.00416831 -0.18061946
v -0.01034211 -0.00495908 -0.18050452
v -0.01034183 -0.00544877 -0.18042319
v -0.01033991 -0.00823855 -0.17980751
v -0.01033948 -0.00883880 -0.17964031
v -0.01033858 -0.01036901 -0.17915611
v -0.01033841 -0.01109897 -0.17889489
v -0.01034597 -0.01472582 -0.17728378
v -0.01036141 -0.01639999 -0.17634684
v -0.01033883 -0.01229115 -0.17842440
v -0.01033938 -0.02648984 -0.17994021
v -0.01037199 -0.02462967 -0.18665175
v -0.01041099 0.02373373 -0.19042572
v -0.01042509 -0.02340441 -0.19151476
v -0.01050512 -0.02233097 -0.19640079
v -0.01055967 0.02178995 -0.19959453
v -0.01056007 0.02178510 -0.19962160
v -0.01056894 -0.02160952 -0.20023431
v -0.01066256 0.02072294 -0.20650533
v -0.01059711 -0.02131626 -0.20197523
v -0.01067557 -0.02057254 -0.20711929
v -0.01083261 -0.01921082 -0.22358663
v -0.01074125 0.01996306 -0.21342476
v -0.01074224 -0.01990842 -0.21326052
v -0.01071073 -0.02024074 -0.20993114
v -0.01090260 0.01899556 -0.23072147
v -0.01086311 0.01913728 -0.22686744
v -0.01080333 0.01946654 -0.22014299
v -0.01086343 -0.01905229 -0.22722815
v -0.01090742 -0.01890254 -0.23143856
v -0.01108129 0.01887565 -0.23458479
v -0.01110735 -0.01879478 -0.23493074
v -0.01129808 0.01879559 -0.23760808
v -0.01128191 -0.01874233 -0.23760720
v -0.01133891 -0.01857811 -0.24308276
v -0.01147741 0.01821680 -0.25897577
v -0.01136120 0.01857703 -0.24580891
v -0.01149678 -0.01808704 -0.26105610
v -0.01135500 0.01859839 -0.24500951
v -0.01134803 0.01862210 -0.24411704
v -0.01164840 0.01775569 -0.27612969
v -0.01162538 0.01781354 -0.27392602
v -0.01155049 0.01801226 -0.26645303
v -0.01040422 -0.01850651 -0.17496742
v -0.01049165 -0.02074377 -0.17321733
v -0.01054671 -0.02172159 -0.17234442
v -0.01061154 -0.02266322 -0.17142980
v -0.01061204 -0.02266995 -0.17142300
v -0.01061406 -0.02269713 -0.17139603
v -0.01062190 -0.02280940 -0.17129181
v -0.01064940 -0.02331125 -0.17093462
v -0.01065618 -0.02347246 -0.17084828
v -0.01067615 -0.02556301 -0.17059621
v -0.01067330 -0.02569052 -0.17063141
v -0.01068055 -0.02435408 -0.17054318
v -0.01068336 -0.02469315 -0.17050828
v -0.01064385 -0.02648295 -0.17100236
v -0.01063805 -0.02659050 -0.17107700
v -0.01547342 -0.02847359 -0.17234357
v -0.01633646 -0.02813783 -0.17208035
v -0.01676300 -0.02792573 -0.17191651
v -0.01784606 -0.02719478 -0.17136651
v -0.01850403 -0.02659418 -0.17091958
v -0.01897892 -0.02605771 -0.17060010
v -0.01954374 -0.02524139 -0.17035560
v -0.02000815 -0.02435844 -0.17035627
v -0.01546150 0.02853527 -0.17237142
v -0.01634679 0.02819277 -0.17210306
v -0.01743085 0.02758793 -0.17164034
v -0.01811839 0.02705504 -0.17124166
v -0.01855340 0.02664923 -0.17093915
v -0.02009757 0.02431788 -0.17038967
v -0.01975747 0.02501556 -0.17034547
v -0.01922333 0.02586080 -0.17051584
v -0.02110397 0.01835226 -0.17491594
v -0.02128725 0.01598475 -0.17641807
v -0.02089293 0.02037100 -0.17338569
v -0.01568303 0.02036485 -0.17349371
v -0.02158436 0.00821307 -0.17961223
v -0.02151786 0.01089501 -0.17877692
v -0.02142175 0.01349227 -0.17770852
v -0.02165587 -0.00012733 -0.18067278
v -0.02164857 0.00268046 -0.18056445
v -0.02162632 0.00546773 -0.18020950
v -0.02164814 -0.00293391 -0.18053433
v -0.02157690 -0.00845630 -0.17952523
v -0.02162240 -0.00571752 -0.18015164
v -0.02150527 -0.01112895 -0.17866088
v -0.02140074 -0.01371562 -0.17756833
v -0.02125587 -0.01619487 -0.17625374
v -0.02106100 -0.01854579 -0.17472713
v -0.02081701 -0.02075273 -0.17300512
v -0.01548479 -0.02330666 -0.17083691
v -0.01533843 -0.02396890 -0.17054832
v -0.01553934 -0.02245220 -0.17154755
v -0.02009079 -0.02417028 -0.17039183
v -0.02038732 -0.02335733 -0.17070147
v -0.02054175 -0.02270382 -0.17119633
v -0.01549763 0.02338811 -0.17083637
v -0.01555962 0.02246431 -0.17160626
v -0.01555057 0.02067768 -0.17323540
v -0.02087260 0.02054210 -0.17324406
v -0.02040391 0.02348597 -0.17067675
v -0.02057379 0.02275858 -0.17121337
v -0.01412441 -0.02881243 -0.17261630
v -0.01238419 -0.02900667 -0.17279284
v -0.01083987 -0.02900641 -0.17282408
v -0.01074737 -0.02899681 -0.17281878
v -0.01058602 -0.02892470 -0.17276993
v -0.01047701 -0.02879070 -0.17267510
v -0.01045154 -0.02870092 -0.17261052
v -0.01045373 -0.02860710 -0.17254250
v -0.01048884 -0.02850640 -0.17246906
v -0.01394877 0.02890445 -0.17267029
v -0.01049407 0.02888023 -0.17272294
v -0.01053371 0.02893543 -0.17276207
v -0.01067124 0.02903336 -0.17283042
v -0.01238296 0.02906792 -0.17282081
v -0.01047497 0.02860309 -0.17252196
v -0.01045686 0.02866551 -0.17256780
v -0.01084251 0.02906771 -0.17285199
v -0.01045911 0.02879068 -0.17265865
v -0.01289163 -0.01561156 -0.28028229
v -0.01278097 -0.01630574 -0.28028446
v -0.01324673 -0.01630575 -0.28027534
v -0.01278097 0.01637892 -0.28028360
v -0.01289155 0.01568539 -0.28028145
v -0.01324946 0.01637891 -0.28027445
v -0.01292510 0.01498308 -0.28028083
v -0.01378433 0.01180504 -0.28026411
v -0.01292510 -0.01490850 -0.28028160
v -0.01389115 -0.01076564 -0.28026262
v -0.01416308 -0.00794455 -0.28025723
v -0.01432948 -0.00568750 -0.28025389
v -0.01443168 -0.00373510 -0.28025186
v -0.01450468 0.00106111 -0.28025031
v -0.01428865 0.00635559 -0.28025436
v -0.01301385 0.01837820 -0.27833018
v -0.01195756 0.01837821 -0.27835086
v -0.01197764 0.01835026 -0.27863520
v -0.01303275 0.01824979 -0.27898523
v -0.01211567 0.01815267 -0.27922052
v -0.01236871 0.01770207 -0.27979127
v -0.01307475 0.01791331 -0.27956048
v -0.01260477 0.01709542 -0.28015417
v -0.01313431 0.01740575 -0.27999288
v -0.01320482 0.01678120 -0.28023443
v -0.01191279 0.01849180 -0.27394071
v -0.01277502 0.01909822 -0.25135016
v -0.01165119 0.01926727 -0.24502492
v -0.01176985 0.01888975 -0.25899148
v -0.01297062 0.01850061 -0.27357763
v -0.01294203 0.01858286 -0.27040887
v -0.01282988 0.01892454 -0.25770301
v -0.01261010 0.01961349 -0.23229109
v -0.01253200 0.01995385 -0.22342791
v -0.01116246 0.01980251 -0.22689177
v -0.01272040 0.01926744 -0.24499717
v -0.01271497 0.01928397 -0.24436626
v -0.01159648 0.01946211 -0.23761603
v -0.01266553 0.01943403 -0.23864406
v -0.01137547 0.01954631 -0.23458065
v -0.01119250 0.01966804 -0.23060502
v -0.01243272 0.02075899 -0.21204402
v -0.01104059 0.02062669 -0.21348208
v -0.01249821 0.02016483 -0.21959303
v -0.01108117 0.02026167 -0.21812922
v -0.01113336 0.01995388 -0.22345529
v -0.01085939 0.02244233 -0.19973463
v -0.01087766 0.02223034 -0.20095119
v -0.01234291 0.02223017 -0.20092252
v -0.01096144 0.02138482 -0.20658779
v -0.01102801 0.02075917 -0.21207154
v -0.01219358 0.02750647 -0.17902921
v -0.01064223 0.02750691 -0.17905967
v -0.01064402 0.02719790 -0.18013823
v -0.01221630 0.02662827 -0.18210085
v -0.01064584 0.02679339 -0.18155064
v -0.01227133 0.02438986 -0.19050880
v -0.01071298 0.02438028 -0.19057876
v -0.01085899 0.02244714 -0.19970767
v -0.01072470 0.02857189 -0.17504402
v -0.01064915 -0.02803244 -0.17691170
v -0.01219086 -0.02759818 -0.17846744
v -0.01226862 -0.02439524 -0.19020823
v -0.01233996 -0.02221252 -0.20062372
v -0.01087265 -0.02221437 -0.20065279
v -0.01072670 -0.02404478 -0.19169746
v -0.01070772 -0.02439723 -0.19023918
v -0.01221545 -0.02656028 -0.18210225
v -0.01063673 -0.02713401 -0.18012418
v -0.01063401 -0.02759752 -0.17849770
v -0.01242960 -0.02071795 -0.21175548
v -0.01097379 -0.02123540 -0.20719920
v -0.01089645 -0.02196677 -0.20213471
v -0.01112740 -0.01989918 -0.22314069
v -0.01104207 -0.02056209 -0.21343365
v -0.01102732 -0.02071844 -0.21178302
v -0.01266491 -0.01936305 -0.23864509
v -0.01270778 -0.01923270 -0.24360383
v -0.01163556 -0.01924648 -0.24309815
v -0.01252857 -0.01989921 -0.22311327
v -0.01260948 -0.01954286 -0.23229213
v -0.01120485 -0.01957006 -0.23145191
v -0.01249757 -0.02009486 -0.21959409
v -0.01116343 -0.01971203 -0.22740377
v -0.01159439 -0.01939120 -0.23761567
v -0.01151617 -0.01942796 -0.23626950
v -0.01140125 -0.01946567 -0.23492548
v -0.01282929 -0.01885256 -0.25770399
v -0.01178859 -0.01876064 -0.26107171
v -0.01277441 -0.01902657 -0.25135118
v -0.01271979 -0.01919612 -0.24499820
v -0.01288487 -0.01867892 -0.26405683
v -0.01294144 -0.01851021 -0.27040985
v -0.01195740 -0.01830512 -0.27835181
v -0.01294858 -0.01848944 -0.27120423
v -0.01301327 -0.01830513 -0.27833116
v -0.01276698 -0.01490851 -0.28025237
v -0.01254741 0.01498169 -0.28003320
v -0.01254242 -0.01490850 -0.28002122
v -0.01277916 0.01498254 -0.28025630
v -0.01263993 0.01498203 -0.28016913
v -0.01263039 -0.01490850 -0.28016040
v -0.01317324 -0.01697019 -0.28016320
v -0.01271080 -0.01663636 -0.28025872
v -0.01269534 -0.01669891 -0.28024760
v -0.01258970 -0.01706598 -0.28013885
v -0.01310646 -0.01756007 -0.27983582
v -0.01246872 -0.01739980 -0.27996516
v -0.01242186 -0.01751153 -0.27988729
v -0.01233711 -0.01769320 -0.27973357
v -0.01208477 -0.01812532 -0.27912807
v -0.01305348 -0.01800651 -0.27933136
v -0.01302091 -0.01825899 -0.27870962
v -0.01318149 -0.01634062 -0.27040449
v -0.01345576 -0.01401111 -0.27039847
v -0.01396795 -0.00939828 -0.27038738
v -0.01408920 -0.00805613 -0.27038479
v -0.01313186 -0.01729877 -0.27930319
v -0.01412590 -0.00800022 -0.27532107
v -0.01422499 0.00678786 -0.27531946
v -0.01447185 -0.00087189 -0.27531394
v -0.01343966 0.01446774 -0.27533656
v -0.01339819 0.01456786 -0.27039897
v -0.01318897 0.01637118 -0.27040347
v -0.01346760 0.01399113 -0.27039748
v -0.01443755 -0.00087830 -0.27037725
v -0.01444171 -0.00015532 -0.27037716
v -0.01418896 0.00683463 -0.27038231
v -0.01241242 0.01629557 -0.28003508
v -0.01271002 0.01636268 -0.28027833
v -0.01263852 0.01634639 -0.28025892
v -0.01250261 0.01631562 -0.28017142
v -0.01263512 0.01634561 -0.28025764
v -0.01241241 -0.01622239 -0.28003594
v -0.01263851 -0.01627321 -0.28025979
v -0.01250260 -0.01624245 -0.28017229
v -0.01203113 0.01793138 -0.27948645
v -0.01189838 0.01812830 -0.27916148
v -0.01180885 0.01804944 -0.27915969
v -0.01196750 0.01738711 -0.27957541
v -0.01222065 0.01689565 -0.27991202
v -0.01189986 0.01831143 -0.27876735
v -0.01199484 0.01817782 -0.27914724
v -0.01212083 0.01798232 -0.27947560
v -0.01225856 0.01773492 -0.27975139
v -0.01251704 0.01710823 -0.28014269
v -0.01170723 0.01772570 -0.27905056
v -0.01161430 0.01777266 -0.27833888
v -0.01155804 0.01800124 -0.27834535
v -0.01163219 0.01807343 -0.27876821
v -0.01158726 0.01812990 -0.27834836
v -0.01170146 0.01818449 -0.27877960
v -0.01165687 0.01824219 -0.27835050
v -0.01179660 0.01826548 -0.27877846
v -0.01175344 0.01832229 -0.27835155
v -0.01185856 0.01836580 -0.27835158
v -0.01217416 0.01768601 -0.27975500
v -0.01230023 0.01698310 -0.28005099
v -0.01236485 0.01702905 -0.28010032
v -0.01209442 0.01762083 -0.27973843
v -0.01243930 0.01707171 -0.28013095
v -0.01198555 0.01746321 -0.27964365
v -0.01202894 0.01754397 -0.27970028
v -0.01174114 0.01794670 -0.27913862
v -0.01170652 0.01783340 -0.27910006
v -0.01157044 0.01787691 -0.27834201
v -0.01157197 0.01787121 -0.27834186
v -0.01156836 0.01788818 -0.27392849
v -0.01181390 0.01847942 -0.27394134
v -0.01170893 0.01843606 -0.27394125
v -0.01161254 0.01835630 -0.27394015
v -0.01154288 0.01824451 -0.27393797
v -0.01151334 0.01811639 -0.27393493
v -0.01152516 0.01799239 -0.27393162
v -0.01142173 0.01829253 -0.25897837
v -0.01138064 0.01839672 -0.25898165
v -0.01137077 0.01851976 -0.25898510
v -0.01140151 0.01864623 -0.25898829
v -0.01147138 0.01875627 -0.25899065
v -0.01156727 0.01883476 -0.25899190
v -0.01167152 0.01887752 -0.25899208
v -0.01129842 0.01867847 -0.24501203
v -0.01126002 0.01878288 -0.24501505
v -0.01125276 0.01890486 -0.24501830
v -0.01128523 0.01902921 -0.24502133
v -0.01135549 0.01913685 -0.24502364
v -0.01145071 0.01921350 -0.24502496
v -0.01155386 0.01925528 -0.24502531
v -0.01122720 0.01891250 -0.23761043
v -0.01120659 0.01898043 -0.23761180
v -0.01140126 0.01941023 -0.23761801
v -0.01130234 0.01933126 -0.23761763
v -0.01126039 0.01927630 -0.23761700
v -0.01120005 0.01910074 -0.23761413
v -0.01119962 0.01909611 -0.23761404
v -0.01127850 0.01953414 -0.23458803
v -0.01097816 0.01918209 -0.23460178
v -0.01101036 0.01930689 -0.23460281
v -0.01108043 0.01941502 -0.23460034
v -0.01117551 0.01949208 -0.23459499
v -0.01098577 0.01905987 -0.23459767
v -0.01102449 0.01895549 -0.23459160
v -0.01077041 0.01932196 -0.22687544
v -0.01110192 0.01965180 -0.23073749
v -0.01099854 0.01961023 -0.23073645
v -0.01090323 0.01953391 -0.23073457
v -0.01083293 0.01942668 -0.23073193
v -0.01080040 0.01930266 -0.23072891
v -0.01080757 0.01918073 -0.23072594
v -0.01084594 0.01907610 -0.23072343
v -0.01106560 0.01979067 -0.22689198
v -0.01096266 0.01974920 -0.22689106
v -0.01086771 0.01967327 -0.22688873
v -0.01079735 0.01956666 -0.22688499
v -0.01076423 0.01944330 -0.22688031
v -0.01094348 0.02061488 -0.21348180
v -0.01090323 0.02007770 -0.22017919
v -0.01071077 0.01965110 -0.22015560
v -0.01070467 0.01977229 -0.22016314
v -0.01073786 0.01989545 -0.22017026
v -0.01080826 0.02000191 -0.22017582
v -0.01084059 0.02057357 -0.21347891
v -0.01074550 0.02049779 -0.21347287
v -0.01067505 0.02039134 -0.21346386
v -0.01064194 0.02026821 -0.21345304
v -0.01068558 0.02004314 -0.21343243
v -0.01064823 0.02014713 -0.21344209
v -0.01076214 0.02243060 -0.19973397
v -0.01086431 0.02137292 -0.20658782
v -0.01076132 0.02133157 -0.20658405
v -0.01066611 0.02125582 -0.20657563
v -0.01059560 0.02114945 -0.20656274
v -0.01060668 0.02080243 -0.20651676
v -0.01056906 0.02090587 -0.20653103
v -0.01056257 0.02102654 -0.20654707
v -0.01065904 0.02238964 -0.19972819
v -0.01056372 0.02231447 -0.19971618
v -0.01054663 0.02229489 -0.19971293
v -0.01049312 0.02220888 -0.19969836
v -0.01050416 0.02186413 -0.19963656
v -0.01046653 0.02196692 -0.19965550
v -0.01046004 0.02208681 -0.19967702
v -0.01046350 0.02211237 -0.19968155
v -0.01050375 0.02186896 -0.19960950
v -0.01046612 0.02197177 -0.19962846
v -0.01045965 0.02209165 -0.19965002
v -0.01046311 0.02211721 -0.19965453
v -0.01049273 0.02221371 -0.19967137
v -0.01054623 0.02229973 -0.19968596
v -0.01056331 0.02231929 -0.19968921
v -0.01065864 0.02239446 -0.19970123
v -0.01076173 0.02243542 -0.19970703
v -0.01061592 0.02436879 -0.19057733
v -0.01051302 0.02432859 -0.19056901
v -0.01041780 0.02425486 -0.19055241
v -0.01034703 0.02415127 -0.19052821
v -0.01035583 0.02381196 -0.19044554
v -0.01031909 0.02391340 -0.19047073
v -0.01031340 0.02403137 -0.19049951
v -0.01028865 0.02623125 -0.18139145
v -0.01025078 0.02633635 -0.18142150
v -0.01024710 0.02645855 -0.18145631
v -0.01028622 0.02658105 -0.18149111
v -0.01036429 0.02668379 -0.18152016
v -0.01046588 0.02675317 -0.18153965
v -0.01057233 0.02678718 -0.18154906
v -0.01057745 0.02805245 -0.17706507
v -0.01047077 0.02801865 -0.17705412
v -0.01036901 0.02794906 -0.17703372
v -0.01029098 0.02784564 -0.17700469
v -0.01025227 0.02772212 -0.17697102
v -0.01025667 0.02759894 -0.17693821
v -0.01029537 0.02749311 -0.17691062
v -0.01163460 -0.01800591 -0.27877003
v -0.01174334 -0.01787898 -0.27914047
v -0.01170738 -0.01776789 -0.27910349
v -0.01197113 -0.01725524 -0.27951172
v -0.01196788 -0.01732018 -0.27958208
v -0.01222187 -0.01682797 -0.27991921
v -0.01173230 -0.01757085 -0.27900395
v -0.01217392 -0.01721116 -0.27990595
v -0.01231359 -0.01732513 -0.27997246
v -0.01230234 -0.01691459 -0.28005442
v -0.01243947 -0.01700158 -0.28013191
v -0.01254827 -0.01664927 -0.28022927
v -0.01170385 -0.01811403 -0.27878076
v -0.01165827 -0.01817081 -0.27835152
v -0.01175451 -0.01824990 -0.27835253
v -0.01181088 -0.01797919 -0.27916044
v -0.01179758 -0.01819290 -0.27877939
v -0.01189906 -0.01805606 -0.27916184
v -0.01189895 -0.01823796 -0.27876848
v -0.01199377 -0.01810465 -0.27914780
v -0.01209635 -0.01754996 -0.27973992
v -0.01217482 -0.01761368 -0.27975577
v -0.01225767 -0.01766167 -0.27975219
v -0.01203137 -0.01747480 -0.27970326
v -0.01198745 -0.01739549 -0.27964854
v -0.01170566 -0.01766123 -0.27905542
v -0.01185903 -0.01829285 -0.27835253
v -0.01161190 -0.01770336 -0.27833992
v -0.01156923 -0.01780795 -0.27834308
v -0.01155813 -0.01793198 -0.27834642
v -0.01158832 -0.01805972 -0.27834937
v -0.01053912 -0.02712282 -0.18012130
v -0.01056487 -0.02817061 -0.17633866
v -0.01046146 -0.02813120 -0.17632560
v -0.01036586 -0.02805782 -0.17630400
v -0.01029517 -0.02795407 -0.17627525
v -0.01026236 -0.02783371 -0.17624328
v -0.01026940 -0.02771530 -0.17621291
v -0.01030770 -0.02761371 -0.17618775
v -0.01028247 -0.02656682 -0.17996250
v -0.01024373 -0.02666740 -0.17999151
v -0.01023633 -0.02678511 -0.18002534
v -0.01026896 -0.02690520 -0.18005972
v -0.01033969 -0.02700906 -0.18008929
v -0.01043550 -0.02708284 -0.18011016
v -0.01077517 -0.01920911 -0.22796117
v -0.01081343 -0.01908705 -0.23144697
v -0.01027935 -0.02480951 -0.18669707
v -0.01030682 -0.02504697 -0.18675834
v -0.01027336 -0.02492739 -0.18672729
v -0.01038891 -0.02338671 -0.19350693
v -0.01035557 -0.02326592 -0.19348051
v -0.01050124 -0.02203376 -0.20030889
v -0.01046829 -0.02191143 -0.20028821
v -0.01060762 -0.02099977 -0.20717457
v -0.01057474 -0.02087661 -0.20715940
v -0.01047497 -0.02179136 -0.20026731
v -0.01036168 -0.02314719 -0.19345388
v -0.01076884 -0.01933052 -0.22796577
v -0.01080187 -0.01945400 -0.22797021
v -0.01080663 -0.01920875 -0.23145103
v -0.01083938 -0.01933271 -0.23145412
v -0.01090967 -0.01943996 -0.23145567
v -0.01087221 -0.01956076 -0.22797379
v -0.01074127 -0.01977547 -0.22102338
v -0.01070812 -0.01965221 -0.22101673
v -0.01100471 -0.01951636 -0.23145556
v -0.01096720 -0.01963678 -0.22797607
v -0.01081167 -0.01988202 -0.22102872
v -0.01068206 -0.02026692 -0.21408856
v -0.01064903 -0.02014365 -0.21407799
v -0.01130594 -0.01945390 -0.23493305
v -0.01090664 -0.01995790 -0.22103205
v -0.01075248 -0.02037353 -0.21409698
v -0.01047297 -0.02522310 -0.18680519
v -0.01055489 -0.02356554 -0.19354410
v -0.01037760 -0.02515006 -0.18678550
v -0.01045960 -0.02349117 -0.19352908
v -0.01057181 -0.02213963 -0.20032610
v -0.01066718 -0.02221503 -0.20033765
v -0.01067809 -0.02110634 -0.20718709
v -0.01077338 -0.02118220 -0.20719534
v -0.01084759 -0.02044944 -0.21410221
v -0.01071428 -0.01953096 -0.22100979
v -0.01065544 -0.02002250 -0.21406695
v -0.01058151 -0.02075570 -0.20714392
v -0.01105039 -0.01887480 -0.23493776
v -0.01101160 -0.01897950 -0.23494394
v -0.01100413 -0.01910211 -0.23494807
v -0.01103667 -0.01922719 -0.23494893
v -0.01110722 -0.01933536 -0.23494616
v -0.01120272 -0.01941222 -0.23494042
v -0.01140023 -0.01934190 -0.23761989
v -0.01121891 -0.01884810 -0.23761180
v -0.01119447 -0.01903085 -0.23761740
v -0.01125753 -0.01920968 -0.23762040
v -0.01153827 -0.01923449 -0.24309853
v -0.01143518 -0.01919277 -0.24309817
v -0.01134001 -0.01911622 -0.24309684
v -0.01128250 -0.01865825 -0.24308527
v -0.01124428 -0.01876264 -0.24308826
v -0.01123717 -0.01888453 -0.24309151
v -0.01126975 -0.01900873 -0.24309452
v -0.01143871 -0.01816657 -0.26105881
v -0.01139859 -0.01827106 -0.26106206
v -0.01138978 -0.01839388 -0.26106551
v -0.01142134 -0.01851961 -0.26106864
v -0.01149149 -0.01862865 -0.26107094
v -0.01158712 -0.01870629 -0.26107216
v -0.01169083 -0.01874854 -0.26107231
v -0.01357123 0.01768583 -0.25133944
v -0.01344211 0.01726701 -0.25769499
v -0.01387819 0.01498958 -0.25769031
v -0.01320875 0.01910060 -0.23863842
v -0.01317141 0.01882372 -0.24499157
v -0.01370852 0.01807963 -0.24498478
v -0.01621811 -0.00595578 -0.21965127
v -0.01620158 -0.00000915 -0.21966034
v -0.01520070 -0.00004346 -0.23231459
v -0.01512530 -0.01875463 -0.21958776
v -0.01557324 -0.01750437 -0.21959290
v -0.01491529 -0.01666932 -0.23227818
v -0.02111920 0.00797207 -0.18194449
v -0.02025054 0.02056986 -0.17583695
v -0.01749932 0.02620074 -0.17587279
v -0.01588838 0.02745432 -0.17589730
v -0.01334299 0.02008395 -0.21959041
v -0.01318088 -0.01878027 -0.24499236
v -0.01372560 -0.01806462 -0.24498540
v -0.01358286 -0.01766722 -0.25134015
v -0.01377742 -0.02644764 -0.18207365
v -0.01331161 -0.01965298 -0.22593629
v -0.01322095 -0.01905945 -0.23863919
v -0.01344781 -0.01724464 -0.25769579
v -0.01329471 0.01969036 -0.22593558
v -0.01324996 0.01937859 -0.23228593
v -0.01401020 0.01881095 -0.23227963
v -0.01385495 0.01845004 -0.23863158
v -0.01345246 0.02133267 -0.20693842
v -0.01390762 0.02814325 -0.17592852
v -0.01866953 0.02447172 -0.17585641
v -0.02076169 0.01184091 -0.18194993
v -0.02139272 0.00020962 -0.18194053
v -0.02114056 -0.00764704 -0.18194449
v -0.02079059 -0.01156002 -0.18194996
v -0.02024265 -0.01545495 -0.18195873
v -0.01870422 -0.02427668 -0.17585701
v -0.01753798 -0.02606327 -0.17587341
v -0.01393318 -0.02807422 -0.17592949
v -0.01593529 -0.02737233 -0.17589781
v -0.01459486 -0.01788542 -0.23227711
v -0.01435070 -0.01839241 -0.23227800
v -0.01479566 -0.01925500 -0.21958685
v -0.01420421 -0.01918667 -0.22593091
v -0.01437860 -0.01963562 -0.21958736
v -0.01336188 -0.02004751 -0.21959110
v -0.01326464 -0.01933953 -0.23228666
v -0.01403683 -0.01880241 -0.23228009
v -0.01387705 -0.01843845 -0.23863211
v -0.01455127 -0.01332652 -0.24498139
v -0.01519436 -0.01400365 -0.23228562
v -0.01600710 -0.01471636 -0.21960884
v -0.01412033 -0.01708034 -0.24498111
v -0.01434833 -0.01588444 -0.24497981
v -0.01387733 -0.01499890 -0.25769112
v -0.01331662 -0.01680112 -0.26405045
v -0.01370573 -0.01617521 -0.25769269
v -0.01616744 -0.01184762 -0.21962568
v -0.01526728 -0.01127173 -0.23229472
v -0.01461062 -0.01072058 -0.24498478
v -0.01420561 -0.01009644 -0.25769040
v -0.01525313 0.01121996 -0.23229441
v -0.01614615 0.01181902 -0.21962547
v -0.01517486 0.01396851 -0.23228526
v -0.01597955 0.01469512 -0.21960862
v -0.01489858 0.01667576 -0.23227763
v -0.01554994 0.01752100 -0.21959244
v -0.01457460 0.01789147 -0.23227657
v -0.01509816 0.01876394 -0.21958731
v -0.01432615 0.01839690 -0.23227751
v -0.01476356 0.01925895 -0.21958646
v -0.01417346 0.01919297 -0.22593051
v -0.01434422 0.01964115 -0.21958700
v -0.01410850 0.01708662 -0.24498044
v -0.01433967 0.01588392 -0.24497916
v -0.01454159 0.01328269 -0.24498089
v -0.01421032 0.01000599 -0.25768977
v -0.01460514 0.01065119 -0.24498431
v -0.01437268 -0.00011350 -0.25769150
v -0.01375206 0.02650834 -0.18207277
v -0.01556024 0.02591656 -0.18203956
v -0.01358751 0.02347450 -0.19440915
v -0.01860412 0.01395620 -0.19442751
v -0.02020915 0.01568782 -0.18195857
v -0.01805754 0.01731508 -0.19441213
v -0.01936490 0.01944669 -0.18197235
v -0.01710572 0.02061086 -0.19439889
v -0.01803678 0.02313814 -0.18199502
v -0.01630563 0.02204762 -0.19439645
v -0.01351607 0.02227994 -0.20065215
v -0.01511027 0.02303058 -0.19440033
v -0.01701199 0.02476359 -0.18201317
v -0.01490401 0.02187389 -0.20064905
v -0.01620531 0.00591956 -0.21965121
v -0.01726399 0.01266640 -0.20699340
v -0.01694041 0.01573097 -0.20697075
v -0.01628456 0.01873819 -0.20694816
v -0.01567348 0.02004742 -0.20694000
v -0.01524051 0.02055744 -0.20693780
v -0.01470857 0.02093843 -0.20693715
v -0.01750682 0.00636902 -0.20702738
v -0.01458750 -0.00007623 -0.24499312
v -0.01433280 -0.00511725 -0.25769126
v -0.01560675 -0.02585312 -0.18204001
v -0.01705021 -0.02465457 -0.18201374
v -0.01940588 -0.01926713 -0.18197256
v -0.02029220 -0.02033603 -0.17583720
v -0.01361174 -0.02342833 -0.19440991
v -0.01515459 -0.02299996 -0.19440065
v -0.01634175 -0.02199035 -0.19439690
v -0.01713774 -0.02052343 -0.19439933
v -0.01807095 -0.02298088 -0.18199556
v -0.01809584 -0.01723553 -0.19441228
v -0.01863508 -0.01385062 -0.19442762
v -0.01601614 -0.02090935 -0.20065080
v -0.01527841 -0.02054372 -0.20693813
v -0.01494654 -0.02185479 -0.20064937
v -0.01474884 -0.02092713 -0.20693748
v -0.01353936 -0.02223869 -0.20065285
v -0.01347454 -0.02129458 -0.20693912
v -0.01671392 -0.01952207 -0.20065783
v -0.01631297 -0.01869765 -0.20694858
v -0.01570591 -0.02002340 -0.20694041
v -0.01912675 0.00705330 -0.19445211
v -0.01927218 0.00011193 -0.19446097
v -0.01756112 0.00003899 -0.20703934
v -0.01914627 -0.00689752 -0.19445208
v -0.01752349 -0.00633368 -0.20702739
v -0.01729089 -0.01264798 -0.20699355
v -0.01697424 -0.01571837 -0.20697092
f 1 2 3
f 1 3 68
f 68 3 69
f 3 83 69
f 69 83 10
f 69 10 70
f 19 69 70
f 19 70 17
f 17 18 19
f 19 18 20
f 18 401 20
f 21 20 401
f 400 21 401
f 86 21 400
f 88 21 86
f 86 87 88
f 90 88 87
f 95 88 90
f 95 68 88
f 68 19 88
f 90 108 95
f 95 108 107
f 95 107 1
f 1 107 105
f 106 105 107
f 104 105 106
f 179 104 106
f 179 103 104
f 102 103 179
f 102 93 103
f 103 93 94
f 93 63 94
f 93 64 63
f 93 65 64
f 96 65 93
f 96 61 65
f 60 65 61
f 53 60 61
f 53 59 60
f 59 77 60
f 60 77 78
f 77 40 78
f 78 40 38
f 78 38 79
f 79 38 36
f 79 36 80
f 6 79 80
f 6 80 67
f 7 67 80
f 7 80 8
f 7 8 9
f 358 9 8
f 358 84 9
f 33 84 358
f 358 34 33
f 32 33 34
f 32 10 33
f 32 11 10
f 10 11 12
f 12 11 13
f 71 12 13
f 71 13 72
f 31 71 72
f 31 72 30
f 389 30 72
f 389 15 30
f 28 15 389
f 28 389 26
f 26 389 27
f 389 29 27
f 28 27 29
f 28 29 15
f 15 29 16
f 14 15 16
f 389 14 16
f 389 22 14
f 23 22 389
f 15 22 23
f 15 23 24
f 31 15 24
f 31 24 17
f 17 24 25
f 24 23 25
f 389 25 23
f 18 25 389
f 14 22 15
f 26 27 28
f 16 29 389
f 30 15 31
f 17 71 31
f 72 13 389
f 389 13 358
f 389 358 392
f 392 418 389
f 392 419 418
f 393 419 392
f 421 419 393
f 417 419 421
f 405 417 421
f 404 417 405
f 404 397 417
f 403 397 404
f 403 398 397
f 397 398 399
f 398 412 399
f 399 412 410
f 399 410 424
f 424 423 399
f 399 423 420
f 399 420 417
f 423 418 420
f 422 418 423
f 422 401 418
f 424 422 423
f 425 422 424
f 425 400 422
f 407 400 425
f 407 87 400
f 92 87 407
f 92 407 91
f 91 90 92
f 89 90 91
f 179 90 89
f 408 179 89
f 408 428 179
f 428 180 179
f 181 180 428
f 435 181 428
f 435 428 436
f 436 428 434
f 427 434 428
f 426 434 427
f 426 433 434
f 409 433 426
f 409 432 433
f 438 433 432
f 438 432 439
f 446 438 439
f 446 439 447
f 447 451 446
f 448 451 447
f 448 298 451
f 298 456 451
f 460 451 456
f 459 451 460
f 459 452 451
f 458 452 459
f 459 466 458
f 458 466 467
f 458 467 457
f 457 453 458
f 457 454 453
f 445 453 454
f 445 454 444
f 444 437 445
f 445 437 438
f 444 436 437
f 443 436 444
f 444 450 443
f 443 450 449
f 450 461 449
f 449 461 462
f 449 462 169
f 462 470 169
f 470 164 169
f 164 168 169
f 169 168 170
f 170 168 620
f 620 168 580
f 579 580 168
f 168 167 579
f 579 167 160
f 579 160 617
f 599 579 617
f 599 617 604
f 603 599 604
f 603 598 599
f 602 598 603
f 602 597 598
f 597 593 598
f 598 593 592
f 592 593 594
f 594 593 595
f 622 594 595
f 622 595 623
f 623 595 596
f 623 596 624
f 624 596 600
f 600 596 601
f 344 600 601
f 344 601 334
f 334 601 606
f 606 601 602
f 606 602 607
f 607 616 606
f 606 616 335
f 616 336 335
f 331 335 336
f 331 336 332
f 331 332 324
f 324 763 331
f 689 331 763
f 689 763 688
f 688 763 761
f 688 761 686
f 686 687 688
f 688 687 665
f 690 665 687
f 690 687 691
f 691 687 685
f 691 685 692
f 692 685 684
f 692 684 696
f 696 662 692
f 692 662 661
f 661 662 663
f 661 663 350
f 350 663 667
f 700 667 663
f 699 667 700
f 698 699 700
f 698 700 696
f 696 697 698
f 693 698 697
f 693 697 655
f 693 655 694
f 694 655 654
f 653 654 655
f 655 684 653
f 653 684 686
f 686 759 653
f 653 759 766
f 758 766 759
f 758 759 760
f 752 758 760
f 752 760 751
f 751 664 752
f 751 323 664
f 324 323 751
f 751 762 324
f 323 324 325
f 324 333 325
f 613 325 333
f 613 333 615
f 614 613 615
f 612 613 614
f 612 609 613
f 611 609 612
f 586 611 612
f 584 611 586
f 584 610 611
f 582 610 584
f 583 582 584
f 583 584 585
f 585 581 583
f 585 591 581
f 152 581 591
f 152 591 153
f 151 152 153
f 151 153 154
f 151 154 517
f 520 151 517
f 520 517 521
f 532 520 521
f 533 520 532
f 533 128 520
f 114 128 533
f 114 127 128
f 128 127 129
f 128 129 130
f 130 131 128
f 128 131 132
f 128 132 133
f 133 134 128
f 128 134 135
f 128 135 136
f 136 138 128
f 136 137 138
f 138 137 139
f 139 140 138
f 138 140 141
f 138 141 142
f 142 143 138
f 138 143 144
f 138 144 145
f 145 148 138
f 138 148 146
f 138 146 149
f 138 149 573
f 138 573 150
f 150 573 581
f 573 574 581
f 573 572 574
f 574 572 571
f 250 571 572
f 250 572 251
f 251 572 111
f 251 111 110
f 109 110 111
f 111 196 109
f 111 195 196
f 192 195 111
f 191 192 111
f 111 194 191
f 111 193 194
f 190 193 111
f 111 189 190
f 111 188 189
f 187 188 111
f 111 186 187
f 111 185 186
f 184 185 111
f 111 183 184
f 111 182 183
f 147 182 111
f 146 147 111
f 249 571 250
f 249 570 571
f 575 571 570
f 575 570 576
f 575 576 582
f 576 577 582
f 576 569 577
f 577 569 568
f 247 568 569
f 567 568 247
f 246 567 247
f 246 247 245
f 245 247 248
f 245 248 249
f 249 250 245
f 245 250 251
f 245 251 110
f 110 244 245
f 110 243 244
f 197 243 110
f 197 110 198
f 197 198 683
f 683 198 681
f 198 199 681
f 198 109 199
f 199 109 200
f 200 109 196
f 200 196 201
f 201 196 195
f 201 195 202
f 202 195 192
f 202 192 203
f 203 192 191
f 203 191 204
f 204 191 194
f 204 194 193
f 204 193 232
f 232 193 190
f 232 190 189
f 189 231 232
f 234 232 231
f 234 231 235
f 235 231 233
f 235 233 236
f 236 233 183
f 236 183 230
f 182 230 183
f 182 229 230
f 147 229 182
f 147 228 229
f 146 228 147
f 146 227 228
f 148 227 146
f 148 226 227
f 145 226 148
f 144 226 145
f 144 224 226
f 143 224 144
f 143 142 224
f 224 142 141
f 224 141 225
f 225 141 140
f 225 140 223
f 223 140 139
f 223 139 137
f 223 137 220
f 220 137 136
f 220 136 135
f 220 135 221
f 221 135 134
f 221 134 222
f 222 134 133
f 222 133 217
f 217 133 132
f 217 132 131
f 217 131 218
f 218 131 130
f 218 130 219
f 219 130 129
f 219 129 214
f 214 129 127
f 214 127 126
f 126 213 214
f 216 213 126
f 216 126 113
f 239 216 113
f 112 239 113
f 112 238 239
f 237 238 112
f 237 242 238
f 238 242 240
f 237 241 242
f 210 241 237
f 237 122 210
f 122 237 123
f 237 124 123
f 237 125 124
f 210 122 121
f 210 121 211
f 211 121 120
f 211 120 212
f 212 120 119
f 212 119 209
f 209 119 118
f 209 118 117
f 117 208 209
f 117 207 208
f 116 207 117
f 116 206 207
f 205 206 116
f 206 205 659
f 659 205 673
f 252 673 205
f 252 312 673
f 256 312 252
f 320 312 256
f 320 256 259
f 320 259 527
f 527 259 255
f 527 255 528
f 528 525 527
f 528 524 525
f 529 524 528
f 529 523 524
f 530 523 529
f 529 253 530
f 530 253 260
f 530 260 531
f 531 260 258
f 531 258 532
f 532 258 257
f 531 522 530
f 531 521 522
f 521 518 522
f 522 518 519
f 518 505 519
f 519 505 506
f 505 501 506
f 506 501 502
f 506 502 507
f 507 502 503
f 507 503 508
f 508 503 499
f 508 499 509
f 509 516 508
f 509 515 516
f 510 515 509
f 510 514 515
f 525 515 514
f 525 514 526
f 526 514 513
f 511 513 514
f 512 513 511
f 511 496 512
f 512 496 488
f 512 488 319
f 319 318 512
f 309 318 319
f 309 319 307
f 307 308 309
f 309 308 310
f 309 310 302
f 302 310 311
f 311 310 489
f 476 311 489
f 476 489 482
f 482 489 490
f 482 490 483
f 481 482 483
f 477 482 481
f 481 473 477
f 477 473 472
f 477 472 471
f 465 471 472
f 465 472 466
f 464 471 465
f 464 295 471
f 301 295 464
f 301 293 295
f 293 294 295
f 294 306 295
f 294 305 306
f 471 306 305
f 304 305 294
f 304 294 660
f 660 294 668
f 660 668 715
f 715 716 660
f 716 743 660
f 672 660 743
f 302 660 672
f 672 743 736
f 736 743 742
f 736 742 732
f 732 742 741
f 714 741 742
f 714 742 716
f 712 741 714
f 713 712 714
f 713 714 715
f 715 670 713
f 713 670 671
f 713 671 711
f 711 671 717
f 711 717 709
f 709 710 711
f 709 708 710
f 707 708 709
f 707 706 708
f 706 738 708
f 708 738 739
f 726 739 738
f 726 738 744
f 744 767 726
f 726 767 675
f 726 675 727
f 726 727 728
f 728 727 729
f 728 729 730
f 730 740 728
f 728 740 739
f 710 739 740
f 710 740 712
f 730 741 740
f 730 729 731
f 674 731 729
f 735 731 674
f 658 735 674
f 658 674 209
f 209 674 212
f 674 211 212
f 210 211 674
f 674 241 210
f 674 242 241
f 657 242 674
f 240 242 657
f 657 215 240
f 657 213 215
f 729 213 657
f 729 214 213
f 724 735 658
f 658 659 724
f 724 659 723
f 724 723 725
f 725 734 724
f 725 733 734
f 733 736 734
f 309 733 725
f 725 317 309
f 309 672 733
f 725 723 317
f 723 315 317
f 723 673 315
f 315 316 317
f 315 314 316
f 312 314 315
f 312 313 314
f 313 526 314
f 527 526 313
f 526 316 314
f 317 316 318
f 316 513 318
f 658 207 659
f 724 734 735
f 734 732 735
f 735 732 731
f 674 729 657
f 730 731 732
f 727 214 729
f 727 675 214
f 675 219 214
f 675 218 219
f 217 218 675
f 217 675 656
f 222 217 656
f 656 221 222
f 656 676 221
f 768 676 656
f 768 677 676
f 770 677 768
f 770 678 677
f 224 677 678
f 224 678 226
f 226 678 227
f 227 678 679
f 227 679 228
f 749 228 679
f 750 228 749
f 750 229 228
f 230 229 750
f 750 236 230
f 750 680 236
f 680 235 236
f 680 234 235
f 204 234 680
f 680 203 204
f 680 202 203
f 201 202 680
f 200 201 680
f 681 200 680
f 681 680 755
f 755 680 749
f 755 749 756
f 754 755 756
f 754 756 764
f 754 764 753
f 753 764 758
f 764 765 758
f 753 748 754
f 753 747 748
f 752 747 753
f 747 683 748
f 747 682 683
f 664 682 747
f 664 322 682
f 328 322 664
f 328 329 322
f 328 327 329
f 608 329 327
f 608 327 609
f 327 326 609
f 323 326 327
f 609 326 325
f 565 329 608
f 608 578 565
f 578 567 565
f 565 567 566
f 565 566 330
f 330 566 321
f 245 321 566
f 322 330 321
f 321 244 322
f 610 578 608
f 577 578 610
f 330 329 565
f 323 327 328
f 322 329 330
f 322 244 682
f 682 243 683
f 764 756 765
f 756 773 765
f 695 765 773
f 695 773 701
f 701 773 772
f 701 772 650
f 701 650 702
f 702 650 652
f 702 652 703
f 703 694 702
f 702 694 695
f 652 745 703
f 652 705 745
f 651 705 652
f 651 737 705
f 744 737 651
f 651 769 744
f 651 771 769
f 770 769 771
f 770 771 757
f 757 771 772
f 757 772 756
f 650 771 651
f 705 737 706
f 705 721 745
f 745 721 722
f 745 722 746
f 746 722 386
f 722 387 386
f 381 386 387
f 381 387 380
f 380 387 388
f 720 388 387
f 385 388 720
f 646 385 720
f 719 646 720
f 718 646 719
f 718 644 646
f 717 644 718
f 717 649 644
f 649 648 644
f 647 648 649
f 647 299 648
f 669 299 647
f 293 299 669
f 668 293 669
f 668 669 670
f 300 299 293
f 298 299 300
f 298 297 299
f 288 297 298
f 288 296 297
f 648 297 296
f 287 648 296
f 287 296 288
f 287 288 289
f 288 441 289
f 448 441 288
f 448 440 441
f 440 430 441
f 440 431 430
f 413 430 431
f 415 430 413
f 413 414 415
f 415 414 416
f 416 429 415
f 416 286 429
f 289 429 286
f 286 291 289
f 286 290 291
f 276 290 286
f 286 277 276
f 276 277 278
f 277 402 278
f 278 402 403
f 278 403 280
f 278 280 279
f 279 280 281
f 280 405 281
f 281 405 406
f 281 406 283
f 282 281 283
f 282 283 284
f 283 285 284
f 283 266 285
f 264 266 283
f 283 390 264
f 264 390 265
f 265 390 391
f 265 391 360
f 360 391 361
f 357 360 361
f 357 361 362
f 395 357 362
f 395 362 396
f 396 362 359
f 396 359 394
f 394 543 396
f 396 543 545
f 543 544 545
f 544 366 545
f 545 366 365
f 545 365 364
f 395 545 364
f 395 364 262
f 363 262 364
f 263 262 363
f 261 262 263
f 261 357 262
f 261 269 357
f 357 269 267
f 269 270 267
f 270 271 267
f 267 271 272
f 267 272 273
f 273 274 267
f 267 274 275
f 267 275 268
f 266 267 268
f 266 265 267
f 269 263 270
f 261 263 269
f 364 365 363
f 363 365 366
f 363 366 367
f 367 366 368
f 367 368 369
f 369 370 367
f 367 370 371
f 553 371 370
f 553 354 371
f 373 371 354
f 373 354 356
f 354 355 356
f 354 353 355
f 349 353 354
f 354 643 349
f 560 643 354
f 560 642 643
f 642 631 643
f 643 631 630
f 630 631 626
f 345 630 626
f 346 345 626
f 337 345 346
f 339 345 337
f 337 338 339
f 666 338 337
f 666 337 341
f 341 690 666
f 666 661 338
f 661 351 338
f 351 339 338
f 350 339 351
f 350 349 339
f 348 349 350
f 348 352 349
f 352 348 699
f 374 352 699
f 353 352 374
f 353 374 355
f 355 374 375
f 698 375 374
f 704 375 698
f 376 375 704
f 704 377 376
f 355 376 377
f 355 377 356
f 356 377 379
f 378 356 379
f 379 263 378
f 378 263 363
f 378 363 367
f 367 372 378
f 378 372 373
f 379 270 263
f 271 270 379
f 379 272 271
f 379 273 272
f 381 273 379
f 381 274 273
f 378 373 356
f 379 377 386
f 704 746 377
f 703 746 704
f 704 693 703
f 375 376 355
f 349 630 339
f 337 346 341
f 341 346 347
f 347 346 605
f 347 605 342
f 342 605 600
f 625 600 605
f 605 626 625
f 625 626 629
f 626 632 629
f 636 629 632
f 641 636 632
f 641 632 642
f 548 641 642
f 547 641 548
f 547 640 641
f 564 640 547
f 564 639 640
f 639 635 640
f 639 634 635
f 638 634 639
f 638 633 634
f 637 633 638
f 637 173 633
f 176 173 637
f 176 177 173
f 173 177 178
f 173 178 171
f 449 171 178
f 442 449 178
f 171 172 173
f 171 170 172
f 170 627 172
f 633 172 627
f 442 178 177
f 177 175 442
f 442 175 435
f 442 435 443
f 175 174 435
f 174 175 176
f 176 181 174
f 176 175 177
f 561 176 637
f 561 637 562
f 559 561 562
f 559 562 536
f 536 558 559
f 559 558 538
f 543 538 558
f 539 538 543
f 539 97 538
f 97 537 538
f 98 537 97
f 540 537 98
f 98 99 540
f 99 100 540
f 540 100 561
f 100 99 101
f 101 179 100
f 101 99 96
f 101 96 102
f 98 96 99
f 97 96 98
f 97 53 96
f 51 53 97
f 51 52 53
f 52 51 539
f 52 539 54
f 54 539 394
f 56 54 394
f 56 394 50
f 394 45 50
f 394 46 45
f 45 46 47
f 47 46 48
f 47 48 49
f 73 49 48
f 44 49 73
f 74 44 73
f 73 41 74
f 73 46 41
f 44 47 49
f 45 47 44
f 394 41 46
f 394 42 41
f 41 42 43
f 394 43 42
f 44 43 394
f 394 82 44
f 75 82 394
f 58 82 75
f 58 75 59
f 394 76 75
f 75 76 77
f 44 82 58
f 55 44 58
f 55 58 53
f 53 54 55
f 57 44 55
f 55 56 57
f 44 50 45
f 56 50 57
f 55 54 56
f 53 52 54
f 540 538 537
f 51 97 539
f 543 558 541
f 541 558 557
f 541 557 554
f 541 554 542
f 542 554 555
f 542 555 368
f 542 368 544
f 368 555 556
f 555 551 556
f 555 549 551
f 549 550 551
f 549 546 550
f 550 546 548
f 550 548 560
f 550 560 552
f 549 535 546
f 554 535 549
f 535 534 546
f 534 535 536
f 535 557 536
f 536 563 534
f 534 563 564
f 546 534 547
f 551 550 552
f 551 552 553
f 556 551 553
f 554 549 555
f 554 557 535
f 541 542 543
f 559 538 540
f 536 557 558
f 536 562 563
f 562 638 563
f 540 561 559
f 100 176 561
f 100 180 176
f 173 172 633
f 562 637 638
f 633 627 634
f 634 627 628
f 627 622 628
f 627 621 622
f 620 621 627
f 563 638 639
f 634 628 635
f 635 628 629
f 628 623 629
f 640 635 636
f 563 639 564
f 534 564 547
f 546 547 548
f 640 636 641
f 635 629 636
f 625 629 624
f 341 347 342
f 340 341 342
f 341 340 665
f 689 665 340
f 689 340 343
f 334 343 340
f 331 343 334
f 344 340 342
f 605 346 626
f 345 339 630
f 626 631 632
f 642 632 631
f 548 642 560
f 552 560 354
f 643 630 349
f 349 352 353
f 372 371 373
f 552 354 553
f 556 553 370
f 367 371 372
f 369 556 370
f 368 556 369
f 544 368 366
f 543 542 544
f 394 539 543
f 394 359 76
f 76 359 40
f 40 359 39
f 359 37 39
f 359 35 37
f 35 36 37
f 81 35 359
f 359 8 81
f 80 35 81
f 37 38 39
f 362 358 359
f 396 545 395
f 262 357 395
f 362 361 358
f 267 360 357
f 393 361 391
f 360 267 265
f 406 391 390
f 406 421 391
f 264 265 266
f 283 406 390
f 279 281 282
f 277 416 402
f 276 278 279
f 289 291 292
f 291 645 292
f 292 645 644
f 292 644 287
f 291 384 645
f 290 384 291
f 290 382 384
f 276 382 290
f 276 279 382
f 382 279 282
f 382 282 284
f 284 285 382
f 382 285 266
f 382 266 268
f 268 380 382
f 268 275 380
f 380 275 274
f 382 380 385
f 382 385 383
f 382 383 384
f 645 384 383
f 645 383 646
f 277 286 416
f 402 416 414
f 402 414 398
f 413 412 414
f 411 412 413
f 415 429 430
f 413 431 411
f 411 431 432
f 439 431 440
f 441 430 429
f 441 429 289
f 289 292 287
f 669 647 671
f 648 299 297
f 671 647 649
f 287 644 648
f 644 645 646
f 707 718 719
f 707 719 705
f 719 720 721
f 646 383 385
f 380 388 385
f 380 274 381
f 379 386 381
f 720 387 722
f 746 386 377
f 721 720 722
f 705 719 721
f 703 745 746
f 650 651 652
f 650 772 771
f 702 695 701
f 654 765 695
f 654 766 765
f 756 772 773
f 748 755 754
f 756 749 757
f 748 681 755
f 749 680 750
f 749 679 757
f 757 679 678
f 225 677 224
f 223 677 225
f 757 678 770
f 768 769 770
f 768 767 769
f 223 676 677
f 220 676 223
f 656 767 768
f 676 220 221
f 656 675 767
f 744 769 767
f 744 738 737
f 728 739 726
f 706 737 738
f 705 706 707
f 709 718 707
f 708 739 710
f 711 710 712
f 709 717 718
f 671 649 717
f 670 669 671
f 711 712 713
f 712 740 741
f 732 741 730
f 734 736 732
f 733 672 736
f 716 742 743
f 715 714 716
f 715 668 670
f 302 304 660
f 302 303 304
f 304 303 305
f 305 303 476
f 305 476 477
f 294 293 668
f 300 293 301
f 300 301 456
f 456 301 464
f 295 306 471
f 460 464 465
f 471 305 477
f 466 472 473
f 481 474 473
f 480 474 481
f 480 475 474
f 468 474 475
f 467 474 468
f 468 475 469
f 461 468 469
f 457 468 461
f 469 475 463
f 479 463 475
f 478 463 479
f 478 165 463
f 463 165 164
f 164 165 160
f 160 165 166
f 160 166 161
f 161 166 486
f 486 166 478
f 486 478 487
f 494 486 487
f 493 486 494
f 501 493 494
f 500 493 501
f 500 157 493
f 155 157 500
f 504 155 500
f 154 155 504
f 504 500 505
f 155 156 157
f 157 156 158
f 157 158 159
f 619 159 158
f 590 619 158
f 589 619 590
f 589 590 587
f 587 590 591
f 587 588 589
f 588 604 589
f 604 618 589
f 587 586 588
f 585 586 587
f 589 618 619
f 618 163 619
f 618 162 163
f 162 157 163
f 162 161 157
f 617 162 618
f 619 163 159
f 163 157 159
f 590 158 156
f 153 590 156
f 155 153 156
f 157 161 493
f 494 487 495
f 485 495 487
f 492 495 485
f 484 492 485
f 479 484 485
f 480 484 479
f 480 483 484
f 483 491 484
f 484 491 492
f 491 497 492
f 491 496 497
f 490 496 491
f 492 497 498
f 510 498 497
f 510 497 511
f 498 499 492
f 492 499 495
f 502 494 495
f 487 478 485
f 493 161 486
f 160 161 162
f 166 165 478
f 479 485 478
f 469 463 470
f 479 475 480
f 467 473 474
f 481 483 480
f 483 490 491
f 489 488 490
f 489 308 488
f 477 476 482
f 303 311 476
f 302 311 303
f 309 302 672
f 310 308 489
f 308 307 488
f 317 318 309
f 319 488 307
f 490 488 496
f 511 497 496
f 512 318 513
f 526 513 316
f 511 514 510
f 509 498 510
f 524 516 515
f 509 499 498
f 503 495 499
f 516 507 508
f 502 495 503
f 516 506 507
f 501 494 502
f 505 500 501
f 519 506 516
f 523 519 516
f 518 504 505
f 517 504 518
f 522 519 523
f 253 256 260
f 260 256 258
f 256 257 258
f 256 115 257
f 529 254 253
f 253 254 255
f 530 522 523
f 523 516 524
f 528 254 529
f 524 515 525
f 527 525 526
f 528 255 254
f 255 259 253
f 313 320 527
f 253 259 256
f 313 312 320
f 252 115 256
f 673 312 315
f 252 205 115
f 659 673 723
f 116 115 205
f 207 206 659
f 208 207 658
f 209 208 658
f 112 125 237
f 238 240 239
f 239 240 216
f 240 215 216
f 215 213 216
f 184 183 233
f 233 185 184
f 233 186 185
f 187 186 233
f 233 188 187
f 233 189 188
f 231 189 233
f 204 232 234
f 199 200 681
f 683 681 748
f 198 110 109
f 683 243 197
f 682 244 243
f 245 244 321
f 245 566 246
f 246 566 567
f 578 568 567
f 247 569 248
f 248 569 570
f 577 568 578
f 576 570 569
f 248 570 249
f 574 571 575
f 583 574 575
f 573 111 572
f 149 111 573
f 149 146 111
f 128 138 150
f 128 150 151
f 114 126 127
f 113 126 114
f 112 113 114
f 114 125 112
f 114 124 125
f 123 124 114
f 114 122 123
f 114 121 122
f 120 121 114
f 114 119 120
f 114 118 119
f 117 118 114
f 114 116 117
f 115 116 114
f 533 115 114
f 533 257 115
f 532 257 533
f 532 521 531
f 521 517 518
f 128 151 520
f 517 154 504
f 154 153 155
f 150 152 151
f 153 591 590
f 150 581 152
f 587 591 585
f 583 581 574
f 575 582 583
f 582 577 610
f 610 608 611
f 585 584 586
f 586 612 588
f 611 608 609
f 588 612 614
f 588 614 607
f 607 603 588
f 614 615 616
f 615 333 332
f 609 325 613
f 325 326 323
f 323 328 664
f 752 664 747
f 751 760 762
f 760 761 762
f 753 758 752
f 760 759 761
f 758 765 766
f 653 766 654
f 694 654 695
f 703 693 694
f 655 697 684
f 704 698 693
f 374 699 698
f 699 348 667
f 700 663 696
f 350 667 348
f 351 661 350
f 692 661 666
f 696 663 662
f 696 684 697
f 684 685 686
f 666 691 692
f 666 690 691
f 341 665 690
f 686 685 687
f 686 761 759
f 762 761 763
f 688 665 689
f 343 331 689
f 324 762 763
f 324 332 333
f 615 332 336
f 334 335 331
f 616 615 336
f 607 614 616
f 606 335 334
f 334 340 344
f 342 600 344
f 601 596 597
f 624 600 625
f 624 629 623
f 596 595 597
f 628 622 623
f 621 594 622
f 621 580 594
f 594 580 592
f 597 595 593
f 601 597 602
f 607 602 603
f 598 592 599
f 588 603 604
f 604 617 618
f 592 579 599
f 617 160 162
f 160 167 164
f 592 580 579
f 620 580 621
f 620 627 170
f 169 170 171
f 164 167 168
f 470 463 164
f 462 469 470
f 169 171 449
f 461 469 462
f 450 457 461
f 455 457 450
f 443 449 442
f 444 455 450
f 444 454 455
f 446 453 445
f 446 452 453
f 455 454 457
f 457 467 468
f 466 473 467
f 459 465 466
f 458 453 452
f 460 465 459
f 456 464 460
f 298 300 456
f 288 298 448
f 447 440 448
f 451 452 446
f 447 439 440
f 445 438 446
f 439 432 431
f 437 433 438
f 411 432 409
f 409 410 411
f 425 409 426
f 437 434 433
f 407 426 427
f 407 427 408
f 436 434 437
f 443 435 436
f 174 181 435
f 176 180 181
f 100 179 180
f 427 428 408
f 91 408 89
f 91 407 408
f 425 426 407
f 424 409 425
f 424 410 409
f 411 410 412
f 398 414 412
f 402 398 403
f 403 404 280
f 397 399 417
f 280 404 405
f 405 421 406
f 417 420 419
f 421 393 391
f 392 361 393
f 418 419 420
f 389 418 401
f 392 358 361
f 70 12 71
f 11 358 13
f 34 11 32
f 11 34 358
f 33 83 84
f 84 83 85
f 84 85 9
f 9 85 67
f 2 67 85
f 359 358 8
f 8 80 81
f 9 67 7
f 66 6 67
f 66 67 1
f 4 6 66
f 66 94 4
f 4 94 5
f 66 105 94
f 4 5 6
f 6 5 62
f 5 63 62
f 62 79 6
f 80 36 35
f 37 36 38
f 62 78 79
f 39 38 40
f 77 76 40
f 60 78 62
f 62 64 60
f 59 75 77
f 58 59 53
f 53 61 96
f 60 64 65
f 62 63 64
f 94 63 5
f 102 96 93
f 101 102 179
f 103 94 104
f 106 108 179
f 104 94 105
f 1 105 66
f 106 107 108
f 179 108 90
f 90 87 92
f 88 19 21
f 87 86 400
f 400 401 422
f 389 401 18
f 19 20 21
f 17 25 18
f 17 70 71
f 70 10 12
f 33 10 83
f 3 85 83
f 68 69 19
f 1 68 95
f 2 85 3
f 1 67 2
f 41 43 44
f 74 41 44
f 57 50 44
f 48 46 73

