# https://github.com/mikedh/trimesh
v -0.03239443 0.01886354 -0.10793961
v -0.03217177 0.02010288 -0.10876033
v -0.03234782 0.01971980 -0.10725776
v -0.03218805 0.01986050 -0.10894044
v -0.02699908 0.02724191 -0.12867258
v -0.02606241 0.02729016 -0.13233307
v -0.02510039 0.02899128 -0.13235183
v -0.03113838 0.03025599 -0.10109268
v -0.03128335 0.02985439 -0.10098151
v -0.03046096 0.03044423 -0.10470460
v -0.03136522 0.02960313 -0.10092979
v -0.03094696 0.02908588 -0.10470200
v -0.02962695 0.03286375 -0.10302142
v -0.03006874 0.03229962 -0.10234446
v -0.02988270 0.03168167 -0.10470866
v -0.03014425 0.03219043 -0.10223737
v -0.03056091 0.03150714 -0.10169401
v -0.03096540 0.03067986 -0.10125022
v -0.02920374 0.03328984 -0.10376772
v -0.02926612 0.03323384 -0.10365081
v -0.02925188 0.03280849 -0.10471337
v -0.02842413 0.03375465 -0.10556100
v -0.02846646 0.03374437 -0.10543703
v -0.02879241 0.03359710 -0.10461415
v -0.02694468 0.03308997 -0.11269464
v -0.02611711 0.03390287 -0.11268423
v -0.02834408 0.03376618 -0.10581268
v -0.02290102 0.03336195 -0.12447996
v -0.02171014 0.03401600 -0.12443487
v -0.02458805 0.03397082 -0.11695813
v -0.02146279 0.03337250 -0.12838045
v -0.02034945 0.03395685 -0.12801425
v -0.02048670 0.03399076 -0.12750977
v -0.02076779 0.03346916 -0.12966046
v -0.02067355 0.03354114 -0.12950952
v -0.02048964 0.03369017 -0.12915011
v -0.02044022 0.03373530 -0.12902142
v -0.02034454 0.03384455 -0.12864619
v -0.02032277 0.03391063 -0.12833159
v -0.02145566 0.03296486 -0.13045755
v -0.02134313 0.03304808 -0.13034710
v -0.02286679 0.03253358 -0.12844151
v -0.02107502 0.03324361 -0.13006029
v -0.02091202 0.03336248 -0.12986070
v -0.02360590 0.03103178 -0.13194676
v -0.02297148 0.03169763 -0.13159794
v -0.02416342 0.03149522 -0.12850046
v -0.02222566 0.03236400 -0.13109890
v -0.02201925 0.03253206 -0.13094169
v -0.02930935 0.02083234 -0.12887169
v -0.02885161 0.02050563 -0.13169588
v -0.02828745 0.02404405 -0.12877800
v -0.02842733 0.02164089 -0.13203527
v -0.02805323 0.02262787 -0.13221677
v -0.02757485 0.02386898 -0.13230358
v -0.02645360 0.02648672 -0.13232544
v -0.02925633 0.01941191 -0.13122249
v -0.02946836 0.01897469 -0.13072045
v -0.03004255 0.01763933 -0.12933652
v -0.03012217 0.01757740 -0.12895259
v -0.03022625 0.01715708 -0.12888479
v -0.03057370 0.01615479 -0.12801617
v -0.03179298 0.01111079 -0.12477680
v -0.03146695 0.01280021 -0.12567884
v -0.03134338 0.01423333 -0.12498534
v -0.03108248 0.01441660 -0.12670586
v -0.03077064 0.01750010 -0.12493133
v -0.03102847 0.01461975 -0.12684734
v -0.03132995 0.01739256 -0.12090801
v -0.03167854 0.01574729 -0.12022659
v -0.03171209 0.01421378 -0.12194514
v -0.03165356 0.01730389 -0.11825403
v -0.03069052 0.02061943 -0.12085865
v -0.03164181 0.01887270 -0.11602151
v -0.03190271 0.02097551 -0.11027770
v -0.03184380 0.02113273 -0.11061443
v -0.03169385 0.02323122 -0.10874823
v -0.03178460 0.02117528 -0.11111804
v -0.03116595 0.02344442 -0.11278066
v -0.03172215 0.02106889 -0.11187287
v -0.03167051 0.02079653 -0.11277743
v -0.03164864 0.02039665 -0.11360362
v -0.03159437 0.02876708 -0.10085304
v -0.03198956 0.02678160 -0.10084553
v -0.03133682 0.02762491 -0.10470092
v -0.03217505 0.02556597 -0.10084197
v -0.03165295 0.02610059 -0.10470091
v -0.03217651 0.02427230 -0.10260517
v -0.03214874 0.02300405 -0.10470249
v -0.03220910 0.02286529 -0.10426258
v -0.03225580 0.02162390 -0.10554729
v -0.03226788 0.02134710 -0.10581421
v -0.02890633 0.03188185 -0.10871934
v -0.02814341 0.03295406 -0.10871759
v -0.02960689 0.03068167 -0.10872152
v -0.03019915 0.02934163 -0.10872503
v -0.03067862 0.02788286 -0.10872996
v -0.03107123 0.02635081 -0.10873578
v -0.03041026 0.02658556 -0.11275396
v -0.02993816 0.02812484 -0.11274045
v -0.02936639 0.02958146 -0.11272755
v -0.02866572 0.03090422 -0.11271583
v -0.02784122 0.03206924 -0.11270520
v -0.02837564 0.03376340 -0.10570949
v -0.03125933 0.02046724 -0.11683902
v -0.03056219 0.02363884 -0.11679912
v -0.02966963 0.02679943 -0.11675510
v -0.02911635 0.02834508 -0.11673219
v -0.02845102 0.02979931 -0.11670949
v -0.02764130 0.03110546 -0.11668763
v -0.02669279 0.03223716 -0.11666650
v -0.02566279 0.03320923 -0.11664498
v -0.02372869 0.03088926 -0.13200539
v -0.02528112 0.03023889 -0.12855868
v -0.02639702 0.03013797 -0.12461802
v -0.02537579 0.03141142 -0.12457263
v -0.02418806 0.03248028 -0.12452704
v -0.02988082 0.02380863 -0.12080180
v -0.02885079 0.02698582 -0.12073845
v -0.02821643 0.02853665 -0.12070508
v -0.02745812 0.02998786 -0.12067141
v -0.02654066 0.03127774 -0.12063816
v -0.02547015 0.03237752 -0.12060522
v -0.02430899 0.03330339 -0.12057135
v -0.03004150 0.02074360 -0.12486657
v -0.02912197 0.02394655 -0.12479175
v -0.02795819 0.02713653 -0.12470790
v -0.02724519 0.02869087 -0.12466336
v -0.02502205 0.02911299 -0.13235188
v -0.02443817 0.02997378 -0.13226750
v -0.02436663 0.03007295 -0.13224806
v -0.02532091 0.03394136 -0.11494526
v -0.03175050 0.01270160 -0.12343089
v -0.03153279 0.01387974 -0.11107995
v -0.03141495 0.01309742 -0.11146042
v -0.03156151 0.01488149 -0.11105356
v -0.03237040 0.01853109 -0.10819207
v -0.03225709 0.01796585 -0.10860680
v -0.03212449 0.01968189 -0.10938836
v -0.03187750 0.02060678 -0.11055525
v -0.03114957 0.01113519 -0.11229901
v -0.03095774 0.00946305 -0.11289112
v -0.03074781 0.00920499 -0.11359333
v -0.03081865 0.01070101 -0.11342385
v -0.03090094 0.01211409 -0.11322569
v -0.03108746 0.01448429 -0.11276046
v -0.03133099 0.01676876 -0.11212832
v -0.03159218 0.01871640 -0.11141845
v -0.03092225 0.00911956 -0.11299948
v -0.03079426 0.00775128 -0.11338787
v -0.03063433 0.00581818 -0.11387384
v -0.03064083 0.00567303 -0.11384975
v -0.03062602 0.00543654 -0.11389463
v -0.03204213 0.01685251 -0.10936823
v -0.03171409 0.01500410 -0.11048393
v -0.03239965 -0.01876508 -0.10791124
v -0.03218990 -0.01978353 -0.10892777
v -0.03240043 -0.01863398 -0.10801176
v -0.03215655 -0.01947823 -0.10923292
v -0.03237615 -0.01843551 -0.10816234
v -0.03216942 -0.01987276 -0.10902556
v -0.03190203 -0.02090765 -0.11027880
v -0.03187683 -0.02053891 -0.11055634
v -0.03062563 -0.00530391 -0.11389463
v -0.03077418 -0.00738776 -0.11344656
v -0.03065055 -0.00638367 -0.11383244
v -0.03073239 -0.00885660 -0.11363367
v -0.03091168 -0.00888952 -0.11302919
v -0.03095669 -0.00932811 -0.11289161
v -0.03086562 -0.01147995 -0.11331081
v -0.03114181 -0.01094790 -0.11231971
v -0.03141043 -0.01294230 -0.11147035
v -0.03103424 -0.01382096 -0.11289458
v -0.03121896 -0.01572608 -0.11242144
v -0.03153101 -0.01374416 -0.11108070
v -0.03145361 -0.01764951 -0.11179931
v -0.03171260 -0.01487130 -0.11048310
v -0.03187833 -0.02053202 -0.11054938
v -0.03172141 -0.01951511 -0.11103744
v -0.03204281 -0.01673258 -0.10935861
v -0.03217327 -0.01741596 -0.10889902
v -0.03225451 -0.01782941 -0.10860787
v -0.03238980 0.01865894 -0.10809563
v -0.03218076 -0.02465375 -0.10193221
v -0.03218384 -0.02542997 -0.10084314
v -0.03165187 -0.02603323 -0.10470400
v -0.03131562 -0.02968907 -0.10095789
v -0.03100982 -0.03050817 -0.10120397
v -0.03045963 -0.03037675 -0.10470791
v -0.03092295 -0.03070860 -0.10128899
v -0.03062282 -0.03132375 -0.10161958
v -0.02988129 -0.03161415 -0.10471202
v -0.03172454 -0.02101013 -0.11183108
v -0.03178673 -0.02110793 -0.11109166
v -0.03116442 -0.02337681 -0.11278725
v -0.03169266 -0.02316375 -0.10875300
v -0.03184444 -0.02106203 -0.11060710
v -0.03217078 -0.02003543 -0.10876494
v -0.03056026 -0.02357104 -0.11680753
v -0.03164800 -0.02032859 -0.11360470
v -0.03167028 -0.02073508 -0.11276438
v -0.03164193 -0.01856897 -0.11637390
v -0.03125770 -0.02039947 -0.11684728
v -0.03165656 -0.01696464 -0.11861520
v -0.03068847 -0.02055144 -0.12086868
v -0.03130699 -0.01344340 -0.12610862
v -0.03165800 -0.01178520 -0.12515326
v -0.03134146 -0.01416512 -0.12499696
v -0.03179263 -0.01104240 -0.12477719
v -0.03175324 -0.01251384 -0.12354001
v -0.03171272 -0.01410096 -0.12199228
v -0.03076842 -0.01743188 -0.12494309
v -0.03168410 -0.01537600 -0.12058408
v -0.03132821 -0.01732458 -0.12091790
v -0.02984422 -0.01805867 -0.12981734
v -0.03032254 -0.01682318 -0.12864335
v -0.03011938 -0.01750888 -0.12896614
v -0.03037684 -0.01666957 -0.12850796
v -0.03070607 -0.01566873 -0.12767690
v -0.03114017 -0.01412497 -0.12655158
v -0.02842965 -0.02156344 -0.13203497
v -0.02885216 -0.02043315 -0.13169605
v -0.02930621 -0.02076378 -0.12888537
v -0.02925527 -0.01934417 -0.13122419
v -0.02646559 -0.02639019 -0.13232659
v -0.02730893 -0.02446483 -0.13231003
v -0.02828390 -0.02397544 -0.12879178
v -0.02757408 -0.02379981 -0.13230485
v -0.02805204 -0.02255979 -0.13221842
v -0.02724154 -0.02862253 -0.12467553
v -0.02509946 -0.02892204 -0.13235337
v -0.02582407 -0.02767801 -0.13233916
v -0.02380541 -0.03072767 -0.13204131
v -0.02391847 -0.03058934 -0.13209052
v -0.02527654 -0.03017014 -0.12857266
v -0.02402423 -0.03045626 -0.13213368
v -0.02421360 -0.03020938 -0.13220309
v -0.02207506 -0.03241701 -0.13098802
v -0.02236932 -0.03217295 -0.13120641
v -0.02415852 -0.03142636 -0.12851445
v -0.02280805 -0.03178195 -0.13150200
v -0.02310754 -0.03149295 -0.13168299
v -0.02119207 -0.03308872 -0.13019228
v -0.02129610 -0.03301271 -0.13030155
v -0.02286153 -0.03246456 -0.12845553
v -0.02167896 -0.03272723 -0.13066311
v -0.02048561 -0.03392162 -0.12751158
v -0.02041747 -0.03391561 -0.12770240
v -0.02145718 -0.03330330 -0.12839447
v -0.02039425 -0.03391115 -0.12778062
v -0.02031466 -0.03384825 -0.12831202
v -0.02031860 -0.03381809 -0.12846974
v -0.02033337 -0.03378611 -0.12861216
v -0.02042629 -0.03367674 -0.12899545
v -0.02045296 -0.03365171 -0.12906910
v -0.02072377 -0.03343226 -0.12959677
v -0.02814134 -0.03288629 -0.10872283
v -0.02651156 -0.03381338 -0.11152955
v -0.02694197 -0.03302199 -0.11270165
v -0.02466367 -0.03389960 -0.11675198
v -0.02565936 -0.03314104 -0.11665376
v -0.02323087 -0.03393904 -0.12054933
v -0.02430483 -0.03323492 -0.12058186
v -0.02289611 -0.03329316 -0.12449221
v -0.02834300 -0.03369844 -0.10581447
v -0.02925039 -0.03274091 -0.10471681
v -0.02853684 -0.03365583 -0.10523614
v -0.02876172 -0.03354952 -0.10467751
v -0.03018526 -0.03206011 -0.10218109
v -0.02971751 -0.03269027 -0.10287330
v -0.02947100 -0.03296494 -0.10328366
v -0.02922869 -0.03319907 -0.10372066
v -0.02883397 -0.03350539 -0.10451526
v -0.03094572 -0.02901845 -0.10470524
v -0.03159352 -0.02869975 -0.10085458
v -0.03136135 -0.02954639 -0.10093048
v -0.03219748 -0.02345918 -0.10343342
v -0.03224299 -0.02200504 -0.10503093
v -0.03214782 -0.02293670 -0.10470542
v -0.03226394 -0.02148764 -0.10554828
v -0.03231188 -0.02044025 -0.10652433
v -0.03003894 -0.02067536 -0.12487845
v -0.02911902 -0.02387829 -0.12480375
v -0.02987842 -0.02374062 -0.12081196
v -0.02699507 -0.02717327 -0.12868647
v -0.02795479 -0.02706822 -0.12472001
v -0.02821339 -0.02846858 -0.12071542
v -0.02884798 -0.02691777 -0.12074875
v -0.02911389 -0.02827724 -0.11674079
v -0.02966735 -0.02673161 -0.11676363
v -0.02993619 -0.02805717 -0.11274726
v -0.03040845 -0.02651793 -0.11276070
v -0.03067710 -0.02781535 -0.10873495
v -0.03106983 -0.02628330 -0.10874070
v -0.03133566 -0.02755752 -0.10470408
v -0.03192350 -0.02709393 -0.10084821
v -0.02537155 -0.03134292 -0.12458487
v -0.02639309 -0.03006957 -0.12463024
v -0.02653709 -0.03120953 -0.12064862
v -0.02745483 -0.02991975 -0.12068182
v -0.02763838 -0.03103750 -0.11669634
v -0.02844834 -0.02973143 -0.11671815
v -0.02866341 -0.03083645 -0.11272276
v -0.02936426 -0.02951375 -0.11273442
v -0.02960511 -0.03061406 -0.10872666
v -0.03019750 -0.02927407 -0.10873010
v -0.02418350 -0.03241165 -0.12453929
v -0.02546629 -0.03230920 -0.12061571
v -0.02668963 -0.03216909 -0.11667525
v -0.02783871 -0.03200139 -0.11271217
v -0.02890441 -0.03181417 -0.10872453
v -0.02453671 -0.02976375 -0.13229419
v -0.03257730 -0.01934214 -0.13186975
v -0.03316606 -0.01805705 -0.13046333
v -0.03364457 -0.01682113 -0.12928891
v -0.03369844 -0.01666876 -0.12915458
v -0.03406687 -0.01554015 -0.12822337
v -0.03449608 -0.01398909 -0.12710769
v -0.03464507 -0.01337261 -0.12671119
v -0.03499367 -0.01171109 -0.12576099
v -0.03511466 -0.01104037 -0.12542275
v -0.03514063 -0.01057807 -0.12520491
v -0.03512598 -0.01042033 -0.12513362
v -0.03180395 -0.01042238 -0.12448806
v -0.03181404 -0.01087740 -0.12469788
v -0.03181852 -0.01057854 -0.12455863
v -0.03128032 0.00392420 -0.12255215
v -0.03460234 0.00392613 -0.12319768
v -0.03465988 0.00524802 -0.12343658
v -0.03512632 0.01049278 -0.12513325
v -0.03180429 0.01049075 -0.12448770
v -0.03503475 0.00975219 -0.12481601
v -0.03171570 0.00977551 -0.12418086
v -0.03484649 0.00791987 -0.12414491
v -0.03152677 0.00794395 -0.12350783
v -0.03478182 0.00714072 -0.12390627
v -0.03146390 0.00719156 -0.12327605
v -0.03134067 0.00529986 -0.12280229
v -0.03127970 0.00390669 -0.12254946
v -0.03123428 0.00199127 -0.12233055
v -0.03455631 0.00199321 -0.12297610
v -0.03122481 0.00051678 -0.12226117
v -0.03122427 0.00003426 -0.12225669
v -0.03454629 0.00003629 -0.12290225
v -0.03514395 0.01080432 -0.12527551
v -0.03182192 0.01080228 -0.12462994
v -0.03511501 0.01111282 -0.12542234
v -0.03638584 0.01327685 -0.10515442
v -0.03306381 0.01327480 -0.10450885
v -0.03635009 0.01434463 -0.10446953
v -0.03302807 0.01434259 -0.10382397
v -0.03631758 0.01537703 -0.10373222
v -0.03630566 0.01578146 -0.10342142
v -0.03294463 0.01729170 -0.10149081
v -0.03626664 0.01729373 -0.10213637
v -0.03298363 0.01577942 -0.10277586
v -0.03299556 0.01537500 -0.10308667
v -0.03638423 0.01308269 -0.10527126
v -0.03306220 0.01308064 -0.10462570
v -0.03636642 0.01288820 -0.10538627
v -0.03304439 0.01288617 -0.10474072
v -0.03238114 -0.00615996 -0.10746388
v -0.03575017 -0.00684103 -0.10792728
v -0.03249396 -0.00769937 -0.10702436
v -0.03590457 -0.00871956 -0.10731903
v -0.03636613 -0.01281493 -0.10538630
v -0.03304410 -0.01281696 -0.10474075
v -0.03629916 -0.01230178 -0.10567918
v -0.03295884 -0.01216015 -0.10511279
v -0.03608903 -0.01054093 -0.10656930
v -0.03275044 -0.01039211 -0.10599219
v -0.03598766 -0.00958175 -0.10698465
v -0.03266563 -0.00958379 -0.10633909
v -0.03256765 -0.00855821 -0.10673283
v -0.03282749 0.01114462 -0.10567272
v -0.03614952 0.01114666 -0.10631828
v -0.03263517 0.00934495 -0.10646312
v -0.03595720 0.00934698 -0.10710867
v -0.03250134 0.00785834 -0.10699603
v -0.03582337 0.00786038 -0.10764159
v -0.03247175 0.00749023 -0.10711218
v -0.03579378 0.00749226 -0.10775775
v -0.03242059 0.00680732 -0.10731161
v -0.03574263 0.00680935 -0.10795717
v -0.03230378 0.00490072 -0.10776152
v -0.03562582 0.00490276 -0.10840709
v -0.03228024 0.00441640 -0.10785148
v -0.03560227 0.00441844 -0.10849703
v -0.03222469 0.00297067 -0.10806294
v -0.03554672 0.00297271 -0.10870849
v -0.03219419 0.00173416 -0.10817699
v -0.03551622 0.00173619 -0.10882255
v -0.03218227 0.00090865 -0.10821921
v -0.03550430 0.00091070 -0.10886477
v -0.03217854 0.00045412 -0.10823090
v -0.03550057 0.00045617 -0.10887646
v -0.03217709 0.00013394 -0.10823420
v -0.03549912 0.00013597 -0.10887977
v -0.03217689 0.00005389 -0.10823440
v -0.03549892 0.00005592 -0.10887995
v -0.03217684 0.00003388 -0.10823441
v -0.03549887 0.00003591 -0.10887997
v -0.03219960 -0.00193798 -0.10815693
v -0.03552118 -0.00191483 -0.10880414
v -0.03221603 -0.00260738 -0.10809539
v -0.03553807 -0.00260534 -0.10874096
v -0.03226018 -0.00388680 -0.10792766
v -0.03558105 -0.00385634 -0.10857766
v -0.03235884 -0.00580807 -0.10754986
v -0.03562988 -0.00490784 -0.10839113
v -0.03570317 -0.00615792 -0.10810944
v -0.03283183 0.01118197 -0.10565453
v -0.03638394 -0.01300939 -0.10527129
v -0.03306191 -0.01301143 -0.10462573
v -0.03638554 -0.01320358 -0.10515444
v -0.03306352 -0.01320561 -0.10450888
v -0.03602493 -0.02080485 -0.10147823
v -0.03288143 -0.02080679 -0.10086736
v -0.03610293 -0.01986464 -0.10151877
v -0.03288304 -0.01898417 -0.10100116
v -0.03294432 -0.01721954 -0.10149356
v -0.03626635 -0.01721750 -0.10213912
v -0.03288540 -0.01831743 -0.10114101
v -0.03620302 -0.01838984 -0.10176762
v -0.03616915 -0.01893145 -0.10164855
v -0.03288607 -0.02532878 -0.10097661
v -0.03491555 -0.02869770 -0.10150014
v -0.03520805 -0.02729977 -0.10149449
v -0.03545529 -0.02578302 -0.10148969
v -0.03557314 -0.02493184 -0.10148737
v -0.03288156 -0.02094188 -0.10087001
v -0.03601275 -0.02093994 -0.10147848
v -0.03350729 -0.03205808 -0.10282665
v -0.03394485 -0.03132171 -0.10226514
v -0.03424498 -0.03070656 -0.10193455
v -0.03433185 -0.03050614 -0.10184953
v -0.03463764 -0.02968704 -0.10160346
v -0.03468338 -0.02954436 -0.10157604
v -0.03303954 -0.03268823 -0.10351886
v -0.03279303 -0.03296291 -0.10392922
v -0.03255073 -0.03319702 -0.10436621
v -0.03166504 -0.03369639 -0.10646003
v -0.03185887 -0.03365380 -0.10588171
v -0.03208375 -0.03354748 -0.10532306
v -0.03215600 -0.03350335 -0.10516082
v -0.02798570 -0.03389756 -0.11739754
v -0.02983360 -0.03381133 -0.11217511
v -0.02380764 -0.03391959 -0.12815714
v -0.02655330 -0.03393700 -0.12119385
v -0.02377499 -0.03364966 -0.12971467
v -0.02404580 -0.03343021 -0.13024233
v -0.02374832 -0.03367470 -0.12964101
v -0.02365540 -0.03378407 -0.12925772
v -0.02371628 -0.03390912 -0.12842618
v -0.02363669 -0.03384621 -0.12895758
v -0.02364063 -0.03381605 -0.12911530
v -0.02451410 -0.03308667 -0.13083784
v -0.02461813 -0.03301066 -0.13094711
v -0.02500099 -0.03272520 -0.13130867
v -0.02539709 -0.03241498 -0.13163358
v -0.02734626 -0.03045424 -0.13277924
v -0.02753563 -0.03020733 -0.13284865
v -0.02785874 -0.02976170 -0.13293976
v -0.02842149 -0.02891999 -0.13299893
v -0.02642957 -0.03149090 -0.13232854
v -0.02724050 -0.03058730 -0.13273609
v -0.02712744 -0.03072563 -0.13268687
v -0.02569135 -0.03217093 -0.13185197
v -0.02914610 -0.02767597 -0.13298473
v -0.02978761 -0.02638814 -0.13297215
v -0.03063096 -0.02446279 -0.13295560
v -0.03089612 -0.02379778 -0.13295041
v -0.03361379 0.01697964 -0.12936805
v -0.03339415 0.01756576 -0.12990969
v -0.03282296 0.01890709 -0.13128848
v -0.03257836 0.01941395 -0.13186805
v -0.03410153 0.01549782 -0.12813754
v -0.03440261 0.01442584 -0.12735638
v -0.03478784 0.01280753 -0.12632747
v -0.03628982 -0.01626418 -0.10297270
v -0.03296779 -0.01626622 -0.10232714
v -0.03631823 -0.01527059 -0.10375770
v -0.03299620 -0.01527262 -0.10311215
v -0.03300893 -0.01485951 -0.10341547
v -0.03633096 -0.01485746 -0.10406103
v -0.03217418 -0.02043111 -0.13234161
v -0.03175168 -0.02156140 -0.13268054
v -0.03137407 -0.02255775 -0.13286397
v -0.03466410 -0.00525518 -0.12345520
v -0.03134207 -0.00525721 -0.12280963
v -0.03474750 -0.00660856 -0.12377823
v -0.03146476 -0.00713821 -0.12328003
v -0.03485441 -0.00794072 -0.12417445
v -0.03152503 -0.00786060 -0.12350211
v -0.03491922 -0.00862178 -0.12440854
v -0.03165285 -0.00915583 -0.12396114
v -0.03455070 -0.00132282 -0.12293772
v -0.03123418 -0.00192037 -0.12233040
v -0.03456907 -0.00267807 -0.12304554
v -0.03124538 -0.00260032 -0.12239157
v -0.03458558 -0.00333216 -0.12312417
v -0.03128320 -0.00393461 -0.12256604
v -0.03089688 0.02387101 -0.13294914
v -0.03134885 0.02269907 -0.13287126
v -0.03178821 0.02153959 -0.13265587
v -0.03215465 0.02055880 -0.13235991
v -0.02842242 0.02899332 -0.13299739
v -0.02938444 0.02729220 -0.13297862
v -0.02977563 0.02648875 -0.13297100
v -0.02692737 0.03103446 -0.13259204
v -0.02727615 0.03061721 -0.13274953
v -0.02783858 0.02986549 -0.13293231
v -0.02660062 0.03139100 -0.13242136
v -0.02648286 0.03151215 -0.13235508
v -0.02571559 0.03222473 -0.13186552
v -0.02554769 0.03236604 -0.13174446
v -0.02497950 0.03281564 -0.13128723
v -0.02477769 0.03296689 -0.13110311
v -0.02450535 0.03316698 -0.13082634
v -0.02439705 0.03324565 -0.13070585
v -0.02423405 0.03336452 -0.13050625
v -0.02408982 0.03347120 -0.13030602
v -0.02388831 0.03362805 -0.12995961
v -0.02381167 0.03369221 -0.12979567
v -0.02369364 0.03380984 -0.12943099
v -0.02366657 0.03384659 -0.12929176
v -0.02365573 0.03394316 -0.12878318
v -0.02371023 0.03397801 -0.12846474
v -0.02380872 0.03399279 -0.12815535
v -0.02474711 0.03401496 -0.12579890
v -0.02803129 0.03396842 -0.11727481
v -0.02864294 0.03394341 -0.11559082
v -0.02502858 0.03401802 -0.12508948
v -0.02655462 0.03400976 -0.12119143
v -0.03076161 0.03382819 -0.10936216
v -0.03166611 0.03376821 -0.10645824
v -0.03171230 0.03376342 -0.10630883
v -0.03174616 0.03375670 -0.10620656
v -0.03207075 0.03362453 -0.10536009
v -0.03339077 0.03230165 -0.10299002
v -0.03292616 0.03289158 -0.10370456
v -0.03258815 0.03323589 -0.10429636
v -0.03247031 0.03333968 -0.10451929
v -0.03381113 0.03163753 -0.10242739
v -0.03484866 0.02904068 -0.10150757
v -0.03491639 0.02876913 -0.10149860
v -0.03460197 0.02986646 -0.10162941
v -0.03446041 0.03025803 -0.10173824
v -0.03392766 0.03142678 -0.10228617
v -0.03429039 0.03067505 -0.10189288
v -0.03285782 0.02546838 -0.10097173
v -0.03534051 0.02660765 -0.10149053
v -0.03602559 0.02087627 -0.10147712
v -0.03285821 0.02087432 -0.10086161
v -0.03582495 0.02290969 -0.10148114
v -0.03558244 0.02493859 -0.10148588
v -0.03288035 0.01847665 -0.10112015
v -0.03616290 0.01910291 -0.10163330
v -0.03621946 0.01818673 -0.10184214
v -0.03286189 0.01906315 -0.10099818
v -0.03286318 0.01875616 -0.10105571
v -0.03612549 0.01964005 -0.10155215
v -0.03174213 -0.01394918 -0.12166651
v -0.03178404 -0.01221265 -0.12339315
v -0.03171316 -0.01371111 -0.12139825
v -0.03176113 -0.01196033 -0.12317186
v -0.03167406 -0.01529482 -0.11953058
v -0.03164442 -0.01678398 -0.11752980
v -0.03168736 -0.01711020 -0.11775565
v -0.03162510 -0.01827706 -0.11526912
v -0.03167930 -0.01857466 -0.11559568
v -0.03162004 -0.01954364 -0.11313749
v -0.03168688 -0.01993454 -0.11337057
v -0.03185955 -0.02058300 -0.11065067
v -0.03180945 -0.02056147 -0.11099526
v -0.03174920 -0.02064393 -0.11189282
v -0.03172013 -0.02029275 -0.11186112
v -0.03170663 -0.02034847 -0.11267010
v -0.03166128 -0.01994167 -0.11259402
v -0.03041324 -0.00212407 -0.11597693
v -0.03041244 -0.00144728 -0.11598085
v -0.03050383 -0.00144730 -0.11432917
v -0.03044909 -0.00543732 -0.11586746
v -0.03048006 -0.00654908 -0.11477527
v -0.03047992 -0.00672023 -0.11578923
v -0.03070860 -0.01162345 -0.11425771
v -0.03068342 -0.01120885 -0.11534045
v -0.03054416 -0.00856880 -0.11563978
v -0.03150053 -0.01896689 -0.11230959
v -0.03131117 -0.01758013 -0.11389716
v -0.03116417 -0.01658798 -0.11317424
v -0.03105765 -0.01554175 -0.11451562
v -0.03090205 -0.01413132 -0.11381860
v -0.03085035 -0.01342980 -0.11498625
v -0.03073453 -0.01196090 -0.11523323
v -0.03054771 -0.00355048 -0.11415264
v -0.03059364 -0.00469298 -0.11399510
v -0.03062502 -0.00527374 -0.11389617
v -0.03162441 0.01965221 -0.11309242
v -0.03162061 0.01961166 -0.11313646
v -0.03168755 0.02000330 -0.11336994
v -0.03167310 0.02009123 -0.11245565
v -0.03170728 0.02041821 -0.11266971
v -0.03174369 0.02045466 -0.11160585
v -0.03186229 0.02064824 -0.11063758
v -0.03182430 0.02064951 -0.11088783
v -0.03179976 0.02061136 -0.11107757
v -0.03180332 0.01052615 -0.12445993
v -0.03168144 0.01803684 -0.11651756
v -0.03177399 0.01160966 -0.12355798
v -0.03173157 0.01319662 -0.12204006
v -0.03169337 0.01472430 -0.12034480
v -0.03165676 0.01634445 -0.11826019
v -0.03163129 0.01788186 -0.11600573
v -0.03132198 0.01772921 -0.11385889
v -0.03114792 0.01172731 -0.11860542
v -0.03165275 0.01618481 -0.11842196
v -0.03106866 0.01572709 -0.11446395
v -0.03084642 0.00636112 -0.11871610
v -0.03045132 0.00556220 -0.11587109
v -0.03041350 0.00223472 -0.11597689
v -0.03041248 0.00151550 -0.11598077
v -0.03041236 0.00003410 -0.11597882
v -0.03095906 0.01468835 -0.11472109
v -0.03085429 0.01355717 -0.11496145
v -0.03068503 0.01130131 -0.11533549
v -0.03054319 0.00859772 -0.11564576
v -0.03041212 0.00151547 -0.11496110
v -0.03050321 0.00151542 -0.11433230
v -0.03049810 0.00077515 -0.11435831
v -0.03049668 0.00003406 -0.11436646
v -0.03047798 0.00654131 -0.11478221
v -0.03062539 0.00540630 -0.11389628
v -0.03059385 0.00482207 -0.11399571
v -0.03053739 0.00333570 -0.11419192
v -0.03051792 0.00252385 -0.11426801
v -0.03066678 0.01101184 -0.11435183
v -0.03123403 0.01720122 -0.11299895
v -0.03167789 0.02009605 -0.11184099
v -0.03090956 0.01427842 -0.11380307
v -0.03049938 -0.00089202 -0.11435153
v -0.03114754 -0.01165899 -0.11860595
v -0.03084621 -0.00629277 -0.11871634
v -0.03503519 -0.01370906 -0.12204381
v -0.03508316 -0.01195830 -0.12381741
v -0.03510607 -0.01221062 -0.12403871
v -0.03506416 -0.01394715 -0.12231206
v -0.03507527 -0.01251181 -0.12418557
v -0.03503475 -0.01409892 -0.12263784
v -0.03466417 0.01423555 -0.12564032
v -0.03522474 0.02097755 -0.11092325
v -0.03551259 0.01985320 -0.10957216
v -0.03549371 0.02010497 -0.10940693
v -0.03561883 0.01936278 -0.10906048
v -0.03575922 0.01863307 -0.10837289
v -0.03613547 0.01677399 -0.10535219
v -0.03596519 0.01734224 -0.10734145
v -0.03613641 0.01598647 -0.10646746
v -0.03629483 0.01439733 -0.10564083
v -0.03517668 0.02111204 -0.11118931
v -0.03501575 0.02323332 -0.10939483
v -0.03510999 0.02117863 -0.11172963
v -0.03448754 0.02344662 -0.11342933
v -0.03505147 0.02109350 -0.11241505
v -0.03388339 0.02364112 -0.11744987
v -0.03497067 0.02039868 -0.11424918
v -0.03499334 0.02080541 -0.11340498
v -0.03401145 0.02062171 -0.12151144
v -0.03497558 0.01731062 -0.11889295
v -0.03458067 0.02046949 -0.11748979
v -0.03496578 0.01838103 -0.11739697
v -0.03496386 0.01886740 -0.11667802
v -0.03503497 0.01418164 -0.12262639
v -0.03500066 0.01574457 -0.12087786
v -0.03465105 0.01739482 -0.12156084
v -0.03499332 0.01614013 -0.12039890
v -0.03409127 0.01750236 -0.12558627
v -0.03507281 0.01270400 -0.12407336
v -0.03344222 0.01757961 -0.12960958
v -0.03262918 0.02083458 -0.12952866
v -0.03160700 0.02404630 -0.12943488
v -0.03056488 0.02869321 -0.12531814
v -0.02859991 0.03024114 -0.12921545
v -0.02748195 0.03149741 -0.12915719
v -0.02618503 0.03253569 -0.12909821
v -0.02478071 0.03337448 -0.12903710
v -0.02621973 0.03336407 -0.12513460
v -0.02762852 0.03330557 -0.12122399
v -0.02898310 0.03321141 -0.11729563
v -0.03026575 0.03309210 -0.11334327
v -0.03146514 0.03295613 -0.10936417
v -0.03257419 0.03281049 -0.10535788
v -0.03320497 0.03168365 -0.10535316
v -0.03378320 0.03044620 -0.10534911
v -0.03547088 0.02300602 -0.10534699
v -0.03336191 0.02074590 -0.12552148
v -0.03244213 0.02394887 -0.12544660
v -0.03320155 0.02381095 -0.12145457
v -0.03497512 0.02610257 -0.10534541
v -0.03465901 0.02762688 -0.10534541
v -0.03439310 0.02635291 -0.10938238
v -0.03400047 0.02788497 -0.10937654
v -0.03373174 0.02658778 -0.11340263
v -0.03325958 0.02812706 -0.11338911
v -0.03299065 0.02680173 -0.11740582
v -0.03243726 0.02834740 -0.11738290
v -0.03217127 0.02698816 -0.12139120
v -0.03153675 0.02853901 -0.12135779
v -0.03127806 0.02713886 -0.12536271
v -0.03031830 0.02724418 -0.12932943
v -0.02869504 0.03141372 -0.12522735
v -0.02971651 0.03014031 -0.12527278
v -0.02986063 0.03128005 -0.12129086
v -0.03077829 0.02999020 -0.12132411
v -0.03096195 0.03110775 -0.11733831
v -0.03177181 0.02980162 -0.11736018
v -0.03198698 0.03090641 -0.11336447
v -0.03268774 0.02958367 -0.11337620
v -0.03292869 0.03068377 -0.10936812
v -0.03352097 0.02934373 -0.10937162
v -0.03426917 0.02908785 -0.10534650
v -0.02750706 0.03248250 -0.12518173
v -0.02878990 0.03237978 -0.12125789
v -0.03001329 0.03223940 -0.11731716
v -0.03116239 0.03207142 -0.11335383
v -0.03222810 0.03188394 -0.10936593
v -0.03525132 0.01032310 -0.11003695
v -0.03390947 0.00151748 -0.11464341
v -0.03391017 0.00003608 -0.11464125
v -0.03503320 0.00003600 -0.11072697
v -0.03414029 0.01070336 -0.11406987
v -0.03409354 0.00976009 -0.11418229
v -0.03397036 0.00636704 -0.11448351
v -0.03391420 0.00291188 -0.11462937
v -0.03493317 0.01868812 -0.11198336
v -0.03465347 0.01677413 -0.11277166
v -0.03442688 0.01467966 -0.11336155
v -0.03531932 0.01552952 -0.11006661
v -0.03543578 0.01972860 -0.11008544
v -0.03520102 0.02060194 -0.11119385
v -0.03519952 0.02060883 -0.11120081
v -0.03424517 0.01245696 -0.11381690
v -0.03491745 0.01873881 -0.11205337
v -0.03589059 0.01736956 -0.10784476
v -0.03567798 0.01860869 -0.10890906
v -0.03558726 0.01905899 -0.10935414
v -0.03621544 0.01468412 -0.10618360
v -0.03606038 0.01612039 -0.10698279
v -0.03501111 -0.01513015 -0.12151147
v -0.03500132 -0.01857262 -0.11624124
v -0.03494698 -0.01826996 -0.11592133
v -0.03496410 -0.01860696 -0.11695737
v -0.03496649 -0.01678018 -0.11817797
v -0.03498000 -0.01686944 -0.11938203
v -0.03499617 -0.01529374 -0.12017567
v -0.03497003 -0.02032656 -0.11425027
v -0.03500891 -0.01993250 -0.11401612
v -0.03494206 -0.01954160 -0.11378305
v -0.03522406 -0.02090561 -0.11092436
v -0.03519887 -0.02053688 -0.11120190
v -0.03517763 -0.02103743 -0.11117858
v -0.03518321 -0.02057943 -0.11128778
v -0.03505829 -0.02035850 -0.11232548
v -0.03498910 -0.01998366 -0.11316307
v -0.03502866 -0.02034643 -0.11331566
v -0.03516432 -0.02059142 -0.11140448
v -0.03513021 -0.02055783 -0.11165008
v -0.03511958 -0.02110697 -0.11163223
v -0.03504772 -0.02101174 -0.11246013
v -0.03499366 -0.02074447 -0.11337959
v -0.03547871 -0.01947678 -0.10987805
v -0.03550944 -0.01979069 -0.10958705
v -0.03576058 -0.01854919 -0.10836677
v -0.03572078 -0.01831163 -0.10869566
v -0.03597396 -0.01720427 -0.10729501
v -0.03592614 -0.01705514 -0.10766327
v -0.03625123 -0.01422281 -0.10599509
v -0.03609361 -0.01576271 -0.10681083
v -0.03614624 -0.01582295 -0.10641435
v -0.03617359 -0.01502815 -0.10639900
v -0.03621190 -0.01520140 -0.10607390
v -0.03629503 -0.01431827 -0.10563786
v -0.03417687 -0.01130663 -0.11398211
v -0.03413998 -0.01063174 -0.11407035
v -0.03398851 -0.01094170 -0.11499738
v -0.03507472 -0.01972765 -0.11158834
v -0.03520036 -0.02052999 -0.11119494
v -0.03463715 -0.01760719 -0.11453090
v -0.03455553 -0.01713106 -0.11364485
v -0.03499922 -0.02002554 -0.11248723
v -0.03439151 -0.01564702 -0.11513140
v -0.03423118 -0.01420825 -0.11444881
v -0.03428373 -0.01462500 -0.11538421
v -0.03379985 -0.00647107 -0.11542753
v -0.03386043 -0.00842112 -0.11630033
v -0.03401336 -0.01133286 -0.11596800
v -0.03419401 -0.01367460 -0.11558370
v -0.03373528 -0.00210527 -0.11662307
v -0.03377168 -0.00542744 -0.11651900
v -0.03380038 -0.00663973 -0.11644480
v -0.03373447 -0.00144526 -0.11662640
v -0.03373416 -0.00144527 -0.11560616
v -0.03390941 -0.00144530 -0.11464348
v -0.03394022 -0.00494859 -0.11455956
v -0.03403759 -0.00837994 -0.11431774
v -0.03432801 -0.01349208 -0.11361127
v -0.03453776 -0.01570203 -0.11307515
v -0.03464322 -0.01662199 -0.11279831
v -0.03479157 -0.01777715 -0.11240123
v -0.03531891 -0.01545763 -0.11006711
v -0.03525107 -0.01025120 -0.11003718
v -0.03502931 0.02042024 -0.11331526
v -0.03507186 0.02071550 -0.11253767
v -0.03507006 0.02047181 -0.11220650
v -0.03518422 0.02065077 -0.11128461
v -0.03514860 0.02065396 -0.11151581
v -0.03512172 0.02061335 -0.11172312
v -0.03494873 0.01967889 -0.11371020
v -0.03499373 0.02008305 -0.11312009
v -0.03500958 0.02000535 -0.11401550
v -0.03494265 0.01961370 -0.11378202
v -0.03509142 0.01177532 -0.12405653
v -0.03500347 0.01803887 -0.11716311
v -0.03495357 0.01790044 -0.11662904
v -0.03497836 0.01639973 -0.11883686
v -0.03502803 0.01584930 -0.12016402
v -0.03499570 0.01557205 -0.11994095
v -0.03501069 0.01491991 -0.12075607
v -0.03504746 0.01344008 -0.12243406
v -0.03465915 0.01783617 -0.11447043
v -0.03400302 0.01123725 -0.11599036
v -0.03419672 0.01379207 -0.11556088
v -0.03497478 0.01618685 -0.11906751
v -0.03428104 0.01468962 -0.11536710
v -0.03439569 0.01577227 -0.11509929
v -0.03446995 0.01172936 -0.11925098
v -0.03384665 0.00813249 -0.11633272
v -0.03416845 0.00636315 -0.11936165
v -0.03378210 0.00596785 -0.11649388
v -0.03373439 0.00003614 -0.11662438
v -0.03373451 0.00151754 -0.11662633
v -0.03373505 0.00204248 -0.11662424
v -0.03377056 0.00542435 -0.11652406
v -0.03373243 0.00003610 -0.11562654
v -0.03373216 0.00151750 -0.11562858
v -0.03500025 0.02010067 -0.11248840
v -0.03455593 0.01720375 -0.11364730
v -0.03423141 0.01428080 -0.11445145
v -0.03398855 0.01101381 -0.11500027
v -0.03379973 0.00654362 -0.11543064
v -0.03416824 -0.00629074 -0.11936191
v -0.03446957 -0.01165696 -0.11925151
v -0.03466358 -0.01416306 -0.12564181
v -0.03501495 -0.02316159 -0.10939639
v -0.03448671 -0.02337467 -0.11343101
v -0.03547011 -0.02293453 -0.10534844
v -0.03549301 -0.02003330 -0.10940833
v -0.03426819 -0.02901626 -0.10534827
v -0.03465808 -0.02755531 -0.10534711
v -0.03497424 -0.02603103 -0.10534702
v -0.03378217 -0.03037457 -0.10535095
v -0.03257308 -0.03273878 -0.10535984
v -0.03320390 -0.03161198 -0.10535507
v -0.02762723 -0.03323287 -0.12122637
v -0.02621839 -0.03329112 -0.12513709
v -0.02477934 -0.03330126 -0.12903969
v -0.02618369 -0.03246252 -0.12910075
v -0.02748065 -0.03142432 -0.12915969
v -0.02859867 -0.03016809 -0.12921788
v -0.03031718 -0.02717122 -0.12933169
v -0.03160600 -0.02397340 -0.12943700
v -0.03344147 -0.01750683 -0.12961136
v -0.03262831 -0.02076174 -0.12953058
v -0.03409056 -0.01742982 -0.12558794
v -0.03222698 -0.03181202 -0.10936795
v -0.03292762 -0.03061190 -0.10937007
v -0.03351995 -0.02927191 -0.10937350
v -0.03399950 -0.02781317 -0.10937835
v -0.03439219 -0.02628114 -0.10938410
v -0.03373080 -0.02651578 -0.11340447
v -0.03325858 -0.02805504 -0.11339103
v -0.03268668 -0.02951162 -0.11337820
v -0.03198587 -0.03083431 -0.11336654
v -0.03116124 -0.03199927 -0.11335596
v -0.03026455 -0.03301991 -0.11334544
v -0.03146399 -0.03288417 -0.10936625
v -0.02898186 -0.03313896 -0.11729791
v -0.03001208 -0.03216701 -0.11731940
v -0.03096079 -0.03103540 -0.11734048
v -0.03177071 -0.02972932 -0.11736229
v -0.03243622 -0.02827514 -0.11738493
v -0.03298966 -0.02672950 -0.11740777
v -0.03388252 -0.02356894 -0.11745165
v -0.03457993 -0.02039738 -0.11749141
v -0.03056374 -0.02862047 -0.12532039
v -0.02971532 -0.03006751 -0.12527509
v -0.02869379 -0.03134086 -0.12522973
v -0.02750575 -0.03240959 -0.12518416
v -0.03465038 -0.01732252 -0.12156240
v -0.03401066 -0.02054937 -0.12151317
v -0.03320064 -0.02373854 -0.12145646
v -0.03217024 -0.02691570 -0.12139326
v -0.03153567 -0.02846650 -0.12135993
v -0.03077714 -0.02991766 -0.12132632
v -0.02985943 -0.03120746 -0.12129313
v -0.02878865 -0.03230713 -0.12126022
v -0.03127698 -0.02706615 -0.12536487
v -0.03244118 -0.02387623 -0.12544860
v -0.03336109 -0.02067330 -0.12552331
v -0.03303083 -0.01782893 -0.10859273
v -0.03287730 0.02476723 -0.10194801
v -0.03306130 0.01388008 -0.11105032
v -0.03301097 0.01796609 -0.10859218
v -0.03310934 -0.00932652 -0.11284965
v -0.03312822 -0.00468570 -0.11394645
v -0.03307662 -0.01374278 -0.11105074
v -0.03297305 -0.02148728 -0.10553437
v -0.03290470 -0.02463041 -0.10194877
v -0.03294915 0.02162429 -0.10553371
v -0.03309892 0.00946390 -0.11284935
v -0.03312294 0.00482315 -0.11394631
v -0.03313278 0.00006873 -0.11431494
f 1 2 3
f 2 1 4
f 4 77 2
f 2 77 92
f 77 91 92
f 77 89 91
f 98 89 77
f 98 87 89
f 97 87 98
f 97 85 87
f 96 85 97
f 97 101 96
f 97 100 101
f 100 109 101
f 101 109 110
f 109 122 110
f 110 122 123
f 110 123 111
f 102 110 111
f 102 111 103
f 103 111 112
f 111 124 112
f 30 112 124
f 30 124 28
f 28 29 30
f 28 33 29
f 28 31 33
f 31 32 33
f 31 39 32
f 31 38 39
f 37 38 31
f 31 36 37
f 31 35 36
f 34 35 31
f 31 44 34
f 31 43 44
f 42 43 31
f 117 42 31
f 116 42 117
f 116 47 42
f 47 48 42
f 42 48 49
f 42 49 40
f 40 41 42
f 47 46 48
f 45 46 47
f 114 45 47
f 114 47 115
f 115 130 114
f 114 130 131
f 114 131 113
f 115 129 130
f 128 129 115
f 115 120 128
f 128 120 119
f 128 119 127
f 127 7 128
f 127 5 7
f 126 5 127
f 126 52 5
f 125 52 126
f 125 50 52
f 67 50 125
f 125 69 67
f 67 69 71
f 67 71 65
f 65 71 133
f 610 133 71
f 610 71 611
f 611 71 70
f 611 70 612
f 616 611 612
f 616 612 617
f 617 612 613
f 617 613 618
f 618 624 617
f 640 624 618
f 625 624 640
f 625 640 626
f 626 640 637
f 146 637 640
f 146 640 638
f 146 638 147
f 147 638 639
f 147 639 148
f 136 147 148
f 148 154 136
f 136 154 155
f 136 155 134
f 155 912 134
f 155 913 912
f 912 135 134
f 912 141 135
f 920 141 912
f 920 142 141
f 141 142 143
f 142 149 143
f 143 149 150
f 143 150 151
f 632 143 151
f 632 151 153
f 632 153 633
f 633 634 632
f 632 634 635
f 632 635 628
f 621 632 628
f 620 632 621
f 627 632 620
f 619 627 620
f 619 626 627
f 616 626 619
f 619 337 616
f 619 338 337
f 329 337 338
f 336 337 329
f 336 335 337
f 334 335 336
f 334 333 335
f 332 333 334
f 332 331 333
f 608 333 331
f 608 331 346
f 608 346 610
f 610 616 608
f 331 345 346
f 331 330 345
f 346 345 347
f 346 347 63
f 479 63 347
f 479 64 63
f 478 64 479
f 478 66 64
f 68 66 478
f 477 68 478
f 477 62 68
f 473 62 477
f 473 61 62
f 59 61 473
f 473 474 59
f 59 474 475
f 59 475 58
f 58 475 476
f 58 476 57
f 506 57 476
f 506 51 57
f 505 51 506
f 505 53 51
f 504 53 505
f 504 54 53
f 503 54 504
f 503 55 54
f 509 55 503
f 509 56 55
f 508 56 509
f 508 6 56
f 507 6 508
f 507 7 6
f 507 129 7
f 512 129 507
f 512 130 129
f 511 130 512
f 511 131 130
f 510 131 511
f 510 113 131
f 510 45 113
f 513 45 510
f 513 514 45
f 684 514 513
f 684 515 514
f 685 515 684
f 684 722 685
f 684 711 722
f 683 711 684
f 683 712 711
f 711 712 713
f 713 712 714
f 682 714 712
f 708 714 682
f 709 708 682
f 709 682 710
f 710 682 507
f 507 682 683
f 683 512 507
f 683 511 512
f 710 507 508
f 508 509 710
f 710 509 681
f 509 503 681
f 681 503 504
f 504 505 681
f 681 505 680
f 681 680 697
f 709 681 697
f 709 697 707
f 707 697 698
f 707 698 705
f 705 706 707
f 707 706 708
f 706 716 708
f 706 718 716
f 704 718 706
f 704 720 718
f 719 718 720
f 719 720 694
f 694 720 721
f 702 721 720
f 700 721 702
f 701 700 702
f 701 702 703
f 703 702 704
f 703 704 705
f 705 665 703
f 703 665 663
f 665 666 663
f 665 670 666
f 665 668 670
f 698 668 665
f 698 696 668
f 677 668 696
f 677 696 679
f 679 473 677
f 677 473 477
f 677 477 650
f 673 677 650
f 675 677 673
f 673 674 675
f 675 674 676
f 826 676 674
f 826 669 676
f 823 669 826
f 825 823 826
f 825 826 827
f 833 825 827
f 833 827 828
f 836 833 828
f 831 833 836
f 831 836 837
f 837 850 831
f 831 850 849
f 831 849 832
f 832 849 848
f 832 848 834
f 848 835 834
f 848 830 835
f 847 830 848
f 847 818 830
f 818 821 830
f 818 820 821
f 820 823 821
f 820 672 823
f 666 672 820
f 812 666 820
f 667 666 812
f 667 812 813
f 813 664 667
f 813 814 664
f 814 662 664
f 662 663 664
f 662 661 663
f 660 661 662
f 816 660 662
f 815 660 816
f 815 816 741
f 741 816 743
f 816 817 743
f 846 743 817
f 846 817 814
f 819 846 814
f 846 819 847
f 812 819 814
f 818 819 812
f 847 743 846
f 847 736 743
f 735 743 736
f 735 740 743
f 737 740 735
f 737 738 740
f 738 739 740
f 738 746 739
f 738 745 746
f 744 745 738
f 655 745 744
f 655 744 657
f 656 655 657
f 559 655 656
f 656 355 559
f 656 353 355
f 656 352 353
f 350 352 656
f 656 348 350
f 656 659 348
f 659 358 348
f 659 747 358
f 747 360 358
f 727 360 747
f 727 747 738
f 742 727 738
f 731 727 742
f 731 732 727
f 727 732 733
f 732 849 733
f 727 733 730
f 730 390 727
f 727 390 388
f 727 388 386
f 386 384 727
f 384 382 727
f 727 382 380
f 727 380 378
f 378 376 727
f 730 392 390
f 394 392 730
f 396 394 730
f 730 398 396
f 730 400 398
f 402 400 730
f 404 402 730
f 730 406 404
f 730 408 406
f 811 408 730
f 730 804 811
f 811 804 805
f 811 805 784
f 784 783 811
f 811 783 806
f 811 806 810
f 810 368 811
f 810 777 368
f 777 366 368
f 413 366 777
f 413 777 415
f 777 782 415
f 777 781 782
f 482 782 781
f 482 781 480
f 480 781 779
f 780 779 781
f 778 779 780
f 778 775 779
f 776 775 778
f 774 775 776
f 810 774 776
f 810 771 774
f 771 773 774
f 771 772 773
f 772 857 773
f 854 857 772
f 854 856 857
f 856 417 857
f 856 432 417
f 856 430 432
f 860 430 856
f 879 860 856
f 878 860 879
f 879 881 878
f 878 881 882
f 878 882 877
f 877 859 878
f 877 858 859
f 858 428 859
f 859 428 429
f 859 429 860
f 858 427 428
f 438 427 858
f 858 437 438
f 858 436 437
f 861 436 858
f 861 435 436
f 434 435 861
f 434 861 863
f 863 433 434
f 863 439 433
f 270 433 439
f 270 439 271
f 271 439 440
f 271 440 272
f 272 440 441
f 862 441 440
f 445 441 862
f 862 444 445
f 444 273 445
f 445 273 272
f 444 268 273
f 267 268 444
f 443 267 444
f 443 265 267
f 442 265 443
f 447 265 442
f 447 258 265
f 446 258 447
f 887 446 447
f 447 885 887
f 887 885 884
f 887 884 888
f 888 884 883
f 888 883 889
f 889 883 882
f 889 882 890
f 890 905 889
f 889 905 906
f 898 906 905
f 865 906 898
f 865 864 906
f 888 906 864
f 449 864 865
f 865 448 449
f 865 454 448
f 454 247 448
f 454 248 247
f 250 248 454
f 454 251 250
f 454 252 251
f 253 252 454
f 454 455 253
f 456 253 455
f 453 253 456
f 453 254 253
f 255 254 453
f 452 255 453
f 866 452 453
f 450 452 866
f 866 451 450
f 450 451 256
f 451 243 256
f 451 244 243
f 457 244 451
f 457 458 244
f 867 458 457
f 867 457 866
f 898 867 866
f 897 867 898
f 897 868 867
f 896 868 897
f 897 904 896
f 897 905 904
f 896 904 903
f 896 903 895
f 895 869 896
f 895 464 869
f 870 464 895
f 870 469 464
f 470 469 870
f 470 870 471
f 471 870 871
f 870 908 871
f 871 908 909
f 871 909 873
f 873 486 871
f 871 486 487
f 871 487 488
f 472 871 488
f 873 314 486
f 314 313 486
f 872 314 873
f 872 315 314
f 872 874 315
f 874 316 315
f 874 317 316
f 318 317 874
f 853 318 874
f 319 318 853
f 319 853 320
f 320 853 648
f 853 649 648
f 853 749 649
f 647 649 749
f 749 644 647
f 749 755 644
f 754 755 749
f 754 753 755
f 752 753 754
f 752 751 753
f 751 788 753
f 753 788 791
f 788 789 791
f 791 789 792
f 791 792 793
f 791 793 755
f 755 793 797
f 755 797 852
f 852 797 796
f 852 796 851
f 851 796 795
f 851 795 800
f 794 800 795
f 794 795 785
f 785 784 794
f 794 799 800
f 798 799 794
f 344 799 798
f 344 798 801
f 801 798 802
f 802 844 801
f 802 729 844
f 803 729 802
f 729 803 730
f 728 729 730
f 730 734 728
f 734 845 728
f 734 850 845
f 733 850 734
f 850 843 845
f 845 843 842
f 845 842 841
f 841 844 845
f 841 840 844
f 840 841 344
f 344 841 842
f 344 842 838
f 838 341 344
f 838 328 341
f 329 328 838
f 838 336 329
f 838 334 336
f 836 334 838
f 836 332 334
f 330 332 836
f 836 822 330
f 829 822 836
f 829 678 822
f 822 678 347
f 822 347 345
f 678 650 347
f 479 347 650
f 650 478 479
f 829 673 678
f 345 330 822
f 838 842 843
f 838 843 839
f 837 838 839
f 850 839 843
f 845 729 728
f 802 794 803
f 803 794 804
f 845 844 729
f 801 844 840
f 801 840 344
f 851 799 344
f 851 344 497
f 497 499 851
f 851 499 501
f 851 501 489
f 489 491 851
f 802 798 794
f 800 799 851
f 785 795 796
f 785 796 792
f 806 785 792
f 806 792 807
f 851 491 852
f 493 852 491
f 495 852 493
f 495 645 852
f 323 645 495
f 322 645 323
f 322 646 645
f 644 645 646
f 321 646 322
f 321 648 646
f 647 646 648
f 644 852 645
f 792 796 797
f 792 797 793
f 807 792 789
f 807 789 808
f 789 809 808
f 789 786 809
f 790 786 789
f 790 763 786
f 763 767 786
f 786 767 766
f 766 762 786
f 786 762 760
f 761 760 762
f 759 760 761
f 771 760 759
f 771 787 760
f 771 786 787
f 759 761 854
f 761 855 854
f 761 768 855
f 768 769 855
f 768 763 769
f 769 763 765
f 769 765 770
f 757 770 765
f 757 765 758
f 751 757 758
f 750 757 751
f 750 756 757
f 752 756 750
f 894 756 752
f 893 756 894
f 893 855 756
f 855 770 756
f 892 855 893
f 893 902 892
f 892 902 903
f 892 903 891
f 891 880 892
f 891 881 880
f 890 881 891
f 891 904 890
f 893 901 902
f 907 902 901
f 895 902 907
f 907 901 908
f 908 901 900
f 894 900 901
f 754 900 894
f 754 899 900
f 909 900 899
f 909 899 874
f 874 899 749
f 892 880 855
f 894 901 893
f 758 765 764
f 789 758 764
f 756 770 757
f 763 764 765
f 855 769 770
f 761 767 768
f 854 855 880
f 854 880 879
f 786 760 787
f 762 766 761
f 761 766 767
f 768 767 763
f 764 763 790
f 789 764 790
f 809 786 771
f 810 808 809
f 810 807 808
f 788 758 789
f 751 758 788
f 750 751 752
f 894 752 754
f 753 791 755
f 749 899 754
f 755 852 644
f 644 646 647
f 647 648 649
f 320 648 321
f 874 749 853
f 873 874 872
f 873 909 874
f 908 900 909
f 870 907 908
f 471 871 472
f 895 907 870
f 464 463 869
f 869 463 462
f 869 462 461
f 461 466 869
f 869 466 467
f 869 467 868
f 868 467 465
f 868 465 468
f 241 468 465
f 465 242 241
f 465 233 242
f 234 233 465
f 234 465 236
f 241 460 468
f 239 460 241
f 239 238 460
f 459 460 238
f 867 460 459
f 459 238 458
f 458 238 246
f 867 468 460
f 236 465 467
f 236 467 466
f 461 236 466
f 461 237 236
f 312 237 461
f 231 312 461
f 461 462 231
f 231 462 463
f 231 463 464
f 231 464 469
f 231 469 232
f 232 469 470
f 232 470 225
f 471 225 470
f 471 226 225
f 471 228 226
f 472 228 471
f 472 229 228
f 488 229 472
f 488 221 229
f 487 221 488
f 487 222 221
f 486 222 487
f 486 224 222
f 313 224 486
f 224 313 215
f 215 223 224
f 217 223 215
f 217 282 223
f 212 282 217
f 217 218 212
f 212 218 219
f 212 219 208
f 208 219 220
f 208 220 206
f 206 207 208
f 208 207 209
f 209 210 208
f 564 210 209
f 564 209 566
f 566 209 325
f 566 325 326
f 325 322 326
f 326 322 324
f 322 323 324
f 323 496 324
f 495 496 323
f 495 494 496
f 642 496 494
f 642 494 643
f 643 585 642
f 643 583 585
f 584 585 583
f 583 582 584
f 580 582 583
f 580 581 582
f 343 581 580
f 343 580 643
f 643 498 343
f 643 500 498
f 499 498 500
f 499 500 501
f 501 500 502
f 501 502 489
f 489 502 490
f 643 490 502
f 643 492 490
f 491 490 492
f 491 492 493
f 493 492 494
f 489 490 491
f 497 498 499
f 502 500 643
f 497 343 498
f 344 343 497
f 341 343 344
f 341 342 343
f 340 342 341
f 619 342 340
f 619 340 339
f 339 327 619
f 327 339 328
f 327 328 329
f 328 339 340
f 328 340 341
f 619 343 342
f 623 581 343
f 343 622 623
f 343 621 622
f 630 623 622
f 631 623 630
f 630 622 628
f 628 629 630
f 628 636 629
f 922 629 636
f 922 636 921
f 921 636 635
f 630 629 922
f 922 631 630
f 641 631 922
f 922 582 641
f 922 596 582
f 915 596 922
f 915 597 596
f 584 596 597
f 597 598 584
f 584 598 164
f 584 164 166
f 164 165 166
f 915 165 164
f 915 168 165
f 165 168 167
f 167 168 169
f 914 169 168
f 914 171 169
f 169 171 170
f 170 171 172
f 170 172 173
f 173 586 170
f 173 593 586
f 593 594 586
f 586 594 595
f 594 567 595
f 594 568 567
f 592 568 594
f 592 570 568
f 569 568 570
f 569 570 571
f 571 570 572
f 571 572 573
f 202 571 573
f 202 573 200
f 578 200 573
f 578 201 200
f 576 201 578
f 577 576 578
f 577 578 579
f 577 579 589
f 589 579 572
f 589 572 590
f 589 590 591
f 176 589 591
f 176 591 174
f 174 175 176
f 174 172 175
f 916 175 172
f 916 177 175
f 916 180 177
f 910 180 916
f 910 181 180
f 910 182 181
f 910 160 182
f 182 160 178
f 178 160 159
f 158 159 160
f 158 157 159
f 156 157 158
f 156 198 157
f 281 198 156
f 281 196 198
f 196 162 198
f 198 162 161
f 159 161 162
f 159 162 163
f 574 163 162
f 162 197 574
f 574 197 194
f 194 197 196
f 195 194 196
f 193 194 195
f 194 193 576
f 575 194 576
f 195 201 193
f 294 195 196
f 294 196 186
f 186 196 279
f 186 279 277
f 277 279 278
f 278 279 280
f 278 280 917
f 917 280 281
f 917 281 910
f 278 917 277
f 277 917 918
f 277 918 184
f 184 918 426
f 184 426 185
f 184 185 186
f 296 186 185
f 295 186 296
f 275 295 296
f 274 295 275
f 274 293 295
f 306 293 274
f 306 291 293
f 304 291 306
f 304 289 291
f 302 289 304
f 303 302 304
f 303 304 305
f 311 303 305
f 311 305 192
f 192 305 189
f 305 306 189
f 192 189 190
f 190 189 188
f 187 188 189
f 189 274 187
f 187 274 276
f 190 191 192
f 191 269 192
f 192 269 266
f 269 270 266
f 266 270 271
f 271 272 266
f 266 272 273
f 266 273 268
f 267 266 268
f 265 266 267
f 257 266 265
f 257 265 258
f 257 258 259
f 259 310 257
f 259 309 310
f 261 309 259
f 261 308 309
f 263 308 261
f 261 262 263
f 263 262 247
f 263 247 264
f 264 307 263
f 264 245 307
f 249 245 264
f 249 243 245
f 243 244 245
f 245 244 246
f 246 238 245
f 245 238 240
f 238 239 240
f 240 239 241
f 240 241 242
f 242 233 240
f 240 233 235
f 240 235 297
f 307 240 297
f 307 297 308
f 308 297 299
f 297 298 299
f 299 298 300
f 298 230 300
f 300 230 287
f 230 286 287
f 287 286 288
f 287 288 289
f 289 288 290
f 288 284 290
f 290 284 199
f 284 205 199
f 199 205 203
f 204 203 205
f 202 203 204
f 214 204 205
f 214 205 212
f 212 213 214
f 212 211 213
f 563 213 211
f 211 210 563
f 563 567 213
f 565 567 563
f 642 567 565
f 642 565 566
f 642 566 324
f 563 564 565
f 204 213 567
f 567 569 204
f 213 204 214
f 199 203 200
f 199 200 195
f 292 199 195
f 284 282 205
f 283 282 284
f 290 199 292
f 291 290 292
f 288 283 284
f 286 283 288
f 286 227 283
f 285 227 286
f 285 225 227
f 225 226 227
f 227 226 228
f 227 228 229
f 229 221 227
f 227 221 223
f 221 222 223
f 232 225 285
f 232 285 230
f 230 231 232
f 227 223 283
f 230 285 286
f 300 287 302
f 301 300 302
f 298 231 230
f 235 231 298
f 235 312 231
f 237 312 235
f 235 236 237
f 235 234 236
f 299 300 301
f 309 299 301
f 297 235 298
f 233 234 235
f 256 243 249
f 249 255 256
f 249 254 255
f 253 254 249
f 249 252 253
f 249 251 252
f 250 251 249
f 249 248 250
f 247 248 249
f 245 240 307
f 264 247 249
f 261 260 262
f 263 307 308
f 308 299 309
f 259 260 261
f 309 301 310
f 310 301 303
f 257 310 311
f 259 258 260
f 192 266 257
f 257 311 192
f 310 303 311
f 301 302 303
f 302 287 289
f 289 290 291
f 305 304 306
f 291 292 293
f 293 292 294
f 189 306 274
f 293 294 295
f 274 275 276
f 296 185 426
f 429 296 426
f 429 426 430
f 430 426 431
f 430 431 432
f 432 431 418
f 432 418 417
f 417 418 419
f 419 418 420
f 420 425 419
f 420 424 425
f 423 424 420
f 423 422 424
f 421 422 423
f 422 421 480
f 480 421 481
f 480 481 482
f 481 483 482
f 482 483 484
f 482 484 485
f 485 484 416
f 485 416 415
f 414 415 416
f 414 413 415
f 367 413 414
f 367 366 413
f 366 367 368
f 368 367 369
f 368 369 370
f 370 369 371
f 370 371 372
f 372 371 373
f 372 373 365
f 365 373 374
f 365 374 364
f 364 363 365
f 362 363 364
f 362 411 363
f 362 410 411
f 409 410 362
f 409 408 410
f 407 408 409
f 407 406 408
f 405 406 407
f 405 404 406
f 403 404 405
f 403 402 404
f 401 402 403
f 401 400 402
f 399 400 401
f 399 398 400
f 397 398 399
f 397 396 398
f 395 396 397
f 395 394 396
f 393 394 395
f 393 392 394
f 391 392 393
f 391 390 392
f 389 390 391
f 389 388 390
f 387 388 389
f 387 386 388
f 385 386 387
f 385 384 386
f 383 384 385
f 383 382 384
f 381 382 383
f 381 380 382
f 379 380 381
f 379 378 380
f 377 378 379
f 377 376 378
f 375 376 377
f 375 412 376
f 376 412 361
f 376 361 360
f 359 360 361
f 359 358 360
f 349 358 359
f 349 348 358
f 348 349 350
f 350 349 351
f 350 351 352
f 352 351 353
f 357 353 351
f 356 353 357
f 356 355 353
f 354 355 356
f 354 559 355
f 354 558 559
f 557 558 354
f 557 561 558
f 558 561 560
f 558 560 562
f 562 560 553
f 560 554 553
f 553 554 555
f 555 554 551
f 555 551 556
f 556 551 552
f 551 546 552
f 551 86 546
f 86 551 88
f 88 551 911
f 88 911 90
f 89 88 90
f 90 911 919
f 90 919 91
f 87 86 88
f 546 86 84
f 546 84 83
f 545 546 83
f 545 83 547
f 547 83 11
f 547 11 548
f 9 548 11
f 8 548 9
f 8 550 548
f 18 550 8
f 18 549 550
f 544 549 18
f 693 549 544
f 550 549 693
f 693 694 550
f 550 694 548
f 694 547 548
f 545 547 694
f 544 540 693
f 693 540 692
f 693 692 691
f 691 692 536
f 537 536 692
f 27 536 537
f 27 537 104
f 104 537 538
f 104 538 22
f 22 538 23
f 23 538 539
f 692 539 538
f 692 543 539
f 543 19 539
f 539 19 24
f 543 20 19
f 542 20 543
f 542 13 20
f 541 13 542
f 692 541 542
f 541 14 13
f 540 14 541
f 14 540 16
f 542 543 692
f 539 24 23
f 27 535 536
f 27 532 535
f 26 532 27
f 132 532 26
f 132 531 532
f 30 531 132
f 30 534 531
f 30 533 534
f 29 533 30
f 29 530 533
f 530 687 533
f 533 687 688
f 687 722 688
f 688 722 723
f 688 723 689
f 689 723 724
f 689 724 690
f 690 724 725
f 724 715 725
f 724 713 715
f 725 715 717
f 715 716 717
f 715 714 716
f 725 717 726
f 726 717 719
f 726 719 693
f 691 725 726
f 690 725 691
f 532 690 691
f 531 689 690
f 723 713 724
f 534 688 689
f 686 687 530
f 686 530 529
f 33 529 530
f 33 528 529
f 33 527 528
f 686 528 527
f 686 527 526
f 526 525 686
f 37 525 526
f 37 526 38
f 38 526 39
f 36 525 37
f 36 524 525
f 35 524 36
f 35 523 524
f 686 524 523
f 523 522 686
f 686 522 521
f 44 521 522
f 44 522 34
f 43 521 44
f 43 520 521
f 41 520 43
f 41 519 520
f 40 519 41
f 40 518 519
f 49 518 40
f 49 517 518
f 48 517 49
f 48 516 517
f 46 516 48
f 46 515 516
f 45 515 46
f 685 517 516
f 518 517 685
f 685 519 518
f 685 520 519
f 686 520 685
f 686 521 520
f 34 522 523
f 34 523 35
f 686 525 524
f 39 526 527
f 39 527 32
f 32 527 33
f 529 528 686
f 685 687 686
f 33 530 29
f 533 688 534
f 534 689 531
f 531 690 532
f 532 691 535
f 537 692 538
f 691 536 535
f 691 726 693
f 540 541 692
f 16 540 544
f 16 544 17
f 17 544 18
f 428 296 429
f 428 275 296
f 427 275 428
f 438 275 427
f 438 276 275
f 437 276 438
f 437 187 276
f 436 187 437
f 436 188 187
f 435 188 436
f 435 190 188
f 184 186 277
f 280 279 196
f 295 294 186
f 292 195 294
f 574 194 575
f 575 163 574
f 575 179 163
f 577 179 575
f 176 179 577
f 179 178 163
f 175 178 179
f 196 197 162
f 280 196 281
f 910 281 156
f 198 161 157
f 910 156 158
f 157 161 159
f 178 159 163
f 158 160 910
f 178 181 182
f 178 180 181
f 177 180 178
f 177 178 175
f 916 172 914
f 175 179 176
f 174 591 593
f 591 592 593
f 591 590 592
f 577 589 176
f 575 576 577
f 576 193 201
f 195 200 201
f 579 578 573
f 200 203 202
f 204 571 202
f 579 573 572
f 590 572 570
f 204 569 571
f 590 570 592
f 567 568 569
f 595 567 642
f 642 587 595
f 642 588 587
f 584 587 588
f 586 587 584
f 167 586 584
f 586 595 587
f 593 592 594
f 174 593 173
f 170 586 167
f 173 172 174
f 914 172 171
f 167 169 170
f 914 168 915
f 164 598 915
f 166 165 167
f 167 584 166
f 915 598 597
f 623 631 581
f 581 631 641
f 581 641 582
f 584 582 596
f 584 588 585
f 643 580 583
f 642 585 588
f 643 494 492
f 493 494 495
f 324 496 642
f 325 321 322
f 326 324 566
f 209 321 325
f 209 320 321
f 207 320 209
f 207 319 320
f 206 319 207
f 206 318 319
f 220 318 206
f 220 317 318
f 219 317 220
f 219 316 317
f 218 316 219
f 218 315 316
f 216 315 218
f 216 314 315
f 215 314 216
f 565 564 566
f 563 210 564
f 208 210 211
f 208 211 212
f 217 216 218
f 212 205 282
f 283 223 282
f 215 216 217
f 223 222 224
f 215 313 314
f 895 903 902
f 891 903 904
f 896 869 868
f 868 468 867
f 459 458 867
f 458 246 244
f 866 457 451
f 450 256 452
f 452 256 255
f 453 456 866
f 866 456 455
f 866 455 454
f 865 866 454
f 448 247 449
f 449 247 262
f 449 262 446
f 446 262 260
f 864 449 446
f 898 866 865
f 898 905 897
f 890 904 905
f 889 906 888
f 876 883 884
f 877 883 876
f 876 884 875
f 875 861 876
f 888 864 887
f 875 884 885
f 875 885 886
f 862 875 886
f 863 875 862
f 862 886 447
f 447 886 885
f 887 864 446
f 446 260 258
f 447 442 862
f 442 443 862
f 862 443 444
f 445 272 441
f 862 440 439
f 269 433 270
f 433 269 191
f 862 439 863
f 433 191 434
f 434 191 190
f 863 861 875
f 434 190 435
f 876 861 858
f 876 858 877
f 877 882 883
f 890 882 881
f 879 880 881
f 878 859 860
f 860 429 430
f 857 417 419
f 879 856 854
f 759 854 772
f 857 419 773
f 773 419 425
f 773 425 424
f 422 773 424
f 422 775 773
f 480 775 422
f 759 772 771
f 809 771 810
f 774 773 775
f 778 810 776
f 778 780 810
f 480 779 775
f 485 782 482
f 780 781 777
f 782 485 415
f 780 777 810
f 811 368 370
f 811 370 372
f 372 365 811
f 811 365 363
f 811 363 411
f 411 410 811
f 810 806 807
f 783 785 806
f 783 784 785
f 794 784 805
f 794 805 804
f 730 803 804
f 811 410 408
f 730 733 734
f 732 731 849
f 849 731 742
f 738 747 748
f 658 748 747
f 657 748 658
f 376 360 727
f 658 747 659
f 658 659 656
f 558 655 559
f 562 655 558
f 562 654 655
f 653 654 562
f 695 653 562
f 695 562 553
f 553 555 695
f 556 695 555
f 699 695 556
f 699 661 695
f 701 661 699
f 556 552 699
f 699 552 700
f 552 546 700
f 661 653 695
f 661 651 653
f 651 652 653
f 651 741 652
f 652 741 739
f 652 739 654
f 653 652 654
f 654 746 655
f 656 657 658
f 657 744 748
f 738 748 744
f 746 745 655
f 654 739 746
f 740 739 741
f 742 738 737
f 848 742 737
f 848 737 736
f 735 736 737
f 741 743 740
f 741 651 815
f 815 651 660
f 816 662 817
f 660 651 661
f 701 663 661
f 817 662 814
f 663 667 664
f 812 814 813
f 672 671 823
f 670 671 672
f 670 669 671
f 823 824 821
f 812 820 818
f 830 821 824
f 819 818 847
f 848 736 847
f 830 824 835
f 835 824 825
f 833 834 835
f 833 832 834
f 849 742 848
f 733 849 850
f 837 839 850
f 837 836 838
f 831 832 833
f 836 828 829
f 828 674 829
f 835 825 833
f 827 826 828
f 824 823 825
f 823 671 669
f 828 826 674
f 676 669 675
f 675 669 668
f 674 673 829
f 673 650 678
f 650 477 478
f 679 474 473
f 475 474 679
f 679 680 475
f 475 680 476
f 680 506 476
f 679 696 680
f 675 668 677
f 668 669 670
f 666 670 672
f 663 666 667
f 703 663 701
f 699 700 701
f 700 546 721
f 545 721 546
f 694 721 545
f 693 719 694
f 717 718 719
f 702 720 704
f 717 716 718
f 705 704 706
f 705 698 665
f 697 696 698
f 697 680 696
f 505 506 680
f 710 681 709
f 707 708 709
f 708 716 714
f 713 714 715
f 723 711 713
f 682 712 683
f 722 711 723
f 685 722 687
f 685 516 515
f 684 513 683
f 45 514 515
f 683 513 510
f 510 511 683
f 57 51 58
f 58 51 50
f 58 50 59
f 59 50 60
f 59 60 61
f 61 60 62
f 62 60 67
f 67 68 62
f 67 66 68
f 608 616 333
f 330 331 332
f 616 335 333
f 329 338 327
f 619 327 338
f 616 337 335
f 620 343 619
f 627 637 632
f 620 621 343
f 621 628 622
f 628 635 636
f 921 635 634
f 921 634 633
f 633 153 921
f 921 153 152
f 921 152 920
f 920 152 150
f 151 152 153
f 637 143 632
f 637 144 143
f 145 144 637
f 141 144 145
f 151 150 152
f 920 150 149
f 143 144 141
f 149 142 920
f 141 145 135
f 135 145 146
f 135 146 136
f 134 135 136
f 154 913 155
f 154 138 913
f 913 138 137
f 913 137 183
f 183 1 913
f 183 137 139
f 183 139 4
f 4 139 140
f 4 140 75
f 605 75 140
f 605 76 75
f 75 76 77
f 76 79 77
f 77 79 99
f 79 107 99
f 99 107 108
f 107 120 108
f 108 120 121
f 108 121 109
f 99 108 100
f 98 99 100
f 79 106 107
f 106 119 107
f 106 118 119
f 105 118 106
f 105 73 118
f 74 73 105
f 72 73 74
f 72 74 609
f 613 72 609
f 613 609 614
f 613 614 615
f 615 614 600
f 614 601 600
f 599 600 601
f 638 600 599
f 599 601 602
f 602 601 603
f 81 603 601
f 81 601 82
f 79 81 82
f 79 80 81
f 78 80 79
f 78 604 80
f 80 604 603
f 78 607 604
f 606 607 78
f 606 148 607
f 606 140 148
f 140 138 148
f 605 606 78
f 607 148 604
f 609 82 601
f 80 603 81
f 602 603 604
f 639 602 604
f 639 599 602
f 615 600 638
f 638 618 615
f 614 609 601
f 609 74 82
f 72 69 73
f 70 69 72
f 74 105 82
f 126 118 73
f 82 105 106
f 82 106 79
f 76 78 79
f 78 76 605
f 605 140 606
f 139 138 140
f 137 138 139
f 148 138 154
f 148 639 604
f 638 599 639
f 136 146 147
f 145 637 146
f 626 637 627
f 616 625 626
f 638 640 618
f 617 624 625
f 618 613 615
f 612 72 613
f 617 625 616
f 612 70 72
f 610 611 616
f 346 133 610
f 346 63 133
f 65 133 63
f 63 64 65
f 65 64 66
f 65 66 67
f 69 70 71
f 125 73 69
f 67 60 50
f 50 51 52
f 52 51 53
f 53 54 52
f 52 54 55
f 126 73 125
f 52 55 5
f 5 55 56
f 5 56 6
f 127 118 126
f 5 6 7
f 127 119 118
f 107 119 120
f 115 121 120
f 116 121 115
f 116 122 121
f 128 7 129
f 113 45 114
f 115 47 116
f 117 122 116
f 42 41 43
f 117 31 28
f 28 123 117
f 28 124 123
f 132 112 30
f 132 25 112
f 26 25 132
f 25 26 27
f 94 25 27
f 94 27 21
f 93 94 21
f 21 15 93
f 93 15 10
f 15 17 10
f 15 16 17
f 14 16 15
f 13 14 15
f 10 17 18
f 10 18 8
f 8 9 10
f 10 9 11
f 10 11 12
f 95 10 12
f 95 12 96
f 96 102 95
f 11 83 12
f 12 83 84
f 12 84 85
f 85 84 86
f 93 10 95
f 95 103 93
f 93 103 25
f 21 13 15
f 20 13 21
f 19 20 21
f 21 24 19
f 21 23 24
f 22 23 21
f 21 104 22
f 21 27 104
f 93 25 94
f 103 112 25
f 95 102 103
f 111 123 124
f 117 123 122
f 109 121 122
f 101 110 102
f 100 108 109
f 96 101 102
f 96 12 85
f 85 86 87
f 98 100 97
f 87 88 89
f 77 99 98
f 89 90 91
f 919 92 91
f 919 3 92
f 913 3 919
f 75 77 4
f 4 1 183
f 913 1 3
f 2 92 3

