# https://github.com/mikedh/trimesh
v -0.02358690 -0.03436290 0.01894470
v -0.02634772 -0.03436291 0.01483521
v -0.02840249 -0.03436291 0.01033098
v -0.02969633 -0.03436291 0.00555227
v -0.03019471 -0.03436291 0.00062665
v -0.02988432 -0.03436291 -0.00431438
v -0.02877345 -0.03436291 -0.00913890
v -0.02689175 -0.03436290 -0.01371813
v -0.02428947 -0.03436290 -0.01792981
v -0.02103607 -0.03436291 -0.02166150
v -0.01721841 -0.03436291 -0.02481357
v -0.01293841 -0.03436291 -0.02730188
v -0.00831033 -0.03436290 -0.02906000
v -0.00345773 -0.03436290 -0.03004098
v 0.00148985 -0.03436290 -0.03021865
v 0.00640032 -0.03436290 -0.02958826
v 0.01114258 -0.03436290 -0.02816663
v 0.01559004 -0.03436291 -0.02599172
v 0.01962396 -0.03436291 -0.02312159
v 0.02313664 -0.03436291 -0.01963288
v 0.02603431 -0.03436290 -0.01561870
v 0.02823961 -0.03436290 -0.01118624
v 0.02965849 -0.03436290 -0.00661188
v 0.03033887 -0.03436290 -0.00187110
v 0.03026373 -0.03436290 0.00291766
v 0.02943498 -0.03436291 0.00763477
v 0.02787329 -0.03436290 0.01216236
v 0.02561771 -0.03436290 0.01638732
v 0.02272457 -0.03436290 0.02020408
v 0.01926617 -0.03436290 0.02351730
v 0.01532891 -0.03436291 0.02624418
v 0.01101116 -0.03436291 0.02831660
v 0.00642079 -0.03436290 0.02968279
v 0.00167250 -0.03436290 0.03030860
v -0.00311509 -0.03436290 0.03017841
v -0.00782235 -0.03436291 0.02929546
v -0.01233169 -0.03436290 0.02768182
v -0.01653043 -0.03436290 0.02537780
v -0.02031367 -0.03436291 0.02244097
f 24 23 35
f 35 25 24
f 35 26 25
f 27 26 35
f 35 28 27
f 35 29 28
f 30 29 35
f 35 31 30
f 35 32 31
f 35 33 32
f 34 33 35
f 23 36 35
f 23 37 36
f 38 37 23
f 23 39 38
f 23 1 39
f 2 1 23
f 23 3 2
f 23 4 3
f 22 4 23
f 22 21 4
f 4 21 20
f 4 20 19
f 19 18 4
f 4 18 17
f 4 17 5
f 5 17 6
f 17 7 6
f 17 8 7
f 9 8 17
f 10 9 17
f 17 16 10
f 10 16 15
f 10 15 14
f 14 13 10
f 10 13 12
f 10 12 11

