# https://github.com/mikedh/trimesh
v 0.01896071 0.00189023 -0.23631407
v 0.01909313 -0.00202848 -0.23527268
v 0.01922780 -0.00174721 -0.23423131
v 0.01886181 0.00112163 -0.23707640
v 0.01909539 0.00217152 -0.23527271
v 0.01895875 -0.00174708 -0.23631404
v 0.01886068 -0.00097838 -0.23707639
v 0.01882520 0.00007164 -0.23735543
v 0.01883407 -0.00047188 -0.23728445
v 0.01883466 0.00061516 -0.23728447
v 0.01922976 0.00189010 -0.23423134
v 0.01932784 0.00112140 -0.23346899
v 0.01935443 0.00061491 -0.23326093
v 0.01932669 -0.00097861 -0.23346899
v 0.01935386 -0.00047213 -0.23326093
v 0.01936331 0.00007138 -0.23318996
v 0.01797948 0.00007209 -0.23724069
v 0.01801787 0.00112208 -0.23696190
v 0.01812162 0.00189068 -0.23620023
v 0.01826296 0.00217196 -0.23515977
v 0.01840398 0.00189055 -0.23411930
v 0.01850690 0.00112184 -0.23335761
v 0.01801674 -0.00097793 -0.23696187
v 0.01811966 -0.00174662 -0.23620020
v 0.01826069 -0.00202803 -0.23515974
v 0.01840202 -0.00174677 -0.23411927
v 0.01850577 -0.00097815 -0.23335759
v 0.01854417 0.00007182 -0.23307882
f 4 10 17
f 10 8 17
f 17 8 9
f 17 9 23
f 23 9 7
f 23 7 6
f 23 6 24
f 24 6 2
f 24 2 25
f 25 2 3
f 25 3 26
f 26 3 14
f 26 14 27
f 27 14 15
f 27 15 28
f 28 15 16
f 28 16 22
f 22 16 13
f 22 13 12
f 11 22 12
f 11 21 22
f 5 21 11
f 5 20 21
f 1 20 5
f 1 19 20
f 4 19 1
f 4 18 19
f 17 18 4

