# https://github.com/mikedh/trimesh
v 0.01812990 0.01769131 -0.29764745
v 0.01954477 0.01766772 -0.29540241
v 0.03108068 0.01736804 -0.30101660
v 0.03338885 0.01790449 -0.16908672
v 0.03836636 0.01778401 -0.16954491
v 0.02268678 0.01763830 -0.28528336
v 0.02766429 0.01751780 -0.28574154
v 0.02231219 0.01763558 -0.28787971
v 0.02755834 0.01750857 -0.28836280
v 0.02164699 0.01763962 -0.29050788
v 0.01433063 0.01774551 -0.30572608
v 0.01487502 0.01774702 -0.30249792
v 0.03095618 0.01732914 -0.31035316
v 0.01653770 0.01772011 -0.29967794
v 0.03216122 0.01731421 -0.30728844
v 0.03218348 0.01732844 -0.30399537
v 0.02772840 0.01749256 -0.29103485
v 0.02816332 0.01747066 -0.29361022
v 0.02073516 0.01765022 -0.29298416
v 0.02888381 0.01744190 -0.29620075
v 0.02984722 0.01740802 -0.29864448
v 0.02872969 0.01737126 -0.31277925
v 0.02577981 0.01743489 -0.31424186
v 0.02250153 0.01751154 -0.31454515
v 0.01935147 0.01759048 -0.31365725
v 0.01672743 0.01766169 -0.31170103
v 0.01497659 0.01771575 -0.30893534
v 0.01943456 0.01166895 -0.29531723
v 0.01639497 0.01172186 -0.29965109
v 0.02874107 0.01144366 -0.29617387
v 0.03674196 0.01174891 -0.18560505
v 0.03822363 0.01178577 -0.16951801
v 0.03324612 0.01190627 -0.16905984
v 0.01473228 0.01174878 -0.30247101
v 0.01418789 0.01174726 -0.30569920
v 0.01483385 0.01171751 -0.30890846
v 0.03093795 0.01136980 -0.30098972
v 0.02151413 0.01164129 -0.29044911
v 0.02758567 0.01149431 -0.29100797
v 0.02254404 0.01164006 -0.28525648
v 0.02752155 0.01151956 -0.28571466
v 0.02931258 0.01156410 -0.26626873
v 0.03116992 0.01161031 -0.24610282
v 0.03302727 0.01165651 -0.22593690
v 0.03488461 0.01170271 -0.20577097
v 0.03204073 0.01133020 -0.30396846
v 0.01658469 0.01166345 -0.31167415
v 0.01920872 0.01159224 -0.31363037
v 0.02563708 0.01143665 -0.31421497
v 0.02858695 0.01137301 -0.31275237
v 0.03081345 0.01133090 -0.31032628
v 0.02235878 0.01151330 -0.31451824
v 0.03201849 0.01131597 -0.30726156
v 0.03895165 0.01096524 -0.16139300
v 0.03913432 0.01864175 -0.16142741
v 0.03921182 0.00965485 -0.15822189
v 0.03945721 0.01996662 -0.15826812
v 0.03983509 0.02212107 -0.15472937
v 0.04089909 0.02088602 -0.14284535
v 0.04099075 0.01808666 -0.14111324
v 0.04070627 0.02287465 -0.14546320
v 0.04096899 0.01485139 -0.14049876
v 0.04083672 0.01161338 -0.14108422
v 0.04061164 0.00880615 -0.14279120
v 0.04032388 0.00680556 -0.14539117
v 0.04013050 0.02349894 -0.15188244
v 0.04043809 0.02378631 -0.14861628
v 0.03948757 0.00751666 -0.15466391
v 0.03971770 0.00615187 -0.15180469
v 0.04001198 0.00587947 -0.14853601
v 0.03572875 0.02299515 -0.14500503
v 0.03546059 0.02390681 -0.14815812
v 0.03515299 0.02361944 -0.15142427
v 0.03415682 0.01876225 -0.16096924
v 0.03397415 0.01108574 -0.16093484
v 0.03447969 0.02008711 -0.15780994
v 0.03423431 0.00977535 -0.15776372
v 0.03451006 0.00763716 -0.15420574
v 0.03474020 0.00627237 -0.15134652
v 0.03503448 0.00599997 -0.14807785
v 0.03485758 0.02224157 -0.15427120
v 0.03534637 0.00692606 -0.14493300
v 0.03563413 0.00892665 -0.14233303
v 0.03585921 0.01173388 -0.14062606
v 0.03592158 0.02100652 -0.14238718
v 0.03601325 0.01820716 -0.14065507
v 0.03599149 0.01497189 -0.14004059
v 0.03866187 0.01094410 -0.16203505
v 0.03838627 0.01066402 -0.16199955
v 0.03827264 0.01140206 -0.16503465
v 0.03857055 0.01183234 -0.16619709
v 0.03883779 0.01208482 -0.16618361
v 0.03886970 0.01196536 -0.16499938
v 0.03830331 0.01157989 -0.16621102
v 0.03893798 0.01122385 -0.16206932
v 0.03884574 0.01867087 -0.16206968
v 0.03910823 0.01837802 -0.16210139
v 0.03906612 0.01800499 -0.16323124
v 0.03849220 0.01863122 -0.16317573
v 0.03858377 0.01896406 -0.16203676
v 0.03896631 0.01748595 -0.16620782
v 0.03871138 0.01775073 -0.16622363
v 0.03845646 0.01801548 -0.16623989
v 0.03351353 0.01195476 -0.16573161
v 0.03376132 0.01168985 -0.16579296
v 0.03428612 0.01108805 -0.16277106
v 0.03414057 0.01105356 -0.16161887
v 0.03387659 0.01134637 -0.16160344
v 0.03344466 0.01209669 -0.16450001
v 0.03440426 0.01076041 -0.16163301
v 0.03326567 0.01221972 -0.16567071
v 0.03432444 0.01878033 -0.16165350
v 0.03460177 0.01906046 -0.16167022
v 0.03415941 0.01830859 -0.16467163
v 0.03365437 0.01787316 -0.16575815
v 0.03339420 0.01762085 -0.16569491
v 0.03386414 0.01813092 -0.16275240
v 0.03391446 0.01812543 -0.16582181
v 0.03404684 0.01850054 -0.16163549
v 0.03392556 0.01121839 -0.16126823
v 0.03289348 0.01741706 -0.16888368
v 0.03277453 0.01241852 -0.16886127
v 0.03410190 0.01862906 -0.16130146
v 0.03894490 0.01109687 -0.16173026
v 0.03912124 0.01850756 -0.16176347
v 0.03874755 0.01227392 -0.16941108
v 0.03886649 0.01727246 -0.16943349
v 0.02205818 0.01215196 -0.28521290
v 0.03345097 0.01185398 -0.16741803
v 0.01602968 0.01223216 -0.29932523
v 0.01900967 0.01218029 -0.29507637
v 0.02104846 0.01215317 -0.29030371
v 0.01427462 0.01226058 -0.30230188
v 0.01369999 0.01225898 -0.30570939
v 0.01438184 0.01222757 -0.30909693
v 0.01622993 0.01217050 -0.31201628
v 0.01899977 0.01209533 -0.31408119
v 0.02232482 0.01201201 -0.31501839
v 0.02576519 0.01193155 -0.31470391
v 0.02578523 0.01193110 -0.31469825
v 0.02886559 0.01186461 -0.31317937
v 0.02889899 0.01186393 -0.31315437
v 0.03121587 0.01182004 -0.31064644
v 0.03124919 0.01181947 -0.31059352
v 0.03250502 0.01180373 -0.30744034
v 0.03138059 0.01186053 -0.30073825
v 0.03254466 0.01181873 -0.30388251
v 0.03256245 0.01181786 -0.30398521
v 0.03252118 0.01180372 -0.30735853
v 0.02803120 0.01200736 -0.28576270
v 0.02809406 0.01198261 -0.29095224
v 0.02922680 0.01193295 -0.29601684
v 0.03831949 0.01173613 -0.16786617
v 0.03725185 0.01223671 -0.18565045
v 0.03539450 0.01219051 -0.20581637
v 0.03353715 0.01214432 -0.22598229
v 0.03167982 0.01209812 -0.24614823
v 0.02982246 0.01205192 -0.26631415
v 0.02815014 0.01700590 -0.28578511
v 0.03846481 0.01784382 -0.16789354
v 0.03149956 0.01685907 -0.30076069
v 0.03029027 0.01689827 -0.29843506
v 0.02934575 0.01693149 -0.29603925
v 0.02863939 0.01695968 -0.29349950
v 0.02821300 0.01698114 -0.29097465
v 0.02804626 0.01699686 -0.28835499
v 0.03266360 0.01681727 -0.30390492
v 0.03268139 0.01681639 -0.30400762
v 0.03264013 0.01680225 -0.30738091
v 0.03262396 0.01680227 -0.30746275
v 0.03136815 0.01681801 -0.31061596
v 0.03133481 0.01681856 -0.31066886
v 0.02901793 0.01686247 -0.31317678
v 0.02898455 0.01686315 -0.31320176
v 0.02244377 0.01701054 -0.31504077
v 0.02588413 0.01693008 -0.31472632
v 0.02590417 0.01692964 -0.31472066
v 0.01911872 0.01709387 -0.31410357
v 0.01634888 0.01716903 -0.31203869
v 0.01450078 0.01722611 -0.30911934
v 0.01381894 0.01725751 -0.30573177
v 0.01439356 0.01725911 -0.30232430
v 0.01614862 0.01723070 -0.29934764
v 0.01770960 0.01720247 -0.29735696
v 0.01912862 0.01717882 -0.29509878
v 0.02026379 0.01716219 -0.29278511
v 0.02116741 0.01715171 -0.29032612
v 0.02180988 0.01714783 -0.28778076
v 0.02217713 0.01715050 -0.28523532
v 0.03359631 0.01796168 -0.16744541
v 0.03486376 0.02004653 -0.15908329
v 0.03533820 0.02263454 -0.15460971
v 0.03496771 0.02052233 -0.15807907
v 0.03653510 0.01496098 -0.13958853
v 0.03655829 0.01835654 -0.14022960
v 0.03655806 0.01837599 -0.14023712
v 0.03646313 0.02129997 -0.14203753
v 0.03646130 0.02133085 -0.14206547
v 0.03626221 0.02340177 -0.14477310
v 0.03625777 0.02342998 -0.14482875
v 0.03598212 0.02438388 -0.14807437
v 0.03565002 0.02408894 -0.15160462
v 0.03565989 0.02411633 -0.15150453
v 0.03597471 0.02439229 -0.14815702
v 0.03497136 0.00721877 -0.15454061
v 0.03521430 0.00577815 -0.15152255
v 0.03522288 0.00575122 -0.15142220
v 0.03552492 0.00549062 -0.14807229
v 0.03553273 0.00549940 -0.14798972
v 0.03585415 0.00646816 -0.14475273
v 0.03585993 0.00649662 -0.14469732
v 0.03615788 0.00857989 -0.14200832
v 0.03616118 0.00861092 -0.14198065
v 0.03639662 0.01156256 -0.14019914
v 0.03639547 0.01154308 -0.14020650
v 0.03461961 0.00978623 -0.15903729
v 0.03470103 0.00931503 -0.15802884
v 0.03860161 0.00968983 -0.15940383
v 0.03895336 0.00712237 -0.15490714
v 0.03868303 0.00921863 -0.15839536
v 0.04051710 0.01486459 -0.13995506
v 0.04037862 0.01146616 -0.14056568
v 0.04037747 0.01144669 -0.14057304
v 0.04014319 0.00851452 -0.14234719
v 0.04013988 0.00848349 -0.14237484
v 0.03984194 0.00640022 -0.14506386
v 0.03983615 0.00637176 -0.14511926
v 0.03951474 0.00540301 -0.14835626
v 0.03919629 0.00568176 -0.15188909
v 0.03920488 0.00565483 -0.15178874
v 0.03950692 0.00539421 -0.14843883
v 0.03932020 0.02253814 -0.15497623
v 0.03963203 0.02399255 -0.15197116
v 0.03964190 0.02401993 -0.15187106
v 0.03995671 0.02429589 -0.14852355
v 0.03996411 0.02428747 -0.14844091
v 0.04023978 0.02333357 -0.14519531
v 0.04024422 0.02330537 -0.14513963
v 0.04044332 0.02123446 -0.14243202
v 0.04044514 0.02120356 -0.14240406
v 0.04054030 0.01826015 -0.14059614
v 0.04054008 0.01827959 -0.14060366
v 0.03884577 0.01995012 -0.15944982
v 0.03894972 0.02042593 -0.15844561
f 1 2 3
f 1 185 2
f 2 185 186
f 185 131 186
f 186 131 132
f 186 132 187
f 19 186 187
f 19 187 10
f 10 187 188
f 10 188 8
f 8 9 10
f 8 7 9
f 6 7 8
f 8 189 6
f 6 189 4
f 4 5 6
f 5 4 160
f 127 5 160
f 160 103 127
f 160 190 103
f 103 190 118
f 103 118 99
f 99 118 114
f 99 114 100
f 100 114 113
f 112 113 114
f 114 119 112
f 114 117 119
f 109 119 117
f 109 117 116
f 116 111 109
f 116 122 111
f 121 122 116
f 121 116 115
f 190 121 115
f 4 121 190
f 189 122 121
f 128 122 189
f 128 40 122
f 122 40 33
f 122 33 129
f 33 32 129
f 31 32 33
f 32 31 154
f 154 31 45
f 154 45 155
f 154 155 127
f 127 126 154
f 126 127 92
f 92 127 101
f 127 102 101
f 98 101 102
f 99 98 102
f 96 98 99
f 96 97 98
f 96 125 97
f 96 55 125
f 55 95 125
f 55 124 95
f 54 124 55
f 54 55 56
f 54 56 218
f 56 220 218
f 56 219 220
f 205 220 219
f 217 220 205
f 77 217 205
f 77 205 78
f 79 78 205
f 78 79 76
f 76 79 80
f 79 207 80
f 207 208 80
f 80 208 209
f 208 231 209
f 209 231 228
f 231 70 228
f 230 70 231
f 230 69 70
f 229 69 230
f 207 229 230
f 206 229 207
f 206 219 229
f 219 68 229
f 229 68 69
f 68 61 69
f 68 67 61
f 67 236 61
f 236 237 61
f 236 201 237
f 237 201 200
f 71 200 201
f 71 201 72
f 204 72 201
f 203 72 204
f 203 73 72
f 202 73 203
f 234 202 203
f 234 203 235
f 234 235 67
f 66 234 67
f 56 66 67
f 58 66 56
f 56 57 58
f 57 232 58
f 57 244 232
f 243 244 57
f 243 191 244
f 244 191 193
f 76 193 191
f 74 76 191
f 74 75 76
f 76 75 77
f 110 77 75
f 216 77 110
f 110 89 216
f 216 89 218
f 216 218 217
f 110 90 89
f 88 89 90
f 90 95 88
f 90 93 95
f 94 93 90
f 106 94 90
f 105 94 106
f 105 153 94
f 91 94 153
f 91 153 126
f 126 153 32
f 129 153 105
f 104 105 106
f 106 111 104
f 122 105 104
f 91 93 94
f 91 92 93
f 93 98 95
f 88 54 89
f 106 90 110
f 106 110 107
f 107 109 106
f 107 108 109
f 107 120 108
f 120 74 108
f 74 123 108
f 112 123 74
f 108 123 119
f 107 75 120
f 110 75 107
f 75 74 120
f 113 74 191
f 76 192 193
f 232 193 192
f 232 192 233
f 233 192 202
f 192 81 202
f 232 233 66
f 81 192 76
f 243 113 191
f 243 57 100
f 100 57 55
f 244 193 232
f 66 58 232
f 66 233 234
f 233 202 234
f 202 81 73
f 81 82 73
f 81 80 82
f 73 82 83
f 82 211 83
f 82 210 211
f 210 227 211
f 211 227 226
f 226 227 65
f 64 226 65
f 64 225 226
f 224 225 64
f 213 225 224
f 213 224 215
f 215 84 213
f 214 84 215
f 214 87 84
f 194 87 214
f 194 195 87
f 241 195 194
f 241 196 195
f 195 196 86
f 86 196 197
f 242 197 196
f 240 197 242
f 240 198 197
f 197 198 85
f 85 198 199
f 85 199 71
f 85 71 86
f 86 71 73
f 86 73 87
f 239 199 198
f 238 199 239
f 238 200 199
f 238 239 59
f 59 239 240
f 59 240 60
f 59 60 61
f 61 60 62
f 62 63 61
f 61 63 64
f 62 222 63
f 221 222 62
f 214 222 221
f 223 222 214
f 221 62 241
f 222 223 63
f 63 223 224
f 241 62 60
f 241 60 242
f 61 238 59
f 239 198 240
f 242 60 240
f 86 197 85
f 242 196 241
f 194 221 241
f 87 195 86
f 214 221 194
f 87 73 84
f 215 223 214
f 83 213 84
f 83 212 213
f 215 224 223
f 212 225 213
f 63 224 64
f 212 226 225
f 61 64 65
f 65 227 228
f 211 226 212
f 210 228 227
f 209 210 82
f 211 212 83
f 73 83 84
f 235 203 204
f 235 204 236
f 71 72 73
f 199 200 71
f 237 200 238
f 236 204 201
f 61 237 238
f 67 235 236
f 56 67 68
f 69 61 65
f 69 65 70
f 65 228 70
f 209 228 210
f 208 230 231
f 80 209 82
f 207 230 208
f 79 206 207
f 76 80 81
f 205 206 79
f 76 77 78
f 216 217 77
f 205 219 206
f 68 219 56
f 217 218 220
f 89 54 218
f 56 55 57
f 88 124 54
f 95 124 88
f 100 55 96
f 95 97 125
f 95 98 97
f 93 101 98
f 92 101 93
f 126 92 91
f 127 155 156
f 155 44 156
f 156 44 43
f 156 43 157
f 159 156 157
f 159 157 158
f 158 150 159
f 158 41 150
f 150 41 151
f 151 41 39
f 40 39 41
f 40 41 42
f 42 43 40
f 38 39 40
f 38 30 39
f 28 30 38
f 132 28 38
f 132 38 128
f 188 132 128
f 28 29 30
f 30 29 37
f 146 30 37
f 152 30 146
f 162 152 146
f 163 152 162
f 164 152 163
f 164 151 152
f 165 151 164
f 166 151 165
f 165 9 166
f 165 17 9
f 164 17 165
f 164 18 17
f 10 17 18
f 163 18 164
f 163 20 18
f 19 18 20
f 19 20 2
f 2 20 21
f 162 21 20
f 161 21 162
f 161 3 21
f 16 3 161
f 161 167 16
f 161 146 167
f 167 146 147
f 167 147 168
f 168 147 148
f 168 148 169
f 169 148 149
f 169 149 170
f 170 149 145
f 170 145 171
f 170 171 13
f 13 171 172
f 13 172 22
f 22 23 13
f 13 23 24
f 13 24 25
f 24 178 25
f 25 178 179
f 178 136 179
f 179 136 135
f 36 135 136
f 35 135 36
f 35 134 135
f 34 134 35
f 34 133 134
f 181 134 133
f 181 133 182
f 11 181 182
f 27 181 11
f 27 180 181
f 26 180 27
f 26 179 180
f 13 26 27
f 13 27 11
f 11 12 13
f 13 12 14
f 13 14 15
f 15 14 1
f 15 1 16
f 16 168 15
f 1 14 183
f 183 184 1
f 183 130 184
f 182 130 183
f 12 182 183
f 184 130 131
f 130 29 131
f 29 130 133
f 12 183 14
f 11 182 12
f 182 133 130
f 180 134 181
f 29 133 34
f 180 135 134
f 34 35 36
f 37 34 36
f 37 36 46
f 46 36 47
f 46 47 48
f 48 52 46
f 48 138 52
f 138 139 52
f 52 139 49
f 139 140 49
f 140 139 176
f 177 140 176
f 176 23 177
f 177 23 174
f 174 141 177
f 174 142 141
f 173 142 174
f 173 143 142
f 172 143 173
f 172 144 143
f 143 144 51
f 51 144 145
f 51 145 53
f 53 49 51
f 49 50 51
f 49 141 50
f 46 49 53
f 148 46 53
f 50 143 51
f 50 142 143
f 22 173 174
f 141 142 50
f 177 141 140
f 49 140 141
f 176 139 138
f 176 138 175
f 175 24 176
f 175 138 137
f 175 137 178
f 48 137 138
f 46 52 49
f 47 137 48
f 47 136 137
f 147 37 46
f 36 136 47
f 179 135 180
f 178 137 136
f 25 179 26
f 24 175 178
f 25 26 13
f 176 24 23
f 22 174 23
f 172 173 22
f 171 144 172
f 15 170 13
f 171 145 144
f 149 53 145
f 15 169 170
f 148 53 149
f 168 169 15
f 147 46 148
f 16 167 168
f 162 20 163
f 162 146 161
f 146 37 147
f 29 34 37
f 131 29 28
f 152 39 30
f 151 39 152
f 166 150 151
f 158 42 41
f 159 150 166
f 166 7 159
f 159 7 127
f 157 42 158
f 157 43 42
f 40 43 44
f 127 156 159
f 155 45 44
f 33 44 45
f 126 32 154
f 33 45 31
f 129 32 153
f 129 105 122
f 40 44 33
f 128 38 40
f 188 128 189
f 122 104 111
f 106 109 111
f 115 116 117
f 115 117 118
f 108 119 109
f 119 123 112
f 112 74 113
f 100 113 243
f 99 100 96
f 118 117 114
f 99 102 103
f 190 115 118
f 127 103 102
f 127 7 5
f 160 4 190
f 4 189 121
f 6 5 7
f 166 9 7
f 9 17 10
f 8 188 189
f 10 18 19
f 187 132 188
f 131 28 132
f 184 131 185
f 2 186 19
f 1 184 185
f 16 1 3
f 2 21 3

