# https://github.com/mikedh/trimesh
v -0.00694788 -0.01811963 -0.29604143
v -0.00752313 -0.01804514 -0.29728642
v -0.00752327 -0.00796338 -0.29728678
v -0.00787014 -0.01798805 -0.29857153
v -0.00787553 -0.00796338 -0.30141285
v -0.00790168 -0.01792934 -0.30125752
v -0.00611755 -0.00796338 -0.30516231
v -0.00523626 -0.01830113 -0.29395887
v -0.00515514 -0.00796338 -0.29388961
v -0.00293040 -0.01850987 -0.29256317
v -0.00140571 -0.00796338 -0.29213163
v -0.00140571 -0.01863708 -0.29213160
v -0.00029400 -0.01872673 -0.29201257
v 0.00272038 -0.00796338 -0.29248390
v 0.00237244 -0.01893648 -0.29236701
v 0.00662102 -0.01927988 -0.29551691
v 0.00611737 -0.01923672 -0.29485181
v 0.00611755 -0.00796338 -0.29485202
v 0.00476684 -0.01912565 -0.29358241
v 0.00272029 -0.01896370 -0.29248384
v 0.00773114 -0.01938278 -0.29795057
v 0.00787553 -0.00796338 -0.29860145
v 0.00787551 -0.01939832 -0.29860136
v 0.00797697 -0.01941697 -0.30061373
v 0.00752326 -0.00796338 -0.30272752
v 0.00752323 -0.01938440 -0.30272764
v 0.00515515 -0.00796338 -0.30612469
v 0.00584879 -0.01922937 -0.30546531
v 0.00732858 -0.01936785 -0.30321527
v 0.00140571 -0.00796338 -0.30788267
v 0.00369767 -0.01901069 -0.30710134
v 0.00515465 -0.01916026 -0.30612510
v -0.00272038 -0.00796338 -0.30753040
v -0.00271983 -0.01833993 -0.30753061
v -0.00156290 -0.01845759 -0.30785298
v 0.00112565 -0.01873957 -0.30792755
v 0.00140558 -0.01876921 -0.30788270
v -0.00704698 -0.01796042 -0.30379400
v -0.00611755 -0.01802721 -0.30516228
v -0.00406644 -0.01820831 -0.30689657
f 1 2 3
f 1 3 8
f 8 3 9
f 8 9 10
f 10 9 11
f 10 11 12
f 12 11 13
f 13 11 14
f 13 14 15
f 14 20 15
f 14 19 20
f 18 19 14
f 18 17 19
f 16 17 18
f 16 18 21
f 21 18 22
f 21 22 23
f 23 22 24
f 24 22 25
f 24 25 26
f 25 29 26
f 25 28 29
f 27 28 25
f 27 32 28
f 27 31 32
f 30 31 27
f 30 37 31
f 30 36 37
f 35 36 30
f 30 34 35
f 33 34 30
f 33 40 34
f 33 39 40
f 7 39 33
f 7 38 39
f 6 38 7
f 5 6 7
f 5 4 6
f 3 4 5
f 3 2 4

