# https://github.com/mikedh/trimesh
v 0.03387363 0.00206379 -0.24282818
v 0.03387146 -0.00193620 -0.24282826
v 0.03379015 -0.00143615 -0.24342954
v 0.03379178 0.00156386 -0.24342947
v 0.03378675 0.00175520 -0.24346730
v 0.03377221 0.00191742 -0.24357507
v 0.03375039 0.00202583 -0.24373636
v 0.03372459 0.00206391 -0.24392660
v 0.03372242 -0.00193610 -0.24392670
v 0.03374825 -0.00189805 -0.24373645
v 0.03377019 -0.00178969 -0.24357516
v 0.03378490 -0.00162748 -0.24346739
f 5 6 1
f 1 4 5
f 1 3 4
f 2 3 1
f 2 12 3
f 11 12 2
f 11 2 10
f 10 2 9
f 1 6 7
f 1 7 8

