# https://github.com/mikedh/trimesh
v 0.02836792 0.00868528 -0.07965627
v 0.02844237 0.00502397 -0.07599784
v 0.02846960 0.00002360 -0.07465981
v 0.02844231 -0.00497602 -0.07600072
v 0.02836781 -0.00863523 -0.07966127
v 0.02826607 -0.00997353 -0.08466063
v 0.02816435 -0.00863234 -0.08965920
v 0.02808995 0.00502896 -0.09331475
v 0.02816445 0.00868817 -0.08965420
v 0.02826619 0.01002647 -0.08465485
v 0.02808990 -0.00497103 -0.09331764
v 0.02806266 0.00002935 -0.09465566
v 0.02661648 -0.00567434 -0.07640658
v 0.02645344 -0.00997353 -0.08462373
v 0.02650422 -0.00963354 -0.08203594
v 0.02655193 -0.00863523 -0.07962432
v 0.02635645 -0.00863234 -0.08962241
v 0.02628694 -0.00497103 -0.09328094
v 0.02626355 0.00002936 -0.09461905
v 0.02632477 0.00709958 -0.09168871
v 0.02629254 0.00502897 -0.09327818
v 0.02627166 0.00261745 -0.09427766
v 0.02663113 0.00502397 -0.07596097
v 0.02656162 0.00868528 -0.07961951
v 0.02646463 0.01002646 -0.08461818
v 0.02641385 0.00968648 -0.08720598
v 0.02636614 0.00868817 -0.08961760
v 0.02662553 -0.00497604 -0.07596374
v 0.02664641 -0.00256451 -0.07496426
v 0.02665452 0.00002359 -0.07462287
f 13 4 5
f 13 28 4
f 4 28 29
f 4 29 3
f 3 29 30
f 3 30 23
f 3 23 2
f 2 23 24
f 2 24 1
f 1 24 25
f 1 25 10
f 10 25 26
f 10 26 9
f 9 26 27
f 9 27 20
f 9 20 8
f 8 20 21
f 8 21 12
f 12 21 22
f 12 22 19
f 18 12 19
f 18 11 12
f 17 11 18
f 17 7 11
f 14 7 17
f 14 6 7
f 5 6 14
f 14 15 5
f 5 15 16
f 5 16 13

