# https://github.com/mikedh/trimesh
v 0.03550125 0.04124679 -0.07310352
v 0.03550125 -0.03875321 -0.07310311
v 0.03550125 0.03623441 -0.07310349
v 0.03550125 0.03620121 -0.07300273
v 0.03550125 0.03619082 -0.07290350
v 0.03550125 0.03619091 -0.06680349
v 0.03550125 -0.03369746 -0.06680312
v 0.03550125 -0.03369743 -0.07290312
v 0.03550125 -0.03374104 -0.07310313
v 0.03550125 -0.03369748 -0.06280312
v 0.03550125 0.03619096 -0.06280349
v 0.00045865 -0.02536175 -0.06280212
v 0.00045853 -0.02536177 -0.06680214
v 0.00051664 -0.02569769 -0.06680212
v 0.02870718 -0.03506025 -0.06680292
v 0.00051676 -0.02569768 -0.06280213
v 0.00080573 -0.02611938 -0.06680214
v 0.00080585 -0.02611935 -0.06280214
v 0.00149680 -0.02671411 -0.06680216
v 0.00170568 -0.02688794 -0.06280215
v 0.02870730 -0.03506023 -0.06280292
v 0.02163162 -0.03510133 -0.06280271
v 0.02163149 -0.03510135 -0.06680270
v 0.01447150 -0.03371430 -0.06280249
v 0.01447139 -0.03371432 -0.06680251
v 0.00772214 -0.03092716 -0.06280232
v 0.00772201 -0.03092719 -0.06680232
v 0.00170556 -0.02688796 -0.06680217
v 0.00145133 -0.02292294 -0.06680217
v 0.00145115 -0.02292297 -0.07290217
v 0.00145117 -0.02535084 -0.07310216
v 0.00145115 -0.02289907 -0.07303510
v 0.00145115 -0.02286770 -0.07310218
v 0.00145071 0.02540868 -0.07297602
v 0.00145071 0.02536066 -0.07310243
v 0.00145069 0.02784380 -0.07310244
v 0.00145090 0.02541596 -0.06680242
v 0.00145072 0.02541593 -0.07290242
v 0.01552800 -0.03297433 -0.07310254
v 0.01137445 -0.03154795 -0.07310242
v 0.00742882 -0.02961962 -0.07310231
v 0.03550125 -0.03264795 -0.07310314
v 0.03438872 -0.03297418 -0.07310310
v 0.03550125 0.03514132 -0.07310349
v 0.03438820 0.03546770 -0.07310345
v 0.00742828 0.03211269 -0.07310264
v 0.01137387 0.03404110 -0.07310276
v 0.01552741 0.03546754 -0.07310289
v 0.00583466 0.03115151 -0.07310259
v 0.00583521 -0.02865849 -0.07310227
v 0.00593488 0.03121946 -0.07310258
v 0.00593543 -0.02872643 -0.07310227
v 0.00059318 0.02729199 -0.07300144
v 0.00056134 0.02729198 -0.07310241
v 0.00078946 0.02623959 -0.07310241
v 0.00082747 0.02625686 -0.07290241
v 0.00060309 0.02729199 -0.07290241
v 0.00732143 0.03205575 -0.07310263
v 0.01564321 0.03550283 -0.07310289
v 0.03427238 0.03550300 -0.07310345
v 0.03427300 -0.03300944 -0.07310309
v 0.01564382 -0.03300961 -0.07310253
v 0.00732199 -0.02956268 -0.07310232
v 0.00078724 -0.02375253 -0.07310215
v 0.00056182 -0.02479904 -0.07310213
v 0.00060357 -0.02479905 -0.07290214
v 0.00082529 -0.02376972 -0.07290215
v 0.00148973 0.02921469 -0.07300148
v 0.00149611 0.02920710 -0.07290244
v 0.00644001 0.03271181 -0.07300165
v 0.00644503 0.03270327 -0.07290260
v 0.01190061 0.03534178 -0.07300182
v 0.01190416 0.03533254 -0.07290278
v 0.01419623 0.03612408 -0.07290285
v 0.01772106 0.03703214 -0.07300200
v 0.02979309 0.03742504 -0.07290333
v 0.02979439 0.03743486 -0.07300237
v 0.02374129 0.03772641 -0.07290316
v 0.02374096 0.03773631 -0.07300219
v 0.02131888 0.03756482 -0.07290308
v 0.01772303 0.03702243 -0.07290297
v 0.02979861 0.03746641 -0.07310333
v 0.02373989 0.03776813 -0.07310314
v 0.01771475 0.03706335 -0.07310297
v 0.01188923 0.03537151 -0.07310279
v 0.00642385 0.03273925 -0.07310261
v 0.00146927 0.02923907 -0.07310244
v 0.03214025 -0.03458229 -0.07310302
v 0.03213205 -0.03454135 -0.07290303
v 0.02858590 -0.03507257 -0.07290292
v 0.02859235 -0.03511389 -0.07310291
v 0.02495466 -0.03525330 -0.07290281
v 0.02495465 -0.03529505 -0.07310281
v 0.02131914 -0.03507146 -0.07290269
v 0.02131670 -0.03511316 -0.07310269
v 0.01777710 -0.03453995 -0.07290260
v 0.01776887 -0.03458087 -0.07310259
v 0.01419661 -0.03363081 -0.07290250
v 0.01418541 -0.03367103 -0.07310250
v 0.01081177 -0.03240046 -0.07290240
v 0.01079559 -0.03243894 -0.07310239
v 0.00750064 -0.03080774 -0.07290231
v 0.00748117 -0.03084467 -0.07310230
v 0.00441082 -0.02892049 -0.07290222
v 0.00438732 -0.02895499 -0.07310223
v 0.00149661 -0.02671414 -0.07290214
v 0.00146977 -0.02674613 -0.07310215
v 0.00066860 -0.02552802 -0.07310213
v 0.00101486 -0.02617281 -0.07290214
v 0.00097997 -0.02619575 -0.07310215
v 0.00083781 -0.02585558 -0.07290214
v 0.00070860 -0.02551604 -0.07290214
v 0.00083732 0.02834853 -0.07290243
v 0.00082833 0.02835272 -0.07300145
v 0.00079947 0.02836617 -0.07310242
v 0.02037730 0.03644990 -0.07310305
v 0.02810176 0.03660723 -0.07310327
v 0.02810192 -0.03411383 -0.07310291
v 0.02037762 -0.03395656 -0.07310268
v 0.00082765 0.02625689 -0.06680240
v 0.00060327 0.02729202 -0.06680240
v 0.00082547 -0.02376969 -0.06680215
v 0.00060375 -0.02479900 -0.06680214
v 0.03476664 0.03640417 -0.06680347
v 0.02808443 0.03761261 -0.06680328
v 0.02113107 0.03754552 -0.06680307
v 0.01820406 0.03711636 -0.06680299
v 0.01419642 0.03612411 -0.06680286
v 0.01119514 0.03505242 -0.06680276
v 0.00750036 0.03330090 -0.06680264
v 0.00474308 0.03163743 -0.06680255
v 0.00149629 0.02920713 -0.06680244
v 0.00083798 -0.02585555 -0.06680214
v 0.00083749 0.02834857 -0.06680242
v 0.00775309 0.04124653 -0.07310269
v 0.00554737 0.04073369 -0.07310262
v -0.00199867 0.03602215 -0.07310238
v -0.00844276 0.02988900 -0.07310215
v -0.01352146 0.02258500 -0.07310196
v -0.01702715 0.01440871 -0.07310182
v -0.01881653 0.00569438 -0.07310171
v -0.01881645 -0.00320178 -0.07310168
v -0.01702691 -0.01191610 -0.07310168
v -0.01352107 -0.02009231 -0.07310174
v -0.00844225 -0.02739623 -0.07310186
v -0.00199805 -0.03352925 -0.07310202
v 0.00554809 -0.03824066 -0.07310221
v 0.00775381 -0.03875346 -0.07310228
v 0.03476676 0.03640420 -0.06280348
v 0.02808455 0.03761263 -0.06280328
v 0.02113119 0.03754554 -0.06280307
v 0.01820417 0.03711638 -0.06280298
v 0.01119526 0.03505244 -0.06280275
v 0.00474319 0.03163745 -0.06280255
v 0.00117216 0.02893183 -0.06280243
v 0.00045817 0.02785480 -0.06280240
v 0.00057457 0.02832304 -0.06280240
v 0.00117204 0.02893182 -0.06680244
v 0.00045805 0.02785477 -0.06680241
v 0.00057445 0.02832302 -0.06680241
f 12 13 14
f 12 159 13
f 156 159 12
f 157 159 156
f 157 160 159
f 155 160 157
f 155 158 160
f 132 158 155
f 154 132 155
f 154 131 132
f 130 131 154
f 154 129 130
f 129 73 130
f 129 74 73
f 72 73 74
f 71 73 72
f 70 71 72
f 70 69 71
f 68 69 70
f 70 86 68
f 68 86 87
f 86 136 87
f 87 136 137
f 87 137 115
f 115 137 138
f 115 138 54
f 53 115 54
f 114 115 53
f 57 114 53
f 113 114 57
f 134 113 57
f 134 57 121
f 56 121 57
f 56 120 121
f 37 120 56
f 56 38 37
f 34 38 56
f 34 56 55
f 55 35 34
f 55 140 35
f 35 140 141
f 35 141 142
f 143 35 142
f 144 35 143
f 144 65 35
f 145 65 144
f 145 108 65
f 110 108 145
f 110 145 107
f 107 109 110
f 110 109 111
f 110 111 108
f 108 111 112
f 108 112 66
f 66 112 123
f 123 112 133
f 122 66 123
f 122 67 66
f 64 66 67
f 64 67 30
f 32 64 30
f 32 33 64
f 64 33 116
f 64 116 59
f 59 48 64
f 64 48 47
f 64 47 35
f 35 47 46
f 35 46 58
f 58 51 35
f 35 51 49
f 35 49 36
f 116 33 50
f 33 31 50
f 116 50 117
f 117 50 60
f 50 45 60
f 50 52 45
f 45 52 63
f 45 63 41
f 45 41 40
f 40 39 45
f 45 39 62
f 45 62 119
f 119 118 45
f 45 118 61
f 45 61 43
f 43 44 45
f 42 44 43
f 29 30 67
f 65 66 64
f 29 67 122
f 111 133 112
f 109 133 111
f 109 19 133
f 106 19 109
f 19 106 28
f 28 20 19
f 27 20 28
f 27 26 20
f 25 26 27
f 27 100 25
f 25 100 98
f 25 98 96
f 97 96 98
f 95 96 97
f 95 94 96
f 93 94 95
f 93 92 94
f 23 94 92
f 23 92 15
f 15 22 23
f 15 21 22
f 10 21 15
f 15 7 10
f 89 7 15
f 8 7 89
f 8 89 88
f 88 89 90
f 88 90 91
f 88 91 2
f 2 91 93
f 2 93 148
f 2 9 88
f 91 90 92
f 88 9 8
f 15 90 89
f 23 22 24
f 23 24 25
f 15 92 90
f 91 92 93
f 148 93 95
f 23 96 94
f 148 95 97
f 97 99 148
f 148 99 101
f 99 100 101
f 101 100 102
f 101 102 103
f 103 102 104
f 103 104 105
f 105 104 106
f 105 106 107
f 146 105 107
f 146 103 105
f 147 103 146
f 27 104 102
f 147 101 103
f 148 101 147
f 97 98 99
f 25 96 23
f 99 98 100
f 27 102 100
f 25 24 26
f 28 104 27
f 18 19 20
f 18 17 19
f 16 17 18
f 16 14 17
f 28 106 104
f 107 106 109
f 107 145 146
f 66 65 108
f 35 65 64
f 55 139 140
f 54 139 55
f 55 56 57
f 132 113 134
f 132 69 113
f 113 68 114
f 55 57 53
f 53 54 55
f 54 138 139
f 114 87 115
f 86 135 136
f 85 135 86
f 85 84 135
f 135 84 83
f 75 83 84
f 75 84 72
f 79 83 75
f 80 79 75
f 80 75 81
f 127 80 81
f 127 81 128
f 128 81 74
f 127 128 153
f 153 128 129
f 152 127 153
f 151 127 152
f 151 126 127
f 150 126 151
f 150 125 126
f 125 78 126
f 125 76 78
f 124 76 125
f 124 5 76
f 6 5 124
f 6 124 149
f 149 11 6
f 5 4 76
f 76 4 77
f 4 3 77
f 77 3 82
f 1 82 3
f 1 83 82
f 77 82 79
f 78 77 79
f 149 124 125
f 76 77 78
f 126 78 80
f 149 125 150
f 126 80 127
f 81 75 74
f 78 79 80
f 79 82 83
f 135 83 1
f 72 84 85
f 68 87 114
f 70 85 86
f 69 68 113
f 131 71 69
f 72 85 70
f 72 74 75
f 128 74 129
f 130 73 71
f 153 129 154
f 130 71 131
f 131 69 132
f 12 14 16

