# https://github.com/mikedh/trimesh
v 0.04948333 -0.04702218 -0.00990872
v 0.04810600 -0.04727978 -0.01106309
v 0.04825447 -0.04729442 -0.01124404
v 0.05211082 -0.04700341 -0.01291194
v 0.04960189 -0.04735400 -0.01290948
v 0.05060938 -0.04729977 -0.01417395
v 0.05863459 -0.04433465 -0.00221130
v 0.05711710 -0.04446560 -0.00106187
v 0.05366570 -0.04593801 -0.00569561
v 0.05717831 -0.04540914 -0.00744800
v 0.06008228 -0.04394867 -0.00339586
v 0.05646690 -0.04570358 -0.00834343
v 0.05438490 -0.04642655 -0.01072602
v 0.04810601 0.04762135 -0.01106359
v 0.04948291 0.04736316 -0.00990886
v 0.04960190 0.04769555 -0.01290998
v 0.05178702 0.04737679 -0.01253560
v 0.05060938 0.04764132 -0.01417443
v 0.05211088 0.04734532 -0.01291242
v 0.05906071 0.04457812 -0.00263595
v 0.06008236 0.04429054 -0.00339630
v 0.05833082 0.04522215 -0.00591590
v 0.05691523 0.04470582 -0.00120502
v 0.05581901 0.04529881 -0.00283167
v 0.05732543 0.04568683 -0.00725835
v 0.05448223 0.04589837 -0.00462090
v 0.05488005 0.04661456 -0.01019357
v 0.05230488 0.04665781 -0.00716181
v 0.05167810 0.04683745 -0.00782028
v 0.06732925 -0.02294152 0.02567069
v 0.06757955 -0.01831299 0.02783214
v 0.06607138 -0.01860764 0.02876988
v 0.06839570 -0.02067382 0.02524597
v 0.06853078 -0.01783668 0.02648679
v 0.06815942 -0.01809424 0.02719747
v 0.06816866 -0.02426619 0.02321163
v 0.06697367 -0.02722106 0.02288781
v 0.06786025 -0.02765846 0.02071837
v 0.06650187 -0.03106769 0.01954608
v 0.06746930 -0.03082174 0.01775548
v 0.06593809 -0.03440665 0.01570945
v 0.06701273 -0.03343411 0.01472366
v 0.06505394 -0.03156974 0.02033479
v 0.06491820 -0.03255383 0.01931832
v 0.06448942 -0.03499921 0.01646602
v 0.06530935 -0.02948541 0.02226243
v 0.06588097 -0.02247770 0.02701808
v 0.06563331 -0.02612336 0.02483616
v 0.06549777 -0.02766654 0.02372911
v 0.05958888 -0.04260179 0.00329977
v 0.06108662 -0.04243792 0.00214977
v 0.06164751 -0.04044942 0.00774318
v 0.06311240 -0.04015872 0.00668453
v 0.06332919 -0.03796815 0.01217481
v 0.06476542 -0.03752704 0.01124563
v 0.06626324 -0.03580082 0.01150350
v 0.06281286 -0.04162244 0.00168703
v 0.06468235 -0.03903413 0.00639215
v 0.06556742 -0.03739440 0.00908021
v 0.06517991 0.02941184 0.02245943
v 0.06557398 0.02617242 0.02496541
v 0.06704402 0.02643205 0.02366969
v 0.06787674 0.02784551 0.02084584
v 0.06749387 0.03098536 0.01794132
v 0.06712372 0.03062358 0.01932552
v 0.06469800 0.03236982 0.01958321
v 0.06486090 0.03144021 0.02055680
v 0.06645112 0.03103548 0.01978191
v 0.06410186 0.03504203 0.01636578
v 0.06478319 0.03495996 0.01606158
v 0.06619229 0.03442748 0.01536072
v 0.06701291 0.03377600 0.01472337
v 0.06808574 0.02563903 0.02251802
v 0.06766320 0.02606311 0.02313416
v 0.06818349 0.02440364 0.02334329
v 0.06840573 0.02081819 0.02534324
v 0.06586786 0.02266778 0.02708043
v 0.06607137 0.01894962 0.02876967
v 0.06745605 0.02103177 0.02682406
v 0.06757426 0.01870210 0.02781861
v 0.06815639 0.01845478 0.02719468
v 0.06853072 0.01817863 0.02648659
v 0.06639951 0.01192869 0.03074964
v 0.06793673 0.01177931 0.02970518
v 0.06851016 0.01166540 0.02900125
v 0.06886102 0.01154326 0.02821058
v 0.06176788 0.04303606 -0.00049195
v 0.06079242 0.04299189 0.00179399
v 0.06353005 0.04108367 0.00336072
v 0.06282739 0.04085664 0.00575413
v 0.06414235 0.04022638 0.00491394
v 0.06095068 0.04113312 0.00663425
v 0.05925105 0.04299778 0.00288404
v 0.05732464 0.04445522 -0.00055537
v 0.06626763 0.03612948 0.01152016
v 0.06553484 0.03780239 0.00897483
v 0.06521790 0.03758514 0.01051898
v 0.06670845 0.03487332 0.01328963
v 0.06446406 0.03793167 0.01098473
v 0.06326582 0.03723964 0.01323033
v 0.06270646 0.04084504 0.00595243
v 0.06660420 -0.00541503 0.03160537
v 0.06819269 -0.00451877 0.03052405
v 0.06666210 0.00017101 0.03184425
v 0.06776738 0.00017086 0.03113675
v 0.06825018 0.00017075 0.03066806
v 0.06876320 -0.00446771 0.02974570
v 0.06865626 0.00017071 0.03014087
v 0.06886104 -0.01120129 0.02821069
v 0.06906407 -0.00615792 0.02877844
v 0.06908387 -0.00542907 0.02882625
v 0.06910697 -0.00444561 0.02887927
v 0.06915324 -0.00119671 0.02897299
v 0.06915858 0.00017099 0.02898054
v 0.06621947 -0.01522849 0.02989213
v 0.06780431 -0.01381503 0.02921143
v 0.06838009 -0.01367002 0.02853546
v 0.06861538 -0.00909944 0.02933129
v 0.06804318 -0.00919394 0.03006116
v 0.06642981 -0.01090629 0.03087752
v 0.06869011 -0.01439409 0.02756798
v 0.06902850 -0.01688655 0.02510766
v 0.06893138 -0.01456222 0.02657709
v 0.06880218 -0.02158696 0.02304362
v 0.06917468 -0.01992585 0.02269270
v 0.06895751 -0.02508710 0.01934469
v 0.06957165 -0.02488788 0.01688284
v 0.06935085 -0.02260394 0.01992771
v 0.06919280 -0.02024810 0.02239632
v 0.06966939 -0.02563581 0.01568199
v 0.06891436 -0.02817308 0.01599309
v 0.06985880 -0.02678359 0.01353900
v 0.06867246 -0.03072593 0.01328527
v 0.07002252 -0.02755017 0.01182293
v 0.07040986 -0.02877194 0.00822182
v 0.07145467 -0.02982767 0.00052850
v 0.07088048 -0.02953329 0.00449517
v 0.07057975 -0.02981982 0.00565856
v 0.07064641 -0.02923062 0.00627364
v 0.07260206 -0.03308709 -0.02162390
v 0.07452089 -0.02774246 -0.02164451
v 0.07376325 -0.02744553 -0.01256495
v 0.07242952 -0.02932059 -0.00533798
v 0.07177271 -0.03055577 -0.00340414
v 0.07207797 -0.02962035 -0.00333716
v 0.07501201 -0.02416061 -0.01763216
v 0.07574356 -0.02171315 -0.02066424
v 0.07577458 -0.02209598 -0.02169874
v 0.07600299 -0.02070137 -0.02171331
v 0.07469214 -0.02507216 -0.01625980
v 0.07425088 -0.02619617 -0.01431544
v 0.07349937 -0.02778138 -0.01082865
v 0.07276511 -0.02893407 -0.00714047
v 0.06591702 -0.03999364 -0.00348306
v 0.06309286 -0.04229476 -0.00364829
v 0.06082944 -0.04443196 -0.01268469
v 0.06481467 -0.03913211 0.00560677
v 0.06730705 -0.03642679 0.00573415
v 0.06921478 -0.03327889 0.00574608
v 0.06835881 -0.03721425 -0.00337883
v 0.07030576 -0.03402686 -0.00335595
v 0.06984951 -0.03782172 -0.02166449
v 0.06627547 -0.04159033 -0.02178011
v 0.06369442 -0.04340768 -0.02189427
v 0.06143136 -0.04460029 -0.02200253
v 0.07691898 -0.01625266 -0.02534626
v 0.07671584 -0.02242212 -0.03257035
v 0.07761420 -0.01116189 -0.02807052
v 0.07801942 -0.01102229 -0.03266026
v 0.07804670 -0.00561416 -0.02976042
v 0.07883995 -0.01049307 -0.04370422
v 0.07891916 -0.00914572 -0.04371954
v 0.07819521 0.00017068 -0.03033323
v 0.07916136 0.00017083 -0.04377144
v 0.07832005 -0.01652721 -0.04360938
v 0.07753529 -0.02215306 -0.04347670
v 0.07542145 -0.02800797 -0.03253968
v 0.07655523 -0.02659186 -0.04329706
v 0.07530556 -0.03043604 -0.04305194
v 0.07341840 -0.03329540 -0.03254429
v 0.07412387 -0.03313352 -0.04281390
v 0.07005613 -0.03911734 -0.04197069
v 0.07110373 -0.03790168 -0.04219127
v 0.07054001 -0.03799855 -0.03260650
v 0.07205994 -0.03662772 -0.04239045
v 0.07380647 -0.03375505 -0.04274936
v 0.06686322 -0.04167439 -0.03157752
v 0.06731891 -0.04163261 -0.04138219
v 0.06777261 -0.04127086 -0.04148087
v 0.06902850 0.01722848 0.02510749
v 0.06909809 0.01877337 0.02395909
v 0.06880217 0.02192888 0.02304339
v 0.06895752 0.02542898 0.01934445
v 0.06945150 0.02410616 0.01847931
v 0.06970325 0.02620837 0.01528357
v 0.06891436 0.02851494 0.01599280
v 0.06854973 0.03130343 0.01340176
v 0.06985916 0.02834985 0.01202235
v 0.07002251 0.02789197 0.01182267
v 0.06925654 0.02163254 0.02137291
v 0.06890368 0.01399086 0.02707467
v 0.06816415 0.00602794 0.03044112
v 0.06873504 0.00596670 0.02967311
v 0.06906657 0.00641242 0.02878454
v 0.06915838 0.00032489 0.02898083
v 0.06915337 0.00152239 0.02897315
v 0.06910694 0.00478856 0.02887917
v 0.06908408 0.00576264 0.02882672
v 0.06660381 0.00577588 0.03160366
v 0.06645330 0.01069400 0.03097503
v 0.07804669 0.00595555 -0.02976050
v 0.07193036 0.03481139 -0.02162839
v 0.07341840 0.03363675 -0.03254464
v 0.06984951 0.03816319 -0.02166488
v 0.07054000 0.03833991 -0.03260688
v 0.06889543 0.03936164 -0.02169050
v 0.06627546 0.04193179 -0.02178053
v 0.06719134 0.04200012 -0.03834940
v 0.06974003 0.03979402 -0.04190150
v 0.06731892 0.04197429 -0.04138263
v 0.07412332 0.03347472 -0.04281419
v 0.07373842 0.03422320 -0.04273573
v 0.07197969 0.03708149 -0.04237188
v 0.07110341 0.03824273 -0.04218866
v 0.07523967 0.03094852 -0.04303820
v 0.07542145 0.02834933 -0.03253997
v 0.07650799 0.02710612 -0.04328741
v 0.07671585 0.02276347 -0.03257059
v 0.07750166 0.02267419 -0.04347158
v 0.07260206 0.03342856 -0.02162423
v 0.07426316 0.02896841 -0.02163842
v 0.07600299 0.02104283 -0.02171353
v 0.07691897 0.01659409 -0.02534644
v 0.07801941 0.01136365 -0.03266038
v 0.07761420 0.01150329 -0.02807064
v 0.07890104 0.00982107 -0.04371601
v 0.07879841 0.01145479 -0.04369662
v 0.07827366 0.01728539 -0.04360392
v 0.07761490 0.02202602 -0.04349071
v 0.06730705 0.03676852 0.00573379
v 0.06921479 0.03362064 0.00574573
v 0.07030577 0.03436853 -0.00335632
v 0.07529919 0.02360561 -0.01883851
v 0.07041531 0.02912635 0.00817463
v 0.07064641 0.02957236 0.00627333
v 0.07057975 0.03016157 0.00565825
v 0.06591701 0.04033530 -0.00348346
v 0.06481468 0.03947386 0.00560638
v 0.06835882 0.03755589 -0.00337923
v 0.06309287 0.04263641 -0.00364873
v 0.06446946 0.04326189 -0.02185921
v 0.06143136 0.04494175 -0.02200300
v 0.06082542 0.04477157 -0.01262934
v 0.07455738 0.02577279 -0.01567292
v 0.07089563 0.02989036 0.00438364
v 0.07145467 0.03016936 0.00052820
v 0.07177271 0.03089743 -0.00340445
v 0.07168548 0.03014721 -0.00095063
v 0.07233695 0.02975212 -0.00482388
v 0.07261273 0.03136664 -0.01251302
v 0.07305288 0.02887214 -0.00862426
v 0.07376325 0.02778709 -0.01256523
v 0.07353260 0.02806141 -0.01098877
v 0.07380046 0.02753653 -0.01225670
v 0.07109571 0.03479787 -0.01249802
v 0.06950688 -0.00345938 0.02675639
v 0.06928778 -0.00419495 0.02803670
v 0.06937460 -0.00827711 0.02678709
v 0.06949418 0.00017098 0.02700022
v 0.06925192 0.00017099 0.02852219
v 0.06975707 -0.01498346 0.02234719
v 0.06970508 -0.01366602 0.02318645
v 0.06961098 -0.01044196 0.02482888
v 0.06954606 -0.00700663 0.02602861
v 0.06914756 -0.00860156 0.02783221
v 0.06990279 -0.01784256 0.02011525
v 0.07009644 -0.02037072 0.01752345
v 0.07034473 -0.02252647 0.01462644
v 0.07063846 -0.02418938 0.01164511
v 0.07074628 -0.02463901 0.01065297
v 0.07182111 -0.02834313 0.00057408
v 0.07207874 -0.02682259 0.00059548
v 0.07161639 -0.02657387 0.00370556
v 0.07114536 -0.02584004 0.00724125
v 0.07134102 -0.02621615 0.00572011
v 0.07578728 -0.02058096 -0.01961515
v 0.07265376 -0.02665936 -0.00301923
v 0.07274080 -0.02788550 -0.00501490
v 0.07294298 -0.02641453 -0.00470887
v 0.07482523 -0.02382292 -0.01542041
v 0.07450390 -0.02358826 -0.01282661
v 0.07376242 -0.02636405 -0.01040156
v 0.07393385 -0.02489870 -0.01002494
v 0.07327786 -0.02601449 -0.00658021
v 0.07579385 -0.01932099 -0.01868238
v 0.07516529 -0.02165030 -0.01590071
v 0.07487655 -0.02255460 -0.01457934
v 0.07597694 -0.01853709 -0.01946695
v 0.07780846 0.00017071 -0.02699913
v 0.07777637 -0.00244510 -0.02687243
v 0.07652632 -0.01577112 -0.02179022
v 0.07673492 -0.01451782 -0.02265376
v 0.07768421 -0.00498859 -0.02650155
v 0.07763100 -0.00598613 -0.02628781
v 0.07736927 -0.00942721 -0.02523543
v 0.07699723 -0.01270996 -0.02372861
v 0.07074634 0.02498052 0.01065261
v 0.07108759 0.02604743 0.00770673
v 0.07134107 0.02655768 0.00571979
v 0.07154948 0.02684483 0.00418269
v 0.07207876 0.02716417 0.00059520
v 0.07182116 0.02868482 0.00057378
v 0.06975710 0.01532526 0.02234687
v 0.06979635 0.01622637 0.02170867
v 0.07041573 0.02333906 0.01386785
v 0.06994630 0.01884636 0.01950154
v 0.07015351 0.02129182 0.01682030
v 0.06964717 0.01218543 0.02418193
v 0.06949615 0.00172937 0.02695550
v 0.06928777 0.00453692 0.02803665
v 0.06937460 0.00861908 0.02678699
v 0.06914736 0.00894380 0.02783296
v 0.06957057 0.00883508 0.02557226
v 0.06952047 0.00532748 0.02650428
v 0.07364722 0.00017084 0.00002377
v 0.07341390 -0.01080169 0.00010881
v 0.07281376 -0.01997138 0.00032735
v 0.07774913 0.00373752 -0.02676273
v 0.07768422 0.00533000 -0.02650161
v 0.07757343 0.00724276 -0.02605672
v 0.07728463 0.01062210 -0.02489419
v 0.07689177 0.01381496 -0.02329799
v 0.07673492 0.01485927 -0.02265393
v 0.07597694 0.01887859 -0.01946716
v 0.07640547 0.01678008 -0.02128619
v 0.07224888 0.02716555 -0.00051802
v 0.07274082 0.02822713 -0.00501517
v 0.07376242 0.02670561 -0.01040184
v 0.07578729 0.02092244 -0.01961535
v 0.07536367 0.02131364 -0.01679217
v 0.07482522 0.02416444 -0.01542065
v 0.07471268 0.02336864 -0.01381575
v 0.07404569 0.02500808 -0.01058752
v 0.07284380 0.02685107 -0.00413789
v 0.07294299 0.02675608 -0.00470912
v 0.07348203 0.02605467 -0.00768159
v 0.07298333 0.01826871 0.00026541
v 0.07328167 0.01379215 0.00015684
v 0.07328090 0.01380589 0.00015710
v 0.07349274 0.00915417 0.00008000
v 0.04171189 0.04199455 -0.12389813
v 0.04356341 0.04185747 -0.12389845
v 0.03816415 0.04238748 -0.12389757
v 0.03623215 0.04266152 -0.12389726
v 0.06514936 0.03640255 -0.12390188
v 0.07574043 0.00017036 -0.12390337
v 0.07565561 0.00632980 -0.12390339
v 0.07536613 0.01208047 -0.12390339
v 0.07355296 0.02378649 -0.12390317
v 0.07434168 0.02033032 -0.12390327
v 0.07481336 0.01742292 -0.12390333
v 0.07139125 0.02945012 -0.12390286
v 0.07250747 0.02698128 -0.12390301
v 0.06748499 0.03459316 -0.12390226
v 0.06991536 0.03185395 -0.12390263
v 0.06841289 0.03367922 -0.12390240
v 0.06813018 0.03397231 -0.12390236
v 0.05292632 0.04074860 -0.12389995
v 0.05737457 0.03974921 -0.12390065
v 0.05871028 0.03935423 -0.12390086
v 0.06098217 0.03854470 -0.12390123
v 0.06243359 0.03791385 -0.12390146
v 0.04713529 0.04154992 -0.12389901
v 0.06568426 -0.03722704 -0.12390152
v 0.06163712 -0.03930156 -0.12390085
v 0.06183388 -0.03784594 -0.12390088
v 0.06407575 -0.03671990 -0.12390125
v 0.06641687 -0.03515433 -0.12390164
v 0.06922053 -0.03433681 -0.12390210
v 0.04364898 0.04311035 -0.12389847
v 0.05236800 0.04212165 -0.12389986
v 0.02535917 -0.04460956 -0.12389495
v 0.02535557 -0.04460953 -0.12389496
v 0.02535556 -0.04341964 -0.12389497
v 0.07288759 0.02932139 -0.12390310
v 0.07061611 0.03305399 -0.12390275
v 0.06907383 0.03482919 -0.12390251
v 0.06732472 0.03640036 -0.12390223
v 0.06348842 0.03880874 -0.12390164
v 0.05906998 0.04056462 -0.12390094
v 0.03641010 0.04387671 -0.12389729
v 0.03087368 0.04468501 -0.12389641
v 0.02890722 0.04365787 -0.12389609
v 0.02535917 0.04495103 -0.12389553
v 0.02535556 0.04376062 -0.12389545
v 0.02535556 0.04495100 -0.12389546
v 0.03087368 -0.04434354 -0.12389585
v 0.05584285 -0.04109374 -0.12389991
v 0.05535243 -0.03991573 -0.12389983
v 0.05872673 -0.03900807 -0.12390038
v 0.07539625 -0.02126667 -0.12390317
v 0.07392637 -0.02651120 -0.12390291
v 0.07245295 -0.02677919 -0.12390267
v 0.06846186 -0.03328608 -0.12390198
v 0.06916859 -0.03248189 -0.12390210
v 0.07184740 -0.03090567 -0.12390254
v 0.07085785 -0.03006782 -0.12390240
v 0.07224929 -0.02727905 -0.12390264
v 0.07589796 0.01886382 -0.12390351
v 0.07464132 0.02465915 -0.12390335
v 0.04787638 -0.04239256 -0.12389860
v 0.04364895 -0.04276890 -0.12389793
v 0.04356341 -0.04151653 -0.12389792
v 0.04897454 -0.04100112 -0.12389880
v 0.05102183 -0.04072146 -0.12389912
v 0.05399298 -0.04020537 -0.12389961
v 0.02906486 -0.04330562 -0.12389557
v 0.03272490 -0.04287910 -0.12389615
v 0.03641010 -0.04353526 -0.12389674
v 0.03623215 -0.04232056 -0.12389673
v 0.04161751 -0.04166154 -0.12389760
v 0.07703114 0.00017045 -0.12390357
v 0.07669164 0.01160216 -0.12390360
v 0.07369511 -0.02290970 -0.12390289
v 0.07462186 -0.01837384 -0.12390308
v 0.07640316 -0.01463794 -0.12390339
v 0.07496964 -0.01587287 -0.12390314
v 0.07694608 -0.00595109 -0.12390353
v 0.07554019 -0.00890442 -0.12390327
v 0.03489711 -0.04844887 -0.01818336
v 0.03929583 -0.04825102 -0.01645629
v 0.03495792 -0.04802272 -0.01157138
v 0.04330895 -0.04792424 -0.01437158
v 0.03497716 -0.04728027 -0.00500269
v 0.04690566 -0.04747422 -0.01198879
v 0.02982546 -0.04495212 -0.12340065
v 0.02535639 -0.04511005 -0.12339107
v 0.03648244 -0.04403030 -0.12342558
v 0.03507507 -0.04424237 -0.12342771
v 0.03489930 -0.04426977 -0.12342781
v 0.03481142 -0.04428354 -0.12342778
v 0.03463568 -0.04431120 -0.12342758
v 0.03445997 -0.04433900 -0.12342720
v 0.03428427 -0.04436694 -0.12342659
v 0.03410859 -0.04439500 -0.12342574
v 0.03402076 -0.04440906 -0.12342522
v 0.03384510 -0.04443722 -0.12342399
v 0.03375728 -0.04445130 -0.12342329
v 0.03358161 -0.04447940 -0.12342177
v 0.03349378 -0.04449341 -0.12342093
v 0.03331808 -0.04452126 -0.12341922
v 0.03323021 -0.04453509 -0.12341832
v 0.03305444 -0.04456248 -0.12341656
v 0.03296652 -0.04457603 -0.12341566
v 0.03261470 -0.04462894 -0.12341229
v 0.03120350 -0.04481473 -0.12340313
v 0.04231307 -0.04336282 -0.12344393
v 0.04368414 -0.04326529 -0.12344691
v 0.04368415 0.04360661 -0.12344745
v 0.03784385 0.04418241 -0.12342822
v 0.03648244 0.04437177 -0.12342613
v 0.03649193 -0.04459573 -0.11400769
v 0.03649724 -0.04519140 -0.10664181
v 0.04368659 -0.04503708 -0.10448948
v 0.03649917 -0.04537493 -0.10448837
v 0.07752550 0.00017046 -0.12347879
v 0.07752185 -0.00117269 -0.12347908
v 0.07751052 -0.00251581 -0.12347909
v 0.04956539 -0.04269384 -0.12344863
v 0.05337823 -0.04210877 -0.12344962
v 0.05712036 -0.04129436 -0.12345272
v 0.06648572 -0.03729135 -0.12346224
v 0.06595252 -0.03764496 -0.12346112
v 0.06391608 -0.03880934 -0.12345787
v 0.06059832 -0.04023201 -0.12345593
v 0.06877025 -0.03547382 -0.12346488
v 0.06956925 -0.03469145 -0.12346493
v 0.07306391 -0.02973984 -0.12347033
v 0.07227058 -0.03116220 -0.12347044
v 0.07147171 -0.03238383 -0.12346985
v 0.06993998 -0.03429552 -0.12346539
v 0.07439123 -0.02668103 -0.12347271
v 0.07346951 -0.02891042 -0.12347063
v 0.07651673 -0.01775235 -0.12347417
v 0.07594208 -0.02107373 -0.12347405
v 0.07486761 -0.02527820 -0.12347375
v 0.07746173 -0.00520173 -0.12347827
v 0.07723214 -0.01057026 -0.12347741
v 0.07714710 -0.01181807 -0.12347782
v 0.06267811 0.03974000 -0.12345725
v 0.06371006 0.03925439 -0.12345813
v 0.07752191 0.00150377 -0.12347911
v 0.07746276 0.00550267 -0.12347837
v 0.07751075 0.00283699 -0.12347914
v 0.07675993 0.01624057 -0.12347627
v 0.07723757 0.01082481 -0.12347752
v 0.07596920 0.02128152 -0.12347428
v 0.07612505 0.02047616 -0.12347401
v 0.07638838 0.01894152 -0.12347388
v 0.07512504 0.02476572 -0.12347441
v 0.07401653 0.02799513 -0.12347205
v 0.07333450 0.02953674 -0.12347086
v 0.07091500 0.03347756 -0.12346856
v 0.07115438 0.03316302 -0.12346938
v 0.07277577 0.03062581 -0.12347071
v 0.06994016 0.03463677 -0.12346583
v 0.06894088 0.03565570 -0.12346528
v 0.06665426 0.03751616 -0.12346308
v 0.06579659 0.03808561 -0.12346128
v 0.05907287 0.04108340 -0.12345562
v 0.05566061 0.04198751 -0.12345111
v 0.05245006 0.04261212 -0.12345028
v 0.04502347 0.04350482 -0.12344782
v 0.04600383 0.04342061 -0.12344795
v 0.05036695 0.04292880 -0.12344976
v 0.03649191 0.04494138 -0.11395247
v 0.04368660 0.04537875 -0.10448995
v 0.03649772 0.04547499 -0.10733654
v 0.03649918 0.04571660 -0.10448883
v 0.02535639 0.04545100 -0.12339166
v 0.03094461 0.04518523 -0.12340292
v 0.02571217 0.04545285 -0.12339608
v 0.02766873 0.04542383 -0.12340137
v 0.03093115 0.04518669 -0.12340289
v 0.03489711 0.04879000 -0.01818388
v 0.03495793 0.04836429 -0.01157184
v 0.03646172 0.04873681 -0.01762895
v 0.04067495 0.04849773 -0.01580078
v 0.04458088 0.04812654 -0.01359089
v 0.03497716 0.04762154 -0.00500316
v 0.03497116 0.04643778 0.00214233
v 0.03495629 0.04481145 0.00916833
v 0.03494972 0.04359328 0.01328202
v 0.03494667 0.04168125 0.01853250
v 0.03494829 0.04311832 0.01470358
v 0.02535910 0.04542219 -0.12173153
v 0.03093845 0.04527216 -0.11394783
v 0.02538727 0.04570974 -0.10448695
v 0.02681611 0.04573834 -0.10448728
v 0.02537510 0.04531663 -0.11193510
v 0.02537183 0.04527278 -0.11394165
v 0.03351435 0.04905233 -0.04634321
v 0.03376760 0.04907939 -0.04398788
v 0.03591152 0.04906746 -0.04509316
v 0.07711665 0.02738212 -0.06308186
v 0.07509632 0.03263110 -0.06279036
v 0.08016039 0.00017133 -0.07603986
v 0.08000083 0.00017140 -0.09012634
v 0.07981075 0.01063087 -0.08363253
v 0.02541303 0.04694626 -0.08871502
v 0.03584324 0.04599009 -0.10150445
v 0.04677654 0.04532656 -0.10211384
v 0.05218382 0.04462282 -0.10241953
v 0.05701901 0.04268898 -0.11336322
v 0.06210884 0.04109257 -0.11350840
v 0.06684443 0.03865920 -0.11363743
v 0.07087918 0.03520117 -0.11374059
v 0.07389788 0.03083339 -0.11381556
v 0.07591715 0.02592503 -0.11386586
v 0.07718695 0.02077558 -0.11389632
v 0.07839896 0.01025151 -0.11392791
v 0.07852328 0.00017087 -0.11542511
v 0.07998945 0.00017116 -0.06346256
v 0.07966734 0.01078781 -0.06341160
v 0.07990225 0.00017109 -0.06029854
v 0.07839486 0.02191461 -0.06325093
v 0.07211820 0.03739944 -0.06234555
v 0.07373687 0.03509755 -0.06258901
v 0.06581319 0.04290070 -0.06135001
v 0.06812662 0.04132963 -0.06172445
v 0.07024079 0.03948933 -0.06205738
v 0.06441905 0.04390150 -0.04073158
v 0.06334457 0.04420195 -0.06094109
v 0.06142957 0.04533538 -0.04005608
v 0.05810611 0.04607071 -0.06005665
v 0.05815184 0.04644566 -0.03931672
v 0.05434866 0.04736971 -0.03847135
v 0.05267322 0.04728503 -0.05914131
v 0.05354198 0.04753300 -0.03829345
v 0.04714681 0.04808713 -0.05821988
v 0.04797295 0.04840069 -0.03707433
v 0.03431490 0.04911655 -0.03675843
v 0.03444924 0.04910221 -0.03419678
v 0.04126103 0.04896278 -0.03563134
v 0.04472243 0.04873095 -0.03637195
v 0.04156195 0.04857424 -0.05729956
v 0.03593761 0.04880297 -0.05638524
v 0.03283913 0.04895848 -0.05103348
v 0.02675370 0.04833713 -0.06522793
v 0.02724005 0.04838277 -0.06456334
v 0.03593455 0.04769462 -0.07896036
v 0.02818226 0.04846433 -0.06340591
v 0.02961690 0.04859026 -0.06125973
v 0.02544424 0.04808651 -0.06960085
v 0.02566689 0.04818265 -0.06773960
v 0.02591673 0.04823041 -0.06690528
v 0.03070083 0.04869803 -0.05897056
v 0.03181301 0.04882421 -0.05566186
v 0.06327149 0.04322714 -0.08198696
v 0.06808607 0.04050026 -0.08250761
v 0.07022978 0.03874147 -0.08272900
v 0.07213991 0.03672878 -0.08292069
v 0.07378900 0.03449594 -0.08308273
v 0.07517315 0.03209050 -0.08321681
v 0.07722586 0.02694757 -0.08341118
v 0.07852740 0.02157707 -0.08352425
v 0.07932787 0.01611904 -0.08358851
v 0.04710446 0.04696225 -0.08017907
v 0.05261488 0.04618796 -0.08079118
v 0.05803528 0.04501706 -0.08139929
v 0.05751225 0.04353811 -0.10272308
v 0.06267437 0.04186983 -0.10301639
v 0.07317105 0.03361902 -0.10356499
v 0.07455645 0.03129604 -0.10363263
v 0.07660034 0.02630210 -0.10373131
v 0.07941736 0.00017123 -0.10407665
v 0.07914194 0.01039202 -0.10384714
v 0.07868023 0.01574860 -0.10382351
v 0.07789171 0.02107157 -0.10378961
v 0.06745730 0.03933125 -0.10327654
v 0.06960133 0.03767540 -0.10338736
v 0.07151692 0.03576136 -0.10348350
v 0.06466628 0.04356692 -0.03167025
v 0.05430325 0.04738198 -0.03695738
v 0.04456205 0.04872541 -0.03260094
v 0.06049011 0.04567880 -0.03666877
v 0.06486646 0.04357921 -0.03647281
v 0.06031155 0.04568105 -0.03186899
v 0.05412840 0.04739600 -0.03215567
v 0.05803646 0.04624045 -0.02217555
v 0.05976061 0.04564225 -0.02208673
v 0.04408110 0.04859423 -0.02292558
v 0.04890574 0.04810340 -0.02266410
v 0.05436243 0.04719792 -0.02237028
v 0.03480624 0.04895098 -0.02345619
v 0.04194628 0.04873938 -0.02304369
v 0.03466728 0.04904915 -0.02865994
v 0.03446481 0.04910029 -0.03386366
v 0.03482773 0.04891443 -0.02241391
v 0.03486579 0.04885456 -0.02029885
v 0.03494664 0.04090756 0.02034927
v 0.04802651 0.04805241 -0.01610067
v 0.04406551 0.04849413 -0.01853601
v 0.04348261 0.04844731 -0.01681872
v 0.04203293 0.04852710 -0.01698536
v 0.04322441 0.04843052 -0.01634252
v 0.04229121 0.04854351 -0.01746156
v 0.04000360 0.04877063 -0.02050705
v 0.05780815 0.04598874 -0.01278071
v 0.05447921 0.04690425 -0.01296029
v 0.03494718 -0.01865574 0.04311823
v 0.03494713 -0.02261944 0.04121919
v 0.03494708 -0.02599493 0.03909278
v 0.03494707 -0.02672995 0.03855669
v 0.03494705 -0.02791765 0.03762867
v 0.03494700 -0.02980921 0.03598068
v 0.03494693 -0.03262619 0.03307161
v 0.03494686 -0.03518989 0.02984083
v 0.04322442 -0.04808899 -0.01634203
v 0.04348260 -0.04810580 -0.01681821
v 0.03889225 -0.04847858 -0.02096692
v 0.04309156 -0.04823327 -0.01905220
v 0.04229119 -0.04820200 -0.01746102
v 0.04698807 -0.04784668 -0.01679468
v 0.03482773 -0.04857334 -0.02241340
v 0.04203293 -0.04818558 -0.01698488
v 0.03486580 -0.04851307 -0.02029836
v 0.05448385 -0.04656499 -0.01301557
v 0.03480624 -0.04860990 -0.02345568
v 0.04206547 -0.04839091 -0.02303655
v 0.04408110 -0.04825277 -0.02292510
v 0.04858420 -0.04780232 -0.02268092
v 0.05373607 -0.04698619 -0.02240345
v 0.05781244 -0.04564924 -0.01283605
v 0.05976061 -0.04530079 -0.02208625
v 0.05773734 -0.04599173 -0.02219068
v 0.06031155 -0.04533968 -0.03186851
v 0.06466642 -0.04322549 -0.03166980
v 0.05268368 -0.04735556 -0.03810401
v 0.05788066 -0.04617915 -0.03925831
v 0.05430325 -0.04704067 -0.03695689
v 0.06058445 -0.04532167 -0.03986518
v 0.06049012 -0.04533748 -0.03666833
v 0.06162039 -0.04491729 -0.04009777
v 0.06486659 -0.04323781 -0.03647233
v 0.06455680 -0.04348204 -0.04076218
v 0.04456205 -0.04838406 -0.03260044
v 0.04472242 -0.04839009 -0.03637112
v 0.04650250 -0.04822385 -0.03675497
v 0.05412840 -0.04705464 -0.03215518
v 0.03446481 -0.04875896 -0.03386319
v 0.03444925 -0.04876075 -0.03419628
v 0.03937867 -0.04870120 -0.03523105
v 0.03466728 -0.04870774 -0.02865943
v 0.03494671 0.03926682 0.02375269
v 0.03494677 0.03796235 0.02610521
v 0.03494681 0.03685595 0.02789906
v 0.03494690 0.03417335 0.03163083
v 0.03494698 0.03119386 0.03497226
v 0.03494718 0.01899766 0.04311799
v 0.03494715 0.02111906 0.04217511
v 0.03494711 0.02463939 0.04022721
v 0.03494705 0.02790218 0.03791604
v 0.02537510 -0.04497505 -0.11193464
v 0.02537182 -0.04493123 -0.11394115
v 0.02535910 -0.04508070 -0.12173096
v 0.02544424 -0.04774538 -0.06960033
v 0.02541303 -0.04660445 -0.08871448
v 0.02538726 -0.04536834 -0.10448652
v 0.02548800 -0.04778565 -0.06877772
v 0.02590070 -0.04788571 -0.06694972
v 0.02623495 -0.04793483 -0.06614552
v 0.02724006 -0.04804153 -0.06456283
v 0.02754603 -0.04806844 -0.06418697
v 0.02818228 -0.04812225 -0.06340539
v 0.03376760 -0.04873818 -0.04398738
v 0.03308528 -0.04865073 -0.04953267
v 0.03250351 -0.04857042 -0.05279179
v 0.03161633 -0.04845838 -0.05634308
v 0.03052131 -0.04833714 -0.05940092
v 0.02936444 -0.04822478 -0.06169927
v 0.03431490 -0.04877420 -0.03675793
v 0.03494819 -0.04272600 0.01483954
v 0.03495629 -0.04446500 0.00916752
v 0.03497116 -0.04609711 0.00214330
v 0.03494663 -0.04057502 0.02032866
v 0.03494663 -0.04056634 0.02034970
v 0.03494674 -0.03849142 0.02456593
v 0.03494683 -0.03612597 0.02849018
v 0.03494721 -0.01436419 0.04457954
v 0.03494722 -0.01231900 0.04510363
v 0.03494724 -0.00974660 0.04562965
v 0.03494725 -0.00487325 0.04626811
v 0.03494726 0.00017098 0.04648477
v 0.03494726 0.00469253 0.04631081
v 0.03494724 0.00905610 0.04580242
v 0.03494722 0.01324085 0.04496498
v 0.03494719 0.01722310 0.04378744
v 0.05070701 -0.01230236 0.03783292
v 0.05069523 -0.00530426 0.03895982
v 0.05069525 0.00564611 0.03895976
v 0.05070704 0.01264421 0.03783282
v 0.03094604 -0.04543586 -0.10448743
v 0.02660821 -0.04539154 -0.10448667
v 0.03093843 -0.04492896 -0.11400301
v 0.03593449 -0.04735276 -0.07895900
v 0.07211798 -0.03705763 -0.06234417
v 0.07373668 -0.03475578 -0.06258767
v 0.03591145 -0.04872521 -0.04509149
v 0.03593754 -0.04846086 -0.05638368
v 0.04156184 -0.04823214 -0.05729800
v 0.04714667 -0.04774505 -0.05821834
v 0.05810589 -0.04572869 -0.06005513
v 0.05267305 -0.04694298 -0.05913978
v 0.06581295 -0.04255877 -0.06134855
v 0.06812639 -0.04098773 -0.06172302
v 0.07024056 -0.03914748 -0.06205599
v 0.07839477 -0.02157297 -0.06324975
v 0.07711652 -0.02704044 -0.06308062
v 0.07509615 -0.03228936 -0.06278905
v 0.07966728 -0.01044627 -0.06341054
v 0.07839898 -0.00991044 -0.11392728
v 0.07718693 -0.02043444 -0.11389559
v 0.07591707 -0.02558384 -0.11386507
v 0.07389775 -0.03049216 -0.11381472
v 0.07087900 -0.03485985 -0.11373968
v 0.06684424 -0.03831781 -0.11363648
v 0.05701884 -0.04234751 -0.11336224
v 0.06210864 -0.04075113 -0.11350741
v 0.04646255 -0.04403545 -0.11306067
v 0.05177545 -0.04337803 -0.11321202
v 0.03584318 -0.04564846 -0.10150331
v 0.04677642 -0.04498494 -0.10211270
v 0.06327128 -0.04288539 -0.08198568
v 0.06334433 -0.04385998 -0.06093963
v 0.05803509 -0.04467528 -0.08139798
v 0.05261471 -0.04584614 -0.08078986
v 0.04710433 -0.04662042 -0.08017775
v 0.07981073 -0.01028951 -0.08363164
v 0.07932784 -0.01577765 -0.08358756
v 0.06808584 -0.04015858 -0.08250637
v 0.07022956 -0.03839983 -0.08272777
v 0.07213971 -0.03638719 -0.08291949
v 0.07378882 -0.03415439 -0.08308157
v 0.07517300 -0.03174898 -0.08321568
v 0.07722574 -0.02660610 -0.08341011
v 0.07852732 -0.02123564 -0.08352324
v 0.07317089 -0.03327766 -0.10356401
v 0.07914194 -0.01005085 -0.10384641
v 0.07868021 -0.01540739 -0.10382275
v 0.07789166 -0.02073034 -0.10378878
v 0.07660025 -0.02596083 -0.10373043
v 0.07455631 -0.03095471 -0.10363169
v 0.05218368 -0.04428121 -0.10241842
v 0.05751207 -0.04319654 -0.10272198
v 0.06267419 -0.04152829 -0.10301531
v 0.06745709 -0.03898978 -0.10327549
v 0.06960113 -0.03733395 -0.10338634
v 0.07151674 -0.03541996 -0.10348251
f 1 2 3
f 1 3 4
f 13 1 4
f 4 668 13
f 673 668 4
f 676 668 673
f 676 674 668
f 12 668 674
f 12 674 10
f 10 7 12
f 12 7 9
f 7 8 9
f 8 724 9
f 9 724 725
f 9 725 1
f 1 725 434
f 724 8 50
f 724 50 723
f 723 50 52
f 723 52 726
f 726 52 727
f 727 52 54
f 727 54 728
f 728 54 729
f 729 54 45
f 729 45 658
f 44 658 45
f 44 657 658
f 43 657 44
f 39 43 44
f 39 46 43
f 39 37 46
f 38 37 39
f 39 40 38
f 40 39 41
f 41 42 40
f 40 42 133
f 42 138 133
f 42 159 138
f 56 159 42
f 56 158 159
f 158 160 159
f 158 154 160
f 162 160 154
f 140 160 162
f 162 180 140
f 162 184 180
f 184 185 180
f 180 185 186
f 748 186 185
f 748 181 186
f 179 181 748
f 760 179 748
f 759 179 760
f 760 785 759
f 760 784 785
f 784 788 785
f 784 799 788
f 783 799 784
f 783 798 799
f 782 798 783
f 782 797 798
f 797 767 798
f 798 767 766
f 766 767 472
f 472 476 766
f 766 476 477
f 476 379 477
f 379 481 477
f 379 480 481
f 406 480 379
f 379 405 406
f 406 405 407
f 406 407 402
f 402 407 408
f 402 408 403
f 401 402 403
f 403 424 401
f 401 424 425
f 401 425 426
f 426 484 401
f 426 489 484
f 426 488 489
f 762 489 488
f 762 488 487
f 762 487 562
f 762 562 616
f 616 789 762
f 548 789 616
f 779 789 548
f 548 547 779
f 779 547 761
f 779 761 780
f 780 790 779
f 780 791 790
f 787 791 780
f 787 792 791
f 786 792 787
f 786 793 792
f 765 792 793
f 765 793 788
f 766 765 788
f 766 480 765
f 480 479 765
f 765 479 478
f 765 478 483
f 764 765 483
f 483 482 764
f 764 482 486
f 402 486 482
f 402 485 486
f 763 486 485
f 763 485 484
f 763 484 762
f 762 790 763
f 764 486 763
f 763 791 764
f 406 482 483
f 406 483 478
f 478 479 406
f 764 792 765
f 785 793 786
f 758 786 787
f 759 786 758
f 758 178 759
f 758 176 178
f 175 176 758
f 175 167 176
f 176 167 177
f 141 177 167
f 141 167 148
f 147 141 148
f 147 148 149
f 148 166 149
f 301 149 166
f 301 166 302
f 166 306 302
f 306 326 302
f 305 326 306
f 305 325 326
f 304 325 305
f 304 303 325
f 170 303 304
f 170 304 168
f 168 169 170
f 168 167 169
f 166 167 168
f 168 305 166
f 170 169 173
f 173 169 172
f 173 172 174
f 211 173 174
f 328 173 211
f 299 173 328
f 325 299 328
f 325 300 299
f 170 299 300
f 328 329 325
f 325 329 330
f 325 330 350
f 350 330 331
f 350 331 348
f 348 331 332
f 348 332 349
f 349 332 333
f 332 233 333
f 332 235 233
f 234 233 235
f 234 235 211
f 331 211 235
f 211 237 234
f 234 237 238
f 234 238 228
f 228 238 239
f 228 239 229
f 566 229 239
f 566 227 229
f 545 227 566
f 606 545 566
f 605 545 606
f 619 605 606
f 619 606 618
f 618 606 607
f 618 607 617
f 617 607 549
f 607 564 549
f 607 566 564
f 566 238 564
f 549 564 563
f 563 564 565
f 761 563 565
f 172 761 565
f 171 761 172
f 171 758 761
f 565 564 236
f 564 237 236
f 565 236 174
f 549 563 547
f 617 549 616
f 617 561 618
f 618 561 560
f 561 496 560
f 560 496 495
f 495 499 560
f 409 499 495
f 409 498 499
f 497 498 409
f 560 498 497
f 560 497 559
f 559 615 560
f 559 614 615
f 558 614 559
f 558 613 614
f 557 613 558
f 558 505 557
f 557 505 504
f 385 504 505
f 386 504 385
f 386 503 504
f 503 386 506
f 503 506 557
f 557 506 507
f 506 387 507
f 507 387 388
f 387 364 388
f 388 364 355
f 388 355 389
f 355 372 389
f 389 372 371
f 389 371 390
f 510 389 390
f 510 390 511
f 511 390 381
f 511 381 512
f 511 512 553
f 511 553 554
f 554 553 611
f 553 609 611
f 611 609 610
f 611 610 612
f 612 610 599
f 612 599 620
f 620 599 600
f 599 569 600
f 599 573 569
f 569 573 572
f 572 573 574
f 574 627 572
f 627 218 572
f 572 218 220
f 218 219 220
f 570 220 219
f 570 219 571
f 601 570 571
f 601 571 602
f 602 571 567
f 602 567 603
f 603 567 568
f 603 568 604
f 614 603 604
f 604 568 546
f 568 221 546
f 546 221 225
f 546 225 227
f 225 226 227
f 227 226 228
f 226 232 228
f 228 232 233
f 232 334 233
f 334 232 339
f 334 339 340
f 347 334 340
f 340 342 347
f 340 341 342
f 341 338 342
f 342 338 343
f 338 346 343
f 347 343 346
f 346 345 347
f 345 344 347
f 337 344 345
f 336 344 337
f 312 336 337
f 337 259 312
f 312 259 258
f 257 258 259
f 257 259 260
f 242 257 260
f 242 260 265
f 212 265 260
f 214 265 212
f 212 213 214
f 212 230 213
f 213 230 231
f 230 262 231
f 231 262 264
f 231 264 254
f 243 231 254
f 339 243 254
f 339 254 341
f 243 232 231
f 254 264 338
f 338 264 263
f 338 263 261
f 262 261 263
f 260 261 262
f 338 261 337
f 262 263 264
f 230 260 262
f 213 231 226
f 214 213 215
f 213 223 215
f 213 222 223
f 221 222 213
f 567 223 222
f 567 224 223
f 215 223 224
f 215 224 219
f 214 215 216
f 216 249 214
f 249 242 214
f 249 240 242
f 240 241 242
f 240 95 241
f 241 95 98
f 241 98 72
f 72 98 71
f 71 98 97
f 71 97 99
f 99 70 71
f 70 99 100
f 100 99 101
f 100 101 92
f 92 534 100
f 534 92 535
f 535 92 93
f 535 93 533
f 533 93 94
f 533 94 23
f 94 20 23
f 20 22 23
f 23 22 24
f 24 22 25
f 24 25 26
f 532 24 26
f 532 26 531
f 531 26 28
f 531 28 29
f 15 531 29
f 15 530 531
f 14 530 15
f 14 15 16
f 16 15 17
f 16 17 18
f 646 16 18
f 644 646 18
f 644 18 642
f 18 634 642
f 650 634 18
f 649 634 650
f 649 630 634
f 629 634 630
f 629 633 634
f 632 633 629
f 625 632 629
f 625 629 624
f 624 629 628
f 624 628 626
f 576 624 626
f 576 626 574
f 574 575 576
f 576 575 577
f 577 575 578
f 577 578 579
f 577 579 624
f 624 579 581
f 579 580 581
f 581 580 585
f 625 581 585
f 625 585 584
f 638 625 584
f 638 584 583
f 544 583 584
f 544 582 583
f 543 582 544
f 542 543 544
f 544 588 542
f 544 587 588
f 587 598 588
f 587 597 598
f 593 597 587
f 593 587 591
f 591 587 586
f 591 586 608
f 552 591 608
f 551 591 552
f 551 594 591
f 550 594 551
f 519 550 551
f 539 550 519
f 539 538 550
f 538 539 540
f 540 539 537
f 518 537 539
f 516 537 518
f 517 516 518
f 517 518 519
f 459 516 517
f 513 459 517
f 459 513 380
f 380 513 514
f 552 514 513
f 552 515 514
f 553 515 552
f 381 514 515
f 380 514 381
f 373 380 381
f 373 352 380
f 380 352 351
f 380 351 391
f 460 380 391
f 460 391 461
f 460 461 516
f 461 521 516
f 461 391 521
f 521 391 392
f 392 524 521
f 392 523 524
f 394 523 392
f 392 393 394
f 394 393 395
f 394 395 396
f 394 396 520
f 520 522 394
f 522 520 536
f 536 523 522
f 392 354 393
f 394 522 523
f 536 524 523
f 541 524 536
f 541 537 524
f 537 521 524
f 391 354 392
f 391 353 354
f 391 351 353
f 381 368 373
f 381 369 368
f 459 380 460
f 517 552 513
f 460 516 459
f 516 521 537
f 540 537 541
f 518 539 519
f 519 551 517
f 594 595 591
f 591 595 596
f 591 596 589
f 589 590 591
f 591 590 592
f 517 551 552
f 552 608 553
f 608 586 580
f 608 580 609
f 609 580 578
f 584 586 587
f 591 592 593
f 584 587 544
f 637 625 638
f 637 636 625
f 635 636 637
f 648 636 635
f 648 635 639
f 647 648 639
f 647 643 648
f 644 643 647
f 643 632 648
f 647 639 640
f 640 645 647
f 647 645 646
f 645 529 646
f 645 528 529
f 527 528 645
f 527 526 528
f 525 526 527
f 525 527 640
f 528 526 529
f 529 526 530
f 640 527 645
f 632 636 648
f 585 586 584
f 585 580 586
f 579 578 580
f 610 578 575
f 577 624 576
f 626 628 623
f 628 252 623
f 623 252 251
f 623 251 217
f 623 217 218
f 217 215 218
f 251 247 217
f 217 247 216
f 250 247 251
f 250 89 247
f 87 89 250
f 87 88 89
f 89 88 90
f 89 90 91
f 96 91 90
f 101 96 90
f 91 96 248
f 248 96 240
f 247 91 248
f 247 248 249
f 93 90 88
f 87 20 88
f 21 20 87
f 250 21 87
f 250 253 21
f 22 21 253
f 250 252 253
f 631 253 252
f 649 253 631
f 649 25 253
f 89 91 247
f 251 252 250
f 628 631 252
f 628 630 631
f 626 623 627
f 624 581 625
f 636 632 625
f 643 633 632
f 642 633 643
f 629 630 628
f 631 630 649
f 650 25 649
f 650 27 25
f 19 27 650
f 27 19 17
f 29 27 17
f 28 25 27
f 650 18 19
f 642 634 633
f 642 643 644
f 647 646 644
f 646 529 16
f 18 17 19
f 529 14 16
f 529 530 14
f 29 17 15
f 28 27 29
f 26 25 28
f 22 253 25
f 532 23 24
f 20 21 22
f 94 88 20
f 533 23 532
f 93 88 94
f 92 90 93
f 100 534 641
f 100 641 695
f 695 696 100
f 100 696 697
f 100 697 69
f 697 698 69
f 69 698 699
f 69 699 66
f 69 66 70
f 70 66 68
f 66 67 68
f 67 60 68
f 699 60 67
f 703 60 699
f 703 61 60
f 60 61 62
f 61 77 62
f 62 77 79
f 77 78 79
f 701 78 77
f 700 78 701
f 78 700 742
f 742 83 78
f 78 83 80
f 80 83 84
f 80 84 81
f 79 80 81
f 76 79 81
f 76 81 82
f 81 85 82
f 82 85 86
f 85 204 86
f 86 204 322
f 322 204 208
f 203 208 204
f 203 207 208
f 202 207 203
f 202 206 207
f 106 206 202
f 105 106 202
f 105 103 106
f 106 103 107
f 103 119 107
f 107 119 118
f 116 118 119
f 116 119 115
f 115 32 116
f 115 739 32
f 32 739 730
f 32 730 651
f 651 652 32
f 32 652 47
f 32 47 30
f 30 47 48
f 30 48 37
f 36 30 37
f 33 30 36
f 33 34 30
f 30 34 35
f 121 35 34
f 121 117 35
f 109 117 121
f 109 118 117
f 121 123 109
f 121 122 123
f 123 122 275
f 275 122 268
f 122 273 268
f 268 273 274
f 268 274 266
f 266 267 268
f 266 269 267
f 267 269 270
f 270 269 319
f 206 270 319
f 206 319 320
f 319 324 320
f 320 324 323
f 350 323 324
f 318 323 350
f 318 190 323
f 318 313 190
f 190 313 191
f 190 191 82
f 82 191 192
f 191 200 192
f 192 200 194
f 200 317 194
f 194 317 315
f 194 315 195
f 195 315 199
f 198 195 199
f 198 199 244
f 199 307 244
f 244 307 308
f 244 308 245
f 245 308 309
f 347 309 308
f 310 309 347
f 347 311 310
f 347 336 311
f 310 311 255
f 255 311 312
f 255 312 256
f 246 255 256
f 245 255 246
f 246 256 257
f 241 246 257
f 197 246 241
f 197 244 246
f 255 309 310
f 245 309 255
f 244 245 246
f 347 308 307
f 307 315 347
f 198 244 197
f 197 196 198
f 197 64 196
f 72 64 197
f 72 65 64
f 63 64 65
f 65 74 63
f 65 62 74
f 75 74 62
f 75 62 76
f 76 192 75
f 75 192 73
f 73 192 193
f 73 193 63
f 193 196 63
f 193 194 196
f 73 74 75
f 68 62 65
f 71 68 65
f 63 74 73
f 63 196 64
f 198 196 195
f 315 307 199
f 194 195 196
f 347 315 317
f 347 317 316
f 316 314 347
f 347 314 349
f 349 335 347
f 349 314 313
f 314 316 200
f 200 316 317
f 192 194 193
f 191 314 200
f 190 82 201
f 322 190 201
f 321 190 322
f 320 321 322
f 191 313 314
f 349 313 318
f 321 323 190
f 320 323 321
f 325 324 319
f 205 270 206
f 205 114 270
f 113 270 114
f 108 113 114
f 108 112 113
f 112 267 113
f 111 267 112
f 107 111 112
f 110 111 107
f 111 110 275
f 275 110 109
f 109 110 107
f 107 112 108
f 108 114 205
f 108 205 106
f 325 319 269
f 267 270 113
f 325 269 266
f 111 268 267
f 266 274 325
f 325 274 273
f 122 272 273
f 273 272 326
f 326 272 271
f 326 271 327
f 296 326 327
f 296 327 297
f 290 296 297
f 295 296 290
f 290 286 295
f 295 286 149
f 295 149 298
f 295 298 326
f 326 298 301
f 290 146 286
f 146 147 286
f 150 146 290
f 290 151 150
f 290 152 151
f 142 151 152
f 142 152 140
f 140 152 153
f 140 153 143
f 288 143 153
f 145 143 288
f 144 143 145
f 144 145 136
f 136 138 144
f 136 137 138
f 281 137 136
f 288 281 136
f 287 281 288
f 287 282 281
f 281 282 283
f 327 283 282
f 327 285 283
f 284 285 327
f 284 135 285
f 284 134 135
f 135 134 133
f 132 133 134
f 280 132 134
f 279 132 280
f 327 279 280
f 278 279 327
f 277 278 327
f 277 127 278
f 278 127 130
f 127 126 130
f 126 127 128
f 126 128 124
f 124 128 129
f 276 129 128
f 276 128 277
f 125 129 276
f 271 125 276
f 122 125 271
f 122 124 125
f 34 124 122
f 124 129 125
f 124 38 126
f 124 36 38
f 130 126 131
f 126 40 131
f 130 131 132
f 277 128 127
f 327 276 277
f 278 130 279
f 279 130 132
f 131 133 132
f 133 139 135
f 280 134 284
f 285 135 139
f 327 280 284
f 285 139 283
f 283 139 137
f 282 287 327
f 327 287 289
f 327 289 294
f 288 294 289
f 288 293 294
f 292 293 288
f 292 291 293
f 327 293 291
f 290 291 292
f 294 293 327
f 288 289 287
f 283 137 281
f 138 137 139
f 144 138 161
f 144 161 140
f 288 136 145
f 288 153 292
f 140 143 144
f 292 153 152
f 140 141 142
f 141 151 142
f 292 152 290
f 141 150 151
f 146 150 141
f 290 297 291
f 327 291 297
f 295 326 296
f 327 271 276
f 271 272 122
f 275 268 111
f 275 109 123
f 117 31 35
f 116 31 117
f 34 122 121
f 30 35 31
f 34 33 124
f 124 33 36
f 37 48 49
f 48 655 49
f 49 655 656
f 49 656 46
f 46 656 657
f 48 654 655
f 47 654 48
f 47 653 654
f 30 31 32
f 652 653 47
f 739 731 730
f 739 732 731
f 740 732 739
f 739 102 740
f 740 102 104
f 102 103 104
f 102 120 103
f 740 104 734
f 741 734 104
f 209 741 104
f 742 741 209
f 742 736 741
f 736 735 741
f 737 736 742
f 742 738 737
f 209 210 742
f 209 202 210
f 210 202 84
f 104 105 209
f 741 735 734
f 734 733 740
f 739 120 102
f 740 733 732
f 115 120 739
f 116 32 31
f 115 119 120
f 117 118 116
f 107 118 109
f 103 120 119
f 106 107 108
f 104 103 105
f 209 105 202
f 106 205 206
f 320 207 206
f 84 202 203
f 84 203 85
f 320 208 207
f 322 208 320
f 322 201 86
f 85 203 204
f 201 82 86
f 82 192 76
f 81 84 85
f 210 84 83
f 742 210 83
f 742 700 738
f 701 77 702
f 79 78 80
f 62 79 76
f 702 77 61
f 702 61 703
f 68 60 62
f 699 67 66
f 101 90 92
f 99 96 101
f 100 69 70
f 70 68 71
f 99 97 96
f 95 96 97
f 71 65 72
f 241 72 197
f 95 97 98
f 96 95 240
f 248 240 249
f 216 247 249
f 216 215 217
f 212 260 230
f 214 242 265
f 241 257 242
f 260 259 261
f 256 258 257
f 312 258 256
f 337 261 259
f 312 311 336
f 337 345 338
f 347 344 336
f 338 345 346
f 341 254 338
f 347 342 343
f 347 335 334
f 340 339 341
f 232 243 339
f 233 334 335
f 226 231 232
f 225 213 226
f 221 213 225
f 568 222 221
f 604 546 605
f 615 604 605
f 567 222 568
f 613 602 603
f 622 602 613
f 571 224 567
f 622 601 602
f 621 601 622
f 557 621 622
f 556 621 557
f 556 620 621
f 621 600 601
f 600 570 601
f 571 219 224
f 569 220 570
f 218 215 219
f 627 623 218
f 574 626 627
f 574 573 575
f 569 572 220
f 599 575 573
f 600 569 570
f 620 600 621
f 612 620 556
f 555 612 556
f 556 509 555
f 555 509 491
f 388 491 509
f 388 509 508
f 555 491 490
f 490 491 389
f 510 555 490
f 510 554 555
f 556 508 509
f 556 507 508
f 610 575 599
f 555 611 612
f 609 578 610
f 553 608 609
f 554 611 555
f 553 512 515
f 381 515 512
f 390 369 381
f 390 370 369
f 511 554 510
f 490 389 510
f 390 371 370
f 389 491 388
f 387 367 364
f 366 367 387
f 387 365 366
f 386 365 387
f 386 362 365
f 507 388 508
f 557 507 556
f 506 386 387
f 385 362 386
f 385 363 362
f 385 359 363
f 410 359 385
f 410 360 359
f 409 360 410
f 409 361 360
f 409 358 361
f 423 358 409
f 423 357 358
f 422 357 423
f 423 493 422
f 423 496 493
f 422 493 494
f 561 494 493
f 562 494 561
f 562 492 494
f 466 492 562
f 492 466 422
f 466 467 422
f 422 467 468
f 422 468 428
f 428 429 422
f 422 429 356
f 428 427 429
f 426 427 428
f 468 487 428
f 562 468 467
f 467 466 562
f 422 494 492
f 422 356 357
f 500 409 410
f 500 410 501
f 559 500 501
f 501 410 385
f 501 385 502
f 501 502 558
f 385 505 502
f 557 504 503
f 558 502 505
f 557 622 613
f 613 603 614
f 558 559 501
f 614 604 615
f 619 560 615
f 559 497 500
f 497 409 500
f 409 495 423
f 560 499 498
f 423 495 496
f 561 493 496
f 617 562 561
f 618 560 619
f 615 605 619
f 605 546 545
f 606 566 607
f 227 545 546
f 227 228 229
f 566 239 238
f 564 238 237
f 211 236 237
f 228 233 234
f 233 335 333
f 349 333 335
f 348 349 318
f 331 235 332
f 348 318 350
f 330 211 331
f 350 324 325
f 329 211 330
f 328 211 329
f 174 236 211
f 172 565 174
f 169 171 172
f 171 169 175
f 173 299 170
f 300 303 170
f 325 303 300
f 168 304 305
f 325 273 326
f 166 305 306
f 326 301 302
f 298 149 301
f 286 147 149
f 146 141 147
f 148 167 166
f 140 177 141
f 175 169 167
f 175 758 171
f 176 177 178
f 178 177 179
f 179 177 180
f 764 791 792
f 758 787 780
f 763 790 791
f 780 761 758
f 547 563 761
f 547 548 549
f 779 790 789
f 616 549 548
f 762 789 790
f 616 562 617
f 562 487 468
f 428 487 488
f 428 488 426
f 762 484 489
f 401 484 485
f 426 425 427
f 401 485 402
f 402 482 406
f 379 404 405
f 378 404 379
f 374 378 379
f 374 377 378
f 376 377 374
f 374 375 376
f 374 474 375
f 375 474 475
f 375 475 471
f 768 471 475
f 768 470 471
f 771 470 768
f 795 771 768
f 795 768 796
f 796 768 769
f 796 769 797
f 781 796 797
f 774 796 781
f 756 774 781
f 756 781 757
f 757 781 782
f 757 782 747
f 747 185 757
f 757 185 183
f 757 183 182
f 182 183 184
f 187 182 184
f 189 182 187
f 187 188 189
f 189 188 755
f 755 756 189
f 755 188 686
f 755 686 684
f 684 775 755
f 755 775 774
f 774 775 776
f 776 795 774
f 776 794 795
f 777 794 776
f 777 773 794
f 773 770 794
f 794 770 771
f 770 469 771
f 770 458 469
f 464 458 770
f 463 458 464
f 462 458 463
f 743 462 463
f 743 745 462
f 744 745 743
f 708 744 743
f 709 744 708
f 709 704 744
f 708 743 772
f 772 743 465
f 772 465 773
f 778 772 773
f 746 772 778
f 751 746 778
f 750 746 751
f 750 719 746
f 718 719 750
f 750 717 718
f 750 716 717
f 749 716 750
f 749 722 716
f 692 722 749
f 692 749 693
f 687 692 693
f 687 693 688
f 693 751 688
f 688 751 752
f 688 752 689
f 752 754 689
f 689 754 679
f 689 679 690
f 687 689 690
f 690 673 687
f 687 673 672
f 6 672 673
f 664 672 6
f 660 664 6
f 5 660 6
f 4 5 6
f 659 660 5
f 5 435 659
f 3 435 5
f 659 435 433
f 434 433 435
f 434 435 2
f 432 433 434
f 432 431 433
f 430 431 432
f 430 667 431
f 431 667 666
f 431 666 659
f 659 666 663
f 665 663 666
f 661 663 665
f 661 662 663
f 661 670 662
f 661 669 670
f 694 670 669
f 694 687 670
f 691 687 694
f 687 671 670
f 662 670 671
f 662 671 664
f 663 662 664
f 665 669 661
f 665 666 667
f 659 433 431
f 659 663 660
f 660 663 664
f 664 671 672
f 687 672 671
f 690 679 681
f 679 680 681
f 681 680 682
f 681 682 683
f 677 681 683
f 677 683 678
f 165 677 678
f 165 675 677
f 677 675 676
f 677 676 690
f 165 156 675
f 164 156 165
f 164 155 156
f 163 155 164
f 164 187 163
f 164 678 187
f 678 685 187
f 187 685 686
f 162 163 187
f 163 154 155
f 154 57 155
f 157 57 154
f 58 57 157
f 53 57 58
f 51 57 53
f 52 51 53
f 51 11 57
f 7 11 51
f 50 7 51
f 53 58 55
f 54 53 55
f 55 58 59
f 55 59 56
f 41 55 56
f 45 55 41
f 58 157 59
f 59 157 158
f 155 57 11
f 155 11 156
f 10 156 11
f 675 156 674
f 165 678 164
f 678 683 685
f 683 684 685
f 683 682 684
f 682 753 684
f 682 680 753
f 753 680 679
f 690 681 677
f 753 679 754
f 777 753 754
f 777 754 778
f 752 778 754
f 687 688 689
f 691 692 687
f 693 749 751
f 720 746 719
f 720 721 746
f 721 715 746
f 746 715 714
f 746 714 713
f 713 712 746
f 746 712 711
f 746 711 710
f 710 707 746
f 707 708 746
f 749 750 751
f 751 778 752
f 465 464 773
f 746 708 772
f 744 704 745
f 705 745 704
f 706 745 705
f 706 436 745
f 437 436 706
f 382 436 437
f 382 437 383
f 382 383 384
f 382 384 397
f 384 417 397
f 397 417 418
f 397 418 419
f 419 418 420
f 419 420 412
f 412 420 421
f 412 421 413
f 411 412 413
f 469 412 411
f 469 411 470
f 470 411 398
f 411 415 398
f 398 415 416
f 398 416 399
f 398 399 375
f 375 399 400
f 411 414 415
f 413 414 411
f 457 419 412
f 438 419 457
f 438 457 462
f 462 439 438
f 462 440 439
f 439 440 419
f 419 440 441
f 419 441 442
f 442 443 419
f 462 443 442
f 462 444 443
f 445 444 462
f 462 446 445
f 462 447 446
f 448 447 462
f 397 447 448
f 448 449 397
f 397 449 450
f 462 450 449
f 397 450 451
f 745 451 450
f 452 451 745
f 745 453 452
f 745 454 453
f 397 453 454
f 454 455 397
f 397 455 456
f 397 456 436
f 745 456 455
f 455 454 745
f 397 452 453
f 451 452 397
f 462 449 448
f 419 446 447
f 445 446 419
f 419 444 445
f 419 443 444
f 442 441 462
f 441 440 462
f 419 438 439
f 457 412 458
f 419 447 397
f 397 436 382
f 436 456 745
f 745 450 462
f 463 465 743
f 462 457 458
f 463 464 465
f 458 412 469
f 773 464 770
f 778 773 777
f 776 753 777
f 776 775 753
f 684 753 775
f 685 684 686
f 187 686 188
f 189 757 182
f 189 756 757
f 755 774 756
f 774 795 796
f 794 771 795
f 771 469 470
f 470 398 471
f 768 475 769
f 471 398 375
f 769 475 474
f 769 474 767
f 767 474 473
f 374 473 474
f 472 473 374
f 375 400 376
f 406 479 480
f 481 480 766
f 476 374 379
f 766 477 481
f 472 374 476
f 767 473 472
f 797 769 767
f 781 797 782
f 747 782 783
f 747 783 748
f 798 766 799
f 748 783 784
f 799 766 788
f 785 788 793
f 759 785 786
f 759 178 179
f 748 784 760
f 179 180 181
f 185 747 748
f 180 186 181
f 184 183 185
f 187 184 162
f 140 180 177
f 140 161 160
f 162 154 163
f 157 154 158
f 159 160 161
f 59 158 56
f 159 161 138
f 133 138 139
f 131 40 133
f 41 56 42
f 126 38 40
f 36 37 38
f 37 49 46
f 41 39 44
f 46 657 43
f 41 44 45
f 54 55 45
f 52 53 54
f 50 51 52
f 8 7 50
f 12 9 13
f 10 11 7
f 10 674 156
f 675 674 676
f 690 676 673
f 673 4 6
f 13 668 12
f 13 9 1
f 4 3 5
f 2 435 3
f 1 434 2

