# https://github.com/mikedh/trimesh
v 0.01499972 -0.03282427 -0.06840251
v 0.01552814 -0.03297430 -0.06840254
v 0.01086875 -0.03133381 -0.06840242
v 0.01137459 -0.03154794 -0.06840242
v 0.01239592 -0.03195257 -0.06840245
v 0.01291116 -0.03214298 -0.06840247
v 0.01316987 -0.03223521 -0.06840248
v 0.01342928 -0.03232542 -0.06840248
v 0.01447369 -0.03266610 -0.06840251
v 0.00742898 -0.02961960 -0.06840232
v 0.00937193 -0.03064484 -0.06840236
v 0.01036627 -0.03111189 -0.06840240
v 0.01564397 -0.03300958 -0.06840255
v 0.00732212 -0.02956265 -0.06840231
v 0.01073865 -0.03128102 -0.06840240
v 0.01144306 -0.03157995 -0.06840243
v 0.01215376 -0.03186363 -0.06840244
v 0.01004084 -0.03096696 -0.06840239
v 0.00934997 -0.03063794 -0.06840236
v 0.00866634 -0.03029412 -0.06840235
v 0.01424819 -0.03259918 -0.06840250
v 0.01355690 -0.03237262 -0.06840249
v 0.01287040 -0.03213193 -0.06840246
v 0.01494398 -0.03281153 -0.06840252
f 10 14 20
f 10 20 11
f 20 19 11
f 11 19 18
f 11 18 12
f 12 18 15
f 12 15 3
f 3 15 16
f 3 16 4
f 4 16 17
f 4 17 5
f 5 17 23
f 5 23 6
f 6 23 7
f 22 7 23
f 22 8 7
f 21 8 22
f 21 9 8
f 24 9 21
f 24 1 9
f 2 1 24
f 24 13 2

