# https://github.com/mikedh/trimesh
v 0.03550125 -0.03733868 -0.12122922
v 0.03550125 0.03983157 -0.12122944
v 0.03030776 0.04088690 -0.12122944
v 0.03030811 -0.03839397 -0.12122921
v 0.02495703 -0.03875356 -0.12122922
v 0.01605619 -0.03775075 -0.12122922
v -0.01404052 0.01014693 -0.12122936
v -0.01108224 0.01860147 -0.12122938
v -0.00631681 0.02618575 -0.12122940
v 0.00001680 0.03251947 -0.12122942
v 0.00760100 0.03728503 -0.12122943
v 0.01605548 0.04024347 -0.12122944
v 0.02495631 0.04124644 -0.12122945
v 0.00760165 -0.03479246 -0.12122922
v 0.00001737 -0.03002704 -0.12122924
v -0.00631636 -0.02369343 -0.12122925
v -0.01108192 -0.01610923 -0.12122928
v -0.01404036 -0.00765475 -0.12122929
v -0.01504333 0.00124608 -0.12122932
v 0.03550125 0.04124676 -0.07840352
v 0.03550125 0.03983214 -0.07840350
v 0.03550125 -0.03875323 -0.07840309
v 0.03550125 -0.03733882 -0.07840311
v 0.03030939 -0.03839374 -0.07840296
v 0.02495831 -0.03875334 -0.07840279
v 0.03030903 0.04088712 -0.07840336
v 0.02495758 0.04124666 -0.07840321
v 0.01605746 -0.03775053 -0.07840253
v 0.00760292 -0.03479224 -0.07840229
v 0.00001864 -0.03002683 -0.07840209
v -0.00631509 -0.02369321 -0.07840193
v -0.01108065 -0.01610901 -0.07840184
v -0.01403909 -0.00765453 -0.07840180
v -0.01504205 0.00124630 -0.07840181
v -0.01403925 0.01014714 -0.07840189
v -0.01108097 0.01860168 -0.07840202
v -0.00631554 0.02618597 -0.07840219
v 0.00001807 0.03251969 -0.07840241
v 0.00760227 0.03728526 -0.07840267
v 0.01605676 0.04024370 -0.07840293
f 4 1 23
f 23 24 4
f 4 24 25
f 4 25 5
f 5 25 28
f 5 28 6
f 6 28 29
f 6 29 14
f 14 29 30
f 14 30 15
f 15 30 31
f 15 31 16
f 16 31 32
f 16 32 17
f 17 32 33
f 17 33 18
f 18 33 34
f 18 34 19
f 19 34 35
f 19 35 7
f 7 35 36
f 7 36 8
f 8 36 37
f 8 37 9
f 9 37 38
f 9 38 10
f 10 38 39
f 10 39 11
f 11 39 40
f 11 40 12
f 12 40 27
f 12 27 13
f 26 13 27
f 26 3 13
f 2 3 26
f 26 21 2
f 23 22 24
f 24 22 25
f 27 20 26
f 26 20 21

