# https://github.com/mikedh/trimesh
v 0.03550125 -0.02299999 -0.01157854
v 0.03350125 -0.02300000 -0.01157852
v 0.03350125 -0.01897243 -0.01741002
v 0.03550125 -0.01897243 -0.01741005
v 0.03350125 -0.01350769 -0.02192270
v 0.03550125 -0.01350769 -0.02192269
v 0.03350125 -0.00701972 -0.02477470
v 0.03550125 -0.00701972 -0.02477469
v 0.03350125 0.00000000 -0.02575000
v 0.03550125 -0.00000000 -0.02575000
v 0.03350125 0.00701972 -0.02477470
v 0.03550125 0.00701972 -0.02477469
v 0.03350125 0.01350768 -0.02192271
v 0.03550125 0.01350769 -0.02192270
v 0.03350125 0.01897244 -0.01741004
v 0.03550125 0.01897243 -0.01741003
v 0.03350125 0.02300001 -0.01157852
v 0.03550125 0.02300000 -0.01157854
v 0.03350125 0.01897244 0.01741003
v 0.03350125 -0.02300000 0.01157853
v 0.03350125 -0.01897243 0.01741005
v 0.03350125 0.02300000 0.01157853
v 0.03350125 -0.01350769 0.02192271
v 0.03350125 -0.00701971 0.02477470
v 0.03350125 0.01350768 0.02192271
v 0.03350125 -0.00000000 0.02575001
v 0.03350125 0.00701971 0.02477470
v 0.03550125 0.02299999 0.01157853
v 0.03550125 0.01897243 0.01741003
v 0.03550125 0.01350769 0.02192271
v 0.03550125 0.00701972 0.02477471
v 0.03550125 0.00000001 0.02574999
v 0.03550125 -0.00701972 0.02477471
v 0.03550125 -0.01350769 0.02192269
v 0.03550125 -0.01897244 0.01741002
v 0.03550125 -0.02299999 0.01157853
f 1 2 3
f 2 1 20
f 20 1 36
f 35 20 36
f 35 21 20
f 34 21 35
f 34 23 21
f 33 23 34
f 33 24 23
f 32 24 33
f 32 26 24
f 31 26 32
f 31 27 26
f 30 27 31
f 30 25 27
f 29 25 30
f 29 19 25
f 28 19 29
f 28 22 19
f 22 28 17
f 17 28 18
f 16 17 18
f 16 15 17
f 14 15 16
f 14 13 15
f 12 13 14
f 12 11 13
f 10 11 12
f 10 9 11
f 8 9 10
f 8 7 9
f 6 7 8
f 6 5 7
f 4 5 6
f 4 3 5
f 1 3 4

