# https://github.com/mikedh/trimesh
v 0.03649651 0.02300389 -0.12122940
v 0.04426261 0.02300388 -0.12122940
v 0.03649651 0.02300389 -0.12169045
v 0.04426261 0.02300388 -0.12412407
v 0.03649651 0.02300389 -0.12412407
v 0.04934727 0.01753303 -0.12122937
v 0.05292291 0.01097570 -0.12122936
v 0.02500125 -0.02578785 -0.12122924
v 0.03099654 -0.02508019 -0.12122925
v 0.05476791 0.00373831 -0.12122934
v 0.01900596 -0.02508020 -0.12122925
v 0.00573989 -0.02299611 -0.12122925
v 0.01334018 -0.02299612 -0.12122926
v 0.04426261 -0.02299613 -0.12122926
v 0.03666231 -0.02299612 -0.12122925
v 0.03090625 0.02502594 -0.12122940
v 0.02500125 0.02571215 -0.12122940
v 0.04934727 -0.01752527 -0.12122927
v 0.05292291 -0.01096794 -0.12122930
v 0.05476791 -0.00373055 -0.12122931
v -0.00476541 0.00373831 -0.12122934
v -0.00292041 0.01097571 -0.12122935
v 0.00065523 0.01753303 -0.12122938
v 0.00573989 0.02300387 -0.12122939
v 0.01350599 0.02300388 -0.12122939
v 0.01909626 0.02502594 -0.12122939
v 0.00065523 -0.01752527 -0.12122928
v -0.00292041 -0.01096794 -0.12122929
v -0.00476541 -0.00373055 -0.12122931
v 0.04426261 -0.02299612 -0.12412407
v 0.04934727 -0.01752528 -0.12412408
v 0.05292291 -0.01096794 -0.12412408
v 0.05476791 -0.00373055 -0.12412407
v 0.05476791 0.00373832 -0.12412407
v 0.05292291 0.01097570 -0.12412407
v 0.04934727 0.01753304 -0.12412407
v 0.01334019 -0.02299612 -0.12169192
v 0.00573989 -0.02299611 -0.12412407
v 0.03666231 -0.02299612 -0.12169192
v 0.00573989 0.02300388 -0.12412407
v 0.00065523 0.01753303 -0.12412407
v -0.00292041 0.01097571 -0.12412407
v -0.00476541 0.00373831 -0.12412407
v -0.00476541 -0.00373055 -0.12412407
v -0.00292041 -0.01096793 -0.12412407
v 0.00065523 -0.01752529 -0.12412407
v 0.01350614 0.02300396 -0.12412407
v 0.01350599 0.02300388 -0.12169045
v 0.03099655 -0.02508020 -0.12169198
v 0.02500125 -0.02578785 -0.12169201
v 0.01900596 -0.02508020 -0.12169197
v 0.01909626 0.02502594 -0.12169038
v 0.02500125 0.02571215 -0.12169036
v 0.03090625 0.02502594 -0.12169039
f 1 2 3
f 54 1 3
f 54 16 1
f 53 16 54
f 53 17 16
f 52 17 53
f 52 26 17
f 48 26 52
f 48 25 26
f 48 24 25
f 48 40 24
f 24 40 41
f 24 41 23
f 23 41 42
f 23 42 22
f 22 42 43
f 22 43 21
f 21 43 44
f 21 44 29
f 29 44 45
f 29 45 28
f 28 45 46
f 28 46 27
f 27 46 38
f 27 38 12
f 37 12 38
f 37 38 39
f 39 38 30
f 39 30 15
f 39 15 9
f 39 9 49
f 49 9 8
f 49 8 50
f 50 8 11
f 50 11 51
f 51 11 13
f 51 13 37
f 15 30 14
f 14 30 31
f 14 31 18
f 18 31 32
f 18 32 19
f 19 32 33
f 19 33 20
f 20 33 34
f 20 34 10
f 10 34 35
f 10 35 7
f 7 35 36
f 7 36 6
f 6 36 4
f 6 4 2
f 13 12 37
f 47 40 48
f 3 47 48
f 5 47 3
f 3 4 5
f 3 2 4
f 52 53 48
f 48 53 54
f 48 54 3
f 37 39 51
f 51 39 49
f 51 49 50

