# https://github.com/mikedh/trimesh
v 0.03550125 -0.02299999 -0.01157854
v 0.03550125 -0.01897243 -0.01741005
v 0.03550125 -0.01350769 -0.02192269
v 0.03550125 -0.00701972 -0.02477469
v 0.03550125 -0.00000000 -0.02575000
v 0.03550125 0.00701972 -0.02477469
v 0.03550125 0.01350769 -0.02192270
v 0.03550125 0.01897243 -0.01741003
v 0.03550125 0.02300000 -0.01157854
v 0.03550125 0.02299999 0.01157853
v 0.03550125 0.01897243 0.01741003
v 0.03550125 0.01350769 0.02192271
v 0.03550125 0.00701972 0.02477471
v 0.03550125 0.00000001 0.02574999
v 0.03550125 -0.00701972 0.02477471
v 0.03550125 -0.01350769 0.02192269
v 0.03550125 -0.01897244 0.01741002
v 0.03550125 -0.02299999 0.01157853
v 0.07083441 0.03111678 -0.12122943
v 0.07099911 0.03085406 -0.12122941
v 0.04356018 -0.04177934 -0.12122919
v 0.04009593 -0.04203912 -0.12122919
v 0.03550125 -0.03733868 -0.12122922
v 0.03626644 -0.04246464 -0.12122921
v 0.03550125 -0.04256579 -0.12122919
v 0.07549267 0.01494050 -0.12122937
v 0.07557666 0.01410448 -0.12122937
v 0.07544753 -0.01501778 -0.12122928
v 0.05079316 -0.04102400 -0.12122920
v 0.04981264 -0.04116024 -0.12122921
v 0.07426298 0.02248595 -0.12122939
v 0.07482427 0.01975704 -0.12122939
v 0.03550125 0.03983157 -0.12122944
v 0.03550125 0.04290678 -0.12122945
v 0.03626645 0.04280563 -0.12122945
v 0.07225756 0.02849231 -0.12122940
v 0.07338484 0.02561051 -0.12122940
v 0.03972416 0.04241443 -0.12122944
v 0.06258052 -0.03783669 -0.12122921
v 0.06201921 -0.03809061 -0.12122922
v 0.07597400 -0.00787769 -0.12122931
v 0.07613184 0.00017044 -0.12122932
v 0.07600649 0.00741699 -0.12122934
v 0.05846571 -0.03938698 -0.12122920
v 0.05477016 -0.04032317 -0.12122921
v 0.04356016 0.04212035 -0.12122945
v 0.04702779 0.04182509 -0.12122945
v 0.04838282 0.04167848 -0.12122945
v 0.07468268 -0.02018200 -0.12122927
v 0.07424065 -0.02223868 -0.12122926
v 0.07312436 -0.02602348 -0.12122925
v 0.05384842 0.04085065 -0.12122945
v 0.05849382 0.03971949 -0.12122944
v 0.05987601 0.03927028 -0.12122944
v 0.06698757 -0.03511440 -0.12122922
v 0.07122842 -0.03013155 -0.12122924
v 0.06763218 -0.03456406 -0.12122922
v 0.06958951 -0.03250701 -0.12122923
v 0.07170181 -0.02928017 -0.12122924
v 0.06464296 -0.03674838 -0.12122922
v 0.06650656 0.03583403 -0.12122943
v 0.06859937 0.03397093 -0.12122943
v 0.07039349 0.03177813 -0.12122943
v 0.06309558 0.03793011 -0.12122944
v 0.06586641 0.03630042 -0.12122943
v 0.03550125 0.04124676 -0.07840352
v 0.03550125 0.04124679 -0.07310352
v 0.03550125 0.04688847 -0.06225670
v 0.03550125 0.03983214 -0.07840350
v 0.03550125 0.04404385 -0.10434173
v 0.03550125 0.04346106 -0.11168467
v 0.03550125 0.04707277 -0.01803100
v 0.03550125 0.04720793 -0.02009133
v 0.03550125 -0.04667478 -0.05899521
v 0.03550125 -0.03875321 -0.07310311
v 0.03550125 -0.04579750 -0.07671805
v 0.03550125 -0.03875323 -0.07840309
v 0.03550125 0.04605061 -0.07813827
v 0.03550125 0.04568123 -0.08370398
v 0.03550125 0.04541500 -0.08742777
v 0.03550125 0.03623441 -0.07310349
v 0.03550125 0.03620121 -0.07300273
v 0.03550125 0.03619082 -0.07290350
v 0.03550125 0.03619091 -0.06680349
v 0.03550125 0.04723963 -0.05180601
v 0.03550125 -0.03369746 -0.06680312
v 0.03550125 -0.03369743 -0.07290312
v 0.03550125 -0.03374104 -0.07310313
v 0.03550125 0.04724638 -0.02346172
v 0.03550125 0.04737598 -0.03107051
v 0.03550125 -0.04277772 -0.11680827
v 0.03550125 -0.04294654 -0.11411725
v 0.03550125 -0.03733882 -0.07840311
v 0.03550125 -0.04370268 -0.10434128
v 0.03550125 -0.04530333 -0.08422678
v 0.03550125 0.04720985 -0.02224737
v 0.03550125 0.04407736 0.00479081
v 0.03550125 0.04480628 0.00135658
v 0.03550125 -0.03369748 -0.06280312
v 0.03550125 0.03619096 -0.06280349
v 0.03550125 0.04740754 -0.03442870
v 0.03550125 0.04734433 -0.04680781
v 0.03550125 0.04317871 0.00837852
v 0.03550125 0.04150167 0.01383606
v 0.03550125 0.03157977 0.03170317
v 0.03550125 0.03419518 0.02842836
v 0.03550125 0.03082125 0.03253419
v 0.03550125 0.04594110 -0.00552444
v 0.03550125 0.04664014 -0.01164454
v 0.03550125 0.03467872 0.02774302
v 0.03550125 0.03702991 0.02396500
v 0.03550125 0.03936949 0.01927907
v 0.03550125 -0.02593879 0.03662835
v 0.03550125 -0.02271651 0.03879613
v 0.03550125 0.02793990 0.03528999
v 0.03550125 0.02691182 0.03613871
v 0.03550125 0.01458973 0.04242336
v 0.03550125 0.01840616 0.04110617
v 0.03550125 0.02030281 0.04026903
v 0.03550125 0.02371912 0.03839411
v 0.03550125 0.00017133 0.04435628
v 0.03550125 0.00390083 0.04423564
v 0.03550125 0.00876898 0.04370027
v 0.03550125 0.01366006 0.04268062
v 0.03550125 -0.04636493 -0.01239100
v 0.03550125 -0.04559893 -0.00552398
v 0.03550125 -0.04446558 0.00134913
v 0.03550125 -0.04283639 0.00837895
v 0.03550125 -0.04147679 0.01289780
v 0.03550125 -0.04694519 -0.04979456
v 0.03550125 -0.04689795 -0.05180516
v 0.03550125 -0.00470115 0.04414934
v 0.03550125 -0.00965232 0.04349351
v 0.03550125 -0.03005929 0.03297396
v 0.03550125 -0.02706767 0.03573551
v 0.03550125 -0.03949421 0.01820038
v 0.03550125 -0.03914079 0.01902192
v 0.03550125 -0.03696061 0.02347194
v 0.03550125 -0.03627907 0.02468019
v 0.03550125 -0.04706567 -0.03442821
v 0.03550125 -0.04706006 -0.03372861
v 0.03550125 -0.04690439 -0.02346126
v 0.03550125 -0.04686780 -0.02224555
v 0.03550125 -0.04686899 -0.02018089
v 0.03550125 -0.04673074 -0.01803053
v 0.03550125 -0.02159507 0.03943399
v 0.03550125 -0.01806981 0.04110468
v 0.03550125 -0.01806352 0.04110636
v 0.03550125 -0.01753213 0.04131731
v 0.03550125 -0.01371189 0.04257434
v 0.03550125 -0.01189948 0.04303167
v 0.03550124 -0.03385266 0.02842871
v 0.03550125 -0.03279929 0.02983004
v 0.03489643 0.04709126 -0.01823528
v 0.03516170 0.04708339 -0.01814616
v 0.03489921 0.04708325 -0.01802493
v 0.03495758 0.04666203 -0.01163314
v 0.03495891 0.04663995 -0.01139210
v 0.03497693 0.04594110 -0.00528239
v 0.04171189 0.04199455 -0.12389813
v 0.04356341 0.04185747 -0.12389845
v 0.04356076 0.04199512 -0.12250728
v 0.04172475 0.04212529 -0.12251905
v 0.03990271 0.04228686 -0.12254695
v 0.03816415 0.04238748 -0.12389757
v 0.03623215 0.04266152 -0.12389726
v 0.06514936 0.03640255 -0.12390188
v 0.07574043 0.00017036 -0.12390337
v 0.07565561 0.00632980 -0.12390339
v 0.07536613 0.01208047 -0.12390339
v 0.07355296 0.02378649 -0.12390317
v 0.07434168 0.02033032 -0.12390327
v 0.07481336 0.01742292 -0.12390333
v 0.07139125 0.02945012 -0.12390286
v 0.07250747 0.02698128 -0.12390301
v 0.06748499 0.03459316 -0.12390226
v 0.06991536 0.03185395 -0.12390263
v 0.06841289 0.03367922 -0.12390240
v 0.06813018 0.03397231 -0.12390236
v 0.05292632 0.04074860 -0.12389995
v 0.05737457 0.03974921 -0.12390065
v 0.05871028 0.03935423 -0.12390086
v 0.06098217 0.03854470 -0.12390123
v 0.06243359 0.03791385 -0.12390146
v 0.04713529 0.04154992 -0.12389901
v 0.06183388 -0.03784594 -0.12390088
v 0.06407575 -0.03671990 -0.12390125
v 0.06641687 -0.03515433 -0.12390164
v 0.02535557 -0.04460953 -0.12389496
v 0.02535556 -0.04341964 -0.12389497
v 0.02890722 0.04365787 -0.12389609
v 0.02535556 0.04376062 -0.12389545
v 0.02535556 0.04495100 -0.12389546
v 0.05535243 -0.03991573 -0.12389983
v 0.05872673 -0.03900807 -0.12390038
v 0.07245295 -0.02677919 -0.12390267
v 0.06846186 -0.03328608 -0.12390198
v 0.06916859 -0.03248189 -0.12390210
v 0.07085785 -0.03006782 -0.12390240
v 0.07224929 -0.02727905 -0.12390264
v 0.04356341 -0.04151653 -0.12389792
v 0.04897454 -0.04100112 -0.12389880
v 0.05102183 -0.04072146 -0.12389912
v 0.05399298 -0.04020537 -0.12389961
v 0.02906486 -0.04330562 -0.12389557
v 0.03272490 -0.04287910 -0.12389615
v 0.03623215 -0.04232056 -0.12389673
v 0.04161751 -0.04166154 -0.12389760
v 0.07369511 -0.02290970 -0.12390289
v 0.07462186 -0.01837384 -0.12390308
v 0.07496964 -0.01587287 -0.12390314
v 0.07554019 -0.00890442 -0.12390327
v 0.03990271 -0.04194587 -0.12254655
v 0.04172475 -0.04178431 -0.12251867
v 0.03489711 -0.04844887 -0.01818336
v 0.03495792 -0.04802272 -0.01157138
v 0.03497716 -0.04728027 -0.00500269
v 0.02535639 -0.04511005 -0.12339107
v 0.02535639 0.04545100 -0.12339166
v 0.03489711 0.04879000 -0.01818388
v 0.03495793 0.04836429 -0.01157184
v 0.03497716 0.04762154 -0.00500316
v 0.03497116 0.04643778 0.00214233
v 0.03495629 0.04481145 0.00916833
v 0.03494972 0.04359328 0.01328202
v 0.03494667 0.04168125 0.01853250
v 0.03494829 0.04311832 0.01470358
v 0.02535910 0.04542219 -0.12173153
v 0.02538727 0.04570974 -0.10448695
v 0.02537510 0.04531663 -0.11193510
v 0.02537183 0.04527278 -0.11394165
v 0.03351435 0.04905233 -0.04634321
v 0.03376760 0.04907939 -0.04398788
v 0.02541303 0.04694626 -0.08871502
v 0.03431490 0.04911655 -0.03675843
v 0.03444924 0.04910221 -0.03419678
v 0.03283913 0.04895848 -0.05103348
v 0.02675370 0.04833713 -0.06522793
v 0.02724005 0.04838277 -0.06456334
v 0.02818226 0.04846433 -0.06340591
v 0.02961690 0.04859026 -0.06125973
v 0.02544424 0.04808651 -0.06960085
v 0.02566689 0.04818265 -0.06773960
v 0.02591673 0.04823041 -0.06690528
v 0.03070083 0.04869803 -0.05897056
v 0.03181301 0.04882421 -0.05566186
v 0.03480624 0.04895098 -0.02345619
v 0.03466728 0.04904915 -0.02865994
v 0.03446481 0.04910029 -0.03386366
v 0.03482673 0.04721896 -0.02246432
v 0.03488125 0.04716952 -0.01931009
v 0.03480515 0.04725463 -0.02350661
v 0.03446481 0.04740077 -0.03386366
v 0.03466646 0.04734985 -0.02868517
v 0.03482773 0.04891443 -0.02241391
v 0.03486579 0.04885456 -0.02029885
v 0.03495736 0.04317855 0.00863031
v 0.03497193 0.04478032 0.00173373
v 0.03494773 0.04101250 0.01547900
v 0.03494664 0.03900526 0.02034927
v 0.03494664 0.04090756 0.02034927
v 0.03494841 0.04134327 0.01455800
v 0.03444875 0.04740318 -0.03420711
v 0.03431430 0.04741603 -0.03676874
v 0.03376760 0.04738349 -0.04398787
v 0.02818229 0.04676152 -0.06340587
v 0.02724006 0.04668053 -0.06456332
v 0.02822733 0.04676526 -0.06335021
v 0.02840429 0.04678008 -0.06312501
v 0.02906340 0.04683725 -0.06218658
v 0.02994004 0.04691891 -0.06064989
v 0.03106400 0.04703552 -0.05802210
v 0.03131358 0.04706365 -0.05730274
v 0.03232845 0.04718817 -0.05360258
v 0.03278210 0.04724952 -0.05135382
v 0.03303165 0.04728448 -0.04987725
v 0.02544424 0.04638343 -0.06960081
v 0.02548800 0.04642369 -0.06877816
v 0.02590070 0.04652401 -0.06695019
v 0.02623496 0.04657328 -0.06614599
v 0.02537146 0.04356811 -0.11416372
v 0.02541865 0.04547905 -0.08527230
v 0.02538750 0.04401490 -0.10434379
v 0.02537947 0.04371208 -0.10925792
v 0.02537801 0.04367471 -0.11015314
v 0.02536338 0.04362951 -0.11911044
v 0.02536898 0.04355891 -0.11568652
v 0.03081722 0.04356749 -0.11418298
v 0.02634759 0.04403372 -0.10434353
v 0.03494718 -0.01865574 0.04311823
v 0.03494713 -0.02261944 0.04121919
v 0.03494708 -0.02599493 0.03909278
v 0.03494707 -0.02672995 0.03855669
v 0.03494705 -0.02791765 0.03762867
v 0.03494700 -0.02980921 0.03598068
v 0.03494693 -0.03262619 0.03307161
v 0.03494686 -0.03518989 0.02984083
v 0.03482773 -0.04857334 -0.02241340
v 0.03486580 -0.04851307 -0.02029836
v 0.03480624 -0.04860990 -0.02345568
v 0.03446481 -0.04875896 -0.03386319
v 0.03444925 -0.04876075 -0.03419628
v 0.03466728 -0.04870774 -0.02865943
v 0.03494671 0.03926682 0.02375269
v 0.03494677 0.03796235 0.02610521
v 0.03494681 0.03685595 0.02789906
v 0.03494690 0.03417335 0.03163083
v 0.03494698 0.03119386 0.03497226
v 0.03494718 0.01899766 0.04311799
v 0.03494715 0.02111906 0.04217511
v 0.03494711 0.02463939 0.04022721
v 0.03494705 0.02790218 0.03791604
v 0.03497693 -0.04559894 -0.00528193
v 0.03495906 -0.04629548 -0.01136600
v 0.03493879 -0.04653729 -0.01431792
v 0.03489921 -0.04674120 -0.01802445
v 0.03516170 -0.04674136 -0.01814568
v 0.03489643 -0.04674922 -0.01823480
v 0.03497197 -0.04444371 0.00170539
v 0.03495736 -0.04283624 0.00863077
v 0.03081724 -0.04322643 -0.11418249
v 0.03088987 -0.04374196 -0.10434214
v 0.02536366 -0.04328184 -0.11894123
v 0.02537146 -0.04322705 -0.11416327
v 0.02537389 -0.04325467 -0.11267434
v 0.02537947 -0.04337098 -0.10925748
v 0.02538750 -0.04367373 -0.10434335
v 0.02536338 -0.04328850 -0.11910999
v 0.02537510 -0.04497505 -0.11193464
v 0.02537182 -0.04493123 -0.11394115
v 0.02535910 -0.04508070 -0.12173096
v 0.02544424 -0.04774538 -0.06960033
v 0.02544424 -0.04604191 -0.06960035
v 0.02541303 -0.04660445 -0.08871448
v 0.02541306 -0.04490081 -0.08869387
v 0.02538726 -0.04536834 -0.10448652
v 0.02548800 -0.04778565 -0.06877772
v 0.02566691 -0.04613724 -0.06773908
v 0.02590070 -0.04788571 -0.06694972
v 0.02591674 -0.04618513 -0.06690475
v 0.02623495 -0.04793483 -0.06614552
v 0.02675373 -0.04629219 -0.06522739
v 0.02724006 -0.04804153 -0.06456283
v 0.02724006 -0.04633897 -0.06456284
v 0.02754603 -0.04806844 -0.06418697
v 0.02795628 -0.04640104 -0.06368303
v 0.02818228 -0.04812225 -0.06340539
v 0.02813708 -0.04641619 -0.06346092
v 0.03376760 -0.04873818 -0.04398738
v 0.03376760 -0.04704171 -0.04398739
v 0.03308528 -0.04865073 -0.04953267
v 0.03292872 -0.04692829 -0.05050982
v 0.03250351 -0.04857042 -0.05279179
v 0.03229815 -0.04684251 -0.05373592
v 0.03161633 -0.04845838 -0.05634308
v 0.03126068 -0.04671597 -0.05745978
v 0.03052131 -0.04833714 -0.05940092
v 0.03000107 -0.04658326 -0.06052792
v 0.02936444 -0.04822478 -0.06169927
v 0.02957707 -0.04654263 -0.06133070
v 0.02818229 -0.04641993 -0.06340540
v 0.03444875 -0.04706130 -0.03420662
v 0.03399285 -0.04706456 -0.04143217
v 0.03446481 -0.04705890 -0.03386319
v 0.03431490 -0.04877420 -0.03675793
v 0.03480515 -0.04691266 -0.02350614
v 0.03466642 -0.04700794 -0.02868596
v 0.03494773 -0.04067011 0.01547942
v 0.03494841 -0.04100090 0.01455843
v 0.03494819 -0.04272600 0.01483954
v 0.03495629 -0.04446500 0.00916752
v 0.03497116 -0.04609711 0.00214330
v 0.03494664 -0.03866282 0.02034967
v 0.03494663 -0.04057502 0.02032866
v 0.03494663 -0.04056634 0.02034970
v 0.03482673 -0.04687696 -0.02246382
v 0.03484711 -0.04689146 -0.02138579
v 0.03519979 0.02644010 0.03664623
v 0.03517172 0.02388798 0.03844016
v 0.03494706 0.02438607 0.03822283
v 0.03494684 0.03419861 0.02867955
v 0.03527350 0.03212590 0.03117911
v 0.03494691 0.03166204 0.03186604
v 0.03524252 0.02984659 0.03365388
v 0.03494697 0.02885968 0.03473028
v 0.03522906 0.02883685 0.03462096
v 0.03494700 0.02750679 0.03591126
v 0.03494708 0.02316675 0.03898759
v 0.03514688 0.02120827 0.03998353
v 0.03494712 0.01970658 0.04080270
v 0.03512538 0.01841295 0.04127780
v 0.03512534 0.01840699 0.04128025
v 0.03494713 0.01840724 0.04136238
v 0.03494693 -0.03048248 0.03278642
v 0.03494695 -0.02955311 0.03374203
v 0.03524252 -0.02950402 0.03365417
v 0.03522906 -0.02849428 0.03462126
v 0.03494702 -0.02657353 0.03639144
v 0.03519980 -0.02609750 0.03664650
v 0.03494705 -0.02490047 0.03764137
v 0.03517172 -0.02354536 0.03844039
v 0.03494710 -0.02159653 0.03968899
v 0.03514688 -0.02086565 0.03998374
v 0.03494713 -0.01807058 0.04136017
v 0.03512539 -0.01807030 0.04127798
v 0.03494714 -0.01806459 0.04136257
v 0.03512534 -0.01806434 0.04128046
v 0.03494683 -0.03385609 0.02867989
v 0.03494685 -0.03318676 0.02958432
v 0.03527350 -0.03178336 0.03117944
v 0.03494665 0.03867571 0.02105015
v 0.03494717 -0.01336628 0.04292355
v 0.03494714 -0.01721081 0.04169632
v 0.03494673 0.03680060 0.02462943
v 0.03494674 0.03682877 0.02458024
v 0.03494673 0.03681540 0.02460361
v 0.03494674 -0.03645812 0.02462979
v 0.03494674 -0.03849142 0.02456593
v 0.03494683 -0.03612597 0.02849018
v 0.03494674 -0.03647292 0.02460397
v 0.03494674 -0.03648630 0.02458060
v 0.03494665 -0.03833328 0.02105054
v 0.03494721 -0.01436419 0.04457954
v 0.03494722 -0.01231900 0.04510363
v 0.03494720 -0.00852529 0.04394053
v 0.03494724 -0.00974660 0.04562965
v 0.03494721 -0.00471883 0.04440358
v 0.03494725 -0.00487325 0.04626811
v 0.03494721 0.00017134 0.04461204
v 0.03494726 0.00017098 0.04648477
v 0.03494721 0.00511115 0.04439922
v 0.03494726 0.00469253 0.04631081
v 0.03494719 0.01001270 0.04374595
v 0.03494724 0.00905610 0.04580242
v 0.03494718 0.01224268 0.04328715
v 0.03494722 0.01324085 0.04496498
v 0.03494717 0.01447067 0.04271332
v 0.03494719 0.01722310 0.04378744
v 0.03519005 0.00535579 0.04426530
v 0.03521373 0.01224256 0.04316416
v 0.03519005 -0.00501311 0.04426533
v 0.03521373 -0.01189990 0.04316429
v 0.03517644 -0.03647068 0.02450028
v 0.03517658 -0.03648405 0.02447686
v 0.03519369 -0.03833041 0.02093846
v 0.03520604 -0.03993547 0.01726997
v 0.03521892 -0.04153078 0.01286996
v 0.03521893 0.04187314 0.01286954
v 0.03520604 0.04027786 0.01726956
v 0.03519369 0.03867286 0.02093807
v 0.03517658 0.03682652 0.02447647
v 0.03517644 0.03681315 0.02449992
f 66 67 68
f 68 78 66
f 66 78 79
f 66 79 69
f 69 79 80
f 69 80 70
f 69 70 33
f 33 70 71
f 33 71 34
f 67 83 68
f 68 83 84
f 68 84 85
f 100 85 84
f 7 85 100
f 100 6 7
f 100 5 6
f 99 5 100
f 99 4 5
f 3 4 99
f 74 3 99
f 74 99 86
f 74 86 75
f 75 86 87
f 75 87 88
f 74 75 76
f 76 75 77
f 77 95 76
f 77 94 95
f 93 94 77
f 93 92 94
f 23 92 93
f 23 91 92
f 25 91 23
f 131 3 74
f 131 2 3
f 130 2 131
f 130 140 2
f 2 140 141
f 2 141 142
f 142 143 2
f 2 143 144
f 2 144 1
f 1 144 145
f 1 145 125
f 125 126 1
f 1 126 127
f 1 127 18
f 18 127 128
f 18 128 129
f 129 136 18
f 446 136 129
f 446 137 136
f 445 137 446
f 373 445 446
f 422 445 373
f 421 445 422
f 375 421 422
f 418 421 375
f 418 420 421
f 417 420 418
f 408 417 418
f 419 408 418
f 297 408 419
f 297 409 408
f 408 409 152
f 408 152 443
f 443 152 139
f 139 152 17
f 17 152 153
f 17 153 134
f 17 134 16
f 16 134 135
f 134 397 135
f 135 397 399
f 397 398 399
f 399 398 400
f 399 400 401
f 113 399 401
f 113 401 114
f 113 114 16
f 114 146 16
f 16 146 147
f 146 405 147
f 147 405 407
f 405 406 407
f 406 413 407
f 407 413 412
f 412 413 290
f 290 423 412
f 412 423 424
f 412 424 425
f 425 442 412
f 425 441 442
f 441 133 442
f 442 133 151
f 15 151 133
f 132 15 133
f 132 14 15
f 121 14 132
f 121 122 14
f 14 122 123
f 14 123 13
f 13 123 124
f 440 124 123
f 117 124 440
f 440 392 117
f 117 392 118
f 391 118 392
f 119 118 391
f 389 119 391
f 379 119 389
f 379 120 119
f 378 120 379
f 378 116 120
f 12 120 116
f 115 12 116
f 115 11 12
f 107 11 115
f 384 107 115
f 382 107 384
f 382 105 107
f 106 105 382
f 381 106 382
f 381 382 383
f 307 381 383
f 306 381 307
f 306 414 381
f 305 414 306
f 305 416 414
f 305 415 416
f 415 452 416
f 451 452 415
f 411 451 415
f 411 450 451
f 260 450 411
f 260 449 450
f 259 449 260
f 259 448 449
f 448 104 449
f 448 103 104
f 257 103 448
f 103 257 97
f 97 257 258
f 97 258 98
f 98 258 108
f 258 159 108
f 158 108 159
f 158 109 108
f 157 109 158
f 157 72 109
f 156 72 157
f 156 155 72
f 73 72 155
f 154 73 155
f 251 73 154
f 251 96 73
f 250 96 251
f 96 250 89
f 89 250 252
f 89 252 90
f 90 252 254
f 90 254 101
f 101 254 253
f 101 253 263
f 101 263 264
f 101 264 102
f 102 264 265
f 102 265 85
f 85 265 276
f 85 276 275
f 85 275 274
f 85 274 68
f 68 274 273
f 68 273 272
f 272 271 68
f 68 271 270
f 68 270 78
f 270 269 78
f 78 269 268
f 78 268 266
f 280 78 266
f 280 266 267
f 279 78 280
f 279 278 78
f 78 278 277
f 78 277 79
f 79 277 282
f 79 282 80
f 80 282 289
f 80 289 70
f 289 71 70
f 288 71 289
f 289 283 288
f 288 283 284
f 288 284 285
f 285 281 288
f 287 288 281
f 286 288 287
f 286 191 288
f 191 34 288
f 191 35 34
f 166 35 191
f 38 35 166
f 164 38 166
f 163 38 164
f 163 46 38
f 162 46 163
f 46 162 47
f 47 162 48
f 185 48 162
f 180 48 185
f 180 52 48
f 53 52 180
f 180 181 53
f 53 181 182
f 53 182 54
f 54 182 183
f 54 183 64
f 64 183 184
f 64 184 167
f 167 65 64
f 65 167 61
f 61 167 176
f 61 176 62
f 179 62 176
f 178 62 179
f 178 63 62
f 177 63 178
f 177 19 63
f 174 19 177
f 174 20 19
f 36 20 174
f 36 174 37
f 37 174 175
f 37 175 171
f 37 171 31
f 31 171 172
f 31 172 32
f 32 172 173
f 32 173 26
f 26 173 170
f 26 170 27
f 27 170 43
f 169 43 170
f 169 42 43
f 168 42 169
f 212 42 168
f 212 41 42
f 211 41 212
f 211 28 41
f 210 28 211
f 210 49 28
f 209 49 210
f 209 50 49
f 196 50 209
f 196 51 50
f 200 51 196
f 200 59 51
f 199 59 200
f 199 56 59
f 58 56 199
f 198 58 199
f 197 58 198
f 197 57 58
f 188 57 197
f 188 55 57
f 60 55 188
f 187 60 188
f 187 39 60
f 186 39 187
f 186 40 39
f 195 40 186
f 195 44 40
f 194 44 195
f 194 45 44
f 204 45 194
f 204 29 45
f 203 29 204
f 203 30 29
f 202 30 203
f 202 21 30
f 201 21 202
f 208 21 201
f 214 21 208
f 208 213 214
f 213 22 214
f 213 24 22
f 207 24 213
f 24 207 25
f 25 207 206
f 25 206 321
f 321 206 205
f 205 190 321
f 321 190 328
f 321 328 323
f 323 324 321
f 321 324 325
f 321 325 322
f 92 321 322
f 91 321 92
f 92 322 94
f 94 322 95
f 95 322 335
f 95 335 76
f 76 335 333
f 76 333 338
f 338 340 76
f 76 340 342
f 76 342 344
f 346 76 344
f 346 348 76
f 348 361 76
f 76 361 360
f 76 360 74
f 360 358 74
f 74 358 356
f 74 356 131
f 131 356 354
f 131 354 352
f 130 131 352
f 350 130 352
f 363 130 350
f 363 140 130
f 362 140 363
f 141 140 362
f 364 141 362
f 367 141 364
f 367 142 141
f 366 142 367
f 142 366 143
f 143 366 376
f 143 376 377
f 143 377 144
f 144 377 317
f 377 318 317
f 316 317 318
f 316 145 317
f 315 145 316
f 315 125 145
f 314 125 315
f 314 126 125
f 313 126 314
f 319 126 313
f 319 127 126
f 128 127 319
f 128 319 320
f 128 320 447
f 447 129 128
f 447 320 369
f 447 369 368
f 368 369 370
f 368 370 373
f 373 370 374
f 373 374 375
f 370 369 320
f 370 320 371
f 371 320 319
f 371 319 372
f 372 319 313
f 372 313 217
f 217 313 216
f 313 314 216
f 216 314 315
f 216 315 215
f 316 215 315
f 318 215 316
f 318 299 215
f 377 299 318
f 377 298 299
f 376 298 377
f 376 300 298
f 366 300 376
f 366 303 300
f 367 303 366
f 367 301 303
f 364 301 367
f 301 364 302
f 302 364 362
f 362 365 302
f 362 349 365
f 363 349 362
f 363 350 349
f 349 350 351
f 351 350 352
f 351 352 353
f 353 352 354
f 353 354 355
f 355 354 356
f 355 356 357
f 357 356 358
f 357 358 359
f 359 358 360
f 359 360 347
f 347 360 361
f 347 361 348
f 346 347 348
f 346 345 347
f 344 345 346
f 345 344 343
f 342 343 344
f 342 341 343
f 340 341 342
f 340 339 341
f 338 339 340
f 338 337 339
f 333 337 338
f 333 332 337
f 332 333 334
f 334 333 335
f 334 335 336
f 336 335 327
f 336 327 329
f 329 327 326
f 329 326 325
f 329 325 330
f 330 325 324
f 330 324 331
f 331 324 323
f 328 331 323
f 190 331 328
f 190 218 331
f 189 218 190
f 368 446 447
f 144 317 145
f 322 327 335
f 322 326 327
f 322 325 326
f 321 91 25
f 213 208 207
f 214 22 21
f 185 162 161
f 160 161 162
f 162 163 160
f 160 163 164
f 160 164 165
f 164 166 165
f 192 191 286
f 288 34 71
f 282 283 289
f 154 155 156
f 257 448 262
f 103 10 104
f 103 9 10
f 97 9 103
f 9 97 98
f 98 108 9
f 9 108 109
f 9 109 72
f 72 73 9
f 9 73 8
f 8 73 96
f 8 96 89
f 89 90 8
f 90 101 8
f 8 101 102
f 8 102 7
f 10 112 104
f 10 111 112
f 450 112 111
f 11 111 10
f 11 110 111
f 106 110 11
f 110 452 111
f 110 381 452
f 449 104 112
f 262 448 259
f 259 227 262
f 262 227 225
f 262 225 257
f 257 225 224
f 257 224 223
f 257 223 258
f 258 223 222
f 258 222 159
f 159 222 158
f 221 158 222
f 221 157 158
f 156 157 221
f 220 156 221
f 220 154 156
f 251 154 220
f 256 251 220
f 256 250 251
f 255 250 256
f 255 252 250
f 247 252 255
f 247 254 252
f 248 254 247
f 248 253 254
f 249 253 248
f 253 249 263
f 263 249 236
f 263 236 264
f 264 236 235
f 264 235 265
f 265 235 233
f 232 265 233
f 232 276 265
f 237 276 232
f 237 275 276
f 274 275 237
f 246 274 237
f 246 273 274
f 272 273 246
f 245 272 246
f 245 271 272
f 241 271 245
f 241 270 271
f 269 270 241
f 240 269 241
f 240 268 269
f 266 268 240
f 239 266 240
f 266 239 267
f 238 267 239
f 238 280 267
f 244 280 238
f 244 279 280
f 243 279 244
f 243 278 279
f 242 278 243
f 242 277 278
f 277 242 282
f 282 242 234
f 282 234 283
f 283 234 229
f 283 229 284
f 284 229 230
f 284 230 285
f 285 230 281
f 230 231 281
f 231 287 281
f 231 286 287
f 228 286 231
f 228 192 286
f 193 192 228
f 228 219 193
f 259 226 227
f 261 226 259
f 259 260 261
f 449 112 450
f 261 260 411
f 261 411 304
f 450 111 451
f 304 411 415
f 451 111 452
f 304 415 305
f 416 452 414
f 414 452 381
f 307 383 308
f 308 383 385
f 308 385 312
f 312 385 387
f 312 387 311
f 387 380 311
f 311 380 388
f 380 379 388
f 311 388 310
f 310 388 390
f 310 390 309
f 309 390 393
f 309 393 438
f 438 393 436
f 437 436 393
f 435 436 437
f 435 434 436
f 433 434 435
f 440 433 435
f 439 433 440
f 439 431 433
f 431 432 433
f 431 430 432
f 429 430 431
f 429 428 430
f 427 428 429
f 427 426 428
f 425 426 427
f 427 429 441
f 441 429 121
f 429 431 439
f 439 122 429
f 433 432 434
f 435 437 440
f 437 393 392
f 390 391 393
f 385 386 387
f 385 384 386
f 383 384 385
f 386 378 387
f 386 115 378
f 387 378 380
f 106 381 110
f 11 105 106
f 383 382 384
f 384 115 386
f 105 11 107
f 115 116 378
f 378 379 380
f 12 119 120
f 388 379 389
f 388 389 390
f 389 391 390
f 118 119 12
f 391 392 393
f 12 117 118
f 13 117 12
f 440 437 392
f 440 123 439
f 13 124 117
f 439 123 122
f 429 122 121
f 121 132 441
f 15 150 151
f 16 150 15
f 16 149 150
f 407 150 149
f 407 442 150
f 149 148 407
f 148 149 16
f 442 151 150
f 441 132 133
f 427 441 425
f 425 424 426
f 412 442 407
f 413 406 290
f 290 406 404
f 290 404 291
f 291 404 402
f 291 402 292
f 292 402 400
f 292 400 293
f 403 402 404
f 403 404 405
f 401 402 403
f 405 404 406
f 147 407 148
f 146 403 405
f 16 147 148
f 114 403 146
f 114 401 403
f 401 400 402
f 293 400 398
f 293 398 294
f 294 398 295
f 295 398 395
f 295 395 296
f 296 395 394
f 394 395 396
f 410 394 396
f 409 394 410
f 410 396 134
f 396 395 397
f 296 394 297
f 397 395 398
f 135 399 113
f 134 396 397
f 16 135 113
f 153 410 134
f 152 410 153
f 17 138 139
f 17 137 138
f 18 137 17
f 444 139 138
f 444 138 445
f 443 139 444
f 420 443 444
f 152 409 410
f 394 409 297
f 417 408 443
f 417 443 420
f 420 444 421
f 421 444 445
f 375 422 373
f 373 446 368
f 445 138 137
f 447 446 129
f 18 136 137
f 7 102 85
f 67 82 83
f 81 82 67

