# https://github.com/mikedh/trimesh
v -0.03101240 -0.03041973 -0.04026547
v -0.03101225 -0.05127203 0.01025444
v -0.03101224 -0.04881160 0.01145468
v -0.03101240 -0.02472751 -0.03791599
v -0.03101240 -0.01970082 -0.03435876
v -0.03101225 -0.04557979 0.01260393
v -0.03101225 -0.03950747 0.01362788
v -0.03101238 -0.04855523 -0.03922433
v -0.03101239 -0.01559170 -0.02977219
v -0.03101225 -0.05629872 0.00669721
v -0.03101226 -0.06040784 0.00211065
v -0.03101238 -0.01260622 -0.02438623
v -0.03101226 -0.03335955 0.01327491
v -0.03101240 -0.03649206 -0.04128942
v -0.03101227 -0.06339331 -0.00327532
v -0.03101239 -0.04263999 -0.04093646
v -0.03101237 -0.01089408 -0.01847099
v -0.03101227 -0.02744431 0.01156279
v -0.03101228 -0.02205835 0.00857729
v -0.03101228 -0.06510546 -0.00919055
v -0.03101235 -0.01054113 -0.01232305
v -0.03101237 -0.05394118 -0.03623883
v -0.03101230 -0.01747178 0.00446818
v -0.03101229 -0.06545842 -0.01533847
v -0.03101231 -0.06443446 -0.02141080
v -0.03101233 -0.06208498 -0.02710301
v -0.03101233 -0.01156508 -0.00625075
v -0.03101235 -0.05852776 -0.03212973
v -0.03101232 -0.01391456 -0.00055851
v -0.03041246 -0.04557979 0.01260393
v -0.03041246 -0.03950747 0.01362788
v -0.03041246 -0.03335955 0.01327491
v -0.03041246 -0.02744431 0.01156279
v -0.03041246 -0.02205835 0.00857729
v -0.03041246 -0.01747178 0.00446818
v -0.03041246 -0.01391456 -0.00055851
v -0.03041246 -0.01156508 -0.00625075
v -0.03041246 -0.01054113 -0.01232305
v -0.03041246 -0.01089408 -0.01847099
v -0.03041246 -0.01260622 -0.02438623
v -0.03041246 -0.01559170 -0.02977219
v -0.03041246 -0.01970082 -0.03435876
v -0.03041246 -0.02472751 -0.03791599
v -0.03041246 -0.03041973 -0.04026547
v -0.03041246 -0.03649206 -0.04128942
v -0.03041246 -0.04263999 -0.04093646
v -0.03041246 -0.04855523 -0.03922433
v -0.03041246 -0.05394118 -0.03623883
v -0.03041246 -0.05852776 -0.03212973
v -0.03041246 -0.06208498 -0.02710301
v -0.03041246 -0.06443446 -0.02141080
v -0.03041246 -0.06545842 -0.01533847
v -0.03041246 -0.06510546 -0.00919055
v -0.03041246 -0.06339331 -0.00327532
v -0.03041246 -0.06040784 0.00211065
v -0.03041246 -0.05629872 0.00669721
v -0.03041246 -0.05127203 0.01025444
v -0.03041246 -0.03799976 -0.01383077
f 3 6 30
f 30 6 7
f 30 7 31
f 31 7 13
f 31 13 32
f 32 13 18
f 32 18 33
f 33 18 19
f 33 19 34
f 34 19 23
f 34 23 35
f 35 23 29
f 35 29 36
f 36 29 27
f 36 27 37
f 37 27 21
f 37 21 38
f 38 21 17
f 38 17 39
f 39 17 12
f 39 12 40
f 40 12 9
f 40 9 41
f 41 9 5
f 41 5 42
f 42 5 4
f 42 4 43
f 43 4 1
f 43 1 44
f 44 1 14
f 44 14 45
f 45 14 16
f 45 16 46
f 46 16 8
f 46 8 47
f 47 8 22
f 47 22 48
f 48 22 28
f 48 28 49
f 49 28 26
f 49 26 50
f 50 26 25
f 50 25 51
f 51 25 24
f 51 24 52
f 52 24 20
f 52 20 53
f 53 20 15
f 53 15 54
f 54 15 11
f 54 11 55
f 55 11 10
f 55 10 56
f 56 10 2
f 56 2 57
f 57 2 3
f 57 3 30
f 57 30 58
f 58 56 57
f 58 55 56
f 54 55 58
f 58 53 54
f 58 52 53
f 51 52 58
f 58 50 51
f 58 49 50
f 48 49 58
f 58 47 48
f 58 46 47
f 45 46 58
f 44 45 58
f 58 43 44
f 58 42 43
f 41 42 58
f 58 40 41
f 58 39 40
f 38 39 58
f 58 37 38
f 58 36 37
f 35 36 58
f 58 34 35
f 58 33 34
f 32 33 58
f 58 31 32
f 58 30 31

