# https://github.com/mikedh/trimesh
v 0.00000000 0.00000001 0.02725000
v -0.00606370 0.00000001 0.02656678
v -0.01182333 0.00000000 0.02455140
v -0.01699010 -0.00000000 0.02130492
v -0.02130491 0.00000000 0.01699009
v -0.02455140 0.00000001 0.01182332
v -0.02656678 0.00000000 0.00606371
v -0.02725000 -0.00000001 0.00000001
v -0.02656678 0.00000000 -0.00606368
v -0.02455140 0.00000001 -0.01182333
v -0.02130491 -0.00000000 -0.01699010
v -0.01699010 -0.00000001 -0.02130489
v -0.01182333 -0.00000000 -0.02455141
v -0.00606370 -0.00000001 -0.02656678
v 0.00000000 0.00000001 -0.02725000
v 0.00606370 0.00000001 0.02656678
v 0.01182333 0.00000000 0.02455140
v 0.01699010 -0.00000000 0.02130492
v 0.02130491 0.00000000 0.01699009
v 0.02455140 0.00000001 0.01182332
v 0.02656679 0.00000000 0.00606371
v 0.02725000 -0.00000001 0.00000001
v 0.02656679 0.00000000 -0.00606368
v 0.02455140 0.00000001 -0.01182333
v 0.02130491 -0.00000000 -0.01699010
v 0.01699010 -0.00000001 -0.02130489
v 0.01182333 -0.00000000 -0.02455141
v 0.00606370 -0.00000001 -0.02656678
v 0.00000000 -0.00200001 0.02725000
v 0.00606370 -0.00200001 0.02656678
v 0.01182333 -0.00200001 0.02455141
v 0.01699010 -0.00199999 0.02130490
v 0.02130491 -0.00200000 0.01699010
v 0.02455140 -0.00200000 0.01182333
v 0.02656679 -0.00200000 0.00606369
v 0.02725000 -0.00199999 -0.00000001
v 0.02656679 -0.00200000 -0.00606370
v 0.02455140 -0.00200001 -0.01182332
v 0.02130491 -0.00200000 -0.01699009
v 0.01699010 -0.00199999 -0.02130491
v 0.01182333 -0.00200000 -0.02455140
v 0.00606370 -0.00200000 -0.02656677
v 0.00000000 -0.00200000 -0.02724999
v -0.00606370 -0.00200000 -0.02656677
v -0.01182333 -0.00200000 -0.02455140
v -0.01699010 -0.00199999 -0.02130491
v -0.02130491 -0.00200000 -0.01699009
v -0.02455140 -0.00200001 -0.01182332
v -0.02656678 -0.00200000 -0.00606370
v -0.02725000 -0.00199999 -0.00000001
v -0.02656678 -0.00200000 0.00606369
v -0.02455140 -0.00200000 0.01182333
v -0.02130491 -0.00200000 0.01699010
v -0.01699010 -0.00199999 0.02130490
v -0.01182333 -0.00200001 0.02455141
v -0.00606370 -0.00200001 0.02656678
f 29 1 30
f 30 1 16
f 30 16 31
f 31 16 17
f 31 17 32
f 32 17 18
f 32 18 33
f 33 18 19
f 33 19 34
f 34 19 20
f 34 20 35
f 35 20 21
f 35 21 36
f 36 21 22
f 36 22 37
f 37 22 23
f 37 23 38
f 38 23 24
f 38 24 39
f 39 24 25
f 39 25 40
f 40 25 26
f 40 26 41
f 41 26 27
f 41 27 42
f 42 27 28
f 42 28 43
f 43 28 15
f 43 15 44
f 44 15 14
f 44 14 45
f 45 14 13
f 45 13 46
f 46 13 12
f 46 12 47
f 47 12 11
f 47 11 48
f 48 11 10
f 48 10 49
f 49 10 9
f 49 9 50
f 50 9 8
f 50 8 51
f 51 8 7
f 51 7 52
f 52 7 6
f 52 6 53
f 53 6 5
f 53 5 54
f 54 5 4
f 54 4 55
f 55 4 3
f 55 3 56
f 56 3 2
f 56 2 29
f 29 2 1

