# File exported by Houdini 20.5.445 (www.sidefx.com)
# 732 points
# 4392 vertices
# 1464 primitives
# Bounds: [-0.00485775014, -0.00484115817, -0.00182165613] to [0.00485775014, 0.00484115817, 0.00182165613]
g 
v 0.00467558438 0 0.00182165613
v 0.00479149679 -0.000799559348 0.0016394906
v 0.00485775014 0 0.0016394906
v 0.00460455194 -0.000811906764 0.00182165613
v 0.00459454395 -0.00157730887 0.0016394906
v 0.00439361203 -0.00159914396 0.00182165613
v 0.0042722635 -0.00231203344 0.0016394906
v 0.00404917495 -0.00233779219 0.00182165613
v 0.00383344735 -0.00298369187 0.0016394906
v 0.00358170527 -0.00300540752 0.00182165613
v 0.0032900644 -0.00357396272 0.0016394906
v 0.00300540752 -0.00358170527 0.00182165613
v 0.00265693734 -0.00406674528 0.0016394906
v 0.00233779219 -0.00404917495 0.00182165613
v 0.00195133593 -0.00444859779 0.0016394906
v 0.00159914396 -0.00439361203 0.00182165613
v 0.0011925071 -0.00470910408 0.0016394906
v 0.000811906764 -0.00460455194 0.00182165613
v 0.000401149824 -0.00484115817 0.0016394906
v -2.82826803e-18 -0.00467558438 0.00182165613
v -0.00467558438 -5.72593962e-19 0.00182165613
v -0.00485775014 -5.94902816e-19 0.0016394906
v -0.00460455194 -0.000811906764 0.00182165613
v -0.00479149679 -0.000799559348 0.0016394906
v -0.00439361203 -0.00159914396 0.00182165613
v -0.00459454395 -0.00157730887 0.0016394906
v -0.00404917495 -0.00233779219 0.00182165613
v -0.0042722635 -0.00231203344 0.0016394906
v -0.00358170527 -0.00300540752 0.00182165613
v -0.00383344735 -0.00298369187 0.0016394906
v -0.00300540752 -0.00358170527 0.00182165613
v -0.0032900644 -0.00357396272 0.0016394906
v -0.00233779219 -0.00404917495 0.00182165613
v -0.00265693734 -0.00406674528 0.0016394906
v -0.00159914396 -0.00439361203 0.00182165613
v -0.00195133593 -0.00444859779 0.0016394906
v -0.000811906764 -0.00460455194 0.00182165613
v -0.0011925071 -0.00470910408 0.0016394906
v -0.000401149824 -0.00484115817 0.0016394906
v -0.00479149679 0.000799559348 0.0016394906
v -0.00460455194 0.000811906764 0.00182165613
v -0.00459454395 0.00157730887 0.0016394906
v -0.00439361203 0.00159914396 0.00182165613
v -0.0042722635 0.00231203344 0.0016394906
v -0.00404917495 0.00233779219 0.00182165613
v -0.00383344735 0.00298369187 0.0016394906
v -0.00358170527 0.00300540752 0.00182165613
v -0.0032900644 0.00357396272 0.0016394906
v -0.00300540752 0.00358170527 0.00182165613
v -0.00265693734 0.00406674528 0.0016394906
v -0.00233779219 0.00404917495 0.00182165613
v -0.00195133593 0.00444859779 0.0016394906
v -0.00159914396 0.00439361203 0.00182165613
v -0.0011925071 0.00470910408 0.0016394906
v -0.000811906764 0.00460455194 0.00182165613
v -0.000401149824 0.00484115817 0.0016394906
v 3.29386215e-18 0.00467558438 0.00182165613
v 0.00460455194 0.000811906764 0.00182165613
v 0.00479149679 0.000799559348 0.0016394906
v 0.00439361203 0.00159914396 0.00182165613
v 0.00459454395 0.00157730887 0.0016394906
v 0.00404917495 0.00233779219 0.00182165613
v 0.0042722635 0.00231203344 0.0016394906
v 0.00358170527 0.00300540752 0.00182165613
v 0.00383344735 0.00298369187 0.0016394906
v 0.00300540752 0.00358170527 0.00182165613
v 0.0032900644 0.00357396272 0.0016394906
v 0.00233779219 0.00404917495 0.00182165613
v 0.00265693734 0.00406674528 0.0016394906
v 0.00159914396 0.00439361203 0.00182165613
v 0.00195133593 0.00444859779 0.0016394906
v 0.000811906764 0.00460455194 0.00182165613
v 0.0011925071 0.00470910408 0.0016394906
v 0.000401149824 0.00484115817 0.0016394906
v -0.00485775014 0 -0.0016394906
v -0.00479149679 -0.000799559348 -0.0016394906
v -0.00459454395 -0.00157730887 -0.0016394906
v -0.0042722635 -0.00231203344 -0.0016394906
v -0.00383344735 -0.00298369187 -0.0016394906
v -0.0032900644 -0.00357396272 -0.0016394906
v -0.00265693734 -0.00406674528 -0.0016394906
v -0.00195133593 -0.00444859779 -0.0016394906
v -0.0011925071 -0.00470910408 -0.0016394906
v -0.000401149824 -0.00484115817 -0.0016394906
v 0.000401149824 -0.00484115817 -0.0016394906
v 0.0011925071 -0.00470910408 -0.0016394906
v 0.00195133593 -0.00444859779 -0.0016394906
v 0.00265693734 -0.00406674528 -0.0016394906
v 0.0032900644 -0.00357396272 -0.0016394906
v 0.00383344735 -0.00298369187 -0.0016394906
v 0.0042722635 -0.00231203344 -0.0016394906
v 0.00459454395 -0.00157730887 -0.0016394906
v 0.00479149679 -0.000799559348 -0.0016394906
v 0.00485775014 5.94902816e-19 -0.0016394906
v 0.00340629113 -0.000677553413 0.00182165613
v 0.00347302458 4.25322829e-19 0.00182165613
v 0.0032086561 -0.00132906891 0.00182165613
v 0.00340629113 0.000677553413 0.00182165613
v 0.00288771419 -0.00192950899 0.00182165613
v 0.0032086561 0.00132906891 0.00182165613
v 0.00245579891 -0.00245579891 0.00182165613
v 0.00288771419 0.00192950899 0.00182165613
v 0.00245579891 0.00245579891 0.00182165613
v 0.00192950899 -0.00288771419 0.00182165613
v 0.00192950899 0.00288771419 0.00182165613
v 0.00132906891 -0.0032086561 0.00182165613
v 0.00132906891 0.0032086561 0.00182165613
v 0.000677553413 -0.00340629113 0.00182165613
v 0.000677553413 0.00340629113 0.00182165613
v 6.37984244e-19 -0.00347302458 0.00182165613
v -2.12661415e-19 0.00347302458 0.00182165613
v -0.000677553413 0.00340629113 0.00182165613
v -0.000677553413 -0.00340629113 0.00182165613
v -0.00132906891 0.0032086561 0.00182165613
v -0.00132906891 -0.0032086561 0.00182165613
v -0.00192950899 0.00288771419 0.00182165613
v -0.00192950899 -0.00288771419 0.00182165613
v -0.00245579891 0.00245579891 0.00182165613
v -0.00245579891 -0.00245579891 0.00182165613
v -0.00288771419 0.00192950899 0.00182165613
v -0.0032086561 0.00132906891 0.00182165613
v -0.00288771419 -0.00192950899 0.00182165613
v -0.0032086561 -0.00132906891 0.00182165613
v -0.00340629113 0.000677553413 0.00182165613
v -0.00347302458 0 0.00182165613
v -0.00340629113 -0.000677553413 0.00182165613
v 0.00479149679 0.000799559348 -0.0016394906
v 0.00459454395 0.00157730887 -0.0016394906
v 0.0042722635 0.00231203344 -0.0016394906
v 0.00383344735 0.00298369187 -0.0016394906
v 0.0032900644 0.00357396272 -0.0016394906
v 0.00265693734 0.00406674528 -0.0016394906
v 0.00195133593 0.00444859779 -0.0016394906
v 0.0011925071 0.00470910408 -0.0016394906
v 0.000401149824 0.00484115817 -0.0016394906
v -0.000401149824 0.00484115817 -0.0016394906
v -0.0011925071 0.00470910408 -0.0016394906
v -0.00195133593 0.00444859779 -0.0016394906
v -0.00265693734 0.00406674528 -0.0016394906
v -0.0032900644 0.00357396272 -0.0016394906
v -0.00383344735 0.00298369187 -0.0016394906
v -0.0042722635 0.00231203344 -0.0016394906
v -0.00459454395 0.00157730887 -0.0016394906
v -0.00479149679 0.000799559348 -0.0016394906
v -0.00467558438 0 -0.00182165613
v -0.00460455194 -0.000811906764 -0.00182165613
v -0.00439361203 -0.00159914396 -0.00182165613
v -0.00404917495 -0.00233779219 -0.00182165613
v -0.00358170527 -0.00300540752 -0.00182165613
v -0.00300540752 -0.00358170527 -0.00182165613
v -0.00233779219 -0.00404917495 -0.00182165613
v -0.00159914396 -0.00439361203 -0.00182165613
v -0.000811906764 -0.00460455194 -0.00182165613
v -2.3626735e-18 -0.00467558438 -0.00182165613
v 0.00467558438 -5.72593962e-19 -0.00182165613
v 0.00460455194 -0.000811906764 -0.00182165613
v 0.00439361203 -0.00159914396 -0.00182165613
v 0.00404917495 -0.00233779219 -0.00182165613
v 0.00358170527 -0.00300540752 -0.00182165613
v 0.00300540752 -0.00358170527 -0.00182165613
v 0.00233779219 -0.00404917495 -0.00182165613
v 0.00159914396 -0.00439361203 -0.00182165613
v 0.000811906764 -0.00460455194 -0.00182165613
v -0.00333234249 -0.000978464028 0.000809624966
v -0.003159174 -0.00144274649 0.000809624966
v -0.00292169396 -0.00187765877 0.000809624966
v -0.00262473663 -0.00227434724 0.000809624966
v -0.00227434724 -0.00262473663 0.000809624966
v -0.00187765877 -0.00292169396 0.000809624966
v -0.00144274649 -0.003159174 0.000809624966
v -0.000978464028 -0.00333234249 0.000809624966
v -0.000494262902 -0.00343767391 0.000809624966
v 0.000978464028 -0.00333234249 0.000809624966
v 0.000494262902 -0.00343767391 0.000809624966
v 0.00144274649 -0.003159174 0.000809624966
v 0.00187765877 -0.00292169396 0.000809624966
v 0.00227434724 -0.00262473663 0.000809624966
v 0.00262473663 -0.00227434724 0.000809624966
v 0.00292169396 -0.00187765877 0.000809624966
v 0.003159174 -0.00144274649 0.000809624966
v 0.00333234249 -0.000978464028 0.000809624966
v 0.00347302458 0 0.000809624966
v 0.00343767391 -0.000494262902 0.000809624966
v -0.00347302458 -1.11700981e-18 0.000809624966
v -0.00343767391 -0.000494262902 0.000809624966
v -6.37984244e-19 -0.00347302458 0.000809624966
v 0.00333234249 0.000978464028 0.000809624966
v 0.003159174 0.00144274649 0.000809624966
v 0.00292169396 0.00187765877 0.000809624966
v 0.00262473663 0.00227434724 0.000809624966
v 0.00227434724 0.00262473663 0.000809624966
v 0.00187765877 0.00292169396 0.000809624966
v 0.00144274649 0.003159174 0.000809624966
v 0.000978464028 0.00333234249 0.000809624966
v 0.000494262902 0.00343767391 0.000809624966
v -0.000978464028 0.00333234249 0.000809624966
v -0.000494262902 0.00343767391 0.000809624966
v -0.00144274649 0.003159174 0.000809624966
v -0.00187765877 0.00292169396 0.000809624966
v -0.00227434724 0.00262473663 0.000809624966
v -0.00262473663 0.00227434724 0.000809624966
v -0.00292169396 0.00187765877 0.000809624966
v -0.003159174 0.00144274649 0.000809624966
v -0.00333234249 0.000978464028 0.000809624966
v -0.00343767391 0.000494262902 0.000809624966
v 0.00343767391 0.000494262902 0.000809624966
v -5.58504905e-19 0.00347302458 0.000809624966
v 0.00460455194 0.000811906764 -0.00182165613
v 0.00439361203 0.00159914396 -0.00182165613
v 0.00404917495 0.00233779219 -0.00182165613
v 0.00358170527 0.00300540752 -0.00182165613
v 0.00300540752 0.00358170527 -0.00182165613
v 0.00233779219 0.00404917495 -0.00182165613
v 0.00159914396 0.00439361203 -0.00182165613
v 0.000811906764 0.00460455194 -0.00182165613
v 8.58890892e-19 0.00467558438 -0.00182165613
v -0.00460455194 0.000811906764 -0.00182165613
v -0.00439361203 0.00159914396 -0.00182165613
v -0.00404917495 0.00233779219 -0.00182165613
v -0.00358170527 0.00300540752 -0.00182165613
v -0.00300540752 0.00358170527 -0.00182165613
v -0.00233779219 0.00404917495 -0.00182165613
v -0.00159914396 0.00439361203 -0.00182165613
v -0.000811906764 0.00460455194 -0.00182165613
v -0.00347302458 1.82390236e-12 -0.00182165613
v -0.0032086561 -0.00132906891 -0.00182165613
v -0.00288771419 -0.00192950899 -0.00182165613
v -0.00340629113 0.000677553413 -0.00182165613
v -0.00245579891 -0.00245579891 -0.00182165613
v -0.0032086561 0.00132906891 -0.00182165613
v -0.00340629113 -0.000677553413 -0.00182165613
v -0.00288771419 0.00192950899 -0.00182165613
v -0.00245579891 0.00245579891 -0.00182165613
v -0.00192950899 -0.00288771419 -0.00182165613
v -0.00192950899 0.00288771419 -0.00182165613
v -0.00132906891 -0.0032086561 -0.00182165613
v -0.00132906891 0.0032086561 -0.00182165613
v -0.000677553413 -0.00340629113 -0.00182165613
v -0.000677553413 0.00340629113 -0.00182165613
v -6.37984244e-19 -0.00347302458 -0.00182165613
v 2.12661415e-19 0.00347302458 -0.00182165613
v 0.000677553413 -0.00340629113 -0.00182165613
v 0.000677553413 0.00340629113 -0.00182165613
v 0.00132906891 0.0032086561 -0.00182165613
v 0.00132906891 -0.0032086561 -0.00182165613
v 0.00192950899 0.00288771419 -0.00182165613
v 0.00192950899 -0.00288771419 -0.00182165613
v 0.00245579891 0.00245579891 -0.00182165613
v 0.00245579891 -0.00245579891 -0.00182165613
v 0.00288771419 0.00192950899 -0.00182165613
v 0.0032086561 0.00132906891 -0.00182165613
v 0.00288771419 -0.00192950899 -0.00182165613
v 0.0032086561 -0.00132906891 -0.00182165613
v 0.00340629113 0.000677553413 -0.00182165613
v 0.00347302458 1.82390171e-12 -0.00182165613
v 0.00340629113 -0.000677553413 -0.00182165613
v 0.00363389892 -0.000478088448 0.000718304771
v -0.00366536807 -1.17887237e-18 0.000718205876
v -0.00363389892 -0.000478088448 0.000718304771
v -0.00354039972 -0.000948345521 0.000718304771
v -0.00338631589 -0.00140237412 0.000718304771
v -0.00317428447 -0.00183240476 0.000718304771
v -0.00259182113 -0.0025915734 0.000718304771
v -0.00223135622 -0.00290772086 0.000718304771
v -0.00183270779 -0.00317410985 0.000718304771
v -0.00140269729 -0.00338618224 0.000718304771
v -0.000948683359 -0.00354030938 0.000718304771
v -0.000478435279 -0.00363385328 0.000718304771
v -6.73288829e-19 -0.00366521347 0.000718304771
v 0.000478435279 -0.00363385328 0.000718304771
v 0.000948683359 -0.00354030938 0.000718304771
v 0.00140269729 -0.00338618224 0.000718304771
v 0.00183270779 -0.00317410985 0.000718304771
v 0.00223135622 -0.00290772086 0.000718304771
v 0.00290793367 -0.00223107869 0.000718304771
v 0.00317428447 -0.00183240476 0.000718304771
v 0.00338631589 -0.00140237412 0.000718304771
v 0.00354039972 -0.000948345521 0.000718304771
v -0.00405860133 -1.30534591e-18 -4.99718316e-19
v -0.00403200043 -1.29679028e-18 0.000211296079
v -0.0040238793 -0.000529753801 -4.99718316e-19
v -0.00399759784 -0.000525937881 0.000211118197
v -0.00395385828 -1.27165784e-18 0.000409405708
v -0.00392010715 -0.000515742926 0.000409352011
v -0.00382905104 -1.23151684e-18 0.000581965316
v -0.0037962955 -0.000499453919 0.00058201002
v -0.00392030785 -0.00105044327 -4.99718316e-19
v -0.00389474048 -0.00104326056 0.000211118197
v -0.00381924352 -0.00102303771 0.000409352011
v -0.00369861769 -0.000990726403 0.00058201002
v -0.00374965882 -0.00155315956 -4.99718316e-19
v -0.00372523558 -0.00154273061 0.000211118197
v -0.00365302409 -0.00151282584 0.000409352011
v -0.00353764812 -0.00146504526 0.00058201002
v -0.00351485191 -0.00202930067 -4.99718316e-19
v -0.00349198282 -0.00201580091 0.000211118197
v -0.00342429313 -0.00197672588 0.000409352011
v -0.0033161412 -0.00191429374 0.00058201002
v -0.00321990508 -0.00247072009 -4.99718316e-19
v -0.00319897383 -0.00245437585 0.000211118197
v -0.00313696382 -0.0024067997 0.000409352011
v -0.00303788716 -0.00233078422 0.00058201002
v -0.00290793367 -0.00223107869 0.000718304771
v -0.00286986469 -0.00286986469 -4.99718316e-19
v -0.00285122334 -0.00285095116 0.000211118197
v -0.00279595423 -0.00279568741 0.000409352011
v -0.00270764763 -0.00270738942 0.00058201002
v -0.00247072009 -0.00321990508 -4.99718316e-19
v -0.00245468132 -0.00319873984 0.000211118197
v -0.00240709935 -0.00313673448 0.000409352011
v -0.00233107386 -0.00303766481 0.00058201002
v -0.00202930067 -0.00351485191 -4.99718316e-19
v -0.00201613409 -0.00349179027 0.000211118197
v -0.00197705277 -0.00342410454 0.000409352011
v -0.00191461027 -0.00331595866 0.00058201002
v -0.00155315956 -0.00374965882 -4.99718316e-19
v -0.00154308614 -0.00372508797 0.000211118197
v -0.0015131745 -0.00365287974 0.000409352011
v -0.00146538287 -0.00353750843 0.00058201002
v -0.00105044327 -0.00392030785 -4.99718316e-19
v -0.00104363228 -0.00389464083 0.000211118197
v -0.00102340232 -0.00381914596 0.000409352011
v -0.000991079374 -0.00369852339 0.00058201002
v -0.000529753801 -0.0040238793 -4.99718316e-19
v -0.000526319433 -0.00399754755 0.000211118197
v -0.000516117085 -0.00392005779 0.000409352011
v -0.000499816204 -0.003796248 0.00058201002
v -7.45552982e-19 -0.00405860133 -4.99718316e-19
v -7.40674891e-19 -0.00403204607 0.000211118197
v -7.26317362e-19 -0.00395388762 0.000409352011
v -7.03377628e-19 -0.0038290096 0.00058201002
v 0.000529753801 -0.0040238793 -4.99718316e-19
v 0.000526319433 -0.00399754755 0.000211118197
v 0.000516117085 -0.00392005779 0.000409352011
v 0.000499816204 -0.003796248 0.00058201002
v 0.00105044327 -0.00392030785 -4.99718316e-19
v 0.00104363228 -0.00389464083 0.000211118197
v 0.00102340232 -0.00381914596 0.000409352011
v 0.000991079374 -0.00369852339 0.00058201002
v 0.00155315956 -0.00374965882 -4.99718316e-19
v 0.00154308614 -0.00372508797 0.000211118197
v 0.0015131745 -0.00365287974 0.000409352011
v 0.00146538287 -0.00353750843 0.00058201002
v 0.00202930067 -0.00351485191 -4.99718316e-19
v 0.00201613409 -0.00349179027 0.000211118197
v 0.00197705277 -0.00342410454 0.000409352011
v 0.00191461027 -0.00331595866 0.00058201002
v 0.00247072009 -0.00321990508 -4.99718316e-19
v 0.00245468132 -0.00319873984 0.000211118197
v 0.00240709935 -0.00313673448 0.000409352011
v 0.00233107386 -0.00303766481 0.00058201002
v 0.00286986469 -0.00286986469 -4.99718316e-19
v 0.00285122334 -0.00285095116 0.000211118197
v 0.00279595423 -0.00279568741 0.000409352011
v 0.00270764763 -0.00270738942 0.00058201002
v 0.00259182113 -0.0025915734 0.000718304771
v 0.00321990508 -0.00247072009 -4.99718316e-19
v 0.00319897383 -0.00245437585 0.000211118197
v 0.00313696382 -0.0024067997 0.000409352011
v 0.00303788716 -0.00233078422 0.00058201002
v 0.00351485191 -0.00202930067 -4.99718316e-19
v 0.00349198282 -0.00201580091 0.000211118197
v 0.00342429313 -0.00197672588 0.000409352011
v 0.0033161412 -0.00191429374 0.00058201002
v 0.00374965882 -0.00155315956 -4.99718316e-19
v 0.00372523558 -0.00154273061 0.000211118197
v 0.00365302409 -0.00151282584 0.000409352011
v 0.00353764812 -0.00146504526 0.00058201002
v 0.00392030785 -0.00105044327 -4.99718316e-19
v 0.00389474048 -0.00104326056 0.000211118197
v 0.00381924352 -0.00102303771 0.000409352011
v 0.00369861769 -0.000990726403 0.00058201002
v 0.0040238793 -0.000529753801 -4.99718316e-19
v 0.00399759784 -0.000525937881 0.000211118197
v 0.00392010715 -0.000515742926 0.000409352011
v 0.0037962955 -0.000499453919 0.00058201002
v 0.00405860133 0 -4.99718316e-19
v 0.00403200043 0 0.000211296079
v 0.00395385828 0 0.000409405708
v 0.00382905104 0 0.000581965316
v 0.00366536807 0 0.000718205876
v -0.00363389892 0.000478088448 0.000718304771
v 0.00363389892 0.000478088448 0.000718304771
v 0.00354039972 0.000948345521 0.000718304771
v 0.00338631589 0.00140237412 0.000718304771
v 0.00317428447 0.00183240476 0.000718304771
v 0.00259182113 0.0025915734 0.000718304771
v 0.00223135622 0.00290772086 0.000718304771
v 0.00183270779 0.00317410985 0.000718304771
v 0.00140269729 0.00338618224 0.000718304771
v 0.000948683359 0.00354030938 0.000718304771
v 0.000478435279 0.00363385328 0.000718304771
v -1.40325215e-18 0.00366521347 0.000718304771
v -0.000478435279 0.00363385328 0.000718304771
v -0.000948683359 0.00354030938 0.000718304771
v -0.00140269729 0.00338618224 0.000718304771
v -0.00183270779 0.00317410985 0.000718304771
v -0.00223135622 0.00290772086 0.000718304771
v -0.00290793367 0.00223107869 0.000718304771
v -0.00317428447 0.00183240476 0.000718304771
v -0.00338631589 0.00140237412 0.000718304771
v -0.00354039972 0.000948345521 0.000718304771
v 0.0040238793 0.000529753801 -4.99718316e-19
v 0.00399759784 0.000525937881 0.000211118197
v 0.00392010715 0.000515742926 0.000409352011
v 0.0037962955 0.000499453919 0.00058201002
v 0.00392030785 0.00105044327 -4.99718316e-19
v 0.00389474048 0.00104326056 0.000211118197
v 0.00381924352 0.00102303771 0.000409352011
v 0.00369861769 0.000990726403 0.00058201002
v 0.00374965882 0.00155315956 -4.99718316e-19
v 0.00372523558 0.00154273061 0.000211118197
v 0.00365302409 0.00151282584 0.000409352011
v 0.00353764812 0.00146504526 0.00058201002
v 0.00351485191 0.00202930067 -4.99718316e-19
v 0.00349198282 0.00201580091 0.000211118197
v 0.00342429313 0.00197672588 0.000409352011
v 0.0033161412 0.00191429374 0.00058201002
v 0.00321990508 0.00247072009 -4.99718316e-19
v 0.00319897383 0.00245437585 0.000211118197
v 0.00313696382 0.0024067997 0.000409352011
v 0.00303788716 0.00233078422 0.00058201002
v 0.00290793367 0.00223107869 0.000718304771
v 0.00286986469 0.00286986469 -4.99718316e-19
v 0.00285122334 0.00285095116 0.000211118197
v 0.00279595423 0.00279568741 0.000409352011
v 0.00270764763 0.00270738942 0.00058201002
v 0.00247072009 0.00321990508 -4.99718316e-19
v 0.00245468132 0.00319873984 0.000211118197
v 0.00240709935 0.00313673448 0.000409352011
v 0.00233107386 0.00303766481 0.00058201002
v 0.00202930067 0.00351485191 -4.99718316e-19
v 0.00201613409 0.00349179027 0.000211118197
v 0.00197705277 0.00342410454 0.000409352011
v 0.00191461027 0.00331595866 0.00058201002
v 0.00155315956 0.00374965882 -4.99718316e-19
v 0.00154308614 0.00372508797 0.000211118197
v 0.0015131745 0.00365287974 0.000409352011
v 0.00146538287 0.00353750843 0.00058201002
v 0.00105044327 0.00392030785 -4.99718316e-19
v 0.00104363228 0.00389464083 0.000211118197
v 0.00102340232 0.00381914596 0.000409352011
v 0.000991079374 0.00369852339 0.00058201002
v 0.000529753801 0.0040238793 -4.99718316e-19
v 0.000526319433 0.00399754755 0.000211118197
v 0.000516117085 0.00392005779 0.000409352011
v 0.000499816204 0.003796248 0.00058201002
v -6.52672955e-19 0.00405860133 -4.99718316e-19
v -1.54369645e-18 0.00403204607 0.000211118197
v -1.51377309e-18 0.00395388762 0.000409352011
v -1.46596257e-18 0.0038290096 0.00058201002
v -0.000529753801 0.0040238793 -4.99718316e-19
v -0.000526319433 0.00399754755 0.000211118197
v -0.000516117085 0.00392005779 0.000409352011
v -0.000499816204 0.003796248 0.00058201002
v -0.00105044327 0.00392030785 -4.99718316e-19
v -0.00104363228 0.00389464083 0.000211118197
v -0.00102340232 0.00381914596 0.000409352011
v -0.000991079374 0.00369852339 0.00058201002
v -0.00155315956 0.00374965882 -4.99718316e-19
v -0.00154308614 0.00372508797 0.000211118197
v -0.0015131745 0.00365287974 0.000409352011
v -0.00146538287 0.00353750843 0.00058201002
v -0.00202930067 0.00351485191 -4.99718316e-19
v -0.00201613409 0.00349179027 0.000211118197
v -0.00197705277 0.00342410454 0.000409352011
v -0.00191461027 0.00331595866 0.00058201002
v -0.00247072009 0.00321990508 -4.99718316e-19
v -0.00245468132 0.00319873984 0.000211118197
v -0.00240709935 0.00313673448 0.000409352011
v -0.00233107386 0.00303766481 0.00058201002
v -0.00286986469 0.00286986469 -4.99718316e-19
v -0.00285122334 0.00285095116 0.000211118197
v -0.00279595423 0.00279568741 0.000409352011
v -0.00270764763 0.00270738942 0.00058201002
v -0.00259182113 0.0025915734 0.000718304771
v -0.00321990508 0.00247072009 -4.99718316e-19
v -0.00319897383 0.00245437585 0.000211118197
v -0.00313696382 0.0024067997 0.000409352011
v -0.00303788716 0.00233078422 0.00058201002
v -0.00351485191 0.00202930067 -4.99718316e-19
v -0.00349198282 0.00201580091 0.000211118197
v -0.00342429313 0.00197672588 0.000409352011
v -0.0033161412 0.00191429374 0.00058201002
v -0.00374965882 0.00155315956 -4.99718316e-19
v -0.00372523558 0.00154273061 0.000211118197
v -0.00365302409 0.00151282584 0.000409352011
v -0.00353764812 0.00146504526 0.00058201002
v -0.00392030785 0.00105044327 -4.99718316e-19
v -0.00389474048 0.00104326056 0.000211118197
v -0.00381924352 0.00102303771 0.000409352011
v -0.00369861769 0.000990726403 0.00058201002
v -0.0040238793 0.000529753801 -4.99718316e-19
v -0.00399759784 0.000525937881 0.000211118197
v -0.00392010715 0.000515742926 0.000409352011
v -0.0037962955 0.000499453919 0.00058201002
v 0.00333234249 0.000978464028 -0.000809624966
v 0.003159174 0.00144274649 -0.000809624966
v 0.00292169396 0.00187765877 -0.000809624966
v 0.00262473663 0.00227434724 -0.000809624966
v 0.00227434724 0.00262473663 -0.000809624966
v 0.00187765877 0.00292169396 -0.000809624966
v 0.00144274649 0.003159174 -0.000809624966
v 0.000978464028 0.00333234249 -0.000809624966
v 0.000494262902 0.00343767391 -0.000809624966
v -0.000494262902 0.00343767391 -0.000809624966
v -0.000978464028 0.00333234249 -0.000809624966
v -0.00144274649 0.003159174 -0.000809624966
v -0.00187765877 0.00292169396 -0.000809624966
v -0.00227434724 0.00262473663 -0.000809624966
v -0.00262473663 0.00227434724 -0.000809624966
v -0.00292169396 0.00187765877 -0.000809624966
v -0.003159174 0.00144274649 -0.000809624966
v -0.00333234249 0.000978464028 -0.000809624966
v 0.00347302458 4.25322829e-19 -0.000809624966
v 0.00343767391 0.000494262902 -0.000809624966
v -0.00347302458 0 -0.000809624966
v -0.00343767391 0.000494262902 -0.000809624966
v -2.12661415e-19 0.00347302458 -0.000809624966
v -0.00333234249 -0.000978464028 -0.000809624966
v -0.003159174 -0.00144274649 -0.000809624966
v -0.00292169396 -0.00187765877 -0.000809624966
v -0.00262473663 -0.00227434724 -0.000809624966
v -0.00227434724 -0.00262473663 -0.000809624966
v -0.00187765877 -0.00292169396 -0.000809624966
v -0.00144274649 -0.003159174 -0.000809624966
v -0.000978464028 -0.00333234249 -0.000809624966
v -0.000494262902 -0.00343767391 -0.000809624966
v 0.000494262902 -0.00343767391 -0.000809624966
v 0.000978464028 -0.00333234249 -0.000809624966
v 0.00144274649 -0.003159174 -0.000809624966
v 0.00187765877 -0.00292169396 -0.000809624966
v 0.00227434724 -0.00262473663 -0.000809624966
v 0.00262473663 -0.00227434724 -0.000809624966
v 0.00292169396 -0.00187765877 -0.000809624966
v 0.003159174 -0.00144274649 -0.000809624966
v 0.00333234249 -0.000978464028 -0.000809624966
v -0.00343767391 -0.000494262902 -0.000809624966
v 0.00343767391 -0.000494262902 -0.000809624966
v -2.44668093e-18 -0.00347302458 -0.000809624966
v -0.00363389892 -0.000478088448 -0.000718304771
v -0.00354039972 -0.000948345521 -0.000718304771
v -0.00338631589 -0.00140237412 -0.000718304771
v -0.00317428447 -0.00183240476 -0.000718304771
v -0.00290793367 -0.00223107869 -0.000718304771
v -0.00223135622 -0.00290772086 -0.000718304771
v -0.00183270779 -0.00317410985 -0.000718304771
v -0.00140269729 -0.00338618224 -0.000718304771
v -0.000948683359 -0.00354030938 -0.000718304771
v -0.000478435279 -0.00363385328 -0.000718304771
v -6.73288829e-19 -0.00366521347 -0.000718304771
v 0.000478435279 -0.00363385328 -0.000718304771
v 0.000948683359 -0.00354030938 -0.000718304771
v 0.00140269729 -0.00338618224 -0.000718304771
v 0.00183270779 -0.00317410985 -0.000718304771
v 0.00223135622 -0.00290772086 -0.000718304771
v 0.00259182113 -0.0025915734 -0.000718304771
v 0.00317428447 -0.00183240476 -0.000718304771
v 0.00338631589 -0.00140237412 -0.000718304771
v 0.00354039972 -0.000948345521 -0.000718304771
v 0.00363389892 -0.000478088448 -0.000718304771
v 0.00366536807 0 -0.000718205876
v -0.00399759784 -0.000525937881 -0.000211118197
v -0.00403200043 -1.29679028e-18 -0.000211296079
v -0.00392010715 -0.000515742926 -0.000409352011
v -0.00395385828 -1.27165784e-18 -0.000409405708
v -0.0037962955 -0.000499453919 -0.00058201002
v -0.00382905104 -1.23151684e-18 -0.000581965316
v -0.00366536807 -1.17887237e-18 -0.000718205876
v -0.00389474048 -0.00104326056 -0.000211118197
v -0.00381924352 -0.00102303771 -0.000409352011
v -0.00369861769 -0.000990726403 -0.00058201002
v -0.00372523558 -0.00154273061 -0.000211118197
v -0.00365302409 -0.00151282584 -0.000409352011
v -0.00353764812 -0.00146504526 -0.00058201002
v -0.00349198282 -0.00201580091 -0.000211118197
v -0.00342429313 -0.00197672588 -0.000409352011
v -0.0033161412 -0.00191429374 -0.00058201002
v -0.00319897383 -0.00245437585 -0.000211118197
v -0.00313696382 -0.0024067997 -0.000409352011
v -0.00303788716 -0.00233078422 -0.00058201002
v -0.00285122334 -0.00285095116 -0.000211118197
v -0.00279595423 -0.00279568741 -0.000409352011
v -0.00270764763 -0.00270738942 -0.00058201002
v -0.00259182113 -0.0025915734 -0.000718304771
v -0.00245468132 -0.00319873984 -0.000211118197
v -0.00240709935 -0.00313673448 -0.000409352011
v -0.00233107386 -0.00303766481 -0.00058201002
v -0.00201613409 -0.00349179027 -0.000211118197
v -0.00197705277 -0.00342410454 -0.000409352011
v -0.00191461027 -0.00331595866 -0.00058201002
v -0.00154308614 -0.00372508797 -0.000211118197
v -0.0015131745 -0.00365287974 -0.000409352011
v -0.00146538287 -0.00353750843 -0.00058201002
v -0.00104363228 -0.00389464083 -0.000211118197
v -0.00102340232 -0.00381914596 -0.000409352011
v -0.000991079374 -0.00369852339 -0.00058201002
v -0.000526319433 -0.00399754755 -0.000211118197
v -0.000516117085 -0.00392005779 -0.000409352011
v -0.000499816204 -0.003796248 -0.00058201002
v -7.40674891e-19 -0.00403204607 -0.000211118197
v -7.26317362e-19 -0.00395388762 -0.000409352011
v -7.03377628e-19 -0.0038290096 -0.00058201002
v 0.000526319433 -0.00399754755 -0.000211118197
v 0.000516117085 -0.00392005779 -0.000409352011
v 0.000499816204 -0.003796248 -0.00058201002
v 0.00104363228 -0.00389464083 -0.000211118197
v 0.00102340232 -0.00381914596 -0.000409352011
v 0.000991079374 -0.00369852339 -0.00058201002
v 0.00154308614 -0.00372508797 -0.000211118197
v 0.0015131745 -0.00365287974 -0.000409352011
v 0.00146538287 -0.00353750843 -0.00058201002
v 0.00201613409 -0.00349179027 -0.000211118197
v 0.00197705277 -0.00342410454 -0.000409352011
v 0.00191461027 -0.00331595866 -0.00058201002
v 0.00245468132 -0.00319873984 -0.000211118197
v 0.00240709935 -0.00313673448 -0.000409352011
v 0.00233107386 -0.00303766481 -0.00058201002
v 0.00285122334 -0.00285095116 -0.000211118197
v 0.00279595423 -0.00279568741 -0.000409352011
v 0.00270764763 -0.00270738942 -0.00058201002
v 0.00319897383 -0.00245437585 -0.000211118197
v 0.00313696382 -0.0024067997 -0.000409352011
v 0.00303788716 -0.00233078422 -0.00058201002
v 0.00290793367 -0.00223107869 -0.000718304771
v 0.00349198282 -0.00201580091 -0.000211118197
v 0.00342429313 -0.00197672588 -0.000409352011
v 0.0033161412 -0.00191429374 -0.00058201002
v 0.00372523558 -0.00154273061 -0.000211118197
v 0.00365302409 -0.00151282584 -0.000409352011
v 0.00353764812 -0.00146504526 -0.00058201002
v 0.00389474048 -0.00104326056 -0.000211118197
v 0.00381924352 -0.00102303771 -0.000409352011
v 0.00369861769 -0.000990726403 -0.00058201002
v 0.00399759784 -0.000525937881 -0.000211118197
v 0.00392010715 -0.000515742926 -0.000409352011
v 0.0037962955 -0.000499453919 -0.00058201002
v 0.00403200043 0 -0.000211296079
v 0.00395385828 0 -0.000409405708
v 0.00382905104 0 -0.000581965316
v 0.00363389892 0.000478088448 -0.000718304771
v 0.00354039972 0.000948345521 -0.000718304771
v 0.00338631589 0.00140237412 -0.000718304771
v 0.00317428447 0.00183240476 -0.000718304771
v 0.00290793367 0.00223107869 -0.000718304771
v 0.00223135622 0.00290772086 -0.000718304771
v 0.00183270779 0.00317410985 -0.000718304771
v 0.00140269729 0.00338618224 -0.000718304771
v 0.000948683359 0.00354030938 -0.000718304771
v 0.000478435279 0.00363385328 -0.000718304771
v -1.40325215e-18 0.00366521347 -0.000718304771
v -0.000478435279 0.00363385328 -0.000718304771
v -0.000948683359 0.00354030938 -0.000718304771
v -0.00140269729 0.00338618224 -0.000718304771
v -0.00183270779 0.00317410985 -0.000718304771
v -0.00223135622 0.00290772086 -0.000718304771
v -0.00259182113 0.0025915734 -0.000718304771
v -0.00317428447 0.00183240476 -0.000718304771
v -0.00338631589 0.00140237412 -0.000718304771
v -0.00354039972 0.000948345521 -0.000718304771
v -0.00363389892 0.000478088448 -0.000718304771
v 0.00399759784 0.000525937881 -0.000211118197
v 0.00392010715 0.000515742926 -0.000409352011
v 0.0037962955 0.000499453919 -0.00058201002
v 0.00389474048 0.00104326056 -0.000211118197
v 0.00381924352 0.00102303771 -0.000409352011
v 0.00369861769 0.000990726403 -0.00058201002
v 0.00372523558 0.00154273061 -0.000211118197
v 0.00365302409 0.00151282584 -0.000409352011
v 0.00353764812 0.00146504526 -0.00058201002
v 0.00349198282 0.00201580091 -0.000211118197
v 0.00342429313 0.00197672588 -0.000409352011
v 0.0033161412 0.00191429374 -0.00058201002
v 0.00319897383 0.00245437585 -0.000211118197
v 0.00313696382 0.0024067997 -0.000409352011
v 0.00303788716 0.00233078422 -0.00058201002
v 0.00285122334 0.00285095116 -0.000211118197
v 0.00279595423 0.00279568741 -0.000409352011
v 0.00270764763 0.00270738942 -0.00058201002
v 0.00259182113 0.0025915734 -0.000718304771
v 0.00245468132 0.00319873984 -0.000211118197
v 0.00240709935 0.00313673448 -0.000409352011
v 0.00233107386 0.00303766481 -0.00058201002
v 0.00201613409 0.00349179027 -0.000211118197
v 0.00197705277 0.00342410454 -0.000409352011
v 0.00191461027 0.00331595866 -0.00058201002
v 0.00154308614 0.00372508797 -0.000211118197
v 0.0015131745 0.00365287974 -0.000409352011
v 0.00146538287 0.00353750843 -0.00058201002
v 0.00104363228 0.00389464083 -0.000211118197
v 0.00102340232 0.00381914596 -0.000409352011
v 0.000991079374 0.00369852339 -0.00058201002
v 0.000526319433 0.00399754755 -0.000211118197
v 0.000516117085 0.00392005779 -0.000409352011
v 0.000499816204 0.003796248 -0.00058201002
v -1.54369645e-18 0.00403204607 -0.000211118197
v -1.51377309e-18 0.00395388762 -0.000409352011
v -1.46596257e-18 0.0038290096 -0.00058201002
v -0.000526319433 0.00399754755 -0.000211118197
v -0.000516117085 0.00392005779 -0.000409352011
v -0.000499816204 0.003796248 -0.00058201002
v -0.00104363228 0.00389464083 -0.000211118197
v -0.00102340232 0.00381914596 -0.000409352011
v -0.000991079374 0.00369852339 -0.00058201002
v -0.00154308614 0.00372508797 -0.000211118197
v -0.0015131745 0.00365287974 -0.000409352011
v -0.00146538287 0.00353750843 -0.00058201002
v -0.00201613409 0.00349179027 -0.000211118197
v -0.00197705277 0.00342410454 -0.000409352011
v -0.00191461027 0.00331595866 -0.00058201002
v -0.00245468132 0.00319873984 -0.000211118197
v -0.00240709935 0.00313673448 -0.000409352011
v -0.00233107386 0.00303766481 -0.00058201002
v -0.00285122334 0.00285095116 -0.000211118197
v -0.00279595423 0.00279568741 -0.000409352011
v -0.00270764763 0.00270738942 -0.00058201002
v -0.00319897383 0.00245437585 -0.000211118197
v -0.00313696382 0.0024067997 -0.000409352011
v -0.00303788716 0.00233078422 -0.00058201002
v -0.00290793367 0.00223107869 -0.000718304771
v -0.00349198282 0.00201580091 -0.000211118197
v -0.00342429313 0.00197672588 -0.000409352011
v -0.0033161412 0.00191429374 -0.00058201002
v -0.00372523558 0.00154273061 -0.000211118197
v -0.00365302409 0.00151282584 -0.000409352011
v -0.00353764812 0.00146504526 -0.00058201002
v -0.00389474048 0.00104326056 -0.000211118197
v -0.00381924352 0.00102303771 -0.000409352011
v -0.00369861769 0.000990726403 -0.00058201002
v -0.00399759784 0.000525937881 -0.000211118197
v -0.00392010715 0.000515742926 -0.000409352011
v -0.0037962955 0.000499453919 -0.00058201002
g outer
f 1 2 3
f 1 4 2
f 4 5 2
f 4 6 5
f 6 7 5
f 6 8 7
f 8 9 7
f 8 10 9
f 10 11 9
f 10 12 11
f 12 13 11
f 12 14 13
f 14 15 13
f 14 16 15
f 16 17 15
f 16 18 17
f 18 19 17
f 19 18 20
f 21 22 23
f 23 22 24
f 23 24 25
f 25 24 26
f 25 26 27
f 27 26 28
f 27 28 29
f 29 28 30
f 29 30 31
f 31 30 32
f 31 32 33
f 33 32 34
f 33 34 35
f 35 34 36
f 35 36 37
f 37 36 38
f 37 38 20
f 20 38 39
f 20 39 19
f 21 40 22
f 21 41 40
f 41 42 40
f 41 43 42
f 43 44 42
f 43 45 44
f 45 46 44
f 45 47 46
f 47 48 46
f 47 49 48
f 49 50 48
f 49 51 50
f 51 52 50
f 51 53 52
f 53 54 52
f 53 55 54
f 55 56 54
f 56 55 57
f 1 3 58
f 58 3 59
f 58 59 60
f 60 59 61
f 60 61 62
f 62 61 63
f 62 63 64
f 64 63 65
f 64 65 66
f 66 65 67
f 66 67 68
f 68 67 69
f 68 69 70
f 70 69 71
f 70 71 72
f 72 71 73
f 72 73 57
f 57 73 74
f 57 74 56
f 22 75 24
f 24 75 76
f 24 76 26
f 26 76 77
f 26 77 28
f 28 77 78
f 28 78 30
f 30 78 79
f 30 79 32
f 32 79 80
f 32 80 34
f 34 80 81
f 34 81 36
f 36 81 82
f 36 82 38
f 38 82 83
f 38 83 39
f 39 83 84
f 39 84 19
f 19 84 85
f 19 85 17
f 17 85 86
f 17 86 15
f 15 86 87
f 15 87 13
f 13 87 88
f 13 88 11
f 11 88 89
f 11 89 9
f 9 89 90
f 9 90 7
f 7 90 91
f 7 91 5
f 5 91 92
f 5 92 2
f 2 92 93
f 2 93 3
f 3 93 94
f 95 6 4
f 1 58 96
f 97 8 6
f 98 96 58
f 99 10 8
f 100 60 62
f 101 12 10
f 100 98 60
f 4 96 95
f 102 100 62
f 6 95 97
f 103 102 64
f 62 64 102
f 104 14 12
f 8 97 99
f 64 66 103
f 10 99 101
f 66 68 105
f 105 103 66
f 106 16 14
f 12 101 104
f 68 70 107
f 107 105 68
f 108 18 16
f 14 104 106
f 70 72 109
f 109 107 70
f 18 110 20
f 16 106 108
f 72 57 111
f 111 109 72
f 110 18 108
f 55 112 111
f 110 113 37
f 37 20 110
f 53 114 112
f 111 57 55
f 113 115 35
f 35 37 113
f 51 116 114
f 112 55 53
f 115 117 33
f 33 35 115
f 49 118 116
f 114 53 51
f 29 31 119
f 31 33 117
f 47 120 118
f 117 119 31
f 45 121 120
f 116 51 49
f 122 123 27
f 119 122 29
f 43 124 121
f 27 29 122
f 41 125 124
f 25 27 123
f 118 49 47
f 123 126 25
f 120 47 45
f 126 125 23
f 121 45 43
f 21 23 125
f 124 43 41
f 125 41 21
f 58 60 98
f 23 25 126
f 96 4 1
f 3 94 59
f 59 94 127
f 59 127 61
f 61 127 128
f 61 128 63
f 63 128 129
f 63 129 65
f 65 129 130
f 65 130 67
f 67 130 131
f 67 131 69
f 69 131 132
f 69 132 71
f 71 132 133
f 71 133 73
f 73 133 134
f 73 134 74
f 74 134 135
f 74 135 56
f 56 135 136
f 56 136 54
f 54 136 137
f 54 137 52
f 52 137 138
f 52 138 50
f 50 138 139
f 50 139 48
f 48 139 140
f 48 140 46
f 46 140 141
f 46 141 44
f 44 141 142
f 44 142 42
f 42 142 143
f 42 143 40
f 40 143 144
f 40 144 22
f 22 144 75
f 145 76 75
f 145 146 76
f 146 77 76
f 146 147 77
f 147 78 77
f 147 148 78
f 148 79 78
f 148 149 79
f 149 80 79
f 149 150 80
f 150 81 80
f 150 151 81
f 151 82 81
f 151 152 82
f 152 83 82
f 152 153 83
f 153 84 83
f 84 153 154
f 155 94 156
f 156 94 93
f 156 93 157
f 157 93 92
f 157 92 158
f 158 92 91
f 158 91 159
f 159 91 90
f 159 90 160
f 160 90 89
f 160 89 161
f 161 89 88
f 161 88 162
f 162 88 87
f 162 87 163
f 163 87 86
f 163 86 154
f 154 86 85
f 154 85 84
f 126 123 164
f 164 123 165
f 165 123 122
f 165 122 166
f 167 166 122
f 122 119 167
f 167 119 168
f 168 119 117
f 168 117 169
f 169 117 115
f 169 115 170
f 171 170 115
f 115 113 171
f 171 113 172
f 172 113 110
f 173 174 108
f 108 106 173
f 173 106 175
f 175 106 104
f 175 104 176
f 177 176 104
f 104 101 177
f 177 101 178
f 178 101 99
f 178 99 179
f 179 99 97
f 179 97 180
f 181 180 97
f 97 95 181
f 182 183 96
f 183 95 96
f 183 181 95
f 125 126 184
f 126 185 184
f 126 164 185
f 174 186 108
f 186 110 108
f 186 172 110
f 98 100 187
f 187 100 188
f 188 100 102
f 188 102 189
f 190 189 102
f 102 103 190
f 191 190 103
f 103 105 191
f 191 105 192
f 192 105 107
f 192 107 193
f 194 193 107
f 107 109 194
f 194 109 195
f 195 109 111
f 196 197 112
f 112 114 196
f 196 114 198
f 198 114 116
f 198 116 199
f 200 199 116
f 116 118 200
f 201 200 118
f 118 120 201
f 201 120 202
f 202 120 121
f 202 121 203
f 204 203 121
f 121 124 204
f 184 205 125
f 205 124 125
f 205 204 124
f 96 98 182
f 98 206 182
f 98 187 206
f 197 207 112
f 207 111 112
f 207 195 111
f 155 127 94
f 155 208 127
f 208 128 127
f 208 209 128
f 209 129 128
f 209 210 129
f 210 130 129
f 210 211 130
f 211 131 130
f 211 212 131
f 212 132 131
f 212 213 132
f 213 133 132
f 213 214 133
f 214 134 133
f 214 215 134
f 215 135 134
f 135 215 216
f 145 75 217
f 217 75 144
f 217 144 218
f 218 144 143
f 218 143 219
f 219 143 142
f 219 142 220
f 220 142 141
f 220 141 221
f 221 141 140
f 221 140 222
f 222 140 139
f 222 139 223
f 223 139 138
f 223 138 224
f 224 138 137
f 224 137 216
f 216 137 136
f 216 136 135
f 146 145 225
f 226 148 147
f 225 145 217
f 227 149 148
f 228 225 217
f 229 150 149
f 217 218 228
f 218 219 230
f 146 225 231
f 232 230 219
f 147 231 226
f 233 232 220
f 234 151 150
f 219 220 232
f 148 226 227
f 220 221 233
f 149 227 229
f 221 222 235
f 236 152 151
f 235 233 221
f 150 229 234
f 222 223 237
f 238 153 152
f 237 235 222
f 151 234 236
f 223 224 239
f 240 154 153
f 239 237 223
f 152 236 238
f 224 216 241
f 241 239 224
f 240 242 163
f 153 238 240
f 215 243 241
f 163 154 240
f 214 244 243
f 241 216 215
f 242 245 162
f 213 246 244
f 162 163 242
f 243 215 214
f 245 247 161
f 212 248 246
f 161 162 245
f 244 214 213
f 159 160 249
f 160 161 247
f 211 250 248
f 247 249 160
f 210 251 250
f 246 213 212
f 252 253 158
f 249 252 159
f 209 254 251
f 158 159 252
f 208 255 254
f 157 253 256
f 248 212 211
f 157 158 253
f 250 211 210
f 256 156 157
f 251 210 209
f 255 155 156
f 208 155 255
f 254 209 208
f 230 228 218
f 156 256 255
f 231 147 146
f 182 257 183
f 184 185 258
f 259 185 164
f 260 164 165
f 261 165 166
f 262 166 167
f 263 167 168
f 264 168 169
f 265 169 170
f 266 170 171
f 267 171 172
f 268 172 186
f 269 186 174
f 270 174 173
f 271 173 175
f 272 175 176
f 273 176 177
f 274 177 178
f 275 178 179
f 276 179 180
f 277 180 181
f 278 181 183
f 279 280 281
f 280 282 281
f 280 283 282
f 283 284 282
f 283 285 284
f 285 286 284
f 285 258 286
f 258 259 286
f 258 185 259
f 281 282 287
f 282 288 287
f 282 284 288
f 284 289 288
f 284 286 289
f 286 290 289
f 286 259 290
f 259 260 290
f 259 164 260
f 287 288 291
f 288 292 291
f 288 289 292
f 289 293 292
f 289 290 293
f 290 294 293
f 290 260 294
f 260 261 294
f 260 165 261
f 291 292 295
f 292 296 295
f 292 293 296
f 293 297 296
f 293 294 297
f 294 298 297
f 294 261 298
f 261 262 298
f 261 166 262
f 295 296 299
f 296 300 299
f 296 297 300
f 297 301 300
f 297 298 301
f 298 302 301
f 298 262 302
f 262 303 302
f 262 167 303
f 299 300 304
f 300 305 304
f 300 301 305
f 301 306 305
f 301 302 306
f 302 307 306
f 302 303 307
f 303 263 307
f 303 167 263
f 304 305 308
f 305 309 308
f 305 306 309
f 306 310 309
f 306 307 310
f 307 311 310
f 307 263 311
f 263 264 311
f 263 168 264
f 308 309 312
f 309 313 312
f 309 310 313
f 310 314 313
f 310 311 314
f 311 315 314
f 311 264 315
f 264 265 315
f 264 169 265
f 312 313 316
f 313 317 316
f 313 314 317
f 314 318 317
f 314 315 318
f 315 319 318
f 315 265 319
f 265 266 319
f 265 170 266
f 316 317 320
f 317 321 320
f 317 318 321
f 318 322 321
f 318 319 322
f 319 323 322
f 319 266 323
f 266 267 323
f 266 171 267
f 320 321 324
f 321 325 324
f 321 322 325
f 322 326 325
f 322 323 326
f 323 327 326
f 323 267 327
f 267 268 327
f 267 172 268
f 324 325 328
f 325 329 328
f 325 326 329
f 326 330 329
f 326 327 330
f 327 331 330
f 327 268 331
f 268 269 331
f 268 186 269
f 328 329 332
f 329 333 332
f 329 330 333
f 330 334 333
f 330 331 334
f 331 335 334
f 331 269 335
f 269 270 335
f 269 174 270
f 332 333 336
f 333 337 336
f 333 334 337
f 334 338 337
f 334 335 338
f 335 339 338
f 335 270 339
f 270 271 339
f 270 173 271
f 336 337 340
f 337 341 340
f 337 338 341
f 338 342 341
f 338 339 342
f 339 343 342
f 339 271 343
f 271 272 343
f 271 175 272
f 340 341 344
f 341 345 344
f 341 342 345
f 342 346 345
f 342 343 346
f 343 347 346
f 343 272 347
f 272 273 347
f 272 176 273
f 344 345 348
f 345 349 348
f 345 346 349
f 346 350 349
f 346 347 350
f 347 351 350
f 347 273 351
f 273 274 351
f 273 177 274
f 348 349 352
f 349 353 352
f 349 350 353
f 350 354 353
f 350 351 354
f 351 355 354
f 351 274 355
f 274 356 355
f 274 178 356
f 352 353 357
f 353 358 357
f 353 354 358
f 354 359 358
f 354 355 359
f 355 360 359
f 355 356 360
f 356 275 360
f 356 178 275
f 357 358 361
f 358 362 361
f 358 359 362
f 359 363 362
f 359 360 363
f 360 364 363
f 360 275 364
f 275 276 364
f 275 179 276
f 361 362 365
f 362 366 365
f 362 363 366
f 363 367 366
f 363 364 367
f 364 368 367
f 364 276 368
f 276 277 368
f 276 180 277
f 365 366 369
f 366 370 369
f 366 367 370
f 367 371 370
f 367 368 371
f 368 372 371
f 368 277 372
f 277 278 372
f 277 181 278
f 369 370 373
f 370 374 373
f 370 371 374
f 371 375 374
f 371 372 375
f 372 376 375
f 372 278 376
f 278 257 376
f 278 183 257
f 373 374 377
f 374 378 377
f 374 375 378
f 375 379 378
f 375 376 379
f 376 380 379
f 376 257 380
f 257 381 380
f 257 182 381
f 184 382 205
f 182 206 381
f 383 206 187
f 384 187 188
f 385 188 189
f 386 189 190
f 387 190 191
f 388 191 192
f 389 192 193
f 390 193 194
f 391 194 195
f 392 195 207
f 393 207 197
f 394 197 196
f 395 196 198
f 396 198 199
f 397 199 200
f 398 200 201
f 399 201 202
f 400 202 203
f 401 203 204
f 402 204 205
f 377 378 403
f 378 404 403
f 378 379 404
f 379 405 404
f 379 380 405
f 380 406 405
f 380 381 406
f 381 383 406
f 381 206 383
f 403 404 407
f 404 408 407
f 404 405 408
f 405 409 408
f 405 406 409
f 406 410 409
f 406 383 410
f 383 384 410
f 383 187 384
f 407 408 411
f 408 412 411
f 408 409 412
f 409 413 412
f 409 410 413
f 410 414 413
f 410 384 414
f 384 385 414
f 384 188 385
f 411 412 415
f 412 416 415
f 412 413 416
f 413 417 416
f 413 414 417
f 414 418 417
f 414 385 418
f 385 386 418
f 385 189 386
f 415 416 419
f 416 420 419
f 416 417 420
f 417 421 420
f 417 418 421
f 418 422 421
f 418 386 422
f 386 423 422
f 386 190 423
f 419 420 424
f 420 425 424
f 420 421 425
f 421 426 425
f 421 422 426
f 422 427 426
f 422 423 427
f 423 387 427
f 423 190 387
f 424 425 428
f 425 429 428
f 425 426 429
f 426 430 429
f 426 427 430
f 427 431 430
f 427 387 431
f 387 388 431
f 387 191 388
f 428 429 432
f 429 433 432
f 429 430 433
f 430 434 433
f 430 431 434
f 431 435 434
f 431 388 435
f 388 389 435
f 388 192 389
f 432 433 436
f 433 437 436
f 433 434 437
f 434 438 437
f 434 435 438
f 435 439 438
f 435 389 439
f 389 390 439
f 389 193 390
f 436 437 440
f 437 441 440
f 437 438 441
f 438 442 441
f 438 439 442
f 439 443 442
f 439 390 443
f 390 391 443
f 390 194 391
f 440 441 444
f 441 445 444
f 441 442 445
f 442 446 445
f 442 443 446
f 443 447 446
f 443 391 447
f 391 392 447
f 391 195 392
f 444 445 448
f 445 449 448
f 445 446 449
f 446 450 449
f 446 447 450
f 447 451 450
f 447 392 451
f 392 393 451
f 392 207 393
f 448 449 452
f 449 453 452
f 449 450 453
f 450 454 453
f 450 451 454
f 451 455 454
f 451 393 455
f 393 394 455
f 393 197 394
f 452 453 456
f 453 457 456
f 453 454 457
f 454 458 457
f 454 455 458
f 455 459 458
f 455 394 459
f 394 395 459
f 394 196 395
f 456 457 460
f 457 461 460
f 457 458 461
f 458 462 461
f 458 459 462
f 459 463 462
f 459 395 463
f 395 396 463
f 395 198 396
f 460 461 464
f 461 465 464
f 461 462 465
f 462 466 465
f 462 463 466
f 463 467 466
f 463 396 467
f 396 397 467
f 396 199 397
f 464 465 468
f 465 469 468
f 465 466 469
f 466 470 469
f 466 467 470
f 467 471 470
f 467 397 471
f 397 398 471
f 397 200 398
f 468 469 472
f 469 473 472
f 469 470 473
f 470 474 473
f 470 471 474
f 471 475 474
f 471 398 475
f 398 476 475
f 398 201 476
f 472 473 477
f 473 478 477
f 473 474 478
f 474 479 478
f 474 475 479
f 475 480 479
f 475 476 480
f 476 399 480
f 476 201 399
f 477 478 481
f 478 482 481
f 478 479 482
f 479 483 482
f 479 480 483
f 480 484 483
f 480 399 484
f 399 400 484
f 399 202 400
f 481 482 485
f 482 486 485
f 482 483 486
f 483 487 486
f 483 484 487
f 484 488 487
f 484 400 488
f 400 401 488
f 400 203 401
f 485 486 489
f 486 490 489
f 486 487 490
f 487 491 490
f 487 488 491
f 488 492 491
f 488 401 492
f 401 402 492
f 401 204 402
f 489 490 493
f 490 494 493
f 490 491 494
f 491 495 494
f 491 492 495
f 492 496 495
f 492 402 496
f 402 382 496
f 402 205 382
f 493 494 279
f 494 280 279
f 494 495 280
f 495 283 280
f 495 496 283
f 496 285 283
f 496 382 285
f 382 258 285
f 382 184 258
f 254 497 251
f 497 498 251
f 250 251 498
f 250 498 499
f 250 499 500
f 250 500 248
f 500 501 248
f 246 248 501
f 501 502 246
f 244 246 502
f 244 502 503
f 244 503 504
f 244 504 243
f 504 505 243
f 241 243 505
f 239 506 507
f 239 507 237
f 507 508 237
f 235 237 508
f 235 508 509
f 235 509 510
f 235 510 233
f 510 511 233
f 232 233 511
f 511 512 232
f 230 232 512
f 230 512 513
f 230 513 514
f 230 514 228
f 515 516 255
f 516 254 255
f 516 497 254
f 225 228 517
f 228 518 517
f 228 514 518
f 239 241 506
f 241 519 506
f 241 505 519
f 231 520 226
f 520 521 226
f 227 226 521
f 227 521 522
f 227 522 523
f 227 523 229
f 523 524 229
f 234 229 524
f 524 525 234
f 236 234 525
f 236 525 526
f 236 526 527
f 236 527 238
f 527 528 238
f 240 238 528
f 242 529 530
f 242 530 245
f 530 531 245
f 247 245 531
f 247 531 532
f 247 532 533
f 247 533 249
f 533 534 249
f 252 249 534
f 534 535 252
f 253 252 535
f 253 535 536
f 253 536 537
f 253 537 256
f 517 538 225
f 538 231 225
f 538 520 231
f 255 256 515
f 256 539 515
f 256 537 539
f 242 240 529
f 240 540 529
f 240 528 540
f 517 541 538
f 542 520 538
f 543 521 520
f 544 522 521
f 545 523 522
f 546 524 523
f 547 525 524
f 548 526 525
f 549 527 526
f 550 528 527
f 551 540 528
f 552 529 540
f 553 530 529
f 554 531 530
f 555 532 531
f 556 533 532
f 557 534 533
f 558 535 534
f 559 536 535
f 560 537 536
f 561 539 537
f 515 539 562
f 281 563 279
f 563 564 279
f 563 565 564
f 565 566 564
f 565 567 566
f 567 568 566
f 567 541 568
f 541 569 568
f 541 517 569
f 287 570 281
f 570 563 281
f 570 571 563
f 571 565 563
f 571 572 565
f 572 567 565
f 572 542 567
f 542 541 567
f 542 538 541
f 291 573 287
f 573 570 287
f 573 574 570
f 574 571 570
f 574 575 571
f 575 572 571
f 575 543 572
f 543 542 572
f 543 520 542
f 295 576 291
f 576 573 291
f 576 577 573
f 577 574 573
f 577 578 574
f 578 575 574
f 578 544 575
f 544 543 575
f 544 521 543
f 299 579 295
f 579 576 295
f 579 580 576
f 580 577 576
f 580 581 577
f 581 578 577
f 581 545 578
f 545 544 578
f 545 522 544
f 304 582 299
f 582 579 299
f 582 583 579
f 583 580 579
f 583 584 580
f 584 581 580
f 584 585 581
f 585 545 581
f 585 523 545
f 308 586 304
f 586 582 304
f 586 587 582
f 587 583 582
f 587 588 583
f 588 584 583
f 588 546 584
f 546 585 584
f 546 523 585
f 312 589 308
f 589 586 308
f 589 590 586
f 590 587 586
f 590 591 587
f 591 588 587
f 591 547 588
f 547 546 588
f 547 524 546
f 316 592 312
f 592 589 312
f 592 593 589
f 593 590 589
f 593 594 590
f 594 591 590
f 594 548 591
f 548 547 591
f 548 525 547
f 320 595 316
f 595 592 316
f 595 596 592
f 596 593 592
f 596 597 593
f 597 594 593
f 597 549 594
f 549 548 594
f 549 526 548
f 324 598 320
f 598 595 320
f 598 599 595
f 599 596 595
f 599 600 596
f 600 597 596
f 600 550 597
f 550 549 597
f 550 527 549
f 328 601 324
f 601 598 324
f 601 602 598
f 602 599 598
f 602 603 599
f 603 600 599
f 603 551 600
f 551 550 600
f 551 528 550
f 332 604 328
f 604 601 328
f 604 605 601
f 605 602 601
f 605 606 602
f 606 603 602
f 606 552 603
f 552 551 603
f 552 540 551
f 336 607 332
f 607 604 332
f 607 608 604
f 608 605 604
f 608 609 605
f 609 606 605
f 609 553 606
f 553 552 606
f 553 529 552
f 340 610 336
f 610 607 336
f 610 611 607
f 611 608 607
f 611 612 608
f 612 609 608
f 612 554 609
f 554 553 609
f 554 530 553
f 344 613 340
f 613 610 340
f 613 614 610
f 614 611 610
f 614 615 611
f 615 612 611
f 615 555 612
f 555 554 612
f 555 531 554
f 348 616 344
f 616 613 344
f 616 617 613
f 617 614 613
f 617 618 614
f 618 615 614
f 618 556 615
f 556 555 615
f 556 532 555
f 352 619 348
f 619 616 348
f 619 620 616
f 620 617 616
f 620 621 617
f 621 618 617
f 621 557 618
f 557 556 618
f 557 533 556
f 357 622 352
f 622 619 352
f 622 623 619
f 623 620 619
f 623 624 620
f 624 621 620
f 624 625 621
f 625 557 621
f 625 534 557
f 361 626 357
f 626 622 357
f 626 627 622
f 627 623 622
f 627 628 623
f 628 624 623
f 628 558 624
f 558 625 624
f 558 534 625
f 365 629 361
f 629 626 361
f 629 630 626
f 630 627 626
f 630 631 627
f 631 628 627
f 631 559 628
f 559 558 628
f 559 535 558
f 369 632 365
f 632 629 365
f 632 633 629
f 633 630 629
f 633 634 630
f 634 631 630
f 634 560 631
f 560 559 631
f 560 536 559
f 373 635 369
f 635 632 369
f 635 636 632
f 636 633 632
f 636 637 633
f 637 634 633
f 637 561 634
f 561 560 634
f 561 537 560
f 377 638 373
f 638 635 373
f 638 639 635
f 639 636 635
f 639 640 636
f 640 637 636
f 640 562 637
f 562 561 637
f 562 539 561
f 515 641 516
f 642 497 516
f 643 498 497
f 644 499 498
f 645 500 499
f 646 501 500
f 647 502 501
f 648 503 502
f 649 504 503
f 650 505 504
f 651 519 505
f 652 506 519
f 653 507 506
f 654 508 507
f 655 509 508
f 656 510 509
f 657 511 510
f 658 512 511
f 659 513 512
f 660 514 513
f 661 518 514
f 517 518 569
f 403 662 377
f 662 638 377
f 662 663 638
f 663 639 638
f 663 664 639
f 664 640 639
f 664 641 640
f 641 562 640
f 641 515 562
f 407 665 403
f 665 662 403
f 665 666 662
f 666 663 662
f 666 667 663
f 667 664 663
f 667 642 664
f 642 641 664
f 642 516 641
f 411 668 407
f 668 665 407
f 668 669 665
f 669 666 665
f 669 670 666
f 670 667 666
f 670 643 667
f 643 642 667
f 643 497 642
f 415 671 411
f 671 668 411
f 671 672 668
f 672 669 668
f 672 673 669
f 673 670 669
f 673 644 670
f 644 643 670
f 644 498 643
f 419 674 415
f 674 671 415
f 674 675 671
f 675 672 671
f 675 676 672
f 676 673 672
f 676 645 673
f 645 644 673
f 645 499 644
f 424 677 419
f 677 674 419
f 677 678 674
f 678 675 674
f 678 679 675
f 679 676 675
f 679 680 676
f 680 645 676
f 680 500 645
f 428 681 424
f 681 677 424
f 681 682 677
f 682 678 677
f 682 683 678
f 683 679 678
f 683 646 679
f 646 680 679
f 646 500 680
f 432 684 428
f 684 681 428
f 684 685 681
f 685 682 681
f 685 686 682
f 686 683 682
f 686 647 683
f 647 646 683
f 647 501 646
f 436 687 432
f 687 684 432
f 687 688 684
f 688 685 684
f 688 689 685
f 689 686 685
f 689 648 686
f 648 647 686
f 648 502 647
f 440 690 436
f 690 687 436
f 690 691 687
f 691 688 687
f 691 692 688
f 692 689 688
f 692 649 689
f 649 648 689
f 649 503 648
f 444 693 440
f 693 690 440
f 693 694 690
f 694 691 690
f 694 695 691
f 695 692 691
f 695 650 692
f 650 649 692
f 650 504 649
f 448 696 444
f 696 693 444
f 696 697 693
f 697 694 693
f 697 698 694
f 698 695 694
f 698 651 695
f 651 650 695
f 651 505 650
f 452 699 448
f 699 696 448
f 699 700 696
f 700 697 696
f 700 701 697
f 701 698 697
f 701 652 698
f 652 651 698
f 652 519 651
f 456 702 452
f 702 699 452
f 702 703 699
f 703 700 699
f 703 704 700
f 704 701 700
f 704 653 701
f 653 652 701
f 653 506 652
f 460 705 456
f 705 702 456
f 705 706 702
f 706 703 702
f 706 707 703
f 707 704 703
f 707 654 704
f 654 653 704
f 654 507 653
f 464 708 460
f 708 705 460
f 708 709 705
f 709 706 705
f 709 710 706
f 710 707 706
f 710 655 707
f 655 654 707
f 655 508 654
f 468 711 464
f 711 708 464
f 711 712 708
f 712 709 708
f 712 713 709
f 713 710 709
f 713 656 710
f 656 655 710
f 656 509 655
f 472 714 468
f 714 711 468
f 714 715 711
f 715 712 711
f 715 716 712
f 716 713 712
f 716 657 713
f 657 656 713
f 657 510 656
f 477 717 472
f 717 714 472
f 717 718 714
f 718 715 714
f 718 719 715
f 719 716 715
f 719 720 716
f 720 657 716
f 720 511 657
f 481 721 477
f 721 717 477
f 721 722 717
f 722 718 717
f 722 723 718
f 723 719 718
f 723 658 719
f 658 720 719
f 658 511 720
f 485 724 481
f 724 721 481
f 724 725 721
f 725 722 721
f 725 726 722
f 726 723 722
f 726 659 723
f 659 658 723
f 659 512 658
f 489 727 485
f 727 724 485
f 727 728 724
f 728 725 724
f 728 729 725
f 729 726 725
f 729 660 726
f 660 659 726
f 660 513 659
f 493 730 489
f 730 727 489
f 730 731 727
f 731 728 727
f 731 732 728
f 732 729 728
f 732 661 729
f 661 660 729
f 661 514 660
f 279 564 493
f 564 730 493
f 564 566 730
f 566 731 730
f 566 568 731
f 568 732 731
f 568 569 732
f 569 661 732
f 569 518 661
