# https://github.com/mikedh/trimesh
v 0.00000084 -0.02400000 0.00000000
v 0.00000095 0.02400000 -0.00000001
v 0.00537199 0.02339106 0.00000001
v 0.01087570 0.02139437 0.00000000
v 0.01573220 0.01812451 0.00000001
v 0.01965248 0.01377607 0.00000000
v 0.02240325 0.00860781 0.00000000
v 0.02382081 0.00292730 0.00000000
v 0.02382080 -0.00292741 0.00000000
v 0.02240321 -0.00860790 -0.00000000
v 0.01965242 -0.01377615 0.00000000
v 0.01573212 -0.01812457 0.00000001
v 0.01087561 -0.02139441 -0.00000000
v 0.00537189 -0.02339108 0.00000000
f 2 1 14
f 2 14 3
f 3 14 13
f 3 13 4
f 13 12 4
f 4 12 11
f 4 11 5
f 5 11 6
f 6 11 10
f 10 9 6
f 6 9 8
f 6 8 7

