# https://github.com/mikedh/trimesh
v 0.00060732 0.02247817 -0.05525096
v 0.00060721 -0.02621241 -0.05525097
v 0.02997307 -0.02621247 -0.10595425
v 0.02997318 0.02247817 -0.10595425
v 0.04199390 0.02247817 -0.06854605
v 0.04016660 0.02247817 -0.06512411
v 0.03290511 0.02247817 -0.05719236
v 0.02848915 0.02247817 -0.05444787
v 0.02800359 0.02247817 -0.05420851
v 0.02332006 0.02247817 -0.05242867
v 0.02207322 0.02247817 -0.05210289
v 0.02177251 0.02247817 -0.05203301
v 0.01647048 0.02247817 -0.05133084
v 0.01626006 0.02247817 -0.05132312
v 0.03318781 0.02247817 -0.10379750
v 0.03452497 0.02247817 -0.10270163
v 0.03705864 0.02247817 -0.10021153
v 0.03813372 0.02247817 -0.09894826
v 0.04028292 0.02247817 -0.09589264
v 0.04127827 0.02247817 -0.09413245
v 0.04270308 0.02247817 -0.09094638
v 0.04339952 0.02247817 -0.08886926
v 0.04399347 0.02247817 -0.08648515
v 0.04434026 0.02247817 -0.08442125
v 0.04458915 0.02247817 -0.08085550
v 0.04454066 0.02247817 -0.07889897
v 0.04407655 0.02247817 -0.07514096
v 0.04372852 0.02247817 -0.07354996
v 0.04265302 0.02247817 -0.07012717
v 0.03702986 0.02247817 -0.06096179
v 0.03677547 0.02247817 -0.06068393
v 0.03310717 0.02247817 -0.05734573
v 0.01080052 0.02247817 -0.05165304
v 0.01074809 0.02247817 -0.05166122
v 0.00568763 0.02247817 -0.05292507
v 0.00560882 0.02247817 -0.05295253
v 0.00560872 -0.02621242 -0.05295252
v 0.02800349 -0.02621246 -0.05420851
v 0.03290501 -0.02621247 -0.05719237
v 0.01080041 -0.02621243 -0.05165305
v 0.02268852 -0.02621245 -0.05225636
v 0.02177240 -0.02621245 -0.05203302
v 0.01625995 -0.02621244 -0.05132312
v 0.03677537 -0.02621249 -0.06068392
v 0.03452486 -0.02621248 -0.10270163
v 0.03813362 -0.02621249 -0.09894826
v 0.04127816 -0.02621249 -0.09413245
v 0.04339942 -0.02621250 -0.08886925
v 0.04434015 -0.02621250 -0.08442126
v 0.04454055 -0.02621249 -0.07889897
v 0.04372840 -0.02621249 -0.07354996
v 0.04199379 -0.02621249 -0.06854606
v 0.04016649 -0.02621249 -0.06512410
f 4 3 15
f 15 3 45
f 15 45 16
f 16 45 17
f 17 45 46
f 17 46 18
f 18 46 19
f 19 46 47
f 19 47 20
f 20 47 21
f 21 47 48
f 21 48 22
f 22 48 23
f 23 48 49
f 23 49 24
f 24 49 25
f 25 49 50
f 25 50 26
f 26 50 27
f 27 50 51
f 27 51 28
f 28 51 29
f 29 51 52
f 29 52 5
f 5 52 53
f 5 53 6
f 6 53 30
f 30 53 44
f 44 31 30
f 44 32 31
f 39 32 44
f 39 7 32
f 39 8 7
f 38 8 39
f 38 9 8
f 41 9 38
f 41 10 9
f 41 11 10
f 42 11 41
f 42 12 11
f 42 13 12
f 43 13 42
f 43 14 13
f 40 14 43
f 40 33 14
f 40 34 33
f 35 34 40
f 36 35 40
f 40 37 36
f 36 37 2
f 36 2 1

