# https://github.com/mikedh/trimesh
v 0.00000084 -0.02400000 0.00000000
v 0.00000095 0.02400000 -0.00000001
v 0.00000317 -0.02400000 0.03157352
v 0.00000328 0.02400000 0.03157353
v 0.01087570 0.02139437 0.03157352
v 0.01573220 0.01812451 0.03157353
v 0.01087561 -0.02139441 0.03157352
v 0.01573212 -0.01812459 0.03157353
v 0.00537199 0.02339106 0.03157353
v 0.01965248 0.01377606 0.03157352
v 0.02240325 0.00860780 0.03157352
v 0.02382081 0.00292730 0.03157352
v 0.01965242 -0.01377615 0.03157352
v 0.00537189 -0.02339108 0.03157352
v 0.02382080 -0.00292740 0.03157352
v 0.02240321 -0.00860791 0.03157352
v 0.00537199 0.02339106 0.00000001
v 0.01087570 0.02139437 0.00000000
v 0.01573220 0.01812451 0.00000001
v 0.01965248 0.01377607 0.00000000
v 0.02240325 0.00860781 0.00000000
v 0.02382081 0.00292730 0.00000000
v 0.02382080 -0.00292741 0.00000000
v 0.02240321 -0.00860790 -0.00000000
v 0.01965242 -0.01377615 0.00000000
v 0.01573212 -0.01812457 0.00000001
v 0.01087561 -0.02139441 -0.00000000
v 0.00537189 -0.02339108 0.00000000
f 4 2 9
f 9 2 17
f 9 17 5
f 5 17 18
f 5 18 6
f 6 18 19
f 6 19 10
f 10 19 20
f 10 20 11
f 11 20 21
f 11 21 12
f 12 21 22
f 12 22 15
f 15 22 23
f 15 23 16
f 16 23 24
f 16 24 13
f 13 24 25
f 13 25 8
f 8 25 26
f 8 26 7
f 7 26 27
f 7 27 14
f 14 27 28
f 14 28 3
f 3 28 1

