# https://github.com/mikedh/trimesh
v 0.02313712 -0.02971250 -0.04945749
v 0.02562033 -0.02971250 -0.05067580
v 0.01063091 -0.02971247 -0.05443186
v 0.01100752 -0.02971247 -0.05325415
v 0.01079754 -0.02971247 -0.05203565
v 0.03283957 -0.02971252 -0.05714383
v 0.03341609 -0.02971253 -0.05779768
v 0.03479744 -0.02971253 -0.05548349
v 0.03866944 -0.02971254 -0.05895118
v 0.03365971 -0.02971253 -0.05863466
v 0.03352415 -0.02971252 -0.05949579
v 0.03335289 -0.02971252 -0.06068032
v 0.02887665 -0.02971250 -0.05472327
v 0.03040789 -0.02971251 -0.05269977
v 0.02457818 -0.02971250 -0.05296626
v 0.02005437 -0.02971249 -0.05191789
v 0.01542123 -0.02971248 -0.05160501
v 0.01778630 -0.02971249 -0.04866498
v 0.01237844 -0.02971248 -0.04878505
v 0.00706807 -0.02971247 -0.04981426
v 0.03571247 -0.02971253 -0.06303991
v 0.03689701 -0.02971253 -0.06286864
v 0.03457671 -0.02971253 -0.06266239
v 0.03373040 -0.02971252 -0.06181608
v 0.00975287 -0.02971247 -0.05530241
v 0.00857199 -0.02971247 -0.05566896
v 0.00735533 -0.02971246 -0.05544857
v 0.00637805 -0.02971246 -0.05469111
v 0.03571247 -0.02971253 -0.09816542
v 0.03457671 -0.02971252 -0.09854293
v 0.03373040 -0.02971252 -0.09938924
v 0.03775812 -0.02971253 -0.09847225
v 0.03689700 -0.02971253 -0.09833668
v 0.03352415 -0.02971252 -0.10170953
v 0.03335289 -0.02971252 -0.10052500
v 0.00964669 -0.02971246 -0.10584246
v 0.00849061 -0.02971246 -0.10553268
v 0.01054151 -0.02971246 -0.10663728
v 0.00731826 -0.02971246 -0.10577362
v 0.01098546 -0.02971246 -0.10774876
v 0.00637805 -0.02971246 -0.10651421
v 0.01129861 -0.02971248 -0.10856229
v 0.00604489 -0.02971245 -0.11055730
v 0.01192809 -0.02971248 -0.10916533
v 0.01110353 -0.02971248 -0.11175207
v 0.03365971 -0.02971252 -0.10257065
v 0.03551501 -0.02971252 -0.10516237
v 0.03859511 -0.02971253 -0.09822863
v 0.03928525 -0.02971253 -0.10158431
v 0.03924895 -0.02971253 -0.09765211
v 0.04241576 -0.02971254 -0.09743495
v 0.04191682 -0.02971254 -0.09318821
v 0.04482130 -0.02971255 -0.09282728
v 0.04374454 -0.02971255 -0.08831961
v 0.04643637 -0.02971255 -0.08788676
v 0.04467333 -0.02971255 -0.08320285
v 0.04721700 -0.02971255 -0.08274790
v 0.04467333 -0.02971255 -0.07800248
v 0.04714192 -0.02971256 -0.07755063
v 0.04374453 -0.02971254 -0.07288572
v 0.04621320 -0.02971254 -0.07243647
v 0.04191682 -0.02971254 -0.06801711
v 0.04445611 -0.02971254 -0.06754465
v 0.03924896 -0.02971253 -0.06355322
v 0.04191849 -0.02971254 -0.06300838
v 0.03859511 -0.02971253 -0.06297670
v 0.03775812 -0.02971253 -0.06273308
v 0.03341609 -0.02971252 -0.10340764
v 0.03283957 -0.02971252 -0.10406149
v 0.03120770 -0.02971251 -0.10807171
v 0.02922813 -0.02971251 -0.10630130
v 0.02648059 -0.02971251 -0.11023312
v 0.02532812 -0.02971250 -0.10798927
v 0.02146240 -0.02971250 -0.11158774
v 0.02122330 -0.02971250 -0.10908917
v 0.01628977 -0.02971249 -0.11209869
v 0.01700180 -0.02971249 -0.10957734
v 0.01275429 -0.02971248 -0.10944332
v 0.00570008 -0.02971246 -0.05414315
v 0.00485342 -0.02971246 -0.05393564
v 0.00624106 -0.02971246 -0.05006063
v 0.00399891 -0.02971246 -0.05410800
v 0.00200692 -0.02971246 -0.05172321
v -0.00048778 -0.02971245 -0.05660205
v -0.00266040 -0.02971245 -0.05445734
v -0.00446445 -0.02971244 -0.05984810
v -0.00446445 -0.02971244 -0.10135722
v -0.00655161 -0.02971243 -0.10280844
v -0.00048778 -0.02971244 -0.10460328
v -0.00314582 -0.02971244 -0.10577566
v 0.00399891 -0.02971245 -0.10709733
v 0.00125161 -0.02971245 -0.10854691
v 0.00485342 -0.02971245 -0.10726968
v 0.00570008 -0.02971246 -0.10706217
v -0.00680052 -0.02971244 -0.05793853
v -0.00752179 -0.02971244 -0.05868112
v -0.00780649 -0.02971243 -0.06374445
v -0.01029514 -0.02971243 -0.06206733
v -0.01040918 -0.02971243 -0.06816900
v -0.01304442 -0.02971242 -0.06672574
v -0.01219099 -0.02971242 -0.07298313
v -0.01496979 -0.02971242 -0.07178067
v -0.01309607 -0.02971242 -0.07803601
v -0.01601624 -0.02971241 -0.07708768
v -0.01309607 -0.02971242 -0.08316931
v -0.01615386 -0.02971241 -0.08249512
v -0.01219099 -0.02971242 -0.08822218
v -0.01537873 -0.02971241 -0.08784848
v -0.01040918 -0.02971242 -0.09303632
v -0.01371300 -0.02971241 -0.09299480
v -0.00780649 -0.02971243 -0.09746088
v -0.01120426 -0.02971243 -0.09778704
v -0.00874937 -0.02971243 -0.10114074
v -0.00811247 -0.02971243 -0.10175455
v -0.00740052 -0.02971243 -0.10219908
v -0.00694765 -0.02971243 -0.10247065
f 3 4 5
f 26 3 5
f 26 5 27
f 27 5 28
f 28 5 79
f 79 5 20
f 79 20 80
f 80 20 81
f 80 81 82
f 82 81 83
f 82 83 84
f 84 83 85
f 84 85 86
f 85 95 86
f 86 95 96
f 86 96 97
f 97 96 98
f 97 98 99
f 99 98 100
f 99 100 101
f 101 100 102
f 101 102 103
f 103 102 104
f 103 104 105
f 105 104 106
f 105 106 107
f 107 106 108
f 107 108 109
f 109 108 110
f 109 110 111
f 111 110 112
f 111 112 113
f 113 114 111
f 111 114 115
f 111 115 87
f 87 115 116
f 87 116 88
f 87 88 89
f 89 88 90
f 89 90 91
f 91 90 92
f 91 92 93
f 93 92 43
f 93 43 94
f 94 43 41
f 42 41 43
f 42 43 44
f 44 43 45
f 45 78 44
f 45 77 78
f 76 77 45
f 76 75 77
f 74 75 76
f 74 73 75
f 72 73 74
f 72 71 73
f 70 71 72
f 70 69 71
f 47 69 70
f 47 68 69
f 46 68 47
f 32 46 47
f 34 46 32
f 32 33 34
f 34 33 29
f 34 29 35
f 35 29 31
f 29 30 31
f 32 47 48
f 48 47 49
f 48 49 50
f 50 49 51
f 50 51 52
f 52 51 53
f 52 53 54
f 54 53 55
f 54 55 56
f 56 55 57
f 56 57 58
f 58 57 59
f 58 59 60
f 60 59 61
f 60 61 62
f 62 61 63
f 62 63 64
f 64 63 65
f 64 65 66
f 66 65 9
f 66 9 67
f 67 9 22
f 23 22 9
f 23 9 24
f 24 9 12
f 9 11 12
f 9 10 11
f 7 10 9
f 8 7 9
f 6 7 8
f 6 8 13
f 13 8 14
f 13 14 15
f 15 14 2
f 15 2 16
f 16 2 1
f 16 1 17
f 17 1 18
f 17 18 5
f 5 18 19
f 21 22 23
f 40 41 42
f 40 39 41
f 38 39 40
f 38 37 39
f 36 37 38
f 5 19 20
f 25 3 26

