# axle_pin_2.obj
# 100 vertices, 144 triangles

v 0.01229396 1.87490892 0.19445202
v 0.00709793 1.88010550 0.19445202
v -0.00000007 1.86781168 0.19445203
v 0.01419585 1.86781168 0.19445199
v 0.01229396 1.86071348 0.19445202
v 0.00709793 1.85551691 0.19445202
v -0.00000006 1.85361528 0.19445203
v -0.00709805 1.85551691 0.19445202
v -0.01229405 1.86071348 0.19445203
v -0.01419595 1.86781168 0.19445202
v -0.01229405 1.87490892 0.19445203
v -0.00709805 1.88010550 0.19445202
v -0.00000006 1.88200665 0.19445203
v 0.00709793 1.88010538 -0.06806274
v 0.01229396 1.87490892 -0.06806275
v -0.00000007 1.86781156 -0.06806275
v 0.01419585 1.86781156 -0.06806275
v 0.01229396 1.86071348 -0.06806275
v 0.00709793 1.85551703 -0.06806274
v -0.00000006 1.85361552 -0.06806275
v -0.00709805 1.85551703 -0.06806275
v -0.01229405 1.86071348 -0.06806275
v -0.01419595 1.86781156 -0.06806278
v -0.01229405 1.87490892 -0.06806275
v -0.00709805 1.88010538 -0.06806275
v -0.00000006 1.88200688 -0.06806275
v 0.01419437 1.89239693 0.17937517
v 0.02458537 1.88200521 0.17937517
v 0.02458537 1.88200533 -0.05298591
v 0.01419437 1.89239705 -0.05298591
v 0.02838879 1.86781120 0.17937517
v 0.02838879 1.86781156 -0.05298591
v 0.02458543 1.85361671 0.17937517
v 0.02458543 1.85361707 -0.05298591
v 0.01419437 1.84322596 0.17937517
v 0.01419437 1.84322596 -0.05298591
v 0.00000000 1.83942223 0.17937517
v 0.00000000 1.83942223 -0.05298593
v 0.00000000 1.83942223 0.17937517
v -0.01419443 1.84322596 0.17937516
v -0.01419443 1.84322596 -0.05298597
v 0.00000000 1.83942223 -0.05298593
v -0.02458549 1.85361671 0.17937517
v -0.02458549 1.85361707 -0.05298591
v -0.02838888 1.86781120 0.17937517
v -0.02838888 1.86781156 -0.05298591
v -0.02458549 1.88200521 0.17937517
v -0.02458549 1.88200533 -0.05298591
v -0.01419449 1.89239693 0.17937516
v -0.01419449 1.89239705 -0.05298597
v -0.00000012 1.89620018 0.17937517
v -0.00000012 1.89619982 -0.05298593
v 0.01419437 1.89239693 0.17937517
v 0.01211590 1.88879609 0.18728077
v 0.02098531 1.87992644 0.18728077
v 0.02458537 1.88200521 0.17937517
v 0.02423177 1.86781144 0.18728077
v 0.02838879 1.86781120 0.17937517
v 0.02098531 1.85569549 0.18728077
v 0.02458543 1.85361671 0.17937517
v 0.01211584 1.84682631 0.18728077
v 0.01419437 1.84322596 0.17937517
v -0.00000006 1.84357953 0.18728076
v 0.00000000 1.83942223 0.17937517
v -0.01211601 1.84682631 0.18728076
v -0.01419443 1.84322596 0.17937516
v -0.02098542 1.85569549 0.18728077
v -0.02458549 1.85361671 0.17937517
v -0.02423186 1.86781144 0.18728077
v -0.02838888 1.86781120 0.17937517
v -0.02098539 1.87992644 0.18728077
v -0.02458549 1.88200521 0.17937517
v -0.01211596 1.88879609 0.18728076
v -0.01419449 1.89239693 0.17937516
v -0.00000006 1.89204288 0.18728076
v -0.00000012 1.89620018 0.17937517
v 0.01419437 1.89239705 -0.05298591
v 0.01211590 1.88879609 -0.06089151
v -0.00000006 1.89204264 -0.06089149
v -0.00000012 1.89619982 -0.05298593
v 0.02098531 1.87992656 -0.06089151
v 0.02458537 1.88200533 -0.05298591
v 0.02423177 1.86781132 -0.06089151
v 0.02838879 1.86781156 -0.05298591
v 0.02098531 1.85569549 -0.06089151
v 0.02458543 1.85361707 -0.05298591
v 0.01211584 1.84682608 -0.06089151
v 0.01419437 1.84322596 -0.05298591
v -0.00000006 1.84357941 -0.06089149
v 0.00000000 1.83942223 -0.05298593
v -0.01211601 1.84682608 -0.06089151
v -0.01419443 1.84322596 -0.05298597
v -0.02098542 1.85569549 -0.06089145
v -0.02458549 1.85361707 -0.05298591
v -0.02423186 1.86781132 -0.06089151
v -0.02838888 1.86781156 -0.05298591
v -0.02098539 1.87992656 -0.06089145
v -0.02458549 1.88200533 -0.05298591
v -0.01211596 1.88879609 -0.06089151
v -0.01419449 1.89239705 -0.05298597

vn 0.39738044 0.22943376 0.88850939
vn 0.22943512 0.39739597 0.88850212
vn 0.00000039 0.00000000 1.00000000
vn 0.45885843 0.00000224 0.88850951
vn 0.39738107 -0.22942148 0.88851225
vn 0.22943527 -0.39738926 0.88850510
vn -0.00000134 -0.45886171 0.88850778
vn -0.22943443 -0.39739054 0.88850480
vn -0.39738229 -0.22942092 0.88851196
vn -0.45886192 0.00000245 0.88850760
vn -0.39738581 0.22943883 0.88850582
vn -0.22943826 0.39739934 0.88849986
vn 0.00000010 0.45886022 0.88850862
vn 0.22943604 0.39739722 -0.88850129
vn 0.39738366 0.22943571 -0.88850754
vn 0.00000048 -0.00000000 -1.00000000
vn 0.45885953 0.00000222 -0.88850880
vn 0.39738461 -0.22942622 -0.88850957
vn 0.22943100 -0.39738613 -0.88850754
vn 0.00000010 -0.45884988 -0.88851386
vn -0.22942950 -0.39738241 -0.88850963
vn -0.39738265 -0.22942315 -0.88851124
vn -0.45885906 0.00000182 -0.88850909
vn -0.39738595 0.22943775 -0.88850600
vn -0.22943859 0.39739799 -0.88850027
vn 0.00000067 0.45886657 -0.88850534
vn 0.49995241 0.86592519 0.01487279
vn 0.86593086 0.49994263 0.01487222
vn 0.86593080 0.49994278 -0.01487154
vn 0.49995190 0.86592555 -0.01487272
vn 0.99988943 0.00000162 0.01487136
vn 0.99988943 0.00000235 -0.01487133
vn 0.86592919 -0.49994561 0.01487121
vn 0.86592960 -0.49994490 -0.01487199
vn 0.49995154 -0.86592573 0.01487182
vn 0.49995160 -0.86592567 -0.01487187
vn 0.00000012 -0.99988943 0.01487249
vn -0.00000027 -0.99988943 -0.01487147
vn 0.00000012 -0.99988943 0.01487249
vn -0.49995059 -0.86592621 0.01487179
vn -0.49995077 -0.86592615 -0.01487141
vn -0.00000027 -0.99988943 -0.01487147
vn -0.86592883 -0.49994627 0.01487110
vn -0.86592895 -0.49994597 -0.01487138
vn -0.99988943 -0.00000037 0.01487134
vn -0.99988943 0.00000039 -0.01487137
vn -0.86593133 0.49994189 0.01487212
vn -0.86593103 0.49994239 -0.01487162
vn -0.49995428 0.86592412 0.01487284
vn -0.49995381 0.86592448 -0.01487278
vn 0.00000006 0.99988943 0.01487283
vn -0.00000031 0.99988943 -0.01487377
vn 0.49995241 0.86592519 0.01487279
vn 0.38489339 0.66662562 0.63833165
vn 0.66664135 0.38488585 0.63831985
vn 0.86593086 0.49994263 0.01487222
vn 0.76977211 0.00000177 0.63831884
vn 0.99988943 0.00000162 0.01487136
vn 0.66663980 -0.38488328 0.63832307
vn 0.86592919 -0.49994561 0.01487121
vn 0.38488942 -0.66663730 0.63832200
vn 0.49995154 -0.86592573 0.01487182
vn -0.00000113 -0.76977009 0.63832134
vn 0.00000012 -0.99988943 0.01487249
vn -0.38488996 -0.66663778 0.63832104
vn -0.49995059 -0.86592621 0.01487179
vn -0.66664237 -0.38488293 0.63832051
vn -0.86592883 -0.49994627 0.01487110
vn -0.76977336 0.00000137 0.63831747
vn -0.99988943 -0.00000037 0.01487134
vn -0.66664332 0.38488877 0.63831604
vn -0.86593133 0.49994189 0.01487212
vn -0.38489571 0.66662711 0.63832873
vn -0.49995428 0.86592412 0.01487284
vn 0.00000097 0.76976287 0.63832998
vn 0.00000006 0.99988943 0.01487283
vn 0.49995190 0.86592555 -0.01487272
vn 0.38488910 0.66663134 -0.63832837
vn 0.00000155 0.76976126 -0.63833189
vn -0.00000031 0.99988943 -0.01487377
vn 0.66664028 0.38488701 -0.63832021
vn 0.86593080 0.49994278 -0.01487154
vn 0.76977146 -0.00000260 -0.63831973
vn 0.99988943 0.00000235 -0.01487133
vn 0.66664273 -0.38488618 -0.63831818
vn 0.86592960 -0.49994490 -0.01487199
vn 0.38489106 -0.66663754 -0.63832074
vn 0.49995160 -0.86592567 -0.01487187
vn -0.00000003 -0.76976860 -0.63832319
vn -0.00000027 -0.99988943 -0.01487147
vn -0.38489267 -0.66663754 -0.63831973
vn -0.49995077 -0.86592615 -0.01487141
vn -0.66664624 -0.38488576 -0.63831472
vn -0.86592895 -0.49994597 -0.01487138
vn -0.76976997 -0.00000298 -0.63832146
vn -0.99988943 0.00000039 -0.01487137
vn -0.66663885 0.38488626 -0.63832223
vn -0.86593103 0.49994239 -0.01487162
vn -0.38488799 0.66662699 -0.63833356
vn -0.49995381 0.86592448 -0.01487278

f 1//1 2//2 3//3
f 4//4 1//1 3//3
f 5//5 4//4 3//3
f 6//6 5//5 3//3
f 7//7 6//6 3//3
f 8//8 7//7 3//3
f 9//9 8//8 3//3
f 10//10 9//9 3//3
f 11//11 10//10 3//3
f 12//12 11//11 3//3
f 13//13 12//12 3//3
f 2//2 13//13 3//3
f 14//14 15//15 16//16
f 15//15 17//17 16//16
f 17//17 18//18 16//16
f 18//18 19//19 16//16
f 19//19 20//20 16//16
f 20//20 21//21 16//16
f 21//21 22//22 16//16
f 22//22 23//23 16//16
f 23//23 24//24 16//16
f 24//24 25//25 16//16
f 25//25 26//26 16//16
f 26//26 14//14 16//16
f 27//27 28//28 29//29
f 27//27 29//29 30//30
f 28//28 31//31 32//32
f 28//28 32//32 29//29
f 31//31 33//33 34//34
f 31//31 34//34 32//32
f 33//33 35//35 36//36
f 33//33 36//36 34//34
f 35//35 37//37 38//38
f 35//35 38//38 36//36
f 39//39 40//40 41//41
f 39//39 41//41 42//42
f 40//40 43//43 44//44
f 40//40 44//44 41//41
f 43//43 45//45 46//46
f 43//43 46//46 44//44
f 45//45 47//47 48//48
f 45//45 48//48 46//46
f 47//47 49//49 50//50
f 47//47 50//50 48//48
f 49//49 51//51 52//52
f 49//49 52//52 50//50
f 51//51 27//27 30//30
f 51//51 30//30 52//52
f 53//53 54//54 55//55
f 53//53 55//55 56//56
f 54//54 2//2 1//1
f 54//54 1//1 55//55
f 56//56 55//55 57//57
f 56//56 57//57 58//58
f 55//55 1//1 4//4
f 55//55 4//4 57//57
f 58//58 57//57 59//59
f 58//58 59//59 60//60
f 57//57 4//4 5//5
f 57//57 5//5 59//59
f 60//60 59//59 61//61
f 60//60 61//61 62//62
f 59//59 5//5 6//6
f 59//59 6//6 61//61
f 62//62 61//61 63//63
f 62//62 63//63 64//64
f 61//61 6//6 7//7
f 61//61 7//7 63//63
f 64//64 63//63 65//65
f 64//64 65//65 66//66
f 63//63 7//7 8//8
f 63//63 8//8 65//65
f 66//66 65//65 67//67
f 66//66 67//67 68//68
f 65//65 8//8 9//9
f 65//65 9//9 67//67
f 68//68 67//67 69//69
f 68//68 69//69 70//70
f 67//67 9//9 10//10
f 67//67 10//10 69//69
f 70//70 69//69 71//71
f 70//70 71//71 72//72
f 69//69 10//10 11//11
f 69//69 11//11 71//71
f 72//72 71//71 73//73
f 72//72 73//73 74//74
f 71//71 11//11 12//12
f 71//71 12//12 73//73
f 74//74 73//73 75//75
f 74//74 75//75 76//76
f 73//73 12//12 13//13
f 73//73 13//13 75//75
f 2//2 54//54 75//75
f 2//2 75//75 13//13
f 54//54 53//53 76//76
f 54//54 76//76 75//75
f 77//77 78//78 79//79
f 77//77 79//79 80//80
f 78//78 14//14 26//26
f 78//78 26//26 79//79
f 14//14 78//78 81//81
f 14//14 81//81 15//15
f 78//78 77//77 82//82
f 78//78 82//82 81//81
f 15//15 81//81 83//83
f 15//15 83//83 17//17
f 81//81 82//82 84//84
f 81//81 84//84 83//83
f 17//17 83//83 85//85
f 17//17 85//85 18//18
f 83//83 84//84 86//86
f 83//83 86//86 85//85
f 18//18 85//85 87//87
f 18//18 87//87 19//19
f 85//85 86//86 88//88
f 85//85 88//88 87//87
f 19//19 87//87 89//89
f 19//19 89//89 20//20
f 87//87 88//88 90//90
f 87//87 90//90 89//89
f 20//20 89//89 91//91
f 20//20 91//91 21//21
f 89//89 90//90 92//92
f 89//89 92//92 91//91
f 21//21 91//91 93//93
f 21//21 93//93 22//22
f 91//91 92//92 94//94
f 91//91 94//94 93//93
f 22//22 93//93 95//95
f 22//22 95//95 23//23
f 93//93 94//94 96//96
f 93//93 96//96 95//95
f 23//23 95//95 97//97
f 23//23 97//97 24//24
f 95//95 96//96 98//98
f 95//95 98//98 97//97
f 24//24 97//97 99//99
f 24//24 99//99 25//25
f 97//97 98//98 100//100
f 97//97 100//100 99//99
f 25//25 99//99 79//79
f 25//25 79//79 26//26
f 99//99 100//100 80//80
f 99//99 80//80 79//79
