# axle_pin_1.obj
# 100 vertices, 144 triangles

v 0.22166270 2.20564461 -0.13894849
v 0.22166270 2.20875883 -0.13583447
v 0.22166272 2.20139122 -0.13158059
v 0.22166272 2.20139122 -0.14008829
v 0.22166270 2.19713736 -0.13894849
v 0.22166270 2.19402313 -0.13583447
v 0.22166270 2.19288349 -0.13158059
v 0.22166270 2.19402313 -0.12732673
v 0.22166270 2.19713736 -0.12421274
v 0.22166272 2.20139122 -0.12307292
v 0.22166270 2.20564461 -0.12421274
v 0.22166270 2.20875883 -0.12732673
v 0.22166270 2.20989847 -0.13158059
v 0.07860588 2.20875907 -0.13583447
v 0.07860587 2.20564485 -0.13894849
v 0.07860587 2.20139122 -0.13158059
v 0.07860587 2.20139122 -0.14008829
v 0.07860586 2.19713736 -0.13894849
v 0.07860586 2.19402313 -0.13583447
v 0.07860586 2.19288349 -0.13158059
v 0.07860586 2.19402313 -0.12732673
v 0.07860586 2.19713736 -0.12421274
v 0.07860587 2.20139122 -0.12307292
v 0.07860587 2.20564485 -0.12421274
v 0.07860588 2.20875907 -0.12732673
v 0.07860586 2.20989871 -0.13158059
v 0.21344662 2.21612549 -0.14008740
v 0.21344662 2.20989752 -0.14631480
v 0.08682194 2.20989776 -0.14631480
v 0.08682197 2.21612549 -0.14008740
v 0.21344662 2.20139122 -0.14859420
v 0.08682195 2.20139122 -0.14859420
v 0.21344662 2.19288445 -0.14631480
v 0.08682194 2.19288445 -0.14631480
v 0.21344662 2.18665695 -0.14008740
v 0.08682197 2.18665695 -0.14008740
v 0.21344662 2.18437719 -0.13158059
v 0.08682197 2.18437743 -0.13158059
v 0.21344662 2.18437719 -0.13158059
v 0.21344662 2.18665695 -0.12307379
v 0.08682197 2.18665695 -0.12307379
v 0.08682197 2.18437743 -0.13158059
v 0.21344662 2.19288445 -0.11684638
v 0.08682194 2.19288445 -0.11684638
v 0.21344662 2.20139122 -0.11456698
v 0.08682195 2.20139122 -0.11456698
v 0.21344662 2.20989752 -0.11684638
v 0.08682194 2.20989776 -0.11684638
v 0.21344662 2.21612549 -0.12307379
v 0.08682197 2.21612549 -0.12307379
v 0.21344662 2.21840477 -0.13158059
v 0.08682197 2.21840453 -0.13158059
v 0.21344662 2.21612549 -0.14008740
v 0.21775475 2.21396756 -0.13884175
v 0.21775475 2.20865178 -0.14415726
v 0.21344662 2.20989752 -0.14631480
v 0.21775474 2.20139146 -0.14610288
v 0.21344662 2.20139122 -0.14859420
v 0.21775472 2.19413018 -0.14415726
v 0.21344662 2.19288445 -0.14631480
v 0.21775472 2.18881440 -0.13884175
v 0.21344662 2.18665695 -0.14008740
v 0.21775472 2.18686891 -0.13158059
v 0.21344662 2.18437719 -0.13158059
v 0.21775472 2.18881440 -0.12431946
v 0.21344662 2.18665695 -0.12307379
v 0.21775472 2.19413018 -0.11900395
v 0.21344662 2.19288445 -0.11684638
v 0.21775474 2.20139146 -0.11705834
v 0.21344662 2.20139122 -0.11456698
v 0.21775475 2.20865178 -0.11900395
v 0.21344662 2.20989752 -0.11684638
v 0.21775475 2.21396756 -0.12431946
v 0.21344662 2.21612549 -0.12307379
v 0.21775475 2.21591306 -0.13158059
v 0.21344662 2.21840477 -0.13158059
v 0.08682197 2.21612549 -0.14008740
v 0.08251384 2.21396756 -0.13884175
v 0.08251381 2.21591330 -0.13158059
v 0.08682197 2.21840453 -0.13158059
v 0.08251384 2.20865202 -0.14415726
v 0.08682194 2.20989776 -0.14631480
v 0.08251383 2.20139122 -0.14610288
v 0.08682195 2.20139122 -0.14859420
v 0.08251384 2.19413018 -0.14415726
v 0.08682194 2.19288445 -0.14631480
v 0.08251381 2.18881464 -0.13884175
v 0.08682197 2.18665695 -0.14008740
v 0.08251381 2.18686891 -0.13158059
v 0.08682197 2.18437743 -0.13158059
v 0.08251381 2.18881464 -0.12431946
v 0.08682197 2.18665695 -0.12307379
v 0.08251384 2.19413018 -0.11900395
v 0.08682194 2.19288445 -0.11684638
v 0.08251383 2.20139122 -0.11705834
v 0.08682195 2.20139122 -0.11456698
v 0.08251384 2.20865202 -0.11900395
v 0.08682194 2.20989776 -0.11684638
v 0.08251384 2.21396756 -0.12431946
v 0.08682197 2.21612549 -0.12307379

vn 0.90499425 0.21271472 -0.36842629
vn 0.90499395 0.36842546 -0.21271753
vn 1.00000000 -0.00000000 -0.00000000
vn 0.90499985 -0.00000193 -0.42541194
vn 0.90499455 -0.21270400 -0.36843172
vn 0.90499407 -0.36842167 -0.21272352
vn 0.90499848 -0.42541498 0.00000012
vn 0.90499336 -0.36842296 0.21272428
vn 0.90499425 -0.21270426 0.36843249
vn 0.90499932 -0.00000203 0.42541298
vn 0.90499425 0.21271461 0.36842635
vn 0.90499365 0.36842573 0.21271829
vn 0.90499645 0.42541924 -0.00000016
vn -0.90499419 0.36843139 -0.21270609
vn -0.90499860 0.21271352 -0.36841643
vn -1.00000000 0.00000054 -0.00000000
vn -0.90499580 0.00000066 -0.42542049
vn -0.90499383 -0.21270519 -0.36843282
vn -0.90499210 -0.36842558 -0.21272494
vn -0.90499753 -0.42541704 0.00000007
vn -0.90499163 -0.36842611 0.21272606
vn -0.90499371 -0.21270517 0.36843300
vn -0.90499574 0.00000002 0.42542064
vn -0.90499842 0.21271315 0.36841682
vn -0.90499461 0.36843094 0.21270515
vn -0.90499616 0.42541981 -0.00000196
vn 0.01625517 0.86590415 -0.49994594
vn 0.01625447 0.49993899 -0.86590815
vn -0.01625391 0.49993926 -0.86590791
vn -0.01625445 0.86590415 -0.49994588
vn 0.01625363 0.00000276 -0.99986792
vn -0.01625367 0.00000307 -0.99986792
vn 0.01625372 -0.49992329 -0.86591715
vn -0.01625371 -0.49992338 -0.86591709
vn 0.01625377 -0.86589867 -0.49995533
vn -0.01625469 -0.86589861 -0.49995542
vn 0.01625347 -0.99986792 0.00000000
vn -0.01625552 -0.99986792 0.00000000
vn 0.01625347 -0.99986792 0.00000000
vn 0.01625385 -0.86589867 0.49995536
vn -0.01625475 -0.86589867 0.49995548
vn -0.01625552 -0.99986792 0.00000000
vn 0.01625387 -0.49992329 0.86591727
vn -0.01625380 -0.49992341 0.86591715
vn 0.01625379 0.00000277 0.99986792
vn -0.01625379 0.00000307 0.99986792
vn 0.01625461 0.49993894 0.86590815
vn -0.01625404 0.49993926 0.86590791
vn 0.01625526 0.86590415 0.49994594
vn -0.01625450 0.86590409 0.49994600
vn 0.01625516 0.99986792 -0.00000000
vn -0.01625578 0.99986792 0.00000004
vn 0.01625517 0.86590415 -0.49994594
vn 0.67294055 0.64059222 -0.36985499
vn 0.67292148 0.36985841 -0.64061028
vn 0.01625447 0.49993899 -0.86590815
vn 0.67292202 0.00000487 -0.73971349
vn 0.01625363 0.00000276 -0.99986792
vn 0.67292398 -0.36984780 -0.64061368
vn 0.01625372 -0.49992329 -0.86591715
vn 0.67292696 -0.64060217 -0.36986244
vn 0.01625377 -0.86589867 -0.49995533
vn 0.67293298 -0.73970348 0.00000011
vn 0.01625347 -0.99986792 0.00000000
vn 0.67292768 -0.64060169 0.36986190
vn 0.01625385 -0.86589867 0.49995536
vn 0.67292500 -0.36984715 0.64061302
vn 0.01625387 -0.49992329 0.86591727
vn 0.67292303 0.00000485 0.73971248
vn 0.01625379 0.00000277 0.99986792
vn 0.67292279 0.36985749 0.64060944
vn 0.01625461 0.49993894 0.86590815
vn 0.67294079 0.64059240 0.36985421
vn 0.01625526 0.86590415 0.49994594
vn 0.67294520 0.73969233 -0.00000015
vn 0.01625516 0.99986792 -0.00000000
vn -0.01625445 0.86590415 -0.49994588
vn -0.67293262 0.64060467 -0.36984771
vn -0.67292607 0.73970979 -0.00000043
vn -0.01625578 0.99986792 0.00000004
vn -0.67292798 0.36985758 -0.64060384
vn -0.01625391 0.49993926 -0.86590791
vn -0.67292315 0.00000080 -0.73971236
vn -0.01625367 0.00000307 -0.99986792
vn -0.67292482 -0.36985293 -0.64060986
vn -0.01625371 -0.49992338 -0.86591709
vn -0.67292517 -0.64060277 -0.36986464
vn -0.01625469 -0.86589861 -0.49995542
vn -0.67292571 -0.73971015 0.00000002
vn -0.01625552 -0.99986792 0.00000000
vn -0.67292547 -0.64060253 0.36986455
vn -0.01625475 -0.86589867 0.49995548
vn -0.67292535 -0.36985311 0.64060920
vn -0.01625380 -0.49992341 0.86591715
vn -0.67292446 0.00000053 0.73971128
vn -0.01625379 0.00000307 0.99986792
vn -0.67292905 0.36985704 0.64060313
vn -0.01625404 0.49993926 0.86590791
vn -0.67293346 0.64060402 0.36984748
vn -0.01625450 0.86590409 0.49994600

f 1//1 2//2 3//3
f 4//4 1//1 3//3
f 5//5 4//4 3//3
f 6//6 5//5 3//3
f 7//7 6//6 3//3
f 8//8 7//7 3//3
f 9//9 8//8 3//3
f 10//10 9//9 3//3
f 11//11 10//10 3//3
f 12//12 11//11 3//3
f 13//13 12//12 3//3
f 2//2 13//13 3//3
f 14//14 15//15 16//16
f 15//15 17//17 16//16
f 17//17 18//18 16//16
f 18//18 19//19 16//16
f 19//19 20//20 16//16
f 20//20 21//21 16//16
f 21//21 22//22 16//16
f 22//22 23//23 16//16
f 23//23 24//24 16//16
f 24//24 25//25 16//16
f 25//25 26//26 16//16
f 26//26 14//14 16//16
f 27//27 28//28 29//29
f 27//27 29//29 30//30
f 28//28 31//31 32//32
f 28//28 32//32 29//29
f 31//31 33//33 34//34
f 31//31 34//34 32//32
f 33//33 35//35 36//36
f 33//33 36//36 34//34
f 35//35 37//37 38//38
f 35//35 38//38 36//36
f 39//39 40//40 41//41
f 39//39 41//41 42//42
f 40//40 43//43 44//44
f 40//40 44//44 41//41
f 43//43 45//45 46//46
f 43//43 46//46 44//44
f 45//45 47//47 48//48
f 45//45 48//48 46//46
f 47//47 49//49 50//50
f 47//47 50//50 48//48
f 49//49 51//51 52//52
f 49//49 52//52 50//50
f 51//51 27//27 30//30
f 51//51 30//30 52//52
f 53//53 54//54 55//55
f 53//53 55//55 56//56
f 54//54 2//2 1//1
f 54//54 1//1 55//55
f 56//56 55//55 57//57
f 56//56 57//57 58//58
f 55//55 1//1 4//4
f 55//55 4//4 57//57
f 58//58 57//57 59//59
f 58//58 59//59 60//60
f 57//57 4//4 5//5
f 57//57 5//5 59//59
f 60//60 59//59 61//61
f 60//60 61//61 62//62
f 59//59 5//5 6//6
f 59//59 6//6 61//61
f 62//62 61//61 63//63
f 62//62 63//63 64//64
f 61//61 6//6 7//7
f 61//61 7//7 63//63
f 64//64 63//63 65//65
f 64//64 65//65 66//66
f 63//63 7//7 8//8
f 63//63 8//8 65//65
f 66//66 65//65 67//67
f 66//66 67//67 68//68
f 65//65 8//8 9//9
f 65//65 9//9 67//67
f 68//68 67//67 69//69
f 68//68 69//69 70//70
f 67//67 9//9 10//10
f 67//67 10//10 69//69
f 70//70 69//69 71//71
f 70//70 71//71 72//72
f 69//69 10//10 11//11
f 69//69 11//11 71//71
f 72//72 71//71 73//73
f 72//72 73//73 74//74
f 71//71 11//11 12//12
f 71//71 12//12 73//73
f 74//74 73//73 75//75
f 74//74 75//75 76//76
f 73//73 12//12 13//13
f 73//73 13//13 75//75
f 2//2 54//54 75//75
f 2//2 75//75 13//13
f 54//54 53//53 76//76
f 54//54 76//76 75//75
f 77//77 78//78 79//79
f 77//77 79//79 80//80
f 78//78 14//14 26//26
f 78//78 26//26 79//79
f 14//14 78//78 81//81
f 14//14 81//81 15//15
f 78//78 77//77 82//82
f 78//78 82//82 81//81
f 15//15 81//81 83//83
f 15//15 83//83 17//17
f 81//81 82//82 84//84
f 81//81 84//84 83//83
f 17//17 83//83 85//85
f 17//17 85//85 18//18
f 83//83 84//84 86//86
f 83//83 86//86 85//85
f 18//18 85//85 87//87
f 18//18 87//87 19//19
f 85//85 86//86 88//88
f 85//85 88//88 87//87
f 19//19 87//87 89//89
f 19//19 89//89 20//20
f 87//87 88//88 90//90
f 87//87 90//90 89//89
f 20//20 89//89 91//91
f 20//20 91//91 21//21
f 89//89 90//90 92//92
f 89//89 92//92 91//91
f 21//21 91//91 93//93
f 21//21 93//93 22//22
f 91//91 92//92 94//94
f 91//91 94//94 93//93
f 22//22 93//93 95//95
f 22//22 95//95 23//23
f 93//93 94//94 96//96
f 93//93 96//96 95//95
f 23//23 95//95 97//97
f 23//23 97//97 24//24
f 95//95 96//96 98//98
f 95//95 98//98 97//97
f 24//24 97//97 99//99
f 24//24 99//99 25//25
f 97//97 98//98 100//100
f 97//97 100//100 99//99
f 25//25 99//99 79//79
f 25//25 79//79 26//26
f 99//99 100//100 80//80
f 99//99 80//80 79//79
