# base_plate.obj
# 214 vertices, 206 triangles

v -0.06723079 2.14291787 -0.04737225
v -0.08761148 2.10038853 -0.04737225
v -0.08656646 2.12603569 -0.04737225
v 0.10532824 2.10951018 -0.05276635
v 0.08790221 2.08215523 -0.04805722
v 0.05746970 2.18308258 -0.04737225
v -0.07535796 2.06836319 -0.04737225
v 0.08380638 2.04212117 -0.04760705
v 0.09145556 2.04212117 0.04682817
v 0.10094651 2.08215523 0.04578502
v -0.07535796 2.06836319 0.04737225
v 0.05746970 2.18308258 0.04737225
v 0.14132653 2.10951018 0.03487296
v -0.08761148 2.10038853 0.04737225
v -0.06723079 2.14291787 0.04737225
v -0.08656646 2.12603569 0.04737225
v 0.08912099 2.19380236 -0.04952474
v 0.10147877 2.19380236 0.04571017
v -0.27040952 1.56352854 0.04737225
v -0.12456503 1.49357784 0.04737225
v -0.02381805 1.60014009 0.04737225
v -0.18238175 1.65679717 0.04737225
v -0.06723079 2.14291787 -0.04737225
v -0.06723079 2.14291787 0.04737225
v 0.05746970 2.18308258 0.04737225
v 0.05746970 2.18308258 -0.04737225
v -0.18238175 1.65679717 -0.04737225
v -0.02381805 1.60014009 -0.04737225
v -0.12456503 1.49357784 -0.04737225
v -0.27040952 1.56352854 -0.04737225
v -0.12456503 1.49357784 0.04737225
v -0.12456503 1.49357784 -0.04737225
v -0.02381805 1.60014009 -0.04737225
v -0.02381805 1.60014009 0.04737225
v -0.27040952 1.56352854 -0.04737225
v -0.27040952 1.56352854 0.04737225
v -0.18238175 1.65679717 0.04737225
v -0.18238175 1.65679717 -0.04737225
v -0.06648257 1.95364380 -0.04737225
v 0.08694173 1.95364380 -0.04883780
v 0.05915802 1.78112411 -0.04737225
v -0.10745271 1.80698466 -0.04737225
v 0.05915802 1.78112411 0.04737225
v 0.05915802 1.78112411 -0.04737225
v 0.08694173 1.95364380 -0.04883780
v 0.08694173 1.95364380 0.04397625
v -0.10745271 1.80698466 0.04737225
v 0.05915802 1.78112411 0.04737225
v 0.08694173 1.95364380 0.04397625
v -0.06648257 1.95364380 0.04737225
v -0.10745271 1.80698466 -0.04737225
v -0.10745271 1.80698466 0.04737225
v -0.06648257 1.95364380 0.04737225
v -0.06648257 1.95364380 -0.04737225
v -0.54337764 1.38590622 0.04737225
v -0.38918114 1.31770527 0.04737225
v -0.27954230 1.40168023 0.04737225
v -0.40499640 1.49222231 0.04737225
v -0.38918114 1.31770527 0.04737225
v -0.38918114 1.31770527 -0.04737225
v -0.27954230 1.40168023 -0.04737225
v -0.27954230 1.40168023 0.04737225
v -0.40499640 1.49222231 -0.04737225
v -0.27954230 1.40168023 -0.04737225
v -0.38918114 1.31770527 -0.04737225
v -0.54337764 1.38590622 -0.04737225
v -0.54337764 1.38590622 -0.04737225
v -0.54337764 1.38590622 0.04737225
v -0.40499640 1.49222231 0.04737225
v -0.40499640 1.49222231 -0.04737225
v 0.08380638 2.04212117 -0.04760705
v 0.09145556 2.04212117 0.04682817
v -0.07535796 2.06836319 0.04737225
v -0.07535796 2.06836319 -0.04737225
v -0.48973742 0.98215353 0.04737225
v -0.48973742 0.98215353 -0.04737225
v -0.49624127 1.09483790 -0.04737225
v -0.49624127 1.09483790 0.04737225
v -0.65707803 0.96153688 0.04737225
v -0.48973742 0.98215353 0.04737225
v -0.49624127 1.09483790 0.04737225
v -0.66484702 1.09483790 0.04737225
v -0.65707803 0.96153688 -0.04737225
v -0.65707803 0.96153688 0.04737225
v -0.66484702 1.09483790 0.04737225
v -0.66484702 1.09483790 -0.04737225
v -0.66484702 1.09483790 -0.04737225
v -0.49624127 1.09483790 -0.04737225
v -0.48973742 0.98215353 -0.04737225
v -0.65707803 0.96153688 -0.04737225
v -0.25726509 0.18555737 0.04737225
v -0.08865927 0.18555737 0.04737225
v -0.11888772 0.32603356 0.04737225
v -0.28223434 0.29672372 0.04737225
v -0.08865927 0.18555737 0.04737225
v -0.08865927 0.18555737 -0.04737225
v -0.11888772 0.32603356 -0.04737225
v -0.11888772 0.32603356 0.04737225
v -0.28223434 0.29672372 -0.04737225
v -0.11888772 0.32603356 -0.04737225
v -0.08865927 0.18555737 -0.04737225
v -0.25726509 0.18555737 -0.04737225
v -0.25726509 0.18555737 -0.04737225
v -0.25726509 0.18555737 0.04737225
v -0.28223434 0.29672372 0.04737225
v -0.28223434 0.29672372 -0.04737225
v -0.25652122 -0.00993890 0.04737225
v -0.08791541 -0.00993890 0.04737225
v -0.08791541 -0.00993890 0.04737225
v -0.08791541 -0.00993890 -0.04737225
v -0.08791541 -0.00993890 -0.04737225
v -0.25652122 -0.00993890 -0.04737225
v -0.25652122 -0.00993890 -0.04737225
v -0.25652122 -0.00993890 0.04737225
v -0.46734300 1.20157409 -0.04737225
v -0.46734300 1.20157409 0.04737225
v -0.46734300 1.20157409 0.04737225
v -0.63278431 1.23408711 0.04737225
v -0.63278431 1.23408711 0.04737225
v -0.63278431 1.23408711 -0.04737225
v -0.63278431 1.23408711 -0.04737225
v -0.46734300 1.20157409 -0.04737225
v 0.20545436 2.19240355 -0.16550988
v 0.14999390 2.19240355 -0.16550988
v 0.14999390 2.22361374 -0.15801600
v 0.20545436 2.22361374 -0.15801600
v -0.08761148 2.10038853 0.04737225
v -0.08761148 2.10038853 -0.04737225
v -0.08656646 2.12603569 0.04737225
v -0.08656646 2.12603569 -0.04737225
v 0.20341486 2.13935757 -0.02557122
v 0.13887328 2.13935757 -0.08968151
v 0.14736220 2.15428114 -0.11969413
v 0.21335858 2.15428114 -0.07815789
v 0.13242553 2.21524167 -0.08565795
v 0.18225482 2.21524167 0.00052572
v 0.20393381 2.22596145 -0.04707111
v 0.14395742 2.22596145 -0.11128995
v 0.21103264 2.23668098 -0.12051603
v 0.21011283 2.16920471 -0.14839511
v 0.20545436 2.19240355 -0.16550988
v 0.20545436 2.22361374 -0.15801600
v 0.14997506 2.16920471 -0.15081547
v 0.14931150 2.23668098 -0.14160439
v 0.14999390 2.22361374 -0.15801600
v 0.14999390 2.19240355 -0.16550988
v 0.08790221 2.08215523 -0.04805722
v 0.10094651 2.08215523 0.04578502
v 0.10532824 2.10951018 -0.05276635
v 0.14132653 2.10951018 0.03487296
v 0.14997506 2.16920471 -0.15081547
v 0.21011283 2.16920471 -0.14839511
v 0.14999390 2.22361374 -0.15801600
v 0.14931150 2.23668098 -0.14160439
v 0.21103264 2.23668098 -0.12051603
v 0.20545436 2.22361374 -0.15801600
v 0.13887328 2.13935757 -0.08968151
v 0.13242553 2.21524167 -0.08565795
v 0.14395742 2.22596145 -0.11128995
v 0.14736220 2.15428114 -0.11969413
v 0.18225482 2.21524167 0.00052572
v 0.20341486 2.13935757 -0.02557122
v 0.21335858 2.15428114 -0.07815789
v 0.20393381 2.22596145 -0.04707111
v 0.10147877 2.19380236 0.04571017
v 0.08912099 2.19380236 -0.04952474
v 0.12387093 2.12443376 -0.06560703
v 0.11341062 2.20452189 -0.06315646
v 0.11341062 2.20452189 -0.06315646
v 0.14721367 2.20452189 0.03103305
v 0.14721367 2.20452189 0.03103305
v 0.17872849 2.12443376 0.01096210
v 0.17872849 2.12443376 0.01096210
v 0.12387093 2.12443376 -0.06560703
v -0.16534325 0.46033394 -0.04737225
v -0.16534325 0.46033394 0.04737225
v -0.16534325 0.46033394 0.04737225
v -0.32343066 0.40171427 0.04737225
v -0.32343066 0.40171427 0.04737225
v -0.32343066 0.40171427 -0.04737225
v -0.32343066 0.40171427 -0.04737225
v -0.16534325 0.46033394 -0.04737225
v -0.46068862 0.63229162 0.04749464
v -0.39893633 0.54341584 0.04737225
v -0.24797206 0.61747700 0.04737225
v -0.31004497 0.70616245 0.04713964
v -0.39893633 0.54341584 0.04737225
v -0.46068862 0.63229162 0.04749464
v -0.46035010 0.63252634 -0.04716256
v -0.39895192 0.54344153 -0.04737225
v -0.31004497 0.70616245 0.04713964
v -0.24797206 0.61747700 0.04737225
v -0.24799140 0.61750960 -0.04737225
v -0.30965891 0.70643550 -0.04749695
v -0.30965891 0.70643550 -0.04749695
v -0.24799140 0.61750960 -0.04737225
v -0.39895192 0.54344153 -0.04737225
v -0.46035010 0.63252634 -0.04716256
v -0.54508495 0.72482067 0.04777661
v -0.60423708 0.81769764 0.04778024
v -0.60809344 0.82561505 -0.04665286
v -0.54947358 0.73247629 -0.04664131
v -0.60423708 0.81769764 0.04778024
v -0.54508495 0.72482067 0.04777661
v -0.38785392 0.78790665 0.04666447
v -0.44923490 0.87966764 0.04669766
v -0.44923490 0.87966764 0.04669766
v -0.38785392 0.78790665 0.04666447
v -0.39229205 0.79552519 -0.04777436
v -0.45312652 0.88756263 -0.04774207
v -0.45312652 0.88756263 -0.04774207
v -0.39229205 0.79552519 -0.04777436
v -0.54947358 0.73247629 -0.04664131
v -0.60809344 0.82561505 -0.04665286

vn 0.00000000 0.00000000 -1.00000000
vn 0.00000000 0.00000000 -1.00000000
vn 0.00000000 0.00000000 -1.00000000
vn -0.32418928 -0.04431226 -0.94495392
vn -0.01653541 -0.00257699 -0.99986005
vn -0.01849020 0.00556836 -0.99981356
vn -0.00394365 0.00422874 -0.99998337
vn -0.00470523 0.00328202 -0.99998355
vn 0.01046559 -0.00717860 0.99991953
vn 0.04826058 0.01338509 0.99874514
vn 0.00885566 -0.01002842 0.99991053
vn 0.02951982 -0.01407820 0.99946511
vn 0.33222246 0.02278058 0.94292593
vn 0.00000000 0.00000000 1.00000000
vn 0.00000000 0.00000000 1.00000000
vn 0.00000000 0.00000000 1.00000000
vn -0.36470202 -0.02639562 -0.93075013
vn 0.28277388 -0.03286444 0.95862347
vn -0.00000001 0.00000000 1.00000000
vn -0.00000000 0.00000000 1.00000000
vn -0.00000001 0.00000000 1.00000000
vn -0.00000001 0.00000000 1.00000000
vn -0.36823025 0.92973465 0.00000000
vn -0.36823025 0.92973465 0.00000000
vn -0.29869494 0.95434016 0.00402603
vn -0.29829922 0.95446306 0.00422774
vn 0.00000000 0.00000000 -1.00000000
vn 0.00000000 0.00000000 -1.00000000
vn -0.00000000 0.00000000 -1.00000000
vn -0.00000001 0.00000000 -1.00000000
vn 0.61309952 -0.79000568 0.00000000
vn 0.61309952 -0.79000568 0.00000000
vn 0.84267914 -0.53841627 0.00000000
vn 0.84267914 -0.53841627 0.00000000
vn -0.59446955 0.80411816 0.00000000
vn -0.59446955 0.80411816 0.00000000
vn -0.83102053 0.55624175 0.00000000
vn -0.83102053 0.55624175 0.00000000
vn -0.00489731 -0.00026519 -0.99998802
vn -0.00490145 0.00016269 -0.99998802
vn -0.00248997 -0.00181336 -0.99999535
vn -0.00194374 -0.00141556 -0.99999714
vn 0.95379716 -0.30045137 0.00000000
vn 0.95415753 -0.29930514 0.00000000
vn 0.99402350 -0.10830142 -0.01371822
vn 0.99406463 -0.10791013 -0.01382363
vn 0.00450401 0.00328013 0.99998456
vn 0.00576967 0.00420188 0.99997455
vn 0.01123163 -0.00098734 0.99993646
vn 0.01123768 0.00032171 0.99993688
vn -0.93151754 0.36369660 0.00000000
vn -0.93151754 0.36369660 0.00000000
vn -0.99254555 0.12187500 0.00000000
vn -0.99254555 0.12187500 0.00000000
vn 0.00000002 0.00000000 1.00000000
vn 0.00000002 0.00000000 1.00000000
vn 0.00000000 0.00000000 1.00000000
vn 0.00000001 0.00000000 1.00000000
vn 0.72917128 -0.68433124 0.00000000
vn 0.72917128 -0.68433124 0.00000000
vn 0.55352706 -0.83283126 0.00000000
vn 0.55352706 -0.83283126 0.00000000
vn 0.00000001 0.00000000 -1.00000000
vn 0.00000000 0.00000000 -1.00000000
vn 0.00000001 0.00000000 -1.00000000
vn 0.00000001 0.00000000 -1.00000000
vn -0.74980682 0.66165686 0.00000000
vn -0.74980682 0.66165686 0.00000000
vn -0.54540503 0.83817267 0.00000000
vn -0.54540503 0.83817267 0.00000000
vn 0.99637955 -0.05801728 -0.06214355
vn 0.99630749 -0.05886903 -0.06249753
vn -0.98979276 -0.14251442 0.00000000
vn -0.98979276 -0.14251442 0.00000000
vn 0.97807688 0.20823562 -0.00192935
vn 0.97797376 0.20871888 -0.00193557
vn 0.99483216 -0.10153410 0.00000000
vn 0.99483216 -0.10153410 0.00000000
vn 0.00160157 0.00008386 0.99999881
vn 0.00178797 0.00009362 0.99999845
vn 0.00000000 0.00000000 1.00000000
vn 0.00000000 0.00000000 1.00000000
vn -0.97777283 -0.20965104 0.00257365
vn -0.97769827 -0.20999862 0.00257958
vn -0.99605101 0.08878285 0.00000000
vn -0.99605101 0.08878285 0.00000000
vn 0.00000000 0.00000000 -1.00000000
vn 0.00000000 0.00000000 -1.00000000
vn -0.00142445 -0.00131987 -0.99999815
vn -0.00127653 -0.00118281 -0.99999857
vn 0.00000000 0.00000000 1.00000000
vn 0.00000000 0.00000000 1.00000000
vn 0.00000001 0.00000000 1.00000000
vn 0.00000001 0.00000000 1.00000000
vn 0.99577767 0.09179781 0.00000000
vn 0.99577767 0.09179781 0.00000000
vn 0.96319437 0.26880601 0.00000000
vn 0.96319437 0.26880601 0.00000000
vn 0.00000000 0.00000000 -1.00000000
vn 0.00000000 0.00000000 -1.00000000
vn 0.00000000 0.00000000 -1.00000000
vn 0.00000000 0.00000000 -1.00000000
vn -0.99650323 -0.08355501 0.00000000
vn -0.99650323 -0.08355501 0.00000000
vn -0.95620614 -0.29269439 0.00000000
vn -0.95620614 -0.29269439 0.00000000
vn 0.00000000 0.00000000 1.00000000
vn 0.00000000 0.00000000 1.00000000
vn 0.99999279 0.00380497 0.00000000
vn 0.99999279 0.00380497 0.00000000
vn 0.00000000 0.00000000 -1.00000000
vn 0.00000000 0.00000000 -1.00000000
vn -0.99999279 -0.00380497 0.00000000
vn -0.99999279 -0.00380497 0.00000000
vn 0.90139091 -0.43300650 0.00000000
vn 0.90139091 -0.43300650 0.00000000
vn 0.00000001 0.00000000 1.00000000
vn 0.00000001 0.00000000 1.00000000
vn -0.92286193 0.38513103 0.00000000
vn -0.92286193 0.38513103 0.00000000
vn 0.00000000 0.00000000 -1.00000000
vn 0.00000000 0.00000000 -1.00000000
vn 0.00948062 -0.18212292 -0.98323011
vn 0.00902206 -0.16101106 -0.98691142
vn 0.04374151 0.62246627 -0.78142345
vn 0.04515263 0.63419628 -0.77185249
vn -0.98163325 -0.19077787 0.00000000
vn -0.98163325 -0.19077787 0.00000000
vn -0.90179914 0.43215567 0.00000000
vn -0.90179914 0.43215567 0.00000000
vn 0.27581000 -0.92362934 -0.26615342
vn 0.25947595 -0.92636710 -0.27297667
vn 0.15170382 -0.94688320 -0.28354597
vn 0.18706417 -0.94029993 -0.28432932
vn -0.24612510 0.95712209 0.15277398
vn -0.25294146 0.95752293 0.13845800
vn -0.20365827 0.96292216 0.17693050
vn -0.16747008 0.96905404 0.18135117
vn 0.99882525 0.04709084 0.01142811
vn 0.99886960 0.04753464 -0.00030289
vn 0.98322970 0.05334546 -0.17439549
vn 0.98322970 0.05334546 -0.17439547
vn -0.99262714 -0.01098207 -0.12070972
vn -0.99326223 -0.01053395 -0.11540867
vn -0.99972159 -0.00275554 -0.02343450
vn -0.99972159 -0.00275554 -0.02343450
vn 0.86131155 -0.48516083 -0.15086874
vn 0.87050575 -0.46908185 -0.14893652
vn 0.51474881 -0.83616304 -0.18938123
vn 0.52290326 -0.83122867 -0.18876201
vn 0.07578505 -0.87240279 -0.48287684
vn 0.07851464 -0.88384664 -0.46114048
vn 0.04374151 0.62246627 -0.78142345
vn -0.05258126 0.99694151 -0.05781830
vn -0.08423470 0.99565160 0.03978148
vn 0.04515263 0.63419628 -0.77185249
vn -0.85296148 -0.05062554 -0.51951325
vn -0.88354576 -0.04495485 -0.46618238
vn -0.97331554 -0.02110319 -0.22849847
vn -0.96339107 -0.02476458 -0.26695427
vn 0.85077327 0.06135023 0.52193981
vn 0.87025988 0.06359990 0.48846999
vn 0.98750585 0.05726519 0.14680961
vn 0.98089355 0.06090388 0.18476638
vn -0.26995859 0.96200299 0.04089748
vn -0.26973701 0.96194547 0.04362249
vn -0.62250954 -0.05590237 -0.78061318
vn -0.68390578 -0.05777389 -0.72727919
vn -0.26401642 0.95951813 0.09808375
vn -0.26505581 0.96006513 0.08955704
vn 0.56152874 0.02720587 0.82700992
vn 0.59269822 0.03092229 0.80483085
vn 0.33201626 -0.91630155 -0.22395729
vn 0.32643580 -0.91688782 -0.22968742
vn 0.91432744 0.40497595 -0.00000580
vn 0.91432744 0.40497595 -0.00000580
vn 0.00000002 0.00000000 1.00000000
vn 0.00000002 0.00000000 1.00000000
vn -0.90395099 -0.42763609 0.00000533
vn -0.90395099 -0.42763609 0.00000533
vn 0.00000001 0.00000000 -1.00000000
vn 0.00000001 0.00000000 -1.00000000
vn 0.00202459 0.00272419 0.99999428
vn 0.00027003 0.00044609 0.99999994
vn 0.00023386 0.00038634 1.00000000
vn 0.00168504 0.00231654 0.99999595
vn -0.85967112 -0.51084721 -0.00087531
vn -0.78051400 -0.62509251 -0.00756738
vn -0.78064495 -0.62492931 -0.00755132
vn -0.85968745 -0.51081979 -0.00087470
vn 0.77503127 0.63187307 0.00794654
vn 0.86223990 0.50649941 0.00094490
vn 0.86219352 0.50657815 0.00094675
vn 0.77490693 0.63202536 0.00796065
vn -0.00228484 -0.00110845 -0.99999678
vn -0.00036142 -0.00007777 -1.00000000
vn -0.00041593 -0.00008950 -0.99999994
vn -0.00267002 -0.00137663 -0.99999559
vn -0.78944784 -0.61373639 -0.00999671
vn -0.90181845 -0.43211472 -0.00064210
vn -0.90722865 -0.42063802 0.00007029
vn -0.79537135 -0.60604459 -0.00972125
vn 0.00430821 0.00158933 0.99998951
vn 0.00454070 0.00366417 0.99998301
vn 0.00406996 0.00374364 0.99998474
vn 0.00444109 0.00177856 0.99998856
vn 0.88320744 0.46897364 0.00290670
vn 0.77879637 0.62717903 0.01108051
vn 0.78499746 0.61940432 0.01083090
vn 0.88889182 0.45811206 0.00217701
vn -0.00421436 -0.00304638 -0.99998653
vn -0.00453263 -0.00270398 -0.99998611
vn -0.00486173 -0.00294689 -0.99998391
vn -0.00405529 -0.00299107 -0.99998730

f 1//1 2//2 3//3
f 4//4 5//5 6//6
f 6//6 5//5 7//7
f 7//7 5//5 8//8
f 9//9 10//10 11//11
f 11//11 10//10 12//12
f 12//12 10//10 13//13
f 14//14 15//15 16//16
f 4//4 6//6 17//17
f 12//12 13//13 18//18
f 19//19 20//20 21//21
f 19//19 21//21 22//22
f 23//23 24//24 25//25
f 23//23 25//25 26//26
f 27//27 28//28 29//29
f 27//27 29//29 30//30
f 31//31 32//32 33//33
f 31//31 33//33 34//34
f 35//35 36//36 37//37
f 35//35 37//37 38//38
f 39//39 40//40 41//41
f 39//39 41//41 42//42
f 43//43 44//44 45//45
f 43//43 45//45 46//46
f 47//47 48//48 49//49
f 47//47 49//49 50//50
f 51//51 52//52 53//53
f 51//51 53//53 54//54
f 55//55 56//56 57//57
f 55//55 57//57 58//58
f 59//59 60//60 61//61
f 59//59 61//61 62//62
f 63//63 64//64 65//65
f 63//63 65//65 66//66
f 67//67 68//68 69//69
f 67//67 69//69 70//70
f 7//7 8//8 40//40
f 7//7 40//40 39//39
f 46//46 45//45 71//71
f 46//46 71//71 72//72
f 50//50 49//49 9//9
f 50//50 9//9 11//11
f 54//54 53//53 73//73
f 54//54 73//73 74//74
f 75//75 76//76 77//77
f 75//75 77//77 78//78
f 79//79 80//80 81//81
f 79//79 81//81 82//82
f 83//83 84//84 85//85
f 83//83 85//85 86//86
f 87//87 88//88 89//89
f 87//87 89//89 90//90
f 91//91 92//92 93//93
f 91//91 93//93 94//94
f 95//95 96//96 97//97
f 95//95 97//97 98//98
f 99//99 100//100 101//101
f 99//99 101//101 102//102
f 103//103 104//104 105//105
f 103//103 105//105 106//106
f 107//107 108//108 92//92
f 107//107 92//92 91//91
f 109//109 110//110 96//96
f 109//109 96//96 95//95
f 102//102 101//101 111//111
f 102//102 111//111 112//112
f 113//113 114//114 104//104
f 113//113 104//104 103//103
f 78//78 77//77 115//115
f 78//78 115//115 116//116
f 82//82 81//81 117//117
f 82//82 117//117 118//118
f 86//86 85//85 119//119
f 86//86 119//119 120//120
f 121//121 122//122 88//88
f 121//121 88//88 87//87
f 118//118 117//117 56//56
f 118//118 56//56 55//55
f 116//116 115//115 60//60
f 116//116 60//60 59//59
f 66//66 65//65 122//122
f 66//66 122//122 121//121
f 120//120 119//119 68//68
f 120//120 68//68 67//67
f 42//42 41//41 28//28
f 42//42 28//28 27//27
f 34//34 33//33 44//44
f 34//34 44//44 43//43
f 22//22 21//21 48//48
f 22//22 48//48 47//47
f 38//38 37//37 52//52
f 38//38 52//52 51//51
f 123//123 124//124 125//125
f 123//123 125//125 126//126
f 74//74 73//73 127//127
f 74//74 127//127 128//128
f 62//62 61//61 32//32
f 62//62 32//32 31//31
f 58//58 57//57 20//20
f 58//58 20//20 19//19
f 70//70 69//69 36//36
f 70//70 36//36 35//35
f 30//30 29//29 64//64
f 30//30 64//64 63//63
f 127//127 129//129 130//130
f 127//127 130//130 128//128
f 129//129 24//24 23//23
f 129//129 23//23 130//130
f 14//14 11//11 12//12
f 14//14 12//12 15//15
f 131//131 132//132 133//133
f 131//131 133//133 134//134
f 135//135 136//136 137//137
f 135//135 137//137 138//138
f 139//139 140//140 141//141
f 139//139 141//141 142//142
f 143//143 144//144 145//145
f 143//143 145//145 146//146
f 71//71 147//147 148//148
f 71//71 148//148 72//72
f 147//147 149//149 150//150
f 147//147 150//150 148//148
f 6//6 7//7 2//2
f 6//6 2//2 1//1
f 151//151 124//124 123//123
f 151//151 123//123 152//152
f 153//153 154//154 155//155
f 153//153 155//155 156//156
f 157//157 158//158 159//159
f 157//157 159//159 160//160
f 161//161 162//162 163//163
f 161//161 163//163 164//164
f 26//26 25//25 165//165
f 26//26 165//165 166//166
f 167//167 168//168 158//158
f 167//167 158//158 157//157
f 169//169 170//170 136//136
f 169//169 136//136 135//135
f 171//171 172//172 162//162
f 171//171 162//162 161//161
f 173//173 174//174 132//132
f 173//173 132//132 131//131
f 4//4 17//17 168//168
f 4//4 168//168 167//167
f 166//166 165//165 170//170
f 166//166 170//170 169//169
f 18//18 13//13 172//172
f 18//18 172//172 171//171
f 150//150 149//149 174//174
f 150//150 174//174 173//173
f 134//134 133//133 151//151
f 134//134 151//151 152//152
f 164//164 163//163 140//140
f 164//164 140//140 139//139
f 138//138 137//137 155//155
f 138//138 155//155 154//154
f 160//160 159//159 144//144
f 160//160 144//144 143//143
f 98//98 97//97 175//175
f 98//98 175//175 176//176
f 94//94 93//93 177//177
f 94//94 177//177 178//178
f 106//106 105//105 179//179
f 106//106 179//179 180//180
f 181//181 182//182 100//100
f 181//181 100//100 99//99
f 183//183 184//184 185//185
f 183//183 185//185 186//186
f 187//187 188//188 189//189
f 187//187 189//189 190//190
f 191//191 192//192 193//193
f 191//191 193//193 194//194
f 195//195 196//196 197//197
f 195//195 197//197 198//198
f 199//199 200//200 201//201
f 199//199 201//201 202//202
f 203//203 204//204 205//205
f 203//203 205//205 206//206
f 207//207 208//208 209//209
f 207//207 209//209 210//210
f 211//211 212//212 213//213
f 211//211 213//213 214//214
f 203//203 206//206 80//80
f 203//203 80//80 79//79
f 207//207 210//210 76//76
f 207//207 76//76 75//75
f 90//90 89//89 211//211
f 90//90 211//211 214//214
f 201//201 200//200 84//84
f 201//201 84//84 83//83
f 178//178 177//177 185//185
f 178//178 185//185 184//184
f 176//176 175//175 193//193
f 176//176 193//193 192//192
f 196//196 182//182 181//181
f 196//196 181//181 197//197
f 180//180 179//179 187//187
f 180//180 187//187 190//190
f 183//183 186//186 205//205
f 183//183 205//205 204//204
f 191//191 194//194 209//209
f 191//191 209//209 208//208
f 213//213 212//212 195//195
f 213//213 195//195 198//198
f 189//189 188//188 199//199
f 189//189 199//199 202//202
