# lever_arm.obj
# 213 vertices, 266 triangles

v 0.12385710 2.27031207 -0.13241570
v 0.13122600 2.26653385 -0.12388607
v 0.11596076 2.26062822 -0.11055446
v 0.11596076 2.27136016 -0.13478151
v 0.10813636 2.27027178 -0.13232441
v 0.10077289 2.26651931 -0.12385361
v 0.09765609 2.26062822 -0.11055446
v 0.10069557 2.25472260 -0.09722288
v 0.10806443 2.25094414 -0.08869320
v 0.11596076 2.24989629 -0.08632742
v 0.12378518 2.25098467 -0.08878451
v 0.13114864 2.25473690 -0.09725533
v 0.13426544 2.26062822 -0.11055446
v 0.13556480 2.46323085 -0.03839687
v 0.12652382 2.47000504 -0.04711412
v 0.11596076 2.45306182 -0.02531121
v 0.11596076 2.47225833 -0.05001303
v 0.10519180 2.47018075 -0.04733977
v 0.09600751 2.46332932 -0.03852333
v 0.09225143 2.45306182 -0.02531121
v 0.09546110 2.44264007 -0.01190120
v 0.10443778 2.43530011 -0.00245627
v 0.11596076 2.43284512 0.00070308
v 0.12736519 2.43540144 -0.00258613
v 0.13620159 2.44271302 -0.01199492
v 0.13933688 2.45306182 -0.02531121
v 0.13688684 1.94915771 -0.15179996
v 0.13688684 1.91486478 -0.09628551
v 0.13688684 1.92864060 -0.13245061
v 0.09480157 1.91486478 -0.09628551
v 0.09480157 1.94915771 -0.15179996
v 0.09480157 1.92864060 -0.13245061
v 0.09480157 2.23157406 -0.15365407
v 0.09480157 2.23195004 -0.09609824
v 0.09480160 2.25304747 -0.14372355
v 0.13688684 2.23195004 -0.09609824
v 0.13688684 2.23157406 -0.15365407
v 0.13688684 2.25304747 -0.14372355
v 0.13868797 2.41149855 -0.06141067
v 0.13698763 2.36295223 -0.08171984
v 0.12810197 2.36742473 -0.09181643
v 0.12908232 2.41629338 -0.07223508
v 0.13868797 2.31529164 -0.10402796
v 0.12908232 2.32008648 -0.11485235
v 0.11596076 2.36906242 -0.09551348
v 0.11596076 2.41804862 -0.07619713
v 0.11596076 2.32184148 -0.11881441
v 0.10381957 2.36742473 -0.09181643
v 0.10283921 2.41629338 -0.07223508
v 0.10283921 2.32008648 -0.11485235
v 0.09493390 2.36295223 -0.08171984
v 0.09323356 2.41149855 -0.06141067
v 0.09323356 2.31529164 -0.10402796
v 0.09168238 2.35684490 -0.06793284
v 0.08971765 2.40494847 -0.04662419
v 0.08971765 2.30874157 -0.08924147
v 0.09493390 2.35073781 -0.05414584
v 0.09323356 2.39839840 -0.03183773
v 0.09323356 2.30219150 -0.07445501
v 0.10381957 2.34626508 -0.04404926
v 0.10283921 2.39360356 -0.02101331
v 0.10283921 2.29739642 -0.06363060
v 0.11596076 2.34462738 -0.04035222
v 0.11596076 2.39184833 -0.01705127
v 0.11596076 2.29564142 -0.05966855
v 0.11596076 2.39184833 -0.01705127
v 0.11596076 2.34462738 -0.04035222
v 0.12810197 2.34626508 -0.04404926
v 0.12908232 2.39360356 -0.02101331
v 0.11596076 2.29564142 -0.05966855
v 0.12908232 2.29739642 -0.06363060
v 0.13698763 2.35073781 -0.05414584
v 0.13868797 2.39839840 -0.03183773
v 0.13868797 2.30219150 -0.07445501
v 0.14023915 2.35684490 -0.06793284
v 0.14220387 2.40494847 -0.04662419
v 0.14220387 2.30874157 -0.08924147
v 0.14134182 2.27890158 -0.12304144
v 0.13060977 2.28459167 -0.13557191
v 0.11596076 2.28669906 -0.14014004
v 0.10131178 2.28459167 -0.13557191
v 0.09057970 2.27890158 -0.12304144
v 0.08664931 2.27123213 -0.10585724
v 0.09057970 2.26365852 -0.08863057
v 0.10131178 2.25820136 -0.07599676
v 0.11596076 2.25623417 -0.07136662
v 0.11596076 2.25623417 -0.07136662
v 0.13060977 2.25820136 -0.07599676
v 0.14134182 2.26365852 -0.08863057
v 0.14527223 2.27123213 -0.10585724
v 0.13862877 2.27103829 -0.12547433
v 0.14234798 2.26378369 -0.10915661
v 0.13862877 2.27103829 -0.12547433
v 0.14234798 2.26378369 -0.10915661
v 0.12875971 2.27621436 -0.13701399
v 0.12875971 2.27621436 -0.13701399
v 0.11596076 2.27801585 -0.14099205
v 0.11596076 2.27801585 -0.14099205
v 0.10318344 2.27620220 -0.13698652
v 0.10318344 2.27620220 -0.13698652
v 0.09331585 2.27103400 -0.12546463
v 0.09331585 2.27103400 -0.12546463
v 0.08957355 2.26378369 -0.10915661
v 0.08957355 2.26378369 -0.10915661
v 0.09329277 2.25657296 -0.09281960
v 0.09329277 2.25657296 -0.09281960
v 0.10316182 2.25150442 -0.08123225
v 0.10316182 2.25150442 -0.08123225
v 0.11596076 2.24976873 -0.07722500
v 0.11596076 2.24976873 -0.07722500
v 0.11596076 2.24976873 -0.07722500
v 0.12873812 2.25151658 -0.08125968
v 0.12873812 2.25151658 -0.08125968
v 0.13860568 2.25657725 -0.09282929
v 0.13860568 2.25657725 -0.09282929
v 0.13556480 2.46323085 -0.03839687
v 0.14168485 2.45860147 -0.04325708
v 0.13081567 2.46700025 -0.05447864
v 0.12652382 2.47000504 -0.04711412
v 0.13933688 2.45306182 -0.02531121
v 0.14565486 2.44713545 -0.02793647
v 0.11596076 2.47000861 -0.05860974
v 0.11596076 2.47225833 -0.05001303
v 0.10110585 2.46700025 -0.05447864
v 0.10519180 2.47018075 -0.04733977
v 0.09023669 2.45860147 -0.04325708
v 0.09600751 2.46332932 -0.03852333
v 0.08626668 2.44713545 -0.02793647
v 0.09225143 2.45306182 -0.02531121
v 0.09026312 2.43557167 -0.01268309
v 0.09546110 2.44264007 -0.01190120
v 0.10113281 2.42712569 -0.00153155
v 0.10443778 2.43530011 -0.00245627
v 0.11596076 2.42404366 0.00254948
v 0.11596076 2.43284512 0.00070308
v 0.11596076 2.43284512 0.00070308
v 0.11596076 2.42404366 0.00254948
v 0.13078873 2.42712569 -0.00153155
v 0.12736519 2.43540144 -0.00258613
v 0.14165843 2.43557167 -0.01268309
v 0.13620159 2.44271302 -0.01199492
v 0.13688684 2.09072042 -0.17468962
v 0.09480157 2.09072042 -0.17468962
v 0.09480157 2.16120982 -0.16820318
v 0.13688684 2.16120982 -0.16820318
v 0.13688684 2.16158843 -0.11064598
v 0.09480157 2.16158843 -0.11064598
v 0.09480157 2.09109831 -0.11713278
v 0.13688684 2.09109831 -0.11713278
v 0.13688684 1.92864060 -0.13245061
v 0.13688684 1.91486478 -0.09628551
v 0.09480157 1.91486478 -0.09628551
v 0.09480157 1.92864060 -0.13245061
v 0.09480157 2.09072042 -0.17468962
v 0.09480157 2.09109831 -0.11713278
v 0.09480157 2.16158843 -0.11064598
v 0.09480157 2.16120982 -0.16820318
v 0.13688684 2.09109831 -0.11713278
v 0.13688684 2.09072042 -0.17468962
v 0.13688684 2.16120982 -0.16820318
v 0.13688684 2.16158843 -0.11064598
v 0.13688684 2.02000260 -0.16727579
v 0.09480157 2.02000260 -0.16727579
v 0.09480157 2.02000260 -0.16727579
v 0.09480157 2.02038121 -0.10971861
v 0.09480157 2.02038121 -0.10971861
v 0.13688684 2.02038121 -0.10971861
v 0.13688684 2.02038121 -0.10971861
v 0.13688684 2.02000260 -0.16727579
v 0.13688684 1.94915771 -0.15179996
v 0.09480157 1.94915771 -0.15179996
v 0.09480157 1.97604358 -0.09973890
v 0.09480157 1.97604358 -0.09973890
v 0.13688684 1.97604358 -0.09973890
v 0.13688684 2.23195004 -0.09609824
v 0.09480157 2.23195004 -0.09609824
v 0.09480157 2.23157406 -0.15365407
v 0.13688684 2.23157406 -0.15365407
v 0.13688684 1.97604358 -0.09973890
v 0.13531032 1.95391321 -0.07903428
v 0.13198724 1.94340658 -0.04071490
v 0.09970117 1.94340658 -0.04071490
v 0.10460078 1.93390453 -0.00316102
v 0.12708765 1.93390453 -0.00316102
v 0.09970117 1.94340658 -0.04071490
v 0.09970117 1.90873623 -0.04275687
v 0.10460078 1.91871130 -0.01803827
v 0.10460078 1.93390453 -0.00316102
v 0.09970117 1.90873623 -0.04275687
v 0.13198724 1.90873623 -0.04275687
v 0.12708765 1.91871130 -0.01803827
v 0.10460078 1.91871130 -0.01803827
v 0.13198724 1.90873623 -0.04275687
v 0.13198724 1.94340658 -0.04071490
v 0.12708765 1.93390453 -0.00316102
v 0.12708765 1.91871130 -0.01803827
v 0.13531032 1.95391321 -0.07903428
v 0.09637809 1.95391321 -0.07903428
v 0.09637809 1.95391321 -0.07903428
v 0.09480160 2.25304747 -0.14372355
v 0.13688684 2.25304747 -0.14372355
v 0.12753843 2.27000690 -0.09189497
v 0.10414995 2.27000666 -0.09189509
v 0.10414996 2.28173137 -0.11836231
v 0.12753844 2.28173161 -0.11836222
v 0.10414995 2.27000666 -0.09189509
v 0.10414996 2.28173137 -0.11836231
v 0.12753844 2.28173161 -0.11836222
v 0.12753843 2.27000690 -0.09189497
v 0.10460078 1.93390453 -0.00316102
v 0.10460078 1.91871130 -0.01803827
v 0.12708765 1.91871130 -0.01803827
v 0.12708765 1.93390453 -0.00316102

vn 0.13868421 -0.81408572 -0.56394261
vn 0.21164718 -0.85084933 -0.48089615
vn 0.00000068 -0.91430944 -0.40501645
vn -0.00098987 -0.79688078 -0.60413581
vn -0.13865156 -0.81476283 -0.56297195
vn -0.21096170 -0.85077792 -0.48132330
vn -0.23283748 -0.88900411 -0.39428210
vn -0.21164218 -0.92786723 -0.30703425
vn -0.13868034 -0.96467358 -0.22399278
vn 0.00098910 -0.98287833 -0.18425317
vn 0.13864599 -0.96440554 -0.22516502
vn 0.21095841 -0.92813444 -0.30669725
vn 0.23283572 -0.88935637 -0.39348814
vn 0.36629570 0.83331943 0.41401228
vn 0.24204645 0.92839044 0.28196603
vn 0.00000011 0.78959900 0.61362320
vn 0.00311077 0.97705525 0.21296363
vn -0.24165058 0.93019640 0.27629653
vn -0.36975855 0.83305532 0.41145781
vn -0.39347842 0.73594648 0.55096060
vn -0.34254089 0.64942896 0.67890197
vn -0.21446940 0.57493341 0.78959137
vn 0.00142255 0.54054153 0.84131616
vn 0.21473587 0.57715935 0.78789324
vn 0.34042859 0.65128779 0.67818338
vn 0.39007545 0.73734701 0.55150753
vn 0.99997270 0.00041702 0.00738864
vn 0.99879980 -0.00008756 0.04898109
vn 1.00000000 0.00000098 0.00000000
vn -0.99879980 -0.00008754 0.04898109
vn -0.99997264 0.00041701 0.00738864
vn -1.00000000 0.00000000 0.00000000
vn -1.00000000 0.00000015 -0.00000000
vn -0.99801749 0.05754450 0.02549091
vn -0.98608714 0.15198475 0.06732567
vn 0.99801743 0.05754455 0.02549152
vn 1.00000000 -0.00000004 0.00000000
vn 0.98608720 0.15198439 0.06732703
vn 0.90207380 0.12080994 -0.41432834
vn 0.90650320 0.17099679 -0.38602072
vn 0.58205634 0.32933766 -0.74346972
vn 0.57755405 0.27134386 -0.76993757
vn 0.90662986 0.22457199 -0.35719702
vn 0.58489496 0.39414755 -0.70890456
vn 0.00000021 0.40501598 -0.91430974
vn -0.00000003 0.34180170 -0.93977213
vn 0.00000011 0.47803664 -0.87833995
vn -0.58205628 0.32933792 -0.74346966
vn -0.57755405 0.27134398 -0.76993752
vn -0.58489519 0.39414772 -0.70890433
vn -0.90650314 0.17099708 -0.38602093
vn -0.90207386 0.12081002 -0.41432816
vn -0.90663010 0.22457217 -0.35719663
vn -1.00000000 0.00000010 0.00000006
vn -0.99838138 -0.04761025 -0.03111359
vn -0.99845421 0.05081768 0.02251112
vn -0.90650356 -0.17099728 0.38601980
vn -0.90927094 -0.22335885 0.35119426
vn -0.90663046 -0.11365150 0.40633070
vn -0.58205825 -0.32933709 0.74346846
vn -0.58781093 -0.39331046 0.70695496
vn -0.58489764 -0.26019090 0.76824194
vn -0.00000017 -0.40501595 0.91430974
vn 0.00000012 -0.47716379 0.87881452
vn -0.00000019 -0.32931331 0.94422072
vn 0.00000012 -0.47716379 0.87881452
vn -0.00000017 -0.40501595 0.91430974
vn 0.58205938 -0.32933745 0.74346745
vn 0.58781153 -0.39331120 0.70695400
vn -0.00000019 -0.32931331 0.94422072
vn 0.58489823 -0.26019093 0.76824141
vn 0.90650409 -0.17099702 0.38601857
vn 0.90927142 -0.22335884 0.35119286
vn 0.90663075 -0.11365118 0.40632999
vn 1.00000000 0.00000027 -0.00000065
vn 0.99838132 -0.04761028 -0.03111416
vn 0.99845421 0.05081796 0.02251049
vn 0.90849423 0.18168020 -0.37633833
vn 0.58647633 0.36259446 -0.72427267
vn -0.00008702 0.45323649 -0.89139038
vn -0.58653116 0.36218897 -0.72443104
vn -0.90846598 0.18135631 -0.37656271
vn -0.99999392 0.00322735 0.00137113
vn -0.90849495 -0.15664792 0.38742542
vn -0.58647794 -0.29277712 0.75519878
vn 0.00008674 -0.35564473 0.93462121
vn 0.00008674 -0.35564473 0.93462121
vn 0.58653080 -0.29316694 0.75500655
vn 0.90846586 -0.15703261 0.38733807
vn 0.99999392 0.00318420 0.00146735
vn 0.70734608 -0.44678134 -0.54776639
vn 0.76770329 -0.58608413 -0.25910836
vn 0.70734608 -0.44678134 -0.54776639
vn 0.76770329 -0.58608413 -0.25910836
vn 0.47314441 -0.29318911 -0.83076745
vn 0.47314441 -0.29318911 -0.83076745
vn -0.00085298 -0.20986354 -0.97773039
vn -0.00085298 -0.20986354 -0.97773039
vn -0.47242528 -0.29634729 -0.83005589
vn -0.47242528 -0.29634729 -0.83005589
vn -0.70542002 -0.44883737 -0.54856867
vn -0.70542002 -0.44883737 -0.54856867
vn -0.76770431 -0.58570170 -0.25996861
vn -0.76770431 -0.58570170 -0.25996861
vn -0.70734936 -0.70588648 0.03716505
vn -0.70734936 -0.70588648 0.03716505
vn -0.47314745 -0.81227946 0.34107742
vn -0.47314745 -0.81227946 0.34107742
vn 0.00085235 -0.86513937 0.50153095
vn 0.00085235 -0.86513937 0.50153095
vn 0.00085235 -0.86513937 0.50153095
vn 0.47242543 -0.81387681 0.33825842
vn 0.47242543 -0.81387681 0.33825842
vn 0.70542145 -0.70786417 0.03617959
vn 0.70542145 -0.70786417 0.03617959
vn 0.36629570 0.83331943 0.41401228
vn 0.89827138 0.21454373 -0.38350970
vn 0.56821072 0.35721171 -0.74130726
vn 0.24204645 0.92839044 0.28196603
vn 0.39007545 0.73734701 0.55150753
vn 0.99890387 0.04667310 0.00357006
vn 0.00055449 0.41839811 -0.90826356
vn 0.00311077 0.97705525 0.21296363
vn -0.56748307 0.35440496 -0.74320930
vn -0.24165058 0.93019640 0.27629653
vn -0.89803380 0.21029498 -0.38640848
vn -0.36975855 0.83305532 0.41145781
vn -0.99910134 0.04238275 0.00058351
vn -0.39347842 0.73594648 0.55096060
vn -0.91409189 -0.14020395 0.38049826
vn -0.34254089 0.64942896 0.67890197
vn -0.59662122 -0.32540300 0.73359120
vn -0.21446940 0.57493341 0.78959137
vn 0.00032775 -0.41999531 0.90752620
vn 0.00142255 0.54054153 0.84131616
vn 0.00142255 0.54054153 0.84131616
vn 0.00032775 -0.41999531 0.90752620
vn 0.59673077 -0.32297048 0.73457640
vn 0.21473587 0.57715935 0.78789324
vn 0.91371083 -0.13645621 0.38276902
vn 0.34042859 0.65128779 0.67818338
vn 0.00000000 -0.00656741 -0.99997842
vn 0.00000000 -0.00656741 -0.99997842
vn 0.00000000 0.14770532 -0.98903143
vn 0.00000000 0.14770532 -0.98903143
vn 0.00000000 -0.14770029 0.98903221
vn 0.00000000 -0.14770029 0.98903221
vn 0.00000000 0.00656728 0.99997842
vn 0.00000000 0.00656728 0.99997842
vn 0.00000000 -0.85076612 -0.52554452
vn 0.00000000 -0.97373199 -0.22769731
vn 0.00000000 -0.97373199 -0.22769731
vn 0.00000000 -0.85076612 -0.52554452
vn -1.00000000 0.00000004 0.00000000
vn -1.00000000 0.00000004 0.00000000
vn -1.00000000 0.00000002 0.00000000
vn -1.00000000 0.00000001 0.00000000
vn 1.00000000 0.00000007 0.00000000
vn 1.00000000 0.00000007 0.00000000
vn 1.00000000 0.00000001 0.00000000
vn 1.00000000 -0.00000001 0.00000000
vn 0.00000000 -0.15961967 -0.98717868
vn 0.00000000 -0.15961967 -0.98717868
vn -1.00000000 0.00000004 0.00000000
vn -1.00000000 0.00000003 0.00000000
vn 0.00000000 0.14948057 0.98876470
vn 0.00000000 0.14948057 0.98876470
vn 1.00000000 0.00000001 0.00000000
vn 1.00000000 0.00000002 0.00000000
vn 0.00000000 -0.35617951 -0.93441761
vn 0.00000000 -0.35617951 -0.93441761
vn -0.99996191 0.00049230 0.00872260
vn 0.00000000 0.41070345 0.91176897
vn 0.00000000 0.41070345 0.91176897
vn -0.00000034 -0.17852601 0.98393524
vn -0.00000034 -0.17852603 0.98393524
vn 0.00000000 0.25756034 -0.96626222
vn 0.00000000 0.25756037 -0.96626228
vn 0.99996185 0.00049230 0.00872260
vn 0.99878895 -0.00007962 0.04920039
vn 0.00000000 0.96644765 0.25686371
vn 0.00000000 0.96644765 0.25686371
vn 0.00000000 0.96944940 0.24529144
vn 0.00000000 0.96944940 0.24529144
vn -0.99425924 -0.01494177 0.10594976
vn -0.99431396 -0.01458856 0.10548475
vn -0.98640424 -0.05280409 0.15562314
vn -0.98640424 -0.05280409 0.15562314
vn 0.00000000 -1.00000000 0.00019092
vn 0.00000000 -1.00000000 0.00019098
vn 0.00000000 -0.92734051 0.37421867
vn 0.00000000 -0.92734051 0.37421870
vn 0.99431396 -0.01458855 0.10548475
vn 0.99425930 -0.01494177 0.10594977
vn 0.98640424 -0.05280408 0.15562314
vn 0.98640424 -0.05280408 0.15562312
vn 0.00000000 0.86006957 0.51017696
vn 0.00000000 0.86006957 0.51017696
vn -0.99878895 -0.00007959 0.04920039
vn -0.00000078 0.55080020 -0.83463711
vn -0.00000078 0.55080032 -0.83463705
vn -0.00000130 -0.10977855 0.99395609
vn -0.00000130 -0.10977855 0.99395615
vn -0.00000149 0.66238356 -0.74916488
vn -0.00000149 0.66238356 -0.74916494
vn -0.96872824 0.22686239 0.10049504
vn -0.96872818 0.22686237 0.10049502
vn 0.96872824 0.22686148 0.10049672
vn 0.96872824 0.22686149 0.10049673
vn 0.00000000 -0.69963610 0.71449941
vn 0.00000000 -0.69963610 0.71449941
vn 0.00000000 -0.69963610 0.71449941
vn 0.00000000 -0.69963610 0.71449941

f 1//1 2//2 3//3
f 4//4 1//1 3//3
f 5//5 4//4 3//3
f 6//6 5//5 3//3
f 7//7 6//6 3//3
f 8//8 7//7 3//3
f 9//9 8//8 3//3
f 10//10 9//9 3//3
f 11//11 10//10 3//3
f 12//12 11//11 3//3
f 13//13 12//12 3//3
f 2//2 13//13 3//3
f 14//14 15//15 16//16
f 15//15 17//17 16//16
f 17//17 18//18 16//16
f 18//18 19//19 16//16
f 19//19 20//20 16//16
f 20//20 21//21 16//16
f 21//21 22//22 16//16
f 22//22 23//23 16//16
f 23//23 24//24 16//16
f 24//24 25//25 16//16
f 25//25 26//26 16//16
f 26//26 14//14 16//16
f 27//27 28//28 29//29
f 30//30 31//31 32//32
f 33//33 34//34 35//35
f 36//36 37//37 38//38
f 39//39 40//40 41//41
f 39//39 41//41 42//42
f 40//40 43//43 44//44
f 40//40 44//44 41//41
f 42//42 41//41 45//45
f 42//42 45//45 46//46
f 41//41 44//44 47//47
f 41//41 47//47 45//45
f 46//46 45//45 48//48
f 46//46 48//48 49//49
f 45//45 47//47 50//50
f 45//45 50//50 48//48
f 49//49 48//48 51//51
f 49//49 51//51 52//52
f 48//48 50//50 53//53
f 48//48 53//53 51//51
f 52//52 51//51 54//54
f 52//52 54//54 55//55
f 51//51 53//53 56//56
f 51//51 56//56 54//54
f 55//55 54//54 57//57
f 55//55 57//57 58//58
f 54//54 56//56 59//59
f 54//54 59//59 57//57
f 58//58 57//57 60//60
f 58//58 60//60 61//61
f 57//57 59//59 62//62
f 57//57 62//62 60//60
f 61//61 60//60 63//63
f 61//61 63//63 64//64
f 60//60 62//62 65//65
f 60//60 65//65 63//63
f 66//66 67//67 68//68
f 66//66 68//68 69//69
f 67//67 70//70 71//71
f 67//67 71//71 68//68
f 69//69 68//68 72//72
f 69//69 72//72 73//73
f 68//68 71//71 74//74
f 68//68 74//74 72//72
f 73//73 72//72 75//75
f 73//73 75//75 76//76
f 72//72 74//74 77//77
f 72//72 77//77 75//75
f 43//43 40//40 75//75
f 43//43 75//75 77//77
f 40//40 39//39 76//76
f 40//40 76//76 75//75
f 78//78 79//79 44//44
f 78//78 44//44 43//43
f 79//79 80//80 47//47
f 79//79 47//47 44//44
f 80//80 81//81 50//50
f 80//80 50//50 47//47
f 81//81 82//82 53//53
f 81//81 53//53 50//50
f 82//82 83//83 56//56
f 82//82 56//56 53//53
f 83//83 84//84 59//59
f 83//83 59//59 56//56
f 84//84 85//85 62//62
f 84//84 62//62 59//59
f 85//85 86//86 65//65
f 85//85 65//65 62//62
f 87//87 88//88 71//71
f 87//87 71//71 70//70
f 88//88 89//89 74//74
f 88//88 74//74 71//71
f 89//89 90//90 77//77
f 89//89 77//77 74//74
f 90//90 78//78 43//43
f 90//90 43//43 77//77
f 2//2 91//91 92//92
f 2//2 92//92 13//13
f 93//93 78//78 90//90
f 93//93 90//90 94//94
f 78//78 93//93 95//95
f 78//78 95//95 79//79
f 91//91 2//2 1//1
f 91//91 1//1 96//96
f 79//79 95//95 97//97
f 79//79 97//97 80//80
f 96//96 1//1 4//4
f 96//96 4//4 98//98
f 80//80 97//97 99//99
f 80//80 99//99 81//81
f 98//98 4//4 5//5
f 98//98 5//5 100//100
f 81//81 99//99 101//101
f 81//81 101//101 82//82
f 100//100 5//5 6//6
f 100//100 6//6 102//102
f 82//82 101//101 103//103
f 82//82 103//103 83//83
f 102//102 6//6 7//7
f 102//102 7//7 104//104
f 83//83 103//103 105//105
f 83//83 105//105 84//84
f 104//104 7//7 8//8
f 104//104 8//8 106//106
f 84//84 105//105 107//107
f 84//84 107//107 85//85
f 106//106 8//8 9//9
f 106//106 9//9 108//108
f 85//85 107//107 109//109
f 85//85 109//109 86//86
f 108//108 9//9 10//10
f 108//108 10//10 110//110
f 87//87 111//111 112//112
f 87//87 112//112 88//88
f 110//110 10//10 11//11
f 110//110 11//11 113//113
f 88//88 112//112 114//114
f 88//88 114//114 89//89
f 113//113 11//11 12//12
f 113//113 12//12 115//115
f 89//89 114//114 94//94
f 89//89 94//94 90//90
f 115//115 12//12 13//13
f 115//115 13//13 92//92
f 116//116 117//117 118//118
f 116//116 118//118 119//119
f 117//117 116//116 120//120
f 117//117 120//120 121//121
f 119//119 118//118 122//122
f 119//119 122//122 123//123
f 123//123 122//122 124//124
f 123//123 124//124 125//125
f 125//125 124//124 126//126
f 125//125 126//126 127//127
f 127//127 126//126 128//128
f 127//127 128//128 129//129
f 129//129 128//128 130//130
f 129//129 130//130 131//131
f 131//131 130//130 132//132
f 131//131 132//132 133//133
f 133//133 132//132 134//134
f 133//133 134//134 135//135
f 136//136 137//137 138//138
f 136//136 138//138 139//139
f 139//139 138//138 140//140
f 139//139 140//140 141//141
f 141//141 140//140 121//121
f 141//141 121//121 120//120
f 39//39 42//42 118//118
f 39//39 118//118 117//117
f 42//42 46//46 122//122
f 42//42 122//122 118//118
f 46//46 49//49 124//124
f 46//46 124//124 122//122
f 49//49 52//52 126//126
f 49//49 126//126 124//124
f 52//52 55//55 128//128
f 52//52 128//128 126//126
f 55//55 58//58 130//130
f 55//55 130//130 128//128
f 58//58 61//61 132//132
f 58//58 132//132 130//130
f 61//61 64//64 134//134
f 61//61 134//134 132//132
f 66//66 69//69 138//138
f 66//66 138//138 137//137
f 69//69 73//73 140//140
f 69//69 140//140 138//138
f 73//73 76//76 121//121
f 73//73 121//121 140//140
f 76//76 39//39 117//117
f 76//76 117//117 121//121
f 142//142 143//143 144//144
f 142//142 144//144 145//145
f 146//146 147//147 148//148
f 146//146 148//148 149//149
f 150//150 151//151 152//152
f 150//150 152//152 153//153
f 154//154 155//155 156//156
f 154//154 156//156 157//157
f 158//158 159//159 160//160
f 158//158 160//160 161//161
f 162//162 163//163 143//143
f 162//162 143//143 142//142
f 164//164 165//165 155//155
f 164//164 155//155 154//154
f 149//149 148//148 166//166
f 149//149 166//166 167//167
f 168//168 169//169 159//159
f 168//168 159//159 158//158
f 170//170 171//171 163//163
f 170//170 163//163 162//162
f 31//31 172//172 165//165
f 31//31 165//165 164//164
f 167//167 166//166 173//173
f 167//167 173//173 174//174
f 175//175 176//176 147//147
f 175//175 147//147 146//146
f 157//157 156//156 34//34
f 157//157 34//34 33//33
f 145//145 144//144 177//177
f 145//145 177//177 178//178
f 161//161 160//160 37//37
f 161//161 37//37 36//36
f 171//171 170//170 150//150
f 171//171 150//150 153//153
f 27//27 179//179 180//180
f 27//27 180//180 28//28
f 181//181 182//182 183//183
f 181//181 183//183 184//184
f 185//185 186//186 187//187
f 185//185 187//187 188//188
f 189//189 190//190 191//191
f 189//189 191//191 192//192
f 193//193 194//194 195//195
f 193//193 195//195 196//196
f 197//197 198//198 182//182
f 197//197 182//182 181//181
f 152//152 151//151 190//190
f 152//152 190//190 189//189
f 28//28 180//180 194//194
f 28//28 194//194 193//193
f 179//179 27//27 169//169
f 179//179 169//169 168//168
f 199//199 30//30 186//186
f 199//199 186//186 185//185
f 199//199 172//172 31//31
f 199//199 31//31 30//30
f 197//197 174//174 173//173
f 197//197 173//173 198//198
f 178//178 177//177 200//200
f 178//178 200//200 201//201
f 176//176 175//175 202//202
f 176//176 202//202 203//203
f 201//201 200//200 204//204
f 201//201 204//204 205//205
f 35//35 34//34 206//206
f 35//35 206//206 207//207
f 36//36 38//38 208//208
f 36//36 208//208 209//209
f 210//210 211//211 212//212
f 210//210 212//212 213//213
