# lock_ball.obj
# 412 vertices, 522 triangles

v 0.86865377 0.10382096 -0.32559839
v 0.85946834 0.10382096 -0.33227196
v 0.85379148 0.10747515 -0.31480029
v 0.84811461 0.10382096 -0.33227196
v 0.83892918 0.10382096 -0.32559839
v 0.83542067 0.10382096 -0.31480029
v 0.83892918 0.10382096 -0.30400220
v 0.84811461 0.10382096 -0.29732862
v 0.85946834 0.10382096 -0.29732862
v 0.86865377 0.10382096 -0.30400220
v 0.87216228 0.10382096 -0.31480029
v -0.98513699 0.10382096 -0.32559839
v -0.99432242 0.10382096 -0.33227196
v -0.99999928 0.10747515 -0.31480029
v -1.00567615 0.10382096 -0.33227196
v -1.01486158 0.10382096 -0.32559839
v -1.01837015 0.10382096 -0.31480029
v -1.01486158 0.10382096 -0.30400220
v -1.00567615 0.10382096 -0.29732862
v -0.99432242 0.10382096 -0.29732862
v -0.98513699 0.10382096 -0.30400220
v -0.98162848 0.10382096 -0.31480029
v 0.73047358 0.10382096 -0.46050280
v 0.72128814 0.10382096 -0.46717638
v 0.71561128 0.10747515 -0.44970471
v 0.70993441 0.10382096 -0.46717638
v 0.70074898 0.10382096 -0.46050280
v 0.69724047 0.10382096 -0.44970471
v 0.70074898 0.10382096 -0.43890661
v 0.70993441 0.10382096 -0.43223304
v 0.72128814 0.10382096 -0.43223304
v 0.73047358 0.10382096 -0.43890661
v 0.73398209 0.10382096 -0.44970471
v -0.05829507 0.10382096 -0.46050280
v -0.06748048 0.10382096 -0.46717638
v -0.07315737 0.10747515 -0.44970471
v -0.07883427 0.10382096 -0.46717638
v -0.08801967 0.10382096 -0.46050280
v -0.09152818 0.10382096 -0.44970471
v -0.08801966 0.10382096 -0.43890661
v -0.07883426 0.10382096 -0.43223304
v -0.06748047 0.10382096 -0.43223304
v -0.05829507 0.10382096 -0.43890661
v -0.05478656 0.10382096 -0.44970471
v -0.46306050 0.10382096 -0.46050280
v -0.47224590 0.10382096 -0.46717638
v -0.47792280 0.10747515 -0.44970471
v -0.48359969 0.10382096 -0.46717638
v -0.49278510 0.10382096 -0.46050280
v -0.49629360 0.10382096 -0.44970471
v -0.49278510 0.10382096 -0.43890661
v -0.48359969 0.10382096 -0.43223304
v -0.47224590 0.10382096 -0.43223304
v -0.46306050 0.10382096 -0.43890661
v -0.45955199 0.10382096 -0.44970471
v -0.85901195 0.10382096 -0.46050280
v -0.86819738 0.10382096 -0.46717638
v -0.87387425 0.10747515 -0.44970471
v -0.87955111 0.10382096 -0.46717638
v -0.88873655 0.10382096 -0.46050280
v -0.89224505 0.10382096 -0.44970471
v -0.88873655 0.10382096 -0.43890661
v -0.87955111 0.10382096 -0.43223304
v -0.86819738 0.10382096 -0.43223304
v -0.85901195 0.10382096 -0.43890661
v -0.85550344 0.10382096 -0.44970471
v 0.32928658 0.10382096 -0.46050280
v 0.32010117 0.10382096 -0.46717638
v 0.31442428 0.10747515 -0.44970471
v 0.30874738 0.10382096 -0.46717638
v 0.29956198 0.10382096 -0.46050280
v 0.29605347 0.10382096 -0.44970471
v 0.29956198 0.10382096 -0.43890661
v 0.30874738 0.10382096 -0.43223304
v 0.32010117 0.10382096 -0.43223304
v 0.32928658 0.10382096 -0.43890661
v 0.33279508 0.10382096 -0.44970471
v 0.73047358 0.10382096 0.43746960
v 0.72128814 0.10382096 0.43079603
v 0.71561128 0.10747515 0.44826770
v 0.70993441 0.10382096 0.43079603
v 0.70074898 0.10382096 0.43746960
v 0.69724047 0.10382096 0.44826770
v 0.70074898 0.10382096 0.45906579
v 0.70993441 0.10382096 0.46573937
v 0.72128814 0.10382096 0.46573937
v 0.73047358 0.10382096 0.45906579
v 0.73398209 0.10382096 0.44826770
v -0.98513699 0.10382096 0.31060717
v -0.99432242 0.10382096 0.30393359
v -0.99999928 0.10747515 0.32140526
v -1.00567615 0.10382096 0.30393359
v -1.01486158 0.10382096 0.31060717
v -1.01837015 0.10382096 0.32140526
v -1.01486158 0.10382096 0.33220336
v -1.00567615 0.10382096 0.33887693
v -0.99432242 0.10382096 0.33887693
v -0.98513699 0.10382096 0.33220336
v -0.98162848 0.10382096 0.32140526
v 0.86865377 0.10382096 0.31060717
v 0.85946834 0.10382096 0.30393359
v 0.85379148 0.10747515 0.32140526
v 0.84811461 0.10382096 0.30393359
v 0.83892918 0.10382096 0.31060717
v 0.83542067 0.10382096 0.32140526
v 0.83892918 0.10382096 0.33220336
v 0.84811461 0.10382096 0.33887693
v 0.85946834 0.10382096 0.33887693
v 0.86865377 0.10382096 0.33220336
v 0.87216228 0.10382096 0.32140526
v -0.85901195 0.10382096 0.43746960
v -0.86819738 0.10382096 0.43079603
v -0.87387425 0.10747515 0.44826770
v -0.87955111 0.10382096 0.43079603
v -0.88873655 0.10382096 0.43746960
v -0.89224505 0.10382096 0.44826770
v -0.88873655 0.10382096 0.45906579
v -0.87955111 0.10382096 0.46573937
v -0.86819738 0.10382096 0.46573937
v -0.85901195 0.10382096 0.45906579
v -0.85550344 0.10382096 0.44826770
v -0.05829507 0.10382096 0.43746960
v -0.06748048 0.10382096 0.43079603
v -0.07315737 0.10747515 0.44826770
v -0.07883427 0.10382096 0.43079603
v -0.08801967 0.10382096 0.43746960
v -0.09152818 0.10382096 0.44826770
v -0.08801966 0.10382096 0.45906579
v -0.07883426 0.10382096 0.46573937
v -0.06748047 0.10382096 0.46573937
v -0.05829507 0.10382096 0.45906579
v -0.05478656 0.10382096 0.44826770
v 0.32928658 0.10382096 0.43746960
v 0.32010117 0.10382096 0.43079603
v 0.31442428 0.10747515 0.44826770
v 0.30874738 0.10382096 0.43079603
v 0.29956198 0.10382096 0.43746960
v 0.29605347 0.10382096 0.44826770
v 0.29956198 0.10382096 0.45906579
v 0.30874738 0.10382096 0.46573937
v 0.32010117 0.10382096 0.46573937
v 0.32928658 0.10382096 0.45906579
v 0.33279508 0.10382096 0.44826770
v -0.46306050 0.10382096 0.43746960
v -0.47224590 0.10382096 0.43079603
v -0.47792280 0.10747515 0.44826770
v -0.48359969 0.10382096 0.43079603
v -0.49278510 0.10382096 0.43746960
v -0.49629360 0.10382096 0.44826770
v -0.49278510 0.10382096 0.45906579
v -0.48359969 0.10382096 0.46573937
v -0.47224590 0.10382096 0.46573937
v -0.46306050 0.10382096 0.45906579
v -0.45955199 0.10382096 0.44826770
v 0.86865377 0.10382096 -0.01079812
v 0.85946834 0.10382096 -0.01747171
v 0.85379148 0.10747515 -0.00000003
v 0.84811461 0.10382096 -0.01747170
v 0.83892918 0.10382096 -0.01079812
v 0.83542067 0.10382096 -0.00000003
v 0.83892918 0.10382096 0.01079806
v 0.84811461 0.10382096 0.01747165
v 0.85946834 0.10382096 0.01747165
v 0.86865377 0.10382096 0.01079806
v 0.87216228 0.10382096 -0.00000003
v -0.98513699 0.10382096 -0.01079812
v -0.99432242 0.10382096 -0.01747171
v -0.99999928 0.10747515 -0.00000003
v -1.00567615 0.10382096 -0.01747170
v -1.01486158 0.10382096 -0.01079812
v -1.01837015 0.10382096 -0.00000003
v -1.01486158 0.10382096 0.01079806
v -1.00567615 0.10382096 0.01747165
v -0.99432242 0.10382096 0.01747165
v -0.98513699 0.10382096 0.01079806
v -0.98162848 0.10382096 -0.00000003
v 0.88125342 0.09341475 -0.33475256
v 0.86428100 0.09341475 -0.34708375
v 0.84330195 0.09341475 -0.34708375
v 0.82632953 0.09341475 -0.33475256
v 0.81984663 0.09341475 -0.31480029
v 0.82632953 0.09341475 -0.29484802
v 0.84330195 0.09341475 -0.28251684
v 0.86428100 0.09341475 -0.28251684
v 0.88125342 0.09341475 -0.29484802
v 0.88773632 0.09341475 -0.31480029
v -0.97253734 0.09341475 -0.33475256
v -0.98950976 0.09341475 -0.34708375
v -1.01048887 0.09341475 -0.34708375
v -1.02746117 0.09341475 -0.33475256
v -1.03394413 0.09341475 -0.31480029
v -1.02746117 0.09341475 -0.29484802
v -1.01048887 0.09341475 -0.28251684
v -0.98950976 0.09341475 -0.28251684
v -0.97253734 0.09341475 -0.29484802
v -0.96605444 0.09341475 -0.31480029
v 0.74307323 0.09341475 -0.46965697
v 0.72610080 0.09341475 -0.48198816
v 0.70512176 0.09341475 -0.48198816
v 0.68814933 0.09341475 -0.46965697
v 0.68166643 0.09341475 -0.44970471
v 0.68814933 0.09341475 -0.42975244
v 0.70512176 0.09341475 -0.41742125
v 0.72610080 0.09341475 -0.41742128
v 0.74307323 0.09341475 -0.42975244
v 0.74955612 0.09341475 -0.44970471
v -0.04569543 0.09341475 -0.46965697
v -0.06266785 0.09341475 -0.48198816
v -0.08364690 0.09341475 -0.48198816
v -0.10061932 0.09341475 -0.46965697
v -0.10710219 0.09341475 -0.44970471
v -0.10061931 0.09341475 -0.42975244
v -0.08364689 0.09341475 -0.41742125
v -0.06266785 0.09341475 -0.41742128
v -0.04569543 0.09341475 -0.42975244
v -0.03921255 0.09341475 -0.44970471
v -0.45046085 0.09341475 -0.46965697
v -0.46743327 0.09341475 -0.48198816
v -0.48841232 0.09341475 -0.48198816
v -0.50538474 0.09341475 -0.46965697
v -0.51186764 0.09341475 -0.44970471
v -0.50538474 0.09341475 -0.42975244
v -0.48841232 0.09341475 -0.41742125
v -0.46743327 0.09341475 -0.41742128
v -0.45046085 0.09341475 -0.42975244
v -0.44397798 0.09341475 -0.44970471
v -0.84641230 0.09341475 -0.46965697
v -0.86338472 0.09341475 -0.48198816
v -0.88436377 0.09341475 -0.48198816
v -0.90133619 0.09341475 -0.46965697
v -0.90781909 0.09341475 -0.44970471
v -0.90133619 0.09341475 -0.42975244
v -0.88436377 0.09341475 -0.41742125
v -0.86338472 0.09341475 -0.41742128
v -0.84641230 0.09341475 -0.42975244
v -0.83992940 0.09341475 -0.44970471
v 0.34188622 0.09341475 -0.46965697
v 0.32491380 0.09341475 -0.48198816
v 0.30393475 0.09341475 -0.48198816
v 0.28696233 0.09341475 -0.46965697
v 0.28047946 0.09341475 -0.44970471
v 0.28696233 0.09341475 -0.42975244
v 0.30393475 0.09341475 -0.41742125
v 0.32491380 0.09341475 -0.41742128
v 0.34188622 0.09341475 -0.42975244
v 0.34836909 0.09341475 -0.44970471
v 0.74307323 0.09341475 0.42831543
v 0.72610080 0.09341475 0.41598424
v 0.70512176 0.09341475 0.41598424
v 0.68814933 0.09341475 0.42831543
v 0.68166643 0.09341475 0.44826770
v 0.68814933 0.09341475 0.46821997
v 0.70512176 0.09341475 0.48055115
v 0.72610080 0.09341475 0.48055112
v 0.74307323 0.09341475 0.46821997
v 0.74955612 0.09341475 0.44826770
v -0.97253734 0.09341475 0.30145299
v -0.98950976 0.09341475 0.28912181
v -1.01048887 0.09341475 0.28912181
v -1.02746117 0.09341475 0.30145299
v -1.03394413 0.09341475 0.32140526
v -1.02746117 0.09341475 0.34135753
v -1.01048887 0.09341475 0.35368872
v -0.98950976 0.09341475 0.35368872
v -0.97253734 0.09341475 0.34135753
v -0.96605444 0.09341475 0.32140526
v 0.88125342 0.09341475 0.30145299
v 0.86428100 0.09341475 0.28912181
v 0.84330195 0.09341475 0.28912181
v 0.82632953 0.09341475 0.30145299
v 0.81984663 0.09341475 0.32140526
v 0.82632953 0.09341475 0.34135753
v 0.84330195 0.09341475 0.35368872
v 0.86428100 0.09341475 0.35368872
v 0.88125342 0.09341475 0.34135753
v 0.88773632 0.09341475 0.32140526
v -0.84641230 0.09341475 0.42831543
v -0.86338472 0.09341475 0.41598424
v -0.88436377 0.09341475 0.41598424
v -0.90133619 0.09341475 0.42831543
v -0.90781909 0.09341475 0.44826770
v -0.90133619 0.09341475 0.46821997
v -0.88436377 0.09341475 0.48055115
v -0.86338472 0.09341475 0.48055112
v -0.84641230 0.09341475 0.46821997
v -0.83992940 0.09341475 0.44826770
v -0.04569543 0.09341475 0.42831543
v -0.06266785 0.09341475 0.41598424
v -0.08364690 0.09341475 0.41598424
v -0.10061932 0.09341475 0.42831543
v -0.10710219 0.09341475 0.44826770
v -0.10061931 0.09341475 0.46821997
v -0.08364689 0.09341475 0.48055115
v -0.06266785 0.09341475 0.48055112
v -0.04569543 0.09341475 0.46821997
v -0.03921255 0.09341475 0.44826770
v 0.34188622 0.09341475 0.42831543
v 0.32491380 0.09341475 0.41598424
v 0.30393475 0.09341475 0.41598424
v 0.28696233 0.09341475 0.42831543
v 0.28047946 0.09341475 0.44826770
v 0.28696233 0.09341475 0.46821997
v 0.30393475 0.09341475 0.48055115
v 0.32491380 0.09341475 0.48055112
v 0.34188622 0.09341475 0.46821997
v 0.34836909 0.09341475 0.44826770
v -0.45046085 0.09341475 0.42831543
v -0.46743327 0.09341475 0.41598424
v -0.48841232 0.09341475 0.41598424
v -0.50538474 0.09341475 0.42831543
v -0.51186764 0.09341475 0.44826770
v -0.50538474 0.09341475 0.46821997
v -0.48841232 0.09341475 0.48055115
v -0.46743327 0.09341475 0.48055112
v -0.45046085 0.09341475 0.46821997
v -0.44397798 0.09341475 0.44826770
v 0.88125342 0.09341475 -0.01995230
v 0.86428100 0.09341475 -0.03228348
v 0.84330195 0.09341475 -0.03228347
v 0.82632953 0.09341475 -0.01995229
v 0.81984663 0.09341475 -0.00000003
v 0.82632953 0.09341475 0.01995224
v 0.84330195 0.09341475 0.03228341
v 0.86428100 0.09341475 0.03228341
v 0.88125342 0.09341475 0.01995224
v 0.88773632 0.09341475 -0.00000003
v -0.97253734 0.09341475 -0.01995230
v -0.98950976 0.09341475 -0.03228348
v -1.01048887 0.09341475 -0.03228347
v -1.02746117 0.09341475 -0.01995229
v -1.03394413 0.09341475 -0.00000003
v -1.02746117 0.09341475 0.01995224
v -1.01048887 0.09341475 0.03228341
v -0.98950976 0.09341475 0.03228341
v -0.97253734 0.09341475 0.01995224
v -0.96605444 0.09341475 -0.00000003
v -1.09428608 -0.04338437 0.54868478
v 0.94646537 -0.04338437 0.54868478
v 0.90391982 0.09394199 0.50000000
v -1.05174053 0.09394199 0.50000000
v -0.77063566 0.00384604 0.16458623
v 0.62281495 0.00384604 0.16458623
v 0.62281495 0.00384604 0.04898322
v -0.77063566 0.00384604 0.04898322
v -1.05174053 0.09394199 -0.50000000
v 0.90391982 0.09394199 -0.50000000
v 0.94646537 -0.04338437 -0.54868478
v -1.09428608 -0.04338437 -0.54868478
v 0.94646537 -0.04338437 0.54868478
v 0.94646537 -0.04338437 -0.54868478
v 0.90391982 0.09394199 -0.50000000
v 0.90391982 0.09394199 0.50000000
v -1.09428608 -0.04338437 -0.54868478
v -1.09428608 -0.04338437 0.54868478
v -1.05174053 0.09394199 0.50000000
v -1.05174053 0.09394199 -0.50000000
v -1.05174053 0.09394199 0.50000000
v 0.90391982 0.09394199 0.50000000
v 0.80333102 0.09394199 0.39850977
v -0.95115173 0.09394199 0.39850977
v 0.90391982 0.09394199 -0.50000000
v 0.80333102 0.09394199 -0.39850977
v -1.05174053 0.09394199 -0.50000000
v -0.95115173 0.09394199 -0.39850977
v -0.95115173 0.09394199 0.39850977
v 0.80333102 0.09394199 0.39850977
v 0.78151262 0.06981395 0.37335607
v -0.92933333 0.06981395 0.37335607
v 0.80333102 0.09394199 0.39850977
v 0.80333102 0.09394199 -0.39850977
v 0.78151262 0.06981395 -0.37335607
v 0.78151262 0.06981395 0.37335607
v 0.80333102 0.09394199 -0.39850977
v -0.95115173 0.09394199 -0.39850977
v -0.92933333 0.06981395 -0.37335607
v 0.78151262 0.06981395 -0.37335607
v -0.95115173 0.09394199 -0.39850977
v -0.95115173 0.09394199 0.39850977
v -0.92933333 0.06981395 0.37335607
v -0.92933333 0.06981395 -0.37335607
v -0.92933333 0.06981395 0.37335607
v 0.78151262 0.06981395 0.37335607
v 0.62281495 0.06981395 0.16458623
v -0.77063566 0.06981395 0.16458623
v 0.78151262 0.06981395 0.37335607
v 0.78151262 0.06981395 -0.37335607
v 0.62281495 0.06981395 0.04898322
v 0.62281495 0.06981395 0.16458623
v 0.78151262 0.06981395 -0.37335607
v -0.92933333 0.06981395 -0.37335607
v -0.77063566 0.06981395 0.04898322
v 0.62281495 0.06981395 0.04898322
v -0.92933333 0.06981395 -0.37335607
v -0.92933333 0.06981395 0.37335607
v -0.77063566 0.06981395 0.16458623
v -0.77063566 0.06981395 0.04898322
v -0.77063566 0.06981395 0.16458623
v 0.62281495 0.06981395 0.16458623
v 0.62281495 0.00384604 0.16458623
v -0.77063566 0.00384604 0.16458623
v 0.62281495 0.06981395 0.16458623
v 0.62281495 0.06981395 0.04898322
v 0.62281495 0.00384604 0.04898322
v 0.62281495 0.00384604 0.16458623
v 0.62281495 0.06981395 0.04898322
v -0.77063566 0.06981395 0.04898322
v -0.77063566 0.00384604 0.04898322
v 0.62281495 0.00384604 0.04898322
v -0.77063566 0.06981395 0.04898322
v -0.77063566 0.06981395 0.16458623
v -0.77063566 0.00384604 0.16458623
v -0.77063566 0.00384604 0.04898322

vn 0.39737281 0.87105829 -0.28870818
vn 0.15178297 0.87105870 -0.46713877
vn -0.00000000 1.00000000 0.00000031
vn -0.15178309 0.87105882 -0.46713871
vn -0.39737251 0.87105834 -0.28870803
vn -0.49117815 0.87105924 -0.00000010
vn -0.39737228 0.87105858 0.28870815
vn -0.15178327 0.87105870 0.46713886
vn 0.15178359 0.87105834 0.46713942
vn 0.39737311 0.87105793 0.28870896
vn 0.49117893 0.87105876 0.00000001
vn 0.39737242 0.87105846 -0.28870815
vn 0.15178347 0.87105793 -0.46714008
vn 0.00000001 1.00000000 0.00000031
vn -0.15178329 0.87105823 -0.46713972
vn -0.39737239 0.87105846 -0.28870812
vn -0.49117926 0.87105864 -0.00000000
vn -0.39737210 0.87105858 0.28870821
vn -0.15178333 0.87105834 0.46713954
vn 0.15178345 0.87105799 0.46714011
vn 0.39737239 0.87105846 0.28870821
vn 0.49117893 0.87105876 0.00000001
vn 0.39737234 0.87105846 -0.28870839
vn 0.15178242 0.87105840 -0.46713960
vn 0.00000000 1.00000000 -0.00000016
vn -0.15178229 0.87105876 -0.46713910
vn -0.39737171 0.87105882 -0.28870812
vn -0.49117979 0.87105829 0.00000000
vn -0.39737174 0.87105888 0.28870803
vn -0.15178181 0.87105852 0.46713960
vn 0.15178178 0.87105846 0.46713981
vn 0.39737222 0.87105852 0.28870830
vn 0.49118036 0.87105799 0.00000010
vn 0.39737228 0.87105846 -0.28870821
vn 0.15178239 0.87105846 -0.46713939
vn -0.00000000 1.00000000 -0.00000029
vn -0.15178238 0.87105870 -0.46713910
vn -0.39737222 0.87105858 -0.28870794
vn -0.49118003 0.87105811 0.00000007
vn -0.39737213 0.87105858 0.28870824
vn -0.15178177 0.87105852 0.46713960
vn 0.15178192 0.87105852 0.46713963
vn 0.39737245 0.87105846 0.28870806
vn 0.49118000 0.87105811 -0.00000010
vn 0.39737251 0.87105840 -0.28870839
vn 0.15178247 0.87105846 -0.46713966
vn -0.00000000 1.00000000 0.00000000
vn -0.15178244 0.87105864 -0.46713918
vn -0.39737174 0.87105888 -0.28870782
vn -0.49117869 0.87105882 -0.00000001
vn -0.39737171 0.87105894 0.28870797
vn -0.15178177 0.87105858 0.46713954
vn 0.15178186 0.87105834 0.46713987
vn 0.39737263 0.87105840 0.28870821
vn 0.49118000 0.87105817 0.00000000
vn 0.39737132 0.87105912 -0.28870767
vn 0.15178218 0.87105882 -0.46713901
vn 0.00000000 1.00000000 -0.00000000
vn -0.15178280 0.87105823 -0.46713996
vn -0.39737263 0.87105811 -0.28870901
vn -0.49118114 0.87105751 0.00000000
vn -0.39737234 0.87105852 0.28870821
vn -0.15178157 0.87105870 0.46713945
vn 0.15178244 0.87105781 0.46714070
vn 0.39737263 0.87105811 0.28870910
vn 0.49117959 0.87105834 0.00000001
vn 0.39737219 0.87105858 -0.28870815
vn 0.15178232 0.87105858 -0.46713927
vn 0.00000000 1.00000000 -0.00000000
vn -0.15178245 0.87105858 -0.46713927
vn -0.39737248 0.87105840 -0.28870818
vn -0.49118087 0.87105769 -0.00000001
vn -0.39737245 0.87105840 0.28870836
vn -0.15178177 0.87105858 0.46713945
vn 0.15178199 0.87105829 0.46713990
vn 0.39737284 0.87105811 0.28870851
vn 0.49118057 0.87105781 -0.00000001
vn 0.39737225 0.87105846 -0.28870842
vn 0.15178177 0.87105858 -0.46713963
vn 0.00000000 1.00000000 -0.00000016
vn -0.15178165 0.87105882 -0.46713912
vn -0.39737162 0.87105888 -0.28870809
vn -0.49117970 0.87105829 -0.00000000
vn -0.39737171 0.87105882 0.28870803
vn -0.15178245 0.87105840 0.46713954
vn 0.15178244 0.87105840 0.46713978
vn 0.39737222 0.87105852 0.28870830
vn 0.49118027 0.87105805 0.00000009
vn 0.39737242 0.87105846 -0.28870815
vn 0.15178347 0.87105793 -0.46714008
vn 0.00000001 1.00000000 0.00000031
vn -0.15178329 0.87105823 -0.46713972
vn -0.39737239 0.87105846 -0.28870812
vn -0.49117929 0.87105852 -0.00000001
vn -0.39737222 0.87105858 0.28870821
vn -0.15178333 0.87105834 0.46713954
vn 0.15178345 0.87105799 0.46714011
vn 0.39737242 0.87105834 0.28870818
vn 0.49117902 0.87105870 0.00000001
vn 0.39737281 0.87105829 -0.28870818
vn 0.15178297 0.87105870 -0.46713877
vn -0.00000000 1.00000000 0.00000031
vn -0.15178309 0.87105882 -0.46713871
vn -0.39737251 0.87105834 -0.28870803
vn -0.49117821 0.87105912 -0.00000010
vn -0.39737234 0.87105852 0.28870812
vn -0.15178327 0.87105870 0.46713886
vn 0.15178359 0.87105834 0.46713942
vn 0.39737320 0.87105793 0.28870896
vn 0.49117902 0.87105870 0.00000001
vn 0.39737123 0.87105912 -0.28870767
vn 0.15178153 0.87105888 -0.46713904
vn -0.00000000 1.00000000 -0.00000000
vn -0.15178214 0.87105823 -0.46714005
vn -0.39737257 0.87105811 -0.28870901
vn -0.49118105 0.87105757 0.00000000
vn -0.39737228 0.87105852 0.28870824
vn -0.15178221 0.87105864 0.46713939
vn 0.15178308 0.87105769 0.46714064
vn 0.39737263 0.87105811 0.28870910
vn 0.49117950 0.87105840 0.00000000
vn 0.39737219 0.87105846 -0.28870821
vn 0.15178177 0.87105858 -0.46713945
vn 0.00000000 1.00000000 -0.00000029
vn -0.15178172 0.87105876 -0.46713918
vn -0.39737219 0.87105864 -0.28870797
vn -0.49117994 0.87105823 0.00000009
vn -0.39737213 0.87105852 0.28870824
vn -0.15178242 0.87105852 0.46713951
vn 0.15178257 0.87105846 0.46713960
vn 0.39737251 0.87105846 0.28870806
vn 0.49117994 0.87105823 -0.00000011
vn 0.39737219 0.87105864 -0.28870818
vn 0.15178169 0.87105870 -0.46713933
vn -0.00000000 1.00000000 -0.00000001
vn -0.15178181 0.87105864 -0.46713936
vn -0.39737236 0.87105840 -0.28870824
vn -0.49118075 0.87105769 0.00000000
vn -0.39737248 0.87105840 0.28870836
vn -0.15178244 0.87105852 0.46713942
vn 0.15178265 0.87105829 0.46713990
vn 0.39737284 0.87105823 0.28870851
vn 0.49118048 0.87105793 0.00000001
vn 0.39737248 0.87105840 -0.28870839
vn 0.15178181 0.87105852 -0.46713969
vn -0.00000000 1.00000000 0.00000000
vn -0.15178178 0.87105876 -0.46713921
vn -0.39737165 0.87105888 -0.28870785
vn -0.49117863 0.87105894 -0.00000001
vn -0.39737171 0.87105894 0.28870791
vn -0.15178241 0.87105846 0.46713948
vn 0.15178250 0.87105823 0.46713981
vn 0.39737263 0.87105840 0.28870821
vn 0.49117991 0.87105823 0.00000001
vn 0.39737263 0.87105840 -0.28870815
vn 0.15178217 0.87105906 -0.46713856
vn 0.00000000 1.00000000 0.00000000
vn -0.15178248 0.87105894 -0.46713853
vn -0.39737293 0.87105811 -0.28870842
vn -0.49117920 0.87105864 -0.00000013
vn -0.39737225 0.87105858 0.28870806
vn -0.15178260 0.87105858 0.46713930
vn 0.15178297 0.87105817 0.46713999
vn 0.39737281 0.87105799 0.28870884
vn 0.49117899 0.87105870 0.00000001
vn 0.39737231 0.87105858 -0.28870791
vn 0.15178245 0.87105846 -0.46713954
vn 0.00000006 1.00000000 0.00000032
vn -0.15178311 0.87105793 -0.46714023
vn -0.39737311 0.87105793 -0.28870893
vn -0.49118039 0.87105799 -0.00000001
vn -0.39737195 0.87105870 0.28870824
vn -0.15178280 0.87105840 0.46713960
vn 0.15178266 0.87105840 0.46713963
vn 0.39737207 0.87105858 0.28870824
vn 0.49118051 0.87105781 0.00000001
vn 0.44946605 0.83146960 -0.32655585
vn 0.17168105 0.83147037 -0.52837747
vn -0.17168126 0.83147031 -0.52837741
vn -0.44946569 0.83146977 -0.32655576
vn -0.55556834 0.83147085 -0.00000013
vn -0.44946566 0.83146971 0.32655582
vn -0.17168137 0.83147007 0.52837771
vn 0.17168173 0.83146983 0.52837801
vn 0.44946638 0.83146900 0.32655665
vn 0.55556953 0.83147013 0.00000001
vn 0.44946593 0.83146960 -0.32655606
vn 0.17168146 0.83146966 -0.52837849
vn -0.17168200 0.83146954 -0.52837849
vn -0.44946641 0.83146900 -0.32655683
vn -0.55556947 0.83147013 -0.00000001
vn -0.44946638 0.83146894 0.32655689
vn -0.17168196 0.83146954 0.52837855
vn 0.17168143 0.83146960 0.52837849
vn 0.44946593 0.83146948 0.32655603
vn 0.55556953 0.83147013 0.00000001
vn 0.44946536 0.83146989 -0.32655606
vn 0.17168047 0.83146954 -0.52837896
vn -0.17168035 0.83147001 -0.52837831
vn -0.44946441 0.83147067 -0.32655552
vn -0.55556995 0.83146983 0.00000000
vn -0.44946441 0.83147067 0.32655552
vn -0.17167984 0.83146960 0.52837896
vn 0.17167982 0.83146966 0.52837902
vn 0.44946513 0.83147013 0.32655576
vn 0.55557102 0.83146912 0.00000012
vn 0.44946527 0.83147001 -0.32655582
vn 0.17168008 0.83146989 -0.52837843
vn -0.17168003 0.83147007 -0.52837819
vn -0.44946522 0.83147007 -0.32655570
vn -0.55557060 0.83146948 0.00000019
vn -0.44946516 0.83146989 0.32655609
vn -0.17167938 0.83146995 0.52837873
vn 0.17167948 0.83146989 0.52837878
vn 0.44946566 0.83146977 0.32655588
vn 0.55557060 0.83146948 0.00000002
vn 0.44946560 0.83146960 -0.32655618
vn 0.17167987 0.83147007 -0.52837837
vn -0.17168006 0.83147013 -0.52837813
vn -0.44946468 0.83147037 -0.32655558
vn -0.55556840 0.83147091 0.00000000
vn -0.44946471 0.83147031 0.32655564
vn -0.17167929 0.83146989 0.52837878
vn 0.17167933 0.83147001 0.52837855
vn 0.44946575 0.83146971 0.32655600
vn 0.55557066 0.83146942 0.00000000
vn 0.44946420 0.83147091 -0.32655519
vn 0.17168021 0.83147001 -0.52837825
vn -0.17168078 0.83146948 -0.52837884
vn -0.44946575 0.83146930 -0.32655677
vn -0.55557215 0.83146840 0.00000000
vn -0.44946542 0.83146983 0.32655594
vn -0.17167941 0.83147007 0.52837837
vn 0.17168061 0.83146870 0.52838027
vn 0.44946572 0.83146942 0.32655683
vn 0.55556917 0.83147037 0.00000002
vn 0.44946554 0.83146977 -0.32655612
vn 0.17167982 0.83147019 -0.52837819
vn -0.17168000 0.83147013 -0.52837813
vn -0.44946575 0.83146960 -0.32655618
vn -0.55557173 0.83146870 -0.00000001
vn -0.44946578 0.83146954 0.32655638
vn -0.17167924 0.83147019 0.52837837
vn 0.17167956 0.83146983 0.52837890
vn 0.44946620 0.83146924 0.32655647
vn 0.55557138 0.83146882 0.00000001
vn 0.44946539 0.83146989 -0.32655606
vn 0.17167968 0.83146966 -0.52837908
vn -0.17167956 0.83147007 -0.52837831
vn -0.44946441 0.83147067 -0.32655552
vn -0.55556995 0.83146983 0.00000000
vn -0.44946441 0.83147067 0.32655552
vn -0.17168063 0.83146954 0.52837890
vn 0.17168060 0.83146948 0.52837890
vn 0.44946513 0.83147013 0.32655576
vn 0.55557102 0.83146918 0.00000011
vn 0.44946593 0.83146960 -0.32655606
vn 0.17168146 0.83146966 -0.52837849
vn -0.17168200 0.83146954 -0.52837849
vn -0.44946641 0.83146900 -0.32655683
vn -0.55556947 0.83147013 -0.00000001
vn -0.44946638 0.83146894 0.32655689
vn -0.17168196 0.83146954 0.52837855
vn 0.17168143 0.83146960 0.52837849
vn 0.44946593 0.83146948 0.32655603
vn 0.55556953 0.83147013 0.00000001
vn 0.44946605 0.83146960 -0.32655585
vn 0.17168105 0.83147037 -0.52837747
vn -0.17168126 0.83147031 -0.52837741
vn -0.44946569 0.83146977 -0.32655576
vn -0.55556834 0.83147085 -0.00000013
vn -0.44946566 0.83146971 0.32655582
vn -0.17168137 0.83147007 0.52837771
vn 0.17168173 0.83146983 0.52837801
vn 0.44946638 0.83146900 0.32655665
vn 0.55556953 0.83147013 0.00000001
vn 0.44946420 0.83147091 -0.32655519
vn 0.17167944 0.83147013 -0.52837837
vn -0.17168000 0.83146960 -0.52837896
vn -0.44946575 0.83146930 -0.32655677
vn -0.55557215 0.83146840 0.00000000
vn -0.44946545 0.83146989 0.32655597
vn -0.17168020 0.83147001 0.52837831
vn 0.17168140 0.83146858 0.52838022
vn 0.44946575 0.83146936 0.32655686
vn 0.55556917 0.83147037 0.00000000
vn 0.44946527 0.83147001 -0.32655585
vn 0.17167929 0.83147001 -0.52837849
vn -0.17167926 0.83147025 -0.52837825
vn -0.44946522 0.83147007 -0.32655570
vn -0.55557060 0.83146948 0.00000019
vn -0.44946516 0.83146989 0.32655612
vn -0.17168015 0.83146977 0.52837861
vn 0.17168029 0.83146966 0.52837873
vn 0.44946557 0.83146977 0.32655585
vn 0.55557060 0.83146948 0.00000000
vn 0.44946548 0.83146977 -0.32655612
vn 0.17167905 0.83147025 -0.52837825
vn -0.17167920 0.83147025 -0.52837819
vn -0.44946575 0.83146960 -0.32655621
vn -0.55557173 0.83146870 0.00000000
vn -0.44946575 0.83146954 0.32655635
vn -0.17168003 0.83147001 0.52837831
vn 0.17168032 0.83146960 0.52837878
vn 0.44946623 0.83146924 0.32655644
vn 0.55557138 0.83146894 0.00000000
vn 0.44946563 0.83146960 -0.32655618
vn 0.17167908 0.83147013 -0.52837843
vn -0.17167924 0.83147025 -0.52837813
vn -0.44946468 0.83147037 -0.32655555
vn -0.55556840 0.83147091 -0.00000001
vn -0.44946474 0.83147031 0.32655564
vn -0.17168006 0.83146977 0.52837867
vn 0.17168011 0.83146983 0.52837849
vn 0.44946569 0.83146977 0.32655597
vn 0.55557066 0.83146930 0.00000000
vn 0.44946581 0.83146971 -0.32655594
vn 0.17168018 0.83147043 -0.52837753
vn -0.17168051 0.83147049 -0.52837747
vn -0.44946605 0.83146942 -0.32655606
vn -0.55556953 0.83147019 -0.00000015
vn -0.44946519 0.83147007 0.32655567
vn -0.17168076 0.83146977 0.52837861
vn 0.17168105 0.83146948 0.52837884
vn 0.44946605 0.83146924 0.32655665
vn 0.55556995 0.83146977 0.00000000
vn 0.44946575 0.83146966 -0.32655594
vn 0.17168026 0.83147025 -0.52837795
vn -0.17168181 0.83146918 -0.52837920
vn -0.44946721 0.83146816 -0.32655773
vn -0.55557072 0.83146930 0.00000000
vn -0.44946587 0.83146918 0.32655695
vn -0.17168136 0.83146960 0.52837855
vn 0.17168047 0.83147025 0.52837783
vn 0.44946551 0.83146971 0.32655615
vn 0.55557150 0.83146888 -0.00000001
vn 0.00000000 0.33414203 0.94252282
vn 0.00000000 0.33414203 0.94252282
vn 0.00000000 0.33414200 0.94252276
vn 0.00000000 0.33414200 0.94252276
vn 0.00000000 1.00000000 0.00000000
vn 0.00000000 1.00000000 0.00000000
vn 0.00000000 1.00000000 0.00000000
vn 0.00000000 1.00000000 0.00000000
vn 0.00000000 0.33414200 -0.94252276
vn 0.00000000 0.33414200 -0.94252276
vn 0.00000000 0.33414203 -0.94252282
vn 0.00000000 0.33414203 -0.94252282
vn 0.95520777 0.29593596 0.00000000
vn 0.95520777 0.29593596 0.00000000
vn 0.95520782 0.29593599 0.00000000
vn 0.95520782 0.29593599 0.00000000
vn -0.95520788 0.29593596 0.00000000
vn -0.95520788 0.29593596 0.00000000
vn -0.95520782 0.29593590 0.00000000
vn -0.95520782 0.29593590 0.00000000
vn 0.00000000 1.00000000 0.00000000
vn 0.00000000 1.00000000 0.00000000
vn 0.00000000 1.00000000 0.00000000
vn 0.00000000 1.00000000 0.00000000
vn 0.00000000 1.00000000 0.00000000
vn 0.00000000 1.00000000 0.00000000
vn 0.00000000 1.00000000 0.00000000
vn 0.00000000 1.00000000 0.00000000
vn 0.00000000 0.72166687 -0.69224048
vn 0.00000000 0.72166687 -0.69224048
vn 0.00000000 0.72166687 -0.69224054
vn 0.00000000 0.72166687 -0.69224054
vn -0.74171412 0.67071623 0.00000000
vn -0.74171412 0.67071623 0.00000000
vn -0.74171418 0.67071617 0.00000000
vn -0.74171418 0.67071617 0.00000000
vn 0.00000000 0.72166687 0.69224048
vn 0.00000000 0.72166687 0.69224048
vn 0.00000000 0.72166687 0.69224054
vn 0.00000000 0.72166687 0.69224054
vn 0.74171615 0.67071402 0.00000000
vn 0.74171615 0.67071402 0.00000000
vn 0.74171615 0.67071402 0.00000000
vn 0.74171615 0.67071402 0.00000000
vn 0.00000000 1.00000000 0.00000002
vn 0.00000000 1.00000000 0.00000002
vn 0.00000000 1.00000000 0.00000002
vn 0.00000000 1.00000000 0.00000002
vn 0.00000000 1.00000000 0.00000000
vn 0.00000000 1.00000000 0.00000000
vn 0.00000000 1.00000000 0.00000000
vn 0.00000000 1.00000000 0.00000000
vn 0.00000000 1.00000000 -0.00000001
vn 0.00000000 1.00000000 -0.00000001
vn 0.00000000 1.00000000 -0.00000001
vn 0.00000000 1.00000000 -0.00000001
vn 0.00000000 1.00000000 0.00000000
vn 0.00000000 1.00000000 0.00000000
vn 0.00000000 1.00000000 0.00000000
vn 0.00000000 1.00000000 0.00000000
vn 0.00000000 0.00000000 -1.00000000
vn 0.00000000 0.00000000 -1.00000000
vn 0.00000000 0.00000000 -1.00000000
vn 0.00000000 0.00000000 -1.00000000
vn -1.00000000 0.00000000 0.00000000
vn -1.00000000 0.00000000 0.00000000
vn -1.00000000 0.00000000 0.00000000
vn -1.00000000 0.00000000 0.00000000
vn 0.00000000 0.00000000 1.00000000
vn 0.00000000 0.00000000 1.00000000
vn 0.00000000 0.00000000 1.00000000
vn 0.00000000 0.00000000 1.00000000
vn 1.00000000 0.00000000 0.00000000
vn 1.00000000 0.00000000 0.00000000
vn 1.00000000 0.00000000 0.00000000
vn 1.00000000 0.00000000 0.00000000

f 1//1 2//2 3//3
f 2//2 4//4 3//3
f 4//4 5//5 3//3
f 5//5 6//6 3//3
f 6//6 7//7 3//3
f 7//7 8//8 3//3
f 8//8 9//9 3//3
f 9//9 10//10 3//3
f 10//10 11//11 3//3
f 11//11 1//1 3//3
f 12//12 13//13 14//14
f 13//13 15//15 14//14
f 15//15 16//16 14//14
f 16//16 17//17 14//14
f 17//17 18//18 14//14
f 18//18 19//19 14//14
f 19//19 20//20 14//14
f 20//20 21//21 14//14
f 21//21 22//22 14//14
f 22//22 12//12 14//14
f 23//23 24//24 25//25
f 24//24 26//26 25//25
f 26//26 27//27 25//25
f 27//27 28//28 25//25
f 28//28 29//29 25//25
f 29//29 30//30 25//25
f 30//30 31//31 25//25
f 31//31 32//32 25//25
f 32//32 33//33 25//25
f 33//33 23//23 25//25
f 34//34 35//35 36//36
f 35//35 37//37 36//36
f 37//37 38//38 36//36
f 38//38 39//39 36//36
f 39//39 40//40 36//36
f 40//40 41//41 36//36
f 41//41 42//42 36//36
f 42//42 43//43 36//36
f 43//43 44//44 36//36
f 44//44 34//34 36//36
f 45//45 46//46 47//47
f 46//46 48//48 47//47
f 48//48 49//49 47//47
f 49//49 50//50 47//47
f 50//50 51//51 47//47
f 51//51 52//52 47//47
f 52//52 53//53 47//47
f 53//53 54//54 47//47
f 54//54 55//55 47//47
f 55//55 45//45 47//47
f 56//56 57//57 58//58
f 57//57 59//59 58//58
f 59//59 60//60 58//58
f 60//60 61//61 58//58
f 61//61 62//62 58//58
f 62//62 63//63 58//58
f 63//63 64//64 58//58
f 64//64 65//65 58//58
f 65//65 66//66 58//58
f 66//66 56//56 58//58
f 67//67 68//68 69//69
f 68//68 70//70 69//69
f 70//70 71//71 69//69
f 71//71 72//72 69//69
f 72//72 73//73 69//69
f 73//73 74//74 69//69
f 74//74 75//75 69//69
f 75//75 76//76 69//69
f 76//76 77//77 69//69
f 77//77 67//67 69//69
f 78//78 79//79 80//80
f 79//79 81//81 80//80
f 81//81 82//82 80//80
f 82//82 83//83 80//80
f 83//83 84//84 80//80
f 84//84 85//85 80//80
f 85//85 86//86 80//80
f 86//86 87//87 80//80
f 87//87 88//88 80//80
f 88//88 78//78 80//80
f 89//89 90//90 91//91
f 90//90 92//92 91//91
f 92//92 93//93 91//91
f 93//93 94//94 91//91
f 94//94 95//95 91//91
f 95//95 96//96 91//91
f 96//96 97//97 91//91
f 97//97 98//98 91//91
f 98//98 99//99 91//91
f 99//99 89//89 91//91
f 100//100 101//101 102//102
f 101//101 103//103 102//102
f 103//103 104//104 102//102
f 104//104 105//105 102//102
f 105//105 106//106 102//102
f 106//106 107//107 102//102
f 107//107 108//108 102//102
f 108//108 109//109 102//102
f 109//109 110//110 102//102
f 110//110 100//100 102//102
f 111//111 112//112 113//113
f 112//112 114//114 113//113
f 114//114 115//115 113//113
f 115//115 116//116 113//113
f 116//116 117//117 113//113
f 117//117 118//118 113//113
f 118//118 119//119 113//113
f 119//119 120//120 113//113
f 120//120 121//121 113//113
f 121//121 111//111 113//113
f 122//122 123//123 124//124
f 123//123 125//125 124//124
f 125//125 126//126 124//124
f 126//126 127//127 124//124
f 127//127 128//128 124//124
f 128//128 129//129 124//124
f 129//129 130//130 124//124
f 130//130 131//131 124//124
f 131//131 132//132 124//124
f 132//132 122//122 124//124
f 133//133 134//134 135//135
f 134//134 136//136 135//135
f 136//136 137//137 135//135
f 137//137 138//138 135//135
f 138//138 139//139 135//135
f 139//139 140//140 135//135
f 140//140 141//141 135//135
f 141//141 142//142 135//135
f 142//142 143//143 135//135
f 143//143 133//133 135//135
f 144//144 145//145 146//146
f 145//145 147//147 146//146
f 147//147 148//148 146//146
f 148//148 149//149 146//146
f 149//149 150//150 146//146
f 150//150 151//151 146//146
f 151//151 152//152 146//146
f 152//152 153//153 146//146
f 153//153 154//154 146//146
f 154//154 144//144 146//146
f 155//155 156//156 157//157
f 156//156 158//158 157//157
f 158//158 159//159 157//157
f 159//159 160//160 157//157
f 160//160 161//161 157//157
f 161//161 162//162 157//157
f 162//162 163//163 157//157
f 163//163 164//164 157//157
f 164//164 165//165 157//157
f 165//165 155//155 157//157
f 166//166 167//167 168//168
f 167//167 169//169 168//168
f 169//169 170//170 168//168
f 170//170 171//171 168//168
f 171//171 172//172 168//168
f 172//172 173//173 168//168
f 173//173 174//174 168//168
f 174//174 175//175 168//168
f 175//175 176//176 168//168
f 176//176 166//166 168//168
f 177//177 178//178 2//2
f 177//177 2//2 1//1
f 178//178 179//179 4//4
f 178//178 4//4 2//2
f 179//179 180//180 5//5
f 179//179 5//5 4//4
f 180//180 181//181 6//6
f 180//180 6//6 5//5
f 181//181 182//182 7//7
f 181//181 7//7 6//6
f 182//182 183//183 8//8
f 182//182 8//8 7//7
f 183//183 184//184 9//9
f 183//183 9//9 8//8
f 184//184 185//185 10//10
f 184//184 10//10 9//9
f 185//185 186//186 11//11
f 185//185 11//11 10//10
f 186//186 177//177 1//1
f 186//186 1//1 11//11
f 187//187 188//188 13//13
f 187//187 13//13 12//12
f 188//188 189//189 15//15
f 188//188 15//15 13//13
f 189//189 190//190 16//16
f 189//189 16//16 15//15
f 190//190 191//191 17//17
f 190//190 17//17 16//16
f 191//191 192//192 18//18
f 191//191 18//18 17//17
f 192//192 193//193 19//19
f 192//192 19//19 18//18
f 193//193 194//194 20//20
f 193//193 20//20 19//19
f 194//194 195//195 21//21
f 194//194 21//21 20//20
f 195//195 196//196 22//22
f 195//195 22//22 21//21
f 196//196 187//187 12//12
f 196//196 12//12 22//22
f 197//197 198//198 24//24
f 197//197 24//24 23//23
f 198//198 199//199 26//26
f 198//198 26//26 24//24
f 199//199 200//200 27//27
f 199//199 27//27 26//26
f 200//200 201//201 28//28
f 200//200 28//28 27//27
f 201//201 202//202 29//29
f 201//201 29//29 28//28
f 202//202 203//203 30//30
f 202//202 30//30 29//29
f 203//203 204//204 31//31
f 203//203 31//31 30//30
f 204//204 205//205 32//32
f 204//204 32//32 31//31
f 205//205 206//206 33//33
f 205//205 33//33 32//32
f 206//206 197//197 23//23
f 206//206 23//23 33//33
f 207//207 208//208 35//35
f 207//207 35//35 34//34
f 208//208 209//209 37//37
f 208//208 37//37 35//35
f 209//209 210//210 38//38
f 209//209 38//38 37//37
f 210//210 211//211 39//39
f 210//210 39//39 38//38
f 211//211 212//212 40//40
f 211//211 40//40 39//39
f 212//212 213//213 41//41
f 212//212 41//41 40//40
f 213//213 214//214 42//42
f 213//213 42//42 41//41
f 214//214 215//215 43//43
f 214//214 43//43 42//42
f 215//215 216//216 44//44
f 215//215 44//44 43//43
f 216//216 207//207 34//34
f 216//216 34//34 44//44
f 217//217 218//218 46//46
f 217//217 46//46 45//45
f 218//218 219//219 48//48
f 218//218 48//48 46//46
f 219//219 220//220 49//49
f 219//219 49//49 48//48
f 220//220 221//221 50//50
f 220//220 50//50 49//49
f 221//221 222//222 51//51
f 221//221 51//51 50//50
f 222//222 223//223 52//52
f 222//222 52//52 51//51
f 223//223 224//224 53//53
f 223//223 53//53 52//52
f 224//224 225//225 54//54
f 224//224 54//54 53//53
f 225//225 226//226 55//55
f 225//225 55//55 54//54
f 226//226 217//217 45//45
f 226//226 45//45 55//55
f 227//227 228//228 57//57
f 227//227 57//57 56//56
f 228//228 229//229 59//59
f 228//228 59//59 57//57
f 229//229 230//230 60//60
f 229//229 60//60 59//59
f 230//230 231//231 61//61
f 230//230 61//61 60//60
f 231//231 232//232 62//62
f 231//231 62//62 61//61
f 232//232 233//233 63//63
f 232//232 63//63 62//62
f 233//233 234//234 64//64
f 233//233 64//64 63//63
f 234//234 235//235 65//65
f 234//234 65//65 64//64
f 235//235 236//236 66//66
f 235//235 66//66 65//65
f 236//236 227//227 56//56
f 236//236 56//56 66//66
f 237//237 238//238 68//68
f 237//237 68//68 67//67
f 238//238 239//239 70//70
f 238//238 70//70 68//68
f 239//239 240//240 71//71
f 239//239 71//71 70//70
f 240//240 241//241 72//72
f 240//240 72//72 71//71
f 241//241 242//242 73//73
f 241//241 73//73 72//72
f 242//242 243//243 74//74
f 242//242 74//74 73//73
f 243//243 244//244 75//75
f 243//243 75//75 74//74
f 244//244 245//245 76//76
f 244//244 76//76 75//75
f 245//245 246//246 77//77
f 245//245 77//77 76//76
f 246//246 237//237 67//67
f 246//246 67//67 77//77
f 247//247 248//248 79//79
f 247//247 79//79 78//78
f 248//248 249//249 81//81
f 248//248 81//81 79//79
f 249//249 250//250 82//82
f 249//249 82//82 81//81
f 250//250 251//251 83//83
f 250//250 83//83 82//82
f 251//251 252//252 84//84
f 251//251 84//84 83//83
f 252//252 253//253 85//85
f 252//252 85//85 84//84
f 253//253 254//254 86//86
f 253//253 86//86 85//85
f 254//254 255//255 87//87
f 254//254 87//87 86//86
f 255//255 256//256 88//88
f 255//255 88//88 87//87
f 256//256 247//247 78//78
f 256//256 78//78 88//88
f 257//257 258//258 90//90
f 257//257 90//90 89//89
f 258//258 259//259 92//92
f 258//258 92//92 90//90
f 259//259 260//260 93//93
f 259//259 93//93 92//92
f 260//260 261//261 94//94
f 260//260 94//94 93//93
f 261//261 262//262 95//95
f 261//261 95//95 94//94
f 262//262 263//263 96//96
f 262//262 96//96 95//95
f 263//263 264//264 97//97
f 263//263 97//97 96//96
f 264//264 265//265 98//98
f 264//264 98//98 97//97
f 265//265 266//266 99//99
f 265//265 99//99 98//98
f 266//266 257//257 89//89
f 266//266 89//89 99//99
f 267//267 268//268 101//101
f 267//267 101//101 100//100
f 268//268 269//269 103//103
f 268//268 103//103 101//101
f 269//269 270//270 104//104
f 269//269 104//104 103//103
f 270//270 271//271 105//105
f 270//270 105//105 104//104
f 271//271 272//272 106//106
f 271//271 106//106 105//105
f 272//272 273//273 107//107
f 272//272 107//107 106//106
f 273//273 274//274 108//108
f 273//273 108//108 107//107
f 274//274 275//275 109//109
f 274//274 109//109 108//108
f 275//275 276//276 110//110
f 275//275 110//110 109//109
f 276//276 267//267 100//100
f 276//276 100//100 110//110
f 277//277 278//278 112//112
f 277//277 112//112 111//111
f 278//278 279//279 114//114
f 278//278 114//114 112//112
f 279//279 280//280 115//115
f 279//279 115//115 114//114
f 280//280 281//281 116//116
f 280//280 116//116 115//115
f 281//281 282//282 117//117
f 281//281 117//117 116//116
f 282//282 283//283 118//118
f 282//282 118//118 117//117
f 283//283 284//284 119//119
f 283//283 119//119 118//118
f 284//284 285//285 120//120
f 284//284 120//120 119//119
f 285//285 286//286 121//121
f 285//285 121//121 120//120
f 286//286 277//277 111//111
f 286//286 111//111 121//121
f 287//287 288//288 123//123
f 287//287 123//123 122//122
f 288//288 289//289 125//125
f 288//288 125//125 123//123
f 289//289 290//290 126//126
f 289//289 126//126 125//125
f 290//290 291//291 127//127
f 290//290 127//127 126//126
f 291//291 292//292 128//128
f 291//291 128//128 127//127
f 292//292 293//293 129//129
f 292//292 129//129 128//128
f 293//293 294//294 130//130
f 293//293 130//130 129//129
f 294//294 295//295 131//131
f 294//294 131//131 130//130
f 295//295 296//296 132//132
f 295//295 132//132 131//131
f 296//296 287//287 122//122
f 296//296 122//122 132//132
f 297//297 298//298 134//134
f 297//297 134//134 133//133
f 298//298 299//299 136//136
f 298//298 136//136 134//134
f 299//299 300//300 137//137
f 299//299 137//137 136//136
f 300//300 301//301 138//138
f 300//300 138//138 137//137
f 301//301 302//302 139//139
f 301//301 139//139 138//138
f 302//302 303//303 140//140
f 302//302 140//140 139//139
f 303//303 304//304 141//141
f 303//303 141//141 140//140
f 304//304 305//305 142//142
f 304//304 142//142 141//141
f 305//305 306//306 143//143
f 305//305 143//143 142//142
f 306//306 297//297 133//133
f 306//306 133//133 143//143
f 307//307 308//308 145//145
f 307//307 145//145 144//144
f 308//308 309//309 147//147
f 308//308 147//147 145//145
f 309//309 310//310 148//148
f 309//309 148//148 147//147
f 310//310 311//311 149//149
f 310//310 149//149 148//148
f 311//311 312//312 150//150
f 311//311 150//150 149//149
f 312//312 313//313 151//151
f 312//312 151//151 150//150
f 313//313 314//314 152//152
f 313//313 152//152 151//151
f 314//314 315//315 153//153
f 314//314 153//153 152//152
f 315//315 316//316 154//154
f 315//315 154//154 153//153
f 316//316 307//307 144//144
f 316//316 144//144 154//154
f 317//317 318//318 156//156
f 317//317 156//156 155//155
f 318//318 319//319 158//158
f 318//318 158//158 156//156
f 319//319 320//320 159//159
f 319//319 159//159 158//158
f 320//320 321//321 160//160
f 320//320 160//160 159//159
f 321//321 322//322 161//161
f 321//321 161//161 160//160
f 322//322 323//323 162//162
f 322//322 162//162 161//161
f 323//323 324//324 163//163
f 323//323 163//163 162//162
f 324//324 325//325 164//164
f 324//324 164//164 163//163
f 325//325 326//326 165//165
f 325//325 165//165 164//164
f 326//326 317//317 155//155
f 326//326 155//155 165//165
f 327//327 328//328 167//167
f 327//327 167//167 166//166
f 328//328 329//329 169//169
f 328//328 169//169 167//167
f 329//329 330//330 170//170
f 329//329 170//170 169//169
f 330//330 331//331 171//171
f 330//330 171//171 170//170
f 331//331 332//332 172//172
f 331//331 172//172 171//171
f 332//332 333//333 173//173
f 332//332 173//173 172//172
f 333//333 334//334 174//174
f 333//333 174//174 173//173
f 334//334 335//335 175//175
f 334//334 175//175 174//174
f 335//335 336//336 176//176
f 335//335 176//176 175//175
f 336//336 327//327 166//166
f 336//336 166//166 176//176
f 337//337 338//338 339//339
f 337//337 339//339 340//340
f 341//341 342//342 343//343
f 341//341 343//343 344//344
f 345//345 346//346 347//347
f 345//345 347//347 348//348
f 349//349 350//350 351//351
f 349//349 351//351 352//352
f 353//353 354//354 355//355
f 353//353 355//355 356//356
f 357//357 358//358 359//359
f 357//357 359//359 360//360
f 358//358 361//361 362//362
f 358//358 362//362 359//359
f 361//361 363//363 364//364
f 361//361 364//364 362//362
f 363//363 357//357 360//360
f 363//363 360//360 364//364
f 365//365 366//366 367//367
f 365//365 367//367 368//368
f 369//369 370//370 371//371
f 369//369 371//371 372//372
f 373//373 374//374 375//375
f 373//373 375//375 376//376
f 377//377 378//378 379//379
f 377//377 379//379 380//380
f 381//381 382//382 383//383
f 381//381 383//383 384//384
f 385//385 386//386 387//387
f 385//385 387//387 388//388
f 389//389 390//390 391//391
f 389//389 391//391 392//392
f 393//393 394//394 395//395
f 393//393 395//395 396//396
f 397//397 398//398 399//399
f 397//397 399//399 400//400
f 401//401 402//402 403//403
f 401//401 403//403 404//404
f 405//405 406//406 407//407
f 405//405 407//407 408//408
f 409//409 410//410 411//411
f 409//409 411//411 412//412
