# https://github.com/mikedh/trimesh
v -0.01433183 0.01842993 0.00220055
v -0.01279624 0.01869114 0.00220054
v -0.01129939 0.01826022 0.00220051
v -0.01013775 0.01722250 0.00220047
v -0.00954139 0.01578354 0.00220043
v -0.00962843 0.01422833 0.00220041
v -0.01038163 0.01286490 0.00220039
v -0.01165182 0.01196329 0.00220039
v -0.01318740 0.01170208 0.00220041
v -0.01468426 0.01213301 0.00220044
v -0.01584590 0.01317072 0.00220048
v -0.01644226 0.01460968 0.00220051
v -0.01635522 0.01616490 0.00220054
v -0.01560202 0.01752833 0.00220055
v -0.01465811 0.01647469 0.00220052
v -0.01379583 0.01713661 0.00220052
v -0.01507391 0.01547032 0.00220051
v -0.01493182 0.01439261 0.00220049
v -0.01426991 0.01353033 0.00220046
v -0.01326553 0.01311453 0.00220044
v -0.01218782 0.01325662 0.00220043
v -0.01132554 0.01391853 0.00220042
v -0.01090974 0.01492290 0.00220044
v -0.01105183 0.01600062 0.00220046
v -0.01171374 0.01686290 0.00220049
v -0.01271812 0.01727870 0.00220051
f 18 12 17
f 18 11 12
f 18 10 11
f 19 10 18
f 19 9 10
f 20 9 19
f 20 8 9
f 21 8 20
f 21 7 8
f 22 7 21
f 22 6 7
f 23 6 22
f 23 5 6
f 24 5 23
f 24 4 5
f 3 4 24
f 25 3 24
f 25 2 3
f 26 2 25
f 26 1 2
f 16 1 26
f 16 14 1
f 15 14 16
f 15 13 14
f 17 13 15
f 17 12 13

