# https://github.com/mikedh/trimesh
v -0.00799760 0.01906163 0.00350047
v -0.00799413 0.01906190 0.00350047
v -0.00765799 0.01777106 0.00350044
v 0.00490475 0.02007954 0.00350030
v 0.00490822 0.02007981 0.00350030
v -0.00132127 0.01673890 0.00350033
v 0.00164191 0.01671361 0.00350029
v 0.00296482 0.01688439 0.00350027
v 0.00477519 0.01875196 0.00350028
v 0.00408293 0.01761178 0.00350027
v -0.00679550 0.01675353 0.00350041
v -0.00557716 0.01621048 0.00350038
v -0.00424383 0.01624925 0.00350037
v 0.00408302 0.01761166 0.00950027
v 0.00477528 0.01875185 0.00950028
v 0.00490484 0.02007943 0.00950030
v 0.00490831 0.02007970 0.00950030
v -0.00799751 0.01906152 0.00950047
v -0.00132119 0.01673879 0.00950033
v -0.00424375 0.01624914 0.00950037
v -0.00799404 0.01906179 0.00950047
v -0.00765791 0.01777095 0.00950044
v -0.00679541 0.01675342 0.00950041
v -0.00557707 0.01621036 0.00950038
v 0.00296491 0.01688428 0.00950027
v 0.00164200 0.01671350 0.00950029
f 16 4 15
f 16 5 4
f 17 5 16
f 15 4 9
f 15 9 14
f 14 9 10
f 14 10 25
f 25 10 8
f 25 8 26
f 26 8 7
f 26 7 6
f 26 6 19
f 19 6 13
f 19 13 20
f 20 13 24
f 24 13 12
f 24 12 23
f 23 12 11
f 23 11 22
f 22 11 3
f 22 3 21
f 21 3 2
f 2 18 21
f 1 18 2

