# https://github.com/mikedh/trimesh
v 0.00910675 0.02027908 0.00220025
v 0.00910672 0.02027912 0.00000025
v 0.01064234 0.02054029 0.00220023
v 0.01064231 0.02054033 0.00000023
v 0.01213919 0.02010936 0.00220020
v 0.01213916 0.02010941 0.00000020
v 0.01330083 0.01907165 0.00220016
v 0.01330080 0.01907169 0.00000016
v 0.01389719 0.01763269 0.00220013
v 0.01389716 0.01763273 0.00000013
v 0.01381015 0.01607748 0.00220010
v 0.01381012 0.01607752 0.00000010
v 0.01305695 0.01471404 0.00220008
v 0.01305692 0.01471408 0.00000008
v 0.01178676 0.01381244 0.00220009
v 0.01178673 0.01381248 0.00000009
v 0.01025118 0.01355123 0.00220010
v 0.01025114 0.01355127 0.00000010
v 0.00875432 0.01398216 0.00220013
v 0.00875429 0.01398220 0.00000013
v 0.00759268 0.01501987 0.00220017
v 0.00759265 0.01501991 0.00000017
v 0.00699632 0.01645883 0.00220021
v 0.00699629 0.01645887 0.00000021
v 0.00708336 0.01801404 0.00220023
v 0.00708333 0.01801408 0.00000023
v 0.00783657 0.01937748 0.00220025
v 0.00783653 0.01937752 0.00000025
f 1 2 3
f 1 28 2
f 27 28 1
f 27 26 28
f 25 26 27
f 25 24 26
f 23 24 25
f 23 22 24
f 21 22 23
f 21 20 22
f 19 20 21
f 19 18 20
f 17 18 19
f 17 16 18
f 15 16 17
f 15 14 16
f 13 14 15
f 13 12 14
f 11 12 13
f 11 10 12
f 9 10 11
f 9 8 10
f 7 8 9
f 7 6 8
f 5 6 7
f 5 4 6
f 3 4 5
f 3 2 4

