# https://github.com/mikedh/trimesh
v 0.04128355 0.01009560 0.00329959
v 0.03912948 0.01658720 0.00329974
v 0.03596198 0.02264920 0.00329990
v 0.03186309 0.02812460 0.00330006
v 0.02693896 0.03287159 0.00330022
v 0.02131712 0.03676721 0.00330038
v 0.01514319 0.03971058 0.00330052
v 0.00857705 0.04162547 0.00330065
v 0.00178878 0.04246228 0.00330077
v -0.00504582 0.04219934 0.00330086
v -0.01174974 0.04084345 0.00330094
v -0.01814934 0.03842974 0.00330098
v -0.02407889 0.03502072 0.00330101
v -0.02938480 0.03070467 0.00330100
v -0.03392966 0.02559339 0.00330097
v -0.03759576 0.01981926 0.00330092
v -0.04028815 0.01353181 0.00330084
v -0.04193709 0.00689390 0.00330074
v -0.04249988 0.00007743 0.00330062
v -0.04196195 -0.00674104 0.00330049
v -0.04033722 -0.01338493 0.00330034
v -0.03766778 -0.01968215 0.00330018
v -0.03402277 -0.02546961 0.00330002
v -0.02949657 -0.03059743 0.00329986
v -0.02420644 -0.03493280 0.00329970
v -0.01828937 -0.03836342 0.00329955
v -0.01189861 -0.04080045 0.00329941
v -0.00519968 -0.04218078 0.00329929
v 0.00163392 -0.04246864 0.00329918
v 0.00842520 -0.04165659 0.00329910
v 0.01499827 -0.03976566 0.00329904
v 0.02118290 -0.03684482 0.00329900
v 0.02681891 -0.03296973 0.00329899
v 0.03176032 -0.02824073 0.00329901
v 0.03587915 -0.02278032 0.00329905
v 0.03906874 -0.01672991 0.00329912
v 0.04124646 -0.01024620 0.00329921
v 0.04235593 -0.00349713 0.00329932
v 0.04236840 0.00334252 0.00329944
v 0.00324642 -0.02428403 0.00329950
v -0.00204982 -0.02441416 0.00329957
v -0.00725020 -0.02340271 0.00329967
v -0.01211157 -0.02129698 0.00329978
v 0.01728049 -0.01736774 0.00329942
v 0.01314295 -0.02067648 0.00329942
v 0.00839085 -0.02301841 0.00329945
v 0.02426736 -0.00336867 0.00329958
v 0.02297585 -0.00850667 0.00329951
v 0.02061002 -0.01324691 0.00329945
v -0.02448922 0.00072504 0.00330037
v -0.02442406 -0.00192696 0.00330032
v -0.02407255 -0.00455638 0.00330027
v -0.02253027 -0.00962475 0.00330015
v -0.01640662 -0.01819543 0.00329990
v -0.01993450 -0.01424308 0.00330002
v 0.02135769 0.01200416 0.00329991
v 0.02343891 0.00713225 0.00329979
v 0.02442416 0.00192684 0.00329968
v 0.00973807 0.02248151 0.00330028
v 0.01434327 0.01986252 0.00330016
v 0.01827780 0.01631477 0.00330004
v -0.00585285 0.02379056 0.00330053
v -0.00060173 0.02449255 0.00330047
v 0.00467752 0.02404929 0.00330038
v -0.01905687 0.01539746 0.00330057
v -0.01530132 0.01913415 0.00330058
v -0.01083029 0.02197615 0.00330057
v -0.02376080 0.00597256 0.00330046
v -0.02192134 0.01094080 0.00330052
f 40 29 41
f 40 30 29
f 40 31 30
f 46 31 40
f 46 32 31
f 45 32 46
f 45 33 32
f 44 33 45
f 44 34 33
f 44 35 34
f 49 35 44
f 49 36 35
f 48 36 49
f 48 37 36
f 47 37 48
f 47 38 37
f 47 39 38
f 58 39 47
f 58 1 39
f 57 1 58
f 57 2 1
f 56 2 57
f 56 3 2
f 56 4 3
f 61 4 56
f 61 5 4
f 60 5 61
f 60 6 5
f 59 6 60
f 59 7 6
f 59 8 7
f 64 8 59
f 64 9 8
f 63 9 64
f 63 10 9
f 62 10 63
f 62 11 10
f 62 12 11
f 67 12 62
f 67 13 12
f 66 13 67
f 66 14 13
f 65 14 66
f 65 15 14
f 65 16 15
f 69 16 65
f 69 17 16
f 68 17 69
f 68 18 17
f 50 18 68
f 50 19 18
f 20 19 50
f 50 51 20
f 20 51 52
f 20 52 21
f 21 52 53
f 53 22 21
f 53 23 22
f 55 23 53
f 55 24 23
f 54 24 55
f 54 25 24
f 43 25 54
f 43 26 25
f 27 26 43
f 42 27 43
f 42 28 27
f 41 28 42
f 41 29 28

