# https://github.com/mikedh/trimesh
v -0.02392164 -0.00791394 0.02100020
v -0.02287159 -0.00819509 0.02100018
v -0.02210279 -0.00896360 0.02100015
v -0.02182124 -0.01001354 0.02100013
v -0.02210239 -0.01106360 0.02100012
v -0.02287090 -0.01183240 0.02100011
v -0.02392084 -0.01211394 0.02100012
v -0.02497090 -0.01183280 0.02100014
v -0.02573970 -0.01106429 0.02100017
v -0.02602124 -0.01001434 0.02100019
v -0.02574010 -0.00896429 0.02100021
v -0.02497159 -0.00819549 0.02100021
v -0.02493912 -0.00588763 0.02100025
v -0.02392205 -0.00576394 0.02100024
v -0.02290494 -0.00588725 0.02100022
v -0.02110358 -0.00683223 0.02100018
v -0.01994771 -0.00850611 0.02100013
v -0.01970213 -0.01052542 0.02100009
v -0.02042310 -0.01242755 0.02100006
v -0.02194545 -0.01377675 0.02100006
v -0.02392043 -0.01426394 0.02100008
v -0.02589560 -0.01377751 0.02100012
v -0.02741846 -0.01242888 0.02100017
v -0.02814016 -0.01052703 0.02100021
v -0.02789535 -0.00850763 0.02100025
v -0.02674012 -0.00683331 0.02100026
f 13 14 1
f 1 14 15
f 1 15 2
f 2 15 16
f 2 16 3
f 3 16 17
f 3 17 4
f 4 17 18
f 4 18 5
f 5 18 19
f 5 19 6
f 6 19 20
f 6 20 7
f 7 20 21
f 7 21 8
f 8 21 22
f 8 22 9
f 9 22 23
f 9 23 10
f 10 23 24
f 10 24 11
f 11 24 25
f 11 25 12
f 12 25 26
f 12 26 1
f 1 26 13

