# https://github.com/mikedh/trimesh
v -0.02622961 -0.02242010 0.00849996
v -0.02269401 -0.01939925 0.00849997
v -0.02616379 -0.02249691 0.00849996
v -0.02230452 -0.02632935 0.00849983
v -0.01789091 -0.02950764 0.00849971
v -0.00686727 -0.02863795 0.00849956
v -0.00703157 -0.02732518 0.00849959
v -0.00774458 -0.02621074 0.00849962
v -0.00886762 -0.02551137 0.00849965
v -0.01241098 -0.02398757 0.00849973
v -0.01570105 -0.02197442 0.00849982
v -0.01867070 -0.01951301 0.00849991
v -0.01993530 -0.01879150 0.00849994
v -0.02139067 -0.01875035 0.00849996
f 6 7 5
f 5 7 8
f 5 8 9
f 9 10 5
f 5 10 11
f 5 11 4
f 4 11 12
f 4 12 13
f 14 4 13
f 2 4 14
f 2 3 4
f 1 3 2

