# https://github.com/mikedh/trimesh
v -0.01981611 -0.00443290 0.00220021
v -0.01828052 -0.00417169 0.00220019
v -0.01678367 -0.00460262 0.00220016
v -0.01562202 -0.00564033 0.00220012
v -0.01502566 -0.00707929 0.00220009
v -0.01511270 -0.00863451 0.00220006
v -0.01586591 -0.00999794 0.00220004
v -0.01713609 -0.01089955 0.00220005
v -0.01867168 -0.01116075 0.00220006
v -0.02016853 -0.01072983 0.00220009
v -0.02133018 -0.00969212 0.00220013
v -0.02192654 -0.00825315 0.00220016
v -0.02183949 -0.00669794 0.00220019
v -0.02108629 -0.00533451 0.00220021
v -0.02014238 -0.00638814 0.00220017
v -0.01928010 -0.00572623 0.00220017
v -0.02055818 -0.00739251 0.00220016
v -0.02041609 -0.00847023 0.00220014
v -0.01975418 -0.00933251 0.00220011
v -0.01874981 -0.00974831 0.00220009
v -0.01767209 -0.00960622 0.00220008
v -0.01680981 -0.00894430 0.00220008
v -0.01639401 -0.00793993 0.00220009
v -0.01653610 -0.00686222 0.00220011
v -0.01719802 -0.00599994 0.00220014
v -0.01820239 -0.00558414 0.00220016
f 24 5 23
f 23 5 6
f 23 6 22
f 22 6 7
f 22 7 21
f 21 7 8
f 21 8 20
f 20 8 9
f 20 9 19
f 19 9 10
f 19 10 18
f 10 11 18
f 18 11 12
f 18 12 17
f 17 12 13
f 17 13 15
f 15 13 14
f 15 14 16
f 16 14 1
f 16 1 26
f 26 1 2
f 26 2 25
f 25 2 3
f 25 3 24
f 24 3 4
f 24 4 5

