# https://github.com/mikedh/trimesh
v 0.04236858 0.00334230 0.01529945
v 0.04128373 0.01009537 0.01529959
v 0.03912966 0.01658698 0.01529974
v 0.03596216 0.02264898 0.01529990
v 0.03186326 0.02812438 0.01530006
v 0.02693913 0.03287136 0.01530022
v 0.02131730 0.03676699 0.01530038
v 0.01514336 0.03971036 0.01530052
v 0.00857723 0.04162525 0.01530065
v 0.00178895 0.04246205 0.01530077
v -0.00504565 0.04219911 0.01530086
v -0.01174957 0.04084322 0.01530094
v -0.01814917 0.03842951 0.01530098
v -0.02407871 0.03502049 0.01530101
v -0.02938463 0.03070445 0.01530100
v -0.03392949 0.02559317 0.01530097
v -0.03759558 0.01981903 0.01530092
v -0.04028797 0.01353159 0.01530084
v -0.04193691 0.00689367 0.01530074
v -0.04249971 0.00007721 0.01530062
v -0.04196177 -0.00674127 0.01530049
v -0.04033704 -0.01338515 0.01530034
v -0.03766761 -0.01968237 0.01530018
v -0.03402259 -0.02546984 0.01530002
v -0.02949640 -0.03059766 0.01529986
v -0.02420626 -0.03493302 0.01529970
v -0.01828919 -0.03836365 0.01529955
v -0.01189843 -0.04080068 0.01529941
v -0.00519951 -0.04218100 0.01529929
v 0.00163409 -0.04246887 0.01529918
v 0.00842537 -0.04165682 0.01529910
v 0.01499845 -0.03976589 0.01529904
v 0.02118308 -0.03684505 0.01529900
v 0.02681908 -0.03296995 0.01529899
v 0.03176049 -0.02824096 0.01529901
v 0.03587933 -0.02278054 0.01529905
v 0.03906891 -0.01673013 0.01529912
v 0.04124664 -0.01024643 0.01529921
v 0.04235610 -0.00349735 0.01529932
v 0.00585312 -0.02379091 0.01529947
v 0.01083056 -0.02197649 0.01529943
v 0.01530159 -0.01913450 0.01529942
v 0.01905715 -0.01539781 0.01529943
v -0.00973780 -0.02248186 0.01529972
v -0.00467725 -0.02404964 0.01529962
v 0.00060200 -0.02449290 0.01529953
v -0.02135741 -0.01200451 0.01530009
v -0.01827753 -0.01631512 0.01529996
v -0.01434300 -0.01986286 0.01529984
v -0.02426709 0.00336832 0.01530042
v -0.02442388 -0.00192719 0.01530032
v -0.02343864 -0.00713260 0.01530021
v -0.02060975 0.01324656 0.01530055
v -0.02297558 0.00850632 0.01530049
v -0.00839058 0.02301806 0.01530055
v -0.01314267 0.02067613 0.01530058
v -0.01728022 0.01736739 0.01530058
v 0.00725047 0.02340236 0.01530033
v 0.00205009 0.02441381 0.01530043
v -0.00324615 0.02428368 0.01530050
v 0.01993477 0.01424274 0.01529998
v 0.01640689 0.01819508 0.01530010
v 0.01211184 0.02129663 0.01530022
v 0.02192162 -0.01094115 0.01529948
v 0.02376107 -0.00597291 0.01529954
v 0.02448949 -0.00072539 0.01529963
v 0.02442433 0.00192661 0.01529968
v 0.02407282 0.00455603 0.01529973
v 0.02253054 0.00962440 0.01529985
f 40 32 41
f 40 31 32
f 40 30 31
f 46 30 40
f 46 29 30
f 45 29 46
f 45 28 29
f 44 28 45
f 44 27 28
f 44 26 27
f 49 26 44
f 49 25 26
f 48 25 49
f 48 24 25
f 47 24 48
f 47 23 24
f 47 22 23
f 52 22 47
f 52 21 22
f 51 21 52
f 51 20 21
f 50 20 51
f 50 19 20
f 50 18 19
f 54 18 50
f 54 17 18
f 53 17 54
f 53 16 17
f 53 15 16
f 57 15 53
f 57 14 15
f 56 14 57
f 56 13 14
f 55 13 56
f 55 12 13
f 55 11 12
f 60 11 55
f 60 10 11
f 59 10 60
f 59 9 10
f 58 9 59
f 58 8 9
f 58 7 8
f 63 7 58
f 63 6 7
f 62 6 63
f 62 5 6
f 61 5 62
f 61 4 5
f 61 3 4
f 69 3 61
f 69 2 3
f 68 2 69
f 68 1 2
f 67 1 68
f 67 39 1
f 66 39 67
f 66 38 39
f 65 38 66
f 65 37 38
f 64 37 65
f 64 36 37
f 43 36 64
f 43 35 36
f 34 35 43
f 42 34 43
f 42 33 34
f 41 33 42
f 41 32 33

