# https://github.com/mikedh/trimesh
v 0.01637208 0.02549362 0.02700024
v 0.01937208 0.02549419 0.02700019
v 0.01637218 0.02509167 0.02850023
v 0.01937218 0.02509224 0.02850019
v 0.01637240 0.02399357 0.02959829
v 0.01937241 0.02399414 0.02959824
v 0.01637270 0.02249357 0.03000018
v 0.01937270 0.02249414 0.03000014
v 0.01637298 0.02099357 0.02959823
v 0.01937298 0.02099414 0.02959819
v 0.01637317 0.01989552 0.02850013
v 0.01937317 0.01989609 0.02850009
v 0.01637322 0.01949362 0.02700013
v 0.01937323 0.01949419 0.02700008
v 0.01637313 0.01989557 0.02550013
v 0.01937313 0.01989614 0.02550009
v 0.01637290 0.02099367 0.02440208
v 0.01937290 0.02099424 0.02440203
v 0.01637261 0.02249368 0.02400018
v 0.01937261 0.02249425 0.02400014
v 0.01637233 0.02399367 0.02440213
v 0.01937233 0.02399424 0.02440209
v 0.01637213 0.02509173 0.02550023
v 0.01937214 0.02509230 0.02550019
f 1 2 3
f 3 2 4
f 3 4 5
f 5 4 6
f 5 6 7
f 7 6 8
f 7 8 9
f 9 8 10
f 9 10 11
f 11 10 12
f 11 12 13
f 13 12 14
f 13 14 15
f 15 14 16
f 15 16 17
f 17 16 18
f 17 18 19
f 19 18 20
f 19 20 21
f 21 20 22
f 21 22 23
f 23 22 24
f 23 24 1
f 1 24 2

