# https://github.com/mikedh/trimesh
v -0.00703156 -0.02732520 0.00949959
v -0.00686726 -0.02863797 0.00949956
v -0.02149811 0.01632561 0.00950062
v -0.01175744 0.02465381 0.00950063
v -0.01122801 0.02586628 0.00950065
v -0.01127160 0.02718857 0.00950067
v -0.01601750 0.02172641 0.00950064
v -0.01570104 -0.02197444 0.00949982
v -0.01241097 -0.02398759 0.00949973
v -0.00886761 -0.02551139 0.00949965
v -0.00774456 -0.02621076 0.00949962
v -0.02716795 -0.00348666 0.00950033
v -0.02166317 -0.01676920 0.00950000
v -0.02656895 -0.00481369 0.00950030
v -0.02269400 -0.01939927 0.00949997
v -0.02139065 -0.01875037 0.00949996
v -0.02184965 -0.01821316 0.00949998
v -0.02414248 -0.01209776 0.00950013
v -0.02217848 -0.01540750 0.00950004
v -0.02406484 0.01514587 0.00950063
v -0.02545382 0.01558237 0.00950066
v -0.02443392 0.01454333 0.00950063
v -0.02263393 0.01541473 0.00950062
v -0.02975702 -0.00235681 0.00950039
v -0.02837675 -0.00189352 0.00950038
v -0.02737715 -0.00083495 0.00950038
v -0.02699366 0.00056959 0.00950040
v -0.02663714 0.00440163 0.00950047
v -0.02573942 0.00814405 0.00950053
v -0.02402332 0.01314648 0.00950060
v -0.02431873 0.01172082 0.00950057
v -0.03184714 0.01325742 0.00850071
v -0.03353634 0.00808750 0.00850064
v -0.03439205 0.00271635 0.00850055
v -0.02230452 -0.02632935 0.00849983
v -0.01789091 -0.02950764 0.00849971
v -0.01867068 -0.01951303 0.00949991
v -0.01895118 0.01922224 0.00950064
v -0.01275692 0.02378699 0.00950063
v -0.01993528 -0.01879152 0.00949994
v -0.02832118 -0.00259793 0.00950036
v -0.02561595 -0.00854241 0.00950021
v -0.00737522 -0.02867802 0.00849957
v -0.00686727 -0.02863796 0.00899956
v -0.02975701 -0.00235683 0.01050039
v -0.03439298 -0.00272258 0.01050045
v -0.03439300 -0.00272255 0.00900045
v -0.02975703 -0.00235680 0.00900039
v -0.02269400 -0.01939926 0.00899997
v -0.02622961 -0.02242011 0.00899996
v -0.02622958 -0.02242014 0.01049996
v -0.02269398 -0.01939929 0.01049997
v -0.02545383 0.01558238 0.00900066
v -0.02941938 0.01801144 0.00900077
v -0.02941936 0.01801141 0.01050077
v -0.02545380 0.01558235 0.01050066
v -0.02616379 -0.02249692 0.00889881
v -0.03442872 -0.00222381 0.00850046
v -0.02967747 0.01758318 0.00850076
v -0.02590206 -0.02279789 0.00849995
v -0.01127159 0.02718855 0.01050067
v -0.01122800 0.02586626 0.01050065
v -0.01175743 0.02465380 0.01050063
v -0.01275691 0.02378697 0.01050063
v -0.01601748 0.02172639 0.01050064
v -0.01895117 0.01922223 0.01050064
v -0.02149810 0.01632559 0.01050062
v -0.02263392 0.01541471 0.01050062
v -0.02406483 0.01514586 0.01050063
v -0.02128309 -0.01923865 0.00849995
v -0.02007029 -0.01927293 0.00849993
v -0.01901645 -0.01987419 0.00849991
v -0.01264082 -0.02443161 0.00849973
v -0.00903184 -0.02598363 0.00849965
v -0.02236922 -0.01977940 0.00849996
v -0.00807006 -0.02659241 0.00849962
v -0.00747787 -0.02756450 0.00849959
v -0.01599182 -0.02238118 0.00849982
v -0.02414246 -0.01209778 0.01050013
v -0.02832116 -0.00259795 0.01050036
v -0.02716793 -0.00348668 0.01050033
v -0.02656894 -0.00481370 0.01050030
v -0.02184964 -0.01821318 0.01049998
v -0.02166316 -0.01676922 0.01050000
v -0.02217847 -0.01540752 0.01050004
v -0.02561593 -0.00854243 0.01050021
v -0.02486509 0.01429015 0.00850063
v -0.02452292 0.01312611 0.00850060
v -0.02476909 0.01193806 0.00850058
v -0.02571500 0.01515602 0.00850066
v -0.02979636 -0.00185834 0.00850040
v -0.02713044 0.00448333 0.00850048
v -0.02749356 0.00058032 0.00850041
v -0.02621609 0.00829505 0.00850054
v -0.02781313 -0.00059012 0.00850039
v -0.02864613 -0.00147227 0.00850039
v -0.02431874 0.01172082 0.00900057
v -0.02573943 0.00814406 0.00900053
v -0.02663715 0.00440164 0.00900047
v -0.02699366 0.00056960 0.00900040
v -0.01867069 -0.01951302 0.00899991
v -0.01570105 -0.02197443 0.00899982
v -0.01241097 -0.02398758 0.00899973
v -0.00886762 -0.02551138 0.00899965
v -0.00771348 -0.02624192 0.00899962
v -0.00700285 -0.02740842 0.00899959
v -0.02139066 -0.01875036 0.00899996
v -0.01993529 -0.01879151 0.00899994
v -0.02737716 -0.00083494 0.00900038
v -0.02837676 -0.00189351 0.00900038
v -0.02443393 0.01454334 0.00900063
v -0.02402333 0.01314649 0.00900060
f 45 46 24
f 24 80 45
f 41 80 24
f 41 81 80
f 12 81 41
f 12 82 81
f 14 82 12
f 42 82 14
f 42 86 82
f 18 86 42
f 18 79 86
f 19 79 18
f 19 85 79
f 19 84 85
f 13 84 19
f 13 83 84
f 17 83 13
f 17 52 83
f 15 52 17
f 15 51 52
f 15 50 51
f 49 50 15
f 49 15 16
f 49 16 107
f 107 16 40
f 107 40 108
f 70 107 108
f 70 108 71
f 70 71 72
f 35 70 72
f 35 72 36
f 36 72 78
f 36 78 73
f 36 73 74
f 103 74 73
f 103 73 102
f 102 8 103
f 103 8 9
f 103 9 104
f 104 9 10
f 104 10 11
f 104 11 105
f 105 74 104
f 105 76 74
f 106 76 105
f 106 77 76
f 43 77 106
f 36 77 43
f 106 44 43
f 106 2 44
f 106 1 2
f 36 76 77
f 105 1 106
f 105 11 1
f 102 37 8
f 101 37 102
f 102 78 101
f 108 37 101
f 104 74 103
f 74 76 36
f 102 73 78
f 101 78 72
f 75 70 35
f 35 60 75
f 57 75 60
f 57 49 75
f 71 101 72
f 71 108 101
f 75 107 70
f 108 40 37
f 75 49 107
f 50 49 57
f 24 46 47
f 24 47 48
f 110 24 48
f 110 25 24
f 109 25 110
f 109 26 25
f 100 26 109
f 93 100 109
f 100 93 99
f 99 93 92
f 34 92 93
f 93 95 34
f 34 95 96
f 95 110 96
f 34 96 91
f 91 58 34
f 91 48 58
f 96 48 91
f 33 92 34
f 33 94 92
f 33 89 94
f 32 89 33
f 32 87 89
f 87 88 89
f 87 112 88
f 88 112 97
f 112 31 97
f 97 31 98
f 98 94 97
f 98 31 29
f 98 29 99
f 99 29 28
f 112 30 31
f 111 30 112
f 111 22 30
f 53 22 111
f 90 53 111
f 90 111 87
f 53 90 54
f 54 90 59
f 32 59 90
f 53 54 21
f 21 54 55
f 21 55 56
f 21 56 20
f 20 56 69
f 20 69 23
f 23 69 68
f 23 68 3
f 3 68 67
f 3 67 66
f 3 66 38
f 38 66 65
f 38 65 7
f 7 65 64
f 7 64 39
f 64 4 39
f 63 4 64
f 63 5 4
f 62 5 63
f 62 6 5
f 61 6 62
f 53 21 22
f 87 111 112
f 88 97 89
f 90 87 32
f 97 94 89
f 98 92 94
f 99 92 98
f 99 28 100
f 100 28 27
f 93 109 95
f 100 27 26
f 95 109 110
f 96 110 48
f 58 48 47
f 24 25 41
f 41 25 26
f 41 26 12

