# https://github.com/mikedh/trimesh
v 0.01217569 -0.01861840 0.01679947
v 0.01373325 -0.01863558 0.01679945
v 0.01514401 -0.01797526 0.01679944
v 0.01612855 -0.01676823 0.01679945
v 0.01649189 -0.01525355 0.01679947
v 0.01616205 -0.01373123 0.01679951
v 0.01520437 -0.01250278 0.01679954
v 0.01380851 -0.01181150 0.01679958
v 0.01225096 -0.01179432 0.01679960
v 0.01084020 -0.01245464 0.01679961
v 0.00985565 -0.01366167 0.01679960
v 0.00949232 -0.01517635 0.01679958
v 0.00982216 -0.01669867 0.01679954
v 0.01077984 -0.01792713 0.01679951
v 0.01154685 -0.01673851 0.01679952
v 0.01250226 -0.01725702 0.01679949
v 0.01097870 -0.01581177 0.01679954
v 0.01095003 -0.01472510 0.01679957
v 0.01146854 -0.01376970 0.01679958
v 0.01239529 -0.01320154 0.01679957
v 0.01348195 -0.01317288 0.01679956
v 0.01443736 -0.01369139 0.01679953
v 0.01500551 -0.01461814 0.01679951
v 0.01503418 -0.01570480 0.01679949
v 0.01451567 -0.01666021 0.01679948
v 0.01358892 -0.01722836 0.01679948
f 18 12 17
f 17 12 13
f 17 13 15
f 15 13 14
f 15 14 16
f 16 14 1
f 16 1 26
f 26 1 2
f 26 2 25
f 25 2 3
f 25 3 24
f 3 4 24
f 24 4 5
f 24 5 23
f 23 5 6
f 23 6 22
f 22 6 7
f 22 7 21
f 21 7 8
f 21 8 20
f 20 8 9
f 20 9 19
f 19 9 10
f 19 10 18
f 18 10 11
f 18 11 12

