# https://github.com/mikedh/trimesh
v -0.00902124 -0.01001110 0.02099994
v -0.00930279 -0.00896116 0.02099997
v -0.01322124 -0.01001190 0.02100001
v -0.01294010 -0.00896185 0.02100002
v -0.01217159 -0.00819305 0.02100002
v -0.01112164 -0.00791150 0.02100001
v -0.01007159 -0.00819265 0.02099999
v -0.00930239 -0.01106116 0.02099993
v -0.01007090 -0.01182996 0.02099993
v -0.01112084 -0.01211150 0.02099994
v -0.01217090 -0.01183036 0.02099996
v -0.01293970 -0.01106185 0.02099998
v -0.01112160 -0.00791156 0.02400002
v -0.01007155 -0.00819271 0.02399999
v -0.00930275 -0.00896121 0.02399997
v -0.00902120 -0.01001116 0.02399994
v -0.00930235 -0.01106121 0.02399993
v -0.01007085 -0.01183001 0.02399993
v -0.01112080 -0.01211156 0.02399994
v -0.01217085 -0.01183041 0.02399996
v -0.01293965 -0.01106191 0.02399998
v -0.01322120 -0.01001196 0.02400001
v -0.01294005 -0.00896191 0.02400002
v -0.01217155 -0.00819311 0.02400002
f 13 6 14
f 14 6 7
f 14 7 15
f 15 7 2
f 15 2 16
f 16 2 1
f 16 1 17
f 17 1 8
f 17 8 18
f 18 8 9
f 18 9 19
f 19 9 10
f 19 10 20
f 20 10 11
f 20 11 21
f 21 11 12
f 21 12 22
f 22 12 3
f 22 3 23
f 23 3 4
f 23 4 24
f 24 4 5
f 24 5 13
f 13 5 6

