# https://github.com/mikedh/trimesh
v 0.00910675 0.02027908 0.00220025
v 0.01064234 0.02054029 0.00220023
v 0.01213919 0.02010936 0.00220020
v 0.01330083 0.01907165 0.00220016
v 0.01389719 0.01763269 0.00220013
v 0.01381015 0.01607748 0.00220010
v 0.01305695 0.01471404 0.00220008
v 0.01178676 0.01381244 0.00220009
v 0.01025118 0.01355123 0.00220010
v 0.00875432 0.01398216 0.00220013
v 0.00759268 0.01501987 0.00220017
v 0.00699632 0.01645883 0.00220021
v 0.00708336 0.01801404 0.00220023
v 0.00783657 0.01937748 0.00220025
v 0.00878047 0.01832384 0.00220021
v 0.00964275 0.01898575 0.00220021
v 0.00836467 0.01731947 0.00220020
v 0.00850676 0.01624176 0.00220018
v 0.00916868 0.01537947 0.00220015
v 0.01017305 0.01496367 0.00220013
v 0.01125076 0.01510577 0.00220012
v 0.01211304 0.01576768 0.00220012
v 0.01252884 0.01677205 0.00220013
v 0.01238675 0.01784976 0.00220015
v 0.01172484 0.01871205 0.00220018
v 0.01072046 0.01912785 0.00220020
f 18 12 17
f 17 12 13
f 17 13 15
f 15 13 14
f 15 14 16
f 16 14 1
f 16 1 26
f 26 1 2
f 26 2 25
f 25 2 3
f 25 3 24
f 3 4 24
f 24 4 5
f 24 5 23
f 23 5 6
f 23 6 22
f 22 6 7
f 22 7 21
f 21 7 8
f 21 8 20
f 20 8 9
f 20 9 19
f 19 9 10
f 19 10 18
f 18 10 11
f 18 11 12

