# https://github.com/mikedh/trimesh
v -0.01433183 0.01842993 0.00220055
v -0.01433186 0.01842998 0.00000055
v -0.01279624 0.01869114 0.00220054
v -0.01279628 0.01869118 0.00000054
v -0.01129939 0.01826022 0.00220051
v -0.01129942 0.01826026 0.00000051
v -0.01013775 0.01722250 0.00220047
v -0.01013778 0.01722255 0.00000047
v -0.00954139 0.01578354 0.00220043
v -0.00954142 0.01578358 0.00000043
v -0.00962843 0.01422833 0.00220041
v -0.00962846 0.01422837 0.00000041
v -0.01038163 0.01286490 0.00220039
v -0.01038166 0.01286494 0.00000039
v -0.01165182 0.01196329 0.00220039
v -0.01165185 0.01196333 0.00000039
v -0.01318740 0.01170208 0.00220041
v -0.01318744 0.01170212 0.00000041
v -0.01468426 0.01213301 0.00220044
v -0.01468429 0.01213305 0.00000044
v -0.01584590 0.01317072 0.00220048
v -0.01584593 0.01317076 0.00000048
v -0.01644226 0.01460968 0.00220051
v -0.01644229 0.01460972 0.00000051
v -0.01635522 0.01616490 0.00220054
v -0.01635525 0.01616494 0.00000054
v -0.01560202 0.01752833 0.00220055
v -0.01560205 0.01752837 0.00000055
f 1 2 3
f 1 28 2
f 27 28 1
f 27 26 28
f 25 26 27
f 25 24 26
f 23 24 25
f 23 22 24
f 21 22 23
f 21 20 22
f 19 20 21
f 19 18 20
f 17 18 19
f 17 16 18
f 15 16 17
f 15 14 16
f 13 14 15
f 13 12 14
f 11 12 13
f 11 10 12
f 9 10 11
f 9 8 10
f 7 8 9
f 7 6 8
f 5 6 7
f 5 4 6
f 3 4 5
f 3 2 4

