# https://github.com/mikedh/trimesh
v 0.02338120 -0.02262281 0.02400155
v 0.02338108 -0.02197564 0.02404632
v 0.02338086 -0.02078467 0.02454153
v 0.02338096 -0.02135323 0.02422916
v 0.02338078 -0.02029656 0.02496882
v 0.02338154 -0.02394960 0.02962854
v 0.02338143 -0.02335061 0.02987761
v 0.02338131 -0.02271208 0.02999209
v 0.02338163 -0.02448105 0.02925653
v 0.02338180 -0.02550471 0.02695454
v 0.02338179 -0.02544419 0.02760042
v 0.02338176 -0.02524624 0.02821820
v 0.02338177 -0.02542497 0.02631075
v 0.02338066 -0.01952779 0.02736800
v 0.02338065 -0.01951813 0.02671935
v 0.02338067 -0.01964813 0.02608380
v 0.02338095 -0.02085867 0.02950711
v 0.02338085 -0.02035804 0.02909456
v 0.02338076 -0.01995780 0.02858403
v 0.02338106 -0.02143628 0.02980240
v 0.02338118 -0.02206386 0.02996662
v 0.02338171 -0.02492011 0.02877898
v 0.02338172 -0.02520870 0.02569914
v 0.02338145 -0.02387062 0.02432806
v 0.02338155 -0.02441292 0.02468407
v 0.02338165 -0.02486601 0.02514833
v 0.02338133 -0.02326447 0.02409695
v 0.02338071 -0.01991171 0.02549105
v 0.02338070 -0.01967667 0.02799940
v 0.02338068 -0.01958512 0.02768773
v 0.02938177 -0.02542383 0.02631066
v 0.02938179 -0.02550357 0.02695445
v 0.02938077 -0.02029542 0.02496873
v 0.02938086 -0.02078353 0.02454144
v 0.02938096 -0.02135209 0.02422907
v 0.02938120 -0.02262167 0.02400146
v 0.02938108 -0.02197450 0.02404623
v 0.02938172 -0.02520756 0.02569906
v 0.02938171 -0.02491897 0.02877889
v 0.02938177 -0.02524509 0.02821811
v 0.02938179 -0.02544305 0.02760034
v 0.02938163 -0.02447991 0.02925645
v 0.02938118 -0.02206272 0.02996653
v 0.02938131 -0.02271093 0.02999200
v 0.02938143 -0.02334947 0.02987752
v 0.02938106 -0.02143513 0.02980232
v 0.02938154 -0.02394846 0.02962846
v 0.02938133 -0.02326333 0.02409686
v 0.02938095 -0.02085752 0.02950703
v 0.02938085 -0.02035690 0.02909447
v 0.02938070 -0.01967553 0.02799931
v 0.02938076 -0.01995666 0.02858394
v 0.02938145 -0.02386948 0.02432797
v 0.02938155 -0.02441178 0.02468398
v 0.02938165 -0.02486487 0.02514825
v 0.02938066 -0.01952665 0.02736791
v 0.02938065 -0.01951699 0.02671927
v 0.02938071 -0.01991057 0.02549096
v 0.02938067 -0.01964699 0.02608371
f 19 29 51
f 52 19 51
f 52 18 19
f 50 18 52
f 50 17 18
f 49 17 50
f 49 20 17
f 46 20 49
f 46 21 20
f 43 21 46
f 43 8 21
f 44 8 43
f 44 7 8
f 45 7 44
f 45 6 7
f 47 6 45
f 47 9 6
f 42 9 47
f 42 22 9
f 39 22 42
f 39 12 22
f 40 12 39
f 40 11 12
f 41 11 40
f 41 10 11
f 32 10 41
f 32 13 10
f 31 13 32
f 31 23 13
f 38 23 31
f 38 26 23
f 55 26 38
f 55 25 26
f 54 25 55
f 54 24 25
f 53 24 54
f 53 27 24
f 48 27 53
f 48 1 27
f 36 1 48
f 36 2 1
f 37 2 36
f 37 4 2
f 35 4 37
f 35 3 4
f 34 3 35
f 34 5 3
f 33 5 34
f 33 28 5
f 58 28 33
f 58 16 28
f 59 16 58
f 59 15 16
f 57 15 59
f 57 14 15
f 56 14 57
f 56 30 14
f 51 30 56
f 51 29 30

