# https://github.com/mikedh/trimesh
v -0.01112541 0.01208844 0.02400039
v -0.01112545 0.01208850 0.02100039
v -0.01007536 0.01180729 0.02400037
v -0.01007540 0.01180735 0.02100037
v -0.00930656 0.01103879 0.02400034
v -0.00930660 0.01103884 0.02100034
v -0.00902501 0.00998884 0.02400032
v -0.00902505 0.00998890 0.02100032
v -0.00930616 0.00893879 0.02400030
v -0.00930620 0.00893884 0.02100030
v -0.01007466 0.00816999 0.02400030
v -0.01007471 0.00817004 0.02100030
v -0.01112461 0.00788844 0.02400031
v -0.01112465 0.00788849 0.02100031
v -0.01217466 0.00816959 0.02400033
v -0.01217471 0.00816964 0.02100033
v -0.01294346 0.00893809 0.02400036
v -0.01294351 0.00893815 0.02100036
v -0.01322501 0.00998804 0.02400038
v -0.01322505 0.00998810 0.02100038
v -0.01294386 0.01103809 0.02400040
v -0.01294391 0.01103815 0.02100039
v -0.01217536 0.01180689 0.02400040
v -0.01217540 0.01180695 0.02100040
f 1 2 3
f 3 2 4
f 3 4 5
f 5 4 6
f 5 6 7
f 7 6 8
f 7 8 9
f 9 8 10
f 9 10 11
f 11 10 12
f 11 12 13
f 13 12 14
f 13 14 15
f 15 14 16
f 15 16 17
f 17 16 18
f 17 18 19
f 19 18 20
f 19 20 21
f 21 20 22
f 21 22 23
f 23 22 24
f 23 24 1
f 1 24 2

