# https://github.com/mikedh/trimesh
v 0.00207607 0.02113857 0.00350037
v 0.00267391 0.02089107 0.00350035
v 0.00115239 0.01890740 0.00350034
v 0.00175023 0.01865990 0.00350032
v 0.00239172 0.01874448 0.00350032
v 0.00290498 0.01913847 0.00350032
v 0.00306791 0.02037781 0.00350034
v 0.00315249 0.01973631 0.00350032
v 0.00075839 0.01942066 0.00350035
v 0.00143457 0.02105399 0.00350037
v 0.00092131 0.02066000 0.00350037
v 0.00067381 0.02006216 0.00350037
v 0.00290493 0.01913854 0.00000032
v 0.00315243 0.01973638 0.00000032
v 0.00239167 0.01874454 0.00000032
v 0.00175018 0.01865996 0.00000032
v 0.00067376 0.02006222 0.00000036
v 0.00075834 0.01942072 0.00000035
v 0.00115233 0.01890746 0.00000034
v 0.00306786 0.02037787 0.00000034
v 0.00092126 0.02066006 0.00000037
v 0.00143452 0.02105406 0.00000037
v 0.00207602 0.02113863 0.00000036
v 0.00267386 0.02089114 0.00000035
f 22 10 21
f 21 10 11
f 21 11 17
f 17 11 12
f 17 12 18
f 18 12 9
f 18 9 19
f 19 9 3
f 19 3 16
f 16 3 4
f 16 4 15
f 15 4 5
f 15 5 13
f 13 5 6
f 13 6 14
f 14 6 8
f 14 8 20
f 20 8 7
f 20 7 24
f 24 7 2
f 24 2 23
f 23 2 1
f 23 1 22
f 22 1 10

