# https://github.com/mikedh/trimesh
v -0.01862266 0.00322698 0.02400033
v -0.01944762 0.00300576 0.02400034
v -0.02027266 0.00322666 0.02400036
v -0.02087672 0.00383049 0.02400038
v -0.02109794 0.00465545 0.02400040
v -0.02087704 0.00548049 0.02400041
v -0.02027321 0.00608455 0.02400041
v -0.01944825 0.00630576 0.02400040
v -0.01862321 0.00608486 0.02400039
v -0.01801915 0.00548103 0.02400037
v -0.01779794 0.00465608 0.02400035
v -0.01801884 0.00383103 0.02400033
v -0.01862331 0.00608499 0.01700038
v -0.01944835 0.00630589 0.01700040
v -0.02027331 0.00608468 0.01700041
v -0.02087714 0.00548062 0.01700041
v -0.02109804 0.00465558 0.01700039
v -0.01801925 0.00548116 0.01700037
v -0.01779804 0.00465621 0.01700035
v -0.01801894 0.00383116 0.01700033
v -0.01862277 0.00322711 0.01700033
v -0.01944772 0.00300589 0.01700034
v -0.02027277 0.00322679 0.01700036
v -0.02087682 0.00383062 0.01700038
f 8 14 9
f 9 14 13
f 9 13 10
f 10 13 18
f 10 18 11
f 11 18 19
f 11 19 12
f 12 19 20
f 12 20 1
f 1 20 21
f 1 21 2
f 2 21 22
f 2 22 3
f 3 22 23
f 3 23 4
f 4 23 24
f 4 24 5
f 5 24 17
f 5 17 6
f 6 17 16
f 6 16 7
f 7 16 15
f 7 15 8
f 8 15 14

