# https://github.com/mikedh/trimesh
v -0.02448927 0.00072511 -0.00019963
v -0.02442411 -0.00192690 -0.00019968
v -0.02407260 -0.00455631 -0.00019973
v -0.02253032 -0.00962468 -0.00019985
v -0.01993455 -0.01424302 -0.00019998
v -0.01640667 -0.01819536 -0.00020010
v -0.01211162 -0.02129691 -0.00020022
v -0.00725025 -0.02340264 -0.00020033
v -0.00204987 -0.02441409 -0.00020043
v 0.00324637 -0.02428396 -0.00020050
v 0.00839080 -0.02301835 -0.00020055
v 0.01314289 -0.02067641 -0.00020058
v 0.01728044 -0.01736768 -0.00020058
v 0.02060997 -0.01324684 -0.00020055
v 0.02297580 -0.00850661 -0.00020049
v 0.02426731 -0.00336861 -0.00020042
v 0.02442410 0.00192690 -0.00020032
v 0.02343886 0.00713232 -0.00020021
v 0.02135763 0.01200423 -0.00020009
v 0.01827775 0.01631484 -0.00019996
v 0.01434322 0.01986258 -0.00019984
v 0.00973802 0.02248157 -0.00019972
v 0.00467747 0.02404935 -0.00019962
v -0.00060178 0.02449261 -0.00019953
v -0.00585290 0.02379062 -0.00019947
v -0.01083034 0.02197621 -0.00019943
v -0.01530137 0.01913422 -0.00019942
v -0.01905692 0.01539753 -0.00019943
v -0.02192139 0.01094087 -0.00019948
v -0.02376085 0.00597263 -0.00019954
v -0.00000000 0.00000000 -0.00020000
f 4 3 31
f 31 5 4
f 31 6 5
f 7 6 31
f 31 8 7
f 31 9 8
f 10 9 31
f 31 11 10
f 31 12 11
f 13 12 31
f 31 14 13
f 31 15 14
f 16 15 31
f 31 17 16
f 31 18 17
f 19 18 31
f 31 20 19
f 31 21 20
f 22 21 31
f 31 23 22
f 31 24 23
f 25 24 31
f 31 26 25
f 31 27 26
f 28 27 31
f 31 29 28
f 31 30 29
f 1 30 31
f 31 2 1
f 31 3 2

