# https://github.com/mikedh/trimesh
v 0.00324642 -0.02428403 0.00329950
v -0.00204982 -0.02441416 0.00329957
v -0.00725020 -0.02340271 0.00329967
v -0.01211157 -0.02129698 0.00329978
v 0.01728049 -0.01736774 0.00329942
v 0.01314295 -0.02067648 0.00329942
v 0.00839085 -0.02301841 0.00329945
v 0.02426736 -0.00336867 0.00329958
v 0.02297585 -0.00850667 0.00329951
v 0.02061002 -0.01324691 0.00329945
v -0.02448922 0.00072504 0.00330037
v -0.02442406 -0.00192696 0.00330032
v -0.02407255 -0.00455638 0.00330027
v -0.02253027 -0.00962475 0.00330015
v -0.01640662 -0.01819543 0.00329990
v -0.01993450 -0.01424308 0.00330002
v 0.02135769 0.01200416 0.00329991
v 0.02343891 0.00713225 0.00329979
v 0.02442416 0.00192684 0.00329968
v 0.00973807 0.02248151 0.00330028
v 0.01434327 0.01986252 0.00330016
v 0.01827780 0.01631477 0.00330004
v -0.00585285 0.02379056 0.00330053
v -0.00060173 0.02449255 0.00330047
v 0.00467752 0.02404929 0.00330038
v -0.01905687 0.01539746 0.00330057
v -0.01530132 0.01913415 0.00330058
v -0.01083029 0.02197615 0.00330057
v -0.02376080 0.00597256 0.00330046
v -0.02192134 0.01094080 0.00330052
v -0.02448927 0.00072511 -0.00019963
v -0.02442411 -0.00192690 -0.00019968
v -0.02407260 -0.00455631 -0.00019973
v -0.02253032 -0.00962468 -0.00019985
v -0.01993455 -0.01424302 -0.00019998
v -0.01640667 -0.01819536 -0.00020010
v -0.01211162 -0.02129691 -0.00020022
v -0.00725025 -0.02340264 -0.00020033
v -0.00204987 -0.02441409 -0.00020043
v 0.00324637 -0.02428396 -0.00020050
v 0.00839080 -0.02301835 -0.00020055
v 0.01314289 -0.02067641 -0.00020058
v 0.01728044 -0.01736768 -0.00020058
v 0.02060997 -0.01324684 -0.00020055
v 0.02297580 -0.00850661 -0.00020049
v 0.02426731 -0.00336861 -0.00020042
v 0.02442410 0.00192690 -0.00020032
v 0.02343886 0.00713232 -0.00020021
v 0.02135763 0.01200423 -0.00020009
v 0.01827775 0.01631484 -0.00019996
v 0.01434322 0.01986258 -0.00019984
v 0.00973802 0.02248157 -0.00019972
v 0.00467747 0.02404935 -0.00019962
v -0.00060178 0.02449261 -0.00019953
v -0.00585290 0.02379062 -0.00019947
v -0.01083034 0.02197621 -0.00019943
v -0.01530137 0.01913422 -0.00019942
v -0.01905692 0.01539753 -0.00019943
v -0.02192139 0.01094087 -0.00019948
v -0.02376085 0.00597263 -0.00019954
f 31 32 12
f 11 31 12
f 29 31 11
f 29 60 31
f 30 60 29
f 30 59 60
f 26 59 30
f 26 58 59
f 27 58 26
f 27 57 58
f 28 57 27
f 28 56 57
f 23 56 28
f 23 55 56
f 24 55 23
f 24 54 55
f 25 54 24
f 25 53 54
f 20 53 25
f 20 52 53
f 21 52 20
f 21 51 52
f 22 51 21
f 22 50 51
f 17 50 22
f 17 49 50
f 18 49 17
f 18 48 49
f 19 48 18
f 19 47 48
f 8 47 19
f 8 46 47
f 9 46 8
f 9 45 46
f 10 45 9
f 10 44 45
f 5 44 10
f 5 43 44
f 6 43 5
f 6 42 43
f 7 42 6
f 7 41 42
f 1 41 7
f 1 40 41
f 2 40 1
f 2 39 40
f 3 39 2
f 3 38 39
f 4 38 3
f 4 37 38
f 15 37 4
f 15 36 37
f 16 36 15
f 16 35 36
f 14 35 16
f 14 34 35
f 13 34 14
f 13 33 34
f 32 33 13
f 12 32 13

