# https://github.com/mikedh/trimesh
v -0.02026445 0.00125245 0.01680032
v -0.01870690 0.00123527 0.01680030
v -0.01729614 0.00189558 0.01680029
v -0.01631159 0.00310262 0.01680030
v -0.01594825 0.00461729 0.01680032
v -0.01627809 0.00613962 0.01680035
v -0.01723578 0.00736807 0.01680039
v -0.01863163 0.00805935 0.01680042
v -0.02018918 0.00807653 0.01680045
v -0.02159994 0.00741621 0.01680045
v -0.02258449 0.00620918 0.01680045
v -0.02294783 0.00469450 0.01680042
v -0.02261799 0.00317217 0.01680039
v -0.02166030 0.00194372 0.01680035
v -0.02089330 0.00313233 0.01680036
v -0.01993789 0.00261383 0.01680034
v -0.02146145 0.00405908 0.01680039
v -0.02149011 0.00514574 0.01680041
v -0.02097160 0.00610115 0.01680042
v -0.02004486 0.00666930 0.01680042
v -0.01895819 0.00669797 0.01680040
v -0.01800279 0.00617946 0.01680038
v -0.01743463 0.00525271 0.01680035
v -0.01740597 0.00416605 0.01680033
v -0.01792448 0.00321064 0.01680032
v -0.01885123 0.00264249 0.01680033
f 24 5 23
f 24 4 5
f 24 3 4
f 25 3 24
f 25 2 3
f 26 2 25
f 26 1 2
f 16 1 26
f 16 14 1
f 15 14 16
f 15 13 14
f 17 13 15
f 17 12 13
f 18 12 17
f 18 11 12
f 10 11 18
f 19 10 18
f 19 9 10
f 20 9 19
f 20 8 9
f 21 8 20
f 21 7 8
f 22 7 21
f 22 6 7
f 23 6 22
f 23 5 6

