# https://github.com/mikedh/trimesh
v -0.02937277 -0.01810563 0.01050009
v -0.03353915 -0.00809403 0.01050034
v -0.03185178 -0.01326455 0.01050022
v -0.02975701 -0.00235683 0.01050039
v -0.03439298 -0.00272258 0.01050045
v -0.02622958 -0.02242014 0.01049996
v -0.02269398 -0.01939929 0.01049997
v -0.02414246 -0.01209778 0.01050013
v -0.02832116 -0.00259795 0.01050036
v -0.02716793 -0.00348668 0.01050033
v -0.02656894 -0.00481370 0.01050030
v -0.02184964 -0.01821318 0.01049998
v -0.02166316 -0.01676922 0.01050000
v -0.02217847 -0.01540752 0.01050004
v -0.02561593 -0.00854243 0.01050021
f 1 3 8
f 3 15 8
f 3 11 15
f 2 11 3
f 2 9 11
f 9 10 11
f 4 9 2
f 2 5 4
f 14 1 8
f 13 1 14
f 13 7 1
f 12 7 13
f 7 6 1

