# https://github.com/mikedh/trimesh
v -0.02392545 0.01208606 0.02100058
v -0.02287540 0.01180491 0.02100055
v -0.02210660 0.01103640 0.02100053
v -0.02182505 0.00998646 0.02100050
v -0.02210620 0.00893640 0.02100049
v -0.02287471 0.00816760 0.02100049
v -0.02392465 0.00788606 0.02100050
v -0.02497471 0.00816720 0.02100052
v -0.02574351 0.00893571 0.02100054
v -0.02602505 0.00998566 0.02100057
v -0.02574391 0.01103571 0.02100058
v -0.02497540 0.01180451 0.02100058
v -0.02494293 0.01411237 0.02100063
v -0.02392586 0.01423606 0.02100061
v -0.02290875 0.01411275 0.02100060
v -0.02110739 0.01316776 0.02100055
v -0.01995152 0.01149388 0.02100051
v -0.01970594 0.00947458 0.02100047
v -0.02042691 0.00757245 0.02100044
v -0.02194926 0.00622325 0.02100044
v -0.02392424 0.00573606 0.02100046
v -0.02589941 0.00622249 0.02100049
v -0.02742228 0.00757112 0.02100054
v -0.02814397 0.00947297 0.02100059
v -0.02789916 0.01149237 0.02100062
v -0.02674393 0.01316669 0.02100064
f 13 14 1
f 1 14 15
f 1 15 2
f 2 15 16
f 2 16 3
f 3 16 17
f 3 17 4
f 4 17 18
f 4 18 5
f 5 18 19
f 5 19 6
f 6 19 20
f 6 20 7
f 7 20 21
f 7 21 8
f 8 21 22
f 8 22 9
f 9 22 23
f 9 23 10
f 10 23 24
f 10 24 11
f 11 24 25
f 11 25 12
f 12 25 26
f 12 26 1
f 1 26 13

