# https://github.com/mikedh/trimesh
v 0.00536674 -0.02056974 0.01549954
v 0.00591837 -0.02023156 0.01549954
v 0.00410461 -0.01851102 0.01549959
v 0.00465624 -0.01817283 0.01549959
v 0.00530307 -0.01815577 0.01549958
v 0.00587176 -0.01846441 0.01549957
v 0.00622701 -0.01966286 0.01549954
v 0.00620995 -0.01901604 0.01549955
v 0.00379597 -0.01907971 0.01549959
v 0.00471992 -0.02058681 0.01549955
v 0.00415122 -0.02027817 0.01549956
v 0.00381303 -0.01972654 0.01549958
v 0.00587181 -0.01846447 0.01899957
v 0.00621000 -0.01901611 0.01899955
v 0.00530312 -0.01815584 0.01899958
v 0.00465629 -0.01817290 0.01899959
v 0.00381308 -0.01972660 0.01899958
v 0.00379602 -0.01907978 0.01899959
v 0.00410466 -0.01851108 0.01899960
v 0.00622706 -0.01966293 0.01899954
v 0.00415127 -0.02027823 0.01899956
v 0.00471997 -0.02058687 0.01899955
v 0.00536679 -0.02056981 0.01899954
v 0.00591842 -0.02023163 0.01899954
f 22 10 21
f 21 10 11
f 21 11 17
f 17 11 12
f 17 12 18
f 18 12 9
f 18 9 19
f 19 9 3
f 19 3 16
f 16 3 4
f 16 4 15
f 15 4 5
f 15 5 13
f 13 5 6
f 13 6 14
f 14 6 8
f 14 8 20
f 20 8 7
f 20 7 24
f 24 7 2
f 24 2 23
f 23 2 1
f 23 1 22
f 22 1 10

