# https://github.com/mikedh/trimesh
v -0.00238914 0.01652529 0.01680034
v -0.00083159 0.01650811 0.01680032
v 0.00057917 0.01716843 0.01680031
v 0.00156372 0.01837546 0.01680032
v 0.00192705 0.01989014 0.01680034
v 0.00159722 0.02141246 0.01680038
v 0.00063953 0.02264092 0.01680041
v -0.00075632 0.02333219 0.01680045
v -0.00231387 0.02334937 0.01680047
v -0.00372463 0.02268905 0.01680048
v -0.00470918 0.02148202 0.01680047
v -0.00507252 0.01996734 0.01680045
v -0.00474268 0.01844502 0.01680041
v -0.00378500 0.01721657 0.01680038
v -0.00301799 0.01840518 0.01680039
v -0.00206258 0.01788667 0.01680036
v -0.00358614 0.01933192 0.01680041
v -0.00361480 0.02041859 0.01680044
v -0.00309630 0.02137399 0.01680044
v -0.00216955 0.02194215 0.01680044
v -0.00108289 0.02197081 0.01680043
v -0.00012748 0.02145230 0.01680040
v 0.00044067 0.02052556 0.01680038
v 0.00046934 0.01943889 0.01680036
v -0.00004917 0.01848349 0.01680035
v -0.00097592 0.01791533 0.01680035
f 18 12 17
f 18 11 12
f 18 10 11
f 19 10 18
f 19 9 10
f 20 9 19
f 20 8 9
f 21 8 20
f 21 7 8
f 22 7 21
f 22 6 7
f 23 6 22
f 23 5 6
f 24 5 23
f 24 4 5
f 3 4 24
f 25 3 24
f 25 2 3
f 26 2 25
f 26 1 2
f 16 1 26
f 16 14 1
f 15 14 16
f 15 13 14
f 17 13 15
f 17 12 13

