# https://github.com/mikedh/trimesh
v 0.02407287 0.00455596 0.01879973
v 0.02442438 0.00192655 0.01879968
v 0.02448954 -0.00072546 0.01879963
v 0.02376112 -0.00597297 0.01879954
v 0.02192167 -0.01094122 0.01879948
v 0.01905720 -0.01539788 0.01879943
v 0.01530164 -0.01913457 0.01879942
v 0.01083061 -0.02197656 0.01879943
v 0.00585317 -0.02379097 0.01879947
v 0.00060205 -0.02449296 0.01879953
v -0.00467720 -0.02404970 0.01879962
v -0.00973774 -0.02248192 0.01879972
v -0.01434295 -0.01986293 0.01879984
v -0.01827748 -0.01631518 0.01879996
v -0.02135736 -0.01200458 0.01880009
v -0.02343859 -0.00713266 0.01880021
v -0.02442383 -0.00192725 0.01880032
v -0.02426704 0.00336826 0.01880042
v -0.02297553 0.00850626 0.01880049
v -0.02060970 0.01324650 0.01880055
v -0.01728017 0.01736733 0.01880058
v -0.01314262 0.02067607 0.01880058
v -0.00839053 0.02301800 0.01880055
v -0.00324609 0.02428362 0.01880050
v 0.00205014 0.02441374 0.01880043
v 0.00725052 0.02340230 0.01880033
v 0.01211189 0.02129657 0.01880022
v 0.01640694 0.01819502 0.01880010
v 0.01993482 0.01424267 0.01879998
v 0.02253059 0.00962434 0.01879985
v 0.00000027 -0.00000035 0.01880000
f 4 3 31
f 31 5 4
f 31 6 5
f 7 6 31
f 31 8 7
f 31 9 8
f 10 9 31
f 31 11 10
f 31 12 11
f 13 12 31
f 31 14 13
f 31 15 14
f 16 15 31
f 31 17 16
f 31 18 17
f 19 18 31
f 31 20 19
f 31 21 20
f 22 21 31
f 31 23 22
f 31 24 23
f 25 24 31
f 31 26 25
f 31 27 26
f 28 27 31
f 31 29 28
f 31 30 29
f 1 30 31
f 31 2 1
f 31 3 2

