# https://github.com/mikedh/trimesh
v -0.00459428 -0.02407462 0.01549962
v -0.00490800 -0.02009816 0.01549970
v -0.00490808 -0.02009805 0.00949970
v -0.00425063 -0.02843153 0.00949953
v -0.00425059 -0.02843158 0.01230369
v -0.00443169 -0.02613600 0.01249958
v -0.00459431 -0.02407458 0.01349962
v -0.00451290 -0.02510668 0.01249960
v -0.00458810 -0.02415340 0.01311658
v -0.00459221 -0.02410117 0.01327425
v -0.00458150 -0.02423701 0.01296141
v -0.00456239 -0.02447925 0.01270587
v -0.00453727 -0.02479773 0.01254555
f 6 5 4
f 4 8 6
f 4 13 8
f 3 13 4
f 3 12 13
f 11 12 3
f 11 3 9
f 9 3 10
f 10 3 7
f 7 3 2
f 7 2 1

