# https://github.com/mikedh/trimesh
v 0.02646257 -0.03137148 -0.02851215
v 0.02560991 -0.03118706 -0.02851216
v 0.03584547 0.03362285 -0.02851220
v -0.03765162 0.02940758 -0.02851214
v -0.03331818 0.02955162 -0.02851215
v -0.03331740 -0.02965497 -0.02851213
v 0.01543530 -0.02955002 -0.02851215
v 0.00433332 -0.02885466 -0.02851216
v 0.00607136 0.02879471 -0.02851217
v 0.08616997 0.03644602 -0.02851221
v 0.09916057 0.03550182 -0.02851222
v 0.09916145 -0.03560176 -0.02851220
v 0.10303435 0.03502249 -0.02851224
v 0.10303416 -0.03512256 -0.02851220
v 0.03584859 -0.03372514 -0.02851216
v 0.03848005 0.03445785 -0.02851219
v 0.04175917 0.03567750 -0.02851219
v 0.03324915 -0.03299806 -0.02851218
v 0.01623791 0.02954015 -0.02851217
v 0.02560912 0.03108519 -0.02851217
v 0.02727531 0.03144924 -0.02851218
v 0.04257689 0.03598781 -0.02851220
v 0.04637627 0.03666661 -0.02851220
v 0.04257767 -0.03608920 -0.02851217
v 0.07294740 0.03674069 -0.02851222
v 0.04637888 -0.03676794 -0.02851218
v 0.09824576 -0.03569663 -0.02851220
v 0.08676900 -0.03651974 -0.02851219
v 0.07279121 -0.03684222 -0.02851218
v -0.02553771 -0.02935077 -0.02851213
v -0.03244694 0.02953544 -0.02851214
v 0.00096153 -0.02883273 -0.02851215
v -0.00796779 0.02878892 -0.02851216
v 0.00182426 -0.02883206 -0.02851216
v 0.00182347 0.02872955 -0.02851217
v 0.00267311 0.02873229 -0.02851217
v -0.06526168 -0.00005220 -0.02851212
v -0.06524368 0.00085038 -0.02851211
v -0.03376421 -0.02965677 -0.02851213
v -0.06203667 0.01301138 -0.02851212
v -0.06147297 0.01409973 -0.02851212
v 0.11151968 -0.03353627 -0.02851222
v 0.11151966 0.03343636 -0.02851223
v 0.11869903 -0.03142016 -0.02851222
v 0.11869887 0.03132040 -0.02851223
v 0.12470140 -0.02883281 -0.02851223
v 0.13016433 -0.02544077 -0.02851224
v 0.14206232 -0.00004949 -0.02851225
v -0.06507555 0.00291585 -0.02851213
v -0.06484634 0.00444782 -0.02851212
v -0.06401027 0.00796625 -0.02851212
v -0.06278813 0.01136927 -0.02851211
v -0.05125343 0.02493183 -0.02851214
v -0.05419133 0.02282321 -0.02851212
v -0.05686465 0.02038678 -0.02851213
v -0.04970249 0.02585690 -0.02851212
v -0.04644096 0.02742112 -0.02851213
v -0.04485161 0.02800360 -0.02851213
v -0.04300094 0.02854358 -0.02851214
v -0.03944742 0.02921864 -0.02851214
v 0.14149977 0.00680630 -0.02851223
v -0.05006389 -0.02575517 -0.02851213
v -0.04263239 -0.02873844 -0.02851212
v -0.04968129 -0.02597182 -0.02851212
v -0.04483883 -0.02811121 -0.02851212
v -0.03965342 -0.02929446 -0.02851212
v -0.05613793 -0.02121237 -0.02851211
v -0.05465630 -0.02254283 -0.02851212
v -0.05814924 -0.01907539 -0.02851212
v -0.06085443 -0.01528709 -0.02851212
v -0.06140614 -0.01432541 -0.02851213
v -0.06024795 0.01615474 -0.02851214
v -0.05808121 0.01905190 -0.02851212
v -0.06411357 -0.00771567 -0.02851212
v -0.06505764 -0.00316331 -0.02851211
v 0.12470116 0.02873319 -0.02851223
v 0.13016404 0.02534127 -0.02851224
v 0.13436072 0.02157553 -0.02851223
v 0.14149992 -0.00690535 -0.02851224
v 0.14006212 -0.01232975 -0.02851222
v 0.13436103 -0.02167492 -0.02851223
v 0.13775712 -0.01716049 -0.02851223
v 0.13775682 0.01706121 -0.02851223
v 0.14006187 0.01223060 -0.02851224
v -0.03775157 -0.02557813 -0.01500006
v -0.03342444 -0.02628826 -0.01500006
v -0.03845874 0.02530391 -0.01500006
v -0.02383820 -0.02666803 -0.01500006
v -0.03170149 0.02634323 -0.01500007
v 0.05226536 0.02952037 -0.01500007
v 0.04017891 -0.03049573 -0.01500006
v 0.05977842 -0.02905719 -0.01500007
v 0.07909388 0.02698776 -0.01500005
v 0.02917876 -0.03013266 -0.01500006
v 0.03855659 0.03044237 -0.01500007
v 0.01689361 -0.02857015 -0.01500005
v 0.02781039 0.02988516 -0.01500005
v 0.01471815 -0.02828533 -0.01500006
v 0.01689289 0.02846741 -0.01500005
v 0.00141363 -0.02715695 -0.01500005
v 0.00358186 0.02713463 -0.01500007
v -0.02485796 0.02656065 -0.01500006
v -0.04194141 -0.02431136 -0.01500007
v -0.05873844 -0.00005232 -0.01500007
v -0.05855028 0.00309965 -0.01500006
v -0.03994915 0.02488790 -0.01500006
v -0.04575018 0.02240134 -0.01500007
v -0.05057526 0.01892891 -0.01500006
v -0.05568939 -0.01239807 -0.01500005
v -0.05198435 -0.01763785 -0.01500005
v -0.04734925 -0.02152146 -0.01500005
v 0.08126741 -0.02681044 -0.01500006
v 0.08874167 -0.02554026 -0.01500006
v 0.08902650 0.02537395 -0.01500006
v 0.09573127 -0.02327351 -0.01500005
v 0.09584345 0.02312386 -0.01500007
v 0.10137850 -0.02021379 -0.01500006
v -0.05433789 0.01455635 -0.01500005
v -0.05707343 0.00920189 -0.01500006
v -0.05796609 -0.00640379 -0.01500006
v 0.10613936 -0.01626542 -0.01500007
v 0.10659183 0.01568555 -0.01500006
v 0.10210159 0.01961387 -0.01500005
v 0.11279067 -0.00005017 -0.01500005
v 0.11214413 -0.00557205 -0.01500006
v 0.10988453 -0.01128710 -0.01500006
v 0.11201829 0.00596483 -0.01500007
v 0.10973182 0.01145230 -0.01500005
v -0.06070862 -0.01015222 -0.01163359
v -0.06057025 -0.01056166 -0.01163812
v -0.06038780 -0.01049145 -0.01157739
v -0.06206971 -0.00306944 -0.01157595
v -0.06245210 -0.00100008 -0.01163444
v -0.06186070 -0.00573075 -0.01163749
v -0.06163849 -0.00682304 -0.01163726
v -0.06164243 -0.00580405 -0.01157674
v -0.06167744 -0.00561761 -0.01157669
v -0.06227496 -0.00048441 -0.01157405
v -0.06228112 -0.00005237 -0.01157407
v -0.06247691 -0.00005140 -0.01163276
v -0.06053728 0.00998099 -0.01157665
v -0.06038806 0.01038681 -0.01157739
v -0.06057051 0.01045698 -0.01163812
v -0.06225445 0.00088487 -0.01157471
v -0.06145092 0.00664445 -0.01157682
v -0.06190637 0.00538075 -0.01163750
v -0.06227123 0.00296790 -0.01163641
v -0.06247189 0.00038094 -0.01163345
v -0.02916703 0.02863557 -0.01163263
v -0.02906793 0.02863378 -0.01163293
v -0.02906438 0.02884438 -0.01169496
v -0.06038239 0.01092915 -0.01163844
v -0.05978828 0.01180846 -0.01157777
v -0.05954508 0.01232858 -0.01157813
v -0.05856650 0.01456157 -0.01164056
v -0.05722422 0.01627162 -0.01158196
v -0.05280311 0.02115882 -0.01158692
v -0.05490175 0.01942222 -0.01164706
v -0.05656500 0.01716460 -0.01158285
v -0.05672087 0.01728448 -0.01164410
v -0.05765732 0.01598535 -0.01164163
v -0.04780182 0.02465843 -0.01159200
v -0.05026671 0.02337172 -0.01164920
v -0.05200861 0.02182607 -0.01158771
v -0.05270632 0.02150596 -0.01164831
v -0.05395555 0.02037616 -0.01164766
v -0.04692020 0.02512657 -0.01159276
v -0.04789978 0.02483528 -0.01165288
v -0.04943109 0.02392408 -0.01165026
v -0.03644945 0.02830168 -0.01161087
v -0.03908994 0.02806635 -0.01166616
v -0.04075577 0.02746525 -0.01160362
v -0.04218672 0.02726625 -0.01166038
v -0.04212587 0.02707205 -0.01159981
v -0.04428564 0.02652915 -0.01165393
v -0.04491277 0.02627587 -0.01165321
v -0.03322893 0.02858664 -0.01161928
v -0.03280883 0.02881394 -0.01168208
v -0.03331639 0.02879041 -0.01168138
v -0.03647647 0.02850621 -0.01167220
v 0.00182661 0.02839843 -0.01168475
v 0.00182550 0.02861736 -0.01174405
v 0.00131852 0.02839929 -0.01168224
v -0.01564069 0.02866937 -0.01171433
v -0.02448010 0.02872374 -0.01170364
v -0.04457847 0.02840684 -0.02819896
v -0.04529480 0.02816999 -0.02819863
v -0.04494340 0.02760890 -0.01988962
v -0.06240936 0.01293036 -0.02819200
v -0.06297100 0.01170284 -0.02819159
v -0.06203939 0.01143073 -0.01983784
v -0.03331536 0.02948419 -0.01859083
v -0.03908898 0.02910048 -0.01991515
v -0.05038177 0.02495805 -0.01987446
v -0.05518373 0.02128836 -0.01986141
v -0.05913029 0.01672248 -0.01984959
v -0.06350749 -0.00006327 -0.01568989
v -0.06555615 0.00039475 -0.02818621
v -0.06556054 -0.00005206 -0.02818622
v -0.06480785 -0.00005373 -0.02217311
v -0.06439497 -0.00005550 -0.01983847
v -0.06423842 0.00267893 -0.01983302
v -0.06545492 0.00218040 -0.02818638
v -0.06388853 0.00932801 -0.02819023
v -0.06480239 0.00614757 -0.02818794
v -0.06377485 0.00565533 -0.01982984
v -0.06515897 0.00439544 -0.02818703
v -0.06541002 0.00262497 -0.02818642
v -0.05912608 0.01824425 -0.02819292
v -0.05995172 0.01712689 -0.02819258
v -0.06119243 0.01520104 -0.02819226
v -0.06173594 0.01424269 -0.02819225
v -0.05667604 0.02100266 -0.02819433
v -0.05147023 0.02514883 -0.02819655
v -0.05172481 0.02498462 -0.02819659
v -0.05197782 0.02481803 -0.02819665
v -0.05222927 0.02464907 -0.02819669
v -0.05272742 0.02430416 -0.02819676
v -0.05297402 0.02412822 -0.02819673
v -0.05321898 0.02394998 -0.02819668
v -0.05346224 0.02376946 -0.02819659
v -0.05394363 0.02340152 -0.02819627
v -0.05488509 0.02263829 -0.02819533
v -0.05585923 0.02178131 -0.02819465
v -0.04791129 0.02710966 -0.02819749
v -0.04884100 0.02665603 -0.02819755
v -0.05095652 0.02547007 -0.02819662
v -0.04090057 0.02929976 -0.02820179
v -0.03924886 0.02954621 -0.02820335
v -0.03331580 0.02984132 -0.02751306
v -0.03720479 0.02974205 -0.02820514
v -0.03331584 0.02985158 -0.02820813
v 0.00182622 -0.02872013 -0.01174405
v 0.00182514 -0.02850153 -0.01168475
v 0.00131660 -0.02872033 -0.01174170
v -0.00108122 -0.02849575 -0.01168001
v -0.00311970 -0.02848637 -0.01167744
v -0.00515819 -0.02848253 -0.01167488
v -0.00719669 -0.02848770 -0.01167247
v -0.01539076 -0.02877053 -0.01171471
v -0.00923512 -0.02850112 -0.01166842
v -0.01331192 -0.02853954 -0.01165773
v -0.02905424 -0.02894742 -0.01169477
v -0.02447937 -0.02882686 -0.01170344
v -0.02757998 -0.02870053 -0.01163614
v -0.02554239 -0.02863983 -0.01164000
v -0.01738880 -0.02857009 -0.01164817
v -0.02146576 -0.02858500 -0.01164404
v -0.02350422 -0.02860079 -0.01164274
v -0.02961806 -0.02874627 -0.01163119
v -0.03165681 -0.02874314 -0.01162371
v -0.03331565 -0.02889376 -0.01168139
v -0.03369429 -0.02866504 -0.01161819
v -0.03382446 -0.02886459 -0.01167950
v -0.03585572 -0.02868559 -0.01167398
v -0.03572619 -0.02849298 -0.01161305
v -0.03787472 -0.02839896 -0.01166770
v -0.03774618 -0.02821299 -0.01160712
v -0.03873329 -0.02824159 -0.01166628
v -0.03974683 -0.02781731 -0.01160482
v -0.03987417 -0.02799741 -0.01166542
v -0.04184536 -0.02747403 -0.01166139
v -0.04171956 -0.02729962 -0.01160118
v -0.04377910 -0.02682567 -0.01165479
v -0.04365499 -0.02665621 -0.01159478
v -0.04554418 -0.02588739 -0.01159275
v -0.04750668 -0.02515233 -0.01165310
v -0.04663369 -0.02537457 -0.01159285
v -0.04781927 -0.02475279 -0.01159197
v -0.04927099 -0.02412868 -0.01165038
v -0.04915212 -0.02396746 -0.01158998
v -0.05096001 -0.02298518 -0.01164873
v -0.05084231 -0.02282559 -0.01158842
v -0.05256618 -0.02172791 -0.01164823
v -0.05244779 -0.02156735 -0.01158731
v -0.05407926 -0.02035993 -0.01164742
v -0.05395901 -0.02019724 -0.01158568
v -0.05548799 -0.01888457 -0.01164629
v -0.05536610 -0.01872035 -0.01158424
v -0.05678202 -0.01730760 -0.01164380
v -0.05657789 -0.01725185 -0.01158284
v -0.05666055 -0.01714379 -0.01158276
v -0.05755597 -0.01623700 -0.01164176
v -0.05783453 -0.01547556 -0.01158099
v -0.06019960 -0.01096511 -0.01157781
v -0.06030404 -0.01122855 -0.01163929
v -0.05979382 -0.01190027 -0.01157776
v -0.05985376 -0.01226410 -0.01164240
v -0.05888114 -0.01372461 -0.01157919
v -0.05901432 -0.01389594 -0.01164151
v -0.05795617 -0.01563955 -0.01164084
v -0.06323790 -0.01116993 -0.02819127
v -0.06287786 -0.01201963 -0.02819171
v -0.06195160 -0.01174265 -0.01983779
v -0.06372184 -0.00601633 -0.01982930
v -0.05902232 -0.01698044 -0.01984942
v -0.05507302 -0.02149471 -0.01986117
v -0.05028515 -0.02512100 -0.01987420
v -0.04487199 -0.02773819 -0.01988934
v -0.03331472 -0.02963287 -0.01927475
v -0.03905107 -0.02920973 -0.01991481
v -0.04086729 -0.02940900 -0.02820194
v -0.03920979 -0.02965445 -0.02820337
v -0.03773811 -0.02980493 -0.02820469
v -0.03419990 -0.02995536 -0.02820753
v -0.03331508 -0.02995494 -0.02820812
v -0.04447218 -0.02854352 -0.02819903
v -0.05079663 -0.02567073 -0.02819666
v -0.05007491 -0.02609401 -0.02819694
v -0.04788819 -0.02722381 -0.02819755
v -0.04522112 -0.02829877 -0.02819864
v -0.05324172 -0.02403661 -0.02819581
v -0.05618165 -0.02158434 -0.02819446
v -0.05840556 -0.01923602 -0.02819327
v -0.05984003 -0.01738834 -0.02819263
v -0.06238426 -0.01308551 -0.02819198
v -0.06166843 -0.01446958 -0.02819224
v -0.06057057 -0.01631089 -0.02819235
v -0.06398990 -0.00913065 -0.02819000
v -0.06448492 -0.00749917 -0.02818887
v -0.06554192 -0.00097571 -0.02818627
v -0.06548781 -0.00189662 -0.02818638
v -0.06540097 -0.00281002 -0.02818644
v -0.06528337 -0.00371993 -0.02818673
v -0.06482096 -0.00617099 -0.02818789
v 0.14236452 -0.00004805 -0.02147494
v 0.14236455 -0.00004959 -0.02711355
v 0.14210124 0.00474030 -0.02710949
v 0.09919439 0.03380253 -0.02100133
v 0.10617975 0.03286919 -0.02100345
v 0.09967687 0.03395023 -0.02153841
v 0.09919433 0.03440592 -0.02269115
v 0.09919430 0.03439065 -0.02264531
v 0.09919403 0.03559301 -0.02709047
v 0.10365656 0.03502710 -0.02708580
v 0.10985813 0.03391579 -0.02708264
v 0.11039118 0.03209672 -0.02100463
v 0.11533993 0.03253382 -0.02708252
v 0.11261772 0.03160790 -0.02100531
v 0.11398294 0.03127641 -0.02100572
v 0.11793128 0.03171513 -0.02708311
v 0.11812720 0.03009856 -0.02100706
v 0.12016248 0.03090732 -0.02708391
v 0.12285780 0.02836197 -0.02100868
v 0.12439571 0.02905264 -0.02708602
v 0.12691203 0.02641431 -0.02101011
v 0.12812123 0.02696245 -0.02708852
v 0.13018352 0.02555558 -0.02709012
v 0.12985191 0.02462860 -0.02101123
v 0.13138489 0.02463061 -0.02709117
v 0.13039267 0.02425610 -0.02101145
v 0.13336028 0.02189281 -0.02101266
v 0.13421614 0.02204650 -0.02709392
v 0.13585949 0.01932574 -0.02101384
v 0.13664827 0.01917061 -0.02709678
v 0.13773258 0.01758467 -0.02709827
v 0.13766873 0.01693859 -0.02101479
v 0.13869976 0.01593267 -0.02709977
v 0.14108491 0.00957142 -0.02101739
v 0.14034039 0.01229210 -0.02710301
v 0.13982795 0.01301828 -0.02101623
v 0.13810810 0.01626010 -0.02101504
v 0.14231694 0.00192211 -0.02101988
v 0.14236535 -0.00004817 -0.02102051
v 0.14191046 0.00588786 -0.02101862
v 0.14173676 0.00686871 -0.02101830
v 0.14176516 0.00702086 -0.02710754
v 0.14142139 0.00867939 -0.02710612
v 0.14024527 0.01259875 -0.02820591
v 0.14040387 0.01216682 -0.02820601
v 0.14212109 0.00454774 -0.02820980
v 0.14235328 0.00087076 -0.02821262
v 0.14236231 -0.00004946 -0.02821282
v 0.14083983 0.01085720 -0.02820626
v 0.14097200 0.01041647 -0.02820634
v 0.14055581 0.01173250 -0.02820609
v 0.14070110 0.01129592 -0.02820616
v 0.14109769 0.00997385 -0.02820643
v 0.14121693 0.00952945 -0.02820650
v 0.14132977 0.00908339 -0.02820659
v 0.14143626 0.00863576 -0.02820671
v 0.14153644 0.00818668 -0.02820687
v 0.14179526 0.00685778 -0.02820769
v 0.13972904 0.01387881 -0.02820529
v 0.13990790 0.01345488 -0.02820557
v 0.14007996 0.01302814 -0.02820577
v 0.13775386 0.01763782 -0.02820035
v 0.13851117 0.01635662 -0.02820238
v 0.13935079 0.01471770 -0.02820447
v 0.13954332 0.01429980 -0.02820491
v 0.13642915 0.01956379 -0.02819674
v 0.13407354 0.02231297 -0.02818977
v 0.13162623 0.02456881 -0.02818450
v 0.13022713 0.02566664 -0.02818200
v 0.12853129 0.02685091 -0.02817905
v 0.12512374 0.02884908 -0.02817385
v 0.11708006 0.03218830 -0.02816617
v 0.12177863 0.03043091 -0.02816932
v 0.12250936 0.03011233 -0.02817031
v 0.09919184 0.03579548 -0.02815984
v 0.10538325 0.03496327 -0.02815983
v 0.11148403 0.03374888 -0.02816197
v -0.02448632 0.02950562 -0.02821120
v -0.00796407 0.02908888 -0.02821289
v 0.00095220 0.02903027 -0.02821214
v 0.00182354 0.02902960 -0.02821193
v 0.00182427 -0.02913206 -0.02821191
v -0.00796325 -0.02919159 -0.02821289
v -0.01565760 -0.02933095 -0.02821326
v -0.02552541 -0.02965052 -0.02821109
v -0.03245245 -0.02993903 -0.02820875
v 0.14054979 -0.01184993 -0.02820607
v 0.14014061 -0.01297275 -0.02820583
v 0.14215448 -0.00432930 -0.02821008
v 0.14194191 -0.00604619 -0.02820846
v 0.14151213 -0.00839837 -0.02820682
v 0.14137878 -0.00898074 -0.02820664
v 0.14107993 -0.01013780 -0.02820641
v 0.14091425 -0.01071181 -0.02820629
v 0.13445246 -0.02201589 -0.02819083
v 0.13632984 -0.01979493 -0.02819644
v 0.13991904 -0.01352759 -0.02820557
v 0.13944140 -0.01462309 -0.02820467
v 0.13834605 -0.01674944 -0.02820193
v 0.13393264 -0.02255654 -0.02818938
v 0.13207795 -0.02428716 -0.02818532
v 0.12088761 -0.03090131 -0.02816832
v 0.12259793 -0.03017251 -0.02817040
v 0.12543620 -0.02878359 -0.02817427
v 0.12912396 -0.02655330 -0.02818009
v 0.11797103 -0.03199021 -0.02816656
v 0.11594920 -0.03264488 -0.02816554
v 0.10655547 -0.03486357 -0.02816001
v 0.10785551 -0.03462434 -0.02816035
v 0.11382195 -0.03325606 -0.02816371
v 0.10472189 -0.03516953 -0.02815974
v 0.10380309 -0.03530978 -0.02815966
v 0.10011645 -0.03579284 -0.02815956
v 0.09919272 -0.03589550 -0.02815984
v 0.14215331 -0.00416377 -0.02101916
v 0.09919708 -0.03543996 -0.02595982
v 0.09919486 -0.03569336 -0.02709056
v 0.11011841 -0.03396170 -0.02709085
v 0.09919523 -0.03390158 -0.02100132
v 0.09919507 -0.03410343 -0.02153862
v 0.10376791 -0.03333576 -0.02100239
v 0.11016868 -0.03224268 -0.02100413
v 0.11078499 -0.03211505 -0.02100430
v 0.09919291 -0.03410364 -0.02153863
v 0.09919073 -0.03410388 -0.02153862
v 0.09919076 -0.03428908 -0.02205406
v 0.09919079 -0.03446694 -0.02257124
v 0.11406963 -0.03135483 -0.02100535
v 0.11428217 -0.03294040 -0.02709173
v 0.11573987 -0.03091084 -0.02100591
v 0.11793374 -0.03181965 -0.02709277
v 0.12058277 -0.02935784 -0.02100752
v 0.12868775 -0.02669797 -0.02709876
v 0.12480441 -0.02759018 -0.02100906
v 0.12443189 -0.02913675 -0.02709582
v 0.12172199 -0.03037800 -0.02709433
v 0.13441731 -0.02193480 -0.02710386
v 0.13172135 -0.02337082 -0.02101174
v 0.13018450 -0.02565533 -0.02709993
v 0.13008972 -0.02456693 -0.02101107
v 0.12850036 -0.02559649 -0.02101044
v 0.13782485 -0.01680314 -0.02101473
v 0.13701460 -0.01796963 -0.02101426
v 0.13773364 -0.01768413 -0.02710771
v 0.13688610 -0.01814262 -0.02101419
v 0.13450044 -0.02090397 -0.02101297
v 0.13889350 -0.01501567 -0.02101542
v 0.14026189 -0.01258484 -0.02711098
v 0.14048775 -0.01148818 -0.02101667
v 0.14174904 -0.00711700 -0.02711283
v 0.14152202 -0.00798803 -0.02101787
v 0.14235793 -0.00080393 -0.02711354
v 0.14179298 -0.00667068 -0.02101834
v 0.14012483 0.01200971 -0.02064672
v 0.14116605 0.00778428 -0.02033117
v 0.14163516 0.00683719 -0.02064440
v 0.14179268 0.00401856 -0.02033021
v 0.14224742 0.00104662 -0.02064489
v 0.14200264 -0.00004623 -0.02033041
v 0.14226425 -0.00004783 -0.02064737
v 0.13755892 0.01686370 -0.02064981
v 0.13860925 0.01459902 -0.02034330
v 0.14010918 0.01130338 -0.02033648
v 0.13404711 0.02104144 -0.02065251
v 0.13661438 0.01769962 -0.02035015
v 0.13733123 0.01669622 -0.02034791
v 0.12974142 0.02449866 -0.02065394
v 0.13128687 0.02302003 -0.02036147
v 0.13406806 0.02060933 -0.02035678
v 0.12407295 0.02762421 -0.02065358
v 0.12772413 0.02539718 -0.02036434
v 0.12957460 0.02424331 -0.02036319
v 0.11780268 0.02965987 -0.02036195
v 0.11929541 0.02917070 -0.02036318
v 0.11787233 0.02996871 -0.02065193
v 0.12112834 0.02850883 -0.02036412
v 0.12384027 0.02738613 -0.02036474
v 0.11398984 0.03073569 -0.02035725
v 0.11035672 0.03188828 -0.02064685
v 0.10778166 0.03206506 -0.02034649
v 0.09925414 0.03345852 -0.02048617
v 0.09930026 0.03328159 -0.02032374
v 0.09919579 0.03377569 -0.02093548
v 0.11038366 0.03207441 -0.02093931
v 0.11793304 0.03013876 -0.02094299
v 0.12415676 0.02777288 -0.02094572
v 0.12983991 0.02462018 -0.02094839
v 0.13766165 0.01693504 -0.02095075
v 0.13415067 0.02113713 -0.02095002
v 0.14173336 0.00686655 -0.02095035
v 0.14022480 0.01205921 -0.02095070
v 0.14234589 0.00105300 -0.02095038
v 0.11463208 0.02743842 -0.01841994
v 0.10821375 0.02917141 -0.01843295
v 0.09998772 0.03088227 -0.01845460
v 0.11897414 0.02596093 -0.01841426
v 0.12429656 0.02363432 -0.01841108
v 0.11989796 0.02560367 -0.01841339
v 0.13958506 -0.00004671 -0.01844860
v 0.14156671 -0.00004865 -0.01999056
v 0.13955097 0.00147750 -0.01844797
v 0.13917872 0.00506382 -0.01844439
v 0.13892071 0.00638470 -0.01844237
v 0.13838011 0.00840392 -0.01843862
v 0.13712004 0.01156790 -0.01843064
v 0.13534553 0.01457499 -0.01842201
v 0.13327977 0.01711443 -0.01841510
v 0.13274635 0.01766769 -0.01841364
v 0.13092576 0.01934006 -0.01841202
v 0.12782042 0.02162079 -0.01841130
v 0.01740522 0.02968390 -0.01169404
v 0.01737648 0.02990297 -0.01175106
v 0.01728998 0.02966877 -0.01169412
v 0.01723297 0.02988443 -0.01175135
v 0.01714638 0.02964993 -0.01169426
v 0.01711782 0.02986869 -0.01175132
v 0.01667855 0.02958904 -0.01169458
v 0.01293222 0.02913145 -0.01169378
v 0.00229726 0.02861858 -0.01174494
v 0.00603355 0.02851908 -0.01168847
v 0.00948570 0.02899974 -0.01174959
v 0.00962163 0.02901214 -0.01174967
v -0.02448302 0.02932967 -0.01994449
v -0.01564988 0.02912983 -0.01995345
v 0.00182308 0.02893783 -0.01997518
v 0.00182338 0.02901120 -0.02452330
v 0.00432736 0.02905230 -0.02821188
v 0.01463838 0.02966384 -0.02821371
v 0.02471473 0.03120441 -0.02821193
v 0.02554635 0.03137854 -0.02821140
v 0.00229817 -0.02850232 -0.01168571
v 0.00603426 -0.02862209 -0.01168848
v 0.00967114 -0.02911888 -0.01174953
v 0.00950589 -0.02888279 -0.01169101
v 0.01289297 -0.02945207 -0.01175184
v 0.01714710 -0.02975265 -0.01169425
v 0.01664943 -0.02991036 -0.01175173
v 0.01711850 -0.02997142 -0.01175131
v 0.00267390 -0.02913465 -0.02821196
v 0.00607215 -0.02919715 -0.02821226
v 0.01286021 -0.02959534 -0.02821333
v 0.01922096 -0.03034113 -0.02821374
v 0.02554714 -0.03148042 -0.02821139
v 0.00182381 -0.02904566 -0.02021060
v 0.00182380 -0.02904030 -0.01997511
v -0.01564914 -0.02923272 -0.01995336
v -0.02448228 -0.02943279 -0.01994440
v 0.01737724 -0.03000536 -0.01175107
v 0.01740596 -0.02978661 -0.01169403
v 0.01726316 -0.02999037 -0.01175116
v 0.01726120 -0.02976762 -0.01169415
v 0.14236370 -0.00004958 -0.02763465
v 0.08043923 -0.03703201 -0.02816049
v 0.06570935 -0.03713876 -0.02815973
v 0.04729781 -0.03706559 -0.02816000
v 0.04637722 -0.03706350 -0.02816078
v 0.09147546 -0.03655441 -0.02816125
v 0.08412003 -0.03692309 -0.02816078
v 0.10967658 0.01154658 -0.01272402
v 0.11110573 0.00867170 -0.01260466
v 0.11222108 0.00812370 -0.01154472
v 0.11154466 0.00751095 -0.01254202
v 0.11282344 0.00557289 -0.01154737
v 0.11201826 0.00596488 -0.01245404
v 0.11319418 0.00257122 -0.01155012
v 0.11238353 0.00436109 -0.01236591
v 0.11328526 -0.00005015 -0.01155095
v 0.11276300 0.00112378 -0.01224551
v 0.11279067 -0.00005016 -0.01223477
v 0.11147931 0.01021419 -0.01154337
v 0.11041340 0.01238583 -0.01154294
v 0.10783796 0.01422634 -0.01277210
v 0.10933022 0.01408654 -0.01154389
v 0.10741228 0.01475035 -0.01277275
v 0.10725945 0.01657356 -0.01154742
v 0.10659176 0.01568561 -0.01276658
v 0.08434194 0.02626183 -0.01264821
v 0.08877762 0.02543107 -0.01248381
v 0.08887313 0.02617243 -0.01159000
v 0.10503700 0.01723972 -0.01273510
v 0.10579576 0.01796241 -0.01155133
v 0.10231245 0.01946273 -0.01264088
v 0.10357283 0.01970258 -0.01155774
v 0.10210159 0.01961387 -0.01263276
v 0.10154315 0.02102067 -0.01156403
v 0.09908098 0.02152130 -0.01251460
v 0.09906519 0.02237483 -0.01157165
v 0.09552558 0.02326060 -0.01241172
v 0.09687067 0.02339568 -0.01157793
v 0.09172373 0.02464844 -0.01239807
v 0.09311037 0.02485554 -0.01158603
v 0.08926170 0.02606406 -0.01158908
v 0.08581121 0.02690450 -0.01159872
v 0.08524317 0.02701672 -0.01159921
v 0.07934121 0.02695729 -0.01271704
v 0.07741448 0.02819167 -0.01160755
v 0.07909387 0.02698775 -0.01271916
v 0.07378796 0.02759643 -0.01274874
v 0.07642450 0.02831163 -0.01160817
v 0.07185831 0.02883405 -0.01161117
v 0.06767523 0.02823201 -0.01277302
v 0.06672037 0.02937985 -0.01161283
v 0.06101779 0.02885096 -0.01279845
v 0.05784373 0.03021301 -0.01161807
v 0.05385099 0.02940827 -0.01284431
v 0.05226536 0.02952036 -0.01285541
v 0.04482001 0.03121875 -0.01162803
v 0.04617840 0.02997979 -0.01285344
v 0.04438010 0.03124742 -0.01162884
v 0.03910949 0.03042959 -0.01282187
v 0.03556750 0.03155117 -0.01164893
v 0.03696557 0.03045557 -0.01283659
v 0.03053171 0.03129979 -0.01166595
v 0.02781040 0.02988516 -0.01288211
v 0.03098816 0.03133697 -0.01166448
v 0.03325716 0.03034835 -0.01286354
v 0.03510072 0.03154308 -0.01165018
v 0.01788768 0.02974750 -0.01169374
v 0.01714638 0.02849962 -0.01289520
v 0.02628953 0.02970701 -0.01288547
v 0.09826742 0.03589135 -0.02816031
v 0.08714486 0.03669783 -0.02816099
v 0.08384614 0.03683231 -0.02816078
v 0.06322278 0.03702582 -0.02816036
v 0.04637595 0.03696189 -0.02815923
v 0.11012969 0.03396116 -0.02762295
v 0.14175485 0.00702704 -0.02763758
v 0.14235727 0.00070572 -0.02763803
v 0.14026815 0.01250186 -0.02763642
v 0.13774399 0.01761112 -0.02763433
v 0.13443467 0.02187593 -0.02763185
v 0.13020600 0.02561162 -0.02762926
v 0.12445408 0.02911046 -0.02762649
v 0.11795224 0.03180734 -0.02762437
v 0.05622484 0.03679578 -0.02709293
v 0.05480972 0.03679284 -0.02709351
v 0.05373901 0.03602684 -0.02381711
v 0.08904556 0.03563928 -0.02400965
v 0.07719678 0.03604405 -0.02399022
v 0.07579719 0.03509432 -0.02100514
v 0.09740479 0.03398383 -0.02100185
v 0.08750575 0.03469981 -0.02100341
v 0.08503183 0.03481637 -0.02100387
v 0.07752725 0.03678818 -0.02708854
v 0.05234553 0.03515896 -0.02100448
v 0.08952689 0.03637581 -0.02708912
v 0.11328325 -0.00045313 -0.01155096
v 0.11059096 -0.00993161 -0.01266047
v 0.11140611 -0.01048834 -0.01154329
v 0.11222423 -0.00821408 -0.01154472
v 0.10979590 -0.01144254 -0.01271768
v 0.10871512 -0.01314560 -0.01275946
v 0.11032101 -0.01264752 -0.01154297
v 0.05784448 -0.03031471 -0.01161809
v 0.06672112 -0.02948133 -0.01161284
v 0.06267088 -0.02880777 -0.01279152
v 0.07185912 -0.02893540 -0.01161118
v 0.07767805 -0.02725878 -0.01273004
v 0.05977840 -0.02905719 -0.01280431
v 0.05635180 -0.02932767 -0.01282533
v 0.04438091 -0.03134951 -0.01162878
v 0.03637796 -0.03055351 -0.01284123
v 0.03510153 -0.03164537 -0.01165019
v 0.04017887 -0.03049573 -0.01281822
v 0.04392941 -0.03137782 -0.01163019
v 0.04250504 -0.03037027 -0.01282147
v 0.04919233 -0.02984178 -0.01286779
v 0.01714709 -0.02860235 -0.01289521
v 0.02620005 -0.02979848 -0.01288566
v 0.03004818 -0.03136010 -0.01166745
v 0.03022734 -0.03023216 -0.01287644
v 0.03053249 -0.03140219 -0.01166594
v 0.03464367 -0.03163455 -0.01165128
v 0.07885346 -0.02811141 -0.01160635
v 0.07931339 -0.02805123 -0.01160592
v 0.08543462 -0.02618393 -0.01262154
v 0.08581150 -0.02700557 -0.01159871
v 0.08731481 -0.02584070 -0.01255121
v 0.08844652 -0.02638925 -0.01159082
v 0.08874117 -0.02554038 -0.01248547
v 0.08887344 -0.02627346 -0.01159000
v 0.09159173 -0.02478989 -0.01239980
v 0.09295836 -0.02500916 -0.01158624
v 0.09562059 -0.02332109 -0.01241348
v 0.09597560 -0.02387414 -0.01158028
v 0.09818234 -0.02210798 -0.01248274
v 0.09945465 -0.02227853 -0.01157045
v 0.10160312 -0.02006190 -0.01261327
v 0.10488532 -0.01882089 -0.01155381
v 0.10699181 -0.01694671 -0.01154808
v 0.10561058 -0.01679633 -0.01274935
v 0.10242562 -0.02057504 -0.01156136
v 0.10465245 -0.01768880 -0.01272402
v 0.10910460 -0.01449928 -0.01154418
v 0.10791133 -0.01423392 -0.01277166
v 0.10613934 -0.01626543 -0.01275984
v 0.10988454 -0.01128706 -0.01271264
v 0.11285969 -0.00546733 -0.01154759
v 0.11214408 -0.00557224 -0.01242600
v 0.11176426 -0.00694414 -0.01250437
v 0.11320844 -0.00246646 -0.01155025
v 0.11257163 -0.00330705 -0.01231129
v 0.11250070 -0.00378738 -0.01233288
v 0.11929779 -0.02926616 -0.02036262
v 0.12055460 -0.02544115 -0.01841377
v 0.11812232 -0.02965464 -0.02036160
v 0.11506473 -0.02740655 -0.01842037
v 0.11395364 -0.03084136 -0.02035666
v 0.11110055 -0.02854765 -0.01842707
v 0.10769838 -0.03217641 -0.02034566
v 0.10825609 -0.02926216 -0.01843301
v 0.09930108 -0.03338064 -0.02032374
v 0.09998849 -0.03098130 -0.01845460
v 0.12146597 -0.02847611 -0.02036409
v 0.12385187 -0.02747849 -0.02036502
v 0.12479611 -0.02347670 -0.01841076
v 0.12776349 -0.02547209 -0.02036480
v 0.12980914 -0.02418341 -0.02036356
v 0.12865451 -0.02116062 -0.01840929
v 0.13094720 -0.02337452 -0.02036243
v 0.13375093 -0.02101441 -0.02035812
v 0.13412267 -0.01627155 -0.01842050
v 0.13274516 -0.01777192 -0.01841487
v 0.13180591 -0.01866606 -0.01841061
v 0.13611002 -0.01844877 -0.02035260
v 0.13748622 -0.01656439 -0.02034831
v 0.13611171 -0.01351103 -0.01842685
v 0.13806541 -0.01564637 -0.02034616
v 0.13963754 -0.01257679 -0.02033936
v 0.13769838 -0.01037276 -0.01843132
v 0.13936982 -0.00378215 -0.01844173
v 0.13873762 -0.00722228 -0.01843599
v 0.14080650 -0.00928235 -0.02033402
v 0.13887957 -0.00663541 -0.01843691
v 0.14143701 -0.00657931 -0.02033116
v 0.14159800 -0.00562463 -0.02033046
v 0.14196829 -0.00169745 -0.02032948
v 0.11077730 -0.03209256 -0.02094536
v 0.14178964 -0.00666868 -0.02095664
v 0.14033000 -0.01189034 -0.02095694
v 0.13781767 -0.01679934 -0.02095696
v 0.13435072 -0.02103961 -0.02095619
v 0.13007779 -0.02455774 -0.02095453
v 0.12442824 -0.02774742 -0.02095181
v 0.11825819 -0.03013515 -0.02094905
v 0.09977908 -0.03381263 -0.02094157
v 0.09980625 -0.03362158 -0.02063907
v 0.09922629 -0.03368539 -0.02063836
v 0.09919629 -0.03387596 -0.02094146
v 0.11074797 -0.03190662 -0.02064985
v 0.11819556 -0.02996589 -0.02065476
v 0.12434311 -0.02760000 -0.02065632
v 0.12997861 -0.02443784 -0.02065662
v 0.13424712 -0.02094561 -0.02065509
v 0.13771540 -0.01672953 -0.02065241
v 0.14023077 -0.01184215 -0.02064934
v 0.14169222 -0.00664053 -0.02064719
v 0.08884753 -0.03575166 -0.02401053
v 0.09742191 -0.03587453 -0.02709066
v 0.08791662 -0.03656346 -0.02709088
v 0.07706577 -0.03614774 -0.02399128
v 0.07812306 -0.03688030 -0.02709155
v 0.06310029 -0.03692953 -0.02709308
v 0.05378106 -0.03615613 -0.02391843
v 0.05481047 -0.03689408 -0.02709279
v 0.05234642 -0.03525993 -0.02100448
v 0.05311940 -0.03572764 -0.02243425
v 0.05859622 -0.03528669 -0.02100591
v 0.07658686 -0.03517986 -0.02100464
v 0.08503117 -0.03491728 -0.02100341
v 0.08947919 -0.03469195 -0.02100253
v 0.08892566 0.02636271 -0.01158327
v 0.08528138 0.02721597 -0.01160062
v 0.08319675 0.02758861 -0.01160609
v 0.07643991 0.02851899 -0.01161845
v 0.07573647 0.02860260 -0.01161925
v 0.06498507 0.02976540 -0.01162954
v 0.05990136 0.03024366 -0.01163570
v 0.05288577 0.03083950 -0.01164360
v 0.04483603 0.03143257 -0.01165554
v 0.04439620 0.03146267 -0.01165829
v 0.09155404 0.03158823 -0.01782818
v 0.09954999 0.03028521 -0.01784687
v 0.09992824 0.03076446 -0.01834771
v 0.08354630 0.03303986 -0.01850407
v 0.08349863 0.03247873 -0.01782800
v 0.09058890 0.03232647 -0.01847995
v 0.09179723 0.03217286 -0.01847600
v 0.03556324 0.03176977 -0.01168671
v 0.03509644 0.03176174 -0.01168868
v 0.07277915 0.03477993 -0.02024247
v 0.08496252 0.03438976 -0.02027062
v 0.08497425 0.03452103 -0.02044436
v 0.09743708 0.03348223 -0.02031655
v 0.08498955 0.03463557 -0.02062278
v 0.06371599 0.03504752 -0.02060868
v 0.08746286 0.03425849 -0.02027820
v 0.05210746 0.03502285 -0.02060579
v 0.05186126 0.03488082 -0.02021852
v 0.06363205 0.03496622 -0.02041763
v 0.05063462 0.03421977 -0.01854863
v 0.06856631 0.03384826 -0.01852518
v 0.07535384 0.03356453 -0.01851610
v 0.08088040 0.03323689 -0.01850916
v 0.08094583 0.03268614 -0.01782475
v 0.06860869 0.03338234 -0.01780446
v 0.06675605 0.03345528 -0.01780145
v 0.04999233 0.03389242 -0.01777859
v 0.11343270 -0.00005015 -0.01150723
v 0.11334246 0.00255739 -0.01150722
v 0.11307330 0.00496311 -0.01150693
v 0.11277664 0.00655014 -0.01150675
v 0.11237516 0.00811409 -0.01150687
v 0.11186153 0.00964508 -0.01150743
v 0.11122996 0.01113146 -0.01150828
v 0.11006486 0.01325365 -0.01151025
v 0.10915152 0.01458549 -0.01151228
v 0.10702909 0.01702786 -0.01151791
v 0.10601743 0.01797882 -0.01152129
v 0.10523101 0.01864875 -0.01152389
v 0.10261862 0.02055148 -0.01153359
v 0.09911294 0.02255219 -0.01154760
v 0.09811449 0.02303670 -0.01155172
v 0.08931400 0.02625344 -0.01158159
v 0.09239807 0.02530254 -0.01157299
v 0.09542995 0.02419697 -0.01156257
v 0.09699067 0.02354592 -0.01155631
v 0.07133101 0.03177432 -0.01566201
v 0.08584488 0.03119292 -0.01657098
v 0.08827361 0.02906191 -0.01439147
v 0.05691815 0.03188080 -0.01424390
v 0.04543144 0.03185566 -0.01272294
v 0.09763002 0.02951730 -0.01671529
v 0.13058884 0.01850999 -0.01800488
v 0.13187858 0.01733022 -0.01801421
v 0.13233630 0.01751065 -0.01819198
v 0.13846225 0.00412822 -0.01805281
v 0.13916147 0.00125077 -0.01821239
v 0.13852073 0.00634603 -0.01820801
v 0.11078597 0.02814473 -0.01816521
v 0.10787492 0.02850244 -0.01787079
v 0.11861375 0.02567257 -0.01816793
v 0.13689508 0.01110812 -0.01820246
v 0.13931805 -0.00004700 -0.01828026
v 0.13874289 -0.00004873 -0.01805423
v 0.13889655 -0.00004844 -0.01809786
v 0.13907990 -0.00004780 -0.01816740
v 0.13302889 0.01612508 -0.01802213
v 0.13499026 0.01357620 -0.01803437
v 0.13541472 0.01375488 -0.01819862
v 0.13663073 0.01059652 -0.01804389
v 0.13777144 0.00745892 -0.01804989
v 0.13804027 0.00641445 -0.01805114
v 0.12828124 0.02082446 -0.01818248
v 0.11962225 0.02484225 -0.01792969
v 0.12399015 0.02285682 -0.01795847
v 0.12497817 0.02281990 -0.01817685
v 0.12550680 0.02203638 -0.01796878
v 0.12760374 0.02075130 -0.01798336
v 0.11280073 0.02718380 -0.01789195
v 0.11433761 0.02671725 -0.01789944
v 0.11823341 0.02538189 -0.01792099
v 0.04247583 -0.03637119 -0.02820131
v 0.04162667 -0.03604836 -0.02820633
v 0.04060830 -0.03565126 -0.02820767
v 0.03853251 -0.03489402 -0.02820909
v 0.03709991 -0.03442179 -0.02820946
v 0.03620157 -0.03414380 -0.02820942
v 0.02980191 -0.03244167 -0.02820934
v 0.02639981 -0.03166484 -0.02821074
v 0.01331311 -0.02963564 -0.02408718
v 0.01110604 -0.02933079 -0.01564876
v 0.02005637 -0.03041311 -0.01513544
v 0.01767178 -0.03004710 -0.01210230
v 0.01237525 -0.02951071 -0.01978144
v 0.01763656 -0.03010174 -0.01956511
v 0.02312727 -0.03096411 -0.02006351
v 0.02227029 -0.03080051 -0.01849061
v 0.02392128 -0.03112366 -0.02181033
v 0.01904524 -0.03032104 -0.02388389
v 0.02493208 -0.03133959 -0.02484280
v 0.02392797 -0.03089320 -0.01174105
v 0.03051397 -0.03162100 -0.01171260
v 0.03002958 -0.03157973 -0.01171455
v 0.02725867 -0.03129977 -0.01172779
v 0.04612505 -0.03685118 -0.02709276
v 0.05046753 -0.03687238 -0.02709298
v 0.04335936 -0.03663496 -0.02818990
v 0.04169451 -0.03594804 -0.02542146
v 0.04133387 -0.03575996 -0.02452285
v 0.04048312 -0.03546145 -0.02424092
v 0.03401496 -0.03349942 -0.02697212
v 0.03329083 -0.03324963 -0.02435712
v 0.03828620 -0.03478888 -0.02683735
v 0.04140327 -0.03592455 -0.02690613
v 0.04037544 -0.03553318 -0.02682266
v 0.03088668 -0.03250187 -0.01959345
v 0.02761150 -0.03164752 -0.01542108
v 0.03120814 -0.03226622 -0.01534250
v 0.03368383 -0.03253210 -0.01450006
v 0.04049605 -0.03533760 -0.02281520
v 0.03884967 -0.03455976 -0.02022980
v 0.03760557 -0.03415256 -0.01948111
v 0.03788310 -0.03413295 -0.01896597
v 0.03666425 -0.03389941 -0.01943805
v 0.03662624 -0.03361025 -0.01749045
v 0.03299006 -0.03257963 -0.01533394
v 0.03948081 -0.03510974 -0.02417373
v 0.03744581 -0.03443635 -0.02419503
v 0.03475973 -0.03340637 -0.01945408
v 0.12826627 -0.02092172 -0.01817835
v 0.12497924 -0.02290722 -0.01817254
v 0.13916235 -0.00107794 -0.01820897
v 0.13852030 -0.00640728 -0.01820426
v 0.13690199 -0.01117096 -0.01819875
v 0.13540281 -0.01385487 -0.01819482
v 0.13232322 -0.01760891 -0.01818808
v 0.11078980 -0.02823355 -0.01815997
v 0.11861568 -0.02576074 -0.01816319
v 0.11063466 -0.02808467 -0.01802430
v 0.09963842 -0.03053192 -0.01800552
v 0.09976289 -0.03066712 -0.01815226
v 0.09955076 -0.03038425 -0.01784688
v 0.10372697 -0.02955102 -0.01786039
v 0.11149236 -0.02766494 -0.01789251
v 0.11843129 -0.02561903 -0.01804261
v 0.11783054 -0.02563926 -0.01792451
v 0.12477350 -0.02278222 -0.01806531
v 0.12294278 -0.02348389 -0.01795479
v 0.11928593 -0.02508383 -0.01793301
v 0.13234541 -0.01693577 -0.01801267
v 0.13109526 -0.01814438 -0.01800409
v 0.13210343 -0.01752283 -0.01809538
v 0.12979288 -0.01924950 -0.01799523
v 0.12805225 -0.02081119 -0.01807795
v 0.12675211 -0.02139077 -0.01797625
v 0.12456414 -0.02265722 -0.01796413
v 0.13449305 -0.01436642 -0.01802663
v 0.13518280 -0.01379522 -0.01810685
v 0.13615142 -0.01165129 -0.01803706
v 0.13668373 -0.01112550 -0.01811220
v 0.13692485 -0.00998326 -0.01804285
v 0.13830478 -0.00638110 -0.01811797
v 0.13799880 -0.00668982 -0.01805114
v 0.13855503 -0.00356348 -0.01805529
v 0.13894719 -0.00107431 -0.01812026
v 0.09298885 -0.03210788 -0.01847122
v 0.09152678 -0.03168995 -0.01782846
v 0.08785471 -0.03273857 -0.01849198
v 0.08349944 -0.03257653 -0.01782801
v 0.08354714 -0.03313770 -0.01850406
v 0.08753245 -0.03218064 -0.01782861
v 0.08954521 -0.03194642 -0.01782798
v 0.05287649 -0.03393881 -0.01778151
v 0.04999318 -0.03399302 -0.01777858
v 0.05063550 -0.03432036 -0.01854863
v 0.07074406 -0.03387185 -0.01852468
v 0.07088003 -0.03338236 -0.01780831
v 0.06894595 -0.03346681 -0.01780530
v 0.06675687 -0.03355375 -0.01780179
v 0.06231415 -0.03370488 -0.01779461
v 0.05305649 -0.03393525 -0.01778174
v 0.09549576 -0.03377056 -0.02031128
v 0.08575928 -0.03445220 -0.02027792
v 0.08496195 -0.03449146 -0.02027532
v 0.07290942 -0.03487608 -0.02024347
v 0.05186214 -0.03498137 -0.02021852
v 0.06371377 -0.03514704 -0.02061158
v 0.08498897 -0.03473505 -0.02062553
v 0.04942423 -0.03609709 -0.02391367
v 0.04530014 -0.03619985 -0.02442761
v 0.04487696 -0.03590897 -0.02337874
v 0.04876454 -0.03567724 -0.02242338
v 0.04404180 -0.03540141 -0.02170564
v 0.04361343 -0.03516820 -0.02100541
v 0.03996000 -0.03437907 -0.01905020
v 0.04161421 -0.03418728 -0.01831114
v 0.03970248 -0.03337377 -0.01613757
v 0.04274896 -0.03581484 -0.02339135
v 0.04373942 -0.03641622 -0.02580005
v 0.03823974 -0.03282205 -0.01461760
v 0.04218249 -0.03445460 -0.01902582
v 0.03509729 -0.03186370 -0.01168867
v 0.03097043 -0.03165801 -0.01171000
v 0.08892636 -0.02646362 -0.01158328
v 0.10492238 -0.01899843 -0.01152492
v 0.10379184 -0.01985137 -0.01152904
v 0.09299084 -0.02520226 -0.01157121
v 0.09600699 -0.02406440 -0.01156029
v 0.09821919 -0.02308835 -0.01155130
v 0.09966338 -0.02237174 -0.01154532
v 0.10245743 -0.02075655 -0.01153423
v 0.10569563 -0.01836046 -0.01152236
v 0.10601690 -0.01808017 -0.01152130
v 0.10800269 -0.01609743 -0.01151504
v 0.10924841 -0.01455532 -0.01151208
v 0.10995828 -0.01352210 -0.01151048
v 0.11114300 -0.01141379 -0.01150840
v 0.11178876 -0.00993548 -0.01150753
v 0.11231641 -0.00841116 -0.01150690
v 0.11289862 -0.00606405 -0.01150682
v 0.11325320 -0.00367204 -0.01150710
v 0.11337986 -0.00206462 -0.01150726
v 0.11343072 -0.00045313 -0.01150725
v 0.10412362 0.02464823 -0.01419294
v 0.12602217 -0.00005213 -0.01494915
v 0.04439514 -0.03156382 -0.01165642
v 0.05287815 -0.03094200 -0.01164361
v 0.05989904 -0.03034559 -0.01163569
v 0.06499610 -0.02986591 -0.01162952
v 0.07571537 -0.02870642 -0.01161928
v 0.08849964 -0.02658015 -0.01158533
v 0.08322217 -0.02768560 -0.01160602
v 0.07805177 -0.02842240 -0.01161635
v 0.07713201 -0.02853651 -0.01161759
v 0.10412645 -0.02474977 -0.01419416
v 0.09771115 -0.02965022 -0.01676039
v 0.04394369 -0.03159283 -0.01165810
v 0.04879878 -0.03340930 -0.01639796
v 0.05691826 -0.03198214 -0.01424307
v 0.07133115 -0.03187532 -0.01566137
v 0.08584511 -0.03129363 -0.01657055
v 0.08827373 -0.02916262 -0.01439107
v 0.01785886 0.02996722 -0.01175093
v 0.02726468 0.03119873 -0.01172792
v 0.03051333 0.03151896 -0.01171239
v 0.02054546 0.03039279 -0.01582461
v 0.01107200 0.02922701 -0.01572266
v 0.01232202 0.02940441 -0.01983415
v 0.02553811 0.03137659 -0.02813559
v 0.02264321 0.03076888 -0.01914753
v 0.02417628 0.03107491 -0.02245934
v 0.01324497 0.02952723 -0.02411575
v 0.02473522 0.03119452 -0.02413437
v 0.02503689 0.03126123 -0.02526128
v 0.04247462 0.03626957 -0.02819975
v 0.04165695 0.03595906 -0.02820622
v 0.03837756 0.03473987 -0.02820914
v 0.03576038 0.03391051 -0.02820944
v 0.03422628 0.03347205 -0.02820932
v 0.03806569 0.03266030 -0.01444603
v 0.04112003 0.03387196 -0.01774163
v 0.04216839 0.03435284 -0.01902689
v 0.04361254 0.03506677 -0.02100541
v 0.03096977 0.03155632 -0.01171013
v 0.03301376 0.03305529 -0.02360659
v 0.03059979 0.03231806 -0.01915717
v 0.03804865 0.03458612 -0.02590007
v 0.03713201 0.03420585 -0.02344278
v 0.03914974 0.03485543 -0.02342150
v 0.04114316 0.03568845 -0.02596259
v 0.04012261 0.03530931 -0.02588276
v 0.03844478 0.03427764 -0.01968733
v 0.04030925 0.03514771 -0.02250420
v 0.04014386 0.03519384 -0.02348640
v 0.04159663 0.03579810 -0.02519593
v 0.03230865 0.03199996 -0.01324408
v 0.03557229 0.03309709 -0.01635134
v 0.03634131 0.03366912 -0.01900830
v 0.02744178 0.03150588 -0.01522916
v 0.03102820 0.03211253 -0.01515393
v 0.03807795 0.03411639 -0.01921285
v 0.04242810 0.03624373 -0.02797145
v 0.03444799 0.03319405 -0.01902312
v 0.03280585 0.03241823 -0.01514575
v 0.04545178 0.03690739 -0.02816885
v 0.06314230 0.03692780 -0.02761104
v 0.08381131 0.03673686 -0.02761714
v 0.04612412 0.03674983 -0.02709275
v 0.09167039 0.03634642 -0.02762545
v 0.04503690 0.03593323 -0.02382294
v 0.04485515 0.03580847 -0.02338121
v 0.03992565 0.03427541 -0.01904975
v 0.04271601 0.03571019 -0.02339091
v 0.04370755 0.03631060 -0.02579960
v -0.03614448 -0.02590240 -0.01350369
v -0.03342441 -0.02628827 -0.01346445
v -0.03217535 -0.02640930 -0.01344297
v -0.03003261 -0.02654965 -0.01340341
v -0.02400531 -0.02666762 -0.01329856
v -0.01652102 -0.02670868 -0.01326661
v -0.00549300 -0.02701895 -0.01308188
v 0.00195976 -0.02717432 -0.01300936
v 0.00612234 -0.02738012 -0.01295907
v 0.00923455 -0.02763445 -0.01294381
v 0.01689362 -0.02857015 -0.01289455
v 0.01702036 -0.02858622 -0.01289491
v -0.03991244 -0.02500322 -0.01355273
v -0.04109358 -0.02461931 -0.01356615
v -0.04194142 -0.02431136 -0.01357479
v -0.04442715 -0.02321741 -0.01360562
v -0.04535351 -0.02272843 -0.01361916
v -0.04758438 -0.02136479 -0.01364581
v -0.04832579 -0.02084854 -0.01365274
v -0.05001678 -0.01952456 -0.01366783
v -0.05093316 -0.01870074 -0.01367666
v -0.05198436 -0.01763784 -0.01368869
v -0.05317374 -0.01625244 -0.01370457
v -0.05383657 -0.01537928 -0.01371388
v -0.05438922 -0.01458354 -0.01372193
v -0.05568940 -0.01239807 -0.01374091
v -0.05611147 -0.01156349 -0.01374688
v -0.05660279 -0.01048427 -0.01375336
v -0.05741427 -0.00833035 -0.01375907
v -0.05793045 -0.00654694 -0.01375075
v -0.05825002 -0.00511457 -0.01374637
v -0.05856480 -0.00308013 -0.01374925
v -0.05873843 -0.00005232 -0.01376383
v -0.05850167 0.00348150 -0.01374745
v -0.05825013 0.00501006 -0.01374638
v -0.05780273 0.00693042 -0.01375293
v -0.05714009 0.00902042 -0.01376005
v -0.05660312 0.01037958 -0.01375337
v -0.05575902 0.01216155 -0.01374191
v -0.05433788 0.01455635 -0.01372116
v -0.05399577 0.01505288 -0.01371617
v -0.05284308 0.01655537 -0.01369997
v -0.05048609 0.01900951 -0.01367214
v -0.05001728 0.01942016 -0.01366784
v -0.04773344 0.02115977 -0.01364724
v -0.04594659 0.02228782 -0.01362733
v -0.04273080 0.02389297 -0.01358318
v -0.04009583 0.02484275 -0.01355510
v -0.03994914 0.02488787 -0.01355223
v -0.03617718 0.02579265 -0.01350412
v -0.03173759 0.02634050 -0.01343510
v -0.02867295 0.02649979 -0.01337689
v -0.02521115 0.02655863 -0.01331267
v 0.01701989 0.02848352 -0.01289491
v -0.02215772 0.02656685 -0.01328812
v -0.01160372 0.02676338 -0.01317921
v -0.00259105 0.02696412 -0.01305918
v 0.00358185 0.02713464 -0.01298223
v 0.00491660 0.02720260 -0.01296770
v 0.00913872 0.02752231 -0.01294438
v 0.01689291 0.02846742 -0.01289454
f 1 2 3
f 2 21 3
f 2 20 21
f 555 21 20
f 1065 21 555
f 1055 1065 555
f 1055 555 554
f 554 1060 1055
f 1060 1071 1055
f 1060 1059 1071
f 1071 1059 1072
f 1072 1074 1071
f 1071 1074 1064
f 1073 1064 1074
f 1077 1073 1074
f 1063 1073 1077
f 1077 1062 1063
f 1077 1076 1062
f 1076 1081 1062
f 1062 1081 1088
f 1062 1088 1061
f 1061 22 1062
f 1062 22 17
f 17 22 15
f 15 16 17
f 16 15 3
f 1064 16 3
f 1064 3 1065
f 1063 16 1064
f 3 15 18
f 15 893 18
f 18 893 894
f 18 894 1
f 1 894 895
f 895 894 906
f 906 894 918
f 906 918 904
f 904 918 922
f 934 922 918
f 935 922 934
f 934 930 935
f 934 933 930
f 921 933 934
f 921 916 933
f 920 916 921
f 920 914 916
f 914 915 916
f 926 916 915
f 1004 926 915
f 915 1005 1004
f 996 1004 1005
f 996 1005 911
f 911 1005 913
f 914 913 1005
f 888 913 914
f 24 913 888
f 24 888 889
f 889 890 24
f 889 921 890
f 919 890 921
f 891 890 919
f 892 891 919
f 891 892 15
f 24 891 15
f 15 23 24
f 24 23 25
f 24 25 26
f 26 581 24
f 26 580 581
f 26 579 580
f 579 790 580
f 579 788 790
f 787 788 579
f 579 578 787
f 29 578 579
f 28 578 29
f 25 28 29
f 10 28 25
f 10 27 28
f 12 27 10
f 10 11 12
f 647 11 10
f 647 10 648
f 1093 647 648
f 1095 647 1093
f 1095 646 647
f 400 646 1095
f 646 400 11
f 11 400 13
f 13 400 401
f 13 401 43
f 43 401 402
f 401 651 402
f 651 659 402
f 651 338 659
f 336 338 651
f 336 337 338
f 337 339 338
f 338 339 340
f 509 340 339
f 510 340 509
f 509 504 510
f 510 504 500
f 510 500 511
f 511 500 495
f 511 495 512
f 511 512 349
f 512 351 349
f 512 352 351
f 514 352 512
f 512 492 514
f 514 492 489
f 492 493 489
f 489 493 494
f 489 494 490
f 533 490 494
f 532 490 533
f 532 491 490
f 531 491 532
f 531 487 491
f 486 491 487
f 486 487 479
f 516 486 479
f 516 479 515
f 515 359 516
f 515 366 359
f 515 365 366
f 517 365 515
f 517 363 365
f 363 326 365
f 363 364 326
f 326 364 440
f 477 326 440
f 477 440 475
f 475 414 477
f 477 414 373
f 477 373 577
f 577 327 477
f 653 327 577
f 653 328 327
f 326 327 328
f 652 328 653
f 371 652 653
f 371 653 372
f 48 371 372
f 61 371 48
f 61 383 371
f 61 382 383
f 381 382 61
f 61 380 381
f 652 381 380
f 380 379 652
f 652 379 378
f 84 378 379
f 375 378 84
f 654 378 375
f 375 374 654
f 654 374 377
f 84 377 374
f 84 376 377
f 370 376 84
f 369 370 84
f 654 370 369
f 654 369 386
f 386 385 654
f 84 385 386
f 384 385 84
f 84 390 384
f 84 389 390
f 654 390 389
f 654 389 655
f 655 389 388
f 655 388 387
f 387 388 83
f 387 83 391
f 391 83 78
f 78 83 46
f 46 77 78
f 393 78 77
f 393 77 394
f 393 394 657
f 657 394 395
f 657 395 658
f 347 657 658
f 348 657 347
f 347 346 348
f 345 346 347
f 345 344 346
f 511 346 344
f 343 344 345
f 343 342 344
f 510 344 342
f 341 342 343
f 659 341 343
f 659 343 658
f 398 659 658
f 398 658 399
f 76 398 399
f 76 399 396
f 395 76 396
f 395 77 76
f 45 398 76
f 45 397 398
f 43 397 45
f 44 43 45
f 42 43 44
f 44 432 42
f 44 431 432
f 427 431 44
f 461 431 427
f 456 431 461
f 461 457 456
f 460 457 461
f 461 428 460
f 460 428 429
f 460 429 458
f 458 429 430
f 429 47 430
f 430 47 426
f 81 426 47
f 81 425 426
f 420 425 81
f 420 81 421
f 421 81 82
f 81 80 82
f 80 423 82
f 82 423 424
f 473 424 423
f 473 423 422
f 422 413 473
f 473 413 412
f 412 413 80
f 80 419 412
f 80 418 419
f 79 418 80
f 47 79 80
f 48 79 47
f 48 414 79
f 79 414 415
f 79 415 416
f 416 415 475
f 475 417 416
f 475 418 417
f 473 418 475
f 474 473 475
f 474 475 476
f 475 478 476
f 478 764 476
f 476 764 765
f 764 781 765
f 764 782 781
f 485 782 764
f 485 762 782
f 484 762 485
f 483 484 485
f 483 482 484
f 481 482 483
f 481 480 482
f 528 482 480
f 528 480 529
f 529 480 488
f 479 488 480
f 529 488 530
f 530 868 529
f 868 864 529
f 868 877 864
f 868 876 877
f 837 877 876
f 837 876 838
f 838 876 874
f 875 874 876
f 873 874 875
f 861 873 875
f 861 875 531
f 531 875 868
f 860 873 861
f 840 873 860
f 839 873 840
f 595 839 840
f 595 840 596
f 584 595 596
f 586 595 584
f 584 585 586
f 586 585 587
f 586 587 588
f 588 587 589
f 588 589 590
f 590 836 588
f 588 836 837
f 590 835 836
f 835 862 836
f 836 862 878
f 836 878 877
f 864 878 862
f 862 863 864
f 864 863 526
f 526 527 864
f 864 527 528
f 526 484 527
f 526 525 484
f 524 525 526
f 526 869 524
f 524 869 938
f 524 938 756
f 756 938 939
f 968 939 938
f 966 939 968
f 967 966 968
f 967 968 969
f 1027 967 969
f 1026 967 1027
f 723 1026 1027
f 723 1027 726
f 726 1027 1028
f 726 1028 672
f 672 594 726
f 726 594 727
f 594 124 727
f 727 124 125
f 727 125 728
f 723 727 728
f 723 728 724
f 723 724 675
f 675 724 725
f 125 725 724
f 125 673 725
f 126 673 125
f 126 722 673
f 678 673 722
f 678 722 676
f 676 677 678
f 678 677 719
f 719 1022 678
f 678 1022 1023
f 678 1023 674
f 674 1023 1024
f 965 1024 1023
f 965 1023 963
f 963 1023 956
f 956 1023 957
f 956 957 958
f 958 957 959
f 1021 959 957
f 957 1022 1021
f 1021 961 959
f 960 959 961
f 960 961 953
f 953 961 962
f 961 1019 962
f 1020 1019 961
f 715 1019 1020
f 714 1019 715
f 714 1018 1019
f 1018 955 1019
f 1019 955 954
f 951 954 955
f 953 954 951
f 951 937 953
f 953 937 936
f 744 936 937
f 936 744 942
f 960 936 942
f 960 942 958
f 958 942 941
f 747 941 942
f 747 942 748
f 747 748 746
f 746 750 747
f 747 750 751
f 780 751 750
f 780 750 779
f 766 780 779
f 766 779 767
f 767 779 778
f 767 778 768
f 768 463 767
f 768 465 463
f 464 463 465
f 462 463 464
f 462 471 463
f 462 470 471
f 469 470 462
f 469 462 420
f 469 468 470
f 766 470 468
f 766 468 467
f 472 766 467
f 472 765 766
f 467 469 472
f 472 469 473
f 467 468 469
f 767 471 470
f 464 426 462
f 464 465 458
f 458 465 466
f 458 466 459
f 769 459 466
f 769 457 459
f 770 457 769
f 769 776 770
f 770 776 775
f 733 775 776
f 733 776 731
f 731 732 733
f 733 732 734
f 733 734 735
f 735 734 736
f 735 736 737
f 737 736 738
f 738 736 947
f 947 736 943
f 947 943 945
f 945 946 947
f 946 972 947
f 946 948 972
f 972 948 973
f 972 973 974
f 978 974 973
f 1048 978 973
f 1042 1048 973
f 1010 1048 1042
f 1010 1037 1048
f 1037 1010 706
f 706 704 1037
f 1037 704 702
f 1037 702 1038
f 1038 702 700
f 701 700 702
f 683 700 701
f 701 113 683
f 701 703 113
f 113 703 705
f 113 705 707
f 705 706 707
f 707 706 708
f 707 708 709
f 709 708 710
f 709 710 711
f 115 709 711
f 115 711 117
f 117 711 713
f 117 713 121
f 121 713 718
f 713 714 718
f 718 714 716
f 713 717 714
f 712 717 713
f 712 1016 717
f 712 1015 1016
f 1041 1016 1015
f 1017 1016 1041
f 1041 950 1017
f 1017 950 952
f 950 951 952
f 950 945 951
f 949 945 950
f 945 944 951
f 1017 952 955
f 955 1012 1017
f 717 1017 1012
f 955 1011 1012
f 1011 714 1012
f 1041 949 950
f 948 949 1041
f 1041 1042 948
f 1041 1015 1014
f 710 1014 1015
f 1014 1013 1041
f 708 1013 1014
f 1010 1013 708
f 1013 1010 1041
f 710 1015 712
f 717 1016 1017
f 1012 714 717
f 121 718 716
f 716 721 121
f 715 721 716
f 715 720 721
f 719 720 715
f 121 721 720
f 121 720 126
f 126 720 677
f 711 712 713
f 711 710 712
f 708 1014 710
f 115 707 709
f 113 707 115
f 703 704 705
f 683 113 112
f 683 112 681
f 681 682 683
f 681 680 682
f 679 680 681
f 679 1034 680
f 680 1034 1035
f 1034 1045 1035
f 1033 1045 1034
f 1033 979 1045
f 987 1045 979
f 981 987 979
f 981 986 987
f 982 986 981
f 991 982 981
f 991 981 992
f 993 991 992
f 991 993 994
f 794 994 993
f 794 993 793
f 793 789 794
f 794 789 786
f 788 786 789
f 794 786 795
f 795 786 783
f 795 783 796
f 994 795 796
f 774 994 796
f 774 796 444
f 771 774 444
f 446 771 444
f 446 763 771
f 763 772 771
f 763 775 772
f 735 772 775
f 447 763 446
f 446 443 447
f 447 443 448
f 448 443 453
f 453 443 454
f 453 454 455
f 455 454 456
f 454 432 456
f 454 435 432
f 454 434 435
f 434 42 435
f 434 14 42
f 14 13 42
f 12 13 14
f 14 437 12
f 14 436 437
f 433 436 14
f 436 433 443
f 443 433 434
f 442 436 443
f 441 442 443
f 443 452 441
f 443 451 452
f 445 451 443
f 449 451 445
f 444 449 445
f 444 450 449
f 449 450 451
f 796 451 450
f 452 451 796
f 441 452 783
f 441 783 785
f 784 441 785
f 785 582 784
f 784 582 439
f 27 439 582
f 784 439 442
f 442 439 438
f 438 437 442
f 12 438 439
f 785 583 582
f 787 583 785
f 785 786 787
f 28 582 583
f 442 441 784
f 442 437 436
f 12 437 438
f 433 14 434
f 443 434 454
f 448 453 455
f 448 455 770
f 763 448 770
f 446 445 443
f 447 448 763
f 444 445 446
f 771 772 774
f 772 773 774
f 773 772 737
f 737 988 773
f 773 988 994
f 988 989 994
f 988 972 989
f 988 738 972
f 994 989 990
f 989 974 990
f 990 974 976
f 990 976 991
f 977 976 974
f 975 976 977
f 976 975 982
f 982 975 983
f 982 983 984
f 984 983 1046
f 984 1046 985
f 985 1046 1035
f 1046 1036 1035
f 1046 1040 1036
f 1047 1040 1046
f 1047 1039 1040
f 1039 699 1040
f 1039 700 699
f 1047 1038 1039
f 1048 1038 1047
f 1047 977 1048
f 1046 975 1047
f 1040 699 1036
f 682 1036 699
f 682 1035 1036
f 985 1035 986
f 984 985 982
f 1046 983 975
f 1047 975 977
f 796 450 444
f 773 994 774
f 796 783 452
f 785 783 786
f 793 792 789
f 998 789 792
f 998 792 791
f 999 998 791
f 999 791 1000
f 1004 999 1000
f 997 999 1004
f 1004 1000 1001
f 1001 927 1004
f 1001 929 927
f 928 927 929
f 928 929 930
f 930 929 931
f 1003 931 929
f 925 931 1003
f 1003 1006 925
f 1006 1003 1043
f 1043 1008 1006
f 690 1008 1043
f 690 1043 686
f 691 690 686
f 689 690 691
f 689 688 690
f 687 688 689
f 91 687 689
f 91 696 687
f 94 696 91
f 94 694 696
f 694 695 696
f 696 695 697
f 909 697 695
f 909 695 910
f 924 909 910
f 910 907 924
f 924 907 923
f 924 923 922
f 922 923 903
f 922 903 902
f 901 902 903
f 902 901 904
f 904 901 905
f 901 900 905
f 905 900 896
f 905 896 567
f 567 896 566
f 565 566 896
f 565 8 566
f 564 8 565
f 564 34 8
f 34 35 8
f 34 33 35
f 32 33 34
f 32 31 33
f 30 31 32
f 32 409 30
f 32 408 409
f 407 408 32
f 407 569 408
f 408 569 571
f 569 570 571
f 235 571 570
f 235 570 233
f 233 234 235
f 235 234 236
f 235 236 237
f 1108 237 236
f 1107 237 1108
f 100 1107 1108
f 100 1106 1107
f 88 1106 100
f 88 1105 1106
f 1105 248 1106
f 248 247 1106
f 1106 247 242
f 242 247 240
f 240 241 242
f 240 239 241
f 1107 241 239
f 239 238 1107
f 235 238 239
f 235 239 240
f 1107 242 241
f 240 247 248
f 240 248 244
f 244 248 249
f 244 249 246
f 1105 246 249
f 1105 245 246
f 1104 245 1105
f 1104 250 245
f 245 250 243
f 243 250 251
f 243 251 252
f 252 300 243
f 252 254 300
f 300 254 255
f 300 255 301
f 301 255 257
f 255 256 257
f 257 256 258
f 258 256 1101
f 1101 256 1102
f 1102 86 1101
f 1102 1103 86
f 86 1103 1104
f 1103 251 1104
f 1103 253 251
f 86 1104 88
f 1102 253 1103
f 1101 86 85
f 1101 85 1113
f 1113 85 1114
f 263 1113 1114
f 263 1114 265
f 265 1114 1115
f 265 1115 266
f 266 1115 1116
f 266 1116 268
f 268 1116 1117
f 103 1117 1116
f 111 1117 103
f 111 1118 1117
f 111 1119 1118
f 273 1118 1119
f 273 1119 275
f 1119 1120 275
f 275 1120 1121
f 110 1121 1120
f 1122 1121 110
f 1123 1122 110
f 110 1124 1123
f 281 1123 1124
f 281 1124 282
f 282 1124 1125
f 282 1125 284
f 283 282 284
f 284 291 283
f 284 290 291
f 289 290 284
f 289 288 290
f 294 290 288
f 294 288 286
f 286 130 294
f 294 130 129
f 294 129 295
f 319 294 295
f 319 295 320
f 295 325 320
f 295 324 325
f 201 324 295
f 201 323 324
f 324 323 75
f 75 323 322
f 75 322 37
f 39 75 37
f 39 74 75
f 71 74 39
f 71 292 74
f 71 293 292
f 316 293 71
f 293 316 294
f 294 316 317
f 294 317 296
f 296 317 318
f 71 318 317
f 70 318 71
f 70 315 318
f 69 315 70
f 69 314 315
f 314 296 315
f 314 297 296
f 313 297 314
f 312 297 313
f 313 68 312
f 312 68 62
f 68 63 62
f 67 63 68
f 67 66 63
f 39 66 67
f 67 69 39
f 69 67 313
f 39 304 66
f 66 304 303
f 66 303 302
f 302 303 301
f 299 302 301
f 307 302 299
f 299 311 307
f 65 307 311
f 65 311 310
f 65 310 64
f 64 310 309
f 64 309 62
f 62 309 308
f 308 309 298
f 308 298 312
f 298 309 310
f 298 310 299
f 299 264 298
f 298 264 267
f 264 266 267
f 298 267 270
f 272 298 270
f 272 297 298
f 274 297 272
f 274 276 297
f 274 275 276
f 276 275 277
f 276 277 278
f 278 277 279
f 278 279 280
f 279 281 280
f 296 278 280
f 296 280 283
f 277 1122 279
f 297 276 278
f 272 273 274
f 272 271 273
f 270 271 272
f 270 269 271
f 269 1118 271
f 267 269 270
f 267 268 269
f 299 262 264
f 261 262 299
f 261 260 262
f 259 260 261
f 259 258 260
f 261 301 259
f 262 260 263
f 262 263 264
f 64 63 65
f 63 307 65
f 299 310 311
f 63 302 307
f 299 301 261
f 301 303 304
f 39 305 304
f 306 305 39
f 300 305 306
f 411 300 306
f 6 411 306
f 6 410 411
f 410 572 411
f 409 572 410
f 409 571 572
f 240 572 571
f 30 410 6
f 6 5 30
f 4 5 6
f 6 60 4
f 6 59 60
f 228 60 59
f 228 59 186
f 186 188 228
f 228 188 193
f 173 193 188
f 171 193 173
f 171 180 193
f 170 180 171
f 170 179 180
f 180 179 192
f 178 192 179
f 177 178 179
f 151 178 177
f 151 548 178
f 151 185 548
f 548 185 184
f 548 184 549
f 184 182 549
f 183 182 184
f 181 182 183
f 183 1157 181
f 181 1157 1158
f 101 1158 1157
f 101 1159 1158
f 1160 1159 101
f 543 1159 1160
f 543 1160 542
f 542 1160 1161
f 542 1161 1154
f 1154 540 542
f 542 540 541
f 540 539 541
f 538 539 540
f 644 538 540
f 644 536 538
f 536 537 538
f 537 536 1049
f 1085 537 1049
f 1052 537 1085
f 1085 1072 1052
f 1052 1072 1056
f 1072 1057 1056
f 1054 1056 1057
f 1054 1057 1058
f 1058 1057 1059
f 1058 1059 554
f 553 1058 554
f 551 1058 553
f 552 551 553
f 9 552 553
f 36 552 9
f 36 406 552
f 35 406 36
f 35 405 406
f 35 404 405
f 404 549 405
f 405 549 551
f 549 550 551
f 550 1054 551
f 550 544 1054
f 546 1054 544
f 544 545 546
f 544 181 545
f 546 545 543
f 546 543 547
f 547 1053 546
f 547 1052 1053
f 547 541 1052
f 547 543 541
f 546 1053 1054
f 182 544 550
f 405 551 406
f 8 36 9
f 7 8 9
f 9 19 7
f 7 19 20
f 19 554 20
f 9 553 19
f 552 406 551
f 19 553 554
f 551 1054 1058
f 1053 1056 1054
f 1053 1052 1056
f 1085 1086 1072
f 1050 1086 1085
f 1050 1051 1086
f 1050 638 1051
f 638 1070 1051
f 1051 1070 1082
f 1082 1070 815
f 640 815 1070
f 642 815 640
f 641 642 640
f 641 636 642
f 637 636 641
f 641 95 637
f 641 97 95
f 639 97 641
f 97 639 645
f 97 645 99
f 99 645 644
f 638 644 645
f 643 644 638
f 99 644 1154
f 638 645 639
f 638 639 640
f 95 635 637
f 95 633 635
f 633 634 635
f 635 634 636
f 634 806 636
f 634 805 806
f 632 805 634
f 632 804 805
f 629 804 632
f 631 629 632
f 631 632 633
f 90 631 633
f 630 631 90
f 90 628 630
f 628 629 630
f 628 627 629
f 626 627 628
f 626 625 627
f 623 625 626
f 93 623 626
f 93 626 90
f 622 623 93
f 93 620 622
f 93 602 620
f 602 619 620
f 602 618 619
f 604 618 602
f 602 603 604
f 603 617 604
f 849 604 617
f 849 617 850
f 849 850 1030
f 1030 850 851
f 1030 851 852
f 851 614 852
f 852 614 848
f 612 848 614
f 613 612 614
f 611 612 613
f 611 610 612
f 609 610 611
f 609 611 116
f 116 123 609
f 123 607 609
f 123 605 607
f 122 605 123
f 122 601 605
f 601 600 605
f 605 600 606
f 600 843 606
f 843 844 606
f 843 883 844
f 844 883 881
f 882 881 883
f 880 881 882
f 882 867 880
f 882 522 867
f 522 523 867
f 522 502 523
f 522 496 502
f 495 502 496
f 495 501 502
f 495 496 492
f 492 496 497
f 522 497 496
f 535 497 522
f 879 535 522
f 534 535 879
f 861 534 879
f 861 879 859
f 879 884 859
f 842 859 884
f 842 884 843
f 841 859 842
f 841 860 859
f 598 841 842
f 596 841 598
f 597 596 598
f 597 598 599
f 122 597 599
f 122 584 597
f 128 584 122
f 599 598 600
f 598 842 600
f 879 883 884
f 533 534 861
f 534 493 535
f 535 493 497
f 523 502 501
f 523 501 521
f 521 501 499
f 521 499 498
f 498 499 500
f 498 500 503
f 518 498 503
f 518 503 505
f 518 505 519
f 519 505 507
f 519 507 520
f 520 507 813
f 813 809 520
f 813 807 809
f 812 807 813
f 813 819 812
f 812 819 822
f 812 822 810
f 810 811 812
f 830 811 810
f 810 829 830
f 830 829 828
f 830 828 831
f 831 828 827
f 816 827 828
f 816 828 817
f 816 817 818
f 825 816 818
f 825 818 821
f 821 818 820
f 821 820 665
f 665 820 668
f 667 668 820
f 667 820 666
f 666 333 667
f 666 331 333
f 329 331 666
f 329 330 331
f 331 330 332
f 335 332 330
f 335 330 336
f 334 332 335
f 334 335 400
f 400 335 651
f 671 332 334
f 671 663 332
f 333 332 663
f 669 663 671
f 669 664 663
f 662 664 669
f 662 665 664
f 670 665 662
f 662 1096 670
f 670 1096 1097
f 670 1097 1069
f 823 670 1069
f 823 1069 824
f 821 823 824
f 1069 826 824
f 816 824 826
f 1069 833 826
f 832 826 833
f 832 827 826
f 833 856 832
f 856 803 832
f 856 804 803
f 832 803 802
f 832 802 831
f 831 802 853
f 801 853 802
f 625 801 802
f 624 801 625
f 624 800 801
f 830 801 800
f 621 800 624
f 621 624 623
f 621 799 800
f 854 800 799
f 854 799 855
f 807 854 855
f 854 807 811
f 855 797 807
f 807 797 858
f 858 797 1030
f 866 858 1030
f 866 1030 885
f 885 1030 846
f 885 846 886
f 846 887 886
f 846 880 887
f 845 880 846
f 608 845 846
f 606 845 608
f 607 606 608
f 608 846 610
f 610 846 847
f 867 886 887
f 865 886 867
f 867 518 865
f 867 521 518
f 865 885 886
f 1030 847 846
f 1030 848 847
f 866 885 865
f 865 809 866
f 865 519 809
f 866 809 808
f 808 858 866
f 807 858 808
f 855 798 797
f 618 797 798
f 855 799 798
f 619 798 799
f 811 800 854
f 619 799 621
f 830 853 801
f 627 802 803
f 833 804 856
f 857 804 833
f 1067 857 833
f 1067 833 1068
f 1098 1067 1068
f 1098 1068 1099
f 1078 1098 1099
f 1087 1098 1078
f 1084 1087 1078
f 1084 1078 1075
f 1075 1089 1084
f 1075 1074 1089
f 1086 1084 1089
f 1090 1084 1086
f 1090 1082 1084
f 1082 1083 1084
f 1086 1082 1090
f 1075 1078 1080
f 1078 1079 1080
f 1080 1079 1081
f 1100 1081 1079
f 1099 1100 1079
f 1096 1100 1099
f 1096 1091 1100
f 1094 1091 1096
f 1094 650 1091
f 1094 661 650
f 650 661 660
f 650 660 1092
f 1092 660 669
f 1092 669 1093
f 649 1092 1093
f 1092 649 650
f 649 23 650
f 660 661 662
f 661 1094 662
f 23 1091 650
f 23 1061 1091
f 1088 1100 1091
f 1075 1080 1076
f 1083 1087 1084
f 1083 1066 1087
f 1083 815 1066
f 815 814 1066
f 1066 814 806
f 1066 806 857
f 1087 1066 1098
f 1099 1079 1078
f 1099 1068 1069
f 1066 1067 1098
f 1066 857 1067
f 1068 833 1069
f 670 823 821
f 1099 1069 1097
f 1099 1097 1096
f 662 1094 1096
f 660 662 669
f 663 664 665
f 1093 669 671
f 1095 671 334
f 329 508 330
f 330 508 509
f 330 509 337
f 508 506 509
f 820 506 508
f 666 508 329
f 331 332 333
f 667 333 663
f 820 508 666
f 667 663 668
f 668 663 665
f 821 665 670
f 818 506 820
f 818 822 506
f 821 824 825
f 824 816 825
f 817 822 818
f 826 827 816
f 831 827 832
f 831 853 830
f 829 817 828
f 810 817 829
f 811 830 800
f 810 822 817
f 819 506 822
f 819 507 506
f 812 811 807
f 807 808 809
f 813 507 819
f 809 519 520
f 505 506 507
f 505 504 506
f 865 518 519
f 503 504 505
f 521 498 518
f 500 499 501
f 867 523 521
f 879 522 882
f 867 887 880
f 845 881 880
f 882 883 879
f 844 881 845
f 843 884 883
f 606 844 845
f 600 842 843
f 599 600 601
f 599 601 122
f 605 606 607
f 607 608 609
f 609 608 610
f 610 847 612
f 116 611 613
f 116 613 114
f 114 613 615
f 114 615 603
f 615 616 603
f 615 614 616
f 613 614 615
f 612 847 848
f 851 616 614
f 852 848 1030
f 850 616 851
f 1030 797 849
f 850 617 616
f 797 604 849
f 603 616 617
f 114 603 602
f 604 797 618
f 618 798 619
f 620 619 621
f 114 602 93
f 620 621 622
f 622 621 623
f 623 624 625
f 625 802 627
f 627 803 629
f 90 626 628
f 630 629 631
f 629 803 804
f 857 805 804
f 806 805 857
f 636 806 814
f 633 632 634
f 90 633 95
f 635 636 637
f 636 814 642
f 640 639 641
f 642 814 815
f 1082 815 1083
f 640 1070 638
f 1050 643 638
f 1049 643 1050
f 1086 1051 1082
f 1086 1089 1072
f 1052 539 537
f 1085 1049 1050
f 1049 536 643
f 643 536 644
f 538 537 539
f 1052 541 539
f 644 540 1154
f 1154 1161 99
f 99 1161 101
f 542 541 543
f 545 1159 543
f 101 1161 1160
f 545 1158 1159
f 1156 101 1157
f 1156 102 101
f 1155 102 1156
f 1153 102 1155
f 1153 89 102
f 1152 89 1153
f 150 1152 1153
f 149 1152 150
f 149 150 151
f 149 1151 1152
f 177 1151 149
f 177 1150 1151
f 170 1150 177
f 170 1149 1150
f 1150 1149 106
f 87 1150 106
f 89 1150 87
f 1149 1148 106
f 172 1148 1149
f 1147 1148 172
f 174 1147 172
f 174 1146 1147
f 107 1147 1146
f 107 1146 1145
f 108 107 1145
f 1145 1144 108
f 108 1144 1143
f 108 1143 118
f 118 1143 1142
f 157 1142 1143
f 157 1143 164
f 164 165 157
f 157 165 166
f 157 166 158
f 157 158 159
f 159 158 160
f 159 160 156
f 156 160 161
f 160 196 161
f 196 155 161
f 196 152 155
f 191 152 196
f 191 143 152
f 152 143 142
f 141 142 143
f 141 1137 142
f 142 1137 153
f 153 1137 1138
f 119 1138 1137
f 119 1137 1136
f 119 1136 105
f 105 1136 1135
f 145 1135 1136
f 145 1136 141
f 1134 1135 145
f 1134 145 1133
f 1133 145 144
f 1133 144 139
f 140 139 144
f 133 139 140
f 133 138 139
f 132 138 133
f 132 1132 138
f 137 1132 132
f 137 1131 1132
f 136 1131 137
f 136 1130 1131
f 120 1131 1130
f 120 1130 1129
f 120 1129 109
f 109 1129 1128
f 285 1128 1129
f 287 1128 285
f 287 1127 1128
f 289 1127 287
f 289 1126 1127
f 1127 1126 109
f 109 1126 1125
f 109 1125 110
f 285 286 287
f 285 1129 131
f 131 130 285
f 131 1129 136
f 135 131 136
f 129 131 135
f 135 136 134
f 295 135 134
f 109 1128 1127
f 1129 1130 136
f 134 136 137
f 120 1132 1131
f 104 1132 120
f 104 1133 1132
f 104 105 1133
f 134 137 132
f 138 1132 1133
f 132 133 134
f 201 134 133
f 201 133 197
f 197 148 201
f 201 148 202
f 201 202 200
f 200 202 203
f 200 203 198
f 49 198 203
f 49 203 208
f 50 49 208
f 6 49 50
f 50 51 6
f 6 51 52
f 6 52 40
f 6 40 41
f 40 189 41
f 41 189 212
f 41 212 211
f 41 211 72
f 72 211 210
f 196 210 211
f 209 210 196
f 73 210 209
f 73 209 213
f 73 213 55
f 6 73 55
f 6 72 73
f 54 6 55
f 55 224 54
f 54 224 223
f 54 223 222
f 222 223 195
f 195 221 222
f 195 220 221
f 221 220 54
f 54 220 219
f 54 219 53
f 53 219 218
f 218 219 194
f 194 217 218
f 194 216 217
f 215 216 194
f 216 215 53
f 53 215 214
f 53 214 227
f 194 227 214
f 194 226 227
f 56 227 226
f 56 226 57
f 57 226 225
f 57 225 187
f 187 225 188
f 187 58 57
f 6 57 58
f 186 58 187
f 188 225 226
f 6 56 57
f 53 56 6
f 188 226 194
f 194 168 188
f 188 168 176
f 167 176 168
f 167 168 162
f 162 168 169
f 162 169 163
f 194 163 169
f 194 165 163
f 195 165 194
f 162 163 164
f 164 1144 162
f 162 1145 167
f 167 175 176
f 174 175 167
f 174 173 175
f 188 176 175
f 194 169 168
f 53 227 56
f 214 215 194
f 217 216 53
f 53 218 217
f 194 219 220
f 194 220 195
f 222 221 54
f 195 223 224
f 195 224 213
f 53 6 54
f 55 213 224
f 213 209 195
f 195 209 196
f 72 210 73
f 191 211 212
f 191 212 189
f 189 190 191
f 190 204 191
f 191 204 206
f 204 205 206
f 51 205 204
f 206 205 207
f 50 207 205
f 206 207 202
f 146 206 202
f 146 202 147
f 145 146 147
f 143 146 145
f 202 207 208
f 191 206 146
f 52 204 190
f 40 190 189
f 41 72 6
f 52 190 40
f 51 204 52
f 50 205 51
f 6 38 49
f 39 38 6
f 208 207 50
f 38 198 49
f 38 199 198
f 37 199 38
f 37 321 199
f 200 199 321
f 321 322 200
f 198 199 200
f 202 208 203
f 147 202 148
f 144 147 148
f 197 140 148
f 197 133 140
f 144 148 140
f 138 1133 139
f 145 147 144
f 1133 105 1134
f 105 1135 1134
f 119 1139 1138
f 154 1138 1139
f 154 1139 156
f 156 1139 1140
f 118 1140 1139
f 1141 1140 118
f 1140 1141 159
f 159 1141 1142
f 155 154 156
f 118 1139 119
f 153 1138 154
f 152 153 154
f 141 1136 1137
f 141 143 145
f 142 153 152
f 146 143 191
f 196 211 191
f 152 154 155
f 195 196 160
f 156 161 155
f 156 1140 159
f 160 158 195
f 195 158 166
f 195 166 165
f 164 163 165
f 159 1142 157
f 118 1142 1141
f 164 1143 1144
f 162 1144 1145
f 167 1145 1146
f 106 1147 107
f 167 1146 174
f 172 173 174
f 106 1148 1147
f 172 1149 170
f 89 1151 1150
f 1152 1151 89
f 1153 1155 150
f 150 1155 1156
f 150 1156 183
f 181 1158 545
f 183 1156 1157
f 182 181 544
f 183 184 150
f 549 182 550
f 404 548 549
f 403 548 404
f 403 230 548
f 232 230 403
f 231 230 232
f 229 230 231
f 231 4 229
f 229 192 230
f 193 192 229
f 232 5 231
f 5 232 31
f 31 232 403
f 230 192 548
f 33 403 404
f 150 184 185
f 150 185 151
f 149 151 177
f 178 548 192
f 177 179 170
f 170 171 172
f 193 180 192
f 172 171 173
f 173 188 175
f 228 193 229
f 186 187 188
f 186 59 58
f 229 60 228
f 58 59 6
f 229 4 60
f 231 5 4
f 411 572 300
f 39 6 306
f 300 304 305
f 66 302 63
f 62 63 64
f 62 308 312
f 313 67 68
f 312 298 297
f 297 278 296
f 313 314 69
f 39 69 70
f 296 318 315
f 71 317 316
f 292 293 294
f 74 292 319
f 39 70 71
f 325 75 74
f 37 38 39
f 37 322 321
f 200 322 323
f 200 323 201
f 295 134 201
f 324 75 325
f 325 74 320
f 74 319 320
f 292 294 319
f 295 129 135
f 129 130 131
f 285 130 286
f 287 286 288
f 296 290 294
f 287 288 289
f 284 1126 289
f 296 291 290
f 283 291 296
f 280 282 283
f 284 1125 1126
f 280 281 282
f 279 1123 281
f 110 1125 1124
f 279 1122 1123
f 277 1121 1122
f 110 1120 111
f 275 1121 277
f 274 273 275
f 271 1118 273
f 111 1120 1119
f 269 1117 1118
f 268 1117 269
f 266 268 267
f 103 1116 1115
f 264 265 266
f 1114 103 1115
f 263 265 264
f 260 1113 263
f 1114 85 103
f 260 1101 1113
f 1102 256 253
f 258 1101 260
f 257 258 259
f 255 253 256
f 301 257 259
f 301 304 300
f 254 253 255
f 252 253 254
f 243 300 572
f 243 572 244
f 252 251 253
f 243 244 245
f 251 250 1104
f 245 244 246
f 244 572 240
f 1105 249 248
f 88 1104 1105
f 1106 242 1107
f 1109 100 1108
f 1108 556 1109
f 1109 556 557
f 556 233 557
f 557 233 558
f 558 233 897
f 560 558 897
f 897 562 560
f 561 560 562
f 561 562 563
f 563 562 898
f 563 898 575
f 575 576 563
f 575 574 576
f 573 574 575
f 907 574 573
f 695 574 907
f 899 907 573
f 575 899 573
f 693 576 574
f 693 574 694
f 561 576 693
f 1112 561 693
f 96 1112 693
f 96 693 94
f 1111 1112 96
f 96 98 1111
f 1111 98 1110
f 1110 559 1111
f 1111 559 561
f 1110 557 559
f 1110 98 1109
f 1111 561 1112
f 575 898 899
f 898 923 899
f 563 576 561
f 559 560 561
f 897 898 562
f 900 898 897
f 897 570 900
f 559 558 560
f 557 558 559
f 1109 557 1110
f 1108 234 556
f 1109 98 100
f 1107 238 237
f 237 238 235
f 236 234 1108
f 556 234 233
f 897 233 570
f 240 571 235
f 900 570 569
f 896 569 407
f 896 407 564
f 408 571 409
f 30 409 410
f 30 5 31
f 31 403 33
f 32 34 407
f 33 404 35
f 8 35 36
f 407 34 564
f 566 8 7
f 565 896 564
f 566 7 567
f 567 7 2
f 567 2 568
f 906 567 568
f 906 905 567
f 900 569 896
f 901 898 900
f 903 898 901
f 923 898 903
f 899 923 907
f 924 908 909
f 925 908 924
f 925 1009 908
f 925 1008 1009
f 1008 698 1009
f 1009 698 697
f 687 697 698
f 1008 688 698
f 1009 697 908
f 932 925 924
f 932 924 935
f 910 695 907
f 908 697 909
f 694 574 695
f 693 694 94
f 696 697 687
f 687 698 688
f 689 691 91
f 91 691 692
f 91 692 92
f 92 692 685
f 692 686 685
f 679 685 686
f 686 1033 679
f 686 1032 1033
f 1032 1044 1033
f 1033 1044 980
f 1044 1007 980
f 980 1007 1000
f 980 1000 981
f 1044 1002 1007
f 1003 1002 1044
f 1001 1002 1003
f 1001 1007 1002
f 1043 1044 1032
f 679 684 685
f 92 685 684
f 681 92 684
f 691 686 692
f 686 1043 1032
f 688 1008 690
f 1043 1003 1044
f 1006 1008 925
f 931 925 932
f 930 931 932
f 926 927 928
f 1003 929 1001
f 1001 1000 1007
f 1000 791 992
f 793 992 791
f 997 998 999
f 997 995 998
f 996 995 997
f 995 789 998
f 995 790 789
f 912 790 995
f 912 995 911
f 580 912 911
f 791 792 793
f 795 994 794
f 994 990 991
f 793 993 992
f 981 1000 992
f 976 982 991
f 982 985 986
f 979 980 981
f 986 1045 987
f 980 979 1033
f 986 1035 1045
f 679 1033 1034
f 681 684 679
f 680 1035 682
f 682 699 683
f 681 112 92
f 683 699 700
f 701 702 703
f 1038 700 1039
f 703 702 704
f 705 704 706
f 708 706 1010
f 1048 1037 1038
f 1041 1010 1042
f 1048 977 978
f 977 974 978
f 989 972 974
f 1042 973 948
f 948 946 949
f 949 946 945
f 945 943 944
f 943 732 944
f 944 732 730
f 944 730 937
f 937 730 741
f 730 740 741
f 740 742 741
f 741 742 743
f 778 743 742
f 778 745 743
f 744 743 745
f 744 745 746
f 779 746 745
f 746 749 744
f 778 742 777
f 741 743 744
f 777 742 740
f 777 740 739
f 777 739 776
f 776 739 729
f 729 739 730
f 729 730 731
f 730 739 740
f 947 972 738
f 737 738 988
f 737 772 735
f 736 734 943
f 943 734 732
f 731 730 732
f 776 729 731
f 735 775 733
f 770 775 763
f 769 777 776
f 768 777 769
f 769 466 768
f 768 466 465
f 767 463 471
f 768 778 777
f 779 745 778
f 767 470 766
f 765 780 766
f 780 753 751
f 751 753 752
f 752 753 754
f 752 754 755
f 755 941 752
f 755 940 941
f 964 941 940
f 964 940 966
f 965 964 966
f 939 940 755
f 755 757 939
f 939 757 759
f 757 758 759
f 759 758 760
f 759 760 756
f 756 760 761
f 756 761 525
f 525 761 762
f 782 761 760
f 782 760 758
f 757 754 758
f 781 758 754
f 755 754 757
f 781 754 753
f 781 753 780
f 747 751 752
f 779 750 746
f 746 748 749
f 942 749 748
f 752 941 747
f 958 941 964
f 963 958 964
f 942 744 749
f 937 741 744
f 951 944 937
f 951 955 952
f 1018 1011 955
f 1011 1018 714
f 714 715 716
f 715 1020 719
f 1020 1021 719
f 1019 954 962
f 953 962 954
f 953 936 960
f 1020 961 1021
f 958 959 960
f 956 958 963
f 963 964 965
f 967 1024 965
f 967 1025 1024
f 1024 1025 675
f 675 1025 1026
f 674 1024 675
f 673 674 675
f 957 1023 1022
f 719 1021 1022
f 719 677 720
f 126 677 676
f 674 673 678
f 676 722 126
f 675 725 673
f 728 125 724
f 593 124 594
f 592 593 594
f 592 591 593
f 590 591 592
f 590 592 834
f 592 1029 834
f 1031 834 1029
f 1029 870 1031
f 862 1031 870
f 862 870 871
f 971 871 870
f 971 938 871
f 938 872 871
f 863 871 872
f 863 872 869
f 970 971 870
f 970 968 971
f 1029 970 870
f 1028 970 1029
f 1028 969 970
f 862 834 1031
f 672 1029 592
f 591 127 593
f 591 589 127
f 593 127 124
f 672 592 594
f 672 1028 1029
f 726 727 723
f 675 1026 723
f 1026 1025 967
f 1027 969 1028
f 969 968 970
f 965 966 967
f 966 940 939
f 968 938 971
f 939 759 756
f 938 869 872
f 525 524 756
f 526 863 869
f 862 871 863
f 835 834 862
f 834 835 590
f 590 589 591
f 589 587 127
f 588 837 586
f 127 587 585
f 127 585 128
f 128 585 584
f 584 596 597
f 596 840 841
f 586 839 595
f 586 838 839
f 840 860 841
f 859 860 861
f 839 874 873
f 838 874 839
f 837 838 586
f 836 877 837
f 875 876 868
f 864 877 878
f 531 868 530
f 530 488 487
f 864 528 529
f 527 482 528
f 479 480 481
f 517 481 483
f 517 483 364
f 527 484 482
f 364 483 485
f 525 762 484
f 762 761 782
f 440 485 764
f 782 758 781
f 765 781 780
f 440 764 478
f 476 765 474
f 474 765 472
f 472 473 474
f 416 417 79
f 47 46 48
f 79 417 418
f 473 419 418
f 412 419 473
f 413 422 80
f 469 424 473
f 469 421 424
f 80 422 423
f 82 424 421
f 420 421 469
f 462 425 420
f 462 426 425
f 47 80 81
f 464 430 426
f 429 46 47
f 458 430 464
f 458 459 460
f 428 46 429
f 428 44 46
f 460 459 457
f 455 456 457
f 770 455 457
f 461 427 428
f 427 44 428
f 456 432 431
f 435 42 432
f 44 45 46
f 45 76 46
f 658 396 399
f 397 659 398
f 341 340 342
f 658 343 345
f 348 346 349
f 348 349 350
f 348 350 657
f 657 350 656
f 350 353 656
f 656 353 355
f 353 354 355
f 353 352 354
f 514 354 352
f 355 354 356
f 655 355 356
f 655 356 358
f 356 357 358
f 362 358 357
f 361 358 362
f 361 360 358
f 654 358 360
f 654 360 368
f 359 368 360
f 359 367 368
f 652 368 367
f 654 368 652
f 359 360 361
f 516 359 361
f 513 361 362
f 516 361 513
f 513 362 357
f 513 357 354
f 513 354 514
f 356 354 357
f 656 355 655
f 391 656 655
f 392 656 391
f 393 656 392
f 350 352 353
f 658 345 347
f 658 395 396
f 657 656 393
f 394 77 395
f 392 78 393
f 46 76 77
f 46 83 84
f 46 84 61
f 391 78 392
f 391 655 387
f 83 388 389
f 655 358 654
f 83 389 84
f 384 390 654
f 654 385 384
f 84 386 369
f 376 370 654
f 654 377 376
f 374 375 84
f 84 379 61
f 652 378 654
f 61 379 380
f 652 382 381
f 383 382 652
f 48 46 61
f 48 372 373
f 383 652 371
f 652 367 328
f 366 328 367
f 372 653 577
f 372 577 373
f 48 373 414
f 475 415 414
f 475 440 478
f 327 326 477
f 364 485 440
f 365 326 328
f 364 363 517
f 515 481 517
f 365 328 366
f 366 367 359
f 515 479 481
f 513 486 516
f 513 489 486
f 479 487 488
f 530 487 531
f 532 861 531
f 486 490 491
f 532 533 861
f 533 494 534
f 489 490 486
f 534 494 493
f 492 497 493
f 514 489 513
f 350 351 352
f 349 351 350
f 349 346 511
f 512 495 492
f 500 501 495
f 511 344 510
f 503 500 504
f 509 506 504
f 510 342 340
f 338 340 341
f 509 339 337
f 336 330 337
f 335 336 651
f 338 341 659
f 402 659 397
f 43 402 397
f 42 13 43
f 400 651 401
f 1095 334 400
f 1093 671 1095
f 1093 648 649
f 648 25 649
f 646 11 647
f 12 11 13
f 12 439 27
f 27 582 28
f 648 10 25
f 28 583 578
f 787 578 583
f 787 786 788
f 788 789 790
f 580 790 912
f 29 579 26
f 911 581 580
f 25 29 26
f 649 25 23
f 892 919 893
f 919 917 893
f 919 918 917
f 24 890 891
f 888 920 889
f 24 581 913
f 911 913 581
f 911 995 996
f 997 1004 996
f 1004 927 926
f 928 916 926
f 914 1005 915
f 888 914 920
f 889 920 921
f 928 933 916
f 919 921 934
f 930 933 928
f 935 930 932
f 935 924 922
f 934 918 919
f 904 922 902
f 904 905 906
f 894 917 918
f 906 568 895
f 1 895 568
f 893 917 894
f 15 892 893
f 1063 17 16
f 15 22 23
f 22 1061 23
f 1088 1091 1061
f 1081 1100 1088
f 1076 1080 1081
f 1075 1076 1077
f 1062 17 1063
f 1077 1074 1075
f 1063 1064 1073
f 1071 1064 1065
f 1072 1089 1074
f 1072 1059 1057
f 554 1059 1060
f 1055 1071 1065
f 20 554 555
f 7 20 2
f 1065 3 21
f 568 2 1
f 3 18 1

