# https://github.com/mikedh/trimesh
v 0.01087814 -0.02271019 -0.02250925
v 0.01613420 -0.02271019 -0.01909680
v 0.02476910 -0.02271019 0.00338998
v 0.02314788 -0.02271019 0.00944330
v -0.00747883 -0.02271019 -0.02385513
v -0.00131133 -0.02271019 -0.02496559
v 0.02037649 -0.02271018 -0.01448442
v 0.02333846 -0.02271018 -0.00896194
v 0.02483398 -0.02271018 -0.00287635
v 0.00443000 -0.02271019 0.02460437
v 0.02007218 -0.02271019 0.01490327
v 0.01573530 -0.02271019 0.01942680
v 0.01040969 -0.02271019 0.02272968
v 0.00493855 -0.02271019 -0.02450736
v -0.00182803 -0.02271018 0.02493308
v -0.00797120 -0.02271018 0.02369515
v -0.01361351 -0.02271018 0.02096836
v -0.01840044 -0.02271019 0.01692406
v -0.02203120 -0.02271019 0.01181636
v -0.02427766 -0.02271019 0.00596619
v -0.02499866 -0.02271019 -0.00025886
v -0.02414891 -0.02271018 -0.00646764
v -0.02178179 -0.02271018 -0.01227003
v -0.01804604 -0.02271018 -0.01730146
v -0.01317639 -0.02271019 -0.02124577
v -0.00896195 -0.02271018 -0.02333846
v -0.01317640 -0.02047599 -0.02124577
v -0.00896194 -0.02047599 -0.02333846
v -0.00747882 -0.02047599 -0.02385513
v -0.00131133 -0.02047598 -0.02496559
v 0.00493855 -0.02047598 -0.02450736
v 0.01087813 -0.02047598 -0.02250925
v 0.01613420 -0.02047599 -0.01909680
v 0.02037649 -0.02047598 -0.01448442
v 0.02333846 -0.02047599 -0.00896194
v 0.02483398 -0.02047598 -0.00287635
v 0.02476910 -0.02047599 0.00338998
v 0.02314787 -0.02047598 0.00944330
v 0.02007219 -0.02047598 0.01490327
v 0.01573529 -0.02047598 0.01942680
v 0.01040969 -0.02047599 0.02272968
v 0.00443001 -0.02047599 0.02460437
v -0.00182802 -0.02047599 0.02493308
v -0.00797120 -0.02047599 0.02369515
v -0.01361351 -0.02047599 0.02096836
v -0.01840044 -0.02047598 0.01692406
v -0.02203119 -0.02047599 0.01181636
v -0.02427765 -0.02047599 0.00596619
v -0.02499866 -0.02047598 -0.00025886
v -0.02414890 -0.02047599 -0.00646764
v -0.02178179 -0.02047599 -0.01227003
v -0.01804604 -0.02047599 -0.01730146
f 27 28 26
f 26 28 5
f 28 29 5
f 5 29 30
f 5 30 6
f 6 30 31
f 6 31 14
f 14 31 32
f 14 32 1
f 1 32 33
f 1 33 2
f 2 33 34
f 2 34 7
f 7 34 35
f 7 35 8
f 8 35 36
f 8 36 9
f 9 36 37
f 9 37 3
f 3 37 38
f 3 38 4
f 4 38 39
f 4 39 11
f 11 39 40
f 11 40 12
f 12 40 41
f 12 41 13
f 13 41 42
f 13 42 10
f 10 42 43
f 10 43 15
f 15 43 44
f 15 44 16
f 16 44 45
f 16 45 17
f 17 45 46
f 17 46 18
f 18 46 47
f 18 47 19
f 19 47 48
f 19 48 20
f 20 48 49
f 20 49 21
f 21 49 50
f 21 50 22
f 22 50 51
f 22 51 23
f 23 51 52
f 23 52 24
f 24 52 27
f 24 27 25
f 25 27 26

