# https://github.com/mikedh/trimesh
v 0.02998729 -0.05200005 -0.04039798
v 0.02984586 -0.05687054 -0.03959762
v 0.02943690 -0.06121323 -0.03728331
v 0.02880473 -0.06455753 -0.03370584
v 0.02801785 -0.06654102 -0.02925288
v 0.02716154 -0.06694876 -0.02440699
v 0.02632858 -0.06573658 -0.01969328
v 0.02560925 -0.06303583 -0.01562257
v 0.02508149 -0.05913917 -0.01263597
v 0.02480249 -0.05446887 -0.01105713
v 0.02476690 -0.05199995 -0.01085568
v 0.02480249 -0.04953103 -0.01105715
v 0.02508150 -0.04486075 -0.01263602
v 0.02560926 -0.04096411 -0.01562264
v 0.02632860 -0.03826338 -0.01969337
v 0.02716156 -0.03705123 -0.02440709
v 0.02801787 -0.03745901 -0.02925298
v 0.02880475 -0.03944253 -0.03370592
v 0.02943691 -0.04278685 -0.03728337
v 0.02984587 -0.04712955 -0.03959765
v 0.02737709 -0.05200000 -0.02562683
f 11 10 21
f 10 9 21
f 21 9 8
f 21 8 7
f 7 6 21
f 21 6 5
f 21 5 4
f 4 3 21
f 21 3 2
f 21 2 1
f 1 20 21
f 21 20 19
f 21 19 18
f 18 17 21
f 21 17 16
f 21 16 15
f 15 14 21
f 21 14 13
f 21 13 12
f 11 21 12

