# Exported from Houdini Python SOP
# Lines are exported as OBJ 'l' elements (not faces)
v -0.02238509990274906 0.19778956472873688 0.0
v -0.022467108443379402 0.1957940310239792 0.0
v -0.022549116984009743 0.1937984824180603 0.0
v -0.022631125524640083 0.1918029487133026 0.0
v -0.022713134065270424 0.18980740010738373 0.0
v -0.022795142605900764 0.18781186640262604 0.0
v -0.022877151146531105 0.18581633269786835 0.0
v -0.022959159687161446 0.18382078409194946 0.0
v -0.023041168227791786 0.18182525038719177 0.0
v -0.023123176768422127 0.1798297017812729 0.0
v -0.023205185309052467 0.1778341680765152 0.0
v -0.023287193849682808 0.1758386343717575 0.0
v -0.02336920239031315 0.17384308576583862 0.0
v -0.02345121093094349 0.17184755206108093 0.0
v -0.023478852584958076 0.16985127329826355 0.0
v -0.02345111593604088 0.16785423457622528 0.0
v -0.02342337928712368 0.1658572107553482 0.0
v -0.023395642638206482 0.16386017203330994 0.0
v -0.023367905989289284 0.16186314821243286 0.0
v -0.023340169340372086 0.1598661094903946 0.0
v -0.023312432691454887 0.15786908566951752 0.0
v -0.02328469604253769 0.15587204694747925 0.0
v -0.02325695939362049 0.15387502312660217 0.0
v -0.023229222744703293 0.1518779844045639 0.0
v -0.023201487958431244 0.14988096058368683 0.0
v -0.023173751309514046 0.14788392186164856 0.0
v -0.023146014660596848 0.14588689804077148 0.0
v -0.023123428225517273 0.14388982951641083 0.0
v -0.023123428225517273 0.14189259707927704 0.0
v -0.023123428225517273 0.13989537954330444 0.0
v -0.023123428225517273 0.13789816200733185 0.0
v -0.023123428225517273 0.13590092957019806 0.0
v -0.023123428225517273 0.13390369713306427 0.0
v -0.023123428225517273 0.13190649449825287 0.0
v -0.023123428225517273 0.12990926206111908 0.0
v -0.023123428225517273 0.1279120296239853 0.0
v -0.023123428225517273 0.1259148120880127 0.0
v -0.023123428225517273 0.1239175871014595 0.0
v -0.023123428225517273 0.12192036211490631 0.0
v -0.023123428225517273 0.11992314457893372 0.0
v -0.023123428225517273 0.11792591959238052 0.0
v -0.023123428225517273 0.11592869460582733 0.0
v -0.023123428225517273 0.11393146961927414 0.0
v -0.023123428225517273 0.11193424463272095 0.0
v -0.023123428225517273 0.10993701964616776 0.0
v -0.023123428225517273 0.10793979465961456 0.0
v -0.023123428225517273 0.10594256967306137 0.0
v -0.023123428225517273 0.10394535213708878 0.0
v -0.023123428225517273 0.10194811969995499 0.0
v -0.023123428225517273 0.09995090961456299 0.0
v -0.023123428225517273 0.0979536771774292 0.0
v -0.023123428225517273 0.0959564596414566 0.0
v -0.023123428225517273 0.09395922720432281 0.0
v -0.023123428225517273 0.09196200221776962 0.0
v -0.023123428225517273 0.08996478468179703 0.0
v -0.023100871592760086 0.08796802163124084 0.0
v -0.023018863052129745 0.08597248792648315 0.0
v -0.022936854511499405 0.08397693932056427 0.0
v -0.022854844108223915 0.08198139816522598 0.0
v -0.022772837430238724 0.07998586446046829 0.0
v -0.022690827026963234 0.07799031585454941 0.0
v -0.022608820348978043 0.07599478214979172 0.0
v -0.022526809945702553 0.07399924099445343 0.0
v -0.02244480326771736 0.07200370728969574 0.0
v -0.02236279472708702 0.07000815868377686 0.0
v -0.02228078618645668 0.06801262497901917 0.0
v -0.02219877764582634 0.06601707637310028 0.0
v -0.02211676724255085 0.0640215277671814 0.0
v -0.02203476056456566 0.0620260015130043 0.0
v -0.021843908354640007 0.06003880500793457 0.0
v -0.021620629355311394 0.05805410072207451 0.0
v -0.02139735035598278 0.05606939643621445 0.0
v -0.021174071356654167 0.054084695875644684 0.0
v -0.020950792357325554 0.05209999158978462 0.0
v -0.02072751335799694 0.05011528730392456 0.0
v -0.020504234358668327 0.0481305830180645 0.0
v -0.020280953496694565 0.04614586755633354 0.0
v -0.0200576763600111 0.044161178171634674 0.0
v -0.019834397360682487 0.04217647388577461 0.0
v -0.019611116498708725 0.04019175469875336 0.0
v -0.01938783936202526 0.03820706903934479 0.0
v -0.0191645585000515 0.03622234985232353 0.0
v -0.018941279500722885 0.03423764556646347 0.0
v -0.018718000501394272 0.03225294500589371 0.0
v -0.018309589475393295 0.030299030244350433 0.0
v -0.017878320068120956 0.02834894135594368 0.0
v -0.01744704693555832 0.026398835703730583 0.0
v -0.017015771940350533 0.024448728188872337 0.0
v -0.016584498807787895 0.02249862253665924 0.0
v -0.016153225675225258 0.020548515021800995 0.0
v -0.01572195068001747 0.01859840750694275 0.0
v -0.015290677547454834 0.016648301854729652 0.0
v -0.014859404414892197 0.014698194339871407 0.0
v -0.014428130351006985 0.01274808868765831 0.0
v -0.013996860943734646 0.010797999799251556 0.0
v -0.013565590605139732 0.008847910910844803 0.0
v -0.013134310021996498 0.006897768005728722 0.0
v -0.012703039683401585 0.004947679117321968 0.0
v -0.012271765619516373 0.0029975734651088715 0.0
v -0.011840492486953735 0.0010474659502506256 0.0
v -0.011409219354391098 -0.0009026415646076202 0.0
v -0.010977949015796185 -0.0028527267277240753 0.0
v -0.010546679608523846 -0.004802815616130829 0.0
v -0.009841167367994785 -0.006539064925163984 0.0
v -0.00805480033159256 -0.007432248443365097 0.0
v -0.006268433760851622 -0.008325431495904922 0.0
v -0.004482053220272064 -0.009218621999025345 0.0
v -0.002695686649531126 -0.01011180505156517 0.0
v -0.0009093200787901878 -0.011004988104104996 0.0
v 0.0010235680965706706 -0.010852201841771603 0.0
v 0.0029865787364542484 -0.010484137572348118 0.0
v 0.004949578084051609 -0.010116075165569782 0.0
v 0.006912589073181152 -0.009748010896146297 0.0
v 0.008875611238181591 -0.009379943832755089 0.0
v 0.010838622227311134 -0.009011879563331604 0.0
v 0.01156709250062704 -0.007362008094787598 0.0
v 0.012008598074316978 -0.005414186976850033 0.0
v 0.01245010457932949 -0.0034663653932511806 0.0
v 0.01289160456508398 -0.0015185708180069923 0.0
v 0.013333111070096493 0.0004292502999305725 0.0
v 0.01377461664378643 0.0023770714178681374 0.0
v 0.014216117560863495 0.004324866458773613 0.0
v 0.014657623134553432 0.006272687576711178 0.0
v 0.015099129639565945 0.008220508694648743 0.0
v 0.015540635213255882 0.010168328881263733 0.0
v 0.015982136130332947 0.012116124853491783 0.0
v 0.01642364263534546 0.014063945040106773 0.0
v 0.01686514914035797 0.016011767089366913 0.0
v 0.017306653782725334 0.017959587275981903 0.0
v 0.01723143272101879 0.019909663125872612 0.0
v 0.016807161271572113 0.021861309185624123 0.0
v 0.016382891684770584 0.023812953382730484 0.0
v 0.015958627685904503 0.02576456591486931 0.0
v 0.0155343571677804 0.02771621011197567 0.0
v 0.015110079199075699 0.029667887836694717 0.0
v 0.014685808680951595 0.03161953017115593 0.0
v 0.014261545613408089 0.033571142703294754 0.0
v 0.013837275095283985 0.035522788763046265 0.0
v 0.013413004577159882 0.03747443109750748 0.0
v 0.0129887405782938 0.0394260436296463 0.0
v 0.012564470060169697 0.04137768968939781 0.0
v 0.012140199542045593 0.04332933574914932 0.0
v 0.011715922504663467 0.04528101161122322 0.0
v 0.011291658505797386 0.04723262041807175 0.0
v 0.010867387987673283 0.049184270203113556 0.0
v 0.010443117469549179 0.05113591253757477 0.0
v 0.00973653607070446 0.05284128338098526 0.0
v 0.007860610261559486 0.05352671816945076 0.0
v 0.005984684452414513 0.05421215295791626 0.0
v 0.004108776804059744 0.05489758029580116 0.0
v 0.002232850529253483 0.05558301508426666 0.0
v 0.00035690702497959137 0.05626845359802246 0.0
v -0.0015190187841653824 0.05695388838648796 0.0
v -0.0033949268981814384 0.057639315724372864 0.0
v -0.005270852707326412 0.058324750512838364 0.0
v -0.007146777585148811 0.059010185301303864 0.0
v -0.009058934636414051 0.0597088560461998 0.0
v -0.010294804349541664 0.05972212925553322 -0.0014991608913987875
v -0.011542649939656258 0.059722159057855606 -0.0030585855711251497
v -0.01281557884067297 0.059722185134887695 -0.004581075627356768
v -0.014725364744663239 0.059722185134887695 -0.005165490787476301
v -0.01663518138229847 0.059722185134887695 -0.005749915260821581
v -0.018544990569353104 0.059722185134887695 -0.006334338337182999
v -0.020407449454069138 0.059722185134887695 -0.006001035682857037
v -0.022247008979320526 0.059722185134887695 -0.005223236046731472
v -0.024086572229862213 0.059722185134887695 -0.004445434547960758
v -0.02543872408568859 0.059722185134887695 -0.003021871903911233
v -0.026690993458032608 0.059722185134887695 -0.0014660211745649576
v -0.02677898295223713 0.059722185134887695 0.0005211994284763932
v -0.026281703263521194 0.059722185134887695 0.0022306344471871853
v -0.02462632954120636 0.059722185134887695 0.0033480115234851837
v -0.022783515974879265 0.059722185134887695 0.004024875815957785
v -0.020830444991588593 0.059722185134887695 0.004442584700882435
v -0.01887737587094307 0.059722185134887695 0.004860293120145798
v -0.016940267756581306 0.059722185134887695 0.004779483191668987
v -0.015017855912446976 0.059722185134887695 0.004237959161400795
v -0.0130954310297966 0.059722185134887695 0.0036964307073503733
v -0.011173034086823463 0.059722185134887695 0.0031549104023724794
v -0.009933355264365673 0.05972215160727501 0.001812850241549313
v -0.009058934636414051 0.0597088560461998 0.0
l 1 2
l 2 3
l 3 4
l 4 5
l 5 6
l 6 7
l 7 8
l 8 9
l 9 10
l 10 11
l 11 12
l 12 13
l 13 14
l 14 15
l 15 16
l 16 17
l 17 18
l 18 19
l 19 20
l 20 21
l 21 22
l 22 23
l 23 24
l 24 25
l 25 26
l 26 27
l 27 28
l 28 29
l 29 30
l 30 31
l 31 32
l 32 33
l 33 34
l 34 35
l 35 36
l 36 37
l 37 38
l 38 39
l 39 40
l 40 41
l 41 42
l 42 43
l 43 44
l 44 45
l 45 46
l 46 47
l 47 48
l 48 49
l 49 50
l 50 51
l 51 52
l 52 53
l 53 54
l 54 55
l 55 56
l 56 57
l 57 58
l 58 59
l 59 60
l 60 61
l 61 62
l 62 63
l 63 64
l 64 65
l 65 66
l 66 67
l 67 68
l 68 69
l 69 70
l 70 71
l 71 72
l 72 73
l 73 74
l 74 75
l 75 76
l 76 77
l 77 78
l 78 79
l 79 80
l 80 81
l 81 82
l 82 83
l 83 84
l 84 85
l 85 86
l 86 87
l 87 88
l 88 89
l 89 90
l 90 91
l 91 92
l 92 93
l 93 94
l 94 95
l 95 96
l 96 97
l 97 98
l 98 99
l 99 100
l 100 101
l 101 102
l 102 103
l 103 104
l 104 105
l 105 106
l 106 107
l 107 108
l 108 109
l 109 110
l 110 111
l 111 112
l 112 113
l 113 114
l 114 115
l 115 116
l 116 117
l 117 118
l 118 119
l 119 120
l 120 121
l 121 122
l 122 123
l 123 124
l 124 125
l 125 126
l 126 127
l 127 128
l 128 129
l 129 130
l 130 131
l 131 132
l 132 133
l 133 134
l 134 135
l 135 136
l 136 137
l 137 138
l 138 139
l 139 140
l 140 141
l 141 142
l 142 143
l 143 144
l 144 145
l 145 146
l 146 147
l 147 148
l 148 149
l 149 150
l 150 151
l 151 152
l 152 153
l 153 154
l 154 155
l 155 156
l 156 157
l 157 158
l 158 159
l 159 160
l 160 161
l 161 162
l 162 163
l 163 164
l 164 165
l 165 166
l 166 167
l 167 168
l 168 169
l 169 170
l 170 171
l 171 172
l 172 173
l 173 174
l 174 175
l 175 176
l 176 177
l 177 178
l 178 179
l 179 180
