# File exported by Houdini 20.5.445 (www.sidefx.com)
# 24 points
# 72 vertices
# 14 primitives
# Bounds: [-0.00249999994, -0.00249999994, -0.00999999978] to [0.00249999994, 0.00249999994, 0.00999999978]
g 
v 0.00249999994 0 0.00999999978
v 0.00216506352 0.00124999997 0.00999999978
v 0.00124999986 0.00216506352 0.00999999978
v -1.09278468e-10 0.00249999994 0.00999999978
v -0.00125000009 0.00216506352 0.00999999978
v -0.00216506352 0.00125000009 0.00999999978
v -0.00249999994 -2.18556936e-10 0.00999999978
v -0.00216506305 -0.00125000044 0.00999999978
v -0.00124999974 -0.00216506352 0.00999999978
v 2.98122013e-11 -0.00249999994 0.00999999978
v 0.00124999974 -0.00216506352 0.00999999978
v 0.00216506398 -0.00124999939 0.00999999978
v 0.00249999994 0 -0.00999999978
v 0.00216506352 0.00124999997 -0.00999999978
v 0.00124999986 0.00216506352 -0.00999999978
v -1.09278468e-10 0.00249999994 -0.00999999978
v -0.00125000009 0.00216506352 -0.00999999978
v -0.00216506352 0.00125000009 -0.00999999978
v -0.00249999994 -2.18556936e-10 -0.00999999978
v -0.00216506305 -0.00125000044 -0.00999999978
v -0.00124999974 -0.00216506352 -0.00999999978
v 2.98122013e-11 -0.00249999994 -0.00999999978
v 0.00124999974 -0.00216506352 -0.00999999978
v 0.00216506398 -0.00124999939 -0.00999999978
g 
f 12 1 2 3 4 5 6 7 8 9 10 11
f 13 24 23 22 21 20 19 18 17 16 15 14
f 1 13 14 2
f 2 14 15 3
f 3 15 16 4
f 4 16 17 5
f 5 17 18 6
f 6 18 19 7
f 7 19 20 8
f 8 20 21 9
f 9 21 22 10
f 10 22 23 11
f 11 23 24 12
f 12 24 13 1
