# https://github.com/mikedh/trimesh

o bearing_sphere_3.obj
v 0.00242650 0.00080192 0.00234039
v 0.00238911 0.00080192 0.00238911
v 0.00261387 0.00070310 0.00244863
v 0.00254212 0.00070310 0.00254212
v 0.00276955 0.00054731 0.00253856
v 0.00266925 0.00054731 0.00266925
v 0.00288091 0.00034719 0.00260289
v 0.00276019 0.00034719 0.00276019
v 0.00293895 0.00011894 0.00263642
v 0.00280758 0.00011894 0.00280758
v 0.00293895 -0.00011894 0.00263642
v 0.00280758 -0.00011894 0.00280758
v 0.00288091 -0.00034719 0.00260289
v 0.00276019 -0.00034719 0.00276019
v 0.00276955 -0.00054731 0.00253856
v 0.00266925 -0.00054731 0.00266925
v 0.00261387 -0.00070310 0.00244863
v 0.00254212 -0.00070310 0.00254212
v 0.00242650 -0.00080192 0.00234039
v 0.00238911 -0.00080192 0.00238911
v 0.00245005 0.00080192 0.00228358
v 0.00265905 0.00070310 0.00233961
v 0.00283271 0.00054731 0.00238617
v 0.00295693 0.00034719 0.00241947
v 0.00302166 0.00011894 0.00243682
v 0.00302166 -0.00011894 0.00243682
v 0.00295693 -0.00034719 0.00241947
v 0.00283271 -0.00054731 0.00238617
v 0.00265905 -0.00070310 0.00233961
v 0.00245005 -0.00080192 0.00228358
v 0.00245808 0.00080192 0.00222261
v 0.00267447 0.00070310 0.00222261
v 0.00285425 0.00054731 0.00222261
v 0.00298286 0.00034719 0.00222261
v 0.00304988 0.00011894 0.00222261
v 0.00304988 -0.00011894 0.00222261
v 0.00298286 -0.00034719 0.00222261
v 0.00285425 -0.00054731 0.00222261
v 0.00267447 -0.00070310 0.00222261
v 0.00245808 -0.00080192 0.00222261
v 0.00245005 0.00080192 0.00216164
v 0.00265905 0.00070310 0.00210561
v 0.00283271 0.00054731 0.00205906
v 0.00295693 0.00034719 0.00202576
v 0.00302166 0.00011894 0.00200841
v 0.00302166 -0.00011894 0.00200841
v 0.00295693 -0.00034719 0.00202576
v 0.00283271 -0.00054731 0.00205906
v 0.00265905 -0.00070310 0.00210561
v 0.00245005 -0.00080192 0.00216164
v 0.00242650 0.00080192 0.00210483
v 0.00261387 0.00070310 0.00199659
v 0.00276955 0.00054731 0.00190667
v 0.00288091 0.00034719 0.00184233
v 0.00293895 0.00011894 0.00180881
v 0.00293895 -0.00011894 0.00180881
v 0.00288091 -0.00034719 0.00184233
v 0.00276955 -0.00054731 0.00190667
v 0.00261387 -0.00070310 0.00199659
v 0.00242650 -0.00080192 0.00210483
v 0.00238911 0.00080192 0.00205612
v 0.00254212 0.00070310 0.00190311
v 0.00266925 0.00054731 0.00177598
v 0.00276019 0.00034719 0.00168504
v 0.00280758 0.00011894 0.00163765
v 0.00280758 -0.00011894 0.00163765
v 0.00276019 -0.00034719 0.00168504
v 0.00266925 -0.00054731 0.00177598
v 0.00254212 -0.00070310 0.00190311
v 0.00238911 -0.00080192 0.00205612
v 0.00222261 0.00083577 0.00222261
v 0.00222261 -0.00083577 0.00222261
v 0.00210483 0.00080192 0.00242650
v 0.00205612 0.00080192 0.00238911
v 0.00199659 0.00070310 0.00261387
v 0.00190311 0.00070310 0.00254212
v 0.00190667 0.00054731 0.00276955
v 0.00177598 0.00054731 0.00266925
v 0.00184233 0.00034719 0.00288091
v 0.00168504 0.00034719 0.00276019
v 0.00180881 0.00011894 0.00293895
v 0.00163765 0.00011894 0.00280758
v 0.00180881 -0.00011894 0.00293895
v 0.00163765 -0.00011894 0.00280758
v 0.00184233 -0.00034719 0.00288091
v 0.00168504 -0.00034719 0.00276019
v 0.00190667 -0.00054731 0.00276955
v 0.00177598 -0.00054731 0.00266925
v 0.00199659 -0.00070310 0.00261387
v 0.00190311 -0.00070310 0.00254212
v 0.00210483 -0.00080192 0.00242650
v 0.00205612 -0.00080192 0.00238911
v 0.00216164 0.00080192 0.00245005
v 0.00210561 0.00070310 0.00265905
v 0.00205906 0.00054731 0.00283271
v 0.00202576 0.00034719 0.00295693
v 0.00200841 0.00011894 0.00302166
v 0.00200841 -0.00011894 0.00302166
v 0.00202576 -0.00034719 0.00295693
v 0.00205906 -0.00054731 0.00283271
v 0.00210561 -0.00070310 0.00265905
v 0.00216164 -0.00080192 0.00245005
v 0.00222261 0.00080192 0.00245808
v 0.00222261 0.00070310 0.00267447
v 0.00222261 0.00054731 0.00285425
v 0.00222261 0.00034719 0.00298286
v 0.00222261 0.00011894 0.00304988
v 0.00222261 -0.00011894 0.00304988
v 0.00222261 -0.00034719 0.00298286
v 0.00222261 -0.00054731 0.00285425
v 0.00222261 -0.00070310 0.00267447
v 0.00222261 -0.00080192 0.00245808
v 0.00228358 0.00080192 0.00245005
v 0.00233961 0.00070310 0.00265905
v 0.00238617 0.00054731 0.00283271
v 0.00241947 0.00034719 0.00295693
v 0.00243682 0.00011894 0.00302166
v 0.00243682 -0.00011894 0.00302166
v 0.00241947 -0.00034719 0.00295693
v 0.00238617 -0.00054731 0.00283271
v 0.00233961 -0.00070310 0.00265905
v 0.00228358 -0.00080192 0.00245005
v 0.00234039 0.00080192 0.00242650
v 0.00244863 0.00070310 0.00261387
v 0.00253856 0.00054731 0.00276955
v 0.00260289 0.00034719 0.00288091
v 0.00263642 0.00011894 0.00293895
v 0.00263642 -0.00011894 0.00293895
v 0.00260289 -0.00034719 0.00288091
v 0.00253856 -0.00054731 0.00276955
v 0.00244863 -0.00070310 0.00261387
v 0.00234039 -0.00080192 0.00242650
v 0.00234039 0.00080192 0.00201872
v 0.00244863 0.00070310 0.00183135
v 0.00253856 0.00054731 0.00167568
v 0.00260289 0.00034719 0.00156431
v 0.00263642 0.00011894 0.00150628
v 0.00263642 -0.00011894 0.00150628
v 0.00260289 -0.00034719 0.00156431
v 0.00253856 -0.00054731 0.00167568
v 0.00244863 -0.00070310 0.00183135
v 0.00234039 -0.00080192 0.00201872
v 0.00228358 0.00080192 0.00199518
v 0.00233961 0.00070310 0.00178617
v 0.00238617 0.00054731 0.00161252
v 0.00241947 0.00034719 0.00148830
v 0.00243682 0.00011894 0.00142356
v 0.00243682 -0.00011894 0.00142356
v 0.00241947 -0.00034719 0.00148830
v 0.00238617 -0.00054731 0.00161252
v 0.00233961 -0.00070310 0.00178617
v 0.00228358 -0.00080192 0.00199518
v 0.00222261 0.00080192 0.00198715
v 0.00222261 0.00070310 0.00177076
v 0.00222261 0.00054731 0.00159098
v 0.00222261 0.00034719 0.00146237
v 0.00222261 0.00011894 0.00139535
v 0.00222261 -0.00011894 0.00139535
v 0.00222261 -0.00034719 0.00146237
v 0.00222261 -0.00054731 0.00159098
v 0.00222261 -0.00070310 0.00177076
v 0.00222261 -0.00080192 0.00198715
v 0.00216164 0.00080192 0.00199518
v 0.00210561 0.00070310 0.00178617
v 0.00205906 0.00054731 0.00161252
v 0.00202576 0.00034719 0.00148830
v 0.00200841 0.00011894 0.00142356
v 0.00200841 -0.00011894 0.00142356
v 0.00202576 -0.00034719 0.00148830
v 0.00205906 -0.00054731 0.00161252
v 0.00210561 -0.00070310 0.00178617
v 0.00216164 -0.00080192 0.00199518
v 0.00210483 0.00080192 0.00201872
v 0.00199659 0.00070310 0.00183135
v 0.00190667 0.00054731 0.00167568
v 0.00184233 0.00034719 0.00156431
v 0.00180881 0.00011894 0.00150628
v 0.00180881 -0.00011894 0.00150628
v 0.00184233 -0.00034719 0.00156431
v 0.00190667 -0.00054731 0.00167568
v 0.00199659 -0.00070310 0.00183135
v 0.00210483 -0.00080192 0.00201872
v 0.00205612 0.00080192 0.00205612
v 0.00190311 0.00070310 0.00190311
v 0.00177598 0.00054731 0.00177598
v 0.00168504 0.00034719 0.00168504
v 0.00163765 0.00011894 0.00163765
v 0.00163765 -0.00011894 0.00163765
v 0.00168504 -0.00034719 0.00168504
v 0.00177598 -0.00054731 0.00177598
v 0.00190311 -0.00070310 0.00190311
v 0.00205612 -0.00080192 0.00205612
v 0.00201872 0.00080192 0.00210483
v 0.00183135 0.00070310 0.00199659
v 0.00167568 0.00054731 0.00190667
v 0.00156431 0.00034719 0.00184233
v 0.00150628 0.00011894 0.00180881
v 0.00150628 -0.00011894 0.00180881
v 0.00156431 -0.00034719 0.00184233
v 0.00167568 -0.00054731 0.00190667
v 0.00183135 -0.00070310 0.00199659
v 0.00201872 -0.00080192 0.00210483
v 0.00199518 0.00080192 0.00216164
v 0.00178617 0.00070310 0.00210561
v 0.00161252 0.00054731 0.00205906
v 0.00148830 0.00034719 0.00202576
v 0.00142356 0.00011894 0.00200841
v 0.00142356 -0.00011894 0.00200841
v 0.00148830 -0.00034719 0.00202576
v 0.00161252 -0.00054731 0.00205906
v 0.00178617 -0.00070310 0.00210561
v 0.00199518 -0.00080192 0.00216164
v 0.00198715 0.00080192 0.00222261
v 0.00177076 0.00070310 0.00222261
v 0.00159098 0.00054731 0.00222261
v 0.00146237 0.00034719 0.00222261
v 0.00139535 0.00011894 0.00222261
v 0.00139535 -0.00011894 0.00222261
v 0.00146237 -0.00034719 0.00222261
v 0.00159098 -0.00054731 0.00222261
v 0.00177076 -0.00070310 0.00222261
v 0.00198715 -0.00080192 0.00222261
v 0.00199518 0.00080192 0.00228358
v 0.00178617 0.00070310 0.00233961
v 0.00161252 0.00054731 0.00238617
v 0.00148830 0.00034719 0.00241947
v 0.00142356 0.00011894 0.00243682
v 0.00142356 -0.00011894 0.00243682
v 0.00148830 -0.00034719 0.00241947
v 0.00161252 -0.00054731 0.00238617
v 0.00178617 -0.00070310 0.00233961
v 0.00199518 -0.00080192 0.00228358
v 0.00201872 0.00080192 0.00234039
v 0.00183135 0.00070310 0.00244863
v 0.00167568 0.00054731 0.00253856
v 0.00156431 0.00034719 0.00260289
v 0.00150628 0.00011894 0.00263642
v 0.00150628 -0.00011894 0.00263642
v 0.00156431 -0.00034719 0.00260289
v 0.00167568 -0.00054731 0.00253856
v 0.00183135 -0.00070310 0.00244863
v 0.00201872 -0.00080192 0.00234039
vn 0.25335457 0.95624311 0.14632354
vn 0.20687523 0.95624544 0.20687510
vn 0.47533790 0.83587506 0.27453006
vn 0.38814095 0.83587876 0.38814084
vn 0.65876138 0.64905961 0.38046690
vn 0.53792040 0.64906300 0.53792087
vn 0.78942672 0.41101003 0.45593444
vn 0.64461934 0.41101272 0.64461962
vn 0.85733832 0.14067723 0.49515748
vn 0.70007488 0.14067836 0.70007483
vn 0.85733833 -0.14067717 0.49515746
vn 0.70007483 -0.14067836 0.70007488
vn 0.78942648 -0.41101025 0.45593466
vn 0.64461962 -0.41101272 0.64461934
vn 0.65876128 -0.64905946 0.38046733
vn 0.53792087 -0.64906300 0.53792040
vn 0.47533803 -0.83587504 0.27452994
vn 0.38814084 -0.83587876 0.38814095
vn 0.25335461 -0.95624312 0.14632340
vn 0.20687510 -0.95624544 0.20687523
vn 0.28260206 0.95624089 0.07575911
vn 0.53020405 0.83587148 0.14213563
vn 0.73479585 0.64905542 0.19698255
vn 0.88054077 0.41100726 0.23605294
vn 0.95628968 0.14067612 0.25635967
vn 0.95628970 -0.14067623 0.25635953
vn 0.88054094 -0.41100696 0.23605281
vn 0.73479564 -0.64905568 0.19698247
vn 0.53020416 -0.83587139 0.14213570
vn 0.28260202 -0.95624089 0.07575922
vn 0.29258065 0.95624085 0.00000012
vn 0.54892513 0.83587152 -0.00000005
vn 0.76074113 0.64905542 0.00000008
vn 0.91163210 0.41100720 -0.00000006
vn 0.99005562 0.14067650 -0.00000012
vn 0.99005562 -0.14067650 0.00000012
vn 0.91163210 -0.41100720 0.00000006
vn 0.76074113 -0.64905542 -0.00000008
vn 0.54892514 -0.83587152 0.00000006
vn 0.29258063 -0.95624085 0.00000002
vn 0.28260205 0.95624087 -0.07575934
vn 0.53020419 0.83587138 -0.14213567
vn 0.73479567 0.64905567 -0.19698241
vn 0.88054094 0.41100694 -0.23605284
vn 0.95628967 0.14067623 -0.25635963
vn 0.95628966 -0.14067610 -0.25635974
vn 0.88054078 -0.41100723 -0.23605292
vn 0.73479586 -0.64905544 -0.19698245
vn 0.53020406 -0.83587147 -0.14213564
vn 0.28260210 -0.95624086 -0.07575932
vn 0.25335444 0.95624314 -0.14632356
vn 0.47533799 0.83587505 -0.27452996
vn 0.65876126 0.64905948 -0.38046734
vn 0.78942664 0.41101011 -0.45593451
vn 0.85733847 0.14067708 -0.49515725
vn 0.85733843 -0.14067715 -0.49515730
vn 0.78942680 -0.41100992 -0.45593440
vn 0.65876136 -0.64905958 -0.38046700
vn 0.47533787 -0.83587510 -0.27453001
vn 0.25335448 -0.95624311 -0.14632368
vn 0.20687510 0.95624544 -0.20687523
vn 0.38814084 0.83587878 -0.38814089
vn 0.53792080 0.64906308 -0.53792038
vn 0.64461952 0.41101277 -0.64461940
vn 0.70007489 0.14067832 -0.70007483
vn 0.70007496 -0.14067836 -0.70007475
vn 0.64461937 -0.41101272 -0.64461959
vn 0.53792043 -0.64906310 -0.53792072
vn 0.38814091 -0.83587877 -0.38814084
vn 0.20687523 -0.95624544 -0.20687510
vn 0.00000000 1.00000000 0.00000000
vn 0.00000000 -1.00000000 0.00000000
vn -0.14632368 0.95624311 0.25335448
vn -0.20687510 0.95624544 0.20687523
vn -0.27453001 0.83587510 0.47533787
vn -0.38814084 0.83587877 0.38814091
vn -0.38046700 0.64905958 0.65876136
vn -0.53792072 0.64906310 0.53792043
vn -0.45593440 0.41100992 0.78942680
vn -0.64461959 0.41101272 0.64461937
vn -0.49515730 0.14067715 0.85733843
vn -0.70007475 0.14067836 0.70007496
vn -0.49515725 -0.14067708 0.85733847
vn -0.70007483 -0.14067832 0.70007489
vn -0.45593451 -0.41101011 0.78942664
vn -0.64461940 -0.41101277 0.64461952
vn -0.38046734 -0.64905948 0.65876126
vn -0.53792038 -0.64906308 0.53792080
vn -0.27452996 -0.83587505 0.47533799
vn -0.38814089 -0.83587878 0.38814084
vn -0.14632356 -0.95624314 0.25335444
vn -0.20687523 -0.95624544 0.20687510
vn -0.07575932 0.95624086 0.28260210
vn -0.14213564 0.83587147 0.53020406
vn -0.19698245 0.64905544 0.73479586
vn -0.23605292 0.41100723 0.88054078
vn -0.25635974 0.14067610 0.95628966
vn -0.25635963 -0.14067623 0.95628967
vn -0.23605284 -0.41100694 0.88054094
vn -0.19698241 -0.64905567 0.73479567
vn -0.14213567 -0.83587138 0.53020419
vn -0.07575934 -0.95624087 0.28260205
vn 0.00000002 0.95624085 0.29258063
vn 0.00000006 0.83587152 0.54892514
vn -0.00000008 0.64905542 0.76074113
vn 0.00000006 0.41100720 0.91163210
vn 0.00000012 0.14067650 0.99005562
vn -0.00000012 -0.14067650 0.99005562
vn -0.00000006 -0.41100720 0.91163210
vn 0.00000008 -0.64905542 0.76074113
vn -0.00000005 -0.83587152 0.54892513
vn 0.00000012 -0.95624085 0.29258065
vn 0.07575922 0.95624089 0.28260202
vn 0.14213570 0.83587139 0.53020416
vn 0.19698247 0.64905568 0.73479564
vn 0.23605281 0.41100696 0.88054094
vn 0.25635953 0.14067623 0.95628970
vn 0.25635967 -0.14067612 0.95628968
vn 0.23605294 -0.41100726 0.88054077
vn 0.19698255 -0.64905542 0.73479585
vn 0.14213563 -0.83587148 0.53020405
vn 0.07575911 -0.95624089 0.28260206
vn 0.14632340 0.95624312 0.25335461
vn 0.27452994 0.83587504 0.47533803
vn 0.38046733 0.64905946 0.65876128
vn 0.45593466 0.41101025 0.78942648
vn 0.49515746 0.14067717 0.85733833
vn 0.49515748 -0.14067723 0.85733832
vn 0.45593444 -0.41101003 0.78942672
vn 0.38046690 -0.64905961 0.65876138
vn 0.27453006 -0.83587506 0.47533790
vn 0.14632354 -0.95624311 0.25335457
vn 0.14632354 0.95624311 -0.25335457
vn 0.27452999 0.83587512 -0.47533785
vn 0.38046691 0.64905957 -0.65876141
vn 0.45593430 0.41100991 -0.78942686
vn 0.49515708 0.14067722 -0.85733855
vn 0.49515712 -0.14067712 -0.85733854
vn 0.45593447 -0.41101015 -0.78942664
vn 0.38046722 -0.64905945 -0.65876136
vn 0.27452994 -0.83587509 -0.47533792
vn 0.14632340 -0.95624312 -0.25335461
vn 0.07575911 0.95624089 -0.28260206
vn 0.14213559 0.83587145 -0.53020411
vn 0.19698223 0.64905559 -0.73479578
vn 0.23605330 0.41100689 -0.88054084
vn 0.25635949 0.14067596 -0.95628975
vn 0.25635943 -0.14067589 -0.95628978
vn 0.23605312 -0.41100697 -0.88054085
vn 0.19698209 -0.64905560 -0.73479581
vn 0.14213565 -0.83587142 -0.53020414
vn 0.07575922 -0.95624089 -0.28260202
vn 0.00000012 0.95624085 -0.29258065
vn 0.00000000 0.83587146 -0.54892523
vn -0.00000009 0.64905571 -0.76074088
vn -0.00000006 0.41100702 -0.91163218
vn -0.00000000 0.14067594 -0.99005569
vn 0.00000000 -0.14067594 -0.99005569
vn 0.00000006 -0.41100702 -0.91163218
vn 0.00000009 -0.64905571 -0.76074088
vn 0.00000001 -0.83587145 -0.54892524
vn 0.00000002 -0.95624085 -0.29258063
vn -0.07575934 0.95624087 -0.28260205
vn -0.14213561 0.83587141 -0.53020416
vn -0.19698202 0.64905559 -0.73479584
vn -0.23605315 0.41100695 -0.88054086
vn -0.25635953 0.14067589 -0.95628975
vn -0.25635957 -0.14067594 -0.95628973
vn -0.23605329 -0.41100687 -0.88054086
vn -0.19698214 -0.64905561 -0.73479579
vn -0.14213560 -0.83587144 -0.53020412
vn -0.07575932 -0.95624086 -0.28260210
vn -0.14632356 0.95624314 -0.25335444
vn -0.27452996 0.83587511 -0.47533789
vn -0.38046723 0.64905946 -0.65876134
vn -0.45593432 0.41101001 -0.78942680
vn -0.49515690 0.14067703 -0.85733868
vn -0.49515691 -0.14067715 -0.85733866
vn -0.45593426 -0.41100980 -0.78942694
vn -0.38046701 -0.64905954 -0.65876139
vn -0.27452993 -0.83587515 -0.47533782
vn -0.14632368 -0.95624311 -0.25335448
vn -0.20687523 0.95624544 -0.20687510
vn -0.38814085 0.83587880 -0.38814085
vn -0.53792040 0.64906318 -0.53792066
vn -0.64461943 0.41101277 -0.64461949
vn -0.70007490 0.14067832 -0.70007481
vn -0.70007481 -0.14067832 -0.70007490
vn -0.64461949 -0.41101277 -0.64461943
vn -0.53792066 -0.64906318 -0.53792040
vn -0.38814085 -0.83587880 -0.38814085
vn -0.20687510 -0.95624544 -0.20687523
vn -0.25335448 0.95624311 -0.14632368
vn -0.47533782 0.83587515 -0.27452993
vn -0.65876139 0.64905954 -0.38046701
vn -0.78942694 0.41100980 -0.45593426
vn -0.85733866 0.14067715 -0.49515691
vn -0.85733868 -0.14067703 -0.49515690
vn -0.78942680 -0.41101001 -0.45593432
vn -0.65876134 -0.64905946 -0.38046723
vn -0.47533789 -0.83587511 -0.27452996
vn -0.25335444 -0.95624314 -0.14632356
vn -0.28260210 0.95624086 -0.07575932
vn -0.53020412 0.83587144 -0.14213560
vn -0.73479579 0.64905561 -0.19698214
vn -0.88054086 0.41100687 -0.23605329
vn -0.95628973 0.14067594 -0.25635957
vn -0.95628975 -0.14067589 -0.25635953
vn -0.88054086 -0.41100695 -0.23605315
vn -0.73479584 -0.64905559 -0.19698202
vn -0.53020416 -0.83587141 -0.14213561
vn -0.28260205 -0.95624087 -0.07575934
vn -0.29258063 0.95624085 0.00000002
vn -0.54892524 0.83587145 0.00000001
vn -0.76074088 0.64905571 0.00000009
vn -0.91163218 0.41100702 0.00000006
vn -0.99005569 0.14067594 0.00000000
vn -0.99005569 -0.14067594 -0.00000000
vn -0.91163218 -0.41100702 -0.00000006
vn -0.76074088 -0.64905571 -0.00000009
vn -0.54892523 -0.83587146 0.00000000
vn -0.29258065 -0.95624085 0.00000012
vn -0.28260202 0.95624089 0.07575922
vn -0.53020414 0.83587142 0.14213565
vn -0.73479581 0.64905560 0.19698209
vn -0.88054085 0.41100697 0.23605312
vn -0.95628978 0.14067589 0.25635943
vn -0.95628975 -0.14067596 0.25635949
vn -0.88054084 -0.41100689 0.23605330
vn -0.73479578 -0.64905559 0.19698223
vn -0.53020411 -0.83587145 0.14213559
vn -0.28260206 -0.95624089 0.07575911
vn -0.25335461 0.95624312 0.14632340
vn -0.47533792 0.83587509 0.27452994
vn -0.65876136 0.64905945 0.38046722
vn -0.78942664 0.41101015 0.45593447
vn -0.85733854 0.14067712 0.49515712
vn -0.85733855 -0.14067722 0.49515708
vn -0.78942686 -0.41100991 0.45593430
vn -0.65876141 -0.64905957 0.38046691
vn -0.47533785 -0.83587512 0.27452999
vn -0.25335457 -0.95624311 0.14632354
f 1//1 2//2 3//3
f 3//3 2//2 4//4
f 3//3 4//4 5//5
f 5//5 4//4 6//6
f 5//5 6//6 7//7
f 7//7 6//6 8//8
f 7//7 8//8 9//9
f 9//9 8//8 10//10
f 9//9 10//10 11//11
f 11//11 10//10 12//12
f 11//11 12//12 13//13
f 13//13 12//12 14//14
f 13//13 14//14 15//15
f 15//15 14//14 16//16
f 15//15 16//16 17//17
f 17//17 16//16 18//18
f 17//17 18//18 19//19
f 19//19 18//18 20//20
f 21//21 1//1 22//22
f 22//22 1//1 3//3
f 22//22 3//3 23//23
f 23//23 3//3 5//5
f 23//23 5//5 24//24
f 24//24 5//5 7//7
f 24//24 7//7 25//25
f 25//25 7//7 9//9
f 25//25 9//9 26//26
f 26//26 9//9 11//11
f 26//26 11//11 27//27
f 27//27 11//11 13//13
f 27//27 13//13 28//28
f 28//28 13//13 15//15
f 28//28 15//15 29//29
f 29//29 15//15 17//17
f 29//29 17//17 30//30
f 30//30 17//17 19//19
f 31//31 21//21 32//32
f 32//32 21//21 22//22
f 32//32 22//22 33//33
f 33//33 22//22 23//23
f 33//33 23//23 34//34
f 34//34 23//23 24//24
f 34//34 24//24 35//35
f 35//35 24//24 25//25
f 35//35 25//25 36//36
f 36//36 25//25 26//26
f 36//36 26//26 37//37
f 37//37 26//26 27//27
f 37//37 27//27 38//38
f 38//38 27//27 28//28
f 38//38 28//28 39//39
f 39//39 28//28 29//29
f 39//39 29//29 40//40
f 40//40 29//29 30//30
f 41//41 31//31 42//42
f 42//42 31//31 32//32
f 42//42 32//32 43//43
f 43//43 32//32 33//33
f 43//43 33//33 44//44
f 44//44 33//33 34//34
f 44//44 34//34 45//45
f 45//45 34//34 35//35
f 45//45 35//35 46//46
f 46//46 35//35 36//36
f 46//46 36//36 47//47
f 47//47 36//36 37//37
f 47//47 37//37 48//48
f 48//48 37//37 38//38
f 48//48 38//38 49//49
f 49//49 38//38 39//39
f 49//49 39//39 50//50
f 50//50 39//39 40//40
f 51//51 41//41 52//52
f 52//52 41//41 42//42
f 52//52 42//42 53//53
f 53//53 42//42 43//43
f 53//53 43//43 54//54
f 54//54 43//43 44//44
f 54//54 44//44 55//55
f 55//55 44//44 45//45
f 55//55 45//45 56//56
f 56//56 45//45 46//46
f 56//56 46//46 57//57
f 57//57 46//46 47//47
f 57//57 47//47 58//58
f 58//58 47//47 48//48
f 58//58 48//48 59//59
f 59//59 48//48 49//49
f 59//59 49//49 60//60
f 60//60 49//49 50//50
f 61//61 51//51 62//62
f 62//62 51//51 52//52
f 62//62 52//52 63//63
f 63//63 52//52 53//53
f 63//63 53//53 64//64
f 64//64 53//53 54//54
f 64//64 54//54 65//65
f 65//65 54//54 55//55
f 65//65 55//55 66//66
f 66//66 55//55 56//56
f 66//66 56//56 67//67
f 67//67 56//56 57//57
f 67//67 57//57 68//68
f 68//68 57//57 58//58
f 68//68 58//58 69//69
f 69//69 58//58 59//59
f 69//69 59//59 70//70
f 70//70 59//59 60//60
f 71//71 2//2 1//1
f 71//71 1//1 21//21
f 71//71 21//21 31//31
f 71//71 31//31 41//41
f 71//71 41//41 51//51
f 71//71 51//51 61//61
f 72//72 70//70 60//60
f 72//72 60//60 50//50
f 72//72 50//50 40//40
f 72//72 40//40 30//30
f 72//72 30//30 19//19
f 72//72 19//19 20//20
f 73//73 74//74 75//75
f 75//75 74//74 76//76
f 75//75 76//76 77//77
f 77//77 76//76 78//78
f 77//77 78//78 79//79
f 79//79 78//78 80//80
f 79//79 80//80 81//81
f 81//81 80//80 82//82
f 81//81 82//82 83//83
f 83//83 82//82 84//84
f 83//83 84//84 85//85
f 85//85 84//84 86//86
f 85//85 86//86 87//87
f 87//87 86//86 88//88
f 87//87 88//88 89//89
f 89//89 88//88 90//90
f 89//89 90//90 91//91
f 91//91 90//90 92//92
f 93//93 73//73 94//94
f 94//94 73//73 75//75
f 94//94 75//75 95//95
f 95//95 75//75 77//77
f 95//95 77//77 96//96
f 96//96 77//77 79//79
f 96//96 79//79 97//97
f 97//97 79//79 81//81
f 97//97 81//81 98//98
f 98//98 81//81 83//83
f 98//98 83//83 99//99
f 99//99 83//83 85//85
f 99//99 85//85 100//100
f 100//100 85//85 87//87
f 100//100 87//87 101//101
f 101//101 87//87 89//89
f 101//101 89//89 102//102
f 102//102 89//89 91//91
f 103//103 93//93 104//104
f 104//104 93//93 94//94
f 104//104 94//94 105//105
f 105//105 94//94 95//95
f 105//105 95//95 106//106
f 106//106 95//95 96//96
f 106//106 96//96 107//107
f 107//107 96//96 97//97
f 107//107 97//97 108//108
f 108//108 97//97 98//98
f 108//108 98//98 109//109
f 109//109 98//98 99//99
f 109//109 99//99 110//110
f 110//110 99//99 100//100
f 110//110 100//100 111//111
f 111//111 100//100 101//101
f 111//111 101//101 112//112
f 112//112 101//101 102//102
f 113//113 103//103 114//114
f 114//114 103//103 104//104
f 114//114 104//104 115//115
f 115//115 104//104 105//105
f 115//115 105//105 116//116
f 116//116 105//105 106//106
f 116//116 106//106 117//117
f 117//117 106//106 107//107
f 117//117 107//107 118//118
f 118//118 107//107 108//108
f 118//118 108//108 119//119
f 119//119 108//108 109//109
f 119//119 109//109 120//120
f 120//120 109//109 110//110
f 120//120 110//110 121//121
f 121//121 110//110 111//111
f 121//121 111//111 122//122
f 122//122 111//111 112//112
f 123//123 113//113 124//124
f 124//124 113//113 114//114
f 124//124 114//114 125//125
f 125//125 114//114 115//115
f 125//125 115//115 126//126
f 126//126 115//115 116//116
f 126//126 116//116 127//127
f 127//127 116//116 117//117
f 127//127 117//117 128//128
f 128//128 117//117 118//118
f 128//128 118//118 129//129
f 129//129 118//118 119//119
f 129//129 119//119 130//130
f 130//130 119//119 120//120
f 130//130 120//120 131//131
f 131//131 120//120 121//121
f 131//131 121//121 132//132
f 132//132 121//121 122//122
f 2//2 123//123 4//4
f 4//4 123//123 124//124
f 4//4 124//124 6//6
f 6//6 124//124 125//125
f 6//6 125//125 8//8
f 8//8 125//125 126//126
f 8//8 126//126 10//10
f 10//10 126//126 127//127
f 10//10 127//127 12//12
f 12//12 127//127 128//128
f 12//12 128//128 14//14
f 14//14 128//128 129//129
f 14//14 129//129 16//16
f 16//16 129//129 130//130
f 16//16 130//130 18//18
f 18//18 130//130 131//131
f 18//18 131//131 20//20
f 20//20 131//131 132//132
f 71//71 74//74 73//73
f 71//71 73//73 93//93
f 71//71 93//93 103//103
f 71//71 103//103 113//113
f 71//71 113//113 123//123
f 71//71 123//123 2//2
f 72//72 20//20 132//132
f 72//72 132//132 122//122
f 72//72 122//122 112//112
f 72//72 112//112 102//102
f 72//72 102//102 91//91
f 72//72 91//91 92//92
f 133//133 61//61 134//134
f 134//134 61//61 62//62
f 134//134 62//62 135//135
f 135//135 62//62 63//63
f 135//135 63//63 136//136
f 136//136 63//63 64//64
f 136//136 64//64 137//137
f 137//137 64//64 65//65
f 137//137 65//65 138//138
f 138//138 65//65 66//66
f 138//138 66//66 139//139
f 139//139 66//66 67//67
f 139//139 67//67 140//140
f 140//140 67//67 68//68
f 140//140 68//68 141//141
f 141//141 68//68 69//69
f 141//141 69//69 142//142
f 142//142 69//69 70//70
f 143//143 133//133 144//144
f 144//144 133//133 134//134
f 144//144 134//134 145//145
f 145//145 134//134 135//135
f 145//145 135//135 146//146
f 146//146 135//135 136//136
f 146//146 136//136 147//147
f 147//147 136//136 137//137
f 147//147 137//137 148//148
f 148//148 137//137 138//138
f 148//148 138//138 149//149
f 149//149 138//138 139//139
f 149//149 139//139 150//150
f 150//150 139//139 140//140
f 150//150 140//140 151//151
f 151//151 140//140 141//141
f 151//151 141//141 152//152
f 152//152 141//141 142//142
f 153//153 143//143 154//154
f 154//154 143//143 144//144
f 154//154 144//144 155//155
f 155//155 144//144 145//145
f 155//155 145//145 156//156
f 156//156 145//145 146//146
f 156//156 146//146 157//157
f 157//157 146//146 147//147
f 157//157 147//147 158//158
f 158//158 147//147 148//148
f 158//158 148//148 159//159
f 159//159 148//148 149//149
f 159//159 149//149 160//160
f 160//160 149//149 150//150
f 160//160 150//150 161//161
f 161//161 150//150 151//151
f 161//161 151//151 162//162
f 162//162 151//151 152//152
f 163//163 153//153 164//164
f 164//164 153//153 154//154
f 164//164 154//154 165//165
f 165//165 154//154 155//155
f 165//165 155//155 166//166
f 166//166 155//155 156//156
f 166//166 156//156 167//167
f 167//167 156//156 157//157
f 167//167 157//157 168//168
f 168//168 157//157 158//158
f 168//168 158//158 169//169
f 169//169 158//158 159//159
f 169//169 159//159 170//170
f 170//170 159//159 160//160
f 170//170 160//160 171//171
f 171//171 160//160 161//161
f 171//171 161//161 172//172
f 172//172 161//161 162//162
f 173//173 163//163 174//174
f 174//174 163//163 164//164
f 174//174 164//164 175//175
f 175//175 164//164 165//165
f 175//175 165//165 176//176
f 176//176 165//165 166//166
f 176//176 166//166 177//177
f 177//177 166//166 167//167
f 177//177 167//167 178//178
f 178//178 167//167 168//168
f 178//178 168//168 179//179
f 179//179 168//168 169//169
f 179//179 169//169 180//180
f 180//180 169//169 170//170
f 180//180 170//170 181//181
f 181//181 170//170 171//171
f 181//181 171//171 182//182
f 182//182 171//171 172//172
f 183//183 173//173 184//184
f 184//184 173//173 174//174
f 184//184 174//174 185//185
f 185//185 174//174 175//175
f 185//185 175//175 186//186
f 186//186 175//175 176//176
f 186//186 176//176 187//187
f 187//187 176//176 177//177
f 187//187 177//177 188//188
f 188//188 177//177 178//178
f 188//188 178//178 189//189
f 189//189 178//178 179//179
f 189//189 179//179 190//190
f 190//190 179//179 180//180
f 190//190 180//180 191//191
f 191//191 180//180 181//181
f 191//191 181//181 192//192
f 192//192 181//181 182//182
f 71//71 61//61 133//133
f 71//71 133//133 143//143
f 71//71 143//143 153//153
f 71//71 153//153 163//163
f 71//71 163//163 173//173
f 71//71 173//173 183//183
f 72//72 192//192 182//182
f 72//72 182//182 172//172
f 72//72 172//172 162//162
f 72//72 162//162 152//152
f 72//72 152//152 142//142
f 72//72 142//142 70//70
f 193//193 183//183 194//194
f 194//194 183//183 184//184
f 194//194 184//184 195//195
f 195//195 184//184 185//185
f 195//195 185//185 196//196
f 196//196 185//185 186//186
f 196//196 186//186 197//197
f 197//197 186//186 187//187
f 197//197 187//187 198//198
f 198//198 187//187 188//188
f 198//198 188//188 199//199
f 199//199 188//188 189//189
f 199//199 189//189 200//200
f 200//200 189//189 190//190
f 200//200 190//190 201//201
f 201//201 190//190 191//191
f 201//201 191//191 202//202
f 202//202 191//191 192//192
f 203//203 193//193 204//204
f 204//204 193//193 194//194
f 204//204 194//194 205//205
f 205//205 194//194 195//195
f 205//205 195//195 206//206
f 206//206 195//195 196//196
f 206//206 196//196 207//207
f 207//207 196//196 197//197
f 207//207 197//197 208//208
f 208//208 197//197 198//198
f 208//208 198//198 209//209
f 209//209 198//198 199//199
f 209//209 199//199 210//210
f 210//210 199//199 200//200
f 210//210 200//200 211//211
f 211//211 200//200 201//201
f 211//211 201//201 212//212
f 212//212 201//201 202//202
f 213//213 203//203 214//214
f 214//214 203//203 204//204
f 214//214 204//204 215//215
f 215//215 204//204 205//205
f 215//215 205//205 216//216
f 216//216 205//205 206//206
f 216//216 206//206 217//217
f 217//217 206//206 207//207
f 217//217 207//207 218//218
f 218//218 207//207 208//208
f 218//218 208//208 219//219
f 219//219 208//208 209//209
f 219//219 209//209 220//220
f 220//220 209//209 210//210
f 220//220 210//210 221//221
f 221//221 210//210 211//211
f 221//221 211//211 222//222
f 222//222 211//211 212//212
f 223//223 213//213 224//224
f 224//224 213//213 214//214
f 224//224 214//214 225//225
f 225//225 214//214 215//215
f 225//225 215//215 226//226
f 226//226 215//215 216//216
f 226//226 216//216 227//227
f 227//227 216//216 217//217
f 227//227 217//217 228//228
f 228//228 217//217 218//218
f 228//228 218//218 229//229
f 229//229 218//218 219//219
f 229//229 219//219 230//230
f 230//230 219//219 220//220
f 230//230 220//220 231//231
f 231//231 220//220 221//221
f 231//231 221//221 232//232
f 232//232 221//221 222//222
f 233//233 223//223 234//234
f 234//234 223//223 224//224
f 234//234 224//224 235//235
f 235//235 224//224 225//225
f 235//235 225//225 236//236
f 236//236 225//225 226//226
f 236//236 226//226 237//237
f 237//237 226//226 227//227
f 237//237 227//227 238//238
f 238//238 227//227 228//228
f 238//238 228//228 239//239
f 239//239 228//228 229//229
f 239//239 229//229 240//240
f 240//240 229//229 230//230
f 240//240 230//230 241//241
f 241//241 230//230 231//231
f 241//241 231//231 242//242
f 242//242 231//231 232//232
f 74//74 233//233 76//76
f 76//76 233//233 234//234
f 76//76 234//234 78//78
f 78//78 234//234 235//235
f 78//78 235//235 80//80
f 80//80 235//235 236//236
f 80//80 236//236 82//82
f 82//82 236//236 237//237
f 82//82 237//237 84//84
f 84//84 237//237 238//238
f 84//84 238//238 86//86
f 86//86 238//238 239//239
f 86//86 239//239 88//88
f 88//88 239//239 240//240
f 88//88 240//240 90//90
f 90//90 240//240 241//241
f 90//90 241//241 92//92
f 92//92 241//241 242//242
f 71//71 183//183 193//193
f 71//71 193//193 203//203
f 71//71 203//203 213//213
f 71//71 213//213 223//223
f 71//71 223//223 233//233
f 71//71 233//233 74//74
f 72//72 92//92 242//242
f 72//72 242//242 232//232
f 72//72 232//232 222//222
f 72//72 222//222 212//212
f 72//72 212//212 202//202
f 72//72 202//202 192//192

