# File exported by Houdini 20.5.445 (www.sidefx.com)
# 235 points
# 470 vertices
# 235 primitives
# Bounds: [-0.0124539882, -0.0108814109, -0.00165230117] to [0.00917666685, 0.399476439, 0.00143917941]
g 
v -0.00992556009 0.399476439 0
v -0.00993153453 0.397476494 0
v -0.00993750896 0.39547655 0
v -0.0099434834 0.393476605 0
v -0.00994945783 0.391476661 0
v -0.0099554332 0.389476717 0
v -0.00996140763 0.387476772 0
v -0.00996738207 0.385476828 0
v -0.0099733565 0.383476883 0
v -0.00997933093 0.381476939 0
v -0.00998530537 0.379476994 0
v -0.0099912798 0.37747705 0
v -0.00999725424 0.375477105 0
v -0.0100032287 0.373477161 0
v -0.010009204 0.371477216 0
v -0.0100151785 0.369477272 0
v -0.0100211529 0.367477328 0
v -0.0100271273 0.365477383 0
v -0.0100331018 0.363477439 0
v -0.0100390762 0.361477494 0
v -0.0100450506 0.35947755 0
v -0.0100510251 0.357477605 0
v -0.0100569995 0.355477661 0
v -0.0100629749 0.353477716 0
v -0.0100689493 0.351477772 0
v -0.0100749237 0.349477828 0
v -0.0100808982 0.347477913 0
v -0.0100868726 0.345477939 0
v -0.010092847 0.343477994 0
v -0.0100988215 0.34147805 0
v -0.0101047959 0.339478105 0
v -0.0101107704 0.337478161 0
v -0.0101167457 0.335478246 0
v -0.0101227202 0.333478272 0
v -0.0101286946 0.331478357 0
v -0.010134669 0.329478383 0
v -0.0101406435 0.327478468 0
v -0.0101466179 0.325478524 0
v -0.0101525923 0.32347858 0
v -0.0101585668 0.321478605 0
v -0.0101645412 0.319478691 0
v -0.0101705166 0.317478746 0
v -0.010176491 0.315478802 0
v -0.0101824654 0.313478857 0
v -0.0101884399 0.311478913 0
v -0.0101944143 0.309478968 0
v -0.0102003887 0.307479024 0
v -0.0102063632 0.305479079 0
v -0.0102123376 0.303479135 0
v -0.010218313 0.301479191 0
v -0.0102242874 0.299479246 0
v -0.0102302618 0.297479272 0
v -0.0102362363 0.295479357 0
v -0.0102422107 0.293479413 0
v -0.0102481851 0.291479468 0
v -0.0102541596 0.289479524 0
v -0.010260134 0.287479579 0
v -0.0102661084 0.285479635 0
v -0.0102720838 0.283479691 0
v -0.0102780582 0.281479746 0
v -0.0102840327 0.279479802 0
v -0.0102900071 0.277479857 0
v -0.0102959815 0.275479913 0
v -0.010301956 0.273479968 0
v -0.0103079304 0.271480024 0
v -0.0103139048 0.269480079 0
v -0.0103198793 0.267480135 0
v -0.0103258546 0.265480191 0
v -0.0103318291 0.263480246 0
v -0.0103378035 0.261480331 0
v -0.0103437779 0.259480357 0
v -0.0103497524 0.257480413 0
v -0.0103557268 0.255480468 0
v -0.0103617013 0.253480524 0
v -0.0103676757 0.251480579 0
v -0.0103736501 0.249480635 0
v -0.0103796255 0.24748069 0
v -0.0103855999 0.245480761 0
v -0.0103915744 0.243480802 0
v -0.0103975488 0.241480857 0
v -0.0104035232 0.239480928 0
v -0.0104094977 0.237480983 0
v -0.0104154721 0.235481039 0
v -0.0104214465 0.233481094 0
v -0.010427421 0.231481135 0
v -0.0104333963 0.229481205 0
v -0.0104393708 0.227481261 0
v -0.0104453452 0.225481302 0
v -0.0104513196 0.223481372 0
v -0.0104572941 0.221481413 0
v -0.0104632685 0.219481483 0
v -0.0104692429 0.217481539 0
v -0.0104752174 0.215481579 0
v -0.0104811918 0.21348165 0
v -0.0104871672 0.211481705 0
v -0.0104931416 0.209481776 0
v -0.010499116 0.207481816 0
v -0.0105050905 0.205481857 0
v -0.0105110649 0.203481928 0
v -0.0105170393 0.201481983 0
v -0.0105230138 0.199482054 0
v -0.0105289882 0.197482094 0
v -0.0105349626 0.195482135 0
v -0.010540938 0.19348222 0
v -0.0105469124 0.191482276 0
v -0.0105528869 0.189482316 0
v -0.0105588613 0.187482372 0
v -0.0105648357 0.185482427 0
v -0.0105708102 0.183482498 0
v -0.0105767846 0.181482553 0
v -0.010582759 0.179482594 0
v -0.0105887335 0.17748265 0
v -0.0105947088 0.175482705 0
v -0.0106006833 0.173482776 0
v -0.0106066577 0.171482831 0
v -0.0106126321 0.169482872 0
v -0.0106186066 0.167482927 0
v -0.010624581 0.165482998 0
v -0.0106305555 0.163483068 0
v -0.0106365299 0.161483109 0
v -0.0106425043 0.15948315 0
v -0.0106484797 0.15748319 0
v -0.0106544541 0.155483276 0
v -0.0106604286 0.153483331 0
v -0.010666403 0.151483387 0
v -0.0106723774 0.149483427 0
v -0.0106783519 0.147483498 0
v -0.0106843263 0.145483583 0
v -0.0106903007 0.143483639 0
v -0.0106962752 0.141483665 0
v -0.0107022505 0.13948372 0
v -0.010708225 0.137483776 0
v -0.0107141994 0.135483831 0
v -0.0107201738 0.133483887 0
v -0.0107261483 0.131483942 0
v -0.0107321227 0.129484028 0
v -0.0107380971 0.127484053 0
v -0.0107440725 0.125484079 0
v -0.010750046 0.123484194 0
v -0.0107560214 0.12148425 0
v -0.0107483668 0.119484328 0
v -0.0107291061 0.117484465 0
v -0.0107098464 0.115484625 0
v -0.0106905857 0.113484748 0
v -0.010671325 0.111484885 0
v -0.0106520653 0.109485008 0
v -0.0106328046 0.107485153 0
v -0.0106135448 0.105485335 0
v -0.0105942842 0.103485443 0
v -0.0105750244 0.101485595 0
v -0.0105557637 0.0994857252 0
v -0.010536503 0.0974858627 0
v -0.0105172433 0.0954860151 0
v -0.0104979826 0.0934861302 0
v -0.0104787219 0.0914862826 0
v -0.0104594622 0.0894863904 0
v -0.0104402015 0.0874865428 0
v -0.0104209417 0.085486725 0
v -0.0104016811 0.0834868401 0
v -0.0103824213 0.0814869925 0
v -0.0103631606 0.0794871449 0
v -0.0103439 0.0774872601 0
v -0.0103246402 0.0754874051 0
v -0.0103053795 0.0734875202 0
v -0.0102861198 0.0714876726 0
v -0.0102668591 0.0694878101 0
v -0.0102475993 0.06748797 0
v -0.0102283387 0.0654881224 0
v -0.010209078 0.0634882301 0
v -0.0101898182 0.0614883862 0
v -0.0101705575 0.0594885238 0
v -0.0101512969 0.0574886501 0
v -0.0101320371 0.0554887876 0
v -0.0101127764 0.0534889176 0
v -0.0100935167 0.0514890701 0
v -0.010074256 0.0494892076 0
v -0.0100549962 0.04748936 0
v -0.0100357356 0.0454895124 0
v -0.0100164749 0.0434896275 0
v -0.00999721512 0.041489765 0
v -0.00997795444 0.0394899175 0
v -0.00995869469 0.0374900475 0
v -0.00993943401 0.035490185 0
v -0.00992017426 0.0334903374 0
v -0.00990091357 0.03149046 0
v -0.00988165289 0.0294906348 0
v -0.00986239314 0.0274907425 0
v -0.00984313246 0.0254909098 0
v -0.00982387271 0.0234910473 0
v -0.00980461203 0.0214911625 0
v -0.00978535134 0.0194913149 0
v -0.00976609159 0.0174914375 0
v -0.00974683091 0.015491575 0
v -0.00972757116 0.0134917349 0
v -0.00970831048 0.0114918575 0
v -0.00968905073 0.00949202478 0
v -0.00966979004 0.00749213248 0
v -0.00965052936 0.00549229234 0
v -0.00963126961 0.00349244475 0
v -0.00961200893 0.00149255246 0
v -0.00959274918 -0.000507295132 0
v -0.0095734885 -0.00250716507 0
v -0.00909013674 -0.00435417052 0
v -0.00791714806 -0.00597401243 0
v -0.00674414169 -0.00759387761 0
v -0.00557117071 -0.00921369437 0
v -0.00372819742 -0.00972697977 0
v -0.00174915697 -0.0100155901 0
v 0.000229854137 -0.0103041958 0
v 0.00220889458 -0.0105928062 0
v 0.00418790383 -0.0108814109 0
v 0.0054677166 -0.00935290288 0
v 0.00674283644 -0.00781213352 0
v 0.00801793765 -0.00627138652 0
v 0.00899893697 -0.00462102052 0
v 0.00904336944 -0.00262156618 0
v 0.00908780191 -0.000622116495 0
v 0.00913223438 0.00137736741 0
v 0.00917666685 0.0033768178 0
v 0.00812742952 0.00493746018 0
v 0.00671325624 0.006351633 0
v 0.0052990769 0.0077658128 0
v 0.00388487941 0.00918000937 0
v 0.00233231089 0.0102600018 0
v 0.000332338968 0.0102600018 0
v -0.00166760036 0.0102600018 0
v -0.00366754434 0.0102600018 0
v -0.00566751603 0.0102600018 0
v -0.00723621994 0.0103293136 -0.000213859385
v -0.00903408322 0.0107955178 -0.00165230117
v -0.0108996741 0.0104739303 -0.00151649956
v -0.0124539882 0.0102601051 -0.000528154196
v -0.0121486876 0.0102601051 0.00112472929
v -0.0103030782 0.0107708322 0.00143917941
v -0.0089730816 0.011011418 0.001400762
g 
l 2 1
l 3 2
l 4 3
l 5 4
l 6 5
l 7 6
l 8 7
l 9 8
l 10 9
l 11 10
l 12 11
l 13 12
l 14 13
l 15 14
l 16 15
l 17 16
l 18 17
l 19 18
l 20 19
l 21 20
l 22 21
l 23 22
l 24 23
l 25 24
l 26 25
l 27 26
l 28 27
l 29 28
l 30 29
l 31 30
l 32 31
l 33 32
l 34 33
l 35 34
l 36 35
l 37 36
l 38 37
l 39 38
l 40 39
l 41 40
l 42 41
l 43 42
l 44 43
l 45 44
l 46 45
l 47 46
l 48 47
l 49 48
l 50 49
l 51 50
l 52 51
l 53 52
l 54 53
l 55 54
l 56 55
l 57 56
l 58 57
l 59 58
l 60 59
l 61 60
l 62 61
l 63 62
l 64 63
l 65 64
l 66 65
l 67 66
l 68 67
l 69 68
l 70 69
l 71 70
l 72 71
l 73 72
l 74 73
l 75 74
l 76 75
l 77 76
l 78 77
l 79 78
l 80 79
l 81 80
l 82 81
l 83 82
l 84 83
l 85 84
l 86 85
l 87 86
l 88 87
l 89 88
l 90 89
l 91 90
l 92 91
l 93 92
l 94 93
l 95 94
l 96 95
l 97 96
l 98 97
l 99 98
l 100 99
l 101 100
l 102 101
l 103 102
l 104 103
l 105 104
l 106 105
l 107 106
l 108 107
l 109 108
l 110 109
l 111 110
l 112 111
l 113 112
l 114 113
l 115 114
l 116 115
l 117 116
l 118 117
l 119 118
l 120 119
l 121 120
l 122 121
l 123 122
l 124 123
l 125 124
l 126 125
l 127 126
l 128 127
l 129 128
l 130 129
l 131 130
l 132 131
l 133 132
l 134 133
l 135 134
l 136 135
l 137 136
l 138 137
l 139 138
l 140 139
l 141 140
l 142 141
l 143 142
l 144 143
l 145 144
l 146 145
l 147 146
l 148 147
l 149 148
l 150 149
l 151 150
l 152 151
l 153 152
l 154 153
l 155 154
l 156 155
l 157 156
l 158 157
l 159 158
l 160 159
l 161 160
l 162 161
l 163 162
l 164 163
l 165 164
l 166 165
l 167 166
l 168 167
l 169 168
l 170 169
l 171 170
l 172 171
l 173 172
l 174 173
l 175 174
l 176 175
l 177 176
l 178 177
l 179 178
l 180 179
l 181 180
l 182 181
l 183 182
l 184 183
l 185 184
l 186 185
l 187 186
l 188 187
l 189 188
l 190 189
l 191 190
l 192 191
l 193 192
l 194 193
l 195 194
l 196 195
l 197 196
l 198 197
l 199 198
l 200 199
l 201 200
l 202 201
l 203 202
l 204 203
l 205 204
l 206 205
l 207 206
l 208 207
l 209 208
l 210 209
l 211 210
l 212 211
l 213 212
l 214 213
l 215 214
l 216 215
l 217 216
l 218 217
l 219 218
l 220 219
l 221 220
l 222 221
l 223 222
l 224 223
l 225 224
l 226 225
l 227 226
l 228 227
l 229 228
l 230 229
l 231 230
l 232 231
l 233 232
l 234 233
l 235 234
l 229 235
