# https://github.com/mikedh/trimesh
v -0.02449999 0.00114253 -0.01530549
v -0.02449998 0.00201240 -0.01599920
v -0.02449999 0.00249514 -0.01700161
v -0.02449999 0.00249514 -0.01811422
v -0.02449999 0.00201240 -0.01911664
v -0.02449999 0.00114253 -0.01981034
v -0.02449999 0.00005782 -0.02005792
v -0.02449998 -0.00102688 -0.01981035
v -0.02449999 -0.00189676 -0.01911664
v -0.02449998 -0.00237949 -0.01811423
v -0.02450000 0.00005783 -0.01505792
v -0.02449998 -0.00102689 -0.01530550
v -0.02449998 -0.00237950 -0.01700162
v -0.02449998 -0.00189676 -0.01599919
v -0.01899784 0.00005783 -0.01755792
v -0.02049999 0.00005782 -0.01505792
v -0.02049999 0.00114253 -0.01530550
v -0.02049999 0.00249514 -0.01700162
v -0.02049998 0.00249514 -0.01811422
v -0.02049999 0.00201240 -0.01599919
v -0.02049999 0.00114253 -0.01981035
v -0.02049999 0.00005782 -0.02005792
v -0.02049998 0.00201240 -0.01911664
v -0.02049999 -0.00189675 -0.01911665
v -0.02049999 -0.00237949 -0.01811421
v -0.02049999 -0.00102688 -0.01981034
v -0.02050000 -0.00189675 -0.01599919
v -0.02049999 -0.00102688 -0.01530549
v -0.02049999 -0.00237949 -0.01700162
f 15 16 17
f 11 17 16
f 11 16 12
f 12 16 28
f 12 28 14
f 14 28 27
f 14 27 13
f 13 27 29
f 29 27 15
f 25 29 15
f 15 24 25
f 26 24 15
f 8 24 26
f 8 26 7
f 7 26 22
f 7 22 6
f 6 22 21
f 6 21 5
f 5 21 23
f 23 21 15
f 19 23 15
f 4 23 19
f 4 19 3
f 3 19 18
f 3 18 2
f 2 18 20
f 2 20 1
f 1 20 17
f 20 18 15
f 15 18 19
f 5 23 4
f 15 21 22
f 9 24 8
f 22 26 15
f 9 25 24
f 10 25 9
f 10 29 25
f 13 29 10
f 15 27 28
f 1 17 11
f 28 16 15
f 17 20 15

