# https://github.com/mikedh/trimesh
v 0.00871724 0.00405782 0.00223822
v 0.00900000 0.00405782 0.00000002
v 0.00788675 0.00405782 0.00433579
v 0.00656071 0.00405782 0.00616093
v 0.00482243 0.00405782 0.00759895
v 0.00278113 0.00405783 0.00855951
v 0.00056510 0.00405782 0.00898223
v -0.00168644 0.00405782 0.00884057
v -0.00383202 0.00405782 0.00814344
v -0.00573683 0.00405782 0.00693461
v -0.00728115 0.00405783 0.00529006
v -0.00836799 0.00405782 0.00331311
v -0.00892903 0.00405782 0.00112799
v -0.00900000 0.00405782 -0.00000001
v -0.00892903 0.00405782 -0.00112801
v -0.00836798 0.00405782 -0.00331313
v -0.00728115 0.00405782 -0.00529007
v -0.00573681 0.00405782 -0.00693463
v -0.00383200 0.00405782 -0.00814345
v -0.00168642 0.00405783 -0.00884059
v 0.00056512 0.00405782 -0.00898224
v 0.00278117 0.00405783 -0.00855950
v 0.00482244 0.00405782 -0.00759895
v 0.00656072 0.00405782 -0.00616092
v 0.00788677 0.00405783 -0.00433577
v 0.00871725 0.00405782 -0.00223819
v -0.01314020 0.00405783 -0.00955791
v -0.01232077 0.00405783 -0.00973347
v -0.01163846 0.00405782 -0.01023701
v -0.01687614 0.00405782 -0.00963135
v -0.01649999 0.00405782 -0.00955791
v -0.01720376 0.00405782 -0.00984748
v -0.01742296 0.00405783 -0.01017305
v -0.01749999 0.00405783 -0.01055792
v -0.01749999 0.00405782 -0.00246188
v 0.00484484 0.00405783 -0.01472337
v 0.00637050 0.00405783 -0.01560558
v 0.00650002 0.00405783 -0.01621532
v -0.00977787 0.00405782 -0.01202678
v -0.00764601 0.00405782 -0.01348289
v -0.00530203 0.00405783 -0.01456496
v -0.00281096 0.00405782 -0.01524298
v -0.00024192 0.00405783 -0.01549812
v 0.00233384 0.00405782 -0.01532329
v 0.00600431 0.00405783 -0.01510115
v 0.00650000 0.00405782 -0.01036989
v -0.00141974 0.00405782 0.01269851
v 0.01150000 0.00405782 0.00288998
v 0.01150000 0.00405782 -0.00655607
v 0.00583883 0.00405782 0.01189966
v 0.00773489 0.00405783 0.01070829
v -0.00329264 0.00405783 0.01213144
v -0.00501925 0.00405782 0.01121048
v -0.01304700 0.00405783 0.00585864
v 0.00546470 0.00405783 -0.01478911
v 0.01150000 0.00405782 -0.01036988
v 0.01124927 0.00405782 0.00511518
v 0.01050969 0.00405782 0.00722882
v 0.00931831 0.00405782 0.00912488
v 0.00052774 0.00405783 0.01288997
v 0.00149998 0.00405783 0.01288997
v 0.00372520 0.00405782 0.01263926
v -0.01456515 0.00405782 0.00461510
v -0.01730744 0.00405782 -0.00050892
v -0.01673719 0.00405783 0.00136883
v -0.01581121 0.00405782 0.00309904
v 0.01136170 0.00405781 -0.01621530
v 0.01150001 0.00405783 -0.01455789
f 30 32 35
f 15 30 35
f 15 35 14
f 35 64 14
f 14 64 65
f 14 65 13
f 13 65 66
f 13 66 63
f 63 12 13
f 54 12 63
f 54 11 12
f 10 11 54
f 53 10 54
f 53 9 10
f 52 9 53
f 52 8 9
f 47 8 52
f 7 8 47
f 47 60 7
f 7 60 61
f 7 61 6
f 6 61 62
f 6 62 50
f 6 50 5
f 5 50 51
f 5 51 4
f 59 4 51
f 58 4 59
f 58 3 4
f 57 3 58
f 57 1 3
f 48 1 57
f 48 2 1
f 26 2 48
f 48 49 26
f 49 25 26
f 49 24 25
f 56 24 49
f 56 23 24
f 46 23 56
f 68 46 56
f 68 38 46
f 37 46 38
f 45 46 37
f 45 55 46
f 46 55 36
f 46 36 20
f 20 36 44
f 20 44 43
f 42 20 43
f 41 20 42
f 41 19 20
f 40 19 41
f 40 18 19
f 39 18 40
f 39 17 18
f 29 17 39
f 29 28 17
f 17 28 27
f 17 27 16
f 27 31 16
f 16 31 30
f 46 20 21
f 21 22 46
f 67 38 68
f 46 22 23
f 16 30 15
f 35 32 33
f 35 33 34

