v 0.50188830 0.04580179 0.86592561
v 0.50115709 0.04990799 0.86603743
v 0.50015905 0.05393890 0.86619654
v 0.49804959 0.05751973 0.86656439
v 0.49502713 0.06026669 0.86710447
v 0.49120565 0.06123684 0.86782775
v 0.48822012 0.05929705 0.87037368
v 0.48822710 0.05534467 0.87169735
v 0.48953660 0.05147835 0.87017170
v 0.49169932 0.04827162 0.86895291
v 0.49537722 0.04681144 0.86962752
v 0.49868142 0.04952446 0.86920333
v 0.49948749 0.05342483 0.86863572
v 0.49824544 0.05754407 0.86908660
v 0.49617596 0.06100255 0.86936344
v 0.49235345 0.06209293 0.87058698
v 0.48829634 0.06259303 0.87034932
v 0.48479413 0.06082817 0.86953168
v 0.48248451 0.05733277 0.86942802
v 0.48191109 0.05317140 0.86955583
v 0.48222101 0.04884946 0.86951958
v 0.48073834 0.04511440 0.86980904
v 0.47646025 0.04471021 0.87059346
v 0.47324063 0.04726790 0.87116769
v 0.46984480 0.04989475 0.87177578
v 0.46592764 0.05051261 0.87248372
v 0.46192823 0.04988611 0.87321815
v 0.45895262 0.04717185 0.87377481
v 0.45908018 0.04305641 0.87376798
v 0.46255954 0.04113136 0.87314152
v 0.46612617 0.04329705 0.87305846
v 0.46695681 0.04705551 0.87424152
v 0.46619272 0.05096894 0.87510107
v 0.46349429 0.05363613 0.87376660
v 0.45947253 0.05320099 0.87364921
v 0.45634420 0.05072295 0.87423377
v 0.45471371 0.04704463 0.87454833
v 0.45483854 0.04302955 0.87454084
v 0.45701233 0.03954377 0.87415946
v 0.46078946 0.03812724 0.87347477
v 0.46466861 0.03905072 0.87276385
v 0.46785637 0.04147172 0.87299402
v 0.47083970 0.04382275 0.87438608
v 0.47404781 0.04598518 0.87551189
v 0.47684373 0.04882128 0.87626808
v 0.47858459 0.05234411 0.87705397
v 0.47933243 0.05633759 0.87768942
v 0.47900752 0.06039696 0.87765678
v 0.47782548 0.06432189 0.87759914
v 0.47557756 0.06759259 0.87697258
v 0.47348364 0.07117146 0.87619492
l 1 2
l 2 3
l 3 4
l 4 5
l 5 6
l 6 7
l 7 8
l 8 9
l 9 10
l 10 11
l 11 12
l 12 13
l 13 14
l 14 15
l 15 16
l 16 17
l 17 18
l 18 19
l 19 20
l 20 21
l 21 22
l 22 23
l 23 24
l 24 25
l 25 26
l 26 27
l 27 28
l 28 29
l 29 30
l 30 31
l 31 32
l 32 33
l 33 34
l 34 35
l 35 36
l 36 37
l 37 38
l 38 39
l 39 40
l 40 41
l 41 42
l 42 43
l 43 44
l 44 45
l 45 46
l 46 47
l 47 48
l 48 49
l 49 50
l 50 51
