v 0.55372724 0.02315399 0.86253530
v 0.55028730 0.02548848 0.86244278
v 0.54867091 0.02931388 0.86250009
v 0.54926286 0.03330734 0.86215151
v 0.55050780 0.03711930 0.86167049
v 0.55198855 0.04093505 0.86108986
v 0.55374411 0.04425962 0.85937287
v 0.55623302 0.04746186 0.85961760
v 0.55899465 0.04563174 0.85710556
v 0.55615089 0.04246226 0.85697614
v 0.55426169 0.04001852 0.85957002
v 0.55357849 0.03798727 0.86306181
v 0.55011411 0.03637100 0.86456159
v 0.54773997 0.03328843 0.86569514
v 0.54523630 0.03013418 0.86507322
v 0.54222889 0.03214948 0.86335970
v 0.54385642 0.03593524 0.86282514
v 0.54692804 0.03813494 0.86418596
v 0.55069018 0.03914506 0.86510144
v 0.55244134 0.03832362 0.86903386
v 0.54944390 0.03723079 0.87182417
v 0.54557019 0.03764205 0.87072031
v 0.54315866 0.03961270 0.86801760
v 0.54284216 0.04084651 0.86417467
v 0.54536800 0.04240622 0.86142057
v 0.54922398 0.04369482 0.86243127
v 0.55170677 0.04232964 0.86544710
v 0.55133017 0.04067138 0.86920706
v 0.54866939 0.03988185 0.87234475
v 0.54485642 0.03884034 0.87321500
v 0.54106986 0.03811816 0.87197635
v 0.53808293 0.04031743 0.86991651
v 0.53666619 0.04362344 0.86784400
v 0.53837313 0.04705678 0.86614690
v 0.54208360 0.04867897 0.86599037
v 0.54597552 0.04826968 0.86724281
v 0.54795529 0.04501284 0.86903666
v 0.54711342 0.04197842 0.87152127
v 0.54341472 0.04124766 0.87347322
v 0.54023331 0.04415409 0.87374206
v 0.53825928 0.04771739 0.87329994
v 0.53624433 0.05116486 0.87268350
v 0.53247928 0.05269986 0.87357748
v 0.52953934 0.05071397 0.87560220
v 0.53027788 0.04698865 0.87733680
v 0.53347840 0.04481388 0.87836487
v 0.53738706 0.04388731 0.87894298
v 0.54147119 0.04383173 0.87883351
v 0.54536051 0.04428878 0.87746443
v 0.54878349 0.04491753 0.87534887
v 0.55217781 0.04568888 0.87328924
l 1 2
l 2 3
l 3 4
l 4 5
l 5 6
l 6 7
l 7 8
l 8 9
l 9 10
l 10 11
l 11 12
l 12 13
l 13 14
l 14 15
l 15 16
l 16 17
l 17 18
l 18 19
l 19 20
l 20 21
l 21 22
l 22 23
l 23 24
l 24 25
l 25 26
l 26 27
l 27 28
l 28 29
l 29 30
l 30 31
l 31 32
l 32 33
l 33 34
l 34 35
l 35 36
l 36 37
l 37 38
l 38 39
l 39 40
l 40 41
l 41 42
l 42 43
l 43 44
l 44 45
l 45 46
l 46 47
l 47 48
l 48 49
l 49 50
l 50 51
