v 0.52965979 0.00078542 0.86474012
v 0.52586578 -0.00059166 0.86394150
v 0.52223477 -0.00053137 0.86225090
v 0.51830491 -0.00037303 0.86298072
v 0.51521596 -0.00303778 0.86356112
v 0.51486057 -0.00706995 0.86375126
v 0.51829630 -0.00891434 0.86503025
v 0.52177283 -0.00710725 0.86613574
v 0.52384964 -0.00369338 0.86568066
v 0.52408028 0.00026816 0.86618531
v 0.52179704 0.00363214 0.86680016
v 0.51890463 0.00625535 0.86538021
v 0.51513403 0.00783161 0.86623223
v 0.51118463 0.00922193 0.86679677
v 0.51009647 0.01319758 0.86717193
v 0.51274837 0.01607751 0.86614955
v 0.51647085 0.01685672 0.86749056
v 0.51996882 0.01801782 0.86921902
v 0.52331597 0.02055778 0.86940006
v 0.52406741 0.02439064 0.86835383
v 0.52144508 0.02747331 0.86754904
v 0.51743161 0.02819096 0.86802188
v 0.51391051 0.02722213 0.86972236
v 0.51267586 0.02397521 0.87174706
v 0.51507758 0.02070978 0.87075659
v 0.51908503 0.02059621 0.86971655
v 0.52166452 0.02365558 0.86986625
v 0.52066991 0.02768571 0.87015938
v 0.51713355 0.02965967 0.87049855
v 0.51303929 0.02964264 0.87051271
v 0.50998371 0.02669910 0.87078785
v 0.50788404 0.02294990 0.87129837
v 0.50790885 0.01895658 0.87213993
v 0.51004216 0.01544182 0.87288770
v 0.51297697 0.01270469 0.87376262
v 0.51682661 0.01167741 0.87440484
v 0.52081363 0.01310251 0.87449082
v 0.52356884 0.01600252 0.87506365
v 0.52428722 0.01951792 0.87714273
v 0.52298760 0.02325078 0.87830397
v 0.52123544 0.02658141 0.87677465
v 0.51778070 0.02867653 0.87543931
v 0.51367871 0.02845065 0.87540297
v 0.51028895 0.02635499 0.87601951
v 0.50762872 0.02336662 0.87644626
v 0.50590575 0.01991133 0.87774671
v 0.50606937 0.01626430 0.87938929
v 0.50876460 0.01340023 0.88038166
v 0.51280568 0.01242555 0.88027304
v 0.51674970 0.01309709 0.87965117
v 0.52048924 0.01441333 0.87902984
l 1 2
l 2 3
l 3 4
l 4 5
l 5 6
l 6 7
l 7 8
l 8 9
l 9 10
l 10 11
l 11 12
l 12 13
l 13 14
l 14 15
l 15 16
l 16 17
l 17 18
l 18 19
l 19 20
l 20 21
l 21 22
l 22 23
l 23 24
l 24 25
l 25 26
l 26 27
l 27 28
l 28 29
l 29 30
l 30 31
l 31 32
l 32 33
l 33 34
l 34 35
l 35 36
l 36 37
l 37 38
l 38 39
l 39 40
l 40 41
l 41 42
l 42 43
l 43 44
l 44 45
l 45 46
l 46 47
l 47 48
l 48 49
l 49 50
l 50 51
