v 0.54614865 0.02909458 0.86284709
v 0.54663187 0.03323439 0.86258173
v 0.54785907 0.03700778 0.86206492
v 0.54912732 0.04090738 0.86150790
v 0.55083229 0.04375356 0.85910910
v 0.55273369 0.04721440 0.85744800
v 0.55348898 0.05127430 0.85702070
v 0.55212699 0.05506619 0.85711252
v 0.54976347 0.05766594 0.85933333
v 0.54642412 0.05537369 0.86032868
v 0.54601151 0.05200561 0.85818805
v 0.54685795 0.04809283 0.85783126
v 0.54900446 0.04545863 0.86019540
v 0.55073908 0.04680441 0.86358270
v 0.55045599 0.05074508 0.86446153
v 0.54771114 0.05357913 0.86375004
v 0.54443549 0.05398116 0.86147885
v 0.54330123 0.05129754 0.85815348
v 0.54355479 0.04711513 0.85812450
v 0.54606470 0.04493005 0.86051217
v 0.54795783 0.04739965 0.86304131
v 0.54651675 0.05111461 0.86239215
v 0.54268715 0.05052379 0.86099421
v 0.54051742 0.04764380 0.85869243
v 0.53795368 0.04507696 0.86052501
v 0.53858555 0.04439186 0.86464977
v 0.54174914 0.04518713 0.86719118
v 0.54545808 0.04618824 0.86576384
v 0.54454265 0.04782792 0.86191124
v 0.54057615 0.04733612 0.86168951
v 0.53641249 0.04870381 0.86182867
v 0.53452225 0.05209663 0.86074599
v 0.53289354 0.05544595 0.86222087
v 0.53068933 0.05552351 0.86561476
v 0.53162486 0.05257412 0.86819698
v 0.53377145 0.04921149 0.86712559
v 0.53715059 0.04871422 0.86473085
v 0.53981153 0.05229312 0.86528873
v 0.53941152 0.05606332 0.86373952
v 0.53574600 0.05681315 0.86176701
v 0.53237389 0.05836005 0.86380506
v 0.53167610 0.06078051 0.86720244
v 0.53117745 0.06186341 0.87102772
v 0.53116202 0.06182721 0.87507630
v 0.53363139 0.06289130 0.87824581
v 0.53748399 0.06389635 0.87868440
v 0.54079999 0.06244796 0.87627972
v 0.54021735 0.05919229 0.87396946
v 0.53705538 0.05673488 0.87382733
v 0.53334313 0.05493278 0.87486598
v 0.53025076 0.05294711 0.87689471
l 1 2
l 2 3
l 3 4
l 4 5
l 5 6
l 6 7
l 7 8
l 8 9
l 9 10
l 10 11
l 11 12
l 12 13
l 13 14
l 14 15
l 15 16
l 16 17
l 17 18
l 18 19
l 19 20
l 20 21
l 21 22
l 22 23
l 23 24
l 24 25
l 25 26
l 26 27
l 27 28
l 28 29
l 29 30
l 30 31
l 31 32
l 32 33
l 33 34
l 34 35
l 35 36
l 36 37
l 37 38
l 38 39
l 39 40
l 40 41
l 41 42
l 42 43
l 43 44
l 44 45
l 45 46
l 46 47
l 47 48
l 48 49
l 49 50
l 50 51
