v 0.51803577 0.04145491 0.86292454
v 0.51410614 0.04238711 0.86365422
v 0.51002730 0.04260432 0.86441611
v 0.50579285 0.04246502 0.86520898
v 0.50185895 0.04236089 0.86594604
v 0.49933701 0.04523509 0.86751802
v 0.50098509 0.04876755 0.86858797
v 0.50451423 0.05065011 0.86806557
v 0.50858766 0.05089335 0.86707755
v 0.51097304 0.04758334 0.86645315
v 0.51071492 0.04362702 0.86710356
v 0.50796110 0.04074863 0.86769532
v 0.50416557 0.03887321 0.86785791
v 0.49981045 0.03857193 0.86892896
v 0.49655667 0.04095417 0.86816179
v 0.49526281 0.04351662 0.87097878
v 0.49498292 0.04583373 0.87442173
v 0.49383579 0.04969002 0.87471110
v 0.49067553 0.05166672 0.87270924
v 0.48686162 0.05003387 0.87282047
v 0.48601797 0.04612254 0.87333384
v 0.48809954 0.04261742 0.87321477
v 0.49175093 0.04108748 0.87201562
v 0.49580064 0.04149026 0.87246453
v 0.49819501 0.04425847 0.87441495
v 0.49584652 0.04616250 0.87712046
v 0.49220756 0.04460012 0.87642307
v 0.49093208 0.04078905 0.87497998
v 0.49032734 0.03763135 0.87241029
v 0.48790295 0.03487865 0.87075910
v 0.48446054 0.03464895 0.87303579
v 0.48284378 0.03761874 0.87561973
v 0.48104341 0.04121734 0.87569023
v 0.47948661 0.04476510 0.87468180
v 0.47842124 0.04856091 0.87375688
v 0.47859325 0.05238926 0.87254553
v 0.47846732 0.05643071 0.87250236
v 0.47564754 0.05930423 0.87361316
v 0.47208457 0.05854913 0.87552927
v 0.46937154 0.05562887 0.87669808
v 0.46863225 0.05156461 0.87606012
v 0.46925441 0.04828772 0.87376623
v 0.47158632 0.04537704 0.87194970
v 0.47518400 0.04413546 0.87332481
v 0.47783382 0.04504710 0.87664117
v 0.48072039 0.04768079 0.87841810
v 0.48350081 0.05092693 0.87850374
v 0.48572944 0.05457234 0.87826158
v 0.48707595 0.05842013 0.87801072
v 0.48773477 0.06250237 0.87813673
v 0.48805008 0.06653234 0.87831032
l 1 2
l 2 3
l 3 4
l 4 5
l 5 6
l 6 7
l 7 8
l 8 9
l 9 10
l 10 11
l 11 12
l 12 13
l 13 14
l 14 15
l 15 16
l 16 17
l 17 18
l 18 19
l 19 20
l 20 21
l 21 22
l 22 23
l 23 24
l 24 25
l 25 26
l 26 27
l 27 28
l 28 29
l 29 30
l 30 31
l 31 32
l 32 33
l 33 34
l 34 35
l 35 36
l 36 37
l 37 38
l 38 39
l 39 40
l 40 41
l 41 42
l 42 43
l 43 44
l 44 45
l 45 46
l 46 47
l 47 48
l 48 49
l 49 50
l 50 51
