v 0.56719488 0.06895163 0.86140857
v 0.56381306 0.07102651 0.86073346
v 0.56051012 0.07343743 0.86024570
v 0.55727204 0.07603504 0.85996106
v 0.55454953 0.07872296 0.86179326
v 0.55171685 0.08023186 0.86423789
v 0.54821122 0.08203528 0.86517772
v 0.54525350 0.08485308 0.86595426
v 0.54354566 0.08849119 0.86723172
v 0.54087967 0.09165225 0.86827144
v 0.53712597 0.09317458 0.86853066
v 0.53318453 0.09388407 0.86853304
v 0.52901878 0.09361324 0.86834219
v 0.52669919 0.09055941 0.86951339
v 0.52798797 0.08674474 0.86942484
v 0.53183163 0.08657957 0.86809870
v 0.53489433 0.08932855 0.86772769
v 0.53886175 0.08993240 0.86750388
v 0.54150933 0.08706852 0.86657460
v 0.54114735 0.08307881 0.86634368
v 0.53806094 0.08103649 0.86812646
v 0.53429569 0.08123265 0.86957038
v 0.53282728 0.08451980 0.87141811
v 0.53416329 0.08856157 0.87087933
v 0.53568483 0.09251278 0.87109398
v 0.53740810 0.09637973 0.87082284
v 0.54077590 0.09849817 0.87132479
v 0.54440345 0.09816363 0.87334853
v 0.54781968 0.09686724 0.87501596
v 0.55169283 0.09566037 0.87474704
v 0.55536263 0.09459233 0.87356296
v 0.55831514 0.09245382 0.87176048
v 0.55806908 0.08902980 0.86959253
v 0.55438355 0.08774882 0.86836012
v 0.55039234 0.08889101 0.86853885
v 0.54688302 0.08942921 0.87039265
v 0.54330107 0.08810142 0.87215692
v 0.53982017 0.08596179 0.87289981
v 0.53688289 0.08341684 0.87408270
v 0.53396993 0.08093874 0.87621153
v 0.53059977 0.08003192 0.87865814
v 0.52805671 0.08300104 0.88025192
v 0.52825982 0.08702149 0.87926347
v 0.52996397 0.09053258 0.87746343
v 0.53274578 0.09343896 0.87549715
v 0.53634985 0.09402676 0.87386183
v 0.54067388 0.09336278 0.87347142
v 0.54473756 0.09374654 0.87280232
v 0.54867184 0.09461036 0.87190935
v 0.55272481 0.09342371 0.87110508
v 0.55569223 0.09060412 0.87014959
l 1 2
l 2 3
l 3 4
l 4 5
l 5 6
l 6 7
l 7 8
l 8 9
l 9 10
l 10 11
l 11 12
l 12 13
l 13 14
l 14 15
l 15 16
l 16 17
l 17 18
l 18 19
l 19 20
l 20 21
l 21 22
l 22 23
l 23 24
l 24 25
l 25 26
l 26 27
l 27 28
l 28 29
l 29 30
l 30 31
l 31 32
l 32 33
l 33 34
l 34 35
l 35 36
l 36 37
l 37 38
l 38 39
l 39 40
l 40 41
l 41 42
l 42 43
l 43 44
l 44 45
l 45 46
l 46 47
l 47 48
l 48 49
l 49 50
l 50 51
