v 0.54661371 0.06468751 0.85784413
v 0.54975106 0.06209362 0.85747747
v 0.55257848 0.05909722 0.85735237
v 0.55421455 0.05561182 0.85902622
v 0.55138289 0.05490196 0.86190139
v 0.54834067 0.05751856 0.86222828
v 0.54530272 0.05976607 0.86079483
v 0.54329497 0.06294550 0.85919233
v 0.54481301 0.06673249 0.85811398
v 0.54870613 0.06794996 0.85794438
v 0.55262891 0.06919736 0.85851154
v 0.55545625 0.07070176 0.86119965
v 0.55923798 0.07105852 0.86270334
v 0.56315019 0.07193631 0.86329168
v 0.56577869 0.07457188 0.86499779
v 0.56514408 0.07789408 0.86731107
v 0.56179146 0.08005919 0.86815804
v 0.55816660 0.08089815 0.86643201
v 0.55443914 0.08166219 0.86512981
v 0.55072628 0.08320962 0.86600143
v 0.54739744 0.08449168 0.86796140
v 0.54346554 0.08476713 0.86903757
v 0.53976771 0.08359444 0.87037787
v 0.53692819 0.08067034 0.87142936
v 0.53388467 0.07794374 0.87058772
v 0.53134294 0.07483047 0.86910677
v 0.52881687 0.07176280 0.86781504
v 0.52772576 0.06786094 0.86818558
v 0.53024448 0.06479578 0.86935152
v 0.53302878 0.06561736 0.87211297
v 0.53332603 0.06760494 0.87568705
v 0.53457630 0.06780296 0.87971810
v 0.53805053 0.06689664 0.88188968
v 0.54219594 0.06561280 0.88170309
v 0.54520310 0.06472423 0.87904575
v 0.54624795 0.06373932 0.87511325
v 0.54587107 0.06134360 0.87173421
v 0.54555292 0.05745595 0.87019493
v 0.54721762 0.05359254 0.87019817
v 0.54595480 0.05016813 0.87195475
v 0.54212184 0.04949783 0.87090226
v 0.53921898 0.05188916 0.86875180
v 0.53775303 0.05459277 0.86613282
v 0.53597418 0.05807796 0.86441589
v 0.53367796 0.06141882 0.86490712
v 0.53353689 0.06373355 0.86846705
v 0.53546342 0.06475668 0.87182435
v 0.53483188 0.06489870 0.87594100
v 0.53188427 0.06554241 0.87875471
v 0.52845591 0.06697444 0.88041466
v 0.52473090 0.06872412 0.88185039
l 1 2
l 2 3
l 3 4
l 4 5
l 5 6
l 6 7
l 7 8
l 8 9
l 9 10
l 10 11
l 11 12
l 12 13
l 13 14
l 14 15
l 15 16
l 16 17
l 17 18
l 18 19
l 19 20
l 20 21
l 21 22
l 22 23
l 23 24
l 24 25
l 25 26
l 26 27
l 27 28
l 28 29
l 29 30
l 30 31
l 31 32
l 32 33
l 33 34
l 34 35
l 35 36
l 36 37
l 37 38
l 38 39
l 39 40
l 40 41
l 41 42
l 42 43
l 43 44
l 44 45
l 45 46
l 46 47
l 47 48
l 48 49
l 49 50
l 50 51
