v 0.52376109 0.07309773 0.86169305
v 0.52015579 0.07489919 0.86235250
v 0.51695072 0.07741314 0.86293249
v 0.51798022 0.08130356 0.86311047
v 0.52176361 0.08231940 0.86422138
v 0.52446092 0.08500160 0.86630973
v 0.52748175 0.08777328 0.86681681
v 0.53004457 0.08437211 0.86610005
v 0.52727785 0.08153738 0.86526330
v 0.52535988 0.07996628 0.86201621
v 0.52137654 0.07921742 0.86209763
v 0.52077926 0.07973686 0.86608931
v 0.52287990 0.08180009 0.86881582
v 0.52475599 0.08536678 0.86911264
v 0.52485665 0.08924409 0.86813004
v 0.52409039 0.09329728 0.86795617
v 0.52311241 0.09714863 0.86888959
v 0.52413638 0.10099064 0.87018636
v 0.52794774 0.10230394 0.87118980
v 0.53117823 0.09989014 0.87148566
v 0.53132966 0.09585852 0.87127915
v 0.53021641 0.09194090 0.87066761
v 0.52781548 0.08874910 0.87197326
v 0.52451589 0.09036130 0.87378189
v 0.52370119 0.09423098 0.87295078
v 0.52263037 0.09795960 0.87183868
v 0.52014774 0.10109907 0.87085685
v 0.51767223 0.10418996 0.87015619
v 0.51687637 0.10793671 0.86864997
v 0.51779488 0.11191606 0.86897451
v 0.52010973 0.11388140 0.87158120
v 0.52272795 0.11276733 0.87439755
v 0.52525709 0.10975055 0.87534783
v 0.52696866 0.10589193 0.87535506
v 0.52783933 0.10196596 0.87547315
v 0.52816743 0.09793436 0.87606706
v 0.52805722 0.09387810 0.87686897
v 0.52743478 0.08985422 0.87654749
v 0.52653434 0.08594741 0.87570895
v 0.52625346 0.08185031 0.87539641
v 0.52743272 0.07814911 0.87438626
v 0.52817398 0.07442149 0.87276008
v 0.52629753 0.07068907 0.87192714
v 0.52267149 0.06999065 0.87350933
v 0.52040830 0.07276812 0.87531981
v 0.52029131 0.07698237 0.87592320
v 0.52104753 0.08093630 0.87709163
v 0.52202853 0.08477582 0.87810196
v 0.52322780 0.08850819 0.87924191
v 0.52388433 0.09256699 0.87989912
v 0.52453920 0.09661651 0.87999488
l 1 2
l 2 3
l 3 4
l 4 5
l 5 6
l 6 7
l 7 8
l 8 9
l 9 10
l 10 11
l 11 12
l 12 13
l 13 14
l 14 15
l 15 16
l 16 17
l 17 18
l 18 19
l 19 20
l 20 21
l 21 22
l 22 23
l 23 24
l 24 25
l 25 26
l 26 27
l 27 28
l 28 29
l 29 30
l 30 31
l 31 32
l 32 33
l 33 34
l 34 35
l 35 36
l 36 37
l 37 38
l 38 39
l 39 40
l 40 41
l 41 42
l 42 43
l 43 44
l 44 45
l 45 46
l 46 47
l 47 48
l 48 49
l 49 50
l 50 51
