v 0.53263726 -0.00606222 0.86147764
v 0.52978081 -0.00318378 0.86125836
v 0.52887036 0.00114858 0.86112021
v 0.52778117 0.00488444 0.86225116
v 0.52459817 0.00575774 0.86454858
v 0.52153487 0.00306696 0.86417817
v 0.52096455 -0.00083816 0.86517335
v 0.52043554 -0.00440219 0.86329294
v 0.52092132 -0.00859895 0.86291281
v 0.52235274 -0.01089418 0.86612073
v 0.52321868 -0.00870808 0.86937989
v 0.52249441 -0.00460377 0.86951811
v 0.52213836 -0.00045551 0.86841935
v 0.52191938 0.00346469 0.86934954
v 0.52178922 0.00749729 0.86931127
v 0.52386421 0.01094863 0.86889103
v 0.52749139 0.01158592 0.87047198
v 0.52909001 0.00856603 0.87257130
v 0.52729414 0.00488367 0.87341963
v 0.52317586 0.00329709 0.87327016
v 0.52006997 0.00467656 0.87112810
v 0.51932908 0.00870969 0.87017527
v 0.52115061 0.01247101 0.86941036
v 0.52478651 0.01406465 0.86889269
v 0.52860338 0.01406369 0.87036336
v 0.53019119 0.01165884 0.87347199
v 0.52944102 0.00804996 0.87571195
v 0.52792679 0.00410022 0.87576940
v 0.52598523 0.00084948 0.87439632
v 0.52339949 -0.00174843 0.87270587
v 0.52045124 -0.00403058 0.87105215
v 0.51728807 -0.00576477 0.86921601
v 0.51367667 -0.00754197 0.86899191
v 0.50953677 -0.00903697 0.86900791
v 0.50625944 -0.00868507 0.86644406
v 0.50373015 -0.00558886 0.86569402
v 0.50396139 -0.00195637 0.86789541
v 0.50718456 -0.00143962 0.87072457
v 0.51115407 -0.00260207 0.87205890
v 0.51528285 -0.00292667 0.87183923
v 0.51903168 -0.00137982 0.87286417
v 0.52002410 0.00129500 0.87581165
v 0.51733788 0.00273792 0.87849961
v 0.51346770 0.00173375 0.87918403
v 0.51039194 -0.00072418 0.87824280
v 0.50838000 -0.00402658 0.87696117
v 0.50711029 -0.00797702 0.87550829
v 0.50642484 -0.01199789 0.87422999
v 0.50607014 -0.01575530 0.87285925
v 0.50564121 -0.01928134 0.87085296
v 0.50439141 -0.02184445 0.86781458
l 1 2
l 2 3
l 3 4
l 4 5
l 5 6
l 6 7
l 7 8
l 8 9
l 9 10
l 10 11
l 11 12
l 12 13
l 13 14
l 14 15
l 15 16
l 16 17
l 17 18
l 18 19
l 19 20
l 20 21
l 21 22
l 22 23
l 23 24
l 24 25
l 25 26
l 26 27
l 27 28
l 28 29
l 29 30
l 30 31
l 31 32
l 32 33
l 33 34
l 34 35
l 35 36
l 36 37
l 37 38
l 38 39
l 39 40
l 40 41
l 41 42
l 42 43
l 43 44
l 44 45
l 45 46
l 46 47
l 47 48
l 48 49
l 49 50
l 50 51
