v 0.49780958 0.06707946 0.86654630
v 0.49866997 0.07111025 0.86636069
v 0.49990070 0.07494599 0.86611120
v 0.50164919 0.07867084 0.86576244
v 0.49964522 0.08216012 0.86611199
v 0.49565934 0.08057167 0.86685776
v 0.49484089 0.07657488 0.86791895
v 0.49408663 0.07307982 0.86976283
v 0.49451183 0.06867802 0.86965852
v 0.49676554 0.06543110 0.86824116
v 0.49887174 0.06198238 0.86868564
v 0.50097393 0.05854129 0.86889679
v 0.50088318 0.05488412 0.87081564
v 0.49820666 0.05189213 0.87168051
v 0.49450715 0.04984484 0.87176082
v 0.49047770 0.04835674 0.87173749
v 0.48666901 0.04876306 0.87031864
v 0.48444247 0.05223856 0.86909724
v 0.48485834 0.05626721 0.86959636
v 0.48637396 0.05755147 0.87318599
v 0.48698603 0.05468257 0.87600614
v 0.48631800 0.05048093 0.87622888
v 0.48405500 0.04743645 0.87445127
v 0.48080613 0.04646324 0.87223440
v 0.47719900 0.04754673 0.87078671
v 0.47384673 0.04993772 0.87104446
v 0.47098450 0.05308798 0.87154958
v 0.46946291 0.05679515 0.87181185
v 0.47130187 0.06050259 0.87144666
v 0.47538785 0.06035611 0.87070947
v 0.47685179 0.05660139 0.87045864
v 0.47577494 0.05312527 0.87214511
v 0.47243457 0.05176084 0.87405517
v 0.46858461 0.05279314 0.87367462
v 0.46581194 0.05558632 0.87282664
v 0.46411024 0.05927690 0.87277588
v 0.46324861 0.06307940 0.87394146
v 0.46426618 0.06701244 0.87528643
v 0.46738177 0.06986512 0.87483396
v 0.47129233 0.06941692 0.87392458
v 0.47369626 0.06589562 0.87352833
v 0.47270950 0.06185271 0.87351945
v 0.46977888 0.05920103 0.87452426
v 0.46630669 0.05702841 0.87562120
v 0.46337597 0.05437642 0.87641534
v 0.46182332 0.05060559 0.87590672
v 0.46237747 0.04660149 0.87540358
v 0.46461030 0.04328388 0.87558160
v 0.46804836 0.04090587 0.87555828
v 0.47181838 0.03961456 0.87483553
v 0.47548958 0.03841980 0.87367471
l 1 2
l 2 3
l 3 4
l 4 5
l 5 6
l 6 7
l 7 8
l 8 9
l 9 10
l 10 11
l 11 12
l 12 13
l 13 14
l 14 15
l 15 16
l 16 17
l 17 18
l 18 19
l 19 20
l 20 21
l 21 22
l 22 23
l 23 24
l 24 25
l 25 26
l 26 27
l 27 28
l 28 29
l 29 30
l 30 31
l 31 32
l 32 33
l 33 34
l 34 35
l 35 36
l 36 37
l 37 38
l 38 39
l 39 40
l 40 41
l 41 42
l 42 43
l 43 44
l 44 45
l 45 46
l 46 47
l 47 48
l 48 49
l 49 50
l 50 51
