v 0.50756969 0.01067485 0.86495262
v 0.50430395 0.00825158 0.86556455
v 0.50135759 0.00708285 0.86828267
v 0.49797100 0.00895180 0.86979166
v 0.49460112 0.01103192 0.86831252
v 0.49124137 0.01359329 0.86830139
v 0.48835688 0.01467153 0.87086184
v 0.48600564 0.01172594 0.87229337
v 0.48581421 0.00804285 0.87065483
v 0.48872419 0.00602717 0.86844708
v 0.49274408 0.00538986 0.86770549
v 0.49666713 0.00453655 0.86698113
v 0.50083368 0.00404168 0.86644842
v 0.50471524 0.00543977 0.86781595
v 0.50603016 0.00922566 0.86788821
v 0.50378759 0.01245089 0.86711548
v 0.50028698 0.01480193 0.86629751
v 0.49596427 0.01574996 0.86709415
v 0.49384016 0.01388854 0.87004061
v 0.49509022 0.01049359 0.87176038
v 0.49806271 0.00779181 0.87229415
v 0.50077442 0.00488336 0.87276699
v 0.50294073 0.00185787 0.87115751
v 0.50208464 -0.00175956 0.86953500
v 0.49849520 -0.00374889 0.87025950
v 0.49476192 -0.00420627 0.87210074
v 0.49080435 -0.00432860 0.87275213
v 0.48683438 -0.00285279 0.87314890
v 0.48439632 0.00002292 0.87455760
v 0.48193124 0.00306701 0.87600754
v 0.47796668 0.00442699 0.87530599
v 0.47423554 0.00536345 0.87404965
v 0.47105973 0.00783882 0.87443002
v 0.46944479 0.01147887 0.87482012
v 0.46999459 0.01551336 0.87523036
v 0.47213247 0.01874018 0.87663076
v 0.47558720 0.02093742 0.87739633
v 0.47942475 0.02137887 0.87876093
v 0.48326165 0.02024934 0.87948334
v 0.48665012 0.01795556 0.87896420
v 0.48888049 0.01507343 0.87721719
v 0.48927484 0.01205035 0.87462136
v 0.48845610 0.00867427 0.87256636
v 0.48757939 0.00483908 0.87148406
v 0.48798527 0.00087492 0.87066153
v 0.49084819 -0.00204772 0.87122163
v 0.49472508 -0.00161210 0.87243949
v 0.49751115 0.00119901 0.87337219
v 0.49787194 0.00523443 0.87435340
v 0.49758988 0.00935214 0.87532483
v 0.49673572 0.01323656 0.87594313
l 1 2
l 2 3
l 3 4
l 4 5
l 5 6
l 6 7
l 7 8
l 8 9
l 9 10
l 10 11
l 11 12
l 12 13
l 13 14
l 14 15
l 15 16
l 16 17
l 17 18
l 18 19
l 19 20
l 20 21
l 21 22
l 22 23
l 23 24
l 24 25
l 25 26
l 26 27
l 27 28
l 28 29
l 29 30
l 30 31
l 31 32
l 32 33
l 33 34
l 34 35
l 35 36
l 36 37
l 37 38
l 38 39
l 39 40
l 40 41
l 41 42
l 42 43
l 43 44
l 44 45
l 45 46
l 46 47
l 47 48
l 48 49
l 49 50
l 50 51
