v 0.52046943 -0.03591255 0.87479469
v 0.51973987 -0.03287010 0.87228706
v 0.51868220 -0.02959872 0.87023862
v 0.51759160 -0.02618192 0.86840998
v 0.51709925 -0.02248607 0.86676191
v 0.51656022 -0.01865052 0.86536696
v 0.51508785 -0.01483342 0.86465840
v 0.51091502 -0.01414592 0.86500958
v 0.50738941 -0.01585790 0.86588139
v 0.50520095 -0.01754898 0.86898035
v 0.50141023 -0.01819930 0.87024466
v 0.49785901 -0.01612264 0.87004643
v 0.49728211 -0.01210725 0.86962608
v 0.50022919 -0.00923322 0.86920552
v 0.50421117 -0.00915030 0.86859957
v 0.50724987 -0.01204510 0.86797806
v 0.50894724 -0.01588874 0.86815612
v 0.50881069 -0.01986511 0.86730680
v 0.50680935 -0.02346675 0.86812072
v 0.50315055 -0.02488781 0.86920219
v 0.49909635 -0.02386029 0.86942157
v 0.49646855 -0.02058955 0.87035242
v 0.49550205 -0.01655073 0.87187098
v 0.49737768 -0.01267544 0.87235280
v 0.50093290 -0.01112965 0.87107259
v 0.50448524 -0.01253441 0.86969225
v 0.50719893 -0.01576480 0.87024920
v 0.50915916 -0.01963067 0.87018647
v 0.50936431 -0.02394718 0.86932359
v 0.50618999 -0.02707627 0.86961976
v 0.50215085 -0.02726936 0.87030441
v 0.49894655 -0.02519516 0.87157187
v 0.49644833 -0.02210102 0.87252309
v 0.49441178 -0.01852931 0.87347739
v 0.49325750 -0.01464588 0.87438100
v 0.49263985 -0.01079034 0.87551214
v 0.49173534 -0.00681828 0.87604007
v 0.49016936 -0.00316441 0.87545199
v 0.48777951 -0.00008808 0.87386594
v 0.48521062 0.00271196 0.87202463
v 0.48430440 0.00663864 0.87217035
v 0.48446896 0.01014132 0.87413142
v 0.48594304 0.01383317 0.87534377
v 0.48841493 0.01717166 0.87518324
v 0.49180907 0.01889946 0.87386560
v 0.49590598 0.01860865 0.87491626
v 0.49856169 0.01590285 0.87647709
v 0.49948573 0.01200147 0.87683733
v 0.50013843 0.00813925 0.87593037
v 0.50019697 0.00413144 0.87509322
v 0.50002990 0.00024244 0.87358815
l 1 2
l 2 3
l 3 4
l 4 5
l 5 6
l 6 7
l 7 8
l 8 9
l 9 10
l 10 11
l 11 12
l 12 13
l 13 14
l 14 15
l 15 16
l 16 17
l 17 18
l 18 19
l 19 20
l 20 21
l 21 22
l 22 23
l 23 24
l 24 25
l 25 26
l 26 27
l 27 28
l 28 29
l 29 30
l 30 31
l 31 32
l 32 33
l 33 34
l 34 35
l 35 36
l 36 37
l 37 38
l 38 39
l 39 40
l 40 41
l 41 42
l 42 43
l 43 44
l 44 45
l 45 46
l 46 47
l 47 48
l 48 49
l 49 50
l 50 51
