v 0.54795138 0.02104438 0.86300463
v 0.54443469 0.02370161 0.86331144
v 0.54108827 0.02629576 0.86378376
v 0.53870230 0.02952695 0.86402585
v 0.53832244 0.03356983 0.86389687
v 0.54175899 0.03534481 0.86500562
v 0.54483082 0.03316158 0.86673220
v 0.54384216 0.02926110 0.86790346
v 0.53996194 0.02853283 0.86892801
v 0.53667480 0.03136969 0.86942225
v 0.53565530 0.03433054 0.86661099
v 0.53803378 0.03648247 0.86372413
v 0.54181328 0.03801018 0.86298298
v 0.54554420 0.03952175 0.86217098
v 0.54833921 0.04172605 0.86447278
v 0.54922747 0.03976641 0.86802736
v 0.54876425 0.03598235 0.86939624
v 0.54617455 0.03352416 0.87134529
v 0.54206103 0.03366448 0.87122235
v 0.53962601 0.03672009 0.86961420
v 0.53971068 0.04020362 0.86721302
v 0.54129222 0.04304463 0.86447283
v 0.54482751 0.04448315 0.86292201
v 0.54854925 0.04486461 0.86470486
v 0.55025015 0.04575696 0.86824828
v 0.54899831 0.04917076 0.87004408
v 0.54754310 0.05163821 0.86705227
v 0.54478717 0.05222847 0.86409334
v 0.54125339 0.05283844 0.86181765
v 0.53703836 0.05310608 0.86290102
v 0.53356421 0.05091664 0.86386566
v 0.53032710 0.05054493 0.86634550
v 0.52812914 0.05365389 0.86799875
v 0.53031024 0.05742821 0.86788862
v 0.53377206 0.05713882 0.86576912
v 0.53549964 0.05336846 0.86550783
v 0.53736066 0.05027993 0.86738054
v 0.54065310 0.04838174 0.86864509
v 0.54431865 0.04676706 0.86876017
v 0.54568076 0.04276563 0.86876724
v 0.54292351 0.04035619 0.87093155
v 0.53935300 0.04182470 0.87244526
v 0.53653283 0.04500046 0.87286367
v 0.53504070 0.04871292 0.87187306
v 0.53403624 0.05197388 0.86965092
v 0.53337829 0.05589457 0.86857150
v 0.53250198 0.05937028 0.87036683
v 0.53137888 0.05934351 0.87429849
v 0.52963962 0.05611184 0.87591550
v 0.52811990 0.05258915 0.87465941
v 0.52636246 0.04969959 0.87226055
l 1 2
l 2 3
l 3 4
l 4 5
l 5 6
l 6 7
l 7 8
l 8 9
l 9 10
l 10 11
l 11 12
l 12 13
l 13 14
l 14 15
l 15 16
l 16 17
l 17 18
l 18 19
l 19 20
l 20 21
l 21 22
l 22 23
l 23 24
l 24 25
l 25 26
l 26 27
l 27 28
l 28 29
l 29 30
l 30 31
l 31 32
l 32 33
l 33 34
l 34 35
l 35 36
l 36 37
l 37 38
l 38 39
l 39 40
l 40 41
l 41 42
l 42 43
l 43 44
l 44 45
l 45 46
l 46 47
l 47 48
l 48 49
l 49 50
l 50 51
