v 0.55911491 0.01196454 0.86402542
v 0.55543902 0.01371929 0.86359558
v 0.55210632 0.01607337 0.86322384
v 0.54975273 0.01937807 0.86349525
v 0.55110997 0.02197524 0.86624864
v 0.55516412 0.02144800 0.86717694
v 0.55857207 0.02088620 0.86472565
v 0.56146517 0.01836670 0.86351863
v 0.56042580 0.01438887 0.86429835
v 0.55751802 0.01381829 0.86704115
v 0.55517614 0.01573402 0.86967364
v 0.55249728 0.01797913 0.87190458
v 0.54924330 0.02027370 0.87248798
v 0.54547184 0.02185322 0.87185317
v 0.54136721 0.02149547 0.87162745
v 0.53886284 0.02469363 0.87146030
v 0.54079310 0.02823891 0.87131673
v 0.54377743 0.03076742 0.87040730
v 0.54686149 0.03279523 0.86868639
v 0.54670462 0.03641760 0.86668492
v 0.54307648 0.03785460 0.86532396
v 0.53911081 0.03764256 0.86599740
v 0.53788393 0.03461849 0.86860699
v 0.53918510 0.03165362 0.87112704
v 0.53929635 0.02850877 0.87362488
v 0.53989907 0.02459892 0.87423870
v 0.53998972 0.02048621 0.87417466
v 0.53710617 0.01739000 0.87383961
v 0.53292213 0.01859550 0.87366997
v 0.53219458 0.02264758 0.87493617
v 0.53444754 0.02597492 0.87516012
v 0.53699625 0.02928803 0.87525956
v 0.53952548 0.03239694 0.87465489
v 0.54320828 0.03398821 0.87527408
v 0.54596143 0.03160841 0.87696014
v 0.54474330 0.02768703 0.87759448
v 0.54133531 0.02512657 0.87686453
v 0.53728983 0.02373452 0.87650685
v 0.53312024 0.02355923 0.87756057
v 0.53006864 0.02532558 0.87979222
v 0.52918759 0.02919799 0.88071677
v 0.53129049 0.03229571 0.87922111
v 0.53492198 0.03375125 0.87754342
v 0.53788447 0.03639139 0.87699597
v 0.53836437 0.04051225 0.87692895
v 0.53567520 0.04364894 0.87623354
v 0.53167484 0.04343253 0.87617875
v 0.52863431 0.04081846 0.87616060
v 0.52647601 0.03719123 0.87632297
v 0.52542793 0.03332036 0.87732329
v 0.52476006 0.02929151 0.87842823
l 1 2
l 2 3
l 3 4
l 4 5
l 5 6
l 6 7
l 7 8
l 8 9
l 9 10
l 10 11
l 11 12
l 12 13
l 13 14
l 14 15
l 15 16
l 16 17
l 17 18
l 18 19
l 19 20
l 20 21
l 21 22
l 22 23
l 23 24
l 24 25
l 25 26
l 26 27
l 27 28
l 28 29
l 29 30
l 30 31
l 31 32
l 32 33
l 33 34
l 34 35
l 35 36
l 36 37
l 37 38
l 38 39
l 39 40
l 40 41
l 41 42
l 42 43
l 43 44
l 44 45
l 45 46
l 46 47
l 47 48
l 48 49
l 49 50
l 50 51
