v 0.56488223 0.02783828 0.85879589
v 0.56488749 0.02348269 0.85934563
v 0.56446849 0.01909248 0.85989836
v 0.56335997 0.01474362 0.86032133
v 0.56158910 0.01099703 0.86083546
v 0.55872471 0.00926300 0.86376035
v 0.55470940 0.01020169 0.86461591
v 0.55061060 0.01017403 0.86514940
v 0.54693244 0.01154572 0.86604583
v 0.54355570 0.01293980 0.86829583
v 0.54054707 0.01557954 0.86901168
v 0.54129907 0.01956884 0.86836133
v 0.54517640 0.02013872 0.86961805
v 0.54604430 0.01816476 0.87306940
v 0.54316993 0.01714478 0.87572243
v 0.53933220 0.01592002 0.87573922
v 0.53663693 0.01357515 0.87339336
v 0.53513833 0.01003620 0.87125432
v 0.53539236 0.00589628 0.87036191
v 0.53515490 0.00196946 0.87247043
v 0.53306420 0.00145698 0.87614519
v 0.53100238 0.00510164 0.87619539
v 0.53129230 0.00618158 0.87234781
v 0.53215550 0.00337837 0.86950974
v 0.53182054 -0.00082204 0.86866668
v 0.53268746 -0.00490511 0.86856869
v 0.53499257 -0.00816034 0.86966665
v 0.53532446 -0.00901946 0.87358143
v 0.53327926 -0.00673321 0.87615924
v 0.53053251 -0.00370738 0.87606073
v 0.52674928 -0.00225324 0.87507196
v 0.52306867 -0.00384999 0.87424676
v 0.52190592 -0.00784667 0.87477792
v 0.52481158 -0.01030115 0.87626892
v 0.52863959 -0.00880086 0.87768248
v 0.53073955 -0.00535922 0.87852547
v 0.53172372 -0.00146051 0.87873502
v 0.53228613 0.00266406 0.87872652
v 0.53304952 0.00661374 0.87824417
v 0.53447429 0.01032194 0.87762168
v 0.53332809 0.01426346 0.87629537
v 0.52920274 0.01469887 0.87531370
v 0.52648633 0.01169191 0.87552146
v 0.52568372 0.00766665 0.87577293
v 0.52490239 0.00370193 0.87586049
v 0.52282033 0.00032197 0.87506365
v 0.52067133 -0.00294754 0.87407236
v 0.51961852 -0.00676578 0.87338503
v 0.51952715 -0.01092242 0.87311898
v 0.51984265 -0.01513724 0.87257603
v 0.52044220 -0.01925387 0.87291841
l 1 2
l 2 3
l 3 4
l 4 5
l 5 6
l 6 7
l 7 8
l 8 9
l 9 10
l 10 11
l 11 12
l 12 13
l 13 14
l 14 15
l 15 16
l 16 17
l 17 18
l 18 19
l 19 20
l 20 21
l 21 22
l 22 23
l 23 24
l 24 25
l 25 26
l 26 27
l 27 28
l 28 29
l 29 30
l 30 31
l 31 32
l 32 33
l 33 34
l 34 35
l 35 36
l 36 37
l 37 38
l 38 39
l 39 40
l 40 41
l 41 42
l 42 43
l 43 44
l 44 45
l 45 46
l 46 47
l 47 48
l 48 49
l 49 50
l 50 51
