v 0.51556370 0.07534784 0.86320337
v 0.51258496 0.07261790 0.86377194
v 0.50921719 0.07048285 0.86441094
v 0.50571645 0.06915001 0.86603151
v 0.50275680 0.07083186 0.86817620
v 0.50099642 0.07457667 0.86827976
v 0.50283133 0.07814656 0.86790561
v 0.50715530 0.07832404 0.86812704
v 0.50901442 0.07459082 0.86715772
v 0.50934595 0.07027076 0.86710424
v 0.50998274 0.06632682 0.86682418
v 0.50864006 0.06260672 0.86585207
v 0.50494015 0.06134900 0.86692690
v 0.50250748 0.06322671 0.86953443
v 0.50291795 0.06665805 0.87160325
v 0.50543898 0.06986989 0.87281816
v 0.50622550 0.07364687 0.87157805
v 0.50804233 0.07725198 0.87079890
v 0.51108074 0.07835094 0.86817698
v 0.51342612 0.07565628 0.86614698
v 0.51477160 0.07173257 0.86590351
v 0.51557608 0.06765286 0.86719974
v 0.51325485 0.06478624 0.86935624
v 0.50938307 0.06401522 0.87106143
v 0.50608324 0.06361199 0.87348876
v 0.50326699 0.06226411 0.87609623
v 0.50437056 0.05892075 0.87814591
v 0.50715517 0.05619754 0.87613273
v 0.50628573 0.05402186 0.87247210
v 0.50248408 0.05249181 0.87204624
v 0.49915122 0.05202398 0.87422839
v 0.49633724 0.05442394 0.87577186
v 0.49699817 0.05834819 0.87671466
v 0.50105915 0.05981414 0.87650290
v 0.50406042 0.05718769 0.87534762
v 0.50455246 0.05324148 0.87487257
v 0.50228657 0.04997053 0.87387008
v 0.49829839 0.04936370 0.87424374
v 0.49492546 0.05180521 0.87555251
v 0.49310345 0.05513051 0.87699126
v 0.49263246 0.05932835 0.87792872
v 0.49282989 0.06356538 0.87810123
v 0.49352393 0.06752037 0.87732718
v 0.49464945 0.07113294 0.87601171
v 0.49687900 0.07439965 0.87515251
v 0.50013560 0.07699601 0.87476259
v 0.50395480 0.07834281 0.87401492
v 0.50792030 0.07810694 0.87491163
v 0.51099072 0.07705107 0.87735492
v 0.51381129 0.07536681 0.87987896
v 0.51672781 0.07394710 0.88225336
l 1 2
l 2 3
l 3 4
l 4 5
l 5 6
l 6 7
l 7 8
l 8 9
l 9 10
l 10 11
l 11 12
l 12 13
l 13 14
l 14 15
l 15 16
l 16 17
l 17 18
l 18 19
l 19 20
l 20 21
l 21 22
l 22 23
l 23 24
l 24 25
l 25 26
l 26 27
l 27 28
l 28 29
l 29 30
l 30 31
l 31 32
l 32 33
l 33 34
l 34 35
l 35 36
l 36 37
l 37 38
l 38 39
l 39 40
l 40 41
l 41 42
l 42 43
l 43 44
l 44 45
l 45 46
l 46 47
l 47 48
l 48 49
l 49 50
l 50 51
