v 0.54226276 0.06707668 0.85843148
v 0.53993798 0.06368596 0.85872513
v 0.53726549 0.06042584 0.85923819
v 0.53441739 0.05765469 0.85978246
v 0.53073625 0.05617398 0.86048100
v 0.52691122 0.05512664 0.86119712
v 0.52289417 0.05532543 0.86195057
v 0.52017811 0.05509709 0.86498394
v 0.51623658 0.05567580 0.86577850
v 0.51240446 0.05673234 0.86633397
v 0.51136610 0.06057704 0.86682464
v 0.51502250 0.06221200 0.86575424
v 0.51854691 0.06002798 0.86563750
v 0.52198430 0.05788123 0.86553386
v 0.52441936 0.05486308 0.86440790
v 0.52361412 0.05150503 0.86237827
v 0.52092184 0.04831380 0.86235525
v 0.51742652 0.04728292 0.86428186
v 0.51411568 0.04772331 0.86653380
v 0.51150834 0.04998607 0.86861535
v 0.51145933 0.05374670 0.87011073
v 0.51498450 0.05484103 0.87191223
v 0.51784262 0.05189806 0.87250456
v 0.51704480 0.04805137 0.87169686
v 0.51384555 0.04567621 0.87015467
v 0.50976338 0.04483696 0.86925839
v 0.50634813 0.04339148 0.86769112
v 0.50282939 0.04136061 0.86826156
v 0.50175136 0.04026044 0.87205431
v 0.50408317 0.04269671 0.87475885
v 0.50697771 0.04565698 0.87518098
v 0.51087092 0.04695644 0.87524334
v 0.51485853 0.04663950 0.87490401
v 0.51857516 0.04655437 0.87321286
v 0.52126618 0.04943999 0.87176002
v 0.52035690 0.05336628 0.87269476
v 0.51727062 0.05575542 0.87378986
v 0.51338813 0.05715010 0.87382020
v 0.51046098 0.06020976 0.87308680
v 0.51132897 0.06436399 0.87294811
v 0.51502754 0.06641556 0.87304090
v 0.51888923 0.06574321 0.87405535
v 0.52203927 0.06370931 0.87583231
v 0.52277576 0.05990288 0.87720080
v 0.52155420 0.05612470 0.87812917
v 0.51893602 0.05295064 0.87863097
v 0.51571560 0.05060710 0.87816828
v 0.51205369 0.04901049 0.87684672
v 0.50803352 0.04904480 0.87651778
v 0.50453259 0.04987860 0.87837019
v 0.50126759 0.05103164 0.88050996
l 1 2
l 2 3
l 3 4
l 4 5
l 5 6
l 6 7
l 7 8
l 8 9
l 9 10
l 10 11
l 11 12
l 12 13
l 13 14
l 14 15
l 15 16
l 16 17
l 17 18
l 18 19
l 19 20
l 20 21
l 21 22
l 22 23
l 23 24
l 24 25
l 25 26
l 26 27
l 27 28
l 28 29
l 29 30
l 30 31
l 31 32
l 32 33
l 33 34
l 34 35
l 35 36
l 36 37
l 37 38
l 38 39
l 39 40
l 40 41
l 41 42
l 42 43
l 43 44
l 44 45
l 45 46
l 46 47
l 47 48
l 48 49
l 49 50
l 50 51
