v 0.50644431 0.00255452 0.86517771
v 0.50939832 0.00532194 0.86462448
v 0.51143321 0.00883517 0.86424073
v 0.51361530 0.01228333 0.86383065
v 0.51714407 0.01425953 0.86316778
v 0.52021162 0.01148370 0.86260290
v 0.51918868 0.00760395 0.86280216
v 0.51625781 0.00491694 0.86335273
v 0.51323248 0.00211800 0.86392127
v 0.51001200 -0.00089683 0.86452008
v 0.50848640 -0.00483794 0.86481244
v 0.50878966 -0.00906746 0.86488504
v 0.51176128 -0.01178102 0.86459896
v 0.51533406 -0.01209068 0.86644254
v 0.51753355 -0.00876923 0.86754435
v 0.51833434 -0.00497559 0.86653271
v 0.51847355 -0.00094560 0.86549263
v 0.51757169 0.00297637 0.86565233
v 0.51438014 0.00543902 0.86624889
v 0.51062366 0.00669091 0.86698836
v 0.50701609 0.00467990 0.86720352
v 0.50647124 0.00065465 0.86841103
v 0.51034228 -0.00082945 0.86952557
v 0.51326077 0.00202954 0.86899815
v 0.51452510 0.00623445 0.86919858
v 0.51458231 0.01017611 0.87047716
v 0.51396094 0.01392589 0.87173571
v 0.51147838 0.01727367 0.87108934
v 0.50798928 0.01839417 0.86916689
v 0.50412348 0.01759417 0.86848137
v 0.50074379 0.01529104 0.86885654
v 0.49975465 0.01274583 0.87186535
v 0.50149910 0.01280465 0.87552106
v 0.50309319 0.01605381 0.87735269
v 0.50418525 0.01980529 0.87593591
v 0.50331468 0.02337634 0.87435160
v 0.49979232 0.02558316 0.87405037
v 0.49571466 0.02504915 0.87460608
v 0.49274089 0.02247713 0.87535602
v 0.49157403 0.01882409 0.87660769
v 0.49202531 0.01480803 0.87673936
v 0.49359417 0.01100456 0.87562797
v 0.49537755 0.00777452 0.87390892
v 0.49660920 0.00466713 0.87167426
v 0.49797447 0.00097094 0.87073011
v 0.49943561 -0.00247152 0.87248313
v 0.50235938 -0.00484738 0.87386383
v 0.50637860 -0.00510271 0.87407068
v 0.51006432 -0.00336510 0.87427332
v 0.51251959 -0.00038506 0.87532784
v 0.51392814 0.00316457 0.87686221
l 1 2
l 2 3
l 3 4
l 4 5
l 5 6
l 6 7
l 7 8
l 8 9
l 9 10
l 10 11
l 11 12
l 12 13
l 13 14
l 14 15
l 15 16
l 16 17
l 17 18
l 18 19
l 19 20
l 20 21
l 21 22
l 22 23
l 23 24
l 24 25
l 25 26
l 26 27
l 27 28
l 28 29
l 29 30
l 30 31
l 31 32
l 32 33
l 33 34
l 34 35
l 35 36
l 36 37
l 37 38
l 38 39
l 39 40
l 40 41
l 41 42
l 42 43
l 43 44
l 44 45
l 45 46
l 46 47
l 47 48
l 48 49
l 49 50
l 50 51
