v 0.50279576 0.02131282 0.86582093
v 0.49889551 0.02198873 0.86654026
v 0.49601921 0.02372002 0.86883284
v 0.49608655 0.02740443 0.87047653
v 0.49900505 0.02999638 0.86952261
v 0.50144232 0.02885149 0.86649360
v 0.50524608 0.02781727 0.86572916
v 0.50711142 0.03118913 0.86691061
v 0.50491183 0.03453155 0.86647031
v 0.50136076 0.03350069 0.86808770
v 0.50232953 0.02971101 0.86951720
v 0.50271513 0.02583872 0.86814363
v 0.50275252 0.02166981 0.86868666
v 0.50117951 0.01813596 0.87002869
v 0.49718840 0.01731340 0.86871230
v 0.49427547 0.01975250 0.86739676
v 0.49182593 0.02296178 0.86784416
v 0.48903689 0.02594367 0.86835501
v 0.48494266 0.02676726 0.86909957
v 0.48173874 0.02419294 0.86969412
v 0.48133682 0.02014255 0.86977591
v 0.48455835 0.01820355 0.87163069
v 0.48641988 0.02120715 0.87361187
v 0.48516435 0.02499420 0.87422502
v 0.48313354 0.02719723 0.87700808
v 0.47907134 0.02763611 0.87834981
v 0.47555814 0.02560098 0.87767044
v 0.47413024 0.02232696 0.87543281
v 0.47452374 0.01989137 0.87222123
v 0.47280652 0.01637157 0.87134633
v 0.46941012 0.01399638 0.87197493
v 0.46533416 0.01458260 0.87271993
v 0.46229810 0.01713646 0.87326856
v 0.46006801 0.02045579 0.87366546
v 0.45853981 0.02421843 0.87393413
v 0.45770376 0.02816604 0.87407405
v 0.45830884 0.03217995 0.87394976
v 0.46061305 0.03549924 0.87413174
v 0.46410274 0.03725298 0.87544225
v 0.46783035 0.03530571 0.87644684
v 0.46965479 0.03145576 0.87699381
v 0.47035554 0.02734918 0.87821330
v 0.47196277 0.02358688 0.87903997
v 0.47423375 0.02028896 0.87970819
v 0.47716750 0.01715105 0.87926242
v 0.48042834 0.01440899 0.87868670
v 0.48381182 0.01203366 0.87801165
v 0.48779837 0.01062063 0.87703797
v 0.49209245 0.01132271 0.87806619
v 0.49448872 0.01346548 0.88046467
v 0.49708629 0.01616114 0.88256766
l 1 2
l 2 3
l 3 4
l 4 5
l 5 6
l 6 7
l 7 8
l 8 9
l 9 10
l 10 11
l 11 12
l 12 13
l 13 14
l 14 15
l 15 16
l 16 17
l 17 18
l 18 19
l 19 20
l 20 21
l 21 22
l 22 23
l 23 24
l 24 25
l 25 26
l 26 27
l 27 28
l 28 29
l 29 30
l 30 31
l 31 32
l 32 33
l 33 34
l 34 35
l 35 36
l 36 37
l 37 38
l 38 39
l 39 40
l 40 41
l 41 42
l 42 43
l 43 44
l 44 45
l 45 46
l 46 47
l 47 48
l 48 49
l 49 50
l 50 51
