v 0.52748543 0.07686471 0.86097573
v 0.52767901 0.08134050 0.86091243
v 0.52414202 0.08364428 0.86155814
v 0.52018416 0.08409601 0.86229063
v 0.51624067 0.08361681 0.86302279
v 0.51257985 0.08206249 0.86371332
v 0.51248491 0.07791553 0.86376077
v 0.51604586 0.07687481 0.86529340
v 0.51819691 0.08031912 0.86676661
v 0.52062166 0.08353617 0.86689336
v 0.52269821 0.08704812 0.86656517
v 0.52211260 0.09027032 0.86887672
v 0.52195124 0.08887582 0.87264257
v 0.52030127 0.08523411 0.87298040
v 0.51741842 0.08273216 0.87176630
v 0.51655062 0.07957210 0.86916695
v 0.51736306 0.07576853 0.86753380
v 0.51549234 0.07200689 0.86835618
v 0.51433331 0.07012318 0.87194121
v 0.51293234 0.07347793 0.87409933
v 0.51297713 0.07792259 0.87322011
v 0.51515044 0.08129112 0.87356282
v 0.51802888 0.08408142 0.87479759
v 0.52066497 0.08727112 0.87572078
v 0.52208398 0.09130836 0.87473018
v 0.52143019 0.09552034 0.87419708
v 0.51962980 0.09897511 0.87304986
v 0.51648238 0.10110173 0.87147581
v 0.51292752 0.10169072 0.86970708
v 0.50895417 0.10215386 0.86854253
v 0.50639678 0.10520871 0.86796094
v 0.50709679 0.10930157 0.86843904
v 0.51045484 0.11145575 0.86913948
v 0.51432129 0.11079773 0.87034955
v 0.51753410 0.10860015 0.87155952
v 0.52041958 0.10593089 0.87271051
v 0.52283184 0.10307549 0.87433811
v 0.52479828 0.09989528 0.87628049
v 0.52599164 0.09628068 0.87797661
v 0.52572246 0.09213203 0.87821367
v 0.52429904 0.08865995 0.87617325
v 0.52232977 0.08526635 0.87489013
v 0.51972117 0.08222137 0.87512164
v 0.51759099 0.07895530 0.87634343
v 0.51605277 0.07555546 0.87819260
v 0.51588209 0.07168471 0.87933480
v 0.51636821 0.06770171 0.87933376
v 0.51580304 0.06361622 0.87825799
v 0.51420183 0.05978382 0.87713397
v 0.51284791 0.05600112 0.87679689
v 0.51229710 0.05195872 0.87702454
l 1 2
l 2 3
l 3 4
l 4 5
l 5 6
l 6 7
l 7 8
l 8 9
l 9 10
l 10 11
l 11 12
l 12 13
l 13 14
l 14 15
l 15 16
l 16 17
l 17 18
l 18 19
l 19 20
l 20 21
l 21 22
l 22 23
l 23 24
l 24 25
l 25 26
l 26 27
l 27 28
l 28 29
l 29 30
l 30 31
l 31 32
l 32 33
l 33 34
l 34 35
l 35 36
l 36 37
l 37 38
l 38 39
l 39 40
l 40 41
l 41 42
l 42 43
l 43 44
l 44 45
l 45 46
l 46 47
l 47 48
l 48 49
l 49 50
l 50 51
