v 0.53524771 -0.00036713 0.86038816
v 0.53378454 0.00357789 0.86030896
v 0.53192615 0.00729907 0.86042917
v 0.53306070 0.00670002 0.86440536
v 0.53405765 0.00280773 0.86337038
v 0.53335295 -0.00099723 0.86203768
v 0.53315532 -0.00470835 0.86356858
v 0.53431603 -0.00734762 0.86655371
v 0.53523408 -0.01099739 0.86822706
v 0.53390016 -0.01476550 0.86793233
v 0.53088885 -0.01729277 0.86683692
v 0.52725436 -0.01858450 0.86563838
v 0.52315680 -0.01884255 0.86513454
v 0.51900253 -0.01817152 0.86504544
v 0.51775373 -0.01431402 0.86425356
v 0.52096582 -0.01200668 0.86345267
v 0.52506792 -0.01204193 0.86312001
v 0.52843292 -0.01242641 0.86533714
v 0.52993158 -0.01039799 0.86851636
v 0.52909611 -0.00688343 0.87026559
v 0.52693163 -0.00349428 0.86920961
v 0.52758284 0.00059723 0.86922719
v 0.53101587 0.00050478 0.87133207
v 0.53173001 -0.00379677 0.87145886
v 0.53183067 -0.00767386 0.87041969
v 0.53256480 -0.01063339 0.86782808
v 0.53283571 -0.01366833 0.86522907
v 0.53009111 -0.01651537 0.86424797
v 0.52607698 -0.01626126 0.86416364
v 0.52423679 -0.01276383 0.86563846
v 0.52492070 -0.01073576 0.86920339
v 0.52597424 -0.01198348 0.87305784
v 0.52836276 -0.01496478 0.87465133
v 0.53136344 -0.01738818 0.87342902
v 0.53404926 -0.01793053 0.87045010
v 0.53630871 -0.01627318 0.86753183
v 0.53864573 -0.01358776 0.86553252
v 0.54185410 -0.01081872 0.86512110
v 0.54572426 -0.00903990 0.86562339
v 0.54960975 -0.00788599 0.86492534
v 0.55335777 -0.00933432 0.86510821
v 0.55461288 -0.01308104 0.86665419
v 0.55260712 -0.01656787 0.86783462
v 0.54920505 -0.01892867 0.86801248
v 0.54544068 -0.02029843 0.86779021
v 0.54147456 -0.02105626 0.86746426
v 0.53748826 -0.02133760 0.86689848
v 0.53300784 -0.02066321 0.86692151
v 0.52917863 -0.01936306 0.86834595
v 0.52639060 -0.01724359 0.87030281
v 0.52336732 -0.01494183 0.87183632
l 1 2
l 2 3
l 3 4
l 4 5
l 5 6
l 6 7
l 7 8
l 8 9
l 9 10
l 10 11
l 11 12
l 12 13
l 13 14
l 14 15
l 15 16
l 16 17
l 17 18
l 18 19
l 19 20
l 20 21
l 21 22
l 22 23
l 23 24
l 24 25
l 25 26
l 26 27
l 27 28
l 28 29
l 29 30
l 30 31
l 31 32
l 32 33
l 33 34
l 34 35
l 35 36
l 36 37
l 37 38
l 38 39
l 39 40
l 40 41
l 41 42
l 42 43
l 43 44
l 44 45
l 45 46
l 46 47
l 47 48
l 48 49
l 49 50
l 50 51
