v 0.50244031 0.05981542 0.86573764
v 0.50087310 0.06306415 0.86762283
v 0.49942119 0.06667521 0.86905221
v 0.49794727 0.07050910 0.86889282
v 0.49462522 0.07205623 0.86710391
v 0.49210680 0.06865112 0.86758860
v 0.49398383 0.06489945 0.86726729
v 0.49697612 0.06184407 0.86673390
v 0.49999277 0.05914662 0.86619531
v 0.50202734 0.05568380 0.86702389
v 0.50213978 0.05225262 0.86934822
v 0.49998115 0.04961955 0.87149590
v 0.49616022 0.04786360 0.87217006
v 0.49231040 0.04619192 0.87178018
v 0.48837354 0.04542154 0.87064436
v 0.48455528 0.04697275 0.87086275
v 0.48354273 0.05082367 0.87159111
v 0.48577527 0.05398781 0.87267049
v 0.48933473 0.05345647 0.87452350
v 0.49115243 0.05013275 0.87609949
v 0.49038998 0.04614303 0.87567552
v 0.48744259 0.04341439 0.87574890
v 0.48333061 0.04395331 0.87566224
v 0.48094509 0.04722127 0.87566087
v 0.48015461 0.05142485 0.87497253
v 0.48096417 0.05525186 0.87322276
v 0.48160498 0.05886165 0.87143546
v 0.48295406 0.06259097 0.87048300
v 0.48587216 0.06577931 0.87105363
v 0.49001343 0.06729126 0.87075314
v 0.49349080 0.06568918 0.87208346
v 0.49341725 0.06175076 0.87299057
v 0.48976209 0.05958817 0.87296351
v 0.48532122 0.06022290 0.87303569
v 0.48125324 0.06107820 0.87368093
v 0.47712857 0.06133042 0.87472315
v 0.47322807 0.06118036 0.87600358
v 0.46941749 0.06035277 0.87710145
v 0.46560409 0.05886901 0.87768821
v 0.46223796 0.05632638 0.87810591
v 0.46079430 0.05234273 0.87844025
v 0.46199627 0.04837062 0.87827279
v 0.46507104 0.04600179 0.87719029
v 0.46888962 0.04591499 0.87600078
v 0.47249422 0.04791366 0.87514006
v 0.47539236 0.05074009 0.87451831
v 0.47769597 0.05413175 0.87495383
v 0.48024333 0.05735042 0.87517427
v 0.48296078 0.06023436 0.87590242
v 0.48598281 0.06285062 0.87567494
v 0.48917355 0.06537529 0.87574290
l 1 2
l 2 3
l 3 4
l 4 5
l 5 6
l 6 7
l 7 8
l 8 9
l 9 10
l 10 11
l 11 12
l 12 13
l 13 14
l 14 15
l 15 16
l 16 17
l 17 18
l 18 19
l 19 20
l 20 21
l 21 22
l 22 23
l 23 24
l 24 25
l 25 26
l 26 27
l 27 28
l 28 29
l 29 30
l 30 31
l 31 32
l 32 33
l 33 34
l 34 35
l 35 36
l 36 37
l 37 38
l 38 39
l 39 40
l 40 41
l 41 42
l 42 43
l 43 44
l 44 45
l 45 46
l 46 47
l 47 48
l 48 49
l 49 50
l 50 51
