v 0.52343974 -0.03683972 0.87615266
v 0.52271445 -0.03399038 0.87326186
v 0.52159020 -0.03054250 0.87081406
v 0.52048326 -0.02713309 0.86885949
v 0.52083155 -0.02358251 0.86695092
v 0.52388430 -0.02118958 0.86594781
v 0.52793534 -0.02108055 0.86592000
v 0.53042053 -0.02390665 0.86750534
v 0.52933932 -0.02711305 0.86972861
v 0.52611112 -0.02871576 0.87160272
v 0.52215823 -0.02889045 0.87275515
v 0.51811568 -0.02833941 0.87239651
v 0.51467934 -0.02721272 0.87043144
v 0.51200194 -0.02513390 0.86819527
v 0.51094532 -0.02146046 0.86688189
v 0.51191864 -0.01749001 0.86666783
v 0.51502026 -0.01484487 0.86724376
v 0.51895632 -0.01381993 0.86659356
v 0.52295395 -0.01481443 0.86664692
v 0.52550688 -0.01812885 0.86788127
v 0.52601006 -0.02239097 0.86898202
v 0.52375686 -0.02550728 0.87059785
v 0.51979504 -0.02634066 0.87134161
v 0.51576839 -0.02493669 0.87056569
v 0.51344986 -0.02183174 0.86922329
v 0.51470765 -0.01807109 0.86800910
v 0.51839862 -0.01650289 0.86725722
v 0.52228770 -0.01802716 0.86752286
v 0.52347785 -0.02114585 0.86974175
v 0.52118944 -0.02358865 0.87234924
v 0.51746670 -0.02466728 0.87335875
v 0.51354938 -0.02534875 0.87279566
v 0.50946610 -0.02513358 0.87203304
v 0.50579654 -0.02341171 0.87158707
v 0.50323830 -0.01995848 0.87210102
v 0.50256787 -0.01600792 0.87269902
v 0.50405878 -0.01216587 0.87258482
v 0.50741717 -0.01060968 0.87088194
v 0.51025264 -0.01285812 0.86909156
v 0.51175885 -0.01679597 0.86915685
v 0.51168598 -0.02049002 0.87110155
v 0.50903462 -0.02251534 0.87337477
v 0.50515495 -0.02277428 0.87437892
v 0.50109434 -0.02154510 0.87454465
v 0.49791459 -0.01909486 0.87472475
v 0.49596428 -0.01551110 0.87490178
v 0.49589935 -0.01156023 0.87423078
v 0.49812301 -0.00870368 0.87248363
v 0.50147105 -0.00726166 0.87062240
v 0.50459462 -0.00595974 0.86839030
v 0.50821985 -0.00451602 0.86727680
l 1 2
l 2 3
l 3 4
l 4 5
l 5 6
l 6 7
l 7 8
l 8 9
l 9 10
l 10 11
l 11 12
l 12 13
l 13 14
l 14 15
l 15 16
l 16 17
l 17 18
l 18 19
l 19 20
l 20 21
l 21 22
l 22 23
l 23 24
l 24 25
l 25 26
l 26 27
l 27 28
l 28 29
l 29 30
l 30 31
l 31 32
l 32 33
l 33 34
l 34 35
l 35 36
l 36 37
l 37 38
l 38 39
l 39 40
l 40 41
l 41 42
l 42 43
l 43 44
l 44 45
l 45 46
l 46 47
l 47 48
l 48 49
l 49 50
l 50 51
