v 0.49890803 0.04852044 0.86646316
v 0.49798180 0.05249748 0.86660659
v 0.49599020 0.05548114 0.86840289
v 0.49252451 0.05648787 0.87041666
v 0.48875046 0.05604558 0.86883100
v 0.48722690 0.05223846 0.86858685
v 0.48883371 0.04827888 0.86831752
v 0.49121443 0.04474954 0.86789978
v 0.49186471 0.04064269 0.86780056
v 0.48894233 0.03776236 0.86834311
v 0.48498667 0.03830820 0.86906210
v 0.48113940 0.03948260 0.86975751
v 0.47711901 0.03841086 0.87049509
v 0.47334480 0.03686866 0.87119101
v 0.47025894 0.03444413 0.87289703
v 0.46948814 0.03087807 0.87458026
v 0.47110571 0.02731393 0.87340372
v 0.47497095 0.02635619 0.87189491
v 0.47867742 0.02859027 0.87286305
v 0.47888590 0.03270781 0.87224210
v 0.47553537 0.03502158 0.87175229
v 0.47247695 0.03287428 0.87339738
v 0.47346950 0.02914648 0.87453261
v 0.47644144 0.02631558 0.87472081
v 0.47945288 0.02425266 0.87270915
v 0.48206904 0.02107282 0.87267005
v 0.48323088 0.01718626 0.87407169
v 0.48311954 0.01317239 0.87564469
v 0.48035325 0.01026836 0.87597106
v 0.47665147 0.00922707 0.87429725
v 0.47303217 0.00921118 0.87226990
v 0.46899481 0.01019466 0.87205868
v 0.46530384 0.01163426 0.87273250
v 0.46198104 0.01379849 0.87333513
v 0.45926746 0.01679197 0.87382268
v 0.45726316 0.02043318 0.87417755
v 0.45591551 0.02425348 0.87441277
v 0.45500354 0.02832039 0.87456489
v 0.45486455 0.03275586 0.87458514
v 0.45707741 0.03588443 0.87578979
v 0.46082733 0.03637495 0.87725613
v 0.46451687 0.03456806 0.87715065
v 0.46701152 0.03148118 0.87604749
v 0.46844109 0.02770862 0.87584044
v 0.46942623 0.02399665 0.87697404
v 0.47096571 0.02048179 0.87881500
v 0.47338159 0.01738044 0.87961369
v 0.47623529 0.01456141 0.87926484
v 0.47942343 0.01203989 0.87870460
v 0.48277253 0.00975167 0.87825054
v 0.48610483 0.00765557 0.87733095
l 1 2
l 2 3
l 3 4
l 4 5
l 5 6
l 6 7
l 7 8
l 8 9
l 9 10
l 10 11
l 11 12
l 12 13
l 13 14
l 14 15
l 15 16
l 16 17
l 17 18
l 18 19
l 19 20
l 20 21
l 21 22
l 22 23
l 23 24
l 24 25
l 25 26
l 26 27
l 27 28
l 28 29
l 29 30
l 30 31
l 31 32
l 32 33
l 33 34
l 34 35
l 35 36
l 36 37
l 37 38
l 38 39
l 39 40
l 40 41
l 41 42
l 42 43
l 43 44
l 44 45
l 45 46
l 46 47
l 47 48
l 48 49
l 49 50
l 50 51
