v 0.53617452 0.02997883 0.86435532
v 0.53223872 0.02913996 0.86491409
v 0.52917039 0.03205908 0.86567104
v 0.53043620 0.03564800 0.86382116
v 0.53150570 0.03751390 0.86041906
v 0.53427647 0.04047181 0.85988733
v 0.53782485 0.04282815 0.85921581
v 0.54129736 0.04267445 0.86146997
v 0.54012572 0.03980445 0.86414818
v 0.53626197 0.03859621 0.86424805
v 0.53243233 0.03869753 0.86291903
v 0.52922560 0.04059833 0.86139692
v 0.53044732 0.04442204 0.86058568
v 0.53464884 0.04455324 0.86002012
v 0.53703700 0.04251939 0.86256682
v 0.53749844 0.04090311 0.86624663
v 0.53591999 0.03715792 0.86727868
v 0.53209394 0.03556614 0.86628772
v 0.52838109 0.03714402 0.86637565
v 0.52542432 0.03968322 0.86544846
v 0.52164156 0.03961724 0.86703555
v 0.52061766 0.03566344 0.86768928
v 0.52375225 0.03325000 0.86699560
v 0.52760986 0.03382283 0.86816214
v 0.53086094 0.03643790 0.86895418
v 0.53352522 0.03915117 0.86715395
v 0.53531653 0.04257788 0.86595250
v 0.53398629 0.04679098 0.86573780
v 0.53002412 0.04808326 0.86603585
v 0.52591570 0.04766764 0.86557403
v 0.52288311 0.04524916 0.86449372
v 0.52090485 0.04219897 0.86665954
v 0.52191968 0.04141182 0.87044979
v 0.52518901 0.04219155 0.87266788
v 0.52883277 0.04376095 0.87160225
v 0.53289686 0.04453262 0.87077239
v 0.53625078 0.04179608 0.87175860
v 0.53598360 0.03818173 0.87412116
v 0.53397314 0.03502297 0.87556962
v 0.53127815 0.03169238 0.87534799
v 0.52810502 0.02920519 0.87444428
v 0.52419183 0.02965515 0.87543420
v 0.52205074 0.03269412 0.87719324
v 0.52216148 0.03687418 0.87756315
v 0.52264193 0.04079152 0.87688028
v 0.52294428 0.04477862 0.87627279
v 0.52353467 0.04893250 0.87668470
v 0.52425500 0.05271787 0.87785331
v 0.52495208 0.05649746 0.87906874
v 0.52595858 0.06033453 0.87971699
v 0.52701567 0.06419968 0.87980467
l 1 2
l 2 3
l 3 4
l 4 5
l 5 6
l 6 7
l 7 8
l 8 9
l 9 10
l 10 11
l 11 12
l 12 13
l 13 14
l 14 15
l 15 16
l 16 17
l 17 18
l 18 19
l 19 20
l 20 21
l 21 22
l 22 23
l 23 24
l 24 25
l 25 26
l 26 27
l 27 28
l 28 29
l 29 30
l 30 31
l 31 32
l 32 33
l 33 34
l 34 35
l 35 36
l 36 37
l 37 38
l 38 39
l 39 40
l 40 41
l 41 42
l 42 43
l 43 44
l 44 45
l 45 46
l 46 47
l 47 48
l 48 49
l 49 50
l 50 51
