v 0.54133705 0.01334138 0.86371455
v 0.54048656 0.01732565 0.86388195
v 0.54185412 0.02070973 0.86620721
v 0.54377346 0.02454108 0.86607947
v 0.54327527 0.02853650 0.86548986
v 0.54041257 0.03164644 0.86613604
v 0.53650169 0.03033241 0.86696019
v 0.53366134 0.02742106 0.86688109
v 0.53150484 0.02453851 0.86512450
v 0.53022823 0.02065316 0.86524215
v 0.53059022 0.01658583 0.86516990
v 0.52800507 0.01339925 0.86525741
v 0.52426821 0.01463361 0.86648783
v 0.52465612 0.01838341 0.86789208
v 0.52671792 0.02202449 0.86897951
v 0.52982146 0.02460738 0.87000149
v 0.53379727 0.02427483 0.86926244
v 0.53464616 0.02042836 0.86775852
v 0.53149696 0.01820845 0.86918667
v 0.53001515 0.02038049 0.87228746
v 0.53111330 0.02415197 0.87310240
v 0.53186493 0.02735127 0.87069939
v 0.53090080 0.02800764 0.86678683
v 0.52695338 0.02798451 0.86530372
v 0.52365711 0.02870483 0.86793899
v 0.52348962 0.03162429 0.87100336
v 0.52570164 0.03507391 0.87088853
v 0.52830298 0.03757305 0.86895867
v 0.53110157 0.04023897 0.86780535
v 0.53209641 0.04356596 0.86566069
v 0.52874481 0.04569871 0.86451722
v 0.52531051 0.04468151 0.86687995
v 0.52567230 0.04178119 0.86998505
v 0.52843261 0.03885857 0.87118079
v 0.53166912 0.03643130 0.87152471
v 0.53496808 0.03460090 0.87287489
v 0.53649984 0.03234034 0.87591050
v 0.53508179 0.02955503 0.87843227
v 0.53119967 0.02836322 0.87859450
v 0.52781344 0.03039998 0.87687671
v 0.52671473 0.03367211 0.87485008
v 0.52732263 0.03772455 0.87364951
v 0.52921595 0.04148719 0.87360428
v 0.53048156 0.04533154 0.87421110
v 0.53172096 0.04912284 0.87462934
v 0.53487962 0.05154887 0.87572739
v 0.53858637 0.05050023 0.87683014
v 0.54025905 0.04679978 0.87707069
v 0.54021522 0.04272588 0.87597730
v 0.53929269 0.03932689 0.87379772
v 0.53721707 0.03619106 0.87231283
l 1 2
l 2 3
l 3 4
l 4 5
l 5 6
l 6 7
l 7 8
l 8 9
l 9 10
l 10 11
l 11 12
l 12 13
l 13 14
l 14 15
l 15 16
l 16 17
l 17 18
l 18 19
l 19 20
l 20 21
l 21 22
l 22 23
l 23 24
l 24 25
l 25 26
l 26 27
l 27 28
l 28 29
l 29 30
l 30 31
l 31 32
l 32 33
l 33 34
l 34 35
l 35 36
l 36 37
l 37 38
l 38 39
l 39 40
l 40 41
l 41 42
l 42 43
l 43 44
l 44 45
l 45 46
l 46 47
l 47 48
l 48 49
l 49 50
l 50 51
