v 0.54606944 0.01117346 0.86351357
v 0.54222655 0.01003964 0.86362797
v 0.53853842 0.01201428 0.86414943
v 0.53979686 0.01543321 0.86630861
v 0.54322786 0.01789794 0.86646731
v 0.54507597 0.02139707 0.86572133
v 0.54884229 0.02173082 0.86729086
v 0.54967799 0.01803353 0.86861639
v 0.54697975 0.01528274 0.86728758
v 0.54341267 0.01423464 0.86567151
v 0.54028445 0.01194446 0.86667454
v 0.53773783 0.00996635 0.86921532
v 0.53759272 0.00928188 0.87317248
v 0.53972494 0.01178146 0.87549625
v 0.54110313 0.01509158 0.87361467
v 0.53769845 0.01618674 0.87172429
v 0.53422571 0.01358824 0.87101285
v 0.53204514 0.01023825 0.87040153
v 0.52961430 0.00685304 0.87055800
v 0.52719695 0.00366795 0.87107496
v 0.52536527 -0.00003440 0.87103792
v 0.52475274 -0.00426775 0.87052713
v 0.52582274 -0.00812622 0.87009834
v 0.52867570 -0.01106354 0.87074562
v 0.53229960 -0.01019053 0.87222810
v 0.53248307 -0.00641206 0.87356154
v 0.52901510 -0.00418267 0.87339418
v 0.52514242 -0.00537855 0.87291891
v 0.52278680 -0.00863381 0.87253450
v 0.52208968 -0.01252545 0.87345432
v 0.52329799 -0.01617805 0.87486819
v 0.52635332 -0.01888195 0.87489101
v 0.52973461 -0.01935126 0.87279214
v 0.53038272 -0.01706742 0.86932115
v 0.52721813 -0.01497644 0.86791408
v 0.52362082 -0.01350795 0.86908141
v 0.52068813 -0.01100365 0.87018211
v 0.51733759 -0.00906359 0.87126683
v 0.51391791 -0.00675044 0.87162613
v 0.51229204 -0.00361586 0.86954126
v 0.51457103 -0.00017854 0.86922961
v 0.51740728 0.00191794 0.87115836
v 0.52014677 0.00304228 0.87404461
v 0.52274029 0.00504368 0.87660520
v 0.52407245 0.00838984 0.87836608
v 0.52380876 0.01221191 0.87957015
v 0.52240111 0.01610295 0.88026486
v 0.52039418 0.01963105 0.88047521
v 0.51786950 0.02295318 0.88076112
v 0.51525628 0.02602658 0.88053177
v 0.51267241 0.02906462 0.87997443
l 1 2
l 2 3
l 3 4
l 4 5
l 5 6
l 6 7
l 7 8
l 8 9
l 9 10
l 10 11
l 11 12
l 12 13
l 13 14
l 14 15
l 15 16
l 16 17
l 17 18
l 18 19
l 19 20
l 20 21
l 21 22
l 22 23
l 23 24
l 24 25
l 25 26
l 26 27
l 27 28
l 28 29
l 29 30
l 30 31
l 31 32
l 32 33
l 33 34
l 34 35
l 35 36
l 36 37
l 37 38
l 38 39
l 39 40
l 40 41
l 41 42
l 42 43
l 43 44
l 44 45
l 45 46
l 46 47
l 47 48
l 48 49
l 49 50
l 50 51
