v 0.52347704 -0.00866396 0.86256592
v 0.52491342 -0.00481259 0.86206180
v 0.52679841 -0.00099530 0.86154634
v 0.52577763 0.00287939 0.86158332
v 0.52312856 0.00593894 0.86206758
v 0.51931356 0.00435414 0.86278597
v 0.51634090 0.00161572 0.86334294
v 0.51342972 -0.00109376 0.86389113
v 0.51156681 -0.00483898 0.86424053
v 0.51285130 -0.00884899 0.86420129
v 0.51605217 -0.01134911 0.86386940
v 0.51958711 -0.01144061 0.86610888
v 0.52067312 -0.00828070 0.86850227
v 0.52022731 -0.00389431 0.86797326
v 0.51954976 0.00037963 0.86771399
v 0.51949950 0.00472282 0.86856907
v 0.51947135 0.00886403 0.86755877
v 0.51675739 0.01199944 0.86714152
v 0.51306935 0.01087012 0.86848666
v 0.51068587 0.00799581 0.87006576
v 0.50890472 0.00429214 0.86932143
v 0.50963902 0.00105135 0.86707819
v 0.51203343 -0.00214689 0.86673578
v 0.51598208 -0.00146114 0.86690565
v 0.51702913 0.00223839 0.86811580
v 0.51698268 0.00635160 0.86875547
v 0.51699562 0.01038416 0.86963714
v 0.51594785 0.01455845 0.87027370
v 0.51420396 0.01814241 0.87078129
v 0.51129420 0.02080772 0.86963827
v 0.50732173 0.02127696 0.86899750
v 0.50397444 0.01924285 0.87071311
v 0.50270559 0.01542679 0.87140412
v 0.50402614 0.01180522 0.87282830
v 0.50750883 0.01035274 0.87500908
v 0.51090363 0.01141491 0.87694305
v 0.51313269 0.01446669 0.87845840
v 0.51378124 0.01849490 0.87813099
v 0.51113270 0.02092897 0.87630798
v 0.50727137 0.01925496 0.87555405
v 0.50555817 0.01573333 0.87672186
v 0.50411122 0.01195507 0.87651199
v 0.50291691 0.00811052 0.87584495
v 0.50268770 0.00391607 0.87495573
v 0.50249166 -0.00020552 0.87296633
v 0.50305416 -0.00383853 0.87137237
v 0.50543447 -0.00745207 0.87157522
v 0.50895979 -0.00869587 0.87319575
v 0.51225930 -0.00691380 0.87503744
v 0.51472677 -0.00376087 0.87664770
v 0.51672758 -0.00040326 0.87789795
l 1 2
l 2 3
l 3 4
l 4 5
l 5 6
l 6 7
l 7 8
l 8 9
l 9 10
l 10 11
l 11 12
l 12 13
l 13 14
l 14 15
l 15 16
l 16 17
l 17 18
l 18 19
l 19 20
l 20 21
l 21 22
l 22 23
l 23 24
l 24 25
l 25 26
l 26 27
l 27 28
l 28 29
l 29 30
l 30 31
l 31 32
l 32 33
l 33 34
l 34 35
l 35 36
l 36 37
l 37 38
l 38 39
l 39 40
l 40 41
l 41 42
l 42 43
l 43 44
l 44 45
l 45 46
l 46 47
l 47 48
l 48 49
l 49 50
l 50 51
