v 0.51009675 0.07732617 0.86420452
v 0.50645496 0.07594069 0.86556540
v 0.50439651 0.07564137 0.86907909
v 0.50151320 0.07368953 0.87110564
v 0.50069235 0.06991280 0.86982888
v 0.50261221 0.06699238 0.86731796
v 0.50618292 0.06663950 0.86499761
v 0.51006434 0.06736605 0.86427305
v 0.51253399 0.07036587 0.86572267
v 0.51123767 0.07283679 0.86869506
v 0.50840770 0.07091217 0.87089690
v 0.50740654 0.06681729 0.87035738
v 0.50741202 0.06299298 0.86890562
v 0.50913097 0.05933456 0.86805555
v 0.51171579 0.05623760 0.86895419
v 0.51436161 0.05361630 0.86738035
v 0.51763145 0.05286567 0.86519993
v 0.52189882 0.05189982 0.86544787
v 0.52570883 0.05313836 0.86634412
v 0.52778220 0.05659211 0.86617637
v 0.52777940 0.06017228 0.86399658
v 0.52413576 0.06210944 0.86391381
v 0.52073598 0.06428303 0.86417535
v 0.51912342 0.06782269 0.86526307
v 0.51726279 0.07032063 0.86784003
v 0.51621602 0.06821794 0.87130916
v 0.51953393 0.06576362 0.87148870
v 0.52244955 0.06678530 0.86890491
v 0.52389972 0.06987173 0.86674800
v 0.52500566 0.07378715 0.86682519
v 0.52377918 0.07680294 0.86915977
v 0.52016871 0.07781362 0.87060323
v 0.51686617 0.07554685 0.87109336
v 0.51711528 0.07150635 0.87125261
v 0.52032200 0.06869293 0.87109702
v 0.52416127 0.06787152 0.87199908
v 0.52833377 0.06818297 0.87310757
v 0.53138878 0.07026452 0.87540155
v 0.53266086 0.07387389 0.87713621
v 0.53195399 0.07784758 0.87690066
v 0.53001632 0.08017707 0.87412943
v 0.52766501 0.07862158 0.87102380
v 0.52560483 0.07508216 0.87039537
v 0.52235379 0.07276699 0.87073437
v 0.51912084 0.07188076 0.87312495
v 0.51684170 0.06987062 0.87624025
v 0.51414058 0.06703728 0.87758572
v 0.51285139 0.06336109 0.87861277
v 0.51217737 0.05946416 0.87941770
v 0.51128113 0.05531022 0.88010356
v 0.51015174 0.05140633 0.88104000
l 1 2
l 2 3
l 3 4
l 4 5
l 5 6
l 6 7
l 7 8
l 8 9
l 9 10
l 10 11
l 11 12
l 12 13
l 13 14
l 14 15
l 15 16
l 16 17
l 17 18
l 18 19
l 19 20
l 20 21
l 21 22
l 22 23
l 23 24
l 24 25
l 25 26
l 26 27
l 27 28
l 28 29
l 29 30
l 30 31
l 31 32
l 32 33
l 33 34
l 34 35
l 35 36
l 36 37
l 37 38
l 38 39
l 39 40
l 40 41
l 41 42
l 42 43
l 43 44
l 44 45
l 45 46
l 46 47
l 47 48
l 48 49
l 49 50
l 50 51
