v 0.53821912 0.00900451 0.86394276
v 0.53508335 0.01167197 0.86439839
v 0.53419250 0.01568589 0.86466496
v 0.53604354 0.01877099 0.86651431
v 0.53819813 0.01657383 0.86911456
v 0.53670188 0.01281513 0.86936703
v 0.53443620 0.00961441 0.86857602
v 0.53256231 0.00617968 0.86715269
v 0.53047887 0.00364806 0.86433477
v 0.52657133 0.00234310 0.86420133
v 0.52433714 0.00429153 0.86703460
v 0.52217735 0.00767006 0.86676458
v 0.52114680 0.01163245 0.86644913
v 0.52153648 0.01552321 0.86753905
v 0.52255112 0.01958297 0.86682048
v 0.52160430 0.02371933 0.86716886
v 0.51805884 0.02544976 0.86863621
v 0.51438827 0.02371791 0.86905818
v 0.51036347 0.02338905 0.86896454
v 0.50792537 0.02642067 0.86799504
v 0.50937077 0.03013392 0.86707664
v 0.51303818 0.03174458 0.86703482
v 0.51705584 0.03066051 0.86811361
v 0.52099204 0.03138244 0.86944847
v 0.52288660 0.03492276 0.86990872
v 0.52439730 0.03843570 0.86851611
v 0.52715575 0.04132963 0.86754238
v 0.53053004 0.04228386 0.86952115
v 0.53366098 0.03955690 0.87099991
v 0.53372133 0.03558584 0.86932454
v 0.53063244 0.03301094 0.86905819
v 0.52708764 0.03106214 0.86972666
v 0.52438761 0.02848328 0.87202280
v 0.52381048 0.02676534 0.87564895
v 0.52516541 0.02462618 0.87880867
v 0.52643656 0.02083019 0.87961008
v 0.52604403 0.01692409 0.87870967
v 0.52255455 0.01516327 0.87739633
v 0.51923711 0.01758223 0.87698623
v 0.51903971 0.02173510 0.87796503
v 0.51995644 0.02557177 0.87909349
v 0.52159580 0.02956683 0.87947346
v 0.52288260 0.03335050 0.87971464
v 0.52315517 0.03738218 0.87997945
v 0.52194557 0.04131129 0.87935029
v 0.51924398 0.04399630 0.87791496
v 0.51518452 0.04478985 0.87696356
v 0.51151785 0.04322881 0.87792401
v 0.50949284 0.04016930 0.87976743
v 0.50893027 0.03639923 0.88098938
v 0.50842805 0.03245867 0.88156985
l 1 2
l 2 3
l 3 4
l 4 5
l 5 6
l 6 7
l 7 8
l 8 9
l 9 10
l 10 11
l 11 12
l 12 13
l 13 14
l 14 15
l 15 16
l 16 17
l 17 18
l 18 19
l 19 20
l 20 21
l 21 22
l 22 23
l 23 24
l 24 25
l 25 26
l 26 27
l 27 28
l 28 29
l 29 30
l 30 31
l 31 32
l 32 33
l 33 34
l 34 35
l 35 36
l 36 37
l 37 38
l 38 39
l 39 40
l 40 41
l 41 42
l 42 43
l 43 44
l 44 45
l 45 46
l 46 47
l 47 48
l 48 49
l 49 50
l 50 51
