v 0.53850382 0.07739482 0.85927930
v 0.53464711 0.07847803 0.85982067
v 0.53061598 0.07949980 0.86041099
v 0.52882365 0.07954588 0.86419209
v 0.53111657 0.08189972 0.86662227
v 0.53345893 0.08478245 0.86870770
v 0.53732005 0.08382036 0.86783615
v 0.53614022 0.08135492 0.86491499
v 0.53430522 0.07796499 0.86382113
v 0.53212439 0.07590181 0.86650544
v 0.53221279 0.07945294 0.86898992
v 0.53094725 0.08324372 0.86994301
v 0.52760608 0.08460697 0.86813016
v 0.52464020 0.08219622 0.86681103
v 0.52441222 0.07892655 0.86438980
v 0.52806508 0.07744624 0.86537415
v 0.52913876 0.07950569 0.86865761
v 0.52940288 0.08207514 0.87202203
v 0.53085321 0.08593916 0.87256174
v 0.53197287 0.08969824 0.87143443
v 0.53335985 0.09348527 0.87103945
v 0.53426040 0.09767499 0.87094892
v 0.53338363 0.10153107 0.87161092
v 0.53040035 0.10443701 0.87247228
v 0.52631331 0.10402220 0.87302550
v 0.52454529 0.10042068 0.87307660
v 0.52614234 0.09668716 0.87271420
v 0.52901656 0.09391171 0.87300074
v 0.53191098 0.09129837 0.87390235
v 0.53589273 0.08981535 0.87333845
v 0.53929177 0.09120457 0.87081019
v 0.54143998 0.09468989 0.87097393
v 0.54036596 0.09727676 0.87400404
v 0.53682050 0.09748482 0.87631391
v 0.53334002 0.09598686 0.87767762
v 0.53010392 0.09350403 0.87880416
v 0.52737096 0.09054185 0.87930047
v 0.52528802 0.08725271 0.87810583
v 0.52381576 0.08389165 0.87636486
v 0.52289032 0.08010912 0.87516752
v 0.52310539 0.07624641 0.87623389
v 0.52564594 0.07421136 0.87863017
v 0.52944522 0.07517268 0.87965768
v 0.53259712 0.07769392 0.87939595
v 0.53546840 0.08034972 0.87813877
v 0.53805933 0.08304271 0.87638492
v 0.54053133 0.08629918 0.87529665
v 0.54237561 0.08992607 0.87520783
v 0.54332103 0.09400863 0.87566287
v 0.54332409 0.09802752 0.87562231
v 0.54313405 0.10204247 0.87518382
l 1 2
l 2 3
l 3 4
l 4 5
l 5 6
l 6 7
l 7 8
l 8 9
l 9 10
l 10 11
l 11 12
l 12 13
l 13 14
l 14 15
l 15 16
l 16 17
l 17 18
l 18 19
l 19 20
l 20 21
l 21 22
l 22 23
l 23 24
l 24 25
l 25 26
l 26 27
l 27 28
l 28 29
l 29 30
l 30 31
l 31 32
l 32 33
l 33 34
l 34 35
l 35 36
l 36 37
l 37 38
l 38 39
l 39 40
l 40 41
l 41 42
l 42 43
l 43 44
l 44 45
l 45 46
l 46 47
l 47 48
l 48 49
l 49 50
l 50 51
