v 0.48461016 0.10220003 0.87032533
v 0.48815549 0.10067912 0.86918314
v 0.49195980 0.09907521 0.86802498
v 0.49562316 0.09742050 0.86713646
v 0.49917177 0.09531956 0.86634309
v 0.50204680 0.09216581 0.86561016
v 0.50327493 0.08835321 0.86576515
v 0.50276353 0.08466029 0.86746812
v 0.50088887 0.08177023 0.86968180
v 0.49823589 0.07916221 0.87131025
v 0.49602622 0.07584599 0.87197938
v 0.49245470 0.07391340 0.87168378
v 0.48876339 0.07549218 0.87148896
v 0.48566063 0.07815996 0.87125359
v 0.48257957 0.08096293 0.87020795
v 0.48069108 0.08460054 0.86959040
v 0.48152936 0.08852177 0.86941293
v 0.48499357 0.09000326 0.87114426
v 0.48709987 0.08728583 0.87357894
v 0.48639386 0.08347531 0.87461004
v 0.48469097 0.07980488 0.87392768
v 0.48270168 0.07645567 0.87224660
v 0.48046438 0.07339726 0.87062995
v 0.47746378 0.07046101 0.87029242
v 0.47343401 0.06964006 0.87101144
v 0.46971562 0.07169992 0.87167862
v 0.46795798 0.07551433 0.87198127
v 0.46772885 0.07964836 0.87200024
v 0.46839620 0.08359840 0.87187311
v 0.47082672 0.08685586 0.87151291
v 0.47479801 0.08766675 0.87068715
v 0.47820746 0.08507288 0.87004122
v 0.47847176 0.08088223 0.87002271
v 0.47763289 0.07687612 0.87038800
v 0.47689159 0.07314232 0.87178862
v 0.47770655 0.06971771 0.87395897
v 0.48062563 0.06823893 0.87628138
v 0.48424557 0.06986890 0.87698899
v 0.48659912 0.07326190 0.87739303
v 0.48666379 0.07726373 0.87801104
v 0.48541396 0.08103037 0.87714239
v 0.48313800 0.08393765 0.87556935
v 0.47975254 0.08551147 0.87341719
v 0.47584624 0.08505242 0.87240423
v 0.47270170 0.08276055 0.87131697
v 0.47104736 0.07878602 0.87145126
v 0.47140988 0.07472781 0.87211839
v 0.47311751 0.07106367 0.87351259
v 0.47607699 0.06787420 0.87449806
v 0.47976451 0.06565831 0.87580490
v 0.48397261 0.06464981 0.87565534
l 1 2
l 2 3
l 3 4
l 4 5
l 5 6
l 6 7
l 7 8
l 8 9
l 9 10
l 10 11
l 11 12
l 12 13
l 13 14
l 14 15
l 15 16
l 16 17
l 17 18
l 18 19
l 19 20
l 20 21
l 21 22
l 22 23
l 23 24
l 24 25
l 25 26
l 26 27
l 27 28
l 28 29
l 29 30
l 30 31
l 31 32
l 32 33
l 33 34
l 34 35
l 35 36
l 36 37
l 37 38
l 38 39
l 39 40
l 40 41
l 41 42
l 42 43
l 43 44
l 44 45
l 45 46
l 46 47
l 47 48
l 48 49
l 49 50
l 50 51
