v 0.50583786 0.01305118 0.86527048
v 0.50286661 0.01606487 0.86581664
v 0.50008657 0.01892005 0.86721886
v 0.49920738 0.02198502 0.86973431
v 0.49879003 0.02596224 0.86916116
v 0.49784513 0.02900446 0.86672506
v 0.49876309 0.03290256 0.86654774
v 0.50104222 0.03618876 0.86612043
v 0.50481626 0.03743869 0.86541165
v 0.50784550 0.03477442 0.86485301
v 0.50851418 0.03047899 0.86473853
v 0.50778302 0.02654858 0.86488520
v 0.50635538 0.02340359 0.86736669
v 0.50427752 0.02254649 0.87085848
v 0.50044879 0.02326327 0.87211804
v 0.49646199 0.02459548 0.87204538
v 0.49228413 0.02499051 0.87159701
v 0.48985799 0.02211471 0.87001315
v 0.49001791 0.01790753 0.87087696
v 0.49173187 0.01431566 0.87141933
v 0.49264153 0.01032325 0.87255374
v 0.49330706 0.00633650 0.87287018
v 0.49438918 0.00267761 0.87165941
v 0.49478002 -0.00080610 0.86971451
v 0.49330007 -0.00460011 0.86968699
v 0.49045867 -0.00694137 0.87131431
v 0.48716739 -0.00844428 0.87350947
v 0.48354094 -0.00713154 0.87515240
v 0.48132292 -0.00354504 0.87572468
v 0.48063562 0.00031045 0.87476320
v 0.48108346 0.00377507 0.87271370
v 0.48191612 0.00778392 0.87198966
v 0.48309615 0.01170164 0.87163206
v 0.48512614 0.01507300 0.87252766
v 0.48617046 0.01837166 0.87464650
v 0.48612014 0.02085550 0.87786604
v 0.48429351 0.02407519 0.88008008
v 0.48210314 0.02793356 0.88007223
v 0.48023426 0.03155882 0.87852507
v 0.48038084 0.03577389 0.87785977
v 0.48316376 0.03891330 0.87821345
v 0.48717851 0.03901674 0.87844236
v 0.49040618 0.03639982 0.87805234
v 0.49166474 0.03266087 0.87738248
v 0.49232058 0.02874525 0.87650858
v 0.49412462 0.02503406 0.87718694
v 0.49685864 0.02220578 0.87824854
v 0.50028958 0.02041314 0.87979062
v 0.50411360 0.01957628 0.88071978
v 0.50827459 0.01901335 0.88079617
v 0.51231135 0.01837350 0.88025808
l 1 2
l 2 3
l 3 4
l 4 5
l 5 6
l 6 7
l 7 8
l 8 9
l 9 10
l 10 11
l 11 12
l 12 13
l 13 14
l 14 15
l 15 16
l 16 17
l 17 18
l 18 19
l 19 20
l 20 21
l 21 22
l 22 23
l 23 24
l 24 25
l 25 26
l 26 27
l 27 28
l 28 29
l 29 30
l 30 31
l 31 32
l 32 33
l 33 34
l 34 35
l 35 36
l 36 37
l 37 38
l 38 39
l 39 40
l 40 41
l 41 42
l 42 43
l 43 44
l 44 45
l 45 46
l 46 47
l 47 48
l 48 49
l 49 50
l 50 51
