v 0.50404679 0.02362982 0.86558546
v 0.50005089 0.02432800 0.86632376
v 0.49634839 0.02570822 0.86700491
v 0.49498022 0.02950902 0.86724971
v 0.49606356 0.03349741 0.86704580
v 0.49813769 0.03728436 0.86665727
v 0.50160630 0.03985377 0.86600332
v 0.50564513 0.03996142 0.86524577
v 0.50919810 0.03804077 0.86458997
v 0.51072908 0.03433617 0.86510980
v 0.50893196 0.03249240 0.86829056
v 0.50533916 0.03297985 0.87034543
v 0.50126110 0.03337285 0.87090980
v 0.49767276 0.03217869 0.86951694
v 0.49447346 0.02971041 0.86976923
v 0.49320408 0.02582432 0.86876925
v 0.49391008 0.02201564 0.87005002
v 0.49384587 0.01792417 0.86990903
v 0.49032299 0.01623449 0.86813357
v 0.48687177 0.01829877 0.86876490
v 0.48573357 0.02223622 0.87016995
v 0.48567579 0.02638057 0.87153303
v 0.48434806 0.03038740 0.87152460
v 0.48235539 0.03390400 0.87208023
v 0.48067876 0.03690840 0.87454963
v 0.47762674 0.03646151 0.87710853
v 0.47496396 0.03352449 0.87780244
v 0.47305290 0.02998219 0.87727441
v 0.47168692 0.02640541 0.87600218
v 0.47094272 0.02257460 0.87469255
v 0.47268628 0.01882086 0.87413120
v 0.47652540 0.01803175 0.87555245
v 0.48000767 0.01974273 0.87664716
v 0.48342571 0.02195147 0.87648133
v 0.48648079 0.02463237 0.87659921
v 0.48743219 0.02859799 0.87557064
v 0.48683399 0.03267299 0.87455837
v 0.48607666 0.03684528 0.87486626
v 0.48579137 0.04057551 0.87629556
v 0.48748668 0.04264133 0.87933152
v 0.49112096 0.04235320 0.88106770
v 0.49483713 0.04038758 0.87971634
v 0.49672310 0.03706330 0.87796093
v 0.49682491 0.03305381 0.87740775
v 0.49487762 0.02951162 0.87840921
v 0.49141206 0.02771307 0.87963853
v 0.48748811 0.02794009 0.88057927
v 0.48394540 0.02972196 0.88111429
v 0.48077293 0.03239666 0.88101714
v 0.47775225 0.03516764 0.88015386
v 0.47465006 0.03803330 0.87898723
l 1 2
l 2 3
l 3 4
l 4 5
l 5 6
l 6 7
l 7 8
l 8 9
l 9 10
l 10 11
l 11 12
l 12 13
l 13 14
l 14 15
l 15 16
l 16 17
l 17 18
l 18 19
l 19 20
l 20 21
l 21 22
l 22 23
l 23 24
l 24 25
l 25 26
l 26 27
l 27 28
l 28 29
l 29 30
l 30 31
l 31 32
l 32 33
l 33 34
l 34 35
l 35 36
l 36 37
l 37 38
l 38 39
l 39 40
l 40 41
l 41 42
l 42 43
l 43 44
l 44 45
l 45 46
l 46 47
l 47 48
l 48 49
l 49 50
l 50 51
