# https://github.com/mikedh/trimesh
v 0.04150020 0.01644798 0.00142341
v 0.04150020 0.01650000 -0.00000000
v 0.04150020 0.01644798 -0.00142341
v 0.04150020 0.01603348 -0.00423989
v 0.04150020 0.01521331 -0.00696600
v 0.04150020 0.01400496 -0.00954365
v 0.04150020 0.01243418 -0.01191789
v 0.04150020 0.01053445 -0.01403812
v 0.04150020 0.00834625 -0.01585915
v 0.04150020 0.00591623 -0.01734217
v 0.04150020 0.00329617 -0.01845558
v 0.04150020 0.00054192 -0.01917563
v 0.04150020 -0.00228782 -0.01948699
v 0.04150020 -0.00513274 -0.01938302
v 0.04150020 -0.00793220 -0.01886593
v 0.04150020 -0.01062654 -0.01794675
v 0.04150020 -0.01315834 -0.01664506
v 0.04150020 -0.01547362 -0.01498862
v 0.04150020 -0.01752306 -0.01301272
v 0.04150020 -0.01926296 -0.01075947
v 0.04150020 -0.02065624 -0.00827691
v 0.04150020 -0.02167321 -0.00561793
v 0.04150020 -0.02229219 -0.00283922
v 0.04150020 -0.02250000 -0.00000000
v 0.04150020 -0.02229219 0.00283922
v 0.04150020 -0.02167321 0.00561793
v 0.04150020 -0.02065624 0.00827691
v 0.04150020 -0.01926296 0.01075947
v 0.04150020 -0.01752306 0.01301272
v 0.04150020 -0.01547362 0.01498862
v 0.04150020 -0.01315834 0.01664506
v 0.04150020 -0.01062654 0.01794675
v 0.04150020 -0.00793220 0.01886593
v 0.04150020 -0.00513274 0.01938302
v 0.04150020 -0.00228782 0.01948699
v 0.04150020 0.00054192 0.01917563
v 0.04150020 0.00329617 0.01845557
v 0.04150020 0.00591623 0.01734217
v 0.04150020 0.00834625 0.01585915
v 0.04150020 0.01053445 0.01403812
v 0.04150020 0.01243418 0.01191789
v 0.04150020 0.01400496 0.00954365
v 0.04150020 0.01521331 0.00696600
v 0.04150020 0.01603348 0.00423989
v 0.04150020 -0.00300000 -0.00000000
f 2 1 45
f 2 45 3
f 45 4 3
f 45 5 4
f 6 5 45
f 45 7 6
f 45 8 7
f 9 8 45
f 45 10 9
f 45 11 10
f 12 11 45
f 45 13 12
f 45 14 13
f 15 14 45
f 45 16 15
f 45 17 16
f 18 17 45
f 45 19 18
f 45 20 19
f 21 20 45
f 45 22 21
f 45 23 22
f 24 23 45
f 45 25 24
f 45 26 25
f 27 26 45
f 45 28 27
f 45 29 28
f 30 29 45
f 45 31 30
f 45 32 31
f 33 32 45
f 45 34 33
f 45 35 34
f 36 35 45
f 45 37 36
f 45 38 37
f 39 38 45
f 45 40 39
f 45 41 40
f 42 41 45
f 45 43 42
f 45 44 43
f 1 44 45

