v 0.65315896 -0.01250780 0.87643458
v 0.64999579 -0.01056732 0.87871640
v 0.65441094 -0.00990759 0.87604108
v 0.65123593 -0.00804932 0.87831714
v 0.65475885 -0.01007902 0.87668160
v 0.65158230 -0.00822064 0.87894157
v 0.65500085 -0.01041604 0.87730011
v 0.65181485 -0.00854894 0.87955177
v 0.65510837 -0.01089839 0.87786142
v 0.65192773 -0.00902050 0.88009976
v 0.65508101 -0.01148737 0.87833137
v 0.65190078 -0.00959006 0.88056279
v 0.65492069 -0.01214813 0.87866917
v 0.65175286 -0.01023257 0.88089501
v 0.65463864 -0.01283008 0.87885804
v 0.65147777 -0.01089706 0.88108005
v 0.65425314 -0.01348635 0.87888348
v 0.65109942 -0.01153797 0.88110640
v 0.65379200 -0.01407367 0.87874351
v 0.65064999 -0.01211394 0.88096770
v 0.65327866 -0.01455283 0.87845219
v 0.65014758 -0.01258060 0.88067890
v 0.65275944 -0.01489350 0.87802348
v 0.64963777 -0.01291055 0.88025364
v 0.65226777 -0.01507015 0.87748777
v 0.64914964 -0.01307860 0.87973017
v 0.65183363 -0.01507005 0.87687980
v 0.64872592 -0.01308447 0.87913551
v 0.65148716 -0.01489784 0.87624188
v 0.64838117 -0.01291252 0.87851812
v 0.65125406 -0.01456065 0.87562163
v 0.64815187 -0.01258188 0.87791236
v 0.65115125 -0.01408525 0.87505576
v 0.64804997 -0.01212055 0.87735635
v 0.65117430 -0.01349406 0.87458843
v 0.64807291 -0.01154334 0.87690421
v 0.65133710 -0.01283764 0.87424486
v 0.64823125 -0.01090223 0.87657210
v 0.65162427 -0.01215839 0.87404982
v 0.64850807 -0.01023709 0.87638160
v 0.65200561 -0.01150080 0.87402592
v 0.64887359 -0.00959180 0.87635355
v 0.65246489 -0.01091191 0.87416346
v 0.64932418 -0.00901934 0.87648843
v 0.65296954 -0.01043289 0.87445690
v 0.64981975 -0.00854961 0.87677238
v 0.65348407 -0.01009004 0.87489138
v 0.65032229 -0.00821862 0.87719418
v 0.65397608 -0.00991116 0.87543191
v 0.65080636 -0.00804944 0.87771809
v 0.65560505 -0.00729786 0.87568463
v 0.65244934 -0.00551507 0.87793715
v 0.65632447 -0.00763488 0.87695368
v 0.65314466 -0.00586020 0.87917958
v 0.65679559 -0.00831197 0.87819395
v 0.65361986 -0.00653261 0.88040554
v 0.65700310 -0.00928568 0.87932189
v 0.65385295 -0.00746339 0.88151650
v 0.65696709 -0.01048002 0.88024937
v 0.65381227 -0.00861857 0.88242300
v 0.65664419 -0.01179506 0.88091476
v 0.65351019 -0.00990852 0.88309410
v 0.65608404 -0.01314878 0.88129642
v 0.65296978 -0.01124655 0.88346075
v 0.65530995 -0.01445105 0.88133858
v 0.65221208 -0.01253171 0.88351135
v 0.65438580 -0.01561763 0.88106394
v 0.65129825 -0.01368487 0.88323500
v 0.65335909 -0.01656853 0.88048183
v 0.65029163 -0.01460623 0.88266109
v 0.65232481 -0.01725592 0.87961831
v 0.64927015 -0.01525719 0.88180987
v 0.65133547 -0.01760689 0.87855554
v 0.64829055 -0.01559669 0.88074465
v 0.65045867 -0.01760039 0.87734997
v 0.64742341 -0.01560367 0.87956001
v 0.64977322 -0.01725693 0.87607904
v 0.64674292 -0.01526592 0.87831024
v 0.64931512 -0.01658630 0.87484622
v 0.64627802 -0.01461025 0.87709963
v 0.64910390 -0.01563416 0.87372471
v 0.64607098 -0.01368116 0.87600270
v 0.64918386 -0.01446095 0.87278807
v 0.64611940 -0.01254378 0.87510650
v 0.64951734 -0.01314943 0.87208965
v 0.64645368 -0.01125448 0.87445857
v 0.65007732 -0.01178584 0.87170837
v 0.64700678 -0.00990655 0.87408225
v 0.65082708 -0.01046848 0.87162690
v 0.64774489 -0.00860401 0.87400595
v 0.65172935 -0.00930272 0.87188955
v 0.64863797 -0.00745644 0.87426332
v 0.65271720 -0.00835076 0.87247944
v 0.64961792 -0.00651813 0.87482365
v 0.65374121 -0.00769144 0.87335373
v 0.65063103 -0.00586818 0.87568175
v 0.65472973 -0.00731901 0.87445702
v 0.65159259 -0.00551433 0.87674302
v 0.65676545 -0.00467836 0.87536175
v 0.65366520 -0.00297824 0.87756647
v 0.65781156 -0.00518737 0.87727220
v 0.65471582 -0.00348369 0.87943745
v 0.65852251 -0.00620987 0.87913545
v 0.65543739 -0.00449447 0.88126997
v 0.65886660 -0.00766729 0.88080884
v 0.65578209 -0.00591839 0.88293679
v 0.65879541 -0.00944482 0.88219433
v 0.65574240 -0.00766834 0.88430085
v 0.65832839 -0.01141817 0.88318834
v 0.65529225 -0.00960946 0.88530353
v 0.65749121 -0.01345340 0.88375555
v 0.65447794 -0.01161845 0.88584927
v 0.65633611 -0.01540986 0.88380785
v 0.65333626 -0.01354424 0.88593381
v 0.65494287 -0.01715908 0.88340904
v 0.65195861 -0.01526129 0.88550649
v 0.65341002 -0.01857278 0.88252645
v 0.65043686 -0.01665186 0.88463563
v 0.65185305 -0.01956899 0.88124232
v 0.64889007 -0.01762931 0.88336041
v 0.65035917 -0.02009462 0.87964619
v 0.64742197 -0.01812630 0.88176555
v 0.64905577 -0.02009813 0.87783055
v 0.64612201 -0.01812730 0.87997630
v 0.64802241 -0.01958956 0.87593131
v 0.64509444 -0.01762285 0.87810172
v 0.64733664 -0.01859057 0.87408642
v 0.64440196 -0.01663817 0.87627958
v 0.64703215 -0.01717658 0.87241210
v 0.64409152 -0.01524962 0.87463032
v 0.64715173 -0.01542570 0.87103464
v 0.64417712 -0.01353325 0.87327809
v 0.64765131 -0.01345650 0.87003090
v 0.64468952 -0.01159371 0.87233235
v 0.64849452 -0.01139499 0.86945958
v 0.64553130 -0.00956822 0.87177397
v 0.64958210 -0.00941658 0.86930105
v 0.64662268 -0.00762002 0.87162448
v 0.65092434 -0.00766954 0.86966486
v 0.64793479 -0.00588537 0.87198534
v 0.65240524 -0.00626282 0.87056106
v 0.64939474 -0.00450487 0.87283247
v 0.65394375 -0.00529537 0.87189227
v 0.65089960 -0.00352860 0.87414097
v 0.65542740 -0.00472830 0.87353906
v 0.65237353 -0.00301867 0.87575826
v 0.65786398 -0.00203504 0.87509401
v 0.65490938 -0.00043422 0.87719447
v 0.65926240 -0.00270724 0.87762673
v 0.65629796 -0.00110268 0.87971378
v 0.66021083 -0.00407696 0.88011133
v 0.65726058 -0.00246031 0.88215033
v 0.66067875 -0.00602610 0.88233256
v 0.65772992 -0.00438478 0.88436531
v 0.66060971 -0.00840741 0.88416397
v 0.65767681 -0.00672890 0.88619249
v 0.65999368 -0.01105264 0.88548590
v 0.65708697 -0.00932927 0.88751768
v 0.65888774 -0.01376889 0.88621664
v 0.65600550 -0.01200926 0.88823802
v 0.65734936 -0.01636597 0.88630668
v 0.65449022 -0.01457386 0.88834349
v 0.65547832 -0.01868031 0.88577586
v 0.65263827 -0.01684232 0.88777605
v 0.65342479 -0.02055554 0.88461133
v 0.65059720 -0.01869804 0.88661569
v 0.65134360 -0.02187088 0.88289472
v 0.64851832 -0.02000196 0.88492109
v 0.64935152 -0.02255720 0.88076981
v 0.64655620 -0.02066113 0.88279449
v 0.64761146 -0.02255738 0.87835260
v 0.64481675 -0.02066031 0.88040022
v 0.64622858 -0.02187393 0.87582183
v 0.64343139 -0.01998341 0.87789715
v 0.64530865 -0.02054873 0.87334776
v 0.64251235 -0.01867564 0.87544626
v 0.64491463 -0.01867067 0.87111300
v 0.64211486 -0.01683112 0.87323356
v 0.64508425 -0.01636058 0.86928468
v 0.64221987 -0.01455339 0.87143602
v 0.64575389 -0.01373704 0.86799128
v 0.64292741 -0.01195913 0.87020779
v 0.64689553 -0.01103148 0.86726176
v 0.64404191 -0.00925367 0.86950488
v 0.64832177 -0.00836699 0.86697404
v 0.64550025 -0.00660618 0.86924400
v 0.65008367 -0.00604128 0.86744644
v 0.64720409 -0.00433202 0.86965093
v 0.65203850 -0.00416950 0.86862410
v 0.64913234 -0.00249844 0.87079022
v 0.65409665 -0.00291168 0.87047288
v 0.65115699 -0.00124053 0.87262222
v 0.65609331 -0.00214103 0.87266723
v 0.65314262 -0.00050720 0.87478873
v 0.65893482 0.00064006 0.87482414
v 0.65614404 0.00212475 0.87681496
v 0.66066832 -0.00020049 0.87801210
v 0.65787226 0.00128647 0.87997474
v 0.66186063 -0.00192163 0.88111130
v 0.65907614 -0.00041736 0.88303932
v 0.66247507 -0.00437779 0.88387261
v 0.65969357 -0.00284705 0.88580386
v 0.66240354 -0.00737793 0.88614937
v 0.65965051 -0.00580190 0.88806793
v 0.66164464 -0.01067728 0.88780058
v 0.65890531 -0.00905819 0.88972645
v 0.66027940 -0.01407892 0.88870525
v 0.65756237 -0.01242081 0.89061396
v 0.65835167 -0.01732149 0.88881714
v 0.65566017 -0.01562676 0.89074199
v 0.65598726 -0.02019076 0.88817094
v 0.65331870 -0.01844587 0.89005317
v 0.65341951 -0.02251542 0.88671301
v 0.65075863 -0.02075390 0.88860678
v 0.65081529 -0.02415554 0.88458238
v 0.64815856 -0.02238106 0.88648694
v 0.64832467 -0.02500279 0.88192701
v 0.64569220 -0.02320419 0.88383194
v 0.64614924 -0.02500055 0.87890051
v 0.64351638 -0.02320194 0.88082772
v 0.64439881 -0.02412824 0.87573757
v 0.64177481 -0.02233660 0.87768450
v 0.64325451 -0.02247749 0.87262587
v 0.64062293 -0.02070068 0.87459139
v 0.64277945 -0.02014048 0.86979679
v 0.64012978 -0.01839880 0.87179000
v 0.64300046 -0.01723987 0.86750608
v 0.64028289 -0.01556735 0.86954039
v 0.64387893 -0.01400874 0.86596463
v 0.64116470 -0.01232103 0.86808673
v 0.64529945 -0.01058160 0.86507831
v 0.64265488 -0.00883603 0.86728561
v 0.64698025 -0.00727316 0.86468650
v 0.64431620 -0.00564002 0.86679080
v 0.64920503 -0.00439204 0.86523206
v 0.64648796 -0.00277716 0.86730811
v 0.65165839 -0.00204016 0.86670949
v 0.64891512 -0.00049441 0.86873936
v 0.65418327 -0.00056077 0.86905681
v 0.65139085 0.00101656 0.87107545
v 0.65668549 0.00044505 0.87180734
v 0.65389120 0.00197412 0.87382055
v 0.65996387 0.00334812 0.87454452
v 0.65739036 0.00468608 0.87639727
v 0.66201560 0.00234655 0.87844129
v 0.65944073 0.00368737 0.88022586
v 0.66346320 0.00027860 0.88217893
v 0.66089182 0.00163802 0.88393912
v 0.66424186 -0.00272677 0.88544568
v 0.66166415 -0.00131903 0.88723016
v 0.66419925 -0.00635559 0.88814499
v 0.66164937 -0.00489609 0.88993591
v 0.66329605 -0.01031077 0.89012894
v 0.66076262 -0.00880906 0.89191700
v 0.66166556 -0.01439033 0.89119222
v 0.65915052 -0.01285116 0.89297206
v 0.65935749 -0.01826902 0.89134184
v 0.65686786 -0.01669125 0.89313766
v 0.65648955 -0.02168511 0.89058756
v 0.65402722 -0.02005705 0.89232611
v 0.65341897 -0.02446637 0.88884968
v 0.65095706 -0.02282923 0.89060379
v 0.65026995 -0.02641890 0.88631042
v 0.64782388 -0.02476746 0.88806321
v 0.64726293 -0.02742727 0.88313072
v 0.64483987 -0.02575289 0.88488255
v 0.64468386 -0.02743372 0.87947683
v 0.64224628 -0.02576197 0.88126145
v 0.64250657 -0.02634767 0.87569780
v 0.64012404 -0.02468542 0.87748164
v 0.64114027 -0.02437302 0.87191963
v 0.63872975 -0.02272264 0.87371376
v 0.64065618 -0.02155037 0.86845126
v 0.63817951 -0.01996800 0.87029961
v 0.64089573 -0.01803869 0.86568002
v 0.63839307 -0.01653602 0.86757484
v 0.64190472 -0.01415015 0.86390906
v 0.63942966 -0.01261165 0.86588236
v 0.64347225 -0.01013784 0.86296824
v 0.64120568 -0.00863530 0.86514518
v 0.64556294 -0.00619074 0.86239330
v 0.64313076 -0.00465753 0.86434051
v 0.64829713 -0.00274109 0.86303074
v 0.64577844 -0.00124652 0.86493828
v 0.65125109 0.00017653 0.86480065
v 0.64870684 0.00150506 0.86666357
v 0.65424318 0.00211563 0.86766473
v 0.65187933 0.00313719 0.86949059
v 0.65720442 0.00327364 0.87091772
v 0.65478949 0.00435991 0.87273344
v 0.65554223 -0.00885618 0.87681373
v 0.65581232 -0.00946927 0.87769974
v 0.65587210 -0.01025115 0.87844238
v 0.65602769 -0.01097835 0.87928687
v 0.65569945 -0.01198692 0.87967663
v 0.65521392 -0.01295487 0.87983134
v 0.65477846 -0.01396592 0.88011125
v 0.65405966 -0.01477200 0.87978159
v 0.65331096 -0.01536528 0.87925941
v 0.65254114 -0.01608056 0.87881743
v 0.65184797 -0.01621255 0.87796325
v 0.65129456 -0.01608912 0.87706085
v 0.65063967 -0.01608454 0.87615951
v 0.65038582 -0.01547118 0.87527473
v 0.65033909 -0.01470653 0.87451834
v 0.65018396 -0.01398138 0.87368067
v 0.65052127 -0.01297766 0.87327629
v 0.65100332 -0.01200943 0.87311433
v 0.65141431 -0.01098398 0.87283121
v 0.65213502 -0.01018435 0.87315011
v 0.65286730 -0.00959406 0.87367284
v 0.65361903 -0.00888641 0.87412343
v 0.65432110 -0.00874467 0.87498968
v 0.65489597 -0.00887002 0.87589260
v 0.65271915 -0.00754321 0.87997210
v 0.65228475 -0.00716298 0.87904559
v 0.65172743 -0.00704044 0.87816037
v 0.65120852 -0.00678792 0.87722436
v 0.65046219 -0.00716254 0.87651202
v 0.64974068 -0.00773592 0.87599850
v 0.64898752 -0.00823688 0.87537739
v 0.64837063 -0.00914707 0.87529698
v 0.64791122 -0.01009963 0.87545543
v 0.64734571 -0.01107327 0.87551011
v 0.64721032 -0.01199909 0.87608723
v 0.64727148 -0.01275046 0.87681533
v 0.64722072 -0.01360107 0.87750549
v 0.64765881 -0.01397543 0.87841659
v 0.64821406 -0.01409596 0.87930049
v 0.64872548 -0.01433992 0.88023719
v 0.64947824 -0.01396634 0.88094558
v 0.65020959 -0.01339009 0.88146759
v 0.65098000 -0.01289472 0.88209705
v 0.65159822 -0.01198089 0.88218894
v 0.65207640 -0.01103868 0.88202928
v 0.65263072 -0.01007386 0.88199587
v 0.65276100 -0.00916209 0.88139482
v 0.65270138 -0.00840339 0.88065911
v 0.65204448 -0.01524129 0.88149520
v 0.65127711 -0.01277005 0.87787072
v 0.65172065 -0.01392977 0.87940642
v 0.64900244 -0.01635383 0.87823180
v 0.65203962 -0.01056684 0.87665268
v 0.65421881 -0.01062459 0.88089457
v 0.65433328 -0.00902609 0.87774220
v 0.65299331 -0.01271320 0.88069681
v 0.64994566 -0.01167742 0.87960704
v 0.65369678 -0.00661425 0.87634298
v 0.64954048 -0.00992763 0.87754034
v 0.64950231 -0.01050068 0.87410253
v 0.64961510 -0.01384247 0.87692614
v 0.65086668 -0.00945383 0.87898296
v 0.65257203 -0.00862728 0.87719307
v 0.65315118 -0.00890187 0.87505556
v 0.65216622 -0.01342983 0.87587791
v 0.64911874 -0.01167421 0.87845833
v 0.64925258 -0.01238667 0.87507611
v 0.65137987 -0.01038086 0.87419355
v 0.65006648 -0.01460389 0.87908209
v 0.65306366 -0.01222066 0.87850109
v 0.65247844 -0.01216281 0.87521222
v 0.65290526 -0.01033431 0.87995080
v 0.65461177 -0.01205117 0.87971831
v 0.65136914 -0.01178811 0.87952985
v 0.65283510 -0.01376427 0.87710288
v 0.65108094 -0.00843145 0.87544678
v 0.64976422 -0.01013978 0.87607300
v 0.64890547 -0.01095816 0.87754157
v 0.65403644 -0.01135923 0.87671755
v 0.64813293 -0.01497790 0.87579992
v 0.65122479 -0.01251853 0.87568360
v 0.65372616 -0.01064023 0.87769215
v 0.64707072 -0.01448666 0.87392313
v 0.65457820 -0.01031527 0.87883387
v 0.64965609 -0.01174126 0.87732287
v 0.65096342 -0.00874709 0.87722667
v 0.65428599 -0.01149203 0.87855394
v 0.65297479 -0.00760241 0.87837400
v 0.64984512 -0.01293570 0.87859147
v 0.65294243 -0.00844585 0.87923887
v 0.65507096 -0.00847731 0.88000922
v 0.65530273 -0.01103548 0.87948125
v 0.65259244 -0.01357402 0.87840352
v 0.65398674 -0.01249427 0.87761898
v 0.65127069 -0.01442844 0.87735983
v 0.65217111 -0.00955413 0.87859889
v 0.65108631 -0.01018420 0.87990097
f 1 340 343
f 1 355 340
f 1 340 360
f 1 365 340
f 1 371 340
f 1 360 343
f 1 343 361
f 1 343 369
f 1 371 343
f 1 343 372
f 1 355 361
f 1 365 355
f 1 355 371
f 1 365 360
f 1 369 360
f 1 360 372
f 1 384 360
f 1 361 369
f 1 371 361
f 1 384 365
f 1 372 369
f 1 369 384
f 2 343 340
f 2 347 340
f 2 340 364
f 2 375 340
f 2 379 340
f 2 343 349
f 2 352 343
f 2 364 343
f 2 375 343
f 2 343 386
f 2 356 347
f 2 347 364
f 2 347 379
f 2 347 387
f 2 352 349
f 2 349 368
f 2 375 349
f 2 386 352
f 2 387 352
f 2 368 356
f 2 375 356
f 2 356 379
f 2 364 386
f 2 387 364
f 2 368 375
f 2 379 375
f 2 387 386
f 3 314 5
f 3 5 345
f 3 5 369
f 3 5 372
f 3 49 314
f 3 49 343
f 3 353 49
f 3 49 354
f 3 369 49
f 3 345 314
f 3 314 353
f 3 354 314
f 3 353 343
f 3 343 369
f 3 343 372
f 3 345 353
f 3 345 372
f 3 353 354
f 3 372 353
f 3 372 369
f 4 6 317
f 4 352 6
f 4 6 353
f 4 6 378
f 4 386 6
f 4 317 50
f 4 50 352
f 4 353 50
f 4 50 376
f 4 353 317
f 4 317 378
f 4 376 352
f 4 352 386
f 4 353 376
f 4 378 353
f 4 386 353
f 4 376 386
f 5 292 7
f 5 345 7
f 5 7 369
f 5 372 7
f 5 291 292
f 5 314 291
f 5 345 291
f 5 292 345
f 5 345 314
f 5 345 372
f 5 372 369
f 6 8 316
f 6 352 8
f 6 380 8
f 6 386 8
f 6 316 317
f 6 378 316
f 6 316 380
f 6 378 317
f 6 386 352
f 6 378 353
f 6 353 386
f 6 378 380
f 6 386 378
f 6 380 386
f 7 293 9
f 7 9 369
f 7 9 372
f 7 9 374
f 7 292 293
f 7 345 292
f 7 374 292
f 7 293 374
f 7 372 345
f 7 345 374
f 7 372 369
f 7 374 372
f 8 10 338
f 8 352 10
f 8 380 10
f 8 10 386
f 8 315 316
f 8 338 315
f 8 380 315
f 8 316 380
f 8 338 380
f 8 386 352
f 8 386 380
f 9 293 11
f 9 11 374
f 9 377 11
f 9 11 384
f 9 293 374
f 9 372 369
f 9 369 377
f 9 384 369
f 9 372 374
f 9 372 377
f 9 377 374
f 9 384 377
f 10 12 338
f 10 362 12
f 10 387 12
f 10 362 338
f 10 380 338
f 10 386 352
f 10 352 387
f 10 362 380
f 10 386 362
f 10 387 362
f 10 380 386
f 10 386 387
f 11 295 13
f 11 377 13
f 11 13 382
f 11 13 384
f 11 293 294
f 11 374 293
f 11 382 293
f 11 294 295
f 11 294 382
f 11 295 382
f 11 374 377
f 11 382 374
f 11 377 382
f 11 384 377
f 12 14 337
f 12 14 362
f 12 387 14
f 12 337 338
f 12 337 362
f 12 338 362
f 12 362 387
f 13 296 15
f 13 363 15
f 13 377 15
f 13 15 384
f 13 295 296
f 13 363 295
f 13 382 295
f 13 296 363
f 13 363 377
f 13 363 382
f 13 377 382
f 13 384 377
f 14 16 335
f 14 16 362
f 14 364 16
f 14 387 16
f 14 335 336
f 14 362 335
f 14 336 337
f 14 336 362
f 14 362 337
f 14 362 364
f 14 387 362
f 14 364 387
f 15 296 17
f 15 360 17
f 15 363 17
f 15 17 384
f 15 296 363
f 15 363 360
f 15 360 377
f 15 360 384
f 15 377 363
f 15 384 377
f 16 18 335
f 16 18 346
f 16 364 18
f 16 387 18
f 16 335 346
f 16 362 335
f 16 346 362
f 16 364 346
f 16 362 364
f 16 364 387
f 17 298 19
f 17 19 346
f 17 383 19
f 17 19 384
f 17 296 297
f 17 363 296
f 17 297 298
f 17 297 346
f 17 363 297
f 17 346 298
f 17 360 346
f 17 346 363
f 17 346 383
f 17 360 363
f 17 383 360
f 17 360 384
f 17 383 384
f 18 20 334
f 18 20 346
f 18 347 20
f 18 20 364
f 18 334 335
f 18 334 346
f 18 346 335
f 18 346 364
f 18 347 364
f 18 387 347
f 18 387 364
f 19 299 21
f 19 341 21
f 19 21 365
f 19 383 21
f 19 298 299
f 19 298 341
f 19 346 298
f 19 299 341
f 19 341 346
f 19 383 341
f 19 383 346
f 19 383 365
f 19 365 384
f 19 384 383
f 20 22 332
f 20 341 22
f 20 347 22
f 20 22 364
f 20 332 333
f 20 341 332
f 20 333 334
f 20 341 333
f 20 333 346
f 20 346 334
f 20 346 341
f 20 364 341
f 20 346 364
f 20 347 364
f 21 299 23
f 21 341 23
f 21 23 365
f 21 383 23
f 21 299 341
f 21 341 383
f 21 383 365
f 22 24 332
f 22 341 24
f 22 347 24
f 22 364 24
f 22 332 341
f 22 341 364
f 22 347 364
f 23 301 25
f 23 341 25
f 23 25 365
f 23 383 25
f 23 25 385
f 23 299 300
f 23 341 299
f 23 300 301
f 23 341 300
f 23 301 341
f 23 341 383
f 23 385 341
f 23 383 365
f 23 383 385
f 24 26 331
f 24 347 26
f 24 359 26
f 24 379 26
f 24 331 332
f 24 341 331
f 24 331 359
f 24 332 341
f 24 359 341
f 24 341 364
f 24 379 341
f 24 347 364
f 24 379 347
f 24 379 359
f 24 364 379
f 25 302 27
f 25 27 365
f 25 27 385
f 25 301 302
f 25 301 341
f 25 385 301
f 25 302 385
f 25 385 341
f 25 383 365
f 25 365 385
f 25 383 385
f 26 28 329
f 26 356 28
f 26 28 359
f 26 379 28
f 26 329 330
f 26 329 359
f 26 330 331
f 26 330 359
f 26 359 331
f 26 347 356
f 26 347 379
f 26 379 356
f 26 359 379
f 27 302 29
f 27 29 365
f 27 29 385
f 27 302 385
f 27 365 385
f 28 30 329
f 28 351 30
f 28 356 30
f 28 30 379
f 28 351 329
f 28 329 359
f 28 351 359
f 28 379 351
f 28 379 356
f 28 379 359
f 29 304 31
f 29 31 351
f 29 31 355
f 29 31 385
f 29 302 303
f 29 385 302
f 29 303 304
f 29 351 303
f 29 385 303
f 29 351 304
f 29 351 385
f 29 355 365
f 29 355 385
f 29 385 365
f 30 32 328
f 30 32 351
f 30 356 32
f 30 379 32
f 30 328 329
f 30 328 351
f 30 351 329
f 30 351 379
f 30 356 379
f 31 305 33
f 31 351 33
f 31 33 355
f 31 33 371
f 31 304 305
f 31 304 351
f 31 305 351
f 31 351 371
f 31 351 385
f 31 371 355
f 31 355 385
f 31 385 371
f 32 34 326
f 32 351 34
f 32 356 34
f 32 375 34
f 32 326 327
f 32 326 351
f 32 327 328
f 32 351 327
f 32 328 351
f 32 351 375
f 32 379 351
f 32 356 375
f 32 379 356
f 32 375 379
f 33 305 35
f 33 35 355
f 33 35 357
f 33 371 35
f 33 351 305
f 33 357 305
f 33 351 357
f 33 351 371
f 33 371 355
f 33 371 357
f 34 36 326
f 34 357 36
f 34 368 36
f 34 375 36
f 34 351 326
f 34 357 326
f 34 351 357
f 34 351 375
f 34 356 368
f 34 356 375
f 34 375 357
f 34 368 375
f 35 307 37
f 35 37 355
f 35 357 37
f 35 371 37
f 35 305 306
f 35 357 305
f 35 306 307
f 35 306 357
f 35 357 307
f 35 371 355
f 35 371 357
f 36 38 325
f 36 357 38
f 36 368 38
f 36 375 38
f 36 325 326
f 36 325 357
f 36 326 357
f 36 375 357
f 36 368 375
f 37 308 39
f 37 357 39
f 37 39 361
f 37 371 39
f 37 307 308
f 37 307 357
f 37 308 357
f 37 361 355
f 37 371 355
f 37 357 371
f 37 361 371
f 38 40 323
f 38 40 357
f 38 367 40
f 38 368 40
f 38 323 324
f 38 357 323
f 38 324 325
f 38 324 357
f 38 325 357
f 38 367 357
f 38 375 357
f 38 368 367
f 38 367 375
f 38 375 368
f 39 308 41
f 39 41 358
f 39 41 361
f 39 371 41
f 39 350 308
f 39 308 357
f 39 358 308
f 39 357 350
f 39 350 358
f 39 358 357
f 39 357 371
f 39 358 371
f 39 371 361
f 40 42 323
f 40 349 42
f 40 42 367
f 40 350 323
f 40 357 323
f 40 323 367
f 40 367 349
f 40 368 349
f 40 350 357
f 40 350 367
f 40 357 367
f 40 367 368
f 41 310 43
f 41 43 358
f 41 43 361
f 41 308 309
f 41 308 358
f 41 309 310
f 41 358 309
f 41 358 310
f 41 358 361
f 41 371 358
f 41 361 371
f 42 44 322
f 42 349 44
f 42 367 44
f 42 322 323
f 42 367 322
f 42 367 323
f 42 367 349
f 43 311 45
f 43 343 45
f 43 358 45
f 43 45 361
f 43 310 311
f 43 358 310
f 43 311 358
f 43 358 343
f 43 361 343
f 43 361 358
f 44 46 320
f 44 349 46
f 44 46 366
f 44 367 46
f 44 320 321
f 44 320 366
f 44 321 322
f 44 321 366
f 44 367 321
f 44 322 367
f 44 349 367
f 44 366 367
f 45 311 47
f 45 343 47
f 45 47 354
f 45 47 361
f 45 354 311
f 45 358 311
f 45 354 343
f 45 358 343
f 45 361 343
f 45 354 358
f 46 48 320
f 46 349 48
f 46 366 48
f 46 376 48
f 46 366 320
f 46 349 367
f 46 376 349
f 46 367 366
f 46 366 376
f 46 376 367
f 47 313 49
f 47 343 49
f 47 49 354
f 47 49 369
f 47 311 312
f 47 354 311
f 47 312 313
f 47 312 354
f 47 313 354
f 47 343 354
f 47 343 361
f 47 369 343
f 47 369 361
f 48 50 319
f 48 349 50
f 48 376 50
f 48 319 320
f 48 366 319
f 48 319 376
f 48 320 366
f 48 376 349
f 48 366 376
f 49 313 314
f 49 313 354
f 49 354 314
f 49 343 353
f 49 343 354
f 49 369 343
f 49 354 353
f 50 317 318
f 50 317 353
f 50 318 319
f 50 353 318
f 50 318 376
f 50 376 319
f 50 349 352
f 50 376 349
f 50 352 376
f 50 353 376
f 51 99 53
f 51 53 291
f 51 53 348
f 51 97 99
f 51 313 97
f 51 348 97
f 51 99 348
f 51 291 314
f 51 291 348
f 51 314 313
f 51 313 348
f 51 314 348
f 52 54 100
f 52 316 54
f 52 348 54
f 52 378 54
f 52 100 98
f 52 98 318
f 52 98 348
f 52 348 100
f 52 317 316
f 52 316 378
f 52 318 317
f 52 317 348
f 52 378 317
f 52 348 318
f 52 348 378
f 53 56 54
f 53 54 102
f 53 104 54
f 53 348 54
f 53 54 378
f 53 381 54
f 53 55 56
f 53 103 55
f 53 55 104
f 53 55 291
f 53 345 55
f 53 381 55
f 53 104 56
f 53 381 56
f 53 99 101
f 53 348 99
f 53 102 101
f 53 101 103
f 53 101 104
f 53 101 348
f 53 104 102
f 53 348 102
f 53 103 104
f 53 345 291
f 53 291 348
f 53 345 348
f 53 345 378
f 53 381 345
f 53 378 348
f 53 381 378
f 54 56 104
f 54 315 56
f 54 378 56
f 54 381 56
f 54 102 100
f 54 100 348
f 54 104 102
f 54 102 348
f 54 316 315
f 54 315 378
f 54 316 378
f 54 378 348
f 54 381 378
f 55 104 56
f 55 56 381
f 55 103 57
f 55 57 292
f 55 57 381
f 55 103 104
f 55 103 381
f 55 381 104
f 55 292 291
f 55 345 291
f 55 292 345
f 55 381 292
f 55 381 345
f 56 58 104
f 56 315 58
f 56 58 381
f 56 381 104
f 56 378 315
f 56 380 315
f 56 315 381
f 56 378 380
f 56 378 381
f 56 381 380
f 57 107 59
f 57 59 294
f 57 59 381
f 57 103 105
f 57 381 103
f 57 105 107
f 57 105 381
f 57 107 381
f 57 293 292
f 57 381 292
f 57 294 293
f 57 381 293
f 57 294 381
f 58 60 108
f 58 337 60
f 58 381 60
f 58 106 104
f 58 104 381
f 58 108 106
f 58 381 106
f 58 381 108
f 58 315 338
f 58 315 381
f 58 338 337
f 58 381 337
f 58 338 381
f 59 62 60
f 59 60 108
f 59 344 60
f 59 60 381
f 59 62 61
f 59 107 61
f 59 61 108
f 59 61 294
f 59 344 61
f 59 61 382
f 59 62 108
f 59 62 344
f 59 107 108
f 59 107 381
f 59 381 108
f 59 294 381
f 59 382 294
f 59 381 344
f 59 382 344
f 59 381 382
f 60 62 108
f 60 336 62
f 60 344 62
f 60 381 108
f 60 337 336
f 60 336 344
f 60 337 344
f 60 381 337
f 60 381 344
f 61 64 62
f 61 62 108
f 61 110 62
f 61 62 112
f 61 344 62
f 61 63 64
f 61 111 63
f 61 112 63
f 61 63 295
f 61 63 344
f 61 363 63
f 61 64 112
f 61 344 64
f 61 107 108
f 61 107 109
f 61 107 110
f 61 110 108
f 61 110 109
f 61 109 111
f 61 112 109
f 61 110 112
f 61 112 111
f 61 295 294
f 61 382 294
f 61 295 344
f 61 295 363
f 61 295 382
f 61 344 363
f 61 382 344
f 62 64 112
f 62 336 64
f 62 64 344
f 62 110 108
f 62 112 110
f 62 344 336
f 63 64 66
f 63 64 112
f 63 64 344
f 63 346 64
f 63 66 65
f 63 111 65
f 63 65 112
f 63 65 297
f 63 346 65
f 63 112 66
f 63 66 346
f 63 111 112
f 63 296 295
f 63 363 295
f 63 297 296
f 63 296 346
f 63 296 363
f 63 297 346
f 63 344 346
f 63 344 363
f 63 363 346
f 64 66 112
f 64 334 66
f 64 346 66
f 64 335 334
f 64 346 334
f 64 336 335
f 64 335 344
f 64 335 346
f 64 344 336
f 64 344 346
f 65 68 66
f 65 66 112
f 65 114 66
f 65 66 116
f 65 66 339
f 65 66 346
f 65 68 67
f 65 115 67
f 65 67 116
f 65 67 297
f 65 339 67
f 65 67 346
f 65 68 116
f 65 68 339
f 65 112 111
f 65 111 113
f 65 114 111
f 65 112 114
f 65 114 113
f 65 113 115
f 65 113 116
f 65 116 114
f 65 115 116
f 65 346 297
f 65 339 346
f 66 68 116
f 66 333 68
f 66 68 339
f 66 68 346
f 66 114 112
f 66 116 114
f 66 334 333
f 66 333 346
f 66 346 334
f 66 339 346
f 67 68 116
f 67 339 68
f 67 115 69
f 67 69 298
f 67 69 339
f 67 116 115
f 67 115 339
f 67 339 116
f 67 298 297
f 67 346 297
f 67 339 298
f 67 298 346
f 67 346 339
f 68 70 116
f 68 333 70
f 68 70 339
f 68 339 116
f 68 339 333
f 68 346 333
f 68 339 346
f 69 117 71
f 69 71 300
f 69 339 71
f 69 115 117
f 69 115 339
f 69 117 339
f 69 299 298
f 69 339 298
f 69 300 299
f 69 299 339
f 69 300 339
f 70 72 118
f 70 331 72
f 70 339 72
f 70 118 116
f 70 116 339
f 70 118 339
f 70 332 331
f 70 331 339
f 70 333 332
f 70 332 339
f 70 333 339
f 71 72 74
f 71 120 72
f 71 72 122
f 71 339 72
f 71 359 72
f 71 74 73
f 71 121 73
f 71 73 122
f 71 73 300
f 71 359 73
f 71 122 74
f 71 74 359
f 71 117 119
f 71 339 117
f 71 120 119
f 71 119 121
f 71 119 122
f 71 119 339
f 71 122 120
f 71 339 120
f 71 121 122
f 71 300 339
f 71 300 359
f 71 359 339
f 72 74 122
f 72 330 74
f 72 74 359
f 72 120 118
f 72 339 118
f 72 122 120
f 72 120 339
f 72 331 330
f 72 359 330
f 72 331 339
f 72 359 331
f 72 339 359
f 73 122 74
f 73 342 74
f 73 74 359
f 73 121 75
f 73 75 301
f 73 75 342
f 73 121 122
f 73 342 121
f 73 122 342
f 73 301 300
f 73 359 300
f 73 301 342
f 73 359 301
f 73 342 359
f 74 76 122
f 74 330 76
f 74 76 342
f 74 342 122
f 74 330 342
f 74 359 330
f 74 342 359
f 75 123 77
f 75 77 303
f 75 342 77
f 75 121 123
f 75 342 121
f 75 123 342
f 75 302 301
f 75 342 301
f 75 303 302
f 75 342 302
f 75 342 303
f 76 78 124
f 76 328 78
f 76 78 342
f 76 124 122
f 76 342 122
f 76 342 124
f 76 329 328
f 76 328 342
f 76 330 329
f 76 329 342
f 76 342 330
f 77 127 79
f 77 79 303
f 77 79 370
f 77 123 125
f 77 342 123
f 77 125 127
f 77 125 342
f 77 370 125
f 77 370 127
f 77 342 303
f 77 370 303
f 77 370 342
f 78 80 128
f 78 327 80
f 78 370 80
f 78 126 124
f 78 124 342
f 78 128 126
f 78 126 342
f 78 370 126
f 78 128 370
f 78 328 327
f 78 327 370
f 78 342 328
f 78 328 370
f 78 342 370
f 79 129 81
f 79 81 304
f 79 370 81
f 79 81 373
f 79 127 129
f 79 127 370
f 79 373 127
f 79 129 373
f 79 304 303
f 79 370 303
f 79 370 304
f 79 370 373
f 80 82 130
f 80 327 82
f 80 370 82
f 80 82 373
f 80 130 128
f 80 370 128
f 80 373 128
f 80 130 373
f 80 370 327
f 80 373 370
f 81 129 83
f 81 83 306
f 81 83 373
f 81 129 373
f 81 305 304
f 81 304 370
f 81 306 305
f 81 370 305
f 81 306 370
f 81 373 306
f 81 373 370
f 82 84 130
f 82 325 84
f 82 373 84
f 82 373 130
f 82 326 325
f 82 325 370
f 82 373 325
f 82 327 326
f 82 326 370
f 82 370 327
f 82 370 373
f 83 133 85
f 83 85 306
f 83 85 357
f 83 85 373
f 83 129 131
f 83 373 129
f 83 131 133
f 83 131 373
f 83 133 373
f 83 357 306
f 83 306 373
f 83 357 373
f 84 86 134
f 84 324 86
f 84 86 357
f 84 86 373
f 84 132 130
f 84 130 373
f 84 134 132
f 84 373 132
f 84 373 134
f 84 325 324
f 84 357 324
f 84 357 325
f 84 325 373
f 84 373 357
f 85 88 86
f 85 134 86
f 85 136 86
f 85 86 350
f 85 86 357
f 85 373 86
f 85 87 88
f 85 135 87
f 85 136 87
f 85 87 307
f 85 350 87
f 85 136 88
f 85 350 88
f 85 133 134
f 85 133 135
f 85 133 136
f 85 373 133
f 85 134 136
f 85 134 373
f 85 135 136
f 85 307 306
f 85 306 357
f 85 307 350
f 85 357 307
f 85 357 350
f 85 373 357
f 86 88 136
f 86 324 88
f 86 350 88
f 86 136 134
f 86 373 134
f 86 324 350
f 86 324 357
f 86 350 357
f 86 373 357
f 87 88 90
f 87 136 88
f 87 88 350
f 87 89 90
f 87 135 89
f 87 136 89
f 87 89 309
f 87 350 89
f 87 90 136
f 87 350 90
f 87 136 135
f 87 308 307
f 87 307 350
f 87 309 308
f 87 308 350
f 87 309 350
f 88 90 136
f 88 322 90
f 88 90 350
f 88 323 322
f 88 322 350
f 88 324 323
f 88 350 323
f 88 324 350
f 89 90 92
f 89 136 90
f 89 138 90
f 89 350 90
f 89 92 91
f 89 137 91
f 89 91 138
f 89 91 309
f 89 350 91
f 89 91 358
f 89 92 138
f 89 350 92
f 89 135 136
f 89 135 137
f 89 135 138
f 89 138 136
f 89 138 137
f 89 309 350
f 89 309 358
f 89 350 358
f 90 92 138
f 90 321 92
f 90 92 350
f 90 138 136
f 90 322 321
f 90 350 321
f 90 322 350
f 91 92 94
f 91 138 92
f 91 140 92
f 91 142 92
f 91 350 92
f 91 92 366
f 91 94 93
f 91 141 93
f 91 142 93
f 91 93 310
f 91 93 366
f 91 142 94
f 91 366 94
f 91 137 138
f 91 137 139
f 91 140 137
f 91 138 140
f 91 140 139
f 91 139 141
f 91 142 139
f 91 142 140
f 91 142 141
f 91 310 309
f 91 309 358
f 91 310 358
f 91 366 310
f 91 350 358
f 91 366 350
f 91 366 358
f 92 94 142
f 92 321 94
f 92 94 366
f 92 140 138
f 92 142 140
f 92 350 321
f 92 366 321
f 92 350 366
f 93 94 96
f 93 94 142
f 93 366 94
f 93 96 95
f 93 141 95
f 93 95 142
f 93 95 312
f 93 354 95
f 93 95 366
f 93 96 142
f 93 366 96
f 93 142 141
f 93 311 310
f 93 366 310
f 93 312 311
f 93 354 311
f 93 311 366
f 93 312 354
f 93 354 366
f 94 96 142
f 94 319 96
f 94 96 366
f 94 320 319
f 94 366 319
f 94 321 320
f 94 320 366
f 94 366 321
f 95 96 142
f 95 144 96
f 95 348 96
f 95 96 366
f 95 143 97
f 95 97 312
f 95 97 348
f 95 354 97
f 95 141 142
f 95 141 143
f 95 144 141
f 95 144 142
f 95 143 144
f 95 143 348
f 95 144 348
f 95 354 312
f 95 354 348
f 95 348 366
f 95 366 354
f 96 98 144
f 96 318 98
f 96 348 98
f 96 144 142
f 96 348 144
f 96 319 318
f 96 318 348
f 96 366 318
f 96 366 319
f 96 366 348
f 97 145 99
f 97 99 348
f 97 143 145
f 97 143 348
f 97 348 145
f 97 313 312
f 97 354 312
f 97 313 348
f 97 354 313
f 97 354 348
f 98 100 146
f 98 348 100
f 98 146 144
f 98 348 144
f 98 146 348
f 98 348 318
f 99 102 100
f 99 100 146
f 99 148 100
f 99 100 348
f 99 102 101
f 99 147 101
f 99 101 148
f 99 348 101
f 99 148 102
f 99 348 102
f 99 146 145
f 99 145 147
f 99 145 148
f 99 145 348
f 99 148 146
f 99 146 348
f 99 148 147
f 100 102 148
f 100 348 102
f 100 148 146
f 100 146 348
f 101 104 102
f 101 102 148
f 101 150 102
f 101 152 102
f 101 102 348
f 101 104 103
f 101 151 103
f 101 152 103
f 101 152 104
f 101 147 148
f 101 147 149
f 101 147 150
f 101 148 150
f 101 150 149
f 101 149 151
f 101 149 152
f 101 152 150
f 101 152 151
f 102 104 152
f 102 150 148
f 102 152 150
f 103 106 104
f 103 104 152
f 103 104 381
f 103 106 105
f 103 151 105
f 103 152 105
f 103 105 381
f 103 152 106
f 103 106 381
f 103 152 151
f 104 106 152
f 104 381 106
f 105 108 106
f 105 152 106
f 105 106 154
f 105 156 106
f 105 381 106
f 105 108 107
f 105 155 107
f 105 107 156
f 105 381 107
f 105 108 156
f 105 108 381
f 105 152 151
f 105 151 153
f 105 151 154
f 105 154 152
f 105 154 153
f 105 153 155
f 105 153 156
f 105 154 156
f 105 155 156
f 106 108 156
f 106 108 381
f 106 154 152
f 106 156 154
f 107 110 108
f 107 156 108
f 107 158 108
f 107 381 108
f 107 109 110
f 107 157 109
f 107 158 109
f 107 158 110
f 107 156 155
f 107 155 157
f 107 158 155
f 107 156 158
f 107 157 158
f 108 110 158
f 108 158 156
f 109 110 112
f 109 110 158
f 109 110 160
f 109 111 112
f 109 159 111
f 109 111 160
f 109 112 160
f 109 158 157
f 109 157 159
f 109 157 160
f 109 158 160
f 109 160 159
f 110 112 160
f 110 160 158
f 111 112 114
f 111 160 112
f 111 114 113
f 111 159 113
f 111 113 160
f 111 160 114
f 111 159 160
f 112 114 160
f 113 114 116
f 113 160 114
f 113 162 114
f 113 114 164
f 113 116 115
f 113 163 115
f 113 164 115
f 113 116 164
f 113 159 160
f 113 159 161
f 113 162 159
f 113 162 160
f 113 162 161
f 113 161 163
f 113 164 161
f 113 162 164
f 113 164 163
f 114 116 164
f 114 162 160
f 114 164 162
f 115 118 116
f 115 164 116
f 115 116 339
f 115 118 117
f 115 163 117
f 115 164 117
f 115 339 117
f 115 118 164
f 115 339 118
f 115 164 163
f 116 118 164
f 116 339 118
f 117 118 120
f 117 164 118
f 117 118 166
f 117 339 118
f 117 120 119
f 117 165 119
f 117 119 166
f 117 339 119
f 117 120 166
f 117 120 339
f 117 164 163
f 117 163 165
f 117 163 166
f 117 166 164
f 117 165 166
f 118 120 166
f 118 339 120
f 118 166 164
f 119 122 120
f 119 166 120
f 119 120 168
f 119 120 170
f 119 120 339
f 119 122 121
f 119 169 121
f 119 170 121
f 119 170 122
f 119 165 166
f 119 165 167
f 119 168 165
f 119 168 166
f 119 168 167
f 119 167 169
f 119 170 167
f 119 170 168
f 119 170 169
f 120 122 170
f 120 168 166
f 120 170 168
f 121 124 122
f 121 170 122
f 121 342 122
f 121 124 123
f 121 169 123
f 121 170 123
f 121 123 342
f 121 170 124
f 121 124 342
f 121 170 169
f 122 124 170
f 122 124 342
f 123 124 126
f 123 170 124
f 123 124 172
f 123 342 124
f 123 125 126
f 123 171 125
f 123 172 125
f 123 342 125
f 123 172 126
f 123 126 342
f 123 169 170
f 123 169 171
f 123 172 169
f 123 170 172
f 123 172 171
f 124 126 172
f 124 342 126
f 124 172 170
f 125 126 128
f 125 172 126
f 125 174 126
f 125 126 176
f 125 126 342
f 125 126 370
f 125 127 128
f 125 175 127
f 125 176 127
f 125 370 127
f 125 176 128
f 125 128 370
f 125 171 172
f 125 171 173
f 125 171 174
f 125 174 172
f 125 173 174
f 125 173 175
f 125 176 173
f 125 174 176
f 125 175 176
f 125 342 370
f 126 128 176
f 126 128 370
f 126 174 172
f 126 176 174
f 126 342 370
f 127 128 130
f 127 128 176
f 127 128 178
f 127 128 370
f 127 128 373
f 127 130 129
f 127 177 129
f 127 129 178
f 127 129 373
f 127 130 178
f 127 130 373
f 127 176 175
f 127 175 177
f 127 175 178
f 127 178 176
f 127 177 178
f 127 373 370
f 128 130 178
f 128 130 373
f 128 178 176
f 128 373 370
f 129 130 132
f 129 178 130
f 129 373 130
f 129 132 131
f 129 177 131
f 129 178 131
f 129 373 131
f 129 132 178
f 129 132 373
f 129 178 177
f 130 132 178
f 130 373 132
f 131 134 132
f 131 132 178
f 131 180 132
f 131 182 132
f 131 132 373
f 131 133 134
f 131 181 133
f 131 133 182
f 131 133 373
f 131 182 134
f 131 373 134
f 131 178 177
f 131 177 179
f 131 177 180
f 131 180 178
f 131 179 180
f 131 179 181
f 131 179 182
f 131 182 180
f 131 182 181
f 132 134 182
f 132 134 373
f 132 180 178
f 132 182 180
f 133 136 134
f 133 134 182
f 133 134 184
f 133 134 373
f 133 136 135
f 133 183 135
f 133 184 135
f 133 184 136
f 133 182 181
f 133 181 183
f 133 181 184
f 133 184 182
f 133 184 183
f 134 136 184
f 134 184 182
f 135 138 136
f 135 136 184
f 135 136 186
f 135 138 137
f 135 185 137
f 135 186 137
f 135 186 138
f 135 184 183
f 135 183 185
f 135 186 183
f 135 184 186
f 135 186 185
f 136 138 186
f 136 186 184
f 137 138 140
f 137 138 186
f 137 140 139
f 137 185 139
f 137 186 139
f 137 140 186
f 137 185 186
f 138 140 186
f 139 142 140
f 139 186 140
f 139 140 188
f 139 141 142
f 139 187 141
f 139 188 141
f 139 188 142
f 139 186 185
f 139 185 187
f 139 185 188
f 139 186 188
f 139 188 187
f 140 142 188
f 140 188 186
f 141 142 144
f 141 188 142
f 141 190 142
f 141 144 143
f 141 189 143
f 141 190 143
f 141 144 190
f 141 187 188
f 141 187 189
f 141 187 190
f 141 188 190
f 141 189 190
f 142 144 190
f 142 190 188
f 143 146 144
f 143 144 190
f 143 144 192
f 143 144 194
f 143 144 348
f 143 145 146
f 143 193 145
f 143 145 194
f 143 145 348
f 143 146 194
f 143 348 146
f 143 189 190
f 143 189 191
f 143 192 189
f 143 190 192
f 143 191 192
f 143 191 193
f 143 194 191
f 143 194 192
f 143 193 194
f 144 146 194
f 144 146 348
f 144 192 190
f 144 194 192
f 145 148 146
f 145 194 146
f 145 146 348
f 145 148 147
f 145 193 147
f 145 147 194
f 145 194 148
f 145 193 194
f 146 148 194
f 147 148 150
f 147 148 194
f 147 196 148
f 147 150 149
f 147 195 149
f 147 196 149
f 147 196 150
f 147 194 193
f 147 193 195
f 147 193 196
f 147 196 194
f 147 195 196
f 148 150 196
f 148 196 194
f 149 150 152
f 149 196 150
f 149 150 198
f 149 200 150
f 149 151 152
f 149 199 151
f 149 151 200
f 149 152 200
f 149 195 196
f 149 195 197
f 149 198 195
f 149 198 196
f 149 197 198
f 149 197 199
f 149 197 200
f 149 198 200
f 149 200 199
f 150 152 200
f 150 198 196
f 150 200 198
f 151 152 154
f 151 152 200
f 151 202 152
f 151 154 153
f 151 201 153
f 151 202 153
f 151 154 202
f 151 200 199
f 151 199 201
f 151 202 199
f 151 200 202
f 151 201 202
f 152 154 202
f 152 202 200
f 153 154 156
f 153 202 154
f 153 155 156
f 153 201 155
f 153 202 155
f 153 156 202
f 153 202 201
f 154 156 202
f 155 158 156
f 155 202 156
f 155 204 156
f 155 157 158
f 155 203 157
f 155 157 204
f 155 158 204
f 155 202 201
f 155 201 203
f 155 201 204
f 155 204 202
f 155 204 203
f 156 158 204
f 156 204 202
f 157 158 160
f 157 204 158
f 157 158 206
f 157 208 158
f 157 159 160
f 157 207 159
f 157 159 208
f 157 208 160
f 157 204 203
f 157 203 205
f 157 206 203
f 157 204 206
f 157 206 205
f 157 205 207
f 157 205 208
f 157 208 206
f 157 208 207
f 158 160 208
f 158 206 204
f 158 208 206
f 159 162 160
f 159 208 160
f 159 210 160
f 159 162 161
f 159 209 161
f 159 161 210
f 159 210 162
f 159 207 208
f 159 207 209
f 159 207 210
f 159 208 210
f 159 209 210
f 160 162 210
f 160 210 208
f 161 162 164
f 161 162 210
f 161 162 212
f 161 164 163
f 161 211 163
f 161 212 163
f 161 212 164
f 161 209 210
f 161 209 211
f 161 209 212
f 161 212 210
f 161 211 212
f 162 164 212
f 162 212 210
f 163 166 164
f 163 212 164
f 163 214 164
f 163 165 166
f 163 213 165
f 163 165 214
f 163 214 166
f 163 212 211
f 163 211 213
f 163 214 211
f 163 212 214
f 163 213 214
f 164 166 214
f 164 214 212
f 165 166 168
f 165 214 166
f 165 167 168
f 165 213 167
f 165 214 167
f 165 168 214
f 165 214 213
f 166 168 214
f 167 168 170
f 167 214 168
f 167 216 168
f 167 218 168
f 167 169 170
f 167 217 169
f 167 218 169
f 167 218 170
f 167 213 214
f 167 213 215
f 167 213 216
f 167 216 214
f 167 215 216
f 167 215 217
f 167 215 218
f 167 218 216
f 167 217 218
f 168 170 218
f 168 216 214
f 168 218 216
f 169 170 172
f 169 170 218
f 169 171 172
f 169 217 171
f 169 171 218
f 169 218 172
f 169 218 217
f 170 172 218
f 171 174 172
f 171 218 172
f 171 172 220
f 171 173 174
f 171 219 173
f 171 220 173
f 171 220 174
f 171 218 217
f 171 217 219
f 171 220 217
f 171 220 218
f 171 220 219
f 172 174 220
f 172 220 218
f 173 176 174
f 173 174 220
f 173 174 222
f 173 174 224
f 173 176 175
f 173 223 175
f 173 224 175
f 173 224 176
f 173 219 220
f 173 219 221
f 173 219 222
f 173 220 222
f 173 222 221
f 173 221 223
f 173 224 221
f 173 222 224
f 173 224 223
f 174 176 224
f 174 222 220
f 174 224 222
f 175 176 178
f 175 224 176
f 175 176 226
f 175 178 177
f 175 225 177
f 175 177 226
f 175 226 178
f 175 223 224
f 175 223 225
f 175 226 223
f 175 226 224
f 175 225 226
f 176 178 226
f 176 226 224
f 177 178 180
f 177 226 178
f 177 180 179
f 177 225 179
f 177 179 226
f 177 180 226
f 177 225 226
f 178 180 226
f 179 180 182
f 179 226 180
f 179 228 180
f 179 180 230
f 179 181 182
f 179 229 181
f 179 230 181
f 179 182 230
f 179 226 225
f 179 225 227
f 179 228 225
f 179 228 226
f 179 228 227
f 179 227 229
f 179 230 227
f 179 228 230
f 179 229 230
f 180 182 230
f 180 228 226
f 180 230 228
f 181 182 184
f 181 182 230
f 181 184 183
f 181 229 183
f 181 230 183
f 181 184 230
f 181 229 230
f 182 184 230
f 183 184 186
f 183 230 184
f 183 184 232
f 183 186 185
f 183 231 185
f 183 232 185
f 183 232 186
f 183 229 230
f 183 229 231
f 183 232 229
f 183 232 230
f 183 232 231
f 184 186 232
f 184 232 230
f 185 186 188
f 185 232 186
f 185 186 234
f 185 187 188
f 185 233 187
f 185 187 234
f 185 234 188
f 185 231 232
f 185 231 233
f 185 231 234
f 185 232 234
f 185 233 234
f 186 188 234
f 186 234 232
f 187 188 190
f 187 188 234
f 187 188 236
f 187 238 188
f 187 189 190
f 187 237 189
f 187 189 238
f 187 238 190
f 187 234 233
f 187 233 235
f 187 233 236
f 187 236 234
f 187 236 235
f 187 235 237
f 187 235 238
f 187 236 238
f 187 238 237
f 188 190 238
f 188 236 234
f 188 238 236
f 189 190 192
f 189 238 190
f 189 190 240
f 189 192 191
f 189 239 191
f 189 191 240
f 189 192 240
f 189 238 237
f 189 237 239
f 189 237 240
f 189 238 240
f 189 240 239
f 190 192 240
f 190 240 238
f 191 192 194
f 191 240 192
f 191 194 193
f 191 239 193
f 191 193 240
f 191 194 240
f 191 240 239
f 192 194 240
f 193 196 194
f 193 240 194
f 193 242 194
f 193 195 196
f 193 241 195
f 193 195 242
f 193 196 242
f 193 240 239
f 193 239 241
f 193 242 239
f 193 240 242
f 193 242 241
f 194 196 242
f 194 242 240
f 195 196 198
f 195 242 196
f 195 196 244
f 195 198 197
f 195 243 197
f 195 244 197
f 195 244 198
f 195 242 241
f 195 241 243
f 195 241 244
f 195 242 244
f 195 243 244
f 196 198 244
f 196 244 242
f 197 200 198
f 197 244 198
f 197 246 198
f 197 198 248
f 197 200 199
f 197 247 199
f 197 199 248
f 197 248 200
f 197 244 243
f 197 243 245
f 197 243 246
f 197 246 244
f 197 245 246
f 197 245 247
f 197 248 245
f 197 246 248
f 197 248 247
f 198 200 248
f 198 246 244
f 198 248 246
f 199 200 202
f 199 200 248
f 199 201 202
f 199 247 201
f 199 248 201
f 199 248 202
f 199 247 248
f 200 202 248
f 201 202 204
f 201 248 202
f 201 250 202
f 201 202 252
f 201 204 203
f 201 251 203
f 201 252 203
f 201 204 252
f 201 248 247
f 201 247 249
f 201 247 250
f 201 250 248
f 201 250 249
f 201 249 251
f 201 252 249
f 201 252 250
f 201 252 251
f 202 204 252
f 202 250 248
f 202 252 250
f 203 206 204
f 203 252 204
f 203 205 206
f 203 251 205
f 203 252 205
f 203 252 206
f 203 251 252
f 204 206 252
f 205 208 206
f 205 252 206
f 205 206 254
f 205 206 256
f 205 208 207
f 205 255 207
f 205 256 207
f 205 208 256
f 205 251 252
f 205 251 253
f 205 251 254
f 205 252 254
f 205 254 253
f 205 253 255
f 205 253 256
f 205 256 254
f 205 256 255
f 206 208 256
f 206 254 252
f 206 256 254
f 207 208 210
f 207 256 208
f 207 209 210
f 207 255 209
f 207 256 209
f 207 210 256
f 207 256 255
f 208 210 256
f 209 212 210
f 209 256 210
f 209 210 258
f 209 260 210
f 209 212 211
f 209 259 211
f 209 211 260
f 209 260 212
f 209 255 256
f 209 255 257
f 209 258 255
f 209 256 258
f 209 258 257
f 209 257 259
f 209 257 260
f 209 258 260
f 209 260 259
f 210 212 260
f 210 258 256
f 210 260 258
f 211 214 212
f 211 212 260
f 211 214 213
f 211 259 213
f 211 260 213
f 211 260 214
f 211 260 259
f 212 214 260
f 213 216 214
f 213 214 260
f 213 214 262
f 213 264 214
f 213 215 216
f 213 263 215
f 213 215 264
f 213 216 264
f 213 259 260
f 213 259 261
f 213 259 262
f 213 260 262
f 213 262 261
f 213 261 263
f 213 261 264
f 213 262 264
f 213 263 264
f 214 216 264
f 214 262 260
f 214 264 262
f 215 218 216
f 215 264 216
f 215 266 216
f 215 217 218
f 215 265 217
f 215 266 217
f 215 218 266
f 215 263 264
f 215 263 265
f 215 266 263
f 215 266 264
f 215 265 266
f 216 218 266
f 216 266 264
f 217 220 218
f 217 218 266
f 217 219 220
f 217 265 219
f 217 266 219
f 217 266 220
f 217 266 265
f 218 220 266
f 219 220 222
f 219 220 266
f 219 220 268
f 219 222 221
f 219 267 221
f 219 221 268
f 219 268 222
f 219 265 266
f 219 265 267
f 219 268 265
f 219 268 266
f 219 267 268
f 220 222 268
f 220 268 266
f 221 224 222
f 221 222 268
f 221 270 222
f 221 272 222
f 221 224 223
f 221 271 223
f 221 223 272
f 221 272 224
f 221 267 268
f 221 267 269
f 221 267 270
f 221 268 270
f 221 269 270
f 221 269 271
f 221 272 269
f 221 270 272
f 221 271 272
f 222 224 272
f 222 270 268
f 222 272 270
f 223 224 226
f 223 224 272
f 223 225 226
f 223 271 225
f 223 225 272
f 223 226 272
f 223 272 271
f 224 226 272
f 225 226 228
f 225 272 226
f 225 226 274
f 225 227 228
f 225 273 227
f 225 227 274
f 225 274 228
f 225 271 272
f 225 271 273
f 225 271 274
f 225 274 272
f 225 274 273
f 226 228 274
f 226 274 272
f 227 228 230
f 227 228 274
f 227 276 228
f 227 228 278
f 227 229 230
f 227 277 229
f 227 229 278
f 227 230 278
f 227 274 273
f 227 273 275
f 227 273 276
f 227 274 276
f 227 275 276
f 227 275 277
f 227 275 278
f 227 276 278
f 227 277 278
f 228 230 278
f 228 276 274
f 228 278 276
f 229 230 232
f 229 230 278
f 229 280 230
f 229 231 232
f 229 279 231
f 229 280 231
f 229 280 232
f 229 278 277
f 229 277 279
f 229 277 280
f 229 278 280
f 229 280 279
f 230 232 280
f 230 280 278
f 231 232 234
f 231 280 232
f 231 232 282
f 231 233 234
f 231 281 233
f 231 233 282
f 231 282 234
f 231 279 280
f 231 279 281
f 231 282 279
f 231 280 282
f 231 281 282
f 232 234 282
f 232 282 280
f 233 234 236
f 233 282 234
f 233 236 235
f 233 281 235
f 233 235 282
f 233 282 236
f 233 281 282
f 234 236 282
f 235 236 238
f 235 282 236
f 235 284 236
f 235 236 286
f 235 238 237
f 235 285 237
f 235 237 286
f 235 286 238
f 235 282 281
f 235 281 283
f 235 281 284
f 235 282 284
f 235 284 283
f 235 283 285
f 235 286 283
f 235 284 286
f 235 286 285
f 236 238 286
f 236 284 282
f 236 286 284
f 237 238 240
f 237 238 286
f 237 240 239
f 237 285 239
f 237 286 239
f 237 240 286
f 237 286 285
f 238 240 286
f 239 242 240
f 239 240 286
f 239 240 288
f 239 241 242
f 239 287 241
f 239 241 288
f 239 288 242
f 239 285 286
f 239 285 287
f 239 285 288
f 239 288 286
f 239 288 287
f 240 242 288
f 240 288 286
f 241 242 244
f 241 242 288
f 241 290 242
f 241 243 244
f 241 289 243
f 241 290 243
f 241 290 244
f 241 287 288
f 241 287 289
f 241 290 287
f 241 290 288
f 241 289 290
f 242 244 290
f 242 290 288
f 243 244 246
f 243 290 244
f 243 246 245
f 243 289 290
f 245 246 248
f 245 248 247
f 247 248 250
f 247 250 249
f 249 250 252
f 249 252 251
f 251 252 254
f 251 254 253
f 253 254 256
f 253 256 255
f 255 256 258
f 255 258 257
f 257 258 260
f 257 260 259
f 259 260 262
f 259 262 261
f 261 262 264
f 261 264 263
f 263 264 266
f 263 266 265
f 265 266 268
f 265 268 267
f 267 268 270
f 267 270 269
f 269 270 272
f 269 272 271
f 271 272 274
f 271 274 273
f 273 274 276
f 273 276 275
f 275 276 278
f 275 278 277
f 277 278 280
f 277 280 279
f 279 280 282
f 279 282 281
f 281 282 284
f 281 284 283
f 283 284 286
f 283 286 285
f 285 286 288
f 285 288 287
f 287 288 290
f 287 290 289
f 291 292 345
f 291 345 314
f 291 348 314
f 291 345 348
f 292 293 374
f 292 381 293
f 292 345 374
f 292 381 345
f 292 381 374
f 293 381 294
f 293 382 294
f 293 374 381
f 293 374 382
f 293 382 381
f 294 295 382
f 294 382 381
f 295 363 296
f 295 344 363
f 295 344 382
f 295 382 363
f 296 297 346
f 296 363 297
f 296 346 363
f 297 298 346
f 297 363 346
f 298 299 339
f 298 341 299
f 298 341 339
f 298 346 339
f 298 341 346
f 299 339 300
f 299 300 341
f 299 339 341
f 300 301 341
f 300 301 359
f 300 341 339
f 300 339 359
f 300 359 341
f 301 342 302
f 301 302 359
f 301 385 302
f 301 359 341
f 301 385 341
f 301 342 359
f 301 359 385
f 302 303 342
f 302 303 351
f 302 385 303
f 302 342 351
f 302 342 359
f 302 385 342
f 302 351 385
f 302 385 359
f 303 351 304
f 303 370 304
f 303 351 342
f 303 370 342
f 303 370 351
f 303 385 351
f 304 305 351
f 304 370 305
f 304 351 370
f 305 306 357
f 305 370 306
f 305 351 357
f 305 370 351
f 305 370 357
f 306 357 307
f 306 357 370
f 306 373 357
f 306 370 373
f 307 350 308
f 307 357 308
f 307 350 357
f 308 350 309
f 308 309 358
f 308 350 357
f 308 350 358
f 309 358 310
f 309 350 358
f 310 311 358
f 310 311 366
f 310 366 358
f 311 312 354
f 311 354 358
f 311 366 354
f 311 358 366
f 312 354 313
f 313 314 348
f 313 354 314
f 313 348 354
f 314 348 345
f 314 353 345
f 314 353 348
f 314 348 354
f 314 353 354
f 315 378 316
f 315 380 316
f 315 338 380
f 315 381 338
f 315 378 380
f 315 381 380
f 316 378 317
f 316 378 380
f 317 318 348
f 317 353 318
f 317 348 353
f 317 378 348
f 317 353 378
f 318 319 366
f 318 376 319
f 318 348 353
f 318 366 348
f 318 353 366
f 318 353 376
f 318 366 376
f 319 320 366
f 319 366 376
f 320 366 321
f 321 322 350
f 321 322 367
f 321 366 350
f 321 367 350
f 321 366 367
f 322 350 323
f 322 367 323
f 322 350 367
f 323 350 324
f 323 324 357
f 323 350 357
f 323 350 367
f 324 325 357
f 324 350 357
f 325 326 357
f 325 370 326
f 325 357 370
f 325 373 357
f 325 370 373
f 326 351 327
f 326 327 370
f 326 351 357
f 326 351 370
f 326 370 357
f 327 351 328
f 327 370 328
f 327 370 351
f 328 342 329
f 328 351 329
f 328 329 359
f 328 342 351
f 328 359 342
f 328 370 342
f 328 359 351
f 328 370 351
f 329 330 342
f 329 330 359
f 329 342 359
f 329 351 359
f 330 331 359
f 330 342 359
f 331 332 339
f 331 332 341
f 331 341 339
f 331 339 359
f 331 359 341
f 332 333 339
f 332 333 341
f 332 341 339
f 333 334 346
f 333 339 341
f 333 346 339
f 333 346 341
f 334 335 346
f 335 344 336
f 335 336 362
f 335 344 346
f 335 344 362
f 335 346 362
f 336 344 337
f 336 337 362
f 336 344 362
f 337 338 344
f 337 362 338
f 337 338 381
f 337 344 362
f 337 381 344
f 338 344 362
f 338 344 381
f 338 380 362
f 338 362 381
f 338 381 380
f 339 346 341
f 339 341 359
f 340 341 359
f 340 341 364
f 340 379 341
f 340 383 341
f 340 385 341
f 340 360 343
f 340 343 364
f 340 343 371
f 340 375 343
f 340 347 364
f 340 347 379
f 340 371 351
f 340 375 351
f 340 379 351
f 340 351 385
f 340 365 355
f 340 371 355
f 340 355 385
f 340 379 359
f 340 359 385
f 340 360 364
f 340 365 360
f 340 383 360
f 340 364 379
f 340 364 383
f 340 365 383
f 340 365 385
f 340 371 375
f 340 385 371
f 340 379 375
f 340 379 385
f 340 385 383
f 341 360 346
f 341 364 346
f 341 383 346
f 341 359 379
f 341 359 385
f 341 364 360
f 341 383 360
f 341 379 364
f 341 383 364
f 341 385 383
f 342 351 359
f 342 370 351
f 342 385 351
f 342 385 359
f 343 352 349
f 343 349 367
f 343 349 375
f 343 349 376
f 343 352 376
f 343 352 386
f 343 354 353
f 343 353 366
f 343 372 353
f 343 353 376
f 343 386 353
f 343 358 354
f 343 366 354
f 343 361 358
f 343 358 366
f 343 358 367
f 343 358 371
f 343 360 364
f 343 372 360
f 343 386 360
f 343 369 361
f 343 361 371
f 343 364 386
f 343 366 367
f 343 366 376
f 343 371 367
f 343 367 375
f 343 367 376
f 343 372 369
f 343 375 371
f 343 372 386
f 343 386 376
f 344 346 362
f 344 346 363
f 344 363 362
f 344 362 374
f 344 362 381
f 344 363 374
f 344 363 382
f 344 381 374
f 344 374 382
f 344 382 381
f 345 353 348
f 345 348 378
f 345 353 372
f 345 353 378
f 345 380 353
f 345 353 386
f 345 374 372
f 345 372 386
f 345 380 374
f 345 374 381
f 345 386 374
f 345 380 378
f 345 381 378
f 345 381 380
f 345 380 386
f 346 362 360
f 346 363 360
f 346 360 364
f 346 360 383
f 346 362 363
f 346 364 362
f 347 379 356
f 347 364 379
f 347 364 387
f 348 354 353
f 348 366 353
f 348 378 353
f 348 354 366
f 349 376 352
f 349 368 367
f 349 375 367
f 349 367 376
f 349 375 368
f 350 358 357
f 350 357 367
f 350 371 357
f 350 358 366
f 350 367 358
f 350 358 371
f 350 366 367
f 350 371 367
f 351 357 370
f 351 371 357
f 351 357 375
f 351 359 379
f 351 359 385
f 351 375 371
f 351 385 371
f 351 379 375
f 351 385 379
f 352 386 376
f 352 387 386
f 353 354 366
f 353 376 366
f 353 386 372
f 353 386 376
f 353 378 380
f 353 378 386
f 353 386 380
f 354 366 358
f 355 361 371
f 355 365 385
f 355 371 385
f 356 375 368
f 356 379 375
f 357 358 371
f 357 367 371
f 357 375 367
f 357 370 373
f 357 375 371
f 358 361 371
f 358 366 367
f 358 371 367
f 359 379 385
f 360 363 362
f 360 364 362
f 360 372 362
f 360 362 377
f 360 362 386
f 360 377 363
f 360 364 383
f 360 386 364
f 360 383 365
f 360 365 384
f 360 369 372
f 360 384 369
f 360 372 377
f 360 372 384
f 360 386 372
f 360 377 384
f 360 383 384
f 362 374 363
f 362 363 377
f 362 364 386
f 362 364 387
f 362 374 372
f 362 377 372
f 362 372 386
f 362 377 374
f 362 380 374
f 362 374 381
f 362 386 374
f 362 381 380
f 362 380 386
f 362 387 386
f 363 377 374
f 363 374 382
f 363 382 377
f 364 387 386
f 365 384 383
f 365 383 385
f 366 376 367
f 367 368 375
f 367 371 375
f 369 372 377
f 369 372 384
f 369 377 384
f 372 374 377
f 372 386 374
f 372 384 377
f 374 382 377
f 374 380 381
f 374 386 380
f 374 382 381
f 378 381 380
f 378 380 386
