# https://github.com/mikedh/trimesh
v -1.00000000 0.10000000 1.41400000
v 1.00000000 0.10000000 1.41400000
v -1.00000000 0.10000000 -1.41400000
v 1.00000000 0.10000000 -1.41400000
v 0.00000000 0.10000000 1.41400000
v 0.00000000 0.10000000 -1.41400000
v 1.00000000 0.10000000 0.41400000
v -1.00000000 0.10000000 0.41400000
v 1.00000000 0.10000000 1.16585000
v -1.00000000 0.10000000 1.16585000
v 1.00000000 0.10000000 -0.83415000
v -1.00000000 0.10000000 -0.83415000
v -1.00000000 0.10000000 0.16585000
v 1.00000000 0.10000000 0.16585000
v 0.00000000 0.10000000 0.16585000
v 0.64298068 0.10000000 0.82692906
v -0.24815000 0.10000000 0.41400000
v 0.00000000 0.10000000 0.41400000
v 0.24815000 0.10000000 0.41400000
v -0.24815000 0.10000000 1.41400000
v -0.24815000 0.10000000 -1.41400000
v -0.24815000 0.10000000 -0.08230000
v -0.24815000 0.10000000 1.16585000
v 0.24815000 0.10000000 1.41400000
v 0.24815000 0.10000000 -1.41400000
v 0.24815000 0.10000000 0.16585000
v 0.24815000 0.10000000 1.16585000
v 0.00000000 0.10000000 -0.08230000
v -1.00000000 0.10000000 -0.08230000
v 1.00000000 0.10000000 -0.08230000
v 0.00000000 0.10000000 -0.33230000
v -0.05525168 0.10000000 -0.36042154
v 0.00000000 0.10000000 -0.45730000
v 0.00000000 0.10000000 -0.14480000
v 0.00000000 0.10000000 -0.26980000
v -0.04469174 0.10000000 -0.17165703
v 0.22356233 0.10000000 -0.28274518
v 0.22067213 0.10000000 -0.39909941
v 0.60170339 0.10000000 -0.43585339
v 0.12115133 0.10000000 -0.44367261
v 0.10734120 0.10000000 -0.38983778
v 0.09502234 0.10000000 -0.34726110
v 0.16293000 0.10000000 -0.20652217
v 0.32456238 0.10000000 -0.29077286
v 0.33653835 0.10000000 -0.17068835
v 0.38073252 0.10000000 -0.21488252
v 0.35651549 0.10000000 -0.25067847
v 0.29234417 0.10000000 -0.12649417
v 0.26109417 0.10000000 -0.11355000
v 0.31432358 0.10000000 -0.05135631
v 0.36013146 0.10000000 -0.35581818
v 0.44702378 0.10000000 -0.28117378
v 0.46496660 0.10000000 -0.21787506
v 0.42862299 0.10000000 -0.14437044
v 0.49121796 0.10000000 -0.32536796
v 0.56617848 0.10000000 -0.29419492
v -0.09282500 0.10000000 -0.08230000
v 0.00000000 0.10000000 0.04085000
v 0.00000000 0.10000000 -0.05105000
v -0.03224579 0.10000000 0.09814286
v -0.18565000 0.10000000 0.16585000
v -0.46711611 0.10000000 0.30155603
v -0.50000000 0.10000000 0.16585000
v -0.31065000 0.10000000 0.16585000
v -0.43657500 0.10000000 0.16585000
v -0.40929379 0.10000000 0.21362054
v -0.40764965 0.10000000 0.12950621
v -0.75000000 0.10000000 0.16585000
v -0.71684257 0.10000000 -0.00502308
v -0.37315000 0.10000000 -0.08230000
v -0.36541413 0.10000000 0.26423226
v -0.18565000 0.10000000 -0.08230000
v -0.25699047 0.10000000 0.05038789
v -0.62500000 0.10000000 0.16585000
v -0.37315000 0.10000000 0.41400000
v -0.45316909 0.10000000 0.06168328
v -0.38679277 0.10000000 0.02003454
v -0.31888472 0.10000000 0.05931573
v 0.09328750 0.10000000 -0.08230000
v 0.18611250 0.10000000 -0.08230000
v 0.14094656 0.10000000 -0.13580111
v 0.08167301 0.10000000 -0.02911146
v 0.02682815 0.10000000 0.03180246
v -0.21690000 0.10000000 -0.06935583
v -0.08250068 0.10000000 -0.02597848
v -0.43565000 0.10000000 -0.08230000
v 0.21017573 0.10000000 -0.12163670
v 0.24153808 0.10000000 -0.16731208
v 0.12407500 0.10000000 0.04177500
v 0.06629126 0.10000000 0.09955874
v 0.01294417 0.10000000 0.13460000
v -0.56250000 0.10000000 0.16585000
v -0.43657500 0.10000000 0.41400000
v -0.31589127 0.10000000 -0.04635820
v -0.31065000 0.10000000 -0.08230000
v -0.56065000 0.10000000 -0.08230000
v -0.62835540 0.10000000 0.00388300
v -0.51690553 0.10000000 0.02853306
v 0.20395583 0.10000000 -0.03810583
v 0.16365281 0.10000000 -0.04688068
v 0.13146843 0.10000000 0.01348177
v -0.57931773 0.10000000 -0.03215224
v 0.18125374 0.10000000 0.05912698
v -0.53063554 0.10000000 0.12244758
v -0.68750000 0.10000000 0.16585000
v -0.61097616 0.10000000 0.24981190
v -0.53306911 0.10000000 0.22492856
v -0.76788789 0.10000000 0.12455575
v -0.45960422 0.10000000 0.37068865
v 0.24815000 0.10000000 0.04270000
v -0.74494855 0.10000000 0.26896955
v -0.43852011 0.10000000 -0.03146970
v 0.06250000 0.10000000 0.16585000
v -0.58638402 0.10000000 0.32786402
v -0.61330710 0.10000000 0.36723513
v -0.59375000 0.10000000 0.41400000
v -0.53509860 0.10000000 0.49979599
v -0.68750000 0.10000000 0.41400000
v -0.81250000 0.10000000 0.16585000
v -0.82423640 0.10000000 0.25989742
v -0.90625000 0.10000000 0.41400000
v -0.80088985 0.10000000 0.35950850
v 0.08838835 0.10000000 0.25423835
v 0.05201227 0.10000000 0.14430581
v -0.53125000 0.10000000 0.41400000
v -0.65082919 0.10000000 0.48781378
v -0.80177334 0.10000000 0.33092811
v 0.24815000 0.10000000 0.10427500
v -0.78125000 0.10000000 0.41400000
v 0.20447185 0.10000000 0.18502770
v -0.64643267 0.10000000 0.57857498
v -0.48415422 0.10000000 0.55865552
v -0.49474969 0.10000000 0.62432065
v -1.00000000 0.10000000 0.28992500
v -0.93636391 0.10000000 0.37486875
v 0.24815000 0.10000000 0.19710000
v 0.24815000 0.10000000 -0.01980000
v -0.72820418 0.10000000 0.52077629
v -0.55780347 0.10000000 0.51861083
v -0.60541030 0.10000000 0.64793242
v -0.54073041 0.10000000 0.73952353
v -0.73494664 0.10000000 0.05538960
v -0.68520933 0.10000000 0.08346715
v -0.87500000 0.10000000 -0.08230000
v -0.81707663 0.10000000 0.08242803
v -0.93750000 0.10000000 0.16585000
v -0.88274268 0.10000000 0.31570966
v -1.00000000 0.10000000 0.35196250
v 0.12572384 0.10000000 0.17221969
v -0.59483721 0.10000000 0.71362114
v -0.41673564 0.10000000 0.47667795
v -0.68333953 0.10000000 0.24782066
v -0.61924553 0.10000000 0.07242680
v -1.00000000 0.10000000 0.38298125
v -0.96875000 0.10000000 0.41400000
v -0.81551934 0.10000000 0.54482180
v -0.95171771 0.10000000 0.49844526
v 0.15976165 0.10000000 0.32561165
v 0.30800345 0.10000000 0.05695980
v 0.36838391 0.10000000 0.02445315
v -0.82223485 0.10000000 0.47190671
v -0.40840873 0.10000000 0.61493391
v -1.00000000 0.10000000 0.91400000
v -1.00000000 0.10000000 0.66400000
v -1.00000000 0.10000000 0.53900000
v 0.53337335 0.10000000 -0.13524215
v -1.00000000 0.10000000 0.47650000
v -1.00000000 0.10000000 0.60150000
v -0.75636376 0.10000000 0.48102429
v -0.84375000 0.10000000 0.41400000
v 0.28523721 0.10000000 0.24596002
v 0.20395583 0.10000000 0.36980583
v 0.12500000 0.10000000 0.41400000
v 0.31065000 0.10000000 0.16585000
v 0.53871786 0.10000000 -0.02044801
v 0.63711685 0.10000000 -0.13735975
v 0.61748655 0.10000000 -0.04424846
v -0.98543100 0.10000000 0.50775000
v -0.98705583 0.10000000 0.44525000
v -0.86044102 0.10000000 0.58913892
v 0.09652028 0.10000000 0.30945603
v 0.42252634 0.10000000 -0.00913713
v 0.55998218 0.10000000 0.09384354
v 0.50057292 0.10000000 0.05159524
v -1.00000000 0.10000000 0.57025000
v -0.92099098 0.10000000 0.62104699
v -1.00000000 0.10000000 0.78900000
v -1.00000000 0.10000000 0.72650000
v -1.00000000 0.10000000 0.69525000
v 0.06250000 0.10000000 0.41400000
v 0.00000000 0.10000000 0.38275000
v -0.12315000 0.10000000 0.41400000
v 0.00000000 0.10000000 0.32117500
v -0.08838835 0.10000000 0.25423835
v 0.93750000 0.10000000 0.16585000
v 0.76517193 0.10000000 0.04182255
v 0.78095359 0.10000000 0.07706298
v 0.79399524 0.10000000 0.13215348
v 0.77986250 0.10000000 0.16585000
v 0.76376391 0.10000000 0.25898937
v 0.65549009 0.10000000 0.22547675
v 0.68565000 0.10000000 0.16585000
v 0.81157500 0.10000000 0.41400000
v 0.05692821 0.10000000 0.24150432
v -0.16826917 0.10000000 0.33411917
v 0.67402465 0.10000000 0.02825230
v 1.00000000 0.10000000 0.04177500
v -0.86998283 0.10000000 0.70723276
v -0.79558462 0.10000000 0.71819300
v -0.76250523 0.10000000 0.62646351
v 0.00000000 0.10000000 0.25960000
v -0.08108448 0.10000000 0.36401586
v 0.43565000 0.10000000 0.16585000
v 0.78236344 0.10000000 -0.03070789
v 0.71690000 0.10000000 0.17846971
v 0.95684036 0.10000000 0.28846188
v -0.18565000 0.10000000 0.41400000
v 1.00000000 0.10000000 0.28992500
v -1.00000000 0.10000000 0.85150000
v -0.92183633 0.10000000 0.74262813
v -0.22290283 0.10000000 0.48856265
v -0.10360411 0.10000000 0.58586763
v -0.02704374 0.10000000 0.63686580
v 0.06315315 0.10000000 0.48736958
v -0.05483192 0.10000000 0.47166762
v 0.59190000 0.10000000 0.16585000
v 0.65768799 0.10000000 0.11482374
v 0.38358312 0.10000000 0.12197465
v 0.52940000 0.10000000 0.16585000
v 1.00000000 0.10000000 -0.02026250
v 1.00000000 0.10000000 0.10381250
v 1.00000000 0.10000000 -0.45822500
v 0.88835941 0.10000000 0.11096223
v 0.93045197 0.10000000 0.05240983
v 0.62315000 0.10000000 0.41400000
v 0.66510876 0.10000000 0.29694774
v 0.80980949 0.10000000 0.31102246
v 0.05497743 0.10000000 0.59950445
v -0.12980504 0.10000000 0.47711030
v 0.91688408 0.10000000 -0.06507612
v 0.90450639 0.10000000 0.05677852
v 1.00000000 0.10000000 -0.17628125
v 0.94924001 0.10000000 -0.21634626
v 0.83895817 0.10000000 -0.15369077
v 1.00000000 0.10000000 -0.27026250
v 0.87520146 0.10000000 0.33350006
v 0.34190000 0.10000000 0.41400000
v 0.40440000 0.10000000 0.41400000
v 0.07497725 0.10000000 0.68542660
v 0.24007939 0.10000000 0.59159051
v 0.01448912 0.10000000 0.78579612
v 0.05086053 0.10000000 0.73037298
v -0.15020975 0.10000000 0.56228108
v 1.00000000 0.10000000 -0.12929062
v 0.88095696 0.10000000 -0.32111458
v 0.80292121 0.10000000 -0.16393618
v 0.74096568 0.10000000 -0.23352957
v 0.43112753 0.10000000 0.30267143
v 0.93750000 0.10000000 0.41400000
v 0.93045880 0.10000000 0.32986089
v 0.43603781 0.10000000 0.04500684
v -1.00000000 0.10000000 1.03992500
v -0.79021604 0.10000000 0.93184226
v 0.14143963 0.10000000 0.65727359
v 0.05132792 0.10000000 0.77960762
v 1.00000000 0.10000000 -0.05128125
v 1.00000000 0.10000000 -0.22327187
v 0.52469731 0.10000000 0.24071731
v 0.62657598 0.10000000 0.25023338
v 0.13424373 0.10000000 0.54900535
v 0.24478133 0.10000000 0.72177986
v 0.20648882 0.10000000 0.52726904
v 0.56065000 0.10000000 0.41400000
v -1.00000000 0.10000000 0.94548125
v -0.91701485 0.10000000 0.92264259
v -0.76238808 0.10000000 0.85688271
v -0.48666615 0.10000000 0.98372636
v -0.78191817 0.10000000 0.79381967
v -0.70419351 0.10000000 0.79525178
v 0.11803333 0.10000000 0.80396900
v 0.07752007 0.10000000 0.87291765
v 0.47784357 0.10000000 0.71208239
v 0.53133875 0.10000000 0.62921446
v 0.05308032 0.10000000 0.34824335
v -0.44162519 0.10000000 0.74263028
v 0.77903190 0.10000000 -0.23075180
v 0.75614045 0.10000000 -0.32512311
v -0.63471342 0.10000000 0.75054979
v 0.31955914 0.10000000 0.65474035
v 0.17338915 0.10000000 0.75461603
v 0.25906602 0.10000000 0.84602073
v 0.31379234 0.10000000 0.87618105
v 0.33632472 0.10000000 0.82326098
v -0.05669087 0.10000000 0.77337500
v -0.74815000 0.10000000 1.41400000
v 0.35830231 0.10000000 0.63394766
v -0.11938056 0.10000000 0.70256281
v -0.51239653 0.10000000 0.87022756
v -0.52519310 0.10000000 1.32256122
v 0.65357354 0.10000000 -0.21336056
v 0.69350995 0.10000000 -0.09499958
v -0.52089387 0.10000000 0.79687963
v 0.21847003 0.10000000 0.78847236
v 0.23196280 0.10000000 0.82210000
v 0.29752795 0.10000000 0.43445302
v -0.21091065 0.10000000 0.70063159
v -0.56364327 0.10000000 0.96053222
v -0.63002567 0.10000000 0.92041639
v 1.00000000 0.10000000 -0.36424375
v 0.94513695 0.10000000 -0.31572000
v 0.80085170 0.10000000 -0.63500170
v 0.20427359 0.10000000 1.02224776
v 0.60277315 0.10000000 0.88572793
v 0.39428548 0.10000000 0.50912263
v -0.15284672 0.10000000 0.66072529
v -0.28089636 0.10000000 0.77346959
v -0.28311716 0.10000000 0.68147500
v -0.34655996 0.10000000 0.69135195
v -0.31521766 0.10000000 0.62520914
v -0.17581573 0.10000000 0.82710370
v -0.11429576 0.10000000 0.82225781
v -0.15330525 0.10000000 0.74972072
v 0.74916651 0.10000000 -0.37946565
v -0.57336960 0.10000000 1.02620924
v -0.47078308 0.10000000 1.10886320
v -0.36374737 0.10000000 1.07564626
v 0.19547814 0.10000000 0.96824741
v 0.46690000 0.10000000 0.41400000
v 0.57562184 0.10000000 0.49155514
v 0.42631381 0.10000000 0.61306248
v 0.67364126 0.10000000 0.48976402
v 0.50114259 0.10000000 0.61209407
v 0.57275303 0.10000000 0.29264247
v -0.30859150 0.10000000 0.54048612
v -0.40321350 0.10000000 0.84304274
v 1.00000000 0.10000000 -0.31725312
v 1.00000000 0.10000000 -0.41123437
v 0.24815000 0.10000000 1.07210000
v 0.62481901 0.10000000 0.59219161
v 0.49943298 0.10000000 0.74709554
v 0.36136026 0.10000000 0.75805701
v 0.60934296 0.10000000 0.69000106
v -0.26400394 0.10000000 0.57071250
v -0.33194352 0.10000000 0.75279688
v -0.72314715 0.10000000 0.99092999
v 0.08524832 0.10000000 1.02391548
v 0.73541413 0.10000000 0.52267116
v 0.49038596 0.10000000 0.80289018
v -0.35306743 0.10000000 0.47841929
v -0.27940000 0.10000000 0.41400000
v -0.30468345 0.10000000 0.83971831
v 1.00000000 0.10000000 -0.64618750
v 0.91733731 0.10000000 -0.47077203
v 1.00000000 0.10000000 -0.55220625
v 0.87634718 0.10000000 -0.40567608
v 1.00000000 0.10000000 -0.50521562
v 0.89538563 0.10000000 -0.58559397
v 0.70127754 0.10000000 -0.53542754
v 1.00000000 0.10000000 -0.59919687
v 0.96174007 0.10000000 -0.53398364
v 0.75106462 0.10000000 -0.58521462
v 0.82473792 0.10000000 -0.45942311
v 0.65561366 0.10000000 -0.37224934
v -0.59895517 0.10000000 1.08982811
v -0.65004649 0.10000000 1.03843133
v -0.65024645 0.10000000 1.17748639
v -0.64389482 0.10000000 1.28338342
v 0.31786680 0.10000000 1.05149805
v 0.24815000 0.10000000 1.13460000
v -0.37784850 0.10000000 0.92461118
v -0.44753129 0.10000000 1.01721484
v -0.31451808 0.10000000 0.90854983
v -0.30190858 0.10000000 1.03153657
v -0.29689138 0.10000000 0.95390808
v -0.17710695 0.10000000 1.03082338
v -0.14507286 0.10000000 0.94853431
v -0.22253784 0.10000000 0.90943268
v -0.06576914 0.10000000 1.02800518
v -0.04530381 0.10000000 0.96887555
v 0.65192430 0.10000000 -0.33030869
v -0.73514016 0.10000000 1.07530661
v -0.81222445 0.10000000 1.05115441
v -0.93750000 0.10000000 1.16585000
v -0.94064914 0.10000000 1.18543890
v 0.07422148 0.10000000 0.91767587
v 0.05138688 0.10000000 0.96374684
v 0.18819341 0.10000000 1.09476555
v 0.66038191 0.10000000 0.64280495
v 1.00000000 0.10000000 -0.74016875
v 0.85623167 0.10000000 -0.69038167
v 0.65149047 0.10000000 -0.48564047
v 0.71969001 0.10000000 -0.49758695
v 0.55660405 0.10000000 -0.56208644
v 0.69381918 0.10000000 -0.60222380
v 0.58965740 0.10000000 -0.21838466
v -0.76170031 0.10000000 1.14008603
v -0.70324569 0.10000000 1.26379451
v -0.07146145 0.10000000 0.97644720
v -0.04016562 0.10000000 1.11295240
v 1.00000000 0.10000000 -0.69317812
v -0.89322804 0.10000000 0.88803413
v -0.79227198 0.10000000 1.23441116
v 0.86148366 0.10000000 0.55588985
v 0.76460300 0.10000000 0.63287917
v 0.95580583 0.10000000 -0.78995583
v 0.83296071 0.10000000 -0.60813264
v -1.00000000 0.10000000 0.97696250
v -0.82828001 0.10000000 1.15994175
v -1.00000000 0.10000000 1.29085000
v 0.08271508 0.10000000 1.11183344
v 0.15413622 0.10000000 1.13840235
v -1.00000000 0.10000000 1.10335000
v -1.00000000 0.10000000 1.00844375
v -0.87155696 0.10000000 1.00729941
v -0.87407500 0.10000000 1.41400000
v -0.91782093 0.10000000 1.35931452
v -0.93703750 0.10000000 1.41400000
v -0.81111250 0.10000000 1.41400000
v -0.80340595 0.10000000 1.36221358
v -1.00000000 0.10000000 1.35242500
v 0.26510583 0.10000000 1.22705328
v 1.00000000 0.10000000 0.91400000
v 0.85932505 0.10000000 0.45356216
v 1.00000000 0.10000000 0.66400000
v 1.00000000 0.10000000 0.53900000
v -0.92474193 0.10000000 1.05202070
v 0.17012071 0.10000000 1.24730700
v 0.81931624 0.10000000 0.50743308
v -1.00000000 0.10000000 1.32163750
v 0.00982825 0.10000000 1.28822903
v 0.07839503 0.10000000 1.23003696
v 0.12407500 0.10000000 1.41400000
v 0.09915826 0.10000000 1.33511342
v -0.06758784 0.10000000 1.27609422
v 0.15509375 0.10000000 1.41400000
v 0.18611250 0.10000000 1.41400000
v -0.12407500 0.10000000 1.28992500
v -0.06685959 0.10000000 1.18372862
v 0.03398396 0.10000000 1.15058320
v 0.06250000 0.10000000 1.41400000
v -0.18185874 0.10000000 1.23214126
v 0.03125000 0.10000000 1.40105583
v -0.20052072 0.10000000 1.36678647
v -0.17436059 0.10000000 1.18906815
v -0.16548346 0.10000000 1.12147319
v -0.24815000 0.10000000 1.19710000
v -0.12407500 0.10000000 1.41400000
v -0.24815000 0.10000000 1.35150000
v -0.04419417 0.10000000 1.36980583
v -0.06203750 0.10000000 1.41400000
v 0.26873983 0.10000000 -0.46691689
v 0.00000000 0.10000000 -0.51980000
v 0.07621854 0.10000000 -0.49963544
v -0.08732580 0.10000000 -0.23305161
v -0.14853773 0.10000000 -0.31813056
v -0.18500858 0.10000000 -0.23991882
v -0.25798536 0.10000000 -0.32939846
v -0.32636742 0.10000000 -0.35416209
v -0.51175233 0.10000000 -0.23553201
v -0.36897035 0.10000000 -0.19252768
v -0.32961126 0.10000000 -0.26533827
v -0.21902007 0.10000000 -0.12030246
v -0.16515614 0.10000000 -0.15130243
v -0.08789564 0.10000000 -0.37180871
v -0.46693520 0.10000000 -0.13101058
v -0.24469644 0.10000000 -0.15332820
v -0.15241247 0.10000000 -0.49705520
v -0.57612146 0.10000000 -0.33031329
v -0.08385969 0.10000000 -0.45330520
v -0.43732822 0.10000000 -0.24625876
v -0.74575634 0.10000000 -0.29469345
v -0.57842876 0.10000000 -0.15615225
v -0.65440000 0.10000000 -0.08230000
v -0.69982236 0.10000000 -0.13948447
v -0.68211534 0.10000000 -0.23018366
v -0.68457053 0.10000000 -0.34028941
v 0.04959261 0.10000000 -0.21085973
v 0.34694635 0.10000000 -0.41184166
v 0.45506442 0.10000000 -0.38564993
v 0.51416192 0.10000000 -0.47527447
v -0.09282500 0.10000000 0.16585000
v -0.03125000 0.10000000 0.15290583
v -0.18661815 0.10000000 0.06455166
v 0.05075421 0.10000000 -0.35307029
v 0.15198466 0.10000000 -0.24242210
v -0.62072235 0.10000000 0.84174955
v -0.85709514 0.10000000 0.01579311
v -0.87726211 0.10000000 0.07191035
v 0.45904195 0.10000000 -0.11811162
v 0.24038432 0.10000000 0.34110391
v -0.70556339 0.10000000 0.61273192
v -0.03272596 0.10000000 0.28731421
v 0.84033417 0.10000000 0.20238420
v -0.90414874 0.10000000 0.81483908
v -1.00000000 0.10000000 0.88275000
v -1.00000000 0.10000000 0.82025000
v 0.48694155 0.10000000 0.31264855
v 0.40262922 0.10000000 0.34097687
v 1.00000000 0.10000000 0.22788750
v 1.00000000 0.10000000 0.35196250
v 1.00000000 0.10000000 0.19686875
v 0.05681424 0.10000000 0.55550536
v 0.71690000 0.10000000 0.41400000
v 0.24480328 0.10000000 0.48106413
v -0.08288678 0.10000000 0.76038034
v -0.04108960 0.10000000 0.84277576
v -0.01373070 0.10000000 0.88275000
v 0.36881705 0.10000000 0.96941360
v 0.50000000 0.10000000 1.41400000
v 0.44796876 0.10000000 1.06899727
v 0.38944994 0.10000000 0.90360957
v 0.47920893 0.10000000 0.87783926
v 0.41261813 0.10000000 1.10302921
v 0.45344987 0.10000000 1.19520646
v 0.53793099 0.10000000 0.94353929
v 0.53410002 0.10000000 1.03644073
v 0.60906886 0.10000000 1.02509659
v 0.72587236 0.10000000 0.87689794
v 0.71517560 0.10000000 0.83140692
v 0.69808359 0.10000000 0.98302898
v 0.59948028 0.10000000 1.10507785
v 0.74843774 0.10000000 1.12654216
v 0.70137384 0.10000000 1.10696100
v 0.82999644 0.10000000 1.07151346
v 0.77015813 0.10000000 1.00092119
v 1.00000000 0.10000000 1.03992500
v 0.83614210 0.10000000 0.91512708
v 0.86216304 0.10000000 0.98220864
v 0.94606777 0.10000000 1.02823911
v 0.91626802 0.10000000 0.92859981
v 0.15319832 0.10000000 0.88521919
v 0.74790758 0.10000000 -0.84883435
v 0.71332770 0.10000000 -0.79700021
v 0.60407104 0.10000000 -1.13950268
v 0.66555673 0.10000000 -0.66761168
v 0.70553987 0.10000000 -0.69385135
v 0.64887011 0.10000000 -0.60964282
v 0.74757682 0.10000000 -0.87523618
v 0.80203552 0.10000000 -0.98682634
v 0.61963945 0.10000000 -0.87158485
v 0.79199188 0.10000000 -0.76410571
v 0.84364695 0.10000000 -0.75612181
v 0.84056865 0.10000000 -0.84577477
v 0.90136675 0.10000000 -0.84543056
v 0.95050888 0.10000000 -0.87231908
v 0.85152664 0.10000000 -0.94865725
v 1.00000000 0.10000000 -1.08415000
v 0.70305328 0.10000000 -1.06316451
v 0.76739213 0.10000000 -0.95048052
v 1.00000000 0.10000000 -0.95915000
v 0.64903855 0.10000000 -0.74122204
v 0.56031052 0.10000000 -0.77726247
v 0.66813469 0.10000000 -0.97681893
v 0.59018258 0.10000000 -0.90713688
v 0.51040340 0.10000000 -0.86686706
v 0.38804656 0.10000000 -0.85740144
v -0.37315000 0.10000000 1.41400000
v -0.49815000 0.10000000 1.41400000
v -0.44602241 0.10000000 1.34869171
v -0.30750086 0.10000000 1.39441110
v -0.31065000 0.10000000 1.41400000
v -0.34190000 0.10000000 1.39892863
v -0.53661485 0.10000000 1.25671747
v -0.58454396 0.10000000 1.30297232
v -0.62315000 0.10000000 1.41400000
v -0.56065000 0.10000000 1.41400000
v -0.43565000 0.10000000 1.41400000
v -0.46690000 0.10000000 1.41400000
v -0.43275754 0.10000000 1.26951338
v -0.30355465 0.10000000 1.24893232
v -0.42931303 0.10000000 1.09596558
v -0.21596409 0.10000000 0.96564066
v 0.53541213 0.10000000 -0.36956213
v 0.73633687 0.10000000 0.73929498
v 0.77777006 0.10000000 -0.47688144
v -0.85162284 0.10000000 1.21482226
v -0.68565000 0.10000000 1.41400000
v -0.66683333 0.10000000 1.33557713
v -0.71690000 0.10000000 1.41400000
v 0.94099848 0.10000000 -0.68185834
v 1.00000000 0.10000000 -0.77165000
v 0.98705583 0.10000000 -0.80290000
v -1.00000000 0.10000000 1.22835000
v -0.77254289 0.10000000 1.31056459
v -0.91306360 0.10000000 1.24329101
v 0.76241036 0.10000000 0.36644845
v 0.20927890 0.10000000 1.31363851
v -0.18611250 0.10000000 1.41400000
v -0.14817683 0.10000000 1.35132684
v 0.34061921 0.10000000 -0.49612794
v 0.18768012 0.10000000 -0.61893400
v 0.32081919 0.10000000 -0.60844776
v 0.26087279 0.10000000 -0.60463492
v 0.14708959 0.10000000 -0.83578843
v 0.28057560 0.10000000 -0.70255362
v 0.30400919 0.10000000 -0.77720461
v 0.18289465 0.10000000 -0.87388576
v 0.09386397 0.10000000 -0.67488411
v 0.24246694 0.10000000 -0.72524844
v 0.28457279 0.10000000 -0.89349480
v 0.00000000 0.10000000 -0.78961250
v 0.00000000 0.10000000 -0.70668750
v 0.14427784 0.10000000 -0.73950094
v 0.12044830 0.10000000 -0.54999701
v 0.04649775 0.10000000 -0.90530469
v 0.05392953 0.10000000 -0.77269541
v 0.46607958 0.10000000 -0.74789435
v 0.35396552 0.10000000 -0.79000467
v 0.22327420 0.10000000 -0.88606148
v 0.00000000 0.10000000 -1.35150000
v 0.00000000 0.10000000 -1.22650000
v 0.03221392 0.10000000 -1.25843243
v 0.15876949 0.10000000 -0.62953271
v 0.07513314 0.10000000 -0.62210746
v 0.45386756 0.10000000 -0.58477475
v 0.40327051 0.10000000 -0.54205780
v 0.51702107 0.10000000 -0.60454524
v 0.49159283 0.10000000 -0.66464600
v 0.35182524 0.10000000 -0.61893127
v 0.40100210 0.10000000 -0.71020958
v 0.46741586 0.10000000 -0.78346000
v 0.33907789 0.10000000 -0.96311337
v 0.30540542 0.10000000 -1.02499291
v 0.26076285 0.10000000 -1.02414063
v 0.17377810 0.10000000 -1.01404138
v 0.00000000 0.10000000 -0.62376250
v 0.38830605 0.10000000 -0.80571882
v 0.12680977 0.10000000 -0.96985521
v 0.23106269 0.10000000 -1.03259148
v 0.00000000 0.10000000 -1.10150000
v 0.39415008 0.10000000 -0.96028017
v 0.46837851 0.10000000 -0.96394437
v 0.38849763 0.10000000 -1.04672699
v 0.40969713 0.10000000 -0.89292997
v -0.05868609 0.10000000 -0.67464213
v 0.51268010 0.10000000 -0.95740116
v -0.11460117 0.10000000 -0.59829174
v 0.45278064 0.10000000 -0.93495619
v 0.55290339 0.10000000 -0.97117743
v 0.58433035 0.10000000 -1.05015897
v 0.60682571 0.10000000 -1.00318232
v 0.40402121 0.10000000 -1.17102132
v -0.07490288 0.10000000 -0.56949738
v 0.18020049 0.10000000 -1.11067000
v 0.45656797 0.10000000 -1.06508521
v -0.18611250 0.10000000 -0.75913533
v 0.12199046 0.10000000 -1.25786220
v 0.07214945 0.10000000 -1.24487666
v 0.06797591 0.10000000 -1.31721148
v 0.22023891 0.10000000 -1.16538276
v 0.50564195 0.10000000 -1.09432409
v -0.17390652 0.10000000 -0.60658098
v -0.13639932 0.10000000 -0.73456854
v -0.20808907 0.10000000 -0.70078189
v -0.11079413 0.10000000 -0.89593488
v -0.30306495 0.10000000 -0.72100976
v -0.09833134 0.10000000 -0.96279668
v -0.22017265 0.10000000 -0.93939926
v -0.20050743 0.10000000 -0.83530107
v -0.23294627 0.10000000 -1.19474289
v -0.32668081 0.10000000 -0.87839097
v -0.38773327 0.10000000 -0.58572546
v -0.27454684 0.10000000 -0.81578139
v -0.43251314 0.10000000 -0.83772511
v -0.30876113 0.10000000 -0.85663081
v -0.45316466 0.10000000 -0.73305734
v -0.40749003 0.10000000 -0.76842181
v -0.36927222 0.10000000 -0.51887009
v -0.47135235 0.10000000 -0.41095015
v -0.31213328 0.10000000 -0.56415998
v -0.30369393 0.10000000 -0.42701355
v -0.41282742 0.10000000 -0.48423160
v -0.35971975 0.10000000 -0.33604619
v -0.51091958 0.10000000 -0.57254639
v -0.55499804 0.10000000 -0.54432350
v -0.47134518 0.10000000 -0.54239062
v -0.55852768 0.10000000 -0.44466773
v -0.55562616 0.10000000 -0.49704570
v -0.44251333 0.10000000 -0.45841583
v -0.64407896 0.10000000 -1.10864732
v -0.40317103 0.10000000 -0.89355564
v -0.50685077 0.10000000 -1.02022831
v -0.38984927 0.10000000 -0.96286267
v -0.16687223 0.10000000 -0.38003670
v -0.25474998 0.10000000 -0.57086961
v -0.19594339 0.10000000 -0.43317627
v -0.42595463 0.10000000 -0.32289013
v -0.59719442 0.10000000 -0.61172757
v -0.23229610 0.10000000 -1.04760572
v -0.53871286 0.10000000 -0.69935878
v -0.63856657 0.10000000 -0.65283903
v -0.69949101 0.10000000 -0.56605383
v -0.85294163 0.10000000 -0.50827478
v -0.69460426 0.10000000 -0.50587567
v -0.78442082 0.10000000 -0.39794010
v -0.27683511 0.10000000 -1.12056902
v -0.37617183 0.10000000 -1.02520252
v -0.50089023 0.10000000 -0.84159844
v -0.58106514 0.10000000 -0.91951956
v -0.80203552 0.10000000 -0.98682634
v -0.55411127 0.10000000 -0.82339961
v -0.43370370 0.10000000 -0.65188015
v -0.42433113 0.10000000 -0.68529465
v -0.52915863 0.10000000 -0.35146412
v -0.35560573 0.10000000 -1.10560030
v -0.60927433 0.10000000 -0.84256862
v -0.70555911 0.10000000 -0.66697252
v -0.64984801 0.10000000 -0.36301865
v -0.71474171 0.10000000 -0.31673965
v -0.46235747 0.10000000 -1.07600011
v -0.66197220 0.10000000 -0.44495457
v -0.38961196 0.10000000 -1.15875163
v -0.75085403 0.10000000 -0.91636897
v -0.47086004 0.10000000 -1.24223912
v -0.74815000 0.10000000 -1.41400000
v -0.49815000 0.10000000 -1.41400000
v -0.48856195 0.10000000 -1.14102530
v -0.72305724 0.10000000 -1.04773683
v -0.52035116 0.10000000 -1.20407004
v -0.39662336 0.10000000 -1.29949275
v -0.28383713 0.10000000 -1.25454469
v -0.33472944 0.10000000 -1.22680814
v -0.68033687 0.10000000 -0.95774771
v -0.45817008 0.10000000 -0.12113235
v -0.75740176 0.10000000 -0.23589078
v -0.15844445 0.10000000 0.25595685
v -0.13783580 0.10000000 0.09160309
v -0.03125000 0.10000000 0.17879417
v -0.27167109 0.10000000 0.22847883
v -0.36490204 0.10000000 0.30821402
v -0.27695701 0.10000000 0.32822230
v -0.77713068 0.10000000 -0.03951099
v -0.71690000 0.10000000 -0.08230000
v -0.77986250 0.10000000 -0.08230000
v -1.00000000 0.10000000 0.04270000
v 0.29787948 0.10000000 0.33000664
v 0.33806522 0.10000000 0.28910368
v -0.80985792 0.10000000 0.64682068
v 0.48127136 0.10000000 0.49343235
v 0.43669979 0.10000000 1.24347237
v 0.37407500 0.10000000 1.41400000
v 0.58681986 0.10000000 1.22727820
v 0.38161021 0.10000000 1.29180149
v 0.34923244 0.10000000 1.17418752
v 0.31111250 0.10000000 1.41400000
v 0.31938084 0.10000000 1.34279706
v 0.51259453 0.10000000 1.25777796
v 0.55202334 0.10000000 1.30612653
v 0.62500000 0.10000000 1.41400000
v 0.75000000 0.10000000 1.41400000
v 0.62388784 0.10000000 1.29961965
v 0.50148351 0.10000000 1.36616397
v 0.31704140 0.10000000 1.34410696
v 0.23337856 0.10000000 1.37335297
v 0.34259375 0.10000000 1.41400000
v 0.43703750 0.10000000 1.41400000
v 0.38573200 0.10000000 1.33415513
v 0.42685943 0.10000000 1.37253655
v 0.82387263 0.10000000 0.80046878
v 0.79102627 0.10000000 0.91165673
v 1.00000000 0.10000000 0.97696250
v 0.96631153 0.10000000 0.95196249
v 1.00000000 0.10000000 0.94548125
v 1.00000000 0.10000000 1.00844375
v 0.92872092 0.10000000 1.00360704
v 1.00000000 0.10000000 1.10335000
v 0.60295669 0.10000000 -0.59335019
v 0.56325193 0.10000000 -0.66272013
v 0.78595358 0.10000000 -1.13909311
v 0.79192550 0.10000000 -1.09953962
v 1.00000000 0.10000000 -1.24907500
v 0.83752571 0.10000000 -1.23531974
v 0.65356216 0.10000000 -1.10133359
v 0.66415506 0.10000000 -1.14318606
v 0.63256511 0.10000000 -1.07511096
v 0.66487738 0.10000000 -1.20018211
v 0.85982379 0.10000000 -0.98901301
v -0.22605875 0.10000000 1.07536472
v -0.45974429 0.10000000 1.20190638
v -0.41174619 0.10000000 1.17666525
v -0.49380171 0.10000000 1.36923625
v 0.84526163 0.10000000 0.64014577
v 0.00000000 0.10000000 -0.87253750
v 0.55237464 0.10000000 -0.51903423
v 0.15682235 0.10000000 -1.06279051
v 0.04817352 0.10000000 -1.00779111
v 0.00000000 0.10000000 -1.00775000
v 0.00000000 0.10000000 -0.94525000
v -0.11989193 0.10000000 -1.13900893
v -0.05562679 0.10000000 -1.09716261
v -0.22227925 0.10000000 -1.30988725
v -0.12407500 0.10000000 -1.41400000
v -0.16266577 0.10000000 -1.24300877
v -0.14915671 0.10000000 -1.19500256
v -0.06146480 0.10000000 -1.18786201
v -0.01433313 0.10000000 -1.19525000
v -0.11478411 0.10000000 -0.55158718
v 0.10121171 0.10000000 -1.16019513
v 0.12699056 0.10000000 -1.07352778
v -0.05223627 0.10000000 -0.80472368
v -0.08884543 0.10000000 -0.81996071
v 0.12407500 0.10000000 -1.41400000
v 0.20405840 0.10000000 -1.30770892
v 0.16349405 0.10000000 -1.32435427
v 0.06203750 0.10000000 -1.41400000
v 0.18611250 0.10000000 -1.41400000
v 0.21980805 0.10000000 -1.35339929
v 0.05769424 0.10000000 -1.38747102
v 0.28290915 0.10000000 -1.23519778
v 0.34378476 0.10000000 -1.22233309
v 0.42136892 0.10000000 -1.28040820
v 0.74815000 0.10000000 -1.41400000
v 0.49815000 0.10000000 -1.41400000
v 0.43871270 0.10000000 -1.35618380
v 0.36443021 0.10000000 -1.25939080
v 0.37187780 0.10000000 -1.31857729
v 0.37315000 0.10000000 -1.41400000
v 0.43565000 0.10000000 -1.41400000
v 0.32238668 0.10000000 -1.35674637
v 0.25928791 0.10000000 -1.27105156
v -1.00000000 0.10000000 -0.45822500
v -0.77402549 0.10000000 -0.57241128
v -1.00000000 0.10000000 -0.58415000
v -0.85470190 0.10000000 -0.56218859
v -1.00000000 0.10000000 -0.27026250
v -0.92281204 0.10000000 -0.53847181
v -0.56897154 0.10000000 -1.29901098
v -0.59458784 0.10000000 -1.14681641
v -0.74902528 0.10000000 -0.78663555
v -0.56538799 0.10000000 -1.23642478
v -0.36390187 0.10000000 -1.26717628
v -0.73556649 0.10000000 -1.15023566
v -0.55923717 0.10000000 -1.01857393
v -0.61554670 0.10000000 -1.03810426
v -1.00000000 0.10000000 -1.12407500
v -0.66867013 0.10000000 -1.20836002
v -0.71554013 0.10000000 -0.99787506
v -0.80916596 0.10000000 -1.07606058
v -0.78117892 0.10000000 -1.07071105
v -0.82778484 0.10000000 -1.17785402
v -0.78636828 0.10000000 -1.24370739
v -0.83759545 0.10000000 -1.20997580
v -1.00000000 0.10000000 -1.26903750
v -0.86706265 0.10000000 -1.00365830
v -0.76524711 0.10000000 -1.23117417
v -1.00000000 0.10000000 -1.19655625
v -0.91792903 0.10000000 -1.04777074
v -0.87407500 0.10000000 -1.41400000
v -0.89143546 0.10000000 -1.19674180
v -1.00000000 0.10000000 -1.23279687
v -0.91558359 0.10000000 -1.15358484
v -0.94297666 0.10000000 -1.25705079
v -1.00000000 0.10000000 -1.34151875
v -1.00000000 0.10000000 -1.30527812
v -1.00000000 0.10000000 -0.97911250
v -1.00000000 0.10000000 -1.05159375
v -0.97256140 0.10000000 -1.10797628
v -1.00000000 0.10000000 -0.90663125
v -0.87627220 0.10000000 -0.92957271
v -0.95050888 0.10000000 -0.87231908
v -0.62315000 0.10000000 -1.41400000
v -1.00000000 0.10000000 -1.01535313
v -0.95178786 0.10000000 -1.05550044
v -0.66904382 0.10000000 -1.30340508
v -0.56065000 0.10000000 -1.41400000
v -0.89805186 0.10000000 -0.84726938
v -0.72674908 0.10000000 -1.25757598
v -0.61019036 0.10000000 -1.27686386
v -0.37315000 0.10000000 -1.41400000
v -0.52862219 0.10000000 -1.35462550
v -0.59190000 0.10000000 -1.41400000
v -0.68565000 0.10000000 -1.41400000
v -0.84667904 0.10000000 -0.60718161
v -0.87388541 0.10000000 -0.67188834
v -0.95400990 0.10000000 -0.60196683
v -0.93876832 0.10000000 -0.65880530
v -0.88007087 0.10000000 -0.75759271
v -0.83874229 0.10000000 -0.79091267
v -0.43565000 0.10000000 -1.41400000
v -0.46219368 0.10000000 -1.29817331
v -0.35128170 0.10000000 -1.36595504
v -0.60456332 0.10000000 -1.36017753
v -1.00000000 0.10000000 -0.70915000
v -0.93279600 0.10000000 -0.71104266
v -1.00000000 0.10000000 -0.64665000
v -0.45879113 0.10000000 -1.35753054
v -0.40440000 0.10000000 -1.41400000
v -0.72441629 0.10000000 -1.36690323
v -0.71014077 0.10000000 -1.33956888
v -1.00000000 0.10000000 -0.77165000
v -1.00000000 0.10000000 -0.52118750
v -1.00000000 0.10000000 -0.36424375
v -0.96780774 0.10000000 -0.50246052
v -0.95255464 0.10000000 -0.43463058
v -0.91654463 0.10000000 -0.44989640
v -0.76760673 0.10000000 -0.71943771
v -0.86732377 0.10000000 -0.43990304
v -0.78513986 0.10000000 -0.71825277
v -0.75678687 0.10000000 -0.83348699
v -0.96742896 0.10000000 -0.78676654
v -0.93180528 0.10000000 -0.37075375
v -0.87452918 0.10000000 -0.35044335
v -0.73293346 0.10000000 -0.85803100
v -1.00000000 0.10000000 -0.31725312
v -0.79102553 0.10000000 -0.93277254
v -0.91014985 0.10000000 -0.28549160
v -0.81558669 0.10000000 -0.89004162
v -0.80520940 0.10000000 -0.84054886
v -1.00000000 0.10000000 -0.17628125
v -0.90708693 0.10000000 -0.13900543
v -0.80968175 0.10000000 -0.17522569
v -0.84372641 0.10000000 -0.11551222
v -0.82647957 0.10000000 -0.24010023
v -0.81900544 0.10000000 -0.28104072
v -0.93611397 0.10000000 -0.19075432
v -1.00000000 0.10000000 -0.12929062
v -0.76803363 0.10000000 -0.20927374
v -0.87443324 0.10000000 -0.26684847
v -0.78406288 0.10000000 -0.34236352
v -0.28532820 0.10000000 0.32327242
v -0.23520583 0.10000000 0.38275000
v -0.21690000 0.10000000 0.40105583
v -0.13683278 0.10000000 0.34582900
v -0.37173226 0.10000000 0.36048312
v -0.34190000 0.10000000 0.40042710
v -0.92284563 0.10000000 0.11558679
v -0.92454796 0.10000000 0.08949402
v 0.35457463 0.10000000 0.22263340
v 0.42704937 0.10000000 0.21144670
v 0.33797243 0.10000000 0.19009540
v 0.37521585 0.10000000 0.27467024
v 0.56250000 0.10000000 1.41400000
v 0.72788134 0.10000000 1.31574484
v 0.93750000 0.10000000 1.41400000
v 0.65614055 0.10000000 1.18858050
v 0.37424427 0.10000000 1.38826939
v 0.76407961 0.10000000 0.79228240
v 0.79641963 0.10000000 1.16883871
v 0.87500000 0.10000000 1.41400000
v 0.74943652 0.10000000 1.21812839
v 1.00000000 0.10000000 0.78900000
v 0.89052643 0.10000000 0.81451753
v 0.93507004 0.10000000 0.84811078
v 0.87724444 0.10000000 1.13558449
v 0.88483552 0.10000000 1.10367411
v 1.00000000 0.10000000 -0.89665000
v 0.73476430 0.10000000 -1.13942806
v 0.62315000 0.10000000 -1.41400000
v 0.76525267 0.10000000 -1.23490718
v 0.57806877 0.10000000 -1.32364580
v 0.72542639 0.10000000 -1.28330911
v 0.67891660 0.10000000 -1.25846702
v 0.67888307 0.10000000 -1.34247960
v 0.68565000 0.10000000 -1.41400000
v 0.55922290 0.10000000 -1.27185963
v 0.73368239 0.10000000 -1.38758092
v 0.63637736 0.10000000 -1.37473754
v 0.56065000 0.10000000 -1.41400000
v 0.65440000 0.10000000 -1.41400000
v 0.62044074 0.10000000 -1.32281788
v 0.54623022 0.10000000 -1.25099564
v 0.48560362 0.10000000 -1.23086842
v 0.87407500 0.10000000 -1.41400000
v 0.77499581 0.10000000 -1.32517925
v 0.81240248 0.10000000 -1.26779340
v 0.90559223 0.10000000 -1.23153641
v 0.81111250 0.10000000 -1.41400000
v 0.77963125 0.10000000 -1.41400000
v 0.87549345 0.10000000 -1.33641274
v 0.86073254 0.10000000 -1.38377026
v 0.93703750 0.10000000 -1.41400000
v 1.00000000 0.10000000 -1.33153750
v 0.95345675 0.10000000 -1.30062421
v 1.00000000 0.10000000 -1.16661250
v 0.93054963 0.10000000 -1.19572538
v 0.95038042 0.10000000 -1.35945818
v 0.84621829 0.10000000 -1.14975105
v 0.91450076 0.10000000 -1.09529241
v 1.00000000 0.10000000 -1.20784375
v 1.00000000 0.10000000 -1.37276875
v 0.53424827 0.10000000 -1.11934717
v 0.94077548 0.10000000 -0.91086883
v 0.97694618 0.10000000 -0.90796084
v 1.00000000 0.10000000 -0.99040000
v -0.61417343 0.10000000 1.24625750
v -0.67601113 0.10000000 1.23392819
v -0.31497019 0.10000000 1.34026306
v 0.05921327 0.10000000 -1.08414746
v 0.06997763 0.10000000 -0.95022096
v -0.15833054 0.10000000 -1.08306647
v -0.03399656 0.10000000 -1.29487524
v -0.16456972 0.10000000 -1.35520153
v -0.18611250 0.10000000 -1.41400000
v -0.21572118 0.10000000 -1.36385142
v -0.13123876 0.10000000 -1.37313860
v -0.10631343 0.10000000 -1.27481263
v 0.56555917 0.10000000 -1.36628766
v 0.52940000 0.10000000 -1.41400000
v 0.48830545 0.10000000 -1.34817084
v 0.27289556 0.10000000 -1.39491546
v -0.49539489 0.10000000 -1.17311905
v -0.27289556 0.10000000 -1.39491546
v -0.70060155 0.10000000 -1.11431109
v -0.62513817 0.10000000 -1.18516216
v -0.82919247 0.10000000 -1.12091574
v -0.93703750 0.10000000 -1.41400000
v -0.93633986 0.10000000 -0.96751147
v -0.77963125 0.10000000 -1.41400000
v -0.78073225 0.10000000 -1.33056525
v -0.70839349 0.10000000 -0.76218730
v -0.63206842 0.10000000 -0.75157051
v -0.65068039 0.10000000 -0.81902357
v -0.95407735 0.10000000 -0.29416799
v -0.96875000 0.10000000 -0.08230000
v -0.96730866 0.10000000 -0.17450267
v -0.88312619 0.10000000 -0.04466118
v -1.00000000 0.10000000 -0.01980000
v -1.00000000 0.10000000 0.10427500
v -0.95723160 0.10000000 0.02092258
v -1.00000000 0.10000000 0.07348750
v 0.59375000 0.10000000 1.41400000
v 0.64680381 0.10000000 1.34569426
v 0.96270565 0.10000000 1.38508871
v 0.85643323 0.10000000 1.25553706
v 0.82263421 0.10000000 1.37825928
v 0.77410448 0.10000000 1.26954975
v 0.81250000 0.10000000 1.41400000
v 0.84433098 0.10000000 1.31475015
v 1.00000000 0.10000000 1.28992500
v 0.89201530 0.10000000 1.32047274
v 0.92740397 0.10000000 1.18629260
v 0.78125000 0.10000000 1.41400000
v 0.68750000 0.10000000 1.41400000
v 1.00000000 0.10000000 1.35196250
v 0.77397714 0.10000000 1.30750638
v 0.73650500 0.10000000 1.34801379
v 1.00000000 0.10000000 1.22788750
v 0.86946019 0.10000000 1.21761180
v 0.92288024 0.10000000 1.36754315
v 0.95350081 0.10000000 1.29128401
v 0.97171162 0.10000000 1.19686875
v 0.86803532 0.10000000 0.77032119
v 0.97230503 0.10000000 1.11722280
v 0.44714360 0.10000000 -1.31128090
v 1.00000000 0.10000000 -1.12538125
v 1.00000000 0.10000000 -1.29030625
v 0.96719161 0.10000000 -1.20264175
v 0.94043130 0.10000000 -1.02790703
v 0.88934802 0.10000000 -1.01016402
v 1.00000000 0.10000000 -1.02165000
v 0.84563331 0.10000000 -1.04435770
v -0.06203750 0.10000000 -1.41400000
v -0.24645462 0.10000000 -1.01637215
v -0.85366465 0.10000000 -1.28308038
v -0.81306935 0.10000000 -1.30094127
v -0.85743922 0.10000000 -1.34778846
v -0.81111250 0.10000000 -1.41400000
v -0.82050004 0.10000000 -1.38114421
v -1.00000000 0.10000000 -0.86540000
v -0.96501145 0.10000000 -0.90906988
v -0.67245114 0.10000000 -0.73664973
v -1.00000000 0.10000000 -0.05105000
v 0.82691818 0.10000000 0.74587599
v 0.84150786 0.10000000 0.70268159
v 1.00000000 0.10000000 0.72650000
v 0.95710211 0.10000000 0.78341277
v 1.00000000 0.10000000 0.85150000
v 1.00000000 0.10000000 0.82025000
v 0.96578575 0.10000000 0.68609239
v 1.00000000 0.10000000 0.60150000
v 1.00000000 0.10000000 0.63275000
v 0.94758186 0.10000000 0.60327298
v 1.00000000 0.10000000 0.57025000
v 1.00000000 0.10000000 0.47650000
v 0.98030619 0.10000000 0.47582979
v 0.91951013 0.10000000 0.68295196
v 0.52609565 0.10000000 -0.24576061
v -0.31331357 0.10000000 -0.11899976
v -0.94017207 0.10000000 0.27845865
v -0.90733620 0.10000000 0.21428174
v -1.00000000 0.10000000 0.22788750
v 0.65401560 0.10000000 0.34578152
v 0.54966269 0.10000000 0.36522446
v 0.28502666 0.10000000 0.93075636
v 0.71644095 0.10000000 0.44870707
v 0.71096534 0.10000000 0.65420117
v -0.96024906 0.10000000 1.24599309
v 0.31065000 0.10000000 -1.41400000
v 0.27940000 0.10000000 -1.41400000
v 0.34190000 0.10000000 -1.41400000
v -0.31065000 0.10000000 -1.41400000
v -0.27940000 0.10000000 -1.41400000
v 0.64631218 0.10000000 1.38112685
v 1.00000000 0.10000000 -1.05290000
v -0.06530393 0.10000000 -1.35023702
v -1.00000000 0.10000000 -1.37775937
v -0.92399203 0.10000000 -1.33546919
v -0.96851875 0.10000000 -1.41400000
f 113 482 481
f 137 103 110
f 15 83 58
f 205 17 923
f 560 557 562
f 14 195 493
f 34 35 36
f 32 35 31
f 35 32 36
f 31 33 32
f 34 59 83
f 358 394 391
f 40 37 38
f 57 36 463
f 41 37 40
f 453 626 452
f 42 37 41
f 31 35 477
f 42 41 484
f 41 40 484
f 485 37 42
f 33 31 484
f 44 38 37
f 47 44 37
f 46 45 53
f 47 45 46
f 38 44 51
f 478 451 38
f 478 38 51
f 45 47 48
f 88 47 37
f 54 45 48
f 88 49 48
f 1077 55 52
f 137 99 103
f 479 51 44
f 48 47 88
f 88 99 49
f 99 48 49
f 45 54 53
f 48 50 54
f 48 99 50
f 50 489 54
f 52 46 53
f 47 479 44
f 52 47 46
f 47 52 479
f 54 489 53
f 479 52 55
f 573 479 55
f 36 57 28
f 463 72 57
f 95 84 72
f 57 72 85
f 28 85 59
f 34 36 28
f 83 59 58
f 85 727 60
f 28 59 34
f 85 28 57
f 58 60 113
f 28 34 83
f 28 82 79
f 73 727 483
f 78 67 73
f 65 67 63
f 67 64 73
f 67 65 64
f 66 64 65
f 76 67 78
f 65 63 66
f 67 76 104
f 105 106 74
f 58 85 60
f 59 85 58
f 727 22 483
f 72 727 85
f 727 72 22
f 70 94 95
f 73 22 95
f 95 94 73
f 66 62 71
f 77 76 78
f 79 81 28
f 28 81 477
f 88 37 81
f 43 81 37
f 83 82 28
f 58 91 15
f 95 22 84
f 22 72 84
f 117 125 116
f 112 76 77
f 79 100 80
f 81 80 87
f 87 80 99
f 88 87 99
f 87 88 81
f 43 37 485
f 83 90 82
f 90 89 82
f 90 83 15
f 58 113 91
f 113 15 91
f 74 92 104
f 107 66 63
f 78 94 112
f 78 112 77
f 73 94 78
f 76 112 98
f 82 89 100
f 82 89 101
f 66 107 62
f 86 96 112
f 102 97 98
f 98 97 76
f 153 76 97
f 99 80 100
f 79 82 100
f 89 82 101
f 90 149 103
f 107 63 92
f 63 67 104
f 71 62 730
f 112 70 86
f 112 102 98
f 89 99 100
f 89 90 103
f 63 104 92
f 92 74 107
f 106 107 74
f 105 74 108
f 106 62 107
f 106 105 152
f 104 108 74
f 68 152 105
f 76 153 104
f 93 109 125
f 15 124 90
f 115 118 116
f 62 114 109
f 108 104 153
f 924 62 109
f 112 96 102
f 96 473 102
f 69 97 102
f 118 126 116
f 106 114 62
f 109 114 115
f 117 116 126
f 111 115 152
f 127 115 111
f 127 129 118
f 68 108 119
f 119 1080 152
f 155 121 135
f 111 120 127
f 170 135 121
f 90 124 149
f 15 149 124
f 116 125 109
f 116 109 115
f 152 114 106
f 170 161 129
f 169 126 118
f 118 129 169
f 126 169 138
f 118 115 127
f 152 115 114
f 137 110 159
f 151 93 125
f 129 135 170
f 135 129 122
f 127 122 129
f 122 127 135
f 147 1079 135
f 15 123 149
f 130 103 149
f 103 128 110
f 128 228 110
f 99 89 103
f 128 103 130
f 131 139 117
f 133 117 139
f 147 127 120
f 148 135 1079
f 147 120 1079
f 1079 120 1080
f 135 127 147
f 138 131 126
f 156 131 138
f 139 131 140
f 120 111 1080
f 152 68 119
f 108 68 105
f 1014 29 1016
f 119 108 146
f 142 145 108
f 146 108 926
f 488 108 145
f 123 490 149
f 128 130 136
f 26 136 171
f 137 159 50
f 131 117 126
f 150 141 140
f 139 140 133
f 119 146 1080
f 111 152 1080
f 108 153 143
f 153 69 142
f 69 153 97
f 108 143 142
f 144 734 474
f 148 1079 134
f 135 154 8
f 135 148 154
f 135 8 155
f 155 157 121
f 155 8 157
f 137 50 99
f 160 50 159
f 50 160 182
f 133 140 141
f 162 151 117
f 162 349 151
f 18 192 225
f 151 75 93
f 924 93 75
f 153 142 143
f 490 123 158
f 133 162 132
f 117 133 132
f 162 133 285
f 334 162 319
f 75 151 349
f 121 157 161
f 157 167 178
f 178 165 157
f 161 169 129
f 166 395 53
f 1077 53 395
f 166 53 489
f 285 133 141
f 117 132 162
f 157 179 167
f 161 157 156
f 161 170 121
f 161 156 169
f 138 169 156
f 130 171 136
f 171 130 490
f 26 228 128
f 171 174 26
f 228 174 213
f 123 181 158
f 193 191 284
f 136 26 128
f 1077 395 56
f 167 165 178
f 157 8 179
f 8 167 179
f 180 156 186
f 185 168 157
f 149 490 130
f 181 173 172
f 302 285 141
f 156 157 186
f 158 181 172
f 190 284 18
f 191 18 284
f 184 182 261
f 182 184 175
f 175 184 183
f 489 175 166
f 166 175 176
f 166 176 395
f 157 165 185
f 168 186 157
f 168 164 186
f 189 188 186
f 186 164 189
f 188 220 186
f 186 208 209
f 204 181 123
f 181 190 173
f 224 18 191
f 212 191 193
f 211 492 193
f 181 193 284
f 183 227 206
f 195 14 233
f 233 196 197
f 199 202 201
f 227 196 206
f 199 195 198
f 198 195 233
f 198 202 199
f 202 215 201
f 233 241 196
f 233 197 198
f 196 198 197
f 198 196 227
f 237 493 200
f 237 246 493
f 123 15 204
f 193 181 211
f 191 212 18
f 183 206 177
f 208 186 220
f 210 156 180
f 210 186 738
f 180 186 210
f 211 204 15
f 211 181 204
f 217 923 17
f 183 184 228
f 206 196 214
f 301 214 244
f 198 227 202
f 493 201 200
f 201 493 199
f 202 201 215
f 220 209 208
f 209 220 494
f 495 163 275
f 217 221 192
f 187 494 220
f 188 187 220
f 217 350 221
f 224 191 225
f 223 224 225
f 222 223 225
f 227 229 226
f 213 201 229
f 227 226 202
f 227 183 229
f 229 228 213
f 228 229 183
f 213 929 201
f 234 240 214
f 241 234 214
f 207 230 240
f 240 244 214
f 196 241 214
f 207 240 234
f 234 231 207
f 231 234 233
f 231 233 14
f 201 226 229
f 268 269 201
f 236 586 201
f 141 150 288
f 491 140 131
f 288 140 209
f 288 209 279
f 278 279 209
f 140 288 150
f 223 264 238
f 222 225 239
f 222 239 221
f 192 239 225
f 191 18 225
f 221 253 222
f 234 241 233
f 256 176 244
f 237 200 201
f 7 500 260
f 490 248 498
f 490 172 19
f 490 19 247
f 228 160 159
f 276 278 494
f 223 251 252
f 223 249 264
f 252 249 223
f 238 264 502
f 252 264 249
f 315 222 253
f 221 306 315
f 240 30 254
f 243 254 242
f 245 243 267
f 310 244 243
f 201 269 236
f 586 1083 235
f 236 269 333
f 216 260 500
f 259 7 260
f 499 493 216
f 493 246 260
f 493 501 14
f 260 216 493
f 184 261 228
f 182 228 261
f 182 160 228
f 494 401 263
f 494 278 209
f 276 494 263
f 271 250 264
f 305 247 19
f 297 505 223
f 252 265 264
f 265 251 280
f 290 264 265
f 221 315 253
f 222 315 297
f 240 266 30
f 240 230 266
f 1083 497 498
f 235 1083 273
f 268 497 333
f 333 269 268
f 259 260 203
f 250 502 264
f 224 502 270
f 190 224 173
f 224 270 250
f 224 190 18
f 284 190 181
f 270 502 250
f 504 173 224
f 224 250 272
f 272 250 504
f 224 272 504
f 243 244 240
f 267 243 242
f 176 286 257
f 413 262 426
f 402 408 576
f 781 299 564
f 263 279 276
f 281 280 251
f 265 280 290
f 271 264 290
f 289 296 250
f 314 296 330
f 250 341 289
f 251 265 252
f 286 256 244
f 286 176 256
f 257 287 395
f 328 273 1083
f 407 413 426
f 279 278 276
f 288 279 263
f 303 290 280
f 271 341 250
f 291 293 271
f 271 293 341
f 292 293 291
f 340 296 348
f 335 285 302
f 255 244 310
f 286 244 255
f 255 257 286
f 300 176 257
f 308 324 307
f 303 271 290
f 341 296 289
f 303 291 304
f 296 504 250
f 296 314 504
f 282 283 330
f 294 251 505
f 335 302 298
f 255 287 257
f 300 257 395
f 395 176 300
f 301 244 176
f 308 365 324
f 486 308 298
f 280 531 303
f 303 304 291
f 291 303 531
f 271 303 291
f 314 739 504
f 19 172 305
f 172 504 305
f 306 322 315
f 277 298 308
f 307 277 308
f 287 255 355
f 337 232 353
f 291 531 327
f 338 312 387
f 368 338 27
f 296 340 282
f 296 282 330
f 247 305 504
f 739 248 247
f 317 344 306
f 317 306 319
f 285 318 162
f 319 306 334
f 344 318 285
f 306 316 351
f 321 306 320
f 321 322 306
f 315 322 321
f 335 344 285
f 324 277 307
f 584 397 402
f 327 312 368
f 504 739 247
f 248 739 328
f 739 1085 273
f 739 314 330
f 328 739 273
f 1085 739 329
f 332 739 330
f 739 332 283
f 1085 235 273
f 333 1083 1082
f 1083 333 497
f 283 332 330
f 283 282 340
f 222 297 223
f 334 349 162
f 306 343 334
f 317 319 318
f 162 318 319
f 316 344 351
f 344 317 318
f 306 344 316
f 351 344 335
f 245 336 310
f 309 310 336
f 309 337 353
f 355 310 353
f 365 364 324
f 327 346 312
f 331 1085 329
f 339 329 739
f 739 283 339
f 283 388 339
f 388 283 342
f 348 296 341
f 341 293 511
f 306 221 343
f 221 334 343
f 75 349 350
f 298 370 335
f 298 277 370
f 376 321 320
f 245 310 243
f 309 353 310
f 362 287 355
f 362 323 287
f 263 382 381
f 325 371 324
f 780 324 364
f 340 342 283
f 329 347 331
f 339 347 329
f 511 348 341
f 349 334 221
f 350 349 221
f 351 335 370
f 377 376 320
f 351 377 306
f 353 362 355
f 232 360 353
f 360 356 354
f 354 359 360
f 400 389 580
f 362 353 357
f 362 357 575
f 406 311 361
f 323 363 380
f 310 355 255
f 308 345 381
f 365 308 381
f 263 381 345
f 364 365 366
f 366 365 381
f 338 369 27
f 327 508 1084
f 531 385 327
f 370 277 371
f 372 351 370
f 326 373 371
f 374 372 370
f 374 370 373
f 377 372 374
f 371 373 370
f 377 373 778
f 351 372 377
f 437 441 589
f 572 377 778
f 572 376 377
f 306 377 320
f 353 360 357
f 232 356 360
f 352 360 359
f 380 287 323
f 395 287 380
f 345 308 263
f 10 383 426
f 383 10 384
f 366 381 396
f 576 408 384
f 281 385 531
f 281 251 385
f 327 385 386
f 378 346 386
f 428 347 403
f 342 340 16
f 574 388 342
f 574 342 16
f 347 1086 404
f 23 444 27
f 352 400 580
f 357 360 580
f 580 360 352
f 580 406 357
f 323 362 575
f 1077 56 55
f 406 361 358
f 323 392 363
f 391 39 363
f 575 392 323
f 363 392 391
f 392 358 391
f 394 393 784
f 395 380 56
f 401 275 414
f 414 382 263
f 381 408 396
f 366 396 408
f 366 402 986
f 410 387 312
f 439 346 399
f 346 410 312
f 439 410 346
f 376 398 379
f 378 398 376
f 379 398 378
f 386 379 378
f 361 394 358
f 394 767 393
f 394 537 767
f 263 401 414
f 382 408 381
f 412 10 426
f 408 402 366
f 576 384 584
f 584 402 576
f 584 585 416
f 419 584 416
f 402 397 986
f 411 387 410
f 203 1085 347
f 347 339 1086
f 399 346 378
f 390 580 405
f 406 580 390
f 582 11 405
f 389 581 580
f 406 390 311
f 392 357 406
f 358 392 406
f 408 426 383
f 414 408 382
f 407 426 274
f 426 262 412
f 583 409 1087
f 275 163 274
f 410 421 411
f 387 421 369
f 411 421 387
f 338 387 369
f 410 430 431
f 403 347 404
f 203 503 1085
f 414 275 426
f 274 426 275
f 415 416 417
f 415 418 416
f 419 416 418
f 416 420 1
f 1 417 416
f 427 421 410
f 237 586 246
f 203 347 423
f 428 403 423
f 423 403 1075
f 408 414 426
f 416 429 420
f 260 246 203
f 259 203 423
f 347 428 423
f 416 409 429
f 427 431 433
f 410 431 427
f 433 432 435
f 403 404 782
f 427 433 587
f 430 433 431
f 23 589 441
f 449 434 437
f 435 436 433
f 24 754 436
f 754 587 433
f 430 399 438
f 434 430 438
f 430 439 399
f 410 439 430
f 430 5 433
f 433 442 440
f 441 437 434
f 444 434 438
f 446 589 23
f 433 5 442
f 5 440 442
f 399 375 445
f 778 444 445
f 438 445 444
f 23 441 444
f 444 778 27
f 446 448 589
f 27 446 23
f 20 443 448
f 434 444 441
f 5 430 449
f 450 589 447
f 33 484 453
f 604 40 451
f 451 40 38
f 453 40 604
f 593 591 451
f 484 40 453
f 454 36 32
f 32 455 456
f 456 454 32
f 456 466 463
f 455 457 456
f 464 455 32
f 456 36 454
f 457 461 456
f 684 455 464
f 1078 466 460
f 470 459 460
f 470 460 461
f 457 673 461
f 460 456 461
f 460 466 456
f 463 466 462
f 463 462 72
f 469 464 32
f 1078 95 466
f 466 95 462
f 72 462 95
f 472 460 459
f 724 460 465
f 70 724 86
f 459 468 708
f 475 459 708
f 475 472 459
f 460 472 465
f 472 474 724
f 472 475 474
f 474 733 473
f 473 733 102
f 473 96 474
f 724 474 96
f 459 704 468
f 475 708 476
f 476 709 475
f 477 35 34
f 451 478 590
f 51 479 478
f 479 480 478
f 590 478 616
f 616 480 615
f 480 479 573
f 573 39 480
f 480 39 784
f 61 481 727
f 15 481 726
f 481 61 726
f 113 60 482
f 727 482 60
f 22 73 483
f 43 485 81
f 477 484 31
f 42 484 485
f 485 484 477
f 28 477 34
f 80 81 79
f 1078 70 95
f 724 1078 460
f 288 302 141
f 298 302 288
f 298 288 486
f 263 486 288
f 308 486 263
f 1014 1016 144
f 1016 487 732
f 487 69 732
f 145 142 487
f 487 1016 1019
f 488 926 108
f 487 488 145
f 182 489 50
f 489 182 175
f 172 490 158
f 110 228 159
f 174 228 26
f 491 209 140
f 210 491 156
f 156 491 131
f 209 491 210
f 15 492 211
f 194 205 923
f 194 923 492
f 193 492 212
f 195 199 493
f 923 212 492
f 401 495 275
f 494 219 401
f 219 494 496
f 401 219 495
f 496 494 187
f 202 226 201
f 1083 498 328
f 328 498 248
f 497 258 498
f 1082 236 333
f 499 216 218
f 493 499 501
f 224 223 502
f 238 502 223
f 385 251 386
f 586 235 503
f 1085 503 235
f 254 243 240
f 281 531 280
f 505 251 223
f 315 321 505
f 321 294 505
f 251 321 506
f 321 251 294
f 386 251 507
f 321 376 379
f 379 386 321
f 507 321 386
f 251 506 507
f 321 507 506
f 292 1084 508
f 508 511 292
f 368 508 327
f 293 292 511
f 511 508 512
f 512 508 313
f 512 348 511
f 744 368 27
f 27 369 744
f 513 510 508
f 744 508 368
f 744 514 510
f 340 313 16
f 512 313 348
f 513 744 510
f 744 513 508
f 508 515 313
f 516 515 508
f 338 368 312
f 313 516 517
f 313 515 516
f 313 518 16
f 510 516 508
f 516 510 514
f 519 16 518
f 16 519 937
f 348 313 340
f 520 313 517
f 517 935 520
f 517 516 521
f 514 742 516
f 523 522 520
f 521 516 935
f 517 521 935
f 516 742 935
f 935 523 520
f 313 520 518
f 520 522 525
f 525 518 520
f 522 523 935
f 524 525 522
f 525 528 518
f 764 761 529
f 529 761 762
f 763 422 762
f 315 505 297
f 324 371 277
f 248 490 247
f 71 729 66
f 542 311 390
f 311 394 361
f 542 390 405
f 542 541 394
f 542 394 311
f 539 546 777
f 394 541 536
f 533 536 541
f 394 536 535
f 551 535 536
f 394 535 537
f 539 548 549
f 533 541 532
f 538 532 541
f 543 544 538
f 538 541 543
f 546 544 545
f 533 538 540
f 533 532 538
f 553 538 549
f 546 549 544
f 543 541 542
f 549 538 544
f 549 546 539
f 777 546 545
f 540 552 551
f 533 551 536
f 540 551 533
f 540 555 552
f 538 553 540
f 554 555 540
f 551 618 768
f 627 555 556
f 627 621 555
f 555 607 618
f 555 634 556
f 373 377 374
f 373 27 778
f 325 571 371
f 373 326 780
f 325 780 571
f 571 780 326
f 780 779 569
f 781 560 559
f 561 20 560
f 562 561 560
f 561 562 557
f 563 569 366
f 299 563 564
f 366 569 779
f 566 781 565
f 367 397 578
f 781 568 567
f 781 558 568
f 781 559 299
f 569 299 559
f 780 569 570
f 987 559 560
f 27 373 780
f 446 780 570
f 780 446 27
f 371 571 326
f 448 446 570
f 376 572 375
f 376 375 378
f 399 378 375
f 445 375 778
f 363 56 380
f 573 55 56
f 573 363 39
f 363 573 56
f 575 357 392
f 39 394 784
f 391 394 39
f 367 564 985
f 327 386 346
f 383 384 408
f 986 397 367
f 584 578 397
f 584 577 578
f 565 781 578
f 578 781 564
f 367 578 564
f 566 558 781
f 577 565 578
f 579 577 584
f 295 584 419
f 584 295 579
f 580 581 405
f 405 581 582
f 581 11 582
f 384 10 1087
f 585 1087 416
f 409 416 1087
f 585 584 384
f 418 295 419
f 503 203 586
f 246 586 203
f 201 586 237
f 754 421 587
f 421 427 587
f 436 754 433
f 440 432 433
f 588 443 20
f 443 588 589
f 588 447 589
f 450 5 589
f 5 449 589
f 449 430 434
f 589 449 437
f 451 591 604
f 451 590 593
f 603 613 591
f 590 592 593
f 592 590 619
f 599 591 593
f 591 599 603
f 599 597 594
f 593 595 599
f 599 594 603
f 609 597 599
f 603 594 606
f 596 599 595
f 599 600 609
f 596 595 592
f 620 596 592
f 600 556 622
f 598 614 603
f 603 614 613
f 599 596 600
f 596 608 556
f 623 600 622
f 614 591 613
f 591 614 604
f 602 606 601
f 618 607 620
f 608 620 627
f 600 596 556
f 620 607 621
f 597 609 629
f 649 6 610
f 610 611 612
f 614 606 602
f 606 614 598
f 614 602 626
f 603 606 598
f 615 620 619
f 620 615 618
f 616 615 619
f 616 619 590
f 593 592 595
f 618 615 617
f 592 619 620
f 608 596 620
f 620 621 627
f 629 609 623
f 609 600 623
f 624 629 623
f 453 614 626
f 608 627 556
f 623 642 629
f 644 629 650
f 629 644 625
f 597 629 594
f 786 594 628
f 625 628 629
f 635 626 602
f 622 633 623
f 611 630 988
f 623 629 624
f 628 594 629
f 633 622 631
f 636 639 633
f 634 633 631
f 633 639 645
f 643 635 637
f 634 631 622
f 556 634 622
f 611 988 612
f 635 643 626
f 602 601 800
f 636 633 632
f 555 636 632
f 639 636 555
f 653 637 635
f 632 633 638
f 555 632 638
f 634 638 633
f 555 638 634
f 640 645 639
f 540 641 639
f 641 640 639
f 820 650 629
f 602 800 635
f 601 783 800
f 601 606 783
f 635 800 801
f 800 783 788
f 648 612 798
f 644 798 785
f 633 642 623
f 633 645 642
f 635 801 653
f 659 653 801
f 648 798 647
f 612 648 649
f 647 649 648
f 644 650 798
f 612 988 798
f 652 637 653
f 653 646 654
f 642 820 629
f 798 650 647
f 652 653 654
f 646 653 659
f 654 646 659
f 656 685 654
f 654 685 652
f 800 657 655
f 654 659 656
f 1053 657 990
f 665 667 656
f 665 656 663
f 658 665 659
f 667 681 664
f 667 703 656
f 703 702 656
f 656 702 662
f 662 668 656
f 702 674 662
f 689 990 660
f 659 663 656
f 659 665 663
f 667 665 681
f 681 665 661
f 667 666 703
f 672 668 662
f 457 458 673
f 670 685 656
f 656 668 670
f 684 686 457
f 668 671 685
f 673 672 669
f 668 672 671
f 685 670 668
f 676 662 674
f 684 469 686
f 461 673 687
f 459 687 704
f 671 673 458
f 673 671 672
f 676 672 662
f 676 674 678
f 688 674 690
f 678 672 676
f 672 678 679
f 679 678 669
f 660 696 689
f 658 681 661
f 665 658 661
f 664 698 667
f 664 681 698
f 683 681 658
f 1053 697 683
f 464 469 684
f 455 684 457
f 686 469 467
f 797 467 643
f 797 637 467
f 467 685 686
f 686 685 671
f 671 457 686
f 459 470 687
f 687 669 704
f 678 674 675
f 682 681 683
f 458 457 671
f 461 687 470
f 666 667 690
f 1053 689 696
f 1011 688 690
f 690 667 701
f 688 1011 691
f 688 675 674
f 707 822 688
f 694 678 688
f 675 688 678
f 692 694 688
f 690 701 1011
f 691 707 688
f 692 688 822
f 694 692 822
f 711 678 694
f 822 695 694
f 711 677 678
f 711 694 695
f 695 693 897
f 708 695 476
f 695 471 709
f 712 1053 696
f 705 1053 712
f 697 1053 710
f 681 699 698
f 833 834 699
f 833 699 682
f 701 698 699
f 667 698 701
f 674 702 690
f 666 690 703
f 702 703 690
f 669 677 704
f 704 677 468
f 468 677 708
f 1053 705 710
f 706 701 699
f 701 706 1011
f 691 1011 707
f 708 711 695
f 695 709 476
f 683 710 682
f 714 880 719
f 710 683 697
f 677 711 708
f 699 681 682
f 712 710 705
f 696 660 712
f 723 706 699
f 714 719 1001
f 828 1001 719
f 712 717 710
f 1001 717 712
f 717 682 710
f 831 1001 712
f 717 1001 682
f 831 712 722
f 722 712 660
f 722 660 721
f 834 723 699
f 719 880 830
f 660 791 721
f 791 831 721
f 720 831 791
f 721 831 722
f 706 723 713
f 720 714 831
f 1001 831 714
f 723 834 837
f 456 463 36
f 96 86 724
f 472 724 465
f 475 709 471
f 113 481 728
f 61 64 726
f 482 727 481
f 481 15 728
f 15 113 728
f 726 194 15
f 194 492 15
f 205 194 726
f 64 66 729
f 730 62 924
f 729 71 731
f 350 731 75
f 924 925 731
f 924 731 730
f 920 731 71
f 730 731 920
f 477 81 485
f 144 732 734
f 1016 732 144
f 734 732 733
f 732 69 102
f 474 734 733
f 474 475 917
f 487 142 69
f 733 732 102
f 1020 1019 735
f 490 498 736
f 931 736 498
f 171 736 737
f 209 738 186
f 210 738 209
f 929 498 258
f 172 173 504
f 747 742 514
f 514 421 740
f 514 744 421
f 746 421 754
f 754 24 745
f 743 746 757
f 747 751 742
f 421 743 740
f 421 746 743
f 744 369 421
f 754 753 746
f 752 747 740
f 936 755 741
f 740 747 514
f 747 752 748
f 747 748 751
f 1025 1032 1027
f 1093 1022 751
f 509 932 752
f 748 752 751
f 743 752 740
f 745 936 754
f 936 746 753
f 754 936 753
f 741 756 936
f 936 745 755
f 746 936 758
f 746 758 757
f 530 943 518
f 518 527 530
f 518 528 527
f 518 760 527
f 518 527 760
f 530 527 528
f 762 422 530
f 530 529 762
f 762 761 763
f 530 765 529
f 528 765 530
f 526 529 1043
f 764 529 526
f 525 524 528
f 524 945 528
f 528 529 765
f 528 1043 529
f 9 766 1043
f 551 768 535
f 537 535 768
f 537 768 767
f 393 767 768
f 617 768 618
f 405 11 544
f 545 544 11
f 542 544 543
f 548 539 777
f 977 1051 978
f 1051 977 770
f 770 977 769
f 947 770 769
f 977 949 947
f 777 947 548
f 1051 770 777
f 947 777 770
f 777 1049 1051
f 949 977 772
f 977 947 769
f 775 773 534
f 773 548 947
f 947 776 774
f 773 774 534
f 774 773 947
f 775 640 553
f 553 640 641
f 962 811 642
f 775 981 640
f 775 548 773
f 548 775 549
f 549 775 553
f 642 534 962
f 810 809 642
f 540 553 641
f 554 639 555
f 540 639 554
f 552 555 618
f 607 555 621
f 552 618 551
f 572 778 375
f 780 366 779
f 366 780 364
f 325 324 780
f 569 563 299
f 567 557 781
f 560 781 557
f 399 445 438
f 782 404 1064
f 443 589 448
f 800 788 657
f 605 783 606
f 480 784 615
f 617 615 393
f 784 393 615
f 393 768 617
f 786 630 787
f 988 786 628
f 625 785 988
f 644 785 625
f 630 786 988
f 790 787 630
f 605 786 788
f 989 605 594
f 790 990 657
f 1053 658 657
f 786 787 788
f 657 788 787
f 783 605 788
f 657 787 790
f 790 630 795
f 1053 990 689
f 789 990 790
f 630 611 795
f 794 990 789
f 794 660 990
f 794 793 660
f 795 991 996
f 793 794 996
f 610 6 1095
f 793 996 791
f 660 793 791
f 790 795 794
f 991 795 611
f 796 795 611
f 789 790 794
f 795 796 611
f 799 988 785
f 798 799 785
f 988 799 798
f 659 801 655
f 655 801 800
f 647 650 803
f 820 807 650
f 807 803 650
f 807 802 649
f 647 804 649
f 807 649 804
f 647 803 804
f 805 808 802
f 649 802 808
f 806 802 807
f 610 612 649
f 805 6 808
f 649 808 6
f 803 807 804
f 806 807 25
f 25 807 1000
f 642 809 820
f 810 642 815
f 810 815 807
f 815 811 816
f 642 811 815
f 816 811 1044
f 819 815 816
f 819 816 814
f 816 1044 814
f 817 814 818
f 814 1000 819
f 1089 25 1000
f 819 807 815
f 1000 807 819
f 810 807 820
f 810 820 809
f 1088 814 1090
f 645 640 651
f 658 655 657
f 673 669 687
f 672 679 669
f 467 637 652
f 637 797 643
f 652 685 467
f 821 893 891
f 693 695 822
f 824 822 873
f 824 693 822
f 821 892 894
f 873 876 824
f 824 826 693
f 677 669 678
f 682 1001 834
f 700 905 837
f 719 830 828
f 1002 720 791
f 834 680 718
f 837 834 718
f 700 837 718
f 1003 718 680
f 1004 836 832
f 839 1003 832
f 837 905 723
f 1004 832 1003
f 1003 839 700
f 718 1003 700
f 839 844 700
f 844 839 838
f 1005 839 832
f 1005 838 839
f 1005 841 840
f 1005 832 841
f 845 841 832
f 905 700 859
f 845 867 841
f 841 1009 1055
f 852 843 850
f 841 842 840
f 851 840 849
f 840 851 1005
f 700 844 859
f 849 842 852
f 1005 844 838
f 1059 12 860
f 863 857 856
f 1005 847 844
f 852 851 849
f 842 849 840
f 867 845 832
f 836 867 832
f 846 835 851
f 842 1054 852
f 851 852 846
f 835 857 851
f 846 852 850
f 854 843 852
f 1097 854 852
f 851 863 1005
f 863 862 855
f 847 1005 863
f 856 857 835
f 1007 844 863
f 844 860 859
f 866 905 859
f 866 859 860
f 844 847 863
f 860 844 1060
f 844 1007 1060
f 1054 842 841
f 841 889 888
f 867 889 841
f 1060 863 855
f 863 856 862
f 836 1004 830
f 867 864 889
f 860 12 866
f 900 866 12
f 836 864 867
f 836 830 864
f 868 830 827
f 877 878 866
f 827 880 870
f 882 868 827
f 720 881 880
f 882 827 870
f 878 877 898
f 830 868 864
f 871 861 882
f 882 870 865
f 865 870 716
f 716 870 886
f 882 865 871
f 900 877 866
f 822 874 873
f 876 875 824
f 893 875 823
f 826 824 875
f 878 899 908
f 720 880 714
f 870 880 886
f 887 881 869
f 886 887 879
f 880 881 886
f 880 827 830
f 720 1002 881
f 881 1002 1091
f 882 864 868
f 883 884 877
f 877 884 874
f 876 884 883
f 875 876 885
f 885 876 883
f 823 875 885
f 874 898 877
f 876 874 884
f 879 716 886
f 882 888 864
f 881 887 886
f 872 715 888
f 864 888 889
f 861 872 882
f 888 882 872
f 877 900 883
f 875 893 826
f 891 893 823
f 693 895 897
f 893 895 826
f 893 821 894
f 826 895 693
f 894 895 893
f 874 822 898
f 873 874 876
f 896 898 707
f 707 898 822
f 1010 896 707
f 896 1010 898
f 897 895 901
f 695 897 902
f 1011 1061 707
f 898 829 878
f 878 829 899
f 899 829 903
f 883 900 890
f 12 890 900
f 897 901 902
f 913 911 725
f 1012 1011 706
f 905 866 907
f 825 1013 904
f 895 894 901
f 1013 901 894
f 902 906 918
f 902 901 906
f 1010 903 829
f 903 1010 1012
f 713 903 706
f 713 905 907
f 723 905 713
f 899 907 908
f 903 713 899
f 1013 894 892
f 901 1013 906
f 825 1015 1013
f 713 907 899
f 908 907 866
f 908 866 878
f 892 904 1013
f 915 910 918
f 1015 915 1013
f 474 911 912
f 1015 825 909
f 917 725 911
f 910 915 1015
f 912 911 910
f 912 910 144
f 912 144 474
f 1014 144 910
f 910 913 918
f 911 913 910
f 471 913 725
f 913 914 918
f 918 919 902
f 1014 910 1015
f 474 917 911
f 917 475 725
f 695 919 471
f 914 913 471
f 919 918 914
f 919 695 902
f 909 916 1015
f 914 471 919
f 471 725 475
f 731 726 729
f 64 729 726
f 726 731 17
f 730 920 71
f 731 921 17
f 350 922 17
f 731 350 921
f 350 17 921
f 17 205 726
f 350 217 922
f 217 17 922
f 192 212 217
f 923 217 212
f 192 221 239
f 93 924 109
f 925 924 75
f 925 75 731
f 488 927 926
f 497 268 929
f 498 929 931
f 497 929 258
f 929 213 174
f 201 929 268
f 929 174 930
f 931 929 928
f 928 929 930
f 928 930 171
f 171 930 174
f 736 171 490
f 928 171 931
f 737 931 171
f 935 742 751
f 933 935 751
f 1022 933 751
f 934 2 1023
f 934 1023 1025
f 522 940 938
f 936 756 758
f 743 758 752
f 756 509 758
f 758 509 752
f 757 758 743
f 574 16 937
f 937 519 518
f 759 937 518
f 522 938 524
f 524 938 945
f 935 1026 940
f 933 1026 935
f 940 522 935
f 940 1024 938
f 942 759 518
f 422 1067 943
f 942 1042 759
f 943 942 518
f 944 938 1031
f 9 1043 1031
f 944 1031 1043
f 944 945 938
f 1043 528 945
f 776 947 952
f 952 947 949
f 952 949 951
f 951 949 965
f 952 950 776
f 955 776 950
f 955 961 776
f 953 952 951
f 957 952 953
f 952 960 950
f 961 534 774
f 953 951 956
f 997 957 948
f 964 956 951
f 957 997 960
f 813 814 997
f 948 958 997
f 956 957 953
f 957 959 948
f 957 960 952
f 957 954 959
f 950 960 997
f 776 961 774
f 651 640 981
f 651 981 645
f 645 981 642
f 812 954 956
f 957 956 954
f 956 969 970
f 968 812 956
f 772 977 966
f 969 965 772
f 772 966 969
f 964 951 965
f 772 965 949
f 966 973 969
f 969 964 965
f 969 956 964
f 534 961 962
f 967 968 956
f 963 967 970
f 956 970 967
f 4 971 976
f 972 973 1046
f 972 980 976
f 969 971 970
f 975 978 1047
f 966 977 975
f 978 975 977
f 976 980 4
f 1047 966 975
f 771 1047 979
f 966 1047 973
f 970 971 963
f 974 979 1047
f 971 969 976
f 534 981 775
f 981 534 642
f 982 777 545
f 983 982 545
f 983 946 550
f 547 1047 1048
f 984 1050 983
f 985 366 986
f 563 985 564
f 985 563 366
f 985 986 367
f 560 20 987
f 448 987 20
f 570 987 448
f 569 987 570
f 559 987 569
f 625 988 628
f 594 786 989
f 594 605 606
f 786 605 989
f 611 610 991
f 1052 792 995
f 610 1095 991
f 6 1052 1095
f 992 995 994
f 994 21 791
f 992 994 791
f 994 993 21
f 993 994 995
f 791 995 992
f 993 995 792
f 795 996 794
f 1095 996 991
f 995 791 996
f 995 996 1095
f 452 626 643
f 643 469 32
f 469 643 467
f 32 452 643
f 33 453 452
f 997 814 999
f 813 818 814
f 997 998 813
f 997 961 950
f 997 958 998
f 997 999 961
f 950 961 955
f 961 999 814
f 834 833 682
f 828 680 834
f 828 834 1001
f 830 1004 828
f 1091 1002 1092
f 21 1002 791
f 680 828 1003
f 828 1004 1003
f 857 863 851
f 852 1054 1097
f 854 1097 853
f 863 1060 1007
f 858 1060 855
f 888 1009 841
f 1058 1008 1057
f 1061 1010 707
f 1011 1010 1061
f 898 1010 829
f 903 1012 706
f 1011 1012 1010
f 1013 915 918
f 906 1013 918
f 1014 1015 916
f 1014 916 29
f 927 488 487
f 735 1019 1017
f 1062 1017 1016
f 1019 927 487
f 926 1020 1018
f 1018 13 926
f 927 1019 926
f 13 146 926
f 1019 1020 926
f 736 931 737
f 1093 1021 749
f 752 1093 751
f 932 1093 752
f 1033 1025 1093
f 1093 932 1021
f 1093 749 1033
f 1033 750 1025
f 934 1025 939
f 1026 1035 1025
f 1030 1025 1040
f 1024 1026 1028
f 1028 1026 1025
f 1028 1025 1030
f 1027 939 1025
f 1040 1024 1028
f 1038 938 1024
f 1026 1024 940
f 1040 1028 1030
f 938 1038 1031
f 1025 933 1036
f 1025 750 1032
f 1039 1025 1023
f 933 1035 1026
f 1025 1035 933
f 1022 1036 933
f 1025 1036 1022
f 1040 1039 1023
f 1037 9 1041
f 1093 1025 1022
f 1024 1040 1031
f 1037 1041 1040
f 1024 1031 1038
f 1025 1039 1040
f 1023 1034 1040
f 1034 1023 2
f 1034 1029 1040
f 1037 1040 1029
f 9 1031 1041
f 1040 1041 1031
f 1043 945 944
f 766 526 1043
f 545 11 983
f 11 946 983
f 814 1044 961
f 961 1044 962
f 962 1044 811
f 547 1045 1047
f 1047 1045 974
f 1047 1046 973
f 771 1046 1047
f 969 973 976
f 973 972 976
f 982 983 777
f 1094 547 1048
f 983 550 984
f 777 983 1048
f 978 1051 1048
f 777 1048 1049
f 1048 1047 978
f 1048 1051 1049
f 452 32 33
f 655 658 659
f 1053 683 658
f 1058 888 1008
f 1097 1054 1056
f 841 1055 1054
f 1056 1055 1009
f 888 715 1008
f 1096 1097 1098
f 848 1006 1097
f 1056 1054 1055
f 1009 888 1058
f 1057 848 1058
f 1056 1058 848
f 1009 1058 1056
f 1098 1097 1006
f 860 1060 1059
f 858 1059 1060
f 1062 1016 29
f 1017 1019 1016
f 1063 1042 1064
f 1063 937 759
f 1063 759 1042
f 1064 937 1063
f 782 1076 1072
f 1064 1076 782
f 937 1064 574
f 404 574 1064
f 1064 1042 1066
f 1042 942 1066
f 1076 1066 1069
f 1064 1066 1076
f 1065 424 1069
f 422 943 530
f 1066 1068 941
f 1066 943 1067
f 1066 942 943
f 1066 941 1065
f 1066 1067 1068
f 1066 1065 1069
f 1071 1070 1072
f 1069 1072 1076
f 1071 1069 424
f 425 1072 1073
f 1069 1071 1072
f 1072 403 782
f 1072 1070 1073
f 1075 1072 425
f 1072 1075 403
f 7 259 1075
f 425 1074 1075
f 1074 7 1075
f 423 1075 259
f 52 53 1077
f 727 73 61
f 64 61 73
f 724 70 1078
f 70 112 94
f 117 151 125
f 146 13 1080
f 177 176 175
f 1079 1080 1081
f 13 1081 1080
f 134 1079 1081
f 214 177 206
f 301 177 214
f 183 177 175
f 301 176 177
f 18 212 192
f 218 216 500
f 236 1082 586
f 1082 1083 586
f 327 1084 291
f 292 291 1084
f 1085 331 347
f 388 574 1086
f 404 1086 574
f 388 1086 339
f 604 614 453
f 616 478 480
f 544 542 405
f 10 583 1087
f 384 1087 585
f 814 1088 1000
f 1088 1089 1000
f 814 817 1090
f 1002 21 1092
f 1091 869 881
f 1050 1048 983
f 1048 1050 1094
f 995 1095 1052
f 848 1097 1056
f 1097 1096 853
f 1098 3 1096

