# https://github.com/mikedh/trimesh
v 0.03800025 -0.02835047 0.00601718
v 0.03800025 -0.02826545 0.00639913
v 0.03800025 -0.02817520 0.00677990
v 0.03800025 -0.02814427 0.00690528
v 0.03800025 -0.02811277 0.00703053
v 0.03800025 -0.02804805 0.00728065
v 0.03800025 -0.02801483 0.00740552
v 0.03800025 -0.02798103 0.00753026
v 0.03800025 -0.02791190 0.00777939
v 0.03800025 -0.02859509 0.00474243
v 0.03800025 -0.02855111 0.00499635
v 0.03800025 -0.02850488 0.00524976
v 0.03800025 -0.02878215 0.00345659
v 0.03800025 -0.02873187 0.00384513
v 0.03800025 -0.02867628 0.00423307
v 0.03800025 -0.02886681 0.00267771
v 0.03800025 -0.02882713 0.00306745
v 0.03800025 -0.02897392 0.00106567
v 0.03800025 -0.02891362 0.00212831
v 0.03800025 -0.02796743 0.00758095
v 0.03800025 -0.02802153 0.00738211
v 0.03800025 -0.02807418 0.00718289
v 0.03800025 -0.02812540 0.00698329
v 0.03800025 -0.02822350 0.00658296
v 0.03800025 -0.02831580 0.00618126
v 0.03800025 -0.02840228 0.00577827
v 0.03800024 -0.02848293 0.00537406
v 0.03800024 -0.02855772 0.00496873
v 0.03800024 -0.02862664 0.00456237
v 0.03800024 -0.02868968 0.00415505
v 0.03800024 -0.02874682 0.00374686
v 0.03800024 -0.02879805 0.00333788
v 0.03800024 -0.02884336 0.00292821
v 0.03800024 -0.02888275 0.00251793
v 0.03800024 -0.02891619 0.00210712
f 20 9 8
f 20 8 21
f 8 7 21
f 21 7 6
f 21 6 22
f 22 6 5
f 22 5 23
f 5 4 23
f 23 4 3
f 23 3 24
f 24 3 2
f 24 2 25
f 25 2 1
f 25 1 26
f 26 1 12
f 26 12 27
f 27 12 28
f 12 11 28
f 28 11 10
f 28 10 29
f 29 10 15
f 29 15 30
f 30 15 14
f 30 14 31
f 31 14 13
f 31 13 32
f 32 13 17
f 32 17 33
f 33 17 16
f 33 16 34
f 34 16 19
f 34 19 35
f 35 19 18

