# https://github.com/mikedh/trimesh
v 0.01804616 -0.02299620 -0.01649355
v 0.01811357 -0.02299640 -0.01649312
v 0.01801246 -0.02299607 -0.01649382
v 0.01784396 -0.02299510 -0.01649573
v 0.01791136 -0.02299555 -0.01649485
v 0.01794506 -0.02299575 -0.01649447
v 0.01770918 -0.02299389 -0.01649797
v 0.01774287 -0.02299423 -0.01649735
v 0.01781027 -0.02299483 -0.01649622
v 0.01754072 -0.02299177 -0.01650176
v 0.01760810 -0.02299270 -0.01650011
v 0.01764179 -0.02299313 -0.01649935
v 0.01730496 -0.02298743 -0.01650904
v 0.01733863 -0.02298815 -0.01650785
v 0.01740599 -0.02298950 -0.01650562
v 0.01743967 -0.02299011 -0.01650458
v 0.01750704 -0.02299125 -0.01650265
v 0.01814727 -0.02299647 -0.01649296
v 0.01821467 -0.02299657 -0.01649273
v 0.01828208 -0.02299659 -0.01649264
v 0.01505019 -0.02279443 -0.01674955
v 0.01582094 -0.02290191 -0.01662500
v 0.01663222 -0.02296352 -0.01654484
v 0.01717029 -0.02298413 -0.01651434
v 0.01379998 -0.02247163 -0.01708413
v 0.01450500 -0.02267973 -0.01687334
v 0.01313217 -0.02220074 -0.01734426
v 0.01258943 -0.02192050 -0.01760243
v 0.01227461 -0.02173144 -0.01777226
v 0.01593272 -0.02303978 -0.01662477
v 0.01529211 -0.02295865 -0.01672151
v 0.01444674 -0.02278780 -0.01690457
v 0.01364852 -0.02254137 -0.01714521
v 0.01291104 -0.02222459 -0.01743584
v 0.01221400 -0.02183788 -0.01778108
v 0.01735209 -0.02311990 -0.01651048
v 0.01827904 -0.02312884 -0.01649260
v 0.01827595 -0.02326299 -0.01649256
v 0.01734117 -0.02325319 -0.01651398
v 0.01640263 -0.02320988 -0.01658317
v 0.01215298 -0.02194550 -0.01778984
v 0.01286111 -0.02233400 -0.01745040
v 0.01360878 -0.02265378 -0.01716721
v 0.01441455 -0.02290496 -0.01692938
v 0.01526591 -0.02308147 -0.01674325
v 0.01591100 -0.02316670 -0.01664123
v 0.01211317 -0.02162510 -0.01786646
v 0.01117599 -0.02078090 -0.01856909
v 0.01159663 -0.02121751 -0.01821466
v 0.01082631 -0.02030370 -0.01894847
v 0.01077302 -0.02021772 -0.01901677
v 0.01065311 -0.02000697 -0.01918446
v 0.01052662 -0.01975213 -0.01938848
v 0.01035350 -0.01932387 -0.01973466
v 0.01030856 -0.01919064 -0.01984306
v 0.01013620 -0.01851822 -0.02039156
v 0.01003048 -0.01775249 -0.02101042
v 0.00999962 -0.01699954 -0.02161614
v 0.01158486 -0.02120678 0.01822252
v 0.01206549 -0.02159200 0.01789363
v 0.01212606 -0.02163399 0.01785702
v 0.01107996 -0.02066258 0.01867775
v 0.01116336 -0.02076579 0.01859141
v 0.01097307 -0.02052040 0.01879676
v 0.01081482 -0.02028547 0.01899111
v 0.01069947 -0.02009149 0.01915021
v 0.01059601 -0.01989662 0.01930957
v 0.01050060 -0.01969448 0.01947484
v 0.01041396 -0.01948663 0.01964476
v 0.01032445 -0.01923898 0.01984725
v 0.01026049 -0.01903350 0.02001509
v 0.01011028 -0.01837745 0.02054575
v 0.01001625 -0.01755714 0.02118873
v 0.00999962 -0.01699954 0.02161614
v 0.01259337 -0.02191865 0.01760321
v 0.01277309 -0.02201246 0.01751717
v 0.01324511 -0.02222600 0.01731611
v 0.01400613 -0.02249121 0.01705419
v 0.01488859 -0.02270791 0.01682698
v 0.01589493 -0.02286807 0.01664892
v 0.01663526 -0.02294037 0.01656396
v 0.01734731 -0.02298026 0.01651451
v 0.01826550 -0.02299657 0.01649266
v 0.00149744 -0.02785588 0.00619522
v 0.00149655 -0.02761026 0.00720170
v 0.00179019 -0.02801327 0.00741284
v 0.00150017 -0.02445169 0.01468858
v 0.00150020 -0.02367771 0.01590000
v 0.00177625 -0.02414666 0.01590000
v 0.00177927 -0.02521804 0.01417677
v 0.00150000 -0.02485228 0.01400227
v 0.00177773 -0.02468745 0.01506438
v 0.00177695 -0.02440430 0.01550987
v 0.00178173 -0.02599634 0.01272360
v 0.00149903 -0.02588273 0.01199614
v 0.00149977 -0.02520469 0.01335908
v 0.00178277 -0.02630027 0.01209527
v 0.00178283 -0.02631975 0.01205363
v 0.00149800 -0.02646709 0.01064940
v 0.00178418 -0.02668932 0.01122787
v 0.00149663 -0.02699739 0.00922764
v 0.00178909 -0.02781033 0.00812885
v 0.00149612 -0.02748014 0.00767875
v 0.00149574 -0.02727175 0.00838366
v 0.00178780 -0.02755037 0.00895616
v 0.00178663 -0.02729466 0.00969457
v 0.00157850 -0.02866122 -0.00000000
v 0.00150020 -0.02854422 0.00000000
v 0.00149997 -0.02849398 0.00168346
v 0.00165077 -0.02876921 0.00000000
v 0.00179154 -0.02823462 0.00653592
v 0.00179283 -0.02842017 0.00569116
v 0.00149861 -0.02816405 0.00461644
v 0.00179399 -0.02856611 0.00492113
v 0.00149941 -0.02836308 0.00319217
v 0.00179644 -0.02880367 0.00328987
v 0.00149975 -0.02844521 0.00236238
v 0.00179770 -0.02888885 0.00244818
v 0.00179890 -0.02894653 0.00164761
v 0.00180135 -0.02899419 0.00000000
v 0.01000003 -0.01645332 0.02203494
v 0.01000020 -0.01615461 0.02225486
v 0.00836223 -0.01010378 0.02668460
v 0.00149684 -0.01073127 0.02644903
v 0.00150011 -0.00930893 0.02696155
v 0.00836423 -0.00978737 0.02679768
v 0.00150020 -0.00789559 0.02739491
v 0.00837219 -0.00824188 0.02729546
v 0.00150021 -0.00633471 0.02778858
v 0.00837741 -0.00668017 0.02770894
v 0.00150022 -0.00465456 0.02811511
v 0.00838019 -0.00510461 0.02803740
v 0.00838078 -0.00430407 0.02817065
v 0.00150022 -0.00320820 0.02831653
v 0.00838084 -0.00351730 0.02827965
v 0.00838070 -0.00311084 0.02832744
v 0.00150021 -0.00297301 0.02834234
v 0.00837952 -0.00155194 0.02845682
v 0.00150020 -0.00129877 0.02846973
v 0.00150020 -0.00000000 0.02849997
v 0.00837877 -0.00000000 0.02849997
v 0.00835069 -0.01162466 0.02608615
v 0.00833981 -0.01275347 0.02558095
v 0.00149504 -0.01227481 0.02580197
v 0.00833594 -0.01311041 0.02540989
v 0.00149594 -0.01359376 0.02516946
v 0.00833334 -0.01334141 0.02529617
v 0.00149768 -0.01490894 0.02445903
v 0.00831620 -0.01474732 0.02455065
v 0.00829733 -0.01610227 0.02373794
v 0.00149937 -0.01619244 0.02368052
v 0.00829215 -0.01659491 0.02341718
v 0.00150020 -0.01752374 0.02277237
v 0.00830024 -0.01718866 0.02301744
v 0.00158987 -0.01819015 0.02227442
v 0.00837044 -0.01800035 0.02243126
v 0.00165892 -0.01884184 0.02175623
v 0.00851156 -0.01876155 0.02183681
v 0.00167917 -0.01907683 0.02156112
v 0.00173792 -0.02009167 0.02066374
v 0.00871839 -0.01944717 0.02125849
v 0.00898648 -0.02005821 0.02070319
v 0.00175103 -0.02072867 0.02005105
v 0.00929586 -0.02058285 0.02019722
v 0.00176087 -0.02174135 0.01898765
v 0.00952712 -0.02090392 0.01987593
v 0.00970495 -0.02112103 0.01965332
v 0.00176840 -0.02271111 0.01785008
v 0.01015120 -0.02157704 0.01916707
v 0.01060744 -0.02194690 0.01875174
v 0.01074917 -0.02204642 0.01863626
v 0.01120046 -0.02232637 0.01830452
v 0.00177119 -0.02329942 0.01709301
v 0.01165339 -0.02256620 0.01801693
v 0.01231967 -0.02285726 0.01765958
v 0.01301004 -0.02309755 0.01735653
v 0.01375593 -0.02329942 0.01709301
v 0.00150020 -0.02299974 0.01686126
v 0.00150084 -0.02203542 0.01809507
v 0.00150072 -0.02148740 0.01873779
v 0.00150041 -0.02100325 0.01927431
v 0.00150086 -0.01953042 0.02077932
v 0.00937876 -0.00000000 0.02750000
v 0.00938176 -0.00140955 0.02746085
v 0.00938103 -0.00293948 0.02734073
v 0.00937959 -0.00431333 0.02715964
v 0.00937960 -0.00444719 0.02713804
v 0.00937912 -0.00595169 0.02684822
v 0.00937790 -0.00701082 0.02659132
v 0.00937439 -0.00848448 0.02615847
v 0.00937143 -0.00926857 0.02589102
v 0.00936826 -0.00992866 0.02564511
v 0.00936382 -0.01069207 0.02533632
v 0.00935959 -0.01131308 0.02506519
v 0.00934815 -0.01269661 0.02439359
v 0.00934461 -0.01308211 0.02418884
v 0.00930613 -0.01637565 0.02209272
v 0.00932110 -0.01535602 0.02280961
v 0.00933606 -0.01403505 0.02364677
v 0.00150019 -0.02334322 0.01638380
v 0.00930517 -0.01645491 0.02203374
v 0.01000020 -0.01572110 0.02256011
v 0.01000020 -0.01440678 0.02342138
v 0.01000020 -0.01307449 0.02419297
v 0.01000020 -0.01170422 0.02488497
v 0.01000020 -0.01134461 0.02505094
v 0.01000020 -0.00993016 0.02564453
v 0.01000020 -0.00926837 0.02589109
v 0.01000020 -0.00848549 0.02615814
v 0.01000020 -0.00701081 0.02659132
v 0.01000020 -0.00595189 0.02684818
v 0.01000020 -0.00444729 0.02713802
v 0.01000012 -0.00000000 0.02750001
v 0.01000020 -0.00140955 0.02746087
v 0.01000020 -0.00293952 0.02734073
v 0.05445313 -0.02299663 -0.00114674
v 0.05444407 -0.02373737 -0.00127012
v 0.05449305 -0.02299663 0.00000000
v 0.05449305 -0.02373770 0.00000000
v 0.05406768 -0.02373724 -0.00372156
v 0.05409070 -0.02373721 -0.00362072
v 0.05406768 -0.02299663 -0.00372156
v 0.05431009 -0.02373712 -0.00244978
v 0.05442225 -0.02373729 -0.00152654
v 0.05328184 -0.02299663 -0.00620363
v 0.05353775 -0.02373768 -0.00553157
v 0.05389489 -0.02373741 -0.00440144
v 0.05211519 -0.02299663 -0.00853112
v 0.05258319 -0.02373612 -0.00770387
v 0.05281366 -0.02373665 -0.00725083
v 0.05310047 -0.02373735 -0.00663290
v 0.05328184 -0.02373766 -0.00620363
v 0.05059681 -0.02299663 -0.01064601
v 0.05061022 -0.02373685 -0.01063013
v 0.05083094 -0.02373648 -0.01036265
v 0.05154200 -0.02373551 -0.00941447
v 0.05180168 -0.02373537 -0.00902951
v 0.05198523 -0.02373538 -0.00874254
v 0.05211519 -0.02373545 -0.00853112
v 0.04876455 -0.02299663 -0.01249561
v 0.04876455 -0.02373689 -0.01249561
v 0.04921116 -0.02373744 -0.01209653
v 0.05005377 -0.02373759 -0.01125715
v 0.04586015 -0.02373620 -0.01449936
v 0.04667756 -0.02373554 -0.01402548
v 0.04666404 -0.02299663 -0.01403383
v 0.04766238 -0.02373566 -0.01336612
v 0.04830312 -0.02373629 -0.01287871
v 0.04395881 -0.02373779 -0.01537870
v 0.04434764 -0.02373774 -0.01522234
v 0.04434764 -0.02299663 -0.01522234
v 0.04457518 -0.02373760 -0.01512545
v 0.04564812 -0.02373644 -0.01461231
v 0.04187308 -0.02373682 -0.01603151
v 0.04212490 -0.02373693 -0.01596858
v 0.04187308 -0.02299663 -0.01603151
v 0.04269356 -0.02373724 -0.01581080
v 0.04345942 -0.02373764 -0.01556298
v 0.03930200 -0.02299663 -0.01644119
v 0.04003609 -0.02373683 -0.01636652
v 0.04038028 -0.02373670 -0.01632003
v 0.04154596 -0.02373670 -0.01610702
v 0.03919795 -0.02373731 -0.01644910
v 0.03800025 -0.02299663 -0.01649268
v 0.03800025 -0.02373761 -0.01649258
v 0.03800025 -0.02373761 0.01649258
v 0.03800025 -0.02299663 0.01649268
v 0.03927039 -0.02373727 0.01644367
v 0.03930200 -0.02299663 0.01644119
v 0.04003609 -0.02373683 0.01636652
v 0.04212490 -0.02373693 0.01596858
v 0.04187308 -0.02373682 0.01603151
v 0.04187308 -0.02299663 0.01603151
v 0.04162098 -0.02373672 0.01609032
v 0.04045004 -0.02373669 0.01630970
v 0.04434764 -0.02373774 0.01522234
v 0.04395881 -0.02373779 0.01537870
v 0.04434764 -0.02299663 0.01522234
v 0.04353184 -0.02373767 0.01553738
v 0.04240170 -0.02373708 0.01589452
v 0.04666404 -0.02299663 0.01403383
v 0.04570413 -0.02373637 0.01458285
v 0.04463316 -0.02373756 0.01510012
v 0.04760746 -0.02373563 0.01340565
v 0.04741475 -0.02373553 0.01354168
v 0.04836293 -0.02373636 0.01283063
v 0.04876455 -0.02299663 0.01249561
v 0.04876455 -0.02373689 0.01249561
v 0.04674280 -0.02373552 0.01398490
v 0.04666404 -0.02373555 0.01403383
v 0.05087902 -0.02373640 0.01030283
v 0.05061021 -0.02373685 0.01063013
v 0.05059681 -0.02299663 0.01064601
v 0.05009683 -0.02373755 0.01121087
v 0.04925745 -0.02373749 0.01205347
v 0.05211519 -0.02373545 0.00853112
v 0.05202581 -0.02373540 0.00867728
v 0.05211519 -0.02299663 0.00853112
v 0.05180168 -0.02373537 0.00902951
v 0.05136644 -0.02373568 0.00966210
v 0.05328184 -0.02373766 0.00620363
v 0.05312581 -0.02373741 0.00657491
v 0.05328184 -0.02299663 0.00620363
v 0.05281366 -0.02373665 0.00725083
v 0.05261265 -0.02373618 0.00764785
v 0.05406768 -0.02299663 0.00372156
v 0.05406768 -0.02373724 0.00372156
v 0.05381116 -0.02373750 0.00469332
v 0.05356334 -0.02373767 0.00545916
v 0.05442225 -0.02373729 0.00152654
v 0.05432042 -0.02373713 0.00238004
v 0.05445313 -0.02299663 0.00114674
v 0.05410740 -0.02373720 0.00354572
v 0.05444951 -0.02373739 0.00119770
v 0.04655110 -0.02491602 0.01193166
v 0.04800236 -0.02491602 0.01074748
v 0.05188163 -0.02491602 0.00478185
v 0.05235006 -0.02491602 0.00310237
v 0.05261869 -0.02491602 0.00135890
v 0.05303499 -0.02470036 0.00000000
v 0.05001388 -0.02633639 -0.00000000
v 0.04851339 -0.02698321 -0.00000000
v 0.04869029 -0.02689329 0.00099371
v 0.04538219 -0.02802114 -0.00000001
v 0.04451733 -0.02823807 -0.00000001
v 0.04448913 -0.02823807 0.00060318
v 0.03889579 -0.02897987 -0.00000000
v 0.03800023 -0.02899419 -0.00000000
v 0.04016253 -0.02891031 0.00020099
v 0.03800025 -0.02509632 0.01437854
v 0.03981242 -0.02491602 0.01456849
v 0.03800025 -0.02548163 0.01370051
v 0.03957395 -0.02598103 0.01265141
v 0.03800025 -0.02566633 0.01335944
v 0.03800025 -0.02584613 0.01301595
v 0.03932543 -0.02689329 0.01065352
v 0.03800025 -0.02682437 0.01090417
v 0.03800025 -0.02667307 0.01126203
v 0.03800025 -0.02651704 0.01161755
v 0.03800025 -0.02643727 0.01179444
v 0.03800025 -0.02635632 0.01197075
v 0.03800025 -0.02619090 0.01232164
v 0.03800025 -0.02602092 0.01266998
v 0.03906822 -0.02764892 0.00858583
v 0.03800025 -0.02737928 0.00945656
v 0.03800025 -0.02731409 0.00963957
v 0.03800025 -0.02724770 0.00982199
v 0.03800025 -0.02711134 0.01018506
v 0.03800025 -0.02697022 0.01054578
v 0.03800025 -0.02835047 0.00601718
v 0.03800025 -0.02826545 0.00639913
v 0.03880462 -0.02823807 0.00646672
v 0.03800025 -0.02817520 0.00677990
v 0.03800025 -0.02814427 0.00690528
v 0.03800025 -0.02811277 0.00703053
v 0.03800025 -0.02804805 0.00728065
v 0.03800025 -0.02801483 0.00740552
v 0.03800025 -0.02798103 0.00753026
v 0.03800025 -0.02791190 0.00777939
v 0.03800025 -0.02767547 0.00856899
v 0.03800025 -0.02859509 0.00474243
v 0.03800025 -0.02855111 0.00499635
v 0.03853718 -0.02865840 0.00431679
v 0.03800025 -0.02850488 0.00524976
v 0.03800025 -0.02878215 0.00345659
v 0.03800025 -0.02873187 0.00384513
v 0.03800025 -0.02867628 0.00423307
v 0.03826827 -0.02891031 0.00215492
v 0.03800025 -0.02886681 0.00267771
v 0.03800025 -0.02882713 0.00306745
v 0.03800025 -0.02899417 0.00003332
v 0.03800025 -0.02899411 0.00006663
v 0.03800025 -0.02899387 0.00013327
v 0.03800025 -0.02899292 0.00026654
v 0.03800025 -0.02898911 0.00053302
v 0.03800025 -0.02897392 0.00106567
v 0.03800025 -0.02891362 0.00212831
v 0.04217438 -0.02868507 -0.00000001
v 0.04053780 -0.02887976 -0.00000001
v 0.04017193 -0.02891031 -0.00000001
v 0.04695649 -0.02755027 -0.00000000
v 0.05069505 -0.02598103 0.00118007
v 0.05151343 -0.02558381 0.00000000
v 0.05075023 -0.02598103 -0.00000000
v 0.05118604 -0.02491602 0.00645415
v 0.05028389 -0.02491602 0.00803649
v 0.04922489 -0.02491602 0.00946230
v 0.04499628 -0.02491602 0.01290574
v 0.04330463 -0.02491602 0.01369032
v 0.04167178 -0.02491602 0.01421439
v 0.03800025 -0.02489669 0.01471410
v 0.03800025 -0.02469251 0.01504743
v 0.03800025 -0.02382904 0.01636259
v 0.05046176 -0.02598103 0.00269412
v 0.04849385 -0.02689329 0.00226867
v 0.04005351 -0.02891031 0.00070731
v 0.04012280 -0.02891031 0.00045888
v 0.04225222 -0.02865840 0.00091925
v 0.04233182 -0.02865840 0.00040264
v 0.04379283 -0.02839791 -0.00000001
v 0.05005497 -0.02598103 0.00415260
v 0.04815130 -0.02689329 0.00349683
v 0.04618112 -0.02764892 0.00281814
v 0.03995062 -0.02891031 0.00095467
v 0.04211342 -0.02865840 0.00141690
v 0.04436988 -0.02823807 0.00137708
v 0.04661551 -0.02764892 0.00080084
v 0.04945092 -0.02598103 0.00560484
v 0.04764264 -0.02689329 0.00471973
v 0.04577119 -0.02764892 0.00380370
v 0.04385320 -0.02823807 0.00286489
v 0.03981718 -0.02891031 0.00118872
v 0.04190731 -0.02865840 0.00191242
v 0.04416196 -0.02823807 0.00212258
v 0.04645719 -0.02764892 0.00182835
v 0.04866748 -0.02598103 0.00697897
v 0.04698292 -0.02689329 0.00587686
v 0.04523950 -0.02764892 0.00473625
v 0.04345274 -0.02823807 0.00356727
v 0.04163999 -0.02865840 0.00238129
v 0.04774783 -0.02598103 0.00821716
v 0.04620850 -0.02689329 0.00691951
v 0.04461539 -0.02764892 0.00557654
v 0.04298267 -0.02823807 0.00420017
v 0.04132620 -0.02865840 0.00280377
v 0.03966053 -0.02891031 0.00139963
v 0.03947970 -0.02891031 0.00158972
v 0.04096395 -0.02865840 0.00318458
v 0.04244001 -0.02823807 0.00477063
v 0.04389491 -0.02764892 0.00633394
v 0.04531451 -0.02689329 0.00785933
v 0.04668618 -0.02598103 0.00933322
v 0.04542589 -0.02598103 0.01036157
v 0.04425323 -0.02689329 0.00872528
v 0.04303962 -0.02764892 0.00703183
v 0.04179582 -0.02823807 0.00529627
v 0.04053393 -0.02865840 0.00353547
v 0.03926503 -0.02891031 0.00176488
v 0.04407565 -0.02598103 0.01120747
v 0.04311623 -0.02689329 0.00943760
v 0.04212328 -0.02764892 0.00760590
v 0.04110565 -0.02823807 0.00572865
v 0.04007321 -0.02865840 0.00382410
v 0.03903505 -0.02891031 0.00190897
v 0.04260662 -0.02598103 0.01188880
v 0.04187918 -0.02689329 0.01001134
v 0.04112633 -0.02764892 0.00806828
v 0.04035475 -0.02823807 0.00607691
v 0.03957196 -0.02865840 0.00405658
v 0.03878482 -0.02891031 0.00202502
v 0.04118865 -0.02598103 0.01234391
v 0.04068513 -0.02689329 0.01039458
v 0.04016403 -0.02764892 0.00837714
v 0.03962996 -0.02823807 0.00630954
v 0.03908813 -0.02865840 0.00421186
v 0.03854330 -0.02891031 0.00210254
v 0.03854330 -0.02891031 -0.00210254
v 0.03878482 -0.02891031 -0.00202502
v 0.03826827 -0.02891031 -0.00215492
v 0.03880462 -0.02823807 -0.00646672
v 0.03853718 -0.02865840 -0.00431679
v 0.03908813 -0.02865840 -0.00421186
v 0.05261869 -0.02491602 -0.00135890
v 0.05188163 -0.02491602 -0.00478185
v 0.05118604 -0.02491602 -0.00645415
v 0.03981242 -0.02491602 -0.01456849
v 0.03800025 -0.02652415 -0.01160564
v 0.03800024 -0.02715161 -0.01008126
v 0.03932543 -0.02689329 -0.01065352
v 0.03800024 -0.02889625 -0.00236076
v 0.03800024 -0.02891971 -0.00205903
v 0.03800024 -0.02899121 -0.00041212
v 0.03800024 -0.02875312 -0.00369906
v 0.03800024 -0.02849198 -0.00532670
v 0.03800024 -0.02841321 -0.00572524
v 0.03800024 -0.02768988 -0.00852315
v 0.03800024 -0.02813717 -0.00693653
v 0.03800024 -0.02823900 -0.00651733
v 0.03800025 -0.02580961 -0.01309119
v 0.03800025 -0.02598273 -0.01275084
v 0.03957395 -0.02598103 -0.01265141
v 0.03800025 -0.02626832 -0.01216321
v 0.03800025 -0.02501037 -0.01453294
v 0.03800025 -0.02412911 -0.01592608
v 0.03800025 -0.02382904 -0.01636259
v 0.04167178 -0.02491602 -0.01421439
v 0.04330463 -0.02491602 -0.01369032
v 0.04499628 -0.02491602 -0.01290574
v 0.04655110 -0.02491602 -0.01193166
v 0.04800236 -0.02491602 -0.01074748
v 0.04922489 -0.02491602 -0.00946230
v 0.05028389 -0.02491602 -0.00803649
v 0.05235006 -0.02491602 -0.00310237
v 0.05069505 -0.02598103 -0.00118007
v 0.04869029 -0.02689329 -0.00099371
v 0.04661551 -0.02764892 -0.00080084
v 0.04448913 -0.02823807 -0.00060318
v 0.04016253 -0.02891031 -0.00020100
v 0.04233182 -0.02865840 -0.00040264
v 0.05046176 -0.02598103 -0.00269412
v 0.04849385 -0.02689329 -0.00226867
v 0.04645719 -0.02764892 -0.00182835
v 0.04436988 -0.02823807 -0.00137708
v 0.04225222 -0.02865840 -0.00091925
v 0.04012280 -0.02891031 -0.00045889
v 0.05005497 -0.02598103 -0.00415260
v 0.04815130 -0.02689329 -0.00349683
v 0.04618112 -0.02764892 -0.00281814
v 0.04416196 -0.02823807 -0.00212258
v 0.04211342 -0.02865840 -0.00141690
v 0.04005351 -0.02891031 -0.00070731
v 0.04945092 -0.02598103 -0.00560484
v 0.04764264 -0.02689329 -0.00471973
v 0.04866748 -0.02598103 -0.00697897
v 0.04577119 -0.02764892 -0.00380370
v 0.04698292 -0.02689329 -0.00587686
v 0.04774783 -0.02598103 -0.00821716
v 0.04385320 -0.02823807 -0.00286489
v 0.04523950 -0.02764892 -0.00473625
v 0.04620850 -0.02689329 -0.00691951
v 0.04668618 -0.02598103 -0.00933322
v 0.04190731 -0.02865840 -0.00191242
v 0.04345274 -0.02823807 -0.00356727
v 0.04461539 -0.02764892 -0.00557654
v 0.04531451 -0.02689329 -0.00785933
v 0.04542589 -0.02598103 -0.01036157
v 0.03995062 -0.02891031 -0.00095467
v 0.04163999 -0.02865840 -0.00238129
v 0.04298267 -0.02823807 -0.00420017
v 0.04389491 -0.02764892 -0.00633394
v 0.04425323 -0.02689329 -0.00872528
v 0.04407565 -0.02598103 -0.01120747
v 0.03981718 -0.02891031 -0.00118873
v 0.04132620 -0.02865840 -0.00280377
v 0.04244001 -0.02823807 -0.00477063
v 0.04303962 -0.02764892 -0.00703183
v 0.04311623 -0.02689329 -0.00943760
v 0.04260662 -0.02598103 -0.01188880
v 0.03800024 -0.02753306 -0.00900829
v 0.03906822 -0.02764892 -0.00858583
v 0.04016403 -0.02764892 -0.00837714
v 0.03962996 -0.02823807 -0.00630954
v 0.04035475 -0.02823807 -0.00607691
v 0.03957196 -0.02865840 -0.00405658
v 0.04007321 -0.02865840 -0.00382410
v 0.03903505 -0.02891031 -0.00190897
v 0.03926503 -0.02891031 -0.00176489
v 0.04118865 -0.02598103 -0.01234391
v 0.04187918 -0.02689329 -0.01001134
v 0.04212328 -0.02764892 -0.00760590
v 0.04179582 -0.02823807 -0.00529627
v 0.04096395 -0.02865840 -0.00318458
v 0.03966053 -0.02891031 -0.00139963
v 0.04068513 -0.02689329 -0.01039458
v 0.04112633 -0.02764892 -0.00806828
v 0.04110565 -0.02823807 -0.00572865
v 0.04053393 -0.02865840 -0.00353547
v 0.03947970 -0.02891031 -0.00158973
v 0.03800025 -0.02796743 0.00758095
v 0.03800025 -0.02802153 0.00738211
v 0.03800025 -0.02807418 0.00718289
v 0.03800025 -0.02812540 0.00698329
v 0.03800025 -0.02822350 0.00658296
v 0.03800025 -0.02831580 0.00618126
v 0.03800025 -0.02840228 0.00577827
v 0.03800024 -0.02848293 0.00537406
v 0.03800024 -0.02855772 0.00496873
v 0.03800024 -0.02862664 0.00456237
v 0.03800024 -0.02868968 0.00415505
v 0.03800024 -0.02874682 0.00374686
v 0.03800024 -0.02879805 0.00333788
v 0.03800024 -0.02884336 0.00292821
v 0.03800024 -0.02888275 0.00251793
v 0.03800024 -0.02891619 0.00210712
v 0.03800025 -0.02468745 0.01506438
v 0.03800025 -0.02512304 0.01434117
v 0.03800025 -0.02697262 0.01054240
v 0.03800025 -0.02712603 0.01014864
v 0.03800025 -0.02727348 0.00975292
v 0.03800025 -0.02734496 0.00955437
v 0.03800025 -0.02741494 0.00935538
v 0.03800025 -0.02755037 0.00895616
v 0.03800025 -0.02647708 0.01171065
v 0.03800025 -0.02664810 0.01132354
v 0.03800025 -0.02681330 0.01093408
v 0.03800025 -0.02553743 0.01360461
v 0.03800025 -0.02573649 0.01323162
v 0.03800025 -0.02593002 0.01285566
v 0.03800025 -0.02611797 0.01247683
v 0.03800025 -0.02630027 0.01209527
v 0.01466962 -0.02347819 0.01685186
v 0.01565599 -0.02360990 0.01667074
v 0.01629492 -0.02366754 0.01659052
v 0.01673540 -0.02369636 0.01655018
v 0.01791711 -0.02373544 0.01649527
v 0.01824864 -0.02373744 0.01649245
v 0.01826487 -0.02373744 0.01649245
v 0.01826539 -0.02312526 0.01649262
v 0.01826527 -0.02325392 0.01649258
v 0.01826504 -0.02373745 -0.01649244
v 0.00150000 -0.00146378 0.02245236
v 0.00150000 -0.00000000 0.02250000
v 0.00150000 -0.02169317 0.00597130
v 0.00150000 -0.02125861 0.00737037
v 0.00150000 -0.02243962 0.00164737
v 0.00150000 -0.02228486 0.00310416
v 0.00150000 -0.02246357 -0.00128010
v 0.00150020 -0.02844274 -0.00235946
v 0.00150000 -0.02233264 -0.00273922
v 0.00150020 -0.02834497 -0.00332637
v 0.00150000 -0.02210716 -0.00418614
v 0.00150020 -0.02810445 -0.00495048
v 0.00150000 -0.02178795 -0.00561568
v 0.00150000 -0.02249925 0.00018419
v 0.00150020 -0.02849199 -0.00167445
v 0.00150000 -0.02203566 0.00454752
v 0.00150000 -0.02012170 0.01006814
v 0.00150000 -0.01942386 0.01135626
v 0.00150000 -0.01778496 0.01378207
v 0.00150000 -0.01685037 0.01491025
v 0.00150020 -0.02777104 -0.00654972
v 0.00150020 -0.02734474 -0.00812694
v 0.00150000 -0.02137632 -0.00702163
v 0.00150000 -0.02073401 0.00873790
v 0.00150000 -0.01864382 0.01259596
v 0.00150000 -0.02028370 -0.00973768
v 0.00150020 -0.02505508 -0.01361432
v 0.00150000 -0.01960701 -0.01103699
v 0.00150020 -0.02472335 -0.01420783
v 0.00150000 -0.01884754 -0.01228904
v 0.00150020 -0.02385533 -0.01562301
v 0.00150000 -0.01800801 -0.01348934
v 0.00150020 -0.02700263 -0.00918522
v 0.00150020 -0.02682368 -0.00968997
v 0.00150000 -0.02087429 -0.00839727
v 0.00150020 -0.02620983 -0.01123610
v 0.00150020 -0.02550789 -0.01274639
v 0.00150000 -0.01119690 0.01951614
v 0.00150000 -0.01244272 0.01874643
v 0.00150000 -0.01363604 0.01789718
v 0.00150000 -0.01477183 0.01697184
v 0.00150000 -0.01584457 0.01597497
v 0.00150000 -0.00292170 0.02230951
v 0.00150020 -0.00488132 -0.02807986
v 0.00150000 -0.00328615 -0.02225875
v 0.00150020 -0.00508477 -0.02804396
v 0.00150000 -0.00472753 -0.02199775
v 0.00150020 -0.02299936 -0.01686209
v 0.00150020 -0.02203640 -0.01808630
v 0.00150000 -0.01709202 -0.01463260
v 0.00150020 -0.02147406 -0.01874033
v 0.00150000 -0.01610399 -0.01571343
v 0.00150020 -0.02092523 -0.01934544
v 0.00150000 -0.01504745 -0.01672797
v 0.00150020 -0.01984729 -0.02045564
v 0.00150000 -0.01392699 -0.01767170
v 0.00150020 -0.01752374 -0.02277237
v 0.00150000 -0.01274797 -0.01854022
v 0.00150020 -0.01613937 -0.02371641
v 0.00150000 -0.01151460 -0.01933041
v 0.00150020 -0.01470275 -0.02458061
v 0.00150000 -0.01023230 -0.02003872
v 0.00150020 -0.01321344 -0.02536522
v 0.00150000 -0.00890712 -0.02066189
v 0.00150020 -0.01166887 -0.02607123
v 0.00150000 -0.00754383 -0.02119767
v 0.00150000 -0.00436675 0.02207219
v 0.00150000 -0.00579354 0.02174134
v 0.00150000 -0.00719612 0.02131821
v 0.00150000 -0.00856766 0.02080493
v 0.00150000 -0.00990311 0.02020345
v 0.00150020 0.00000000 -0.02849997
v 0.00150000 -0.00000000 -0.02250000
v 0.00150020 -0.00022580 -0.02849909
v 0.00150000 -0.00036820 -0.02249699
v 0.00150020 -0.00178643 -0.02844400
v 0.00150000 -0.00183085 -0.02242539
v 0.00150020 -0.00320838 -0.02831896
v 0.00150020 -0.00343442 -0.02829248
v 0.00150000 -0.00614845 -0.02164363
v 0.00150020 -0.00674013 -0.02769666
v 0.00150020 -0.00653926 -0.02774406
v 0.00150020 -0.01006616 -0.02669912
v 0.00150020 -0.00840835 -0.02724658
v 0.00150020 -0.00817703 -0.02731502
v 0.00177125 -0.02330141 -0.01709033
v 0.00177657 -0.02425893 -0.01573171
v 0.00177860 -0.02463699 -0.01514513
v 0.00178134 -0.02515803 -0.01428091
v 0.00178698 -0.02626832 -0.01216321
v 0.00178548 -0.02596726 -0.01278172
v 0.00179247 -0.02738909 -0.00942943
v 0.00179207 -0.02730659 -0.00966151
v 0.00178904 -0.02668405 -0.01124014
v 0.00179602 -0.02811594 -0.00702061
v 0.00179463 -0.02783329 -0.00805129
v 0.00179317 -0.02753306 -0.00900829
v 0.00179751 -0.02841321 -0.00572524
v 0.00179675 -0.02826283 -0.00641503
v 0.00180078 -0.02895946 -0.00140649
v 0.00180021 -0.02888908 -0.00244548
v 0.00179980 -0.02882652 -0.00308693
v 0.00179846 -0.02859415 -0.00475835
v 0.01701086 -0.02370999 -0.01653106
v 0.01629487 -0.02366715 -0.01659106
v 0.01584579 -0.02362864 -0.01664472
v 0.01390658 -0.02333315 -0.01704791
v 0.01375624 -0.02329949 -0.01709291
v 0.01479115 -0.02349710 -0.01682604
v 0.01000010 0.00000000 -0.02750001
v 0.01000019 -0.00239981 -0.02739258
v 0.01000020 -0.00487720 -0.02706407
v 0.01000020 -0.00694812 -0.02660777
v 0.01000020 -0.00926839 -0.02589109
v 0.01000020 -0.01615461 -0.02225486
v 0.01000019 -0.01574084 -0.02254639
v 0.01000020 -0.01373062 -0.02382552
v 0.01000020 -0.01308197 -0.02418892
v 0.01000020 -0.01089665 -0.02524901
v 0.00937876 0.00000000 -0.02750000
v 0.00937761 -0.00167708 -0.02744577
v 0.00937915 -0.00431329 -0.02715964
v 0.00937873 -0.00335777 -0.02729322
v 0.00937800 -0.00239988 -0.02739256
v 0.00937910 -0.00497413 -0.02704642
v 0.00937806 -0.00653344 -0.02671261
v 0.00937505 -0.00809448 -0.02628176
v 0.00936339 -0.01069200 -0.02533635
v 0.00936930 -0.00962744 -0.02575972
v 0.00937094 -0.00926858 -0.02589102
v 0.00931763 -0.01535643 -0.02280934
v 0.00933397 -0.01400686 -0.02366355
v 0.00934887 -0.01258681 -0.02445042
v 0.00936052 -0.01112574 -0.02514891
v 0.00930543 -0.01645493 -0.02203372
v 0.01000003 -0.01645323 -0.02203482
v 0.00930613 -0.01637488 -0.02209329
v 0.00837877 0.00000000 -0.02849997
v 0.00837529 -0.00171091 -0.02845198
v 0.00837383 -0.00320873 -0.02832341
v 0.00837373 -0.00338821 -0.02830257
v 0.00837347 -0.00430405 -0.02817804
v 0.00837338 -0.00501738 -0.02806002
v 0.00837290 -0.00647842 -0.02776107
v 0.00837280 -0.00664781 -0.02772142
v 0.00837079 -0.00828250 -0.02728481
v 0.00836672 -0.00938638 -0.02693531
v 0.00835656 -0.01088206 -0.02639007
v 0.00834301 -0.01234305 -0.02577202
v 0.00833860 -0.01275355 -0.02558236
v 0.00832604 -0.01382832 -0.02505057
v 0.00831128 -0.01503642 -0.02438682
v 0.00829390 -0.01646216 -0.02350369
v 0.00829169 -0.01658951 -0.02342078
v 0.00163946 -0.01865794 -0.02190577
v 0.00837875 -0.01794399 -0.02246181
v 0.00830193 -0.01700636 -0.02313823
v 0.00172339 -0.01980490 -0.02092676
v 0.00870677 -0.01938068 -0.02130189
v 0.00850286 -0.01866151 -0.02190275
v 0.00978671 -0.02121411 -0.01955584
v 0.00952544 -0.02090369 -0.01987547
v 0.00175183 -0.02073164 -0.02004818
v 0.00934389 -0.02065447 -0.02012454
v 0.00898957 -0.02005145 -0.02070106
v 0.00177218 -0.02225305 -0.01840264
v 0.01081382 -0.02209362 -0.01858840
v 0.01025636 -0.02167075 -0.01906533
v 0.00176748 -0.02183685 -0.01888069
v 0.01291821 -0.02307115 -0.01739323
v 0.01213726 -0.02278907 -0.01775246
v 0.01143548 -0.02246220 -0.01815376
v 0.00177662 -0.02280933 -0.01772709
v 0.00959160 -0.01870050 0.02037197
v 0.01247351 -0.02215120 0.01762764
v 0.01202010 -0.02198387 0.01785917
v 0.01192402 -0.02182898 0.01791641
v 0.01125333 -0.02158451 0.01833484
v 0.01125890 -0.02132854 0.01834754
v 0.01057864 -0.02110022 0.01887542
v 0.01068638 -0.02075603 0.01882011
v 0.00996953 -0.01967282 0.01965444
v 0.01021733 -0.02011687 0.01931997
v 0.01001676 -0.02054409 0.01945449
v 0.00985345 -0.01942531 0.01983828
v 0.00937938 -0.01766247 0.02113425
v 0.00942303 -0.01795663 0.02091779
v 0.01481889 -0.02295343 0.01683568
v 0.01391982 -0.02272909 0.01706920
v 0.01314334 -0.02245900 0.01733743
v 0.01732813 -0.02323659 0.01651564
v 0.01641046 -0.02317962 0.01658521
v 0.01584590 -0.02312026 0.01665373
v 0.01199465 -0.02171043 0.01790508
v 0.01733772 -0.02310844 0.01651508
v 0.01587038 -0.02299416 0.01665133
v 0.01485368 -0.02283066 0.01683134
v 0.01396289 -0.02261012 0.01706172
v 0.01319413 -0.02234246 0.01732681
v 0.01253334 -0.02203487 0.01761547
v 0.01058271 -0.02109618 -0.01887254
v 0.01125742 -0.02158012 -0.01833246
v 0.01202407 -0.02197909 -0.01785734
v 0.01002080 -0.02054038 -0.01945114
v 0.00937937 -0.01766128 -0.02113513
v 0.00943290 -0.01801315 -0.02087627
v 0.00961648 -0.01878376 -0.02031087
v 0.00990170 -0.01953242 -0.01975905
v 0.01029787 -0.02024197 -0.01922408
v 0.01080617 -0.02089399 -0.01871074
v 0.01110524 -0.02118791 -0.01846402
v 0.01143360 -0.02145654 -0.01822615
v 0.01825059 0.02100000 0.01649265
v 0.01728758 0.02099310 0.01650793
v 0.01657046 0.02096546 0.01655718
v 0.01570814 0.02088835 0.01668728
v 0.01647192 0.02095936 0.01656784
v 0.01497461 0.02077364 0.01686841
v 0.01427280 0.02061233 0.01711262
v 0.01413392 0.02057360 0.01716996
v 0.01345721 0.02034798 0.01749547
v 0.01282829 0.02007400 0.01787465
v 0.01193881 0.01954271 0.01857397
v 0.01221066 0.01972710 0.01833563
v 0.01824844 0.02130843 0.01649265
v 0.01824951 0.02103509 0.01649265
v 0.01803654 0.02106148 0.01649331
v 0.01824844 0.02247629 0.01649266
v 0.01604916 0.02123000 0.01662488
v 0.01574279 0.02311032 0.01667822
v 0.01643813 0.02120665 0.01657529
v 0.01643568 0.02317529 0.01658783
v 0.01697328 0.02116582 0.01652979
v 0.01713076 0.02321928 0.01652619
v 0.01824844 0.02324312 0.01649265
v 0.01024193 0.01850928 0.02027055
v 0.01008378 0.01823227 0.02053068
v 0.00925753 0.01928387 0.02098529
v 0.00895064 0.01857647 0.02161400
v 0.00995141 0.01796297 0.02077199
v 0.00990976 0.01786907 0.02085388
v 0.00884265 0.01826269 0.02187976
v 0.00969880 0.01728893 0.02133572
v 0.00872665 0.01785611 0.02221282
v 0.01043998 0.01880693 0.01997864
v 0.00963576 0.01994482 0.02035815
v 0.01065753 0.01908773 0.01969029
v 0.00983274 0.02022717 0.02007764
v 0.01066153 0.01909252 0.01968526
v 0.00994419 0.02037268 0.01992997
v 0.01085094 0.01930632 0.01945639
v 0.01007765 0.02053529 0.01976238
v 0.01132472 0.01975003 0.01895246
v 0.01060312 0.02107725 0.01918332
v 0.01185000 0.02012963 0.01848242
v 0.01118405 0.02154261 0.01865920
v 0.01232558 0.02039069 0.01812195
v 0.01165308 0.02184618 0.01830285
v 0.01242435 0.02043689 0.01805362
v 0.01176513 0.02191122 0.01822494
v 0.01304208 0.02068134 0.01766912
v 0.01240810 0.02223871 0.01782386
v 0.01345677 0.02081037 0.01744831
v 0.01289536 0.02244178 0.01756749
v 0.01314713 0.02253377 0.01744933
v 0.01370977 0.02087786 0.01732702
v 0.01334306 0.02259988 0.01736362
v 0.01445161 0.02103675 0.01702601
v 0.01394746 0.02277667 0.01713107
v 0.01481536 0.02296931 0.01687189
v 0.01516249 0.02114486 0.01680788
v 0.01593226 0.02122153 0.01664222
v 0.00871122 0.01779398 0.02226262
v 0.00953158 0.01661414 0.02186443
v 0.00860361 0.01726686 0.02267390
v 0.00938127 0.01500007 0.02304474
v 0.00937682 0.01470941 0.02323541
v 0.00839269 0.01515685 0.02413545
v 0.00839056 0.01508816 0.02417845
v 0.00937652 0.01425308 0.02351810
v 0.00837943 0.01401604 0.02481533
v 0.00937865 0.01280133 0.02433881
v 0.00837868 0.01326566 0.02522444
v 0.00943384 0.01590116 0.02240410
v 0.00845975 0.01623517 0.02342369
v 0.00950085 0.01643799 0.02199914
v 0.01145282 0.01915359 0.01908171
v 0.01103698 0.01873060 0.01962453
v 0.01095051 0.01862654 0.01975444
v 0.01062351 0.01815123 0.02032332
v 0.01040785 0.01771984 0.02080080
v 0.01017508 0.01698983 0.02152203
v 0.01019537 0.01707546 0.02144253
v 0.01036111 0.01760453 0.02092173
v 0.01037386 0.01763703 0.02088794
v 0.01000000 0.01500007 0.02304885
v 0.01000822 0.01553140 0.02269035
v 0.01006192 0.01630639 0.02211157
v 0.01011531 0.01780744 0.02083287
v 0.00996948 0.01748457 0.02113302
v 0.00984723 0.01714595 0.02142798
v 0.01137534 0.01938433 0.01904475
v 0.01088582 0.01891962 0.01962278
v 0.01066677 0.01866645 0.01992178
v 0.01046517 0.01839759 0.02022457
v 0.00150000 0.00231302 0.02840598
v 0.00837868 0.00235734 0.02840234
v 0.00837868 0.00538169 0.02798727
v 0.00150000 0.00567358 0.02792956
v 0.00837868 0.00567358 0.02792956
v 0.00837868 0.00834430 0.02725110
v 0.00150000 0.00895367 0.02705701
v 0.00837868 0.00895367 0.02705701
v 0.00837868 0.01121117 0.02620228
v 0.00150000 0.01210677 0.02580070
v 0.00837868 0.01210677 0.02580070
v 0.00150000 0.01508815 0.02417846
v 0.00150000 0.01785553 0.02221328
v 0.00150000 0.02036967 0.01993305
v 0.00150000 0.02259490 0.01737010
v 0.01949730 0.02324311 0.01649265
v 0.00150000 0.02449966 0.01456080
v 0.03800015 0.02324311 0.01649265
v 0.03800014 0.02386285 0.01558251
v 0.03800014 0.02449966 0.01456080
v 0.03800013 0.02619513 0.01122787
v 0.03800013 0.02605693 0.01154497
v 0.00150000 0.02605693 0.01154497
v 0.03800013 0.02550215 0.01272361
v 0.03800014 0.02472386 0.01417677
v 0.03800012 0.02680047 0.00969458
v 0.00150000 0.02724464 0.00836539
v 0.03800011 0.02724464 0.00836539
v 0.03800010 0.02807192 0.00492113
v 0.03800010 0.02804592 0.00506717
v 0.00150000 0.02804592 0.00506717
v 0.03800011 0.02774044 0.00653592
v 0.03800011 0.02731615 0.00812885
v 0.03800010 0.02830948 0.00328987
v 0.00150000 0.02844943 0.00169708
v 0.03800009 0.02845233 0.00164761
v 0.03800020 0.02850000 0.00000000
v 0.00150000 0.02844943 -0.00169708
v 0.03800009 0.02847873 -0.00110090
v 0.03800010 0.02804592 -0.00506717
v 0.03800010 0.02816125 -0.00438112
v 0.00150000 0.02804592 -0.00506717
v 0.03800010 0.02836744 -0.00274560
v 0.03800009 0.02844943 -0.00169708
v 0.03800011 0.02786084 -0.00600198
v 0.00150000 0.02724464 -0.00836539
v 0.03800011 0.02746722 -0.00760276
v 0.03800013 0.02605693 -0.01154497
v 0.03800013 0.02640592 -0.01072275
v 0.00150000 0.02605693 -0.01154497
v 0.03800012 0.02698170 -0.00917811
v 0.03800011 0.02724464 -0.00836539
v 0.03800013 0.02574180 -0.01223151
v 0.00150000 0.02449966 -0.01456080
v 0.03800014 0.02499155 -0.01369935
v 0.01446147 0.02290157 -0.01696373
v 0.01532233 0.02305341 -0.01675680
v 0.01574105 0.02310677 -0.01668314
v 0.01682738 0.02320307 -0.01654894
v 0.01699532 0.02321262 -0.01653555
v 0.01789285 0.02324112 -0.01649546
v 0.01825075 0.02324311 -0.01649266
v 0.03800014 0.02449966 -0.01456080
v 0.03800014 0.02415770 -0.01512137
v 0.01949729 0.02324311 -0.01649265
v 0.03800015 0.02324311 -0.01649265
v 0.01062330 0.02109851 -0.01915994
v 0.01091684 0.02134540 -0.01888449
v 0.00150000 0.02259490 -0.01737010
v 0.01149276 0.02175251 -0.01841408
v 0.01164979 0.02184875 -0.01829979
v 0.01215643 0.02212389 -0.01796618
v 0.01287395 0.02243736 -0.01757313
v 0.01333502 0.02260091 -0.01736228
v 0.01364459 0.02269662 -0.01723699
v 0.00944317 0.01964659 -0.02064610
v 0.00150000 0.02036967 -0.01993305
v 0.00924423 0.01927475 -0.02099366
v 0.00908866 0.01893573 -0.02129996
v 0.00986466 0.02027909 -0.02002519
v 0.00993699 0.02037193 -0.01993074
v 0.01035110 0.02083917 -0.01944169
v 0.00851308 0.01665560 -0.02312663
v 0.00859063 0.01726453 -0.02267567
v 0.00150000 0.01785553 -0.02221328
v 0.00872405 0.01785691 -0.02221217
v 0.00880356 0.01814176 -0.02198014
v 0.00150000 0.01508815 -0.02417846
v 0.00839210 0.01508829 -0.02417837
v 0.00841259 0.01559015 -0.02385786
v 0.00847659 0.01632880 -0.02335852
v 0.00837854 0.01210677 -0.02580070
v 0.00837856 0.01223218 -0.02574148
v 0.00150000 0.01210677 -0.02580070
v 0.00837866 0.01326481 -0.02522488
v 0.00838451 0.01452209 -0.02452262
v 0.00837808 0.00882973 -0.02709771
v 0.00837805 0.00895367 -0.02705701
v 0.00150000 0.00895367 -0.02705701
v 0.00837794 0.00937383 -0.02691433
v 0.00837818 0.01080371 -0.02637290
v 0.00837861 0.00491811 -0.02807245
v 0.00837869 0.00567358 -0.02792956
v 0.00150000 0.00567358 -0.02792956
v 0.00837869 0.00653262 -0.02774121
v 0.00837839 0.00786944 -0.02739200
v 0.00150000 0.00231302 -0.02840598
v 0.00837807 0.00164758 -0.02845234
v 0.00837820 0.00328982 -0.02830949
v 0.00837844 0.00410178 -0.02820329
v 0.01824844 0.02100000 -0.01649265
v 0.01791589 0.02100036 -0.01649398
v 0.01679556 0.02097636 -0.01653674
v 0.01595782 0.02091673 -0.01664093
v 0.01568173 0.02088508 -0.01669261
v 0.01511819 0.02079939 -0.01682737
v 0.01435678 0.02063471 -0.01707942
v 0.01408711 0.02056009 -0.01718999
v 0.01360974 0.02040458 -0.01741513
v 0.01300401 0.02015775 -0.01776044
v 0.01243630 0.01986502 -0.01815537
v 0.01193881 0.01954283 -0.01857393
v 0.01824844 0.02130843 -0.01649265
v 0.01704758 0.02114825 -0.01652457
v 0.01824948 0.02103577 -0.01649265
v 0.01605053 0.02122620 -0.01662472
v 0.00953160 0.01661423 -0.02186436
v 0.00960329 0.01694203 -0.02161058
v 0.00980365 0.01760189 -0.02108015
v 0.00991000 0.01786903 -0.02085383
v 0.01008376 0.01823224 -0.02053071
v 0.01017215 0.01839289 -0.02038125
v 0.01024139 0.01850954 -0.02027067
v 0.01052831 0.01892763 -0.01985708
v 0.01065677 0.01908833 -0.01969049
v 0.01099386 0.01945330 -0.01929463
v 0.01115349 0.01960295 -0.01912450
v 0.01150471 0.01989093 -0.01878227
v 0.01203315 0.02023692 -0.01833736
v 0.01393497 0.02093429 -0.01722702
v 0.01321433 0.02073981 -0.01757377
v 0.01263471 0.02052857 -0.01791461
v 0.01232605 0.02038993 -0.01812180
v 0.01469936 0.02107917 -0.01694288
v 0.01474827 0.02108671 -0.01692745
v 0.01554975 0.02118778 -0.01671502
v 0.01530218 0.02116230 -0.01677219
v 0.00938127 0.01500007 -0.02304474
v 0.00937682 0.01470941 -0.02323541
v 0.00937785 0.01331933 -0.02405924
v 0.00937865 0.01280133 -0.02433881
v 0.00942632 0.01582034 -0.02246395
v 0.01000001 0.01500007 -0.02304884
v 0.01001366 0.01567211 -0.02259091
v 0.01002038 0.01580627 -0.02249404
v 0.01008878 0.01651761 -0.02193791
v 0.01021551 0.01715342 -0.02136899
v 0.01036114 0.01760458 -0.02092167
v 0.01039506 0.01768917 -0.02083323
v 0.01054481 0.01800802 -0.02048583
v 0.01062949 0.01816042 -0.02031238
v 0.01068203 0.01824747 -0.02021125
v 0.01098636 0.01867053 -0.01969973
v 0.01104358 0.01873827 -0.01961489
v 0.01146478 0.01916435 -0.01906773
v 0.00984139 0.01714685 -0.02142797
v 0.00996387 0.01748580 -0.02113330
v 0.01010996 0.01780904 -0.02083343
v 0.01137155 0.01938805 -0.01904612
v 0.01088152 0.01892278 -0.01962407
v 0.01066220 0.01866925 -0.01992295
v 0.01046035 0.01840000 -0.02022558
v 0.01825106 0.02100000 -0.01649265
v 0.00937865 0.00641811 0.02674061
v 0.00937865 0.00798086 0.02631650
v 0.01000000 0.00770229 0.02639938
v 0.00968841 0.01470930 0.02323548
v 0.01000000 0.01470918 0.02323556
v 0.01000000 0.01299216 0.02423748
v 0.00937865 0.01240597 0.02454269
v 0.00937865 0.01101801 0.02519634
v 0.01000000 0.01040353 0.02545621
v 0.00937865 0.01040353 0.02545621
v 0.00937865 0.00951593 0.02580115
v 0.00937866 0.00483311 0.02707200
v 0.01000000 0.00491766 0.02705677
v 0.00937866 0.00323136 0.02730953
v 0.01000000 0.00207980 0.02742127
v 0.00937866 0.00161840 0.02745236
v 0.00937857 0.00389155 -0.02722330
v 0.00937863 0.00220307 -0.02741164
v 0.00937865 0.00058586 -0.02749378
v 0.00937851 0.00538872 -0.02696690
v 0.00937842 0.00625164 -0.02678002
v 0.00937833 0.00686902 -0.02662835
v 0.00937820 0.00770229 -0.02639938
v 0.00937808 0.00843675 -0.02617391
v 0.00937787 0.00985277 -0.02567441
v 0.00937790 0.01072287 -0.02532335
v 0.00937803 0.01134679 -0.02505000
v 0.01000000 0.01299216 -0.02423748
v 0.01000000 0.01470918 -0.02323556
v 0.01000000 0.00207980 -0.02742127
v 0.01000000 0.00491766 -0.02705677
v 0.01000000 0.00770229 -0.02639938
v 0.01000000 0.01040353 -0.02545621
v 0.01000000 0.01485491 -0.02314265
v 0.01000000 0.01485491 0.02314265
v 0.03800010 0.02100000 0.01649265
v 0.03878831 0.02324311 0.01647381
v 0.04058013 0.02100000 0.01628962
v 0.04285953 0.02100000 -0.01576054
v 0.04063784 0.02324311 -0.01628037
v 0.04058013 0.02100000 -0.01628962
v 0.04030342 0.02324311 -0.01633104
v 0.03800010 0.02100000 -0.01649265
v 0.03878831 0.02324311 -0.01647381
v 0.04548765 0.02100000 -0.01469509
v 0.04529310 0.02324311 -0.01479261
v 0.04529310 0.02100000 -0.01479261
v 0.04421322 0.02324311 -0.01527763
v 0.04309664 0.02100000 -0.01568547
v 0.04285953 0.02324311 -0.01576054
v 0.04245384 0.02324311 -0.01587995
v 0.05265267 0.02100000 -0.00757051
v 0.05141863 0.02324311 -0.00958923
v 0.05134301 0.02100000 -0.00969417
v 0.05126954 0.02324311 -0.00979450
v 0.05126954 0.02100000 -0.00979450
v 0.05025382 0.02324311 -0.01103886
v 0.04966223 0.02100000 -0.01166210
v 0.04955180 0.02324311 -0.01177150
v 0.04955180 0.02100000 -0.01177150
v 0.04893323 0.02324311 -0.01234814
v 0.04769429 0.02100000 -0.01334287
v 0.04754277 0.02324311 -0.01345166
v 0.04754277 0.02100000 -0.01345166
v 0.04747364 0.02324311 -0.01350043
v 0.04589360 0.02324311 -0.01448109
v 0.05368564 0.02100000 -0.00509653
v 0.05366632 0.02324311 -0.00515563
v 0.05366632 0.02100000 -0.00515563
v 0.05322381 0.02324311 -0.00634422
v 0.05269525 0.02100000 -0.00748754
v 0.05265267 0.02324311 -0.00757051
v 0.05241284 0.02324311 -0.00801770
v 0.05449285 0.02100000 0.00000000
v 0.05446662 0.02324311 -0.00092981
v 0.05428980 0.02100000 -0.00258003
v 0.05428491 0.02324311 -0.00261073
v 0.05428491 0.02100000 -0.00261073
v 0.05425728 0.02324311 -0.00277761
v 0.05384124 0.02324311 -0.00459010
v 0.05368564 0.02100000 0.00509653
v 0.05425728 0.02324311 0.00277761
v 0.05428491 0.02100000 0.00261073
v 0.05428491 0.02324311 0.00261073
v 0.05428980 0.02100000 0.00258003
v 0.05446662 0.02324311 0.00092981
v 0.05449285 0.02324311 0.00000000
v 0.05265267 0.02100000 0.00757051
v 0.05265267 0.02324311 0.00757051
v 0.05269525 0.02100000 0.00748754
v 0.05322381 0.02324311 0.00634422
v 0.05366632 0.02100000 0.00515563
v 0.05366632 0.02324311 0.00515563
v 0.05384124 0.02324311 0.00459009
v 0.04548765 0.02100000 0.01469509
v 0.04747364 0.02324311 0.01350043
v 0.04754277 0.02100000 0.01345166
v 0.04754277 0.02324311 0.01345166
v 0.04769429 0.02100000 0.01334287
v 0.04893323 0.02324311 0.01234814
v 0.04955180 0.02100000 0.01177150
v 0.04955180 0.02324311 0.01177150
v 0.04966223 0.02100000 0.01166210
v 0.05025382 0.02324311 0.01103886
v 0.05126954 0.02100000 0.00979450
v 0.05126954 0.02324311 0.00979450
v 0.05134301 0.02100000 0.00969417
v 0.05141863 0.02324311 0.00958923
v 0.05241284 0.02324311 0.00801770
v 0.04285953 0.02100000 0.01576054
v 0.04285953 0.02324311 0.01576054
v 0.04309664 0.02100000 0.01568547
v 0.04421322 0.02324311 0.01527763
v 0.04529310 0.02100000 0.01479261
v 0.04529310 0.02324311 0.01479261
v 0.04589360 0.02324311 0.01448109
v 0.04030342 0.02324311 0.01633104
v 0.04063784 0.02324311 0.01628037
v 0.04245384 0.02324311 0.01587995
v 0.01949730 0.02100000 -0.01649265
v 0.03835145 0.02841525 0.00216804
v 0.03810515 0.02841525 0.00219380
v 0.03882758 0.02841525 0.00203451
v 0.03859329 0.02841525 0.00211472
v 0.03905136 0.02841525 0.00192843
v 0.03926177 0.02841525 0.00179784
v 0.03945614 0.02841525 0.00164439
v 0.03963200 0.02841525 0.00147004
v 0.03978712 0.02841525 0.00127699
v 0.03991952 0.02841525 0.00106771
v 0.04002752 0.02841525 0.00084486
v 0.04010974 0.02841525 0.00061126
v 0.04016514 0.02841525 0.00036989
v 0.04019302 0.02841525 0.00012382
v 0.04019302 0.02841525 -0.00012382
v 0.04016514 0.02841525 -0.00036989
v 0.04010974 0.02841525 -0.00061126
v 0.04002752 0.02841525 -0.00084486
v 0.03991952 0.02841525 -0.00106771
v 0.03978712 0.02841525 -0.00127699
v 0.03963200 0.02841525 -0.00147004
v 0.03945614 0.02841525 -0.00164439
v 0.03926177 0.02841525 -0.00179784
v 0.03905136 0.02841525 -0.00192843
v 0.03882758 0.02841525 -0.00203451
v 0.03859329 0.02841525 -0.00211472
v 0.03835145 0.02841525 -0.00216804
v 0.03870037 0.02444498 0.01463567
v 0.03851255 0.02640625 0.01070969
v 0.03841379 0.02715399 0.00864520
v 0.03831256 0.02774024 0.00652930
v 0.03820948 0.02816149 0.00437456
v 0.03820948 0.02816149 -0.00437456
v 0.03841379 0.02715399 -0.00864520
v 0.03851255 0.02640625 -0.01070969
v 0.03870037 0.02444498 -0.01463567
v 0.03810515 0.02841525 -0.00219380
v 0.04034353 0.02444498 -0.01446381
v 0.04195690 0.02444498 -0.01410807
v 0.04351997 0.02444498 -0.01357296
v 0.04501286 0.02444498 -0.01286529
v 0.04641659 0.02444498 -0.01199406
v 0.04771332 0.02444498 -0.01097034
v 0.04888657 0.02444498 -0.00980715
v 0.04992140 0.02444498 -0.00851927
v 0.05080468 0.02444498 -0.00712308
v 0.05152517 0.02444498 -0.00563634
v 0.05207371 0.02444498 -0.00407793
v 0.05244331 0.02444498 -0.00246768
v 0.05262930 0.02444498 -0.00082606
v 0.05262930 0.02444498 0.00082606
v 0.05244331 0.02444498 0.00246768
v 0.05207371 0.02444498 0.00407793
v 0.05152517 0.02444498 0.00563634
v 0.05080468 0.02444498 0.00712308
v 0.04992140 0.02444498 0.00851927
v 0.04888657 0.02444498 0.00980715
v 0.04771332 0.02444498 0.01097034
v 0.04641659 0.02444498 0.01199406
v 0.04501286 0.02444498 0.01286529
v 0.04351997 0.02444498 0.01357296
v 0.04195690 0.02444498 0.01410807
v 0.04034353 0.02444498 0.01446381
v 0.03860827 0.02550145 0.01271048
v 0.04003529 0.02550145 0.01256123
v 0.04143643 0.02550145 0.01225228
v 0.04279389 0.02550145 0.01178756
v 0.04409041 0.02550145 0.01117298
v 0.04530949 0.02550145 0.01041635
v 0.04643565 0.02550145 0.00952729
v 0.04745456 0.02550145 0.00851710
v 0.04835328 0.02550145 0.00739864
v 0.04912037 0.02550145 0.00618611
v 0.04974608 0.02550145 0.00489493
v 0.05022246 0.02550145 0.00354152
v 0.05054345 0.02550145 0.00214308
v 0.05070498 0.02550145 0.00071740
v 0.05070498 0.02550145 -0.00071740
v 0.05054345 0.02550145 -0.00214308
v 0.05022246 0.02550145 -0.00354152
v 0.04974608 0.02550145 -0.00489493
v 0.04912037 0.02550145 -0.00618611
v 0.04835328 0.02550145 -0.00739864
v 0.04745456 0.02550145 -0.00851710
v 0.04643565 0.02550145 -0.00952729
v 0.04530949 0.02550145 -0.01041635
v 0.04409041 0.02550145 -0.01117298
v 0.04279389 0.02550145 -0.01178756
v 0.04143643 0.02550145 -0.01225228
v 0.04003529 0.02550145 -0.01256123
v 0.03860827 0.02550145 -0.01271048
v 0.03971494 0.02640625 0.01058393
v 0.04089553 0.02640625 0.01032362
v 0.04203930 0.02640625 0.00993205
v 0.04313173 0.02640625 0.00941421
v 0.04415892 0.02640625 0.00877668
v 0.04510780 0.02640625 0.00802757
v 0.04596633 0.02640625 0.00717640
v 0.04672357 0.02640625 0.00623400
v 0.04736991 0.02640625 0.00521234
v 0.04789713 0.02640625 0.00412440
v 0.04829852 0.02640625 0.00298404
v 0.04856899 0.02640625 0.00180573
v 0.04870509 0.02640625 0.00060447
v 0.04870509 0.02640625 -0.00060447
v 0.04856899 0.02640625 -0.00180573
v 0.04829852 0.02640625 -0.00298404
v 0.04789713 0.02640625 -0.00412440
v 0.04736991 0.02640625 -0.00521234
v 0.04672357 0.02640625 -0.00623400
v 0.04596633 0.02640625 -0.00717640
v 0.04510780 0.02640625 -0.00802757
v 0.04415892 0.02640625 -0.00877668
v 0.04313173 0.02640625 -0.00941421
v 0.04203930 0.02640625 -0.00993205
v 0.04089553 0.02640625 -0.01032362
v 0.03971494 0.02640625 -0.01058393
v 0.03938439 0.02715399 0.00854369
v 0.04033740 0.02715399 0.00833355
v 0.04126069 0.02715399 0.00801747
v 0.04214254 0.02715399 0.00759945
v 0.04297171 0.02715399 0.00708482
v 0.04373768 0.02715399 0.00648011
v 0.04443071 0.02715399 0.00579302
v 0.04504199 0.02715399 0.00503228
v 0.04556373 0.02715399 0.00420756
v 0.04598932 0.02715399 0.00332935
v 0.04631334 0.02715399 0.00240881
v 0.04653166 0.02715399 0.00145765
v 0.04664152 0.02715399 0.00048795
v 0.04664152 0.02715399 -0.00048795
v 0.04653166 0.02715399 -0.00145765
v 0.04631334 0.02715399 -0.00240881
v 0.04598932 0.02715399 -0.00332935
v 0.04556373 0.02715399 -0.00420756
v 0.04504199 0.02715399 -0.00503228
v 0.04443071 0.02715399 -0.00579302
v 0.04373768 0.02715399 -0.00648011
v 0.04297171 0.02715399 -0.00708482
v 0.04214254 0.02715399 -0.00759945
v 0.04126069 0.02715399 -0.00801747
v 0.04033740 0.02715399 -0.00833355
v 0.03938439 0.02715399 -0.00854369
v 0.03904561 0.02774024 0.00645263
v 0.03976537 0.02774024 0.00629392
v 0.04046269 0.02774024 0.00605520
v 0.04112870 0.02774024 0.00573949
v 0.04175494 0.02774024 0.00535082
v 0.04233344 0.02774024 0.00489411
v 0.04285685 0.02774024 0.00437519
v 0.04331852 0.02774024 0.00380064
v 0.04371256 0.02774024 0.00317777
v 0.04403399 0.02774024 0.00251450
v 0.04427870 0.02774024 0.00181926
v 0.04444360 0.02774024 0.00110089
v 0.04452657 0.02774024 0.00036852
v 0.04452657 0.02774024 -0.00036852
v 0.04444360 0.02774024 -0.00110089
v 0.04427870 0.02774024 -0.00181926
v 0.04403399 0.02774024 -0.00251450
v 0.04371256 0.02774024 -0.00317777
v 0.04331852 0.02774024 -0.00380064
v 0.04285685 0.02774024 -0.00437519
v 0.04233344 0.02774024 -0.00489411
v 0.04175494 0.02774024 -0.00535082
v 0.04112870 0.02774024 -0.00573949
v 0.04046269 0.02774024 -0.00605520
v 0.03976537 0.02774024 -0.00629392
v 0.03904561 0.02774024 -0.00645263
v 0.03831256 0.02774024 -0.00652930
v 0.03870061 0.02816149 0.00432319
v 0.03918285 0.02816149 0.00421686
v 0.03965004 0.02816149 0.00405692
v 0.04009626 0.02816149 0.00384540
v 0.04051584 0.02816149 0.00358499
v 0.04090343 0.02816149 0.00327900
v 0.04125410 0.02816149 0.00293133
v 0.04156341 0.02816149 0.00254639
v 0.04182743 0.02816149 0.00212907
v 0.04204278 0.02816149 0.00168469
v 0.04220673 0.02816149 0.00121888
v 0.04231721 0.02816149 0.00073758
v 0.04237280 0.02816149 0.00024691
v 0.04237280 0.02816149 -0.00024691
v 0.04231721 0.02816149 -0.00073758
v 0.04220673 0.02816149 -0.00121888
v 0.04204278 0.02816149 -0.00168469
v 0.04182743 0.02816149 -0.00212907
v 0.04156341 0.02816149 -0.00254639
v 0.04125410 0.02816149 -0.00293133
v 0.04090343 0.02816149 -0.00327900
v 0.04051584 0.02816149 -0.00358499
v 0.04009626 0.02816149 -0.00384540
v 0.03965004 0.02816149 -0.00405692
v 0.03918285 0.02816149 -0.00421686
v 0.03870061 0.02816149 -0.00432319
v 0.01949727 0.02212156 0.01649265
v 0.01949730 0.02100000 0.01649265
v 0.01825124 0.02293423 0.01649266
v 0.01887394 0.02100000 0.01649268
v 0.01825099 0.02227578 0.01649265
v 0.01887418 0.02100000 -0.01649268
f 30 21 31
f 31 21 26
f 31 26 32
f 32 26 25
f 32 25 33
f 33 43 32
f 33 42 43
f 34 42 33
f 34 41 42
f 35 41 34
f 34 28 35
f 35 28 29
f 35 29 47
f 34 27 28
f 47 41 35
f 47 812 41
f 49 812 47
f 48 812 49
f 48 811 812
f 811 802 812
f 812 802 803
f 802 772 803
f 803 772 771
f 686 771 772
f 686 770 771
f 708 770 686
f 43 770 708
f 43 708 44
f 44 708 707
f 44 707 709
f 709 45 44
f 709 46 45
f 30 45 46
f 30 46 40
f 40 36 30
f 36 23 30
f 30 23 22
f 36 24 23
f 13 24 36
f 36 14 13
f 15 14 36
f 36 16 15
f 36 17 16
f 10 17 36
f 36 11 10
f 36 12 11
f 7 12 36
f 36 8 7
f 36 9 8
f 37 9 36
f 37 4 9
f 5 4 37
f 37 6 5
f 37 3 6
f 1 3 37
f 37 2 1
f 37 18 2
f 19 18 37
f 37 20 19
f 37 264 20
f 37 265 264
f 263 264 265
f 263 259 264
f 260 259 263
f 485 260 263
f 484 260 485
f 600 484 485
f 688 484 600
f 600 704 688
f 688 704 705
f 704 39 705
f 705 39 40
f 705 40 706
f 704 38 39
f 38 37 39
f 688 705 706
f 706 709 688
f 600 38 704
f 38 600 265
f 688 483 484
f 689 483 688
f 689 479 483
f 483 479 466
f 466 479 481
f 466 481 548
f 548 481 554
f 481 469 554
f 554 469 541
f 469 540 541
f 541 540 542
f 541 542 543
f 555 541 543
f 555 543 556
f 556 543 545
f 543 544 545
f 545 544 546
f 544 458 546
f 546 458 328
f 457 328 458
f 459 328 457
f 472 328 459
f 120 328 472
f 120 472 700
f 700 110 120
f 700 107 110
f 107 109 110
f 107 108 109
f 614 109 108
f 614 108 607
f 607 628 614
f 614 628 630
f 628 629 630
f 628 627 629
f 626 627 628
f 626 637 627
f 626 636 637
f 635 636 626
f 635 634 636
f 623 634 635
f 628 623 635
f 613 623 628
f 613 622 623
f 613 621 622
f 621 695 622
f 622 695 696
f 622 696 633
f 633 696 697
f 633 697 692
f 697 539 692
f 692 539 693
f 634 692 693
f 693 539 468
f 468 539 469
f 467 468 469
f 694 468 467
f 694 467 690
f 690 467 482
f 690 482 691
f 637 690 691
f 637 691 689
f 691 482 480
f 481 480 482
f 691 480 479
f 482 467 481
f 636 694 690
f 636 693 694
f 693 468 694
f 697 476 539
f 539 476 540
f 540 476 460
f 476 477 460
f 696 477 476
f 460 477 478
f 460 478 475
f 699 475 478
f 699 478 695
f 698 475 699
f 621 698 699
f 612 698 621
f 612 703 698
f 703 474 698
f 703 473 474
f 702 473 703
f 702 470 473
f 459 473 470
f 470 471 459
f 701 471 470
f 700 471 701
f 608 700 701
f 608 701 610
f 609 608 610
f 607 608 609
f 607 615 608
f 609 610 611
f 628 609 611
f 611 610 612
f 610 702 612
f 611 612 613
f 610 701 702
f 615 700 608
f 459 461 473
f 701 470 702
f 473 461 474
f 474 461 460
f 460 461 462
f 457 462 461
f 542 460 462
f 542 462 544
f 612 702 703
f 698 474 475
f 474 460 475
f 695 478 477
f 633 692 634
f 696 476 697
f 695 477 696
f 621 699 695
f 612 621 613
f 622 633 623
f 628 611 613
f 623 633 634
f 634 693 636
f 636 690 637
f 689 627 637
f 628 635 626
f 689 629 627
f 630 629 631
f 688 631 629
f 687 631 688
f 686 631 687
f 687 707 686
f 648 631 686
f 649 648 686
f 686 773 649
f 649 773 766
f 649 766 651
f 650 649 651
f 650 651 652
f 652 651 653
f 652 653 654
f 654 653 655
f 653 763 655
f 655 763 758
f 655 758 755
f 755 657 655
f 755 756 657
f 657 756 757
f 805 757 756
f 805 756 760
f 805 760 806
f 57 805 806
f 57 735 805
f 58 735 57
f 58 736 735
f 735 736 737
f 737 754 735
f 737 753 754
f 659 754 753
f 659 757 754
f 659 753 661
f 661 753 752
f 731 752 753
f 732 752 731
f 731 717 732
f 731 716 717
f 731 715 716
f 737 715 731
f 732 717 718
f 732 718 733
f 733 751 732
f 733 750 751
f 749 750 733
f 749 663 750
f 750 663 661
f 748 663 749
f 734 748 749
f 728 748 734
f 728 747 748
f 747 665 748
f 747 683 665
f 684 683 747
f 746 684 747
f 746 685 684
f 681 685 746
f 745 681 746
f 727 745 746
f 727 746 730
f 730 714 727
f 713 727 714
f 713 726 727
f 712 726 713
f 712 725 726
f 722 725 712
f 722 712 723
f 723 712 711
f 723 711 724
f 724 740 723
f 723 740 741
f 740 678 741
f 741 678 679
f 741 679 742
f 742 679 644
f 742 644 743
f 743 644 646
f 743 646 744
f 743 744 726
f 726 744 745
f 744 682 745
f 744 646 682
f 725 742 743
f 722 741 742
f 740 676 678
f 739 676 740
f 739 674 676
f 672 674 739
f 739 738 672
f 721 738 739
f 720 738 721
f 711 720 721
f 710 720 711
f 1097 720 710
f 1097 710 1096
f 1096 710 1108
f 1096 1108 1095
f 1095 1014 1096
f 1095 1015 1014
f 1095 1007 1015
f 1098 1007 1095
f 1098 1008 1007
f 1010 1008 1098
f 1098 1099 1010
f 1109 1099 1098
f 1109 1100 1099
f 1110 1100 1109
f 1110 1101 1100
f 1102 1101 1110
f 1002 1101 1102
f 1002 1102 1003
f 1003 1102 1005
f 1005 1102 1103
f 1005 1103 1006
f 999 1005 1006
f 999 1006 997
f 997 998 999
f 997 1105 998
f 998 1105 1056
f 998 1056 1000
f 1055 1000 1056
f 1106 1055 1056
f 1054 1055 1106
f 1106 1107 1054
f 1112 1054 1107
f 1112 1053 1054
f 1053 994 1054
f 1054 994 1001
f 993 1001 994
f 993 994 995
f 993 995 990
f 990 995 996
f 990 996 988
f 988 989 990
f 988 1032 989
f 988 1057 1032
f 1060 1032 1057
f 1060 1057 1059
f 1059 1057 1053
f 1059 1053 1058
f 996 1053 1057
f 1061 1032 1060
f 1033 1032 1061
f 991 1032 1033
f 991 1033 992
f 992 1033 1034
f 1033 1072 1034
f 1034 1072 1073
f 1072 1064 1073
f 1073 1064 1065
f 1073 1065 1036
f 1035 1073 1036
f 1035 1036 983
f 983 1036 1037
f 983 1037 981
f 981 1037 1038
f 1077 1038 1037
f 1077 1039 1038
f 1076 1039 1077
f 1077 1068 1076
f 1076 1068 1069
f 1076 1069 1075
f 1075 1069 1070
f 1075 1070 1074
f 1074 1070 1027
f 1074 1027 1044
f 1044 1043 1074
f 1074 1043 1042
f 1074 1042 1041
f 987 1041 1042
f 987 1042 972
f 974 987 972
f 972 973 974
f 973 975 974
f 974 975 976
f 1044 976 975
f 1048 976 1044
f 1048 977 976
f 1047 977 1048
f 1048 1026 1047
f 1047 1026 1025
f 1047 1025 1046
f 1046 978 1047
f 1046 979 978
f 1045 979 1046
f 1046 1024 1045
f 1045 1024 1023
f 1045 1023 1049
f 1045 1049 961
f 961 1049 1050
f 1049 1022 1050
f 1050 1022 1021
f 1050 1021 1052
f 1052 1021 1051
f 1051 1021 1020
f 1051 1020 1031
f 1031 1020 1019
f 1031 1019 1029
f 964 1031 1029
f 964 1029 965
f 964 965 959
f 959 965 966
f 959 966 967
f 967 966 1028
f 1028 966 1029
f 1028 1029 1030
f 1029 1017 1030
f 1030 1017 1016
f 1030 1016 1078
f 1400 1030 1078
f 1029 1018 1017
f 1400 1028 1030
f 967 1028 1400
f 1400 970 967
f 1198 970 1400
f 1198 971 970
f 969 970 971
f 969 971 1122
f 969 1122 1234
f 1234 968 969
f 1234 960 968
f 958 960 1234
f 1234 1289 958
f 958 1289 953
f 953 955 958
f 953 954 955
f 953 1233 954
f 956 954 1233
f 1233 1232 956
f 1233 1341 1232
f 1315 1341 1233
f 1289 1315 1233
f 1288 1315 1289
f 1288 1314 1315
f 1314 1340 1315
f 1314 1339 1340
f 1339 1365 1340
f 1340 1365 1366
f 1365 1392 1366
f 1365 1391 1392
f 1364 1391 1365
f 1364 1390 1391
f 1390 1221 1391
f 1391 1221 1222
f 1222 1221 942
f 1221 1220 942
f 1220 1219 942
f 1219 1218 942
f 1388 1218 1219
f 1388 1219 1389
f 1362 1388 1389
f 1362 1389 1363
f 1337 1362 1363
f 1337 1363 1338
f 1312 1337 1338
f 1312 1338 1313
f 1286 1312 1313
f 1286 1313 1287
f 1237 1286 1287
f 1237 1287 1236
f 1236 1118 1237
f 1118 1129 1237
f 1237 1129 1128
f 1237 1128 1238
f 1128 1126 1238
f 1238 1126 1124
f 1125 1124 1126
f 1125 1126 1127
f 1123 1124 1125
f 1123 1144 1124
f 1239 1124 1144
f 1239 1144 1240
f 1144 1143 1240
f 1240 1143 1141
f 1142 1141 1143
f 1140 1141 1142
f 1140 1139 1141
f 1141 1139 1241
f 1241 1139 1137
f 1138 1137 1139
f 1136 1137 1138
f 1136 1135 1137
f 1137 1135 1242
f 1242 1135 1133
f 1134 1133 1135
f 1132 1133 1134
f 1132 1131 1133
f 1243 1133 1131
f 1243 1131 1244
f 1131 1151 1244
f 1130 1151 1131
f 1130 1150 1151
f 1149 1150 1130
f 1149 1148 1150
f 1147 1148 1149
f 1147 1146 1148
f 1245 1148 1146
f 1245 1146 1246
f 1246 1278 1245
f 1245 1278 1279
f 1245 1279 1244
f 1244 1150 1245
f 1244 1279 1280
f 1279 1306 1280
f 1279 1305 1306
f 1305 1331 1306
f 1305 1330 1331
f 1304 1330 1305
f 1278 1304 1305
f 1277 1304 1278
f 1277 1303 1304
f 1303 1329 1304
f 1303 1328 1329
f 1302 1328 1303
f 1276 1302 1303
f 1275 1302 1276
f 1275 1301 1302
f 1274 1301 1275
f 1249 1274 1275
f 1249 1275 1248
f 1248 1165 1249
f 1165 1164 1249
f 1152 1164 1165
f 1152 1165 1153
f 1152 1153 1154
f 1154 1153 1155
f 1154 1155 1156
f 1156 1155 1157
f 1156 1157 1145
f 1145 1157 1158
f 1158 1157 1247
f 1246 1158 1247
f 1247 1277 1246
f 1247 1276 1277
f 1248 1276 1247
f 1247 1155 1248
f 1145 1158 1146
f 1247 1157 1155
f 1155 1153 1248
f 1163 1164 1152
f 1163 1162 1164
f 1161 1162 1163
f 1161 1160 1162
f 1159 1160 1161
f 1159 1172 1160
f 1159 1171 1172
f 1170 1171 1159
f 1170 1169 1171
f 1171 1169 1252
f 1252 1169 1167
f 1252 1167 1253
f 1253 1271 1252
f 1253 1270 1271
f 1270 1297 1271
f 1270 1296 1297
f 1269 1296 1270
f 1269 1295 1296
f 1295 1321 1296
f 1296 1321 1322
f 1321 1347 1322
f 1321 1346 1347
f 1320 1346 1321
f 1320 1345 1346
f 1319 1345 1320
f 1294 1319 1320
f 1294 1320 1295
f 1268 1294 1295
f 1267 1294 1268
f 1267 1293 1294
f 1266 1293 1267
f 1257 1266 1267
f 1257 1267 1256
f 1256 1176 1257
f 1257 1176 1174
f 1257 1174 1258
f 1174 1194 1258
f 1258 1194 1193
f 1258 1193 1259
f 1259 1265 1258
f 1258 1265 1266
f 1265 1292 1266
f 1265 1291 1292
f 1291 1317 1292
f 1292 1317 1318
f 1292 1318 1293
f 1293 1318 1319
f 1318 1344 1319
f 1318 1343 1344
f 1343 1370 1344
f 1344 1370 1371
f 1370 1202 1371
f 1371 1202 1201
f 1371 1201 1372
f 1372 1201 1203
f 1372 1203 1373
f 1346 1372 1373
f 1373 1203 1204
f 1204 1203 942
f 1205 1204 942
f 1206 1205 942
f 1375 1205 1206
f 1375 1206 1376
f 1376 1206 1207
f 1376 1207 1377
f 1350 1376 1377
f 1350 1377 1351
f 1325 1350 1351
f 1325 1351 1326
f 1300 1325 1326
f 1300 1326 1301
f 1301 1326 1327
f 1326 1352 1327
f 1327 1352 1353
f 1327 1353 1328
f 1328 1353 1354
f 1353 1380 1354
f 1354 1380 1381
f 1354 1381 1355
f 1329 1354 1355
f 1329 1355 1330
f 1330 1355 1356
f 1355 1382 1356
f 1356 1382 1383
f 1356 1383 1357
f 1357 1383 1384
f 1357 1384 1358
f 1358 1384 1385
f 1358 1385 1359
f 1333 1358 1359
f 1333 1359 1334
f 1308 1333 1334
f 1308 1334 1309
f 1282 1308 1309
f 1282 1309 1283
f 1241 1282 1283
f 1241 1283 1240
f 1240 1283 1284
f 1283 1310 1284
f 1284 1310 1311
f 1310 1336 1311
f 1311 1336 1337
f 1310 1335 1336
f 1335 1361 1336
f 1336 1361 1362
f 1335 1360 1361
f 1360 1387 1361
f 1361 1387 1388
f 1360 1386 1387
f 1386 1217 1387
f 1387 1217 1218
f 1386 1216 1217
f 1217 1216 942
f 1216 1215 942
f 1385 1215 1216
f 1215 1214 942
f 1214 1213 942
f 1213 1212 942
f 1212 1211 942
f 1211 1210 942
f 1380 1210 1211
f 1379 1210 1380
f 1379 1209 1210
f 1378 1209 1379
f 1352 1378 1379
f 1351 1378 1352
f 1378 1208 1209
f 1209 1208 942
f 1208 1207 942
f 1377 1208 1378
f 1210 1209 942
f 1381 1211 1212
f 1381 1212 1382
f 1382 1212 1213
f 1383 1213 1214
f 1384 1214 1215
f 1385 1216 1386
f 1359 1386 1360
f 1334 1360 1335
f 1309 1335 1310
f 1284 1311 1285
f 1285 1311 1312
f 1239 1284 1285
f 1239 1285 1238
f 1238 1285 1286
f 1242 1282 1241
f 1242 1281 1282
f 1243 1281 1242
f 1243 1280 1281
f 1280 1307 1281
f 1281 1307 1308
f 1283 1309 1310
f 1281 1308 1282
f 1309 1334 1335
f 1307 1333 1308
f 1307 1332 1333
f 1306 1332 1307
f 1334 1359 1360
f 1332 1358 1333
f 1359 1385 1386
f 1384 1215 1385
f 1332 1357 1358
f 1331 1357 1332
f 1383 1214 1384
f 1331 1356 1357
f 1382 1213 1383
f 1355 1381 1382
f 1380 1211 1381
f 1353 1379 1380
f 1352 1379 1353
f 1299 1325 1300
f 1273 1299 1300
f 1273 1300 1274
f 1250 1273 1274
f 1251 1273 1250
f 1251 1272 1273
f 1252 1272 1251
f 1250 1160 1251
f 1272 1299 1273
f 1272 1298 1299
f 1298 1324 1299
f 1298 1323 1324
f 1323 1349 1324
f 1324 1349 1350
f 1323 1348 1349
f 1322 1348 1323
f 1297 1322 1323
f 1348 1375 1349
f 1348 1374 1375
f 1347 1374 1348
f 1347 1373 1374
f 1297 1323 1298
f 1271 1298 1272
f 1299 1324 1325
f 1326 1351 1352
f 1324 1350 1325
f 1351 1377 1378
f 1349 1376 1350
f 1377 1207 1208
f 1349 1375 1376
f 1374 1205 1375
f 1207 1206 942
f 1374 1204 1205
f 1373 1204 1374
f 1201 942 1203
f 1345 1371 1372
f 1201 1202 942
f 1202 1199 942
f 1199 1200 942
f 1200 941 942
f 941 940 942
f 939 940 941
f 939 936 940
f 934 936 939
f 934 935 936
f 935 934 1230
f 1229 935 1230
f 1229 1230 1342
f 1342 1230 1369
f 1230 1200 1369
f 1230 939 1200
f 1342 1369 1343
f 1317 1342 1343
f 1316 1342 1317
f 1316 1229 1342
f 1228 1229 1316
f 1290 1228 1316
f 1290 1316 1291
f 1264 1290 1291
f 1263 1290 1264
f 1263 1227 1290
f 1262 1227 1263
f 1261 1262 1263
f 1261 1263 1260
f 1260 1197 1261
f 1260 1189 1197
f 1259 1189 1260
f 1260 1264 1259
f 1259 1191 1189
f 1190 1189 1191
f 1188 1189 1190
f 1190 1191 1192
f 1192 1191 1193
f 1192 1193 1173
f 1188 1197 1189
f 1188 1196 1197
f 1116 1196 1188
f 1116 1195 1196
f 1115 1195 1116
f 1114 1115 1116
f 1114 923 1115
f 923 924 1115
f 1115 924 1226
f 924 925 1226
f 924 922 925
f 924 921 922
f 921 835 922
f 835 834 922
f 827 834 835
f 833 834 827
f 833 832 834
f 831 832 833
f 833 814 831
f 815 831 814
f 817 831 815
f 817 829 831
f 816 829 817
f 816 872 829
f 871 872 816
f 871 870 872
f 872 870 830
f 830 870 922
f 922 870 869
f 922 869 920
f 920 869 867
f 920 867 865
f 866 865 867
f 866 867 868
f 819 866 868
f 819 868 818
f 818 868 871
f 820 866 819
f 820 863 866
f 821 863 820
f 821 861 863
f 861 862 863
f 862 864 863
f 863 864 865
f 864 862 920
f 862 860 920
f 920 860 858
f 859 858 860
f 857 858 859
f 857 859 822
f 822 859 861
f 857 822 855
f 855 822 824
f 855 824 823
f 902 855 823
f 823 887 902
f 902 887 888
f 902 888 903
f 851 902 903
f 851 903 849
f 849 850 851
f 851 850 852
f 919 852 850
f 919 850 848
f 846 919 848
f 847 846 848
f 847 848 849
f 845 846 847
f 903 845 847
f 904 845 903
f 904 836 845
f 905 836 904
f 905 890 836
f 836 890 837
f 837 890 891
f 837 891 899
f 899 840 837
f 837 840 839
f 839 840 841
f 839 841 842
f 842 841 843
f 842 843 844
f 918 842 844
f 919 842 918
f 918 844 873
f 873 875 918
f 918 875 885
f 918 885 917
f 917 885 878
f 917 878 879
f 878 877 879
f 879 877 880
f 880 877 1082
f 880 1082 882
f 882 1082 1084
f 882 1084 1085
f 883 882 1085
f 881 882 883
f 915 881 883
f 915 883 916
f 914 915 916
f 914 912 915
f 913 912 914
f 911 912 913
f 911 909 912
f 910 909 911
f 911 1080 910
f 910 1080 1079
f 910 1079 908
f 908 1079 1090
f 1079 1081 1090
f 1090 1081 1091
f 1090 1091 1092
f 1092 1091 1093
f 1092 1093 1094
f 1094 1093 213
f 1094 213 183
f 183 213 184
f 184 213 214
f 184 214 185
f 136 184 185
f 136 185 135
f 135 185 186
f 135 186 133
f 133 134 135
f 133 131 134
f 132 131 133
f 130 131 132
f 130 129 131
f 128 129 130
f 130 190 128
f 128 190 126
f 126 127 128
f 126 125 127
f 123 125 126
f 123 124 125
f 123 142 124
f 123 193 142
f 142 193 194
f 142 194 143
f 143 194 195
f 205 195 194
f 204 195 205
f 204 196 195
f 203 196 204
f 203 199 196
f 199 149 196
f 196 149 147
f 147 149 148
f 146 147 148
f 146 145 147
f 144 145 146
f 144 143 145
f 124 143 144
f 148 149 150
f 148 150 151
f 151 150 152
f 151 152 153
f 153 152 154
f 152 197 154
f 154 197 201
f 122 201 197
f 122 197 202
f 197 198 202
f 202 198 199
f 198 150 199
f 121 201 122
f 74 201 121
f 74 786 201
f 156 201 786
f 156 786 158
f 158 786 787
f 73 787 786
f 72 787 73
f 72 774 787
f 785 774 72
f 72 71 785
f 785 71 70
f 785 70 782
f 782 162 785
f 782 164 162
f 163 162 164
f 163 164 165
f 181 163 165
f 181 160 163
f 182 160 181
f 642 182 181
f 641 182 642
f 641 153 182
f 640 153 641
f 675 640 641
f 639 640 675
f 639 151 640
f 639 148 151
f 638 148 639
f 638 146 148
f 638 144 146
f 671 144 638
f 675 671 638
f 670 671 675
f 670 124 671
f 670 125 124
f 669 125 670
f 669 127 125
f 668 127 669
f 675 668 669
f 667 668 675
f 667 129 668
f 667 131 129
f 643 131 667
f 643 134 131
f 137 134 643
f 601 137 643
f 675 601 643
f 675 602 601
f 936 602 675
f 675 673 936
f 673 940 936
f 673 943 940
f 947 943 673
f 673 951 947
f 673 955 951
f 959 955 673
f 673 974 959
f 673 982 974
f 990 982 673
f 673 993 990
f 673 999 993
f 1004 999 673
f 673 1009 1004
f 673 1012 1009
f 672 1012 673
f 672 673 674
f 674 673 675
f 674 675 676
f 676 675 677
f 677 675 642
f 677 642 645
f 678 677 645
f 678 645 679
f 679 645 644
f 644 645 646
f 646 645 647
f 647 682 646
f 647 681 682
f 680 681 647
f 680 685 681
f 680 684 685
f 666 684 680
f 666 683 684
f 665 683 666
f 664 665 666
f 666 625 664
f 664 625 662
f 662 663 664
f 662 661 663
f 660 661 662
f 660 662 624
f 624 658 660
f 658 659 660
f 658 657 659
f 656 657 658
f 624 656 658
f 604 656 624
f 604 603 656
f 104 603 604
f 604 101 104
f 604 99 101
f 99 100 101
f 99 98 100
f 98 583 100
f 100 583 584
f 100 584 585
f 585 577 100
f 100 577 106
f 106 577 578
f 106 578 579
f 579 580 106
f 106 580 581
f 106 581 105
f 105 581 582
f 105 582 102
f 102 582 360
f 102 360 359
f 344 359 360
f 344 360 345
f 344 345 336
f 336 452 344
f 336 451 452
f 451 445 452
f 452 445 446
f 452 446 453
f 453 446 447
f 446 440 447
f 446 439 440
f 439 433 440
f 440 433 434
f 433 432 434
f 434 432 431
f 434 431 435
f 435 431 430
f 422 430 431
f 423 430 422
f 423 429 430
f 436 430 429
f 436 429 437
f 443 436 437
f 443 437 444
f 444 437 438
f 437 428 438
f 438 428 427
f 438 427 328
f 426 328 427
f 426 412 328
f 328 412 404
f 404 412 413
f 420 413 412
f 411 413 420
f 411 414 413
f 403 414 411
f 410 403 411
f 410 402 403
f 409 402 410
f 418 409 410
f 417 409 418
f 417 408 409
f 416 408 417
f 416 385 408
f 385 317 408
f 385 301 317
f 302 301 385
f 301 302 303
f 303 309 301
f 303 308 309
f 306 308 303
f 306 307 308
f 306 313 307
f 307 313 318
f 313 311 318
f 318 311 319
f 311 310 319
f 310 314 319
f 310 312 314
f 314 312 218
f 314 218 219
f 314 219 320
f 219 217 320
f 320 217 463
f 217 224 463
f 224 223 463
f 463 223 493
f 223 221 493
f 222 221 223
f 222 223 216
f 220 221 222
f 222 227 220
f 222 226 227
f 225 226 222
f 225 232 226
f 225 231 232
f 231 465 232
f 464 232 465
f 464 465 506
f 506 465 512
f 506 512 507
f 501 506 507
f 501 507 502
f 496 501 502
f 496 502 497
f 497 502 503
f 502 508 503
f 503 508 509
f 503 509 504
f 499 503 504
f 499 504 498
f 498 379 499
f 499 379 378
f 378 379 329
f 399 378 329
f 399 329 397
f 397 398 399
f 397 396 398
f 328 396 397
f 396 405 398
f 398 405 406
f 398 406 326
f 326 406 407
f 406 415 407
f 407 415 323
f 407 323 381
f 381 323 322
f 321 322 323
f 382 321 323
f 384 321 382
f 494 321 384
f 494 384 383
f 383 463 494
f 382 383 384
f 382 320 383
f 319 320 382
f 394 319 382
f 394 382 395
f 402 394 395
f 401 394 402
f 401 318 394
f 317 318 401
f 317 308 318
f 382 323 395
f 322 321 494
f 494 495 322
f 494 500 495
f 495 500 501
f 494 493 500
f 493 464 500
f 493 227 464
f 322 495 496
f 322 496 381
f 381 496 324
f 324 326 381
f 324 325 326
f 324 497 325
f 497 400 325
f 497 378 400
f 400 326 325
f 399 326 400
f 395 323 415
f 395 415 403
f 406 414 415
f 326 407 381
f 405 414 406
f 396 404 405
f 399 398 326
f 397 329 328
f 327 328 329
f 328 327 498
f 498 327 380
f 498 505 328
f 505 511 328
f 505 510 511
f 510 522 511
f 510 518 522
f 509 518 510
f 509 515 518
f 518 515 519
f 523 518 519
f 523 519 524
f 524 519 520
f 519 516 520
f 520 516 517
f 520 517 521
f 525 520 521
f 525 521 526
f 531 525 526
f 531 526 532
f 537 531 532
f 537 532 538
f 538 532 487
f 532 488 487
f 487 488 253
f 488 244 253
f 488 245 244
f 488 489 245
f 489 247 245
f 489 248 247
f 240 247 248
f 240 248 241
f 490 241 248
f 242 241 490
f 490 243 242
f 233 242 243
f 240 242 233
f 233 243 234
f 233 234 235
f 233 235 228
f 228 235 236
f 491 236 235
f 491 492 236
f 492 237 236
f 492 238 237
f 492 239 238
f 229 239 492
f 465 229 492
f 230 229 465
f 225 229 230
f 228 229 225
f 228 239 229
f 228 238 239
f 237 238 228
f 514 492 491
f 517 514 491
f 517 491 490
f 514 512 492
f 513 512 514
f 516 513 514
f 515 513 516
f 508 513 515
f 507 513 508
f 228 236 237
f 235 234 491
f 491 234 243
f 490 491 243
f 240 241 242
f 246 247 240
f 489 490 248
f 521 490 489
f 246 245 247
f 526 489 488
f 244 245 246
f 246 253 244
f 246 252 253
f 251 252 246
f 251 250 252
f 249 250 251
f 251 258 249
f 487 249 258
f 487 258 257
f 486 487 257
f 486 257 255
f 255 254 486
f 486 254 262
f 486 262 261
f 261 466 486
f 261 260 466
f 256 261 262
f 259 261 256
f 256 262 254
f 254 255 256
f 256 255 257
f 256 257 251
f 251 257 258
f 487 250 249
f 252 250 487
f 487 253 252
f 538 487 486
f 486 548 538
f 538 548 549
f 538 549 537
f 537 549 550
f 537 550 536
f 536 550 551
f 536 551 535
f 535 551 552
f 535 552 534
f 534 552 553
f 534 553 533
f 533 528 534
f 534 528 529
f 528 523 529
f 528 522 523
f 527 522 528
f 533 527 528
f 328 527 533
f 533 553 328
f 553 558 328
f 558 547 328
f 557 547 558
f 552 557 558
f 557 545 547
f 552 558 553
f 534 529 535
f 535 529 530
f 529 524 530
f 530 524 525
f 551 557 552
f 551 556 557
f 535 530 536
f 536 530 531
f 550 556 551
f 549 555 550
f 549 554 555
f 536 531 537
f 532 526 488
f 530 525 531
f 526 521 489
f 521 517 490
f 516 514 517
f 524 520 525
f 529 523 524
f 519 515 516
f 522 518 523
f 511 522 527
f 504 510 505
f 511 527 328
f 329 380 327
f 400 378 399
f 329 379 380
f 499 378 497
f 498 380 379
f 498 504 505
f 504 509 510
f 508 515 509
f 497 503 499
f 324 496 497
f 495 501 496
f 502 507 508
f 500 506 501
f 507 512 513
f 465 492 512
f 500 464 506
f 231 230 465
f 230 231 225
f 226 232 464
f 227 226 464
f 220 227 493
f 493 221 220
f 463 493 494
f 216 223 224
f 216 224 217
f 216 217 218
f 320 463 383
f 218 217 219
f 319 314 320
f 310 311 312
f 312 311 306
f 318 319 394
f 306 311 313
f 307 318 308
f 309 308 317
f 303 302 304
f 303 304 298
f 298 304 305
f 305 304 385
f 386 305 385
f 296 305 386
f 386 297 296
f 386 299 297
f 298 297 299
f 298 299 293
f 293 299 300
f 293 300 291
f 291 292 293
f 387 292 291
f 294 292 387
f 387 316 294
f 294 316 295
f 288 295 316
f 287 295 288
f 286 287 288
f 286 281 287
f 284 281 286
f 284 286 315
f 285 284 315
f 388 285 315
f 388 315 439
f 445 388 439
f 389 388 445
f 389 283 388
f 276 283 389
f 389 277 276
f 276 277 278
f 278 277 279
f 278 279 273
f 273 279 280
f 280 279 390
f 390 271 280
f 390 272 271
f 271 272 273
f 273 272 274
f 273 274 269
f 269 274 275
f 275 274 390
f 331 275 390
f 270 275 331
f 331 392 270
f 270 392 393
f 270 393 268
f 268 393 266
f 266 267 268
f 268 267 269
f 599 267 266
f 599 266 597
f 597 596 599
f 393 596 597
f 575 596 393
f 92 596 575
f 595 596 92
f 92 594 595
f 791 595 594
f 599 595 791
f 791 795 599
f 792 795 791
f 792 796 795
f 793 796 792
f 793 797 796
f 79 796 797
f 80 796 79
f 81 796 80
f 79 797 78
f 78 797 798
f 788 798 797
f 789 798 788
f 788 177 789
f 789 177 176
f 789 176 790
f 790 176 175
f 173 175 176
f 174 175 173
f 775 175 174
f 775 174 776
f 776 174 172
f 776 172 778
f 778 172 171
f 168 171 172
f 168 172 173
f 173 178 168
f 168 178 179
f 168 179 165
f 165 179 180
f 620 180 179
f 179 619 620
f 620 619 680
f 620 680 642
f 680 619 625
f 619 200 625
f 619 178 200
f 625 200 88
f 173 88 200
f 89 88 173
f 87 88 89
f 93 87 89
f 591 93 89
f 89 177 591
f 591 92 93
f 592 92 591
f 592 593 92
f 793 593 592
f 793 592 788
f 788 592 591
f 92 87 93
f 92 91 87
f 618 87 91
f 617 618 91
f 91 96 617
f 617 96 95
f 90 95 96
f 94 95 90
f 586 94 90
f 587 94 586
f 587 588 94
f 94 588 589
f 94 589 97
f 97 589 590
f 97 590 98
f 95 97 98
f 90 576 586
f 90 575 576
f 94 97 95
f 617 95 624
f 624 95 99
f 90 96 91
f 662 618 617
f 90 91 92
f 618 88 87
f 173 177 89
f 625 88 618
f 620 181 180
f 165 167 168
f 168 167 169
f 169 167 780
f 780 167 784
f 780 784 781
f 780 781 779
f 781 63 779
f 779 63 59
f 779 59 60
f 794 779 60
f 794 777 779
f 777 794 775
f 775 794 800
f 775 800 790
f 790 800 799
f 76 799 800
f 76 800 75
f 75 800 61
f 77 799 76
f 77 798 799
f 61 800 794
f 777 778 779
f 61 794 60
f 781 62 63
f 64 62 781
f 781 65 64
f 781 66 65
f 783 66 781
f 783 67 66
f 783 68 67
f 782 68 783
f 782 783 784
f 782 69 68
f 779 778 780
f 780 778 170
f 781 784 783
f 167 166 784
f 784 166 164
f 780 170 169
f 168 169 170
f 165 166 167
f 179 178 619
f 173 200 178
f 170 171 168
f 778 171 170
f 777 776 778
f 775 776 777
f 173 172 174
f 790 175 775
f 790 799 789
f 173 176 177
f 788 591 177
f 789 799 798
f 78 798 77
f 788 797 793
f 792 593 793
f 792 594 593
f 81 795 796
f 82 795 81
f 598 795 82
f 598 82 83
f 598 83 267
f 599 795 598
f 791 594 792
f 92 593 594
f 92 575 90
f 599 596 595
f 598 267 599
f 393 597 266
f 268 269 270
f 331 391 392
f 330 391 331
f 330 331 332
f 332 331 333
f 332 333 334
f 334 333 335
f 333 343 335
f 333 342 343
f 341 342 333
f 333 340 341
f 333 339 340
f 338 339 333
f 336 338 333
f 336 337 338
f 336 349 337
f 336 348 349
f 347 348 336
f 336 346 347
f 331 390 333
f 333 390 451
f 390 389 451
f 269 275 270
f 390 274 272
f 390 279 389
f 273 280 271
f 279 277 389
f 278 283 276
f 278 282 283
f 281 282 278
f 281 290 282
f 281 289 290
f 388 290 289
f 285 289 281
f 388 282 290
f 283 282 388
f 289 285 388
f 315 286 316
f 315 316 433
f 284 285 281
f 288 316 286
f 287 294 295
f 293 294 287
f 387 432 316
f 421 432 387
f 387 386 421
f 421 386 416
f 421 416 422
f 387 300 386
f 293 292 294
f 291 300 387
f 300 299 386
f 296 297 298
f 298 305 296
f 385 304 302
f 301 309 317
f 408 317 401
f 386 385 416
f 422 416 417
f 408 401 409
f 423 417 418
f 423 418 424
f 424 418 419
f 424 419 425
f 425 419 420
f 425 420 426
f 425 428 424
f 424 428 429
f 418 410 419
f 409 401 402
f 402 395 403
f 419 410 411
f 403 415 414
f 405 413 414
f 419 411 420
f 404 413 405
f 328 404 396
f 420 412 426
f 426 427 425
f 425 427 428
f 444 438 328
f 450 444 328
f 456 450 328
f 368 456 328
f 328 371 368
f 368 371 372
f 120 372 371
f 373 372 120
f 120 374 373
f 368 373 374
f 368 374 375
f 375 376 368
f 368 376 377
f 368 377 369
f 368 369 363
f 363 369 370
f 363 370 365
f 365 366 363
f 363 366 367
f 363 367 361
f 361 362 363
f 363 362 352
f 352 362 364
f 352 364 350
f 350 351 352
f 352 351 353
f 352 353 354
f 354 355 352
f 352 355 356
f 352 356 344
f 344 453 352
f 352 453 454
f 344 356 357
f 344 357 358
f 352 454 363
f 363 454 455
f 454 448 455
f 455 448 449
f 455 449 456
f 448 442 449
f 449 442 443
f 449 443 450
f 448 441 442
f 441 435 442
f 442 435 436
f 447 441 448
f 454 447 448
f 363 455 368
f 376 375 120
f 119 376 120
f 119 574 376
f 118 574 119
f 118 573 574
f 116 573 118
f 117 116 118
f 117 118 109
f 605 117 109
f 115 117 605
f 605 606 115
f 650 606 605
f 614 650 605
f 632 650 614
f 650 616 606
f 616 84 606
f 606 84 113
f 84 112 113
f 113 112 114
f 112 566 114
f 112 565 566
f 564 565 112
f 112 111 564
f 111 563 564
f 111 562 563
f 86 562 111
f 86 111 84
f 84 85 86
f 86 85 102
f 85 103 102
f 603 103 85
f 603 85 616
f 102 103 104
f 559 86 102
f 560 86 559
f 560 561 86
f 86 561 562
f 114 566 567
f 114 567 568
f 114 568 569
f 114 569 116
f 115 114 116
f 116 569 570
f 116 570 571
f 571 572 116
f 113 114 115
f 84 111 112
f 616 85 84
f 606 113 115
f 115 116 117
f 116 572 573
f 109 118 119
f 120 375 374
f 372 373 368
f 368 455 456
f 456 449 450
f 450 443 444
f 442 436 443
f 437 429 428
f 424 429 423
f 422 417 423
f 422 431 421
f 435 430 436
f 441 434 435
f 421 431 432
f 433 316 432
f 440 434 441
f 439 315 433
f 447 440 441
f 453 447 454
f 445 439 446
f 451 389 445
f 333 451 336
f 344 452 453
f 336 345 346
f 358 359 344
f 559 102 359
f 102 104 105
f 105 101 106
f 98 590 583
f 95 98 99
f 106 101 100
f 105 104 101
f 104 103 603
f 656 603 616
f 656 616 654
f 624 99 604
f 624 662 617
f 660 659 661
f 662 625 618
f 664 663 665
f 680 625 666
f 642 680 647
f 642 647 645
f 676 677 678
f 602 936 932
f 932 928 602
f 602 928 922
f 602 922 920
f 920 919 602
f 602 919 918
f 602 918 917
f 917 915 602
f 602 915 912
f 602 912 909
f 906 602 909
f 906 140 602
f 601 602 140
f 140 139 601
f 601 139 137
f 643 667 675
f 668 129 127
f 675 669 670
f 671 124 144
f 675 638 639
f 640 151 153
f 155 182 153
f 157 182 155
f 155 156 157
f 155 154 156
f 157 159 182
f 157 158 159
f 159 158 160
f 158 161 160
f 160 161 162
f 161 774 162
f 774 161 158
f 675 641 642
f 642 181 620
f 182 159 160
f 165 180 181
f 164 166 165
f 160 162 163
f 784 164 782
f 782 70 69
f 785 162 774
f 158 787 774
f 157 156 158
f 73 786 74
f 154 201 156
f 197 152 198
f 153 154 155
f 198 152 150
f 196 147 145
f 199 150 149
f 202 199 203
f 145 195 196
f 205 194 206
f 143 195 145
f 206 194 193
f 206 193 207
f 207 193 192
f 207 192 208
f 208 192 191
f 208 191 209
f 209 191 190
f 209 190 210
f 210 190 189
f 210 189 211
f 211 189 188
f 211 188 212
f 187 212 188
f 186 212 187
f 186 215 212
f 132 187 188
f 188 189 130
f 191 192 123
f 123 192 193
f 124 142 143
f 126 191 123
f 126 190 191
f 130 189 190
f 128 127 129
f 132 188 130
f 133 187 132
f 133 186 187
f 185 215 186
f 135 134 136
f 136 134 137
f 136 137 138
f 137 139 138
f 138 139 140
f 138 140 141
f 140 906 141
f 141 906 907
f 1094 141 907
f 907 906 908
f 1092 907 908
f 908 906 909
f 141 183 138
f 138 184 136
f 185 214 215
f 138 183 184
f 183 141 1094
f 1094 907 1092
f 908 1090 1092
f 1079 1080 1081
f 1081 1080 1087
f 1087 1080 1089
f 1087 1089 1088
f 913 1088 1089
f 1086 1087 1088
f 1086 1084 1087
f 914 1086 1088
f 911 1089 1080
f 908 909 910
f 913 1089 911
f 914 1088 913
f 916 1086 914
f 916 1085 1086
f 917 881 915
f 883 1085 916
f 1085 1084 1086
f 1082 1083 1084
f 1083 1082 1113
f 1113 1082 876
f 1113 876 896
f 896 876 884
f 876 878 884
f 896 884 897
f 897 884 886
f 897 886 898
f 898 886 874
f 898 874 892
f 892 874 901
f 901 874 843
f 873 843 874
f 901 843 900
f 900 894 901
f 901 894 893
f 900 895 894
f 899 895 900
f 900 841 899
f 901 893 892
f 886 875 874
f 884 885 886
f 881 880 882
f 1082 877 876
f 879 880 881
f 876 877 878
f 917 879 881
f 884 878 885
f 886 885 875
f 873 874 875
f 844 843 873
f 900 843 841
f 919 839 842
f 838 839 919
f 838 837 839
f 899 841 840
f 899 891 895
f 836 837 838
f 904 890 905
f 904 889 890
f 836 838 845
f 903 889 904
f 845 838 846
f 846 838 919
f 920 852 919
f 920 854 852
f 856 854 920
f 855 854 856
f 853 854 855
f 853 852 854
f 851 852 853
f 849 848 850
f 903 847 849
f 853 902 851
f 903 888 889
f 853 855 902
f 855 856 857
f 857 856 858
f 859 860 861
f 920 858 856
f 861 860 862
f 822 861 821
f 863 865 866
f 864 920 865
f 867 869 868
f 868 869 870
f 922 832 830
f 868 870 871
f 818 871 816
f 872 830 829
f 829 830 831
f 831 830 832
f 827 814 833
f 827 813 814
f 826 813 827
f 813 826 1398
f 1398 826 825
f 1398 825 1399
f 828 1399 825
f 828 1397 1399
f 835 1397 828
f 1397 921 1399
f 1399 921 1395
f 921 923 1395
f 1399 1395 1396
f 1395 1114 1396
f 825 827 828
f 1396 1398 1399
f 825 826 827
f 827 835 828
f 922 834 832
f 1397 835 921
f 922 930 925
f 922 929 930
f 930 929 1262
f 1226 930 1262
f 928 929 922
f 928 927 929
f 926 927 928
f 927 926 1227
f 926 931 1227
f 1227 931 1228
f 931 933 1228
f 931 932 933
f 931 928 932
f 932 938 933
f 932 937 938
f 938 937 1229
f 936 937 932
f 933 938 1228
f 926 928 931
f 927 1227 929
f 925 930 1226
f 923 921 924
f 1395 923 1114
f 1115 1226 1195
f 1195 1226 1261
f 1195 1261 1196
f 1196 1261 1197
f 1226 1262 1261
f 1262 929 1227
f 1260 1263 1264
f 1227 1228 1290
f 1228 938 1229
f 937 935 1229
f 936 935 937
f 934 939 1230
f 942 940 943
f 942 943 944
f 943 949 944
f 943 948 949
f 947 948 943
f 947 946 948
f 945 946 947
f 945 947 950
f 950 1368 945
f 1368 1231 945
f 1368 1394 1231
f 1394 1225 1231
f 1231 1225 1235
f 1231 1235 948
f 1225 942 1235
f 1225 1224 942
f 1224 1223 942
f 1393 1223 1224
f 1392 1223 1393
f 1392 1222 1223
f 1393 1224 1394
f 1367 1393 1394
f 1366 1393 1367
f 1341 1366 1367
f 1394 1224 1225
f 1367 1394 1368
f 1232 1367 1368
f 1232 1368 950
f 952 1232 950
f 952 957 1232
f 951 957 952
f 951 956 957
f 955 956 951
f 950 951 952
f 950 947 951
f 945 1231 946
f 948 946 1231
f 948 1235 949
f 949 1235 944
f 944 1235 942
f 939 941 1200
f 1369 1200 1199
f 1369 1199 1370
f 1370 1199 1202
f 1344 1371 1345
f 1343 1369 1370
f 1317 1343 1318
f 1291 1316 1317
f 1264 1291 1265
f 1259 1264 1265
f 1193 1191 1259
f 1173 1193 1194
f 1173 1194 1174
f 1173 1174 1175
f 1175 1174 1176
f 1175 1176 1177
f 1177 1176 1178
f 1177 1178 1179
f 1179 1178 1180
f 1179 1180 1181
f 1181 1180 1182
f 1181 1182 1183
f 1183 1182 1184
f 1184 1182 1255
f 1254 1184 1255
f 1254 1186 1184
f 1185 1184 1186
f 1185 1186 1166
f 1166 1186 1187
f 1166 1187 1167
f 1166 1167 1168
f 1187 1186 1254
f 1253 1187 1254
f 1255 1269 1254
f 1255 1268 1269
f 1256 1268 1255
f 1255 1180 1256
f 1183 1184 1185
f 1255 1182 1180
f 1180 1178 1256
f 1256 1178 1176
f 1258 1266 1257
f 1266 1292 1293
f 1256 1267 1268
f 1293 1319 1294
f 1319 1344 1345
f 1345 1372 1346
f 1346 1373 1347
f 1322 1347 1348
f 1295 1320 1321
f 1268 1295 1269
f 1254 1269 1270
f 1296 1322 1297
f 1271 1297 1298
f 1254 1270 1253
f 1252 1271 1272
f 1253 1167 1187
f 1168 1167 1169
f 1251 1171 1252
f 1168 1169 1170
f 1251 1172 1171
f 1160 1172 1251
f 1250 1162 1160
f 1249 1162 1250
f 1249 1164 1162
f 1248 1153 1165
f 1250 1274 1249
f 1274 1300 1301
f 1301 1327 1302
f 1248 1275 1276
f 1302 1327 1328
f 1328 1354 1329
f 1276 1303 1277
f 1304 1329 1330
f 1330 1356 1331
f 1306 1331 1332
f 1280 1306 1307
f 1278 1305 1279
f 1246 1277 1278
f 1246 1146 1158
f 1145 1146 1147
f 1150 1148 1245
f 1244 1151 1150
f 1244 1280 1243
f 1130 1131 1132
f 1242 1133 1243
f 1134 1135 1136
f 1241 1137 1242
f 1138 1139 1140
f 1142 1143 1123
f 1240 1141 1241
f 1240 1284 1239
f 1123 1143 1144
f 1238 1124 1239
f 1127 1126 1128
f 1127 1128 1117
f 1117 1128 1129
f 1117 1129 1118
f 1117 1118 1119
f 1119 1118 1120
f 1119 1120 1121
f 1121 1120 1122
f 1236 1120 1118
f 1234 1120 1236
f 1236 1288 1234
f 1236 1287 1288
f 1238 1286 1237
f 1287 1313 1314
f 1285 1312 1286
f 1313 1338 1339
f 1338 1364 1339
f 1311 1337 1312
f 1338 1363 1364
f 1336 1362 1337
f 1363 1389 1390
f 1389 1220 1390
f 1361 1388 1362
f 1387 1218 1388
f 1218 1217 942
f 1389 1219 1220
f 1223 1222 942
f 1390 1220 1221
f 1363 1390 1364
f 1391 1222 1392
f 1366 1392 1393
f 1340 1366 1341
f 1339 1364 1365
f 1313 1339 1314
f 1287 1314 1288
f 1315 1340 1341
f 1341 1367 1232
f 956 1232 957
f 955 954 956
f 958 955 959
f 1289 1233 953
f 1234 1288 1289
f 958 959 960
f 960 959 968
f 968 967 969
f 1234 1122 1120
f 1121 1122 971
f 1121 971 1198
f 969 967 970
f 968 959 967
f 959 963 964
f 959 962 963
f 1051 963 962
f 961 962 959
f 959 980 961
f 959 979 980
f 974 979 959
f 965 1029 966
f 963 1031 964
f 1019 1018 1029
f 1031 963 1051
f 1051 962 1052
f 1052 962 1050
f 961 1050 962
f 961 980 1045
f 1049 1023 1022
f 1045 980 979
f 974 978 979
f 977 978 974
f 1046 1025 1024
f 1027 1026 1048
f 1047 978 977
f 974 976 977
f 1044 975 973
f 972 1043 973
f 974 986 987
f 982 986 974
f 982 985 986
f 985 1040 986
f 986 1040 1041
f 1075 1041 1040
f 985 1039 1040
f 981 985 982
f 986 1041 987
f 972 1042 1043
f 973 1043 1044
f 1044 1027 1048
f 1074 1041 1075
f 1075 1040 1076
f 1077 1067 1068
f 1076 1040 1039
f 1038 1039 985
f 1037 1067 1077
f 1037 1066 1067
f 1065 1066 1037
f 981 1038 985
f 981 982 983
f 983 982 984
f 982 992 984
f 984 1035 983
f 984 1034 1035
f 1036 1065 1037
f 1072 1063 1064
f 1071 1063 1072
f 1071 1062 1063
f 1061 1062 1071
f 1034 1073 1035
f 1033 1071 1072
f 992 1034 984
f 982 991 992
f 990 991 982
f 1061 1071 1033
f 989 1032 991
f 990 989 991
f 996 1057 988
f 995 1053 996
f 993 1000 1001
f 999 1000 993
f 1053 995 994
f 1058 1053 1112
f 1054 1001 1055
f 1106 1056 1111
f 1055 1001 1000
f 1111 1056 1105
f 1111 1105 1104
f 1103 1111 1104
f 1103 1110 1111
f 997 1104 1105
f 999 998 1000
f 1006 1104 997
f 1004 1005 999
f 1006 1103 1104
f 1004 1003 1005
f 1002 1003 1004
f 1004 1011 1002
f 1004 1010 1011
f 1009 1010 1004
f 1010 1100 1011
f 1011 1101 1002
f 1102 1110 1103
f 1011 1100 1101
f 1010 1099 1100
f 1009 1008 1010
f 1007 1008 1009
f 1095 1109 1098
f 1009 1015 1007
f 1009 1014 1015
f 1012 1014 1009
f 1012 1013 1014
f 738 1013 1012
f 1097 1013 738
f 1096 1014 1013
f 1095 1108 1109
f 1096 1013 1097
f 1097 738 720
f 721 739 724
f 1012 672 738
f 724 739 740
f 724 711 721
f 723 741 722
f 722 742 725
f 725 743 726
f 729 714 730
f 730 747 729
f 729 719 714
f 728 719 729
f 726 745 727
f 745 682 681
f 730 746 747
f 729 747 728
f 734 719 728
f 733 719 734
f 748 665 663
f 734 749 733
f 750 661 751
f 733 718 719
f 732 751 752
f 661 752 751
f 731 753 737
f 735 754 757
f 737 736 715
f 57 806 807
f 806 759 807
f 807 759 765
f 758 765 759
f 758 764 765
f 765 764 808
f 808 764 804
f 808 804 809
f 809 804 801
f 809 801 810
f 810 48 809
f 809 48 50
f 50 51 809
f 809 51 52
f 809 52 53
f 810 801 811
f 804 761 801
f 801 761 768
f 801 768 767
f 801 767 802
f 766 767 768
f 767 766 772
f 768 769 766
f 768 763 769
f 761 763 768
f 761 762 763
f 763 762 764
f 804 762 761
f 809 53 808
f 808 53 54
f 808 54 55
f 808 55 807
f 807 55 56
f 764 762 804
f 807 765 808
f 807 56 57
f 806 760 759
f 755 759 760
f 735 757 805
f 657 757 659
f 755 760 756
f 656 655 657
f 758 759 755
f 763 764 758
f 653 769 763
f 654 655 656
f 654 616 652
f 651 769 653
f 652 616 650
f 632 649 650
f 651 766 769
f 772 766 773
f 632 648 649
f 631 648 632
f 688 707 687
f 630 631 632
f 614 630 632
f 607 609 628
f 607 108 615
f 605 109 614
f 615 108 107
f 109 119 110
f 615 107 700
f 110 119 120
f 700 472 471
f 120 371 328
f 459 471 472
f 457 461 459
f 458 462 457
f 547 546 328
f 544 462 458
f 545 546 547
f 556 545 557
f 550 555 556
f 543 542 544
f 540 460 542
f 469 539 540
f 554 541 555
f 481 467 469
f 548 554 549
f 486 466 548
f 479 480 481
f 691 479 689
f 688 629 689
f 483 466 484
f 600 485 265
f 484 466 260
f 259 260 261
f 485 263 265
f 38 265 37
f 39 37 36
f 39 36 40
f 706 40 46
f 706 46 709
f 31 44 45
f 688 709 707
f 707 708 686
f 42 771 770
f 772 773 686
f 41 803 771
f 802 767 772
f 811 801 802
f 810 811 48
f 812 803 41
f 41 771 42
f 33 27 34
f 42 770 43
f 32 43 44
f 33 25 27
f 32 44 31
f 30 22 21
f 31 45 30

