# https://github.com/mikedh/trimesh
v 0.01237053 -0.03812242 -0.08116679
v 0.01110490 -0.03767961 -0.08173221
v 0.01110551 -0.04070608 -0.08173070
v 0.01263922 -0.03821036 -0.08106858
v 0.01795085 -0.03953489 -0.08038761
v 0.01778886 -0.03950574 -0.08038800
v 0.01759889 -0.04348049 -0.08038693
v 0.01575473 -0.03908059 -0.08041862
v 0.01590399 -0.04272416 -0.08040698
v 0.01398111 -0.03861849 -0.08068226
v 0.01423572 -0.04195543 -0.08062617
v 0.01262695 -0.04125175 -0.08107163
v 0.02100683 -0.04473490 -0.08038455
v 0.02441840 -0.04532277 -0.08038402
v 0.02441838 -0.04015521 -0.08038660
v 0.02239130 -0.04007040 -0.08038680
v 0.02097199 -0.03995392 -0.08038697
v 0.01925479 -0.03974458 -0.08038732
v 0.01110551 0.04036568 -0.08173029
v 0.01262695 0.04091134 -0.08107121
v 0.01110662 0.04588555 -0.08172748
v 0.01267343 0.04612504 -0.08105263
v 0.01330474 0.04621307 -0.08085176
v 0.01423573 0.04161502 -0.08062576
v 0.01513243 0.04644041 -0.08047650
v 0.01590399 0.04238376 -0.08040653
v 0.01690251 0.04662183 -0.08038252
v 0.01759889 0.04314008 -0.08038649
v 0.01885219 0.04678748 -0.08038308
v 0.02100683 0.04439448 -0.08038410
v 0.02102547 0.04693928 -0.08038277
v 0.02441840 0.04498235 -0.08038356
v 0.02441840 0.04711538 -0.08038246
v 0.01396742 0.04369265 -0.12341261
v 0.01538366 0.04393695 -0.12340933
v 0.01508224 0.04337482 -0.12389332
v 0.02435510 0.04508689 -0.12338971
v 0.02435435 0.04458667 -0.12389344
v 0.02291950 0.04501811 -0.12339246
v 0.02189039 0.04443877 -0.12389440
v 0.02118885 0.04487434 -0.12339607
v 0.01929905 0.04413538 -0.12389399
v 0.01680547 0.04370023 -0.12389360
v 0.01665446 0.04418004 -0.12340624
v 0.01801315 0.04392735 -0.12389379
v 0.01792586 0.04441956 -0.12340321
v 0.01929658 0.04464024 -0.12340014
v 0.01674992 0.04368942 -0.12389359
v 0.01548296 0.04344710 -0.12389339
v 0.01547391 0.04344545 -0.12389339
v 0.01155065 0.04333607 -0.12341788
v 0.01161717 0.04284116 -0.12389277
v 0.01013938 0.04315480 -0.12342073
v 0.01084472 0.04273995 -0.12389265
v 0.00389985 0.04195773 -0.12389153
v 0.00384055 0.04245224 -0.12343173
v -0.02582208 -0.00016999 -0.12388721
v -0.02631885 -0.00017000 -0.12333451
v -0.02573137 0.00613274 -0.12388697
v -0.02627189 0.00466467 -0.12333474
v -0.02622802 0.00615099 -0.12333474
v 0.00253954 0.04178639 -0.12389131
v 0.00232638 0.04226068 -0.12343027
v -0.00370856 0.04070194 -0.12389032
v -0.00783252 0.03959462 -0.12388966
v -0.00768738 0.04016466 -0.12341535
v -0.00451546 0.04102904 -0.12342147
v -0.00369284 0.04121666 -0.12342221
v 0.00030289 0.04196475 -0.12342805
v -0.01155687 0.03869333 -0.12340470
v -0.01152713 0.03870695 -0.12340473
v -0.01137777 0.03822568 -0.12388911
v -0.01146760 0.03873407 -0.12340479
v -0.01134837 0.03878793 -0.12340494
v -0.01110917 0.03889395 -0.12340534
v -0.01062812 0.03909948 -0.12340641
v -0.00965682 0.03948540 -0.12340929
v -0.01158656 0.03867970 -0.12340467
v -0.01158473 0.03868053 -0.12340467
v -0.01158287 0.03868138 -0.12340469
v -0.01157916 0.03868310 -0.12340468
v -0.01157173 0.03868651 -0.12340470
v -0.01146149 0.03818699 -0.12388910
v -0.01295486 0.03800216 -0.12340003
v -0.01440032 0.03716553 -0.12339440
v -0.01398044 0.03683809 -0.12388869
v -0.01413385 0.03674254 -0.12388868
v -0.01586815 0.03553624 -0.12388840
v -0.01564359 0.03632282 -0.12339819
v -0.01698503 0.03525364 -0.12338606
v -0.01628382 0.03519992 -0.12388833
v -0.01789239 0.03369415 -0.12388809
v -0.01854615 0.03373348 -0.12336865
v -0.01933123 0.03200700 -0.12388786
v -0.01994323 0.03203010 -0.12336150
v -0.02088497 0.03062911 -0.12336192
v -0.02070734 0.02996037 -0.12388765
v -0.02199396 0.02861085 -0.12335919
v -0.02133322 0.02882434 -0.12388755
v -0.02244681 0.02763460 -0.12335577
v -0.02185203 0.02775114 -0.12388749
v -0.02338664 0.02521013 -0.12334613
v -0.02283588 0.02527715 -0.12388733
v -0.02393991 0.02343364 -0.12334178
v -0.02334464 0.02369043 -0.12388726
v -0.02418487 0.02253406 -0.12334114
v -0.02379104 0.02206001 -0.12388720
v -0.02430001 0.02208214 -0.12334140
v -0.02435582 0.02185570 -0.12334171
v -0.02389304 0.02164997 -0.12388718
v -0.02438330 0.02174238 -0.12334193
v -0.02439693 0.02168570 -0.12334203
v -0.02391800 0.02154733 -0.12388717
v -0.02440371 0.02165734 -0.12334210
v -0.02440710 0.02164317 -0.12334213
v -0.02392420 0.02152166 -0.12388717
v -0.02440879 0.02163607 -0.12334214
v -0.02440964 0.02163253 -0.12334216
v -0.02392575 0.02151524 -0.12388718
v -0.02441027 0.02162988 -0.12334216
v -0.02395643 0.02138569 -0.12388717
v -0.02473532 0.02016333 -0.12334069
v -0.02504013 0.01856080 -0.12333935
v -0.02454998 0.01847482 -0.12388709
v -0.02527938 0.01709393 -0.12333743
v -0.02479870 0.01693936 -0.12388706
v -0.02550182 0.01550035 -0.12333710
v -0.02501291 0.01539949 -0.12388704
v -0.02560125 0.01469193 -0.12333712
v -0.02516124 0.01416564 -0.12388701
v -0.02522827 0.01354793 -0.12388702
v -0.02594313 0.01118206 -0.12333599
v -0.02561183 0.00868875 -0.12388697
v -0.02566761 0.00761755 -0.12388697
v 0.02103875 -0.04519868 -0.12339685
v 0.01933088 -0.04498518 -0.12340053
v 0.01801316 -0.04426732 -0.12389424
v 0.01792586 -0.04475954 -0.12340368
v 0.01674991 -0.04402939 -0.12389404
v 0.01665446 -0.04452001 -0.12340669
v 0.01547390 -0.04378541 -0.12389382
v 0.01538366 -0.04427693 -0.12340978
v 0.01161716 -0.04318113 -0.12389320
v 0.01297351 -0.04387785 -0.12341529
v 0.01143469 -0.04315674 -0.12389318
v 0.01155066 -0.04367604 -0.12341832
v 0.00389984 -0.04229771 -0.12389196
v 0.00526860 -0.04295329 -0.12343089
v 0.00384055 -0.04279222 -0.12343216
v 0.02293299 -0.04485790 -0.12389502
v 0.02435434 -0.04492664 -0.12389389
v 0.02435509 -0.04542688 -0.12339018
v -0.02573137 -0.00647272 -0.12388703
v -0.02622802 -0.00649097 -0.12333482
v -0.02631547 -0.00165692 -0.12333445
v -0.02539050 -0.01217964 -0.12388711
v -0.02609992 -0.00921688 -0.12333441
v -0.02616365 -0.00801595 -0.12333382
v -0.02096797 -0.02984611 -0.12388792
v -0.02193441 -0.02907178 -0.12335984
v -0.02199255 -0.02777627 -0.12388774
v -0.02267095 -0.02745047 -0.12335388
v -0.02285577 -0.02555971 -0.12388759
v -0.02299838 -0.02662796 -0.12335042
v -0.02343130 -0.02373317 -0.12388749
v -0.02389773 -0.02392079 -0.12334225
v -0.02358033 -0.02320106 -0.12388746
v -0.02403791 -0.02342324 -0.12334160
v -0.02392614 -0.02185361 -0.12388740
v -0.02441048 -0.02196897 -0.12334239
v -0.02454998 -0.01881478 -0.12388729
v -0.02504013 -0.01890079 -0.12333956
v -0.02457296 -0.01868198 -0.12388729
v -0.02561830 -0.01488600 -0.12333726
v -0.02570496 -0.01410619 -0.12333724
v -0.01895066 -0.03283082 -0.12388825
v -0.01995668 -0.03235170 -0.12336181
v -0.02023615 -0.03106155 -0.12388804
v -0.02107081 -0.03066217 -0.12336226
v -0.02120889 -0.03042664 -0.12336218
v -0.01458944 -0.03679442 -0.12388898
v -0.01440032 -0.03750552 -0.12339477
v -0.01590311 -0.03584868 -0.12388876
v -0.01620128 -0.03624083 -0.12339479
v -0.01653391 -0.03532781 -0.12388866
v -0.01685626 -0.03570469 -0.12338791
v -0.01750510 -0.03442903 -0.12388849
v -0.01783799 -0.03480536 -0.12337643
v -0.01853348 -0.03408724 -0.12336911
v -0.01424856 -0.03701180 -0.12388903
v -0.01416258 -0.03706492 -0.12388905
v -0.01414104 -0.03707812 -0.12388904
v -0.01413430 -0.03708224 -0.12388904
v -0.01158659 -0.03901966 -0.12340507
v -0.01137963 -0.03856479 -0.12388949
v -0.01022045 -0.03960598 -0.12340795
v -0.01137777 -0.03856565 -0.12388949
v -0.01027336 -0.03904428 -0.12388968
v -0.00915293 -0.03947930 -0.12388986
v -0.00741750 -0.04058826 -0.12341650
v -0.00845265 -0.03972798 -0.12388997
v -0.00810061 -0.03984678 -0.12389003
v -0.00739302 -0.04007377 -0.12389015
v -0.00703763 -0.04018213 -0.12389021
v -0.00632393 -0.04038911 -0.12389032
v -0.00452238 -0.04136739 -0.12342188
v -0.00343700 -0.04110147 -0.12389079
v -0.00392788 -0.04150436 -0.12342241
v -0.00016479 -0.04222935 -0.12342770
v 0.00059946 -0.04184682 -0.12389144
v 0.00242541 -0.04211111 -0.12389172
v -0.01478258 0.00440628 -0.12388874
v -0.01504134 -0.00016999 -0.12388871
v -0.01280999 0.01301700 -0.12388901
v -0.01174307 0.01574750 -0.12388916
v -0.01433551 0.00733325 -0.12388878
v -0.01367429 0.01021485 -0.12388889
v -0.00905076 0.02089580 -0.12388957
v -0.01049136 0.01836897 -0.12388936
v -0.00744697 0.02328832 -0.12388981
v 0.01264601 0.03789315 -0.12389296
v 0.01004152 0.03694999 -0.12389255
v 0.00750869 0.03582891 -0.12389215
v 0.00502552 0.03451570 -0.12389176
v 0.00264867 0.03303687 -0.12389138
v 0.00035697 0.03137664 -0.12389102
v -0.00182538 0.02954611 -0.12389068
v -0.00381875 0.02762011 -0.12389038
v -0.00567162 0.02556346 -0.12389008
v 0.01527503 0.03864520 -0.12389337
v 0.02435413 0.03983566 -0.12389482
v 0.02332571 0.03980101 -0.12389466
v 0.02063025 0.03959971 -0.12389422
v 0.01795332 0.03921661 -0.12389380
v -0.02306390 0.00438812 -0.09943802
v -0.02315535 0.00309470 -0.09987760
v -0.02310440 -0.00017011 -0.09945962
v -0.02436445 0.00307170 -0.10777313
v -0.02506244 -0.00017007 -0.11272363
v -0.02353130 -0.00017011 -0.10211340
v -0.02541489 0.00303639 -0.11561979
v -0.02533959 0.00624114 -0.11560488
v -0.02475044 0.00628472 -0.11106654
v -0.02428784 0.00631177 -0.10774536
v -0.02307740 0.00635773 -0.09983687
v -0.02300729 0.00635941 -0.09940795
v 0.00859712 0.04545030 -0.08302706
v 0.00784366 0.04504791 -0.09096418
v 0.00343664 0.04426827 -0.09033793
v 0.00384198 0.04376547 -0.10448300
v 0.00384164 0.04293360 -0.11722723
v 0.00071788 0.04257798 -0.11566789
v -0.00371138 0.04171600 -0.11485775
v -0.01017126 0.03957448 -0.11368660
v -0.02415274 0.01501392 -0.11117630
v -0.02351359 0.01955783 -0.11129317
v -0.02252027 0.02406269 -0.11147300
v -0.01410741 0.03731918 -0.11297876
v -0.01587688 0.03588469 -0.11266188
v -0.01746535 0.03424929 -0.11237783
v -0.01885307 0.03243616 -0.11212980
v -0.02003743 0.03047675 -0.11191810
v -0.02102870 0.02840889 -0.11174080
v -0.02184660 0.02626943 -0.11159415
v -0.01219494 0.03854505 -0.11332216
v -0.00806284 0.04043160 -0.11406747
v 0.00210709 0.04355028 -0.10286701
v 0.00657279 0.04420958 -0.10361844
v 0.00890494 0.04443018 -0.10448382
v 0.01107273 0.04465254 -0.10437619
v 0.01415443 0.04489196 -0.10448468
v 0.01677751 0.04594251 -0.09222462
v 0.02439622 0.04608236 -0.09544988
v 0.02438292 0.04535117 -0.10448632
v 0.02441778 0.04709043 -0.08079850
v 0.01230057 0.04558609 -0.09159441
v -0.00249531 0.04262615 -0.08877182
v 0.00147345 0.04384488 -0.08671632
v -0.00087994 0.04316551 -0.08971955
v 0.00590701 0.04491522 -0.08442020
v -0.00583869 0.04145036 -0.09521945
v -0.00158578 0.04291714 -0.09588966
v -0.00853224 0.04000448 -0.09189877
v -0.00600482 0.04124927 -0.09058958
v -0.00553760 0.04145325 -0.09034757
v -0.01333865 0.03664976 -0.09438886
v -0.01279760 0.03711883 -0.09410852
v -0.01253010 0.03791424 -0.10040662
v -0.01078246 0.03863673 -0.09306449
v -0.02105444 0.02263180 -0.09838974
v -0.02036352 0.02511903 -0.09803098
v -0.02072654 0.02437634 -0.09903692
v -0.01953782 0.02747187 -0.09760249
v -0.02007227 0.02661593 -0.09914530
v -0.01855989 0.02968664 -0.09709522
v -0.01927796 0.02878847 -0.09927732
v -0.01761375 0.03143257 -0.09660460
v -0.01831434 0.03089239 -0.09943792
v -0.01634835 0.03334121 -0.09594861
v -0.01716213 0.03289056 -0.09963037
v -0.01492913 0.03507220 -0.09521306
v -0.01581064 0.03474586 -0.09985653
v -0.01426080 0.03642805 -0.10011627
v -0.02148471 0.02071885 -0.09861331
v -0.02169039 0.01981003 -0.09887822
v -0.02206794 0.01738351 -0.09891665
v -0.02281173 0.01019994 -0.09930469
v -0.01065594 0.03919480 -0.10072130
v -0.00866865 0.04028062 -0.10105516
v -0.00659257 0.04119500 -0.10140409
v -0.00229150 0.04259013 -0.10212723
v -0.02250388 0.01387567 -0.09914380
v 0.01941247 0.04518760 -0.10448553
v 0.00895557 0.04369949 -0.11400812
v 0.01416032 0.04419884 -0.11400397
v 0.01935844 0.04471569 -0.11400437
v 0.02436229 0.04495696 -0.11851054
v 0.02437503 0.04504528 -0.10985669
v 0.02436947 0.04494381 -0.11362872
v -0.01478258 -0.00474625 -0.12388878
v 0.02435412 -0.04017563 -0.12389524
v -0.01433590 -0.00767117 -0.12388887
v -0.01367429 -0.01055482 -0.12388898
v -0.01281082 -0.01335458 -0.12388914
v -0.01174307 -0.01608748 -0.12388932
v -0.01048717 -0.01871695 -0.12388954
v -0.00905076 -0.02123578 -0.12388979
v -0.00745003 -0.02362408 -0.12389005
v -0.00567162 -0.02590342 -0.12389034
v -0.00381595 -0.02796299 -0.12389065
v -0.00182539 -0.02988608 -0.12389098
v 0.01264601 -0.03823313 -0.12389334
v 0.01003928 -0.03728906 -0.12389293
v 0.00750870 -0.03616887 -0.12389252
v 0.00502951 -0.03485796 -0.12389211
v 0.00264867 -0.03337684 -0.12389172
v 0.00035144 -0.03171229 -0.12389134
v 0.02063023 -0.03993968 -0.12389463
v 0.01795332 -0.03955659 -0.12389420
v 0.01527487 -0.03898514 -0.12389377
v -0.01773098 -0.00017001 -0.09667878
v -0.01504427 -0.00017014 -0.09528837
v -0.01496022 0.00244342 -0.09524236
v -0.02041769 -0.00017048 -0.09806920
v -0.01478254 0.00440622 -0.09514956
v -0.01451042 0.00635527 -0.09500788
v 0.02441838 0.03981479 -0.08038619
v 0.02127134 0.03964230 -0.08038653
v -0.01367596 0.01019992 -0.09457422
v -0.01280952 0.01300805 -0.09412445
v -0.01174479 0.01573207 -0.09357204
v -0.01048731 0.01836431 -0.09291986
v -0.00905256 0.02087967 -0.09217594
v -0.00743963 0.02328447 -0.09133978
v -0.00567352 0.02554643 -0.09042440
v -0.00381523 0.02760827 -0.08946133
v -0.00182740 0.02952807 -0.08843128
v 0.00035912 0.03136132 -0.08729837
v 0.00264653 0.03301764 -0.08611328
v 0.00502826 0.03449870 -0.08487943
v 0.00750641 0.03580840 -0.08359574
v 0.01110490 0.03733921 -0.08173182
v 0.01182687 0.03759762 -0.08138781
v 0.01263456 0.03786844 -0.08106983
v 0.01341966 0.03811356 -0.08082297
v 0.01508532 0.03857595 -0.08048648
v 0.01703474 0.03902055 -0.08038736
v 0.01532512 0.03863618 -0.08045783
v 0.01911157 0.03938328 -0.08038697
v 0.01795085 0.03919447 -0.08038721
v -0.02308547 -0.00341627 -0.09944954
v -0.02300730 -0.00669964 -0.09940801
v -0.02479819 -0.00662169 -0.11142065
v -0.01451042 -0.00669554 -0.09500794
v -0.01478415 -0.00473245 -0.09515045
v -0.01485100 -0.00410847 -0.09518530
v -0.01499721 -0.00214237 -0.09526183
v -0.01367596 -0.01054020 -0.09457434
v -0.01280917 -0.01334934 -0.09412440
v -0.01174479 -0.01607236 -0.09357219
v -0.01048978 -0.01869988 -0.09292132
v -0.00905256 -0.02121996 -0.09217615
v -0.00743656 -0.02362899 -0.09133843
v -0.00567353 -0.02588675 -0.09042466
v -0.00381735 -0.02794639 -0.08946272
v -0.00182740 -0.02986841 -0.08843158
v 0.00036406 -0.03170551 -0.08729613
v 0.00264652 -0.03335800 -0.08611362
v 0.00503512 -0.03484301 -0.08487623
v 0.00750641 -0.03614878 -0.08359610
v 0.00062052 -0.04394712 -0.08715850
v -0.00087994 -0.04350583 -0.08971999
v 0.00343664 -0.04460859 -0.09033839
v -0.00583868 -0.04179063 -0.09521987
v -0.00601694 -0.04158420 -0.09059628
v -0.00817554 -0.04053678 -0.09171441
v -0.02027602 -0.02573600 -0.09798583
v -0.02007227 -0.02695616 -0.09914558
v -0.01927796 -0.02912869 -0.09927762
v -0.02126795 -0.02206697 -0.09850088
v -0.02169039 -0.02015025 -0.09887841
v -0.02072654 -0.02471657 -0.09903716
v -0.01885307 -0.03277627 -0.11213014
v -0.01746535 -0.03458939 -0.11237818
v -0.01587688 -0.03622476 -0.11266223
v -0.02003743 -0.03081684 -0.11191841
v -0.02102870 -0.02874900 -0.11174109
v -0.02252028 -0.02440280 -0.11147324
v -0.02184660 -0.02660954 -0.11159442
v -0.02415274 -0.01535402 -0.11117645
v -0.02351359 -0.01989793 -0.11129337
v -0.02191930 -0.01868162 -0.09883948
v -0.02248213 -0.01442526 -0.09913260
v -0.02286622 -0.00966984 -0.09933335
v -0.02108511 -0.02284676 -0.09840591
v -0.00158579 -0.04325740 -0.09589009
v -0.00253195 -0.04295378 -0.08879123
v -0.00550302 -0.04180839 -0.09033009
v 0.00395018 -0.04481523 -0.08543407
v 0.00784367 -0.04538822 -0.09096465
v 0.00744802 -0.04557141 -0.08362261
v 0.01110662 -0.04622595 -0.08172796
v 0.01230057 -0.04592640 -0.09159488
v 0.01169802 -0.04631988 -0.08144189
v 0.01689705 -0.04696174 -0.08038298
v 0.01517553 -0.04678570 -0.08047166
v 0.01677750 -0.04628280 -0.09222509
v 0.01497197 -0.04676250 -0.08049818
v 0.01329708 -0.04655244 -0.08085445
v 0.02441778 -0.04743084 -0.08079897
v 0.02441840 -0.04745578 -0.08038294
v 0.02376508 -0.04742716 -0.08038298
v 0.02440447 -0.04683713 -0.08984548
v 0.02351402 -0.04741552 -0.08038300
v 0.02301197 -0.04739115 -0.08038304
v 0.02250999 -0.04736530 -0.08038308
v 0.02225902 -0.04735180 -0.08038310
v 0.02175716 -0.04732363 -0.08038316
v 0.02000144 -0.04721227 -0.08038335
v 0.01950006 -0.04717663 -0.08038350
v 0.02125540 -0.04729387 -0.08038322
v 0.02100455 -0.04727839 -0.08038326
v 0.02050294 -0.04724617 -0.08038330
v 0.01899881 -0.04713919 -0.08038361
v 0.01767802 -0.04703159 -0.08038497
v 0.02438292 -0.04569134 -0.10448679
v 0.01941246 -0.04552777 -0.10448599
v 0.01415443 -0.04523213 -0.10448514
v 0.00384248 -0.04379853 -0.10962314
v 0.00384199 -0.04410565 -0.10448344
v 0.00210709 -0.04389047 -0.10286745
v 0.00657279 -0.04454976 -0.10361888
v 0.00890494 -0.04477036 -0.10448427
v 0.01107273 -0.04499272 -0.10437665
v 0.00071788 -0.04291804 -0.11566832
v -0.00371138 -0.04205606 -0.11485817
v -0.00806283 -0.04077168 -0.11406787
v -0.01410741 -0.03765927 -0.11297916
v -0.01219494 -0.03888513 -0.11332256
v -0.01017126 -0.03991456 -0.11368700
v -0.01831434 -0.03123261 -0.09943825
v -0.01716213 -0.03323079 -0.09963072
v -0.01581064 -0.03508607 -0.09985689
v -0.01426080 -0.03676826 -0.10011663
v -0.01253009 -0.03825446 -0.10040702
v -0.01065594 -0.03953502 -0.10072171
v -0.00866865 -0.04062082 -0.10105557
v -0.00659257 -0.04153521 -0.10140451
v -0.00229150 -0.04293032 -0.10212767
v -0.01019866 -0.03936061 -0.09276243
v -0.01208008 -0.03803772 -0.09373715
v -0.01366500 -0.03669185 -0.09455834
v -0.01522653 -0.03507878 -0.09536753
v -0.01661072 -0.03331831 -0.09608495
v -0.01783781 -0.03138795 -0.09672109
v -0.01820709 -0.03071640 -0.09691259
v -0.01932396 -0.02834083 -0.09749182
v 0.01935843 -0.04505576 -0.11400486
v 0.02436857 -0.04527546 -0.11423907
v 0.02437575 -0.04540494 -0.10936007
v 0.02436184 -0.04530621 -0.11881409
v 0.01416032 -0.04453892 -0.11400446
v 0.00895557 -0.04403955 -0.11400860
f 1 2 3
f 3 2 390
f 390 419 3
f 3 419 421
f 3 421 422
f 422 424 3
f 3 424 12
f 429 12 424
f 428 12 429
f 428 11 12
f 11 4 12
f 11 10 4
f 9 10 11
f 9 8 10
f 7 8 9
f 7 6 8
f 5 6 7
f 7 18 5
f 7 17 18
f 13 17 7
f 7 444 13
f 13 444 440
f 13 440 439
f 439 443 13
f 443 442 13
f 13 442 441
f 13 441 438
f 437 13 438
f 436 13 437
f 436 14 13
f 13 14 15
f 15 16 13
f 435 14 436
f 435 434 14
f 14 434 432
f 14 432 431
f 7 445 444
f 425 445 7
f 13 16 17
f 9 425 7
f 9 426 425
f 428 426 9
f 9 11 428
f 12 4 3
f 390 391 419
f 389 391 390
f 389 417 391
f 388 417 389
f 388 418 417
f 387 418 388
f 387 395 418
f 396 395 387
f 394 395 396
f 468 394 396
f 468 396 467
f 467 460 468
f 468 460 457
f 468 457 469
f 469 457 456
f 469 456 451
f 451 456 455
f 208 455 456
f 208 456 206
f 206 207 208
f 208 207 209
f 209 207 210
f 209 210 149
f 149 210 211
f 335 211 210
f 335 210 336
f 334 211 335
f 334 147 211
f 333 147 334
f 333 145 147
f 332 145 333
f 332 143 145
f 143 144 145
f 145 144 146
f 483 146 144
f 483 144 482
f 482 144 142
f 482 142 140
f 482 140 478
f 448 482 478
f 448 478 447
f 447 427 448
f 447 433 427
f 433 442 427
f 433 441 442
f 438 441 433
f 433 437 438
f 433 436 437
f 435 436 433
f 433 434 435
f 433 432 434
f 430 432 433
f 430 431 432
f 427 442 443
f 427 443 439
f 439 440 427
f 440 444 427
f 427 444 445
f 427 445 425
f 425 426 427
f 427 426 428
f 427 428 423
f 423 428 429
f 423 429 424
f 422 423 424
f 422 420 423
f 420 452 423
f 423 452 454
f 452 453 454
f 452 450 453
f 453 450 449
f 449 483 453
f 449 148 483
f 149 148 449
f 147 148 149
f 147 146 148
f 449 450 451
f 451 450 452
f 448 454 453
f 423 454 448
f 420 451 452
f 393 451 420
f 393 416 451
f 392 416 393
f 391 392 393
f 391 393 419
f 391 417 392
f 392 417 416
f 416 417 394
f 469 416 394
f 419 393 420
f 419 420 421
f 421 420 422
f 446 433 447
f 447 480 446
f 448 427 423
f 447 478 480
f 478 479 480
f 479 478 481
f 481 478 136
f 481 136 135
f 135 136 137
f 137 136 138
f 137 138 139
f 339 137 139
f 338 137 339
f 338 150 137
f 321 150 338
f 321 151 150
f 135 150 151
f 135 151 152
f 339 139 340
f 340 139 141
f 340 141 332
f 139 140 141
f 139 138 140
f 137 150 135
f 135 152 481
f 478 138 136
f 453 482 448
f 478 140 138
f 141 140 142
f 141 142 143
f 453 483 482
f 148 146 483
f 143 142 144
f 332 141 143
f 145 146 147
f 149 211 147
f 449 209 149
f 449 455 209
f 336 210 207
f 336 207 337
f 337 207 205
f 337 205 331
f 331 205 204
f 331 204 203
f 203 204 200
f 200 202 203
f 200 201 202
f 199 201 200
f 201 199 331
f 331 199 198
f 331 198 330
f 330 198 197
f 197 198 196
f 196 195 197
f 194 195 196
f 194 193 195
f 182 193 194
f 459 182 194
f 459 194 460
f 458 182 459
f 466 458 459
f 465 458 466
f 465 405 458
f 464 405 465
f 465 472 464
f 464 472 473
f 464 473 463
f 463 404 464
f 463 403 404
f 403 189 404
f 404 189 188
f 176 188 189
f 187 188 176
f 187 186 188
f 185 186 187
f 329 185 187
f 329 187 328
f 329 183 185
f 181 183 329
f 329 190 181
f 329 191 190
f 182 190 191
f 182 191 192
f 192 191 329
f 329 193 192
f 330 193 329
f 181 190 182
f 181 182 183
f 183 182 184
f 183 184 185
f 185 184 186
f 405 186 184
f 188 186 405
f 328 187 176
f 328 176 178
f 328 178 327
f 327 178 159
f 327 159 161
f 159 160 161
f 159 180 160
f 159 179 180
f 406 180 179
f 406 179 403
f 462 406 403
f 461 406 462
f 461 407 406
f 407 160 406
f 407 162 160
f 407 164 162
f 163 162 164
f 163 164 165
f 165 164 166
f 165 166 167
f 167 166 168
f 408 168 166
f 408 166 409
f 398 408 409
f 398 409 399
f 397 398 399
f 399 477 397
f 397 477 382
f 382 477 476
f 382 476 383
f 383 476 475
f 461 475 476
f 461 476 399
f 383 475 474
f 384 383 474
f 474 473 384
f 462 474 475
f 463 474 462
f 381 397 382
f 381 415 397
f 402 397 415
f 402 415 400
f 400 401 402
f 400 412 401
f 401 412 411
f 411 412 410
f 410 172 411
f 410 174 172
f 173 172 174
f 171 172 173
f 171 170 172
f 169 170 171
f 171 325 169
f 169 325 167
f 167 325 326
f 171 324 325
f 169 168 170
f 173 324 171
f 173 323 324
f 156 323 173
f 156 322 323
f 320 322 156
f 153 320 156
f 156 157 153
f 156 175 157
f 373 157 175
f 373 175 410
f 410 413 373
f 373 413 414
f 378 414 413
f 378 413 379
f 379 413 412
f 379 412 380
f 374 414 378
f 374 372 414
f 372 374 375
f 372 375 371
f 371 375 376
f 371 376 377
f 341 371 377
f 341 377 342
f 341 342 343
f 341 343 344
f 235 344 343
f 235 343 246
f 246 343 345
f 246 345 346
f 246 346 307
f 307 245 246
f 307 244 245
f 244 236 245
f 245 236 235
f 235 236 237
f 236 240 237
f 237 240 371
f 371 240 239
f 344 237 371
f 236 239 240
f 238 239 236
f 238 241 239
f 239 241 60
f 239 60 58
f 59 58 60
f 57 58 59
f 57 155 58
f 57 154 155
f 373 155 154
f 373 239 155
f 372 239 373
f 373 154 158
f 153 158 154
f 153 154 57
f 57 213 153
f 212 213 57
f 57 59 212
f 212 59 134
f 212 134 216
f 216 134 133
f 61 133 134
f 132 133 61
f 61 242 132
f 132 242 255
f 132 255 129
f 129 131 132
f 129 130 131
f 128 130 129
f 214 130 128
f 128 126 214
f 127 126 128
f 125 126 127
f 255 125 127
f 125 255 123
f 123 255 256
f 123 256 122
f 122 121 123
f 123 121 124
f 124 121 215
f 214 124 215
f 215 121 119
f 120 119 121
f 119 120 118
f 256 118 120
f 117 118 256
f 117 116 118
f 115 116 117
f 115 113 116
f 116 113 219
f 219 113 110
f 112 110 113
f 112 113 114
f 112 114 256
f 256 114 115
f 256 111 112
f 256 109 111
f 109 110 111
f 109 107 110
f 108 107 109
f 106 107 108
f 106 105 107
f 104 105 106
f 104 103 105
f 102 103 104
f 257 102 104
f 264 102 257
f 257 292 264
f 264 292 294
f 264 294 263
f 263 294 296
f 294 295 296
f 296 295 297
f 296 297 298
f 298 297 299
f 298 299 300
f 261 298 300
f 261 300 260
f 260 300 302
f 260 302 259
f 259 302 303
f 302 286 303
f 303 286 288
f 286 287 288
f 288 287 289
f 288 289 283
f 283 308 288
f 288 308 265
f 288 265 258
f 258 265 84
f 265 78 84
f 78 83 84
f 78 72 83
f 72 227 83
f 83 227 228
f 228 86 83
f 228 87 86
f 85 86 87
f 85 87 88
f 85 88 89
f 89 88 90
f 88 91 90
f 90 91 92
f 229 92 91
f 220 92 229
f 220 94 92
f 97 94 220
f 96 94 97
f 96 97 98
f 98 97 99
f 98 99 100
f 263 98 100
f 262 98 263
f 100 99 101
f 101 99 218
f 101 218 219
f 219 103 101
f 100 101 102
f 218 99 97
f 262 96 98
f 261 96 262
f 261 95 96
f 95 94 96
f 93 94 95
f 260 93 95
f 218 97 220
f 93 92 94
f 90 92 93
f 259 90 93
f 258 90 259
f 229 91 88
f 258 89 90
f 85 89 258
f 88 87 229
f 229 87 228
f 85 83 86
f 72 226 227
f 65 226 72
f 72 76 65
f 65 76 77
f 254 77 76
f 254 76 75
f 75 74 254
f 254 74 265
f 74 73 265
f 265 73 71
f 72 71 73
f 70 71 72
f 72 82 70
f 72 81 82
f 80 81 72
f 265 81 80
f 80 79 265
f 72 79 80
f 265 82 81
f 70 82 265
f 265 71 70
f 72 73 74
f 74 75 72
f 266 77 254
f 254 309 266
f 266 309 310
f 281 310 309
f 281 309 283
f 283 284 281
f 281 284 285
f 358 285 284
f 358 284 357
f 359 285 358
f 359 277 285
f 359 278 277
f 360 278 359
f 360 280 278
f 361 280 360
f 361 362 280
f 280 362 19
f 280 19 247
f 247 19 21
f 19 20 21
f 363 20 19
f 364 20 363
f 365 20 364
f 365 24 20
f 23 20 24
f 22 20 23
f 23 24 25
f 25 24 26
f 25 26 27
f 27 26 28
f 367 28 26
f 370 28 367
f 369 28 370
f 369 30 28
f 29 28 30
f 29 30 31
f 31 30 32
f 348 32 30
f 347 32 348
f 31 32 33
f 348 30 369
f 367 26 368
f 368 26 366
f 27 28 29
f 366 26 24
f 366 24 365
f 21 20 22
f 363 19 362
f 281 285 277
f 281 277 282
f 282 277 279
f 282 279 249
f 249 279 280
f 279 278 280
f 249 280 247
f 247 248 249
f 248 247 276
f 276 270 248
f 248 270 268
f 269 268 270
f 269 270 271
f 315 269 271
f 314 269 315
f 51 314 315
f 51 315 34
f 34 315 35
f 315 44 35
f 44 49 35
f 35 49 50
f 35 50 36
f 36 50 230
f 36 230 52
f 52 230 221
f 52 221 54
f 54 221 55
f 221 222 55
f 55 222 223
f 55 223 62
f 62 223 224
f 62 224 64
f 64 68 62
f 62 68 69
f 253 69 68
f 68 67 253
f 253 67 266
f 67 66 266
f 66 67 64
f 64 65 66
f 64 225 65
f 253 252 69
f 252 63 69
f 252 56 63
f 251 56 252
f 56 251 53
f 53 55 56
f 53 251 314
f 251 250 314
f 250 251 252
f 252 267 250
f 311 267 252
f 249 267 311
f 249 268 267
f 250 267 268
f 56 62 63
f 311 252 253
f 253 310 311
f 282 311 310
f 62 69 63
f 64 67 68
f 64 224 225
f 55 62 56
f 53 54 55
f 52 54 53
f 51 52 53
f 51 36 52
f 230 50 49
f 230 49 234
f 234 49 48
f 234 48 43
f 43 48 44
f 43 44 45
f 45 44 46
f 45 46 42
f 42 233 45
f 42 232 233
f 40 232 42
f 40 231 232
f 38 231 40
f 39 38 40
f 39 40 41
f 316 39 41
f 317 39 316
f 317 37 39
f 316 319 317
f 316 318 319
f 274 318 316
f 316 313 274
f 274 313 272
f 272 313 271
f 272 271 276
f 276 25 272
f 272 25 27
f 272 27 29
f 275 272 29
f 273 272 275
f 275 29 31
f 31 33 275
f 276 23 25
f 22 23 276
f 276 21 22
f 272 273 274
f 316 271 313
f 316 41 47
f 42 47 41
f 316 47 46
f 316 46 315
f 37 38 39
f 41 40 42
f 45 233 234
f 42 46 47
f 45 234 43
f 44 48 49
f 315 46 44
f 34 35 36
f 34 36 51
f 53 314 51
f 314 250 269
f 315 271 316
f 250 268 269
f 276 271 270
f 276 247 21
f 248 268 249
f 249 311 282
f 277 278 279
f 357 284 283
f 282 310 281
f 266 310 253
f 254 308 309
f 266 66 77
f 65 77 66
f 72 75 76
f 65 225 226
f 72 78 79
f 84 83 85
f 79 78 265
f 258 84 85
f 265 308 254
f 283 309 308
f 357 283 289
f 357 289 356
f 356 289 287
f 356 287 286
f 356 286 355
f 355 286 301
f 355 301 299
f 355 299 354
f 258 303 288
f 302 301 286
f 259 303 258
f 259 93 260
f 300 301 302
f 260 95 261
f 262 298 261
f 300 299 301
f 354 299 297
f 354 297 353
f 262 296 298
f 353 297 295
f 353 295 293
f 353 293 352
f 352 293 291
f 352 291 290
f 290 291 292
f 290 292 304
f 304 292 305
f 304 305 306
f 350 304 306
f 350 306 349
f 349 306 312
f 349 312 307
f 307 312 255
f 255 312 306
f 351 304 350
f 256 306 305
f 256 305 257
f 106 256 257
f 351 290 304
f 352 290 351
f 292 291 293
f 294 293 295
f 263 296 262
f 263 100 264
f 292 293 294
f 257 305 292
f 264 100 102
f 102 101 103
f 219 105 103
f 257 104 106
f 107 105 219
f 108 256 106
f 108 109 256
f 111 110 112
f 219 110 107
f 219 119 116
f 114 113 115
f 256 115 117
f 118 116 119
f 215 119 219
f 120 121 122
f 256 120 122
f 255 306 256
f 123 124 125
f 125 124 126
f 214 126 124
f 127 128 129
f 214 131 130
f 217 131 214
f 217 133 131
f 129 255 127
f 242 243 255
f 242 241 243
f 255 243 244
f 243 238 244
f 61 60 242
f 132 131 133
f 216 133 217
f 61 134 59
f 59 60 61
f 239 58 155
f 242 60 241
f 243 241 238
f 244 238 236
f 255 244 307
f 307 346 349
f 245 235 246
f 237 344 235
f 344 371 341
f 371 239 372
f 373 414 372
f 158 157 373
f 156 174 175
f 153 157 158
f 153 213 320
f 173 174 156
f 410 175 174
f 411 172 170
f 411 170 408
f 402 411 408
f 410 412 413
f 412 400 380
f 401 411 402
f 380 400 415
f 380 415 381
f 399 476 477
f 398 397 402
f 399 409 407
f 402 408 398
f 408 170 168
f 167 168 169
f 167 326 165
f 409 166 164
f 326 163 165
f 326 161 163
f 161 162 163
f 409 164 407
f 399 407 461
f 462 475 461
f 403 179 177
f 178 177 179
f 406 160 180
f 161 160 162
f 327 161 326
f 178 179 159
f 176 177 178
f 176 189 177
f 404 188 405
f 403 177 189
f 462 403 463
f 463 473 474
f 384 473 472
f 384 472 385
f 472 471 385
f 385 471 470
f 466 470 471
f 467 470 466
f 385 470 386
f 386 470 396
f 465 471 472
f 464 404 405
f 405 184 458
f 466 471 465
f 466 459 467
f 458 184 182
f 192 193 182
f 195 193 330
f 460 194 196
f 330 197 195
f 196 198 199
f 196 199 200
f 457 196 200
f 457 200 206
f 200 205 206
f 331 202 201
f 203 202 331
f 200 204 205
f 206 205 207
f 209 455 208
f 451 455 449
f 451 416 469
f 206 456 457
f 460 196 457
f 467 459 460
f 467 396 470
f 469 394 468
f 386 396 387
f 394 418 395
f 394 417 418
f 1 3 4

