# Yoyo string with finger ring + coiled body
# Vertices 230
# Edges 231
# Faces 0
#
v -0.0129676746 0.3412060760 0.0000000000
v -0.0129676746 0.3410317645 0.0019923894
v -0.0129676746 0.3405141264 0.0039242410
v -0.0129676746 0.3396688899 0.0057368566
v -0.0129676746 0.3385217370 0.0073751607
v -0.0129676746 0.3371075235 0.0087893743
v -0.0129676746 0.3354692194 0.0099365271
v -0.0129676746 0.3336566038 0.0107817637
v -0.0129676746 0.3317247521 0.0112994018
v -0.0129676746 0.3297323627 0.0114737132
v -0.0129676746 0.3277399733 0.0112994018
v -0.0129676746 0.3258081217 0.0107817637
v -0.0129676746 0.3239955061 0.0099365271
v -0.0129676746 0.3223572020 0.0087893743
v -0.0129676746 0.3209429885 0.0073751607
v -0.0129676746 0.3197958356 0.0057368566
v -0.0129676746 0.3189505991 0.0039242410
v -0.0129676746 0.3184329610 0.0019923894
v -0.0129676746 0.3184329610 -0.0019923894
v -0.0129676746 0.3189505991 -0.0039242410
v -0.0129676746 0.3197958356 -0.0057368566
v -0.0129676746 0.3209429885 -0.0073751607
v -0.0129676746 0.3223572020 -0.0087893743
v -0.0129676746 0.3239955061 -0.0099365271
v -0.0129676746 0.3258081217 -0.0107817637
v -0.0129676746 0.3277399733 -0.0112994018
v -0.0129676746 0.3297323627 -0.0114737132
v -0.0129676746 0.3317247521 -0.0112994018
v -0.0129676746 0.3336566038 -0.0107817637
v -0.0129676746 0.3354692194 -0.0099365271
v -0.0129676746 0.3371075235 -0.0087893743
v -0.0129676746 0.3385217370 -0.0073751607
v -0.0129676746 0.3396688899 -0.0057368566
v -0.0129676746 0.3405141264 -0.0039242410
v -0.0129676746 0.3410317645 -0.0019923894
v -0.0129676746 0.3182586495 0.0000000000
v -0.0129453292 0.3162587744 0.0000000000
v -0.0129229839 0.3142588992 0.0000000000
v -0.0129006385 0.3122590240 0.0000000000
v -0.0128782931 0.3102591489 0.0000000000
v -0.0128559478 0.3082592737 0.0000000000
v -0.0128336024 0.3062593985 0.0000000000
v -0.0128112570 0.3042595234 0.0000000000
v -0.0127889117 0.3022596482 0.0000000000
v -0.0127665663 0.3002597730 0.0000000000
v -0.0127442209 0.2982598979 0.0000000000
v -0.0127218756 0.2962600227 0.0000000000
v -0.0126995302 0.2942601475 0.0000000000
v -0.0126771848 0.2922602724 0.0000000000
v -0.0126548395 0.2902603972 0.0000000000
v -0.0126324941 0.2882605220 0.0000000000
v -0.0126101487 0.2862606469 0.0000000000
v -0.0125878034 0.2842607717 0.0000000000
v -0.0125654580 0.2822608965 0.0000000000
v -0.0125431126 0.2802610214 0.0000000000
v -0.0125207673 0.2782611462 0.0000000000
v -0.0124984219 0.2762612710 0.0000000000
v -0.0124760765 0.2742613959 0.0000000000
v -0.0124537312 0.2722615207 0.0000000000
v -0.0124313858 0.2702616455 0.0000000000
v -0.0124090404 0.2682617704 0.0000000000
v -0.0123866951 0.2662618952 0.0000000000
v -0.0123643497 0.2642620200 0.0000000000
v -0.0123420043 0.2622621449 0.0000000000
v -0.0123196590 0.2602622697 0.0000000000
v -0.0122973136 0.2582623945 0.0000000000
v -0.0122749682 0.2562625194 0.0000000000
v -0.0122526229 0.2542626442 0.0000000000
v -0.0122302775 0.2522627690 0.0000000000
v -0.0122079321 0.2502628939 0.0000000000
v -0.0121855868 0.2482630187 0.0000000000
v -0.0121632414 0.2462631435 0.0000000000
v -0.0121408960 0.2442632684 0.0000000000
v -0.0121185507 0.2422633932 0.0000000000
v -0.0120962053 0.2402635180 0.0000000000
v -0.0120738599 0.2382636429 0.0000000000
v -0.0120515146 0.2362637677 0.0000000000
v -0.0120291692 0.2342638925 0.0000000000
v -0.0120068238 0.2322640174 0.0000000000
v -0.0119844785 0.2302641422 0.0000000000
v -0.0119621331 0.2282642670 0.0000000000
v -0.0119397877 0.2262643919 0.0000000000
v -0.0119174424 0.2242645167 0.0000000000
v -0.0118950970 0.2222646415 0.0000000000
v -0.0118727516 0.2202647664 0.0000000000
v -0.0118504063 0.2182648912 0.0000000000
v -0.0118280609 0.2162650160 0.0000000000
v -0.0118057155 0.2142651409 0.0000000000
v -0.0117833702 0.2122652657 0.0000000000
v -0.0117610248 0.2102653905 0.0000000000
v -0.0117386794 0.2082655153 0.0000000000
v -0.0117163341 0.2062656402 0.0000000000
v -0.0116939887 0.2042657650 0.0000000000
v -0.0116716433 0.2022658898 0.0000000000
v -0.0116492980 0.2002660147 0.0000000000
v -0.0116269526 0.1982661395 0.0000000000
v -0.0116046072 0.1962662643 0.0000000000
v -0.0115822619 0.1942663892 0.0000000000
v -0.0115599165 0.1922665140 0.0000000000
v -0.0115375711 0.1902666388 0.0000000000
v -0.0115152258 0.1882667637 0.0000000000
v -0.0114928804 0.1862668885 0.0000000000
v -0.0114705350 0.1842670133 0.0000000000
v -0.0114481897 0.1822671382 0.0000000000
v -0.0114258443 0.1802672630 0.0000000000
v -0.0114034989 0.1782673878 0.0000000000
v -0.0113811536 0.1762675127 0.0000000000
v -0.0113588082 0.1742676375 0.0000000000
v -0.0113364628 0.1722677623 0.0000000000
v -0.0113141175 0.1702678872 0.0000000000
v -0.0112917721 0.1682680120 0.0000000000
v -0.0112694267 0.1662681368 0.0000000000
v -0.0112470814 0.1642682617 0.0000000000
v -0.0112247360 0.1622683865 0.0000000000
v -0.0112023906 0.1602685113 0.0000000000
v -0.0111800453 0.1582686362 0.0000000000
v -0.0111576999 0.1562687610 0.0000000000
v -0.0111354738 0.1542795600 0.0000000000
v -0.0111132488 0.1522903740 0.0000000000
v -0.0110910228 0.1503011730 0.0000000000
v -0.0110687977 0.1483119880 0.0000000000
v -0.0110465717 0.1463227870 0.0000000000
v -0.0110243456 0.1443336010 0.0000000000
v -0.0110021206 0.1423444000 0.0000000000
v -0.0109798945 0.1403552140 0.0000000000
v -0.0109576695 0.1383660140 0.0000000000
v -0.0109354435 0.1363768280 0.0000000000
v -0.0109132174 0.1343876270 0.0000000000
v -0.0108909924 0.1323984270 0.0000000000
v -0.0108687663 0.1304092410 0.0000000000
v -0.0108465413 0.1284200400 0.0000000000
v -0.0108243152 0.1264308540 0.0000000000
v -0.0108020902 0.1244416530 0.0000000000
v -0.0107798642 0.1224524680 0.0000000000
v -0.0107577946 0.1204632670 0.0000000000
v -0.0107386364 0.1184740440 0.0000000000
v -0.0107194791 0.1164848210 0.0000000000
v -0.0107003208 0.1144955980 0.0000000000
v -0.0106811626 0.1125063670 0.0000000000
v -0.0106620053 0.1105171440 0.0000000000
v -0.0106428470 0.1085279210 0.0000000000
v -0.0106236897 0.1065386830 0.0000000000
v -0.0106045315 0.1045494600 0.0000000000
v -0.0105853733 0.1025602370 0.0000000000
v -0.0105662160 0.1005710070 0.0000000000
v -0.0105470577 0.0985817835 0.0000000000
v -0.0105279004 0.0965925604 0.0000000000
v -0.0105087422 0.0946033373 0.0000000000
v -0.0104895839 0.0926141143 0.0000000000
v -0.0104704266 0.0906248838 0.0000000000
v -0.0104512684 0.0886356682 0.0000000000
v -0.0104321111 0.0866464376 0.0000000000
v -0.0104129529 0.0846572146 0.0000000000
v -0.0103937946 0.0826679766 0.0000000000
v -0.0103746373 0.0806787685 0.0000000000
v -0.0103554791 0.0786895454 0.0000000000
v -0.0103363208 0.0767003000 0.0000000000
v -0.0103171635 0.0747110844 0.0000000000
v -0.0102980053 0.0727218539 0.0000000000
v -0.0102788480 0.0707326308 0.0000000000
v -0.0102596898 0.0687434077 0.0000000000
v -0.0102405315 0.0667541772 0.0000000000
v -0.0102213742 0.0647649616 0.0000000000
v -0.0102022160 0.0627757162 0.0000000000
v -0.0101830587 0.0607865080 0.0000000000
v -0.0101639004 0.0587972850 0.0000000000
v -0.0101447422 0.0568080470 0.0000000000
v -0.0101255849 0.0548188239 0.0000000000
v -0.0101064267 0.0528295934 0.0000000000
v -0.0100872684 0.0508403704 0.0000000000
v -0.0100681111 0.0488511473 0.0000000000
v -0.0100489529 0.0468619242 0.0000000000
v -0.0100297956 0.0448727012 0.0000000000
v -0.0100106373 0.0428834781 0.0000000000
v -0.0099914800 0.0408942476 0.0000000000
v -0.0099723218 0.0389050245 0.0000000000
v -0.0099531636 0.0369158015 0.0000000000
v -0.0099340063 0.0349265784 0.0000000000
v -0.0099148480 0.0329373553 0.0000000000
v -0.0098956898 0.0309481174 0.0000000000
v -0.0098765325 0.0289588869 0.0000000000
v -0.0098573742 0.0269696787 0.0000000000
v -0.0098382169 0.0249804556 0.0000000000
v -0.0098190587 0.0229912326 0.0000000000
v -0.0097999005 0.0210019946 0.0000000000
v -0.0097807432 0.0190127715 0.0000000000
v -0.0097615849 0.0170235336 0.0000000000
v -0.0097424267 0.0150343031 0.0000000000
v -0.0097232694 0.0130450949 0.0000000000
v -0.0097041111 0.0110558718 0.0000000000
v -0.0096849538 0.0090666339 0.0000000000
v -0.0096657956 0.0070774108 0.0000000000
v -0.0096466374 0.0050881877 0.0000000000
v -0.0096274801 0.0030989572 0.0000000000
v -0.0096083218 0.0011097491 0.0000000000
v -0.0095891645 -0.0008794889 0.0000000000
v -0.0095700063 -0.0028687120 0.0000000000
v -0.0088843191 -0.0046383957 0.0000000000
v -0.0077175633 -0.0062496290 0.0000000000
v -0.0065508001 -0.0078608729 0.0000000000
v -0.0053840536 -0.0094720945 0.0000000000
v -0.0034230163 -0.0097714858 0.0000000000
v -0.0014545173 -0.0100585585 0.0000000000
v 0.0005139639 -0.0103456285 0.0000000000
v 0.0024824762 -0.0106327031 0.0000000000
v 0.0043621128 -0.0106888404 0.0000000000
v 0.0056304298 -0.0091562914 0.0000000000
v 0.0068987589 -0.0076237274 0.0000000000
v 0.0081670759 -0.0060911779 0.0000000000
v 0.0090038981 -0.0043977676 0.0000000000
v 0.0090480950 -0.0024089369 0.0000000000
v 0.0090922900 -0.0004201229 0.0000000000
v 0.0091364868 0.0015687081 0.0000000000
v 0.0091806827 0.0035575391 0.0000000000
v 0.0080071464 0.0050577433 0.0000000000
v 0.0066004847 0.0064644050 0.0000000000
v 0.0051938230 0.0078710662 0.0000000000
v 0.0037871734 0.0092777163 0.0000000000
v 0.0022047106 0.0102600018 0.0000000000
v 0.0002153928 0.0102600018 0.0000000000
v -0.0017739159 0.0102600018 0.0000000000
v -0.0037632340 0.0102600018 0.0000000000
v -0.0057525560 0.0102600018 0.0000000000
v -0.0072646951 0.0103366980 -0.0002366424
v -0.0090829041 0.0108081773 -0.0016913614
v -0.0109506687 0.0104623241 -0.0015070947
v -0.0124795847 0.0102601051 -0.0004942195
v -0.0121314405 0.0102601051 0.0011515310
v -0.0102827279 0.0107767386 0.0014412736
v -0.0089702988 0.0110103749 0.0013988172
l 1 2
l 2 3
l 3 4
l 4 5
l 5 6
l 6 7
l 7 8
l 8 9
l 9 10
l 10 11
l 11 12
l 12 13
l 13 14
l 14 15
l 15 16
l 16 17
l 17 18
l 18 36
l 36 19
l 19 20
l 20 21
l 21 22
l 22 23
l 23 24
l 24 25
l 25 26
l 26 27
l 27 28
l 28 29
l 29 30
l 30 31
l 31 32
l 32 33
l 33 34
l 34 35
l 35 1
l 36 37
l 37 38
l 38 39
l 39 40
l 40 41
l 41 42
l 42 43
l 43 44
l 44 45
l 45 46
l 46 47
l 47 48
l 48 49
l 49 50
l 50 51
l 51 52
l 52 53
l 53 54
l 54 55
l 55 56
l 56 57
l 57 58
l 58 59
l 59 60
l 60 61
l 61 62
l 62 63
l 63 64
l 64 65
l 65 66
l 66 67
l 67 68
l 68 69
l 69 70
l 70 71
l 71 72
l 72 73
l 73 74
l 74 75
l 75 76
l 76 77
l 77 78
l 78 79
l 79 80
l 80 81
l 81 82
l 82 83
l 83 84
l 84 85
l 85 86
l 86 87
l 87 88
l 88 89
l 89 90
l 90 91
l 91 92
l 92 93
l 93 94
l 94 95
l 95 96
l 96 97
l 97 98
l 98 99
l 99 100
l 100 101
l 101 102
l 102 103
l 103 104
l 104 105
l 105 106
l 106 107
l 107 108
l 108 109
l 109 110
l 110 111
l 111 112
l 112 113
l 113 114
l 114 115
l 115 116
l 116 117
l 118 117
l 119 118
l 120 119
l 121 120
l 122 121
l 123 122
l 124 123
l 125 124
l 126 125
l 127 126
l 128 127
l 129 128
l 130 129
l 131 130
l 132 131
l 133 132
l 134 133
l 135 134
l 136 135
l 137 136
l 138 137
l 139 138
l 140 139
l 141 140
l 142 141
l 143 142
l 144 143
l 145 144
l 146 145
l 147 146
l 148 147
l 149 148
l 150 149
l 151 150
l 152 151
l 153 152
l 154 153
l 155 154
l 156 155
l 157 156
l 158 157
l 159 158
l 160 159
l 161 160
l 162 161
l 163 162
l 164 163
l 165 164
l 166 165
l 167 166
l 168 167
l 169 168
l 170 169
l 171 170
l 172 171
l 173 172
l 174 173
l 175 174
l 176 175
l 177 176
l 178 177
l 179 178
l 180 179
l 181 180
l 182 181
l 183 182
l 184 183
l 185 184
l 186 185
l 187 186
l 188 187
l 189 188
l 190 189
l 191 190
l 192 191
l 193 192
l 194 193
l 195 194
l 196 195
l 197 196
l 198 197
l 199 198
l 200 199
l 201 200
l 202 201
l 203 202
l 204 203
l 205 204
l 206 205
l 207 206
l 208 207
l 209 208
l 210 209
l 211 210
l 212 211
l 213 212
l 214 213
l 215 214
l 216 215
l 217 216
l 218 217
l 219 218
l 220 219
l 221 220
l 222 221
l 223 222
l 224 223
l 225 224
l 226 225
l 227 226
l 228 227
l 229 228
l 230 229
l 224 230
