# https://github.com/mikedh/trimesh
v -0.00029901 0.06257470 -0.03325681
v -0.00029899 0.06431982 -0.03084897
v -0.00029893 0.06079617 -0.02824103
v -0.00029891 0.04770037 -0.03294980
v -0.00029891 0.04800738 -0.03325681
v -0.00029885 0.04770036 -0.02826506
v -0.00029884 0.04820032 -0.02776506
v -0.00029892 0.05935298 -0.02776506
v -0.00029912 0.06636211 -0.03932225
v -0.00029904 0.06547533 -0.03398531
v -0.00029901 0.06511957 -0.03210943
v -0.00029901 0.06504707 -0.03185398
v -0.00029901 0.06498151 -0.03169547
v -0.00029900 0.06489237 -0.03152159
v -0.00029900 0.06468102 -0.03120659
v -0.00029899 0.06446087 -0.03096647
v -0.00029927 0.06520385 -0.05140000
v -0.00029928 0.06749099 -0.05140000
v -0.00029923 0.06494954 -0.04891152
v -0.00029928 0.06776410 -0.05110095
v -0.00029921 0.06477042 -0.04731662
v -0.00029920 0.06713118 -0.04505542
v -0.00029913 0.06401132 -0.04154693
v -0.00029911 0.06381903 -0.04027446
v -0.00029893 0.06055333 -0.02808967
v -0.00029893 0.06033131 -0.02798462
v -0.00029892 0.06013145 -0.02790908
v -0.00029892 0.05971880 -0.02780114
v -0.00029892 0.05939786 -0.02776568
f 1 2 3
f 1 16 2
f 1 15 16
f 14 15 1
f 1 13 14
f 1 12 13
f 11 12 1
f 1 10 11
f 9 10 1
f 24 9 1
f 23 9 24
f 23 22 9
f 21 22 23
f 21 20 22
f 19 20 21
f 19 18 20
f 17 18 19
f 3 25 1
f 1 25 26
f 1 26 27
f 27 28 1
f 1 28 29
f 1 29 8
f 7 1 8
f 6 1 7
f 6 5 1
f 4 5 6

