# https://github.com/mikedh/trimesh
v -0.06796713 0.00911664 0.27656525
v -0.06791668 0.01717445 0.27656853
v -0.06770586 0.01638448 0.27974048
v -0.06773431 0.01171985 0.27973649
v -0.06776229 0.00015923 0.27973181
v -0.06775407 -0.00610155 0.27973261
v -0.06797870 -0.00530860 0.27656412
v -0.06798564 0.00015923 0.27656409
v -0.06798410 0.00274109 0.27656358
v -0.06799956 0.00280493 0.27630949
v -0.06857416 0.00761169 0.25697878
v -0.06853275 0.00642234 0.26176250
v -0.06807335 0.00312659 0.27501658
v -0.06828871 0.00424298 0.27052754
v -0.06833503 0.00453722 0.26934427
v -0.06847500 0.00568121 0.26474321
v -0.06847744 0.00570690 0.26463997
v -0.06853627 0.01398921 0.25697926
v -0.06798274 0.00918084 0.27630934
v -0.06821210 0.01029592 0.27182770
v -0.06853403 0.01374745 0.25795114
v -0.06848539 0.01254943 0.26276711
v -0.06846413 0.01226261 0.26392010
v -0.06833952 0.01111060 0.26855195
v -0.06831352 0.01092574 0.26929531
v -0.06788069 0.00015923 0.27814817
v -0.06787838 -0.00297082 0.27814925
v -0.06793131 -0.00297073 0.27737466
v -0.06785479 0.01260575 0.27802387
v -0.06787346 0.00861701 0.27802444
v -0.06852128 0.00836506 0.26202342
v -0.06832957 0.00836262 0.26918456
f 26 27 28
f 27 26 5
f 5 6 27
f 27 6 7
f 26 4 5
f 26 30 4
f 9 30 26
f 26 8 9
f 9 10 30
f 10 1 30
f 30 1 29
f 2 29 1
f 4 29 2
f 4 2 3
f 10 19 1
f 10 13 19
f 19 13 32
f 13 14 32
f 32 14 15
f 32 15 16
f 17 32 16
f 17 31 32
f 31 23 32
f 32 23 24
f 32 24 25
f 20 32 25
f 31 22 23
f 22 31 21
f 21 31 11
f 21 11 18
f 11 31 12
f 12 31 17
f 19 32 20
f 30 29 4
f 28 8 26
f 28 7 8
f 27 7 28

