# https://github.com/mikedh/trimesh
v 0.07195371 0.00599822 0.27938375
v 0.06793074 0.00598269 0.27825561
v 0.07277329 0.00525450 0.27638099
v 0.06873367 0.00524541 0.27531400
v 0.07277826 -0.00230119 0.27637890
v 0.06873777 -0.00229076 0.27531517
v 0.06874068 0.00016111 0.27531558
v 0.06873855 0.00270327 0.27531505
v 0.07682295 -0.00687385 0.25790289
v 0.07271103 -0.00684456 0.25716233
v 0.07609034 -0.00590110 0.26183087
v 0.07198406 -0.00586957 0.26105896
v 0.07572185 -0.00544215 0.26368460
v 0.07162809 -0.00542105 0.26284921
v 0.07524962 -0.00487957 0.26595736
v 0.07115360 -0.00484875 0.26513183
v 0.07440940 -0.00394050 0.26975206
v 0.07031965 -0.00390465 0.26889330
v 0.07407583 -0.00358710 0.27118045
v 0.07000584 -0.00356746 0.27023572
v 0.07317270 -0.00267822 0.27485445
v 0.06911044 -0.00265274 0.27387553
v 0.07263207 -0.01277793 0.25716230
v 0.07674325 -0.01286206 0.25790289
f 3 4 1
f 3 8 4
f 3 7 8
f 5 7 3
f 5 6 7
f 21 6 5
f 21 22 6
f 20 22 21
f 19 20 21
f 19 18 20
f 17 18 19
f 17 16 18
f 15 16 17
f 15 14 16
f 13 14 15
f 13 12 14
f 11 12 13
f 11 10 12
f 9 10 11
f 24 10 9
f 23 10 24
f 1 4 2

