# https://github.com/mikedh/trimesh
v -0.06671981 -0.05114491 0.27975109
v -0.07070401 -0.05140514 0.27999252
v -0.07092168 -0.05065475 0.27693880
v -0.06693484 -0.05039991 0.27673829
v -0.06703709 -0.04871837 0.27673900
v -0.07102509 -0.04895104 0.27694333
v -0.06720644 -0.04551426 0.27673838
v -0.07119609 -0.04570583 0.27695280
v -0.07154109 -0.03758595 0.27653986
v -0.06754927 -0.03745789 0.27631855
v -0.07152385 -0.03780404 0.27671868
v -0.06753216 -0.03767446 0.27649584
v -0.07151270 -0.03797630 0.27681696
v -0.06752605 -0.03776608 0.27655140
v -0.06752099 -0.03784866 0.27659342
v -0.07149859 -0.03824249 0.27691174
v -0.06750671 -0.03812013 0.27668798
v -0.07149012 -0.03843740 0.27694660
v -0.06749853 -0.03830931 0.27672118
v -0.07147542 -0.03884036 0.27696571
v -0.06748372 -0.03871498 0.27674028
v -0.06742604 -0.04033370 0.27673957
v -0.06734743 -0.04234520 0.27673876
v -0.07131517 -0.04305793 0.27695861
v -0.07141972 -0.04040948 0.27696323
v -0.06772752 -0.03649700 0.27339268
v -0.06764269 -0.03687380 0.27490762
v -0.07172138 -0.03662220 0.27357540
v -0.07163560 -0.03699959 0.27510980
v -0.07160943 -0.03710846 0.27555251
v -0.06761684 -0.03698248 0.27534461
v -0.07160909 -0.03710986 0.27555820
v -0.06761653 -0.03698377 0.27534968
v -0.07160804 -0.03711412 0.27557564
v -0.06761560 -0.03698761 0.27536517
v -0.07160386 -0.03713156 0.27564532
v -0.06761186 -0.03700332 0.27542710
v -0.07158675 -0.03721208 0.27592120
v -0.06759666 -0.03707463 0.27567258
v -0.07156847 -0.03732872 0.27619284
v -0.06757811 -0.03718967 0.27595082
v -0.06756452 -0.03730176 0.27613544
v -0.07155026 -0.03748918 0.27643320
f 3 4 2
f 4 3 5
f 5 3 6
f 5 6 7
f 7 6 8
f 7 8 23
f 23 8 24
f 23 24 22
f 22 24 25
f 22 25 20
f 20 21 22
f 20 19 21
f 18 19 20
f 18 17 19
f 16 17 18
f 16 15 17
f 13 15 16
f 13 14 15
f 12 14 13
f 11 12 13
f 11 10 12
f 9 10 11
f 43 10 9
f 43 42 10
f 40 42 43
f 40 41 42
f 39 41 40
f 38 39 40
f 38 37 39
f 36 37 38
f 36 35 37
f 34 35 36
f 34 33 35
f 32 33 34
f 32 31 33
f 30 31 32
f 30 27 31
f 29 27 30
f 28 27 29
f 26 27 28
f 2 4 1

