# https://github.com/mikedh/trimesh
v -0.06635039 -0.05910609 0.27338570
v -0.06436528 -0.07204513 0.27336803
v -0.06481817 -0.06982402 0.27337196
v -0.06512763 -0.06811640 0.27337489
v -0.06554137 -0.06553627 0.27337906
v -0.06573880 -0.06416184 0.27338105
v -0.06611513 -0.06121627 0.27338427
v -0.06457780 -0.07131300 0.27036440
v -0.06658120 -0.05800099 0.26892030
v -0.06660286 -0.05787865 0.26842657
v -0.06662599 -0.05774359 0.26788154
v -0.06665044 -0.05759526 0.26728299
v -0.06667601 -0.05743337 0.26662999
v -0.06669880 -0.05728302 0.26602334
v -0.06657854 -0.05801571 0.26897970
v -0.06656205 -0.05811051 0.26931980
v -0.06654218 -0.05824108 0.26962599
v -0.06653289 -0.05830783 0.26973671
v -0.06651987 -0.05840567 0.26986644
v -0.06650303 -0.05853770 0.27000257
v -0.06649293 -0.05861918 0.27007097
v -0.06647484 -0.05876849 0.27017227
v -0.06645436 -0.05894221 0.27025852
v -0.06642227 -0.05922238 0.27033964
v -0.06640244 -0.05939908 0.27036321
v -0.06634594 -0.05990512 0.27037483
v -0.06628168 -0.06046800 0.27037469
v -0.06616186 -0.06147648 0.27037415
v -0.06582764 -0.06403748 0.27037233
v -0.06545680 -0.06652258 0.27036995
v -0.06509998 -0.06863011 0.27036765
v -0.06489759 -0.06972130 0.27036637
v -0.06504584 -0.06892888 0.27036729
v -0.06482177 -0.07025184 0.26601461
v -0.06526898 -0.06787752 0.26601666
v -0.06553258 -0.06631387 0.26601776
v -0.06594439 -0.06357417 0.26601970
v -0.06610948 -0.06235445 0.26602077
v -0.06649835 -0.05914519 0.26602304
v -0.06496319 -0.06951538 0.26299599
v -0.06671167 -0.05358622 0.27672577
v -0.06374399 -0.07357991 0.27969646
v -0.06423645 -0.07137424 0.27970475
v -0.06448360 -0.07014442 0.27970946
v -0.06469125 -0.06903694 0.27971357
v -0.06510987 -0.06656126 0.27972245
v -0.06525240 -0.06563143 0.27972561
v -0.06562641 -0.06292344 0.27973345
v -0.06579528 -0.06153614 0.27973640
v -0.06594745 -0.06018103 0.27973893
v -0.06622251 -0.05744446 0.27974361
v -0.06627160 -0.05691532 0.27973855
v -0.06631669 -0.05643488 0.27970511
v -0.06632525 -0.05634562 0.27969357
v -0.06634984 -0.05609478 0.27964902
v -0.06639154 -0.05569033 0.27953136
v -0.06643363 -0.05530951 0.27935937
v -0.06645187 -0.05515287 0.27926853
v -0.06649456 -0.05480654 0.27901810
v -0.06653553 -0.05450205 0.27872586
v -0.06655151 -0.05439137 0.27859667
v -0.06659119 -0.05413822 0.27823651
v -0.06662127 -0.05397002 0.27792001
v -0.06662820 -0.05393449 0.27784115
v -0.06663991 -0.05387715 0.27770263
v -0.06668327 -0.05369175 0.27713549
v -0.06677803 -0.05333797 0.27572057
v -0.06697001 -0.05253244 0.27246416
v -0.06724077 -0.05105311 0.26649621
v -0.06721441 -0.05122406 0.26718572
v -0.06714385 -0.05164707 0.26889166
v -0.06725901 -0.05093417 0.26598197
v -0.06727331 -0.05084903 0.26551521
v -0.06728289 -0.05081246 0.26508749
v -0.06728408 -0.05081225 0.26501191
v -0.06728701 -0.05083234 0.26471743
v -0.06728686 -0.05089230 0.26441377
v -0.06728265 -0.05100197 0.26411113
v -0.06727955 -0.05106307 0.26399204
v -0.06727393 -0.05116177 0.26383734
v -0.06727219 -0.05119062 0.26379827
v -0.06725814 -0.05140758 0.26356158
v -0.06724248 -0.05163036 0.26339075
v -0.06723095 -0.05178706 0.26329985
v -0.06721992 -0.05193258 0.26323166
v -0.06720230 -0.05215869 0.26315081
v -0.06717074 -0.05254836 0.26306605
v -0.06714096 -0.05290330 0.26302904
v -0.06712627 -0.05307478 0.26301917
v -0.06707424 -0.05366782 0.26300722
v -0.06699529 -0.05453191 0.26300755
v -0.06680563 -0.05647234 0.26300779
v -0.06664614 -0.05798516 0.26300725
v -0.06634057 -0.06064091 0.26300445
v -0.06613332 -0.06227750 0.26300210
v -0.06600546 -0.06322090 0.26300102
v -0.06563058 -0.06573702 0.26299894
v -0.06521447 -0.06818299 0.26299721
v -0.06407103 -0.07285507 0.27669966
v -0.06390759 -0.07323504 0.27826837
v -0.06516098 -0.06720511 0.27671501
v -0.06477567 -0.06942613 0.27670905
v -0.06601613 -0.06096712 0.27671596
v -0.06595786 -0.06146631 0.27672702
v -0.06629076 -0.05934695 0.27436066
v -0.06622755 -0.05958746 0.27533498
v -0.06620347 -0.05968193 0.27567497
v -0.06617657 -0.05981199 0.27598065
v -0.06614842 -0.05997617 0.27622080
v -0.06603694 -0.06079326 0.27669290
v -0.06607211 -0.06051231 0.27661210
v -0.06609534 -0.06033785 0.27652571
v -0.06612809 -0.06010807 0.27635682
v -0.06583311 -0.06249936 0.27672553
v -0.06539312 -0.06571660 0.27671877
v -0.06576275 -0.06305540 0.27672461
v -0.06434982 -0.07158295 0.27670315
v -0.06463976 -0.07094712 0.27134135
v -0.06651063 -0.05656136 0.27569371
v -0.06622626 -0.05946711 0.27567685
v -0.06666531 -0.05654726 0.27143100
v -0.06676102 -0.05651546 0.26716164
v -0.06719161 -0.05206550 0.26475799
v -0.06637109 -0.05945472 0.27141613
v -0.06603059 -0.06235294 0.27139986
v -0.06517645 -0.06810299 0.27136236
v -0.06563561 -0.06523598 0.27138191
f 32 118 8
f 118 32 126
f 126 32 33
f 126 33 31
f 31 30 126
f 126 30 29
f 126 29 127
f 28 127 29
f 125 127 28
f 125 7 127
f 124 7 125
f 124 1 7
f 121 1 124
f 124 24 121
f 24 23 121
f 121 23 22
f 121 22 21
f 21 20 121
f 121 20 19
f 121 19 18
f 18 17 121
f 121 17 16
f 121 16 15
f 15 9 121
f 121 9 10
f 121 10 122
f 122 10 11
f 122 11 12
f 12 13 122
f 122 13 14
f 122 14 92
f 92 14 93
f 93 14 94
f 94 14 39
f 94 39 95
f 95 39 38
f 95 38 96
f 96 38 37
f 96 37 97
f 97 37 36
f 97 36 98
f 36 35 98
f 98 35 34
f 98 34 40
f 92 91 122
f 122 91 90
f 90 89 122
f 122 89 123
f 122 123 69
f 123 72 69
f 123 73 72
f 74 73 123
f 123 75 74
f 123 76 75
f 77 76 123
f 123 78 77
f 123 79 78
f 80 79 123
f 123 81 80
f 123 82 81
f 83 82 123
f 123 84 83
f 123 85 84
f 86 85 123
f 123 87 86
f 123 88 87
f 69 70 122
f 122 70 71
f 89 88 123
f 122 71 121
f 121 71 68
f 121 68 67
f 121 67 119
f 119 67 41
f 119 41 66
f 66 65 119
f 119 65 64
f 119 64 63
f 63 62 119
f 119 62 61
f 119 61 60
f 60 59 119
f 119 59 58
f 119 58 57
f 57 56 119
f 119 56 55
f 119 55 54
f 54 53 119
f 53 120 119
f 53 107 120
f 106 120 107
f 105 120 106
f 108 107 53
f 53 109 108
f 53 113 109
f 52 113 53
f 52 112 113
f 51 112 52
f 51 111 112
f 50 111 51
f 50 110 111
f 103 110 50
f 103 50 104
f 104 50 49
f 104 49 114
f 114 49 48
f 114 48 116
f 116 48 115
f 115 48 47
f 115 47 101
f 46 101 47
f 45 101 46
f 45 102 101
f 44 102 45
f 44 117 102
f 43 117 44
f 43 100 117
f 100 99 117
f 42 100 43
f 119 120 105
f 119 105 121
f 124 25 24
f 26 25 124
f 124 27 26
f 124 28 27
f 121 105 1
f 7 6 127
f 127 6 5
f 127 5 4
f 125 28 124
f 127 4 126
f 126 4 3
f 126 3 118
f 118 3 2
f 118 2 8

