# https://github.com/mikedh/trimesh
v 0.07154380 -0.04021133 0.27367896
v 0.06751105 -0.03972886 0.27269843
v 0.07340880 -0.04273219 0.26357368
v 0.06934552 -0.04215492 0.26279023
v 0.07337999 -0.04268662 0.26375625
v 0.06931709 -0.04211107 0.26296949
v 0.07252463 -0.04144130 0.26874685
v 0.06847453 -0.04091311 0.26786649
v 0.07246079 -0.04873896 0.26356608
v 0.06841224 -0.04803253 0.26281303
v 0.07247955 -0.04863111 0.26356623
v 0.06843069 -0.04792703 0.26281258
v 0.07327253 -0.04367644 0.26357260
v 0.06921128 -0.04307947 0.26279345
f 3 4 5
f 3 14 4
f 13 14 3
f 13 12 14
f 11 12 13
f 11 10 12
f 9 10 11
f 5 4 6
f 5 6 7
f 7 6 8
f 7 8 1
f 1 8 2

