# https://github.com/mikedh/trimesh
v -0.07101661 -0.04570300 0.28000697
v -0.07123403 -0.04039574 0.28001747
v -0.07129395 -0.03864325 0.28002039
v -0.07130165 -0.03840563 0.28002080
v -0.07130925 -0.03816799 0.28002116
v -0.07131677 -0.03793038 0.28002152
v -0.07134584 -0.03697980 0.28002304
v -0.07136378 -0.03636742 0.28002390
v -0.07137997 -0.03579614 0.28002477
v -0.07139456 -0.03526497 0.28002551
v -0.07140774 -0.03477187 0.28002602
v -0.07142031 -0.03431232 0.28001708
v -0.07143375 -0.03388006 0.27998129
v -0.07144914 -0.03347037 0.27990472
v -0.07146242 -0.03317717 0.27981481
v -0.07147946 -0.03285817 0.27967629
v -0.07148290 -0.03280009 0.27964595
v -0.07150608 -0.03244741 0.27942467
v -0.07151784 -0.03229073 0.27930304
v -0.07154431 -0.03198243 0.27900997
v -0.07155735 -0.03185052 0.27885655
v -0.07157192 -0.03171710 0.27867854
v -0.07158350 -0.03162099 0.27853233
v -0.07169934 -0.03101430 0.27686393
v -0.07169286 -0.03103916 0.27696508
v -0.07167404 -0.03111208 0.27725476
v -0.07164976 -0.03121591 0.27761826
v -0.07161524 -0.03139911 0.27811030
v -0.07160041 -0.03149549 0.27831119
v -0.07171949 -0.03093559 0.27654397
v -0.07088804 -0.04829393 0.28000095
v -0.07070401 -0.05140514 0.27999252
v -0.07092168 -0.05065475 0.27693880
v -0.07102509 -0.04895104 0.27694333
v -0.07119609 -0.04570583 0.27695280
v -0.07154109 -0.03758595 0.27653986
v -0.07152385 -0.03780404 0.27671868
v -0.07151270 -0.03797630 0.27681696
v -0.07149859 -0.03824249 0.27691174
v -0.07149012 -0.03843740 0.27694660
v -0.07147542 -0.03884036 0.27696571
v -0.07131517 -0.04305793 0.27695861
v -0.07141972 -0.04040948 0.27696323
v -0.07172138 -0.03662220 0.27357540
v -0.07163560 -0.03699959 0.27510980
v -0.07160943 -0.03710846 0.27555251
v -0.07160909 -0.03710986 0.27555820
v -0.07160804 -0.03711412 0.27557564
v -0.07160386 -0.03713156 0.27564532
v -0.07158675 -0.03721208 0.27592120
v -0.07156847 -0.03732872 0.27619284
v -0.07155026 -0.03748918 0.27643320
v -0.07163671 -0.03914831 0.27357161
v -0.07135697 -0.04570992 0.27355951
v -0.07129025 -0.04699913 0.27355665
v -0.07112712 -0.04982103 0.27354956
v -0.07128309 -0.04907078 0.27050102
v -0.07138178 -0.04739166 0.27050495
v -0.07147167 -0.04571212 0.27050838
v -0.07197767 -0.03520922 0.26783684
v -0.07203559 -0.03478614 0.26612064
v -0.07192922 -0.03552333 0.26911154
v -0.07194558 -0.03542069 0.26869497
v -0.07192893 -0.03552509 0.26911882
v -0.07188476 -0.03594730 0.27004313
v -0.07189637 -0.03579748 0.26984328
v -0.07190952 -0.03566337 0.26957846
v -0.07190971 -0.03566182 0.26957455
v -0.07192449 -0.03555293 0.26922956
v -0.07192805 -0.03553057 0.26914102
v -0.07187159 -0.03615475 0.27023223
v -0.07185987 -0.03637404 0.27036545
v -0.07184783 -0.03663880 0.27046388
v -0.07184046 -0.03682540 0.27050003
v -0.07182690 -0.03721154 0.27052248
v -0.07156526 -0.04379845 0.27051198
v -0.07177284 -0.03876773 0.27052045
v -0.07158890 -0.04571486 0.26610464
v -0.07192016 -0.03823320 0.26611626
v -0.07152746 -0.04684861 0.26610264
v -0.07146188 -0.04798488 0.26610050
v -0.07155557 -0.04723189 0.26305568
v -0.07159849 -0.04647527 0.26305702
v -0.07163970 -0.04571671 0.26305830
v -0.07196150 -0.02985985 0.27217421
v -0.07214430 -0.02878518 0.26781297
v -0.07218497 -0.02848802 0.26660791
v -0.07218846 -0.02846119 0.26649806
v -0.07221715 -0.02827198 0.26551479
v -0.07222846 -0.02824775 0.26504767
v -0.07223716 -0.02830589 0.26459190
v -0.07224277 -0.02845941 0.26415816
v -0.07224449 -0.02872018 0.26377404
v -0.07224229 -0.02906076 0.26347917
v -0.07223678 -0.02945889 0.26327485
v -0.07222839 -0.02990184 0.26315546
v -0.07221733 -0.03039891 0.26309764
v -0.07219909 -0.03113902 0.26307642
v -0.07219851 -0.03116182 0.26307642
v -0.07219616 -0.03125299 0.26307634
v -0.07218666 -0.03161774 0.26307604
v -0.07172871 -0.04398254 0.26306087
v -0.07195136 -0.03891141 0.26306790
v -0.07202455 -0.03692598 0.26307037
v -0.07214664 -0.03307668 0.26307464
v -0.07171099 -0.03131036 0.27654380
v -0.07172698 -0.03690595 0.27325270
v -0.07142752 -0.04453111 0.27325043
v -0.07219955 -0.02980012 0.26478726
f 37 10 36
f 37 9 10
f 37 8 9
f 38 8 37
f 38 7 8
f 6 7 38
f 6 38 5
f 5 38 39
f 5 39 4
f 4 39 40
f 4 40 3
f 3 40 41
f 3 41 2
f 2 41 43
f 2 43 1
f 1 43 42
f 1 42 35
f 1 35 31
f 31 35 34
f 31 34 32
f 32 34 33
f 36 10 11
f 36 11 12
f 12 13 36
f 36 13 14
f 36 14 15
f 15 16 36
f 36 16 17
f 36 17 18
f 18 19 36
f 36 19 20
f 36 20 21
f 21 22 36
f 36 22 23
f 36 23 29
f 29 28 36
f 36 28 27
f 36 27 26
f 26 25 36
f 36 25 24
f 36 24 106
f 106 52 36
f 106 51 52
f 50 51 106
f 106 49 50
f 106 48 49
f 47 48 106
f 106 46 47
f 106 45 46
f 106 44 45
f 85 44 106
f 85 71 44
f 65 71 85
f 66 65 85
f 85 67 66
f 85 68 67
f 69 68 85
f 85 70 69
f 85 64 70
f 62 64 85
f 63 62 85
f 63 85 60
f 60 85 86
f 60 86 61
f 61 86 87
f 61 87 88
f 88 101 61
f 88 100 101
f 99 100 88
f 109 99 88
f 98 99 109
f 97 98 109
f 109 96 97
f 109 95 96
f 94 95 109
f 109 93 94
f 109 92 93
f 91 92 109
f 109 90 91
f 89 90 109
f 109 88 89
f 61 101 105
f 61 105 79
f 105 104 79
f 79 104 103
f 79 103 78
f 78 103 102
f 78 102 84
f 84 80 78
f 83 80 84
f 83 81 80
f 82 81 83
f 71 72 44
f 72 73 44
f 44 73 107
f 44 107 53
f 53 107 108
f 77 108 107
f 76 108 77
f 76 54 108
f 59 54 76
f 59 55 54
f 58 55 59
f 58 56 55
f 57 56 58
f 77 107 75
f 75 107 74
f 53 108 54
f 73 74 107
f 106 30 85
f 106 24 30

