# https://github.com/mikedh/trimesh
v 0.06161634 -0.06508069 0.27843019
v 0.06186600 -0.06405003 0.27842095
v 0.06271801 -0.06030682 0.27838942
v 0.06293003 -0.05931438 0.27838162
v 0.06295238 -0.05920823 0.27838078
v 0.06624813 -0.05622656 0.26578951
v 0.06622335 -0.05656628 0.26551706
v 0.06619605 -0.05589298 0.26645711
v 0.06618550 -0.05587147 0.26653767
v 0.06612521 -0.05576498 0.26697588
v 0.06605881 -0.05565099 0.26744831
v 0.06598579 -0.05552800 0.26795799
v 0.06590558 -0.05539573 0.26850620
v 0.06581772 -0.05525396 0.26909345
v 0.06572175 -0.05510271 0.26972011
v 0.06499387 -0.05405793 0.27404323
v 0.06414784 -0.05301747 0.27833742
v 0.06623328 -0.05600644 0.26612777
v 0.06624780 -0.05617086 0.26585713
v 0.06624711 -0.05614386 0.26589268
v 0.06621354 -0.05664260 0.26547807
v 0.06617171 -0.05690149 0.26539043
v 0.06611865 -0.05716563 0.26535511
v 0.06605590 -0.05744646 0.26534966
v 0.06526660 -0.06073705 0.26537254
v 0.06537537 -0.06030096 0.26536936
v 0.06577644 -0.05864612 0.26535770
v 0.06518922 -0.06104428 0.26537481
v 0.06510572 -0.06136549 0.26538810
v 0.06506078 -0.06152518 0.26541328
v 0.06499877 -0.06172279 0.26548034
v 0.06497747 -0.06178332 0.26551399
v 0.06495419 -0.06184501 0.26555735
v 0.06491742 -0.06193272 0.26564008
v 0.06490716 -0.06195486 0.26566666
v 0.06485344 -0.06205026 0.26583591
v 0.06484386 -0.06206314 0.26587230
v 0.06483726 -0.06207113 0.26589862
v 0.06482093 -0.06208782 0.26596817
v 0.06479148 -0.06210319 0.26611546
v 0.06478106 -0.06210316 0.26617545
v 0.06475689 -0.06208984 0.26633415
v 0.06473550 -0.06206117 0.26649863
v 0.06471447 -0.06202010 0.26667842
v 0.06468369 -0.06195614 0.26694518
v 0.06432403 -0.06126223 0.26983848
v 0.06380887 -0.06040237 0.27341965
v 0.06306770 -0.05935577 0.27776870
v 0.06464501 -0.05007712 0.27831995
v 0.06510086 -0.04712821 0.27830446
v 0.06224253 -0.06607126 0.27429125
v 0.06279136 -0.06715084 0.26976705
v 0.06291120 -0.06742645 0.26861048
v 0.06305096 -0.06777291 0.26715595
v 0.06312239 -0.06796230 0.26636067
v 0.06313773 -0.06800417 0.26618490
v 0.06318647 -0.06812049 0.26565132
v 0.06323815 -0.06819621 0.26516974
v 0.06326666 -0.06821466 0.26494774
v 0.06332269 -0.06820563 0.26459900
v 0.06335153 -0.06818397 0.26445296
v 0.06340016 -0.06813169 0.26423767
v 0.06347910 -0.06801904 0.26394346
v 0.06356136 -0.06787134 0.26369739
v 0.06360918 -0.06777424 0.26357672
v 0.06365938 -0.06766482 0.26346478
v 0.06376420 -0.06741522 0.26327237
v 0.06376922 -0.06740256 0.26326463
v 0.06387713 -0.06711770 0.26311997
v 0.06394392 -0.06692851 0.26305461
v 0.06399024 -0.06679139 0.26302004
v 0.06402997 -0.06667040 0.26299644
v 0.06418695 -0.06616969 0.26294065
v 0.06436577 -0.06556854 0.26292086
v 0.06446666 -0.06522069 0.26291806
v 0.06569673 -0.06069974 0.26288441
v 0.06637602 -0.05794365 0.26286611
v 0.06679872 -0.05611433 0.26285484
v 0.06683715 -0.05594314 0.26285380
v 0.06690633 -0.05563278 0.26285198
v 0.06712120 -0.05465037 0.26284629
v 0.06723680 -0.05410976 0.26284328
v 0.06723750 -0.05410648 0.26284328
v 0.06724029 -0.05409325 0.26284322
v 0.06725147 -0.05404038 0.26284310
v 0.06729575 -0.05382878 0.26284394
v 0.06740335 -0.05329088 0.26286691
v 0.06746039 -0.05298049 0.26290366
v 0.06752687 -0.05257530 0.26299068
v 0.06757878 -0.05219603 0.26312324
v 0.06759062 -0.05209542 0.26316801
v 0.06759085 -0.05209336 0.26316896
v 0.06759176 -0.05208520 0.26317286
v 0.06759533 -0.05205265 0.26318872
v 0.06760851 -0.05192406 0.26325563
v 0.06763700 -0.05156393 0.26348498
v 0.06764343 -0.05143962 0.26358104
v 0.06764716 -0.05133799 0.26366720
v 0.06764977 -0.05112464 0.26387388
v 0.06764392 -0.05091525 0.26411873
v 0.06764381 -0.05091313 0.26412141
v 0.06764346 -0.05090640 0.26413015
v 0.06764196 -0.05087969 0.26416507
v 0.06763421 -0.05077786 0.26430851
v 0.06760322 -0.05055732 0.26469055
v 0.06757741 -0.05044783 0.26493245
v 0.06750607 -0.05025677 0.26548508
v 0.06742125 -0.05010737 0.26605839
v 0.06732200 -0.04995156 0.26670048
v 0.06731941 -0.04994751 0.26671711
v 0.06731274 -0.04993720 0.26675972
v 0.06665905 -0.04899109 0.27065551
v 0.06645875 -0.04872442 0.27175257
v 0.06546018 -0.04751975 0.27669999
v 0.06650986 -0.04986397 0.27065736
v 0.06355935 -0.06039948 0.27459309
v 0.06602955 -0.05252812 0.27065957
v 0.06682318 -0.05259825 0.26671457
v 0.06628557 -0.05525041 0.26670867
v 0.06442320 -0.06314743 0.26667324
v 0.06371699 -0.06309844 0.27064046
v 0.06294638 -0.06303180 0.27459055
v 0.06303615 -0.06571067 0.27062961
v 0.06229297 -0.06565101 0.27458563
v 0.06371665 -0.06575171 0.26665667
v 0.06562755 -0.04977692 0.27457932
v 0.06516588 -0.05244414 0.27458650
f 111 115 112
f 112 115 113
f 113 115 126
f 113 126 114
f 49 114 126
f 49 126 127
f 127 17 49
f 127 16 17
f 117 16 127
f 127 115 117
f 117 15 16
f 14 15 117
f 117 118 14
f 14 118 119
f 14 119 13
f 119 12 13
f 119 11 12
f 10 11 119
f 119 9 10
f 119 8 9
f 119 18 8
f 80 18 119
f 119 81 80
f 119 82 81
f 83 82 119
f 119 84 83
f 119 85 84
f 80 20 18
f 19 20 80
f 80 6 19
f 80 7 6
f 21 7 80
f 79 21 80
f 79 22 21
f 78 22 79
f 78 23 22
f 77 23 78
f 77 24 23
f 77 27 24
f 77 26 27
f 76 26 77
f 76 25 26
f 76 28 25
f 29 28 76
f 76 30 29
f 76 31 30
f 75 31 76
f 75 32 31
f 33 32 75
f 75 34 33
f 75 35 34
f 36 35 75
f 75 37 36
f 75 38 37
f 39 38 75
f 75 40 39
f 75 120 40
f 120 41 40
f 120 42 41
f 43 42 120
f 120 44 43
f 44 120 45
f 45 120 121
f 120 123 121
f 120 125 123
f 125 53 123
f 123 53 52
f 123 52 51
f 123 51 124
f 124 51 1
f 124 1 2
f 122 124 2
f 122 2 3
f 116 122 3
f 116 3 48
f 48 3 4
f 48 4 5
f 47 116 48
f 47 122 116
f 47 121 122
f 46 121 47
f 121 124 122
f 125 54 53
f 55 54 125
f 125 56 55
f 125 57 56
f 58 57 125
f 125 59 58
f 125 60 59
f 61 60 125
f 125 62 61
f 125 63 62
f 64 63 125
f 125 65 64
f 125 66 65
f 67 66 125
f 125 68 67
f 125 69 68
f 70 69 125
f 125 71 70
f 125 72 71
f 73 72 125
f 125 74 73
f 74 125 120
f 121 123 124
f 45 121 46
f 74 120 75
f 118 85 119
f 118 86 85
f 87 86 118
f 88 87 118
f 118 89 88
f 118 90 89
f 91 90 118
f 118 92 91
f 118 93 92
f 94 93 118
f 118 95 94
f 118 96 95
f 97 96 118
f 118 98 97
f 118 99 98
f 100 99 118
f 118 101 100
f 102 101 118
f 103 102 118
f 118 104 103
f 118 105 104
f 106 105 118
f 118 107 106
f 118 108 107
f 109 108 118
f 118 110 109
f 118 111 110
f 117 111 118
f 50 114 49
f 127 126 115
f 117 115 111

