# https://github.com/mikedh/trimesh
v 0.07396327 -0.03678847 0.26457736
v 0.06989235 -0.03633360 0.26375392
v 0.07396656 -0.03678311 0.26456401
v 0.06989559 -0.03632829 0.26374087
v 0.07401671 -0.03668655 0.26436889
v 0.06994497 -0.03623293 0.26354885
v 0.07406526 -0.03656501 0.26419464
v 0.06999280 -0.03611318 0.26337725
v 0.07413988 -0.03631715 0.26395866
v 0.07006630 -0.03586931 0.26314467
v 0.07396042 -0.03679148 0.26458973
v 0.06988955 -0.03633657 0.26376617
v 0.07396181 -0.03678847 0.26458451
v 0.06989091 -0.03633363 0.26376101
v 0.07396264 -0.03678793 0.26458070
v 0.06989174 -0.03633309 0.26375729
v 0.07154380 -0.04021133 0.27367896
v 0.06751105 -0.03972886 0.27269843
v 0.07280613 -0.03849588 0.26911756
v 0.06875312 -0.03802515 0.26821822
v 0.07126629 -0.02648298 0.27938440
v 0.06725360 -0.02623168 0.27824757
v 0.07478490 -0.03040940 0.26358342
v 0.07070262 -0.03006939 0.26276100
v 0.07372942 -0.02905960 0.26901034
v 0.06966612 -0.02875338 0.26808676
v 0.07319454 -0.02844182 0.27149564
v 0.06914151 -0.02815012 0.27052358
v 0.07253326 -0.02772740 0.27437136
v 0.06849351 -0.02745149 0.27334112
v 0.07416893 -0.03620175 0.26387665
v 0.07009491 -0.03575585 0.26306370
v 0.07417184 -0.03618908 0.26386896
v 0.07418332 -0.03613773 0.26383954
v 0.07015081 -0.03548420 0.26293164
v 0.07422642 -0.03592093 0.26374149
v 0.07017852 -0.03532366 0.26287937
v 0.07428378 -0.03556523 0.26364526
v 0.07023261 -0.03495274 0.26280636
v 0.07433642 -0.03515998 0.26359591
v 0.07029530 -0.03441954 0.26277128
v 0.07438006 -0.03476623 0.26358205
v 0.07440139 -0.03456015 0.26358095
v 0.07032410 -0.03414447 0.26276842
v 0.07451847 -0.03337846 0.26358175
v 0.07043963 -0.03298480 0.26276606
v 0.07054678 -0.03184814 0.26276395
v 0.07462705 -0.03222061 0.26358241
f 1 2 3
f 1 16 2
f 15 16 1
f 15 14 16
f 13 14 15
f 13 12 14
f 11 12 13
f 11 20 12
f 19 20 11
f 19 18 20
f 17 18 19
f 3 2 4
f 3 4 5
f 5 4 6
f 5 6 7
f 7 6 8
f 7 8 9
f 9 8 10
f 9 10 31
f 31 10 32
f 31 32 33
f 33 32 34
f 34 32 35
f 34 35 36
f 36 35 37
f 36 37 38
f 38 37 39
f 38 39 40
f 40 39 41
f 40 41 42
f 42 41 43
f 43 41 44
f 43 44 45
f 44 46 45
f 45 46 47
f 45 47 48
f 48 47 24
f 48 24 23
f 23 24 25
f 25 24 26
f 25 26 27
f 27 26 28
f 27 28 29
f 29 28 30
f 29 30 21
f 21 30 22

