# https://github.com/mikedh/trimesh
v -0.07154967 0.02856552 0.28003436
v -0.06756036 0.02849489 0.27975073
v -0.06761603 0.02870842 0.27889231
v -0.07160623 0.02878129 0.27916265
v -0.06776502 0.02934955 0.27631608
v -0.07175759 0.02942870 0.27654639
v -0.07216415 0.03277239 0.26307517
v -0.06816620 0.03266205 0.26301059
v -0.07210523 0.03179779 0.26699579
v -0.06810786 0.03169587 0.26689208
v -0.07199890 0.03082443 0.27091572
v -0.06783736 0.02971144 0.27486315
v -0.07183305 0.02980426 0.27503005
v -0.06800256 0.03072990 0.27077267
v -0.06803632 0.03099499 0.26970771
v -0.07195051 0.03909376 0.26347426
v -0.06795394 0.03894034 0.26341185
v -0.06796941 0.03861312 0.26321724
v -0.07196609 0.03876422 0.26327801
v -0.06798573 0.03822626 0.26309568
v -0.07198253 0.03837463 0.26315528
v -0.06801655 0.03741243 0.26301330
v -0.07201358 0.03755477 0.26307327
v -0.07202567 0.03721337 0.26307034
v -0.06802858 0.03707349 0.26301014
v -0.07208087 0.03556692 0.26307228
v -0.06806971 0.03586016 0.26301035
v -0.07192008 0.03959795 0.26413712
v -0.06792374 0.03944134 0.26406839
v -0.07193425 0.03939257 0.26376981
v -0.06793780 0.03923717 0.26370466
v -0.07191971 0.03960134 0.26415068
v -0.06792337 0.03944473 0.26408184
v -0.07191996 0.03959792 0.26414436
v -0.06792362 0.03944133 0.26407555
v -0.07192003 0.03959745 0.26414099
v -0.06792369 0.03944084 0.26407221
v -0.07147205 0.04325656 0.27389732
v -0.06747977 0.04308278 0.27371961
v -0.07173107 0.04143022 0.26902369
v -0.06773631 0.04126486 0.26890314
f 2 1 3
f 3 1 4
f 3 4 5
f 5 4 6
f 5 6 12
f 12 6 13
f 12 13 14
f 14 13 11
f 14 11 15
f 15 11 10
f 9 10 11
f 9 8 10
f 7 8 9
f 26 8 7
f 26 27 8
f 25 27 26
f 24 25 26
f 24 22 25
f 23 22 24
f 21 22 23
f 21 20 22
f 19 20 21
f 19 18 20
f 16 18 19
f 16 17 18
f 16 31 17
f 30 31 16
f 30 29 31
f 28 29 30
f 28 37 29
f 36 37 28
f 36 35 37
f 34 35 36
f 34 33 35
f 32 33 34
f 32 41 33
f 40 41 32
f 40 39 41
f 38 39 40

