# https://github.com/mikedh/trimesh
v -0.06702899 -0.04551748 0.27975294
v -0.06706864 -0.04464711 0.27975312
v -0.06710675 -0.04377667 0.27975333
v -0.06714328 -0.04290614 0.27975360
v -0.06717826 -0.04203556 0.27975380
v -0.06721175 -0.04116491 0.27975395
v -0.06722794 -0.04072956 0.27975398
v -0.06724378 -0.04029421 0.27975404
v -0.06725927 -0.03985883 0.27975407
v -0.06731777 -0.03811724 0.27975407
v -0.06734516 -0.03724173 0.27975401
v -0.06737322 -0.03629855 0.27975395
v -0.06739734 -0.03544623 0.27975389
v -0.06739781 -0.03542951 0.27975386
v -0.06741797 -0.03468124 0.27975425
v -0.06742204 -0.03453109 0.27975267
v -0.06743865 -0.03395445 0.27972689
v -0.06744162 -0.03386194 0.27971762
v -0.06745660 -0.03344781 0.27964967
v -0.06747419 -0.03305403 0.27953243
v -0.06749038 -0.03275321 0.27940002
v -0.06751315 -0.03239647 0.27918684
v -0.06752015 -0.03229890 0.27911618
v -0.06754576 -0.03198157 0.27884096
v -0.06755179 -0.03191478 0.27877253
v -0.06756685 -0.03176010 0.27859634
v -0.06757917 -0.03164554 0.27844650
v -0.06758527 -0.03159264 0.27837047
v -0.06761395 -0.03137586 0.27799740
v -0.06770076 -0.03095064 0.27673003
v -0.06765509 -0.03114239 0.27741951
v -0.06761952 -0.03133938 0.27792194
v -0.06771764 -0.03088490 0.27646604
v -0.06772701 -0.03084735 0.27631536
v -0.06694798 -0.04719055 0.27975214
v -0.06671981 -0.05114491 0.27975109
v -0.06693484 -0.05039991 0.27673829
v -0.06703709 -0.04871837 0.27673900
v -0.06720644 -0.04551426 0.27673838
v -0.06754927 -0.03745789 0.27631855
v -0.06753216 -0.03767446 0.27649584
v -0.06752605 -0.03776608 0.27655140
v -0.06752099 -0.03784866 0.27659342
v -0.06750671 -0.03812013 0.27668798
v -0.06749853 -0.03830931 0.27672118
v -0.06748372 -0.03871498 0.27674028
v -0.06742604 -0.04033370 0.27673957
v -0.06734743 -0.04234520 0.27673876
v -0.06772752 -0.03649700 0.27339268
v -0.06764269 -0.03687380 0.27490762
v -0.07172138 -0.03662220 0.27357540
v -0.06761684 -0.03698248 0.27534461
v -0.06761653 -0.03698377 0.27534968
v -0.06761560 -0.03698761 0.27536517
v -0.06761186 -0.03700332 0.27542710
v -0.06759666 -0.03707463 0.27567258
v -0.06757811 -0.03718967 0.27595082
v -0.06756452 -0.03730176 0.27613544
v -0.06764328 -0.03900564 0.27339241
v -0.07163671 -0.03914831 0.27357161
v -0.06736556 -0.04550982 0.27339062
v -0.07135697 -0.04570992 0.27355951
v -0.06729956 -0.04678325 0.27339014
v -0.07129025 -0.04699913 0.27355665
v -0.06713815 -0.04957119 0.27338931
v -0.07112712 -0.04982103 0.27354956
v -0.06729267 -0.04882438 0.27037513
v -0.06739024 -0.04716609 0.27037585
v -0.06747907 -0.04550735 0.27037668
v -0.06794940 -0.03529743 0.26857093
v -0.06798119 -0.03508634 0.26772258
v -0.07203559 -0.03478614 0.26612064
v -0.06803858 -0.03466407 0.26602542
v -0.06793321 -0.03539986 0.26898271
v -0.06790473 -0.03562699 0.26962870
v -0.06791385 -0.03553952 0.26943976
v -0.06791898 -0.03549734 0.26932502
v -0.06789201 -0.03578058 0.26985881
v -0.06788299 -0.03591342 0.26999775
v -0.06786969 -0.03614462 0.27016717
v -0.06786156 -0.03630636 0.27025011
v -0.06784959 -0.03658137 0.27033657
v -0.06784215 -0.03677667 0.27036583
v -0.06756049 -0.04385395 0.27037746
v -0.06776959 -0.03885246 0.27037928
v -0.06782654 -0.03723163 0.27037933
v -0.06783709 -0.03691942 0.27037573
v -0.07158890 -0.04571486 0.26610464
v -0.06759527 -0.04550455 0.26602232
v -0.06792387 -0.03808699 0.26602507
v -0.07192016 -0.03823320 0.26611626
v -0.06753460 -0.04662398 0.26602158
v -0.07152746 -0.04684861 0.26610264
v -0.06746979 -0.04774628 0.26602095
v -0.07146188 -0.04798488 0.26610050
v -0.06756260 -0.04700003 0.26300597
v -0.06760449 -0.04626203 0.26300630
v -0.06764572 -0.04550347 0.26300675
v -0.06798024 -0.02970038 0.27170905
v -0.06815842 -0.02861900 0.26736724
v -0.06818729 -0.02840320 0.26650080
v -0.06819075 -0.02837647 0.26639220
v -0.06821918 -0.02818704 0.26541987
v -0.06823036 -0.02816326 0.26495799
v -0.06823897 -0.02822033 0.26450726
v -0.06824449 -0.02837283 0.26407847
v -0.06824618 -0.02863175 0.26369876
v -0.06824397 -0.02897022 0.26340726
v -0.06823844 -0.02936617 0.26320595
v -0.06823011 -0.02980644 0.26308766
v -0.06821908 -0.03030068 0.26303092
v -0.06820095 -0.03103650 0.26301065
v -0.06820080 -0.03104229 0.26301065
v -0.06820022 -0.03106544 0.26301065
v -0.06814745 -0.03300933 0.26301062
v -0.06818817 -0.03152830 0.26301065
v -0.06819782 -0.03115801 0.26301065
v -0.06772445 -0.04397652 0.26300770
v -0.06794792 -0.03893251 0.26300982
v -0.06798654 -0.03791953 0.26301003
v -0.06772319 -0.03102568 0.27631545
v -0.06820156 -0.02970672 0.26470175
f 121 34 33
f 99 34 121
f 99 121 49
f 121 50 49
f 121 52 50
f 121 53 52
f 54 53 121
f 121 55 54
f 121 56 55
f 57 56 121
f 121 58 57
f 40 58 121
f 49 80 99
f 99 80 79
f 99 79 78
f 78 75 99
f 99 75 76
f 99 76 77
f 77 74 99
f 99 74 70
f 99 70 100
f 100 70 71
f 100 71 101
f 101 71 73
f 101 73 102
f 73 115 102
f 102 115 116
f 102 116 117
f 117 114 102
f 114 113 102
f 102 113 122
f 102 122 103
f 122 104 103
f 122 105 104
f 106 105 122
f 122 107 106
f 122 108 107
f 109 108 122
f 122 110 109
f 122 111 110
f 112 111 122
f 113 112 122
f 73 120 115
f 90 120 73
f 90 119 120
f 118 119 90
f 89 118 90
f 118 89 98
f 89 97 98
f 92 97 89
f 92 96 97
f 94 96 92
f 49 81 80
f 82 81 49
f 49 83 82
f 49 87 83
f 49 86 87
f 85 86 49
f 59 85 49
f 61 85 59
f 61 84 85
f 69 84 61
f 61 68 69
f 63 68 61
f 63 67 68
f 65 67 63
f 121 33 40
f 40 33 30
f 40 30 31
f 32 40 31
f 32 29 40
f 29 28 40
f 40 28 27
f 40 27 26
f 26 25 40
f 40 25 24
f 40 24 23
f 23 22 40
f 40 22 21
f 40 21 20
f 20 19 40
f 40 19 18
f 40 18 17
f 17 16 40
f 40 16 15
f 40 15 41
f 41 15 14
f 41 14 42
f 14 13 42
f 42 13 12
f 42 12 43
f 43 12 11
f 43 11 44
f 44 11 10
f 44 10 45
f 45 10 46
f 46 10 47
f 47 10 9
f 47 9 8
f 7 47 8
f 6 47 7
f 6 48 47
f 5 48 6
f 5 4 48
f 48 4 3
f 48 3 39
f 39 3 2
f 39 2 1
f 1 38 39
f 35 38 1
f 35 37 38
f 36 37 35
f 49 51 59
f 59 51 60
f 59 60 61
f 61 60 62
f 61 62 63
f 63 62 64
f 63 64 65
f 65 64 66
f 88 89 90
f 88 90 91
f 91 90 73
f 91 73 72
f 89 88 92
f 92 88 93
f 92 93 94
f 94 93 95

