# https://github.com/mikedh/trimesh
v 0.06580897 -0.02215255 0.28381127
v 0.06714640 -0.02330354 0.27921194
v 0.06836429 -0.02446235 0.27456450
v 0.06864303 -0.02474550 0.27342647
v 0.06948533 -0.02564979 0.26978660
v 0.06986228 -0.02608139 0.26804665
v 0.07051036 -0.02686969 0.26486430
v 0.07091083 -0.02739096 0.26275736
v 0.06605421 -0.01622570 0.28381521
v 0.06605063 -0.01633248 0.28381512
v 0.06593841 -0.01931477 0.28381264
v 0.07109565 -0.02459718 0.26275453
v 0.07104539 -0.02540676 0.26275527
v 0.07099272 -0.02621234 0.26275605
v 0.07111358 -0.02429763 0.26275429
v 0.07113826 -0.02384824 0.26276159
v 0.07116140 -0.02312867 0.26284552
v 0.07115518 -0.02343104 0.26279423
v 0.07116198 -0.02303956 0.26286638
v 0.07116196 -0.02296174 0.26288703
v 0.07115500 -0.02260704 0.26301330
v 0.07115220 -0.02253777 0.26304466
v 0.07113094 -0.02220098 0.26323259
v 0.07109872 -0.02189297 0.26346371
v 0.07108007 -0.02176059 0.26358518
v 0.07106390 -0.02166230 0.26368612
v 0.07103328 -0.02150587 0.26386935
v 0.07097436 -0.02128110 0.26420140
v 0.07090435 -0.02109591 0.26457363
v 0.07086739 -0.02102128 0.26476365
v 0.07075803 -0.02085391 0.26530933
v 0.07070741 -0.02079106 0.26555651
v 0.07019494 -0.02018902 0.26797631
v 0.06902183 -0.01892401 0.27304992
v 0.06772669 -0.01767213 0.27805457
v 0.06756055 -0.01752064 0.27865911
v 0.06642816 -0.01653493 0.28258574
v 0.07010870 -0.02199135 0.26798818
v 0.06880958 -0.02184025 0.27338183
v 0.06736600 -0.02167786 0.27873385
f 10 9 37
f 37 11 10
f 37 40 11
f 2 11 40
f 2 40 3
f 3 40 39
f 35 39 40
f 34 39 35
f 33 39 34
f 33 38 39
f 32 38 33
f 32 31 38
f 38 31 30
f 38 30 29
f 29 28 38
f 38 28 27
f 38 27 26
f 26 25 38
f 25 24 38
f 38 24 23
f 38 23 7
f 7 23 22
f 7 22 21
f 21 20 7
f 7 20 19
f 7 19 17
f 17 18 7
f 7 18 16
f 7 16 15
f 15 12 7
f 12 13 7
f 7 13 14
f 7 14 8
f 7 6 38
f 38 6 5
f 38 5 39
f 39 5 4
f 35 40 36
f 39 4 3
f 1 11 2
f 36 40 37

