# https://github.com/mikedh/trimesh
v -0.07147205 0.04325656 0.27389732
v -0.06747977 0.04308278 0.27371961
v -0.07164352 0.04596410 0.26305830
v -0.06764950 0.04575154 0.26300672
v -0.06762964 0.04478433 0.26688835
v -0.06757424 0.04393343 0.27030414
v -0.07156764 0.04412017 0.27043784
v -0.07162362 0.04498447 0.26697809
v -0.06764766 0.04578627 0.26300672
v -0.07163969 0.04603636 0.26305822
v -0.06764571 0.04582311 0.26300672
v -0.06752421 0.04796669 0.26300561
v -0.07151570 0.04822327 0.26305425
v -0.06723399 0.05210337 0.26300615
v -0.07122102 0.05242319 0.26304266
f 3 4 5
f 4 3 9
f 9 3 10
f 9 10 11
f 11 10 12
f 12 10 13
f 12 13 14
f 14 13 15
f 5 8 3
f 5 7 8
f 6 7 5
f 6 1 7
f 2 1 6

