# https://github.com/mikedh/trimesh
v 0.06978601 -0.02235041 0.28507662
v 0.07115469 -0.02351574 0.28037196
v 0.07239940 -0.02469329 0.27562359
v 0.07268403 -0.02498162 0.27446169
v 0.07354348 -0.02590374 0.27074787
v 0.07392780 -0.02634446 0.26897371
v 0.07458807 -0.02715043 0.26573062
v 0.07499579 -0.02768395 0.26358464
v 0.07003557 -0.01636002 0.28507531
v 0.07003192 -0.01646785 0.28507534
v 0.06991748 -0.01948131 0.28507614
v 0.07513203 -0.02566639 0.26358533
v 0.07507872 -0.02648533 0.26358506
v 0.07520149 -0.02453212 0.26358569
v 0.07520115 -0.02453778 0.26358569
v 0.07518291 -0.02484358 0.26358560
v 0.07520802 -0.02441908 0.26358619
v 0.07520281 -0.02450953 0.26358578
v 0.07524990 -0.02326889 0.26369911
v 0.07524334 -0.02365185 0.26362813
v 0.07522728 -0.02405722 0.26359469
v 0.07524700 -0.02296487 0.26379305
v 0.07523929 -0.02273968 0.26388860
v 0.07523970 -0.02274857 0.26388431
v 0.07523979 -0.02275077 0.26388329
v 0.07517931 -0.02205206 0.26434910
v 0.07520206 -0.02223960 0.26419398
v 0.07522961 -0.02256525 0.26397973
v 0.07523758 -0.02270431 0.26390585
v 0.07514971 -0.02186204 0.26453668
v 0.07513423 -0.02177892 0.26463038
v 0.07511850 -0.02170313 0.26472330
v 0.07511462 -0.02168573 0.26474586
v 0.07511758 -0.02169896 0.26472870
v 0.07510253 -0.02163402 0.26481557
v 0.07504983 -0.02144808 0.26510847
v 0.07497025 -0.02125103 0.26552790
v 0.07487009 -0.02108369 0.26603228
v 0.07481596 -0.02101261 0.26629826
v 0.07478652 -0.02097673 0.26644170
v 0.07426436 -0.02036498 0.26890692
v 0.07306799 -0.01908210 0.27407989
v 0.07174554 -0.01781661 0.27918825
v 0.07157577 -0.01766372 0.27980572
v 0.07041810 -0.01667086 0.28381824
v 0.07417710 -0.02219269 0.26891813
v 0.07285248 -0.02203614 0.27441806
v 0.07137828 -0.02186991 0.27988356
f 32 46 31
f 32 34 46
f 46 34 33
f 46 33 35
f 35 36 46
f 46 36 37
f 46 37 38
f 39 46 38
f 39 40 46
f 40 41 46
f 46 41 42
f 46 42 47
f 46 47 4
f 5 46 4
f 6 46 5
f 6 27 46
f 27 26 46
f 46 26 30
f 7 27 6
f 7 28 27
f 29 28 7
f 7 23 29
f 7 24 23
f 25 24 7
f 7 22 25
f 7 19 22
f 20 19 7
f 7 21 20
f 7 17 21
f 18 17 7
f 7 14 18
f 7 15 14
f 7 16 15
f 7 12 16
f 13 12 7
f 7 8 13
f 47 3 4
f 47 2 3
f 48 2 47
f 47 43 48
f 48 43 44
f 48 44 45
f 45 11 48
f 45 10 11
f 9 10 45
f 48 11 2
f 11 1 2
f 47 42 43
f 46 30 31

