# https://github.com/mikedh/trimesh
v 0.06905260 0.04835538 0.27936491
v 0.06949520 0.04798835 0.27787569
v 0.06988781 0.04765422 0.27652046
v 0.06906799 0.04834279 0.27931383
v 0.07104786 0.03111091 0.27908912
v 0.07104727 0.03111371 0.27909046
v 0.07104492 0.03112495 0.27909568
v 0.07103567 0.03117011 0.27911615
v 0.07103042 0.03119638 0.27912760
v 0.07100058 0.03135480 0.27918980
v 0.07093821 0.03175291 0.27929956
v 0.07089081 0.03214486 0.27935579
v 0.07136215 0.03006197 0.27824515
v 0.07136134 0.03006388 0.27824759
v 0.07135874 0.03006996 0.27825537
v 0.07134838 0.03009456 0.27828634
v 0.07130741 0.03019711 0.27840692
v 0.07120678 0.03048980 0.27869046
v 0.07115314 0.03067384 0.27883285
v 0.07106768 0.03101936 0.27904364
v 0.07173324 0.02947399 0.27704152
v 0.07161104 0.02961599 0.27745539
v 0.07149385 0.02979429 0.27783766
v 0.07138065 0.03001946 0.27818954
v 0.07188038 0.02933745 0.27652892
v 0.07187823 0.02933929 0.27653646
v 0.07187135 0.02934525 0.27656063
v 0.07184384 0.02936937 0.27665725
v 0.07316265 0.02816751 0.27180341
v 0.07435639 0.02696862 0.26696444
v 0.07437706 0.02694681 0.26687637
v 0.07440264 0.02692008 0.26676705
v 0.07456338 0.02677446 0.26606688
v 0.07466614 0.02672135 0.26560122
v 0.07470737 0.02671957 0.26540694
v 0.07477719 0.02676060 0.26506221
v 0.07480249 0.02679187 0.26493141
v 0.07480866 0.02680090 0.26489902
v 0.07484178 0.02686175 0.26472065
v 0.07488985 0.02700394 0.26444292
v 0.07490846 0.02708622 0.26432583
v 0.07494004 0.02729451 0.26410314
v 0.07495987 0.02753225 0.26392588
v 0.07495964 0.02752837 0.26392832
v 0.07495590 0.02747023 0.26396641
v 0.07495894 0.02751663 0.26393577
v 0.07496307 0.02759519 0.26388872
v 0.07488996 0.02942453 0.26358402
v 0.07489052 0.02941732 0.26358402
v 0.07489274 0.02938845 0.26358408
v 0.07490151 0.02927300 0.26358482
v 0.07493374 0.02881112 0.26359916
v 0.07495550 0.02842509 0.26363328
v 0.07496808 0.02807694 0.26369616
v 0.07496997 0.02789244 0.26375183
v 0.07484525 0.02999186 0.26358375
v 0.07467104 0.03205412 0.26358271
v 0.07402857 0.03827761 0.26357836
v 0.07336327 0.04337318 0.26357332
v 0.07320494 0.04445515 0.26357207
v 0.07085190 0.03254303 0.27937797
v 0.07083347 0.03275334 0.27938136
v 0.07082132 0.03289660 0.27938190
v 0.07065894 0.03475611 0.27938071
v 0.07041068 0.03734947 0.27937868
v 0.07014019 0.03990632 0.27937624
v 0.06978669 0.04292485 0.27937275
v 0.06938712 0.04599863 0.27936861
v 0.06848837 0.04455067 0.26559114
v 0.07253955 0.04515813 0.26641339
v 0.07255182 0.04514549 0.26636231
v 0.07289017 0.04479214 0.26493388
v 0.07274099 0.04377976 0.26641515
v 0.06868706 0.04320058 0.26558602
v 0.06935525 0.03808213 0.26556951
v 0.06994201 0.03246477 0.26555648
v 0.07401206 0.03283549 0.26642498
v 0.06944928 0.03727026 0.26556727
v 0.07351358 0.03772768 0.26642138
v 0.07341804 0.03855827 0.26642063
v 0.07333574 0.03352615 0.26921394
v 0.07327379 0.03359206 0.26946023
v 0.07318842 0.03371824 0.26978308
v 0.07313967 0.03382152 0.26995376
v 0.07312771 0.03385119 0.26999372
v 0.07312474 0.03385885 0.27000356
v 0.07312400 0.03386077 0.27000600
v 0.07305752 0.03406107 0.27021307
v 0.07298845 0.03434600 0.27039504
v 0.07295058 0.03455597 0.27047178
v 0.07291347 0.03482742 0.27051866
v 0.07287729 0.03516915 0.27053028
v 0.07287778 0.03516413 0.27053028
v 0.07288577 0.03508389 0.27052993
v 0.07287937 0.03514808 0.27053025
v 0.07286718 0.03527143 0.27053022
v 0.07262271 0.03761957 0.27052829
v 0.07223371 0.04094901 0.27052495
v 0.07151826 0.04617279 0.27051836
v 0.07375944 0.03309793 0.26748461
v 0.07352788 0.03333374 0.26843691
v 0.07076734 0.04687474 0.27336100
v 0.07116519 0.04650724 0.27187246
v 0.07078117 0.04686214 0.27330992
v 0.07094434 0.04566544 0.27336282
v 0.07225652 0.03455582 0.27337471
v 0.07223552 0.03477813 0.27337456
v 0.07195744 0.03753911 0.27337226
v 0.07164776 0.04029069 0.27336952
v 0.07132470 0.03604300 0.27647591
v 0.07136570 0.03583091 0.27639851
v 0.07142668 0.03559288 0.27625358
v 0.07151409 0.03534589 0.27600935
v 0.07151491 0.03534397 0.27600691
v 0.07151818 0.03533637 0.27599713
v 0.07153133 0.03530690 0.27595741
v 0.07158511 0.03520423 0.27578792
v 0.07168041 0.03507791 0.27546537
v 0.07175049 0.03501144 0.27521700
v 0.07124937 0.03664884 0.27653378
v 0.07125098 0.03663288 0.27653378
v 0.07125747 0.03656904 0.27653340
v 0.07128578 0.03631404 0.27652234
v 0.07122117 0.03692855 0.27653354
v 0.07124887 0.03665383 0.27653378
v 0.07114652 0.03765414 0.27653295
v 0.07105291 0.03853586 0.27653208
v 0.07093862 0.03957319 0.27653104
v 0.07061980 0.04227258 0.27652800
v 0.07184985 0.03492325 0.27486032
v 0.07294175 0.03200557 0.27149045
v 0.07195713 0.03188888 0.27548745
v 0.07384898 0.03211468 0.26747760
v 0.07239429 0.03759198 0.27152461
v 0.07171579 0.04317090 0.27153507
f 80 79 58
f 80 58 73
f 73 58 59
f 73 59 60
f 60 72 73
f 73 72 71
f 73 71 70
f 58 79 57
f 79 77 57
f 57 77 133
f 77 100 133
f 133 100 101
f 133 101 131
f 131 101 81
f 131 81 82
f 82 83 131
f 83 84 131
f 131 84 85
f 131 85 86
f 86 87 131
f 87 88 131
f 131 88 89
f 131 89 90
f 90 91 131
f 131 91 134
f 91 94 134
f 134 94 95
f 134 95 93
f 93 92 134
f 134 92 96
f 96 97 134
f 134 97 98
f 134 98 135
f 108 134 135
f 108 135 109
f 109 135 105
f 135 103 105
f 105 103 104
f 105 104 102
f 135 98 103
f 98 99 103
f 131 134 108
f 108 107 131
f 131 107 106
f 131 106 132
f 132 29 131
f 131 29 30
f 132 25 29
f 26 25 132
f 132 27 26
f 132 28 27
f 21 28 132
f 132 22 21
f 132 23 22
f 24 23 132
f 132 13 24
f 14 13 132
f 132 15 14
f 132 16 15
f 17 16 132
f 132 18 17
f 132 19 18
f 20 19 132
f 132 5 20
f 6 5 132
f 7 6 132
f 7 132 8
f 132 9 8
f 132 10 9
f 11 10 132
f 132 118 11
f 11 118 117
f 11 117 116
f 116 115 11
f 11 115 114
f 11 114 113
f 11 113 12
f 12 113 61
f 113 62 61
f 113 63 62
f 112 63 113
f 112 64 63
f 111 64 112
f 111 110 64
f 64 110 123
f 64 123 65
f 123 122 65
f 65 122 121
f 65 121 120
f 120 125 65
f 65 125 124
f 124 126 65
f 65 126 127
f 65 127 66
f 66 127 128
f 66 128 67
f 67 128 129
f 67 129 68
f 68 129 3
f 68 3 2
f 4 68 2
f 1 68 4
f 132 119 118
f 130 119 132
f 132 106 130
f 131 30 133
f 133 30 31
f 133 31 32
f 32 33 133
f 133 33 34
f 133 34 35
f 35 36 133
f 133 36 37
f 133 37 38
f 38 39 133
f 133 39 40
f 133 40 41
f 41 42 133
f 133 42 45
f 133 45 46
f 44 133 46
f 44 43 133
f 133 43 47
f 47 55 133
f 133 55 54
f 133 54 53
f 53 52 133
f 133 52 51
f 133 51 50
f 49 133 50
f 49 48 133
f 56 133 48
f 57 133 56
f 70 69 73
f 73 69 74
f 73 74 75
f 75 80 73
f 75 79 80
f 78 79 75
f 78 77 79
f 76 77 78

