# https://github.com/mikedh/trimesh
v -0.07174173 -0.00611181 0.28004640
v -0.06775407 -0.00610155 0.27973261
v -0.07197102 -0.00531859 0.27681184
v -0.06797870 -0.00530860 0.27656412
v -0.07197798 0.00015926 0.27681154
v -0.06798564 0.00015923 0.27656409
v -0.07197640 0.00274592 0.27681157
v -0.06798410 0.00274109 0.27656358
v -0.07199238 0.00280994 0.27654874
v -0.06799956 0.00280493 0.27630949
v -0.07257412 0.00762763 0.25699195
v -0.06857416 0.00761169 0.25697878
v -0.07253259 0.00644126 0.26180166
v -0.06853275 0.00642234 0.26176250
v -0.07247388 0.00569286 0.26483780
v -0.06807335 0.00312659 0.27501658
v -0.07206872 0.00313904 0.27521056
v -0.06828871 0.00424298 0.27052754
v -0.07228523 0.00425040 0.27069426
v -0.06833503 0.00453722 0.26934427
v -0.07233326 0.00455287 0.26946583
v -0.06847500 0.00568121 0.26474321
v -0.06847744 0.00570690 0.26463997
v -0.07253613 0.01402142 0.25699151
v -0.06853627 0.01398921 0.25697926
f 3 4 1
f 3 5 4
f 4 5 6
f 5 7 6
f 6 7 8
f 7 9 8
f 8 9 10
f 10 9 16
f 16 9 17
f 16 17 18
f 18 17 19
f 18 19 20
f 20 19 21
f 20 21 22
f 22 21 15
f 22 15 23
f 23 15 14
f 13 14 15
f 13 12 14
f 11 12 13
f 11 25 12
f 24 25 11
f 1 4 2

