# https://github.com/mikedh/trimesh
v -0.06827213 -0.07289723 0.27346674
v -0.06436528 -0.07204513 0.27336803
v -0.06849146 -0.07213772 0.27041283
v -0.06457780 -0.07131300 0.27036440
v -0.06842524 -0.07238386 0.27140221
v -0.06658120 -0.05800099 0.26892030
v -0.07058097 -0.05829076 0.26849625
v -0.06660286 -0.05787865 0.26842657
v -0.07060423 -0.05815522 0.26794526
v -0.06662599 -0.05774359 0.26788154
v -0.07062884 -0.05800635 0.26734039
v -0.06665044 -0.05759526 0.26728299
v -0.07065456 -0.05784399 0.26668069
v -0.06667601 -0.05743337 0.26662999
v -0.07067747 -0.05769313 0.26606807
v -0.06669880 -0.05728302 0.26602334
v -0.06657854 -0.05801571 0.26897970
v -0.07055648 -0.05842832 0.26905560
v -0.07055914 -0.05841357 0.26899555
v -0.07055587 -0.05843166 0.26906914
v -0.07055633 -0.05842913 0.26905882
v -0.07051025 -0.05872411 0.26982218
v -0.07052997 -0.05858628 0.26956573
v -0.06656205 -0.05811051 0.26931980
v -0.07054631 -0.05848534 0.26927462
v -0.07055402 -0.05844186 0.26911035
v -0.06654218 -0.05824108 0.26962599
v -0.06653289 -0.05830783 0.26973671
v -0.07050300 -0.05877812 0.26989713
v -0.06651987 -0.05840567 0.26986644
v -0.07047742 -0.05897809 0.27010807
v -0.06650303 -0.05853770 0.27000257
v -0.06649293 -0.05861918 0.27007097
v -0.07045849 -0.05913279 0.27022400
v -0.06647484 -0.05876849 0.27017227
v -0.07042819 -0.05938912 0.27035519
v -0.06645436 -0.05894221 0.27025852
v -0.07040671 -0.05957649 0.27041224
v -0.06642227 -0.05922238 0.27033964
v -0.07036886 -0.05991370 0.27045679
v -0.06640244 -0.05939908 0.27036321
v -0.07028857 -0.06062908 0.27046034
v -0.06634594 -0.05990512 0.27037483
v -0.07025422 -0.06092805 0.27045918
v -0.06628168 -0.06046800 0.27037469
v -0.07022562 -0.06117372 0.27045819
v -0.06616186 -0.06147648 0.27037415
v -0.06987233 -0.06398205 0.27044719
v -0.06582764 -0.06403748 0.27037233
v -0.06965436 -0.06553153 0.27044100
v -0.06947621 -0.06671078 0.27043620
v -0.06545680 -0.06652258 0.27036995
v -0.06936301 -0.06742354 0.27043328
v -0.06903648 -0.06933770 0.27042517
v -0.06509998 -0.06863011 0.27036765
v -0.06895602 -0.06977997 0.27042326
v -0.06489759 -0.06972130 0.27036637
v -0.06504584 -0.06892888 0.27036729
f 3 4 5
f 4 3 57
f 57 3 56
f 57 56 58
f 58 56 55
f 54 55 56
f 54 52 55
f 53 52 54
f 51 52 53
f 51 49 52
f 50 49 51
f 48 49 50
f 48 47 49
f 46 47 48
f 46 45 47
f 44 45 46
f 44 43 45
f 42 43 44
f 42 41 43
f 40 41 42
f 40 39 41
f 38 39 40
f 38 37 39
f 36 37 38
f 36 35 37
f 34 35 36
f 34 33 35
f 31 33 34
f 31 32 33
f 30 32 31
f 29 30 31
f 29 28 30
f 22 28 29
f 22 27 28
f 24 27 22
f 22 23 24
f 24 23 25
f 24 25 17
f 17 25 26
f 17 26 20
f 20 21 17
f 17 21 18
f 17 18 6
f 6 18 19
f 6 19 7
f 6 7 8
f 8 7 9
f 8 9 10
f 10 9 11
f 10 11 12
f 12 11 13
f 12 13 14
f 14 13 15
f 14 15 16
f 5 4 2
f 5 2 1

