v 0.54742039 -0.00583699 0.86728997
v 0.54580671 -0.00722196 0.86490964
v 0.54716601 -0.00392933 0.86303913
v 0.54857810 -0.00292759 0.86667099
v 0.54580671 -0.00722196 0.86490964
v 0.54358484 -0.00763209 0.86303758
v 0.54449566 -0.00442225 0.86078920
v 0.54716601 -0.00392933 0.86303913
v 0.54358484 -0.00763209 0.86303758
v 0.54075477 -0.00706739 0.86167380
v 0.54056702 -0.00440634 0.85992119
v 0.54449566 -0.00442225 0.86078920
v 0.54857810 -0.00292759 0.86667099
v 0.54716601 -0.00392933 0.86303913
v 0.54705235 -0.00046056 0.86241410
v 0.54848352 -0.00004139 0.86615093
v 0.54716601 -0.00392933 0.86303913
v 0.54449566 -0.00442225 0.86078920
v 0.54438200 -0.00095347 0.86016417
v 0.54705235 -0.00046056 0.86241410
v 0.54449566 -0.00442225 0.86078920
v 0.54056702 -0.00440634 0.85992119
v 0.54047244 -0.00152014 0.85940113
v 0.54438200 -0.00095347 0.86016417
v 0.54848352 -0.00004139 0.86615093
v 0.54705235 -0.00046056 0.86241410
v 0.54546571 0.00318436 0.86303454
v 0.54713666 0.00282159 0.86572979
v 0.54705235 -0.00046056 0.86241410
v 0.54438200 -0.00095347 0.86016417
v 0.54324384 0.00277423 0.86116249
v 0.54546571 0.00318436 0.86303454
v 0.54438200 -0.00095347 0.86016417
v 0.54047244 -0.00152014 0.85940113
v 0.54047104 0.00159120 0.86011362
v 0.54324384 0.00277423 0.86116249
v 0.54075477 -0.00706739 0.86167380
v 0.53819656 -0.00773197 0.86346317
v 0.53682658 -0.00456441 0.86139495
v 0.54056702 -0.00440634 0.85992119
v 0.53819656 -0.00773197 0.86346317
v 0.53628244 -0.00739850 0.86566191
v 0.53452609 -0.00416363 0.86403751
v 0.53682658 -0.00456441 0.86139495
v 0.53628244 -0.00739850 0.86566191
v 0.53501242 -0.00606699 0.86827001
v 0.53366555 -0.00320401 0.86784887
v 0.53452609 -0.00416363 0.86403751
v 0.54056702 -0.00440634 0.85992119
v 0.53682658 -0.00456441 0.86139495
v 0.53671291 -0.00109563 0.86076992
v 0.54047244 -0.00152014 0.85940113
v 0.53682658 -0.00456441 0.86139495
v 0.53452609 -0.00416363 0.86403751
v 0.53441242 -0.00069486 0.86341248
v 0.53671291 -0.00109563 0.86076992
v 0.53452609 -0.00416363 0.86403751
v 0.53366555 -0.00320401 0.86784887
v 0.53357097 -0.00031782 0.86732881
v 0.53441242 -0.00069486 0.86341248
v 0.54047244 -0.00152014 0.85940113
v 0.53671291 -0.00109563 0.86076992
v 0.53785556 0.00267435 0.86158808
v 0.54047104 0.00159120 0.86011362
v 0.53671291 -0.00109563 0.86076992
v 0.53441242 -0.00069486 0.86341248
v 0.53594144 0.00300781 0.86378682
v 0.53785556 0.00267435 0.86158808
v 0.53441242 -0.00069486 0.86341248
v 0.53357097 -0.00031782 0.86732881
v 0.53472868 0.00259159 0.86670984
v 0.53594144 0.00300781 0.86378682
v 0.53501242 -0.00606699 0.86827001
v 0.53668337 -0.00642976 0.87096526
v 0.53509674 -0.00278484 0.87158570
v 0.53366555 -0.00320401 0.86784887
v 0.53668337 -0.00642976 0.87096526
v 0.53890524 -0.00601963 0.87283732
v 0.53776709 -0.00229192 0.87383563
v 0.53509674 -0.00278484 0.87158570
v 0.53890524 -0.00601963 0.87283732
v 0.54167804 -0.00483660 0.87388619
v 0.54167663 -0.00172526 0.87459867
v 0.53776709 -0.00229192 0.87383563
v 0.53366555 -0.00320401 0.86784887
v 0.53509674 -0.00278484 0.87158570
v 0.53498307 0.00068394 0.87096067
v 0.53357097 -0.00031782 0.86732881
v 0.53509674 -0.00278484 0.87158570
v 0.53776709 -0.00229192 0.87383563
v 0.53765342 0.00117685 0.87321059
v 0.53498307 0.00068394 0.87096067
v 0.53776709 -0.00229192 0.87383563
v 0.54167663 -0.00172526 0.87459867
v 0.54158205 0.00116093 0.87407861
v 0.53765342 0.00117685 0.87321059
v 0.53357097 -0.00031782 0.86732881
v 0.53498307 0.00068394 0.87096067
v 0.53634237 0.00397655 0.86909016
v 0.53472868 0.00259159 0.86670984
v 0.53498307 0.00068394 0.87096067
v 0.53765342 0.00117685 0.87321059
v 0.53856424 0.00438668 0.87096222
v 0.53634237 0.00397655 0.86909016
v 0.53765342 0.00117685 0.87321059
v 0.54158205 0.00116093 0.87407861
v 0.54139430 0.00382198 0.87232601
v 0.53856424 0.00438668 0.87096222
v 0.54167804 -0.00483660 0.87388619
v 0.54429352 -0.00591975 0.87241172
v 0.54543617 -0.00214976 0.87322989
v 0.54167663 -0.00172526 0.87459867
v 0.54429352 -0.00591975 0.87241172
v 0.54620764 -0.00625322 0.87021297
v 0.54773666 -0.00255054 0.87058733
v 0.54543617 -0.00214976 0.87322989
v 0.54620764 -0.00625322 0.87021297
v 0.54742039 -0.00583699 0.86728997
v 0.54857810 -0.00292759 0.86667099
v 0.54773666 -0.00255054 0.87058733
v 0.54167663 -0.00172526 0.87459867
v 0.54543617 -0.00214976 0.87322989
v 0.54532250 0.00131901 0.87260485
v 0.54158205 0.00116093 0.87407861
v 0.54543617 -0.00214976 0.87322989
v 0.54773666 -0.00255054 0.87058733
v 0.54762299 0.00091824 0.86996229
v 0.54532250 0.00131901 0.87260485
v 0.54773666 -0.00255054 0.87058733
v 0.54857810 -0.00292759 0.86667099
v 0.54848352 -0.00004139 0.86615093
v 0.54762299 0.00091824 0.86996229
v 0.54158205 0.00116093 0.87407861
v 0.54532250 0.00131901 0.87260485
v 0.54395252 0.00448656 0.87053662
v 0.54139430 0.00382198 0.87232601
v 0.54532250 0.00131901 0.87260485
v 0.54762299 0.00091824 0.86996229
v 0.54586664 0.00415310 0.86833788
v 0.54395252 0.00448656 0.87053662
v 0.54762299 0.00091824 0.86996229
v 0.54848352 -0.00004139 0.86615093
v 0.54713666 0.00282159 0.86572979
v 0.54586664 0.00415310 0.86833788
v 0.54167804 -0.00483660 0.87388619
v 0.53890524 -0.00601963 0.87283732
v 0.54149167 -0.00826191 0.87072297
v 0.54429352 -0.00591975 0.87241172
v 0.53890524 -0.00601963 0.87283732
v 0.53668337 -0.00642976 0.87096526
v 0.53882132 -0.00875482 0.86847304
v 0.54149167 -0.00826191 0.87072297
v 0.53668337 -0.00642976 0.87096526
v 0.53501242 -0.00606699 0.86827001
v 0.53628244 -0.00739850 0.86566191
v 0.53882132 -0.00875482 0.86847304
v 0.54429352 -0.00591975 0.87241172
v 0.54149167 -0.00826191 0.87072297
v 0.54379216 -0.00866268 0.86808041
v 0.54620764 -0.00625322 0.87021297
v 0.54149167 -0.00826191 0.87072297
v 0.53882132 -0.00875482 0.86847304
v 0.54112181 -0.00915560 0.86583048
v 0.54379216 -0.00866268 0.86808041
v 0.53882132 -0.00875482 0.86847304
v 0.53628244 -0.00739850 0.86566191
v 0.53819656 -0.00773197 0.86346317
v 0.54112181 -0.00915560 0.86583048
v 0.54620764 -0.00625322 0.87021297
v 0.54379216 -0.00866268 0.86808041
v 0.54580671 -0.00722196 0.86490964
v 0.54742039 -0.00583699 0.86728997
v 0.54379216 -0.00866268 0.86808041
v 0.54112181 -0.00915560 0.86583048
v 0.54358484 -0.00763209 0.86303758
v 0.54580671 -0.00722196 0.86490964
v 0.54112181 -0.00915560 0.86583048
v 0.53819656 -0.00773197 0.86346317
v 0.54075477 -0.00706739 0.86167380
v 0.54358484 -0.00763209 0.86303758
v 0.54713666 0.00282159 0.86572979
v 0.54546571 0.00318436 0.86303454
v 0.54332776 0.00550942 0.86552676
v 0.54586664 0.00415310 0.86833788
v 0.54546571 0.00318436 0.86303454
v 0.54324384 0.00277423 0.86116249
v 0.54065741 0.00501650 0.86327684
v 0.54332776 0.00550942 0.86552676
v 0.54324384 0.00277423 0.86116249
v 0.54047104 0.00159120 0.86011362
v 0.53785556 0.00267435 0.86158808
v 0.54065741 0.00501650 0.86327684
v 0.54586664 0.00415310 0.86833788
v 0.54332776 0.00550942 0.86552676
v 0.54102727 0.00591019 0.86816932
v 0.54395252 0.00448656 0.87053662
v 0.54332776 0.00550942 0.86552676
v 0.54065741 0.00501650 0.86327684
v 0.53835692 0.00541728 0.86591939
v 0.54102727 0.00591019 0.86816932
v 0.54065741 0.00501650 0.86327684
v 0.53785556 0.00267435 0.86158808
v 0.53594144 0.00300781 0.86378682
v 0.53835692 0.00541728 0.86591939
v 0.54395252 0.00448656 0.87053662
v 0.54102727 0.00591019 0.86816932
v 0.53856424 0.00438668 0.87096222
v 0.54139430 0.00382198 0.87232601
v 0.54102727 0.00591019 0.86816932
v 0.53835692 0.00541728 0.86591939
v 0.53634237 0.00397655 0.86909016
v 0.53856424 0.00438668 0.87096222
v 0.53835692 0.00541728 0.86591939
v 0.53594144 0.00300781 0.86378682
v 0.53472868 0.00259159 0.86670984
v 0.53634237 0.00397655 0.86909016
v 0.55051063 -0.00372872 0.87902774
v 0.54835611 -0.00366084 0.87543572
v 0.55092113 0.00094171 0.87508771
v 0.55263159 -0.00023407 0.87994321
v 0.54835611 -0.00366084 0.87543572
v 0.54556054 -0.00261194 0.87300372
v 0.54756126 0.00220234 0.87216482
v 0.55092113 0.00094171 0.87508771
v 0.54556054 -0.00261194 0.87300372
v 0.54212388 -0.00058200 0.87173175
v 0.54255197 0.00354781 0.87117452
v 0.54756126 0.00220234 0.87216482
v 0.55263159 -0.00023407 0.87994321
v 0.55092113 0.00094171 0.87508771
v 0.55150552 0.00536365 0.87632312
v 0.55311783 0.00344521 0.88097113
v 0.55092113 0.00094171 0.87508771
v 0.54756126 0.00220234 0.87216482
v 0.54814565 0.00662428 0.87340022
v 0.55150552 0.00536365 0.87632312
v 0.54756126 0.00220234 0.87216482
v 0.54255197 0.00354781 0.87117452
v 0.54303821 0.00722709 0.87220243
v 0.54814565 0.00662428 0.87340022
v 0.55311783 0.00344521 0.88097113
v 0.55150552 0.00536365 0.87632312
v 0.55010927 0.00960497 0.87914193
v 0.55196935 0.00730911 0.88211148
v 0.55150552 0.00536365 0.87632312
v 0.54814565 0.00662428 0.87340022
v 0.54731369 0.01065387 0.87670993
v 0.55010927 0.00960497 0.87914193
v 0.54814565 0.00662428 0.87340022
v 0.54303821 0.00722709 0.87220243
v 0.54358261 0.01045582 0.87481550
v 0.54731369 0.01065387 0.87670993
v 0.54212388 -0.00058200 0.87173175
v 0.53852670 -0.00181753 0.87348753
v 0.53755006 0.00333300 0.87285342
v 0.54255197 0.00354781 0.87117452
v 0.53852670 -0.00181753 0.87348753
v 0.53592316 -0.00225668 0.87629090
v 0.53442101 0.00280523 0.87622265
v 0.53755006 0.00333300 0.87285342
v 0.53592316 -0.00225668 0.87629090
v 0.53431329 -0.00189940 0.88014184
v 0.53316480 0.00196450 0.88128220
v 0.53442101 0.00280523 0.87622265
v 0.54255197 0.00354781 0.87117452
v 0.53755006 0.00333300 0.87285342
v 0.53813446 0.00775494 0.87408882
v 0.54303821 0.00722709 0.87220243
v 0.53755006 0.00333300 0.87285342
v 0.53442101 0.00280523 0.87622265
v 0.53500539 0.00722717 0.87745806
v 0.53813446 0.00775494 0.87408882
v 0.53442101 0.00280523 0.87622265
v 0.53316480 0.00196450 0.88128220
v 0.53365104 0.00564378 0.88231012
v 0.53500539 0.00722717 0.87745806
v 0.54303821 0.00722709 0.87220243
v 0.53813446 0.00775494 0.87408882
v 0.54027986 0.01144827 0.87719374
v 0.54358261 0.01045582 0.87481550
v 0.53813446 0.00775494 0.87408882
v 0.53500539 0.00722717 0.87745806
v 0.53767632 0.01100914 0.87999710
v 0.54027986 0.01144827 0.87719374
v 0.53500539 0.00722717 0.87745806
v 0.53365104 0.00564378 0.88231012
v 0.53577200 0.00913843 0.88322559
v 0.53767632 0.01100914 0.87999710
v 0.53431329 -0.00189940 0.88014184
v 0.53617335 -0.00419526 0.88311141
v 0.53477710 0.00004606 0.88593021
v 0.53316480 0.00196450 0.88128220
v 0.53617335 -0.00419526 0.88311141
v 0.53896893 -0.00524416 0.88554341
v 0.53813697 -0.00121456 0.88885311
v 0.53477710 0.00004606 0.88593021
v 0.53896893 -0.00524416 0.88554341
v 0.54270002 -0.00504611 0.88743784
v 0.54324441 -0.00181738 0.89005089
v 0.53813697 -0.00121456 0.88885311
v 0.53316480 0.00196450 0.88128220
v 0.53477710 0.00004606 0.88593021
v 0.53536150 0.00446801 0.88716561
v 0.53365104 0.00564378 0.88231012
v 0.53477710 0.00004606 0.88593021
v 0.53813697 -0.00121456 0.88885311
v 0.53872136 0.00320738 0.89008852
v 0.53536150 0.00446801 0.88716561
v 0.53813697 -0.00121456 0.88885311
v 0.54324441 -0.00181738 0.89005089
v 0.54373065 0.00186190 0.89107881
v 0.53872136 0.00320738 0.89008852
v 0.53365104 0.00564378 0.88231012
v 0.53536150 0.00446801 0.88716561
v 0.53792651 0.00907056 0.88681761
v 0.53577200 0.00913843 0.88322559
v 0.53536150 0.00446801 0.88716561
v 0.53872136 0.00320738 0.89008852
v 0.54072209 0.00802165 0.88924961
v 0.53792651 0.00907056 0.88681761
v 0.53872136 0.00320738 0.89008852
v 0.54373065 0.00186190 0.89107881
v 0.54415875 0.00599171 0.89052159
v 0.54072209 0.00802165 0.88924961
v 0.54270002 -0.00504611 0.88743784
v 0.54600277 -0.00603856 0.88505960
v 0.54814817 -0.00234523 0.88816450
v 0.54324441 -0.00181738 0.89005089
v 0.54600277 -0.00603856 0.88505960
v 0.54860631 -0.00559943 0.88225623
v 0.55127723 -0.00181745 0.88479528
v 0.54814817 -0.00234523 0.88816450
v 0.54860631 -0.00559943 0.88225623
v 0.55051063 -0.00372872 0.87902774
v 0.55263159 -0.00023407 0.87994321
v 0.55127723 -0.00181745 0.88479528
v 0.54324441 -0.00181738 0.89005089
v 0.54814817 -0.00234523 0.88816450
v 0.54873255 0.00207672 0.88939991
v 0.54373065 0.00186190 0.89107881
v 0.54814817 -0.00234523 0.88816450
v 0.55127723 -0.00181745 0.88479528
v 0.55186162 0.00260449 0.88603068
v 0.54873255 0.00207672 0.88939991
v 0.55127723 -0.00181745 0.88479528
v 0.55263159 -0.00023407 0.87994321
v 0.55311783 0.00344521 0.88097113
v 0.55186162 0.00260449 0.88603068
v 0.54373065 0.00186190 0.89107881
v 0.54873255 0.00207672 0.88939991
v 0.54775593 0.00722725 0.88876580
v 0.54415875 0.00599171 0.89052159
v 0.54873255 0.00207672 0.88939991
v 0.55186162 0.00260449 0.88603068
v 0.55035946 0.00766639 0.88596244
v 0.54775593 0.00722725 0.88876580
v 0.55186162 0.00260449 0.88603068
v 0.55311783 0.00344521 0.88097113
v 0.55196935 0.00730911 0.88211148
v 0.55035946 0.00766639 0.88596244
v 0.54270002 -0.00504611 0.88743784
v 0.53896893 -0.00524416 0.88554341
v 0.54206293 -0.00722253 0.88174904
v 0.54600277 -0.00603856 0.88505960
v 0.53896893 -0.00524416 0.88554341
v 0.53617335 -0.00419526 0.88311141
v 0.53870306 -0.00596189 0.87882614
v 0.54206293 -0.00722253 0.88174904
v 0.53617335 -0.00419526 0.88311141
v 0.53431329 -0.00189940 0.88014184
v 0.53592316 -0.00225668 0.87629090
v 0.53870306 -0.00596189 0.87882614
v 0.54600277 -0.00603856 0.88505960
v 0.54206293 -0.00722253 0.88174904
v 0.54519199 -0.00669476 0.87837981
v 0.54860631 -0.00559943 0.88225623
v 0.54206293 -0.00722253 0.88174904
v 0.53870306 -0.00596189 0.87882614
v 0.54183212 -0.00543413 0.87545691
v 0.54519199 -0.00669476 0.87837981
v 0.53870306 -0.00596189 0.87882614
v 0.53592316 -0.00225668 0.87629090
v 0.53852670 -0.00181753 0.87348753
v 0.54183212 -0.00543413 0.87545691
v 0.54860631 -0.00559943 0.88225623
v 0.54519199 -0.00669476 0.87837981
v 0.54835611 -0.00366084 0.87543572
v 0.55051063 -0.00372872 0.87902774
v 0.54519199 -0.00669476 0.87837981
v 0.54183212 -0.00543413 0.87545691
v 0.54556054 -0.00261194 0.87300372
v 0.54835611 -0.00366084 0.87543572
v 0.54183212 -0.00543413 0.87545691
v 0.53852670 -0.00181753 0.87348753
v 0.54212388 -0.00058200 0.87173175
v 0.54556054 -0.00261194 0.87300372
v 0.55196935 0.00730911 0.88211148
v 0.55010927 0.00960497 0.87914193
v 0.54757957 0.01137161 0.88342720
v 0.55035946 0.00766639 0.88596244
v 0.55010927 0.00960497 0.87914193
v 0.54731369 0.01065387 0.87670993
v 0.54421970 0.01263224 0.88050430
v 0.54757957 0.01137161 0.88342720
v 0.54731369 0.01065387 0.87670993
v 0.54358261 0.01045582 0.87481550
v 0.54027986 0.01144827 0.87719374
v 0.54421970 0.01263224 0.88050430
v 0.55035946 0.00766639 0.88596244
v 0.54757957 0.01137161 0.88342720
v 0.54445051 0.01084384 0.88679642
v 0.54775593 0.00722725 0.88876580
v 0.54757957 0.01137161 0.88342720
v 0.54421970 0.01263224 0.88050430
v 0.54109064 0.01210447 0.88387352
v 0.54445051 0.01084384 0.88679642
v 0.54421970 0.01263224 0.88050430
v 0.54027986 0.01144827 0.87719374
v 0.53767632 0.01100914 0.87999710
v 0.54109064 0.01210447 0.88387352
v 0.54775593 0.00722725 0.88876580
v 0.54445051 0.01084384 0.88679642
v 0.54072209 0.00802165 0.88924961
v 0.54415875 0.00599171 0.89052159
v 0.54445051 0.01084384 0.88679642
v 0.54109064 0.01210447 0.88387352
v 0.53792651 0.00907056 0.88681761
v 0.54072209 0.00802165 0.88924961
v 0.54109064 0.01210447 0.88387352
v 0.53767632 0.01100914 0.87999710
v 0.53577200 0.00913843 0.88322559
v 0.53792651 0.00907056 0.88681761
v 0.56186779 -0.00427423 0.86766251
v 0.55997969 -0.00421475 0.86451467
v 0.56222753 -0.00018133 0.86420970
v 0.56372647 -0.00121171 0.86846477
v 0.55997969 -0.00421475 0.86451467
v 0.55752981 -0.00329555 0.86238340
v 0.55928313 0.00092341 0.86164824
v 0.56222753 -0.00018133 0.86420970
v 0.55752981 -0.00329555 0.86238340
v 0.55451812 -0.00151662 0.86126871
v 0.55489327 0.00210252 0.86078039
v 0.55928313 0.00092341 0.86164824
v 0.56372647 -0.00121171 0.86846477
v 0.56222753 -0.00018133 0.86420970
v 0.56273965 0.00369380 0.86529233
v 0.56415259 0.00201259 0.86936558
v 0.56222753 -0.00018133 0.86420970
v 0.55928313 0.00092341 0.86164824
v 0.55979526 0.00479855 0.86273088
v 0.56273965 0.00369380 0.86529233
v 0.55928313 0.00092341 0.86164824
v 0.55489327 0.00210252 0.86078039
v 0.55531939 0.00532682 0.86168120
v 0.55979526 0.00479855 0.86273088
v 0.56415259 0.00201259 0.86936558
v 0.56273965 0.00369380 0.86529233
v 0.56151606 0.00741066 0.86776258
v 0.56314612 0.00539869 0.87036493
v 0.56273965 0.00369380 0.86529233
v 0.55979526 0.00479855 0.86273088
v 0.55906617 0.00832986 0.86563131
v 0.56151606 0.00741066 0.86776258
v 0.55979526 0.00479855 0.86273088
v 0.55531939 0.00532682 0.86168120
v 0.55579646 0.00815629 0.86397114
v 0.55906617 0.00832986 0.86563131
v 0.55451812 -0.00151662 0.86126871
v 0.55136575 -0.00259938 0.86280739
v 0.55050989 0.00191426 0.86225169
v 0.55489327 0.00210252 0.86078039
v 0.55136575 -0.00259938 0.86280739
v 0.54908416 -0.00298421 0.86526410
v 0.54776776 0.00145175 0.86520429
v 0.55050989 0.00191426 0.86225169
v 0.54908416 -0.00298421 0.86526410
v 0.54767336 -0.00267111 0.86863885
v 0.54666689 0.00071499 0.86963819
v 0.54776776 0.00145175 0.86520429
v 0.55489327 0.00210252 0.86078039
v 0.55050989 0.00191426 0.86225169
v 0.55102202 0.00578940 0.86333433
v 0.55531939 0.00532682 0.86168120
v 0.55050989 0.00191426 0.86225169
v 0.54776776 0.00145175 0.86520429
v 0.54827988 0.00532688 0.86628692
v 0.55102202 0.00578940 0.86333433
v 0.54776776 0.00145175 0.86520429
v 0.54666689 0.00071499 0.86963819
v 0.54709300 0.00393930 0.87053901
v 0.54827988 0.00532688 0.86628692
v 0.55531939 0.00532682 0.86168120
v 0.55102202 0.00578940 0.86333433
v 0.55290212 0.00902603 0.86605530
v 0.55579646 0.00815629 0.86397114
v 0.55102202 0.00578940 0.86333433
v 0.54827988 0.00532688 0.86628692
v 0.55062053 0.00864119 0.86851201
v 0.55290212 0.00902603 0.86605530
v 0.54827988 0.00532688 0.86628692
v 0.54709300 0.00393930 0.87053901
v 0.54895169 0.00700181 0.87134127
v 0.55062053 0.00864119 0.86851201
v 0.54767336 -0.00267111 0.86863885
v 0.54930341 -0.00468307 0.87124121
v 0.54807983 -0.00096622 0.87371145
v 0.54666689 0.00071499 0.86963819
v 0.54930341 -0.00468307 0.87124121
v 0.55175331 -0.00560227 0.87337247
v 0.55102422 -0.00207097 0.87627290
v 0.54807983 -0.00096622 0.87371145
v 0.55175331 -0.00560227 0.87337247
v 0.55502302 -0.00542872 0.87503264
v 0.55550009 -0.00259924 0.87732258
v 0.55102422 -0.00207097 0.87627290
v 0.54666689 0.00071499 0.86963819
v 0.54807983 -0.00096622 0.87371145
v 0.54859195 0.00290892 0.87479408
v 0.54709300 0.00393930 0.87053901
v 0.54807983 -0.00096622 0.87371145
v 0.55102422 -0.00207097 0.87627290
v 0.55153635 0.00180417 0.87735554
v 0.54859195 0.00290892 0.87479408
v 0.55102422 -0.00207097 0.87627290
v 0.55550009 -0.00259924 0.87732258
v 0.55592621 0.00062507 0.87822339
v 0.55153635 0.00180417 0.87735554
v 0.54709300 0.00393930 0.87053901
v 0.54859195 0.00290892 0.87479408
v 0.55083979 0.00694234 0.87448911
v 0.54895169 0.00700181 0.87134127
v 0.54859195 0.00290892 0.87479408
v 0.55153635 0.00180417 0.87735554
v 0.55328967 0.00602313 0.87662038
v 0.55083979 0.00694234 0.87448911
v 0.55153635 0.00180417 0.87735554
v 0.55592621 0.00062507 0.87822339
v 0.55630136 0.00424420 0.87773507
v 0.55328967 0.00602313 0.87662038
v 0.55502302 -0.00542872 0.87503264
v 0.55791736 -0.00629844 0.87294849
v 0.55979746 -0.00306181 0.87566946
v 0.55550009 -0.00259924 0.87732258
v 0.55791736 -0.00629844 0.87294849
v 0.56019895 -0.00591361 0.87049177
v 0.56253960 -0.00259930 0.87271686
v 0.55979746 -0.00306181 0.87566946
v 0.56019895 -0.00591361 0.87049177
v 0.56186779 -0.00427423 0.86766251
v 0.56372647 -0.00121171 0.86846477
v 0.56253960 -0.00259930 0.87271686
v 0.55550009 -0.00259924 0.87732258
v 0.55979746 -0.00306181 0.87566946
v 0.56030959 0.00081332 0.87675209
v 0.55592621 0.00062507 0.87822339
v 0.55979746 -0.00306181 0.87566946
v 0.56253960 -0.00259930 0.87271686
v 0.56305172 0.00127583 0.87379949
v 0.56030959 0.00081332 0.87675209
v 0.56253960 -0.00259930 0.87271686
v 0.56372647 -0.00121171 0.86846477
v 0.56415259 0.00201259 0.86936558
v 0.56305172 0.00127583 0.87379949
v 0.55592621 0.00062507 0.87822339
v 0.56030959 0.00081332 0.87675209
v 0.55945372 0.00532696 0.87619640
v 0.55630136 0.00424420 0.87773507
v 0.56030959 0.00081332 0.87675209
v 0.56305172 0.00127583 0.87379949
v 0.56173532 0.00571180 0.87373968
v 0.55945372 0.00532696 0.87619640
v 0.56305172 0.00127583 0.87379949
v 0.56415259 0.00201259 0.86936558
v 0.56314612 0.00539869 0.87036493
v 0.56173532 0.00571180 0.87373968
v 0.55502302 -0.00542872 0.87503264
v 0.55175331 -0.00560227 0.87337247
v 0.55446470 -0.00733600 0.87004730
v 0.55791736 -0.00629844 0.87294849
v 0.55175331 -0.00560227 0.87337247
v 0.54930341 -0.00468307 0.87124121
v 0.55152030 -0.00623126 0.86748584
v 0.55446470 -0.00733600 0.87004730
v 0.54930341 -0.00468307 0.87124121
v 0.54767336 -0.00267111 0.86863885
v 0.54908416 -0.00298421 0.86526410
v 0.55152030 -0.00623126 0.86748584
v 0.55791736 -0.00629844 0.87294849
v 0.55446470 -0.00733600 0.87004730
v 0.55720683 -0.00687350 0.86709470
v 0.56019895 -0.00591361 0.87049177
v 0.55446470 -0.00733600 0.87004730
v 0.55152030 -0.00623126 0.86748584
v 0.55426243 -0.00576875 0.86453324
v 0.55720683 -0.00687350 0.86709470
v 0.55152030 -0.00623126 0.86748584
v 0.54908416 -0.00298421 0.86526410
v 0.55136575 -0.00259938 0.86280739
v 0.55426243 -0.00576875 0.86453324
v 0.56019895 -0.00591361 0.87049177
v 0.55720683 -0.00687350 0.86709470
v 0.55997969 -0.00421475 0.86451467
v 0.56186779 -0.00427423 0.86766251
v 0.55720683 -0.00687350 0.86709470
v 0.55426243 -0.00576875 0.86453324
v 0.55752981 -0.00329555 0.86238340
v 0.55997969 -0.00421475 0.86451467
v 0.55426243 -0.00576875 0.86453324
v 0.55136575 -0.00259938 0.86280739
v 0.55451812 -0.00151662 0.86126871
v 0.55752981 -0.00329555 0.86238340
v 0.56314612 0.00539869 0.87036493
v 0.56151606 0.00741066 0.86776258
v 0.55929917 0.00895884 0.87151794
v 0.56173532 0.00571180 0.87373968
v 0.56151606 0.00741066 0.86776258
v 0.55906617 0.00832986 0.86563131
v 0.55635478 0.01006359 0.86895648
v 0.55929917 0.00895884 0.87151794
v 0.55906617 0.00832986 0.86563131
v 0.55579646 0.00815629 0.86397114
v 0.55290212 0.00902603 0.86605530
v 0.55635478 0.01006359 0.86895648
v 0.56173532 0.00571180 0.87373968
v 0.55929917 0.00895884 0.87151794
v 0.55655705 0.00849633 0.87447054
v 0.55945372 0.00532696 0.87619640
v 0.55929917 0.00895884 0.87151794
v 0.55635478 0.01006359 0.86895648
v 0.55361265 0.00960107 0.87190908
v 0.55655705 0.00849633 0.87447054
v 0.55635478 0.01006359 0.86895648
v 0.55290212 0.00902603 0.86605530
v 0.55062053 0.00864119 0.86851201
v 0.55361265 0.00960107 0.87190908
v 0.55945372 0.00532696 0.87619640
v 0.55655705 0.00849633 0.87447054
v 0.55328967 0.00602313 0.87662038
v 0.55630136 0.00424420 0.87773507
v 0.55655705 0.00849633 0.87447054
v 0.55361265 0.00960107 0.87190908
v 0.55083979 0.00694234 0.87448911
v 0.55328967 0.00602313 0.87662038
v 0.55361265 0.00960107 0.87190908
v 0.55062053 0.00864119 0.86851201
v 0.54895169 0.00700181 0.87134127
v 0.55083979 0.00694234 0.87448911
v 0.55933707 -0.00309541 0.88223359
v 0.55777893 -0.00304633 0.87963585
v 0.55963394 0.00028225 0.87938418
v 0.56087094 -0.00056809 0.88289567
v 0.55777893 -0.00304633 0.87963585
v 0.55575717 -0.00228775 0.87787704
v 0.55720409 0.00119392 0.87727034
v 0.55963394 0.00028225 0.87938418
v 0.55575717 -0.00228775 0.87787704
v 0.55327179 -0.00081970 0.87695714
v 0.55358138 0.00216697 0.87655416
v 0.55720409 0.00119392 0.87727034
v 0.56087094 -0.00056809 0.88289567
v 0.55963394 0.00028225 0.87938418
v 0.56005658 0.00348018 0.88027762
v 0.56122259 0.00209276 0.88363906
v 0.55963394 0.00028225 0.87938418
v 0.55720409 0.00119392 0.87727034
v 0.55762672 0.00439186 0.87816378
v 0.56005658 0.00348018 0.88027762
v 0.55720409 0.00119392 0.87727034
v 0.55358138 0.00216697 0.87655416
v 0.55393302 0.00482781 0.87729755
v 0.55762672 0.00439186 0.87816378
v 0.56122259 0.00209276 0.88363906
v 0.56005658 0.00348018 0.88027762
v 0.55904681 0.00654749 0.88231618
v 0.56039201 0.00488713 0.88446376
v 0.56005658 0.00348018 0.88027762
v 0.55762672 0.00439186 0.87816378
v 0.55702505 0.00730605 0.88055736
v 0.55904681 0.00654749 0.88231618
v 0.55762672 0.00439186 0.87816378
v 0.55393302 0.00482781 0.87729755
v 0.55432674 0.00716284 0.87918730
v 0.55702505 0.00730605 0.88055736
v 0.55327179 -0.00081970 0.87695714
v 0.55067030 -0.00171324 0.87822692
v 0.54996400 0.00201162 0.87776834
v 0.55358138 0.00216697 0.87655416
v 0.55067030 -0.00171324 0.87822692
v 0.54878743 -0.00203082 0.88025431
v 0.54770108 0.00162993 0.88020495
v 0.54996400 0.00201162 0.87776834
v 0.54878743 -0.00203082 0.88025431
v 0.54762317 -0.00177244 0.88303932
v 0.54679259 0.00102193 0.88386402
v 0.54770108 0.00162993 0.88020495
v 0.55358138 0.00216697 0.87655416
v 0.54996400 0.00201162 0.87776834
v 0.55038664 0.00520956 0.87866178
v 0.55393302 0.00482781 0.87729755
v 0.54996400 0.00201162 0.87776834
v 0.54770108 0.00162993 0.88020495
v 0.54812371 0.00482788 0.88109840
v 0.55038664 0.00520956 0.87866178
v 0.54770108 0.00162993 0.88020495
v 0.54679259 0.00102193 0.88386402
v 0.54714424 0.00368277 0.88460740
v 0.54812371 0.00482788 0.88109840
v 0.55393302 0.00482781 0.87729755
v 0.55038664 0.00520956 0.87866178
v 0.55193818 0.00788057 0.88090725
v 0.55432674 0.00716284 0.87918730
v 0.55038664 0.00520956 0.87866178
v 0.54812371 0.00482788 0.88109840
v 0.55005531 0.00756299 0.88293464
v 0.55193818 0.00788057 0.88090725
v 0.54812371 0.00482788 0.88109840
v 0.54714424 0.00368277 0.88460740
v 0.54867811 0.00621010 0.88526948
v 0.55005531 0.00756299 0.88293464
v 0.54762317 -0.00177244 0.88303932
v 0.54896837 -0.00343280 0.88518691
v 0.54795861 -0.00036549 0.88722546
v 0.54679259 0.00102193 0.88386402
v 0.54896837 -0.00343280 0.88518691
v 0.55099014 -0.00419138 0.88694572
v 0.55038846 -0.00127717 0.88933929
v 0.54795861 -0.00036549 0.88722546
v 0.55099014 -0.00419138 0.88694572
v 0.55368846 -0.00404815 0.88831577
v 0.55408215 -0.00171313 0.89020553
v 0.55038846 -0.00127717 0.88933929
v 0.54679259 0.00102193 0.88386402
v 0.54795861 -0.00036549 0.88722546
v 0.54838123 0.00283245 0.88811890
v 0.54714424 0.00368277 0.88460740
v 0.54795861 -0.00036549 0.88722546
v 0.55038846 -0.00127717 0.88933929
v 0.55081109 0.00192076 0.89023273
v 0.54838123 0.00283245 0.88811890
v 0.55038846 -0.00127717 0.88933929
v 0.55408215 -0.00171313 0.89020553
v 0.55443380 0.00094772 0.89094891
v 0.55081109 0.00192076 0.89023273
v 0.54714424 0.00368277 0.88460740
v 0.54838123 0.00283245 0.88811890
v 0.55023625 0.00616101 0.88786721
v 0.54867811 0.00621010 0.88526948
v 0.54838123 0.00283245 0.88811890
v 0.55081109 0.00192076 0.89023273
v 0.55225802 0.00540245 0.88962604
v 0.55023625 0.00616101 0.88786721
v 0.55081109 0.00192076 0.89023273
v 0.55443380 0.00094772 0.89094891
v 0.55474339 0.00393438 0.89054593
v 0.55225802 0.00540245 0.88962604
v 0.55368846 -0.00404815 0.88831577
v 0.55607699 -0.00476588 0.88659582
v 0.55762854 -0.00209487 0.88884130
v 0.55408215 -0.00171313 0.89020553
v 0.55607699 -0.00476588 0.88659582
v 0.55795986 -0.00444830 0.88456843
v 0.55989148 -0.00171318 0.88640467
v 0.55762854 -0.00209487 0.88884130
v 0.55795986 -0.00444830 0.88456843
v 0.55933707 -0.00309541 0.88223359
v 0.56087094 -0.00056809 0.88289567
v 0.55989148 -0.00171318 0.88640467
v 0.55408215 -0.00171313 0.89020553
v 0.55762854 -0.00209487 0.88884130
v 0.55805117 0.00110308 0.88973473
v 0.55443380 0.00094772 0.89094891
v 0.55762854 -0.00209487 0.88884130
v 0.55989148 -0.00171318 0.88640467
v 0.56031411 0.00148475 0.88729811
v 0.55805117 0.00110308 0.88973473
v 0.55989148 -0.00171318 0.88640467
v 0.56087094 -0.00056809 0.88289567
v 0.56122259 0.00209276 0.88363906
v 0.56031411 0.00148475 0.88729811
v 0.55443380 0.00094772 0.89094891
v 0.55805117 0.00110308 0.88973473
v 0.55734488 0.00482793 0.88927615
v 0.55474339 0.00393438 0.89054593
v 0.55805117 0.00110308 0.88973473
v 0.56031411 0.00148475 0.88729811
v 0.55922775 0.00514551 0.88724876
v 0.55734488 0.00482793 0.88927615
v 0.56031411 0.00148475 0.88729811
v 0.56122259 0.00209276 0.88363906
v 0.56039201 0.00488713 0.88446376
v 0.55922775 0.00514551 0.88724876
v 0.55368846 -0.00404815 0.88831577
v 0.55099014 -0.00419138 0.88694572
v 0.55322771 -0.00562212 0.88420163
v 0.55607699 -0.00476588 0.88659582
v 0.55099014 -0.00419138 0.88694572
v 0.54896837 -0.00343280 0.88518691
v 0.55079785 -0.00471045 0.88208779
v 0.55322771 -0.00562212 0.88420163
v 0.54896837 -0.00343280 0.88518691
v 0.54762317 -0.00177244 0.88303932
v 0.54878743 -0.00203082 0.88025431
v 0.55079785 -0.00471045 0.88208779
v 0.55607699 -0.00476588 0.88659582
v 0.55322771 -0.00562212 0.88420163
v 0.55549064 -0.00524045 0.88176502
v 0.55795986 -0.00444830 0.88456843
v 0.55322771 -0.00562212 0.88420163
v 0.55079785 -0.00471045 0.88208779
v 0.55306078 -0.00432876 0.87965118
v 0.55549064 -0.00524045 0.88176502
v 0.55079785 -0.00471045 0.88208779
v 0.54878743 -0.00203082 0.88025431
v 0.55067030 -0.00171324 0.87822692
v 0.55306078 -0.00432876 0.87965118
v 0.55795986 -0.00444830 0.88456843
v 0.55549064 -0.00524045 0.88176502
v 0.55777893 -0.00304633 0.87963585
v 0.55933707 -0.00309541 0.88223359
v 0.55549064 -0.00524045 0.88176502
v 0.55306078 -0.00432876 0.87965118
v 0.55575717 -0.00228775 0.87787704
v 0.55777893 -0.00304633 0.87963585
v 0.55306078 -0.00432876 0.87965118
v 0.55067030 -0.00171324 0.87822692
v 0.55327179 -0.00081970 0.87695714
v 0.55575717 -0.00228775 0.87787704
v 0.56039201 0.00488713 0.88446376
v 0.55904681 0.00654749 0.88231618
v 0.55721734 0.00782512 0.88541527
v 0.55922775 0.00514551 0.88724876
v 0.55904681 0.00654749 0.88231618
v 0.55702505 0.00730605 0.88055736
v 0.55478748 0.00873681 0.88330144
v 0.55721734 0.00782512 0.88541527
v 0.55702505 0.00730605 0.88055736
v 0.55432674 0.00716284 0.87918730
v 0.55193818 0.00788057 0.88090725
v 0.55478748 0.00873681 0.88330144
v 0.55922775 0.00514551 0.88724876
v 0.55721734 0.00782512 0.88541527
v 0.55495440 0.00744344 0.88785190
v 0.55734488 0.00482793 0.88927615
v 0.55721734 0.00782512 0.88541527
v 0.55478748 0.00873681 0.88330144
v 0.55252455 0.00835513 0.88573806
v 0.55495440 0.00744344 0.88785190
v 0.55478748 0.00873681 0.88330144
v 0.55193818 0.00788057 0.88090725
v 0.55005531 0.00756299 0.88293464
v 0.55252455 0.00835513 0.88573806
v 0.55734488 0.00482793 0.88927615
v 0.55495440 0.00744344 0.88785190
v 0.55225802 0.00540245 0.88962604
v 0.55474339 0.00393438 0.89054593
v 0.55495440 0.00744344 0.88785190
v 0.55252455 0.00835513 0.88573806
v 0.55023625 0.00616101 0.88786721
v 0.55225802 0.00540245 0.88962604
v 0.55252455 0.00835513 0.88573806
v 0.55005531 0.00756299 0.88293464
v 0.54867811 0.00621010 0.88526948
v 0.55023625 0.00616101 0.88786721
v 0.54903875 0.00015859 0.86776792
v 0.54756717 0.00020495 0.86531449
v 0.54931913 0.00334859 0.86507680
v 0.55048742 0.00254551 0.86839321
v 0.54756717 0.00020495 0.86531449
v 0.54565772 0.00092138 0.86365338
v 0.54702427 0.00420963 0.86308039
v 0.54931913 0.00334859 0.86507680
v 0.54565772 0.00092138 0.86365338
v 0.54331041 0.00230787 0.86278459
v 0.54360281 0.00512862 0.86240399
v 0.54702427 0.00420963 0.86308039
v 0.55048742 0.00254551 0.86839321
v 0.54931913 0.00334859 0.86507680
v 0.54971829 0.00636889 0.86592060
v 0.55081953 0.00505855 0.86909530
v 0.54931913 0.00334859 0.86507680
v 0.54702427 0.00420963 0.86308039
v 0.54742342 0.00722992 0.86392420
v 0.54971829 0.00636889 0.86592060
v 0.54702427 0.00420963 0.86308039
v 0.54360281 0.00512862 0.86240399
v 0.54393493 0.00764166 0.86310608
v 0.54742342 0.00722992 0.86392420
v 0.55081953 0.00505855 0.86909530
v 0.54971829 0.00636889 0.86592060
v 0.54876462 0.00926580 0.86784591
v 0.55003510 0.00769767 0.86987419
v 0.54971829 0.00636889 0.86592060
v 0.54742342 0.00722992 0.86392420
v 0.54685517 0.00998222 0.86618480
v 0.54876462 0.00926580 0.86784591
v 0.54742342 0.00722992 0.86392420
v 0.54393493 0.00764166 0.86310608
v 0.54430676 0.00984695 0.86489086
v 0.54685517 0.00998222 0.86618480
v 0.54331041 0.00230787 0.86278459
v 0.54085345 0.00146397 0.86398383
v 0.54018639 0.00498191 0.86355072
v 0.54360281 0.00512862 0.86240399
v 0.54085345 0.00146397 0.86398383
v 0.53907518 0.00116404 0.86589860
v 0.53804917 0.00462142 0.86585198
v 0.54018639 0.00498191 0.86355072
v 0.53907518 0.00116404 0.86589860
v 0.53797560 0.00140806 0.86852887
v 0.53719116 0.00404720 0.86930777
v 0.53804917 0.00462142 0.86585198
v 0.54360281 0.00512862 0.86240399
v 0.54018639 0.00498191 0.86355072
v 0.54058555 0.00800219 0.86439453
v 0.54393493 0.00764166 0.86310608
v 0.54018639 0.00498191 0.86355072
v 0.53804917 0.00462142 0.86585198
v 0.53844833 0.00764171 0.86669579
v 0.54058555 0.00800219 0.86439453
v 0.53804917 0.00462142 0.86585198
v 0.53719116 0.00404720 0.86930777
v 0.53752327 0.00656022 0.87000986
v 0.53844833 0.00764171 0.86669579
v 0.54393493 0.00764166 0.86310608
v 0.54058555 0.00800219 0.86439453
v 0.54205091 0.01052482 0.86651526
v 0.54430676 0.00984695 0.86489086
v 0.54058555 0.00800219 0.86439453
v 0.53844833 0.00764171 0.86669579
v 0.54027263 0.01022488 0.86843002
v 0.54205091 0.01052482 0.86651526
v 0.53844833 0.00764171 0.86669579
v 0.53752327 0.00656022 0.87000986
v 0.53897193 0.00894714 0.87063515
v 0.54027263 0.01022488 0.86843002
v 0.53797560 0.00140806 0.86852887
v 0.53924607 -0.00016006 0.87055716
v 0.53829240 0.00273686 0.87248246
v 0.53719116 0.00404720 0.86930777
v 0.53924607 -0.00016006 0.87055716
v 0.54115552 -0.00087649 0.87221827
v 0.54058727 0.00187582 0.87447887
v 0.53829240 0.00273686 0.87248246
v 0.54115552 -0.00087649 0.87221827
v 0.54370393 -0.00074121 0.87351221
v 0.54407576 0.00146408 0.87529699
v 0.54058727 0.00187582 0.87447887
v 0.53719116 0.00404720 0.86930777
v 0.53829240 0.00273686 0.87248246
v 0.53869155 0.00575714 0.87332627
v 0.53752327 0.00656022 0.87000986
v 0.53829240 0.00273686 0.87248246
v 0.54058727 0.00187582 0.87447887
v 0.54098642 0.00489611 0.87532268
v 0.53869155 0.00575714 0.87332627
v 0.54058727 0.00187582 0.87447887
v 0.54407576 0.00146408 0.87529699
v 0.54440787 0.00397711 0.87599907
v 0.54098642 0.00489611 0.87532268
v 0.53752327 0.00656022 0.87000986
v 0.53869155 0.00575714 0.87332627
v 0.54044352 0.00890079 0.87308858
v 0.53897193 0.00894714 0.87063515
v 0.53869155 0.00575714 0.87332627
v 0.54098642 0.00489611 0.87532268
v 0.54235297 0.00818436 0.87474970
v 0.54044352 0.00890079 0.87308858
v 0.54098642 0.00489611 0.87532268
v 0.54440787 0.00397711 0.87599907
v 0.54470027 0.00679786 0.87561848
v 0.54235297 0.00818436 0.87474970
v 0.54370393 -0.00074121 0.87351221
v 0.54595978 -0.00141908 0.87188781
v 0.54742514 0.00110355 0.87400854
v 0.54407576 0.00146408 0.87529699
v 0.54595978 -0.00141908 0.87188781
v 0.54773806 -0.00111915 0.86997305
v 0.54956236 0.00146403 0.87170728
v 0.54742514 0.00110355 0.87400854
v 0.54773806 -0.00111915 0.86997305
v 0.54903875 0.00015859 0.86776792
v 0.55048742 0.00254551 0.86839321
v 0.54956236 0.00146403 0.87170728
v 0.54407576 0.00146408 0.87529699
v 0.54742514 0.00110355 0.87400854
v 0.54782429 0.00412384 0.87485235
v 0.54440787 0.00397711 0.87599907
v 0.54742514 0.00110355 0.87400854
v 0.54956236 0.00146403 0.87170728
v 0.54996151 0.00448432 0.87255109
v 0.54782429 0.00412384 0.87485235
v 0.54956236 0.00146403 0.87170728
v 0.55048742 0.00254551 0.86839321
v 0.55081953 0.00505855 0.86909530
v 0.54996151 0.00448432 0.87255109
v 0.54440787 0.00397711 0.87599907
v 0.54782429 0.00412384 0.87485235
v 0.54715723 0.00764177 0.87441924
v 0.54470027 0.00679786 0.87561848
v 0.54782429 0.00412384 0.87485235
v 0.54996151 0.00448432 0.87255109
v 0.54893551 0.00794170 0.87250447
v 0.54715723 0.00764177 0.87441924
v 0.54996151 0.00448432 0.87255109
v 0.55081953 0.00505855 0.86909530
v 0.55003510 0.00769767 0.86987419
v 0.54893551 0.00794170 0.87250447
v 0.54370393 -0.00074121 0.87351221
v 0.54115552 -0.00087649 0.87221827
v 0.54326878 -0.00222775 0.86962663
v 0.54595978 -0.00141908 0.87188781
v 0.54115552 -0.00087649 0.87221827
v 0.53924607 -0.00016006 0.87055716
v 0.54097391 -0.00136672 0.86763022
v 0.54326878 -0.00222775 0.86962663
v 0.53924607 -0.00016006 0.87055716
v 0.53797560 0.00140806 0.86852887
v 0.53907518 0.00116404 0.86589860
v 0.54097391 -0.00136672 0.86763022
v 0.54595978 -0.00141908 0.87188781
v 0.54326878 -0.00222775 0.86962663
v 0.54540600 -0.00186728 0.86732537
v 0.54773806 -0.00111915 0.86997305
v 0.54326878 -0.00222775 0.86962663
v 0.54097391 -0.00136672 0.86763022
v 0.54311114 -0.00100624 0.86532896
v 0.54540600 -0.00186728 0.86732537
v 0.54097391 -0.00136672 0.86763022
v 0.53907518 0.00116404 0.86589860
v 0.54085345 0.00146397 0.86398383
v 0.54311114 -0.00100624 0.86532896
v 0.54773806 -0.00111915 0.86997305
v 0.54540600 -0.00186728 0.86732537
v 0.54756717 0.00020495 0.86531449
v 0.54903875 0.00015859 0.86776792
v 0.54540600 -0.00186728 0.86732537
v 0.54311114 -0.00100624 0.86532896
v 0.54565772 0.00092138 0.86365338
v 0.54756717 0.00020495 0.86531449
v 0.54311114 -0.00100624 0.86532896
v 0.54085345 0.00146397 0.86398383
v 0.54331041 0.00230787 0.86278459
v 0.54565772 0.00092138 0.86365338
v 0.55003510 0.00769767 0.86987419
v 0.54876462 0.00926580 0.86784591
v 0.54703677 0.01047246 0.87077285
v 0.54893551 0.00794170 0.87250447
v 0.54876462 0.00926580 0.86784591
v 0.54685517 0.00998222 0.86618480
v 0.54474190 0.01133350 0.86877644
v 0.54703677 0.01047246 0.87077285
v 0.54685517 0.00998222 0.86618480
v 0.54430676 0.00984695 0.86489086
v 0.54205091 0.01052482 0.86651526
v 0.54474190 0.01133350 0.86877644
v 0.54893551 0.00794170 0.87250447
v 0.54703677 0.01047246 0.87077285
v 0.54489956 0.01011198 0.87307411
v 0.54715723 0.00764177 0.87441924
v 0.54703677 0.01047246 0.87077285
v 0.54474190 0.01133350 0.86877644
v 0.54260469 0.01097302 0.87107771
v 0.54489956 0.01011198 0.87307411
v 0.54474190 0.01133350 0.86877644
v 0.54205091 0.01052482 0.86651526
v 0.54027263 0.01022488 0.86843002
v 0.54260469 0.01097302 0.87107771
v 0.54715723 0.00764177 0.87441924
v 0.54489956 0.01011198 0.87307411
v 0.54235297 0.00818436 0.87474970
v 0.54470027 0.00679786 0.87561848
v 0.54489956 0.01011198 0.87307411
v 0.54260469 0.01097302 0.87107771
v 0.54044352 0.00890079 0.87308858
v 0.54235297 0.00818436 0.87474970
v 0.54260469 0.01097302 0.87107771
v 0.54027263 0.01022488 0.86843002
v 0.53897193 0.00894714 0.87063515
v 0.54044352 0.00890079 0.87308858
v 0.53865632 -0.00525646 0.87333845
v 0.53787311 -0.00523179 0.87203266
v 0.53880555 -0.00355864 0.87190615
v 0.53942734 -0.00398607 0.87367124
v 0.53787311 -0.00523179 0.87203266
v 0.53685684 -0.00485048 0.87114857
v 0.53758416 -0.00310038 0.87084361
v 0.53880555 -0.00355864 0.87190615
v 0.53685684 -0.00485048 0.87114857
v 0.53560754 -0.00411256 0.87068617
v 0.53576316 -0.00261127 0.87048361
v 0.53758416 -0.00310038 0.87084361
v 0.53942734 -0.00398607 0.87367124
v 0.53880555 -0.00355864 0.87190615
v 0.53901799 -0.00195117 0.87235525
v 0.53960411 -0.00264857 0.87404491
v 0.53880555 -0.00355864 0.87190615
v 0.53758416 -0.00310038 0.87084361
v 0.53779660 -0.00149290 0.87129270
v 0.53901799 -0.00195117 0.87235525
v 0.53758416 -0.00310038 0.87084361
v 0.53576316 -0.00261127 0.87048361
v 0.53593992 -0.00127376 0.87085728
v 0.53779660 -0.00149290 0.87129270
v 0.53960411 -0.00264857 0.87404491
v 0.53901799 -0.00195117 0.87235525
v 0.53851042 -0.00040935 0.87337995
v 0.53918660 -0.00124394 0.87445947
v 0.53901799 -0.00195117 0.87235525
v 0.53779660 -0.00149290 0.87129270
v 0.53749416 -0.00002805 0.87249587
v 0.53851042 -0.00040935 0.87337995
v 0.53779660 -0.00149290 0.87129270
v 0.53593992 -0.00127376 0.87085728
v 0.53613781 -0.00010004 0.87180719
v 0.53749416 -0.00002805 0.87249587
v 0.53560754 -0.00411256 0.87068617
v 0.53429987 -0.00456170 0.87132445
v 0.53394485 -0.00268935 0.87109393
v 0.53576316 -0.00261127 0.87048361
v 0.53429987 -0.00456170 0.87132445
v 0.53335342 -0.00472134 0.87234354
v 0.53280736 -0.00288121 0.87231873
v 0.53394485 -0.00268935 0.87109393
v 0.53335342 -0.00472134 0.87234354
v 0.53276819 -0.00459146 0.87374345
v 0.53235070 -0.00318684 0.87415800
v 0.53280736 -0.00288121 0.87231873
v 0.53576316 -0.00261127 0.87048361
v 0.53394485 -0.00268935 0.87109393
v 0.53415728 -0.00108188 0.87154303
v 0.53593992 -0.00127376 0.87085728
v 0.53394485 -0.00268935 0.87109393
v 0.53280736 -0.00288121 0.87231873
v 0.53301980 -0.00127374 0.87276783
v 0.53415728 -0.00108188 0.87154303
v 0.53280736 -0.00288121 0.87231873
v 0.53235070 -0.00318684 0.87415800
v 0.53252745 -0.00184933 0.87453167
v 0.53301980 -0.00127374 0.87276783
v 0.53593992 -0.00127376 0.87085728
v 0.53415728 -0.00108188 0.87154303
v 0.53493719 0.00026074 0.87267174
v 0.53613781 -0.00010004 0.87180719
v 0.53415728 -0.00108188 0.87154303
v 0.53301980 -0.00127374 0.87276783
v 0.53399074 0.00010110 0.87369083
v 0.53493719 0.00026074 0.87267174
v 0.53301980 -0.00127374 0.87276783
v 0.53252745 -0.00184933 0.87453167
v 0.53329847 -0.00057895 0.87486447
v 0.53399074 0.00010110 0.87369083
v 0.53276819 -0.00459146 0.87374345
v 0.53344437 -0.00542606 0.87482296
v 0.53293681 -0.00388424 0.87584766
v 0.53235070 -0.00318684 0.87415800
v 0.53344437 -0.00542606 0.87482296
v 0.53446064 -0.00580736 0.87570705
v 0.53415820 -0.00434250 0.87691021
v 0.53293681 -0.00388424 0.87584766
v 0.53446064 -0.00580736 0.87570705
v 0.53581698 -0.00573536 0.87639572
v 0.53601487 -0.00456164 0.87734563
v 0.53415820 -0.00434250 0.87691021
v 0.53235070 -0.00318684 0.87415800
v 0.53293681 -0.00388424 0.87584766
v 0.53314925 -0.00227676 0.87629676
v 0.53252745 -0.00184933 0.87453167
v 0.53293681 -0.00388424 0.87584766
v 0.53415820 -0.00434250 0.87691021
v 0.53437064 -0.00273502 0.87735930
v 0.53314925 -0.00227676 0.87629676
v 0.53415820 -0.00434250 0.87691021
v 0.53601487 -0.00456164 0.87734563
v 0.53619164 -0.00322414 0.87771930
v 0.53437064 -0.00273502 0.87735930
v 0.53252745 -0.00184933 0.87453167
v 0.53314925 -0.00227676 0.87629676
v 0.53408169 -0.00060361 0.87617025
v 0.53329847 -0.00057895 0.87486447
v 0.53314925 -0.00227676 0.87629676
v 0.53437064 -0.00273502 0.87735930
v 0.53509795 -0.00098492 0.87705434
v 0.53408169 -0.00060361 0.87617025
v 0.53437064 -0.00273502 0.87735930
v 0.53619164 -0.00322414 0.87771930
v 0.53634726 -0.00172285 0.87751674
v 0.53509795 -0.00098492 0.87705434
v 0.53581698 -0.00573536 0.87639572
v 0.53701761 -0.00609615 0.87553117
v 0.53779751 -0.00475352 0.87665989
v 0.53601487 -0.00456164 0.87734563
v 0.53701761 -0.00609615 0.87553117
v 0.53796406 -0.00593651 0.87451208
v 0.53893500 -0.00456167 0.87543509
v 0.53779751 -0.00475352 0.87665989
v 0.53796406 -0.00593651 0.87451208
v 0.53865632 -0.00525646 0.87333845
v 0.53942734 -0.00398607 0.87367124
v 0.53893500 -0.00456167 0.87543509
v 0.53601487 -0.00456164 0.87734563
v 0.53779751 -0.00475352 0.87665989
v 0.53800995 -0.00314605 0.87710898
v 0.53619164 -0.00322414 0.87771930
v 0.53779751 -0.00475352 0.87665989
v 0.53893500 -0.00456167 0.87543509
v 0.53914744 -0.00295419 0.87588418
v 0.53800995 -0.00314605 0.87710898
v 0.53893500 -0.00456167 0.87543509
v 0.53942734 -0.00398607 0.87367124
v 0.53960411 -0.00264857 0.87404491
v 0.53914744 -0.00295419 0.87588418
v 0.53619164 -0.00322414 0.87771930
v 0.53800995 -0.00314605 0.87710898
v 0.53765493 -0.00127370 0.87687847
v 0.53634726 -0.00172285 0.87751674
v 0.53800995 -0.00314605 0.87710898
v 0.53914744 -0.00295419 0.87588418
v 0.53860137 -0.00111406 0.87585937
v 0.53765493 -0.00127370 0.87687847
v 0.53914744 -0.00295419 0.87588418
v 0.53960411 -0.00264857 0.87404491
v 0.53918660 -0.00124394 0.87445947
v 0.53860137 -0.00111406 0.87585937
v 0.53581698 -0.00573536 0.87639572
v 0.53446064 -0.00580736 0.87570705
v 0.53558538 -0.00652655 0.87432770
v 0.53701761 -0.00609615 0.87553117
v 0.53446064 -0.00580736 0.87570705
v 0.53344437 -0.00542606 0.87482296
v 0.53436399 -0.00606827 0.87326516
v 0.53558538 -0.00652655 0.87432770
v 0.53344437 -0.00542606 0.87482296
v 0.53276819 -0.00459146 0.87374345
v 0.53335342 -0.00472134 0.87234354
v 0.53436399 -0.00606827 0.87326516
v 0.53701761 -0.00609615 0.87553117
v 0.53558538 -0.00652655 0.87432770
v 0.53672288 -0.00633469 0.87310291
v 0.53796406 -0.00593651 0.87451208
v 0.53558538 -0.00652655 0.87432770
v 0.53436399 -0.00606827 0.87326516
v 0.53550147 -0.00587642 0.87204036
v 0.53672288 -0.00633469 0.87310291
v 0.53436399 -0.00606827 0.87326516
v 0.53335342 -0.00472134 0.87234354
v 0.53429987 -0.00456170 0.87132445
v 0.53550147 -0.00587642 0.87204036
v 0.53796406 -0.00593651 0.87451208
v 0.53672288 -0.00633469 0.87310291
v 0.53787311 -0.00523179 0.87203266
v 0.53865632 -0.00525646 0.87333845
v 0.53672288 -0.00633469 0.87310291
v 0.53550147 -0.00587642 0.87204036
v 0.53685684 -0.00485048 0.87114857
v 0.53787311 -0.00523179 0.87203266
v 0.53550147 -0.00587642 0.87204036
v 0.53429987 -0.00456170 0.87132445
v 0.53560754 -0.00411256 0.87068617
v 0.53685684 -0.00485048 0.87114857
v 0.53918660 -0.00124394 0.87445947
v 0.53851042 -0.00040935 0.87337995
v 0.53759082 0.00023288 0.87493776
v 0.53860137 -0.00111406 0.87585937
v 0.53851042 -0.00040935 0.87337995
v 0.53749416 -0.00002805 0.87249587
v 0.53636942 0.00069114 0.87387521
v 0.53759082 0.00023288 0.87493776
v 0.53749416 -0.00002805 0.87249587
v 0.53613781 -0.00010004 0.87180719
v 0.53493719 0.00026074 0.87267174
v 0.53636942 0.00069114 0.87387521
v 0.53860137 -0.00111406 0.87585937
v 0.53759082 0.00023288 0.87493776
v 0.53645333 0.00004101 0.87616255
v 0.53765493 -0.00127370 0.87687847
v 0.53759082 0.00023288 0.87493776
v 0.53636942 0.00069114 0.87387521
v 0.53523194 0.00049928 0.87510000
v 0.53645333 0.00004101 0.87616255
v 0.53636942 0.00069114 0.87387521
v 0.53493719 0.00026074 0.87267174
v 0.53399074 0.00010110 0.87369083
v 0.53523194 0.00049928 0.87510000
v 0.53765493 -0.00127370 0.87687847
v 0.53645333 0.00004101 0.87616255
v 0.53509795 -0.00098492 0.87705434
v 0.53634726 -0.00172285 0.87751674
v 0.53645333 0.00004101 0.87616255
v 0.53523194 0.00049928 0.87510000
v 0.53408169 -0.00060361 0.87617025
v 0.53509795 -0.00098492 0.87705434
v 0.53523194 0.00049928 0.87510000
v 0.53399074 0.00010110 0.87369083
v 0.53329847 -0.00057895 0.87486447
v 0.53408169 -0.00060361 0.87617025
v 0.55666473 0.00218611 0.87396741
v 0.55463698 0.00224999 0.87058674
v 0.55705108 0.00658173 0.87025922
v 0.55866090 0.00547513 0.87482903
v 0.55463698 0.00224999 0.87058674
v 0.55200589 0.00323717 0.86829784
v 0.55388890 0.00776820 0.86750830
v 0.55705108 0.00658173 0.87025922
v 0.55200589 0.00323717 0.86829784
v 0.54877145 0.00514767 0.86710071
v 0.54917435 0.00903450 0.86657626
v 0.55388890 0.00776820 0.86750830
v 0.55866090 0.00547513 0.87482903
v 0.55705108 0.00658173 0.87025922
v 0.55760108 0.01074349 0.87142194
v 0.55911853 0.00893792 0.87579646
v 0.55705108 0.00658173 0.87025922
v 0.55388890 0.00776820 0.86750830
v 0.55443891 0.01192994 0.86867102
v 0.55760108 0.01074349 0.87142194
v 0.55388890 0.00776820 0.86750830
v 0.54917435 0.00903450 0.86657626
v 0.54963198 0.01249730 0.86754371
v 0.55443891 0.01192994 0.86867102
v 0.55911853 0.00893792 0.87579646
v 0.55760108 0.01074349 0.87142194
v 0.55628699 0.01473525 0.87407489
v 0.55803762 0.01257449 0.87686973
v 0.55760108 0.01074349 0.87142194
v 0.55443891 0.01192994 0.86867102
v 0.55365590 0.01572245 0.87178598
v 0.55628699 0.01473525 0.87407489
v 0.55443891 0.01192994 0.86867102
v 0.54963198 0.01249730 0.86754371
v 0.55014434 0.01553605 0.87000301
v 0.55365590 0.01572245 0.87178598
v 0.54877145 0.00514767 0.86710071
v 0.54538591 0.00398483 0.86875318
v 0.54446675 0.00883232 0.86815639
v 0.54917435 0.00903450 0.86657626
v 0.54538591 0.00398483 0.86875318
v 0.54293556 0.00357155 0.87139161
v 0.54152179 0.00833561 0.87132737
v 0.54446675 0.00883232 0.86815639
v 0.54293556 0.00357155 0.87139161
v 0.54142040 0.00390781 0.87501597
v 0.54033950 0.00754435 0.87608923
v 0.54152179 0.00833561 0.87132737
v 0.54917435 0.00903450 0.86657626
v 0.54446675 0.00883232 0.86815639
v 0.54501675 0.01299408 0.86931910
v 0.54963198 0.01249730 0.86754371
v 0.54446675 0.00883232 0.86815639
v 0.54152179 0.00833561 0.87132737
v 0.54207180 0.01249737 0.87249009
v 0.54501675 0.01299408 0.86931910
v 0.54152179 0.00833561 0.87132737
v 0.54033950 0.00754435 0.87608923
v 0.54079712 0.01100714 0.87705667
v 0.54207180 0.01249737 0.87249009
v 0.54963198 0.01249730 0.86754371
v 0.54501675 0.01299408 0.86931910
v 0.54703592 0.01647012 0.87224132
v 0.55014434 0.01553605 0.87000301
v 0.54501675 0.01299408 0.86931910
v 0.54207180 0.01249737 0.87249009
v 0.54458557 0.01605682 0.87487975
v 0.54703592 0.01647012 0.87224132
v 0.54207180 0.01249737 0.87249009
v 0.54079712 0.01100714 0.87705667
v 0.54279329 0.01429618 0.87791829
v 0.54458557 0.01605682 0.87487975
v 0.54142040 0.00390781 0.87501597
v 0.54317103 0.00174703 0.87781080
v 0.54185694 0.00573878 0.88046377
v 0.54033950 0.00754435 0.87608923
v 0.54317103 0.00174703 0.87781080
v 0.54580213 0.00075984 0.88009971
v 0.54501912 0.00455233 0.88321469
v 0.54185694 0.00573878 0.88046377
v 0.54580213 0.00075984 0.88009971
v 0.54931369 0.00094624 0.88188269
v 0.54982604 0.00398499 0.88434200
v 0.54501912 0.00455233 0.88321469
v 0.54033950 0.00754435 0.87608923
v 0.54185694 0.00573878 0.88046377
v 0.54240694 0.00990056 0.88162648
v 0.54079712 0.01100714 0.87705667
v 0.54185694 0.00573878 0.88046377
v 0.54501912 0.00455233 0.88321469
v 0.54556912 0.00871409 0.88437741
v 0.54240694 0.00990056 0.88162648
v 0.54501912 0.00455233 0.88321469
v 0.54982604 0.00398499 0.88434200
v 0.55028368 0.00744778 0.88530943
v 0.54556912 0.00871409 0.88437741
v 0.54079712 0.01100714 0.87705667
v 0.54240694 0.00990056 0.88162648
v 0.54482105 0.01423230 0.88129895
v 0.54279329 0.01429618 0.87791829
v 0.54240694 0.00990056 0.88162648
v 0.54556912 0.00871409 0.88437741
v 0.54745213 0.01324510 0.88358785
v 0.54482105 0.01423230 0.88129895
v 0.54556912 0.00871409 0.88437741
v 0.55028368 0.00744778 0.88530943
v 0.55068658 0.01133460 0.88478499
v 0.54745213 0.01324510 0.88358785
v 0.54931369 0.00094624 0.88188269
v 0.55242211 0.00001218 0.87964437
v 0.55444128 0.00348821 0.88256659
v 0.54982604 0.00398499 0.88434200
v 0.55242211 0.00001218 0.87964437
v 0.55487246 0.00042547 0.87700595
v 0.55738623 0.00398492 0.87939561
v 0.55444128 0.00348821 0.88256659
v 0.55487246 0.00042547 0.87700595
v 0.55666473 0.00218611 0.87396741
v 0.55866090 0.00547513 0.87482903
v 0.55738623 0.00398492 0.87939561
v 0.54982604 0.00398499 0.88434200
v 0.55444128 0.00348821 0.88256659
v 0.55499128 0.00764996 0.88372931
v 0.55028368 0.00744778 0.88530943
v 0.55444128 0.00348821 0.88256659
v 0.55738623 0.00398492 0.87939561
v 0.55793623 0.00814668 0.88055833
v 0.55499128 0.00764996 0.88372931
v 0.55738623 0.00398492 0.87939561
v 0.55866090 0.00547513 0.87482903
v 0.55911853 0.00893792 0.87579646
v 0.55793623 0.00814668 0.88055833
v 0.55028368 0.00744778 0.88530943
v 0.55499128 0.00764996 0.88372931
v 0.55407212 0.01249745 0.88313252
v 0.55068658 0.01133460 0.88478499
v 0.55499128 0.00764996 0.88372931
v 0.55793623 0.00814668 0.88055833
v 0.55652246 0.01291075 0.88049409
v 0.55407212 0.01249745 0.88313252
v 0.55793623 0.00814668 0.88055833
v 0.55911853 0.00893792 0.87579646
v 0.55803762 0.01257449 0.87686973
v 0.55652246 0.01291075 0.88049409
v 0.54931369 0.00094624 0.88188269
v 0.54580213 0.00075984 0.88009971
v 0.54871408 -0.00110212 0.87652860
v 0.55242211 0.00001218 0.87964437
v 0.54580213 0.00075984 0.88009971
v 0.54317103 0.00174703 0.87781080
v 0.54555189 0.00008433 0.87377767
v 0.54871408 -0.00110212 0.87652860
v 0.54317103 0.00174703 0.87781080
v 0.54142040 0.00390781 0.87501597
v 0.54293556 0.00357155 0.87139161
v 0.54555189 0.00008433 0.87377767
v 0.55242211 0.00001218 0.87964437
v 0.54871408 -0.00110212 0.87652860
v 0.55165902 -0.00060541 0.87335761
v 0.55487246 0.00042547 0.87700595
v 0.54871408 -0.00110212 0.87652860
v 0.54555189 0.00008433 0.87377767
v 0.54849685 0.00058104 0.87060669
v 0.55165902 -0.00060541 0.87335761
v 0.54555189 0.00008433 0.87377767
v 0.54293556 0.00357155 0.87139161
v 0.54538591 0.00398483 0.86875318
v 0.54849685 0.00058104 0.87060669
v 0.55487246 0.00042547 0.87700595
v 0.55165902 -0.00060541 0.87335761
v 0.55463698 0.00224999 0.87058674
v 0.55666473 0.00218611 0.87396741
v 0.55165902 -0.00060541 0.87335761
v 0.54849685 0.00058104 0.87060669
v 0.55200589 0.00323717 0.86829784
v 0.55463698 0.00224999 0.87058674
v 0.54849685 0.00058104 0.87060669
v 0.54538591 0.00398483 0.86875318
v 0.54877145 0.00514767 0.86710071
v 0.55200589 0.00323717 0.86829784
v 0.55803762 0.01257449 0.87686973
v 0.55628699 0.01473525 0.87407489
v 0.55390613 0.01639795 0.87810802
v 0.55652246 0.01291075 0.88049409
v 0.55628699 0.01473525 0.87407489
v 0.55365590 0.01572245 0.87178598
v 0.55074395 0.01758442 0.87535709
v 0.55390613 0.01639795 0.87810802
v 0.55365590 0.01572245 0.87178598
v 0.55014434 0.01553605 0.87000301
v 0.54703592 0.01647012 0.87224132
v 0.55074395 0.01758442 0.87535709
v 0.55652246 0.01291075 0.88049409
v 0.55390613 0.01639795 0.87810802
v 0.55096118 0.01590125 0.88127900
v 0.55407212 0.01249745 0.88313252
v 0.55390613 0.01639795 0.87810802
v 0.55074395 0.01758442 0.87535709
v 0.54779899 0.01708769 0.87852809
v 0.55096118 0.01590125 0.88127900
v 0.55074395 0.01758442 0.87535709
v 0.54703592 0.01647012 0.87224132
v 0.54458557 0.01605682 0.87487975
v 0.54779899 0.01708769 0.87852809
v 0.55407212 0.01249745 0.88313252
v 0.55096118 0.01590125 0.88127900
v 0.54745213 0.01324510 0.88358785
v 0.55068658 0.01133460 0.88478499
v 0.55096118 0.01590125 0.88127900
v 0.54779899 0.01708769 0.87852809
v 0.54482105 0.01423230 0.88129895
v 0.54745213 0.01324510 0.88358785
v 0.54779899 0.01708769 0.87852809
v 0.54458557 0.01605682 0.87487975
v 0.54279329 0.01429618 0.87791829
v 0.54482105 0.01423230 0.88129895
v 0.55402478 -0.02132340 0.87571277
v 0.55349123 -0.02115887 0.87379899
v 0.55191117 -0.01680786 0.87441240
v 0.55219458 -0.01668106 0.87609327
v 0.55009835 -0.02356780 0.88086460
v 0.55173478 -0.02289295 0.88016806
v 0.55021420 -0.01645572 0.88031791
v 0.54858017 -0.01656204 0.88074411
v 0.54490726 -0.02452601 0.87649081
v 0.54580745 -0.02451880 0.87813419
v 0.54411687 -0.01728661 0.87846695
v 0.54354985 -0.01709560 0.87637429
v 0.54883369 -0.02228161 0.87133897
v 0.54731453 -0.02294194 0.87217401
v 0.54614742 -0.01759969 0.87296436
v 0.54792100 -0.01693115 0.87223483
v 0.55313668 -0.02224714 0.87919453
v 0.55131477 -0.01644660 0.87934981
v 0.55021420 -0.01645572 0.88031791
v 0.55173478 -0.02289295 0.88016806
v 0.54668961 -0.02451174 0.87974469
v 0.54508727 -0.01703494 0.87975340
v 0.54411687 -0.01728661 0.87846695
v 0.54580745 -0.02451880 0.87813419
v 0.54579537 -0.02360226 0.87300905
v 0.54416695 -0.01709523 0.87404601
v 0.54614742 -0.01759969 0.87296436
v 0.54731453 -0.02294194 0.87217401
v 0.55051406 -0.01655128 0.87293077
v 0.54792100 -0.01693115 0.87223483
v 0.54777254 -0.01204462 0.87163515
v 0.54975642 -0.01185183 0.87188895
v 0.55191117 -0.01680786 0.87441240
v 0.55051406 -0.01655128 0.87293077
v 0.54975642 -0.01185183 0.87188895
v 0.55166173 -0.01301490 0.87406357
v 0.55021420 -0.01645572 0.88031791
v 0.55131477 -0.01644660 0.87934981
v 0.55134230 -0.01055192 0.87995384
v 0.55012251 -0.01182468 0.88077551
v 0.54411687 -0.01728661 0.87846695
v 0.54508727 -0.01703494 0.87975340
v 0.54368776 -0.01076914 0.88055279
v 0.54230939 -0.01262609 0.87873184
v 0.54614742 -0.01759969 0.87296436
v 0.54416695 -0.01709523 0.87404601
v 0.54216925 -0.01185715 0.87415219
v 0.54525693 -0.01357274 0.87240678
v 0.55131477 -0.01644660 0.87934981
v 0.55219458 -0.01668106 0.87609327
v 0.55184629 -0.01278250 0.87578017
v 0.55134230 -0.01055192 0.87995384
v 0.54508727 -0.01703494 0.87975340
v 0.54858017 -0.01656204 0.88074411
v 0.54857592 -0.00990387 0.88142151
v 0.54368776 -0.01076914 0.88055279
v 0.54416695 -0.01709523 0.87404601
v 0.54354985 -0.01709560 0.87637429
v 0.54203297 -0.01180911 0.87539655
v 0.54216925 -0.01185715 0.87415219
v 0.55166173 -0.01301490 0.87406357
v 0.54975642 -0.01185183 0.87188895
v 0.55387662 -0.00442231 0.86905910
v 0.55508419 -0.00405386 0.87004181
v 0.55012251 -0.01182468 0.88077551
v 0.55134230 -0.01055192 0.87995384
v 0.55355570 -0.00109287 0.88218969
v 0.55234485 -0.00094354 0.88360623
v 0.55234485 -0.00094354 0.88360623
v 0.55355570 -0.00109287 0.88218969
v 0.55251773 -0.00099373 0.88085351
v 0.55085968 -0.00081131 0.88084272
v 0.54230939 -0.01262609 0.87873184
v 0.54368776 -0.01076914 0.88055279
v 0.53932660 -0.00268883 0.88115900
v 0.53781142 -0.00295909 0.88005057
v 0.54525693 -0.01357274 0.87240678
v 0.54216925 -0.01185715 0.87415219
v 0.54084247 -0.00408481 0.86681658
v 0.54174169 -0.00433030 0.86524222
v 0.54174169 -0.00433030 0.86524222
v 0.54084247 -0.00408481 0.86681658
v 0.54181458 -0.00373305 0.86828558
v 0.54324039 -0.00362004 0.86836996
v 0.55508419 -0.00405386 0.87004181
v 0.55387662 -0.00442231 0.86905910
v 0.55248547 -0.00382365 0.86996536
v 0.55278767 -0.00341110 0.87131658
v 0.53781142 -0.00295909 0.88005057
v 0.53932660 -0.00268883 0.88115900
v 0.54023429 -0.00191161 0.88010881
v 0.54012065 -0.00144213 0.87865941
v 0.54619946 -0.01245426 0.87717499
v 0.54012065 -0.00144213 0.87865941
v 0.54023429 -0.00191161 0.88010881
v 0.54588257 -0.01082631 0.87862555
v 0.54654597 -0.01279167 0.87561046
v 0.54324039 -0.00362004 0.86836996
v 0.54181458 -0.00373305 0.86828558
v 0.54417280 -0.01130878 0.87568040
v 0.54810065 -0.01246193 0.87630191
v 0.55278767 -0.00341110 0.87131658
v 0.55248547 -0.00382365 0.86996536
v 0.54803335 -0.01164630 0.87382198
v 0.54759009 -0.01236308 0.87761760
v 0.55085968 -0.00081131 0.88084272
v 0.55251773 -0.00099373 0.88085351
v 0.54885807 -0.01077113 0.87809321
v 0.54368776 -0.01076914 0.88055279
v 0.54857592 -0.00990387 0.88142151
v 0.54768159 -0.01034686 0.87883521
v 0.54588257 -0.01082631 0.87862555
v 0.54216925 -0.01185715 0.87415219
v 0.54203297 -0.01180911 0.87539655
v 0.54491279 -0.01147049 0.87691507
v 0.54417280 -0.01130878 0.87568040
v 0.54975642 -0.01185183 0.87188895
v 0.54777254 -0.01204462 0.87163515
v 0.54745289 -0.01170390 0.87377240
v 0.54803335 -0.01164630 0.87382198
v 0.55134230 -0.01055192 0.87995384
v 0.55184629 -0.01278250 0.87578017
v 0.54920741 -0.01146622 0.87605655
v 0.54885807 -0.01077113 0.87809321
v 0.55525857 -0.00382585 0.87173866
v 0.55364326 -0.00332393 0.87221029
v 0.54920741 -0.01146622 0.87605655
v 0.55184629 -0.01278250 0.87578017
v 0.55387662 -0.00442231 0.86905910
v 0.54975642 -0.01185183 0.87188895
v 0.54803335 -0.01164630 0.87382198
v 0.55248547 -0.00382365 0.86996536
v 0.55355570 -0.00109287 0.88218969
v 0.55134230 -0.01055192 0.87995384
v 0.54885807 -0.01077113 0.87809321
v 0.55251773 -0.00099373 0.88085351
v 0.55043359 -0.00073184 0.88371951
v 0.54990202 -0.00069126 0.88213519
v 0.54768159 -0.01034686 0.87883521
v 0.54857592 -0.00990387 0.88142151
v 0.53932660 -0.00268883 0.88115900
v 0.54368776 -0.01076914 0.88055279
v 0.54588257 -0.01082631 0.87862555
v 0.54023429 -0.00191161 0.88010881
v 0.53752296 -0.00239593 0.87820198
v 0.53888360 -0.00168776 0.87790146
v 0.54491279 -0.01147049 0.87691507
v 0.54203297 -0.01180911 0.87539655
v 0.54084247 -0.00408481 0.86681658
v 0.54216925 -0.01185715 0.87415219
v 0.54417280 -0.01130878 0.87568040
v 0.54181458 -0.00373305 0.86828558
v 0.54337271 -0.00422897 0.86519510
v 0.54393441 -0.00385383 0.86692711
v 0.54745289 -0.01170390 0.87377240
v 0.54777254 -0.01204462 0.87163515
v 0.54768159 -0.01034686 0.87883521
v 0.54759009 -0.01236308 0.87761760
v 0.54709625 -0.01187357 0.87655530
v 0.54491279 -0.01147049 0.87691507
v 0.54619946 -0.01245426 0.87717499
v 0.54709625 -0.01187357 0.87655530
v 0.54745289 -0.01170390 0.87377240
v 0.54654597 -0.01279167 0.87561046
v 0.54709625 -0.01187357 0.87655530
v 0.54885807 -0.01077113 0.87809321
v 0.54920741 -0.01146622 0.87605655
v 0.54709625 -0.01187357 0.87655530
v 0.54417280 -0.01130878 0.87568040
v 0.54491279 -0.01147049 0.87691507
v 0.54709625 -0.01187357 0.87655530
v 0.54588257 -0.01082631 0.87862555
v 0.54768159 -0.01034686 0.87883521
v 0.54709625 -0.01187357 0.87655530
v 0.54803335 -0.01164630 0.87382198
v 0.54745289 -0.01170390 0.87377240
v 0.54709625 -0.01187357 0.87655530
v 0.54920741 -0.01146622 0.87605655
v 0.54810065 -0.01246193 0.87630191
v 0.54709625 -0.01187357 0.87655530
v 0.54768159 -0.01034686 0.87883521
v 0.54990202 -0.00069126 0.88213519
v 0.55085968 -0.00081131 0.88084272
v 0.54759009 -0.01236308 0.87761760
v 0.55043359 -0.00073184 0.88371951
v 0.54990202 -0.00069126 0.88213519
v 0.54857592 -0.00990387 0.88142151
v 0.55012251 -0.01182468 0.88077551
v 0.55234485 -0.00094354 0.88360623
v 0.55043359 -0.00073184 0.88371951
v 0.54858017 -0.01656204 0.88074411
v 0.55021420 -0.01645572 0.88031791
v 0.55012251 -0.01182468 0.88077551
v 0.54857592 -0.00990387 0.88142151
v 0.54920741 -0.01146622 0.87605655
v 0.55364326 -0.00332393 0.87221029
v 0.55278767 -0.00341110 0.87131658
v 0.54810065 -0.01246193 0.87630191
v 0.55525857 -0.00382585 0.87173866
v 0.55508419 -0.00405386 0.87004181
v 0.55278767 -0.00341110 0.87131658
v 0.55364326 -0.00332393 0.87221029
v 0.55184629 -0.01278250 0.87578017
v 0.55166173 -0.01301490 0.87406357
v 0.55508419 -0.00405386 0.87004181
v 0.55525857 -0.00382585 0.87173866
v 0.55219458 -0.01668106 0.87609327
v 0.55191117 -0.01680786 0.87441240
v 0.55166173 -0.01301490 0.87406357
v 0.55184629 -0.01278250 0.87578017
v 0.54491279 -0.01147049 0.87691507
v 0.53888360 -0.00168776 0.87790146
v 0.54012065 -0.00144213 0.87865941
v 0.54619946 -0.01245426 0.87717499
v 0.53752296 -0.00239593 0.87820198
v 0.53781142 -0.00295909 0.88005057
v 0.54012065 -0.00144213 0.87865941
v 0.53888360 -0.00168776 0.87790146
v 0.54203297 -0.01180911 0.87539655
v 0.54230939 -0.01262609 0.87873184
v 0.53781142 -0.00295909 0.88005057
v 0.53752296 -0.00239593 0.87820198
v 0.54354985 -0.01709560 0.87637429
v 0.54411687 -0.01728661 0.87846695
v 0.54230939 -0.01262609 0.87873184
v 0.54203297 -0.01180911 0.87539655
v 0.54745289 -0.01170390 0.87377240
v 0.54393441 -0.00385383 0.86692711
v 0.54324039 -0.00362004 0.86836996
v 0.54654597 -0.01279167 0.87561046
v 0.54337271 -0.00422897 0.86519510
v 0.54393441 -0.00385383 0.86692711
v 0.54777254 -0.01204462 0.87163515
v 0.54525693 -0.01357274 0.87240678
v 0.54174169 -0.00433030 0.86524222
v 0.54337271 -0.00422897 0.86519510
v 0.54792100 -0.01693115 0.87223483
v 0.54614742 -0.01759969 0.87296436
v 0.54525693 -0.01357274 0.87240678
v 0.54777254 -0.01204462 0.87163515
v 0.54709625 -0.01187357 0.87655530
v 0.54654597 -0.01279167 0.87561046
v 0.54417280 -0.01130878 0.87568040
v 0.54709625 -0.01187357 0.87655530
v 0.54759009 -0.01236308 0.87761760
v 0.54885807 -0.01077113 0.87809321
v 0.54709625 -0.01187357 0.87655530
v 0.54810065 -0.01246193 0.87630191
v 0.54803335 -0.01164630 0.87382198
v 0.54709625 -0.01187357 0.87655530
v 0.54619946 -0.01245426 0.87717499
v 0.54588257 -0.01082631 0.87862555
v 0.54883369 -0.02228161 0.87133897
v 0.55224243 -0.02133767 0.87245889
v 0.54950635 -0.02290918 0.87609079
v 0.55349123 -0.02115887 0.87379899
v 0.55402478 -0.02132340 0.87571277
v 0.55009835 -0.02356780 0.88086460
v 0.54668961 -0.02451174 0.87974469
v 0.55313668 -0.02224714 0.87919453
v 0.55173478 -0.02289295 0.88016806
v 0.54731453 -0.02294194 0.87217401
v 0.54490726 -0.02452601 0.87649081
v 0.54579537 -0.02360226 0.87300905
v 0.54580745 -0.02451880 0.87813419
v 0.54490726 -0.02452601 0.87649081
v 0.54354985 -0.01709560 0.87637429
v 0.54416695 -0.01709523 0.87404601
v 0.54579537 -0.02360226 0.87300905
v 0.55009835 -0.02356780 0.88086460
v 0.54858017 -0.01656204 0.88074411
v 0.54508727 -0.01703494 0.87975340
v 0.54668961 -0.02451174 0.87974469
v 0.55224243 -0.02133767 0.87245889
v 0.55051406 -0.01655128 0.87293077
v 0.55191117 -0.01680786 0.87441240
v 0.55349123 -0.02115887 0.87379899
v 0.55402478 -0.02132340 0.87571277
v 0.55219458 -0.01668106 0.87609327
v 0.55131477 -0.01644660 0.87934981
v 0.55313668 -0.02224714 0.87919453
v 0.54883369 -0.02228161 0.87133897
v 0.54792100 -0.01693115 0.87223483
v 0.55051406 -0.01655128 0.87293077
v 0.55224243 -0.02133767 0.87245889
f 2 4 1
f 4 2 3
f 6 8 5
f 8 6 7
f 10 12 9
f 12 10 11
f 14 16 13
f 16 14 15
f 18 20 17
f 20 18 19
f 22 24 21
f 24 22 23
f 26 28 25
f 28 26 27
f 30 32 29
f 32 30 31
f 34 36 33
f 36 34 35
f 38 40 37
f 40 38 39
f 42 44 41
f 44 42 43
f 46 48 45
f 48 46 47
f 50 52 49
f 52 50 51
f 54 56 53
f 56 54 55
f 58 60 57
f 60 58 59
f 62 64 61
f 64 62 63
f 66 68 65
f 68 66 67
f 70 72 69
f 72 70 71
f 75 76 73
f 73 74 75
f 79 80 77
f 77 78 79
f 83 84 81
f 81 82 83
f 87 88 85
f 85 86 87
f 91 92 89
f 89 90 91
f 95 96 93
f 93 94 95
f 99 100 97
f 97 98 99
f 103 104 101
f 101 102 103
f 107 108 105
f 105 106 107
f 111 112 109
f 109 110 111
f 115 116 113
f 113 114 115
f 119 120 117
f 117 118 119
f 123 124 121
f 121 122 123
f 127 128 125
f 125 126 127
f 131 132 129
f 129 130 131
f 135 136 133
f 133 134 135
f 139 140 137
f 137 138 139
f 143 144 141
f 141 142 143
f 147 148 145
f 145 146 147
f 151 152 149
f 149 150 151
f 155 156 153
f 153 154 155
f 159 160 157
f 157 158 159
f 163 164 161
f 161 162 163
f 167 168 165
f 165 166 167
f 171 172 169
f 169 170 171
f 175 176 173
f 173 174 175
f 179 180 177
f 177 178 179
f 182 184 181
f 184 182 183
f 186 188 185
f 188 186 187
f 190 192 189
f 192 190 191
f 194 196 193
f 196 194 195
f 198 200 197
f 200 198 199
f 202 204 201
f 204 202 203
f 206 208 205
f 208 206 207
f 210 212 209
f 212 210 211
f 214 216 213
f 216 214 215
f 218 220 217
f 220 218 219
f 222 224 221
f 224 222 223
f 226 228 225
f 228 226 227
f 230 232 229
f 232 230 231
f 234 236 233
f 236 234 235
f 238 240 237
f 240 238 239
f 242 244 241
f 244 242 243
f 246 248 245
f 248 246 247
f 250 252 249
f 252 250 251
f 254 256 253
f 256 254 255
f 258 260 257
f 260 258 259
f 262 264 261
f 264 262 263
f 266 268 265
f 268 266 267
f 270 272 269
f 272 270 271
f 274 276 273
f 276 274 275
f 278 280 277
f 280 278 279
f 282 284 281
f 284 282 283
f 287 288 285
f 285 286 287
f 291 292 289
f 289 290 291
f 295 296 293
f 293 294 295
f 299 300 297
f 297 298 299
f 303 304 301
f 301 302 303
f 307 308 305
f 305 306 307
f 311 312 309
f 309 310 311
f 315 316 313
f 313 314 315
f 319 320 317
f 317 318 319
f 323 324 321
f 321 322 323
f 327 328 325
f 325 326 327
f 331 332 329
f 329 330 331
f 334 336 333
f 336 334 335
f 339 340 337
f 337 338 339
f 343 344 341
f 341 342 343
f 347 348 345
f 345 346 347
f 351 352 349
f 349 350 351
f 355 356 353
f 353 354 355
f 359 360 357
f 357 358 359
f 363 364 361
f 361 362 363
f 367 368 365
f 365 366 367
f 370 372 369
f 372 370 371
f 375 376 373
f 373 374 375
f 379 380 377
f 377 378 379
f 382 384 381
f 384 382 383
f 387 388 385
f 385 386 387
f 391 392 389
f 389 390 391
f 394 396 393
f 396 394 395
f 399 400 397
f 397 398 399
f 402 404 401
f 404 402 403
f 406 408 405
f 408 406 407
f 411 412 409
f 409 410 411
f 414 416 413
f 416 414 415
f 418 420 417
f 420 418 419
f 423 424 421
f 421 422 423
f 426 428 425
f 428 426 427
f 430 432 429
f 432 430 431
f 434 436 433
f 436 434 435
f 438 440 437
f 440 438 439
f 442 444 441
f 444 442 443
f 446 448 445
f 448 446 447
f 450 452 449
f 452 450 451
f 454 456 453
f 456 454 455
f 458 460 457
f 460 458 459
f 462 464 461
f 464 462 463
f 466 468 465
f 468 466 467
f 470 472 469
f 472 470 471
f 474 476 473
f 476 474 475
f 478 480 477
f 480 478 479
f 482 484 481
f 484 482 483
f 486 488 485
f 488 486 487
f 490 492 489
f 492 490 491
f 494 496 493
f 496 494 495
f 498 500 497
f 500 498 499
f 503 504 501
f 501 502 503
f 507 508 505
f 505 506 507
f 511 512 509
f 509 510 511
f 515 516 513
f 513 514 515
f 519 520 517
f 517 518 519
f 523 524 521
f 521 522 523
f 527 528 525
f 525 526 527
f 531 532 529
f 529 530 531
f 535 536 533
f 533 534 535
f 539 540 537
f 537 538 539
f 543 544 541
f 541 542 543
f 547 548 545
f 545 546 547
f 550 552 549
f 552 550 551
f 555 556 553
f 553 554 555
f 559 560 557
f 557 558 559
f 563 564 561
f 561 562 563
f 567 568 565
f 565 566 567
f 571 572 569
f 569 570 571
f 575 576 573
f 573 574 575
f 579 580 577
f 577 578 579
f 583 584 581
f 581 582 583
f 586 588 585
f 588 586 587
f 591 592 589
f 589 590 591
f 595 596 593
f 593 594 595
f 598 600 597
f 600 598 599
f 603 604 601
f 601 602 603
f 607 608 605
f 605 606 607
f 610 612 609
f 612 610 611
f 615 616 613
f 613 614 615
f 618 620 617
f 620 618 619
f 622 624 621
f 624 622 623
f 627 628 625
f 625 626 627
f 630 632 629
f 632 630 631
f 634 636 633
f 636 634 635
f 639 640 637
f 637 638 639
f 642 644 641
f 644 642 643
f 646 648 645
f 648 646 647
f 650 652 649
f 652 650 651
f 654 656 653
f 656 654 655
f 658 660 657
f 660 658 659
f 662 664 661
f 664 662 663
f 666 668 665
f 668 666 667
f 670 672 669
f 672 670 671
f 674 676 673
f 676 674 675
f 678 680 677
f 680 678 679
f 682 684 681
f 684 682 683
f 686 688 685
f 688 686 687
f 690 692 689
f 692 690 691
f 694 696 693
f 696 694 695
f 698 700 697
f 700 698 699
f 702 704 701
f 704 702 703
f 706 708 705
f 708 706 707
f 710 712 709
f 712 710 711
f 714 716 713
f 716 714 715
f 719 720 717
f 717 718 719
f 723 724 721
f 721 722 723
f 727 728 725
f 725 726 727
f 731 732 729
f 729 730 731
f 735 736 733
f 733 734 735
f 739 740 737
f 737 738 739
f 743 744 741
f 741 742 743
f 747 748 745
f 745 746 747
f 751 752 749
f 749 750 751
f 755 756 753
f 753 754 755
f 759 760 757
f 757 758 759
f 763 764 761
f 761 762 763
f 766 768 765
f 768 766 767
f 771 772 769
f 769 770 771
f 775 776 773
f 773 774 775
f 779 780 777
f 777 778 779
f 783 784 781
f 781 782 783
f 787 788 785
f 785 786 787
f 791 792 789
f 789 790 791
f 795 796 793
f 793 794 795
f 799 800 797
f 797 798 799
f 802 804 801
f 804 802 803
f 807 808 805
f 805 806 807
f 811 812 809
f 809 810 811
f 814 816 813
f 816 814 815
f 819 820 817
f 817 818 819
f 823 824 821
f 821 822 823
f 826 828 825
f 828 826 827
f 831 832 829
f 829 830 831
f 834 836 833
f 836 834 835
f 838 840 837
f 840 838 839
f 843 844 841
f 841 842 843
f 846 848 845
f 848 846 847
f 850 852 849
f 852 850 851
f 855 856 853
f 853 854 855
f 858 860 857
f 860 858 859
f 862 864 861
f 864 862 863
f 866 868 865
f 868 866 867
f 870 872 869
f 872 870 871
f 874 876 873
f 876 874 875
f 878 880 877
f 880 878 879
f 882 884 881
f 884 882 883
f 886 888 885
f 888 886 887
f 890 892 889
f 892 890 891
f 894 896 893
f 896 894 895
f 898 900 897
f 900 898 899
f 902 904 901
f 904 902 903
f 906 908 905
f 908 906 907
f 910 912 909
f 912 910 911
f 914 916 913
f 916 914 915
f 918 920 917
f 920 918 919
f 922 924 921
f 924 922 923
f 926 928 925
f 928 926 927
f 930 932 929
f 932 930 931
f 935 936 933
f 933 934 935
f 939 940 937
f 937 938 939
f 943 944 941
f 941 942 943
f 947 948 945
f 945 946 947
f 951 952 949
f 949 950 951
f 955 956 953
f 953 954 955
f 959 960 957
f 957 958 959
f 963 964 961
f 961 962 963
f 967 968 965
f 965 966 967
f 971 972 969
f 969 970 971
f 975 976 973
f 973 974 975
f 979 980 977
f 977 978 979
f 982 984 981
f 984 982 983
f 987 988 985
f 985 986 987
f 991 992 989
f 989 990 991
f 995 996 993
f 993 994 995
f 999 1000 997
f 997 998 999
f 1003 1004 1001
f 1001 1002 1003
f 1007 1008 1005
f 1005 1006 1007
f 1011 1012 1009
f 1009 1010 1011
f 1015 1016 1013
f 1013 1014 1015
f 1018 1020 1017
f 1020 1018 1019
f 1023 1024 1021
f 1021 1022 1023
f 1027 1028 1025
f 1025 1026 1027
f 1030 1032 1029
f 1032 1030 1031
f 1035 1036 1033
f 1033 1034 1035
f 1039 1040 1037
f 1037 1038 1039
f 1042 1044 1041
f 1044 1042 1043
f 1047 1048 1045
f 1045 1046 1047
f 1050 1052 1049
f 1052 1050 1051
f 1054 1056 1053
f 1056 1054 1055
f 1059 1060 1057
f 1057 1058 1059
f 1062 1064 1061
f 1064 1062 1063
f 1066 1068 1065
f 1068 1066 1067
f 1071 1072 1069
f 1069 1070 1071
f 1074 1076 1073
f 1076 1074 1075
f 1078 1080 1077
f 1080 1078 1079
f 1082 1084 1081
f 1084 1082 1083
f 1086 1088 1085
f 1088 1086 1087
f 1090 1092 1089
f 1092 1090 1091
f 1094 1096 1093
f 1096 1094 1095
f 1098 1100 1097
f 1100 1098 1099
f 1102 1104 1101
f 1104 1102 1103
f 1106 1108 1105
f 1108 1106 1107
f 1110 1112 1109
f 1112 1110 1111
f 1114 1116 1113
f 1116 1114 1115
f 1118 1120 1117
f 1120 1118 1119
f 1122 1124 1121
f 1124 1122 1123
f 1126 1128 1125
f 1128 1126 1127
f 1130 1132 1129
f 1132 1130 1131
f 1134 1136 1133
f 1136 1134 1135
f 1138 1140 1137
f 1140 1138 1139
f 1142 1144 1141
f 1144 1142 1143
f 1146 1148 1145
f 1148 1146 1147
f 1151 1152 1149
f 1149 1150 1151
f 1155 1156 1153
f 1153 1154 1155
f 1159 1160 1157
f 1157 1158 1159
f 1163 1164 1161
f 1161 1162 1163
f 1167 1168 1165
f 1165 1166 1167
f 1171 1172 1169
f 1169 1170 1171
f 1175 1176 1173
f 1173 1174 1175
f 1179 1180 1177
f 1177 1178 1179
f 1183 1184 1181
f 1181 1182 1183
f 1187 1188 1185
f 1185 1186 1187
f 1191 1192 1189
f 1189 1190 1191
f 1195 1196 1193
f 1193 1194 1195
f 1198 1200 1197
f 1200 1198 1199
f 1203 1204 1201
f 1201 1202 1203
f 1207 1208 1205
f 1205 1206 1207
f 1211 1212 1209
f 1209 1210 1211
f 1215 1216 1213
f 1213 1214 1215
f 1219 1220 1217
f 1217 1218 1219
f 1223 1224 1221
f 1221 1222 1223
f 1227 1228 1225
f 1225 1226 1227
f 1231 1232 1229
f 1229 1230 1231
f 1234 1236 1233
f 1236 1234 1235
f 1239 1240 1237
f 1237 1238 1239
f 1243 1244 1241
f 1241 1242 1243
f 1246 1248 1245
f 1248 1246 1247
f 1251 1252 1249
f 1249 1250 1251
f 1255 1256 1253
f 1253 1254 1255
f 1258 1260 1257
f 1260 1258 1259
f 1263 1264 1261
f 1261 1262 1263
f 1266 1268 1265
f 1268 1266 1267
f 1270 1272 1269
f 1272 1270 1271
f 1275 1276 1273
f 1273 1274 1275
f 1278 1280 1277
f 1280 1278 1279
f 1282 1284 1281
f 1284 1282 1283
f 1287 1288 1285
f 1285 1286 1287
f 1290 1292 1289
f 1292 1290 1291
f 1294 1296 1293
f 1296 1294 1295
f 1298 1300 1297
f 1300 1298 1299
f 1302 1304 1301
f 1304 1302 1303
f 1306 1308 1305
f 1308 1306 1307
f 1310 1312 1309
f 1312 1310 1311
f 1314 1316 1313
f 1316 1314 1315
f 1318 1320 1317
f 1320 1318 1319
f 1322 1324 1321
f 1324 1322 1323
f 1326 1328 1325
f 1328 1326 1327
f 1330 1332 1329
f 1332 1330 1331
f 1334 1336 1333
f 1336 1334 1335
f 1338 1340 1337
f 1340 1338 1339
f 1342 1344 1341
f 1344 1342 1343
f 1346 1348 1345
f 1348 1346 1347
f 1350 1352 1349
f 1352 1350 1351
f 1354 1356 1353
f 1356 1354 1355
f 1358 1360 1357
f 1360 1358 1359
f 1362 1364 1361
f 1364 1362 1363
f 1367 1368 1365
f 1365 1366 1367
f 1371 1372 1369
f 1369 1370 1371
f 1375 1376 1373
f 1373 1374 1375
f 1379 1380 1377
f 1377 1378 1379
f 1383 1384 1381
f 1381 1382 1383
f 1387 1388 1385
f 1385 1386 1387
f 1391 1392 1389
f 1389 1390 1391
f 1395 1396 1393
f 1393 1394 1395
f 1399 1400 1397
f 1397 1398 1399
f 1403 1404 1401
f 1401 1402 1403
f 1407 1408 1405
f 1405 1406 1407
f 1411 1412 1409
f 1409 1410 1411
f 1414 1416 1413
f 1416 1414 1415
f 1419 1420 1417
f 1417 1418 1419
f 1423 1424 1421
f 1421 1422 1423
f 1427 1428 1425
f 1425 1426 1427
f 1431 1432 1429
f 1429 1430 1431
f 1435 1436 1433
f 1433 1434 1435
f 1439 1440 1437
f 1437 1438 1439
f 1443 1444 1441
f 1441 1442 1443
f 1447 1448 1445
f 1445 1446 1447
f 1450 1452 1449
f 1452 1450 1451
f 1455 1456 1453
f 1453 1454 1455
f 1459 1460 1457
f 1457 1458 1459
f 1462 1464 1461
f 1464 1462 1463
f 1467 1468 1465
f 1465 1466 1467
f 1471 1472 1469
f 1469 1470 1471
f 1474 1476 1473
f 1476 1474 1475
f 1479 1480 1477
f 1477 1478 1479
f 1482 1484 1481
f 1484 1482 1483
f 1486 1488 1485
f 1488 1486 1487
f 1491 1492 1489
f 1489 1490 1491
f 1494 1496 1493
f 1496 1494 1495
f 1498 1500 1497
f 1500 1498 1499
f 1503 1504 1501
f 1501 1502 1503
f 1506 1508 1505
f 1508 1506 1507
f 1510 1512 1509
f 1512 1510 1511
f 1514 1516 1513
f 1516 1514 1515
f 1519 1520 1517
f 1517 1518 1519
f 1523 1524 1521
f 1521 1522 1523
f 1526 1528 1525
f 1528 1526 1527
f 1531 1532 1529
f 1529 1530 1531
f 1535 1536 1533
f 1533 1534 1535
f 1538 1540 1537
f 1540 1538 1539
f 1542 1544 1541
f 1544 1542 1543
f 1546 1548 1545
f 1548 1546 1547
f 1551 1552 1549
f 1549 1550 1551
f 1555 1556 1553
f 1553 1554 1555
f 1558 1560 1557
f 1560 1558 1559
f 1563 1564 1561
f 1561 1562 1563
f 1567 1568 1565
f 1565 1566 1567
f 1570 1572 1569
f 1572 1570 1571
f 1574 1576 1573
f 1576 1574 1575
f 1579 1580 1577
f 1577 1578 1579
f 1582 1584 1581
f 1584 1582 1583
f 1587 1588 1585
f 1585 1586 1587
f 1590 1592 1589
f 1592 1590 1591
f 1594 1596 1593
f 1596 1594 1595
f 1598 1600 1597
f 1600 1598 1599
f 1602 1604 1601
f 1604 1602 1603
f 1606 1608 1605
f 1608 1606 1607
f 1611 1612 1609
f 1609 1610 1611
f 1615 1616 1613
f 1613 1614 1615
f 1618 1620 1617
f 1620 1618 1619
f 1622 1624 1621
f 1624 1622 1623
f 1626 1628 1625
f 1628 1626 1627
f 1630 1632 1629
f 1632 1630 1631
f 1634 1636 1633
f 1636 1634 1635
f 1639 1640 1637
f 1637 1638 1639
f 1642 1644 1641
f 1644 1642 1643
f 1646 1648 1645
f 1648 1646 1647
f 1651 1652 1649
f 1649 1650 1651
f 1655 1656 1653
f 1653 1654 1655
f 1658 1660 1657
f 1660 1658 1659
f 1663 1664 1661
f 1661 1662 1663
f 1667 1668 1665
f 1665 1666 1667
f 1669 1670 1671
f 1672 1673 1674
f 1675 1676 1677
f 1678 1679 1680
f 1681 1682 1683
f 1684 1685 1686
f 1687 1688 1689
f 1690 1691 1692
f 1694 1696 1693
f 1696 1694 1695
f 1581 1698 1697
f 1698 1581 1584
f 1701 1702 1699
f 1699 1700 1701
f 1705 1706 1703
f 1703 1704 1705
f 1709 1710 1707
f 1707 1708 1709
f 1712 1714 1711
f 1714 1712 1713
f 1716 1718 1715
f 1718 1716 1717
f 1720 1722 1719
f 1722 1720 1721
f 1724 1726 1723
f 1726 1724 1725
f 1728 1730 1727
f 1730 1728 1729
f 1732 1734 1731
f 1734 1732 1733
f 1736 1738 1735
f 1738 1736 1737
f 1741 1742 1739
f 1739 1740 1741
f 1593 1744 1743
f 1744 1593 1596
f 1746 1748 1745
f 1748 1746 1747
f 1750 1752 1749
f 1752 1750 1751
f 1753 1754 1755
f 1756 1757 1758
f 1759 1760 1761
f 1762 1763 1764
f 1765 1766 1767
f 1768 1769 1767
f 1770 1771 1767
f 1772 1773 1767
f 1774 1765 1767
f 1773 1770 1767
f 1775 1776 1767
f 1771 1777 1767
f 1769 1772 1767
f 1766 1768 1767
f 1777 1775 1767
f 1776 1774 1767
f 1779 1781 1778
f 1781 1779 1780
f 1784 1785 1782
f 1782 1783 1784
f 1787 1789 1786
f 1789 1787 1788
f 1792 1793 1790
f 1790 1791 1792
f 1795 1797 1794
f 1797 1795 1796
