v 0.61843394 0.06580608 0.84827505
v 0.61720480 0.06627619 0.84627530
v 0.61878823 0.06883022 0.84654977
v 0.61973550 0.06761701 0.84914524
v 0.61720480 0.06627619 0.84627530
v 0.61563543 0.06719126 0.84503329
v 0.61690209 0.06993000 0.84505706
v 0.61878823 0.06883022 0.84654977
v 0.61563543 0.06719126 0.84503329
v 0.61372583 0.06855128 0.84454902
v 0.61407706 0.07091633 0.84466711
v 0.61690209 0.06993000 0.84505706
v 0.61973550 0.06761701 0.84914524
v 0.61878823 0.06883022 0.84654977
v 0.61923673 0.07116695 0.84770467
v 0.62010868 0.06956129 0.85010618
v 0.61878823 0.06883022 0.84654977
v 0.61690209 0.06993000 0.84505706
v 0.61735059 0.07226672 0.84621196
v 0.61923673 0.07116695 0.84770467
v 0.61690209 0.06993000 0.84505706
v 0.61407706 0.07091633 0.84466711
v 0.61445024 0.07286061 0.84562805
v 0.61735059 0.07226672 0.84621196
v 0.62010868 0.06956129 0.85010618
v 0.61923673 0.07116695 0.84770467
v 0.61855030 0.07328637 0.84974000
v 0.61955347 0.07163891 0.85115785
v 0.61923673 0.07116695 0.84770467
v 0.61735059 0.07226672 0.84621196
v 0.61698094 0.07420143 0.84849799
v 0.61855030 0.07328637 0.84974000
v 0.61735059 0.07226672 0.84621196
v 0.61445024 0.07286061 0.84562805
v 0.61484536 0.07438411 0.84743182
v 0.61698094 0.07420143 0.84849799
v 0.61372583 0.06855128 0.84454902
v 0.61164079 0.06776500 0.84542373
v 0.61121655 0.07074660 0.84561278
v 0.61407706 0.07091633 0.84466711
v 0.61164079 0.06776500 0.84542373
v 0.61014390 0.06729033 0.84696544
v 0.60941751 0.07017612 0.84746568
v 0.61121655 0.07074660 0.84561278
v 0.61014390 0.06729033 0.84696544
v 0.60923516 0.06712728 0.84917415
v 0.60867995 0.06920490 0.85022583
v 0.60941751 0.07017612 0.84746568
v 0.61407706 0.07091633 0.84466711
v 0.61121655 0.07074660 0.84561278
v 0.61166505 0.07308332 0.84676768
v 0.61445024 0.07286061 0.84562805
v 0.61121655 0.07074660 0.84561278
v 0.60941751 0.07017612 0.84746568
v 0.60986601 0.07251285 0.84862058
v 0.61166505 0.07308332 0.84676768
v 0.60941751 0.07017612 0.84746568
v 0.60867995 0.06920490 0.85022583
v 0.60905313 0.07114918 0.85118676
v 0.60986601 0.07251285 0.84862058
v 0.61445024 0.07286061 0.84562805
v 0.61166505 0.07308332 0.84676768
v 0.61298629 0.07477518 0.84888843
v 0.61484536 0.07438411 0.84743182
v 0.61166505 0.07308332 0.84676768
v 0.60986601 0.07251285 0.84862058
v 0.61148940 0.07430051 0.85043014
v 0.61298629 0.07477518 0.84888843
v 0.60986601 0.07251285 0.84862058
v 0.60905313 0.07114918 0.85118676
v 0.61035469 0.07296011 0.85205695
v 0.61148940 0.07430051 0.85043014
v 0.60923516 0.06712728 0.84917415
v 0.61023833 0.06547982 0.85059201
v 0.60955190 0.06759924 0.85262734
v 0.60867995 0.06920490 0.85022583
v 0.61023833 0.06547982 0.85059201
v 0.61180770 0.06456476 0.85183402
v 0.61143804 0.06649947 0.85412005
v 0.60955190 0.06759924 0.85262734
v 0.61180770 0.06456476 0.85183402
v 0.61394327 0.06438208 0.85290018
v 0.61433839 0.06590558 0.85470396
v 0.61143804 0.06649947 0.85412005
v 0.60867995 0.06920490 0.85022583
v 0.60955190 0.06759924 0.85262734
v 0.61000040 0.06993597 0.85378223
v 0.60905313 0.07114918 0.85118676
v 0.60955190 0.06759924 0.85262734
v 0.61143804 0.06649947 0.85412005
v 0.61188654 0.06883619 0.85527495
v 0.61000040 0.06993597 0.85378223
v 0.61143804 0.06649947 0.85412005
v 0.61433839 0.06590558 0.85470396
v 0.61471157 0.06784986 0.85566489
v 0.61188654 0.06883619 0.85527495
v 0.60905313 0.07114918 0.85118676
v 0.61000040 0.06993597 0.85378223
v 0.61158383 0.07249000 0.85405670
v 0.61035469 0.07296011 0.85205695
v 0.61000040 0.06993597 0.85378223
v 0.61188654 0.06883619 0.85527495
v 0.61315320 0.07157493 0.85529871
v 0.61158383 0.07249000 0.85405670
v 0.61188654 0.06883619 0.85527495
v 0.61471157 0.06784986 0.85566489
v 0.61506280 0.07021491 0.85578299
v 0.61315320 0.07157493 0.85529871
v 0.61394327 0.06438208 0.85290018
v 0.61580234 0.06399101 0.85144358
v 0.61712359 0.06568286 0.85356433
v 0.61433839 0.06590558 0.85470396
v 0.61580234 0.06399101 0.85144358
v 0.61729923 0.06446568 0.84990186
v 0.61892263 0.06625334 0.85171143
v 0.61712359 0.06568286 0.85356433
v 0.61729923 0.06446568 0.84990186
v 0.61843394 0.06580608 0.84827505
v 0.61973550 0.06761701 0.84914524
v 0.61892263 0.06625334 0.85171143
v 0.61433839 0.06590558 0.85470396
v 0.61712359 0.06568286 0.85356433
v 0.61757209 0.06801959 0.85471923
v 0.61471157 0.06784986 0.85566489
v 0.61712359 0.06568286 0.85356433
v 0.61892263 0.06625334 0.85171143
v 0.61937113 0.06859007 0.85286633
v 0.61757209 0.06801959 0.85471923
v 0.61892263 0.06625334 0.85171143
v 0.61973550 0.06761701 0.84914524
v 0.62010868 0.06956129 0.85010618
v 0.61937113 0.06859007 0.85286633
v 0.61471157 0.06784986 0.85566489
v 0.61757209 0.06801959 0.85471923
v 0.61714784 0.07100119 0.85490827
v 0.61506280 0.07021491 0.85578299
v 0.61757209 0.06801959 0.85471923
v 0.61937113 0.06859007 0.85286633
v 0.61864473 0.07147586 0.85336656
v 0.61714784 0.07100119 0.85490827
v 0.61937113 0.06859007 0.85286633
v 0.62010868 0.06956129 0.85010618
v 0.61955347 0.07163891 0.85115785
v 0.61864473 0.07147586 0.85336656
v 0.61394327 0.06438208 0.85290018
v 0.61180770 0.06456476 0.85183402
v 0.61352167 0.06377447 0.84947957
v 0.61580234 0.06399101 0.85144358
v 0.61180770 0.06456476 0.85183402
v 0.61023833 0.06547982 0.85059201
v 0.61163552 0.06487425 0.84798686
v 0.61352167 0.06377447 0.84947957
v 0.61023833 0.06547982 0.85059201
v 0.60923516 0.06712728 0.84917415
v 0.61014390 0.06729033 0.84696544
v 0.61163552 0.06487425 0.84798686
v 0.61580234 0.06399101 0.85144358
v 0.61352167 0.06377447 0.84947957
v 0.61532070 0.06434495 0.84762666
v 0.61729923 0.06446568 0.84990186
v 0.61352167 0.06377447 0.84947957
v 0.61163552 0.06487425 0.84798686
v 0.61343456 0.06544472 0.84613395
v 0.61532070 0.06434495 0.84762666
v 0.61163552 0.06487425 0.84798686
v 0.61014390 0.06729033 0.84696544
v 0.61164079 0.06776500 0.84542373
v 0.61343456 0.06544472 0.84613395
v 0.61729923 0.06446568 0.84990186
v 0.61532070 0.06434495 0.84762666
v 0.61720480 0.06627619 0.84627530
v 0.61843394 0.06580608 0.84827505
v 0.61532070 0.06434495 0.84762666
v 0.61343456 0.06544472 0.84613395
v 0.61563543 0.06719126 0.84503329
v 0.61720480 0.06627619 0.84627530
v 0.61343456 0.06544472 0.84613395
v 0.61164079 0.06776500 0.84542373
v 0.61372583 0.06855128 0.84454902
v 0.61563543 0.06719126 0.84503329
v 0.61955347 0.07163891 0.85115785
v 0.61855030 0.07328637 0.84974000
v 0.61715311 0.07389194 0.85234515
v 0.61864473 0.07147586 0.85336656
v 0.61855030 0.07328637 0.84974000
v 0.61698094 0.07420143 0.84849799
v 0.61526696 0.07499172 0.85085244
v 0.61715311 0.07389194 0.85234515
v 0.61698094 0.07420143 0.84849799
v 0.61484536 0.07438411 0.84743182
v 0.61298629 0.07477518 0.84888843
v 0.61526696 0.07499172 0.85085244
v 0.61864473 0.07147586 0.85336656
v 0.61715311 0.07389194 0.85234515
v 0.61535407 0.07332147 0.85419805
v 0.61714784 0.07100119 0.85490827
v 0.61715311 0.07389194 0.85234515
v 0.61526696 0.07499172 0.85085244
v 0.61346793 0.07442124 0.85270534
v 0.61535407 0.07332147 0.85419805
v 0.61526696 0.07499172 0.85085244
v 0.61298629 0.07477518 0.84888843
v 0.61148940 0.07430051 0.85043014
v 0.61346793 0.07442124 0.85270534
v 0.61714784 0.07100119 0.85490827
v 0.61535407 0.07332147 0.85419805
v 0.61315320 0.07157493 0.85529871
v 0.61506280 0.07021491 0.85578299
v 0.61535407 0.07332147 0.85419805
v 0.61346793 0.07442124 0.85270534
v 0.61158383 0.07249000 0.85405670
v 0.61315320 0.07157493 0.85529871
v 0.61346793 0.07442124 0.85270534
v 0.61148940 0.07430051 0.85043014
v 0.61035469 0.07296011 0.85205695
v 0.61158383 0.07249000 0.85405670
v 0.62025410 0.06144300 0.85621364
v 0.61891132 0.06338248 0.85413836
v 0.62146845 0.06585958 0.85587325
v 0.62224789 0.06278119 0.85823983
v 0.61891132 0.06338248 0.85413836
v 0.61716364 0.06549035 0.85321944
v 0.61936799 0.06839291 0.85476884
v 0.62146845 0.06585958 0.85587325
v 0.61716364 0.06549035 0.85321944
v 0.61501104 0.06776659 0.85345686
v 0.61594651 0.07038120 0.85492660
v 0.61936799 0.06839291 0.85476884
v 0.62224789 0.06278119 0.85823983
v 0.62146845 0.06585958 0.85587325
v 0.62244607 0.06783820 0.85855257
v 0.62306132 0.06442750 0.86046916
v 0.62146845 0.06585958 0.85587325
v 0.61936799 0.06839291 0.85476884
v 0.62034561 0.07037154 0.85744816
v 0.62244607 0.06783820 0.85855257
v 0.61936799 0.06839291 0.85476884
v 0.61594651 0.07038120 0.85492660
v 0.61675993 0.07202751 0.85715593
v 0.62034561 0.07037154 0.85744816
v 0.62306132 0.06442750 0.86046916
v 0.62244607 0.06783820 0.85855257
v 0.62184419 0.06931835 0.86217633
v 0.62269439 0.06638194 0.86290162
v 0.62244607 0.06783820 0.85855257
v 0.62034561 0.07037154 0.85744816
v 0.62009649 0.07142621 0.86125741
v 0.62184419 0.06931835 0.86217633
v 0.62034561 0.07037154 0.85744816
v 0.61675993 0.07202751 0.85715593
v 0.61745131 0.07270553 0.86014486
v 0.62009649 0.07142621 0.86125741
v 0.61501104 0.06776659 0.85345686
v 0.61208481 0.06681616 0.85409349
v 0.61213934 0.07027994 0.85601287
v 0.61594651 0.07038120 0.85492660
v 0.61208481 0.06681616 0.85409349
v 0.60993403 0.06572598 0.85568333
v 0.60955443 0.06896969 0.85792362
v 0.61213934 0.07027994 0.85601287
v 0.60993403 0.06572598 0.85568333
v 0.60855870 0.06449605 0.85822638
v 0.60819176 0.06645050 0.86065885
v 0.60955443 0.06896969 0.85792362
v 0.61594651 0.07038120 0.85492660
v 0.61213934 0.07027994 0.85601287
v 0.61311696 0.07225855 0.85869220
v 0.61675993 0.07202751 0.85715593
v 0.61213934 0.07027994 0.85601287
v 0.60955443 0.06896969 0.85792362
v 0.61053205 0.07094832 0.86060295
v 0.61311696 0.07225855 0.85869220
v 0.60955443 0.06896969 0.85792362
v 0.60819176 0.06645050 0.86065885
v 0.60900520 0.06809680 0.86288819
v 0.61053205 0.07094832 0.86060295
v 0.61675993 0.07202751 0.85715593
v 0.61311696 0.07225855 0.85869220
v 0.61501767 0.07275202 0.86213146
v 0.61745131 0.07270553 0.86014486
v 0.61311696 0.07225855 0.85869220
v 0.61053205 0.07094832 0.86060295
v 0.61286688 0.07166185 0.86372130
v 0.61501767 0.07275202 0.86213146
v 0.61053205 0.07094832 0.86060295
v 0.60900520 0.06809680 0.86288819
v 0.61099899 0.06943499 0.86491438
v 0.61286688 0.07166185 0.86372130
v 0.60855870 0.06449605 0.85822638
v 0.60940890 0.06155964 0.85895168
v 0.60880701 0.06303979 0.86257545
v 0.60819176 0.06645050 0.86065885
v 0.60940890 0.06155964 0.85895168
v 0.61115660 0.05945178 0.85987061
v 0.61090747 0.06050646 0.86367985
v 0.60880701 0.06303979 0.86257545
v 0.61115660 0.05945178 0.85987061
v 0.61380177 0.05817246 0.86098316
v 0.61449315 0.05885048 0.86397208
v 0.61090747 0.06050646 0.86367985
v 0.60819176 0.06645050 0.86065885
v 0.60880701 0.06303979 0.86257545
v 0.60978463 0.06501842 0.86525477
v 0.60900520 0.06809680 0.86288819
v 0.60880701 0.06303979 0.86257545
v 0.61090747 0.06050646 0.86367985
v 0.61188509 0.06248508 0.86635918
v 0.60978463 0.06501842 0.86525477
v 0.61090747 0.06050646 0.86367985
v 0.61449315 0.05885048 0.86397208
v 0.61530658 0.06049680 0.86620141
v 0.61188509 0.06248508 0.86635918
v 0.60900520 0.06809680 0.86288819
v 0.60978463 0.06501842 0.86525477
v 0.61234176 0.06749551 0.86698965
v 0.61099899 0.06943499 0.86491438
v 0.60978463 0.06501842 0.86525477
v 0.61188509 0.06248508 0.86635918
v 0.61408945 0.06538765 0.86790858
v 0.61234176 0.06749551 0.86698965
v 0.61188509 0.06248508 0.86635918
v 0.61530658 0.06049680 0.86620141
v 0.61624206 0.06311140 0.86767115
v 0.61408945 0.06538765 0.86790858
v 0.61380177 0.05817246 0.86098316
v 0.61623542 0.05812597 0.85899656
v 0.61813612 0.05861944 0.86243582
v 0.61449315 0.05885048 0.86397208
v 0.61623542 0.05812597 0.85899656
v 0.61838620 0.05921614 0.85740671
v 0.62072104 0.05992967 0.86052507
v 0.61813612 0.05861944 0.86243582
v 0.61838620 0.05921614 0.85740671
v 0.62025410 0.06144300 0.85621364
v 0.62224789 0.06278119 0.85823983
v 0.62072104 0.05992967 0.86052507
v 0.61449315 0.05885048 0.86397208
v 0.61813612 0.05861944 0.86243582
v 0.61911374 0.06059807 0.86511515
v 0.61530658 0.06049680 0.86620141
v 0.61813612 0.05861944 0.86243582
v 0.62072104 0.05992967 0.86052507
v 0.62169865 0.06190830 0.86320440
v 0.61911374 0.06059807 0.86511515
v 0.62072104 0.05992967 0.86052507
v 0.62224789 0.06278119 0.85823983
v 0.62306132 0.06442750 0.86046916
v 0.62169865 0.06190830 0.86320440
v 0.61530658 0.06049680 0.86620141
v 0.61911374 0.06059807 0.86511515
v 0.61916827 0.06406183 0.86703452
v 0.61624206 0.06311140 0.86767115
v 0.61911374 0.06059807 0.86511515
v 0.62169865 0.06190830 0.86320440
v 0.62131905 0.06515202 0.86544469
v 0.61916827 0.06406183 0.86703452
v 0.62169865 0.06190830 0.86320440
v 0.62306132 0.06442750 0.86046916
v 0.62269439 0.06638194 0.86290162
v 0.62131905 0.06515202 0.86544469
v 0.61380177 0.05817246 0.86098316
v 0.61115660 0.05945178 0.85987061
v 0.61338723 0.05947526 0.85659824
v 0.61623542 0.05812597 0.85899656
v 0.61115660 0.05945178 0.85987061
v 0.60940890 0.06155964 0.85895168
v 0.61128677 0.06200860 0.85549383
v 0.61338723 0.05947526 0.85659824
v 0.60940890 0.06155964 0.85895168
v 0.60855870 0.06449605 0.85822638
v 0.60993403 0.06572598 0.85568333
v 0.61128677 0.06200860 0.85549383
v 0.61623542 0.05812597 0.85899656
v 0.61338723 0.05947526 0.85659824
v 0.61597214 0.06078549 0.85468749
v 0.61838620 0.05921614 0.85740671
v 0.61338723 0.05947526 0.85659824
v 0.61128677 0.06200860 0.85549383
v 0.61387168 0.06331883 0.85358308
v 0.61597214 0.06078549 0.85468749
v 0.61128677 0.06200860 0.85549383
v 0.60993403 0.06572598 0.85568333
v 0.61208481 0.06681616 0.85409349
v 0.61387168 0.06331883 0.85358308
v 0.61838620 0.05921614 0.85740671
v 0.61597214 0.06078549 0.85468749
v 0.61891132 0.06338248 0.85413836
v 0.62025410 0.06144300 0.85621364
v 0.61597214 0.06078549 0.85468749
v 0.61387168 0.06331883 0.85358308
v 0.61716364 0.06549035 0.85321944
v 0.61891132 0.06338248 0.85413836
v 0.61387168 0.06331883 0.85358308
v 0.61208481 0.06681616 0.85409349
v 0.61501104 0.06776659 0.85345686
v 0.61716364 0.06549035 0.85321944
v 0.62269439 0.06638194 0.86290162
v 0.62184419 0.06931835 0.86217633
v 0.61996632 0.06886939 0.86563419
v 0.62131905 0.06515202 0.86544469
v 0.62184419 0.06931835 0.86217633
v 0.62009649 0.07142621 0.86125741
v 0.61786585 0.07140273 0.86452978
v 0.61996632 0.06886939 0.86563419
v 0.62009649 0.07142621 0.86125741
v 0.61745131 0.07270553 0.86014486
v 0.61501767 0.07275202 0.86213146
v 0.61786585 0.07140273 0.86452978
v 0.62131905 0.06515202 0.86544469
v 0.61996632 0.06886939 0.86563419
v 0.61738141 0.06755916 0.86754494
v 0.61916827 0.06406183 0.86703452
v 0.61996632 0.06886939 0.86563419
v 0.61786585 0.07140273 0.86452978
v 0.61528094 0.07009250 0.86644053
v 0.61738141 0.06755916 0.86754494
v 0.61786585 0.07140273 0.86452978
v 0.61501767 0.07275202 0.86213146
v 0.61286688 0.07166185 0.86372130
v 0.61528094 0.07009250 0.86644053
v 0.61916827 0.06406183 0.86703452
v 0.61738141 0.06755916 0.86754494
v 0.61408945 0.06538765 0.86790858
v 0.61624206 0.06311140 0.86767115
v 0.61738141 0.06755916 0.86754494
v 0.61528094 0.07009250 0.86644053
v 0.61234176 0.06749551 0.86698965
v 0.61408945 0.06538765 0.86790858
v 0.61528094 0.07009250 0.86644053
v 0.61286688 0.07166185 0.86372130
v 0.61099899 0.06943499 0.86491438
v 0.61234176 0.06749551 0.86698965
v 0.62923214 0.06436906 0.84871619
v 0.62805541 0.06606872 0.84689753
v 0.63029633 0.06823950 0.84841789
v 0.63097939 0.06554177 0.85049183
v 0.62805541 0.06606872 0.84689753
v 0.62652384 0.06791592 0.84609223
v 0.62845561 0.07045956 0.84745005
v 0.63029633 0.06823950 0.84841789
v 0.62652384 0.06791592 0.84609223
v 0.62463741 0.06991069 0.84630031
v 0.62545721 0.07220198 0.84758831
v 0.62845561 0.07045956 0.84745005
v 0.63097939 0.06554177 0.85049183
v 0.63029633 0.06823950 0.84841789
v 0.63115306 0.06997344 0.85076590
v 0.63169223 0.06698451 0.85244548
v 0.63029633 0.06823950 0.84841789
v 0.62845561 0.07045956 0.84745005
v 0.62931234 0.07219352 0.84979805
v 0.63115306 0.06997344 0.85076590
v 0.62845561 0.07045956 0.84745005
v 0.62545721 0.07220198 0.84758831
v 0.62617005 0.07364472 0.84954197
v 0.62931234 0.07219352 0.84979805
v 0.63169223 0.06698451 0.85244548
v 0.63115306 0.06997344 0.85076590
v 0.63062560 0.07127057 0.85394155
v 0.63137067 0.06869726 0.85457716
v 0.63115306 0.06997344 0.85076590
v 0.62931234 0.07219352 0.84979805
v 0.62909402 0.07311777 0.85313626
v 0.63062560 0.07127057 0.85394155
v 0.62931234 0.07219352 0.84979805
v 0.62617005 0.07364472 0.84954197
v 0.62677594 0.07423890 0.85216128
v 0.62909402 0.07311777 0.85313626
v 0.62463741 0.06991069 0.84630031
v 0.62207305 0.06907779 0.84685822
v 0.62212083 0.07211324 0.84854025
v 0.62545721 0.07220198 0.84758831
v 0.62207305 0.06907779 0.84685822
v 0.62018822 0.06812242 0.84825145
v 0.61985556 0.07096502 0.85021472
v 0.62212083 0.07211324 0.84854025
v 0.62018822 0.06812242 0.84825145
v 0.61898295 0.06704457 0.85048005
v 0.61866140 0.06875734 0.85261172
v 0.61985556 0.07096502 0.85021472
v 0.62545721 0.07220198 0.84758831
v 0.62212083 0.07211324 0.84854025
v 0.62297756 0.07384719 0.85088825
v 0.62617005 0.07364472 0.84954197
v 0.62212083 0.07211324 0.84854025
v 0.61985556 0.07096502 0.85021472
v 0.62071228 0.07269898 0.85256273
v 0.62297756 0.07384719 0.85088825
v 0.61985556 0.07096502 0.85021472
v 0.61866140 0.06875734 0.85261172
v 0.61937424 0.07020008 0.85456538
v 0.62071228 0.07269898 0.85256273
v 0.62617005 0.07364472 0.84954197
v 0.62297756 0.07384719 0.85088825
v 0.62464323 0.07427965 0.85390224
v 0.62677594 0.07423890 0.85216128
v 0.62297756 0.07384719 0.85088825
v 0.62071228 0.07269898 0.85256273
v 0.62275841 0.07332427 0.85529548
v 0.62464323 0.07427965 0.85390224
v 0.62071228 0.07269898 0.85256273
v 0.61937424 0.07020008 0.85456538
v 0.62112148 0.07137279 0.85634103
v 0.62275841 0.07332427 0.85529548
v 0.61898295 0.06704457 0.85048005
v 0.61972802 0.06447127 0.85111566
v 0.61920056 0.06576839 0.85429131
v 0.61866140 0.06875734 0.85261172
v 0.61972802 0.06447127 0.85111566
v 0.62125960 0.06262407 0.85192095
v 0.62104129 0.06354832 0.85525915
v 0.61920056 0.06576839 0.85429131
v 0.62125960 0.06262407 0.85192095
v 0.62357769 0.06150294 0.85289592
v 0.62418358 0.06209713 0.85551524
v 0.62104129 0.06354832 0.85525915
v 0.61866140 0.06875734 0.85261172
v 0.61920056 0.06576839 0.85429131
v 0.62005729 0.06750235 0.85663932
v 0.61937424 0.07020008 0.85456538
v 0.61920056 0.06576839 0.85429131
v 0.62104129 0.06354832 0.85525915
v 0.62189802 0.06528227 0.85760716
v 0.62005729 0.06750235 0.85663932
v 0.62104129 0.06354832 0.85525915
v 0.62418358 0.06209713 0.85551524
v 0.62489641 0.06353986 0.85746891
v 0.62189802 0.06528227 0.85760716
v 0.61937424 0.07020008 0.85456538
v 0.62005729 0.06750235 0.85663932
v 0.62229821 0.06967313 0.85815967
v 0.62112148 0.07137279 0.85634103
v 0.62005729 0.06750235 0.85663932
v 0.62189802 0.06528227 0.85760716
v 0.62382980 0.06782593 0.85896497
v 0.62229821 0.06967313 0.85815967
v 0.62189802 0.06528227 0.85760716
v 0.62489641 0.06353986 0.85746891
v 0.62571622 0.06583114 0.85875690
v 0.62382980 0.06782593 0.85896497
v 0.62357769 0.06150294 0.85289592
v 0.62571040 0.06146220 0.85115498
v 0.62737607 0.06189465 0.85416895
v 0.62418358 0.06209713 0.85551524
v 0.62571040 0.06146220 0.85115498
v 0.62759522 0.06241758 0.84976173
v 0.62964135 0.06304286 0.85249448
v 0.62737607 0.06189465 0.85416895
v 0.62759522 0.06241758 0.84976173
v 0.62923214 0.06436906 0.84871619
v 0.63097939 0.06554177 0.85049183
v 0.62964135 0.06304286 0.85249448
v 0.62418358 0.06209713 0.85551524
v 0.62737607 0.06189465 0.85416895
v 0.62823280 0.06362860 0.85651695
v 0.62489641 0.06353986 0.85746891
v 0.62737607 0.06189465 0.85416895
v 0.62964135 0.06304286 0.85249448
v 0.63049806 0.06477682 0.85484249
v 0.62823280 0.06362860 0.85651695
v 0.62964135 0.06304286 0.85249448
v 0.63097939 0.06554177 0.85049183
v 0.63169223 0.06698451 0.85244548
v 0.63049806 0.06477682 0.85484249
v 0.62489641 0.06353986 0.85746891
v 0.62823280 0.06362860 0.85651695
v 0.62828059 0.06666405 0.85819900
v 0.62571622 0.06583114 0.85875690
v 0.62823280 0.06362860 0.85651695
v 0.63049806 0.06477682 0.85484249
v 0.63016541 0.06761943 0.85680575
v 0.62828059 0.06666405 0.85819900
v 0.63049806 0.06477682 0.85484249
v 0.63169223 0.06698451 0.85244548
v 0.63137067 0.06869726 0.85457716
v 0.63016541 0.06761943 0.85680575
v 0.62357769 0.06150294 0.85289592
v 0.62125960 0.06262407 0.85192095
v 0.62321441 0.06264464 0.84905323
v 0.62571040 0.06146220 0.85115498
v 0.62125960 0.06262407 0.85192095
v 0.61972802 0.06447127 0.85111566
v 0.62137368 0.06486471 0.84808539
v 0.62321441 0.06264464 0.84905323
v 0.61972802 0.06447127 0.85111566
v 0.61898295 0.06704457 0.85048005
v 0.62018822 0.06812242 0.84825145
v 0.62137368 0.06486471 0.84808539
v 0.62571040 0.06146220 0.85115498
v 0.62321441 0.06264464 0.84905323
v 0.62547968 0.06379286 0.84737876
v 0.62759522 0.06241758 0.84976173
v 0.62321441 0.06264464 0.84905323
v 0.62137368 0.06486471 0.84808539
v 0.62363895 0.06601292 0.84641091
v 0.62547968 0.06379286 0.84737876
v 0.62137368 0.06486471 0.84808539
v 0.62018822 0.06812242 0.84825145
v 0.62207305 0.06907779 0.84685822
v 0.62363895 0.06601292 0.84641091
v 0.62759522 0.06241758 0.84976173
v 0.62547968 0.06379286 0.84737876
v 0.62805541 0.06606872 0.84689753
v 0.62923214 0.06436906 0.84871619
v 0.62547968 0.06379286 0.84737876
v 0.62363895 0.06601292 0.84641091
v 0.62652384 0.06791592 0.84609223
v 0.62805541 0.06606872 0.84689753
v 0.62363895 0.06601292 0.84641091
v 0.62207305 0.06907779 0.84685822
v 0.62463741 0.06991069 0.84630031
v 0.62652384 0.06791592 0.84609223
v 0.63137067 0.06869726 0.85457716
v 0.63062560 0.07127057 0.85394155
v 0.62897995 0.07087713 0.85697182
v 0.63016541 0.06761943 0.85680575
v 0.63062560 0.07127057 0.85394155
v 0.62909402 0.07311777 0.85313626
v 0.62713922 0.07309720 0.85600398
v 0.62897995 0.07087713 0.85697182
v 0.62909402 0.07311777 0.85313626
v 0.62677594 0.07423890 0.85216128
v 0.62464323 0.07427965 0.85390224
v 0.62713922 0.07309720 0.85600398
v 0.63016541 0.06761943 0.85680575
v 0.62897995 0.07087713 0.85697182
v 0.62671468 0.06972891 0.85864629
v 0.62828059 0.06666405 0.85819900
v 0.62897995 0.07087713 0.85697182
v 0.62713922 0.07309720 0.85600398
v 0.62487395 0.07194899 0.85767845
v 0.62671468 0.06972891 0.85864629
v 0.62713922 0.07309720 0.85600398
v 0.62464323 0.07427965 0.85390224
v 0.62275841 0.07332427 0.85529548
v 0.62487395 0.07194899 0.85767845
v 0.62828059 0.06666405 0.85819900
v 0.62671468 0.06972891 0.85864629
v 0.62382980 0.06782593 0.85896497
v 0.62571622 0.06583114 0.85875690
v 0.62671468 0.06972891 0.85864629
v 0.62487395 0.07194899 0.85767845
v 0.62229821 0.06967313 0.85815967
v 0.62382980 0.06782593 0.85896497
v 0.62487395 0.07194899 0.85767845
v 0.62275841 0.07332427 0.85529548
v 0.62112148 0.07137279 0.85634103
v 0.62229821 0.06967313 0.85815967
v 0.62661616 0.05907208 0.85814545
v 0.62564506 0.06047472 0.85664461
v 0.62749437 0.06226615 0.85789928
v 0.62805806 0.06003985 0.85961079
v 0.62564506 0.06047472 0.85664461
v 0.62438113 0.06199912 0.85598005
v 0.62597533 0.06409825 0.85710057
v 0.62749437 0.06226615 0.85789928
v 0.62438113 0.06199912 0.85598005
v 0.62282438 0.06364529 0.85615176
v 0.62350091 0.06553617 0.85721466
v 0.62597533 0.06409825 0.85710057
v 0.62805806 0.06003985 0.85961079
v 0.62749437 0.06226615 0.85789928
v 0.62820139 0.06369708 0.85983696
v 0.62864633 0.06123047 0.86122304
v 0.62749437 0.06226615 0.85789928
v 0.62597533 0.06409825 0.85710057
v 0.62668234 0.06552919 0.85903825
v 0.62820139 0.06369708 0.85983696
v 0.62597533 0.06409825 0.85710057
v 0.62350091 0.06553617 0.85721466
v 0.62408918 0.06672678 0.85882692
v 0.62668234 0.06552919 0.85903825
v 0.62864633 0.06123047 0.86122304
v 0.62820139 0.06369708 0.85983696
v 0.62776610 0.06476752 0.86245765
v 0.62838097 0.06264391 0.86298219
v 0.62820139 0.06369708 0.85983696
v 0.62668234 0.06552919 0.85903825
v 0.62650218 0.06629192 0.86179309
v 0.62776610 0.06476752 0.86245765
v 0.62668234 0.06552919 0.85903825
v 0.62408918 0.06672678 0.85882692
v 0.62458918 0.06721713 0.86098850
v 0.62650218 0.06629192 0.86179309
v 0.62282438 0.06364529 0.85615176
v 0.62070813 0.06295794 0.85661216
v 0.62074757 0.06546294 0.85800025
v 0.62350091 0.06553617 0.85721466
v 0.62070813 0.06295794 0.85661216
v 0.61915270 0.06216953 0.85776193
v 0.61887817 0.06451539 0.85938211
v 0.62074757 0.06546294 0.85800025
v 0.61915270 0.06216953 0.85776193
v 0.61815806 0.06128004 0.85960107
v 0.61789270 0.06269349 0.86136022
v 0.61887817 0.06451539 0.85938211
v 0.62350091 0.06553617 0.85721466
v 0.62074757 0.06546294 0.85800025
v 0.62145459 0.06689388 0.85993793
v 0.62408918 0.06672678 0.85882692
v 0.62074757 0.06546294 0.85800025
v 0.61887817 0.06451539 0.85938211
v 0.61958518 0.06594632 0.86131979
v 0.62145459 0.06689388 0.85993793
v 0.61887817 0.06451539 0.85938211
v 0.61789270 0.06269349 0.86136022
v 0.61848096 0.06388411 0.86297248
v 0.61958518 0.06594632 0.86131979
v 0.62408918 0.06672678 0.85882692
v 0.62145459 0.06689388 0.85993793
v 0.62282917 0.06725076 0.86242521
v 0.62458918 0.06721713 0.86098850
v 0.62145459 0.06689388 0.85993793
v 0.61958518 0.06594632 0.86131979
v 0.62127373 0.06646234 0.86357498
v 0.62282917 0.06725076 0.86242521
v 0.61958518 0.06594632 0.86131979
v 0.61848096 0.06388411 0.86297248
v 0.61992286 0.06485188 0.86443781
v 0.62127373 0.06646234 0.86357498
v 0.61815806 0.06128004 0.85960107
v 0.61877292 0.05915643 0.86012560
v 0.61833763 0.06022688 0.86274630
v 0.61789270 0.06269349 0.86136022
v 0.61877292 0.05915643 0.86012560
v 0.62003685 0.05763203 0.86079017
v 0.61985668 0.05839478 0.86354500
v 0.61833763 0.06022688 0.86274630
v 0.62003685 0.05763203 0.86079017
v 0.62194984 0.05670683 0.86159475
v 0.62244984 0.05719718 0.86375634
v 0.61985668 0.05839478 0.86354500
v 0.61789270 0.06269349 0.86136022
v 0.61833763 0.06022688 0.86274630
v 0.61904464 0.06165781 0.86468398
v 0.61848096 0.06388411 0.86297248
v 0.61833763 0.06022688 0.86274630
v 0.61985668 0.05839478 0.86354500
v 0.62056370 0.05982571 0.86548268
v 0.61904464 0.06165781 0.86468398
v 0.61985668 0.05839478 0.86354500
v 0.62244984 0.05719718 0.86375634
v 0.62303811 0.05838779 0.86536859
v 0.62056370 0.05982571 0.86548268
v 0.61848096 0.06388411 0.86297248
v 0.61904464 0.06165781 0.86468398
v 0.62089396 0.06344925 0.86593864
v 0.61992286 0.06485188 0.86443781
v 0.61904464 0.06165781 0.86468398
v 0.62056370 0.05982571 0.86548268
v 0.62215789 0.06192485 0.86660321
v 0.62089396 0.06344925 0.86593864
v 0.62056370 0.05982571 0.86548268
v 0.62303811 0.05838779 0.86536859
v 0.62371465 0.06027867 0.86643150
v 0.62215789 0.06192485 0.86660321
v 0.62194984 0.05670683 0.86159475
v 0.62370985 0.05667321 0.86015805
v 0.62508443 0.05703009 0.86264532
v 0.62244984 0.05719718 0.86375634
v 0.62370985 0.05667321 0.86015805
v 0.62526529 0.05746162 0.85900828
v 0.62695384 0.05797765 0.86126346
v 0.62508443 0.05703009 0.86264532
v 0.62526529 0.05746162 0.85900828
v 0.62661616 0.05907208 0.85814545
v 0.62805806 0.06003985 0.85961079
v 0.62695384 0.05797765 0.86126346
v 0.62244984 0.05719718 0.86375634
v 0.62508443 0.05703009 0.86264532
v 0.62579145 0.05846102 0.86458300
v 0.62303811 0.05838779 0.86536859
v 0.62508443 0.05703009 0.86264532
v 0.62695384 0.05797765 0.86126346
v 0.62766085 0.05940858 0.86320115
v 0.62579145 0.05846102 0.86458300
v 0.62695384 0.05797765 0.86126346
v 0.62805806 0.06003985 0.85961079
v 0.62864633 0.06123047 0.86122304
v 0.62766085 0.05940858 0.86320115
v 0.62303811 0.05838779 0.86536859
v 0.62579145 0.05846102 0.86458300
v 0.62583089 0.06096602 0.86597109
v 0.62371465 0.06027867 0.86643150
v 0.62579145 0.05846102 0.86458300
v 0.62766085 0.05940858 0.86320115
v 0.62738632 0.06175444 0.86482133
v 0.62583089 0.06096602 0.86597109
v 0.62766085 0.05940858 0.86320115
v 0.62864633 0.06123047 0.86122304
v 0.62838097 0.06264391 0.86298219
v 0.62738632 0.06175444 0.86482133
v 0.62194984 0.05670683 0.86159475
v 0.62003685 0.05763203 0.86079017
v 0.62165004 0.05764902 0.85842359
v 0.62370985 0.05667321 0.86015805
v 0.62003685 0.05763203 0.86079017
v 0.61877292 0.05915643 0.86012560
v 0.62013099 0.05948112 0.85762488
v 0.62165004 0.05764902 0.85842359
v 0.61877292 0.05915643 0.86012560
v 0.61815806 0.06128004 0.85960107
v 0.61915270 0.06216953 0.85776193
v 0.62013099 0.05948112 0.85762488
v 0.62370985 0.05667321 0.86015805
v 0.62165004 0.05764902 0.85842359
v 0.62351944 0.05859658 0.85704174
v 0.62526529 0.05746162 0.85900828
v 0.62165004 0.05764902 0.85842359
v 0.62013099 0.05948112 0.85762488
v 0.62200040 0.06042868 0.85624303
v 0.62351944 0.05859658 0.85704174
v 0.62013099 0.05948112 0.85762488
v 0.61915270 0.06216953 0.85776193
v 0.62070813 0.06295794 0.85661216
v 0.62200040 0.06042868 0.85624303
v 0.62526529 0.05746162 0.85900828
v 0.62351944 0.05859658 0.85704174
v 0.62564506 0.06047472 0.85664461
v 0.62661616 0.05907208 0.85814545
v 0.62351944 0.05859658 0.85704174
v 0.62200040 0.06042868 0.85624303
v 0.62438113 0.06199912 0.85598005
v 0.62564506 0.06047472 0.85664461
v 0.62200040 0.06042868 0.85624303
v 0.62070813 0.06295794 0.85661216
v 0.62282438 0.06364529 0.85615176
v 0.62438113 0.06199912 0.85598005
v 0.62838097 0.06264391 0.86298219
v 0.62776610 0.06476752 0.86245765
v 0.62640803 0.06444284 0.86495837
v 0.62738632 0.06175444 0.86482133
v 0.62776610 0.06476752 0.86245765
v 0.62650218 0.06629192 0.86179309
v 0.62488898 0.06627494 0.86415967
v 0.62640803 0.06444284 0.86495837
v 0.62650218 0.06629192 0.86179309
v 0.62458918 0.06721713 0.86098850
v 0.62282917 0.06725076 0.86242521
v 0.62488898 0.06627494 0.86415967
v 0.62738632 0.06175444 0.86482133
v 0.62640803 0.06444284 0.86495837
v 0.62453862 0.06349528 0.86634022
v 0.62583089 0.06096602 0.86597109
v 0.62640803 0.06444284 0.86495837
v 0.62488898 0.06627494 0.86415967
v 0.62301957 0.06532739 0.86554152
v 0.62453862 0.06349528 0.86634022
v 0.62488898 0.06627494 0.86415967
v 0.62282917 0.06725076 0.86242521
v 0.62127373 0.06646234 0.86357498
v 0.62301957 0.06532739 0.86554152
v 0.62583089 0.06096602 0.86597109
v 0.62453862 0.06349528 0.86634022
v 0.62215789 0.06192485 0.86660321
v 0.62371465 0.06027867 0.86643150
v 0.62453862 0.06349528 0.86634022
v 0.62301957 0.06532739 0.86554152
v 0.62089396 0.06344925 0.86593864
v 0.62215789 0.06192485 0.86660321
v 0.62301957 0.06532739 0.86554152
v 0.62127373 0.06646234 0.86357498
v 0.61992286 0.06485188 0.86443781
v 0.62089396 0.06344925 0.86593864
v 0.62044162 0.06888720 0.85115565
v 0.61952448 0.07021191 0.84973819
v 0.62127105 0.07190382 0.85092316
v 0.62180343 0.06980121 0.85253959
v 0.61952448 0.07021191 0.84973819
v 0.61833077 0.07165163 0.84911055
v 0.61983639 0.07363414 0.85016882
v 0.62127105 0.07190382 0.85092316
v 0.61833077 0.07165163 0.84911055
v 0.61686049 0.07320636 0.84927272
v 0.61749944 0.07499219 0.85027658
v 0.61983639 0.07363414 0.85016882
v 0.62180343 0.06980121 0.85253959
v 0.62127105 0.07190382 0.85092316
v 0.62193879 0.07325527 0.85275320
v 0.62235902 0.07092568 0.85406227
v 0.62127105 0.07190382 0.85092316
v 0.61983639 0.07363414 0.85016882
v 0.62050413 0.07498559 0.85199887
v 0.62193879 0.07325527 0.85275320
v 0.61983639 0.07363414 0.85016882
v 0.61749944 0.07499219 0.85027658
v 0.61805503 0.07611667 0.85179926
v 0.62050413 0.07498559 0.85199887
v 0.62235902 0.07092568 0.85406227
v 0.62193879 0.07325527 0.85275320
v 0.62152768 0.07426624 0.85522830
v 0.62210840 0.07226061 0.85572370
v 0.62193879 0.07325527 0.85275320
v 0.62050413 0.07498559 0.85199887
v 0.62033397 0.07570596 0.85460066
v 0.62152768 0.07426624 0.85522830
v 0.62050413 0.07498559 0.85199887
v 0.61805503 0.07611667 0.85179926
v 0.61852726 0.07657977 0.85384077
v 0.62033397 0.07570596 0.85460066
v 0.61686049 0.07320636 0.84927272
v 0.61486181 0.07255719 0.84970755
v 0.61489905 0.07492303 0.85101853
v 0.61749944 0.07499219 0.85027658
v 0.61486181 0.07255719 0.84970755
v 0.61339278 0.07181258 0.85079345
v 0.61313350 0.07402810 0.85232362
v 0.61489905 0.07492303 0.85101853
v 0.61339278 0.07181258 0.85079345
v 0.61245340 0.07097251 0.85253041
v 0.61220278 0.07230744 0.85419184
v 0.61313350 0.07402810 0.85232362
v 0.61749944 0.07499219 0.85027658
v 0.61489905 0.07492303 0.85101853
v 0.61556680 0.07627447 0.85284857
v 0.61805503 0.07611667 0.85179926
v 0.61489905 0.07492303 0.85101853
v 0.61313350 0.07402810 0.85232362
v 0.61380124 0.07537955 0.85415365
v 0.61556680 0.07627447 0.85284857
v 0.61313350 0.07402810 0.85232362
v 0.61220278 0.07230744 0.85419184
v 0.61275837 0.07343191 0.85571452
v 0.61380124 0.07537955 0.85415365
v 0.61805503 0.07611667 0.85179926
v 0.61556680 0.07627447 0.85284857
v 0.61686502 0.07661152 0.85519766
v 0.61852726 0.07657977 0.85384077
v 0.61556680 0.07627447 0.85284857
v 0.61380124 0.07537955 0.85415365
v 0.61539599 0.07586691 0.85628356
v 0.61686502 0.07661152 0.85519766
v 0.61380124 0.07537955 0.85415365
v 0.61275837 0.07343191 0.85571452
v 0.61412016 0.07434591 0.85709845
v 0.61539599 0.07586691 0.85628356
v 0.61245340 0.07097251 0.85253041
v 0.61303411 0.06896687 0.85302581
v 0.61262300 0.06997785 0.85550092
v 0.61220278 0.07230744 0.85419184
v 0.61303411 0.06896687 0.85302581
v 0.61422781 0.06752715 0.85365345
v 0.61405767 0.06824753 0.85625525
v 0.61262300 0.06997785 0.85550092
v 0.61422781 0.06752715 0.85365345
v 0.61603453 0.06665334 0.85441335
v 0.61650677 0.06711644 0.85645485
v 0.61405767 0.06824753 0.85625525
v 0.61220278 0.07230744 0.85419184
v 0.61262300 0.06997785 0.85550092
v 0.61329073 0.07132929 0.85733095
v 0.61275837 0.07343191 0.85571452
v 0.61262300 0.06997785 0.85550092
v 0.61405767 0.06824753 0.85625525
v 0.61472540 0.06959896 0.85808529
v 0.61329073 0.07132929 0.85733095
v 0.61405767 0.06824753 0.85625525
v 0.61650677 0.06711644 0.85645485
v 0.61706235 0.06824093 0.85797753
v 0.61472540 0.06959896 0.85808529
v 0.61275837 0.07343191 0.85571452
v 0.61329073 0.07132929 0.85733095
v 0.61503731 0.07302120 0.85851592
v 0.61412016 0.07434591 0.85709845
v 0.61329073 0.07132929 0.85733095
v 0.61472540 0.06959896 0.85808529
v 0.61623102 0.07158148 0.85914357
v 0.61503731 0.07302120 0.85851592
v 0.61472540 0.06959896 0.85808529
v 0.61706235 0.06824093 0.85797753
v 0.61770130 0.07002675 0.85898140
v 0.61623102 0.07158148 0.85914357
v 0.61603453 0.06665334 0.85441335
v 0.61769677 0.06662159 0.85305645
v 0.61899499 0.06695865 0.85540555
v 0.61650677 0.06711644 0.85645485
v 0.61769677 0.06662159 0.85305645
v 0.61916580 0.06736620 0.85197056
v 0.62076055 0.06785356 0.85410047
v 0.61899499 0.06695865 0.85540555
v 0.61916580 0.06736620 0.85197056
v 0.62044162 0.06888720 0.85115565
v 0.62180343 0.06980121 0.85253959
v 0.62076055 0.06785356 0.85410047
v 0.61650677 0.06711644 0.85645485
v 0.61899499 0.06695865 0.85540555
v 0.61966274 0.06831008 0.85723558
v 0.61706235 0.06824093 0.85797753
v 0.61899499 0.06695865 0.85540555
v 0.62076055 0.06785356 0.85410047
v 0.62142829 0.06920500 0.85593050
v 0.61966274 0.06831008 0.85723558
v 0.62076055 0.06785356 0.85410047
v 0.62180343 0.06980121 0.85253959
v 0.62235902 0.07092568 0.85406227
v 0.62142829 0.06920500 0.85593050
v 0.61706235 0.06824093 0.85797753
v 0.61966274 0.06831008 0.85723558
v 0.61969998 0.07067592 0.85854657
v 0.61770130 0.07002675 0.85898140
v 0.61966274 0.06831008 0.85723558
v 0.62142829 0.06920500 0.85593050
v 0.62116901 0.07142054 0.85746067
v 0.61969998 0.07067592 0.85854657
v 0.62142829 0.06920500 0.85593050
v 0.62235902 0.07092568 0.85406227
v 0.62210840 0.07226061 0.85572370
v 0.62116901 0.07142054 0.85746067
v 0.61603453 0.06665334 0.85441335
v 0.61422781 0.06752715 0.85365345
v 0.61575139 0.06754319 0.85141835
v 0.61769677 0.06662159 0.85305645
v 0.61422781 0.06752715 0.85365345
v 0.61303411 0.06896687 0.85302581
v 0.61431673 0.06927351 0.85066401
v 0.61575139 0.06754319 0.85141835
v 0.61303411 0.06896687 0.85302581
v 0.61245340 0.07097251 0.85253041
v 0.61339278 0.07181258 0.85079345
v 0.61431673 0.06927351 0.85066401
v 0.61769677 0.06662159 0.85305645
v 0.61575139 0.06754319 0.85141835
v 0.61751694 0.06843811 0.85011326
v 0.61916580 0.06736620 0.85197056
v 0.61575139 0.06754319 0.85141835
v 0.61431673 0.06927351 0.85066401
v 0.61608228 0.07016844 0.84935892
v 0.61751694 0.06843811 0.85011326
v 0.61431673 0.06927351 0.85066401
v 0.61339278 0.07181258 0.85079345
v 0.61486181 0.07255719 0.84970755
v 0.61608228 0.07016844 0.84935892
v 0.61916580 0.06736620 0.85197056
v 0.61751694 0.06843811 0.85011326
v 0.61952448 0.07021191 0.84973819
v 0.62044162 0.06888720 0.85115565
v 0.61751694 0.06843811 0.85011326
v 0.61608228 0.07016844 0.84935892
v 0.61833077 0.07165163 0.84911055
v 0.61952448 0.07021191 0.84973819
v 0.61608228 0.07016844 0.84935892
v 0.61486181 0.07255719 0.84970755
v 0.61686049 0.07320636 0.84927272
v 0.61833077 0.07165163 0.84911055
v 0.62210840 0.07226061 0.85572370
v 0.62152768 0.07426624 0.85522830
v 0.62024506 0.07395960 0.85759010
v 0.62116901 0.07142054 0.85746067
v 0.62152768 0.07426624 0.85522830
v 0.62033397 0.07570596 0.85460066
v 0.61881040 0.07568992 0.85683576
v 0.62024506 0.07395960 0.85759010
v 0.62033397 0.07570596 0.85460066
v 0.61852726 0.07657977 0.85384077
v 0.61686502 0.07661152 0.85519766
v 0.61881040 0.07568992 0.85683576
v 0.62116901 0.07142054 0.85746067
v 0.62024506 0.07395960 0.85759010
v 0.61847951 0.07306467 0.85889519
v 0.61969998 0.07067592 0.85854657
v 0.62024506 0.07395960 0.85759010
v 0.61881040 0.07568992 0.85683576
v 0.61704485 0.07479501 0.85814086
v 0.61847951 0.07306467 0.85889519
v 0.61881040 0.07568992 0.85683576
v 0.61686502 0.07661152 0.85519766
v 0.61539599 0.07586691 0.85628356
v 0.61704485 0.07479501 0.85814086
v 0.61969998 0.07067592 0.85854657
v 0.61847951 0.07306467 0.85889519
v 0.61623102 0.07158148 0.85914357
v 0.61770130 0.07002675 0.85898140
v 0.61847951 0.07306467 0.85889519
v 0.61704485 0.07479501 0.85814086
v 0.61503731 0.07302120 0.85851592
v 0.61623102 0.07158148 0.85914357
v 0.61704485 0.07479501 0.85814086
v 0.61539599 0.07586691 0.85628356
v 0.61412016 0.07434591 0.85709845
v 0.61503731 0.07302120 0.85851592
v 0.61170148 0.06483340 0.85248231
v 0.61121335 0.06553845 0.85172789
v 0.61214292 0.06643893 0.85235857
v 0.61242627 0.06531986 0.85321888
v 0.61121335 0.06553845 0.85172789
v 0.61057803 0.06630471 0.85139385
v 0.61137936 0.06735986 0.85195710
v 0.61214292 0.06643893 0.85235857
v 0.61057803 0.06630471 0.85139385
v 0.60979549 0.06713218 0.85148016
v 0.61013556 0.06808265 0.85201445
v 0.61137936 0.06735986 0.85195710
v 0.61242627 0.06531986 0.85321888
v 0.61214292 0.06643893 0.85235857
v 0.61249831 0.06715821 0.85333256
v 0.61272197 0.06591833 0.85402930
v 0.61214292 0.06643893 0.85235857
v 0.61137936 0.06735986 0.85195710
v 0.61173474 0.06807913 0.85293109
v 0.61249831 0.06715821 0.85333256
v 0.61137936 0.06735986 0.85195710
v 0.61013556 0.06808265 0.85201445
v 0.61043126 0.06868112 0.85282486
v 0.61173474 0.06807913 0.85293109
v 0.61272197 0.06591833 0.85402930
v 0.61249831 0.06715821 0.85333256
v 0.61227951 0.06769628 0.85464990
v 0.61258858 0.06662882 0.85491356
v 0.61249831 0.06715821 0.85333256
v 0.61173474 0.06807913 0.85293109
v 0.61164418 0.06846253 0.85431584
v 0.61227951 0.06769628 0.85464990
v 0.61173474 0.06807913 0.85293109
v 0.61043126 0.06868112 0.85282486
v 0.61068259 0.06892760 0.85391141
v 0.61164418 0.06846253 0.85431584
v 0.60979549 0.06713218 0.85148016
v 0.60873174 0.06678667 0.85171159
v 0.60875157 0.06804584 0.85240933
v 0.61013556 0.06808265 0.85201445
v 0.60873174 0.06678667 0.85171159
v 0.60794988 0.06639036 0.85228953
v 0.60781189 0.06756953 0.85310393
v 0.60875157 0.06804584 0.85240933
v 0.60794988 0.06639036 0.85228953
v 0.60744991 0.06594326 0.85321400
v 0.60731653 0.06665374 0.85409826
v 0.60781189 0.06756953 0.85310393
v 0.61013556 0.06808265 0.85201445
v 0.60875157 0.06804584 0.85240933
v 0.60910695 0.06876511 0.85338333
v 0.61043126 0.06868112 0.85282486
v 0.60875157 0.06804584 0.85240933
v 0.60781189 0.06756953 0.85310393
v 0.60816728 0.06828881 0.85407793
v 0.60910695 0.06876511 0.85338333
v 0.60781189 0.06756953 0.85310393
v 0.60731653 0.06665374 0.85409826
v 0.60761222 0.06725222 0.85490867
v 0.60816728 0.06828881 0.85407793
v 0.61043126 0.06868112 0.85282486
v 0.60910695 0.06876511 0.85338333
v 0.60979790 0.06894450 0.85463358
v 0.61068259 0.06892760 0.85391141
v 0.60910695 0.06876511 0.85338333
v 0.60816728 0.06828881 0.85407793
v 0.60901605 0.06854820 0.85521153
v 0.60979790 0.06894450 0.85463358
v 0.60816728 0.06828881 0.85407793
v 0.60761222 0.06725222 0.85490867
v 0.60833702 0.06773868 0.85564525
v 0.60901605 0.06854820 0.85521153
v 0.60744991 0.06594326 0.85321400
v 0.60775898 0.06487580 0.85347766
v 0.60754019 0.06541387 0.85479498
v 0.60731653 0.06665374 0.85409826
v 0.60775898 0.06487580 0.85347766
v 0.60839430 0.06410954 0.85381171
v 0.60830375 0.06449295 0.85519647
v 0.60754019 0.06541387 0.85479498
v 0.60839430 0.06410954 0.85381171
v 0.60935590 0.06364448 0.85421615
v 0.60960724 0.06389095 0.85530269
v 0.60830375 0.06449295 0.85519647
v 0.60731653 0.06665374 0.85409826
v 0.60754019 0.06541387 0.85479498
v 0.60789557 0.06613315 0.85576898
v 0.60761222 0.06725222 0.85490867
v 0.60754019 0.06541387 0.85479498
v 0.60830375 0.06449295 0.85519647
v 0.60865914 0.06521222 0.85617046
v 0.60789557 0.06613315 0.85576898
v 0.60830375 0.06449295 0.85519647
v 0.60960724 0.06389095 0.85530269
v 0.60990293 0.06448943 0.85611311
v 0.60865914 0.06521222 0.85617046
v 0.60761222 0.06725222 0.85490867
v 0.60789557 0.06613315 0.85576898
v 0.60882515 0.06703364 0.85639965
v 0.60833702 0.06773868 0.85564525
v 0.60789557 0.06613315 0.85576898
v 0.60865914 0.06521222 0.85617046
v 0.60946047 0.06626738 0.85673370
v 0.60882515 0.06703364 0.85639965
v 0.60865914 0.06521222 0.85617046
v 0.60990293 0.06448943 0.85611311
v 0.61024300 0.06543990 0.85664739
v 0.60946047 0.06626738 0.85673370
v 0.60935590 0.06364448 0.85421615
v 0.61024059 0.06362757 0.85349397
v 0.61093154 0.06380697 0.85474423
v 0.60960724 0.06389095 0.85530269
v 0.61024059 0.06362757 0.85349397
v 0.61102245 0.06402389 0.85291602
v 0.61187121 0.06428327 0.85404962
v 0.61093154 0.06380697 0.85474423
v 0.61102245 0.06402389 0.85291602
v 0.61170148 0.06483340 0.85248231
v 0.61242627 0.06531986 0.85321888
v 0.61187121 0.06428327 0.85404962
v 0.60960724 0.06389095 0.85530269
v 0.61093154 0.06380697 0.85474423
v 0.61128693 0.06452624 0.85571823
v 0.60990293 0.06448943 0.85611311
v 0.61093154 0.06380697 0.85474423
v 0.61187121 0.06428327 0.85404962
v 0.61222660 0.06500254 0.85502362
v 0.61128693 0.06452624 0.85571823
v 0.61187121 0.06428327 0.85404962
v 0.61242627 0.06531986 0.85321888
v 0.61272197 0.06591833 0.85402930
v 0.61222660 0.06500254 0.85502362
v 0.60990293 0.06448943 0.85611311
v 0.61128693 0.06452624 0.85571823
v 0.61130676 0.06578541 0.85641596
v 0.61024300 0.06543990 0.85664739
v 0.61128693 0.06452624 0.85571823
v 0.61222660 0.06500254 0.85502362
v 0.61208861 0.06618172 0.85583802
v 0.61130676 0.06578541 0.85641596
v 0.61222660 0.06500254 0.85502362
v 0.61272197 0.06591833 0.85402930
v 0.61258858 0.06662882 0.85491356
v 0.61208861 0.06618172 0.85583802
v 0.60935590 0.06364448 0.85421615
v 0.60839430 0.06410954 0.85381171
v 0.60920520 0.06411807 0.85262212
v 0.61024059 0.06362757 0.85349397
v 0.60839430 0.06410954 0.85381171
v 0.60775898 0.06487580 0.85347766
v 0.60844163 0.06503900 0.85222065
v 0.60920520 0.06411807 0.85262212
v 0.60775898 0.06487580 0.85347766
v 0.60744991 0.06594326 0.85321400
v 0.60794988 0.06639036 0.85228953
v 0.60844163 0.06503900 0.85222065
v 0.61024059 0.06362757 0.85349397
v 0.60920520 0.06411807 0.85262212
v 0.61014488 0.06459438 0.85192752
v 0.61102245 0.06402389 0.85291602
v 0.60920520 0.06411807 0.85262212
v 0.60844163 0.06503900 0.85222065
v 0.60938131 0.06551531 0.85152604
v 0.61014488 0.06459438 0.85192752
v 0.60844163 0.06503900 0.85222065
v 0.60794988 0.06639036 0.85228953
v 0.60873174 0.06678667 0.85171159
v 0.60938131 0.06551531 0.85152604
v 0.61102245 0.06402389 0.85291602
v 0.61014488 0.06459438 0.85192752
v 0.61121335 0.06553845 0.85172789
v 0.61170148 0.06483340 0.85248231
v 0.61014488 0.06459438 0.85192752
v 0.60938131 0.06551531 0.85152604
v 0.61057803 0.06630471 0.85139385
v 0.61121335 0.06553845 0.85172789
v 0.60938131 0.06551531 0.85152604
v 0.60873174 0.06678667 0.85171159
v 0.60979549 0.06713218 0.85148016
v 0.61057803 0.06630471 0.85139385
v 0.61258858 0.06662882 0.85491356
v 0.61227951 0.06769628 0.85464990
v 0.61159687 0.06753307 0.85590691
v 0.61208861 0.06618172 0.85583802
v 0.61227951 0.06769628 0.85464990
v 0.61164418 0.06846253 0.85431584
v 0.61083329 0.06845400 0.85550543
v 0.61159687 0.06753307 0.85590691
v 0.61164418 0.06846253 0.85431584
v 0.61068259 0.06892760 0.85391141
v 0.60979790 0.06894450 0.85463358
v 0.61083329 0.06845400 0.85550543
v 0.61208861 0.06618172 0.85583802
v 0.61159687 0.06753307 0.85590691
v 0.61065718 0.06705677 0.85660151
v 0.61130676 0.06578541 0.85641596
v 0.61159687 0.06753307 0.85590691
v 0.61083329 0.06845400 0.85550543
v 0.60989362 0.06797770 0.85620004
v 0.61065718 0.06705677 0.85660151
v 0.61083329 0.06845400 0.85550543
v 0.60979790 0.06894450 0.85463358
v 0.60901605 0.06854820 0.85521153
v 0.60989362 0.06797770 0.85620004
v 0.61130676 0.06578541 0.85641596
v 0.61065718 0.06705677 0.85660151
v 0.60946047 0.06626738 0.85673370
v 0.61024300 0.06543990 0.85664739
v 0.61065718 0.06705677 0.85660151
v 0.60989362 0.06797770 0.85620004
v 0.60882515 0.06703364 0.85639965
v 0.60946047 0.06626738 0.85673370
v 0.60989362 0.06797770 0.85620004
v 0.60901605 0.06854820 0.85521153
v 0.60833702 0.06773868 0.85564525
v 0.60882515 0.06703364 0.85639965
v 0.62593036 0.06621091 0.85555509
v 0.62466660 0.06803628 0.85360192
v 0.62707327 0.07036762 0.85523473
v 0.62780684 0.06747035 0.85746206
v 0.62466660 0.06803628 0.85360192
v 0.62302174 0.07002011 0.85273706
v 0.62509639 0.07275191 0.85419530
v 0.62707327 0.07036762 0.85523473
v 0.62302174 0.07002011 0.85273706
v 0.62099579 0.07216243 0.85296051
v 0.62187621 0.07462319 0.85434377
v 0.62509639 0.07275191 0.85419530
v 0.62780684 0.06747035 0.85746206
v 0.62707327 0.07036762 0.85523473
v 0.62799336 0.07222982 0.85775640
v 0.62857241 0.06901980 0.85956022
v 0.62707327 0.07036762 0.85523473
v 0.62509639 0.07275191 0.85419530
v 0.62601649 0.07461410 0.85671698
v 0.62799336 0.07222982 0.85775640
v 0.62509639 0.07275191 0.85419530
v 0.62187621 0.07462319 0.85434377
v 0.62264178 0.07617265 0.85644195
v 0.62601649 0.07461410 0.85671698
v 0.62857241 0.06901980 0.85956022
v 0.62799336 0.07222982 0.85775640
v 0.62742689 0.07362288 0.86116695
v 0.62822706 0.07085925 0.86184957
v 0.62799336 0.07222982 0.85775640
v 0.62601649 0.07461410 0.85671698
v 0.62578203 0.07560672 0.86030209
v 0.62742689 0.07362288 0.86116695
v 0.62601649 0.07461410 0.85671698
v 0.62264178 0.07617265 0.85644195
v 0.62329249 0.07681077 0.85925500
v 0.62578203 0.07560672 0.86030209
v 0.62099579 0.07216243 0.85296051
v 0.61824174 0.07126792 0.85355969
v 0.61829306 0.07452789 0.85536614
v 0.62187621 0.07462319 0.85434377
v 0.61824174 0.07126792 0.85355969
v 0.61621751 0.07024189 0.85505599
v 0.61586024 0.07329475 0.85716446
v 0.61829306 0.07452789 0.85536614
v 0.61621751 0.07024189 0.85505599
v 0.61492310 0.06908433 0.85744943
v 0.61457775 0.07092377 0.85973876
v 0.61586024 0.07329475 0.85716446
v 0.62187621 0.07462319 0.85434377
v 0.61829306 0.07452789 0.85536614
v 0.61921316 0.07639009 0.85788781
v 0.62264178 0.07617265 0.85644195
v 0.61829306 0.07452789 0.85536614
v 0.61586024 0.07329475 0.85716446
v 0.61678034 0.07515695 0.85968614
v 0.61921316 0.07639009 0.85788781
v 0.61586024 0.07329475 0.85716446
v 0.61457775 0.07092377 0.85973876
v 0.61534331 0.07247321 0.86183692
v 0.61678034 0.07515695 0.85968614
v 0.62264178 0.07617265 0.85644195
v 0.61921316 0.07639009 0.85788781
v 0.62100203 0.07685454 0.86112472
v 0.62329249 0.07681077 0.85925500
v 0.61921316 0.07639009 0.85788781
v 0.61678034 0.07515695 0.85968614
v 0.61897780 0.07582849 0.86262101
v 0.62100203 0.07685454 0.86112472
v 0.61678034 0.07515695 0.85968614
v 0.61534331 0.07247321 0.86183692
v 0.61721979 0.07373266 0.86374390
v 0.61897780 0.07582849 0.86262101
v 0.61492310 0.06908433 0.85744943
v 0.61572327 0.06632070 0.85813205
v 0.61515679 0.06771374 0.86154258
v 0.61457775 0.07092377 0.85973876
v 0.61572327 0.06632070 0.85813205
v 0.61736814 0.06433685 0.85899690
v 0.61713367 0.06532947 0.86258201
v 0.61515679 0.06771374 0.86154258
v 0.61736814 0.06433685 0.85899690
v 0.61985768 0.06313281 0.86004399
v 0.62050837 0.06377093 0.86285704
v 0.61713367 0.06532947 0.86258201
v 0.61457775 0.07092377 0.85973876
v 0.61515679 0.06771374 0.86154258
v 0.61607689 0.06957596 0.86406427
v 0.61534331 0.07247321 0.86183692
v 0.61515679 0.06771374 0.86154258
v 0.61713367 0.06532947 0.86258201
v 0.61805377 0.06719167 0.86510369
v 0.61607689 0.06957596 0.86406427
v 0.61713367 0.06532947 0.86258201
v 0.62050837 0.06377093 0.86285704
v 0.62127394 0.06532038 0.86495520
v 0.61805377 0.06719167 0.86510369
v 0.61534331 0.07247321 0.86183692
v 0.61607689 0.06957596 0.86406427
v 0.61848357 0.07190730 0.86569707
v 0.61721979 0.07373266 0.86374390
v 0.61607689 0.06957596 0.86406427
v 0.61805377 0.06719167 0.86510369
v 0.62012842 0.06992346 0.86656192
v 0.61848357 0.07190730 0.86569707
v 0.61805377 0.06719167 0.86510369
v 0.62127394 0.06532038 0.86495520
v 0.62215438 0.06778114 0.86633847
v 0.62012842 0.06992346 0.86656192
v 0.61985768 0.06313281 0.86004399
v 0.62214814 0.06308904 0.85817427
v 0.62393700 0.06355349 0.86141117
v 0.62050837 0.06377093 0.86285704
v 0.62214814 0.06308904 0.85817427
v 0.62417237 0.06411507 0.85667797
v 0.62636983 0.06478662 0.85961285
v 0.62393700 0.06355349 0.86141117
v 0.62417237 0.06411507 0.85667797
v 0.62593036 0.06621091 0.85555509
v 0.62780684 0.06747035 0.85746206
v 0.62636983 0.06478662 0.85961285
v 0.62050837 0.06377093 0.86285704
v 0.62393700 0.06355349 0.86141117
v 0.62485710 0.06541569 0.86393285
v 0.62127394 0.06532038 0.86495520
v 0.62393700 0.06355349 0.86141117
v 0.62636983 0.06478662 0.85961285
v 0.62728992 0.06664882 0.86213453
v 0.62485710 0.06541569 0.86393285
v 0.62636983 0.06478662 0.85961285
v 0.62780684 0.06747035 0.85746206
v 0.62857241 0.06901980 0.85956022
v 0.62728992 0.06664882 0.86213453
v 0.62127394 0.06532038 0.86495520
v 0.62485710 0.06541569 0.86393285
v 0.62490843 0.06867564 0.86573930
v 0.62215438 0.06778114 0.86633847
v 0.62485710 0.06541569 0.86393285
v 0.62728992 0.06664882 0.86213453
v 0.62693265 0.06970169 0.86424300
v 0.62490843 0.06867564 0.86573930
v 0.62728992 0.06664882 0.86213453
v 0.62857241 0.06901980 0.85956022
v 0.62822706 0.07085925 0.86184957
v 0.62693265 0.06970169 0.86424300
v 0.61985768 0.06313281 0.86004399
v 0.61736814 0.06433685 0.85899690
v 0.61946753 0.06435895 0.85591707
v 0.62214814 0.06308904 0.85817427
v 0.61736814 0.06433685 0.85899690
v 0.61572327 0.06632070 0.85813205
v 0.61749065 0.06674323 0.85487763
v 0.61946753 0.06435895 0.85591707
v 0.61572327 0.06632070 0.85813205
v 0.61492310 0.06908433 0.85744943
v 0.61621751 0.07024189 0.85505599
v 0.61749065 0.06674323 0.85487763
v 0.62214814 0.06308904 0.85817427
v 0.61946753 0.06435895 0.85591707
v 0.62190035 0.06559210 0.85411874
v 0.62417237 0.06411507 0.85667797
v 0.61946753 0.06435895 0.85591707
v 0.61749065 0.06674323 0.85487763
v 0.61992347 0.06797637 0.85307931
v 0.62190035 0.06559210 0.85411874
v 0.61749065 0.06674323 0.85487763
v 0.61621751 0.07024189 0.85505599
v 0.61824174 0.07126792 0.85355969
v 0.61992347 0.06797637 0.85307931
v 0.62417237 0.06411507 0.85667797
v 0.62190035 0.06559210 0.85411874
v 0.62466660 0.06803628 0.85360192
v 0.62593036 0.06621091 0.85555509
v 0.62190035 0.06559210 0.85411874
v 0.61992347 0.06797637 0.85307931
v 0.62302174 0.07002011 0.85273706
v 0.62466660 0.06803628 0.85360192
v 0.61992347 0.06797637 0.85307931
v 0.61824174 0.07126792 0.85355969
v 0.62099579 0.07216243 0.85296051
v 0.62302174 0.07002011 0.85273706
v 0.62822706 0.07085925 0.86184957
v 0.62742689 0.07362288 0.86116695
v 0.62565951 0.07320034 0.86442135
v 0.62693265 0.06970169 0.86424300
v 0.62742689 0.07362288 0.86116695
v 0.62578203 0.07560672 0.86030209
v 0.62368264 0.07558463 0.86338193
v 0.62565951 0.07320034 0.86442135
v 0.62578203 0.07560672 0.86030209
v 0.62329249 0.07681077 0.85925500
v 0.62100203 0.07685454 0.86112472
v 0.62368264 0.07558463 0.86338193
v 0.62693265 0.06970169 0.86424300
v 0.62565951 0.07320034 0.86442135
v 0.62322669 0.07196721 0.86621968
v 0.62490843 0.06867564 0.86573930
v 0.62565951 0.07320034 0.86442135
v 0.62368264 0.07558463 0.86338193
v 0.62124981 0.07435148 0.86518025
v 0.62322669 0.07196721 0.86621968
v 0.62368264 0.07558463 0.86338193
v 0.62100203 0.07685454 0.86112472
v 0.61897780 0.07582849 0.86262101
v 0.62124981 0.07435148 0.86518025
v 0.62490843 0.06867564 0.86573930
v 0.62322669 0.07196721 0.86621968
v 0.62012842 0.06992346 0.86656192
v 0.62215438 0.06778114 0.86633847
v 0.62322669 0.07196721 0.86621968
v 0.62124981 0.07435148 0.86518025
v 0.61848357 0.07190730 0.86569707
v 0.62012842 0.06992346 0.86656192
v 0.62124981 0.07435148 0.86518025
v 0.61897780 0.07582849 0.86262101
v 0.61721979 0.07373266 0.86374390
v 0.61848357 0.07190730 0.86569707
v 0.62054685 0.05198218 0.84633084
v 0.62030040 0.05299785 0.84526162
v 0.61971943 0.05553581 0.84760387
v 0.61983849 0.05483190 0.84866868
v 0.61702000 0.04900051 0.84859048
v 0.61836069 0.04945467 0.84841251
v 0.61814884 0.05341692 0.85139206
v 0.61690775 0.05341604 0.85165692
v 0.61335340 0.05113843 0.84568870
v 0.61391040 0.05028667 0.84665783
v 0.61367498 0.05466358 0.85010435
v 0.61341911 0.05577825 0.84893956
v 0.61688024 0.05412010 0.84342906
v 0.61561885 0.05359608 0.84369348
v 0.61547024 0.05657848 0.84656651
v 0.61691278 0.05702249 0.84636128
v 0.61954280 0.05004857 0.84806164
v 0.61901918 0.05367871 0.85077357
v 0.61814884 0.05341692 0.85139206
v 0.61836069 0.04945467 0.84841251
v 0.61445626 0.04945195 0.84760758
v 0.61434088 0.05410153 0.85096279
v 0.61367498 0.05466358 0.85010435
v 0.61391040 0.05028667 0.84665783
v 0.61435744 0.05307205 0.84395790
v 0.61401996 0.05670362 0.84750914
v 0.61547024 0.05657848 0.84656651
v 0.61561885 0.05359608 0.84369348
v 0.61882497 0.05654789 0.84686534
v 0.61691278 0.05702249 0.84636128
v 0.61753529 0.06018963 0.84815793
v 0.61900210 0.05989075 0.84833164
v 0.61971943 0.05553581 0.84760387
v 0.61882497 0.05654789 0.84686534
v 0.61900210 0.05989075 0.84833164
v 0.62009675 0.05796349 0.84907350
v 0.61814884 0.05341692 0.85139206
v 0.61901918 0.05367871 0.85077357
v 0.61983733 0.05688693 0.85373820
v 0.61870954 0.05596203 0.85371462
v 0.61367498 0.05466358 0.85010435
v 0.61434088 0.05410153 0.85096279
v 0.61415223 0.05766001 0.85425622
v 0.61299322 0.05757118 0.85237944
v 0.61547024 0.05657848 0.84656651
v 0.61401996 0.05670362 0.84750914
v 0.61329068 0.06005024 0.84994903
v 0.61542369 0.05933295 0.84803391
v 0.61901918 0.05367871 0.85077357
v 0.61983849 0.05483190 0.84866868
v 0.62015599 0.05732126 0.85020976
v 0.61983733 0.05688693 0.85373820
v 0.61434088 0.05410153 0.85096279
v 0.61690775 0.05341604 0.85165692
v 0.61780625 0.05704727 0.85500376
v 0.61415223 0.05766001 0.85425622
v 0.61401996 0.05670362 0.84750914
v 0.61341911 0.05577825 0.84893956
v 0.61311838 0.05955470 0.85072846
v 0.61329068 0.06005024 0.84994903
v 0.62009675 0.05796349 0.84907350
v 0.61900210 0.05989075 0.84833164
v 0.62325916 0.06488501 0.84975890
v 0.62413496 0.06448873 0.85047707
v 0.61870954 0.05596203 0.85371462
v 0.61983733 0.05688693 0.85373820
v 0.62266124 0.06115106 0.85919158
v 0.62170395 0.06080324 0.86015521
v 0.62170395 0.06080324 0.86015521
v 0.62266124 0.06115106 0.85919158
v 0.62199869 0.06195206 0.85845994
v 0.62080874 0.06231636 0.85858823
v 0.61299322 0.05757118 0.85237944
v 0.61415223 0.05766001 0.85425622
v 0.61206033 0.06282336 0.85832998
v 0.61098076 0.06337932 0.85758905
v 0.61542369 0.05933295 0.84803391
v 0.61329068 0.06005024 0.84994903
v 0.61388637 0.06804642 0.84897674
v 0.61461141 0.06845396 0.84788532
v 0.61461141 0.06845396 0.84788532
v 0.61388637 0.06804642 0.84897674
v 0.61455612 0.06746325 0.84998984
v 0.61561292 0.06727629 0.85004403
v 0.62413496 0.06448873 0.85047707
v 0.62325916 0.06488501 0.84975890
v 0.62226578 0.06505292 0.85061750
v 0.62246013 0.06465898 0.85160803
v 0.61098076 0.06337932 0.85758905
v 0.61206033 0.06282336 0.85832998
v 0.61290336 0.06360343 0.85800683
v 0.61297874 0.06453192 0.85733964
v 0.61597076 0.05776264 0.85138460
v 0.61297874 0.06453192 0.85733964
v 0.61290336 0.06360343 0.85800683
v 0.61587701 0.05813617 0.85299161
v 0.61627660 0.05819567 0.85027672
v 0.61561292 0.06727629 0.85004403
v 0.61455612 0.06746325 0.84998984
v 0.61474134 0.05940037 0.85105088
v 0.61742009 0.05785127 0.85079001
v 0.62246013 0.06465898 0.85160803
v 0.62226578 0.06505292 0.85061750
v 0.61764413 0.05942788 0.84964971
v 0.61697587 0.05741138 0.85164733
v 0.62080874 0.06231636 0.85858823
v 0.62199869 0.06195206 0.85845994
v 0.61810183 0.05794947 0.85259592
v 0.61415223 0.05766001 0.85425622
v 0.61780625 0.05704727 0.85500376
v 0.61725166 0.05805378 0.85327107
v 0.61587701 0.05813617 0.85299161
v 0.61329068 0.06005024 0.84994903
v 0.61311838 0.05955470 0.85072846
v 0.61518283 0.05865219 0.85170321
v 0.61474134 0.05940037 0.85105088
v 0.61900210 0.05989075 0.84833164
v 0.61753529 0.06018963 0.84815793
v 0.61721321 0.05950383 0.84961330
v 0.61764413 0.05942788 0.84964971
v 0.61983733 0.05688693 0.85373820
v 0.62015599 0.05732126 0.85020976
v 0.61838902 0.05837773 0.85104422
v 0.61810183 0.05794947 0.85259592
v 0.62418736 0.06385410 0.85159976
v 0.62304343 0.06418923 0.85215978
v 0.61838902 0.05837773 0.85104422
v 0.62015599 0.05732126 0.85020976
v 0.62325916 0.06488501 0.84975890
v 0.61900210 0.05989075 0.84833164
v 0.61764413 0.05942788 0.84964971
v 0.62226578 0.06505292 0.85061750
v 0.62266124 0.06115106 0.85919158
v 0.61983733 0.05688693 0.85373820
v 0.61810183 0.05794947 0.85259592
v 0.62199869 0.06195206 0.85845994
v 0.62032448 0.06116899 0.86037985
v 0.62004096 0.06196707 0.85945549
v 0.61725166 0.05805378 0.85327107
v 0.61780625 0.05704727 0.85500376
v 0.61206033 0.06282336 0.85832998
v 0.61415223 0.05766001 0.85425622
v 0.61587701 0.05813617 0.85299161
v 0.61290336 0.06360343 0.85800683
v 0.61096656 0.06456435 0.85672708
v 0.61208445 0.06490675 0.85681274
v 0.61518283 0.05865219 0.85170321
v 0.61311838 0.05955470 0.85072846
v 0.61388637 0.06804642 0.84897674
v 0.61329068 0.06005024 0.84994903
v 0.61474134 0.05940037 0.85105088
v 0.61455612 0.06746325 0.84998984
v 0.61582547 0.06828647 0.84784799
v 0.61618070 0.06766436 0.84904417
v 0.61721321 0.05950383 0.84961330
v 0.61753529 0.06018963 0.84815793
v 0.61725166 0.05805378 0.85327107
v 0.61697587 0.05741138 0.85164733
v 0.61675053 0.05824005 0.85123591
v 0.61518283 0.05865219 0.85170321
v 0.61597076 0.05776264 0.85138460
v 0.61675053 0.05824005 0.85123591
v 0.61721321 0.05950383 0.84961330
v 0.61627660 0.05819567 0.85027672
v 0.61675053 0.05824005 0.85123591
v 0.61810183 0.05794947 0.85259592
v 0.61838902 0.05837773 0.85104422
v 0.61675053 0.05824005 0.85123591
v 0.61474134 0.05940037 0.85105088
v 0.61518283 0.05865219 0.85170321
v 0.61675053 0.05824005 0.85123591
v 0.61587701 0.05813617 0.85299161
v 0.61725166 0.05805378 0.85327107
v 0.61675053 0.05824005 0.85123591
v 0.61764413 0.05942788 0.84964971
v 0.61721321 0.05950383 0.84961330
v 0.61675053 0.05824005 0.85123591
v 0.61838902 0.05837773 0.85104422
v 0.61742009 0.05785127 0.85079001
v 0.61675053 0.05824005 0.85123591
v 0.61725166 0.05805378 0.85327107
v 0.62004096 0.06196707 0.85945549
v 0.62080874 0.06231636 0.85858823
v 0.61697587 0.05741138 0.85164733
v 0.62032448 0.06116899 0.86037985
v 0.62004096 0.06196707 0.85945549
v 0.61780625 0.05704727 0.85500376
v 0.61870954 0.05596203 0.85371462
v 0.62170395 0.06080324 0.86015521
v 0.62032448 0.06116899 0.86037985
v 0.61690775 0.05341604 0.85165692
v 0.61814884 0.05341692 0.85139206
v 0.61870954 0.05596203 0.85371462
v 0.61780625 0.05704727 0.85500376
v 0.61838902 0.05837773 0.85104422
v 0.62304343 0.06418923 0.85215978
v 0.62246013 0.06465898 0.85160803
v 0.61742009 0.05785127 0.85079001
v 0.62418736 0.06385410 0.85159976
v 0.62413496 0.06448873 0.85047707
v 0.62246013 0.06465898 0.85160803
v 0.62304343 0.06418923 0.85215978
v 0.62015599 0.05732126 0.85020976
v 0.62009675 0.05796349 0.84907350
v 0.62413496 0.06448873 0.85047707
v 0.62418736 0.06385410 0.85159976
v 0.61983849 0.05483190 0.84866868
v 0.61971943 0.05553581 0.84760387
v 0.62009675 0.05796349 0.84907350
v 0.62015599 0.05732126 0.85020976
v 0.61518283 0.05865219 0.85170321
v 0.61208445 0.06490675 0.85681274
v 0.61297874 0.06453192 0.85733964
v 0.61597076 0.05776264 0.85138460
v 0.61096656 0.06456435 0.85672708
v 0.61098076 0.06337932 0.85758905
v 0.61297874 0.06453192 0.85733964
v 0.61208445 0.06490675 0.85681274
v 0.61311838 0.05955470 0.85072846
v 0.61299322 0.05757118 0.85237944
v 0.61098076 0.06337932 0.85758905
v 0.61096656 0.06456435 0.85672708
v 0.61341911 0.05577825 0.84893956
v 0.61367498 0.05466358 0.85010435
v 0.61299322 0.05757118 0.85237944
v 0.61311838 0.05955470 0.85072846
v 0.61721321 0.05950383 0.84961330
v 0.61618070 0.06766436 0.84904417
v 0.61561292 0.06727629 0.85004403
v 0.61627660 0.05819567 0.85027672
v 0.61582547 0.06828647 0.84784799
v 0.61618070 0.06766436 0.84904417
v 0.61753529 0.06018963 0.84815793
v 0.61542369 0.05933295 0.84803391
v 0.61461141 0.06845396 0.84788532
v 0.61582547 0.06828647 0.84784799
v 0.61691278 0.05702249 0.84636128
v 0.61547024 0.05657848 0.84656651
v 0.61542369 0.05933295 0.84803391
v 0.61753529 0.06018963 0.84815793
v 0.61675053 0.05824005 0.85123591
v 0.61627660 0.05819567 0.85027672
v 0.61474134 0.05940037 0.85105088
v 0.61675053 0.05824005 0.85123591
v 0.61697587 0.05741138 0.85164733
v 0.61810183 0.05794947 0.85259592
v 0.61675053 0.05824005 0.85123591
v 0.61742009 0.05785127 0.85079001
v 0.61764413 0.05942788 0.84964971
v 0.61675053 0.05824005 0.85123591
v 0.61597076 0.05776264 0.85138460
v 0.61587701 0.05813617 0.85299161
v 0.61688024 0.05412010 0.84342906
v 0.61944398 0.05366866 0.84441196
v 0.61698261 0.05156815 0.84600864
v 0.62030040 0.05299785 0.84526162
v 0.62054685 0.05198218 0.84633084
v 0.61702000 0.04900051 0.84859048
v 0.61445626 0.04945195 0.84760758
v 0.61954280 0.05004857 0.84806164
v 0.61836069 0.04945467 0.84841251
v 0.61561885 0.05359608 0.84369348
v 0.61335340 0.05113843 0.84568870
v 0.61435744 0.05307205 0.84395790
v 0.61391040 0.05028667 0.84665783
v 0.61335340 0.05113843 0.84568870
v 0.61341911 0.05577825 0.84893956
v 0.61401996 0.05670362 0.84750914
v 0.61435744 0.05307205 0.84395790
v 0.61702000 0.04900051 0.84859048
v 0.61690775 0.05341604 0.85165692
v 0.61434088 0.05410153 0.85096279
v 0.61445626 0.04945195 0.84760758
v 0.61944398 0.05366866 0.84441196
v 0.61882497 0.05654789 0.84686534
v 0.61971943 0.05553581 0.84760387
v 0.62030040 0.05299785 0.84526162
v 0.62054685 0.05198218 0.84633084
v 0.61983849 0.05483190 0.84866868
v 0.61901918 0.05367871 0.85077357
v 0.61954280 0.05004857 0.84806164
v 0.61688024 0.05412010 0.84342906
v 0.61691278 0.05702249 0.84636128
v 0.61882497 0.05654789 0.84686534
v 0.61944398 0.05366866 0.84441196
f 2 4 1
f 4 2 3
f 6 8 5
f 8 6 7
f 10 12 9
f 12 10 11
f 14 16 13
f 16 14 15
f 18 20 17
f 20 18 19
f 22 24 21
f 24 22 23
f 26 28 25
f 28 26 27
f 30 32 29
f 32 30 31
f 34 36 33
f 36 34 35
f 38 40 37
f 40 38 39
f 42 44 41
f 44 42 43
f 46 48 45
f 48 46 47
f 50 52 49
f 52 50 51
f 54 56 53
f 56 54 55
f 58 60 57
f 60 58 59
f 62 64 61
f 64 62 63
f 66 68 65
f 68 66 67
f 70 72 69
f 72 70 71
f 75 76 73
f 73 74 75
f 79 80 77
f 77 78 79
f 83 84 81
f 81 82 83
f 87 88 85
f 85 86 87
f 91 92 89
f 89 90 91
f 95 96 93
f 93 94 95
f 99 100 97
f 97 98 99
f 103 104 101
f 101 102 103
f 107 108 105
f 105 106 107
f 111 112 109
f 109 110 111
f 115 116 113
f 113 114 115
f 119 120 117
f 117 118 119
f 123 124 121
f 121 122 123
f 127 128 125
f 125 126 127
f 131 132 129
f 129 130 131
f 135 136 133
f 133 134 135
f 139 140 137
f 137 138 139
f 143 144 141
f 141 142 143
f 147 148 145
f 145 146 147
f 151 152 149
f 149 150 151
f 155 156 153
f 153 154 155
f 159 160 157
f 157 158 159
f 163 164 161
f 161 162 163
f 167 168 165
f 165 166 167
f 171 172 169
f 169 170 171
f 175 176 173
f 173 174 175
f 179 180 177
f 177 178 179
f 182 184 181
f 184 182 183
f 186 188 185
f 188 186 187
f 190 192 189
f 192 190 191
f 194 196 193
f 196 194 195
f 198 200 197
f 200 198 199
f 202 204 201
f 204 202 203
f 206 208 205
f 208 206 207
f 210 212 209
f 212 210 211
f 214 216 213
f 216 214 215
f 218 220 217
f 220 218 219
f 222 224 221
f 224 222 223
f 226 228 225
f 228 226 227
f 230 232 229
f 232 230 231
f 234 236 233
f 236 234 235
f 238 240 237
f 240 238 239
f 242 244 241
f 244 242 243
f 246 248 245
f 248 246 247
f 250 252 249
f 252 250 251
f 254 256 253
f 256 254 255
f 258 260 257
f 260 258 259
f 262 264 261
f 264 262 263
f 266 268 265
f 268 266 267
f 270 272 269
f 272 270 271
f 274 276 273
f 276 274 275
f 278 280 277
f 280 278 279
f 282 284 281
f 284 282 283
f 287 288 285
f 285 286 287
f 291 292 289
f 289 290 291
f 295 296 293
f 293 294 295
f 299 300 297
f 297 298 299
f 303 304 301
f 301 302 303
f 307 308 305
f 305 306 307
f 311 312 309
f 309 310 311
f 315 316 313
f 313 314 315
f 319 320 317
f 317 318 319
f 323 324 321
f 321 322 323
f 327 328 325
f 325 326 327
f 331 332 329
f 329 330 331
f 334 336 333
f 336 334 335
f 339 340 337
f 337 338 339
f 343 344 341
f 341 342 343
f 347 348 345
f 345 346 347
f 351 352 349
f 349 350 351
f 355 356 353
f 353 354 355
f 359 360 357
f 357 358 359
f 363 364 361
f 361 362 363
f 367 368 365
f 365 366 367
f 370 372 369
f 372 370 371
f 375 376 373
f 373 374 375
f 379 380 377
f 377 378 379
f 382 384 381
f 384 382 383
f 387 388 385
f 385 386 387
f 391 392 389
f 389 390 391
f 394 396 393
f 396 394 395
f 399 400 397
f 397 398 399
f 402 404 401
f 404 402 403
f 406 408 405
f 408 406 407
f 411 412 409
f 409 410 411
f 414 416 413
f 416 414 415
f 418 420 417
f 420 418 419
f 423 424 421
f 421 422 423
f 426 428 425
f 428 426 427
f 430 432 429
f 432 430 431
f 434 436 433
f 436 434 435
f 438 440 437
f 440 438 439
f 442 444 441
f 444 442 443
f 446 448 445
f 448 446 447
f 450 452 449
f 452 450 451
f 454 456 453
f 456 454 455
f 458 460 457
f 460 458 459
f 462 464 461
f 464 462 463
f 466 468 465
f 468 466 467
f 470 472 469
f 472 470 471
f 474 476 473
f 476 474 475
f 478 480 477
f 480 478 479
f 482 484 481
f 484 482 483
f 486 488 485
f 488 486 487
f 490 492 489
f 492 490 491
f 494 496 493
f 496 494 495
f 498 500 497
f 500 498 499
f 503 504 501
f 501 502 503
f 507 508 505
f 505 506 507
f 511 512 509
f 509 510 511
f 515 516 513
f 513 514 515
f 519 520 517
f 517 518 519
f 523 524 521
f 521 522 523
f 527 528 525
f 525 526 527
f 531 532 529
f 529 530 531
f 535 536 533
f 533 534 535
f 539 540 537
f 537 538 539
f 543 544 541
f 541 542 543
f 547 548 545
f 545 546 547
f 550 552 549
f 552 550 551
f 555 556 553
f 553 554 555
f 559 560 557
f 557 558 559
f 563 564 561
f 561 562 563
f 567 568 565
f 565 566 567
f 571 572 569
f 569 570 571
f 575 576 573
f 573 574 575
f 579 580 577
f 577 578 579
f 583 584 581
f 581 582 583
f 586 588 585
f 588 586 587
f 591 592 589
f 589 590 591
f 595 596 593
f 593 594 595
f 598 600 597
f 600 598 599
f 603 604 601
f 601 602 603
f 607 608 605
f 605 606 607
f 610 612 609
f 612 610 611
f 615 616 613
f 613 614 615
f 618 620 617
f 620 618 619
f 622 624 621
f 624 622 623
f 627 628 625
f 625 626 627
f 630 632 629
f 632 630 631
f 634 636 633
f 636 634 635
f 639 640 637
f 637 638 639
f 642 644 641
f 644 642 643
f 646 648 645
f 648 646 647
f 650 652 649
f 652 650 651
f 654 656 653
f 656 654 655
f 658 660 657
f 660 658 659
f 662 664 661
f 664 662 663
f 666 668 665
f 668 666 667
f 670 672 669
f 672 670 671
f 674 676 673
f 676 674 675
f 678 680 677
f 680 678 679
f 682 684 681
f 684 682 683
f 686 688 685
f 688 686 687
f 690 692 689
f 692 690 691
f 694 696 693
f 696 694 695
f 698 700 697
f 700 698 699
f 702 704 701
f 704 702 703
f 706 708 705
f 708 706 707
f 710 712 709
f 712 710 711
f 714 716 713
f 716 714 715
f 719 720 717
f 717 718 719
f 723 724 721
f 721 722 723
f 727 728 725
f 725 726 727
f 731 732 729
f 729 730 731
f 735 736 733
f 733 734 735
f 739 740 737
f 737 738 739
f 743 744 741
f 741 742 743
f 747 748 745
f 745 746 747
f 751 752 749
f 749 750 751
f 755 756 753
f 753 754 755
f 759 760 757
f 757 758 759
f 763 764 761
f 761 762 763
f 766 768 765
f 768 766 767
f 771 772 769
f 769 770 771
f 775 776 773
f 773 774 775
f 779 780 777
f 777 778 779
f 783 784 781
f 781 782 783
f 787 788 785
f 785 786 787
f 791 792 789
f 789 790 791
f 795 796 793
f 793 794 795
f 799 800 797
f 797 798 799
f 802 804 801
f 804 802 803
f 807 808 805
f 805 806 807
f 811 812 809
f 809 810 811
f 814 816 813
f 816 814 815
f 819 820 817
f 817 818 819
f 823 824 821
f 821 822 823
f 826 828 825
f 828 826 827
f 831 832 829
f 829 830 831
f 834 836 833
f 836 834 835
f 838 840 837
f 840 838 839
f 843 844 841
f 841 842 843
f 846 848 845
f 848 846 847
f 850 852 849
f 852 850 851
f 855 856 853
f 853 854 855
f 858 860 857
f 860 858 859
f 862 864 861
f 864 862 863
f 866 868 865
f 868 866 867
f 870 872 869
f 872 870 871
f 874 876 873
f 876 874 875
f 878 880 877
f 880 878 879
f 882 884 881
f 884 882 883
f 886 888 885
f 888 886 887
f 890 892 889
f 892 890 891
f 894 896 893
f 896 894 895
f 898 900 897
f 900 898 899
f 902 904 901
f 904 902 903
f 906 908 905
f 908 906 907
f 910 912 909
f 912 910 911
f 914 916 913
f 916 914 915
f 918 920 917
f 920 918 919
f 922 924 921
f 924 922 923
f 926 928 925
f 928 926 927
f 930 932 929
f 932 930 931
f 935 936 933
f 933 934 935
f 939 940 937
f 937 938 939
f 943 944 941
f 941 942 943
f 947 948 945
f 945 946 947
f 951 952 949
f 949 950 951
f 955 956 953
f 953 954 955
f 959 960 957
f 957 958 959
f 963 964 961
f 961 962 963
f 967 968 965
f 965 966 967
f 971 972 969
f 969 970 971
f 975 976 973
f 973 974 975
f 979 980 977
f 977 978 979
f 982 984 981
f 984 982 983
f 987 988 985
f 985 986 987
f 991 992 989
f 989 990 991
f 995 996 993
f 993 994 995
f 999 1000 997
f 997 998 999
f 1003 1004 1001
f 1001 1002 1003
f 1007 1008 1005
f 1005 1006 1007
f 1011 1012 1009
f 1009 1010 1011
f 1015 1016 1013
f 1013 1014 1015
f 1018 1020 1017
f 1020 1018 1019
f 1023 1024 1021
f 1021 1022 1023
f 1027 1028 1025
f 1025 1026 1027
f 1030 1032 1029
f 1032 1030 1031
f 1035 1036 1033
f 1033 1034 1035
f 1039 1040 1037
f 1037 1038 1039
f 1042 1044 1041
f 1044 1042 1043
f 1047 1048 1045
f 1045 1046 1047
f 1050 1052 1049
f 1052 1050 1051
f 1054 1056 1053
f 1056 1054 1055
f 1059 1060 1057
f 1057 1058 1059
f 1062 1064 1061
f 1064 1062 1063
f 1066 1068 1065
f 1068 1066 1067
f 1071 1072 1069
f 1069 1070 1071
f 1074 1076 1073
f 1076 1074 1075
f 1078 1080 1077
f 1080 1078 1079
f 1082 1084 1081
f 1084 1082 1083
f 1086 1088 1085
f 1088 1086 1087
f 1090 1092 1089
f 1092 1090 1091
f 1094 1096 1093
f 1096 1094 1095
f 1098 1100 1097
f 1100 1098 1099
f 1102 1104 1101
f 1104 1102 1103
f 1106 1108 1105
f 1108 1106 1107
f 1110 1112 1109
f 1112 1110 1111
f 1114 1116 1113
f 1116 1114 1115
f 1118 1120 1117
f 1120 1118 1119
f 1122 1124 1121
f 1124 1122 1123
f 1126 1128 1125
f 1128 1126 1127
f 1130 1132 1129
f 1132 1130 1131
f 1134 1136 1133
f 1136 1134 1135
f 1138 1140 1137
f 1140 1138 1139
f 1142 1144 1141
f 1144 1142 1143
f 1146 1148 1145
f 1148 1146 1147
f 1151 1152 1149
f 1149 1150 1151
f 1155 1156 1153
f 1153 1154 1155
f 1159 1160 1157
f 1157 1158 1159
f 1163 1164 1161
f 1161 1162 1163
f 1167 1168 1165
f 1165 1166 1167
f 1171 1172 1169
f 1169 1170 1171
f 1175 1176 1173
f 1173 1174 1175
f 1179 1180 1177
f 1177 1178 1179
f 1183 1184 1181
f 1181 1182 1183
f 1187 1188 1185
f 1185 1186 1187
f 1191 1192 1189
f 1189 1190 1191
f 1195 1196 1193
f 1193 1194 1195
f 1198 1200 1197
f 1200 1198 1199
f 1203 1204 1201
f 1201 1202 1203
f 1207 1208 1205
f 1205 1206 1207
f 1211 1212 1209
f 1209 1210 1211
f 1215 1216 1213
f 1213 1214 1215
f 1219 1220 1217
f 1217 1218 1219
f 1223 1224 1221
f 1221 1222 1223
f 1227 1228 1225
f 1225 1226 1227
f 1231 1232 1229
f 1229 1230 1231
f 1234 1236 1233
f 1236 1234 1235
f 1239 1240 1237
f 1237 1238 1239
f 1243 1244 1241
f 1241 1242 1243
f 1246 1248 1245
f 1248 1246 1247
f 1251 1252 1249
f 1249 1250 1251
f 1255 1256 1253
f 1253 1254 1255
f 1258 1260 1257
f 1260 1258 1259
f 1263 1264 1261
f 1261 1262 1263
f 1266 1268 1265
f 1268 1266 1267
f 1270 1272 1269
f 1272 1270 1271
f 1275 1276 1273
f 1273 1274 1275
f 1278 1280 1277
f 1280 1278 1279
f 1282 1284 1281
f 1284 1282 1283
f 1287 1288 1285
f 1285 1286 1287
f 1290 1292 1289
f 1292 1290 1291
f 1294 1296 1293
f 1296 1294 1295
f 1298 1300 1297
f 1300 1298 1299
f 1302 1304 1301
f 1304 1302 1303
f 1306 1308 1305
f 1308 1306 1307
f 1310 1312 1309
f 1312 1310 1311
f 1314 1316 1313
f 1316 1314 1315
f 1318 1320 1317
f 1320 1318 1319
f 1322 1324 1321
f 1324 1322 1323
f 1326 1328 1325
f 1328 1326 1327
f 1330 1332 1329
f 1332 1330 1331
f 1334 1336 1333
f 1336 1334 1335
f 1338 1340 1337
f 1340 1338 1339
f 1342 1344 1341
f 1344 1342 1343
f 1346 1348 1345
f 1348 1346 1347
f 1350 1352 1349
f 1352 1350 1351
f 1354 1356 1353
f 1356 1354 1355
f 1358 1360 1357
f 1360 1358 1359
f 1362 1364 1361
f 1364 1362 1363
f 1367 1368 1365
f 1365 1366 1367
f 1371 1372 1369
f 1369 1370 1371
f 1375 1376 1373
f 1373 1374 1375
f 1379 1380 1377
f 1377 1378 1379
f 1383 1384 1381
f 1381 1382 1383
f 1387 1388 1385
f 1385 1386 1387
f 1391 1392 1389
f 1389 1390 1391
f 1395 1396 1393
f 1393 1394 1395
f 1399 1400 1397
f 1397 1398 1399
f 1403 1404 1401
f 1401 1402 1403
f 1407 1408 1405
f 1405 1406 1407
f 1411 1412 1409
f 1409 1410 1411
f 1414 1416 1413
f 1416 1414 1415
f 1419 1420 1417
f 1417 1418 1419
f 1423 1424 1421
f 1421 1422 1423
f 1427 1428 1425
f 1425 1426 1427
f 1431 1432 1429
f 1429 1430 1431
f 1435 1436 1433
f 1433 1434 1435
f 1439 1440 1437
f 1437 1438 1439
f 1443 1444 1441
f 1441 1442 1443
f 1447 1448 1445
f 1445 1446 1447
f 1450 1452 1449
f 1452 1450 1451
f 1455 1456 1453
f 1453 1454 1455
f 1459 1460 1457
f 1457 1458 1459
f 1462 1464 1461
f 1464 1462 1463
f 1467 1468 1465
f 1465 1466 1467
f 1471 1472 1469
f 1469 1470 1471
f 1474 1476 1473
f 1476 1474 1475
f 1479 1480 1477
f 1477 1478 1479
f 1482 1484 1481
f 1484 1482 1483
f 1486 1488 1485
f 1488 1486 1487
f 1491 1492 1489
f 1489 1490 1491
f 1494 1496 1493
f 1496 1494 1495
f 1498 1500 1497
f 1500 1498 1499
f 1503 1504 1501
f 1501 1502 1503
f 1506 1508 1505
f 1508 1506 1507
f 1510 1512 1509
f 1512 1510 1511
f 1514 1516 1513
f 1516 1514 1515
f 1519 1520 1517
f 1517 1518 1519
f 1523 1524 1521
f 1521 1522 1523
f 1526 1528 1525
f 1528 1526 1527
f 1531 1532 1529
f 1529 1530 1531
f 1535 1536 1533
f 1533 1534 1535
f 1538 1540 1537
f 1540 1538 1539
f 1542 1544 1541
f 1544 1542 1543
f 1546 1548 1545
f 1548 1546 1547
f 1551 1552 1549
f 1549 1550 1551
f 1555 1556 1553
f 1553 1554 1555
f 1558 1560 1557
f 1560 1558 1559
f 1563 1564 1561
f 1561 1562 1563
f 1567 1568 1565
f 1565 1566 1567
f 1570 1572 1569
f 1572 1570 1571
f 1574 1576 1573
f 1576 1574 1575
f 1579 1580 1577
f 1577 1578 1579
f 1582 1584 1581
f 1584 1582 1583
f 1587 1588 1585
f 1585 1586 1587
f 1590 1592 1589
f 1592 1590 1591
f 1594 1596 1593
f 1596 1594 1595
f 1598 1600 1597
f 1600 1598 1599
f 1602 1604 1601
f 1604 1602 1603
f 1606 1608 1605
f 1608 1606 1607
f 1611 1612 1609
f 1609 1610 1611
f 1615 1616 1613
f 1613 1614 1615
f 1618 1620 1617
f 1620 1618 1619
f 1622 1624 1621
f 1624 1622 1623
f 1626 1628 1625
f 1628 1626 1627
f 1630 1632 1629
f 1632 1630 1631
f 1634 1636 1633
f 1636 1634 1635
f 1639 1640 1637
f 1637 1638 1639
f 1642 1644 1641
f 1644 1642 1643
f 1646 1648 1645
f 1648 1646 1647
f 1651 1652 1649
f 1649 1650 1651
f 1655 1656 1653
f 1653 1654 1655
f 1658 1660 1657
f 1660 1658 1659
f 1663 1664 1661
f 1661 1662 1663
f 1667 1668 1665
f 1665 1666 1667
f 1669 1670 1671
f 1672 1673 1674
f 1675 1676 1677
f 1678 1679 1680
f 1681 1682 1683
f 1684 1685 1686
f 1687 1688 1689
f 1690 1691 1692
f 1694 1696 1693
f 1696 1694 1695
f 1581 1698 1697
f 1698 1581 1584
f 1701 1702 1699
f 1699 1700 1701
f 1705 1706 1703
f 1703 1704 1705
f 1709 1710 1707
f 1707 1708 1709
f 1712 1714 1711
f 1714 1712 1713
f 1716 1718 1715
f 1718 1716 1717
f 1720 1722 1719
f 1722 1720 1721
f 1724 1726 1723
f 1726 1724 1725
f 1728 1730 1727
f 1730 1728 1729
f 1732 1734 1731
f 1734 1732 1733
f 1736 1738 1735
f 1738 1736 1737
f 1741 1742 1739
f 1739 1740 1741
f 1593 1744 1743
f 1744 1593 1596
f 1746 1748 1745
f 1748 1746 1747
f 1750 1752 1749
f 1752 1750 1751
f 1753 1754 1755
f 1756 1757 1758
f 1759 1760 1761
f 1762 1763 1764
f 1765 1766 1767
f 1768 1769 1767
f 1770 1771 1767
f 1772 1773 1767
f 1774 1765 1767
f 1773 1770 1767
f 1775 1776 1767
f 1771 1777 1767
f 1769 1772 1767
f 1766 1768 1767
f 1777 1775 1767
f 1776 1774 1767
f 1779 1781 1778
f 1781 1779 1780
f 1784 1785 1782
f 1782 1783 1784
f 1787 1789 1786
f 1789 1787 1788
f 1792 1793 1790
f 1790 1791 1792
f 1795 1797 1794
f 1797 1795 1796
