# https://github.com/mikedh/trimesh
v 0.07092399 -0.00905869 0.01844202
v 0.07092372 -0.00232564 0.01933063
v 0.07094055 -0.00197139 -0.03916603
v 0.07094049 -0.00485446 -0.03901562
v 0.07092391 0.00443085 0.01864254
v 0.07094048 0.00193622 -0.03891469
v 0.07093924 -0.01759906 -0.03459035
v 0.07092469 -0.01540533 0.01602462
v 0.07092454 0.01084653 0.01641483
v 0.07093907 0.01454367 -0.03411257
v 0.07094000 0.00852059 -0.03725043
v 0.07094009 -0.01148538 -0.03754780
v 0.07092579 -0.02102339 0.01220874
v 0.07093780 0.01968075 -0.02967028
v 0.07093622 0.02365490 -0.02416304
v 0.07093802 -0.02286591 -0.03030271
v 0.07092699 0.02130900 0.00789753
v 0.07092559 0.01657553 0.01276763
v 0.07092723 -0.02561003 0.00720011
v 0.07093648 -0.02700199 -0.02491602
v 0.07093468 -0.02978433 -0.01872067
v 0.07092894 -0.02891795 0.00126874
v 0.07093440 0.02625187 -0.01788774
v 0.07093248 0.02733165 -0.01118269
v 0.07093082 -0.03076885 -0.00526562
v 0.07093277 -0.03106292 -0.01205068
v 0.07093053 0.02683605 -0.00440937
v 0.07092867 0.02479176 0.00206709
v 0.09791683 -0.00821267 -0.03847482
v 0.09791681 -0.01148538 -0.03754780
v 0.09791682 -0.01462835 -0.03624711
v 0.09791683 -0.01759906 -0.03459035
v 0.09791682 -0.02035735 -0.03259990
v 0.09791682 -0.02286591 -0.03030270
v 0.09791682 -0.02509082 -0.02772981
v 0.09791683 -0.02700199 -0.02491602
v 0.09791683 -0.02857358 -0.02189937
v 0.09791683 -0.02978433 -0.01872068
v 0.09791683 -0.03061786 -0.01542292
v 0.09791683 -0.03106292 -0.01205069
v 0.09791683 -0.03111347 -0.00864959
v 0.09791683 -0.03076885 -0.00526562
v 0.09791683 -0.03003369 -0.00194454
v 0.09791683 -0.02891795 0.00126874
v 0.09791681 -0.02743672 0.00433076
v 0.09791682 -0.02561003 0.00720011
v 0.09791682 -0.02346257 0.00983800
v 0.09791681 -0.02102339 0.01220875
v 0.09791683 -0.01832549 0.01428029
v 0.09791683 -0.01540533 0.01602462
v 0.09791683 -0.01230241 0.01741814
v 0.09791683 -0.00905869 0.01844202
v 0.09791683 -0.00571804 0.01908240
v 0.09791683 -0.00232564 0.01933063
v 0.09791681 0.00107264 0.01918335
v 0.09791681 0.00443085 0.01864254
v 0.09791683 0.00770356 0.01771552
v 0.09791683 0.01084653 0.01641483
v 0.09791682 0.01381724 0.01475807
v 0.09791682 0.01657553 0.01276763
v 0.09791683 0.01908409 0.01047042
v 0.09791682 0.02130900 0.00789753
v 0.09791683 0.02322017 0.00508373
v 0.09791681 0.02479175 0.00206709
v 0.09791682 0.02600251 -0.00111160
v 0.09791681 0.02683605 -0.00440936
v 0.09791681 0.02728110 -0.00778159
v 0.09791681 0.02733165 -0.01118269
v 0.09791683 0.02698703 -0.01456667
v 0.09791682 0.02625187 -0.01788774
v 0.09791682 0.02513613 -0.02110101
v 0.09791683 0.02365490 -0.02416304
v 0.09791682 0.02182820 -0.02703239
v 0.09791682 0.01968075 -0.02967028
v 0.09791683 0.01724158 -0.03204103
v 0.09791681 0.01454366 -0.03411257
v 0.09791681 0.01162350 -0.03585690
v 0.09791681 0.00852059 -0.03725042
v 0.09791681 0.00527687 -0.03827430
v 0.09791681 0.00193622 -0.03891468
v 0.09791681 -0.00145618 -0.03916291
v 0.09791683 -0.00485446 -0.03901562
v 0.09891682 -0.00159066 -0.02991393
v 0.09891682 -0.00723673 -0.02918763
v 0.09891681 -0.01244947 -0.02690006
v 0.09891682 -0.01680657 -0.02323656
v 0.09891681 -0.01995506 -0.01849391
v 0.09891681 -0.02163985 -0.01305634
v 0.09891684 -0.02172445 -0.00736439
v 0.09891681 -0.02020202 -0.00187914
v 0.09891683 -0.01719589 0.00295498
v 0.09891683 -0.01294959 0.00674636
v 0.09891682 -0.00780715 0.00918786
v 0.09891683 -0.00218516 0.01008165
v 0.09891683 0.00346091 0.00935534
v 0.09891684 0.00867365 0.00706777
v 0.09891683 0.01303076 0.00340427
v 0.09891683 0.01617924 -0.00133837
v 0.09891681 0.01786403 -0.00677593
v 0.09891681 0.01794864 -0.01246789
v 0.09891684 0.01642621 -0.01795314
v 0.09891682 0.01342007 -0.02278726
v 0.09891682 0.00917378 -0.02657864
v 0.09891683 0.00403133 -0.02902014
v 0.09891681 0.00097132 0.01818849
v 0.09891682 -0.01972602 -0.03182439
v 0.09891681 -0.01419288 -0.03534691
v 0.09891682 -0.00799654 -0.03749845
v 0.09891681 -0.00147104 -0.03816301
v 0.09891682 0.00503182 -0.03730479
v 0.09891681 -0.00231078 0.01833074
v 0.09891681 -0.00558721 0.01809100
v 0.09891683 -0.01194646 0.01648364
v 0.09891681 -0.01776362 0.01345306
v 0.09891682 -0.02272508 0.00916264
v 0.09891681 0.02504889 -0.00141261
v 0.09891681 0.02236167 0.00457092
v 0.09891682 0.01836700 0.00977345
v 0.09891681 0.01328021 0.01391451
v 0.09891682 0.00737554 0.01677085
v 0.09891682 0.01116147 -0.03497004
v 0.09891684 0.01658747 -0.03128462
v 0.09891683 0.02101730 -0.02644723
v 0.09891682 0.02421213 -0.02071863
v 0.09891681 0.02599975 -0.01440767
v 0.09891681 0.02628377 -0.00785457
v 0.09891681 -0.02656336 0.00384369
v 0.09891681 -0.02907154 -0.00221707
v 0.09891683 -0.03011441 -0.00869289
v 0.09891684 -0.02963574 -0.01523465
v 0.09891681 -0.02766135 -0.02148969
v 0.09891682 -0.02429766 -0.02712079
f 29 12 4
f 4 82 29
f 109 29 82
f 109 82 81
f 109 81 80
f 109 80 110
f 80 79 110
f 110 79 78
f 110 78 121
f 110 121 103
f 103 121 122
f 121 76 122
f 76 75 122
f 122 75 74
f 122 74 123
f 123 74 73
f 73 74 14
f 15 73 14
f 15 72 73
f 71 72 15
f 23 71 15
f 23 70 71
f 69 70 23
f 125 70 69
f 125 69 126
f 126 69 68
f 24 68 69
f 67 68 24
f 27 67 24
f 27 66 67
f 65 66 27
f 28 65 27
f 28 64 65
f 65 64 117
f 117 64 63
f 117 63 118
f 97 117 118
f 98 117 97
f 98 116 117
f 99 116 98
f 99 126 116
f 126 66 116
f 97 118 96
f 96 118 119
f 118 60 119
f 119 60 59
f 119 59 120
f 120 59 58
f 58 57 120
f 57 58 9
f 5 57 9
f 5 56 57
f 55 56 5
f 2 55 5
f 2 54 55
f 111 55 54
f 111 54 112
f 54 53 112
f 112 53 52
f 1 52 53
f 1 53 2
f 51 52 1
f 8 51 1
f 8 50 51
f 49 50 8
f 13 49 8
f 13 48 49
f 114 49 48
f 114 48 115
f 48 47 115
f 115 47 46
f 115 46 127
f 46 45 127
f 45 46 19
f 22 45 19
f 22 44 45
f 43 44 22
f 25 43 22
f 25 42 43
f 128 43 42
f 128 42 129
f 89 128 129
f 89 129 88
f 88 129 130
f 88 130 87
f 87 130 131
f 130 39 131
f 131 39 38
f 38 37 131
f 131 37 36
f 20 36 37
f 20 37 21
f 35 36 20
f 16 35 20
f 16 34 35
f 33 34 16
f 34 33 106
f 106 33 32
f 106 32 107
f 32 31 107
f 31 32 7
f 12 31 7
f 12 30 31
f 107 31 30
f 107 30 108
f 84 107 108
f 84 108 83
f 83 108 109
f 83 109 104
f 85 107 84
f 108 30 29
f 85 106 107
f 86 106 85
f 86 132 106
f 132 35 106
f 86 131 132
f 7 32 33
f 7 33 16
f 106 35 34
f 132 36 35
f 131 36 132
f 37 38 21
f 21 38 39
f 21 39 26
f 39 40 26
f 26 40 41
f 129 41 40
f 26 41 25
f 130 40 39
f 87 131 86
f 129 40 130
f 90 128 89
f 90 127 128
f 127 44 128
f 42 41 129
f 41 42 25
f 44 43 128
f 127 45 44
f 115 127 90
f 91 115 90
f 19 46 47
f 19 47 13
f 91 114 115
f 92 114 91
f 92 113 114
f 113 51 114
f 93 113 92
f 93 112 113
f 94 112 93
f 47 48 13
f 50 49 114
f 114 51 50
f 113 52 51
f 112 52 113
f 94 111 112
f 105 111 94
f 105 94 95
f 95 120 105
f 120 56 105
f 105 55 111
f 53 54 2
f 105 56 55
f 120 57 56
f 9 58 59
f 9 59 18
f 95 119 120
f 59 60 18
f 18 60 61
f 18 61 17
f 61 62 17
f 62 61 118
f 17 62 63
f 17 63 28
f 118 61 60
f 96 119 95
f 118 63 62
f 116 65 117
f 63 64 28
f 116 66 65
f 126 67 66
f 68 67 126
f 99 125 126
f 100 125 99
f 100 124 125
f 101 124 100
f 101 123 124
f 102 123 101
f 124 70 125
f 24 69 23
f 124 71 70
f 72 71 124
f 124 73 72
f 123 73 124
f 102 122 123
f 14 74 75
f 14 75 10
f 75 76 10
f 10 76 77
f 10 77 11
f 77 78 11
f 121 77 76
f 103 122 102
f 104 110 103
f 78 77 121
f 11 78 79
f 11 79 6
f 6 79 80
f 6 80 3
f 104 109 110
f 3 80 81
f 3 81 4
f 108 29 109
f 4 81 82
f 29 30 12

