# https://github.com/mikedh/trimesh
v 0.00138527 0.03892899 -0.05338052
v 0.00156948 0.03892066 -0.05172688
v 0.00158123 0.03892010 -0.05162587
v 0.00103357 0.03894199 -0.05862648
v 0.00554493 0.03848504 -0.06762587
v 0.00239160 0.03887080 -0.06736202
v 0.00108470 0.03894070 -0.06729587
v 0.00103698 0.03894189 -0.06316123
v 0.00622588 0.03836051 -0.05162587
v 0.00622588 0.03836051 -0.06762587
v 0.01215040 0.03661855 -0.05162587
v 0.01215040 0.03661855 -0.06762587
v 0.01692607 0.03423995 -0.05162587
v 0.01692607 0.03423995 -0.06762587
f 8 4 1
f 7 8 1
f 7 1 6
f 1 2 6
f 6 2 3
f 6 3 5
f 5 3 9
f 5 9 10
f 10 9 11
f 10 11 12
f 12 11 13
f 12 13 14

