# https://github.com/mikedh/trimesh
v 0.03068306 0.03034977 0.01162503
v 0.03068920 0.00638324 0.03186698
v 0.03068665 0.00710934 0.03171290
v 0.03068320 0.00873797 0.03130333
v 0.03068309 0.00879892 0.03128625
v 0.03070962 0.00302226 0.03235916
v 0.03072448 0.00134663 0.03247209
v 0.03074179 -0.00037122 0.03249789
v 0.03077832 -0.00378832 0.03227846
v 0.03078601 -0.00451936 0.03218425
v 0.03080299 -0.00617823 0.03190736
v 0.03084960 -0.01110459 0.03054405
v 0.03081944 -0.00785522 0.03153641
v 0.03090567 -0.01984108 0.02574066
v 0.03089756 -0.01784851 0.02716027
v 0.03088054 -0.01491526 0.02887533
v 0.03087578 -0.01425730 0.02920581
v 0.03086890 -0.01337004 0.02962250
v 0.03090809 -0.02058619 0.02514873
v 0.03091341 -0.02311835 0.02284277
v 0.03091385 -0.02359668 0.02234832
v 0.03091380 -0.02524246 0.02047116
v 0.03090589 -0.02772322 0.01696093
v 0.03091311 -0.02580130 0.01976217
v 0.03088851 -0.02928302 0.01409803
v 0.03088729 -0.02935378 0.01395009
v 0.03088417 -0.02952354 0.01358716
v 0.03078186 -0.03174493 0.00696487
v 0.03068293 -0.03227620 0.00380750
v 0.03078675 -0.03169981 0.00716747
v 0.03084786 -0.03078054 0.01043112
v 0.03051610 -0.03249526 0.00055460
v 0.03044099 -0.03249544 -0.00054439
v 0.02997709 -0.03149407 -0.00802334
v 0.02997558 -0.03154495 -0.00782086
v 0.03001291 -0.03191283 -0.00614985
v 0.03026084 -0.03237991 -0.00279136
v 0.03054815 -0.02786419 -0.01672833
v 0.03046834 -0.02879530 -0.01506918
v 0.03038767 -0.02938830 -0.01387726
v 0.03035098 -0.02959238 -0.01343655
v 0.03010242 -0.03071697 -0.01061686
v 0.03062856 -0.02602384 -0.01946818
v 0.03063619 -0.02573532 -0.01984801
v 0.03065940 -0.02454348 -0.02130415
v 0.03068312 -0.01896881 -0.02639004
v 0.03068312 -0.01984739 -0.02573579
v 0.03068312 -0.02069186 -0.02506187
v 0.03067430 -0.02319652 -0.02276336
v 0.03067151 -0.02352476 -0.02242400
v 0.03068311 -0.01599011 -0.02829429
v 0.03068311 -0.01405536 -0.02930354
v 0.03068311 -0.01705007 -0.02766847
v 0.03068311 -0.01338560 -0.02961545
v 0.03068311 -0.01237154 -0.03005319
v 0.03068311 -0.01145379 -0.03041481
v 0.03068311 -0.01022002 -0.03085127
v 0.03068310 -0.00694335 -0.03174965
v 0.03068310 -0.00510731 -0.03209620
v 0.03068310 -0.00356341 -0.03230407
v 0.03068310 -0.00282815 -0.03237673
v 0.03068310 -0.00167959 -0.03245657
v 0.03068309 0.00056805 -0.03249504
v 0.03068309 0.00243225 -0.03240885
v 0.03068309 0.00332628 -0.03232934
v 0.03068309 0.00395736 -0.03225817
v 0.03068309 0.00733029 -0.03166254
v 0.03068309 0.00804815 -0.03148772
v 0.03068308 0.00984068 -0.03097435
v 0.03068308 0.01129206 -0.03047522
v 0.03068308 0.01298415 -0.02979364
v 0.03068308 0.01441192 -0.02912982
v 0.03068308 0.01671860 -0.02787002
v 0.03068308 0.01739755 -0.02745133
v 0.03068308 0.01801707 -0.02704876
v 0.03068307 0.02074298 -0.02501958
v 0.03068307 0.02141640 -0.02444561
v 0.03068307 0.02269522 -0.02326321
v 0.03068307 0.02324163 -0.02271732
v 0.03068307 0.02491749 -0.02086549
v 0.03068307 0.02550337 -0.02014517
v 0.03068307 0.02744833 -0.01740228
v 0.03068307 0.02755025 -0.01724046
v 0.03068306 0.02782705 -0.01679002
v 0.03068306 0.02919949 -0.01427024
v 0.03068306 0.03007601 -0.01231598
v 0.03068306 0.03053798 -0.01112120
v 0.03068306 0.03072170 -0.01060318
v 0.03068306 0.03147545 -0.00809606
v 0.03068306 0.03161098 -0.00754954
v 0.03068306 0.03214850 -0.00476696
v 0.03068306 0.03233885 -0.00323244
v 0.03068306 0.03247133 -0.00136479
v 0.03068306 0.03249928 -0.00021633
v 0.03068306 0.03249580 0.00052250
v 0.03068306 0.03226360 0.00391282
v 0.03068306 0.03221261 0.00431253
v 0.03068306 0.03167880 0.00725971
v 0.03068306 0.03110892 0.00940667
v 0.03068306 0.03073886 0.01055331
v 0.03068306 0.03049101 0.01124934
v 0.03068307 0.02685077 0.01831082
v 0.03068307 0.02749003 0.01733632
v 0.03068307 0.02914969 0.01437167
v 0.03068308 0.02065584 0.02509157
v 0.03068307 0.02190424 0.02400948
v 0.03068307 0.02316235 0.02279816
v 0.03068307 0.02551286 0.02013315
v 0.03068308 0.01577685 0.02841375
v 0.03068308 0.01790333 0.02712418
v 0.03068309 0.01197804 0.03021220
v 0.03068308 0.01506590 0.02879704
v 0.03103571 0.02610270 -0.00607388
v 0.03103576 0.02679778 0.00034938
v 0.03103579 0.02593547 0.00675235
v 0.03103582 0.02356589 0.01276291
v 0.03103585 0.01982674 0.01803173
v 0.03103588 0.01493534 0.02225263
v 0.03103591 0.00917594 0.02518026
v 0.03103592 0.00288328 0.02664451
v 0.03103594 -0.00357695 0.02656029
v 0.03103595 -0.00982931 0.02493245
v 0.03103595 -0.01551041 0.02185566
v 0.03103594 -0.02029011 0.01750869
v 0.03103592 -0.02389063 0.01214419
v 0.03103571 -0.02610271 0.00607390
v 0.03103588 -0.02679779 -0.00034939
v 0.03103585 -0.02593547 -0.00675236
v 0.03103582 -0.02356589 -0.01276292
v 0.03103579 -0.01982674 -0.01803174
v 0.03103576 -0.01493533 -0.02225261
v 0.03103574 -0.00917594 -0.02518027
v 0.03103572 -0.00288327 -0.02664452
v 0.03103570 0.00357696 -0.02656030
v 0.03103570 0.00982931 -0.02493246
v 0.03103570 0.01551042 -0.02185567
v 0.03103570 0.02029011 -0.01750871
v 0.03103572 0.02389063 -0.01214417
v 0.03103570 -0.00407387 -0.03163840
v 0.03103570 -0.00469883 -0.03155165
v 0.03103597 -0.01981947 0.02499382
v 0.03103597 -0.01705180 0.02695824
v 0.03103592 -0.03109336 0.00712786
v 0.03103593 -0.03016725 0.01036642
v 0.03103593 -0.02995184 0.01097242
v 0.03103578 -0.03167970 0.00373716
v 0.03103590 -0.03177953 0.00276227
v 0.03103568 0.00325335 -0.03173329
v 0.03103568 0.00600975 -0.03132840
v 0.03103568 0.00662819 -0.03120341
v 0.03103567 0.02101207 -0.02400162
v 0.03103567 0.01938367 -0.02533492
v 0.03103567 0.01707557 -0.02694457
v 0.03103594 0.00354371 0.03170116
v 0.03103595 0.00016162 0.03189833
v 0.03103596 -0.00319292 0.03173972
v 0.03103597 -0.00650980 0.03122790
v 0.03103597 -0.01647471 0.02731518
v 0.03103597 -0.01351841 0.02889324
v 0.03103597 -0.01040614 0.03015281
v 0.03103597 -0.00714919 0.03108741
v 0.03103573 -0.01431664 -0.02850642
v 0.03103574 -0.01469103 -0.02831530
v 0.03103574 -0.01570474 -0.02776586
v 0.03103571 -0.00653410 -0.03122323
v 0.03103571 -0.00799842 -0.03088056
v 0.03103572 -0.01120775 -0.02986585
v 0.03103568 0.00267403 -0.03178735
v 0.03103569 -0.00069025 -0.03189214
v 0.03103569 -0.00166008 -0.03185638
v 0.03103567 0.00808956 -0.03085684
v 0.03103567 0.00990507 -0.03032284
v 0.03103567 0.01658299 -0.02725049
v 0.03103567 0.01604078 -0.02757316
v 0.03103567 0.01304500 -0.02911036
v 0.03103587 -0.03165166 -0.00396877
v 0.03103589 -0.03189379 -0.00060092
v 0.03103575 -0.01759573 -0.02660774
v 0.03103575 -0.02030957 -0.02459883
v 0.03103568 0.02194527 -0.02315145
v 0.03103568 0.02426334 -0.02070927
v 0.03103591 0.01495870 0.02817441
v 0.03103594 0.00530778 0.03145466
v 0.03103567 0.00857673 0.03072483
v 0.03103592 0.01190681 0.02959372
v 0.03103597 -0.02233914 0.02277071
v 0.03103596 -0.02461225 0.02029092
v 0.03103594 -0.02862369 0.01407881
v 0.03103595 -0.02698420 0.01701210
v 0.03103596 -0.02502325 0.01978175
v 0.03103581 -0.02725230 -0.01657574
v 0.03103583 -0.02884430 -0.01362278
v 0.03103572 0.03102423 -0.00742130
v 0.03103572 0.03084183 -0.00814619
v 0.03103571 0.02980312 -0.01137339
v 0.03103571 0.02951596 -0.01209911
v 0.03103570 0.02837000 -0.01458507
v 0.03103569 0.02730698 -0.01648971
v 0.03103569 0.02667535 -0.01749309
v 0.03103568 0.02466819 -0.02022534
v 0.03103575 -0.02904566 -0.01318835
v 0.03103585 -0.03027997 -0.01003500
v 0.03103586 -0.03116866 -0.00678914
v 0.03103578 -0.02278789 -0.02231993
v 0.03103579 -0.02506645 -0.01972388
v 0.03103581 -0.02701409 -0.01696061
v 0.03103579 0.03069838 0.00867070
v 0.03103577 0.03144078 0.00538982
v 0.03103587 0.02147761 0.02358551
v 0.03103588 0.02066507 0.02430058
v 0.03103589 0.01786437 0.02642776
v 0.03103586 0.02311050 0.02198792
v 0.03103585 0.02445078 0.02048717
v 0.03103585 0.02531357 0.01941107
v 0.03103576 0.03183373 0.00204642
v 0.03103575 0.03187084 -0.00135099
v 0.03103573 0.03152845 -0.00485118
v 0.03103581 0.02908476 0.01310138
v 0.03103580 0.03031186 0.00993789
v 0.03103584 0.02569254 0.01890660
v 0.03103583 0.02698089 0.01701761
v 0.03103583 0.02754234 0.01609308
v 0.03085950 0.01828097 0.02650700
v 0.03085950 0.01455520 0.02872215
v 0.03085950 0.01056568 0.03041680
v 0.03085950 0.02167547 0.02381153
v 0.03085950 0.02467718 0.02068455
v 0.03085950 0.02723171 0.01718275
v 0.03085950 0.02929278 0.01336960
v 0.03085950 0.03082303 0.00931416
v 0.03085950 0.03179473 0.00508995
v 0.03085950 0.03219029 0.00077350
v 0.03085941 0.01724120 -0.02719494
v 0.03085941 -0.00658983 -0.03151824
v 0.03085941 -0.01996526 -0.02526294
v 0.03085941 -0.01584743 -0.02803009
v 0.03085941 0.02121419 -0.02422356
v 0.03085941 0.02468357 -0.02067714
v 0.03085941 0.02979594 -0.01220753
v 0.03085941 0.03131757 -0.00748541
v 0.03085941 0.03209574 -0.00258561
v 0.03085941 0.02756697 -0.01663985
v 0.03085941 0.01285891 -0.02952071
v 0.03085941 0.00817136 -0.03114568
v 0.03085941 0.00328981 -0.03203126
v 0.03085941 -0.00166983 -0.03215646
v 0.03085941 -0.01135339 -0.03013184
v 0.03069344 -0.02931911 -0.01331248
f 133 139 140
f 133 170 139
f 133 169 170
f 134 169 133
f 134 168 169
f 148 168 134
f 148 134 149
f 149 134 150
f 244 149 150
f 244 150 171
f 244 171 172
f 172 243 244
f 244 243 70
f 244 70 69
f 69 68 244
f 244 68 67
f 244 67 245
f 245 67 66
f 245 66 65
f 65 64 245
f 245 64 63
f 245 63 246
f 169 245 246
f 246 63 62
f 246 62 61
f 60 246 61
f 60 234 246
f 139 246 234
f 59 234 60
f 59 58 234
f 234 58 247
f 247 58 57
f 247 57 56
f 247 56 55
f 55 54 247
f 247 54 52
f 247 52 236
f 236 52 51
f 236 51 53
f 46 236 53
f 235 236 46
f 46 47 235
f 235 47 48
f 235 48 179
f 49 179 48
f 49 204 179
f 179 204 130
f 131 179 130
f 131 178 179
f 164 178 131
f 131 163 164
f 164 163 236
f 236 163 162
f 131 162 163
f 132 162 131
f 132 167 162
f 247 162 167
f 247 167 166
f 132 166 167
f 133 166 132
f 133 165 166
f 234 166 165
f 234 165 140
f 178 164 236
f 130 204 205
f 50 205 204
f 45 205 50
f 45 44 205
f 205 44 43
f 205 43 206
f 206 43 38
f 206 38 191
f 129 206 191
f 129 191 192
f 192 201 129
f 201 192 248
f 34 201 248
f 34 202 201
f 203 202 34
f 128 202 203
f 128 203 176
f 203 36 176
f 176 36 37
f 176 37 177
f 37 33 177
f 177 33 32
f 177 32 147
f 127 177 147
f 146 127 147
f 146 126 127
f 143 126 146
f 29 143 146
f 29 28 143
f 143 28 30
f 143 30 144
f 144 30 31
f 144 31 145
f 126 144 145
f 126 145 125
f 145 188 125
f 125 188 189
f 23 189 188
f 23 188 25
f 25 188 26
f 188 27 26
f 188 31 27
f 24 189 23
f 24 190 189
f 124 189 190
f 124 190 187
f 22 187 190
f 186 187 22
f 22 21 186
f 20 186 21
f 19 186 20
f 19 141 186
f 141 123 186
f 141 142 123
f 142 158 123
f 123 158 159
f 123 159 122
f 122 159 160
f 12 160 159
f 159 18 12
f 159 17 18
f 16 17 159
f 16 159 15
f 12 161 160
f 13 161 12
f 13 157 161
f 121 161 157
f 156 121 157
f 11 156 157
f 10 156 11
f 10 9 156
f 156 9 155
f 9 8 155
f 155 8 7
f 155 7 154
f 154 120 155
f 154 183 120
f 183 154 2
f 183 2 184
f 184 2 3
f 184 3 4
f 5 184 4
f 5 225 184
f 111 225 5
f 111 224 225
f 224 185 225
f 224 182 185
f 119 185 182
f 119 184 185
f 120 184 119
f 182 118 119
f 211 118 182
f 210 118 211
f 210 117 118
f 209 117 210
f 209 212 117
f 117 212 213
f 117 213 214
f 227 214 213
f 227 220 214
f 228 220 227
f 228 221 220
f 117 220 221
f 117 221 116
f 116 221 222
f 116 222 218
f 222 229 218
f 222 228 229
f 104 229 228
f 1 229 104
f 1 230 229
f 101 230 1
f 101 100 230
f 230 100 99
f 230 99 98
f 231 230 98
f 207 230 231
f 231 208 207
f 115 207 208
f 115 219 207
f 115 218 219
f 115 208 114
f 208 215 114
f 114 215 216
f 114 216 113
f 113 216 217
f 241 217 216
f 240 217 241
f 240 193 217
f 240 194 193
f 195 194 240
f 239 195 240
f 239 240 88
f 88 87 239
f 239 87 86
f 239 86 85
f 242 239 85
f 242 85 84
f 84 83 242
f 242 83 82
f 242 82 238
f 238 199 242
f 242 199 198
f 138 198 199
f 138 199 137
f 137 199 200
f 137 200 181
f 181 200 238
f 180 181 238
f 237 180 238
f 237 238 79
f 79 238 80
f 238 81 80
f 79 78 237
f 237 78 77
f 237 77 76
f 233 237 76
f 233 76 75
f 75 74 233
f 74 73 233
f 233 73 72
f 233 72 243
f 243 174 233
f 233 174 173
f 233 173 153
f 153 173 136
f 136 152 153
f 151 152 136
f 151 136 180
f 180 136 137
f 152 151 237
f 233 153 152
f 136 173 174
f 136 174 135
f 135 174 175
f 135 175 172
f 243 175 174
f 243 72 71
f 152 237 233
f 151 180 237
f 180 137 181
f 197 198 138
f 138 196 197
f 138 195 196
f 113 195 138
f 197 196 239
f 242 198 197
f 238 200 199
f 238 82 81
f 197 239 242
f 88 240 89
f 240 90 89
f 240 91 90
f 196 195 239
f 113 194 195
f 193 194 113
f 241 91 240
f 241 92 91
f 93 92 241
f 241 216 93
f 94 93 216
f 94 216 95
f 95 216 232
f 95 232 96
f 96 232 231
f 96 231 97
f 215 231 232
f 113 217 193
f 215 232 216
f 208 231 215
f 219 230 207
f 231 98 97
f 219 229 230
f 104 228 103
f 228 102 103
f 228 108 102
f 218 229 219
f 116 218 115
f 221 228 222
f 227 108 228
f 227 107 108
f 226 107 227
f 226 106 107
f 105 106 226
f 226 223 105
f 226 210 223
f 105 223 110
f 110 223 109
f 109 223 224
f 109 224 112
f 212 226 227
f 214 220 117
f 212 227 213
f 209 226 212
f 209 210 226
f 210 211 223
f 223 211 182
f 223 182 224
f 112 224 111
f 225 185 184
f 154 6 2
f 120 183 184
f 155 120 121
f 154 7 6
f 155 121 156
f 11 157 13
f 121 160 161
f 122 160 121
f 15 159 158
f 15 158 142
f 15 142 14
f 14 142 141
f 186 123 124
f 14 141 19
f 186 124 187
f 22 190 24
f 125 189 124
f 145 31 188
f 143 144 126
f 147 29 146
f 147 32 29
f 127 176 177
f 203 35 36
f 128 176 127
f 129 202 128
f 34 35 203
f 34 248 42
f 42 248 41
f 248 40 41
f 248 192 40
f 192 39 40
f 192 38 39
f 129 201 202
f 191 38 192
f 129 205 206
f 130 205 129
f 50 204 49
f 179 178 235
f 235 178 236
f 236 162 247
f 247 166 234
f 243 71 70
f 172 175 243
f 171 135 172
f 171 134 135
f 245 149 244
f 150 134 171
f 245 148 149
f 168 148 245
f 168 245 169
f 169 246 170
f 170 246 139
f 140 165 133
f 139 234 140

