# https://github.com/mikedh/trimesh
v -0.00049539 -0.01820435 -0.06962579
v -0.01758049 0.02352534 -0.06962570
v -0.01251773 0.02741013 -0.06962570
v -0.00662202 0.02985222 -0.06962570
v -0.01758049 -0.01104534 -0.06962570
v -0.01251773 -0.01493013 -0.06962570
v -0.02474031 0.00624000 -0.06962570
v -0.02390736 -0.00008688 -0.06962570
v -0.00049538 0.03068435 -0.06962579
v -0.00662202 -0.01737222 -0.06962570
v -0.02390736 0.01256688 -0.06962570
v -0.02146528 0.01846258 -0.06962570
v -0.02146528 -0.00598258 -0.06962570
v -0.00029514 -0.01820517 -0.06962586
v 0.00603173 0.02985222 -0.06962586
v 0.00603173 -0.01737222 -0.06962586
v 0.01192744 -0.01493013 -0.06962586
v 0.01192744 0.02741013 -0.06962586
v 0.01699020 0.02352534 -0.06962586
v 0.01699020 -0.01104534 -0.06962586
v -0.00029514 0.03068517 -0.06962586
v 0.02087499 0.01846258 -0.06962586
v 0.02331708 -0.00008688 -0.06962586
v 0.02415003 0.00624000 -0.06962586
v 0.02087499 -0.00598258 -0.06962586
v 0.02331708 0.01256688 -0.06962586
v -0.00029514 -0.01820517 -0.04562587
v -0.00662202 0.02985222 -0.04562587
v -0.01251773 0.02741013 -0.04562587
v -0.01758049 0.02352534 -0.04562587
v -0.02146528 0.01846258 -0.04562587
v -0.02390736 0.01256688 -0.04562587
v -0.02474031 0.00624000 -0.04562587
v -0.02390736 -0.00008688 -0.04562587
v -0.02146528 -0.00598258 -0.04562587
v -0.01758049 -0.01104534 -0.04562587
v -0.01251773 -0.01493013 -0.04562587
v -0.00662202 -0.01737222 -0.04562587
v 0.00603173 -0.01737222 -0.04562587
v 0.01192744 -0.01493013 -0.04562587
v 0.01699020 -0.01104534 -0.04562587
v 0.02087499 -0.00598258 -0.04562587
v 0.02331708 -0.00008688 -0.04562587
v 0.02415003 0.00624000 -0.04562587
v 0.02331708 0.01256688 -0.04562587
v 0.02087499 0.01846258 -0.04562587
v 0.01699020 0.02352534 -0.04562587
v 0.01192744 0.02741013 -0.04562587
v 0.00603173 0.02985222 -0.04562587
v -0.00029514 0.03068517 -0.04562587
f 10 1 27
f 1 14 27
f 27 14 16
f 27 16 39
f 39 16 17
f 39 17 40
f 40 17 20
f 40 20 41
f 41 20 25
f 41 25 42
f 42 25 23
f 42 23 43
f 43 23 24
f 43 24 44
f 44 24 26
f 44 26 45
f 45 26 22
f 45 22 46
f 46 22 19
f 46 19 47
f 47 19 18
f 47 18 48
f 48 18 15
f 48 15 49
f 49 15 21
f 49 21 50
f 50 21 9
f 50 9 28
f 28 9 4
f 28 4 3
f 28 3 29
f 29 3 2
f 29 2 30
f 30 2 12
f 30 12 31
f 31 12 11
f 31 11 32
f 32 11 7
f 32 7 33
f 33 7 8
f 33 8 34
f 34 8 13
f 34 13 35
f 35 13 5
f 35 5 36
f 36 5 6
f 36 6 37
f 37 6 10
f 37 10 38
f 38 10 27

