# https://github.com/mikedh/trimesh
v 0.03043597 -0.00288327 -0.02664452
v 0.03043597 -0.00917594 -0.02518027
v 0.03043597 0.02610270 -0.00607388
v 0.03043597 -0.01493533 -0.02225261
v 0.03043597 -0.01982674 -0.01803174
v 0.03043597 -0.02356589 -0.01276292
v 0.03043597 -0.02593547 -0.00675236
v 0.03043597 -0.02679779 -0.00034939
v 0.03043597 0.01493534 0.02225263
v 0.03043597 0.01982674 0.01803173
v 0.03043597 0.02356589 0.01276291
v 0.03043597 0.01551042 -0.02185567
v 0.03043597 0.02029011 -0.01750871
v 0.03043597 0.02389063 -0.01214417
v 0.03043597 0.00982931 -0.02493246
v 0.03043597 0.00357696 -0.02656030
v 0.03043597 -0.02610271 0.00607390
v 0.03043597 -0.02389063 0.01214419
v 0.03043597 0.02679778 0.00034938
v 0.03043597 -0.02029011 0.01750869
v 0.03043597 -0.01551041 0.02185566
v 0.03043597 0.00288328 0.02664451
v 0.03043597 0.00917594 0.02518026
v 0.03043597 0.02593547 0.00675235
v 0.03043597 -0.00982931 0.02493245
v 0.03043597 -0.00357695 0.02656029
v 0.03103571 0.02610270 -0.00607388
v 0.03103576 0.02679778 0.00034938
v 0.03103579 0.02593547 0.00675235
v 0.03103582 0.02356589 0.01276291
v 0.03103585 0.01982674 0.01803173
v 0.03103588 0.01493534 0.02225263
v 0.03103591 0.00917594 0.02518026
v 0.03103592 0.00288328 0.02664451
v 0.03103594 -0.00357695 0.02656029
v 0.03103595 -0.00982931 0.02493245
v 0.03103595 -0.01551041 0.02185566
v 0.03103594 -0.02029011 0.01750869
v 0.03103592 -0.02389063 0.01214419
v 0.03103571 -0.02610271 0.00607390
v 0.03103588 -0.02679779 -0.00034939
v 0.03103585 -0.02593547 -0.00675236
v 0.03103582 -0.02356589 -0.01276292
v 0.03103579 -0.01982674 -0.01803174
v 0.03103576 -0.01493533 -0.02225261
v 0.03103574 -0.00917594 -0.02518027
v 0.03103572 -0.00288327 -0.02664452
v 0.03103570 0.00357696 -0.02656030
v 0.03103570 0.00982931 -0.02493246
v 0.03103570 0.01551042 -0.02185567
v 0.03103570 0.02029011 -0.01750871
v 0.03103572 0.02389063 -0.01214417
f 27 3 19
f 52 3 27
f 52 14 3
f 51 14 52
f 51 13 14
f 50 13 51
f 50 12 13
f 49 12 50
f 49 15 12
f 48 15 49
f 48 16 15
f 47 16 48
f 47 1 16
f 46 1 47
f 46 2 1
f 45 2 46
f 45 4 2
f 44 4 45
f 44 5 4
f 43 5 44
f 43 6 5
f 42 6 43
f 42 7 6
f 41 7 42
f 41 8 7
f 40 8 41
f 40 17 8
f 39 17 40
f 39 18 17
f 38 18 39
f 38 20 18
f 37 20 38
f 37 21 20
f 36 21 37
f 36 25 21
f 35 25 36
f 35 26 25
f 34 26 35
f 34 22 26
f 33 22 34
f 33 23 22
f 32 23 33
f 32 9 23
f 31 9 32
f 31 10 9
f 30 10 31
f 30 11 10
f 29 11 30
f 29 24 11
f 28 24 29
f 28 19 24
f 27 19 28

