# https://github.com/mikedh/trimesh
v 0.00498865 0.06209688 0.03312782
v 0.00498881 0.06112846 0.03087846
v 0.00498937 0.05779369 0.02553147
v 0.00498885 0.06104325 0.03267375
v 0.00498879 0.06135507 0.03261288
v 0.00498873 0.06166600 0.03267818
v 0.00498868 0.06192699 0.03285936
v 0.00498903 0.06010538 0.03306221
v 0.00498932 0.05855886 0.03246121
v 0.00498925 0.05894397 0.03292664
v 0.00498915 0.05950705 0.03314545
v 0.00498941 0.05800761 0.03135043
v 0.00498933 0.05800770 0.02614973
v 0.00498934 0.05795269 0.02582259
f 13 12 9
f 9 10 13
f 13 10 11
f 13 11 14
f 14 11 8
f 14 8 4
f 14 4 5
f 2 14 5
f 2 5 6
f 7 2 6
f 1 2 7
f 3 14 2

