# https://github.com/mikedh/trimesh
v 0.02948749 0.06700213 0.01713078
v 0.02994120 0.06700221 0.01713077
v 0.02994796 0.06650426 0.01727871
v 0.02948758 0.06650417 0.01727871
v 0.03030286 0.06394380 0.02295170
v 0.02948815 0.06394365 0.02295171
v 0.03030173 0.06393324 0.02292666
v 0.02948816 0.06393308 0.02292668
v 0.03008618 0.06606358 0.02034061
v 0.02948771 0.06606346 0.02034062
v 0.02948774 0.06595645 0.02057574
v 0.03027896 0.06457187 0.02242463
v 0.02948792 0.06510055 0.02188325
v 0.03019528 0.06595659 0.02057573
v 0.03016673 0.06621744 0.01994386
v 0.03006825 0.06621742 0.01994386
v 0.03022492 0.06558876 0.02123100
v 0.03025240 0.06513906 0.02183820
v 0.02948771 0.06607661 0.02033672
v 0.03008600 0.06607672 0.02033671
v 0.03006889 0.06622156 0.01995808
f 3 2 4
f 3 4 21
f 21 4 19
f 21 19 20
f 19 10 20
f 20 10 9
f 9 10 11
f 14 9 11
f 14 11 17
f 17 11 13
f 17 13 18
f 18 13 12
f 8 12 13
f 8 7 12
f 7 8 5
f 5 8 6
f 16 9 14
f 14 15 16
f 4 2 1
f 20 9 21
f 21 9 16

