# https://github.com/mikedh/trimesh
v 0.01503409 0.09419775 0.13965660
v 0.01463939 0.09419768 0.13970858
v 0.01427160 0.09419760 0.13986093
v 0.01395576 0.09419753 0.14010330
v 0.01371341 0.09419748 0.14041913
v 0.01356107 0.09419745 0.14078693
v 0.01350912 0.09419743 0.14118163
v 0.01356108 0.09419744 0.14157633
v 0.01371344 0.09419746 0.14194413
v 0.01395579 0.09419750 0.14225997
v 0.01503414 0.09419769 0.14270660
v 0.01463944 0.09419762 0.14265466
v 0.01427163 0.09419755 0.14250231
v 0.01648864 0.09419800 0.14081508
v 0.01552951 0.09419785 0.13976578
v 0.01503409 0.09419775 0.13968161
v 0.01635500 0.09419799 0.14047079
v 0.01614128 0.09419795 0.14016959
v 0.01586044 0.09419791 0.13992974
v 0.01653411 0.09419801 0.14118159
v 0.01648865 0.09419800 0.14154810
v 0.01635502 0.09419796 0.14189239
v 0.01614131 0.09419791 0.14219360
v 0.01586048 0.09419785 0.14243346
v 0.01503414 0.09419769 0.14268161
v 0.01528540 0.09419774 0.14266041
v 0.01552955 0.09419779 0.14259742
v 0.01453872 0.09419760 0.14259744
v 0.01542884 0.09419777 0.14265464
v 0.01579663 0.09419784 0.14250229
v 0.01611247 0.09419791 0.14225993
v 0.01635481 0.09419796 0.14194410
v 0.01650716 0.09419800 0.14157629
v 0.01655911 0.09419801 0.14118159
v 0.01650715 0.09419801 0.14078689
v 0.01635479 0.09419799 0.14041910
v 0.01392695 0.09419749 0.14219363
v 0.01420779 0.09419754 0.14243348
v 0.01611244 0.09419795 0.14010325
v 0.01579660 0.09419789 0.13986091
v 0.01542879 0.09419782 0.13970856
v 0.01478283 0.09419771 0.13970281
v 0.01453868 0.09419765 0.13976580
v 0.01420775 0.09419759 0.13992976
v 0.01392692 0.09419753 0.14016962
v 0.01371321 0.09419748 0.14047083
v 0.01357958 0.09419745 0.14081512
v 0.01353411 0.09419744 0.14118163
v 0.01357959 0.09419744 0.14154814
v 0.01371323 0.09419746 0.14189243
f 28 25 11
f 12 28 11
f 13 28 12
f 13 38 28
f 10 38 13
f 10 37 38
f 9 37 10
f 9 50 37
f 9 49 50
f 8 49 9
f 8 48 49
f 7 48 8
f 7 47 48
f 6 47 7
f 6 46 47
f 5 46 6
f 5 45 46
f 4 45 5
f 4 44 45
f 3 44 4
f 3 43 44
f 2 43 3
f 2 42 43
f 1 42 2
f 1 16 42
f 15 16 1
f 41 15 1
f 40 15 41
f 40 19 15
f 39 19 40
f 39 18 19
f 36 18 39
f 36 17 18
f 14 17 36
f 35 14 36
f 35 20 14
f 34 20 35
f 34 21 20
f 33 21 34
f 33 22 21
f 32 22 33
f 32 23 22
f 31 23 32
f 31 24 23
f 30 24 31
f 30 27 24
f 29 27 30
f 29 26 27
f 11 26 29
f 11 25 26

