# https://github.com/mikedh/trimesh
v -0.00209548 -0.02300057 0.00917838
v -0.00181394 -0.02405052 0.00917835
v 0.00210451 -0.02299977 0.00917832
v -0.00181434 -0.02195052 0.00917839
v -0.00104583 -0.02118172 0.00917840
v -0.00104514 -0.02481903 0.00917833
v 0.00000492 -0.02510017 0.00917831
v 0.00105486 -0.02481863 0.00917830
v 0.00182337 -0.02404983 0.00917830
v 0.00182297 -0.02194983 0.00917834
v 0.00105417 -0.02118132 0.00917837
v 0.00000411 -0.02090017 0.00917839
v 0.00182341 -0.02404988 0.01217830
v 0.00210456 -0.02299983 0.01217832
v 0.00105491 -0.02481868 0.01217830
v 0.00182301 -0.02194989 0.01217834
v -0.00181429 -0.02195058 0.01217839
v -0.00209544 -0.02300063 0.01217838
v -0.00104579 -0.02118178 0.01217840
v 0.00000416 -0.02090023 0.01217839
v 0.00105421 -0.02118138 0.01217837
v 0.00000496 -0.02510023 0.01217831
v -0.00104509 -0.02481908 0.01217833
v -0.00181389 -0.02405058 0.01217835
f 3 14 10
f 10 14 16
f 10 16 11
f 11 16 21
f 11 21 12
f 12 21 20
f 12 20 5
f 5 20 19
f 5 19 4
f 4 19 17
f 4 17 1
f 1 17 18
f 1 18 2
f 2 18 24
f 2 24 6
f 6 24 23
f 6 23 7
f 7 23 22
f 7 22 8
f 8 22 15
f 8 15 9
f 9 15 13
f 9 13 3
f 3 13 14

