# https://github.com/mikedh/trimesh
v 0.03086928 -0.07320866 0.03709730
v 0.03133938 -0.07946803 0.04749107
v 0.03066540 -0.07158841 0.03258474
v 0.02988057 -0.06642623 0.01520975
v 0.03124114 -0.07330820 0.04533960
v 0.03103096 -0.07077626 0.04069136
v 0.03080787 -0.06876449 0.03575476
v 0.03035420 -0.06581178 0.02571097
v 0.03168916 -0.08383901 0.05523713
v 0.03262753 -0.09115665 0.07599521
v 0.03232982 -0.08963043 0.06940257
v 0.03226094 -0.08917173 0.06787766
v 0.03274757 -0.09155451 0.07865452
v 0.03195083 -0.08662385 0.06101439
v 0.03187151 -0.08584204 0.05925941
v 0.03027644 -0.06809871 0.02397770
v 0.03009459 -0.06691176 0.01995181
v 0.03003477 -0.06650497 0.01862757
v 0.03134491 -0.07926082 0.04761444
v 0.03031046 -0.06552901 0.02474259
v 0.03140435 -0.07545257 0.04894830
v 0.03158122 -0.07769378 0.05285935
v 0.03196035 -0.08179544 0.06124590
v 0.03126873 -0.07366678 0.04594955
v 0.02988721 -0.06592388 0.01535900
v 0.02999476 -0.06653190 0.01774044
v 0.03274677 -0.08731826 0.07865459
v 0.03234633 -0.08501396 0.06978815
v 0.03205336 -0.08265638 0.06330393
f 19 24 2
f 19 21 24
f 19 22 21
f 23 22 19
f 19 9 23
f 23 9 15
f 23 15 29
f 29 15 14
f 29 14 28
f 28 14 12
f 28 12 11
f 10 28 11
f 10 27 28
f 13 27 10
f 2 24 5
f 2 5 1
f 1 5 6
f 1 6 3
f 3 6 7
f 3 7 16
f 3 16 26
f 26 16 17
f 26 17 18
f 26 4 3
f 25 4 26
f 16 7 8
f 16 8 20

