# https://github.com/mikedh/trimesh
v 0.03202106 0.09377443 0.16630805
v 0.03198533 0.09377905 0.16657966
v 0.03188040 0.09379233 0.16683304
v 0.03149607 0.09383745 0.16721737
v 0.03097106 0.09389010 0.16735806
v 0.03044605 0.09393242 0.16721739
v 0.03022869 0.09394693 0.16705063
v 0.03006171 0.09395687 0.16683307
v 0.02995692 0.09396259 0.16658023
v 0.02992103 0.09396446 0.16630808
v 0.03110838 0.09387735 0.16681515
v 0.03198515 0.09377908 0.16603579
v 0.03188038 0.09379236 0.16578305
v 0.03105575 0.09388234 0.16567422
v 0.02995674 0.09396261 0.16603656
v 0.03006170 0.09395690 0.16578308
v 0.03022875 0.09394695 0.16556542
v 0.03044602 0.09393245 0.16539873
v 0.03097103 0.09389015 0.16525805
v 0.03149604 0.09383749 0.16539872
f 1 2 11
f 1 11 12
f 12 11 7
f 6 7 11
f 6 11 5
f 11 4 5
f 11 3 4
f 12 7 13
f 13 7 8
f 13 8 14
f 14 8 9
f 14 9 10
f 10 15 14
f 14 15 16
f 14 16 17
f 17 18 14
f 14 18 19
f 14 19 13
f 13 19 20
f 2 3 11

