# https://github.com/mikedh/trimesh
v 0.03583100 -0.06453580 0.00358144
v 0.03572097 -0.06125313 0.00320770
v 0.04008327 -0.06095701 0.00317550
v 0.04317448 -0.06034022 0.00310924
v 0.04522430 -0.05958491 0.00302956
v 0.04626884 -0.05906033 0.00297515
v 0.05357801 -0.04969686 0.00212276
v 0.05616260 -0.04725518 0.00195177
v 0.05231897 -0.05284279 0.00238509
v 0.05128717 -0.05454853 0.00253723
v 0.05020690 -0.05591815 0.00266461
v 0.04809567 -0.05786895 0.00285434
v 0.04772947 -0.05813837 0.00288132
v 0.03614744 -0.06425884 0.01059806
v 0.03622633 -0.06477910 0.01234730
v 0.04264199 -0.06425884 0.01059806
v 0.03637397 -0.06575182 0.01562120
v 0.04308543 -0.06717959 0.02043108
v 0.03659937 -0.06723526 0.02061899
v 0.04309397 -0.06723547 0.02061967
v 0.04414159 -0.09870867 0.18785805
v 0.04444053 -0.09870813 0.18784429
v 0.04475631 -0.09973396 0.20148832
v 0.04540579 -0.10020120 0.20727155
v 0.04536266 -0.10079877 0.21493328
v 0.04578646 -0.10080023 0.21493313
v 0.04371914 -0.09808389 0.17849028
v 0.04397521 -0.09808309 0.17847881
v 0.04387530 -0.09832198 0.18195310
v 0.04414783 -0.09832198 0.18195312
v 0.04168834 -0.09493560 0.13253596
v 0.04170193 -0.09495327 0.13280496
v 0.04164916 -0.09493911 0.13259144
v 0.04199731 -0.09533870 0.13867043
v 0.04268290 -0.09647298 0.15551320
v 0.04302343 -0.09673891 0.15932274
v 0.04322777 -0.09732345 0.16759494
v 0.04397517 -0.09809164 0.17847802
v 0.04371910 -0.09809164 0.17848957
v 0.04415691 -0.09833456 0.18213573
v 0.04119584 -0.09430107 0.12253965
v 0.04679410 -0.09721662 0.18807842
v 0.04678938 -0.09719384 0.18775618
v 0.04674844 -0.09721591 0.18806869
v 0.04678575 -0.09718198 0.18758823
v 0.04415154 -0.09721662 0.18807842
v 0.04661510 -0.09703902 0.18538591
v 0.04387990 -0.09682546 0.18205495
v 0.04643184 -0.09693298 0.18369697
v 0.04627351 -0.09682546 0.18205495
v 0.04369635 -0.09280106 0.12258689
v 0.04119798 -0.09280106 0.12258703
v 0.04424191 -0.09350428 0.13364978
v 0.04192552 -0.09383142 0.13871928
v 0.04449669 -0.09382981 0.13869454
v 0.04449792 -0.09383142 0.13871928
v 0.04213673 -0.09032251 0.08347853
v 0.04213386 -0.09031858 0.08341655
v 0.03943145 -0.09031858 0.08341655
v 0.04353368 -0.09257325 0.11899711
v 0.04378828 -0.09257250 0.11898568
v 0.04365257 -0.09238809 0.11607847
v 0.04369535 -0.09279966 0.12256473
v 0.04684097 -0.09778850 0.19596961
v 0.04679240 -0.09851335 0.20511013
v 0.04739117 -0.10030489 0.23028061
v 0.04728556 -0.10012593 0.22714210
v 0.04654901 -0.10030489 0.23028061
v 0.04717990 -0.09993064 0.22399205
v 0.04595502 -0.09953852 0.21832576
v 0.04698671 -0.09949242 0.21769509
v 0.04579344 -0.09929661 0.21507370
v 0.04536900 -0.09929661 0.21507370
v 0.04626726 -0.09681994 0.18197389
v 0.04575334 -0.09600452 0.17030697
v 0.04527616 -0.09516344 0.15841621
v 0.04200036 -0.09394008 0.14037871
v 0.04465178 -0.09403476 0.14181633
v 0.04457974 -0.09393924 0.14036636
v 0.04171025 -0.08885546 0.07311603
v 0.03896691 -0.08885546 0.07311603
v 0.04185431 -0.08950834 0.07620186
v 0.03919975 -0.08983801 0.07827903
v 0.04210926 -0.09027748 0.08282217
v 0.04208533 -0.09023146 0.08213788
v 0.04198667 -0.08997022 0.07932265
v 0.04156163 -0.07607517 0.04452592
v 0.03767753 -0.07607517 0.04452592
v 0.03798688 -0.08007623 0.05138524
v 0.04149021 -0.08385754 0.05898210
v 0.04168434 -0.08198247 0.05501086
v 0.04177018 -0.08126716 0.05360756
v 0.04189274 -0.08032621 0.05184073
v 0.03830736 -0.08363742 0.05849136
v 0.03863613 -0.08660315 0.06578155
v 0.04141468 -0.08632754 0.06503108
v 0.04163766 -0.08846040 0.07158229
v 0.04317888 -0.06778923 0.02249908
v 0.04322881 -0.06811240 0.02360561
v 0.03714715 -0.07075211 0.03276521
v 0.04329663 -0.07028192 0.03113064
v 0.04335743 -0.07202221 0.03653773
v 0.03741980 -0.07298202 0.03881090
v 0.04334407 -0.07250307 0.03772694
v 0.04154144 -0.07580943 0.04407364
v 0.04155869 -0.07603667 0.04446041
v 0.04276147 -0.07578493 0.04403197
v 0.04298395 -0.07480011 0.04233379
v 0.03637337 0.06575395 0.01560775
v 0.03623189 0.06482165 0.01247056
v 0.03623494 0.06482165 0.01247056
v 0.03615049 0.06426457 0.01059804
v 0.04290291 0.06426457 0.01059804
v 0.04298208 0.06544398 0.01456430
v 0.04315494 0.06707950 0.02007310
v 0.03659934 0.06724127 0.02061828
v 0.04316725 0.06724127 0.02061828
v 0.04270947 0.07604579 0.04446534
v 0.04270115 0.07608054 0.04452425
v 0.03767746 0.07608054 0.04452425
v 0.04322136 0.07358525 0.04005188
v 0.03723106 0.07134291 0.03462582
v 0.04334741 0.07153971 0.03520371
v 0.03667999 0.06776808 0.02240657
v 0.04327345 0.06944104 0.02813426
v 0.04171026 0.08886255 0.07311982
v 0.03896708 0.08886255 0.07311982
v 0.04142336 0.08653277 0.06557115
v 0.03839869 0.08453249 0.06051657
v 0.04144158 0.08453231 0.06051616
v 0.04150718 0.08366019 0.05852799
v 0.04174602 0.08141624 0.05387997
v 0.03777447 0.07736518 0.04667534
v 0.04192722 0.08008715 0.05139356
v 0.03895893 0.08959129 0.07293914
v 0.03621268 0.06625979 0.01204470
v 0.03621573 0.06625979 0.01204470
v 0.03614308 0.06345284 0.01050148
v 0.03601763 0.06308153 0.00924963
v 0.03647852 0.06344378 0.01050041
v 0.03572100 0.06125629 0.00320743
v 0.03914387 0.06326666 0.01047960
v 0.03770018 0.06116873 0.00319785
v 0.04184930 0.06284581 0.01043051
v 0.04051254 0.06090634 0.00316938
v 0.04449017 0.06211773 0.01034680
v 0.04206884 0.06062788 0.00313938
v 0.04586543 0.06157574 0.01028550
v 0.04533694 0.05953944 0.00302420
v 0.04671090 0.06117357 0.01024058
v 0.04884734 0.05986048 0.01009722
v 0.05365932 0.04942213 0.00210048
v 0.05489953 0.05040753 0.00920303
v 0.05256404 0.05235832 0.00234267
v 0.05364016 0.05388004 0.00950478
v 0.05231963 0.05284767 0.00238501
v 0.05228268 0.05628884 0.00973189
v 0.05081197 0.05519839 0.00259653
v 0.05014459 0.05878849 0.00998385
v 0.04954053 0.05662540 0.00273168
v 0.04691670 0.05868630 0.00293621
v 0.05363552 0.04705815 0.00080164
v 0.05521887 0.04729803 0.00708775
v 0.05560014 0.04744040 0.00896471
v 0.03647955 -0.06343761 0.01050038
v 0.03601763 -0.06307539 0.00924960
v 0.03614308 -0.06344670 0.01050145
v 0.04692014 -0.06105873 0.01022850
v 0.04533787 -0.06179282 0.01031062
v 0.04181359 -0.06284714 0.01043134
v 0.03915897 -0.06325892 0.01047938
v 0.05288646 -0.05532217 0.00963949
v 0.05088412 -0.05804241 0.00990745
v 0.04965722 -0.05921522 0.01002920
v 0.05490700 -0.05037430 0.00920077
v 0.05557577 -0.04744187 0.00896688
v 0.05516864 -0.04730180 0.00687307
v 0.05363040 -0.05389485 0.00950666
v 0.04264306 -0.06432006 0.01060542
v 0.04448288 -0.06381485 0.01054501
v 0.04781538 -0.06240019 0.01037977
v 0.04966718 -0.06123236 0.01024777
v 0.05223365 -0.05890754 0.00999690
v 0.05367298 -0.05702105 0.00980452
v 0.05545776 -0.05356935 0.00947709
v 0.05643037 -0.05062478 0.00922154
v 0.05704463 -0.04779732 0.00899559
v 0.05678130 -0.03913197 0.00841117
v 0.06033565 -0.01226046 0.00745247
v 0.06057043 0.00000307 0.00736128
v 0.05999747 0.00000307 0.00736128
v 0.05835147 -0.03793263 0.00834215
v 0.05853704 -0.03629934 0.00825253
v 0.05818184 -0.02466267 0.00775114
v 0.05964029 -0.02448255 0.00774515
v 0.05832582 -0.02263456 0.00768675
v 0.05897829 -0.00797871 0.00739912
v 0.05904394 0.00000316 0.00736128
v 0.03615946 0.06588863 0.01079687
v 0.03615640 0.06588863 0.01079687
v 0.04381780 0.06402278 0.01056908
v 0.04737359 0.06263897 0.01040657
v 0.05876511 0.01467985 0.00749336
v 0.06035019 0.01187965 0.00744666
v 0.05855454 0.01894877 0.00758561
v 0.05969618 0.02373737 0.00772078
v 0.05737570 0.03378216 0.00812376
v 0.05857922 0.03592414 0.00823234
v 0.05632652 0.04278154 0.00863805
v 0.05733480 0.04588661 0.00885274
v 0.05704482 0.04780226 0.00899552
v 0.05602772 0.05199917 0.00933767
v 0.05509443 0.05442673 0.00955501
v 0.05334350 0.05751111 0.00985297
v 0.05197054 0.05920340 0.01002735
v 0.04934259 0.06146821 0.01027345
v 0.05768354 0.00003788 0.00036284
v 0.05729584 0.01229689 0.00045212
v 0.05713174 0.01536101 0.00050503
v 0.05690613 0.01893747 0.00058322
v 0.05550119 0.03448537 0.00114985
v 0.03583100 0.06454170 0.00358144
v 0.05574847 -0.03221452 0.00104249
v 0.05651186 -0.02414250 0.00073035
v 0.05744851 -0.00883522 0.00040747
v 0.03601819 0.06554838 0.00773208
v 0.03601063 0.06416029 0.00756446
v 0.03597744 -0.06763968 0.00814358
v 0.03601311 -0.06415480 0.00756438
v 0.03582805 0.06758046 0.00791867
v 0.03587848 0.06485449 0.00463422
v 0.03587847 -0.06484857 0.00463412
v 0.03587038 -0.06323045 0.00445468
v 0.03587038 0.06323634 0.00445469
v 0.03617058 -0.06832480 0.01110991
v 0.05863380 0.00000319 0.00521236
v 0.05709328 0.02452344 0.00315057
v 0.05590009 0.03690336 0.00377977
v 0.05513966 0.04307154 0.00419897
v 0.03617050 0.06833096 0.01110994
v 0.04301018 -0.06670734 0.01875481
v 0.04306981 -0.06709391 0.02007834
v 0.04308543 -0.06719571 0.02042634
v 0.05798131 -0.04822877 0.01448871
v 0.05589378 -0.05520788 0.01449324
v 0.05728997 -0.05506897 0.02061743
v 0.05741432 -0.05469894 0.02060798
v 0.05808628 -0.04827049 0.01512757
v 0.05894401 -0.04850969 0.02053002
v 0.05280423 -0.06000245 0.01444017
v 0.05377457 -0.06092316 0.01973545
v 0.05542261 -0.05873525 0.01995764
v 0.04826418 -0.06361601 0.01489810
v 0.05022848 -0.06403142 0.01968191
v 0.05320182 -0.06154582 0.01969761
v 0.04673898 -0.06589952 0.01985334
v 0.04927887 -0.06463003 0.01971841
v 0.03618759 0.06607424 0.01142078
v 0.03618455 0.06607424 0.01142078
v 0.04711290 0.06574535 0.01983236
v 0.04933869 0.06459841 0.01971619
v 0.04832513 0.06358707 0.01488937
v 0.05284856 0.05995931 0.01443813
v 0.05348165 0.06126238 0.01971235
v 0.05060350 0.06377494 0.01967261
v 0.05592028 0.05515584 0.01449628
v 0.05808537 0.04826662 0.01510874
v 0.05811096 0.04827607 0.01526461
v 0.05894401 0.04851584 0.02053005
v 0.05771414 0.05376706 0.02058578
v 0.05728997 0.05507512 0.02061746
v 0.05571729 0.05827320 0.02003117
v 0.05382327 0.06088284 0.01973747
v 0.03930704 0.09095041 0.08065799
v 0.03930704 0.09394979 0.08065799
v 0.03913662 0.09349760 0.07686374
v 0.03899577 0.08978339 0.07375596
v 0.03882980 0.09202631 0.07007578
v 0.03876988 0.09164485 0.06875500
v 0.03657437 0.07099082 0.02006572
v 0.03843616 0.08901893 0.06134493
v 0.03807197 0.08540530 0.05333297
v 0.03759060 0.07931492 0.04259827
v 0.03753478 0.07859439 0.04137034
v 0.03729184 0.07585462 0.03597872
v 0.03700892 0.07380652 0.02976261
v 0.03658970 0.07109112 0.02040536
v 0.06119276 0.03164576 0.02052320
v 0.05951406 0.04488231 0.02052643
v 0.06285020 0.00000307 0.02051756
v 0.06243520 0.01583853 0.02052004
v 0.06243520 -0.01583254 0.02052009
v 0.05951321 -0.04488224 0.02052679
v 0.06119274 -0.03163987 0.02052323
v 0.04500397 -0.10137887 0.19918317
v 0.04654626 -0.10306033 0.23022386
v 0.04660253 -0.10311171 0.23135829
v 0.04660253 -0.10035729 0.23135829
v 0.04420283 -0.10040534 0.18306375
v 0.04199731 -0.09764117 0.13867040
v 0.04222176 -0.09792534 0.14318781
v 0.04244621 -0.09820887 0.14770526
v 0.04320459 -0.09330323 0.26727310
v 0.04321652 -0.09359121 0.26646495
v 0.04322380 -0.09439272 0.26644999
v 0.04543455 0.09872615 0.20785038
v 0.04682326 0.09872615 0.20785038
v 0.04583525 0.09935692 0.21591516
v 0.04708523 0.09970731 0.22071128
v 0.04628147 0.09998836 0.22489588
v 0.04724576 0.10004319 0.22576736
v 0.04654619 0.10306636 0.23022394
v 0.04660253 0.10111362 0.23135833
v 0.04660254 0.10311776 0.23135833
v 0.04512688 0.10153086 0.20165800
v 0.04512683 0.09898865 0.20165800
v 0.04543198 0.09948598 0.20778869
v 0.04579604 0.10229845 0.21512602
v 0.04627944 0.10074624 0.22485514
v 0.04630597 0.10077985 0.22538902
v 0.06319136 0.08096734 0.19455205
v 0.06286719 0.08050892 0.20666210
v 0.05752214 0.08864859 0.20716749
v 0.06552865 0.07313666 0.21528210
v 0.06496152 0.07316115 0.21997575
v 0.06222201 0.07981949 0.21872927
v 0.04860706 0.09834675 0.21970220
v 0.04830966 0.09953069 0.23143347
v 0.04661385 0.10112534 0.23158725
v 0.05172176 0.09527270 0.21957673
v 0.05210383 0.09525719 0.23123227
v 0.05570725 0.09006383 0.23110224
v 0.05747942 0.08795225 0.21917932
v 0.05663271 0.08851030 0.23106109
v 0.05925635 0.08351486 0.23089324
v 0.06226803 0.07646709 0.23056604
v 0.06346744 0.07317210 0.23039030
v 0.06360257 0.08097360 0.18338402
v 0.06781098 0.07301410 0.18207994
v 0.06693808 0.07308322 0.19995676
v 0.05818062 0.08867732 0.18514290
v 0.05859086 0.08818445 0.18501166
v 0.05773921 0.08891523 0.19492649
v 0.05957865 0.08694699 0.18469308
v 0.05098353 0.09545562 0.19765799
v 0.05098353 0.09509466 0.18705209
v 0.05133191 0.09515046 0.19530161
v 0.05250821 0.09405484 0.18671685
v 0.05461232 0.09235474 0.18619110
v 0.04971143 0.09643841 0.20058362
v 0.05066626 0.09572193 0.19921924
v 0.05111052 0.09551349 0.20760699
v 0.04844926 0.09729633 0.20137979
v 0.04698353 0.09814921 0.20165800
v 0.04792994 0.09799774 0.20765792
v 0.04743975 -0.10036414 0.23150557
v 0.04744364 -0.10037022 0.23162419
v 0.04765298 -0.10048380 0.23825464
v 0.04698899 -0.09996089 0.24567664
v 0.04762695 -0.09996089 0.24567664
v 0.04697998 -0.10034614 0.24186313
v 0.04687229 -0.10049259 0.23755059
v 0.04316491 -0.06770578 0.02218745
v 0.04519358 0.09901072 0.26146537
v 0.04492024 0.09583722 0.26231486
v 0.04480589 0.09572397 0.26264700
v 0.04319406 0.09755941 0.26651093
v 0.04604929 0.09749772 0.25781050
v 0.04624253 0.10040188 0.25662497
v 0.04674935 0.09943573 0.25189883
v 0.04663032 0.10126296 0.25336465
v 0.04698782 0.10070925 0.24578370
v 0.04698389 0.10263138 0.24609308
v 0.04696188 0.10116192 0.24080296
v 0.04694117 0.10317550 0.23987238
v 0.00102654 0.08758014 0.28600067
v 0.00102654 0.09187449 0.28600067
v 0.00402654 0.08753995 0.28593713
v 0.00519059 0.09191477 0.28589344
v 0.01228548 0.09209780 0.28531176
v 0.00602654 0.08753372 0.28585342
v 0.00487108 0.08754048 0.28590629
v 0.04330779 0.09446089 0.26627609
v 0.04320381 0.09438418 0.26649097
v 0.04318133 0.09755193 0.26653692
v 0.04318129 0.09436773 0.26653710
v 0.04057415 0.09628446 0.27093640
v 0.04054120 0.09273000 0.27098262
v 0.03844044 0.09551601 0.27359942
v 0.03844121 0.09171760 0.27359879
v 0.03723775 0.09515311 0.27485543
v 0.03723216 0.09121791 0.27486101
v 0.03351719 0.09425467 0.27795908
v 0.03353074 0.08998793 0.27794933
v 0.03223433 0.09400481 0.27882022
v 0.03223720 0.08964749 0.27881831
v 0.02915455 0.09349744 0.28056511
v 0.02921991 0.08899656 0.28053221
v 0.02449344 0.09291997 0.28254184
v 0.02450779 0.08829937 0.28253698
v 0.02401967 0.09287154 0.28270695
v 0.02402009 0.08824468 0.28270715
v 0.01855597 0.09242072 0.28423557
v 0.01916032 0.08783821 0.28409737
v 0.01407355 0.09217220 0.28506655
v 0.01407332 0.08761752 0.28506663
v 0.01301897 0.08759112 0.28521666
v 0.04689714 -0.09752032 0.25551823
v 0.04680473 -0.09729686 0.25615609
v 0.04887367 -0.09310421 0.25682634
v 0.05467791 -0.07889846 0.25635538
v 0.05787212 -0.07249269 0.25289372
v 0.06048894 -0.07276835 0.24469241
v 0.05202565 -0.08616340 0.25665915
v 0.04983079 -0.08527809 0.26198205
v 0.05481913 -0.07200575 0.26010138
v 0.04943730 -0.07841066 0.26642475
v 0.05135338 -0.07132274 0.26642188
v 0.05137450 -0.07132757 0.26638827
v 0.04555523 -0.09525040 0.26169607
v 0.04372699 -0.09367165 0.26623917
v 0.04683756 -0.09229568 0.26209497
v 0.04360726 -0.09358430 0.26648435
v 0.04683811 -0.08617491 0.26644105
v 0.04577665 -0.09550020 0.26098314
v 0.04762499 -0.09995031 0.24574947
v 0.04744249 -0.09917265 0.24985456
v 0.05099821 -0.09527435 0.24558750
v 0.05049325 -0.09372279 0.25124395
v 0.05169555 -0.09413939 0.24555582
v 0.05739837 -0.08199071 0.24517208
v 0.05592475 -0.08567812 0.24531299
v 0.05406258 -0.08976438 0.24543872
v 0.05160239 -0.07137635 0.26601735
v 0.04688451 -0.09924012 0.24956092
v 0.04643848 -0.09763882 0.25517243
v 0.04540762 -0.09559420 0.26072416
v 0.04489315 -0.09501177 0.26239446
v 0.04331127 -0.09366110 0.26626882
v 0.04377894 -0.09402224 0.26525059
v 0.04444567 -0.09458765 0.26362991
v 0.04460013 -0.09472871 0.26321992
v 0.04214702 -0.09698603 0.26848119
v 0.04451411 -0.09843546 0.26345026
v 0.04624252 -0.10039586 0.25662494
v 0.04521207 -0.09902105 0.26140854
v 0.04498787 -0.09881842 0.26211333
v 0.00102654 -0.09186847 0.28600064
v 0.03979299 -0.09597591 0.27198613
v 0.03844046 -0.09551033 0.27359959
v 0.03650448 -0.09494561 0.27555224
v 0.03258441 -0.09406471 0.27859384
v 0.00988549 -0.09201229 0.28557393
v 0.01407388 -0.09216646 0.28506652
v 0.01729527 -0.09233517 0.28450328
v 0.02332551 -0.09279887 0.28293899
v 0.02402019 -0.09286696 0.28270710
v 0.02831152 -0.09337223 0.28097543
v 0.03223265 -0.09399870 0.27882117
v 0.00102654 -0.08757413 0.28600064
v 0.00402654 -0.08753387 0.28593698
v 0.00487108 -0.08753446 0.28590626
v 0.00658014 -0.08752701 0.28582299
v 0.02272189 -0.08810646 0.28313082
v 0.02402245 -0.08823914 0.28270632
v 0.01406642 -0.08761100 0.28506765
v 0.01407270 -0.08761118 0.28506669
v 0.01677743 -0.08770788 0.28460515
v 0.02801494 -0.08877912 0.28111368
v 0.03223293 -0.08964041 0.27882099
v 0.03243715 -0.08969152 0.27868980
v 0.03618686 -0.09082168 0.27583954
v 0.04283678 -0.09411687 0.26722032
v 0.04254544 -0.09391844 0.26776919
v 0.03843801 -0.09170961 0.27360231
v 0.03847199 -0.09172446 0.27356458
v 0.04127298 -0.09312975 0.26990834
v 0.04304843 -0.09426591 0.26680520
v 0.04290797 -0.09416655 0.26708227
v 0.04667699 -0.10138214 0.25282922
v 0.04698389 -0.10262533 0.24609303
v 0.04693959 -0.10317188 0.23980731
v 0.04457523 -0.09394035 0.14027506
v 0.04449669 -0.09384361 0.13869365
v 0.04369561 -0.09288426 0.12256519
v 0.04448489 -0.09382921 0.13845670
v 0.04429943 -0.09359139 0.13478014
v 0.04370118 -0.09282195 0.12269276
v 0.04370108 -0.09289109 0.12268639
v 0.04353362 -0.09265690 0.11899070
v 0.04155888 -0.07623560 0.04434348
v 0.04155946 -0.07624409 0.04435996
v 0.04167962 -0.07775680 0.04706755
v 0.04154992 -0.07612342 0.04414225
v 0.04154174 -0.07602093 0.04395830
v 0.05278352 -0.09403896 0.23859030
v 0.05166973 -0.09579598 0.23124930
v 0.05028043 -0.09743800 0.23131126
v 0.05705922 -0.08626115 0.23827264
v 0.05552249 -0.09035634 0.23110962
v 0.05299084 -0.09408750 0.23120046
v 0.06137999 -0.07871231 0.23067832
v 0.05924711 -0.08352699 0.23089385
v 0.05763240 -0.08670934 0.23100770
v 0.06190104 -0.07379296 0.23764867
v 0.06226803 -0.07646104 0.23056599
v 0.06346744 -0.07316606 0.23039025
v 0.06081518 -0.07278832 0.24347633
v 0.06150213 -0.07293164 0.24059191
v 0.04048596 -0.09561279 0.10664670
v 0.04119668 -0.09662118 0.12253965
v 0.03942608 -0.09413679 0.08329749
v 0.04040339 -0.09550305 0.10490349
v 0.03657436 -0.07098466 0.02006568
v 0.03658969 -0.07108498 0.02040533
v 0.03707191 -0.07418016 0.03109699
v 0.03733236 -0.07623313 0.03687207
v 0.03759060 -0.07930879 0.04259823
v 0.03799064 -0.08443341 0.05146857
v 0.03834971 -0.08822171 0.05943056
v 0.03869428 -0.09110953 0.06707088
v 0.03882980 -0.09202020 0.07007574
v 0.03913806 -0.09349887 0.07691115
v 0.04698353 0.10144351 0.20165800
v 0.05098353 0.09908450 0.19765799
v 0.05089798 0.09917238 0.19848071
v 0.04881676 0.10054587 0.20121317
v 0.04948963 0.10014001 0.20077564
v 0.05019863 0.09967786 0.20003779
v 0.05062695 0.09937854 0.19930892
v 0.04703421 0.10144092 0.20165767
v 0.04708488 0.10143827 0.20165674
v 0.05098353 0.09856255 0.18717010
v 0.05098353 0.09424598 0.18111359
v 0.05098353 0.09503252 0.18629864
v 0.05098353 0.09509464 0.18701556
v 0.05098353 0.09390567 0.13998953
v 0.05098353 0.08995360 0.13548270
v 0.05098353 0.09020105 0.13825612
v 0.05098353 0.09777571 0.18105115
v 0.05098353 0.09774037 0.18075921
v 0.05098353 0.09421123 0.18075921
v 0.05098353 0.09768551 0.18030481
v 0.05098353 0.09416471 0.18030480
v 0.05098353 0.09763082 0.17985040
v 0.05098353 0.09411813 0.17985040
v 0.05098353 0.09035796 0.14001366
v 0.05098353 0.09215987 0.15993944
v 0.05098353 0.09582875 0.16355525
v 0.05098353 0.09307664 0.16949897
v 0.05098353 0.09371390 0.17586945
v 0.05098353 0.08958173 0.13132264
v 0.05098353 0.09249204 0.12249422
v 0.05098353 0.08881121 0.12265545
v 0.05098353 0.09086586 0.10501489
v 0.05098353 0.08448401 0.08465799
v 0.05098353 0.08995179 0.09607893
v 0.05098353 0.08874942 0.08465800
v 0.05098353 0.09443623 0.14721087
v 0.05098353 0.09035546 0.13998953
v 0.05098270 0.08447506 0.08457608
v 0.05095331 0.08872356 0.08416741
v 0.05073113 0.08460097 0.08325960
v 0.05063090 0.08888030 0.08301552
v 0.05031776 0.08494705 0.08244825
v 0.05068613 0.08884673 0.08314444
v 0.05055526 0.08474807 0.08285659
v 0.05070254 0.08462411 0.08318523
v 0.05039794 0.08902468 0.08257407
v 0.05032008 0.08907662 0.08245176
v 0.05001537 0.08521585 0.08204862
v 0.04956646 0.08958700 0.08160372
v 0.04879617 0.08626923 0.08109219
v 0.04879481 0.09009960 0.08109149
v 0.04851132 0.08650148 0.08096100
v 0.04758429 0.09085399 0.08070323
v 0.04698353 0.09120248 0.08065799
v 0.04698353 0.08764909 0.08065799
v 0.04849995 0.09028944 0.08095632
v 0.04229039 0.09320284 0.08065799
v 0.04133724 0.09034070 0.08065799
v 0.04469300 0.09232880 0.08065799
v 0.04523339 0.08872829 0.08065799
v 0.04654328 0.08794619 0.08065799
v 0.04939048 0.00000301 0.28165939
v 0.04938886 0.00126609 0.28165969
v 0.04886244 0.01732286 0.28172261
v 0.04710539 0.03175692 0.28193682
v 0.04422942 0.04416708 0.28236428
v 0.04078765 0.05375209 0.28302971
v 0.03667793 0.06143839 0.28400695
v 0.03264657 0.06662550 0.28501749
v 0.05931158 0.05603441 0.03504617
v 0.05934220 0.05605019 0.03530096
v 0.05936009 0.05727096 0.03770964
v 0.04917172 0.07106388 0.03896023
v 0.04603091 0.06936094 0.03036153
v 0.04613188 0.07521135 0.04492086
v 0.04977426 0.07383419 0.04570162
v 0.05260005 0.06937195 0.04003591
v 0.05302801 0.07194654 0.04679609
v 0.05544172 0.06711967 0.04138161
v 0.05543208 0.06983220 0.04806799
v 0.05786130 0.06080852 0.03578816
v 0.05670708 0.06824698 0.04904349
v 0.05717606 0.06754219 0.04948167
v 0.05961249 0.06243419 0.05270278
v 0.06067454 0.05669730 0.04723180
v 0.06102137 0.05858283 0.05515851
v 0.06099719 0.05683709 0.05039534
v 0.06145661 0.05733243 0.05595143
v 0.06154640 0.05709775 0.05616899
v 0.05969307 0.05622992 0.03828475
v 0.05924629 0.06092460 0.04487829
v 0.05941666 0.06293098 0.05238556
v 0.05753968 0.06694045 0.04985731
v 0.05580372 0.06382031 0.03409676
v 0.05310626 0.06624569 0.03263752
v 0.04980455 0.06809448 0.03139725
v 0.04396635 0.08037838 0.05317995
v 0.05811184 0.06823356 0.05978218
v 0.05628886 0.07346459 0.06651924
v 0.05625606 0.07206456 0.05879571
v 0.04587719 0.08667360 0.07167664
v 0.04689623 0.08706833 0.07605635
v 0.05197115 0.08208923 0.07571485
v 0.04969496 0.08509699 0.07833458
v 0.04716881 0.08747910 0.08028150
v 0.05828429 0.06749173 0.05825279
v 0.05557092 0.07193679 0.05422486
v 0.05465592 0.07150961 0.04974340
v 0.04628110 0.07664225 0.04770285
v 0.04459728 0.08594948 0.06731583
v 0.04307689 0.08497598 0.06297737
v 0.05014275 0.07396647 0.04642519
v 0.04801594 0.07796452 0.05187176
v 0.05160629 0.07500658 0.05073481
v 0.04957647 0.07896403 0.05614360
v 0.05285586 0.07573537 0.05509628
v 0.05085341 0.07967145 0.06053975
v 0.05380891 0.07615878 0.05955734
v 0.05179928 0.08014135 0.06499606
v 0.05449596 0.07631886 0.06411512
v 0.05250246 0.08034965 0.06952239
v 0.05503425 0.07622609 0.06877238
v 0.05434608 0.07785429 0.07154009
v 0.04573855 0.08161811 0.05735703
v 0.04729527 0.08258343 0.06168489
v 0.04855284 0.08332789 0.06608678
v 0.04951319 0.08383316 0.07051528
v 0.05026048 0.08403069 0.07499858
v 0.05309835 0.08022840 0.07395407
v 0.05601820 0.07655960 0.08294580
v 0.05463520 0.07905336 0.08292203
v 0.05320586 0.08133817 0.08289897
v 0.05723463 0.07163379 0.06758199
v 0.05714427 0.07433811 0.08296486
v 0.06369558 0.05827682 0.08307938
v 0.06359823 0.05855326 0.08308849
v 0.06009365 0.06473674 0.06774919
v 0.06275814 0.06086834 0.08307574
v 0.05915013 0.06995729 0.08300100
v 0.06104392 0.04942006 0.03827155
v 0.06512081 0.00000306 0.03873606
v 0.06690714 0.00000306 0.05616915
v 0.06649204 0.01588627 0.05616989
v 0.06524972 0.03174295 0.05617008
v 0.06318347 0.04757405 0.05616975
v 0.06211374 0.04236440 0.03827192
v 0.05308488 0.08670224 0.12267360
v 0.05331670 0.08390635 0.10289148
v 0.05566154 0.08330452 0.12269273
v 0.05831692 0.07546528 0.10294957
v 0.05983191 0.07586700 0.12272426
v 0.06407481 0.05854202 0.08875293
v 0.06622282 0.06001321 0.12073568
v 0.06328847 0.06806991 0.12275330
v 0.06636170 0.06010431 0.12278116
v 0.06790585 0.01158081 0.06955168
v 0.06721961 0.02349435 0.06955802
v 0.06606194 0.03545122 0.06956874
v 0.06444240 0.04735592 0.06958374
v 0.06927610 0.00000305 0.08305613
v 0.06886066 0.01590742 0.08305975
v 0.06762556 0.03170396 0.08307031
v 0.06562477 0.04714568 0.08307825
v 0.05373927 0.08774891 0.13984190
v 0.05660894 0.08408269 0.13961878
v 0.05974454 0.07889491 0.13933420
v 0.06332805 0.07143401 0.13899048
v 0.06743212 0.06084292 0.13860123
v 0.05458418 0.08896222 0.15997897
v 0.05569096 0.09033927 0.18011972
v 0.05193556 0.09357356 0.18093616
v 0.05932853 0.08438290 0.16921216
v 0.05940950 0.08612142 0.17914706
v 0.06277405 0.07875296 0.16832784
v 0.06306641 0.08081182 0.17807454
v 0.06563234 0.07294684 0.16743582
v 0.06704747 0.07344326 0.17684330
v 0.06467700 0.07245068 0.15797012
v 0.06190866 0.07821623 0.15857230
v 0.05859012 0.08383756 0.15925543
v 0.06879734 0.06194067 0.15707484
v 0.06983288 0.06238449 0.16628389
v 0.07152259 0.06246570 0.17540044
v 0.06924516 0.05315715 0.13817877
v 0.07088782 0.05388410 0.15650840
v 0.07208849 0.05423573 0.16563086
v 0.07390676 0.05458028 0.17464939
v 0.07323001 0.00000304 0.12800860
v 0.07287607 0.01506520 0.12787183
v 0.07177885 0.03042898 0.12809373
v 0.06979430 0.04563791 0.12849918
v 0.07492369 0.05052023 0.17431369
v 0.07333419 0.04687765 0.16265790
v 0.07696673 0.04026670 0.17362390
v 0.07574242 0.03130380 0.16191944
v 0.07954813 0.01579868 0.17271744
v 0.07853595 0.02867342 0.17307745
v 0.07820610 0.03158649 0.17319354
v 0.07702447 0.01551067 0.16151844
v 0.07784933 0.00000303 0.16380049
v 0.07995062 0.00000303 0.17257315
v 0.07561286 0.00000304 0.14953682
v 0.07533833 0.01536464 0.15026982
v 0.07413607 0.03101817 0.15060297
v 0.07189956 0.04647404 0.15121740
v 0.07221838 0.06210906 0.18054998
v 0.07461673 0.05426224 0.17970696
v 0.07568319 0.05004909 0.17932545
v 0.07771696 0.03991397 0.17858019
v 0.07808631 0.03761556 0.17844120
v 0.07927417 0.02843871 0.17798054
v 0.08046784 0.00000348 0.17503403
v 0.08007681 0.01890167 0.17764349
v 0.08025382 0.01581030 0.17756373
v 0.08063182 0.00000303 0.17737330
v 0.00455404 0.07691494 0.28912550
v 0.00422243 0.07693241 0.28913689
v 0.00102654 0.07704104 0.28921333
v 0.04410814 0.06966938 0.27585071
v 0.04253718 0.06927712 0.27743608
v 0.04105447 0.08120340 0.27524334
v 0.01557935 0.07547864 0.28824282
v 0.01766145 0.07575019 0.28775889
v 0.01802204 0.07488700 0.28792155
v 0.00826853 0.07661071 0.28892410
v 0.03501815 0.06728596 0.28350747
v 0.03031119 0.07848539 0.28298548
v 0.03779634 0.06804156 0.28151706
v 0.03600277 0.07985555 0.27951068
v 0.03993294 0.06860775 0.27979660
v 0.02092786 0.07399336 0.28747255
v 0.02414512 0.07711341 0.28570342
v 0.02574475 0.07188227 0.28656971
v 0.02955201 0.06939500 0.28573650
v 0.04846203 0.07070097 0.27067402
v 0.04535607 0.08250242 0.27023643
v 0.04921106 0.07917126 0.26642671
v 0.05135338 0.07132876 0.26642191
v 0.04655572 0.08691408 0.26644540
v 0.04384747 0.08835027 0.26938987
v 0.03987544 0.08702390 0.27424312
v 0.05461770 0.07917118 0.25630334
v 0.05801833 0.07251777 0.25249571
v 0.05508086 0.07206108 0.25955316
v 0.05057653 0.09593657 0.24560662
v 0.04653306 0.09303015 0.26200691
v 0.04968070 0.08580077 0.26190352
v 0.04853232 0.09381758 0.25677207
v 0.05184662 0.08667530 0.25661036
v 0.06048894 0.07277440 0.24469246
v 0.05989907 0.07470653 0.24480648
v 0.05660209 0.08404186 0.24525432
v 0.05494368 0.08791327 0.24538492
v 0.05011924 0.09441389 0.25122550
v 0.05177340 0.07141727 0.26573512
v 0.05129376 0.09480769 0.24557419
v 0.05370094 0.09049544 0.24545841
v 0.06081518 0.07279437 0.24347638
v 0.05189091 0.09536209 0.23864223
v 0.05611736 0.08820979 0.23835541
v 0.05953179 0.08045328 0.23800524
v 0.06129404 0.07289631 0.24149771
v 0.07889250 0.01866056 0.19441453
v 0.07666136 0.01832853 0.21113306
v 0.07508136 0.03714035 0.21131501
v 0.07729541 0.00000332 0.20894550
v 0.06902760 0.06477581 0.21114510
v 0.07058316 0.06485175 0.19426435
v 0.06116669 0.07155370 0.24346711
v 0.06302935 0.06417000 0.24341434
v 0.06652690 0.06466370 0.22789016
v 0.06374867 0.06086472 0.24339363
v 0.06486955 0.05501861 0.24336138
v 0.07326177 0.01790098 0.22762331
v 0.07469150 0.00000347 0.22265162
v 0.07163785 0.00000299 0.23478182
v 0.06877588 0.05548679 0.22791469
v 0.07052049 0.04618164 0.22790688
v 0.06590883 0.04855080 0.24333248
v 0.07181463 0.03679561 0.22785997
v 0.06751294 0.03497860 0.24329704
v 0.06856655 0.01948178 0.24329957
v 0.06898320 0.00000302 0.24332584
v 0.07933080 0.00000330 0.19357143
v 0.07554621 0.04669055 0.19452849
v 0.07714004 0.03741272 0.19455841
v 0.07338168 0.05586335 0.19442385
v 0.07161222 0.05570683 0.21125129
v 0.07361291 0.04647050 0.21131307
v 0.06272911 0.05471772 0.24971548
v 0.05055841 0.05230118 0.27316743
v 0.04831278 0.04229921 0.27834105
v 0.04655216 0.05135508 0.27818224
v 0.04216073 0.05026678 0.28277057
v 0.05118915 0.02405020 0.27790770
v 0.04987222 0.03319953 0.27826440
v 0.05357151 0.03402027 0.27291390
v 0.05070545 0.00000372 0.27986762
v 0.05585022 0.00000378 0.27206716
v 0.06458866 0.01754293 0.25399375
v 0.06491311 0.00000331 0.25412148
v 0.06059735 0.00000355 0.26348850
v 0.06276948 0.03597276 0.25524020
v 0.06023785 0.05430666 0.25596827
v 0.05739226 0.05377302 0.26200143
v 0.05417039 0.05310644 0.26775587
v 0.05224259 0.01484862 0.27727941
v 0.05576793 0.01559561 0.27176622
v 0.05899191 0.01628900 0.26603037
v 0.05693841 0.03475158 0.26726583
v 0.04886245 -0.01731685 0.28172261
v 0.04710539 -0.03175089 0.28193679
v 0.04938886 -0.00126008 0.28165969
v 0.04078766 -0.05374608 0.28302968
v 0.04422942 -0.04416106 0.28236425
v 0.03667793 -0.06143237 0.28400692
v 0.03264657 -0.06661949 0.28501746
v 0.04141783 -0.09690446 0.12700757
v 0.04595563 -0.07525865 0.04489162
v 0.05923923 -0.06093637 0.04486835
v 0.05935382 -0.05728341 0.03769957
v 0.05784818 -0.06082693 0.03577466
v 0.06152381 -0.05714197 0.05612195
v 0.06154640 -0.05709163 0.05616897
v 0.06052713 -0.05662499 0.04582585
v 0.04596188 -0.06937191 0.03034529
v 0.05306868 -0.06626612 0.03262078
v 0.04975151 -0.06811139 0.03138031
v 0.05928651 -0.05601791 0.03484137
v 0.05578018 -0.06384111 0.03408113
v 0.06116504 -0.05817486 0.05542387
v 0.05751932 -0.06697068 0.04983452
v 0.05541692 -0.06713859 0.04136692
v 0.05540404 -0.06985507 0.04805079
v 0.05256059 -0.06939039 0.04002082
v 0.05299421 -0.07196618 0.04678231
v 0.05000434 -0.07371838 0.04576470
v 0.04911719 -0.07107858 0.03894620
v 0.04853049 -0.07436762 0.04539588
v 0.05941666 -0.06292484 0.05238553
v 0.05540559 -0.07556988 0.06902526
v 0.05327107 -0.07926314 0.06955610
v 0.05444268 -0.07764958 0.07133242
v 0.04526186 -0.07954327 0.05248198
v 0.04479787 -0.08408675 0.06245334
v 0.04420566 -0.08934928 0.08181199
v 0.04739375 -0.08729486 0.08013833
v 0.04487514 -0.08842324 0.07707538
v 0.04327356 -0.08978821 0.08218502
v 0.04367767 -0.08798029 0.07259813
v 0.04703656 -0.08075611 0.05680642
v 0.04895920 -0.07713626 0.05129426
v 0.05224405 -0.07423354 0.05025233
v 0.05502858 -0.07086844 0.04933864
v 0.05556472 -0.07520504 0.06860410
v 0.05261005 -0.07915138 0.06485824
v 0.05062015 -0.08275072 0.07041733
v 0.04744118 -0.08566026 0.07146099
v 0.04835539 -0.08597384 0.07600683
v 0.05234310 -0.08149733 0.07517482
v 0.05150379 -0.08277886 0.07634541
v 0.05009459 -0.08462857 0.07795277
v 0.04855989 -0.08166809 0.06128293
v 0.05172253 -0.07875565 0.06024837
v 0.05049742 -0.07810251 0.05570964
v 0.05438172 -0.07530916 0.05936934
v 0.05346378 -0.07493497 0.05476056
v 0.05660504 -0.07135651 0.05869325
v 0.05593105 -0.07126782 0.05397054
v 0.04974243 -0.08233936 0.06582961
v 0.04626476 -0.08500277 0.06694750
v 0.05633761 -0.07333677 0.06637602
v 0.05826820 -0.06769443 0.05906250
v 0.05846688 -0.06698779 0.05810083
v 0.05979538 -0.06387512 0.06021704
v 0.04329830 -0.08982588 0.08272012
v 0.04484347 -0.08911638 0.08275126
v 0.04814424 -0.08700053 0.08281484
v 0.04997185 -0.08535860 0.08284749
v 0.05056568 -0.08473061 0.08285762
v 0.05278999 -0.08193015 0.08289401
v 0.05575212 -0.07705875 0.08294250
v 0.05904432 -0.07019289 0.08299938
v 0.05789406 -0.07015769 0.06761167
v 0.06040996 -0.06387882 0.06777417
v 0.06367619 -0.05832724 0.08307979
v 0.06369558 -0.05827071 0.08307935
v 0.06320971 -0.05962338 0.08307367
v 0.06376225 -0.02817405 0.03827385
v 0.06211374 -0.04235825 0.03827190
v 0.06523928 -0.03183640 0.05616995
v 0.06649080 -0.01590447 0.05616984
v 0.06104392 -0.04941392 0.03827152
v 0.06315559 -0.04774557 0.05616964
v 0.06387467 -0.04292719 0.05616978
v 0.04659702 -0.08848168 0.08680432
v 0.05077401 -0.08497901 0.08687305
v 0.05822603 -0.07277544 0.08698620
v 0.05343758 -0.08154656 0.08691229
v 0.06406770 -0.05853062 0.08864737
v 0.06636170 -0.06009823 0.12278114
v 0.06624576 -0.06002178 0.12107531
v 0.06258135 -0.06976744 0.12274708
v 0.06036083 -0.07475819 0.12272844
v 0.05917184 -0.07365494 0.10284929
v 0.05430340 -0.08250123 0.10279155
v 0.05539183 -0.08369895 0.12269068
v 0.05159890 -0.08596223 0.10276054
v 0.05263584 -0.08719587 0.12266989
v 0.04736218 -0.08949079 0.10270366
v 0.04832398 -0.09075695 0.12262772
v 0.06537870 -0.04870163 0.08307878
v 0.06444240 -0.04734979 0.06958372
v 0.06790585 -0.01157470 0.06955168
v 0.06886067 -0.01590355 0.08306101
v 0.06611013 -0.04389624 0.08307687
v 0.06760230 -0.03192009 0.08306979
v 0.06606194 -0.03544511 0.06956872
v 0.06721961 -0.02348821 0.06955801
v 0.04418899 -0.09332335 0.13058770
v 0.04391123 -0.09282195 0.12268329
v 0.04903216 -0.09175146 0.14011222
v 0.05075435 -0.09053299 0.14002612
v 0.05913787 -0.07999003 0.13939117
v 0.05637232 -0.08441755 0.13963877
v 0.05306900 -0.08845511 0.13988739
v 0.06332805 -0.07142791 0.13899043
v 0.06368675 -0.07059097 0.13895588
v 0.06743212 -0.06083682 0.13860120
v 0.05173722 -0.09162617 0.16047516
v 0.05709279 -0.08595828 0.15961955
v 0.06130341 -0.07934944 0.15877497
v 0.06467700 -0.07244460 0.15797007
v 0.06215116 -0.07989145 0.16860548
v 0.06563234 -0.07294077 0.16743578
v 0.06307156 -0.08079720 0.17807259
v 0.06704747 -0.07343719 0.17684326
v 0.05940462 -0.08612145 0.17914821
v 0.05567289 -0.09035034 0.18012385
v 0.05301255 -0.09273509 0.18072031
v 0.04643693 -0.09673179 0.18178235
v 0.04770603 -0.09615100 0.18162644
v 0.05151492 -0.09387071 0.18101597
v 0.07152259 -0.06245963 0.17540041
v 0.06983285 -0.06237844 0.16628386
v 0.06879734 -0.06193459 0.15707481
v 0.07390676 -0.05457420 0.17464936
v 0.07208849 -0.05422965 0.16563083
v 0.07088782 -0.05387801 0.15650837
v 0.06924516 -0.05315107 0.13817875
v 0.07287607 -0.01505911 0.12787181
v 0.07533833 -0.01535857 0.15026981
v 0.07177885 -0.03042289 0.12809372
v 0.07954600 -0.01584596 0.17271909
v 0.07702447 -0.01550460 0.16151842
v 0.07852592 -0.02874178 0.17308131
v 0.07574242 -0.03129772 0.16191943
v 0.07820334 -0.03157998 0.17319454
v 0.07333419 -0.04687158 0.16265789
v 0.07488842 -0.05066533 0.17432551
v 0.07694098 -0.04041103 0.17363261
v 0.07189956 -0.04646796 0.15121739
v 0.06979430 -0.04563182 0.12849917
v 0.07413607 -0.03101209 0.15060295
v 0.04875430 -0.09633548 0.18746828
v 0.06781098 -0.07300804 0.18207990
v 0.06362607 -0.08065651 0.18082170
v 0.06360257 -0.08096752 0.18338397
v 0.04987520 -0.09541441 0.18444040
v 0.05316426 -0.09319348 0.18385319
v 0.05889312 -0.08748541 0.18236661
v 0.06011851 -0.08622722 0.18451789
v 0.05859086 -0.08817837 0.18501161
v 0.05485662 -0.09212927 0.18612207
v 0.05250821 -0.09404878 0.18671681
v 0.07221838 -0.06210298 0.18054995
v 0.07461673 -0.05425618 0.17970693
v 0.07539964 -0.05121909 0.17942730
v 0.07770498 -0.03998200 0.17858516
v 0.07808728 -0.03760988 0.17844149
v 0.07926850 -0.02849025 0.17798291
v 0.08007690 -0.01889569 0.17764355
v 0.08034698 -0.01384667 0.17752048
v 0.08024378 -0.01600305 0.17756842
v 0.04914361 -0.09658168 0.19539198
v 0.05233787 -0.09437083 0.19524980
v 0.05833540 -0.08816384 0.19488814
v 0.06309753 -0.08008109 0.20663956
v 0.06242945 -0.07939249 0.21870741
v 0.06529967 -0.07313906 0.21723172
v 0.06687217 -0.07307808 0.20087731
v 0.06496152 -0.07315510 0.21997571
v 0.05800679 -0.08715623 0.21913388
v 0.05263679 -0.09424769 0.21952713
v 0.04901842 -0.09721194 0.20766115
v 0.05812081 -0.08786125 0.20711428
v 0.05209859 -0.09461267 0.20756093
v 0.00102654 -0.07703502 0.28921330
v 0.00422243 -0.07692639 0.28913686
v 0.00455404 -0.07690892 0.28912547
v 0.04384672 -0.08834675 0.26938948
v 0.04804816 -0.07060263 0.27122265
v 0.04535579 -0.08249766 0.27023622
v 0.04407002 -0.06965405 0.27589071
v 0.04105425 -0.08119863 0.27524307
v 0.03600259 -0.07985079 0.27951041
v 0.03906013 -0.06837067 0.28052148
v 0.04253718 -0.06927094 0.27743602
v 0.03031106 -0.07848070 0.28298515
v 0.03405908 -0.06701422 0.28413734
v 0.03779668 -0.06803439 0.28151706
v 0.02082795 -0.07402206 0.28748915
v 0.02562949 -0.07193825 0.28659356
v 0.02414503 -0.07710878 0.28570306
v 0.02944410 -0.06947250 0.28576106
v 0.01766140 -0.07574562 0.28775844
v 0.01540994 -0.07550947 0.28826311
v 0.01802208 -0.07488120 0.28792140
v 0.00826853 -0.07660470 0.28892407
v 0.00961459 -0.07645518 0.28882805
v 0.02962833 -0.08457229 0.28162998
v 0.03509532 -0.08575353 0.27834383
v 0.03987484 -0.08702037 0.27424264
v 0.07889250 -0.01865460 0.19441451
v 0.07714001 -0.03740688 0.19455840
v 0.07508133 -0.03713452 0.21131499
v 0.06115478 -0.07159009 0.24346736
v 0.06302930 -0.06416436 0.24341431
v 0.06652680 -0.06465804 0.22789013
v 0.07554616 -0.04668479 0.19452848
v 0.06902747 -0.06477012 0.21114507
v 0.07058303 -0.06484605 0.19426432
v 0.07338160 -0.05585761 0.19442382
v 0.07666136 -0.01832260 0.21113305
v 0.07326177 -0.01789503 0.22762330
v 0.06856088 -0.01960024 0.24329941
v 0.06967652 -0.03655710 0.23600505
v 0.06374449 -0.06087929 0.24339366
v 0.06487865 -0.05496111 0.24336112
v 0.06689639 -0.05527198 0.23613411
v 0.06587870 -0.04875061 0.24333327
v 0.06751359 -0.03496614 0.24329697
v 0.06877581 -0.05548107 0.22791466
v 0.07052045 -0.04617589 0.22790687
v 0.07361285 -0.04646473 0.21131305
v 0.07181460 -0.03678980 0.22785996
v 0.07161214 -0.05570110 0.21125126
v 0.04987222 -0.03319350 0.27826437
v 0.05860529 -0.06336766 0.25608873
v 0.04216073 -0.05026076 0.28277054
v 0.04655216 -0.05134905 0.27818221
v 0.05417039 -0.05310041 0.26775584
v 0.05055841 -0.05229515 0.27316740
v 0.06023785 -0.05430063 0.25596824
v 0.05739226 -0.05376700 0.26200140
v 0.06458866 -0.01753691 0.25399375
v 0.05899191 -0.01628298 0.26603037
v 0.05224259 -0.01484260 0.27727941
v 0.05118915 -0.02404419 0.27790767
v 0.05357151 -0.03401426 0.27291387
v 0.05806741 -0.02552137 0.26674169
v 0.05693841 -0.03474554 0.26726580
v 0.06276948 -0.03596672 0.25524017
f 14 15 16
f 16 15 17
f 16 17 18
f 18 17 19
f 18 19 20
f 98 20 19
f 98 19 99
f 99 19 100
f 99 100 101
f 101 849 99
f 256 99 849
f 256 363 99
f 243 363 256
f 256 242 243
f 242 256 253
f 242 253 241
f 241 253 181
f 241 181 180
f 180 181 174
f 174 181 182
f 174 182 173
f 173 12 174
f 174 12 13
f 174 13 168
f 168 16 174
f 16 168 169
f 169 170 16
f 16 170 171
f 170 3 171
f 171 3 165
f 3 2 165
f 165 2 166
f 165 166 167
f 14 165 167
f 14 171 165
f 170 4 3
f 169 4 170
f 169 5 4
f 168 5 169
f 168 6 5
f 174 16 179
f 168 13 6
f 173 11 12
f 172 11 173
f 172 10 11
f 9 10 172
f 172 178 9
f 172 184 178
f 178 184 185
f 178 185 175
f 175 185 186
f 186 185 245
f 186 245 244
f 244 187 186
f 293 187 244
f 248 293 244
f 249 293 248
f 248 247 249
f 247 848 249
f 247 852 848
f 246 852 247
f 245 246 247
f 245 252 246
f 845 246 252
f 845 252 853
f 853 252 251
f 853 251 850
f 858 853 850
f 858 850 861
f 861 850 851
f 861 851 849
f 102 861 849
f 104 861 102
f 102 103 104
f 102 100 103
f 103 108 104
f 108 862 104
f 108 842 862
f 107 842 108
f 107 494 842
f 495 494 107
f 491 842 494
f 491 492 842
f 492 875 842
f 492 867 875
f 867 888 875
f 875 888 890
f 888 889 890
f 890 889 891
f 889 895 891
f 891 895 896
f 891 896 892
f 892 896 897
f 892 897 855
f 855 897 863
f 863 843 855
f 863 848 843
f 854 848 863
f 846 848 854
f 898 846 854
f 898 847 846
f 908 847 898
f 896 908 898
f 907 908 896
f 907 906 908
f 908 906 911
f 908 911 909
f 923 909 911
f 923 911 921
f 921 928 923
f 921 929 928
f 922 929 921
f 922 931 929
f 930 929 931
f 927 929 930
f 947 927 930
f 947 926 927
f 950 926 947
f 947 956 950
f 955 956 947
f 948 955 947
f 948 954 955
f 954 957 955
f 954 959 957
f 961 959 954
f 961 954 962
f 962 954 953
f 962 953 963
f 953 966 963
f 953 965 966
f 75 965 953
f 75 964 965
f 964 74 965
f 965 74 50
f 48 50 74
f 48 49 50
f 48 47 49
f 46 47 48
f 46 45 47
f 988 47 45
f 45 43 988
f 42 988 43
f 42 1008 988
f 64 1008 42
f 65 1008 64
f 64 46 65
f 73 65 46
f 72 65 73
f 72 71 65
f 70 71 72
f 70 69 71
f 69 498 71
f 69 67 498
f 68 67 69
f 66 67 68
f 66 68 356
f 356 68 298
f 356 298 357
f 357 498 356
f 357 496 498
f 358 496 357
f 360 496 358
f 360 428 496
f 426 428 360
f 360 359 426
f 426 359 435
f 426 435 427
f 427 435 408
f 427 408 429
f 429 408 410
f 408 409 410
f 410 409 422
f 414 410 422
f 414 422 415
f 415 422 424
f 422 423 424
f 422 421 423
f 420 421 422
f 441 421 420
f 441 420 442
f 442 420 438
f 425 438 420
f 425 437 438
f 409 437 425
f 409 436 437
f 440 421 441
f 422 425 420
f 440 423 421
f 439 423 440
f 439 303 423
f 304 303 439
f 1024 423 303
f 303 474 1024
f 1024 474 477
f 449 477 474
f 474 443 449
f 473 443 474
f 479 443 473
f 478 443 479
f 478 444 443
f 305 444 478
f 305 478 303
f 303 304 305
f 304 439 305
f 305 439 444
f 439 440 444
f 440 441 444
f 444 441 442
f 444 442 447
f 447 442 438
f 447 438 446
f 446 438 437
f 446 437 445
f 445 437 436
f 445 436 480
f 480 436 435
f 480 435 481
f 481 435 359
f 481 359 482
f 361 482 359
f 362 482 361
f 362 297 482
f 298 297 362
f 68 297 298
f 68 296 297
f 26 296 68
f 295 296 26
f 26 24 295
f 295 24 22
f 295 22 299
f 299 22 40
f 299 40 30
f 38 299 30
f 36 299 38
f 36 302 299
f 34 302 36
f 34 301 302
f 300 301 34
f 841 300 34
f 32 841 34
f 31 841 32
f 31 511 841
f 41 511 31
f 510 511 41
f 41 59 510
f 59 513 510
f 59 512 513
f 83 512 59
f 83 523 512
f 83 522 523
f 81 522 83
f 81 521 522
f 95 521 81
f 95 520 521
f 94 520 95
f 94 519 520
f 89 519 94
f 89 518 519
f 88 518 89
f 88 517 518
f 103 517 88
f 103 516 517
f 100 516 103
f 100 515 516
f 19 515 100
f 19 514 515
f 235 514 19
f 17 235 19
f 15 235 17
f 15 228 235
f 14 228 15
f 14 229 228
f 166 229 14
f 166 233 229
f 2 233 166
f 2 232 233
f 1 232 2
f 14 167 166
f 41 52 59
f 33 52 41
f 33 54 52
f 77 54 33
f 33 35 77
f 35 37 77
f 77 37 27
f 37 39 27
f 77 27 48
f 48 27 29
f 48 29 46
f 46 29 21
f 46 21 23
f 23 73 46
f 25 73 23
f 38 30 28
f 70 26 68
f 70 72 26
f 303 478 479
f 479 473 303
f 449 476 477
f 450 476 449
f 450 475 476
f 472 475 450
f 472 1046 475
f 472 1045 1046
f 471 1045 472
f 451 471 472
f 452 471 451
f 452 470 471
f 459 470 452
f 459 469 470
f 458 469 459
f 458 465 469
f 1044 469 465
f 1037 1044 465
f 1037 465 464
f 468 1037 464
f 1039 1037 468
f 1039 1035 1037
f 1035 1036 1037
f 1037 1036 1038
f 1037 1038 1032
f 1032 1038 840
f 1032 840 1033
f 1032 1033 1029
f 1029 1033 1034
f 1033 839 1034
f 1034 839 837
f 1034 837 1073
f 1034 1073 1030
f 1030 1073 1074
f 1073 838 1074
f 1074 838 1071
f 838 835 1071
f 835 834 1071
f 1071 834 1082
f 834 1081 1082
f 834 822 1081
f 836 822 834
f 836 821 822
f 821 586 822
f 586 830 822
f 822 830 831
f 830 818 831
f 831 818 820
f 818 819 820
f 818 588 819
f 588 589 819
f 819 589 815
f 816 815 589
f 814 815 816
f 742 814 816
f 742 816 743
f 743 816 753
f 752 743 753
f 751 752 753
f 753 817 751
f 751 817 590
f 751 590 591
f 751 591 749
f 749 591 592
f 757 749 592
f 757 750 749
f 756 750 757
f 756 755 750
f 754 755 756
f 754 746 755
f 747 746 754
f 745 746 747
f 745 406 746
f 745 407 406
f 748 407 745
f 748 381 407
f 380 407 381
f 380 381 379
f 379 381 382
f 739 382 381
f 382 739 378
f 378 739 740
f 378 740 376
f 376 377 378
f 378 377 379
f 376 740 741
f 379 382 378
f 739 381 748
f 380 406 407
f 405 406 380
f 405 404 406
f 403 404 405
f 403 402 404
f 401 402 403
f 401 400 402
f 399 400 401
f 399 398 400
f 750 400 398
f 750 398 752
f 752 398 396
f 397 396 398
f 395 396 397
f 395 394 396
f 393 394 395
f 393 392 394
f 391 392 393
f 391 390 392
f 390 764 392
f 390 763 764
f 388 763 390
f 389 388 390
f 387 388 389
f 387 386 388
f 385 386 387
f 385 384 386
f 384 762 386
f 383 762 384
f 367 383 384
f 366 383 367
f 366 769 383
f 366 365 769
f 769 365 368
f 365 364 368
f 368 364 369
f 368 369 370
f 370 369 371
f 370 371 372
f 372 371 373
f 372 373 374
f 768 372 374
f 782 768 374
f 779 768 782
f 779 782 780
f 780 782 783
f 782 332 783
f 782 331 332
f 331 330 332
f 330 331 328
f 328 311 330
f 328 320 311
f 313 320 328
f 328 329 313
f 329 314 313
f 312 313 314
f 329 375 314
f 374 375 329
f 328 374 329
f 312 320 313
f 312 319 320
f 318 319 312
f 318 310 319
f 319 310 311
f 308 310 318
f 317 308 318
f 317 318 315
f 315 316 317
f 316 307 317
f 316 355 307
f 354 355 316
f 354 353 355
f 355 353 352
f 355 352 330
f 330 352 323
f 352 347 323
f 352 345 347
f 351 345 352
f 526 345 351
f 525 345 526
f 345 525 346
f 346 525 533
f 533 536 346
f 533 535 536
f 534 535 533
f 533 540 534
f 534 540 541
f 534 541 542
f 542 541 543
f 542 543 544
f 544 693 542
f 546 693 544
f 546 551 693
f 551 550 693
f 693 550 692
f 550 548 692
f 549 548 550
f 549 550 545
f 547 548 549
f 687 548 547
f 687 547 560
f 547 537 560
f 560 537 539
f 537 538 539
f 538 537 552
f 552 537 553
f 552 553 554
f 552 554 670
f 670 554 671
f 671 554 556
f 554 555 556
f 556 555 557
f 556 557 558
f 556 558 561
f 561 558 562
f 561 562 563
f 562 568 563
f 655 563 568
f 655 568 567
f 567 627 655
f 565 627 567
f 571 627 565
f 565 570 571
f 565 569 570
f 564 569 565
f 564 565 566
f 571 570 572
f 571 572 573
f 573 572 574
f 573 574 575
f 627 573 575
f 627 575 628
f 625 627 628
f 625 628 584
f 628 578 584
f 625 584 126
f 126 584 583
f 577 583 584
f 577 584 578
f 576 577 578
f 578 579 576
f 578 574 579
f 582 583 577
f 582 581 583
f 580 581 582
f 580 274 581
f 275 274 580
f 126 583 581
f 277 126 581
f 135 126 277
f 277 278 135
f 135 278 279
f 135 279 129
f 129 127 135
f 279 281 129
f 129 281 282
f 129 282 133
f 133 282 283
f 133 283 120
f 120 283 284
f 120 284 122
f 284 285 122
f 122 285 286
f 122 286 124
f 124 286 287
f 124 287 116
f 116 287 280
f 116 280 109
f 109 280 110
f 280 136 110
f 240 136 280
f 240 259 136
f 200 259 240
f 230 200 240
f 226 200 230
f 226 139 200
f 139 138 200
f 227 139 226
f 227 141 139
f 234 141 227
f 234 222 141
f 231 222 234
f 277 276 278
f 274 276 277
f 274 275 276
f 277 581 274
f 126 624 625
f 624 650 625
f 624 649 650
f 642 650 649
f 644 650 642
f 644 652 650
f 646 652 644
f 654 652 646
f 654 626 652
f 655 626 654
f 671 655 654
f 671 654 673
f 673 654 653
f 673 653 657
f 657 662 673
f 673 662 675
f 662 661 675
f 656 661 662
f 660 661 656
f 656 622 660
f 660 622 621
f 660 621 615
f 607 660 615
f 609 660 607
f 607 608 609
f 609 608 610
f 609 610 611
f 611 610 612
f 610 668 612
f 610 669 668
f 667 668 669
f 288 667 669
f 291 667 288
f 206 291 288
f 204 291 206
f 205 204 206
f 203 204 205
f 203 198 204
f 204 198 191
f 204 191 190
f 189 190 191
f 197 189 191
f 196 189 197
f 197 225 196
f 197 236 225
f 198 236 197
f 236 217 225
f 217 236 218
f 218 236 203
f 218 203 219
f 219 203 220
f 196 225 224
f 196 224 194
f 194 224 223
f 194 223 188
f 188 193 194
f 194 193 195
f 188 192 193
f 187 192 188
f 176 187 188
f 177 176 188
f 175 176 177
f 7 175 177
f 7 177 8
f 9 175 7
f 188 8 177
f 188 223 8
f 194 195 196
f 196 195 189
f 189 195 292
f 292 195 193
f 292 193 294
f 294 912 292
f 292 912 664
f 292 664 290
f 664 666 290
f 290 666 291
f 664 665 666
f 665 679 666
f 665 683 679
f 683 665 937
f 937 665 915
f 912 915 665
f 912 914 915
f 942 915 914
f 942 914 941
f 941 938 942
f 942 938 937
f 941 940 938
f 939 940 941
f 976 940 939
f 974 940 976
f 975 974 976
f 975 711 974
f 725 711 975
f 978 725 975
f 723 725 978
f 977 723 978
f 977 978 979
f 1004 977 979
f 1004 979 981
f 979 980 981
f 981 980 982
f 982 984 981
f 984 1003 981
f 984 1002 1003
f 1048 1003 1002
f 1002 1053 1048
f 1048 1053 1068
f 1070 1068 1053
f 1070 1053 1056
f 1056 1053 1001
f 1056 1001 1000
f 983 1000 1001
f 970 1000 983
f 970 983 982
f 982 971 970
f 982 985 971
f 985 972 971
f 973 972 985
f 952 972 973
f 969 972 952
f 951 969 952
f 956 969 951
f 956 968 969
f 958 968 956
f 956 957 958
f 958 967 968
f 967 970 968
f 960 967 958
f 958 959 960
f 959 989 960
f 959 990 989
f 989 990 991
f 991 990 995
f 995 990 994
f 995 994 996
f 995 996 1011
f 1011 996 1010
f 997 1010 996
f 997 1009 1010
f 998 1009 997
f 998 1008 1009
f 1009 1008 1018
f 1009 1018 1020
f 1020 1018 498
f 1020 498 497
f 1017 1020 497
f 1016 1020 1017
f 1016 1019 1020
f 1012 1019 1016
f 503 1012 1016
f 502 1012 503
f 1012 502 506
f 1015 1012 506
f 1015 506 507
f 506 505 507
f 505 509 507
f 505 508 509
f 413 508 505
f 1050 508 413
f 413 1051 1050
f 1050 1051 1052
f 1052 507 1050
f 1051 1061 1052
f 1072 1061 1051
f 1072 1077 1061
f 1077 1062 1061
f 1077 1064 1062
f 1063 1062 1064
f 1063 1064 1060
f 1060 1064 1065
f 1086 1065 1064
f 1086 1079 1065
f 1079 1059 1065
f 1059 1079 824
f 824 806 1059
f 1059 806 799
f 805 799 806
f 805 797 799
f 797 798 799
f 797 787 798
f 798 787 789
f 789 1058 798
f 789 1057 1058
f 807 1057 789
f 807 1047 1057
f 1057 1047 1049
f 1047 1048 1049
f 1047 1004 1048
f 1047 1005 1004
f 1047 1007 1005
f 1007 977 1005
f 1006 977 1007
f 1006 735 977
f 735 724 977
f 719 724 735
f 737 719 735
f 737 735 738
f 807 737 738
f 807 786 737
f 786 736 737
f 786 734 736
f 786 809 734
f 788 809 786
f 788 808 809
f 808 732 809
f 809 732 733
f 732 717 733
f 733 717 734
f 717 721 734
f 718 721 717
f 718 720 721
f 719 720 718
f 718 722 719
f 727 722 718
f 727 718 728
f 714 727 728
f 713 727 714
f 713 726 727
f 712 726 713
f 684 712 713
f 684 713 685
f 680 684 685
f 680 685 681
f 681 685 686
f 681 686 682
f 682 686 658
f 682 658 668
f 675 658 686
f 675 659 658
f 658 659 660
f 660 612 658
f 675 686 676
f 676 686 714
f 676 714 678
f 678 714 707
f 678 707 691
f 691 707 708
f 691 708 704
f 690 691 704
f 690 704 701
f 689 690 701
f 689 677 690
f 690 677 678
f 689 674 677
f 688 674 689
f 688 672 674
f 687 672 688
f 687 670 672
f 688 692 687
f 688 703 692
f 695 692 703
f 695 703 697
f 697 703 702
f 697 702 699
f 699 702 701
f 701 705 699
f 699 705 706
f 705 710 706
f 730 706 710
f 730 710 731
f 730 731 808
f 810 730 808
f 791 730 810
f 791 729 730
f 339 729 791
f 791 340 339
f 790 340 791
f 324 340 790
f 325 324 790
f 324 325 326
f 336 326 325
f 336 325 337
f 336 337 784
f 784 337 785
f 792 785 337
f 792 337 793
f 793 337 794
f 793 794 795
f 795 794 796
f 794 800 796
f 794 790 800
f 800 790 811
f 800 811 801
f 801 811 812
f 801 812 803
f 803 812 788
f 803 788 797
f 804 803 797
f 802 803 804
f 802 804 813
f 804 827 813
f 804 826 827
f 826 828 827
f 826 833 828
f 823 833 826
f 823 832 833
f 832 820 833
f 820 814 833
f 833 814 829
f 761 829 814
f 761 814 758
f 758 760 761
f 758 759 760
f 759 763 760
f 760 763 762
f 760 762 770
f 770 762 769
f 770 769 771
f 771 772 770
f 770 772 767
f 765 767 772
f 765 766 767
f 774 766 765
f 774 765 775
f 783 774 775
f 783 775 776
f 775 772 776
f 772 780 776
f 784 774 783
f 783 334 784
f 784 334 335
f 334 326 335
f 334 333 326
f 333 322 326
f 326 322 340
f 321 340 322
f 321 322 323
f 323 343 321
f 321 343 344
f 321 344 338
f 338 339 321
f 338 700 339
f 338 698 700
f 698 699 700
f 344 698 338
f 344 696 698
f 696 697 698
f 693 696 344
f 344 342 693
f 341 693 342
f 341 342 343
f 343 349 341
f 343 348 349
f 347 348 343
f 347 346 348
f 348 694 349
f 348 535 694
f 349 694 693
f 349 693 341
f 693 695 696
f 343 342 344
f 333 323 322
f 332 333 334
f 784 781 774
f 781 773 774
f 773 781 792
f 773 766 774
f 766 773 796
f 813 766 796
f 828 767 766
f 828 778 767
f 760 767 778
f 828 829 778
f 775 765 772
f 771 777 772
f 777 779 772
f 370 777 771
f 370 768 777
f 770 767 760
f 744 759 758
f 744 764 759
f 742 744 758
f 760 778 761
f 778 829 761
f 825 832 823
f 825 831 832
f 823 824 825
f 824 1080 825
f 825 1080 1081
f 824 823 805
f 805 823 826
f 833 829 828
f 827 828 766
f 805 826 804
f 827 766 813
f 813 796 802
f 796 801 802
f 802 801 803
f 811 810 812
f 796 800 801
f 773 795 796
f 773 793 795
f 792 793 773
f 781 785 792
f 785 781 784
f 784 335 336
f 337 325 794
f 335 326 336
f 794 325 790
f 326 340 324
f 790 791 811
f 321 339 340
f 339 700 729
f 729 700 706
f 811 791 810
f 812 810 808
f 731 710 715
f 731 715 732
f 710 709 715
f 715 709 716
f 708 716 709
f 728 716 708
f 715 716 717
f 729 706 730
f 705 709 710
f 704 709 705
f 699 706 700
f 698 697 699
f 689 702 703
f 696 695 697
f 672 673 674
f 689 703 688
f 674 676 677
f 701 702 689
f 701 704 705
f 704 708 709
f 690 678 691
f 708 707 714
f 677 676 678
f 674 675 676
f 667 681 682
f 666 681 667
f 685 714 686
f 666 680 681
f 679 684 680
f 683 712 684
f 683 711 712
f 712 725 726
f 685 713 714
f 714 728 708
f 728 718 716
f 726 722 727
f 726 723 722
f 719 722 723
f 736 720 719
f 717 716 718
f 734 721 720
f 732 715 717
f 808 731 732
f 812 808 788
f 786 787 788
f 809 733 734
f 734 720 736
f 738 1006 807
f 736 719 737
f 719 723 724
f 738 735 1006
f 1006 1007 1047
f 807 1006 1047
f 789 786 807
f 1057 1049 1058
f 1058 1049 1069
f 1058 1069 1060
f 1060 1059 1058
f 1060 1069 1067
f 1049 1067 1069
f 1049 1068 1067
f 1066 1067 1068
f 1063 1067 1066
f 1063 1066 1052
f 1052 1066 1070
f 1052 1070 1054
f 1052 1054 1013
f 1013 1054 1055
f 1054 1056 1055
f 1055 1056 999
f 1055 999 1014
f 1014 999 989
f 1013 1055 1014
f 1012 1013 1014
f 1014 1011 1012
f 1014 991 1011
f 1013 1015 1052
f 787 786 789
f 797 788 787
f 1058 799 798
f 804 797 805
f 1058 1059 799
f 805 806 824
f 824 1079 1080
f 1084 1080 1079
f 1082 1080 1084
f 1083 1082 1084
f 1083 1084 1085
f 1075 1083 1085
f 1076 1083 1075
f 1075 1025 1076
f 1076 1025 1027
f 1076 1027 1074
f 1074 1027 1031
f 1028 1031 1027
f 1028 1030 1031
f 1029 1030 1028
f 1028 1046 1029
f 1028 1024 1046
f 1026 1024 1028
f 1026 424 1024
f 417 424 1026
f 1025 417 1026
f 418 417 1025
f 417 418 419
f 434 417 419
f 419 1075 434
f 434 1075 1078
f 434 1078 416
f 416 1078 1077
f 1078 1086 1077
f 1078 1085 1086
f 416 417 434
f 419 418 1075
f 416 424 417
f 1027 1026 1028
f 1025 1026 1027
f 1075 418 1025
f 1076 1071 1083
f 1075 1085 1078
f 1085 1084 1086
f 1084 1079 1086
f 1060 1065 1059
f 1060 1067 1063
f 1052 1062 1063
f 1077 1086 1064
f 416 1077 1072
f 1072 412 416
f 412 1072 413
f 411 412 413
f 413 431 411
f 411 431 432
f 499 432 431
f 499 433 432
f 496 433 499
f 499 500 496
f 496 500 501
f 496 501 497
f 500 1017 501
f 499 504 500
f 504 1016 500
f 499 503 504
f 496 430 433
f 414 433 430
f 430 429 414
f 428 429 430
f 414 432 433
f 505 499 431
f 502 499 505
f 411 432 414
f 411 416 412
f 411 415 416
f 1052 1061 1062
f 413 1072 1051
f 505 431 413
f 1050 509 508
f 1050 507 509
f 1052 1015 507
f 1013 1012 1015
f 505 506 502
f 502 503 499
f 503 1016 504
f 1012 1011 1019
f 500 1016 1017
f 1017 497 501
f 1019 1009 1020
f 997 993 998
f 998 993 992
f 963 992 993
f 998 992 988
f 997 994 993
f 962 993 994
f 1019 1010 1009
f 1011 1010 1019
f 996 994 997
f 961 994 990
f 1011 991 995
f 989 991 1014
f 989 999 960
f 960 999 967
f 999 1000 967
f 968 971 969
f 926 951 952
f 926 952 924
f 986 924 952
f 986 925 924
f 923 925 986
f 986 935 923
f 923 935 910
f 935 936 910
f 939 936 935
f 917 910 936
f 847 910 917
f 916 847 917
f 916 917 913
f 913 917 918
f 913 918 914
f 918 936 914
f 293 916 913
f 293 913 294
f 294 192 293
f 848 847 916
f 917 936 918
f 986 939 935
f 924 925 926
f 973 986 952
f 985 986 973
f 985 976 986
f 987 976 985
f 980 987 985
f 978 987 980
f 969 971 972
f 968 970 971
f 967 1000 970
f 983 1001 984
f 1056 1000 999
f 1054 1070 1056
f 1066 1068 1070
f 1048 1068 1049
f 1002 1001 1053
f 1048 1004 1003
f 1001 1002 984
f 982 983 984
f 980 985 982
f 981 1003 1004
f 1005 977 1004
f 979 978 980
f 724 723 977
f 725 723 726
f 978 975 987
f 711 725 712
f 974 711 683
f 683 938 974
f 987 975 976
f 976 939 986
f 941 936 939
f 974 938 940
f 941 914 936
f 913 914 912
f 937 915 942
f 937 938 683
f 679 683 684
f 679 680 666
f 665 664 912
f 294 913 912
f 294 193 192
f 290 189 292
f 190 189 290
f 190 290 204
f 197 191 198
f 236 198 203
f 203 205 220
f 237 220 205
f 237 205 207
f 237 207 238
f 238 207 209
f 207 208 209
f 209 208 210
f 209 210 164
f 209 164 163
f 153 163 164
f 164 211 153
f 153 211 212
f 267 212 211
f 267 213 212
f 266 213 267
f 266 214 213
f 157 213 214
f 157 214 159
f 158 157 159
f 158 159 160
f 160 159 151
f 159 215 151
f 151 215 216
f 263 216 215
f 263 215 214
f 262 216 263
f 263 264 262
f 263 273 264
f 273 618 264
f 264 618 619
f 264 619 265
f 619 261 265
f 619 260 261
f 261 260 262
f 262 260 114
f 262 114 201
f 201 202 262
f 201 146 202
f 201 144 146
f 113 144 201
f 113 142 144
f 113 140 142
f 140 141 142
f 142 141 143
f 140 139 141
f 138 139 140
f 112 138 140
f 200 138 112
f 112 199 200
f 200 199 258
f 200 258 259
f 259 258 137
f 259 137 136
f 112 140 113
f 112 113 111
f 111 113 114
f 111 114 109
f 109 114 115
f 109 115 116
f 116 115 117
f 125 116 117
f 125 124 116
f 123 124 125
f 123 122 124
f 121 122 123
f 121 123 596
f 598 121 596
f 598 596 599
f 599 596 600
f 599 600 601
f 601 600 602
f 601 602 603
f 601 603 631
f 631 603 605
f 631 605 629
f 629 630 631
f 639 631 630
f 637 631 639
f 638 637 639
f 638 639 640
f 640 639 641
f 640 641 642
f 642 641 643
f 641 623 643
f 643 623 622
f 643 622 645
f 645 622 646
f 644 643 645
f 641 630 623
f 640 648 638
f 638 648 647
f 634 647 648
f 634 648 633
f 633 128 634
f 634 128 130
f 634 130 131
f 130 129 131
f 131 129 132
f 132 620 131
f 620 132 134
f 132 133 134
f 134 133 120
f 134 120 119
f 598 134 119
f 632 134 598
f 598 119 118
f 118 119 120
f 118 120 121
f 632 620 134
f 636 620 632
f 636 647 620
f 632 635 636
f 632 599 635
f 636 635 637
f 635 601 637
f 131 620 647
f 132 129 133
f 128 129 130
f 128 127 129
f 126 127 128
f 633 126 128
f 633 648 649
f 131 647 634
f 638 647 636
f 640 649 648
f 636 637 638
f 639 630 641
f 629 623 630
f 621 623 629
f 629 605 606
f 605 604 606
f 604 595 606
f 606 595 614
f 595 608 614
f 595 613 608
f 594 613 595
f 594 663 613
f 593 663 594
f 593 270 663
f 271 270 593
f 271 593 604
f 271 604 617
f 617 604 602
f 617 602 618
f 617 272 271
f 272 617 273
f 266 271 272
f 266 272 263
f 268 271 266
f 268 270 271
f 269 270 268
f 268 289 269
f 269 289 663
f 663 289 669
f 267 289 268
f 267 210 289
f 288 289 210
f 270 269 663
f 593 594 595
f 613 663 608
f 606 614 616
f 616 614 615
f 616 615 629
f 604 593 595
f 629 606 616
f 603 604 605
f 637 601 631
f 603 602 604
f 618 602 600
f 635 599 601
f 619 600 596
f 619 596 597
f 632 598 599
f 118 121 598
f 597 596 123
f 121 120 122
f 597 123 125
f 597 125 260
f 260 125 117
f 260 117 115
f 109 110 111
f 142 143 144
f 144 143 145
f 144 145 146
f 146 145 147
f 146 147 148
f 148 147 149
f 148 149 150
f 150 149 151
f 161 151 149
f 150 202 148
f 150 216 202
f 148 202 146
f 201 114 113
f 260 115 114
f 597 260 619
f 262 265 261
f 618 600 619
f 273 617 618
f 263 272 273
f 262 264 265
f 262 202 216
f 151 216 150
f 160 151 161
f 156 157 158
f 156 155 157
f 154 155 156
f 154 153 155
f 152 153 154
f 152 162 153
f 159 214 215
f 155 213 157
f 155 212 213
f 263 214 266
f 266 267 268
f 211 210 267
f 153 212 155
f 153 162 163
f 163 162 239
f 239 162 221
f 239 221 238
f 238 221 220
f 239 209 163
f 164 210 211
f 208 288 210
f 207 206 208
f 238 209 239
f 238 220 237
f 205 206 207
f 204 290 291
f 206 288 208
f 291 666 667
f 288 669 289
f 667 682 668
f 663 669 610
f 668 658 612
f 660 611 612
f 608 663 610
f 614 608 607
f 609 611 660
f 614 607 615
f 629 615 621
f 621 622 623
f 656 646 622
f 653 646 656
f 660 659 661
f 675 661 659
f 673 675 674
f 656 662 657
f 656 657 653
f 672 671 673
f 653 654 646
f 645 646 644
f 626 650 652
f 626 651 650
f 625 651 626
f 642 643 644
f 642 649 640
f 633 649 624
f 625 650 651
f 624 126 633
f 626 627 625
f 628 575 578
f 575 574 578
f 571 573 627
f 566 565 567
f 566 567 562
f 655 627 626
f 562 567 568
f 561 563 655
f 556 561 655
f 556 655 671
f 670 671 672
f 552 670 687
f 554 553 555
f 687 538 552
f 687 539 538
f 547 559 537
f 560 539 687
f 549 559 547
f 687 692 548
f 693 692 695
f 545 550 551
f 545 551 546
f 544 545 546
f 542 693 694
f 544 543 545
f 542 694 534
f 535 534 694
f 536 535 348
f 348 346 536
f 351 530 526
f 351 529 530
f 350 529 351
f 350 528 529
f 353 528 350
f 353 527 528
f 354 527 353
f 354 532 527
f 354 531 532
f 524 531 354
f 316 524 354
f 315 524 316
f 350 351 352
f 345 346 347
f 323 347 343
f 330 323 333
f 330 327 355
f 355 327 309
f 311 309 327
f 310 309 311
f 308 309 310
f 308 307 309
f 306 307 308
f 350 352 353
f 355 309 307
f 306 308 317
f 320 319 311
f 330 311 327
f 332 330 333
f 328 331 782
f 783 332 334
f 780 783 776
f 772 779 780
f 777 768 779
f 782 374 328
f 374 373 375
f 370 372 768
f 771 368 370
f 771 769 368
f 364 365 366
f 364 366 367
f 383 769 762
f 386 762 763
f 367 384 385
f 386 763 388
f 759 764 763
f 744 392 764
f 389 390 391
f 394 392 744
f 394 744 752
f 752 396 394
f 397 398 399
f 755 402 400
f 746 404 402
f 406 404 746
f 746 402 755
f 755 400 750
f 749 750 751
f 817 589 590
f 751 750 752
f 752 744 743
f 753 816 817
f 742 743 744
f 758 814 742
f 820 815 814
f 816 589 817
f 587 588 818
f 819 815 820
f 831 820 832
f 830 587 818
f 822 831 825
f 586 587 830
f 585 586 821
f 585 821 836
f 825 1081 822
f 1082 1081 1080
f 1071 1082 1083
f 1074 1071 1076
f 1074 1031 1030
f 1073 837 838
f 1029 1034 1030
f 1029 1045 1032
f 1032 1045 1044
f 470 1044 1045
f 1033 840 839
f 1041 1035 1039
f 1039 1040 1041
f 468 1040 1039
f 467 1040 468
f 467 1043 1040
f 466 1043 467
f 454 466 467
f 454 467 455
f 463 466 454
f 463 1042 466
f 463 1023 1042
f 462 1023 463
f 462 1022 1023
f 461 1022 462
f 448 461 462
f 448 462 453
f 460 461 448
f 460 1021 461
f 461 1021 1022
f 453 462 463
f 453 463 454
f 466 1042 1043
f 455 467 468
f 455 468 464
f 455 464 456
f 456 464 465
f 456 465 457
f 1032 1044 1037
f 457 465 458
f 469 1044 470
f 470 1045 471
f 1029 1046 1045
f 451 472 450
f 1046 476 475
f 1046 477 476
f 1024 477 1046
f 303 473 474
f 424 423 1024
f 415 424 416
f 414 415 411
f 422 409 425
f 408 436 409
f 429 410 414
f 428 427 429
f 408 435 436
f 359 360 361
f 426 427 428
f 428 430 496
f 361 360 358
f 361 358 362
f 362 358 298
f 496 497 498
f 357 298 358
f 498 66 356
f 498 67 66
f 71 498 1018
f 68 69 70
f 71 1018 65
f 64 44 46
f 65 1018 1008
f 42 44 64
f 998 988 1008
f 42 43 44
f 44 43 45
f 988 992 47
f 966 47 992
f 44 45 46
f 965 49 47
f 74 75 48
f 48 75 76
f 48 76 77
f 77 76 78
f 953 78 76
f 946 78 953
f 946 953 949
f 949 932 946
f 948 932 949
f 948 930 932
f 934 946 932
f 932 933 934
f 62 934 933
f 61 934 62
f 60 61 62
f 59 60 62
f 59 62 57
f 57 62 919
f 57 919 58
f 58 919 900
f 919 901 900
f 919 902 901
f 920 902 919
f 920 903 902
f 902 903 885
f 885 903 904
f 885 904 884
f 884 882 885
f 884 880 882
f 883 880 884
f 883 865 880
f 865 893 880
f 880 893 894
f 880 894 881
f 96 881 894
f 96 894 868
f 90 96 868
f 90 95 96
f 96 95 97
f 97 95 81
f 97 81 80
f 80 81 82
f 82 81 83
f 83 86 82
f 83 85 86
f 86 85 872
f 872 869 86
f 872 899 869
f 872 84 899
f 899 84 58
f 58 84 59
f 59 84 85
f 869 899 900
f 869 900 870
f 869 870 871
f 870 885 871
f 870 901 885
f 86 869 871
f 85 84 872
f 59 85 83
f 86 871 82
f 82 871 873
f 871 882 873
f 873 882 881
f 873 80 82
f 873 97 80
f 96 97 873
f 90 94 95
f 89 94 90
f 90 91 89
f 91 92 89
f 92 91 874
f 91 886 874
f 874 886 887
f 874 887 888
f 886 879 887
f 887 879 878
f 887 878 889
f 864 878 879
f 864 879 865
f 864 865 866
f 905 864 866
f 905 866 883
f 906 864 905
f 921 906 905
f 906 878 864
f 895 878 906
f 886 893 879
f 868 893 886
f 91 868 886
f 92 874 867
f 93 92 867
f 93 867 493
f 89 92 93
f 89 93 87
f 87 88 89
f 106 88 87
f 106 103 88
f 105 103 106
f 105 107 103
f 90 868 91
f 873 881 96
f 868 894 893
f 865 879 893
f 866 865 883
f 884 905 883
f 880 881 882
f 871 885 882
f 884 904 905
f 922 905 904
f 922 904 920
f 920 904 903
f 919 933 920
f 920 933 931
f 885 901 902
f 870 900 901
f 58 900 899
f 57 58 59
f 52 60 59
f 52 63 60
f 51 63 52
f 51 52 53
f 53 52 54
f 53 54 55
f 55 54 56
f 56 54 79
f 79 54 77
f 61 485 934
f 490 485 61
f 944 934 485
f 944 485 489
f 943 934 944
f 943 945 934
f 943 486 945
f 945 486 484
f 945 484 483
f 483 79 945
f 945 79 78
f 943 487 486
f 943 488 487
f 944 488 943
f 919 62 933
f 932 931 933
f 934 945 946
f 945 78 946
f 77 78 79
f 50 49 965
f 74 964 75
f 953 76 75
f 965 47 966
f 966 992 963
f 963 993 962
f 949 953 954
f 962 994 961
f 961 990 959
f 958 957 959
f 949 954 948
f 955 957 956
f 951 950 956
f 950 951 926
f 926 925 927
f 925 928 927
f 947 930 948
f 930 931 932
f 920 931 922
f 921 905 922
f 927 928 929
f 923 928 925
f 910 909 923
f 909 910 908
f 921 911 906
f 907 895 906
f 908 910 847
f 846 847 848
f 854 863 898
f 844 843 848
f 843 844 845
f 855 843 845
f 855 845 856
f 855 856 857
f 857 856 858
f 857 858 859
f 859 858 860
f 876 859 860
f 876 860 875
f 875 860 862
f 860 861 862
f 857 859 876
f 876 877 857
f 876 892 877
f 876 890 892
f 877 855 857
f 897 898 863
f 877 892 855
f 896 898 897
f 896 895 907
f 889 878 895
f 890 891 892
f 888 887 889
f 875 890 876
f 867 874 888
f 493 867 492
f 875 862 842
f 103 107 108
f 104 862 861
f 849 851 257
f 851 254 257
f 253 257 254
f 253 254 250
f 250 254 255
f 850 255 254
f 250 255 251
f 250 251 245
f 245 184 250
f 250 184 183
f 250 183 253
f 253 183 182
f 850 254 851
f 860 858 861
f 856 853 858
f 850 251 255
f 856 845 853
f 844 246 845
f 245 251 252
f 844 852 246
f 848 852 844
f 249 848 916
f 249 916 293
f 244 247 248
f 293 192 187
f 176 186 187
f 244 245 247
f 175 186 176
f 245 185 184
f 172 183 184
f 9 178 175
f 173 183 172
f 173 182 183
f 174 179 180
f 180 179 241
f 253 182 181
f 253 256 257
f 849 257 256
f 102 849 101
f 101 100 102
f 16 171 14
f 21 22 23
f 22 21 40
f 40 21 29
f 40 29 30
f 29 28 30
f 27 28 29
f 23 22 24
f 23 24 25
f 25 24 26
f 31 32 33
f 33 32 34
f 33 34 35
f 35 34 36
f 35 36 37
f 37 36 38
f 37 38 39
f 31 33 41
f 179 16 241
f 241 16 18
f 241 18 242
f 242 18 243
f 243 18 20
f 243 20 363
f 363 20 98
f 363 98 99
f 491 106 492
f 106 491 105
f 105 491 494
f 105 494 495
f 492 106 87
f 492 87 493
f 493 87 93
f 199 112 258
f 258 112 111
f 258 111 137
f 39 38 27
f 27 38 28
f 73 25 72
f 72 25 26
f 136 137 110
f 110 137 111
f 127 126 135
f 107 105 495
f 489 488 944
f 61 60 490
f 306 317 307

