# https://github.com/mikedh/trimesh
v 0.00036821 0.08619490 0.14325926
v 0.00006364 0.09047497 0.14318436
v -0.00016739 0.09389479 0.14312454
v -0.00024749 0.08619484 0.13945699
v -0.00038296 0.08619482 0.13956651
v -0.00074570 0.08619474 0.13997860
v -0.00086783 0.08619472 0.14018291
v -0.00035418 0.08619476 0.14282173
v -0.00052754 0.08619473 0.14265725
v -0.00092783 0.08619466 0.14205606
v -0.00110667 0.08619465 0.14135636
v -0.00104365 0.08619467 0.14063700
v 0.00049048 0.08619499 0.13905594
v 0.00044828 0.08619498 0.13907649
v -0.00124963 0.09389462 0.14119281
v -0.00112487 0.09389466 0.14043699
v -0.00111668 0.09389463 0.14194959
v -0.00074197 0.09389469 0.14261778
v -0.00075614 0.09389474 0.13976359
v 0.00016512 0.09047354 0.13913098
v -0.00008565 0.09389488 0.13919097
v -0.00018627 0.09389486 0.13925114
f 12 15 16
f 12 11 15
f 15 11 10
f 15 10 17
f 17 10 9
f 17 9 18
f 18 9 3
f 8 3 9
f 8 2 3
f 1 2 8
f 16 7 12
f 16 6 7
f 19 6 16
f 19 5 6
f 19 4 5
f 22 4 19
f 22 20 4
f 21 20 22
f 4 20 14
f 14 20 13

