# https://github.com/mikedh/trimesh
v -0.03701212 0.06484910 0.01568121
v -0.03701239 0.06619699 0.01528079
v -0.03701094 0.05847304 0.01356107
v -0.03701101 0.05882197 0.01341524
v -0.03701145 0.06112536 0.01314144
v -0.03701185 0.06329660 0.01395774
v -0.03698860 -0.05883657 0.01341301
v -0.03698866 -0.05848678 0.01355926
v -0.03698816 -0.06113996 0.01313912
v -0.03698774 -0.06331122 0.01395534
v -0.03698742 -0.06486377 0.01567875
v -0.03698716 -0.06621601 0.01527699
v -0.03701235 0.06597650 0.01457360
v -0.03701217 0.06472720 0.01064602
v -0.03701178 0.06262479 0.01039403
v -0.03701160 0.06166393 0.01027887
v -0.03700564 0.03050988 0.01135132
v -0.03700741 0.03982607 0.01202190
v -0.03700845 0.04530801 0.01241632
v -0.03700971 0.05195287 0.01294120
v -0.03699784 -0.01028880 0.01354922
v -0.03699400 -0.03062738 0.01133412
v -0.03700174 0.01017005 0.01355498
v -0.03700849 0.04542282 0.01082045
v -0.03700745 0.03994093 0.01042603
v -0.03701115 0.05946215 0.01205801
v -0.03701012 0.05401890 0.01151896
v -0.03700566 0.03043686 0.00974193
v -0.03700176 0.01014585 0.01195395
v -0.03699787 -0.01026540 0.01194812
v -0.03699404 -0.03055514 0.00972449
v -0.03698991 -0.05195723 0.01294113
v -0.03699119 -0.04532477 0.01241477
v -0.03699224 -0.03984284 0.01201181
v -0.03699224 -0.03996017 0.01041612
v -0.03699119 -0.04544207 0.01081908
v -0.03698751 -0.06474453 0.01063747
v -0.03698736 -0.06539176 0.01266083
v -0.03698767 -0.06391843 0.01053912
v -0.03698810 -0.06168284 0.01028158
v -0.03698810 -0.06165355 0.01046875
v -0.03701149 0.06121206 0.01134777
v -0.03701159 0.06163410 0.01047083
v -0.03698817 -0.06123186 0.01134555
v -0.03698831 -0.06044634 0.01191962
v -0.03698849 -0.05948278 0.01205596
v -0.03701134 0.06042609 0.01192170
v -0.03698954 -0.05402620 0.01151854
f 39 40 41
f 38 39 41
f 38 41 12
f 12 41 44
f 10 12 44
f 10 44 9
f 9 44 45
f 9 45 7
f 7 45 46
f 46 8 7
f 46 32 8
f 48 32 46
f 48 33 32
f 36 33 48
f 36 34 33
f 35 34 36
f 35 22 34
f 31 22 35
f 31 21 22
f 30 21 31
f 30 23 21
f 29 23 30
f 29 17 23
f 28 17 29
f 28 18 17
f 25 18 28
f 25 19 18
f 24 19 25
f 24 20 19
f 27 20 24
f 27 3 20
f 26 3 27
f 26 4 3
f 5 4 26
f 47 5 26
f 47 6 5
f 42 6 47
f 42 2 6
f 13 2 42
f 13 42 43
f 43 14 13
f 43 15 14
f 16 15 43
f 2 1 6
f 11 12 10
f 37 39 38

