# https://github.com/mikedh/trimesh
v -0.03489159 -0.08434366 0.06727137
v -0.03486805 -0.08710796 0.07003558
v -0.03486738 -0.09063957 0.07003552
v -0.03497882 -0.07903536 0.05691643
v -0.03504846 -0.07368078 0.04867520
v -0.03508142 -0.07706416 0.04463872
v -0.03502214 -0.08157919 0.05165498
v -0.03494823 -0.08654682 0.06041846
v -0.03491919 -0.08821513 0.06386878
v -0.03507736 -0.07150754 0.04525413
v -0.03515952 -0.07237983 0.03536583
v -0.03518139 -0.07150732 0.03275982
v -0.03511596 -0.07466319 0.04054559
f 11 12 10
f 10 13 11
f 10 6 13
f 5 6 10
f 5 7 6
f 4 7 5
f 4 8 7
f 1 8 4
f 1 9 8
f 3 9 1
f 1 2 3

