# https://github.com/mikedh/trimesh
v -0.02351444 0.09088165 0.19715880
v -0.02350703 0.05198932 0.19715805
v -0.02358317 0.09085389 0.19767864
v -0.02377497 0.05198925 0.19815806
v -0.02378235 0.09077273 0.19815880
v -0.02410440 0.09063902 0.19857724
v -0.02450700 0.05198910 0.19889012
v -0.02451433 0.09046438 0.19889085
v -0.02550700 0.05198890 0.19915809
v -0.02551424 0.09001707 0.19915880
v -0.02650701 0.05198872 0.19889015
v -0.02651416 0.08953865 0.19889086
v -0.02723907 0.05198859 0.19815812
v -0.02724615 0.08916804 0.19815882
v -0.02750703 0.05198856 0.19715811
v -0.02751408 0.08902798 0.19715881
v -0.02744468 0.08906448 0.19768110
v -0.02377499 0.05198929 0.19615807
v -0.02450706 0.05198916 0.19542602
v -0.02550706 0.05198898 0.19515809
v -0.02650706 0.05198878 0.19542605
v -0.02723909 0.05198863 0.19615811
v -0.02410457 0.09063902 0.19574022
v -0.02551430 0.09001714 0.19515881
v -0.02451438 0.09046444 0.19542675
v -0.02579166 0.08988757 0.19618879
v -0.02744492 0.08906438 0.19663736
v -0.02724618 0.08916808 0.19615881
v -0.02651421 0.08953872 0.19542676
v -0.02378238 0.09077276 0.19615880
v -0.02358347 0.09085380 0.19663787
f 1 2 3
f 3 2 4
f 3 4 5
f 5 4 6
f 6 4 7
f 6 7 8
f 8 7 9
f 8 9 10
f 10 9 11
f 10 11 12
f 12 11 13
f 12 13 14
f 23 12 14
f 14 17 23
f 23 17 26
f 17 16 26
f 13 16 17
f 15 16 13
f 16 15 27
f 27 15 22
f 27 22 28
f 28 22 21
f 28 21 29
f 24 28 29
f 24 26 28
f 29 21 20
f 29 20 24
f 24 20 19
f 24 19 25
f 25 19 23
f 23 19 18
f 23 18 30
f 30 18 31
f 31 18 2
f 26 27 28
f 26 16 27
f 23 26 24
f 24 25 23
f 8 12 23
f 10 12 8
f 8 23 6
f 6 23 30
f 6 30 5
f 5 30 31
f 5 31 3
f 3 31 1
f 13 17 14
f 31 2 1

