# https://github.com/mikedh/trimesh
v 0.00362233 -0.10019684 0.22230360
v 0.00362209 -0.09968156 0.21311378
v 0.00362231 -0.10006560 0.22276136
v 0.00362208 -0.09960276 0.21309121
v 0.00202231 -0.10006590 0.22276139
v -0.02801795 -0.09575260 0.23782513
v -0.02698157 -0.09666733 0.23463410
v 0.00202048 -0.08700241 0.26832241
v -0.02904154 -0.09359039 0.24536681
v -0.02436514 -0.09817068 0.22938916
v -0.02156370 -0.09926832 0.22555906
v -0.01836241 -0.10020103 0.22230391
v 0.02705665 -0.08699778 0.26832160
v 0.02552248 -0.08660901 0.26967853
v 0.01622337 -0.08505151 0.27511686
v 0.00558976 -0.08441288 0.27735147
v 0.00300138 -0.08440601 0.27737716
v -0.00447930 -0.08470577 0.27633676
v -0.01437487 -0.08593781 0.27204654
v -0.02228667 -0.08798791 0.26490182
v -0.02735851 -0.09063423 0.25567579
v -0.01336963 -0.09997609 0.21830897
v -0.00850072 -0.09982855 0.21569416
v -0.00329061 -0.09973054 0.21396412
v 0.00202237 -0.10019392 0.22543658
v 0.02277917 -0.09989657 0.21930553
v 0.02700206 -0.10007170 0.22298144
v 0.02916838 -0.10018875 0.22543620
v 0.00757704 -0.09961197 0.21329935
v 0.01293698 -0.09966374 0.21440260
v 0.01805104 -0.09975949 0.21642309
v 0.03247545 -0.08904429 0.26166493
v 0.03632585 -0.09203734 0.25193202
v 0.03665476 -0.09523651 0.24153128
v 0.03342642 -0.09829376 0.23159419
f 1 3 5
f 5 12 1
f 5 11 12
f 8 11 5
f 8 10 11
f 7 10 8
f 6 7 8
f 6 8 9
f 8 21 9
f 8 20 21
f 19 20 8
f 8 18 19
f 8 17 18
f 16 17 8
f 8 15 16
f 8 14 15
f 13 14 8
f 32 13 8
f 34 32 8
f 34 8 35
f 35 8 28
f 8 25 28
f 3 28 25
f 3 27 28
f 26 27 3
f 3 31 26
f 3 30 31
f 29 30 3
f 3 4 29
f 33 32 34
f 1 12 22
f 22 23 1
f 1 23 24
f 1 24 2
f 25 5 3
f 1 2 3
f 3 2 4
f 8 5 25

