# https://github.com/mikedh/trimesh
v 0.00358509 0.08429682 0.07865828
v 0.00358972 0.05999919 0.07865781
v 0.00359924 0.00999920 0.07865687
v 0.00360061 0.00282938 0.07865673
v 0.01299924 0.01000099 0.07865673
v 0.01298972 0.06000098 0.07865767
v 0.04044486 0.08430383 0.07865773
v 0.04676281 0.07283761 0.07865743
v 0.04467001 0.07711928 0.07865754
v 0.04398315 0.07842124 0.07865757
v 0.04956367 0.06638064 0.07865726
v 0.04923626 0.06717770 0.07865728
v 0.05366507 0.05546994 0.07865699
v 0.05598580 0.04124837 0.07865670
v 0.05753609 0.02803341 0.07865642
v 0.05859039 0.01305934 0.07865612
v 0.05887205 0.00283991 0.07865592
f 4 3 5
f 5 17 4
f 5 16 17
f 15 16 5
f 5 14 15
f 5 13 14
f 6 13 5
f 6 11 13
f 12 11 6
f 6 8 12
f 6 9 8
f 10 9 6
f 6 7 10
f 6 1 7
f 2 1 6

