# https://github.com/mikedh/trimesh
v 0.00101612 -0.06211523 0.29406387
v -0.00049908 -0.06211552 0.29406390
v -0.00218447 -0.06211584 0.29409465
v -0.00750181 -0.06211685 0.29408196
v -0.00851901 -0.06211704 0.29406402
v -0.01048388 -0.06211742 0.29406452
v 0.00101603 -0.06211511 0.28765553
v -0.03915542 -0.06212306 0.28765649
v -0.01048388 -0.06211742 0.29401132
v -0.02013990 -0.06211626 0.29335529
v -0.03756912 -0.06212301 0.28855798
v -0.03285023 -0.06212191 0.29063600
v -0.02677282 -0.06212049 0.29232439
f 10 9 7
f 9 6 7
f 7 6 5
f 7 5 4
f 4 3 7
f 7 3 2
f 7 2 1
f 7 13 10
f 7 12 13
f 11 12 7
f 7 8 11

