# https://github.com/mikedh/trimesh
v 0.01357353 0.08619747 0.13963801
v 0.01375867 0.08619751 0.13948156
v 0.01320996 0.08619735 0.14227058
v 0.01308500 0.08619734 0.14202592
v 0.01295253 0.08619732 0.14160414
v 0.01293005 0.08619733 0.14089113
v 0.01314505 0.08619738 0.14020972
v 0.01367384 0.08619744 0.14281458
v 0.01444780 0.08619757 0.14327146
v 0.01454018 0.08619767 0.13904399
v 0.00862109 0.08619646 0.14326641
v 0.01424500 0.08900782 0.14322229
v 0.00884353 0.08929408 0.14321260
v 0.00914405 0.09353483 0.14313892
v 0.01053683 0.09345336 0.14314155
v 0.01394052 0.09326096 0.14314787
v 0.01402977 0.09327292 0.13916805
v 0.01335167 0.09329426 0.14267531
v 0.01320632 0.09331317 0.13986975
v 0.01374251 0.09328697 0.13933951
v 0.01287543 0.09332850 0.14054766
v 0.01278725 0.09333050 0.14129676
v 0.01295222 0.09331859 0.14203419
f 12 16 18
f 8 12 18
f 8 18 3
f 3 18 23
f 3 23 4
f 4 23 5
f 22 5 23
f 22 6 5
f 21 6 22
f 19 6 21
f 19 7 6
f 1 7 19
f 1 19 2
f 2 19 20
f 2 20 10
f 10 20 17
f 9 12 8
f 12 9 11
f 11 16 12
f 11 15 16
f 13 15 11
f 13 14 15

