# https://github.com/mikedh/trimesh
v -0.00663109 0.09398574 0.12821394
v -0.00746604 0.09399369 0.12769060
v -0.00645830 0.08419387 0.12865488
v -0.00732357 0.08419371 0.12793973
v -0.00842923 0.08419351 0.12767951
v -0.00843110 0.09398268 0.12750882
v -0.01094646 0.09385188 0.13098451
v -0.01107838 0.09384095 0.13015866
v -0.01090813 0.08419299 0.13015848
v -0.00911945 0.09396158 0.12760018
v -0.00966870 0.08419327 0.12801164
v -0.00975555 0.09393226 0.12786461
v -0.01057604 0.08419308 0.12891901
v -0.01072416 0.09386944 0.12883474
v -0.01098841 0.09384847 0.12947382
v -0.01075845 0.09378052 0.13141796
v -0.01057600 0.08419303 0.13139795
v -0.01072052 0.09375351 0.13148472
v -0.01055424 0.09360255 0.13173285
v -0.01049577 0.09333216 0.13180117
v -0.01022782 0.09291084 0.13208050
v -0.01026050 0.09311502 0.13205440
v -0.01035868 0.09334131 0.13196032
v -0.01021264 0.09240853 0.13208255
v -0.01019737 0.09190623 0.13208461
v -0.00973772 0.09193310 0.13242240
v -0.00966863 0.08419318 0.13230529
v -0.00910674 0.09196196 0.13268422
v -0.00842916 0.08419342 0.13263738
v -0.00843064 0.09198258 0.13277349
v -0.00746559 0.09199360 0.13258909
v -0.00639562 0.09198050 0.13180055
v -0.00625823 0.08419386 0.13135512
v -0.00680281 0.08419374 0.13202927
v -0.00756100 0.08419359 0.13248038
f 2 1 3
f 3 4 2
f 2 4 5
f 2 5 6
f 6 5 10
f 10 5 11
f 10 11 12
f 12 11 13
f 12 13 14
f 13 15 14
f 13 8 15
f 9 8 13
f 7 8 9
f 7 9 16
f 16 9 17
f 16 17 18
f 25 18 17
f 24 18 25
f 24 20 18
f 21 20 24
f 21 22 20
f 20 22 23
f 20 23 19
f 19 18 20
f 25 17 26
f 26 17 27
f 26 27 28
f 28 27 29
f 28 29 30
f 35 30 29
f 35 31 30
f 34 31 35
f 34 32 31
f 33 32 34

