# https://github.com/mikedh/trimesh
v 0.00361242 -0.06485792 0.00464437
v 0.00361227 -0.06405015 0.00456178
v 0.00361219 -0.06364734 0.00452113
v 0.00361215 -0.06344594 0.00450095
v 0.00361211 -0.06324451 0.00448085
v -0.04102260 -0.06353187 0.00447108
v -0.04102238 -0.06177770 0.00427720
v -0.03232013 -0.06324292 0.00445217
v -0.03903560 -0.06249866 0.00435940
v -0.03932884 -0.06409907 0.00453773
v -0.03623509 -0.06305481 0.00442529
v -0.03639607 -0.06466684 0.00460587
v -0.03231930 -0.06486107 0.00463168
f 2 3 8
f 8 3 4
f 8 4 5
f 8 13 2
f 8 12 13
f 11 12 8
f 11 10 12
f 9 10 11
f 9 6 10
f 7 6 9
f 2 13 1

