# https://github.com/mikedh/trimesh
v 0.02095576 0.09419887 0.14010319
v 0.02127160 0.09419893 0.13986082
v 0.02163939 0.09419901 0.13970847
v 0.02203409 0.09419908 0.13965651
v 0.02071341 0.09419882 0.14041902
v 0.02056107 0.09419879 0.14078683
v 0.02050911 0.09419876 0.14118153
v 0.02056108 0.09419877 0.14157623
v 0.02071344 0.09419879 0.14194402
v 0.02095579 0.09419883 0.14225987
v 0.02203414 0.09419902 0.14270651
v 0.02163944 0.09419895 0.14265455
v 0.02127163 0.09419888 0.14250220
v 0.02203409 0.09419908 0.13968150
v 0.02228535 0.09419913 0.13970269
v 0.02252951 0.09419918 0.13976568
v 0.02286044 0.09419924 0.13992964
v 0.02314128 0.09419928 0.14016949
v 0.02335500 0.09419932 0.14047068
v 0.02348864 0.09419934 0.14081497
v 0.02353412 0.09419934 0.14118148
v 0.02348865 0.09419933 0.14154799
v 0.02335502 0.09419929 0.14189230
v 0.02314131 0.09419925 0.14219350
v 0.02286048 0.09419919 0.14243336
v 0.02252955 0.09419912 0.14259733
v 0.02203414 0.09419902 0.14268151
v 0.02178288 0.09419898 0.14266032
v 0.02153872 0.09419893 0.14259735
v 0.02120779 0.09419888 0.14243338
v 0.02092695 0.09419882 0.14219353
v 0.02071323 0.09419879 0.14189233
v 0.02057959 0.09419877 0.14154804
v 0.02053411 0.09419877 0.14118153
v 0.02057957 0.09419879 0.14081502
v 0.02071321 0.09419882 0.14047073
v 0.02092692 0.09419887 0.14016952
v 0.02120775 0.09419892 0.13992967
v 0.02153867 0.09419899 0.13976569
v 0.02242883 0.09419911 0.14265454
v 0.02279663 0.09419917 0.14250219
v 0.02311247 0.09419924 0.14225984
v 0.02335482 0.09419929 0.14194399
v 0.02350716 0.09419933 0.14157619
v 0.02355911 0.09419934 0.14118148
v 0.02350715 0.09419934 0.14078678
v 0.02335479 0.09419932 0.14041899
v 0.02311244 0.09419928 0.14010316
v 0.02279660 0.09419923 0.13986081
v 0.02242879 0.09419916 0.13970846
f 9 31 10
f 9 32 31
f 9 33 32
f 8 33 9
f 8 34 33
f 7 34 8
f 7 35 34
f 6 35 7
f 6 36 35
f 5 36 6
f 5 37 36
f 1 37 5
f 1 38 37
f 2 38 1
f 2 39 38
f 3 39 2
f 3 14 39
f 4 14 3
f 4 15 14
f 50 15 4
f 50 16 15
f 49 16 50
f 49 17 16
f 48 17 49
f 48 18 17
f 47 18 48
f 47 19 18
f 20 19 47
f 46 20 47
f 46 21 20
f 45 21 46
f 45 22 21
f 44 22 45
f 44 23 22
f 43 23 44
f 43 24 23
f 42 24 43
f 42 25 24
f 41 25 42
f 41 26 25
f 40 26 41
f 40 27 26
f 11 27 40
f 11 28 27
f 12 28 11
f 12 29 28
f 13 29 12
f 13 30 29
f 10 30 13
f 10 31 30

