# https://github.com/mikedh/trimesh
v 0.02772222 0.07899906 0.19823636
v 0.02747063 0.09325714 0.19816197
v -0.00508535 0.08419285 0.19615839
v -0.00491630 0.09398816 0.19167249
v -0.00491621 0.09398757 0.19815861
v -0.00517509 0.07899279 0.19823684
v -0.00517512 0.07899283 0.19633989
v -0.00491639 0.09398869 0.18518637
v -0.00498192 0.09019308 0.18505375
v 0.04175692 0.09054437 0.08468906
v 0.04181073 0.08148990 0.08464648
v 0.04175276 0.09054668 0.08558267
v 0.04191618 0.09045421 0.08645982
v 0.04198935 0.05200393 0.08450849
v 0.04211711 0.05200392 0.08640390
v 0.04191250 0.06458324 0.08456723
v 0.04187219 0.07124547 0.08459842
v 0.04231069 0.09022473 0.08742317
v 0.04303818 0.05200406 0.08811748
v 0.04288042 0.08987727 0.08824727
v 0.04459097 0.05200434 0.08928948
v 0.04649140 0.05200469 0.08970550
v 0.04648471 0.08717391 0.08989031
v 0.04549925 0.08800923 0.08979111
v 0.04450352 0.08877556 0.08946510
v 0.04367265 0.08936103 0.08897890
v -0.00746502 0.09399236 0.19815862
v -0.00746544 0.09399291 0.16877726
v -0.00704752 0.09399041 0.19815862
v -0.00663051 0.09398498 0.16825472
v -0.00663007 0.09398441 0.19815865
v -0.00663056 0.09398505 0.16436249
v -0.00746552 0.09399301 0.16383998
v -0.00663071 0.09398524 0.15410328
v -0.00746565 0.09399318 0.15462664
v 0.03352172 0.09353711 0.10999338
v 0.03325895 0.09358509 0.11062937
v 0.03229297 0.09373859 0.11159901
v 0.03097025 0.09389115 0.11195612
v 0.03361186 0.09352003 0.10930801
v 0.03352188 0.09353710 0.10862333
v 0.03325891 0.09358514 0.10798666
v 0.03229291 0.09373868 0.10701706
v 0.03097017 0.09389125 0.10665999
v 0.02978849 0.09397192 0.11167940
v 0.02917022 0.09399348 0.11125275
v 0.02900115 0.08420096 0.11081140
v 0.03352236 0.09353647 0.14184259
v 0.03325941 0.09358449 0.14247927
v 0.03229344 0.09373799 0.14344890
v 0.03097071 0.09389055 0.14380601
v 0.03361232 0.09351943 0.14115791
v 0.03352216 0.09353653 0.14047255
v 0.03325937 0.09358454 0.13983655
v 0.03229337 0.09373808 0.13886695
v 0.03097064 0.09389065 0.13850988
v 0.02978896 0.09397132 0.14352930
v 0.02917068 0.09399287 0.14310265
v 0.02900162 0.08420036 0.14266130
v 0.03352273 0.09353599 0.16699269
v 0.03325978 0.09358402 0.16762938
v 0.03229380 0.09373751 0.16859901
v 0.03097108 0.09389007 0.16895612
v 0.03361269 0.09351895 0.16630802
v 0.03352253 0.09353605 0.16562265
v 0.03325974 0.09358406 0.16498666
v 0.03229374 0.09373760 0.16401705
v 0.03097101 0.09389018 0.16365999
v 0.02978932 0.09397084 0.16867940
v 0.02917105 0.09399240 0.16825275
v 0.02900198 0.08419988 0.16781141
v -0.00639535 0.09198015 0.15051658
v -0.00746534 0.09199327 0.14972807
v -0.00843040 0.09198227 0.14954370
v -0.00910737 0.09196160 0.14963323
v -0.01034497 0.09331711 0.15034330
v -0.01025977 0.09311327 0.15026246
v -0.01022749 0.09291050 0.15023671
v -0.01057898 0.09362827 0.15061797
v -0.01071961 0.09375269 0.15083154
v -0.01021232 0.09240819 0.15023465
v -0.01019704 0.09190588 0.15023258
v -0.00973740 0.09193277 0.14989479
v -0.01078319 0.09379626 0.15094613
v -0.01094615 0.09385149 0.15133277
v -0.01107806 0.09384053 0.15215866
v -0.01098774 0.09384806 0.15284474
v -0.01072380 0.09386897 0.15348259
v -0.00975516 0.09393176 0.15445270
v -0.00911583 0.09396119 0.15471797
v -0.00843070 0.09398217 0.15480845
v -0.00645777 0.08419318 0.16480285
v -0.00842901 0.09398203 0.16365883
v -0.01098614 0.09384793 0.16562313
v -0.01072207 0.09386887 0.16498475
v -0.00975347 0.09393165 0.16401461
v -0.00911576 0.09396102 0.16374975
v -0.01107629 0.09384040 0.16630867
v -0.01098598 0.09384792 0.16699474
v -0.01072203 0.09386882 0.16763258
v -0.00975340 0.09393157 0.16860269
v -0.00911406 0.09396099 0.16886798
v -0.00842894 0.09398193 0.16895844
v -0.00746541 0.09199336 0.14526349
v -0.00702881 0.09199124 0.14453790
v -0.00639546 0.09198029 0.14285041
v 0.04501877 0.07017933 0.19274722
v 0.04505921 0.08835622 0.19263327
v 0.04576573 0.08779057 0.19247162
v 0.04714156 0.05200286 0.19264971
v 0.04497899 0.05200245 0.19286233
v 0.04710837 0.05886246 0.19260912
v 0.04705875 0.06909504 0.19254911
v 0.04697296 0.08672818 0.19244719
v -0.02482040 0.09033085 0.19245552
v -0.02409125 0.09064469 0.19262089
v -0.02404083 0.07131699 0.19274198
v -0.02598657 0.08979519 0.19243094
v -0.02607200 0.07075412 0.19254074
v -0.02611782 0.06050470 0.19260074
v -0.02399117 0.05198931 0.19286437
v -0.02615579 0.05198890 0.19265109
v -0.02672702 0.05198881 0.19155298
v -0.02672717 0.05198901 0.18125811
v -0.02672162 0.05308901 0.18125813
v -0.02653687 0.08974776 0.16720288
v -0.02653676 0.08974761 0.17496033
v -0.02658498 0.08018915 0.17512698
v -0.02672702 0.05198880 0.19215621
v -0.02668405 0.06050460 0.19210516
v -0.02672183 0.05308928 0.16701025
v -0.02653673 0.08974758 0.17665730
v -0.02653662 0.08974743 0.18446033
v -0.02658496 0.08018912 0.17649028
v -0.02658484 0.08018897 0.18462698
v -0.02653770 0.08952734 0.18615346
v -0.02653762 0.08952723 0.19193497
v -0.02658482 0.08018894 0.18599029
v -0.02663234 0.07075402 0.19204441
v -0.02653620 0.08999003 0.12920415
v -0.02672238 0.05309000 0.12901025
v -0.02653701 0.08974794 0.15765731
v -0.02653689 0.08974779 0.16541475
v -0.02658524 0.08018949 0.15749028
v -0.02672185 0.05308931 0.16560601
v -0.02658526 0.08018951 0.15612699
v -0.02653605 0.08998983 0.13962726
v -0.02654109 0.08898942 0.13973778
v -0.02654614 0.08798983 0.13985743
v -0.02654610 0.08798978 0.14246015
v -0.02653581 0.08998952 0.15595612
v -0.02654105 0.08898914 0.14257979
v -0.02653601 0.08998977 0.14269038
v -0.02341511 0.09092163 0.19144677
v -0.02273436 0.09118704 0.19026478
v -0.02248991 0.05198964 0.19026403
v 0.04347695 0.05200221 0.19026081
v 0.04438512 0.08886103 0.19146064
v 0.04369561 0.08934456 0.19026151
v 0.03665671 0.05200077 0.19787711
v 0.03643520 0.09281913 0.19766416
v 0.03665664 0.05200085 0.19335906
v 0.03643509 0.09281927 0.19026168
v 0.03665661 0.05200089 0.19155206
v 0.03665660 0.05200091 0.19026090
v 0.03605451 0.05200276 0.08647034
v 0.03583205 0.09299757 0.08625647
v 0.03605447 0.05200281 0.08393727
v 0.03583202 0.09299760 0.08415271
v -0.01546499 0.09324025 0.19026470
v -0.01546488 0.09324010 0.19766265
v -0.01567300 0.05199080 0.19787787
v -0.01567307 0.05199089 0.19335982
v -0.01567309 0.05199092 0.19155282
v -0.01567311 0.05199094 0.19026393
v 0.03742211 0.09249800 0.08805794
v 0.03473053 0.09328169 0.08805799
v 0.03763906 0.08020303 0.08805770
v 0.03495453 0.05200252 0.08805721
v 0.03893296 0.08020328 0.08805768
v 0.03844610 0.05200319 0.08805715
v 0.02891265 0.07899929 0.19823635
v 0.02891262 0.07899933 0.19633940
v 0.02900240 0.08419935 0.19615790
v 0.02917149 0.09399183 0.19815813
v 0.03528278 0.09314545 0.08625571
v 0.03495451 0.05200255 0.08647036
v 0.03473051 0.09328172 0.08625501
v -0.00636556 0.07899261 0.19633991
v -0.00636553 0.07899257 0.19823685
v -0.00645732 0.08419259 0.19615842
v -0.00645773 0.08419313 0.16781400
v 0.03764049 0.08020118 0.18600465
v 0.03742354 0.09249614 0.18621950
v 0.03904558 0.09187175 0.18620856
v 0.04755965 0.08020307 0.18600452
v 0.04752713 0.08619545 0.18610923
v 0.04355943 0.08943637 0.18616593
v -0.02162539 0.09159131 0.18618944
v -0.01671723 0.08019083 0.18599014
v -0.02074774 0.09188704 0.18619460
v -0.01649553 0.09303191 0.18621452
v -0.01671766 0.08019139 0.15612684
v -0.01649597 0.09303249 0.15590294
v -0.02112077 0.09176464 0.15592510
v -0.02557564 0.08998971 0.15595610
v 0.02884384 0.05310144 0.08394317
v 0.02900076 0.08420146 0.08410659
v 0.03059111 0.05310177 0.08394314
v 0.03253212 0.09370439 0.08415648
v 0.02916983 0.09399399 0.08415804
v 0.03059132 0.05200177 0.08393735
v 0.03423345 0.09339394 0.08415481
v -0.00960722 0.05309195 0.19837202
v -0.00960701 0.05199195 0.19837777
v -0.01517300 0.05199089 0.19837785
v 0.02737071 0.09019899 0.19817793
v -0.00089014 0.09391337 0.19815895
v -0.00075953 0.09019364 0.19817835
v -0.00290292 0.09396447 0.19815870
v -0.00488171 0.09019285 0.19817841
v 0.03615672 0.05200066 0.19837710
v 0.03059299 0.05199960 0.19837718
v 0.03059278 0.05309960 0.19837144
v 0.02283094 0.09019813 0.19817801
v 0.02290815 0.09242112 0.19816640
v 0.02507818 0.09268257 0.19816501
v -0.01496442 0.09333189 0.19816217
v -0.01122871 0.09382661 0.19815953
v -0.00488165 0.08249144 0.19821858
v 0.02737359 0.08249758 0.19821812
v 0.03258449 0.09369459 0.19815964
v 0.03423512 0.09339178 0.19816118
v 0.03593441 0.09296697 0.19816338
v 0.02900157 0.08420041 0.13965429
v 0.02900194 0.08419994 0.16480440
v -0.00645794 0.08419339 0.15366195
v 0.02917016 0.09399355 0.10736342
v -0.01346528 0.09157149 0.14842114
v -0.01215946 0.09173542 0.14830565
v -0.01088858 0.09185617 0.14795391
v -0.00970965 0.09193429 0.14738196
v -0.00864528 0.09197692 0.14660037
v -0.02573369 0.08998989 0.14477098
v -0.02411863 0.08999016 0.14669843
v -0.02194138 0.08999055 0.14795665
v -0.02042646 0.08999083 0.14832947
v -0.01946503 0.09028266 0.14839873
v -0.00075972 0.09019388 0.18505369
v -0.02548265 0.08998986 0.14913799
v -0.02556167 0.08998983 0.14929543
v -0.02557573 0.08998983 0.14940375
v -0.02042644 0.08999081 0.14946620
v -0.02115268 0.08999068 0.14931305
v -0.02481683 0.08998999 0.14880224
v -0.02509775 0.08998993 0.14888038
v -0.02535714 0.08998988 0.14901677
v -0.02282139 0.08999036 0.14893149
v -0.02381026 0.08999018 0.14876744
v -0.01177542 0.09278276 0.15044637
v -0.01320394 0.09259243 0.15050244
v -0.01320376 0.09160754 0.15050243
v -0.01242737 0.09170505 0.15049842
v -0.01169684 0.09178374 0.15043657
v -0.01244862 0.09270021 0.15049927
v -0.01320394 0.09259514 0.15050244
v -0.02027631 0.09092417 0.14949682
v -0.01900169 0.09041457 0.14974128
v -0.01700547 0.09185923 0.15006945
v -0.01499512 0.09132740 0.15033358
v -0.01499531 0.09229127 0.15033361
v -0.01648818 0.09103424 0.14841181
v -0.01477200 0.09233210 0.15035738
v -0.01499181 0.09229224 0.15033397
v -0.00290342 0.09396956 0.18518566
v -0.00089080 0.09392718 0.18518414
v -0.00089048 0.09392067 0.19167154
v 0.03618516 0.09289426 0.19791377
v 0.03618480 0.09289437 0.19809677
v 0.03636811 0.09283955 0.19791403
v 0.03641807 0.09282436 0.19779377
v 0.03909551 0.09185055 0.19026163
v 0.04752722 0.08619534 0.19195291
v 0.04726617 0.08645009 0.19220120
v 0.04736259 0.08635680 0.19232205
v 0.04719233 0.08652091 0.19242236
v 0.04700170 0.08670128 0.19244947
v 0.04750972 0.08621264 0.19208361
v 0.04746241 0.08625923 0.19219813
v 0.04357956 0.08942284 0.19026151
v 0.02917100 0.09399247 0.16436341
v 0.02978926 0.09397093 0.16393675
v 0.02917063 0.09399295 0.13921331
v 0.02978889 0.09397141 0.13878663
v 0.02978843 0.09397201 0.10693675
v -0.02626257 0.08966219 0.19218296
v -0.01215796 0.09373556 0.15147758
v -0.01433606 0.09343951 0.15143122
v -0.01337410 0.09358425 0.15150198
v -0.01521478 0.09328674 0.19791241
v -0.01539783 0.09325276 0.19791259
v -0.01544765 0.09324337 0.19779269
v -0.01521464 0.09328676 0.19809543
v -0.01531817 0.09326764 0.19801618
v -0.02056358 0.09194727 0.15052029
v -0.01797431 0.09268734 0.15097064
v -0.02315551 0.09102543 0.14996672
v -0.01529174 0.09327356 0.15132710
v -0.02074768 0.09188696 0.19026476
v -0.02652823 0.08953187 0.19203125
v -0.02617142 0.08970638 0.19241545
v -0.02634063 0.08962413 0.19233175
v -0.02646561 0.08956279 0.19219296
v 0.04749174 0.05310416 0.12759389
v 0.04749177 0.05310414 0.12902020
v 0.04749196 0.05200416 0.12759963
v 0.04749198 0.05200414 0.12901442
v 0.04449192 0.05200363 0.12549968
v 0.04609931 0.05200394 0.12549965
v 0.04449201 0.05200353 0.13111445
v 0.04609935 0.05200390 0.12759966
v 0.04609939 0.05200383 0.13111444
v 0.04609936 0.05200387 0.12901443
v 0.04749202 0.05310380 0.14659390
v 0.04749204 0.05310377 0.14802019
v 0.04749223 0.05200380 0.14659964
v 0.04749225 0.05200377 0.14801441
v 0.04449220 0.05200327 0.14449967
v 0.04609959 0.05200358 0.14449964
v 0.04449229 0.05200316 0.15011446
v 0.04609962 0.05200354 0.14659965
v 0.04609967 0.05200347 0.15011443
v 0.04609964 0.05200351 0.14801444
v 0.04770664 0.05310319 0.18125704
v 0.04771261 0.05200319 0.18125702
v 0.04749230 0.05310344 0.16559389
v 0.04749232 0.05310342 0.16702019
v 0.04749251 0.05200344 0.16559963
v 0.04749253 0.05200342 0.16701442
v 0.04449248 0.05200291 0.16349967
v 0.04609987 0.05200322 0.16349965
v 0.04449256 0.05200281 0.16911446
v 0.04609990 0.05200318 0.16559966
v 0.04609995 0.05200311 0.16911444
v 0.04609992 0.05200315 0.16701443
v 0.04749147 0.05310452 0.10859390
v 0.04749149 0.05310449 0.11002019
v 0.04749168 0.05200452 0.10859963
v 0.04749170 0.05200449 0.11001442
v 0.04609909 0.05200423 0.11001443
v 0.04609912 0.05200419 0.11211444
v 0.04449173 0.05200388 0.11211446
v 0.04449165 0.05200399 0.10649967
v 0.04609904 0.05200430 0.10649965
v 0.04609907 0.05200426 0.10859966
v 0.04770558 0.05310456 0.10859389
v 0.04770548 0.05310471 0.10105704
v 0.04770644 0.05310346 0.16702019
v 0.04770616 0.05310382 0.14802019
v 0.04770614 0.05310384 0.14659388
v 0.04770588 0.05310418 0.12902018
v 0.04770641 0.05310348 0.16559389
v 0.04770561 0.05310453 0.11002019
v 0.04770586 0.05310420 0.12759389
v 0.04771144 0.05200471 0.10105702
v 0.03893313 0.08020307 0.09911072
v 0.03893340 0.08020271 0.11811072
v 0.04755867 0.08020435 0.11811060
v 0.04755868 0.08020433 0.11950451
v 0.04755839 0.08020472 0.09911060
v 0.04755841 0.08020469 0.10050451
v 0.03893315 0.08020305 0.10050464
v 0.03893327 0.08020289 0.10861072
v 0.03893343 0.08020268 0.11950464
v 0.03893354 0.08020253 0.12761073
v 0.03893328 0.08020287 0.11000464
v 0.04448633 0.08020393 0.11000456
v 0.04448631 0.08020395 0.10861064
v 0.03893382 0.08020217 0.14661072
v 0.04448686 0.08020323 0.14661065
v 0.04448688 0.08020321 0.14800456
v 0.03893384 0.08020215 0.14800464
v 0.03893396 0.08020199 0.15611072
v 0.04448659 0.08020359 0.12761064
v 0.04448660 0.08020356 0.12900455
v 0.03893356 0.08020250 0.12900464
v 0.03893368 0.08020236 0.13711073
v 0.03893370 0.08020233 0.13850464
v 0.04755896 0.08020397 0.13850452
v 0.04755894 0.08020400 0.13711059
v 0.03893410 0.08020181 0.16561073
v 0.04448714 0.08020287 0.16561064
v 0.04448716 0.08020285 0.16700456
v 0.03893412 0.08020179 0.16700464
v 0.03893424 0.08020163 0.17526072
v 0.03893398 0.08020197 0.15750465
v 0.04755924 0.08020361 0.15750451
v 0.04755922 0.08020364 0.15611060
v 0.04755963 0.08020309 0.18461059
v 0.03893437 0.08020145 0.18461072
v 0.03893426 0.08020160 0.17650464
v 0.04755951 0.08020325 0.17650451
v 0.04755950 0.08020327 0.17526059
v -0.02650768 0.05308932 0.16701023
v -0.02650770 0.05308935 0.16560601
v -0.02650747 0.05198932 0.16700447
v -0.02650749 0.05198935 0.16561174
v -0.01794435 0.08019077 0.17649016
v -0.01794437 0.08019080 0.17512687
v -0.01794423 0.08019062 0.18462686
v -0.01794449 0.08019095 0.16699016
v -0.01794463 0.08019114 0.15749016
v -0.01794451 0.08019098 0.16562687
v -0.02351286 0.08018992 0.16562694
v -0.02351284 0.08018989 0.16699024
v -0.02510385 0.05198961 0.16561173
v -0.02510388 0.05198965 0.16351172
v -0.02350752 0.05198996 0.16351169
v -0.02350744 0.05198985 0.16910441
v -0.02510380 0.05198955 0.16910444
v -0.02510383 0.05198959 0.16700444
v 0.03742820 0.05200303 0.08647033
v 0.03844608 0.05200322 0.08647031
v -0.01560601 0.05199081 0.19812787
v -0.01552655 0.05199082 0.19823141
v -0.01542300 0.05199084 0.19831087
v -0.02633678 0.05198887 0.19264400
v -0.02669883 0.05198880 0.19232172
v -0.02661745 0.05198882 0.19246855
v -0.02655442 0.05198883 0.19253410
v -0.02649205 0.05198884 0.19258018
v 0.04198505 0.05200393 0.08434065
v 0.04192545 0.05200392 0.08418371
v 0.04167266 0.05200388 0.08397003
v 0.04149446 0.05200385 0.08393720
v 0.03742816 0.05200307 0.08393726
v 0.04187238 0.05200392 0.08410981
v 0.04181724 0.05200391 0.08405534
v 0.04771128 0.05200491 0.09015388
v 0.04768309 0.05200491 0.08998838
v 0.04760171 0.05200490 0.08984154
v 0.04753866 0.05200489 0.08977596
v 0.04747631 0.05200488 0.08972991
v 0.04732104 0.05200485 0.08966609
v 0.04713999 0.05200481 0.08965901
v 0.04771276 0.05200299 0.19155189
v 0.04730939 0.05200290 0.19264539
v 0.04746633 0.05200293 0.19258575
v 0.04767997 0.05200297 0.19233292
v 0.04771277 0.05200298 0.19215481
v 0.04754018 0.05200294 0.19253270
v 0.04759468 0.05200295 0.19247752
v 0.03640671 0.05200071 0.19831011
v 0.03651027 0.05200073 0.19823065
v 0.03658972 0.05200075 0.19812711
v 0.04691114 0.08678610 0.12741818
v 0.04627771 0.08735593 0.12741521
v 0.04627768 0.08735597 0.12531522
v 0.04752628 0.08619656 0.12742124
v 0.04752617 0.08619671 0.11960922
v 0.04359647 0.08941213 0.11966548
v 0.04539653 0.08809149 0.12531139
v 0.04448492 0.08878890 0.12530777
v 0.03913436 0.09183481 0.12740789
v 0.03913425 0.09183496 0.11970790
v 0.04189676 0.09046485 0.12743175
v 0.04359658 0.08941198 0.12745009
v 0.04448495 0.08878885 0.12746094
v 0.04691117 0.08678607 0.12919720
v 0.04752631 0.08619653 0.12919410
v 0.04752642 0.08619639 0.13700612
v 0.03913450 0.09183463 0.13690791
v 0.03913439 0.09183478 0.12920789
v 0.04359672 0.08941180 0.13695009
v 0.04189679 0.09046481 0.12918390
v 0.04359661 0.08941195 0.12916549
v 0.04627774 0.08735590 0.12920021
v 0.04627777 0.08735586 0.13130021
v 0.04539662 0.08809138 0.13130409
v 0.04448500 0.08878878 0.13130777
v 0.04448497 0.08878882 0.12915458
v 0.04691142 0.08678574 0.14641818
v 0.04627799 0.08735558 0.14641522
v 0.04627796 0.08735561 0.14431521
v 0.04752656 0.08619621 0.14642124
v 0.04752644 0.08619636 0.13860923
v 0.04359674 0.08941177 0.13866548
v 0.04539681 0.08809114 0.14431138
v 0.04448519 0.08878853 0.14430776
v 0.03913464 0.09183446 0.14640790
v 0.03913453 0.09183460 0.13870791
v 0.04189704 0.09046448 0.14643176
v 0.04359686 0.08941162 0.14645009
v 0.04448523 0.08878849 0.14646095
v 0.04691145 0.08678570 0.14819720
v 0.04752658 0.08619618 0.14819409
v 0.04752669 0.08619603 0.15600611
v 0.03913478 0.09183428 0.15590790
v 0.03913467 0.09183442 0.14820790
v 0.04359700 0.08941144 0.15595010
v 0.04189707 0.09046445 0.14818391
v 0.04359689 0.08941159 0.14816548
v 0.04627802 0.08735554 0.14820020
v 0.04627805 0.08735550 0.15030020
v 0.04539689 0.08809102 0.15030408
v 0.04448528 0.08878842 0.15030776
v 0.04448525 0.08878846 0.14815457
v 0.04752700 0.08619563 0.17660923
v 0.04752711 0.08619548 0.18450612
v 0.04359741 0.08941091 0.18445009
v 0.04359730 0.08941105 0.17666548
v 0.03913520 0.09183373 0.18440789
v 0.03913508 0.09183388 0.17670789
v 0.04691170 0.08678538 0.16541818
v 0.04627827 0.08735521 0.16541521
v 0.04627824 0.08735526 0.16331522
v 0.04752683 0.08619585 0.16542125
v 0.04752672 0.08619600 0.15760922
v 0.04359702 0.08941142 0.15766548
v 0.04539708 0.08809077 0.16331139
v 0.04448547 0.08878817 0.16330776
v 0.03913492 0.09183409 0.16540790
v 0.03913481 0.09183424 0.15770790
v 0.04189732 0.09046412 0.16543175
v 0.04359714 0.08941126 0.16545010
v 0.04448550 0.08878814 0.16546094
v 0.04691172 0.08678535 0.16719720
v 0.04752686 0.08619581 0.16719410
v 0.04752697 0.08619566 0.17515612
v 0.03913506 0.09183391 0.17505790
v 0.03913495 0.09183406 0.16720790
v 0.04359728 0.08941108 0.17510009
v 0.04189734 0.09046409 0.16718391
v 0.04359717 0.08941123 0.16716549
v 0.04627829 0.08735518 0.16720021
v 0.04627832 0.08735514 0.16930020
v 0.04539717 0.08809066 0.16930409
v 0.04448556 0.08878806 0.16930777
v 0.04448553 0.08878810 0.16715458
v 0.04767554 0.05886257 0.19211365
v 0.04762002 0.06909515 0.19205289
v 0.04691089 0.08678643 0.11019720
v 0.04752603 0.08619689 0.11019409
v 0.04752614 0.08619674 0.11800611
v 0.03913423 0.09183499 0.11790790
v 0.03913411 0.09183514 0.11020790
v 0.04359644 0.08941217 0.11795010
v 0.04189651 0.09046517 0.11018391
v 0.04359633 0.08941231 0.11016548
v 0.04627746 0.08735626 0.11020020
v 0.04627749 0.08735622 0.11230020
v 0.04539634 0.08809174 0.11230408
v 0.04448473 0.08878914 0.11230776
v 0.04448469 0.08878918 0.11015458
v 0.04691087 0.08678646 0.10841817
v 0.04627744 0.08735629 0.10841522
v 0.04627741 0.08735634 0.10631522
v 0.04752600 0.08619693 0.10842124
v 0.04752589 0.08619708 0.10060923
v 0.04359619 0.08941250 0.10066549
v 0.04539625 0.08809185 0.10631139
v 0.04448464 0.08878925 0.10630776
v 0.03913409 0.09183517 0.10840790
v 0.03913398 0.09183532 0.10070790
v 0.04189648 0.09046520 0.10843176
v 0.04359631 0.08941234 0.10845009
v 0.04448467 0.08878921 0.10846095
v 0.03947403 0.09168768 0.08414576
v 0.04125772 0.09081776 0.08414117
v 0.03913376 0.09183560 0.08626249
v 0.04752586 0.08619711 0.09900612
v 0.04359617 0.08941253 0.09895010
v 0.04292012 0.08985223 0.09894244
v 0.04697141 0.08673017 0.08986288
v 0.04720064 0.08651348 0.08989119
v 0.04725047 0.08646569 0.09010999
v 0.04736550 0.08635446 0.08999199
v 0.04746064 0.08626144 0.09011139
v 0.04752574 0.08619727 0.09035710
v 0.04751002 0.08621281 0.09023312
v 0.04175765 0.09054396 0.08459835
v 0.04171522 0.09056773 0.08443476
v 0.04160651 0.09062818 0.08428081
v 0.04144305 0.09071786 0.08417601
v 0.03913395 0.09183535 0.09890790
v 0.03763211 0.09242392 0.08414966
v 0.03838735 0.09214095 0.08626091
v 0.03763214 0.09242388 0.08625944
v 0.04708026 0.06434172 0.08973228
v 0.04705738 0.06905711 0.08976004
v 0.04700770 0.07927874 0.08981974
v 0.04131369 0.08148982 0.08409215
v 0.04137582 0.07124538 0.08403831
v 0.04141660 0.06458316 0.08400330
v 0.04764434 0.06434181 0.09022814
v 0.04761875 0.06905722 0.09025624
v 0.04756328 0.07927884 0.09031662
v -0.02592637 0.09002808 0.16541328
v -0.01816525 0.09270032 0.16540875
v -0.02086611 0.09194870 0.16542189
v -0.01816536 0.09270047 0.15770875
v -0.02242417 0.09143114 0.15768665
v -0.02531174 0.09029922 0.16541186
v -0.02531177 0.09029926 0.16331185
v -0.02441731 0.09067450 0.16330989
v -0.02351496 0.09103039 0.16330802
v -0.02351493 0.09103035 0.16543794
v -0.02351491 0.09103031 0.16717966
v -0.02351487 0.09103028 0.16930957
v -0.01816511 0.09270014 0.17490876
v -0.02242391 0.09143081 0.17493093
v -0.01816522 0.09270029 0.16720875
v -0.02086608 0.09194867 0.16719566
v -0.02592635 0.09002804 0.16720434
v -0.02531171 0.09029919 0.16720575
v -0.02531168 0.09029914 0.16930576
v -0.02441722 0.09067439 0.16930772
v -0.01816508 0.09270011 0.17670874
v -0.01816497 0.09269996 0.18440875
v -0.02242378 0.09143063 0.18443093
v -0.02242389 0.09143078 0.17668664
v -0.01326857 0.09303610 0.15060568
v -0.01181389 0.09348539 0.15074529
v -0.01333007 0.09340438 0.15092400
v -0.01179604 0.09370685 0.15108334
v -0.01335201 0.09351385 0.15112767
v -0.01336866 0.09357612 0.15137003
v -0.01412246 0.09274553 0.15047666
v -0.01509209 0.09274784 0.15043804
v -0.01419079 0.09306146 0.15063828
v -0.01422161 0.09318041 0.15074718
v -0.01517967 0.09306147 0.15069431
v -0.01428558 0.09337296 0.15105627
v -0.01523874 0.09321298 0.15096381
v -0.01526533 0.09325701 0.15112409
v -0.01433310 0.09343956 0.15140271
v -0.02305286 0.09098598 0.14959750
v -0.02037578 0.09168141 0.14980169
v -0.02022566 0.09134851 0.14958474
v -0.01790318 0.09263252 0.15060586
v -0.01767638 0.09208459 0.15004188
v -0.01779560 0.09242019 0.15026195
v -0.02051098 0.09188826 0.15014659
v 0.04757586 0.06909613 0.19225831
v 0.04726804 0.06909606 0.19253047
v 0.04745120 0.06909645 0.19242746
v 0.04731930 0.05886351 0.19259253
v 0.04750449 0.05886390 0.19249021
v 0.04763078 0.05886357 0.19232044
v 0.04721540 0.07927975 0.08984035
v 0.04739660 0.07928012 0.08994395
v 0.04759989 0.06434280 0.09002206
v 0.04747445 0.06434314 0.08985262
v 0.04729033 0.06434275 0.08974995
v 0.04751971 0.07927980 0.09011250
v 0.04757458 0.06905819 0.09005079
v 0.04744989 0.06905852 0.08988163
v 0.04726670 0.06905814 0.08977865
v 0.04151753 0.08149081 0.08413558
v 0.04168595 0.08149119 0.08425836
v 0.04189477 0.06458424 0.08435719
v 0.04179207 0.06458458 0.08417313
v 0.04162264 0.06458419 0.08404773
v 0.04178969 0.08149087 0.08443913
v 0.04185314 0.07124645 0.08438945
v 0.04175001 0.07124678 0.08420669
v 0.04158098 0.07124640 0.08408235
v -0.02628103 0.07075506 0.19252177
v -0.02658827 0.07075500 0.19224963
v -0.02646387 0.07075537 0.19241868
v -0.02663937 0.06050561 0.19231173
v -0.02651334 0.06050599 0.19248140
v -0.02632848 0.06050567 0.19258383
f 10 11 12
f 10 12 570
f 570 12 13
f 570 13 585
f 585 13 18
f 13 15 18
f 18 15 19
f 18 19 20
f 573 18 20
f 573 20 26
f 25 573 26
f 25 572 573
f 24 572 25
f 21 24 25
f 23 24 21
f 21 22 23
f 22 590 23
f 23 590 591
f 23 591 574
f 650 574 591
f 575 574 650
f 575 650 651
f 657 651 650
f 657 650 658
f 658 653 657
f 657 653 652
f 441 652 653
f 441 653 442
f 442 653 443
f 443 653 654
f 443 654 444
f 589 444 654
f 589 654 658
f 658 590 589
f 445 444 589
f 445 589 22
f 440 652 441
f 440 439 652
f 652 439 595
f 652 595 596
f 595 357 596
f 595 365 357
f 357 356 596
f 596 356 370
f 370 356 371
f 371 356 558
f 371 558 559
f 558 555 559
f 559 555 557
f 555 556 557
f 559 557 560
f 560 557 561
f 560 561 562
f 566 560 562
f 565 560 566
f 565 564 560
f 563 564 565
f 566 562 567
f 567 562 378
f 378 562 353
f 378 353 377
f 377 353 352
f 377 352 553
f 553 554 377
f 553 549 554
f 553 547 549
f 547 548 549
f 547 546 548
f 545 546 547
f 552 547 553
f 552 544 547
f 551 544 552
f 551 542 544
f 550 542 551
f 542 543 544
f 544 543 368
f 368 543 363
f 368 363 369
f 369 363 364
f 369 364 459
f 459 460 369
f 459 456 460
f 460 456 458
f 456 457 458
f 460 458 461
f 461 458 462
f 461 462 463
f 467 461 463
f 467 463 468
f 468 463 384
f 384 463 318
f 384 318 385
f 385 318 320
f 385 320 480
f 480 481 385
f 480 476 481
f 480 474 476
f 474 475 476
f 474 473 475
f 472 473 474
f 479 474 480
f 479 471 474
f 478 471 479
f 478 469 471
f 477 469 478
f 469 470 471
f 471 470 390
f 390 470 361
f 390 361 389
f 389 361 360
f 389 360 485
f 485 486 389
f 485 482 486
f 486 482 484
f 482 483 484
f 486 484 487
f 487 484 488
f 487 488 489
f 493 487 489
f 492 487 493
f 492 491 487
f 490 491 492
f 493 489 494
f 494 489 380
f 380 489 328
f 380 328 381
f 381 328 330
f 381 330 506
f 506 507 381
f 506 502 507
f 506 500 502
f 500 501 502
f 500 499 501
f 498 499 500
f 505 500 506
f 505 497 500
f 504 497 505
f 504 495 497
f 503 495 504
f 495 496 497
f 497 496 398
f 398 496 359
f 398 359 397
f 397 359 362
f 397 362 517
f 517 518 397
f 517 514 518
f 518 514 516
f 518 516 519
f 519 516 520
f 519 520 521
f 525 519 521
f 525 521 526
f 526 521 392
f 392 521 340
f 392 340 393
f 393 340 342
f 393 342 538
f 538 539 393
f 538 534 539
f 538 532 534
f 537 532 538
f 537 529 532
f 536 529 537
f 536 527 529
f 527 528 529
f 529 528 403
f 403 528 358
f 358 402 403
f 358 541 402
f 334 541 358
f 334 540 541
f 446 540 334
f 334 335 446
f 446 450 540
f 450 449 540
f 540 449 649
f 452 649 449
f 452 648 649
f 644 649 648
f 644 648 646
f 646 289 644
f 646 285 289
f 645 285 646
f 645 286 285
f 645 287 286
f 114 287 645
f 645 113 114
f 113 109 114
f 113 107 109
f 112 107 113
f 647 112 113
f 647 110 112
f 447 110 647
f 447 647 448
f 448 647 648
f 448 648 451
f 110 111 112
f 112 111 107
f 107 111 157
f 158 107 157
f 158 157 159
f 159 157 290
f 290 157 165
f 290 165 282
f 282 165 163
f 108 107 158
f 107 108 109
f 645 647 113
f 285 286 284
f 284 286 287
f 284 287 197
f 197 283 284
f 283 288 284
f 284 288 289
f 541 288 283
f 644 288 541
f 541 283 197
f 197 196 541
f 541 196 399
f 287 114 197
f 197 114 109
f 197 109 108
f 108 158 197
f 197 158 159
f 197 159 198
f 198 159 290
f 198 290 282
f 282 195 198
f 282 194 195
f 163 194 282
f 163 233 194
f 161 233 163
f 162 161 163
f 162 163 164
f 164 163 165
f 160 161 162
f 160 281 161
f 281 278 161
f 281 279 278
f 280 279 281
f 454 279 280
f 454 280 455
f 455 280 160
f 453 279 454
f 222 279 453
f 234 279 222
f 224 234 222
f 222 223 224
f 224 233 234
f 182 233 224
f 1 182 224
f 224 6 1
f 224 190 6
f 214 190 224
f 214 29 190
f 29 31 190
f 27 29 214
f 214 229 27
f 214 228 229
f 216 228 214
f 426 228 216
f 426 303 228
f 304 303 426
f 425 304 426
f 425 301 304
f 424 301 425
f 424 302 301
f 171 302 424
f 424 172 171
f 170 171 172
f 172 173 170
f 170 173 174
f 170 174 175
f 170 300 171
f 170 228 300
f 298 228 170
f 298 98 228
f 94 98 298
f 94 298 95
f 95 298 87
f 87 298 86
f 86 298 299
f 627 299 298
f 627 297 299
f 627 625 297
f 84 297 625
f 84 625 80
f 80 625 623
f 624 623 625
f 622 623 624
f 622 76 623
f 260 76 622
f 260 77 76
f 78 77 260
f 81 78 260
f 81 260 82
f 82 260 264
f 264 260 265
f 264 265 263
f 263 265 266
f 263 266 261
f 261 262 263
f 262 261 273
f 262 273 270
f 270 273 274
f 270 274 271
f 269 270 271
f 269 268 270
f 267 268 269
f 267 253 268
f 254 253 267
f 267 258 254
f 259 258 267
f 639 259 267
f 638 259 639
f 638 255 259
f 637 255 638
f 637 256 255
f 257 256 637
f 245 256 257
f 245 257 250
f 245 250 244
f 244 250 251
f 244 251 153
f 153 251 252
f 307 252 251
f 307 206 252
f 307 205 206
f 305 205 307
f 643 305 307
f 643 640 305
f 642 640 643
f 643 638 642
f 642 632 640
f 641 632 642
f 642 639 641
f 641 639 269
f 641 629 632
f 271 629 641
f 629 631 632
f 629 630 631
f 628 630 629
f 274 628 629
f 628 622 630
f 628 266 622
f 273 266 628
f 630 624 631
f 631 624 626
f 631 626 633
f 633 626 627
f 633 627 636
f 635 633 636
f 635 636 308
f 308 306 635
f 635 306 640
f 635 640 634
f 306 308 204
f 205 306 204
f 204 308 298
f 204 298 202
f 200 204 202
f 203 204 200
f 636 298 308
f 634 633 635
f 632 633 634
f 632 631 633
f 634 640 632
f 640 306 305
f 307 637 643
f 307 250 637
f 205 305 306
f 151 252 206
f 153 252 151
f 251 250 307
f 250 257 637
f 255 256 245
f 643 637 638
f 245 259 255
f 245 258 259
f 246 258 245
f 246 254 258
f 247 254 246
f 247 253 254
f 253 247 268
f 268 247 248
f 268 248 270
f 272 270 248
f 239 270 272
f 239 262 270
f 240 262 239
f 240 263 262
f 264 263 240
f 264 240 82
f 82 240 241
f 82 241 83
f 83 241 75
f 242 75 241
f 242 74 75
f 243 74 242
f 243 73 74
f 104 73 243
f 73 104 72
f 72 104 105
f 72 105 106
f 642 638 639
f 639 267 269
f 641 269 271
f 274 629 271
f 273 628 274
f 273 261 266
f 265 622 266
f 260 622 265
f 79 623 76
f 630 622 624
f 624 625 626
f 80 623 79
f 85 297 84
f 297 85 86
f 626 625 627
f 636 627 298
f 86 299 297
f 95 87 88
f 95 88 89
f 89 96 95
f 89 97 96
f 90 97 89
f 90 93 97
f 91 93 90
f 91 33 93
f 35 33 91
f 34 33 35
f 32 33 34
f 98 99 228
f 99 100 228
f 228 100 101
f 228 101 102
f 102 229 228
f 102 27 229
f 103 27 102
f 103 28 27
f 27 28 29
f 29 28 30
f 29 30 31
f 202 298 170
f 202 170 201
f 201 170 309
f 201 309 199
f 199 309 136
f 136 309 155
f 136 155 154
f 115 136 154
f 115 154 116
f 118 136 115
f 118 296 136
f 311 296 118
f 311 312 296
f 296 312 313
f 669 313 312
f 669 312 670
f 670 671 669
f 669 671 139
f 671 130 139
f 671 129 130
f 129 123 130
f 130 123 125
f 123 124 125
f 130 125 128
f 134 130 128
f 135 130 134
f 134 133 135
f 132 133 134
f 621 133 132
f 621 620 133
f 618 620 621
f 618 619 620
f 128 125 131
f 128 131 126
f 126 127 128
f 126 614 127
f 127 614 616
f 614 615 616
f 127 616 611
f 617 611 616
f 609 611 617
f 609 613 611
f 612 611 613
f 610 611 612
f 608 613 609
f 608 609 415
f 415 609 419
f 415 419 414
f 414 419 418
f 414 418 606
f 606 607 414
f 606 600 607
f 606 602 600
f 601 600 602
f 599 600 601
f 605 602 606
f 605 142 602
f 604 142 605
f 604 598 142
f 603 598 604
f 598 143 142
f 142 143 144
f 144 143 145
f 144 145 146
f 146 145 141
f 141 149 146
f 141 148 149
f 140 148 141
f 140 147 148
f 146 149 150
f 146 150 151
f 151 150 152
f 151 152 153
f 428 129 671
f 428 671 429
f 429 671 672
f 429 672 430
f 430 672 431
f 431 672 673
f 431 673 427
f 120 427 673
f 120 673 668
f 668 119 120
f 668 118 119
f 668 311 118
f 670 311 668
f 668 672 670
f 118 115 119
f 119 115 117
f 115 116 117
f 116 154 117
f 117 154 156
f 154 155 156
f 309 156 155
f 309 175 156
f 170 175 309
f 117 156 121
f 120 117 121
f 120 121 122
f 119 117 120
f 122 427 120
f 668 673 672
f 135 139 130
f 138 139 135
f 138 137 139
f 136 137 138
f 669 139 137
f 137 310 669
f 137 296 310
f 670 672 671
f 669 310 313
f 296 313 310
f 670 312 311
f 296 137 136
f 228 303 300
f 300 303 304
f 300 304 301
f 171 300 302
f 300 301 302
f 214 215 216
f 1 6 231
f 6 230 231
f 6 221 230
f 5 221 6
f 220 221 5
f 220 219 221
f 218 219 220
f 1 231 217
f 217 2 1
f 217 227 2
f 217 226 227
f 225 226 217
f 182 232 233
f 185 232 182
f 234 278 279
f 278 234 233
f 160 280 281
f 161 278 233
f 177 194 233
f 177 233 213
f 213 188 177
f 213 186 188
f 169 186 213
f 169 167 186
f 168 167 169
f 166 167 168
f 187 177 188
f 179 177 187
f 213 233 52
f 52 53 213
f 213 53 54
f 213 54 40
f 40 54 55
f 40 55 36
f 36 55 37
f 55 38 37
f 55 39 38
f 56 39 55
f 56 45 39
f 294 45 56
f 294 46 45
f 293 46 294
f 40 41 213
f 41 42 213
f 213 42 43
f 213 43 210
f 210 43 44
f 210 44 211
f 211 44 295
f 211 295 238
f 233 48 52
f 233 49 48
f 64 49 233
f 64 50 49
f 65 50 64
f 65 66 50
f 50 66 67
f 50 67 51
f 51 67 68
f 51 68 57
f 57 68 292
f 57 292 291
f 291 58 57
f 233 60 64
f 233 61 60
f 62 61 233
f 62 233 63
f 63 233 232
f 63 232 69
f 69 232 185
f 69 185 70
f 176 194 177
f 178 194 176
f 193 194 178
f 646 647 645
f 284 289 285
f 644 289 288
f 646 648 647
f 451 648 452
f 540 649 644
f 644 541 540
f 541 399 402
f 402 399 508
f 399 509 508
f 508 509 510
f 508 510 511
f 511 510 512
f 511 512 513
f 535 527 536
f 532 533 534
f 532 531 533
f 530 531 532
f 524 519 525
f 524 523 519
f 522 523 524
f 514 515 516
f 466 461 467
f 466 465 461
f 464 465 466
f 596 370 597
f 597 370 579
f 597 579 655
f 655 579 580
f 579 578 580
f 579 576 578
f 571 576 579
f 571 574 576
f 23 574 571
f 23 571 24
f 574 575 576
f 576 575 577
f 576 577 578
f 577 655 578
f 577 651 655
f 656 655 651
f 655 580 578
f 597 655 656
f 370 571 579
f 656 596 597
f 656 652 596
f 439 365 595
f 657 652 656
f 658 654 653
f 658 650 590
f 656 651 657
f 575 651 577
f 650 591 590
f 22 589 590
f 21 25 19
f 24 571 572
f 19 25 26
f 19 26 20
f 13 17 15
f 16 15 17
f 661 16 17
f 661 14 16
f 432 14 661
f 432 661 433
f 433 661 662
f 666 662 661
f 666 661 665
f 665 660 666
f 665 664 660
f 11 664 665
f 665 17 11
f 583 660 664
f 583 664 582
f 664 581 582
f 664 10 581
f 582 581 583
f 583 581 570
f 583 570 584
f 584 570 569
f 568 569 570
f 568 570 586
f 586 570 587
f 586 587 588
f 584 660 583
f 584 659 660
f 584 569 659
f 659 569 592
f 569 568 592
f 592 568 586
f 592 586 593
f 593 586 436
f 593 436 594
f 667 593 594
f 594 663 667
f 594 434 663
f 435 434 594
f 438 663 434
f 438 662 663
f 437 662 438
f 667 663 662
f 667 659 593
f 666 659 667
f 594 436 435
f 659 592 593
f 666 660 659
f 667 662 666
f 433 662 437
f 665 661 17
f 14 15 16
f 11 17 13
f 585 18 573
f 581 10 570
f 12 11 13
f 11 10 664
f 208 207 209
f 209 169 208
f 208 169 213
f 208 213 210
f 210 211 208
f 209 168 169
f 212 168 209
f 277 218 220
f 220 275 277
f 277 275 276
f 220 4 275
f 5 4 220
f 4 8 275
f 318 319 320
f 320 319 321
f 323 320 321
f 322 320 323
f 323 321 317
f 317 321 316
f 328 329 330
f 330 329 331
f 333 330 331
f 332 330 333
f 333 331 327
f 327 331 326
f 340 341 342
f 342 341 343
f 345 342 343
f 345 343 339
f 339 343 338
f 344 342 345
f 350 351 352
f 353 350 352
f 355 350 353
f 353 354 355
f 355 349 350
f 348 349 355
f 416 417 418
f 419 416 418
f 421 416 419
f 421 407 416
f 406 407 421
f 419 420 421
f 314 316 321
f 457 314 321
f 456 314 457
f 456 364 314
f 459 364 456
f 477 323 315
f 315 469 477
f 315 470 469
f 361 470 315
f 315 323 317
f 324 326 331
f 483 324 331
f 482 324 483
f 482 360 324
f 485 360 482
f 503 333 325
f 325 495 503
f 325 496 495
f 359 496 325
f 325 333 327
f 336 338 343
f 515 336 343
f 514 336 515
f 514 362 336
f 517 362 514
f 535 345 337
f 337 345 339
f 337 527 535
f 337 528 527
f 358 528 337
f 550 350 347
f 347 350 349
f 347 542 550
f 347 543 542
f 363 543 347
f 346 348 355
f 556 346 355
f 555 346 556
f 555 356 346
f 558 356 555
f 603 416 405
f 603 405 598
f 598 405 145
f 598 145 143
f 405 416 407
f 404 406 421
f 615 404 421
f 614 404 615
f 614 131 404
f 126 131 614
f 176 177 178
f 178 177 179
f 178 179 180
f 180 179 181
f 182 183 184
f 184 185 182
f 184 70 185
f 71 70 184
f 189 190 191
f 191 190 31
f 191 31 192
f 192 31 30
f 195 194 193
f 193 198 195
f 193 197 198
f 196 197 193
f 136 138 199
f 199 138 200
f 199 200 201
f 201 200 202
f 204 203 205
f 205 203 146
f 205 146 206
f 206 146 151
f 468 384 467
f 467 384 375
f 467 375 466
f 466 375 464
f 386 385 481
f 481 476 386
f 386 476 475
f 386 475 473
f 494 380 493
f 493 380 379
f 493 379 492
f 492 379 490
f 382 381 507
f 507 502 382
f 382 502 501
f 382 501 499
f 526 392 525
f 525 392 391
f 525 391 524
f 524 391 522
f 394 393 539
f 539 534 394
f 394 534 533
f 394 533 531
f 376 377 554
f 554 549 376
f 376 549 548
f 376 548 546
f 567 378 566
f 566 378 373
f 566 373 565
f 565 373 563
f 181 423 180
f 180 423 570
f 180 570 366
f 366 570 585
f 571 370 572
f 572 370 366
f 572 366 573
f 573 366 585
f 167 166 186
f 186 166 187
f 186 187 188
f 8 9 275
f 275 9 249
f 275 249 276
f 276 249 277
f 277 249 219
f 277 219 218
f 369 460 374
f 374 460 461
f 374 461 465
f 458 319 462
f 462 319 318
f 462 318 463
f 322 478 320
f 320 478 479
f 320 479 480
f 471 390 474
f 474 390 387
f 474 387 472
f 389 486 388
f 388 486 487
f 388 487 491
f 484 329 488
f 488 329 328
f 488 328 489
f 332 504 330
f 330 504 505
f 330 505 506
f 497 398 500
f 500 398 383
f 500 383 498
f 509 399 510
f 510 399 400
f 510 400 512
f 402 508 401
f 401 508 511
f 401 511 513
f 397 518 396
f 396 518 519
f 396 519 523
f 516 341 520
f 520 341 340
f 520 340 521
f 344 536 342
f 342 536 537
f 342 537 538
f 529 403 532
f 532 403 395
f 532 395 530
f 351 551 352
f 352 551 552
f 352 552 553
f 544 368 547
f 547 368 367
f 547 367 545
f 371 559 372
f 372 559 560
f 372 560 564
f 557 354 561
f 561 354 353
f 561 353 562
f 570 423 587
f 587 423 422
f 587 422 588
f 142 144 602
f 602 144 412
f 602 412 601
f 599 413 600
f 600 413 414
f 600 414 607
f 606 418 605
f 605 418 417
f 605 417 604
f 610 409 611
f 611 409 128
f 611 128 127
f 616 420 617
f 617 420 419
f 617 419 609
f 608 415 613
f 613 415 411
f 613 411 612
f 132 134 621
f 621 134 408
f 621 408 618
f 619 410 620
f 620 410 135
f 620 135 133
f 189 191 7
f 7 191 3
f 291 236 58
f 58 236 59
f 293 235 46
f 46 235 47
f 34 237 32
f 32 237 92
f 314 315 316
f 316 315 317
f 324 325 326
f 326 325 327
f 336 337 338
f 338 337 339
f 346 347 348
f 348 347 349
f 404 405 406
f 406 405 407
f 7 6 189
f 189 6 190
f 374 465 375
f 375 465 464
f 319 458 321
f 321 458 457
f 323 477 322
f 322 477 478
f 386 473 387
f 387 473 472
f 388 491 379
f 379 491 490
f 329 484 331
f 331 484 483
f 333 503 332
f 332 503 504
f 382 499 383
f 383 499 498
f 401 513 400
f 400 513 512
f 396 523 391
f 391 523 522
f 341 516 343
f 343 516 515
f 345 535 344
f 344 535 536
f 394 531 395
f 395 531 530
f 350 550 351
f 351 550 551
f 376 546 367
f 367 546 545
f 372 564 373
f 373 564 563
f 354 557 355
f 355 557 556
f 436 586 422
f 422 586 588
f 413 599 412
f 412 599 601
f 416 603 417
f 417 603 604
f 420 616 421
f 421 616 615
f 409 610 411
f 411 610 612
f 410 619 408
f 408 619 618

