# https://github.com/mikedh/trimesh
v 0.00360244 0.00994600 0.29703215
v 0.00360625 -0.01005401 0.29703176
v 0.00360619 -0.01005393 0.29303175
v 0.00360638 -0.01105392 0.29329970
v 0.00360653 -0.01178600 0.29403174
v 0.00360660 -0.01205397 0.29503173
v 0.00360656 -0.01178604 0.29603174
v 0.00360643 -0.01105399 0.29676381
v 0.00360238 0.00994608 0.29303214
v 0.00360224 0.01094600 0.29676422
v 0.00360209 0.01167808 0.29603219
v 0.00360203 0.01194605 0.29503217
v 0.00360206 0.01167811 0.29403219
v 0.00360219 0.01094606 0.29330012
f 10 1 9
f 9 1 3
f 1 2 3
f 3 2 8
f 3 8 7
f 7 6 3
f 3 6 5
f 3 5 4
f 14 10 9
f 13 10 14
f 13 11 10
f 12 11 13

