# https://github.com/mikedh/trimesh
v -0.00746544 0.09399291 0.16877726
v -0.00663051 0.09398498 0.16825472
v -0.00663056 0.09398505 0.16436249
v -0.00746552 0.09399301 0.16383998
v -0.00645777 0.08419318 0.16480285
v -0.00732264 0.08419303 0.16408916
v -0.00842715 0.08419283 0.16382951
v -0.00842901 0.09398203 0.16365883
v -0.01098614 0.09384793 0.16562313
v -0.01072207 0.09386887 0.16498475
v -0.01057395 0.08419240 0.16506901
v -0.00975347 0.09393165 0.16401461
v -0.00966661 0.08419258 0.16416164
v -0.00911576 0.09396102 0.16374975
v -0.01107629 0.09384040 0.16630867
v -0.01090605 0.08419231 0.16630848
v -0.01098598 0.09384792 0.16699474
v -0.01057392 0.08419235 0.16754794
v -0.01072203 0.09386882 0.16763258
v -0.00966655 0.08419250 0.16845529
v -0.00975340 0.09393157 0.16860269
v -0.00911406 0.09396099 0.16886798
v -0.00842707 0.08419273 0.16878739
v -0.00842894 0.09398193 0.16895844
v -0.00645773 0.08419313 0.16781400
v -0.00732258 0.08419295 0.16852771
f 4 3 5
f 5 6 4
f 4 6 7
f 4 7 8
f 7 14 8
f 13 14 7
f 13 12 14
f 11 12 13
f 11 10 12
f 9 10 11
f 9 11 15
f 15 11 16
f 15 16 17
f 17 16 18
f 17 18 19
f 19 18 20
f 19 20 21
f 21 20 22
f 22 20 23
f 22 23 24
f 24 23 26
f 24 26 1
f 1 26 25
f 1 25 2

