# https://github.com/mikedh/trimesh
v -0.01598581 0.10571513 0.22447708
v -0.01980673 0.10466173 0.22815001
v 0.00394083 0.09916749 0.24730377
v -0.02290610 0.10344139 0.23240492
v -0.02518974 0.10209119 0.23711251
v -0.00144255 0.10758464 0.21795806
v -0.00666206 0.10719913 0.21930249
v -0.01155942 0.10656959 0.22149774
v 0.01454319 0.10719877 0.21930219
v 0.00932364 0.10758445 0.21795790
v 0.00394054 0.10771439 0.21750528
v 0.02768802 0.10466094 0.22814931
v 0.02386703 0.10571446 0.22447650
v 0.01944058 0.10656907 0.22149728
v 0.03446982 0.10065113 0.24212886
v 0.03307121 0.10209021 0.23711166
v 0.03078748 0.10344049 0.23240413
v 0.03307140 0.09624378 0.25749502
v 0.03446992 0.09768282 0.25247777
v 0.03494083 0.09916697 0.24730332
v 0.02386747 0.09261984 0.27013046
v 0.02768840 0.09367324 0.26645753
v 0.03078777 0.09489359 0.26220262
v 0.00932421 0.09075034 0.27664948
v 0.01454373 0.09113585 0.27530503
v 0.01944108 0.09176540 0.27310979
v -0.00666152 0.09113621 0.27530536
v -0.00144198 0.09075052 0.27664962
v 0.00394112 0.09062058 0.27710226
v -0.01980636 0.09367405 0.26645821
v -0.01598536 0.09262052 0.27013102
v -0.01155892 0.09176592 0.27311024
v -0.02658816 0.09768385 0.25247866
v -0.02518954 0.09624477 0.25749588
v -0.02290581 0.09489449 0.26220340
v -0.02658826 0.10065216 0.24212976
v -0.02705917 0.09916801 0.24730422
f 1 2 3
f 3 8 1
f 3 7 8
f 6 7 3
f 3 11 6
f 3 10 11
f 9 10 3
f 3 14 9
f 3 13 14
f 12 13 3
f 3 17 12
f 3 16 17
f 15 16 3
f 3 20 15
f 3 19 20
f 18 19 3
f 3 23 18
f 3 22 23
f 21 22 3
f 3 26 21
f 3 25 26
f 24 25 3
f 3 29 24
f 3 28 29
f 27 28 3
f 3 32 27
f 3 31 32
f 30 31 3
f 3 35 30
f 3 34 35
f 33 34 3
f 3 37 33
f 3 36 37
f 5 36 3
f 3 4 5
f 3 2 4

