# https://github.com/mikedh/trimesh
v -0.02351342 0.08019064 0.12762694
v -0.02351340 0.08019061 0.12899023
v -0.01671866 0.08019268 0.08805849
v -0.01794564 0.08019245 0.08805851
v -0.01671806 0.08019190 0.12899014
v -0.01794548 0.08019224 0.09912686
v -0.02658579 0.08019020 0.11949028
v -0.02658581 0.08019023 0.11812699
v -0.01794518 0.08019185 0.11949016
v -0.01794520 0.08019188 0.11812686
v -0.01794506 0.08019170 0.12762687
v -0.01794532 0.08019203 0.10999016
v -0.01794546 0.08019222 0.10049016
v -0.02658607 0.08019057 0.10049028
v -0.02658609 0.08019059 0.09912699
v -0.01794534 0.08019206 0.10862686
v -0.02351369 0.08019099 0.10862694
v -0.02351367 0.08019097 0.10999024
f 6 4 3
f 13 6 3
f 13 3 16
f 16 3 12
f 16 12 17
f 17 12 18
f 3 10 12
f 3 9 10
f 5 9 3
f 5 11 9
f 1 11 5
f 5 2 1
f 9 8 10
f 7 8 9
f 15 6 13
f 13 14 15

