# https://github.com/mikedh/trimesh
v 0.03446877 0.04269979 0.23670736
v 0.03307025 0.04126075 0.24172461
v 0.00393968 0.04418446 0.23153335
v 0.03078661 0.03991055 0.24643221
v 0.02768724 0.03869021 0.25068712
v 0.03307005 0.04710718 0.22134124
v 0.03446867 0.04566810 0.22635846
v 0.03493968 0.04418394 0.23153290
v 0.02386587 0.05073143 0.20870610
v 0.02768687 0.04967790 0.21237890
v 0.03078632 0.04845746 0.21663371
v 0.00932248 0.05260142 0.20218748
v 0.01454203 0.05221574 0.20353177
v 0.01943942 0.05158603 0.20572688
v -0.00666322 0.05221610 0.20353208
v -0.00144370 0.05260161 0.20218764
v 0.00393939 0.05273136 0.20173486
v -0.01980789 0.04967870 0.21237959
v -0.01598696 0.05073210 0.20870668
v -0.01156058 0.05158655 0.20572732
v -0.02658942 0.04566913 0.22635934
v -0.02519090 0.04710816 0.22134209
v -0.02290726 0.04845836 0.21663450
v -0.02519070 0.04126174 0.24172546
v -0.02658931 0.04270082 0.23670825
v -0.02706032 0.04418498 0.23153381
v -0.01598652 0.03763749 0.25436062
v -0.01980752 0.03869101 0.25068781
v -0.02290697 0.03991146 0.24643299
v -0.00144313 0.03576749 0.26087922
v -0.00666268 0.03615317 0.25953493
v -0.01156007 0.03678288 0.25733984
v 0.01454257 0.03615282 0.25953463
v 0.00932306 0.03576731 0.26087907
v 0.00393997 0.03563755 0.26133186
v 0.02386631 0.03763681 0.25436005
v 0.01943993 0.03678236 0.25733939
f 1 2 3
f 3 2 4
f 3 4 5
f 5 36 3
f 3 36 37
f 3 37 33
f 33 34 3
f 3 34 35
f 3 35 30
f 30 31 3
f 3 31 32
f 3 32 27
f 27 28 3
f 3 28 29
f 3 29 24
f 24 25 3
f 3 25 26
f 3 26 21
f 21 22 3
f 3 22 23
f 3 23 18
f 18 19 3
f 3 19 20
f 3 20 15
f 15 16 3
f 3 16 17
f 3 17 12
f 12 13 3
f 3 13 14
f 3 14 9
f 9 10 3
f 3 10 11
f 3 11 6
f 6 7 3
f 3 7 8
f 3 8 1

