# https://github.com/mikedh/trimesh
v 0.00313925 0.08619545 0.14141715
v 0.00294277 0.08619540 0.14209987
v 0.00193838 0.08619527 0.13926654
v 0.00235159 0.08619534 0.13952437
v 0.00282611 0.08619542 0.14005311
v 0.00295533 0.08619544 0.14029056
v 0.00309886 0.08619546 0.14070898
v 0.00152760 0.08619519 0.13905506
v 0.00754364 0.08619634 0.13904993
v 0.00162064 0.08619513 0.14326034
v 0.00253128 0.08619531 0.14267895
v 0.00236259 0.08619528 0.14283006
v 0.00216491 0.09387013 0.14312699
v 0.00186338 0.08957826 0.14320156
v 0.00236988 0.09386320 0.14299230
v 0.00289362 0.09384478 0.14244865
v 0.00320798 0.09383348 0.14176241
v 0.00327764 0.09383152 0.14101063
v 0.00309445 0.09383922 0.14027783
v 0.00267914 0.09385503 0.13964672
v 0.00207840 0.09387590 0.13918880
v 0.00177070 0.08958454 0.13911407
v 0.00554158 0.09373564 0.13918339
v 0.00700507 0.09366242 0.13918085
f 14 10 12
f 14 12 15
f 15 12 11
f 15 11 16
f 11 2 16
f 16 2 1
f 16 1 17
f 17 1 18
f 18 1 7
f 18 7 19
f 7 6 19
f 19 6 5
f 19 5 20
f 20 5 4
f 20 4 21
f 21 4 3
f 21 3 22
f 22 3 8
f 15 13 14
f 22 8 9
f 23 22 9
f 23 9 24
f 21 22 23

