# https://github.com/mikedh/trimesh
v 0.01983838 0.09177991 0.12615818
v 0.01876926 0.09199236 0.12615819
v 0.01770022 0.09177950 0.12615821
v 0.02074482 0.09117449 0.12615815
v 0.01939195 0.08647524 0.12615809
v 0.02135057 0.09026829 0.12615813
v 0.01679402 0.09117374 0.12615821
v 0.01618860 0.09026731 0.12615821
v 0.02051201 0.08701490 0.12615807
v 0.02128700 0.08798709 0.12615809
v 0.02156343 0.08919925 0.12615810
v 0.01702840 0.08701424 0.12615813
v 0.01814867 0.08647501 0.12615810
v 0.01625304 0.08798613 0.12615816
v 0.01597616 0.08919819 0.12615819
f 1 2 3
f 1 3 5
f 5 3 7
f 5 7 8
f 15 5 8
f 14 5 15
f 14 13 5
f 12 13 14
f 4 1 5
f 4 5 6
f 5 11 6
f 5 10 11
f 9 10 5

