# https://github.com/mikedh/trimesh
v 0.01599237 0.04559930 0.07259292
v 0.01599339 0.04037950 0.07399049
v 0.01599442 0.03499632 0.07446043
v 0.01599544 0.02961332 0.07398845
v 0.01598973 0.05874581 0.06339137
v 0.01599052 0.05492412 0.06721161
v 0.01599140 0.05049711 0.07031017
v 0.01598823 0.06553024 0.04884934
v 0.01598857 0.06413068 0.05406860
v 0.01598908 0.06184606 0.05896554
v 0.01598826 0.06413472 0.03286336
v 0.01598807 0.06553229 0.03808315
v 0.01598806 0.06600222 0.04346633
v 0.01598982 0.05493316 0.01971685
v 0.01598915 0.05875340 0.02353854
v 0.01598863 0.06185196 0.02796554
v 0.01599249 0.04039113 0.01293242
v 0.01599152 0.04561040 0.01433198
v 0.01599062 0.05050734 0.01661660
v 0.01599556 0.02440515 0.01432794
v 0.01599455 0.02962495 0.01293036
v 0.01599351 0.03500813 0.01246043
v 0.01599820 0.01125864 0.02352949
v 0.01599741 0.01508033 0.01970926
v 0.01599653 0.01950734 0.01661069
v 0.01599970 0.00447421 0.03807152
v 0.01599936 0.00587377 0.03285226
v 0.01599885 0.00815839 0.02795532
v 0.01599967 0.00586973 0.05405750
v 0.01599986 0.00447216 0.04883771
v 0.01599987 0.00400223 0.04345452
v 0.01599811 0.01507129 0.06720401
v 0.01599878 0.01125105 0.06338232
v 0.01599931 0.00815249 0.05895532
v 0.01599641 0.02439405 0.07258888
v 0.01599731 0.01949711 0.07030427
v -0.04120848 0.04559950 0.01433281
v -0.04120750 0.04038024 0.01293325
v -0.04120649 0.03499723 0.01246126
v -0.04120545 0.02961405 0.01293120
v -0.04121085 0.05874250 0.02353937
v -0.04121017 0.05492227 0.01971768
v -0.04120938 0.05049644 0.01661743
v -0.04121193 0.06552140 0.03808399
v -0.04121174 0.06412382 0.03286419
v -0.04121137 0.06184107 0.02796638
v -0.04121143 0.06411978 0.05406944
v -0.04121177 0.06551934 0.04885017
v -0.04121194 0.06599133 0.04346717
v -0.04120948 0.05491322 0.06721243
v -0.04121026 0.05873491 0.06339220
v -0.04121092 0.06183516 0.05896638
v -0.04120661 0.04036861 0.07399133
v -0.04120763 0.04558840 0.07259376
v -0.04120859 0.05048621 0.07031100
v -0.04120359 0.02438316 0.07258972
v -0.04120456 0.02960242 0.07398928
v -0.04120558 0.03498542 0.07446126
v -0.04120122 0.01124016 0.06338315
v -0.04120189 0.01506039 0.06720485
v -0.04120269 0.01948621 0.07030509
v -0.04120014 0.00446126 0.04883854
v -0.04120033 0.00585884 0.05405834
v -0.04120069 0.00814159 0.05895615
v -0.04120064 0.00586288 0.03285309
v -0.04120030 0.00446331 0.03807236
v -0.04120013 0.00399133 0.04345536
v -0.04120258 0.01506944 0.01971009
v -0.04120180 0.01124775 0.02353032
v -0.04120114 0.00814749 0.02795615
v -0.04120444 0.02439425 0.01432877
v -0.04120347 0.01949644 0.01661152
f 39 21 40
f 39 22 21
f 38 22 39
f 38 17 22
f 37 17 38
f 37 18 17
f 43 18 37
f 43 19 18
f 42 19 43
f 42 14 19
f 41 14 42
f 41 15 14
f 46 15 41
f 46 16 15
f 45 16 46
f 45 11 16
f 44 11 45
f 44 12 11
f 49 12 44
f 49 13 12
f 48 13 49
f 48 8 13
f 47 8 48
f 47 9 8
f 52 9 47
f 52 10 9
f 51 10 52
f 51 5 10
f 50 5 51
f 50 6 5
f 55 6 50
f 55 7 6
f 54 7 55
f 54 1 7
f 53 1 54
f 53 2 1
f 58 2 53
f 58 3 2
f 57 3 58
f 57 4 3
f 56 4 57
f 56 35 4
f 61 35 56
f 61 36 35
f 60 36 61
f 60 32 36
f 59 32 60
f 59 33 32
f 64 33 59
f 64 34 33
f 63 34 64
f 63 29 34
f 62 29 63
f 62 30 29
f 67 30 62
f 67 31 30
f 66 31 67
f 66 26 31
f 65 26 66
f 65 27 26
f 70 27 65
f 70 28 27
f 69 28 70
f 69 23 28
f 68 23 69
f 68 24 23
f 72 24 68
f 72 25 24
f 71 25 72
f 71 20 25
f 40 20 71
f 40 21 20

