# https://github.com/mikedh/trimesh
v 0.01503561 0.08619776 0.13951682
v 0.01503409 0.09419775 0.13965660
v 0.01463939 0.09419768 0.13970858
v 0.01420330 0.08619759 0.13973986
v 0.01427160 0.09419760 0.13986093
v 0.01395576 0.09419753 0.14010330
v 0.01359401 0.08619747 0.14034916
v 0.01371341 0.09419748 0.14041913
v 0.01356107 0.09419745 0.14078693
v 0.01337100 0.08619741 0.14118148
v 0.01350912 0.09419743 0.14118163
v 0.01356108 0.09419744 0.14157633
v 0.01359403 0.08619744 0.14201380
v 0.01371344 0.09419746 0.14194413
v 0.01395579 0.09419750 0.14225997
v 0.01420334 0.08619754 0.14262310
v 0.01503414 0.09419769 0.14270660
v 0.01503566 0.08619770 0.14284609
v 0.01463944 0.09419762 0.14265466
v 0.01427163 0.09419755 0.14250231
v 0.01542884 0.09419777 0.14265464
v 0.01579663 0.09419784 0.14250229
v 0.01611247 0.09419791 0.14225993
v 0.01635481 0.09419796 0.14194410
v 0.01650716 0.09419800 0.14157629
v 0.01655911 0.09419801 0.14118159
v 0.01650715 0.09419801 0.14078689
v 0.01635479 0.09419799 0.14041910
v 0.01611244 0.09419795 0.14010325
v 0.01579660 0.09419789 0.13986091
v 0.01542879 0.09419782 0.13970856
v 0.01586798 0.08619785 0.14262307
v 0.01647727 0.08619799 0.14201376
v 0.01670028 0.08619804 0.14118144
v 0.01647725 0.08619802 0.14034912
v 0.01586794 0.08619791 0.13973983
f 1 2 3
f 1 31 2
f 1 30 31
f 36 30 1
f 36 29 30
f 28 29 36
f 35 28 36
f 35 27 28
f 34 27 35
f 34 26 27
f 25 26 34
f 33 25 34
f 33 24 25
f 23 24 33
f 32 23 33
f 32 22 23
f 21 22 32
f 18 21 32
f 18 17 21
f 17 18 19
f 19 18 16
f 19 16 20
f 20 16 15
f 13 15 16
f 13 14 15
f 12 14 13
f 10 12 13
f 10 11 12
f 9 11 10
f 7 9 10
f 7 8 9
f 6 8 7
f 4 6 7
f 4 5 6
f 3 5 4
f 1 3 4

