# https://github.com/mikedh/trimesh
v -0.00004424 0.09419487 0.14010349
v 0.00027160 0.09419493 0.13986114
v 0.00063939 0.09419501 0.13970879
v 0.00103409 0.09419508 0.13965681
v -0.00028658 0.09419482 0.14041933
v -0.00043893 0.09419478 0.14078714
v -0.00049089 0.09419476 0.14118184
v -0.00043892 0.09419477 0.14157653
v -0.00028656 0.09419479 0.14194433
v -0.00004421 0.09419483 0.14226016
v 0.00103414 0.09419502 0.14270681
v 0.00063944 0.09419496 0.14265485
v 0.00027163 0.09419488 0.14250252
v 0.00103409 0.09419508 0.13968182
v 0.00152951 0.09419518 0.13976598
v 0.00186044 0.09419524 0.13992994
v 0.00214128 0.09419528 0.14016980
v 0.00235500 0.09419532 0.14047100
v 0.00248864 0.09419534 0.14081529
v 0.00253411 0.09419534 0.14118180
v 0.00248865 0.09419533 0.14154831
v 0.00235502 0.09419529 0.14189260
v 0.00103414 0.09419503 0.14268181
v 0.00128540 0.09419508 0.14266062
v 0.00152955 0.09419512 0.14259763
v 0.00186048 0.09419519 0.14243366
v 0.00214131 0.09419525 0.14219381
v 0.00235479 0.09419532 0.14041929
v 0.00211244 0.09419528 0.14010346
v 0.00179660 0.09419522 0.13986112
v 0.00142879 0.09419516 0.13970877
v -0.00029133 0.09419479 0.14188409
v -0.00007808 0.09419482 0.14218831
v 0.00020341 0.09419487 0.14243078
v 0.00053586 0.09419493 0.14259665
v 0.00142884 0.09419511 0.14265485
v 0.00179663 0.09419517 0.14250249
v 0.00211247 0.09419524 0.14226013
v 0.00235482 0.09419529 0.14194429
v 0.00250716 0.09419533 0.14157650
v 0.00255911 0.09419534 0.14118180
v 0.00250715 0.09419534 0.14078709
v 0.00079529 0.09419504 0.13970095
v 0.00056257 0.09419499 0.13975786
v 0.00022706 0.09419493 0.13991743
v -0.00005894 0.09419487 0.14015457
v -0.00027788 0.09419482 0.14045472
v -0.00041634 0.09419478 0.14079948
v -0.00046582 0.09419477 0.14116770
v -0.00042328 0.09419477 0.14153679
f 28 17 29
f 28 18 17
f 28 19 18
f 42 19 28
f 42 20 19
f 41 20 42
f 41 21 20
f 40 21 41
f 40 22 21
f 39 22 40
f 39 27 22
f 38 27 39
f 38 26 27
f 37 26 38
f 37 25 26
f 36 25 37
f 36 24 25
f 11 24 36
f 11 23 24
f 35 23 11
f 12 35 11
f 13 35 12
f 13 34 35
f 10 34 13
f 10 33 34
f 9 33 10
f 9 32 33
f 8 32 9
f 8 50 32
f 8 49 50
f 7 49 8
f 7 48 49
f 6 48 7
f 6 47 48
f 5 47 6
f 5 46 47
f 1 46 5
f 1 45 46
f 2 45 1
f 2 44 45
f 3 44 2
f 3 43 44
f 4 43 3
f 4 14 43
f 15 14 4
f 31 15 4
f 30 15 31
f 30 16 15
f 29 16 30
f 29 17 16

