# https://github.com/mikedh/trimesh
v 0.02762887 0.08420112 0.08845792
v -0.00524943 0.05199494 0.08415779
v -0.00524388 0.05309494 0.08415781
v -0.00524388 0.05309495 0.08394366
v -0.00628422 0.05199474 0.08415781
v -0.00629018 0.05309474 0.08415782
v -0.00629019 0.05309474 0.08394367
v 0.02883836 0.05200135 0.08845729
v 0.02883830 0.05200143 0.08415730
v 0.02884385 0.05310143 0.08415732
v 0.02884384 0.05310144 0.08394317
v 0.02900076 0.08420146 0.08410659
v 0.02900083 0.08420138 0.08845790
v 0.02780358 0.05200115 0.08845731
v 0.02780352 0.05200123 0.08415731
v 0.02779755 0.05310123 0.08415733
v 0.02779755 0.05310124 0.08394318
v -0.00960889 0.05309411 0.08394372
v 0.03059111 0.05310177 0.08394314
v 0.02916983 0.09399399 0.08415804
v 0.02900111 0.08420102 0.10780440
v 0.02917016 0.09399355 0.10736342
v 0.03059109 0.05310179 0.08285729
v -0.00960891 0.05309413 0.08285788
f 23 19 11
f 11 17 23
f 23 17 4
f 23 4 24
f 24 4 7
f 4 6 7
f 3 6 4
f 24 7 18
f 11 16 17
f 10 16 11
f 8 9 10
f 10 13 8
f 10 12 13
f 11 12 10
f 12 20 13
f 13 20 22
f 13 22 21
f 8 13 14
f 14 13 1
f 6 3 5
f 5 3 2
f 9 8 15
f 15 8 14
f 16 10 15
f 15 10 9

