# https://github.com/mikedh/trimesh
v 0.06515928 -0.06007411 0.17696497
v 0.05151571 -0.09327055 0.18065295
v 0.04501947 -0.09587708 0.18094274
v 0.04413592 -0.09600081 0.18095651
v 0.05467245 -0.09053549 0.18034947
v 0.05465266 -0.09055626 0.18035212
v 0.05463471 -0.09057603 0.18035448
v 0.05433733 -0.09088713 0.18038842
v 0.05610066 -0.08874284 0.18015024
v 0.05491169 -0.09027354 0.18032019
v 0.05469725 -0.09050878 0.18034638
v 0.06346276 -0.06638241 0.17766583
v 0.06316993 -0.06746754 0.17778641
v 0.06015594 -0.07858264 0.17902134
v 0.05967014 -0.08036686 0.17922257
v 0.05965100 -0.08043022 0.17922892
v 0.05787595 -0.08549538 0.17978846
v 0.04841451 -0.09493027 0.18083724
v 0.06256449 -0.06638228 0.17766637
v 0.06204645 -0.06746743 0.17778702
v 0.06002321 -0.07141984 0.17822650
v 0.04801012 -0.09055756 0.18035193
v 0.05473781 -0.08043125 0.17922820
f 12 1 19
f 12 19 13
f 13 19 20
f 13 20 14
f 21 14 20
f 23 14 21
f 23 15 14
f 16 15 23
f 23 17 16
f 23 9 17
f 22 9 23
f 22 10 9
f 11 10 22
f 22 5 11
f 22 6 5
f 7 6 22
f 22 8 7
f 22 2 8
f 18 2 22
f 22 3 18
f 4 3 22

