# https://github.com/mikedh/trimesh
v 0.00358416 0.10014689 0.22236508
v 0.00358417 0.10015386 0.22249219
v 0.00358785 0.08489172 0.27566817
v 0.00358785 0.08488263 0.27570918
v 0.00198794 0.08451346 0.27737108
v 0.00358795 0.08450159 0.27742586
v -0.02697814 0.09031377 0.25676298
v -0.02211898 0.08791153 0.26513743
v -0.01487846 0.08601999 0.27173367
v -0.00591824 0.08481204 0.27594897
v 0.00198796 0.08441364 0.27734244
v -0.02901192 0.09300720 0.24737559
v -0.02803446 0.09574571 0.23783314
v -0.01018201 0.09982031 0.21646310
v -0.00710585 0.09974717 0.21511999
v 0.00198413 0.09964186 0.21316962
v 0.00198396 0.10055496 0.21343155
v -0.01680494 0.10006046 0.22086155
v -0.02383052 0.09841249 0.22854267
v -0.01858052 0.10014964 0.22249252
v 0.00797521 0.10060726 0.21364368
v 0.00269282 0.10054581 0.21339306
v 0.01912782 0.10154060 0.21750547
v 0.01315404 0.10089526 0.21483389
v 0.03028537 0.09894948 0.22656633
v 0.02267535 0.10095479 0.21955465
v 0.03520776 0.09638586 0.23552711
v 0.03694034 0.09352545 0.24552281
v 0.03530638 0.09066007 0.25553367
v 0.01345400 0.08480707 0.27605799
v 0.01468992 0.08489384 0.27566800
v 0.02293200 0.08605436 0.27161840
v 0.03047255 0.08808205 0.26453841
v 0.00198416 0.10014658 0.22236511
v 0.00198785 0.08488233 0.27570918
v 0.00198383 0.10153732 0.21750572
f 18 20 34
f 34 20 2
f 4 2 20
f 19 4 20
f 13 4 19
f 13 35 4
f 4 35 5
f 6 4 5
f 30 4 6
f 30 3 4
f 31 3 30
f 26 3 31
f 1 3 26
f 23 1 26
f 23 34 1
f 36 34 23
f 23 24 36
f 36 24 21
f 36 21 22
f 22 17 36
f 26 31 32
f 27 26 32
f 27 32 28
f 28 32 29
f 32 33 29
f 25 26 27
f 12 35 13
f 12 10 35
f 10 11 35
f 9 10 12
f 7 9 12
f 8 9 7
f 34 2 1
f 34 14 18
f 34 15 14
f 16 15 34
f 1 2 3
f 3 2 4
f 16 34 17
f 17 34 36
f 11 5 35

