# https://github.com/mikedh/trimesh
v 0.00295029 0.08619540 0.14236346
v 0.00244786 0.08619530 0.14293326
v 0.00178445 0.08619516 0.14330341
v 0.00103567 0.08619501 0.14343166
v 0.00028689 0.08619487 0.14330342
v -0.00037653 0.08619475 0.14293331
v -0.00087897 0.08619467 0.14236350
v 0.00253564 0.08619534 0.14118165
v 0.00242145 0.08619533 0.14060761
v 0.00209628 0.08619528 0.14012098
v 0.00160964 0.08619519 0.13979584
v 0.00103562 0.08619509 0.13968167
v 0.00046159 0.08619498 0.13979585
v -0.00002504 0.08619487 0.14012101
v -0.00035019 0.08619481 0.14060766
v -0.00046436 0.08619478 0.14118168
v 0.00312451 0.08619543 0.14236344
v 0.00321737 0.08619549 0.14018163
v 0.00305119 0.08619546 0.14018163
v -0.00097994 0.08619469 0.14018169
v -0.00056747 0.08619478 0.13960288
v 0.00000496 0.08619490 0.13918161
v 0.00068024 0.08619503 0.13895991
v 0.00139098 0.08619517 0.13895990
v 0.00206626 0.08619529 0.13918158
v 0.00263870 0.08619539 0.13960284
v -0.00035017 0.08619478 0.14175572
v -0.00321434 0.08619422 0.14236355
v -0.00321438 0.08619427 0.14018172
v 0.00338781 0.08619550 0.14165841
v 0.00341981 0.08619552 0.14090650
v -0.00364736 0.08619415 0.14211355
v -0.00346434 0.08619418 0.14229655
v -0.00371435 0.08619414 0.14186355
v -0.00371437 0.08619417 0.14068173
v -0.00364738 0.08619418 0.14043173
v -0.00346437 0.08619422 0.14024872
v -0.00002501 0.08619484 0.14224234
v 0.00046163 0.08619493 0.14256749
v 0.00103566 0.08619503 0.14268166
v 0.00160968 0.08619514 0.14256747
v 0.00209631 0.08619524 0.14224231
v 0.00242147 0.08619531 0.14175567
f 27 16 7
f 7 16 28
f 16 29 28
f 16 20 29
f 15 20 16
f 15 21 20
f 14 21 15
f 14 22 21
f 13 22 14
f 13 23 22
f 12 23 13
f 12 24 23
f 11 24 12
f 11 25 24
f 26 25 11
f 10 26 11
f 10 19 26
f 9 19 10
f 9 8 19
f 19 8 31
f 8 30 31
f 8 1 30
f 1 17 30
f 43 1 8
f 43 2 1
f 42 2 43
f 42 3 2
f 41 3 42
f 41 4 3
f 40 4 41
f 40 5 4
f 39 5 40
f 39 6 5
f 38 6 39
f 38 7 6
f 19 31 18
f 35 28 29
f 35 29 36
f 36 29 37
f 34 28 35
f 34 33 28
f 32 33 34
f 27 7 38

