# https://github.com/mikedh/trimesh
v 0.00870059 0.00000089 0.04045988
v 0.00870053 0.00000098 0.03579989
v 0.00914239 0.00165098 0.04045990
v 0.00914233 0.00165107 0.03579991
v 0.01035005 0.00285909 0.04045992
v 0.01034997 0.00285918 0.03579990
v 0.01199996 0.00330152 0.04045988
v 0.01199989 0.00330161 0.03579989
v 0.01365005 0.00285972 0.04045986
v 0.01364998 0.00285980 0.03579985
v 0.01485815 0.00165207 0.04045981
v 0.01485809 0.00165215 0.03579982
v 0.01530058 0.00000215 0.04045977
v 0.01530052 0.00000224 0.03579978
v 0.01485878 -0.00164793 0.04045974
v 0.01485872 -0.00164785 0.03579976
v 0.01365114 -0.00285605 0.04045976
v 0.01365106 -0.00285596 0.03579974
v 0.01200122 -0.00329848 0.04045976
v 0.01200115 -0.00329839 0.03579977
v 0.01035114 -0.00285668 0.04045981
v 0.01035106 -0.00285659 0.03579979
v 0.00914302 -0.00164902 0.04045984
v 0.00914296 -0.00164893 0.03579985
f 1 2 3
f 3 2 4
f 3 4 5
f 5 4 6
f 5 6 7
f 7 6 8
f 7 8 9
f 9 8 10
f 9 10 11
f 11 10 12
f 11 12 13
f 13 12 14
f 13 14 15
f 15 14 16
f 15 16 17
f 17 16 18
f 17 18 19
f 19 18 20
f 19 20 21
f 21 20 22
f 21 22 23
f 23 22 24
f 23 24 1
f 1 24 2

