# https://github.com/mikedh/trimesh
v 0.00870059 0.00000089 0.04045988
v 0.00914239 0.00165098 0.04045990
v 0.01035005 0.00285909 0.04045992
v 0.01199996 0.00330152 0.04045988
v 0.01365005 0.00285972 0.04045986
v 0.01485815 0.00165207 0.04045981
v 0.01530058 0.00000215 0.04045977
v 0.01485878 -0.00164793 0.04045974
v 0.01365114 -0.00285605 0.04045976
v 0.01200122 -0.00329848 0.04045976
v 0.01035114 -0.00285668 0.04045981
v 0.00914302 -0.00164902 0.04045984
v 0.01200109 -0.00259848 0.04045977
v 0.01070102 -0.00225039 0.04045981
v 0.00974918 -0.00129891 0.04045984
v 0.00940059 0.00000102 0.04045986
v 0.00974868 0.00130109 0.04045989
v 0.01070016 0.00225294 0.04045990
v 0.01200010 0.00260152 0.04045987
v 0.01330017 0.00225343 0.04045986
v 0.01425200 0.00130195 0.04045980
v 0.01460059 0.00000201 0.04045978
v 0.01425250 -0.00129805 0.04045976
v 0.01330102 -0.00224990 0.04045977
f 13 10 14
f 14 10 11
f 14 11 15
f 15 11 12
f 15 12 16
f 16 12 1
f 16 1 17
f 17 1 2
f 17 2 18
f 18 2 3
f 18 3 19
f 19 3 4
f 19 4 20
f 20 4 5
f 20 5 21
f 21 5 6
f 21 6 22
f 22 6 7
f 22 7 23
f 23 7 8
f 23 8 24
f 24 8 9
f 24 9 13
f 13 9 10

