# https://github.com/mikedh/trimesh
v 0.02387285 -0.03763543 0.25435662
v 0.02769396 -0.03868784 0.25068361
v 0.03079354 -0.03990725 0.24642858
v 0.03307741 -0.04125663 0.24172086
v 0.00932927 -0.03576905 0.26087582
v 0.01454885 -0.03615353 0.25953135
v 0.01944631 -0.03678202 0.25733605
v -0.00665640 -0.03615757 0.25953165
v -0.00143692 -0.03577110 0.26087597
v 0.00394615 -0.03564027 0.26132861
v -0.01980080 -0.03869688 0.25068429
v -0.01597998 -0.03764303 0.25435719
v -0.01155369 -0.03678793 0.25733650
v -0.02658190 -0.04270659 0.23670436
v -0.02518353 -0.04126772 0.24172170
v -0.02290004 -0.03991748 0.24642937
v -0.02518272 -0.04711230 0.22133781
v -0.02658149 -0.04567396 0.22635520
v -0.02705265 -0.04419037 0.23152979
v -0.01597816 -0.05073349 0.20870206
v -0.01979926 -0.04968109 0.21237507
v -0.02289884 -0.04846167 0.21663009
v -0.00143457 -0.05259987 0.20218286
v -0.00665416 -0.05221540 0.20352733
v -0.01155162 -0.05158690 0.20572263
v 0.01455109 -0.05221136 0.20352702
v 0.00933162 -0.05259782 0.20218270
v 0.00394854 -0.05272865 0.20173006
v 0.02769549 -0.04967204 0.21237439
v 0.02387468 -0.05072590 0.20870148
v 0.01944838 -0.05158100 0.20572218
v 0.03447659 -0.04566233 0.22635430
v 0.03307823 -0.04710120 0.22133696
v 0.03079473 -0.04845144 0.21662931
v 0.03447618 -0.04269496 0.23670349
v 0.03494735 -0.04417856 0.23152888
v -0.02657078 -0.10065842 0.24212061
v -0.02517201 -0.10209676 0.23710322
v -0.02288814 -0.10344614 0.23239550
v -0.01978856 -0.10466556 0.22814049
v -0.02517283 -0.09625219 0.25748712
v -0.02657120 -0.09769106 0.25246978
v -0.02704195 -0.09917483 0.24729520
v -0.01596928 -0.09262749 0.27012262
v -0.01979009 -0.09368135 0.26644969
v -0.02288933 -0.09490194 0.26219478
v -0.00142622 -0.09075557 0.27664140
v -0.00664570 -0.09114203 0.27529708
v -0.01154298 -0.09177239 0.27310190
v 0.01455955 -0.09113799 0.27529675
v 0.00933997 -0.09075351 0.27664122
v 0.00395686 -0.09062473 0.27709404
v 0.02770466 -0.09367231 0.26644900
v 0.02388355 -0.09261990 0.27012202
v 0.01945702 -0.09176648 0.27310145
v 0.03448688 -0.09767943 0.25246888
v 0.03308811 -0.09624109 0.25748628
v 0.03080424 -0.09489172 0.26219401
v 0.03308893 -0.10208566 0.23710237
v 0.03448730 -0.10064679 0.24211971
v 0.03495805 -0.09916303 0.24729429
v 0.02388538 -0.10571036 0.22446689
v 0.02770619 -0.10465650 0.22813980
v 0.03080543 -0.10343591 0.23239473
v 0.00934232 -0.10758229 0.21794811
v 0.01456180 -0.10719582 0.21929243
v 0.01945908 -0.10656546 0.22148760
v -0.00664345 -0.10719986 0.21929274
v -0.00142387 -0.10758434 0.21794827
v 0.00395924 -0.10771312 0.21749547
v -0.01596745 -0.10571796 0.22446747
v -0.01154092 -0.10657137 0.22148804
f 39 21 40
f 40 21 20
f 40 20 71
f 71 20 25
f 71 25 72
f 72 25 24
f 72 24 68
f 68 24 23
f 68 23 69
f 69 23 28
f 69 28 70
f 70 28 27
f 70 27 65
f 65 27 26
f 65 26 66
f 66 26 31
f 66 31 67
f 67 31 30
f 67 30 62
f 62 30 29
f 62 29 63
f 63 29 34
f 63 34 64
f 64 34 33
f 64 33 59
f 59 33 32
f 59 32 60
f 60 32 36
f 60 36 61
f 61 36 35
f 61 35 56
f 56 35 4
f 56 4 57
f 57 4 3
f 57 3 58
f 58 3 2
f 58 2 53
f 53 2 1
f 53 1 54
f 54 1 7
f 54 7 55
f 55 7 6
f 55 6 50
f 50 6 5
f 50 5 51
f 51 5 10
f 51 10 52
f 52 10 9
f 52 9 47
f 47 9 8
f 47 8 48
f 48 8 13
f 48 13 49
f 49 13 12
f 49 12 44
f 44 12 11
f 44 11 45
f 45 11 16
f 45 16 46
f 46 16 15
f 46 15 41
f 41 15 14
f 41 14 42
f 42 14 19
f 42 19 43
f 43 19 18
f 43 18 37
f 37 18 17
f 37 17 38
f 38 17 22
f 38 22 39
f 39 22 21

