# https://github.com/mikedh/trimesh
v 0.03352172 0.09353711 0.10999338
v 0.03325895 0.09358509 0.11062937
v 0.03311889 0.08420175 0.11054730
v 0.03229297 0.09373859 0.11159901
v 0.03221155 0.08420156 0.11145467
v 0.03097025 0.09389115 0.11195612
v 0.03097210 0.08420131 0.11178680
v 0.03361186 0.09352003 0.10930801
v 0.03345098 0.08420184 0.10930784
v 0.03352188 0.09353710 0.10862333
v 0.03311886 0.08420180 0.10806838
v 0.03325891 0.09358514 0.10798666
v 0.03221149 0.08420164 0.10716105
v 0.03229291 0.09373868 0.10701706
v 0.03097202 0.08420141 0.10682895
v 0.03097017 0.09389125 0.10665999
v 0.02978849 0.09397192 0.11167940
v 0.02917022 0.09399348 0.11125275
v 0.02900115 0.08420096 0.11081140
v 0.02986642 0.08420111 0.11152658
v 0.02900111 0.08420102 0.10780440
v 0.02986636 0.08420119 0.10708920
v 0.02917016 0.09399355 0.10736342
v 0.02978843 0.09397201 0.10693675
f 1 2 3
f 1 3 8
f 8 3 9
f 8 9 10
f 10 9 11
f 10 11 12
f 12 11 13
f 12 13 14
f 14 13 15
f 14 15 16
f 16 15 22
f 16 22 24
f 24 22 21
f 24 21 23
f 3 2 4
f 3 4 5
f 5 4 6
f 5 6 7
f 17 7 6
f 17 20 7
f 19 20 17
f 17 18 19

