# https://github.com/mikedh/trimesh
v 0.01601292 -0.06449778 0.04345854
v 0.01601463 -0.07349777 0.04345836
v -0.01598537 -0.07350387 0.04345884
v -0.01598708 -0.06450387 0.04345901
v 0.00301282 -0.06400025 0.04345874
v 0.01551283 -0.06399787 0.04345857
v -0.01548718 -0.06400377 0.04345900
v -0.00598717 -0.06400196 0.04345889
v 0.00185775 -0.06200047 0.04345881
v -0.00483285 -0.06200175 0.04345889
v -0.00980489 -0.06895269 0.04345883
v -0.01008603 -0.07000274 0.04345882
v -0.00980449 -0.07105269 0.04345879
v 0.00619511 -0.06894965 0.04345860
v -0.00616758 -0.06895200 0.04345877
v 0.00591397 -0.06999969 0.04345859
v -0.00588603 -0.07000194 0.04345875
v 0.00619551 -0.07104965 0.04345857
v 0.00696431 -0.07181815 0.04345853
v -0.00798643 -0.06790234 0.04345884
v -0.00903638 -0.06818389 0.04345885
v 0.01011397 -0.06999890 0.04345853
v 0.00983282 -0.07104895 0.04345851
v 0.00906431 -0.07181775 0.04345851
v 0.00801436 -0.07209930 0.04345850
v -0.00798563 -0.07210235 0.04345876
v -0.00903568 -0.07182120 0.04345879
v 0.00983242 -0.06894895 0.04345855
v 0.00906362 -0.06818044 0.04345858
v 0.00801356 -0.06789929 0.04345858
v 0.00696362 -0.06818084 0.04345860
v -0.00693638 -0.06818350 0.04345880
v -0.00616718 -0.07105200 0.04345874
v -0.00693568 -0.07182080 0.04345874
f 9 10 5
f 5 10 8
f 21 5 8
f 20 5 21
f 31 5 20
f 30 5 31
f 30 6 5
f 29 6 30
f 29 1 6
f 28 1 29
f 28 2 1
f 22 2 28
f 22 23 2
f 2 23 24
f 2 24 25
f 25 33 2
f 2 33 34
f 2 34 26
f 2 26 3
f 3 26 27
f 3 27 13
f 12 3 13
f 12 4 3
f 11 4 12
f 11 7 4
f 11 8 7
f 25 17 33
f 19 17 25
f 18 17 19
f 16 17 18
f 16 15 17
f 14 15 16
f 14 32 15
f 14 20 32
f 31 20 14
f 21 8 11

