# https://github.com/mikedh/trimesh
v 0.01601317 -0.06629765 0.03680193
v 0.01301317 -0.06629822 0.03680199
v 0.01601281 -0.06480853 0.03182643
v 0.01301301 -0.06564131 0.03423911
v -0.01598769 -0.06254026 0.02715780
v -0.01598719 -0.06481462 0.03182689
v -0.01598700 -0.06564683 0.03423953
v 0.01601239 -0.06289832 0.02778877
v 0.01251239 -0.06289899 0.02778882
v 0.01251205 -0.06132994 0.02527531
v -0.01598832 -0.05954055 0.02291812
v 0.01251168 -0.05953512 0.02291771
v 0.01251662 -0.06289290 0.02777796
v 0.01269836 -0.06265354 0.02728844
v 0.01262956 -0.05955684 0.02292171
v 0.01273404 -0.05961498 0.02293197
v 0.01270340 -0.06136122 0.02525368
v 0.01288954 -0.05979387 0.02295910
v 0.01286563 -0.06145038 0.02519209
v 0.01298097 -0.06001427 0.02298347
v 0.01297404 -0.06158383 0.02509991
v 0.01301181 -0.06024944 0.02299864
v 0.01301212 -0.06174127 0.02499118
v 0.01289027 -0.06243472 0.02665649
v 0.01296969 -0.06234688 0.02627700
v 0.01301224 -0.06227910 0.02579532
v 0.00641308 -0.03457156 0.01146211
v 0.00635683 -0.03499901 0.01145925
v -0.00034317 -0.03500028 0.01145934
v 0.01600982 -0.05036533 0.01539064
v 0.01600987 -0.05066705 0.01555796
v 0.01250988 -0.05066772 0.01555801
v 0.01251085 -0.05553896 0.01892169
v -0.01598914 -0.05554439 0.01892210
v 0.01251038 -0.05318129 0.01712697
v -0.01599018 -0.05037143 0.01539112
v 0.01300135 -0.00449817 0.03377727
v 0.01600135 -0.00449759 0.03377723
v 0.01300141 -0.00492963 0.03251052
v 0.01600174 -0.00696768 0.02802170
v -0.01599859 -0.00493515 0.03251095
v -0.00116789 -0.03642938 0.01149125
v -0.00056407 -0.03582533 0.01146996
v 0.01600750 -0.03847402 0.01164849
v -0.00156537 -0.03659417 0.01149903
v -0.00342195 -0.03582587 0.01147001
v -0.00281789 -0.03642970 0.01149128
v -0.01599250 -0.03848011 0.01164895
v -0.00242004 -0.03659442 0.01149905
v -0.00199285 -0.03665060 0.01150190
v -0.01599132 -0.04460976 0.01293536
v 0.01600869 -0.04460366 0.01293490
v 0.00657805 -0.03582397 0.01146986
v -0.00039920 -0.03542695 0.01146218
v 0.00641316 -0.03542614 0.01146208
v 0.00843464 -0.03659227 0.01149890
v 0.00883211 -0.03642748 0.01149110
v 0.00718210 -0.03642779 0.01149113
v 0.00757996 -0.03659252 0.01149891
v 0.00800715 -0.03664869 0.01150175
v 0.00943562 -0.03417342 0.01146984
v 0.00883156 -0.03356960 0.01149116
v 0.01600630 -0.03221120 0.01158066
v 0.00960010 -0.03456972 0.01146208
v 0.00943593 -0.03582342 0.01146981
v 0.00960080 -0.03542505 0.01146203
v 0.00965683 -0.03499838 0.01145919
v -0.00056438 -0.03417532 0.01146999
v -0.00116844 -0.03357150 0.01149130
v -0.00156677 -0.03340665 0.01149911
v -0.00199348 -0.03335060 0.01150196
v -0.00242009 -0.03340678 0.01149913
v -0.00281843 -0.03357182 0.01149133
v -0.01599369 -0.03221729 0.01158112
v -0.00342226 -0.03417587 0.01147004
v -0.00358692 -0.03457346 0.01146225
v -0.00364316 -0.03500091 0.01145939
v -0.00358684 -0.03542804 0.01146223
v 0.00843323 -0.03340474 0.01149896
v 0.00800652 -0.03334869 0.01150182
v 0.00757991 -0.03340488 0.01149898
v -0.00039990 -0.03457163 0.01146223
v 0.00718156 -0.03356991 0.01149119
v 0.00657773 -0.03417396 0.01146989
v -0.01599826 -0.00697378 0.02802216
v 0.01600234 -0.01051154 0.02285754
v -0.01599767 -0.01051764 0.02285801
v 0.01600313 -0.01499343 0.01848259
v -0.01599687 -0.01499952 0.01848306
v 0.01600408 -0.02024164 0.01506445
v -0.01599592 -0.02024774 0.01506492
v 0.01600515 -0.02605513 0.01273404
v -0.01599485 -0.02606123 0.01273452
v 0.01601318 -0.06629767 0.03779850
v 0.01601224 -0.06227352 0.02573671
v 0.01600138 -0.00449763 0.03579968
v 0.01601226 -0.06256609 0.02361168
v 0.01601101 -0.05665098 0.01473387
v 0.01601068 -0.05484415 0.01589004
v 0.01601028 -0.05271914 0.01618269
v 0.01601246 -0.06372219 0.02180481
v 0.01601250 -0.06398874 0.02153824
v 0.01601270 -0.06517258 0.01965408
v 0.01601271 -0.06542169 0.01744286
v 0.01601254 -0.06468671 0.01534253
v 0.01601222 -0.06311321 0.01376911
v 0.01601181 -0.06101287 0.01303420
v 0.01601139 -0.05880165 0.01328339
v 0.01601105 -0.05691753 0.01446732
v -0.01599862 -0.00450373 0.03580016
v -0.01598900 -0.05615602 0.02054930
v -0.01598682 -0.06630377 0.03779898
v -0.01598686 -0.06630372 0.03561568
v -0.01598864 -0.05791334 0.02230655
v -0.01599865 -0.00450368 0.03340690
v 0.01300135 -0.00449816 0.03340648
v 0.01301315 -0.06629820 0.03561527
v 0.01301245 -0.06372275 0.02180486
v 0.01301250 -0.06398931 0.02153828
v 0.01301101 -0.05665155 0.01473392
v 0.01301105 -0.05691811 0.01446735
v 0.01301175 -0.06045367 0.01590283
v 0.01301155 -0.05940367 0.01618419
v 0.01301142 -0.05863503 0.01695285
v 0.01301138 -0.05835371 0.01800286
v 0.01301145 -0.05863507 0.01905286
v 0.01301161 -0.05940374 0.01982150
v 0.01301181 -0.06045375 0.02010282
v 0.01301201 -0.06150374 0.01982146
v 0.01301214 -0.06227238 0.01905279
v 0.01301218 -0.06255371 0.01800278
v 0.01301211 -0.06227234 0.01695278
v 0.01301195 -0.06150367 0.01618415
v 0.01301139 -0.05880222 0.01328343
v 0.01301182 -0.06101344 0.01303425
v 0.01301222 -0.06311379 0.01376914
v 0.01301254 -0.06468728 0.01534258
v 0.01301271 -0.06542225 0.01744290
v 0.01301270 -0.06517316 0.01965413
v 0.01301027 -0.05266113 0.01617773
v 0.01301028 -0.05271971 0.01618273
v 0.01301043 -0.05346530 0.01671552
v 0.01301068 -0.05484473 0.01589008
v 0.01301083 -0.05545789 0.01820728
v 0.01301224 -0.06227409 0.02573676
v 0.01301226 -0.06256666 0.02361172
v 0.01301099 -0.05615050 0.02054887
v 0.01301136 -0.05790782 0.02230613
v 0.01288809 -0.05180000 0.01602217
v 0.01296761 -0.05217947 0.01610997
v 0.01269600 -0.05116806 0.01580341
v 0.01251411 -0.05067858 0.01556410
v 0.01297235 -0.05335659 0.01687298
v 0.01286394 -0.05326443 0.01700645
v 0.01270173 -0.05320288 0.01709564
v 0.01262864 -0.05553493 0.01889999
v 0.01273313 -0.05552466 0.01884186
v 0.01288871 -0.05549747 0.01866277
v 0.01297968 -0.05547320 0.01844381
f 1 2 3
f 1 94 2
f 2 94 112
f 2 112 117
f 117 112 113
f 117 113 4
f 4 113 7
f 6 4 7
f 6 3 4
f 5 3 6
f 9 3 5
f 8 3 9
f 8 9 13
f 13 9 10
f 13 10 14
f 10 17 14
f 10 15 17
f 15 16 17
f 17 16 18
f 148 18 16
f 20 18 148
f 148 22 20
f 21 20 22
f 21 22 23
f 25 21 23
f 25 23 26
f 23 145 26
f 23 128 145
f 145 128 146
f 146 128 129
f 146 129 118
f 129 119 118
f 129 139 119
f 130 139 129
f 130 138 139
f 131 138 130
f 131 137 138
f 132 137 131
f 132 136 137
f 133 136 132
f 133 122 136
f 122 123 136
f 136 123 144
f 123 124 144
f 144 124 125
f 144 125 147
f 147 125 126
f 147 126 148
f 148 126 127
f 147 159 144
f 159 142 144
f 159 153 142
f 140 142 153
f 140 141 142
f 142 141 143
f 140 153 150
f 150 153 154
f 150 154 149
f 149 154 155
f 149 155 151
f 149 151 31
f 31 151 152
f 31 152 32
f 30 31 32
f 32 36 30
f 30 36 51
f 30 51 52
f 52 51 48
f 52 48 44
f 44 48 50
f 48 49 50
f 48 47 49
f 46 47 48
f 48 78 46
f 48 77 78
f 74 77 48
f 74 76 77
f 75 76 74
f 74 73 75
f 72 73 74
f 74 71 72
f 74 63 71
f 93 63 74
f 93 92 63
f 91 92 93
f 91 90 92
f 89 90 91
f 89 88 90
f 87 88 89
f 87 86 88
f 85 86 87
f 85 40 86
f 41 40 85
f 39 40 41
f 39 38 40
f 37 38 39
f 96 38 37
f 37 110 96
f 37 115 110
f 116 115 37
f 116 41 115
f 39 41 116
f 63 70 71
f 63 69 70
f 68 69 63
f 63 80 68
f 68 80 81
f 68 81 82
f 82 81 83
f 82 83 29
f 29 83 84
f 29 84 27
f 27 28 29
f 29 28 54
f 54 28 55
f 54 55 53
f 53 43 54
f 53 58 43
f 43 58 59
f 43 59 44
f 44 59 60
f 44 60 56
f 56 57 44
f 57 65 44
f 44 65 66
f 44 66 63
f 63 66 67
f 63 67 64
f 61 63 64
f 61 62 63
f 62 79 63
f 42 43 44
f 42 44 45
f 63 79 80
f 44 50 45
f 35 36 32
f 35 34 36
f 33 34 35
f 33 35 156
f 156 35 155
f 156 155 157
f 147 156 157
f 157 158 147
f 157 154 158
f 152 155 35
f 147 33 156
f 34 33 147
f 147 111 34
f 147 114 111
f 148 114 147
f 148 12 114
f 15 12 148
f 12 11 114
f 10 11 12
f 10 5 11
f 152 35 32
f 151 155 152
f 157 155 154
f 149 31 150
f 150 31 100
f 158 154 153
f 150 100 140
f 100 141 140
f 100 143 141
f 99 143 100
f 99 120 143
f 98 120 99
f 98 109 120
f 120 109 121
f 121 109 108
f 121 108 134
f 134 108 107
f 134 107 135
f 135 107 106
f 135 106 136
f 136 106 105
f 136 105 137
f 137 105 104
f 137 104 138
f 138 104 103
f 138 103 139
f 139 103 102
f 139 102 119
f 101 119 102
f 118 119 101
f 101 146 118
f 97 146 101
f 97 145 146
f 95 145 97
f 95 26 145
f 158 153 159
f 142 143 144
f 120 144 143
f 147 158 159
f 136 144 120
f 121 136 120
f 121 135 136
f 134 135 121
f 25 26 95
f 25 95 24
f 24 95 8
f 24 8 14
f 14 19 24
f 24 19 21
f 24 21 25
f 22 128 23
f 22 127 128
f 19 20 21
f 148 127 22
f 19 18 20
f 17 18 19
f 148 16 15
f 12 15 10
f 14 17 19
f 14 8 13
f 9 5 10
f 3 2 4
f 37 39 116
f 117 4 2

