# https://github.com/mikedh/trimesh
v 0.03202106 0.09377443 0.16630805
v 0.03202289 0.08420049 0.16630785
v 0.03198533 0.09377905 0.16657966
v 0.03188222 0.08420045 0.16683286
v 0.03188040 0.09379233 0.16683304
v 0.03149790 0.08420037 0.16721720
v 0.03149607 0.09383745 0.16721737
v 0.03097291 0.08420026 0.16735788
v 0.03097106 0.09389010 0.16735806
v 0.03044790 0.08420017 0.16721721
v 0.03044605 0.09393242 0.16721739
v 0.03022869 0.09394693 0.16705063
v 0.03006357 0.08420010 0.16683289
v 0.03006171 0.09395687 0.16683307
v 0.02995692 0.09396259 0.16658023
v 0.02992289 0.08420008 0.16630788
v 0.02992103 0.09396446 0.16630808
v 0.03044788 0.08420020 0.16539855
v 0.03006355 0.08420012 0.16578288
v 0.03188221 0.08420046 0.16578285
v 0.03149788 0.08420040 0.16539854
v 0.03097287 0.08420031 0.16525787
v 0.03198515 0.09377908 0.16603579
v 0.03188038 0.09379236 0.16578305
v 0.02995674 0.09396261 0.16603656
v 0.03006170 0.09395690 0.16578308
v 0.03022875 0.09394695 0.16556542
v 0.03044602 0.09393245 0.16539873
v 0.03097103 0.09389015 0.16525805
v 0.03149604 0.09383749 0.16539872
f 1 2 3
f 3 2 4
f 3 4 5
f 5 4 6
f 5 6 7
f 7 6 8
f 7 8 9
f 9 8 10
f 9 10 11
f 11 10 12
f 12 10 13
f 12 13 14
f 14 13 15
f 15 13 16
f 15 16 17
f 17 16 25
f 25 16 19
f 25 19 26
f 26 19 27
f 27 19 18
f 27 18 28
f 28 18 22
f 28 22 29
f 29 22 21
f 29 21 30
f 30 21 20
f 30 20 24
f 20 23 24
f 20 1 23
f 2 1 20

