# https://github.com/mikedh/trimesh
v 0.00953564 0.08619668 0.14118154
v 0.00942145 0.08619667 0.14060752
v 0.00909628 0.08619662 0.14012088
v 0.00860964 0.08619653 0.13979574
v 0.00803562 0.08619642 0.13968156
v 0.00746159 0.08619631 0.13979575
v 0.00697496 0.08619621 0.14012091
v 0.00664981 0.08619614 0.14060755
v 0.00653564 0.08619610 0.14118159
v 0.00563564 0.08619593 0.14118160
v 0.00569083 0.08619595 0.14066982
v 0.00585388 0.08619600 0.14018159
v 0.01021737 0.08619682 0.14018153
v 0.01005119 0.08619680 0.14018153
v 0.01012451 0.08619677 0.14236335
v 0.00995029 0.08619674 0.14236335
v 0.00602006 0.08619603 0.14018159
v 0.00643253 0.08619612 0.13960278
v 0.00700496 0.08619624 0.13918151
v 0.00768024 0.08619636 0.13895981
v 0.00839098 0.08619650 0.13895980
v 0.00906626 0.08619662 0.13918148
v 0.00963870 0.08619673 0.13960274
v 0.00944786 0.08619662 0.14293316
v 0.00878445 0.08619650 0.14330330
v 0.00803567 0.08619635 0.14343156
v 0.00728689 0.08619621 0.14330332
v 0.00662347 0.08619609 0.14293320
v 0.00612103 0.08619601 0.14236341
v 0.01041981 0.08619685 0.14090639
v 0.00664983 0.08619612 0.14175561
v 0.00594680 0.08619597 0.14236341
v 0.00571474 0.08619594 0.14179264
v 0.01038781 0.08619683 0.14165831
v 0.00697499 0.08619617 0.14224224
v 0.00746163 0.08619626 0.14256738
v 0.00803566 0.08619636 0.14268155
v 0.00860968 0.08619647 0.14256737
v 0.00909631 0.08619657 0.14224221
v 0.00942147 0.08619665 0.14175557
f 30 13 14
f 1 30 14
f 34 30 1
f 1 15 34
f 1 16 15
f 40 16 1
f 40 24 16
f 39 24 40
f 39 25 24
f 38 25 39
f 38 26 25
f 37 26 38
f 37 27 26
f 36 27 37
f 36 28 27
f 35 28 36
f 35 29 28
f 31 29 35
f 31 9 29
f 33 29 9
f 33 9 10
f 10 9 11
f 9 12 11
f 9 17 12
f 8 17 9
f 8 18 17
f 7 18 8
f 7 19 18
f 6 19 7
f 6 20 19
f 5 20 6
f 5 21 20
f 4 21 5
f 4 22 21
f 23 22 4
f 4 3 23
f 23 3 14
f 2 14 3
f 32 29 33
f 1 14 2

