# https://github.com/mikedh/trimesh
v 0.01381941 -0.00104809 0.03799978
v 0.01410055 0.00000197 0.03799979
v 0.01305090 -0.00181689 0.03799978
v 0.01095090 -0.00181729 0.03799981
v 0.01018210 -0.00104878 0.03799983
v 0.01095021 0.00182002 0.03799988
v 0.01018170 0.00105122 0.03799987
v 0.01381901 0.00105191 0.03799982
v 0.01200095 -0.00209843 0.03799979
v 0.00990055 0.00000117 0.03799986
v 0.01200015 0.00210157 0.03799986
v 0.01305021 0.00182042 0.03799985
v 0.01305059 -0.00181649 0.01687856
v 0.01381910 -0.00104769 0.01687856
v 0.01410025 0.00000237 0.01687858
v 0.01199985 0.00210197 0.01687865
v 0.01094990 0.00182042 0.01687866
v 0.01018139 0.00105162 0.01687866
v 0.00990025 0.00000157 0.01687864
v 0.01018179 -0.00104838 0.01687862
v 0.01095059 -0.00181689 0.01687859
v 0.01200065 -0.00209803 0.01687857
v 0.01381870 0.00105231 0.01687860
v 0.01304990 0.00182082 0.01687863
f 16 11 17
f 16 12 11
f 24 12 16
f 24 8 12
f 23 8 24
f 23 2 8
f 15 2 23
f 15 1 2
f 14 1 15
f 14 3 1
f 13 3 14
f 13 9 3
f 22 9 13
f 22 4 9
f 21 4 22
f 21 5 4
f 20 5 21
f 20 10 5
f 19 10 20
f 19 7 10
f 18 7 19
f 18 6 7
f 17 6 18
f 17 11 6

