# https://github.com/mikedh/trimesh
v 0.03202070 0.09377491 0.14115793
v 0.03198496 0.09377953 0.14142956
v 0.03188003 0.09379281 0.14168294
v 0.03149570 0.09383793 0.14206727
v 0.03097069 0.09389058 0.14220795
v 0.03044568 0.09393290 0.14206728
v 0.03022832 0.09394740 0.14190052
v 0.03006135 0.09395735 0.14168297
v 0.02995655 0.09396307 0.14143012
v 0.02992066 0.09396493 0.14115797
v 0.02995637 0.09396309 0.14088646
v 0.03006133 0.09395737 0.14063296
v 0.03022838 0.09394743 0.14041531
v 0.03044566 0.09393293 0.14024863
v 0.03097066 0.09389061 0.14010794
v 0.03149567 0.09383797 0.14024861
v 0.03188001 0.09379283 0.14063293
v 0.03198478 0.09377956 0.14088568
v 0.03110801 0.09387782 0.14166504
v 0.03105539 0.09388281 0.14052412
f 1 2 19
f 1 19 18
f 18 19 7
f 6 7 19
f 6 19 5
f 19 4 5
f 19 3 4
f 18 7 17
f 17 7 8
f 17 8 20
f 20 8 9
f 20 9 10
f 10 11 20
f 20 11 12
f 20 12 13
f 13 14 20
f 20 14 15
f 20 15 17
f 17 15 16
f 2 3 19

