# https://github.com/mikedh/trimesh
v -0.01181038 0.08599522 0.13556296
v -0.01089677 0.08599538 0.13591890
v -0.01002126 0.08599554 0.13644776
v -0.00925155 0.08599567 0.13712138
v -0.00861129 0.08599579 0.13791905
v -0.00812017 0.08599586 0.13881627
v -0.00779326 0.08599591 0.13978547
v -0.00764341 0.08599591 0.14075445
v -0.01179311 0.08699522 0.13560462
v -0.01091233 0.08699538 0.13595028
v -0.00767986 0.08699591 0.14073701
v -0.00782739 0.08699589 0.13979369
v -0.00815234 0.08699585 0.13883030
v -0.00864053 0.08699577 0.13793845
v -0.00927695 0.08699567 0.13714555
v -0.01004206 0.08699553 0.13647597
f 9 1 10
f 10 1 2
f 10 2 16
f 16 2 3
f 16 3 15
f 15 3 4
f 15 4 14
f 14 4 5
f 14 5 13
f 13 5 6
f 13 6 12
f 12 6 7
f 12 7 11
f 11 7 8

