# https://github.com/mikedh/trimesh
v 0.02459404 -0.02000351 0.30489865
v 0.01983675 -0.02000450 0.30965605
v 0.02500823 -0.01991354 0.30448422
v 0.00200833 -0.02000790 0.30965632
v 0.00200826 -0.02000781 0.30489898
v 0.02500805 -0.01900342 0.30389863
v 0.02500815 -0.01950342 0.30403262
v 0.02500822 -0.01986946 0.30439863
v 0.02500065 0.01990666 0.30448499
v 0.02500065 0.01986261 0.30439940
v 0.02500072 0.01949659 0.30403334
v 0.02500081 0.01899659 0.30389935
v 0.00200822 -0.01987384 0.30439898
v 0.00200815 -0.01950780 0.30403295
v 0.00200805 -0.01900780 0.30389896
v 0.00200081 0.01899221 0.30389968
v 0.02458642 0.01999648 0.30489939
v 0.00200064 0.01999218 0.30489972
v 0.00200065 0.01985823 0.30439973
v 0.00200072 0.01949221 0.30403370
v 0.01982913 0.01999549 0.30965680
v 0.00200071 0.01999209 0.30965707
f 2 1 4
f 4 1 5
f 13 5 1
f 1 3 13
f 13 3 8
f 13 8 14
f 14 8 7
f 14 7 15
f 15 7 6
f 15 6 16
f 16 6 12
f 16 12 20
f 20 12 11
f 20 11 19
f 19 11 10
f 19 10 9
f 9 18 19
f 17 18 9
f 17 21 18
f 18 21 22

