# https://github.com/mikedh/trimesh
v 0.01601201 -0.06150317 0.01982141
v 0.01601181 -0.06045318 0.02010277
v 0.01601161 -0.05940317 0.01982145
v 0.01601144 -0.05863450 0.01905282
v 0.01601138 -0.05835313 0.01800282
v 0.01601142 -0.05863446 0.01695281
v 0.01601214 -0.06227181 0.01905275
v 0.01601218 -0.06255314 0.01800274
v 0.01601211 -0.06227177 0.01695274
v 0.01601195 -0.06150310 0.01618410
v 0.01601175 -0.06045310 0.01590278
v 0.01601155 -0.05940310 0.01618414
v 0.01301175 -0.06045367 0.01590283
v 0.01301155 -0.05940367 0.01618419
v 0.01301142 -0.05863503 0.01695285
v 0.01301138 -0.05835371 0.01800286
v 0.01301145 -0.05863507 0.01905286
v 0.01301161 -0.05940374 0.01982150
v 0.01301181 -0.06045375 0.02010282
v 0.01301201 -0.06150374 0.01982146
v 0.01301214 -0.06227238 0.01905279
v 0.01301218 -0.06255371 0.01800278
v 0.01301211 -0.06227234 0.01695278
v 0.01301195 -0.06150367 0.01618415
f 13 11 14
f 13 10 11
f 24 10 13
f 24 9 10
f 23 9 24
f 23 8 9
f 22 8 23
f 22 7 8
f 21 7 22
f 21 1 7
f 20 1 21
f 20 2 1
f 19 2 20
f 19 3 2
f 18 3 19
f 18 4 3
f 17 4 18
f 17 5 4
f 16 5 17
f 16 6 5
f 15 6 16
f 15 12 6
f 14 12 15
f 14 11 12

