# https://github.com/mikedh/trimesh
v 0.02846966 -0.08900057 0.18530463
v 0.02846984 -0.09000055 0.18503666
v 0.02846997 -0.09073260 0.18430459
v 0.02847001 -0.09100050 0.18330459
v 0.02846994 -0.09073257 0.18230459
v 0.02846979 -0.09000049 0.18157256
v 0.02846960 -0.08900049 0.18130463
v 0.02846941 -0.08800048 0.18157260
v 0.02846928 -0.08726846 0.18230467
v 0.02846925 -0.08700053 0.18330467
v 0.02846931 -0.08726850 0.18430467
v 0.02846946 -0.08800055 0.18503670
v 0.04429720 -0.09089240 0.18266457
v 0.04438214 -0.09072849 0.18230258
v 0.04706103 -0.08703310 0.18292603
v 0.04711759 -0.08699697 0.18330267
v 0.04485770 -0.09035297 0.18477491
v 0.04460253 -0.09067892 0.18438725
v 0.04539217 -0.08962888 0.18520203
v 0.04512773 -0.08999237 0.18503930
v 0.04651912 -0.08800027 0.18503824
v 0.04639124 -0.08819100 0.18513472
v 0.04593430 -0.08886003 0.18529966
v 0.04583893 -0.08899732 0.18530437
v 0.04673348 -0.08767624 0.18480618
v 0.04697520 -0.08730074 0.18436395
v 0.04712707 -0.08701143 0.18354441
v 0.04709241 -0.08710840 0.18396255
v 0.04699726 -0.08726545 0.18430527
v 0.04625755 -0.08800228 0.18156937
v 0.04654543 -0.08763071 0.18184386
v 0.04684351 -0.08726615 0.18230231
v 0.04687516 -0.08722946 0.18236855
v 0.04498288 -0.08978154 0.18146454
v 0.04484108 -0.08999385 0.18157029
v 0.04464787 -0.09029096 0.18177901
v 0.04543838 -0.08912195 0.18130827
v 0.04552691 -0.08899698 0.18130438
v 0.04599096 -0.08835751 0.18140942
v 0.04442365 -0.09065591 0.18218656
v 0.04456016 -0.09072837 0.18430637
v 0.04438135 -0.09092203 0.18384857
v 0.04427912 -0.09099749 0.18330564
v 0.04427326 -0.09099606 0.18322834
v 0.04585380 -0.08889803 0.18417533
f 13 14 5
f 5 44 13
f 5 43 44
f 45 44 43
f 43 42 45
f 45 42 41
f 3 41 42
f 18 41 3
f 2 18 3
f 2 17 18
f 2 20 17
f 2 19 20
f 1 19 2
f 1 24 19
f 1 23 24
f 12 23 1
f 12 22 23
f 21 22 12
f 21 12 25
f 25 12 11
f 25 11 26
f 11 29 26
f 11 28 29
f 10 28 11
f 10 27 28
f 16 27 10
f 15 16 10
f 10 33 15
f 10 32 33
f 9 32 10
f 9 31 32
f 30 31 9
f 9 8 30
f 8 39 30
f 8 38 39
f 7 38 8
f 7 37 38
f 34 37 7
f 34 45 37
f 35 45 34
f 35 36 45
f 35 6 36
f 6 40 36
f 6 14 40
f 45 40 14
f 35 7 6
f 45 36 40
f 45 38 37
f 45 39 38
f 30 39 45
f 45 31 30
f 45 32 31
f 33 32 45
f 45 15 33
f 45 16 15
f 27 16 45
f 45 28 27
f 29 28 45
f 45 26 29
f 45 25 26
f 21 25 45
f 21 45 22
f 22 45 23
f 45 24 23
f 45 19 24
f 34 7 35
f 20 19 45
f 20 45 17
f 17 45 18
f 3 42 4
f 45 41 18
f 4 42 43
f 4 43 5
f 45 13 44
f 5 14 6
f 14 13 45

