# https://github.com/mikedh/trimesh
v -0.00737898 0.09399290 0.16630861
v -0.00746547 0.09399296 0.16672596
v -0.00746549 0.09399297 0.16589127
v -0.00737711 0.08419298 0.16630843
v -0.00751778 0.08419294 0.16683343
v -0.00751964 0.09399290 0.16683362
v -0.00768670 0.09399236 0.16705129
v -0.00790210 0.08419286 0.16721776
v -0.00790396 0.09399073 0.16721795
v -0.00815705 0.09398749 0.16732281
v -0.00842709 0.08419276 0.16735844
v -0.00842896 0.09398244 0.16735864
v -0.00895210 0.08419266 0.16721778
v -0.00895396 0.09396803 0.16721797
v -0.00933643 0.08419260 0.16683346
v -0.00933829 0.09395360 0.16683364
v -0.00947711 0.08419258 0.16630846
v -0.00947897 0.09394751 0.16630864
v -0.00944333 0.09394909 0.16657986
v -0.00751779 0.08419296 0.16578344
v -0.00790212 0.08419289 0.16539912
v -0.00842713 0.08419280 0.16525845
v -0.00895212 0.08419269 0.16539913
v -0.00933644 0.08419262 0.16578346
v -0.00944326 0.09394911 0.16603714
v -0.00933830 0.09395362 0.16578364
v -0.00895398 0.09396807 0.16539931
v -0.00842899 0.09398248 0.16525863
v -0.00815718 0.09398753 0.16529442
v -0.00790399 0.09399076 0.16539930
v -0.00768635 0.09399239 0.16556634
v -0.00751966 0.09399293 0.16578361
f 1 4 2
f 3 4 1
f 3 20 4
f 32 20 3
f 31 20 32
f 31 21 20
f 30 21 31
f 29 21 30
f 29 22 21
f 28 22 29
f 27 22 28
f 27 23 22
f 26 23 27
f 26 24 23
f 25 24 26
f 25 17 24
f 18 17 25
f 17 18 15
f 15 18 19
f 15 19 16
f 14 15 16
f 14 13 15
f 12 13 14
f 12 11 13
f 10 11 12
f 10 8 11
f 9 8 10
f 7 8 9
f 7 5 8
f 6 5 7
f 2 5 6
f 2 4 5

