# https://github.com/mikedh/trimesh
v -0.00948276 0.07149748 0.03780150
v -0.00906313 0.07181621 0.03812014
v -0.00654337 0.07149804 0.03780146
v -0.00696313 0.07181661 0.03812011
v -0.00746964 0.07202630 0.03832992
v -0.00801318 0.07209775 0.03840148
v -0.00855668 0.07202609 0.03832993
v -0.00619433 0.07104810 0.03780144
v -0.00591278 0.06999816 0.03780141
v -0.00619393 0.06894810 0.03780140
v -0.00983163 0.07104741 0.03780149
v -0.01011278 0.06999736 0.03780147
v -0.00983123 0.06894741 0.03780145
v -0.00906244 0.06817891 0.03780142
v -0.00801238 0.06789776 0.03780141
v -0.00696243 0.06817931 0.03780139
v -0.00591270 0.06999805 0.04346140
v -0.00619385 0.06894800 0.04346139
v -0.01011270 0.06999725 0.04346147
v -0.00983115 0.06894731 0.04346144
v -0.00906235 0.06817880 0.04346144
v -0.00801230 0.06789766 0.04346141
v -0.00696235 0.06817920 0.04346139
v -0.00619425 0.07104800 0.04346143
v -0.00983155 0.07104731 0.04346148
v -0.00906304 0.07181610 0.04346151
v -0.00801310 0.07209765 0.04346149
v -0.00696304 0.07181650 0.04346146
f 24 28 4
f 28 5 4
f 28 6 5
f 27 6 28
f 27 7 6
f 26 7 27
f 26 2 7
f 26 1 2
f 25 1 26
f 25 11 1
f 25 12 11
f 19 12 25
f 19 13 12
f 20 13 19
f 20 14 13
f 21 14 20
f 21 15 14
f 22 15 21
f 22 16 15
f 23 16 22
f 23 10 16
f 18 10 23
f 18 9 10
f 17 9 18
f 17 8 9
f 24 8 17
f 24 3 8
f 4 3 24

