# https://github.com/mikedh/trimesh
v -0.00505168 0.08619397 0.13728063
v -0.00491361 0.09419101 0.13714118
v 0.02111618 0.09319908 0.13065842
v 0.01193327 0.09319733 0.13065855
v 0.01193336 0.09319721 0.13715832
v 0.01013336 0.09319687 0.13715835
v 0.01013327 0.09319699 0.13065858
v 0.01601919 0.09319799 0.13715826
v 0.02111628 0.09319896 0.13715819
v 0.00095760 0.09319512 0.13715848
v -0.00084240 0.09319478 0.13715851
v 0.00095751 0.09319524 0.13065872
v 0.00651919 0.09319618 0.13715839
v 0.00101919 0.09319513 0.13715848
v 0.01589834 0.08619796 0.13728032
v 0.00664271 0.08619620 0.13728045
v 0.00089834 0.08619510 0.13728054
v -0.00287800 0.09417793 0.13714139
v -0.00084258 0.09414875 0.13714187
v 0.01503576 0.08619780 0.13728033
v 0.01193329 0.09356537 0.13715190
v 0.01487909 0.09340487 0.13715467
v 0.02111627 0.09325632 0.13715719
v 0.00044926 0.08619502 0.13728054
v 0.00095743 0.09410641 0.13714260
v 0.00390838 0.09400184 0.13714439
v 0.01013327 0.09367159 0.13715006
v 0.00803594 0.08619647 0.13728043
v 0.01153558 0.08619713 0.13728037
v 0.00095738 0.09410475 0.13390858
v 0.00095733 0.09410295 0.13067457
v 0.00390858 0.09399415 0.13067262
v 0.01013318 0.09365087 0.13066651
v 0.01013323 0.09366164 0.13390829
v 0.01193325 0.09355342 0.13390823
v 0.01487894 0.09337366 0.13066158
v 0.02111618 0.09321804 0.13065875
v 0.02111622 0.09323788 0.13390796
v 0.01193320 0.09354049 0.13066454
f 18 19 11
f 1 18 11
f 1 11 24
f 24 11 10
f 24 10 17
f 17 10 14
f 10 25 14
f 14 25 26
f 14 26 13
f 13 26 27
f 13 27 16
f 16 27 6
f 16 6 28
f 28 6 5
f 28 5 29
f 29 5 20
f 5 15 20
f 5 21 15
f 15 21 22
f 15 22 8
f 8 22 23
f 8 23 9
f 2 18 1
f 30 31 32
f 30 32 25
f 25 32 26
f 26 32 34
f 26 34 27
f 32 33 34
f 22 21 35
f 35 23 22
f 35 38 23
f 36 38 35
f 35 39 36
f 36 37 38
f 25 10 30
f 30 10 12
f 30 12 31
f 33 7 34
f 34 7 6
f 34 6 27
f 7 33 12
f 12 33 32
f 12 32 31
f 21 5 35
f 35 5 4
f 35 4 39
f 37 3 38
f 38 3 9
f 38 9 23
f 39 4 36
f 36 4 3
f 36 3 37

