# https://github.com/mikedh/trimesh
v 0.00102654 0.08758014 0.28600067
v 0.00102654 0.09187449 0.28600067
v 0.04939048 0.00000301 0.28165939
v 0.05139146 0.00000301 0.28315824
v 0.04938886 0.00126609 0.28165969
v 0.05109173 0.01341375 0.28321207
v 0.04886244 0.01732286 0.28172261
v 0.05020110 0.02398398 0.28335452
v 0.04710539 0.03175692 0.28193682
v 0.04897594 0.03213544 0.28355399
v 0.04869910 0.03359799 0.28360087
v 0.04422942 0.04416708 0.28236428
v 0.04665552 0.04225269 0.28397238
v 0.04078765 0.05375209 0.28302971
v 0.04419959 0.04978427 0.28448656
v 0.04231103 0.05432348 0.28492931
v 0.04152229 0.05597387 0.28512540
v 0.03667793 0.06143839 0.28400695
v 0.03854956 0.06118470 0.28590444
v 0.03264657 0.06662550 0.28501749
v 0.03532339 0.06551781 0.28676319
v 0.03377879 0.06721402 0.28716725
v 0.00102654 0.07850065 0.29190367
v 0.00102654 0.09130096 0.28800088
v 0.00455404 0.07691494 0.28912550
v 0.00422243 0.07693241 0.28913689
v 0.00102654 0.07704104 0.28921333
v 0.01557935 0.07547864 0.28824282
v 0.01802204 0.07488700 0.28792155
v 0.00826853 0.07661071 0.28892410
v 0.02092786 0.07399336 0.28747255
v 0.02574475 0.07188227 0.28656971
v 0.02955201 0.06939500 0.28573650
v 0.03435795 0.06736357 0.28681690
v 0.03410586 0.06762115 0.28687936
v 0.00469078 0.07821689 0.29133922
v 0.00498523 0.07819732 0.29132727
v 0.01527704 0.07688508 0.29053482
v 0.02008918 0.07569788 0.28988242
v 0.02661302 0.07309464 0.28867203
v 0.03200103 0.06952747 0.28741127
v 0.00102191 0.07777960 0.29160231
v 0.00102067 0.07835432 0.29142565
v 0.00468801 0.07764084 0.29151309
v 0.00850047 0.07731772 0.29131079
v 0.01485758 0.07638257 0.29074797
v 0.02535061 0.07309697 0.28910267
v 0.02028067 0.07504193 0.29001632
v 0.01859552 0.07552505 0.29027054
v 0.02678393 0.07237620 0.28880450
v 0.02978482 0.07053772 0.28813156
v 0.00437458 0.07765912 0.29152441
v 0.00120902 0.07777632 0.29159945
v 0.04354201 0.05263103 0.28433171
v 0.03961891 0.06040056 0.28537208
v 0.04648722 0.04431183 0.28365371
v 0.04867150 0.03568628 0.28322116
v 0.04976087 0.02983141 0.28302506
v 0.05115883 0.01798930 0.28278759
v 0.05174848 0.00000301 0.28267923
v 0.04886245 -0.01731685 0.28172261
v 0.04710539 -0.03175089 0.28193679
v 0.04897576 -0.03212938 0.28355405
v 0.05020079 -0.02398023 0.28335455
v 0.05109292 -0.01338187 0.28321186
v 0.04938886 -0.00126008 0.28165969
v 0.04148104 -0.05605051 0.28513572
v 0.04231093 -0.05431742 0.28492922
v 0.04078766 -0.05374608 0.28302968
v 0.04415963 -0.04988441 0.28449520
v 0.04422942 -0.04416106 0.28236425
v 0.04663471 -0.04232020 0.28397632
v 0.04869184 -0.03362850 0.28360206
v 0.03850576 -0.06124547 0.28591606
v 0.03667793 -0.06143237 0.28400692
v 0.03523142 -0.06561894 0.28678724
v 0.03264657 -0.06661949 0.28501746
v 0.03377879 -0.06720800 0.28716722
v 0.00102654 -0.07703502 0.28921330
v 0.00422243 -0.07692639 0.28913686
v 0.00455404 -0.07690892 0.28912547
v 0.02082795 -0.07402206 0.28748915
v 0.02562949 -0.07193825 0.28659356
v 0.02944410 -0.06947250 0.28576106
v 0.01540994 -0.07550947 0.28826311
v 0.01802208 -0.07488120 0.28792140
v 0.00826853 -0.07660470 0.28892407
v 0.00961459 -0.07645518 0.28882805
v 0.03435795 -0.06735755 0.28681687
v 0.03410586 -0.06761513 0.28687933
v 0.03200103 -0.06952146 0.28741124
v 0.02661301 -0.07308862 0.28867200
v 0.02008918 -0.07569186 0.28988239
v 0.01527703 -0.07687906 0.29053479
v 0.00498522 -0.07819129 0.29132724
v 0.00469078 -0.07821087 0.29133919
v 0.00102067 -0.07834832 0.29142562
v 0.00102191 -0.07777358 0.29160228
v 0.02048051 -0.07497392 0.28998458
v 0.01500283 -0.07634807 0.29073158
v 0.00988964 -0.07715396 0.29121262
v 0.00850047 -0.07731170 0.29131076
v 0.00468801 -0.07763482 0.29151306
v 0.02543890 -0.07304905 0.28908485
v 0.02678396 -0.07237018 0.28880462
v 0.02979793 -0.07052264 0.28812858
v 0.00437458 -0.07765312 0.29152438
v 0.00120902 -0.07777030 0.29159942
v 0.03740256 -0.06369785 0.28598696
v 0.03961891 -0.06039453 0.28537205
v 0.04354201 -0.05262500 0.28433168
v 0.04648722 -0.04430581 0.28365368
v 0.04867150 -0.03568027 0.28322113
v 0.04976087 -0.02982539 0.28302503
v 0.05115883 -0.01798329 0.28278759
v 0.05156773 -0.01085356 0.28271568
f 3 4 5
f 66 4 3
f 66 65 4
f 61 65 66
f 61 64 65
f 63 64 61
f 61 62 63
f 62 73 63
f 62 72 73
f 71 72 62
f 71 70 72
f 69 70 71
f 69 68 70
f 67 68 69
f 67 69 74
f 74 69 75
f 74 75 76
f 76 75 77
f 76 77 78
f 78 77 106
f 106 77 84
f 106 84 105
f 105 84 83
f 105 83 104
f 104 83 82
f 104 82 99
f 99 82 86
f 99 86 100
f 100 86 85
f 100 85 101
f 101 85 88
f 101 88 102
f 102 88 87
f 102 87 103
f 103 87 81
f 103 81 107
f 107 81 80
f 107 80 108
f 108 80 79
f 108 79 98
f 114 64 63
f 114 63 113
f 113 63 73
f 113 73 72
f 113 72 112
f 112 72 70
f 112 70 111
f 111 70 68
f 111 68 67
f 111 67 110
f 110 67 74
f 110 74 109
f 109 74 76
f 109 76 89
f 89 76 78
f 78 90 89
f 78 91 90
f 106 91 78
f 106 92 91
f 105 92 106
f 104 92 105
f 104 93 92
f 99 93 104
f 99 100 93
f 93 100 94
f 94 100 101
f 94 101 95
f 101 102 95
f 95 102 103
f 95 103 96
f 96 103 107
f 96 107 97
f 97 107 108
f 97 108 98
f 115 64 114
f 115 65 64
f 116 65 115
f 116 4 65
f 60 4 116
f 4 60 6
f 6 60 59
f 6 59 8
f 8 59 58
f 8 58 10
f 10 58 57
f 10 57 11
f 11 57 13
f 56 13 57
f 56 15 13
f 54 15 56
f 54 16 15
f 17 16 54
f 55 17 54
f 55 19 17
f 21 19 55
f 34 21 55
f 34 22 21
f 35 22 34
f 35 51 22
f 41 51 35
f 40 51 41
f 40 50 51
f 47 50 40
f 47 40 48
f 48 40 39
f 48 39 49
f 49 39 46
f 38 46 39
f 38 45 46
f 37 45 38
f 37 44 45
f 36 44 37
f 52 44 36
f 52 36 53
f 53 36 43
f 53 43 42
f 5 4 6
f 5 6 7
f 7 6 8
f 7 8 9
f 8 10 9
f 9 10 11
f 9 11 12
f 12 11 13
f 12 13 14
f 14 13 15
f 15 16 14
f 14 16 17
f 14 17 18
f 18 17 19
f 18 19 20
f 20 19 21
f 20 21 22
f 20 22 33
f 33 22 51
f 33 51 32
f 32 51 50
f 32 50 47
f 32 47 31
f 31 47 48
f 31 48 29
f 29 48 49
f 29 49 28
f 28 49 46
f 28 46 30
f 30 46 45
f 30 45 25
f 25 45 44
f 25 44 26
f 26 44 52
f 26 52 53
f 53 27 26
f 42 27 53
f 27 42 43
f 27 43 1
f 1 43 23
f 1 23 24
f 24 2 1

