# https://github.com/mikedh/trimesh
v -0.02528524 0.08599255 0.14075470
v -0.02111836 0.08599335 0.14075464
v -0.02111843 0.08599345 0.13556309
v -0.02113608 0.08699344 0.13560475
v -0.02113606 0.08699342 0.13653362
v -0.02195892 0.08699325 0.13692038
v -0.02272176 0.08699310 0.13747416
v -0.02436426 0.08699273 0.14073725
v -0.02524919 0.08699255 0.14073727
v -0.02420294 0.08699278 0.13984245
v -0.02386477 0.08699285 0.13896255
v -0.02336491 0.08699296 0.13816333
v -0.02423926 0.09149276 0.14065878
v -0.02409026 0.09149279 0.13987409
v -0.02376019 0.09149288 0.13901526
v -0.02327232 0.09149298 0.13823520
v -0.02264457 0.09149311 0.13756254
v -0.02190001 0.09149327 0.13702202
v -0.02121547 0.09149341 0.13668917
v -0.02121541 0.09149333 0.14065874
f 13 8 14
f 14 8 10
f 14 10 15
f 15 10 11
f 15 11 16
f 16 11 12
f 16 12 17
f 17 12 7
f 17 7 18
f 18 7 6
f 18 6 19
f 19 6 5
f 18 19 20
f 20 17 18
f 20 16 17
f 15 16 20
f 20 14 15
f 13 14 20
f 4 3 5
f 5 3 2
f 5 2 19
f 19 2 20
f 1 9 8
f 8 2 1
f 8 20 2
f 13 20 8

