# https://github.com/mikedh/trimesh
v -0.04066285 -0.07150867 0.04911540
v -0.01898566 -0.07150454 0.04911509
v -0.03957739 -0.07150839 0.04525420
v -0.03507736 -0.07150754 0.04525413
v -0.03958330 -0.07150838 0.04454443
v -0.02148567 -0.07150500 0.04844525
v -0.02331583 -0.07150532 0.04661515
v -0.02398574 -0.07150540 0.04411517
v -0.03518139 -0.07150732 0.03275982
v -0.02398591 -0.07150517 0.03227040
v -0.03416870 -0.07150712 0.03248734
v -0.03197749 -0.07150670 0.03227206
f 5 3 1
f 1 3 4
f 1 4 2
f 4 6 2
f 4 7 6
f 8 7 4
f 12 8 4
f 12 4 11
f 11 4 9
f 10 8 12

