# https://github.com/mikedh/trimesh
v -0.00737981 0.09399398 0.10930862
v -0.00746631 0.09399403 0.10972596
v -0.00746632 0.09399405 0.10889128
v -0.00752047 0.09399398 0.10983362
v -0.00768753 0.09399344 0.11005128
v -0.00790479 0.09399181 0.11021795
v -0.00815788 0.09398858 0.11032281
v -0.00842979 0.09398352 0.11035863
v -0.00895479 0.09396911 0.11021797
v -0.00933912 0.09395468 0.10983364
v -0.00947980 0.09394859 0.10930865
v -0.00944416 0.09395017 0.10957985
v -0.00944409 0.09395019 0.10903714
v -0.00933913 0.09395470 0.10878365
v -0.00895482 0.09396915 0.10839931
v -0.00842982 0.09398356 0.10825863
v -0.00815801 0.09398861 0.10829442
v -0.00790482 0.09399184 0.10839929
v -0.00768718 0.09399347 0.10856634
v -0.00752049 0.09399401 0.10878362
v -0.00850039 0.09398197 0.10904613
v -0.00843000 0.09398353 0.10983363
f 1 2 3
f 22 3 2
f 22 20 3
f 10 20 22
f 10 21 20
f 21 19 20
f 21 18 19
f 17 18 21
f 21 16 17
f 15 16 21
f 13 15 21
f 14 15 13
f 13 21 11
f 11 21 12
f 12 21 10
f 8 10 22
f 8 22 7
f 7 22 6
f 22 5 6
f 22 4 5
f 9 10 8
f 2 4 22

