# https://github.com/mikedh/trimesh
v 0.00848962 0.07657881 0.28890967
v 0.00849159 0.06649362 0.29196480
v 0.00849208 0.06399360 0.29276752
v 0.00848895 0.07949383 0.28065813
v 0.00848906 0.07949369 0.28807586
v 0.00849009 0.07299396 0.27415800
v 0.00848949 0.07624394 0.27502888
v 0.00848907 0.07862306 0.27740809
v 0.00849181 0.06399395 0.27415782
v 0.01448895 0.07949497 0.28065804
v 0.01448905 0.07949484 0.28731942
v 0.01448978 0.07569575 0.28837097
v 0.01449009 0.07299510 0.27415791
v 0.01449158 0.06649478 0.29105788
v 0.01449181 0.06399510 0.27415773
v 0.01449206 0.06399477 0.29184058
v 0.01448907 0.07862421 0.27740800
v 0.01448949 0.07624509 0.27502880
f 4 10 5
f 10 4 17
f 17 4 8
f 17 8 18
f 18 8 7
f 18 7 13
f 13 7 6
f 9 13 6
f 15 13 9
f 5 10 11
f 4 5 1
f 6 4 1
f 6 1 9
f 9 1 2
f 9 2 3
f 8 4 6
f 6 7 8
f 12 13 14
f 11 13 12
f 10 13 11
f 10 18 13
f 17 18 10
f 14 13 15
f 14 15 16

