# https://github.com/mikedh/trimesh
v 0.00358858 0.06439958 0.05844747
v 0.00358870 0.06439943 0.06613157
v 0.00358380 0.09042416 0.07003839
v 0.00358443 0.08709935 0.07003833
v 0.00358645 0.07559958 0.05853811
v 0.00358645 0.07559958 0.05844768
v 0.00358797 0.06689975 0.04911738
v 0.00358679 0.07309975 0.04911750
v -0.04410150 0.06439035 0.06613226
v -0.03490124 0.08709202 0.07003888
v -0.01455151 0.09072181 0.07003865
v 0.00298380 0.09043023 0.07003839
v -0.03490191 0.09061887 0.07003895
v -0.03240211 0.09077302 0.07003891
v -0.02434144 0.09087535 0.07003880
v -0.03492383 0.08431433 0.06726109
v -0.03969531 0.08431342 0.06726116
v -0.04012629 0.08231346 0.06526115
v -0.04119204 0.07559105 0.05853876
v -0.04117748 0.07559106 0.05844833
v -0.04080841 0.07454456 0.05454220
v -0.04013903 0.07309142 0.04911814
v -0.04192423 0.06689108 0.04911805
v -0.04154361 0.06849116 0.04911807
v -0.01901233 0.06849545 0.04911774
v -0.04068856 0.07149132 0.04911811
v -0.01901290 0.07149544 0.04911780
v -0.04344923 0.06439061 0.05844815
v -0.04346180 0.06439061 0.05858212
v -0.04401856 0.06439038 0.06501488
v -0.02401298 0.07149459 0.04411788
v -0.02401241 0.06849460 0.04411782
v -0.02401315 0.07149481 0.03228908
v -0.02401273 0.06849501 0.02219116
v -0.02151234 0.06849499 0.04844790
v -0.02334249 0.06849468 0.04661781
v -0.02151291 0.07149498 0.04844796
v -0.02334307 0.07149467 0.04661786
f 10 11 4
f 10 4 16
f 16 4 5
f 18 16 5
f 17 16 18
f 18 5 19
f 5 20 19
f 6 20 5
f 20 6 21
f 21 6 8
f 21 8 22
f 27 22 8
f 27 8 25
f 25 8 7
f 25 7 23
f 23 24 25
f 7 28 23
f 1 28 7
f 28 1 29
f 29 1 2
f 29 2 30
f 30 2 9
f 27 25 37
f 37 25 35
f 37 35 38
f 38 35 36
f 38 36 31
f 31 36 32
f 31 32 33
f 33 32 34
f 26 22 27
f 10 15 11
f 10 14 15
f 13 14 10
f 4 11 12
f 4 12 3

