# https://github.com/mikedh/trimesh
v 0.00803409 0.09419642 0.13965671
v 0.00763939 0.09419634 0.13970868
v 0.00727160 0.09419627 0.13986103
v 0.00695576 0.09419620 0.14010338
v 0.00671342 0.09419615 0.14041923
v 0.00656107 0.09419612 0.14078704
v 0.00650911 0.09419610 0.14118174
v 0.00656108 0.09419610 0.14157644
v 0.00671344 0.09419613 0.14194423
v 0.00695579 0.09419616 0.14226006
v 0.00803414 0.09419636 0.14270671
v 0.00763944 0.09419628 0.14265476
v 0.00727163 0.09419622 0.14250241
v 0.00852951 0.09419651 0.13976587
v 0.00828535 0.09419646 0.13970290
v 0.00803409 0.09419642 0.13968171
v 0.00886044 0.09419657 0.13992985
v 0.00914128 0.09419662 0.14016970
v 0.00935500 0.09419665 0.14047089
v 0.00948864 0.09419667 0.14081518
v 0.00953411 0.09419668 0.14118169
v 0.00948865 0.09419666 0.14154820
v 0.00935502 0.09419663 0.14189249
v 0.00914131 0.09419658 0.14219370
v 0.00886048 0.09419652 0.14243355
v 0.00852955 0.09419645 0.14259753
v 0.00803414 0.09419636 0.14268172
v 0.00692695 0.09419616 0.14219373
v 0.00720779 0.09419621 0.14243358
v 0.00753872 0.09419627 0.14259754
v 0.00778288 0.09419631 0.14266053
v 0.00842884 0.09419644 0.14265475
v 0.00879663 0.09419651 0.14250238
v 0.00911247 0.09419657 0.14226003
v 0.00935481 0.09419663 0.14194420
v 0.00950716 0.09419666 0.14157639
v 0.00955912 0.09419668 0.14118169
v 0.00950715 0.09419668 0.14078699
v 0.00935479 0.09419665 0.14041920
v 0.00911244 0.09419662 0.14010336
v 0.00879660 0.09419656 0.13986102
v 0.00842879 0.09419649 0.13970867
v 0.00753868 0.09419632 0.13976589
v 0.00720775 0.09419625 0.13992986
v 0.00692692 0.09419620 0.14016972
v 0.00671321 0.09419615 0.14047092
v 0.00657958 0.09419612 0.14081523
v 0.00653412 0.09419610 0.14118174
v 0.00657959 0.09419610 0.14154825
v 0.00671323 0.09419613 0.14189254
f 9 28 10
f 10 28 29
f 10 29 13
f 13 29 30
f 13 30 12
f 12 30 31
f 12 31 11
f 11 31 27
f 11 27 32
f 32 27 26
f 32 26 33
f 33 26 25
f 33 25 34
f 34 25 24
f 34 24 35
f 35 24 23
f 35 23 36
f 36 23 22
f 36 22 37
f 37 22 21
f 37 21 38
f 38 21 20
f 38 20 39
f 20 19 39
f 39 19 18
f 39 18 40
f 40 18 17
f 40 17 41
f 41 17 14
f 41 14 42
f 42 14 15
f 42 15 1
f 1 15 16
f 1 16 2
f 2 16 43
f 2 43 3
f 3 43 44
f 3 44 4
f 4 44 45
f 4 45 5
f 5 45 46
f 5 46 6
f 6 46 47
f 6 47 7
f 7 47 48
f 7 48 8
f 8 48 49
f 8 49 9
f 9 49 50
f 9 50 28

