# https://github.com/mikedh/trimesh
v 0.01653376 0.09605644 0.14118162
v 0.01653564 0.08619801 0.14118144
v 0.01650413 0.09605891 0.14088497
v 0.01642145 0.08619800 0.14060742
v 0.01644929 0.09606194 0.14068539
v 0.01641957 0.09606346 0.14060760
v 0.01632318 0.09606813 0.14041524
v 0.01609628 0.08619795 0.14012079
v 0.01620551 0.09607359 0.14024517
v 0.01556251 0.09610219 0.13977793
v 0.01582978 0.09609041 0.13991030
v 0.01560964 0.08619786 0.13979563
v 0.01599710 0.09608299 0.14003187
v 0.01609440 0.09607863 0.14012097
v 0.01536413 0.09611091 0.13971849
v 0.01503562 0.08619776 0.13968146
v 0.01506808 0.09612393 0.13968204
v 0.01486087 0.09613306 0.13969164
v 0.01446159 0.08619764 0.13979565
v 0.01456950 0.09614592 0.13975529
v 0.01396708 0.09617240 0.14012702
v 0.01412313 0.09616559 0.13998969
v 0.01397496 0.08619754 0.14012082
v 0.01437688 0.09615442 0.13983312
v 0.01445970 0.09615077 0.13979584
v 0.01377960 0.09618045 0.14035876
v 0.01364981 0.08619747 0.14060745
v 0.01367796 0.09618465 0.14053987
v 0.01353374 0.09618924 0.14118166
v 0.01354197 0.09618943 0.14102471
v 0.01353564 0.08619744 0.14118148
v 0.01357784 0.09618845 0.14082059
v 0.01364791 0.09618585 0.14060764
v 0.01364983 0.08619745 0.14175551
v 0.01397499 0.08619750 0.14224213
v 0.01446163 0.08619759 0.14256729
v 0.01503566 0.08619770 0.14268146
v 0.01560968 0.08619781 0.14256728
v 0.01609631 0.08619791 0.14224210
v 0.01642147 0.08619798 0.14175546
v 0.01356335 0.09618665 0.14147824
v 0.01361814 0.09618320 0.14167772
v 0.01397310 0.09616386 0.14224233
v 0.01386174 0.09616969 0.14211781
v 0.01374420 0.09617603 0.14194787
v 0.01364793 0.09618145 0.14175570
v 0.01423728 0.09615051 0.14245273
v 0.01407008 0.09615889 0.14233115
v 0.01520640 0.09610547 0.14267167
v 0.01499898 0.09611464 0.14268124
v 0.01470296 0.09612817 0.14264472
v 0.01450451 0.09613752 0.14258519
v 0.01610027 0.09606926 0.14223643
v 0.01594426 0.09607513 0.14237370
v 0.01569051 0.09608512 0.14253023
v 0.01560780 0.09608849 0.14256746
v 0.01549775 0.09609304 0.14260808
v 0.01648958 0.09605660 0.14154300
v 0.01641959 0.09605844 0.14175566
v 0.01638937 0.09605934 0.14182377
v 0.01628779 0.09606263 0.14200468
v 0.01652548 0.09605607 0.14133903
v 0.01503841 0.09622092 0.14118208
v 0.01364640 0.09628933 0.14103554
v 0.01363872 0.09628914 0.14118208
v 0.01507050 0.09622382 0.13978222
v 0.01487714 0.09623294 0.13979118
v 0.01460525 0.09624581 0.13985060
v 0.01442550 0.09625431 0.13992323
v 0.01418870 0.09626548 0.14006938
v 0.01404309 0.09627229 0.14019758
v 0.01386814 0.09628034 0.14041390
v 0.01377330 0.09628455 0.14058295
v 0.01367987 0.09628835 0.14084500
v 0.01643052 0.09615596 0.14132905
v 0.01643825 0.09615632 0.14118209
v 0.01624173 0.09616800 0.14046665
v 0.01613192 0.09617347 0.14030789
v 0.01593744 0.09618287 0.14010879
v 0.01578129 0.09619030 0.13999529
v 0.01641059 0.09615878 0.14090516
v 0.01635943 0.09616182 0.14071886
v 0.01553189 0.09620208 0.13987173
v 0.01534676 0.09621079 0.13981624
v 0.01496860 0.09622045 0.14192794
v 0.01630351 0.09615923 0.14178154
v 0.01639703 0.09615647 0.14151946
v 0.01500608 0.09621453 0.14258195
v 0.01519964 0.09620536 0.14257303
v 0.01547151 0.09619293 0.14251366
v 0.01565138 0.09618501 0.14244099
v 0.01588816 0.09617501 0.14229488
v 0.01603374 0.09616914 0.14216675
v 0.01620873 0.09616251 0.14195043
v 0.01413925 0.09625878 0.14225514
v 0.01429527 0.09625040 0.14236863
v 0.01394481 0.09626959 0.14205599
v 0.01366636 0.09628655 0.14145894
v 0.01371749 0.09628310 0.14164516
v 0.01383513 0.09627592 0.14189734
v 0.01454466 0.09623741 0.14249228
v 0.01472984 0.09622806 0.14254785
v 0.01375168 0.09621520 0.14194480
v 0.01549698 0.09613080 0.14260054
v 0.01549175 0.09616295 0.14258000
v 0.01520632 0.09617568 0.14264263
v 0.01548281 0.09618473 0.14254954
v 0.01520363 0.09619740 0.14261070
v 0.01647511 0.09614747 0.14118205
v 0.01650603 0.09612553 0.14118195
v 0.01646717 0.09614710 0.14133291
v 0.01652657 0.09609366 0.14118180
v 0.01649792 0.09612516 0.14133614
v 0.01648265 0.09609381 0.14154106
v 0.01651833 0.09609329 0.14133829
v 0.01643279 0.09614762 0.14152838
v 0.01633682 0.09615042 0.14179745
v 0.01623955 0.09615377 0.14197086
v 0.01605996 0.09616051 0.14219302
v 0.01591054 0.09616647 0.14232464
v 0.01566748 0.09617666 0.14247480
v 0.01646277 0.09612568 0.14153595
v 0.01636468 0.09612849 0.14181100
v 0.01626526 0.09613185 0.14198826
v 0.01608171 0.09613862 0.14221537
v 0.01592899 0.09614461 0.14234996
v 0.01568053 0.09615484 0.14250354
v 0.01638308 0.09609661 0.14182021
v 0.01628216 0.09609994 0.14200011
v 0.01609583 0.09610666 0.14223059
v 0.01594080 0.09611260 0.14236715
v 0.01568860 0.09612275 0.14252296
v 0.01500482 0.09620676 0.14262003
v 0.01472102 0.09622057 0.14258522
v 0.01453071 0.09623012 0.14252828
v 0.01427435 0.09624340 0.14240143
v 0.01411392 0.09625196 0.14228491
v 0.01500304 0.09618507 0.14265224
v 0.01471281 0.09619894 0.14261676
v 0.01451817 0.09620854 0.14255862
v 0.01425593 0.09622188 0.14242899
v 0.01409180 0.09623049 0.14230989
v 0.01520729 0.09614342 0.14266403
v 0.01500099 0.09615274 0.14267373
v 0.01470646 0.09616648 0.14263767
v 0.01450896 0.09617600 0.14257862
v 0.01424290 0.09618922 0.14244704
v 0.01407638 0.09619775 0.14232616
v 0.01391394 0.09626301 0.14208035
v 0.01388718 0.09624159 0.14210075
v 0.01386881 0.09620874 0.14211394
v 0.01377171 0.09624811 0.14193405
v 0.01380109 0.09626949 0.14191735
v 0.01362601 0.09622252 0.14167586
v 0.01364781 0.09625550 0.14166896
v 0.01368004 0.09627683 0.14165814
v 0.01357138 0.09622603 0.14147721
v 0.01359394 0.09625904 0.14147314
v 0.01362741 0.09628037 0.14146671
v 0.01354183 0.09622866 0.14118183
v 0.01356480 0.09626170 0.14118196
v 0.01359894 0.09628301 0.14118205
v 0.01631743 0.09610552 0.14041978
v 0.01457356 0.09618454 0.13976215
v 0.01458180 0.09621716 0.13978273
v 0.01486759 0.09620395 0.13972062
v 0.01459294 0.09623869 0.13981381
v 0.01487236 0.09622556 0.13975298
v 0.01360684 0.09628320 0.14103140
v 0.01357288 0.09626190 0.14102785
v 0.01358576 0.09622785 0.14082220
v 0.01355002 0.09622885 0.14102550
v 0.01364127 0.09628220 0.14083549
v 0.01373740 0.09627830 0.14056610
v 0.01383498 0.09627400 0.14039232
v 0.01401494 0.09626576 0.14017004
v 0.01416469 0.09625880 0.14003836
v 0.01440817 0.09624738 0.13988833
v 0.01360812 0.09626088 0.14082746
v 0.01370649 0.09625696 0.14055189
v 0.01380634 0.09625264 0.14037417
v 0.01399049 0.09624436 0.14014685
v 0.01414371 0.09623735 0.14001222
v 0.01439280 0.09622588 0.13985886
v 0.01368555 0.09622398 0.14054266
v 0.01378684 0.09621969 0.14036235
v 0.01397365 0.09621149 0.14013170
v 0.01412908 0.09620456 0.13999508
v 0.01438179 0.09619319 0.13983944
v 0.01507102 0.09621624 0.13974392
v 0.01535478 0.09620295 0.13977908
v 0.01554489 0.09619407 0.13983621
v 0.01580095 0.09618206 0.13996327
v 0.01596124 0.09617450 0.14007992
v 0.01507074 0.09619459 0.13971142
v 0.01536089 0.09618125 0.13974749
v 0.01555526 0.09617233 0.13980596
v 0.01581703 0.09616026 0.13993594
v 0.01598086 0.09615267 0.14005524
v 0.01486355 0.09617146 0.13969907
v 0.01506971 0.09616217 0.13968970
v 0.01536417 0.09614895 0.13972622
v 0.01556144 0.09614009 0.13978551
v 0.01582713 0.09612814 0.13991737
v 0.01599343 0.09612060 0.14003840
v 0.01616084 0.09616493 0.14028445
v 0.01618487 0.09614306 0.14026438
v 0.01620052 0.09611106 0.14025062
v 0.01630003 0.09613748 0.14043108
v 0.01627352 0.09615937 0.14044750
v 0.01644270 0.09609924 0.14068843
v 0.01642343 0.09613115 0.14069583
v 0.01639427 0.09615307 0.14070646
v 0.01649716 0.09609616 0.14088687
v 0.01647707 0.09612805 0.14089134
v 0.01644676 0.09614998 0.14089775
f 1 2 3
f 62 2 1
f 115 62 1
f 115 1 112
f 112 113 115
f 112 110 113
f 110 111 113
f 113 111 116
f 113 116 122
f 122 116 117
f 116 86 117
f 117 86 94
f 117 94 118
f 118 94 93
f 118 93 119
f 124 118 119
f 124 119 125
f 125 119 120
f 125 120 126
f 126 120 121
f 120 91 121
f 91 90 121
f 121 90 107
f 107 90 89
f 89 90 85
f 85 88 89
f 85 102 88
f 85 101 102
f 96 101 85
f 95 96 85
f 95 85 97
f 85 100 97
f 85 99 100
f 99 153 100
f 153 149 100
f 153 150 149
f 152 150 153
f 156 152 153
f 155 152 156
f 159 155 156
f 159 156 98
f 98 156 99
f 63 98 99
f 65 98 63
f 63 64 65
f 162 65 64
f 162 64 169
f 161 162 169
f 161 158 162
f 162 158 159
f 161 157 158
f 160 157 161
f 160 161 170
f 160 170 172
f 172 170 179
f 172 179 171
f 171 179 180
f 179 174 180
f 180 174 175
f 180 175 181
f 181 175 176
f 175 71 176
f 176 71 70
f 176 70 177
f 177 70 69
f 177 69 178
f 183 177 178
f 183 178 184
f 178 167 184
f 184 167 165
f 184 165 189
f 189 165 164
f 164 165 166
f 165 168 166
f 166 168 190
f 166 190 195
f 195 190 191
f 190 84 191
f 191 84 83
f 191 83 192
f 196 191 192
f 196 192 197
f 202 196 197
f 202 197 203
f 15 202 203
f 17 202 15
f 15 16 17
f 15 12 16
f 10 12 15
f 10 11 12
f 12 11 13
f 11 205 13
f 13 205 14
f 205 208 14
f 205 207 208
f 199 207 205
f 199 206 207
f 210 207 206
f 210 206 77
f 77 206 78
f 194 78 206
f 79 78 194
f 193 79 194
f 198 193 194
f 198 194 199
f 204 198 199
f 203 198 204
f 10 203 204
f 197 193 198
f 193 80 79
f 63 79 80
f 80 83 63
f 192 80 193
f 63 78 79
f 77 78 63
f 63 82 77
f 63 81 82
f 76 81 63
f 76 216 81
f 109 216 76
f 109 215 216
f 110 215 109
f 110 214 215
f 214 211 215
f 214 5 211
f 5 6 211
f 211 6 163
f 6 7 163
f 7 9 163
f 163 9 208
f 163 208 209
f 212 163 209
f 212 209 213
f 216 212 213
f 213 209 210
f 213 210 82
f 7 8 9
f 7 4 8
f 8 14 9
f 6 4 7
f 211 163 212
f 5 4 6
f 3 4 5
f 3 5 214
f 112 3 214
f 215 211 212
f 215 212 216
f 109 76 75
f 109 75 111
f 111 75 87
f 63 87 75
f 63 86 87
f 85 86 63
f 216 213 81
f 63 75 76
f 81 213 82
f 82 210 77
f 209 207 210
f 194 206 199
f 204 199 205
f 209 208 207
f 14 208 9
f 8 13 14
f 11 204 205
f 12 13 8
f 10 204 11
f 17 16 18
f 18 16 19
f 18 19 20
f 19 25 20
f 20 25 189
f 189 25 24
f 189 24 22
f 189 22 188
f 188 22 21
f 188 21 187
f 187 183 188
f 187 182 183
f 186 182 187
f 186 181 182
f 185 181 186
f 186 28 185
f 186 26 28
f 26 27 28
f 26 23 27
f 21 23 26
f 27 33 28
f 27 32 33
f 171 33 32
f 185 33 171
f 171 32 30
f 31 30 32
f 29 30 31
f 172 30 29
f 29 31 41
f 41 31 34
f 41 34 42
f 34 46 42
f 34 45 46
f 46 45 103
f 154 46 103
f 154 103 155
f 158 154 155
f 45 44 103
f 103 44 151
f 103 151 152
f 43 151 44
f 34 43 44
f 35 43 34
f 35 48 43
f 48 148 43
f 47 148 48
f 47 147 148
f 52 147 47
f 36 52 47
f 36 51 52
f 37 51 36
f 37 50 51
f 49 50 37
f 37 57 49
f 57 143 49
f 49 143 144
f 143 138 144
f 144 138 139
f 144 139 145
f 50 144 145
f 145 139 140
f 139 135 140
f 140 135 136
f 135 96 136
f 140 136 141
f 146 140 141
f 146 141 147
f 147 141 142
f 141 137 142
f 137 149 142
f 137 97 149
f 141 136 137
f 136 95 137
f 139 134 135
f 134 101 135
f 145 140 146
f 51 145 146
f 138 134 139
f 138 133 134
f 106 133 138
f 106 108 133
f 108 88 133
f 105 108 106
f 104 105 106
f 132 105 104
f 132 104 57
f 57 56 132
f 132 56 55
f 132 55 54
f 132 54 131
f 131 54 53
f 38 53 54
f 39 53 38
f 39 61 53
f 39 60 61
f 129 61 60
f 130 61 129
f 129 125 130
f 129 60 128
f 128 124 129
f 128 123 124
f 114 123 128
f 128 59 114
f 114 59 58
f 58 59 40
f 58 40 62
f 40 59 60
f 114 58 62
f 114 122 123
f 115 122 114
f 128 60 59
f 40 60 39
f 130 53 61
f 131 53 130
f 130 126 131
f 131 126 127
f 131 127 132
f 54 55 38
f 38 55 56
f 38 56 37
f 127 105 132
f 127 107 105
f 104 106 143
f 105 107 108
f 133 102 134
f 143 106 138
f 57 104 143
f 37 56 57
f 49 144 50
f 50 145 51
f 51 146 52
f 36 47 35
f 52 146 147
f 147 142 148
f 142 150 148
f 148 150 151
f 35 47 48
f 148 151 43
f 44 45 34
f 42 46 154
f 157 42 154
f 41 42 157
f 29 41 160
f 31 32 27
f 185 28 33
f 187 26 186
f 187 21 26
f 21 22 23
f 23 22 24
f 23 24 19
f 19 24 25
f 20 200 18
f 18 200 201
f 200 195 201
f 201 195 196
f 20 164 200
f 18 201 17
f 17 201 202
f 15 203 10
f 203 197 198
f 201 196 202
f 197 192 193
f 192 83 80
f 63 83 84
f 63 84 66
f 66 67 63
f 168 67 66
f 167 67 168
f 167 68 67
f 63 67 68
f 63 68 69
f 190 66 84
f 195 191 196
f 200 166 195
f 168 66 190
f 164 166 200
f 189 164 20
f 188 184 189
f 165 167 168
f 178 68 167
f 188 183 184
f 182 177 183
f 69 68 178
f 69 70 63
f 182 176 177
f 63 70 71
f 63 71 72
f 72 73 63
f 63 73 74
f 173 74 73
f 173 73 174
f 169 74 173
f 170 169 173
f 174 73 72
f 175 72 71
f 181 176 182
f 185 180 181
f 174 72 175
f 179 173 174
f 171 180 185
f 171 30 172
f 170 173 179
f 172 29 160
f 160 41 157
f 157 154 158
f 161 169 170
f 169 64 74
f 162 159 65
f 63 74 64
f 65 159 98
f 158 155 159
f 155 103 152
f 152 151 150
f 142 149 150
f 156 153 99
f 63 99 85
f 100 149 97
f 95 97 137
f 136 96 95
f 135 101 96
f 134 102 101
f 133 88 102
f 108 89 88
f 107 89 108
f 121 107 127
f 85 90 91
f 85 91 92
f 92 93 85
f 120 92 91
f 126 121 127
f 130 125 126
f 119 92 120
f 129 124 125
f 123 118 124
f 119 93 92
f 85 93 94
f 123 117 118
f 85 94 86
f 116 87 86
f 122 117 123
f 111 87 116
f 110 109 111
f 112 214 110
f 115 113 122
f 114 62 115
f 62 40 2
f 1 3 112
f 3 2 4

