# https://github.com/mikedh/trimesh
v -0.00399449 -0.02800099 0.01217831
v -0.00399453 -0.02800094 0.00917831
v 0.00400551 -0.02799947 0.01217819
v 0.00400547 -0.02799941 0.00917820
v 0.00399484 0.02800053 0.01217926
v 0.00399480 0.02800059 0.00917926
v -0.00400516 0.02799901 0.01217937
v -0.00400520 0.02799906 0.00917937
v -0.00900310 0.01699811 0.00937924
v -0.00932121 0.01699801 0.01138785
v -0.00900306 0.01699806 0.01217924
v -0.01024443 0.01699780 0.01319986
v -0.01168242 0.01699750 0.01463789
v 0.01167637 0.01700195 0.01463755
v 0.01023834 0.01700170 0.01319956
v 0.00899694 0.01700148 0.01217897
v 0.00931506 0.01700156 0.01138758
v 0.00899690 0.01700154 0.00937897
v -0.01550301 0.01699675 0.01587933
v -0.01349440 0.01699714 0.01556117
v 0.01348838 0.01700228 0.01556078
v 0.01549699 0.01700265 0.01587888
v -0.00300988 -0.01700065 0.00398981
v -0.00136501 -0.01700035 0.00480883
v -0.00699663 -0.01700151 0.00917856
v 0.00369823 -0.01699923 -0.00336885
v 0.00223186 -0.01699949 -0.00447617
v 0.00291105 -0.01699933 -0.00636779
v 0.00099934 -0.01699968 -0.00692909
v 0.00046451 -0.01699982 -0.00497900
v -0.00099307 -0.01700006 -0.00692906
v -0.00136515 -0.01700017 -0.00480943
v -0.00290476 -0.01700043 -0.00636770
v -0.00300999 -0.01700050 -0.00399036
v -0.00458086 -0.01700077 -0.00529050
v 0.00700337 -0.01699884 0.00917836
v 0.00046465 -0.01700001 0.00497834
v 0.00223200 -0.01699966 0.00447546
v 0.00458719 -0.01699903 -0.00529064
v 0.00589196 -0.01699881 -0.00378489
v 0.00466557 -0.01699908 -0.00180660
v 0.00671966 -0.01699868 -0.00197255
v 0.00500324 -0.01699905 -0.00000039
v 0.00700324 -0.01699867 -0.00000042
v 0.00466563 -0.01699915 0.00180582
v 0.00369833 -0.01699936 0.00336810
v -0.00699676 -0.01700133 -0.00000022
v -0.00491161 -0.01700095 0.00091850
v -0.00424781 -0.01700086 0.00263190
v -0.00588559 -0.01700105 -0.00378472
v -0.00424789 -0.01700076 -0.00263242
v -0.00671324 -0.01700124 -0.00197235
v -0.00491164 -0.01700092 -0.00091900
v -0.00499676 -0.01700095 -0.00000025
v -0.01549653 -0.01700325 0.01587869
v -0.01549802 -0.00920325 0.01587884
v -0.01550152 0.00919675 0.01587918
v -0.01550151 0.00913567 0.01592427
v -0.01550123 0.00774182 0.01663444
v -0.01550093 0.00619673 0.01687913
v -0.01549857 -0.00620327 0.01687889
v -0.01549828 -0.00774835 0.01663415
v -0.01549803 -0.00914218 0.01592392
v 0.01550347 -0.01699735 0.01587824
v 0.01549906 0.00620263 0.01687868
v 0.01549877 0.00774772 0.01663399
v 0.01550198 -0.00919735 0.01587838
v 0.01550197 -0.00913627 0.01592347
v 0.01550172 -0.00774245 0.01663369
v 0.01550143 -0.00619737 0.01687844
v 0.01549848 0.00920265 0.01587873
v 0.01549849 0.00914158 0.01592382
v -0.00931473 -0.01700199 0.01138721
v -0.00899662 -0.01700189 0.00937859
v -0.00899658 -0.01700195 0.01217859
v 0.00900342 -0.01699852 0.01217833
v 0.00900337 -0.01699846 0.00937833
v 0.00932154 -0.01699844 0.01138694
v -0.01167594 -0.01700250 0.01463724
v -0.01348792 -0.01700287 0.01556053
v -0.01023796 -0.01700220 0.01319922
v 0.01024482 -0.01699830 0.01319892
v 0.01168285 -0.01699805 0.01463690
v 0.01349485 -0.01699772 0.01556013
v 0.00899714 0.01500171 0.00000015
v 0.00899787 0.01120171 0.00000008
v 0.00863327 0.01120169 -0.00253551
v 0.00863254 0.01500169 -0.00253544
v 0.00756908 0.01120153 -0.00486567
v 0.00756835 0.01500153 -0.00486559
v 0.00589151 0.01120125 -0.00680162
v 0.00589079 0.01500125 -0.00680155
v 0.00373648 0.01120087 -0.00818653
v 0.00373576 0.01500087 -0.00818646
v 0.00127857 0.01120041 -0.00890820
v 0.00127785 0.01500041 -0.00890813
v -0.00128310 0.01119992 -0.00890816
v -0.00128382 0.01499992 -0.00890809
v -0.00374099 0.01119944 -0.00818642
v -0.00374171 0.01499944 -0.00818635
v -0.00589598 0.01119901 -0.00680145
v -0.00589670 0.01499901 -0.00680138
v -0.00757349 0.01119865 -0.00486544
v -0.00757421 0.01499865 -0.00486537
v -0.00863761 0.01119840 -0.00253526
v -0.00863833 0.01499840 -0.00253518
v -0.00900213 0.01119829 0.00000034
v -0.00900286 0.01499829 0.00000042
v -0.00491701 0.01119908 -0.00091846
v -0.00425326 0.01119924 -0.00263189
v -0.00425436 0.01699924 -0.00263178
v -0.00301647 0.01699950 -0.00398972
v -0.00301536 0.01119950 -0.00398983
v -0.00137162 0.01699983 -0.00480879
v -0.00137052 0.01119983 -0.00480890
v -0.00000221 0.01120009 -0.00499979
v 0.00045803 0.01700018 -0.00497836
v 0.00045914 0.01120018 -0.00497846
v 0.00222539 0.01700051 -0.00447553
v 0.00222649 0.01120051 -0.00447564
v 0.00369176 0.01700077 -0.00336821
v 0.00369286 0.01120077 -0.00336832
v 0.00465910 0.01700092 -0.00180595
v 0.00466020 0.01120092 -0.00180606
v 0.00499676 0.01700095 0.00000025
v 0.00499787 0.01120095 0.00000014
v 0.00465915 0.01700085 0.00180646
v 0.00466025 0.01120085 0.00180635
v 0.00369186 0.01700064 0.00336875
v 0.00369296 0.01120064 0.00336864
v 0.00222552 0.01700034 0.00447611
v 0.00222662 0.01120034 0.00447600
v 0.00045818 0.01699999 0.00497899
v 0.00045928 0.01119999 0.00497888
v -0.00137148 0.01699965 0.00480947
v -0.00137038 0.01119965 0.00480936
v -0.00301635 0.01699935 0.00399045
v -0.00301525 0.01119935 0.00399034
v -0.00425429 0.01699914 0.00263254
v -0.00425318 0.01119914 0.00263243
v -0.00491809 0.01699905 0.00091914
v -0.00491699 0.01119905 0.00091903
v -0.00500324 0.01699905 0.00000040
v -0.00491812 0.01699908 -0.00091835
v -0.00899787 -0.01120171 -0.00000008
v -0.00899714 -0.01500171 -0.00000015
v -0.00899773 -0.01120189 0.00937870
v -0.00899701 -0.01500189 0.00917863
v -0.00899548 -0.02300189 0.00917848
v -0.00899544 -0.02300194 0.01217848
v 0.00899800 0.01120154 0.00937886
v 0.00899728 0.01500154 0.00917894
v 0.00899575 0.02300154 0.00917909
v 0.00899580 0.02300148 0.01217909
v 0.00900213 -0.01119829 -0.00000034
v 0.00900286 -0.01499829 -0.00000042
v 0.00863826 -0.01499831 -0.00253600
v 0.00863753 -0.01119831 -0.00253593
v 0.00757407 -0.01499846 -0.00486616
v 0.00757334 -0.01119846 -0.00486609
v 0.00589650 -0.01499875 -0.00680212
v 0.00589578 -0.01119875 -0.00680204
v 0.00374147 -0.01499913 -0.00818703
v 0.00374075 -0.01119913 -0.00818696
v 0.00128356 -0.01499959 -0.00890870
v 0.00128284 -0.01119959 -0.00890862
v -0.00127811 -0.01500008 -0.00890866
v -0.00127883 -0.01120008 -0.00890859
v -0.00373600 -0.01500056 -0.00818692
v -0.00373672 -0.01120056 -0.00818685
v -0.00589099 -0.01500099 -0.00680194
v -0.00589171 -0.01120099 -0.00680187
v -0.00756850 -0.01500135 -0.00486594
v -0.00756922 -0.01120135 -0.00486587
v -0.00863262 -0.01500160 -0.00253575
v -0.00863334 -0.01120160 -0.00253568
v -0.00900272 0.01499811 0.00917920
v -0.00900420 0.02299806 0.01217935
v -0.00900200 0.01119811 0.00937913
v -0.00900425 0.02299811 0.00917935
v 0.00900456 -0.02299852 0.01217822
v 0.00900299 -0.01499846 0.00917837
v 0.00900451 -0.02299846 0.00917822
v 0.00900227 -0.01119846 0.00937844
v 0.00699690 0.01700116 0.00917900
v 0.00699676 0.01700133 0.00000022
v 0.00671318 0.01700132 -0.00197190
v 0.00588548 0.01700119 -0.00378425
v 0.00458071 0.01700097 -0.00528999
v 0.00290457 0.01700068 -0.00636714
v 0.00099286 0.01700032 -0.00692844
v -0.00700310 0.01699849 0.00917921
v -0.00700324 0.01699867 0.00000042
v -0.00099954 0.01699994 -0.00692841
v -0.00291124 0.01699957 -0.00636706
v -0.00458734 0.01699923 -0.00528986
v -0.00589207 0.01699895 -0.00378408
v -0.00671972 0.01699876 -0.00197171
v -0.00301098 -0.01120065 0.00398992
v -0.00424891 -0.01120086 0.00263201
v -0.00491272 -0.01120095 0.00091861
v -0.00491275 -0.01120092 -0.00091889
v -0.00424899 -0.01120076 -0.00263231
v -0.00301110 -0.01120050 -0.00399025
v -0.00136625 -0.01120017 -0.00480932
v 0.00046340 -0.01119982 -0.00497889
v 0.00223076 -0.01119949 -0.00447606
v 0.00369713 -0.01119923 -0.00336874
v 0.00466447 -0.01119908 -0.00180649
v 0.00500213 -0.01119905 -0.00000028
v 0.00466452 -0.01119915 0.00180593
v 0.00369723 -0.01119936 0.00336821
v 0.00223089 -0.01119966 0.00447557
v 0.00046355 -0.01120001 0.00497845
v 0.00000221 -0.01120009 0.00499979
v -0.00136611 -0.01120035 0.00480894
v -0.00949769 -0.01120203 0.01187871
v -0.00931583 -0.01120199 0.01138732
v 0.00932043 -0.01119844 0.01138705
v 0.00950231 -0.01119841 0.01187843
v 0.00931617 0.01120156 0.01138747
v 0.00949804 0.01120158 0.01187886
v -0.00950196 0.01119796 0.01187913
v -0.00932010 0.01119801 0.01138774
v 0.01305059 -0.00181649 0.01687856
v 0.01381910 -0.00104769 0.01687856
v 0.01410025 0.00000237 0.01687858
v -0.01304941 -0.00182146 0.01687894
v -0.01199935 -0.00210261 0.01687892
v 0.01199985 0.00210197 0.01687865
v 0.01094990 0.00182042 0.01687866
v -0.01018090 -0.00105226 0.01687891
v 0.01018139 0.00105162 0.01687866
v -0.01094941 -0.00182106 0.01687891
v 0.00990025 0.00000157 0.01687864
v 0.01018179 -0.00104838 0.01687862
v 0.01095059 -0.00181689 0.01687859
v 0.01200065 -0.00209803 0.01687857
v 0.01381870 0.00105231 0.01687860
v 0.01304990 0.00182082 0.01687863
v -0.01305010 0.00181585 0.01687901
v -0.01381861 0.00104705 0.01687901
v -0.01409975 -0.00000301 0.01687899
v -0.01381821 -0.00105295 0.01687897
v -0.00989975 -0.00000221 0.01687893
v -0.01018130 0.00104774 0.01687895
v -0.01095010 0.00181625 0.01687898
v -0.01200015 0.00209739 0.01687900
v -0.00875047 -0.02454692 0.00917845
v -0.00804001 -0.02594063 0.00917841
v -0.00553966 -0.02775651 0.00917834
v -0.00693364 -0.02704658 0.00917837
v 0.00555051 -0.02775440 0.00917818
v 0.00876009 -0.02454359 0.00917819
v 0.00805016 -0.02593757 0.00917818
v 0.00694421 -0.02704393 0.00917817
v 0.00694426 -0.02704399 0.01217817
v 0.00805020 -0.02593762 0.01217818
v 0.00555055 -0.02775446 0.01217818
v 0.00876014 -0.02454365 0.01217819
v -0.00553962 -0.02775657 0.01217834
v -0.00875043 -0.02454698 0.01217845
v -0.00803997 -0.02594069 0.01217841
v -0.00693360 -0.02704664 0.01217837
v -0.00555024 0.02775405 0.00917939
v -0.00875982 0.02454324 0.00917938
v -0.00804989 0.02593722 0.00917939
v -0.00694394 0.02704359 0.00917940
v 0.00693391 0.02704623 0.00917920
v 0.00804028 0.02594028 0.00917916
v 0.00875074 0.02454658 0.00917912
v 0.00553993 0.02775616 0.00917923
v -0.00555019 0.02775400 0.01217939
v 0.00875078 0.02454652 0.01217912
v 0.00804032 0.02594023 0.01217916
v -0.00694390 0.02704353 0.01217940
v -0.00804985 0.02593716 0.01217939
v -0.00875978 0.02454319 0.01217938
v 0.00553998 0.02775611 0.01217923
v 0.00693395 0.02704618 0.01217919
v -0.01101344 0.01068687 0.01408068
v -0.01168283 0.01036683 0.01463897
v -0.01446828 0.00930409 0.01579652
v -0.01349299 0.00958001 0.01556103
v -0.01268975 0.00989978 0.01523946
v -0.01194251 0.01024253 0.01481808
v -0.01024474 0.01101970 0.01320173
v -0.01041394 0.01095304 0.01342423
v -0.00983709 0.01115041 0.01256654
v -0.01023910 -0.01102465 0.01319933
v -0.00983254 -0.01115471 0.01256558
v -0.01100929 -0.01069164 0.01408019
v -0.01167721 -0.01037264 0.01463737
v -0.01268680 -0.00990483 0.01523948
v -0.01348934 -0.00958574 0.01556067
v -0.01446782 -0.00930958 0.01579666
v 0.01023948 0.01102415 0.01319945
v 0.00983291 0.01115423 0.01256571
v 0.01100970 0.01069111 0.01408028
v 0.01167763 0.01037209 0.01463742
v 0.01268725 0.00990425 0.01523948
v 0.01348979 0.00958515 0.01556064
v 0.01446828 0.00930898 0.01579659
v 0.01101385 -0.01068741 0.01407995
v 0.01168325 -0.01036739 0.01463824
v 0.01446875 -0.00930469 0.01579575
v 0.01349344 -0.00958060 0.01556027
v 0.01269019 -0.00990035 0.01523871
v 0.01194294 -0.01024309 0.01481734
v 0.01024513 -0.01102020 0.01320102
v 0.01041433 -0.01095355 0.01342351
v 0.00983746 -0.01115089 0.01256583
f 1 2 3
f 261 2 1
f 261 251 2
f 264 251 261
f 264 252 251
f 263 252 264
f 263 250 252
f 262 250 263
f 262 249 250
f 150 249 262
f 150 149 249
f 75 149 150
f 74 149 75
f 74 148 149
f 147 148 74
f 147 146 148
f 145 146 147
f 176 146 145
f 176 175 146
f 47 146 175
f 47 175 52
f 52 53 47
f 52 51 53
f 50 51 52
f 50 34 51
f 35 34 50
f 50 171 35
f 35 171 169
f 35 169 33
f 33 169 167
f 33 167 31
f 31 167 165
f 166 165 167
f 166 167 168
f 164 165 166
f 164 163 165
f 29 165 163
f 29 163 28
f 28 27 29
f 29 27 30
f 29 30 31
f 31 30 32
f 26 27 28
f 28 39 26
f 26 39 40
f 39 159 40
f 39 161 159
f 160 159 161
f 160 161 162
f 162 161 163
f 158 159 160
f 158 157 159
f 155 157 158
f 155 156 157
f 182 156 155
f 182 36 156
f 156 36 44
f 45 44 36
f 45 36 46
f 46 36 38
f 36 37 38
f 36 24 37
f 25 24 36
f 23 24 25
f 25 49 23
f 25 48 49
f 47 48 25
f 148 47 25
f 47 54 48
f 43 44 45
f 43 42 44
f 41 42 43
f 41 40 42
f 40 157 42
f 42 156 44
f 184 182 155
f 77 182 184
f 78 77 184
f 184 219 78
f 78 219 220
f 78 220 82
f 82 220 312
f 82 312 310
f 82 310 83
f 83 310 311
f 83 311 304
f 304 305 83
f 292 305 304
f 292 309 305
f 293 309 292
f 292 79 293
f 293 79 294
f 294 79 80
f 294 80 295
f 295 307 294
f 295 306 307
f 296 306 295
f 296 68 306
f 63 68 296
f 63 69 68
f 62 69 63
f 62 70 69
f 61 70 62
f 61 237 70
f 70 237 238
f 70 238 225
f 225 226 70
f 70 226 227
f 70 227 65
f 227 239 65
f 65 239 240
f 65 240 230
f 230 246 65
f 65 246 247
f 65 247 60
f 60 247 248
f 60 248 241
f 241 242 60
f 60 242 243
f 60 243 61
f 61 243 244
f 61 244 228
f 61 228 229
f 229 236 61
f 229 235 236
f 234 235 229
f 234 233 235
f 232 233 234
f 232 231 233
f 230 231 232
f 232 245 230
f 65 60 66
f 66 60 59
f 66 59 72
f 72 59 58
f 72 58 303
f 303 58 283
f 303 283 302
f 302 21 303
f 301 21 302
f 301 14 21
f 300 14 301
f 299 14 300
f 299 15 14
f 297 15 299
f 281 297 299
f 299 282 281
f 299 286 282
f 20 282 286
f 20 286 285
f 300 285 286
f 284 20 285
f 301 284 285
f 283 20 284
f 283 19 20
f 57 19 283
f 13 282 20
f 281 282 13
f 13 288 281
f 13 287 288
f 12 287 13
f 12 289 287
f 12 223 289
f 10 223 12
f 10 224 223
f 179 224 10
f 10 9 179
f 177 179 9
f 177 9 180
f 180 9 178
f 278 180 178
f 278 266 180
f 277 266 278
f 277 267 266
f 276 267 277
f 276 268 267
f 273 268 276
f 273 265 268
f 7 265 273
f 7 8 265
f 7 6 8
f 5 6 7
f 279 6 5
f 279 272 6
f 280 272 279
f 280 269 272
f 275 269 280
f 275 270 269
f 274 270 275
f 274 271 270
f 154 271 274
f 154 153 271
f 16 153 154
f 18 153 16
f 18 152 153
f 151 152 18
f 18 221 151
f 17 221 18
f 17 222 221
f 17 298 222
f 15 298 17
f 151 85 152
f 85 186 152
f 152 186 185
f 125 185 186
f 125 186 123
f 186 187 123
f 186 88 187
f 187 88 90
f 88 89 90
f 88 87 89
f 85 87 88
f 85 86 87
f 90 89 91
f 90 91 92
f 188 90 92
f 188 92 189
f 189 92 94
f 189 94 190
f 119 189 190
f 119 190 117
f 117 190 191
f 190 96 191
f 191 96 98
f 96 97 98
f 96 95 97
f 94 95 96
f 94 93 95
f 98 97 99
f 98 99 100
f 194 98 100
f 194 100 195
f 195 100 102
f 195 102 196
f 112 195 196
f 112 196 111
f 111 196 197
f 111 197 144
f 144 197 198
f 197 106 198
f 198 106 108
f 198 108 193
f 193 108 192
f 192 108 177
f 177 108 107
f 192 139 193
f 192 137 139
f 135 137 192
f 135 192 133
f 133 192 185
f 133 185 131
f 131 185 129
f 185 127 129
f 141 193 139
f 143 193 141
f 143 198 193
f 106 107 108
f 106 105 107
f 104 105 106
f 104 103 105
f 102 103 104
f 102 101 103
f 197 104 106
f 144 198 143
f 196 104 197
f 114 195 112
f 196 102 104
f 100 101 102
f 114 194 195
f 191 194 114
f 100 99 101
f 191 98 194
f 117 191 114
f 121 189 119
f 190 94 96
f 92 93 94
f 121 188 189
f 123 188 121
f 92 91 93
f 187 90 188
f 123 187 188
f 127 185 125
f 186 85 88
f 86 85 151
f 9 11 178
f 107 179 177
f 288 287 297
f 297 287 289
f 297 289 298
f 298 289 222
f 289 223 222
f 136 222 223
f 136 223 138
f 138 223 224
f 138 224 140
f 140 224 179
f 140 179 142
f 142 179 107
f 142 107 109
f 109 107 105
f 109 105 110
f 110 105 103
f 110 103 113
f 113 103 101
f 113 101 115
f 115 101 99
f 115 99 116
f 116 99 97
f 116 97 118
f 118 97 95
f 118 95 120
f 120 95 93
f 120 93 122
f 122 93 91
f 122 91 89
f 89 124 122
f 87 124 89
f 87 126 124
f 86 126 87
f 86 128 126
f 151 128 86
f 151 130 128
f 132 130 151
f 151 221 132
f 132 221 222
f 132 222 134
f 134 222 136
f 288 297 281
f 15 297 298
f 300 286 299
f 301 285 300
f 302 284 301
f 303 21 22
f 303 22 71
f 302 283 284
f 58 57 283
f 303 71 72
f 230 245 246
f 61 236 237
f 296 56 63
f 296 55 56
f 296 80 55
f 68 67 306
f 67 64 306
f 306 64 84
f 306 84 307
f 307 84 308
f 84 309 308
f 294 307 308
f 295 80 296
f 294 308 293
f 292 81 79
f 290 81 292
f 81 290 291
f 81 291 73
f 73 291 217
f 73 217 218
f 73 218 74
f 293 308 309
f 84 305 309
f 304 290 292
f 83 305 84
f 311 290 304
f 311 310 290
f 290 310 312
f 290 312 291
f 291 312 217
f 312 220 217
f 220 214 217
f 217 214 215
f 217 215 216
f 216 199 217
f 199 218 217
f 199 147 218
f 200 147 199
f 200 145 147
f 201 145 200
f 201 176 145
f 202 176 201
f 202 174 176
f 203 174 202
f 203 172 174
f 204 172 203
f 204 170 172
f 205 170 204
f 205 168 170
f 166 168 205
f 206 166 205
f 206 164 166
f 207 164 206
f 207 162 164
f 208 162 207
f 208 160 162
f 209 160 208
f 209 158 160
f 158 209 155
f 155 209 210
f 155 210 184
f 210 211 184
f 184 211 212
f 184 212 219
f 219 212 213
f 219 213 220
f 220 213 214
f 77 183 182
f 181 183 77
f 77 76 181
f 260 183 181
f 260 254 183
f 258 254 260
f 258 255 254
f 257 255 258
f 257 256 255
f 259 256 257
f 259 253 256
f 3 253 259
f 3 4 253
f 42 157 156
f 40 159 157
f 26 40 41
f 28 161 39
f 28 163 161
f 162 163 164
f 31 165 29
f 31 32 33
f 33 32 34
f 168 167 169
f 168 169 170
f 170 169 171
f 170 171 172
f 172 171 173
f 172 173 174
f 174 173 175
f 50 173 171
f 33 34 35
f 52 173 50
f 47 53 54
f 52 175 173
f 174 175 176
f 146 47 148
f 74 218 147
f 3 2 4

