# https://github.com/mikedh/trimesh
v 0.00641308 -0.03457156 0.01146211
v 0.00635683 -0.03499901 0.01145925
v 0.00657805 -0.03582397 0.01146986
v 0.00641316 -0.03542614 0.01146208
v 0.00843464 -0.03659227 0.01149890
v 0.00883211 -0.03642748 0.01149110
v 0.00718210 -0.03642779 0.01149113
v 0.00757996 -0.03659252 0.01149891
v 0.00800715 -0.03664869 0.01150175
v 0.00943562 -0.03417342 0.01146984
v 0.00883156 -0.03356960 0.01149116
v 0.00960010 -0.03456972 0.01146208
v 0.00943593 -0.03582342 0.01146981
v 0.00960080 -0.03542505 0.01146203
v 0.00965683 -0.03499838 0.01145919
v 0.00843323 -0.03340474 0.01149896
v 0.00800652 -0.03334869 0.01150182
v 0.00757991 -0.03340488 0.01149898
v 0.00718156 -0.03356991 0.01149119
v 0.00657773 -0.03417396 0.01146989
v 0.00657782 -0.03417408 0.01747235
v 0.00718165 -0.03357003 0.01749856
v 0.00641317 -0.03457166 0.01746277
v 0.00943602 -0.03582354 0.01747228
v 0.00883219 -0.03642759 0.01749848
v 0.00843474 -0.03659238 0.01750807
v 0.00800723 -0.03664881 0.01751160
v 0.00758004 -0.03659263 0.01750809
v 0.00718220 -0.03642790 0.01749851
v 0.00657814 -0.03582408 0.01747232
v 0.00641325 -0.03542627 0.01746275
v 0.00635692 -0.03499912 0.01745924
v 0.00757998 -0.03340500 0.01750816
v 0.00800661 -0.03334881 0.01751166
v 0.00843333 -0.03340485 0.01750815
v 0.00883165 -0.03356971 0.01749853
v 0.00943570 -0.03417353 0.01747231
v 0.00960018 -0.03456982 0.01746273
v 0.00965692 -0.03499849 0.01745919
v 0.00960088 -0.03542517 0.01746269
f 6 25 24
f 25 6 26
f 26 6 5
f 26 5 27
f 27 5 9
f 27 9 28
f 28 9 8
f 28 8 29
f 8 7 29
f 29 7 3
f 29 3 30
f 30 3 31
f 31 3 4
f 31 4 32
f 32 4 2
f 32 2 23
f 23 2 1
f 23 1 21
f 1 20 21
f 21 20 19
f 21 19 22
f 22 19 33
f 33 19 18
f 33 18 34
f 34 18 17
f 34 17 35
f 35 17 16
f 35 16 36
f 16 11 36
f 36 11 10
f 36 10 37
f 37 10 38
f 38 10 12
f 38 12 39
f 39 12 15
f 39 15 40
f 40 15 14
f 40 14 24
f 24 14 13
f 24 13 6

