# https://github.com/mikedh/trimesh
v -0.00498318 0.09019471 0.09895372
v -0.00498320 0.09019474 0.09726328
v -0.00493138 0.09319472 0.09905854
v 0.02752315 0.09020090 0.09895325
v 0.02752312 0.09020093 0.09726280
v 0.02747021 0.09320089 0.09905806
v -0.00076119 0.09019579 0.08413855
v -0.00488338 0.09019501 0.08413861
v 0.02282928 0.09020029 0.08413821
v 0.02736905 0.09020115 0.08413814
v 0.02747307 0.09020123 0.08115804
v -0.00498750 0.09019504 0.08115851
v 0.02282947 0.09020004 0.09726287
v -0.00076100 0.09019554 0.09726321
v 0.02123900 0.09019974 0.09726289
v 0.02123881 0.09019998 0.08413823
v 0.01182928 0.09019819 0.08413837
v 0.01023900 0.09019764 0.09726305
v 0.00082947 0.09019585 0.09726319
v 0.00082928 0.09019610 0.08413853
v 0.01023881 0.09019789 0.08413839
v 0.01182947 0.09019794 0.09726303
v 0.01011586 0.09370468 0.09714065
v 0.00567820 0.09384368 0.09713583
v 0.00095975 0.09394692 0.09713227
v 0.00095992 0.09395459 0.09064529
v 0.00096008 0.09396220 0.08415832
v 0.01011420 0.09374946 0.09064897
v 0.01011254 0.09379409 0.08415730
v 0.02112376 0.09348181 0.09714834
v 0.01668145 0.09351102 0.09714736
v 0.01194914 0.09364364 0.09714276
v 0.01195091 0.09369756 0.09064990
v 0.01195269 0.09375137 0.08415704
v 0.02112085 0.09356213 0.09065234
v 0.02111796 0.09364175 0.08415632
v 0.01668596 0.09365942 0.08415648
v 0.00567912 0.09389072 0.08415787
f 7 8 12
f 20 7 12
f 14 7 20
f 19 14 20
f 19 1 14
f 1 2 14
f 18 1 19
f 18 22 1
f 18 17 22
f 21 17 18
f 21 12 17
f 12 16 17
f 12 9 16
f 15 16 9
f 13 15 9
f 1 15 13
f 13 4 1
f 5 4 13
f 11 9 12
f 11 10 9
f 1 22 15
f 20 12 21
f 23 18 24
f 24 18 19
f 24 19 25
f 25 19 26
f 26 19 20
f 26 20 27
f 18 23 21
f 21 23 28
f 21 28 29
f 30 15 31
f 31 15 22
f 31 22 32
f 32 22 33
f 33 22 17
f 33 17 34
f 15 30 16
f 16 30 35
f 16 35 36
f 34 17 37
f 37 17 16
f 37 16 36
f 21 29 20
f 20 29 38
f 20 38 27
f 4 6 1
f 1 6 3

