# https://github.com/mikedh/trimesh
v -0.02424248 0.08799016 0.14496894
v -0.02542254 0.08798999 0.14251861
v -0.02542258 0.08799004 0.13979892
v -0.02424259 0.08799031 0.13734856
v -0.00868682 0.08799313 0.14496872
v -0.01081313 0.08799269 0.14666444
v -0.01346461 0.08799218 0.14726967
v -0.01946462 0.08799104 0.14726976
v -0.02211612 0.08799054 0.14666460
v -0.00868693 0.08799328 0.13734834
v -0.00750687 0.08799345 0.13979867
v -0.00750683 0.08799341 0.14251834
v -0.02211628 0.08799075 0.13565284
v -0.01946479 0.08799127 0.13504761
v -0.01346479 0.08799241 0.13504753
v -0.01081329 0.08799290 0.13565268
v -0.01346546 0.09149241 0.13510868
v -0.01084046 0.09149290 0.13570778
v -0.00873536 0.09149327 0.13738649
v -0.00756710 0.09149344 0.13981232
v -0.00756706 0.09149340 0.14250483
v -0.00873525 0.09149313 0.14493069
v -0.01084030 0.09149269 0.14660946
v -0.01346528 0.09149218 0.14720863
v -0.01946528 0.09149104 0.14720872
v -0.02209028 0.09149055 0.14660962
v -0.02419538 0.09149018 0.14493091
v -0.02536364 0.09149001 0.14250508
v -0.02536368 0.09149005 0.13981259
v -0.02419549 0.09149032 0.13738671
v -0.02209044 0.09149076 0.13570794
v -0.01946546 0.09149127 0.13510877
f 25 8 26
f 25 7 8
f 24 7 25
f 24 6 7
f 23 6 24
f 23 5 6
f 22 5 23
f 22 12 5
f 21 12 22
f 21 11 12
f 20 11 21
f 20 10 11
f 19 10 20
f 19 16 10
f 18 16 19
f 18 15 16
f 17 15 18
f 17 14 15
f 32 14 17
f 32 13 14
f 31 13 32
f 31 4 13
f 30 4 31
f 30 3 4
f 29 3 30
f 29 2 3
f 28 2 29
f 28 1 2
f 27 1 28
f 27 9 1
f 26 9 27
f 26 8 9

