# https://github.com/mikedh/trimesh
v 0.00102067 -0.07834832 0.29142562
v 0.00102190 -0.07759164 0.29101261
v 0.00102038 -0.07777391 0.29160219
v 0.00102653 -0.08584239 0.28652295
v 0.00102653 -0.09129600 0.28800064
v 0.00102653 -0.08757494 0.28600112
v 0.00102653 -0.09186880 0.28600055
v 0.00102346 -0.07740436 0.29040688
v 0.00102653 -0.07961132 0.28842053
v 0.00102502 -0.07721712 0.28980118
v 0.00102653 -0.07937790 0.28849205
v 0.00102653 -0.07703535 0.28921321
v 0.00102984 -0.07849477 0.29190409
f 2 3 1
f 9 2 1
f 8 2 9
f 8 9 10
f 10 9 11
f 10 11 12
f 9 1 4
f 4 1 13
f 4 13 5
f 4 5 6
f 6 5 7

