# https://github.com/mikedh/trimesh
v -0.00746553 0.09199352 0.13705367
v -0.00702890 0.09199136 0.13777927
v -0.00639551 0.09198036 0.13946672
v -0.02653605 0.08998983 0.13962726
v -0.02654109 0.08898942 0.13973778
v -0.02654614 0.08798983 0.13985743
v -0.00708993 0.08799357 0.13781162
v -0.00632516 0.08799367 0.14022756
v -0.02570317 0.08799003 0.13756403
v -0.02409595 0.08799037 0.13564582
v -0.02192925 0.08799081 0.13439362
v -0.01946481 0.08799129 0.13395868
v -0.01346481 0.08799243 0.13395859
v -0.01091195 0.08799291 0.13442633
v -0.00869079 0.08799330 0.13576882
v -0.00864544 0.09197713 0.13571683
v -0.00970908 0.09193456 0.13493572
v -0.01088878 0.09185643 0.13436334
v -0.01215943 0.09173571 0.13401167
v -0.01346549 0.09157177 0.13389619
v -0.02042667 0.08999110 0.13398799
v -0.01946525 0.09028293 0.13391872
v -0.01648839 0.09103452 0.13390559
v -0.02194158 0.08999081 0.13436086
v -0.02411879 0.08999037 0.13561913
v -0.02573380 0.08999003 0.13754663
f 8 7 3
f 3 7 2
f 2 7 1
f 1 7 15
f 1 15 16
f 16 15 17
f 17 15 14
f 17 14 18
f 18 14 19
f 19 14 13
f 19 13 20
f 13 23 20
f 13 22 23
f 12 22 13
f 21 22 12
f 21 12 24
f 12 11 24
f 24 11 10
f 24 10 25
f 25 10 9
f 25 9 26
f 26 9 5
f 9 6 5
f 26 5 4

