# https://github.com/mikedh/trimesh
v 0.01653564 0.08619801 0.14118144
v 0.01642145 0.08619800 0.14060742
v 0.01609628 0.08619795 0.14012079
v 0.01560964 0.08619786 0.13979563
v 0.01503562 0.08619776 0.13968146
v 0.01446159 0.08619764 0.13979565
v 0.01397496 0.08619754 0.14012082
v 0.01364981 0.08619747 0.14060745
v 0.01353564 0.08619744 0.14118148
v 0.01263564 0.08619726 0.14118150
v 0.01269083 0.08619729 0.14066972
v 0.01285388 0.08619733 0.14018150
v 0.01712451 0.08619810 0.14236325
v 0.01695029 0.08619807 0.14236325
v 0.01721737 0.08619816 0.14018142
v 0.01705119 0.08619813 0.14018142
v 0.01302006 0.08619736 0.14018148
v 0.01343253 0.08619745 0.13960268
v 0.01400496 0.08619757 0.13918141
v 0.01468024 0.08619770 0.13895971
v 0.01539098 0.08619784 0.13895969
v 0.01606626 0.08619796 0.13918138
v 0.01663870 0.08619806 0.13960263
v 0.01644786 0.08619796 0.14293307
v 0.01578445 0.08619783 0.14330320
v 0.01503567 0.08619768 0.14343145
v 0.01428689 0.08619754 0.14330322
v 0.01362347 0.08619742 0.14293310
v 0.01312103 0.08619734 0.14236331
v 0.01364983 0.08619745 0.14175551
v 0.01738781 0.08619817 0.14165820
v 0.01741981 0.08619818 0.14090629
v 0.01294680 0.08619730 0.14236331
v 0.01271474 0.08619727 0.14179254
v 0.01397499 0.08619750 0.14224213
v 0.01446163 0.08619759 0.14256729
v 0.01503566 0.08619770 0.14268146
v 0.01560968 0.08619781 0.14256728
v 0.01609631 0.08619791 0.14224210
v 0.01642147 0.08619798 0.14175546
f 30 9 29
f 30 29 35
f 35 29 28
f 35 28 36
f 36 28 27
f 36 27 37
f 37 27 26
f 37 26 38
f 38 26 25
f 38 25 39
f 39 25 24
f 39 24 40
f 40 24 14
f 40 14 1
f 1 14 31
f 14 13 31
f 1 31 32
f 16 1 32
f 2 1 16
f 2 16 3
f 3 16 23
f 3 23 4
f 4 23 22
f 4 22 5
f 22 21 5
f 5 21 20
f 5 20 6
f 6 20 19
f 6 19 7
f 7 19 18
f 7 18 8
f 8 18 17
f 8 17 9
f 9 17 12
f 9 12 11
f 10 9 11
f 34 9 10
f 16 32 15
f 34 29 9
f 33 29 34

