# https://github.com/mikedh/trimesh
v -0.00646432 0.08599613 0.14115845
v -0.00657065 0.08599608 0.14237399
v -0.00688644 0.08599600 0.14355260
v -0.00740209 0.08599588 0.14465846
v -0.00810195 0.08599573 0.14565799
v -0.00896473 0.08599555 0.14652079
v -0.00996424 0.08599535 0.14722069
v -0.01107009 0.08599513 0.14773637
v -0.01224869 0.08599490 0.14805219
v -0.01346422 0.08599466 0.14815855
v -0.01946422 0.08599352 0.14815864
v -0.02071453 0.08599328 0.14804609
v -0.02075047 0.08599328 0.14803948
v -0.02199292 0.08599305 0.14768599
v -0.02314926 0.08599284 0.14711021
v -0.02418012 0.08599266 0.14633177
v -0.02505038 0.08599251 0.14537716
v -0.02573042 0.08599240 0.14427890
v -0.02619708 0.08599234 0.14307438
v -0.02643445 0.08599231 0.14180462
v -0.02646432 0.08599232 0.14115874
v -0.02643447 0.08599234 0.14051287
v -0.02619713 0.08599241 0.13924310
v -0.02573051 0.08599252 0.13803856
v -0.02505051 0.08599267 0.13694029
v -0.02418027 0.08599285 0.13598564
v -0.02314943 0.08599307 0.13520718
v -0.02199311 0.08599330 0.13463138
v -0.02075067 0.08599354 0.13427785
v -0.02071473 0.08599354 0.13427123
v -0.01946443 0.08599379 0.13415864
v -0.01346442 0.08599493 0.13415855
v -0.01224889 0.08599516 0.13426489
v -0.01107028 0.08599538 0.13458067
v -0.00996441 0.08599558 0.13509633
v -0.00896489 0.08599576 0.13579617
v -0.00810208 0.08599591 0.13665897
v -0.00740220 0.08599602 0.13765846
v -0.00688651 0.08599609 0.13876432
v -0.00657069 0.08599614 0.13994291
v -0.02528524 0.08599255 0.14075470
v -0.02111836 0.08599335 0.14075464
v -0.02071432 0.08599342 0.14115866
v -0.01346424 0.08599468 0.14699347
v -0.01261827 0.08599485 0.14693181
v -0.01181021 0.08599500 0.14675412
v -0.01181029 0.08599510 0.14156255
v -0.01261835 0.08599496 0.14115854
v -0.00764340 0.08599590 0.14156249
v -0.00779322 0.08599585 0.14253148
v -0.00812010 0.08599577 0.14350069
v -0.00861120 0.08599566 0.14439793
v -0.00925143 0.08599553 0.14519562
v -0.01002112 0.08599536 0.14586926
v -0.01089662 0.08599519 0.14639814
v -0.01946424 0.08599354 0.14699356
v -0.02031021 0.08599339 0.14693192
v -0.02031030 0.08599349 0.14115866
v -0.01181038 0.08599522 0.13556296
v -0.01089677 0.08599538 0.13591890
v -0.01002126 0.08599554 0.13644776
v -0.00925155 0.08599567 0.13712138
v -0.00861129 0.08599579 0.13791905
v -0.00812017 0.08599586 0.13881627
v -0.00779326 0.08599591 0.13978547
v -0.00764341 0.08599591 0.14075445
v -0.01181030 0.08599512 0.14075451
v -0.01261843 0.08599507 0.13538527
v -0.01346441 0.08599491 0.13532363
v -0.01946441 0.08599377 0.13532372
v -0.02031038 0.08599360 0.13538538
v -0.02111843 0.08599345 0.13556309
v -0.02513542 0.08599260 0.13978572
v -0.02480855 0.08599268 0.13881651
v -0.02431745 0.08599279 0.13791928
v -0.02367721 0.08599292 0.13712159
v -0.02290753 0.08599309 0.13644795
v -0.02203203 0.08599326 0.13591906
v -0.02513538 0.08599254 0.14253174
v -0.02528523 0.08599254 0.14156276
v -0.02111835 0.08599333 0.14156270
v -0.02111827 0.08599323 0.14675425
v -0.02203187 0.08599307 0.14639829
v -0.02290739 0.08599291 0.14586943
v -0.02367710 0.08599278 0.14519583
v -0.02431735 0.08599266 0.14439815
v -0.02480848 0.08599259 0.14350092
v -0.01263591 0.08699484 0.14689907
v -0.01346443 0.08699469 0.14695857
v -0.01946443 0.08699355 0.14695866
v -0.02029295 0.08699339 0.14689919
f 41 42 43
f 43 21 41
f 81 21 43
f 81 43 82
f 43 12 82
f 82 12 13
f 82 13 83
f 83 13 14
f 83 14 84
f 84 14 15
f 84 15 85
f 85 15 16
f 85 16 86
f 86 16 17
f 86 17 87
f 87 17 18
f 87 18 79
f 79 18 19
f 79 19 20
f 79 20 80
f 80 20 21
f 43 58 12
f 71 58 43
f 30 71 43
f 30 43 72
f 72 29 30
f 72 28 29
f 78 28 72
f 78 27 28
f 77 27 78
f 77 26 27
f 76 26 77
f 76 25 26
f 75 25 76
f 75 24 25
f 74 24 75
f 74 23 24
f 73 23 74
f 73 22 23
f 41 22 73
f 70 71 30
f 31 70 30
f 31 69 70
f 32 69 31
f 32 68 69
f 59 68 32
f 59 48 68
f 67 48 59
f 67 1 48
f 49 48 1
f 47 48 49
f 47 45 48
f 46 45 47
f 46 10 45
f 9 10 46
f 46 8 9
f 46 7 8
f 55 7 46
f 55 6 7
f 54 6 55
f 54 5 6
f 53 5 54
f 53 4 5
f 52 4 53
f 52 3 4
f 51 3 52
f 51 2 3
f 50 2 51
f 50 1 2
f 44 45 10
f 44 10 56
f 56 10 11
f 56 11 57
f 57 11 12
f 49 1 50
f 66 1 67
f 66 40 1
f 65 40 66
f 65 39 40
f 64 39 65
f 64 38 39
f 63 38 64
f 63 37 38
f 62 37 63
f 62 36 37
f 61 36 62
f 61 35 36
f 60 35 61
f 60 34 35
f 59 34 60
f 59 33 34
f 32 33 59
f 57 12 58
f 80 21 81
f 41 21 22
f 72 43 42
f 56 90 44
f 44 90 89
f 44 89 45
f 45 89 88
f 90 56 91
f 91 56 57

