# https://github.com/mikedh/trimesh
v 0.00361865 -0.09201694 0.07666258
v 0.00361825 -0.09043018 0.07003496
v 0.00361761 -0.08710063 0.07003503
v 0.00358858 0.06439958 0.05844747
v 0.00358503 0.08429689 0.07465827
v 0.00358870 0.06439943 0.06613157
v 0.00358509 0.08429682 0.07865828
v 0.00358972 0.05999919 0.07865781
v 0.00358380 0.09042416 0.07003839
v 0.00358364 0.09161005 0.07465841
v 0.00358443 0.08709935 0.07003833
v 0.00358645 0.07559958 0.05853811
v 0.00358645 0.07559958 0.05844768
v 0.00358797 0.06689975 0.04911738
v 0.00358679 0.07309975 0.04911750
v 0.00361464 -0.07310023 0.04911473
v 0.00361346 -0.06690025 0.04911485
v 0.00361525 -0.07560041 0.05844481
v 0.00361298 -0.06340048 0.06217709
v 0.00361525 -0.07560041 0.05853525
v 0.00361303 -0.06340054 0.06506474
v 0.00359042 0.05550137 0.06834666
v 0.00359024 0.05632589 0.06614728
v 0.00360349 -0.01286029 0.07112155
v 0.00360305 -0.01000081 0.07865649
v 0.00360360 -0.01286044 0.07865644
v 0.00360308 -0.01000085 0.08065649
v 0.00361203 -0.05714114 0.07865559
v 0.00361261 -0.06000083 0.08065554
v 0.00361194 -0.05714103 0.07260086
v 0.00361258 -0.06000080 0.07865554
v 0.00361874 -0.09234385 0.07865493
v 0.00360143 -0.00360027 0.05111605
v 0.00360006 0.00359973 0.05111619
v 0.00360192 -0.00560042 0.05858011
v 0.00359979 0.00559959 0.05858032
v 0.00360199 -0.00560050 0.06303361
v 0.00359985 0.00559951 0.06303383
v 0.00360335 -0.01227450 0.06970734
v 0.00360345 -0.01270805 0.07035618
v 0.00361258 -0.06111173 0.06407119
v 0.00361211 -0.05863039 0.06433355
v 0.00361174 -0.05659996 0.06578380
v 0.00361157 -0.05554694 0.06804588
v 0.00358901 0.06264000 0.06457545
v 0.00358944 0.06035853 0.06401692
v 0.00358988 0.05807925 0.06458432
v 0.00359040 0.05579511 0.07067706
v 0.00359017 0.05713967 0.07260302
v 0.00359026 0.05713955 0.07865776
v 0.00358975 0.05999915 0.08065782
v 0.00359870 0.01285885 0.07865692
v 0.00359927 0.00999916 0.08065687
v 0.00359859 0.01285899 0.07112204
v 0.00359924 0.00999920 0.07865687
v 0.00360026 0.00414966 0.07205200
v 0.00360057 0.00237070 0.07036875
v 0.00361165 -0.05574436 0.07053322
v 0.00359868 0.01227322 0.06970780
v 0.00359861 0.01270674 0.07035667
v 0.00360015 0.00489178 0.07438591
v 0.00360028 0.00441171 0.07678746
v 0.00360061 0.00282938 0.07865673
v 0.00360102 -0.00000063 0.06975667
v 0.00360148 -0.00237201 0.07036866
v 0.00360184 -0.00415100 0.07205185
v 0.00360202 -0.00489324 0.07438572
v 0.00360196 -0.00441326 0.07678730
v 0.00360169 -0.00283100 0.07865662
f 1 2 3
f 1 3 32
f 32 3 21
f 20 21 3
f 20 19 21
f 18 19 20
f 18 17 19
f 16 17 18
f 32 21 30
f 30 31 32
f 30 29 31
f 28 29 30
f 28 27 29
f 26 27 28
f 26 25 27
f 24 25 26
f 24 67 25
f 24 66 67
f 40 66 24
f 40 65 66
f 38 65 40
f 39 38 40
f 37 38 39
f 37 36 38
f 35 36 37
f 35 34 36
f 33 34 35
f 38 64 65
f 57 64 38
f 56 57 38
f 38 59 56
f 56 59 60
f 56 60 61
f 61 60 54
f 61 54 62
f 62 54 55
f 54 53 55
f 52 53 54
f 52 51 53
f 50 51 52
f 50 8 51
f 49 8 50
f 49 22 8
f 48 22 49
f 8 22 23
f 47 8 23
f 46 8 47
f 46 6 8
f 6 7 8
f 6 5 7
f 4 5 6
f 12 5 4
f 11 5 12
f 11 10 5
f 9 10 11
f 12 4 13
f 13 4 14
f 13 14 15
f 45 6 46
f 62 55 63
f 25 67 68
f 25 68 69
f 30 21 44
f 21 43 44
f 21 42 43
f 41 42 21
f 30 44 58

