# https://github.com/mikedh/trimesh
v -0.01181021 0.08599500 0.14675412
v -0.01181029 0.08599510 0.14156255
v -0.00764340 0.08599590 0.14156249
v -0.01179295 0.08699501 0.14671248
v -0.01179296 0.08699503 0.14578362
v -0.01097011 0.08699519 0.14539686
v -0.01020727 0.08699535 0.14484307
v -0.00856477 0.08699572 0.14157999
v -0.00767984 0.08699589 0.14157997
v -0.00872608 0.08699568 0.14247479
v -0.00906426 0.08699559 0.14335468
v -0.00956411 0.08699548 0.14415391
v -0.00869148 0.09149569 0.14165862
v -0.00884048 0.09149566 0.14244333
v -0.00917055 0.09149557 0.14330214
v -0.00965843 0.09149547 0.14408222
v -0.01028618 0.09149534 0.14475487
v -0.01103073 0.09149518 0.14529538
v -0.01171528 0.09149504 0.14562824
v -0.01171533 0.09149512 0.14165866
f 13 8 14
f 14 8 10
f 14 10 15
f 15 10 11
f 15 11 16
f 16 11 12
f 16 12 17
f 17 12 7
f 17 7 18
f 18 7 6
f 18 6 19
f 19 6 5
f 18 19 20
f 20 17 18
f 20 16 17
f 15 16 20
f 20 14 15
f 13 14 20
f 4 1 5
f 5 1 2
f 5 2 19
f 19 2 20
f 3 9 8
f 8 2 3
f 8 20 2
f 13 20 8

