# https://github.com/mikedh/trimesh
v 0.02933552 -0.09200524 0.08065456
v 0.03283784 -0.09177346 0.08065452
v -0.02998112 -0.09293377 0.08065541
v -0.02569281 -0.09295461 0.08065534
v -0.01298115 -0.09280363 0.08065517
v -0.00421303 -0.09270278 0.08065504
v 0.00361882 -0.09260345 0.08065493
v 0.00522665 -0.09258635 0.08065490
v 0.01310784 -0.09247146 0.08065479
v 0.01899368 -0.09235348 0.08065470
v -0.02997850 -0.09854472 0.18715286
v -0.02997815 -0.09927295 0.20165528
v -0.01314617 -0.09909284 0.20165505
v -0.02997886 -0.09777325 0.17265531
v -0.02998036 -0.09459817 0.11117089
v -0.02998035 -0.09462208 0.11165538
v -0.01242156 -0.09456911 0.11118246
v -0.02997990 -0.09554468 0.13068637
v -0.02997987 -0.09558967 0.13159387
v -0.02997973 -0.09589740 0.13765535
v -0.02997966 -0.09602700 0.14015535
v -0.02997962 -0.09613159 0.14215535
v -0.02997911 -0.09723108 0.16265281
v -0.02997891 -0.09766512 0.17065533
v 0.00361962 -0.09447134 0.11119078
v 0.00302179 -0.09895493 0.20165481
v 0.00362072 -0.09678320 0.15670346
v 0.00362179 -0.09895193 0.20165479
v -0.02063329 -0.09332307 0.08677590
v 0.00361890 -0.09285806 0.08336890
v 0.00197563 -0.09305202 0.08612313
v 0.00361898 -0.09303043 0.08606964
v -0.02998099 -0.09333242 0.08658480
v -0.02998072 -0.09384029 0.09638757
v 0.03829672 -0.09542624 0.20165436
v 0.02287534 -0.09890871 0.20165452
v 0.03829736 -0.09879351 0.20165430
v 0.00526993 -0.09300753 0.08601788
v 0.00510544 -0.09301024 0.08602230
v 0.00526954 -0.09322110 0.08973102
v 0.00528417 -0.09445810 0.11119171
v -0.01249799 -0.09410971 0.10268975
v -0.01249844 -0.09388516 0.09854317
v 0.03318582 -0.09229665 0.08836575
v 0.03337484 -0.09255836 0.09255449
v 0.03292425 -0.09192961 0.08256911
v 0.03301077 -0.09205507 0.08448651
v 0.02956064 -0.09231200 0.08484084
v 0.00777387 -0.09296715 0.08594061
v 0.01950007 -0.09271346 0.08548393
v 0.03370901 -0.09376442 0.11120874
v 0.03359155 -0.09361250 0.10876824
v 0.03494485 -0.09251461 0.09407295
v 0.03489359 -0.09251861 0.09405448
v 0.03508191 -0.09270508 0.09711010
v 0.03444352 -0.09256302 0.09405448
v 0.02846904 -0.09286027 0.09255455
v 0.03560848 -0.09343732 0.10877928
v 0.03410446 -0.09357268 0.10877075
v 0.02846908 -0.09295590 0.09405456
v 0.02096234 -0.09425326 0.11119773
v 0.03373297 -0.09380896 0.11196398
v 0.03743550 -0.09775622 0.18255433
v 0.03716060 -0.09741966 0.17646214
v 0.02847132 -0.09792491 0.18255445
v 0.03674336 -0.09690637 0.16720437
v 0.03536436 -0.09519701 0.13664401
v 0.03536316 -0.09519832 0.13666485
v 0.03822963 -0.09871312 0.20015335
v 0.03815896 -0.09862897 0.19858712
v 0.03815787 -0.09862769 0.19856293
v 0.03780799 -0.09820803 0.19080929
v 0.02847135 -0.09800261 0.18405445
v 0.03750319 -0.09783894 0.18405433
v 0.03403955 -0.09378517 0.11196546
v 0.03424867 -0.09376833 0.11196654
v 0.03561766 -0.08999766 0.10899723
v 0.03410436 -0.09361240 0.10876823
v 0.03424856 -0.09381184 0.11196378
v 0.03375527 -0.09381194 0.11196379
v 0.03750248 -0.09415302 0.18405439
v 0.03769303 -0.09442626 0.18827702
v 0.03375527 -0.09380896 0.11196398
v 0.03430606 -0.08999799 0.11320744
v 0.03430393 -0.08999799 0.11320744
v 0.03411400 -0.08999795 0.10899726
v 0.03429049 -0.09369088 0.11289376
v 0.03429476 -0.09208981 0.11299522
v 0.03429834 -0.09209485 0.11307457
v 0.03429690 -0.09208981 0.11299522
v 0.03430047 -0.09209485 0.11307457
v 0.03429262 -0.09369088 0.11289376
f 11 12 13
f 11 13 14
f 13 24 14
f 13 23 24
f 22 23 13
f 17 22 13
f 21 22 17
f 17 20 21
f 17 19 20
f 18 19 17
f 17 16 18
f 15 16 17
f 42 15 17
f 42 17 25
f 25 41 42
f 42 41 40
f 49 40 41
f 49 41 50
f 50 41 61
f 41 28 61
f 61 28 36
f 61 36 62
f 62 51 61
f 62 83 51
f 62 36 65
f 62 65 68
f 62 68 75
f 75 68 76
f 68 65 66
f 65 64 66
f 63 64 65
f 66 67 68
f 67 87 68
f 92 87 67
f 65 36 73
f 73 36 72
f 73 72 74
f 36 71 72
f 36 70 71
f 69 70 36
f 36 37 69
f 41 27 28
f 27 26 28
f 25 26 27
f 25 13 26
f 50 61 51
f 51 52 50
f 52 60 50
f 52 56 60
f 59 56 52
f 59 55 56
f 58 55 59
f 55 54 56
f 53 54 55
f 50 60 57
f 50 57 48
f 10 50 48
f 48 1 10
f 48 47 1
f 48 44 47
f 1 47 46
f 1 46 2
f 48 57 44
f 57 45 44
f 79 52 51
f 79 51 80
f 78 52 79
f 10 49 50
f 9 49 10
f 9 38 49
f 8 38 9
f 39 38 8
f 30 39 8
f 30 8 7
f 7 29 30
f 7 6 29
f 29 6 5
f 29 5 33
f 29 33 34
f 29 34 43
f 43 31 29
f 43 40 31
f 40 32 31
f 30 31 32
f 40 39 32
f 43 34 15
f 33 5 4
f 33 4 3
f 30 29 31
f 32 39 30
f 38 39 40
f 38 40 49
f 42 40 43
f 25 27 41
f 43 15 42
f 17 13 25
f 68 87 76
f 76 87 88
f 86 76 88
f 59 76 86
f 59 79 76
f 78 79 59
f 86 88 85
f 85 88 89
f 37 35 69
f 69 35 70
f 35 71 70
f 35 72 71
f 82 72 35
f 82 74 72
f 81 74 82
f 75 76 79
f 79 80 75
f 75 80 83
f 75 83 62
f 88 90 89
f 89 90 91
f 84 85 91
f 91 85 89
f 86 77 59
f 59 77 58
f 88 87 90
f 90 87 92
f 59 52 78
f 51 83 80

