# https://github.com/mikedh/trimesh
v 0.00852829 0.08619653 0.13904910
v 0.01454018 0.08619767 0.13904399
v 0.00914405 0.09353483 0.14313892
v 0.01053683 0.09345336 0.14314155
v 0.01394052 0.09326096 0.14314787
v 0.00937923 0.09352160 0.14298531
v 0.00989968 0.09349278 0.14243971
v 0.01021058 0.09347665 0.14175273
v 0.01027697 0.09347504 0.14100109
v 0.01009068 0.09348799 0.14026904
v 0.00966704 0.09351420 0.13963369
v 0.00905619 0.09355024 0.13917714
v 0.01254818 0.09335170 0.13917071
v 0.01402977 0.09327292 0.13916805
v 0.01335167 0.09329426 0.14267531
v 0.01320632 0.09331317 0.13986975
v 0.01374251 0.09328697 0.13933951
v 0.01287543 0.09332850 0.14054766
v 0.01278725 0.09333050 0.14129676
v 0.01295222 0.09331859 0.14203419
f 3 6 4
f 4 6 7
f 4 7 8
f 8 20 4
f 4 20 15
f 4 15 5
f 8 19 20
f 18 19 8
f 8 9 18
f 18 9 10
f 18 10 13
f 13 10 11
f 13 11 12
f 13 16 18
f 13 17 16
f 14 17 13
f 12 1 13
f 13 1 2
f 13 2 14

