# https://github.com/mikedh/trimesh
v 0.00360305 -0.01000081 0.07865649
v 0.00360308 -0.01000085 0.08065649
v 0.00361261 -0.06000083 0.08065554
v 0.00361258 -0.06000080 0.07865554
v 0.00361874 -0.09234385 0.07865493
v 0.00360169 -0.00283100 0.07865662
v 0.01300308 -0.00999906 0.08065635
v 0.01301260 -0.05999904 0.08065540
v 0.01301258 -0.05999900 0.07865540
v 0.01300305 -0.00999902 0.07865635
v 0.00439459 -0.09233388 0.07865492
v 0.00517103 -0.09232669 0.07865491
v 0.01111507 -0.09224825 0.07865482
v 0.02304439 -0.09200896 0.07865465
v 0.03074506 -0.09169734 0.07865454
v 0.03274757 -0.09155451 0.07865452
v 0.03274677 -0.08731826 0.07865459
v 0.03819511 -0.08731721 0.07865452
v 0.05040434 -0.06433429 0.07865477
v 0.05368620 -0.05545722 0.07865489
v 0.04926381 -0.06716191 0.07865474
v 0.04679275 -0.07282277 0.07865467
v 0.04660077 -0.07323554 0.07865466
v 0.04378213 -0.07883886 0.07865459
v 0.03840605 -0.08706651 0.07865452
v 0.04083622 -0.08376255 0.07865454
v 0.05588310 -0.04208176 0.07865512
v 0.05887318 -0.00282047 0.07865582
v 0.05834327 -0.01781803 0.07865554
v 0.05757110 -0.02776235 0.07865536
f 10 1 6
f 6 28 10
f 10 28 29
f 10 29 30
f 30 27 10
f 10 27 20
f 10 20 9
f 9 20 19
f 9 19 21
f 21 22 9
f 9 22 23
f 23 24 9
f 9 24 26
f 9 26 25
f 25 18 9
f 9 18 17
f 9 17 4
f 4 17 15
f 17 16 15
f 4 15 14
f 14 13 4
f 4 13 12
f 4 12 11
f 11 5 4
f 9 8 10
f 10 8 7
f 10 7 1
f 1 7 2
f 8 9 3
f 3 9 4

