# https://github.com/mikedh/trimesh
v -0.01346546 0.09149241 0.13515867
v -0.01346546 0.09149241 0.13510868
v -0.01086215 0.09149289 0.13575283
v -0.01084046 0.09149290 0.13570778
v -0.00877445 0.09149326 0.13741766
v -0.00873536 0.09149327 0.13738649
v -0.00761584 0.09149344 0.13982345
v -0.00756710 0.09149344 0.13981232
v -0.00761580 0.09149338 0.14249370
v -0.00756706 0.09149340 0.14250483
v -0.00877434 0.09149312 0.14489952
v -0.00873525 0.09149313 0.14493069
v -0.01086200 0.09149269 0.14656442
v -0.01084030 0.09149269 0.14660946
v -0.01346528 0.09149218 0.14715864
v -0.01346528 0.09149218 0.14720863
v -0.01946528 0.09149104 0.14715873
v -0.01946528 0.09149104 0.14720872
v -0.02206859 0.09149055 0.14656459
v -0.02209028 0.09149055 0.14660962
v -0.02415629 0.09149019 0.14489974
v -0.02419538 0.09149018 0.14493091
v -0.02531490 0.09149002 0.14249395
v -0.02536364 0.09149001 0.14250508
v -0.02531494 0.09149007 0.13982370
v -0.02536368 0.09149005 0.13981259
v -0.02415640 0.09149033 0.13741788
v -0.02419549 0.09149032 0.13738671
v -0.02206875 0.09149076 0.13575299
v -0.02209044 0.09149076 0.13570794
v -0.01946546 0.09149127 0.13515876
v -0.01946546 0.09149127 0.13510877
f 1 2 3
f 1 32 2
f 31 32 1
f 31 30 32
f 29 30 31
f 29 28 30
f 27 28 29
f 27 26 28
f 25 26 27
f 25 24 26
f 23 24 25
f 23 22 24
f 21 22 23
f 21 20 22
f 19 20 21
f 19 18 20
f 17 18 19
f 17 16 18
f 15 16 17
f 15 14 16
f 13 14 15
f 13 12 14
f 11 12 13
f 11 10 12
f 9 10 11
f 9 8 10
f 7 8 9
f 7 6 8
f 5 6 7
f 5 4 6
f 3 4 5
f 3 2 4

