# https://github.com/mikedh/trimesh
v 0.01600677 -0.02989758 0.07403668
v 0.01600781 -0.03528481 0.07445777
v 0.01600882 -0.04066331 0.07393699
v 0.01600979 -0.04586967 0.07249016
v 0.01600389 -0.01529209 0.06738997
v 0.01600479 -0.01974702 0.07044826
v 0.01600576 -0.02466533 0.07268649
v 0.01600193 -0.00596672 0.05433100
v 0.01600244 -0.00829565 0.05920701
v 0.01600311 -0.01143592 0.06360454
v 0.01600140 -0.00442020 0.03835891
v 0.01600140 -0.00399910 0.04374614
v 0.01600158 -0.00451989 0.04912464
v 0.01600245 -0.01106692 0.02375342
v 0.01600194 -0.00800862 0.02820835
v 0.01600158 -0.00577038 0.03312666
v 0.01600480 -0.02412588 0.01442805
v 0.01600391 -0.01924986 0.01675698
v 0.01600312 -0.01485233 0.01989724
v 0.01600783 -0.04009797 0.01288153
v 0.01600679 -0.03471074 0.01246043
v 0.01600578 -0.02933224 0.01298122
v 0.01601070 -0.05470346 0.01952824
v 0.01600981 -0.05024853 0.01646995
v 0.01600884 -0.04533022 0.01423171
v 0.01601267 -0.06402883 0.03258721
v 0.01601216 -0.06169990 0.02771119
v 0.01601149 -0.05855963 0.02331366
v 0.01601320 -0.06557535 0.04855930
v 0.01601320 -0.06599645 0.04317207
v 0.01601302 -0.06547567 0.03779357
v 0.01601215 -0.05892863 0.06316479
v 0.01601266 -0.06198693 0.05870986
v 0.01601302 -0.06422517 0.05379155
v 0.01601069 -0.05074568 0.07016122
v 0.01601148 -0.05514321 0.06702096
v -0.04119609 -0.01926076 0.01675782
v -0.04119519 -0.02413678 0.01442889
v -0.04119422 -0.02934314 0.01298205
v -0.04119321 -0.03472164 0.01246127
v -0.04119806 -0.00801952 0.02820918
v -0.04119755 -0.01107781 0.02375426
v -0.04119688 -0.01486323 0.01989808
v -0.04119860 -0.00401000 0.04374697
v -0.04119860 -0.00443110 0.03835975
v -0.04119842 -0.00578128 0.03312749
v -0.04119756 -0.00830655 0.05920785
v -0.04119807 -0.00597762 0.05433183
v -0.04119842 -0.00453078 0.04912547
v -0.04119521 -0.01975791 0.07044909
v -0.04119610 -0.01530299 0.06739080
v -0.04119689 -0.01144681 0.06360538
v -0.04119219 -0.03529570 0.07445861
v -0.04119322 -0.02990848 0.07403751
v -0.04119424 -0.02467622 0.07268733
v -0.04118931 -0.05075658 0.07016206
v -0.04119020 -0.04588056 0.07249099
v -0.04119118 -0.04067421 0.07393783
v -0.04118733 -0.06199782 0.05871070
v -0.04118785 -0.05893953 0.06316562
v -0.04118852 -0.05515411 0.06702179
v -0.04118680 -0.06600734 0.04317291
v -0.04118680 -0.06558625 0.04856013
v -0.04118698 -0.06423606 0.05379239
v -0.04118784 -0.06171079 0.02771202
v -0.04118733 -0.06403972 0.03258805
v -0.04118698 -0.06548656 0.03779440
v -0.04119019 -0.05025943 0.01647079
v -0.04118929 -0.05471435 0.01952908
v -0.04118850 -0.05857053 0.02331450
v -0.04119217 -0.04010886 0.01288236
v -0.04119116 -0.04534112 0.01423255
f 39 21 40
f 39 22 21
f 38 22 39
f 38 17 22
f 37 17 38
f 37 18 17
f 43 18 37
f 43 19 18
f 42 19 43
f 42 14 19
f 41 14 42
f 41 15 14
f 46 15 41
f 46 16 15
f 45 16 46
f 45 11 16
f 44 11 45
f 44 12 11
f 49 12 44
f 49 13 12
f 48 13 49
f 48 8 13
f 47 8 48
f 47 9 8
f 52 9 47
f 52 10 9
f 51 10 52
f 51 5 10
f 50 5 51
f 50 6 5
f 55 6 50
f 55 7 6
f 54 7 55
f 54 1 7
f 53 1 54
f 53 2 1
f 58 2 53
f 58 3 2
f 57 3 58
f 57 4 3
f 56 4 57
f 56 35 4
f 61 35 56
f 61 36 35
f 60 36 61
f 60 32 36
f 59 32 60
f 59 33 32
f 64 33 59
f 64 34 33
f 63 34 64
f 63 29 34
f 62 29 63
f 62 30 29
f 67 30 62
f 67 31 30
f 66 31 67
f 66 26 31
f 65 26 66
f 65 27 26
f 70 27 65
f 70 28 27
f 69 28 70
f 69 23 28
f 68 23 69
f 68 24 23
f 72 24 68
f 72 25 24
f 71 25 72
f 71 20 25
f 40 20 71
f 40 21 20

