# https://github.com/mikedh/trimesh
v -0.00351195 0.08403006 0.27831817
v -0.00851195 0.08403008 0.27831852
v -0.00251188 0.08375435 0.27927935
v -0.00251151 0.08222850 0.28459924
v -0.00725203 0.08227726 0.28442958
v -0.00312926 0.08400908 0.27839130
v -0.00280482 0.08394932 0.27859965
v -0.00258803 0.08385988 0.27891150
v -0.00851153 0.08230033 0.28434926
v -0.00727742 0.07999120 0.28508630
v -0.00251130 0.08110955 0.28490999
v -0.00251108 0.07999210 0.28522596
v -0.00851118 0.08048552 0.28487572
v -0.00851108 0.07999096 0.28502142
v -0.00851104 0.07999093 0.28815585
v -0.00251103 0.07999204 0.28834739
v -0.00741501 0.07999111 0.28820994
f 3 4 5
f 2 3 5
f 2 5 9
f 9 5 13
f 13 5 10
f 13 10 14
f 10 17 14
f 14 17 15
f 10 16 17
f 12 16 10
f 10 11 12
f 10 4 11
f 1 3 2
f 1 8 3
f 7 8 1
f 1 6 7
f 5 4 10

