# https://github.com/mikedh/trimesh
v 0.00358392 0.09059678 0.08065840
v 0.00358389 0.09059682 0.07865839
v 0.00358356 0.09233751 0.07865842
v 0.03298474 0.08630238 0.08065788
v 0.03298392 0.09060238 0.08065797
v 0.03298389 0.09060242 0.07865796
v 0.03298471 0.08630242 0.07865788
v 0.03899188 0.08630356 0.07865779
v 0.00513604 0.09231984 0.07865840
v 0.03707278 0.08851976 0.07865787
v 0.01607217 0.09216473 0.07865824
v 0.01743959 0.09213888 0.07865822
v 0.03621427 0.09118248 0.07865793
v 0.03645115 0.08945026 0.07865789
v 0.03693691 0.08866742 0.07865787
v 0.01060223 0.09225147 0.07865832
v 0.01333725 0.09221102 0.07865828
v 0.01880696 0.09211096 0.07865820
v 0.02017429 0.09208078 0.07865818
v 0.02290876 0.09201271 0.07865813
v 0.02427588 0.09197409 0.07865812
v 0.02564285 0.09193081 0.07865810
v 0.03110801 0.09167617 0.07865801
v 0.03383502 0.09145962 0.07865797
f 10 8 7
f 7 15 10
f 7 14 15
f 6 14 7
f 13 14 6
f 6 24 13
f 6 23 24
f 22 23 6
f 6 21 22
f 6 20 21
f 19 20 6
f 2 19 6
f 2 18 19
f 12 18 2
f 11 12 2
f 2 17 11
f 2 16 17
f 9 16 2
f 2 3 9
f 6 5 2
f 2 5 1
f 5 6 4
f 4 6 7

