# https://github.com/mikedh/trimesh
v 0.02948776 0.06508657 0.01068262
v 0.02948749 0.06700213 0.01713078
v 0.02948843 0.06142262 0.00888385
v 0.02948837 0.06184412 0.01030266
v 0.02948881 0.05965147 0.01207225
v 0.02948758 0.06650417 0.01727871
v 0.02948815 0.06394365 0.02295171
v 0.02948848 0.06231590 0.02373856
v 0.02948932 0.05706149 0.01312198
v 0.02948901 0.05952701 0.02391730
v 0.02948948 0.05695967 0.02281337
v 0.02948979 0.05517084 0.02066627
v 0.02948987 0.05454860 0.01794180
v 0.02948970 0.05522795 0.01523101
v 0.02948816 0.06393308 0.02292668
v 0.02948771 0.06606346 0.02034062
v 0.02948774 0.06595645 0.02057574
v 0.02948792 0.06510055 0.02188325
v 0.02948771 0.06607661 0.02033672
f 8 7 15
f 12 8 15
f 12 15 13
f 18 13 15
f 17 13 18
f 17 4 13
f 16 4 17
f 16 6 4
f 6 1 4
f 2 1 6
f 19 6 16
f 5 13 4
f 4 3 5
f 5 14 13
f 9 14 5
f 10 8 12
f 12 11 10

