# https://github.com/mikedh/trimesh
v 0.02095576 0.09419887 0.14010319
v 0.02059400 0.08619880 0.14034906
v 0.02127160 0.09419893 0.13986082
v 0.02120330 0.08619893 0.13973975
v 0.02163939 0.09419901 0.13970847
v 0.02203561 0.08619909 0.13951671
v 0.02203409 0.09419908 0.13965651
v 0.02071341 0.09419882 0.14041902
v 0.02056107 0.09419879 0.14078683
v 0.02037100 0.08619874 0.14118138
v 0.02050911 0.09419876 0.14118153
v 0.02056108 0.09419877 0.14157623
v 0.02059403 0.08619877 0.14201370
v 0.02071344 0.09419879 0.14194402
v 0.02095579 0.09419883 0.14225987
v 0.02120334 0.08619887 0.14262299
v 0.02203414 0.09419902 0.14270651
v 0.02203566 0.08619903 0.14284600
v 0.02163944 0.09419895 0.14265455
v 0.02127163 0.09419888 0.14250220
v 0.02242883 0.09419911 0.14265454
v 0.02279663 0.09419917 0.14250219
v 0.02311247 0.09419924 0.14225984
v 0.02335482 0.09419929 0.14194399
v 0.02350716 0.09419933 0.14157619
v 0.02355911 0.09419934 0.14118148
v 0.02350715 0.09419934 0.14078678
v 0.02335479 0.09419932 0.14041899
v 0.02311244 0.09419928 0.14010316
v 0.02279660 0.09419923 0.13986081
v 0.02242879 0.09419916 0.13970846
v 0.02286798 0.08619919 0.14262296
v 0.02347727 0.08619932 0.14201365
v 0.02370028 0.08619937 0.14118133
v 0.02347725 0.08619935 0.14034902
v 0.02286794 0.08619925 0.13973972
f 1 2 3
f 1 8 2
f 2 8 9
f 2 9 10
f 9 11 10
f 10 11 12
f 10 12 13
f 12 14 13
f 13 14 15
f 13 15 16
f 20 16 15
f 19 16 20
f 19 18 16
f 17 18 19
f 18 17 21
f 18 21 32
f 21 22 32
f 32 22 23
f 32 23 33
f 23 24 33
f 33 24 25
f 33 25 34
f 25 26 34
f 34 26 27
f 34 27 35
f 27 28 35
f 35 28 29
f 35 29 36
f 30 36 29
f 31 36 30
f 31 6 36
f 7 6 31
f 5 6 7
f 5 4 6
f 3 4 5
f 3 2 4

