# https://github.com/mikedh/trimesh
v -0.02528523 0.08599254 0.14156276
v -0.02111835 0.08599333 0.14156270
v -0.02111827 0.08599323 0.14675425
v -0.02409023 0.09149275 0.14244355
v -0.02423925 0.09149273 0.14165884
v -0.02121539 0.09149331 0.14165880
v -0.02121534 0.09149323 0.14562838
v -0.02189989 0.09149311 0.14529555
v -0.02264446 0.09149298 0.14475505
v -0.02327223 0.09149288 0.14408241
v -0.02376013 0.09149279 0.14330237
v -0.02113593 0.08699325 0.14578375
v -0.02195880 0.08699310 0.14539702
v -0.02272165 0.08699296 0.14484325
v -0.02336483 0.08699285 0.14415410
v -0.02386470 0.08699277 0.14335491
v -0.02420290 0.08699273 0.14247501
v -0.02436425 0.08699271 0.14158021
v -0.02113592 0.08699322 0.14671262
v -0.02524917 0.08699254 0.14158022
f 7 12 8
f 8 12 13
f 8 13 9
f 9 13 14
f 9 14 10
f 10 14 15
f 10 15 11
f 11 15 16
f 11 16 4
f 4 16 17
f 4 17 5
f 5 17 18
f 4 5 6
f 6 11 4
f 6 10 11
f 9 10 6
f 6 8 9
f 7 8 6
f 3 19 12
f 12 2 3
f 12 6 2
f 7 6 12
f 20 1 18
f 18 1 2
f 18 2 5
f 5 2 6

