# https://github.com/mikedh/trimesh
v -0.03492383 0.08431433 0.06726109
v -0.03969531 0.08431342 0.06726116
v -0.04012629 0.08231346 0.06526115
v -0.04119204 0.07559105 0.05853876
v -0.04117748 0.07559106 0.05844833
v -0.04080841 0.07454456 0.05454220
v -0.04013903 0.07309142 0.04911814
v -0.04068856 0.07149132 0.04911811
v -0.03973972 0.07876422 0.05649262
v -0.03951466 0.07917534 0.05623853
v -0.03951247 0.07876426 0.05649261
v -0.03952543 0.07836447 0.05492698
v -0.03961048 0.07149161 0.04455471
v -0.03950899 0.07900978 0.05691651
v -0.03957662 0.07365401 0.04867151
v -0.03960454 0.07149160 0.04526750
v -0.03507658 0.07365487 0.04867144
v -0.03510451 0.07149246 0.04526744
v -0.03500895 0.07901064 0.05691644
v -0.03973670 0.07963429 0.05799582
v -0.03970199 0.08344133 0.06529401
f 15 16 17
f 17 16 18
f 19 15 17
f 14 15 19
f 14 19 20
f 20 9 14
f 14 9 11
f 5 9 20
f 5 20 3
f 3 4 5
f 3 20 21
f 21 2 3
f 21 1 2
f 20 1 21
f 6 9 5
f 6 10 9
f 12 10 6
f 7 12 6
f 7 13 12
f 8 13 7
f 20 19 1
f 10 12 11
f 11 12 13
f 15 11 13
f 14 11 15
f 15 13 16
f 9 10 11

