# https://github.com/mikedh/trimesh
v 0.00295042 0.08549540 0.14236344
v 0.00295029 0.08619540 0.14236346
v 0.00244786 0.08619530 0.14293326
v 0.00244800 0.08549529 0.14293325
v 0.00178445 0.08619516 0.14330341
v 0.00178458 0.08549516 0.14330339
v 0.00103567 0.08619501 0.14343166
v 0.00103581 0.08549502 0.14343165
v 0.00028689 0.08619487 0.14330342
v 0.00028702 0.08549488 0.14330341
v -0.00037653 0.08619475 0.14293331
v -0.00037640 0.08549476 0.14293329
v -0.00087897 0.08619467 0.14236350
v -0.00087884 0.08549467 0.14236349
v 0.01916977 0.08619849 0.14236322
v 0.01911864 0.08619849 0.14223070
v 0.01919935 0.08600494 0.14236321
v 0.01916883 0.08593062 0.14221266
v 0.01920745 0.08598063 0.14236321
v 0.01931466 0.08578751 0.14236321
v 0.01931166 0.08570354 0.14216129
v 0.01939380 0.08570281 0.14236321
v 0.01948171 0.08563426 0.14236321
v 0.01952538 0.08555184 0.14208442
v 0.01967533 0.08554093 0.14236319
v 0.01970224 0.08553267 0.14236319
v 0.01977745 0.08549861 0.14199375
v 0.01994694 0.08549864 0.14236319
v 0.01963577 0.08549860 0.14118138
v 0.01967146 0.08549860 0.14159369
v 0.01936788 0.08555184 0.14118138
v 0.01940756 0.08555183 0.14163972
v 0.01914076 0.08570353 0.14118139
v 0.01918381 0.08570353 0.14167874
v 0.01898897 0.08593060 0.14118139
v 0.01903428 0.08593060 0.14170481
v 0.01893564 0.08619847 0.14118139
v 0.01898174 0.08619846 0.14171398
v 0.01216977 0.08619716 0.14236332
v 0.01211864 0.08619715 0.14223081
v 0.01219935 0.08600360 0.14236331
v 0.01216883 0.08592928 0.14221276
v 0.01220745 0.08597930 0.14236331
v 0.01231466 0.08578618 0.14236331
v 0.01231166 0.08570221 0.14216140
v 0.01239380 0.08570148 0.14236331
v 0.01248171 0.08563293 0.14236331
v 0.01252538 0.08555051 0.14208452
v 0.01267533 0.08553959 0.14236329
v 0.01270224 0.08553133 0.14236329
v 0.01277745 0.08549727 0.14199385
v 0.01294694 0.08549730 0.14236329
v 0.01263577 0.08549727 0.14118148
v 0.01267146 0.08549727 0.14159380
v 0.01236788 0.08555050 0.14118148
v 0.01240756 0.08555049 0.14163981
v 0.01214076 0.08570220 0.14118150
v 0.01218381 0.08570220 0.14167884
v 0.01198897 0.08592927 0.14118150
v 0.01203428 0.08592927 0.14170492
v 0.01193564 0.08619714 0.14118150
v 0.01198174 0.08619713 0.14171408
v 0.00516977 0.08619583 0.14236341
v 0.00511864 0.08619582 0.14223091
v 0.00519935 0.08600227 0.14236341
v 0.00516883 0.08592795 0.14221287
v 0.00520745 0.08597797 0.14236341
v 0.00531466 0.08578485 0.14236341
v 0.00531166 0.08570088 0.14216150
v 0.00539380 0.08570015 0.14236341
v 0.00548171 0.08563160 0.14236340
v 0.00552538 0.08554918 0.14208463
v 0.00567533 0.08553826 0.14236340
v 0.00570224 0.08553000 0.14236340
v 0.00577745 0.08549595 0.14199395
v 0.00594694 0.08549597 0.14236340
v 0.00563577 0.08549593 0.14118159
v 0.00567146 0.08549593 0.14159390
v 0.00536788 0.08554917 0.14118159
v 0.00540756 0.08554916 0.14163992
v 0.00514076 0.08570086 0.14118159
v 0.00518381 0.08570086 0.14167894
v 0.00498897 0.08592793 0.14118160
v 0.00503428 0.08592793 0.14170502
v 0.00493564 0.08619580 0.14118160
v 0.00498174 0.08619580 0.14171417
v 0.01994650 0.08779863 0.14236324
v 0.01991688 0.08798689 0.14236324
v 0.01990902 0.08800992 0.14236324
v 0.01980469 0.08819684 0.14236325
v 0.01971330 0.08829395 0.14236325
v 0.01963901 0.08835235 0.14236325
v 0.01944373 0.08845170 0.14236325
v 0.01940976 0.08846280 0.14236325
v 0.01916933 0.08849849 0.14236327
v 0.01294650 0.08779730 0.14236334
v 0.01291688 0.08798555 0.14236334
v 0.01290902 0.08800858 0.14236334
v 0.01280469 0.08819551 0.14236335
v 0.01271330 0.08829262 0.14236335
v 0.01263901 0.08835102 0.14236335
v 0.01244373 0.08845037 0.14236335
v 0.01240976 0.08846147 0.14236335
v 0.01216933 0.08849715 0.14236337
v 0.00594650 0.08779597 0.14236344
v 0.00591688 0.08798422 0.14236344
v 0.00590903 0.08800725 0.14236344
v 0.00580469 0.08819418 0.14236344
v 0.00571330 0.08829129 0.14236346
v 0.00563901 0.08834969 0.14236346
v 0.00544373 0.08844904 0.14236346
v 0.00540976 0.08846013 0.14236346
v 0.00516933 0.08849582 0.14236346
v 0.00585388 0.08619600 0.14018159
v 0.00585358 0.08779600 0.14018162
v 0.01285388 0.08619733 0.14018150
v 0.01285358 0.08779733 0.14018153
v 0.01985388 0.08619867 0.14018139
v 0.01985358 0.08779866 0.14018142
v 0.02002019 0.08549869 0.14018138
v 0.02002006 0.08619870 0.14018139
v 0.02048728 0.08619879 0.13954885
v 0.02048741 0.08549879 0.13954884
v 0.02114364 0.08619893 0.13911572
v 0.02114377 0.08549893 0.13911571
v 0.02190896 0.08619907 0.13893493
v 0.02190909 0.08549908 0.13893491
v 0.02268975 0.08619922 0.13902853
v 0.02268988 0.08549922 0.13902852
v 0.02339064 0.08619935 0.13938512
v 0.02339077 0.08549935 0.13938510
v 0.02392601 0.08619944 0.13996112
v 0.02392615 0.08549944 0.13996111
v 0.02423047 0.08619948 0.14068617
v 0.02423060 0.08549949 0.14068615
v 0.02426682 0.08619948 0.14147171
v 0.02426696 0.08549948 0.14147170
v 0.02403063 0.08619942 0.14222179
v 0.02403076 0.08549942 0.14222178
v 0.02355074 0.08619931 0.14284478
v 0.02355087 0.08549932 0.14284477
v 0.02288578 0.08619918 0.14326456
v 0.02288591 0.08549918 0.14326455
v 0.02211697 0.08619903 0.14342989
v 0.02211710 0.08549903 0.14342988
v 0.02133822 0.08619888 0.14332055
v 0.02133835 0.08549888 0.14332053
v 0.02064467 0.08619876 0.14294989
v 0.02064480 0.08549876 0.14294988
v 0.02012103 0.08619867 0.14236321
v 0.02012116 0.08549867 0.14236319
v 0.01916946 0.08779848 0.14236325
v 0.01899443 0.08779846 0.14178382
v 0.01893533 0.08779847 0.14118144
v 0.01216946 0.08779716 0.14236335
v 0.01199443 0.08779714 0.14178392
v 0.01193533 0.08779714 0.14118153
v 0.00516947 0.08779582 0.14236344
v 0.00499443 0.08779580 0.14178403
v 0.00493533 0.08779580 0.14118163
v 0.00510104 0.08779585 0.14018163
v 0.00510134 0.08619585 0.14018160
v 0.00500778 0.08619583 0.14051667
v 0.00497704 0.08779582 0.14067481
v 0.01210104 0.08779718 0.14018153
v 0.01210134 0.08619718 0.14018150
v 0.01200778 0.08619716 0.14051656
v 0.01197704 0.08779715 0.14067471
v 0.01910104 0.08779851 0.14018144
v 0.01910134 0.08619852 0.14018139
v 0.01900778 0.08619849 0.14051646
v 0.01897704 0.08779848 0.14067461
v 0.01969163 0.08549862 0.14066659
v 0.01985401 0.08549866 0.14018138
v 0.01994680 0.08619864 0.14236321
v 0.01712899 0.08787451 0.14236328
v 0.01712420 0.08779810 0.14236328
v 0.01790124 0.08779825 0.14236327
v 0.01712451 0.08619810 0.14236325
v 0.01695029 0.08619807 0.14236325
v 0.01695042 0.08549806 0.14236324
v 0.01768200 0.08846862 0.14236328
v 0.01762678 0.08845138 0.14236328
v 0.01790154 0.08619825 0.14236324
v 0.01789634 0.08611621 0.14236324
v 0.01712464 0.08549810 0.14236324
v 0.01734789 0.08552632 0.14236324
v 0.01740975 0.08554503 0.14236324
v 0.01743268 0.08835276 0.14236328
v 0.01738358 0.08831593 0.14236328
v 0.01724331 0.08816592 0.14236328
v 0.01790110 0.08849825 0.14236328
v 0.01720683 0.08810794 0.14236328
v 0.01713806 0.08792762 0.14236328
v 0.01759915 0.08564022 0.14236324
v 0.01766185 0.08568848 0.14236324
v 0.01779492 0.08584041 0.14236324
v 0.01782513 0.08589197 0.14236324
v 0.01789022 0.08607754 0.14236324
v 0.01782274 0.08577962 0.14018141
v 0.01767355 0.08563900 0.14018141
v 0.01721737 0.08619816 0.14018142
v 0.01765323 0.08562519 0.14018141
v 0.01750855 0.08555128 0.14018141
v 0.01746162 0.08553497 0.14018141
v 0.01705132 0.08549812 0.14018142
v 0.01705119 0.08619813 0.14018142
v 0.01721750 0.08549816 0.14018141
v 0.01743331 0.08552671 0.14018141
v 0.01984554 0.08789945 0.14018142
v 0.01910984 0.08609284 0.14018139
v 0.01963766 0.08552727 0.14018138
v 0.01958718 0.08554284 0.14018138
v 0.01753057 0.08836433 0.14018147
v 0.01772303 0.08845863 0.14018147
v 0.01796960 0.08779830 0.14018145
v 0.01931442 0.08846900 0.14018144
v 0.01936140 0.08845417 0.14018144
v 0.01775655 0.08846886 0.14018147
v 0.01796947 0.08849830 0.14018147
v 0.01910091 0.08849852 0.14018144
v 0.01955118 0.08835692 0.14018144
v 0.01959245 0.08832584 0.14018144
v 0.01973262 0.08817596 0.14018142
v 0.01721706 0.08779816 0.14018145
v 0.01724659 0.08799038 0.14018147
v 0.01725500 0.08801545 0.14018147
v 0.01794040 0.08600248 0.14018141
v 0.01793179 0.08597641 0.14018141
v 0.01783791 0.08579949 0.14018141
v 0.01976295 0.08812854 0.14018142
v 0.01983629 0.08794608 0.14018142
v 0.01940022 0.08563771 0.14018138
v 0.01935071 0.08567549 0.14018139
v 0.01921499 0.08582614 0.14018139
v 0.01736192 0.08820796 0.14018147
v 0.01744098 0.08829346 0.14018147
v 0.01796990 0.08619830 0.14018142
v 0.01918807 0.08586998 0.14018139
v 0.01911694 0.08605567 0.14018139
v 0.01812317 0.08779831 0.14090717
v 0.01809994 0.08779830 0.14164859
v 0.01796904 0.08619826 0.14218402
v 0.01804362 0.08619832 0.14043176
v 0.01813127 0.08619832 0.14101703
v 0.01810611 0.08619830 0.14160831
v 0.01302019 0.08549736 0.14018148
v 0.01302006 0.08619736 0.14018148
v 0.01343253 0.08619745 0.13960268
v 0.01343266 0.08549745 0.13960266
v 0.01400496 0.08619757 0.13918141
v 0.01400509 0.08549757 0.13918139
v 0.01468024 0.08619770 0.13895971
v 0.01468037 0.08549770 0.13895969
v 0.01539098 0.08619784 0.13895969
v 0.01539111 0.08549783 0.13895968
v 0.01606626 0.08619796 0.13918138
v 0.01606639 0.08549796 0.13918136
v 0.01663870 0.08619806 0.13960263
v 0.01663884 0.08549806 0.13960262
v 0.01644786 0.08619796 0.14293307
v 0.01644800 0.08549796 0.14293306
v 0.01578445 0.08619783 0.14330320
v 0.01578458 0.08549783 0.14330319
v 0.01503567 0.08619768 0.14343145
v 0.01503581 0.08549768 0.14343144
v 0.01428689 0.08619754 0.14330322
v 0.01428702 0.08549754 0.14330320
v 0.01362347 0.08619742 0.14293310
v 0.01362360 0.08549742 0.14293309
v 0.01312103 0.08619734 0.14236331
v 0.01312116 0.08549733 0.14236329
v 0.01269163 0.08549729 0.14066669
v 0.01285402 0.08549733 0.14018148
v 0.01736453 0.08549818 0.14060102
v 0.01743239 0.08549818 0.14105415
v 0.01741291 0.08549817 0.14151192
v 0.01730680 0.08549814 0.14195763
v 0.01294680 0.08619730 0.14236331
v 0.01082274 0.08577829 0.14018151
v 0.01067355 0.08563767 0.14018151
v 0.01021737 0.08619682 0.14018153
v 0.01065323 0.08562386 0.14018151
v 0.01050855 0.08554995 0.14018151
v 0.01046162 0.08553364 0.14018151
v 0.01005132 0.08549679 0.14018151
v 0.01005119 0.08619680 0.14018153
v 0.01021750 0.08549683 0.14018151
v 0.01043331 0.08552538 0.14018151
v 0.01284553 0.08789812 0.14018153
v 0.01263766 0.08552594 0.14018148
v 0.01258718 0.08554151 0.14018148
v 0.01210984 0.08609151 0.14018150
v 0.01053057 0.08836299 0.14018157
v 0.01072303 0.08845730 0.14018157
v 0.01096960 0.08779696 0.14018154
v 0.01231442 0.08846767 0.14018154
v 0.01236140 0.08845284 0.14018154
v 0.01273262 0.08817463 0.14018153
v 0.01276295 0.08812721 0.14018153
v 0.01283629 0.08794475 0.14018153
v 0.01240022 0.08563638 0.14018148
v 0.01235071 0.08567416 0.14018148
v 0.01221498 0.08582481 0.14018150
v 0.01075655 0.08846753 0.14018157
v 0.01096947 0.08849697 0.14018156
v 0.01210091 0.08849718 0.14018154
v 0.01255118 0.08835559 0.14018154
v 0.01259245 0.08832450 0.14018154
v 0.01021706 0.08779682 0.14018156
v 0.01024659 0.08798905 0.14018156
v 0.01025500 0.08801412 0.14018156
v 0.01094040 0.08600115 0.14018151
v 0.01093179 0.08597508 0.14018151
v 0.01083791 0.08579816 0.14018151
v 0.01218807 0.08586864 0.14018150
v 0.01211694 0.08605433 0.14018150
v 0.01036192 0.08820663 0.14018157
v 0.01044098 0.08829213 0.14018157
v 0.01096990 0.08619697 0.14018151
v 0.01012451 0.08619677 0.14236335
v 0.00995029 0.08619674 0.14236335
v 0.00995042 0.08549673 0.14236334
v 0.01012899 0.08787318 0.14236338
v 0.01012420 0.08779676 0.14236338
v 0.01090124 0.08779691 0.14236337
v 0.01012464 0.08549677 0.14236334
v 0.01034789 0.08552499 0.14236334
v 0.01040975 0.08554371 0.14236332
v 0.01090154 0.08619691 0.14236334
v 0.01089634 0.08611488 0.14236334
v 0.01068200 0.08846729 0.14236338
v 0.01062678 0.08845004 0.14236338
v 0.01043268 0.08835143 0.14236338
v 0.01038358 0.08831460 0.14236338
v 0.01024331 0.08816458 0.14236338
v 0.01020683 0.08810661 0.14236338
v 0.01013806 0.08792629 0.14236338
v 0.01059915 0.08563889 0.14236332
v 0.01066185 0.08568715 0.14236332
v 0.01079492 0.08583908 0.14236332
v 0.01090110 0.08849692 0.14236338
v 0.01082513 0.08589064 0.14236334
v 0.01089022 0.08607621 0.14236334
v 0.01112317 0.08779698 0.14090726
v 0.01109994 0.08779696 0.14164869
v 0.01096904 0.08619693 0.14218412
v 0.01104362 0.08619698 0.14043187
v 0.01113128 0.08619698 0.14101714
v 0.01110611 0.08619697 0.14160842
v 0.00602019 0.08549602 0.14018157
v 0.00602006 0.08619603 0.14018159
v 0.00643253 0.08619612 0.13960278
v 0.00643266 0.08549611 0.13960277
v 0.00700496 0.08619624 0.13918151
v 0.00700510 0.08549623 0.13918149
v 0.00768024 0.08619636 0.13895981
v 0.00768037 0.08549637 0.13895980
v 0.00839098 0.08619650 0.13895980
v 0.00839111 0.08549650 0.13895978
v 0.00906626 0.08619662 0.13918148
v 0.00906639 0.08549663 0.13918146
v 0.00963870 0.08619673 0.13960274
v 0.00963884 0.08549672 0.13960272
v 0.00944786 0.08619662 0.14293316
v 0.00944800 0.08549663 0.14293316
v 0.00878445 0.08619650 0.14330330
v 0.00878458 0.08549649 0.14330329
v 0.00803567 0.08619635 0.14343156
v 0.00803581 0.08549635 0.14343154
v 0.00728689 0.08619621 0.14330332
v 0.00728702 0.08549621 0.14330330
v 0.00662347 0.08619609 0.14293320
v 0.00662360 0.08549609 0.14293319
v 0.00612103 0.08619601 0.14236341
v 0.00612116 0.08549600 0.14236340
v 0.01036453 0.08549684 0.14060113
v 0.01030680 0.08549681 0.14195773
v 0.01043239 0.08549685 0.14105426
v 0.01041291 0.08549684 0.14151201
v 0.00569163 0.08549596 0.14066678
v 0.00585402 0.08549599 0.14018159
v 0.00594680 0.08619597 0.14236341
v 0.00312451 0.08619543 0.14236344
v 0.00312899 0.08787184 0.14236349
v 0.00312420 0.08779543 0.14236347
v 0.00390124 0.08779558 0.14236347
v 0.00368200 0.08846595 0.14236349
v 0.00362678 0.08844871 0.14236349
v 0.00312464 0.08549543 0.14236344
v 0.00334789 0.08552366 0.14236343
v 0.00340975 0.08554237 0.14236343
v 0.00390154 0.08619558 0.14236344
v 0.00389634 0.08611354 0.14236344
v 0.00343268 0.08835009 0.14236349
v 0.00338358 0.08831327 0.14236349
v 0.00324331 0.08816325 0.14236349
v 0.00390110 0.08849558 0.14236349
v 0.00320683 0.08810528 0.14236349
v 0.00313806 0.08792496 0.14236349
v 0.00359915 0.08563755 0.14236343
v 0.00366185 0.08568581 0.14236343
v 0.00379492 0.08583774 0.14236343
v 0.00382513 0.08588930 0.14236343
v 0.00389022 0.08607487 0.14236344
v 0.00382274 0.08577695 0.14018162
v 0.00367355 0.08563633 0.14018162
v 0.00321737 0.08619549 0.14018163
v 0.00584554 0.08789679 0.14018163
v 0.00563766 0.08552461 0.14018159
v 0.00558718 0.08554018 0.14018159
v 0.00365323 0.08562253 0.14018162
v 0.00350855 0.08554862 0.14018162
v 0.00346162 0.08553231 0.14018162
v 0.00305132 0.08549546 0.14018162
v 0.00305119 0.08619546 0.14018163
v 0.00321750 0.08549549 0.14018162
v 0.00343331 0.08552404 0.14018162
v 0.00510984 0.08609018 0.14018160
v 0.00353057 0.08836166 0.14018166
v 0.00372303 0.08845597 0.14018166
v 0.00396960 0.08779563 0.14018165
v 0.00531442 0.08846633 0.14018165
v 0.00536140 0.08845150 0.14018165
v 0.00321706 0.08779549 0.14018166
v 0.00324659 0.08798771 0.14018166
v 0.00325500 0.08801278 0.14018166
v 0.00394040 0.08599982 0.14018162
v 0.00393179 0.08597375 0.14018162
v 0.00383791 0.08579683 0.14018162
v 0.00375655 0.08846620 0.14018166
v 0.00396947 0.08849563 0.14018166
v 0.00510091 0.08849585 0.14018165
v 0.00555118 0.08835425 0.14018163
v 0.00559245 0.08832317 0.14018163
v 0.00573262 0.08817329 0.14018163
v 0.00336192 0.08820529 0.14018166
v 0.00344098 0.08829080 0.14018166
v 0.00396990 0.08619563 0.14018162
v 0.00576295 0.08812588 0.14018163
v 0.00583629 0.08794341 0.14018163
v 0.00540022 0.08563504 0.14018159
v 0.00535071 0.08567283 0.14018159
v 0.00521498 0.08582348 0.14018160
v 0.00518807 0.08586731 0.14018160
v 0.00511694 0.08605300 0.14018160
v 0.00412317 0.08779565 0.14090736
v 0.00409994 0.08779563 0.14164878
v 0.00396904 0.08619560 0.14218423
v 0.00404362 0.08619565 0.14043196
v 0.00413128 0.08619565 0.14101724
v 0.00410611 0.08619563 0.14160851
v -0.00097981 0.08549469 0.14018168
v -0.00097994 0.08619469 0.14018169
v -0.00056747 0.08619478 0.13960288
v -0.00056734 0.08549478 0.13960287
v 0.00000496 0.08619490 0.13918161
v 0.00000510 0.08549490 0.13918160
v 0.00068024 0.08619503 0.13895991
v 0.00068037 0.08549503 0.13895990
v 0.00139098 0.08619517 0.13895990
v 0.00139111 0.08549517 0.13895988
v 0.00206626 0.08619529 0.13918158
v 0.00206639 0.08549529 0.13918157
v 0.00263870 0.08619539 0.13960284
v 0.00263884 0.08549539 0.13960283
v -0.00321424 0.08549426 0.14018171
v -0.00321421 0.08549423 0.14236353
v -0.00364725 0.08549418 0.14043172
v -0.00346424 0.08549422 0.14024870
v -0.00371424 0.08549416 0.14068171
v -0.00371422 0.08549414 0.14186354
v -0.00364723 0.08549415 0.14211354
v -0.00346421 0.08549418 0.14229655
v 0.00336453 0.08549551 0.14060123
v 0.00343239 0.08549552 0.14105436
v 0.00330679 0.08549547 0.14195783
v 0.00341291 0.08549550 0.14151211
v -0.00321434 0.08619422 0.14236355
v -0.00321438 0.08619427 0.14018172
v -0.00364736 0.08619415 0.14211355
v -0.00346434 0.08619418 0.14229655
v -0.00371435 0.08619414 0.14186355
v -0.00371437 0.08619417 0.14068173
v -0.00364738 0.08619418 0.14043173
v -0.00346437 0.08619422 0.14024872
v 0.00391867 0.08592771 0.14216699
v 0.00377513 0.08570059 0.14211792
v 0.00356027 0.08554880 0.14204447
v 0.00399197 0.08592775 0.14044484
v 0.00384477 0.08570063 0.14048153
v 0.00362445 0.08554885 0.14053646
v 0.00369989 0.08554885 0.14104015
v 0.00367823 0.08554883 0.14154901
v 0.00392663 0.08570064 0.14102811
v 0.00390313 0.08570062 0.14158027
v 0.00407812 0.08592776 0.14102006
v 0.00405339 0.08592775 0.14160118
v 0.00505988 0.08592796 0.14052808
v 0.00542997 0.08554919 0.14060934
v 0.00520813 0.08570089 0.14056063
v 0.01091867 0.08592904 0.14216688
v 0.01077513 0.08570192 0.14211781
v 0.01056027 0.08555014 0.14204437
v 0.01099197 0.08592909 0.14044474
v 0.01084477 0.08570196 0.14048143
v 0.01062445 0.08555018 0.14053635
v 0.01069988 0.08555018 0.14104004
v 0.01067823 0.08555017 0.14154890
v 0.01092663 0.08570197 0.14102800
v 0.01090313 0.08570196 0.14158016
v 0.01107812 0.08592910 0.14101996
v 0.01105339 0.08592908 0.14160107
v 0.01205988 0.08592929 0.14052798
v 0.01242997 0.08555052 0.14060923
v 0.01220813 0.08570223 0.14056052
v 0.01791867 0.08593038 0.14216679
v 0.01777513 0.08570325 0.14211771
v 0.01756027 0.08555147 0.14204426
v 0.01799197 0.08593042 0.14044464
v 0.01784477 0.08570330 0.14048132
v 0.01762445 0.08555152 0.14053625
v 0.01769988 0.08555152 0.14103994
v 0.01767823 0.08555150 0.14154880
v 0.01792663 0.08570331 0.14102790
v 0.01790313 0.08570329 0.14158008
v 0.01807812 0.08593043 0.14101985
v 0.01805338 0.08593041 0.14160097
v 0.01905988 0.08593062 0.14052789
v 0.01942997 0.08555186 0.14060913
v 0.01920813 0.08570356 0.14056042
f 1 2 3
f 1 3 4
f 4 3 5
f 4 5 6
f 6 5 7
f 6 7 8
f 8 7 9
f 8 9 10
f 10 9 11
f 10 11 12
f 12 11 13
f 12 13 14
f 13 479 14
f 14 479 468
f 468 479 482
f 468 482 474
f 474 482 481
f 474 481 473
f 473 481 483
f 473 483 472
f 483 484 472
f 472 484 471
f 485 471 484
f 485 469 471
f 486 469 485
f 486 470 469
f 480 470 486
f 480 467 470
f 454 467 480
f 453 467 454
f 453 454 455
f 453 455 456
f 456 455 457
f 456 457 458
f 458 457 459
f 458 459 460
f 460 459 461
f 460 461 462
f 462 461 463
f 462 463 464
f 464 463 465
f 464 465 466
f 466 465 416
f 466 416 415
f 415 416 417
f 417 416 408
f 417 408 418
f 418 408 414
f 408 413 414
f 408 412 413
f 407 412 408
f 406 407 408
f 407 406 491
f 491 406 430
f 430 490 491
f 430 429 490
f 490 429 428
f 428 429 408
f 408 439 428
f 428 439 450
f 439 422 450
f 450 422 447
f 450 447 451
f 490 450 451
f 490 451 497
f 497 451 452
f 497 452 498
f 498 452 449
f 498 449 487
f 487 449 394
f 449 393 394
f 387 393 449
f 387 386 393
f 385 386 387
f 387 400 385
f 387 399 400
f 397 399 387
f 387 396 397
f 387 395 396
f 389 395 387
f 388 389 387
f 387 398 388
f 387 113 398
f 158 113 387
f 158 112 113
f 111 112 158
f 110 111 158
f 158 109 110
f 158 108 109
f 107 108 158
f 158 106 107
f 158 105 106
f 383 105 158
f 158 63 383
f 383 63 65
f 383 65 67
f 65 66 67
f 67 66 68
f 68 66 69
f 68 69 70
f 70 69 71
f 71 69 72
f 82 72 69
f 80 72 82
f 80 75 72
f 78 75 80
f 79 78 80
f 79 80 81
f 501 79 81
f 501 81 499
f 499 445 501
f 445 444 501
f 501 444 443
f 114 443 444
f 114 442 443
f 411 442 114
f 114 410 411
f 114 382 410
f 351 382 114
f 114 352 351
f 351 352 353
f 351 353 354
f 354 353 355
f 354 355 356
f 356 355 357
f 356 357 358
f 358 357 359
f 358 359 360
f 360 359 361
f 360 361 362
f 362 361 363
f 362 363 364
f 364 363 287
f 364 287 286
f 286 287 288
f 288 287 282
f 288 282 289
f 289 282 285
f 282 284 285
f 282 283 284
f 281 283 282
f 280 281 282
f 281 280 506
f 506 280 315
f 315 505 506
f 315 314 505
f 282 314 315
f 313 314 282
f 282 320 313
f 313 320 348
f 320 296 348
f 348 296 345
f 348 345 349
f 349 345 346
f 349 346 350
f 350 346 347
f 513 350 347
f 513 347 502
f 502 347 331
f 347 330 331
f 326 330 347
f 326 325 330
f 324 325 326
f 326 338 324
f 326 337 338
f 336 337 326
f 326 335 336
f 326 334 335
f 333 334 326
f 332 333 326
f 326 342 332
f 326 104 342
f 155 104 326
f 155 103 104
f 102 103 155
f 101 102 155
f 155 100 101
f 155 99 100
f 98 99 155
f 155 97 98
f 155 96 97
f 279 96 155
f 155 39 279
f 39 155 40
f 39 40 41
f 41 40 42
f 62 42 40
f 60 42 62
f 60 45 42
f 58 45 60
f 59 58 60
f 59 60 61
f 167 59 61
f 514 59 167
f 293 514 167
f 293 167 166
f 166 116 293
f 116 317 293
f 116 316 317
f 317 316 514
f 514 316 516
f 316 304 516
f 516 304 303
f 116 303 304
f 116 302 303
f 292 302 116
f 116 291 292
f 116 274 291
f 247 274 116
f 116 248 247
f 247 248 249
f 247 249 250
f 250 249 251
f 250 251 252
f 252 251 253
f 252 253 254
f 254 253 255
f 254 255 256
f 256 255 257
f 256 257 258
f 258 257 259
f 258 259 260
f 260 259 207
f 260 207 206
f 206 207 208
f 208 207 202
f 208 202 209
f 209 202 205
f 202 204 205
f 202 203 204
f 201 203 202
f 200 201 202
f 201 200 521
f 521 200 230
f 230 520 521
f 230 229 520
f 520 229 228
f 228 229 202
f 202 238 228
f 228 238 244
f 238 216 244
f 244 216 241
f 244 241 245
f 245 241 242
f 245 242 246
f 527 245 246
f 527 246 528
f 528 246 243
f 528 243 517
f 517 243 185
f 243 184 185
f 184 179 185
f 179 199 185
f 179 198 199
f 197 198 179
f 518 198 197
f 518 517 198
f 526 517 518
f 524 526 518
f 524 518 519
f 519 518 196
f 519 196 195
f 195 188 519
f 278 519 188
f 278 188 187
f 187 186 278
f 181 278 186
f 181 277 278
f 276 277 181
f 181 275 276
f 275 523 276
f 276 523 524
f 275 522 523
f 205 522 275
f 275 209 205
f 208 209 275
f 205 204 522
f 522 204 203
f 522 203 201
f 522 525 523
f 522 521 525
f 521 527 525
f 523 525 526
f 525 528 526
f 181 208 275
f 206 208 181
f 262 206 181
f 262 266 206
f 260 206 266
f 266 258 260
f 266 256 258
f 254 256 266
f 266 252 254
f 266 250 252
f 247 250 266
f 266 268 247
f 247 268 270
f 247 270 272
f 272 52 247
f 247 52 51
f 50 51 52
f 50 48 51
f 49 48 50
f 47 48 49
f 47 49 279
f 50 279 49
f 52 279 50
f 52 271 279
f 272 271 52
f 270 271 272
f 270 269 271
f 268 269 270
f 268 267 269
f 266 267 268
f 266 265 267
f 264 265 266
f 264 263 265
f 262 263 264
f 262 261 263
f 181 261 262
f 181 180 261
f 179 180 181
f 181 186 179
f 179 186 187
f 179 187 188
f 279 46 47
f 46 45 47
f 44 45 46
f 279 44 46
f 43 44 279
f 43 42 44
f 279 41 43
f 47 45 48
f 56 51 48
f 56 48 58
f 57 56 58
f 55 56 57
f 516 55 57
f 515 55 516
f 515 53 55
f 273 53 515
f 247 53 273
f 54 53 247
f 247 273 274
f 273 291 274
f 273 292 291
f 515 292 273
f 515 302 292
f 515 303 302
f 53 54 55
f 55 54 56
f 54 51 56
f 247 51 54
f 264 266 262
f 276 524 277
f 277 519 278
f 188 195 179
f 179 195 196
f 277 524 519
f 523 526 524
f 197 196 518
f 179 196 197
f 199 198 517
f 184 177 179
f 178 177 184
f 176 177 178
f 178 194 176
f 178 193 194
f 191 193 178
f 178 190 191
f 178 189 190
f 183 189 178
f 182 183 178
f 178 192 182
f 178 95 192
f 152 95 178
f 152 94 95
f 93 94 152
f 92 93 152
f 152 91 92
f 152 90 91
f 89 90 152
f 152 88 89
f 152 87 88
f 175 87 152
f 152 15 175
f 175 15 17
f 175 17 19
f 19 20 175
f 19 18 20
f 20 18 21
f 20 21 22
f 22 21 23
f 23 21 24
f 34 24 21
f 32 24 34
f 32 27 24
f 30 27 32
f 31 30 32
f 31 32 33
f 531 31 33
f 531 33 529
f 529 239 531
f 239 235 531
f 531 235 234
f 118 234 235
f 118 233 234
f 213 233 118
f 118 212 213
f 118 174 212
f 120 174 118
f 118 121 120
f 120 121 122
f 120 122 123
f 123 122 124
f 123 124 125
f 125 124 126
f 125 126 127
f 127 126 128
f 127 128 129
f 129 128 130
f 129 130 131
f 131 130 132
f 131 132 133
f 133 132 134
f 133 134 135
f 135 134 136
f 135 136 137
f 137 136 138
f 137 138 139
f 139 138 140
f 139 140 141
f 141 140 142
f 141 142 143
f 143 142 144
f 143 144 145
f 145 144 146
f 145 146 147
f 147 146 148
f 147 148 149
f 149 148 150
f 149 150 151
f 151 150 28
f 28 150 175
f 28 175 26
f 26 175 25
f 23 25 175
f 531 234 530
f 530 234 233
f 530 233 213
f 530 213 173
f 173 29 530
f 530 29 31
f 120 29 173
f 30 29 120
f 120 173 174
f 173 212 174
f 173 213 212
f 235 239 118
f 118 239 240
f 118 240 211
f 170 118 211
f 170 119 118
f 169 119 170
f 169 170 171
f 169 171 172
f 172 171 37
f 171 35 37
f 529 35 171
f 211 529 171
f 35 36 37
f 37 36 38
f 36 18 38
f 38 18 16
f 17 16 18
f 16 153 38
f 16 152 153
f 38 153 154
f 38 154 37
f 35 34 36
f 33 34 35
f 172 37 154
f 210 119 169
f 169 232 210
f 169 231 232
f 224 231 169
f 169 223 224
f 169 222 223
f 218 222 169
f 217 218 169
f 169 221 217
f 169 220 221
f 216 220 169
f 216 219 220
f 215 219 216
f 214 215 216
f 216 237 214
f 216 236 237
f 227 236 216
f 216 226 227
f 225 226 216
f 225 216 202
f 211 171 170
f 240 529 211
f 240 239 529
f 529 33 35
f 530 31 531
f 29 30 31
f 120 27 30
f 120 28 27
f 26 27 28
f 151 28 120
f 149 151 120
f 120 147 149
f 120 145 147
f 123 145 120
f 123 143 145
f 141 143 123
f 123 125 141
f 141 125 127
f 141 127 129
f 129 133 141
f 129 131 133
f 141 133 137
f 133 135 137
f 141 137 139
f 26 24 27
f 25 24 26
f 33 32 34
f 34 21 36
f 23 24 25
f 175 22 23
f 36 21 18
f 175 20 22
f 17 18 19
f 15 16 17
f 15 152 16
f 178 184 243
f 178 243 242
f 517 185 199
f 526 528 517
f 525 527 528
f 520 245 527
f 246 242 243
f 520 244 245
f 202 216 238
f 228 244 520
f 202 229 230
f 521 520 527
f 201 521 522
f 202 230 200
f 516 303 515
f 516 57 514
f 304 316 116
f 166 117 116
f 165 117 166
f 290 117 165
f 165 301 290
f 165 300 301
f 299 300 165
f 165 309 299
f 165 308 309
f 298 308 165
f 297 298 165
f 165 307 297
f 165 306 307
f 296 306 165
f 296 305 306
f 295 305 296
f 294 295 296
f 296 319 294
f 296 318 319
f 312 318 296
f 296 311 312
f 310 311 296
f 310 296 282
f 165 166 167
f 165 167 168
f 317 514 293
f 514 57 59
f 168 167 61
f 168 61 157
f 62 157 61
f 62 156 157
f 57 58 59
f 58 48 45
f 44 42 45
f 61 60 62
f 40 156 62
f 41 42 43
f 40 155 156
f 279 39 41
f 330 325 321
f 330 321 331
f 321 344 331
f 321 343 344
f 344 343 502
f 503 502 343
f 511 502 503
f 509 511 503
f 509 503 504
f 504 503 340
f 504 340 339
f 339 329 504
f 378 504 329
f 378 329 328
f 328 327 378
f 323 378 327
f 323 286 378
f 286 380 378
f 286 379 380
f 377 379 286
f 377 508 379
f 377 507 508
f 285 507 377
f 377 289 285
f 288 289 377
f 285 284 507
f 507 284 283
f 507 283 281
f 507 510 508
f 507 506 510
f 506 512 510
f 510 512 513
f 510 513 511
f 508 510 511
f 379 508 509
f 286 288 377
f 379 509 380
f 366 286 323
f 366 370 286
f 368 370 366
f 362 286 370
f 362 370 360
f 360 370 358
f 354 358 370
f 354 370 351
f 351 370 372
f 351 372 376
f 376 76 351
f 351 76 75
f 74 75 76
f 376 372 374
f 356 358 354
f 364 286 362
f 380 504 378
f 329 339 321
f 321 328 329
f 321 327 328
f 323 327 321
f 321 322 323
f 323 322 365
f 323 365 366
f 366 365 367
f 366 367 368
f 368 367 369
f 368 369 370
f 370 369 371
f 370 371 372
f 372 371 373
f 372 373 374
f 374 373 375
f 374 375 376
f 376 375 76
f 76 375 383
f 76 383 74
f 74 383 73
f 71 73 383
f 321 339 340
f 321 340 341
f 341 340 503
f 380 509 504
f 508 511 509
f 503 343 341
f 341 343 321
f 502 331 344
f 511 513 502
f 512 350 513
f 326 347 346
f 512 349 350
f 505 349 512
f 505 348 349
f 313 348 505
f 282 296 320
f 505 314 313
f 506 505 512
f 281 506 507
f 282 315 280
f 501 443 500
f 500 443 442
f 500 442 411
f 500 411 381
f 381 77 500
f 500 77 79
f 351 77 381
f 78 77 351
f 351 381 382
f 381 410 382
f 381 411 410
f 444 445 114
f 114 445 446
f 114 446 419
f 162 114 419
f 419 163 162
f 161 162 163
f 161 163 164
f 164 163 85
f 163 83 85
f 499 83 163
f 83 84 85
f 85 84 86
f 86 160 85
f 86 159 160
f 64 159 86
f 86 66 64
f 64 158 159
f 84 66 86
f 83 82 84
f 81 82 83
f 164 85 160
f 161 115 162
f 409 115 161
f 161 441 409
f 161 440 441
f 436 440 161
f 161 435 436
f 161 434 435
f 424 434 161
f 423 424 161
f 161 433 423
f 161 432 433
f 422 432 161
f 422 431 432
f 421 431 422
f 420 421 422
f 422 438 420
f 422 437 438
f 427 437 422
f 422 426 427
f 425 426 422
f 425 422 408
f 419 499 163
f 162 115 114
f 446 499 419
f 446 445 499
f 499 81 83
f 500 79 501
f 77 78 79
f 351 75 78
f 74 72 75
f 73 72 74
f 81 80 82
f 82 69 84
f 71 72 73
f 383 70 71
f 383 68 70
f 84 69 66
f 65 64 66
f 67 68 383
f 63 64 65
f 63 158 64
f 393 386 384
f 387 449 448
f 393 384 394
f 384 405 394
f 384 404 405
f 405 404 487
f 488 487 404
f 496 487 488
f 494 496 488
f 494 488 489
f 489 488 402
f 489 402 401
f 401 392 489
f 392 401 384
f 384 391 392
f 384 390 391
f 1 390 384
f 384 401 402
f 384 402 403
f 477 489 392
f 477 392 391
f 391 390 477
f 390 1 477
f 477 1 415
f 1 4 415
f 415 4 8
f 415 8 466
f 466 8 462
f 8 460 462
f 8 458 460
f 456 458 8
f 8 453 456
f 10 453 8
f 10 14 453
f 12 14 10
f 453 14 467
f 467 14 468
f 472 467 468
f 472 468 473
f 473 468 474
f 471 467 472
f 471 470 467
f 469 470 471
f 466 462 464
f 4 6 8
f 477 415 478
f 478 415 476
f 415 475 476
f 475 493 476
f 475 492 493
f 414 492 475
f 475 418 414
f 417 418 475
f 414 413 492
f 492 413 412
f 492 412 407
f 492 495 493
f 492 491 495
f 491 497 495
f 493 495 496
f 495 498 496
f 476 493 494
f 417 475 415
f 476 494 478
f 478 489 477
f 403 402 488
f 478 494 489
f 493 496 494
f 488 404 403
f 403 404 384
f 487 394 405
f 496 498 487
f 452 448 449
f 495 497 498
f 451 448 452
f 451 447 448
f 408 422 439
f 428 450 490
f 408 429 430
f 491 490 497
f 407 491 492
f 408 430 406
f 384 2 1
f 241 216 169
f 172 241 169
f 154 241 172
f 154 242 241
f 153 242 154
f 153 178 242
f 152 178 153
f 345 296 165
f 168 345 165
f 157 345 168
f 157 346 345
f 156 346 157
f 156 326 346
f 155 326 156
f 447 422 161
f 164 447 161
f 160 447 164
f 160 448 447
f 159 448 160
f 159 387 448
f 158 387 159

