# https://github.com/mikedh/trimesh
v -0.02383820 0.02666803 -0.01500006
v -0.03342444 0.02628826 -0.01500006
v -0.03845874 -0.02530391 -0.01500006
v -0.03775157 0.02557813 -0.01500006
v -0.03994915 -0.02488790 -0.01500006
v -0.04575018 -0.02240134 -0.01500007
v -0.03170149 -0.02634323 -0.01500007
v -0.02485796 -0.02656065 -0.01500006
v 0.00141363 0.02715695 -0.01500005
v 0.00358186 -0.02713463 -0.01500007
v 0.01471815 0.02828533 -0.01500006
v 0.01689289 -0.02846741 -0.01500005
v 0.01689361 0.02857015 -0.01500005
v 0.02781039 -0.02988516 -0.01500005
v 0.02917876 0.03013266 -0.01500006
v 0.03855659 -0.03044237 -0.01500007
v 0.04017891 0.03049573 -0.01500006
v 0.05226536 -0.02952037 -0.01500007
v 0.05977842 0.02905719 -0.01500007
v -0.05855028 -0.00309965 -0.01500006
v -0.05707343 -0.00920189 -0.01500006
v -0.05873844 0.00005232 -0.01500007
v -0.04194141 0.02431136 -0.01500007
v -0.04734925 0.02152146 -0.01500005
v 0.08126741 0.02681044 -0.01500006
v 0.07909388 -0.02698776 -0.01500005
v 0.08874167 0.02554026 -0.01500006
v 0.08902650 -0.02537395 -0.01500006
v 0.09573127 0.02327351 -0.01500005
v 0.09584345 -0.02312386 -0.01500007
v 0.10137850 0.02021379 -0.01500006
v -0.05433789 -0.01455635 -0.01500005
v -0.05057526 -0.01892891 -0.01500006
v -0.05198435 0.01763785 -0.01500005
v -0.05568939 0.01239807 -0.01500005
v -0.05796609 0.00640379 -0.01500006
v 0.10210159 -0.01961387 -0.01500005
v 0.10659183 -0.01568555 -0.01500006
v 0.10613936 0.01626542 -0.01500007
v 0.10973182 -0.01145230 -0.01500005
v 0.11201829 -0.00596483 -0.01500007
v 0.11279067 0.00005017 -0.01500005
v 0.11214413 0.00557205 -0.01500006
v 0.10988453 0.01128710 -0.01500006
f 1 2 3
f 3 7 1
f 1 7 8
f 1 8 9
f 9 8 10
f 9 10 11
f 11 10 12
f 11 12 13
f 13 12 14
f 13 14 15
f 15 14 16
f 15 16 17
f 17 16 18
f 17 18 19
f 19 18 25
f 25 18 26
f 25 26 27
f 27 26 28
f 27 28 29
f 29 28 30
f 29 30 31
f 30 37 31
f 31 37 38
f 31 38 39
f 39 38 40
f 39 40 41
f 41 42 39
f 39 42 43
f 39 43 44
f 3 2 4
f 3 4 5
f 5 4 6
f 4 33 6
f 4 32 33
f 21 32 4
f 4 20 21
f 20 4 22
f 22 4 23
f 22 23 24
f 24 36 22
f 24 35 36
f 34 35 24

