# File exported by Houdini 21.0.559 (www.sidefx.com)
# 80 points
# 240 vertices
# 42 primitives
# Bounds: [-0.0291250627, -0.0356133729, -0.00999999978] to [-0.0227250624, -0.0292133745, 0.00999999978]
g 
v -0.0227250624 -0.0324133746 0.00999999978
v -0.0227644593 -0.031912785 0.00999999978
v -0.0228816811 -0.0314245187 0.00999999978
v -0.0230738409 -0.0309606045 0.00999999978
v -0.0233362075 -0.0305324625 0.00999999978
v -0.0236623213 -0.0301506333 0.00999999978
v -0.0240441505 -0.0298245195 0.00999999978
v -0.0244722925 -0.0295621529 0.00999999978
v -0.0249362085 -0.0293699931 0.00999999978
v -0.025424473 -0.0292527713 0.00999999978
v -0.0259250626 -0.0292133745 0.00999999978
v -0.0264256522 -0.0292527713 0.00999999978
v -0.0269139167 -0.029369995 0.00999999978
v -0.0273778327 -0.0295621548 0.00999999978
v -0.0278059747 -0.0298245195 0.00999999978
v -0.0281878039 -0.0301506333 0.00999999978
v -0.0285139177 -0.0305324625 0.00999999978
v -0.0287762843 -0.0309606045 0.00999999978
v -0.0289684441 -0.0314245224 0.00999999978
v -0.0290856659 -0.031912785 0.00999999978
v -0.0291250627 -0.0324133746 0.00999999978
v -0.0290856659 -0.0329139642 0.00999999978
v -0.0289684441 -0.0334022306 0.00999999978
v -0.0287762843 -0.0338661447 0.00999999978
v -0.0285139158 -0.0342942886 0.00999999978
v -0.0281878039 -0.034676116 0.00999999978
v -0.0278059747 -0.0350022279 0.00999999978
v -0.0273778308 -0.0352645963 0.00999999978
v -0.0269139167 -0.0354567543 0.00999999978
v -0.0264256522 -0.035573978 0.00999999978
v -0.0259250626 -0.0356133729 0.00999999978
v -0.025424473 -0.035573978 0.00999999978
v -0.0249362085 -0.0354567543 0.00999999978
v -0.0244722925 -0.0352645963 0.00999999978
v -0.0240441486 -0.0350022279 0.00999999978
v -0.0236623213 -0.034676116 0.00999999978
v -0.0233362075 -0.0342942849 0.00999999978
v -0.0230738409 -0.0338661447 0.00999999978
v -0.0228816811 -0.0334022306 0.00999999978
v -0.0227644593 -0.0329139642 0.00999999978
v -0.0227250624 -0.0324133746 -0.00999999978
v -0.0227644593 -0.031912785 -0.00999999978
v -0.0228816811 -0.0314245187 -0.00999999978
v -0.0230738409 -0.0309606045 -0.00999999978
v -0.0233362075 -0.0305324625 -0.00999999978
v -0.0236623213 -0.0301506333 -0.00999999978
v -0.0240441505 -0.0298245195 -0.00999999978
v -0.0244722925 -0.0295621529 -0.00999999978
v -0.0249362085 -0.0293699931 -0.00999999978
v -0.025424473 -0.0292527713 -0.00999999978
v -0.0259250626 -0.0292133745 -0.00999999978
v -0.0264256522 -0.0292527713 -0.00999999978
v -0.0269139167 -0.029369995 -0.00999999978
v -0.0273778327 -0.0295621548 -0.00999999978
v -0.0278059747 -0.0298245195 -0.00999999978
v -0.0281878039 -0.0301506333 -0.00999999978
v -0.0285139177 -0.0305324625 -0.00999999978
v -0.0287762843 -0.0309606045 -0.00999999978
v -0.0289684441 -0.0314245224 -0.00999999978
v -0.0290856659 -0.031912785 -0.00999999978
v -0.0291250627 -0.0324133746 -0.00999999978
v -0.0290856659 -0.0329139642 -0.00999999978
v -0.0289684441 -0.0334022306 -0.00999999978
v -0.0287762843 -0.0338661447 -0.00999999978
v -0.0285139158 -0.0342942886 -0.00999999978
v -0.0281878039 -0.034676116 -0.00999999978
v -0.0278059747 -0.0350022279 -0.00999999978
v -0.0273778308 -0.0352645963 -0.00999999978
v -0.0269139167 -0.0354567543 -0.00999999978
v -0.0264256522 -0.035573978 -0.00999999978
v -0.0259250626 -0.0356133729 -0.00999999978
v -0.025424473 -0.035573978 -0.00999999978
v -0.0249362085 -0.0354567543 -0.00999999978
v -0.0244722925 -0.0352645963 -0.00999999978
v -0.0240441486 -0.0350022279 -0.00999999978
v -0.0236623213 -0.034676116 -0.00999999978
v -0.0233362075 -0.0342942849 -0.00999999978
v -0.0230738409 -0.0338661447 -0.00999999978
v -0.0228816811 -0.0334022306 -0.00999999978
v -0.0227644593 -0.0329139642 -0.00999999978
g 
f 40 1 2 3 4 5 6 7 8 9 10 11 12 13 14 15 16 17 18 19 20 21 22 23 24 25 26 27 28 29 30 31 32 33 34 35 36 37 38 39
f 41 80 79 78 77 76 75 74 73 72 71 70 69 68 67 66 65 64 63 62 61 60 59 58 57 56 55 54 53 52 51 50 49 48 47 46 45 44 43 42
f 1 41 42 2
f 2 42 43 3
f 3 43 44 4
f 4 44 45 5
f 5 45 46 6
f 6 46 47 7
f 7 47 48 8
f 8 48 49 9
f 9 49 50 10
f 10 50 51 11
f 11 51 52 12
f 12 52 53 13
f 13 53 54 14
f 14 54 55 15
f 15 55 56 16
f 16 56 57 17
f 17 57 58 18
f 18 58 59 19
f 19 59 60 20
f 20 60 61 21
f 21 61 62 22
f 22 62 63 23
f 23 63 64 24
f 24 64 65 25
f 25 65 66 26
f 26 66 67 27
f 27 67 68 28
f 28 68 69 29
f 29 69 70 30
f 30 70 71 31
f 31 71 72 32
f 32 72 73 33
f 33 73 74 34
f 34 74 75 35
f 35 75 76 36
f 36 76 77 37
f 37 77 78 38
f 38 78 79 39
f 39 79 80 40
f 40 80 41 1
