#
# File generated by Libuipc
# Vertices 114
# Edges 114
# Faces 0
#
v -0.0063114509196326935 0.15191237414323464 0.002857073209501335
v -0.006055621853996564 0.14993976570383316 0.0028857892139347203
v -0.0058203377273484775 0.14796460343570533 0.0029134404537841806
v -0.0055927173106989575 0.14598851961343354 0.00294074538625071
v -0.00534400539618894 0.14401474678296422 0.0029652770179480663
v -0.005102437602466167 0.14203960723031164 0.0029878239462117462
v -0.004816049564146238 0.14007108662471202 0.0030048152133570834
v -0.004539212886558507 0.13810116700311065 0.0030197056417434723
v -0.004338283762481021 0.1361222293489902 0.0030492489810088745
v -0.004825929613352075 0.13421432441196374 0.00333121750128815
v -0.004629050473681442 0.13223563283133155 0.0033893463880389856
v -0.004352884318118174 0.13026557029553817 0.00339215937690703
v -0.004017859690725035 0.1283043333116274 0.0033849458102812773
v -0.00374549707091099 0.12633374968965821 0.003359469044493791
v -0.0034764637935886127 0.12436225402034964 0.0033163289785454486
v -0.003268143138929374 0.12238391031127879 0.003303187312777783
v -0.0034977417398635684 0.12045084677154969 0.0028925702809768934
v -0.0037545360645276035 0.11873752924391306 0.0019148008488243666
v -0.0037215220555347995 0.11683449545488846 0.001336198879739659
v -0.003429493095005925 0.11486804965572198 0.0012644918496976447
v -0.0032297538973161217 0.11289014449850455 0.0013377882997209554
v -0.0031491927238886113 0.11090351912027943 0.001402706197697968
v -0.002939290838355349 0.1089255990993481 0.0013646742999416418
v -0.0026696792996246804 0.10695509765764392 0.0014072988262859012
v -0.002492001799066907 0.10497381399672127 0.0014259929251473457
v -0.0023134652190979744 0.10299284894430938 0.001462906741397538
v -0.0021285962828315208 0.10101243624000489 0.0014984233151711598
v -0.001937015918307821 0.0990327119057311 0.0015377329404478704
v -0.0017433428735939714 0.09705333372694712 0.0015830284999156557
v -0.0015271756985097212 0.09507566573741755 0.0016174746049482905
v -0.0012021956759595525 0.09311702534477342 0.0014923682776151318
v -0.0013668954598647068 0.09167994711316349 0.00012669695724827818
v -0.002513652375593529 0.09113560046938395 -0.0014049713034675814
v -0.004318350331180638 0.09030435516428097 -0.0013067693782400948
v -0.005061694166887968 0.08874983836233309 -0.00031257827488730805
v -0.004862513726693493 0.08695785186677196 0.0005279663038643338
v -0.00441000786850731 0.08510082202005279 0.0010793733327517608
v -0.0037111650036219163 0.08327170274618717 0.0014306089940555647
v -0.003395968062132555 0.08130771092381096 0.0014642183940642528
v -0.003453223514256669 0.07936469421024644 0.001041336448413337
v -0.003944434487842418 0.07755193777484747 0.00038549531174921354
v -0.003977352600305066 0.07561364984683973 -6.0952126763356887e-05
v -0.0036493441665346347 0.07365167879918606 -8.317048994060694e-05
v -0.0033931841256492315 0.07168023074798942 7.76419080475392e-06
v -0.003259202250641612 0.06970024656843375 0.0001466499855549257
v -0.002996513774833476 0.06774115545138083 0.0003710458267692312
v -0.0026935195527337447 0.06577521587668002 0.00039736977290061955
v -0.0024801226816479325 0.06379759539073551 0.00034487491151254167
v -0.0018346553462886572 0.06191649878330355 0.00039272545962725376
v -0.0016212658859422078 0.05994163662025329 0.0005011443112435095
v -0.0012940440109375185 0.05797940913361998 0.0005295993489726381
v -0.0012422666386896941 0.05599239227208186 0.00044760620116450343
v -0.0013983203929218775 0.05401171870091786 0.00034773824654114676
v -0.001086055860952639 0.05204726722988622 0.00037667908489942884
v -0.00106562805883438 0.05006072241821702 0.00047966402881206274
v -0.0017516282178875796 0.04819355165004398 0.0005059035218242141
v -0.0014973607684890167 0.04622056242916869 0.0005126614370818973
v -0.0011203670844472647 0.04426756924840163 0.00047982726608351064
v -0.0009196267025779037 0.042288679329923896 0.00044656029517515833
v -0.00074346647281002 0.040312196833028544 0.0003056239199770962
v -0.0003142733053008419 0.038369785040548256 0.0003204065257143786
v 2.4373806892218286e-05 0.03640905684272355 0.0003712442589455822
v 0.00030523089695763135 0.03443977843100473 0.0003924433244586959
v 0.0005653836840998619 0.03246756559167991 0.0004175176946290523
v 0.0008391181296082713 0.03049699254191408 0.00045462259910464525
v 0.0010966436601818875 0.02852473840950936 0.0004939830996624413
v 0.0013284032646434058 0.02654896529997542 0.0004998963296982084
v 0.001594158267699372 0.024577438171672204 0.000524131715146153
v 0.001862621063361007 0.022606504991367234 0.0005524357972063981
v 0.002187285330413208 0.02064387873828322 0.0005663797593066242
v 0.0025017080430551632 0.01867969561967392 0.0005905471828587015
v 0.002671556827596879 0.0166975934568301 0.0006077744740668708
v 0.002806725203623079 0.014711823266497734 0.0006046258490234759
v 0.002974823022892726 0.012729636843340615 0.0006147984505276927
v 0.003203321636557496 0.010751795005597779 0.0006553565838364969
v 0.0034398525233625805 0.008776697883312598 0.000676974328602625
v 0.0036790255155601686 0.006801924405922149 0.0006986990650280785
v 0.0038230509485406732 0.004818426988141658 0.0007490140269346842
v 0.003807150453538736 0.002845058411419524 0.0009999491769281188
v 0.0037581272743488995 0.0008714367662370415 0.0012452996327708297
v 0.003683085528870113 -0.0011097101393387735 0.0014091829228955004
v 0.0026523192278158437 -0.0027025571791956804 0.0013593790467163556
v 0.0009673041590435343 -0.0037592735897147233 0.0013997403596500994
v -0.0010197922956191353 -0.0036675072687758488 0.0014231856743309522
v -0.0028877409253731594 -0.0029891202068323885 0.00151233156030544
v -0.004155190501526918 -0.0015238795031296533 0.0019389285337812717
v -0.00435199363720131 0.00045429486403781243 0.0018644968660423535
v -0.0036382027919256445 0.002294181682886189 0.0016141521634543887
v -0.002100067252473425 0.003509518938824434 0.0012756645490226057
v -0.00029428786191454924 0.003493155100092455 0.0007511640036177645
v 0.0015372097238970856 0.002720051039804344 0.0006784135816766587
v 0.0029466706566405156 0.001318119309767799 0.0006043589417048672
v 0.003170925008625638 -0.0006566785126796943 0.0005190247629389995
v 0.0022637909932717803 -0.002313496511702636 0.0005197658437205847
v 0.0004929474398031696 -0.0032194196201863604 0.0005492095033482611
v -0.0014460132687041192 -0.002789070744792881 0.0006614644805846482
v -0.0032377700864041708 -0.001937911452269422 0.0008116980845904862
v -0.004635937288108573 -0.0005295677222344769 0.0009499879972869447
v -0.004523052679538779 0.0012920590944093242 0.0004052276978536657
v -0.003191270927045233 0.00035000811536811796 -0.0007333124397573805
v -0.0027158788258503223 -0.00158026827206233 -0.0006591336478231985
v -0.0012777376664338338 -0.0029530494447253365 -0.000591130074710721
v 0.0005715167355650184 -0.003171016627014338 -0.0005474821288830618
v 0.0023424259974299116 -0.0022657444412941524 -0.000504728460823157
v 0.00320047634617856 -0.0004712048580180137 -0.0004759690886412745
v 0.0027912349251130466 0.0014736685927611364 -0.0003896213503689898
v 0.0013762365759382809 0.0028701037204646746 -0.00031727855755068926
v -0.0001296789183641111 0.003152550601271663 -0.0002863679589466341
v -0.0023733962562294585 0.002907850911832624 -0.0010281997195691213
v -0.0036756458783007385 0.0015726977786630057 -0.0014327828520281564
v -0.004488782452409624 -4.47457136601999e-05 -0.001076231078019379
v -0.003587949332248631 -0.0004800773571181857 0.00027606753837865634
v -0.0028218169587395296 0.00124402500188826 0.0007333930736387871
v -0.0022599001084309257 0.002453541139012551 0.0007192294612215639
l 2 1
l 3 2
l 4 3
l 5 4
l 6 5
l 7 6
l 8 7
l 9 8
l 10 9
l 11 10
l 12 11
l 13 12
l 14 13
l 15 14
l 16 15
l 17 16
l 18 17
l 19 18
l 20 19
l 21 20
l 22 21
l 23 22
l 24 23
l 25 24
l 26 25
l 27 26
l 28 27
l 29 28
l 30 29
l 31 30
l 32 31
l 33 32
l 34 33
l 35 34
l 36 35
l 37 36
l 38 37
l 39 38
l 40 39
l 41 40
l 42 41
l 43 42
l 44 43
l 45 44
l 46 45
l 47 46
l 48 47
l 49 48
l 50 49
l 51 50
l 52 51
l 53 52
l 54 53
l 55 54
l 56 55
l 57 56
l 58 57
l 59 58
l 60 59
l 61 60
l 62 61
l 63 62
l 64 63
l 65 64
l 66 65
l 67 66
l 68 67
l 69 68
l 70 69
l 71 70
l 72 71
l 73 72
l 74 73
l 75 74
l 76 75
l 77 76
l 78 77
l 79 78
l 80 79
l 81 80
l 82 81
l 83 82
l 84 83
l 85 84
l 86 85
l 87 86
l 88 87
l 89 88
l 90 89
l 91 90
l 92 91
l 93 92
l 94 93
l 95 94
l 96 95
l 97 96
l 98 97
l 99 98
l 100 99
l 101 100
l 102 101
l 103 102
l 104 103
l 105 104
l 106 105
l 107 106
l 108 107
l 109 108
l 110 109
l 111 110
l 112 111
l 113 112
l 114 113
l 108 114
