# File exported by Houdini 20.5.445 (www.sidefx.com)
# 160 points
# 960 vertices
# 320 primitives
# Bounds: [-0.00319999992, -0.00319999992, -0.00180000009] to [0.00319999992, 0.00319999992, 0.00180000009]
g 
v 0.00319999992 0 0.00180000009
v 0.00316060265 -0.000500589958 0.00180000009
v 0.0030433808 -0.000988854212 0.00180000009
v 0.00285122078 -0.00145276962 0.00180000009
v 0.0025888551 -0.00188091176 0.00180000009
v 0.00226274226 -0.00226274086 0.00180000009
v 0.00188091351 -0.00258885371 0.00180000009
v 0.00145277008 -0.00285122055 0.00180000009
v 0.000988854794 -0.00304338057 0.00180000009
v 0.000500590482 -0.00316060241 0.00180000009
v 0.000312869088 -0.00197537662 0.00180000009
v 0.000618034275 -0.00190211309 0.00180000009
v 0.000907981361 -0.00178201287 0.00180000009
v 0.001175571 -0.00161803374 0.00180000009
v 0.00141421403 -0.0014142131 0.00180000009
v 0.00161803456 -0.00117556995 0.00180000009
v 0.0017820131 -0.00090798107 0.00180000009
v 0.0019021132 -0.000618033926 0.00180000009
v 0.00197537686 -0.000312868739 0.00180000009
v 0.00200000009 0 0.00180000009
v 0.00197537686 0.000312868971 0.00180000009
v 0.0019021132 0.000618034042 0.00180000009
v 0.0017820131 0.00090798107 0.00180000009
v 0.00161803409 0.00117557053 0.00180000009
v 0.00141421356 0.00141421356 0.00180000009
v 0.00117557053 0.00161803409 0.00180000009
v 0.00090798107 0.0017820131 0.00180000009
v 0.000618033984 0.0019021132 0.00180000009
v 0.000312868768 0.00197537686 0.00180000009
v 0 0.00200000009 0.00180000009
v -0.000312868913 0.00197537686 0.00180000009
v -0.000618034101 0.00190211309 0.00180000009
v -0.000907981244 0.00178201299 0.00180000009
v -0.00117557042 0.00161803409 0.00180000009
v -0.00141421356 0.00141421356 0.00180000009
v -0.00161803421 0.00117557042 0.00180000009
v -0.00178201322 0.000907980779 0.00180000009
v -0.00190211332 0.000618033635 0.00180000009
v -0.00197537686 0.000312868913 0.00180000009
v -0.00200000009 0 0.00180000009
v -0.00197537662 -0.000312869233 0.00180000009
v -0.0019021132 -0.000618033984 0.00180000009
v -0.0017820131 -0.000907981128 0.00180000009
v -0.00161803397 -0.00117557077 0.00180000009
v -0.00141421333 -0.0014142138 0.00180000009
v -0.00117557019 -0.00161803432 0.00180000009
v -0.000907980488 -0.00178201334 0.00180000009
v -0.000618034217 -0.00190211309 0.00180000009
v -0.000312869059 -0.00197537662 0.00180000009
v 0 -0.00200000009 0.00180000009
v 0 -0.00319999992 0.00180000009
v -0.000500590482 -0.00316060241 0.00180000009
v -0.000988854677 -0.00304338057 0.00180000009
v -0.00145276869 -0.00285122124 0.00180000009
v -0.00188091211 -0.00258885464 0.00180000009
v -0.00226274133 -0.00226274203 0.00180000009
v -0.00258885417 -0.00188091316 0.00180000009
v -0.00285122078 -0.00145276973 0.00180000009
v -0.0030433808 -0.000988854328 0.00180000009
v -0.00316060241 -0.000500590715 0.00180000009
v -0.00319999992 -2.79752888e-10 0.00180000009
v -0.00316060265 0.000500590191 0.00180000009
v -0.00304338103 0.000988853746 0.00180000009
v -0.00285122101 0.00145276915 0.00180000009
v -0.00258885464 0.00188091258 0.00180000009
v -0.00226274156 0.00226274156 0.00180000009
v -0.00188091258 0.0025888544 0.00180000009
v -0.00145276997 0.00285122055 0.00180000009
v -0.000988854445 0.00304338057 0.00180000009
v -0.000500590191 0.00316060265 0.00180000009
v 0 0.00319999992 0.00180000009
v 0.000500589958 0.00316060265 0.00180000009
v 0.000988854328 0.0030433808 0.00180000009
v 0.00145276962 0.00285122078 0.00180000009
v 0.00188091269 0.0025888544 0.00180000009
v 0.00226274156 0.00226274156 0.00180000009
v 0.0025888544 0.00188091269 0.00180000009
v 0.00285122078 0.00145276962 0.00180000009
v 0.0030433808 0.000988854328 0.00180000009
v 0.00316060265 0.000500590308 0.00180000009
v 0.00316060265 -0.000500589958 -0.00180000009
v 0.00319999992 0 -0.00180000009
v 0.00316060265 0.000500590308 -0.00180000009
v 0.0030433808 0.000988854328 -0.00180000009
v 0.00285122078 0.00145276962 -0.00180000009
v 0.0025888544 0.00188091269 -0.00180000009
v 0.00226274156 0.00226274156 -0.00180000009
v 0.00188091269 0.0025888544 -0.00180000009
v 0.00145276962 0.00285122078 -0.00180000009
v 0.000988854328 0.0030433808 -0.00180000009
v 0.000500589958 0.00316060265 -0.00180000009
v 0 0.00319999992 -0.00180000009
v -0.000500590191 0.00316060265 -0.00180000009
v -0.000988854445 0.00304338057 -0.00180000009
v -0.00145276997 0.00285122055 -0.00180000009
v -0.00188091258 0.0025888544 -0.00180000009
v -0.00226274156 0.00226274156 -0.00180000009
v -0.00258885464 0.00188091258 -0.00180000009
v -0.00285122101 0.00145276915 -0.00180000009
v -0.00304338103 0.000988853746 -0.00180000009
v -0.00316060265 0.000500590191 -0.00180000009
v -0.00319999992 -2.79752888e-10 -0.00180000009
v -0.00316060241 -0.000500590715 -0.00180000009
v -0.0030433808 -0.000988854328 -0.00180000009
v -0.00285122078 -0.00145276973 -0.00180000009
v -0.00258885417 -0.00188091316 -0.00180000009
v -0.00226274133 -0.00226274203 -0.00180000009
v -0.00188091211 -0.00258885464 -0.00180000009
v -0.00145276869 -0.00285122124 -0.00180000009
v -0.000988854677 -0.00304338057 -0.00180000009
v -0.000500590482 -0.00316060241 -0.00180000009
v 0 -0.00319999992 -0.00180000009
v 0.000500590482 -0.00316060241 -0.00180000009
v 0.000988854794 -0.00304338057 -0.00180000009
v 0.000618034275 -0.00190211309 -0.00180000009
v 0.000312869088 -0.00197537662 -0.00180000009
v 0 -0.00200000009 -0.00180000009
v -0.000312869059 -0.00197537662 -0.00180000009
v -0.000618034217 -0.00190211309 -0.00180000009
v -0.000907980488 -0.00178201334 -0.00180000009
v -0.00117557019 -0.00161803432 -0.00180000009
v -0.00141421333 -0.0014142138 -0.00180000009
v -0.00161803397 -0.00117557077 -0.00180000009
v -0.0017820131 -0.000907981128 -0.00180000009
v -0.0019021132 -0.000618033984 -0.00180000009
v -0.00197537662 -0.000312869233 -0.00180000009
v -0.00200000009 0 -0.00180000009
v -0.00197537686 0.000312868913 -0.00180000009
v -0.00190211332 0.000618033635 -0.00180000009
v -0.00178201322 0.000907980779 -0.00180000009
v -0.00161803421 0.00117557042 -0.00180000009
v -0.00141421356 0.00141421356 -0.00180000009
v -0.00117557042 0.00161803409 -0.00180000009
v -0.000907981244 0.00178201299 -0.00180000009
v -0.000618034101 0.00190211309 -0.00180000009
v -0.000312868913 0.00197537686 -0.00180000009
v 0 0.00200000009 -0.00180000009
v 0.000312868768 0.00197537686 -0.00180000009
v 0.000618033984 0.0019021132 -0.00180000009
v 0.00090798107 0.0017820131 -0.00180000009
v 0.00117557053 0.00161803409 -0.00180000009
v 0.00141421356 0.00141421356 -0.00180000009
v 0.00161803409 0.00117557053 -0.00180000009
v 0.0017820131 0.00090798107 -0.00180000009
v 0.0019021132 0.000618034042 -0.00180000009
v 0.00197537686 0.000312868971 -0.00180000009
v 0.00200000009 0 -0.00180000009
v 0.00197537686 -0.000312868739 -0.00180000009
v 0.0019021132 -0.000618033926 -0.00180000009
v 0.0017820131 -0.00090798107 -0.00180000009
v 0.00161803456 -0.00117556995 -0.00180000009
v 0.00141421403 -0.0014142131 -0.00180000009
v 0.001175571 -0.00161803374 -0.00180000009
v 0.000907981361 -0.00178201287 -0.00180000009
v 0.00145277008 -0.00285122055 -0.00180000009
v 0.00188091351 -0.00258885371 -0.00180000009
v 0.00226274226 -0.00226274086 -0.00180000009
v 0.0025888551 -0.00188091176 -0.00180000009
v 0.00285122078 -0.00145276962 -0.00180000009
v 0.0030433808 -0.000988854212 -0.00180000009
g 
f 60 62 61
f 101 103 102
f 1 83 80
f 80 84 79
f 79 85 78
f 78 86 77
f 77 87 76
f 76 88 75
f 75 89 74
f 74 90 73
f 73 91 72
f 72 92 71
f 71 93 70
f 70 94 69
f 69 95 68
f 68 96 67
f 67 97 66
f 66 98 65
f 65 99 64
f 64 100 63
f 63 101 62
f 62 102 61
f 61 103 60
f 60 104 59
f 59 105 58
f 58 106 57
f 57 107 56
f 56 108 55
f 55 109 54
f 54 110 53
f 53 111 52
f 52 112 51
f 51 113 10
f 10 114 9
f 9 155 8
f 8 156 7
f 7 157 6
f 6 158 5
f 5 159 4
f 4 160 3
f 3 81 2
f 2 82 1
f 21 147 20
f 146 22 145
f 144 24 143
f 142 26 141
f 140 28 139
f 29 139 28
f 137 31 136
f 32 136 31
f 34 134 33
f 36 132 35
f 38 130 37
f 39 129 38
f 40 128 39
f 41 127 40
f 126 42 125
f 124 44 123
f 122 46 121
f 120 48 119
f 117 11 116
f 12 116 11
f 14 154 13
f 16 152 15
f 18 150 17
f 19 149 18
f 20 148 19
f 23 145 22
f 25 143 24
f 27 141 26
f 137 29 30
f 32 134 135
f 34 132 133
f 36 130 131
f 42 124 125
f 44 122 123
f 46 120 121
f 48 118 119
f 49 117 118
f 154 12 13
f 152 14 15
f 17 151 16
f 151 17 150
f 14 152 153
f 12 154 115
f 117 49 50
f 118 48 49
f 120 46 47
f 122 44 45
f 124 42 43
f 130 36 37
f 132 34 35
f 134 32 33
f 29 137 138
f 141 27 140
f 143 25 142
f 145 23 144
f 148 20 147
f 149 19 148
f 150 18 149
f 152 16 151
f 154 14 153
f 116 12 115
f 11 117 50
f 48 120 47
f 46 122 45
f 44 124 43
f 42 126 41
f 127 41 126
f 128 40 127
f 129 39 128
f 130 38 129
f 132 36 131
f 134 34 133
f 136 32 135
f 31 137 30
f 139 29 138
f 28 140 27
f 26 142 25
f 24 144 23
f 22 146 21
f 147 21 146
f 82 2 81
f 81 3 160
f 160 4 159
f 159 5 158
f 158 6 157
f 157 7 156
f 156 8 155
f 155 9 114
f 114 10 113
f 113 51 112
f 112 52 111
f 111 53 110
f 110 54 109
f 109 55 108
f 108 56 107
f 107 57 106
f 106 58 105
f 105 59 104
f 104 60 103
f 103 61 102
f 102 62 101
f 101 63 100
f 100 64 99
f 99 65 98
f 98 66 97
f 97 67 96
f 96 68 95
f 95 69 94
f 94 70 93
f 93 71 92
f 92 72 91
f 91 73 90
f 90 74 89
f 89 75 88
f 88 76 87
f 87 77 86
f 86 78 85
f 85 79 84
f 84 80 83
f 83 1 82
f 81 160 83
f 81 83 82
f 83 160 84
f 84 160 159
f 84 159 85
f 85 159 158
f 85 158 86
f 86 158 157
f 86 157 87
f 87 157 147
f 147 157 148
f 87 147 146
f 148 157 149
f 87 146 145
f 149 157 156
f 87 145 88
f 149 156 150
f 88 145 144
f 150 156 151
f 88 144 143
f 151 156 155
f 88 143 89
f 151 155 152
f 89 143 142
f 152 155 153
f 89 142 141
f 153 155 114
f 89 141 90
f 153 114 154
f 90 141 140
f 154 114 115
f 90 140 139
f 90 139 91
f 91 139 138
f 91 138 137
f 91 137 92
f 92 137 136
f 92 136 93
f 93 136 135
f 93 135 134
f 93 134 94
f 94 134 133
f 94 133 132
f 94 132 95
f 95 132 131
f 95 131 130
f 95 130 96
f 96 130 129
f 96 129 128
f 96 128 127
f 96 127 107
f 107 127 108
f 108 127 126
f 108 126 125
f 108 125 124
f 108 124 109
f 109 124 123
f 109 123 122
f 109 122 110
f 110 122 121
f 110 121 120
f 110 120 111
f 111 120 119
f 111 119 118
f 111 118 112
f 112 118 117
f 112 117 116
f 112 116 113
f 113 116 115
f 113 115 114
f 96 107 97
f 97 107 106
f 97 106 98
f 98 106 105
f 98 105 99
f 99 105 104
f 99 104 100
f 100 104 103
f 100 103 101
f 1 80 2
f 2 80 79
f 2 79 3
f 3 79 78
f 3 78 4
f 4 78 5
f 5 78 77
f 5 77 6
f 6 77 76
f 6 76 20
f 20 76 21
f 6 20 19
f 21 76 22
f 6 19 18
f 6 18 7
f 22 76 75
f 22 75 23
f 7 18 17
f 7 17 16
f 23 75 24
f 7 16 8
f 24 75 74
f 8 16 15
f 24 74 25
f 8 15 14
f 25 74 26
f 8 14 9
f 26 74 73
f 9 14 13
f 26 73 27
f 9 13 12
f 27 73 28
f 9 12 10
f 28 73 72
f 10 12 11
f 28 72 29
f 29 72 71
f 29 71 30
f 30 71 31
f 31 71 70
f 31 70 32
f 32 70 33
f 33 70 69
f 33 69 34
f 34 69 35
f 35 69 68
f 35 68 36
f 36 68 37
f 37 68 67
f 37 67 38
f 38 67 39
f 39 67 40
f 40 67 56
f 40 56 55
f 40 55 41
f 41 55 42
f 42 55 43
f 43 55 54
f 43 54 44
f 44 54 45
f 45 54 53
f 45 53 46
f 46 53 47
f 47 53 52
f 47 52 48
f 48 52 49
f 49 52 51
f 49 51 50
f 50 51 10
f 50 10 11
f 56 67 66
f 56 66 57
f 57 66 65
f 57 65 58
f 58 65 64
f 58 64 59
f 59 64 63
f 59 63 60
f 60 63 62
