#
# File generated by Libuipc
# Vertices 114
# Edges 114
# Faces 0
#
v -0.0111576999 0.156268761 0
v -0.0111354738 0.15427956 0
v -0.0111132488 0.152290374 0
v -0.0110910228 0.150301173 0
v -0.0110687977 0.148311988 0
v -0.0110465717 0.146322787 0
v -0.0110243456 0.144333601 0
v -0.0110021206 0.1423444 0
v -0.0109798945 0.140355214 0
v -0.0109576695 0.138366014 0
v -0.0109354435 0.136376828 0
v -0.0109132174 0.134387627 0
v -0.0108909924 0.132398427 0
v -0.0108687663 0.130409241 0
v -0.0108465413 0.12842004 0
v -0.0108243152 0.126430854 0
v -0.0108020902 0.124441653 0
v -0.0107798642 0.122452468 0
v -0.0107577946 0.120463267 0
v -0.0107386364 0.118474044 0
v -0.0107194791 0.116484821 0
v -0.0107003208 0.114495598 0
v -0.0106811626 0.112506367 0
v -0.0106620053 0.110517144 0
v -0.010642847 0.108527921 0
v -0.0106236897 0.106538683 0
v -0.0106045315 0.10454946 0
v -0.0105853733 0.102560237 0
v -0.010566216 0.100571007 0
v -0.0105470577 0.0985817835 0
v -0.0105279004 0.0965925604 0
v -0.0105087422 0.0946033373 0
v -0.0104895839 0.0926141143 0
v -0.0104704266 0.0906248838 0
v -0.0104512684 0.0886356682 0
v -0.0104321111 0.0866464376 0
v -0.0104129529 0.0846572146 0
v -0.0103937946 0.0826679766 0
v -0.0103746373 0.0806787685 0
v -0.0103554791 0.0786895454 0
v -0.0103363208 0.0767003 0
v -0.0103171635 0.0747110844 0
v -0.0102980053 0.0727218539 0
v -0.010278848 0.0707326308 0
v -0.0102596898 0.0687434077 0
v -0.0102405315 0.0667541772 0
v -0.0102213742 0.0647649616 0
v -0.010202216 0.0627757162 0
v -0.0101830587 0.060786508 0
v -0.0101639004 0.058797285 0
v -0.0101447422 0.056808047 0
v -0.0101255849 0.0548188239 0
v -0.0101064267 0.0528295934 0
v -0.0100872684 0.0508403704 0
v -0.0100681111 0.0488511473 0
v -0.0100489529 0.0468619242 0
v -0.0100297956 0.0448727012 0
v -0.0100106373 0.0428834781 0
v -0.00999148004 0.0408942476 0
v -0.0099723218 0.0389050245 0
v -0.00995316356 0.0369158015 0
v -0.00993400626 0.0349265784 0
v -0.00991484802 0.0329373553 0
v -0.00989568979 0.0309481174 0
v -0.00987653248 0.0289588869 0
v -0.00985737424 0.0269696787 0
v -0.00983821694 0.0249804556 0
v -0.0098190587 0.0229912326 0
v -0.00979990046 0.0210019946 0
v -0.00978074316 0.0190127715 0
v -0.00976158492 0.0170235336 0
v -0.00974242669 0.0150343031 0
v -0.00972326938 0.0130450949 0
v -0.00970411114 0.0110558718 0
v -0.00968495384 0.00906663388 0
v -0.0096657956 0.00707741082 0
v -0.00964663737 0.00508818775 0
v -0.00962748006 0.00309895724 0
v -0.00960832182 0.00110974908 0
v -0.00958916452 -0.000879488885 0
v -0.00957000628 -0.00286871195 0
v -0.0088843191 -0.00463839574 0
v -0.00771756331 -0.00624962896 0
v -0.00655080006 -0.00786087289 0
v -0.00538405357 -0.00947209448 0
v -0.00342301629 -0.00977148581 0
v -0.00145451725 -0.0100585585 0
v 0.000513963867 -0.0103456285 0
v 0.00248247618 -0.0106327031 0
v 0.00436211284 -0.0106888404 0
v 0.00563042983 -0.00915629137 0
v 0.00689875893 -0.00762372743 0
v 0.00816707592 -0.00609117793 0
v 0.00900389813 -0.0043977676 0
v 0.00904809497 -0.00240893685 0
v 0.00909228995 -0.000420122873 0
v 0.0091364868 0.0015687081 0
v 0.00918068271 0.00355753908 0
v 0.00800714642 0.00505774328 0
v 0.00660048472 0.00646440499 0
v 0.00519382302 0.00787106622 0
v 0.00378717342 0.00927771628 0
v 0.00220471062 0.0102600018 0
v 0.000215392793 0.0102600018 0
v -0.00177391595 0.0102600018 0
v -0.00376323401 0.0102600018 0
v -0.00575255603 0.0102600018 0
v -0.00726469513 0.010336698 -0.000236642358
v -0.00908290409 0.0108081773 -0.00169136142
v -0.0109506687 0.0104623241 -0.00150709471
v -0.0124795847 0.0102601051 -0.000494219479
v -0.0121314405 0.0102601051 0.001151531
v -0.0102827279 0.0107767386 0.00144127361
v -0.0089702988 0.0110103749 0.00139881717
l 2 1
l 3 2
l 4 3
l 5 4
l 6 5
l 7 6
l 8 7
l 9 8
l 10 9
l 11 10
l 12 11
l 13 12
l 14 13
l 15 14
l 16 15
l 17 16
l 18 17
l 19 18
l 20 19
l 21 20
l 22 21
l 23 22
l 24 23
l 25 24
l 26 25
l 27 26
l 28 27
l 29 28
l 30 29
l 31 30
l 32 31
l 33 32
l 34 33
l 35 34
l 36 35
l 37 36
l 38 37
l 39 38
l 40 39
l 41 40
l 42 41
l 43 42
l 44 43
l 45 44
l 46 45
l 47 46
l 48 47
l 49 48
l 50 49
l 51 50
l 52 51
l 53 52
l 54 53
l 55 54
l 56 55
l 57 56
l 58 57
l 59 58
l 60 59
l 61 60
l 62 61
l 63 62
l 64 63
l 65 64
l 66 65
l 67 66
l 68 67
l 69 68
l 70 69
l 71 70
l 72 71
l 73 72
l 74 73
l 75 74
l 76 75
l 77 76
l 78 77
l 79 78
l 80 79
l 81 80
l 82 81
l 83 82
l 84 83
l 85 84
l 86 85
l 87 86
l 88 87
l 89 88
l 90 89
l 91 90
l 92 91
l 93 92
l 94 93
l 95 94
l 96 95
l 97 96
l 98 97
l 99 98
l 100 99
l 101 100
l 102 101
l 103 102
l 104 103
l 105 104
l 106 105
l 107 106
l 108 107
l 109 108
l 110 109
l 111 110
l 112 111
l 113 112
l 114 113
l 108 114
