#
# File generated by Libuipc
# Vertices 114
# Edges 114
# Faces 0
#
v 0.01328136847871099 0.01168929802650364 0.0006825570866383913
v 0.012143158162052895 0.010056677924094794 0.0006870854797428629
v 0.01105393404166868 0.008391853603313126 0.000691389958352658
v 0.010037560509050794 0.006681553589466641 0.0006951782176229721
v 0.008986116184958044 0.004992524826415689 0.0006991045626292701
v 0.008017423305738998 0.0032548733920068325 0.0007035388499042507
v 0.006995025594960934 0.0015482774799738567 0.0007084617531567884
v 0.005961527100730395 -0.00015078330535571376 0.000761222560148682
v 0.004975186223805624 -0.0018673758254899222 0.00095614374601022
v 0.00362986188959363 -0.0033303035293573615 0.0010421561479940973
v 0.001941442092894296 -0.004360623617873089 0.0008297865848086394
v -4.790490990671563e-06 -0.004766974808783758 0.0007625900367812723
v -0.0019184902066706109 -0.004248798345564148 0.0005991772877735099
v -0.003582483423550179 -0.0031609541743501126 0.0006707420962298493
v -0.0048920019769060335 -0.0017004736781611402 0.000339664554021495
v -0.00538461250865192 0.00022340136933998625 0.00022373470221083086
v -0.005143566605096566 0.002181964068020461 -2.803047932989631e-05
v -0.003654051734511988 0.003476985103031043 0.00022028022920634943
v -0.0017848888087056128 0.004094406313366947 0.0005074575643095393
v 0.00020248912950662684 0.004182430581367651 0.0005076220166311036
v 0.002151657927546285 0.0037848582116744426 0.0004978573561390331
v 0.003660594503377658 0.0024915448382380706 0.0005865531726201253
v 0.004303970540739424 0.0006092639654756088 0.0005633829625805647
v 0.00419025322895749 -0.0013767949643897855 0.0005564862913783133
v 0.0028791378736323365 -0.0028631497205055005 0.0003858075821473625
v 0.0012644606856369812 -0.003948440921666974 -2.9443107586412394e-05
v -0.0005693344583779726 -0.0046717601184386 -0.0002966903749424331
v -0.002540180555283641 -0.0049079007849280295 -0.0004286815266085778
v -0.004331001593880692 -0.004210359170169026 -0.0009423428197767831
v -0.005449690594842351 -0.002568786440576414 -0.0008365668524142792
v -0.005554236851116794 -0.0005838094470039649 -0.0007568947329043031
v -0.004848847104511163 0.0012743261541783427 -0.0008416302539416439
v -0.0034687241389416788 0.0026694320271995545 -0.0005154918998285126
v -0.0018653652126227372 0.0038469664862857502 -0.0005259654168321867
v 3.501584607717379e-05 0.004432355756665452 -0.0004688011064419695
v 0.0019301832921949443 0.0038286032113540205 -0.0005045082544300152
v 0.0033724436649545525 0.002462576645055757 -0.00039829815745851796
v 0.004181112754550402 0.0006452606672123195 -0.0004281800395124545
v 0.004173611221816361 -0.0013435601834338319 -0.000471840805545517
v 0.003307461027302062 -0.003133829305160658 -0.000518254720661808
v 0.0017950011731865745 -0.004399259862238758 -0.0007803144745684347
v -9.032538177025022e-05 -0.0048030955853591035 -0.001270077981697841
v -0.002059462867907795 -0.004544371493496104 -0.0013842096309693405
v -0.0037502876194581486 -0.0034963440822353624 -0.0013979816183544848
v -0.004989108059367792 -0.001967223869720566 -0.0016887576990897153
v -0.005498187916745542 -4.639009139930597e-05 -0.0017820278122646638
v -0.005209645340193203 0.0019085453142030193 -0.0020108723170714432
v -0.0038524957203595047 0.0033504949690226645 -0.0022017618438352764
v -0.0020061405368819655 0.004090997043906318 -0.0022017950676967114
v -4.425913575300083e-05 0.004420311235419853 -0.0022031943971889054
v 0.0019080694463845308 0.00403834784136706 -0.0022018914583757303
v 0.0035617465151715644 0.002932558706690976 -0.0022042215153058697
v 0.004418232208717073 0.0011370430366986586 -0.0022020872537525716
v 0.004363408091867083 -0.0008515271288895373 -0.0022016939790636
v 0.0036266588591318274 -0.0026993939581185923 -0.0022037594041626994
v 0.0020509736959267778 -0.003913739876421834 -0.0022020213135181405
v 0.0001361594406909778 -0.00445309092732848 -0.0021995636721204386
v -0.001804344046814054 -0.004015077424790994 -0.002202126869499698
v -0.0034248199469275845 -0.0028611727254455465 -0.002202752081694733
v -0.004321573770679442 -0.0010854360737503877 -0.002206836518404465
v -0.004391685510572515 0.0009026216167011977 -0.0021953891390384616
v -0.00351244869901612 0.0025639755891503813 -0.0015440403986167577
v -0.0017431047422685876 0.0034685035859023977 -0.0014508814579018011
v 0.00020417477863815558 0.003860429709780489 -0.0013414299118637673
v 0.0020787643684320295 0.0031979875279283232 -0.0014087817825492893
v 0.003475305375551188 0.0017814364703986401 -0.0013883419264534578
v 0.003818393051349308 -0.0001780539904845219 -0.0013778198951225485
v 0.0032786681525130497 -0.0020927534638421484 -0.0013708362528924542
v 0.0017986263762417695 -0.0034219945912712262 -0.0013633585499648838
v -0.0001314982176762738 -0.0037767692031313183 -0.0010375264781752917
v -0.002062336307732455 -0.00386133857543503 -0.0005661673507560448
v -0.003978138304560571 -0.003444533901751149 -0.000229412165753915
v -0.00450074583597314 -0.0016294879235416774 -0.0008538094719125396
v -0.004280137387001549 0.0002817387801821909 -0.00034788270010121044
v -0.004265317752650885 0.001965089982638858 0.0007121126244505526
v -0.0030693172677557154 0.0034452489802768963 0.0012918660001934993
v -0.0010967354510210154 0.003661365668780851 0.001431972717300763
v 0.0008909773913111175 0.003738146416361494 0.0014552307205106974
v 0.0026557331047187614 0.0028200147188039 0.0014550894677477992
v 0.0036430514711158716 0.0010929814066168867 0.001451827106208144
v 0.0037742902296894402 -0.0008920036272952666 0.0014524202277209645
v 0.0028638222121108487 -0.0025572380100650095 0.0014499198448614955
v 0.0012474651459322287 -0.003716876640789234 0.0014559045553960948
v -0.0005766539185351147 -0.004466510873469824 0.0017168648376445954
v -0.0025397319162186994 -0.004371113540655071 0.0020243750755354205
v -0.0041461656597017865 -0.0032205711366116983 0.002200230016060919
v -0.004794745063197806 -0.0013428607329311626 0.002095600574850073
v -0.004306346828920127 0.0005355442162566256 0.0016592647806617986
v -0.003038372938764742 0.0018972923083598744 0.0009554630224499461
v -0.0016810340964808028 0.003078933725286927 0.0004099954494835572
v 0.0002955211476009359 0.003151008464837049 0.0006229910795286469
v 0.002162504463359269 0.0024641796556877423 0.0006160731955394747
v 0.003150654907869924 0.0007380529424388163 0.0005789026962903463
v 0.0030670177985345475 -0.0011489758792588643 0.0005850676720990614
v 0.0017039674466464985 -0.002593965213097892 0.0006922978239101977
v 1.0012798478896492e-05 -0.003634835089613152 0.0007589739079213616
v -0.001877449691560642 -0.0035024582724771107 0.0013732756229300714
v -0.003452883878881029 -0.0023011869726695384 0.0015531659851050108
v -0.003964772492732251 -0.001031118304608248 0.00022927487157074774
v -0.002415236763503324 -0.0018388256953194714 -0.0007214826802685484
v -0.001088544871733738 -0.003156421130974031 -4.233847391840296e-05
v 0.0008762346446830813 -0.0030788749482275205 -0.00034397464407299696
v 0.002470868688135528 -0.0021233171990537644 -0.00045863371338447173
v 0.003186322996785517 -0.0002701749107180229 -0.000565429552600318
v 0.0026737691954817774 0.001650308440667108 -0.0006454369373870754
v 0.0012248061339148776 0.0030055114732875877 -0.0004993425424509565
v -0.0007592107345702496 0.0031443398431804147 -0.0005420716586877069
v -0.0021127292141604336 0.00242682611214222 -0.0005017295801709574
v -0.003863426769115702 0.0009561335463614817 -0.00114708719151438
v -0.003714256688703604 -0.0009267638697156519 -0.0014201280805249364
v -0.0033086670414221773 -0.0026642341504387146 -0.0009499551479295485
v -0.00251396488393264 -0.002579077292376703 0.0005302346310585931
v -0.002927860582844824 -0.0006932535134287353 0.0007325729130975251
v -0.003291421013423678 0.0005849307041511209 0.0006188765801609025
l 2 1
l 3 2
l 4 3
l 5 4
l 6 5
l 7 6
l 8 7
l 9 8
l 10 9
l 11 10
l 12 11
l 13 12
l 14 13
l 15 14
l 16 15
l 17 16
l 18 17
l 19 18
l 20 19
l 21 20
l 22 21
l 23 22
l 24 23
l 25 24
l 26 25
l 27 26
l 28 27
l 29 28
l 30 29
l 31 30
l 32 31
l 33 32
l 34 33
l 35 34
l 36 35
l 37 36
l 38 37
l 39 38
l 40 39
l 41 40
l 42 41
l 43 42
l 44 43
l 45 44
l 46 45
l 47 46
l 48 47
l 49 48
l 50 49
l 51 50
l 52 51
l 53 52
l 54 53
l 55 54
l 56 55
l 57 56
l 58 57
l 59 58
l 60 59
l 61 60
l 62 61
l 63 62
l 64 63
l 65 64
l 66 65
l 67 66
l 68 67
l 69 68
l 70 69
l 71 70
l 72 71
l 73 72
l 74 73
l 75 74
l 76 75
l 77 76
l 78 77
l 79 78
l 80 79
l 81 80
l 82 81
l 83 82
l 84 83
l 85 84
l 86 85
l 87 86
l 88 87
l 89 88
l 90 89
l 91 90
l 92 91
l 93 92
l 94 93
l 95 94
l 96 95
l 97 96
l 98 97
l 99 98
l 100 99
l 101 100
l 102 101
l 103 102
l 104 103
l 105 104
l 106 105
l 107 106
l 108 107
l 109 108
l 110 109
l 111 110
l 112 111
l 113 112
l 114 113
l 108 114
