#
# File generated by Libuipc
# Vertices 96
# Edges 96
# Faces 0
#
v 0.008166317808930812 0.014924158316155232 0.0003639906898051463
v 0.007669955467422819 0.012988714367905134 0.00035119351155648
v 0.007172755540336255 0.011053466359905997 0.000338391319411208
v 0.00668861480345612 0.00911496576412036 0.0003240412731445144
v 0.006190294216643106 0.007180017205275616 0.000309969130897916
v 0.005692836484186205 0.005244831996288811 0.00029617133771572466
v 0.005196485193736776 0.003309346184777485 0.00028203065590247855
v 0.004703649196722602 0.0013729731084304528 0.000267253501708364
v 0.004208697369826355 -0.000561753141802221 0.00033266878045105116
v 0.003376119212688438 -0.002373520798090495 0.0004624369244148216
v 0.0018484082103108533 -0.0036597198263570653 0.00039791225354515047
v -8.643145212975222e-05 -0.004157265115987496 0.0003615091877271294
v -0.0020164187346702177 -0.0036401438582708114 0.0003709819527667423
v -0.0034751522525156018 -0.002275031202392658 0.0004022359699956479
v -0.0041170164140631555 -0.00038300645757775105 0.0004268503351451565
v -0.003729058514323504 0.001576207634252555 0.0004852924711836047
v -0.0024791078175245814 0.003134859424392283 0.0005101453665256801
v -0.0007195952943140579 0.0040749432558768155 0.0003971240863433073
v 0.0012691911943994382 0.0038852707491110723 0.00043033380062444725
v 0.0029869508234525604 0.002890272987000498 0.000202895060947501
v 0.0039922863115914795 0.001179338894092112 0.0004361893131440805
v 0.004086909786973018 -0.0007621557114090618 0.0008988909393491394
v 0.0030941680605676195 -0.0024767265675197173 0.0011579009810975427
v 0.0014985382637180565 -0.0036792252997985475 0.0011377691066826244
v -0.00048689816366928227 -0.003902891544674768 0.00111806789839929
v -0.0023469362153393726 -0.0031734499113349516 0.0010946558425516948
v -0.003621301257024426 -0.0016346924864171488 0.0011202004701715291
v -0.003963924955995129 0.00033371484256435334 0.0011381908340837765
v -0.003553732693513325 0.0022878555737236256 0.001064362126567319
v -0.002387475405354015 0.0038695532012309602 0.0014255749458617329
v -0.00040773957250634664 0.004017205869397266 0.0016519126004099032
v 0.0015532138777907623 0.0036337182389844036 0.0016514975092213088
v 0.0031660120757808145 0.002454229496424572 0.001644492264163744
v 0.003925110123590977 0.0006059335845566098 0.001642949790877753
v 0.003749776191608956 -0.0013844337119162144 0.0016507500993203363
v 0.0025883110335257506 -0.00301027711348412 0.0016517003923027223
v 0.0008057016213135053 -0.003912583076653357 0.001629033820865394
v -0.0011878992895654997 -0.0037786567280252517 0.0016272869813014894
v -0.0029019061718292827 -0.002751739011640001 0.0016214405485854163
v -0.00384601716565819 -0.00099078052922452 0.0016255871481926614
v -0.003873529467735012 0.0010070497925107685 0.0016433312853244976
v -0.0028716868061233764 0.002735799355981648 0.001653331779690164
v -0.0012549819837702275 0.0037543849325093657 0.0010692595757670325
v 0.0007384575913254556 0.0038604012831314383 0.0011552318752603343
v 0.002574623105041128 0.0030724953977676276 0.001148871215868753
v 0.003618934204980635 0.0013767240048754312 0.0009871676827458654
v 0.0035729420294568484 -0.000617704378391756 0.000875165997225623
v 0.002708956756790902 -0.0024146251702290423 0.0007448938724564122
v 0.0010184634227143844 -0.0034790384432747275 0.0007036921815044602
v -0.0009789080916876524 -0.0034970000603042396 0.0006534575274912809
v -0.0026762772715193082 -0.0024427732172684555 0.0006534769620196952
v -0.0035740163572211023 -0.0006578966491037455 0.0006787371386315786
v -0.003368368981510895 0.0013273336417914932 0.0007733151334762972
v -0.0021697808074927255 0.002922991512900966 0.000871477709373121
v -0.0003036124822512983 0.003603094004025539 0.0006541032333693225
v 0.0016607097595981043 0.0032398877944320964 0.0006983520682493308
v 0.003102615944446476 0.0018617808551855352 0.0005794492546170707
v 0.0036294039538537735 -5.7693075370606184e-05 0.00040490297600968747
v 0.003047385799947184 -0.001965169659238609 0.0002817354244708755
v 0.0015461323420549317 -0.003278965729131422 0.00016946972475185656
v -0.0004245612227334365 -0.0036072884571754396 0.00013842237173159583
v -0.0022630303169758766 -0.0028248139259089474 0.0001260552032317359
v -0.0033984995449566763 -0.0012586169951737914 0.00011601545296240892
v -0.0035501162370614042 0.0007217465728609271 9.927421821795132e-05
v -0.0026433922720913603 0.0025021956237468103 8.328050464030864e-05
v -0.0009110561469572772 0.0034952806132999958 0.0001555881713267968
v 0.0009374042763930811 0.0034946084116819942 0.0001587112678924177
v 0.002655365511001132 0.0024745054887441416 0.0001382204953601512
v 0.0037809294745884763 0.0008313761583369963 -2.1922897503751122e-05
v 0.0038236660589170807 -0.0011642842218077183 -0.00011096013810595698
v 0.0024483647498991256 -0.0025898813340649645 -0.00030306145782327607
v 0.0008996936580924827 -0.0035331193170086463 -0.00034248126367537564
v -0.0010960769388142079 -0.003439297352533753 -0.0003659473277195897
v -0.0027790120997840616 -0.00236223730760538 -0.0003755874147624627
v -0.0035469919365074916 -0.000571020850978095 -0.0003875214605859885
v -0.0033847875274692556 0.0013739955723024472 -0.00040870573470231286
v -0.0021125511709946736 0.0029147190638621925 -0.0004068925398941998
v -0.000264343897744539 0.003669703852697362 -0.0003258933590352844
v 0.0015837505827595941 0.004299549372731225 9.867377119060712e-05
v 0.0023169656454326715 0.0029568532891887087 -0.0009192005657452441
v 0.0004020902233866827 0.0035275063559145783 -0.0009124241938207496
v -0.0015890523727367658 0.003361200709861615 -0.0009028965189350939
v -0.0030351607814906537 0.0019823657484046666 -0.0009094074473786013
v -0.0036127331813605073 0.00013717158489661533 -0.0008948264474248942
v -0.0031750605420127545 -0.0017450766650753426 -0.0008785157135644765
v -0.0017762434988210529 -0.003171830568881506 -0.000868259458843405
v 0.00017170575812947838 -0.0036166604279327923 -0.0008585566978883505
v 0.0020699787370525194 -0.002993010740708764 -0.0008627321728455486
v 0.0032453982018483805 -0.0015286022728889016 -0.0008876267184430259
v 0.0037534137078623947 0.0004537159953480898 -0.0009468421066344903
v 0.0033102120944682027 0.0021830102811187056 -0.0010823313505508023
v 0.0023585657260255044 0.0037610325188899324 -0.0014826506592656222
v 0.0011722351316544718 0.0035970521270224606 -0.0003466455048449527
v 0.0025574054250678247 0.002426119797171422 -0.0003537269830014107
v 0.003563275167711973 0.0009945424468952003 -0.0004928736215282038
v 0.0034440301598769314 -0.0006526469517464877 -0.00041955840245410736
l 2 1
l 3 2
l 4 3
l 5 4
l 6 5
l 7 6
l 8 7
l 9 8
l 10 9
l 11 10
l 12 11
l 13 12
l 14 13
l 15 14
l 16 15
l 17 16
l 18 17
l 19 18
l 20 19
l 21 20
l 22 21
l 23 22
l 24 23
l 25 24
l 26 25
l 27 26
l 28 27
l 29 28
l 30 29
l 31 30
l 32 31
l 33 32
l 34 33
l 35 34
l 36 35
l 37 36
l 38 37
l 39 38
l 40 39
l 41 40
l 42 41
l 43 42
l 44 43
l 45 44
l 46 45
l 47 46
l 48 47
l 49 48
l 50 49
l 51 50
l 52 51
l 53 52
l 54 53
l 55 54
l 56 55
l 57 56
l 58 57
l 59 58
l 60 59
l 61 60
l 62 61
l 63 62
l 64 63
l 65 64
l 66 65
l 67 66
l 68 67
l 69 68
l 70 69
l 71 70
l 72 71
l 73 72
l 74 73
l 75 74
l 76 75
l 77 76
l 78 77
l 79 78
l 80 79
l 81 80
l 82 81
l 83 82
l 84 83
l 85 84
l 86 85
l 87 86
l 88 87
l 89 88
l 90 89
l 91 90
l 92 91
l 93 92
l 94 93
l 95 94
l 96 95
l 89 96
