v 0.64221168 0.06996557 0.86483702
v 0.64111379 0.07121255 0.86211163
v 0.64284023 0.07445862 0.86374573
v 0.64348313 0.07204389 0.86689908
v 0.64111379 0.07121255 0.86211163
v 0.63932045 0.07276718 0.86038636
v 0.64068491 0.07632705 0.86167221
v 0.64284023 0.07445862 0.86374573
v 0.63932045 0.07276718 0.86038636
v 0.63683166 0.07462947 0.85966119
v 0.63701715 0.07764919 0.86067851
v 0.64068491 0.07632705 0.86167221
v 0.64348313 0.07204389 0.86689908
v 0.64284023 0.07445862 0.86374573
v 0.64287070 0.07709400 0.86608878
v 0.64350848 0.07423665 0.86884861
v 0.64284023 0.07445862 0.86374573
v 0.64068491 0.07632705 0.86167221
v 0.64071537 0.07896243 0.86401526
v 0.64287070 0.07709400 0.86608878
v 0.64068491 0.07632705 0.86167221
v 0.63701715 0.07764919 0.86067851
v 0.63704250 0.07984196 0.86262804
v 0.64071537 0.07896243 0.86401526
v 0.64350848 0.07423665 0.86884861
v 0.64287070 0.07709400 0.86608878
v 0.64120519 0.07911866 0.86914077
v 0.64228773 0.07654386 0.87068562
v 0.64287070 0.07709400 0.86608878
v 0.64071537 0.07896243 0.86401526
v 0.63941185 0.08067329 0.86741549
v 0.64120519 0.07911866 0.86914077
v 0.64071537 0.07896243 0.86401526
v 0.63704250 0.07984196 0.86262804
v 0.63690771 0.08120776 0.86550979
v 0.63941185 0.08067329 0.86741549
v 0.63683166 0.07462947 0.85966119
v 0.63395877 0.07325965 0.85990216
v 0.63305367 0.07702797 0.86098307
v 0.63701715 0.07764919 0.86067851
v 0.63395877 0.07325965 0.85990216
v 0.63163652 0.07208303 0.86125578
v 0.63026268 0.07561385 0.86260991
v 0.63305367 0.07702797 0.86098307
v 0.63163652 0.07208303 0.86125578
v 0.62986494 0.07109961 0.86372204
v 0.62864418 0.07340683 0.86555904
v 0.63026268 0.07561385 0.86260991
v 0.63701715 0.07764919 0.86067851
v 0.63305367 0.07702797 0.86098307
v 0.63308414 0.07966335 0.86332612
v 0.63704250 0.07984196 0.86262804
v 0.63305367 0.07702797 0.86098307
v 0.63026268 0.07561385 0.86260991
v 0.63029315 0.07824922 0.86495296
v 0.63308414 0.07966335 0.86332612
v 0.63026268 0.07561385 0.86260991
v 0.62864418 0.07340683 0.86555904
v 0.62866953 0.07559959 0.86750857
v 0.63029315 0.07824922 0.86495296
v 0.63704250 0.07984196 0.86262804
v 0.63308414 0.07966335 0.86332612
v 0.63405016 0.08116576 0.86693130
v 0.63690771 0.08120776 0.86550979
v 0.63308414 0.07966335 0.86332612
v 0.63029315 0.07824922 0.86495296
v 0.63172792 0.07998914 0.86828491
v 0.63405016 0.08116576 0.86693130
v 0.63029315 0.07824922 0.86495296
v 0.62866953 0.07559959 0.86750857
v 0.62994099 0.07767790 0.86957063
v 0.63172792 0.07998914 0.86828491
v 0.62986494 0.07109961 0.86372204
v 0.63094748 0.06852481 0.86526689
v 0.62928198 0.07054948 0.86831888
v 0.62864418 0.07340683 0.86555904
v 0.63094748 0.06852481 0.86526689
v 0.63274082 0.06697018 0.86699216
v 0.63143730 0.06868105 0.87039240
v 0.62928198 0.07054948 0.86831888
v 0.63274082 0.06697018 0.86699216
v 0.63524496 0.06643571 0.86889786
v 0.63511016 0.06780152 0.87177961
v 0.63143730 0.06868105 0.87039240
v 0.62864418 0.07340683 0.86555904
v 0.62928198 0.07054948 0.86831888
v 0.62931245 0.07318486 0.87066193
v 0.62866953 0.07559959 0.86750857
v 0.62928198 0.07054948 0.86831888
v 0.63143730 0.06868105 0.87039240
v 0.63146777 0.07131643 0.87273544
v 0.62931245 0.07318486 0.87066193
v 0.63143730 0.06868105 0.87039240
v 0.63511016 0.06780152 0.87177961
v 0.63513551 0.06999428 0.87372914
v 0.63146777 0.07131643 0.87273544
v 0.62866953 0.07559959 0.86750857
v 0.62931245 0.07318486 0.87066193
v 0.63103888 0.07643092 0.87229602
v 0.62994099 0.07767790 0.86957063
v 0.62931245 0.07318486 0.87066193
v 0.63146777 0.07131643 0.87273544
v 0.63283222 0.07487629 0.87402130
v 0.63103888 0.07643092 0.87229602
v 0.63146777 0.07131643 0.87273544
v 0.63513551 0.06999428 0.87372914
v 0.63532101 0.07301400 0.87474646
v 0.63283222 0.07487629 0.87402130
v 0.63524496 0.06643571 0.86889786
v 0.63810250 0.06647772 0.86747635
v 0.63906853 0.06798013 0.87108154
v 0.63511016 0.06780152 0.87177961
v 0.63810250 0.06647772 0.86747635
v 0.64042475 0.06765434 0.86612273
v 0.64185952 0.06939425 0.86945470
v 0.63906853 0.06798013 0.87108154
v 0.64042475 0.06765434 0.86612273
v 0.64221168 0.06996557 0.86483702
v 0.64348313 0.07204389 0.86689908
v 0.64185952 0.06939425 0.86945470
v 0.63511016 0.06780152 0.87177961
v 0.63906853 0.06798013 0.87108154
v 0.63909900 0.07061550 0.87342459
v 0.63513551 0.06999428 0.87372914
v 0.63906853 0.06798013 0.87108154
v 0.64185952 0.06939425 0.86945470
v 0.64188999 0.07202962 0.87179775
v 0.63909900 0.07061550 0.87342459
v 0.64185952 0.06939425 0.86945470
v 0.64348313 0.07204389 0.86689908
v 0.64350848 0.07423665 0.86884861
v 0.64188999 0.07202962 0.87179775
v 0.63513551 0.06999428 0.87372914
v 0.63909900 0.07061550 0.87342459
v 0.63819390 0.07438383 0.87450548
v 0.63532101 0.07301400 0.87474646
v 0.63909900 0.07061550 0.87342459
v 0.64188999 0.07202962 0.87179775
v 0.64051615 0.07556045 0.87315187
v 0.63819390 0.07438383 0.87450548
v 0.64188999 0.07202962 0.87179775
v 0.64350848 0.07423665 0.86884861
v 0.64228773 0.07654386 0.87068562
v 0.64051615 0.07556045 0.87315187
v 0.63524496 0.06643571 0.86889786
v 0.63274082 0.06697018 0.86699216
v 0.63569626 0.06679689 0.86426761
v 0.63810250 0.06647772 0.86747635
v 0.63274082 0.06697018 0.86699216
v 0.63094748 0.06852481 0.86526689
v 0.63354094 0.06866532 0.86219409
v 0.63569626 0.06679689 0.86426761
v 0.63094748 0.06852481 0.86526689
v 0.62986494 0.07109961 0.86372204
v 0.63163652 0.07208303 0.86125578
v 0.63354094 0.06866532 0.86219409
v 0.63810250 0.06647772 0.86747635
v 0.63569626 0.06679689 0.86426761
v 0.63848725 0.06821101 0.86264076
v 0.64042475 0.06765434 0.86612273
v 0.63569626 0.06679689 0.86426761
v 0.63354094 0.06866532 0.86219409
v 0.63633193 0.07007944 0.86056725
v 0.63848725 0.06821101 0.86264076
v 0.63354094 0.06866532 0.86219409
v 0.63163652 0.07208303 0.86125578
v 0.63395877 0.07325965 0.85990216
v 0.63633193 0.07007944 0.86056725
v 0.64042475 0.06765434 0.86612273
v 0.63848725 0.06821101 0.86264076
v 0.64111379 0.07121255 0.86211163
v 0.64221168 0.06996557 0.86483702
v 0.63848725 0.06821101 0.86264076
v 0.63633193 0.07007944 0.86056725
v 0.63932045 0.07276718 0.86038636
v 0.64111379 0.07121255 0.86211163
v 0.63633193 0.07007944 0.86056725
v 0.63395877 0.07325965 0.85990216
v 0.63683166 0.07462947 0.85966119
v 0.63932045 0.07276718 0.86038636
v 0.64228773 0.07654386 0.87068562
v 0.64120519 0.07911866 0.86914077
v 0.63861173 0.07897815 0.87221357
v 0.64051615 0.07556045 0.87315187
v 0.64120519 0.07911866 0.86914077
v 0.63941185 0.08067329 0.86741549
v 0.63645640 0.08084658 0.87014005
v 0.63861173 0.07897815 0.87221357
v 0.63941185 0.08067329 0.86741549
v 0.63690771 0.08120776 0.86550979
v 0.63405016 0.08116576 0.86693130
v 0.63645640 0.08084658 0.87014005
v 0.64051615 0.07556045 0.87315187
v 0.63861173 0.07897815 0.87221357
v 0.63582074 0.07756403 0.87384041
v 0.63819390 0.07438383 0.87450548
v 0.63861173 0.07897815 0.87221357
v 0.63645640 0.08084658 0.87014005
v 0.63366541 0.07943246 0.87176689
v 0.63582074 0.07756403 0.87384041
v 0.63645640 0.08084658 0.87014005
v 0.63405016 0.08116576 0.86693130
v 0.63172792 0.07998914 0.86828491
v 0.63366541 0.07943246 0.87176689
v 0.63819390 0.07438383 0.87450548
v 0.63582074 0.07756403 0.87384041
v 0.63283222 0.07487629 0.87402130
v 0.63532101 0.07301400 0.87474646
v 0.63582074 0.07756403 0.87384041
v 0.63366541 0.07943246 0.87176689
v 0.63103888 0.07643092 0.87229602
v 0.63283222 0.07487629 0.87402130
v 0.63366541 0.07943246 0.87176689
v 0.63172792 0.07998914 0.86828491
v 0.62994099 0.07767790 0.86957063
v 0.63103888 0.07643092 0.87229602
v 0.64284272 0.06170760 0.87395719
v 0.64146920 0.06487146 0.87157967
v 0.64406946 0.06755254 0.87531255
v 0.64474533 0.06280538 0.87752427
v 0.64146920 0.06487146 0.87157967
v 0.63923471 0.06784969 0.87059616
v 0.64138392 0.07113193 0.87413053
v 0.64406946 0.06755254 0.87531255
v 0.63923471 0.06784969 0.87059616
v 0.63613922 0.07064228 0.87100668
v 0.63668873 0.07354353 0.87397820
v 0.64138392 0.07113193 0.87413053
v 0.64474533 0.06280538 0.87752427
v 0.64406946 0.06755254 0.87531255
v 0.64440625 0.06922590 0.87961461
v 0.64502556 0.06419771 0.88110380
v 0.64406946 0.06755254 0.87531255
v 0.64138392 0.07113193 0.87413053
v 0.64172072 0.07280528 0.87843259
v 0.64440625 0.06922590 0.87961461
v 0.64138392 0.07113193 0.87413053
v 0.63668873 0.07354353 0.87397820
v 0.63696895 0.07493585 0.87755772
v 0.64172072 0.07280528 0.87843259
v 0.64502556 0.06419771 0.88110380
v 0.64440625 0.06922590 0.87961461
v 0.64247958 0.06989155 0.88448584
v 0.64368340 0.06588457 0.88469577
v 0.64440625 0.06922590 0.87961461
v 0.64172072 0.07280528 0.87843259
v 0.64024508 0.07286978 0.88350233
v 0.64247958 0.06989155 0.88448584
v 0.64172072 0.07280528 0.87843259
v 0.63696895 0.07493585 0.87755772
v 0.63697991 0.07481924 0.88174525
v 0.64024508 0.07286978 0.88350233
v 0.63613922 0.07064228 0.87100668
v 0.63225395 0.06911704 0.87064971
v 0.63144828 0.07293573 0.87420673
v 0.63668873 0.07354353 0.87397820
v 0.63225395 0.06911704 0.87064971
v 0.62913008 0.06711162 0.87167430
v 0.62769385 0.07052552 0.87543816
v 0.63144828 0.07293573 0.87420673
v 0.62913008 0.06711162 0.87167430
v 0.62676760 0.06462603 0.87408048
v 0.62542545 0.06631290 0.87767245
v 0.62769385 0.07052552 0.87543816
v 0.63668873 0.07354353 0.87397820
v 0.63144828 0.07293573 0.87420673
v 0.63178508 0.07460909 0.87850879
v 0.63696895 0.07493585 0.87755772
v 0.63144828 0.07293573 0.87420673
v 0.62769385 0.07052552 0.87543816
v 0.62803064 0.07219888 0.87974021
v 0.63178508 0.07460909 0.87850879
v 0.62769385 0.07052552 0.87543816
v 0.62542545 0.06631290 0.87767245
v 0.62570567 0.06770521 0.88125198
v 0.62803064 0.07219888 0.87974021
v 0.63696895 0.07493585 0.87755772
v 0.63178508 0.07460909 0.87850879
v 0.63326433 0.07413713 0.88355587
v 0.63697991 0.07481924 0.88174525
v 0.63178508 0.07460909 0.87850879
v 0.62803064 0.07219888 0.87974021
v 0.63014045 0.07213171 0.88458047
v 0.63326433 0.07413713 0.88355587
v 0.62803064 0.07219888 0.87974021
v 0.62570567 0.06770521 0.88125198
v 0.62760828 0.06880299 0.88481906
v 0.63014045 0.07213171 0.88458047
v 0.62676760 0.06462603 0.87408048
v 0.62797142 0.06061905 0.87429041
v 0.62604474 0.06128470 0.87916163
v 0.62542545 0.06631290 0.87767245
v 0.62797142 0.06061905 0.87429041
v 0.63020591 0.05764082 0.87527392
v 0.62873028 0.05770532 0.88034366
v 0.62604474 0.06128470 0.87916163
v 0.63020591 0.05764082 0.87527392
v 0.63347109 0.05569135 0.87703099
v 0.63348204 0.05557475 0.88121852
v 0.62873028 0.05770532 0.88034366
v 0.62542545 0.06631290 0.87767245
v 0.62604474 0.06128470 0.87916163
v 0.62638155 0.06295806 0.88346370
v 0.62570567 0.06770521 0.88125198
v 0.62604474 0.06128470 0.87916163
v 0.62873028 0.05770532 0.88034366
v 0.62906706 0.05937868 0.88464572
v 0.62638155 0.06295806 0.88346370
v 0.62873028 0.05770532 0.88034366
v 0.63348204 0.05557475 0.88121852
v 0.63376227 0.05696707 0.88479805
v 0.62906706 0.05937868 0.88464572
v 0.62570567 0.06770521 0.88125198
v 0.62638155 0.06295806 0.88346370
v 0.62898179 0.06563914 0.88719658
v 0.62760828 0.06880299 0.88481906
v 0.62638155 0.06295806 0.88346370
v 0.62906706 0.05937868 0.88464572
v 0.63121629 0.06266091 0.88818008
v 0.62898179 0.06563914 0.88719658
v 0.62906706 0.05937868 0.88464572
v 0.63376227 0.05696707 0.88479805
v 0.63431178 0.05986831 0.88776957
v 0.63121629 0.06266091 0.88818008
v 0.63347109 0.05569135 0.87703099
v 0.63718667 0.05637347 0.87522038
v 0.63866593 0.05590151 0.88026745
v 0.63348204 0.05557475 0.88121852
v 0.63718667 0.05637347 0.87522038
v 0.64031055 0.05837889 0.87419578
v 0.64242035 0.05831172 0.87903605
v 0.63866593 0.05590151 0.88026745
v 0.64031055 0.05837889 0.87419578
v 0.64284272 0.06170760 0.87395719
v 0.64474533 0.06280538 0.87752427
v 0.64242035 0.05831172 0.87903605
v 0.63348204 0.05557475 0.88121852
v 0.63866593 0.05590151 0.88026745
v 0.63900271 0.05757488 0.88456951
v 0.63376227 0.05696707 0.88479805
v 0.63866593 0.05590151 0.88026745
v 0.64242035 0.05831172 0.87903605
v 0.64275715 0.05998509 0.88333810
v 0.63900271 0.05757488 0.88456951
v 0.64242035 0.05831172 0.87903605
v 0.64474533 0.06280538 0.87752427
v 0.64502556 0.06419771 0.88110380
v 0.64275715 0.05998509 0.88333810
v 0.63376227 0.05696707 0.88479805
v 0.63900271 0.05757488 0.88456951
v 0.63819705 0.06139356 0.88812654
v 0.63431178 0.05986831 0.88776957
v 0.63900271 0.05757488 0.88456951
v 0.64275715 0.05998509 0.88333810
v 0.64132092 0.06339898 0.88710195
v 0.63819705 0.06139356 0.88812654
v 0.64275715 0.05998509 0.88333810
v 0.64502556 0.06419771 0.88110380
v 0.64368340 0.06588457 0.88469577
v 0.64132092 0.06339898 0.88710195
v 0.63347109 0.05569135 0.87703099
v 0.63020591 0.05764082 0.87527392
v 0.63400305 0.05884214 0.87180656
v 0.63718667 0.05637347 0.87522038
v 0.63020591 0.05764082 0.87527392
v 0.62797142 0.06061905 0.87429041
v 0.63131751 0.06242152 0.87062453
v 0.63400305 0.05884214 0.87180656
v 0.62797142 0.06061905 0.87429041
v 0.62676760 0.06462603 0.87408048
v 0.62913008 0.06711162 0.87167430
v 0.63131751 0.06242152 0.87062453
v 0.63718667 0.05637347 0.87522038
v 0.63400305 0.05884214 0.87180656
v 0.63775748 0.06125235 0.87057514
v 0.64031055 0.05837889 0.87419578
v 0.63400305 0.05884214 0.87180656
v 0.63131751 0.06242152 0.87062453
v 0.63507195 0.06483173 0.86939312
v 0.63775748 0.06125235 0.87057514
v 0.63131751 0.06242152 0.87062453
v 0.62913008 0.06711162 0.87167430
v 0.63225395 0.06911704 0.87064971
v 0.63507195 0.06483173 0.86939312
v 0.64031055 0.05837889 0.87419578
v 0.63775748 0.06125235 0.87057514
v 0.64146920 0.06487146 0.87157967
v 0.64284272 0.06170760 0.87395719
v 0.63775748 0.06125235 0.87057514
v 0.63507195 0.06483173 0.86939312
v 0.63923471 0.06784969 0.87059616
v 0.64146920 0.06487146 0.87157967
v 0.63507195 0.06483173 0.86939312
v 0.63225395 0.06911704 0.87064971
v 0.63613922 0.07064228 0.87100668
v 0.63923471 0.06784969 0.87059616
v 0.64368340 0.06588457 0.88469577
v 0.64247958 0.06989155 0.88448584
v 0.63913348 0.06808907 0.88815171
v 0.64132092 0.06339898 0.88710195
v 0.64247958 0.06989155 0.88448584
v 0.64024508 0.07286978 0.88350233
v 0.63644795 0.07166846 0.88696969
v 0.63913348 0.06808907 0.88815171
v 0.64024508 0.07286978 0.88350233
v 0.63697991 0.07481924 0.88174525
v 0.63326433 0.07413713 0.88355587
v 0.63644795 0.07166846 0.88696969
v 0.64132092 0.06339898 0.88710195
v 0.63913348 0.06808907 0.88815171
v 0.63537905 0.06567886 0.88938313
v 0.63819705 0.06139356 0.88812654
v 0.63913348 0.06808907 0.88815171
v 0.63644795 0.07166846 0.88696969
v 0.63269352 0.06925825 0.88820110
v 0.63537905 0.06567886 0.88938313
v 0.63644795 0.07166846 0.88696969
v 0.63326433 0.07413713 0.88355587
v 0.63014045 0.07213171 0.88458047
v 0.63269352 0.06925825 0.88820110
v 0.63819705 0.06139356 0.88812654
v 0.63537905 0.06567886 0.88938313
v 0.63121629 0.06266091 0.88818008
v 0.63431178 0.05986831 0.88776957
v 0.63537905 0.06567886 0.88938313
v 0.63269352 0.06925825 0.88820110
v 0.62898179 0.06563914 0.88719658
v 0.63121629 0.06266091 0.88818008
v 0.63269352 0.06925825 0.88820110
v 0.63014045 0.07213171 0.88458047
v 0.62760828 0.06880299 0.88481906
v 0.62898179 0.06563914 0.88719658
v 0.65628315 0.06827511 0.86806876
v 0.65507949 0.07104774 0.86598524
v 0.65735821 0.07339728 0.86925653
v 0.65795050 0.06923715 0.87119475
v 0.65507949 0.07104774 0.86598524
v 0.65312130 0.07365769 0.86512335
v 0.65500476 0.07653405 0.86822067
v 0.65735821 0.07339728 0.86925653
v 0.65312130 0.07365769 0.86512335
v 0.65040859 0.07610496 0.86548310
v 0.65089015 0.07864745 0.86808718
v 0.65500476 0.07653405 0.86822067
v 0.65795050 0.06923715 0.87119475
v 0.65735821 0.07339728 0.86925653
v 0.65765335 0.07486372 0.87302660
v 0.65819608 0.07045730 0.87433165
v 0.65735821 0.07339728 0.86925653
v 0.65500476 0.07653405 0.86822067
v 0.65529990 0.07800048 0.87199075
v 0.65765335 0.07486372 0.87302660
v 0.65500476 0.07653405 0.86822067
v 0.65089015 0.07864745 0.86808718
v 0.65113573 0.07986760 0.87122407
v 0.65529990 0.07800048 0.87199075
v 0.65819608 0.07045730 0.87433165
v 0.65765335 0.07486372 0.87302660
v 0.65596492 0.07544706 0.87729547
v 0.65701988 0.07193557 0.87747945
v 0.65765335 0.07486372 0.87302660
v 0.65529990 0.07800048 0.87199075
v 0.65400674 0.07805701 0.87643359
v 0.65596492 0.07544706 0.87729547
v 0.65529990 0.07800048 0.87199075
v 0.65113573 0.07986760 0.87122407
v 0.65114533 0.07976540 0.87489378
v 0.65400674 0.07805701 0.87643359
v 0.65040859 0.07610496 0.86548310
v 0.64700376 0.07476832 0.86517027
v 0.64629772 0.07811480 0.86828746
v 0.65089015 0.07864745 0.86808718
v 0.64700376 0.07476832 0.86517027
v 0.64426618 0.07301088 0.86606818
v 0.64300756 0.07600263 0.86936660
v 0.64629772 0.07811480 0.86828746
v 0.64426618 0.07301088 0.86606818
v 0.64219584 0.07083265 0.86817681
v 0.64101965 0.07231093 0.87132461
v 0.64300756 0.07600263 0.86936660
v 0.65089015 0.07864745 0.86808718
v 0.64629772 0.07811480 0.86828746
v 0.64659287 0.07958124 0.87205754
v 0.65113573 0.07986760 0.87122407
v 0.64629772 0.07811480 0.86828746
v 0.64300756 0.07600263 0.86936660
v 0.64330270 0.07746907 0.87313667
v 0.64659287 0.07958124 0.87205754
v 0.64300756 0.07600263 0.86936660
v 0.64101965 0.07231093 0.87132461
v 0.64126523 0.07353107 0.87446151
v 0.64330270 0.07746907 0.87313667
v 0.65113573 0.07986760 0.87122407
v 0.64659287 0.07958124 0.87205754
v 0.64788920 0.07916764 0.87648051
v 0.65114533 0.07976540 0.87489378
v 0.64659287 0.07958124 0.87205754
v 0.64330270 0.07746907 0.87313667
v 0.64515162 0.07741020 0.87737840
v 0.64788920 0.07916764 0.87648051
v 0.64330270 0.07746907 0.87313667
v 0.64126523 0.07353107 0.87446151
v 0.64293257 0.07449311 0.87758749
v 0.64515162 0.07741020 0.87737840
v 0.64219584 0.07083265 0.86817681
v 0.64325079 0.06732116 0.86836079
v 0.64156237 0.06790450 0.87262965
v 0.64101965 0.07231093 0.87132461
v 0.64325079 0.06732116 0.86836079
v 0.64520899 0.06471122 0.86922268
v 0.64391582 0.06476773 0.87366550
v 0.64156237 0.06790450 0.87262965
v 0.64520899 0.06471122 0.86922268
v 0.64807040 0.06300281 0.87076247
v 0.64807999 0.06290062 0.87443219
v 0.64391582 0.06476773 0.87366550
v 0.64101965 0.07231093 0.87132461
v 0.64156237 0.06790450 0.87262965
v 0.64185751 0.06937094 0.87639973
v 0.64126523 0.07353107 0.87446151
v 0.64156237 0.06790450 0.87262965
v 0.64391582 0.06476773 0.87366550
v 0.64421097 0.06623417 0.87743559
v 0.64185751 0.06937094 0.87639973
v 0.64391582 0.06476773 0.87366550
v 0.64807999 0.06290062 0.87443219
v 0.64832557 0.06412077 0.87756908
v 0.64421097 0.06623417 0.87743559
v 0.64126523 0.07353107 0.87446151
v 0.64185751 0.06937094 0.87639973
v 0.64413624 0.07172049 0.87967102
v 0.64293257 0.07449311 0.87758749
v 0.64185751 0.06937094 0.87639973
v 0.64421097 0.06623417 0.87743559
v 0.64609442 0.06911053 0.88053291
v 0.64413624 0.07172049 0.87967102
v 0.64421097 0.06623417 0.87743559
v 0.64832557 0.06412077 0.87756908
v 0.64880713 0.06666326 0.88017315
v 0.64609442 0.06911053 0.88053291
v 0.64807040 0.06300281 0.87076247
v 0.65132652 0.06360058 0.86917576
v 0.65262285 0.06318698 0.87359873
v 0.64807999 0.06290062 0.87443219
v 0.65132652 0.06360058 0.86917576
v 0.65406411 0.06535801 0.86827785
v 0.65591302 0.06529915 0.87251959
v 0.65262285 0.06318698 0.87359873
v 0.65406411 0.06535801 0.86827785
v 0.65628315 0.06827511 0.86806876
v 0.65795050 0.06923715 0.87119475
v 0.65591302 0.06529915 0.87251959
v 0.64807999 0.06290062 0.87443219
v 0.65262285 0.06318698 0.87359873
v 0.65291800 0.06465342 0.87736880
v 0.64832557 0.06412077 0.87756908
v 0.65262285 0.06318698 0.87359873
v 0.65591302 0.06529915 0.87251959
v 0.65620817 0.06676559 0.87628966
v 0.65291800 0.06465342 0.87736880
v 0.65591302 0.06529915 0.87251959
v 0.65795050 0.06923715 0.87119475
v 0.65819608 0.07045730 0.87433165
v 0.65620817 0.06676559 0.87628966
v 0.64832557 0.06412077 0.87756908
v 0.65291800 0.06465342 0.87736880
v 0.65221195 0.06799989 0.88048598
v 0.64880713 0.06666326 0.88017315
v 0.65291800 0.06465342 0.87736880
v 0.65620817 0.06676559 0.87628966
v 0.65494954 0.06975734 0.87958808
v 0.65221195 0.06799989 0.88048598
v 0.65620817 0.06676559 0.87628966
v 0.65819608 0.07045730 0.87433165
v 0.65701988 0.07193557 0.87747945
v 0.65494954 0.06975734 0.87958808
v 0.64807040 0.06300281 0.87076247
v 0.64520899 0.06471122 0.86922268
v 0.64853657 0.06576398 0.86618407
v 0.65132652 0.06360058 0.86917576
v 0.64520899 0.06471122 0.86922268
v 0.64325079 0.06732116 0.86836079
v 0.64618313 0.06890075 0.86514822
v 0.64853657 0.06576398 0.86618407
v 0.64325079 0.06732116 0.86836079
v 0.64219584 0.07083265 0.86817681
v 0.64426618 0.07301088 0.86606818
v 0.64618313 0.06890075 0.86514822
v 0.65132652 0.06360058 0.86917576
v 0.64853657 0.06576398 0.86618407
v 0.65182674 0.06787615 0.86510493
v 0.65406411 0.06535801 0.86827785
v 0.64853657 0.06576398 0.86618407
v 0.64618313 0.06890075 0.86514822
v 0.64947329 0.07101291 0.86406907
v 0.65182674 0.06787615 0.86510493
v 0.64618313 0.06890075 0.86514822
v 0.64426618 0.07301088 0.86606818
v 0.64700376 0.07476832 0.86517027
v 0.64947329 0.07101291 0.86406907
v 0.65406411 0.06535801 0.86827785
v 0.65182674 0.06787615 0.86510493
v 0.65507949 0.07104774 0.86598524
v 0.65628315 0.06827511 0.86806876
v 0.65182674 0.06787615 0.86510493
v 0.64947329 0.07101291 0.86406907
v 0.65312130 0.07365769 0.86512335
v 0.65507949 0.07104774 0.86598524
v 0.64947329 0.07101291 0.86406907
v 0.64700376 0.07476832 0.86517027
v 0.65040859 0.07610496 0.86548310
v 0.65312130 0.07365769 0.86512335
v 0.65701988 0.07193557 0.87747945
v 0.65596492 0.07544706 0.87729547
v 0.65303260 0.07386748 0.88050804
v 0.65494954 0.06975734 0.87958808
v 0.65596492 0.07544706 0.87729547
v 0.65400674 0.07805701 0.87643359
v 0.65067915 0.07700424 0.87947219
v 0.65303260 0.07386748 0.88050804
v 0.65400674 0.07805701 0.87643359
v 0.65114533 0.07976540 0.87489378
v 0.64788920 0.07916764 0.87648051
v 0.65067915 0.07700424 0.87947219
v 0.65494954 0.06975734 0.87958808
v 0.65303260 0.07386748 0.88050804
v 0.64974243 0.07175530 0.88158718
v 0.65221195 0.06799989 0.88048598
v 0.65303260 0.07386748 0.88050804
v 0.65067915 0.07700424 0.87947219
v 0.64738898 0.07489206 0.88055133
v 0.64974243 0.07175530 0.88158718
v 0.65067915 0.07700424 0.87947219
v 0.64788920 0.07916764 0.87648051
v 0.64515162 0.07741020 0.87737840
v 0.64738898 0.07489206 0.88055133
v 0.65221195 0.06799989 0.88048598
v 0.64974243 0.07175530 0.88158718
v 0.64609442 0.06911053 0.88053291
v 0.64880713 0.06666326 0.88017315
v 0.64974243 0.07175530 0.88158718
v 0.64738898 0.07489206 0.88055133
v 0.64413624 0.07172049 0.87967102
v 0.64609442 0.06911053 0.88053291
v 0.64738898 0.07489206 0.88055133
v 0.64515162 0.07741020 0.87737840
v 0.64293257 0.07449311 0.87758749
v 0.64413624 0.07172049 0.87967102
v 0.65082871 0.05818082 0.87747434
v 0.64983539 0.06046892 0.87575492
v 0.65171588 0.06240787 0.87845455
v 0.65220467 0.05897473 0.88005405
v 0.64983539 0.06046892 0.87575492
v 0.64821940 0.06262276 0.87504366
v 0.64977371 0.06499647 0.87759970
v 0.65171588 0.06240787 0.87845455
v 0.64821940 0.06262276 0.87504366
v 0.64598075 0.06464237 0.87534054
v 0.64637815 0.06674054 0.87748953
v 0.64977371 0.06499647 0.87759970
v 0.65220467 0.05897473 0.88005405
v 0.65171588 0.06240787 0.87845455
v 0.65195946 0.06361804 0.88156579
v 0.65240733 0.05998165 0.88264277
v 0.65171588 0.06240787 0.87845455
v 0.64977371 0.06499647 0.87759970
v 0.65001728 0.06620664 0.88071094
v 0.65195946 0.06361804 0.88156579
v 0.64977371 0.06499647 0.87759970
v 0.64637815 0.06674054 0.87748953
v 0.64658081 0.06774747 0.88007824
v 0.65001728 0.06620664 0.88071094
v 0.65240733 0.05998165 0.88264277
v 0.65195946 0.06361804 0.88156579
v 0.65056608 0.06409943 0.88508865
v 0.65143669 0.06120159 0.88524047
v 0.65195946 0.06361804 0.88156579
v 0.65001728 0.06620664 0.88071094
v 0.64895010 0.06625328 0.88437737
v 0.65056608 0.06409943 0.88508865
v 0.65001728 0.06620664 0.88071094
v 0.64658081 0.06774747 0.88007824
v 0.64658874 0.06766315 0.88310666
v 0.64895010 0.06625328 0.88437737
v 0.64598075 0.06464237 0.87534054
v 0.64317092 0.06353931 0.87508238
v 0.64258826 0.06630099 0.87765482
v 0.64637815 0.06674054 0.87748953
v 0.64317092 0.06353931 0.87508238
v 0.64091174 0.06208900 0.87582337
v 0.63987307 0.06455792 0.87854537
v 0.64258826 0.06630099 0.87765482
v 0.64091174 0.06208900 0.87582337
v 0.63920321 0.06029142 0.87756351
v 0.63823256 0.06151136 0.88016122
v 0.63987307 0.06455792 0.87854537
v 0.64637815 0.06674054 0.87748953
v 0.64258826 0.06630099 0.87765482
v 0.64283184 0.06751115 0.88076606
v 0.64658081 0.06774747 0.88007824
v 0.64258826 0.06630099 0.87765482
v 0.63987307 0.06455792 0.87854537
v 0.64011664 0.06576809 0.88165662
v 0.64283184 0.06751115 0.88076606
v 0.63987307 0.06455792 0.87854537
v 0.63823256 0.06151136 0.88016122
v 0.63843522 0.06251829 0.88274992
v 0.64011664 0.06576809 0.88165662
v 0.64658081 0.06774747 0.88007824
v 0.64283184 0.06751115 0.88076606
v 0.64390162 0.06716984 0.88441610
v 0.64658874 0.06766315 0.88310666
v 0.64283184 0.06751115 0.88076606
v 0.64011664 0.06576809 0.88165662
v 0.64164245 0.06571952 0.88515709
v 0.64390162 0.06716984 0.88441610
v 0.64011664 0.06576809 0.88165662
v 0.63843522 0.06251829 0.88274992
v 0.63981118 0.06331220 0.88532963
v 0.64164245 0.06571952 0.88515709
v 0.63920321 0.06029142 0.87756351
v 0.64007380 0.05739357 0.87771534
v 0.63868043 0.05787498 0.88123820
v 0.63823256 0.06151136 0.88016122
v 0.64007380 0.05739357 0.87771534
v 0.64168979 0.05523972 0.87842660
v 0.64062261 0.05528637 0.88209303
v 0.63868043 0.05787498 0.88123820
v 0.64168979 0.05523972 0.87842660
v 0.64405117 0.05382987 0.87969731
v 0.64405908 0.05374555 0.88272573
v 0.64062261 0.05528637 0.88209303
v 0.63823256 0.06151136 0.88016122
v 0.63868043 0.05787498 0.88123820
v 0.63892400 0.05908515 0.88434944
v 0.63843522 0.06251829 0.88274992
v 0.63868043 0.05787498 0.88123820
v 0.64062261 0.05528637 0.88209303
v 0.64086618 0.05649654 0.88520427
v 0.63892400 0.05908515 0.88434944
v 0.64062261 0.05528637 0.88209303
v 0.64405908 0.05374555 0.88272573
v 0.64426174 0.05475247 0.88531444
v 0.64086618 0.05649654 0.88520427
v 0.63843522 0.06251829 0.88274992
v 0.63892400 0.05908515 0.88434944
v 0.64080451 0.06102410 0.88704905
v 0.63981118 0.06331220 0.88532963
v 0.63892400 0.05908515 0.88434944
v 0.64086618 0.05649654 0.88520427
v 0.64242050 0.05887025 0.88776033
v 0.64080451 0.06102410 0.88704905
v 0.64086618 0.05649654 0.88520427
v 0.64426174 0.05475247 0.88531444
v 0.64465914 0.05685064 0.88746343
v 0.64242050 0.05887025 0.88776033
v 0.64405117 0.05382987 0.87969731
v 0.64673826 0.05432318 0.87838788
v 0.64780805 0.05398185 0.88203792
v 0.64405908 0.05374555 0.88272573
v 0.64673826 0.05432318 0.87838788
v 0.64899744 0.05577350 0.87764690
v 0.65052325 0.05572492 0.88114737
v 0.64780805 0.05398185 0.88203792
v 0.64899744 0.05577350 0.87764690
v 0.65082871 0.05818082 0.87747434
v 0.65220467 0.05897473 0.88005405
v 0.65052325 0.05572492 0.88114737
v 0.64405908 0.05374555 0.88272573
v 0.64780805 0.05398185 0.88203792
v 0.64805163 0.05519203 0.88514917
v 0.64426174 0.05475247 0.88531444
v 0.64780805 0.05398185 0.88203792
v 0.65052325 0.05572492 0.88114737
v 0.65076683 0.05693509 0.88425860
v 0.64805163 0.05519203 0.88514917
v 0.65052325 0.05572492 0.88114737
v 0.65220467 0.05897473 0.88005405
v 0.65240733 0.05998165 0.88264277
v 0.65076683 0.05693509 0.88425860
v 0.64426174 0.05475247 0.88531444
v 0.64805163 0.05519203 0.88514917
v 0.64746897 0.05795370 0.88772160
v 0.64465914 0.05685064 0.88746343
v 0.64805163 0.05519203 0.88514917
v 0.65076683 0.05693509 0.88425860
v 0.64972814 0.05940401 0.88698061
v 0.64746897 0.05795370 0.88772160
v 0.65076683 0.05693509 0.88425860
v 0.65240733 0.05998165 0.88264277
v 0.65143669 0.06120159 0.88524047
v 0.64972814 0.05940401 0.88698061
v 0.64405117 0.05382987 0.87969731
v 0.64168979 0.05523972 0.87842660
v 0.64443588 0.05610852 0.87591901
v 0.64673826 0.05432318 0.87838788
v 0.64168979 0.05523972 0.87842660
v 0.64007380 0.05739357 0.87771534
v 0.64249370 0.05869712 0.87506416
v 0.64443588 0.05610852 0.87591901
v 0.64007380 0.05739357 0.87771534
v 0.63920321 0.06029142 0.87756351
v 0.64091174 0.06208900 0.87582337
v 0.64249370 0.05869712 0.87506416
v 0.64673826 0.05432318 0.87838788
v 0.64443588 0.05610852 0.87591901
v 0.64715107 0.05785157 0.87502845
v 0.64899744 0.05577350 0.87764690
v 0.64443588 0.05610852 0.87591901
v 0.64249370 0.05869712 0.87506416
v 0.64520890 0.06044018 0.87417362
v 0.64715107 0.05785157 0.87502845
v 0.64249370 0.05869712 0.87506416
v 0.64091174 0.06208900 0.87582337
v 0.64317092 0.06353931 0.87508238
v 0.64520890 0.06044018 0.87417362
v 0.64899744 0.05577350 0.87764690
v 0.64715107 0.05785157 0.87502845
v 0.64983539 0.06046892 0.87575492
v 0.65082871 0.05818082 0.87747434
v 0.64715107 0.05785157 0.87502845
v 0.64520890 0.06044018 0.87417362
v 0.64821940 0.06262276 0.87504366
v 0.64983539 0.06046892 0.87575492
v 0.64520890 0.06044018 0.87417362
v 0.64317092 0.06353931 0.87508238
v 0.64598075 0.06464237 0.87534054
v 0.64821940 0.06262276 0.87504366
v 0.65143669 0.06120159 0.88524047
v 0.65056608 0.06409943 0.88508865
v 0.64814620 0.06279589 0.88773980
v 0.64972814 0.05940401 0.88698061
v 0.65056608 0.06409943 0.88508865
v 0.64895010 0.06625328 0.88437737
v 0.64620402 0.06538449 0.88688496
v 0.64814620 0.06279589 0.88773980
v 0.64895010 0.06625328 0.88437737
v 0.64658874 0.06766315 0.88310666
v 0.64390162 0.06716984 0.88441610
v 0.64620402 0.06538449 0.88688496
v 0.64972814 0.05940401 0.88698061
v 0.64814620 0.06279589 0.88773980
v 0.64543100 0.06105283 0.88863037
v 0.64746897 0.05795370 0.88772160
v 0.64814620 0.06279589 0.88773980
v 0.64620402 0.06538449 0.88688496
v 0.64348882 0.06364143 0.88777553
v 0.64543100 0.06105283 0.88863037
v 0.64620402 0.06538449 0.88688496
v 0.64390162 0.06716984 0.88441610
v 0.64164245 0.06571952 0.88515709
v 0.64348882 0.06364143 0.88777553
v 0.64746897 0.05795370 0.88772160
v 0.64543100 0.06105283 0.88863037
v 0.64242050 0.05887025 0.88776033
v 0.64465914 0.05685064 0.88746343
v 0.64543100 0.06105283 0.88863037
v 0.64348882 0.06364143 0.88777553
v 0.64080451 0.06102410 0.88704905
v 0.64242050 0.05887025 0.88776033
v 0.64348882 0.06364143 0.88777553
v 0.64164245 0.06571952 0.88515709
v 0.63981118 0.06331220 0.88532963
v 0.64080451 0.06102410 0.88704905
v 0.64372183 0.07302217 0.87004962
v 0.64278369 0.07518315 0.86842573
v 0.64455972 0.07701438 0.87097537
v 0.64502136 0.07377197 0.87248602
v 0.64278369 0.07518315 0.86842573
v 0.64125748 0.07721735 0.86775397
v 0.64272545 0.07945918 0.87016801
v 0.64455972 0.07701438 0.87097537
v 0.64125748 0.07721735 0.86775397
v 0.63914319 0.07912475 0.86803435
v 0.63951852 0.08110637 0.87006396
v 0.64272545 0.07945918 0.87016801
v 0.64502136 0.07377197 0.87248602
v 0.64455972 0.07701438 0.87097537
v 0.64478977 0.07815734 0.87391378
v 0.64521277 0.07472297 0.87493093
v 0.64455972 0.07701438 0.87097537
v 0.64272545 0.07945918 0.87016801
v 0.64295549 0.08060213 0.87310643
v 0.64478977 0.07815734 0.87391378
v 0.64272545 0.07945918 0.87016801
v 0.63951852 0.08110637 0.87006396
v 0.63970993 0.08205736 0.87250888
v 0.64295549 0.08060213 0.87310643
v 0.64521277 0.07472297 0.87493093
v 0.64478977 0.07815734 0.87391378
v 0.64347380 0.07861198 0.87724093
v 0.64429605 0.07587512 0.87738432
v 0.64478977 0.07815734 0.87391378
v 0.64295549 0.08060213 0.87310643
v 0.64194759 0.08064618 0.87656917
v 0.64347380 0.07861198 0.87724093
v 0.64295549 0.08060213 0.87310643
v 0.63970993 0.08205736 0.87250888
v 0.63971740 0.08197771 0.87536905
v 0.64194759 0.08064618 0.87656917
v 0.63914319 0.07912475 0.86803435
v 0.63648946 0.07808298 0.86779054
v 0.63593917 0.08069123 0.87022008
v 0.63951852 0.08110637 0.87006396
v 0.63648946 0.07808298 0.86779054
v 0.63435579 0.07671323 0.86849037
v 0.63337481 0.07904500 0.87106115
v 0.63593917 0.08069123 0.87022008
v 0.63435579 0.07671323 0.86849037
v 0.63274217 0.07501552 0.87013383
v 0.63182545 0.07616768 0.87258723
v 0.63337481 0.07904500 0.87106115
v 0.63951852 0.08110637 0.87006396
v 0.63593917 0.08069123 0.87022008
v 0.63616922 0.08183417 0.87315848
v 0.63970993 0.08205736 0.87250888
v 0.63593917 0.08069123 0.87022008
v 0.63337481 0.07904500 0.87106115
v 0.63360486 0.08018794 0.87399956
v 0.63616922 0.08183417 0.87315848
v 0.63337481 0.07904500 0.87106115
v 0.63182545 0.07616768 0.87258723
v 0.63201685 0.07711867 0.87503213
v 0.63360486 0.08018794 0.87399956
v 0.63970993 0.08205736 0.87250888
v 0.63616922 0.08183417 0.87315848
v 0.63717958 0.08151181 0.87660574
v 0.63971740 0.08197771 0.87536905
v 0.63616922 0.08183417 0.87315848
v 0.63360486 0.08018794 0.87399956
v 0.63504590 0.08014206 0.87730557
v 0.63717958 0.08151181 0.87660574
v 0.63360486 0.08018794 0.87399956
v 0.63201685 0.07711867 0.87503213
v 0.63331637 0.07786847 0.87746852
v 0.63504590 0.08014206 0.87730557
v 0.63274217 0.07501552 0.87013383
v 0.63356440 0.07227866 0.87027723
v 0.63224844 0.07273331 0.87360438
v 0.63182545 0.07616768 0.87258723
v 0.63356440 0.07227866 0.87027723
v 0.63509062 0.07024446 0.87094899
v 0.63408272 0.07028852 0.87441174
v 0.63224844 0.07273331 0.87360438
v 0.63509062 0.07024446 0.87094899
v 0.63732080 0.06891293 0.87214911
v 0.63732828 0.06883328 0.87500928
v 0.63408272 0.07028852 0.87441174
v 0.63182545 0.07616768 0.87258723
v 0.63224844 0.07273331 0.87360438
v 0.63247848 0.07387626 0.87654278
v 0.63201685 0.07711867 0.87503213
v 0.63224844 0.07273331 0.87360438
v 0.63408272 0.07028852 0.87441174
v 0.63431276 0.07143146 0.87735014
v 0.63247848 0.07387626 0.87654278
v 0.63408272 0.07028852 0.87441174
v 0.63732828 0.06883328 0.87500928
v 0.63751968 0.06978428 0.87745418
v 0.63431276 0.07143146 0.87735014
v 0.63201685 0.07711867 0.87503213
v 0.63247848 0.07387626 0.87654278
v 0.63425451 0.07570749 0.87909243
v 0.63331637 0.07786847 0.87746852
v 0.63247848 0.07387626 0.87654278
v 0.63431276 0.07143146 0.87735014
v 0.63578073 0.07367329 0.87976419
v 0.63425451 0.07570749 0.87909243
v 0.63431276 0.07143146 0.87735014
v 0.63751968 0.06978428 0.87745418
v 0.63789501 0.07176588 0.87948379
v 0.63578073 0.07367329 0.87976419
v 0.63732080 0.06891293 0.87214911
v 0.63985863 0.06937883 0.87091241
v 0.64086899 0.06905647 0.87435968
v 0.63732828 0.06883328 0.87500928
v 0.63985863 0.06937883 0.87091241
v 0.64199231 0.07074857 0.87021258
v 0.64343335 0.07070270 0.87351860
v 0.64086899 0.06905647 0.87435968
v 0.64199231 0.07074857 0.87021258
v 0.64372183 0.07302217 0.87004962
v 0.64502136 0.07377197 0.87248602
v 0.64343335 0.07070270 0.87351860
v 0.63732828 0.06883328 0.87500928
v 0.64086899 0.06905647 0.87435968
v 0.64109903 0.07019941 0.87729809
v 0.63751968 0.06978428 0.87745418
v 0.64086899 0.06905647 0.87435968
v 0.64343335 0.07070270 0.87351860
v 0.64366339 0.07184565 0.87645700
v 0.64109903 0.07019941 0.87729809
v 0.64343335 0.07070270 0.87351860
v 0.64502136 0.07377197 0.87248602
v 0.64521277 0.07472297 0.87493093
v 0.64366339 0.07184565 0.87645700
v 0.63751968 0.06978428 0.87745418
v 0.64109903 0.07019941 0.87729809
v 0.64054874 0.07280766 0.87972762
v 0.63789501 0.07176588 0.87948379
v 0.64109903 0.07019941 0.87729809
v 0.64366339 0.07184565 0.87645700
v 0.64268242 0.07417740 0.87902779
v 0.64054874 0.07280766 0.87972762
v 0.64366339 0.07184565 0.87645700
v 0.64521277 0.07472297 0.87493093
v 0.64429605 0.07587512 0.87738432
v 0.64268242 0.07417740 0.87902779
v 0.63732080 0.06891293 0.87214911
v 0.63509062 0.07024446 0.87094899
v 0.63768414 0.07106499 0.86858070
v 0.63985863 0.06937883 0.87091241
v 0.63509062 0.07024446 0.87094899
v 0.63356440 0.07227866 0.87027723
v 0.63584986 0.07350979 0.86777334
v 0.63768414 0.07106499 0.86858070
v 0.63356440 0.07227866 0.87027723
v 0.63274217 0.07501552 0.87013383
v 0.63435579 0.07671323 0.86849037
v 0.63584986 0.07350979 0.86777334
v 0.63985863 0.06937883 0.87091241
v 0.63768414 0.07106499 0.86858070
v 0.64024850 0.07271121 0.86773961
v 0.64199231 0.07074857 0.87021258
v 0.63768414 0.07106499 0.86858070
v 0.63584986 0.07350979 0.86777334
v 0.63841423 0.07515602 0.86693226
v 0.64024850 0.07271121 0.86773961
v 0.63584986 0.07350979 0.86777334
v 0.63435579 0.07671323 0.86849037
v 0.63648946 0.07808298 0.86779054
v 0.63841423 0.07515602 0.86693226
v 0.64199231 0.07074857 0.87021258
v 0.64024850 0.07271121 0.86773961
v 0.64278369 0.07518315 0.86842573
v 0.64372183 0.07302217 0.87004962
v 0.64024850 0.07271121 0.86773961
v 0.63841423 0.07515602 0.86693226
v 0.64125748 0.07721735 0.86775397
v 0.64278369 0.07518315 0.86842573
v 0.63841423 0.07515602 0.86693226
v 0.63648946 0.07808298 0.86779054
v 0.63914319 0.07912475 0.86803435
v 0.64125748 0.07721735 0.86775397
v 0.64429605 0.07587512 0.87738432
v 0.64347380 0.07861198 0.87724093
v 0.64118834 0.07738086 0.87974481
v 0.64268242 0.07417740 0.87902779
v 0.64347380 0.07861198 0.87724093
v 0.64194759 0.08064618 0.87656917
v 0.63935406 0.07982566 0.87893746
v 0.64118834 0.07738086 0.87974481
v 0.64194759 0.08064618 0.87656917
v 0.63971740 0.08197771 0.87536905
v 0.63717958 0.08151181 0.87660574
v 0.63935406 0.07982566 0.87893746
v 0.64268242 0.07417740 0.87902779
v 0.64118834 0.07738086 0.87974481
v 0.63862399 0.07573462 0.88058589
v 0.64054874 0.07280766 0.87972762
v 0.64118834 0.07738086 0.87974481
v 0.63935406 0.07982566 0.87893746
v 0.63678970 0.07817942 0.87977855
v 0.63862399 0.07573462 0.88058589
v 0.63935406 0.07982566 0.87893746
v 0.63717958 0.08151181 0.87660574
v 0.63504590 0.08014206 0.87730557
v 0.63678970 0.07817942 0.87977855
v 0.64054874 0.07280766 0.87972762
v 0.63862399 0.07573462 0.88058589
v 0.63578073 0.07367329 0.87976419
v 0.63789501 0.07176588 0.87948379
v 0.63862399 0.07573462 0.88058589
v 0.63678970 0.07817942 0.87977855
v 0.63425451 0.07570749 0.87909243
v 0.63578073 0.07367329 0.87976419
v 0.63678970 0.07817942 0.87977855
v 0.63504590 0.08014206 0.87730557
v 0.63331637 0.07786847 0.87746852
v 0.63425451 0.07570749 0.87909243
v 0.63239765 0.06709426 0.86786530
v 0.63189835 0.06824440 0.86700101
v 0.63284360 0.06921904 0.86835801
v 0.63308930 0.06749333 0.86916202
v 0.63189835 0.06824440 0.86700101
v 0.63108605 0.06932706 0.86664348
v 0.63186735 0.07052023 0.86792831
v 0.63284360 0.06921904 0.86835801
v 0.63108605 0.06932706 0.86664348
v 0.62996077 0.07034223 0.86679271
v 0.63016052 0.07139690 0.86787293
v 0.63186735 0.07052023 0.86792831
v 0.63308930 0.06749333 0.86916202
v 0.63284360 0.06921904 0.86835801
v 0.63296604 0.06982735 0.86992190
v 0.63319117 0.06799947 0.87046326
v 0.63284360 0.06921904 0.86835801
v 0.63186735 0.07052023 0.86792831
v 0.63198978 0.07112854 0.86949221
v 0.63296604 0.06982735 0.86992190
v 0.63186735 0.07052023 0.86792831
v 0.63016052 0.07139690 0.86787293
v 0.63026240 0.07190305 0.86917418
v 0.63198978 0.07112854 0.86949221
v 0.63319117 0.06799947 0.87046326
v 0.63296604 0.06982735 0.86992190
v 0.63226565 0.07006933 0.87169271
v 0.63270326 0.06861269 0.87176903
v 0.63296604 0.06982735 0.86992190
v 0.63198978 0.07112854 0.86949221
v 0.63145335 0.07115198 0.87133518
v 0.63226565 0.07006933 0.87169271
v 0.63198978 0.07112854 0.86949221
v 0.63026240 0.07190305 0.86917418
v 0.63026637 0.07186067 0.87069644
v 0.63145335 0.07115198 0.87133518
v 0.62996077 0.07034223 0.86679271
v 0.62854838 0.06978778 0.86666295
v 0.62825550 0.07117596 0.86795601
v 0.63016052 0.07139690 0.86787293
v 0.62854838 0.06978778 0.86666295
v 0.62741277 0.06905875 0.86703541
v 0.62689067 0.07029978 0.86840366
v 0.62825550 0.07117596 0.86795601
v 0.62741277 0.06905875 0.86703541
v 0.62655395 0.06815518 0.86791012
v 0.62606606 0.06876839 0.86921588
v 0.62689067 0.07029978 0.86840366
v 0.63016052 0.07139690 0.86787293
v 0.62825550 0.07117596 0.86795601
v 0.62837792 0.07178426 0.86951991
v 0.63026240 0.07190305 0.86917418
v 0.62825550 0.07117596 0.86795601
v 0.62689067 0.07029978 0.86840366
v 0.62701311 0.07090809 0.86996756
v 0.62837792 0.07178426 0.86951991
v 0.62689067 0.07029978 0.86840366
v 0.62606606 0.06876839 0.86921588
v 0.62616792 0.06927454 0.87051713
v 0.62701311 0.07090809 0.86996756
v 0.63026240 0.07190305 0.86917418
v 0.62837792 0.07178426 0.86951991
v 0.62891567 0.07161269 0.87135464
v 0.63026637 0.07186067 0.87069644
v 0.62837792 0.07178426 0.86951991
v 0.62701311 0.07090809 0.86996756
v 0.62778007 0.07088368 0.87172711
v 0.62891567 0.07161269 0.87135464
v 0.62701311 0.07090809 0.86996756
v 0.62616792 0.06927454 0.87051713
v 0.62685956 0.06967360 0.87181384
v 0.62778007 0.07088368 0.87172711
v 0.62655395 0.06815518 0.86791012
v 0.62699157 0.06669854 0.86798643
v 0.62629119 0.06694052 0.86975723
v 0.62606606 0.06876839 0.86921588
v 0.62699157 0.06669854 0.86798643
v 0.62780387 0.06561589 0.86834396
v 0.62726744 0.06563933 0.87018693
v 0.62629119 0.06694052 0.86975723
v 0.62780387 0.06561589 0.86834396
v 0.62899084 0.06490721 0.86898270
v 0.62899482 0.06486482 0.87050497
v 0.62726744 0.06563933 0.87018693
v 0.62606606 0.06876839 0.86921588
v 0.62629119 0.06694052 0.86975723
v 0.62641362 0.06754883 0.87132114
v 0.62616792 0.06927454 0.87051713
v 0.62629119 0.06694052 0.86975723
v 0.62726744 0.06563933 0.87018693
v 0.62738987 0.06624765 0.87175083
v 0.62641362 0.06754883 0.87132114
v 0.62726744 0.06563933 0.87018693
v 0.62899482 0.06486482 0.87050497
v 0.62909669 0.06537096 0.87180621
v 0.62738987 0.06624765 0.87175083
v 0.62616792 0.06927454 0.87051713
v 0.62641362 0.06754883 0.87132114
v 0.62735887 0.06852347 0.87267814
v 0.62685956 0.06967360 0.87181384
v 0.62641362 0.06754883 0.87132114
v 0.62738987 0.06624765 0.87175083
v 0.62817116 0.06744082 0.87303566
v 0.62735887 0.06852347 0.87267814
v 0.62738987 0.06624765 0.87175083
v 0.62909669 0.06537096 0.87180621
v 0.62929645 0.06642563 0.87288643
v 0.62817116 0.06744082 0.87303566
v 0.62899084 0.06490721 0.86898270
v 0.63034154 0.06515517 0.86832449
v 0.63087929 0.06498361 0.87015924
v 0.62899482 0.06486482 0.87050497
v 0.63034154 0.06515517 0.86832449
v 0.63147715 0.06588419 0.86795202
v 0.63224411 0.06585978 0.86971158
v 0.63087929 0.06498361 0.87015924
v 0.63147715 0.06588419 0.86795202
v 0.63239765 0.06709426 0.86786530
v 0.63308930 0.06749333 0.86916202
v 0.63224411 0.06585978 0.86971158
v 0.62899482 0.06486482 0.87050497
v 0.63087929 0.06498361 0.87015924
v 0.63100172 0.06559191 0.87172313
v 0.62909669 0.06537096 0.87180621
v 0.63087929 0.06498361 0.87015924
v 0.63224411 0.06585978 0.86971158
v 0.63236654 0.06646809 0.87127548
v 0.63100172 0.06559191 0.87172313
v 0.63224411 0.06585978 0.86971158
v 0.63308930 0.06749333 0.86916202
v 0.63319117 0.06799947 0.87046326
v 0.63236654 0.06646809 0.87127548
v 0.62909669 0.06537096 0.87180621
v 0.63100172 0.06559191 0.87172313
v 0.63070884 0.06698010 0.87301620
v 0.62929645 0.06642563 0.87288643
v 0.63100172 0.06559191 0.87172313
v 0.63236654 0.06646809 0.87127548
v 0.63184445 0.06770912 0.87264373
v 0.63070884 0.06698010 0.87301620
v 0.63236654 0.06646809 0.87127548
v 0.63319117 0.06799947 0.87046326
v 0.63270326 0.06861269 0.87176903
v 0.63184445 0.06770912 0.87264373
v 0.62899084 0.06490721 0.86898270
v 0.62780387 0.06561589 0.86834396
v 0.62918422 0.06605259 0.86708349
v 0.63034154 0.06515517 0.86832449
v 0.62780387 0.06561589 0.86834396
v 0.62699157 0.06669854 0.86798643
v 0.62820796 0.06735379 0.86665380
v 0.62918422 0.06605259 0.86708349
v 0.62699157 0.06669854 0.86798643
v 0.62655395 0.06815518 0.86791012
v 0.62741277 0.06905875 0.86703541
v 0.62820796 0.06735379 0.86665380
v 0.63034154 0.06515517 0.86832449
v 0.62918422 0.06605259 0.86708349
v 0.63054905 0.06692877 0.86663584
v 0.63147715 0.06588419 0.86795202
v 0.62918422 0.06605259 0.86708349
v 0.62820796 0.06735379 0.86665380
v 0.62957279 0.06822996 0.86620614
v 0.63054905 0.06692877 0.86663584
v 0.62820796 0.06735379 0.86665380
v 0.62741277 0.06905875 0.86703541
v 0.62854838 0.06978778 0.86666295
v 0.62957279 0.06822996 0.86620614
v 0.63147715 0.06588419 0.86795202
v 0.63054905 0.06692877 0.86663584
v 0.63189835 0.06824440 0.86700101
v 0.63239765 0.06709426 0.86786530
v 0.63054905 0.06692877 0.86663584
v 0.62957279 0.06822996 0.86620614
v 0.63108605 0.06932706 0.86664348
v 0.63189835 0.06824440 0.86700101
v 0.62957279 0.06822996 0.86620614
v 0.62854838 0.06978778 0.86666295
v 0.62996077 0.07034223 0.86679271
v 0.63108605 0.06932706 0.86664348
v 0.63270326 0.06861269 0.87176903
v 0.63226565 0.07006933 0.87169271
v 0.63104926 0.06941408 0.87302535
v 0.63184445 0.06770912 0.87264373
v 0.63226565 0.07006933 0.87169271
v 0.63145335 0.07115198 0.87133518
v 0.63007300 0.07071527 0.87259565
v 0.63104926 0.06941408 0.87302535
v 0.63145335 0.07115198 0.87133518
v 0.63026637 0.07186067 0.87069644
v 0.62891567 0.07161269 0.87135464
v 0.63007300 0.07071527 0.87259565
v 0.63184445 0.06770912 0.87264373
v 0.63104926 0.06941408 0.87302535
v 0.62968444 0.06853791 0.87347300
v 0.63070884 0.06698010 0.87301620
v 0.63104926 0.06941408 0.87302535
v 0.63007300 0.07071527 0.87259565
v 0.62870818 0.06983910 0.87304330
v 0.62968444 0.06853791 0.87347300
v 0.63007300 0.07071527 0.87259565
v 0.62891567 0.07161269 0.87135464
v 0.62778007 0.07088368 0.87172711
v 0.62870818 0.06983910 0.87304330
v 0.63070884 0.06698010 0.87301620
v 0.62968444 0.06853791 0.87347300
v 0.62817116 0.06744082 0.87303566
v 0.62929645 0.06642563 0.87288643
v 0.62968444 0.06853791 0.87347300
v 0.62870818 0.06983910 0.87304330
v 0.62735887 0.06852347 0.87267814
v 0.62817116 0.06744082 0.87303566
v 0.62870818 0.06983910 0.87304330
v 0.62778007 0.07088368 0.87172711
v 0.62685956 0.06967360 0.87181384
v 0.62735887 0.06852347 0.87267814
v 0.64992567 0.06824192 0.87632351
v 0.64863298 0.07121963 0.87408588
v 0.65108024 0.07374294 0.87759914
v 0.65171634 0.06927509 0.87968072
v 0.64863298 0.07121963 0.87408588
v 0.64652996 0.07402261 0.87316024
v 0.64855272 0.07711172 0.87648667
v 0.65108024 0.07374294 0.87759914
v 0.64652996 0.07402261 0.87316024
v 0.64361660 0.07665088 0.87354660
v 0.64413378 0.07938143 0.87634328
v 0.64855272 0.07711172 0.87648667
v 0.65171634 0.06927509 0.87968072
v 0.65108024 0.07374294 0.87759914
v 0.65139721 0.07531784 0.88164807
v 0.65198008 0.07058550 0.88304963
v 0.65108024 0.07374294 0.87759914
v 0.64855272 0.07711172 0.87648667
v 0.64886970 0.07868662 0.88053559
v 0.65139721 0.07531784 0.88164807
v 0.64855272 0.07711172 0.87648667
v 0.64413378 0.07938143 0.87634328
v 0.64439752 0.08069183 0.87971221
v 0.64886970 0.07868662 0.88053559
v 0.65198008 0.07058550 0.88304963
v 0.65139721 0.07531784 0.88164807
v 0.64958391 0.07594432 0.88623267
v 0.65071689 0.07217311 0.88643026
v 0.65139721 0.07531784 0.88164807
v 0.64886970 0.07868662 0.88053559
v 0.64748088 0.07874732 0.88530703
v 0.64958391 0.07594432 0.88623267
v 0.64886970 0.07868662 0.88053559
v 0.64439752 0.08069183 0.87971221
v 0.64440782 0.08058209 0.88365334
v 0.64748088 0.07874732 0.88530703
v 0.64361660 0.07665088 0.87354660
v 0.63995993 0.07521539 0.87321063
v 0.63920167 0.07880939 0.87655838
v 0.64413378 0.07938143 0.87634328
v 0.63995993 0.07521539 0.87321063
v 0.63701986 0.07332797 0.87417496
v 0.63566814 0.07654100 0.87771734
v 0.63920167 0.07880939 0.87655838
v 0.63701986 0.07332797 0.87417496
v 0.63479639 0.07098863 0.87643956
v 0.63353320 0.07257623 0.87982018
v 0.63566814 0.07654100 0.87771734
v 0.64413378 0.07938143 0.87634328
v 0.63920167 0.07880939 0.87655838
v 0.63951865 0.08038429 0.88060731
v 0.64439752 0.08069183 0.87971221
v 0.63920167 0.07880939 0.87655838
v 0.63566814 0.07654100 0.87771734
v 0.63598512 0.07811589 0.88176628
v 0.63951865 0.08038429 0.88060731
v 0.63566814 0.07654100 0.87771734
v 0.63353320 0.07257623 0.87982018
v 0.63379693 0.07388663 0.88318909
v 0.63598512 0.07811589 0.88176628
v 0.64439752 0.08069183 0.87971221
v 0.63951865 0.08038429 0.88060731
v 0.64091086 0.07994011 0.88535743
v 0.64440782 0.08058209 0.88365334
v 0.63951865 0.08038429 0.88060731
v 0.63598512 0.07811589 0.88176628
v 0.63797079 0.07805268 0.88632175
v 0.64091086 0.07994011 0.88535743
v 0.63598512 0.07811589 0.88176628
v 0.63379693 0.07388663 0.88318909
v 0.63558761 0.07491982 0.88654630
v 0.63797079 0.07805268 0.88632175
v 0.63479639 0.07098863 0.87643956
v 0.63592938 0.06721742 0.87663714
v 0.63411606 0.06784388 0.88122174
v 0.63353320 0.07257623 0.87982018
v 0.63592938 0.06721742 0.87663714
v 0.63803240 0.06441442 0.87756278
v 0.63664358 0.06447511 0.88233422
v 0.63411606 0.06784388 0.88122174
v 0.63803240 0.06441442 0.87756278
v 0.64110547 0.06257965 0.87921648
v 0.64111576 0.06246990 0.88315761
v 0.63664358 0.06447511 0.88233422
v 0.63353320 0.07257623 0.87982018
v 0.63411606 0.06784388 0.88122174
v 0.63443304 0.06941880 0.88527068
v 0.63379693 0.07388663 0.88318909
v 0.63411606 0.06784388 0.88122174
v 0.63664358 0.06447511 0.88233422
v 0.63696056 0.06605001 0.88638315
v 0.63443304 0.06941880 0.88527068
v 0.63664358 0.06447511 0.88233422
v 0.64111576 0.06246990 0.88315761
v 0.64137950 0.06378030 0.88652652
v 0.63696056 0.06605001 0.88638315
v 0.63379693 0.07388663 0.88318909
v 0.63443304 0.06941880 0.88527068
v 0.63688031 0.07194212 0.88878393
v 0.63558761 0.07491982 0.88654630
v 0.63443304 0.06941880 0.88527068
v 0.63696056 0.06605001 0.88638315
v 0.63898333 0.06913912 0.88970956
v 0.63688031 0.07194212 0.88878393
v 0.63696056 0.06605001 0.88638315
v 0.64137950 0.06378030 0.88652652
v 0.64189669 0.06651084 0.88932320
v 0.63898333 0.06913912 0.88970956
v 0.64110547 0.06257965 0.87921648
v 0.64460243 0.06322163 0.87751239
v 0.64599464 0.06277744 0.88226250
v 0.64111576 0.06246990 0.88315761
v 0.64460243 0.06322163 0.87751239
v 0.64754250 0.06510905 0.87654807
v 0.64952816 0.06504584 0.88110354
v 0.64599464 0.06277744 0.88226250
v 0.64754250 0.06510905 0.87654807
v 0.64992567 0.06824192 0.87632351
v 0.65171634 0.06927509 0.87968072
v 0.64952816 0.06504584 0.88110354
v 0.64111576 0.06246990 0.88315761
v 0.64599464 0.06277744 0.88226250
v 0.64631161 0.06435235 0.88631143
v 0.64137950 0.06378030 0.88652652
v 0.64599464 0.06277744 0.88226250
v 0.64952816 0.06504584 0.88110354
v 0.64984514 0.06662074 0.88515247
v 0.64631161 0.06435235 0.88631143
v 0.64952816 0.06504584 0.88110354
v 0.65171634 0.06927509 0.87968072
v 0.65198008 0.07058550 0.88304963
v 0.64984514 0.06662074 0.88515247
v 0.64137950 0.06378030 0.88652652
v 0.64631161 0.06435235 0.88631143
v 0.64555336 0.06794634 0.88965918
v 0.64189669 0.06651084 0.88932320
v 0.64631161 0.06435235 0.88631143
v 0.64984514 0.06662074 0.88515247
v 0.64849342 0.06983378 0.88869486
v 0.64555336 0.06794634 0.88965918
v 0.64984514 0.06662074 0.88515247
v 0.65198008 0.07058550 0.88304963
v 0.65071689 0.07217311 0.88643026
v 0.64849342 0.06983378 0.88869486
v 0.64110547 0.06257965 0.87921648
v 0.63803240 0.06441442 0.87756278
v 0.64160612 0.06554505 0.87429943
v 0.64460243 0.06322163 0.87751239
v 0.63803240 0.06441442 0.87756278
v 0.63592938 0.06721742 0.87663714
v 0.63907860 0.06891383 0.87318695
v 0.64160612 0.06554505 0.87429943
v 0.63592938 0.06721742 0.87663714
v 0.63479639 0.07098863 0.87643956
v 0.63701986 0.07332797 0.87417496
v 0.63907860 0.06891383 0.87318695
v 0.64460243 0.06322163 0.87751239
v 0.64160612 0.06554505 0.87429943
v 0.64513963 0.06781345 0.87314046
v 0.64754250 0.06510905 0.87654807
v 0.64160612 0.06554505 0.87429943
v 0.63907860 0.06891383 0.87318695
v 0.64261212 0.07118222 0.87202799
v 0.64513963 0.06781345 0.87314046
v 0.63907860 0.06891383 0.87318695
v 0.63701986 0.07332797 0.87417496
v 0.63995993 0.07521539 0.87321063
v 0.64261212 0.07118222 0.87202799
v 0.64754250 0.06510905 0.87654807
v 0.64513963 0.06781345 0.87314046
v 0.64863298 0.07121963 0.87408588
v 0.64992567 0.06824192 0.87632351
v 0.64513963 0.06781345 0.87314046
v 0.64261212 0.07118222 0.87202799
v 0.64652996 0.07402261 0.87316024
v 0.64863298 0.07121963 0.87408588
v 0.64261212 0.07118222 0.87202799
v 0.63995993 0.07521539 0.87321063
v 0.64361660 0.07665088 0.87354660
v 0.64652996 0.07402261 0.87316024
v 0.65071689 0.07217311 0.88643026
v 0.64958391 0.07594432 0.88623267
v 0.64643469 0.07424790 0.88968286
v 0.64849342 0.06983378 0.88869486
v 0.64958391 0.07594432 0.88623267
v 0.64748088 0.07874732 0.88530703
v 0.64390717 0.07761669 0.88857038
v 0.64643469 0.07424790 0.88968286
v 0.64748088 0.07874732 0.88530703
v 0.64440782 0.08058209 0.88365334
v 0.64091086 0.07994011 0.88535743
v 0.64390717 0.07761669 0.88857038
v 0.64849342 0.06983378 0.88869486
v 0.64643469 0.07424790 0.88968286
v 0.64290116 0.07197952 0.89084183
v 0.64555336 0.06794634 0.88965918
v 0.64643469 0.07424790 0.88968286
v 0.64390717 0.07761669 0.88857038
v 0.64037364 0.07534829 0.88972935
v 0.64290116 0.07197952 0.89084183
v 0.64390717 0.07761669 0.88857038
v 0.64091086 0.07994011 0.88535743
v 0.63797079 0.07805268 0.88632175
v 0.64037364 0.07534829 0.88972935
v 0.64555336 0.06794634 0.88965918
v 0.64290116 0.07197952 0.89084183
v 0.63898333 0.06913912 0.88970956
v 0.64189669 0.06651084 0.88932320
v 0.64290116 0.07197952 0.89084183
v 0.64037364 0.07534829 0.88972935
v 0.63688031 0.07194212 0.88878393
v 0.63898333 0.06913912 0.88970956
v 0.64037364 0.07534829 0.88972935
v 0.63797079 0.07805268 0.88632175
v 0.63558761 0.07491982 0.88654630
v 0.63688031 0.07194212 0.88878393
v 0.64689082 0.05285939 0.85852239
v 0.64676088 0.05452349 0.85743234
v 0.64510606 0.05698707 0.86103741
v 0.64503998 0.05572279 0.86218587
v 0.64198425 0.04814884 0.85937789
v 0.64373126 0.04883332 0.85969080
v 0.64223785 0.05292854 0.86466789
v 0.64055077 0.05280200 0.86464033
v 0.63779437 0.05178102 0.85534703
v 0.63833920 0.05037107 0.85645441
v 0.63664512 0.05484236 0.86214748
v 0.63651913 0.05666614 0.86096632
v 0.64270094 0.05649157 0.85449153
v 0.64104042 0.05569006 0.85428799
v 0.63975754 0.05855968 0.85883177
v 0.64164554 0.05924325 0.85913667
v 0.64530529 0.04975187 0.85978496
v 0.64351327 0.05350037 0.86422649
v 0.64223785 0.05292854 0.86466789
v 0.64373126 0.04883332 0.85969080
v 0.63887312 0.04898934 0.85753963
v 0.63733269 0.05384655 0.86324091
v 0.63664512 0.05484236 0.86214748
v 0.63833920 0.05037107 0.85645441
v 0.63937990 0.05488854 0.85408447
v 0.63759965 0.05836043 0.85963831
v 0.63975754 0.05855968 0.85883177
v 0.64104042 0.05569006 0.85428799
v 0.64404278 0.05851601 0.86017442
v 0.64164554 0.05924325 0.85913667
v 0.64164240 0.06273734 0.86260815
v 0.64353311 0.06233556 0.86315695
v 0.64510606 0.05698707 0.86103741
v 0.64404278 0.05851601 0.86017442
v 0.64353311 0.06233556 0.86315695
v 0.64494840 0.05963124 0.86378586
v 0.64223785 0.05292854 0.86466789
v 0.64351327 0.05350037 0.86422649
v 0.64344008 0.05665808 0.86924011
v 0.64207290 0.05544094 0.86858260
v 0.63664512 0.05484236 0.86214748
v 0.63733269 0.05384655 0.86324091
v 0.63582417 0.05731566 0.86848949
v 0.63484026 0.05780236 0.86575837
v 0.63975754 0.05855968 0.85883177
v 0.63759965 0.05836043 0.85963831
v 0.63564338 0.06182938 0.86358531
v 0.63901606 0.06161374 0.86155997
v 0.64351327 0.05350037 0.86422649
v 0.64503998 0.05572279 0.86218587
v 0.64477867 0.05842059 0.86502694
v 0.64344008 0.05665808 0.86924011
v 0.63733269 0.05384655 0.86324091
v 0.64055077 0.05280200 0.86464033
v 0.64043450 0.05637823 0.87029604
v 0.63582417 0.05731566 0.86848949
v 0.63759965 0.05836043 0.85963831
v 0.63651913 0.05666614 0.86096632
v 0.63525552 0.06092188 0.86435688
v 0.63564338 0.06182938 0.86358531
v 0.64494840 0.05963124 0.86378586
v 0.64353311 0.06233556 0.86315695
v 0.64817479 0.06841538 0.86781231
v 0.64915714 0.06768681 0.86884375
v 0.64207290 0.05544094 0.86858260
v 0.64344008 0.05665808 0.86924011
v 0.64518671 0.06039356 0.87831575
v 0.64371219 0.05959155 0.87913894
v 0.64371219 0.05959155 0.87913894
v 0.64518671 0.06039356 0.87831575
v 0.64444456 0.06165466 0.87746052
v 0.64282455 0.06204667 0.87739405
v 0.63484026 0.05780236 0.86575837
v 0.63582417 0.05731566 0.86848949
v 0.63146346 0.06253527 0.87468775
v 0.63020613 0.06347156 0.87362009
v 0.63901606 0.06161374 0.86155997
v 0.63564338 0.06182938 0.86358531
v 0.63587689 0.07248575 0.86512421
v 0.63707829 0.07340126 0.86409177
v 0.63707829 0.07340126 0.86409177
v 0.63587689 0.07248575 0.86512421
v 0.63652918 0.07141052 0.86640683
v 0.63790799 0.07118162 0.86672200
v 0.64915714 0.06768681 0.86884375
v 0.64817479 0.06841538 0.86781231
v 0.64663000 0.06831286 0.86865974
v 0.64665092 0.06747552 0.86983692
v 0.63020613 0.06347156 0.87362009
v 0.63146346 0.06253527 0.87468775
v 0.63256995 0.06367470 0.87477853
v 0.63275721 0.06509972 0.87426049
v 0.63896726 0.05847160 0.86543292
v 0.63275721 0.06509972 0.87426049
v 0.63256995 0.06367470 0.87477853
v 0.63836670 0.05840706 0.86755187
v 0.63962527 0.05941345 0.86426604
v 0.63790799 0.07118162 0.86672200
v 0.63652918 0.07141052 0.86640683
v 0.63729394 0.06066067 0.86518536
v 0.64100683 0.05882879 0.86513397
v 0.64665092 0.06747552 0.86983692
v 0.64663000 0.06831286 0.86865974
v 0.64145174 0.06125378 0.86427297
v 0.64023822 0.05795883 0.86594260
v 0.64282455 0.06204667 0.87739405
v 0.64444456 0.06165466 0.87746052
v 0.64138836 0.05836435 0.86763996
v 0.63582417 0.05731566 0.86848949
v 0.64043450 0.05637823 0.87029604
v 0.64008663 0.05824599 0.86827726
v 0.63836670 0.05840706 0.86755187
v 0.63564338 0.06182938 0.86358531
v 0.63525552 0.06092188 0.86435688
v 0.63776494 0.05948810 0.86589343
v 0.63729394 0.06066067 0.86518536
v 0.64353311 0.06233556 0.86315695
v 0.64164240 0.06273734 0.86260815
v 0.64089348 0.06135158 0.86412633
v 0.64145174 0.06125378 0.86427297
v 0.64344008 0.05665808 0.86924011
v 0.64477867 0.05842059 0.86502694
v 0.64214434 0.05944960 0.86590679
v 0.64138836 0.05836435 0.86763996
v 0.64898147 0.06649035 0.87006821
v 0.64730584 0.06670007 0.87054974
v 0.64214434 0.05944960 0.86590679
v 0.64477867 0.05842059 0.86502694
v 0.64817479 0.06841538 0.86781231
v 0.64353311 0.06233556 0.86315695
v 0.64145174 0.06125378 0.86427297
v 0.64663000 0.06831286 0.86865974
v 0.64518671 0.06039356 0.87831575
v 0.64344008 0.05665808 0.86924011
v 0.64138836 0.05836435 0.86763996
v 0.64444456 0.06165466 0.87746052
v 0.64181906 0.05994738 0.87913924
v 0.64162314 0.06128086 0.87815044
v 0.64008663 0.05824599 0.86827726
v 0.64043450 0.05637823 0.87029604
v 0.63146346 0.06253527 0.87468775
v 0.63582417 0.05731566 0.86848949
v 0.63836670 0.05840706 0.86755187
v 0.63256995 0.06367470 0.87477853
v 0.63030434 0.06529062 0.87291366
v 0.63170049 0.06573542 0.87345778
v 0.63776494 0.05948810 0.86589343
v 0.63525552 0.06092188 0.86435688
v 0.63587689 0.07248575 0.86512421
v 0.63564338 0.06182938 0.86358531
v 0.63729394 0.06066067 0.86518536
v 0.63652918 0.07141052 0.86640683
v 0.63868483 0.07323296 0.86434364
v 0.63888167 0.07203653 0.86575287
v 0.64089348 0.06135158 0.86412633
v 0.64164240 0.06273734 0.86260815
v 0.64008663 0.05824599 0.86827726
v 0.64023822 0.05795883 0.86594260
v 0.63997419 0.05915996 0.86562708
v 0.63776494 0.05948810 0.86589343
v 0.63896726 0.05847160 0.86543292
v 0.63997419 0.05915996 0.86562708
v 0.64089348 0.06135158 0.86412633
v 0.63962527 0.05941345 0.86426604
v 0.63997419 0.05915996 0.86562708
v 0.64138836 0.05836435 0.86763996
v 0.64214434 0.05944960 0.86590679
v 0.63997419 0.05915996 0.86562708
v 0.63729394 0.06066067 0.86518536
v 0.63776494 0.05948810 0.86589343
v 0.63997419 0.05915996 0.86562708
v 0.63836670 0.05840706 0.86755187
v 0.64008663 0.05824599 0.86827726
v 0.63997419 0.05915996 0.86562708
v 0.64145174 0.06125378 0.86427297
v 0.64089348 0.06135158 0.86412633
v 0.63997419 0.05915996 0.86562708
v 0.64214434 0.05944960 0.86590679
v 0.64100683 0.05882879 0.86513397
v 0.63997419 0.05915996 0.86562708
v 0.64008663 0.05824599 0.86827726
v 0.64162314 0.06128086 0.87815044
v 0.64282455 0.06204667 0.87739405
v 0.64023822 0.05795883 0.86594260
v 0.64181906 0.05994738 0.87913924
v 0.64162314 0.06128086 0.87815044
v 0.64043450 0.05637823 0.87029604
v 0.64207290 0.05544094 0.86858260
v 0.64371219 0.05959155 0.87913894
v 0.64181906 0.05994738 0.87913924
v 0.64055077 0.05280200 0.86464033
v 0.64223785 0.05292854 0.86466789
v 0.64207290 0.05544094 0.86858260
v 0.64043450 0.05637823 0.87029604
v 0.64214434 0.05944960 0.86590679
v 0.64730584 0.06670007 0.87054974
v 0.64665092 0.06747552 0.86983692
v 0.64100683 0.05882879 0.86513397
v 0.64898147 0.06649035 0.87006821
v 0.64915714 0.06768681 0.86884375
v 0.64665092 0.06747552 0.86983692
v 0.64730584 0.06670007 0.87054974
v 0.64477867 0.05842059 0.86502694
v 0.64494840 0.05963124 0.86378586
v 0.64915714 0.06768681 0.86884375
v 0.64898147 0.06649035 0.87006821
v 0.64503998 0.05572279 0.86218587
v 0.64510606 0.05698707 0.86103741
v 0.64494840 0.05963124 0.86378586
v 0.64477867 0.05842059 0.86502694
v 0.63776494 0.05948810 0.86589343
v 0.63170049 0.06573542 0.87345778
v 0.63275721 0.06509972 0.87426049
v 0.63896726 0.05847160 0.86543292
v 0.63030434 0.06529062 0.87291366
v 0.63020613 0.06347156 0.87362009
v 0.63275721 0.06509972 0.87426049
v 0.63170049 0.06573542 0.87345778
v 0.63525552 0.06092188 0.86435688
v 0.63484026 0.05780236 0.86575837
v 0.63020613 0.06347156 0.87362009
v 0.63030434 0.06529062 0.87291366
v 0.63651913 0.05666614 0.86096632
v 0.63664512 0.05484236 0.86214748
v 0.63484026 0.05780236 0.86575837
v 0.63525552 0.06092188 0.86435688
v 0.64089348 0.06135158 0.86412633
v 0.63888167 0.07203653 0.86575287
v 0.63790799 0.07118162 0.86672200
v 0.63962527 0.05941345 0.86426604
v 0.63868483 0.07323296 0.86434364
v 0.63888167 0.07203653 0.86575287
v 0.64164240 0.06273734 0.86260815
v 0.63901606 0.06161374 0.86155997
v 0.63707829 0.07340126 0.86409177
v 0.63868483 0.07323296 0.86434364
v 0.64164554 0.05924325 0.85913667
v 0.63975754 0.05855968 0.85883177
v 0.63901606 0.06161374 0.86155997
v 0.64164240 0.06273734 0.86260815
v 0.63997419 0.05915996 0.86562708
v 0.63962527 0.05941345 0.86426604
v 0.63729394 0.06066067 0.86518536
v 0.63997419 0.05915996 0.86562708
v 0.64023822 0.05795883 0.86594260
v 0.64138836 0.05836435 0.86763996
v 0.63997419 0.05915996 0.86562708
v 0.64100683 0.05882879 0.86513397
v 0.64145174 0.06125378 0.86427297
v 0.63997419 0.05915996 0.86562708
v 0.63896726 0.05847160 0.86543292
v 0.63836670 0.05840706 0.86755187
v 0.64270094 0.05649157 0.85449153
v 0.64581206 0.05565107 0.85632978
v 0.64238438 0.05233163 0.85694526
v 0.64676088 0.05452349 0.85743234
v 0.64689082 0.05285939 0.85852239
v 0.64198425 0.04814884 0.85937789
v 0.63887312 0.04898934 0.85753963
v 0.64530529 0.04975187 0.85978496
v 0.64373126 0.04883332 0.85969080
v 0.64104042 0.05569006 0.85428799
v 0.63779437 0.05178102 0.85534703
v 0.63937990 0.05488854 0.85408447
v 0.63833920 0.05037107 0.85645441
v 0.63779437 0.05178102 0.85534703
v 0.63651913 0.05666614 0.86096632
v 0.63759965 0.05836043 0.85963831
v 0.63937990 0.05488854 0.85408447
v 0.64198425 0.04814884 0.85937789
v 0.64055077 0.05280200 0.86464033
v 0.63733269 0.05384655 0.86324091
v 0.63887312 0.04898934 0.85753963
v 0.64581206 0.05565107 0.85632978
v 0.64404278 0.05851601 0.86017442
v 0.64510606 0.05698707 0.86103741
v 0.64676088 0.05452349 0.85743234
v 0.64689082 0.05285939 0.85852239
v 0.64503998 0.05572279 0.86218587
v 0.64351327 0.05350037 0.86422649
v 0.64530529 0.04975187 0.85978496
v 0.64270094 0.05649157 0.85449153
v 0.64164554 0.05924325 0.85913667
v 0.64404278 0.05851601 0.86017442
v 0.64581206 0.05565107 0.85632978
f 2 4 1
f 4 2 3
f 6 8 5
f 8 6 7
f 10 12 9
f 12 10 11
f 14 16 13
f 16 14 15
f 18 20 17
f 20 18 19
f 22 24 21
f 24 22 23
f 26 28 25
f 28 26 27
f 30 32 29
f 32 30 31
f 34 36 33
f 36 34 35
f 38 40 37
f 40 38 39
f 42 44 41
f 44 42 43
f 46 48 45
f 48 46 47
f 50 52 49
f 52 50 51
f 54 56 53
f 56 54 55
f 58 60 57
f 60 58 59
f 62 64 61
f 64 62 63
f 66 68 65
f 68 66 67
f 70 72 69
f 72 70 71
f 75 76 73
f 73 74 75
f 79 80 77
f 77 78 79
f 83 84 81
f 81 82 83
f 87 88 85
f 85 86 87
f 91 92 89
f 89 90 91
f 95 96 93
f 93 94 95
f 99 100 97
f 97 98 99
f 103 104 101
f 101 102 103
f 107 108 105
f 105 106 107
f 111 112 109
f 109 110 111
f 115 116 113
f 113 114 115
f 119 120 117
f 117 118 119
f 123 124 121
f 121 122 123
f 127 128 125
f 125 126 127
f 131 132 129
f 129 130 131
f 135 136 133
f 133 134 135
f 139 140 137
f 137 138 139
f 143 144 141
f 141 142 143
f 147 148 145
f 145 146 147
f 151 152 149
f 149 150 151
f 155 156 153
f 153 154 155
f 159 160 157
f 157 158 159
f 163 164 161
f 161 162 163
f 167 168 165
f 165 166 167
f 171 172 169
f 169 170 171
f 175 176 173
f 173 174 175
f 179 180 177
f 177 178 179
f 182 184 181
f 184 182 183
f 186 188 185
f 188 186 187
f 190 192 189
f 192 190 191
f 194 196 193
f 196 194 195
f 198 200 197
f 200 198 199
f 202 204 201
f 204 202 203
f 206 208 205
f 208 206 207
f 210 212 209
f 212 210 211
f 214 216 213
f 216 214 215
f 218 220 217
f 220 218 219
f 222 224 221
f 224 222 223
f 226 228 225
f 228 226 227
f 230 232 229
f 232 230 231
f 234 236 233
f 236 234 235
f 238 240 237
f 240 238 239
f 242 244 241
f 244 242 243
f 246 248 245
f 248 246 247
f 250 252 249
f 252 250 251
f 254 256 253
f 256 254 255
f 258 260 257
f 260 258 259
f 262 264 261
f 264 262 263
f 266 268 265
f 268 266 267
f 270 272 269
f 272 270 271
f 274 276 273
f 276 274 275
f 278 280 277
f 280 278 279
f 282 284 281
f 284 282 283
f 287 288 285
f 285 286 287
f 291 292 289
f 289 290 291
f 295 296 293
f 293 294 295
f 299 300 297
f 297 298 299
f 303 304 301
f 301 302 303
f 307 308 305
f 305 306 307
f 311 312 309
f 309 310 311
f 315 316 313
f 313 314 315
f 319 320 317
f 317 318 319
f 323 324 321
f 321 322 323
f 327 328 325
f 325 326 327
f 331 332 329
f 329 330 331
f 334 336 333
f 336 334 335
f 339 340 337
f 337 338 339
f 343 344 341
f 341 342 343
f 347 348 345
f 345 346 347
f 351 352 349
f 349 350 351
f 355 356 353
f 353 354 355
f 359 360 357
f 357 358 359
f 363 364 361
f 361 362 363
f 367 368 365
f 365 366 367
f 370 372 369
f 372 370 371
f 375 376 373
f 373 374 375
f 379 380 377
f 377 378 379
f 382 384 381
f 384 382 383
f 387 388 385
f 385 386 387
f 391 392 389
f 389 390 391
f 394 396 393
f 396 394 395
f 399 400 397
f 397 398 399
f 402 404 401
f 404 402 403
f 406 408 405
f 408 406 407
f 411 412 409
f 409 410 411
f 414 416 413
f 416 414 415
f 418 420 417
f 420 418 419
f 423 424 421
f 421 422 423
f 426 428 425
f 428 426 427
f 430 432 429
f 432 430 431
f 434 436 433
f 436 434 435
f 438 440 437
f 440 438 439
f 442 444 441
f 444 442 443
f 446 448 445
f 448 446 447
f 450 452 449
f 452 450 451
f 454 456 453
f 456 454 455
f 458 460 457
f 460 458 459
f 462 464 461
f 464 462 463
f 466 468 465
f 468 466 467
f 470 472 469
f 472 470 471
f 474 476 473
f 476 474 475
f 478 480 477
f 480 478 479
f 482 484 481
f 484 482 483
f 486 488 485
f 488 486 487
f 490 492 489
f 492 490 491
f 494 496 493
f 496 494 495
f 498 500 497
f 500 498 499
f 503 504 501
f 501 502 503
f 507 508 505
f 505 506 507
f 511 512 509
f 509 510 511
f 515 516 513
f 513 514 515
f 519 520 517
f 517 518 519
f 523 524 521
f 521 522 523
f 527 528 525
f 525 526 527
f 531 532 529
f 529 530 531
f 535 536 533
f 533 534 535
f 539 540 537
f 537 538 539
f 543 544 541
f 541 542 543
f 547 548 545
f 545 546 547
f 550 552 549
f 552 550 551
f 555 556 553
f 553 554 555
f 559 560 557
f 557 558 559
f 563 564 561
f 561 562 563
f 567 568 565
f 565 566 567
f 571 572 569
f 569 570 571
f 575 576 573
f 573 574 575
f 579 580 577
f 577 578 579
f 583 584 581
f 581 582 583
f 586 588 585
f 588 586 587
f 591 592 589
f 589 590 591
f 595 596 593
f 593 594 595
f 598 600 597
f 600 598 599
f 603 604 601
f 601 602 603
f 607 608 605
f 605 606 607
f 610 612 609
f 612 610 611
f 615 616 613
f 613 614 615
f 618 620 617
f 620 618 619
f 622 624 621
f 624 622 623
f 627 628 625
f 625 626 627
f 630 632 629
f 632 630 631
f 634 636 633
f 636 634 635
f 639 640 637
f 637 638 639
f 642 644 641
f 644 642 643
f 646 648 645
f 648 646 647
f 650 652 649
f 652 650 651
f 654 656 653
f 656 654 655
f 658 660 657
f 660 658 659
f 662 664 661
f 664 662 663
f 666 668 665
f 668 666 667
f 670 672 669
f 672 670 671
f 674 676 673
f 676 674 675
f 678 680 677
f 680 678 679
f 682 684 681
f 684 682 683
f 686 688 685
f 688 686 687
f 690 692 689
f 692 690 691
f 694 696 693
f 696 694 695
f 698 700 697
f 700 698 699
f 702 704 701
f 704 702 703
f 706 708 705
f 708 706 707
f 710 712 709
f 712 710 711
f 714 716 713
f 716 714 715
f 719 720 717
f 717 718 719
f 723 724 721
f 721 722 723
f 727 728 725
f 725 726 727
f 731 732 729
f 729 730 731
f 735 736 733
f 733 734 735
f 739 740 737
f 737 738 739
f 743 744 741
f 741 742 743
f 747 748 745
f 745 746 747
f 751 752 749
f 749 750 751
f 755 756 753
f 753 754 755
f 759 760 757
f 757 758 759
f 763 764 761
f 761 762 763
f 766 768 765
f 768 766 767
f 771 772 769
f 769 770 771
f 775 776 773
f 773 774 775
f 779 780 777
f 777 778 779
f 783 784 781
f 781 782 783
f 787 788 785
f 785 786 787
f 791 792 789
f 789 790 791
f 795 796 793
f 793 794 795
f 799 800 797
f 797 798 799
f 802 804 801
f 804 802 803
f 807 808 805
f 805 806 807
f 811 812 809
f 809 810 811
f 814 816 813
f 816 814 815
f 819 820 817
f 817 818 819
f 823 824 821
f 821 822 823
f 826 828 825
f 828 826 827
f 831 832 829
f 829 830 831
f 834 836 833
f 836 834 835
f 838 840 837
f 840 838 839
f 843 844 841
f 841 842 843
f 846 848 845
f 848 846 847
f 850 852 849
f 852 850 851
f 855 856 853
f 853 854 855
f 858 860 857
f 860 858 859
f 862 864 861
f 864 862 863
f 866 868 865
f 868 866 867
f 870 872 869
f 872 870 871
f 874 876 873
f 876 874 875
f 878 880 877
f 880 878 879
f 882 884 881
f 884 882 883
f 886 888 885
f 888 886 887
f 890 892 889
f 892 890 891
f 894 896 893
f 896 894 895
f 898 900 897
f 900 898 899
f 902 904 901
f 904 902 903
f 906 908 905
f 908 906 907
f 910 912 909
f 912 910 911
f 914 916 913
f 916 914 915
f 918 920 917
f 920 918 919
f 922 924 921
f 924 922 923
f 926 928 925
f 928 926 927
f 930 932 929
f 932 930 931
f 935 936 933
f 933 934 935
f 939 940 937
f 937 938 939
f 943 944 941
f 941 942 943
f 947 948 945
f 945 946 947
f 951 952 949
f 949 950 951
f 955 956 953
f 953 954 955
f 959 960 957
f 957 958 959
f 963 964 961
f 961 962 963
f 967 968 965
f 965 966 967
f 971 972 969
f 969 970 971
f 975 976 973
f 973 974 975
f 979 980 977
f 977 978 979
f 982 984 981
f 984 982 983
f 987 988 985
f 985 986 987
f 991 992 989
f 989 990 991
f 995 996 993
f 993 994 995
f 999 1000 997
f 997 998 999
f 1003 1004 1001
f 1001 1002 1003
f 1007 1008 1005
f 1005 1006 1007
f 1011 1012 1009
f 1009 1010 1011
f 1015 1016 1013
f 1013 1014 1015
f 1018 1020 1017
f 1020 1018 1019
f 1023 1024 1021
f 1021 1022 1023
f 1027 1028 1025
f 1025 1026 1027
f 1030 1032 1029
f 1032 1030 1031
f 1035 1036 1033
f 1033 1034 1035
f 1039 1040 1037
f 1037 1038 1039
f 1042 1044 1041
f 1044 1042 1043
f 1047 1048 1045
f 1045 1046 1047
f 1050 1052 1049
f 1052 1050 1051
f 1054 1056 1053
f 1056 1054 1055
f 1059 1060 1057
f 1057 1058 1059
f 1062 1064 1061
f 1064 1062 1063
f 1066 1068 1065
f 1068 1066 1067
f 1071 1072 1069
f 1069 1070 1071
f 1074 1076 1073
f 1076 1074 1075
f 1078 1080 1077
f 1080 1078 1079
f 1082 1084 1081
f 1084 1082 1083
f 1086 1088 1085
f 1088 1086 1087
f 1090 1092 1089
f 1092 1090 1091
f 1094 1096 1093
f 1096 1094 1095
f 1098 1100 1097
f 1100 1098 1099
f 1102 1104 1101
f 1104 1102 1103
f 1106 1108 1105
f 1108 1106 1107
f 1110 1112 1109
f 1112 1110 1111
f 1114 1116 1113
f 1116 1114 1115
f 1118 1120 1117
f 1120 1118 1119
f 1122 1124 1121
f 1124 1122 1123
f 1126 1128 1125
f 1128 1126 1127
f 1130 1132 1129
f 1132 1130 1131
f 1134 1136 1133
f 1136 1134 1135
f 1138 1140 1137
f 1140 1138 1139
f 1142 1144 1141
f 1144 1142 1143
f 1146 1148 1145
f 1148 1146 1147
f 1151 1152 1149
f 1149 1150 1151
f 1155 1156 1153
f 1153 1154 1155
f 1159 1160 1157
f 1157 1158 1159
f 1163 1164 1161
f 1161 1162 1163
f 1167 1168 1165
f 1165 1166 1167
f 1171 1172 1169
f 1169 1170 1171
f 1175 1176 1173
f 1173 1174 1175
f 1179 1180 1177
f 1177 1178 1179
f 1183 1184 1181
f 1181 1182 1183
f 1187 1188 1185
f 1185 1186 1187
f 1191 1192 1189
f 1189 1190 1191
f 1195 1196 1193
f 1193 1194 1195
f 1198 1200 1197
f 1200 1198 1199
f 1203 1204 1201
f 1201 1202 1203
f 1207 1208 1205
f 1205 1206 1207
f 1211 1212 1209
f 1209 1210 1211
f 1215 1216 1213
f 1213 1214 1215
f 1219 1220 1217
f 1217 1218 1219
f 1223 1224 1221
f 1221 1222 1223
f 1227 1228 1225
f 1225 1226 1227
f 1231 1232 1229
f 1229 1230 1231
f 1234 1236 1233
f 1236 1234 1235
f 1239 1240 1237
f 1237 1238 1239
f 1243 1244 1241
f 1241 1242 1243
f 1246 1248 1245
f 1248 1246 1247
f 1251 1252 1249
f 1249 1250 1251
f 1255 1256 1253
f 1253 1254 1255
f 1258 1260 1257
f 1260 1258 1259
f 1263 1264 1261
f 1261 1262 1263
f 1266 1268 1265
f 1268 1266 1267
f 1270 1272 1269
f 1272 1270 1271
f 1275 1276 1273
f 1273 1274 1275
f 1278 1280 1277
f 1280 1278 1279
f 1282 1284 1281
f 1284 1282 1283
f 1287 1288 1285
f 1285 1286 1287
f 1290 1292 1289
f 1292 1290 1291
f 1294 1296 1293
f 1296 1294 1295
f 1298 1300 1297
f 1300 1298 1299
f 1302 1304 1301
f 1304 1302 1303
f 1306 1308 1305
f 1308 1306 1307
f 1310 1312 1309
f 1312 1310 1311
f 1314 1316 1313
f 1316 1314 1315
f 1318 1320 1317
f 1320 1318 1319
f 1322 1324 1321
f 1324 1322 1323
f 1326 1328 1325
f 1328 1326 1327
f 1330 1332 1329
f 1332 1330 1331
f 1334 1336 1333
f 1336 1334 1335
f 1338 1340 1337
f 1340 1338 1339
f 1342 1344 1341
f 1344 1342 1343
f 1346 1348 1345
f 1348 1346 1347
f 1350 1352 1349
f 1352 1350 1351
f 1354 1356 1353
f 1356 1354 1355
f 1358 1360 1357
f 1360 1358 1359
f 1362 1364 1361
f 1364 1362 1363
f 1367 1368 1365
f 1365 1366 1367
f 1371 1372 1369
f 1369 1370 1371
f 1375 1376 1373
f 1373 1374 1375
f 1379 1380 1377
f 1377 1378 1379
f 1383 1384 1381
f 1381 1382 1383
f 1387 1388 1385
f 1385 1386 1387
f 1391 1392 1389
f 1389 1390 1391
f 1395 1396 1393
f 1393 1394 1395
f 1399 1400 1397
f 1397 1398 1399
f 1403 1404 1401
f 1401 1402 1403
f 1407 1408 1405
f 1405 1406 1407
f 1411 1412 1409
f 1409 1410 1411
f 1414 1416 1413
f 1416 1414 1415
f 1419 1420 1417
f 1417 1418 1419
f 1423 1424 1421
f 1421 1422 1423
f 1427 1428 1425
f 1425 1426 1427
f 1431 1432 1429
f 1429 1430 1431
f 1435 1436 1433
f 1433 1434 1435
f 1439 1440 1437
f 1437 1438 1439
f 1443 1444 1441
f 1441 1442 1443
f 1447 1448 1445
f 1445 1446 1447
f 1450 1452 1449
f 1452 1450 1451
f 1455 1456 1453
f 1453 1454 1455
f 1459 1460 1457
f 1457 1458 1459
f 1462 1464 1461
f 1464 1462 1463
f 1467 1468 1465
f 1465 1466 1467
f 1471 1472 1469
f 1469 1470 1471
f 1474 1476 1473
f 1476 1474 1475
f 1479 1480 1477
f 1477 1478 1479
f 1482 1484 1481
f 1484 1482 1483
f 1486 1488 1485
f 1488 1486 1487
f 1491 1492 1489
f 1489 1490 1491
f 1494 1496 1493
f 1496 1494 1495
f 1498 1500 1497
f 1500 1498 1499
f 1503 1504 1501
f 1501 1502 1503
f 1506 1508 1505
f 1508 1506 1507
f 1510 1512 1509
f 1512 1510 1511
f 1514 1516 1513
f 1516 1514 1515
f 1519 1520 1517
f 1517 1518 1519
f 1523 1524 1521
f 1521 1522 1523
f 1526 1528 1525
f 1528 1526 1527
f 1531 1532 1529
f 1529 1530 1531
f 1535 1536 1533
f 1533 1534 1535
f 1538 1540 1537
f 1540 1538 1539
f 1542 1544 1541
f 1544 1542 1543
f 1546 1548 1545
f 1548 1546 1547
f 1551 1552 1549
f 1549 1550 1551
f 1555 1556 1553
f 1553 1554 1555
f 1558 1560 1557
f 1560 1558 1559
f 1563 1564 1561
f 1561 1562 1563
f 1567 1568 1565
f 1565 1566 1567
f 1570 1572 1569
f 1572 1570 1571
f 1574 1576 1573
f 1576 1574 1575
f 1579 1580 1577
f 1577 1578 1579
f 1582 1584 1581
f 1584 1582 1583
f 1587 1588 1585
f 1585 1586 1587
f 1590 1592 1589
f 1592 1590 1591
f 1594 1596 1593
f 1596 1594 1595
f 1598 1600 1597
f 1600 1598 1599
f 1602 1604 1601
f 1604 1602 1603
f 1606 1608 1605
f 1608 1606 1607
f 1611 1612 1609
f 1609 1610 1611
f 1615 1616 1613
f 1613 1614 1615
f 1618 1620 1617
f 1620 1618 1619
f 1622 1624 1621
f 1624 1622 1623
f 1626 1628 1625
f 1628 1626 1627
f 1630 1632 1629
f 1632 1630 1631
f 1634 1636 1633
f 1636 1634 1635
f 1639 1640 1637
f 1637 1638 1639
f 1642 1644 1641
f 1644 1642 1643
f 1646 1648 1645
f 1648 1646 1647
f 1651 1652 1649
f 1649 1650 1651
f 1655 1656 1653
f 1653 1654 1655
f 1658 1660 1657
f 1660 1658 1659
f 1663 1664 1661
f 1661 1662 1663
f 1667 1668 1665
f 1665 1666 1667
f 1669 1670 1671
f 1672 1673 1674
f 1675 1676 1677
f 1678 1679 1680
f 1681 1682 1683
f 1684 1685 1686
f 1687 1688 1689
f 1690 1691 1692
f 1694 1696 1693
f 1696 1694 1695
f 1581 1698 1697
f 1698 1581 1584
f 1701 1702 1699
f 1699 1700 1701
f 1705 1706 1703
f 1703 1704 1705
f 1709 1710 1707
f 1707 1708 1709
f 1712 1714 1711
f 1714 1712 1713
f 1716 1718 1715
f 1718 1716 1717
f 1720 1722 1719
f 1722 1720 1721
f 1724 1726 1723
f 1726 1724 1725
f 1728 1730 1727
f 1730 1728 1729
f 1732 1734 1731
f 1734 1732 1733
f 1736 1738 1735
f 1738 1736 1737
f 1741 1742 1739
f 1739 1740 1741
f 1593 1744 1743
f 1744 1593 1596
f 1746 1748 1745
f 1748 1746 1747
f 1750 1752 1749
f 1752 1750 1751
f 1753 1754 1755
f 1756 1757 1758
f 1759 1760 1761
f 1762 1763 1764
f 1765 1766 1767
f 1768 1769 1767
f 1770 1771 1767
f 1772 1773 1767
f 1774 1765 1767
f 1773 1770 1767
f 1775 1776 1767
f 1771 1777 1767
f 1769 1772 1767
f 1766 1768 1767
f 1777 1775 1767
f 1776 1774 1767
f 1779 1781 1778
f 1781 1779 1780
f 1784 1785 1782
f 1782 1783 1784
f 1787 1789 1786
f 1789 1787 1788
f 1792 1793 1790
f 1790 1791 1792
f 1795 1797 1794
f 1797 1795 1796
