# https://github.com/mikedh/trimesh
v 0.06113226 0.00459615 -0.00359768
v 0.00000001 0.00476979 -0.00361206
v 0.06113226 0.00476979 -0.00361288
v 0.00000001 0.00493817 -0.00365718
v 0.06113226 0.00493817 -0.00365799
v 0.00000001 0.00509615 -0.00373084
v 0.06113226 0.00509615 -0.00373166
v 0.00000001 0.00523893 -0.00383083
v 0.06113226 0.00523893 -0.00383164
v 0.00000001 0.00536219 -0.00395408
v 0.06113226 0.00536219 -0.00395490
v 0.00000001 0.00546217 -0.00409687
v 0.06113226 0.00546217 -0.00409768
v 0.00000001 0.00553584 -0.00425485
v 0.06113225 0.00553584 -0.00425566
v 0.00000001 0.00558095 -0.00442322
v 0.06113225 0.00558095 -0.00442404
v 0.00000001 0.00559615 -0.00459687
v 0.06113225 0.00559615 -0.00459768
v 0.00000001 0.00558095 -0.00477052
v 0.06113224 0.00558095 -0.00477133
v 0.00000001 0.00553584 -0.00493889
v 0.06113224 0.00553584 -0.00493970
v 0.00000001 0.00546217 -0.00509687
v 0.06113224 0.00546217 -0.00509768
v 0.00000001 0.00536219 -0.00523966
v 0.06113224 0.00536219 -0.00524047
v 0.00000001 0.00523893 -0.00536291
v 0.06113224 0.00523893 -0.00536373
v 0.00000001 0.00509615 -0.00546290
v 0.06113224 0.00509615 -0.00546371
v 0.00000001 0.00493817 -0.00553656
v 0.06113223 0.00493817 -0.00553738
v 0.00000001 0.00476979 -0.00558168
v 0.06113223 0.00476979 -0.00558249
v 0.00000001 0.00459615 -0.00559687
v 0.06113223 0.00459615 -0.00559768
v 0.00000001 0.00442250 -0.00558168
v 0.06113223 0.00442250 -0.00558249
v 0.00000001 0.00425413 -0.00553656
v 0.06113223 0.00425413 -0.00553738
v 0.00000001 0.00409615 -0.00546290
v 0.06113224 0.00409615 -0.00546371
v 0.00000001 0.00395336 -0.00536291
v 0.06113224 0.00395336 -0.00536373
v 0.00000001 0.00383010 -0.00523966
v 0.06113224 0.00383010 -0.00524047
v 0.00000001 0.00373012 -0.00509687
v 0.06113224 0.00373012 -0.00509768
v 0.00000001 0.00365645 -0.00493889
v 0.06113224 0.00365645 -0.00493970
v 0.00000001 0.00361134 -0.00477052
v 0.06113224 0.00361134 -0.00477133
v 0.00000001 0.00359615 -0.00459687
v 0.06113225 0.00359615 -0.00459768
v 0.00000001 0.00361134 -0.00442322
v 0.06113225 0.00361134 -0.00442404
v 0.00000001 0.00365645 -0.00425485
v 0.06113225 0.00365645 -0.00425566
v 0.00000001 0.00373012 -0.00409687
v 0.06113226 0.00373012 -0.00409768
v 0.00000001 0.00383010 -0.00395408
v 0.06113226 0.00383010 -0.00395490
v 0.00000001 0.00395336 -0.00383083
v 0.06113226 0.00395336 -0.00383164
v 0.00000001 0.00409615 -0.00373084
v 0.06113226 0.00409615 -0.00373166
v 0.00000001 0.00425413 -0.00365718
v 0.06113226 0.00425413 -0.00365799
v 0.00000001 0.00442250 -0.00361206
v 0.06113226 0.00442250 -0.00361288
v 0.00000001 0.00459615 -0.00359687
f 1 2 3
f 3 2 4
f 3 4 5
f 5 4 6
f 5 6 7
f 7 6 8
f 7 8 9
f 9 8 10
f 9 10 11
f 11 10 12
f 11 12 13
f 13 12 14
f 13 14 15
f 15 14 16
f 15 16 17
f 17 16 18
f 17 18 19
f 19 18 20
f 19 20 21
f 21 20 22
f 21 22 23
f 23 22 24
f 23 24 25
f 25 24 26
f 25 26 27
f 27 26 28
f 27 28 29
f 29 28 30
f 29 30 31
f 31 30 32
f 31 32 33
f 33 32 34
f 33 34 35
f 35 34 36
f 35 36 37
f 37 36 38
f 37 38 39
f 39 38 40
f 39 40 41
f 41 40 42
f 41 42 43
f 43 42 44
f 43 44 45
f 45 44 46
f 45 46 47
f 47 46 48
f 47 48 49
f 49 48 50
f 49 50 51
f 51 50 52
f 51 52 53
f 53 52 54
f 53 54 55
f 55 54 56
f 55 56 57
f 57 56 58
f 57 58 59
f 59 58 60
f 59 60 61
f 61 60 62
f 61 62 63
f 63 62 64
f 63 64 65
f 65 64 66
f 65 66 67
f 67 66 68
f 67 68 69
f 69 68 70
f 69 70 71
f 71 70 72
f 71 72 1
f 1 72 2

