# https://github.com/mikedh/trimesh
v 0.06113238 -0.00459624 0.00559470
v 0.06113238 -0.00442259 0.00557951
v 0.06113238 -0.00425422 0.00553440
v 0.06113238 -0.00409624 0.00546073
v 0.06113238 -0.00395346 0.00536075
v 0.06113238 -0.00383020 0.00523749
v 0.06113238 -0.00373022 0.00509470
v 0.06113238 -0.00365655 0.00493672
v 0.06113237 -0.00361143 0.00476835
v 0.06113237 -0.00359624 0.00459470
v 0.06113237 -0.00361143 0.00442106
v 0.06113236 -0.00365655 0.00425268
v 0.06113236 -0.00373022 0.00409470
v 0.06113236 -0.00383020 0.00395192
v 0.06113236 -0.00395346 0.00382866
v 0.06113236 -0.00409624 0.00372868
v 0.06113236 -0.00425422 0.00365501
v 0.06113236 -0.00442259 0.00360990
v 0.06113236 -0.00459624 0.00359470
v 0.06113236 -0.00476989 0.00360990
v 0.06113236 -0.00493826 0.00365501
v 0.06113236 -0.00509624 0.00372868
v 0.06113236 -0.00523903 0.00382866
v 0.06113236 -0.00536229 0.00395192
v 0.06113236 -0.00546227 0.00409470
v 0.06113236 -0.00553594 0.00425268
v 0.06113237 -0.00558105 0.00442106
v 0.06113237 -0.00559624 0.00459470
v 0.06113237 -0.00558105 0.00476835
v 0.06113238 -0.00553594 0.00493672
v 0.06113238 -0.00546227 0.00509470
v 0.06113238 -0.00536229 0.00523749
v 0.06113238 -0.00523903 0.00536075
v 0.06113238 -0.00509624 0.00546073
v 0.06113238 -0.00493826 0.00553440
v 0.06113238 -0.00476989 0.00557951
v 0.06113237 -0.00459624 0.00459470
f 17 18 37
f 37 18 19
f 37 19 20
f 20 21 37
f 37 21 22
f 37 22 23
f 23 24 37
f 37 24 25
f 37 25 26
f 26 27 37
f 37 27 28
f 37 28 29
f 29 30 37
f 37 30 31
f 37 31 32
f 32 33 37
f 37 33 34
f 37 34 35
f 35 36 37
f 37 36 1
f 37 1 2
f 2 3 37
f 37 3 4
f 37 4 5
f 5 6 37
f 37 6 7
f 37 7 8
f 8 9 37
f 37 9 10
f 37 10 11
f 11 12 37
f 37 12 13
f 37 13 14
f 14 15 37
f 37 15 16
f 37 16 17

