# https://github.com/mikedh/trimesh
v -0.08570205 0.03593181 -0.21147034
v -0.09460039 0.03590104 -0.21815892
v -0.10134531 0.03587316 -0.21480870
v -0.08564145 0.03593054 -0.20869315
v -0.11002417 0.03581547 -0.17041953
v -0.10911504 0.03581879 -0.17006600
v -0.08605559 0.03592996 -0.21056120
v -0.10296293 0.03586604 -0.21322395
v -0.08603431 0.03592951 -0.20958598
v -0.12145084 0.03577880 -0.18420345
v -0.08738296 0.03593012 -0.22030981
v -0.08459765 0.03593703 -0.21320392
v -0.07990444 0.03595952 -0.22119837
v -0.07761080 0.03596430 -0.21371156
v -0.07238395 0.03598837 -0.22079854
v -0.07065566 0.03599074 -0.21287505
v -0.06504180 0.03601583 -0.21912205
v -0.06398841 0.03601534 -0.21072525
v -0.05809309 0.03604111 -0.21621802
v -0.05397994 0.03601625 -0.14121947
v -0.05728990 0.03600685 -0.14749649
v -0.05559757 0.03600912 -0.13963473
v -0.06335869 0.03598150 -0.14399742
v -0.03549203 0.03610349 -0.17023998
v -0.04768784 0.03604947 -0.15761028
v -0.05200135 0.03602980 -0.15209052
v -0.09857272 0.03585589 -0.16334975
v -0.07439449 0.03596999 -0.20130236
v -0.08493682 0.03593289 -0.20801860
v -0.10748094 0.03581695 -0.15507033
v -0.11077005 0.03580004 -0.14734229
v -0.10271484 0.03583260 -0.14993627
v -0.10520148 0.03581881 -0.14227189
v -0.09705573 0.03585222 -0.14580728
v -0.09884978 0.03584116 -0.13822539
v -0.09071206 0.03587512 -0.14283548
v -0.09190108 0.03586644 -0.13532136
v -0.08391748 0.03590047 -0.14113031
v -0.08455892 0.03589392 -0.13364488
v -0.07692230 0.03592730 -0.14075460
v -0.07703842 0.03592276 -0.13324505
v -0.06998418 0.03595465 -0.14172219
v -0.06955991 0.03595217 -0.13413361
v -0.06234247 0.03598123 -0.13628450
v -0.11099938 0.03581169 -0.17039825
v -0.11189222 0.03580802 -0.17000540
v -0.12220345 0.03577473 -0.18206762
v -0.11256675 0.03580503 -0.16930076
v -0.12238923 0.03576991 -0.17453873
v -0.11367115 0.03579982 -0.16756718
v -0.12128834 0.03577012 -0.16708845
v -0.11117844 0.03580590 -0.16102035
v -0.11893307 0.03577533 -0.15993504
v -0.11539239 0.03578540 -0.15328808
v -0.05174140 0.03606346 -0.21217152
v -0.05785466 0.03603722 -0.20734130
v -0.04617281 0.03608223 -0.20710112
v -0.05248035 0.03605554 -0.20284787
v -0.04155047 0.03609688 -0.20115533
v -0.04806343 0.03606966 -0.19741049
v -0.03800980 0.03610694 -0.19450837
v -0.04476662 0.03607904 -0.19122945
v -0.03565452 0.03611216 -0.18735497
v -0.04271135 0.03608335 -0.18453240
v -0.03455365 0.03611236 -0.17990468
v -0.04197333 0.03608242 -0.17756608
v -0.03473942 0.03610756 -0.17237581
v -0.04257975 0.03607627 -0.17058706
v -0.04450826 0.03606516 -0.16385244
f 1 2 3
f 2 1 11
f 11 1 12
f 11 12 13
f 13 12 14
f 13 14 15
f 15 14 16
f 15 16 17
f 17 16 18
f 17 18 19
f 19 18 55
f 55 18 56
f 55 56 57
f 57 56 58
f 57 58 59
f 59 58 60
f 59 60 61
f 61 60 62
f 61 62 63
f 63 62 64
f 63 64 65
f 65 64 66
f 65 66 67
f 67 66 68
f 67 68 24
f 24 68 69
f 24 69 25
f 24 25 20
f 20 25 26
f 20 26 21
f 20 21 22
f 22 21 23
f 23 44 22
f 23 43 44
f 42 43 23
f 42 41 43
f 40 41 42
f 40 39 41
f 38 39 40
f 38 37 39
f 36 37 38
f 36 35 37
f 34 35 36
f 34 33 35
f 32 33 34
f 32 31 33
f 30 31 32
f 30 54 31
f 30 53 54
f 52 53 30
f 52 51 53
f 50 51 52
f 50 49 51
f 48 49 50
f 48 47 49
f 46 47 48
f 46 10 47
f 45 10 46
f 45 4 10
f 5 4 45
f 4 5 6
f 6 29 4
f 6 28 29
f 27 28 6
f 9 10 4
f 9 8 10
f 7 8 9
f 7 3 8
f 1 3 7

