# https://github.com/mikedh/trimesh
v -0.00437338 -0.02537590 -0.01764361
v -0.01278870 -0.02234975 -0.01764203
v 0.00456944 -0.02534132 -0.01764360
v 0.01296111 -0.02225022 -0.01764205
v -0.01966152 -0.01662790 -0.01763909
v -0.02416286 -0.00890049 -0.01763513
v -0.02574981 -0.00009954 -0.01763060
v -0.01978948 0.01647540 -0.01762212
v 0.01278870 0.02234976 -0.01761917
v 0.01966151 0.01662792 -0.01762212
v -0.00456944 0.02534133 -0.01761760
v -0.01296111 0.02225021 -0.01761917
v 0.00437337 0.02537590 -0.01761761
v -0.00009954 0.02574980 -0.01761740
v 0.02416286 0.00890048 -0.01762609
v 0.01978948 -0.01647540 -0.01763910
v -0.02423095 0.00871341 -0.01762609
v 0.02574981 0.00009954 -0.01763060
v 0.02423095 -0.00871342 -0.01763513
v 0.02423095 -0.00871342 -0.01661041
v 0.01296111 -0.02225022 -0.01661739
v 0.00456943 -0.02534132 -0.01661899
v -0.00437338 -0.02537590 -0.01661904
v 0.02416286 0.00890050 -0.01660137
v 0.01966151 0.01662792 -0.01659742
v 0.01278870 0.02234976 -0.01659453
v -0.01296111 0.02225021 -0.01659466
v 0.01978948 -0.01647540 -0.01661439
v -0.01278870 -0.02234975 -0.01661753
v -0.01966151 -0.01662791 -0.01661461
v 0.02574981 0.00009953 -0.01660588
v -0.00456944 0.02534133 -0.01659304
v 0.00017330 0.02574941 -0.01659282
v 0.00437338 0.02537590 -0.01659299
v -0.01978948 0.01647541 -0.01659764
v -0.02416286 -0.00890049 -0.01661067
v -0.02574981 -0.00009954 -0.01660617
v -0.02423095 0.00871341 -0.01660164
f 13 14 33
f 33 14 32
f 14 11 32
f 32 11 12
f 32 12 27
f 27 12 8
f 27 8 35
f 35 8 17
f 35 17 38
f 38 17 7
f 38 7 37
f 37 7 6
f 37 6 36
f 36 6 5
f 36 5 30
f 30 5 2
f 30 2 29
f 29 2 1
f 29 1 23
f 23 1 3
f 23 3 22
f 22 3 4
f 22 4 21
f 21 4 16
f 21 16 28
f 28 16 19
f 28 19 20
f 20 19 18
f 20 18 31
f 31 18 15
f 31 15 24
f 24 15 10
f 24 10 25
f 25 10 9
f 25 9 26
f 26 9 13
f 26 13 34
f 34 13 33

