# https://github.com/mikedh/trimesh
v -0.04865435 0.02858574 -0.15053028
v -0.04905597 -0.01660836 -0.14992538
v -0.04634796 0.02859620 -0.15335275
v -0.04453247 -0.01658800 -0.15575835
v -0.04470716 0.02860383 -0.15573378
v -0.05378604 0.02856330 -0.14572899
v -0.05457427 -0.01663207 -0.14502293
v -0.05111454 0.02857487 -0.14801671
v -0.04923067 0.02858318 -0.14990081
v -0.05967880 0.02853844 -0.14189990
v -0.06089941 -0.01665835 -0.14121795
v -0.05664816 0.02855112 -0.14368477
v -0.05474896 0.02855917 -0.14499837
v -0.06107410 0.02853265 -0.14119337
v -0.06285451 0.02852533 -0.14038816
v -0.06781603 -0.01668628 -0.13864000
v -0.06615074 0.02851193 -0.13916123
v -0.06799071 0.02850452 -0.13861543
v -0.07526325 0.02847572 -0.13735232
v -0.07508856 -0.01671494 -0.13737689
v -0.07300210 0.02848459 -0.13759749
v -0.06954201 0.02849831 -0.13822860
v -0.08264406 0.02844724 -0.13744704
v -0.08246937 -0.01674332 -0.13747162
v -0.08002139 0.02845727 -0.13725694
v -0.07650425 0.02847087 -0.13727276
v -0.08988179 0.02842005 -0.13889639
v -0.08970710 -0.01677049 -0.13892096
v -0.08699194 0.02843082 -0.13815011
v -0.08352631 0.02844388 -0.13755015
v -0.09039146 0.02841816 -0.13905221
v -0.09369861 0.02840602 -0.14024945
v -0.09655529 -0.01679550 -0.14167556
v -0.09672997 0.02839508 -0.14165099
v -0.10278071 -0.01681749 -0.14564162
v -0.09688779 0.02839451 -0.14173256
v -0.09993436 0.02838369 -0.14349011
v -0.10281477 0.02837365 -0.14550848
v -0.10295540 0.02837316 -0.14561705
v -0.10834607 0.02835507 -0.15065950
v -0.10817139 -0.01683572 -0.15068407
v -0.10798945 0.02835623 -0.15026343
v -0.10550674 0.02836448 -0.14777210
v -0.11271843 0.02834140 -0.15660664
v -0.11254373 -0.01684961 -0.15663122
v -0.11225212 0.02834279 -0.15585062
v -0.11024372 0.02834899 -0.15296322
v -0.11592355 0.02833263 -0.16325594
v -0.11574886 -0.01685862 -0.16328052
v -0.11547119 0.02833375 -0.16209759
v -0.11399911 0.02833770 -0.15890327
v -0.11785231 0.02832904 -0.17038096
v -0.11767762 -0.01686249 -0.17040554
v -0.11754730 0.02832937 -0.16881151
v -0.11665697 0.02833096 -0.16540886
v -0.11813527 0.02832898 -0.17227922
v -0.11841636 0.02832980 -0.17578517
v -0.11826432 -0.01686107 -0.17776366
v -0.11805156 0.02833502 -0.18280329
v -0.11748900 -0.01685440 -0.18510428
v -0.11838838 0.02833182 -0.17930226
v -0.11843902 0.02833077 -0.17773908
v -0.11646415 0.02834488 -0.18964925
v -0.11537805 -0.01684272 -0.19217746
v -0.11740849 0.02833939 -0.18626121
v -0.11766370 0.02833777 -0.18507972
v -0.11555275 0.02834977 -0.19215289
v -0.11522584 0.02835146 -0.19294125
v -0.11200336 -0.01682643 -0.19874232
v -0.11364256 0.02835936 -0.19622441
v -0.11217806 0.02836639 -0.19871774
v -0.10765456 0.02838704 -0.20455071
v -0.10747986 -0.01680609 -0.20457529
v -0.10823088 0.02838448 -0.20392126
v -0.11053727 0.02837402 -0.20109877
v -0.10213627 0.02841104 -0.20945317
v -0.10196157 -0.01678238 -0.20947774
v -0.10309919 0.02840692 -0.20872255
v -0.10577068 0.02839535 -0.20643482
v -0.10023706 0.02841909 -0.21076675
v -0.09720643 0.02843178 -0.21255162
v -0.09563642 -0.01675610 -0.21328272
v -0.09073448 0.02845830 -0.21529031
v -0.08871981 -0.01672816 -0.21586066
v -0.09403072 0.02844488 -0.21406338
v -0.09581112 0.02843755 -0.21325815
v -0.08388313 0.02848563 -0.21685405
v -0.08144727 -0.01669951 -0.21712378
v -0.08734322 0.02847191 -0.21622293
v -0.08889451 0.02846569 -0.21583609
v -0.07686384 0.02851295 -0.21719459
v -0.07406647 -0.01667112 -0.21702905
v -0.08038098 0.02849933 -0.21717876
v -0.08162197 0.02849450 -0.21709920
v -0.06989329 0.02853940 -0.21630141
v -0.06682874 -0.01664397 -0.21557972
v -0.07335891 0.02852632 -0.21690138
v -0.07424117 0.02852298 -0.21700448
v -0.06700344 0.02855017 -0.21555515
v -0.06649376 0.02855205 -0.21539932
v -0.05998055 -0.01661896 -0.21282510
v -0.05695086 0.02858652 -0.21096142
v -0.05407045 0.02859657 -0.20894304
v -0.05375512 -0.01659697 -0.20885906
v -0.06318662 0.02856418 -0.21420209
v -0.06015525 0.02857514 -0.21280053
v -0.05999743 0.02857571 -0.21271896
v -0.04889577 0.02861399 -0.20418809
v -0.04836445 -0.01657872 -0.20381659
v -0.05137848 0.02860574 -0.20667943
v -0.05392982 0.02859705 -0.20883447
v -0.04463311 0.02862742 -0.19860092
v -0.04399210 -0.01656485 -0.19786945
v -0.04664150 0.02862123 -0.20148830
v -0.04853915 0.02861515 -0.20379202
v -0.04141404 0.02863647 -0.19235393
v -0.04078697 -0.01655583 -0.19122015
v -0.04288612 0.02863252 -0.19554825
v -0.04416680 0.02862881 -0.19784488
v -0.03933793 0.02864084 -0.18564001
v -0.03885822 -0.01655197 -0.18409513
v -0.04022826 0.02863926 -0.18904266
v -0.04096167 0.02863759 -0.19119558
v -0.03903291 0.02864117 -0.18407056
v -0.03874995 0.02864124 -0.18217230
v -0.03827151 -0.01655339 -0.17673701
v -0.03846886 0.02864042 -0.17866635
v -0.03844620 0.02863943 -0.17671244
v -0.03922153 0.02863245 -0.16937181
v -0.03904683 -0.01656006 -0.16939639
v -0.03883367 0.02863518 -0.17164823
v -0.03849684 0.02863839 -0.17514926
v -0.04133247 0.02862045 -0.16229863
v -0.04115778 -0.01657172 -0.16232321
v -0.04042108 0.02862532 -0.16480228
v -0.03947673 0.02863083 -0.16819033
v -0.04324267 0.02861084 -0.15822713
v -0.04165939 0.02861875 -0.16151027
v -0.09460039 0.03590104 -0.21815892
v -0.10134531 0.03587316 -0.21480870
v -0.10296293 0.03586604 -0.21322395
v -0.12145084 0.03577880 -0.18420345
v -0.08738296 0.03593012 -0.22030981
v -0.07990444 0.03595952 -0.22119837
v -0.07238395 0.03598837 -0.22079854
v -0.06504180 0.03601583 -0.21912205
v -0.05809309 0.03604111 -0.21621802
v -0.05397994 0.03601625 -0.14121947
v -0.05559757 0.03600912 -0.13963473
v -0.03549203 0.03610349 -0.17023998
v -0.11077005 0.03580004 -0.14734229
v -0.10520148 0.03581881 -0.14227189
v -0.09884978 0.03584116 -0.13822539
v -0.09190108 0.03586644 -0.13532136
v -0.08455892 0.03589392 -0.13364488
v -0.07703842 0.03592276 -0.13324505
v -0.06955991 0.03595217 -0.13413361
v -0.06234247 0.03598123 -0.13628450
v -0.12220345 0.03577473 -0.18206762
v -0.12238923 0.03576991 -0.17453873
v -0.12128834 0.03577012 -0.16708845
v -0.11893307 0.03577533 -0.15993504
v -0.11539239 0.03578540 -0.15328808
v -0.05174140 0.03606346 -0.21217152
v -0.04617281 0.03608223 -0.20710112
v -0.04155047 0.03609688 -0.20115533
v -0.03800980 0.03610694 -0.19450837
v -0.03565452 0.03611216 -0.18735497
v -0.03455365 0.03611236 -0.17990468
v -0.03473942 0.03610756 -0.17237581
v -0.11486837 0.02907897 -0.19449876
v -0.11373746 0.02880494 -0.19627240
v -0.11371606 0.02875518 -0.19626303
v -0.11351920 0.02874638 -0.19661470
v -0.11219931 0.02837253 -0.19868442
v -0.04626657 0.02904238 -0.15328845
v -0.04628387 0.02899249 -0.15330373
v -0.04604830 0.02898382 -0.15363073
v -0.04859497 0.02898203 -0.15047547
v -0.04472841 0.02860997 -0.15570046
v -0.11530258 0.02874726 -0.19297317
v -0.11676520 0.02907115 -0.18974631
v -0.11609589 0.02928759 -0.19257312
v -0.11551718 0.02907779 -0.19306412
v -0.11502466 0.02911172 -0.19425364
v -0.11654342 0.02874067 -0.18967444
v -0.11748969 0.02873517 -0.18627946
v -0.11813407 0.02873080 -0.18281448
v -0.11847159 0.02872759 -0.17930628
v -0.11821796 0.02872474 -0.17226890
v -0.11762878 0.02872513 -0.16879410
v -0.11673664 0.02872672 -0.16538450
v -0.11849962 0.02872556 -0.17578201
v -0.11554842 0.02872951 -0.16206644
v -0.11407334 0.02873348 -0.15886559
v -0.11232278 0.02873858 -0.15580669
v -0.11031028 0.02874478 -0.15291341
v -0.10805140 0.02875204 -0.15020809
v -0.10556360 0.02876030 -0.14771166
v -0.10286614 0.02876950 -0.14544342
v -0.09997984 0.02877955 -0.14342092
v -0.09692704 0.02879041 -0.14165978
v -0.09373133 0.02880195 -0.14017363
v -0.09041743 0.02881410 -0.13897394
v -0.08701095 0.02882677 -0.13807000
v -0.08353824 0.02883988 -0.13746881
v -0.08002614 0.02885329 -0.13717501
v -0.07650182 0.02886693 -0.13719086
v -0.07299250 0.02888067 -0.13751625
v -0.06952535 0.02889442 -0.13814865
v -0.06282417 0.02892150 -0.14031263
v -0.05964196 0.02893462 -0.14182746
v -0.05660513 0.02894734 -0.14361599
v -0.06612714 0.02890806 -0.13908318
v -0.04739747 0.02931641 -0.15151480
v -0.04755375 0.02934916 -0.15126967
v -0.04842350 0.02931391 -0.15032049
v -0.04862498 0.02952504 -0.14958917
v -0.05090300 0.02930294 -0.14778720
v -0.05066865 0.02951603 -0.14753573
v -0.05359544 0.02929128 -0.14548153
v -0.05338408 0.02950426 -0.14521037
v -0.05648002 0.02927901 -0.14342129
v -0.05629329 0.02949189 -0.14313254
v -0.05953443 0.02926621 -0.14162241
v -0.05937377 0.02947900 -0.14131829
v -0.06273504 0.02925302 -0.14009881
v -0.06260172 0.02946569 -0.13978168
v -0.06605714 0.02923951 -0.13886225
v -0.06595218 0.02945206 -0.13853458
v -0.06947500 0.02922579 -0.13792232
v -0.06939923 0.02943822 -0.13758659
v -0.07296223 0.02921196 -0.13728625
v -0.07291624 0.02942427 -0.13694511
v -0.07649186 0.02919814 -0.13695897
v -0.07647599 0.02941033 -0.13661504
v -0.08003658 0.02918442 -0.13694303
v -0.08005099 0.02939651 -0.13659896
v -0.08356901 0.02917092 -0.13723855
v -0.08361357 0.02938289 -0.13689700
v -0.08706181 0.02915776 -0.13784322
v -0.08713621 0.02936961 -0.13750683
v -0.09048800 0.02914501 -0.13875239
v -0.09059165 0.02935675 -0.13842376
v -0.09382109 0.02913278 -0.13995901
v -0.09395319 0.02934441 -0.13964069
v -0.09703529 0.02912117 -0.14145376
v -0.09719484 0.02933270 -0.14114821
v -0.10010576 0.02911027 -0.14322509
v -0.10029153 0.02932170 -0.14293467
v -0.10300875 0.02910014 -0.14525931
v -0.10321932 0.02931150 -0.14498624
v -0.10572184 0.02909090 -0.14754067
v -0.10595556 0.02930218 -0.14728709
v -0.10822403 0.02908259 -0.15005155
v -0.10847912 0.02929380 -0.14981940
v -0.11049598 0.02907529 -0.15277252
v -0.11077047 0.02928643 -0.15256362
v -0.11252014 0.02906904 -0.15568255
v -0.11281190 0.02928014 -0.15549849
v -0.11428083 0.02906391 -0.15875915
v -0.11458763 0.02927495 -0.15860136
v -0.11576445 0.02905993 -0.16197853
v -0.11608392 0.02927094 -0.16184823
v -0.11695953 0.02905712 -0.16531578
v -0.11728921 0.02926811 -0.16521397
v -0.11785684 0.02905552 -0.16874512
v -0.11819418 0.02926650 -0.16867259
v -0.11844943 0.02905513 -0.17224003
v -0.11879183 0.02926610 -0.17219734
v -0.11873273 0.02905595 -0.17577347
v -0.11907754 0.02926693 -0.17576097
v -0.11870453 0.02905799 -0.17931816
v -0.11904910 0.02926898 -0.17933591
v -0.11836506 0.02906122 -0.18284665
v -0.11870674 0.02927225 -0.18289453
v -0.11771695 0.02906562 -0.18633167
v -0.11805309 0.02927667 -0.18640932
v -0.11709321 0.02928227 -0.18985310
v -0.05373715 0.02895954 -0.14566438
v -0.05106020 0.02897112 -0.14795677
v -0.11977160 0.02991142 -0.18680689
v -0.12142970 0.03031253 -0.18420641
v -0.12218297 0.03047476 -0.18207049
v -0.12192670 0.03043389 -0.18318814
v -0.05395881 0.03054998 -0.14122245
v -0.05230070 0.03014886 -0.14382292
v -0.05467791 0.03067114 -0.14033651
v -0.05557708 0.03070916 -0.13963760
v -0.05781075 0.03069984 -0.13836615
v -0.06232199 0.03068128 -0.13628738
v -0.06492989 0.03067069 -0.13535360
v -0.06953942 0.03065220 -0.13413648
v -0.07246638 0.03064061 -0.13363348
v -0.07701794 0.03062281 -0.13324794
v -0.08018760 0.03061056 -0.13325889
v -0.08453844 0.03059395 -0.13364775
v -0.08785521 0.03058146 -0.13424139
v -0.09188059 0.03056648 -0.13532424
v -0.09523254 0.03055420 -0.13655064
v -0.09882930 0.03054121 -0.13822827
v -0.10209188 0.03052962 -0.14011538
v -0.10518099 0.03051884 -0.14227477
v -0.10822149 0.03050848 -0.14482556
v -0.11074957 0.03050008 -0.14734519
v -0.11343218 0.03049145 -0.15053581
v -0.11537191 0.03048544 -0.15329097
v -0.11756310 0.03047903 -0.15706985
v -0.11891258 0.03047538 -0.15993793
v -0.12048674 0.03047162 -0.16422601
v -0.12126786 0.03047016 -0.16709134
v -0.12211288 0.03046945 -0.17178340
v -0.12236874 0.03046996 -0.17454161
v -0.12239129 0.03047257 -0.17950873
v -0.04079661 0.02956199 -0.16187738
v -0.03979927 0.02956732 -0.16459741
v -0.03712585 0.03022048 -0.16764292
v -0.03883940 0.02957291 -0.16804118
v -0.03547090 0.03063722 -0.17024295
v -0.03818575 0.02957734 -0.17155598
v -0.03784338 0.02958061 -0.17511460
v -0.03471893 0.03080759 -0.17237869
v -0.03497487 0.03076353 -0.17126109
v -0.10294180 0.03039978 -0.21322691
v -0.10059920 0.02935770 -0.21131797
v -0.10350841 0.02934532 -0.20924014
v -0.10459675 0.02998303 -0.21062689
v -0.10622384 0.02933356 -0.20691478
v -0.10826751 0.02932455 -0.20486134
v -0.10222366 0.03052745 -0.21411271
v -0.10132482 0.03057319 -0.21481158
v -0.09751871 0.02937058 -0.21313220
v -0.09909114 0.03058252 -0.21608303
v -0.09429076 0.02938390 -0.21466883
v -0.09457991 0.03060109 -0.21816181
v -0.09094031 0.02939753 -0.21591593
v -0.09197201 0.03061168 -0.21909559
v -0.08749326 0.02941137 -0.21686390
v -0.08736248 0.03063015 -0.22031270
v -0.08397625 0.02942531 -0.21750540
v -0.08443552 0.03064175 -0.22081570
v -0.08041649 0.02943925 -0.21783547
v -0.07988396 0.03065954 -0.22120124
v -0.07684150 0.02945309 -0.21785155
v -0.07671430 0.03067180 -0.22119029
v -0.07327892 0.02946669 -0.21755351
v -0.07236346 0.03068840 -0.22080143
v -0.06975628 0.02947998 -0.21694367
v -0.06904668 0.03070091 -0.22020780
v -0.06630084 0.02949283 -0.21602675
v -0.06502131 0.03071588 -0.21912494
v -0.06293929 0.02950518 -0.21480982
v -0.06166935 0.03072817 -0.21789855
v -0.05969765 0.02951689 -0.21330230
v -0.05807260 0.03074116 -0.21622092
v -0.05660096 0.02952789 -0.21151584
v -0.05481002 0.03075274 -0.21433380
v -0.05367318 0.02953809 -0.20946427
v -0.05172091 0.03076351 -0.21217442
v -0.05093693 0.02954741 -0.20716342
v -0.04868041 0.03077387 -0.20962362
v -0.04841337 0.02955579 -0.20463111
v -0.04615232 0.03078228 -0.20710400
v -0.04612202 0.02956315 -0.20188689
v -0.04346972 0.03079091 -0.20391338
v -0.04408059 0.02956945 -0.19895200
v -0.04152999 0.03079692 -0.20115821
v -0.04230486 0.02957463 -0.19584915
v -0.03933880 0.03080333 -0.19737934
v -0.04080857 0.02957864 -0.19260228
v -0.03798931 0.03080699 -0.19451125
v -0.03960328 0.02958148 -0.18923652
v -0.03641515 0.03081074 -0.19022317
v -0.03869831 0.02958310 -0.18577790
v -0.03563404 0.03081220 -0.18735784
v -0.03810066 0.02958349 -0.18225317
v -0.03478902 0.03081292 -0.18266578
v -0.03781495 0.02958265 -0.17868954
v -0.03453315 0.03081241 -0.17990758
v -0.03451060 0.03080980 -0.17494045
v -0.04202246 0.02934176 -0.15995197
v -0.04315121 0.02905709 -0.15817863
v -0.04317223 0.02900719 -0.15818807
v -0.04336901 0.02899647 -0.15783642
v -0.04468596 0.02861018 -0.15576710
v -0.11062211 0.02881964 -0.20116259
v -0.11060442 0.02876987 -0.20114738
v -0.11083991 0.02875903 -0.20082037
v -0.10829332 0.02878034 -0.20397562
v -0.11215686 0.02837274 -0.19875106
v -0.04158571 0.02901510 -0.16147794
v -0.04012565 0.02935380 -0.16470443
v -0.04137367 0.02934718 -0.16138661
v -0.04186644 0.02937599 -0.16019706
v -0.04034487 0.02902170 -0.16477665
v -0.03939860 0.02902720 -0.16817163
v -0.03875421 0.02903157 -0.17163661
v -0.03841670 0.02903479 -0.17514481
v -0.03867033 0.02903763 -0.18218221
v -0.03925951 0.02903724 -0.18565699
v -0.04015165 0.02903564 -0.18906660
v -0.03838867 0.02903681 -0.17866908
v -0.04133986 0.02903286 -0.19238466
v -0.04281495 0.02902889 -0.19558550
v -0.04456551 0.02902379 -0.19864440
v -0.04657801 0.02901759 -0.20153770
v -0.04883689 0.02901033 -0.20424300
v -0.05132468 0.02900207 -0.20673944
v -0.05402215 0.02899287 -0.20900767
v -0.05690845 0.02898282 -0.21103019
v -0.05996125 0.02897196 -0.21279132
v -0.06315695 0.02896042 -0.21427748
v -0.06647086 0.02894827 -0.21547715
v -0.06987733 0.02893559 -0.21638109
v -0.07335004 0.02892249 -0.21698229
v -0.07686214 0.02890908 -0.21727610
v -0.08038647 0.02889544 -0.21726024
v -0.08389578 0.02888170 -0.21693486
v -0.08736295 0.02886795 -0.21630245
v -0.09406412 0.02884087 -0.21413848
v -0.09724633 0.02882775 -0.21262364
v -0.10028315 0.02881504 -0.21083511
v -0.09076115 0.02885431 -0.21536791
v -0.10949336 0.02910432 -0.20293593
v -0.10933734 0.02913855 -0.20318103
v -0.10846735 0.02911106 -0.20413026
v -0.10598785 0.02912202 -0.20666353
v -0.10329541 0.02913368 -0.20896921
v -0.10041083 0.02914594 -0.21102944
v -0.09735642 0.02915873 -0.21282832
v -0.09415580 0.02917193 -0.21435194
v -0.09083371 0.02918544 -0.21558848
v -0.08741584 0.02919918 -0.21652843
v -0.08392861 0.02921300 -0.21716449
v -0.08039899 0.02922682 -0.21749176
v -0.07685427 0.02924053 -0.21750771
v -0.07332184 0.02925402 -0.21721220
v -0.06982903 0.02926719 -0.21660753
v -0.06640285 0.02927994 -0.21569836
v -0.06306976 0.02929218 -0.21449172
v -0.05985556 0.02930378 -0.21299697
v -0.05678509 0.02931470 -0.21122564
v -0.05388209 0.02932481 -0.20919143
v -0.05116901 0.02933405 -0.20691007
v -0.04866682 0.02934236 -0.20439920
v -0.04639486 0.02934966 -0.20167822
v -0.04437071 0.02935591 -0.19876818
v -0.04261002 0.02936104 -0.19569159
v -0.04112640 0.02936502 -0.19247220
v -0.03993131 0.02936784 -0.18913496
v -0.03903401 0.02936943 -0.18570562
v -0.03844142 0.02936983 -0.18221071
v -0.03815812 0.02936900 -0.17867726
v -0.03818632 0.02936697 -0.17513259
v -0.03852579 0.02936373 -0.17160410
v -0.03917390 0.02935933 -0.16811906
v -0.10315114 0.02880283 -0.20878673
v -0.10582808 0.02879124 -0.20649432
f 1 2 3
f 177 1 3
f 179 1 177
f 179 9 1
f 8 9 179
f 281 8 179
f 281 6 8
f 280 6 281
f 219 280 281
f 221 280 219
f 221 213 280
f 223 213 221
f 221 222 223
f 223 222 224
f 286 224 222
f 286 288 224
f 224 288 289
f 224 289 226
f 225 224 226
f 225 226 227
f 227 226 228
f 227 228 229
f 229 214 227
f 227 214 211
f 214 17 211
f 211 17 15
f 211 15 14
f 211 14 212
f 212 14 10
f 10 14 11
f 10 11 12
f 10 12 213
f 213 12 13
f 12 7 13
f 13 7 6
f 12 11 7
f 212 10 213
f 225 211 212
f 225 212 223
f 11 14 15
f 11 15 16
f 16 15 17
f 16 17 18
f 22 16 18
f 210 22 18
f 21 22 210
f 209 21 210
f 209 19 21
f 19 20 21
f 21 20 16
f 26 20 19
f 25 20 26
f 25 24 20
f 23 24 25
f 207 23 25
f 206 23 207
f 206 30 23
f 29 30 206
f 205 29 206
f 239 205 206
f 239 206 237
f 237 238 239
f 239 238 240
f 238 296 240
f 240 296 297
f 240 297 242
f 241 240 242
f 241 242 243
f 243 242 244
f 243 244 245
f 245 203 243
f 243 203 204
f 203 32 204
f 32 31 204
f 28 31 32
f 28 32 33
f 33 32 34
f 33 34 35
f 35 34 36
f 202 36 34
f 202 34 203
f 37 36 202
f 201 37 202
f 247 201 202
f 247 202 245
f 245 246 247
f 247 246 248
f 246 300 248
f 248 300 301
f 248 301 250
f 249 248 250
f 249 250 251
f 251 250 252
f 251 252 253
f 253 199 251
f 251 199 200
f 199 43 200
f 43 39 200
f 43 35 39
f 42 35 43
f 42 41 35
f 40 41 42
f 47 41 40
f 46 41 47
f 197 46 47
f 197 47 198
f 255 197 198
f 255 198 253
f 253 254 255
f 255 254 256
f 254 304 256
f 256 304 305
f 256 305 258
f 257 256 258
f 257 258 259
f 259 258 260
f 259 260 261
f 261 195 259
f 259 195 196
f 195 51 196
f 51 44 196
f 51 45 44
f 44 45 46
f 50 45 51
f 50 49 45
f 48 49 50
f 194 48 50
f 192 48 194
f 192 55 48
f 54 55 192
f 191 54 192
f 191 52 54
f 52 53 54
f 52 56 53
f 53 56 57
f 53 57 58
f 62 58 57
f 61 58 62
f 61 60 58
f 59 60 61
f 59 61 189
f 188 59 189
f 273 188 189
f 273 189 271
f 271 189 193
f 189 62 193
f 271 193 269
f 269 270 271
f 271 270 272
f 270 312 272
f 272 312 313
f 272 313 274
f 273 272 274
f 273 274 275
f 275 274 276
f 274 284 276
f 276 284 285
f 284 159 285
f 285 159 142
f 285 142 283
f 142 282 283
f 282 278 283
f 283 278 276
f 277 276 278
f 277 278 182
f 182 278 279
f 182 279 183
f 182 183 184
f 184 183 185
f 185 171 184
f 142 171 185
f 142 172 171
f 171 172 173
f 173 172 174
f 174 70 173
f 173 70 181
f 70 68 181
f 181 68 67
f 64 67 68
f 63 67 64
f 186 67 63
f 186 63 187
f 63 65 187
f 187 65 66
f 187 66 188
f 275 187 188
f 277 187 275
f 65 60 66
f 65 64 60
f 277 186 187
f 63 64 65
f 64 68 69
f 181 67 186
f 182 181 186
f 69 68 70
f 69 70 71
f 175 71 70
f 175 390 71
f 75 71 390
f 388 75 390
f 387 75 388
f 387 74 75
f 74 69 75
f 74 73 69
f 72 73 74
f 389 72 74
f 79 72 389
f 458 79 389
f 426 458 389
f 427 458 426
f 427 457 458
f 428 457 427
f 428 422 457
f 429 422 428
f 428 326 429
f 429 326 325
f 429 325 430
f 430 325 332
f 325 331 332
f 325 330 331
f 324 330 325
f 141 330 324
f 141 324 327
f 327 329 141
f 141 329 425
f 426 425 329
f 424 425 426
f 142 425 424
f 424 386 142
f 142 386 388
f 424 389 386
f 387 386 389
f 141 425 142
f 327 328 329
f 327 326 328
f 427 329 328
f 324 326 327
f 141 331 330
f 140 331 141
f 331 140 333
f 333 140 139
f 333 139 335
f 335 139 337
f 336 335 337
f 336 337 338
f 338 337 339
f 338 339 340
f 434 338 340
f 433 338 434
f 434 418 433
f 434 417 418
f 435 417 434
f 435 416 417
f 416 91 417
f 91 93 417
f 91 92 93
f 93 92 88
f 93 88 94
f 94 88 87
f 418 94 87
f 418 87 419
f 87 89 419
f 419 89 90
f 89 84 90
f 90 84 83
f 83 84 85
f 420 83 85
f 423 83 420
f 431 423 420
f 431 420 430
f 430 420 421
f 420 86 421
f 421 86 81
f 421 81 422
f 81 80 422
f 77 80 81
f 77 81 82
f 76 80 77
f 76 77 78
f 78 77 73
f 78 73 79
f 457 76 78
f 422 80 76
f 86 82 81
f 85 82 86
f 432 423 431
f 432 419 423
f 433 419 432
f 432 336 433
f 432 334 336
f 431 334 432
f 431 332 334
f 332 333 334
f 420 85 86
f 85 84 82
f 423 90 83
f 89 88 84
f 419 90 423
f 87 88 89
f 98 92 91
f 97 92 98
f 415 97 98
f 415 98 416
f 436 415 416
f 437 415 436
f 436 344 437
f 437 344 346
f 437 346 438
f 438 346 348
f 346 347 348
f 346 345 347
f 144 347 345
f 144 345 343
f 341 144 343
f 341 143 144
f 339 143 341
f 342 341 343
f 342 343 344
f 340 341 342
f 435 340 342
f 435 342 436
f 344 343 345
f 145 347 144
f 145 349 347
f 145 351 349
f 146 351 145
f 146 353 351
f 352 351 353
f 352 353 354
f 354 353 355
f 354 355 356
f 442 354 356
f 441 354 442
f 442 410 441
f 442 409 410
f 443 409 442
f 443 408 409
f 444 408 443
f 444 407 408
f 445 407 444
f 444 360 445
f 445 360 362
f 445 362 446
f 446 362 364
f 362 363 364
f 362 361 363
f 361 165 363
f 363 165 365
f 365 165 166
f 365 166 367
f 367 166 369
f 369 166 167
f 369 167 371
f 370 369 371
f 370 371 372
f 450 370 372
f 449 370 450
f 449 368 370
f 448 368 449
f 448 366 368
f 366 367 368
f 447 366 448
f 448 404 447
f 447 404 405
f 447 405 446
f 446 405 406
f 405 112 406
f 406 112 114
f 406 114 407
f 114 115 407
f 407 115 108
f 115 109 108
f 108 109 110
f 110 109 104
f 110 104 111
f 110 111 409
f 409 111 103
f 111 104 103
f 102 103 104
f 410 103 102
f 410 102 411
f 102 107 411
f 411 107 106
f 104 106 107
f 101 106 104
f 101 105 106
f 100 105 101
f 96 100 101
f 96 99 100
f 413 100 99
f 413 99 414
f 438 413 414
f 439 413 438
f 439 412 413
f 412 105 413
f 440 412 439
f 440 411 412
f 441 411 440
f 440 352 441
f 440 350 352
f 439 350 440
f 439 348 350
f 348 349 350
f 414 99 95
f 414 95 415
f 95 99 96
f 95 96 97
f 105 100 413
f 412 106 105
f 411 106 412
f 104 107 102
f 408 108 110
f 114 109 115
f 114 113 109
f 112 113 114
f 119 113 112
f 118 113 119
f 118 117 113
f 116 117 118
f 404 116 118
f 403 116 404
f 403 123 116
f 401 123 403
f 401 122 123
f 122 117 123
f 122 121 117
f 120 121 122
f 120 124 121
f 121 124 125
f 399 125 124
f 399 127 125
f 402 127 399
f 402 128 127
f 398 128 402
f 398 132 128
f 132 126 128
f 131 126 132
f 131 130 126
f 129 130 131
f 397 129 131
f 397 131 398
f 454 397 398
f 455 397 454
f 455 396 397
f 456 396 455
f 456 395 396
f 392 395 456
f 456 318 392
f 392 318 316
f 392 316 315
f 392 315 393
f 393 315 394
f 394 315 150
f 150 381 394
f 150 382 381
f 384 382 150
f 384 150 385
f 385 150 180
f 385 180 5
f 385 5 137
f 5 4 137
f 137 4 134
f 137 134 138
f 138 134 133
f 133 134 135
f 395 133 135
f 391 133 395
f 135 134 130
f 135 130 136
f 135 136 396
f 396 136 129
f 391 138 133
f 137 138 391
f 383 137 391
f 383 391 381
f 393 381 391
f 384 137 383
f 3 4 5
f 3 5 180
f 178 3 180
f 150 178 180
f 150 176 178
f 176 177 178
f 215 176 150
f 150 216 215
f 148 216 150
f 148 218 216
f 287 218 148
f 148 286 287
f 287 220 218
f 287 222 220
f 219 218 220
f 217 218 219
f 217 216 218
f 215 216 217
f 217 179 215
f 215 179 176
f 385 137 384
f 383 382 384
f 381 382 383
f 150 315 317
f 150 317 319
f 317 318 319
f 319 318 320
f 320 323 319
f 320 322 323
f 322 170 323
f 323 170 150
f 380 170 322
f 380 169 170
f 379 169 380
f 321 379 380
f 378 379 321
f 454 378 321
f 453 378 454
f 453 376 378
f 376 377 378
f 376 375 377
f 375 168 377
f 377 168 169
f 373 168 375
f 373 167 168
f 374 373 375
f 372 373 374
f 451 372 374
f 451 374 452
f 452 399 451
f 451 399 400
f 451 400 450
f 450 400 401
f 400 120 401
f 452 374 376
f 374 375 376
f 452 376 453
f 453 402 452
f 378 377 379
f 377 169 379
f 321 380 322
f 321 322 320
f 455 321 320
f 323 150 319
f 394 381 393
f 393 391 392
f 315 316 317
f 317 316 318
f 456 320 318
f 392 391 395
f 395 135 396
f 455 320 456
f 454 321 455
f 454 398 453
f 396 129 397
f 136 130 129
f 131 132 398
f 453 398 402
f 126 127 128
f 452 402 399
f 126 125 127
f 399 124 400
f 121 125 126
f 400 124 120
f 120 122 401
f 449 401 403
f 123 117 116
f 118 119 405
f 405 119 112
f 404 118 405
f 448 403 404
f 447 364 366
f 364 365 366
f 449 403 448
f 450 401 449
f 450 372 451
f 372 371 373
f 368 369 370
f 371 167 373
f 368 367 369
f 366 365 367
f 361 164 165
f 359 164 361
f 359 147 164
f 357 147 359
f 357 355 147
f 147 355 146
f 358 357 359
f 358 359 360
f 356 357 358
f 443 356 358
f 360 359 361
f 364 363 365
f 446 364 447
f 446 406 445
f 360 361 362
f 444 358 360
f 445 406 407
f 407 108 408
f 443 358 444
f 408 110 409
f 409 103 410
f 441 410 411
f 442 356 443
f 356 355 357
f 441 352 354
f 350 351 352
f 355 353 146
f 350 349 351
f 348 347 349
f 438 348 439
f 438 414 437
f 344 345 346
f 436 342 344
f 437 414 415
f 95 97 415
f 97 96 92
f 417 93 94
f 416 98 91
f 436 416 435
f 417 94 418
f 433 418 419
f 434 340 435
f 340 339 341
f 337 143 339
f 433 336 338
f 334 335 336
f 337 139 143
f 334 333 335
f 332 331 333
f 430 332 431
f 430 421 429
f 324 325 326
f 428 328 326
f 429 421 422
f 422 76 457
f 427 328 428
f 457 78 458
f 426 329 427
f 426 389 424
f 458 78 79
f 79 73 72
f 389 74 387
f 386 387 388
f 142 388 390
f 175 142 390
f 174 142 175
f 75 69 71
f 175 70 174
f 173 181 171
f 174 172 142
f 184 171 181
f 185 183 142
f 184 181 182
f 183 279 282
f 182 186 277
f 282 279 278
f 142 183 282
f 314 159 284
f 314 160 159
f 313 160 314
f 276 285 283
f 274 314 284
f 275 276 277
f 274 313 314
f 312 160 313
f 312 161 160
f 311 161 312
f 310 161 311
f 268 310 311
f 268 311 270
f 266 310 268
f 267 266 268
f 267 268 269
f 269 190 267
f 267 190 191
f 267 191 265
f 265 266 267
f 265 264 266
f 264 309 266
f 264 308 309
f 262 308 264
f 263 262 264
f 261 262 263
f 263 194 261
f 262 307 308
f 307 163 308
f 308 163 162
f 306 163 307
f 306 151 163
f 305 151 306
f 260 306 307
f 260 307 262
f 308 162 309
f 309 162 310
f 263 264 265
f 265 192 263
f 266 309 310
f 310 162 161
f 270 311 312
f 269 268 270
f 269 193 190
f 193 57 190
f 271 272 273
f 275 188 273
f 188 66 59
f 66 60 59
f 189 61 62
f 193 62 57
f 190 57 56
f 190 56 52
f 54 53 49
f 190 52 191
f 265 191 192
f 54 49 55
f 263 192 194
f 194 50 195
f 55 49 48
f 196 44 46
f 195 50 51
f 261 194 195
f 261 260 262
f 258 306 260
f 259 196 257
f 257 196 197
f 258 305 306
f 304 151 305
f 304 152 151
f 303 152 304
f 302 152 303
f 302 153 152
f 301 153 302
f 301 154 153
f 252 302 303
f 252 303 254
f 254 303 304
f 255 256 257
f 257 197 255
f 196 46 197
f 46 45 41
f 47 40 198
f 198 40 42
f 198 42 199
f 35 38 39
f 35 37 38
f 200 39 38
f 200 38 201
f 249 200 201
f 199 42 43
f 253 198 199
f 253 252 254
f 250 302 252
f 251 200 249
f 250 301 302
f 300 154 301
f 300 299 154
f 154 299 155
f 299 298 155
f 155 298 297
f 155 297 156
f 244 298 299
f 244 299 246
f 246 299 300
f 247 248 249
f 249 201 247
f 201 38 37
f 36 37 35
f 27 31 28
f 27 28 29
f 29 28 24
f 204 31 27
f 204 27 205
f 241 204 205
f 203 34 32
f 245 202 203
f 245 244 246
f 242 298 244
f 243 204 241
f 242 297 298
f 156 297 296
f 156 296 295
f 294 156 295
f 236 294 295
f 236 295 238
f 234 294 236
f 235 234 236
f 235 236 237
f 237 207 235
f 235 207 208
f 235 208 233
f 233 208 209
f 233 209 231
f 231 232 233
f 231 230 232
f 229 230 231
f 231 210 229
f 230 292 232
f 232 292 293
f 232 293 234
f 292 157 293
f 293 157 294
f 292 158 157
f 291 158 292
f 290 158 291
f 290 149 158
f 289 149 290
f 149 289 148
f 228 290 291
f 228 291 230
f 230 291 292
f 233 232 234
f 233 234 235
f 234 293 294
f 294 157 156
f 238 295 296
f 239 240 241
f 237 236 238
f 241 205 239
f 205 27 29
f 29 24 30
f 237 206 207
f 207 25 208
f 30 24 23
f 25 26 208
f 208 26 19
f 208 19 209
f 231 209 210
f 210 18 214
f 21 16 22
f 214 18 17
f 229 210 214
f 229 228 230
f 226 290 228
f 227 211 225
f 226 289 290
f 148 289 288
f 148 288 286
f 286 222 287
f 223 224 225
f 221 220 222
f 223 212 213
f 213 13 280
f 219 220 221
f 219 281 217
f 280 13 6
f 6 7 8
f 8 7 2
f 217 281 179
f 8 2 9
f 177 176 179
f 177 3 178
f 9 2 1
f 3 2 4

