# https://github.com/mikedh/trimesh
v -0.03783246 -0.03729128 -0.01362527
v -0.03630221 -0.03792363 -0.01362558
v -0.01966151 -0.01662791 -0.01361462
v -0.02416286 -0.00890049 -0.01361067
v -0.05146203 -0.01663022 -0.01361472
v -0.05027838 -0.02206060 -0.01361751
v -0.05009878 -0.02267637 -0.01361782
v -0.02574981 -0.00009954 -0.01360616
v -0.05229881 -0.00922737 -0.01361093
v -0.05203015 -0.01232743 -0.01361252
v 0.02703536 0.04102333 -0.01358489
v 0.01278869 0.02234976 -0.01359451
v 0.03023175 0.04033623 -0.01358523
v 0.01966151 0.01662791 -0.01359743
v 0.03664328 0.03807534 -0.01358638
v -0.03393189 -0.03872975 -0.01362600
v -0.02819866 -0.04007860 -0.01362666
v -0.01278870 -0.02234976 -0.01361753
v -0.02044954 -0.04111487 -0.01362718
v -0.00437338 -0.02537589 -0.01361904
v -0.00952794 -0.04179914 -0.01362749
v 0.00456944 -0.02534132 -0.01361900
v -0.02423095 0.00871341 -0.01360164
v -0.05221361 0.01144063 -0.01360033
v -0.05262222 0.00003753 -0.01360619
v -0.03239477 0.03947414 -0.01358589
v -0.03953589 0.03678333 -0.01358730
v -0.01978948 0.01647541 -0.01359764
v -0.04228723 0.03505914 -0.01358819
v -0.04475050 0.03290627 -0.01358930
v -0.04619106 0.03123166 -0.01359017
v 0.02061783 0.04189644 -0.01358448
v 0.01622486 0.04223339 -0.01358431
v 0.00437338 0.02537590 -0.01359300
v 0.00534622 0.04252582 -0.01358419
v 0.00017330 0.02574941 -0.01359282
v -0.00281212 0.04243440 -0.01358428
v -0.00456944 0.02534133 -0.01359305
v -0.00510274 0.04237669 -0.01358431
v -0.01296111 0.02225021 -0.01359466
v -0.02130832 0.04138045 -0.01358488
v -0.02695841 0.04061783 -0.01358528
v 0.00613251 -0.04199630 -0.01362753
v 0.01662647 -0.04161996 -0.01362730
v 0.01296111 -0.02225022 -0.01361738
v 0.02416722 -0.04085871 -0.01362688
v 0.01978948 -0.01647540 -0.01361440
v 0.02779916 -0.04024430 -0.01362656
v -0.04839841 -0.02711763 -0.01362009
v -0.04715739 -0.02937551 -0.01362125
v -0.04650759 -0.03035314 -0.01362174
v -0.04827855 0.02789822 -0.01359189
v -0.05060625 0.02156571 -0.01359513
v -0.04407879 -0.03318185 -0.01362318
v -0.04114338 -0.03550276 -0.01362437
v 0.04859188 0.02094586 -0.01359512
v 0.04818239 0.02273242 -0.01359420
v 0.04661544 0.02749423 -0.01359173
v 0.02991257 -0.03977792 -0.01362632
v 0.03446059 -0.03838685 -0.01362559
v 0.03819994 -0.03663491 -0.01362468
v 0.04518041 0.03034850 -0.01359031
v 0.04168520 0.03468782 -0.01358810
v 0.04919493 0.01747450 -0.01359689
v 0.02416286 0.00890050 -0.01360137
v 0.04988040 0.01056884 -0.01360043
v 0.02574981 0.00009955 -0.01360589
v 0.05018588 0.00058548 -0.01360552
v 0.04115063 -0.03459086 -0.01362361
v 0.04319974 -0.03259692 -0.01362258
v 0.04369773 -0.03200731 -0.01362228
v 0.04935794 -0.01639202 -0.01361426
v 0.02423095 -0.00871342 -0.01361040
v 0.04863051 -0.02067078 -0.01361645
v 0.04949309 -0.01530109 -0.01361370
v 0.05007703 -0.00712632 -0.01360950
v 0.05018653 0.00043494 -0.01360560
v 0.04573642 -0.02894304 -0.01362071
v 0.04727345 -0.02550028 -0.01361893
f 1 2 3
f 3 55 1
f 3 54 55
f 51 54 3
f 3 50 51
f 3 49 50
f 7 49 3
f 3 6 7
f 3 5 6
f 4 5 3
f 4 10 5
f 4 9 10
f 8 9 4
f 8 25 9
f 8 24 25
f 23 24 8
f 23 53 24
f 23 52 53
f 31 52 23
f 23 30 31
f 23 29 30
f 28 29 23
f 28 27 29
f 26 27 28
f 28 42 26
f 28 41 42
f 40 41 28
f 40 39 41
f 38 39 40
f 38 37 39
f 36 37 38
f 36 35 37
f 34 35 36
f 34 33 35
f 12 33 34
f 12 32 33
f 11 32 12
f 11 12 13
f 13 12 14
f 13 14 15
f 14 63 15
f 14 62 63
f 58 62 14
f 14 57 58
f 56 57 14
f 56 14 64
f 64 14 65
f 64 65 66
f 66 65 67
f 66 67 68
f 67 77 68
f 67 76 77
f 73 76 67
f 73 75 76
f 72 75 73
f 72 73 74
f 74 73 47
f 47 79 74
f 47 78 79
f 71 78 47
f 47 70 71
f 47 69 70
f 61 69 47
f 47 60 61
f 47 59 60
f 48 59 47
f 47 46 48
f 45 46 47
f 45 44 46
f 22 44 45
f 22 43 44
f 21 43 22
f 20 21 22
f 20 19 21
f 18 19 20
f 18 17 19
f 3 17 18
f 3 16 17
f 2 16 3

