# https://github.com/mikedh/trimesh
v -0.04905597 -0.01660836 -0.14992538
v -0.04453247 -0.01658800 -0.15575835
v -0.05457427 -0.01663207 -0.14502293
v -0.06089941 -0.01665835 -0.14121795
v -0.06781603 -0.01668628 -0.13864000
v -0.07508856 -0.01671494 -0.13737689
v -0.08246937 -0.01674332 -0.13747162
v -0.08970710 -0.01677049 -0.13892096
v -0.09655529 -0.01679550 -0.14167556
v -0.10278071 -0.01681749 -0.14564162
v -0.10817139 -0.01683572 -0.15068407
v -0.11254373 -0.01684961 -0.15663122
v -0.11574886 -0.01685862 -0.16328052
v -0.11767762 -0.01686249 -0.17040554
v -0.11826432 -0.01686107 -0.17776366
v -0.11748900 -0.01685440 -0.18510428
v -0.11537805 -0.01684272 -0.19217746
v -0.11200336 -0.01682643 -0.19874232
v -0.10747986 -0.01680609 -0.20457529
v -0.10196157 -0.01678238 -0.20947774
v -0.09563642 -0.01675610 -0.21328272
v -0.08871981 -0.01672816 -0.21586066
v -0.08144727 -0.01669951 -0.21712378
v -0.07406647 -0.01667112 -0.21702905
v -0.06682874 -0.01664397 -0.21557972
v -0.05998055 -0.01661896 -0.21282510
v -0.05375512 -0.01659697 -0.20885906
v -0.04836445 -0.01657872 -0.20381659
v -0.04399210 -0.01656485 -0.19786945
v -0.04078697 -0.01655583 -0.19122015
v -0.03885822 -0.01655197 -0.18409513
v -0.03827151 -0.01655339 -0.17673701
v -0.03904683 -0.01656006 -0.16939639
v -0.04115778 -0.01657172 -0.16232321
v -0.06123307 -0.01663188 -0.19664685
v -0.05724023 -0.01661873 -0.19219679
v -0.05438126 -0.01661035 -0.18694587
v -0.05281030 -0.01660717 -0.18117717
v -0.05261205 -0.01660941 -0.17520167
v -0.05379718 -0.01661690 -0.16934152
v -0.05630181 -0.01662928 -0.16391264
v -0.05999092 -0.01664585 -0.15920772
v -0.06466561 -0.01666571 -0.15548037
v -0.08768241 -0.01675545 -0.15337206
v -0.09295648 -0.01677436 -0.15618812
v -0.09743895 -0.01678964 -0.16014455
v -0.10088817 -0.01680048 -0.16502807
v -0.10311821 -0.01680631 -0.17057538
v -0.10380832 -0.01680724 -0.17402323
v -0.10400884 -0.01680677 -0.17648746
v -0.10351204 -0.01680188 -0.18244557
v -0.10165460 -0.01679187 -0.18812850
v -0.08358288 -0.01671504 -0.20253791
v -0.07762901 -0.01669184 -0.20308328
v -0.07170987 -0.01666944 -0.20224088
v -0.06614455 -0.01664910 -0.20005615
v -0.09853665 -0.01677732 -0.19322990
v -0.09432628 -0.01675897 -0.19747475
v -0.08925048 -0.01673783 -0.20063418
v -0.07007389 -0.01668783 -0.15293156
v -0.07592417 -0.01671099 -0.15169868
v -0.08190109 -0.01673394 -0.15184820
f 35 28 36
f 36 28 29
f 36 29 37
f 37 29 30
f 37 30 38
f 38 30 31
f 38 31 39
f 31 32 39
f 39 32 33
f 39 33 40
f 40 33 34
f 40 34 41
f 41 34 2
f 41 2 42
f 42 2 1
f 42 1 43
f 1 3 43
f 43 3 4
f 43 4 60
f 60 4 5
f 60 5 61
f 61 5 6
f 61 6 62
f 62 6 7
f 62 7 44
f 44 7 8
f 44 8 9
f 44 9 45
f 45 9 10
f 45 10 46
f 46 10 11
f 46 11 47
f 47 11 12
f 47 12 48
f 48 12 13
f 48 13 49
f 49 13 14
f 49 14 50
f 50 14 15
f 50 15 51
f 51 15 16
f 51 16 52
f 16 17 52
f 52 17 18
f 52 18 57
f 57 18 19
f 57 19 58
f 58 19 20
f 58 20 59
f 59 20 21
f 59 21 53
f 53 21 22
f 53 22 23
f 53 23 54
f 54 23 24
f 54 24 55
f 55 24 25
f 55 25 56
f 56 25 26
f 56 26 35
f 35 26 27
f 35 27 28

