# https://github.com/mikedh/trimesh
v 0.02987529 0.06723718 0.32912257
v 0.04711014 0.01483313 0.32488877
v 0.04736643 0.00908177 0.32482576
v 0.04747590 0.00315474 0.32479900
v 0.04748807 0.00003254 0.32479587
v 0.02987529 -0.06718485 0.32912257
v 0.04748807 0.00002616 0.32479587
v 0.04742111 -0.00690751 0.32481235
v 0.04617816 0.02497817 0.32511795
v 0.04655233 0.02171705 0.32502589
v 0.04705519 0.01571236 0.32490227
v 0.04730109 -0.01091034 0.32484186
v 0.04718291 -0.01348821 0.32487091
v 0.04676463 -0.01945105 0.32497361
v 0.04659704 -0.02122577 0.32501489
v 0.04611057 -0.02545259 0.32513455
v 0.04532272 -0.03069236 0.32532799
v 0.04151003 0.04636159 0.32626429
v 0.04253811 0.04302724 0.32601190
v 0.04375201 0.03842270 0.32571366
v 0.04379364 0.03824858 0.32570341
v 0.04488157 0.03317657 0.32543623
v 0.04585055 0.02739814 0.32519844
v 0.04525218 -0.03110034 0.32534531
v 0.04425690 -0.03616905 0.32558966
v 0.04337259 -0.03990291 0.32580689
v 0.03899296 0.05303313 0.32688275
v 0.03789101 0.05544130 0.32715356
v 0.03625766 0.05856150 0.32755482
v 0.03946306 0.05192047 0.32676727
v 0.04114231 0.04745557 0.32635456
v 0.03315159 0.06335528 0.32831773
v 0.03239912 0.06434300 0.32850260
v 0.03051389 0.06656386 0.32896578
v 0.04305971 -0.04109913 0.32588381
v 0.04173181 -0.04562603 0.32620990
v 0.04120706 -0.04721400 0.32633865
v 0.04028597 -0.04978170 0.32656512
v 0.03883152 -0.05335061 0.32692239
v 0.03882876 -0.05335687 0.32692307
v 0.03428999 0.06174326 0.32803801
v 0.03623958 0.05859340 0.32755926
v 0.03320067 -0.06323644 0.32830569
v 0.03609358 -0.05879657 0.32759508
v 0.03370103 -0.06254317 0.32818276
v 0.03550275 -0.05979637 0.32774016
v 0.03719230 -0.05678441 0.32732531
v 0.03184285 -0.06498296 0.32863921
v 0.02758879 0.06927630 0.32968101
v 0.02844707 -0.06850360 0.32947275
v 0.02600672 0.07047322 0.33005759
v 0.02686578 -0.06979134 0.32985440
v 0.02618852 -0.07029159 0.33001477
v 0.02394547 -0.07174988 0.33052808
v 0.02298502 -0.07229071 0.33073759
v 0.01420795 -0.07562266 0.33229437
v 0.01476159 0.07552941 0.33221596
v 0.01719876 0.07480368 0.33183882
v 0.01777440 0.07460964 0.33174220
v 0.02045655 0.07356916 0.33125404
v 0.01858971 -0.07426578 0.33160040
v 0.02172892 0.07298540 0.33100080
v 0.01889027 -0.07415313 0.33154666
v 0.02157767 -0.07300585 0.33103162
v 0.02304814 0.07230887 0.33072409
v 0.02543655 0.07086559 0.33019024
v 0.01596075 -0.07513819 0.33203691
v 0.00459694 -0.07728856 0.33326611
v 0.00457947 0.07734273 0.33326727
v 0.00459812 0.07734077 0.33326605
v 0.01342954 -0.07581639 0.33240017
v 0.00598953 0.07718268 0.33316770
v 0.00782660 0.07693647 0.33301705
v 0.01143605 0.07631019 0.33264816
v 0.01206916 0.07617816 0.33257294
v 0.01420494 0.07567576 0.33229479
v 0.00911982 -0.07668284 0.33289629
v 0.00714592 -0.07698061 0.33307567
v 0.00467670 -0.07728012 0.33326083
v 0.01269953 -0.07598694 0.33249480
v -0.00120294 0.07775625 0.33352605
v 0.00079475 -0.07761236 0.33346897
v -0.00331917 0.07781062 0.33356288
v -0.00677561 0.07781664 0.33356687
v 0.00078736 0.07766518 0.33346924
v 0.00121199 0.07763642 0.33345136
v 0.00166693 -0.07755128 0.33343074
v 0.00457947 -0.07729040 0.33326727
v 0.00078603 -0.07761294 0.33346927
v -0.00038520 -0.07767145 0.33350477
v -0.00288371 -0.07775083 0.33355764
v -0.01725990 -0.07720707 0.33322281
v -0.01143080 0.07768835 0.33348632
v -0.01591545 -0.07733966 0.33330414
v -0.01143097 -0.07763678 0.33348632
v -0.01745413 -0.07718603 0.33321002
v -0.01629145 0.07735638 0.33328250
v -0.01158163 0.07768165 0.33348233
v -0.01086079 0.07771134 0.33350062
v -0.00677564 -0.07776508 0.33356687
v -0.00991654 -0.07769357 0.33352160
v -0.00637806 -0.07776921 0.33356953
v -0.00866237 0.07778156 0.33354467
v -0.02025688 0.07687767 0.33299452
v -0.01842021 0.07712562 0.33314225
v -0.01745382 0.07723763 0.33320993
v -0.02744775 -0.07535771 0.33218282
v -0.02744817 0.07540916 0.33218277
v -0.02455608 -0.07604866 0.33255050
v -0.02524030 0.07594903 0.33246794
v -0.02405454 -0.07615458 0.33260912
v -0.01994812 -0.07687110 0.33302113
v -0.02442095 0.07612918 0.33256644
v -0.03749872 0.07185999 0.33060852
v -0.03084199 -0.07437797 0.33169839
v -0.03173934 -0.07408706 0.33156201
v -0.03566606 0.07267472 0.33092645
v -0.03234880 0.07393266 0.33146751
v -0.03226178 0.07396249 0.33148110
v -0.02815334 -0.07516878 0.33208638
v -0.02831237 0.07517671 0.33206433
v -0.03522689 -0.07280454 0.33100063
v -0.03604056 -0.07246445 0.33086258
v -0.03855767 0.07134165 0.33041835
v -0.03836636 -0.07138655 0.33045286
v -0.04043028 -0.07027239 0.33006981
v -0.04086414 -0.07001553 0.32998702
v -0.04145523 -0.06965161 0.32987237
v -0.04378000 -0.06803554 0.32940605
v -0.04444230 -0.06751144 0.32926744
v -0.04086413 0.07006710 0.32998702
v -0.04540809 0.06674116 0.32905978
v -0.04486761 -0.06715828 0.32917684
v -0.04580058 0.06638616 0.32897344
v -0.04521508 -0.06685962 0.32910183
v -0.04721114 0.06499954 0.32865283
v -0.04521508 0.06691118 0.32910183
v -0.04324465 0.06848833 0.32951578
v -0.04216237 0.06924465 0.32973397
v -0.04870829 -0.06325705 0.32829440
v -0.04903671 0.06290267 0.32821310
v -0.04807830 -0.06399902 0.32844758
v -0.04683481 -0.06533591 0.32873994
v -0.05868235 -0.00118790 0.32528713
v -0.05868313 0.00002578 0.32528687
v -0.05097934 0.06018432 0.32771179
v -0.05453311 -0.05282337 0.32668999
v -0.05530630 -0.05046741 0.32644743
v -0.05392652 -0.05273419 0.32687473
v -0.05552563 -0.04971218 0.32637724
v -0.05200530 -0.05841824 0.32743126
v -0.05340419 -0.05562986 0.32703045
v -0.05349276 -0.05543087 0.32700431
v -0.05119221 -0.05979564 0.32765454
v -0.05860753 -0.02058725 0.32531488
v -0.05865401 -0.01601143 0.32529768
v -0.05639737 -0.04618278 0.32609132
v -0.05650499 -0.04567273 0.32605523
v -0.05672076 -0.04458600 0.32598245
v -0.05701079 -0.04296087 0.32588351
v -0.05763039 -0.03855335 0.32566783
v -0.05774792 -0.03749627 0.32562622
v -0.05810811 -0.03344088 0.32549727
v -0.05843145 -0.02751498 0.32537964
v -0.05054248 -0.06079749 0.32782775
v -0.05080977 0.06044652 0.32775703
v -0.04909990 0.06282298 0.32819736
v -0.05868312 0.00004488 0.32528687
v -0.05868255 0.00093609 0.32528704
v -0.05865436 0.01600801 0.32529756
v -0.05854386 0.02394597 0.32533836
v -0.05850426 0.02542070 0.32535294
v -0.05819269 0.03226307 0.32546672
v -0.05798710 0.03503034 0.32554081
v -0.05777943 0.03724701 0.32561514
v -0.05718817 0.04190395 0.32582217
v -0.05186502 0.05871841 0.32747033
v -0.05382609 0.05295431 0.32690489
v -0.05406658 0.05411105 0.32683271
v -0.05353877 0.05537779 0.32699072
v -0.05222618 0.05806823 0.32736936
v -0.05696604 0.04327727 0.32589856
v -0.05654627 0.04552392 0.32604134
v -0.05650499 0.04572430 0.32605523
v -0.05572096 0.04905190 0.32631403
v -0.05563370 0.04937475 0.32634228
v -0.05467767 0.05246616 0.32664520
f 1 2 3
f 3 4 1
f 1 4 5
f 1 5 6
f 1 6 49
f 49 6 50
f 49 50 51
f 51 50 52
f 52 53 51
f 51 53 54
f 51 54 55
f 55 66 51
f 55 65 66
f 64 65 55
f 64 62 65
f 63 62 64
f 61 62 63
f 61 60 62
f 59 60 61
f 59 61 58
f 58 61 67
f 58 67 56
f 56 57 58
f 56 76 57
f 56 75 76
f 71 75 56
f 71 74 75
f 73 74 71
f 71 72 73
f 72 71 70
f 70 71 80
f 70 80 77
f 77 78 70
f 70 78 79
f 70 79 68
f 68 69 70
f 88 69 68
f 87 69 88
f 87 86 69
f 82 86 87
f 82 85 86
f 81 85 82
f 81 82 83
f 83 82 84
f 82 89 84
f 84 89 90
f 84 90 91
f 91 102 84
f 84 102 100
f 84 100 103
f 103 100 99
f 99 100 93
f 93 100 101
f 93 101 95
f 94 93 95
f 92 93 94
f 92 98 93
f 92 97 98
f 96 97 92
f 96 106 97
f 96 105 106
f 104 105 96
f 96 113 104
f 96 110 113
f 112 110 96
f 111 110 112
f 109 110 111
f 109 108 110
f 107 108 109
f 107 120 108
f 108 120 115
f 108 115 121
f 121 115 119
f 115 118 119
f 115 117 118
f 114 117 115
f 114 115 116
f 116 122 114
f 114 122 123
f 114 123 124
f 124 123 125
f 124 125 126
f 126 127 124
f 124 127 128
f 128 129 124
f 124 129 130
f 124 130 131
f 130 139 131
f 130 138 139
f 133 138 130
f 133 137 138
f 132 137 133
f 132 133 134
f 134 133 135
f 134 135 136
f 143 136 135
f 142 136 143
f 142 141 136
f 140 141 142
f 140 167 141
f 140 166 167
f 165 166 140
f 165 146 166
f 154 146 165
f 154 144 146
f 156 144 154
f 154 155 156
f 154 149 155
f 149 164 155
f 149 163 164
f 162 163 149
f 149 161 162
f 149 160 161
f 159 160 149
f 149 158 159
f 149 157 158
f 150 157 149
f 149 148 150
f 147 148 149
f 149 153 147
f 149 152 153
f 151 152 149
f 151 149 154
f 144 145 146
f 145 168 146
f 146 168 169
f 146 169 170
f 170 171 146
f 146 171 172
f 146 172 173
f 173 174 146
f 146 174 175
f 146 175 176
f 176 182 146
f 146 182 183
f 146 183 178
f 177 146 178
f 178 181 177
f 178 180 181
f 179 180 178
f 178 187 179
f 178 186 187
f 185 186 178
f 178 184 185
f 178 183 184
f 6 5 7
f 6 7 8
f 8 12 6
f 6 12 13
f 6 13 14
f 14 15 6
f 6 15 16
f 6 16 17
f 17 24 6
f 6 24 25
f 6 25 26
f 26 35 6
f 6 35 36
f 6 36 37
f 37 38 6
f 6 38 39
f 6 39 40
f 40 47 6
f 6 47 44
f 6 44 48
f 48 44 43
f 43 44 45
f 45 44 46
f 1 11 2
f 1 10 11
f 9 10 1
f 1 23 9
f 1 22 23
f 21 22 1
f 1 20 21
f 1 19 20
f 18 19 1
f 1 31 18
f 1 30 31
f 27 30 1
f 27 1 28
f 28 1 29
f 1 42 29
f 1 41 42
f 32 41 1
f 32 1 33
f 33 1 34

