# https://github.com/mikedh/trimesh
v 0.05753083 0.03845963 0.47754738
v 0.05799230 0.03780997 0.47796854
v 0.04746670 0.03252538 0.46836221
v 0.05929136 0.03431920 0.47915414
v 0.05942720 0.03305143 0.47927812
v 0.05943982 0.03252538 0.47928965
v 0.04746670 -0.03247462 0.46836221
v 0.05943982 -0.03247462 0.47928965
v 0.04747932 -0.03300068 0.46837375
v 0.04761517 -0.03426845 0.46849772
v 0.05673691 0.03930236 0.47682279
v 0.04937569 -0.03840887 0.47010449
v 0.04891422 -0.03775921 0.46968332
v 0.05016961 -0.03925160 0.47082907
v 0.05290261 0.04059602 0.47332337
v 0.05382990 0.04061432 0.47416967
v 0.05856946 0.03673402 0.47849530
v 0.05900495 0.03555804 0.47889274
v 0.05400391 -0.04054526 0.47432849
v 0.05307662 -0.04056356 0.47348219
v 0.04833707 -0.03668326 0.46915656
v 0.04790157 -0.03550729 0.46875912
v 0.05484778 0.04040742 0.47509864
v 0.05583517 0.03996122 0.47599980
v 0.04777828 0.03510609 0.46864659
v 0.05020127 0.03933029 0.47085795
v 0.04755032 0.03387533 0.46843854
v 0.05105931 0.03995413 0.47164106
v 0.05196813 0.04037702 0.47247052
v 0.05205875 -0.04035666 0.47255319
v 0.05107135 -0.03991047 0.47165206
v 0.05912824 -0.03505533 0.47900528
v 0.05670525 -0.03927953 0.47679389
v 0.05935620 -0.03382457 0.47921333
v 0.05584722 -0.03990337 0.47601080
v 0.05493839 -0.04032626 0.47518134
v 0.04818856 0.03638373 0.46902102
v 0.04874654 0.03753390 0.46953028
v 0.04941947 0.03851421 0.47014442
v 0.05871797 -0.03633297 0.47863084
v 0.05815998 -0.03748314 0.47812158
v 0.05748706 -0.03846345 0.47750741
f 1 2 3
f 1 3 11
f 3 24 11
f 3 23 24
f 16 23 3
f 3 15 16
f 3 29 15
f 3 28 29
f 27 28 3
f 27 26 28
f 25 26 27
f 25 39 26
f 25 38 39
f 37 38 25
f 2 17 3
f 3 17 18
f 3 18 4
f 4 5 3
f 3 5 6
f 3 6 7
f 7 6 8
f 7 8 9
f 9 8 10
f 8 22 10
f 8 21 22
f 13 21 8
f 12 13 8
f 12 8 14
f 8 31 14
f 8 30 31
f 20 30 8
f 8 19 20
f 8 36 19
f 8 35 36
f 34 35 8
f 34 33 35
f 32 33 34
f 32 42 33
f 32 41 42
f 40 41 32

