v -0.06484500 0.57308197 0.15958001
v -0.05930050 0.57304698 0.16127250
v -0.05375600 0.57301199 0.16296500
v -0.04820950 0.57297647 0.16442850
v -0.04266300 0.57294101 0.16589200
v -0.03720150 0.57290852 0.16712701
v -0.03174000 0.57287598 0.16836201
v -0.02641000 0.57285100 0.16931701
v -0.02108000 0.57282603 0.17027199
v -0.01589550 0.57281148 0.17091300
v -0.01071100 0.57279700 0.17155400
v -0.00563900 0.57279503 0.17184150
v -0.00056700 0.57279301 0.17212901
v 0.00445700 0.57280397 0.17202000
v 0.00948100 0.57281500 0.17191100
v 0.01452900 0.57283652 0.17146450
v 0.01957700 0.57285798 0.17101800
v 0.02469350 0.57288802 0.17029551
v 0.02981000 0.57291800 0.16957299
v 0.03501150 0.57295400 0.16858399
v 0.04021300 0.57299000 0.16759500
v 0.04548950 0.57302850 0.16637251
v 0.05076600 0.57306701 0.16515000
v 0.05608800 0.57310498 0.16363549
v 0.06141000 0.57314301 0.16212100
v 0.06674350 0.57317901 0.16029149
v 0.07207700 0.57321501 0.15846200
v 0.07734450 0.57324600 0.15630099
v 0.08261200 0.57327700 0.15414000
v 0.08774300 0.57330251 0.15168799
v 0.09287400 0.57332802 0.14923599
v 0.09775300 0.57334501 0.14652899
v 0.10263200 0.57336199 0.14382200
v 0.10717850 0.57336998 0.14093751
v 0.11172500 0.57337803 0.13805300
v 0.11589050 0.57337356 0.13506100
v 0.12005600 0.57336903 0.13206901
v 0.12384450 0.57335055 0.12904200
v 0.12763301 0.57333201 0.12601499
v 0.13251951 0.57327801 0.12140699
v 0.13740601 0.57322401 0.11679900
v 0.14263150 0.57312399 0.11034800
v 0.14785700 0.57302397 0.10389700
v 0.15180901 0.57291448 0.09675200
v 0.15576100 0.57280499 0.08960700
v 0.15903500 0.57269597 0.08178000
v 0.16230901 0.57258701 0.07395300
v 0.16447900 0.57251501 0.06777050
v 0.16664900 0.57244301 0.06158800
v 0.16842000 0.57239401 0.05528050
v 0.17019100 0.57234502 0.04897300
v 0.17186800 0.57230997 0.04073700
v 0.17354500 0.57227498 0.03250100
v 0.17445299 0.57226002 0.02467450
v 0.17536099 0.57224500 0.01684800
v 0.17587949 0.57221103 0.00937900
v 0.17639799 0.57217699 0.00191000
v 0.17658350 0.57210052 -0.00535950
v 0.17676900 0.57202399 -0.01262900
v 0.17625400 0.57191896 -0.01995000
v 0.17573901 0.57181400 -0.02727100
v 0.17455301 0.57169449 -0.03490550
v 0.17336699 0.57157499 -0.04254000
v 0.17160550 0.57146299 -0.05050150
v 0.16984400 0.57135099 -0.05846300
v 0.16722551 0.57129347 -0.06652750
v 0.16460700 0.57123601 -0.07459200
v 0.16094400 0.57124853 -0.08248400
v 0.15728100 0.57126099 -0.09037600
v 0.15270650 0.57132852 -0.09785700
v 0.14813200 0.57139599 -0.10533800
v 0.14304550 0.57148147 -0.11224850
v 0.13795900 0.57156700 -0.11915900
v 0.13255250 0.57165396 -0.12521000
v 0.12714601 0.57174098 -0.13126101
v 0.12122400 0.57184350 -0.13618550
v 0.11530200 0.57194602 -0.14111000
v 0.10882750 0.57202947 -0.14515001
v 0.10235300 0.57211298 -0.14918999
v 0.09539350 0.57214749 -0.15269700
v 0.08843400 0.57218200 -0.15620400
v 0.08089750 0.57219303 -0.15927100
v 0.07336100 0.57220399 -0.16233800
v 0.06521150 0.57222199 -0.16500601
v 0.05706200 0.57224000 -0.16767401
v 0.05063000 0.57226449 -0.16939601
v 0.04419800 0.57228899 -0.17111801
v 0.03980000 0.57230699 -0.17210251
v 0.03540200 0.57232499 -0.17308700
v 0.02875050 0.57234502 -0.17429700
v 0.02209900 0.57236499 -0.17550699
v 0.01325950 0.57237750 -0.17640099
v 0.00442000 0.57239002 -0.17729500
v -0.00440050 0.57240403 -0.17693001
v -0.01322100 0.57241797 -0.17656501
v -0.01988000 0.57242000 -0.17560449
v -0.02653900 0.57242203 -0.17464399
v -0.03098950 0.57240951 -0.17377549
v -0.03544000 0.57239699 -0.17290699
v -0.04203550 0.57235599 -0.17141050
v -0.04863100 0.57231498 -0.16991401
v -0.05710300 0.57222950 -0.16762801
v -0.06557500 0.57214397 -0.16534200
v -0.07347350 0.57202101 -0.16278499
v -0.08137200 0.57189798 -0.16022800
v -0.08862150 0.57173502 -0.15733050
v -0.09587100 0.57157201 -0.15443300
v -0.10257150 0.57136852 -0.15105250
v -0.10927200 0.57116503 -0.14767200
v -0.11544200 0.57096201 -0.14347899
v -0.12161200 0.57075900 -0.13928600
v -0.12718549 0.57063651 -0.13382751
v -0.13275900 0.57051402 -0.12836900
v -0.13793200 0.57048601 -0.12168600
v -0.14310500 0.57045799 -0.11500300
v -0.14679050 0.57048351 -0.10943399
v -0.15047599 0.57050902 -0.10386500
v -0.15276299 0.57054949 -0.09994049
v -0.15504999 0.57059002 -0.09601600
v -0.15714350 0.57064748 -0.09198000
v -0.15923700 0.57070500 -0.08794400
v -0.16110100 0.57077646 -0.08384050
v -0.16296500 0.57084799 -0.07973700
v -0.16528049 0.57097101 -0.07355850
v -0.16759600 0.57109398 -0.06738000
v -0.16986950 0.57126898 -0.05922950
v -0.17214300 0.57144397 -0.05107900
v -0.17363501 0.57159901 -0.04313900
v -0.17512700 0.57175398 -0.03519900
v -0.17583701 0.57187200 -0.02744700
v -0.17654701 0.57199001 -0.01969500
v -0.17621499 0.57207704 -0.01191400
v -0.17588300 0.57216400 -0.00413300
v -0.17473000 0.57221353 0.00390900
v -0.17357700 0.57226300 0.01195100
v -0.17197201 0.57228351 0.02025650
v -0.17036700 0.57230401 0.02856200
v -0.16837300 0.57232749 0.03696250
v -0.16637900 0.57235098 0.04536300
v -0.16407150 0.57238996 0.05365150
v -0.16176400 0.57242900 0.06194000
v -0.15923800 0.57248151 0.06990750
v -0.15671200 0.57253402 0.07787500
v -0.15403900 0.57258850 0.08538800
v -0.15136600 0.57264298 0.09290100
v -0.14821699 0.57270503 0.09977750
v -0.14506800 0.57276702 0.10665400
v -0.14073151 0.57285249 0.11273800
v -0.13639501 0.57293802 0.11882200
v -0.12869951 0.57303655 0.12561651
v -0.12100400 0.57313502 0.13241100
v -0.12486900 0.57313704 0.14260100
v -0.12873399 0.57313901 0.15279099
v -0.13074899 0.57314050 0.16046250
v -0.13276400 0.57314199 0.16813400
v -0.13292900 0.57314348 0.17328650
v -0.13309400 0.57314497 0.17843901
v -0.13140950 0.57314646 0.18107301
v -0.12972499 0.57314801 0.18370700
v -0.12619099 0.57314950 0.18382150
v -0.12265700 0.57315099 0.18393600
v -0.11727350 0.57315248 0.18153250
v -0.11189000 0.57315397 0.17912900
v -0.10465650 0.57315552 0.17420650
v -0.09742300 0.57315701 0.16928400
v -0.08833950 0.57315850 0.16184250
v -0.07925600 0.57315999 0.15440100
l 1 2
l 2 3
l 3 4
l 4 5
l 5 6
l 6 7
l 7 8
l 8 9
l 9 10
l 10 11
l 11 12
l 12 13
l 13 14
l 14 15
l 15 16
l 16 17
l 17 18
l 18 19
l 19 20
l 20 21
l 21 22
l 22 23
l 23 24
l 24 25
l 25 26
l 26 27
l 27 28
l 28 29
l 29 30
l 30 31
l 31 32
l 32 33
l 33 34
l 34 35
l 35 36
l 36 37
l 37 38
l 38 39
l 39 40
l 40 41
l 41 42
l 42 43
l 43 44
l 44 45
l 45 46
l 46 47
l 47 48
l 48 49
l 49 50
l 50 51
l 51 52
l 52 53
l 53 54
l 54 55
l 55 56
l 56 57
l 57 58
l 58 59
l 59 60
l 60 61
l 61 62
l 62 63
l 63 64
l 64 65
l 65 66
l 66 67
l 67 68
l 68 69
l 69 70
l 70 71
l 71 72
l 72 73
l 73 74
l 74 75
l 75 76
l 76 77
l 77 78
l 78 79
l 79 80
l 80 81
l 81 82
l 82 83
l 83 84
l 84 85
l 85 86
l 86 87
l 87 88
l 88 89
l 89 90
l 90 91
l 91 92
l 92 93
l 93 94
l 94 95
l 95 96
l 96 97
l 97 98
l 98 99
l 99 100
l 100 101
l 101 102
l 102 103
l 103 104
l 104 105
l 105 106
l 106 107
l 107 108
l 108 109
l 109 110
l 110 111
l 111 112
l 112 113
l 113 114
l 114 115
l 115 116
l 116 117
l 117 118
l 118 119
l 119 120
l 120 121
l 121 122
l 122 123
l 123 124
l 124 125
l 125 126
l 126 127
l 127 128
l 128 129
l 129 130
l 130 131
l 131 132
l 132 133
l 133 134
l 134 135
l 135 136
l 136 137
l 137 138
l 138 139
l 139 140
l 140 141
l 141 142
l 142 143
l 143 144
l 144 145
l 145 146
l 146 147
l 147 148
l 148 149
l 149 150
l 150 151
l 151 152
l 152 153
l 153 154
l 154 155
l 155 156
l 156 157
l 157 158
l 158 159
l 159 160
l 160 161
l 161 162
l 162 163
l 163 164
l 164 165
l 165 166
l 166 167
l 167 1
