v 0.08843400 0.56018198 -0.15620400
v 0.08089750 0.56019300 -0.15927100
v 0.07336100 0.56020403 -0.16233800
v 0.06521150 0.56022203 -0.16500601
v 0.05706200 0.56023997 -0.16767401
v 0.05063000 0.56026447 -0.16939601
v 0.04419800 0.56028903 -0.17111801
v 0.03980000 0.56030703 -0.17210251
v 0.03540200 0.56032503 -0.17308700
v 0.02875050 0.56034505 -0.17429700
v 0.02209900 0.56036502 -0.17550699
v 0.01325950 0.56037748 -0.17640099
v 0.00442000 0.56039000 -0.17729500
v -0.00440050 0.56040400 -0.17693001
v -0.01322100 0.56041801 -0.17656501
v -0.01988000 0.56042004 -0.17560449
v -0.02653900 0.56042200 -0.17464399
v -0.03098950 0.56040955 -0.17377549
v -0.03544000 0.56039703 -0.17290699
v -0.04203550 0.56035602 -0.17141050
v -0.04863100 0.56031501 -0.16991401
v -0.05710300 0.56022954 -0.16762801
v -0.06557500 0.56014401 -0.16534200
v -0.07347350 0.56002104 -0.16278499
v -0.08137200 0.55989802 -0.16022800
v -0.08862150 0.55973500 -0.15733050
v -0.09587100 0.55957198 -0.15443300
v -0.10257150 0.55936849 -0.15105250
v -0.10927200 0.55916500 -0.14767200
v -0.11544200 0.55896199 -0.14347899
v -0.12161200 0.55875897 -0.13928600
v -0.12718549 0.55863649 -0.13382751
v -0.13275900 0.55851400 -0.12836900
v -0.13793200 0.55848598 -0.12168600
v -0.14310500 0.55845797 -0.11500300
v -0.14679050 0.55848348 -0.10943399
v -0.15047599 0.55850899 -0.10386500
v -0.15276299 0.55854952 -0.09994049
v -0.15504999 0.55858999 -0.09601600
v -0.15714350 0.55864751 -0.09198000
v -0.15923700 0.55870497 -0.08794400
v -0.16110100 0.55877650 -0.08384050
v -0.16296500 0.55884802 -0.07973700
v -0.16528049 0.55897105 -0.07355850
v -0.16759600 0.55909401 -0.06738000
v -0.16986950 0.55926901 -0.05922950
v -0.17214300 0.55944401 -0.05107900
v -0.17363501 0.55959904 -0.04313900
v -0.17512700 0.55975401 -0.03519900
v -0.17583701 0.55987203 -0.02744700
v -0.17654701 0.55998999 -0.01969500
v -0.17621499 0.56007695 -0.01191400
v -0.17588300 0.56016397 -0.00413300
v -0.17473000 0.56021345 0.00390900
v -0.17357700 0.56026298 0.01195100
v -0.17197201 0.56028348 0.02025650
v -0.17036700 0.56030399 0.02856200
v -0.16837300 0.56032753 0.03696250
v -0.16637900 0.56035101 0.04536300
v -0.16407150 0.56039000 0.05365150
v -0.16176400 0.56042898 0.06194000
v -0.15923800 0.56048149 0.06990750
v -0.15671200 0.56053400 0.07787500
v -0.15403900 0.56058848 0.08538800
v -0.15136600 0.56064302 0.09290100
v -0.14821699 0.56070501 0.09977750
v -0.14506800 0.56076699 0.10665400
v -0.14073151 0.56085253 0.11273800
v -0.13639501 0.56093800 0.11882200
v -0.13051000 0.56102252 0.12432151
v -0.12462500 0.56110698 0.12982100
v -0.11919400 0.56114948 0.13370700
v -0.11376300 0.56119198 0.13759300
v -0.10957700 0.56120348 0.14005300
v -0.10539100 0.56121498 0.14251301
v -0.10079450 0.56121498 0.14485851
v -0.09619800 0.56121498 0.14720400
v -0.09122850 0.56120253 0.14941700
v -0.08625900 0.56119001 0.15163000
v -0.08100700 0.56116748 0.15370850
v -0.07575500 0.56114501 0.15578701
v -0.07030000 0.56111348 0.15768351
v -0.06484500 0.56108201 0.15958001
v -0.05930050 0.56104702 0.16127250
v -0.05375600 0.56101203 0.16296500
v -0.04820950 0.56097651 0.16442850
v -0.04266300 0.56094098 0.16589200
v -0.03720150 0.56090850 0.16712701
v -0.03174000 0.56087601 0.16836201
v -0.02641000 0.56085098 0.16931701
v -0.02108000 0.56082600 0.17027199
v -0.01589550 0.56081152 0.17091300
v -0.01071100 0.56079698 0.17155400
v -0.00563900 0.56079495 0.17184150
v -0.00056700 0.56079298 0.17212901
v 0.00445700 0.56080401 0.17202000
v 0.00948100 0.56081498 0.17191100
v 0.01452900 0.56083649 0.17146450
v 0.01957700 0.56085801 0.17101800
v 0.02469350 0.56088799 0.17029551
v 0.02981000 0.56091797 0.16957299
v 0.03501150 0.56095397 0.16858399
v 0.04021300 0.56098998 0.16759500
v 0.04548950 0.56102848 0.16637251
v 0.05076600 0.56106699 0.16515000
v 0.05608800 0.56110501 0.16363549
v 0.06141000 0.56114298 0.16212100
v 0.06674350 0.56117898 0.16029149
v 0.07207700 0.56121498 0.15846200
v 0.07734450 0.56124598 0.15630099
v 0.08261200 0.56127697 0.15414000
v 0.08774300 0.56130248 0.15168799
v 0.09287400 0.56132799 0.14923599
v 0.09775300 0.56134498 0.14652899
v 0.10263200 0.56136203 0.14382200
v 0.10717850 0.56137002 0.14093751
v 0.11172500 0.56137800 0.13805300
v 0.11589050 0.56137347 0.13506100
v 0.12005600 0.56136900 0.13206901
v 0.12384450 0.56135046 0.12904200
v 0.12763301 0.56133199 0.12601499
v 0.13251951 0.56127799 0.12140699
v 0.13740601 0.56122398 0.11679900
v 0.14263150 0.56112397 0.11034800
v 0.14785700 0.56102401 0.10389700
v 0.15180901 0.56091452 0.09675200
v 0.15576100 0.56080502 0.08960700
v 0.15903500 0.56069601 0.08178000
v 0.16230901 0.56058699 0.07395300
v 0.16447900 0.56051499 0.06777050
v 0.16664900 0.56044298 0.06158800
v 0.16842000 0.56039399 0.05528050
v 0.17019100 0.56034499 0.04897300
v 0.17186800 0.56031001 0.04073700
v 0.17354500 0.56027502 0.03250100
v 0.17445299 0.56026000 0.02467450
v 0.17536099 0.56024498 0.01684800
v 0.17587949 0.56021100 0.00937900
v 0.17639799 0.56017703 0.00191000
v 0.17658350 0.56010056 -0.00535950
v 0.17676900 0.56002402 -0.01262900
v 0.17625400 0.55991900 -0.01995000
v 0.17573901 0.55981398 -0.02727100
v 0.17455301 0.55969453 -0.03490550
v 0.17336699 0.55957502 -0.04254000
v 0.17160550 0.55946302 -0.05050150
v 0.16984400 0.55935103 -0.05846300
v 0.16722551 0.55929351 -0.06652750
v 0.16460700 0.55923599 -0.07459200
v 0.15941900 0.55927098 -0.08497750
v 0.15423100 0.55930603 -0.09536300
v 0.15906399 0.55935299 -0.10622050
v 0.16389699 0.55940002 -0.11707800
v 0.16650000 0.55944705 -0.12574650
v 0.16910300 0.55949402 -0.13441500
v 0.16947600 0.55954099 -0.14089400
v 0.16984899 0.55958802 -0.14737301
v 0.16799149 0.55963504 -0.15166351
v 0.16613400 0.55968201 -0.15595400
v 0.16204600 0.55972898 -0.15805550
v 0.15795800 0.55977601 -0.16015700
v 0.15164000 0.55982304 -0.16006899
v 0.14532200 0.55987000 -0.15998100
v 0.13677400 0.55991697 -0.15770450
v 0.12822600 0.55996400 -0.15542801
v 0.11744750 0.56001049 -0.15096250
v 0.10666900 0.56005698 -0.14649700
l 1 2
l 2 3
l 3 4
l 4 5
l 5 6
l 6 7
l 7 8
l 8 9
l 9 10
l 10 11
l 11 12
l 12 13
l 13 14
l 14 15
l 15 16
l 16 17
l 17 18
l 18 19
l 19 20
l 20 21
l 21 22
l 22 23
l 23 24
l 24 25
l 25 26
l 26 27
l 27 28
l 28 29
l 29 30
l 30 31
l 31 32
l 32 33
l 33 34
l 34 35
l 35 36
l 36 37
l 37 38
l 38 39
l 39 40
l 40 41
l 41 42
l 42 43
l 43 44
l 44 45
l 45 46
l 46 47
l 47 48
l 48 49
l 49 50
l 50 51
l 51 52
l 52 53
l 53 54
l 54 55
l 55 56
l 56 57
l 57 58
l 58 59
l 59 60
l 60 61
l 61 62
l 62 63
l 63 64
l 64 65
l 65 66
l 66 67
l 67 68
l 68 69
l 69 70
l 70 71
l 71 72
l 72 73
l 73 74
l 74 75
l 75 76
l 76 77
l 77 78
l 78 79
l 79 80
l 80 81
l 81 82
l 82 83
l 83 84
l 84 85
l 85 86
l 86 87
l 87 88
l 88 89
l 89 90
l 90 91
l 91 92
l 92 93
l 93 94
l 94 95
l 95 96
l 96 97
l 97 98
l 98 99
l 99 100
l 100 101
l 101 102
l 102 103
l 103 104
l 104 105
l 105 106
l 106 107
l 107 108
l 108 109
l 109 110
l 110 111
l 111 112
l 112 113
l 113 114
l 114 115
l 115 116
l 116 117
l 117 118
l 118 119
l 119 120
l 120 121
l 121 122
l 122 123
l 123 124
l 124 125
l 125 126
l 126 127
l 127 128
l 128 129
l 129 130
l 130 131
l 131 132
l 132 133
l 133 134
l 134 135
l 135 136
l 136 137
l 137 138
l 138 139
l 139 140
l 140 141
l 141 142
l 142 143
l 143 144
l 144 145
l 145 146
l 146 147
l 147 148
l 148 149
l 149 150
l 150 151
l 151 152
l 152 153
l 153 154
l 154 155
l 155 156
l 156 157
l 157 158
l 158 159
l 159 160
l 160 161
l 161 162
l 162 163
l 163 164
l 164 165
l 165 166
l 166 167
l 167 1
