# https://github.com/mikedh/trimesh
v 0.03485253 0.03154072 -0.14472856
v 0.03718233 0.03110996 -0.14651169
v 0.03485138 0.03151022 -0.14472437
v 0.03718296 0.03101683 -0.14648321
v 0.03719632 0.03097112 -0.14645073
v 0.03486492 0.03143045 -0.14469454
v 0.03485527 0.03146766 -0.14471224
v 0.03722888 0.03092706 -0.14639154
v 0.03490626 0.03136605 -0.14463601
v 0.03721003 0.03094680 -0.14642410
v 0.03487857 0.03140052 -0.14467363
v 0.03496686 0.03134206 -0.14456315
v 0.03491946 0.03135621 -0.14461929
v 0.03506961 0.03132517 -0.14465292
v 0.03578677 0.03120079 -0.14524128
v 0.03717667 0.03093190 -0.14626510
v 0.03725589 0.03091422 -0.14634947
v 0.03726905 0.03091267 -0.14633036
v 0.03915193 0.03047324 -0.14766431
v 0.03914215 0.03047450 -0.14767866
v 0.03911311 0.03048868 -0.14772499
v 0.03909632 0.03050721 -0.14775561
v 0.03908295 0.03053264 -0.14778395
v 0.03907172 0.03057625 -0.14781593
v 0.03906959 0.03059810 -0.14782700
v 0.03907416 0.03066891 -0.14784664
v 0.04073388 0.03018167 -0.14912999
v 0.04110214 0.03005611 -0.14941445
v 0.04109183 0.02998215 -0.14939310
v 0.04009791 0.03038262 -0.14862470
v 0.04109197 0.02997297 -0.14938855
v 0.04110147 0.02991599 -0.14934905
v 0.04111091 0.02989333 -0.14932585
v 0.04112702 0.02987035 -0.14929369
v 0.04112918 0.02986816 -0.14928982
v 0.04116607 0.02984943 -0.14923221
v 0.04491530 0.02749135 -0.15279938
v 0.04492947 0.02747860 -0.15277985
v 0.04381648 0.02853967 -0.15140757
v 0.04324958 0.02898316 -0.15107653
v 0.04325292 0.02901685 -0.15109609
v 0.04325141 0.02895199 -0.15105271
v 0.04325823 0.02892446 -0.15102555
v 0.04328616 0.02888458 -0.15096501
v 0.04326986 0.02890163 -0.15099600
v 0.04201650 0.02951905 -0.14988498
v 0.04330586 0.02887471 -0.15093504
v 0.04491104 0.02749650 -0.15280633
v 0.04489798 0.02752003 -0.15283400
v 0.04489114 0.02754842 -0.15286171
v 0.04489651 0.02760868 -0.15290780
v 0.04490423 0.02763128 -0.15292145
v 0.04326154 0.02905200 -0.15111044
v 0.04492603 0.02767172 -0.15294075
v 0.04322688 0.02911558 -0.15107732
v 0.04463241 0.02805556 -0.15250598
v 0.04494996 0.02770083 -0.15294939
v 0.04495967 0.02759495 -0.15299916
v 0.04493837 0.02753976 -0.15296593
v 0.04504018 0.02758694 -0.15308471
v 0.04493732 0.02747860 -0.15291440
v 0.04495759 0.02743678 -0.15286547
v 0.04499559 0.02738594 -0.15294100
v 0.04501427 0.02736722 -0.15291314
v 0.04498415 0.02740788 -0.15296707
v 0.04499773 0.02752804 -0.15306126
v 0.04498162 0.02748372 -0.15303357
v 0.04497852 0.02746608 -0.15302041
v 0.04497747 0.02744533 -0.15300335
v 0.04620181 0.02428624 -0.15741821
v 0.04616086 0.02422430 -0.15738802
v 0.04599996 0.02519106 -0.15579647
v 0.04626965 0.02388967 -0.15839934
v 0.04624264 0.02363083 -0.15911075
v 0.04616693 0.02357364 -0.15908748
v 0.04613339 0.02341355 -0.15903285
v 0.04614482 0.02338260 -0.15902331
v 0.04614897 0.02430870 -0.15690751
v 0.04534000 0.02690890 -0.15367901
v 0.04613977 0.02352673 -0.15907048
v 0.04612961 0.02349006 -0.15905783
v 0.04615024 0.02415347 -0.15735224
v 0.04612743 0.02345152 -0.15904503
v 0.04565698 0.02638974 -0.15439866
v 0.04578925 0.02624363 -0.15464921
v 0.04603794 0.02525085 -0.15583342
v 0.04618531 0.02488217 -0.15646125
v 0.04562490 0.02632937 -0.15435779
v 0.04524872 0.02701603 -0.15332834
v 0.04534205 0.02684951 -0.15362591
v 0.04564801 0.02622035 -0.15425648
v 0.04562283 0.02626859 -0.15430640
v 0.04587046 0.02559714 -0.15501300
v 0.04599217 0.02512619 -0.15575053
v 0.04596879 0.02300582 -0.16163024
v 0.04599888 0.02302502 -0.16160174
v 0.04599441 0.02301879 -0.16163594
v 0.04591800 0.02296141 -0.16161554
v 0.04588983 0.02291306 -0.16160305
v 0.04587620 0.02283517 -0.16158706
v 0.04587917 0.02287578 -0.16159487
v 0.04589231 0.02276319 -0.16157603
v 0.04588195 0.02279391 -0.16158028
v 0.04184987 0.01601763 -0.18849765
v 0.04391850 0.01996023 -0.17504536
v 0.04394986 0.02002518 -0.17508215
v 0.04193801 0.01612251 -0.18854563
v 0.04158334 0.01476541 -0.19158253
v 0.04153133 0.01473115 -0.19155668
v 0.04492781 0.02148846 -0.16834620
v 0.04527089 0.02189944 -0.16608146
v 0.04167696 0.01543893 -0.18970396
v 0.04185089 0.01589489 -0.18845713
v 0.04183960 0.01595276 -0.18847463
v 0.04236171 0.01696557 -0.18510152
v 0.04286112 0.01803261 -0.18178795
v 0.04393392 0.01984603 -0.17496960
v 0.04391333 0.01990710 -0.17501861
v 0.04146691 0.01452186 -0.19163272
v 0.04147632 0.01446902 -0.19159879
v 0.04402275 0.02008221 -0.17510812
v 0.04332140 0.01886179 -0.17963251
v 0.04303149 0.01832205 -0.18151017
v 0.04159864 0.01467647 -0.19174425
v 0.04180594 0.01571184 -0.18970791
v 0.04196398 0.01613359 -0.18855318
v 0.04219975 0.01664604 -0.18697520
v 0.04188763 0.01608264 -0.18852484
v 0.04149120 0.01467422 -0.19151759
v 0.04148619 0.01467407 -0.19146261
v 0.04163042 0.01537619 -0.19001520
v 0.04471241 0.02118165 -0.17060564
v 0.04157203 0.01466732 -0.19173625
v 0.04151978 0.01463342 -0.19170998
v 0.04147943 0.01457709 -0.19166993
v 0.04144471 0.01428184 -0.19207110
v 0.04144861 0.01418808 -0.19200273
v 0.04144098 0.01421230 -0.19202000
v 0.04143819 0.01424828 -0.19204615
v 0.04157300 0.01438965 -0.19215700
v 0.04150824 0.01436143 -0.19213291
v 0.04149119 0.01434866 -0.19212264
v 0.04145847 0.01431109 -0.19209330
v 0.04203568 0.00744563 -0.19495042
v 0.04220817 0.00544569 -0.19495322
v 0.04179897 0.00935482 -0.19461204
v 0.04144165 0.01292764 -0.19330910
v 0.04146091 0.01297588 -0.19337450
v 0.04151203 0.01301657 -0.19342732
v 0.04145767 0.01282031 -0.19329339
v 0.04157861 0.01122911 -0.19420683
v 0.04158221 0.01124599 -0.19412945
v 0.04179011 0.00938984 -0.19467402
v 0.04241337 0.00006408 -0.19517404
v 0.04241806 0.00006405 -0.19510728
v 0.04243866 0.00006409 -0.19525354
v 0.04203534 0.00752310 -0.19495995
v 0.04209075 0.00753401 -0.19502221
v 0.04249474 0.00006408 -0.19531621
v 0.04237477 0.00520038 -0.19520912
v 0.04256526 0.00006405 -0.19534886
v 0.04172109 0.01131328 -0.19436903
v 0.04197282 0.00914865 -0.19488971
v 0.04186850 0.00942231 -0.19481432
v 0.04158319 0.01297362 -0.19350445
v 0.04165335 0.01128648 -0.19434094
v 0.04181390 0.00940560 -0.19475260
v 0.04160033 0.01125909 -0.19428174
v 0.04207193 -0.00748817 -0.19502214
v 0.04235385 -0.00526488 -0.19520324
v 0.04192289 -0.00933253 -0.19484930
v 0.04176489 -0.00940748 -0.19458961
v 0.04176856 -0.00934061 -0.19466780
v 0.04155828 -0.01115839 -0.19419461
v 0.04241216 -0.00079369 -0.19510324
v 0.04201655 -0.00747713 -0.19495979
v 0.04201597 -0.00740091 -0.19494799
v 0.04213094 -0.00614563 -0.19490740
v 0.04142835 -0.01415947 -0.19208728
v 0.04141990 -0.01411427 -0.19205329
v 0.04142365 -0.01283013 -0.19329783
v 0.04142371 -0.01408207 -0.19202970
v 0.04156209 -0.01117393 -0.19411756
v 0.04143528 -0.01281660 -0.19321431
v 0.04143049 -0.01406141 -0.19201489
v 0.04147893 -0.01422624 -0.19213901
v 0.04143774 -0.01417940 -0.19210252
v 0.04149376 -0.01291975 -0.19341579
v 0.04144274 -0.01287874 -0.19336306
v 0.04163271 -0.01121672 -0.19432855
v 0.04157981 -0.01118890 -0.19426940
v 0.04184673 -0.00937365 -0.19480816
v 0.04179221 -0.00935667 -0.19474640
v 0.04155461 -0.01426301 -0.19216934
v 0.04156477 -0.01287991 -0.19349140
v 0.04169592 -0.01128772 -0.19433980
v 0.04154009 -0.01439972 -0.19195879
v 0.04148741 -0.01436667 -0.19193196
v 0.04144651 -0.01431175 -0.19189036
v 0.04143353 -0.01425801 -0.19185141
v 0.04144308 -0.01420526 -0.19181459
v 0.04157961 -0.01455015 -0.19175678
v 0.04151573 -0.01452105 -0.19173279
v 0.04146700 -0.01446926 -0.19169508
v 0.04144738 -0.01440471 -0.19165115
v 0.04145784 -0.01434273 -0.19161119
v 0.04596495 -0.02292407 -0.16165571
v 0.04590405 -0.02288373 -0.16164061
v 0.04530369 -0.02199730 -0.16643718
v 0.04484118 -0.02136403 -0.16916750
v 0.04487747 -0.02136862 -0.16934443
v 0.04396128 -0.01991356 -0.17535597
v 0.04367518 -0.01948905 -0.17679819
v 0.04243074 -0.01705680 -0.18531160
v 0.04251239 -0.01731280 -0.18434913
v 0.04194748 -0.01612372 -0.18809742
v 0.04177247 -0.01554209 -0.18983173
v 0.04169181 -0.01544786 -0.18995675
v 0.04586045 -0.02281818 -0.16162309
v 0.04479871 -0.02129885 -0.16914669
v 0.04363266 -0.01942501 -0.17677443
v 0.04246806 -0.01725093 -0.18432324
v 0.04190149 -0.01606343 -0.18807074
v 0.04164489 -0.01539001 -0.18992643
v 0.04584689 -0.02274024 -0.16160731
v 0.04478631 -0.02122163 -0.16912748
v 0.04362008 -0.01934879 -0.17675205
v 0.04245333 -0.01717607 -0.18429784
v 0.04188478 -0.01598948 -0.18804403
v 0.04162721 -0.01531862 -0.18989396
v 0.04586302 -0.02266831 -0.16159651
v 0.04457460 -0.02080224 -0.17064029
v 0.04317133 -0.01845291 -0.17972884
v 0.04208966 -0.01632759 -0.18675803
v 0.04168046 -0.01538035 -0.18954781
v 0.04621271 -0.02353911 -0.15912981
v 0.04618847 -0.02352672 -0.15912445
v 0.04613705 -0.02348171 -0.15910691
v 0.04610994 -0.02343472 -0.15909009
v 0.04609983 -0.02339798 -0.15907757
v 0.04609767 -0.02335941 -0.15906487
v 0.04610367 -0.02332143 -0.15905288
v 0.04611487 -0.02329032 -0.15904340
v 0.04624024 -0.02380465 -0.15840101
v 0.04620842 -0.02445338 -0.15704831
v 0.04610111 -0.02504424 -0.15610178
v 0.04607829 -0.02503074 -0.15609550
v 0.04600259 -0.02492389 -0.15603256
v 0.04603269 -0.02498663 -0.15607190
v 0.04599950 -0.02486809 -0.15599395
v 0.04614324 -0.02353565 -0.15836273
v 0.04607630 -0.02451470 -0.15642306
v 0.04497921 -0.02727874 -0.15293665
v 0.04569993 -0.02591356 -0.15453808
v 0.04496760 -0.02728957 -0.15295336
v 0.04520840 -0.02693180 -0.15343472
v 0.04495228 -0.02731286 -0.15298308
v 0.04520174 -0.02698084 -0.15348083
v 0.04495832 -0.02742999 -0.15307973
v 0.04494372 -0.02737748 -0.15304397
v 0.04494325 -0.02734816 -0.15301912
v 0.04521901 -0.02704382 -0.15352632
v 0.04525376 -0.02709508 -0.15355235
v 0.04500542 -0.02749850 -0.15310881
v 0.04591678 -0.02570928 -0.15521382
v 0.04577116 -0.02604551 -0.15477687
v 0.04527566 -0.02710890 -0.15356396
v 0.04572968 -0.02599937 -0.15475124
v 0.04570436 -0.02593785 -0.15470766
v 0.04570495 -0.02588608 -0.15466416
v 0.04491448 -0.02761224 -0.15297319
v 0.04487370 -0.02755433 -0.15295196
v 0.04486466 -0.02753436 -0.15294124
v 0.04485340 -0.02748860 -0.15291034
v 0.04485398 -0.02745775 -0.15288404
v 0.04486176 -0.02743018 -0.15285569
v 0.04489397 -0.02739084 -0.15280133
v 0.04455775 -0.02778013 -0.15231195
v 0.04413687 -0.02829222 -0.15200698
v 0.04375019 -0.02867384 -0.15160327
v 0.04412637 -0.02822407 -0.15196355
v 0.04319668 -0.02882831 -0.15089685
v 0.04414254 -0.02816917 -0.15190570
v 0.04109047 -0.02977621 -0.14931525
v 0.04112781 -0.02975919 -0.14925784
v 0.04108950 -0.02977708 -0.14931695
v 0.04322106 -0.02881669 -0.15100800
v 0.04320006 -0.02886780 -0.15106823
v 0.04107160 -0.02979984 -0.14935136
v 0.04106127 -0.02982348 -0.14937620
v 0.04320279 -0.02893648 -0.15111271
v 0.04105257 -0.02987302 -0.14941111
v 0.04105239 -0.02989330 -0.14942095
v 0.04187418 -0.02965877 -0.15005477
v 0.04106364 -0.02996563 -0.14944027
v 0.04005875 -0.03029182 -0.14865126
v 0.03903487 -0.03057718 -0.14787300
v 0.03903054 -0.03050503 -0.14785250
v 0.04069509 -0.03009100 -0.14915611
v 0.03904474 -0.03043885 -0.14780796
v 0.03903262 -0.03048453 -0.14784200
v 0.03905729 -0.03041559 -0.14778161
v 0.03907615 -0.03039547 -0.14774747
v 0.03910314 -0.03038301 -0.14770462
v 0.03911294 -0.03038179 -0.14769027
v 0.03715665 -0.03087816 -0.14647734
v 0.03714248 -0.03101694 -0.14653842
v 0.03714047 -0.03094472 -0.14651991
v 0.03718927 -0.03083419 -0.14641811
v 0.03722944 -0.03081993 -0.14635693
v 0.03488050 -0.03126134 -0.14464557
v 0.03492672 -0.03124787 -0.14459009
v 0.03485667 -0.03128150 -0.14467669
v 0.03483919 -0.03130598 -0.14470135
v 0.03482069 -0.03135223 -0.14473131
v 0.03481627 -0.03137273 -0.14474028
v 0.03481387 -0.03144621 -0.14475720
v 0.03456336 -0.03130759 -0.14425868
v 0.03298039 -0.03168717 -0.14271423
v 0.03310215 -0.03173198 -0.14290696
v 0.03291269 -0.03176630 -0.14263637
v 0.03301364 -0.03164966 -0.14273427
v 0.03304137 -0.03161931 -0.14273877
v 0.03305923 -0.03160040 -0.14273338
v 0.03307533 -0.03158397 -0.14271995
v 0.03309144 -0.03156867 -0.14269191
v 0.03310106 -0.03156075 -0.14265874
v 0.03310823 -0.03155916 -0.14257574
v 0.03305643 0.03167132 -0.14241153
v 0.03304788 0.03167379 -0.14250186
v 0.03327654 0.03163035 -0.14272998
v 0.03303533 0.03168464 -0.14253958
v 0.03302307 0.03169653 -0.14255887
v 0.03300589 0.03171416 -0.14257264
v 0.03298696 0.03173435 -0.14257716
v 0.03426754 0.03163613 -0.14418279
v 0.03295394 0.03177083 -0.14256807
v 0.03293290 0.03179466 -0.14255403
v 0.03292434 0.03180447 -0.14254679
v 0.03286129 0.03187846 -0.14246951
v 0.04047661 0.03380846 -0.05784859
v 0.04086245 0.03377258 -0.05587519
v 0.04086241 0.03377461 -0.05587519
v 0.03978327 0.03436403 -0.06166032
v 0.03977036 0.03436516 -0.06173144
v 0.03977085 0.03387465 -0.06173170
v 0.04004032 0.03433953 -0.06022720
v 0.04103617 0.03375548 -0.05488043
v 0.04103265 0.03424961 -0.05490019
v 0.04236912 0.03377422 -0.05590572
v 0.04161884 0.03384316 -0.05992294
v 0.04129426 0.03313555 -0.06173478
v 0.04129581 0.03387366 -0.06173600
v 0.04114178 0.03314887 -0.06260260
v 0.04221616 0.03305187 -0.05669365
v 0.04237633 0.03304289 -0.05585188
v 0.04254547 0.03375441 -0.05493278
v 0.04246363 0.03303450 -0.05539720
v 0.04254211 0.03302351 -0.05494086
v 0.04054879 0.03319972 -0.06607687
v 0.03918233 0.03406280 -0.07475636
v 0.03894665 0.03332096 -0.07635624
v 0.03894716 0.03408065 -0.07635596
v 0.03781715 0.03337953 -0.08455244
v 0.03740099 0.03416603 -0.08781856
v 0.03707175 0.03339616 -0.09050167
v 0.03653066 0.03417561 -0.09513458
v 0.03588374 0.03336192 -0.10112274
v 0.03491143 0.03404696 -0.11121976
v 0.03443413 0.03312225 -0.11680256
v 0.03277364 0.03271006 -0.14233382
v 0.03277856 0.03197734 -0.14233805
v 0.03291254 0.03298561 -0.13951036
v 0.03313270 0.03240201 -0.13549836
v 0.03463699 0.03399040 -0.11437263
v 0.03353207 0.03354349 -0.12906089
v 0.03322773 0.03248692 -0.13390142
v 0.03307885 0.03318463 -0.13640597
v 0.03300023 0.03309334 -0.13795908
v 0.05641724 0.02127774 -0.06029088
v 0.05604775 0.02288818 -0.06028577
v 0.05646604 0.02084016 -0.06112815
v 0.05551815 0.02502132 -0.06027856
v 0.05542203 0.02502157 -0.06196656
v 0.05772847 0.01415113 -0.06030939
v 0.05815059 0.01047072 -0.06116383
v 0.05798292 0.01229686 -0.06031311
v 0.05851041 0.00702907 -0.06032120
v 0.05871522 -0.00000404 -0.06118377
v 0.05876382 -0.00000443 -0.06032643
v 0.05866621 -0.00000364 -0.06204113
v 0.05851223 0.00549529 -0.06203604
v 0.05784634 0.01260435 -0.06202019
v 0.05682820 0.01884523 -0.06199712
v 0.06235152 0.00618359 -0.02254405
v 0.06234558 -0.00002084 -0.02764794
v 0.06066391 -0.00000487 -0.06215245
v 0.06359558 0.00712422 0.01631420
v 0.06390739 0.00139364 0.01654637
v 0.06391962 -0.00004082 0.01655554
v 0.06172585 0.01250858 -0.02252117
v 0.06312373 0.01111353 0.01572586
v 0.06342739 0.00877700 0.01618594
v 0.06222971 0.01578159 0.01108291
v 0.06233318 0.01535475 0.01201096
v 0.06246207 0.01478596 0.01298098
v 0.06265871 0.01383649 0.01413338
v 0.06269441 0.01365274 0.01430523
v 0.06278133 0.01318978 0.01468447
v 0.06304041 0.01166156 0.01552997
v 0.05864424 0.02531626 -0.03649322
v 0.05924502 0.02499106 -0.02192078
v 0.06068102 0.01878769 -0.02248478
v 0.05933657 0.02473551 -0.02116330
v 0.05942806 0.02448029 -0.02037900
v 0.06003686 0.02279384 -0.01434768
v 0.06031149 0.02204552 -0.01107778
v 0.06059053 0.02126970 -0.00758975
v 0.06117348 0.01949886 -0.00066698
v 0.06177955 0.01745125 0.00617679
v 0.06201949 0.01658090 0.00882940
v 0.06046218 0.00633341 -0.06214592
v 0.05983622 0.01278809 -0.06213109
v 0.05879532 0.01919099 -0.06210819
v 0.05735492 0.02552426 -0.06207756
v 0.04671601 0.03436623 -0.06186675
v 0.04704531 0.03408932 -0.04057129
v 0.05205201 0.03265583 -0.04112815
v 0.04201764 0.03482627 -0.06177501
v 0.04028659 0.03486410 -0.06174120
v 0.04127086 0.03477613 -0.05641146
v 0.04153701 0.03475126 -0.05497994
v 0.04305974 0.03459612 -0.04751391
v 0.04336726 0.03455953 -0.04610158
v 0.05344563 0.03157332 -0.06199896
v 0.05134797 0.03287709 -0.06195758
v 0.05056331 0.03323727 -0.06194215
v 0.05748756 0.02777122 -0.04176308
v 0.05519124 0.02988300 -0.06203363
v 0.05608941 0.02978756 -0.04159237
v 0.05650096 0.02784156 -0.06205996
v 0.05794805 0.02769483 -0.02835678
v 0.05877816 0.02614927 -0.02493739
v 0.05906309 0.02547717 -0.02324033
v 0.05424557 0.03141807 -0.04137687
v 0.05594147 0.03011587 -0.03267331
v 0.05716662 0.02879651 -0.03046316
v 0.05319089 0.03206204 -0.03546547
v 0.05378546 0.03172449 -0.03500913
v 0.05523569 0.03072189 -0.03359179
v 0.05114665 0.03298113 -0.03669876
v 0.04426724 0.03443678 -0.04211552
v 0.04460066 0.03438545 -0.04068938
v 0.04498672 0.03433523 -0.03977890
v 0.04578788 0.03423551 -0.03892784
v 0.04682652 0.03408560 -0.03840958
v 0.04992073 0.03339110 -0.03727417
v 0.04098871 -0.03424267 -0.05492963
v 0.04098829 -0.03374480 -0.05493355
v 0.04072330 -0.03425777 -0.05636032
v 0.04008494 -0.03382675 -0.05978251
v 0.03973919 -0.03434696 -0.06168989
v 0.03972740 -0.03385788 -0.06176084
v 0.03972629 -0.03434841 -0.06176100
v 0.04157543 -0.03383035 -0.05995206
v 0.04125236 -0.03385886 -0.06176514
v 0.04249921 -0.03374597 -0.05496277
v 0.03276860 -0.03205524 -0.14121819
v 0.03273736 -0.03197529 -0.14236502
v 0.03273463 -0.03261500 -0.14236175
v 0.03890396 -0.03338746 -0.07638429
v 0.04002753 -0.03396553 -0.06902952
v 0.04125449 -0.03321871 -0.06174754
v 0.04145599 -0.03320236 -0.06061641
v 0.04233704 -0.03312943 -0.05586443
v 0.04250040 -0.03311630 -0.05496852
v 0.03584115 -0.03340115 -0.10114923
v 0.03648685 -0.03412597 -0.09516396
v 0.03699039 -0.03344686 -0.09085105
v 0.03684548 -0.03412972 -0.09206796
v 0.03783904 -0.03343490 -0.08408628
v 0.03810671 -0.03409653 -0.08207189
v 0.03890355 -0.03405025 -0.07638462
v 0.03409402 -0.03304024 -0.12059315
v 0.03318648 -0.03249285 -0.13392255
v 0.03318607 -0.03323157 -0.13392277
v 0.03396352 -0.03371406 -0.12231640
v 0.03436423 -0.03385917 -0.11716302
v 0.03502408 -0.03329653 -0.10952393
v 0.03570314 -0.03408907 -0.10248966
v 0.03584075 -0.03409900 -0.10114952
v 0.03287027 -0.03289314 -0.13953869
v 0.03295784 -0.03300233 -0.13798730
v 0.03303422 -0.03309504 -0.13643438
v 0.05813717 -0.01047806 -0.06117234
v 0.05853783 -0.00652805 -0.06032567
v 0.05868246 -0.00389511 -0.06032664
v 0.05543770 -0.02502560 -0.06114184
v 0.05548668 -0.02502504 -0.06029354
v 0.05643932 -0.02084536 -0.06114558
v 0.05707698 -0.01793300 -0.06031108
v 0.05814019 -0.01088109 -0.06032210
v 0.05538993 -0.02502470 -0.06198809
v 0.05620312 -0.02168858 -0.06200282
v 0.05750262 -0.01488796 -0.06202560
v 0.05866272 -0.00076227 -0.06204142
v 0.05836219 -0.00758108 -0.06203910
v 0.05808786 -0.01047834 -0.06203512
v 0.06326274 -0.01010320 0.01599571
v 0.06300159 -0.01189082 0.01545826
v 0.06170977 -0.01255376 -0.02253189
v 0.05732217 -0.02552977 -0.06209952
v 0.05977635 -0.01312382 -0.06214140
v 0.06085379 -0.01273779 -0.04233696
v 0.05818184 -0.02546085 -0.04577078
v 0.06065688 -0.01883154 -0.02250090
v 0.06028255 -0.02210038 -0.01110462
v 0.06024504 -0.02220108 -0.01157364
v 0.06100205 -0.02002175 -0.00237672
v 0.06008284 -0.02263938 -0.01351188
v 0.05954870 -0.02410352 -0.01903715
v 0.05939662 -0.02452436 -0.02040008
v 0.05929483 -0.02480644 -0.02126823
v 0.05921293 -0.02503354 -0.02194230
v 0.06204912 -0.01646556 0.00937435
v 0.06192825 -0.01690884 0.00804838
v 0.06255811 -0.01432385 0.01368372
v 0.06231968 -0.01540397 0.01204891
v 0.06224150 -0.01572788 0.01137192
v 0.06287854 -0.01262981 0.01509312
v 0.06262620 -0.01398853 0.01404797
v 0.06187046 -0.01711753 0.00741176
v 0.06148419 -0.01846233 0.00312473
v 0.06142629 -0.01865655 0.00247445
v 0.06382067 -0.00392391 0.01648214
v 0.06357706 -0.00730544 0.01630110
v 0.06234356 -0.00622955 -0.02254933
v 0.06340779 -0.00893006 0.01617088
v 0.06065010 -0.00153946 -0.06215291
v 0.06045431 -0.00633889 -0.06215138
v 0.04474955 -0.03436729 -0.04016099
v 0.04452848 -0.03439729 -0.04083812
v 0.04700157 -0.03410010 -0.04060062
v 0.04049855 -0.03482640 -0.06033911
v 0.04024186 -0.03484800 -0.06177119
v 0.04197298 -0.03481237 -0.06180498
v 0.04240747 -0.03465022 -0.04985804
v 0.04540726 -0.03455907 -0.06187177
v 0.04274716 -0.03461809 -0.04839949
v 0.04642294 -0.03415264 -0.03856966
v 0.04565747 -0.03425717 -0.03902314
v 0.04492889 -0.03434569 -0.03983015
v 0.05201010 -0.03267255 -0.04115625
v 0.05218116 -0.03256043 -0.03613120
v 0.05110443 -0.03300049 -0.03672737
v 0.04852957 -0.03376204 -0.03784500
v 0.04809435 -0.03385769 -0.03800322
v 0.04672468 -0.03410704 -0.03845673
v 0.05392153 -0.03164141 -0.03488914
v 0.05420525 -0.03143740 -0.04140391
v 0.05447238 -0.03128297 -0.03438924
v 0.05591137 -0.03013696 -0.03268686
v 0.05605118 -0.02980907 -0.04161801
v 0.05657723 -0.02947101 -0.03160606
v 0.05756056 -0.02825642 -0.02942088
v 0.05745191 -0.02779439 -0.04178698
v 0.05836834 -0.02694771 -0.02672051
v 0.05857941 -0.02653679 -0.02578731
v 0.05702924 -0.02649697 -0.06209424
v 0.05636646 -0.02804085 -0.06208210
v 0.05514864 -0.02989096 -0.06205927
v 0.05221308 -0.03238219 -0.06200331
v 0.05052067 -0.03323418 -0.06197075
v 0.04766721 -0.03414946 -0.06191561
v 0.04338698 0.03344984 -0.04359190
v 0.04407276 0.03335892 -0.04058629
v 0.04407336 0.03388776 -0.04058524
v 0.04317221 0.03401955 -0.04455874
v 0.04285569 0.03406039 -0.04600408
v 0.04131224 0.03422558 -0.05346706
v 0.04293929 0.03370655 -0.05291576
v 0.04453567 0.03349659 -0.04528940
v 0.04454425 0.03340562 -0.04220659
v 0.04455127 0.03332757 -0.03946065
v 0.04431784 0.03285582 -0.04625148
v 0.04453534 0.03283376 -0.04525668
v 0.04157280 -0.03367912 -0.05196752
v 0.04146028 -0.03428353 -0.05252788
v 0.04174742 -0.03430650 -0.05110161
v 0.04402996 -0.03336587 -0.04061500
v 0.04369362 -0.03394258 -0.04207332
v 0.04402988 -0.03389442 -0.04061440
v 0.04450851 -0.03333611 -0.03948933
v 0.04450061 -0.03341976 -0.04251192
v 0.04346635 -0.03363223 -0.05013362
v 0.04449269 -0.03350009 -0.04531822
v 0.04449319 -0.03286584 -0.04528636
v 0.04272409 -0.03308713 -0.05377804
v 0.04250892 -0.03311263 -0.05487747
v 0.04280085 0.01469500 -0.19245248
v 0.04280865 0.01343480 -0.19366692
v 0.04284931 0.01278919 -0.19409150
v 0.04302700 0.01097643 -0.19485532
v 0.04322416 0.00931868 -0.19520168
v 0.04382880 0.00006337 -0.19565539
v 0.04381522 0.00148089 -0.19564459
v 0.04347431 0.00714232 -0.19539891
v 0.04342753 0.00758849 -0.19536567
v 0.04717054 0.02350619 -0.16187842
v 0.04635448 0.02238329 -0.16767965
v 0.04593293 0.02176051 -0.17051089
v 0.04550453 0.02109003 -0.17333016
v 0.04464357 0.01961141 -0.17893413
v 0.04421832 0.01880584 -0.18171830
v 0.04380049 0.01795752 -0.18449086
v 0.04322149 0.01668248 -0.18841070
v 0.04281193 0.01491100 -0.19216645
v 0.04300256 0.01609731 -0.19000766
v 0.04286759 0.01545428 -0.19132029
v 0.04582000 0.02864255 -0.15313841
v 0.04603042 0.02838093 -0.15340702
v 0.04610381 0.02828294 -0.15350696
v 0.04681672 0.02704336 -0.15476531
v 0.04727640 0.02569940 -0.15632181
v 0.04737482 0.02522745 -0.15700525
v 0.04744254 0.02453880 -0.15828703
v 0.04733378 0.02380739 -0.16045280
v 0.04370213 -0.00409283 -0.19556975
v 0.04333295 -0.00820569 -0.19531333
v 0.04307041 -0.01035824 -0.19499394
v 0.04293015 -0.01160385 -0.19460952
v 0.04278255 -0.01456980 -0.19246517
v 0.04278103 -0.01355524 -0.19348601
v 0.04279956 -0.01315714 -0.19378746
v 0.04714045 -0.02341277 -0.16189861
v 0.04736659 -0.02393487 -0.15968379
v 0.04741111 -0.02444882 -0.15830810
v 0.04728155 -0.02544802 -0.15656708
v 0.04711124 -0.02608324 -0.15574978
v 0.04664067 -0.02725416 -0.15448163
v 0.04606757 -0.02819538 -0.15353124
v 0.04578305 -0.02855465 -0.15316297
v 0.04282402 -0.01514494 -0.19164380
v 0.04284783 -0.01533002 -0.19133353
v 0.04308819 -0.01629339 -0.18920411
v 0.04337925 -0.01696893 -0.18720405
v 0.04400359 -0.01830946 -0.18299714
v 0.04529706 -0.02068784 -0.17452848
v 0.04614221 -0.02201464 -0.16894403
v 0.04694904 -0.02315657 -0.16331318
v 0.04733050 0.00617220 -0.17408133
v 0.05146990 0.00004018 -0.15307720
v 0.05121794 0.00572915 -0.15306412
v 0.05089091 0.00004228 -0.15769336
v 0.04996360 0.00617827 -0.16154718
v 0.04951858 0.00004657 -0.16564436
v 0.04723110 0.00005270 -0.17587698
v 0.04382218 0.01810043 -0.17789829
v 0.04583050 0.01463692 -0.17382658
v 0.04535710 0.02060823 -0.16789438
v 0.04852017 0.01466426 -0.16128376
v 0.04632075 0.02200428 -0.16089374
v 0.04762605 0.02215690 -0.15290806
v 0.04730772 0.02305388 -0.15289821
v 0.04730180 0.02305023 -0.15294358
v 0.05045595 0.01141391 -0.15302686
v 0.04979246 0.01465962 -0.15299682
v 0.04916709 0.01716419 -0.15297017
v 0.04721184 0.02297444 -0.15371966
v 0.04684782 0.02426865 -0.15288538
v 0.04553992 0.02675739 -0.15289609
v 0.04582401 0.02634800 -0.15288919
v 0.04402980 0.00762480 -0.19499758
v 0.04386720 0.00902420 -0.19487508
v 0.04928343 0.00677383 -0.17428096
v 0.04380753 0.00951407 -0.19481143
v 0.04361381 0.01117614 -0.19443332
v 0.04357442 0.01154806 -0.19430551
v 0.04344862 0.01307153 -0.19353053
v 0.04343281 0.01342315 -0.19327302
v 0.04343673 0.01443961 -0.19227262
v 0.04348620 0.01497639 -0.19151893
v 0.04771093 0.01538828 -0.17401476
v 0.04351327 0.01516187 -0.19121327
v 0.04620840 0.01962295 -0.17495078
v 0.05077625 0.00004752 -0.16941735
v 0.04779913 0.00005488 -0.18188474
v 0.04423679 0.00534737 -0.19514540
v 0.04443249 0.00006284 -0.19528779
v 0.05346045 0.00003896 -0.15326858
v 0.05235538 0.00004283 -0.16127615
v 0.05339168 0.00308569 -0.15326600
v 0.05190627 0.00677240 -0.16174878
v 0.05101754 0.01792402 -0.15321368
v 0.05166710 0.01536879 -0.15322737
v 0.05039304 0.01539850 -0.16148765
v 0.05208117 0.01348820 -0.15323621
v 0.05311920 0.00675273 -0.15325919
v 0.04916832 0.02373109 -0.15317518
v 0.04859251 0.02319989 -0.15792172
v 0.04833117 0.02289758 -0.15997696
v 0.04737293 0.02155189 -0.16707043
v 0.03907435 0.03102235 -0.14784646
v 0.03718317 0.03242598 -0.14651111
v 0.03849499 0.03213315 -0.14743689
v 0.03907516 0.03198913 -0.14784630
v 0.04763684 0.02297701 -0.16333234
v 0.04683130 0.02184382 -0.16896482
v 0.04782766 0.02323047 -0.16191730
v 0.04806884 0.02379584 -0.15954468
v 0.04641075 0.02120605 -0.17176281
v 0.04657930 0.02039235 -0.17231588
v 0.04598461 0.02052004 -0.17454852
v 0.04513004 0.01900934 -0.18008418
v 0.04376240 0.01612082 -0.18913257
v 0.04429390 0.01731995 -0.18556999
v 0.04470853 0.01818656 -0.18283331
v 0.04811465 0.02431349 -0.15818624
v 0.04868470 0.02500667 -0.15316993
v 0.04803285 0.02515044 -0.15669259
v 0.04779072 0.02616434 -0.15540025
v 0.04792863 0.02666226 -0.15317866
v 0.04730317 0.02743337 -0.15411563
v 0.04673991 0.02841551 -0.15320195
v 0.04309726 0.03062416 -0.15074672
v 0.04109653 0.03071862 -0.14935395
v 0.04109153 0.03141849 -0.14929999
v 0.04579819 0.02866738 -0.15311214
v 0.04573882 0.02873486 -0.15304072
v 0.04489191 0.02953052 -0.15216470
v 0.04051406 0.03159762 -0.14888220
v 0.04010735 0.03102256 -0.14860567
v 0.04075983 0.03102182 -0.14909133
v 0.04962274 -0.00579247 -0.16355950
v 0.04714771 -0.02285756 -0.15403567
v 0.04727820 -0.02296839 -0.15291806
v 0.04913497 -0.01711853 -0.15298440
v 0.04648142 -0.01156365 -0.17394924
v 0.04506043 -0.01726756 -0.17371540
v 0.04392514 -0.01819977 -0.17712952
v 0.04528816 -0.02044017 -0.16820695
v 0.04735303 -0.00577484 -0.17409149
v 0.05123641 -0.00535740 -0.15306926
v 0.04877562 -0.01159278 -0.16341327
v 0.05045212 -0.01127266 -0.15303677
v 0.04739482 -0.01731341 -0.16317360
v 0.04629767 -0.02191720 -0.16087382
v 0.05139348 -0.00303295 -0.15307528
v 0.04681674 -0.02418256 -0.15290624
v 0.04605754 -0.02581461 -0.15290660
v 0.04349390 -0.01503854 -0.19122626
v 0.04769136 -0.01528512 -0.17402753
v 0.04595487 -0.01912131 -0.17644000
v 0.04406360 -0.00708584 -0.19503474
v 0.04440206 -0.00195567 -0.19526818
v 0.04441689 -0.00136869 -0.19527811
v 0.04359079 -0.01113027 -0.19441703
v 0.04386868 -0.00879276 -0.19489424
v 0.04927491 -0.00667246 -0.17428632
v 0.04402011 -0.00749880 -0.19500409
v 0.04343367 -0.01453536 -0.19199786
v 0.04341832 -0.01431519 -0.19228491
v 0.04342234 -0.01313462 -0.19340867
v 0.04354033 -0.01161181 -0.19424257
v 0.04735026 -0.02146026 -0.16705686
v 0.05037339 -0.01530955 -0.16150056
v 0.04827204 -0.02277028 -0.16022815
v 0.05045927 -0.01969267 -0.15321954
v 0.04913792 -0.02364772 -0.15319556
v 0.05318763 -0.00588555 -0.15326607
v 0.05269226 -0.00992519 -0.15325835
v 0.05189769 -0.00668518 -0.16175427
v 0.05164739 -0.01528881 -0.15324056
v 0.05099460 -0.01784301 -0.15322907
v 0.04105463 -0.03093034 -0.14935625
v 0.04072009 -0.03093117 -0.14911799
v 0.04006761 -0.03093149 -0.14863233
v 0.03963966 -0.03173795 -0.14830378
v 0.03903417 -0.03189738 -0.14787377
v 0.03903461 -0.03093060 -0.14787312
v 0.04105128 -0.03132815 -0.14932700
v 0.04108572 -0.03131679 -0.14935166
v 0.04219374 -0.03091289 -0.15014832
v 0.04413195 -0.02995119 -0.15157717
v 0.04449713 -0.02970861 -0.15187654
v 0.04802369 -0.02492089 -0.15692958
v 0.04808351 -0.02422445 -0.15820718
v 0.04865267 -0.02492269 -0.15319142
v 0.04793632 -0.02538998 -0.15625605
v 0.04753815 -0.02719630 -0.15320991
v 0.04670315 -0.02832940 -0.15322638
v 0.04751988 -0.02676493 -0.15470085
v 0.04777557 -0.02601567 -0.15549208
v 0.04655321 -0.02028918 -0.17233339
v 0.04796050 -0.02343557 -0.16052578
v 0.04779793 -0.02313783 -0.16193724
v 0.04697026 -0.02198906 -0.16785012
v 0.04655401 -0.02136782 -0.17065267
v 0.04613051 -0.02069811 -0.17344293
v 0.04363570 -0.01568807 -0.18993331
v 0.04385574 -0.01626956 -0.18837234
v 0.04527702 -0.01921834 -0.17898749
v 0.04485423 -0.01841055 -0.18174104
v 0.04443773 -0.01755859 -0.18448223
v 0.03831856 -0.03207313 -0.14736909
v 0.03714163 -0.03233295 -0.14653897
v 0.03170342 0.03376941 -0.13417239
v 0.03161826 0.03369199 -0.13563035
v 0.03157394 0.03318558 -0.13640176
v 0.03159617 0.03367080 -0.13601592
v 0.03157425 0.03364931 -0.13640156
v 0.03179676 0.03338310 -0.13261767
v 0.03261957 0.03384025 -0.12063788
v 0.03306886 0.03444465 -0.11503547
v 0.03300905 0.03396267 -0.11574883
v 0.03374840 0.03456993 -0.10741673
v 0.03370504 0.03409515 -0.10787404
v 0.03388644 0.03458679 -0.10597217
v 0.03502471 0.03417658 -0.09513018
v 0.03502002 0.03465417 -0.09512927
v 0.03518336 0.03465580 -0.09369341
v 0.03537440 0.03417724 -0.09204577
v 0.03623109 0.03463503 -0.08508617
v 0.03771612 0.03405939 -0.07437734
v 0.03713395 0.03458618 -0.07839400
v 0.03713380 0.03410245 -0.07839309
v 0.03604018 0.03416171 -0.08657984
v 0.03245876 0.03277303 -0.14178665
v 0.03178440 0.03294252 -0.14004768
v 0.03167019 0.03298644 -0.13950640
v 0.03153387 0.03309333 -0.13797000
v 0.03187105 0.03338755 -0.14036377
v 0.03481385 0.03285676 -0.14469314
v 0.03301529 0.03315145 -0.14269778
v 0.03379019 0.03302025 -0.14368013
v 0.03716724 0.03242927 -0.14649987
v 0.03551897 0.03274027 -0.14528295
v 0.03274930 0.03319921 -0.14229080
v 0.03208189 0.03333431 -0.14097349
v 0.03155627 0.03352265 -0.13852195
v 0.03167542 0.03345250 -0.13953419
v 0.04008936 0.03298505 -0.08720465
v 0.04197019 0.03282699 -0.06179734
v 0.04158295 0.03283549 -0.06179106
v 0.03696165 0.03247325 -0.12213270
v 0.03430092 0.03267596 -0.12208474
v 0.03419853 0.03263070 -0.12346796
v 0.03810247 0.03307963 -0.08459107
v 0.03773275 0.03309070 -0.08747590
v 0.03973930 0.03297311 -0.09169385
v 0.03774145 0.03307287 -0.09165648
v 0.03817206 0.03275110 -0.11077297
v 0.03652992 0.03220138 -0.12899910
v 0.03403702 0.03255060 -0.12572141
v 0.03340988 0.03210306 -0.13549808
v 0.03307156 0.03173426 -0.14153256
v 0.03713559 0.03309672 -0.09238818
v 0.03543332 0.03298049 -0.10859310
v 0.03517365 0.03293481 -0.11144070
v 0.04124880 0.03140930 -0.13036923
v 0.04537291 0.03004212 -0.13039002
v 0.04758251 0.03062010 -0.10762690
v 0.04816101 0.02786341 -0.13031553
v 0.04942172 0.02434431 -0.13391386
v 0.04838526 0.02380012 -0.14341770
v 0.03991309 0.03085824 -0.14172357
v 0.04407743 0.02958862 -0.14173427
v 0.04348166 0.03208460 -0.10758957
v 0.04853684 0.03185554 -0.06188799
v 0.04738601 0.03217749 -0.06187259
v 0.04521010 0.03236624 -0.08475298
v 0.04450337 0.03266846 -0.06183295
v 0.05181661 0.03028913 -0.06192899
v 0.04974278 0.03141314 -0.06190370
v 0.05094599 0.02983028 -0.08480815
v 0.04930799 0.03091097 -0.08480236
v 0.05406192 0.02806322 -0.06195162
v 0.05322855 0.02694360 -0.08478801
v 0.05460840 0.02715695 -0.06195696
v 0.05379377 0.02509808 -0.08641682
v 0.05197706 0.02504383 -0.10812015
v 0.05040248 0.02833948 -0.10759118
v 0.05224515 0.02851679 -0.08480161
v 0.05342153 0.02887894 -0.06194562
v 0.05032010 0.02468845 -0.12528603
v 0.04695785 0.02906570 -0.13036187
v 0.05344433 0.01894209 -0.13051602
v 0.05557661 0.01929406 -0.10774636
v 0.05676817 0.01287745 -0.10777199
v 0.05400059 0.02561823 -0.10705896
v 0.05594101 0.02561061 -0.08359588
v 0.05736230 0.01927599 -0.08493978
v 0.05772033 0.00001687 -0.10779564
v 0.05684605 0.00002201 -0.11834572
v 0.05549279 0.00628484 -0.13056105
v 0.05429440 0.00003512 -0.14528774
v 0.05846527 0.01285252 -0.08496336
v 0.05394109 0.02561314 -0.10771223
v 0.05239274 0.02533761 -0.12376842
v 0.05081746 0.02474029 -0.13866960
v 0.05471946 0.01265608 -0.13054340
v 0.05884860 0.00000950 -0.09251501
v 0.05748859 0.00638712 -0.10778856
v 0.04187495 0.03485062 -0.06374331
v 0.05082352 0.02721141 -0.13090391
v 0.04644069 0.02881852 -0.15282722
v 0.04637665 0.02889746 -0.15275232
v 0.04840433 0.02863819 -0.14235814
v 0.04635496 0.02892368 -0.15272735
v 0.04680156 0.03023079 -0.14238569
v 0.04955722 0.02669525 -0.14232902
v 0.04651934 0.02871838 -0.15292083
v 0.05309834 0.02772525 -0.10800523
v 0.05500480 0.02783293 -0.08505871
v 0.05378192 0.02977918 -0.08505613
v 0.05215841 0.03141053 -0.08504160
v 0.05018036 0.03270479 -0.08501446
v 0.04552669 0.03434135 -0.08492730
v 0.04004415 0.03498172 -0.08867788
v 0.03945572 0.03247787 -0.14748460
v 0.03812713 0.03279359 -0.14655615
v 0.04014572 0.03280488 -0.14236294
v 0.03754252 0.03291855 -0.14614683
v 0.03628843 0.03316273 -0.14524353
v 0.03519181 0.03335262 -0.14435855
v 0.03659898 0.03414890 -0.13011344
v 0.04003751 0.03232300 -0.14789312
v 0.04478657 0.03140458 -0.14239754
v 0.04150436 0.03187212 -0.14894074
v 0.04504155 0.03014722 -0.15148485
v 0.04463488 0.03042706 -0.15116575
v 0.04262799 0.03145270 -0.14973292
v 0.05192617 0.02959251 -0.10802153
v 0.05036106 0.03116284 -0.10802535
v 0.04843313 0.03241146 -0.10801306
v 0.04380252 0.03405065 -0.10793982
v 0.03892075 0.03487447 -0.10311177
v 0.04967232 0.02909111 -0.13093185
v 0.04810272 0.03065174 -0.13095203
v 0.04614620 0.03184789 -0.13095529
v 0.04152961 0.03336459 -0.13090481
v 0.03825064 0.03473700 -0.11131956
v 0.03206678 0.03405996 -0.13792016
v 0.03210695 0.03414698 -0.13645968
v 0.03406747 0.03354049 -0.14322767
v 0.03321309 0.03369603 -0.14206418
v 0.03294343 0.03375028 -0.14159738
v 0.03229511 0.03391386 -0.13992064
v 0.03218489 0.03395776 -0.13937823
v 0.03215084 0.03418971 -0.13568817
v 0.03291057 0.03470426 -0.12391391
v 0.03361781 0.03494882 -0.11482800
v 0.04027343 0.03486491 -0.06181194
v 0.03735480 0.03510366 -0.08055916
v 0.04002269 0.03488861 -0.06324963
v 0.03413529 0.03504959 -0.10894305
v 0.03427231 0.03506887 -0.10747243
v 0.03488078 0.03512768 -0.10130109
v 0.03553905 0.03515337 -0.09518845
v 0.03498090 -0.03412500 -0.09515956
v 0.03338729 -0.03398637 -0.11088987
v 0.03370411 -0.03450613 -0.10744625
v 0.03153113 -0.03355779 -0.13643047
v 0.03155304 -0.03357965 -0.13604473
v 0.03153143 -0.03309406 -0.13643028
v 0.03157511 -0.03360120 -0.13565902
v 0.03235376 -0.03366873 -0.12365674
v 0.03304688 -0.03437917 -0.11480146
v 0.03356665 -0.03448559 -0.10891680
v 0.03481309 -0.03459778 -0.09661575
v 0.03497560 -0.03460258 -0.09515904
v 0.03580950 -0.03412354 -0.08810332
v 0.03580920 -0.03460347 -0.08810353
v 0.03653793 -0.03409797 -0.08244225
v 0.03850317 -0.03445228 -0.06902903
v 0.03947219 -0.03437090 -0.06321294
v 0.03711898 -0.03233762 -0.14652300
v 0.03174231 -0.03284809 -0.14007647
v 0.03241703 -0.03267796 -0.14181532
v 0.03238384 -0.03316594 -0.14175323
v 0.03346954 -0.03297123 -0.14338401
v 0.03588755 -0.03257475 -0.14562933
v 0.03477198 -0.03276235 -0.14472155
v 0.03148981 -0.03347072 -0.13790520
v 0.03149148 -0.03300041 -0.13799849
v 0.03155080 -0.03339959 -0.13898811
v 0.03162795 -0.03289237 -0.13953482
v 0.03172568 -0.03332411 -0.14000992
v 0.03197963 -0.03325363 -0.14084654
v 0.05319490 -0.02692243 -0.08481117
v 0.05220963 -0.02849487 -0.08482612
v 0.05408079 -0.02798428 -0.06197619
v 0.04692168 -0.02899828 -0.13038681
v 0.03640905 -0.03208640 -0.12986208
v 0.04192808 -0.03281299 -0.06182558
v 0.04387782 -0.03271290 -0.06185285
v 0.04516929 -0.03233651 -0.08478083
v 0.03816318 -0.03269785 -0.11042660
v 0.03969898 -0.03293049 -0.09171991
v 0.04010098 -0.03294795 -0.08656259
v 0.04120925 -0.03133522 -0.13039623
v 0.04339620 -0.03074526 -0.13041726
v 0.04533551 -0.02997296 -0.13041584
v 0.04812627 -0.02779719 -0.13033943
v 0.05036714 -0.02829564 -0.10761552
v 0.05109125 -0.02485320 -0.11722255
v 0.04939051 -0.02427762 -0.13393469
v 0.04892556 -0.02404806 -0.13825482
v 0.05483823 -0.02503531 -0.07109328
v 0.05295670 -0.02507852 -0.09654442
v 0.05199883 -0.02500934 -0.10754953
v 0.05047637 -0.03105440 -0.06194012
v 0.04926945 -0.03088602 -0.08482895
v 0.04849600 -0.03184989 -0.06191533
v 0.04743324 -0.03214871 -0.06190137
v 0.04344124 -0.03203298 -0.10761716
v 0.04754434 -0.03057331 -0.10765322
v 0.05090888 -0.02980709 -0.08483381
v 0.05162788 -0.03038920 -0.06195337
v 0.03773891 -0.03302596 -0.09168282
v 0.03894108 -0.03300630 -0.07885011
v 0.04144112 -0.03283491 -0.06295305
v 0.04163998 -0.03281894 -0.06182092
v 0.03356401 -0.03210119 -0.13379984
v 0.03433978 -0.03258856 -0.12227833
v 0.03695951 -0.03239766 -0.12216122
v 0.03616793 -0.03299762 -0.10167216
v 0.03822004 -0.03303543 -0.08413787
v 0.05733758 -0.01926185 -0.08495636
v 0.05555188 -0.01925801 -0.10776293
v 0.05675166 -0.01284291 -0.10778305
v 0.05748042 -0.00635349 -0.10779403
v 0.05548476 -0.00622906 -0.13056645
v 0.05470327 -0.01259931 -0.13055427
v 0.05342007 -0.01888372 -0.13053231
v 0.05057292 -0.02456210 -0.14061992
v 0.05391381 -0.02557557 -0.10767348
v 0.05220851 -0.02523926 -0.12528072
v 0.05166674 -0.02505584 -0.13050115
v 0.05575804 -0.02560367 -0.08562134
v 0.03409705 -0.03343383 -0.14334023
v 0.03514922 -0.03325887 -0.14438733
v 0.03668787 -0.03413070 -0.12872531
v 0.03565852 -0.03510557 -0.09376834
v 0.03887025 -0.03482142 -0.10314117
v 0.03634889 -0.03510297 -0.08797091
v 0.04019826 -0.03494872 -0.08594216
v 0.04022887 -0.03484873 -0.06184196
v 0.03219185 -0.03417841 -0.13425936
v 0.03210705 -0.03409957 -0.13571726
v 0.03549399 -0.03510240 -0.09521861
v 0.03436483 -0.03502403 -0.10605777
v 0.03829599 -0.03469945 -0.11022531
v 0.03422737 -0.03500570 -0.10750236
v 0.03286629 -0.03462529 -0.12394109
v 0.03206319 -0.03405610 -0.13648900
v 0.03202275 -0.03396985 -0.13791682
v 0.03220649 -0.03383679 -0.13975221
v 0.03251188 -0.03374440 -0.14078216
v 0.03342157 -0.03355388 -0.14247711
v 0.04548441 -0.03431447 -0.08481924
v 0.04377557 -0.03400672 -0.10769468
v 0.04841174 -0.03237315 -0.10776683
v 0.05083204 -0.02716526 -0.13051796
v 0.05308729 -0.02769005 -0.10775559
v 0.04480221 -0.03134914 -0.14194743
v 0.04015882 -0.03274875 -0.14191322
v 0.03941412 -0.03238694 -0.14751250
v 0.04025313 -0.03216022 -0.14810364
v 0.04146357 -0.03178253 -0.14896822
v 0.04240192 -0.03143871 -0.14962922
v 0.03805439 -0.03270841 -0.14656354
v 0.03920994 -0.03243845 -0.14737017
v 0.05014326 -0.03268478 -0.08490514
v 0.05212487 -0.03139281 -0.08493129
v 0.05375222 -0.02976273 -0.08494455
v 0.05497884 -0.02781679 -0.08494559
v 0.04967758 -0.02904260 -0.13054740
v 0.04366477 -0.03087266 -0.15051827
v 0.04426755 -0.03054233 -0.15094849
v 0.04810549 -0.03060084 -0.13056864
v 0.04557527 -0.02960039 -0.15200013
v 0.04640304 -0.02873282 -0.15285133
v 0.04614741 -0.03179530 -0.13057260
v 0.04152619 -0.03330916 -0.13052282
v 0.05191148 -0.02955705 -0.10777331
v 0.05034284 -0.03112628 -0.10777826
v 0.03301046 -0.03166274 -0.14260605
v 0.03299461 0.03173296 -0.14248276
v 0.05075161 -0.03267029 -0.03628834
v 0.04947076 -0.03304643 -0.03689164
v 0.04656073 -0.03362104 -0.03796969
v 0.04649751 -0.03363013 -0.03798976
v 0.05275707 -0.03185971 -0.03507248
v 0.05540505 -0.03012083 -0.03236336
v 0.05468376 -0.03069950 -0.03330612
v 0.05332212 -0.03156692 -0.03463692
v 0.05726979 -0.02800555 -0.02836517
v 0.05659803 -0.02890022 -0.03017447
v 0.05811377 -0.02653372 -0.02496024
v 0.05842593 -0.02583327 -0.02311095
v 0.05861028 -0.02535783 -0.02175737
v 0.05871454 -0.02507277 -0.02090332
v 0.05879415 -0.02485465 -0.02022600
v 0.05968095 -0.02245464 -0.01098164
v 0.05949767 -0.02294398 -0.01318454
v 0.05939783 -0.02321242 -0.01431452
v 0.06008162 -0.02134668 -0.00605769
v 0.06075289 -0.01928917 0.00169954
v 0.06109913 -0.01813223 0.00554009
v 0.06135722 -0.01722788 0.00835667
v 0.06158037 -0.01641067 0.01076661
v 0.06181348 -0.01547023 0.01279478
v 0.06187269 -0.01521265 0.01321089
v 0.06211809 -0.01405857 0.01460242
v 0.06290642 -0.00903838 0.01667001
v 0.06221793 -0.01354735 0.01503714
v 0.06249237 -0.01199240 0.01594005
v 0.06259150 -0.01136602 0.01617641
v 0.06309260 -0.00727642 0.01681595
v 0.06342132 -0.00148949 0.01706051
v 0.06343579 -0.00004072 0.01707123
v 0.06325974 0.00522899 0.01693989
v 0.06298199 0.00838886 0.01673296
v 0.06271682 0.01052710 0.01640418
v 0.06253042 0.01177199 0.01600848
v 0.06248658 0.01204255 0.01589418
v 0.06225991 0.01333779 0.01514744
v 0.06213963 0.01396302 0.01463116
v 0.06210479 0.01413695 0.01446377
v 0.06188898 0.01515061 0.01320238
v 0.06180296 0.01552451 0.01258005
v 0.06153971 0.01656791 0.01012640
v 0.06141760 0.01701760 0.00879026
v 0.06095560 0.01863321 0.00370872
v 0.06061670 0.01974338 -0.00010566
v 0.05985447 0.02200927 -0.00914892
v 0.05951401 0.02292892 -0.01331585
v 0.05897860 0.02439093 -0.01884160
v 0.05882597 0.02481121 -0.02020463
v 0.05872520 0.02508922 -0.02106139
v 0.05864279 0.02531595 -0.02173557
v 0.05610271 0.02946361 -0.03125141
v 0.05708423 0.02828872 -0.02900220
v 0.05786204 0.02705348 -0.02629479
v 0.05800804 0.02677722 -0.02563463
v 0.05543542 0.03009941 -0.03234954
v 0.05403374 0.03114536 -0.03401220
v 0.05079352 0.03265100 -0.03626024
v 0.05189020 0.03224448 -0.03564789
v 0.05353001 0.03144889 -0.03446965
v 0.04666664 0.03359935 -0.03792091
v 0.04798834 0.03337395 -0.03747049
v 0.04660386 0.03360944 -0.03794080
v 0.04529000 0.03376437 -0.03864679
v 0.04452242 0.03384136 -0.03951421
v 0.04535000 -0.03376379 -0.03859370
v 0.04447149 -0.03385060 -0.03955524
v 0.04209249 -0.03449712 -0.05049091
v 0.04425225 -0.03387139 -0.03996209
v 0.05217033 -0.03089891 -0.03479331
v 0.05311547 -0.03035042 -0.03384281
v 0.05181720 -0.03032584 -0.06024973
v 0.05985344 -0.01784735 0.00561026
v 0.06010012 -0.01692423 0.00850127
v 0.05908003 -0.01696708 -0.02163041
v 0.04453397 0.03273891 -0.04572074
v 0.04291875 0.03280822 -0.05398043
v 0.04688057 0.03232046 -0.06016937
v 0.04273797 0.03281312 -0.05498278
v 0.04267320 0.03281463 -0.05544152
v 0.04535677 0.03258116 -0.06015043
v 0.04200531 0.03282809 -0.05926216
v 0.04186324 0.03283020 -0.06010709
v 0.04361699 0.03275666 -0.06012883
v 0.04259215 0.03281659 -0.05589733
v 0.04540513 0.03269134 -0.03852845
v 0.04455120 0.03275564 -0.03945098
v 0.04660329 0.03255528 -0.03790201
v 0.04781605 0.03235460 -0.03743899
v 0.04854536 0.03219905 -0.03711542
v 0.04838753 0.03193677 -0.06018815
v 0.04948983 0.03155573 -0.06020192
v 0.05184313 0.03106028 -0.03508185
v 0.05033615 0.03168216 -0.03615334
v 0.05055989 0.03108298 -0.06021531
v 0.05003016 0.03133119 -0.06020867
v 0.05107800 0.03080881 -0.06022181
v 0.05158316 0.03050574 -0.06022816
v 0.05344317 0.03013244 -0.03347699
v 0.05223138 0.03005571 -0.06023632
v 0.05253913 0.02981342 -0.06024021
v 0.05675822 0.02630944 -0.02541688
v 0.05593546 0.02767735 -0.02865947
v 0.05470203 0.02715752 -0.06026771
v 0.05575931 0.02791950 -0.02918655
v 0.05283563 0.02955928 -0.06024395
v 0.05319474 0.02921947 -0.06024851
v 0.05479838 0.02901733 -0.03142161
v 0.05353428 0.02885905 -0.06025282
v 0.05385315 0.02847681 -0.06025689
v 0.05400453 0.02827718 -0.06025882
v 0.05415056 0.02807191 -0.06026069
v 0.05448193 0.02755202 -0.06026496
v 0.05733498 0.02499984 -0.02181330
v 0.05787237 0.02287066 -0.02161096
v 0.06086434 0.01312275 0.01516923
v 0.06065144 0.01441481 0.01391261
v 0.05980631 0.01227911 -0.02161901
v 0.06058031 0.01480293 0.01338194
v 0.06035459 0.01590103 0.01127195
v 0.06019975 0.01654562 0.00944683
v 0.06018929 0.01658748 0.00932115
v 0.05992331 0.01760812 0.00617503
v 0.05970523 0.01838790 0.00363905
v 0.05942065 0.01933789 0.00035924
v 0.05861993 0.02166215 -0.00894371
v 0.05853168 0.02188995 -0.00999534
v 0.05815832 0.02283876 -0.01426149
v 0.05753671 0.02446379 -0.02016653
v 0.06057411 0.00159092 -0.02162417
v 0.06156448 0.00666612 0.01689610
v 0.06136045 0.00910383 0.01668118
v 0.06116208 0.01092919 0.01627495
v 0.06103152 0.01195584 0.01587172
v 0.06094597 0.01257165 0.01554087
v 0.06036075 -0.00654589 -0.02162775
v 0.06107965 -0.01115660 0.01393822
v 0.06030626 -0.01609405 0.01094845
v 0.06113089 -0.01114674 0.01621948
v 0.06136525 -0.00901309 0.01669584
v 0.06159406 -0.00619121 0.01692703
v 0.06179893 -0.00003970 0.01712339
v 0.06172260 0.00381389 0.01704895
v 0.06041457 -0.01560847 0.01208607
v 0.06052759 -0.01505273 0.01309822
v 0.06073028 -0.01392879 0.01452800
v 0.06081914 -0.01338117 0.01501678
v 0.06104083 -0.01184933 0.01594602
v 0.05811431 -0.02174695 -0.02163050
v 0.05873789 -0.02133003 -0.00724587
v 0.05948675 -0.01910627 0.00138472
v 0.05734211 -0.02493650 -0.02152499
v 0.05750523 -0.02450551 -0.02018737
v 0.05819007 -0.02273101 -0.01362423
v 0.05713765 -0.02545565 -0.02304147
v 0.05447372 -0.02751157 -0.06028176
v 0.05554541 -0.02818110 -0.02970012
v 0.05472365 -0.02705344 -0.06028472
v 0.05612665 -0.02737840 -0.02793720
v 0.05663906 -0.02651079 -0.02585747
v 0.05224586 -0.03001642 -0.06025495
v 0.05360690 -0.02873618 -0.06027141
v 0.05376420 -0.02989866 -0.03303984
v 0.05391483 -0.02835254 -0.06027510
v 0.05405998 -0.02815408 -0.06027684
v 0.05327507 -0.02910183 -0.06026741
v 0.05291992 -0.02944993 -0.06026312
v 0.05258875 -0.02974187 -0.06025911
v 0.05419938 -0.02795129 -0.06027850
v 0.05510865 -0.02868905 -0.03074333
v 0.04988350 -0.03137536 -0.06022611
v 0.04931793 -0.03160314 -0.06021918
v 0.05029535 -0.03170072 -0.03618058
v 0.04816551 -0.03198561 -0.06020503
v 0.04919347 -0.03204090 -0.03680337
v 0.05137315 -0.03061244 -0.06024432
v 0.05091431 -0.03087709 -0.06023873
v 0.05044117 -0.03112052 -0.06023294
v 0.04559265 -0.03253383 -0.06017334
v 0.04376179 -0.03273321 -0.06015073
v 0.04541094 -0.03269762 -0.03852041
v 0.04689162 -0.03230275 -0.06018935
v 0.04656152 -0.03256759 -0.03793002
v 0.04851655 -0.03221129 -0.03713720
v 0.04192195 -0.03281578 -0.06012798
v 0.04244491 -0.03280928 -0.05704897
v 0.04264587 -0.03280570 -0.05592918
v 0.04279704 -0.03280273 -0.05503204
v 0.04279910 -0.03280286 -0.05494423
v 0.04450890 -0.03276443 -0.03948001
v 0.04449147 -0.03274155 -0.04592861
v 0.04427266 -0.03275264 -0.04702756
v 0.05261530 -0.02971501 -0.06025943
v 0.05314161 -0.02923238 -0.06026580
v 0.05338743 -0.02897733 -0.06026876
v 0.05362162 -0.02871307 -0.06027158
v 0.05393153 -0.02832544 -0.06027530
v 0.05407784 -0.02812476 -0.06027705
v 0.05414883 -0.02802273 -0.06027790
v 0.05421839 -0.02791953 -0.06027872
v 0.05219121 -0.03005292 -0.06025428
v 0.05175118 -0.03036443 -0.06024893
v 0.05129628 -0.03065128 -0.06024338
v 0.05082746 -0.03091506 -0.06023766
v 0.05035685 -0.03115178 -0.06023191
v 0.05011706 -0.03126270 -0.06022897
v 0.04987438 -0.03136884 -0.06022600
v 0.04864405 -0.03182387 -0.06021090
v 0.04739420 -0.03217031 -0.06019554
v 0.04580651 -0.03248082 -0.06017597
v 0.04419821 -0.03267660 -0.06015612
v 0.04194364 -0.03279569 -0.06012824
v 0.04453465 0.03278629 -0.04548839
v 0.05253016 0.02981493 -0.06024009
v 0.05211399 0.03013700 -0.06023484
v 0.05183768 0.03030511 -0.06106440
v 0.04277416 0.03278303 -0.06011838
v 0.04188455 0.03281100 -0.06010736
v 0.04173304 0.03282240 -0.06094752
v 0.04399271 0.03271315 -0.06092643
v 0.05411359 0.02805717 -0.06109640
v 0.04861150 0.03184286 -0.06101118
v 0.04366776 0.03273287 -0.06012947
v 0.05167332 0.03044082 -0.06022929
v 0.05071845 0.03099381 -0.06021730
v 0.05017629 0.03125567 -0.06021051
v 0.04989502 0.03137902 -0.06020699
v 0.04960696 0.03149733 -0.06020338
v 0.04848791 0.03188937 -0.06018941
v 0.04581974 0.03249283 -0.06015619
v 0.05401989 0.02825051 -0.06025902
v 0.05385766 0.02846391 -0.06025694
v 0.05368858 0.02867221 -0.06025479
v 0.05332986 0.02907352 -0.06025022
v 0.05294372 0.02945442 -0.06024532
v 0.05407749 -0.02805936 -0.06112228
v 0.04174223 -0.03281076 -0.06124784
v 0.04395064 -0.03270253 -0.06095639
v 0.04857055 -0.03183809 -0.06104037
v 0.05179869 -0.03030442 -0.06109223
v 0.05123089 0.01798613 -0.13396996
v 0.05321909 0.00527261 -0.13403475
v 0.05340206 0.00003049 -0.13404246
v 0.05620862 0.00636064 -0.09829401
v 0.05503316 0.00002171 -0.11607706
v 0.05685265 0.00001045 -0.09238762
v 0.05552392 0.01267635 -0.09827433
v 0.05403800 0.01260368 -0.11636965
v 0.05250667 0.01157168 -0.13401070
v 0.05184740 0.01522750 -0.13398947
v 0.05284510 0.01880758 -0.11633550
v 0.05439626 0.01892978 -0.09824384
v 0.05282100 -0.01876063 -0.11635166
v 0.05111709 -0.01829107 -0.13398284
v 0.05333618 -0.00304055 -0.13404195
v 0.05314321 -0.00610017 -0.13403760
v 0.05620048 -0.00633354 -0.09829947
v 0.05238005 -0.01220069 -0.13401759
v 0.05550767 -0.01264839 -0.09828522
v 0.05437199 -0.01890040 -0.09826012
v 0.05236433 -0.00304623 -0.14369684
v 0.05218552 0.00599702 -0.14367279
v 0.05140117 -0.01196063 -0.14360085
v 0.04934283 -0.02070933 -0.14338224
v 0.05079789 0.01522963 -0.14352216
f 1 2 3
f 836 2 1
f 836 1 837
f 837 1 833
f 833 925 837
f 925 833 945
f 945 833 835
f 336 835 833
f 336 834 835
f 946 835 834
f 946 834 838
f 946 838 947
f 926 946 947
f 947 948 926
f 947 839 948
f 948 839 832
f 839 828 832
f 838 828 839
f 838 371 828
f 829 832 828
f 829 830 832
f 830 841 832
f 949 832 841
f 949 841 840
f 949 840 943
f 943 840 811
f 943 811 944
f 943 944 926
f 944 950 926
f 926 950 951
f 807 951 950
f 814 951 807
f 807 813 814
f 814 813 815
f 814 815 816
f 816 956 814
f 956 952 814
f 952 956 942
f 942 951 952
f 942 956 957
f 942 957 937
f 937 957 958
f 937 958 919
f 918 937 919
f 918 936 937
f 917 936 918
f 437 917 918
f 436 917 437
f 435 917 436
f 435 916 917
f 916 935 917
f 916 934 935
f 915 934 916
f 915 933 934
f 933 939 934
f 933 938 939
f 913 938 933
f 913 905 938
f 899 905 913
f 913 898 899
f 890 898 913
f 890 888 898
f 892 888 890
f 892 889 888
f 887 888 889
f 889 901 887
f 887 901 697
f 697 901 698
f 698 901 895
f 698 895 692
f 693 698 692
f 692 691 693
f 691 686 693
f 693 686 675
f 675 686 687
f 759 687 686
f 754 687 759
f 754 755 687
f 687 755 756
f 755 628 756
f 756 628 605
f 756 605 689
f 606 689 605
f 606 688 689
f 607 688 606
f 607 673 688
f 608 673 607
f 608 674 673
f 673 674 675
f 675 674 676
f 675 676 677
f 677 678 675
f 603 678 677
f 679 678 603
f 603 602 679
f 602 603 162
f 162 603 604
f 162 604 163
f 162 163 164
f 158 164 163
f 158 163 160
f 607 160 163
f 159 158 160
f 159 160 161
f 161 170 159
f 159 170 169
f 169 170 171
f 171 192 169
f 171 190 192
f 196 190 171
f 196 188 190
f 188 189 190
f 188 187 189
f 186 187 188
f 195 186 188
f 194 186 195
f 194 197 186
f 186 197 198
f 197 203 198
f 198 203 204
f 198 204 199
f 199 204 205
f 199 205 200
f 200 205 206
f 230 206 205
f 230 235 206
f 234 206 235
f 234 740 206
f 233 740 234
f 233 741 740
f 739 740 741
f 741 747 739
f 739 747 746
f 739 746 738
f 738 746 744
f 738 744 734
f 734 744 743
f 743 744 745
f 745 1354 743
f 743 1354 1352
f 743 1352 748
f 1352 652 748
f 654 748 652
f 652 653 654
f 654 653 655
f 654 655 656
f 654 656 734
f 656 657 734
f 656 651 657
f 657 651 145
f 146 145 651
f 651 152 146
f 651 150 152
f 137 150 651
f 137 147 150
f 150 147 151
f 147 148 151
f 151 148 168
f 149 168 148
f 149 148 142
f 142 148 143
f 135 142 143
f 135 143 136
f 119 135 136
f 139 119 136
f 138 119 139
f 138 120 119
f 137 120 138
f 119 120 112
f 658 112 120
f 120 659 658
f 651 659 120
f 651 661 659
f 655 661 651
f 655 666 661
f 666 667 661
f 1356 667 666
f 1356 666 1353
f 1353 1340 1356
f 1356 1340 1341
f 1356 1341 1332
f 1339 1332 1341
f 1339 1342 1332
f 1332 1342 881
f 885 1332 881
f 885 864 1332
f 885 863 864
f 864 863 672
f 864 672 670
f 672 91 670
f 670 91 93
f 670 93 78
f 93 94 78
f 82 78 94
f 82 94 72
f 72 94 92
f 72 92 88
f 88 92 79
f 88 79 84
f 84 79 67
f 79 68 67
f 59 67 68
f 59 68 61
f 61 50 59
f 59 50 51
f 50 40 51
f 51 40 41
f 40 29 41
f 29 28 41
f 27 28 29
f 27 726 28
f 27 733 726
f 30 733 27
f 30 732 733
f 30 703 732
f 26 703 30
f 29 26 30
f 29 25 26
f 25 2 26
f 25 4 2
f 24 4 25
f 24 5 4
f 5 6 4
f 4 6 7
f 4 7 3
f 7 336 3
f 7 338 336
f 336 338 339
f 336 339 340
f 856 340 339
f 856 372 340
f 856 374 372
f 855 374 856
f 855 377 374
f 854 377 855
f 853 854 855
f 847 854 853
f 853 845 847
f 845 846 847
f 847 846 370
f 370 846 859
f 370 859 858
f 845 858 859
f 851 858 845
f 851 857 858
f 849 857 851
f 366 857 849
f 366 849 364
f 364 849 848
f 842 848 849
f 844 848 842
f 842 843 844
f 842 872 843
f 842 871 872
f 850 871 842
f 850 868 871
f 862 871 868
f 876 871 862
f 876 869 871
f 874 869 876
f 874 1313 869
f 1313 870 869
f 1313 872 870
f 1311 872 1313
f 1313 1320 1311
f 1311 1320 1321
f 1320 1169 1321
f 1321 1169 1172
f 1321 1172 1314
f 1314 1172 1175
f 1314 1175 1308
f 1308 1175 1174
f 1308 1174 1309
f 1320 1182 1169
f 1183 1182 1320
f 1320 1319 1183
f 1183 1319 1318
f 1183 1318 1187
f 1187 1318 1317
f 1187 1317 1186
f 1186 1317 1316
f 1313 1316 1317
f 1307 1316 1313
f 1307 1315 1316
f 1306 1315 1307
f 1305 1306 1307
f 1307 1326 1305
f 1307 1325 1326
f 1325 1198 1326
f 1325 1200 1198
f 1324 1200 1325
f 1324 1201 1200
f 1323 1201 1324
f 1323 1202 1201
f 1322 1202 1323
f 1322 1203 1202
f 1204 1203 1322
f 1326 1198 1197
f 1326 1197 1305
f 1305 1197 1192
f 1305 1192 1306
f 1306 1192 1191
f 1306 1191 1189
f 1189 1315 1306
f 1188 1315 1189
f 1188 1316 1315
f 1312 1325 1307
f 1312 1324 1325
f 1323 1324 1312
f 1312 1322 1323
f 1312 1204 1322
f 1195 1204 1312
f 383 1195 1312
f 1312 384 383
f 1312 879 384
f 877 879 1312
f 884 877 1312
f 883 877 884
f 884 873 883
f 883 873 875
f 873 874 875
f 873 1307 874
f 883 875 882
f 882 878 883
f 882 880 878
f 881 880 882
f 881 1343 880
f 394 880 1343
f 384 880 394
f 394 382 384
f 393 382 394
f 393 386 382
f 385 382 386
f 380 382 385
f 1209 380 385
f 1206 380 1209
f 1209 1219 1206
f 1209 1218 1219
f 1217 1218 1209
f 1209 1216 1217
f 1209 1215 1216
f 1214 1215 1209
f 1209 1213 1214
f 1209 1212 1213
f 1211 1212 1209
f 1209 1210 1211
f 1209 1208 1210
f 1207 1208 1209
f 1209 1226 1207
f 1209 1225 1226
f 1221 1225 1209
f 1221 1224 1225
f 1223 1224 1221
f 1221 1222 1223
f 1221 1234 1222
f 1221 1233 1234
f 1227 1233 1221
f 1227 1232 1233
f 1228 1232 1227
f 1228 1231 1232
f 1230 1231 1228
f 1228 1239 1230
f 1228 1238 1239
f 1237 1238 1228
f 1228 1236 1237
f 1228 1235 1236
f 1229 1235 1228
f 1228 1165 1229
f 1228 1166 1165
f 1164 1165 1166
f 1166 1242 1164
f 1166 1241 1242
f 1240 1241 1166
f 1240 1245 1241
f 1240 1244 1245
f 1243 1244 1240
f 1240 1246 1243
f 1240 501 1246
f 501 499 1246
f 499 1251 1246
f 499 1250 1251
f 1249 1250 499
f 499 498 1249
f 1249 498 1327
f 1249 1327 1291
f 1291 1327 1290
f 1289 1290 1327
f 1327 1288 1289
f 1327 1287 1288
f 1286 1287 1327
f 1285 1286 1327
f 1285 1327 1284
f 1284 1327 1331
f 1284 1331 1292
f 1331 1293 1292
f 1331 1294 1293
f 1295 1294 1331
f 1331 1296 1295
f 1331 1297 1296
f 1330 1297 1331
f 1012 1330 1331
f 1014 1330 1012
f 1015 1330 1014
f 1015 1329 1330
f 996 1329 1015
f 1015 997 996
f 995 996 997
f 997 1000 995
f 1000 1022 995
f 995 1022 1023
f 995 1023 1328
f 1329 995 1328
f 1329 1328 1303
f 1328 474 1303
f 1303 474 1276
f 1276 474 1277
f 1271 1276 1277
f 1277 1278 1271
f 1277 475 1278
f 1278 475 1279
f 1279 475 476
f 1279 476 1280
f 1280 476 599
f 467 599 476
f 467 598 599
f 595 598 467
f 595 597 598
f 1283 598 597
f 1283 597 1282
f 1282 1271 1283
f 1283 1271 1280
f 1282 1272 1271
f 1281 1272 1282
f 1270 1271 1272
f 1270 1272 1273
f 1273 1272 1274
f 1273 1274 1265
f 1265 1274 1275
f 1265 1275 1266
f 1264 1265 1266
f 1264 1263 1265
f 1262 1263 1264
f 1264 1269 1262
f 1264 1268 1269
f 1161 1268 1264
f 1161 1267 1268
f 1163 1267 1161
f 1161 1162 1163
f 1163 1162 1252
f 1162 1259 1252
f 1162 1258 1259
f 1254 1258 1162
f 1254 1257 1258
f 1253 1257 1254
f 1253 1254 1255
f 1255 1254 1256
f 1261 1256 1254
f 1248 1256 1261
f 1248 1260 1256
f 1247 1260 1248
f 1247 1248 1249
f 1281 1282 597
f 594 1281 597
f 594 597 596
f 593 1281 594
f 1157 1281 593
f 593 1158 1157
f 593 1160 1158
f 1158 1160 541
f 541 1160 592
f 541 592 542
f 541 542 543
f 543 552 541
f 543 551 552
f 551 1157 552
f 550 1157 551
f 550 1093 1157
f 558 1093 550
f 558 1092 1093
f 557 1092 558
f 543 557 558
f 553 557 543
f 574 553 543
f 573 553 574
f 572 553 573
f 572 560 553
f 571 560 572
f 572 1076 571
f 571 1076 570
f 570 1076 1077
f 1086 1077 1076
f 1065 1077 1086
f 1086 1078 1065
f 1086 1081 1078
f 1087 1081 1086
f 1087 1084 1081
f 1081 1084 1066
f 1066 1080 1081
f 1081 1080 1082
f 1082 1080 784
f 784 1080 1079
f 784 1079 783
f 783 1079 1071
f 1071 1079 1066
f 1066 1070 1071
f 782 1071 1070
f 782 1070 781
f 781 775 782
f 775 781 776
f 775 776 299
f 299 776 777
f 299 777 296
f 777 780 296
f 296 780 297
f 307 297 780
f 780 779 307
f 307 779 805
f 779 1068 805
f 779 1069 1068
f 1068 1069 1066
f 1066 1067 1068
f 1067 1073 1068
f 1067 1072 1073
f 977 1073 1072
f 806 1073 977
f 805 1073 806
f 307 806 977
f 307 977 317
f 316 307 317
f 316 317 319
f 319 322 316
f 316 322 323
f 316 323 315
f 315 323 324
f 324 314 315
f 314 308 315
f 314 306 308
f 306 300 308
f 308 300 301
f 308 301 298
f 301 292 298
f 298 292 293
f 292 291 293
f 290 291 292
f 290 288 291
f 288 279 291
f 291 279 280
f 279 271 280
f 272 271 279
f 279 273 272
f 259 272 273
f 259 273 260
f 259 260 258
f 258 260 261
f 260 274 261
f 261 274 275
f 261 275 257
f 257 275 276
f 281 276 275
f 283 276 281
f 283 278 276
f 278 277 276
f 255 276 277
f 255 277 253
f 1004 253 277
f 277 993 1004
f 1004 993 1017
f 1004 1017 1005
f 1005 1006 1004
f 1004 1006 1007
f 1007 1006 1344
f 1344 1006 1011
f 1344 1011 1351
f 1351 1350 1344
f 1344 1350 1349
f 1344 1349 1345
f 1345 1349 1355
f 1355 1008 1345
f 1345 1008 1007
f 749 1007 1008
f 749 1008 736
f 749 736 735
f 735 736 737
f 737 736 1355
f 1355 1354 737
f 737 747 735
f 243 735 747
f 243 747 231
f 231 242 243
f 242 251 243
f 749 243 251
f 251 252 749
f 252 251 250
f 252 250 254
f 254 250 270
f 254 270 256
f 255 254 256
f 255 256 257
f 257 256 258
f 256 269 258
f 258 269 268
f 249 268 269
f 249 269 248
f 248 238 249
f 249 238 237
f 249 237 247
f 237 238 208
f 208 238 239
f 208 239 219
f 219 239 225
f 239 240 225
f 225 240 241
f 250 241 240
f 250 240 248
f 225 241 231
f 225 231 226
f 226 231 232
f 226 232 227
f 221 226 227
f 221 227 222
f 222 227 228
f 222 228 223
f 216 222 223
f 216 223 218
f 218 223 224
f 218 224 203
f 202 218 203
f 217 218 202
f 202 644 217
f 202 643 644
f 632 643 202
f 202 194 632
f 632 194 633
f 633 762 632
f 632 762 761
f 759 761 762
f 762 763 759
f 759 763 764
f 759 764 757
f 757 758 759
f 630 758 757
f 630 757 631
f 196 630 631
f 196 631 195
f 634 195 631
f 631 764 634
f 633 195 634
f 634 763 633
f 629 758 630
f 171 629 630
f 629 760 758
f 754 760 629
f 628 754 629
f 170 628 629
f 759 758 760
f 631 757 764
f 634 764 763
f 759 751 761
f 643 761 751
f 752 751 759
f 759 766 752
f 759 772 766
f 772 773 766
f 772 771 773
f 770 771 772
f 691 770 772
f 690 770 691
f 690 896 770
f 770 896 1033
f 770 1033 1034
f 1034 1033 1031
f 1032 1031 1033
f 513 1031 1032
f 1032 540 513
f 540 514 513
f 512 513 514
f 512 1029 513
f 1040 1029 512
f 569 1040 512
f 512 515 569
f 569 515 566
f 569 566 570
f 570 566 563
f 565 563 566
f 564 563 565
f 562 563 564
f 562 560 563
f 561 560 562
f 559 560 561
f 561 1096 559
f 559 1096 1097
f 559 1097 1094
f 559 1094 554
f 554 553 559
f 553 554 555
f 554 1090 555
f 555 1090 556
f 556 1090 1091
f 1090 1264 1091
f 1094 1264 1090
f 1094 1161 1264
f 1162 1161 1094
f 1091 1264 1266
f 1266 1275 1091
f 1091 1275 1274
f 1091 1274 1092
f 556 1091 557
f 555 556 553
f 554 1094 1090
f 1097 1162 1094
f 1097 1254 1162
f 1096 1254 1097
f 1095 1254 1096
f 1095 1261 1254
f 1099 1261 1095
f 1099 1248 1261
f 1250 1248 1099
f 1098 1250 1099
f 1098 1099 564
f 1098 1251 1250
f 1100 1251 1098
f 1098 567 1100
f 1100 567 568
f 1100 568 1101
f 1101 568 524
f 568 515 524
f 516 524 515
f 515 511 516
f 511 533 516
f 516 533 534
f 516 534 519
f 519 534 1109
f 1108 519 1109
f 1108 517 519
f 1105 517 1108
f 1241 1105 1108
f 1245 1105 1241
f 1106 1105 1245
f 1105 1106 520
f 520 1106 1107
f 520 1107 521
f 516 520 521
f 516 521 522
f 521 1104 522
f 1104 523 522
f 1103 523 1104
f 1104 1244 1103
f 1107 1244 1104
f 1107 1245 1244
f 1103 1244 1243
f 1103 1243 1102
f 1102 1243 1101
f 1101 1243 1246
f 1102 524 1103
f 1103 524 523
f 522 523 516
f 518 520 516
f 517 518 516
f 521 1107 1104
f 520 518 1105
f 1106 1245 1107
f 1241 1108 1242
f 1105 518 517
f 1242 1108 1109
f 1242 1109 1110
f 1242 1110 1164
f 1164 1110 1111
f 1164 1111 1165
f 1165 1111 1229
f 1112 1229 1111
f 1111 525 1112
f 1112 525 529
f 511 529 525
f 511 528 529
f 527 528 511
f 528 527 1115
f 1115 527 531
f 1115 531 1117
f 1117 1238 1115
f 1115 1238 1237
f 1115 1237 1114
f 1114 1237 1236
f 1114 1236 1113
f 1113 1236 1235
f 1113 1235 1112
f 1113 528 1114
f 1117 1239 1238
f 1118 1239 1117
f 1118 1230 1239
f 1119 1230 1118
f 1119 1231 1230
f 1116 1231 1119
f 1119 510 1116
f 510 509 1116
f 509 510 511
f 510 530 511
f 1118 530 510
f 511 530 531
f 537 509 511
f 537 511 539
f 396 537 539
f 396 539 397
f 395 396 397
f 397 422 395
f 397 902 422
f 422 902 903
f 902 893 903
f 903 893 895
f 903 895 889
f 897 903 889
f 893 894 895
f 894 893 1032
f 895 894 896
f 1032 893 902
f 539 1032 902
f 422 903 897
f 422 897 423
f 423 897 892
f 423 892 424
f 401 423 424
f 401 424 413
f 413 424 425
f 424 891 425
f 441 425 891
f 411 425 441
f 438 411 441
f 442 411 438
f 442 443 411
f 442 1145 443
f 443 1145 1146
f 1193 1146 1145
f 1193 1145 1194
f 1194 1145 1144
f 1194 1144 1196
f 1196 1144 1143
f 1143 1144 442
f 442 447 1143
f 1143 447 446
f 1143 446 1147
f 1199 1143 1147
f 1199 1147 1190
f 1190 1147 1148
f 450 1148 1147
f 449 1148 450
f 449 1151 1148
f 449 1150 1151
f 1150 1184 1151
f 1150 1185 1184
f 1149 1185 1150
f 448 1149 1150
f 451 1149 448
f 445 451 448
f 445 428 451
f 428 457 451
f 428 456 457
f 427 456 428
f 427 455 456
f 1154 456 455
f 1152 456 1154
f 456 1152 1153
f 1152 1180 1153
f 1152 1179 1180
f 1180 1181 1153
f 1153 1181 1185
f 1154 1179 1152
f 1155 1179 1154
f 1155 1177 1179
f 584 1177 1155
f 584 1178 1177
f 584 583 1178
f 1178 583 586
f 583 582 586
f 585 586 582
f 1304 586 585
f 585 1167 1304
f 1304 1167 1178
f 585 1168 1167
f 1167 1168 1169
f 1168 1170 1169
f 1169 1170 1171
f 359 1171 1170
f 358 1171 359
f 357 358 359
f 357 356 358
f 350 356 357
f 350 355 356
f 1176 356 355
f 1176 355 1173
f 1173 355 352
f 1173 352 1174
f 1173 1174 1175
f 1174 352 1310
f 352 844 1310
f 844 352 354
f 360 844 354
f 354 353 360
f 360 353 361
f 360 361 362
f 362 361 363
f 362 363 364
f 364 363 365
f 362 844 360
f 352 353 354
f 352 351 353
f 350 351 352
f 1174 1310 1309
f 1308 1309 1310
f 1310 1314 1308
f 1310 1311 1314
f 843 1311 1310
f 1175 1176 1173
f 1175 1171 1176
f 1172 1171 1175
f 352 355 350
f 356 1176 358
f 359 581 357
f 359 582 581
f 358 1176 1171
f 1169 1171 1172
f 359 1170 1168
f 1180 1167 1169
f 1179 1167 1180
f 1179 1178 1167
f 1177 1178 1179
f 1180 1169 1181
f 1181 1169 1182
f 1181 1182 1183
f 1187 1181 1183
f 1186 1181 1187
f 1186 1185 1181
f 1184 1185 1186
f 1186 1188 1184
f 1184 1188 1189
f 1184 1189 1190
f 1190 1189 1191
f 1190 1191 1192
f 1192 1197 1190
f 1190 1197 1198
f 1190 1198 1199
f 1199 1198 1200
f 1199 1200 1201
f 1201 1202 1199
f 1199 1202 1203
f 1199 1203 1196
f 1196 1203 1204
f 359 1168 585
f 585 582 359
f 1178 586 1304
f 1155 1156 584
f 1155 454 1156
f 1156 454 453
f 427 453 454
f 427 452 453
f 577 453 452
f 577 452 578
f 577 578 575
f 575 578 579
f 575 579 348
f 348 579 580
f 579 433 580
f 580 433 432
f 429 432 433
f 429 433 426
f 426 433 434
f 426 434 427
f 904 429 426
f 953 429 904
f 430 429 953
f 953 345 430
f 430 345 344
f 347 430 344
f 347 431 430
f 349 431 347
f 343 349 347
f 343 347 341
f 341 347 346
f 341 342 343
f 348 349 343
f 349 432 431
f 344 346 347
f 344 345 346
f 346 345 824
f 824 345 825
f 955 825 345
f 954 825 955
f 954 823 825
f 826 825 823
f 826 823 827
f 827 823 822
f 821 822 823
f 821 819 822
f 820 819 821
f 820 821 959
f 820 959 958
f 820 958 818
f 818 819 820
f 818 817 819
f 816 817 818
f 818 957 816
f 959 821 823
f 959 823 954
f 919 959 954
f 919 954 904
f 904 954 955
f 824 825 826
f 955 345 953
f 429 430 431
f 904 955 953
f 426 919 904
f 431 432 429
f 580 432 349
f 579 434 433
f 348 580 349
f 578 434 579
f 575 576 577
f 584 577 576
f 578 452 434
f 434 452 427
f 1156 453 577
f 1155 455 454
f 584 1156 577
f 1154 455 1155
f 454 455 427
f 426 427 428
f 428 437 426
f 456 1153 457
f 457 1153 1149
f 435 428 445
f 435 445 440
f 440 445 446
f 440 446 438
f 438 439 440
f 445 450 446
f 440 439 435
f 448 449 445
f 457 1149 451
f 1153 1185 1149
f 1151 1184 1190
f 448 1150 449
f 445 449 450
f 1190 1148 1151
f 450 1147 446
f 438 446 447
f 1196 1143 1199
f 1193 1142 1146
f 1205 1142 1193
f 1205 1141 1142
f 1140 1141 1205
f 1205 1220 1140
f 1139 1140 1220
f 1139 415 1140
f 1139 416 415
f 1138 416 1139
f 1138 417 416
f 413 416 417
f 413 417 418
f 418 419 413
f 413 419 420
f 1135 420 419
f 1134 420 1135
f 1134 421 420
f 1133 421 1134
f 1212 1133 1134
f 1212 1132 1133
f 1211 1132 1212
f 1211 1131 1132
f 1131 406 1132
f 1132 406 405
f 405 406 401
f 401 406 407
f 401 407 408
f 408 409 401
f 401 409 410
f 401 410 402
f 401 402 395
f 395 402 403
f 1125 403 402
f 1125 402 1126
f 1224 1125 1126
f 1224 1124 1125
f 1223 1124 1224
f 1223 1123 1124
f 1123 398 1124
f 1123 399 398
f 1122 399 1123
f 1122 400 399
f 396 399 400
f 396 400 535
f 1121 535 400
f 1120 535 1121
f 1121 1232 1120
f 1121 1233 1232
f 1122 1233 1121
f 1120 1232 1116
f 1116 536 1120
f 1116 538 536
f 537 536 538
f 535 536 537
f 1120 536 535
f 1121 400 1122
f 1123 1233 1122
f 1123 1234 1233
f 1222 1234 1123
f 396 398 399
f 1124 398 403
f 1222 1123 1223
f 1224 1126 1225
f 1225 1126 1127
f 1225 1127 1226
f 1226 1127 1128
f 1127 410 1128
f 1226 1128 1207
f 1207 1128 1129
f 1207 1129 1208
f 1208 1129 1130
f 1208 1130 1210
f 1210 1130 1131
f 1129 407 1130
f 1128 409 1129
f 1126 402 1127
f 1124 403 1125
f 395 403 398
f 1127 402 410
f 1128 410 409
f 409 408 1129
f 1129 408 407
f 1130 407 406
f 401 404 405
f 401 421 404
f 405 404 1133
f 1130 406 1131
f 1210 1131 1211
f 1132 405 1133
f 1134 1213 1212
f 1134 1214 1213
f 1133 404 421
f 401 420 421
f 1135 1214 1134
f 1135 1215 1214
f 1216 1215 1135
f 1136 1216 1135
f 1136 1217 1216
f 1137 1217 1136
f 1137 1218 1217
f 1219 1218 1137
f 1138 1219 1137
f 1138 1220 1219
f 1136 419 1137
f 1135 419 1136
f 419 418 1137
f 1137 418 417
f 1137 417 1138
f 415 416 413
f 413 414 415
f 1141 415 414
f 413 412 414
f 1142 414 412
f 444 1142 412
f 411 444 412
f 411 412 413
f 1139 1220 1138
f 1140 415 1141
f 1141 414 1142
f 444 1146 1142
f 443 1146 444
f 442 1144 1145
f 411 443 444
f 438 447 442
f 438 441 439
f 441 915 439
f 441 914 915
f 891 914 441
f 914 891 890
f 413 425 411
f 413 420 401
f 395 423 401
f 424 892 891
f 395 422 423
f 395 398 396
f 539 902 397
f 535 537 396
f 539 511 514
f 538 509 537
f 509 538 1116
f 1116 1232 1231
f 1118 510 1119
f 1117 530 1118
f 1117 531 530
f 1114 528 1115
f 511 531 527
f 1113 529 528
f 525 526 511
f 526 532 511
f 532 526 1111
f 1112 529 1113
f 1111 526 525
f 1112 1235 1229
f 1110 532 1111
f 1110 533 532
f 1109 533 1110
f 517 516 519
f 1109 534 533
f 511 532 533
f 515 514 511
f 516 523 524
f 1101 524 1102
f 1101 1246 1100
f 567 566 568
f 1098 565 567
f 1100 1246 1251
f 564 1099 1095
f 561 1095 1096
f 562 1095 561
f 564 1095 562
f 564 565 1098
f 565 566 567
f 568 566 515
f 569 1077 1040
f 1037 1029 1040
f 1037 1040 1065
f 1038 1037 1065
f 1065 1064 1038
f 1038 1064 1039
f 1036 1039 1064
f 788 1036 1064
f 788 1064 790
f 790 1064 1078
f 790 1078 791
f 1078 1083 791
f 1078 1082 1083
f 785 1083 1082
f 642 1083 785
f 785 271 642
f 264 642 271
f 264 641 642
f 791 642 641
f 641 792 791
f 640 792 641
f 640 793 792
f 639 793 640
f 639 640 267
f 265 639 267
f 265 638 639
f 638 789 639
f 638 786 789
f 786 788 789
f 786 787 788
f 788 787 769
f 769 787 767
f 787 795 767
f 637 795 787
f 638 637 787
f 245 637 638
f 245 638 246
f 245 246 247
f 246 266 247
f 247 266 268
f 262 268 266
f 262 266 263
f 263 266 267
f 263 267 264
f 259 263 264
f 259 262 263
f 246 265 266
f 247 244 245
f 247 237 244
f 237 236 244
f 236 636 244
f 236 635 636
f 635 796 636
f 636 796 795
f 650 796 635
f 650 797 796
f 649 797 650
f 649 798 797
f 794 797 798
f 794 798 799
f 799 802 794
f 648 802 799
f 647 802 648
f 212 647 648
f 212 648 211
f 211 648 649
f 211 649 209
f 209 210 211
f 209 208 210
f 207 208 209
f 207 236 208
f 209 649 207
f 211 210 212
f 212 210 213
f 210 220 213
f 210 219 220
f 213 220 221
f 213 221 215
f 213 215 214
f 214 215 216
f 214 216 217
f 217 645 214
f 645 646 214
f 214 646 647
f 646 801 647
f 801 804 647
f 753 804 801
f 800 753 801
f 751 753 800
f 751 800 645
f 645 644 751
f 645 800 801
f 753 803 804
f 794 803 753
f 765 794 753
f 752 765 753
f 804 803 647
f 645 801 646
f 212 213 214
f 214 647 212
f 647 803 802
f 648 799 649
f 794 802 803
f 765 797 794
f 799 798 649
f 207 649 650
f 765 796 797
f 767 796 765
f 765 766 767
f 767 766 768
f 766 774 768
f 774 1035 768
f 773 1035 774
f 773 1034 1035
f 768 1035 1036
f 768 1036 769
f 207 650 635
f 207 635 236
f 244 636 637
f 244 637 245
f 636 795 637
f 767 795 796
f 767 768 769
f 788 793 789
f 787 786 638
f 246 638 265
f 639 789 793
f 788 792 793
f 267 640 641
f 267 641 264
f 1083 642 791
f 790 791 792
f 790 792 788
f 769 1036 788
f 1035 1039 1036
f 1035 1038 1039
f 1037 1038 1035
f 1035 1030 1037
f 1035 1031 1030
f 1029 1030 1031
f 1037 1030 1029
f 512 514 515
f 539 514 540
f 540 1032 539
f 513 1029 1031
f 1032 1033 894
f 1034 1031 1035
f 894 1033 896
f 692 896 690
f 1034 771 770
f 771 1034 773
f 766 773 774
f 691 772 759
f 752 766 765
f 751 752 753
f 633 763 762
f 632 761 643
f 643 751 644
f 217 644 645
f 223 229 224
f 224 229 230
f 224 230 204
f 217 216 218
f 215 222 216
f 223 228 229
f 228 234 229
f 227 233 228
f 215 221 222
f 220 226 221
f 227 232 233
f 231 741 232
f 220 225 226
f 248 240 239
f 219 225 220
f 208 219 210
f 208 236 237
f 248 239 238
f 248 269 270
f 247 268 249
f 258 268 262
f 256 270 269
f 248 270 250
f 250 251 241
f 749 252 254
f 749 254 750
f 749 750 1004
f 750 254 253
f 241 251 242
f 231 241 242
f 749 735 243
f 1355 736 1008
f 1355 1349 1354
f 1347 1354 1349
f 1348 1347 1349
f 1346 1347 1348
f 1346 1352 1347
f 1352 1346 1334
f 1346 1336 1334
f 1346 1337 1336
f 1335 1336 1337
f 392 1335 1337
f 392 1337 391
f 506 391 1337
f 506 1337 507
f 1348 507 1337
f 1350 507 1348
f 1350 508 507
f 495 507 508
f 495 508 505
f 505 500 495
f 504 500 505
f 504 498 500
f 503 498 504
f 504 1009 503
f 504 1010 1009
f 1351 1010 504
f 990 1009 1010
f 990 1010 1005
f 991 990 1005
f 990 991 992
f 991 1019 992
f 1019 1327 992
f 991 1018 1019
f 1018 1012 1019
f 1018 1013 1012
f 1017 1013 1018
f 1017 997 1013
f 1014 1013 997
f 1016 997 1017
f 1016 998 997
f 1001 998 1016
f 1001 1016 1002
f 305 1001 1002
f 310 1001 305
f 310 994 1001
f 310 312 994
f 994 312 318
f 318 312 311
f 311 327 318
f 318 327 328
f 327 1088 328
f 328 1088 468
f 469 468 1088
f 1088 321 469
f 321 981 469
f 320 981 321
f 320 983 981
f 1042 981 983
f 1041 981 1042
f 1041 980 981
f 980 979 981
f 981 979 470
f 978 979 980
f 989 978 980
f 1060 989 980
f 1059 989 1060
f 1043 1059 1060
f 1058 1059 1043
f 1058 988 1059
f 1058 986 988
f 984 986 1058
f 1058 1057 984
f 984 1057 1056
f 1043 1056 1057
f 1050 1056 1043
f 1049 1050 1043
f 1043 1055 1049
f 966 1049 1055
f 966 1055 968
f 967 966 968
f 967 968 961
f 961 968 969
f 968 1054 969
f 969 1054 962
f 962 1054 1052
f 962 1052 970
f 970 1052 1051
f 1045 1051 1052
f 1045 1052 1053
f 1045 1053 1062
f 1045 1062 1047
f 1062 1061 1047
f 1047 1061 548
f 1061 574 548
f 1061 1074 574
f 1063 1074 1061
f 1063 1075 1074
f 1087 1075 1063
f 1087 1076 1075
f 573 1074 1075
f 1047 548 546
f 547 546 548
f 547 548 549
f 549 1159 547
f 544 547 1159
f 588 544 1159
f 458 544 588
f 458 588 587
f 587 459 458
f 458 459 460
f 460 459 461
f 460 461 462
f 462 461 463
f 462 463 464
f 464 1048 462
f 464 976 1048
f 1048 976 975
f 463 975 976
f 974 975 463
f 974 973 975
f 972 973 974
f 972 971 973
f 960 971 972
f 960 970 971
f 1044 973 971
f 1044 971 1051
f 1046 973 1044
f 1044 1045 1046
f 1046 975 973
f 472 974 463
f 472 463 466
f 463 465 466
f 463 461 465
f 465 461 459
f 465 459 467
f 467 459 595
f 595 459 587
f 595 587 596
f 596 587 594
f 590 594 587
f 593 594 590
f 483 974 472
f 482 974 483
f 482 972 974
f 480 972 482
f 480 960 972
f 478 960 480
f 478 491 960
f 960 491 490
f 960 490 961
f 961 490 488
f 961 488 967
f 967 488 487
f 967 487 486
f 486 965 967
f 494 965 486
f 494 985 965
f 493 985 494
f 493 987 985
f 492 987 493
f 492 978 987
f 979 978 492
f 492 470 979
f 1048 975 1046
f 1046 1047 1048
f 462 1048 545
f 1048 546 545
f 544 545 546
f 544 462 545
f 463 976 464
f 544 460 462
f 587 588 589
f 587 589 590
f 590 589 591
f 591 589 1159
f 590 591 592
f 590 592 593
f 458 460 544
f 588 1159 589
f 549 591 1159
f 542 591 549
f 548 542 549
f 544 546 547
f 1048 1047 546
f 1061 1062 1063
f 1062 1085 1063
f 1063 1085 1084
f 1062 1043 1085
f 1067 1085 1043
f 1067 1043 1042
f 1046 1045 1047
f 1053 1043 1062
f 1053 1054 1043
f 1044 1051 1045
f 970 1051 971
f 962 970 960
f 960 961 962
f 1053 1052 1054
f 961 969 962
f 965 966 967
f 965 964 966
f 963 964 965
f 963 1056 964
f 963 965 984
f 984 965 985
f 964 1050 966
f 968 1055 1054
f 1043 1054 1055
f 1050 1049 966
f 964 1056 1050
f 984 1056 963
f 984 985 986
f 986 985 987
f 986 987 988
f 988 987 978
f 1043 1057 1058
f 1043 1060 1041
f 1059 988 989
f 988 978 989
f 1060 980 1041
f 1041 1042 1043
f 982 1042 983
f 317 982 983
f 982 1072 1042
f 317 983 320
f 319 320 321
f 981 470 469
f 1088 319 321
f 468 469 470
f 470 492 468
f 468 492 493
f 468 493 485
f 1024 468 485
f 1024 485 1025
f 1025 485 484
f 1025 484 489
f 489 1027 1025
f 1026 1025 1027
f 1026 1027 1020
f 1020 1027 1028
f 1020 1028 1021
f 1028 481 1021
f 1021 481 471
f 1021 471 1022
f 1022 471 473
f 471 472 473
f 471 483 472
f 471 482 483
f 473 472 466
f 473 466 474
f 474 466 465
f 474 465 475
f 475 465 467
f 481 482 471
f 481 480 482
f 479 480 481
f 479 478 480
f 477 478 479
f 477 491 478
f 477 490 491
f 489 490 477
f 489 488 490
f 1027 477 479
f 1028 479 481
f 1020 1021 1000
f 1000 999 1020
f 1020 999 998
f 1027 479 1028
f 1020 998 1026
f 1026 998 994
f 1026 994 1024
f 489 477 1027
f 484 488 489
f 484 487 488
f 486 487 484
f 484 485 486
f 485 494 486
f 1024 1025 1026
f 485 493 494
f 328 468 1024
f 1088 327 326
f 326 325 1088
f 1088 325 324
f 325 311 324
f 311 313 324
f 311 309 313
f 313 309 306
f 303 306 309
f 302 306 303
f 284 302 303
f 284 303 285
f 284 285 282
f 285 1003 282
f 1003 993 282
f 282 993 278
f 285 1002 1003
f 1002 1017 1003
f 284 282 286
f 284 286 300
f 300 286 289
f 286 288 289
f 286 287 288
f 287 281 288
f 300 289 290
f 282 287 286
f 282 283 287
f 285 303 304
f 285 304 305
f 300 302 284
f 303 309 304
f 304 309 310
f 311 310 309
f 325 326 311
f 1024 318 328
f 311 326 327
f 1024 994 318
f 311 312 310
f 304 310 305
f 305 1002 285
f 1001 994 998
f 998 999 997
f 1002 1016 1017
f 1005 1018 991
f 1005 1010 1011
f 992 1009 990
f 992 503 1009
f 992 498 503
f 504 505 1351
f 500 501 495
f 495 501 502
f 495 502 496
f 1227 496 502
f 497 496 1227
f 389 496 497
f 389 497 390
f 388 389 390
f 390 1221 388
f 388 386 389
f 392 389 386
f 387 386 388
f 388 1209 387
f 497 1227 390
f 1227 502 1166
f 495 496 389
f 1166 502 501
f 389 507 495
f 505 508 1350
f 389 506 507
f 391 506 389
f 391 389 392
f 393 1335 392
f 393 1338 1335
f 1335 1338 1333
f 1333 1334 1335
f 1334 1333 1353
f 1333 1338 1339
f 1333 1339 1340
f 1335 1334 1336
f 1352 1334 1353
f 1353 653 1352
f 1348 1337 1346
f 1348 1349 1350
f 1351 505 1350
f 1351 1011 1010
f 1344 1345 1007
f 1004 1007 749
f 1005 1011 1006
f 1005 1017 1018
f 1003 1017 993
f 1004 750 253
f 253 254 255
f 277 278 993
f 282 278 283
f 287 283 281
f 257 276 255
f 281 275 274
f 281 274 279
f 258 261 257
f 258 262 259
f 260 273 274
f 264 272 259
f 279 274 273
f 264 271 272
f 785 280 271
f 784 280 785
f 784 294 280
f 291 280 294
f 288 281 279
f 289 288 290
f 293 291 294
f 293 294 295
f 783 295 294
f 782 295 783
f 293 295 299
f 298 293 296
f 301 290 292
f 297 308 298
f 300 290 301
f 302 300 306
f 313 306 314
f 324 313 314
f 1088 324 323
f 315 308 316
f 323 322 1088
f 322 319 1088
f 319 317 320
f 316 308 307
f 977 982 317
f 977 1072 982
f 1042 1072 1067
f 1066 1085 1067
f 778 1069 779
f 778 1070 1069
f 805 1068 1073
f 307 805 806
f 778 779 780
f 307 308 297
f 296 297 298
f 777 778 780
f 296 293 299
f 776 778 777
f 299 295 775
f 776 781 778
f 782 775 295
f 781 1070 778
f 1066 1069 1070
f 783 1071 782
f 783 294 784
f 785 1082 784
f 1066 1079 1080
f 1066 1084 1085
f 1063 1084 1087
f 1081 1082 1078
f 1065 1078 1064
f 1065 1040 1077
f 1086 1076 1087
f 570 1077 569
f 570 563 571
f 572 1075 1076
f 571 563 560
f 559 553 560
f 573 1075 572
f 574 1074 573
f 574 543 548
f 553 556 557
f 557 1091 1092
f 1092 1274 1093
f 1093 1274 1272
f 543 558 550
f 1093 1272 1157
f 550 551 543
f 548 543 542
f 542 592 591
f 552 1158 541
f 593 592 1160
f 552 1157 1158
f 1157 1272 1281
f 1280 598 1283
f 596 597 595
f 1280 599 598
f 1271 1279 1280
f 475 467 476
f 1271 1278 1279
f 1277 474 475
f 1328 473 474
f 1303 1302 1329
f 1329 1302 1301
f 1023 473 1328
f 1022 473 1023
f 1000 1021 1022
f 997 999 1000
f 996 995 1329
f 1329 1301 1330
f 1330 1301 1300
f 1330 1300 1299
f 1299 1298 1330
f 1014 997 1015
f 1012 1013 1014
f 1012 1331 1019
f 1330 1298 1297
f 1269 1296 1297
f 1295 1296 1269
f 1268 1295 1269
f 1268 1294 1295
f 1267 1294 1268
f 1267 1293 1294
f 1163 1293 1267
f 1163 1292 1293
f 1252 1292 1163
f 1252 1284 1292
f 1259 1284 1252
f 1284 1259 1258
f 1269 1297 1262
f 1262 1297 1298
f 1262 1298 1263
f 1263 1298 1299
f 1263 1299 1265
f 1265 1299 1300
f 1265 1300 1273
f 1273 1300 1301
f 1273 1301 1270
f 1270 1301 1302
f 1270 1302 1271
f 1271 1302 1303
f 1271 1303 1276
f 1019 1331 1327
f 1284 1258 1285
f 1285 1258 1257
f 1285 1257 1286
f 1286 1257 1253
f 1286 1253 1287
f 1287 1253 1255
f 1287 1255 1288
f 1288 1255 1256
f 1288 1256 1289
f 1289 1256 1290
f 1290 1256 1260
f 1290 1260 1291
f 1291 1260 1247
f 1291 1247 1249
f 992 1327 498
f 498 499 500
f 1249 1248 1250
f 500 499 501
f 1166 501 1240
f 1227 1166 1228
f 390 1227 1221
f 388 1221 1209
f 1206 1219 1220
f 1206 1220 1205
f 1205 383 1206
f 383 381 1206
f 382 381 383
f 1206 381 380
f 1209 385 387
f 380 381 382
f 385 386 387
f 392 386 393
f 394 1338 393
f 394 1343 1338
f 1338 1343 1342
f 879 878 880
f 882 875 862
f 882 862 886
f 886 863 882
f 886 39 863
f 38 863 39
f 37 38 39
f 37 39 48
f 39 44 48
f 47 44 39
f 867 47 39
f 46 47 867
f 867 36 46
f 36 35 46
f 20 35 36
f 20 36 19
f 19 18 20
f 866 18 19
f 866 16 18
f 15 16 866
f 15 8 16
f 15 9 8
f 8 9 10
f 22 8 10
f 21 8 22
f 21 17 8
f 20 17 21
f 22 35 21
f 22 34 35
f 45 35 34
f 45 34 43
f 49 45 43
f 49 43 50
f 50 43 42
f 32 42 43
f 32 40 42
f 31 40 32
f 31 32 23
f 32 33 23
f 23 33 34
f 23 24 31
f 43 33 32
f 48 45 49
f 62 48 49
f 49 61 62
f 62 61 65
f 61 69 65
f 65 69 79
f 90 65 79
f 89 65 90
f 89 63 65
f 64 63 89
f 63 64 62
f 62 64 38
f 64 671 38
f 671 64 89
f 671 89 672
f 89 90 91
f 91 90 92
f 62 65 63
f 43 34 33
f 44 35 45
f 23 34 22
f 22 10 23
f 23 10 5
f 10 11 5
f 10 9 11
f 334 11 9
f 335 11 334
f 335 6 11
f 334 333 335
f 335 333 1089
f 335 1089 337
f 337 1089 338
f 856 338 1089
f 856 1089 329
f 331 856 329
f 329 330 331
f 331 330 13
f 330 332 13
f 13 332 333
f 13 333 9
f 14 13 9
f 12 13 14
f 12 14 860
f 866 860 14
f 867 860 866
f 867 861 860
f 860 861 862
f 886 861 867
f 860 853 12
f 860 868 853
f 868 852 853
f 331 13 12
f 329 332 330
f 12 856 331
f 329 1089 332
f 335 337 7
f 1089 333 332
f 9 333 334
f 14 9 15
f 16 8 17
f 866 14 15
f 16 17 18
f 866 19 867
f 20 18 17
f 21 35 20
f 46 35 44
f 867 19 36
f 46 44 47
f 48 44 45
f 37 48 62
f 62 38 37
f 38 671 863
f 867 39 886
f 886 862 861
f 883 878 877
f 884 1312 873
f 877 878 879
f 879 880 384
f 382 383 384
f 1205 1195 383
f 1193 1195 1205
f 1193 1194 1195
f 1195 1194 1196
f 1196 1204 1195
f 873 1312 1307
f 1313 1317 1318
f 1318 1319 1313
f 1186 1316 1188
f 1311 1321 1314
f 1313 1319 1320
f 874 1307 1313
f 875 874 876
f 869 870 871
f 875 876 862
f 862 868 860
f 852 868 850
f 850 851 852
f 871 870 872
f 843 872 1311
f 1310 844 843
f 362 848 844
f 842 849 850
f 364 848 362
f 364 365 366
f 366 365 367
f 366 367 368
f 368 367 369
f 368 369 370
f 369 375 370
f 370 375 376
f 370 376 377
f 377 376 378
f 368 857 366
f 850 849 851
f 368 858 857
f 852 851 845
f 370 858 368
f 845 859 846
f 852 845 853
f 847 370 854
f 853 855 12
f 854 370 377
f 377 378 374
f 374 378 379
f 374 379 373
f 12 855 856
f 373 372 374
f 371 372 373
f 834 372 371
f 340 372 834
f 339 338 856
f 7 337 338
f 7 6 335
f 5 11 6
f 23 5 24
f 31 24 25
f 31 25 29
f 703 26 2
f 2 704 703
f 703 704 705
f 703 705 706
f 920 706 705
f 927 706 920
f 920 922 927
f 920 921 922
f 922 921 923
f 921 704 923
f 836 923 704
f 836 924 923
f 923 924 922
f 922 924 925
f 922 925 926
f 941 922 926
f 941 926 942
f 936 941 942
f 935 941 936
f 935 940 941
f 940 922 941
f 940 928 922
f 939 928 940
f 939 910 928
f 910 931 928
f 928 931 932
f 928 932 929
f 927 928 929
f 929 731 927
f 929 727 731
f 726 731 727
f 725 726 727
f 725 727 929
f 929 932 725
f 725 932 931
f 725 931 730
f 56 725 730
f 56 730 729
f 730 930 729
f 729 930 909
f 729 909 728
f 728 909 907
f 908 907 909
f 908 909 910
f 938 908 910
f 906 907 908
f 908 912 906
f 912 620 906
f 912 621 620
f 724 621 912
f 724 622 621
f 621 622 85
f 85 622 623
f 85 623 87
f 86 85 87
f 70 86 87
f 70 87 73
f 73 75 70
f 70 75 80
f 70 80 71
f 71 80 82
f 80 81 82
f 82 81 83
f 82 83 76
f 83 100 76
f 76 100 103
f 76 103 102
f 102 77 76
f 662 77 102
f 662 102 660
f 102 111 660
f 660 111 117
f 660 117 658
f 658 117 115
f 116 115 117
f 116 117 118
f 110 118 117
f 105 118 110
f 105 116 118
f 114 115 116
f 104 114 116
f 131 114 104
f 131 112 114
f 130 112 131
f 130 131 129
f 129 119 130
f 112 113 114
f 114 113 115
f 115 113 658
f 110 117 111
f 103 110 111
f 660 661 662
f 661 668 662
f 662 668 663
f 663 668 1356
f 663 1356 865
f 865 664 663
f 865 670 664
f 670 665 664
f 670 669 665
f 662 669 670
f 669 663 665
f 663 664 665
f 662 663 669
f 670 77 662
f 76 77 78
f 103 111 102
f 100 110 103
f 101 110 100
f 81 101 100
f 81 99 101
f 99 105 101
f 99 106 105
f 98 106 99
f 75 98 99
f 95 98 75
f 75 74 95
f 95 74 96
f 74 627 96
f 96 627 609
f 627 710 609
f 609 710 709
f 707 609 709
f 707 709 701
f 701 702 707
f 701 696 702
f 700 696 701
f 701 710 700
f 710 718 700
f 700 718 719
f 718 720 719
f 719 720 721
f 720 625 721
f 721 625 624
f 721 624 623
f 721 623 723
f 722 721 723
f 722 723 724
f 911 722 724
f 719 722 911
f 900 719 911
f 699 719 900
f 900 694 699
f 900 887 694
f 695 694 887
f 694 695 696
f 696 695 697
f 696 697 693
f 899 887 900
f 699 694 700
f 900 911 905
f 905 911 908
f 911 724 908
f 87 624 625
f 720 626 625
f 73 625 626
f 73 626 74
f 719 721 722
f 718 626 720
f 626 718 627
f 700 719 699
f 700 694 696
f 696 683 702
f 702 683 685
f 683 684 685
f 684 715 685
f 715 684 619
f 619 684 682
f 619 682 617
f 617 682 681
f 675 681 682
f 675 682 683
f 680 681 675
f 680 600 681
f 680 601 600
f 679 601 680
f 600 601 165
f 165 601 602
f 165 140 600
f 140 165 149
f 149 165 162
f 149 162 166
f 149 141 140
f 133 140 141
f 133 141 134
f 134 141 142
f 108 133 134
f 108 134 109
f 109 134 135
f 109 135 129
f 128 109 129
f 129 104 128
f 128 104 106
f 128 106 121
f 121 107 128
f 121 127 107
f 123 127 121
f 121 122 123
f 122 613 123
f 613 614 123
f 123 614 615
f 717 615 614
f 717 614 714
f 717 714 685
f 685 714 712
f 713 712 714
f 711 712 713
f 713 612 711
f 711 612 611
f 121 611 612
f 132 611 121
f 121 95 132
f 132 95 97
f 97 610 132
f 97 609 610
f 132 610 611
f 708 611 610
f 708 610 707
f 711 611 708
f 702 711 708
f 713 613 612
f 702 712 711
f 714 613 713
f 685 716 717
f 716 615 717
f 716 616 615
f 715 616 716
f 715 618 616
f 125 616 618
f 125 618 124
f 124 108 125
f 124 618 619
f 126 616 125
f 125 107 126
f 125 108 107
f 127 616 126
f 127 615 616
f 714 614 613
f 122 612 613
f 121 612 122
f 123 615 127
f 126 107 127
f 121 106 95
f 128 107 109
f 107 108 109
f 124 133 108
f 124 140 133
f 617 140 124
f 600 140 617
f 675 679 680
f 617 681 600
f 124 619 617
f 619 618 715
f 685 715 716
f 683 682 684
f 685 712 702
f 696 675 683
f 707 702 708
f 707 610 609
f 701 709 710
f 627 718 710
f 96 609 97
f 74 626 627
f 95 96 97
f 106 98 95
f 104 105 106
f 100 83 81
f 80 99 81
f 70 71 72
f 75 99 80
f 73 74 75
f 87 625 73
f 72 86 70
f 72 84 86
f 84 85 86
f 84 60 85
f 66 60 84
f 60 66 58
f 58 66 67
f 58 52 60
f 60 52 54
f 60 54 57
f 57 620 60
f 620 57 728
f 728 57 56
f 54 56 57
f 53 56 54
f 53 55 56
f 41 55 53
f 52 41 53
f 52 53 54
f 52 58 59
f 623 624 87
f 723 623 622
f 60 621 85
f 723 622 724
f 60 620 621
f 908 724 912
f 620 907 906
f 728 907 620
f 909 930 910
f 728 56 729
f 55 725 56
f 55 28 725
f 730 931 930
f 910 930 931
f 927 922 928
f 927 731 706
f 731 732 706
f 920 705 921
f 921 705 704
f 706 732 703
f 733 732 731
f 733 731 726
f 725 28 726
f 27 29 30
f 41 28 55
f 31 29 40
f 51 41 52
f 50 42 40
f 59 51 52
f 49 50 61
f 61 68 69
f 58 67 59
f 79 69 68
f 84 67 66
f 90 79 92
f 88 84 72
f 71 82 72
f 76 78 82
f 93 92 94
f 78 77 670
f 91 92 93
f 672 89 91
f 864 670 865
f 863 671 672
f 882 863 885
f 865 1332 864
f 882 885 881
f 881 1342 1343
f 1338 1342 1339
f 865 1356 1332
f 1340 1339 1341
f 1353 1333 1340
f 1353 666 653
f 1356 668 667
f 661 667 668
f 660 659 661
f 658 659 660
f 658 113 112
f 130 119 112
f 138 139 147
f 139 136 147
f 129 135 119
f 134 142 135
f 136 143 148
f 142 141 149
f 166 168 149
f 166 167 168
f 153 168 167
f 153 167 157
f 144 153 157
f 146 153 144
f 144 157 156
f 154 144 156
f 154 145 144
f 154 155 145
f 175 155 154
f 175 657 155
f 175 742 657
f 178 742 175
f 742 178 172
f 177 172 178
f 177 173 172
f 172 173 174
f 193 174 173
f 191 174 193
f 191 181 174
f 189 181 191
f 189 179 181
f 179 180 181
f 181 180 182
f 180 200 182
f 182 200 201
f 182 201 185
f 185 201 738
f 185 738 184
f 184 738 183
f 738 172 183
f 183 181 184
f 738 201 206
f 184 182 185
f 184 181 182
f 179 200 180
f 183 174 181
f 192 191 193
f 176 193 173
f 169 193 176
f 172 174 183
f 176 173 177
f 177 154 176
f 738 742 172
f 178 175 177
f 177 175 154
f 176 154 156
f 176 156 159
f 156 157 158
f 157 167 164
f 164 167 166
f 151 168 153
f 152 151 153
f 147 136 148
f 138 147 137
f 120 137 651
f 150 151 152
f 152 153 146
f 144 145 146
f 657 145 155
f 734 657 742
f 656 655 651
f 653 666 655
f 1352 653 652
f 654 743 748
f 1347 1352 1354
f 737 1354 745
f 745 746 737
f 734 743 654
f 734 742 738
f 745 744 746
f 738 206 739
f 737 746 747
f 231 747 741
f 232 741 233
f 228 233 234
f 739 206 740
f 229 234 235
f 229 235 230
f 200 206 201
f 179 199 200
f 187 199 179
f 204 230 205
f 187 198 199
f 203 224 204
f 197 202 203
f 194 202 197
f 633 194 195
f 186 198 187
f 187 179 189
f 190 189 191
f 195 188 196
f 171 630 196
f 190 191 192
f 169 192 193
f 170 629 171
f 159 169 176
f 161 628 170
f 606 161 160
f 156 158 159
f 157 164 158
f 166 162 164
f 608 163 604
f 165 602 162
f 679 602 601
f 603 677 604
f 675 678 679
f 677 676 604
f 604 676 674
f 604 674 608
f 607 163 608
f 673 675 688
f 606 160 607
f 688 687 689
f 605 161 606
f 605 628 161
f 687 756 689
f 755 754 628
f 759 760 754
f 688 675 687
f 693 675 696
f 759 686 691
f 690 691 692
f 692 895 896
f 693 697 698
f 887 697 695
f 889 895 901
f 899 888 887
f 897 889 892
f 890 891 892
f 890 913 914
f 898 888 899
f 905 899 900
f 905 908 938
f 914 913 933
f 938 910 939
f 934 939 940
f 914 933 915
f 439 915 916
f 934 940 935
f 439 916 435
f 435 436 428
f 428 436 437
f 437 918 426
f 917 935 936
f 426 918 919
f 919 958 959
f 818 958 957
f 936 942 937
f 816 957 956
f 816 815 817
f 807 812 813
f 809 812 807
f 807 808 809
f 809 808 810
f 809 810 811
f 809 811 831
f 950 811 810
f 950 810 808
f 814 952 951
f 807 950 808
f 926 951 942
f 944 811 950
f 831 811 840
f 831 840 830
f 926 949 943
f 830 840 841
f 948 832 949
f 926 948 949
f 926 945 946
f 947 838 839
f 834 371 838
f 340 834 336
f 945 835 946
f 925 945 926
f 837 925 924
f 1 336 833
f 837 924 836
f 704 2 836
f 3 2 4
f 3 336 1
f 101 105 110
f 129 131 104
f 104 116 105
f 266 265 267
f 343 342 350

