# https://github.com/mikedh/trimesh
v 0.02836792 0.00868528 -0.07965627
v 0.02858994 0.01593180 -0.06874655
v 0.02844237 0.00502397 -0.07599784
v 0.02868913 0.00863087 -0.06387227
v 0.02846960 0.00002360 -0.07465981
v 0.02872393 0.00002001 -0.06216240
v 0.02844231 -0.00497602 -0.07600072
v 0.02868904 -0.00858989 -0.06387722
v 0.02858976 -0.01588801 -0.06875571
v 0.02836781 -0.00863523 -0.07966127
v 0.02844121 -0.02076330 -0.07605512
v 0.02826607 -0.00997353 -0.08466063
v 0.02826600 -0.02247353 -0.08466420
v 0.02816435 -0.00863234 -0.08965920
v 0.02808995 0.00502896 -0.09331475
v 0.02794251 0.01594095 -0.10055977
v 0.02816445 0.00868817 -0.08965420
v 0.02809106 0.02081624 -0.09326036
v 0.02826619 0.01002647 -0.08465485
v 0.02826626 0.02252647 -0.08465126
v 0.02844145 0.02081129 -0.07604317
v 0.02809082 -0.02075835 -0.09327231
v 0.02794232 -0.01587886 -0.10056892
v 0.02808990 -0.00497103 -0.09331764
v 0.02784313 -0.00857793 -0.10544319
v 0.02806266 0.00002935 -0.09465566
v 0.02780833 0.00003295 -0.10715308
v 0.02784323 0.00864282 -0.10543825
f 1 2 3
f 1 21 2
f 1 20 21
f 19 20 1
f 19 18 20
f 17 18 19
f 17 16 18
f 15 16 17
f 15 28 16
f 15 27 28
f 26 27 15
f 26 25 27
f 24 25 26
f 24 23 25
f 14 23 24
f 14 22 23
f 13 22 14
f 12 13 14
f 12 11 13
f 10 11 12
f 10 9 11
f 7 9 10
f 7 8 9
f 6 8 7
f 5 6 7
f 5 4 6
f 3 4 5
f 3 2 4

