# https://github.com/mikedh/trimesh
v 0.02060198 0.01486766 -0.12458282
v 0.02064803 0.00971980 -0.12217106
v 0.02053825 0.00781879 -0.12754358
v 0.02044841 0.01563330 -0.13218853
v 0.02041726 0.01722877 -0.13376956
v 0.02053622 0.01944602 -0.12795232
v 0.02045330 0.02327891 -0.13215008
v 0.02037603 -0.02487944 -0.13468811
v 0.02031970 -0.01997990 -0.13760039
v 0.02047050 -0.02150929 -0.13011074
v 0.02035962 -0.01869251 -0.13566267
v 0.02067263 0.00420025 -0.12080973
v 0.02055801 0.00338413 -0.12644982
v 0.02055027 0.00564452 -0.12689181
v 0.02052160 0.00995992 -0.12842284
v 0.02050124 0.01195484 -0.12948132
v 0.02047623 0.01389297 -0.13076846
v 0.02039561 -0.01727217 -0.13392271
v 0.02042875 -0.01569084 -0.13232759
v 0.02055034 -0.01731071 -0.12627867
v 0.02045976 -0.01389883 -0.13084385
v 0.02048632 -0.01202630 -0.12958156
v 0.02061247 -0.01244505 -0.12333918
v 0.02038179 0.01871283 -0.13556121
v 0.02034456 0.01997541 -0.13743338
v 0.02035640 0.02621905 -0.13701478
v 0.01980290 0.02497546 -0.16432188
v 0.01985923 0.02007593 -0.16140960
v 0.01970842 0.02160532 -0.16889927
v 0.01981931 0.01878853 -0.16334733
v 0.01978331 0.01736819 -0.16508728
v 0.01975017 0.01578687 -0.16668241
v 0.01962859 0.01740674 -0.17273133
v 0.01957695 -0.01477164 -0.17442718
v 0.01967769 -0.01185881 -0.16952869
v 0.01964271 -0.01934999 -0.17105769
v 0.01970270 -0.01379694 -0.16824153
v 0.01973051 -0.01553727 -0.16682146
v 0.01976167 -0.01713274 -0.16524044
v 0.01972563 -0.02318288 -0.16685992
v 0.01979714 -0.01861680 -0.16344878
v 0.01983437 -0.01987938 -0.16157663
v 0.01982253 -0.02612303 -0.16199522
v 0.02050967 -0.00998952 -0.12848212
v 0.02052855 -0.00789585 -0.12760541
v 0.02065450 -0.00709929 -0.12140524
v 0.02030393 0.02107509 -0.13946976
v 0.02026202 0.02195200 -0.14156300
v 0.02024924 0.02815345 -0.14235948
v 0.01990839 0.02738766 -0.15917510
v 0.02002084 0.02874921 -0.15365671
v 0.02003434 0.02310794 -0.15284069
v 0.01971917 0.01399485 -0.16816615
v 0.01969261 0.01212233 -0.16942844
v 0.01956646 0.01254107 -0.17567082
v 0.01953090 -0.00962378 -0.17683895
v 0.01950631 -0.00410424 -0.17820027
v 0.01962093 -0.00328810 -0.17256017
v 0.02027053 -0.02729163 -0.13983490
v 0.02015808 -0.02865319 -0.14535329
v 0.02014459 -0.02301191 -0.14616932
v 0.02054344 -0.00569447 -0.12692828
v 0.02055381 -0.00345892 -0.12647511
v 0.02067481 -0.00147885 -0.12055114
v 0.02055976 -0.00117874 -0.12624207
v 0.02056115 0.00111331 -0.12623414
v 0.01998834 0.02266590 -0.15510063
v 0.01994398 0.02201401 -0.15727443
v 0.01990017 0.02113459 -0.15941511
v 0.01962866 -0.00554850 -0.17211820
v 0.01964068 -0.00772276 -0.17146641
v 0.01965733 -0.00986390 -0.17058715
v 0.02019059 -0.02256988 -0.14390938
v 0.02023494 -0.02191798 -0.14173557
v 0.02027876 -0.02103856 -0.13959488
v 0.02021783 0.02262928 -0.14376394
v 0.02017283 0.02308257 -0.14599903
v 0.02013593 0.02900779 -0.14797877
v 0.02012680 0.02331569 -0.14827874
v 0.02008041 0.02332365 -0.15057033
v 0.01966926 0.01008554 -0.17052788
v 0.01965038 0.00799188 -0.17140460
v 0.01952443 0.00719530 -0.17760476
v 0.01987500 -0.02097906 -0.15954024
v 0.01991690 -0.02185599 -0.15744701
v 0.01992969 -0.02805744 -0.15665053
v 0.01963549 0.00579050 -0.17208172
v 0.01962512 0.00355495 -0.17253488
v 0.01950411 0.00157487 -0.17845885
v 0.01961917 0.00127477 -0.17276794
v 0.01961778 -0.00101730 -0.17277585
v 0.01996109 -0.02253325 -0.15524606
v 0.02000610 -0.02298655 -0.15301096
v 0.02004300 -0.02891176 -0.15103124
v 0.02005213 -0.02321966 -0.15073125
v 0.02009852 -0.02322762 -0.14843966
v 0.02009174 -0.01704899 -0.13411728
v 0.02005620 -0.01845106 -0.13583483
v 0.02000531 -0.02004374 -0.13830659
v 0.01997638 -0.02076691 -0.13971642
v 0.01990807 -0.02203098 -0.14305712
v 0.01984395 -0.02271484 -0.14620620
v 0.01980488 -0.02291109 -0.14813070
v 0.01979846 -0.02292777 -0.14844730
v 0.01975267 -0.02291993 -0.15070939
v 0.01970724 -0.02268982 -0.15295976
v 0.01970092 -0.02263993 -0.15327287
v 0.01966281 -0.02224236 -0.15516607
v 0.01960141 -0.02123107 -0.15822579
v 0.01953772 -0.01962263 -0.16141513
v 0.01951133 -0.01875520 -0.16274112
v 0.01946595 -0.01691137 -0.16503178
v 0.01943520 -0.01533645 -0.16659243
v 0.01940774 -0.01361852 -0.16799422
v 0.01937684 -0.01114625 -0.16958660
v 0.01936295 -0.00973612 -0.17030963
v 0.01933917 -0.00639471 -0.17157350
v 0.01932702 -0.00324499 -0.17225726
v 0.01932408 -0.00132009 -0.17245346
v 0.01932391 -0.00100342 -0.17247015
v 0.01932529 0.00125913 -0.17246234
v 0.01933116 0.00350995 -0.17223230
v 0.01933233 0.00382313 -0.17218241
v 0.01934139 0.00571672 -0.17178495
v 0.01936351 0.00877706 -0.17077391
v 0.01939778 0.01196701 -0.16916583
v 0.01941606 0.01329328 -0.16829860
v 0.01945461 0.01558437 -0.16645516
v 0.01948732 0.01714535 -0.16488059
v 0.02021554 -0.00868071 -0.12822394
v 0.02023766 -0.00562037 -0.12721291
v 0.01997764 0.02132742 -0.14077206
v 0.01991624 0.02233870 -0.14383179
v 0.01952285 0.01854740 -0.16316302
v 0.01957374 0.02014008 -0.16069126
v 0.01960267 0.02086325 -0.15928143
v 0.01967099 0.02212734 -0.15594073
v 0.01987813 0.02273627 -0.14572500
v 0.01987182 0.02278616 -0.14603810
v 0.01982638 0.02301627 -0.14828847
v 0.01978059 0.02302412 -0.15055056
v 0.01977417 0.02300743 -0.15086716
v 0.01973510 0.02281118 -0.15279166
v 0.02004134 0.01971899 -0.13758273
v 0.02006772 0.01885154 -0.13625672
v 0.02011310 0.01700771 -0.13396609
v 0.02014385 0.01543279 -0.13240542
v 0.02017131 0.01371487 -0.13100363
v 0.02020222 0.01124259 -0.12941125
v 0.02021609 0.00983246 -0.12868822
v 0.02023988 0.00649105 -0.12742436
v 0.02024672 -0.00372679 -0.12681544
v 0.02024789 -0.00341361 -0.12676556
v 0.02025376 -0.00116278 -0.12653552
v 0.02025514 0.00109976 -0.12652770
v 0.02025498 0.00141643 -0.12654439
v 0.02025204 0.00334133 -0.12674060
v 0.02018127 -0.01187067 -0.12983201
v 0.02016300 -0.01319694 -0.13069926
v 0.02012445 -0.01548803 -0.13254268
f 1 2 3
f 3 15 1
f 150 15 3
f 150 3 151
f 151 3 14
f 151 14 13
f 13 157 151
f 13 156 157
f 66 156 13
f 12 66 13
f 12 13 2
f 12 65 66
f 65 155 66
f 65 154 155
f 63 154 65
f 64 63 65
f 46 63 64
f 46 62 63
f 45 62 46
f 23 45 46
f 23 44 45
f 45 44 130
f 130 44 22
f 130 22 158
f 158 22 21
f 158 21 159
f 159 21 19
f 19 21 20
f 10 19 20
f 10 18 19
f 11 18 10
f 10 9 11
f 98 11 9
f 98 9 99
f 99 9 75
f 8 75 9
f 8 74 75
f 100 75 74
f 100 74 101
f 101 74 73
f 101 73 61
f 61 73 59
f 59 60 61
f 60 96 61
f 60 95 96
f 94 95 60
f 94 93 95
f 93 105 95
f 93 106 105
f 107 106 93
f 107 93 108
f 108 93 92
f 86 92 93
f 85 92 86
f 43 85 86
f 43 84 85
f 42 84 43
f 109 84 42
f 109 42 110
f 110 42 41
f 110 41 111
f 111 41 39
f 39 41 40
f 36 39 40
f 36 38 39
f 37 38 36
f 36 35 37
f 114 37 35
f 114 35 115
f 115 35 72
f 115 72 116
f 116 72 71
f 34 71 72
f 56 71 34
f 56 70 71
f 58 70 56
f 56 57 58
f 57 91 58
f 57 90 91
f 89 90 57
f 89 88 90
f 88 121 90
f 90 121 120
f 88 122 121
f 123 122 88
f 123 88 124
f 124 88 87
f 124 87 82
f 82 125 124
f 82 81 125
f 55 81 82
f 55 82 83
f 54 81 55
f 33 54 55
f 33 53 54
f 126 54 53
f 125 54 126
f 126 53 127
f 127 53 32
f 127 32 128
f 128 32 31
f 128 31 129
f 129 31 30
f 30 31 29
f 29 28 30
f 27 28 29
f 27 69 28
f 135 28 69
f 134 28 135
f 135 69 136
f 136 69 68
f 136 68 137
f 137 68 67
f 137 67 52
f 52 67 50
f 50 51 52
f 51 80 52
f 80 142 52
f 52 142 143
f 80 141 142
f 79 141 80
f 79 140 141
f 77 140 79
f 78 77 79
f 49 77 78
f 49 76 77
f 48 76 49
f 26 48 49
f 26 47 48
f 25 47 26
f 132 47 25
f 132 25 144
f 144 25 24
f 7 24 25
f 5 24 7
f 145 24 5
f 145 5 146
f 146 5 4
f 146 4 147
f 147 4 17
f 147 17 148
f 148 17 16
f 6 16 17
f 1 16 6
f 148 16 149
f 149 16 15
f 6 17 4
f 4 5 6
f 6 5 7
f 144 24 145
f 7 25 26
f 48 47 132
f 48 132 133
f 133 76 48
f 133 77 76
f 138 77 133
f 138 139 77
f 78 79 51
f 77 139 140
f 51 79 80
f 52 143 137
f 50 67 68
f 50 68 27
f 27 68 69
f 134 30 28
f 129 30 134
f 29 31 32
f 29 32 33
f 32 53 33
f 125 81 54
f 82 87 83
f 83 87 88
f 83 88 89
f 90 120 91
f 91 120 119
f 91 119 58
f 58 119 118
f 58 118 117
f 117 70 58
f 117 71 70
f 116 71 117
f 34 72 35
f 113 37 114
f 34 35 36
f 113 38 37
f 112 38 113
f 112 39 38
f 111 39 112
f 40 41 42
f 40 42 43
f 85 84 109
f 85 109 108
f 108 92 85
f 95 105 104
f 86 93 94
f 95 104 96
f 96 104 103
f 96 103 61
f 61 103 102
f 61 102 101
f 59 73 74
f 59 74 8
f 99 75 100
f 97 11 98
f 8 9 10
f 97 18 11
f 160 18 97
f 160 19 18
f 159 19 160
f 20 21 22
f 20 22 23
f 45 130 131
f 22 44 23
f 131 62 45
f 131 63 62
f 152 63 131
f 152 153 63
f 63 153 154
f 64 65 12
f 66 155 156
f 2 13 14
f 149 15 150
f 1 15 16
f 2 14 3

