# https://github.com/mikedh/trimesh
v -0.02301268 0.01064396 -0.05558513
v -0.01698053 0.01062890 -0.05569866
v -0.00114461 0.01932778 -0.06109886
v -0.00103867 0.01030326 -0.05589310
v -0.01729020 0.02680422 -0.07018043
v -0.00130696 0.02602721 -0.06907662
v -0.01737764 0.02850790 -0.07424749
v -0.00150615 0.02959352 -0.07886412
v -0.02311093 0.01933996 -0.06066938
v -0.02326884 0.02603939 -0.06864722
v -0.02329692 0.02680321 -0.07005447
v -0.01769497 0.02960538 -0.08896848
v -0.01766477 0.02981775 -0.08756986
v -0.00171814 0.02959652 -0.08928085
v -0.01756704 0.03005081 -0.08304084
v -0.01747004 0.02960029 -0.07854024
v -0.01777517 0.02870509 -0.09267955
v -0.00191737 0.02603589 -0.09907041
v -0.01785258 0.02733508 -0.09625790
v -0.00207980 0.01934105 -0.10705203
v -0.01801640 0.02237510 -0.10381457
v -0.01790672 0.02604475 -0.09875779
v -0.00218585 0.01031954 -0.11226299
v -0.01814041 0.01545746 -0.10950977
v -0.01807999 0.01934992 -0.10673919
v -0.01823379 -0.00176150 -0.11370642
v -0.01823468 0.00006832 -0.11376173
v -0.00222272 0.00005944 -0.11407480
v -0.01821509 0.00716499 -0.11290839
v -0.01819389 0.01032841 -0.11195000
v -0.01822214 -0.00604971 -0.11313320
v -0.00218597 -0.01020167 -0.11226891
v -0.01819744 -0.01019280 -0.11195585
v -0.01819643 -0.01032327 -0.11190808
v -0.00208003 -0.01922621 -0.10706314
v -0.02416192 -0.01030771 -0.11179595
v -0.02406219 -0.01921403 -0.10663335
v -0.00191767 -0.02592564 -0.09908539
v -0.02390429 -0.02591345 -0.09865551
v -0.02387031 -0.02682552 -0.09695282
v -0.01787932 -0.02682430 -0.09707914
v -0.01779461 -0.02843847 -0.09313960
v -0.00171849 -0.02949194 -0.08929788
v -0.01770518 -0.02948309 -0.08898532
v -0.01760370 -0.02993604 -0.08427754
v -0.01750660 -0.02967360 -0.07977764
v -0.00150650 -0.02949495 -0.07888115
v -0.01748050 -0.02948609 -0.07856883
v -0.00130727 -0.02593430 -0.06909159
v -0.01732051 -0.02716534 -0.07116985
v -0.01739900 -0.02856706 -0.07479775
v -0.00114483 -0.01923948 -0.06110998
v -0.01715836 -0.02222628 -0.06368991
v -0.01726875 -0.02592547 -0.06877951
v -0.00103879 -0.01021795 -0.05589901
v -0.00100191 0.00004213 -0.05408721
v -0.01694081 0.00005096 -0.05377557
v -0.01695976 -0.00692761 -0.05460039
v -0.01698159 -0.01020913 -0.05558730
v -0.00111082 -0.01705167 -0.05943845
v -0.01703414 -0.01526620 -0.05798464
v -0.01709549 -0.01923064 -0.06079812
v -0.01697806 0.01031208 -0.05558145
v -0.01695369 0.00624738 -0.05442052
v -0.01694189 0.00203990 -0.05384099
v -0.01921218 -0.00336502 -0.11451377
v -0.02421116 -0.00336232 -0.11441258
v -0.01921403 -0.00181887 -0.11464601
v -0.02419650 0.00638623 -0.11394726
v -0.01919752 0.00638353 -0.11404846
v -0.01919236 0.00739261 -0.11382024
v -0.02412129 0.01550691 -0.11047477
v -0.01911678 0.01595050 -0.11031438
v -0.02399300 0.02309575 -0.10433929
v -0.01899403 0.02309306 -0.10444049
v -0.01883344 0.02822011 -0.09664433
v -0.02381722 0.02855180 -0.09580145
v -0.01881825 0.02854912 -0.09590266
v -0.01865049 0.03079409 -0.08767585
v -0.02361670 0.03096229 -0.08596055
v -0.01861772 0.03095959 -0.08606175
v -0.01846176 0.03058174 -0.07834785
v -0.02341286 0.03006962 -0.07586819
v -0.01841389 0.03006693 -0.07596940
v -0.01809290 0.02879842 -0.07282916
v -0.01895082 -0.00703041 -0.11363607
v -0.02419526 -0.00702759 -0.11352991
v -0.02296020 0.00346580 -0.05280241
v -0.02297702 0.00725825 -0.05373395
v -0.02334702 -0.02829707 -0.07106604
v -0.02317836 -0.02299229 -0.06287570
v -0.02305007 -0.01540344 -0.05674022
v -0.02297487 -0.00628276 -0.05326773
v -0.02380837 -0.02894375 -0.09383718
v -0.02373626 -0.03022987 -0.09024090
v -0.02353934 -0.03079203 -0.08049944
v -0.01771460 0.00725543 -0.05384049
v -0.01796123 0.00346311 -0.05290361
v -0.01855737 -0.02894658 -0.09394348
v -0.01873728 -0.03023255 -0.09034210
v -0.01795953 0.00210951 -0.05278360
v -0.01798037 -0.00716950 -0.05356695
v -0.01805593 -0.01579716 -0.05707008
v -0.01817938 -0.02299497 -0.06297690
v -0.01833886 -0.02809703 -0.07071882
v -0.01852051 -0.03068048 -0.07962313
v -0.01870809 -0.03051413 -0.08889302
f 1 2 3
f 97 2 1
f 1 89 97
f 97 89 88
f 97 88 98
f 98 88 101
f 101 88 93
f 101 93 102
f 102 93 92
f 102 92 103
f 59 102 103
f 58 102 59
f 55 58 59
f 55 59 60
f 60 59 61
f 60 61 52
f 52 61 62
f 61 103 62
f 62 103 104
f 62 104 53
f 53 104 54
f 54 104 105
f 104 90 105
f 105 90 96
f 105 96 106
f 51 105 106
f 51 106 48
f 106 46 48
f 106 45 46
f 107 45 106
f 107 44 45
f 100 44 107
f 107 95 100
f 94 100 95
f 94 99 100
f 41 99 94
f 94 40 41
f 40 39 41
f 41 39 38
f 41 38 42
f 42 38 43
f 42 43 44
f 37 38 39
f 37 35 38
f 36 35 37
f 34 35 36
f 86 34 36
f 86 33 34
f 33 32 34
f 31 32 33
f 31 28 32
f 26 28 31
f 26 27 28
f 26 68 27
f 27 68 29
f 68 70 29
f 68 69 70
f 68 67 69
f 66 67 68
f 86 67 66
f 86 66 26
f 86 87 67
f 70 69 71
f 71 69 72
f 71 72 73
f 73 72 74
f 73 74 75
f 25 73 75
f 25 75 21
f 20 25 21
f 20 24 25
f 23 24 20
f 23 30 24
f 30 73 24
f 23 29 30
f 29 71 30
f 28 29 23
f 20 21 18
f 18 21 22
f 18 22 19
f 22 76 19
f 22 75 76
f 19 76 17
f 17 76 78
f 76 77 78
f 78 77 79
f 12 78 79
f 12 79 13
f 12 13 14
f 12 14 17
f 17 14 18
f 14 13 15
f 14 15 8
f 8 15 16
f 8 16 7
f 16 84 7
f 7 84 85
f 7 85 5
f 85 11 5
f 85 83 11
f 10 5 11
f 10 6 5
f 9 6 10
f 9 3 6
f 5 6 7
f 84 83 85
f 82 83 84
f 82 80 83
f 81 80 82
f 79 80 81
f 15 79 81
f 81 82 16
f 16 82 84
f 7 6 8
f 15 81 16
f 13 79 15
f 79 77 80
f 76 74 77
f 17 78 12
f 17 18 19
f 21 75 22
f 24 73 25
f 75 74 76
f 30 71 73
f 29 70 71
f 26 66 68
f 28 27 29
f 26 31 86
f 86 31 33
f 36 87 86
f 34 32 35
f 99 41 42
f 99 42 100
f 107 96 95
f 100 42 44
f 44 43 45
f 45 43 46
f 46 43 47
f 46 47 48
f 47 51 48
f 47 50 51
f 49 50 47
f 49 54 50
f 50 105 51
f 106 96 107
f 104 91 90
f 54 105 50
f 49 53 54
f 52 53 49
f 103 91 104
f 52 62 53
f 57 58 55
f 55 56 57
f 56 65 57
f 56 64 65
f 4 64 56
f 4 63 64
f 2 63 4
f 97 64 63
f 97 65 64
f 57 65 101
f 57 101 58
f 59 103 61
f 103 92 91
f 58 101 102
f 101 65 98
f 98 65 97
f 63 2 97
f 1 3 9
f 3 2 4

