# https://github.com/mikedh/trimesh
v 0.04086241 0.03377461 -0.05587519
v 0.04103617 0.03375548 -0.05488043
v 0.04236912 0.03377422 -0.05590572
v 0.04254547 0.03375441 -0.05493278
v 0.04338698 0.03344984 -0.04359190
v 0.04407276 0.03335892 -0.04058629
v 0.04293929 0.03370655 -0.05291576
v 0.04114637 0.03375481 -0.05490267
v 0.04453567 0.03349659 -0.04528940
v 0.04454425 0.03340562 -0.04220659
v 0.04455127 0.03332757 -0.03946065
f 5 2 7
f 7 9 5
f 5 9 10
f 5 10 6
f 6 10 11
f 7 2 8
f 1 8 2
f 1 4 8
f 3 4 1
f 7 8 4

