# https://github.com/mikedh/trimesh
v 0.02309841 -0.01605653 0.00792806
v -0.02188156 -0.01602615 -0.01084379
v -0.02416189 -0.01602689 -0.00354875
v 0.02241103 -0.01605126 -0.00970239
v 0.01739276 -0.01604639 -0.01714301
v -0.02124834 -0.01602617 -0.01203739
v -0.00759317 -0.01603072 -0.02321065
v -0.01546508 -0.01602751 -0.01890032
v 0.00130423 -0.01603536 -0.02438626
v 0.01002549 -0.01604084 -0.02226837
v -0.02381225 -0.01602958 0.00541917
v -0.02024663 -0.01603386 0.01365520
v -0.01394659 -0.01603916 0.02004703
v 0.02440257 -0.01605480 -0.00095141
v 0.01172883 -0.01605391 0.02142021
v 0.01867468 -0.01605622 0.01573680
v 0.00319894 -0.01604991 0.02421069
v -0.00576299 -0.01604476 0.02373138
f 1 2 3
f 3 11 1
f 1 11 12
f 1 12 13
f 18 1 13
f 17 1 18
f 17 16 1
f 15 16 17
f 2 1 6
f 6 1 14
f 6 14 4
f 4 5 6
f 10 6 5
f 9 6 10
f 9 8 6
f 7 8 9

