# https://github.com/mikedh/trimesh
v -0.02301268 0.01064396 -0.05558513
v -0.02311093 0.01933996 -0.06066938
v -0.02326884 0.02603939 -0.06864722
v -0.02329692 0.02680321 -0.07005447
v -0.02416192 -0.01030771 -0.11179595
v -0.02406219 -0.01921403 -0.10663335
v -0.02390429 -0.02591345 -0.09865551
v -0.02387031 -0.02682552 -0.09695282
v -0.02421116 -0.00336232 -0.11441258
v -0.02419650 0.00638623 -0.11394726
v -0.02412129 0.01550691 -0.11047477
v -0.02399300 0.02309575 -0.10433929
v -0.02381722 0.02855180 -0.09580145
v -0.02361670 0.03096229 -0.08596055
v -0.02341286 0.03006962 -0.07586819
v -0.02419526 -0.00702759 -0.11352991
v -0.02296020 0.00346580 -0.05280241
v -0.02308667 0.00464964 -0.05908079
v -0.02309166 -0.00453783 -0.05908334
v -0.02382427 -0.02231291 -0.09479873
v -0.02396966 -0.01677411 -0.10212746
v -0.02405350 0.00910071 -0.10695590
v -0.02409211 0.00066481 -0.10863901
v -0.02409258 0.00007016 -0.10864625
v -0.02406332 -0.00896137 -0.10696090
v -0.02297702 0.00725825 -0.05373395
v -0.02314919 0.01321766 -0.06239664
v -0.02327078 0.02000907 -0.06858306
v -0.02343502 0.02410664 -0.07680454
v -0.02346115 -0.02398464 -0.07681784
v -0.02334702 -0.02829707 -0.07106604
v -0.02329246 -0.01989180 -0.06859410
v -0.02317836 -0.02299229 -0.06287570
v -0.02316349 -0.01310395 -0.06240393
v -0.02305007 -0.01540344 -0.05674022
v -0.02297487 -0.00628276 -0.05326773
v -0.02361973 0.02495698 -0.08595072
v -0.02379996 0.02244525 -0.09478635
v -0.02395136 0.01691067 -0.10211814
v -0.02380837 -0.02894375 -0.09383718
v -0.02364678 -0.02482972 -0.08596449
v -0.02373626 -0.03022987 -0.09024090
v -0.02353934 -0.03079203 -0.08049944
f 17 18 19
f 17 26 18
f 18 26 1
f 18 1 27
f 27 1 2
f 27 2 28
f 28 2 3
f 28 3 29
f 3 4 29
f 29 4 15
f 29 15 37
f 37 15 14
f 37 14 38
f 38 14 13
f 38 13 39
f 39 13 12
f 39 12 22
f 22 12 11
f 22 11 10
f 22 10 23
f 23 10 9
f 23 9 24
f 24 9 16
f 24 16 25
f 25 16 5
f 25 5 21
f 21 5 6
f 21 6 7
f 7 20 21
f 7 8 20
f 20 8 40
f 20 40 41
f 41 40 42
f 41 42 30
f 30 42 43
f 30 43 31
f 30 31 32
f 32 31 33
f 32 33 34
f 34 33 35
f 34 35 19
f 19 35 36
f 19 36 17

