# https://github.com/mikedh/trimesh
v -0.00249314 0.01843595 -0.30760875
v -0.00272039 0.00803662 -0.30753040
v 0.00017750 0.01871257 -0.30800518
v 0.00140572 0.00803663 -0.30788267
v 0.00515515 0.00803663 -0.30612472
v 0.00281591 0.01899155 -0.30749518
v 0.00140548 0.01884244 -0.30788273
v 0.00752326 0.00803662 -0.30272755
v 0.00686262 0.01939936 -0.30411866
v 0.00512708 0.01923073 -0.30614823
v 0.00787550 0.01947157 -0.29860133
v 0.00792952 0.01947795 -0.29894751
v 0.00787553 0.00803663 -0.29860142
v 0.00783423 0.01948192 -0.30162731
v 0.00752315 0.01945765 -0.30272785
v 0.00713076 0.01939846 -0.29638055
v 0.00611755 0.00803663 -0.29485199
v 0.00611738 0.01930996 -0.29485178
v 0.00272039 0.00803662 -0.29248390
v 0.00328823 0.01908149 -0.29271418
v 0.00552346 0.01926045 -0.29421997
v -0.00200510 0.01866102 -0.29226249
v -0.00140574 0.01871033 -0.29213163
v -0.00140572 0.00803663 -0.29213163
v 0.00067938 0.01887708 -0.29203606
v 0.00272025 0.01903694 -0.29248384
v -0.00445871 0.01844779 -0.29336488
v -0.00515515 0.00803662 -0.29388961
v -0.00515497 0.01838225 -0.29388946
v -0.00787553 0.00803663 -0.30141288
v -0.00787553 0.01800182 -0.30141285
v -0.00799667 0.01801504 -0.30023780
v -0.00752326 0.00803662 -0.29728678
v -0.00762685 0.01810306 -0.29759234
v -0.00752320 0.01811837 -0.29728660
v -0.00640412 0.01825480 -0.29521266
v -0.00272018 0.01841314 -0.30753049
v -0.00488262 0.01820586 -0.30634433
v -0.00611755 0.00803662 -0.30516231
v -0.00611756 0.01810045 -0.30516231
v -0.00747404 0.01801054 -0.30286002
f 1 2 3
f 1 37 2
f 2 37 38
f 2 38 39
f 39 38 40
f 39 40 30
f 30 40 41
f 30 41 31
f 30 31 32
f 30 32 33
f 32 34 33
f 33 34 35
f 33 35 28
f 28 35 36
f 28 36 29
f 27 28 29
f 27 24 28
f 22 24 27
f 22 23 24
f 24 23 25
f 24 25 19
f 19 25 26
f 19 26 20
f 19 20 17
f 17 20 21
f 17 21 18
f 16 17 18
f 16 13 17
f 11 13 16
f 11 12 13
f 13 12 14
f 13 14 8
f 8 14 15
f 8 15 9
f 8 9 5
f 5 9 10
f 5 10 6
f 5 6 4
f 4 6 7
f 4 7 3
f 3 2 4

