# https://github.com/mikedh/trimesh
v -0.00695473 0.02821723 -0.16951093
v -0.00699168 0.02767246 -0.17131224
v -0.00702859 0.02711786 -0.17311056
v -0.00919347 0.01464233 -0.27914783
v -0.00919322 0.01473503 -0.27913797
v -0.00919106 0.01509510 -0.27904153
v -0.00918766 0.01538763 -0.27888271
v -0.00918416 0.01558706 -0.27871636
v -0.00917654 0.01585837 -0.27834886
v -0.00916218 0.01602993 -0.27764821
v -0.00920165 0.00003863 -0.27915189
v -0.00711566 0.02578625 -0.17735295
v -0.00712034 0.02571455 -0.17758039
v -0.00714711 -0.02566740 -0.17749703
v -0.00715306 -0.02557440 -0.17779209
v -0.00715901 -0.02548146 -0.17808715
v -0.00714564 0.02572840 -0.17882466
v -0.00715192 0.02581019 -0.17913492
v -0.00715837 0.02584798 -0.17945351
v -0.00720042 -0.02568223 -0.18011640
v -0.00718614 -0.02552750 -0.17941864
v -0.00810743 -0.01769864 -0.22490236
v -0.00870834 -0.01694641 -0.25444999
v -0.00868960 0.01690658 -0.25445038
v -0.00867125 0.01692622 -0.25354937
v -0.00808785 0.01765880 -0.22490272
v -0.00797547 0.01845015 -0.21940175
v -0.00790321 0.01870901 -0.21585867
v -0.00718598 0.02564333 -0.18080406
v -0.00718603 0.02564255 -0.18080680
v -0.00765809 0.02012768 -0.20385197
v -0.00757137 0.02086976 -0.19961172
v -0.00745128 0.02213446 -0.19374481
v -0.00719924 0.02545774 -0.18145075
v -0.00718720 0.02562619 -0.18086381
v -0.00724457 -0.02525451 -0.18229719
v -0.00733236 -0.02402224 -0.18664452
v -0.00800350 -0.01846625 -0.21977422
v -0.00775197 -0.01965202 -0.20738210
v -0.00766435 -0.02029487 -0.20305955
v -0.00755020 -0.02135013 -0.19742188
v -0.00913237 0.01644192 -0.27619442
v -0.00899842 0.01658029 -0.26961598
v -0.00886445 0.01672081 -0.26303756
v -0.00888300 -0.01676062 -0.26303717
v -0.00901680 -0.01662011 -0.26961559
v -0.00915061 -0.01648173 -0.27619404
v -0.00920967 -0.01445669 -0.27915174
v -0.00915409 0.01611216 -0.27725324
v -0.00914365 0.01635203 -0.27674684
v -0.00916328 -0.01636729 -0.27682027
v -0.00917448 -0.01606157 -0.27737907
v -0.00915977 0.01602963 -0.27752966
v -0.00918051 -0.01595649 -0.27767733
v -0.00918378 -0.01594504 -0.27783859
v -0.00919092 -0.01585594 -0.27819237
v -0.00920159 -0.01550337 -0.27872628
v -0.00919710 -0.01569356 -0.27850047
v -0.00920654 -0.01515546 -0.27897906
v -0.00802117 -0.01848729 -0.22064154
v -0.00803808 -0.01846391 -0.22147360
v -0.00805409 -0.01821272 -0.22226721
v -0.00803488 0.01821463 -0.22231439
v -0.00801668 0.01850022 -0.22142836
v -0.00799774 0.01850034 -0.22049744
v -0.00877394 -0.01726684 -0.25766432
v -0.00879269 -0.01747071 -0.25858068
v -0.00879779 -0.01747568 -0.25883043
v -0.00882116 -0.01721661 -0.25998643
v -0.00880357 0.01723760 -0.26006007
v -0.00877817 0.01753592 -0.25881955
v -0.00875282 0.01729153 -0.25756729
v -0.00709958 0.02624538 -0.17657511
v -0.00707498 0.02694669 -0.17538530
v -0.00704689 0.02705110 -0.17400818
v -0.00871055 0.01688420 -0.25547966
v -0.00873219 0.01697552 -0.25654539
v -0.00884594 0.01674041 -0.26212791
v -0.00882427 0.01687774 -0.26106724
v -0.00873419 -0.01691879 -0.25572029
v -0.00875436 -0.01699584 -0.25670967
v -0.00886014 -0.01678485 -0.26191333
v -0.00884016 -0.01690463 -0.26092836
v -0.00798665 0.01844510 -0.21995099
v -0.00807654 0.01768282 -0.22434776
v -0.00803594 0.01818879 -0.22236630
v -0.00801233 -0.01845791 -0.22020835
v -0.00809316 -0.01772920 -0.22420023
v -0.00807308 -0.01787365 -0.22320940
v -0.00810030 -0.01771375 -0.22455128
v -0.00707508 -0.02703827 -0.17392063
v -0.00709435 -0.02706870 -0.17486639
v -0.00710587 -0.02694165 -0.17543590
v -0.00711541 -0.02674109 -0.17591038
v -0.00713054 -0.02617574 -0.17666928
v -0.00703769 0.02703331 -0.17355555
v -0.00710711 0.02597132 -0.17693777
v -0.00713306 0.02562221 -0.17820363
v -0.00717847 -0.02542077 -0.17904222
v -0.00713816 -0.02587054 -0.17705183
v -0.00706516 -0.02700626 -0.17343415
v -0.00705545 -0.02709293 -0.17295438
v -0.00915682 0.01605052 -0.27738535
v -0.00917899 -0.01596329 -0.27760315
v -0.00698312 -0.02249696 -0.16952501
v -0.00707276 -0.01728876 -0.17407188
v -0.00713566 -0.01119006 -0.17732906
v -0.00717304 0.00003889 -0.17947091
v -0.00716520 -0.00567684 -0.17893066
v -0.00695788 0.02258609 -0.16951250
v -0.00707399 0.01588080 -0.17503560
v -0.00714714 0.00799287 -0.17841543
v -0.00698627 -0.02813913 -0.16952658
v -0.00702089 -0.02762053 -0.17124185
f 14 100 106
f 100 95 106
f 106 95 94
f 106 94 93
f 93 92 106
f 106 92 91
f 106 91 101
f 106 101 102
f 106 102 105
f 105 102 114
f 105 114 113
f 106 15 14
f 106 16 15
f 107 16 106
f 107 99 16
f 109 99 107
f 109 108 99
f 99 108 34
f 35 34 108
f 108 30 35
f 108 29 30
f 19 29 108
f 108 18 19
f 108 17 18
f 112 17 108
f 112 98 17
f 111 98 112
f 111 13 98
f 12 13 111
f 111 97 12
f 73 97 111
f 75 73 111
f 75 111 96
f 96 111 3
f 3 111 2
f 2 111 110
f 2 110 1
f 74 73 75
f 99 34 21
f 21 34 36
f 34 37 36
f 34 41 37
f 33 41 34
f 32 41 33
f 31 41 32
f 31 40 41
f 31 39 40
f 28 39 31
f 28 27 39
f 39 27 84
f 39 84 65
f 65 64 39
f 39 64 63
f 39 63 86
f 39 86 38
f 38 86 85
f 38 85 87
f 85 60 87
f 85 61 60
f 62 61 85
f 85 89 62
f 85 88 89
f 26 88 85
f 26 90 88
f 22 90 26
f 23 22 26
f 25 23 26
f 24 23 25
f 24 80 23
f 76 80 24
f 76 81 80
f 77 81 76
f 77 66 81
f 67 66 77
f 77 68 67
f 77 69 68
f 83 69 77
f 77 82 83
f 77 45 82
f 72 45 77
f 72 71 45
f 45 71 70
f 70 79 45
f 45 79 78
f 45 78 46
f 46 78 47
f 78 51 47
f 78 52 51
f 44 52 78
f 44 104 52
f 43 104 44
f 43 42 104
f 104 42 50
f 50 49 104
f 104 49 103
f 104 103 54
f 54 103 11
f 53 11 103
f 4 11 53
f 53 5 4
f 53 6 5
f 7 6 53
f 53 8 7
f 53 9 8
f 10 9 53
f 54 11 55
f 11 56 55
f 11 58 56
f 48 58 11
f 48 57 58
f 59 57 48
f 21 36 20

