# https://github.com/mikedh/trimesh
v 0.03938440 -0.00093883 -0.20220047
v 0.03412247 0.00206362 -0.24099420
v 0.03422545 0.00221579 -0.24023576
v 0.03431292 0.00264929 -0.23959279
v 0.03799690 0.01056185 -0.21247245
v 0.03804631 0.01092784 -0.21210976
v 0.03811361 0.01106179 -0.21161430
v 0.03865140 0.01106153 -0.20765062
v 0.03871856 0.01092753 -0.20715515
v 0.03876757 0.01056147 -0.20679246
v 0.03873477 -0.01064562 -0.20694977
v 0.03869104 -0.01086237 -0.20727125
v 0.03803460 -0.01080420 -0.21210960
v 0.03798559 -0.01043815 -0.21247230
v 0.03490866 -0.00593816 -0.23516789
v 0.03796785 -0.00993814 -0.21260507
v 0.03439245 0.00406349 -0.23901230
v 0.03439325 0.00556209 -0.23901232
v 0.03878154 0.00306146 -0.20665964
v 0.03878531 0.01006146 -0.20665969
v 0.03485926 -0.00630416 -0.23553060
v 0.03810175 -0.01093821 -0.21161413
v 0.03863955 -0.01093847 -0.20765047
v 0.03440369 0.00594477 -0.23893689
v 0.03443301 0.00626918 -0.23872210
v 0.03881702 0.00206144 -0.20639412
v 0.03891505 0.00132935 -0.20566870
v 0.03904936 0.00106133 -0.20467779
v 0.03938548 0.00106117 -0.20220049
v 0.03442633 -0.00614504 -0.23872200
v 0.03440508 -0.00593791 -0.23887949
v 0.03493287 0.00556184 -0.23503523
v 0.03797862 0.01006186 -0.21260522
v 0.03492308 0.00594017 -0.23510888
v 0.03489387 0.00626897 -0.23532546
v 0.03387363 0.00206379 -0.24282818
v 0.03437156 0.00329812 -0.23916318
v 0.03904828 -0.00093866 -0.20467776
v 0.03894530 -0.00109086 -0.20543619
v 0.03885783 -0.00152436 -0.20607914
v 0.03797162 -0.00293814 -0.21260512
v 0.03793612 -0.00193812 -0.21287064
v 0.03783809 -0.00120602 -0.21359605
v 0.03438732 -0.00543790 -0.23901224
v 0.03438813 -0.00393651 -0.23901226
v 0.03435265 -0.00293652 -0.23927777
v 0.03431103 -0.00252897 -0.23958611
v 0.03479197 -0.00643811 -0.23602605
v 0.03452124 -0.00643797 -0.23802131
v 0.03445409 -0.00630395 -0.23851678
v 0.03447675 0.00648594 -0.23840062
v 0.03452823 0.00656202 -0.23802140
v 0.03479895 0.00656190 -0.23602615
v 0.03484979 0.00648755 -0.23565127
v 0.03876409 -0.01032121 -0.20673497
v 0.03877454 -0.00993853 -0.20665956
v 0.03877830 -0.00293853 -0.20665960
v 0.03879919 -0.00217317 -0.20650874
v 0.03770380 -0.00093800 -0.21458697
v 0.03492829 -0.00293665 -0.23503515
v 0.03492695 -0.00543817 -0.23503514
v 0.03500781 -0.00152248 -0.23445469
v 0.03494917 -0.00217131 -0.23488431
v 0.03509528 -0.00108898 -0.23381174
v 0.03519826 -0.00093680 -0.23305333
v 0.03425463 -0.00220442 -0.24000315
v 0.03412032 -0.00193639 -0.24099405
v 0.03387146 -0.00193620 -0.24282826
v 0.03493151 0.00306334 -0.23503520
v 0.03495158 0.00229797 -0.23488434
v 0.03500952 0.00164909 -0.23445472
v 0.03509652 0.00121550 -0.23381177
v 0.03519934 0.00106321 -0.23305334
v 0.03797484 0.00306186 -0.21260516
v 0.03789532 0.00164769 -0.21318561
v 0.03795396 0.00229650 -0.21275601
v 0.03780785 0.00121419 -0.21382858
v 0.03770487 0.00106198 -0.21458699
v 0.01886520 0.00330656 -0.23705927
v 0.01880930 0.00265772 -0.23748924
v 0.02204160 0.00107044 -0.21246178
v 0.01969231 0.00107158 -0.23064750
v 0.02229892 0.00306999 -0.21047825
v 0.02227900 0.00230495 -0.21062922
v 0.01900759 -0.00642957 -0.23591641
v 0.01926557 -0.00642968 -0.23391943
v 0.01640567 0.00207368 -0.25609311
v 0.01635835 0.00177372 -0.25645810
v 0.01635652 -0.00162628 -0.25645816
v 0.01888512 0.00407192 -0.23690826
v 0.01888593 0.00557050 -0.23690827
v 0.01939422 -0.00542976 -0.23292765
v 0.01938972 -0.00568856 -0.23296145
v 0.01937680 -0.00592973 -0.23306052
v 0.01932971 -0.00629574 -0.23342353
v 0.01888000 -0.00542950 -0.23690821
v 0.01888933 -0.00580784 -0.23683448
v 0.01891716 -0.00613663 -0.23661770
v 0.01872419 -0.00208207 -0.23812835
v 0.01640349 -0.00192632 -0.25609320
v 0.01862565 -0.00192795 -0.23889172
v 0.01872593 0.00222423 -0.23813277
v 0.01862779 0.00207206 -0.23889187
v 0.02222311 0.00165614 -0.21105920
v 0.02213974 0.00122264 -0.21170272
v 0.01880738 -0.00252052 -0.23748258
v 0.01886240 -0.00317579 -0.23705387
v 0.01888081 -0.00392808 -0.23690820
v 0.01895917 -0.00635521 -0.23629162
v 0.01892383 0.00627758 -0.23661779
v 0.01889589 0.00595317 -0.23683280
v 0.01896552 0.00649434 -0.23629604
v 0.01901459 0.00657044 -0.23591650
v 0.01927257 0.00657031 -0.23391950
v 0.01932101 0.00649596 -0.23354430
v 0.01939083 0.00594858 -0.23300146
v 0.01936302 0.00627738 -0.23321822
v 0.01947310 0.00165746 -0.23234673
v 0.01941790 0.00230635 -0.23277672
v 0.01939881 0.00307173 -0.23292771
v 0.01940015 0.00557025 -0.23292772
v 0.02228724 -0.00241204 -0.21054579
v 0.02226190 -0.00192966 -0.21074395
v 0.02216851 -0.00119757 -0.21146999
v 0.02229570 -0.00292968 -0.21047820
v 0.02306443 -0.00293006 -0.20452753
v 0.02319484 0.00133783 -0.20353578
v 0.02306765 0.00306942 -0.20452757
v 0.02310145 0.00206992 -0.20426182
v 0.02308434 -0.00216470 -0.20437653
v 0.02314024 -0.00151588 -0.20394656
v 0.02322361 -0.00108238 -0.20330305
v 0.02332282 0.00106981 -0.20254399
v 0.02332175 -0.00093018 -0.20254399
v 0.02370719 0.00106963 -0.19956866
v 0.02370611 -0.00093036 -0.19956864
v 0.02204053 -0.00092955 -0.21246177
v 0.01955476 -0.00108060 -0.23170319
v 0.01939558 -0.00292828 -0.23292767
v 0.01941549 -0.00216292 -0.23277669
v 0.01947140 -0.00151410 -0.23234671
v 0.01969122 -0.00092842 -0.23064749
v 0.01965291 -0.00092841 -0.23094413
v 0.01965397 0.00107160 -0.23094414
v 0.01955600 0.00122388 -0.23170322
v 0.03549850 -0.00143707 -0.24380626
v 0.03572686 -0.00143719 -0.24416383
v 0.03550015 0.00156294 -0.24380618
v 0.03572851 0.00156280 -0.24416377
v 0.03549234 0.00175100 -0.24384204
v 0.03572539 0.00163805 -0.24417810
v 0.03571611 0.00170357 -0.24422030
v 0.03546917 0.00191482 -0.24394757
v 0.03570212 0.00174742 -0.24428390
v 0.03543417 0.00202446 -0.24410653
v 0.03568555 0.00176284 -0.24435905
v 0.03539276 0.00206301 -0.24429445
v 0.03571431 -0.00157794 -0.24422039
v 0.03570027 -0.00162176 -0.24428397
v 0.03572366 -0.00151242 -0.24417816
v 0.03568368 -0.00163716 -0.24435915
v 0.03543018 -0.00163700 -0.24550876
v 0.03543204 0.00176300 -0.24550867
v 0.03549050 -0.00162514 -0.24384212
v 0.03546713 -0.00178893 -0.24394765
v 0.03543203 -0.00189851 -0.24410662
v 0.03539056 -0.00193700 -0.24429455
v 0.03616225 -0.01093714 -0.20731433
v 0.03621374 -0.01086104 -0.20693512
v 0.03625748 -0.01064428 -0.20661366
v 0.03628679 -0.01031988 -0.20639884
v 0.03629723 -0.00993720 -0.20632343
v 0.03562446 -0.01093687 -0.21127802
v 0.03549054 -0.00993681 -0.21226895
v 0.03550828 -0.01043682 -0.21213618
v 0.03555730 -0.01080286 -0.21177347
v 0.03379015 -0.00143615 -0.24342954
v 0.03379178 0.00156386 -0.24342947
v 0.03563630 0.01106312 -0.21127817
v 0.03556900 0.01092919 -0.21177363
v 0.03551960 0.01056318 -0.21213633
v 0.03550131 0.01006319 -0.21226910
v 0.03617409 0.01106286 -0.20731449
v 0.03630801 0.01006279 -0.20632356
v 0.03629027 0.01056280 -0.20645633
v 0.03624125 0.01092886 -0.20681904
v 0.03507009 -0.00163677 -0.24628736
v 0.03507195 0.00176322 -0.24628729
v 0.03441695 -0.00163641 -0.24684350
v 0.03441880 0.00176359 -0.24684341
v 0.03378675 0.00175520 -0.24346730
v 0.03377221 0.00191742 -0.24357507
v 0.03375039 0.00202583 -0.24373636
v 0.03372459 0.00206391 -0.24392660
v 0.03513925 0.00206317 -0.24544406
v 0.03483317 0.00206336 -0.24610588
v 0.03427799 0.00206366 -0.24657859
v 0.03427581 -0.00193633 -0.24657869
v 0.03483098 -0.00193665 -0.24610598
v 0.03513705 -0.00193683 -0.24544416
v 0.03372242 -0.00193610 -0.24392670
v 0.03374825 -0.00189805 -0.24373645
v 0.03377019 -0.00178969 -0.24357516
v 0.03378490 -0.00162748 -0.24346739
v 0.03549755 0.00306286 -0.21226904
v 0.03630424 0.00306227 -0.20632352
v 0.03630589 0.00615012 -0.20632353
v 0.03630100 -0.00293772 -0.20632347
v 0.03549431 -0.00293714 -0.21226899
v 0.03629896 -0.00673680 -0.20632344
v 0.03895724 0.00106140 -0.20163779
v 0.03895617 -0.00093860 -0.20163779
f 146 147 148
f 178 146 148
f 177 146 178
f 204 146 177
f 204 164 146
f 146 164 160
f 160 164 165
f 203 165 164
f 202 165 203
f 202 166 165
f 201 166 202
f 201 167 166
f 200 167 201
f 198 200 201
f 198 201 100
f 198 100 189
f 189 100 89
f 189 89 190
f 190 89 88
f 190 88 197
f 196 190 197
f 197 195 196
f 197 194 195
f 87 194 197
f 87 36 194
f 103 36 87
f 103 2 36
f 102 2 103
f 102 3 2
f 80 3 102
f 80 4 3
f 79 4 80
f 79 37 4
f 90 37 79
f 90 17 37
f 17 90 18
f 18 90 91
f 111 18 91
f 111 24 18
f 110 24 111
f 110 25 24
f 112 25 110
f 112 51 25
f 113 51 112
f 113 52 51
f 52 113 53
f 53 113 114
f 115 53 114
f 115 54 53
f 117 54 115
f 117 35 54
f 116 35 117
f 116 34 35
f 121 34 116
f 121 32 34
f 32 121 69
f 69 121 120
f 119 69 120
f 119 70 69
f 118 70 119
f 118 71 70
f 145 71 118
f 145 72 71
f 144 72 145
f 144 73 72
f 82 73 144
f 82 78 73
f 81 78 82
f 105 78 81
f 105 77 78
f 104 77 105
f 104 75 77
f 84 75 104
f 84 76 75
f 205 76 84
f 84 83 205
f 83 128 205
f 205 128 206
f 206 128 129
f 206 129 26
f 26 129 127
f 26 127 27
f 27 127 133
f 27 133 28
f 211 28 133
f 29 28 211
f 211 133 135
f 26 19 206
f 19 207 206
f 19 184 207
f 20 184 19
f 184 20 10
f 184 10 185
f 185 10 9
f 185 9 186
f 186 9 8
f 186 8 183
f 7 183 8
f 179 183 7
f 179 7 6
f 179 6 180
f 180 6 5
f 180 5 181
f 181 5 33
f 181 33 182
f 74 182 33
f 205 182 74
f 205 74 76
f 194 157 195
f 157 156 195
f 195 156 163
f 149 163 156
f 156 151 149
f 156 152 151
f 150 151 152
f 150 152 153
f 153 152 154
f 153 154 155
f 192 153 155
f 192 155 193
f 193 155 157
f 191 153 192
f 155 154 156
f 191 150 153
f 178 150 191
f 154 152 156
f 149 151 150
f 150 148 149
f 149 162 163
f 163 162 187
f 163 187 188
f 188 187 189
f 199 187 162
f 199 162 200
f 198 187 199
f 147 162 149
f 147 161 162
f 167 162 161
f 159 167 161
f 160 159 161
f 158 159 160
f 158 166 159
f 160 161 147
f 195 163 188
f 155 156 157
f 193 157 194
f 195 188 196
f 196 188 190
f 197 88 87
f 188 189 190
f 198 189 187
f 100 201 101
f 68 101 201
f 68 67 101
f 66 101 67
f 66 99 101
f 47 99 66
f 47 106 99
f 46 106 47
f 46 107 106
f 108 107 46
f 46 45 108
f 45 96 108
f 44 96 45
f 96 44 31
f 96 31 97
f 97 31 30
f 97 30 98
f 98 30 50
f 98 50 109
f 109 50 49
f 109 49 85
f 49 86 85
f 48 86 49
f 86 48 21
f 86 21 95
f 95 21 15
f 95 15 94
f 94 15 93
f 93 15 61
f 93 61 92
f 61 139 92
f 60 139 61
f 139 60 63
f 139 63 140
f 140 63 62
f 140 62 141
f 141 62 64
f 141 64 138
f 138 64 65
f 138 65 143
f 143 65 142
f 142 65 59
f 142 59 137
f 137 59 43
f 137 43 124
f 124 43 42
f 124 42 123
f 42 122 123
f 42 125 122
f 209 125 42
f 42 41 209
f 41 16 209
f 209 16 174
f 174 16 14
f 174 14 175
f 175 14 13
f 175 13 176
f 176 13 22
f 176 22 173
f 22 23 173
f 173 23 168
f 168 23 12
f 168 12 169
f 169 12 11
f 169 11 170
f 170 11 55
f 170 55 171
f 171 55 56
f 171 56 172
f 56 210 172
f 56 208 210
f 57 208 56
f 208 57 58
f 208 58 130
f 130 126 208
f 126 125 208
f 130 58 40
f 130 40 131
f 131 40 39
f 131 39 132
f 132 39 38
f 132 38 134
f 212 134 38
f 212 38 1
f 136 134 212
f 208 125 209
f 199 200 198
f 200 162 167
f 159 166 167
f 158 165 166
f 160 165 158
f 203 164 204
f 178 148 150
f 160 147 146
f 148 147 149
f 205 206 207
f 183 205 207
f 183 207 184
f 184 186 183
f 185 186 184
f 179 205 183
f 179 182 205
f 181 182 179
f 179 180 181
f 29 211 1
f 1 211 212
f 135 212 211
f 136 212 135

