# https://github.com/mikedh/trimesh
v 0.04014580 -0.00666252 -0.01698439
v 0.04018132 -0.00782253 -0.01646485
v 0.04015011 -0.00882767 -0.01591479
v 0.04018129 -0.00890711 -0.01587992
v 0.04015022 -0.00890131 -0.01587241
v 0.04015014 -0.00884605 -0.01590427
v 0.04015011 -0.00883222 -0.01591220
v 0.04015054 -0.00912132 -0.01574310
v 0.04018082 -0.01000032 -0.01519476
v 0.04015147 -0.00998338 -0.01519584
v 0.04018054 -0.01057802 -0.01478793
v 0.04015185 -0.01198046 -0.01363861
v 0.04017995 -0.01200167 -0.01362996
v 0.04017990 -0.01217845 -0.01346849
v 0.04015151 -0.01310988 -0.01252948
f 1 2 3
f 4 3 2
f 4 7 3
f 6 7 4
f 4 5 6
f 5 4 8
f 8 4 9
f 8 9 10
f 10 9 11
f 10 11 12
f 11 13 12
f 12 13 14
f 12 14 15

