# https://github.com/mikedh/trimesh
v 0.00190613 -0.02552179 -0.06762587
v -0.00108361 -0.02555661 -0.06762587
v -0.00365014 -0.02537331 -0.06762587
v -0.01525478 -0.02176005 -0.06762587
v -0.00699371 -0.02482018 -0.06762587
v -0.00961404 -0.02412637 -0.06762587
v -0.01023796 -0.02392556 -0.06762587
v -0.01280440 -0.02294569 -0.06762587
v 0.01526064 -0.02176005 -0.06762587
v 0.01391864 -0.02244131 -0.06762587
v 0.01219664 -0.02320335 -0.06762587
v 0.00901520 -0.02430776 -0.06762587
v 0.00806366 -0.02456705 -0.06762587
v 0.00634416 -0.02495741 -0.06762587
v 0.00298595 -0.02544144 -0.06762587
f 15 1 6
f 1 2 6
f 6 2 3
f 6 3 5
f 6 14 15
f 6 13 14
f 7 13 6
f 8 13 7
f 4 13 8
f 4 12 13
f 11 12 4
f 4 10 11
f 9 10 4

