# https://github.com/mikedh/trimesh
v -0.02318222 0.01245165 -0.07062586
v -0.01200000 -0.01454461 -0.07062586
v 0.02318222 0.01245165 -0.07062586
v 0.02400000 0.00624000 -0.07062586
v 0.01697056 0.02321056 -0.07062586
v 0.02078461 0.01824000 -0.07062586
v -0.01697056 0.02321056 -0.07062586
v -0.02078461 0.01824000 -0.07062586
v 0.02318222 0.00002834 -0.07062586
v 0.02078461 -0.00576000 -0.07062586
v 0.01697056 -0.01073057 -0.07062586
v 0.01200000 0.02702461 -0.07062586
v 0.00621166 0.02942222 -0.07062586
v -0.01200000 0.02702461 -0.07062586
v -0.02318222 0.00002834 -0.07062586
v -0.02400000 0.00624000 -0.07062586
v -0.02078461 -0.00576000 -0.07062586
v -0.01697056 -0.01073057 -0.07062586
v -0.00621166 -0.01694222 -0.07062586
v 0.01200000 -0.01454461 -0.07062586
v 0.00621166 -0.01694222 -0.07062586
v -0.00000000 0.03024000 -0.07062586
v -0.00621166 0.02942222 -0.07062586
v -0.00000000 -0.01776000 -0.07062586
v -0.00000000 -0.01776000 -0.10320000
v -0.00621166 -0.01694222 -0.10320000
v -0.01200000 -0.01454461 -0.10320000
v -0.01697056 -0.01073057 -0.10320000
v -0.02078461 -0.00576000 -0.10320000
v -0.02318222 0.00002834 -0.10320000
v -0.02400000 0.00624000 -0.10320000
v -0.02318222 0.01245165 -0.10320000
v -0.02078461 0.01824000 -0.10320000
v -0.01697056 0.02321056 -0.10320000
v -0.01200000 0.02702461 -0.10320000
v -0.00621166 0.02942222 -0.10320000
v -0.00000000 0.03024000 -0.10320000
v 0.00621166 0.02942222 -0.10320000
v 0.01200000 0.02702461 -0.10320000
v 0.01697056 0.02321056 -0.10320000
v 0.02078461 0.01824000 -0.10320000
v 0.02318222 0.01245165 -0.10320000
v 0.02400000 0.00624000 -0.10320000
v 0.02318222 0.00002834 -0.10320000
v 0.02078461 -0.00576000 -0.10320000
v 0.01697056 -0.01073057 -0.10320000
v 0.01200000 -0.01454461 -0.10320000
v 0.00621166 -0.01694222 -0.10320000
f 25 19 26
f 26 19 2
f 26 2 27
f 27 2 18
f 27 18 28
f 28 18 17
f 28 17 29
f 29 17 15
f 29 15 30
f 30 15 16
f 30 16 31
f 31 16 1
f 31 1 32
f 32 1 8
f 32 8 33
f 33 8 7
f 33 7 34
f 34 7 14
f 34 14 35
f 35 14 23
f 35 23 36
f 36 23 22
f 36 22 37
f 37 22 13
f 37 13 38
f 38 13 12
f 38 12 39
f 39 12 5
f 39 5 40
f 40 5 6
f 40 6 41
f 41 6 3
f 41 3 42
f 42 3 4
f 42 4 43
f 43 4 9
f 43 9 44
f 44 9 10
f 44 10 45
f 45 10 11
f 45 11 46
f 46 11 20
f 46 20 47
f 47 20 21
f 47 21 48
f 48 21 24
f 48 24 25
f 25 24 19

