# https://github.com/mikedh/trimesh
v -0.00000000 0.01776000 -0.10320000
v 0.00621166 0.01694222 -0.10320000
v 0.01200000 0.01454461 -0.10320000
v 0.01697056 0.01073057 -0.10320000
v 0.02078461 0.00576000 -0.10320000
v 0.02318222 -0.00002834 -0.10320000
v 0.02400000 -0.00624000 -0.10320000
v 0.02318222 -0.01245165 -0.10320000
v 0.02078461 -0.01824000 -0.10320000
v 0.01697056 -0.02321056 -0.10320000
v 0.01200000 -0.02702461 -0.10320000
v 0.00621166 -0.02942222 -0.10320000
v -0.00000000 -0.03024000 -0.10320000
v -0.00621166 -0.02942222 -0.10320000
v -0.01200000 -0.02702461 -0.10320000
v -0.01697056 -0.02321056 -0.10320000
v -0.02078461 -0.01824000 -0.10320000
v -0.02318222 -0.01245165 -0.10320000
v -0.02400000 -0.00624000 -0.10320000
v -0.02318222 -0.00002834 -0.10320000
v -0.02078461 0.00576000 -0.10320000
v -0.01697056 0.01073057 -0.10320000
v -0.01200000 0.01454461 -0.10320000
v -0.00621166 0.01694222 -0.10320000
v -0.00000000 -0.00624000 -0.10320000
f 17 18 25
f 25 18 19
f 25 19 20
f 20 21 25
f 25 21 22
f 25 22 23
f 23 24 25
f 25 24 1
f 25 1 2
f 2 3 25
f 25 3 4
f 25 4 5
f 5 6 25
f 25 6 7
f 25 7 8
f 8 9 25
f 25 9 10
f 25 10 11
f 11 12 25
f 25 12 13
f 25 13 14
f 14 15 25
f 25 15 16
f 25 16 17

