# https://github.com/mikedh/trimesh
v 0.03090809 0.02058619 0.02514873
v 0.03090567 0.01984108 0.02574066
v 0.03068320 -0.00873797 0.03130333
v 0.03068665 -0.00710934 0.03171290
v 0.03068309 -0.01197804 0.03021220
v 0.03068309 -0.00879892 0.03128625
v 0.03068308 -0.01577685 0.02841375
v 0.03068308 -0.01506590 0.02879704
v 0.03068307 -0.02190424 0.02400948
v 0.03068308 -0.02065584 0.02509157
v 0.03068308 -0.01790333 0.02712418
v 0.03068306 -0.03034977 0.01162503
v 0.03068307 -0.02914969 0.01437167
v 0.03068307 -0.02749003 0.01733632
v 0.03068307 -0.02685077 0.01831082
v 0.03068307 -0.02551286 0.02013315
v 0.03068307 -0.02316235 0.02279816
v 0.03068306 -0.03110892 0.00940667
v 0.03068306 -0.03073886 0.01055331
v 0.03068306 -0.03049101 0.01124934
v 0.03068306 -0.03167880 0.00725971
v 0.03068306 -0.03221261 0.00431253
v 0.03068306 -0.03226360 0.00391282
v 0.03068306 -0.03249580 0.00052250
v 0.03068306 -0.03249928 -0.00021633
v 0.03068306 -0.03247133 -0.00136479
v 0.03068306 -0.03233885 -0.00323244
v 0.03068306 -0.03214850 -0.00476696
v 0.03068306 -0.03161098 -0.00754954
v 0.03068306 -0.03147545 -0.00809606
v 0.03068306 -0.03072170 -0.01060318
v 0.03068306 -0.03053798 -0.01112120
v 0.03068306 -0.03007601 -0.01231598
v 0.03068306 -0.02782705 -0.01679002
v 0.03068306 -0.02919949 -0.01427024
v 0.03068307 -0.02755025 -0.01724046
v 0.03068307 -0.02744833 -0.01740228
v 0.03068307 -0.02550337 -0.02014517
v 0.03068307 -0.02491749 -0.02086549
v 0.03068307 -0.02324163 -0.02271732
v 0.03068307 -0.02269522 -0.02326321
v 0.03068307 -0.02141640 -0.02444561
v 0.03068307 -0.02074298 -0.02501958
v 0.03068308 -0.01801707 -0.02704876
v 0.03068308 -0.01739755 -0.02745133
v 0.03068308 -0.01671860 -0.02787002
v 0.03068308 -0.01441192 -0.02912982
v 0.03068308 -0.01298415 -0.02979364
v 0.03068308 -0.01129206 -0.03047522
v 0.03068308 -0.00984068 -0.03097435
v 0.03068309 -0.00804815 -0.03148772
v 0.03068309 -0.00733029 -0.03166254
v 0.03068309 -0.00395736 -0.03225817
v 0.03068309 -0.00332628 -0.03232934
v 0.03068309 -0.00243225 -0.03240885
v 0.03068309 -0.00056805 -0.03249504
v 0.03068310 0.00167959 -0.03245657
v 0.03068310 0.00282815 -0.03237673
v 0.03068310 0.00356341 -0.03230407
v 0.03068310 0.00510731 -0.03209620
v 0.03068310 0.00694335 -0.03174965
v 0.03068311 0.01022002 -0.03085127
v 0.03068311 0.01145379 -0.03041481
v 0.03068311 0.01237154 -0.03005319
v 0.03068312 0.01896881 -0.02639004
v 0.03068311 0.01705007 -0.02766847
v 0.03068311 0.01599011 -0.02829429
v 0.03068311 0.01405536 -0.02930354
v 0.03068311 0.01338560 -0.02961545
v 0.03068312 0.01984739 -0.02573579
v 0.03068312 0.02069186 -0.02506187
v 0.03067430 0.02319652 -0.02276336
v 0.03067151 0.02352476 -0.02242400
v 0.03065940 0.02454348 -0.02130415
v 0.03063619 0.02573532 -0.01984801
v 0.03062856 0.02602384 -0.01946818
v 0.03054815 0.02786419 -0.01672833
v 0.03046834 0.02879530 -0.01506918
v 0.03026084 0.03237991 -0.00279136
v 0.03044099 0.03249544 -0.00054439
v 0.03001291 0.03191283 -0.00614985
v 0.02997558 0.03154495 -0.00782086
v 0.02997709 0.03149407 -0.00802334
v 0.03010242 0.03071697 -0.01061686
v 0.03035098 0.02959238 -0.01343655
v 0.03038767 0.02938830 -0.01387726
v 0.03068293 0.03227620 0.00380750
v 0.03051610 0.03249526 0.00055460
v 0.03078186 0.03174493 0.00696487
v 0.03078675 0.03169981 0.00716747
v 0.03084786 0.03078054 0.01043112
v 0.03088417 0.02952354 0.01358716
v 0.03088729 0.02935378 0.01395009
v 0.03088851 0.02928302 0.01409803
v 0.03090589 0.02772322 0.01696093
v 0.03091380 0.02524246 0.02047116
v 0.03091311 0.02580130 0.01976217
v 0.03091385 0.02359668 0.02234832
v 0.03091341 0.02311835 0.02284277
v 0.03084960 0.01110459 0.03054405
v 0.03086890 0.01337004 0.02962250
v 0.03087578 0.01425730 0.02920581
v 0.03088054 0.01491526 0.02887533
v 0.03089756 0.01784851 0.02716027
v 0.03080299 0.00617823 0.03190736
v 0.03081944 0.00785522 0.03153641
v 0.03078601 0.00451936 0.03218425
v 0.03077832 0.00378832 0.03227846
v 0.03074179 0.00037122 0.03249789
v 0.03072448 -0.00134663 0.03247209
v 0.03070962 -0.00302226 0.03235916
v 0.03068920 -0.00638324 0.03186698
v 0.03103571 0.02610271 0.00607390
v 0.03103592 0.02389063 0.01214419
v 0.03103594 0.02029011 0.01750869
v 0.03103595 0.01551041 0.02185566
v 0.03103595 0.00982931 0.02493245
v 0.03103594 0.00357695 0.02656029
v 0.03103592 -0.00288328 0.02664451
v 0.03103591 -0.00917594 0.02518026
v 0.03103588 -0.01493534 0.02225263
v 0.03103585 -0.01982674 0.01803173
v 0.03103582 -0.02356589 0.01276291
v 0.03103579 -0.02593547 0.00675235
v 0.03103576 -0.02679778 0.00034938
v 0.03103571 -0.02610270 -0.00607388
v 0.03103572 -0.02389063 -0.01214417
v 0.03103570 -0.02029011 -0.01750871
v 0.03103570 -0.01551042 -0.02185567
v 0.03103570 -0.00982931 -0.02493246
v 0.03103570 -0.00357696 -0.02656030
v 0.03103572 0.00288327 -0.02664452
v 0.03103574 0.00917594 -0.02518027
v 0.03103576 0.01493533 -0.02225261
v 0.03103579 0.01982674 -0.01803174
v 0.03103582 0.02356589 -0.01276292
v 0.03103585 0.02593547 -0.00675236
v 0.03103588 0.02679779 -0.00034939
v 0.03103567 -0.01707557 -0.02694457
v 0.03103567 -0.01938367 -0.02533492
v 0.03103597 0.00650980 0.03122790
v 0.03103597 0.00714919 0.03108741
v 0.03103593 0.02995184 0.01097242
v 0.03103593 0.03016725 0.01036642
v 0.03103594 -0.00530778 0.03145466
v 0.03103594 -0.00354371 0.03170116
v 0.03103595 -0.00016162 0.03189833
v 0.03103596 0.00319292 0.03173972
v 0.03103590 0.03177953 0.00276227
v 0.03103578 0.03167970 0.00373716
v 0.03103592 0.03109336 0.00712786
v 0.03103594 0.02862369 0.01407881
v 0.03103595 0.02698420 0.01701210
v 0.03103596 0.02502325 0.01978175
v 0.03103597 0.01705180 0.02695824
v 0.03103597 0.01981947 0.02499382
v 0.03103597 0.02233914 0.02277071
v 0.03103596 0.02461225 0.02029092
v 0.03103597 0.01040614 0.03015281
v 0.03103597 0.01351841 0.02889324
v 0.03103597 0.01647471 0.02731518
v 0.03103567 -0.00857673 0.03072483
v 0.03103592 -0.01190681 0.02959372
v 0.03103591 -0.01495870 0.02817441
v 0.03103589 -0.01786437 0.02642776
v 0.03103567 -0.00990507 -0.03032284
v 0.03103567 -0.01304500 -0.02911036
v 0.03103567 -0.01604078 -0.02757316
v 0.03103567 -0.01658299 -0.02725049
v 0.03103570 0.00469883 -0.03155165
v 0.03103570 0.00407387 -0.03163840
v 0.03103588 -0.02066507 0.02430058
v 0.03103587 -0.02147761 0.02358551
v 0.03103568 -0.02426334 -0.02070927
v 0.03103568 -0.02194527 -0.02315145
v 0.03103567 -0.02101207 -0.02400162
v 0.03103568 -0.00325335 -0.03173329
v 0.03103568 -0.00600975 -0.03132840
v 0.03103568 -0.00662819 -0.03120341
v 0.03103567 -0.00808956 -0.03085684
v 0.03103579 -0.03069838 0.00867070
v 0.03103577 -0.03144078 0.00538982
v 0.03103585 -0.02531357 0.01941107
v 0.03103585 -0.02445078 0.02048717
v 0.03103586 -0.02311050 0.02198792
v 0.03103580 -0.03031186 0.00993789
v 0.03103581 -0.02908476 0.01310138
v 0.03103572 -0.03102423 -0.00742130
v 0.03103573 -0.03152845 -0.00485118
v 0.03103575 -0.03187084 -0.00135099
v 0.03103576 -0.03183373 0.00204642
v 0.03103568 -0.02466819 -0.02022534
v 0.03103569 -0.02667535 -0.01749309
v 0.03103569 -0.02730698 -0.01648971
v 0.03103570 -0.02837000 -0.01458507
v 0.03103569 0.00166008 -0.03185638
v 0.03103569 0.00069025 -0.03189214
v 0.03103568 -0.00267403 -0.03178735
v 0.03103575 0.02030957 -0.02459883
v 0.03103575 0.01759573 -0.02660774
v 0.03103574 0.01570474 -0.02776586
v 0.03103583 0.02884430 -0.01362278
v 0.03103581 0.02725230 -0.01657574
v 0.03103571 -0.02951596 -0.01209911
v 0.03103571 -0.02980312 -0.01137339
v 0.03103572 -0.03084183 -0.00814619
v 0.03103571 0.00799842 -0.03088056
v 0.03103571 0.00653410 -0.03122323
v 0.03103574 0.01469103 -0.02831530
v 0.03103573 0.01431664 -0.02850642
v 0.03103572 0.01120775 -0.02986585
v 0.03103583 -0.02754234 0.01609308
v 0.03103583 -0.02698089 0.01701761
v 0.03103584 -0.02569254 0.01890660
v 0.03103589 0.03189379 -0.00060092
v 0.03103587 0.03165166 -0.00396877
v 0.03103581 0.02701409 -0.01696061
v 0.03103579 0.02506645 -0.01972388
v 0.03103578 0.02278789 -0.02231993
v 0.03103586 0.03116866 -0.00678914
v 0.03103585 0.03027997 -0.01003500
v 0.03103575 0.02904566 -0.01318835
v 0.03085950 -0.02467718 0.02068455
v 0.03085950 -0.03219029 0.00077350
v 0.03085950 -0.03179473 0.00508995
v 0.03085950 -0.02723171 0.01718275
v 0.03085950 -0.02929278 0.01336960
v 0.03085950 -0.03082303 0.00931416
v 0.03085950 -0.02167547 0.02381153
v 0.03085950 -0.01828097 0.02650700
v 0.03085950 -0.01455520 0.02872215
v 0.03085950 -0.01056568 0.03041680
v 0.03085941 -0.03209574 -0.00258561
v 0.03085941 0.00166983 -0.03215646
v 0.03085941 0.01584743 -0.02803009
v 0.03085941 0.01996526 -0.02526294
v 0.03085941 0.01135339 -0.03013184
v 0.03085941 0.00658983 -0.03151824
v 0.03085941 -0.00328981 -0.03203126
v 0.03085941 -0.00817136 -0.03114568
v 0.03085941 -0.01285891 -0.02952071
v 0.03085941 -0.01724120 -0.02719494
v 0.03085941 -0.02121419 -0.02422356
v 0.03085941 -0.02468357 -0.02067714
v 0.03085941 -0.02756697 -0.01663985
v 0.03085941 -0.02979594 -0.01220753
v 0.03085941 -0.03131757 -0.00748541
v 0.03069344 0.02931911 -0.01331248
f 139 140 129
f 176 129 140
f 243 176 140
f 243 175 176
f 244 175 243
f 243 40 244
f 244 40 39
f 244 39 38
f 245 244 38
f 245 38 37
f 37 36 245
f 245 36 34
f 245 34 35
f 246 245 35
f 246 35 33
f 33 32 246
f 246 32 31
f 246 31 247
f 247 206 246
f 247 188 206
f 126 206 188
f 126 205 206
f 127 205 126
f 127 204 205
f 195 204 127
f 246 204 195
f 127 194 195
f 195 194 245
f 245 194 193
f 127 193 194
f 128 193 127
f 128 192 193
f 174 192 128
f 174 128 175
f 175 128 129
f 244 192 174
f 193 192 244
f 246 205 204
f 188 189 126
f 126 189 190
f 190 189 233
f 233 26 190
f 233 27 26
f 28 27 233
f 233 247 28
f 28 247 29
f 247 30 29
f 190 26 25
f 190 25 224
f 190 224 191
f 191 224 225
f 191 225 182
f 228 182 225
f 228 225 21
f 21 225 22
f 225 23 22
f 225 24 23
f 21 18 228
f 228 18 19
f 19 20 228
f 228 20 12
f 228 12 227
f 227 12 13
f 227 13 14
f 227 14 226
f 226 212 227
f 227 212 187
f 187 212 123
f 124 187 123
f 124 186 187
f 181 186 124
f 228 186 181
f 181 124 182
f 182 124 125
f 228 187 186
f 123 212 213
f 123 213 122
f 122 213 214
f 226 214 213
f 223 214 226
f 223 183 214
f 184 183 223
f 185 184 223
f 185 223 229
f 229 223 17
f 229 17 9
f 10 229 9
f 10 230 229
f 172 229 230
f 172 230 165
f 165 230 231
f 165 231 164
f 164 231 163
f 163 120 164
f 164 120 121
f 162 120 163
f 163 232 162
f 232 6 162
f 162 6 3
f 162 3 4
f 162 4 145
f 145 4 112
f 145 112 146
f 146 112 111
f 146 111 147
f 119 146 147
f 119 147 118
f 118 147 148
f 118 148 141
f 141 142 118
f 118 142 117
f 142 159 117
f 117 159 160
f 100 160 159
f 100 159 106
f 101 160 100
f 102 160 101
f 103 160 102
f 103 161 160
f 116 160 161
f 116 161 155
f 155 156 116
f 116 156 157
f 156 99 157
f 157 99 98
f 157 98 158
f 158 98 96
f 158 96 154
f 115 158 154
f 153 115 154
f 153 114 115
f 152 114 153
f 153 95 152
f 152 95 94
f 94 93 152
f 152 93 92
f 152 92 143
f 143 113 152
f 113 143 144
f 143 91 144
f 144 91 151
f 151 91 90
f 151 90 89
f 87 151 89
f 151 87 150
f 150 113 151
f 150 138 113
f 149 138 150
f 149 215 138
f 138 215 216
f 138 216 137
f 216 220 137
f 137 220 221
f 137 221 136
f 136 221 222
f 248 222 221
f 221 83 248
f 221 82 83
f 248 83 84
f 248 84 85
f 248 85 86
f 86 222 248
f 86 202 222
f 78 202 86
f 78 203 202
f 77 203 78
f 77 217 203
f 77 218 217
f 136 217 218
f 136 218 135
f 135 218 219
f 218 74 219
f 218 75 74
f 76 75 218
f 73 219 74
f 72 219 73
f 72 199 219
f 71 199 72
f 236 199 71
f 71 70 236
f 236 70 65
f 236 65 235
f 235 200 236
f 235 201 200
f 235 209 201
f 210 209 235
f 210 235 237
f 235 68 237
f 237 68 69
f 237 69 64
f 64 63 237
f 237 63 62
f 237 62 238
f 238 207 237
f 238 208 207
f 238 170 208
f 171 170 238
f 170 171 132
f 171 196 132
f 132 196 197
f 132 197 131
f 131 197 198
f 239 198 197
f 177 198 239
f 177 239 178
f 177 178 131
f 131 178 179
f 131 179 130
f 130 179 180
f 130 180 166
f 240 166 180
f 241 166 240
f 241 167 166
f 168 167 241
f 130 167 168
f 130 168 129
f 129 168 169
f 169 168 242
f 242 139 169
f 168 241 242
f 242 241 47
f 241 48 47
f 241 49 48
f 242 47 46
f 46 45 242
f 242 45 44
f 242 44 243
f 243 44 43
f 243 43 42
f 42 41 243
f 240 49 241
f 240 50 49
f 51 50 240
f 240 52 51
f 240 53 52
f 239 53 240
f 239 54 53
f 55 54 239
f 239 56 55
f 239 234 56
f 234 57 56
f 234 58 57
f 59 58 234
f 234 238 59
f 59 238 60
f 238 61 60
f 166 167 130
f 240 180 179
f 178 240 179
f 178 239 240
f 197 234 239
f 131 198 177
f 197 196 234
f 196 171 234
f 234 171 238
f 132 208 170
f 132 207 208
f 133 207 132
f 133 211 207
f 133 210 211
f 134 210 133
f 237 207 211
f 238 62 61
f 235 67 68
f 235 66 67
f 237 211 210
f 134 209 210
f 201 209 134
f 134 200 201
f 134 199 200
f 135 199 134
f 235 65 66
f 236 200 199
f 135 219 199
f 76 218 77
f 203 217 136
f 202 203 136
f 136 222 202
f 220 82 221
f 220 81 82
f 216 81 220
f 216 79 81
f 80 79 216
f 215 80 216
f 215 88 80
f 87 88 215
f 149 87 215
f 149 150 87
f 151 113 144
f 143 92 91
f 153 97 95
f 152 113 114
f 154 97 153
f 154 96 97
f 115 157 158
f 156 1 99
f 2 1 156
f 2 156 104
f 116 157 115
f 104 156 155
f 104 155 161
f 104 161 103
f 117 160 116
f 106 159 142
f 106 142 141
f 141 105 106
f 141 107 105
f 148 107 141
f 148 108 107
f 148 109 108
f 147 109 148
f 147 110 109
f 111 110 147
f 145 146 119
f 145 119 162
f 232 5 6
f 231 5 232
f 231 8 5
f 7 8 231
f 7 231 11
f 162 119 120
f 163 231 232
f 164 121 165
f 11 231 230
f 165 121 172
f 172 121 122
f 172 122 173
f 122 185 173
f 173 229 172
f 11 230 10
f 223 16 17
f 223 15 16
f 229 173 185
f 122 184 185
f 183 184 122
f 226 15 223
f 122 214 183
f 226 213 212
f 226 14 15
f 227 187 228
f 181 182 228
f 125 191 182
f 224 24 225
f 125 190 191
f 224 25 24
f 233 189 247
f 126 190 125
f 189 188 247
f 246 206 205
f 247 31 30
f 195 245 246
f 193 244 245
f 243 41 40
f 244 174 175
f 243 140 242
f 175 129 176
f 242 140 139
f 129 169 139

