# https://github.com/mikedh/trimesh

o OpenSCAD_Model
v 11.00300000 -10.63510000 0.00000000
v 12.38420000 -8.98906000 0.00000000
v 12.55850000 -9.65343000 0.00000000
v 12.19650000 -8.43224000 0.00000000
v 10.42200000 -10.54700000 0.00000000
v 11.68750000 -10.69140000 0.00000000
v 12.00500000 -7.96576000 0.00000000
v 9.92937000 -10.43940000 0.00000000
v 11.81620000 -7.57533000 0.00000000
v 9.51212000 -10.32130000 0.00000000
v 11.63470000 -7.24934000 0.00000000
v 9.15955000 -10.19910000 0.00000000
v 11.46350000 -6.97809000 0.00000000
v 8.86271000 -10.07760000 0.00000000
v 11.30470000 -6.75364000 0.00000000
v 8.61408000 -9.96023000 0.00000000
v 11.15980000 -6.56929000 0.00000000
v 8.40735000 -9.84947000 0.00000000
v 11.02960000 -6.41953000 0.00000000
v 8.23726000 -9.74730000 0.00000000
v 10.91500000 -6.29967000 0.00000000
v 8.09932000 -9.65525000 0.00000000
v 10.81650000 -6.20580000 0.00000000
v 10.58420000 -6.02392000 0.00000000
v 10.73470000 -6.13458000 0.00000000
v 10.66990000 -6.08314000 0.00000000
v 10.62280000 -6.04896000 0.00000000
v 10.59400000 -6.02989000 0.00000000
v 5.06155000 1.35624000 0.00000000
v 9.43556000 1.72391000 0.00000000
v 5.19420000 0.68936800 0.00000000
v 7.77034000 -9.37738000 0.00000000
v 8.32898000 -4.74038000 0.00000000
v 9.41565000 1.87220000 0.00000000
v 7.98980000 -9.57456000 0.00000000
v 9.10676000 3.03755000 0.00000000
v 7.90545000 -9.50631000 0.00000000
v 5.05978000 1.36145000 0.00000000
v 7.84354000 -9.45149000 0.00000000
v 4.84122000 2.00530000 0.00000000
v 7.80169000 -9.41106000 0.00000000
v 8.65425000 4.15497000 0.00000000
v 7.77033000 9.37738000 0.00000000
v 8.32707000 4.73928000 0.00000000
v 6.11334000 7.37769000 0.00000000
v 7.77790000 -9.38599000 0.00000000
v 6.11327000 -7.37759000 0.00000000
v 8.23728000 9.74729000 0.00000000
v 8.09934000 9.65524000 0.00000000
v 7.90543000 9.50630000 0.00000000
v 7.84353000 9.45149000 0.00000000
v 4.15362000 -3.19411000 0.00000000
v 3.18997000 -4.15725000 0.00000000
v 5.70302000 -7.72239000 0.00000000
v 7.80169000 9.41105000 0.00000000
v 7.77791000 9.38598000 0.00000000
v 5.23974000 -0.00549204 0.00000000
v 5.24010000 0.00000000 0.00000000
v 5.19527000 -0.68396900 0.00000000
v 5.19420000 -0.68936800 0.00000000
v 5.06155000 -1.35624000 0.00000000
v 5.05978000 -1.36145000 0.00000000
v 4.84122000 -2.00530000 0.00000000
v 2.62005000 -4.53806000 0.00000000
v 4.69018000 -8.37628000 0.00000000
v 4.54049000 -2.61511000 0.00000000
v 4.53806000 -2.62005000 0.00000000
v 4.16031000 -3.18539000 0.00000000
v 4.15725000 -3.18997000 0.00000000
v 3.70531000 -3.70531000 0.00000000
v 2.00530000 -4.84122000 0.00000000
v 3.60337000 -8.89807000 0.00000000
v 3.33431000 -8.98781000 0.00000000
v 3.19411000 -4.15362000 0.00000000
v 15.82550000 -0.67751600 0.00000000
v 15.26490000 1.07439000 0.00000000
v 15.82550000 0.67750800 0.00000000
v 15.26490000 -1.07441000 0.00000000
v 14.76320000 -1.38029000 0.00000000
v 14.76320000 1.38027000 0.00000000
v 14.31660000 1.61452000 0.00000000
v 14.31660000 -1.61454000 0.00000000
v 13.92110000 1.79227000 0.00000000
v 13.92110000 -1.79228000 0.00000000
v 13.57250000 -1.92534000 0.00000000
v 13.57250000 1.92532000 0.00000000
v 13.26700000 -2.02309000 0.00000000
v 13.26700000 2.02308000 0.00000000
v 13.00110000 2.09295000 0.00000000
v 13.00110000 -2.09296000 0.00000000
v 12.77150000 2.14099000 0.00000000
v 12.77150000 -2.14099000 0.00000000
v 12.57560000 -2.17207000 0.00000000
v 12.57560000 2.17204000 0.00000000
v 12.41070000 2.19018000 0.00000000
v 12.41070000 -2.19021000 0.00000000
v 12.27500000 -2.19880000 0.00000000
v 12.27500000 2.19880000 0.00000000
v 11.98010000 -2.18881000 0.00000000
v 12.16650000 -2.20074000 0.00000000
v 12.08380000 -2.19854000 0.00000000
v 11.98010000 2.18881000 0.00000000
v 12.02580000 -2.19445000 0.00000000
v 12.16650000 2.20074000 0.00000000
v 12.08380000 2.19853000 0.00000000
v 12.02580000 2.19444000 0.00000000
v 11.99140000 -2.19055000 0.00000000
v 11.99140000 2.19054000 0.00000000
v 9.44367000 -1.72539000 0.00000000
v 9.15295000 -2.89538000 0.00000000
v 8.71788000 -4.01973000 0.00000000
v 5.23974000 0.00549204 0.00000000
v 5.19527000 0.68396900 0.00000000
v 11.00300000 10.63510000 0.00000000
v 12.38420000 8.98906000 0.00000000
v 12.19650000 8.43225000 0.00000000
v 10.42210000 10.54700000 0.00000000
v 12.00500000 7.96574000 0.00000000
v 9.92937000 10.43940000 0.00000000
v 11.81620000 7.57533000 0.00000000
v 12.55850000 9.65341000 0.00000000
v 9.51212000 10.32130000 0.00000000
v 11.63470000 7.24933000 0.00000000
v 9.15956000 10.19910000 0.00000000
v 11.46350000 6.97809000 0.00000000
v 8.86271000 10.07760000 0.00000000
v 11.30470000 6.75362000 0.00000000
v 8.61408000 9.96023000 0.00000000
v 11.15980000 6.56929000 0.00000000
v 8.40735000 9.84948000 0.00000000
v 11.02960000 6.41951000 0.00000000
v 11.68750000 10.69140000 0.00000000
v 10.91500000 6.29965000 0.00000000
v 10.81650000 6.20580000 0.00000000
v 10.58420000 6.02393000 0.00000000
v 10.73470000 6.13459000 0.00000000
v 10.66990000 6.08313000 0.00000000
v 10.62280000 6.04895000 0.00000000
v 10.59400000 6.02988000 0.00000000
v 7.98980000 9.57456000 0.00000000
v 4.54049000 2.61511000 0.00000000
v 4.53806000 2.62005000 0.00000000
v 4.16031000 3.18539000 0.00000000
v 4.15725000 3.18997000 0.00000000
v 4.15362000 3.19411000 0.00000000
v 3.70531000 3.70531000 0.00000000
v 3.19411000 4.15362000 0.00000000
v 3.18997000 4.15725000 0.00000000
v 5.58210000 7.81024000 0.00000000
v 3.18539000 4.16031000 0.00000000
v 2.62005000 4.53806000 0.00000000
v 0.10930300 12.94930000 0.00000000
v 4.32621000 12.20570000 0.00000000
v 4.32278000 12.00730000 0.00000000
v 0.04468820 12.76170000 0.00000000
v 4.31203000 11.84180000 0.00000000
v -0.00179863 12.60250000 0.00000000
v 4.29692000 11.70660000 0.00000000
v 4.31878000 12.44010000 0.00000000
v 4.23586000 11.41800000 0.00000000
v 4.27999000 11.59950000 0.00000000
v 4.26346000 11.51840000 0.00000000
v 0.19647100 13.16700000 0.00000000
v 4.24936000 11.46200000 0.00000000
v 4.23955000 11.42890000 0.00000000
v 0.31145200 13.41680000 0.00000000
v 4.29614000 12.71420000 0.00000000
v 0.46077400 13.70060000 0.00000000
v 4.25292000 13.03200000 0.00000000
v 4.18241000 13.39840000 0.00000000
v 0.65232900 14.02080000 0.00000000
v 4.07606000 13.81880000 0.00000000
v 0.89607000 14.37950000 0.00000000
v 3.92291000 14.29920000 0.00000000
v -0.07522960 12.17820000 0.00000000
v 3.33644000 8.99356000 0.00000000
v 4.55919000 8.44829000 0.00000000
v 2.61511000 4.54049000 0.00000000
v 2.00530000 4.84122000 0.00000000
v 3.46440000 8.95308000 0.00000000
v -0.05930040 9.59885000 0.00000000
v 1.36145000 5.05978000 0.00000000
v 1.35624000 5.06155000 0.00000000
v 0.68936800 5.19420000 0.00000000
v 3.41528000 15.46740000 0.00000000
v 1.59266000 15.21960000 0.00000000
v 2.08086000 15.70270000 0.00000000
v 3.70881000 14.84640000 0.00000000
v 0.68396900 5.19527000 0.00000000
v 1.20431000 14.77860000 0.00000000
v 0.00549204 5.23974000 0.00000000
v 0.00000000 5.24010000 0.00000000
v -0.00549204 5.23974000 0.00000000
v -0.03386690 12.47030000 0.00000000
v -0.07473370 9.59970000 0.00000000
v -0.68396900 5.19527000 0.00000000
v -1.27730000 9.51464000 0.00000000
v -0.68936800 5.19420000 0.00000000
v -1.35624000 5.06155000 0.00000000
v -2.45974000 9.27952000 0.00000000
v -1.36145000 5.05978000 0.00000000
v -3.22194000 9.02530000 0.00000000
v -2.00530000 4.84122000 0.00000000
v -2.61511000 4.54049000 0.00000000
v -2.62005000 4.53806000 0.00000000
v -6.20389000 7.30142000 0.00000000
v -3.18539000 4.16031000 0.00000000
v -3.18997000 4.15725000 0.00000000
v -3.19411000 4.15362000 0.00000000
v -3.70531000 3.70531000 0.00000000
v -4.09448000 11.46950000 0.00000000
v -7.88561000 9.28064000 0.00000000
v -4.23326000 11.72980000 0.00000000
v -7.44433000 6.06150000 0.00000000
v -4.15362000 3.19411000 0.00000000
v -4.15725000 3.18997000 0.00000000
v -4.16031000 3.18539000 0.00000000
v -4.17732000 11.63680000 0.00000000
v -4.11243000 11.51180000 0.00000000
v -4.13790000 11.56410000 0.00000000
v -4.09863000 11.48010000 0.00000000
v -4.30859000 11.84310000 0.00000000
v -8.14534000 5.08066000 0.00000000
v -4.53806000 2.62005000 0.00000000
v -8.27272000 4.84463000 0.00000000
v -4.54049000 2.61511000 0.00000000
v -8.10212000 9.65290000 0.00000000
v -4.84122000 2.00530000 0.00000000
v -4.40670000 11.97680000 0.00000000
v -9.45763000 1.60745000 0.00000000
v -5.05978000 1.36145000 0.00000000
v -5.06155000 1.35624000 0.00000000
v -8.16882000 9.80472000 0.00000000
v -5.19420000 0.68936800 0.00000000
v -5.19527000 0.68396900 0.00000000
v -9.58545000 0.52819400 0.00000000
v -5.23974000 0.00549204 0.00000000
v -5.24010000 0.00000000 0.00000000
v -4.53162000 12.13100000 0.00000000
v -9.57606000 -0.67735700 0.00000000
v -5.05978000 -1.36145000 0.00000000
v -9.45134000 -1.60638000 0.00000000
v -5.06155000 -1.35624000 0.00000000
v -8.57696000 -12.09520000 0.00000000
v -6.18625000 -13.47540000 0.00000000
v -6.70201000 -13.75700000 0.00000000
v -8.56292000 -12.68260000 0.00000000
v -7.32600000 -14.04400000 0.00000000
v -5.76009000 -13.20580000 0.00000000
v -7.88561000 -9.28065000 0.00000000
v -6.20517000 -7.30293000 0.00000000
v -8.31309000 -10.21280000 0.00000000
v -8.23990000 -9.98997000 0.00000000
v -8.16884000 -9.80472000 0.00000000
v -8.10213000 -9.65289000 0.00000000
v -8.04168000 -9.53102000 0.00000000
v -7.94590000 -9.36561000 0.00000000
v -7.98913000 -9.43610000 0.00000000
v -7.91332000 -9.31739000 0.00000000
v -7.89278000 -9.28959000 0.00000000
v -8.38555000 -10.47800000 0.00000000
v -8.45364000 -10.79150000 0.00000000
v -8.49949000 -13.36650000 0.00000000
v -8.51270000 -11.15990000 0.00000000
v -8.55654000 -11.59130000 0.00000000
v -0.03387070 -12.47030000 0.00000000
v -0.07524390 -12.17820000 0.00000000
v 4.23587000 -11.41800000 0.00000000
v -0.06682210 -12.28200000 0.00000000
v -0.07287600 -12.22410000 0.00000000
v -0.07499600 -12.18960000 0.00000000
v -0.05926700 -9.59231000 0.00000000
v 0.10928300 -12.94930000 0.00000000
v 4.32621000 -12.20570000 0.00000000
v 4.31876000 -12.44010000 0.00000000
v 4.32276000 -12.00730000 0.00000000
v 0.04464050 -12.76170000 0.00000000
v 0.19644900 -13.16700000 0.00000000
v 4.29613000 -12.71420000 0.00000000
v 4.31201000 -11.84190000 0.00000000
v -0.00184631 -12.60250000 0.00000000
v 0.31143600 -13.41680000 0.00000000
v 4.25291000 -13.03200000 0.00000000
v 4.29691000 -11.70670000 0.00000000
v 0.46073800 -13.70060000 0.00000000
v 4.18240000 -13.39840000 0.00000000
v 0.65231500 -14.02080000 0.00000000
v 4.07605000 -13.81880000 0.00000000
v 0.89603300 -14.37950000 0.00000000
v 3.92290000 -14.29920000 0.00000000
v 1.20428000 -14.77860000 0.00000000
v 3.70879000 -14.84640000 0.00000000
v 1.59263000 -15.21960000 0.00000000
v 3.41528000 -15.46740000 0.00000000
v 3.18539000 -4.16031000 0.00000000
v 0.68936800 -5.19420000 0.00000000
v 2.08084000 -15.70270000 0.00000000
v 2.61511000 -4.54049000 0.00000000
v 1.36145000 -5.05978000 0.00000000
v 1.35624000 -5.06155000 0.00000000
v 4.27998000 -11.59950000 0.00000000
v 4.26345000 -11.51840000 0.00000000
v 4.24935000 -11.46200000 0.00000000
v 4.23955000 -11.42890000 0.00000000
v -0.05463500 -12.36380000 0.00000000
v 0.68396900 -5.19527000 0.00000000
v 0.00549204 -5.23974000 0.00000000
v 0.00000000 -5.24010000 0.00000000
v -0.00549204 -5.23974000 0.00000000
v -0.68396900 -5.19527000 0.00000000
v -1.12902000 -9.53338000 0.00000000
v -0.68936800 -5.19420000 0.00000000
v -2.31496000 -9.31670000 0.00000000
v -1.35624000 -5.06155000 0.00000000
v -1.36145000 -5.05978000 0.00000000
v -3.22337000 -9.02934000 0.00000000
v -2.00530000 -4.84122000 0.00000000
v -2.61511000 -4.54049000 0.00000000
v -2.62005000 -4.53806000 0.00000000
v -3.18539000 -4.16031000 0.00000000
v -3.18997000 -4.15725000 0.00000000
v -3.19411000 -4.15362000 0.00000000
v -4.53161000 -12.13100000 0.00000000
v -4.09446000 -11.46950000 0.00000000
v -4.11243000 -11.51180000 0.00000000
v -4.09865000 -11.48020000 0.00000000
v -4.13792000 -11.56410000 0.00000000
v -4.17733000 -11.63680000 0.00000000
v -3.70531000 -3.70531000 0.00000000
v -6.51697000 -7.04904000 0.00000000
v -4.23326000 -11.72980000 0.00000000
v -4.30860000 -11.84310000 0.00000000
v -4.40673000 -11.97680000 0.00000000
v -4.68800000 -12.30570000 0.00000000
v -7.34906000 -6.17667000 0.00000000
v -4.15362000 -3.19411000 0.00000000
v -4.88146000 -12.50110000 0.00000000
v -4.15725000 -3.18997000 0.00000000
v -5.11887000 -12.71680000 0.00000000
v -4.16031000 -3.18539000 0.00000000
v -8.06525000 -5.20687000 0.00000000
v -5.40839000 -12.95220000 0.00000000
v -4.53806000 -2.62005000 0.00000000
v -8.26921000 -4.84259000 0.00000000
v -4.54049000 -2.61511000 0.00000000
v -4.84122000 -2.00530000 0.00000000
v -8.23991000 9.98997000 0.00000000
v -4.68798000 12.30570000 0.00000000
v -8.31308000 10.21280000 0.00000000
v -8.38555000 10.47800000 0.00000000
v -4.88146000 12.50110000 0.00000000
v -5.11885000 12.71680000 0.00000000
v -8.45363000 10.79150000 0.00000000
v -5.40837000 12.95210000 0.00000000
v -7.91332000 9.31738000 0.00000000
v -7.89277000 9.28961000 0.00000000
v -7.94588000 9.36561000 0.00000000
v -7.98912000 9.43609000 0.00000000
v -8.04168000 9.53102000 0.00000000
v -8.51269000 11.15990000 0.00000000
v -5.76008000 13.20580000 0.00000000
v -8.55653000 11.59130000 0.00000000
v -6.18624000 13.47550000 0.00000000
v -8.57695000 12.09520000 0.00000000
v -6.70199000 13.75700000 0.00000000
v -8.56290000 12.68260000 0.00000000
v -7.32598000 14.04400000 0.00000000
v -8.49948000 13.36650000 0.00000000
v -0.05461120 12.36380000 0.00000000
v -0.06679250 12.28200000 0.00000000
v -0.07285400 12.22410000 0.00000000
v -0.07496640 12.18960000 0.00000000
v -5.19420000 -0.68936800 0.00000000
v -5.19527000 -0.68396900 0.00000000
v -5.23974000 -0.00549204 0.00000000
v -6.62593000 6.94672000 0.00000000
v -10.50900000 -6.15423000 0.00000000
v -10.55000000 -6.17514000 0.00000000
v -10.51900000 -6.15974000 0.00000000
v -10.60310000 -6.19884000 0.00000000
v -10.68000000 -6.22918000 0.00000000
v -10.78260000 -6.26448000 0.00000000
v -12.00620000 -2.04062000 0.00000000
v -10.91320000 -6.30281000 0.00000000
v -12.41140000 -2.18659000 0.00000000
v -11.07430000 -6.34214000 0.00000000
v -12.56010000 -2.26000000 0.00000000
v -11.26900000 -6.37999000 0.00000000
v -12.73360000 -2.35624000 0.00000000
v -11.50120000 -6.41336000 0.00000000
v -12.93290000 -2.47988000 0.00000000
v -11.77500000 -6.43866000 0.00000000
v -12.28670000 -2.13208000 0.00000000
v -12.18540000 -2.09316000 0.00000000
v -13.15880000 -2.63650000 0.00000000
v -12.09550000 -6.45127000 0.00000000
v -12.05110000 -2.05093000 0.00000000
v -12.10700000 -2.06694000 0.00000000
v -12.01750000 -2.04286000 0.00000000
v -13.41250000 -2.83283000 0.00000000
v -12.46850000 -6.44547000 0.00000000
v -13.69450000 -3.07709000 0.00000000
v -12.90100000 -6.41373000 0.00000000
v -14.00540000 -3.37940000 0.00000000
v -13.40080000 -6.34634000 0.00000000
v -14.34500000 -3.75226000 0.00000000
v -13.97690000 -6.23051000 0.00000000
v -14.71180000 -4.21129000 0.00000000
v -14.63940000 -6.04928000 0.00000000
v -15.10280000 -4.77597000 0.00000000
v -10.50900000 6.15423000 0.00000000
v -12.00620000 2.04062000 0.00000000
v -10.78260000 6.26446000 0.00000000
v -10.68000000 6.22919000 0.00000000
v -10.55000000 6.17515000 0.00000000
v -10.60310000 6.19886000 0.00000000
v -10.51900000 6.15975000 0.00000000
v -10.91320000 6.30283000 0.00000000
v -12.28670000 2.13209000 0.00000000
v -12.41140000 2.18663000 0.00000000
v -11.07430000 6.34216000 0.00000000
v -12.56000000 2.26005000 0.00000000
v -12.05110000 2.05096000 0.00000000
v -12.01750000 2.04288000 0.00000000
v -12.10700000 2.06698000 0.00000000
v -12.18540000 2.09317000 0.00000000
v -11.26900000 6.37998000 0.00000000
v -12.73360000 2.35624000 0.00000000
v -11.50120000 6.41336000 0.00000000
v -12.93290000 2.47990000 0.00000000
v -11.77500000 6.43866000 0.00000000
v -13.15880000 2.63650000 0.00000000
v -12.09550000 6.45129000 0.00000000
v -13.41250000 2.83285000 0.00000000
v -12.46850000 6.44548000 0.00000000
v -13.69450000 3.07710000 0.00000000
v -12.90100000 6.41374000 0.00000000
v -14.00540000 3.37941000 0.00000000
v -13.40080000 6.34635000 0.00000000
v -14.34490000 3.75228000 0.00000000
v -13.97690000 6.23052000 0.00000000
v -14.71180000 4.21130000 0.00000000
v -14.63940000 6.04929000 0.00000000
v -15.10280000 4.77598000 0.00000000
v 0.10930300 12.94930000 12.00000000
v 4.32621000 12.20570000 12.00000000
v 4.31878000 12.44010000 12.00000000
v 4.32278000 12.00730000 12.00000000
v 0.04468820 12.76170000 12.00000000
v 0.19647100 13.16700000 12.00000000
v 4.29614000 12.71420000 12.00000000
v 4.31203000 11.84180000 12.00000000
v -0.00179863 12.60250000 12.00000000
v 0.31145200 13.41680000 12.00000000
v 4.25292000 13.03200000 12.00000000
v 4.29692000 11.70660000 12.00000000
v 4.23586000 11.41800000 12.00000000
v 0.46077400 13.70060000 12.00000000
v 4.18241000 13.39840000 12.00000000
v 0.65232900 14.02080000 12.00000000
v 4.07606000 13.81880000 12.00000000
v 0.89607000 14.37950000 12.00000000
v 3.92291000 14.29920000 12.00000000
v 1.20431000 14.77860000 12.00000000
v 3.70881000 14.84640000 12.00000000
v 1.59266000 15.21960000 12.00000000
v 3.41528000 15.46740000 12.00000000
v 3.33644000 8.99356000 12.00000000
v 3.18997000 4.15725000 12.00000000
v 3.19411000 4.15362000 12.00000000
v 3.18539000 4.16031000 12.00000000
v 2.62005000 4.53806000 12.00000000
v 0.68936800 5.19420000 12.00000000
v -0.05930040 9.59885000 12.00000000
v 2.08086000 15.70270000 12.00000000
v 2.61511000 4.54049000 12.00000000
v 2.00530000 4.84122000 12.00000000
v 1.36145000 5.05978000 12.00000000
v 1.35624000 5.06155000 12.00000000
v 4.27999000 11.59950000 12.00000000
v 4.26346000 11.51840000 12.00000000
v 4.24936000 11.46200000 12.00000000
v 4.23955000 11.42890000 12.00000000
v -0.07522960 12.17820000 12.00000000
v 0.68396900 5.19527000 12.00000000
v 0.00549204 5.23974000 12.00000000
v 0.00000000 5.24010000 12.00000000
v -0.03386690 12.47030000 12.00000000
v -0.05461120 12.36380000 12.00000000
v -0.00549204 5.23974000 12.00000000
v -0.07473370 9.59970000 12.00000000
v -0.68396900 5.19527000 12.00000000
v -1.27730000 9.51464000 12.00000000
v -0.68936800 5.19420000 12.00000000
v -1.35624000 5.06155000 12.00000000
v -2.45974000 9.27952000 12.00000000
v -1.36145000 5.05978000 12.00000000
v -3.22194000 9.02530000 12.00000000
v -2.00530000 4.84122000 12.00000000
v -2.61511000 4.54049000 12.00000000
v -2.62005000 4.53806000 12.00000000
v -6.20389000 7.30142000 12.00000000
v -3.18539000 4.16031000 12.00000000
v -3.18997000 4.15725000 12.00000000
v -3.19411000 4.15362000 12.00000000
v -4.09448000 11.46950000 12.00000000
v -4.11243000 11.51180000 12.00000000
v -4.09863000 11.48010000 12.00000000
v -4.13790000 11.56410000 12.00000000
v -4.17732000 11.63680000 12.00000000
v -3.70531000 3.70531000 12.00000000
v -6.62593000 6.94672000 12.00000000
v -7.44433000 6.06150000 12.00000000
v -4.23326000 11.72980000 12.00000000
v -7.88561000 9.28064000 12.00000000
v -4.30859000 11.84310000 12.00000000
v -8.10212000 9.65290000 12.00000000
v -4.40670000 11.97680000 12.00000000
v -8.16882000 9.80472000 12.00000000
v -4.53162000 12.13100000 12.00000000
v -4.15362000 3.19411000 12.00000000
v -4.15725000 3.18997000 12.00000000
v -8.23991000 9.98997000 12.00000000
v -4.68798000 12.30570000 12.00000000
v -4.16031000 3.18539000 12.00000000
v -8.31308000 10.21280000 12.00000000
v -4.88146000 12.50110000 12.00000000
v -8.14534000 5.08066000 12.00000000
v -4.53806000 2.62005000 12.00000000
v -8.38555000 10.47800000 12.00000000
v -5.11885000 12.71680000 12.00000000
v -8.27272000 4.84463000 12.00000000
v -4.54049000 2.61511000 12.00000000
v -4.84122000 2.00530000 12.00000000
v -9.45763000 1.60745000 12.00000000
v -8.45363000 10.79150000 12.00000000
v -5.40837000 12.95210000 12.00000000
v 9.43556000 1.72391000 12.00000000
v 5.23974000 0.00549204 12.00000000
v 5.24010000 0.00000000 12.00000000
v 6.11334000 7.37769000 12.00000000
v 5.19527000 0.68396900 12.00000000
v 5.19420000 0.68936800 12.00000000
v 5.06155000 1.35624000 12.00000000
v 5.05978000 1.36145000 12.00000000
v 4.84122000 2.00530000 12.00000000
v 5.58210000 7.81024000 12.00000000
v 4.55919000 8.44829000 12.00000000
v 4.54049000 2.61511000 12.00000000
v 4.53806000 2.62005000 12.00000000
v 4.16031000 3.18539000 12.00000000
v 4.15725000 3.18997000 12.00000000
v 4.15362000 3.19411000 12.00000000
v 3.70531000 3.70531000 12.00000000
v 3.46440000 8.95308000 12.00000000
v 11.00300000 10.63510000 12.00000000
v 12.38420000 8.98906000 12.00000000
v 12.55850000 9.65341000 12.00000000
v 12.19650000 8.43225000 12.00000000
v 10.42210000 10.54700000 12.00000000
v 11.68750000 10.69140000 12.00000000
v 12.00500000 7.96574000 12.00000000
v 9.92937000 10.43940000 12.00000000
v 11.81620000 7.57533000 12.00000000
v 9.51212000 10.32130000 12.00000000
v 11.63470000 7.24933000 12.00000000
v 9.15956000 10.19910000 12.00000000
v 11.46350000 6.97809000 12.00000000
v 8.86271000 10.07760000 12.00000000
v 11.30470000 6.75362000 12.00000000
v 8.61408000 9.96023000 12.00000000
v 11.15980000 6.56929000 12.00000000
v 8.40735000 9.84948000 12.00000000
v 11.02960000 6.41951000 12.00000000
v 8.23728000 9.74729000 12.00000000
v 10.91500000 6.29965000 12.00000000
v 8.09934000 9.65524000 12.00000000
v 10.81650000 6.20580000 12.00000000
v 10.58420000 6.02393000 12.00000000
v 10.73470000 6.13459000 12.00000000
v 10.66990000 6.08313000 12.00000000
v 10.62280000 6.04895000 12.00000000
v 10.59400000 6.02988000 12.00000000
v 15.26490000 1.07439000 12.00000000
v 15.82550000 -0.67751600 12.00000000
v 15.82550000 0.67750800 12.00000000
v 15.26490000 -1.07441000 12.00000000
v 14.76320000 -1.38029000 12.00000000
v 14.76320000 1.38027000 12.00000000
v 14.31660000 1.61452000 12.00000000
v 14.31660000 -1.61454000 12.00000000
v 13.92110000 1.79227000 12.00000000
v 13.92110000 -1.79228000 12.00000000
v 13.57250000 -1.92534000 12.00000000
v 13.57250000 1.92532000 12.00000000
v 13.26700000 -2.02309000 12.00000000
v 13.26700000 2.02308000 12.00000000
v 13.00110000 2.09295000 12.00000000
v 13.00110000 -2.09296000 12.00000000
v 12.77150000 2.14099000 12.00000000
v 12.77150000 -2.14099000 12.00000000
v 12.57560000 2.17204000 12.00000000
v 12.57560000 -2.17207000 12.00000000
v 12.41070000 2.19018000 12.00000000
v 12.41070000 -2.19021000 12.00000000
v 12.27500000 2.19880000 12.00000000
v 12.27500000 -2.19880000 12.00000000
v 11.98010000 -2.18881000 12.00000000
v 11.98010000 2.18881000 12.00000000
v 12.16650000 2.20074000 12.00000000
v 12.16650000 -2.20074000 12.00000000
v 12.08380000 2.19853000 12.00000000
v 12.08380000 -2.19854000 12.00000000
v 12.02580000 2.19444000 12.00000000
v 11.99140000 2.19054000 12.00000000
v 12.02580000 -2.19445000 12.00000000
v 11.99140000 -2.19055000 12.00000000
v 9.44367000 -1.72539000 12.00000000
v 9.41565000 1.87220000 12.00000000
v 9.10676000 3.03755000 12.00000000
v 5.23974000 -0.00549204 12.00000000
v 8.65425000 4.15497000 12.00000000
v 5.19527000 -0.68396900 12.00000000
v 8.32707000 4.73928000 12.00000000
v 11.00300000 -10.63510000 12.00000000
v 12.38420000 -8.98906000 12.00000000
v 12.19650000 -8.43224000 12.00000000
v 10.42200000 -10.54700000 12.00000000
v 12.00500000 -7.96576000 12.00000000
v 9.92937000 -10.43940000 12.00000000
v 11.81620000 -7.57533000 12.00000000
v 12.55850000 -9.65343000 12.00000000
v 9.51212000 -10.32130000 12.00000000
v 11.63470000 -7.24934000 12.00000000
v 9.15955000 -10.19910000 12.00000000
v 11.46350000 -6.97809000 12.00000000
v 8.86271000 -10.07760000 12.00000000
v 11.30470000 -6.75364000 12.00000000
v 8.61408000 -9.96023000 12.00000000
v 11.15980000 -6.56929000 12.00000000
v 8.40735000 -9.84947000 12.00000000
v 11.02960000 -6.41953000 12.00000000
v 11.68750000 -10.69140000 12.00000000
v 8.23726000 -9.74730000 12.00000000
v 10.91500000 -6.29967000 12.00000000
v 8.09932000 -9.65525000 12.00000000
v 10.81650000 -6.20580000 12.00000000
v 10.58420000 -6.02392000 12.00000000
v 10.73470000 -6.13458000 12.00000000
v 10.66990000 -6.08314000 12.00000000
v 10.62280000 -6.04896000 12.00000000
v 10.59400000 -6.02989000 12.00000000
v 7.77034000 -9.37738000 12.00000000
v 8.32898000 -4.74038000 12.00000000
v 7.77033000 9.37738000 12.00000000
v 5.19420000 -0.68936800 12.00000000
v 5.06155000 -1.35624000 12.00000000
v 9.15295000 -2.89538000 12.00000000
v 7.98980000 9.57456000 12.00000000
v 5.05978000 -1.36145000 12.00000000
v 7.90543000 9.50630000 12.00000000
v 4.84122000 -2.00530000 12.00000000
v 7.84353000 9.45149000 12.00000000
v 8.71788000 -4.01973000 12.00000000
v 7.80169000 9.41105000 12.00000000
v 7.77791000 9.38598000 12.00000000
v 6.11327000 -7.37759000 12.00000000
v 7.90545000 -9.50631000 12.00000000
v 7.84354000 -9.45149000 12.00000000
v 7.80169000 -9.41106000 12.00000000
v 7.77790000 -9.38599000 12.00000000
v 7.98980000 -9.57456000 12.00000000
v 4.54049000 -2.61511000 12.00000000
v 4.53806000 -2.62005000 12.00000000
v 4.16031000 -3.18539000 12.00000000
v 4.15725000 -3.18997000 12.00000000
v 4.15362000 -3.19411000 12.00000000
v 3.70531000 -3.70531000 12.00000000
v 3.19411000 -4.15362000 12.00000000
v 3.18997000 -4.15725000 12.00000000
v 5.70302000 -7.72239000 12.00000000
v 3.18539000 -4.16031000 12.00000000
v 2.62005000 -4.53806000 12.00000000
v 0.10928300 -12.94930000 12.00000000
v 4.32621000 -12.20570000 12.00000000
v 4.32276000 -12.00730000 12.00000000
v 0.04464050 -12.76170000 12.00000000
v 4.31201000 -11.84190000 12.00000000
v -0.00184631 -12.60250000 12.00000000
v 4.29691000 -11.70670000 12.00000000
v 4.31876000 -12.44010000 12.00000000
v 4.23587000 -11.41800000 12.00000000
v 4.27998000 -11.59950000 12.00000000
v 4.26345000 -11.51840000 12.00000000
v 0.19644900 -13.16700000 12.00000000
v 4.24935000 -11.46200000 12.00000000
v 4.23955000 -11.42890000 12.00000000
v 0.31143600 -13.41680000 12.00000000
v 4.29613000 -12.71420000 12.00000000
v 0.46073800 -13.70060000 12.00000000
v 4.25291000 -13.03200000 12.00000000
v 4.18240000 -13.39840000 12.00000000
v 0.65231500 -14.02080000 12.00000000
v 4.07605000 -13.81880000 12.00000000
v 0.89603300 -14.37950000 12.00000000
v 3.92290000 -14.29920000 12.00000000
v -0.07524390 -12.17820000 12.00000000
v 3.33431000 -8.98781000 12.00000000
v 4.69018000 -8.37628000 12.00000000
v 2.61511000 -4.54049000 12.00000000
v 2.00530000 -4.84122000 12.00000000
v 3.60337000 -8.89807000 12.00000000
v -0.05926700 -9.59231000 12.00000000
v 1.36145000 -5.05978000 12.00000000
v 1.35624000 -5.06155000 12.00000000
v 0.68936800 -5.19420000 12.00000000
v 3.41528000 -15.46740000 12.00000000
v 1.59263000 -15.21960000 12.00000000
v 2.08084000 -15.70270000 12.00000000
v 3.70879000 -14.84640000 12.00000000
v 0.68396900 -5.19527000 12.00000000
v 1.20428000 -14.77860000 12.00000000
v 0.00549204 -5.23974000 12.00000000
v 0.00000000 -5.24010000 12.00000000
v -0.00549204 -5.23974000 12.00000000
v -0.03387070 -12.47030000 12.00000000
v -0.68396900 -5.19527000 12.00000000
v -1.12902000 -9.53338000 12.00000000
v -0.68936800 -5.19420000 12.00000000
v -2.31496000 -9.31670000 12.00000000
v -1.35624000 -5.06155000 12.00000000
v -1.36145000 -5.05978000 12.00000000
v -3.22337000 -9.02934000 12.00000000
v -2.00530000 -4.84122000 12.00000000
v -2.61511000 -4.54049000 12.00000000
v -2.62005000 -4.53806000 12.00000000
v -6.20517000 -7.30293000 12.00000000
v -3.18539000 -4.16031000 12.00000000
v -3.18997000 -4.15725000 12.00000000
v -3.19411000 -4.15362000 12.00000000
v -3.70531000 -3.70531000 12.00000000
v -4.09446000 -11.46950000 12.00000000
v -7.88561000 -9.28065000 12.00000000
v -4.23326000 -11.72980000 12.00000000
v -7.34906000 -6.17667000 12.00000000
v -4.15362000 -3.19411000 12.00000000
v -4.15725000 -3.18997000 12.00000000
v -4.16031000 -3.18539000 12.00000000
v -4.17733000 -11.63680000 12.00000000
v -4.11243000 -11.51180000 12.00000000
v -4.13792000 -11.56410000 12.00000000
v -4.09865000 -11.48020000 12.00000000
v -4.30860000 -11.84310000 12.00000000
v -8.06525000 -5.20687000 12.00000000
v -4.53806000 -2.62005000 12.00000000
v -8.26921000 -4.84259000 12.00000000
v -4.54049000 -2.61511000 12.00000000
v -8.10213000 -9.65289000 12.00000000
v -4.84122000 -2.00530000 12.00000000
v -4.40673000 -11.97680000 12.00000000
v -9.45134000 -1.60638000 12.00000000
v -5.05978000 -1.36145000 12.00000000
v -5.06155000 -1.35624000 12.00000000
v -8.16884000 -9.80472000 12.00000000
v -5.19420000 -0.68936800 12.00000000
v -5.19527000 -0.68396900 12.00000000
v -9.57606000 -0.67735700 12.00000000
v -5.23974000 -0.00549204 12.00000000
v -5.24010000 0.00000000 12.00000000
v -5.05978000 1.36145000 12.00000000
v -5.06155000 1.35624000 12.00000000
v -8.51269000 11.15990000 12.00000000
v -5.76008000 13.20580000 12.00000000
v -4.53161000 -12.13100000 12.00000000
v -8.55653000 11.59130000 12.00000000
v -6.18624000 13.47550000 12.00000000
v -8.23990000 -9.98997000 12.00000000
v -4.68800000 -12.30570000 12.00000000
v -8.57695000 12.09520000 12.00000000
v -6.70199000 13.75700000 12.00000000
v -8.56290000 12.68260000 12.00000000
v -7.32598000 14.04400000 12.00000000
v -8.04168000 9.53102000 12.00000000
v -7.94588000 9.36561000 12.00000000
v -7.98912000 9.43609000 12.00000000
v -7.91332000 9.31738000 12.00000000
v -7.89277000 9.28961000 12.00000000
v -8.49948000 13.36650000 12.00000000
v -5.23974000 0.00549204 12.00000000
v -9.58545000 0.52819400 12.00000000
v -10.50900000 6.15423000 12.00000000
v -10.55000000 6.17515000 12.00000000
v -10.51900000 6.15975000 12.00000000
v -10.60310000 6.19886000 12.00000000
v -10.68000000 6.22919000 12.00000000
v -10.78260000 6.26446000 12.00000000
v -12.00620000 2.04062000 12.00000000
v -10.91320000 6.30283000 12.00000000
v -12.41140000 2.18663000 12.00000000
v -11.07430000 6.34216000 12.00000000
v -12.56000000 2.26005000 12.00000000
v -11.26900000 6.37998000 12.00000000
v -12.73360000 2.35624000 12.00000000
v -11.50120000 6.41336000 12.00000000
v -12.93290000 2.47990000 12.00000000
v -11.77500000 6.43866000 12.00000000
v -12.28670000 2.13209000 12.00000000
v -12.18540000 2.09317000 12.00000000
v -13.15880000 2.63650000 12.00000000
v -12.09550000 6.45129000 12.00000000
v -12.05110000 2.05096000 12.00000000
v -12.10700000 2.06698000 12.00000000
v -12.01750000 2.04288000 12.00000000
v -13.41250000 2.83285000 12.00000000
v -12.46850000 6.44548000 12.00000000
v -13.69450000 3.07710000 12.00000000
v -12.90100000 6.41374000 12.00000000
v -14.00540000 3.37941000 12.00000000
v -13.40080000 6.34635000 12.00000000
v -14.34490000 3.75228000 12.00000000
v -13.97690000 6.23052000 12.00000000
v -14.71180000 4.21130000 12.00000000
v -14.63940000 6.04929000 12.00000000
v -15.10280000 4.77598000 12.00000000
v -5.19420000 0.68936800 12.00000000
v -6.51697000 -7.04904000 12.00000000
v -5.19527000 0.68396900 12.00000000
v -10.50900000 -6.15423000 12.00000000
v -12.00620000 -2.04062000 12.00000000
v -10.78260000 -6.26448000 12.00000000
v -10.68000000 -6.22918000 12.00000000
v -10.55000000 -6.17514000 12.00000000
v -10.60310000 -6.19884000 12.00000000
v -10.51900000 -6.15974000 12.00000000
v -10.91320000 -6.30281000 12.00000000
v -12.28670000 -2.13208000 12.00000000
v -12.41140000 -2.18659000 12.00000000
v -11.07430000 -6.34214000 12.00000000
v -12.56010000 -2.26000000 12.00000000
v -12.05110000 -2.05093000 12.00000000
v -12.01750000 -2.04286000 12.00000000
v -12.10700000 -2.06694000 12.00000000
v -12.18540000 -2.09316000 12.00000000
v -11.26900000 -6.37999000 12.00000000
v -12.73360000 -2.35624000 12.00000000
v -11.50120000 -6.41336000 12.00000000
v -12.93290000 -2.47988000 12.00000000
v -11.77500000 -6.43866000 12.00000000
v -13.15880000 -2.63650000 12.00000000
v -12.09550000 -6.45127000 12.00000000
v -13.41250000 -2.83283000 12.00000000
v -12.46850000 -6.44547000 12.00000000
v -13.69450000 -3.07709000 12.00000000
v -12.90100000 -6.41373000 12.00000000
v -14.00540000 -3.37940000 12.00000000
v -13.40080000 -6.34634000 12.00000000
v -14.34500000 -3.75226000 12.00000000
v -13.97690000 -6.23051000 12.00000000
v -14.71180000 -4.21129000 12.00000000
v -14.63940000 -6.04928000 12.00000000
v -15.10280000 -4.77597000 12.00000000
v -8.31309000 -10.21280000 12.00000000
v -8.38555000 -10.47800000 12.00000000
v -4.88146000 -12.50110000 12.00000000
v -5.11887000 -12.71680000 12.00000000
v -8.45364000 -10.79150000 12.00000000
v -5.40839000 -12.95220000 12.00000000
v -7.91332000 -9.31739000 12.00000000
v -7.89278000 -9.28959000 12.00000000
v -7.94590000 -9.36561000 12.00000000
v -7.98913000 -9.43610000 12.00000000
v -8.04168000 -9.53102000 12.00000000
v -8.51270000 -11.15990000 12.00000000
v -5.76009000 -13.20580000 12.00000000
v -8.55654000 -11.59130000 12.00000000
v -6.18625000 -13.47540000 12.00000000
v -8.57696000 -12.09520000 12.00000000
v -6.70201000 -13.75700000 12.00000000
v -8.56292000 -12.68260000 12.00000000
v -7.32600000 -14.04400000 12.00000000
v -8.49949000 -13.36650000 12.00000000
v -0.06679250 12.28200000 12.00000000
v -0.07285400 12.22410000 12.00000000
v -0.07496640 12.18960000 12.00000000
v -0.05463500 -12.36380000 12.00000000
v -0.06682210 -12.28200000 12.00000000
v -0.07287600 -12.22410000 12.00000000
v -0.07499600 -12.18960000 12.00000000
v -0.41651000 -4.22270000 11.00000000
v -0.41651000 -4.22270000 1.00000000
v -0.67050700 -4.19061000 11.00000000
v -0.26684600 -4.24161000 11.00920000
v -0.26684600 -4.24161000 0.99081100
v -0.67050700 -4.19061000 1.00000000
v -0.79635600 -4.17471000 11.00910000
v -0.79635600 -4.17471000 0.99093200
v -0.95423600 -4.13417000 11.00000000
v -0.95423600 -4.13417000 1.00000000
v -1.20195000 -4.07057000 11.00000000
v -1.20195000 -4.07057000 1.00000000
v -1.31331000 -4.04198000 11.00880000
v -1.31331000 -4.04198000 0.99117500
v -1.47638000 -3.97741000 11.00000000
v -1.47638000 -3.97741000 1.00000000
v -1.71352000 -3.88353000 11.00000000
v -1.71352000 -3.88353000 1.00000000
v -1.80956000 -3.84550000 11.00850000
v -1.80956000 -3.84550000 0.99152400
v -1.97445000 -3.75485000 11.00000000
v -1.97445000 -3.75485000 1.00000000
v -2.19700000 -3.63250000 11.00000000
v -2.19700000 -3.63250000 1.00000000
v -2.27725000 -3.58838000 11.00800000
v -2.27725000 -3.58838000 0.99200200
v -2.44015000 -3.47003000 11.00000000
v -2.44015000 -3.47003000 1.00000000
v -2.64426000 -3.32174000 11.00000000
v -2.64426000 -3.32174000 1.00000000
v -2.70905000 -3.27467000 11.00740000
v -2.70905000 -3.27467000 0.99258300
v -2.86606000 -3.12723000 11.00000000
v -2.86606000 -3.12723000 1.00000000
v -3.04813000 -2.95626000 11.00000000
v -3.04813000 -2.95626000 1.00000000
v -3.09811000 -2.90932000 11.00670000
v -3.09811000 -2.90932000 0.99328700
v -3.40199000 -2.54199000 11.00000000
v -3.43831000 -2.49808000 0.99412200
v -3.43831000 -2.49808000 11.00590000
v -3.40199000 -2.54199000 1.00000000
v -3.24484000 -2.73195000 11.00000000
v -3.24484000 -2.73195000 1.00000000
v -3.69992000 -2.08584000 11.00000000
v -3.72429000 -2.04744000 0.99506800
v -3.72429000 -2.04744000 11.00490000
v -3.69992000 -2.08584000 1.00000000
v -3.57034000 -2.29002000 11.00000000
v -3.57034000 -2.29002000 1.00000000
v -3.93703000 -1.59534000 11.00000000
v -3.95154000 -1.56451000 0.99612600
v -3.95154000 -1.56451000 11.00390000
v -3.93703000 -1.59534000 1.00000000
v -3.83752000 -1.80681000 11.00000000
v -3.83752000 -1.80681000 1.00000000
v -4.10945000 -1.07853000 11.00000000
v -4.11647000 -1.05693000 0.99729700
v -4.11647000 -1.05693000 11.00270000
v -4.10945000 -1.07853000 1.00000000
v -4.04199000 -1.28614000 11.00000000
v -4.04199000 -1.28614000 1.00000000
v -4.21436000 -0.54374600 11.00000000
v -4.21648000 -0.53265400 0.99859700
v -4.21648000 -0.53265400 11.00140000
v -4.21436000 -0.54374600 1.00000000
v -4.18010000 -0.72333200 11.00000000
v -4.18010000 -0.72333200 1.00000000
v -4.25000000 0.00000000 1.00000000
v -4.25000000 0.00000000 11.00000000
v -4.21648000 0.53265400 0.99859700
v -4.21648000 0.53265400 11.00140000
v -4.18010000 0.72333200 11.00000000
v -4.11647000 1.05693000 0.99729700
v -4.11647000 1.05693000 11.00270000
v -4.18010000 0.72333200 1.00000000
v -4.21436000 0.54374600 11.00000000
v -4.21436000 0.54374600 1.00000000
v -4.04199000 1.28614000 11.00000000
v -3.95154000 1.56451000 0.99612600
v -3.95154000 1.56451000 11.00390000
v -4.04199000 1.28614000 1.00000000
v -4.10945000 1.07853000 11.00000000
v -4.10945000 1.07853000 1.00000000
v -3.83752000 1.80681000 11.00000000
v -3.72429000 2.04744000 0.99506800
v -3.72429000 2.04744000 11.00490000
v -3.83752000 1.80681000 1.00000000
v -3.93703000 1.59534000 11.00000000
v -3.93703000 1.59534000 1.00000000
v -3.57034000 2.29002000 11.00000000
v -3.43831000 2.49808000 0.99412200
v -3.43831000 2.49808000 11.00590000
v -3.57034000 2.29002000 1.00000000
v -3.69992000 2.08584000 11.00000000
v -3.69992000 2.08584000 1.00000000
v -3.24484000 2.73195000 11.00000000
v -3.09811000 2.90932000 0.99328700
v -3.09811000 2.90932000 11.00670000
v -3.24484000 2.73195000 1.00000000
v -3.40199000 2.54199000 11.00000000
v -3.40199000 2.54199000 1.00000000
v -3.04813000 2.95626000 11.00000000
v -3.04813000 2.95626000 1.00000000
v -2.86606000 3.12723000 11.00000000
v -2.86606000 3.12723000 1.00000000
v -2.70905000 3.27467000 11.00740000
v -2.70905000 3.27467000 0.99258300
v -2.64426000 3.32174000 11.00000000
v -2.64426000 3.32174000 1.00000000
v -2.44015000 3.47003000 11.00000000
v -2.44015000 3.47003000 1.00000000
v -2.27725000 3.58838000 11.00800000
v -2.27725000 3.58838000 0.99200200
v -2.19700000 3.63250000 11.00000000
v -2.19700000 3.63250000 1.00000000
v -1.97445000 3.75485000 11.00000000
v -1.97445000 3.75485000 1.00000000
v -1.80956000 3.84550000 11.00850000
v -1.80956000 3.84550000 0.99152400
v -1.71352000 3.88353000 11.00000000
v -1.71352000 3.88353000 1.00000000
v -1.47638000 3.97741000 11.00000000
v -1.47638000 3.97741000 1.00000000
v -1.31331000 4.04198000 11.00880000
v -1.31331000 4.04198000 0.99117500
v -1.20195000 4.07057000 11.00000000
v -1.20195000 4.07057000 1.00000000
v -0.95423600 4.13417000 11.00000000
v -0.95423600 4.13417000 1.00000000
v -0.79635600 4.17471000 11.00910000
v -0.79635600 4.17471000 0.99093200
v -0.67050700 4.19061000 11.00000000
v -0.67050700 4.19061000 1.00000000
v -0.41651000 4.22270000 11.00000000
v -0.41651000 4.22270000 1.00000000
v -0.26684600 4.24161000 11.00920000
v -0.26684600 4.24161000 0.99081100
v -0.12804100 4.24161000 11.00000000
v -0.12804100 4.24161000 1.00000000
v 0.12804100 4.24161000 11.00000000
v 0.12804100 4.24161000 1.00000000
v 0.26684600 4.24161000 11.00920000
v 0.26684600 4.24161000 0.99081100
v 0.41651000 4.22270000 11.00000000
v 0.41651000 4.22270000 1.00000000
v 0.67050700 4.19061000 11.00000000
v 0.67050700 4.19061000 1.00000000
v 0.79635600 4.17471000 11.00910000
v 0.79635600 4.17471000 0.99093200
v 0.95423600 4.13417000 11.00000000
v 0.95423600 4.13417000 1.00000000
v 1.20195000 4.07057000 11.00000000
v 1.20195000 4.07057000 1.00000000
v 1.31331000 4.04198000 11.00880000
v 1.31331000 4.04198000 0.99117500
v 1.47638000 3.97741000 11.00000000
v 1.47638000 3.97741000 1.00000000
v 1.71352000 3.88353000 11.00000000
v 1.71352000 3.88353000 1.00000000
v 1.80956000 3.84550000 11.00850000
v 1.80956000 3.84550000 0.99152400
v 1.97445000 3.75485000 11.00000000
v 1.97445000 3.75485000 1.00000000
v 2.19700000 3.63250000 11.00000000
v 2.19700000 3.63250000 1.00000000
v 2.27725000 3.58838000 11.00800000
v 2.27725000 3.58838000 0.99200200
v 2.44015000 3.47003000 11.00000000
v 2.44015000 3.47003000 1.00000000
v 2.64426000 3.32174000 11.00000000
v 2.64426000 3.32174000 1.00000000
v 2.70905000 3.27467000 11.00740000
v 2.70905000 3.27467000 0.99258300
v 2.86606000 3.12723000 11.00000000
v 2.86606000 3.12723000 1.00000000
v 3.04813000 2.95626000 11.00000000
v 3.04813000 2.95626000 1.00000000
v 3.09811000 2.90932000 11.00670000
v 3.09811000 2.90932000 0.99328700
v 3.24484000 2.73195000 1.00000000
v 3.24484000 2.73195000 11.00000000
v 3.40199000 2.54199000 1.00000000
v 3.40199000 2.54199000 11.00000000
v 3.43831000 2.49808000 0.99412200
v 3.43831000 2.49808000 11.00590000
v 3.57034000 2.29002000 1.00000000
v 3.57034000 2.29002000 11.00000000
v 3.69992000 2.08584000 1.00000000
v 3.69992000 2.08584000 11.00000000
v 3.72429000 2.04744000 0.99506800
v 3.72429000 2.04744000 11.00490000
v 3.83752000 1.80681000 1.00000000
v 3.83752000 1.80681000 11.00000000
v 3.93703000 1.59534000 1.00000000
v 3.93703000 1.59534000 11.00000000
v 3.95154000 1.56451000 0.99612600
v 3.95154000 1.56451000 11.00390000
v 4.04199000 1.28614000 1.00000000
v 4.04199000 1.28614000 11.00000000
v 4.10945000 1.07853000 1.00000000
v 4.10945000 1.07853000 11.00000000
v 4.11647000 1.05693000 0.99729700
v 4.11647000 1.05693000 11.00270000
v 4.18010000 0.72333200 1.00000000
v 4.18010000 0.72333200 11.00000000
v 4.21436000 0.54374600 1.00000000
v 4.21436000 0.54374600 11.00000000
v 4.21648000 0.53265400 0.99859700
v 4.21648000 0.53265400 11.00140000
v 4.25000000 0.00000000 1.00000000
v 4.25000000 0.00000000 11.00000000
v 4.21648000 -0.53265400 0.99859700
v 4.21648000 -0.53265400 11.00140000
v 4.21436000 -0.54374600 1.00000000
v 4.21436000 -0.54374600 11.00000000
v 4.18010000 -0.72333200 1.00000000
v 4.18010000 -0.72333200 11.00000000
v 4.11647000 -1.05693000 0.99729700
v 4.11647000 -1.05693000 11.00270000
v 4.10945000 -1.07853000 1.00000000
v 4.10945000 -1.07853000 11.00000000
v 4.04199000 -1.28614000 1.00000000
v 4.04199000 -1.28614000 11.00000000
v 3.95154000 -1.56451000 0.99612600
v 3.95154000 -1.56451000 11.00390000
v 3.93703000 -1.59534000 1.00000000
v 3.93703000 -1.59534000 11.00000000
v 3.83752000 -1.80681000 1.00000000
v 3.83752000 -1.80681000 11.00000000
v 3.72429000 -2.04744000 0.99506800
v 3.72429000 -2.04744000 11.00490000
v 3.69992000 -2.08584000 1.00000000
v 3.69992000 -2.08584000 11.00000000
v 3.57034000 -2.29002000 1.00000000
v 3.57034000 -2.29002000 11.00000000
v 3.43831000 -2.49808000 0.99412200
v 3.43831000 -2.49808000 11.00590000
v 3.40199000 -2.54199000 1.00000000
v 3.40199000 -2.54199000 11.00000000
v 3.24484000 -2.73195000 1.00000000
v 3.24484000 -2.73195000 11.00000000
v 3.09811000 -2.90932000 0.99328700
v 3.09811000 -2.90932000 11.00670000
v 3.04813000 -2.95626000 11.00000000
v 3.04813000 -2.95626000 1.00000000
v 2.86606000 -3.12723000 11.00000000
v 2.86606000 -3.12723000 1.00000000
v 2.70905000 -3.27467000 11.00740000
v 2.70905000 -3.27467000 0.99258300
v 2.64426000 -3.32174000 11.00000000
v 2.64426000 -3.32174000 1.00000000
v 2.44015000 -3.47003000 11.00000000
v 2.44015000 -3.47003000 1.00000000
v 2.27725000 -3.58838000 11.00800000
v 2.27725000 -3.58838000 0.99200200
v 2.19700000 -3.63250000 11.00000000
v 2.19700000 -3.63250000 1.00000000
v 1.97445000 -3.75485000 11.00000000
v 1.97445000 -3.75485000 1.00000000
v 1.80956000 -3.84550000 11.00850000
v 1.80956000 -3.84550000 0.99152400
v 1.71352000 -3.88353000 11.00000000
v 1.71352000 -3.88353000 1.00000000
v 1.47638000 -3.97741000 11.00000000
v 1.47638000 -3.97741000 1.00000000
v 1.31331000 -4.04198000 11.00880000
v 1.31331000 -4.04198000 0.99117500
v 1.20195000 -4.07057000 11.00000000
v 1.20195000 -4.07057000 1.00000000
v 0.95423600 -4.13417000 11.00000000
v 0.95423600 -4.13417000 1.00000000
v 0.79635600 -4.17471000 11.00910000
v 0.79635600 -4.17471000 0.99093200
v 0.67050700 -4.19061000 11.00000000
v 0.67050700 -4.19061000 1.00000000
v 0.41651000 -4.22270000 11.00000000
v 0.41651000 -4.22270000 1.00000000
v 0.26684600 -4.24161000 11.00920000
v 0.26684600 -4.24161000 0.99081100
v 0.12804100 -4.24161000 11.00000000
v 0.12804100 -4.24161000 1.00000000
v -0.12804100 -4.24161000 11.00000000
v -0.12804100 -4.24161000 1.00000000
v -4.21364000 0.55473600 1.00000000
v 4.21364000 0.55473600 1.00000000
v 4.10518000 1.09998000 1.00000000
v 0.00000000 4.25000000 1.00000000
v 0.55473600 4.21364000 1.00000000
v 3.00520000 3.00520000 1.00000000
v -3.00520000 3.00520000 1.00000000
v -4.10518000 -1.09998000 1.00000000
v -3.92649000 -1.62640000 1.00000000
v 0.00000000 -4.25000000 1.00000000
v -0.55473600 -4.21364000 1.00000000
v 3.00520000 -3.00520000 1.00000000
v 3.92649000 -1.62640000 1.00000000
v 4.10518000 -1.09998000 1.00000000
v 3.92649000 1.62640000 1.00000000
v 3.68061000 2.12500000 1.00000000
v 2.12500000 3.68061000 1.00000000
v 1.62640000 3.92649000 1.00000000
v -2.58724000 3.37175000 1.00000000
v -2.12500000 3.68061000 1.00000000
v -3.92649000 1.62640000 1.00000000
v -3.00520000 -3.00520000 1.00000000
v -3.37175000 -2.58724000 1.00000000
v 1.09998000 -4.10518000 1.00000000
v 1.62640000 -3.92649000 1.00000000
v 2.12500000 -3.68061000 1.00000000
v 3.68061000 -2.12500000 1.00000000
v 3.37175000 -2.58724000 1.00000000
v 4.21364000 -0.55473600 1.00000000
v 3.37175000 2.58724000 1.00000000
v 1.09998000 4.10518000 1.00000000
v 2.58724000 3.37175000 1.00000000
v -1.09998000 4.10518000 1.00000000
v -1.62640000 3.92649000 1.00000000
v -3.68061000 2.12500000 1.00000000
v -4.21364000 -0.55473600 1.00000000
v -2.58724000 -3.37175000 1.00000000
v -3.68061000 -2.12500000 1.00000000
v 0.55473600 -4.21364000 1.00000000
v 2.58724000 -3.37175000 1.00000000
v -4.10518000 1.09998000 1.00000000
v -3.37175000 2.58724000 1.00000000
v -1.09998000 -4.10518000 1.00000000
v -1.62640000 -3.92649000 1.00000000
v -2.12500000 -3.68061000 1.00000000
v -0.55473600 4.21364000 1.00000000
v 4.21364000 0.55473600 11.00000000
v -4.21364000 -0.55473600 11.00000000
v 4.21364000 -0.55473600 11.00000000
v 3.92649000 -1.62640000 11.00000000
v -0.55473600 4.21364000 11.00000000
v 0.00000000 4.25000000 11.00000000
v 3.37175000 2.58724000 11.00000000
v 3.68061000 2.12500000 11.00000000
v 0.55473600 -4.21364000 11.00000000
v 0.00000000 -4.25000000 11.00000000
v -4.21364000 0.55473600 11.00000000
v -3.92649000 1.62640000 11.00000000
v 3.00520000 3.00520000 11.00000000
v 4.10518000 1.09998000 11.00000000
v 3.92649000 1.62640000 11.00000000
v 3.00520000 -3.00520000 11.00000000
v -3.68061000 -2.12500000 11.00000000
v -3.92649000 -1.62640000 11.00000000
v -3.00520000 3.00520000 11.00000000
v 0.55473600 4.21364000 11.00000000
v 1.09998000 4.10518000 11.00000000
v 2.58724000 3.37175000 11.00000000
v 2.12500000 3.68061000 11.00000000
v 4.10518000 -1.09998000 11.00000000
v 2.12500000 -3.68061000 11.00000000
v 1.62640000 -3.92649000 11.00000000
v -2.12500000 -3.68061000 11.00000000
v -2.58724000 -3.37175000 11.00000000
v 3.37175000 -2.58724000 11.00000000
v -1.62640000 -3.92649000 11.00000000
v -4.10518000 -1.09998000 11.00000000
v -4.10518000 1.09998000 11.00000000
v 1.62640000 3.92649000 11.00000000
v 3.68061000 -2.12500000 11.00000000
v 1.09998000 -4.10518000 11.00000000
v 2.58724000 -3.37175000 11.00000000
v -1.09998000 -4.10518000 11.00000000
v -3.37175000 -2.58724000 11.00000000
v -3.00520000 -3.00520000 11.00000000
v -1.09998000 4.10518000 11.00000000
v -2.58724000 3.37175000 11.00000000
v -2.12500000 3.68061000 11.00000000
v -3.37175000 2.58724000 11.00000000
v -3.68061000 2.12500000 11.00000000
v -0.55473600 -4.21364000 11.00000000
v -1.62640000 3.92649000 11.00000000
f 1 2 3
f 2 1 4
f 5 4 1
f 1 3 6
f 4 5 7
f 8 7 5
f 7 8 9
f 10 9 8
f 9 10 11
f 12 11 10
f 11 12 13
f 14 13 12
f 13 14 15
f 16 15 14
f 15 16 17
f 18 17 16
f 17 18 19
f 20 19 18
f 19 20 21
f 22 21 20
f 21 22 23
f 24 23 22
f 25 24 26
f 27 24 28
f 26 24 27
f 29 30 31
f 23 24 25
f 24 32 33
f 30 29 34
f 24 22 32
f 32 22 35
f 34 29 36
f 32 35 37
f 38 36 29
f 32 37 39
f 40 36 38
f 32 39 41
f 36 40 42
f 43 44 45
f 32 41 46
f 33 32 47
f 48 43 49
f 50 43 51
f 52 33 47
f 53 47 54
f 51 43 55
f 55 43 56
f 33 57 58
f 33 59 57
f 33 60 59
f 33 61 60
f 33 62 61
f 33 63 62
f 64 54 65
f 33 66 63
f 33 67 66
f 33 68 67
f 33 69 68
f 33 52 69
f 47 70 52
f 71 65 72
f 71 72 73
f 47 74 70
f 75 76 77
f 78 76 75
f 79 76 78
f 79 80 76
f 79 81 80
f 82 81 79
f 82 83 81
f 84 83 82
f 85 83 84
f 85 86 83
f 87 86 85
f 87 88 86
f 87 89 88
f 90 89 87
f 90 91 89
f 92 91 90
f 93 91 92
f 93 94 91
f 93 95 94
f 96 95 93
f 97 95 96
f 97 98 95
f 99 97 100
f 97 99 98
f 99 100 101
f 102 98 99
f 99 101 103
f 98 102 104
f 105 102 106
f 99 103 107
f 104 102 105
f 106 102 108
f 109 102 99
f 109 30 102
f 58 109 110
f 111 58 110
f 112 30 58
f 58 111 33
f 109 58 30
f 113 30 112
f 31 30 113
f 114 115 116
f 117 116 118
f 119 118 120
f 115 114 121
f 122 120 123
f 124 123 125
f 126 125 127
f 128 127 129
f 130 129 131
f 121 114 132
f 48 131 133
f 48 133 134
f 135 134 136
f 135 136 137
f 135 137 138
f 135 138 139
f 134 135 48
f 116 117 114
f 118 119 117
f 120 122 119
f 123 124 122
f 125 126 124
f 127 128 126
f 129 130 128
f 48 135 44
f 131 48 130
f 140 43 50
f 49 43 140
f 44 43 48
f 141 42 40
f 42 141 44
f 142 44 141
f 143 44 142
f 144 44 143
f 145 44 144
f 44 145 45
f 146 45 145
f 147 45 146
f 148 45 147
f 45 148 149
f 150 149 148
f 151 149 150
f 152 153 154
f 155 154 156
f 157 156 158
f 153 152 159
f 160 158 161
f 160 161 162
f 163 159 152
f 160 162 164
f 160 164 165
f 158 160 157
f 166 167 163
f 168 169 166
f 169 168 170
f 170 171 172
f 172 173 174
f 175 160 176
f 149 151 177
f 178 177 151
f 179 177 178
f 177 179 180
f 180 179 176
f 175 176 181
f 182 176 179
f 157 160 175
f 183 176 182
f 184 176 183
f 185 186 187
f 188 186 185
f 176 184 181
f 181 184 189
f 186 188 190
f 171 170 168
f 174 190 188
f 190 174 173
f 173 172 171
f 167 166 169
f 181 189 191
f 181 191 192
f 159 163 167
f 181 192 193
f 154 155 152
f 156 157 155
f 157 175 194
f 193 195 181
f 196 195 193
f 197 196 198
f 196 197 195
f 199 197 198
f 200 199 201
f 202 201 203
f 199 200 197
f 202 203 204
f 202 204 205
f 206 205 207
f 206 207 208
f 206 208 209
f 201 202 200
f 206 209 210
f 205 206 202
f 202 206 211
f 212 211 206
f 213 211 212
f 214 210 215
f 214 215 216
f 214 216 217
f 218 211 213
f 219 211 220
f 211 219 221
f 220 211 218
f 213 212 222
f 223 217 224
f 225 224 226
f 227 222 212
f 225 226 228
f 222 227 229
f 230 228 231
f 230 231 232
f 233 229 227
f 230 232 234
f 230 234 235
f 236 235 237
f 236 237 238
f 229 233 239
f 236 238 240
f 235 236 230
f 241 242 243
f 244 245 246
f 247 246 248
f 249 250 251
f 249 252 253
f 249 254 250
f 255 250 254
f 256 250 255
f 257 250 258
f 259 250 257
f 250 259 260
f 258 250 256
f 249 253 254
f 249 261 252
f 249 262 261
f 247 248 263
f 249 264 262
f 249 265 264
f 246 247 244
f 245 244 265
f 266 267 268
f 267 269 270
f 267 270 271
f 268 267 272
f 273 274 275
f 274 273 276
f 277 276 273
f 278 275 279
f 276 277 280
f 281 280 277
f 282 279 283
f 275 278 273
f 280 281 284
f 268 284 281
f 285 283 286
f 287 286 288
f 289 288 290
f 291 290 292
f 293 292 294
f 290 291 289
f 283 285 282
f 47 53 74
f 54 295 53
f 54 64 295
f 296 73 272
f 293 294 297
f 65 298 64
f 292 293 291
f 65 71 298
f 73 299 71
f 288 289 287
f 286 287 285
f 73 300 299
f 73 296 300
f 279 282 278
f 301 268 302
f 303 268 304
f 302 268 303
f 284 268 301
f 267 305 269
f 296 272 306
f 306 272 307
f 266 268 281
f 307 272 308
f 267 266 305
f 268 272 73
f 308 272 309
f 272 310 309
f 311 310 272
f 310 311 312
f 313 312 311
f 312 313 314
f 314 313 315
f 316 315 313
f 315 316 317
f 317 316 318
f 318 316 319
f 251 319 316
f 319 251 320
f 320 251 321
f 321 251 322
f 323 251 324
f 325 324 326
f 324 325 327
f 324 327 328
f 322 251 329
f 330 329 251
f 324 251 316
f 324 328 331
f 324 331 332
f 324 332 333
f 324 333 323
f 251 323 334
f 335 329 330
f 329 335 336
f 251 334 337
f 336 335 338
f 251 337 339
f 338 335 340
f 341 340 335
f 251 339 342
f 340 341 343
f 344 343 341
f 343 344 345
f 345 344 346
f 242 346 344
f 251 342 249
f 347 239 233
f 265 249 245
f 239 347 348
f 346 242 241
f 349 348 347
f 350 351 349
f 351 350 352
f 352 353 354
f 355 212 356
f 212 355 357
f 212 357 358
f 212 358 359
f 212 359 227
f 348 349 351
f 353 352 350
f 360 354 353
f 354 360 361
f 362 361 360
f 361 362 363
f 364 363 362
f 363 364 365
f 366 365 364
f 367 366 368
f 365 366 367
f 194 175 369
f 369 175 370
f 370 175 371
f 371 175 372
f 243 242 373
f 374 240 375
f 373 242 374
f 224 225 223
f 240 374 242
f 210 376 206
f 210 214 376
f 217 223 214
f 375 240 238
f 377 242 344
f 378 377 379
f 377 378 380
f 377 380 381
f 377 381 382
f 377 382 383
f 383 382 384
f 385 384 386
f 387 386 388
f 389 388 390
f 391 390 392
f 377 383 242
f 384 393 383
f 394 383 393
f 395 392 396
f 397 383 398
f 383 397 399
f 398 383 394
f 384 385 393
f 400 396 401
f 386 387 385
f 388 389 387
f 402 401 403
f 390 391 389
f 392 395 391
f 404 403 405
f 396 400 395
f 401 402 400
f 406 405 407
f 403 404 402
f 405 406 404
f 408 407 409
f 407 408 406
f 408 409 410
f 228 230 225
f 230 411 225
f 412 411 230
f 413 411 412
f 414 411 413
f 415 411 416
f 411 415 417
f 416 411 414
f 413 412 418
f 419 418 412
f 420 418 419
f 418 420 421
f 422 421 420
f 423 412 424
f 412 423 425
f 412 426 419
f 412 425 426
f 421 422 427
f 428 427 422
f 427 428 429
f 430 429 428
f 429 430 431
f 432 431 430
f 431 432 433
f 434 433 432
f 433 434 435
f 436 435 434
f 435 436 437
f 438 437 436
f 437 438 439
f 440 439 438
f 439 440 441
f 442 441 440
f 441 442 443
f 443 442 444
f 445 446 447
f 446 445 448
f 449 448 445
f 450 447 451
f 448 449 452
f 453 452 449
f 454 451 455
f 447 450 445
f 452 453 456
f 457 456 453
f 458 455 459
f 460 459 461
f 462 461 463
f 464 463 465
f 466 465 467
f 463 464 462
f 455 458 454
f 468 469 470
f 468 471 469
f 468 472 471
f 473 468 474
f 466 467 475
f 468 476 472
f 465 466 464
f 468 477 476
f 468 478 477
f 461 462 460
f 459 460 458
f 468 479 478
f 468 473 479
f 451 454 450
f 480 457 481
f 482 457 483
f 481 457 482
f 457 484 468
f 456 457 480
f 473 474 485
f 485 474 486
f 457 453 484
f 486 474 487
f 484 453 488
f 484 488 489
f 487 474 490
f 491 490 474
f 491 492 490
f 493 492 491
f 492 493 494
f 493 495 494
f 496 495 493
f 495 496 497
f 498 497 496
f 497 498 499
f 499 498 500
f 500 498 501
f 502 501 498
f 501 502 503
f 503 502 504
f 504 502 505
f 502 498 506
f 507 506 508
f 506 507 509
f 506 509 510
f 505 502 511
f 512 511 502
f 513 511 512
f 506 510 514
f 506 514 515
f 515 514 516
f 517 516 518
f 519 518 520
f 511 513 521
f 521 513 522
f 523 520 524
f 522 513 525
f 526 524 527
f 528 525 513
f 525 528 529
f 530 527 531
f 532 529 528
f 529 532 533
f 533 532 534
f 535 534 532
f 536 531 537
f 538 539 540
f 541 542 539
f 541 543 542
f 541 544 543
f 541 545 544
f 541 546 545
f 470 547 548
f 541 549 546
f 541 550 549
f 541 551 550
f 541 552 551
f 541 553 552
f 541 554 553
f 470 548 555
f 470 555 468
f 541 470 554
f 556 557 558
f 557 556 559
f 560 559 556
f 556 558 561
f 559 560 562
f 563 562 560
f 562 563 564
f 565 564 563
f 564 565 566
f 567 566 565
f 566 567 568
f 569 568 567
f 568 569 570
f 571 570 569
f 570 571 572
f 573 572 571
f 572 573 574
f 575 574 573
f 574 575 576
f 577 576 575
f 576 577 578
f 579 578 577
f 580 579 581
f 582 579 583
f 581 579 582
f 578 579 580
f 584 585 586
f 584 587 585
f 584 588 587
f 589 588 584
f 590 588 589
f 590 591 588
f 592 591 590
f 592 593 591
f 592 594 593
f 595 594 592
f 595 596 594
f 597 596 595
f 598 596 597
f 598 599 596
f 600 599 598
f 600 601 599
f 602 601 600
f 602 603 601
f 604 603 602
f 604 605 603
f 606 605 604
f 606 607 605
f 608 607 606
f 609 606 610
f 607 608 611
f 609 610 612
f 611 608 613
f 609 612 614
f 609 614 615
f 606 609 608
f 616 608 617
f 613 608 616
f 609 618 608
f 538 618 609
f 539 538 619
f 538 540 618
f 539 619 620
f 618 540 621
f 539 620 622
f 623 618 621
f 539 622 624
f 625 626 627
f 628 627 629
f 630 629 631
f 626 625 632
f 633 631 634
f 635 634 636
f 637 636 638
f 639 638 640
f 641 640 642
f 632 625 643
f 644 642 645
f 646 645 647
f 648 647 649
f 648 649 650
f 648 650 651
f 648 651 652
f 647 648 646
f 627 628 625
f 629 630 628
f 631 633 630
f 634 635 633
f 636 637 635
f 638 639 637
f 640 641 639
f 653 648 654
f 579 655 624
f 642 644 641
f 656 618 623
f 579 577 655
f 657 618 656
f 618 657 658
f 655 577 659
f 660 658 657
f 655 659 661
f 662 658 660
f 655 661 663
f 658 662 664
f 655 663 665
f 655 665 666
f 653 654 667
f 645 646 644
f 624 655 541
f 539 624 541
f 668 653 669
f 669 653 670
f 470 541 547
f 670 653 671
f 672 653 668
f 646 653 672
f 646 648 653
f 673 664 662
f 664 673 654
f 674 654 673
f 675 654 674
f 676 654 675
f 677 654 676
f 654 677 667
f 678 667 677
f 679 667 678
f 680 667 679
f 667 680 681
f 682 681 680
f 683 681 682
f 684 685 686
f 687 686 688
f 689 688 690
f 685 684 691
f 692 690 693
f 692 693 694
f 695 691 684
f 692 694 696
f 692 696 697
f 690 692 689
f 698 699 695
f 700 701 698
f 701 700 702
f 702 703 704
f 704 705 706
f 707 692 708
f 681 683 709
f 710 709 683
f 711 709 710
f 709 711 712
f 712 711 708
f 707 708 713
f 714 708 711
f 689 692 707
f 715 708 714
f 716 708 715
f 717 718 719
f 720 718 717
f 708 716 713
f 713 716 721
f 718 720 722
f 703 702 700
f 706 722 720
f 722 706 705
f 705 704 703
f 699 698 701
f 713 721 723
f 713 723 724
f 691 695 699
f 713 724 725
f 686 687 684
f 688 689 687
f 689 707 726
f 727 713 725
f 728 727 729
f 727 728 713
f 730 729 731
f 730 731 732
f 733 732 734
f 729 730 728
f 733 734 735
f 733 735 736
f 737 736 738
f 737 738 739
f 737 739 740
f 732 733 730
f 737 740 741
f 736 737 733
f 733 737 742
f 743 742 737
f 744 742 743
f 745 741 746
f 745 746 747
f 745 747 748
f 749 742 744
f 750 742 751
f 742 750 752
f 751 742 749
f 744 743 753
f 754 748 755
f 756 755 757
f 758 753 743
f 756 757 759
f 753 758 760
f 761 759 762
f 761 762 763
f 764 760 758
f 761 763 765
f 761 765 766
f 767 766 768
f 767 768 769
f 534 535 770
f 770 535 771
f 772 537 773
f 760 764 774
f 775 773 776
f 777 774 764
f 774 777 778
f 779 776 780
f 781 780 782
f 506 515 502
f 524 526 523
f 518 519 517
f 516 517 515
f 783 515 517
f 784 515 785
f 786 515 784
f 515 786 787
f 785 515 783
f 520 523 519
f 527 530 526
f 531 536 530
f 781 782 788
f 537 772 536
f 773 775 772
f 780 781 779
f 776 779 775
f 789 790 769
f 791 535 532
f 792 791 793
f 791 792 794
f 791 794 795
f 791 795 796
f 791 796 797
f 797 796 798
f 799 798 800
f 801 800 802
f 803 802 804
f 805 804 806
f 791 797 535
f 798 807 797
f 808 797 807
f 809 806 810
f 811 797 812
f 797 811 813
f 812 797 808
f 798 799 807
f 814 810 815
f 800 801 799
f 802 803 801
f 816 815 817
f 804 805 803
f 806 809 805
f 818 817 819
f 810 814 809
f 815 816 814
f 820 819 821
f 817 818 816
f 819 820 818
f 822 821 823
f 821 822 820
f 822 823 824
f 755 756 754
f 771 535 825
f 741 745 826
f 825 535 827
f 741 826 737
f 790 827 535
f 748 754 745
f 827 790 789
f 759 761 756
f 761 828 756
f 829 828 761
f 830 828 829
f 831 828 830
f 832 828 833
f 828 832 834
f 833 828 831
f 830 829 835
f 836 835 829
f 837 835 836
f 835 837 838
f 839 838 837
f 840 829 841
f 829 840 842
f 829 843 836
f 829 842 843
f 838 839 844
f 845 844 839
f 844 845 846
f 847 846 845
f 846 847 848
f 849 848 847
f 848 849 850
f 851 850 849
f 850 851 852
f 853 852 851
f 852 853 854
f 855 854 853
f 854 855 856
f 857 856 855
f 856 857 858
f 859 858 857
f 858 859 860
f 860 859 861
f 862 778 777
f 863 864 862
f 864 863 865
f 865 866 867
f 868 743 869
f 743 868 870
f 743 870 871
f 743 871 872
f 743 872 758
f 778 862 864
f 866 865 863
f 873 867 866
f 867 873 874
f 875 874 873
f 874 875 876
f 877 876 875
f 876 877 878
f 879 878 877
f 880 879 881
f 878 879 880
f 766 767 761
f 769 790 767
f 484 489 882
f 484 882 883
f 484 883 884
f 468 484 474
f 726 707 885
f 885 707 886
f 886 707 887
f 887 707 888
f 246 876 878
f 876 246 245
f 245 874 876
f 874 245 249
f 249 867 874
f 867 249 342
f 342 865 867
f 865 342 339
f 339 864 865
f 864 339 337
f 864 334 778
f 334 864 337
f 778 323 774
f 323 778 334
f 774 333 760
f 333 774 323
f 760 332 753
f 332 760 333
f 753 331 744
f 331 753 332
f 744 328 749
f 328 744 331
f 749 327 751
f 327 749 328
f 751 325 750
f 325 751 327
f 750 326 752
f 326 750 325
f 752 324 742
f 324 752 326
f 742 316 733
f 316 742 324
f 316 730 733
f 730 316 313
f 313 728 730
f 728 313 311
f 311 713 728
f 713 311 272
f 267 713 272
f 713 267 707
f 271 707 267
f 707 271 888
f 270 888 271
f 888 270 887
f 269 887 270
f 887 269 886
f 305 886 269
f 886 305 885
f 266 885 305
f 885 266 726
f 281 726 266
f 726 281 689
f 277 689 281
f 689 277 687
f 273 687 277
f 687 273 684
f 278 684 273
f 684 278 695
f 282 695 278
f 695 282 698
f 285 698 282
f 698 285 700
f 287 700 285
f 700 287 703
f 289 703 287
f 703 289 705
f 291 705 289
f 705 291 722
f 293 722 291
f 722 293 718
f 293 719 718
f 719 293 297
f 297 717 719
f 717 297 294
f 717 292 720
f 292 717 294
f 720 290 706
f 290 720 292
f 706 288 704
f 288 706 290
f 704 286 702
f 286 704 288
f 702 283 701
f 283 702 286
f 701 279 699
f 279 701 283
f 699 275 691
f 275 699 279
f 691 274 685
f 274 691 275
f 685 276 686
f 276 685 274
f 686 280 688
f 280 686 276
f 688 284 690
f 284 688 280
f 690 301 693
f 301 690 284
f 693 302 694
f 302 693 301
f 694 303 696
f 303 694 302
f 696 304 697
f 304 696 303
f 697 268 692
f 268 697 304
f 692 73 708
f 73 692 268
f 73 712 708
f 712 73 72
f 72 709 712
f 709 72 65
f 65 681 709
f 681 65 54
f 54 667 681
f 667 54 47
f 32 667 47
f 667 32 653
f 46 653 32
f 653 46 671
f 41 671 46
f 671 41 670
f 41 669 670
f 669 41 39
f 39 668 669
f 668 39 37
f 37 672 668
f 672 37 35
f 35 646 672
f 646 35 22
f 22 644 646
f 644 22 20
f 20 641 644
f 641 20 18
f 18 639 641
f 639 18 16
f 16 637 639
f 637 16 14
f 14 635 637
f 635 14 12
f 12 633 635
f 633 12 10
f 10 630 633
f 630 10 8
f 8 628 630
f 628 8 5
f 5 625 628
f 625 5 1
f 1 643 625
f 643 1 6
f 643 3 632
f 3 643 6
f 632 2 626
f 2 632 3
f 626 4 627
f 4 626 2
f 627 7 629
f 7 627 4
f 629 9 631
f 9 629 7
f 631 11 634
f 11 631 9
f 634 13 636
f 13 634 11
f 636 15 638
f 15 636 13
f 638 17 640
f 17 638 15
f 640 19 642
f 19 640 17
f 642 21 645
f 21 642 19
f 21 647 645
f 647 21 23
f 23 649 647
f 649 23 25
f 25 650 649
f 650 25 26
f 26 651 650
f 651 26 27
f 27 652 651
f 652 27 28
f 28 648 652
f 648 28 24
f 24 654 648
f 654 24 33
f 654 111 664
f 111 654 33
f 664 110 658
f 110 664 111
f 658 109 618
f 109 658 110
f 109 608 618
f 608 109 99
f 99 617 608
f 617 99 107
f 107 616 617
f 616 107 103
f 103 613 616
f 613 103 101
f 101 611 613
f 611 101 100
f 100 607 611
f 607 100 97
f 97 605 607
f 605 97 96
f 96 603 605
f 603 96 93
f 93 601 603
f 601 93 92
f 92 599 601
f 599 92 90
f 90 596 599
f 596 90 87
f 87 594 596
f 594 87 85
f 85 593 594
f 593 85 84
f 84 591 593
f 591 84 82
f 82 588 591
f 588 82 79
f 79 587 588
f 587 79 78
f 78 585 587
f 585 78 75
f 585 77 586
f 77 585 75
f 77 584 586
f 584 77 76
f 76 589 584
f 589 76 80
f 80 590 589
f 590 80 81
f 81 592 590
f 592 81 83
f 83 595 592
f 595 83 86
f 86 597 595
f 597 86 88
f 88 598 597
f 598 88 89
f 89 600 598
f 600 89 91
f 91 602 600
f 602 91 94
f 94 604 602
f 604 94 95
f 95 606 604
f 606 95 98
f 98 610 606
f 610 98 104
f 104 612 610
f 612 104 105
f 105 614 612
f 614 105 106
f 106 615 614
f 615 106 108
f 108 609 615
f 609 108 102
f 102 538 609
f 538 102 30
f 538 34 619
f 34 538 30
f 619 36 620
f 36 619 34
f 620 42 622
f 42 620 36
f 622 44 624
f 44 622 42
f 44 579 624
f 579 44 135
f 135 583 579
f 583 135 139
f 139 582 583
f 582 139 138
f 138 581 582
f 581 138 137
f 137 580 581
f 580 137 136
f 136 578 580
f 578 136 134
f 134 576 578
f 576 134 133
f 576 131 574
f 131 576 133
f 574 129 572
f 129 574 131
f 572 127 570
f 127 572 129
f 570 125 568
f 125 570 127
f 568 123 566
f 123 568 125
f 566 120 564
f 120 566 123
f 564 118 562
f 118 564 120
f 562 116 559
f 116 562 118
f 559 115 557
f 115 559 116
f 557 121 558
f 121 557 115
f 558 132 561
f 132 558 121
f 132 556 561
f 556 132 114
f 114 560 556
f 560 114 117
f 117 563 560
f 563 117 119
f 119 565 563
f 565 119 122
f 122 567 565
f 567 122 124
f 124 569 567
f 569 124 126
f 126 571 569
f 571 126 128
f 128 573 571
f 573 128 130
f 130 575 573
f 575 130 48
f 48 577 575
f 577 48 49
f 49 659 577
f 659 49 140
f 140 661 659
f 661 140 50
f 50 663 661
f 663 50 51
f 51 665 663
f 665 51 55
f 56 665 55
f 665 56 666
f 43 666 56
f 666 43 655
f 45 655 43
f 655 45 541
f 45 547 541
f 547 45 149
f 149 548 547
f 548 149 177
f 177 555 548
f 555 177 180
f 180 468 555
f 468 180 176
f 468 160 457
f 160 468 176
f 457 165 483
f 165 457 160
f 483 164 482
f 164 483 165
f 482 162 481
f 162 482 164
f 481 161 480
f 161 481 162
f 480 158 456
f 158 480 161
f 456 156 452
f 156 456 158
f 452 154 448
f 154 452 156
f 448 153 446
f 153 448 154
f 446 159 447
f 159 446 153
f 447 167 451
f 167 447 159
f 451 169 455
f 169 451 167
f 455 170 459
f 170 455 169
f 459 172 461
f 172 459 170
f 461 174 463
f 174 461 172
f 463 188 465
f 188 463 174
f 465 185 467
f 185 465 188
f 185 475 467
f 475 185 187
f 187 466 475
f 466 187 186
f 190 466 186
f 466 190 464
f 173 464 190
f 464 173 462
f 171 462 173
f 462 171 460
f 168 460 171
f 460 168 458
f 166 458 168
f 458 166 454
f 163 454 166
f 454 163 450
f 152 450 163
f 450 152 445
f 155 445 152
f 445 155 449
f 157 449 155
f 449 157 453
f 194 453 157
f 453 194 488
f 369 488 194
f 488 369 489
f 370 489 369
f 489 370 882
f 371 882 370
f 882 371 883
f 372 883 371
f 883 372 884
f 175 884 372
f 884 175 484
f 181 484 175
f 484 181 474
f 181 491 474
f 491 181 195
f 195 493 491
f 493 195 197
f 197 496 493
f 496 197 200
f 200 498 496
f 498 200 202
f 498 211 506
f 211 498 202
f 506 221 508
f 221 506 211
f 508 219 507
f 219 508 221
f 507 220 509
f 220 507 219
f 509 218 510
f 218 509 220
f 510 213 514
f 213 510 218
f 514 222 516
f 222 514 213
f 516 229 518
f 229 516 222
f 518 239 520
f 239 518 229
f 520 348 524
f 348 520 239
f 524 351 527
f 351 524 348
f 351 531 527
f 531 351 352
f 352 537 531
f 537 352 354
f 354 773 537
f 773 354 361
f 361 776 773
f 776 361 363
f 363 780 776
f 780 363 365
f 365 782 780
f 782 365 367
f 367 788 782
f 788 367 368
f 366 788 368
f 788 366 781
f 364 781 366
f 781 364 779
f 362 779 364
f 779 362 775
f 360 775 362
f 775 360 772
f 353 772 360
f 772 353 536
f 350 536 353
f 536 350 530
f 349 530 350
f 530 349 526
f 347 526 349
f 526 347 523
f 233 523 347
f 523 233 519
f 227 519 233
f 519 227 517
f 359 517 227
f 517 359 783
f 358 783 359
f 783 358 785
f 357 785 358
f 785 357 784
f 355 784 357
f 784 355 786
f 356 786 355
f 786 356 787
f 212 787 356
f 787 212 515
f 206 515 212
f 515 206 502
f 206 512 502
f 512 206 376
f 214 512 376
f 512 214 513
f 223 513 214
f 513 223 528
f 225 528 223
f 528 225 532
f 225 791 532
f 791 225 411
f 411 793 791
f 793 411 417
f 417 792 793
f 792 417 415
f 415 794 792
f 794 415 416
f 416 795 794
f 795 416 414
f 414 796 795
f 796 414 413
f 413 798 796
f 798 413 418
f 418 800 798
f 800 418 421
f 421 802 800
f 802 421 427
f 427 804 802
f 804 427 429
f 429 806 804
f 806 429 431
f 431 810 806
f 810 431 433
f 433 815 810
f 815 433 435
f 435 817 815
f 817 435 437
f 437 819 817
f 819 437 439
f 439 821 819
f 821 439 441
f 441 823 821
f 823 441 443
f 444 823 443
f 823 444 824
f 442 824 444
f 824 442 822
f 440 822 442
f 822 440 820
f 438 820 440
f 820 438 818
f 438 816 818
f 816 438 436
f 436 814 816
f 814 436 434
f 434 809 814
f 809 434 432
f 432 805 809
f 805 432 430
f 430 803 805
f 803 430 428
f 428 801 803
f 801 428 422
f 422 799 801
f 799 422 420
f 420 807 799
f 807 420 419
f 419 808 807
f 808 419 426
f 426 812 808
f 812 426 425
f 425 811 812
f 811 425 423
f 423 813 811
f 813 423 424
f 424 797 813
f 797 424 412
f 412 535 797
f 535 412 230
f 236 535 230
f 535 236 790
f 240 790 236
f 790 240 767
f 242 767 240
f 767 242 761
f 242 829 761
f 829 242 383
f 383 841 829
f 841 383 399
f 399 840 841
f 840 399 397
f 397 842 840
f 842 397 398
f 398 843 842
f 843 398 394
f 394 836 843
f 836 394 393
f 393 837 836
f 837 393 385
f 385 839 837
f 839 385 387
f 387 845 839
f 845 387 389
f 389 847 845
f 847 389 391
f 391 849 847
f 849 391 395
f 395 851 849
f 851 395 400
f 400 853 851
f 853 400 402
f 402 855 853
f 855 402 404
f 406 855 404
f 855 406 857
f 408 857 406
f 857 408 859
f 410 859 408
f 859 410 861
f 409 861 410
f 861 409 860
f 409 858 860
f 858 409 407
f 407 856 858
f 856 407 405
f 405 854 856
f 854 405 403
f 403 852 854
f 852 403 401
f 401 850 852
f 850 401 396
f 396 848 850
f 848 396 392
f 392 846 848
f 846 392 390
f 390 844 846
f 844 390 388
f 388 838 844
f 838 388 386
f 386 835 838
f 835 386 384
f 384 830 835
f 830 384 382
f 382 831 830
f 831 382 381
f 381 833 831
f 833 381 380
f 380 832 833
f 832 380 378
f 378 834 832
f 834 378 379
f 379 828 834
f 828 379 377
f 377 756 828
f 756 377 344
f 341 756 344
f 756 341 754
f 335 754 341
f 754 335 745
f 330 745 335
f 745 330 826
f 330 737 826
f 737 330 251
f 250 737 251
f 737 250 743
f 260 743 250
f 743 260 869
f 259 869 260
f 869 259 868
f 257 868 259
f 868 257 870
f 258 870 257
f 870 258 871
f 256 871 258
f 871 256 872
f 255 872 256
f 872 255 758
f 254 758 255
f 758 254 764
f 253 764 254
f 764 253 777
f 252 777 253
f 777 252 862
f 261 862 252
f 862 261 863
f 262 863 261
f 863 262 866
f 264 866 262
f 866 264 873
f 265 873 264
f 873 265 875
f 244 875 265
f 875 244 877
f 247 877 244
f 877 247 879
f 263 879 247
f 879 263 881
f 263 880 881
f 880 263 248
f 248 878 880
f 878 248 246
f 889 890 891
f 892 890 889
f 890 892 893
f 894 891 890
f 891 894 895
f 895 894 896
f 897 898 899
f 895 898 897
f 898 895 896
f 900 899 898
f 899 900 901
f 901 900 902
f 903 904 905
f 901 904 903
f 904 901 902
f 906 905 904
f 905 906 907
f 907 906 908
f 909 910 911
f 907 910 909
f 910 907 908
f 912 911 910
f 911 912 913
f 913 912 914
f 915 916 917
f 913 916 915
f 916 913 914
f 918 917 916
f 917 918 919
f 919 918 920
f 921 922 923
f 919 922 921
f 922 919 920
f 924 923 922
f 923 924 925
f 925 924 926
f 927 928 929
f 927 930 928
f 931 930 927
f 931 932 930
f 925 932 931
f 932 925 926
f 933 934 935
f 933 936 934
f 937 936 933
f 937 938 936
f 929 938 937
f 938 929 928
f 939 940 941
f 939 942 940
f 943 942 939
f 943 944 942
f 935 944 943
f 944 935 934
f 945 946 947
f 945 948 946
f 949 948 945
f 949 950 948
f 941 950 949
f 950 941 940
f 951 952 953
f 951 954 952
f 955 954 951
f 955 956 954
f 947 956 955
f 956 947 946
f 953 957 958
f 957 953 952
f 958 959 960
f 959 958 957
f 961 962 963
f 961 964 962
f 965 964 961
f 965 966 964
f 960 966 965
f 966 960 959
f 967 968 969
f 967 970 968
f 971 970 967
f 971 972 970
f 963 972 971
f 972 963 962
f 973 974 975
f 973 976 974
f 977 976 973
f 977 978 976
f 969 978 977
f 978 969 968
f 979 980 981
f 979 982 980
f 983 982 979
f 983 984 982
f 975 984 983
f 984 975 974
f 985 986 987
f 985 988 986
f 989 988 985
f 989 990 988
f 981 990 989
f 990 981 980
f 991 992 993
f 987 992 991
f 992 987 986
f 994 993 992
f 993 994 995
f 995 994 996
f 997 998 999
f 995 998 997
f 998 995 996
f 1000 999 998
f 999 1000 1001
f 1001 1000 1002
f 1003 1004 1005
f 1001 1004 1003
f 1004 1001 1002
f 1006 1005 1004
f 1005 1006 1007
f 1007 1006 1008
f 1009 1010 1011
f 1007 1010 1009
f 1010 1007 1008
f 1012 1011 1010
f 1011 1012 1013
f 1013 1012 1014
f 1015 1016 1017
f 1013 1016 1015
f 1016 1013 1014
f 1018 1017 1016
f 1017 1018 1019
f 1019 1018 1020
f 1021 1022 1023
f 1019 1022 1021
f 1022 1019 1020
f 1024 1023 1022
f 1023 1024 1025
f 1025 1024 1026
f 1027 1028 1029
f 1025 1028 1027
f 1028 1025 1026
f 1030 1029 1028
f 1029 1030 1031
f 1031 1030 1032
f 1033 1034 1035
f 1031 1034 1033
f 1034 1031 1032
f 1036 1035 1034
f 1035 1036 1037
f 1037 1036 1038
f 1039 1040 1041
f 1037 1040 1039
f 1040 1037 1038
f 1042 1041 1040
f 1041 1042 1043
f 1043 1042 1044
f 1045 1046 1047
f 1043 1046 1045
f 1046 1043 1044
f 1048 1047 1046
f 1047 1048 1049
f 1049 1048 1050
f 1051 1052 1053
f 1049 1052 1051
f 1052 1049 1050
f 1054 1053 1052
f 1053 1054 1055
f 1055 1054 1056
f 1057 1058 1059
f 1055 1058 1057
f 1058 1055 1056
f 1060 1059 1058
f 1059 1060 1061
f 1061 1060 1062
f 1063 1064 1065
f 1061 1064 1063
f 1064 1061 1062
f 1066 1065 1064
f 1065 1066 1067
f 1067 1066 1068
f 1069 1067 1068
f 1069 1070 1067
f 1071 1070 1069
f 1071 1072 1070
f 1073 1072 1071
f 1072 1073 1074
f 1075 1074 1073
f 1075 1076 1074
f 1077 1076 1075
f 1077 1078 1076
f 1079 1078 1077
f 1078 1079 1080
f 1081 1080 1079
f 1081 1082 1080
f 1083 1082 1081
f 1083 1084 1082
f 1085 1084 1083
f 1084 1085 1086
f 1087 1086 1085
f 1087 1088 1086
f 1089 1088 1087
f 1089 1090 1088
f 1091 1090 1089
f 1090 1091 1092
f 1093 1092 1091
f 1093 1094 1092
f 1095 1094 1093
f 1095 1096 1094
f 1097 1096 1095
f 1096 1097 1098
f 1099 1098 1097
f 1098 1099 1100
f 1101 1100 1099
f 1100 1101 1102
f 1103 1102 1101
f 1103 1104 1102
f 1105 1104 1103
f 1105 1106 1104
f 1107 1106 1105
f 1106 1107 1108
f 1109 1108 1107
f 1109 1110 1108
f 1111 1110 1109
f 1111 1112 1110
f 1113 1112 1111
f 1112 1113 1114
f 1115 1114 1113
f 1115 1116 1114
f 1117 1116 1115
f 1117 1118 1116
f 1119 1118 1117
f 1118 1119 1120
f 1121 1120 1119
f 1121 1122 1120
f 1123 1122 1121
f 1123 1124 1122
f 1125 1124 1123
f 1124 1125 1126
f 1127 1126 1125
f 1127 1128 1126
f 1129 1128 1127
f 1129 1130 1128
f 1131 1130 1129
f 1130 1131 1132
f 1133 1134 1135
f 1132 1134 1133
f 1134 1132 1131
f 1136 1135 1134
f 1135 1136 1137
f 1137 1136 1138
f 1139 1140 1141
f 1137 1140 1139
f 1140 1137 1138
f 1142 1141 1140
f 1141 1142 1143
f 1143 1142 1144
f 1145 1146 1147
f 1143 1146 1145
f 1146 1143 1144
f 1148 1147 1146
f 1147 1148 1149
f 1149 1148 1150
f 1151 1152 1153
f 1149 1152 1151
f 1152 1149 1150
f 1154 1153 1152
f 1153 1154 1155
f 1155 1154 1156
f 1157 1158 1159
f 1155 1158 1157
f 1158 1155 1156
f 1160 1159 1158
f 1159 1160 1161
f 1161 1160 1162
f 1163 1164 1165
f 1161 1164 1163
f 1164 1161 1162
f 1166 1165 1164
f 1165 1166 1167
f 1167 1166 1168
f 1169 1170 1171
f 1167 1170 1169
f 1170 1167 1168
f 1172 1171 1170
f 1171 1172 892
f 892 1172 893
f 235 1173 237
f 1174 1097 1095
f 112 1097 1174
f 1099 112 58
f 112 1099 1097
f 113 112 1174
f 29 31 1175
f 191 1030 1176
f 191 1176 192
f 191 1034 1032
f 1030 191 1032
f 1034 191 1177
f 147 146 1178
f 209 1179 210
f 210 1179 215
f 1180 243 373
f 1181 346 241
f 309 1172 1182
f 309 1182 308
f 309 890 893
f 1172 309 893
f 890 309 1183
f 52 70 1184
f 63 66 1185
f 62 1186 61
f 62 1111 1186
f 62 1113 1111
f 1185 1113 62
f 1113 1185 1115
f 1081 141 1187
f 1079 141 1081
f 1188 141 1079
f 1188 1079 1077
f 141 1188 142
f 143 142 1188
f 1189 178 151
f 1052 178 1189
f 1050 178 1052
f 1048 178 1050
f 178 1048 1190
f 207 1004 1002
f 207 1000 1191
f 1004 207 1192
f 1000 207 1002
f 207 1191 208
f 226 1193 228
f 228 1193 231
f 1194 329 336
f 1194 926 924
f 336 932 926
f 336 926 1194
f 932 336 1195
f 1195 336 338
f 1196 300 296
f 299 1154 1197
f 1196 299 300
f 299 1156 1154
f 299 1158 1156
f 299 1196 1158
f 295 64 1198
f 1199 66 67
f 66 1117 1185
f 66 1119 1117
f 66 1199 1119
f 1119 1199 1121
f 52 1200 69
f 52 1129 1200
f 52 1131 1129
f 52 1134 1131
f 1134 52 1184
f 62 63 1185
f 57 59 1201
f 1174 31 113
f 1093 31 1174
f 1091 31 1093
f 1175 1091 1089
f 1091 1175 31
f 1175 38 29
f 1087 38 1175
f 1085 38 1087
f 1187 1085 1083
f 1085 1187 38
f 146 145 1178
f 1075 143 1188
f 1073 143 1075
f 1071 143 1073
f 1202 143 1071
f 143 1202 144
f 1202 145 144
f 1069 145 1202
f 1068 145 1069
f 1066 145 1068
f 145 1066 1178
f 1046 182 1190
f 1044 182 1046
f 1042 182 1044
f 1203 182 1042
f 182 1203 183
f 189 1177 191
f 1064 147 1178
f 1062 147 1064
f 1060 147 1062
f 1204 147 1060
f 147 1204 148
f 959 1173 966
f 959 237 1173
f 957 237 959
f 237 957 238
f 198 1205 199
f 209 998 996
f 209 994 1179
f 998 209 1191
f 994 209 996
f 1191 209 208
f 1174 1095 1093
f 1175 1089 1087
f 1187 1083 1081
f 1188 1077 1075
f 1202 1071 1069
f 1177 1036 1034
f 1189 1054 1052
f 1192 1006 1004
f 1206 1012 1010
f 1191 1000 998
f 1193 976 978
f 932 1195 930
f 1152 1197 1154
f 1146 1198 1148
f 1121 1199 1123
f 1127 1200 1129
f 1103 1201 1105
f 1203 1042 1040
f 1190 1048 1046
f 1204 1060 1058
f 1178 1066 1064
f 1205 1018 1016
f 1207 982 984
f 1173 964 966
f 956 1208 954
f 950 1180 948
f 916 1209 918
f 1170 1182 1172
f 938 1210 936
f 922 1194 924
f 1164 1211 1166
f 1158 1196 1160
f 1134 1184 1136
f 1140 1212 1142
f 1115 1185 1117
f 1109 1186 1111
f 1213 970 972
f 1214 988 990
f 1179 994 992
f 898 1215 900
f 904 1216 906
f 910 1217 912
f 1218 1024 1022
f 890 1183 894
f 944 1181 942
f 1176 1030 1028
f 974 1207 984
f 226 976 1193
f 226 1207 974
f 976 226 974
f 1207 226 224
f 1181 940 942
f 241 950 940
f 241 940 1181
f 950 241 1180
f 1180 241 243
f 1194 322 329
f 1180 946 948
f 373 956 946
f 373 946 1180
f 956 373 1208
f 1208 373 374
f 1197 71 299
f 296 1160 1196
f 1160 296 1162
f 1211 296 306
f 296 1164 1162
f 296 1211 1164
f 298 71 1197
f 60 61 1186
f 60 1201 59
f 60 1105 1201
f 60 1107 1105
f 1186 1107 60
f 1107 1186 1109
f 40 38 1187
f 141 40 1187
f 183 1203 184
f 184 1040 1038
f 1040 184 1203
f 1036 184 1038
f 1177 184 1036
f 184 1177 189
f 179 1190 182
f 179 178 1190
f 1204 150 148
f 1058 150 1204
f 1056 150 1058
f 1054 150 1056
f 150 1054 1189
f 151 150 1189
f 962 1213 972
f 234 964 1173
f 962 234 1213
f 964 234 962
f 234 1173 235
f 203 1206 204
f 201 1206 203
f 217 1207 224
f 986 1179 992
f 215 988 1214
f 986 215 1179
f 988 215 986
f 215 1214 216
f 1215 312 314
f 1183 309 310
f 1216 315 317
f 1217 319 320
f 957 375 238
f 952 375 957
f 1208 952 954
f 952 1208 375
f 1208 374 375
f 1210 340 343
f 1210 934 936
f 345 944 934
f 345 1210 343
f 1210 345 934
f 944 345 1181
f 70 74 1184
f 298 1198 64
f 298 1148 1198
f 298 1150 1148
f 298 1152 1150
f 1152 298 1197
f 307 1166 1211
f 1166 307 1168
f 307 1170 1168
f 1170 307 1182
f 1182 307 308
f 1211 306 307
f 1200 68 69
f 68 1123 1199
f 68 1125 1123
f 68 1127 1125
f 68 1200 1127
f 67 68 1199
f 57 1099 58
f 57 1101 1099
f 1201 1101 57
f 1101 1201 1103
f 968 1193 978
f 231 970 1213
f 968 231 1193
f 970 231 968
f 231 1213 232
f 232 1213 234
f 204 1010 1008
f 204 1006 1192
f 1010 204 1206
f 1006 204 1008
f 204 1192 205
f 205 1192 207
f 201 1016 1014
f 1016 201 1205
f 1205 201 199
f 1012 201 1014
f 201 1012 1206
f 980 1214 990
f 217 982 1207
f 217 1214 980
f 982 217 980
f 1214 217 216
f 312 1183 310
f 1183 312 894
f 312 896 894
f 312 898 896
f 898 312 1215
f 322 918 1209
f 322 922 920
f 322 1209 321
f 918 322 920
f 922 322 1194
f 320 912 1217
f 320 916 914
f 912 320 914
f 916 320 1209
f 1209 320 321
f 1216 317 318
f 318 906 1216
f 318 910 908
f 906 318 908
f 910 318 1217
f 1217 318 319
f 1195 928 930
f 340 938 928
f 340 1195 338
f 1195 340 928
f 938 340 1210
f 1181 345 346
f 295 1212 53
f 295 1142 1212
f 295 1144 1142
f 295 1146 1144
f 1146 295 1198
f 1212 74 53
f 74 1136 1184
f 74 1138 1136
f 74 1140 1138
f 74 1212 1140
f 193 1024 1218
f 1024 193 1026
f 193 1028 1026
f 1028 193 1176
f 1176 193 192
f 315 900 1215
f 315 1215 314
f 900 315 902
f 315 904 902
f 904 315 1216
f 193 1218 196
f 198 1218 1022
f 1218 198 196
f 1020 198 1022
f 1018 198 1020
f 198 1018 1205
f 1098 1219 1096
f 1098 539 1219
f 1100 539 1098
f 539 1100 540
f 768 958 769
f 768 953 958
f 1220 953 768
f 953 1220 951
f 623 621 1221
f 662 660 1222
f 1027 490 1025
f 1023 490 1223
f 490 1023 1025
f 1224 490 1027
f 490 1224 487
f 1225 551 552
f 551 1076 1226
f 551 1074 1076
f 551 1072 1074
f 551 1225 1072
f 1169 723 1167
f 1165 723 1227
f 723 1165 1167
f 1228 723 1169
f 723 1228 724
f 1229 827 789
f 1230 534 770
f 553 554 1231
f 545 1232 544
f 545 1088 1232
f 545 1086 1088
f 1233 1086 545
f 1086 1233 1084
f 678 677 1234
f 935 1235 933
f 757 943 1236
f 757 1235 935
f 943 757 935
f 1235 757 755
f 1237 511 521
f 1238 485 486
f 1239 479 473
f 471 1240 469
f 471 1057 1240
f 471 1055 1057
f 471 1053 1055
f 1053 471 1241
f 546 549 1233
f 553 1225 552
f 553 1070 1225
f 553 1067 1070
f 553 1065 1067
f 1065 553 1231
f 545 546 1233
f 539 542 1219
f 657 656 1242
f 1221 656 623
f 1106 656 1221
f 1108 656 1106
f 1242 1108 1110
f 1108 1242 656
f 1242 660 657
f 1112 660 1242
f 1114 660 1112
f 1222 1114 1116
f 1114 1222 660
f 1243 710 683
f 1147 710 1243
f 1149 710 1147
f 1151 710 1149
f 710 1151 1244
f 711 710 1244
f 1222 1116 1118
f 1245 909 911
f 1246 915 917
f 1029 1224 1027
f 1035 1238 1033
f 1041 1239 1039
f 1059 1240 1057
f 1053 1241 1051
f 1072 1225 1070
f 1090 1232 1088
f 1096 1219 1094
f 1221 1104 1106
f 1242 1110 1112
f 1247 1128 1130
f 1243 1145 1147
f 1220 955 951
f 1248 903 905
f 1249 949 945
f 961 1229 965
f 967 1250 971
f 993 1237 991
f 1047 1251 1045
f 1078 1226 1076
f 1234 1133 1135
f 1235 937 933
f 1084 1233 1082
f 1252 1122 1124
f 1253 1157 1159
f 1254 1139 1141
f 1236 943 939
f 1255 897 899
f 1256 931 927
f 1257 921 923
f 1017 1258 1015
f 999 1259 997
f 1005 1260 1003
f 973 1230 977
f 985 1261 989
f 979 1262 983
f 1065 1231 1063
f 1227 1163 1165
f 1244 1151 1153
f 1263 889 891
f 1023 1223 1021
f 1011 1264 1009
f 1228 1169 1171
f 734 1248 735
f 732 1248 734
f 740 917 919
f 740 921 1257
f 917 740 1246
f 921 740 919
f 1246 740 739
f 740 1257 741
f 757 1236 759
f 748 1235 755
f 759 1236 762
f 763 1249 765
f 1250 771 825
f 1250 963 971
f 825 961 963
f 825 963 1250
f 961 825 1229
f 1229 825 827
f 500 1009 1264
f 500 1005 1007
f 1009 500 1007
f 1005 500 1260
f 1260 500 501
f 1264 499 500
f 1230 969 977
f 770 967 969
f 770 969 1230
f 967 770 1250
f 1250 770 771
f 476 477 1251
f 473 1039 1239
f 1039 473 1037
f 1238 473 485
f 473 1035 1037
f 473 1238 1035
f 554 470 1231
f 476 1241 472
f 476 1051 1241
f 476 1049 1051
f 476 1047 1049
f 1047 476 1251
f 550 551 1226
f 543 544 1232
f 543 1219 542
f 543 1094 1219
f 543 1092 1094
f 1232 1092 543
f 1092 1232 1090
f 1100 621 540
f 1102 621 1100
f 1221 1102 1104
f 1102 1221 621
f 675 674 1252
f 1135 679 1234
f 1137 679 1135
f 1139 679 1137
f 1254 679 1139
f 679 1254 680
f 679 678 1234
f 711 1244 714
f 715 1253 716
f 947 1249 945
f 765 955 1220
f 947 765 1249
f 955 765 947
f 765 1220 766
f 766 1220 768
f 732 899 901
f 899 732 1255
f 1255 732 731
f 903 732 901
f 732 903 1248
f 735 905 907
f 735 909 1245
f 905 735 1248
f 909 735 907
f 735 1245 736
f 741 1257 746
f 505 997 1259
f 505 993 995
f 505 1259 504
f 997 505 995
f 993 505 1237
f 1237 505 511
f 1264 497 499
f 1258 494 495
f 1229 960 965
f 789 960 1229
f 958 789 769
f 789 958 960
f 1262 525 529
f 471 472 1241
f 1224 486 487
f 486 1224 1029
f 486 1029 1031
f 1033 486 1031
f 486 1033 1238
f 478 1045 1251
f 1239 478 479
f 478 1043 1045
f 478 1041 1043
f 478 1239 1041
f 1251 477 478
f 1226 549 550
f 549 1082 1233
f 549 1080 1082
f 549 1226 1080
f 1080 1226 1078
f 1118 673 1222
f 1120 673 1118
f 1252 673 1120
f 1252 1120 1122
f 673 1252 674
f 673 662 1222
f 1124 675 1252
f 1126 675 1124
f 1128 675 1126
f 1247 675 1128
f 675 1247 676
f 1247 677 676
f 1130 677 1247
f 1132 677 1130
f 1133 677 1132
f 677 1133 1234
f 716 1159 1161
f 1159 716 1253
f 1163 716 1161
f 1227 716 1163
f 716 1227 721
f 721 1227 723
f 683 682 1243
f 1254 682 680
f 1141 682 1254
f 1143 682 1141
f 1145 682 1143
f 682 1145 1243
f 941 1236 939
f 762 949 1249
f 941 762 1236
f 949 762 941
f 762 1249 763
f 729 1255 731
f 736 1245 738
f 738 911 913
f 738 915 1246
f 911 738 1245
f 915 738 913
f 738 1246 739
f 925 1257 923
f 746 931 1256
f 925 746 1257
f 931 746 925
f 746 1256 747
f 929 1256 927
f 748 937 1235
f 748 1256 929
f 937 748 929
f 1256 748 747
f 494 1223 492
f 1223 494 1021
f 494 1019 1021
f 494 1017 1019
f 1017 494 1258
f 1223 490 492
f 1260 501 503
f 503 1003 1260
f 503 999 1001
f 1003 503 1001
f 999 503 1259
f 1259 503 504
f 1262 975 983
f 533 973 975
f 533 1262 529
f 1262 533 975
f 973 533 1230
f 1230 533 534
f 1261 981 989
f 525 979 981
f 525 1261 522
f 1261 525 981
f 979 525 1262
f 1237 987 991
f 521 985 987
f 521 987 1237
f 985 521 1261
f 1261 521 522
f 1240 470 469
f 470 1063 1231
f 470 1061 1063
f 470 1059 1061
f 470 1240 1059
f 1153 714 1244
f 1155 714 1153
f 1157 714 1155
f 1253 714 1157
f 714 1253 715
f 725 1263 727
f 729 1263 891
f 1263 729 727
f 895 729 891
f 897 729 895
f 729 897 1255
f 497 1015 1258
f 497 1258 495
f 1015 497 1013
f 497 1011 1013
f 1011 497 1264
f 1228 725 724
f 725 1228 1171
f 725 1171 892
f 889 725 892
f 725 889 1263

