# https://github.com/mikedh/trimesh

o OpenSCAD_Model
v 4.00000000 0.00000000 20.00000000
v 3.96578000 0.52210400 5.00000000
v 3.96578000 0.52210400 20.00000000
v 4.00000000 0.00000000 5.00000000
v 4.00000000 0.00000000 3.50000000
v 3.96578000 0.52210400 0.00000000
v 3.96578000 0.52210400 3.50000000
v 4.00000000 0.00000000 0.00000000
v -4.00000000 0.00000000 0.00000000
v -3.96578000 0.52210400 3.50000000
v -3.96578000 0.52210400 0.00000000
v -4.00000000 0.00000000 3.50000000
v -4.00000000 0.00000000 5.00000000
v -3.96578000 0.52210400 20.00000000
v -3.96578000 0.52210400 5.00000000
v -4.00000000 0.00000000 20.00000000
v 0.52210400 3.96578000 0.00000000
v 0.00000000 4.00000000 3.50000000
v 0.52210400 3.96578000 3.50000000
v 0.00000000 4.00000000 0.00000000
v 0.52210400 3.96578000 5.00000000
v 0.00000000 4.00000000 20.00000000
v 0.52210400 3.96578000 20.00000000
v 0.00000000 4.00000000 5.00000000
v -2.82843000 -2.82843000 0.00000000
v -3.17341000 -2.43505000 3.50000000
v -3.17341000 -2.43505000 0.00000000
v -2.82843000 -2.82843000 3.50000000
v -2.82843000 -2.82843000 5.00000000
v -3.17341000 -2.43505000 20.00000000
v -3.17341000 -2.43505000 5.00000000
v -2.82843000 -2.82843000 20.00000000
v 2.82843000 2.82843000 0.00000000
v 2.43505000 3.17341000 3.50000000
v 2.82843000 2.82843000 3.50000000
v 2.43505000 3.17341000 0.00000000
v 2.82843000 2.82843000 5.00000000
v 2.43505000 3.17341000 20.00000000
v 2.82843000 2.82843000 20.00000000
v 2.43505000 3.17341000 5.00000000
v -2.43505000 3.17341000 0.00000000
v -2.82843000 2.82843000 3.50000000
v -2.43505000 3.17341000 3.50000000
v -2.82843000 2.82843000 0.00000000
v -2.43505000 3.17341000 5.00000000
v -2.82843000 2.82843000 20.00000000
v -2.43505000 3.17341000 20.00000000
v -2.82843000 2.82843000 5.00000000
v -1.03528000 3.86370000 0.00000000
v -1.53073000 3.69552000 3.50000000
v -1.03528000 3.86370000 3.50000000
v -1.53073000 3.69552000 0.00000000
v -1.03528000 3.86370000 5.00000000
v -1.53073000 3.69552000 20.00000000
v -1.03528000 3.86370000 20.00000000
v -1.53073000 3.69552000 5.00000000
v 3.96578000 -0.52210400 0.00000000
v 3.86370000 -1.03528000 0.00000000
v 3.86370000 1.03528000 0.00000000
v 3.69552000 -1.53073000 0.00000000
v 3.69552000 1.53073000 0.00000000
v 3.46410000 -2.00000000 0.00000000
v 3.46410000 2.00000000 0.00000000
v 3.17341000 -2.43505000 0.00000000
v 3.17341000 2.43505000 0.00000000
v 2.82843000 -2.82843000 0.00000000
v 2.43505000 -3.17341000 0.00000000
v 2.00000000 -3.46410000 0.00000000
v 2.00000000 3.46410000 0.00000000
v 1.53073000 -3.69552000 0.00000000
v 1.53073000 3.69552000 0.00000000
v 1.03528000 -3.86370000 0.00000000
v 1.03528000 3.86370000 0.00000000
v 0.52210400 -3.96578000 0.00000000
v 0.00000000 -4.00000000 0.00000000
v -0.52210400 -3.96578000 0.00000000
v -0.52210400 3.96578000 0.00000000
v -1.03528000 -3.86370000 0.00000000
v -1.53073000 -3.69552000 0.00000000
v -2.00000000 -3.46410000 0.00000000
v -2.00000000 3.46410000 0.00000000
v -2.43505000 -3.17341000 0.00000000
v -3.17341000 2.43505000 0.00000000
v -3.46410000 -2.00000000 0.00000000
v -3.46410000 2.00000000 0.00000000
v -3.69552000 -1.53073000 0.00000000
v -3.69552000 1.53073000 0.00000000
v -3.86370000 -1.03528000 0.00000000
v -3.86370000 1.03528000 0.00000000
v -3.96578000 -0.52210400 0.00000000
v 3.69552000 1.53073000 3.50000000
v 3.46410000 2.00000000 3.50000000
v 3.69552000 1.53073000 20.00000000
v 3.46410000 2.00000000 5.00000000
v 3.46410000 2.00000000 20.00000000
v 3.69552000 1.53073000 5.00000000
v 3.17341000 2.43505000 3.50000000
v 3.17341000 2.43505000 5.00000000
v 3.17341000 2.43505000 20.00000000
v 1.53073000 3.69552000 3.50000000
v 2.00000000 3.46410000 3.50000000
v 2.00000000 3.46410000 5.00000000
v 1.53073000 3.69552000 20.00000000
v 2.00000000 3.46410000 20.00000000
v 1.53073000 3.69552000 5.00000000
v -3.46410000 2.00000000 3.50000000
v -3.69552000 1.53073000 3.50000000
v -3.69552000 1.53073000 5.00000000
v -3.46410000 2.00000000 20.00000000
v -3.46410000 2.00000000 5.00000000
v -3.69552000 1.53073000 20.00000000
v -3.17341000 2.43505000 3.50000000
v -3.17341000 2.43505000 5.00000000
v -3.17341000 2.43505000 20.00000000
v 3.96578000 -0.52210400 20.00000000
v 3.86370000 1.03528000 20.00000000
v 3.86370000 -1.03528000 20.00000000
v 3.69552000 -1.53073000 20.00000000
v 3.46410000 -2.00000000 20.00000000
v 3.17341000 -2.43505000 20.00000000
v 2.82843000 -2.82843000 20.00000000
v 2.43505000 -3.17341000 20.00000000
v 2.00000000 -3.46410000 20.00000000
v 1.53073000 -3.69552000 20.00000000
v 1.03528000 3.86370000 20.00000000
v 1.03528000 -3.86370000 20.00000000
v 0.52210400 -3.96578000 20.00000000
v 0.00000000 -4.00000000 20.00000000
v -0.52210400 3.96578000 20.00000000
v -0.52210400 -3.96578000 20.00000000
v -1.03528000 -3.86370000 20.00000000
v -1.53073000 -3.69552000 20.00000000
v -2.00000000 3.46410000 20.00000000
v -2.00000000 -3.46410000 20.00000000
v -2.43505000 -3.17341000 20.00000000
v -3.46410000 -2.00000000 20.00000000
v -3.69552000 -1.53073000 20.00000000
v -3.86370000 1.03528000 20.00000000
v -3.86370000 -1.03528000 20.00000000
v -3.96578000 -0.52210400 20.00000000
v -0.52210400 3.96578000 3.50000000
v -0.52210400 3.96578000 5.00000000
v 3.86370000 -1.03528000 5.00000000
v 3.69552000 -1.53073000 5.00000000
v 3.69552000 -1.53073000 3.50000000
v 3.86370000 -1.03528000 3.50000000
v 2.43505000 -3.17341000 3.50000000
v 2.00000000 -3.46410000 3.50000000
v 2.00000000 -3.46410000 5.00000000
v 2.43505000 -3.17341000 5.00000000
v -2.43505000 -3.17341000 3.50000000
v -2.43505000 -3.17341000 5.00000000
v -3.96578000 -0.52210400 3.50000000
v -3.96578000 -0.52210400 5.00000000
v 3.86370000 1.03528000 5.00000000
v 3.86370000 1.03528000 3.50000000
v 1.03528000 3.86370000 3.50000000
v 1.03528000 3.86370000 5.00000000
v -3.86370000 1.03528000 3.50000000
v -3.86370000 1.03528000 5.00000000
v -2.00000000 3.46410000 3.50000000
v -2.00000000 3.46410000 5.00000000
v 0.00000000 -4.00000000 5.00000000
v 0.52210400 -3.96578000 5.00000000
v 0.52210400 -3.96578000 3.50000000
v 0.00000000 -4.00000000 3.50000000
v 1.53073000 -3.69552000 3.50000000
v 1.03528000 -3.86370000 3.50000000
v 1.03528000 -3.86370000 5.00000000
v 1.53073000 -3.69552000 5.00000000
v 2.82843000 -2.82843000 3.50000000
v 2.82843000 -2.82843000 5.00000000
v 3.17341000 -2.43505000 3.50000000
v 3.46410000 -2.00000000 3.50000000
v 3.46410000 -2.00000000 5.00000000
v 3.17341000 -2.43505000 5.00000000
v -2.00000000 -3.46410000 3.50000000
v -2.00000000 -3.46410000 5.00000000
v -1.03528000 -3.86370000 3.50000000
v -1.53073000 -3.69552000 3.50000000
v -1.53073000 -3.69552000 5.00000000
v -1.03528000 -3.86370000 5.00000000
v -0.52210400 -3.96578000 3.50000000
v -0.52210400 -3.96578000 5.00000000
v -3.69552000 -1.53073000 3.50000000
v -3.46410000 -2.00000000 3.50000000
v -3.46410000 -2.00000000 5.00000000
v -3.69552000 -1.53073000 5.00000000
v -3.86370000 -1.03528000 3.50000000
v -3.86370000 -1.03528000 5.00000000
v 3.96578000 -0.52210400 3.50000000
v 3.96578000 -0.52210400 5.00000000
v 5.25000000 0.00000000 5.00000000
v 5.20508000 0.68526200 3.50000000
v 5.20508000 0.68526200 5.00000000
v 5.25000000 0.00000000 3.50000000
v -5.25000000 0.00000000 3.50000000
v -5.20508000 0.68526200 5.00000000
v -5.20508000 0.68526200 3.50000000
v -5.25000000 0.00000000 5.00000000
v 0.68526200 5.20508000 3.50000000
v 0.00000000 5.25000000 5.00000000
v 0.68526200 5.20508000 5.00000000
v 0.00000000 5.25000000 3.50000000
v -0.68526200 -5.20508000 3.50000000
v 0.00000000 -5.25000000 5.00000000
v -0.68526200 -5.20508000 5.00000000
v 0.00000000 -5.25000000 3.50000000
v -3.71231000 -3.71231000 3.50000000
v -4.16510000 -3.19600000 5.00000000
v -4.16510000 -3.19600000 3.50000000
v -3.71231000 -3.71231000 5.00000000
v 3.71231000 3.71231000 3.50000000
v 3.19600000 4.16510000 5.00000000
v 3.71231000 3.71231000 5.00000000
v 3.19600000 4.16510000 3.50000000
v -3.19600000 4.16510000 3.50000000
v -3.71231000 3.71231000 5.00000000
v -3.19600000 4.16510000 5.00000000
v -3.71231000 3.71231000 3.50000000
v -1.35880000 5.07111000 3.50000000
v -2.00909000 4.85037000 5.00000000
v -1.35880000 5.07111000 5.00000000
v -2.00909000 4.85037000 3.50000000
v 4.16510000 -3.19600000 5.00000000
v 4.54663000 -2.62500000 3.50000000
v 4.54663000 -2.62500000 5.00000000
v 4.16510000 -3.19600000 3.50000000
v 4.85037000 2.00909000 5.00000000
v 4.54663000 2.62500000 3.50000000
v 4.54663000 2.62500000 5.00000000
v 4.85037000 2.00909000 3.50000000
v 5.07111000 1.35880000 3.50000000
v 5.07111000 1.35880000 5.00000000
v 4.16510000 3.19600000 3.50000000
v 4.16510000 3.19600000 5.00000000
v 2.00909000 4.85037000 3.50000000
v 1.35880000 5.07111000 5.00000000
v 2.00909000 4.85037000 5.00000000
v 1.35880000 5.07111000 3.50000000
v 2.62500000 4.54663000 5.00000000
v 2.62500000 4.54663000 3.50000000
v -4.85037000 2.00909000 3.50000000
v -4.54663000 2.62500000 5.00000000
v -4.54663000 2.62500000 3.50000000
v -4.85037000 2.00909000 5.00000000
v -4.16510000 3.19600000 3.50000000
v -4.16510000 3.19600000 5.00000000
v -5.07111000 1.35880000 3.50000000
v -5.07111000 1.35880000 5.00000000
v -0.68526200 5.20508000 3.50000000
v -0.68526200 5.20508000 5.00000000
v 2.00909000 -4.85037000 3.50000000
v 2.62500000 -4.54663000 5.00000000
v 2.00909000 -4.85037000 5.00000000
v 2.62500000 -4.54663000 3.50000000
v 3.19600000 -4.16510000 5.00000000
v 3.19600000 -4.16510000 3.50000000
v -2.62500000 -4.54663000 3.50000000
v -2.00909000 -4.85037000 5.00000000
v -2.62500000 -4.54663000 5.00000000
v -2.00909000 -4.85037000 3.50000000
v -3.19600000 -4.16510000 5.00000000
v -3.19600000 -4.16510000 3.50000000
v -1.35880000 -5.07111000 5.00000000
v -1.35880000 -5.07111000 3.50000000
v 5.20508000 -0.68526200 3.50000000
v 5.07111000 -1.35880000 3.50000000
v 4.85037000 -2.00909000 3.50000000
v 3.71231000 -3.71231000 3.50000000
v 1.35880000 -5.07111000 3.50000000
v 0.68526200 -5.20508000 3.50000000
v -4.54663000 -2.62500000 3.50000000
v -4.85037000 -2.00909000 3.50000000
v -2.62500000 4.54663000 3.50000000
v -5.07111000 -1.35880000 3.50000000
v -5.20508000 -0.68526200 3.50000000
v 5.20508000 -0.68526200 5.00000000
v 5.07111000 -1.35880000 5.00000000
v 4.85037000 -2.00909000 5.00000000
v -2.62500000 4.54663000 5.00000000
v 3.71231000 -3.71231000 5.00000000
v 1.35880000 -5.07111000 5.00000000
v 0.68526200 -5.20508000 5.00000000
v -4.54663000 -2.62500000 5.00000000
v -4.85037000 -2.00909000 5.00000000
v -5.07111000 -1.35880000 5.00000000
v -5.20508000 -0.68526200 5.00000000
f 1 2 3
f 2 1 4
f 5 6 7
f 6 5 8
f 9 10 11
f 10 9 12
f 13 14 15
f 14 13 16
f 17 18 19
f 18 17 20
f 21 22 23
f 22 21 24
f 25 26 27
f 26 25 28
f 29 30 31
f 30 29 32
f 33 34 35
f 34 33 36
f 37 38 39
f 38 37 40
f 41 42 43
f 42 41 44
f 45 46 47
f 46 45 48
f 49 50 51
f 50 49 52
f 53 54 55
f 54 53 56
f 57 6 8
f 58 6 57
f 58 59 6
f 60 59 58
f 60 61 59
f 62 61 60
f 62 63 61
f 64 63 62
f 64 65 63
f 66 65 64
f 66 33 65
f 67 33 66
f 67 36 33
f 68 36 67
f 68 69 36
f 70 69 68
f 70 71 69
f 72 71 70
f 72 73 71
f 74 73 72
f 74 17 73
f 75 17 74
f 75 20 17
f 76 20 75
f 76 77 20
f 78 77 76
f 78 49 77
f 79 49 78
f 79 52 49
f 80 52 79
f 80 81 52
f 82 81 80
f 82 41 81
f 25 41 82
f 25 44 41
f 27 44 25
f 27 83 44
f 84 83 27
f 84 85 83
f 86 85 84
f 86 87 85
f 88 87 86
f 88 89 87
f 90 89 88
f 90 11 89
f 11 90 9
f 91 63 92
f 63 91 61
f 93 94 95
f 94 93 96
f 92 65 97
f 65 92 63
f 95 98 99
f 98 95 94
f 69 100 101
f 100 69 71
f 102 103 104
f 103 102 105
f 36 101 34
f 101 36 69
f 40 104 38
f 104 40 102
f 87 106 85
f 106 87 107
f 108 109 110
f 109 108 111
f 83 42 44
f 42 83 112
f 113 46 48
f 46 113 114
f 3 115 1
f 116 115 3
f 116 117 115
f 93 117 116
f 93 118 117
f 95 118 93
f 95 119 118
f 99 119 95
f 99 120 119
f 39 120 99
f 39 121 120
f 38 121 39
f 38 122 121
f 104 122 38
f 104 123 122
f 103 123 104
f 103 124 123
f 125 124 103
f 125 126 124
f 23 126 125
f 23 127 126
f 22 127 23
f 22 128 127
f 129 128 22
f 129 130 128
f 55 130 129
f 55 131 130
f 54 131 55
f 54 132 131
f 133 132 54
f 133 134 132
f 47 134 133
f 47 135 134
f 46 135 47
f 46 32 135
f 114 32 46
f 114 30 32
f 109 30 114
f 109 136 30
f 111 136 109
f 111 137 136
f 138 137 111
f 138 139 137
f 14 139 138
f 14 140 139
f 140 14 16
f 20 141 18
f 141 20 77
f 24 129 22
f 129 24 142
f 118 143 117
f 143 118 144
f 145 58 146
f 58 145 60
f 68 147 148
f 147 68 67
f 149 122 123
f 122 149 150
f 25 151 28
f 151 25 82
f 29 135 32
f 135 29 152
f 90 12 9
f 12 90 153
f 154 16 13
f 16 154 140
f 116 96 93
f 96 116 155
f 156 61 91
f 61 156 59
f 3 155 116
f 155 3 2
f 7 59 156
f 59 7 6
f 97 33 35
f 33 97 65
f 99 37 39
f 37 99 98
f 71 157 100
f 157 71 73
f 105 125 103
f 125 105 158
f 73 19 157
f 19 73 17
f 158 23 125
f 23 158 21
f 85 112 83
f 112 85 106
f 110 114 113
f 114 110 109
f 89 107 87
f 107 89 159
f 160 111 108
f 111 160 138
f 11 159 89
f 159 11 10
f 15 138 160
f 138 15 14
f 52 161 50
f 161 52 81
f 56 133 54
f 133 56 162
f 81 43 161
f 43 81 41
f 162 47 133
f 47 162 45
f 77 51 141
f 51 77 49
f 142 55 129
f 55 142 53
f 163 127 128
f 127 163 164
f 75 165 166
f 165 75 74
f 72 167 168
f 167 72 70
f 169 124 126
f 124 169 170
f 67 171 147
f 171 67 66
f 150 121 122
f 121 150 172
f 173 62 174
f 62 173 64
f 120 175 119
f 175 120 176
f 82 177 151
f 177 82 80
f 152 134 135
f 134 152 178
f 79 179 180
f 179 79 78
f 181 131 132
f 131 181 182
f 76 166 183
f 166 76 75
f 184 128 130
f 128 184 163
f 84 185 86
f 185 84 186
f 187 137 188
f 137 187 136
f 88 153 90
f 153 88 189
f 190 140 154
f 140 190 139
f 164 126 127
f 126 164 169
f 74 168 165
f 168 74 72
f 70 148 167
f 148 70 68
f 170 123 124
f 123 170 149
f 171 64 173
f 64 171 66
f 121 176 120
f 176 121 172
f 146 57 191
f 57 146 58
f 117 192 115
f 192 117 143
f 119 144 118
f 144 119 175
f 174 60 145
f 60 174 62
f 80 180 177
f 180 80 79
f 178 132 134
f 132 178 181
f 78 183 179
f 183 78 76
f 182 130 131
f 130 182 184
f 27 186 84
f 186 27 26
f 31 136 187
f 136 31 30
f 86 189 88
f 189 86 185
f 188 139 190
f 139 188 137
f 191 8 5
f 8 191 57
f 115 4 1
f 4 115 192
f 193 194 195
f 194 193 196
f 197 198 199
f 198 197 200
f 201 202 203
f 202 201 204
f 205 206 207
f 206 205 208
f 209 210 211
f 210 209 212
f 213 214 215
f 214 213 216
f 217 218 219
f 218 217 220
f 221 222 223
f 222 221 224
f 225 226 227
f 226 225 228
f 229 230 231
f 230 229 232
f 195 233 234
f 233 195 194
f 231 235 236
f 235 231 230
f 237 238 239
f 238 237 240
f 240 203 238
f 203 240 201
f 216 241 214
f 241 216 242
f 243 244 245
f 244 243 246
f 247 218 220
f 218 247 248
f 249 246 243
f 246 249 250
f 251 223 252
f 223 251 221
f 253 254 255
f 254 253 256
f 256 257 254
f 257 256 258
f 259 260 261
f 260 259 262
f 209 263 212
f 263 209 264
f 262 265 260
f 265 262 266
f 5 196 267
f 191 267 268
f 196 5 194
f 146 268 269
f 7 194 5
f 145 269 226
f 194 7 233
f 174 226 228
f 156 233 7
f 233 156 232
f 267 191 5
f 268 146 191
f 173 228 270
f 269 145 146
f 226 174 145
f 171 270 258
f 228 173 174
f 270 171 173
f 147 258 256
f 258 147 171
f 148 256 253
f 256 148 147
f 253 167 148
f 271 167 253
f 271 168 167
f 272 168 271
f 272 165 168
f 208 165 272
f 208 166 165
f 208 183 166
f 205 183 208
f 205 179 183
f 266 179 205
f 266 180 179
f 262 180 266
f 180 262 177
f 259 177 262
f 177 259 151
f 264 151 259
f 151 264 28
f 209 28 264
f 28 209 26
f 211 26 209
f 26 211 186
f 273 186 211
f 186 273 185
f 185 274 189
f 274 185 273
f 91 232 156
f 232 91 230
f 92 230 91
f 230 92 235
f 97 235 92
f 235 97 213
f 35 213 97
f 213 35 216
f 34 216 35
f 216 34 242
f 101 242 34
f 242 101 237
f 100 237 101
f 100 240 237
f 157 240 100
f 157 201 240
f 19 201 157
f 18 201 19
f 18 204 201
f 141 204 18
f 141 251 204
f 51 251 141
f 51 221 251
f 50 221 51
f 224 50 161
f 50 224 221
f 275 161 43
f 161 275 224
f 217 43 42
f 220 42 112
f 43 217 275
f 247 112 106
f 245 106 107
f 42 220 217
f 243 107 159
f 249 159 10
f 112 247 220
f 199 10 12
f 276 189 274
f 189 276 153
f 106 245 247
f 277 153 276
f 107 243 245
f 153 277 12
f 159 249 243
f 197 12 277
f 10 199 249
f 12 197 199
f 234 232 229
f 232 234 233
f 236 213 215
f 213 236 235
f 242 239 241
f 239 242 237
f 245 248 247
f 248 245 244
f 199 250 249
f 250 199 198
f 4 193 195
f 2 195 234
f 193 4 278
f 155 234 229
f 192 278 4
f 96 229 231
f 278 192 279
f 94 231 236
f 143 279 192
f 279 143 280
f 195 2 4
f 234 155 2
f 98 236 215
f 229 96 155
f 231 94 96
f 37 215 214
f 236 98 94
f 215 37 98
f 40 214 241
f 214 40 37
f 102 241 239
f 241 102 40
f 239 105 102
f 238 105 239
f 238 158 105
f 203 158 238
f 203 21 158
f 202 21 203
f 202 24 21
f 202 142 24
f 252 142 202
f 252 53 142
f 223 53 252
f 223 56 53
f 222 56 223
f 56 222 162
f 281 162 222
f 162 281 45
f 219 45 281
f 45 219 48
f 218 48 219
f 48 218 113
f 248 113 218
f 113 248 110
f 244 110 248
f 110 244 108
f 108 246 160
f 246 108 244
f 144 280 143
f 280 144 227
f 175 227 144
f 227 175 225
f 176 225 175
f 225 176 282
f 172 282 176
f 282 172 257
f 150 257 172
f 257 150 254
f 149 254 150
f 254 149 255
f 170 255 149
f 170 283 255
f 169 283 170
f 169 284 283
f 164 284 169
f 163 284 164
f 163 206 284
f 184 206 163
f 184 207 206
f 182 207 184
f 182 265 207
f 181 265 182
f 260 181 178
f 181 260 265
f 261 178 152
f 178 261 260
f 263 152 29
f 212 29 31
f 152 263 261
f 210 31 187
f 285 187 188
f 29 212 263
f 286 188 190
f 287 190 154
f 31 210 212
f 288 154 13
f 250 160 246
f 160 250 15
f 187 285 210
f 198 15 250
f 188 286 285
f 15 198 13
f 190 287 286
f 200 13 198
f 154 288 287
f 13 200 288
f 224 281 222
f 281 224 275
f 275 219 281
f 219 275 217
f 204 252 202
f 252 204 251
f 208 284 206
f 284 208 272
f 271 255 283
f 255 271 253
f 258 282 257
f 282 258 270
f 279 267 278
f 267 279 268
f 264 261 263
f 261 264 259
f 266 207 265
f 207 266 205
f 273 286 274
f 286 273 285
f 274 287 276
f 287 274 286
f 277 200 197
f 200 277 288
f 272 283 284
f 283 272 271
f 282 228 225
f 228 282 270
f 227 269 280
f 269 227 226
f 278 196 193
f 196 278 267
f 211 285 273
f 285 211 210
f 276 288 277
f 288 276 287
f 280 268 279
f 268 280 269

