# https://github.com/mikedh/trimesh
v -0.03775157 -0.02557813 -0.01500006
v -0.03342444 -0.02628826 -0.01500006
v -0.03845874 0.02530391 -0.01500006
v -0.02383820 -0.02666803 -0.01500006
v -0.03170149 0.02634323 -0.01500007
v 0.05226536 0.02952037 -0.01500007
v 0.04017891 -0.03049573 -0.01500006
v 0.05977842 -0.02905719 -0.01500007
v 0.07909388 0.02698776 -0.01500005
v 0.02917876 -0.03013266 -0.01500006
v 0.03855659 0.03044237 -0.01500007
v 0.01689361 -0.02857015 -0.01500005
v 0.02781039 0.02988516 -0.01500005
v 0.01471815 -0.02828533 -0.01500006
v 0.01689289 0.02846741 -0.01500005
v 0.00141363 -0.02715695 -0.01500005
v 0.00358186 0.02713463 -0.01500007
v -0.02485796 0.02656065 -0.01500006
v -0.04194141 -0.02431136 -0.01500007
v -0.05873844 -0.00005232 -0.01500007
v -0.05855028 0.00309965 -0.01500006
v -0.03994915 0.02488790 -0.01500006
v -0.04575018 0.02240134 -0.01500007
v -0.05057526 0.01892891 -0.01500006
v -0.05568939 -0.01239807 -0.01500005
v -0.05198435 -0.01763785 -0.01500005
v -0.04734925 -0.02152146 -0.01500005
v 0.08126741 -0.02681044 -0.01500006
v 0.08874167 -0.02554026 -0.01500006
v 0.08902650 0.02537395 -0.01500006
v 0.09573127 -0.02327351 -0.01500005
v 0.09584345 0.02312386 -0.01500007
v 0.10137850 -0.02021379 -0.01500006
v -0.05433789 0.01455635 -0.01500005
v -0.05707343 0.00920189 -0.01500006
v -0.05796609 -0.00640379 -0.01500006
v 0.10613936 -0.01626542 -0.01500007
v 0.10659183 0.01568555 -0.01500006
v 0.10210159 0.01961387 -0.01500005
v 0.11279067 -0.00005017 -0.01500005
v 0.11214413 -0.00557205 -0.01500006
v 0.10988453 -0.01128710 -0.01500006
v 0.11201829 0.00596483 -0.01500007
v 0.10973182 0.01145230 -0.01500005
f 1 2 3
f 3 22 1
f 1 22 23
f 1 23 24
f 24 34 1
f 1 34 35
f 1 35 21
f 20 1 21
f 19 1 20
f 19 20 27
f 27 20 36
f 27 36 25
f 25 26 27
f 3 2 4
f 3 4 5
f 4 18 5
f 4 17 18
f 16 17 4
f 16 15 17
f 14 15 16
f 14 13 15
f 12 13 14
f 12 11 13
f 10 11 12
f 10 6 11
f 7 6 10
f 6 7 8
f 6 8 9
f 8 28 9
f 9 28 29
f 9 29 30
f 30 29 31
f 30 31 32
f 32 31 33
f 33 39 32
f 33 38 39
f 37 38 33
f 37 44 38
f 37 43 44
f 40 43 37
f 40 37 41
f 41 37 42

