# Simple pan mesh for simulation
# 33 vertices, 48 triangles
v 0.000000 0.000000 0.000000
v 0.120000 0.000000 0.000000
v 0.110866 0.045922 0.000000
v 0.084853 0.084853 0.000000
v 0.045922 0.110866 0.000000
v 0.000000 0.120000 0.000000
v -0.045922 0.110866 0.000000
v -0.084853 0.084853 0.000000
v -0.110866 0.045922 0.000000
v -0.120000 0.000000 0.000000
v -0.110866 -0.045922 0.000000
v -0.084853 -0.084853 0.000000
v -0.045922 -0.110866 0.000000
v -0.000000 -0.120000 0.000000
v 0.045922 -0.110866 0.000000
v 0.084853 -0.084853 0.000000
v 0.110866 -0.045922 0.000000
v 0.120000 0.000000 0.025000
v 0.110866 0.045922 0.025000
v 0.084853 0.084853 0.025000
v 0.045922 0.110866 0.025000
v 0.000000 0.120000 0.025000
v -0.045922 0.110866 0.025000
v -0.084853 0.084853 0.025000
v -0.110866 0.045922 0.025000
v -0.120000 0.000000 0.025000
v -0.110866 -0.045922 0.025000
v -0.084853 -0.084853 0.025000
v -0.045922 -0.110866 0.025000
v -0.000000 -0.120000 0.025000
v 0.045922 -0.110866 0.025000
v 0.084853 -0.084853 0.025000
v 0.110866 -0.045922 0.025000
f 1 2 3
f 1 3 4
f 1 4 5
f 1 5 6
f 1 6 7
f 1 7 8
f 1 8 9
f 1 9 10
f 1 10 11
f 1 11 12
f 1 12 13
f 1 13 14
f 1 14 15
f 1 15 16
f 1 16 17
f 1 17 2
f 2 18 19
f 2 19 3
f 3 19 20
f 3 20 4
f 4 20 21
f 4 21 5
f 5 21 22
f 5 22 6
f 6 22 23
f 6 23 7
f 7 23 24
f 7 24 8
f 8 24 25
f 8 25 9
f 9 25 26
f 9 26 10
f 10 26 27
f 10 27 11
f 11 27 28
f 11 28 12
f 12 28 29
f 12 29 13
f 13 29 30
f 13 30 14
f 14 30 31
f 14 31 15
f 15 31 32
f 15 32 16
f 16 32 33
f 16 33 17
f 17 33 18
f 17 18 2
