# https://github.com/mikedh/trimesh
v 0.05447372 0.02751157 -0.06028176
v 0.05472365 0.02705344 -0.06028472
v 0.05224586 0.03001642 -0.06025495
v 0.05258875 0.02974187 -0.06025911
v 0.05360690 0.02873618 -0.06027141
v 0.05327507 0.02910183 -0.06026741
v 0.05291992 0.02944993 -0.06026312
v 0.05391483 0.02835254 -0.06027510
v 0.05405998 0.02815408 -0.06027684
v 0.05419938 0.02795129 -0.06027850
v 0.05181720 0.03032584 -0.06024973
v 0.05137315 0.03061244 -0.06024432
v 0.04931793 0.03160314 -0.06021918
v 0.04988350 0.03137536 -0.06022611
v 0.05044117 0.03112052 -0.06023294
v 0.05091431 0.03087709 -0.06023873
v 0.04876346 0.03179983 -0.06021238
v 0.04376179 0.03273321 -0.06015073
v 0.04559265 0.03253383 -0.06017334
v 0.04689162 0.03230275 -0.06018935
v 0.04816551 0.03198561 -0.06020503
v 0.04192195 0.03281578 -0.06012798
v 0.04864405 0.03182387 -0.06021090
v 0.04739420 0.03217031 -0.06019554
v 0.04580651 0.03248082 -0.06017597
v 0.04419821 0.03267660 -0.06015612
v 0.04194364 0.03279569 -0.06012824
v 0.05261530 0.02971501 -0.06025943
v 0.05421839 0.02791953 -0.06027872
v 0.05414883 0.02802273 -0.06027790
v 0.05219121 0.03005292 -0.06025428
v 0.05175118 0.03036443 -0.06024893
v 0.05129628 0.03065128 -0.06024338
v 0.05082746 0.03091506 -0.06023766
v 0.05035685 0.03115178 -0.06023191
v 0.05314161 0.02923238 -0.06026580
v 0.05338743 0.02897733 -0.06026876
v 0.05362162 0.02871307 -0.06027158
v 0.05393153 0.02832544 -0.06027530
v 0.05407784 0.02812476 -0.06027705
v 0.05011706 0.03126270 -0.06022897
v 0.04987438 0.03136884 -0.06022600
f 23 21 24
f 23 17 21
f 23 13 17
f 42 13 23
f 42 14 13
f 41 14 42
f 41 15 14
f 35 15 41
f 34 15 35
f 34 16 15
f 33 16 34
f 33 12 16
f 32 12 33
f 32 11 12
f 31 11 32
f 31 3 11
f 28 3 31
f 28 4 3
f 4 28 7
f 7 28 36
f 7 36 6
f 6 36 37
f 6 37 5
f 5 37 38
f 5 38 8
f 8 38 39
f 8 39 9
f 9 39 40
f 9 40 30
f 30 10 9
f 29 10 30
f 29 1 10
f 2 1 29
f 24 21 20
f 24 20 25
f 25 20 19
f 25 19 26
f 26 19 18
f 26 18 27
f 27 18 22

