# https://github.com/mikedh/trimesh
v 0.01883407 0.00047188 -0.23728445
v 0.01886068 0.00097838 -0.23707639
v 0.01875364 0.00219598 -0.23789996
v 0.01884703 0.00292807 -0.23717396
v 0.01895875 0.00174708 -0.23631404
v 0.01888081 0.00392808 -0.23690820
v 0.01909313 0.00202848 -0.23527268
v 0.01888000 0.00542950 -0.23690821
v 0.01922780 0.00174721 -0.23423131
v 0.01941549 0.00216292 -0.23277669
v 0.01939558 0.00292828 -0.23292767
v 0.01909539 -0.00217152 -0.23527271
v 0.01896071 -0.00189023 -0.23631407
v 0.01886589 -0.00331964 -0.23705395
v 0.01939422 0.00542976 -0.23292765
v 0.01938462 0.00580588 -0.23300047
v 0.01935675 0.00613350 -0.23321484
v 0.01888512 -0.00407192 -0.23690826
v 0.01901459 -0.00657044 -0.23591650
v 0.01922976 -0.00189010 -0.23423134
v 0.01927257 -0.00657031 -0.23391950
v 0.01891758 0.00613996 -0.23661439
v 0.01888967 0.00581437 -0.23683180
v 0.01895945 0.00635611 -0.23628946
v 0.01900759 0.00642957 -0.23591641
v 0.01926557 0.00642968 -0.23391943
v 0.01931492 0.00635269 -0.23353773
v 0.01886181 -0.00112163 -0.23707640
v 0.01872650 -0.00222603 -0.23812847
v 0.01881016 -0.00266441 -0.23748265
v 0.01640567 -0.00207368 -0.25609311
v 0.01862779 -0.00207206 -0.23889187
v 0.01882520 -0.00007164 -0.23735543
v 0.01883466 -0.00061516 -0.23728447
v 0.02281522 0.00174984 -0.20646150
v 0.02306443 0.00293058 -0.20452753
v 0.02268054 0.00203112 -0.20750287
v 0.02229570 0.00293001 -0.21047820
v 0.02254617 0.00174971 -0.20854424
v 0.01939049 -0.00595511 -0.23300412
v 0.01940015 -0.00557025 -0.23292772
v 0.01936259 -0.00628070 -0.23322153
v 0.01932073 -0.00649685 -0.23354647
v 0.01892341 -0.00627424 -0.23662110
v 0.01896524 -0.00649343 -0.23629820
v 0.01889554 -0.00594664 -0.23683544
v 0.01888593 -0.00557050 -0.23690827
v 0.01635835 -0.00177372 -0.25645810
v 0.01635652 0.00162628 -0.25645816
v 0.01640349 0.00192632 -0.25609320
v 0.01862565 0.00192795 -0.23889172
v 0.02228724 0.00241204 -0.21054579
v 0.02244810 0.00098100 -0.20930658
v 0.02226190 0.00192966 -0.21074395
v 0.02242149 0.00047452 -0.20951465
v 0.02216851 0.00119757 -0.21146999
v 0.02241261 -0.00006901 -0.20958562
v 0.02204053 0.00092955 -0.21246177
v 0.01969122 0.00092842 -0.23064749
v 0.02213974 -0.00122264 -0.21170272
v 0.02222311 -0.00165614 -0.21105920
v 0.02319484 -0.00133783 -0.20353578
v 0.02291412 0.00098123 -0.20569918
v 0.02294127 0.00047477 -0.20549111
v 0.01939881 -0.00307173 -0.23292771
v 0.01941790 -0.00230635 -0.23277672
v 0.01932784 -0.00112140 -0.23346899
v 0.01947310 -0.00165746 -0.23234673
v 0.01935443 -0.00061491 -0.23326093
v 0.02295073 -0.00006874 -0.20542015
v 0.02294186 -0.00061227 -0.20549113
v 0.02310145 -0.00206992 -0.20426182
v 0.02291525 -0.00111876 -0.20569919
v 0.02306765 -0.00306942 -0.20452757
v 0.02204160 -0.00107044 -0.21246178
v 0.02281718 -0.00188746 -0.20646153
v 0.02268281 -0.00216888 -0.20750290
v 0.02229892 -0.00306999 -0.21047825
v 0.02254813 -0.00188759 -0.20854427
v 0.02227900 -0.00230495 -0.21062922
v 0.02244923 -0.00111899 -0.20930660
v 0.02242208 -0.00061252 -0.20951465
v 0.02370719 -0.00106963 -0.19956866
v 0.02370611 0.00093036 -0.19956864
v 0.02332282 -0.00106981 -0.20254399
v 0.02332175 0.00093018 -0.20254399
v 0.02322361 0.00108238 -0.20330305
v 0.02314024 0.00151588 -0.20394656
v 0.02308434 0.00216470 -0.20437653
v 0.01947140 0.00151410 -0.23234671
v 0.01932669 0.00097861 -0.23346899
v 0.01955476 0.00108060 -0.23170319
v 0.01935386 0.00047213 -0.23326093
v 0.01936331 -0.00007138 -0.23318996
v 0.01969231 -0.00107158 -0.23064750
v 0.01965397 -0.00107160 -0.23094414
v 0.01965291 0.00092841 -0.23094413
v 0.01955600 -0.00122388 -0.23170322
v 0.02174405 -0.00006936 -0.20949490
v 0.02178130 0.00098066 -0.20921610
v 0.02188423 0.00174935 -0.20845443
v 0.02202526 0.00203076 -0.20741396
v 0.02216658 0.00174948 -0.20637350
v 0.02227033 0.00098088 -0.20561182
v 0.02178244 -0.00111935 -0.20921612
v 0.02188619 -0.00188795 -0.20845445
v 0.02202752 -0.00216923 -0.20741399
v 0.02216854 -0.00188781 -0.20637351
v 0.02227147 -0.00111911 -0.20561184
v 0.02230873 -0.00006909 -0.20533304
f 1 2 3
f 3 2 4
f 4 2 5
f 4 5 6
f 6 5 7
f 6 7 8
f 25 8 7
f 25 7 26
f 26 7 9
f 26 9 27
f 27 9 17
f 9 16 17
f 9 15 16
f 11 15 9
f 9 10 11
f 10 9 90
f 90 9 91
f 90 91 92
f 92 91 93
f 92 93 94
f 68 92 94
f 68 94 69
f 67 68 69
f 67 66 68
f 20 66 67
f 20 65 66
f 41 65 20
f 42 41 20
f 42 20 43
f 43 20 21
f 20 19 21
f 12 19 20
f 12 18 19
f 14 18 12
f 12 13 14
f 13 30 14
f 13 29 30
f 28 29 13
f 34 29 28
f 33 29 34
f 33 32 29
f 31 32 33
f 49 31 33
f 49 33 50
f 50 33 1
f 50 1 51
f 48 31 49
f 47 19 18
f 46 19 47
f 46 45 19
f 44 45 46
f 40 41 42
f 98 92 68
f 98 97 92
f 96 97 98
f 96 59 97
f 95 59 96
f 95 57 59
f 75 57 95
f 60 57 75
f 60 61 57
f 61 82 57
f 61 81 82
f 80 81 61
f 80 79 81
f 78 79 80
f 78 77 79
f 74 77 78
f 74 76 77
f 73 76 74
f 72 73 74
f 72 71 73
f 62 71 72
f 62 70 71
f 64 70 62
f 104 70 64
f 110 70 104
f 110 71 70
f 109 71 110
f 109 73 71
f 108 73 109
f 108 76 73
f 107 76 108
f 107 77 76
f 106 77 107
f 106 79 77
f 105 79 106
f 105 81 79
f 105 82 81
f 99 82 105
f 99 57 82
f 55 57 99
f 53 55 99
f 99 100 53
f 53 100 101
f 53 101 39
f 39 101 102
f 39 102 37
f 37 102 103
f 37 103 35
f 35 103 104
f 35 104 63
f 53 54 55
f 55 54 56
f 55 56 57
f 57 56 58
f 53 52 54
f 39 52 53
f 39 38 52
f 37 38 39
f 37 36 38
f 35 36 37
f 35 89 36
f 35 88 89
f 63 88 35
f 63 87 88
f 62 87 63
f 62 86 87
f 85 86 62
f 85 84 86
f 83 84 85
f 104 64 63
f 62 63 64
f 57 58 59
f 24 8 25
f 24 23 8
f 22 23 24
f 51 1 3

