# https://github.com/mikedh/trimesh
v 0.04086241 -0.03377461 -0.05587519
v 0.04103617 -0.03375548 -0.05488043
v 0.04254547 -0.03375441 -0.05493278
v 0.04236912 -0.03377422 -0.05590572
v 0.04407276 -0.03335892 -0.04058629
v 0.04338698 -0.03344984 -0.04359190
v 0.04451695 -0.03332613 -0.03951435
v 0.04455127 -0.03332757 -0.03946065
v 0.04454425 -0.03340562 -0.04220659
v 0.04114637 -0.03375481 -0.05490267
v 0.04293929 -0.03370655 -0.05291576
v 0.04453567 -0.03349659 -0.04528940
f 7 8 9
f 9 5 7
f 9 6 5
f 12 6 9
f 12 2 6
f 11 2 12
f 11 10 2
f 2 10 1
f 1 10 3
f 1 3 4
f 3 10 11

