# https://github.com/mikedh/trimesh
v 0.03134864 -0.02791702 -0.13419965
v 0.03120372 -0.02792960 -0.13859788
v 0.02720524 -0.02794095 -0.14248863
v 0.03203733 -0.02793970 -0.14176093
v 0.03251129 -0.02794096 -0.14259662
v 0.03719990 -0.02774892 -0.07551221
v 0.02906074 -0.02768022 -0.05131375
v 0.03979813 -0.02770337 -0.05963363
v 0.04134385 -0.02768023 -0.05156372
v 0.03509239 -0.02779466 -0.09147036
v 0.03310178 -0.02784949 -0.11061241
v 0.03162102 -0.02790444 -0.12980317
f 1 2 3
f 3 12 1
f 3 11 12
f 7 11 3
f 7 10 11
f 6 10 7
f 6 7 8
f 8 7 9
f 3 2 4
f 3 4 5

