# https://github.com/mikedh/trimesh
v 0.02711983 -0.00504444 -0.14098437
v 0.02704537 -0.00870575 -0.14464281
v 0.02694365 -0.01004694 -0.14964138
v 0.02684190 -0.00870864 -0.15464073
v 0.02704528 0.00861477 -0.14464781
v 0.02711977 0.00495556 -0.14098726
v 0.02714705 -0.00004405 -0.13964635
v 0.02676741 -0.00504943 -0.15830129
v 0.02674012 -0.00004982 -0.15964220
v 0.02676735 0.00495056 -0.15830418
v 0.02684180 0.00861187 -0.15464574
v 0.02694353 0.00995306 -0.14964716
v -0.00303601 0.00861188 -0.15403770
v -0.00293429 0.00995307 -0.14903912
v -0.00313769 -0.00004982 -0.15903416
v -0.00311040 -0.00504944 -0.15769325
v -0.00311046 0.00495056 -0.15769613
v -0.00275799 -0.00504443 -0.14037633
v -0.00283244 -0.00870575 -0.14403477
v -0.00293417 -0.01004693 -0.14903335
v -0.00303591 -0.00870864 -0.15403271
v -0.00283255 0.00861476 -0.14403977
v -0.00275805 0.00495556 -0.14037922
v -0.00273076 -0.00004405 -0.13903829
f 1 24 7
f 7 24 23
f 7 23 6
f 6 23 5
f 5 23 22
f 5 22 12
f 12 22 14
f 12 14 11
f 11 14 13
f 11 13 10
f 10 13 17
f 10 17 9
f 9 17 15
f 9 15 8
f 8 15 16
f 8 16 4
f 4 16 21
f 4 21 3
f 3 21 20
f 3 20 2
f 2 20 19
f 2 19 1
f 1 19 18
f 1 18 24

