# https://github.com/mikedh/trimesh
v 0.03412032 0.00193639 -0.24099405
v 0.03425463 0.00220442 -0.24000315
v 0.03435265 0.00293652 -0.23927777
v 0.03871856 -0.01092753 -0.20715515
v 0.03959612 -0.01755952 -0.20071366
v 0.03876757 -0.01056147 -0.20679246
v 0.03982745 -0.01721682 -0.19900723
v 0.03865140 -0.01106153 -0.20765062
v 0.03811361 -0.01106179 -0.21161430
v 0.03300813 -0.01756430 -0.24926876
v 0.03804631 -0.01092784 -0.21210976
v 0.03799690 -0.01056185 -0.21247245
v 0.03957711 0.01744047 -0.20071453
v 0.03869104 0.01086237 -0.20727125
v 0.03873477 0.01064562 -0.20694977
v 0.04002322 -0.01624120 -0.19756061
v 0.04015357 -0.01478120 -0.19659401
v 0.04019869 -0.01305909 -0.19625463
v 0.03412247 -0.00206362 -0.24099420
v 0.03387363 -0.00206379 -0.24282818
v 0.03387389 -0.00252902 -0.24282816
v 0.03485926 0.00630416 -0.23553060
v 0.03798559 0.01043815 -0.21247230
v 0.03479197 0.00643811 -0.23602605
v 0.03298913 0.01743569 -0.24926963
v 0.03452124 0.00643797 -0.23802131
v 0.03445409 0.00630395 -0.23851678
v 0.03375009 0.00431670 -0.24371324
v 0.03440508 0.00593791 -0.23887949
v 0.03442678 0.00614836 -0.23871869
v 0.03877830 0.00293853 -0.20665960
v 0.03945071 0.00262106 -0.20170508
v 0.03877454 0.00993853 -0.20665956
v 0.03950173 0.00444640 -0.20132183
v 0.03876409 0.01032121 -0.20673497
v 0.03803460 0.01080420 -0.21210960
v 0.03810175 0.01093821 -0.21161413
v 0.03863955 0.01093847 -0.20765047
v 0.03964799 0.00595800 -0.20023786
v 0.03439325 -0.00556209 -0.23901232
v 0.03384296 -0.00358559 -0.24306025
v 0.03440369 -0.00594477 -0.23893689
v 0.03375485 -0.00444422 -0.24371304
v 0.03438732 0.00543790 -0.23901224
v 0.03383914 0.00345819 -0.24306041
v 0.03438813 0.00393651 -0.23901226
v 0.03387120 0.00240167 -0.24282828
v 0.03387146 0.00193620 -0.24282826
v 0.03879919 0.00217317 -0.20650874
v 0.03885783 0.00152436 -0.20607914
v 0.04018606 0.01022093 -0.19625521
v 0.04018457 0.01294090 -0.19625527
v 0.04019722 -0.01033912 -0.19625470
v 0.04015600 -0.00891949 -0.19655286
v 0.04004096 -0.00774396 -0.19739600
v 0.03987189 -0.00701465 -0.19863917
v 0.03965452 -0.00607696 -0.20023756
v 0.03878531 -0.01006146 -0.20665969
v 0.03950661 -0.00456557 -0.20132160
v 0.03878154 -0.00306146 -0.20665964
v 0.03891505 -0.00132935 -0.20566870
v 0.03881702 -0.00206144 -0.20639412
v 0.03422545 -0.00221579 -0.24023576
v 0.03894530 0.00109086 -0.20543619
v 0.03904828 0.00093866 -0.20467776
v 0.03938440 0.00093883 -0.20220047
v 0.03945362 -0.00274033 -0.20170495
v 0.03938548 -0.00106117 -0.20220049
v 0.03904936 -0.00106133 -0.20467779
v 0.03439245 -0.00406349 -0.23901230
v 0.03437156 -0.00329812 -0.23916318
v 0.03431292 -0.00264929 -0.23959279
v 0.03797484 -0.00306186 -0.21260516
v 0.03493287 -0.00556184 -0.23503523
v 0.03797862 -0.01006186 -0.21260522
v 0.03492272 -0.00594670 -0.23511155
v 0.03488764 0.00614191 -0.23532207
v 0.03490866 0.00593816 -0.23516789
v 0.03796785 0.00993814 -0.21260507
v 0.03492695 0.00543817 -0.23503514
v 0.03797162 0.00293814 -0.21260512
v 0.03492829 0.00293665 -0.23503515
v 0.04013758 0.01466294 -0.19659474
v 0.04000564 0.01612275 -0.19756141
v 0.03980883 0.01709809 -0.19900808
v 0.03452823 -0.00656202 -0.23802140
v 0.03447675 -0.00648594 -0.23840062
v 0.03257960 -0.01624660 -0.25242189
v 0.03277641 -0.01722193 -0.25097522
v 0.03362607 -0.00494401 -0.24466422
v 0.03362077 0.00481631 -0.24466446
v 0.03275777 0.01709297 -0.25097606
v 0.03256202 0.01611736 -0.25242269
v 0.03238859 0.00918467 -0.25372857
v 0.03242065 0.00812816 -0.25349644
v 0.03250969 0.00726965 -0.25284359
v 0.03494917 0.00217131 -0.23488431
v 0.03500781 0.00152248 -0.23445469
v 0.04014637 0.00880124 -0.19655329
v 0.04003261 0.00762556 -0.19739638
v 0.03986434 0.00689599 -0.19863953
v 0.03795396 -0.00229650 -0.21275601
v 0.03789532 -0.00164769 -0.21318561
v 0.03489342 -0.00627229 -0.23532876
v 0.03484949 -0.00648844 -0.23565343
v 0.03479895 -0.00656190 -0.23602615
v 0.03443301 -0.00626918 -0.23872210
v 0.03264644 -0.00689917 -0.25189206
v 0.03251766 -0.00739896 -0.25284323
v 0.03242954 -0.00825760 -0.25349605
v 0.03263903 0.00677003 -0.25189239
v 0.03238654 0.01293525 -0.25372866
v 0.03243167 0.01465736 -0.25338927
v 0.03783809 0.00120602 -0.21359605
v 0.03793612 0.00193812 -0.21287064
v 0.03770380 0.00093800 -0.21458697
v 0.03519826 0.00093680 -0.23305333
v 0.03509528 0.00108898 -0.23381174
v 0.03500952 -0.00164909 -0.23445472
v 0.03495158 -0.00229797 -0.23488434
v 0.03509652 -0.00121550 -0.23381177
v 0.03493151 -0.00306334 -0.23503520
v 0.03519934 -0.00106321 -0.23305334
v 0.03770487 -0.00106198 -0.21458699
v 0.03780785 -0.00121419 -0.21382858
v 0.03239863 -0.00931416 -0.25372812
v 0.03240066 -0.01306474 -0.25372803
v 0.03244765 -0.01478679 -0.25338855
v 0.04173965 0.01022179 -0.19596142
v 0.04173819 0.01294176 -0.19596149
v 0.04074874 0.01022126 -0.19582698
v 0.04074726 0.01294122 -0.19582704
v 0.04216790 0.01022201 -0.19652410
v 0.04216642 0.01294198 -0.19652417
v 0.03429944 0.00240189 -0.24339096
v 0.03529036 0.00240242 -0.24352542
v 0.03430212 -0.00252880 -0.24339084
v 0.03529304 -0.00252827 -0.24352530
v 0.03582097 0.00345926 -0.24332930
v 0.03573193 0.00431777 -0.24398214
v 0.04155895 0.01744154 -0.20098342
v 0.03497097 0.01743676 -0.24953854
v 0.03560260 0.00481737 -0.24493337
v 0.03473961 0.01709405 -0.25124496
v 0.04157795 -0.01755846 -0.20098257
v 0.03498996 -0.01756323 -0.24953766
v 0.03560790 -0.00494295 -0.24493313
v 0.03449153 0.00727072 -0.25311249
v 0.03440249 0.00812922 -0.25376534
v 0.03462087 0.00677111 -0.25216129
v 0.03437043 0.00918575 -0.25399747
v 0.03436838 0.01293632 -0.25399756
v 0.03441351 0.01465842 -0.25365818
v 0.03454387 0.01611844 -0.25269160
v 0.03438047 -0.00931310 -0.25399700
v 0.03441139 -0.00825653 -0.25376493
v 0.03449949 -0.00739790 -0.25311214
v 0.03475825 -0.01722087 -0.25124413
v 0.03456144 -0.01624553 -0.25269079
v 0.03442949 -0.01478572 -0.25365746
v 0.03438251 -0.01306368 -0.25399691
v 0.03462828 -0.00689810 -0.25216094
v 0.04212822 0.00880230 -0.19682220
v 0.04201445 0.00762662 -0.19766527
v 0.04184617 0.00689706 -0.19890842
v 0.04218053 -0.01305803 -0.19652353
v 0.04213541 -0.01478012 -0.19686291
v 0.04200505 -0.01624014 -0.19782951
v 0.04148845 -0.00456451 -0.20159049
v 0.04163636 -0.00607590 -0.20050646
v 0.04185373 -0.00701359 -0.19890808
v 0.04202280 -0.00774289 -0.19766490
v 0.03573669 -0.00444314 -0.24398193
v 0.03582481 -0.00358452 -0.24332912
v 0.03585572 -0.00252796 -0.24309707
v 0.04180930 -0.01721575 -0.19927612
v 0.04217905 -0.01033806 -0.19652359
v 0.04213784 -0.00891841 -0.19682175
v 0.04198748 0.01612382 -0.19783029
v 0.04211942 0.01466401 -0.19686364
v 0.04179067 0.01709916 -0.19927697
v 0.04162982 0.00595905 -0.20050675
v 0.04148357 0.00444746 -0.20159073
v 0.03585304 0.00240275 -0.24309719
v 0.04143255 0.00262212 -0.20197397
v 0.04143546 -0.00273925 -0.20197384
v 0.04075989 -0.01033881 -0.19582646
v 0.04076138 -0.01305877 -0.19582640
v 0.04175082 -0.01033828 -0.19596091
v 0.04175229 -0.01305825 -0.19596083
v 0.03282687 -0.00931395 -0.25429079
v 0.03381778 -0.00931342 -0.25442526
v 0.03282890 -0.01306452 -0.25429070
v 0.03381982 -0.01306399 -0.25442514
v 0.03281478 0.01293547 -0.25429136
v 0.03380570 0.01293600 -0.25442579
v 0.03281682 0.00918489 -0.25429124
v 0.03380774 0.00918542 -0.25442570
v 0.03350386 -0.01806404 -0.24933597
v 0.03449478 -0.01806351 -0.24947044
v 0.04009185 -0.01805926 -0.20078088
v 0.04108277 -0.01805873 -0.20091532
v 0.04007230 0.01794073 -0.20078176
v 0.04106322 0.01794126 -0.20091620
v 0.03348431 0.01793595 -0.24933687
v 0.03447523 0.01793648 -0.24947132
v 0.03410387 -0.00446079 -0.24485970
v 0.03509477 -0.00446026 -0.24499415
v 0.03312424 -0.00641595 -0.25208750
v 0.03411516 -0.00641542 -0.25222197
v 0.03311735 0.00628733 -0.25208783
v 0.03410826 0.00628786 -0.25222227
v 0.03409909 0.00433359 -0.24485992
v 0.03509001 0.00433413 -0.24499436
v 0.03384622 0.00791759 -0.25414714
v 0.03285530 0.00791706 -0.25401270
v 0.03395307 0.00688739 -0.25336373
v 0.03296214 0.00688686 -0.25322929
v 0.03396062 -0.00701518 -0.25336340
v 0.03296969 -0.00701571 -0.25322893
v 0.03385489 -0.00804553 -0.25414675
v 0.03286397 -0.00804607 -0.25401229
v 0.03526471 0.00324764 -0.24371111
v 0.03427378 0.00324711 -0.24357666
v 0.03519347 0.00393444 -0.24423338
v 0.03420255 0.00393391 -0.24409895
v 0.03519781 -0.00406042 -0.24423319
v 0.03420689 -0.00406096 -0.24409874
v 0.03526830 -0.00337352 -0.24371095
v 0.03427738 -0.00337406 -0.24357651
v 0.03286492 0.01484892 -0.25391424
v 0.03385585 0.01484945 -0.25404871
v 0.03300976 0.01647114 -0.25284025
v 0.03400068 0.01647167 -0.25297472
v 0.03322726 0.01755517 -0.25123289
v 0.03421818 0.01755570 -0.25136736
v 0.03324639 -0.01768363 -0.25123203
v 0.03423731 -0.01768310 -0.25136650
v 0.03302772 -0.01659992 -0.25283945
v 0.03401864 -0.01659938 -0.25297391
v 0.03288111 -0.01497791 -0.25391352
v 0.03387202 -0.01497738 -0.25404796
v 0.04168596 0.01485513 -0.19633867
v 0.04069505 0.01485460 -0.19620423
v 0.04153936 0.01647715 -0.19741274
v 0.04054845 0.01647662 -0.19727829
v 0.04132069 0.01756085 -0.19902015
v 0.04032977 0.01756032 -0.19888571
v 0.04133982 -0.01767793 -0.19901928
v 0.04034889 -0.01767848 -0.19888484
v 0.04155732 -0.01659392 -0.19741192
v 0.04056640 -0.01659445 -0.19727747
v 0.04170216 -0.01497170 -0.19633794
v 0.04071124 -0.01497223 -0.19620350
v 0.04001630 -0.00274000 -0.20127670
v 0.04100722 -0.00273947 -0.20141116
v 0.04001339 0.00262138 -0.20127684
v 0.04100432 0.00262191 -0.20141129
v 0.04005875 0.00424389 -0.20093617
v 0.04104966 0.00424444 -0.20107062
v 0.04018874 0.00558754 -0.19997264
v 0.04117966 0.00558807 -0.20010708
v 0.04038107 0.00642131 -0.19855191
v 0.04137198 0.00642186 -0.19868635
v 0.04038810 -0.00653940 -0.19855158
v 0.04137902 -0.00653887 -0.19868603
v 0.04019488 -0.00570592 -0.19997236
v 0.04118580 -0.00570537 -0.20010681
v 0.04006341 -0.00436245 -0.20093596
v 0.04105433 -0.00436192 -0.20107041
v 0.04156430 0.00725563 -0.19726562
v 0.04057338 0.00725510 -0.19713117
v 0.04169430 0.00859928 -0.19630209
v 0.04070339 0.00859873 -0.19616765
v 0.04170370 -0.00871582 -0.19630165
v 0.04071279 -0.00871637 -0.19616722
v 0.04157224 -0.00737238 -0.19726525
v 0.04058133 -0.00737291 -0.19713081
f 1 2 3
f 3 48 1
f 3 47 48
f 46 47 3
f 46 45 47
f 224 47 45
f 135 47 224
f 223 135 224
f 223 224 225
f 225 140 223
f 223 140 139
f 139 140 141
f 141 182 139
f 141 165 182
f 163 165 141
f 141 133 163
f 133 273 163
f 163 273 271
f 163 271 164
f 164 271 264
f 263 264 271
f 263 271 272
f 101 263 272
f 101 272 100
f 100 272 274
f 100 274 99
f 99 51 100
f 100 51 13
f 51 52 13
f 51 132 52
f 52 132 244
f 132 243 244
f 244 243 245
f 244 245 246
f 83 244 246
f 83 246 84
f 84 246 248
f 84 248 85
f 13 84 85
f 85 203 13
f 203 25 13
f 25 37 13
f 25 36 37
f 23 36 25
f 24 23 25
f 24 25 26
f 26 25 27
f 28 27 25
f 30 27 28
f 28 29 30
f 29 28 44
f 44 28 45
f 226 45 28
f 226 28 213
f 214 226 213
f 225 226 214
f 214 143 225
f 214 150 143
f 150 151 143
f 143 151 152
f 152 153 143
f 152 232 153
f 153 232 234
f 232 233 234
f 232 231 233
f 196 231 232
f 196 195 231
f 113 231 195
f 113 195 112
f 195 94 112
f 197 94 195
f 94 197 216
f 197 215 216
f 216 215 217
f 216 217 218
f 95 216 218
f 95 218 96
f 94 95 96
f 96 111 94
f 94 111 91
f 111 211 91
f 91 211 213
f 211 212 213
f 218 212 211
f 96 211 111
f 96 218 211
f 218 217 212
f 150 212 217
f 150 217 148
f 148 149 150
f 148 215 149
f 149 215 198
f 149 198 151
f 148 217 215
f 197 198 215
f 197 196 198
f 152 198 196
f 94 216 95
f 94 91 112
f 112 91 93
f 91 92 93
f 92 233 93
f 92 235 233
f 25 235 92
f 25 205 235
f 236 235 205
f 236 205 206
f 205 204 206
f 203 204 205
f 248 204 203
f 248 247 204
f 141 204 247
f 141 247 181
f 181 247 245
f 181 245 179
f 179 180 181
f 179 243 180
f 180 243 130
f 180 130 134
f 129 134 130
f 129 130 131
f 131 130 132
f 274 129 131
f 274 273 129
f 133 134 129
f 181 180 134
f 181 134 141
f 141 206 204
f 142 206 141
f 144 206 142
f 142 143 144
f 143 154 144
f 154 236 144
f 154 234 236
f 142 140 143
f 144 236 206
f 234 235 236
f 91 25 92
f 112 93 113
f 93 231 113
f 195 196 197
f 93 233 231
f 234 233 235
f 153 234 154
f 152 196 232
f 143 153 154
f 151 198 152
f 150 149 151
f 212 150 214
f 213 212 214
f 213 28 91
f 28 25 91
f 22 23 24
f 22 77 23
f 23 77 78
f 23 78 79
f 79 78 80
f 79 80 81
f 81 80 82
f 117 81 82
f 117 82 118
f 118 82 98
f 82 97 98
f 116 81 117
f 116 115 81
f 114 115 116
f 13 37 38
f 13 38 14
f 13 14 15
f 15 39 13
f 15 34 39
f 259 39 34
f 259 34 257
f 257 34 32
f 257 32 255
f 255 32 67
f 32 66 67
f 32 65 66
f 31 65 32
f 31 64 65
f 50 64 31
f 31 49 50
f 31 32 33
f 67 66 68
f 67 68 59
f 59 68 69
f 59 69 61
f 60 59 61
f 58 59 60
f 58 57 59
f 6 57 58
f 6 56 57
f 55 56 6
f 55 265 56
f 55 278 265
f 54 278 55
f 54 276 278
f 276 277 278
f 278 277 266
f 171 266 277
f 266 171 268
f 268 171 170
f 145 170 171
f 145 171 172
f 177 145 172
f 177 172 178
f 178 189 177
f 178 275 189
f 187 189 275
f 187 188 189
f 187 18 188
f 17 188 18
f 17 254 188
f 16 254 17
f 16 252 254
f 7 252 16
f 7 250 252
f 250 251 252
f 250 249 251
f 201 249 250
f 201 202 249
f 201 200 202
f 146 202 200
f 145 202 146
f 176 202 145
f 166 176 145
f 168 176 166
f 166 167 168
f 166 253 167
f 166 190 253
f 254 253 190
f 177 190 166
f 167 253 251
f 167 251 168
f 168 249 176
f 145 146 147
f 147 173 145
f 208 173 147
f 208 147 210
f 210 147 162
f 157 210 162
f 157 219 210
f 156 219 157
f 156 221 219
f 220 219 221
f 220 221 222
f 222 221 192
f 222 192 191
f 110 222 191
f 110 191 126
f 126 191 127
f 127 191 193
f 127 193 241
f 127 241 128
f 128 241 239
f 128 239 88
f 90 128 88
f 88 89 90
f 88 237 89
f 89 237 199
f 200 199 237
f 200 237 238
f 238 237 239
f 238 239 240
f 158 238 240
f 158 240 159
f 147 158 159
f 147 159 160
f 160 161 147
f 147 161 155
f 194 155 161
f 192 155 194
f 193 192 194
f 242 193 194
f 160 242 194
f 160 194 161
f 159 242 160
f 159 240 242
f 240 241 242
f 146 238 158
f 89 199 10
f 199 5 10
f 5 9 10
f 10 9 11
f 10 11 12
f 12 105 10
f 10 105 106
f 10 106 86
f 10 86 87
f 90 10 87
f 90 87 43
f 43 87 107
f 43 107 42
f 42 41 43
f 40 41 42
f 40 70 41
f 41 70 71
f 41 71 21
f 137 41 21
f 230 41 137
f 138 230 137
f 137 136 138
f 135 136 137
f 137 20 135
f 135 20 48
f 136 184 138
f 138 184 175
f 184 185 175
f 175 185 186
f 175 186 169
f 256 169 186
f 186 258 256
f 257 256 258
f 270 169 256
f 255 270 256
f 269 270 255
f 269 268 270
f 267 268 269
f 269 59 267
f 270 170 169
f 169 174 175
f 229 175 174
f 229 174 227
f 227 174 173
f 227 228 229
f 227 207 228
f 208 207 227
f 207 208 209
f 108 207 209
f 108 209 220
f 108 220 109
f 108 109 110
f 90 207 108
f 108 127 90
f 207 90 228
f 229 228 230
f 228 43 230
f 145 174 169
f 185 258 186
f 258 185 260
f 260 185 183
f 260 183 262
f 261 260 262
f 261 262 263
f 259 260 261
f 262 183 182
f 262 182 264
f 259 258 260
f 184 183 185
f 139 183 184
f 138 175 229
f 136 139 184
f 229 230 138
f 137 21 20
f 19 20 21
f 19 21 63
f 21 72 63
f 21 71 72
f 230 43 41
f 228 90 43
f 12 104 105
f 76 104 12
f 75 76 12
f 75 74 76
f 73 74 75
f 124 74 73
f 124 73 125
f 125 73 103
f 73 102 103
f 123 74 124
f 123 122 74
f 121 122 123
f 121 120 122
f 119 120 121
f 5 8 9
f 4 8 5
f 4 5 6
f 6 5 7
f 201 5 199
f 89 10 90
f 88 239 237
f 240 239 241
f 90 127 128
f 242 241 193
f 108 126 127
f 110 126 108
f 109 222 110
f 191 192 193
f 155 192 221
f 109 220 222
f 209 219 220
f 155 221 156
f 155 156 157
f 209 210 219
f 162 155 157
f 147 155 162
f 209 208 210
f 227 173 208
f 145 173 174
f 146 158 147
f 146 200 238
f 199 200 201
f 176 249 202
f 5 201 250
f 168 251 249
f 252 251 253
f 5 250 7
f 7 16 6
f 252 253 254
f 6 16 17
f 254 190 188
f 6 17 18
f 18 53 6
f 6 53 54
f 53 18 187
f 53 187 276
f 189 188 190
f 187 275 276
f 189 190 177
f 172 275 178
f 172 277 275
f 166 145 177
f 169 170 145
f 268 170 270
f 267 266 268
f 265 266 267
f 267 57 265
f 171 277 172
f 276 275 277
f 53 276 54
f 278 266 265
f 6 54 55
f 265 57 56
f 267 59 57
f 60 61 62
f 269 67 59
f 255 67 269
f 255 256 257
f 33 32 34
f 33 34 35
f 257 258 259
f 261 39 259
f 261 101 39
f 35 34 15
f 101 13 39
f 205 25 203
f 85 248 203
f 246 247 248
f 13 83 84
f 246 245 247
f 179 245 243
f 132 130 243
f 52 244 83
f 131 132 51
f 52 83 13
f 99 131 51
f 99 274 131
f 272 273 274
f 100 13 101
f 263 101 261
f 263 262 264
f 164 264 165
f 272 271 273
f 133 129 273
f 141 134 133
f 163 164 165
f 264 182 165
f 139 182 183
f 141 140 142
f 223 139 136
f 225 143 140
f 225 224 226
f 136 135 223
f 224 45 226
f 44 45 46
f 135 48 47

