# https://github.com/mikedh/trimesh
v 0.02661648 0.00567434 -0.07640658
v 0.02665452 -0.00002359 -0.07462287
v 0.02664641 0.00256451 -0.07496426
v 0.02662553 0.00497604 -0.07596374
v 0.02663113 -0.00502397 -0.07596097
v 0.02656162 -0.00868528 -0.07961951
v 0.02646463 -0.01002646 -0.08461818
v 0.02636614 -0.00868817 -0.08961760
v 0.02641385 -0.00968648 -0.08720598
v 0.02635645 0.00863234 -0.08962241
v 0.02628694 0.00497103 -0.09328094
v 0.02626355 -0.00002936 -0.09461905
v 0.02627166 -0.00261745 -0.09427766
v 0.02629254 -0.00502897 -0.09327818
v 0.02632477 -0.00709958 -0.09168871
v 0.02655193 0.00863523 -0.07962432
v 0.02650422 0.00963354 -0.08203594
v 0.02645344 0.00997353 -0.08462373
f 15 14 4
f 4 14 1
f 14 16 1
f 14 17 16
f 13 17 14
f 13 18 17
f 12 18 13
f 12 10 18
f 11 10 12
f 4 8 15
f 4 9 8
f 3 9 4
f 3 7 9
f 2 7 3
f 2 6 7
f 5 6 2

