# https://github.com/mikedh/trimesh
v -0.00695473 -0.02821723 -0.16951093
v -0.00702859 -0.02711786 -0.17311056
v -0.00699168 -0.02767246 -0.17131224
v -0.00916218 -0.01602993 -0.27764821
v -0.00917654 -0.01585837 -0.27834886
v -0.00918416 -0.01558706 -0.27871636
v -0.00919322 -0.01473503 -0.27913797
v -0.00919106 -0.01509510 -0.27904153
v -0.00918766 -0.01538763 -0.27888271
v -0.00919347 -0.01464233 -0.27914783
v -0.00920165 -0.00003863 -0.27915189
v -0.00711566 -0.02578625 -0.17735295
v -0.00712034 -0.02571455 -0.17758039
v -0.00715901 0.02548146 -0.17808715
v -0.00715306 0.02557440 -0.17779209
v -0.00714711 0.02566740 -0.17749703
v -0.00715837 -0.02584798 -0.17945351
v -0.00715192 -0.02581019 -0.17913492
v -0.00714564 -0.02572840 -0.17882466
v -0.00720042 0.02568223 -0.18011640
v -0.00718614 0.02552750 -0.17941864
v -0.00810743 0.01769864 -0.22490236
v -0.00870834 0.01694641 -0.25444999
v -0.00868960 -0.01690658 -0.25445038
v -0.00864748 -0.01695166 -0.25238213
v -0.00808785 -0.01765880 -0.22490272
v -0.00718681 -0.02562801 -0.18085749
v -0.00719566 -0.02550371 -0.18129061
v -0.00722227 -0.02513096 -0.18258968
v -0.00741695 -0.02254164 -0.19207352
v -0.00757137 -0.02086976 -0.19961172
v -0.00762341 -0.02040767 -0.20215486
v -0.00786456 -0.01887418 -0.21396214
v -0.00797547 -0.01845015 -0.21940175
v -0.00800350 0.01846625 -0.21977422
v -0.00724198 0.02529030 -0.18217233
v -0.00733227 0.02402327 -0.18664005
v -0.00754945 0.02135792 -0.19738472
v -0.00766436 0.02029473 -0.20305954
v -0.00775127 0.01965659 -0.20734744
v -0.00720074 0.02568316 -0.18013193
v -0.00886445 -0.01672081 -0.26303756
v -0.00899842 -0.01658029 -0.26961598
v -0.00913237 -0.01644192 -0.27619442
v -0.00915061 0.01648173 -0.27619404
v -0.00901680 0.01662011 -0.26961559
v -0.00888300 0.01676062 -0.26303717
v -0.00920967 0.01445669 -0.27915174
v -0.00914365 -0.01635203 -0.27674684
v -0.00915409 -0.01611216 -0.27725324
v -0.00916328 0.01636729 -0.27682027
v -0.00917448 0.01606157 -0.27737907
v -0.00915977 -0.01602963 -0.27752966
v -0.00920654 0.01515546 -0.27897906
v -0.00920152 0.01550684 -0.27872288
v -0.00918051 0.01595649 -0.27767733
v -0.00918378 0.01594504 -0.27783859
v -0.00919089 0.01585673 -0.27819034
v -0.00919710 0.01569356 -0.27850047
v -0.00805409 0.01821272 -0.22226721
v -0.00803808 0.01846391 -0.22147360
v -0.00802117 0.01848729 -0.22064154
v -0.00799774 -0.01850034 -0.22049744
v -0.00801668 -0.01850022 -0.22142836
v -0.00803488 -0.01821463 -0.22231439
v -0.00882116 0.01721661 -0.25998643
v -0.00879766 0.01747568 -0.25883043
v -0.00879216 0.01746933 -0.25856015
v -0.00877394 0.01726684 -0.25766432
v -0.00875282 -0.01729153 -0.25756729
v -0.00877831 -0.01753592 -0.25881955
v -0.00880357 -0.01723760 -0.26006007
v -0.00704689 -0.02705110 -0.17400818
v -0.00707498 -0.02694669 -0.17538530
v -0.00709958 -0.02624538 -0.17657511
v -0.00873219 -0.01697552 -0.25654539
v -0.00871055 -0.01688420 -0.25547966
v -0.00884594 -0.01674041 -0.26212791
v -0.00882427 -0.01687774 -0.26106724
v -0.00873419 0.01691879 -0.25572029
v -0.00875436 0.01699584 -0.25670967
v -0.00886014 0.01678485 -0.26191333
v -0.00884016 0.01690463 -0.26092836
v -0.00798665 -0.01844510 -0.21995099
v -0.00803596 -0.01818849 -0.22236690
v -0.00807654 -0.01768282 -0.22434776
v -0.00801233 0.01845791 -0.22020835
v -0.00807308 0.01787365 -0.22320940
v -0.00809316 0.01772920 -0.22420023
v -0.00810030 0.01771375 -0.22455128
v -0.00713054 0.02617574 -0.17666928
v -0.00711541 0.02674109 -0.17591038
v -0.00710587 0.02694165 -0.17543590
v -0.00709435 0.02706870 -0.17486639
v -0.00707508 0.02703827 -0.17392063
v -0.00703769 -0.02703331 -0.17355555
v -0.00710711 -0.02597132 -0.17693777
v -0.00713306 -0.02562221 -0.17820363
v -0.00717840 0.02542046 -0.17904145
v -0.00717267 0.02539044 -0.17876092
v -0.00713816 0.02587054 -0.17705183
v -0.00706516 0.02700626 -0.17343415
v -0.00705545 0.02709293 -0.17295438
v -0.00915682 -0.01605052 -0.27738535
v -0.00917899 0.01596329 -0.27760315
v -0.00917731 0.01598482 -0.27751967
v -0.00713566 0.01119006 -0.17732906
v -0.00707276 0.01728876 -0.17407188
v -0.00698312 0.02249696 -0.16952501
v -0.00716520 0.00567684 -0.17893066
v -0.00717304 -0.00003889 -0.17947091
v -0.00714714 -0.00799287 -0.17841543
v -0.00707399 -0.01588080 -0.17503560
v -0.00695788 -0.02258609 -0.16951250
v -0.00698627 0.02813913 -0.16952658
v -0.00702089 0.02762053 -0.17124185
f 12 97 113
f 97 75 113
f 113 75 74
f 113 74 73
f 73 96 113
f 113 96 2
f 113 2 114
f 114 2 3
f 114 3 1
f 113 13 12
f 113 98 13
f 112 98 113
f 112 19 98
f 111 19 112
f 111 18 19
f 111 17 18
f 27 17 111
f 111 28 27
f 111 29 28
f 30 29 111
f 111 99 30
f 30 99 21
f 30 21 20
f 20 41 30
f 30 41 36
f 30 36 37
f 37 38 30
f 38 31 30
f 38 32 31
f 39 32 38
f 39 33 32
f 40 33 39
f 40 34 33
f 84 34 40
f 40 63 84
f 40 64 63
f 65 64 40
f 40 85 65
f 86 85 40
f 40 35 86
f 86 35 87
f 86 87 62
f 62 61 86
f 86 61 60
f 86 60 88
f 88 89 86
f 86 89 90
f 86 90 22
f 22 26 86
f 22 25 26
f 23 25 22
f 23 24 25
f 77 24 23
f 23 80 77
f 77 80 81
f 77 81 76
f 76 81 69
f 76 69 68
f 68 67 76
f 76 67 66
f 76 66 83
f 83 82 76
f 76 82 47
f 76 47 70
f 70 47 72
f 70 72 71
f 47 79 72
f 47 78 79
f 47 42 78
f 43 42 47
f 44 43 47
f 44 47 49
f 47 50 49
f 47 104 50
f 46 104 47
f 104 46 45
f 52 104 45
f 106 104 52
f 53 104 106
f 53 106 11
f 11 10 53
f 53 10 7
f 53 7 8
f 8 9 53
f 53 9 6
f 53 6 4
f 4 6 5
f 11 106 105
f 11 105 48
f 48 105 55
f 48 55 54
f 105 59 55
f 105 58 59
f 56 58 105
f 56 57 58
f 52 45 51
f 111 100 99
f 110 100 111
f 110 107 100
f 107 14 100
f 107 15 14
f 108 15 107
f 108 16 15
f 101 16 108
f 108 91 101
f 108 92 91
f 93 92 108
f 108 94 93
f 108 95 94
f 102 95 108
f 103 102 108
f 103 108 116
f 116 108 109
f 116 109 115

