# https://github.com/mikedh/trimesh
v 0.03491938 -0.03135597 -0.14461930
v 0.03496686 -0.03134206 -0.14456315
v 0.03726905 -0.03091267 -0.14633036
v 0.03719632 -0.03097112 -0.14645073
v 0.03487854 -0.03140026 -0.14467360
v 0.03721003 -0.03094680 -0.14642410
v 0.03490623 -0.03136580 -0.14463598
v 0.03722888 -0.03092706 -0.14639154
v 0.03725589 -0.03091422 -0.14634947
v 0.03718296 -0.03101683 -0.14648321
v 0.03485520 -0.03146763 -0.14471228
v 0.03486488 -0.03143021 -0.14469452
v 0.03485134 -0.03151065 -0.14472447
v 0.03718233 -0.03110996 -0.14651169
v 0.03485253 -0.03154072 -0.14472856
v 0.03906978 -0.03059692 -0.14782630
v 0.03907416 -0.03066891 -0.14784664
v 0.03907184 -0.03057625 -0.14781576
v 0.03908302 -0.03053273 -0.14778388
v 0.03915193 -0.03047324 -0.14766431
v 0.03914249 -0.03047446 -0.14767814
v 0.03911315 -0.03048874 -0.14772499
v 0.03909663 -0.03050693 -0.14775507
v 0.04109197 -0.02997297 -0.14938855
v 0.04109183 -0.02998215 -0.14939310
v 0.04110214 -0.03005611 -0.14941445
v 0.04073318 -0.03018141 -0.14913079
v 0.04009983 -0.03038183 -0.14862193
v 0.04110147 -0.02991599 -0.14934905
v 0.04112918 -0.02986816 -0.14928982
v 0.04112702 -0.02987035 -0.14929369
v 0.04111091 -0.02989333 -0.14932585
v 0.04017174 -0.03018257 -0.14844012
v 0.04116607 -0.02984943 -0.14923221
v 0.04322744 -0.02911303 -0.15107830
v 0.04489126 -0.02754731 -0.15286072
v 0.04325141 -0.02895199 -0.15105271
v 0.04325823 -0.02892446 -0.15102555
v 0.04492603 -0.02767172 -0.15294075
v 0.04326154 -0.02905200 -0.15111044
v 0.04325292 -0.02901685 -0.15109609
v 0.04490423 -0.02763128 -0.15292145
v 0.04324958 -0.02898316 -0.15107653
v 0.04489651 -0.02760868 -0.15290780
v 0.04326986 -0.02890163 -0.15099600
v 0.04489798 -0.02752003 -0.15283400
v 0.04492947 -0.02747860 -0.15277985
v 0.04491104 -0.02749650 -0.15280633
v 0.04442595 -0.02803848 -0.15206787
v 0.04328616 -0.02888458 -0.15096501
v 0.04377935 -0.02856847 -0.15136254
v 0.04294172 -0.02907993 -0.15062635
v 0.04193565 -0.02955237 -0.14982417
v 0.04463650 -0.02805150 -0.15250966
v 0.04494996 -0.02770083 -0.15294939
v 0.04495759 -0.02743678 -0.15286547
v 0.04497148 -0.02742395 -0.15284547
v 0.04493837 -0.02753976 -0.15296593
v 0.04498832 -0.02751074 -0.15305239
v 0.04495967 -0.02759495 -0.15299916
v 0.04499788 -0.02753063 -0.15306336
v 0.04504018 -0.02758694 -0.15308471
v 0.04500011 -0.02738054 -0.15293351
v 0.04498326 -0.02740745 -0.15296721
v 0.04493732 -0.02747860 -0.15291440
v 0.04497615 -0.02743472 -0.15299504
v 0.04497619 -0.02746581 -0.15302162
v 0.04501427 -0.02736722 -0.15291314
v 0.04562490 -0.02632937 -0.15435779
v 0.04599996 -0.02519106 -0.15579647
v 0.04603794 -0.02525085 -0.15583342
v 0.04618432 -0.02489264 -0.15643916
v 0.04607418 -0.02537743 -0.15574034
v 0.04534205 -0.02684951 -0.15362591
v 0.04624264 -0.02363083 -0.15911075
v 0.04627118 -0.02389491 -0.15837629
v 0.04618259 -0.02359080 -0.15909405
v 0.04620181 -0.02428624 -0.15741821
v 0.04616702 -0.02357352 -0.15908746
v 0.04616086 -0.02422430 -0.15738802
v 0.04613996 -0.02352665 -0.15907046
v 0.04615042 -0.02429677 -0.15691957
v 0.04614482 -0.02338260 -0.15902331
v 0.04613356 -0.02341399 -0.15903302
v 0.04615024 -0.02415347 -0.15735224
v 0.04612769 -0.02345152 -0.15904504
v 0.04612984 -0.02348991 -0.15905778
v 0.04599217 -0.02512619 -0.15575053
v 0.04562283 -0.02626859 -0.15430640
v 0.04589257 -0.02551964 -0.15511234
v 0.04564478 -0.02622170 -0.15425876
v 0.04529219 -0.02694176 -0.15341693
v 0.04577709 -0.02627189 -0.15462118
v 0.04565698 -0.02638974 -0.15439866
v 0.04534000 -0.02690890 -0.15367901
v 0.04589250 -0.02291162 -0.16160293
v 0.04593285 -0.02297574 -0.16161992
v 0.04599441 -0.02301879 -0.16163594
v 0.04589231 -0.02276319 -0.16157603
v 0.04588113 -0.02279987 -0.16158119
v 0.04588462 -0.02288773 -0.16159756
v 0.04587777 -0.02283510 -0.16158712
v 0.04490442 -0.02147301 -0.16932642
v 0.04391555 -0.01995363 -0.17505842
v 0.04149120 -0.01467422 -0.19151759
v 0.04148616 -0.01467399 -0.19146250
v 0.04147943 -0.01457709 -0.19166993
v 0.04146691 -0.01452186 -0.19163272
v 0.04391969 -0.01994777 -0.17500108
v 0.04398200 -0.01992528 -0.17465948
v 0.04286112 -0.01803261 -0.18178795
v 0.04242904 -0.01710184 -0.18466209
v 0.04183959 -0.01595275 -0.18847461
v 0.04185123 -0.01589374 -0.18845682
v 0.04168933 -0.01547409 -0.18960790
v 0.04492782 -0.02148828 -0.16834609
v 0.04531327 -0.02195946 -0.16578647
v 0.04196363 -0.01613460 -0.18855348
v 0.04218032 -0.01660366 -0.18710658
v 0.04193801 -0.01612251 -0.18854563
v 0.04332090 -0.01886080 -0.17963634
v 0.04402282 -0.02008247 -0.17510819
v 0.04157203 -0.01466732 -0.19173625
v 0.04159864 -0.01467647 -0.19174425
v 0.04158334 -0.01476541 -0.19158253
v 0.04178989 -0.01567102 -0.18981735
v 0.04185381 -0.01586457 -0.18932492
v 0.04163042 -0.01537619 -0.19001520
v 0.04184987 -0.01601763 -0.18849765
v 0.04394986 -0.02002518 -0.17508215
v 0.04188763 -0.01608264 -0.18852484
v 0.04147632 -0.01446902 -0.19159879
v 0.04151978 -0.01463342 -0.19170998
v 0.04153133 -0.01473115 -0.19155668
v 0.04471276 -0.02118316 -0.17060205
v 0.04157300 -0.01438965 -0.19215700
v 0.04150607 -0.01435861 -0.19213285
v 0.04149120 -0.01434718 -0.19212390
v 0.04144477 -0.01428041 -0.19207211
v 0.04143808 -0.01424065 -0.19204181
v 0.04144083 -0.01421309 -0.19202116
v 0.04144861 -0.01418808 -0.19200273
v 0.04146091 -0.01297588 -0.19337450
v 0.04241806 -0.00006405 -0.19510728
v 0.04241337 -0.00006408 -0.19517404
v 0.04221302 -0.00539067 -0.19495645
v 0.04203572 -0.00744557 -0.19495052
v 0.04179926 -0.00935453 -0.19461240
v 0.04144165 -0.01292764 -0.19330910
v 0.04179011 -0.00938984 -0.19467402
v 0.04157861 -0.01122911 -0.19420683
v 0.04157933 -0.01127430 -0.19411866
v 0.04145746 -0.01282024 -0.19329330
v 0.04158054 -0.01302234 -0.19346973
v 0.04151203 -0.01301657 -0.19342732
v 0.04165335 -0.01128648 -0.19434094
v 0.04171188 -0.01140115 -0.19433574
v 0.04186850 -0.00942231 -0.19481432
v 0.04191962 -0.00957311 -0.19483088
v 0.04209075 -0.00753401 -0.19502221
v 0.04227506 -0.00640382 -0.19513692
v 0.04249474 -0.00006408 -0.19531621
v 0.04255866 -0.00105226 -0.19534332
v 0.04256526 -0.00006405 -0.19534886
v 0.04243866 -0.00006409 -0.19525354
v 0.04203534 -0.00752310 -0.19495995
v 0.04181390 -0.00940560 -0.19475260
v 0.04160033 -0.01125909 -0.19428174
v 0.04142208 0.01409223 -0.19203699
v 0.04142105 0.01411425 -0.19205308
v 0.04142365 0.01283013 -0.19329783
v 0.04143282 0.01416390 -0.19209014
v 0.04144016 0.01417843 -0.19210121
v 0.04144274 0.01287874 -0.19336306
v 0.04156784 0.01111779 -0.19413905
v 0.04176856 0.00934061 -0.19466780
v 0.04177700 0.00931253 -0.19460532
v 0.04201630 0.00740051 -0.19494866
v 0.04214562 0.00598208 -0.19491854
v 0.04241383 0.00064935 -0.19510491
v 0.04207193 0.00748817 -0.19502214
v 0.04201655 0.00747713 -0.19495979
v 0.04179221 0.00935667 -0.19474640
v 0.04148888 0.01423221 -0.19214331
v 0.04155461 0.01426301 -0.19216934
v 0.04149376 0.01291975 -0.19341579
v 0.04156391 0.01289458 -0.19348088
v 0.04168852 0.01135843 -0.19431207
v 0.04155828 0.01115839 -0.19419461
v 0.04143783 0.01275842 -0.19325684
v 0.04163271 0.01121672 -0.19432855
v 0.04191316 0.00939733 -0.19484735
v 0.04143049 0.01406141 -0.19201489
v 0.04157981 0.01118890 -0.19426940
v 0.04184673 0.00937365 -0.19480816
v 0.04235377 0.00526584 -0.19520320
v 0.04157961 0.01455015 -0.19175678
v 0.04154009 0.01439972 -0.19195879
v 0.04151658 0.01451999 -0.19173218
v 0.04148741 0.01436667 -0.19193196
v 0.04150153 0.01450757 -0.19172287
v 0.04146942 0.01446798 -0.19169441
v 0.04144651 0.01431175 -0.19189036
v 0.04146096 0.01445152 -0.19168295
v 0.04143353 0.01425801 -0.19185141
v 0.04144813 0.01439662 -0.19164588
v 0.04144308 0.01420526 -0.19181459
v 0.04145784 0.01434273 -0.19161119
v 0.04479871 0.02129885 -0.16914669
v 0.04586045 0.02281818 -0.16162309
v 0.04590405 0.02288373 -0.16164061
v 0.04478631 0.02122163 -0.16912748
v 0.04584689 0.02274024 -0.16160731
v 0.04162721 0.01531862 -0.18989396
v 0.04168265 0.01539022 -0.18952064
v 0.04188478 0.01598948 -0.18804403
v 0.04210377 0.01635732 -0.18666504
v 0.04245333 0.01717607 -0.18429784
v 0.04317137 0.01845359 -0.17972723
v 0.04362008 0.01934879 -0.17675205
v 0.04458893 0.02082096 -0.17055114
v 0.04586302 0.02266831 -0.16159651
v 0.04164489 0.01539001 -0.18992643
v 0.04169181 0.01544786 -0.18995675
v 0.04177322 0.01555858 -0.18980163
v 0.04194748 0.01612372 -0.18809742
v 0.04243313 0.01706117 -0.18529765
v 0.04251239 0.01731280 -0.18434913
v 0.04300794 0.01820640 -0.18152598
v 0.04367518 0.01948905 -0.17679819
v 0.04395628 0.01990524 -0.17538920
v 0.04484118 0.02136403 -0.16916750
v 0.04529499 0.02198682 -0.16649477
v 0.04363266 0.01942501 -0.17677443
v 0.04246806 0.01725093 -0.18432324
v 0.04190149 0.01606343 -0.18807074
v 0.04596495 0.02292407 -0.16165571
v 0.04621271 0.02353911 -0.15912981
v 0.04618862 0.02352656 -0.15912440
v 0.04615175 0.02349608 -0.15911242
v 0.04614012 0.02348238 -0.15910731
v 0.04611246 0.02343344 -0.15908982
v 0.04610490 0.02340995 -0.15908174
v 0.04609900 0.02335936 -0.15906495
v 0.04610295 0.02332539 -0.15905413
v 0.04611487 0.02329032 -0.15904340
v 0.04624079 0.02380222 -0.15839998
v 0.04614831 0.02366352 -0.15804714
v 0.04521901 0.02704382 -0.15352632
v 0.04500542 0.02749850 -0.15310881
v 0.04525376 0.02709508 -0.15355235
v 0.04524823 0.02715320 -0.15351501
v 0.04496760 0.02728957 -0.15295336
v 0.04495228 0.02731286 -0.15298308
v 0.04520840 0.02693180 -0.15343472
v 0.04494325 0.02734816 -0.15301912
v 0.04520174 0.02698084 -0.15348083
v 0.04494372 0.02737748 -0.15304397
v 0.04495832 0.02742999 -0.15307973
v 0.04604570 0.02468093 -0.15616171
v 0.04565845 0.02601531 -0.15442018
v 0.04570495 0.02588608 -0.15466416
v 0.04599950 0.02486809 -0.15599395
v 0.04600259 0.02492389 -0.15603256
v 0.04603269 0.02498663 -0.15607190
v 0.04603659 0.02503181 -0.15603407
v 0.04604202 0.02528814 -0.15576211
v 0.04620674 0.02447248 -0.15700240
v 0.04590322 0.02575142 -0.15516391
v 0.04577116 0.02604551 -0.15477687
v 0.04572968 0.02599937 -0.15475124
v 0.04570436 0.02593785 -0.15470766
v 0.04497921 0.02727874 -0.15293665
v 0.04491448 0.02761224 -0.15297319
v 0.04487232 0.02755415 -0.15295179
v 0.04486373 0.02753518 -0.15294150
v 0.04485241 0.02748887 -0.15291016
v 0.04485311 0.02745846 -0.15288432
v 0.04486126 0.02743019 -0.15285544
v 0.04489397 0.02739084 -0.15280133
v 0.04413687 0.02829222 -0.15200698
v 0.04375326 0.02867058 -0.15160501
v 0.04414254 0.02816917 -0.15190570
v 0.04449787 0.02784309 -0.15223360
v 0.04313731 0.02886315 -0.15084127
v 0.04186451 0.02966103 -0.15005095
v 0.04320279 0.02893648 -0.15111271
v 0.04106127 0.02982346 -0.14937620
v 0.04107160 0.02979984 -0.14935137
v 0.04320006 0.02886780 -0.15106823
v 0.04322106 0.02881669 -0.15100800
v 0.04106364 0.02996563 -0.14944027
v 0.04105239 0.02989329 -0.14942095
v 0.04105258 0.02987302 -0.14941113
v 0.04112781 0.02975919 -0.14925784
v 0.04109047 0.02977621 -0.14931525
v 0.04108950 0.02977708 -0.14931695
v 0.04412637 0.02822407 -0.15196355
v 0.04069452 0.03009069 -0.14915673
v 0.03903045 0.03050499 -0.14785264
v 0.03903487 0.03057718 -0.14787300
v 0.04006092 0.03029073 -0.14864802
v 0.03904470 0.03043876 -0.14780806
v 0.03903253 0.03048455 -0.14784217
v 0.04062806 0.02993189 -0.14886758
v 0.03905725 0.03041551 -0.14778167
v 0.03907614 0.03039541 -0.14774749
v 0.03910311 0.03038300 -0.14770465
v 0.03911294 0.03038179 -0.14769027
v 0.03722944 0.03081993 -0.14635693
v 0.03718927 0.03083419 -0.14641811
v 0.03715665 0.03087816 -0.14647734
v 0.03714047 0.03094472 -0.14651991
v 0.03714248 0.03101694 -0.14653842
v 0.03481387 0.03144621 -0.14475720
v 0.03481621 0.03137270 -0.14474036
v 0.03482062 0.03135220 -0.14473140
v 0.03483909 0.03130586 -0.14470144
v 0.03485654 0.03128138 -0.14467682
v 0.03488044 0.03126112 -0.14464560
v 0.03492672 0.03124787 -0.14459009
v 0.03327137 0.03170206 -0.14313352
v 0.03298039 0.03168717 -0.14271423
v 0.03291269 0.03176630 -0.14263637
v 0.03305923 0.03160040 -0.14273338
v 0.03304137 0.03161931 -0.14273877
v 0.03301364 0.03164966 -0.14273427
v 0.03456115 0.03130795 -0.14425647
v 0.03307533 0.03158397 -0.14271995
v 0.03309144 0.03156867 -0.14269191
v 0.03310106 0.03156075 -0.14265874
v 0.03310823 0.03155916 -0.14257574
v 0.03326945 -0.03163163 -0.14272019
v 0.03417723 -0.03165095 -0.14409317
v 0.03286129 -0.03187846 -0.14246951
v 0.03292434 -0.03180447 -0.14254679
v 0.03293290 -0.03179466 -0.14255403
v 0.03295394 -0.03177083 -0.14256807
v 0.03298696 -0.03173435 -0.14257716
v 0.03300589 -0.03171416 -0.14257264
v 0.03302307 -0.03169653 -0.14255887
v 0.03305643 -0.03167132 -0.14241153
v 0.03304788 -0.03167379 -0.14250186
v 0.03303533 -0.03168464 -0.14253958
v 0.04004032 -0.03433953 -0.06022720
v 0.04103265 -0.03424961 -0.05490019
v 0.04086241 -0.03377461 -0.05587519
v 0.04103617 -0.03375548 -0.05488043
v 0.03977036 -0.03436516 -0.06173144
v 0.03978327 -0.03436403 -0.06166032
v 0.03977085 -0.03387465 -0.06173170
v 0.04047661 -0.03380846 -0.05784859
v 0.04086245 -0.03377258 -0.05587519
v 0.04254547 -0.03375441 -0.05493278
v 0.04254211 -0.03302351 -0.05494086
v 0.04246363 -0.03303450 -0.05539720
v 0.04236912 -0.03377422 -0.05590572
v 0.04237633 -0.03304289 -0.05585188
v 0.04221616 -0.03305187 -0.05669365
v 0.04161884 -0.03384316 -0.05992294
v 0.04129426 -0.03313555 -0.06173478
v 0.04129581 -0.03387366 -0.06173600
v 0.04114178 -0.03314887 -0.06260260
v 0.04054879 -0.03319972 -0.06607687
v 0.03918233 -0.03406280 -0.07475636
v 0.03894665 -0.03332096 -0.07635624
v 0.03894716 -0.03408065 -0.07635596
v 0.03781715 -0.03337953 -0.08455244
v 0.03740099 -0.03416603 -0.08781856
v 0.03707175 -0.03339616 -0.09050167
v 0.03653066 -0.03417561 -0.09513458
v 0.03588374 -0.03336192 -0.10112274
v 0.03491143 -0.03404696 -0.11121976
v 0.03443413 -0.03312225 -0.11680256
v 0.03463699 -0.03399040 -0.11437263
v 0.03353207 -0.03354349 -0.12906089
v 0.03322773 -0.03248692 -0.13390142
v 0.03307885 -0.03318463 -0.13640597
v 0.03313270 -0.03240201 -0.13549836
v 0.03300023 -0.03309334 -0.13795908
v 0.03291254 -0.03298561 -0.13951036
v 0.03277856 -0.03197734 -0.14233805
v 0.03277364 -0.03271006 -0.14233382
v 0.05542203 -0.02502157 -0.06196656
v 0.05551815 -0.02502132 -0.06027856
v 0.05646604 -0.02084016 -0.06112815
v 0.05700843 -0.01790009 -0.06200117
v 0.05815059 -0.01047072 -0.06116383
v 0.05807334 -0.01072657 -0.06202546
v 0.05859985 -0.00362783 -0.06203857
v 0.05871522 0.00000404 -0.06118377
v 0.05866621 0.00000364 -0.06204113
v 0.05876382 0.00000443 -0.06032643
v 0.05855745 -0.00635194 -0.06032167
v 0.05796856 -0.01241249 -0.06031261
v 0.05604892 -0.02288846 -0.06028650
v 0.05692429 -0.01884857 -0.06030039
v 0.06390739 -0.00139364 0.01654637
v 0.06359558 -0.00712422 0.01631420
v 0.06235152 -0.00618359 -0.02254405
v 0.06059053 -0.02126970 -0.00758975
v 0.06031149 -0.02204552 -0.01107778
v 0.06068102 -0.01878769 -0.02248478
v 0.06003686 -0.02279384 -0.01434768
v 0.05942806 -0.02448029 -0.02037900
v 0.05933657 -0.02473551 -0.02116330
v 0.05924502 -0.02499106 -0.02192078
v 0.05861066 -0.02532922 -0.03724424
v 0.06278133 -0.01318978 0.01468447
v 0.06269441 -0.01365274 0.01430523
v 0.06172585 -0.01250858 -0.02252117
v 0.06265871 -0.01383649 0.01413338
v 0.06246207 -0.01478596 0.01298098
v 0.06233318 -0.01535475 0.01201096
v 0.06222971 -0.01578159 0.01108291
v 0.06201949 -0.01658090 0.00882940
v 0.06177955 -0.01745125 0.00617679
v 0.06117348 -0.01949886 -0.00066698
v 0.06342739 -0.00877700 0.01618594
v 0.06312373 -0.01111353 0.01572586
v 0.06304041 -0.01166156 0.01552997
v 0.06046218 -0.00633341 -0.06214592
v 0.06066391 0.00000487 -0.06215245
v 0.06234558 0.00002073 -0.02764794
v 0.06391962 0.00004082 0.01655554
v 0.05983622 -0.01278809 -0.06213109
v 0.05879532 -0.01919099 -0.06210819
v 0.05735492 -0.02552426 -0.06207756
v 0.05523569 -0.03072189 -0.03359179
v 0.05424557 -0.03141807 -0.04137687
v 0.05608941 -0.02978756 -0.04159237
v 0.04127086 -0.03477613 -0.05641146
v 0.04028659 -0.03486410 -0.06174120
v 0.04201764 -0.03482627 -0.06177501
v 0.04426724 -0.03443678 -0.04211552
v 0.04336726 -0.03455953 -0.04610158
v 0.04704531 -0.03408932 -0.04057129
v 0.04305974 -0.03459612 -0.04751391
v 0.04460066 -0.03438545 -0.04068938
v 0.04578788 -0.03423551 -0.03892784
v 0.04498672 -0.03433523 -0.03977890
v 0.05205201 -0.03265583 -0.04112815
v 0.04992073 -0.03339110 -0.03727417
v 0.04682652 -0.03408560 -0.03840958
v 0.05378546 -0.03172449 -0.03500913
v 0.05319089 -0.03206204 -0.03546547
v 0.05114665 -0.03298113 -0.03669876
v 0.05877816 -0.02614927 -0.02493739
v 0.05794805 -0.02769483 -0.02835678
v 0.05748756 -0.02777122 -0.04176308
v 0.05716662 -0.02879651 -0.03046316
v 0.05594147 -0.03011587 -0.03267331
v 0.05906309 -0.02547717 -0.02324033
v 0.05640247 -0.02803657 -0.06205796
v 0.05491593 -0.03020545 -0.06202813
v 0.05292611 -0.03195238 -0.06198869
v 0.05056334 -0.03323736 -0.06194214
v 0.04671601 -0.03436623 -0.06186673
v 0.04545162 -0.03456878 -0.06184201
v 0.04153701 -0.03475126 -0.05497994
v 0.03972629 0.03434841 -0.06176100
v 0.03972740 0.03385788 -0.06176084
v 0.03973919 0.03434696 -0.06168989
v 0.04008494 0.03382675 -0.05978251
v 0.04072330 0.03425777 -0.05636032
v 0.04098829 0.03374480 -0.05493355
v 0.04098871 0.03424267 -0.05492963
v 0.04157543 0.03383035 -0.05995206
v 0.04125236 0.03385886 -0.06176514
v 0.04249921 0.03374597 -0.05496277
v 0.03273463 0.03261500 -0.14236175
v 0.03273736 0.03197529 -0.14236502
v 0.03276860 0.03205524 -0.14121819
v 0.03318607 0.03323157 -0.13392277
v 0.03303422 0.03309504 -0.13643438
v 0.03318648 0.03249285 -0.13392255
v 0.03295784 0.03300233 -0.13798730
v 0.03287027 0.03289314 -0.13953869
v 0.03396352 0.03371406 -0.12231640
v 0.03409402 0.03304024 -0.12059315
v 0.03436423 0.03385917 -0.11716302
v 0.03502408 0.03329653 -0.10952393
v 0.03570314 0.03408907 -0.10248966
v 0.03584115 0.03340115 -0.10114923
v 0.03584075 0.03409900 -0.10114952
v 0.03648685 0.03412597 -0.09516396
v 0.03699039 0.03344686 -0.09085105
v 0.03684548 0.03412972 -0.09206796
v 0.03810671 0.03409653 -0.08207189
v 0.03783904 0.03343490 -0.08408628
v 0.03890355 0.03405025 -0.07638462
v 0.03890396 0.03338746 -0.07638429
v 0.04002753 0.03396553 -0.06902952
v 0.04125449 0.03321871 -0.06174754
v 0.04145599 0.03320236 -0.06061641
v 0.04233704 0.03312943 -0.05586443
v 0.04250040 0.03311630 -0.05496852
v 0.05840672 0.00699971 -0.06203971
v 0.05813717 0.01047806 -0.06117234
v 0.05808787 0.01047834 -0.06203512
v 0.05764171 0.01396610 -0.06202793
v 0.05643932 0.02084536 -0.06114558
v 0.05637267 0.02092663 -0.06200552
v 0.05543770 0.02502560 -0.06114184
v 0.05538993 0.02502470 -0.06198809
v 0.05548668 0.02502504 -0.06029354
v 0.05658416 0.02039734 -0.06030746
v 0.05772207 0.01408286 -0.06032117
v 0.05876122 0.00065719 -0.06032666
v 0.05848952 0.00719879 -0.06032750
v 0.05818553 0.01047766 -0.06032553
v 0.05877051 0.01919928 -0.06212473
v 0.05732217 0.02552977 -0.06209952
v 0.05817942 0.02546211 -0.04581586
v 0.06234356 0.00622955 -0.02254933
v 0.06357706 0.00730544 0.01630110
v 0.06382067 0.00392391 0.01648214
v 0.06170977 0.01255376 -0.02253189
v 0.06326274 0.01010320 0.01599571
v 0.06340779 0.00893006 0.01617088
v 0.06148419 0.01846233 0.00312473
v 0.06187046 0.01711753 0.00741176
v 0.06192825 0.01690884 0.00804838
v 0.06204912 0.01646556 0.00937435
v 0.06224150 0.01572788 0.01137192
v 0.06231968 0.01540397 0.01204891
v 0.06255811 0.01432385 0.01368372
v 0.06262620 0.01398853 0.01404797
v 0.06287854 0.01262981 0.01509312
v 0.06300159 0.01189082 0.01545826
v 0.05939662 0.02452436 -0.02040008
v 0.06065688 0.01883154 -0.02250090
v 0.05929483 0.02480644 -0.02126823
v 0.05921293 0.02503354 -0.02194230
v 0.05954870 0.02410352 -0.01903715
v 0.06008284 0.02263938 -0.01351188
v 0.06024504 0.02220108 -0.01157364
v 0.06028255 0.02210038 -0.01110462
v 0.06100205 0.02002175 -0.00237672
v 0.06142629 0.01865655 0.00247445
v 0.06085379 0.01273779 -0.04233696
v 0.06065021 0.00153241 -0.06215294
v 0.06045431 0.00633889 -0.06215141
v 0.05977660 0.01312190 -0.06214143
v 0.05857941 0.02653679 -0.02578731
v 0.05702924 0.02649697 -0.06209424
v 0.05745191 0.02779439 -0.04178698
v 0.05836834 0.02694771 -0.02672051
v 0.05605118 0.02980907 -0.04161801
v 0.05420525 0.03143740 -0.04140391
v 0.05447238 0.03128297 -0.03438924
v 0.05591137 0.03013696 -0.03268686
v 0.05657723 0.02947101 -0.03160606
v 0.05756056 0.02825642 -0.02942088
v 0.04852957 0.03376204 -0.03784500
v 0.05110443 0.03300049 -0.03672737
v 0.05201010 0.03267255 -0.04115625
v 0.05218116 0.03256043 -0.03613120
v 0.05392153 0.03164141 -0.03488914
v 0.04700157 0.03410010 -0.04060062
v 0.04672468 0.03410704 -0.03845673
v 0.04809435 0.03385769 -0.03800322
v 0.04492889 0.03434569 -0.03983015
v 0.04565747 0.03425717 -0.03902314
v 0.04642294 0.03415264 -0.03856966
v 0.04274716 0.03461809 -0.04839949
v 0.04452848 0.03439729 -0.04083812
v 0.04474955 0.03436729 -0.04016099
v 0.04024186 0.03484800 -0.06177119
v 0.04049855 0.03482640 -0.06033911
v 0.04197298 0.03481237 -0.06180498
v 0.04240747 0.03465022 -0.04985804
v 0.04540726 0.03455907 -0.06187177
v 0.05636646 0.02804085 -0.06208210
v 0.05514864 0.02989096 -0.06205927
v 0.05221308 0.03238219 -0.06200331
v 0.05052067 0.03323418 -0.06197075
v 0.04766721 0.03414946 -0.06191561
v 0.04407336 -0.03388776 -0.04058524
v 0.04407276 -0.03335892 -0.04058629
v 0.04317221 -0.03401955 -0.04455874
v 0.04338698 -0.03344984 -0.04359190
v 0.04285569 -0.03406039 -0.04600408
v 0.04131224 -0.03422558 -0.05346706
v 0.04451695 -0.03332613 -0.03951435
v 0.04455127 -0.03332757 -0.03946065
v 0.04454425 -0.03340562 -0.04220659
v 0.04293929 -0.03370655 -0.05291576
v 0.04453567 -0.03349659 -0.04528940
v 0.04453534 -0.03283376 -0.04525668
v 0.04431784 -0.03285582 -0.04625148
v 0.04402996 0.03336587 -0.04061500
v 0.04402988 0.03389442 -0.04061440
v 0.04369362 0.03394258 -0.04207332
v 0.04157280 0.03367912 -0.05196752
v 0.04146028 0.03428353 -0.05252788
v 0.04174742 0.03430650 -0.05110161
v 0.04346635 0.03363223 -0.05013362
v 0.04449269 0.03350009 -0.04531822
v 0.04450061 0.03341976 -0.04251192
v 0.04450851 0.03333611 -0.03948933
v 0.04250892 0.03311263 -0.05487747
v 0.04272409 0.03308713 -0.05377804
v 0.04449319 0.03286584 -0.04528636
v 0.04381522 -0.00148089 -0.19564459
v 0.04382880 -0.00006337 -0.19565539
v 0.04347431 -0.00714232 -0.19539891
v 0.04342753 -0.00758849 -0.19536567
v 0.04322416 -0.00931868 -0.19520168
v 0.04302700 -0.01097643 -0.19485532
v 0.04284931 -0.01278919 -0.19409150
v 0.04280865 -0.01343480 -0.19366692
v 0.04280085 -0.01469500 -0.19245248
v 0.04717054 -0.02350619 -0.16187842
v 0.04635448 -0.02238329 -0.16767965
v 0.04593293 -0.02176051 -0.17051089
v 0.04550453 -0.02109003 -0.17333016
v 0.04464357 -0.01961141 -0.17893413
v 0.04281193 -0.01491100 -0.19216645
v 0.04286759 -0.01545428 -0.19132029
v 0.04300256 -0.01609731 -0.19000766
v 0.04304776 -0.01624431 -0.18964623
v 0.04322149 -0.01668248 -0.18841070
v 0.04380049 -0.01795752 -0.18449086
v 0.04421832 -0.01880584 -0.18171830
v 0.04582000 -0.02864255 -0.15313841
v 0.04603042 -0.02838093 -0.15340702
v 0.04610381 -0.02828294 -0.15350696
v 0.04681672 -0.02704336 -0.15476531
v 0.04727640 -0.02569940 -0.15632181
v 0.04737482 -0.02522745 -0.15700525
v 0.04744254 -0.02453880 -0.15828703
v 0.04733378 -0.02380739 -0.16045280
v 0.04370213 0.00409283 -0.19556975
v 0.04278255 0.01456980 -0.19246517
v 0.04278103 0.01355524 -0.19348601
v 0.04279956 0.01315714 -0.19378746
v 0.04293015 0.01160385 -0.19460952
v 0.04307041 0.01035824 -0.19499394
v 0.04333295 0.00820569 -0.19531333
v 0.04714045 0.02341277 -0.16189861
v 0.04736659 0.02393487 -0.15968379
v 0.04741111 0.02444882 -0.15830810
v 0.04728155 0.02544802 -0.15656708
v 0.04711124 0.02608324 -0.15574978
v 0.04664067 0.02725416 -0.15448163
v 0.04606757 0.02819538 -0.15353124
v 0.04578305 0.02855465 -0.15316297
v 0.04282402 0.01514494 -0.19164380
v 0.04284783 0.01533002 -0.19133353
v 0.04308819 0.01629339 -0.18920411
v 0.04337925 0.01696893 -0.18720405
v 0.04400359 0.01830946 -0.18299714
v 0.04529706 0.02068784 -0.17452848
v 0.04614221 0.02201464 -0.16894403
v 0.04694904 0.02315657 -0.16331318
v 0.04730772 -0.02305388 -0.15289821
v 0.04741197 -0.02276573 -0.15290031
v 0.04729462 -0.02304574 -0.15300101
v 0.04711955 -0.02289292 -0.15450503
v 0.04852017 -0.01466426 -0.16128376
v 0.04632007 -0.02200346 -0.16089828
v 0.04671394 -0.02248158 -0.15782575
v 0.04923493 -0.01690948 -0.15297297
v 0.04189326 -0.01506015 -0.18925631
v 0.04447220 -0.01917838 -0.17379947
v 0.04583050 -0.01463692 -0.17382658
v 0.04574481 -0.02120072 -0.16515569
v 0.04733050 -0.00617220 -0.17408133
v 0.05146990 -0.00004018 -0.15307720
v 0.05089091 -0.00004279 -0.15769336
v 0.04996360 -0.00617827 -0.16154718
v 0.04951858 -0.00004708 -0.16564436
v 0.04723110 -0.00005268 -0.17587698
v 0.04979274 -0.01465968 -0.15299687
v 0.05049143 -0.01121743 -0.15302855
v 0.05122102 -0.00569553 -0.15306351
v 0.04684782 -0.02426865 -0.15288538
v 0.04583308 -0.02633436 -0.15288784
v 0.04402980 -0.00762480 -0.19499758
v 0.04423679 -0.00534737 -0.19514540
v 0.04928343 -0.00677383 -0.17428096
v 0.04859277 -0.02319997 -0.15792191
v 0.04838281 -0.02295988 -0.15957615
v 0.05039304 -0.01539850 -0.16148765
v 0.04916832 -0.02373109 -0.15317518
v 0.05101754 -0.01792402 -0.15321368
v 0.05166710 -0.01536879 -0.15322737
v 0.05208117 -0.01348820 -0.15323621
v 0.05190627 -0.00677240 -0.16174878
v 0.05311920 -0.00675273 -0.15325919
v 0.05339168 -0.00308569 -0.15326600
v 0.05235538 -0.00004339 -0.16127615
v 0.05346045 -0.00003896 -0.15326858
v 0.04443249 -0.00006284 -0.19528779
v 0.04779913 -0.00005494 -0.18188474
v 0.05077625 -0.00004775 -0.16941735
v 0.04361381 -0.01117614 -0.19443332
v 0.04380753 -0.00951407 -0.19481143
v 0.04386720 -0.00902420 -0.19487508
v 0.04343673 -0.01443961 -0.19227262
v 0.04343281 -0.01342315 -0.19327302
v 0.04743565 -0.02164903 -0.16662380
v 0.04624248 -0.01968060 -0.17473198
v 0.04771093 -0.01538828 -0.17401476
v 0.04351327 -0.01516187 -0.19121327
v 0.04348620 -0.01497639 -0.19151893
v 0.04344862 -0.01307153 -0.19353053
v 0.04357442 -0.01154806 -0.19430551
v 0.03907435 -0.03102235 -0.14784646
v 0.03718317 -0.03242598 -0.14651111
v 0.03849499 -0.03213315 -0.14743689
v 0.03907516 -0.03198913 -0.14784630
v 0.04657930 -0.02039235 -0.17231588
v 0.04868470 -0.02500667 -0.15316993
v 0.04811465 -0.02431349 -0.15818624
v 0.04806884 -0.02379584 -0.15954468
v 0.04470853 -0.01818656 -0.18283331
v 0.04513004 -0.01900934 -0.18008418
v 0.04598461 -0.02052004 -0.17454852
v 0.04429390 -0.01731995 -0.18556999
v 0.04376240 -0.01612082 -0.18913257
v 0.04782766 -0.02323047 -0.16191730
v 0.04763684 -0.02297701 -0.16333234
v 0.04683130 -0.02184382 -0.16896482
v 0.04641075 -0.02120605 -0.17176281
v 0.04803285 -0.02515044 -0.15669259
v 0.04779072 -0.02616434 -0.15540025
v 0.04730317 -0.02743337 -0.15411563
v 0.04790183 -0.02671261 -0.15317845
v 0.04673991 -0.02841551 -0.15320195
v 0.04309726 -0.03062416 -0.15074672
v 0.04489191 -0.02953052 -0.15216470
v 0.04573882 -0.02873486 -0.15304072
v 0.04579819 -0.02866738 -0.15311214
v 0.04109153 -0.03141849 -0.14929999
v 0.04109653 -0.03071862 -0.14935395
v 0.04051406 -0.03159762 -0.14888220
v 0.04075983 -0.03102182 -0.14909133
v 0.04010735 -0.03102256 -0.14860567
v 0.04713052 0.02284211 -0.15418403
v 0.04628332 0.02189849 -0.16098282
v 0.04739482 0.01731341 -0.16317360
v 0.04387569 0.01811717 -0.17743811
v 0.04506043 0.01726756 -0.17371540
v 0.04527133 0.02041190 -0.16832550
v 0.05146425 0.00073394 -0.15307729
v 0.04735303 0.00577484 -0.17409149
v 0.04648142 0.01156365 -0.17394924
v 0.04919067 0.01691087 -0.15298654
v 0.04727820 0.02296839 -0.15291806
v 0.04877562 0.01159278 -0.16341327
v 0.05041207 0.01149774 -0.15303479
v 0.04962274 0.00579247 -0.16355950
v 0.05116731 0.00611141 -0.15306592
v 0.05139310 0.00303294 -0.15307499
v 0.04681674 0.02418256 -0.15290624
v 0.04603811 0.02584941 -0.15290615
v 0.04440206 0.00195567 -0.19526818
v 0.04406360 0.00708584 -0.19503474
v 0.04927491 0.00667246 -0.17428632
v 0.05099460 0.01784301 -0.15322907
v 0.05164739 0.01528881 -0.15324056
v 0.05037339 0.01530955 -0.16150056
v 0.05189769 0.00668518 -0.16175427
v 0.05269226 0.00992519 -0.15325835
v 0.05318763 0.00588555 -0.15326607
v 0.05045927 0.01969267 -0.15321954
v 0.04828322 0.02278408 -0.16014178
v 0.04913792 0.02364772 -0.15319556
v 0.04343367 0.01453536 -0.19199786
v 0.04349390 0.01503854 -0.19122626
v 0.04769136 0.01528512 -0.17402753
v 0.04591661 0.01905454 -0.17668577
v 0.04733855 0.02144387 -0.16713588
v 0.04402011 0.00749880 -0.19500409
v 0.04386868 0.00879276 -0.19489424
v 0.04359079 0.01113027 -0.19441703
v 0.04354033 0.01161181 -0.19424257
v 0.04342234 0.01313462 -0.19340867
v 0.04341832 0.01431519 -0.19228491
v 0.04441689 0.00136869 -0.19527811
v 0.04006761 0.03093149 -0.14863233
v 0.03903461 0.03093060 -0.14787312
v 0.03903417 0.03189738 -0.14787377
v 0.04072009 0.03093117 -0.14911799
v 0.03963966 0.03173795 -0.14830378
v 0.04105128 0.03132815 -0.14932700
v 0.04105463 0.03093034 -0.14935625
v 0.04108572 0.03131679 -0.14935166
v 0.04219374 0.03091289 -0.15014832
v 0.04449713 0.02970861 -0.15187654
v 0.04413195 0.02995119 -0.15157717
v 0.04808351 0.02422445 -0.15820718
v 0.04802369 0.02492089 -0.15692958
v 0.04865267 0.02492269 -0.15319142
v 0.04793632 0.02538998 -0.15625605
v 0.04777557 0.02601567 -0.15549208
v 0.04751988 0.02676493 -0.15470085
v 0.04755010 0.02717762 -0.15320796
v 0.04670315 0.02832940 -0.15322638
v 0.04796050 0.02343557 -0.16052578
v 0.04697026 0.02198906 -0.16785012
v 0.04779793 0.02313783 -0.16193724
v 0.04485423 0.01841055 -0.18174104
v 0.04527702 0.01921834 -0.17898749
v 0.04655321 0.02028918 -0.17233339
v 0.04613051 0.02069811 -0.17344293
v 0.04655401 0.02136782 -0.17065267
v 0.04443773 0.01755859 -0.18448223
v 0.04363570 0.01568807 -0.18993331
v 0.04385574 0.01626956 -0.18837234
v 0.03831856 0.03207313 -0.14736909
v 0.03714163 0.03233295 -0.14653897
v 0.03502471 -0.03417658 -0.09513018
v 0.03518336 -0.03465580 -0.09369341
v 0.03537440 -0.03417724 -0.09204577
v 0.03623109 -0.03463503 -0.08508617
v 0.03306886 -0.03444465 -0.11503547
v 0.03374840 -0.03456993 -0.10741673
v 0.03370504 -0.03409515 -0.10787404
v 0.03388644 -0.03458679 -0.10597217
v 0.03502002 -0.03465417 -0.09512927
v 0.03771612 -0.03405939 -0.07437734
v 0.03713395 -0.03458618 -0.07839400
v 0.03713380 -0.03410245 -0.07839309
v 0.03604018 -0.03416171 -0.08657984
v 0.03300905 -0.03396267 -0.11574883
v 0.03261957 -0.03384025 -0.12063788
v 0.03170342 -0.03376941 -0.13417239
v 0.03157394 -0.03318558 -0.13640176
v 0.03157425 -0.03364931 -0.13640156
v 0.03159617 -0.03367080 -0.13601592
v 0.03161826 -0.03369199 -0.13563035
v 0.03179676 -0.03338310 -0.13261767
v 0.03245876 -0.03277303 -0.14178665
v 0.03178440 -0.03294252 -0.14004768
v 0.03167019 -0.03298644 -0.13950640
v 0.03153387 -0.03309333 -0.13797000
v 0.03155627 -0.03352265 -0.13852195
v 0.03167542 -0.03345250 -0.13953419
v 0.03187105 -0.03338755 -0.14036377
v 0.03208189 -0.03333431 -0.14097349
v 0.03274930 -0.03319921 -0.14229080
v 0.03301529 -0.03315145 -0.14269778
v 0.03379019 -0.03302025 -0.14368013
v 0.03481385 -0.03285676 -0.14469314
v 0.03716724 -0.03242927 -0.14649987
v 0.03773275 -0.03309070 -0.08747590
v 0.03774145 -0.03307287 -0.09165648
v 0.03713559 -0.03309672 -0.09238818
v 0.03991865 -0.03298078 -0.08942559
v 0.03810247 -0.03307963 -0.08459107
v 0.04185128 -0.03284768 -0.06346680
v 0.04158295 -0.03283549 -0.06179106
v 0.04197019 -0.03282699 -0.06179734
v 0.03543332 -0.03298049 -0.10859310
v 0.03696165 -0.03247325 -0.12213270
v 0.03517365 -0.03293481 -0.11144070
v 0.03340988 -0.03210306 -0.13549808
v 0.03403702 -0.03255060 -0.12572141
v 0.03419853 -0.03263070 -0.12346796
v 0.03638752 -0.03213737 -0.13049041
v 0.03307156 -0.03173426 -0.14153256
v 0.03808901 -0.03273125 -0.11174516
v 0.05028461 -0.02467741 -0.12563345
v 0.04942172 -0.02434431 -0.13391386
v 0.04816101 -0.02786341 -0.13031553
v 0.04838526 -0.02380012 -0.14341770
v 0.05193943 -0.02503985 -0.10853126
v 0.05460644 -0.02716099 -0.06195551
v 0.05374893 -0.02510019 -0.08700309
v 0.05406204 -0.02806331 -0.06195007
v 0.05322855 -0.02694360 -0.08478801
v 0.05224515 -0.02851679 -0.08480161
v 0.05342055 -0.02887999 -0.06194428
v 0.05094599 -0.02983028 -0.08480815
v 0.05181560 -0.03028989 -0.06192788
v 0.04930799 -0.03091097 -0.08480236
v 0.04973696 -0.03141572 -0.06190278
v 0.04853689 -0.03185566 -0.06188731
v 0.04521010 -0.03236624 -0.08475298
v 0.04738206 -0.03217824 -0.06187178
v 0.04348166 -0.03208460 -0.10758957
v 0.04124880 -0.03140930 -0.13036923
v 0.03991309 -0.03085824 -0.14172357
v 0.04407743 -0.02958862 -0.14173427
v 0.04695785 -0.02906570 -0.13036187
v 0.04537291 -0.03004212 -0.13039002
v 0.04758251 -0.03062010 -0.10762690
v 0.05040248 -0.02833948 -0.10759118
v 0.04450593 -0.03266823 -0.06183282
v 0.05846527 -0.01285252 -0.08496336
v 0.05676817 -0.01287745 -0.10777199
v 0.05748859 -0.00638712 -0.10778856
v 0.05237539 -0.02533391 -0.12393623
v 0.05080539 -0.02473512 -0.13877670
v 0.05344433 -0.01894209 -0.13051602
v 0.05394074 -0.02561439 -0.10771222
v 0.05592155 -0.02561352 -0.08385146
v 0.05398142 -0.02561791 -0.10726579
v 0.05736230 -0.01927599 -0.08493978
v 0.05557661 -0.01929406 -0.10774636
v 0.05884860 -0.00000923 -0.09251501
v 0.05772033 -0.00001645 -0.10779564
v 0.05684605 -0.00002152 -0.11834572
v 0.05549279 -0.00628484 -0.13056105
v 0.05429440 -0.00003486 -0.14528774
v 0.05471946 -0.01265608 -0.13054340
v 0.05309834 -0.02772525 -0.10800523
v 0.03891502 -0.03487488 -0.10311128
v 0.03832217 -0.03475544 -0.11041492
v 0.04380252 -0.03405065 -0.10793982
v 0.04003751 -0.03232300 -0.14789312
v 0.04478657 -0.03140458 -0.14239754
v 0.03945572 -0.03247787 -0.14748460
v 0.04014572 -0.03280488 -0.14236294
v 0.03812713 -0.03279359 -0.14655615
v 0.03519181 -0.03335262 -0.14435855
v 0.03628843 -0.03316273 -0.14524353
v 0.03754252 -0.03291855 -0.14614683
v 0.04020230 -0.03498582 -0.08634967
v 0.04552669 -0.03434135 -0.08492730
v 0.05018036 -0.03270479 -0.08501446
v 0.05215841 -0.03141053 -0.08504160
v 0.05378192 -0.02977918 -0.08505613
v 0.05500480 -0.02783293 -0.08505871
v 0.04651934 -0.02871838 -0.15292083
v 0.04840433 -0.02863819 -0.14235814
v 0.04955722 -0.02669525 -0.14232902
v 0.04680156 -0.03023079 -0.14238569
v 0.04504155 -0.03014722 -0.15148485
v 0.04635496 -0.02892368 -0.15272735
v 0.04637665 -0.02889746 -0.15275232
v 0.04644069 -0.02881852 -0.15282722
v 0.04150436 -0.03187212 -0.14894074
v 0.04262799 -0.03145270 -0.14973292
v 0.04463488 -0.03042706 -0.15116575
v 0.05192617 -0.02959251 -0.10802153
v 0.05036106 -0.03116284 -0.10802535
v 0.04843313 -0.03241146 -0.10801306
v 0.03672881 -0.03420871 -0.12870616
v 0.04152961 -0.03336459 -0.13090481
v 0.04614620 -0.03184789 -0.13095529
v 0.04810272 -0.03065174 -0.13095203
v 0.04967232 -0.02909111 -0.13093185
v 0.05082352 -0.02721141 -0.13090391
v 0.03291057 -0.03470426 -0.12391391
v 0.03215084 -0.03418971 -0.13568817
v 0.03210695 -0.03414698 -0.13645968
v 0.03206678 -0.03405996 -0.13792016
v 0.03218489 -0.03395776 -0.13937823
v 0.03229511 -0.03391386 -0.13992064
v 0.03294343 -0.03375028 -0.14159738
v 0.03321309 -0.03369603 -0.14206418
v 0.03406747 -0.03354049 -0.14322767
v 0.03361781 -0.03494882 -0.11482800
v 0.03413529 -0.03504959 -0.10894305
v 0.03488078 -0.03512768 -0.10130109
v 0.03427231 -0.03506887 -0.10747243
v 0.04027343 -0.03486491 -0.06181194
v 0.04002269 -0.03488861 -0.06324963
v 0.03735480 -0.03510366 -0.08055916
v 0.03553905 -0.03515337 -0.09518845
v 0.03370411 0.03450613 -0.10744625
v 0.03338729 0.03398637 -0.11088987
v 0.03498090 0.03412500 -0.09515956
v 0.03580920 0.03460347 -0.08810353
v 0.03497560 0.03460258 -0.09515904
v 0.03481309 0.03459778 -0.09661575
v 0.03580950 0.03412354 -0.08810332
v 0.03653793 0.03409797 -0.08244225
v 0.03850317 0.03445228 -0.06902903
v 0.03947219 0.03437090 -0.06321294
v 0.03356665 0.03448559 -0.10891680
v 0.03304688 0.03437917 -0.11480146
v 0.03235376 0.03366873 -0.12365674
v 0.03157511 0.03360120 -0.13565902
v 0.03153143 0.03309406 -0.13643028
v 0.03155304 0.03357965 -0.13604473
v 0.03153113 0.03355779 -0.13643047
v 0.03711898 0.03233762 -0.14652300
v 0.03588755 0.03257475 -0.14562933
v 0.03477198 0.03276235 -0.14472155
v 0.03346954 0.03297123 -0.14338401
v 0.03238384 0.03316594 -0.14175323
v 0.03241703 0.03267796 -0.14181532
v 0.03197963 0.03325363 -0.14084654
v 0.03174231 0.03284809 -0.14007647
v 0.03172568 0.03332411 -0.14000992
v 0.03162795 0.03289237 -0.13953482
v 0.03149148 0.03300041 -0.13799849
v 0.03148981 0.03347072 -0.13790520
v 0.03155080 0.03339959 -0.13898811
v 0.05162788 0.03038920 -0.06195337
v 0.05047637 0.03105440 -0.06194012
v 0.04926945 0.03088602 -0.08482895
v 0.04339620 0.03074526 -0.13041726
v 0.04533551 0.02997296 -0.13041584
v 0.04754434 0.03057331 -0.10765322
v 0.05482575 0.02503630 -0.07128475
v 0.05408079 0.02798428 -0.06197619
v 0.05319490 0.02692243 -0.08481117
v 0.05220963 0.02849487 -0.08482612
v 0.05294338 0.02507844 -0.09670329
v 0.05036714 0.02829564 -0.10761552
v 0.05199873 0.02500970 -0.10754952
v 0.05108063 0.02485094 -0.11733153
v 0.04834588 0.02371555 -0.14352602
v 0.04838772 0.02374114 -0.14315011
v 0.04939051 0.02427762 -0.13393469
v 0.04692168 0.02899828 -0.13038681
v 0.04812627 0.02779719 -0.13033943
v 0.04344124 0.03203298 -0.10761716
v 0.03648796 0.03212359 -0.12900823
v 0.04120925 0.03133522 -0.13039623
v 0.04516929 0.03233651 -0.08478083
v 0.03999206 0.03294549 -0.08788311
v 0.03813962 0.03269445 -0.11061439
v 0.04192808 0.03281299 -0.06182558
v 0.04387782 0.03271290 -0.06185285
v 0.04743324 0.03214871 -0.06190137
v 0.04849600 0.03184989 -0.06191533
v 0.05090888 0.02980709 -0.08483381
v 0.04163998 0.03281894 -0.06182092
v 0.04144112 0.03283491 -0.06295305
v 0.03894108 0.03300630 -0.07885011
v 0.03773891 0.03302596 -0.09168282
v 0.03695951 0.03239766 -0.12216122
v 0.03822004 0.03303543 -0.08413787
v 0.03616793 0.03299762 -0.10167216
v 0.03433978 0.03258856 -0.12227833
v 0.03356401 0.03210119 -0.13379984
v 0.05342007 0.01888372 -0.13053231
v 0.05049258 0.02451980 -0.14134100
v 0.05748042 0.00635349 -0.10779403
v 0.05675166 0.01284291 -0.10778305
v 0.05733758 0.01926185 -0.08495636
v 0.05555188 0.01925801 -0.10776293
v 0.05382561 0.02556770 -0.10863301
v 0.05565677 0.02561006 -0.08694406
v 0.05166782 0.02505719 -0.13048887
v 0.05212518 0.02521463 -0.12609106
v 0.05470327 0.01259931 -0.13055427
v 0.05548476 0.00622906 -0.13056645
v 0.04022887 0.03484873 -0.06184196
v 0.04011660 0.03494685 -0.08703790
v 0.03634889 0.03510297 -0.08797091
v 0.03565852 0.03510557 -0.09376834
v 0.03549399 0.03510240 -0.09521861
v 0.03887025 0.03482139 -0.10314108
v 0.03466023 0.03505594 -0.10305496
v 0.03661392 0.03409733 -0.12950702
v 0.03219185 0.03417841 -0.13425936
v 0.03830739 0.03470237 -0.11008568
v 0.03422737 0.03500570 -0.10750236
v 0.03436483 0.03502403 -0.10605777
v 0.03202275 0.03396985 -0.13791682
v 0.03206319 0.03405610 -0.13648900
v 0.03210705 0.03409957 -0.13571726
v 0.03514922 0.03325887 -0.14438733
v 0.03409705 0.03343383 -0.14334023
v 0.03342157 0.03355388 -0.14247711
v 0.03251188 0.03374440 -0.14078216
v 0.03220649 0.03383679 -0.13975221
v 0.04548441 0.03431447 -0.08481924
v 0.03941412 0.03238694 -0.14751250
v 0.04015882 0.03274875 -0.14191322
v 0.04025313 0.03216022 -0.14810364
v 0.04480221 0.03134914 -0.14194743
v 0.04146357 0.03178253 -0.14896822
v 0.04426755 0.03054233 -0.15094849
v 0.04366477 0.03087266 -0.15051827
v 0.04240192 0.03143871 -0.14962922
v 0.04557527 0.02960039 -0.15200013
v 0.04810549 0.03060084 -0.13056864
v 0.04640304 0.02873282 -0.15285133
v 0.04967758 0.02904260 -0.13054740
v 0.05083204 0.02716526 -0.13051796
v 0.05014326 0.03268478 -0.08490514
v 0.05212487 0.03139281 -0.08493129
v 0.05375222 0.02976273 -0.08494455
v 0.05497884 0.02781679 -0.08494559
v 0.03920994 0.03243845 -0.14737017
v 0.03805439 0.03270841 -0.14656354
v 0.04614741 0.03179530 -0.13057260
v 0.04152619 0.03330916 -0.13052282
v 0.04377557 0.03400672 -0.10769468
v 0.05308729 0.02769005 -0.10775559
v 0.05191148 0.02955705 -0.10777331
v 0.05034284 0.03112628 -0.10777826
v 0.04841174 0.03237315 -0.10776683
v 0.03301046 0.03166274 -0.14260605
v 0.03299461 -0.03173296 -0.14248276
v 0.04649751 0.03363013 -0.03798976
v 0.04656073 0.03362104 -0.03796969
v 0.05075161 0.03267029 -0.03628834
v 0.04947076 0.03304643 -0.03689164
v 0.05540505 0.03012083 -0.03236336
v 0.05468376 0.03069950 -0.03330612
v 0.05332212 0.03156692 -0.03463692
v 0.05275707 0.03185971 -0.03507248
v 0.05726979 0.02800555 -0.02836517
v 0.05811377 0.02653372 -0.02496024
v 0.05842593 0.02583327 -0.02311095
v 0.05861028 0.02535783 -0.02175737
v 0.05659803 0.02890022 -0.03017447
v 0.05879415 0.02485465 -0.02022600
v 0.05871454 0.02507277 -0.02090332
v 0.06343579 0.00004072 0.01707123
v 0.06342132 0.00148949 0.01706051
v 0.06309260 0.00727642 0.01681595
v 0.06290642 0.00903838 0.01667001
v 0.06259150 0.01136602 0.01617641
v 0.06249237 0.01199240 0.01594005
v 0.06221793 0.01354735 0.01503714
v 0.06211809 0.01405857 0.01460242
v 0.06187269 0.01521265 0.01321089
v 0.06135722 0.01722788 0.00835667
v 0.06158037 0.01641067 0.01076661
v 0.06181348 0.01547023 0.01279478
v 0.06075289 0.01928917 0.00169954
v 0.06109913 0.01813223 0.00554009
v 0.05939783 0.02321242 -0.01431452
v 0.05949767 0.02294398 -0.01318454
v 0.05968095 0.02245464 -0.01098164
v 0.06008162 0.02134668 -0.00605769
v 0.05897860 -0.02439093 -0.01884160
v 0.05882597 -0.02481121 -0.02020463
v 0.05951401 -0.02292892 -0.01331585
v 0.05985447 -0.02200927 -0.00914892
v 0.06061670 -0.01974338 -0.00010566
v 0.06095560 -0.01863321 0.00370872
v 0.06141760 -0.01701760 0.00879026
v 0.06153971 -0.01656791 0.01012640
v 0.06180296 -0.01552451 0.01258005
v 0.06188898 -0.01515061 0.01320238
v 0.06210479 -0.01413695 0.01446377
v 0.06213963 -0.01396302 0.01463116
v 0.06225991 -0.01333779 0.01514744
v 0.06248658 -0.01204255 0.01589418
v 0.06253042 -0.01177199 0.01600848
v 0.06271682 -0.01052710 0.01640418
v 0.06298199 -0.00838886 0.01673296
v 0.06325974 -0.00522899 0.01693989
v 0.05864279 -0.02531595 -0.02173557
v 0.05872520 -0.02508922 -0.02106139
v 0.05543542 -0.03009941 -0.03234954
v 0.05800804 -0.02677722 -0.02563463
v 0.05786204 -0.02705348 -0.02629479
v 0.05708423 -0.02828872 -0.02900220
v 0.05610271 -0.02946361 -0.03125141
v 0.05079352 -0.03265100 -0.03626024
v 0.05189020 -0.03224448 -0.03564789
v 0.05353001 -0.03144889 -0.03446965
v 0.05403374 -0.03114536 -0.03401220
v 0.04798834 -0.03337395 -0.03747049
v 0.04666664 -0.03359935 -0.03792091
v 0.04660386 -0.03360944 -0.03794080
v 0.04529000 -0.03376437 -0.03864679
v 0.04452242 -0.03384136 -0.03951421
v 0.04450175 -0.03384336 -0.03954728
v 0.04209249 0.03449712 -0.05049091
v 0.04425225 0.03387139 -0.03996209
v 0.04447149 0.03385060 -0.03955524
v 0.04535000 0.03376379 -0.03859370
v 0.05344317 -0.03013244 -0.03347699
v 0.05479838 -0.02901733 -0.03142161
v 0.05353428 -0.02885905 -0.06025282
v 0.05750523 0.02450551 -0.02018737
v 0.05734211 0.02493650 -0.02152499
v 0.05811431 0.02174695 -0.02163050
v 0.05415056 -0.02807191 -0.06026069
v 0.05448193 -0.02755202 -0.06026496
v 0.05575931 -0.02791950 -0.02918655
v 0.05470512 -0.02714988 -0.06026740
v 0.05593546 -0.02767735 -0.02865947
v 0.05675822 -0.02630944 -0.02541688
v 0.05733498 -0.02499984 -0.02181330
v 0.05787237 -0.02287066 -0.02161096
v 0.05980631 -0.01227911 -0.02161901
v 0.06057411 -0.00159092 -0.02162417
v 0.06036075 0.00654589 -0.02162775
v 0.05908003 0.01696708 -0.02163041
v 0.05663906 0.02651079 -0.02585747
v 0.05612665 0.02737840 -0.02793720
v 0.05554541 0.02818110 -0.02970012
v 0.05447372 0.02751157 -0.06028176
v 0.05472365 0.02705344 -0.06028472
v 0.05376420 0.02989866 -0.03303984
v 0.05224586 0.03001642 -0.06025495
v 0.05258875 0.02974187 -0.06025911
v 0.05360690 0.02873618 -0.06027141
v 0.05510865 0.02868905 -0.03074333
v 0.05327507 0.02910183 -0.06026741
v 0.05291992 0.02944993 -0.06026312
v 0.05391483 0.02835254 -0.06027510
v 0.05405998 0.02815408 -0.06027684
v 0.05419938 0.02795129 -0.06027850
v 0.05181720 0.03032584 -0.06024973
v 0.05217033 0.03089891 -0.03479331
v 0.05137315 0.03061244 -0.06024432
v 0.04931793 0.03160314 -0.06021918
v 0.04988350 0.03137536 -0.06022611
v 0.05029535 0.03170072 -0.03618058
v 0.05044117 0.03112052 -0.06023294
v 0.05091431 0.03087709 -0.06023873
v 0.04876346 0.03179983 -0.06021238
v 0.04919347 0.03204090 -0.03680337
v 0.04851655 0.03221129 -0.03713720
v 0.04541094 0.03269762 -0.03852041
v 0.04376179 0.03273321 -0.06015073
v 0.04559265 0.03253383 -0.06017334
v 0.04656152 0.03256759 -0.03793002
v 0.04689162 0.03230275 -0.06018935
v 0.04816551 0.03198561 -0.06020503
v 0.04450890 0.03276443 -0.03948001
v 0.04449147 0.03274155 -0.04592861
v 0.04279910 0.03280286 -0.05494423
v 0.04279704 0.03280273 -0.05503204
v 0.04427266 0.03275264 -0.04702756
v 0.04264587 0.03280570 -0.05592918
v 0.04244491 0.03280928 -0.05704897
v 0.04192195 0.03281578 -0.06012798
v 0.06010012 0.01692423 0.00850127
v 0.05985344 0.01784735 0.00561026
v 0.05948675 0.01910627 0.00138472
v 0.05873789 0.02133003 -0.00724587
v 0.05819007 0.02273101 -0.01362423
v 0.06081914 0.01338117 0.01501678
v 0.06073028 0.01392879 0.01452800
v 0.06107965 0.01115660 0.01393822
v 0.06052759 0.01505273 0.01309822
v 0.06041457 0.01560847 0.01208607
v 0.06136525 0.00901309 0.01669584
v 0.06113089 0.01114674 0.01621948
v 0.06104083 0.01184933 0.01594602
v 0.06030626 0.01609405 0.01094845
v 0.06159406 0.00619121 0.01692703
v 0.06179893 0.00003970 0.01712339
v 0.06172260 -0.00381389 0.01704895
v 0.06116208 -0.01092919 0.01627495
v 0.06136045 -0.00910383 0.01668118
v 0.06156448 -0.00666612 0.01689610
v 0.05970523 -0.01838790 0.00363905
v 0.05942065 -0.01933789 0.00035924
v 0.05861993 -0.02166215 -0.00894371
v 0.05992331 -0.01760812 0.00617503
v 0.06018929 -0.01658748 0.00932115
v 0.06019975 -0.01654562 0.00944683
v 0.06035459 -0.01590103 0.01127195
v 0.06058031 -0.01480293 0.01338194
v 0.06065144 -0.01441481 0.01391261
v 0.06086434 -0.01312275 0.01516923
v 0.06094597 -0.01257165 0.01554087
v 0.06103152 -0.01195584 0.01587172
v 0.05753671 -0.02446379 -0.02016653
v 0.05815832 -0.02283876 -0.01426149
v 0.05853168 -0.02188995 -0.00999534
v 0.05107800 -0.03080881 -0.06022181
v 0.05055989 -0.03108298 -0.06021531
v 0.05184313 -0.03106028 -0.03508185
v 0.05158316 -0.03050574 -0.06022816
v 0.05283563 -0.02955928 -0.06024395
v 0.05223138 -0.03005571 -0.06023632
v 0.05191265 -0.03028639 -0.06023230
v 0.05003016 -0.03133119 -0.06020867
v 0.04854536 -0.03219905 -0.03711542
v 0.05033615 -0.03168216 -0.03615334
v 0.04948983 -0.03155573 -0.06020192
v 0.04838753 -0.03193677 -0.06018815
v 0.04781605 -0.03235460 -0.03743899
v 0.04267320 -0.03281463 -0.05544152
v 0.04688057 -0.03232046 -0.06016937
v 0.04535677 -0.03258116 -0.06015043
v 0.04186324 -0.03283020 -0.06010709
v 0.04200531 -0.03282809 -0.05926216
v 0.04259215 -0.03281659 -0.05589733
v 0.04273797 -0.03281312 -0.05498278
v 0.04291875 -0.03280822 -0.05398043
v 0.04453397 -0.03273891 -0.04572074
v 0.04455120 -0.03275564 -0.03945098
v 0.04540513 -0.03269134 -0.03852845
v 0.04660329 -0.03255528 -0.03790201
v 0.04864405 0.03182387 -0.06021090
v 0.04739420 0.03217031 -0.06019554
v 0.04580651 0.03248082 -0.06017597
v 0.04419821 0.03267660 -0.06015612
v 0.04194364 0.03279569 -0.06012824
v 0.05261530 0.02971501 -0.06025943
v 0.05421839 0.02791953 -0.06027872
v 0.05414883 0.02802273 -0.06027790
v 0.05219121 0.03005292 -0.06025428
v 0.05175118 0.03036443 -0.06024893
v 0.05129628 0.03065128 -0.06024338
v 0.05082746 0.03091506 -0.06023766
v 0.05035685 0.03115178 -0.06023191
v 0.05314161 0.02923238 -0.06026580
v 0.05338743 0.02897733 -0.06026876
v 0.05362162 0.02871307 -0.06027158
v 0.05393153 0.02832544 -0.06027530
v 0.05407784 0.02812476 -0.06027705
v 0.05011706 0.03126270 -0.06022897
v 0.04987438 0.03136884 -0.06022600
v 0.04453465 -0.03278629 -0.04548839
v 0.05411359 -0.02805717 -0.06109640
v 0.05183768 -0.03030511 -0.06106440
v 0.05283333 -0.02955683 -0.06024528
v 0.05359230 -0.02878739 -0.06025426
v 0.05055430 -0.03107684 -0.06021570
v 0.05104308 -0.03082024 -0.06022229
v 0.05005981 -0.03130813 -0.06020896
v 0.04861150 -0.03184286 -0.06101118
v 0.04950766 -0.03153688 -0.06020138
v 0.05152251 -0.03053741 -0.06022866
v 0.05198856 -0.03022780 -0.06023472
v 0.04642818 -0.03238918 -0.06015923
v 0.04785213 -0.03207086 -0.06017839
v 0.04895501 -0.03173834 -0.06019374
v 0.04173304 -0.03282240 -0.06094752
v 0.04188455 -0.03281100 -0.06010736
v 0.04504768 -0.03260021 -0.06014184
v 0.04399271 -0.03271315 -0.06092643
v 0.04395064 0.03270253 -0.06095639
v 0.05407749 0.02805936 -0.06112228
v 0.05179869 0.03030442 -0.06109223
v 0.04857055 0.03183809 -0.06104037
v 0.04174223 0.03281076 -0.06124784
v 0.05503316 -0.00002184 -0.11607706
v 0.05340206 -0.00003049 -0.13404246
v 0.05323541 -0.00503515 -0.13403545
v 0.05284510 -0.01880758 -0.11633550
v 0.05685265 -0.00001053 -0.09238762
v 0.05620862 -0.00636064 -0.09829401
v 0.05552392 -0.01267635 -0.09827433
v 0.05439626 -0.01892978 -0.09824384
v 0.05124674 -0.01791913 -0.13397101
v 0.05184748 -0.01522752 -0.13399003
v 0.05403800 -0.01260368 -0.11636965
v 0.05253474 -0.01139209 -0.13401207
v 0.05550767 0.01264839 -0.09828522
v 0.05620048 0.00633354 -0.09829947
v 0.05333591 0.00304053 -0.13404198
v 0.05314458 0.00608344 -0.13403761
v 0.05437199 0.01890040 -0.09826012
v 0.05282100 0.01876063 -0.11635166
v 0.05239747 0.01209751 -0.13401818
v 0.05116614 0.01809154 -0.13398483
v 0.05218552 -0.00599702 -0.14367279
v 0.05079789 -0.01522963 -0.14352216
v 0.05236433 0.00304623 -0.14369684
v 0.05140117 0.01196063 -0.14360085
v 0.04934283 0.02070933 -0.14338224
f 1 2 3
f 333 2 1
f 864 2 333
f 863 2 864
f 864 860 863
f 863 860 858
f 863 858 865
f 865 858 850
f 865 850 852
f 852 850 849
f 852 849 853
f 852 853 854
f 854 853 855
f 853 366 855
f 853 368 366
f 367 366 368
f 367 368 369
f 369 368 370
f 369 370 371
f 371 370 372
f 851 372 370
f 851 370 849
f 857 372 851
f 851 850 857
f 857 374 372
f 859 374 857
f 857 858 859
f 858 862 859
f 858 861 862
f 374 862 861
f 374 861 377
f 377 861 860
f 377 860 379
f 378 377 379
f 376 377 378
f 378 379 380
f 380 379 381
f 381 379 382
f 381 382 383
f 383 382 335
f 845 383 335
f 845 335 846
f 846 335 334
f 846 334 847
f 847 919 846
f 846 919 956
f 942 956 919
f 919 943 942
f 917 943 919
f 919 920 917
f 917 920 921
f 917 921 918
f 711 918 921
f 711 916 918
f 712 916 711
f 711 14 712
f 712 14 710
f 712 710 713
f 710 738 713
f 738 936 713
f 713 936 914
f 914 936 915
f 914 915 916
f 916 915 917
f 915 944 917
f 915 945 944
f 940 944 945
f 940 945 939
f 939 945 946
f 931 946 945
f 929 946 931
f 929 947 946
f 930 947 929
f 930 896 947
f 897 896 930
f 896 897 898
f 896 898 899
f 899 910 896
f 899 901 910
f 901 900 910
f 900 901 902
f 427 900 902
f 427 902 893
f 893 426 427
f 426 403 427
f 426 411 403
f 422 411 426
f 422 400 411
f 400 420 411
f 400 419 420
f 399 419 400
f 399 1144 419
f 399 1145 1144
f 1145 1244 1144
f 1144 1244 1243
f 1144 1243 1143
f 1143 1243 1242
f 1143 1242 1142
f 1142 420 1143
f 1142 421 420
f 1141 421 1142
f 1142 1256 1141
f 1141 1256 1140
f 1256 1255 1140
f 1140 1255 1254
f 1140 1254 1139
f 1139 1254 1253
f 1253 1138 1139
f 1253 1137 1138
f 1252 1137 1253
f 1252 1136 1137
f 1251 1136 1252
f 1251 1135 1136
f 1135 415 1136
f 1136 415 414
f 411 414 415
f 415 416 411
f 411 416 417
f 1134 417 416
f 1134 416 1135
f 1250 1134 1135
f 1249 1134 1250
f 1249 1248 1134
f 1134 1248 1245
f 1134 1245 1133
f 1133 1245 1132
f 1132 1245 1246
f 1132 1246 1131
f 1246 1247 1131
f 1131 1247 1259
f 1131 1259 1130
f 1130 402 1131
f 1131 402 401
f 401 402 403
f 403 402 404
f 403 404 405
f 405 406 403
f 403 406 407
f 1147 407 406
f 1147 406 1129
f 1129 1257 1147
f 1128 1257 1129
f 1128 1258 1257
f 1130 1258 1128
f 1128 405 1130
f 1128 1129 405
f 1147 1257 1179
f 1147 1179 1146
f 1146 1179 1149
f 1146 1149 448
f 448 1149 1150
f 448 1150 449
f 449 1150 1151
f 449 1151 451
f 450 449 451
f 450 451 431
f 431 451 452
f 431 452 429
f 429 430 431
f 429 445 430
f 430 445 446
f 430 446 442
f 456 430 442
f 455 430 456
f 456 926 455
f 456 925 926
f 457 925 456
f 457 924 925
f 458 924 457
f 458 923 924
f 913 924 923
f 913 923 922
f 922 923 459
f 922 459 434
f 459 438 434
f 434 438 460
f 434 460 432
f 432 460 346
f 432 346 433
f 433 346 345
f 345 346 347
f 352 345 347
f 352 347 353
f 351 345 352
f 351 350 345
f 349 350 351
f 961 350 349
f 962 961 349
f 962 349 963
f 349 825 963
f 963 825 818
f 825 826 818
f 818 826 827
f 818 827 817
f 817 816 818
f 815 816 817
f 815 823 816
f 815 822 823
f 821 822 815
f 821 820 822
f 960 822 820
f 820 958 960
f 820 957 958
f 957 912 958
f 957 942 912
f 948 942 957
f 819 948 957
f 830 948 819
f 819 829 830
f 835 830 829
f 831 830 835
f 831 834 830
f 834 949 830
f 833 949 834
f 833 950 949
f 832 950 833
f 840 950 832
f 840 951 950
f 942 950 951
f 951 952 942
f 841 952 951
f 953 952 841
f 842 953 841
f 841 838 842
f 842 838 837
f 842 837 843
f 843 954 842
f 843 844 954
f 954 844 955
f 845 955 844
f 844 836 845
f 845 956 955
f 954 955 942
f 942 953 954
f 843 836 844
f 843 837 836
f 841 839 838
f 840 839 841
f 840 831 839
f 842 954 953
f 942 952 953
f 841 951 840
f 832 831 840
f 831 832 833
f 942 949 950
f 833 834 831
f 819 828 829
f 821 828 819
f 830 949 948
f 948 949 942
f 912 942 913
f 911 912 913
f 911 959 912
f 911 964 959
f 964 823 959
f 911 963 964
f 922 963 911
f 912 959 960
f 819 957 820
f 912 960 958
f 959 822 960
f 819 820 821
f 959 823 822
f 964 816 823
f 964 818 816
f 825 824 826
f 963 818 964
f 349 824 825
f 922 962 963
f 434 961 962
f 433 961 434
f 433 350 961
f 349 351 824
f 347 346 348
f 584 348 346
f 583 348 584
f 583 582 348
f 581 582 583
f 581 580 582
f 579 580 581
f 436 579 581
f 435 579 436
f 435 439 579
f 435 437 439
f 439 437 440
f 437 444 440
f 444 1159 440
f 444 1158 1159
f 1158 1284 1159
f 1158 1272 1284
f 1157 1272 1158
f 1157 1268 1272
f 1269 1268 1157
f 1157 1153 1269
f 1154 1269 1153
f 1154 1262 1269
f 1155 1262 1154
f 1154 446 1155
f 1154 447 446
f 1156 1262 1155
f 1155 445 1156
f 1156 445 1148
f 1148 1167 1156
f 1148 1168 1167
f 1152 1168 1148
f 1151 1168 1152
f 1151 1175 1168
f 1177 1175 1151
f 451 1152 1148
f 1156 1167 1262
f 1153 447 1154
f 1153 443 447
f 1153 444 443
f 442 447 443
f 442 443 437
f 458 442 437
f 458 437 459
f 1157 444 1153
f 1284 1160 1159
f 1283 1160 1284
f 1283 1282 1160
f 1160 1282 586
f 587 586 1282
f 590 587 1282
f 590 1282 1305
f 591 590 1305
f 589 590 591
f 589 591 588
f 588 591 355
f 1280 355 591
f 1280 591 1281
f 1274 1280 1281
f 1272 1274 1281
f 1272 1281 1284
f 1284 1281 1283
f 1281 1282 1283
f 1271 1274 1272
f 1268 1271 1272
f 1268 1270 1271
f 1267 1270 1268
f 1267 1268 1261
f 1261 1268 1269
f 1261 1269 1262
f 1260 1261 1262
f 1260 1262 1263
f 1262 1266 1263
f 1262 1265 1266
f 1265 1316 1266
f 1265 1308 1316
f 1264 1308 1265
f 1308 1264 1169
f 1308 1169 1309
f 1306 1308 1309
f 1306 1309 1174
f 1306 1174 1176
f 1174 1175 1176
f 1175 1177 1176
f 1176 1177 1178
f 1176 1178 385
f 1176 385 384
f 384 385 386
f 385 396 386
f 385 1179 396
f 396 1179 1180
f 396 1180 397
f 397 1180 395
f 395 1180 1181
f 395 1181 394
f 394 388 395
f 395 388 386
f 387 386 388
f 387 388 389
f 389 388 390
f 390 1335 389
f 389 1335 1336
f 1339 1336 1335
f 1332 1336 1339
f 1338 1332 1339
f 1337 1332 1338
f 1337 866 1332
f 866 870 1332
f 870 872 1332
f 872 870 891
f 891 870 868
f 891 868 890
f 890 868 888
f 890 888 889
f 889 884 890
f 879 890 884
f 879 884 882
f 882 884 852
f 882 852 883
f 881 882 883
f 1313 881 883
f 880 881 1313
f 880 1313 878
f 878 1313 1307
f 878 1307 876
f 876 1307 1306
f 876 1306 873
f 873 875 876
f 873 874 875
f 874 872 875
f 874 871 872
f 871 384 872
f 387 872 384
f 387 1336 872
f 1306 384 871
f 873 871 874
f 876 875 877
f 875 891 877
f 1306 871 873
f 876 877 878
f 878 877 879
f 1312 1307 1313
f 1310 1307 1312
f 1310 1311 1307
f 1311 1315 1307
f 1307 1315 1316
f 1307 1316 1308
f 1312 1261 1310
f 1310 1261 1311
f 1260 1311 1261
f 1260 1315 1311
f 1312 1267 1261
f 1314 1267 1312
f 1314 1270 1267
f 1319 1270 1314
f 1319 1271 1270
f 1318 1271 1319
f 1318 1274 1271
f 1317 1274 1318
f 1317 1275 1274
f 1322 1275 1317
f 1322 1276 1275
f 1321 1276 1322
f 1312 1313 1314
f 1313 1319 1314
f 1313 1318 1319
f 1317 1318 1313
f 1317 1313 1322
f 1322 1313 1323
f 1322 1323 1320
f 1320 1323 856
f 1320 856 855
f 361 1320 855
f 363 361 855
f 361 363 362
f 360 361 362
f 360 359 361
f 357 359 360
f 357 358 359
f 356 358 357
f 356 1273 358
f 358 1273 1278
f 1275 1278 1273
f 1275 1277 1278
f 1276 1277 1275
f 361 1277 1276
f 1276 1321 361
f 359 1278 1277
f 1273 1274 1275
f 1273 1279 1274
f 356 1279 1273
f 355 1279 356
f 354 355 356
f 354 356 357
f 358 1278 359
f 359 1277 361
f 362 363 364
f 362 364 365
f 365 364 366
f 855 364 363
f 361 1321 1320
f 1323 892 856
f 892 854 856
f 883 854 892
f 1323 883 892
f 1320 1321 1322
f 878 879 880
f 880 879 881
f 1313 883 1323
f 881 879 882
f 877 890 879
f 889 885 884
f 865 884 885
f 886 885 889
f 889 887 886
f 886 887 33
f 33 887 34
f 34 887 53
f 887 52 53
f 887 51 52
f 888 51 887
f 888 49 51
f 888 47 49
f 47 48 49
f 48 47 56
f 65 48 56
f 46 48 65
f 48 46 50
f 50 46 45
f 50 45 52
f 36 45 46
f 36 38 45
f 38 32 45
f 45 32 31
f 45 31 53
f 53 31 30
f 30 31 19
f 19 23 30
f 6 23 19
f 6 22 23
f 8 22 6
f 8 21 22
f 33 22 21
f 30 22 33
f 33 21 20
f 9 20 21
f 3 20 9
f 886 20 3
f 9 21 8
f 8 1 9
f 8 7 1
f 7 341 1
f 7 340 341
f 341 340 1094
f 1094 344 341
f 1094 343 344
f 343 1 344
f 342 343 1094
f 342 333 343
f 864 342 1094
f 1094 337 864
f 864 337 336
f 864 336 335
f 337 11 336
f 337 338 11
f 11 338 339
f 11 339 12
f 10 11 12
f 10 12 4
f 4 12 5
f 4 5 6
f 6 5 7
f 18 10 4
f 18 4 19
f 19 29 18
f 18 29 24
f 18 24 16
f 16 24 17
f 16 17 14
f 24 25 17
f 25 28 17
f 28 710 17
f 28 740 710
f 27 740 28
f 27 739 740
f 27 737 739
f 26 737 27
f 732 737 26
f 732 26 35
f 732 35 733
f 733 932 732
f 733 933 932
f 734 933 733
f 734 934 933
f 933 934 929
f 929 934 935
f 929 935 928
f 935 626 928
f 626 935 735
f 735 55 626
f 626 55 627
f 627 55 62
f 627 62 628
f 731 627 628
f 628 729 731
f 628 629 729
f 628 93 629
f 629 93 73
f 73 93 71
f 71 93 94
f 71 94 69
f 69 70 71
f 70 80 71
f 71 80 78
f 71 78 72
f 72 78 76
f 77 76 78
f 77 78 79
f 77 79 96
f 96 97 77
f 77 97 98
f 103 98 97
f 97 135 103
f 97 122 135
f 617 135 122
f 616 135 617
f 617 720 616
f 616 720 726
f 616 726 615
f 615 726 725
f 615 725 614
f 614 98 615
f 75 98 614
f 633 75 614
f 632 75 633
f 633 717 632
f 632 717 716
f 632 716 631
f 631 716 727
f 631 727 630
f 630 73 631
f 631 73 72
f 728 630 727
f 727 715 728
f 728 715 729
f 729 715 730
f 715 897 730
f 715 686 897
f 686 715 683
f 686 683 687
f 687 683 685
f 683 684 685
f 703 685 684
f 705 685 703
f 703 704 705
f 705 704 706
f 704 722 706
f 621 706 722
f 621 722 622
f 127 621 622
f 126 621 127
f 125 126 127
f 120 125 127
f 120 127 118
f 118 119 120
f 120 119 121
f 119 624 121
f 121 624 625
f 121 625 618
f 618 625 719
f 618 719 617
f 625 718 719
f 625 721 718
f 718 721 704
f 718 704 719
f 719 704 714
f 719 714 720
f 618 122 121
f 624 721 625
f 624 722 721
f 623 722 624
f 119 623 624
f 120 121 122
f 130 120 122
f 131 120 130
f 130 104 131
f 131 104 129
f 131 129 105
f 105 134 131
f 105 133 134
f 107 133 105
f 105 106 107
f 105 128 106
f 106 128 115
f 106 115 108
f 108 115 132
f 665 132 115
f 667 132 665
f 665 666 667
f 665 112 666
f 665 114 112
f 113 112 114
f 113 114 115
f 111 112 113
f 113 129 111
f 113 128 129
f 111 110 112
f 109 110 111
f 109 116 110
f 110 116 117
f 116 100 117
f 117 100 99
f 668 117 99
f 99 662 668
f 661 668 662
f 661 667 668
f 672 667 661
f 661 676 672
f 672 676 677
f 672 677 670
f 670 677 1349
f 670 1349 1351
f 1351 1349 1330
f 1349 1331 1330
f 1349 1340 1331
f 1350 1340 1349
f 1350 1338 1340
f 1339 1331 1340
f 1334 1331 1339
f 1334 1329 1331
f 1333 1329 1334
f 392 1333 1334
f 392 498 1333
f 1333 498 1342
f 1333 1342 1344
f 1343 1333 1344
f 1343 1344 1351
f 1351 1344 1352
f 1344 1347 1352
f 1352 1347 1348
f 1352 1348 1353
f 1353 1348 1010
f 1353 1010 1009
f 750 1353 1009
f 750 1009 751
f 757 751 1009
f 757 741 751
f 757 742 741
f 246 742 757
f 246 222 742
f 245 222 246
f 245 246 248
f 245 248 244
f 244 213 245
f 243 213 244
f 243 210 213
f 212 213 210
f 210 209 212
f 212 209 234
f 209 230 234
f 234 230 228
f 234 228 235
f 220 234 235
f 220 235 218
f 218 219 220
f 220 219 221
f 220 221 212
f 212 221 222
f 744 221 219
f 744 219 217
f 215 744 217
f 208 744 215
f 744 208 749
f 749 208 207
f 749 207 193
f 193 190 749
f 193 169 190
f 190 169 171
f 169 170 171
f 170 172 171
f 171 172 174
f 172 173 174
f 203 173 172
f 200 173 203
f 202 200 203
f 202 203 204
f 204 203 205
f 204 205 206
f 206 205 207
f 169 207 205
f 214 204 206
f 214 223 204
f 216 223 214
f 216 236 223
f 218 236 216
f 216 217 218
f 236 224 223
f 223 224 201
f 223 201 202
f 224 199 201
f 199 224 225
f 225 224 226
f 225 226 227
f 652 225 227
f 651 225 652
f 812 651 652
f 812 652 810
f 774 812 810
f 810 805 774
f 774 805 807
f 805 806 807
f 807 806 808
f 807 808 809
f 654 809 808
f 655 809 654
f 655 803 809
f 804 803 655
f 656 804 655
f 655 233 656
f 656 233 237
f 237 233 211
f 239 237 211
f 238 237 239
f 642 237 238
f 642 238 643
f 643 794 642
f 794 643 795
f 794 795 796
f 769 794 796
f 769 796 770
f 768 769 770
f 768 770 1034
f 1034 762 768
f 762 764 768
f 762 763 764
f 763 766 764
f 764 766 765
f 764 765 773
f 773 774 764
f 764 774 775
f 764 775 769
f 775 803 769
f 773 772 774
f 772 811 774
f 772 650 811
f 811 650 651
f 650 197 651
f 649 197 650
f 649 185 197
f 197 185 198
f 198 185 184
f 198 184 200
f 199 198 200
f 184 185 186
f 174 184 186
f 174 186 191
f 191 186 188
f 191 188 192
f 188 639 192
f 188 638 639
f 779 639 638
f 779 638 780
f 780 638 637
f 780 637 636
f 187 636 637
f 187 637 188
f 635 636 187
f 187 185 635
f 635 781 636
f 771 781 635
f 771 761 781
f 761 780 781
f 773 761 771
f 771 635 772
f 772 635 649
f 636 781 780
f 761 779 780
f 778 779 761
f 761 777 778
f 777 640 778
f 778 640 639
f 777 776 640
f 640 776 760
f 760 776 761
f 759 760 761
f 696 759 761
f 782 759 696
f 696 695 782
f 606 782 695
f 605 606 695
f 605 695 607
f 605 607 161
f 161 607 608
f 607 680 608
f 608 680 609
f 680 700 609
f 609 700 699
f 609 699 610
f 699 698 610
f 698 699 682
f 682 709 698
f 682 708 709
f 702 708 682
f 701 702 682
f 612 702 701
f 612 701 613
f 154 612 613
f 611 612 154
f 157 611 154
f 157 610 611
f 610 709 611
f 154 156 157
f 157 156 158
f 168 158 156
f 168 156 143
f 143 149 168
f 168 149 151
f 168 151 167
f 167 151 150
f 167 150 166
f 166 160 167
f 167 160 158
f 159 158 160
f 159 160 161
f 161 160 162
f 161 162 163
f 163 162 164
f 605 163 164
f 162 196 164
f 181 196 162
f 162 165 181
f 181 165 182
f 181 182 183
f 183 195 181
f 195 192 181
f 183 194 195
f 189 194 183
f 183 176 189
f 183 178 176
f 177 176 178
f 175 176 177
f 749 175 177
f 748 749 177
f 748 177 179
f 179 180 748
f 748 180 674
f 180 144 674
f 145 144 180
f 144 145 146
f 146 145 147
f 146 147 148
f 147 150 148
f 146 148 669
f 669 148 152
f 152 153 669
f 669 153 142
f 669 142 667
f 153 141 142
f 153 149 141
f 149 140 141
f 140 108 141
f 140 107 108
f 139 107 140
f 138 107 139
f 138 139 143
f 143 155 138
f 138 155 137
f 137 155 154
f 154 136 137
f 136 123 137
f 136 124 123
f 123 124 125
f 125 124 126
f 124 620 126
f 124 619 620
f 613 619 124
f 701 620 619
f 707 620 701
f 707 706 620
f 682 706 707
f 134 123 125
f 124 136 613
f 137 123 133
f 137 133 138
f 139 140 143
f 141 132 142
f 152 149 153
f 148 151 152
f 674 146 669
f 674 669 672
f 672 673 674
f 672 671 673
f 671 755 673
f 673 755 754
f 753 754 755
f 753 755 1351
f 1351 755 756
f 1351 756 747
f 747 756 671
f 671 670 747
f 753 752 754
f 748 754 752
f 750 752 753
f 750 743 752
f 743 745 752
f 743 746 745
f 742 746 743
f 742 221 746
f 744 745 746
f 752 745 749
f 741 743 750
f 673 754 748
f 671 756 755
f 165 147 145
f 166 147 165
f 144 146 674
f 748 674 673
f 180 179 145
f 145 179 178
f 182 145 178
f 752 749 748
f 177 178 179
f 189 176 175
f 189 175 190
f 189 171 194
f 194 191 195
f 182 178 183
f 165 145 182
f 165 162 166
f 181 192 196
f 634 196 192
f 634 192 640
f 164 196 634
f 164 634 606
f 634 759 606
f 166 162 160
f 166 150 147
f 148 150 151
f 152 151 149
f 143 140 149
f 143 156 155
f 167 158 168
f 157 158 159
f 159 609 157
f 154 155 156
f 611 708 612
f 154 613 136
f 701 619 613
f 682 707 701
f 708 702 612
f 611 709 708
f 610 698 709
f 609 610 157
f 682 699 700
f 682 700 680
f 680 681 682
f 681 695 682
f 159 608 609
f 607 681 680
f 161 608 159
f 161 163 605
f 695 681 607
f 605 164 606
f 682 695 696
f 682 696 697
f 697 693 682
f 682 693 690
f 692 690 693
f 692 693 694
f 693 767 694
f 693 765 767
f 767 908 694
f 767 906 908
f 906 907 908
f 895 907 906
f 905 895 906
f 1036 905 906
f 904 905 1036
f 904 1036 543
f 543 1036 1037
f 1044 1037 1036
f 1044 1036 1045
f 766 1044 1045
f 766 1045 767
f 1034 1044 766
f 1034 1039 1044
f 1040 1039 1034
f 1039 1040 1041
f 1040 1083 1041
f 1041 1083 546
f 1041 546 513
f 513 546 547
f 513 547 514
f 514 547 548
f 547 554 548
f 547 553 554
f 549 553 547
f 549 552 553
f 1107 553 552
f 1107 552 1099
f 1099 552 1100
f 1100 552 551
f 1100 551 1101
f 1101 551 559
f 1101 559 1102
f 1102 1201 1101
f 1102 1205 1201
f 1097 1205 1102
f 1205 1097 1209
f 1209 1097 1098
f 1097 556 1098
f 1098 556 555
f 555 556 557
f 557 562 555
f 557 561 562
f 560 561 557
f 560 565 561
f 561 565 1095
f 1095 565 564
f 1095 564 1166
f 1166 1211 1095
f 1095 1211 1214
f 1095 1214 1096
f 1210 1096 1214
f 1210 1098 1096
f 1166 601 1211
f 601 1217 1211
f 601 600 1217
f 1217 600 604
f 1217 604 1218
f 604 1221 1218
f 1212 1218 1221
f 1212 1221 1219
f 603 1219 1221
f 602 1219 603
f 1219 602 1220
f 1220 602 497
f 497 602 470
f 470 496 497
f 470 495 496
f 495 1224 496
f 496 1224 1223
f 1212 1223 1224
f 1212 1222 1223
f 1220 1222 1212
f 496 1223 1222
f 495 1328 1224
f 1025 1328 495
f 495 494 1025
f 1025 494 1026
f 1026 494 492
f 493 492 494
f 493 494 469
f 469 494 468
f 491 492 493
f 491 490 492
f 1027 492 490
f 1027 490 1030
f 1027 1030 1028
f 1018 1027 1028
f 1018 1028 1019
f 1019 1028 1029
f 1028 1031 1029
f 1029 1031 1032
f 1029 1032 1015
f 1015 1032 1033
f 1032 476 1033
f 1033 476 473
f 476 477 473
f 473 477 478
f 473 478 471
f 471 472 473
f 324 472 471
f 985 324 471
f 322 324 985
f 984 322 985
f 984 315 322
f 315 316 322
f 315 314 316
f 316 314 313
f 316 313 317
f 317 326 316
f 316 326 327
f 316 327 323
f 323 327 1093
f 1093 324 323
f 1093 473 324
f 326 1093 327
f 325 1093 326
f 325 330 1093
f 330 331 1093
f 330 328 331
f 331 328 332
f 328 1015 332
f 328 321 1015
f 320 321 328
f 311 321 320
f 310 321 311
f 307 310 311
f 307 311 306
f 306 296 307
f 307 296 305
f 296 295 305
f 295 296 291
f 291 296 297
f 291 297 289
f 303 289 297
f 303 297 306
f 306 312 303
f 303 312 304
f 303 304 294
f 294 304 300
f 294 300 293
f 293 300 302
f 300 301 302
f 302 301 784
f 784 301 314
f 813 784 314
f 785 784 813
f 785 813 1084
f 1084 813 814
f 1084 814 982
f 982 814 314
f 982 314 983
f 1061 982 983
f 1061 983 984
f 1061 984 1062
f 1061 1062 1053
f 1087 1061 1053
f 1087 1068 1061
f 1068 1085 1061
f 1068 1084 1085
f 1067 1084 1068
f 1067 1068 1069
f 1069 1068 1070
f 1069 1070 1071
f 1070 1074 1071
f 1070 1073 1074
f 1072 1073 1070
f 1076 1072 1070
f 1075 1072 1076
f 792 1072 1075
f 792 1075 648
f 648 1075 1077
f 1077 647 648
f 647 252 648
f 648 252 250
f 251 250 252
f 270 251 252
f 271 251 270
f 271 249 251
f 272 249 271
f 264 272 271
f 263 272 264
f 263 262 272
f 260 262 263
f 248 260 263
f 757 260 248
f 757 261 260
f 758 261 757
f 757 1011 758
f 757 1010 1011
f 1011 1013 758
f 758 1013 280
f 758 280 273
f 280 253 273
f 273 253 261
f 261 253 255
f 261 255 262
f 262 255 257
f 255 256 257
f 255 254 256
f 279 256 254
f 278 256 279
f 278 258 256
f 277 258 278
f 276 258 277
f 276 259 258
f 249 258 259
f 249 259 250
f 275 250 259
f 274 250 275
f 274 275 281
f 281 275 276
f 281 276 298
f 287 281 298
f 287 298 290
f 290 298 283
f 290 283 291
f 291 283 285
f 283 284 285
f 285 284 999
f 999 998 285
f 998 999 1000
f 1000 1014 998
f 998 1014 1016
f 998 1016 309
f 309 305 998
f 308 305 309
f 308 309 310
f 309 1016 310
f 1014 1015 1016
f 1014 1019 1015
f 1014 1017 1019
f 997 1017 1014
f 997 1023 1017
f 996 1023 997
f 995 996 997
f 1326 996 995
f 1002 1326 995
f 1002 995 1024
f 1024 1004 1002
f 1002 1004 1003
f 1002 1003 1001
f 1001 505 1002
f 503 505 1001
f 503 1001 1345
f 1345 1001 1005
f 1345 1005 1346
f 1341 1345 1346
f 1347 1341 1346
f 1346 1005 1007
f 1346 1007 1008
f 1348 1346 1008
f 1348 1008 1011
f 1008 1006 1011
f 1007 1006 1008
f 1005 1006 1007
f 1005 1004 1006
f 1341 503 1345
f 501 503 1341
f 501 1341 500
f 500 1341 1342
f 500 499 501
f 498 499 500
f 498 391 499
f 391 510 499
f 499 510 511
f 499 511 508
f 508 511 1183
f 1184 508 1183
f 507 508 1184
f 507 502 508
f 507 504 502
f 506 504 507
f 1172 506 507
f 1172 1171 506
f 506 1171 1185
f 506 1185 1186
f 1186 1189 506
f 1325 506 1189
f 1325 1189 1291
f 1291 1292 1325
f 1292 1302 1325
f 1325 1302 1301
f 1325 1301 1300
f 1300 1299 1325
f 1325 1299 1298
f 1325 1298 1326
f 1326 1298 1290
f 1326 1290 1293
f 1293 1294 1326
f 1326 1294 1295
f 1295 1296 1326
f 1326 1296 1297
f 1326 1297 1327
f 1327 1023 1326
f 1327 1022 1023
f 1021 1022 1327
f 1324 1021 1327
f 1020 1021 1324
f 1020 1018 1021
f 1021 1018 1017
f 1020 1026 1018
f 1020 1324 1328
f 1328 1324 1288
f 1328 1288 1289
f 1324 1287 1288
f 1324 1286 1287
f 1327 1286 1324
f 1327 1285 1286
f 1304 1285 1327
f 1327 1303 1304
f 1021 1017 1022
f 1327 1297 1303
f 1186 1188 1189
f 1187 1188 1186
f 1187 1199 1188
f 1187 1198 1199
f 1194 1198 1187
f 1194 1197 1198
f 1193 1197 1194
f 1193 1194 1195
f 1195 1194 1190
f 1195 1190 1196
f 1196 1190 1192
f 1190 1191 1192
f 1191 1190 1200
f 1200 1190 1201
f 1200 1201 1202
f 1201 1207 1202
f 1201 1206 1207
f 1205 1206 1201
f 1205 1204 1206
f 1203 1204 1205
f 1203 1205 1208
f 1208 1205 1209
f 1208 1209 1210
f 1210 1216 1208
f 1210 1215 1216
f 1214 1215 1210
f 1214 1213 1215
f 1211 1213 1214
f 1211 1212 1213
f 1170 1171 1172
f 1172 1229 1170
f 1172 1228 1229
f 1184 1228 1172
f 1184 1227 1228
f 1226 1227 1184
f 1184 1225 1226
f 504 506 1325
f 505 504 1325
f 503 502 504
f 1172 507 1184
f 1184 1183 1225
f 1225 1183 1232
f 1239 1232 1183
f 1239 1183 1240
f 1240 1183 1182
f 1183 510 1182
f 1182 510 509
f 1182 509 393
f 393 509 391
f 393 391 394
f 394 1182 393
f 1240 1182 1241
f 1182 1244 1241
f 1182 1243 1244
f 1242 1243 1182
f 1182 1256 1242
f 1182 1255 1256
f 1181 1255 1182
f 1181 1254 1255
f 1253 1254 1181
f 1181 1252 1253
f 1181 1251 1252
f 1250 1251 1181
f 1181 1249 1250
f 1181 1248 1249
f 1245 1248 1181
f 1245 1181 1246
f 1246 1181 1247
f 1181 1259 1247
f 1181 1258 1259
f 1235 1232 1239
f 1235 1236 1232
f 1232 1236 1237
f 1232 1237 1230
f 1230 1231 1232
f 1232 1231 1233
f 1232 1233 1234
f 1238 1232 1234
f 1225 1232 1238
f 508 502 499
f 1183 511 510
f 391 509 510
f 501 499 502
f 501 502 503
f 503 504 505
f 505 1325 1002
f 1001 1003 1005
f 1003 1004 1005
f 1024 1006 1004
f 1000 1006 1024
f 1000 1012 1006
f 1006 1012 1013
f 1013 1012 284
f 1024 997 1000
f 1002 1325 1326
f 1024 995 997
f 1326 1023 996
f 1022 1017 1023
f 1000 997 1014
f 999 1012 1000
f 998 295 285
f 999 284 1012
f 279 284 283
f 280 284 279
f 278 283 298
f 289 287 290
f 288 287 289
f 294 287 288
f 282 281 287
f 286 282 287
f 293 286 287
f 292 286 293
f 299 292 293
f 299 789 292
f 789 790 292
f 788 790 789
f 1071 790 788
f 790 1071 791
f 286 790 791
f 786 788 789
f 783 788 786
f 302 783 786
f 302 786 299
f 783 787 788
f 787 1069 788
f 785 787 783
f 785 1067 787
f 786 789 299
f 292 790 286
f 286 791 282
f 793 282 791
f 792 282 793
f 792 274 282
f 791 1074 793
f 281 282 274
f 257 258 249
f 275 259 276
f 298 276 277
f 298 277 278
f 279 283 278
f 279 254 280
f 257 256 258
f 253 254 255
f 280 254 253
f 1013 284 280
f 1011 1006 1013
f 758 273 261
f 260 261 262
f 262 257 272
f 244 263 264
f 264 271 265
f 265 241 264
f 264 241 242
f 264 242 243
f 241 210 242
f 241 211 210
f 240 211 241
f 265 240 241
f 239 240 265
f 265 266 239
f 265 271 266
f 272 257 249
f 270 266 271
f 270 267 266
f 269 267 270
f 645 267 269
f 645 269 646
f 646 269 252
f 646 799 645
f 645 799 798
f 645 798 644
f 644 798 797
f 644 797 795
f 797 798 796
f 644 268 645
f 644 247 268
f 643 247 644
f 239 268 247
f 239 266 268
f 796 798 799
f 796 799 800
f 800 799 801
f 801 1078 800
f 1077 1078 801
f 1077 1076 1078
f 1076 1091 1078
f 1076 1092 1091
f 1086 1092 1076
f 1086 1088 1092
f 1087 1088 1086
f 1087 1055 1088
f 1055 1051 1088
f 1088 1051 1066
f 1051 1047 1066
f 573 1066 1047
f 573 1047 571
f 571 572 573
f 571 570 572
f 569 570 571
f 569 463 570
f 570 463 465
f 465 467 570
f 570 467 596
f 570 596 1163
f 1163 596 597
f 1163 597 566
f 566 597 594
f 566 594 567
f 566 567 560
f 560 567 568
f 560 568 563
f 563 564 560
f 563 1165 564
f 563 1164 1165
f 1164 601 1165
f 1164 592 601
f 593 592 1164
f 592 593 594
f 592 594 595
f 568 593 1164
f 568 1164 563
f 567 593 568
f 560 573 566
f 560 578 573
f 567 594 593
f 597 595 594
f 566 572 1163
f 596 595 597
f 596 466 595
f 467 466 596
f 465 466 467
f 465 464 466
f 463 464 465
f 463 462 464
f 461 462 463
f 974 462 461
f 973 462 974
f 973 972 462
f 972 493 462
f 462 493 469
f 468 462 469
f 462 468 464
f 464 468 470
f 464 470 466
f 466 470 595
f 595 470 598
f 598 599 595
f 595 599 600
f 595 600 592
f 592 600 601
f 972 491 493
f 489 491 972
f 489 972 488
f 488 972 971
f 488 971 967
f 488 967 486
f 485 486 967
f 485 967 483
f 483 967 966
f 483 966 481
f 481 966 977
f 481 977 479
f 479 977 474
f 474 977 979
f 474 979 475
f 992 475 979
f 992 477 475
f 991 477 992
f 991 478 477
f 989 478 991
f 987 478 989
f 987 471 478
f 968 972 973
f 1048 968 973
f 1048 973 1046
f 1046 1047 1048
f 1048 1047 1049
f 1049 1047 1050
f 1049 1050 969
f 969 1050 970
f 970 1050 1052
f 970 1052 965
f 965 1052 1057
f 965 1057 1056
f 1051 1056 1057
f 1056 975 965
f 1056 976 975
f 1054 976 1056
f 1055 1054 1056
f 1053 1054 1055
f 1053 1060 1054
f 1060 978 1054
f 1060 980 978
f 979 978 980
f 977 978 979
f 977 976 978
f 966 976 977
f 979 980 981
f 979 981 992
f 992 981 993
f 1058 993 981
f 1058 981 1059
f 1058 1059 1053
f 1053 1065 1058
f 1053 1064 1065
f 1064 988 1065
f 988 990 1065
f 1065 990 994
f 991 994 990
f 990 989 991
f 991 993 994
f 988 989 990
f 988 987 989
f 986 987 988
f 986 471 987
f 1064 986 988
f 1063 986 1064
f 1063 985 986
f 1062 985 1063
f 1063 1064 1053
f 1065 994 1058
f 1059 981 1060
f 994 993 1058
f 992 993 991
f 1060 981 980
f 1053 1059 1060
f 1054 978 976
f 966 975 976
f 965 975 966
f 965 966 967
f 1051 1057 1052
f 967 970 965
f 1050 1051 1052
f 967 969 970
f 968 969 967
f 967 971 968
f 1049 969 1048
f 969 968 1048
f 968 971 972
f 1046 973 974
f 1046 974 461
f 461 569 1046
f 463 569 461
f 569 571 1046
f 1163 572 570
f 566 573 572
f 1046 571 1047
f 578 1066 573
f 1066 578 577
f 557 577 578
f 550 577 557
f 550 576 577
f 549 576 550
f 549 575 576
f 1081 576 575
f 1081 575 1082
f 1082 575 574
f 1082 574 1083
f 1083 1089 1082
f 1082 1089 1090
f 1079 1090 1089
f 1079 1089 1040
f 1040 1043 1079
f 1079 1043 1042
f 1034 1042 1043
f 1035 1042 1034
f 1079 1042 1035
f 796 1079 1035
f 796 1078 1079
f 1078 1090 1079
f 547 574 575
f 1082 1090 1081
f 1081 1090 1091
f 1081 1091 1080
f 1080 576 1081
f 549 550 551
f 1080 577 576
f 557 558 550
f 550 558 559
f 1097 559 558
f 1080 1066 577
f 1050 1047 1051
f 1088 1066 1080
f 1055 1056 1051
f 1080 1092 1088
f 1080 1091 1092
f 1078 1091 1090
f 800 1078 796
f 646 801 799
f 647 801 646
f 268 267 645
f 266 267 268
f 270 252 269
f 249 250 251
f 648 250 274
f 646 252 647
f 801 647 1077
f 648 274 792
f 793 1072 792
f 1075 1076 1077
f 1076 1070 1086
f 793 1073 1072
f 1074 1073 793
f 791 1071 1074
f 788 1069 1071
f 1086 1070 1068
f 787 1067 1069
f 1086 1068 1087
f 1053 1055 1087
f 1053 1062 1063
f 1085 982 1061
f 1085 1084 982
f 1084 1067 785
f 783 784 785
f 813 314 814
f 784 783 302
f 300 314 301
f 293 302 299
f 293 287 294
f 304 313 300
f 294 288 303
f 304 312 313
f 288 289 303
f 289 290 291
f 291 285 295
f 998 305 295
f 307 305 308
f 306 297 296
f 306 311 312
f 319 312 311
f 318 312 319
f 317 312 318
f 318 325 317
f 318 319 325
f 325 319 320
f 325 320 329
f 329 320 330
f 308 310 307
f 1016 321 310
f 319 311 320
f 1016 1015 321
f 330 320 328
f 1093 331 332
f 1093 332 1033
f 329 330 325
f 317 325 326
f 317 313 312
f 300 313 314
f 983 314 315
f 322 316 323
f 983 315 984
f 1062 984 985
f 322 323 324
f 985 471 986
f 473 472 324
f 476 475 477
f 474 475 476
f 474 476 479
f 479 476 480
f 479 480 481
f 481 480 482
f 482 480 1032
f 481 482 483
f 483 482 484
f 483 484 485
f 485 484 486
f 486 484 487
f 487 484 1031
f 1030 487 1031
f 486 487 488
f 488 487 489
f 489 487 490
f 1031 484 482
f 1033 473 1093
f 1032 480 476
f 1015 1033 332
f 1031 482 1032
f 1019 1029 1015
f 1017 1018 1019
f 1026 1027 1018
f 1028 1030 1031
f 1030 490 487
f 489 490 491
f 1026 492 1027
f 1020 1025 1026
f 468 494 495
f 1328 1025 1020
f 1328 1289 1224
f 468 495 470
f 1222 497 496
f 1220 497 1222
f 470 602 603
f 470 603 598
f 598 603 604
f 598 604 599
f 1219 1220 1212
f 1211 1218 1212
f 1211 1217 1218
f 603 1221 604
f 600 599 604
f 1165 601 1166
f 1166 564 1165
f 561 1095 1096
f 560 564 565
f 557 578 560
f 1096 562 561
f 1096 555 562
f 557 556 558
f 1098 555 1096
f 1097 558 556
f 1209 1098 1210
f 1101 1201 1190
f 1102 559 1097
f 550 559 551
f 1101 1190 1100
f 1100 1190 1194
f 1100 1194 1099
f 1099 1194 1187
f 1099 1187 1107
f 1107 1187 1103
f 1103 554 1107
f 1103 1187 1186
f 1103 1186 1104
f 1103 1104 545
f 545 548 1103
f 545 1104 534
f 534 1104 1105
f 534 1105 1106
f 1105 1171 1106
f 1105 1185 1171
f 1106 1171 1109
f 1109 533 1106
f 1109 531 533
f 1108 531 1109
f 535 531 1108
f 531 535 532
f 532 535 536
f 532 536 537
f 537 538 532
f 532 538 539
f 532 539 540
f 539 1122 540
f 539 1127 1122
f 1127 1228 1122
f 1228 1227 1122
f 1122 1227 1226
f 1122 1226 1123
f 1123 522 1122
f 522 521 1122
f 521 522 518
f 522 523 518
f 1119 523 522
f 524 523 1119
f 524 1119 525
f 525 1119 1120
f 1119 1225 1120
f 1120 1225 1238
f 1120 1238 1121
f 1121 1238 1234
f 1121 1234 1118
f 526 1121 1118
f 1118 527 526
f 518 526 527
f 518 527 528
f 1117 528 527
f 529 528 1117
f 1116 529 1117
f 1117 1231 1116
f 1116 1231 1230
f 1116 1230 1115
f 1115 1230 1237
f 1115 1237 1114
f 1114 530 1115
f 1114 519 530
f 518 530 519
f 518 529 530
f 518 519 515
f 515 519 520
f 1113 520 519
f 516 520 1113
f 1112 516 1113
f 1112 517 516
f 1111 517 1112
f 1112 1239 1111
f 1111 1239 1240
f 1111 1240 1110
f 1145 1110 1240
f 398 1110 1145
f 425 1110 398
f 425 398 424
f 424 517 425
f 424 398 400
f 1240 1241 1145
f 1110 425 1111
f 1112 1235 1239
f 1111 425 517
f 424 516 517
f 515 516 424
f 515 424 423
f 423 542 515
f 515 542 541
f 542 543 541
f 541 543 544
f 541 544 512
f 544 1038 512
f 544 1037 1038
f 1039 1038 1037
f 1041 512 1038
f 514 541 512
f 514 532 541
f 518 541 532
f 534 532 514
f 533 532 534
f 542 423 904
f 423 422 904
f 904 422 895
f 895 422 893
f 893 894 895
f 894 909 895
f 894 903 909
f 903 898 909
f 909 898 688
f 898 687 688
f 909 688 689
f 909 689 907
f 907 689 691
f 907 691 692
f 689 690 691
f 689 685 690
f 688 685 689
f 893 903 894
f 422 423 424
f 1113 1235 1112
f 1113 1236 1235
f 1114 1236 1113
f 515 520 516
f 515 541 518
f 1113 519 1114
f 1114 1237 1236
f 1115 530 1116
f 1117 1233 1231
f 1118 1233 1117
f 1116 530 529
f 528 529 518
f 525 526 518
f 1117 527 1118
f 1118 1234 1233
f 526 1120 1121
f 1123 1225 1119
f 525 1120 526
f 518 524 525
f 518 523 524
f 518 532 521
f 1119 522 1123
f 1123 1226 1225
f 1127 1229 1228
f 1126 1229 1127
f 538 1126 1127
f 1125 1229 1126
f 1124 1229 1125
f 536 1124 1125
f 1108 1124 536
f 1108 1170 1124
f 1124 1170 1229
f 537 1125 1126
f 540 1122 521
f 521 532 540
f 538 1127 539
f 537 1126 538
f 536 1125 537
f 535 1108 536
f 1109 1170 1108
f 531 532 533
f 1109 1171 1170
f 1106 533 534
f 1104 1185 1105
f 545 534 514
f 1104 1186 1185
f 551 552 549
f 547 575 549
f 554 553 1107
f 1103 548 554
f 514 548 545
f 512 513 514
f 546 574 547
f 513 512 1041
f 1083 574 546
f 1040 1089 1083
f 1041 1038 1039
f 1034 1043 1040
f 1039 1037 1044
f 543 1037 544
f 542 904 543
f 1045 1036 906
f 904 895 905
f 895 909 907
f 1045 906 767
f 907 694 908
f 692 694 907
f 691 690 692
f 682 690 705
f 697 765 693
f 697 761 765
f 606 759 782
f 696 761 697
f 634 760 759
f 640 760 634
f 761 776 777
f 778 639 779
f 637 638 188
f 640 192 639
f 195 191 192
f 186 187 188
f 194 174 191
f 186 185 187
f 197 198 199
f 635 185 649
f 772 649 650
f 771 772 773
f 773 765 761
f 765 766 767
f 766 763 1034
f 1034 763 762
f 1034 770 1035
f 768 764 769
f 1035 770 796
f 802 794 769
f 769 804 802
f 641 802 804
f 642 802 641
f 796 795 797
f 795 643 644
f 642 794 802
f 643 238 247
f 641 237 642
f 247 238 239
f 239 211 240
f 211 233 232
f 231 232 233
f 231 230 232
f 229 230 231
f 654 229 231
f 653 229 654
f 806 653 654
f 653 227 229
f 227 228 229
f 211 232 209
f 656 237 641
f 655 231 233
f 656 641 804
f 769 803 804
f 775 809 803
f 654 231 655
f 775 807 809
f 654 808 806
f 805 653 806
f 774 807 775
f 810 653 805
f 774 811 812
f 810 652 653
f 811 651 812
f 651 197 225
f 652 227 653
f 227 226 228
f 225 197 199
f 199 200 201
f 236 226 224
f 235 226 236
f 214 215 216
f 206 208 214
f 170 205 203
f 223 202 204
f 201 200 202
f 200 184 173
f 173 184 174
f 171 174 194
f 203 172 170
f 169 205 170
f 190 171 189
f 749 190 175
f 193 207 169
f 206 207 208
f 745 744 749
f 214 208 215
f 216 215 217
f 746 221 744
f 218 217 219
f 218 235 236
f 235 228 226
f 229 228 230
f 209 232 230
f 212 234 220
f 209 210 211
f 212 222 213
f 242 210 243
f 244 264 243
f 248 263 244
f 245 213 222
f 742 222 221
f 248 246 757
f 741 742 743
f 750 751 741
f 753 1353 750
f 1009 1010 757
f 1348 1011 1010
f 753 1352 1353
f 1347 1346 1348
f 1344 1341 1347
f 1351 1352 753
f 1344 1342 1341
f 500 1342 498
f 392 391 498
f 390 391 392
f 1334 390 392
f 1343 1329 1333
f 1330 1329 1343
f 1329 1330 1331
f 1351 1330 1343
f 747 670 1351
f 1349 677 1350
f 670 671 672
f 1350 677 676
f 1350 676 675
f 664 1350 675
f 664 675 661
f 663 664 661
f 663 658 664
f 658 869 664
f 658 657 869
f 657 678 869
f 657 659 678
f 678 659 660
f 659 658 660
f 678 660 83
f 678 83 82
f 82 83 84
f 82 84 85
f 85 84 86
f 85 86 87
f 102 87 86
f 101 87 102
f 101 81 87
f 96 81 101
f 96 101 104
f 80 87 81
f 79 80 81
f 116 101 102
f 102 86 100
f 80 85 87
f 88 85 80
f 100 86 84
f 88 82 85
f 90 82 88
f 88 89 90
f 69 89 88
f 74 89 69
f 74 91 89
f 92 91 74
f 679 91 92
f 678 91 679
f 868 678 679
f 868 679 68
f 68 57 868
f 868 57 47
f 63 57 68
f 92 63 68
f 92 64 63
f 63 64 65
f 65 64 66
f 66 64 74
f 74 67 66
f 58 66 67
f 58 67 59
f 95 59 67
f 95 61 59
f 60 59 61
f 60 61 62
f 94 62 61
f 39 60 62
f 42 60 39
f 44 60 42
f 42 43 44
f 42 41 43
f 25 43 41
f 25 41 35
f 35 41 40
f 39 40 41
f 54 40 39
f 54 39 55
f 35 40 54
f 37 43 25
f 37 44 43
f 36 44 37
f 36 58 44
f 36 65 58
f 44 58 60
f 39 41 42
f 94 61 95
f 58 59 60
f 74 95 67
f 65 66 58
f 63 56 57
f 867 678 868
f 866 867 868
f 678 90 91
f 679 92 68
f 74 64 92
f 69 95 74
f 90 89 91
f 100 84 83
f 82 90 678
f 83 660 663
f 83 663 99
f 869 678 867
f 867 1337 869
f 869 1337 1350
f 657 658 659
f 660 658 663
f 664 869 1350
f 661 675 676
f 672 669 667
f 661 662 663
f 99 663 662
f 83 99 100
f 116 102 100
f 668 110 117
f 666 110 668
f 109 104 116
f 111 104 109
f 666 112 110
f 667 666 668
f 667 142 132
f 115 114 665
f 141 108 132
f 115 128 113
f 107 106 108
f 138 133 107
f 133 123 134
f 130 96 104
f 131 134 120
f 118 623 119
f 118 622 623
f 134 125 120
f 126 620 621
f 127 622 118
f 622 722 623
f 620 706 621
f 704 721 722
f 705 706 682
f 703 714 704
f 703 725 714
f 703 724 725
f 705 690 685
f 684 724 703
f 684 723 724
f 717 723 684
f 614 724 723
f 683 716 684
f 687 685 688
f 898 686 687
f 683 715 716
f 729 630 728
f 727 716 715
f 631 72 632
f 684 716 717
f 633 723 717
f 632 76 75
f 614 723 633
f 614 725 724
f 714 725 726
f 615 103 616
f 714 726 720
f 617 719 720
f 617 122 618
f 130 122 97
f 616 103 135
f 615 98 103
f 77 98 75
f 97 96 130
f 96 79 81
f 75 76 77
f 72 76 632
f 79 78 80
f 70 88 80
f 69 88 70
f 69 94 95
f 93 62 94
f 72 73 71
f 629 73 630
f 729 629 630
f 729 730 731
f 929 731 730
f 928 627 731
f 628 62 93
f 39 62 55
f 735 54 55
f 734 54 735
f 928 626 627
f 928 731 929
f 735 935 934
f 735 934 734
f 733 54 734
f 929 932 933
f 938 732 932
f 931 938 932
f 931 937 938
f 915 937 931
f 937 732 938
f 937 736 732
f 936 736 937
f 733 35 54
f 35 26 25
f 736 737 732
f 26 27 25
f 736 739 737
f 738 739 736
f 740 739 738
f 25 27 28
f 25 24 37
f 16 14 18
f 37 24 29
f 37 29 38
f 19 32 29
f 14 10 18
f 13 10 14
f 13 14 15
f 334 13 15
f 334 11 13
f 848 15 14
f 847 15 848
f 921 847 848
f 11 10 13
f 12 339 5
f 5 339 340
f 339 338 1094
f 336 11 334
f 1094 338 337
f 1094 340 339
f 5 340 7
f 344 1 341
f 6 7 8
f 19 4 6
f 30 23 22
f 19 31 32
f 38 29 32
f 36 37 38
f 65 36 46
f 65 56 63
f 56 47 57
f 49 48 50
f 49 50 51
f 51 50 52
f 52 45 53
f 53 30 34
f 33 34 30
f 886 33 20
f 886 2 885
f 889 888 887
f 868 47 888
f 877 891 890
f 875 872 891
f 866 868 870
f 867 866 1337
f 1337 1338 1350
f 1339 1340 1338
f 1332 872 1336
f 1339 1335 1334
f 1334 1335 390
f 390 388 391
f 389 1336 387
f 394 391 388
f 394 1181 1182
f 1180 1258 1181
f 1180 1257 1258
f 386 397 395
f 1179 1257 1180
f 386 396 397
f 384 386 387
f 385 1178 1179
f 1174 1168 1175
f 1173 1168 1174
f 1169 1168 1173
f 1309 1169 1173
f 1167 1168 1169
f 1176 384 1306
f 1307 1308 1306
f 1169 1264 1167
f 1167 1264 1265
f 1266 1316 1315
f 1167 1265 1262
f 1266 1315 1263
f 1263 1315 1260
f 1274 1279 1280
f 1279 355 1280
f 588 355 354
f 1281 591 1305
f 1305 1282 1281
f 589 587 590
f 1160 586 1161
f 1161 586 585
f 1161 585 1162
f 1162 585 580
f 1161 1162 441
f 441 1162 579
f 440 1161 441
f 440 1160 1161
f 1157 1158 444
f 1159 1160 440
f 437 443 444
f 439 440 441
f 441 579 439
f 435 436 437
f 437 436 438
f 438 436 583
f 1162 580 579
f 436 581 583
f 460 583 584
f 433 345 350
f 460 584 346
f 432 433 434
f 438 583 460
f 459 437 438
f 434 962 922
f 911 913 922
f 941 924 913
f 913 943 941
f 941 943 944
f 459 923 458
f 457 442 458
f 941 925 924
f 940 925 941
f 940 926 925
f 455 926 927
f 939 927 926
f 910 927 939
f 455 927 454
f 454 431 455
f 454 927 900
f 454 900 428
f 454 428 408
f 408 450 454
f 408 448 450
f 453 448 408
f 408 407 453
f 453 407 1146
f 427 408 428
f 456 442 457
f 442 446 447
f 1155 446 445
f 1148 445 429
f 455 431 430
f 1148 429 452
f 1148 452 451
f 454 450 431
f 451 1151 1152
f 1150 1177 1151
f 1150 1178 1177
f 448 449 450
f 1149 1178 1150
f 453 1146 448
f 1149 1179 1178
f 1146 407 1147
f 403 407 408
f 1129 406 405
f 405 404 1130
f 403 418 401
f 1132 401 418
f 403 417 418
f 1133 418 417
f 1130 404 402
f 1130 1259 1258
f 1131 401 1132
f 1132 418 1133
f 1133 417 1134
f 411 413 414
f 412 413 411
f 1138 413 412
f 411 410 412
f 1139 412 410
f 409 410 411
f 1140 410 409
f 411 421 409
f 1137 414 413
f 1135 416 415
f 1250 1135 1251
f 1136 414 1137
f 1137 413 1138
f 1138 412 1139
f 1139 410 1140
f 1140 409 1141
f 1141 409 421
f 1142 1242 1256
f 1143 420 1144
f 1145 1241 1244
f 398 1145 399
f 398 399 400
f 419 1144 420
f 411 420 421
f 424 400 422
f 411 417 403
f 427 403 408
f 893 422 426
f 893 902 903
f 428 900 427
f 902 901 903
f 910 900 927
f 901 899 903
f 903 899 898
f 897 686 898
f 930 730 897
f 910 947 896
f 929 730 930
f 910 946 947
f 931 932 929
f 939 946 910
f 939 926 940
f 941 944 940
f 931 945 915
f 915 936 937
f 713 914 916
f 738 736 936
f 740 738 710
f 14 17 710
f 848 14 711
f 712 713 916
f 921 848 711
f 916 917 918
f 920 847 921
f 917 944 943
f 913 942 943
f 942 955 956
f 920 919 847
f 847 334 15
f 334 335 336
f 846 956 845
f 836 383 845
f 382 864 335
f 379 860 382
f 376 374 377
f 375 374 376
f 373 374 375
f 859 862 374
f 373 372 374
f 371 372 373
f 849 370 368
f 365 366 367
f 855 366 364
f 854 855 856
f 883 852 854
f 849 368 853
f 849 850 851
f 852 884 865
f 857 850 858
f 865 885 863
f 860 861 858
f 382 860 864
f 863 885 2
f 864 333 342
f 343 333 1
f 9 1 3
f 3 2 886
f 104 101 116
f 111 129 104
f 105 129 128
f 357 353 347
f 1309 1173 1174

