# https://github.com/mikedh/trimesh
v 0.01797948 -0.00007209 -0.23724069
v 0.01801674 0.00097793 -0.23696187
v 0.01811966 0.00174662 -0.23620020
v 0.01826069 0.00202803 -0.23515974
v 0.01840202 0.00174677 -0.23411927
v 0.01850577 0.00097815 -0.23335759
v 0.01801787 -0.00112208 -0.23696190
v 0.01812162 -0.00189068 -0.23620023
v 0.01826296 -0.00217196 -0.23515977
v 0.01840398 -0.00189055 -0.23411930
v 0.01850690 -0.00112184 -0.23335761
v 0.01854417 -0.00007182 -0.23307882
v 0.01826182 -0.00007196 -0.23515975
f 10 11 13
f 13 9 10
f 13 8 9
f 7 8 13
f 13 1 7
f 13 2 1
f 3 2 13
f 13 4 3
f 13 5 4
f 6 5 13
f 13 12 6
f 13 11 12

