# https://github.com/mikedh/trimesh
v -0.01457290 0.00000000 -0.00355396
v -0.01262933 0.00000000 -0.00809321
v 0.01495910 0.00000000 0.00110687
v 0.01450798 0.00000000 -0.00381032
v 0.01248469 0.00000000 -0.00831460
v 0.00259924 0.00000000 0.01477308
v 0.00725522 0.00000000 0.01312866
v 0.00910849 0.00000000 -0.01191786
v 0.00474524 0.00000000 -0.01422964
v -0.00013222 0.00000000 -0.01499942
v -0.00499536 0.00000000 -0.01414377
v -0.00931718 0.00000000 -0.01175544
v -0.01493727 0.00000000 0.00137042
v 0.01112499 0.00000000 0.01006155
v 0.01378918 0.00000000 0.00590411
v -0.01368295 0.00000000 0.00614628
v -0.01094588 0.00000000 0.01025611
v -0.00702264 0.00000000 0.01325453
v -0.00233840 0.00000000 0.01481661
v 0.00259924 0.01000000 0.01477308
v -0.00233840 0.01000000 0.01481661
v -0.00702264 0.01000000 0.01325453
v -0.01094588 0.01000000 0.01025611
v -0.01368295 0.01000000 0.00614628
v -0.01493727 0.01000000 0.00137042
v -0.01457290 0.01000000 -0.00355396
v -0.01262933 0.01000000 -0.00809321
v -0.00931718 0.01000000 -0.01175544
v -0.00499536 0.01000000 -0.01414377
v -0.00013222 0.01000000 -0.01499942
v 0.00474524 0.01000000 -0.01422964
v 0.00910849 0.01000000 -0.01191786
v 0.01248469 0.01000000 -0.00831460
v 0.01450798 0.01000000 -0.00381032
v 0.01495910 0.01000000 0.00110687
v 0.01378918 0.01000000 0.00590411
v 0.01112499 0.01000000 0.01006155
v 0.00725522 0.01000000 0.01312866
f 20 6 21
f 21 6 19
f 21 19 22
f 22 19 18
f 22 18 23
f 23 18 17
f 23 17 24
f 24 17 16
f 24 16 25
f 25 16 13
f 25 13 26
f 26 13 1
f 26 1 27
f 27 1 2
f 27 2 28
f 28 2 12
f 28 12 29
f 29 12 11
f 29 11 30
f 30 11 10
f 30 10 31
f 31 10 9
f 31 9 32
f 32 9 8
f 32 8 33
f 33 8 5
f 33 5 34
f 34 5 4
f 34 4 35
f 35 4 3
f 35 3 36
f 36 3 15
f 36 15 37
f 37 15 14
f 37 14 38
f 38 14 7
f 38 7 20
f 20 7 6

