#
# File generated by Libuipc
# Vertices 195
# Edges 195
# Faces 0
#
v 0.007336886691071014 0.05334124991465079 0.0006496170771703601
v 0.00734045938524564 0.05134128519917989 0.0006562548526613322
v 0.007363761646696915 0.0493414533685751 0.0006626790741247659
v 0.007373234946228021 0.04734150683927834 0.0006695676119700073
v 0.00737370825013057 0.04534153474683872 0.0006740660004508008
v 0.007406795009615995 0.04334176641344711 0.0006796059714616186
v 0.007413729303886898 0.041341801177364385 0.0006851212920751927
v 0.007429534462965059 0.0393418954366438 0.0006917083127111155
v 0.007406496127952993 0.0373416481843959 0.000703039422892245
v 0.0074058746533957505 0.03534167522568101 0.0007082465548150899
v 0.007404233750730615 0.0333416554364943 0.0007102039491258695
v 0.007391494461464013 0.03134128620128321 0.0007107683375758105
v 0.0074278400766687805 0.029341682022320483 0.0007195731409922988
v 0.007451505384505552 0.027341858489089283 0.0007282234368426533
v 0.0074876029596937 0.025342202130964206 0.0007307907059404001
v 0.007490687536124274 0.02334222231338047 0.000734076184463089
v 0.007495300772621643 0.02134223268440384 0.0007374224114752892
v 0.007497764903352398 0.01934225003627237 0.0007406805999916688
v 0.007509653784049052 0.017342303675622506 0.0007435457109113554
v 0.007504467342247259 0.015342314490484251 0.0007472399284529489
v 0.007472884486332926 0.01334273939511929 0.0007803747791413685
v 0.007489879797240371 0.011342851116624423 0.0007895669534743093
v 0.007492628648466311 0.009342826516905427 0.00079165035722853
v 0.007472718728397592 0.007342987556098608 0.0008043258890111314
v 0.007469986177545514 0.005343041325631065 0.0008150973384093978
v 0.007526563940963035 0.003343928130410813 0.0008310919749618449
v 0.007511603004194109 0.0013440248446885696 0.0008175164739296406
v 0.007369232036268069 -0.0006459719991332159 0.0006776252808863246
v 0.007008767072339854 -0.002603049333749556 0.00046910160607420225
v 0.006129188516786967 -0.0043998168344371626 0.00042199542227681566
v 0.004810983678648476 -0.0059021558200270195 0.0004989239421868054
v 0.003487128296380347 -0.007388489758919575 0.0007213884525863322
v 0.0018047462466341492 -0.008448558073384523 0.0009413168506475669
v -0.00016110809458861304 -0.008146986234417399 0.001178552391401867
v -0.0021078528150202435 -0.007712794324548052 0.0013369470877339859
v -0.0037923048892124517 -0.006634127416426588 0.0012686191315875223
v -0.0050989375660967645 -0.005173881266093006 0.0008653276272711382
v -0.006180532199336631 -0.0035240043113222035 0.0005363722055150767
v -0.006869648415011903 -0.0016546206098792403 0.0003614538195643598
v -0.0070724617130102875 0.00033437919188684505 0.00041959279703082826
v -0.006664658846090746 0.0022922783801949042 0.00043628894326761653
v -0.005801085107554417 0.004096277990112333 0.00044996940317040997
v -0.00444020880165078 0.005561876330225913 0.00046918538614786385
v -0.0027150552124715383 0.00657347433280163 0.0005032902241932154
v -0.000777636408951455 0.007069567029178148 0.00048514485397383464
v 0.0012204755807612528 0.0070134916090682856 0.0004188653947788054
v 0.00311381462817782 0.006369523621136039 0.00039126332139344136
v 0.00474844788883727 0.005218752183575752 0.0004517414150174995
v 0.0060513936094338475 0.0037013607504202462 0.00043029556069186146
v 0.006921675012507276 0.0019199353486716256 0.00014888318202627832
v 0.0072493426484814575 -2.5310837923811425e-05 -0.0001871768183740289
v 0.006813482854305464 -0.001972185276023298 -0.00032824206382447204
v 0.005871886213490937 -0.0037371655036544096 -0.00029898554625928307
v 0.004840401558720521 -0.005448756290569066 -0.0003808964190260385
v 0.003405318425699259 -0.006841895486675023 -0.0003702760495593054
v 0.0016964472284165663 -0.007860674484095546 -0.00016478482237454405
v -0.00024183179110728084 -0.008170515597825653 0.00022007590631374296
v -0.0019393281045305064 -0.007173335606213274 0.000573347282009554
v -0.003284053953176946 -0.005784871841041189 0.0010869990171736815
v -0.004669097183063501 -0.004344621798458556 0.0011739037480752298
v -0.005733270142778861 -0.0026584710094504855 0.001018132508605345
v -0.0062497079893675984 -0.0007281312220790503 0.0009342296707238551
v -0.006125155644367711 0.0012679863337924015 0.0009428346520823569
v -0.005417329518597554 0.003138384503244497 0.0009231551830247241
v -0.004169331577096474 0.004701049729697282 0.0009015795961858103
v -0.0024815553423084974 0.005774028724768015 0.0008919969322692338
v -0.000542576772809723 0.006264134796821881 0.0008871869142651451
v 0.001452576728593104 0.006125459293225319 0.0008796995882637773
v 0.003287179225564295 0.005329622593043 0.0009062339224118152
v 0.004803355767583563 0.004026482822808634 0.0009606671670827595
v 0.005811533635117749 0.002299193846217499 0.0009575261036219754
v 0.00625053040399514 0.00034822690188494654 0.0009871997851347795
v 0.006447183468741205 -0.001639183199036845 0.0010940046506807142
v 0.006088757452933031 -0.0036007777514293834 0.0012475134744273657
v 0.00490366977762659 -0.005210986470574718 0.0013014797263888108
v 0.0033106381350963207 -0.0064057552879011785 0.0011149850233966104
v 0.0016749500115114157 -0.007479238422918765 0.000699696661734267
v -0.0002811135361703847 -0.007117512905174178 0.000492553070244633
v -0.001976299716529614 -0.006102879773312774 0.0001813984870731739
v -0.0037344203977587335 -0.005150620802177305 0.00022942679019897507
v -0.0051377131098963935 -0.003726604498215314 0.00017592845414633442
v -0.0059489866275366805 -0.0019097017803828174 -2.5707125543694804e-05
v -0.0062441747689997735 6.81944214687321e-05 -2.1243484256320585e-06
v -0.005913923838066762 0.0020406985919628707 2.5580352708309005e-06
v -0.0049944430637901445 0.003816737961667063 1.1867962475781073e-05
v -0.003552549147227692 0.005202660106988422 -5.453523607614435e-07
v -0.0017438481129423216 0.006056177320230806 -8.976080388924162e-06
v 0.0002444141527692885 0.0062721567090196625 -1.3433240210709132e-05
v 0.0021975563206116044 0.005841933911635921 -1.83043269785445e-05
v 0.0039236833875623675 0.004832250173947017 1.3460320420014198e-05
v 0.005284442724610596 0.0033666307852620275 2.630648323532307e-05
v 0.0060910273472223565 0.0015392997676119528 -7.777536514080298e-05
v 0.006298606998103105 -0.0004425189410464135 9.678046539934445e-05
v 0.005909290313675148 -0.002387856588492089 0.00035007475067514674
v 0.004801195213941574 -0.003941922317265517 0.0009474723085778818
v 0.0034117956878902326 -0.0053627660149496575 0.0007227028375448824
v 0.002052288364710846 -0.006677627379336981 7.22622758672063e-05
v 0.00023518973769971052 -0.007335868175982706 -0.00044247537867917055
v -0.0017519158583308525 -0.007126241094888251 -0.0003578916254052521
v -0.0035363923437814184 -0.006223243322406206 -0.0003442642622885214
v -0.004778730863191687 -0.004694499041617133 -0.0006900922281705724
v -0.005621440284451932 -0.0028931887901955606 -0.000902817774693249
v -0.006177393096058817 -0.0009724826979482982 -0.0009440998999104588
v -0.00618767232883761 0.0010272396541159572 -0.0009132666296721852
v -0.00553353962496934 0.002917069859529723 -0.0008901579441165959
v -0.004353806310552171 0.004532053906447094 -0.00089136292225693
v -0.002721739564833714 0.005687937975784179 -0.0009032179724650886
v -0.0007997536380311704 0.006240769292438622 -0.0009103285831261928
v 0.0011995469051018024 0.006187812676909783 -0.0009115016754006114
v 0.003062270455026574 0.005459871445050278 -0.0009253098750920053
v 0.004624874710123528 0.004212359255994303 -0.0009689092184393786
v 0.005737047791162689 0.002550070100974889 -0.0009584873417189162
v 0.006299122432079326 0.0006309282725681931 -0.000987028751980277
v 0.006205531758783885 -0.0013669076274309385 -0.0010054789629433127
v 0.005833275263596936 -0.0033249320776597676 -0.0011713620620711347
v 0.0053258255834678705 -0.0052565456254550875 -0.0012806649492158365
v 0.0039006501750108833 -0.006658803627332639 -0.001332231055875769
v 0.0019993143212527187 -0.007279055154733406 -0.00133311003155399
v -4.572788002877102e-08 -0.007228257923374221 -0.001334735277024118
v -0.0018753480658624307 -0.00656138841301798 -0.001138941604209542
v -0.0032488736079904217 -0.005189711526633887 -0.0006575368645694512
v -0.00439048565588734 -0.0035619597122971388 -0.0004404701418259799
v -0.005168184534691638 -0.001719408618283905 -0.00044653444983211053
v -0.0054228533173075275 0.0002643066385657307 -0.0004478350693403968
v -0.004954481461799324 0.0022086447475099386 -0.0004480850772931418
v -0.0038299444769274854 0.003862516497821228 -0.0004478203094917345
v -0.0021770596411971096 0.004988463753131558 -0.0004483617761455401
v -0.00022688459580095876 0.005431892118336654 -0.00044763717405866513
v 0.0017507376261629516 0.00513356800319066 -0.000447810912175033
v 0.0034979431994363757 0.0041603979431804545 -0.00044756899961059744
v 0.004768268454102959 0.002615684510406377 -0.00044886735960882686
v 0.0053961118536688816 0.0007168102475253458 -0.00044609753017546615
v 0.005504360458361919 -0.001280220393089851 -0.00043843206064592404
v 0.005159640513944441 -0.0032464347791557424 -0.0005616471238303365
v 0.004351072306422183 -0.004966901886915572 -0.0011829514318106985
v 0.002714195224336555 -0.006116023028380511 -0.0011795796358810573
v 0.0007291832813340936 -0.006359926188194735 -0.001186213059445716
v -0.001183867659469696 -0.0059738852718573465 -0.0007491809251132912
v -0.0026143398983332826 -0.004756337748767656 -6.265348762296383e-05
v -0.004115637463841093 -0.0035345085101989083 0.0004405546872293989
v -0.0051389429825955115 -0.0018162057348504034 0.0004503058158817904
v -0.005439841207966305 0.00016099838760950738 0.00044783288469977124
v -0.004996915543245541 0.002111297066978411 0.0004474216901466866
v -0.003899896859710709 0.003783522873195763 0.0004480531101591417
v -0.0022738706791417948 0.004947976401204585 0.0004478398508202696
v -0.0003336833708551454 0.005433128618959685 0.0004476149605144456
v 0.0016496448051007179 0.005175500019931058 0.00044746001290608896
v 0.003408755607833218 0.0042240544804057235 0.0004480676844794095
v 0.004716791068920567 0.002711153579686987 0.00044679518053305687
v 0.005398731696563308 0.0008310229352530947 0.0004498870817594142
v 0.00526875287374477 -0.0011646654465409193 0.0004389648638303429
v 0.004598238708424277 -0.0030273903674157654 0.00015506727126016447
v 0.00412472434908472 -0.004953043340472042 -0.00010488519306952542
v 0.0023319013320122245 -0.005035093848387078 -0.000987486330576863
v 0.0003990823840564423 -0.0054140216503615005 -0.0013348024603447263
v -0.0015896699007126463 -0.005202883326196657 -0.0013440816730627525
v -0.0033485650252526285 -0.00425088585575321 -0.0013411927864041481
v -0.004693203383477422 -0.0027704266516738857 -0.0013392220696455941
v -0.005364917878188841 -0.0008866429334320798 -0.001341294523524883
v -0.005325640232948019 0.0011129753416798526 -0.00134251340378425
v -0.0045450829338087246 0.002954324965670266 -0.0013423615294036423
v -0.0031758134386547215 0.0044120708610630175 -0.0013422194915350362
v -0.0014537530211844395 0.005236468441900685 -0.0013439180405567677
v 0.0005380621365297216 0.005416770098004216 -0.001339457994647032
v 0.0024547669156732886 0.004845639878379734 -0.0013436682267738123
v 0.0040368980037916715 0.003622293061983358 -0.0013418075759679805
v 0.005050602914047123 0.001999805848940253 -0.0013426194354579902
v 0.005442215342280972 3.853862649806321e-05 -0.0013382801587915787
v 0.005096321448176197 -0.001931282778956424 -0.0013366083165745498
v 0.004026438320312478 -0.003600998844561203 -0.0010770782999092916
v 0.0029722396086246843 -0.004450883662492553 0.00039471533804150084
v 0.0018127647168014772 -0.005891496022651245 -0.00034995938876593996
v -0.00010294707488290627 -0.006417113096906333 -0.00011810169448999238
v 0.0006665799092407571 -0.005288576639216724 0.0013426810135170845
v 0.0025603619713013403 -0.004972844475797659 0.0013376685591120227
v 0.0040189725610833135 -0.0036045236915497733 0.0013329644922802785
v 0.005109809013988063 -0.0019282406354361515 0.001334514285304754
v 0.005444290055887463 4.358518867513683e-05 0.0013383163788772486
v 0.005044758595453723 0.002003227662157662 0.0013429821761750972
v 0.00405442139900167 0.0036019140709150636 0.001341146695443883
v 0.0024775169716884943 0.0048320409594396 0.001343956824438415
v 0.0005639873142350696 0.005413648835325185 0.0013391928493719648
v -0.001428612199973379 0.005241871164577939 0.0013437240647345536
v -0.003138492683515853 0.004433643470280526 0.0013423529404363076
v -0.004523642153817944 0.002990964664898944 0.0013422839990570787
v -0.0053103832732923455 0.001152249403849367 0.00134191503353365
v -0.00538492166667021 -0.0008463267302499733 0.0013431926049707011
v -0.004685359225113023 -0.002719979687514722 0.0013421279855890486
v -0.0037676158515421755 -0.004011926846884794 0.0013355166478659583
v -0.0018190169063745276 -0.005093144033160184 0.0005920861484020926
v -0.00025357276808801786 -0.005385834493919228 -0.00044037560724149093
v 0.001422820752635676 -0.005243121570625972 0.00033921942876263947
v 0.0010806374000082387 -0.006656915618162268 0.001181431108396755
v -0.0008393719986273502 -0.00637484418121031 0.0011921567647303134
v -0.0020548799179072727 -0.005782532188651435 0.0011920639102357294
l 2 1
l 3 2
l 4 3
l 5 4
l 6 5
l 7 6
l 8 7
l 9 8
l 10 9
l 11 10
l 12 11
l 13 12
l 14 13
l 15 14
l 16 15
l 17 16
l 18 17
l 19 18
l 20 19
l 21 20
l 22 21
l 23 22
l 24 23
l 25 24
l 26 25
l 27 26
l 28 27
l 29 28
l 30 29
l 31 30
l 32 31
l 33 32
l 34 33
l 35 34
l 36 35
l 37 36
l 38 37
l 39 38
l 40 39
l 41 40
l 42 41
l 43 42
l 44 43
l 45 44
l 46 45
l 47 46
l 48 47
l 49 48
l 50 49
l 51 50
l 52 51
l 53 52
l 54 53
l 55 54
l 56 55
l 57 56
l 58 57
l 59 58
l 60 59
l 61 60
l 62 61
l 63 62
l 64 63
l 65 64
l 66 65
l 67 66
l 68 67
l 69 68
l 70 69
l 71 70
l 72 71
l 73 72
l 74 73
l 75 74
l 76 75
l 77 76
l 78 77
l 79 78
l 80 79
l 81 80
l 82 81
l 83 82
l 84 83
l 85 84
l 86 85
l 87 86
l 88 87
l 89 88
l 90 89
l 91 90
l 92 91
l 93 92
l 94 93
l 95 94
l 96 95
l 97 96
l 98 97
l 99 98
l 100 99
l 101 100
l 102 101
l 103 102
l 104 103
l 105 104
l 106 105
l 107 106
l 108 107
l 109 108
l 110 109
l 111 110
l 112 111
l 113 112
l 114 113
l 115 114
l 116 115
l 117 116
l 118 117
l 119 118
l 120 119
l 121 120
l 122 121
l 123 122
l 124 123
l 125 124
l 126 125
l 127 126
l 128 127
l 129 128
l 130 129
l 131 130
l 132 131
l 133 132
l 134 133
l 135 134
l 136 135
l 137 136
l 138 137
l 139 138
l 140 139
l 141 140
l 142 141
l 143 142
l 144 143
l 145 144
l 146 145
l 147 146
l 148 147
l 149 148
l 150 149
l 151 150
l 152 151
l 153 152
l 154 153
l 155 154
l 156 155
l 157 156
l 158 157
l 159 158
l 160 159
l 161 160
l 162 161
l 163 162
l 164 163
l 165 164
l 166 165
l 167 166
l 168 167
l 169 168
l 170 169
l 171 170
l 172 171
l 173 172
l 174 173
l 175 174
l 176 175
l 177 176
l 178 177
l 179 178
l 180 179
l 181 180
l 182 181
l 183 182
l 184 183
l 185 184
l 186 185
l 187 186
l 188 187
l 189 188
l 190 189
l 191 190
l 192 191
l 193 192
l 194 193
l 195 194
l 189 195
