# https://github.com/mikedh/trimesh
v -0.00049539 0.01820435 -0.06962579
v -0.01251773 -0.02741013 -0.06962570
v -0.01758049 -0.02352534 -0.06962570
v -0.02146528 -0.01846258 -0.06962570
v -0.01758049 0.01104534 -0.06962570
v -0.00662202 0.01737222 -0.06962570
v -0.00662202 -0.02985222 -0.06962570
v -0.00049538 -0.03068435 -0.06962579
v -0.01251773 0.01493013 -0.06962570
v -0.02474031 -0.00624000 -0.06962570
v -0.02390736 -0.01256688 -0.06962570
v -0.02146528 0.00598258 -0.06962570
v -0.02390736 0.00008688 -0.06962570
v -0.00029514 0.01820517 -0.06962586
v 0.01192744 0.01493013 -0.06962586
v 0.00603173 0.01737222 -0.06962586
v -0.00029514 -0.03068517 -0.06962586
v 0.02331708 0.00008688 -0.06962586
v 0.01192744 -0.02741013 -0.06962586
v 0.01699020 -0.02352534 -0.06962586
v 0.00603173 -0.02985222 -0.06962586
v 0.01699020 0.01104534 -0.06962586
v 0.02087499 0.00598258 -0.06962586
v 0.02331708 -0.01256688 -0.06962586
v 0.02415003 -0.00624000 -0.06962586
v 0.02087499 -0.01846258 -0.06962586
v -0.00029514 -0.03068517 -0.04562587
v -0.00662202 0.01737222 -0.04562587
v -0.01251773 0.01493013 -0.04562587
v -0.01758049 0.01104534 -0.04562587
v -0.02146528 0.00598258 -0.04562587
v -0.02390736 0.00008688 -0.04562587
v -0.02474031 -0.00624000 -0.04562587
v -0.02390736 -0.01256688 -0.04562587
v -0.02146528 -0.01846258 -0.04562587
v -0.01758049 -0.02352534 -0.04562587
v -0.01251773 -0.02741013 -0.04562587
v -0.00662202 -0.02985222 -0.04562587
v 0.00603173 -0.02985222 -0.04562587
v 0.01192744 -0.02741013 -0.04562587
v 0.01699020 -0.02352534 -0.04562587
v 0.02087499 -0.01846258 -0.04562587
v 0.02331708 -0.01256688 -0.04562587
v 0.02415003 -0.00624000 -0.04562587
v 0.02331708 0.00008688 -0.04562587
v 0.02087499 0.00598258 -0.04562587
v 0.01699020 0.01104534 -0.04562587
v 0.01192744 0.01493013 -0.04562587
v 0.00603173 0.01737222 -0.04562587
v -0.00029514 0.01820517 -0.04562587
f 7 8 27
f 8 17 27
f 27 17 21
f 27 21 39
f 39 21 19
f 39 19 40
f 40 19 20
f 40 20 41
f 41 20 26
f 41 26 42
f 42 26 24
f 42 24 43
f 43 24 25
f 43 25 44
f 44 25 18
f 44 18 45
f 45 18 23
f 45 23 46
f 46 23 22
f 46 22 47
f 47 22 15
f 47 15 48
f 48 15 16
f 48 16 49
f 49 16 14
f 49 14 50
f 50 14 1
f 50 1 28
f 28 1 6
f 28 6 9
f 28 9 29
f 29 9 5
f 29 5 30
f 30 5 12
f 30 12 31
f 31 12 13
f 31 13 32
f 32 13 10
f 32 10 33
f 33 10 11
f 33 11 34
f 34 11 4
f 34 4 35
f 35 4 3
f 35 3 36
f 36 3 2
f 36 2 37
f 37 2 7
f 37 7 38
f 38 7 27

