# https://github.com/mikedh/trimesh
v -0.00029514 -0.03068517 -0.04562587
v -0.00662202 0.01737222 -0.04562587
v -0.01251773 0.01493013 -0.04562587
v -0.01758049 0.01104534 -0.04562587
v -0.02146528 0.00598258 -0.04562587
v -0.02390736 0.00008688 -0.04562587
v -0.02474031 -0.00624000 -0.04562587
v -0.02390736 -0.01256688 -0.04562587
v -0.02146528 -0.01846258 -0.04562587
v -0.01758049 -0.02352534 -0.04562587
v -0.01251773 -0.02741013 -0.04562587
v -0.00662202 -0.02985222 -0.04562587
v 0.00603173 -0.02985222 -0.04562587
v 0.01192744 -0.02741013 -0.04562587
v 0.01699020 -0.02352534 -0.04562587
v 0.02087499 -0.01846258 -0.04562587
v 0.02331708 -0.01256688 -0.04562587
v 0.02415003 -0.00624000 -0.04562587
v 0.02331708 0.00008688 -0.04562587
v 0.02087499 0.00598258 -0.04562587
v 0.01699020 0.01104534 -0.04562587
v 0.01192744 0.01493013 -0.04562587
v 0.00603173 0.01737222 -0.04562587
v -0.00029514 0.01820517 -0.04562587
v -0.00029514 -0.00624000 -0.04562587
f 22 23 25
f 25 23 24
f 25 24 2
f 2 3 25
f 25 3 4
f 25 4 5
f 5 6 25
f 25 6 7
f 25 7 8
f 8 9 25
f 25 9 10
f 25 10 11
f 11 12 25
f 25 12 1
f 25 1 13
f 13 14 25
f 25 14 15
f 25 15 16
f 16 17 25
f 25 17 18
f 25 18 19
f 19 20 25
f 25 20 21
f 25 21 22

