# https://github.com/mikedh/trimesh
v -0.03065971 -0.03034963 0.01162530
v -0.03065970 -0.00873800 0.03130354
v -0.03067044 -0.00540410 0.03204779
v -0.03076720 0.00481331 0.03214188
v -0.03072980 0.00140409 0.03246991
v -0.03069426 -0.00203211 0.03243665
v -0.03070071 -0.00134650 0.03247235
v -0.03078138 0.00617837 0.03190760
v -0.03080087 0.00814244 0.03146378
v -0.03083154 0.01138327 0.03044159
v -0.03083777 0.01206820 0.03017662
v -0.03084911 0.01337017 0.02962274
v -0.03086319 0.01517667 0.02873913
v -0.03088738 0.01984121 0.02574093
v -0.03088028 0.01809369 0.02699790
v -0.03089048 0.02081368 0.02496115
v -0.03089195 0.02137692 0.02448050
v -0.03089491 0.02383425 0.02209515
v -0.03089233 0.02601035 0.01948665
v -0.03089389 0.02524260 0.02047140
v -0.03085476 0.02980142 0.01296688
v -0.03086536 0.02928317 0.01409830
v -0.03087920 0.02827412 0.01602624
v -0.03088268 0.02790252 0.01666481
v -0.03048561 0.03249708 0.00044561
v -0.03065944 0.03227656 0.00380574
v -0.03072606 0.03198443 0.00576697
v -0.03074655 0.03184070 0.00651396
v -0.03075783 0.03174506 0.00696511
v -0.03081366 0.03098993 0.00979225
v -0.03041750 0.03249557 -0.00054409
v -0.03041654 0.03249535 -0.00055735
v -0.03022672 0.03236905 -0.00291585
v -0.03014513 0.03226751 -0.00388133
v -0.02996112 0.03175089 -0.00693803
v -0.02995360 0.03149413 -0.00802337
v -0.03002012 0.03099263 -0.00978317
v -0.03014342 0.03043816 -0.01139172
v -0.03032761 0.02959226 -0.01343684
v -0.03044494 0.02879553 -0.01506876
v -0.03050763 0.02810911 -0.01631342
v -0.03052977 0.02778693 -0.01685633
v -0.03060894 0.02588763 -0.01964887
v -0.03061644 0.02558617 -0.02003982
v -0.03063606 0.02454362 -0.02130391
v -0.03064972 0.02335079 -0.02260499
v -0.03065981 0.02069178 -0.02506178
v -0.03065982 0.01896894 -0.02638980
v -0.03065983 0.01502095 -0.02882030
v -0.03065982 0.01713488 -0.02761587
v -0.03065982 0.01794656 -0.02709543
v -0.03065985 0.00827979 -0.03142740
v -0.03065985 0.00900448 -0.03122749
v -0.03065984 0.01284945 -0.02985181
v -0.03065984 0.01237168 -0.03005295
v -0.03065984 0.01223774 -0.03010773
v -0.03065986 0.00569533 -0.03199684
v -0.03065986 0.00510745 -0.03209593
v -0.03065986 0.00352699 -0.03230782
v -0.03065987 0.00216806 -0.03242736
v -0.03065987 -0.00125672 -0.03247543
v -0.03065987 -0.00243211 -0.03240861
v -0.03065987 -0.00464026 -0.03216677
v -0.03065987 -0.00610579 -0.03192102
v -0.03065987 -0.00797373 -0.03150638
v -0.03065987 -0.00868787 -0.03131695
v -0.03065987 -0.00984055 -0.03097411
v -0.03065987 -0.01077269 -0.03066238
v -0.03065987 -0.01193551 -0.03022872
v -0.03065987 -0.01502614 -0.02881747
v -0.03065987 -0.01671847 -0.02786978
v -0.03065987 -0.01795310 -0.02709090
v -0.03065987 -0.01856430 -0.02667581
v -0.03065987 -0.01929365 -0.02615314
v -0.03065986 -0.02126863 -0.02457391
v -0.03065986 -0.02269509 -0.02326297
v -0.03065986 -0.02371792 -0.02221920
v -0.03065985 -0.02590839 -0.01962112
v -0.03065985 -0.02634772 -0.01902710
v -0.03065984 -0.02744820 -0.01740201
v -0.03065983 -0.02820387 -0.01614856
v -0.03065983 -0.02869696 -0.01525511
v -0.03065982 -0.02973566 -0.01311584
v -0.03065973 -0.03134957 0.00857032
v -0.03065974 -0.03204344 0.00542788
v -0.03065975 -0.03221247 0.00431279
v -0.03065982 -0.03072157 -0.01060291
v -0.03065981 -0.03094268 -0.00993918
v -0.03065981 -0.03116062 -0.00923323
v -0.03065979 -0.03195694 -0.00591542
v -0.03065978 -0.03233872 -0.00323220
v -0.03065978 -0.03240008 -0.00254463
v -0.03065977 -0.03247119 -0.00136467
v -0.03065976 -0.03243493 0.00205372
v -0.03065971 -0.03027502 0.01181827
v -0.03065970 -0.02956360 0.01349972
v -0.03065970 -0.02887589 0.01491420
v -0.03065968 -0.02713343 0.01788936
v -0.03065968 -0.02685064 0.01831106
v -0.03065967 -0.02510007 0.02064560
v -0.03065965 -0.02280757 0.02315320
v -0.03065964 -0.02190411 0.02400971
v -0.03065964 -0.02026529 0.02540819
v -0.03065963 -0.01968248 0.02586229
v -0.03065963 -0.01844678 0.02675770
v -0.03065960 -0.01001247 0.03091947
v -0.03065960 -0.00879878 0.03128649
v -0.03065962 -0.01685141 0.02779011
v -0.03065962 -0.01577671 0.02841399
v -0.03065961 -0.01385812 0.02939753
v -0.03065960 -0.01071273 0.03068388
v -0.03101232 0.02610271 0.00607390
v -0.03101234 0.02679779 -0.00034939
v -0.03101235 0.02593547 -0.00675236
v -0.03101237 0.02356589 -0.01276292
v -0.03101238 0.01982674 -0.01803174
v -0.03101240 0.01493533 -0.02225261
v -0.03101240 0.00917594 -0.02518027
v -0.03101240 0.00288327 -0.02664452
v -0.03101240 -0.00357696 -0.02656030
v -0.03101239 -0.00982931 -0.02493246
v -0.03101238 -0.01551042 -0.02185567
v -0.03101237 -0.02029011 -0.01750871
v -0.03101235 -0.02389063 -0.01214417
v -0.03101233 -0.02610270 -0.00607388
v -0.03101231 -0.02679778 0.00034938
v -0.03101229 -0.02593547 0.00675235
v -0.03101228 -0.02356589 0.01276291
v -0.03101227 -0.01982674 0.01803173
v -0.03101225 -0.01493534 0.02225263
v -0.03101225 -0.00917594 0.02518026
v -0.03101225 -0.00288328 0.02664451
v -0.03101225 0.00357695 0.02656029
v -0.03101226 0.00982931 0.02493245
v -0.03101227 0.01551041 0.02185566
v -0.03101228 0.02029011 0.01750869
v -0.03101230 0.02389063 0.01214419
v -0.03101237 0.02904566 -0.01318835
v -0.03101237 0.02943553 -0.01229366
v -0.03101237 0.03056753 -0.00912197
v -0.03101235 0.03136073 -0.00583841
v -0.03101235 0.03175785 -0.00300383
v -0.03101234 0.03189760 0.00035883
v -0.03101235 0.03167969 0.00373719
v -0.03101229 0.02701667 0.01696290
v -0.03101228 0.02506170 0.01973532
v -0.03101232 0.03110506 0.00707934
v -0.03101231 0.03018493 0.01031671
v -0.03101231 0.02997133 0.01092125
v -0.03101230 0.02865061 0.01402668
v -0.03101228 0.02465552 0.02024049
v -0.03101227 0.02238792 0.02272529
v -0.03101226 0.01987468 0.02495153
v -0.03101226 0.01711102 0.02692247
v -0.03101225 0.01651725 0.02729137
v -0.03101225 0.01356851 0.02887146
v -0.03101224 0.01046191 0.03013424
v -0.03101224 0.00720897 0.03107447
v -0.03101224 0.00655759 0.03121893
v -0.03101224 0.00324707 0.03173543
v -0.03101224 -0.00010362 0.03189902
v -0.03101223 -0.00348367 0.03170816
v -0.03101223 -0.00857674 0.03072483
v -0.03101223 -0.00532387 0.03145279
v -0.03101239 0.02558065 -0.01905238
v -0.03101240 0.02342136 -0.02165334
v -0.03101240 0.02311182 -0.02198388
v -0.03101240 0.02067687 -0.02429079
v -0.03101237 0.02030957 -0.02459883
v -0.03101238 0.02749211 -0.01617571
v -0.03101241 0.00145996 -0.03186603
v -0.03101241 0.00347331 -0.03170978
v -0.03101241 0.01147524 -0.02976399
v -0.03101241 0.00812903 -0.03084632
v -0.03101241 0.00483365 -0.03153111
v -0.03101224 -0.01774397 0.02650932
v -0.03101224 -0.01485380 0.02823044
v -0.03101224 -0.01179603 0.02963860
v -0.03101227 -0.02698113 0.01701785
v -0.03101227 -0.02806015 0.01517285
v -0.03101241 -0.00587303 -0.03135415
v -0.03101241 -0.00253656 -0.03179844
v -0.03101241 -0.00126820 -0.03187423
v -0.03101241 0.00082939 -0.03188865
v -0.03101241 0.01262269 -0.02929579
v -0.03101241 0.01456927 -0.02837803
v -0.03101241 0.01682815 -0.02709963
v -0.03101241 0.01747823 -0.02668499
v -0.03101241 -0.00917022 -0.03055294
v -0.03101241 -0.00977275 -0.03036558
v -0.03101224 -0.01882971 0.02574945
v -0.03101225 -0.02145824 0.02360372
v -0.03101240 -0.01491032 -0.02820029
v -0.03101240 -0.01291908 -0.02916627
v -0.03101240 -0.01056282 -0.03009986
v -0.03101240 -0.01592041 -0.02764263
v -0.03101239 -0.01876652 -0.02579521
v -0.03101225 -0.02382587 0.02121128
v -0.03101226 -0.02592895 0.01858167
v -0.03101226 -0.02629141 0.01806516
v -0.03101237 -0.02562771 -0.01899468
v -0.03101237 -0.02417287 -0.02081462
v -0.03101238 -0.02252701 -0.02258562
v -0.03101238 -0.02184507 -0.02324583
v -0.03101239 -0.01927306 -0.02541899
v -0.03101227 -0.02902230 0.01323984
v -0.03101228 -0.02950262 0.01213185
v -0.03101236 -0.02660049 -0.01760658
v -0.03101236 -0.02624704 -0.01812925
v -0.03101233 -0.03131805 -0.00606306
v -0.03101233 -0.03087655 -0.00801369
v -0.03101233 -0.03076840 -0.00841935
v -0.03101228 -0.03065879 0.00881044
v -0.03101229 -0.03142067 0.00550688
v -0.03101234 -0.03007238 -0.01064100
v -0.03101234 -0.02970002 -0.01163991
v -0.03101235 -0.02830819 -0.01470457
v -0.03101230 -0.03182599 0.00216560
v -0.03101231 -0.03187095 -0.00135099
v -0.03101232 -0.03154960 -0.00471215
v -0.03083493 -0.02929459 0.01337055
v -0.03083493 -0.03179672 0.00509043
v -0.03083493 -0.03082494 0.00931490
v -0.03083493 -0.02723338 0.01718394
v -0.03083493 -0.01056633 0.03041873
v -0.03083493 -0.01455609 0.02872396
v -0.03083493 -0.01828208 0.02650870
v -0.03083493 -0.02467868 0.02068592
v -0.03083493 -0.02167678 0.02381308
v -0.03083610 -0.03217098 -0.00135781
v -0.03083493 -0.03219232 0.00077374
v -0.03083610 -0.02587234 -0.01916867
v -0.03083610 -0.03161377 -0.00611432
v -0.03083610 -0.03035726 -0.01073556
v -0.03083610 -0.02842923 -0.01511933
v -0.03083610 -0.02274315 -0.02279397
v -0.03083610 -0.01911086 -0.02591508
v -0.03083610 -0.01505584 -0.02846294
v -0.03083610 -0.01066778 -0.03038119
v -0.03083610 -0.00604375 -0.03162738
v -0.03083610 -0.00128601 -0.03217398
v -0.03083610 0.00350016 -0.03200888
v -0.03083610 0.00820892 -0.03113573
v -0.03083610 0.01273608 -0.02957385
v -0.03083610 0.01698153 -0.02735778
f 138 39 139
f 139 39 38
f 139 38 140
f 139 140 114
f 115 139 114
f 114 140 141
f 140 36 141
f 36 35 141
f 141 35 34
f 141 34 142
f 142 34 33
f 142 33 143
f 113 142 143
f 144 113 143
f 25 144 143
f 25 143 31
f 31 143 32
f 26 144 25
f 144 26 147
f 147 26 27
f 147 27 28
f 28 29 147
f 147 29 30
f 147 30 148
f 148 30 149
f 149 30 21
f 149 21 150
f 137 149 150
f 137 150 145
f 137 145 136
f 136 145 146
f 136 146 151
f 146 19 151
f 151 19 20
f 151 20 152
f 20 18 152
f 152 18 17
f 152 17 153
f 153 135 152
f 153 154 135
f 135 154 155
f 154 15 155
f 155 15 13
f 155 13 156
f 156 13 12
f 156 12 157
f 134 156 157
f 135 156 134
f 134 157 133
f 133 157 158
f 157 10 158
f 158 10 9
f 158 9 159
f 159 9 8
f 159 8 160
f 159 160 133
f 133 160 161
f 133 161 132
f 132 161 162
f 161 7 162
f 161 5 7
f 4 5 161
f 7 6 162
f 162 6 3
f 162 3 164
f 164 3 163
f 3 2 163
f 163 2 225
f 163 225 178
f 178 225 226
f 178 226 177
f 177 131 178
f 177 130 131
f 176 130 177
f 227 176 177
f 227 191 176
f 227 192 191
f 229 192 227
f 229 198 192
f 192 198 129
f 129 198 199
f 129 199 128
f 128 199 200
f 224 200 199
f 224 199 228
f 228 100 224
f 224 100 99
f 224 99 98
f 97 224 98
f 221 224 97
f 97 96 221
f 96 95 221
f 221 95 1
f 221 1 223
f 223 207 221
f 221 207 206
f 206 180 221
f 180 206 128
f 179 180 128
f 180 179 224
f 128 206 207
f 128 207 127
f 207 213 127
f 127 213 214
f 222 214 213
f 222 213 223
f 85 222 223
f 223 84 85
f 85 86 222
f 222 86 94
f 222 94 231
f 231 94 93
f 231 93 230
f 93 92 230
f 230 92 91
f 230 91 233
f 220 230 233
f 219 230 220
f 125 219 220
f 125 220 210
f 210 211 125
f 125 211 212
f 212 211 233
f 212 233 234
f 234 215 212
f 215 234 216
f 125 215 216
f 125 216 124
f 124 216 217
f 216 235 217
f 217 235 208
f 208 235 232
f 208 232 209
f 123 208 209
f 123 209 201
f 201 202 123
f 202 203 123
f 236 203 202
f 236 204 203
f 237 204 236
f 237 205 204
f 197 205 237
f 122 205 197
f 196 122 197
f 196 121 122
f 193 121 196
f 193 194 121
f 121 194 195
f 121 195 190
f 189 121 190
f 189 120 121
f 181 120 189
f 181 182 120
f 120 182 183
f 120 183 119
f 119 183 184
f 119 184 171
f 184 242 171
f 184 241 242
f 241 60 242
f 242 60 59
f 242 59 58
f 57 242 58
f 57 243 242
f 243 175 242
f 243 174 175
f 174 119 175
f 174 118 119
f 173 118 174
f 173 185 118
f 244 185 173
f 244 173 243
f 53 244 243
f 53 243 52
f 56 244 53
f 56 55 244
f 244 55 54
f 244 54 49
f 245 244 49
f 186 244 245
f 245 187 186
f 117 186 187
f 117 187 188
f 169 117 188
f 169 188 245
f 245 51 169
f 169 51 48
f 169 48 47
f 47 168 169
f 47 167 168
f 167 116 168
f 168 116 117
f 166 116 167
f 46 166 167
f 45 166 46
f 45 165 166
f 44 165 45
f 44 43 165
f 165 43 42
f 165 42 170
f 170 42 41
f 170 41 138
f 170 138 115
f 138 41 40
f 170 115 165
f 165 115 116
f 165 116 166
f 46 167 47
f 245 50 51
f 168 117 169
f 118 186 117
f 245 188 187
f 245 49 50
f 186 185 244
f 118 185 186
f 175 119 172
f 243 173 174
f 242 175 172
f 52 243 57
f 241 61 60
f 62 61 241
f 62 241 63
f 63 241 240
f 182 240 241
f 63 240 64
f 240 65 64
f 240 66 65
f 239 66 240
f 240 189 239
f 239 67 66
f 68 67 239
f 239 69 68
f 239 70 69
f 238 70 239
f 238 71 70
f 237 71 238
f 237 72 71
f 73 72 237
f 237 74 73
f 74 237 75
f 196 237 238
f 194 238 239
f 242 172 171
f 171 172 119
f 183 241 184
f 182 241 183
f 181 240 182
f 240 181 189
f 239 189 190
f 239 190 195
f 194 239 195
f 193 238 194
f 196 238 193
f 197 237 196
f 122 204 205
f 123 204 122
f 75 237 236
f 75 236 76
f 236 77 76
f 236 78 77
f 232 78 236
f 79 78 232
f 79 232 80
f 236 202 232
f 123 203 204
f 232 202 201
f 124 208 123
f 232 201 209
f 80 232 235
f 80 235 81
f 235 82 81
f 235 83 82
f 234 83 235
f 234 87 83
f 88 87 234
f 234 89 88
f 124 217 208
f 216 234 235
f 234 233 89
f 233 90 89
f 212 215 125
f 233 211 210
f 126 219 125
f 126 218 219
f 231 219 218
f 214 218 126
f 233 210 220
f 233 91 90
f 230 219 231
f 231 218 222
f 222 218 214
f 127 214 126
f 223 213 207
f 223 1 84
f 221 180 224
f 228 101 100
f 229 101 228
f 229 102 101
f 229 103 102
f 179 200 224
f 128 200 179
f 228 199 198
f 130 192 129
f 228 198 229
f 227 103 229
f 227 104 103
f 105 104 227
f 227 108 105
f 227 226 108
f 226 109 108
f 226 110 109
f 130 191 192
f 176 191 130
f 177 226 227
f 225 110 226
f 225 111 110
f 106 111 225
f 225 107 106
f 178 131 163
f 132 163 131
f 225 2 107
f 164 163 132
f 132 162 164
f 160 4 161
f 160 8 4
f 157 11 10
f 133 158 159
f 12 11 157
f 154 14 15
f 135 155 156
f 153 14 154
f 153 16 14
f 152 135 136
f 17 16 153
f 152 136 151
f 145 19 146
f 19 145 24
f 145 23 24
f 145 22 23
f 150 22 145
f 112 149 137
f 150 21 22
f 112 148 149
f 147 148 112
f 147 112 144
f 144 112 113
f 143 33 32
f 113 141 142
f 140 37 36
f 114 141 113
f 38 37 140
f 115 138 139
f 138 40 39

