# https://github.com/mikedh/trimesh
v -0.03041246 0.02610271 0.00607390
v -0.03041246 0.02679779 -0.00034939
v -0.03041246 0.02593547 -0.00675236
v -0.03041246 0.02356589 -0.01276292
v -0.03041246 0.01982674 -0.01803174
v -0.03041246 0.01493533 -0.02225261
v -0.03041246 0.00917594 -0.02518027
v -0.03041246 0.00288327 -0.02664452
v -0.03041246 -0.00357696 -0.02656030
v -0.03041246 -0.00982931 -0.02493246
v -0.03041246 -0.01551042 -0.02185567
v -0.03041246 -0.02029011 -0.01750871
v -0.03041246 -0.02389063 -0.01214417
v -0.03041246 -0.02610270 -0.00607388
v -0.03041246 -0.02679778 0.00034938
v -0.03041246 -0.02593547 0.00675235
v -0.03041246 -0.02356589 0.01276291
v -0.03041246 -0.01982674 0.01803173
v -0.03041246 -0.01493534 0.02225263
v -0.03041246 -0.00917594 0.02518026
v -0.03041246 -0.00288328 0.02664451
v -0.03041246 0.00357695 0.02656029
v -0.03041246 0.00982931 0.02493245
v -0.03041246 0.01551041 0.02185566
v -0.03041246 0.02029011 0.01750869
v -0.03041246 0.02389063 0.01214419
f 2 1 13
f 1 14 13
f 1 15 14
f 16 15 1
f 1 17 16
f 1 18 17
f 19 18 1
f 1 20 19
f 1 21 20
f 22 21 1
f 1 23 22
f 1 24 23
f 25 24 1
f 1 26 25
f 2 13 3
f 3 13 12
f 3 12 11
f 11 10 3
f 3 10 9
f 3 9 8
f 3 8 7
f 7 6 3
f 3 6 5
f 3 5 4

