# https://github.com/mikedh/trimesh
v 0.00190613 0.02552179 -0.06762587
v -0.00108361 0.02555661 -0.06762587
v -0.00365014 0.02537331 -0.06762587
v -0.00699371 0.02482018 -0.06762587
v -0.00961404 0.02412637 -0.06762587
v -0.01023796 0.02392556 -0.06762587
v -0.01280440 0.02294569 -0.06762587
v -0.01525478 0.02176005 -0.06762587
v 0.01526064 0.02176005 -0.06762587
v 0.01391864 0.02244131 -0.06762587
v 0.01219664 0.02320335 -0.06762587
v 0.00298595 0.02544144 -0.06762587
v 0.00901520 0.02430776 -0.06762587
v 0.00806366 0.02456705 -0.06762587
v 0.00634416 0.02495741 -0.06762587
f 13 8 14
f 13 11 8
f 8 11 10
f 8 10 9
f 14 8 7
f 7 6 14
f 14 6 5
f 14 5 15
f 15 5 12
f 5 1 12
f 5 2 1
f 5 3 2
f 4 3 5

