# https://github.com/mikedh/trimesh
v 0.03846603 0.01165527 -0.16957687
v 0.03348852 0.01153477 -0.16911869
v 0.02776395 0.01192148 -0.28577349
v 0.02278645 0.01180098 -0.28531533
v 0.02765801 0.01193071 -0.28839475
v 0.02241186 0.01180370 -0.28791168
v 0.02782807 0.01194672 -0.29106683
v 0.02174666 0.01179965 -0.29053983
v 0.02826299 0.01196862 -0.29364216
v 0.02898347 0.01199738 -0.29623270
v 0.02083483 0.01178905 -0.29301611
v 0.02994688 0.01203126 -0.29867643
v 0.01964444 0.01177156 -0.29543439
v 0.03118035 0.01207124 -0.30104855
v 0.03228314 0.01211083 -0.30402732
v 0.01822957 0.01174796 -0.29767942
v 0.03226089 0.01212506 -0.30732039
v 0.03105586 0.01211014 -0.31038511
v 0.01663737 0.01171917 -0.29970992
v 0.01497469 0.01169225 -0.30252987
v 0.01443030 0.01169377 -0.30575806
v 0.01507626 0.01172352 -0.30896729
v 0.01682709 0.01177759 -0.31173301
v 0.02587948 0.01200439 -0.31427380
v 0.02882936 0.01206802 -0.31281123
v 0.02260120 0.01192773 -0.31457710
v 0.01945114 0.01184880 -0.31368923
v 0.01930839 0.01784704 -0.31366232
v 0.01668436 0.01777583 -0.31170613
v 0.01493352 0.01772177 -0.30894041
v 0.02884074 0.01799562 -0.29620585
v 0.01953423 0.01777031 -0.29534918
v 0.02768534 0.01794497 -0.29103994
v 0.02161381 0.01779799 -0.29048106
v 0.02762122 0.01791972 -0.28574660
v 0.02264371 0.01779922 -0.28528842
v 0.02941224 0.01787516 -0.26630071
v 0.03103762 0.01806948 -0.30102170
v 0.03214040 0.01810908 -0.30400044
v 0.03334579 0.01753301 -0.16909181
v 0.03832329 0.01765351 -0.16954997
v 0.03684163 0.01769036 -0.18563701
v 0.01428757 0.01769201 -0.30573115
v 0.01483195 0.01769050 -0.30250299
v 0.01649463 0.01771742 -0.29968303
v 0.03224238 0.01811487 -0.30475047
v 0.03211816 0.01812331 -0.30729350
v 0.03174863 0.01812054 -0.30863807
v 0.03498428 0.01773657 -0.20580293
v 0.03312694 0.01778277 -0.22596887
v 0.03126959 0.01782897 -0.24613479
v 0.03091313 0.01810838 -0.31035823
v 0.02964999 0.01808544 -0.31194744
v 0.02868662 0.01806626 -0.31278431
v 0.02245845 0.01792598 -0.31455022
v 0.02573675 0.01800263 -0.31424692
v 0.02634436 0.01801621 -0.31405109
v 0.03923399 0.01079753 -0.16145937
v 0.03905132 0.01847404 -0.16142496
v 0.03955687 0.00947265 -0.15830009
v 0.03931149 0.01978441 -0.15825385
v 0.03993476 0.00731820 -0.15476131
v 0.03981737 0.02328741 -0.15183665
v 0.04080594 0.00656463 -0.14549516
v 0.03958723 0.02192261 -0.15469587
v 0.04053777 0.00565297 -0.14864825
v 0.04023017 0.00594034 -0.15191440
v 0.04011165 0.02355981 -0.14856797
v 0.04042355 0.02263372 -0.14542313
v 0.04071131 0.02063313 -0.14282316
v 0.04109042 0.01135262 -0.14114520
v 0.04099876 0.00855326 -0.14287731
v 0.04106866 0.01458788 -0.14053072
v 0.04093638 0.01782590 -0.14111617
v 0.03407381 0.01835354 -0.16096678
v 0.03425648 0.01067703 -0.16100121
v 0.03433399 0.01966391 -0.15779568
v 0.03457936 0.00935215 -0.15784191
v 0.03460972 0.02180212 -0.15423769
v 0.03525267 0.00581984 -0.15145624
v 0.03544604 0.02251322 -0.14496496
v 0.03495726 0.00719771 -0.15430315
v 0.03513415 0.02343931 -0.14810981
v 0.03483987 0.02316691 -0.15137848
v 0.03609116 0.01446738 -0.14007255
v 0.03595888 0.01770540 -0.14065801
v 0.03573380 0.02051263 -0.14236499
v 0.03582842 0.00644413 -0.14503700
v 0.03602124 0.00843276 -0.14241914
v 0.03611292 0.01123212 -0.14068702
v 0.03556027 0.00553247 -0.14819008
v 0.03876154 0.01849518 -0.16206701
v 0.03903765 0.01821543 -0.16210127
v 0.03896936 0.01747392 -0.16503133
v 0.03893746 0.01735446 -0.16621557
v 0.03867022 0.01760694 -0.16622905
v 0.03848594 0.01877526 -0.16203152
v 0.03837363 0.01817012 -0.16437082
v 0.03837232 0.01803721 -0.16506660
v 0.03840298 0.01785939 -0.16624299
v 0.03859187 0.01080806 -0.16320769
v 0.03854826 0.01104260 -0.16416283
v 0.03916579 0.01143429 -0.16326319
v 0.03920789 0.01106126 -0.16213335
v 0.03894541 0.01076840 -0.16210164
v 0.03868344 0.01047522 -0.16206871
v 0.03855612 0.01142380 -0.16627184
v 0.03881105 0.01168854 -0.16625559
v 0.03906597 0.01195333 -0.16623977
v 0.03424024 0.01838572 -0.16165082
v 0.03450393 0.01867887 -0.16166498
v 0.03438579 0.01835123 -0.16280302
v 0.03397626 0.01809290 -0.16163538
v 0.03386099 0.01774943 -0.16582492
v 0.03361320 0.01748452 -0.16576357
v 0.03354433 0.01734259 -0.16453196
v 0.03336534 0.01721956 -0.16570267
v 0.03375404 0.01156612 -0.16579010
v 0.03401412 0.01131385 -0.16585377
v 0.03425908 0.01113069 -0.16470359
v 0.03396381 0.01130836 -0.16278435
v 0.03349387 0.01181843 -0.16572687
v 0.03470144 0.01037881 -0.16170219
v 0.03442411 0.01065895 -0.16168547
v 0.03414650 0.01093872 -0.16166745
v 0.03402523 0.01822089 -0.16130020
v 0.03420157 0.01081020 -0.16133341
v 0.03287421 0.01702075 -0.16889323
v 0.03299315 0.01202222 -0.16891564
v 0.03904457 0.01834241 -0.16176222
v 0.03896616 0.01216682 -0.16946544
v 0.03884722 0.01716536 -0.16944304
v 0.03922091 0.01093172 -0.16179544
v 0.02215785 0.01728732 -0.28524485
v 0.03355064 0.01758529 -0.16745000
v 0.02114814 0.01728611 -0.29033566
v 0.01910934 0.01725899 -0.29510835
v 0.01612935 0.01720712 -0.29935721
v 0.02242449 0.01742727 -0.31505033
v 0.01909945 0.01734394 -0.31411314
v 0.01632960 0.01726878 -0.31204823
v 0.01448151 0.01721171 -0.30912888
v 0.01379965 0.01718030 -0.30574134
v 0.01437429 0.01717870 -0.30233383
v 0.02586485 0.01750773 -0.31473586
v 0.03266212 0.01762142 -0.30401716
v 0.03260469 0.01763554 -0.30747229
v 0.03148026 0.01757875 -0.30077022
v 0.02896527 0.01757467 -0.31321132
v 0.03131554 0.01761923 -0.31067842
v 0.02932647 0.01750633 -0.29604882
v 0.02819373 0.01745667 -0.29098418
v 0.02813087 0.01743192 -0.28579468
v 0.02992213 0.01738736 -0.26634610
v 0.03177949 0.01734116 -0.24618018
v 0.03363683 0.01729495 -0.22601426
v 0.03549417 0.01724875 -0.20584834
v 0.03735152 0.01720256 -0.18568242
v 0.03841915 0.01770315 -0.16789813
v 0.02824981 0.01243338 -0.28581709
v 0.03856449 0.01159546 -0.16792551
v 0.02814593 0.01244242 -0.28838694
v 0.02831267 0.01245813 -0.29100659
v 0.02873906 0.01247959 -0.29353148
v 0.02944542 0.01250779 -0.29607120
v 0.03038993 0.01254100 -0.29846701
v 0.03159921 0.01258021 -0.30079260
v 0.03276327 0.01262200 -0.30393687
v 0.03273980 0.01263703 -0.30741289
v 0.03146781 0.01262125 -0.31064788
v 0.02911760 0.01257681 -0.31320876
v 0.02600385 0.01250964 -0.31475261
v 0.02254344 0.01242873 -0.31507275
v 0.01624830 0.01220858 -0.29937959
v 0.01449324 0.01218017 -0.30235624
v 0.01391861 0.01218177 -0.30576375
v 0.01460045 0.01221317 -0.30915129
v 0.01644855 0.01227024 -0.31207064
v 0.01921839 0.01234541 -0.31413555
v 0.01780928 0.01223681 -0.29738891
v 0.01922829 0.01226045 -0.29513076
v 0.02036345 0.01227709 -0.29281706
v 0.02126708 0.01228757 -0.29035807
v 0.02190955 0.01229145 -0.28781271
v 0.02227680 0.01228878 -0.28526726
v 0.03369598 0.01147760 -0.16747737
v 0.03496343 0.00939275 -0.15911525
v 0.03506738 0.00891695 -0.15811102
v 0.03543787 0.00680474 -0.15464167
v 0.03574969 0.00535033 -0.15163659
v 0.03575957 0.00532295 -0.15153649
v 0.03607437 0.00504699 -0.14818898
v 0.03608178 0.00505539 -0.14810634
v 0.03635744 0.00600930 -0.14486071
v 0.03636187 0.00603750 -0.14480506
v 0.03656098 0.00810842 -0.14209743
v 0.03656280 0.00813931 -0.14206949
v 0.03663477 0.01447830 -0.13962048
v 0.03665796 0.01108272 -0.14026155
v 0.03665774 0.01106329 -0.14026909
v 0.03649628 0.01787672 -0.14023110
v 0.03649514 0.01789619 -0.14023846
v 0.03626085 0.02082836 -0.14201260
v 0.03625756 0.02085939 -0.14204028
v 0.03595961 0.02294266 -0.14472929
v 0.03595382 0.02297112 -0.14478469
v 0.03563240 0.02393987 -0.14802168
v 0.03507103 0.02222051 -0.15457258
v 0.03531396 0.02366113 -0.15155451
v 0.03532255 0.02368806 -0.15145417
v 0.03562460 0.02394865 -0.14810425
v 0.03480069 0.02012423 -0.15806079
v 0.03878270 0.02022064 -0.15842733
v 0.03905303 0.02231691 -0.15493910
v 0.03929597 0.02375752 -0.15192105
v 0.03930455 0.02378445 -0.15182069
v 0.03960659 0.02404505 -0.14847077
v 0.03961441 0.02403627 -0.14838822
v 0.03993581 0.02306752 -0.14515123
v 0.03994161 0.02303906 -0.14509581
v 0.04023955 0.02095579 -0.14240681
v 0.04024286 0.02092476 -0.14237915
v 0.04061677 0.01457469 -0.13998702
v 0.04047829 0.01797312 -0.14059764
v 0.04047714 0.01799259 -0.14060499
v 0.04063996 0.01117913 -0.14062808
v 0.04063974 0.01115968 -0.14063562
v 0.04054481 0.00823571 -0.14243603
v 0.04054299 0.00820482 -0.14246397
v 0.04034388 0.00613391 -0.14517160
v 0.04033944 0.00610570 -0.14522727
v 0.04006379 0.00515179 -0.14847286
v 0.03941987 0.00690114 -0.15500820
v 0.03973170 0.00544673 -0.15200312
v 0.03974156 0.00541935 -0.15190302
v 0.04005638 0.00514339 -0.14855552
v 0.03904939 0.00901335 -0.15847756
v 0.03894543 0.00948915 -0.15948178
f 1 2 3
f 2 1 186
f 129 2 186
f 186 119 129
f 129 119 118
f 118 119 120
f 119 107 120
f 107 102 120
f 120 102 101
f 120 101 123
f 123 101 106
f 101 105 106
f 58 106 105
f 58 105 133
f 133 105 104
f 93 133 104
f 93 104 94
f 94 104 103
f 94 103 109
f 103 108 109
f 103 107 108
f 161 108 107
f 161 131 108
f 1 131 161
f 1 160 131
f 160 156 131
f 131 156 157
f 156 49 157
f 157 49 42
f 42 49 40
f 40 41 42
f 41 40 159
f 159 40 135
f 159 135 100
f 100 135 114
f 100 114 99
f 99 96 100
f 99 94 96
f 98 94 99
f 98 92 94
f 97 92 98
f 97 59 92
f 92 59 130
f 59 58 130
f 130 58 93
f 58 59 60
f 60 59 61
f 60 61 62
f 60 62 233
f 233 237 60
f 60 237 238
f 188 238 237
f 188 237 189
f 78 188 189
f 187 188 78
f 187 78 123
f 123 78 76
f 123 76 124
f 124 76 127
f 124 127 125
f 113 125 127
f 113 121 125
f 116 121 113
f 113 112 116
f 116 112 115
f 116 115 117
f 128 117 115
f 128 129 117
f 117 129 122
f 128 134 129
f 129 134 185
f 185 134 184
f 184 134 136
f 184 136 183
f 183 136 182
f 182 8 183
f 183 8 6
f 7 6 8
f 7 8 9
f 163 7 9
f 162 7 163
f 162 5 7
f 160 5 162
f 160 3 5
f 3 4 5
f 5 4 6
f 184 6 4
f 162 153 160
f 160 153 154
f 154 155 160
f 154 51 155
f 154 37 51
f 35 37 154
f 35 36 37
f 35 34 36
f 136 36 34
f 136 34 137
f 137 34 32
f 137 32 138
f 180 137 138
f 180 138 174
f 180 174 19
f 19 174 175
f 174 144 175
f 175 144 143
f 43 143 144
f 43 144 44
f 44 144 138
f 44 138 45
f 31 44 45
f 31 45 32
f 31 32 33
f 152 31 33
f 152 33 153
f 153 33 35
f 151 31 152
f 164 151 152
f 165 151 164
f 166 151 165
f 166 148 151
f 148 38 151
f 38 148 39
f 30 38 39
f 30 43 38
f 39 46 30
f 39 146 46
f 46 146 47
f 146 147 47
f 169 147 146
f 170 147 169
f 170 150 147
f 150 52 147
f 150 53 52
f 30 52 53
f 30 53 54
f 149 54 53
f 149 57 54
f 145 57 149
f 145 56 57
f 55 56 145
f 55 28 56
f 55 140 28
f 28 140 141
f 28 141 29
f 28 29 30
f 29 142 30
f 30 142 143
f 176 143 142
f 176 142 177
f 21 176 177
f 20 176 21
f 20 175 176
f 20 21 18
f 18 19 20
f 18 16 19
f 17 16 18
f 15 16 17
f 15 13 16
f 14 13 15
f 12 13 14
f 166 12 14
f 166 14 167
f 168 167 14
f 168 148 167
f 168 146 148
f 12 11 13
f 10 11 12
f 10 8 11
f 165 10 12
f 181 13 11
f 181 11 182
f 182 137 181
f 180 13 181
f 14 15 168
f 180 16 13
f 168 15 17
f 168 17 169
f 169 17 18
f 18 21 22
f 18 22 23
f 27 18 23
f 26 18 27
f 26 25 18
f 170 18 25
f 170 25 171
f 171 25 24
f 171 24 172
f 172 149 171
f 171 149 150
f 172 24 26
f 172 26 173
f 173 145 172
f 173 139 145
f 179 139 173
f 179 140 139
f 178 140 179
f 23 178 179
f 27 179 173
f 24 25 26
f 27 173 26
f 23 179 27
f 22 178 23
f 22 177 178
f 177 141 178
f 21 177 22
f 177 142 141
f 29 141 142
f 178 141 140
f 55 139 140
f 56 28 30
f 145 139 55
f 56 30 57
f 172 145 149
f 57 30 54
f 48 52 30
f 30 47 48
f 149 53 150
f 147 52 48
f 171 150 170
f 169 18 170
f 169 146 168
f 147 48 47
f 30 46 47
f 39 148 146
f 167 148 166
f 165 12 166
f 164 10 165
f 164 9 10
f 164 152 163
f 151 38 31
f 38 44 31
f 38 43 44
f 30 143 43
f 175 143 176
f 19 175 20
f 19 16 180
f 174 138 144
f 181 137 180
f 138 32 45
f 33 32 34
f 33 34 35
f 36 51 37
f 36 50 51
f 40 50 36
f 36 134 40
f 155 51 50
f 155 50 156
f 154 153 35
f 162 152 153
f 163 152 162
f 163 9 164
f 9 8 10
f 5 6 7
f 182 11 8
f 182 136 137
f 183 6 184
f 134 36 136
f 184 4 185
f 185 4 129
f 40 134 128
f 135 128 115
f 117 122 116
f 112 114 115
f 98 114 112
f 110 112 113
f 110 111 112
f 97 112 111
f 97 111 213
f 97 213 61
f 61 213 214
f 213 208 214
f 213 212 208
f 77 208 212
f 77 212 75
f 75 76 77
f 75 126 76
f 76 126 113
f 75 110 126
f 75 212 111
f 79 208 77
f 208 79 209
f 209 79 84
f 209 84 210
f 216 209 210
f 215 209 216
f 63 215 216
f 63 216 68
f 216 217 68
f 68 217 218
f 68 218 69
f 64 68 69
f 64 69 70
f 69 220 70
f 220 221 70
f 70 221 222
f 70 222 74
f 225 74 222
f 222 203 225
f 225 203 202
f 225 202 224
f 224 202 201
f 201 202 86
f 85 201 86
f 85 86 80
f 85 80 90
f 90 80 91
f 80 191 91
f 191 192 91
f 91 192 193
f 91 193 88
f 193 194 88
f 193 232 194
f 194 232 231
f 194 231 195
f 195 231 230
f 195 230 196
f 196 230 229
f 72 229 230
f 228 229 72
f 71 228 72
f 71 72 73
f 73 72 64
f 73 64 74
f 224 73 74
f 223 73 224
f 198 223 224
f 199 223 198
f 198 85 199
f 199 226 223
f 227 226 199
f 226 227 71
f 200 227 199
f 200 228 227
f 197 228 200
f 200 90 197
f 89 197 90
f 88 89 90
f 88 195 89
f 89 196 197
f 199 90 200
f 223 226 73
f 73 226 71
f 71 227 228
f 197 229 228
f 72 230 64
f 196 229 197
f 195 196 89
f 230 231 64
f 64 231 232
f 64 232 66
f 65 64 66
f 63 64 65
f 63 65 214
f 65 66 61
f 61 66 67
f 235 67 66
f 234 67 235
f 234 62 67
f 191 234 235
f 190 234 191
f 190 233 234
f 189 233 190
f 189 190 80
f 80 82 189
f 80 81 82
f 82 81 83
f 82 83 78
f 78 83 84
f 81 207 83
f 81 206 207
f 219 207 206
f 219 206 220
f 220 206 205
f 218 207 219
f 218 211 207
f 205 206 81
f 87 205 81
f 87 204 205
f 203 204 87
f 86 203 87
f 221 205 204
f 211 83 207
f 210 83 211
f 217 210 211
f 80 87 81
f 235 66 236
f 192 235 236
f 236 66 232
f 193 236 232
f 88 194 195
f 192 236 193
f 191 235 192
f 80 190 191
f 90 91 88
f 199 85 90
f 80 86 87
f 198 201 85
f 224 201 198
f 86 202 203
f 222 204 203
f 224 74 225
f 221 204 222
f 220 205 221
f 69 219 220
f 74 64 70
f 218 219 69
f 217 211 218
f 63 68 64
f 214 215 63
f 216 210 217
f 210 84 83
f 78 84 79
f 215 208 209
f 77 78 79
f 214 208 215
f 61 214 65
f 111 212 213
f 75 111 110
f 126 110 113
f 116 122 121
f 121 122 118
f 121 124 125
f 121 120 124
f 76 113 127
f 77 76 78
f 78 189 82
f 187 238 188
f 187 106 238
f 189 237 233
f 233 62 234
f 61 67 62
f 60 238 58
f 92 130 93
f 61 59 97
f 98 112 97
f 94 95 96
f 132 96 95
f 109 132 95
f 131 132 109
f 158 132 131
f 158 42 132
f 132 100 96
f 99 114 98
f 135 115 114
f 159 100 132
f 40 128 135
f 132 41 159
f 132 42 41
f 40 49 50
f 157 42 158
f 156 50 49
f 131 157 158
f 160 155 156
f 131 109 108
f 109 95 94
f 103 104 101
f 92 93 94
f 58 133 93
f 58 238 106
f 101 104 105
f 123 106 187
f 120 123 124
f 101 102 103
f 102 107 103
f 119 161 107
f 118 120 121
f 129 118 122
f 186 161 119
f 129 4 2
f 186 1 161
f 3 160 1
f 3 2 4

