# https://github.com/mikedh/trimesh
v -0.02522053 0.02500081 -0.16369629
v -0.02521017 0.02466345 -0.16319352
v -0.02523136 0.02258734 -0.16429554
v -0.02521921 0.02265028 -0.16369340
v -0.02525095 0.02327948 -0.16524491
v -0.02524284 0.02281488 -0.16485661
v -0.02520410 0.02412929 -0.16290832
v -0.02520376 0.02352374 -0.16290757
v -0.02520923 0.02298890 -0.16319147
v -0.01878743 0.02402332 -0.16470940
v -0.01877492 0.02407945 -0.16465914
v -0.01922176 0.02500405 -0.16381773
v -0.01902245 0.02472216 -0.16407557
v -0.01884314 0.02442294 -0.16434859
v -0.01877254 0.02420696 -0.16454443
v -0.01877868 0.02424396 -0.16451101
v -0.01925218 0.02328270 -0.16536635
v -0.01894129 0.02371435 -0.16498430
v -0.01892082 0.02374667 -0.16495565
v -0.01882370 0.02392462 -0.16479748
v -0.01921329 0.02475743 -0.16340595
v -0.01922087 0.02498737 -0.16377410
v -0.01847879 0.02382865 -0.16425711
v -0.01925174 0.02324105 -0.16534519
v -0.01924614 0.02289904 -0.16507787
v -0.01924408 0.02281810 -0.16497806
v -0.01923856 0.02266912 -0.16470972
v -0.01922991 0.02257899 -0.16428515
v -0.01922125 0.02263955 -0.16385536
v -0.01923259 0.02259057 -0.16441700
v -0.01922044 0.02265349 -0.16381484
v -0.01921361 0.02284348 -0.16347219
v -0.01921046 0.02299212 -0.16331291
v -0.01920790 0.02316617 -0.16318187
v -0.01920482 0.02356874 -0.16301940
v -0.01920475 0.02400259 -0.16300438
v -0.01920500 0.02352697 -0.16302902
v -0.01920770 0.02441544 -0.16313863
v -0.01921140 0.02466667 -0.16331498
v -0.01920534 0.02413253 -0.16302976
f 21 22 23
f 21 23 39
f 23 38 39
f 38 2 39
f 38 7 2
f 40 7 38
f 40 36 7
f 36 40 23
f 35 36 23
f 37 35 23
f 35 37 8
f 8 37 34
f 8 34 9
f 33 9 34
f 33 34 23
f 32 33 23
f 31 32 23
f 31 4 32
f 31 29 4
f 4 29 28
f 28 29 23
f 30 28 23
f 28 30 3
f 3 30 27
f 3 27 6
f 27 26 6
f 26 27 23
f 25 26 23
f 24 25 23
f 24 23 17
f 18 17 23
f 19 18 23
f 20 19 23
f 10 20 23
f 11 10 23
f 23 15 11
f 16 15 23
f 14 16 23
f 14 23 13
f 5 24 17
f 5 25 24
f 6 25 5
f 6 26 25
f 27 30 23
f 4 28 3
f 32 4 9
f 29 31 23
f 32 9 33
f 7 35 8
f 34 37 23
f 7 36 35
f 40 38 23
f 39 2 21
f 22 13 23
f 12 13 22
f 22 1 12
f 22 2 1
f 21 2 22

