# https://github.com/mikedh/trimesh
v 0.03836636 -0.01778401 -0.16954491
v 0.03338885 -0.01790449 -0.16908672
v 0.02766429 -0.01751780 -0.28574154
v 0.02268678 -0.01763830 -0.28528336
v 0.02755834 -0.01750857 -0.28836280
v 0.02231219 -0.01763558 -0.28787971
v 0.02772840 -0.01749256 -0.29103485
v 0.02164699 -0.01763962 -0.29050788
v 0.02816332 -0.01747066 -0.29361022
v 0.02888381 -0.01744190 -0.29620075
v 0.02073516 -0.01765022 -0.29298416
v 0.02984722 -0.01740802 -0.29864448
v 0.01954477 -0.01766772 -0.29540241
v 0.03108068 -0.01736804 -0.30101660
v 0.03218348 -0.01732844 -0.30399537
v 0.01812990 -0.01769131 -0.29764745
v 0.03216122 -0.01731421 -0.30728844
v 0.03095618 -0.01732914 -0.31035316
v 0.01653770 -0.01772011 -0.29967794
v 0.01487502 -0.01774702 -0.30249792
v 0.01433063 -0.01774551 -0.30572608
v 0.01497659 -0.01771575 -0.30893534
v 0.01672743 -0.01766169 -0.31170103
v 0.02577981 -0.01743489 -0.31424186
v 0.02872969 -0.01737126 -0.31277925
v 0.02250153 -0.01751154 -0.31454515
v 0.01935147 -0.01759048 -0.31365725
v 0.01658469 -0.01166345 -0.31167415
v 0.01483385 -0.01171751 -0.30890846
v 0.03204073 -0.01133020 -0.30396846
v 0.03093795 -0.01136980 -0.30098972
v 0.01418789 -0.01174726 -0.30569920
v 0.01473228 -0.01174878 -0.30247101
v 0.02874107 -0.01144366 -0.29617387
v 0.03324612 -0.01190627 -0.16905984
v 0.03822363 -0.01178577 -0.16951801
v 0.03674196 -0.01174891 -0.18560505
v 0.03116992 -0.01161031 -0.24610282
v 0.02254404 -0.01164006 -0.28525648
v 0.03302727 -0.01165651 -0.22593690
v 0.03488461 -0.01170271 -0.20577097
v 0.01639497 -0.01172186 -0.29965109
v 0.01943456 -0.01166895 -0.29531723
v 0.02758567 -0.01149431 -0.29100797
v 0.02151413 -0.01164129 -0.29044911
v 0.02752155 -0.01151956 -0.28571466
v 0.02931258 -0.01156410 -0.26626873
v 0.03201849 -0.01131597 -0.30726156
v 0.02235878 -0.01151330 -0.31451824
v 0.01920872 -0.01159224 -0.31363037
v 0.03081345 -0.01133090 -0.31032628
v 0.02858695 -0.01137301 -0.31275237
v 0.02563708 -0.01143665 -0.31421497
v 0.03913432 -0.01864175 -0.16142741
v 0.03895165 -0.01096524 -0.16139300
v 0.03945721 -0.01996662 -0.15826812
v 0.03921182 -0.00965485 -0.15822189
v 0.03983509 -0.02212107 -0.15472937
v 0.03971770 -0.00615187 -0.15180469
v 0.04070627 -0.02287465 -0.14546320
v 0.03948757 -0.00751666 -0.15466391
v 0.04043809 -0.02378631 -0.14861628
v 0.04013050 -0.02349894 -0.15188244
v 0.04001198 -0.00587947 -0.14853601
v 0.04032388 -0.00680556 -0.14539117
v 0.04061164 -0.00880615 -0.14279120
v 0.04099075 -0.01808666 -0.14111324
v 0.04089909 -0.02088602 -0.14284535
v 0.04096899 -0.01485139 -0.14049876
v 0.04083672 -0.01161338 -0.14108422
v 0.03585921 -0.01173388 -0.14062606
v 0.03563413 -0.00892665 -0.14233303
v 0.03534637 -0.00692606 -0.14493300
v 0.03397415 -0.01108574 -0.16093484
v 0.03415682 -0.01876225 -0.16096924
v 0.03423431 -0.00977535 -0.15776372
v 0.03447969 -0.02008711 -0.15780994
v 0.03451006 -0.00763716 -0.15420574
v 0.03599149 -0.01497189 -0.14004059
v 0.03515299 -0.02361944 -0.15142427
v 0.03485758 -0.02224157 -0.15427120
v 0.03503448 -0.00599997 -0.14807785
v 0.03474020 -0.00627237 -0.15134652
v 0.03572875 -0.02299515 -0.14500503
v 0.03592158 -0.02100652 -0.14238718
v 0.03601325 -0.01820716 -0.14065507
v 0.03546059 -0.02390681 -0.14815812
v 0.03866187 -0.01094410 -0.16203505
v 0.03893798 -0.01122385 -0.16206932
v 0.03886970 -0.01196536 -0.16499938
v 0.03883779 -0.01208482 -0.16618361
v 0.03857055 -0.01183234 -0.16619709
v 0.03838627 -0.01066402 -0.16199955
v 0.03827395 -0.01126916 -0.16433886
v 0.03827264 -0.01140206 -0.16503465
v 0.03830331 -0.01157989 -0.16621102
v 0.03849220 -0.01863122 -0.16317573
v 0.03844860 -0.01839668 -0.16413087
v 0.03906612 -0.01800499 -0.16323124
v 0.03910823 -0.01837802 -0.16210139
v 0.03884574 -0.01867087 -0.16206968
v 0.03858377 -0.01896406 -0.16203676
v 0.03845646 -0.01801548 -0.16623989
v 0.03871138 -0.01775073 -0.16622363
v 0.03896631 -0.01748595 -0.16620782
v 0.03414057 -0.01105356 -0.16161887
v 0.03440426 -0.01076041 -0.16163301
v 0.03428612 -0.01108805 -0.16277106
v 0.03387659 -0.01134637 -0.16160344
v 0.03376132 -0.01168985 -0.16579296
v 0.03351353 -0.01195476 -0.16573161
v 0.03344466 -0.01209669 -0.16450001
v 0.03326567 -0.01221972 -0.16567071
v 0.03365437 -0.01787316 -0.16575815
v 0.03391446 -0.01812543 -0.16582181
v 0.03415941 -0.01830859 -0.16467163
v 0.03386414 -0.01813092 -0.16275240
v 0.03339420 -0.01762085 -0.16569491
v 0.03460177 -0.01906046 -0.16167022
v 0.03432444 -0.01878033 -0.16165350
v 0.03404684 -0.01850054 -0.16163549
v 0.03392556 -0.01121839 -0.16126823
v 0.03410190 -0.01862906 -0.16130146
v 0.03277453 -0.01241852 -0.16886127
v 0.03289348 -0.01741706 -0.16888368
v 0.03894490 -0.01109687 -0.16173026
v 0.03886649 -0.01727246 -0.16943349
v 0.03874755 -0.01227392 -0.16941108
v 0.03912124 -0.01850756 -0.16176347
v 0.02205818 -0.01215196 -0.28521290
v 0.03345097 -0.01185398 -0.16741803
v 0.02104846 -0.01215317 -0.29030371
v 0.01900967 -0.01218029 -0.29507637
v 0.01602968 -0.01223216 -0.29932523
v 0.02232482 -0.01201201 -0.31501839
v 0.01899977 -0.01209533 -0.31408119
v 0.01622993 -0.01217050 -0.31201628
v 0.01438184 -0.01222757 -0.30909693
v 0.01369999 -0.01225898 -0.30570939
v 0.01427462 -0.01226058 -0.30230188
v 0.03138059 -0.01186053 -0.30073825
v 0.03254466 -0.01181873 -0.30388251
v 0.03256245 -0.01181786 -0.30398521
v 0.03252118 -0.01180372 -0.30735853
v 0.03250502 -0.01180373 -0.30744034
v 0.03124919 -0.01181947 -0.31059352
v 0.03121587 -0.01182004 -0.31064644
v 0.02889899 -0.01186393 -0.31315437
v 0.02886559 -0.01186461 -0.31317937
v 0.02576519 -0.01193155 -0.31470391
v 0.02578523 -0.01193110 -0.31469825
v 0.02922680 -0.01193295 -0.29601684
v 0.02809406 -0.01198261 -0.29095224
v 0.02803120 -0.01200736 -0.28576270
v 0.02982246 -0.01205192 -0.26631415
v 0.03167982 -0.01209812 -0.24614823
v 0.03353715 -0.01214432 -0.22598229
v 0.03539450 -0.01219051 -0.20581637
v 0.03725185 -0.01223671 -0.18565045
v 0.03831949 -0.01173613 -0.16786617
v 0.02815014 -0.01700590 -0.28578511
v 0.03846481 -0.01784382 -0.16789354
v 0.02804626 -0.01699686 -0.28835499
v 0.02821300 -0.01698114 -0.29097465
v 0.02863939 -0.01695968 -0.29349950
v 0.02934575 -0.01693149 -0.29603925
v 0.03029027 -0.01689827 -0.29843506
v 0.03149956 -0.01685907 -0.30076069
v 0.02244377 -0.01701054 -0.31504077
v 0.02588413 -0.01693008 -0.31472632
v 0.02590417 -0.01692964 -0.31472066
v 0.02898455 -0.01686315 -0.31320176
v 0.02901793 -0.01686247 -0.31317678
v 0.03133481 -0.01681856 -0.31066886
v 0.03136815 -0.01681801 -0.31061596
v 0.03262396 -0.01680227 -0.30746275
v 0.03266360 -0.01681727 -0.30390492
v 0.03268139 -0.01681639 -0.30400762
v 0.03264013 -0.01680225 -0.30738091
v 0.01614862 -0.01723070 -0.29934764
v 0.01439356 -0.01725911 -0.30232430
v 0.01381894 -0.01725751 -0.30573177
v 0.01450078 -0.01722611 -0.30911934
v 0.01634888 -0.01716903 -0.31203869
v 0.01911872 -0.01709387 -0.31410357
v 0.01770960 -0.01720247 -0.29735696
v 0.01912862 -0.01717882 -0.29509878
v 0.02026379 -0.01716219 -0.29278511
v 0.02116741 -0.01715171 -0.29032612
v 0.02180988 -0.01714783 -0.28778076
v 0.02217713 -0.01715050 -0.28523532
v 0.03359631 -0.01796168 -0.16744541
v 0.03486376 -0.02004653 -0.15908329
v 0.03496771 -0.02052233 -0.15807907
v 0.03533820 -0.02263454 -0.15460971
v 0.03565002 -0.02408894 -0.15160462
v 0.03565989 -0.02411633 -0.15150453
v 0.03597471 -0.02439229 -0.14815702
v 0.03598212 -0.02438388 -0.14807437
v 0.03625777 -0.02342998 -0.14482875
v 0.03626221 -0.02340177 -0.14477310
v 0.03646130 -0.02133085 -0.14206547
v 0.03646313 -0.02129997 -0.14203753
v 0.03653510 -0.01496098 -0.13958853
v 0.03655829 -0.01835654 -0.14022960
v 0.03655806 -0.01837599 -0.14023712
v 0.03639662 -0.01156256 -0.14019914
v 0.03639547 -0.01154308 -0.14020650
v 0.03616118 -0.00861092 -0.14198065
v 0.03615788 -0.00857989 -0.14200832
v 0.03585993 -0.00649662 -0.14469732
v 0.03585415 -0.00646816 -0.14475273
v 0.03553273 -0.00549940 -0.14798972
v 0.03497136 -0.00721877 -0.15454061
v 0.03521430 -0.00577815 -0.15152255
v 0.03522288 -0.00575122 -0.15142220
v 0.03552492 -0.00549062 -0.14807229
v 0.03470103 -0.00931503 -0.15802884
v 0.03868303 -0.00921863 -0.15839536
v 0.03895336 -0.00712237 -0.15490714
v 0.03919629 -0.00568176 -0.15188909
v 0.03920488 -0.00565483 -0.15178874
v 0.03950692 -0.00539421 -0.14843883
v 0.03951474 -0.00540301 -0.14835626
v 0.03983615 -0.00637176 -0.14511926
v 0.03984194 -0.00640022 -0.14506386
v 0.04013988 -0.00848349 -0.14237484
v 0.04014319 -0.00851452 -0.14234719
v 0.04051710 -0.01486459 -0.13995506
v 0.04037862 -0.01146616 -0.14056568
v 0.04037747 -0.01144669 -0.14057304
v 0.04054030 -0.01826015 -0.14059614
v 0.04054008 -0.01827959 -0.14060366
v 0.04044514 -0.02120356 -0.14240406
v 0.04044332 -0.02123446 -0.14243202
v 0.04024422 -0.02330537 -0.14513963
v 0.04023978 -0.02333357 -0.14519531
v 0.03996411 -0.02428747 -0.14844091
v 0.03932020 -0.02253814 -0.15497623
v 0.03963203 -0.02399255 -0.15197116
v 0.03964190 -0.02401993 -0.15187106
v 0.03995671 -0.02429589 -0.14852355
v 0.03894972 -0.02042593 -0.15844561
v 0.03884577 -0.01995012 -0.15944982
f 1 2 3
f 2 1 192
f 125 2 192
f 192 115 125
f 125 115 114
f 125 114 118
f 113 125 118
f 124 125 113
f 124 113 111
f 112 111 113
f 112 108 111
f 109 108 112
f 112 117 109
f 109 117 121
f 117 120 121
f 120 123 121
f 120 75 123
f 75 109 123
f 75 122 109
f 74 122 75
f 74 75 76
f 76 218 74
f 74 218 107
f 74 107 106
f 106 107 108
f 93 108 107
f 93 107 219
f 93 219 57
f 57 219 220
f 57 220 61
f 59 61 220
f 59 60 61
f 61 60 62
f 60 238 62
f 60 237 238
f 200 238 237
f 200 237 201
f 84 200 201
f 199 200 84
f 87 199 84
f 87 198 199
f 197 198 87
f 197 241 198
f 198 241 242
f 241 62 242
f 241 63 62
f 240 63 241
f 240 58 63
f 239 58 240
f 196 239 240
f 196 240 197
f 80 196 197
f 195 196 80
f 80 81 195
f 77 195 81
f 77 194 195
f 243 195 194
f 243 194 244
f 244 194 193
f 244 193 102
f 54 244 102
f 56 244 54
f 54 55 56
f 55 54 126
f 126 54 89
f 88 126 89
f 88 89 90
f 89 100 90
f 90 100 99
f 90 99 105
f 99 104 105
f 99 103 104
f 98 103 99
f 98 116 103
f 115 103 116
f 115 162 103
f 97 116 98
f 97 119 116
f 116 119 120
f 102 119 97
f 97 101 102
f 97 100 101
f 129 101 100
f 54 101 129
f 97 98 99
f 162 104 103
f 162 127 104
f 1 127 162
f 1 161 127
f 161 157 127
f 161 156 157
f 155 156 161
f 161 154 155
f 155 154 46
f 46 47 155
f 46 39 47
f 47 39 38
f 38 39 40
f 40 39 35
f 40 35 41
f 41 35 37
f 158 41 37
f 158 37 159
f 127 158 159
f 159 128 127
f 127 128 105
f 105 128 91
f 128 92 91
f 128 96 92
f 95 92 96
f 95 90 92
f 94 90 95
f 95 110 94
f 94 110 108
f 96 110 95
f 96 131 110
f 160 131 96
f 160 35 131
f 35 124 131
f 35 130 124
f 36 35 160
f 128 36 160
f 128 37 36
f 131 111 110
f 160 96 128
f 90 91 92
f 159 37 128
f 157 41 158
f 35 36 37
f 157 40 41
f 39 130 35
f 130 39 132
f 132 39 45
f 132 45 133
f 188 132 133
f 188 133 187
f 187 11 188
f 188 11 8
f 188 8 189
f 189 8 6
f 7 6 8
f 5 6 7
f 163 5 7
f 163 7 164
f 164 153 163
f 165 153 164
f 165 152 153
f 166 152 165
f 165 10 166
f 166 10 12
f 166 12 167
f 167 12 14
f 12 13 14
f 12 11 13
f 14 13 15
f 15 13 16
f 186 16 13
f 19 16 186
f 186 180 19
f 186 134 180
f 180 134 140
f 33 140 134
f 33 134 42
f 33 42 34
f 31 33 34
f 31 32 33
f 29 32 31
f 30 29 31
f 30 31 141
f 141 31 152
f 167 141 152
f 168 141 167
f 141 168 142
f 142 168 177
f 168 14 177
f 142 177 143
f 143 177 178
f 177 15 178
f 178 15 17
f 178 17 179
f 144 178 179
f 144 179 145
f 145 179 176
f 145 176 146
f 145 146 51
f 51 146 147
f 146 175 147
f 147 175 174
f 147 174 148
f 148 174 173
f 148 173 149
f 149 173 172
f 172 173 25
f 24 172 25
f 24 25 26
f 26 170 24
f 170 171 24
f 150 171 170
f 150 170 169
f 169 135 150
f 185 135 169
f 185 136 135
f 184 136 185
f 184 137 136
f 50 136 137
f 50 137 28
f 30 50 28
f 30 49 50
f 48 49 30
f 30 143 48
f 143 144 48
f 48 51 49
f 49 51 52
f 49 52 53
f 150 49 53
f 150 53 151
f 151 53 149
f 52 149 53
f 28 137 138
f 183 138 137
f 182 138 183
f 182 139 138
f 181 139 182
f 181 140 139
f 32 139 140
f 20 181 182
f 20 182 21
f 20 21 18
f 18 21 22
f 18 22 23
f 27 18 23
f 23 185 27
f 26 18 27
f 27 169 26
f 22 184 23
f 22 183 184
f 21 183 22
f 18 19 20
f 19 181 20
f 29 138 139
f 21 182 183
f 28 138 29
f 49 136 50
f 183 137 184
f 23 184 185
f 49 135 136
f 27 185 169
f 135 49 150
f 151 171 150
f 151 172 171
f 169 170 26
f 26 25 18
f 25 174 18
f 24 171 172
f 149 172 151
f 52 148 149
f 25 173 174
f 147 148 52
f 174 175 18
f 18 175 176
f 18 176 17
f 17 16 18
f 51 147 52
f 48 145 51
f 146 176 175
f 48 144 145
f 179 17 176
f 143 178 144
f 30 142 143
f 141 142 30
f 28 29 30
f 29 139 32
f 152 31 34
f 34 42 43
f 34 43 44
f 153 34 44
f 153 44 154
f 44 43 45
f 44 45 46
f 134 43 42
f 133 43 134
f 32 140 33
f 180 140 181
f 186 133 134
f 19 180 181
f 18 16 19
f 186 13 187
f 15 16 17
f 177 14 15
f 167 14 168
f 10 11 12
f 165 9 10
f 9 8 10
f 167 152 166
f 152 34 153
f 164 9 165
f 163 153 154
f 164 7 9
f 161 5 163
f 161 3 5
f 3 4 5
f 5 4 6
f 190 6 4
f 190 4 191
f 191 130 190
f 125 130 191
f 191 4 125
f 7 8 9
f 189 6 190
f 190 132 189
f 10 8 11
f 187 13 11
f 187 133 186
f 189 132 188
f 133 45 43
f 190 130 132
f 156 38 40
f 46 45 39
f 155 47 38
f 154 44 46
f 163 154 161
f 155 38 156
f 156 40 157
f 127 157 158
f 127 105 104
f 105 91 90
f 99 100 97
f 89 129 100
f 94 88 90
f 93 88 94
f 93 55 88
f 54 129 89
f 88 55 126
f 56 55 57
f 56 57 58
f 54 102 101
f 102 193 119
f 193 77 119
f 119 77 75
f 56 243 244
f 239 243 56
f 239 195 243
f 193 194 77
f 81 82 77
f 77 82 83
f 216 83 82
f 216 82 217
f 223 216 217
f 223 217 224
f 64 223 224
f 64 224 65
f 224 225 65
f 65 225 226
f 225 212 226
f 225 213 212
f 73 212 213
f 73 213 82
f 211 212 73
f 72 211 73
f 72 210 211
f 209 210 72
f 71 209 72
f 71 208 209
f 231 209 208
f 231 208 230
f 230 70 231
f 231 70 228
f 66 228 70
f 66 227 228
f 227 210 228
f 226 227 66
f 226 211 227
f 70 60 66
f 60 65 66
f 69 60 70
f 69 68 60
f 68 236 60
f 68 235 236
f 234 235 68
f 67 234 68
f 67 233 234
f 206 234 233
f 206 233 205
f 205 86 206
f 206 86 203
f 85 203 86
f 84 85 86
f 85 202 203
f 201 202 85
f 201 236 202
f 202 235 203
f 205 79 86
f 79 80 86
f 86 80 87
f 79 71 80
f 80 71 73
f 79 207 71
f 204 207 79
f 230 207 204
f 204 229 230
f 205 229 204
f 205 232 229
f 229 232 69
f 69 232 67
f 229 69 230
f 204 79 205
f 233 232 205
f 203 234 206
f 232 233 67
f 203 235 234
f 202 236 235
f 67 68 69
f 230 69 70
f 230 208 207
f 228 209 231
f 207 208 71
f 228 210 209
f 227 211 210
f 71 72 73
f 226 212 211
f 65 226 66
f 224 213 225
f 60 64 65
f 222 223 64
f 59 222 64
f 59 221 222
f 221 215 222
f 221 214 215
f 220 214 221
f 214 78 215
f 215 78 83
f 78 214 76
f 76 77 78
f 222 215 216
f 224 217 213
f 222 216 223
f 217 82 213
f 215 83 216
f 77 83 78
f 81 73 82
f 80 73 81
f 195 239 196
f 56 58 239
f 57 63 58
f 57 62 63
f 197 240 241
f 80 197 87
f 198 242 199
f 199 242 238
f 86 87 84
f 84 201 85
f 201 237 236
f 199 238 200
f 236 237 60
f 242 62 238
f 59 64 60
f 220 221 59
f 61 62 57
f 219 214 220
f 219 218 214
f 57 55 93
f 94 108 93
f 107 218 219
f 76 214 218
f 76 75 77
f 74 106 122
f 122 106 109
f 119 75 120
f 117 116 120
f 114 116 117
f 109 121 123
f 112 118 117
f 106 108 109
f 108 110 111
f 131 124 111
f 124 130 125
f 113 118 112
f 117 118 114
f 114 115 116
f 192 162 115
f 125 4 2
f 192 1 162
f 3 2 4
f 3 161 1

