# https://github.com/mikedh/trimesh
v -0.01238088 0.01622671 -0.27988690
v -0.01237948 0.01623272 -0.27988687
v -0.01243333 0.01596593 -0.27988639
v -0.01238296 0.01621771 -0.27988693
v -0.01238226 0.01622071 -0.27988693
v -0.01238174 -0.01629621 -0.27988607
v -0.01241024 -0.01616364 -0.27988583
v -0.01237959 -0.01630545 -0.27988598
v -0.01238227 -0.01629390 -0.27988607
v -0.01251730 0.00809316 -0.27988508
v -0.01249677 0.00813303 -0.27985960
v -0.01248830 -0.00004690 -0.27984506
v -0.01251730 0.01490851 -0.27988544
v -0.01251080 0.01520591 -0.27988580
v -0.01251361 0.01420880 -0.27988341
v -0.01247036 0.01571321 -0.27988598
v -0.01249870 0.01527358 -0.27987975
v -0.01249832 0.01542499 -0.27988574
v -0.01251730 0.01419074 -0.27988583
v -0.01251372 0.01217440 -0.27988195
v -0.01251730 0.01215814 -0.27988526
v -0.01249800 -0.01436425 -0.27987099
v -0.01251730 -0.01418156 -0.27988496
v -0.01249622 -0.01232211 -0.27986488
v -0.01251729 -0.01222953 -0.27988464
v -0.01249134 -0.00823305 -0.27985367
v -0.01251730 -0.00816500 -0.27988467
v -0.01251729 -0.00003612 -0.27988485
v -0.01251209 -0.01429121 -0.27988175
v -0.01251082 -0.01527920 -0.27988499
v -0.01251729 -0.01498157 -0.27988467
v -0.01238281 -0.01629159 -0.27988607
v -0.01238326 -0.01628955 -0.27988607
v -0.01239720 -0.01622669 -0.27988592
v -0.01238809 -0.01626829 -0.27988601
v -0.01237742 -0.01631470 -0.27988586
v -0.01238618 -0.01626730 -0.27988124
v -0.01235914 -0.01638849 -0.27988207
v -0.01236688 -0.01618654 -0.27981439
v -0.01227238 -0.01667540 -0.27982432
v -0.01223779 -0.01677062 -0.27979049
v -0.01219724 -0.01591620 -0.27949968
v -0.01204798 -0.01718279 -0.27953815
v -0.01241538 -0.01567671 -0.27980340
v -0.01242144 -0.01464493 -0.27979136
v -0.01218268 -0.01301977 -0.27945462
v -0.01226911 0.00846567 -0.27955079
v -0.01226845 0.00841452 -0.27954960
v -0.01242818 0.00824792 -0.27977043
v -0.01223514 0.00567689 -0.27948976
v -0.01239303 -0.00006856 -0.27971071
v -0.01216633 -0.00914496 -0.27940565
v -0.01239838 -0.00841364 -0.27973336
v -0.01241379 -0.01257353 -0.27977043
v -0.01232049 0.01265053 -0.27964777
v -0.01245219 0.01237943 -0.27981555
v -0.01232076 0.01267586 -0.27964833
v -0.01241002 0.01609148 -0.27988666
v -0.01239708 0.01615402 -0.27988678
v -0.01239082 0.01618279 -0.27988684
v -0.01239523 0.01615663 -0.27988467
v -0.01236791 0.01628074 -0.27988559
v -0.01237021 0.01622227 -0.27985844
v -0.01231544 0.01647070 -0.27986342
v -0.01233741 0.01580562 -0.27971137
v -0.01229603 0.01653244 -0.27985001
v -0.01219047 0.01681967 -0.27974200
v -0.01250296 0.01221593 -0.27987146
v -0.01250484 0.01425500 -0.27987695
v -0.01246140 0.01443680 -0.27983606
v -0.01245636 0.01546253 -0.27984601
v -0.01241050 0.01597087 -0.27985424
v -0.01244463 0.01589736 -0.27988625
v -0.01234056 0.01475318 -0.27969089
v -0.01234072 0.01478474 -0.27969149
v -0.01249163 -0.01538414 -0.27987456
v -0.01245593 -0.01589596 -0.27988535
v -0.01244883 -0.01589128 -0.27987817
v -0.01243374 -0.01603706 -0.27988559
v -0.01241033 -0.01614255 -0.27988017
v -0.01242467 -0.01608812 -0.27988568
v -0.01176810 0.01751277 -0.27892673
v -0.01167214 0.01762467 -0.27833727
v -0.01167215 0.01540363 -0.27833721
v -0.01177739 -0.01757491 -0.27895483
v -0.01184936 -0.01748458 -0.27914923
v -0.01188769 -0.01561200 -0.27897257
v -0.01199231 -0.01727692 -0.27944332
v -0.01167226 -0.01569039 -0.27833638
v -0.01167226 -0.01769780 -0.27833632
v -0.01171719 -0.01764534 -0.27873191
v -0.01196572 0.01526867 -0.27912202
v -0.01194984 0.01309473 -0.27907950
v -0.01191057 0.00871774 -0.27898884
v -0.01206061 0.01708614 -0.27956021
v -0.01185675 0.01740155 -0.27916840
v -0.01167217 0.01318269 -0.27833715
v -0.01167218 0.00874064 -0.27833703
v -0.01185265 -0.00012333 -0.27886575
v -0.01167221 -0.00014333 -0.27833679
v -0.01185731 -0.00900370 -0.27888781
v -0.01167223 -0.00902739 -0.27833655
v -0.01187764 -0.01341918 -0.27894217
v -0.01167225 -0.01346937 -0.27833644
v -0.01164840 -0.01775569 -0.27612969
v -0.01059029 -0.02756997 -0.17176971
v -0.01054388 -0.02849443 -0.17244186
v -0.01035396 -0.02741241 -0.17689012
v -0.01036190 -0.01631199 -0.17644235
v -0.01038998 -0.01789637 -0.17544065
v -0.01047309 -0.02036069 -0.17360009
v -0.01048775 -0.02067246 -0.17333980
v -0.01061334 -0.02271566 -0.17145109
v -0.01061386 -0.02272253 -0.17144416
v -0.01064944 -0.02331212 -0.17098169
v -0.01067833 -0.02415654 -0.17062238
v -0.01068189 -0.02431374 -0.17057897
v -0.01068370 -0.02444187 -0.17055710
v -0.01068388 -0.02531605 -0.17055580
v -0.01068213 -0.02544368 -0.17057726
v -0.01065897 -0.02626954 -0.17086445
v -0.01064064 -0.02664567 -0.17109761
v -0.01034353 -0.00002383 -0.18089774
v -0.01034336 -0.00287325 -0.18077143
v -0.01035236 -0.02565669 -0.18312719
v -0.01033841 0.01109897 -0.17889489
v -0.01033858 0.01036901 -0.17915611
v -0.01034999 0.02559592 -0.18310276
v -0.01033948 0.00883880 -0.17964031
v -0.01033991 0.00823855 -0.17980751
v -0.01034183 0.00544877 -0.18042319
v -0.01034211 0.00495908 -0.18050452
v -0.01034249 0.00416831 -0.18061946
v -0.01034337 0.00131390 -0.18086880
v -0.01034274 -0.00499967 -0.18050928
v -0.01034116 -0.00780765 -0.17993788
v -0.01034076 -0.00837780 -0.17978950
v -0.01033932 -0.01110425 -0.17892042
v -0.01034263 -0.01373143 -0.17781445
v -0.01034750 -0.01477084 -0.17729796
v -0.01034653 -0.02615098 -0.18136844
v -0.01049165 0.02074377 -0.17321733
v -0.01040422 0.01850651 -0.17496742
v -0.01035715 0.02744581 -0.17650904
v -0.01036141 0.01639999 -0.17634684
v -0.01033938 0.02648984 -0.17994021
v -0.01034597 0.01472582 -0.17728378
v -0.01033883 0.01229115 -0.17842440
v -0.01061204 0.02266995 -0.17142300
v -0.01061154 0.02266322 -0.17142980
v -0.01054671 0.02172159 -0.17234442
v -0.01054155 0.02843272 -0.17241430
v -0.01058800 0.02751152 -0.17174563
v -0.01063805 0.02659050 -0.17107700
v -0.01064385 0.02648295 -0.17100236
v -0.01067330 0.02569052 -0.17063141
v -0.01067615 0.02556301 -0.17059621
v -0.01068336 0.02469315 -0.17050828
v -0.01068055 0.02435408 -0.17054318
v -0.01065618 0.02347246 -0.17084828
v -0.01064940 0.02331125 -0.17093462
v -0.01062190 0.02280940 -0.17129181
v -0.01061406 0.02269713 -0.17139603
v -0.01037199 0.02462967 -0.18665175
v -0.01042509 0.02340441 -0.19151476
v -0.01071073 0.02024074 -0.20993114
v -0.01066256 -0.02072294 -0.20650533
v -0.01074125 -0.01996306 -0.21342476
v -0.01074224 0.01990842 -0.21326052
v -0.01128191 0.01874233 -0.23760720
v -0.01110735 0.01879478 -0.23493074
v -0.01108129 -0.01887565 -0.23458479
v -0.01090260 -0.01899556 -0.23072147
v -0.01076919 -0.01969064 -0.21676779
v -0.01083528 -0.01928070 -0.22360171
v -0.01083261 0.01921082 -0.22358663
v -0.01086311 -0.01913728 -0.22686744
v -0.01086343 0.01905229 -0.22722815
v -0.01090742 0.01890254 -0.23143856
v -0.01129808 -0.01879559 -0.23760808
v -0.01134803 -0.01862210 -0.24411704
v -0.01133891 0.01857811 -0.24308276
v -0.01135500 -0.01859839 -0.24500951
v -0.01136120 -0.01857703 -0.24580891
v -0.01149678 0.01808704 -0.26105610
v -0.01147741 -0.01821680 -0.25897577
v -0.01155049 -0.01801226 -0.26645303
v -0.01162538 -0.01781354 -0.27392602
v -0.01055967 -0.02178995 -0.19959453
v -0.01056007 -0.02178510 -0.19962160
v -0.01050512 0.02233097 -0.19640079
v -0.01041359 -0.02391085 -0.18974672
v -0.01042248 -0.02374366 -0.19042781
v -0.01051100 -0.02239796 -0.19642177
v -0.01067557 0.02057254 -0.20711929
v -0.01059711 0.02131626 -0.20197523
v -0.01056894 0.02160952 -0.20023431
v -0.01547342 0.02847359 -0.17234357
v -0.01633310 0.02813280 -0.17207904
v -0.01671356 0.02794095 -0.17193224
v -0.01782582 0.02720364 -0.17137516
v -0.01850403 0.02659418 -0.17091958
v -0.02000815 0.02435844 -0.17035627
v -0.01954961 0.02523352 -0.17035358
v -0.01899861 0.02603434 -0.17058916
v -0.01546150 -0.02853527 -0.17237142
v -0.01632472 -0.02819745 -0.17210859
v -0.01746362 -0.02755336 -0.17161776
v -0.01811597 -0.02705319 -0.17124134
v -0.01855340 -0.02664923 -0.17093915
v -0.02009757 -0.02431788 -0.17038967
v -0.01977120 -0.02499333 -0.17034097
v -0.01923271 -0.02585189 -0.17050891
v -0.01568303 -0.02036485 -0.17349371
v -0.02081701 0.02075273 -0.17300512
v -0.02106100 0.01854579 -0.17472713
v -0.02125587 0.01619487 -0.17625374
v -0.02140074 0.01371562 -0.17756833
v -0.02150527 0.01112895 -0.17866088
v -0.02157690 0.00845630 -0.17952523
v -0.02162240 0.00571752 -0.18015164
v -0.02164814 0.00293391 -0.18053433
v -0.02165587 0.00012733 -0.18067278
v -0.02164857 -0.00268046 -0.18056445
v -0.02162632 -0.00546773 -0.18020950
v -0.02158436 -0.00821307 -0.17961223
v -0.02151786 -0.01089501 -0.17877692
v -0.02142175 -0.01349227 -0.17770852
v -0.02128725 -0.01598475 -0.17641807
v -0.02110397 -0.01835226 -0.17491594
v -0.02089293 -0.02037100 -0.17338569
v -0.01548479 0.02330666 -0.17083691
v -0.01533843 0.02396890 -0.17054832
v -0.02007494 0.02420718 -0.17038383
v -0.02037800 0.02338842 -0.17068444
v -0.02054175 0.02270382 -0.17119633
v -0.01553934 0.02245220 -0.17154755
v -0.02040146 -0.02349342 -0.17067307
v -0.01549763 -0.02338811 -0.17083637
v -0.02056293 -0.02282577 -0.17114766
v -0.01555962 -0.02246431 -0.17160626
v -0.02057379 -0.02275858 -0.17121337
v -0.01555057 -0.02067768 -0.17323540
v -0.02087423 -0.02054340 -0.17324390
v -0.01412503 0.02881359 -0.17261747
v -0.01238419 0.02900667 -0.17279284
v -0.01083987 0.02900641 -0.17282408
v -0.01048885 0.02850642 -0.17246878
v -0.01045586 0.02859593 -0.17253435
v -0.01058272 0.02892251 -0.17276850
v -0.01074553 0.02899657 -0.17281887
v -0.01047254 0.02878063 -0.17266789
v -0.01045130 0.02870099 -0.17261060
v -0.01067469 -0.02903484 -0.17283155
v -0.01053505 -0.02893744 -0.17276368
v -0.01084251 -0.02906771 -0.17285199
v -0.01049387 -0.02888029 -0.17272303
v -0.01238296 -0.02906792 -0.17282081
v -0.01045854 -0.02878889 -0.17265737
v -0.01045689 -0.02866551 -0.17256784
v -0.01394600 -0.02890692 -0.17267209
v -0.01047411 -0.02860525 -0.17252374
v -0.01289155 -0.01568539 -0.28028145
v -0.01278097 -0.01637892 -0.28028360
v -0.01324946 -0.01637891 -0.28027445
v -0.01278097 0.01630574 -0.28028446
v -0.01289163 0.01561156 -0.28028229
v -0.01324673 0.01630575 -0.28027534
v -0.01292510 0.01490850 -0.28028160
v -0.01389115 0.01076564 -0.28026262
v -0.01292510 -0.01498308 -0.28028083
v -0.01416308 0.00794455 -0.28025723
v -0.01432948 0.00568750 -0.28025389
v -0.01378433 -0.01180504 -0.28026411
v -0.01428865 -0.00635559 -0.28025436
v -0.01450468 -0.00106111 -0.28025031
v -0.01443168 0.00373510 -0.28025186
v -0.01320482 -0.01678120 -0.28023443
v -0.01260114 -0.01710941 -0.28014889
v -0.01313431 -0.01740575 -0.27999288
v -0.01237206 -0.01769454 -0.27979785
v -0.01307475 -0.01791331 -0.27956048
v -0.01212888 -0.01813193 -0.27925885
v -0.01303275 -0.01824979 -0.27898523
v -0.01197190 -0.01835821 -0.27858591
v -0.01301385 -0.01837820 -0.27833018
v -0.01195756 -0.01837821 -0.27835086
v -0.01271497 -0.01928397 -0.24436626
v -0.01272040 -0.01926744 -0.24499717
v -0.01165119 -0.01926727 -0.24502492
v -0.01277502 -0.01909822 -0.25135016
v -0.01176985 -0.01888975 -0.25899148
v -0.01297062 -0.01850061 -0.27357763
v -0.01191279 -0.01849180 -0.27394071
v -0.01294203 -0.01858286 -0.27040887
v -0.01282988 -0.01892454 -0.25770301
v -0.01253200 -0.01995385 -0.22342791
v -0.01261010 -0.01961349 -0.23229109
v -0.01118854 -0.01967577 -0.23037536
v -0.01266553 -0.01943403 -0.23864406
v -0.01159648 -0.01946211 -0.23761603
v -0.01137547 -0.01954631 -0.23458065
v -0.01116246 -0.01980251 -0.22689177
v -0.01113305 -0.01995386 -0.22345528
v -0.01249821 -0.02016483 -0.21959303
v -0.01107972 -0.02027223 -0.21797295
v -0.01243272 -0.02075899 -0.21204402
v -0.01104059 -0.02062669 -0.21348208
v -0.01102801 -0.02075917 -0.21207154
v -0.01096144 -0.02138482 -0.20658779
v -0.01234291 -0.02223017 -0.20092252
v -0.01087766 -0.02223034 -0.20095119
v -0.01085939 -0.02244233 -0.19973463
v -0.01085899 -0.02244714 -0.19970767
v -0.01227133 -0.02438986 -0.19050880
v -0.01071298 -0.02438028 -0.19057876
v -0.01221630 -0.02662827 -0.18210085
v -0.01064584 -0.02679339 -0.18155064
v -0.01219358 -0.02750647 -0.17902921
v -0.01064402 -0.02719790 -0.18013823
v -0.01068858 -0.02831743 -0.17607476
v -0.01064836 -0.02750645 -0.17905957
v -0.01288487 0.01867892 -0.26405683
v -0.01178859 0.01876064 -0.26107171
v -0.01294144 0.01851021 -0.27040985
v -0.01195740 0.01830512 -0.27835181
v -0.01294858 0.01848944 -0.27120423
v -0.01301327 0.01830513 -0.27833116
v -0.01282929 0.01885256 -0.25770399
v -0.01277441 0.01902657 -0.25135118
v -0.01163556 0.01924648 -0.24309815
v -0.01266491 0.01936305 -0.23864509
v -0.01260948 0.01954286 -0.23229213
v -0.01140125 0.01946567 -0.23492548
v -0.01271979 0.01919612 -0.24499820
v -0.01270778 0.01923270 -0.24360383
v -0.01159439 0.01939120 -0.23761567
v -0.01151617 0.01942796 -0.23626950
v -0.01242960 0.02071795 -0.21175548
v -0.01102732 0.02071844 -0.21178302
v -0.01104207 0.02056209 -0.21343365
v -0.01249757 0.02009486 -0.21959409
v -0.01112740 0.01989918 -0.22314069
v -0.01252857 0.01989921 -0.22311327
v -0.01116343 0.01971203 -0.22740377
v -0.01120485 0.01957006 -0.23145191
v -0.01097379 0.02123540 -0.20719920
v -0.01233996 0.02221252 -0.20062372
v -0.01089645 0.02196677 -0.20213471
v -0.01226862 0.02439524 -0.19020823
v -0.01072670 0.02404478 -0.19169746
v -0.01087265 0.02221437 -0.20065279
v -0.01219086 0.02759818 -0.17846744
v -0.01066451 0.02818125 -0.17634369
v -0.01063459 0.02759814 -0.17849788
v -0.01221545 0.02656028 -0.18210225
v -0.01063673 0.02713401 -0.18012418
v -0.01070772 0.02439723 -0.19023918
v -0.01254242 0.01490850 -0.28002122
v -0.01254741 -0.01498169 -0.28003320
v -0.01277916 -0.01498254 -0.28025630
v -0.01276698 0.01490851 -0.28025237
v -0.01263039 0.01490850 -0.28016040
v -0.01263993 -0.01498203 -0.28016913
v -0.01271080 0.01663636 -0.28025872
v -0.01317324 0.01697019 -0.28016320
v -0.01269534 0.01669891 -0.28024760
v -0.01310646 0.01756007 -0.27983582
v -0.01246872 0.01739980 -0.27996516
v -0.01258970 0.01706598 -0.28013885
v -0.01208477 0.01812532 -0.27912807
v -0.01233711 0.01769320 -0.27973357
v -0.01242186 0.01751153 -0.27988729
v -0.01305348 0.01800651 -0.27933136
v -0.01303317 0.01816791 -0.27900901
v -0.01302091 0.01825899 -0.27870962
v -0.01408920 0.00805613 -0.27038479
v -0.01412590 0.00800022 -0.27532107
v -0.01447185 0.00087189 -0.27531394
v -0.01343966 -0.01446774 -0.27533656
v -0.01318897 -0.01637118 -0.27040347
v -0.01339819 -0.01456786 -0.27039897
v -0.01313186 0.01729877 -0.27930319
v -0.01396795 0.00939828 -0.27038738
v -0.01345576 0.01401111 -0.27039847
v -0.01318149 0.01634062 -0.27040449
v -0.01346760 -0.01399113 -0.27039748
v -0.01418896 -0.00683463 -0.27038231
v -0.01422499 -0.00678786 -0.27531946
v -0.01444171 0.00015532 -0.27037716
v -0.01443755 0.00087830 -0.27037725
v -0.01271002 -0.01636268 -0.28027833
v -0.01241242 -0.01629557 -0.28003508
v -0.01263852 -0.01634639 -0.28025892
v -0.01250261 -0.01631562 -0.28017142
v -0.01263512 -0.01634561 -0.28025764
v -0.01241241 0.01622239 -0.28003594
v -0.01250260 0.01624245 -0.28017229
v -0.01263851 0.01627321 -0.28025979
v -0.01222065 -0.01689565 -0.27991202
v -0.01170723 -0.01772570 -0.27905056
v -0.01161430 -0.01777266 -0.27833888
v -0.01251704 -0.01710823 -0.28014269
v -0.01175344 -0.01832229 -0.27835155
v -0.01185856 -0.01836580 -0.27835158
v -0.01189986 -0.01831143 -0.27876735
v -0.01243930 -0.01707171 -0.28013095
v -0.01217416 -0.01768601 -0.27975500
v -0.01225856 -0.01773492 -0.27975139
v -0.01212083 -0.01798232 -0.27947560
v -0.01203113 -0.01793138 -0.27948645
v -0.01209442 -0.01762083 -0.27973843
v -0.01236485 -0.01702905 -0.28010032
v -0.01202894 -0.01754397 -0.27970028
v -0.01230023 -0.01698310 -0.28005099
v -0.01198555 -0.01746321 -0.27964365
v -0.01196750 -0.01738711 -0.27957541
v -0.01157197 -0.01787121 -0.27834186
v -0.01157044 -0.01787691 -0.27834201
v -0.01170652 -0.01783340 -0.27910006
v -0.01155804 -0.01800124 -0.27834535
v -0.01158726 -0.01812990 -0.27834836
v -0.01163219 -0.01807343 -0.27876821
v -0.01165687 -0.01824219 -0.27835050
v -0.01170146 -0.01818449 -0.27877960
v -0.01179660 -0.01826548 -0.27877846
v -0.01199484 -0.01817782 -0.27914724
v -0.01174114 -0.01794670 -0.27913862
v -0.01180885 -0.01804944 -0.27915969
v -0.01189838 -0.01812830 -0.27916148
v -0.01156807 -0.01788867 -0.27392852
v -0.01181397 -0.01847943 -0.27394137
v -0.01170910 -0.01843615 -0.27394128
v -0.01161273 -0.01835652 -0.27394015
v -0.01154304 -0.01824489 -0.27393794
v -0.01151337 -0.01811687 -0.27393493
v -0.01152502 -0.01799291 -0.27393165
v -0.01142199 -0.01829206 -0.25897837
v -0.01138075 -0.01839623 -0.25898162
v -0.01137073 -0.01851931 -0.25898507
v -0.01140136 -0.01864588 -0.25898826
v -0.01147120 -0.01875606 -0.25899065
v -0.01156712 -0.01883467 -0.25899187
v -0.01167145 -0.01887750 -0.25899208
v -0.01130054 -0.01867457 -0.24501191
v -0.01126094 -0.01877871 -0.24501494
v -0.01125242 -0.01890104 -0.24501820
v -0.01128397 -0.01902632 -0.24502125
v -0.01135394 -0.01913515 -0.24502361
v -0.01144948 -0.01921278 -0.24502495
v -0.01155324 -0.01925513 -0.24502531
v -0.01122260 -0.01891476 -0.23760870
v -0.01140014 -0.01941184 -0.23761474
v -0.01125808 -0.01927874 -0.23761365
v -0.01130163 -0.01933475 -0.23761417
v -0.01119608 -0.01909885 -0.23761132
v -0.01119655 -0.01910368 -0.23761140
v -0.01120286 -0.01898045 -0.23760957
v -0.01097821 -0.01918258 -0.23460180
v -0.01098575 -0.01905997 -0.23459767
v -0.01102460 -0.01895531 -0.23459159
v -0.01101072 -0.01930769 -0.23460281
v -0.01108126 -0.01941593 -0.23460029
v -0.01117679 -0.01949282 -0.23459493
v -0.01128008 -0.01953454 -0.23458791
v -0.01084594 -0.01907610 -0.23072343
v -0.01080758 -0.01921770 -0.22687103
v -0.01080757 -0.01918073 -0.23072594
v -0.01077040 -0.01932202 -0.22687544
v -0.01080040 -0.01930266 -0.23072891
v -0.01076423 -0.01944339 -0.22688031
v -0.01083293 -0.01942668 -0.23073193
v -0.01079739 -0.01956676 -0.22688499
v -0.01090323 -0.01953391 -0.23073457
v -0.01086782 -0.01967339 -0.22688873
v -0.01099854 -0.01961023 -0.23073645
v -0.01096280 -0.01974927 -0.22689107
v -0.01110192 -0.01965180 -0.23073749
v -0.01106560 -0.01979067 -0.22689198
v -0.01090323 -0.02007770 -0.22017919
v -0.01094348 -0.02061488 -0.21348180
v -0.01064823 -0.02014713 -0.21344209
v -0.01068558 -0.02004314 -0.21343243
v -0.01080826 -0.02000191 -0.22017582
v -0.01073786 -0.01989545 -0.22017026
v -0.01070467 -0.01977229 -0.22016314
v -0.01071077 -0.01965110 -0.22015560
v -0.01064194 -0.02026821 -0.21345304
v -0.01067505 -0.02039134 -0.21346386
v -0.01074550 -0.02049779 -0.21347287
v -0.01084059 -0.02057357 -0.21347891
v -0.01086431 -0.02137292 -0.20658782
v -0.01076214 -0.02243060 -0.19973397
v -0.01065904 -0.02238964 -0.19972819
v -0.01076132 -0.02133157 -0.20658405
v -0.01056372 -0.02231447 -0.19971618
v -0.01066611 -0.02125582 -0.20657563
v -0.01054663 -0.02229489 -0.19971293
v -0.01059560 -0.02114945 -0.20656274
v -0.01049312 -0.02220888 -0.19969836
v -0.01060668 -0.02080243 -0.20651676
v -0.01050416 -0.02186413 -0.19963656
v -0.01056906 -0.02090587 -0.20653103
v -0.01046653 -0.02196692 -0.19965550
v -0.01056257 -0.02102654 -0.20654707
v -0.01046004 -0.02208681 -0.19967702
v -0.01046350 -0.02211237 -0.19968155
v -0.01050375 -0.02186896 -0.19960950
v -0.01076173 -0.02243542 -0.19970703
v -0.01065864 -0.02239446 -0.19970123
v -0.01056331 -0.02231929 -0.19968921
v -0.01054623 -0.02229973 -0.19968596
v -0.01049273 -0.02221371 -0.19967137
v -0.01046311 -0.02211721 -0.19965453
v -0.01045965 -0.02209165 -0.19965002
v -0.01046612 -0.02197177 -0.19962846
v -0.01048159 -0.02191826 -0.19961867
v -0.01035583 -0.02381196 -0.19044554
v -0.01031909 -0.02391340 -0.19047073
v -0.01029031 -0.02622823 -0.18139058
v -0.01054844 -0.02678226 -0.18154773
v -0.01061592 -0.02436879 -0.19057733
v -0.01044506 -0.02674247 -0.18153666
v -0.01051302 -0.02432859 -0.19056901
v -0.01034946 -0.02666910 -0.18151601
v -0.01041780 -0.02425486 -0.19055241
v -0.01027868 -0.02656579 -0.18148679
v -0.01034703 -0.02415127 -0.19052821
v -0.01024563 -0.02644625 -0.18145281
v -0.01031340 -0.02403137 -0.19049951
v -0.01025235 -0.02632884 -0.18141936
v -0.01057745 -0.02805245 -0.17706507
v -0.01047077 -0.02801865 -0.17705412
v -0.01036901 -0.02794906 -0.17703372
v -0.01029098 -0.02784564 -0.17700469
v -0.01025227 -0.02772212 -0.17697102
v -0.01025667 -0.02759894 -0.17693821
v -0.01029537 -0.02749311 -0.17691062
v -0.01161190 0.01770336 -0.27833992
v -0.01225767 0.01766167 -0.27975219
v -0.01189895 0.01823796 -0.27876848
v -0.01185903 0.01829285 -0.27835253
v -0.01175451 0.01824990 -0.27835253
v -0.01163460 0.01800591 -0.27877003
v -0.01174334 0.01787898 -0.27914047
v -0.01181088 0.01797919 -0.27916044
v -0.01254827 0.01664927 -0.28022927
v -0.01243947 0.01700158 -0.28013191
v -0.01230234 0.01691459 -0.28005442
v -0.01203137 0.01747480 -0.27970326
v -0.01209635 0.01754996 -0.27973992
v -0.01189906 0.01805606 -0.27916184
v -0.01217482 0.01761368 -0.27975577
v -0.01199377 0.01810465 -0.27914780
v -0.01170385 0.01811403 -0.27878076
v -0.01179758 0.01819290 -0.27877939
v -0.01198745 0.01739549 -0.27964854
v -0.01170738 0.01776789 -0.27910349
v -0.01196788 0.01732018 -0.27958208
v -0.01170566 0.01766123 -0.27905542
v -0.01197113 0.01725524 -0.27951172
v -0.01173230 0.01757085 -0.27900395
v -0.01222187 0.01682797 -0.27991921
v -0.01231359 0.01732513 -0.27997246
v -0.01165827 0.01817081 -0.27835152
v -0.01158832 0.01805972 -0.27834937
v -0.01155813 0.01793198 -0.27834642
v -0.01156923 0.01780795 -0.27834308
v -0.01217392 0.01721116 -0.27990595
v -0.01028247 0.02656682 -0.17996250
v -0.01056487 0.02817061 -0.17633866
v -0.01030770 0.02761371 -0.17618775
v -0.01026940 0.02771530 -0.17621291
v -0.01026236 0.02783371 -0.17624328
v -0.01029517 0.02795407 -0.17627525
v -0.01036586 0.02805782 -0.17630400
v -0.01046146 0.02813120 -0.17632560
v -0.01024373 0.02666740 -0.17999151
v -0.01023633 0.02678511 -0.18002534
v -0.01026896 0.02690520 -0.18005972
v -0.01033969 0.02700906 -0.18008929
v -0.01043550 0.02708284 -0.18011016
v -0.01053912 0.02712282 -0.18012130
v -0.01047297 0.02522310 -0.18680519
v -0.01047497 0.02179136 -0.20026731
v -0.01060762 0.02099977 -0.20717457
v -0.01057474 0.02087661 -0.20715940
v -0.01068206 0.02026692 -0.21408856
v -0.01064903 0.02014365 -0.21407799
v -0.01074127 0.01977547 -0.22102338
v -0.01070812 0.01965221 -0.22101673
v -0.01080187 0.01945400 -0.22797021
v -0.01076884 0.01933052 -0.22796577
v -0.01077517 0.01920911 -0.22796117
v -0.01071428 0.01953096 -0.22100979
v -0.01065544 0.02002250 -0.21406695
v -0.01058151 0.02075570 -0.20714392
v -0.01096720 0.01963678 -0.22797607
v -0.01090664 0.01995790 -0.22103205
v -0.01084759 0.02044944 -0.21410221
v -0.01077338 0.02118220 -0.20719534
v -0.01055489 0.02356554 -0.19354410
v -0.01037760 0.02515006 -0.18678550
v -0.01027935 0.02480951 -0.18669707
v -0.01027336 0.02492739 -0.18672729
v -0.01030682 0.02504697 -0.18675834
v -0.01045960 0.02349117 -0.19352908
v -0.01066718 0.02221503 -0.20033765
v -0.01036168 0.02314719 -0.19345388
v -0.01035557 0.02326592 -0.19348051
v -0.01038891 0.02338671 -0.19350693
v -0.01057181 0.02213963 -0.20032610
v -0.01105039 0.01887480 -0.23493776
v -0.01081343 0.01908705 -0.23144697
v -0.01080663 0.01920875 -0.23145103
v -0.01083938 0.01933271 -0.23145412
v -0.01090967 0.01943996 -0.23145567
v -0.01046829 0.02191143 -0.20028821
v -0.01050124 0.02203376 -0.20030889
v -0.01067809 0.02110634 -0.20718709
v -0.01075248 0.02037353 -0.21409698
v -0.01081167 0.01988202 -0.22102872
v -0.01087221 0.01956076 -0.22797379
v -0.01100471 0.01951636 -0.23145556
v -0.01130594 0.01945390 -0.23493305
v -0.01120272 0.01941222 -0.23494042
v -0.01110722 0.01933536 -0.23494616
v -0.01103667 0.01922719 -0.23494893
v -0.01100413 0.01910211 -0.23494807
v -0.01101160 0.01897950 -0.23494394
v -0.01140479 0.01934237 -0.23761912
v -0.01126360 0.01921339 -0.23761886
v -0.01121931 0.01885692 -0.23761153
v -0.01119873 0.01903666 -0.23761602
v -0.01128250 0.01865825 -0.24308527
v -0.01124428 0.01876264 -0.24308826
v -0.01123717 0.01888453 -0.24309151
v -0.01126975 0.01900873 -0.24309452
v -0.01153827 0.01923449 -0.24309853
v -0.01143518 0.01919277 -0.24309817
v -0.01134001 0.01911622 -0.24309684
v -0.01143871 0.01816657 -0.26105881
v -0.01139859 0.01827106 -0.26106206
v -0.01138978 0.01839388 -0.26106551
v -0.01142134 0.01851961 -0.26106864
v -0.01149149 0.01862865 -0.26107094
v -0.01158712 0.01870629 -0.26107216
v -0.01169083 0.01874854 -0.26107231
v -0.01390762 -0.02814325 -0.17592852
v -0.01588838 -0.02745432 -0.17589730
v -0.01556024 -0.02591656 -0.18203956
v -0.02025054 -0.02056986 -0.17583695
v -0.01936490 -0.01944669 -0.18197235
v -0.01803678 -0.02313814 -0.18199502
v -0.01437268 0.00011350 -0.25769150
v -0.01344211 -0.01726701 -0.25769499
v -0.01432615 -0.01839690 -0.23227751
v -0.01457460 -0.01789147 -0.23227657
v -0.01385495 -0.01845004 -0.23863158
v -0.01417346 -0.01919297 -0.22593051
v -0.01434422 -0.01964115 -0.21958700
v -0.01476356 -0.01925895 -0.21958646
v -0.01329471 -0.01969036 -0.22593558
v -0.01334299 -0.02008395 -0.21959041
v -0.01526728 0.01127173 -0.23229472
v -0.01461062 0.01072058 -0.24498478
v -0.01458750 0.00007623 -0.24499312
v -0.01621811 0.00595578 -0.21965127
v -0.01616744 0.01184762 -0.21962568
v -0.01331662 0.01680112 -0.26405045
v -0.01600710 0.01471636 -0.21960884
v -0.01557324 0.01750437 -0.21959290
v -0.01491529 0.01666932 -0.23227818
v -0.01387705 0.01843845 -0.23863211
v -0.01372560 0.01806462 -0.24498540
v -0.01412033 0.01708034 -0.24498111
v -0.01331161 0.01965298 -0.22593629
v -0.01326464 0.01933953 -0.23228666
v -0.01403683 0.01880241 -0.23228009
v -0.01320875 -0.01910060 -0.23863842
v -0.01749932 -0.02620074 -0.17587279
v -0.01866953 -0.02447172 -0.17585641
v -0.02111920 -0.00797207 -0.18194449
v -0.01593529 0.02737233 -0.17589781
v -0.01753798 0.02606327 -0.17587341
v -0.01870422 0.02427668 -0.17585701
v -0.02029220 0.02033603 -0.17583720
v -0.02114056 0.00764704 -0.18194449
v -0.02139272 -0.00020962 -0.18194053
v -0.02020915 -0.01568782 -0.18195857
v -0.01375206 -0.02650834 -0.18207277
v -0.01358751 -0.02347450 -0.19440915
v -0.01351607 -0.02227994 -0.20065215
v -0.01345246 -0.02133267 -0.20693842
v -0.01317141 -0.01882372 -0.24499157
v -0.01344781 0.01724464 -0.25769579
v -0.01318088 0.01878027 -0.24499236
v -0.01358286 0.01766722 -0.25134015
v -0.01393318 0.02807422 -0.17592949
v -0.01322095 0.01905945 -0.23863919
v -0.01459486 0.01788542 -0.23227711
v -0.01512530 0.01875463 -0.21958776
v -0.01435070 0.01839241 -0.23227800
v -0.01479566 0.01925500 -0.21958685
v -0.01420421 0.01918667 -0.22593091
v -0.01437860 0.01963562 -0.21958736
v -0.01336188 0.02004751 -0.21959110
v -0.01519436 0.01400365 -0.23228562
v -0.01434833 0.01588444 -0.24497981
v -0.01387733 0.01499890 -0.25769112
v -0.01370573 0.01617521 -0.25769269
v -0.01620158 0.00000915 -0.21966034
v -0.01455127 0.01332652 -0.24498139
v -0.01420561 0.01009644 -0.25769040
v -0.01324996 -0.01937859 -0.23228593
v -0.01401020 -0.01881095 -0.23227963
v -0.01520070 0.00004346 -0.23231459
v -0.01460514 -0.01065119 -0.24498431
v -0.01421032 -0.01000599 -0.25768977
v -0.01454159 -0.01328269 -0.24498089
v -0.01387819 -0.01498958 -0.25769031
v -0.01433967 -0.01588392 -0.24497916
v -0.01370852 -0.01807963 -0.24498478
v -0.01410850 -0.01708662 -0.24498044
v -0.01357123 -0.01768583 -0.25133944
v -0.01433280 0.00511725 -0.25769126
v -0.01912675 -0.00705330 -0.19445211
v -0.01701199 -0.02476359 -0.18201317
v -0.01630563 -0.02204762 -0.19439645
v -0.01710572 -0.02061086 -0.19439889
v -0.01805754 -0.01731508 -0.19441213
v -0.01860412 -0.01395620 -0.19442751
v -0.02076169 -0.01184091 -0.18194993
v -0.01511027 -0.02303058 -0.19440033
v -0.01490401 -0.02187389 -0.20064905
v -0.01470857 -0.02093843 -0.20693715
v -0.01726399 -0.01266640 -0.20699340
v -0.01694041 -0.01573097 -0.20697075
v -0.01628456 -0.01873819 -0.20694816
v -0.01567348 -0.02004742 -0.20694000
v -0.01524051 -0.02055744 -0.20693780
v -0.02024265 0.01545495 -0.18195873
v -0.01940588 0.01926713 -0.18197256
v -0.01807095 0.02298088 -0.18199556
v -0.01705021 0.02465457 -0.18201374
v -0.01560675 0.02585312 -0.18204001
v -0.01377742 0.02644764 -0.18207365
v -0.01914627 0.00689752 -0.19445208
v -0.02079059 0.01156002 -0.18194996
v -0.01863508 0.01385062 -0.19442762
v -0.01809584 0.01723553 -0.19441228
v -0.01713774 0.02052343 -0.19439933
v -0.01634175 0.02199035 -0.19439690
v -0.01515459 0.02299996 -0.19440065
v -0.01361174 0.02342833 -0.19440991
v -0.01601614 0.02090935 -0.20065080
v -0.01494654 0.02185479 -0.20064937
v -0.01474884 0.02092713 -0.20693748
v -0.01347454 0.02129458 -0.20693912
v -0.01353936 0.02223869 -0.20065285
v -0.01527841 0.02054372 -0.20693813
v -0.01570591 0.02002340 -0.20694041
v -0.01671392 0.01952207 -0.20065783
v -0.01631297 0.01869765 -0.20694858
v -0.01697424 0.01571837 -0.20697092
v -0.01509816 -0.01876394 -0.21958731
v -0.01489858 -0.01667576 -0.23227763
v -0.01554994 -0.01752100 -0.21959244
v -0.01517486 -0.01396851 -0.23228526
v -0.01597955 -0.01469512 -0.21960862
v -0.01525313 -0.01121996 -0.23229441
v -0.01614615 -0.01181902 -0.21962547
v -0.01620531 -0.00591956 -0.21965121
v -0.01750682 -0.00636902 -0.20702738
v -0.01756112 -0.00003899 -0.20703934
v -0.01927218 -0.00011193 -0.19446097
v -0.01752349 0.00633368 -0.20702739
v -0.01729089 0.01264798 -0.20699355
f 1 2 3
f 2 1 397
f 397 1 5
f 5 4 397
f 4 5 3
f 4 3 58
f 397 58 3
f 3 73 397
f 72 73 3
f 63 72 3
f 63 3 61
f 61 3 2
f 61 2 62
f 61 62 63
f 63 62 64
f 63 64 65
f 65 64 66
f 397 66 64
f 397 563 66
f 398 563 397
f 397 363 398
f 398 363 362
f 398 362 399
f 399 549 398
f 399 547 549
f 547 548 549
f 367 548 547
f 367 547 365
f 365 366 367
f 366 370 367
f 366 369 370
f 564 370 369
f 564 548 370
f 569 548 564
f 551 569 564
f 551 564 553
f 552 551 553
f 546 551 552
f 546 550 551
f 545 550 546
f 544 545 546
f 544 546 555
f 555 566 544
f 555 565 566
f 556 565 555
f 556 543 565
f 647 565 543
f 647 543 648
f 648 543 542
f 648 542 324
f 331 648 324
f 639 648 331
f 331 337 639
f 331 336 337
f 337 336 332
f 332 336 697
f 697 700 332
f 332 700 678
f 332 678 333
f 333 678 677
f 333 677 344
f 344 345 333
f 344 343 345
f 342 343 344
f 344 707 342
f 342 707 339
f 339 341 342
f 339 340 341
f 600 341 340
f 600 340 601
f 601 340 347
f 349 601 347
f 347 348 349
f 348 352 349
f 348 351 352
f 350 351 348
f 350 358 351
f 350 357 358
f 356 357 350
f 356 355 357
f 355 583 357
f 571 583 355
f 571 582 583
f 577 582 571
f 250 577 571
f 250 571 251
f 251 571 354
f 251 354 247
f 252 251 247
f 252 247 253
f 253 247 249
f 247 248 249
f 247 152 248
f 246 152 247
f 245 152 246
f 353 245 246
f 699 245 353
f 699 198 245
f 684 198 699
f 684 199 198
f 198 199 153
f 153 152 198
f 153 199 200
f 153 200 154
f 154 200 201
f 154 201 202
f 685 202 201
f 686 202 685
f 686 205 202
f 204 205 686
f 686 203 204
f 686 234 203
f 235 234 686
f 686 236 235
f 686 215 236
f 687 215 686
f 687 216 215
f 217 216 687
f 743 217 687
f 743 687 744
f 752 743 744
f 752 744 753
f 756 752 753
f 756 753 757
f 756 757 758
f 758 761 756
f 756 761 762
f 761 704 762
f 761 706 704
f 705 704 706
f 703 704 705
f 703 702 704
f 701 702 703
f 674 701 703
f 674 703 679
f 679 678 674
f 676 701 674
f 674 675 676
f 698 676 675
f 698 675 697
f 697 330 698
f 330 329 698
f 698 329 696
f 323 696 329
f 323 670 696
f 711 696 670
f 711 670 710
f 710 670 385
f 670 386 385
f 386 670 325
f 327 386 325
f 327 385 386
f 384 385 327
f 327 377 384
f 726 384 377
f 726 377 655
f 655 377 391
f 655 391 390
f 379 390 391
f 389 390 379
f 389 388 390
f 387 388 389
f 721 388 387
f 719 388 721
f 719 655 388
f 667 655 719
f 718 667 719
f 718 719 720
f 769 718 720
f 771 718 769
f 769 770 771
f 769 768 770
f 768 739 770
f 768 740 739
f 729 739 740
f 729 740 741
f 735 729 741
f 735 741 736
f 662 736 741
f 662 741 766
f 658 662 766
f 658 766 767
f 767 766 768
f 767 722 658
f 658 722 724
f 725 724 722
f 725 722 656
f 291 725 656
f 291 656 296
f 296 292 291
f 295 292 296
f 295 294 292
f 293 294 295
f 293 287 294
f 286 287 293
f 286 285 287
f 285 405 287
f 285 406 405
f 283 406 285
f 283 427 406
f 426 406 427
f 430 426 427
f 429 426 430
f 429 425 426
f 425 404 426
f 425 424 404
f 434 404 424
f 434 424 435
f 435 441 434
f 434 441 442
f 434 442 433
f 433 442 443
f 433 443 432
f 432 405 433
f 433 405 404
f 432 443 444
f 432 444 294
f 443 450 444
f 443 449 450
f 449 453 450
f 450 453 451
f 301 451 453
f 301 290 451
f 292 451 290
f 444 451 292
f 300 290 301
f 300 301 298
f 298 301 302
f 298 302 299
f 302 478 299
f 478 479 299
f 478 477 479
f 480 479 477
f 480 477 484
f 484 477 475
f 484 475 485
f 485 489 484
f 485 488 489
f 488 505 489
f 489 505 499
f 489 499 490
f 490 499 497
f 498 497 499
f 498 499 500
f 499 507 500
f 499 506 507
f 515 507 506
f 514 507 515
f 514 515 530
f 530 513 514
f 528 513 530
f 528 512 513
f 511 512 528
f 526 511 528
f 527 526 528
f 527 528 529
f 529 536 527
f 527 536 535
f 527 535 525
f 525 535 534
f 525 534 523
f 523 534 533
f 523 533 521
f 521 533 532
f 256 532 533
f 256 533 254
f 254 255 256
f 254 534 255
f 256 255 257
f 256 257 258
f 258 257 259
f 258 259 260
f 262 258 260
f 107 258 262
f 107 261 258
f 258 261 319
f 321 258 319
f 321 319 322
f 322 319 320
f 319 318 320
f 317 318 319
f 317 316 318
f 318 316 521
f 521 316 522
f 316 314 522
f 522 314 509
f 522 509 524
f 523 522 524
f 524 509 510
f 509 493 510
f 510 493 494
f 493 492 494
f 493 312 492
f 313 312 493
f 312 313 311
f 311 310 312
f 307 310 311
f 311 694 307
f 311 693 694
f 315 693 311
f 315 692 693
f 691 692 315
f 691 734 692
f 691 651 734
f 734 651 729
f 729 651 728
f 729 728 730
f 730 728 654
f 728 681 654
f 654 681 682
f 654 682 652
f 652 682 240
f 682 238 240
f 682 211 238
f 212 211 682
f 213 212 682
f 682 210 213
f 682 209 210
f 652 240 242
f 652 242 244
f 231 652 244
f 230 652 231
f 230 653 652
f 690 653 230
f 732 653 690
f 732 690 733
f 733 727 732
f 732 727 737
f 774 737 727
f 774 727 776
f 776 727 689
f 776 689 748
f 777 776 748
f 777 748 778
f 778 669 777
f 778 671 669
f 765 671 778
f 765 672 671
f 671 672 673
f 671 673 708
f 708 673 709
f 709 673 676
f 711 709 676
f 708 709 713
f 665 708 713
f 665 713 666
f 666 713 714
f 666 714 667
f 714 726 667
f 713 710 714
f 714 710 384
f 665 666 667
f 717 665 667
f 712 665 717
f 773 712 717
f 773 717 771
f 771 772 773
f 773 772 774
f 773 774 775
f 775 712 773
f 775 668 712
f 777 668 775
f 668 665 712
f 668 669 665
f 669 708 665
f 713 709 710
f 673 672 701
f 764 672 765
f 763 764 765
f 765 751 763
f 763 751 752
f 765 750 751
f 750 742 751
f 751 742 743
f 750 749 742
f 748 749 750
f 748 688 749
f 749 688 219
f 688 220 219
f 221 220 688
f 688 222 221
f 688 223 222
f 689 223 688
f 689 224 223
f 225 224 689
f 683 225 689
f 226 225 683
f 227 226 683
f 227 683 733
f 733 228 227
f 749 219 742
f 742 219 218
f 742 218 217
f 763 762 764
f 762 702 764
f 764 702 672
f 778 750 765
f 669 671 708
f 777 669 668
f 778 748 750
f 775 776 777
f 748 689 688
f 683 689 727
f 775 774 776
f 772 737 774
f 772 738 737
f 731 737 738
f 731 738 730
f 730 738 739
f 770 738 772
f 732 737 731
f 733 683 727
f 733 690 228
f 690 229 228
f 731 653 732
f 731 654 653
f 230 229 690
f 652 653 654
f 681 209 682
f 208 209 681
f 208 106 209
f 207 106 208
f 207 107 106
f 206 107 207
f 650 206 207
f 650 261 206
f 649 261 650
f 649 650 651
f 681 650 207
f 209 106 122
f 209 122 210
f 121 210 122
f 121 213 210
f 120 213 121
f 120 212 213
f 119 212 120
f 119 211 212
f 118 211 119
f 118 117 211
f 239 211 117
f 238 211 239
f 238 239 240
f 240 239 241
f 239 115 241
f 241 115 114
f 241 114 113
f 112 241 113
f 112 243 241
f 214 243 112
f 214 244 243
f 231 244 214
f 110 231 214
f 214 111 110
f 110 230 231
f 109 230 110
f 109 229 230
f 140 229 109
f 140 228 229
f 139 228 140
f 138 228 139
f 138 227 228
f 137 227 138
f 137 226 227
f 136 226 137
f 136 225 226
f 135 225 136
f 124 225 135
f 124 224 225
f 123 224 124
f 123 223 224
f 134 223 123
f 134 222 223
f 133 222 134
f 132 222 133
f 132 221 222
f 131 221 132
f 130 221 131
f 130 220 221
f 129 220 130
f 127 220 129
f 127 219 220
f 126 219 127
f 148 219 126
f 148 218 219
f 147 218 148
f 145 218 147
f 145 217 218
f 143 217 145
f 143 216 217
f 215 216 143
f 143 142 215
f 237 215 142
f 237 236 215
f 232 236 237
f 237 162 232
f 232 162 161
f 232 161 160
f 232 160 233
f 233 235 232
f 233 234 235
f 203 234 233
f 233 159 203
f 203 159 158
f 203 158 204
f 204 158 157
f 204 157 205
f 205 157 156
f 205 156 202
f 202 156 155
f 233 160 159
f 237 163 162
f 149 163 237
f 237 150 149
f 237 151 150
f 232 235 236
f 142 151 237
f 242 243 244
f 112 111 214
f 242 241 243
f 239 116 115
f 240 241 242
f 117 116 239
f 681 207 208
f 728 650 681
f 730 654 731
f 728 651 650
f 691 649 651
f 319 649 691
f 692 734 735
f 315 317 691
f 692 735 693
f 311 314 315
f 693 736 694
f 661 694 736
f 664 694 661
f 663 664 661
f 661 660 663
f 663 660 715
f 663 715 298
f 680 298 715
f 680 715 716
f 659 680 716
f 659 716 657
f 716 660 657
f 657 660 662
f 657 658 659
f 695 680 659
f 659 723 695
f 659 724 723
f 695 723 725
f 695 288 680
f 288 300 680
f 289 288 695
f 288 289 290
f 290 289 291
f 291 289 695
f 297 663 298
f 716 715 660
f 660 661 662
f 297 664 663
f 305 664 297
f 305 307 664
f 305 306 307
f 307 306 308
f 308 309 307
f 309 308 481
f 481 492 309
f 309 492 310
f 481 495 492
f 491 495 481
f 480 491 481
f 480 481 306
f 480 490 491
f 491 497 495
f 496 495 497
f 494 495 496
f 511 494 496
f 306 481 308
f 305 304 306
f 304 479 306
f 303 479 304
f 297 303 304
f 299 303 297
f 297 304 305
f 664 307 694
f 307 309 310
f 311 313 314
f 312 310 492
f 494 492 495
f 510 494 511
f 509 313 493
f 524 510 526
f 525 524 526
f 314 313 509
f 315 314 316
f 315 316 317
f 691 317 319
f 320 318 521
f 320 521 322
f 322 532 321
f 319 261 649
f 206 261 107
f 257 536 259
f 259 536 537
f 259 537 260
f 260 537 538
f 260 538 262
f 262 538 108
f 520 108 538
f 520 538 531
f 531 519 520
f 519 518 520
f 517 518 519
f 508 518 517
f 508 194 518
f 189 194 508
f 502 189 508
f 190 189 502
f 501 190 502
f 167 190 501
f 167 196 190
f 190 196 197
f 190 197 191
f 191 197 585
f 609 191 585
f 609 585 610
f 610 585 618
f 610 618 611
f 606 610 611
f 606 611 607
f 607 611 612
f 607 612 608
f 608 612 601
f 612 620 601
f 601 620 621
f 620 588 621
f 621 588 590
f 588 589 590
f 590 589 591
f 590 591 592
f 592 591 593
f 595 593 591
f 595 591 596
f 596 169 595
f 595 169 176
f 595 176 594
f 594 176 178
f 594 178 179
f 178 173 179
f 178 177 173
f 173 177 466
f 461 173 466
f 461 466 460
f 460 452 461
f 460 458 452
f 459 458 460
f 459 456 458
f 446 458 456
f 446 456 447
f 447 456 457
f 447 457 454
f 447 454 448
f 441 447 448
f 440 447 441
f 448 454 455
f 454 463 455
f 454 462 463
f 459 462 454
f 459 470 462
f 462 470 472
f 470 471 472
f 470 469 471
f 487 471 469
f 487 469 467
f 467 174 487
f 467 175 174
f 177 175 467
f 176 175 177
f 169 174 175
f 168 174 169
f 166 168 169
f 166 167 168
f 168 167 483
f 166 195 167
f 597 195 166
f 196 195 597
f 585 196 597
f 597 166 596
f 596 589 597
f 597 589 587
f 618 597 587
f 618 587 619
f 619 587 586
f 586 587 588
f 619 586 620
f 483 174 168
f 482 174 483
f 483 501 482
f 482 501 503
f 482 503 488
f 486 482 488
f 487 482 486
f 487 174 482
f 468 467 469
f 466 467 468
f 486 471 487
f 486 473 471
f 485 473 486
f 468 469 470
f 472 471 473
f 472 473 474
f 463 472 474
f 463 474 464
f 464 474 476
f 474 475 476
f 464 476 465
f 465 476 478
f 464 465 453
f 453 465 302
f 455 464 453
f 474 473 475
f 459 468 470
f 462 472 463
f 455 463 464
f 448 455 449
f 442 448 449
f 454 457 459
f 440 446 447
f 439 446 440
f 439 445 446
f 438 445 439
f 437 438 439
f 437 439 436
f 436 421 437
f 436 422 421
f 435 422 436
f 436 440 435
f 421 422 423
f 423 422 424
f 420 421 423
f 420 423 428
f 414 420 428
f 414 428 412
f 413 414 412
f 412 407 413
f 413 407 396
f 396 407 394
f 394 407 403
f 394 403 392
f 394 392 361
f 361 392 263
f 392 264 263
f 263 264 265
f 265 264 278
f 278 264 279
f 278 279 280
f 280 279 281
f 279 409 281
f 403 409 279
f 403 408 409
f 411 409 408
f 411 408 412
f 412 429 411
f 410 409 411
f 411 430 410
f 410 281 409
f 283 281 410
f 282 281 283
f 282 283 284
f 280 281 282
f 403 279 264
f 263 265 271
f 271 265 274
f 271 274 275
f 275 276 271
f 271 276 277
f 271 277 273
f 272 271 273
f 270 271 272
f 270 269 271
f 361 271 269
f 269 362 361
f 362 269 267
f 268 267 269
f 266 267 268
f 266 268 365
f 399 266 365
f 399 267 266
f 268 269 270
f 361 263 271
f 392 403 264
f 407 408 403
f 361 396 394
f 361 395 396
f 364 395 361
f 364 393 395
f 360 393 364
f 364 359 360
f 360 359 28
f 360 28 27
f 12 27 28
f 26 27 12
f 26 25 27
f 24 25 26
f 26 53 24
f 24 53 54
f 24 54 22
f 22 54 45
f 54 46 45
f 42 45 46
f 42 44 45
f 39 44 42
f 78 44 39
f 78 39 80
f 79 78 80
f 77 78 79
f 77 76 78
f 30 76 77
f 30 22 76
f 29 22 30
f 29 30 31
f 31 30 360
f 360 23 31
f 360 25 23
f 31 23 29
f 29 23 22
f 30 77 393
f 77 79 393
f 393 79 81
f 393 81 7
f 7 34 393
f 393 34 35
f 393 35 33
f 393 33 32
f 393 32 9
f 9 32 7
f 7 6 9
f 6 7 8
f 393 6 8
f 393 8 36
f 36 38 393
f 36 37 38
f 7 37 36
f 80 37 7
f 38 37 39
f 38 39 40
f 40 400 38
f 40 41 400
f 417 400 41
f 417 41 43
f 43 88 417
f 88 43 42
f 87 88 42
f 86 88 87
f 88 86 401
f 401 86 85
f 401 85 91
f 85 89 91
f 87 89 85
f 87 104 89
f 103 104 87
f 103 102 104
f 105 104 102
f 105 102 100
f 100 98 105
f 99 98 100
f 99 100 101
f 101 52 99
f 99 52 50
f 99 50 94
f 94 50 48
f 94 48 47
f 47 48 49
f 47 49 55
f 93 47 55
f 93 55 57
f 92 93 57
f 92 84 93
f 93 84 97
f 93 97 94
f 94 97 98
f 105 97 84
f 84 83 105
f 83 188 105
f 83 187 188
f 185 187 83
f 185 83 642
f 635 185 642
f 635 642 636
f 635 636 633
f 633 636 637
f 636 643 637
f 637 643 644
f 637 644 638
f 634 637 638
f 634 638 632
f 629 634 632
f 629 632 628
f 628 615 629
f 628 616 615
f 593 615 616
f 594 615 593
f 594 614 615
f 627 616 628
f 627 617 616
f 626 617 627
f 631 626 627
f 625 626 631
f 338 625 631
f 334 625 338
f 346 625 334
f 346 624 625
f 598 624 346
f 346 345 598
f 598 623 624
f 599 623 598
f 598 343 599
f 599 343 341
f 599 622 623
f 600 622 599
f 600 621 622
f 622 592 623
f 623 592 617
f 623 617 624
f 333 346 334
f 338 332 334
f 338 631 337
f 625 624 626
f 631 627 632
f 640 631 632
f 640 632 641
f 641 646 640
f 640 646 647
f 640 647 639
f 641 645 646
f 645 566 646
f 645 567 566
f 644 567 645
f 644 568 567
f 568 560 567
f 567 560 558
f 559 558 560
f 557 558 559
f 545 558 557
f 559 563 557
f 557 563 549
f 557 549 569
f 550 557 569
f 559 95 563
f 561 95 559
f 561 96 95
f 92 95 96
f 96 82 92
f 562 82 96
f 539 82 562
f 539 83 82
f 539 562 568
f 643 539 568
f 642 539 643
f 92 67 95
f 65 67 92
f 92 75 65
f 92 74 75
f 74 70 75
f 74 56 70
f 57 56 74
f 68 70 56
f 68 56 11
f 11 56 49
f 11 49 12
f 10 11 12
f 10 21 11
f 11 21 20
f 19 20 21
f 19 21 359
f 359 13 19
f 13 15 19
f 13 14 15
f 69 15 14
f 68 15 69
f 68 20 15
f 14 17 69
f 18 17 14
f 16 17 18
f 397 16 18
f 18 359 397
f 71 17 16
f 71 16 72
f 65 71 72
f 70 17 71
f 14 359 18
f 69 17 70
f 14 13 359
f 19 15 20
f 359 21 10
f 12 49 51
f 49 50 51
f 11 20 68
f 69 70 68
f 75 70 71
f 75 71 65
f 562 96 561
f 561 560 562
f 95 67 563
f 559 560 561
f 567 558 545
f 568 562 560
f 638 645 641
f 639 631 640
f 626 624 617
f 592 616 617
f 629 615 614
f 629 614 630
f 630 614 613
f 613 633 630
f 630 633 634
f 613 170 633
f 182 633 170
f 170 181 182
f 181 183 182
f 182 183 184
f 182 184 185
f 184 186 185
f 186 184 438
f 187 186 438
f 431 187 438
f 184 183 445
f 183 181 445
f 445 181 452
f 181 180 452
f 170 180 181
f 172 180 170
f 170 171 172
f 172 171 173
f 461 180 172
f 171 170 613
f 171 613 179
f 179 613 614
f 628 632 627
f 630 634 629
f 641 632 638
f 638 644 645
f 643 568 644
f 633 637 634
f 635 633 182
f 636 642 643
f 182 185 635
f 642 83 539
f 185 186 187
f 188 187 431
f 105 188 431
f 402 105 431
f 402 431 418
f 418 431 437
f 418 437 419
f 401 418 419
f 401 419 420
f 416 401 420
f 417 401 416
f 402 418 401
f 401 90 402
f 90 105 402
f 105 90 89
f 82 83 84
f 92 82 84
f 57 74 92
f 55 56 57
f 55 49 56
f 94 47 93
f 49 48 50
f 51 50 52
f 51 52 53
f 53 52 46
f 101 46 52
f 103 46 101
f 94 98 99
f 105 98 97
f 101 100 102
f 101 102 103
f 89 104 105
f 89 90 91
f 91 90 401
f 85 86 87
f 87 42 103
f 417 88 401
f 41 42 43
f 416 400 417
f 416 415 400
f 395 400 415
f 395 415 413
f 414 415 416
f 40 39 41
f 393 38 400
f 7 36 8
f 9 6 393
f 7 32 33
f 7 33 34
f 34 33 35
f 81 80 7
f 79 80 81
f 80 39 37
f 76 44 78
f 41 39 42
f 76 45 44
f 103 42 46
f 22 45 76
f 22 23 24
f 53 46 54
f 26 51 53
f 24 23 25
f 12 51 26
f 12 28 10
f 27 25 360
f 359 10 28
f 364 363 359
f 360 30 393
f 393 400 395
f 361 363 364
f 413 396 395
f 412 408 407
f 413 415 414
f 412 428 429
f 416 420 414
f 428 423 425
f 419 421 420
f 419 437 421
f 431 438 437
f 438 184 445
f 445 452 446
f 436 439 440
f 459 457 456
f 460 468 459
f 446 452 458
f 461 452 180
f 460 466 468
f 172 173 461
f 466 177 467
f 179 173 171
f 179 614 594
f 176 177 178
f 169 175 176
f 596 166 169
f 594 593 595
f 593 616 592
f 622 590 592
f 596 591 589
f 588 587 589
f 621 590 622
f 620 586 588
f 612 619 620
f 602 607 608
f 602 608 352
f 603 607 602
f 602 584 603
f 603 584 581
f 603 581 580
f 576 580 581
f 576 581 577
f 575 580 576
f 575 579 580
f 574 579 575
f 253 574 575
f 249 574 253
f 249 573 574
f 248 573 249
f 248 572 573
f 572 570 573
f 573 570 578
f 570 164 578
f 578 164 604
f 164 165 604
f 604 165 609
f 604 609 605
f 579 604 605
f 164 125 165
f 125 192 165
f 165 192 193
f 165 193 191
f 191 193 194
f 193 192 518
f 518 192 125
f 128 125 164
f 128 123 125
f 123 124 125
f 124 135 125
f 125 135 136
f 125 136 137
f 137 138 125
f 125 138 139
f 125 139 140
f 140 141 125
f 520 125 141
f 140 108 141
f 109 108 140
f 109 110 108
f 108 110 111
f 111 112 108
f 108 112 113
f 108 113 114
f 114 115 108
f 108 115 116
f 108 116 117
f 117 118 108
f 108 118 119
f 108 119 120
f 120 121 108
f 108 121 122
f 108 122 106
f 106 107 108
f 134 123 128
f 128 133 134
f 128 132 133
f 131 132 128
f 128 130 131
f 128 129 130
f 127 129 128
f 126 127 128
f 128 148 126
f 128 147 148
f 146 147 128
f 146 145 147
f 144 145 146
f 144 143 145
f 142 143 144
f 144 151 142
f 144 150 151
f 149 150 144
f 144 163 149
f 144 162 163
f 161 162 144
f 144 160 161
f 144 159 160
f 158 159 144
f 144 157 158
f 144 156 157
f 155 156 144
f 144 154 155
f 144 153 154
f 152 153 144
f 152 144 572
f 144 146 570
f 146 128 570
f 578 604 579
f 570 128 164
f 572 144 570
f 152 572 248
f 573 578 574
f 253 575 252
f 574 578 579
f 579 605 580
f 580 605 606
f 252 575 576
f 252 576 250
f 580 606 603
f 584 582 581
f 602 358 584
f 611 619 612
f 603 606 607
f 605 610 606
f 611 618 619
f 585 597 618
f 605 609 610
f 165 191 609
f 197 196 585
f 167 195 196
f 483 167 501
f 501 502 503
f 503 502 504
f 503 504 505
f 505 504 506
f 516 506 504
f 516 504 517
f 189 190 191
f 502 508 504
f 191 194 189
f 194 193 518
f 517 504 508
f 517 519 516
f 516 519 515
f 518 125 520
f 530 519 531
f 529 530 531
f 531 537 529
f 141 108 520
f 262 108 107
f 531 538 537
f 256 258 321
f 255 535 257
f 321 532 256
f 521 532 322
f 521 522 523
f 254 533 534
f 523 524 525
f 255 534 535
f 257 535 536
f 529 537 536
f 525 526 527
f 526 510 511
f 511 496 512
f 512 496 498
f 512 498 513
f 529 528 530
f 513 500 514
f 530 515 519
f 515 506 516
f 514 500 507
f 513 498 500
f 496 497 498
f 490 497 491
f 505 506 499
f 488 503 505
f 486 488 485
f 484 489 490
f 485 475 473
f 476 475 477
f 484 490 480
f 306 479 480
f 476 477 478
f 299 479 303
f 465 478 302
f 297 298 299
f 300 298 680
f 288 290 300
f 453 302 301
f 449 455 453
f 444 450 451
f 442 449 443
f 441 448 442
f 435 440 441
f 435 424 422
f 433 404 434
f 423 424 425
f 428 425 429
f 411 429 430
f 410 430 427
f 426 404 406
f 410 427 283
f 284 283 285
f 404 405 406
f 432 287 405
f 284 285 286
f 294 287 432
f 294 444 292
f 290 291 292
f 296 656 381
f 296 381 295
f 380 295 381
f 293 295 380
f 286 293 380
f 282 286 380
f 282 380 280
f 280 380 278
f 380 265 278
f 380 274 265
f 275 274 380
f 380 389 275
f 284 286 282
f 380 381 382
f 382 387 380
f 382 381 656
f 656 721 382
f 695 725 291
f 656 722 721
f 720 721 722
f 723 724 725
f 658 724 659
f 767 720 722
f 657 662 658
f 661 736 662
f 693 735 736
f 734 729 735
f 766 741 740
f 730 739 729
f 766 740 768
f 770 739 738
f 767 768 769
f 771 770 772
f 771 717 718
f 769 720 767
f 717 667 718
f 720 719 721
f 721 387 382
f 380 387 389
f 275 389 379
f 275 379 276
f 276 379 277
f 277 379 273
f 273 379 378
f 377 378 379
f 273 378 272
f 272 378 270
f 270 378 383
f 270 383 268
f 268 383 368
f 383 374 368
f 383 375 374
f 376 375 383
f 376 383 328
f 268 368 366
f 328 383 378
f 328 378 327
f 655 390 388
f 379 391 377
f 667 726 655
f 714 384 726
f 327 378 377
f 710 385 384
f 710 709 711
f 325 670 323
f 323 324 325
f 325 324 326
f 325 326 327
f 327 326 328
f 326 376 328
f 326 375 376
f 371 375 326
f 371 374 375
f 368 374 371
f 371 372 368
f 368 372 373
f 368 373 369
f 540 369 373
f 540 373 372
f 540 372 371
f 554 540 371
f 553 540 554
f 554 371 541
f 556 554 541
f 556 552 554
f 541 371 326
f 541 326 542
f 323 329 324
f 698 696 711
f 324 329 330
f 697 335 330
f 330 335 331
f 711 676 698
f 674 700 675
f 676 673 701
f 701 672 702
f 679 703 705
f 679 705 677
f 677 705 707
f 705 706 707
f 758 707 706
f 759 707 758
f 762 704 702
f 756 762 763
f 758 706 761
f 758 757 759
f 759 757 760
f 759 760 348
f 760 755 348
f 760 754 755
f 754 746 755
f 755 746 747
f 755 747 350
f 746 684 747
f 746 685 684
f 745 685 746
f 684 685 200
f 754 745 746
f 753 745 754
f 348 339 759
f 757 754 760
f 757 753 754
f 763 752 756
f 753 744 745
f 744 686 745
f 751 743 752
f 742 217 743
f 744 687 686
f 745 686 685
f 202 155 154
f 685 201 200
f 200 199 684
f 747 684 699
f 747 699 356
f 356 699 353
f 198 152 245
f 353 246 247
f 247 354 353
f 353 354 355
f 250 251 252
f 576 577 250
f 577 581 582
f 584 583 582
f 355 354 571
f 584 357 583
f 353 355 356
f 350 747 356
f 358 357 584
f 351 358 602
f 348 755 350
f 352 351 602
f 352 608 349
f 347 339 348
f 608 601 349
f 601 621 600
f 599 341 600
f 340 339 347
f 759 339 707
f 342 341 343
f 598 345 343
f 333 345 346
f 344 677 707
f 677 678 679
f 332 333 334
f 674 678 700
f 697 675 700
f 697 336 335
f 337 332 338
f 331 335 336
f 639 337 631
f 324 330 331
f 324 542 326
f 541 542 543
f 639 647 648
f 646 565 647
f 541 543 556
f 555 552 556
f 646 566 565
f 544 566 567
f 544 567 545
f 545 557 550
f 555 546 552
f 552 553 554
f 553 564 540
f 550 569 551
f 564 369 540
f 368 369 366
f 365 268 366
f 370 548 367
f 569 549 548
f 365 547 399
f 399 362 267
f 361 362 363
f 397 359 363
f 398 549 563
f 563 67 66
f 65 66 67
f 64 62 397
f 65 72 63
f 72 16 73
f 397 73 16
f 397 59 58
f 60 59 397
f 4 58 59
f 4 59 60
f 397 4 60
f 397 62 2
f 3 5 1

