# https://github.com/mikedh/trimesh
v 0.02823961 0.03456290 -0.01118624
v 0.02603431 0.03456291 -0.01561870
v 0.02313664 0.03456291 -0.01963288
v 0.01962396 0.03456291 -0.02312159
v 0.01559004 0.03456291 -0.02599172
v 0.01114258 0.03456290 -0.02816663
v 0.00640032 0.03456291 -0.02958826
v 0.00148985 0.03456290 -0.03021865
v -0.00345773 0.03456291 -0.03004098
v -0.00831033 0.03456290 -0.02906000
v -0.01293841 0.03456290 -0.02730188
v -0.01721841 0.03456290 -0.02481357
v -0.02103607 0.03456291 -0.02166150
v -0.02428947 0.03456290 -0.01792981
v -0.02689175 0.03456290 -0.01371813
v -0.02877345 0.03456291 -0.00913890
v -0.02988432 0.03456291 -0.00431438
v -0.03019471 0.03456291 0.00062665
v -0.02969633 0.03456291 0.00555227
v -0.02840249 0.03456291 0.01033098
v -0.02634772 0.03456290 0.01483521
v -0.02358690 0.03456291 0.01894470
v -0.02031367 0.03456291 0.02244097
v -0.01653043 0.03456291 0.02537780
v -0.01233169 0.03456290 0.02768182
v -0.00782235 0.03456291 0.02929546
v -0.00311509 0.03456290 0.03017841
v 0.00167250 0.03456291 0.03030860
v 0.00642079 0.03456291 0.02968279
v 0.01101116 0.03456291 0.02831660
v 0.01532891 0.03456291 0.02624418
v 0.01926617 0.03456290 0.02351730
v 0.02272457 0.03456290 0.02020408
v 0.02561771 0.03456291 0.01638732
v 0.02787329 0.03456291 0.01216236
v 0.02943498 0.03456290 0.00763477
v 0.03026373 0.03456291 0.00291766
v 0.03033887 0.03456291 -0.00187110
v 0.02965849 0.03456290 -0.00661188
f 21 22 5
f 22 23 5
f 5 23 24
f 5 24 25
f 25 26 5
f 5 26 27
f 5 27 28
f 28 29 5
f 5 29 30
f 5 30 31
f 31 32 5
f 5 32 33
f 5 33 34
f 34 35 5
f 5 35 36
f 5 36 37
f 37 38 5
f 5 38 39
f 5 39 1
f 1 4 5
f 1 3 4
f 2 3 1
f 5 20 21
f 5 19 20
f 18 19 5
f 5 17 18
f 5 16 17
f 6 16 5
f 6 7 16
f 7 8 16
f 16 8 9
f 16 9 10
f 10 11 16
f 16 11 12
f 16 12 15
f 15 12 14
f 12 13 14

