# https://github.com/mikedh/trimesh
v -0.02301268 -0.01064396 -0.05558513
v -0.02311093 -0.01933996 -0.06066938
v -0.02390429 0.02591345 -0.09865551
v -0.02387031 0.02682552 -0.09695282
v -0.02406219 0.01921403 -0.10663335
v -0.02416192 0.01030771 -0.11179595
v -0.02326884 -0.02603939 -0.06864722
v -0.02329692 -0.02680321 -0.07005447
v -0.02412129 -0.01550691 -0.11047477
v -0.02399300 -0.02309575 -0.10433929
v -0.02419650 -0.00638623 -0.11394726
v -0.02421116 0.00336232 -0.11441258
v -0.02341286 -0.03006962 -0.07586819
v -0.02361670 -0.03096229 -0.08596055
v -0.02381722 -0.02855180 -0.09580145
v -0.02419526 0.00702759 -0.11352991
v -0.02308667 -0.00464964 -0.05908079
v -0.02297702 -0.00725825 -0.05373395
v -0.02296020 -0.00346580 -0.05280241
v -0.02309166 0.00453783 -0.05908334
v -0.02297487 0.00628276 -0.05326773
v -0.02316349 0.01310395 -0.06240393
v -0.02305007 0.01540344 -0.05674022
v -0.02329246 0.01989180 -0.06859410
v -0.02317836 0.02299229 -0.06287570
v -0.02346115 0.02398464 -0.07681784
v -0.02406332 0.00896137 -0.10696090
v -0.02409258 -0.00007016 -0.10864625
v -0.02409211 -0.00066481 -0.10863901
v -0.02405350 -0.00910071 -0.10695590
v -0.02382427 0.02231291 -0.09479873
v -0.02396966 0.01677411 -0.10212746
v -0.02364678 0.02482972 -0.08596449
v -0.02380837 0.02894375 -0.09383718
v -0.02343502 -0.02410664 -0.07680454
v -0.02327078 -0.02000907 -0.06858306
v -0.02314919 -0.01321766 -0.06239664
v -0.02395136 -0.01691067 -0.10211814
v -0.02379996 -0.02244525 -0.09478635
v -0.02361973 -0.02495698 -0.08595072
v -0.02334702 0.02829707 -0.07106604
v -0.02353934 0.03079203 -0.08049944
v -0.02373626 0.03022987 -0.09024090
f 17 18 19
f 17 1 18
f 17 2 1
f 37 2 17
f 37 7 2
f 36 7 37
f 36 8 7
f 35 8 36
f 35 13 8
f 35 14 13
f 40 14 35
f 40 15 14
f 39 15 40
f 39 10 15
f 38 10 39
f 38 9 10
f 30 9 38
f 30 11 9
f 12 11 30
f 29 12 30
f 28 12 29
f 28 16 12
f 27 16 28
f 27 6 16
f 27 5 6
f 32 5 27
f 32 3 5
f 31 3 32
f 31 4 3
f 31 34 4
f 33 34 31
f 33 43 34
f 33 42 43
f 26 42 33
f 26 41 42
f 25 41 26
f 24 25 26
f 24 23 25
f 22 23 24
f 22 21 23
f 20 21 22
f 20 19 21
f 17 19 20

