# https://github.com/mikedh/trimesh
v -0.00136822 0.01570826 0.02751053
v -0.01118902 0.01570210 0.02512562
v -0.01948510 0.01569587 0.01935409
v -0.02513605 0.01569038 0.01097539
v 0.00865092 0.01571351 0.02618671
v 0.01751527 0.01571712 0.02133295
v 0.02112952 0.01571816 0.01777059
v 0.02402766 0.01571863 0.01360478
v 0.02730854 0.01571781 0.00404593
v 0.02691481 0.01571479 -0.00605262
v -0.01310709 0.01568739 -0.02407098
v -0.00350180 0.01569189 -0.02721327
v -0.02092864 0.01568479 -0.01767104
v 0.02289966 0.01570997 -0.01532701
v 0.00659000 0.01569769 -0.02667354
v 0.01580535 0.01570400 -0.02252468
v -0.02737868 0.01568639 0.00112114
v -0.02591009 0.01568443 -0.00887781
v 0.02112933 0.01605816 0.01777050
v 0.02402746 0.01605863 0.01360468
v 0.02730835 0.01605781 0.00404584
v 0.02691462 0.01605479 -0.00605271
v 0.02289947 0.01604997 -0.01532710
v 0.01580516 0.01604400 -0.02252477
v 0.00658981 0.01603769 -0.02667364
v -0.00350199 0.01603189 -0.02721336
v -0.01310729 0.01602739 -0.02407107
v -0.02092883 0.01602479 -0.01767114
v -0.02591028 0.01602443 -0.00887791
v 0.01751508 0.01605712 0.02133285
v 0.00865073 0.01605351 0.02618661
v -0.00136841 0.01604826 0.02751043
v -0.01118921 0.01604210 0.02512553
v -0.01948529 0.01603587 0.01935399
v -0.02513625 0.01603038 0.01097530
v -0.02737887 0.01602639 0.00112104
f 13 28 18
f 13 27 28
f 11 27 13
f 11 26 27
f 12 26 11
f 12 25 26
f 15 25 12
f 15 24 25
f 16 24 15
f 16 23 24
f 14 23 16
f 14 22 23
f 10 22 14
f 10 21 22
f 9 21 10
f 9 20 21
f 8 20 9
f 8 19 20
f 7 19 8
f 7 30 19
f 6 30 7
f 6 31 30
f 5 31 6
f 5 32 31
f 1 32 5
f 1 33 32
f 2 33 1
f 2 34 33
f 3 34 2
f 3 35 34
f 4 35 3
f 4 36 35
f 17 36 4
f 17 29 36
f 18 29 17
f 18 28 29

