# https://github.com/mikedh/trimesh
v 0.02858994 -0.01593180 -0.06874655
v 0.02844145 -0.02081129 -0.07604317
v 0.02826626 -0.02252647 -0.08465126
v 0.02858976 0.01588801 -0.06875571
v 0.02868904 0.00858989 -0.06387722
v 0.02872393 -0.00002001 -0.06216240
v 0.02868913 -0.00863087 -0.06387227
v 0.02794232 0.01587886 -0.10056892
v 0.02809082 0.02075835 -0.09327231
v 0.02826600 0.02247353 -0.08466420
v 0.02844121 0.02076330 -0.07605512
v 0.02809106 -0.02081624 -0.09326036
v 0.02794251 -0.01594095 -0.10055977
v 0.02784323 -0.00864282 -0.10543825
v 0.02780833 -0.00003295 -0.10715308
v 0.02784313 0.00857793 -0.10544319
v 0.02883991 -0.00002000 -0.06216475
v 0.02880511 -0.00863086 -0.06387463
v 0.02870592 -0.01593179 -0.06874891
v 0.02855743 -0.02081128 -0.07604553
v 0.02838224 -0.02252647 -0.08465362
v 0.02820704 -0.02081623 -0.09326272
v 0.02805849 -0.01594095 -0.10056213
v 0.02795920 -0.00864282 -0.10544060
v 0.02792430 -0.00003294 -0.10715543
v 0.02795910 0.00857793 -0.10544556
v 0.02805830 0.01587885 -0.10057127
v 0.02820680 0.02075834 -0.09327467
v 0.02838198 0.02247352 -0.08466657
v 0.02855718 0.02076329 -0.07605749
v 0.02870573 0.01588800 -0.06875806
v 0.02880501 0.00858989 -0.06387959
f 6 17 7
f 6 32 17
f 5 32 6
f 5 31 32
f 4 31 5
f 4 30 31
f 11 30 4
f 11 29 30
f 10 29 11
f 10 28 29
f 9 28 10
f 9 27 28
f 8 27 9
f 8 26 27
f 16 26 8
f 16 25 26
f 15 25 16
f 15 24 25
f 14 24 15
f 14 23 24
f 13 23 14
f 13 22 23
f 12 22 13
f 12 21 22
f 3 21 12
f 3 20 21
f 2 20 3
f 2 19 20
f 1 19 2
f 1 18 19
f 7 18 1
f 7 17 18

