# https://github.com/mikedh/trimesh
v 0.02181086 0.01875644 -0.16278768
v 0.02190094 0.02123231 -0.15827234
v 0.02178685 -0.01714411 -0.16492714
v 0.02200045 0.02264115 -0.15331942
v 0.02210441 0.02291233 -0.14817725
v 0.02197052 -0.02212610 -0.15598728
v 0.02187327 -0.02013884 -0.16073783
v 0.02230484 0.02004498 -0.13835314
v 0.02220760 0.02203222 -0.14310367
v 0.02207370 -0.02300619 -0.15091372
v 0.02239127 0.01705023 -0.13416383
v 0.02246253 0.01319818 -0.13074581
v 0.02171559 -0.01329204 -0.16834515
v 0.02166303 -0.00877583 -0.17082046
v 0.02251507 0.00868195 -0.12827049
v 0.02254625 0.00372801 -0.12686199
v 0.02255450 -0.00141521 -0.12659094
v 0.02253941 -0.00648981 -0.12747091
v 0.02250174 -0.01124135 -0.12945782
v 0.02244338 -0.01543155 -0.13245198
v 0.02236725 -0.01885032 -0.13630329
v 0.02227717 -0.02132619 -0.14081861
v 0.02217766 -0.02273503 -0.14577155
v 0.02163186 -0.00382189 -0.17222896
v 0.02162360 0.00132133 -0.17250003
v 0.02163870 0.00639595 -0.17162006
v 0.02167637 0.01114749 -0.16963317
v 0.02173473 0.01533769 -0.16663899
f 1 2 3
f 3 28 1
f 3 27 28
f 26 27 3
f 3 25 26
f 3 24 25
f 14 24 3
f 3 13 14
f 3 2 4
f 3 4 5
f 9 3 5
f 8 3 9
f 8 7 3
f 6 7 8
f 6 8 10
f 10 8 11
f 10 11 12
f 12 15 10
f 10 15 16
f 10 16 17
f 17 18 10
f 10 18 19
f 10 19 20
f 20 21 10
f 10 21 22
f 10 22 23

