# https://github.com/mikedh/trimesh
v -0.02531861 0.00096653 -0.16917929
v -0.02534019 0.00026136 -0.17026417
v -0.02536632 0.00019323 -0.17155620
v -0.02538998 0.00078038 -0.17270920
v -0.02482564 -0.02043817 -0.14539701
v -0.02483527 -0.02127664 -0.14589541
v -0.02483758 -0.02224203 -0.14603505
v -0.02483221 -0.02318740 -0.14579470
v -0.02481997 -0.02396880 -0.14521095
v -0.02475337 -0.01634971 -0.14171880
v -0.02524635 0.00505497 -0.16550107
v -0.02480279 -0.02471464 -0.14438225
v -0.02540715 0.00152623 -0.17353790
v -0.02539168 0.00677107 -0.17263433
v -0.02535398 0.01170579 -0.17064126
v -0.02529577 0.01610672 -0.16764902
v -0.02521968 0.01977441 -0.16379321
v -0.02512916 0.02254266 -0.15924856
v -0.02502832 0.02428600 -0.15422106
v -0.02492172 0.02492543 -0.14893857
v -0.02481420 0.02443195 -0.14364044
v -0.02471062 0.02282793 -0.13856684
v -0.02461569 0.02018609 -0.13394766
v -0.02453369 0.01662613 -0.12999228
v -0.02446837 0.01230940 -0.12687992
v -0.02442266 0.00743154 -0.12475167
v -0.02439864 0.00221360 -0.12370396
v -0.02439741 -0.00310792 -0.12378429
v -0.02441901 -0.00829188 -0.12498900
v -0.02446247 -0.01310331 -0.12726350
v -0.02452582 -0.01732416 -0.13050471
v -0.02460619 -0.02076316 -0.13456574
v -0.02469992 -0.02326444 -0.13926254
v -0.02539137 -0.01879315 -0.17329814
v -0.02543669 0.01184838 -0.17472273
v -0.02544480 0.01231298 -0.17511104
v -0.02545522 0.01172335 -0.17564151
v -0.02530863 -0.02311622 -0.16932596
v -0.02520727 -0.02672944 -0.16441499
v -0.02509406 -0.02931122 -0.15889187
v -0.02535125 0.01760564 -0.17034943
v -0.02541437 0.01403433 -0.17356241
v -0.02533654 0.01749877 -0.16962630
v -0.02540401 0.01369695 -0.17305966
v -0.02521011 0.02559046 -0.16316581
v -0.02522053 0.02500081 -0.16369629
v -0.02521017 0.02466345 -0.16319352
v -0.02523136 0.02258734 -0.16429554
v -0.02521921 0.02265028 -0.16369340
v -0.02551506 0.00637722 -0.17873943
v -0.02552679 0.00334186 -0.17939925
v -0.02552547 -0.00252887 -0.17949037
v -0.02550177 -0.00831148 -0.17847314
v -0.02545653 -0.01379851 -0.17638411
v -0.02497340 -0.03076168 -0.15297030
v -0.02516456 0.02767198 -0.16086057
v -0.02525095 0.02327948 -0.16524491
v -0.02531409 0.01970816 -0.16845788
v -0.02524284 0.02281488 -0.16485661
v -0.02531000 0.01900012 -0.16827558
v -0.02520410 0.02412929 -0.16290832
v -0.02469981 0.02901256 -0.13786866
v -0.02481551 0.03051353 -0.14354382
v -0.02493429 0.03091730 -0.14940016
v -0.02505188 0.03020940 -0.15522759
v -0.02511105 0.02923394 -0.15817612
v -0.02539795 0.01316281 -0.17277443
v -0.02532276 0.01774651 -0.16893855
v -0.02531315 0.01829000 -0.16844960
v -0.02549087 0.00921156 -0.17746867
v -0.02542521 0.01162085 -0.17416167
v -0.02541305 0.01168379 -0.17355952
v -0.02540307 0.01202241 -0.17305759
v -0.02539761 0.01255725 -0.17277369
v -0.02520376 0.02352374 -0.16290757
v -0.02520923 0.02298890 -0.16319147
v -0.02484996 -0.03102469 -0.14687942
v -0.02472849 -0.03009009 -0.14085488
v -0.02465853 -0.02861704 -0.13735989
v -0.02460069 -0.02619759 -0.13443884
v -0.02434740 -0.01186775 -0.12154683
v -0.02431176 -0.00935596 -0.11971967
v -0.02428756 -0.00652162 -0.11844893
v -0.02427583 -0.00348627 -0.11778909
v -0.02427715 0.00238447 -0.11769798
v -0.02430085 0.00816708 -0.11871519
v -0.02434609 0.01365411 -0.12080424
v -0.02441125 0.01864875 -0.12389021
v -0.02449399 0.02297182 -0.12786238
v -0.02459135 0.02646823 -0.13257825
f 2 3 34
f 3 54 34
f 3 53 54
f 4 53 3
f 4 52 53
f 13 52 4
f 13 51 52
f 50 51 13
f 71 50 13
f 35 50 71
f 35 70 50
f 37 70 35
f 35 36 37
f 71 13 72
f 72 13 14
f 72 14 73
f 73 14 15
f 73 15 74
f 74 15 67
f 43 67 15
f 43 15 68
f 68 15 16
f 68 16 69
f 69 16 17
f 69 17 60
f 60 17 48
f 48 17 49
f 49 17 18
f 18 76 49
f 18 75 76
f 19 75 18
f 19 61 75
f 62 61 19
f 61 62 63
f 63 64 61
f 61 64 65
f 61 65 47
f 47 65 66
f 47 66 56
f 45 47 56
f 45 46 47
f 19 20 62
f 21 62 20
f 22 62 21
f 22 90 62
f 23 90 22
f 23 89 90
f 24 89 23
f 24 88 89
f 87 88 24
f 25 87 24
f 25 86 87
f 26 86 25
f 26 85 86
f 27 85 26
f 27 84 85
f 28 84 27
f 28 83 84
f 29 83 28
f 29 82 83
f 81 82 29
f 30 81 29
f 31 81 30
f 31 80 81
f 32 80 31
f 32 79 80
f 33 79 32
f 33 78 79
f 12 78 33
f 12 77 78
f 55 77 12
f 9 55 12
f 9 40 55
f 8 40 9
f 7 40 8
f 7 2 40
f 2 39 40
f 2 38 39
f 6 2 7
f 6 1 2
f 5 1 6
f 5 11 1
f 10 11 5
f 60 48 59
f 59 58 60
f 57 58 59
f 44 67 43
f 43 42 44
f 41 42 43
f 34 38 2

