v 0.56199233 0.02704019 0.86494699
v 0.55985112 0.02669656 0.86260493
v 0.56077293 0.03058913 0.86217362
v 0.56300637 0.03002088 0.86547160
v 0.55985112 0.02669656 0.86260493
v 0.55724860 0.02694197 0.86127220
v 0.55764509 0.03088408 0.86057188
v 0.56077293 0.03058913 0.86217362
v 0.55724860 0.02694197 0.86127220
v 0.55418475 0.02777643 0.86094880
v 0.55362283 0.03090574 0.86066638
v 0.55764509 0.03088408 0.86057188
v 0.56300637 0.03002088 0.86547160
v 0.56077293 0.03058913 0.86217362
v 0.56055590 0.03395088 0.86321647
v 0.56282579 0.03281802 0.86633931
v 0.56077293 0.03058913 0.86217362
v 0.55764509 0.03088408 0.86057188
v 0.55742806 0.03424583 0.86161473
v 0.56055590 0.03395088 0.86321647
v 0.55764509 0.03088408 0.86057188
v 0.55362283 0.03090574 0.86066638
v 0.55344226 0.03370288 0.86153409
v 0.55742806 0.03424583 0.86161473
v 0.56282579 0.03281802 0.86633931
v 0.56055590 0.03395088 0.86321647
v 0.55920004 0.03678179 0.86573349
v 0.56145059 0.03543161 0.86755010
v 0.56055590 0.03395088 0.86321647
v 0.55742806 0.03424583 0.86161473
v 0.55659752 0.03702720 0.86440076
v 0.55920004 0.03678179 0.86573349
v 0.55742806 0.03424583 0.86161473
v 0.55344226 0.03370288 0.86153409
v 0.55364302 0.03616786 0.86355192
v 0.55659752 0.03702720 0.86440076
v 0.55418475 0.02777643 0.86094880
v 0.55210839 0.02615219 0.86274841
v 0.55032909 0.02976000 0.86267296
v 0.55362283 0.03090574 0.86066638
v 0.55210839 0.02615219 0.86274841
v 0.55076534 0.02530055 0.86521427
v 0.54871494 0.02873645 0.86563655
v 0.55032909 0.02976000 0.86267296
v 0.55076534 0.02530055 0.86521427
v 0.55015560 0.02522151 0.86834636
v 0.54878039 0.02783510 0.86955715
v 0.54871494 0.02873645 0.86563655
v 0.55362283 0.03090574 0.86066638
v 0.55032909 0.02976000 0.86267296
v 0.55011206 0.03312174 0.86371581
v 0.55344226 0.03370288 0.86153409
v 0.55032909 0.02976000 0.86267296
v 0.54871494 0.02873645 0.86563655
v 0.54849792 0.03209820 0.86667940
v 0.55011206 0.03312174 0.86371581
v 0.54871494 0.02873645 0.86563655
v 0.54878039 0.02783510 0.86955715
v 0.54859982 0.03063224 0.87042486
v 0.54849792 0.03209820 0.86667940
v 0.55344226 0.03370288 0.86153409
v 0.55011206 0.03312174 0.86371581
v 0.55145731 0.03623743 0.86587697
v 0.55364302 0.03616786 0.86355192
v 0.55011206 0.03312174 0.86371581
v 0.54849792 0.03209820 0.86667940
v 0.55011426 0.03538579 0.86834282
v 0.55145731 0.03623743 0.86587697
v 0.54849792 0.03209820 0.86667940
v 0.54859982 0.03063224 0.87042486
v 0.54961387 0.03361294 0.87094948
v 0.55011426 0.03538579 0.86834282
v 0.55015560 0.02522151 0.86834636
v 0.55240616 0.02387133 0.87016298
v 0.55105030 0.02670226 0.87267999
v 0.54878039 0.02783510 0.86955715
v 0.55240616 0.02387133 0.87016298
v 0.55500868 0.02362592 0.87149571
v 0.55417814 0.02640731 0.87428173
v 0.55105030 0.02670226 0.87267999
v 0.55500868 0.02362592 0.87149571
v 0.55796318 0.02448526 0.87234455
v 0.55816393 0.02695024 0.87436237
v 0.55417814 0.02640731 0.87428173
v 0.54878039 0.02783510 0.86955715
v 0.55105030 0.02670226 0.87267999
v 0.55083327 0.03006400 0.87372284
v 0.54859982 0.03063224 0.87042486
v 0.55105030 0.02670226 0.87267999
v 0.55417814 0.02640731 0.87428173
v 0.55396111 0.02976905 0.87532458
v 0.55083327 0.03006400 0.87372284
v 0.55417814 0.02640731 0.87428173
v 0.55816393 0.02695024 0.87436237
v 0.55798335 0.02974738 0.87523008
v 0.55396111 0.02976905 0.87532458
v 0.54859982 0.03063224 0.87042486
v 0.55083327 0.03006400 0.87372284
v 0.55175508 0.03395656 0.87329153
v 0.54961387 0.03361294 0.87094948
v 0.55083327 0.03006400 0.87372284
v 0.55396111 0.02976905 0.87532458
v 0.55435760 0.03371115 0.87462426
v 0.55175508 0.03395656 0.87329153
v 0.55396111 0.02976905 0.87532458
v 0.55798335 0.02974738 0.87523008
v 0.55742145 0.03287669 0.87494766
v 0.55435760 0.03371115 0.87462426
v 0.55796318 0.02448526 0.87234455
v 0.56014888 0.02441570 0.87001949
v 0.56149414 0.02753139 0.87218066
v 0.55816393 0.02695024 0.87436237
v 0.56014888 0.02441570 0.87001949
v 0.56149193 0.02526734 0.86755363
v 0.56310828 0.02855493 0.86921706
v 0.56149414 0.02753139 0.87218066
v 0.56149193 0.02526734 0.86755363
v 0.56199233 0.02704019 0.86494699
v 0.56300637 0.03002088 0.86547160
v 0.56310828 0.02855493 0.86921706
v 0.55816393 0.02695024 0.87436237
v 0.56149414 0.02753139 0.87218066
v 0.56127711 0.03089313 0.87322351
v 0.55798335 0.02974738 0.87523008
v 0.56149414 0.02753139 0.87218066
v 0.56310828 0.02855493 0.86921706
v 0.56289125 0.03191668 0.87025992
v 0.56127711 0.03089313 0.87322351
v 0.56310828 0.02855493 0.86921706
v 0.56300637 0.03002088 0.86547160
v 0.56282579 0.03281802 0.86633931
v 0.56289125 0.03191668 0.87025992
v 0.55798335 0.02974738 0.87523008
v 0.56127711 0.03089313 0.87322351
v 0.55949780 0.03450093 0.87314804
v 0.55742145 0.03287669 0.87494766
v 0.56127711 0.03089313 0.87322351
v 0.56289125 0.03191668 0.87025992
v 0.56084085 0.03535257 0.87068219
v 0.55949780 0.03450093 0.87314804
v 0.56289125 0.03191668 0.87025992
v 0.56282579 0.03281802 0.86633931
v 0.56145059 0.03543161 0.86755010
v 0.56084085 0.03535257 0.87068219
v 0.55796318 0.02448526 0.87234455
v 0.55500868 0.02362592 0.87149571
v 0.55700329 0.02279990 0.86810054
v 0.56014888 0.02441570 0.87001949
v 0.55500868 0.02362592 0.87149571
v 0.55240616 0.02387133 0.87016298
v 0.55387545 0.02309485 0.86649881
v 0.55700329 0.02279990 0.86810054
v 0.55240616 0.02387133 0.87016298
v 0.55015560 0.02522151 0.86834636
v 0.55076534 0.02530055 0.86521427
v 0.55387545 0.02309485 0.86649881
v 0.56014888 0.02441570 0.87001949
v 0.55700329 0.02279990 0.86810054
v 0.55861744 0.02382344 0.86513695
v 0.56149193 0.02526734 0.86755363
v 0.55700329 0.02279990 0.86810054
v 0.55387545 0.02309485 0.86649881
v 0.55548960 0.02411840 0.86353522
v 0.55861744 0.02382344 0.86513695
v 0.55387545 0.02309485 0.86649881
v 0.55076534 0.02530055 0.86521427
v 0.55210839 0.02615219 0.86274841
v 0.55548960 0.02411840 0.86353522
v 0.56149193 0.02526734 0.86755363
v 0.55861744 0.02382344 0.86513695
v 0.55985112 0.02669656 0.86260493
v 0.56199233 0.02704019 0.86494699
v 0.55861744 0.02382344 0.86513695
v 0.55548960 0.02411840 0.86353522
v 0.55724860 0.02694197 0.86127220
v 0.55985112 0.02669656 0.86260493
v 0.55548960 0.02411840 0.86353522
v 0.55210839 0.02615219 0.86274841
v 0.55418475 0.02777643 0.86094880
v 0.55724860 0.02694197 0.86127220
v 0.56145059 0.03543161 0.86755010
v 0.55920004 0.03678179 0.86573349
v 0.55773075 0.03755827 0.86939766
v 0.56084085 0.03535257 0.87068219
v 0.55920004 0.03678179 0.86573349
v 0.55659752 0.03702720 0.86440076
v 0.55460291 0.03785322 0.86779592
v 0.55773075 0.03755827 0.86939766
v 0.55659752 0.03702720 0.86440076
v 0.55364302 0.03616786 0.86355192
v 0.55145731 0.03623743 0.86587697
v 0.55460291 0.03785322 0.86779592
v 0.56084085 0.03535257 0.87068219
v 0.55773075 0.03755827 0.86939766
v 0.55611660 0.03653472 0.87236125
v 0.55949780 0.03450093 0.87314804
v 0.55773075 0.03755827 0.86939766
v 0.55460291 0.03785322 0.86779592
v 0.55298876 0.03682968 0.87075951
v 0.55611660 0.03653472 0.87236125
v 0.55460291 0.03785322 0.86779592
v 0.55145731 0.03623743 0.86587697
v 0.55011426 0.03538579 0.86834282
v 0.55298876 0.03682968 0.87075951
v 0.55949780 0.03450093 0.87314804
v 0.55611660 0.03653472 0.87236125
v 0.55435760 0.03371115 0.87462426
v 0.55742145 0.03287669 0.87494766
v 0.55611660 0.03653472 0.87236125
v 0.55298876 0.03682968 0.87075951
v 0.55175508 0.03395656 0.87329153
v 0.55435760 0.03371115 0.87462426
v 0.55298876 0.03682968 0.87075951
v 0.55011426 0.03538579 0.86834282
v 0.54961387 0.03361294 0.87094948
v 0.55175508 0.03395656 0.87329153
v 0.56776515 0.02405483 0.87541273
v 0.56483143 0.02549001 0.87278924
v 0.56729639 0.02999763 0.87400962
v 0.57008114 0.02697505 0.87732522
v 0.56483143 0.02549001 0.87278924
v 0.56155689 0.02722997 0.87175003
v 0.56336087 0.03208881 0.87276066
v 0.56729639 0.02999763 0.87400962
v 0.56155689 0.02722997 0.87175003
v 0.55794151 0.02927474 0.87229512
v 0.55827459 0.03324860 0.87357832
v 0.56336087 0.03208881 0.87276066
v 0.57008114 0.02697505 0.87732522
v 0.56729639 0.02999763 0.87400962
v 0.56820389 0.03345881 0.87694524
v 0.57083623 0.02985495 0.87976781
v 0.56729639 0.02999763 0.87400962
v 0.56336087 0.03208881 0.87276066
v 0.56426838 0.03555000 0.87569627
v 0.56820389 0.03345881 0.87694524
v 0.56336087 0.03208881 0.87276066
v 0.55827459 0.03324860 0.87357832
v 0.55902968 0.03612849 0.87602090
v 0.56426838 0.03555000 0.87569627
v 0.57083623 0.02985495 0.87976781
v 0.56820389 0.03345881 0.87694524
v 0.56755394 0.03587358 0.88159610
v 0.57003041 0.03269449 0.88274048
v 0.56820389 0.03345881 0.87694524
v 0.56426838 0.03555000 0.87569627
v 0.56427939 0.03761354 0.88055689
v 0.56755394 0.03587358 0.88159610
v 0.56426838 0.03555000 0.87569627
v 0.55902968 0.03612849 0.87602090
v 0.56020677 0.03791439 0.87962286
v 0.56427939 0.03761354 0.88055689
v 0.55794151 0.02927474 0.87229512
v 0.55484067 0.02705642 0.87403089
v 0.55380174 0.03184177 0.87600697
v 0.55827459 0.03324860 0.87357832
v 0.55484067 0.02705642 0.87403089
v 0.55295990 0.02518321 0.87682086
v 0.55154134 0.02959047 0.87936010
v 0.55380174 0.03184177 0.87600697
v 0.55295990 0.02518321 0.87682086
v 0.55229921 0.02365515 0.88066503
v 0.55149339 0.02649470 0.88363770
v 0.55154134 0.02959047 0.87936010
v 0.55827459 0.03324860 0.87357832
v 0.55380174 0.03184177 0.87600697
v 0.55470925 0.03530296 0.87894259
v 0.55902968 0.03612849 0.87602090
v 0.55380174 0.03184177 0.87600697
v 0.55154134 0.02959047 0.87936010
v 0.55244884 0.03305166 0.88229572
v 0.55470925 0.03530296 0.87894259
v 0.55154134 0.02959047 0.87936010
v 0.55149339 0.02649470 0.88363770
v 0.55224848 0.02937458 0.88608029
v 0.55244884 0.03305166 0.88229572
v 0.55902968 0.03612849 0.87602090
v 0.55470925 0.03530296 0.87894259
v 0.55756317 0.03743998 0.88283774
v 0.56020677 0.03791439 0.87962286
v 0.55470925 0.03530296 0.87894259
v 0.55244884 0.03305166 0.88229572
v 0.55568240 0.03556678 0.88562771
v 0.55756317 0.03743998 0.88283774
v 0.55244884 0.03305166 0.88229572
v 0.55224848 0.02937458 0.88608029
v 0.55456446 0.03229480 0.88799277
v 0.55568240 0.03556678 0.88562771
v 0.55229921 0.02365515 0.88066503
v 0.55477568 0.02047606 0.88180941
v 0.55412572 0.02289083 0.88646027
v 0.55149339 0.02649470 0.88363770
v 0.55477568 0.02047606 0.88180941
v 0.55805022 0.01873609 0.88284862
v 0.55806124 0.02079965 0.88770924
v 0.55412572 0.02289083 0.88646027
v 0.55805022 0.01873609 0.88284862
v 0.56212284 0.01843525 0.88378265
v 0.56329993 0.02022115 0.88738461
v 0.55806124 0.02079965 0.88770924
v 0.55149339 0.02649470 0.88363770
v 0.55412572 0.02289083 0.88646027
v 0.55503323 0.02635202 0.88939589
v 0.55224848 0.02937458 0.88608029
v 0.55412572 0.02289083 0.88646027
v 0.55806124 0.02079965 0.88770924
v 0.55896873 0.02426083 0.89064486
v 0.55503323 0.02635202 0.88939589
v 0.55806124 0.02079965 0.88770924
v 0.56329993 0.02022115 0.88738461
v 0.56405502 0.02310103 0.88982719
v 0.55896873 0.02426083 0.89064486
v 0.55224848 0.02937458 0.88608029
v 0.55503323 0.02635202 0.88939589
v 0.55749818 0.03085964 0.89061627
v 0.55456446 0.03229480 0.88799277
v 0.55503323 0.02635202 0.88939589
v 0.55896873 0.02426083 0.89064486
v 0.56077273 0.02911966 0.89165548
v 0.55749818 0.03085964 0.89061627
v 0.55896873 0.02426083 0.89064486
v 0.56405502 0.02310103 0.88982719
v 0.56438811 0.02707489 0.89111039
v 0.56077273 0.02911966 0.89165548
v 0.56212284 0.01843525 0.88378265
v 0.56476644 0.01890966 0.88056777
v 0.56762037 0.02104668 0.88446291
v 0.56329993 0.02022115 0.88738461
v 0.56476644 0.01890966 0.88056777
v 0.56664721 0.02078286 0.87777780
v 0.56988077 0.02329799 0.88110980
v 0.56762037 0.02104668 0.88446291
v 0.56664721 0.02078286 0.87777780
v 0.56776515 0.02405483 0.87541273
v 0.57008114 0.02697505 0.87732522
v 0.56988077 0.02329799 0.88110980
v 0.56329993 0.02022115 0.88738461
v 0.56762037 0.02104668 0.88446291
v 0.56852787 0.02450787 0.88739854
v 0.56405502 0.02310103 0.88982719
v 0.56762037 0.02104668 0.88446291
v 0.56988077 0.02329799 0.88110980
v 0.57078827 0.02675917 0.88404541
v 0.56852787 0.02450787 0.88739854
v 0.56988077 0.02329799 0.88110980
v 0.57008114 0.02697505 0.87732522
v 0.57083623 0.02985495 0.87976781
v 0.57078827 0.02675917 0.88404541
v 0.56405502 0.02310103 0.88982719
v 0.56852787 0.02450787 0.88739854
v 0.56748894 0.02929323 0.88937462
v 0.56438811 0.02707489 0.89111039
v 0.56852787 0.02450787 0.88739854
v 0.57078827 0.02675917 0.88404541
v 0.56936971 0.03116643 0.88658465
v 0.56748894 0.02929323 0.88937462
v 0.57078827 0.02675917 0.88404541
v 0.57083623 0.02985495 0.87976781
v 0.57003041 0.03269449 0.88274048
v 0.56936971 0.03116643 0.88658465
v 0.56212284 0.01843525 0.88378265
v 0.55805022 0.01873609 0.88284862
v 0.56014851 0.01893302 0.87800689
v 0.56476644 0.01890966 0.88056777
v 0.55805022 0.01873609 0.88284862
v 0.55477568 0.02047606 0.88180941
v 0.55621299 0.02102421 0.87675792
v 0.56014851 0.01893302 0.87800689
v 0.55477568 0.02047606 0.88180941
v 0.55229921 0.02365515 0.88066503
v 0.55295990 0.02518321 0.87682086
v 0.55621299 0.02102421 0.87675792
v 0.56476644 0.01890966 0.88056777
v 0.56014851 0.01893302 0.87800689
v 0.56240892 0.02118432 0.87465376
v 0.56664721 0.02078286 0.87777780
v 0.56014851 0.01893302 0.87800689
v 0.55621299 0.02102421 0.87675792
v 0.55847340 0.02327551 0.87340479
v 0.56240892 0.02118432 0.87465376
v 0.55621299 0.02102421 0.87675792
v 0.55295990 0.02518321 0.87682086
v 0.55484067 0.02705642 0.87403089
v 0.55847340 0.02327551 0.87340479
v 0.56664721 0.02078286 0.87777780
v 0.56240892 0.02118432 0.87465376
v 0.56483143 0.02549001 0.87278924
v 0.56776515 0.02405483 0.87541273
v 0.56240892 0.02118432 0.87465376
v 0.55847340 0.02327551 0.87340479
v 0.56155689 0.02722997 0.87175003
v 0.56483143 0.02549001 0.87278924
v 0.55847340 0.02327551 0.87340479
v 0.55484067 0.02705642 0.87403089
v 0.55794151 0.02927474 0.87229512
v 0.56155689 0.02722997 0.87175003
v 0.57003041 0.03269449 0.88274048
v 0.56755394 0.03587358 0.88159610
v 0.56611662 0.03532543 0.88664759
v 0.56936971 0.03116643 0.88658465
v 0.56755394 0.03587358 0.88159610
v 0.56427939 0.03761354 0.88055689
v 0.56218111 0.03741662 0.88539862
v 0.56611662 0.03532543 0.88664759
v 0.56427939 0.03761354 0.88055689
v 0.56020677 0.03791439 0.87962286
v 0.55756317 0.03743998 0.88283774
v 0.56218111 0.03741662 0.88539862
v 0.56936971 0.03116643 0.88658465
v 0.56611662 0.03532543 0.88664759
v 0.56385622 0.03307413 0.89000072
v 0.56748894 0.02929323 0.88937462
v 0.56611662 0.03532543 0.88664759
v 0.56218111 0.03741662 0.88539862
v 0.55992070 0.03516532 0.88875175
v 0.56385622 0.03307413 0.89000072
v 0.56218111 0.03741662 0.88539862
v 0.55756317 0.03743998 0.88283774
v 0.55568240 0.03556678 0.88562771
v 0.55992070 0.03516532 0.88875175
v 0.56748894 0.02929323 0.88937462
v 0.56385622 0.03307413 0.89000072
v 0.56077273 0.02911966 0.89165548
v 0.56438811 0.02707489 0.89111039
v 0.56385622 0.03307413 0.89000072
v 0.55992070 0.03516532 0.88875175
v 0.55749818 0.03085964 0.89061627
v 0.56077273 0.02911966 0.89165548
v 0.55992070 0.03516532 0.88875175
v 0.55568240 0.03556678 0.88562771
v 0.55456446 0.03229480 0.88799277
v 0.55749818 0.03085964 0.89061627
v 0.57614327 0.02964846 0.86288398
v 0.57357232 0.03090617 0.86058490
v 0.57573247 0.03485639 0.86165437
v 0.57817286 0.03220759 0.86455998
v 0.57357232 0.03090617 0.86058490
v 0.57070270 0.03243098 0.85967420
v 0.57228361 0.03668898 0.86055985
v 0.57573247 0.03485639 0.86165437
v 0.57070270 0.03243098 0.85967420
v 0.56753439 0.03422290 0.86015188
v 0.56782628 0.03770537 0.86127641
v 0.57228361 0.03668898 0.86055985
v 0.57817286 0.03220759 0.86455998
v 0.57573247 0.03485639 0.86165437
v 0.57652775 0.03788958 0.86422698
v 0.57883458 0.03473135 0.86670052
v 0.57573247 0.03485639 0.86165437
v 0.57228361 0.03668898 0.86055985
v 0.57307890 0.03972217 0.86313246
v 0.57652775 0.03788958 0.86422698
v 0.57228361 0.03668898 0.86055985
v 0.56782628 0.03770537 0.86127641
v 0.56848800 0.04022914 0.86341695
v 0.57307890 0.03972217 0.86313246
v 0.57883458 0.03473135 0.86670052
v 0.57652775 0.03788958 0.86422698
v 0.57595817 0.04000574 0.86830273
v 0.57812841 0.03721977 0.86930560
v 0.57652775 0.03788958 0.86422698
v 0.57307890 0.03972217 0.86313246
v 0.57308854 0.04153056 0.86739203
v 0.57595817 0.04000574 0.86830273
v 0.57307890 0.03972217 0.86313246
v 0.56848800 0.04022914 0.86341695
v 0.56951954 0.04179419 0.86657350
v 0.57308854 0.04153056 0.86739203
v 0.56753439 0.03422290 0.86015188
v 0.56481698 0.03227888 0.86167301
v 0.56390653 0.03647250 0.86340474
v 0.56782628 0.03770537 0.86127641
v 0.56481698 0.03227888 0.86167301
v 0.56316879 0.03063731 0.86411798
v 0.56192565 0.03449958 0.86634323
v 0.56390653 0.03647250 0.86340474
v 0.56316879 0.03063731 0.86411798
v 0.56258980 0.02929821 0.86748680
v 0.56188362 0.03178663 0.87009188
v 0.56192565 0.03449958 0.86634323
v 0.56782628 0.03770537 0.86127641
v 0.56390653 0.03647250 0.86340474
v 0.56470182 0.03950569 0.86597736
v 0.56848800 0.04022914 0.86341695
v 0.56390653 0.03647250 0.86340474
v 0.56192565 0.03449958 0.86634323
v 0.56272092 0.03753277 0.86891584
v 0.56470182 0.03950569 0.86597736
v 0.56192565 0.03449958 0.86634323
v 0.56188362 0.03178663 0.87009188
v 0.56254534 0.03431039 0.87223242
v 0.56272092 0.03753277 0.86891584
v 0.56848800 0.04022914 0.86341695
v 0.56470182 0.03950569 0.86597736
v 0.56720283 0.04137845 0.86939084
v 0.56951954 0.04179419 0.86657350
v 0.56470182 0.03950569 0.86597736
v 0.56272092 0.03753277 0.86891584
v 0.56555463 0.03973688 0.87183581
v 0.56720283 0.04137845 0.86939084
v 0.56272092 0.03753277 0.86891584
v 0.56254534 0.03431039 0.87223242
v 0.56457494 0.03686951 0.87390842
v 0.56555463 0.03973688 0.87183581
v 0.56258980 0.02929821 0.86748680
v 0.56476003 0.02651223 0.86848968
v 0.56419045 0.02862840 0.87256542
v 0.56188362 0.03178663 0.87009188
v 0.56476003 0.02651223 0.86848968
v 0.56762966 0.02498743 0.86940038
v 0.56763931 0.02679580 0.87365994
v 0.56419045 0.02862840 0.87256542
v 0.56762966 0.02498743 0.86940038
v 0.57119867 0.02472378 0.87021890
v 0.57223020 0.02628884 0.87337546
v 0.56763931 0.02679580 0.87365994
v 0.56188362 0.03178663 0.87009188
v 0.56419045 0.02862840 0.87256542
v 0.56498573 0.03166159 0.87513803
v 0.56254534 0.03431039 0.87223242
v 0.56419045 0.02862840 0.87256542
v 0.56763931 0.02679580 0.87365994
v 0.56843460 0.02982900 0.87623255
v 0.56498573 0.03166159 0.87513803
v 0.56763931 0.02679580 0.87365994
v 0.57223020 0.02628884 0.87337546
v 0.57289193 0.02881261 0.87551600
v 0.56843460 0.02982900 0.87623255
v 0.56254534 0.03431039 0.87223242
v 0.56498573 0.03166159 0.87513803
v 0.56714588 0.03561181 0.87620750
v 0.56457494 0.03686951 0.87390842
v 0.56498573 0.03166159 0.87513803
v 0.56843460 0.02982900 0.87623255
v 0.57001551 0.03408699 0.87711821
v 0.56714588 0.03561181 0.87620750
v 0.56843460 0.02982900 0.87623255
v 0.57289193 0.02881261 0.87551600
v 0.57318382 0.03229507 0.87664052
v 0.57001551 0.03408699 0.87711821
v 0.57119867 0.02472378 0.87021890
v 0.57351537 0.02513953 0.86740157
v 0.57601638 0.02701229 0.87081506
v 0.57223020 0.02628884 0.87337546
v 0.57351537 0.02513953 0.86740157
v 0.57516357 0.02678109 0.86495659
v 0.57799728 0.02898521 0.86787656
v 0.57601638 0.02701229 0.87081506
v 0.57516357 0.02678109 0.86495659
v 0.57614327 0.02964846 0.86288398
v 0.57817286 0.03220759 0.86455998
v 0.57799728 0.02898521 0.86787656
v 0.57223020 0.02628884 0.87337546
v 0.57601638 0.02701229 0.87081506
v 0.57681167 0.03004548 0.87338766
v 0.57289193 0.02881261 0.87551600
v 0.57601638 0.02701229 0.87081506
v 0.57799728 0.02898521 0.86787656
v 0.57879256 0.03201840 0.87044917
v 0.57681167 0.03004548 0.87338766
v 0.57799728 0.02898521 0.86787656
v 0.57817286 0.03220759 0.86455998
v 0.57883458 0.03473135 0.86670052
v 0.57879256 0.03201840 0.87044917
v 0.57289193 0.02881261 0.87551600
v 0.57681167 0.03004548 0.87338766
v 0.57590122 0.03423909 0.87511939
v 0.57318382 0.03229507 0.87664052
v 0.57681167 0.03004548 0.87338766
v 0.57879256 0.03201840 0.87044917
v 0.57754941 0.03588066 0.87267442
v 0.57590122 0.03423909 0.87511939
v 0.57879256 0.03201840 0.87044917
v 0.57883458 0.03473135 0.86670052
v 0.57812841 0.03721977 0.86930560
v 0.57754941 0.03588066 0.87267442
v 0.57119867 0.02472378 0.87021890
v 0.56762966 0.02498743 0.86940038
v 0.56946848 0.02516000 0.86515735
v 0.57351537 0.02513953 0.86740157
v 0.56762966 0.02498743 0.86940038
v 0.56476003 0.02651223 0.86848968
v 0.56601962 0.02699259 0.86406283
v 0.56946848 0.02516000 0.86515735
v 0.56476003 0.02651223 0.86848968
v 0.56258980 0.02929821 0.86748680
v 0.56316879 0.03063731 0.86411798
v 0.56601962 0.02699259 0.86406283
v 0.57351537 0.02513953 0.86740157
v 0.56946848 0.02516000 0.86515735
v 0.57144936 0.02713291 0.86221886
v 0.57516357 0.02678109 0.86495659
v 0.56946848 0.02516000 0.86515735
v 0.56601962 0.02699259 0.86406283
v 0.56800050 0.02896550 0.86112434
v 0.57144936 0.02713291 0.86221886
v 0.56601962 0.02699259 0.86406283
v 0.56316879 0.03063731 0.86411798
v 0.56481698 0.03227888 0.86167301
v 0.56800050 0.02896550 0.86112434
v 0.57516357 0.02678109 0.86495659
v 0.57144936 0.02713291 0.86221886
v 0.57357232 0.03090617 0.86058490
v 0.57614327 0.02964846 0.86288398
v 0.57144936 0.02713291 0.86221886
v 0.56800050 0.02896550 0.86112434
v 0.57070270 0.03243098 0.85967420
v 0.57357232 0.03090617 0.86058490
v 0.56800050 0.02896550 0.86112434
v 0.56481698 0.03227888 0.86167301
v 0.56753439 0.03422290 0.86015188
v 0.57070270 0.03243098 0.85967420
v 0.57812841 0.03721977 0.86930560
v 0.57595817 0.04000574 0.86830273
v 0.57469859 0.03952538 0.87272957
v 0.57754941 0.03588066 0.87267442
v 0.57595817 0.04000574 0.86830273
v 0.57308854 0.04153056 0.86739203
v 0.57124973 0.04135798 0.87163505
v 0.57469859 0.03952538 0.87272957
v 0.57308854 0.04153056 0.86739203
v 0.56951954 0.04179419 0.86657350
v 0.56720283 0.04137845 0.86939084
v 0.57124973 0.04135798 0.87163505
v 0.57754941 0.03588066 0.87267442
v 0.57469859 0.03952538 0.87272957
v 0.57271770 0.03755247 0.87566806
v 0.57590122 0.03423909 0.87511939
v 0.57469859 0.03952538 0.87272957
v 0.57124973 0.04135798 0.87163505
v 0.56926884 0.03938506 0.87457354
v 0.57271770 0.03755247 0.87566806
v 0.57124973 0.04135798 0.87163505
v 0.56720283 0.04137845 0.86939084
v 0.56555463 0.03973688 0.87183581
v 0.56926884 0.03938506 0.87457354
v 0.57590122 0.03423909 0.87511939
v 0.57271770 0.03755247 0.87566806
v 0.57001551 0.03408699 0.87711821
v 0.57318382 0.03229507 0.87664052
v 0.57271770 0.03755247 0.87566806
v 0.56926884 0.03938506 0.87457354
v 0.56714588 0.03561181 0.87620750
v 0.57001551 0.03408699 0.87711821
v 0.56926884 0.03938506 0.87457354
v 0.56555463 0.03973688 0.87183581
v 0.56457494 0.03686951 0.87390842
v 0.56714588 0.03561181 0.87620750
v 0.57710314 0.02405137 0.87659025
v 0.57498148 0.02508929 0.87469294
v 0.57676413 0.02834920 0.87557553
v 0.57877806 0.02616327 0.87797337
v 0.57498148 0.02508929 0.87469294
v 0.57261334 0.02634763 0.87394140
v 0.57391797 0.02986154 0.87467227
v 0.57676413 0.02834920 0.87557553
v 0.57261334 0.02634763 0.87394140
v 0.56999870 0.02782641 0.87433560
v 0.57023958 0.03070030 0.87526361
v 0.57391797 0.02986154 0.87467227
v 0.57877806 0.02616327 0.87797337
v 0.57676413 0.02834920 0.87557553
v 0.57742044 0.03085232 0.87769857
v 0.57932414 0.02824600 0.87973985
v 0.57676413 0.02834920 0.87557553
v 0.57391797 0.02986154 0.87467227
v 0.57457428 0.03236466 0.87679531
v 0.57742044 0.03085232 0.87769857
v 0.57391797 0.02986154 0.87467227
v 0.57023958 0.03070030 0.87526361
v 0.57078566 0.03278302 0.87703008
v 0.57457428 0.03236466 0.87679531
v 0.57932414 0.02824600 0.87973985
v 0.57742044 0.03085232 0.87769857
v 0.57695039 0.03259867 0.88106206
v 0.57874137 0.03029956 0.88188967
v 0.57742044 0.03085232 0.87769857
v 0.57457428 0.03236466 0.87679531
v 0.57458225 0.03385701 0.88031050
v 0.57695039 0.03259867 0.88106206
v 0.57457428 0.03236466 0.87679531
v 0.57078566 0.03278302 0.87703008
v 0.57163694 0.03407460 0.87963501
v 0.57458225 0.03385701 0.88031050
v 0.56999870 0.02782641 0.87433560
v 0.56775617 0.02622211 0.87559091
v 0.56700482 0.02968288 0.87702001
v 0.57023958 0.03070030 0.87526361
v 0.56775617 0.02622211 0.87559091
v 0.56639600 0.02486742 0.87760861
v 0.56537010 0.02805474 0.87944498
v 0.56700482 0.02968288 0.87702001
v 0.56639600 0.02486742 0.87760861
v 0.56591820 0.02376233 0.88038871
v 0.56533543 0.02581589 0.88253854
v 0.56537010 0.02805474 0.87944498
v 0.57023958 0.03070030 0.87526361
v 0.56700482 0.02968288 0.87702001
v 0.56766114 0.03218601 0.87914304
v 0.57078566 0.03278302 0.87703008
v 0.56700482 0.02968288 0.87702001
v 0.56537010 0.02805474 0.87944498
v 0.56602641 0.03055787 0.88156803
v 0.56766114 0.03218601 0.87914304
v 0.56537010 0.02805474 0.87944498
v 0.56533543 0.02581589 0.88253854
v 0.56588150 0.02789861 0.88430501
v 0.56602641 0.03055787 0.88156803
v 0.57078566 0.03278302 0.87703008
v 0.56766114 0.03218601 0.87914304
v 0.56972508 0.03373150 0.88196001
v 0.57163694 0.03407460 0.87963501
v 0.56766114 0.03218601 0.87914304
v 0.56602641 0.03055787 0.88156803
v 0.56836491 0.03237680 0.88397771
v 0.56972508 0.03373150 0.88196001
v 0.56602641 0.03055787 0.88156803
v 0.56588150 0.02789861 0.88430501
v 0.56755642 0.03001051 0.88568813
v 0.56836491 0.03237680 0.88397771
v 0.56591820 0.02376233 0.88038871
v 0.56770918 0.02146321 0.88121634
v 0.56723913 0.02320957 0.88457982
v 0.56533543 0.02581589 0.88253854
v 0.56770918 0.02146321 0.88121634
v 0.57007732 0.02020487 0.88196788
v 0.57008528 0.02169723 0.88548307
v 0.56723913 0.02320957 0.88457982
v 0.57007732 0.02020487 0.88196788
v 0.57302264 0.01998729 0.88264337
v 0.57387391 0.02127886 0.88524830
v 0.57008528 0.02169723 0.88548307
v 0.56533543 0.02581589 0.88253854
v 0.56723913 0.02320957 0.88457982
v 0.56789543 0.02571270 0.88670286
v 0.56588150 0.02789861 0.88430501
v 0.56723913 0.02320957 0.88457982
v 0.57008528 0.02169723 0.88548307
v 0.57074159 0.02420035 0.88760610
v 0.56789543 0.02571270 0.88670286
v 0.57008528 0.02169723 0.88548307
v 0.57387391 0.02127886 0.88524830
v 0.57441998 0.02336159 0.88701477
v 0.57074159 0.02420035 0.88760610
v 0.56588150 0.02789861 0.88430501
v 0.56789543 0.02571270 0.88670286
v 0.56967808 0.02897260 0.88758543
v 0.56755642 0.03001051 0.88568813
v 0.56789543 0.02571270 0.88670286
v 0.57074159 0.02420035 0.88760610
v 0.57204623 0.02771426 0.88833699
v 0.56967808 0.02897260 0.88758543
v 0.57074159 0.02420035 0.88760610
v 0.57441998 0.02336159 0.88701477
v 0.57466086 0.02623547 0.88794278
v 0.57204623 0.02771426 0.88833699
v 0.57302264 0.01998729 0.88264337
v 0.57493448 0.02033040 0.88031837
v 0.57699844 0.02187588 0.88313534
v 0.57387391 0.02127886 0.88524830
v 0.57493448 0.02033040 0.88031837
v 0.57629465 0.02168509 0.87830067
v 0.57863316 0.02350402 0.88071036
v 0.57699844 0.02187588 0.88313534
v 0.57629465 0.02168509 0.87830067
v 0.57710314 0.02405137 0.87659025
v 0.57877806 0.02616327 0.87797337
v 0.57863316 0.02350402 0.88071036
v 0.57387391 0.02127886 0.88524830
v 0.57699844 0.02187588 0.88313534
v 0.57765474 0.02437901 0.88525837
v 0.57441998 0.02336159 0.88701477
v 0.57699844 0.02187588 0.88313534
v 0.57863316 0.02350402 0.88071036
v 0.57928946 0.02600715 0.88283339
v 0.57765474 0.02437901 0.88525837
v 0.57863316 0.02350402 0.88071036
v 0.57877806 0.02616327 0.87797337
v 0.57932414 0.02824600 0.87973985
v 0.57928946 0.02600715 0.88283339
v 0.57441998 0.02336159 0.88701477
v 0.57765474 0.02437901 0.88525837
v 0.57690339 0.02783977 0.88668747
v 0.57466086 0.02623547 0.88794278
v 0.57765474 0.02437901 0.88525837
v 0.57928946 0.02600715 0.88283339
v 0.57826356 0.02919447 0.88466977
v 0.57690339 0.02783977 0.88668747
v 0.57928946 0.02600715 0.88283339
v 0.57932414 0.02824600 0.87973985
v 0.57874137 0.03029956 0.88188967
v 0.57826356 0.02919447 0.88466977
v 0.57302264 0.01998729 0.88264337
v 0.57007732 0.02020487 0.88196788
v 0.57159480 0.02034729 0.87846635
v 0.57493448 0.02033040 0.88031837
v 0.57007732 0.02020487 0.88196788
v 0.56770918 0.02146321 0.88121634
v 0.56874864 0.02185963 0.87756308
v 0.57159480 0.02034729 0.87846635
v 0.56770918 0.02146321 0.88121634
v 0.56591820 0.02376233 0.88038871
v 0.56639600 0.02486742 0.87760861
v 0.56874864 0.02185963 0.87756308
v 0.57493448 0.02033040 0.88031837
v 0.57159480 0.02034729 0.87846635
v 0.57322952 0.02197542 0.87604137
v 0.57629465 0.02168509 0.87830067
v 0.57159480 0.02034729 0.87846635
v 0.56874864 0.02185963 0.87756308
v 0.57038336 0.02348777 0.87513812
v 0.57322952 0.02197542 0.87604137
v 0.56874864 0.02185963 0.87756308
v 0.56639600 0.02486742 0.87760861
v 0.56775617 0.02622211 0.87559091
v 0.57038336 0.02348777 0.87513812
v 0.57629465 0.02168509 0.87830067
v 0.57322952 0.02197542 0.87604137
v 0.57498148 0.02508929 0.87469294
v 0.57710314 0.02405137 0.87659025
v 0.57322952 0.02197542 0.87604137
v 0.57038336 0.02348777 0.87513812
v 0.57261334 0.02634763 0.87394140
v 0.57498148 0.02508929 0.87469294
v 0.57038336 0.02348777 0.87513812
v 0.56775617 0.02622211 0.87559091
v 0.56999870 0.02782641 0.87433560
v 0.57261334 0.02634763 0.87394140
v 0.57874137 0.03029956 0.88188967
v 0.57695039 0.03259867 0.88106206
v 0.57591093 0.03220225 0.88471529
v 0.57826356 0.02919447 0.88466977
v 0.57695039 0.03259867 0.88106206
v 0.57458225 0.03385701 0.88031050
v 0.57306477 0.03371460 0.88381203
v 0.57591093 0.03220225 0.88471529
v 0.57458225 0.03385701 0.88031050
v 0.57163694 0.03407460 0.87963501
v 0.56972508 0.03373150 0.88196001
v 0.57306477 0.03371460 0.88381203
v 0.57826356 0.02919447 0.88466977
v 0.57591093 0.03220225 0.88471529
v 0.57427621 0.03057412 0.88714027
v 0.57690339 0.02783977 0.88668747
v 0.57591093 0.03220225 0.88471529
v 0.57306477 0.03371460 0.88381203
v 0.57143005 0.03208646 0.88623702
v 0.57427621 0.03057412 0.88714027
v 0.57306477 0.03371460 0.88381203
v 0.56972508 0.03373150 0.88196001
v 0.56836491 0.03237680 0.88397771
v 0.57143005 0.03208646 0.88623702
v 0.57690339 0.02783977 0.88668747
v 0.57427621 0.03057412 0.88714027
v 0.57204623 0.02771426 0.88833699
v 0.57466086 0.02623547 0.88794278
v 0.57427621 0.03057412 0.88714027
v 0.57143005 0.03208646 0.88623702
v 0.56967808 0.02897260 0.88758543
v 0.57204623 0.02771426 0.88833699
v 0.57143005 0.03208646 0.88623702
v 0.56836491 0.03237680 0.88397771
v 0.56755642 0.03001051 0.88568813
v 0.56967808 0.02897260 0.88758543
v 0.56374595 0.03233833 0.86771267
v 0.56174215 0.03331859 0.86592077
v 0.56342577 0.03639738 0.86675432
v 0.56532782 0.03433290 0.86901895
v 0.56174215 0.03331859 0.86592077
v 0.55950556 0.03450703 0.86521097
v 0.56073773 0.03782570 0.86590124
v 0.56342577 0.03639738 0.86675432
v 0.55950556 0.03450703 0.86521097
v 0.55703617 0.03590364 0.86558327
v 0.55726368 0.03861788 0.86645972
v 0.56073773 0.03782570 0.86590124
v 0.56532782 0.03433290 0.86901895
v 0.56342577 0.03639738 0.86675432
v 0.56404562 0.03876147 0.86875941
v 0.56584357 0.03629994 0.87068729
v 0.56342577 0.03639738 0.86675432
v 0.56073773 0.03782570 0.86590124
v 0.56135758 0.04018979 0.86790634
v 0.56404562 0.03876147 0.86875941
v 0.56073773 0.03782570 0.86590124
v 0.55726368 0.03861788 0.86645972
v 0.55777943 0.04058492 0.86812807
v 0.56135758 0.04018979 0.86790634
v 0.56584357 0.03629994 0.87068729
v 0.56404562 0.03876147 0.86875941
v 0.56360168 0.04041079 0.87193605
v 0.56529318 0.03823941 0.87271769
v 0.56404562 0.03876147 0.86875941
v 0.56135758 0.04018979 0.86790634
v 0.56136509 0.04159924 0.87122625
v 0.56360168 0.04041079 0.87193605
v 0.56135758 0.04018979 0.86790634
v 0.55777943 0.04058492 0.86812807
v 0.55858341 0.04180472 0.87058829
v 0.56136509 0.04159924 0.87122625
v 0.55703617 0.03590364 0.86558327
v 0.55491823 0.03438848 0.86676884
v 0.55420862 0.03765699 0.86811856
v 0.55726368 0.03861788 0.86645972
v 0.55491823 0.03438848 0.86676884
v 0.55363362 0.03310904 0.86867446
v 0.55266472 0.03611929 0.87040881
v 0.55420862 0.03765699 0.86811856
v 0.55363362 0.03310904 0.86867446
v 0.55318236 0.03206534 0.87130011
v 0.55263197 0.03400482 0.87333051
v 0.55266472 0.03611929 0.87040881
v 0.55726368 0.03861788 0.86645972
v 0.55420862 0.03765699 0.86811856
v 0.55482847 0.04002105 0.87012365
v 0.55777943 0.04058492 0.86812807
v 0.55420862 0.03765699 0.86811856
v 0.55266472 0.03611929 0.87040881
v 0.55328457 0.03848336 0.87241391
v 0.55482847 0.04002105 0.87012365
v 0.55266472 0.03611929 0.87040881
v 0.55263197 0.03400482 0.87333051
v 0.55314771 0.03597184 0.87499885
v 0.55328457 0.03848336 0.87241391
v 0.55777943 0.04058492 0.86812807
v 0.55482847 0.04002105 0.87012365
v 0.55677777 0.04148069 0.87278413
v 0.55858341 0.04180472 0.87058829
v 0.55482847 0.04002105 0.87012365
v 0.55328457 0.03848336 0.87241391
v 0.55549316 0.04020124 0.87468974
v 0.55677777 0.04148069 0.87278413
v 0.55328457 0.03848336 0.87241391
v 0.55314771 0.03597184 0.87499885
v 0.55472958 0.03796641 0.87630513
v 0.55549316 0.04020124 0.87468974
v 0.55318236 0.03206534 0.87130011
v 0.55487385 0.02989395 0.87208176
v 0.55442991 0.03154329 0.87525839
v 0.55263197 0.03400482 0.87333051
v 0.55487385 0.02989395 0.87208176
v 0.55711044 0.02870551 0.87279156
v 0.55711795 0.03011497 0.87611147
v 0.55442991 0.03154329 0.87525839
v 0.55711044 0.02870551 0.87279156
v 0.55989212 0.02850003 0.87342952
v 0.56069610 0.02971983 0.87588974
v 0.55711795 0.03011497 0.87611147
v 0.55263197 0.03400482 0.87333051
v 0.55442991 0.03154329 0.87525839
v 0.55504975 0.03390737 0.87726349
v 0.55314771 0.03597184 0.87499885
v 0.55442991 0.03154329 0.87525839
v 0.55711795 0.03011497 0.87611147
v 0.55773780 0.03247904 0.87811657
v 0.55504975 0.03390737 0.87726349
v 0.55711795 0.03011497 0.87611147
v 0.56069610 0.02971983 0.87588974
v 0.56121184 0.03168687 0.87755808
v 0.55773780 0.03247904 0.87811657
v 0.55314771 0.03597184 0.87499885
v 0.55504975 0.03390737 0.87726349
v 0.55673338 0.03698616 0.87809704
v 0.55472958 0.03796641 0.87630513
v 0.55504975 0.03390737 0.87726349
v 0.55773780 0.03247904 0.87811657
v 0.55896997 0.03579772 0.87880684
v 0.55673338 0.03698616 0.87809704
v 0.55773780 0.03247904 0.87811657
v 0.56121184 0.03168687 0.87755808
v 0.56143935 0.03440109 0.87843453
v 0.55896997 0.03579772 0.87880684
v 0.55989212 0.02850003 0.87342952
v 0.56169776 0.02882406 0.87123368
v 0.56364706 0.03028369 0.87389416
v 0.56069610 0.02971983 0.87588974
v 0.56169776 0.02882406 0.87123368
v 0.56298237 0.03010349 0.86932806
v 0.56519097 0.03182138 0.87160390
v 0.56364706 0.03028369 0.87389416
v 0.56298237 0.03010349 0.86932806
v 0.56374595 0.03233833 0.86771267
v 0.56532782 0.03433290 0.86901895
v 0.56519097 0.03182138 0.87160390
v 0.56069610 0.02971983 0.87588974
v 0.56364706 0.03028369 0.87389416
v 0.56426691 0.03264777 0.87589925
v 0.56121184 0.03168687 0.87755808
v 0.56364706 0.03028369 0.87389416
v 0.56519097 0.03182138 0.87160390
v 0.56581081 0.03418546 0.87360899
v 0.56426691 0.03264777 0.87589925
v 0.56519097 0.03182138 0.87160390
v 0.56532782 0.03433290 0.86901895
v 0.56584357 0.03629994 0.87068729
v 0.56581081 0.03418546 0.87360899
v 0.56121184 0.03168687 0.87755808
v 0.56426691 0.03264777 0.87589925
v 0.56355729 0.03591627 0.87724896
v 0.56143935 0.03440109 0.87843453
v 0.56426691 0.03264777 0.87589925
v 0.56581081 0.03418546 0.87360899
v 0.56484191 0.03719570 0.87534335
v 0.56355729 0.03591627 0.87724896
v 0.56581081 0.03418546 0.87360899
v 0.56584357 0.03629994 0.87068729
v 0.56529318 0.03823941 0.87271769
v 0.56484191 0.03719570 0.87534335
v 0.55989212 0.02850003 0.87342952
v 0.55711044 0.02870551 0.87279156
v 0.55854361 0.02884002 0.86948455
v 0.56169776 0.02882406 0.87123368
v 0.55711044 0.02870551 0.87279156
v 0.55487385 0.02989395 0.87208176
v 0.55585556 0.03026834 0.86863147
v 0.55854361 0.02884002 0.86948455
v 0.55487385 0.02989395 0.87208176
v 0.55318236 0.03206534 0.87130011
v 0.55363362 0.03310904 0.86867446
v 0.55585556 0.03026834 0.86863147
v 0.56169776 0.02882406 0.87123368
v 0.55854361 0.02884002 0.86948455
v 0.56008752 0.03037770 0.86719428
v 0.56298237 0.03010349 0.86932806
v 0.55854361 0.02884002 0.86948455
v 0.55585556 0.03026834 0.86863147
v 0.55739947 0.03180604 0.86634120
v 0.56008752 0.03037770 0.86719428
v 0.55585556 0.03026834 0.86863147
v 0.55363362 0.03310904 0.86867446
v 0.55491823 0.03438848 0.86676884
v 0.55739947 0.03180604 0.86634120
v 0.56298237 0.03010349 0.86932806
v 0.56008752 0.03037770 0.86719428
v 0.56174215 0.03331859 0.86592077
v 0.56374595 0.03233833 0.86771267
v 0.56008752 0.03037770 0.86719428
v 0.55739947 0.03180604 0.86634120
v 0.55950556 0.03450703 0.86521097
v 0.56174215 0.03331859 0.86592077
v 0.55739947 0.03180604 0.86634120
v 0.55491823 0.03438848 0.86676884
v 0.55703617 0.03590364 0.86558327
v 0.55950556 0.03450703 0.86521097
v 0.56529318 0.03823941 0.87271769
v 0.56360168 0.04041079 0.87193605
v 0.56261996 0.04003641 0.87538634
v 0.56484191 0.03719570 0.87534335
v 0.56360168 0.04041079 0.87193605
v 0.56136509 0.04159924 0.87122625
v 0.55993192 0.04146474 0.87453326
v 0.56261996 0.04003641 0.87538634
v 0.56136509 0.04159924 0.87122625
v 0.55858341 0.04180472 0.87058829
v 0.55677777 0.04148069 0.87278413
v 0.55993192 0.04146474 0.87453326
v 0.56484191 0.03719570 0.87534335
v 0.56261996 0.04003641 0.87538634
v 0.56107606 0.03849871 0.87767660
v 0.56355729 0.03591627 0.87724896
v 0.56261996 0.04003641 0.87538634
v 0.55993192 0.04146474 0.87453326
v 0.55838801 0.03992704 0.87682353
v 0.56107606 0.03849871 0.87767660
v 0.55993192 0.04146474 0.87453326
v 0.55677777 0.04148069 0.87278413
v 0.55549316 0.04020124 0.87468974
v 0.55838801 0.03992704 0.87682353
v 0.56355729 0.03591627 0.87724896
v 0.56107606 0.03849871 0.87767660
v 0.55896997 0.03579772 0.87880684
v 0.56143935 0.03440109 0.87843453
v 0.56107606 0.03849871 0.87767660
v 0.55838801 0.03992704 0.87682353
v 0.55673338 0.03698616 0.87809704
v 0.55896997 0.03579772 0.87880684
v 0.55838801 0.03992704 0.87682353
v 0.55549316 0.04020124 0.87468974
v 0.55472958 0.03796641 0.87630513
v 0.55673338 0.03698616 0.87809704
v 0.55489256 0.02406332 0.87232680
v 0.55382608 0.02458504 0.87137309
v 0.55472215 0.02622367 0.87181674
v 0.55573448 0.02512489 0.87302204
v 0.55382608 0.02458504 0.87137309
v 0.55263571 0.02521756 0.87099532
v 0.55329150 0.02698386 0.87136270
v 0.55472215 0.02622367 0.87181674
v 0.55263571 0.02521756 0.87099532
v 0.55132143 0.02596088 0.87119347
v 0.55144251 0.02740547 0.87165994
v 0.55329150 0.02698386 0.87136270
v 0.55573448 0.02512489 0.87302204
v 0.55472215 0.02622367 0.87181674
v 0.55505205 0.02748189 0.87288390
v 0.55600898 0.02617180 0.87390997
v 0.55472215 0.02622367 0.87181674
v 0.55329150 0.02698386 0.87136270
v 0.55362140 0.02824209 0.87242987
v 0.55505205 0.02748189 0.87288390
v 0.55329150 0.02698386 0.87136270
v 0.55144251 0.02740547 0.87165994
v 0.55171701 0.02845238 0.87254788
v 0.55362140 0.02824209 0.87242987
v 0.55600898 0.02617180 0.87390997
v 0.55505205 0.02748189 0.87288390
v 0.55481578 0.02835972 0.87457460
v 0.55571603 0.02720404 0.87499062
v 0.55505205 0.02748189 0.87288390
v 0.55362140 0.02824209 0.87242987
v 0.55362540 0.02899223 0.87419682
v 0.55481578 0.02835972 0.87457460
v 0.55362140 0.02824209 0.87242987
v 0.55171701 0.02845238 0.87254788
v 0.55214490 0.02910161 0.87385728
v 0.55362540 0.02899223 0.87419682
v 0.55132143 0.02596088 0.87119347
v 0.55019420 0.02515447 0.87182447
v 0.54981652 0.02689406 0.87254282
v 0.55144251 0.02740547 0.87165994
v 0.55019420 0.02515447 0.87182447
v 0.54951049 0.02447351 0.87283869
v 0.54899482 0.02607565 0.87376177
v 0.54981652 0.02689406 0.87254282
v 0.54951049 0.02447351 0.87283869
v 0.54927031 0.02391802 0.87423614
v 0.54897739 0.02495027 0.87531677
v 0.54899482 0.02607565 0.87376177
v 0.55144251 0.02740547 0.87165994
v 0.54981652 0.02689406 0.87254282
v 0.55014642 0.02815228 0.87360999
v 0.55171701 0.02845238 0.87254788
v 0.54981652 0.02689406 0.87254282
v 0.54899482 0.02607565 0.87376177
v 0.54932471 0.02733388 0.87482893
v 0.55014642 0.02815228 0.87360999
v 0.54899482 0.02607565 0.87376177
v 0.54897739 0.02495027 0.87531677
v 0.54925187 0.02599718 0.87620471
v 0.54932471 0.02733388 0.87482893
v 0.55171701 0.02845238 0.87254788
v 0.55014642 0.02815228 0.87360999
v 0.55118389 0.02892914 0.87502597
v 0.55214490 0.02910161 0.87385728
v 0.55014642 0.02815228 0.87360999
v 0.54932471 0.02733388 0.87482893
v 0.55050019 0.02824819 0.87604019
v 0.55118389 0.02892914 0.87502597
v 0.54932471 0.02733388 0.87482893
v 0.54925187 0.02599718 0.87620471
v 0.55009379 0.02705874 0.87689995
v 0.55050019 0.02824819 0.87604019
v 0.54927031 0.02391802 0.87423614
v 0.55017057 0.02276234 0.87465215
v 0.54993430 0.02364017 0.87634284
v 0.54897739 0.02495027 0.87531677
v 0.55017057 0.02276234 0.87465215
v 0.55136095 0.02212983 0.87502992
v 0.55136495 0.02287998 0.87679688
v 0.54993430 0.02364017 0.87634284
v 0.55136095 0.02212983 0.87502992
v 0.55284145 0.02202046 0.87536947
v 0.55326934 0.02266969 0.87667887
v 0.55136495 0.02287998 0.87679688
v 0.54897739 0.02495027 0.87531677
v 0.54993430 0.02364017 0.87634284
v 0.55026420 0.02489840 0.87741001
v 0.54925187 0.02599718 0.87620471
v 0.54993430 0.02364017 0.87634284
v 0.55136495 0.02287998 0.87679688
v 0.55169485 0.02413821 0.87786404
v 0.55026420 0.02489840 0.87741001
v 0.55136495 0.02287998 0.87679688
v 0.55326934 0.02266969 0.87667887
v 0.55354384 0.02371659 0.87756680
v 0.55169485 0.02413821 0.87786404
v 0.54925187 0.02599718 0.87620471
v 0.55026420 0.02489840 0.87741001
v 0.55116027 0.02653703 0.87785365
v 0.55009379 0.02705874 0.87689995
v 0.55026420 0.02489840 0.87741001
v 0.55169485 0.02413821 0.87786404
v 0.55235064 0.02590451 0.87823143
v 0.55116027 0.02653703 0.87785365
v 0.55169485 0.02413821 0.87786404
v 0.55354384 0.02371659 0.87756680
v 0.55366493 0.02516118 0.87803328
v 0.55235064 0.02590451 0.87823143
v 0.55284145 0.02202046 0.87536947
v 0.55380246 0.02219292 0.87420078
v 0.55483993 0.02296979 0.87561677
v 0.55326934 0.02266969 0.87667887
v 0.55380246 0.02219292 0.87420078
v 0.55448616 0.02287387 0.87318655
v 0.55566164 0.02378818 0.87439782
v 0.55483993 0.02296979 0.87561677
v 0.55448616 0.02287387 0.87318655
v 0.55489256 0.02406332 0.87232680
v 0.55573448 0.02512489 0.87302204
v 0.55566164 0.02378818 0.87439782
v 0.55326934 0.02266969 0.87667887
v 0.55483993 0.02296979 0.87561677
v 0.55516983 0.02422801 0.87668393
v 0.55354384 0.02371659 0.87756680
v 0.55483993 0.02296979 0.87561677
v 0.55566164 0.02378818 0.87439782
v 0.55599153 0.02504642 0.87546498
v 0.55516983 0.02422801 0.87668393
v 0.55566164 0.02378818 0.87439782
v 0.55573448 0.02512489 0.87302204
v 0.55600898 0.02617180 0.87390997
v 0.55599153 0.02504642 0.87546498
v 0.55354384 0.02371659 0.87756680
v 0.55516983 0.02422801 0.87668393
v 0.55479216 0.02596760 0.87740228
v 0.55366493 0.02516118 0.87803328
v 0.55516983 0.02422801 0.87668393
v 0.55599153 0.02504642 0.87546498
v 0.55547586 0.02664856 0.87638806
v 0.55479216 0.02596760 0.87740228
v 0.55599153 0.02504642 0.87546498
v 0.55600898 0.02617180 0.87390997
v 0.55571603 0.02720404 0.87499062
v 0.55547586 0.02664856 0.87638806
v 0.55284145 0.02202046 0.87536947
v 0.55136095 0.02212983 0.87502992
v 0.55212373 0.02220141 0.87326984
v 0.55380246 0.02219292 0.87420078
v 0.55136095 0.02212983 0.87502992
v 0.55017057 0.02276234 0.87465215
v 0.55069308 0.02296161 0.87281581
v 0.55212373 0.02220141 0.87326984
v 0.55017057 0.02276234 0.87465215
v 0.54927031 0.02391802 0.87423614
v 0.54951049 0.02447351 0.87283869
v 0.55069308 0.02296161 0.87281581
v 0.55380246 0.02219292 0.87420078
v 0.55212373 0.02220141 0.87326984
v 0.55294545 0.02301982 0.87205089
v 0.55448616 0.02287387 0.87318655
v 0.55212373 0.02220141 0.87326984
v 0.55069308 0.02296161 0.87281581
v 0.55151478 0.02378002 0.87159686
v 0.55294545 0.02301982 0.87205089
v 0.55069308 0.02296161 0.87281581
v 0.54951049 0.02447351 0.87283869
v 0.55019420 0.02515447 0.87182447
v 0.55151478 0.02378002 0.87159686
v 0.55448616 0.02287387 0.87318655
v 0.55294545 0.02301982 0.87205089
v 0.55382608 0.02458504 0.87137309
v 0.55489256 0.02406332 0.87232680
v 0.55294545 0.02301982 0.87205089
v 0.55151478 0.02378002 0.87159686
v 0.55263571 0.02521756 0.87099532
v 0.55382608 0.02458504 0.87137309
v 0.55151478 0.02378002 0.87159686
v 0.55019420 0.02515447 0.87182447
v 0.55132143 0.02596088 0.87119347
v 0.55263571 0.02521756 0.87099532
v 0.55571603 0.02720404 0.87499062
v 0.55481578 0.02835972 0.87457460
v 0.55429328 0.02816046 0.87641094
v 0.55547586 0.02664856 0.87638806
v 0.55481578 0.02835972 0.87457460
v 0.55362540 0.02899223 0.87419682
v 0.55286262 0.02892065 0.87595691
v 0.55429328 0.02816046 0.87641094
v 0.55362540 0.02899223 0.87419682
v 0.55214490 0.02910161 0.87385728
v 0.55118389 0.02892914 0.87502597
v 0.55286262 0.02892065 0.87595691
v 0.55547586 0.02664856 0.87638806
v 0.55429328 0.02816046 0.87641094
v 0.55347157 0.02734205 0.87762988
v 0.55479216 0.02596760 0.87740228
v 0.55429328 0.02816046 0.87641094
v 0.55286262 0.02892065 0.87595691
v 0.55204092 0.02810224 0.87717585
v 0.55347157 0.02734205 0.87762988
v 0.55286262 0.02892065 0.87595691
v 0.55118389 0.02892914 0.87502597
v 0.55050019 0.02824819 0.87604019
v 0.55204092 0.02810224 0.87717585
v 0.55479216 0.02596760 0.87740228
v 0.55347157 0.02734205 0.87762988
v 0.55235064 0.02590451 0.87823143
v 0.55366493 0.02516118 0.87803328
v 0.55347157 0.02734205 0.87762988
v 0.55204092 0.02810224 0.87717585
v 0.55116027 0.02653703 0.87785365
v 0.55235064 0.02590451 0.87823143
v 0.55204092 0.02810224 0.87717585
v 0.55050019 0.02824819 0.87604019
v 0.55009379 0.02705874 0.87689995
v 0.55116027 0.02653703 0.87785365
v 0.57263268 0.03214888 0.87236994
v 0.56987158 0.03349961 0.86990080
v 0.57219151 0.03774200 0.87104939
v 0.57481241 0.03489727 0.87416991
v 0.56987158 0.03349961 0.86990080
v 0.56678971 0.03513719 0.86892274
v 0.56848756 0.03971015 0.86987391
v 0.57219151 0.03774200 0.87104939
v 0.56678971 0.03513719 0.86892274
v 0.56338706 0.03706165 0.86943576
v 0.56370054 0.04080170 0.87064345
v 0.56848756 0.03971015 0.86987391
v 0.57481241 0.03489727 0.87416991
v 0.57219151 0.03774200 0.87104939
v 0.57304561 0.04099953 0.87381228
v 0.57552307 0.03760771 0.87646877
v 0.57219151 0.03774200 0.87104939
v 0.56848756 0.03971015 0.86987391
v 0.56934166 0.04296767 0.87263680
v 0.57304561 0.04099953 0.87381228
v 0.56848756 0.03971015 0.86987391
v 0.56370054 0.04080170 0.87064345
v 0.56441120 0.04351214 0.87294233
v 0.56934166 0.04296767 0.87263680
v 0.57552307 0.03760771 0.87646877
v 0.57304561 0.04099953 0.87381228
v 0.57243390 0.04327221 0.87818948
v 0.57476466 0.04028018 0.87926654
v 0.57304561 0.04099953 0.87381228
v 0.56934166 0.04296767 0.87263680
v 0.56935202 0.04490981 0.87721142
v 0.57243390 0.04327221 0.87818948
v 0.56934166 0.04296767 0.87263680
v 0.56441120 0.04351214 0.87294233
v 0.56551903 0.04519296 0.87633235
v 0.56935202 0.04490981 0.87721142
v 0.56338706 0.03706165 0.86943576
v 0.56046866 0.03497384 0.87106939
v 0.55949087 0.03947764 0.87292921
v 0.56370054 0.04080170 0.87064345
v 0.56046866 0.03497384 0.87106939
v 0.55869855 0.03321087 0.87369522
v 0.55736345 0.03735880 0.87608505
v 0.55949087 0.03947764 0.87292921
v 0.55869855 0.03321087 0.87369522
v 0.55807673 0.03177272 0.87731321
v 0.55731833 0.03444518 0.88011097
v 0.55736345 0.03735880 0.87608505
v 0.56370054 0.04080170 0.87064345
v 0.55949087 0.03947764 0.87292921
v 0.56034497 0.04273518 0.87569211
v 0.56441120 0.04351214 0.87294233
v 0.55949087 0.03947764 0.87292921
v 0.55736345 0.03735880 0.87608505
v 0.55821757 0.04061634 0.87884795
v 0.56034497 0.04273518 0.87569211
v 0.55736345 0.03735880 0.87608505
v 0.55731833 0.03444518 0.88011097
v 0.55802898 0.03715561 0.88240984
v 0.55821757 0.04061634 0.87884795
v 0.56441120 0.04351214 0.87294233
v 0.56034497 0.04273518 0.87569211
v 0.56303097 0.04474647 0.87935808
v 0.56551903 0.04519296 0.87633235
v 0.56034497 0.04273518 0.87569211
v 0.55821757 0.04061634 0.87884795
v 0.56126087 0.04298348 0.88198389
v 0.56303097 0.04474647 0.87935808
v 0.55821757 0.04061634 0.87884795
v 0.55802898 0.03715561 0.88240984
v 0.56020871 0.03990402 0.88420981
v 0.56126087 0.04298348 0.88198389
v 0.55807673 0.03177272 0.87731321
v 0.56040749 0.02878068 0.87839025
v 0.55979578 0.03105335 0.88276746
v 0.55731833 0.03444518 0.88011097
v 0.56040749 0.02878068 0.87839025
v 0.56348937 0.02714308 0.87936832
v 0.56349973 0.02908521 0.88394294
v 0.55979578 0.03105335 0.88276746
v 0.56348937 0.02714308 0.87936832
v 0.56732237 0.02685994 0.88024739
v 0.56843019 0.02854075 0.88363742
v 0.56349973 0.02908521 0.88394294
v 0.55731833 0.03444518 0.88011097
v 0.55979578 0.03105335 0.88276746
v 0.56064988 0.03431091 0.88553036
v 0.55802898 0.03715561 0.88240984
v 0.55979578 0.03105335 0.88276746
v 0.56349973 0.02908521 0.88394294
v 0.56435384 0.03234275 0.88670584
v 0.56064988 0.03431091 0.88553036
v 0.56349973 0.02908521 0.88394294
v 0.56843019 0.02854075 0.88363742
v 0.56914086 0.03125119 0.88593628
v 0.56435384 0.03234275 0.88670584
v 0.55802898 0.03715561 0.88240984
v 0.56064988 0.03431091 0.88553036
v 0.56296981 0.03855329 0.88667893
v 0.56020871 0.03990402 0.88420981
v 0.56064988 0.03431091 0.88553036
v 0.56435384 0.03234275 0.88670584
v 0.56605169 0.03691569 0.88765699
v 0.56296981 0.03855329 0.88667893
v 0.56435384 0.03234275 0.88670584
v 0.56914086 0.03125119 0.88593628
v 0.56945435 0.03499124 0.88714398
v 0.56605169 0.03691569 0.88765699
v 0.56732237 0.02685994 0.88024739
v 0.56981042 0.02730644 0.87722166
v 0.57249642 0.02931772 0.88088763
v 0.56843019 0.02854075 0.88363742
v 0.56981042 0.02730644 0.87722166
v 0.57158053 0.02906941 0.87459585
v 0.57462383 0.03143656 0.87773180
v 0.57249642 0.02931772 0.88088763
v 0.57158053 0.02906941 0.87459585
v 0.57263268 0.03214888 0.87236994
v 0.57481241 0.03489727 0.87416991
v 0.57462383 0.03143656 0.87773180
v 0.56843019 0.02854075 0.88363742
v 0.57249642 0.02931772 0.88088763
v 0.57335053 0.03257526 0.88365052
v 0.56914086 0.03125119 0.88593628
v 0.57249642 0.02931772 0.88088763
v 0.57462383 0.03143656 0.87773180
v 0.57547794 0.03469409 0.88049469
v 0.57335053 0.03257526 0.88365052
v 0.57462383 0.03143656 0.87773180
v 0.57481241 0.03489727 0.87416991
v 0.57552307 0.03760771 0.87646877
v 0.57547794 0.03469409 0.88049469
v 0.56914086 0.03125119 0.88593628
v 0.57335053 0.03257526 0.88365052
v 0.57237275 0.03707905 0.88551034
v 0.56945435 0.03499124 0.88714398
v 0.57335053 0.03257526 0.88365052
v 0.57547794 0.03469409 0.88049469
v 0.57414284 0.03884204 0.88288453
v 0.57237275 0.03707905 0.88551034
v 0.57547794 0.03469409 0.88049469
v 0.57552307 0.03760771 0.87646877
v 0.57476466 0.04028018 0.87926654
v 0.57414284 0.03884204 0.88288453
v 0.56732237 0.02685994 0.88024739
v 0.56348937 0.02714308 0.87936832
v 0.56546420 0.02732843 0.87481146
v 0.56981042 0.02730644 0.87722166
v 0.56348937 0.02714308 0.87936832
v 0.56040749 0.02878068 0.87839025
v 0.56176024 0.02929657 0.87363598
v 0.56546420 0.02732843 0.87481146
v 0.56040749 0.02878068 0.87839025
v 0.55807673 0.03177272 0.87731321
v 0.55869855 0.03321087 0.87369522
v 0.56176024 0.02929657 0.87363598
v 0.56981042 0.02730644 0.87722166
v 0.56546420 0.02732843 0.87481146
v 0.56759159 0.02944726 0.87165562
v 0.57158053 0.02906941 0.87459585
v 0.56546420 0.02732843 0.87481146
v 0.56176024 0.02929657 0.87363598
v 0.56388765 0.03141540 0.87048015
v 0.56759159 0.02944726 0.87165562
v 0.56176024 0.02929657 0.87363598
v 0.55869855 0.03321087 0.87369522
v 0.56046866 0.03497384 0.87106939
v 0.56388765 0.03141540 0.87048015
v 0.57158053 0.02906941 0.87459585
v 0.56759159 0.02944726 0.87165562
v 0.56987158 0.03349961 0.86990080
v 0.57263268 0.03214888 0.87236994
v 0.56759159 0.02944726 0.87165562
v 0.56388765 0.03141540 0.87048015
v 0.56678971 0.03513719 0.86892274
v 0.56987158 0.03349961 0.86990080
v 0.56388765 0.03141540 0.87048015
v 0.56046866 0.03497384 0.87106939
v 0.56338706 0.03706165 0.86943576
v 0.56678971 0.03513719 0.86892274
v 0.57476466 0.04028018 0.87926654
v 0.57243390 0.04327221 0.87818948
v 0.57108116 0.04275632 0.88294376
v 0.57414284 0.03884204 0.88288453
v 0.57243390 0.04327221 0.87818948
v 0.56935202 0.04490981 0.87721142
v 0.56737720 0.04472448 0.88176828
v 0.57108116 0.04275632 0.88294376
v 0.56935202 0.04490981 0.87721142
v 0.56551903 0.04519296 0.87633235
v 0.56303097 0.04474647 0.87935808
v 0.56737720 0.04472448 0.88176828
v 0.57414284 0.03884204 0.88288453
v 0.57108116 0.04275632 0.88294376
v 0.56895375 0.04063751 0.88609959
v 0.57237275 0.03707905 0.88551034
v 0.57108116 0.04275632 0.88294376
v 0.56737720 0.04472448 0.88176828
v 0.56524979 0.04260563 0.88492411
v 0.56895375 0.04063751 0.88609959
v 0.56737720 0.04472448 0.88176828
v 0.56303097 0.04474647 0.87935808
v 0.56126087 0.04298348 0.88198389
v 0.56524979 0.04260563 0.88492411
v 0.57237275 0.03707905 0.88551034
v 0.56895375 0.04063751 0.88609959
v 0.56605169 0.03691569 0.88765699
v 0.56945435 0.03499124 0.88714398
v 0.56895375 0.04063751 0.88609959
v 0.56524979 0.04260563 0.88492411
v 0.56296981 0.03855329 0.88667893
v 0.56605169 0.03691569 0.88765699
v 0.56524979 0.04260563 0.88492411
v 0.56126087 0.04298348 0.88198389
v 0.56020871 0.03990402 0.88420981
v 0.56296981 0.03855329 0.88667893
v 0.57020564 0.01013531 0.86387142
v 0.56924134 0.01107312 0.86240005
v 0.56789829 0.01453831 0.86522721
v 0.56856828 0.01393926 0.86668117
v 0.56756720 0.00549103 0.86816850
v 0.56900301 0.00655595 0.86751821
v 0.56763324 0.01209372 0.87086924
v 0.56614304 0.01165563 0.87154036
v 0.56148677 0.00606441 0.86505477
v 0.56274627 0.00543382 0.86629054
v 0.56126307 0.01158485 0.87019415
v 0.56022470 0.01262180 0.86858675
v 0.56412522 0.01070869 0.86075769
v 0.56283596 0.00960699 0.86150952
v 0.56194708 0.01391890 0.86484775
v 0.56350846 0.01500576 0.86413671
v 0.57014572 0.00769442 0.86666483
v 0.56847699 0.01263251 0.86979857
v 0.56763324 0.01209372 0.87086924
v 0.56900301 0.00655595 0.86751821
v 0.56398055 0.00481585 0.86750158
v 0.56251016 0.01133625 0.87121540
v 0.56126307 0.01158485 0.87019415
v 0.56274627 0.00543382 0.86629054
v 0.56154670 0.00850530 0.86226136
v 0.56028029 0.01370496 0.86643607
v 0.56194708 0.01391890 0.86484775
v 0.56283596 0.00960699 0.86150952
v 0.56619652 0.01528597 0.86435662
v 0.56350846 0.01500576 0.86413671
v 0.56327972 0.01961912 0.86584680
v 0.56527002 0.01986869 0.86572942
v 0.56789829 0.01453831 0.86522721
v 0.56619652 0.01528597 0.86435662
v 0.56527002 0.01986869 0.86572942
v 0.56761755 0.01805514 0.86668444
v 0.56763324 0.01209372 0.87086924
v 0.56847699 0.01263251 0.86979857
v 0.56871231 0.01763352 0.87296833
v 0.56770399 0.01601932 0.87336904
v 0.56126307 0.01158485 0.87019415
v 0.56251016 0.01133625 0.87121540
v 0.56140801 0.01644678 0.87502664
v 0.55962097 0.01545806 0.87290698
v 0.56194708 0.01391890 0.86484775
v 0.56028029 0.01370496 0.86643607
v 0.55842275 0.01814560 0.86931178
v 0.56099697 0.01767541 0.86636631
v 0.56847699 0.01263251 0.86979857
v 0.56856828 0.01393926 0.86668117
v 0.56820099 0.01752527 0.86823802
v 0.56871231 0.01763352 0.87296833
v 0.56251016 0.01133625 0.87121540
v 0.56614304 0.01165563 0.87154036
v 0.56637335 0.01730315 0.87512401
v 0.56140801 0.01644678 0.87502664
v 0.56028029 0.01370496 0.86643607
v 0.56022470 0.01262180 0.86858675
v 0.55858175 0.01762823 0.87044154
v 0.55842275 0.01814560 0.86931178
v 0.56761755 0.01805514 0.86668444
v 0.56527002 0.01986869 0.86572942
v 0.56869897 0.02814058 0.86573702
v 0.57010696 0.02815245 0.86649670
v 0.56770399 0.01601932 0.87336904
v 0.56871231 0.01763352 0.87296833
v 0.57149501 0.02530814 0.87868923
v 0.57065070 0.02470310 0.88024363
v 0.57065070 0.02470310 0.88024363
v 0.57149501 0.02530814 0.87868923
v 0.57017460 0.02588545 0.87779714
v 0.56856218 0.02589512 0.87822438
v 0.55962097 0.01545806 0.87290698
v 0.56140801 0.01644678 0.87502664
v 0.55740203 0.02298048 0.88011994
v 0.55566671 0.02308228 0.87936119
v 0.56099697 0.01767541 0.86636631
v 0.55842275 0.01814560 0.86931178
v 0.55550649 0.02818638 0.86673124
v 0.55600983 0.02874526 0.86506338
v 0.55600983 0.02874526 0.86506338
v 0.55550649 0.02818638 0.86673124
v 0.55679908 0.02794703 0.86795544
v 0.55820629 0.02814669 0.86777458
v 0.57010696 0.02815245 0.86649670
v 0.56869897 0.02814058 0.86573702
v 0.56756519 0.02814405 0.86708962
v 0.56817963 0.02794696 0.86838227
v 0.55566671 0.02308228 0.87936119
v 0.55740203 0.02298048 0.88011994
v 0.55804784 0.02422293 0.87936488
v 0.55760384 0.02526883 0.87834359
v 0.56304092 0.01666688 0.87080255
v 0.55760384 0.02526883 0.87834359
v 0.55804784 0.02422293 0.87936488
v 0.56309058 0.01745250 0.87286049
v 0.56300815 0.01708670 0.86922004
v 0.55820629 0.02814669 0.86777458
v 0.55679908 0.02794703 0.86795544
v 0.56073421 0.01815407 0.87045523
v 0.56468506 0.01722518 0.86963553
v 0.56817963 0.02794696 0.86838227
v 0.56756519 0.02814405 0.86708962
v 0.56404913 0.01903786 0.86786647
v 0.56449743 0.01668614 0.87093003
v 0.56856218 0.02589512 0.87822438
v 0.57017460 0.02588545 0.87779714
v 0.56585957 0.01801941 0.87178750
v 0.56140801 0.01644678 0.87502664
v 0.56637335 0.01730315 0.87512401
v 0.56489411 0.01795984 0.87287332
v 0.56309058 0.01745250 0.87286049
v 0.55842275 0.01814560 0.86931178
v 0.55858175 0.01762823 0.87044154
v 0.56174046 0.01753713 0.87129486
v 0.56073421 0.01815407 0.87045523
v 0.56527002 0.01986869 0.86572942
v 0.56327972 0.01961912 0.86584680
v 0.56347255 0.01895293 0.86792167
v 0.56404913 0.01903786 0.86786647
v 0.56871231 0.01763352 0.87296833
v 0.56820099 0.01752527 0.86823802
v 0.56571508 0.01832774 0.86963408
v 0.56585957 0.01801941 0.87178750
v 0.57067583 0.02762637 0.86803336
v 0.56922140 0.02771325 0.86901350
v 0.56571508 0.01832774 0.86963408
v 0.56820099 0.01752527 0.86823802
v 0.56869897 0.02814058 0.86573702
v 0.56527002 0.01986869 0.86572942
v 0.56404913 0.01903786 0.86786647
v 0.56756519 0.02814405 0.86708962
v 0.57149501 0.02530814 0.87868923
v 0.56871231 0.01763352 0.87296833
v 0.56585957 0.01801941 0.87178750
v 0.57017460 0.02588545 0.87779714
v 0.56882144 0.02466022 0.88084575
v 0.56793469 0.02534263 0.87960387
v 0.56489411 0.01795984 0.87287332
v 0.56637335 0.01730315 0.87512401
v 0.55740203 0.02298048 0.88011994
v 0.56140801 0.01644678 0.87502664
v 0.56309058 0.01745250 0.87286049
v 0.55804784 0.02422293 0.87936488
v 0.55496049 0.02437075 0.87807327
v 0.55622114 0.02526498 0.87784035
v 0.56174046 0.01753713 0.87129486
v 0.55858175 0.01762823 0.87044154
v 0.55550649 0.02818638 0.86673124
v 0.55842275 0.01814560 0.86931178
v 0.56073421 0.01815407 0.87045523
v 0.55679908 0.02794703 0.86795544
v 0.55758568 0.02901188 0.86471937
v 0.55854101 0.02863863 0.86626989
v 0.56347255 0.01895293 0.86792167
v 0.56327972 0.01961912 0.86584680
v 0.56489411 0.01795984 0.87287332
v 0.56449743 0.01668614 0.87093003
v 0.56377453 0.01754345 0.87033470
v 0.56174046 0.01753713 0.87129486
v 0.56304092 0.01666688 0.87080255
v 0.56377453 0.01754345 0.87033470
v 0.56347255 0.01895293 0.86792167
v 0.56300815 0.01708670 0.86922004
v 0.56377453 0.01754345 0.87033470
v 0.56585957 0.01801941 0.87178750
v 0.56571508 0.01832774 0.86963408
v 0.56377453 0.01754345 0.87033470
v 0.56073421 0.01815407 0.87045523
v 0.56174046 0.01753713 0.87129486
v 0.56377453 0.01754345 0.87033470
v 0.56309058 0.01745250 0.87286049
v 0.56489411 0.01795984 0.87287332
v 0.56377453 0.01754345 0.87033470
v 0.56404913 0.01903786 0.86786647
v 0.56347255 0.01895293 0.86792167
v 0.56377453 0.01754345 0.87033470
v 0.56571508 0.01832774 0.86963408
v 0.56468506 0.01722518 0.86963553
v 0.56377453 0.01754345 0.87033470
v 0.56489411 0.01795984 0.87287332
v 0.56793469 0.02534263 0.87960387
v 0.56856218 0.02589512 0.87822438
v 0.56449743 0.01668614 0.87093003
v 0.56882144 0.02466022 0.88084575
v 0.56793469 0.02534263 0.87960387
v 0.56637335 0.01730315 0.87512401
v 0.56770399 0.01601932 0.87336904
v 0.57065070 0.02470310 0.88024363
v 0.56882144 0.02466022 0.88084575
v 0.56614304 0.01165563 0.87154036
v 0.56763324 0.01209372 0.87086924
v 0.56770399 0.01601932 0.87336904
v 0.56637335 0.01730315 0.87512401
v 0.56571508 0.01832774 0.86963408
v 0.56922140 0.02771325 0.86901350
v 0.56817963 0.02794696 0.86838227
v 0.56468506 0.01722518 0.86963553
v 0.57067583 0.02762637 0.86803336
v 0.57010696 0.02815245 0.86649670
v 0.56817963 0.02794696 0.86838227
v 0.56922140 0.02771325 0.86901350
v 0.56820099 0.01752527 0.86823802
v 0.56761755 0.01805514 0.86668444
v 0.57010696 0.02815245 0.86649670
v 0.57067583 0.02762637 0.86803336
v 0.56856828 0.01393926 0.86668117
v 0.56789829 0.01453831 0.86522721
v 0.56761755 0.01805514 0.86668444
v 0.56820099 0.01752527 0.86823802
v 0.56174046 0.01753713 0.87129486
v 0.55622114 0.02526498 0.87784035
v 0.55760384 0.02526883 0.87834359
v 0.56304092 0.01666688 0.87080255
v 0.55496049 0.02437075 0.87807327
v 0.55566671 0.02308228 0.87936119
v 0.55760384 0.02526883 0.87834359
v 0.55622114 0.02526498 0.87784035
v 0.55858175 0.01762823 0.87044154
v 0.55962097 0.01545806 0.87290698
v 0.55566671 0.02308228 0.87936119
v 0.55496049 0.02437075 0.87807327
v 0.56022470 0.01262180 0.86858675
v 0.56126307 0.01158485 0.87019415
v 0.55962097 0.01545806 0.87290698
v 0.55858175 0.01762823 0.87044154
v 0.56347255 0.01895293 0.86792167
v 0.55854101 0.02863863 0.86626989
v 0.55820629 0.02814669 0.86777458
v 0.56300815 0.01708670 0.86922004
v 0.55758568 0.02901188 0.86471937
v 0.55854101 0.02863863 0.86626989
v 0.56327972 0.01961912 0.86584680
v 0.56099697 0.01767541 0.86636631
v 0.55600983 0.02874526 0.86506338
v 0.55758568 0.02901188 0.86471937
v 0.56350846 0.01500576 0.86413671
v 0.56194708 0.01391890 0.86484775
v 0.56099697 0.01767541 0.86636631
v 0.56327972 0.01961912 0.86584680
v 0.56377453 0.01754345 0.87033470
v 0.56300815 0.01708670 0.86922004
v 0.56073421 0.01815407 0.87045523
v 0.56377453 0.01754345 0.87033470
v 0.56449743 0.01668614 0.87093003
v 0.56585957 0.01801941 0.87178750
v 0.56377453 0.01754345 0.87033470
v 0.56468506 0.01722518 0.86963553
v 0.56404913 0.01903786 0.86786647
v 0.56377453 0.01754345 0.87033470
v 0.56304092 0.01666688 0.87080255
v 0.56309058 0.01745250 0.87286049
v 0.56412522 0.01070869 0.86075769
v 0.56771187 0.01138386 0.86142460
v 0.56588302 0.00812240 0.86445192
v 0.56924134 0.01107312 0.86240005
v 0.57020564 0.01013531 0.86387142
v 0.56756720 0.00549103 0.86816850
v 0.56398055 0.00481585 0.86750158
v 0.57014572 0.00769442 0.86666483
v 0.56900301 0.00655595 0.86751821
v 0.56283596 0.00960699 0.86150952
v 0.56148677 0.00606441 0.86505477
v 0.56154670 0.00850530 0.86226136
v 0.56274627 0.00543382 0.86629054
v 0.56148677 0.00606441 0.86505477
v 0.56022470 0.01262180 0.86858675
v 0.56028029 0.01370496 0.86643607
v 0.56154670 0.00850530 0.86226136
v 0.56756720 0.00549103 0.86816850
v 0.56614304 0.01165563 0.87154036
v 0.56251016 0.01133625 0.87121540
v 0.56398055 0.00481585 0.86750158
v 0.56771187 0.01138386 0.86142460
v 0.56619652 0.01528597 0.86435662
v 0.56789829 0.01453831 0.86522721
v 0.56924134 0.01107312 0.86240005
v 0.57020564 0.01013531 0.86387142
v 0.56856828 0.01393926 0.86668117
v 0.56847699 0.01263251 0.86979857
v 0.57014572 0.00769442 0.86666483
v 0.56412522 0.01070869 0.86075769
v 0.56350846 0.01500576 0.86413671
v 0.56619652 0.01528597 0.86435662
v 0.56771187 0.01138386 0.86142460
f 2 4 1
f 4 2 3
f 6 8 5
f 8 6 7
f 10 12 9
f 12 10 11
f 14 16 13
f 16 14 15
f 18 20 17
f 20 18 19
f 22 24 21
f 24 22 23
f 26 28 25
f 28 26 27
f 30 32 29
f 32 30 31
f 34 36 33
f 36 34 35
f 38 40 37
f 40 38 39
f 42 44 41
f 44 42 43
f 46 48 45
f 48 46 47
f 50 52 49
f 52 50 51
f 54 56 53
f 56 54 55
f 58 60 57
f 60 58 59
f 62 64 61
f 64 62 63
f 66 68 65
f 68 66 67
f 70 72 69
f 72 70 71
f 75 76 73
f 73 74 75
f 79 80 77
f 77 78 79
f 83 84 81
f 81 82 83
f 87 88 85
f 85 86 87
f 91 92 89
f 89 90 91
f 95 96 93
f 93 94 95
f 99 100 97
f 97 98 99
f 103 104 101
f 101 102 103
f 107 108 105
f 105 106 107
f 111 112 109
f 109 110 111
f 115 116 113
f 113 114 115
f 119 120 117
f 117 118 119
f 123 124 121
f 121 122 123
f 127 128 125
f 125 126 127
f 131 132 129
f 129 130 131
f 135 136 133
f 133 134 135
f 139 140 137
f 137 138 139
f 143 144 141
f 141 142 143
f 147 148 145
f 145 146 147
f 151 152 149
f 149 150 151
f 155 156 153
f 153 154 155
f 159 160 157
f 157 158 159
f 163 164 161
f 161 162 163
f 167 168 165
f 165 166 167
f 171 172 169
f 169 170 171
f 175 176 173
f 173 174 175
f 179 180 177
f 177 178 179
f 182 184 181
f 184 182 183
f 186 188 185
f 188 186 187
f 190 192 189
f 192 190 191
f 194 196 193
f 196 194 195
f 198 200 197
f 200 198 199
f 202 204 201
f 204 202 203
f 206 208 205
f 208 206 207
f 210 212 209
f 212 210 211
f 214 216 213
f 216 214 215
f 218 220 217
f 220 218 219
f 222 224 221
f 224 222 223
f 226 228 225
f 228 226 227
f 230 232 229
f 232 230 231
f 234 236 233
f 236 234 235
f 238 240 237
f 240 238 239
f 242 244 241
f 244 242 243
f 246 248 245
f 248 246 247
f 250 252 249
f 252 250 251
f 254 256 253
f 256 254 255
f 258 260 257
f 260 258 259
f 262 264 261
f 264 262 263
f 266 268 265
f 268 266 267
f 270 272 269
f 272 270 271
f 274 276 273
f 276 274 275
f 278 280 277
f 280 278 279
f 282 284 281
f 284 282 283
f 287 288 285
f 285 286 287
f 291 292 289
f 289 290 291
f 295 296 293
f 293 294 295
f 299 300 297
f 297 298 299
f 303 304 301
f 301 302 303
f 307 308 305
f 305 306 307
f 311 312 309
f 309 310 311
f 315 316 313
f 313 314 315
f 319 320 317
f 317 318 319
f 323 324 321
f 321 322 323
f 327 328 325
f 325 326 327
f 331 332 329
f 329 330 331
f 334 336 333
f 336 334 335
f 339 340 337
f 337 338 339
f 343 344 341
f 341 342 343
f 347 348 345
f 345 346 347
f 351 352 349
f 349 350 351
f 355 356 353
f 353 354 355
f 359 360 357
f 357 358 359
f 363 364 361
f 361 362 363
f 367 368 365
f 365 366 367
f 370 372 369
f 372 370 371
f 375 376 373
f 373 374 375
f 379 380 377
f 377 378 379
f 382 384 381
f 384 382 383
f 387 388 385
f 385 386 387
f 391 392 389
f 389 390 391
f 394 396 393
f 396 394 395
f 399 400 397
f 397 398 399
f 402 404 401
f 404 402 403
f 406 408 405
f 408 406 407
f 411 412 409
f 409 410 411
f 414 416 413
f 416 414 415
f 418 420 417
f 420 418 419
f 423 424 421
f 421 422 423
f 426 428 425
f 428 426 427
f 430 432 429
f 432 430 431
f 434 436 433
f 436 434 435
f 438 440 437
f 440 438 439
f 442 444 441
f 444 442 443
f 446 448 445
f 448 446 447
f 450 452 449
f 452 450 451
f 454 456 453
f 456 454 455
f 458 460 457
f 460 458 459
f 462 464 461
f 464 462 463
f 466 468 465
f 468 466 467
f 470 472 469
f 472 470 471
f 474 476 473
f 476 474 475
f 478 480 477
f 480 478 479
f 482 484 481
f 484 482 483
f 486 488 485
f 488 486 487
f 490 492 489
f 492 490 491
f 494 496 493
f 496 494 495
f 498 500 497
f 500 498 499
f 503 504 501
f 501 502 503
f 507 508 505
f 505 506 507
f 511 512 509
f 509 510 511
f 515 516 513
f 513 514 515
f 519 520 517
f 517 518 519
f 523 524 521
f 521 522 523
f 527 528 525
f 525 526 527
f 531 532 529
f 529 530 531
f 535 536 533
f 533 534 535
f 539 540 537
f 537 538 539
f 543 544 541
f 541 542 543
f 547 548 545
f 545 546 547
f 550 552 549
f 552 550 551
f 555 556 553
f 553 554 555
f 559 560 557
f 557 558 559
f 563 564 561
f 561 562 563
f 567 568 565
f 565 566 567
f 571 572 569
f 569 570 571
f 575 576 573
f 573 574 575
f 579 580 577
f 577 578 579
f 583 584 581
f 581 582 583
f 586 588 585
f 588 586 587
f 591 592 589
f 589 590 591
f 595 596 593
f 593 594 595
f 598 600 597
f 600 598 599
f 603 604 601
f 601 602 603
f 607 608 605
f 605 606 607
f 610 612 609
f 612 610 611
f 615 616 613
f 613 614 615
f 618 620 617
f 620 618 619
f 622 624 621
f 624 622 623
f 627 628 625
f 625 626 627
f 630 632 629
f 632 630 631
f 634 636 633
f 636 634 635
f 639 640 637
f 637 638 639
f 642 644 641
f 644 642 643
f 646 648 645
f 648 646 647
f 650 652 649
f 652 650 651
f 654 656 653
f 656 654 655
f 658 660 657
f 660 658 659
f 662 664 661
f 664 662 663
f 666 668 665
f 668 666 667
f 670 672 669
f 672 670 671
f 674 676 673
f 676 674 675
f 678 680 677
f 680 678 679
f 682 684 681
f 684 682 683
f 686 688 685
f 688 686 687
f 690 692 689
f 692 690 691
f 694 696 693
f 696 694 695
f 698 700 697
f 700 698 699
f 702 704 701
f 704 702 703
f 706 708 705
f 708 706 707
f 710 712 709
f 712 710 711
f 714 716 713
f 716 714 715
f 719 720 717
f 717 718 719
f 723 724 721
f 721 722 723
f 727 728 725
f 725 726 727
f 731 732 729
f 729 730 731
f 735 736 733
f 733 734 735
f 739 740 737
f 737 738 739
f 743 744 741
f 741 742 743
f 747 748 745
f 745 746 747
f 751 752 749
f 749 750 751
f 755 756 753
f 753 754 755
f 759 760 757
f 757 758 759
f 763 764 761
f 761 762 763
f 766 768 765
f 768 766 767
f 771 772 769
f 769 770 771
f 775 776 773
f 773 774 775
f 779 780 777
f 777 778 779
f 783 784 781
f 781 782 783
f 787 788 785
f 785 786 787
f 791 792 789
f 789 790 791
f 795 796 793
f 793 794 795
f 799 800 797
f 797 798 799
f 802 804 801
f 804 802 803
f 807 808 805
f 805 806 807
f 811 812 809
f 809 810 811
f 814 816 813
f 816 814 815
f 819 820 817
f 817 818 819
f 823 824 821
f 821 822 823
f 826 828 825
f 828 826 827
f 831 832 829
f 829 830 831
f 834 836 833
f 836 834 835
f 838 840 837
f 840 838 839
f 843 844 841
f 841 842 843
f 846 848 845
f 848 846 847
f 850 852 849
f 852 850 851
f 855 856 853
f 853 854 855
f 858 860 857
f 860 858 859
f 862 864 861
f 864 862 863
f 866 868 865
f 868 866 867
f 870 872 869
f 872 870 871
f 874 876 873
f 876 874 875
f 878 880 877
f 880 878 879
f 882 884 881
f 884 882 883
f 886 888 885
f 888 886 887
f 890 892 889
f 892 890 891
f 894 896 893
f 896 894 895
f 898 900 897
f 900 898 899
f 902 904 901
f 904 902 903
f 906 908 905
f 908 906 907
f 910 912 909
f 912 910 911
f 914 916 913
f 916 914 915
f 918 920 917
f 920 918 919
f 922 924 921
f 924 922 923
f 926 928 925
f 928 926 927
f 930 932 929
f 932 930 931
f 935 936 933
f 933 934 935
f 939 940 937
f 937 938 939
f 943 944 941
f 941 942 943
f 947 948 945
f 945 946 947
f 951 952 949
f 949 950 951
f 955 956 953
f 953 954 955
f 959 960 957
f 957 958 959
f 963 964 961
f 961 962 963
f 967 968 965
f 965 966 967
f 971 972 969
f 969 970 971
f 975 976 973
f 973 974 975
f 979 980 977
f 977 978 979
f 982 984 981
f 984 982 983
f 987 988 985
f 985 986 987
f 991 992 989
f 989 990 991
f 995 996 993
f 993 994 995
f 999 1000 997
f 997 998 999
f 1003 1004 1001
f 1001 1002 1003
f 1007 1008 1005
f 1005 1006 1007
f 1011 1012 1009
f 1009 1010 1011
f 1015 1016 1013
f 1013 1014 1015
f 1018 1020 1017
f 1020 1018 1019
f 1023 1024 1021
f 1021 1022 1023
f 1027 1028 1025
f 1025 1026 1027
f 1030 1032 1029
f 1032 1030 1031
f 1035 1036 1033
f 1033 1034 1035
f 1039 1040 1037
f 1037 1038 1039
f 1042 1044 1041
f 1044 1042 1043
f 1047 1048 1045
f 1045 1046 1047
f 1050 1052 1049
f 1052 1050 1051
f 1054 1056 1053
f 1056 1054 1055
f 1059 1060 1057
f 1057 1058 1059
f 1062 1064 1061
f 1064 1062 1063
f 1066 1068 1065
f 1068 1066 1067
f 1071 1072 1069
f 1069 1070 1071
f 1074 1076 1073
f 1076 1074 1075
f 1078 1080 1077
f 1080 1078 1079
f 1082 1084 1081
f 1084 1082 1083
f 1086 1088 1085
f 1088 1086 1087
f 1090 1092 1089
f 1092 1090 1091
f 1094 1096 1093
f 1096 1094 1095
f 1098 1100 1097
f 1100 1098 1099
f 1102 1104 1101
f 1104 1102 1103
f 1106 1108 1105
f 1108 1106 1107
f 1110 1112 1109
f 1112 1110 1111
f 1114 1116 1113
f 1116 1114 1115
f 1118 1120 1117
f 1120 1118 1119
f 1122 1124 1121
f 1124 1122 1123
f 1126 1128 1125
f 1128 1126 1127
f 1130 1132 1129
f 1132 1130 1131
f 1134 1136 1133
f 1136 1134 1135
f 1138 1140 1137
f 1140 1138 1139
f 1142 1144 1141
f 1144 1142 1143
f 1146 1148 1145
f 1148 1146 1147
f 1151 1152 1149
f 1149 1150 1151
f 1155 1156 1153
f 1153 1154 1155
f 1159 1160 1157
f 1157 1158 1159
f 1163 1164 1161
f 1161 1162 1163
f 1167 1168 1165
f 1165 1166 1167
f 1171 1172 1169
f 1169 1170 1171
f 1175 1176 1173
f 1173 1174 1175
f 1179 1180 1177
f 1177 1178 1179
f 1183 1184 1181
f 1181 1182 1183
f 1187 1188 1185
f 1185 1186 1187
f 1191 1192 1189
f 1189 1190 1191
f 1195 1196 1193
f 1193 1194 1195
f 1198 1200 1197
f 1200 1198 1199
f 1203 1204 1201
f 1201 1202 1203
f 1207 1208 1205
f 1205 1206 1207
f 1211 1212 1209
f 1209 1210 1211
f 1215 1216 1213
f 1213 1214 1215
f 1219 1220 1217
f 1217 1218 1219
f 1223 1224 1221
f 1221 1222 1223
f 1227 1228 1225
f 1225 1226 1227
f 1231 1232 1229
f 1229 1230 1231
f 1234 1236 1233
f 1236 1234 1235
f 1239 1240 1237
f 1237 1238 1239
f 1243 1244 1241
f 1241 1242 1243
f 1246 1248 1245
f 1248 1246 1247
f 1251 1252 1249
f 1249 1250 1251
f 1255 1256 1253
f 1253 1254 1255
f 1258 1260 1257
f 1260 1258 1259
f 1263 1264 1261
f 1261 1262 1263
f 1266 1268 1265
f 1268 1266 1267
f 1270 1272 1269
f 1272 1270 1271
f 1275 1276 1273
f 1273 1274 1275
f 1278 1280 1277
f 1280 1278 1279
f 1282 1284 1281
f 1284 1282 1283
f 1287 1288 1285
f 1285 1286 1287
f 1290 1292 1289
f 1292 1290 1291
f 1294 1296 1293
f 1296 1294 1295
f 1298 1300 1297
f 1300 1298 1299
f 1302 1304 1301
f 1304 1302 1303
f 1306 1308 1305
f 1308 1306 1307
f 1310 1312 1309
f 1312 1310 1311
f 1314 1316 1313
f 1316 1314 1315
f 1318 1320 1317
f 1320 1318 1319
f 1322 1324 1321
f 1324 1322 1323
f 1326 1328 1325
f 1328 1326 1327
f 1330 1332 1329
f 1332 1330 1331
f 1334 1336 1333
f 1336 1334 1335
f 1338 1340 1337
f 1340 1338 1339
f 1342 1344 1341
f 1344 1342 1343
f 1346 1348 1345
f 1348 1346 1347
f 1350 1352 1349
f 1352 1350 1351
f 1354 1356 1353
f 1356 1354 1355
f 1358 1360 1357
f 1360 1358 1359
f 1362 1364 1361
f 1364 1362 1363
f 1367 1368 1365
f 1365 1366 1367
f 1371 1372 1369
f 1369 1370 1371
f 1375 1376 1373
f 1373 1374 1375
f 1379 1380 1377
f 1377 1378 1379
f 1383 1384 1381
f 1381 1382 1383
f 1387 1388 1385
f 1385 1386 1387
f 1391 1392 1389
f 1389 1390 1391
f 1395 1396 1393
f 1393 1394 1395
f 1399 1400 1397
f 1397 1398 1399
f 1403 1404 1401
f 1401 1402 1403
f 1407 1408 1405
f 1405 1406 1407
f 1411 1412 1409
f 1409 1410 1411
f 1414 1416 1413
f 1416 1414 1415
f 1419 1420 1417
f 1417 1418 1419
f 1423 1424 1421
f 1421 1422 1423
f 1427 1428 1425
f 1425 1426 1427
f 1431 1432 1429
f 1429 1430 1431
f 1435 1436 1433
f 1433 1434 1435
f 1439 1440 1437
f 1437 1438 1439
f 1443 1444 1441
f 1441 1442 1443
f 1447 1448 1445
f 1445 1446 1447
f 1450 1452 1449
f 1452 1450 1451
f 1455 1456 1453
f 1453 1454 1455
f 1459 1460 1457
f 1457 1458 1459
f 1462 1464 1461
f 1464 1462 1463
f 1467 1468 1465
f 1465 1466 1467
f 1471 1472 1469
f 1469 1470 1471
f 1474 1476 1473
f 1476 1474 1475
f 1479 1480 1477
f 1477 1478 1479
f 1482 1484 1481
f 1484 1482 1483
f 1486 1488 1485
f 1488 1486 1487
f 1491 1492 1489
f 1489 1490 1491
f 1494 1496 1493
f 1496 1494 1495
f 1498 1500 1497
f 1500 1498 1499
f 1503 1504 1501
f 1501 1502 1503
f 1506 1508 1505
f 1508 1506 1507
f 1510 1512 1509
f 1512 1510 1511
f 1514 1516 1513
f 1516 1514 1515
f 1519 1520 1517
f 1517 1518 1519
f 1523 1524 1521
f 1521 1522 1523
f 1526 1528 1525
f 1528 1526 1527
f 1531 1532 1529
f 1529 1530 1531
f 1535 1536 1533
f 1533 1534 1535
f 1538 1540 1537
f 1540 1538 1539
f 1542 1544 1541
f 1544 1542 1543
f 1546 1548 1545
f 1548 1546 1547
f 1551 1552 1549
f 1549 1550 1551
f 1555 1556 1553
f 1553 1554 1555
f 1558 1560 1557
f 1560 1558 1559
f 1563 1564 1561
f 1561 1562 1563
f 1567 1568 1565
f 1565 1566 1567
f 1570 1572 1569
f 1572 1570 1571
f 1574 1576 1573
f 1576 1574 1575
f 1579 1580 1577
f 1577 1578 1579
f 1582 1584 1581
f 1584 1582 1583
f 1587 1588 1585
f 1585 1586 1587
f 1590 1592 1589
f 1592 1590 1591
f 1594 1596 1593
f 1596 1594 1595
f 1598 1600 1597
f 1600 1598 1599
f 1602 1604 1601
f 1604 1602 1603
f 1606 1608 1605
f 1608 1606 1607
f 1611 1612 1609
f 1609 1610 1611
f 1615 1616 1613
f 1613 1614 1615
f 1618 1620 1617
f 1620 1618 1619
f 1622 1624 1621
f 1624 1622 1623
f 1626 1628 1625
f 1628 1626 1627
f 1630 1632 1629
f 1632 1630 1631
f 1634 1636 1633
f 1636 1634 1635
f 1639 1640 1637
f 1637 1638 1639
f 1642 1644 1641
f 1644 1642 1643
f 1646 1648 1645
f 1648 1646 1647
f 1651 1652 1649
f 1649 1650 1651
f 1655 1656 1653
f 1653 1654 1655
f 1658 1660 1657
f 1660 1658 1659
f 1663 1664 1661
f 1661 1662 1663
f 1667 1668 1665
f 1665 1666 1667
f 1669 1670 1671
f 1672 1673 1674
f 1675 1676 1677
f 1678 1679 1680
f 1681 1682 1683
f 1684 1685 1686
f 1687 1688 1689
f 1690 1691 1692
f 1694 1696 1693
f 1696 1694 1695
f 1581 1698 1697
f 1698 1581 1584
f 1701 1702 1699
f 1699 1700 1701
f 1705 1706 1703
f 1703 1704 1705
f 1709 1710 1707
f 1707 1708 1709
f 1712 1714 1711
f 1714 1712 1713
f 1716 1718 1715
f 1718 1716 1717
f 1720 1722 1719
f 1722 1720 1721
f 1724 1726 1723
f 1726 1724 1725
f 1728 1730 1727
f 1730 1728 1729
f 1732 1734 1731
f 1734 1732 1733
f 1736 1738 1735
f 1738 1736 1737
f 1741 1742 1739
f 1739 1740 1741
f 1593 1744 1743
f 1744 1593 1596
f 1746 1748 1745
f 1748 1746 1747
f 1750 1752 1749
f 1752 1750 1751
f 1753 1754 1755
f 1756 1757 1758
f 1759 1760 1761
f 1762 1763 1764
f 1765 1766 1767
f 1768 1769 1767
f 1770 1771 1767
f 1772 1773 1767
f 1774 1765 1767
f 1773 1770 1767
f 1775 1776 1767
f 1771 1777 1767
f 1769 1772 1767
f 1766 1768 1767
f 1777 1775 1767
f 1776 1774 1767
f 1779 1781 1778
f 1781 1779 1780
f 1784 1785 1782
f 1782 1783 1784
f 1787 1789 1786
f 1789 1787 1788
f 1792 1793 1790
f 1790 1791 1792
f 1795 1797 1794
f 1797 1795 1796
