# line mesh exported by 38_wearing
v 0 0 0
v 0 0.064452 -0.1027
v 0 0.064452 -0.1027
v 0 0.116452 -0.133165
v 0 0.116452 -0.133165
v 0.0462176629 0.116452 -0.251041003
v 0.0462176629 0.116452 -0.251041003
v -2.32609678e-06 0.1186009 -0.439295752
v -2.32609678e-06 0.1186009 -0.439295752
v -2.32609678e-06 0.118506455 -0.739305752
v -2.32609678e-06 0.118506455 -0.739305752
v -2.32609678e-06 0.118506455 -0.791863752
v 0 0 0
v 0 -0.064452 -0.1027
v 0 -0.064452 -0.1027
v 0 -0.116452 -0.133165
v 0 -0.116452 -0.133165
v 0.0462176629 -0.116452 -0.251041003
v 0.0462176629 -0.116452 -0.251041003
v -2.32609678e-06 -0.1186009 -0.439295752
v -2.32609678e-06 -0.1186009 -0.439295752
v -2.32609678e-06 -0.118506455 -0.739305752
v -2.32609678e-06 -0.118506455 -0.739305752
v -2.32609678e-06 -0.118506455 -0.791863752
v -0.0039635 0 0.035
v -0.0039635 0 0.519000004
v -0.0039635 0 0.054
v 0 0 0
v -0.0039635 0 0.054
v 0 0 0
v -0.0039635 0 0.054
v -7.2e-06 0.10022 0.29178
v -7.2e-06 0.10022 0.29178
v 3.73942495e-07 0.140560446 0.288961321
v 3.73942495e-07 0.140560446 0.288961321
v -4.1000657e-06 0.146806639 0.185761696
v -4.1000657e-06 0.146806639 0.185761696
v 0.0157744762 0.146808447 0.105242829
v 0.0157744762 0.146808447 0.105242829
v 0.115774287 0.148677798 0.0952374475
v 0.115774287 0.148677798 0.0952374475
v 0.153774286 0.148670517 0.0952353594
v 0.153774286 0.148670517 0.0952353594
v 0.199774285 0.148661704 0.0952328317
v 0.199774285 0.148661704 0.0952328317
v 0.37029973 0.160956004 0.0952242013
v -0.0039635 0 0.054
v -7.2e-06 -0.10021 0.29178
v -7.2e-06 -0.10021 0.29178
v 3.73942495e-07 -0.140550446 0.288961321
v 3.73942495e-07 -0.140550446 0.288961321
v -4.1000657e-06 -0.146796639 0.185761696
v -4.1000657e-06 -0.146796639 0.185761696
v 0.0157744762 -0.146798447 0.105242829
v 0.0157744762 -0.146798447 0.105242829
v 0.115774287 -0.148667798 0.0952374475
v 0.115774287 -0.148667798 0.0952374475
v 0.153774286 -0.148660517 0.0952353594
v 0.153774286 -0.148660517 0.0952353594
v 0.199774285 -0.148651704 0.0952328317
v 0.199774285 -0.148651704 0.0952328317
v 0.370299992 -0.160946022 0.0952242013
l 1 2
l 3 4
l 5 6
l 7 8
l 9 10
l 11 12
l 13 14
l 15 16
l 17 18
l 19 20
l 21 22
l 23 24
l 25 26
l 27 28
l 29 30
l 31 32
l 33 34
l 35 36
l 37 38
l 39 40
l 41 42
l 43 44
l 45 46
l 47 48
l 49 50
l 51 52
l 53 54
l 55 56
l 57 58
l 59 60
l 61 62
