# https://github.com/mikedh/trimesh
v -0.00900000 0.00394218 -0.00000002
v -0.00892903 0.00394218 0.00112798
v -0.00892904 0.00544218 0.00112798
v -0.00836800 0.00394218 0.00331311
v -0.00836799 0.00544218 0.00331311
v -0.00728116 0.00394217 0.00529006
v -0.00728116 0.00544218 0.00529006
v -0.00573682 0.00394218 0.00693461
v -0.00573683 0.00544217 0.00693461
v -0.00383202 0.00394217 0.00814343
v -0.00383202 0.00544218 0.00814344
v -0.00168644 0.00394218 0.00884059
v -0.00168645 0.00544217 0.00884058
v 0.00056510 0.00394218 0.00898224
v 0.00056510 0.00544218 0.00898224
v 0.00278115 0.00394217 0.00855951
v 0.00278114 0.00544218 0.00855951
v 0.00482243 0.00394218 0.00759896
v 0.00482243 0.00544217 0.00759896
v 0.00656072 0.00394218 0.00616093
v 0.00656071 0.00544218 0.00616093
v 0.00788675 0.00394218 0.00433580
v 0.00788675 0.00544218 0.00433580
v 0.00871726 0.00394218 0.00223822
v 0.00871725 0.00544218 0.00223822
v 0.00900000 0.00394218 0.00000001
v 0.00900001 0.00544218 0.00000001
v 0.00871725 0.00394218 -0.00223820
v 0.00871725 0.00544218 -0.00223820
v 0.00788677 0.00394218 -0.00433578
v 0.00788677 0.00544217 -0.00433577
v 0.00656073 0.00394217 -0.00616091
v 0.00656073 0.00544218 -0.00616092
v 0.00482245 0.00394218 -0.00759895
v 0.00482245 0.00544218 -0.00759895
v 0.00278117 0.00394217 -0.00855951
v 0.00278116 0.00544218 -0.00855951
v 0.00056512 0.00394218 -0.00898225
v 0.00056513 0.00544218 -0.00898224
v -0.00168643 0.00394218 -0.00884059
v -0.00168642 0.00544217 -0.00884058
v -0.00383199 0.00394219 -0.00814345
v -0.00383200 0.00544218 -0.00814345
v -0.00573681 0.00394218 -0.00693462
v -0.00573681 0.00544218 -0.00693462
v -0.00728115 0.00394218 -0.00529008
v -0.00728115 0.00544217 -0.00529008
v -0.00836799 0.00394218 -0.00331314
v -0.00836798 0.00544217 -0.00331313
v -0.00892904 0.00394218 -0.00112801
v -0.00892903 0.00544217 -0.00112800
v 0.00871725 -0.00405782 -0.00223819
v 0.00900000 -0.00405782 0.00000002
v 0.00900000 -0.00555783 0.00000002
v 0.00892903 -0.00555782 -0.00112799
v 0.00871724 -0.00555782 -0.00223820
v 0.00788677 -0.00405783 -0.00433577
v 0.00836799 -0.00555782 -0.00331310
v 0.00788677 -0.00555782 -0.00433577
v 0.00656072 -0.00405782 -0.00616092
v 0.00728117 -0.00555782 -0.00529006
v 0.00656073 -0.00555783 -0.00616092
v 0.00482244 -0.00405782 -0.00759895
v 0.00573682 -0.00555783 -0.00693461
v 0.00482245 -0.00555782 -0.00759895
v 0.00278117 -0.00405783 -0.00855950
v 0.00383202 -0.00555782 -0.00814343
v 0.00278116 -0.00555782 -0.00855951
v 0.00056512 -0.00405782 -0.00898224
v 0.00168644 -0.00555783 -0.00884059
v 0.00056513 -0.00555782 -0.00898223
v -0.00168642 -0.00405783 -0.00884059
v -0.00056510 -0.00555782 -0.00898224
v -0.00168642 -0.00555782 -0.00884058
v -0.00383200 -0.00405782 -0.00814345
v -0.00278114 -0.00555782 -0.00855951
v -0.00383200 -0.00555783 -0.00814345
v -0.00573681 -0.00405782 -0.00693463
v -0.00482243 -0.00555783 -0.00759896
v -0.00573681 -0.00555782 -0.00693463
v -0.00728115 -0.00405782 -0.00529007
v -0.00656072 -0.00555782 -0.00616093
v -0.00728115 -0.00555782 -0.00529008
v -0.00788675 -0.00555782 -0.00433580
v -0.00836798 -0.00405782 -0.00331313
v -0.00836798 -0.00555782 -0.00331313
v -0.00871725 -0.00555782 -0.00223822
v -0.00892903 -0.00405782 -0.00112801
v -0.00892902 -0.00555782 -0.00112801
v -0.00900000 -0.00405782 -0.00000001
v -0.00900000 -0.00555782 -0.00000001
v -0.00892903 -0.00405782 0.00112799
v -0.00892904 -0.00555782 0.00112799
v -0.00871725 -0.00555782 0.00223820
v -0.00836799 -0.00405782 0.00331311
v -0.00836799 -0.00555783 0.00331311
v -0.00788676 -0.00555783 0.00433578
v -0.00728115 -0.00405783 0.00529006
v -0.00728115 -0.00555782 0.00529006
v -0.00656073 -0.00555782 0.00616092
v -0.00573683 -0.00405782 0.00693461
v -0.00573683 -0.00555782 0.00693461
v -0.00482245 -0.00555781 0.00759895
v -0.00383202 -0.00405782 0.00814344
v -0.00383202 -0.00555783 0.00814344
v -0.00278116 -0.00555782 0.00855951
v -0.00168644 -0.00405782 0.00884057
v -0.00168645 -0.00555782 0.00884059
v -0.00056512 -0.00555782 0.00898224
v 0.00056510 -0.00405782 0.00898223
v 0.00056511 -0.00555783 0.00898223
v 0.00168643 -0.00555783 0.00884059
v 0.00278113 -0.00405783 0.00855951
v 0.00278114 -0.00555782 0.00855951
v 0.00383200 -0.00555782 0.00814345
v 0.00482243 -0.00405782 0.00759895
v 0.00482243 -0.00555782 0.00759895
v 0.00573681 -0.00555782 0.00693462
v 0.00656071 -0.00405782 0.00616093
v 0.00656071 -0.00555782 0.00616094
v 0.00788675 -0.00405782 0.00433579
v 0.00728115 -0.00555783 0.00529008
v 0.00788676 -0.00555783 0.00433579
v 0.00871724 -0.00405782 0.00223822
v 0.00836799 -0.00555783 0.00331314
v 0.00871725 -0.00555783 0.00223822
v 0.00892904 -0.00555783 0.00112801
v -0.00391015 0.00023981 0.00455091
v -0.00339950 0.00023993 0.00366653
v -0.00382089 0.00051718 0.00462609
v -0.00331241 0.00051718 0.00374538
v -0.00367647 0.00075546 0.00474168
v -0.00317087 0.00075545 0.00386595
v -0.00348416 0.00093811 0.00488474
v -0.00298138 0.00093811 0.00401390
v -0.00325455 0.00105283 0.00504062
v -0.00273475 0.00105871 0.00418583
v -0.00299348 0.00109216 0.00519991
v -0.00250001 0.00109217 0.00433012
v -0.00273506 0.00105194 0.00534036
v -0.00223744 0.00105288 0.00447145
v -0.00248823 0.00093811 0.00545973
v -0.00198545 0.00093811 0.00458889
v -0.00226797 0.00075522 0.00555484
v -0.00176230 0.00075516 0.00467913
v -0.00209588 0.00051717 0.00562203
v -0.00158741 0.00051717 0.00474132
v -0.00198625 0.00024022 0.00566170
v -0.00147568 0.00024038 0.00477727
v -0.00194847 -0.00005782 0.00567482
v -0.00143705 -0.00005782 0.00478903
v -0.00198629 -0.00035599 0.00566168
v -0.00147570 -0.00035608 0.00477727
v -0.00209589 -0.00063283 0.00562202
v -0.00158740 -0.00063283 0.00474132
v -0.00226796 -0.00087084 0.00555484
v -0.00176234 -0.00087084 0.00467912
v -0.00248823 -0.00105376 0.00545973
v -0.00198545 -0.00105376 0.00458890
v -0.00273533 -0.00116766 0.00534023
v -0.00223764 -0.00116858 0.00447135
v -0.00300000 -0.00120782 0.00519615
v -0.00250000 -0.00120782 0.00433012
v -0.00325404 -0.00116865 0.00504096
v -0.00273475 -0.00117435 0.00418583
v -0.00348417 -0.00105374 0.00488473
v -0.00298139 -0.00105376 0.00401389
v -0.00367661 -0.00087092 0.00474158
v -0.00317098 -0.00087095 0.00386586
v -0.00382089 -0.00063282 0.00462611
v -0.00331241 -0.00063282 0.00374538
v -0.00390988 -0.00035667 0.00455113
v -0.00339930 -0.00035656 0.00366670
v -0.00394031 -0.00005783 0.00452481
v -0.00342891 -0.00005783 0.00363903
v 0.00444961 -0.00605782 -0.00323281
v 0.00523080 -0.00605782 -0.00169959
v 0.00475528 -0.00555783 -0.00154508
v 0.00439737 -0.00555783 -0.00237973
v 0.00404509 -0.00555782 -0.00293891
v 0.00323283 -0.00605783 -0.00444959
v 0.00338641 -0.00555782 -0.00367862
v 0.00293893 -0.00555782 -0.00404507
v 0.00169960 -0.00605782 -0.00523081
v 0.00200848 -0.00555782 -0.00457887
v 0.00154509 -0.00555782 -0.00475528
v 0.00000001 -0.00605782 -0.00550000
v 0.00041290 -0.00555783 -0.00498293
v 0.00000001 -0.00555783 -0.00500000
v -0.00169958 -0.00605783 -0.00523082
v -0.00122742 -0.00555782 -0.00484700
v -0.00154509 -0.00555782 -0.00475529
v -0.00323282 -0.00605782 -0.00444961
v -0.00273473 -0.00555782 -0.00418583
v -0.00293892 -0.00555782 -0.00404509
v -0.00444958 -0.00605782 -0.00323282
v -0.00394570 -0.00555782 -0.00307106
v -0.00404508 -0.00555782 -0.00293893
v -0.00523081 -0.00605782 -0.00169961
v -0.00472908 -0.00555782 -0.00162350
v -0.00475529 -0.00555782 -0.00154509
v -0.00550001 -0.00605782 -0.00000001
v -0.00499999 -0.00555782 -0.00000001
v -0.00523081 -0.00605782 0.00169959
v -0.00475529 -0.00555782 0.00154508
v -0.00472908 -0.00555782 0.00162350
v -0.00444960 -0.00605783 0.00323280
v -0.00404508 -0.00555782 0.00293892
v -0.00394571 -0.00555782 0.00307106
v -0.00323282 -0.00605782 0.00444958
v -0.00293894 -0.00555783 0.00404508
v -0.00273475 -0.00555783 0.00418583
v -0.00169961 -0.00605782 0.00523081
v -0.00154510 -0.00555782 0.00475528
v -0.00122743 -0.00555782 0.00484699
v -0.00000001 -0.00605783 0.00550001
v 0.00000000 -0.00555782 0.00500000
v 0.00041289 -0.00555782 0.00498291
v 0.00169959 -0.00605782 0.00523081
v 0.00154508 -0.00555782 0.00475529
v 0.00200847 -0.00555783 0.00457886
v 0.00323282 -0.00605782 0.00444960
v 0.00293892 -0.00555783 0.00404508
v 0.00338640 -0.00555783 0.00367862
v 0.00444958 -0.00605782 0.00323282
v 0.00404508 -0.00555782 0.00293892
v 0.00439737 -0.00555782 0.00237974
v 0.00523081 -0.00605782 0.00169961
v 0.00475528 -0.00555782 0.00154509
v 0.00493181 -0.00555782 0.00082297
v 0.00550000 -0.00605782 0.00000001
v 0.00500001 -0.00555782 0.00000001
v 0.00493180 -0.00555783 -0.00082296
v -0.00444958 0.00594218 -0.00323282
v -0.00523081 0.00594218 -0.00169961
v -0.00472909 0.00544218 -0.00162350
v -0.00404508 0.00544218 -0.00293892
v -0.00394570 0.00544218 -0.00307106
v -0.00323281 0.00594218 -0.00444959
v -0.00293892 0.00544217 -0.00404508
v -0.00273473 0.00544217 -0.00418584
v -0.00169959 0.00594218 -0.00523081
v -0.00154508 0.00544218 -0.00475529
v -0.00122742 0.00544218 -0.00484700
v 0.00000001 0.00594217 -0.00550001
v 0.00000001 0.00544218 -0.00499999
v 0.00041289 0.00544218 -0.00498292
v 0.00169960 0.00594218 -0.00523081
v 0.00154509 0.00544218 -0.00475529
v 0.00200848 0.00544218 -0.00457887
v 0.00323282 0.00594218 -0.00444959
v 0.00293893 0.00544217 -0.00404508
v 0.00338641 0.00544217 -0.00367861
v 0.00444960 0.00594217 -0.00323281
v 0.00404509 0.00544218 -0.00293892
v 0.00439737 0.00544218 -0.00237974
v 0.00523082 0.00594218 -0.00169958
v 0.00475529 0.00544218 -0.00154509
v 0.00493181 0.00544218 -0.00082297
v 0.00550000 0.00594218 0.00000000
v 0.00500000 0.00544218 0.00000001
v 0.00523081 0.00594218 0.00169960
v 0.00493180 0.00544218 0.00082298
v 0.00475528 0.00544218 0.00154509
v 0.00444959 0.00594218 0.00323283
v 0.00439737 0.00544218 0.00237973
v 0.00404507 0.00544218 0.00293893
v 0.00323281 0.00594218 0.00444960
v 0.00338640 0.00544218 0.00367863
v 0.00293891 0.00544218 0.00404509
v 0.00169958 0.00594217 0.00523081
v 0.00200848 0.00544218 0.00457887
v 0.00154508 0.00544218 0.00475528
v -0.00000001 0.00594218 0.00550000
v 0.00041289 0.00544217 0.00498292
v -0.00000000 0.00544217 0.00500001
v -0.00169960 0.00594218 0.00523081
v -0.00122744 0.00544218 0.00484700
v -0.00154509 0.00544218 0.00475528
v -0.00323283 0.00594217 0.00444959
v -0.00273474 0.00544218 0.00418583
v -0.00293892 0.00544218 0.00404508
v -0.00444960 0.00594218 0.00323282
v -0.00394570 0.00544218 0.00307106
v -0.00404508 0.00544218 0.00293892
v -0.00523081 0.00594218 0.00169959
v -0.00472908 0.00544217 0.00162350
v -0.00475529 0.00544217 0.00154508
v -0.00549999 0.00594218 -0.00000000
v -0.00500000 0.00544218 0.00000000
v -0.00475528 0.00544218 -0.00154510
v -0.00823295 -0.00605783 -0.00211388
v -0.00850000 -0.00605783 -0.00000000
v -0.00744860 -0.00605783 -0.00409492
v -0.00619623 -0.00605782 -0.00581865
v -0.00455452 -0.00605782 -0.00717680
v -0.00262664 -0.00605782 -0.00808399
v -0.00053371 -0.00605783 -0.00848323
v 0.00159275 -0.00605782 -0.00834943
v 0.00361914 -0.00605783 -0.00769103
v 0.00541811 -0.00605782 -0.00654935
v 0.00687665 -0.00605782 -0.00499616
v 0.00790310 -0.00605783 -0.00312905
v 0.00843297 -0.00605782 -0.00106532
v 0.00850000 -0.00605782 0.00000001
v 0.00843298 -0.00605782 0.00106534
v 0.00790310 -0.00605782 0.00312908
v 0.00687664 -0.00605782 0.00499619
v 0.00541809 -0.00605783 0.00654938
v 0.00361911 -0.00605782 0.00769104
v 0.00159273 -0.00605782 0.00834945
v -0.00053373 -0.00605783 0.00848323
v -0.00262666 -0.00605782 0.00808397
v -0.00455454 -0.00605782 0.00717677
v -0.00619624 -0.00605783 0.00581864
v -0.00744862 -0.00605782 0.00409489
v -0.00823296 -0.00605782 0.00211386
v 0.00823295 0.00594217 0.00211388
v 0.00744860 0.00594217 0.00409492
v 0.00619622 0.00594218 0.00581865
v 0.00455452 0.00594218 0.00717680
v 0.00262663 0.00594218 0.00808399
v 0.00053371 0.00594217 0.00848322
v -0.00159275 0.00594218 0.00834943
v -0.00361914 0.00594217 0.00769103
v -0.00541811 0.00594218 0.00654935
v -0.00687664 0.00594218 0.00499616
v -0.00790310 0.00594217 0.00312905
v -0.00843297 0.00594219 0.00106532
v -0.00843298 0.00594218 -0.00106534
v -0.00790310 0.00594218 -0.00312906
v -0.00687663 0.00594218 -0.00499618
v -0.00541810 0.00594217 -0.00654938
v -0.00361911 0.00594218 -0.00769104
v -0.00159273 0.00594218 -0.00834945
v 0.00053373 0.00594217 -0.00848323
v 0.00262666 0.00594218 -0.00808398
v 0.00455453 0.00594218 -0.00717678
v 0.00619624 0.00594217 -0.00581865
v 0.00744862 0.00594218 -0.00409490
v 0.00823296 0.00594218 -0.00211386
v 0.00850001 0.00594217 0.00000001
v 0.00363309 -0.00105376 0.00343521
v 0.00444417 -0.00087086 0.00403106
v 0.00388232 -0.00070775 0.00315081
v 0.00456615 -0.00063282 0.00389234
v 0.00391246 -0.00063283 0.00311331
v 0.00398450 -0.00035577 0.00302057
v 0.00464089 -0.00035599 0.00380291
v 0.00400871 -0.00005782 0.00298834
v 0.00466617 -0.00005782 0.00377185
v 0.00398450 0.00024014 0.00302057
v 0.00464092 0.00024022 0.00380288
v 0.00391246 0.00051718 0.00311331
v 0.00456614 0.00051717 0.00389234
v 0.00379390 0.00075560 0.00325673
v 0.00444415 0.00075522 0.00403107
v 0.00363308 0.00093811 0.00343521
v 0.00427944 0.00093810 0.00420552
v 0.00338640 0.00106903 0.00367862
v 0.00408286 0.00105193 0.00439662
v 0.00321394 0.00109217 0.00383023
v 0.00386248 0.00109215 0.00459143
v 0.00297979 0.00105285 0.00401508
v 0.00362351 0.00105284 0.00478228
v 0.00275213 0.00093811 0.00417442
v 0.00339849 0.00093811 0.00494473
v 0.00254833 0.00075548 0.00430186
v 0.00319831 0.00075545 0.00507650
v 0.00238661 0.00051718 0.00439364
v 0.00304029 0.00051718 0.00517268
v 0.00228277 0.00024015 0.00444848
v 0.00293912 0.00023980 0.00523083
v 0.00224682 -0.00005782 0.00446675
v 0.00290426 -0.00005782 0.00525027
v 0.00228277 -0.00035580 0.00444848
v 0.00293940 -0.00035666 0.00523067
v 0.00238660 -0.00063282 0.00439365
v 0.00304029 -0.00063283 0.00517268
v 0.00254817 -0.00087095 0.00430195
v 0.00319814 -0.00087092 0.00507660
v 0.00275214 -0.00105376 0.00417442
v 0.00339850 -0.00105376 0.00494473
v 0.00298016 -0.00116862 0.00401480
v 0.00362399 -0.00116864 0.00478191
v 0.00321390 -0.00120782 0.00383025
v 0.00385671 -0.00120782 0.00459627
v 0.00338640 -0.00118468 0.00367862
v 0.00408262 -0.00116766 0.00439683
v 0.00427945 -0.00105375 0.00420552
v -0.00500000 -0.00555782 0.00000000
f 1 2 3
f 51 1 3
f 3 330 51
f 51 330 331
f 51 331 49
f 49 331 332
f 332 331 235
f 234 332 235
f 234 235 236
f 235 291 236
f 291 201 236
f 291 391 201
f 290 391 291
f 290 205 391
f 288 205 290
f 289 288 290
f 289 290 235
f 235 330 289
f 289 330 329
f 289 329 286
f 286 329 328
f 286 328 283
f 283 328 327
f 283 327 280
f 327 326 280
f 9 326 327
f 9 327 7
f 7 8 9
f 7 6 8
f 5 6 7
f 5 4 6
f 3 4 5
f 5 329 3
f 7 328 5
f 9 8 10
f 9 10 11
f 11 10 12
f 11 12 13
f 13 325 11
f 11 325 326
f 13 324 325
f 277 325 324
f 277 324 274
f 274 324 323
f 274 323 271
f 271 323 322
f 271 322 268
f 268 270 271
f 270 272 271
f 271 272 273
f 272 221 273
f 273 221 220
f 273 220 275
f 273 275 274
f 274 275 276
f 275 218 276
f 276 218 217
f 276 217 278
f 276 278 277
f 277 278 279
f 278 141 279
f 279 141 139
f 279 139 281
f 279 281 280
f 280 281 282
f 281 137 282
f 282 137 135
f 282 135 284
f 282 284 283
f 283 284 285
f 284 209 285
f 285 209 208
f 285 208 287
f 285 287 286
f 286 287 288
f 287 206 288
f 287 208 206
f 206 208 207
f 204 206 207
f 207 316 204
f 204 316 317
f 316 96 317
f 316 97 96
f 95 96 97
f 95 97 98
f 97 99 98
f 98 99 100
f 315 100 99
f 315 99 316
f 102 100 315
f 100 102 101
f 101 102 103
f 101 103 104
f 103 105 104
f 105 103 314
f 313 105 314
f 210 313 314
f 210 314 207
f 207 209 210
f 209 211 210
f 210 211 212
f 211 165 212
f 212 165 163
f 212 163 214
f 214 163 161
f 214 161 215
f 215 161 159
f 215 159 157
f 155 215 157
f 155 153 215
f 151 215 153
f 152 151 153
f 152 153 154
f 150 151 152
f 150 149 151
f 148 149 150
f 148 147 149
f 278 149 147
f 278 147 145
f 145 143 278
f 146 147 148
f 146 145 147
f 144 145 146
f 144 143 145
f 142 143 144
f 142 141 143
f 140 141 142
f 140 139 141
f 138 139 140
f 138 137 139
f 136 137 138
f 136 135 137
f 134 135 136
f 134 133 135
f 132 133 134
f 132 131 133
f 130 131 132
f 130 129 131
f 128 129 130
f 128 175 129
f 174 175 128
f 174 173 175
f 172 173 174
f 172 171 173
f 209 173 171
f 171 169 209
f 209 169 167
f 170 171 172
f 170 169 171
f 168 169 170
f 168 167 169
f 166 167 168
f 166 165 167
f 164 165 166
f 164 163 165
f 162 163 164
f 162 161 163
f 160 161 162
f 160 159 161
f 158 159 160
f 158 157 159
f 156 157 158
f 156 155 157
f 154 155 156
f 175 173 209
f 129 175 284
f 131 129 284
f 284 133 131
f 151 149 278
f 278 215 151
f 154 153 155
f 213 214 215
f 213 215 216
f 215 217 216
f 216 312 213
f 213 312 313
f 312 108 313
f 108 106 313
f 106 108 107
f 107 108 109
f 107 109 110
f 109 111 110
f 110 111 112
f 311 112 111
f 114 112 311
f 112 114 113
f 113 114 115
f 310 115 114
f 117 115 310
f 115 117 116
f 116 117 118
f 116 118 119
f 119 118 120
f 119 120 121
f 120 122 121
f 308 122 120
f 123 122 308
f 308 125 123
f 307 125 308
f 225 307 308
f 228 307 225
f 225 227 228
f 225 226 227
f 226 343 227
f 227 343 345
f 227 345 347
f 347 348 227
f 347 346 348
f 348 346 349
f 348 349 350
f 350 349 351
f 350 351 352
f 352 351 353
f 352 353 354
f 266 352 354
f 354 356 266
f 266 356 358
f 266 358 267
f 265 266 267
f 265 267 268
f 268 321 265
f 265 321 320
f 265 320 319
f 265 319 262
f 262 319 318
f 25 318 319
f 25 319 23
f 23 24 25
f 23 22 24
f 21 22 23
f 21 20 22
f 19 20 21
f 21 321 19
f 19 321 322
f 19 322 17
f 17 18 19
f 17 16 18
f 15 16 17
f 17 323 15
f 15 14 16
f 13 14 15
f 19 18 20
f 23 320 21
f 25 24 26
f 25 26 27
f 27 26 28
f 27 28 29
f 29 342 27
f 27 342 318
f 260 318 342
f 260 342 257
f 257 259 260
f 257 258 259
f 256 258 257
f 256 179 258
f 258 179 178
f 178 179 176
f 176 179 180
f 176 180 181
f 180 182 181
f 181 182 183
f 181 183 184
f 184 300 181
f 181 300 301
f 300 67 301
f 300 68 67
f 70 68 300
f 299 70 300
f 299 71 70
f 69 70 71
f 69 71 72
f 71 73 72
f 72 73 74
f 298 74 73
f 298 73 299
f 187 298 299
f 187 299 184
f 184 186 187
f 186 188 187
f 249 188 186
f 249 186 250
f 248 249 250
f 248 250 251
f 250 252 251
f 250 185 252
f 252 185 183
f 252 183 253
f 251 252 253
f 251 253 254
f 254 339 251
f 254 340 339
f 254 341 340
f 257 341 254
f 31 340 341
f 31 341 29
f 29 30 31
f 31 30 32
f 31 32 33
f 33 32 34
f 33 34 35
f 35 339 33
f 35 338 339
f 37 338 35
f 37 337 338
f 248 338 337
f 248 337 245
f 245 247 248
f 245 246 247
f 246 189 247
f 246 191 189
f 244 191 246
f 244 192 191
f 190 191 192
f 190 192 193
f 193 296 190
f 193 295 296
f 196 295 193
f 193 195 196
f 193 194 195
f 241 195 194
f 240 195 241
f 240 197 195
f 238 197 240
f 238 198 197
f 237 198 238
f 237 200 198
f 198 200 199
f 199 200 201
f 199 201 202
f 202 201 203
f 202 203 204
f 203 205 204
f 202 293 199
f 202 317 293
f 317 93 293
f 293 93 91
f 293 91 89
f 292 293 89
f 89 87 292
f 88 87 89
f 88 89 90
f 85 87 88
f 85 86 87
f 84 86 85
f 294 86 84
f 294 84 295
f 84 83 295
f 81 83 84
f 82 83 81
f 81 80 82
f 78 80 81
f 78 79 80
f 77 79 78
f 79 77 297
f 297 77 76
f 297 76 298
f 75 76 77
f 74 76 75
f 296 79 297
f 75 77 78
f 296 80 79
f 82 80 296
f 295 83 82
f 292 86 294
f 196 292 294
f 199 292 196
f 81 84 85
f 292 87 86
f 90 89 91
f 90 91 92
f 91 93 92
f 92 93 94
f 92 94 95
f 317 94 93
f 199 293 292
f 196 198 199
f 236 200 237
f 234 237 238
f 234 238 239
f 239 333 234
f 239 334 333
f 242 334 239
f 239 241 242
f 241 243 242
f 242 243 244
f 242 244 245
f 245 336 242
f 242 336 335
f 41 335 336
f 43 335 41
f 43 334 335
f 45 334 43
f 43 44 45
f 45 44 46
f 45 46 47
f 47 333 45
f 47 332 333
f 47 46 48
f 47 48 49
f 49 48 50
f 43 42 44
f 41 42 43
f 41 40 42
f 39 40 41
f 39 38 40
f 37 38 39
f 37 36 38
f 41 336 39
f 39 336 337
f 242 335 334
f 45 333 334
f 196 197 198
f 238 240 239
f 239 240 241
f 241 194 243
f 243 194 192
f 195 197 196
f 196 294 295
f 295 82 296
f 190 296 297
f 190 297 187
f 187 189 190
f 192 194 193
f 243 192 244
f 189 191 190
f 247 189 188
f 244 246 245
f 245 337 336
f 39 337 37
f 35 36 37
f 35 34 36
f 33 340 31
f 33 339 340
f 251 339 338
f 253 255 254
f 253 182 255
f 254 255 256
f 255 180 256
f 251 338 248
f 247 249 248
f 250 186 185
f 247 188 249
f 187 188 189
f 184 185 186
f 187 297 298
f 76 74 298
f 72 74 75
f 73 71 299
f 68 70 69
f 66 68 69
f 66 67 68
f 65 67 66
f 63 65 66
f 63 64 65
f 62 64 63
f 60 62 63
f 60 61 62
f 302 62 61
f 302 61 303
f 61 59 303
f 303 59 58
f 303 58 304
f 177 303 304
f 177 304 231
f 231 232 177
f 177 232 233
f 177 233 178
f 259 178 233
f 259 233 261
f 261 233 232
f 261 232 263
f 261 263 262
f 260 261 262
f 262 263 264
f 263 230 264
f 264 230 229
f 264 229 266
f 266 229 227
f 266 227 350
f 228 229 230
f 228 230 231
f 231 306 228
f 231 305 306
f 305 54 306
f 306 54 127
f 53 127 54
f 53 126 127
f 124 126 53
f 124 125 126
f 127 126 307
f 52 53 54
f 54 55 52
f 52 55 56
f 52 56 57
f 56 58 57
f 304 56 55
f 304 55 305
f 306 127 307
f 305 55 54
f 263 232 230
f 231 230 232
f 231 304 305
f 58 56 304
f 57 58 59
f 57 59 60
f 177 302 303
f 176 302 177
f 176 301 302
f 301 64 302
f 59 61 60
f 64 62 302
f 301 65 64
f 67 65 301
f 184 299 300
f 183 185 184
f 253 183 182
f 255 182 180
f 181 301 176
f 176 177 178
f 256 180 179
f 254 256 257
f 258 178 259
f 260 259 261
f 257 342 341
f 29 341 342
f 29 28 30
f 27 318 25
f 262 318 260
f 262 264 265
f 23 319 320
f 21 320 321
f 267 269 268
f 267 360 269
f 269 360 270
f 270 360 362
f 264 266 265
f 267 358 360
f 354 353 355
f 354 355 356
f 356 355 357
f 356 357 358
f 358 357 359
f 358 359 360
f 360 359 361
f 360 361 362
f 362 361 363
f 362 363 364
f 364 363 365
f 364 365 366
f 366 365 367
f 366 367 368
f 368 367 369
f 368 369 370
f 370 369 371
f 370 371 372
f 272 370 372
f 372 374 272
f 372 373 374
f 374 373 375
f 374 375 376
f 376 375 377
f 376 377 378
f 221 376 378
f 221 378 380
f 380 382 221
f 221 382 384
f 221 384 223
f 221 223 222
f 222 223 224
f 223 386 224
f 224 386 388
f 224 388 226
f 222 224 225
f 219 221 222
f 222 310 219
f 222 309 310
f 308 309 222
f 219 310 311
f 219 311 216
f 216 218 219
f 218 220 219
f 223 384 386
f 378 377 379
f 378 379 380
f 380 379 381
f 380 381 382
f 382 381 383
f 382 383 384
f 384 383 385
f 384 385 386
f 386 385 387
f 386 387 388
f 388 387 389
f 388 389 343
f 343 389 390
f 343 390 344
f 343 344 345
f 345 344 346
f 374 376 221
f 272 368 370
f 366 368 272
f 272 364 366
f 272 362 364
f 372 371 373
f 350 352 266
f 350 227 348
f 345 346 347
f 226 388 343
f 224 226 225
f 227 229 228
f 228 306 307
f 225 308 222
f 307 126 125
f 123 125 124
f 121 123 124
f 308 120 309
f 121 122 123
f 120 118 309
f 309 118 117
f 309 117 310
f 113 115 116
f 310 114 311
f 311 111 312
f 110 112 113
f 111 109 312
f 104 106 107
f 312 109 108
f 216 311 312
f 212 214 213
f 211 167 165
f 210 212 213
f 209 167 211
f 207 314 315
f 213 313 210
f 313 106 105
f 104 105 106
f 314 103 102
f 314 102 315
f 98 100 101
f 94 96 95
f 99 97 316
f 96 94 317
f 204 317 202
f 207 315 316
f 204 205 206
f 207 208 209
f 284 175 209
f 284 135 133
f 281 139 137
f 278 143 141
f 277 279 280
f 278 217 215
f 216 217 218
f 275 220 218
f 219 220 221
f 272 374 221
f 270 362 272
f 268 269 270
f 268 322 321
f 17 322 323
f 271 273 274
f 15 323 324
f 274 276 277
f 280 325 277
f 15 324 13
f 13 12 14
f 11 326 9
f 280 326 325
f 280 282 283
f 7 327 328
f 283 285 286
f 5 328 329
f 286 288 289
f 288 206 205
f 236 201 200
f 235 290 291
f 236 237 234
f 234 333 332
f 49 332 47
f 49 50 51
f 235 331 330
f 3 329 330
f 51 50 1
f 3 2 4

