# https://github.com/mikedh/trimesh
v -0.00391015 0.00023981 0.00455091
v -0.00382089 0.00051718 0.00462609
v -0.00367647 0.00075546 0.00474168
v -0.00348416 0.00093811 0.00488474
v -0.00325455 0.00105283 0.00504062
v -0.00299348 0.00109216 0.00519991
v -0.00273506 0.00105194 0.00534036
v -0.00248823 0.00093811 0.00545973
v -0.00226797 0.00075522 0.00555484
v -0.00209588 0.00051717 0.00562203
v -0.00198625 0.00024022 0.00566170
v -0.00194847 -0.00005782 0.00567482
v -0.00198629 -0.00035599 0.00566168
v -0.00209589 -0.00063283 0.00562202
v -0.00226796 -0.00087084 0.00555484
v -0.00248823 -0.00105376 0.00545973
v -0.00273533 -0.00116766 0.00534023
v -0.00300000 -0.00120782 0.00519615
v -0.00325404 -0.00116865 0.00504096
v -0.00348417 -0.00105374 0.00488473
v -0.00367661 -0.00087092 0.00474158
v -0.00382089 -0.00063282 0.00462611
v -0.00390988 -0.00035667 0.00455113
v -0.00394031 -0.00005783 0.00452481
v -0.00324582 -0.00013486 0.00504625
v -0.00286843 -0.00007794 0.00526992
f 24 1 25
f 25 23 24
f 25 22 23
f 21 22 25
f 25 20 21
f 19 20 25
f 19 25 18
f 18 25 6
f 25 5 6
f 25 4 5
f 3 4 25
f 25 2 3
f 18 6 26
f 26 17 18
f 26 16 17
f 15 16 26
f 14 15 26
f 26 13 14
f 26 12 13
f 11 12 26
f 26 10 11
f 26 9 10
f 8 9 26
f 26 7 8
f 26 6 7
f 25 1 2

