# https://github.com/mikedh/trimesh
v 0.00630001 0.00644217 -0.01655790
v 0.00650001 0.00624218 -0.01664074
v 0.00650001 0.00644217 -0.01684074
v -0.00499999 0.00644218 -0.02455791
v -0.00499998 0.00444217 -0.02455790
v -0.00499998 0.00644218 -0.02255790
v 0.00150002 0.00644218 -0.02455789
v 0.00150001 -0.00655781 -0.02455790
v -0.00499999 -0.00655782 -0.02455790
v -0.00499999 -0.00455783 -0.02455790
v -0.01749999 -0.00455782 -0.02455791
v -0.01749998 0.00444217 -0.02455791
v 0.00650001 0.00624218 -0.01621531
v 0.00630001 0.00644217 -0.01621532
v 0.00486570 0.00634218 -0.01482179
v 0.00484485 0.00624218 -0.01472337
v 0.00545394 0.00624218 -0.01478565
v 0.00488612 0.00644219 -0.01492031
v 0.00539343 0.00644217 -0.01497628
v 0.00599871 0.00624218 -0.01509612
v 0.00586555 0.00644217 -0.01524534
v 0.00636896 0.00624218 -0.01560215
v 0.00618643 0.00644217 -0.01568390
v 0.00245708 0.00644218 -0.01550654
v 0.00242579 0.00624217 -0.01530900
v -0.00016438 0.00624218 -0.01549912
v -0.00016650 0.00644217 -0.01569911
v -0.00274994 0.00624218 -0.01525411
v -0.00278542 0.00644218 -0.01545093
v -0.00525830 0.00624218 -0.01458082
v -0.00532615 0.00644217 -0.01476896
v -0.00761902 0.00624218 -0.01349817
v -0.00771732 0.00644218 -0.01367235
v -0.00976583 0.00624217 -0.01203656
v -0.00989184 0.00644218 -0.01219187
v -0.01163847 0.00624217 -0.01023701
v -0.01178864 0.00644217 -0.01036909
v -0.01314020 0.00644217 -0.00975790
v -0.01314019 0.00624218 -0.00955791
v -0.01231613 0.00624218 -0.00973558
v -0.01239853 0.00644217 -0.00991781
v -0.01649999 0.00624217 -0.00955791
v -0.01650000 0.00644218 -0.00975791
v -0.01729999 0.00644217 -0.01055790
v -0.01750000 0.00624218 -0.01055791
v -0.01742387 0.00624218 -0.01017523
v -0.01723910 0.00644217 -0.01025176
v -0.01736602 0.00624217 -0.01005792
v -0.01706568 0.00644217 -0.00999223
v -0.01720710 0.00624217 -0.00985081
v -0.01699999 0.00624217 -0.00969189
v -0.01680613 0.00644218 -0.00981880
v -0.01688268 0.00624217 -0.00963403
v -0.01729999 0.00644218 -0.01755792
v -0.01736700 0.00637517 -0.01662700
v -0.01749999 0.00624218 -0.01595792
v -0.01749999 0.00624217 -0.02275791
v -0.01749999 0.00624218 -0.01915791
v -0.01729998 0.00644218 -0.02255792
v -0.01736700 0.00637517 -0.01848884
v 0.00650000 -0.00635782 -0.01664074
v 0.00630001 -0.00655782 -0.01655789
v 0.00650002 -0.00655782 -0.01684074
v 0.00630002 -0.00655782 -0.01621532
v 0.00650001 -0.00635782 -0.01621532
v 0.00486570 -0.00645784 -0.01482178
v 0.00488613 -0.00655783 -0.01492032
v 0.00539342 -0.00655783 -0.01497628
v 0.00545394 -0.00635782 -0.01478565
v 0.00484485 -0.00635782 -0.01472336
v 0.00586555 -0.00655782 -0.01524534
v 0.00599871 -0.00635782 -0.01509612
v 0.00618644 -0.00655782 -0.01568389
v 0.00636896 -0.00635782 -0.01560214
v 0.00242578 -0.00635782 -0.01530900
v -0.01163846 -0.00635782 -0.01023700
v -0.01178863 -0.00655782 -0.01036910
v -0.00976583 -0.00635782 -0.01203655
v -0.00989184 -0.00655782 -0.01219186
v -0.00761902 -0.00635783 -0.01349817
v -0.00771732 -0.00655783 -0.01367234
v -0.00525829 -0.00635782 -0.01458083
v -0.00532614 -0.00655782 -0.01476896
v -0.00274995 -0.00635783 -0.01525411
v -0.00278543 -0.00655782 -0.01545094
v -0.00016439 -0.00635782 -0.01549913
v -0.00016651 -0.00655783 -0.01569912
v 0.00245709 -0.00655782 -0.01550654
v -0.01231613 -0.00635782 -0.00973557
v -0.01239853 -0.00655782 -0.00991780
v -0.01314020 -0.00635782 -0.00955791
v -0.01314021 -0.00655783 -0.00975791
v -0.01649999 -0.00655782 -0.00975791
v -0.01649999 -0.00635782 -0.00955791
v -0.01699999 -0.00635782 -0.00969189
v -0.01689999 -0.00655782 -0.00986509
v -0.01720710 -0.00635782 -0.00985080
v -0.01719282 -0.00655782 -0.01015791
v -0.01736602 -0.00635782 -0.01005791
v -0.01749999 -0.00635782 -0.01055791
v -0.01730000 -0.00655782 -0.01055791
v -0.01749999 -0.00635783 -0.01595792
v -0.01736699 -0.00649082 -0.01662700
v -0.01729998 -0.00655783 -0.01755791
v -0.01736700 -0.00649082 -0.01848884
v -0.01729998 -0.00655782 -0.02255791
v -0.01749998 -0.00635783 -0.01915791
v -0.01749999 -0.00635782 -0.02275791
v -0.01314020 0.00394217 -0.00955792
v -0.01232077 0.00394218 -0.00973348
v -0.01163846 0.00394218 -0.01023700
v -0.01163846 -0.00405782 -0.01023701
v -0.01231613 -0.00405783 -0.00973557
v -0.01314020 -0.00405783 -0.00955791
v -0.01749999 -0.00405783 -0.01055792
v -0.01742388 -0.00405783 -0.01017523
v -0.01720711 -0.00405782 -0.00985080
v -0.01688267 -0.00405782 -0.00963403
v -0.01649999 -0.00405782 -0.00955791
v -0.01749999 0.00394218 -0.01055791
v -0.01736602 0.00394218 -0.01005792
v -0.01699999 0.00394218 -0.00969188
v -0.01649999 0.00394218 -0.00955792
v -0.00499999 -0.00655782 -0.02255791
v -0.01849998 -0.00597043 -0.01485772
v -0.01849999 -0.00649166 -0.01663288
v -0.01849999 -0.00649166 -0.01848296
v -0.01749999 -0.00597043 -0.02025812
v -0.01849999 -0.00597043 -0.02025812
v -0.01849999 -0.00497019 -0.02181452
v -0.01749998 -0.00497019 -0.02181451
v -0.01849998 -0.00357199 -0.02302606
v -0.01749998 -0.00357199 -0.02302607
v -0.01849998 -0.00188908 -0.02379462
v -0.01749999 -0.00188908 -0.02379461
v -0.01849998 -0.00005782 -0.02405791
v -0.01749998 -0.00005782 -0.02405792
v -0.01849999 0.00177345 -0.02379462
v -0.01749999 0.00177343 -0.02379463
v -0.01849999 0.00345634 -0.02302606
v -0.01749999 0.00345634 -0.02302606
v -0.01849999 0.00485455 -0.02181451
v -0.01749999 0.00485455 -0.02181451
v -0.01849999 0.00585479 -0.02025812
v -0.01749999 0.00585479 -0.02025810
v -0.01849999 0.00637602 -0.01848297
v -0.01749999 0.00585478 -0.01485771
v -0.01849999 0.00637602 -0.01663286
v -0.01749999 -0.00597042 -0.01485771
v -0.01749999 -0.00497020 -0.01330132
v -0.01849999 -0.00497020 -0.01330132
v -0.01749999 -0.00357199 -0.01208977
v -0.01849999 -0.00357199 -0.01208976
v -0.01749999 -0.00188908 -0.01132121
v -0.01849999 -0.00188908 -0.01132121
v -0.01750000 -0.00005782 -0.01105792
v -0.01849999 -0.00005782 -0.01105792
v -0.01749998 0.00177344 -0.01132121
v -0.01850000 0.00177344 -0.01132122
v -0.01750000 0.00345634 -0.01208977
v -0.01849999 0.00345635 -0.01208977
v -0.01749999 0.00485456 -0.01330131
v -0.01849999 0.00485455 -0.01330133
v -0.01849998 0.00585479 -0.01485772
v 0.00372522 0.00644217 -0.02430718
v 0.01123596 0.00644217 -0.01684074
v 0.01050970 0.00644218 -0.01889674
v 0.00931833 0.00644218 -0.02079280
v 0.00773491 0.00644217 -0.02237621
v 0.00583886 0.00644218 -0.02356759
v -0.01749999 -0.00405782 -0.00246188
v -0.01750001 0.00394218 -0.00246188
v 0.01050969 -0.00655781 -0.01889672
v 0.01123596 -0.00655783 -0.01684074
v 0.00372523 -0.00655782 -0.02430719
v 0.00583885 -0.00655782 -0.02356758
v 0.00773491 -0.00655783 -0.02237622
v 0.00931834 -0.00655782 -0.02079280
v 0.00650002 -0.00405783 -0.01621532
v 0.00637050 -0.00405783 -0.01560558
v 0.00600431 -0.00405781 -0.01510115
v 0.00546470 -0.00405781 -0.01478911
v 0.00484484 -0.00405783 -0.01472337
v 0.00233384 -0.00405782 -0.01532329
v -0.00024192 -0.00405783 -0.01549812
v -0.00281096 -0.00405782 -0.01524298
v -0.00530203 -0.00405783 -0.01456496
v -0.00764601 -0.00405782 -0.01348289
v -0.00977787 -0.00405782 -0.01202678
v -0.00977787 0.00394218 -0.01202679
v -0.00764601 0.00394218 -0.01348290
v -0.00530204 0.00394217 -0.01456498
v -0.00281097 0.00394218 -0.01524298
v -0.00024192 0.00394217 -0.01549811
v 0.00233384 0.00394218 -0.01532330
v 0.00484486 0.00394217 -0.01472337
v 0.00650001 0.00394218 -0.01621532
v 0.00637049 0.00394218 -0.01560558
v 0.00600432 0.00394218 -0.01510115
v 0.00546471 0.00394217 -0.01478911
v 0.01150000 -0.00405782 0.00288998
v 0.01124927 -0.00405782 0.00511518
v 0.01050969 -0.00405782 0.00722882
v 0.00931831 -0.00405782 0.00912488
v 0.01150000 -0.00405782 -0.00655607
v 0.01150000 -0.00405782 -0.01036988
v -0.00501925 -0.00405782 0.01121048
v -0.01304700 -0.00405783 0.00585864
v 0.00149998 -0.00405783 0.01288997
v 0.00052774 -0.00405783 0.01288997
v -0.01456515 -0.00405782 0.00461510
v -0.00329264 -0.00405783 0.01213144
v -0.00141974 -0.00405782 0.01269851
v 0.00773489 -0.00405783 0.01070829
v 0.00583883 -0.00405782 0.01189966
v 0.00372520 -0.00405782 0.01263926
v -0.01581121 -0.00405782 0.00309904
v -0.01673719 -0.00405783 0.00136883
v -0.01730744 -0.00405782 -0.00050892
v 0.01136170 0.00394217 -0.01621531
v 0.01150002 0.00394218 -0.01455789
v 0.01149999 0.00394218 0.00288998
v 0.01124927 0.00394218 0.00511519
v 0.01050968 0.00394218 0.00722881
v -0.00141973 0.00394218 0.01269851
v 0.00583883 0.00394217 0.01189967
v 0.00773489 0.00394217 0.01070830
v 0.00931831 0.00394218 0.00912487
v -0.00329264 0.00394218 0.01213143
v -0.00501925 0.00394219 0.01121047
v -0.01304700 0.00394217 0.00585863
v -0.01456515 0.00394218 0.00461512
v 0.00052775 0.00394217 0.01288997
v 0.00150000 0.00394217 0.01288997
v 0.00372520 0.00394218 0.01263925
v -0.01730745 0.00394217 -0.00050892
v -0.01673720 0.00394217 0.00136882
v -0.01581121 0.00394218 0.00309905
v 0.01150001 -0.00405783 -0.01455789
v 0.01136170 -0.00405781 -0.01621530
v 0.01136170 0.00624218 -0.01621532
v 0.01128069 0.00624218 -0.01664073
v 0.01128070 -0.00635782 -0.01664073
v 0.01136170 -0.00635782 -0.01621531
f 1 2 3
f 2 1 13
f 13 241 2
f 2 241 242
f 13 1 14
f 23 13 14
f 23 22 13
f 21 22 23
f 21 20 22
f 19 20 21
f 19 17 20
f 199 20 17
f 199 17 200
f 200 17 16
f 15 16 17
f 16 15 25
f 25 15 24
f 25 24 26
f 26 24 27
f 26 27 28
f 28 194 26
f 26 194 195
f 28 193 194
f 30 193 28
f 28 29 30
f 30 29 31
f 6 31 29
f 27 6 29
f 6 33 31
f 59 33 6
f 59 35 33
f 34 33 35
f 34 35 36
f 36 190 34
f 34 190 191
f 34 191 32
f 32 191 192
f 32 192 30
f 36 111 190
f 40 111 36
f 40 110 111
f 109 110 40
f 40 39 109
f 39 42 109
f 109 42 123
f 53 123 42
f 52 53 42
f 51 53 52
f 49 51 52
f 49 52 47
f 47 52 43
f 47 43 44
f 44 43 37
f 44 37 54
f 54 37 35
f 54 55 44
f 146 55 54
f 146 54 60
f 59 60 54
f 59 58 60
f 57 58 59
f 145 58 57
f 57 143 145
f 57 141 143
f 12 141 57
f 12 139 141
f 137 139 12
f 11 137 12
f 11 135 137
f 133 135 11
f 133 11 131
f 131 11 108
f 131 108 128
f 128 108 107
f 106 107 108
f 106 105 107
f 127 107 105
f 128 107 127
f 127 129 128
f 128 129 130
f 128 130 131
f 131 130 132
f 131 132 133
f 133 132 134
f 133 134 135
f 135 134 136
f 135 136 137
f 137 136 138
f 137 138 139
f 139 138 140
f 139 140 141
f 141 140 142
f 141 142 143
f 143 142 144
f 143 144 145
f 145 144 58
f 58 144 146
f 127 105 104
f 127 104 126
f 126 104 103
f 126 103 102
f 125 126 102
f 102 149 125
f 125 149 150
f 125 150 151
f 151 150 152
f 151 152 153
f 153 152 154
f 153 154 155
f 155 154 156
f 155 156 157
f 157 156 158
f 157 158 159
f 159 158 160
f 159 160 161
f 161 160 162
f 161 162 163
f 163 162 147
f 163 147 164
f 164 147 148
f 147 56 148
f 148 56 55
f 101 102 103
f 100 102 101
f 149 102 100
f 100 150 149
f 100 152 150
f 115 152 100
f 115 154 152
f 156 154 115
f 115 171 156
f 156 171 172
f 172 171 219
f 172 219 236
f 236 219 218
f 236 218 237
f 237 218 217
f 237 217 238
f 238 217 211
f 238 211 232
f 232 211 208
f 232 208 231
f 207 231 208
f 230 231 207
f 212 230 207
f 212 229 230
f 213 229 212
f 213 225 229
f 210 225 213
f 210 233 225
f 210 209 233
f 233 209 234
f 216 234 209
f 216 235 234
f 215 235 216
f 215 226 235
f 214 226 215
f 214 227 226
f 204 227 214
f 204 228 227
f 203 228 204
f 203 224 228
f 202 224 203
f 202 223 224
f 201 223 202
f 201 222 223
f 221 222 201
f 201 205 221
f 221 205 206
f 221 206 239
f 221 239 220
f 220 239 240
f 242 220 240
f 241 220 242
f 242 240 166
f 166 240 243
f 240 244 243
f 243 174 166
f 166 174 173
f 166 173 167
f 167 173 178
f 167 178 168
f 168 178 177
f 168 177 169
f 169 177 176
f 169 176 170
f 170 176 175
f 170 175 165
f 165 175 8
f 165 8 7
f 8 5 7
f 10 5 8
f 10 12 5
f 11 12 10
f 10 108 11
f 57 5 12
f 57 6 5
f 8 9 10
f 5 4 7
f 156 172 158
f 158 172 120
f 120 160 158
f 120 162 160
f 45 162 120
f 45 147 162
f 56 147 45
f 44 56 45
f 44 45 46
f 45 120 46
f 46 120 121
f 46 121 48
f 48 121 50
f 50 121 122
f 50 122 51
f 48 50 49
f 47 46 48
f 115 100 99
f 98 99 100
f 97 99 98
f 116 99 97
f 116 97 117
f 117 97 95
f 117 95 118
f 118 95 94
f 118 94 119
f 94 114 119
f 91 114 94
f 93 91 94
f 92 91 93
f 90 91 92
f 90 89 91
f 77 89 90
f 90 104 77
f 104 79 77
f 106 79 104
f 106 81 79
f 80 79 81
f 78 79 80
f 80 189 78
f 80 188 189
f 82 188 80
f 82 187 188
f 84 187 82
f 84 186 187
f 86 186 84
f 84 85 86
f 86 85 87
f 86 87 75
f 75 87 88
f 124 88 87
f 124 62 88
f 88 62 64
f 88 64 67
f 64 68 67
f 64 71 68
f 69 68 71
f 69 71 72
f 72 71 73
f 72 73 74
f 74 73 64
f 74 64 65
f 65 180 74
f 74 180 181
f 65 179 180
f 65 244 179
f 179 244 240
f 64 61 65
f 61 243 65
f 65 243 244
f 61 174 243
f 63 174 61
f 61 62 63
f 62 8 63
f 63 8 175
f 63 175 176
f 176 177 63
f 63 177 178
f 63 178 173
f 173 174 63
f 74 181 72
f 72 181 182
f 72 182 69
f 69 182 183
f 69 183 70
f 70 183 184
f 70 184 75
f 75 184 185
f 66 70 75
f 69 70 66
f 66 68 69
f 73 71 64
f 66 67 68
f 66 88 67
f 62 61 64
f 124 8 62
f 9 8 124
f 75 88 66
f 75 185 86
f 87 85 124
f 124 85 83
f 124 83 106
f 124 106 10
f 84 83 85
f 86 185 186
f 82 83 84
f 82 81 83
f 78 189 112
f 78 112 76
f 76 112 113
f 76 113 89
f 89 113 114
f 76 77 78
f 80 81 82
f 83 81 106
f 78 77 79
f 77 76 89
f 92 104 90
f 92 101 104
f 93 101 92
f 93 98 101
f 96 98 93
f 93 95 96
f 89 114 91
f 93 94 95
f 96 95 97
f 96 97 98
f 115 99 116
f 98 100 101
f 101 103 104
f 104 105 106
f 10 106 108
f 58 146 60
f 148 55 146
f 44 55 56
f 37 43 38
f 42 38 43
f 37 38 41
f 41 36 37
f 38 40 41
f 44 46 47
f 47 48 49
f 49 50 51
f 51 122 53
f 52 42 43
f 53 122 123
f 39 38 42
f 38 39 40
f 41 40 36
f 36 35 37
f 32 33 34
f 54 35 59
f 59 6 57
f 32 31 33
f 30 31 32
f 30 192 193
f 28 27 29
f 24 6 27
f 24 14 6
f 18 14 24
f 19 14 18
f 26 195 25
f 25 195 196
f 15 18 24
f 25 196 16
f 15 17 18
f 200 16 196
f 198 20 199
f 18 17 19
f 198 22 20
f 197 22 198
f 21 23 19
f 197 13 22
f 197 220 13
f 13 220 241
f 19 23 14
f 6 14 1
f 6 1 7
f 7 4 6
f 7 1 3
f 7 3 165
f 3 170 165
f 3 169 170
f 168 169 3
f 3 167 168
f 166 167 3
f 3 242 166
f 2 242 3
f 4 5 6
f 124 10 9

