# https://github.com/mikedh/trimesh
v 0.00361303 -0.06340054 0.06506474
v 0.00361203 -0.05714114 0.07865559
v 0.00361194 -0.05714103 0.07260086
v 0.00361258 -0.06111173 0.06407119
v 0.00361211 -0.05863039 0.06433355
v 0.00361174 -0.05659996 0.06578380
v 0.00361157 -0.05554694 0.06804588
v 0.00361165 -0.05574436 0.07053322
v -0.04549373 -0.05715050 0.07865631
v -0.04527421 -0.05715038 0.07483335
v -0.04514340 -0.05715032 0.07260156
v -0.04411477 -0.06340963 0.06506543
v -0.04421626 -0.06187708 0.06425013
v -0.04427851 -0.06112053 0.06407184
v -0.04513319 -0.05611517 0.07133052
v -0.04507502 -0.05555732 0.06979028
v -0.04510762 -0.05575358 0.07053374
v -0.04470313 -0.05707568 0.06529576
v -0.04476578 -0.05660929 0.06578436
v -0.04485142 -0.05606320 0.06659415
v -0.04497810 -0.05553855 0.06815103
v -0.04465691 -0.05744623 0.06498965
v -0.04451912 -0.05863819 0.06433477
v -0.04435658 -0.06025338 0.06401692
v -0.04411867 -0.06333551 0.06500833
f 9 2 10
f 10 2 3
f 10 3 11
f 11 3 15
f 15 3 8
f 8 17 15
f 8 16 17
f 7 16 8
f 7 21 16
f 7 20 21
f 6 20 7
f 6 19 20
f 18 19 6
f 18 6 22
f 22 6 5
f 22 5 23
f 5 24 23
f 5 14 24
f 4 14 5
f 13 14 4
f 4 25 13
f 4 12 25
f 1 12 4

