# https://github.com/mikedh/trimesh
v 0.01439535 0.00212406 0.03579983
v 0.01510739 0.00076801 0.03579979
v 0.01510768 -0.00076361 0.03579977
v 0.00916678 0.00148818 0.03579989
v 0.00880052 0.00000100 0.03579987
v 0.00916735 -0.00148605 0.03579984
v 0.01018221 0.00263481 0.03579990
v 0.01161420 0.00317820 0.03579989
v 0.01313469 0.00299388 0.03579986
v 0.01439616 -0.00211993 0.03579975
v 0.01313583 -0.00299023 0.03579975
v 0.01161541 -0.00317513 0.03579977
v 0.01018322 -0.00263229 0.03579980
v 0.01465719 -0.00139210 0.03799976
v 0.01491352 -0.00071583 0.03799977
v 0.01381941 -0.00104809 0.03799978
v 0.01410055 0.00000197 0.03799979
v 0.01424647 -0.00198737 0.03799976
v 0.01305090 -0.00181689 0.03799978
v 0.01370522 -0.00246706 0.03799975
v 0.01095090 -0.00181729 0.03799981
v 0.01018210 -0.00104878 0.03799983
v 0.00975540 -0.00198823 0.03799982
v 0.01029589 0.00247019 0.03799990
v 0.00975464 0.00199051 0.03799990
v 0.01095021 0.00182002 0.03799988
v 0.01018170 0.00105122 0.03799987
v 0.01500055 0.00000214 0.03799978
v 0.01491324 0.00072007 0.03799980
v 0.01381901 0.00105191 0.03799982
v 0.01029683 -0.00246771 0.03799981
v 0.01093727 -0.00280369 0.03799979
v 0.01200095 -0.00209843 0.03799979
v 0.00934392 0.00139523 0.03799989
v 0.00908759 0.00071896 0.03799988
v 0.00990055 0.00000117 0.03799986
v 0.01200015 0.00210157 0.03799986
v 0.01163838 0.00297962 0.03799989
v 0.01093621 0.00280641 0.03799989
v 0.01305021 0.00182042 0.03799985
v 0.01306383 0.00280682 0.03799986
v 0.01236160 0.00297976 0.03799988
v 0.01465666 0.00139624 0.03799981
v 0.01424571 0.00199136 0.03799983
v 0.01370428 0.00247084 0.03799985
v 0.01163951 -0.00297663 0.03799978
v 0.01236273 -0.00297649 0.03799976
v 0.01306490 -0.00280328 0.03799976
v 0.00900055 0.00000099 0.03799987
v 0.00908787 -0.00071694 0.03799985
v 0.00934445 -0.00139311 0.03799984
v 0.00889368 -0.00076483 0.03779985
v 0.00960572 -0.00212088 0.03779982
v 0.00916738 -0.00148608 0.03779984
v 0.01086639 -0.00299070 0.03779978
v 0.01018324 -0.00263232 0.03779980
v 0.01238687 -0.00317502 0.03779976
v 0.01161544 -0.00317517 0.03779977
v 0.01381886 -0.00263163 0.03779975
v 0.01313586 -0.00299027 0.03779975
v 0.01483429 -0.00148500 0.03779975
v 0.01439619 -0.00211997 0.03779975
v 0.01520055 0.00000218 0.03779978
v 0.01510771 -0.00076365 0.03779976
v 0.01483373 0.00148922 0.03779981
v 0.01510742 0.00076797 0.03779979
v 0.01381786 0.00263546 0.03779985
v 0.01439538 0.00212402 0.03779983
v 0.01238566 0.00317831 0.03779988
v 0.01313472 0.00299384 0.03779987
v 0.01086525 0.00299341 0.03779990
v 0.01161423 0.00317816 0.03779989
v 0.00960491 0.00212311 0.03779990
v 0.01018224 0.00263477 0.03779990
v 0.00880055 0.00000096 0.03779987
v 0.00889339 0.00076679 0.03779988
v 0.00916681 0.00148814 0.03779989
v 0.01501033 0.00074402 0.03797300
v 0.01474519 0.00144273 0.03797302
v 0.01432055 0.00205769 0.03797304
v 0.01376107 0.00255315 0.03797305
v 0.01309928 0.00290033 0.03797307
v 0.01237363 0.00307904 0.03797308
v 0.01162630 0.00307889 0.03797309
v 0.01090073 0.00289991 0.03797310
v 0.01023907 0.00255248 0.03797310
v 0.00967978 0.00205680 0.03797310
v 0.00925537 0.00144169 0.03797310
v 0.00899049 0.00074287 0.03797309
v 0.00890055 0.00000098 0.03797308
v 0.00899077 -0.00074089 0.03797306
v 0.00925591 -0.00143960 0.03797304
v 0.00968056 -0.00205456 0.03797302
v 0.01024004 -0.00255002 0.03797301
v 0.01090183 -0.00289719 0.03797299
v 0.01162748 -0.00307590 0.03797298
v 0.01237480 -0.00307576 0.03797296
v 0.01310038 -0.00289677 0.03797296
v 0.01376204 -0.00254935 0.03797296
v 0.01432133 -0.00205367 0.03797296
v 0.01474574 -0.00143855 0.03797296
v 0.01501061 -0.00073974 0.03797297
v 0.01510055 0.00000216 0.03797298
v 0.01508141 0.00076155 0.03789979
v 0.01481000 0.00147677 0.03789981
v 0.01437533 0.00210624 0.03789983
v 0.01380264 0.00261341 0.03789985
v 0.01312522 0.00296878 0.03789986
v 0.01238244 0.00315171 0.03789988
v 0.01161746 0.00315156 0.03789989
v 0.01087475 0.00296835 0.03789990
v 0.01019747 0.00261272 0.03789990
v 0.00962497 0.00210534 0.03789990
v 0.00919054 0.00147569 0.03789989
v 0.00891941 0.00076038 0.03789989
v 0.00882735 0.00000096 0.03789987
v 0.00891970 -0.00075842 0.03789986
v 0.00919110 -0.00147363 0.03789984
v 0.00962578 -0.00210311 0.03789982
v 0.01019846 -0.00261027 0.03789980
v 0.01087588 -0.00296564 0.03789978
v 0.01161866 -0.00314857 0.03789977
v 0.01238364 -0.00314843 0.03789976
v 0.01312635 -0.00296522 0.03789975
v 0.01380364 -0.00260958 0.03789975
v 0.01437613 -0.00210220 0.03789975
v 0.01481057 -0.00147256 0.03789975
v 0.01508169 -0.00075724 0.03789977
v 0.01517376 0.00000217 0.03789978
f 14 15 16
f 14 16 18
f 18 101 14
f 14 101 102
f 101 128 102
f 102 128 129
f 102 129 103
f 15 102 103
f 15 103 28
f 15 28 17
f 17 28 29
f 17 29 30
f 29 43 30
f 30 43 44
f 30 44 40
f 40 44 45
f 44 81 45
f 45 81 82
f 45 82 41
f 41 82 83
f 82 109 83
f 83 109 110
f 83 110 84
f 84 110 111
f 110 71 111
f 111 71 74
f 111 74 112
f 112 74 73
f 7 73 74
f 4 73 7
f 4 77 73
f 113 73 77
f 113 77 114
f 87 113 114
f 87 114 88
f 88 114 115
f 114 76 115
f 115 76 75
f 5 75 76
f 5 76 4
f 52 75 5
f 116 75 52
f 116 52 117
f 90 116 117
f 90 117 91
f 49 90 91
f 35 90 49
f 35 49 36
f 36 49 50
f 36 50 22
f 22 50 51
f 22 51 23
f 51 93 23
f 23 93 94
f 23 94 31
f 31 94 95
f 94 121 95
f 95 121 122
f 95 122 96
f 96 122 123
f 122 57 123
f 123 57 60
f 11 60 57
f 11 59 60
f 10 59 11
f 10 62 59
f 125 59 62
f 125 62 126
f 99 125 126
f 99 126 100
f 100 126 127
f 126 61 127
f 127 61 64
f 127 64 128
f 128 64 63
f 3 63 64
f 2 63 3
f 2 66 63
f 2 65 66
f 104 66 65
f 129 66 104
f 104 65 105
f 78 104 105
f 78 105 79
f 29 78 79
f 79 105 106
f 79 106 80
f 80 106 107
f 106 67 107
f 107 67 70
f 107 70 108
f 108 70 69
f 9 69 70
f 8 69 9
f 8 72 69
f 109 69 72
f 8 71 72
f 7 71 8
f 108 69 109
f 81 107 108
f 9 70 67
f 9 67 1
f 1 67 68
f 1 68 65
f 106 68 67
f 80 107 81
f 43 79 80
f 105 68 106
f 103 104 78
f 105 65 68
f 1 65 2
f 129 63 66
f 3 64 61
f 3 61 10
f 100 127 101
f 20 99 100
f 20 100 18
f 18 19 20
f 19 48 20
f 19 47 48
f 47 98 48
f 48 98 99
f 47 97 98
f 46 97 47
f 46 96 97
f 32 96 46
f 32 46 33
f 21 32 33
f 21 31 32
f 33 46 47
f 97 124 98
f 98 124 125
f 97 123 124
f 33 47 19
f 48 99 20
f 98 125 99
f 126 62 61
f 124 59 125
f 10 61 62
f 124 60 59
f 11 57 12
f 12 57 58
f 12 58 55
f 12 55 13
f 13 55 56
f 120 56 55
f 119 56 120
f 119 53 56
f 118 53 119
f 92 118 119
f 91 118 92
f 50 91 92
f 92 119 93
f 118 54 53
f 6 53 54
f 6 54 52
f 13 53 6
f 117 54 118
f 93 119 120
f 120 55 121
f 13 56 53
f 121 55 58
f 123 60 124
f 122 58 57
f 96 123 97
f 32 95 96
f 121 58 122
f 94 120 121
f 31 95 32
f 23 31 21
f 93 120 94
f 51 92 93
f 21 22 23
f 50 92 51
f 27 35 36
f 27 34 35
f 34 89 35
f 34 88 89
f 25 88 34
f 25 34 27
f 26 25 27
f 24 25 26
f 26 39 24
f 26 38 39
f 37 38 26
f 37 42 38
f 37 41 42
f 40 41 37
f 42 84 38
f 38 84 85
f 38 85 39
f 39 85 86
f 85 112 86
f 86 112 113
f 39 86 24
f 24 86 87
f 24 87 25
f 35 89 90
f 49 91 50
f 91 117 118
f 89 116 90
f 89 115 116
f 117 52 54
f 52 5 6
f 115 75 116
f 88 115 89
f 25 87 88
f 86 113 87
f 114 77 76
f 4 76 77
f 112 73 113
f 85 111 112
f 7 74 71
f 110 72 71
f 84 111 85
f 42 83 84
f 109 72 110
f 82 108 109
f 41 83 42
f 81 108 82
f 44 80 81
f 40 45 41
f 43 80 44
f 29 79 43
f 28 78 29
f 28 103 78
f 103 129 104
f 128 63 129
f 101 127 128
f 18 100 101
f 18 16 19
f 14 102 15
f 16 15 17

