# https://github.com/mikedh/trimesh
v 0.00361296 -0.06740554 0.00796192
v 0.00361251 -0.06510319 0.00767465
v 0.00361233 -0.06414913 0.00756018
v 0.00361233 -0.06415980 0.00756132
v 0.00361211 -0.06323384 0.00447970
v 0.00361227 -0.06422717 0.00252157
v 0.00361227 -0.06421644 0.00252032
v 0.00361242 -0.06485792 0.00464437
v 0.00361242 -0.06484722 0.00464322
v 0.00361227 -0.06405015 0.00456178
v 0.00361227 -0.06404059 0.00456075
v 0.00361219 -0.06364734 0.00452113
v 0.00361219 -0.06363724 0.00452005
v 0.00361215 -0.06344594 0.00450095
v 0.00361211 -0.06324451 0.00448085
f 1 2 3
f 3 2 4
f 3 4 5
f 15 5 4
f 14 5 15
f 14 13 5
f 12 13 14
f 12 11 13
f 10 11 12
f 10 9 11
f 8 9 10
f 8 7 9
f 6 7 8

