# https://github.com/mikedh/trimesh
v 0.02759437 0.08620008 0.14328791
v 0.02759440 0.08620004 0.14503577
v -0.00505165 0.08619394 0.13906065
v -0.00505159 0.08619386 0.14325456
v -0.00505168 0.08619397 0.13728063
v -0.00505165 0.08619394 0.13904135
v -0.00505159 0.08619386 0.14327484
v -0.00505156 0.08619382 0.14503625
v -0.00040599 0.08619480 0.14034936
v 0.00020330 0.08619493 0.13974005
v 0.00103561 0.08619509 0.13951702
v -0.00062900 0.08619474 0.14118169
v -0.00040597 0.08619477 0.14201400
v 0.00020334 0.08619487 0.14262329
v 0.00103566 0.08619503 0.14284630
v 0.00803561 0.08619642 0.13951692
v 0.00720330 0.08619626 0.13973995
v 0.00659401 0.08619613 0.14034927
v 0.00637100 0.08619607 0.14118159
v 0.00659403 0.08619610 0.14201391
v 0.00720334 0.08619621 0.14262320
v 0.00803566 0.08619636 0.14284620
v 0.01503561 0.08619776 0.13951682
v 0.01420330 0.08619759 0.13973986
v 0.01359401 0.08619747 0.14034916
v 0.01337100 0.08619741 0.14118148
v 0.01359403 0.08619744 0.14201380
v 0.01420334 0.08619754 0.14262310
v 0.01503566 0.08619770 0.14284609
v 0.02059400 0.08619880 0.14034906
v 0.02120330 0.08619893 0.13973975
v 0.02203561 0.08619909 0.13951671
v 0.02037100 0.08619874 0.14118138
v 0.02059403 0.08619877 0.14201370
v 0.02120334 0.08619887 0.14262299
v 0.02203566 0.08619903 0.14284600
v 0.02759431 0.08620016 0.13902780
v 0.02759429 0.08620019 0.13728015
v 0.01601920 0.09319797 0.13815826
v 0.01601919 0.09319799 0.13715826
v 0.02151920 0.09319901 0.13815819
v 0.02151919 0.09319904 0.13715819
v 0.01503587 0.08619765 0.14503595
v 0.01589845 0.08619782 0.14503595
v 0.00044937 0.08619487 0.14503618
v 0.00089845 0.08619496 0.14503616
v 0.00101931 0.09319498 0.14515848
v 0.01601931 0.09319784 0.14515826
v 0.00651931 0.09319603 0.14515840
v 0.00664282 0.08619605 0.14503609
v 0.00803605 0.08619632 0.14503606
v 0.01153569 0.08619699 0.14503601
v 0.00101929 0.09319500 0.14415848
v 0.00651929 0.09319605 0.14415839
v 0.00036821 0.08619490 0.14325926
v 0.01601929 0.09319785 0.14415826
v 0.02151929 0.09319890 0.14415818
v 0.00651921 0.09319616 0.13815840
v 0.00101921 0.09319511 0.13815849
v 0.00651919 0.09319618 0.13715839
v 0.00101919 0.09319513 0.13715848
v 0.02286798 0.08619919 0.14262296
v 0.02347727 0.08619932 0.14201365
v 0.02370028 0.08619937 0.14118133
v 0.02347725 0.08619935 0.14034902
v 0.02286794 0.08619925 0.13973972
v 0.01586798 0.08619785 0.14262307
v 0.01647727 0.08619799 0.14201376
v 0.01670028 0.08619804 0.14118144
v 0.01647725 0.08619802 0.14034912
v 0.01586794 0.08619791 0.13973983
v 0.00886798 0.08619652 0.14262317
v 0.00947727 0.08619665 0.14201386
v 0.00970028 0.08619671 0.14118154
v 0.00947725 0.08619668 0.14034922
v 0.00886794 0.08619658 0.13973993
v 0.00186798 0.08619519 0.14262328
v 0.00247727 0.08619532 0.14201397
v 0.00270028 0.08619537 0.14118163
v 0.00247725 0.08619535 0.14034933
v 0.00186794 0.08619525 0.13974003
v 0.02263643 0.08619913 0.14327857
v 0.02301144 0.08619921 0.14307424
v 0.02342132 0.08619929 0.14279716
v 0.02387810 0.08619939 0.14224623
v 0.02412648 0.08619945 0.14157544
v 0.02413865 0.08619946 0.14085913
v 0.02391313 0.08619943 0.14018027
v 0.02347564 0.08619937 0.13961419
v 0.02327941 0.08619933 0.13945399
v 0.02296666 0.08619927 0.13926698
v 0.02249517 0.08619919 0.13903724
v 0.02511540 0.08619960 0.14328159
v 0.02497721 0.08619966 0.13903432
v 0.01589835 0.08619794 0.13828032
v 0.02164273 0.08619904 0.13828023
v 0.01589834 0.08619796 0.13728032
v 0.02164271 0.08619906 0.13728023
v 0.00664273 0.08619618 0.13828045
v 0.00664271 0.08619620 0.13728045
v 0.00089836 0.08619509 0.13828054
v 0.00453560 0.08619578 0.13828048
v 0.00089834 0.08619510 0.13728054
v 0.01503576 0.08619780 0.13728033
v 0.00044926 0.08619502 0.13728054
v 0.00803594 0.08619647 0.13728043
v 0.01153558 0.08619713 0.13728037
v 0.00089844 0.08619498 0.14403616
v 0.00664281 0.08619607 0.14403608
v 0.00453568 0.08619567 0.14403611
v 0.01589844 0.08619784 0.14403595
v 0.02164281 0.08619893 0.14403586
v 0.02164282 0.08619891 0.14503586
v 0.00044934 0.08619491 0.14327475
v 0.01357353 0.08619747 0.13963801
v 0.01375867 0.08619751 0.13948156
v 0.01320996 0.08619735 0.14227058
v 0.01308500 0.08619734 0.14202592
v 0.01295253 0.08619732 0.14160414
v 0.01293005 0.08619733 0.14089113
v 0.01314505 0.08619738 0.14020972
v 0.01367384 0.08619744 0.14281458
v 0.01444780 0.08619757 0.14327146
v 0.01503585 0.08619769 0.14305569
v 0.01652787 0.08619798 0.14269973
v 0.01694641 0.08619807 0.14212067
v 0.01714957 0.08619812 0.14143561
v 0.01711473 0.08619813 0.14072302
v 0.01684574 0.08619809 0.14006105
v 0.01637281 0.08619801 0.13952543
v 0.01553139 0.08619786 0.13904315
v 0.01503579 0.08619776 0.13928333
v 0.01503579 0.08619776 0.13904105
v 0.00657942 0.08619615 0.13964191
v 0.00676255 0.08619618 0.13948727
v 0.00621497 0.08619603 0.14226560
v 0.00667692 0.08619610 0.14280821
v 0.00745101 0.08619624 0.14326540
v 0.00608995 0.08619601 0.14202012
v 0.00595890 0.08619599 0.14160118
v 0.00593703 0.08619600 0.14089049
v 0.00615187 0.08619605 0.14021145
v 0.00803602 0.08619636 0.14305580
v 0.00997988 0.08619678 0.14032987
v 0.00952290 0.08619665 0.14269567
v 0.00994044 0.08619674 0.14211872
v 0.01014334 0.08619679 0.14143600
v 0.01010903 0.08619680 0.14072575
v 0.00803597 0.08619643 0.13928342
v 0.00852829 0.08619653 0.13904910
v 0.00937027 0.08619668 0.13953170
v 0.00984132 0.08619676 0.14006583
v 0.00313925 0.08619545 0.14141715
v 0.00294277 0.08619540 0.14209987
v 0.00044929 0.08619498 0.13928354
v 0.00193838 0.08619527 0.13926654
v 0.00235159 0.08619534 0.13952437
v 0.00282611 0.08619542 0.14005311
v 0.00295533 0.08619544 0.14029056
v 0.00309886 0.08619546 0.14070898
v -0.00024749 0.08619484 0.13945699
v -0.00038296 0.08619482 0.13956651
v -0.00074570 0.08619474 0.13997860
v -0.00086783 0.08619472 0.14018291
v -0.00035418 0.08619476 0.14282173
v -0.00052754 0.08619473 0.14265725
v -0.00092783 0.08619466 0.14205606
v -0.00110667 0.08619465 0.14135636
v -0.00104365 0.08619467 0.14063700
v 0.00453567 0.08619568 0.14327469
v 0.00803603 0.08619636 0.14327465
v 0.01503585 0.08619768 0.14327455
v 0.01562387 0.08619780 0.14327249
v 0.02145335 0.08619891 0.14327754
v 0.02106504 0.08619884 0.14307752
v 0.02109767 0.08619892 0.13926880
v 0.01994605 0.08619865 0.14159453
v 0.01992698 0.08619867 0.14088060
v 0.02014546 0.08619872 0.14019953
v 0.02057710 0.08619881 0.13962927
v 0.02075975 0.08619884 0.13947612
v 0.02066253 0.08619877 0.14280996
v 0.02020058 0.08619869 0.14226301
v 0.02154552 0.08619901 0.13903804
v 0.00803597 0.08619643 0.13904116
v 0.00453561 0.08619577 0.13904122
v 0.00044928 0.08619498 0.13904127
v 0.00152760 0.08619519 0.13905506
v 0.00049048 0.08619499 0.13905594
v 0.00044828 0.08619498 0.13907649
v 0.01454018 0.08619767 0.13904399
v 0.01153561 0.08619710 0.13904111
v 0.01637015 0.08619795 0.14283985
v 0.01153567 0.08619702 0.14327459
v 0.00862109 0.08619646 0.14326641
v 0.00754364 0.08619634 0.13904993
v 0.00936661 0.08619662 0.14283444
v 0.00162064 0.08619513 0.14326034
v 0.00044934 0.08619491 0.14305590
v 0.00253128 0.08619531 0.14267895
v 0.00236259 0.08619528 0.14283006
f 114 45 8
f 108 45 114
f 108 114 110
f 110 114 170
f 110 170 109
f 109 170 171
f 138 171 170
f 138 170 198
f 143 171 138
f 143 195 171
f 195 194 171
f 123 194 195
f 123 172 194
f 52 194 172
f 52 172 43
f 43 172 111
f 43 111 44
f 111 172 173
f 111 173 112
f 112 173 174
f 112 174 82
f 82 174 175
f 82 175 83
f 36 83 175
f 36 175 35
f 35 175 182
f 35 182 34
f 34 182 183
f 34 183 177
f 34 177 33
f 33 177 178
f 33 178 30
f 178 179 30
f 30 179 180
f 30 180 31
f 31 180 181
f 31 181 176
f 32 31 176
f 32 176 91
f 91 176 184
f 91 184 92
f 92 184 96
f 131 96 184
f 131 95 96
f 133 95 131
f 133 97 95
f 133 104 97
f 192 104 133
f 192 107 104
f 185 107 192
f 192 150 185
f 185 150 149
f 149 150 76
f 76 16 149
f 149 16 135
f 17 135 16
f 17 134 135
f 18 134 17
f 18 142 134
f 18 141 142
f 19 141 18
f 19 140 141
f 20 140 19
f 20 139 140
f 136 139 20
f 136 20 137
f 137 20 21
f 137 21 138
f 76 150 151
f 76 151 75
f 75 151 152
f 75 152 144
f 74 75 144
f 148 74 144
f 147 74 148
f 147 73 74
f 146 73 147
f 146 72 73
f 145 72 146
f 145 197 72
f 72 197 195
f 149 135 185
f 185 135 196
f 185 196 186
f 102 185 186
f 102 186 101
f 101 186 187
f 186 188 187
f 187 188 189
f 188 156 189
f 189 156 155
f 11 155 156
f 11 156 81
f 81 156 157
f 81 157 80
f 157 158 80
f 80 158 159
f 80 159 79
f 79 159 160
f 79 160 153
f 79 153 78
f 78 153 154
f 78 154 77
f 154 200 77
f 77 200 201
f 77 201 15
f 15 201 198
f 15 198 14
f 14 198 199
f 198 114 199
f 55 199 114
f 55 114 7
f 7 4 55
f 14 199 55
f 55 165 14
f 14 165 166
f 14 166 13
f 13 166 167
f 13 167 12
f 12 167 168
f 12 168 9
f 9 168 169
f 9 169 164
f 163 9 164
f 163 10 9
f 162 10 163
f 162 155 10
f 161 155 162
f 190 155 161
f 10 155 11
f 189 155 190
f 189 3 187
f 187 3 6
f 187 6 105
f 105 6 5
f 103 187 105
f 101 187 103
f 99 185 102
f 99 106 185
f 99 100 106
f 186 196 188
f 192 191 150
f 185 106 107
f 133 191 192
f 133 116 191
f 132 116 133
f 132 23 116
f 71 23 132
f 131 71 132
f 130 71 131
f 130 70 71
f 129 70 130
f 128 70 129
f 128 69 70
f 127 69 128
f 127 68 69
f 126 68 127
f 126 67 68
f 125 67 126
f 125 193 67
f 67 193 173
f 67 173 124
f 124 29 67
f 124 28 29
f 123 28 124
f 122 28 123
f 122 27 28
f 117 27 122
f 117 118 27
f 27 118 119
f 27 119 26
f 26 119 120
f 26 120 25
f 25 120 121
f 25 121 115
f 25 115 24
f 24 115 116
f 24 116 23
f 131 132 133
f 92 96 94
f 94 96 98
f 94 98 38
f 38 37 94
f 66 32 91
f 91 90 66
f 66 90 89
f 66 89 65
f 65 89 88
f 65 88 64
f 64 88 87
f 64 87 86
f 63 64 86
f 86 85 63
f 63 85 84
f 63 84 62
f 62 84 83
f 62 83 36
f 112 82 113
f 113 82 93
f 113 93 2
f 2 93 1
f 124 173 172
f 51 194 52
f 124 172 123
f 51 171 194
f 50 171 51
f 72 195 143
f 143 22 72
f 143 21 22
f 138 21 143
f 109 171 50
f 198 170 114
f 46 45 108
f 7 114 8
f 101 59 102
f 102 59 58
f 102 58 99
f 109 54 110
f 110 54 53
f 110 53 108
f 53 54 47
f 47 54 49
f 58 59 60
f 60 59 61
f 95 39 96
f 96 39 41
f 97 40 95
f 95 40 39
f 96 41 98
f 98 41 42
f 99 58 100
f 100 58 60
f 103 61 101
f 101 61 59
f 108 53 46
f 46 53 47
f 50 49 109
f 109 49 54
f 111 56 44
f 44 56 48
f 112 57 111
f 111 57 56

