# https://github.com/mikedh/trimesh
v -0.04116460 -0.07560894 0.05853590
v -0.04115004 -0.07560894 0.05844546
v -0.04011292 -0.07310856 0.04911537
v -0.04078107 -0.07456112 0.05453549
v -0.04009737 -0.08232839 0.06525602
v -0.03966194 -0.08434457 0.06727145
v -0.03489159 -0.08434366 0.06727137
v -0.04066285 -0.07150867 0.04911540
v -0.03966670 -0.08347198 0.06528975
v -0.03948449 -0.07919782 0.05623645
v -0.03970820 -0.07878961 0.05648881
v -0.03948246 -0.07878956 0.05648881
v -0.03947886 -0.07903621 0.05691649
v -0.03967408 -0.08254458 0.06335083
v -0.03497882 -0.07903536 0.05691643
v -0.03954849 -0.07368164 0.04867527
v -0.03504846 -0.07368078 0.04867520
v -0.03957739 -0.07150839 0.04525420
v -0.03507736 -0.07150754 0.04525413
v -0.03958330 -0.07150838 0.04454443
v -0.03957231 -0.07234421 0.04584595
f 6 9 5
f 7 9 6
f 7 14 9
f 15 14 7
f 13 14 15
f 17 13 15
f 16 13 17
f 19 16 17
f 18 16 19
f 13 11 14
f 12 11 13
f 11 2 14
f 14 2 1
f 14 1 5
f 11 4 2
f 10 4 11
f 10 3 4
f 21 3 10
f 21 8 3
f 20 8 21
f 5 9 14
f 12 13 16
f 16 10 12
f 16 21 10
f 18 21 16
f 18 20 21
f 10 11 12

