# https://github.com/mikedh/trimesh
v -0.00663134 0.09398606 0.11125471
v -0.00746628 0.09399399 0.11177725
v -0.00746635 0.09399409 0.10683998
v -0.00663139 0.09398613 0.10736249
v -0.00645860 0.08419427 0.10780285
v -0.00732347 0.08419411 0.10708915
v -0.00842798 0.08419391 0.10682951
v -0.00842984 0.09398311 0.10665882
v -0.01098697 0.09384901 0.10862313
v -0.01072290 0.09386995 0.10798474
v -0.01057478 0.08419348 0.10806901
v -0.00975430 0.09393273 0.10701460
v -0.00966744 0.08419366 0.10716164
v -0.00911659 0.09396210 0.10674975
v -0.01107712 0.09384148 0.10930867
v -0.01090688 0.08419339 0.10930848
v -0.01098681 0.09384900 0.10999474
v -0.01057475 0.08419342 0.11054794
v -0.01072286 0.09386989 0.11063258
v -0.00966738 0.08419358 0.11145529
v -0.00975423 0.09393265 0.11160269
v -0.00911490 0.09396206 0.11186797
v -0.00842790 0.08419381 0.11178739
v -0.00842977 0.09398301 0.11195844
v -0.00645856 0.08419421 0.11081400
v -0.00732341 0.08419403 0.11152771
f 3 4 5
f 5 6 3
f 3 6 7
f 3 7 8
f 7 14 8
f 13 14 7
f 13 12 14
f 11 12 13
f 11 10 12
f 9 10 11
f 9 11 15
f 15 11 16
f 15 16 17
f 17 16 18
f 17 18 19
f 19 18 20
f 19 20 21
f 21 20 22
f 22 20 23
f 22 23 24
f 24 23 26
f 24 26 2
f 2 26 25
f 2 25 1

