# https://github.com/mikedh/trimesh
v 0.00940064 0.00000097 0.04345987
v 0.01200113 -0.00259854 0.04345978
v 0.01070106 -0.00225045 0.04345979
v 0.00974922 -0.00129897 0.04345985
v 0.00974872 0.00130103 0.04345990
v 0.01070020 0.00225288 0.04345987
v 0.01200014 0.00260146 0.04345988
v 0.01330020 0.00225338 0.04345984
v 0.01425205 0.00130189 0.04345981
v 0.01460063 0.00000196 0.04345979
v 0.01425255 -0.00129811 0.04345976
v 0.01330106 -0.00224996 0.04345975
v 0.01200109 -0.00259848 0.04045977
v 0.01070102 -0.00225039 0.04045981
v 0.00974918 -0.00129891 0.04045984
v 0.00940059 0.00000102 0.04045986
v 0.00974868 0.00130109 0.04045989
v 0.01070016 0.00225294 0.04045990
v 0.01200010 0.00260152 0.04045987
v 0.01330017 0.00225343 0.04045986
v 0.01425200 0.00130195 0.04045980
v 0.01460059 0.00000201 0.04045978
v 0.01425250 -0.00129805 0.04045976
v 0.01330102 -0.00224990 0.04045977
f 22 10 21
f 21 10 9
f 21 9 20
f 20 9 8
f 20 8 19
f 19 8 7
f 19 7 18
f 18 7 6
f 18 6 17
f 17 6 5
f 17 5 16
f 16 5 1
f 16 1 15
f 15 1 4
f 15 4 14
f 14 4 3
f 14 3 13
f 13 3 2
f 13 2 24
f 24 2 12
f 24 12 23
f 23 12 11
f 23 11 22
f 22 11 10

