# https://github.com/mikedh/trimesh
v -0.05349649 0.02141367 0.00464960
v -0.05361592 0.03651449 0.00525940
v -0.05060225 0.03651449 0.00525940
v -0.04191961 0.06593592 0.00777961
v -0.04192309 0.06241025 0.00736068
v -0.04407853 0.06494947 0.00765841
v -0.04418044 0.06105846 0.00720954
v -0.04867980 0.05560383 0.00665222
v -0.05188744 0.05603075 0.00669245
v -0.04758576 0.05750872 0.00683764
v -0.05094835 0.05802736 0.00688980
v -0.04651545 0.05890706 0.00697993
v -0.04881321 0.06113918 0.00721782
v -0.04582211 0.05965167 0.00705791
v -0.04786828 0.06215152 0.00733089
v -0.04509504 0.06435418 0.00758706
v -0.04914835 0.05454324 0.00655305
v -0.04963053 0.05317825 0.00642958
v -0.05308005 0.05197199 0.00632427
v -0.05021850 0.05069615 0.00621670
v -0.05357408 0.04772125 0.00597942
v -0.05042255 0.04923758 0.00609843
v -0.05362445 0.04594916 0.00584943
v -0.05061385 0.04552445 0.00582026
v -0.05362589 0.04579690 0.00583850
v -0.05362657 0.04566228 0.00582882
v -0.05363398 0.04277827 0.00563136
v -0.05052226 0.02609004 0.00479817
v -0.05041667 0.01305054 0.00446438
v -0.05338088 0.00076340 0.00436149
v -0.05036698 0.00076340 0.00436149
v -0.05338006 0.00000321 0.00436116
v -0.05036677 0.00000291 0.00436116
v -0.05339391 -0.00575192 0.00438055
v -0.05355012 -0.02783646 0.00486273
v -0.05046570 -0.01945464 0.00459735
v -0.05057462 -0.03249009 0.00505922
v -0.05361345 -0.03730620 0.00530255
v -0.05060669 -0.03730626 0.00530256
v -0.05362622 -0.04564388 0.00582733
v -0.05061381 -0.04551698 0.00582007
v -0.05362592 -0.04578452 0.00583793
v -0.05304271 -0.05215167 0.00634011
v -0.05358945 -0.04731913 0.00595061
v -0.05362457 -0.04593010 0.00584839
v -0.05038911 -0.04952036 0.00612134
v -0.05021827 -0.05069067 0.00621662
v -0.05198349 -0.05578314 0.00666973
v -0.04960426 -0.05325602 0.00643688
v -0.04867926 -0.05559821 0.00665214
v -0.05093545 -0.05804391 0.00689205
v -0.04830408 -0.05632423 0.00672171
v -0.05034579 -0.05905204 0.00699562
v -0.04730153 -0.05790870 0.00687837
v -0.04808288 -0.06192984 0.00730702
v -0.04192309 -0.06240357 0.00736058
v -0.04191961 -0.06592874 0.00777943
v -0.04351904 -0.06150760 0.00725983
v -0.04525761 -0.06424294 0.00757472
v -0.04516847 -0.06025819 0.00712325
v -0.04582211 -0.05964501 0.00705785
v -0.04194910 0.06133345 0.00423063
v -0.04330456 0.06052035 0.00414142
v -0.04543053 0.05877237 0.00395645
v -0.04576381 0.05843107 0.00392139
v -0.04692990 0.05703865 0.00378176
v -0.04832294 0.05475567 0.00356438
v -0.04858058 0.05421062 0.00351453
v -0.04968679 0.05087893 0.00322608
v -0.05022363 0.04725431 0.00294239
v -0.05032945 0.04441391 0.00274087
v -0.05028593 0.03249215 0.00207094
v -0.05017472 0.01918598 0.00161054
v -0.04194910 -0.06132679 0.00423053
v -0.04355970 -0.06033726 0.00412225
v -0.04543119 -0.05876504 0.00395631
v -0.04598701 -0.05818327 0.00389675
v -0.04708266 -0.05682151 0.00376106
v -0.04832326 -0.05474837 0.00356426
v -0.04870385 -0.05392279 0.00348905
v -0.04928727 -0.05234317 0.00334997
v -0.04989102 -0.04987727 0.00314508
v -0.05009042 -0.04856814 0.00304215
v -0.05022352 -0.04724954 0.00294245
v -0.05032941 -0.04441066 0.00274102
v -0.05023589 -0.02634986 0.00182417
v -0.05012798 -0.01304077 0.00148698
v -0.05007804 0.00000288 0.00138504
v -0.05401505 0.05577104 0.01737159
v -0.05557722 0.05377746 0.02994610
v -0.05575978 0.05479623 0.03266809
v -0.05534650 0.05839990 0.03137481
v -0.05381214 0.04637296 0.00787855
v -0.05454137 0.04916041 0.01634312
v -0.05109835 0.05876914 0.00899721
v -0.04697410 0.06307164 0.00771902
v -0.04714454 0.06514639 0.01450960
v -0.04175948 0.07155025 0.02704563
v -0.04181513 0.06969768 0.02034954
v -0.04378656 0.07078730 0.02729868
v -0.04187373 0.06754877 0.01329909
v -0.04752081 0.06885058 0.02792032
v -0.05485764 0.06023802 0.03073118
v -0.05439255 0.06142652 0.03032423
v -0.05299096 0.05849561 0.01649671
v -0.05294088 0.06392848 0.02949066
v -0.05146667 0.06101617 0.01572032
v -0.05067498 0.06645629 0.02867777
v -0.04949299 0.06325267 0.01505614
v -0.05605770 0.05681331 0.03756141
v -0.05495188 0.06212994 0.03543193
v -0.05543789 0.06259103 0.04068127
v -0.05631765 0.05882756 0.04245234
v -0.05250648 0.06605607 0.03387029
v -0.04556232 0.07117191 0.03173637
v -0.04873001 0.06935164 0.03252432
v -0.04589538 0.07244110 0.03584976
v -0.04169332 0.07405451 0.03500488
v -0.04172668 0.07267791 0.03099193
v -0.04924964 0.07048954 0.03684590
v -0.05167703 0.06849106 0.03784557
v -0.05489805 0.06394970 0.04003904
v -0.05398430 0.06564973 0.03922827
v -0.05196999 0.06819777 0.03799027
v -0.04971227 0.08592974 0.06545480
v -0.04722422 0.08777137 0.06467355
v -0.04658211 0.08304717 0.05474516
v -0.05112202 0.08794190 0.07942937
v -0.04897656 0.09042732 0.08116763
v -0.04891307 0.08978678 0.07558002
v -0.05311617 0.08452263 0.07693326
v -0.05179872 0.08373474 0.06637073
v -0.05462395 0.08052114 0.07362019
v -0.05478874 0.07853851 0.06851370
v -0.05553370 0.07661045 0.06983645
v -0.05517170 0.07065393 0.05516815
v -0.05643709 0.06698598 0.05800306
v -0.05467626 0.07418653 0.05872599
v -0.05611199 0.07228728 0.06493328
v -0.05139644 0.07922499 0.05647676
v -0.05073395 0.07596733 0.04997699
v -0.05137320 0.07548475 0.05053554
v -0.05173149 0.07518758 0.05086704
v -0.05351899 0.07332523 0.05277863
v -0.05442481 0.07202841 0.05398191
v -0.04539564 0.07845020 0.04646901
v -0.04709831 0.07788648 0.04741018
v -0.04161186 0.07922392 0.04480597
v -0.04158883 0.08109148 0.04757694
v -0.04366579 0.08438691 0.05413055
v -0.04704800 0.08982347 0.06973913
v -0.04142443 0.09171678 0.06735723
v -0.04435956 0.08921559 0.06404217
v -0.04147920 0.08884335 0.06076658
v -0.04152183 0.08612566 0.05563808
v -0.04703938 0.09204088 0.08232147
v -0.04498116 0.09331690 0.08328328
v -0.04642810 0.09154594 0.07487164
v -0.04128122 0.09483841 0.08458725
v -0.04358848 0.09290901 0.07428318
v -0.04133076 0.09438282 0.07862661
v -0.04137801 0.09341113 0.07294136
v -0.04866684 0.07720082 0.04840920
v -0.04917252 0.08131504 0.05553292
v -0.05101829 0.08766985 0.07639959
v -0.05274379 0.08525294 0.07731589
v -0.05475897 0.06769499 0.04780129
v -0.05648827 0.06416771 0.05351755
v -0.05642034 0.06045134 0.04604172
v -0.05154869 0.07220648 0.04554303
v -0.04692998 0.07568055 0.04379028
v -0.04166124 0.07572621 0.03886536
v -0.04161961 0.07860428 0.04387386
v -0.05044607 0.04487087 0.00399531
v -0.04096578 -0.09687711 0.12253956
v -0.04096598 -0.09687521 0.12251494
v -0.04096985 -0.09685139 0.12204977
v -0.04100563 -0.09662201 0.11774523
v -0.04126567 -0.09493507 0.08645826
v -0.04128122 -0.09483229 0.08458722
v -0.04697079 -0.06306694 0.00771830
v -0.05109683 -0.05876423 0.00899652
v -0.05565390 -0.05619775 0.03215883
v -0.05575978 -0.05478989 0.03266809
v -0.05492469 -0.05067162 0.02109076
v -0.05381248 -0.04636656 0.00787850
v -0.05299009 -0.05849026 0.01649614
v -0.05401470 -0.05576517 0.01737117
v -0.05485740 -0.06023170 0.03073113
v -0.05504319 -0.05963926 0.03093676
v -0.05436208 -0.04849614 0.01420446
v -0.05386871 -0.06246664 0.02997061
v -0.05146506 -0.06101121 0.01571965
v -0.05191266 -0.06519450 0.02907805
v -0.04949051 -0.06324790 0.01505546
v -0.04910258 -0.06775691 0.02826425
v -0.04714110 -0.06514157 0.01450893
v -0.04610401 -0.06966893 0.02765767
v -0.04186600 -0.06782423 0.01422868
v -0.04175948 -0.07154362 0.02704563
v -0.05495188 -0.06212382 0.03543193
v -0.05605757 -0.05680887 0.03756072
v -0.05545139 -0.06254546 0.04069986
v -0.05631765 -0.05882142 0.04245234
v -0.05197612 -0.06818534 0.03799337
v -0.05409556 -0.06546329 0.03931475
v -0.05488669 -0.06396849 0.04002722
v -0.04556232 -0.07116579 0.03173637
v -0.04566346 -0.07254536 0.03579292
v -0.04873001 -0.06934552 0.03252432
v -0.04698540 -0.07187755 0.03613582
v -0.04172631 -0.07268570 0.03103667
v -0.05250648 -0.06604995 0.03387029
v -0.04169332 -0.07404839 0.03500488
v -0.04928147 -0.07046111 0.03685718
v -0.05467042 -0.07419319 0.05872037
v -0.05137749 -0.07923986 0.05646737
v -0.05178115 -0.08375053 0.06636165
v -0.04703938 -0.09203474 0.08232147
v -0.04970470 -0.08967672 0.08064678
v -0.04539885 -0.09286080 0.08007462
v -0.05545203 -0.07704957 0.07029749
v -0.05478347 -0.07854541 0.06850836
v -0.05455742 -0.08073731 0.07381789
v -0.05643709 -0.06697984 0.05800306
v -0.05617924 -0.06796329 0.05728176
v -0.05602978 -0.07309066 0.06590819
v -0.05641764 -0.06752305 0.05875373
v -0.04399195 -0.09380178 0.08368146
v -0.04129361 -0.09474964 0.08309617
v -0.04718670 -0.08778824 0.06466369
v -0.04430997 -0.08922957 0.06403317
v -0.04701082 -0.08984028 0.06972954
v -0.04139935 -0.09272216 0.07037415
v -0.04134977 -0.09406723 0.07633965
v -0.04154987 -0.08411844 0.05226520
v -0.04148947 -0.08821921 0.05953211
v -0.04144434 -0.09075750 0.06496158
v -0.04862257 -0.07721646 0.04837874
v -0.04709869 -0.07787980 0.04740980
v -0.04654349 -0.08306254 0.05473540
v -0.04533084 -0.07846366 0.04643764
v -0.04361584 -0.08439933 0.05412205
v -0.04914440 -0.08133127 0.05552286
v -0.05131250 -0.07552697 0.05048074
v -0.05489843 -0.07119213 0.05470785
v -0.05441872 -0.07203217 0.05397308
v -0.05327240 -0.07362236 0.05248372
v -0.05273300 -0.08526458 0.07730918
v -0.05156028 -0.08581273 0.07135869
v -0.05100045 -0.08768491 0.07639147
v -0.04639077 -0.09156163 0.07486256
v -0.04968558 -0.08594720 0.06544491
v -0.04161186 -0.07921784 0.04480606
v -0.05311617 -0.08451651 0.07693326
v -0.05181697 -0.08690210 0.07869551
v -0.05475897 -0.06768887 0.04780129
v -0.05642034 -0.06044520 0.04604172
v -0.05648874 -0.06391867 0.05307464
v -0.05154868 -0.07220034 0.04554303
v -0.04692998 -0.07567443 0.04379028
v -0.04163869 -0.07716726 0.04157810
v -0.04165177 -0.07629515 0.04000475
v -0.04194617 -0.06144835 0.00458345
v -0.05044608 -0.04486181 0.00399462
v 0.00102653 0.09187493 0.28600055
v 0.00102653 0.09130214 0.28800064
v 0.00102984 0.07850090 0.29190409
v 0.00102653 -0.09129600 0.28800064
v 0.00102653 -0.09186880 0.28600055
v 0.00102984 -0.07849477 0.29190409
v -0.04127941 0.09485075 0.08480450
v -0.04124047 0.09510612 0.08949032
v -0.04101564 0.09656373 0.11654077
v -0.04096578 0.09688355 0.12253956
v -0.05373982 -0.02769027 0.00685739
v -0.05357155 0.00000315 0.00636119
v -0.05357816 -0.00451054 0.00637307
v -0.05382346 0.04298225 0.00764461
v -0.05370559 0.02367445 0.00671727
v -0.05619299 -0.02908899 0.03530573
v -0.05606829 -0.05146138 0.03530547
v -0.05819284 -0.02972357 0.06423765
v -0.05805999 0.00000306 0.06424015
v -0.05663547 0.00000365 0.04288264
v -0.05587211 -0.05536716 0.03437258
v -0.05621999 -0.05659519 0.03957678
v -0.05667105 -0.05729584 0.04617699
v -0.05806697 -0.05138914 0.06423458
v -0.05781617 -0.05816661 0.06424146
v -0.05606829 0.05146751 0.03530549
v -0.05781617 0.05817273 0.06424146
v -0.05667105 0.05730198 0.04617699
v -0.05820598 0.04049832 0.06423362
v -0.05646954 0.05709060 0.04324324
v -0.05610140 0.05626397 0.03781500
v -0.05619299 0.02909513 0.03530575
v -0.05949172 -0.08204781 0.21239294
v -0.05829400 -0.08473305 0.21237592
v -0.05831624 -0.08496614 0.22442158
v -0.05039766 -0.09567420 0.21215467
v -0.04847443 -0.09740318 0.21208294
v -0.04857503 -0.09770696 0.22421263
v -0.06047072 -0.07852499 0.23679988
v -0.06129468 -0.07712163 0.22451310
v -0.06527584 -0.04576658 0.23222972
v -0.06544641 -0.04576649 0.22849603
v -0.06537782 -0.04922186 0.22472949
v -0.06409762 -0.05879016 0.23681943
v -0.06500345 -0.04576679 0.23679148
v -0.06366605 -0.06597368 0.22461341
v -0.06287807 -0.06816937 0.23682334
v -0.06234424 -0.07107462 0.23682101
v -0.05273575 -0.09326617 0.23656811
v -0.05372357 -0.09200437 0.23660614
v -0.05397535 -0.09201612 0.22431694
v -0.05585968 -0.08886231 0.23668228
v -0.05841120 -0.08401112 0.23675860
v -0.04874047 -0.09750621 0.23639663
v -0.04128405 -0.10303320 0.23138677
v -0.04135620 -0.10304765 0.23602246
v -0.04464247 -0.10085516 0.23619746
v -0.04118394 -0.10230954 0.21175508
v -0.04638615 -0.09903915 0.21199788
v -0.04783104 -0.09793161 0.21205755
v -0.05337377 -0.09245144 0.21225347
v -0.05766174 -0.08597954 0.21236469
v -0.05706745 -0.08706398 0.21235235
v -0.05406309 -0.09158538 0.21227421
v -0.06141495 -0.07644005 0.21240656
v -0.06296976 -0.06992187 0.21240447
v -0.06369694 -0.06581788 0.21239944
v -0.06573119 -0.04576994 0.21235637
v -0.06568053 -0.04666187 0.21235894
v -0.06448140 -0.06012340 0.21239011
v -0.03606987 -0.09576423 0.27211905
v -0.03899663 -0.09320040 0.27160457
v -0.04174084 -0.09448074 0.26603353
v -0.03186741 -0.08990656 0.28079718
v -0.03569831 -0.09146185 0.27672908
v -0.02916231 -0.09346913 0.28017733
v -0.03249930 -0.09437387 0.27699646
v -0.03526909 -0.09539555 0.27341121
v -0.04406952 -0.09548922 0.26019576
v -0.03970069 -0.09839197 0.26292574
v -0.03816643 -0.09700267 0.26778322
v -0.04112214 -0.10099594 0.25349936
v -0.04089721 -0.10039602 0.25592762
v -0.04596898 -0.09624882 0.25416330
v -0.04082418 -0.10020883 0.25658047
v -0.03983574 -0.09855445 0.26235810
v -0.04859333 -0.09710620 0.24184828
v -0.04139445 -0.10297166 0.23880135
v -0.04141639 -0.10233088 0.24606736
v -0.05088067 -0.09316351 0.24851032
v -0.04751009 -0.09684347 0.24802662
v -0.04561095 -0.07107599 0.28222281
v -0.04919546 -0.07107659 0.27842325
v -0.04694467 -0.07509752 0.27839375
v -0.05241729 -0.07107534 0.27395281
v -0.05019571 -0.07671978 0.27315903
v -0.05549143 -0.07107489 0.26827934
v -0.05293922 -0.07799520 0.26752278
v -0.05804919 -0.07107545 0.26177844
v -0.05520054 -0.07899053 0.26160449
v -0.05977182 -0.07107522 0.25567189
v -0.05696845 -0.07971941 0.25550401
v -0.06133175 -0.07107548 0.24718194
v -0.03992694 -0.07830317 0.28249714
v -0.04385216 -0.07208879 0.28316790
v -0.04445144 -0.07107539 0.28324771
v -0.05829402 -0.08022122 0.24930038
v -0.05627584 -0.08478515 0.24916770
v -0.05228933 -0.08851428 0.25507033
v -0.05029760 -0.08764438 0.26113907
v -0.04789113 -0.08657552 0.26702759
v -0.04500557 -0.08521353 0.27261764
v -0.04160541 -0.08346815 0.27775171
v -0.05380737 -0.08912461 0.24890135
v -0.06216738 -0.06682123 0.24703591
v -0.06334264 -0.05803590 0.24664696
v -0.06421374 -0.04576619 0.24599002
v -0.06012857 -0.07022010 0.25502813
v -0.06216024 -0.05866985 0.25457630
v -0.06083691 -0.05685745 0.26177847
v -0.06170472 -0.04576673 0.26177844
v -0.06314872 -0.04576667 0.25415900
v -0.05957502 -0.06485309 0.26177850
v -0.04100454 -0.07066242 0.28604233
v -0.05331663 -0.04586326 0.28401488
v -0.05333675 -0.04576652 0.28400823
v -0.05422683 -0.04576679 0.28244144
v -0.05301411 -0.04726635 0.28411993
v -0.05298445 -0.04739617 0.28413004
v -0.05310944 -0.05054854 0.28293169
v -0.05040105 -0.05549307 0.28493908
v -0.05089187 -0.05759428 0.28340963
v -0.04934267 -0.05774869 0.28524736
v -0.04817788 -0.06404294 0.28352755
v -0.04888872 -0.05860643 0.28537694
v -0.04446673 -0.06486507 0.28654200
v -0.04473497 -0.06456332 0.28647625
v -0.04681428 -0.06192864 0.28594592
v -0.04182245 -0.06747110 0.28716248
v -0.04129859 -0.06791805 0.28727993
v -0.04240162 -0.06695224 0.28703061
v -0.04261312 -0.06675591 0.28698197
v -0.04296622 -0.06642006 0.28689995
v -0.04415851 -0.06520246 0.28661683
v -0.03705683 -0.07088329 0.28817266
v -0.03736881 -0.07069822 0.28811020
v -0.03853248 -0.06996725 0.28787318
v -0.03872284 -0.06984116 0.28783372
v -0.04076519 -0.06835262 0.28739777
v -0.03039461 -0.08102672 0.28635645
v -0.03663323 -0.07112794 0.28825715
v -0.02639205 -0.09288381 0.28224188
v -0.02229137 -0.09222020 0.28458858
v -0.02389760 -0.09014390 0.28492665
v -0.02426673 -0.08965926 0.28500420
v -0.02854584 -0.08376487 0.28593060
v -0.03008962 -0.08148591 0.28628257
v -0.03015631 -0.08138575 0.28629857
v -0.02816495 -0.09324430 0.28097039
v -0.05598852 -0.05089517 0.27755189
v -0.05685529 -0.04576693 0.27704722
v -0.05942326 -0.04576655 0.27020073
v -0.05404450 -0.05850513 0.27830732
v -0.05668598 -0.06840266 0.26753977
v -0.05427422 -0.06724204 0.27331099
v -0.05664283 -0.05971040 0.27272651
v -0.05828072 -0.05198975 0.27183926
v -0.05876189 -0.06075852 0.26685077
v -0.06014254 -0.05296667 0.26591462
v -0.05135465 -0.06588711 0.27870908
v -0.04781668 -0.09391142 0.12253603
v -0.04637026 -0.09477793 0.12253662
v -0.04702577 -0.09671696 0.16751736
v -0.05575977 -0.08758204 0.16762866
v -0.06571569 -0.04577221 0.20890169
v -0.06550506 -0.04577677 0.19669028
v -0.06352138 -0.06410153 0.19025236
v -0.05871805 -0.08130275 0.16762142
v -0.05990350 -0.07991333 0.19027059
v -0.06203586 -0.07233314 0.19026357
v -0.05192736 -0.09266950 0.16758713
v -0.04746654 -0.09738521 0.19005029
v -0.04561323 -0.09517016 0.12253704
v -0.04139016 -0.09676282 0.12254070
v -0.04139965 -0.09711365 0.12912738
v -0.04126367 -0.10002775 0.17395075
v -0.05392270 -0.08763151 0.12253628
v -0.05150888 -0.09077097 0.12253571
v -0.05119402 -0.09243722 0.14503358
v -0.05067690 -0.09162264 0.12253562
v -0.04884123 -0.09319024 0.12253576
v -0.05475672 -0.08797155 0.14505009
v -0.05759559 -0.08215944 0.14502375
v -0.05656301 -0.08232464 0.12249301
v -0.05970371 -0.07512285 0.14500040
v -0.05862681 -0.07547443 0.12245084
v -0.06121432 -0.06677695 0.14498071
v -0.06007072 -0.06719290 0.12240929
v -0.06236891 -0.04575907 0.13582300
v -0.06154143 -0.04573812 0.12231607
v -0.06100460 -0.05735667 0.12236547
v -0.06452604 -0.04577793 0.17312245
v -0.06239909 -0.06567381 0.16759653
v -0.06086638 -0.07399969 0.16760796
v -0.04013997 -0.10284062 0.22189637
v -0.04026201 -0.10216023 0.20726927
v -0.04058466 -0.09976198 0.16836955
v -0.04011741 -0.10313086 0.23647024
v -0.04009910 -0.10312541 0.23139100
v -0.04007987 -0.10239671 0.24607085
v -0.04012619 -0.10284446 0.24224456
v -0.04010662 -0.10300477 0.22664247
v -0.02828493 -0.08196665 0.28682026
v -0.02772610 -0.07766317 0.28876793
v -0.01789601 -0.07734348 0.29118657
v -0.01989434 -0.07697840 0.29096857
v -0.02848649 -0.07469063 0.28973410
v -0.01847419 -0.08418472 0.28884393
v -0.00939109 -0.07828550 0.29176927
v -0.00833624 -0.08587913 0.28946537
v -0.00588043 -0.07844289 0.29186806
v -0.00315569 -0.07850583 0.29190874
v -0.00510383 -0.09131311 0.28788960
v -0.01081169 -0.09143020 0.28743568
v -0.01605099 -0.09165998 0.28659254
v -0.01900242 -0.09186940 0.28583863
v -0.02343884 -0.08315380 0.28802499
v -0.05698496 -0.03452955 0.27849931
v -0.05755489 -0.02227823 0.27740899
v -0.06013134 -0.02296285 0.26927757
v -0.05394517 -0.04235388 0.28378779
v -0.05483871 -0.03447939 0.28341427
v -0.06195248 -0.03564595 0.26194248
v -0.05979587 -0.03521119 0.27036130
v -0.06339280 0.00000306 0.25415894
v -0.06348105 -0.02447279 0.25415978
v -0.06218934 -0.02349733 0.26093125
v -0.05537982 -0.02165444 0.28306890
v -0.05546375 0.00000306 0.28289899
v -0.05831115 0.00000326 0.27486348
v -0.06061227 0.00000341 0.26691425
v -0.06108392 0.00000344 0.26505390
v -0.05535610 -0.02295331 0.28309312
v -0.04064402 -0.10308443 0.23138912
v -0.00785124 -0.09193040 0.28571382
v -0.01413426 -0.09214090 0.28493053
v -0.02694799 -0.09370296 0.27938059
v -0.02576764 -0.09345807 0.28024411
v -0.02239692 -0.09287648 0.28229925
v -0.01859798 -0.09243451 0.28387088
v -0.01532009 -0.09220363 0.28470239
v -0.02881710 -0.09414090 0.27783835
v -0.03741308 -0.09784149 0.26486388
v -0.03391773 -0.09580700 0.27198711
v -0.03942385 -0.10039605 0.25593930
v -0.03948205 -0.10052212 0.25547430
v -0.04042155 -0.10100700 0.25349528
v -0.04042038 -0.10152821 0.25103322
v -0.03953683 -0.10064460 0.25500867
v -0.03990864 -0.10163285 0.25056836
v -0.05760044 -0.06023018 0.06277969
v -0.05687834 -0.07046892 0.07013089
v -0.05765821 -0.06968449 0.08192686
v -0.05868168 -0.05901326 0.08184426
v -0.05638341 -0.07641171 0.08198298
v -0.05326815 -0.08486860 0.08206823
v -0.05477643 -0.08157267 0.08203184
v -0.04811261 -0.09123920 0.08232144
v -0.05085392 -0.08852105 0.08232144
v -0.05327203 -0.08488612 0.08232138
v -0.06604963 0.00000306 0.23222961
v -0.06585921 -0.02678101 0.23223038
v -0.06499982 -0.02288993 0.24324055
v -0.06492184 0.00000309 0.24425758
v -0.06664276 0.00000246 0.21246554
v -0.06663629 0.00000225 0.20889638
v -0.06647515 -0.02280526 0.20889701
v -0.06634104 0.00000148 0.19490315
v -0.06518499 0.00000118 0.17177199
v -0.06542172 -0.02280320 0.17805900
v -0.06276243 0.00000306 0.13567372
v -0.06273087 -0.02399717 0.13575423
v -0.06626620 0.00000306 0.22817071
v -0.05198955 -0.08866601 0.10254923
v -0.04773381 -0.09276690 0.10254947
v -0.04275524 -0.09529568 0.10255123
v -0.04061229 -0.10184635 0.20206074
v -0.04105558 -0.09833331 0.14766023
v -0.04701142 0.09857880 0.21202414
v -0.04783099 0.09793779 0.21205755
v -0.04857503 0.09771308 0.22421263
v -0.06071875 0.07871124 0.21240373
v -0.06175332 0.07522182 0.21240707
v -0.06129468 0.07712775 0.22451310
v -0.06335938 0.06784110 0.21240212
v -0.06369694 0.06582400 0.21239944
v -0.06366605 0.06597982 0.22461341
v -0.06470837 0.05814655 0.21238644
v -0.06573119 0.04577608 0.21235637
v -0.06537782 0.04922800 0.22472949
v -0.06571367 0.04577333 0.21718951
v -0.06527584 0.04577270 0.23222972
v -0.05982997 0.08120178 0.21239664
v -0.05112636 0.09495926 0.21218021
v -0.05337368 0.09245767 0.21225347
v -0.05397535 0.09202224 0.22431694
v -0.05471620 0.09072027 0.21229301
v -0.05831624 0.08497226 0.22442158
v -0.05750791 0.08627397 0.21236174
v -0.05829401 0.08473918 0.21237592
v -0.04231392 0.10168420 0.21181117
v -0.04128405 0.10303932 0.23138677
v -0.04118394 0.10231566 0.21175508
v -0.04612406 0.09974109 0.23627274
v -0.04135620 0.10305378 0.23602246
v -0.05009166 0.09620960 0.23645718
v -0.04921531 0.09706770 0.23641808
v -0.04843269 0.09779337 0.23638265
v -0.05366065 0.09209405 0.23660378
v -0.05912203 0.08233671 0.23677497
v -0.05799690 0.08491720 0.23674794
v -0.05654699 0.08770491 0.23670502
v -0.05548890 0.08946158 0.23666959
v -0.06093534 0.07697478 0.23680674
v -0.06234424 0.07108074 0.23682101
v -0.06478958 0.04988284 0.23680346
v -0.06371880 0.06228168 0.23682253
v -0.06322827 0.06595996 0.23682378
v -0.06500345 0.04577291 0.23679148
v -0.05294153 0.08342817 0.26144519
v -0.05520054 0.07899667 0.26160449
v -0.05293922 0.07800132 0.26752278
v -0.05627584 0.08479126 0.24916770
v -0.05829402 0.08022735 0.24930038
v -0.03590687 0.08425570 0.28167862
v -0.02916231 0.09347527 0.28017733
v -0.03077225 0.09387900 0.27875751
v -0.03569831 0.09146799 0.27672908
v -0.05178016 0.07108182 0.27493569
v -0.05019571 0.07672590 0.27315903
v -0.04833652 0.07108282 0.27943093
v -0.04694467 0.07510366 0.27839375
v -0.05716838 0.07108164 0.26427242
v -0.05459520 0.07108086 0.27011931
v -0.05804919 0.07108158 0.26177844
v -0.05696845 0.07972555 0.25550401
v -0.06004294 0.07108139 0.25448561
v -0.06133175 0.07108162 0.24718194
v -0.06234260 0.07108088 0.23685516
v -0.05485769 0.08944048 0.24266978
v -0.05380737 0.08913074 0.24890135
v -0.04859333 0.09711234 0.24184828
v -0.04596898 0.09625494 0.25416330
v -0.04141639 0.10233702 0.24606736
v -0.04751009 0.09684958 0.24802662
v -0.04142529 0.10256578 0.24432240
v -0.04141431 0.10287258 0.24083881
v -0.03980406 0.09852059 0.26249775
v -0.04089721 0.10040215 0.25592762
v -0.04113700 0.10105507 0.25326213
v -0.03402050 0.09490199 0.27516389
v -0.03630302 0.09588712 0.27171001
v -0.03899663 0.09320654 0.27160457
v -0.03829368 0.09710161 0.26745853
v -0.04174084 0.09448686 0.26603353
v -0.04406952 0.09549536 0.26019576
v -0.04160541 0.08347429 0.27775171
v -0.04500557 0.08521967 0.27261764
v -0.04789113 0.08658165 0.26702759
v -0.05029760 0.08765051 0.26113907
v -0.05228933 0.08852042 0.25507033
v -0.04222742 0.07473941 0.28291556
v -0.04445144 0.07108153 0.28324771
v -0.06278686 0.06278211 0.24686907
v -0.06421374 0.04577233 0.24599002
v -0.06387364 0.05169748 0.24631803
v -0.06314872 0.04577279 0.25415900
v -0.06012857 0.07022622 0.25502813
v -0.05983673 0.06351197 0.26177862
v -0.06216024 0.05867599 0.25457630
v -0.06097785 0.05561543 0.26177850
v -0.06170472 0.04577285 0.26177844
v -0.02816495 0.09325042 0.28097039
v -0.04781698 0.06043550 0.28567582
v -0.05105526 0.05715279 0.28338945
v -0.05124053 0.05337937 0.28468719
v -0.05224076 0.05360226 0.28317878
v -0.05331663 0.04586938 0.28401488
v -0.05422683 0.04577291 0.28244144
v -0.05333675 0.04577266 0.28400823
v -0.04100468 0.07066834 0.28604233
v -0.04289474 0.06649502 0.28691664
v -0.04680264 0.06682071 0.28347179
v -0.04553869 0.06361672 0.28627574
v -0.04803433 0.06435061 0.28352472
v -0.04989791 0.06015496 0.28349584
v -0.02941648 0.08249500 0.28612521
v -0.02386716 0.09245464 0.28378016
v -0.02429606 0.08962730 0.28501010
v -0.02229137 0.09222634 0.28458858
v -0.03347161 0.07626127 0.28720695
v -0.03039524 0.08103189 0.28635660
v -0.03007410 0.08151533 0.28627884
v -0.03991080 0.06901366 0.28758305
v -0.03663323 0.07113408 0.28825715
v -0.03554152 0.07293202 0.28788075
v -0.05668598 0.06840880 0.26753977
v -0.05135465 0.06589325 0.27870908
v -0.05427422 0.06724818 0.27331099
v -0.05730886 0.04577295 0.27597412
v -0.05598852 0.05090129 0.27755189
v -0.05828072 0.05199587 0.27183926
v -0.05977738 0.04577270 0.26907820
v -0.06014254 0.05297279 0.26591462
v -0.05404450 0.05851126 0.27830732
v -0.05664283 0.05971654 0.27272651
v -0.05876189 0.06076466 0.26685077
v -0.04746648 0.09739140 0.19005029
v -0.04702573 0.09672311 0.16751736
v -0.05192729 0.09267570 0.16758712
v -0.06352131 0.06410812 0.19025236
v -0.06534183 0.04578021 0.19121985
v -0.06154143 0.04574426 0.12231607
v -0.06236891 0.04576521 0.13582300
v -0.06100460 0.05736279 0.12236547
v -0.06121426 0.06678353 0.14498071
v -0.06007072 0.06719904 0.12240929
v -0.05970364 0.07512930 0.14500040
v -0.05862681 0.07548057 0.12245084
v -0.05759550 0.08216581 0.14502375
v -0.05656301 0.08233078 0.12249301
v -0.05475663 0.08797783 0.14505009
v -0.05392270 0.08763763 0.12253628
v -0.05122222 0.09108183 0.12253567
v -0.05119395 0.09244342 0.14503358
v -0.05067685 0.09162882 0.12253562
v -0.04664342 0.09586535 0.14501075
v -0.04133101 0.09890556 0.15717460
v -0.04139016 0.09676896 0.12254070
v -0.04512817 0.09540799 0.12253735
v -0.04637023 0.09478408 0.12253662
v -0.04855199 0.09340990 0.12253582
v -0.04118336 0.10183591 0.20274006
v -0.05575968 0.08758833 0.16762866
v -0.05871796 0.08130911 0.16762142
v -0.05990341 0.07991970 0.19027059
v -0.06203579 0.07233962 0.19026357
v -0.04120848 0.10106602 0.18984610
v -0.06086630 0.07400616 0.16760796
v -0.06239903 0.06568040 0.16759653
v -0.06396233 0.04578517 0.16282682
v -0.04013997 0.10284676 0.22189637
v -0.04037782 0.10136245 0.19323535
v -0.04089133 0.09738928 0.13151667
v -0.04009909 0.10313150 0.23139100
v -0.04011738 0.10313702 0.23647024
v -0.04012619 0.10285062 0.24224456
v -0.04007987 0.10240284 0.24607085
v -0.05484387 0.03441949 0.28341180
v -0.05698496 0.03453569 0.27849931
v -0.06013134 0.02296899 0.26927757
v -0.05755489 0.02228438 0.27740899
v -0.05535648 0.02295946 0.28309327
v -0.06345953 0.03120883 0.25416061
v -0.06218934 0.02350347 0.26093125
v -0.06195248 0.03565207 0.26194248
v -0.05979587 0.03521733 0.27036130
v -0.01989467 0.07698444 0.29096848
v -0.00205647 0.07852271 0.29191595
v -0.00449124 0.07848716 0.29189235
v -0.00939160 0.07829154 0.29176909
v -0.00756520 0.07838696 0.29182854
v -0.02738125 0.07505785 0.28991351
v -0.02892746 0.07454637 0.28966105
v -0.04064428 0.10309052 0.23138912
v -0.02694799 0.09370910 0.27938059
v -0.02881710 0.09414704 0.27783835
v -0.03741308 0.09784761 0.26486388
v -0.03942385 0.10040219 0.25593930
v -0.03391773 0.09581313 0.27198711
v -0.03948205 0.10052826 0.25547430
v -0.03953683 0.10065073 0.25500867
v -0.04042155 0.10101314 0.25349528
v -0.03990864 0.10163899 0.25056836
v -0.04042038 0.10153435 0.25103322
v -0.05687834 0.07047506 0.07013089
v -0.05520809 0.08040850 0.08202007
v -0.05326815 0.08487472 0.08206823
v -0.05786382 0.06815946 0.08191472
v -0.05747765 0.07089640 0.08193655
v -0.05670557 0.07503532 0.08197095
v -0.05868168 0.05901939 0.08184426
v -0.05677702 0.06542759 0.05910598
v -0.04990825 0.08959614 0.08232144
v -0.05203434 0.08694184 0.08232144
v -0.05327203 0.08489224 0.08232138
v -0.06581576 0.02914745 0.23223282
v -0.06499982 0.02289604 0.24324055
v -0.06265416 0.03277497 0.13578223
v -0.06542173 0.02280934 0.17805931
v -0.06647515 0.02281137 0.20889725
v -0.05199134 0.08866975 0.10254847
v -0.04275847 0.09530061 0.10255045
v -0.04773645 0.09277114 0.10254870
v -0.04061253 0.10185245 0.20206057
v -0.04105571 0.09833941 0.14766003
v -0.02576764 0.09346421 0.28024411
v -0.02239692 0.09288262 0.28229925
v -0.02772610 0.07766929 0.28876793
v -0.02828493 0.08197278 0.28682026
v -0.02343884 0.08315994 0.28802499
v -0.01828826 0.09181781 0.28604561
v -0.01847419 0.08419083 0.28884393
v -0.01312299 0.09151988 0.28712589
v -0.00833624 0.08588526 0.28946537
v -0.00584127 0.09132791 0.28785351
v -0.01865261 0.09244539 0.28385389
v -0.00645964 0.09191178 0.28581217
v -0.01351553 0.09211779 0.28503746
v -0.01532052 0.09220979 0.28470230
f 1 2 3
f 3 28 1
f 1 28 29
f 1 29 30
f 30 29 31
f 30 31 32
f 32 31 33
f 32 33 34
f 34 33 35
f 33 36 35
f 35 36 37
f 35 37 38
f 38 37 39
f 38 39 40
f 40 39 41
f 40 41 42
f 41 45 42
f 41 44 45
f 43 44 41
f 41 46 43
f 43 46 47
f 43 47 48
f 43 48 188
f 188 48 51
f 48 50 51
f 51 50 52
f 51 52 53
f 53 52 54
f 78 54 52
f 77 54 78
f 77 61 54
f 76 61 77
f 76 60 61
f 60 55 61
f 60 59 55
f 58 59 60
f 75 58 60
f 264 58 75
f 75 74 264
f 264 56 58
f 56 57 58
f 58 57 59
f 57 199 59
f 59 199 197
f 59 197 181
f 181 197 195
f 181 195 182
f 182 195 193
f 182 193 187
f 182 187 188
f 188 187 189
f 188 189 190
f 185 188 190
f 185 190 183
f 190 201 183
f 183 201 202
f 202 184 183
f 202 286 184
f 202 287 286
f 282 286 287
f 282 287 288
f 204 288 287
f 258 288 204
f 288 258 290
f 290 258 259
f 290 259 526
f 526 259 225
f 225 228 526
f 526 228 527
f 227 527 228
f 216 227 228
f 222 227 216
f 222 216 223
f 223 216 218
f 216 217 218
f 216 247 217
f 217 247 248
f 247 257 248
f 247 246 257
f 257 246 226
f 226 246 216
f 225 226 216
f 259 257 226
f 248 257 260
f 248 260 245
f 245 260 239
f 239 217 245
f 239 244 217
f 241 244 239
f 239 240 241
f 241 240 242
f 261 242 240
f 261 254 242
f 262 254 261
f 262 261 263
f 263 261 209
f 261 211 209
f 210 209 211
f 215 210 211
f 205 210 215
f 261 205 215
f 260 205 261
f 260 206 205
f 205 206 201
f 201 206 207
f 201 207 203
f 203 207 257
f 258 203 257
f 257 207 206
f 201 213 205
f 201 192 213
f 192 194 213
f 192 193 194
f 213 194 196
f 213 196 210
f 210 196 198
f 210 198 208
f 208 198 212
f 198 200 212
f 198 199 200
f 208 212 209
f 209 212 214
f 196 197 198
f 194 195 196
f 189 192 201
f 205 213 210
f 208 209 210
f 261 215 211
f 263 209 214
f 236 242 254
f 236 243 242
f 232 243 236
f 232 241 243
f 231 241 232
f 231 232 233
f 231 233 253
f 253 233 250
f 253 250 218
f 224 218 250
f 224 250 255
f 255 531 224
f 224 531 532
f 224 532 530
f 530 222 224
f 530 528 222
f 463 528 530
f 529 528 463
f 466 529 463
f 466 290 529
f 289 290 466
f 465 289 466
f 462 465 466
f 464 465 462
f 464 283 465
f 547 283 464
f 547 284 283
f 546 284 547
f 545 546 547
f 545 544 546
f 765 546 544
f 764 546 765
f 716 764 765
f 716 765 687
f 687 715 716
f 686 715 687
f 686 714 715
f 714 693 715
f 715 693 691
f 692 691 693
f 692 693 694
f 694 693 695
f 694 695 696
f 756 694 696
f 756 696 752
f 752 696 761
f 752 761 753
f 760 753 761
f 760 128 753
f 759 128 760
f 759 129 128
f 128 129 130
f 165 128 130
f 165 130 125
f 125 132 165
f 125 164 132
f 127 164 125
f 125 126 127
f 125 151 126
f 126 151 153
f 151 152 153
f 153 152 154
f 153 154 155
f 150 153 155
f 150 155 149
f 149 127 150
f 149 146 127
f 148 146 149
f 173 146 148
f 173 171 146
f 172 171 173
f 172 117 171
f 118 117 172
f 117 118 119
f 119 115 117
f 117 115 116
f 115 108 116
f 116 108 106
f 106 114 116
f 116 114 121
f 116 121 120
f 121 170 120
f 120 170 171
f 170 163 171
f 170 141 163
f 163 141 164
f 164 141 140
f 140 141 142
f 142 143 140
f 170 143 142
f 170 144 143
f 167 144 170
f 167 145 144
f 138 144 145
f 140 144 138
f 132 140 138
f 132 138 134
f 133 132 134
f 131 132 133
f 133 752 131
f 135 752 133
f 133 134 135
f 134 139 135
f 135 139 751
f 751 139 137
f 138 137 139
f 136 137 138
f 136 167 137
f 137 167 168
f 758 137 168
f 168 292 758
f 168 293 292
f 292 293 294
f 294 293 295
f 293 169 295
f 295 169 113
f 295 113 296
f 291 295 296
f 291 296 91
f 296 110 91
f 92 91 110
f 90 91 92
f 90 92 94
f 94 92 89
f 94 89 93
f 94 93 279
f 279 93 26
f 26 27 279
f 279 27 2
f 279 2 280
f 280 297 279
f 280 285 297
f 277 285 280
f 280 1 277
f 277 1 30
f 277 30 32
f 277 32 278
f 278 32 34
f 278 34 276
f 278 276 281
f 285 278 281
f 285 281 283
f 283 281 282
f 281 185 282
f 282 185 184
f 281 191 185
f 186 191 281
f 186 43 191
f 186 44 43
f 45 44 186
f 186 42 45
f 40 42 186
f 40 186 38
f 38 186 276
f 276 35 38
f 283 282 289
f 281 276 186
f 276 34 35
f 277 278 285
f 294 297 285
f 294 285 284
f 291 297 294
f 279 297 291
f 280 2 1
f 93 25 26
f 93 23 25
f 21 23 93
f 93 19 21
f 279 291 94
f 93 89 19
f 9 19 89
f 105 9 89
f 107 9 105
f 107 95 9
f 95 11 9
f 10 9 11
f 8 9 10
f 10 66 8
f 10 65 66
f 12 65 10
f 12 64 65
f 14 64 12
f 14 63 64
f 7 63 14
f 14 15 7
f 7 15 16
f 7 16 6
f 6 5 7
f 5 62 7
f 4 5 6
f 4 6 97
f 97 101 4
f 97 102 101
f 100 101 102
f 100 99 101
f 98 99 100
f 98 100 119
f 100 102 115
f 109 102 97
f 109 108 102
f 107 108 109
f 97 96 109
f 109 96 95
f 15 95 96
f 13 95 15
f 97 16 96
f 6 16 97
f 15 96 16
f 14 13 15
f 7 62 63
f 12 13 14
f 12 11 13
f 8 66 67
f 8 67 17
f 17 67 68
f 17 68 18
f 9 17 18
f 18 68 69
f 69 20 18
f 19 18 20
f 19 20 21
f 21 20 22
f 21 22 23
f 23 22 24
f 23 24 25
f 25 24 26
f 24 27 26
f 24 2 27
f 69 22 20
f 70 22 69
f 70 24 22
f 174 24 70
f 71 174 70
f 174 71 72
f 3 174 72
f 3 72 28
f 28 72 29
f 73 29 72
f 73 31 29
f 88 31 73
f 88 33 31
f 33 88 36
f 36 88 87
f 36 87 37
f 37 87 86
f 37 86 39
f 39 86 85
f 39 85 265
f 265 41 39
f 84 41 265
f 84 46 41
f 83 46 84
f 83 47 46
f 82 47 83
f 82 49 47
f 81 49 82
f 80 49 81
f 80 50 49
f 79 50 80
f 84 265 85
f 24 174 3
f 8 17 9
f 10 11 12
f 13 11 95
f 109 95 107
f 105 106 107
f 105 104 106
f 103 104 105
f 103 111 104
f 103 92 111
f 104 111 114
f 111 123 114
f 111 122 123
f 112 122 111
f 167 122 112
f 112 113 167
f 112 110 113
f 111 110 112
f 123 122 167
f 123 167 124
f 114 123 124
f 105 89 103
f 9 18 19
f 103 89 92
f 94 291 90
f 111 92 110
f 91 90 291
f 296 113 110
f 167 113 169
f 294 295 291
f 688 292 294
f 690 292 688
f 690 757 292
f 690 754 757
f 692 754 690
f 692 755 754
f 756 755 692
f 751 755 756
f 754 755 751
f 292 754 751
f 757 754 292
f 688 689 690
f 764 689 688
f 690 689 691
f 716 691 689
f 688 294 764
f 169 293 168
f 292 751 758
f 167 169 168
f 758 751 137
f 751 756 135
f 134 138 139
f 138 145 136
f 136 145 167
f 124 167 170
f 140 143 144
f 142 141 170
f 171 163 147
f 147 163 127
f 124 170 121
f 114 124 121
f 104 114 106
f 107 106 108
f 115 102 108
f 117 116 120
f 119 100 115
f 120 171 117
f 171 147 146
f 127 146 147
f 160 152 151
f 160 151 158
f 158 159 160
f 160 159 161
f 160 161 162
f 158 157 159
f 156 157 158
f 158 130 156
f 768 157 156
f 768 156 769
f 769 156 759
f 769 759 767
f 767 701 769
f 769 701 707
f 769 707 706
f 700 706 707
f 702 706 700
f 702 705 706
f 704 705 702
f 702 703 704
f 771 704 703
f 275 704 771
f 704 275 274
f 274 273 704
f 704 273 272
f 704 272 159
f 704 159 768
f 771 719 275
f 771 718 719
f 770 718 771
f 770 717 718
f 740 717 770
f 578 740 770
f 578 770 708
f 576 578 708
f 577 578 576
f 576 556 577
f 577 556 579
f 577 579 580
f 580 740 577
f 622 740 580
f 622 721 740
f 722 721 622
f 722 622 723
f 723 622 621
f 617 621 622
f 620 621 617
f 617 615 620
f 620 615 616
f 615 587 616
f 616 587 598
f 598 636 616
f 598 635 636
f 631 636 635
f 631 635 630
f 630 635 634
f 630 634 628
f 628 634 633
f 597 633 634
f 605 633 597
f 605 632 633
f 607 632 605
f 600 632 607
f 600 607 637
f 637 607 606
f 637 606 638
f 606 658 638
f 657 638 658
f 657 658 659
f 659 658 660
f 659 660 649
f 649 660 661
f 661 660 673
f 680 661 673
f 680 673 681
f 677 680 681
f 677 681 679
f 647 677 679
f 647 679 646
f 679 682 646
f 646 682 644
f 682 672 644
f 644 672 610
f 608 610 672
f 596 610 608
f 596 608 597
f 597 608 609
f 597 609 604
f 609 674 604
f 604 674 673
f 604 673 606
f 605 604 606
f 609 672 674
f 595 596 597
f 595 611 596
f 595 599 611
f 598 599 595
f 598 585 599
f 586 585 598
f 585 586 573
f 559 585 573
f 559 573 568
f 568 573 575
f 575 710 568
f 575 709 710
f 574 709 575
f 572 709 574
f 572 685 709
f 685 700 709
f 709 700 697
f 699 697 700
f 699 700 701
f 698 697 699
f 698 699 767
f 767 761 698
f 696 697 698
f 570 685 572
f 571 570 572
f 569 570 571
f 571 556 569
f 569 556 555
f 555 683 569
f 555 708 683
f 554 708 555
f 708 713 683
f 683 713 703
f 770 703 713
f 683 703 684
f 683 684 685
f 684 702 685
f 554 555 556
f 571 581 556
f 584 581 571
f 581 584 617
f 617 582 581
f 617 583 582
f 579 583 617
f 556 582 583
f 571 588 584
f 584 588 615
f 571 587 588
f 573 587 571
f 581 582 556
f 569 683 570
f 571 572 573
f 570 683 685
f 573 572 574
f 709 697 710
f 710 697 695
f 710 695 714
f 712 710 714
f 711 710 712
f 558 711 712
f 712 560 558
f 712 561 560
f 686 561 712
f 686 563 561
f 561 563 562
f 562 563 565
f 563 564 565
f 565 564 566
f 766 566 564
f 687 766 564
f 766 567 566
f 762 567 766
f 548 762 766
f 548 766 540
f 540 542 548
f 540 541 542
f 541 543 542
f 766 543 541
f 766 544 543
f 542 543 545
f 542 545 467
f 467 441 542
f 542 441 440
f 542 440 333
f 537 542 333
f 537 333 307
f 307 306 537
f 306 307 308
f 306 308 309
f 309 310 306
f 309 382 310
f 382 538 310
f 382 501 538
f 387 501 382
f 501 387 502
f 502 387 498
f 387 386 498
f 385 386 387
f 434 386 385
f 388 434 385
f 385 383 388
f 388 383 366
f 388 366 364
f 388 364 433
f 433 364 429
f 433 429 431
f 431 432 433
f 433 432 434
f 432 427 434
f 432 425 427
f 425 426 427
f 499 427 426
f 493 499 426
f 495 499 493
f 493 494 495
f 494 505 495
f 495 505 506
f 727 506 505
f 726 506 727
f 727 725 726
f 727 724 725
f 724 654 725
f 724 655 654
f 653 654 655
f 653 652 654
f 651 652 653
f 651 650 652
f 652 650 676
f 652 676 675
f 675 676 677
f 675 677 678
f 725 675 678
f 725 678 732
f 732 678 647
f 731 732 647
f 731 647 642
f 642 729 731
f 731 729 730
f 731 730 726
f 726 730 507
f 730 500 507
f 502 507 500
f 502 506 507
f 729 500 730
f 729 539 500
f 539 501 500
f 729 763 539
f 640 763 729
f 640 762 763
f 594 762 640
f 594 640 591
f 591 640 641
f 641 640 642
f 641 642 639
f 592 641 639
f 592 639 593
f 593 639 590
f 562 593 590
f 559 562 590
f 559 590 589
f 614 589 590
f 614 599 589
f 613 599 614
f 613 614 639
f 643 613 639
f 643 639 645
f 644 643 645
f 612 613 643
f 610 612 643
f 610 611 612
f 612 599 613
f 558 562 559
f 557 558 559
f 639 614 590
f 562 592 593
f 591 592 562
f 645 639 642
f 645 642 646
f 591 641 592
f 591 567 594
f 591 565 567
f 536 763 762
f 539 763 536
f 536 538 539
f 536 537 538
f 537 536 548
f 729 642 640
f 726 732 731
f 676 650 680
f 649 650 651
f 675 654 652
f 654 675 725
f 728 724 727
f 726 725 732
f 726 507 506
f 727 505 728
f 728 505 504
f 495 506 502
f 494 504 505
f 503 504 494
f 494 508 503
f 494 497 508
f 493 497 494
f 496 497 493
f 495 498 499
f 493 426 496
f 496 426 392
f 496 392 391
f 390 391 392
f 390 392 393
f 393 392 394
f 394 392 395
f 394 395 396
f 396 395 397
f 396 397 398
f 398 397 399
f 399 397 435
f 435 397 428
f 435 428 431
f 431 428 425
f 395 425 428
f 431 430 435
f 435 430 358
f 430 360 358
f 429 360 430
f 429 362 360
f 361 360 362
f 359 360 361
f 361 377 359
f 359 377 378
f 337 378 377
f 337 377 338
f 336 337 338
f 338 346 336
f 338 345 346
f 346 345 518
f 518 345 351
f 344 351 345
f 344 350 351
f 520 351 350
f 520 350 348
f 349 348 350
f 347 348 349
f 522 348 347
f 522 347 523
f 523 347 354
f 523 354 475
f 475 354 476
f 476 354 353
f 476 353 473
f 473 353 321
f 321 353 322
f 322 353 352
f 322 352 319
f 319 352 314
f 303 319 314
f 314 316 303
f 314 315 316
f 316 315 317
f 315 379 317
f 355 379 315
f 355 349 379
f 356 349 355
f 355 352 356
f 356 352 354
f 349 374 379
f 379 374 373
f 372 373 374
f 367 372 374
f 368 372 367
f 368 304 372
f 313 304 368
f 313 368 312
f 312 368 380
f 312 380 309
f 309 311 312
f 380 381 309
f 383 381 380
f 384 381 383
f 387 381 384
f 383 380 368
f 311 313 312
f 311 304 313
f 305 304 311
f 331 305 311
f 331 311 332
f 311 335 332
f 311 334 335
f 440 335 334
f 308 334 311
f 308 333 334
f 440 332 335
f 442 332 440
f 442 331 332
f 445 331 442
f 445 330 331
f 444 330 445
f 444 298 330
f 299 298 444
f 443 299 444
f 327 299 443
f 299 327 300
f 300 327 328
f 328 327 439
f 328 439 329
f 329 439 446
f 329 446 326
f 446 438 326
f 446 454 438
f 438 454 456
f 454 455 456
f 550 456 455
f 550 455 549
f 549 533 550
f 549 534 533
f 535 534 549
f 256 534 535
f 220 534 256
f 256 251 220
f 220 251 252
f 251 233 252
f 252 233 235
f 221 252 235
f 221 235 230
f 229 221 230
f 229 230 180
f 551 229 180
f 551 219 229
f 550 219 551
f 551 448 550
f 550 448 437
f 550 437 436
f 436 437 438
f 450 438 437
f 451 438 450
f 450 553 451
f 451 553 552
f 451 552 323
f 323 447 451
f 323 324 447
f 323 320 324
f 323 509 320
f 509 473 320
f 509 474 473
f 474 509 477
f 477 509 470
f 470 509 471
f 471 509 552
f 471 552 472
f 324 320 303
f 320 321 303
f 324 303 325
f 325 303 302
f 447 325 302
f 301 447 302
f 326 447 301
f 303 326 301
f 301 302 303
f 447 324 325
f 323 552 509
f 472 552 553
f 472 553 175
f 450 175 553
f 449 175 450
f 448 449 450
f 449 176 175
f 449 177 176
f 178 177 449
f 178 449 179
f 179 449 180
f 451 447 438
f 450 437 448
f 551 449 448
f 180 449 551
f 219 221 229
f 219 220 221
f 219 533 220
f 233 234 235
f 220 252 221
f 256 249 251
f 255 249 256
f 249 250 251
f 256 535 531
f 549 452 535
f 459 535 452
f 459 532 535
f 461 532 459
f 459 460 461
f 461 460 462
f 461 462 463
f 469 462 460
f 469 460 443
f 443 460 458
f 443 458 439
f 439 458 457
f 452 457 458
f 454 457 452
f 452 453 454
f 468 462 469
f 469 445 468
f 459 458 460
f 452 458 459
f 549 453 452
f 220 533 534
f 550 533 219
f 549 455 453
f 436 456 550
f 454 453 455
f 438 456 436
f 446 457 454
f 326 438 447
f 316 329 326
f 439 457 446
f 316 328 329
f 300 328 316
f 439 327 443
f 443 444 469
f 298 299 300
f 298 300 330
f 330 300 305
f 469 444 445
f 468 445 442
f 468 442 467
f 467 464 468
f 330 305 331
f 304 305 300
f 300 318 304
f 300 317 318
f 317 373 318
f 304 318 372
f 367 366 368
f 365 366 367
f 367 374 365
f 365 374 375
f 365 375 363
f 363 375 376
f 344 376 375
f 344 375 349
f 338 376 344
f 363 376 361
f 363 364 365
f 363 362 364
f 372 318 373
f 349 375 374
f 379 373 317
f 316 317 300
f 315 314 355
f 303 316 326
f 355 314 352
f 303 322 319
f 303 321 322
f 473 321 320
f 352 353 354
f 475 525 523
f 523 525 524
f 354 347 356
f 523 524 522
f 522 524 348
f 521 348 524
f 356 347 349
f 521 520 348
f 349 350 344
f 518 351 520
f 344 345 338
f 346 518 336
f 336 518 519
f 519 343 336
f 519 342 343
f 517 342 519
f 517 341 342
f 341 340 342
f 339 340 341
f 339 369 340
f 339 415 369
f 424 415 339
f 417 415 424
f 424 512 417
f 417 512 513
f 417 513 418
f 417 418 419
f 419 420 417
f 483 420 419
f 483 492 420
f 478 420 492
f 478 421 420
f 422 421 478
f 423 422 478
f 479 423 478
f 415 423 479
f 416 415 479
f 479 482 416
f 479 481 482
f 480 481 479
f 479 478 480
f 422 423 417
f 417 421 422
f 480 478 492
f 480 492 483
f 480 483 484
f 484 483 485
f 490 485 483
f 489 485 490
f 488 485 489
f 489 510 488
f 488 510 269
f 510 270 269
f 489 511 510
f 269 485 488
f 269 487 485
f 271 487 269
f 486 485 487
f 490 511 489
f 490 516 511
f 490 515 516
f 491 515 490
f 491 514 515
f 418 514 491
f 490 483 491
f 484 485 486
f 491 483 419
f 417 420 421
f 491 419 418
f 418 513 514
f 517 512 424
f 417 423 415
f 369 415 416
f 369 416 410
f 410 411 369
f 411 412 369
f 369 412 413
f 369 413 389
f 389 370 369
f 369 370 359
f 359 370 371
f 359 371 357
f 399 357 371
f 399 358 357
f 399 371 401
f 401 371 389
f 401 389 409
f 409 389 408
f 389 407 408
f 389 406 407
f 404 406 389
f 404 389 405
f 389 414 405
f 401 402 399
f 399 402 403
f 399 403 400
f 357 358 359
f 370 389 371
f 389 413 414
f 340 369 378
f 424 339 341
f 424 341 517
f 340 343 342
f 340 336 343
f 337 336 340
f 338 377 376
f 340 378 337
f 359 378 369
f 361 376 377
f 361 362 363
f 359 358 360
f 435 358 399
f 398 399 400
f 395 428 397
f 395 392 426
f 498 427 499
f 426 425 395
f 431 425 432
f 431 429 430
f 364 362 429
f 365 364 366
f 368 366 383
f 385 384 383
f 433 434 388
f 434 427 386
f 387 384 385
f 498 386 427
f 502 498 495
f 500 501 502
f 382 381 387
f 539 538 501
f 310 538 537
f 309 381 382
f 309 308 311
f 310 537 306
f 307 333 308
f 334 333 440
f 440 441 442
f 467 442 441
f 548 542 537
f 540 766 541
f 536 762 548
f 594 567 762
f 565 566 567
f 562 565 591
f 564 563 686
f 560 561 562
f 560 562 558
f 557 711 558
f 557 568 711
f 711 568 710
f 573 574 575
f 557 559 568
f 589 585 559
f 573 586 587
f 585 589 599
f 612 611 599
f 596 611 610
f 608 672 609
f 610 643 644
f 682 674 672
f 681 674 682
f 644 645 646
f 646 642 647
f 678 677 647
f 679 681 682
f 676 680 677
f 681 673 674
f 650 661 680
f 649 661 650
f 673 660 658
f 656 638 657
f 657 669 656
f 656 669 670
f 656 670 637
f 637 670 671
f 739 671 670
f 739 666 671
f 774 666 739
f 774 667 666
f 600 666 667
f 600 667 648
f 648 667 668
f 648 668 662
f 662 668 775
f 775 668 774
f 775 774 776
f 776 774 733
f 774 738 733
f 776 733 778
f 664 776 778
f 664 778 777
f 778 780 777
f 777 780 779
f 779 784 777
f 777 784 785
f 777 785 782
f 777 782 665
f 665 782 773
f 665 773 663
f 663 664 665
f 663 662 664
f 663 773 648
f 772 648 773
f 772 741 648
f 648 741 601
f 601 741 742
f 742 602 601
f 600 601 602
f 600 602 603
f 602 626 603
f 603 626 627
f 603 627 628
f 628 627 629
f 745 629 627
f 743 629 745
f 743 623 629
f 624 623 743
f 743 744 624
f 744 746 624
f 624 746 748
f 746 747 748
f 748 747 749
f 748 749 750
f 750 749 723
f 619 750 723
f 625 750 619
f 618 625 619
f 618 619 620
f 618 624 625
f 625 748 750
f 624 748 625
f 623 624 618
f 631 623 618
f 630 629 623
f 745 627 626
f 745 626 742
f 742 626 602
f 779 783 784
f 781 783 779
f 781 266 783
f 267 266 781
f 781 780 267
f 780 737 267
f 780 736 737
f 733 736 780
f 267 737 735
f 267 735 734
f 734 268 267
f 779 780 781
f 777 665 664
f 662 776 664
f 778 733 780
f 662 775 776
f 648 662 663
f 648 601 600
f 668 667 774
f 738 774 739
f 637 671 666
f 606 673 658
f 656 637 638
f 637 666 600
f 603 632 600
f 605 606 607
f 603 633 632
f 597 604 605
f 597 634 595
f 628 633 603
f 628 629 630
f 595 634 635
f 630 623 631
f 618 636 631
f 595 635 598
f 618 616 636
f 587 586 598
f 615 588 587
f 620 616 618
f 617 584 615
f 620 619 621
f 723 621 619
f 721 720 740
f 617 622 580
f 580 579 617
f 556 583 579
f 554 556 576
f 576 708 554
f 770 713 708
f 577 740 578
f 740 720 717
f 771 703 770
f 684 703 702
f 768 705 704
f 768 706 705
f 685 702 700
f 700 707 701
f 767 699 701
f 769 706 768
f 159 157 768
f 158 151 130
f 162 152 160
f 126 153 150
f 150 127 126
f 127 163 164
f 164 140 132
f 165 132 131
f 165 131 166
f 166 131 128
f 125 130 151
f 166 128 165
f 156 130 129
f 156 129 759
f 767 759 760
f 128 131 753
f 767 760 761
f 752 753 131
f 696 698 761
f 135 756 752
f 696 695 697
f 692 694 756
f 690 691 692
f 714 695 693
f 712 714 686
f 686 687 564
f 715 691 716
f 687 765 766
f 689 764 716
f 764 294 546
f 765 544 766
f 543 544 545
f 467 545 547
f 294 284 546
f 283 284 285
f 467 547 464
f 468 464 462
f 465 283 289
f 462 466 463
f 290 528 529
f 290 527 528
f 463 530 461
f 222 528 527
f 461 530 532
f 532 531 535
f 531 255 256
f 255 250 249
f 251 250 233
f 253 244 231
f 233 232 234
f 232 238 234
f 232 237 238
f 236 237 232
f 241 242 243
f 239 261 240
f 231 244 241
f 253 217 244
f 239 260 261
f 257 206 260
f 217 248 245
f 216 246 247
f 218 217 253
f 223 218 224
f 222 223 224
f 222 527 227
f 216 228 225
f 259 226 225
f 526 527 290
f 258 257 259
f 289 288 290
f 204 203 258
f 202 203 204
f 289 282 288
f 204 287 202
f 184 286 282
f 202 201 203
f 183 184 185
f 191 188 185
f 190 189 201
f 187 192 189
f 187 193 192
f 194 193 195
f 55 181 182
f 182 53 55
f 196 195 197
f 198 197 199
f 181 55 59
f 75 60 76
f 61 55 54
f 78 52 79
f 53 54 55
f 182 51 53
f 79 52 50
f 48 49 50
f 188 51 182
f 191 43 188
f 47 49 48
f 3 2 24

