# https://github.com/mikedh/trimesh
v 0.05674513 0.04604306 0.00585845
v 0.05592477 0.05021373 0.00617720
v 0.05914271 0.04995987 0.00615570
v 0.05771657 0.05448249 0.00654643
v 0.05453429 0.05404610 0.00650771
v 0.05646553 0.05703873 0.00679511
v 0.05273078 0.05707583 0.00679483
v 0.05485540 0.05944220 0.00703548
v 0.05306185 0.06143627 0.00725766
v 0.05132049 0.05873429 0.00696224
v 0.04995760 0.06384934 0.00752606
v 0.04862189 0.06095912 0.00719882
v 0.04661416 0.06553248 0.00773768
v 0.04668428 0.06206292 0.00732150
v 0.04369811 0.06321129 0.00745296
v 0.04314817 0.06336346 0.00747067
v 0.04136684 0.06374976 0.00751591
v 0.03682562 0.06414956 0.00756319
v 0.03601819 0.06554838 0.00773208
v 0.03601792 0.06416047 0.00756441
v 0.03601063 0.06416029 0.00756446
v 0.06212005 0.02465380 0.00474921
v 0.06305265 -0.00014177 0.00436127
v 0.05991422 0.00768534 0.00439617
v 0.05942354 0.01937715 0.00459540
v 0.05917954 0.02309287 0.00469919
v 0.06106401 0.03606819 0.00523576
v 0.05966683 0.04711515 0.00593551
v 0.06095233 0.03707362 0.00528960
v 0.05799764 0.03607037 0.00523600
v 0.05821829 0.03401968 0.00513189
v 0.06300272 -0.00568011 0.00438018
v 0.06210889 -0.02479520 0.00475410
v 0.05957601 -0.01662960 0.00453173
v 0.05992446 -0.00723085 0.00439213
v 0.05995578 -0.00567391 0.00438013
v 0.06000603 -0.00017771 0.00436130
v 0.03597744 -0.06763968 0.00814358
v 0.03601311 -0.06415480 0.00756438
v 0.03925693 -0.06721237 0.00794088
v 0.04019141 -0.06391850 0.00753630
v 0.04249235 -0.06674194 0.00788111
v 0.04660508 -0.06553036 0.00773953
v 0.04429472 -0.06302097 0.00743142
v 0.04882174 -0.06450835 0.00760648
v 0.04758532 -0.06158468 0.00726846
v 0.05170942 -0.06261405 0.00738465
v 0.04942329 -0.06039026 0.00713754
v 0.05342289 -0.06107446 0.00721203
v 0.05197066 -0.05801984 0.00688968
v 0.05452442 -0.05985209 0.00707988
v 0.05680746 -0.05641168 0.00673541
v 0.05335787 -0.05616262 0.00670618
v 0.05766258 -0.05460879 0.00655959
v 0.05475935 -0.05354797 0.00646303
v 0.05510074 -0.05272817 0.00639033
v 0.05914944 -0.04992386 0.00615310
v 0.05601367 -0.04986673 0.00614928
v 0.05965239 -0.04719829 0.00594007
v 0.05674411 -0.04603517 0.00585610
v 0.06072652 -0.03902262 0.00539969
v 0.05765531 -0.03902897 0.00540003
v 0.06094405 -0.03714090 0.00529359
v 0.05847975 -0.03140634 0.00501024
v 0.05915307 -0.02344688 0.00471029
v 0.03582805 0.06758046 0.00791867
v 0.03937615 0.06720646 0.00793920
v 0.04233124 0.06677254 0.00788364
v 0.04275468 0.06668536 0.00787264
v 0.04642360 -0.06127864 0.00422603
v 0.04693769 -0.06101268 0.00419672
v 0.04303443 -0.06253693 0.00436808
v 0.04116528 -0.06292149 0.00441320
v 0.03587038 -0.06323045 0.00445468
v 0.03602891 -0.06323060 0.00445448
v 0.03668481 -0.06322888 0.00445340
v 0.04833309 -0.06017050 0.00410537
v 0.05100056 -0.05792799 0.00387229
v 0.05237433 -0.05628773 0.00371077
v 0.05415795 -0.05324146 0.00342982
v 0.05526453 -0.05027824 0.00317897
v 0.05618021 -0.04615283 0.00286418
v 0.05636272 -0.04492858 0.00277809
v 0.05765976 -0.03422638 0.00215240
v 0.05861759 -0.02344659 0.00172704
v 0.05887685 -0.01954841 0.00161825
v 0.05938262 -0.00750565 0.00141614
v 0.05947041 0.00000272 0.00138251
v 0.05938471 0.00742895 0.00141538
v 0.05909966 0.01545430 0.00152758
v 0.05864400 0.02309308 0.00171598
v 0.05805385 0.03026656 0.00197355
v 0.05618006 0.04615976 0.00286426
v 0.05636327 0.04493471 0.00277808
v 0.03587038 0.06323634 0.00445469
v 0.03602993 0.06323655 0.00445449
v 0.04009746 0.06306733 0.00443017
v 0.04344613 0.06243131 0.00435521
v 0.04674839 0.06111922 0.00420778
v 0.04854881 0.06002905 0.00408960
v 0.05117688 0.05774676 0.00385350
v 0.05245528 0.05618219 0.00370009
v 0.05254935 0.05605007 0.00368743
v 0.05434123 0.05283848 0.00339397
v 0.05497817 0.05118524 0.00325304
v 0.05607860 0.04675925 0.00290762
v 0.05934765 -0.05160207 0.00930402
v 0.05940760 -0.05065414 0.00832649
v 0.06011777 -0.04835912 0.00903596
v 0.03984903 -0.06808290 0.01107809
v 0.04320306 -0.06692904 0.00903807
v 0.04144980 -0.06785986 0.01104895
v 0.04303680 -0.06755441 0.01100928
v 0.03904532 -0.06816596 0.01108897
v 0.03743306 -0.06827998 0.01110395
v 0.03617058 -0.06832480 0.01110991
v 0.04886924 -0.06466278 0.00818412
v 0.04764969 -0.06606561 0.01081972
v 0.04460354 -0.06715876 0.01095829
v 0.05303792 -0.06260088 0.01040285
v 0.05050304 -0.06453887 0.01063181
v 0.04945282 -0.06516838 0.01070850
v 0.05717262 -0.05629998 0.00789057
v 0.05833595 -0.05469260 0.00958026
v 0.05695065 -0.05763656 0.00986621
v 0.05354327 -0.06117844 0.00780942
v 0.05556531 -0.05979466 0.01009079
v 0.05405598 -0.06160393 0.01028933
v 0.03617050 0.06833096 0.01110994
v 0.05705519 0.05745354 0.00984717
v 0.05756672 0.05645961 0.00974856
v 0.05723265 0.05617269 0.00785207
v 0.05868877 0.05374773 0.00949273
v 0.05892926 0.05303060 0.00942822
v 0.05943992 0.05050883 0.00829463
v 0.06011773 0.04836525 0.00903599
v 0.05996585 0.04828872 0.00850610
v 0.05575251 0.05954178 0.01006317
v 0.05363527 0.06107542 0.00776113
v 0.05328141 0.06238219 0.01037703
v 0.05119302 0.06408146 0.01057610
v 0.04873423 0.06472826 0.00815442
v 0.04844974 0.06569993 0.01077339
v 0.04549557 0.06689256 0.01092348
v 0.04304229 0.06696522 0.00902094
v 0.04241189 0.06769158 0.01102630
v 0.03673952 0.06831524 0.01110782
v 0.03926475 0.06815124 0.01108627
v 0.04084398 0.06795987 0.01106123
v 0.06125661 -0.04069563 0.00850532
v 0.06362312 0.00000307 0.00736128
v 0.06334978 -0.01514882 0.00750235
v 0.06235937 -0.03022325 0.00796169
v 0.06084029 0.04399170 0.00871932
v 0.06336704 0.01473820 0.00749445
v 0.06302328 0.02143943 0.00765161
v 0.06185253 0.03544332 0.00820724
v 0.03930704 0.09394979 0.08065799
v 0.03913662 0.09349760 0.07686374
v 0.03882980 0.09202631 0.07007578
v 0.03876988 0.09164485 0.06875500
v 0.03657437 0.07099082 0.02006572
v 0.03843616 0.08901893 0.06134493
v 0.03807197 0.08540530 0.05333297
v 0.03759060 0.07931492 0.04259827
v 0.03753478 0.07859439 0.04137034
v 0.03729184 0.07585462 0.03597872
v 0.03700892 0.07380652 0.02976261
v 0.03658970 0.07109112 0.02040536
v 0.04500397 -0.10137887 0.19918317
v 0.04654626 -0.10306033 0.23022386
v 0.04660253 -0.10311171 0.23135829
v 0.04420283 -0.10040534 0.18306375
v 0.04199731 -0.09764117 0.13867040
v 0.04222176 -0.09792534 0.14318781
v 0.04244621 -0.09820887 0.14770526
v 0.04654619 0.10306636 0.23022394
v 0.04660254 0.10311776 0.23135833
v 0.04512688 0.10153086 0.20165800
v 0.04579604 0.10229845 0.21512602
v 0.04519358 0.09901072 0.26146537
v 0.04319406 0.09755941 0.26651093
v 0.04624253 0.10040188 0.25662497
v 0.04663032 0.10126296 0.25336465
v 0.04698389 0.10263138 0.24609308
v 0.04694117 0.10317550 0.23987238
v 0.00102654 0.09187449 0.28600067
v 0.00519059 0.09191477 0.28589344
v 0.01228548 0.09209780 0.28531176
v 0.04318133 0.09755193 0.26653692
v 0.04057415 0.09628446 0.27093640
v 0.03844044 0.09551601 0.27359942
v 0.03723775 0.09515311 0.27485543
v 0.03351719 0.09425467 0.27795908
v 0.03223433 0.09400481 0.27882022
v 0.02915455 0.09349744 0.28056511
v 0.02449344 0.09291997 0.28254184
v 0.02401967 0.09287154 0.28270695
v 0.01855597 0.09242072 0.28423557
v 0.01407355 0.09217220 0.28506655
v 0.04214702 -0.09698603 0.26848119
v 0.04451411 -0.09843546 0.26345026
v 0.04706523 -0.09880134 0.26218951
v 0.04624252 -0.10039586 0.25662494
v 0.04837877 -0.10039595 0.25664201
v 0.04521207 -0.09902105 0.26140854
v 0.04498787 -0.09881842 0.26211333
v 0.00474837 -0.09132967 0.28791264
v 0.00102654 -0.09129495 0.28800085
v 0.00102654 -0.09186847 0.28600064
v 0.04513419 -0.09739068 0.26709381
v 0.04467023 -0.09712142 0.26802877
v 0.03979299 -0.09597591 0.27198613
v 0.04191969 -0.09583625 0.27248922
v 0.03844046 -0.09551033 0.27359959
v 0.03984629 -0.09510398 0.27502656
v 0.03650448 -0.09494561 0.27555224
v 0.03856489 -0.09472007 0.27635524
v 0.03258441 -0.09406471 0.27859384
v 0.03468738 -0.09378621 0.27958110
v 0.01318702 -0.09154902 0.28721181
v 0.00988549 -0.09201229 0.28557393
v 0.01407388 -0.09216646 0.28506652
v 0.01753527 -0.09176455 0.28649491
v 0.01729527 -0.09233517 0.28450328
v 0.01956308 -0.09189475 0.28605691
v 0.02525128 -0.09238426 0.28439519
v 0.02332551 -0.09279887 0.28293899
v 0.02402019 -0.09286696 0.28270710
v 0.03015733 -0.09299649 0.28229916
v 0.02831152 -0.09337223 0.28097543
v 0.03223265 -0.09399870 0.27882117
v 0.00102654 -0.08757413 0.28600064
v 0.04667699 -0.10138214 0.25282922
v 0.04698389 -0.10262533 0.24609303
v 0.04693959 -0.10317188 0.23980731
v 0.04048596 -0.09561279 0.10664670
v 0.04119668 -0.09662118 0.12253965
v 0.03942608 -0.09413679 0.08329749
v 0.04040339 -0.09550305 0.10490349
v 0.03657436 -0.07098466 0.02006568
v 0.03658969 -0.07108498 0.02040533
v 0.03707191 -0.07418016 0.03109699
v 0.03733236 -0.07623313 0.03687207
v 0.03759060 -0.07930879 0.04259823
v 0.03799064 -0.08443341 0.05146857
v 0.03834971 -0.08822171 0.05943056
v 0.03869428 -0.09110953 0.06707088
v 0.03882980 -0.09202020 0.07007574
v 0.03913806 -0.09349887 0.07691115
v 0.04698353 0.10144351 0.20165800
v 0.05098353 0.09908450 0.19765799
v 0.05089798 0.09917238 0.19848071
v 0.04881676 0.10054587 0.20121317
v 0.04948963 0.10014001 0.20077564
v 0.05019863 0.09967786 0.20003779
v 0.05062695 0.09937854 0.19930892
v 0.04703421 0.10144092 0.20165767
v 0.04708488 0.10143827 0.20165674
v 0.05098353 0.09856255 0.18717010
v 0.05098353 0.09390567 0.13998953
v 0.05098353 0.09777571 0.18105115
v 0.05098353 0.09774037 0.18075921
v 0.05098353 0.09768551 0.18030481
v 0.05098353 0.09763082 0.17985040
v 0.05098353 0.09582875 0.16355525
v 0.05098353 0.09249204 0.12249422
v 0.05098353 0.09086586 0.10501489
v 0.05098353 0.08995179 0.09607893
v 0.05098353 0.08874942 0.08465800
v 0.05098353 0.09443623 0.14721087
v 0.05095331 0.08872356 0.08416741
v 0.05063090 0.08888030 0.08301552
v 0.05068613 0.08884673 0.08314444
v 0.05039794 0.08902468 0.08257407
v 0.05032008 0.08907662 0.08245176
v 0.04956646 0.08958700 0.08160372
v 0.04879481 0.09009960 0.08109149
v 0.04758429 0.09085399 0.08070323
v 0.04698353 0.09120248 0.08065799
v 0.04849995 0.09028944 0.08095632
v 0.04229039 0.09320284 0.08065799
v 0.04469300 0.09232880 0.08065799
v 0.05508112 0.09489649 0.18030801
v 0.05289010 0.09447604 0.16371961
v 0.05641757 0.09127746 0.16315135
v 0.05452129 0.09160689 0.14688838
v 0.05957163 0.08763810 0.16255653
v 0.05777734 0.08814038 0.14654700
v 0.06241480 0.08359485 0.16196926
v 0.05942253 0.08599029 0.14636323
v 0.06740648 0.07429292 0.16087355
v 0.07160637 0.06372624 0.16009450
v 0.07040083 0.06299618 0.14497146
v 0.06708748 0.07159081 0.14542416
v 0.06489357 0.07649663 0.14570777
v 0.06300916 0.08019909 0.14594153
v 0.06876424 0.07363717 0.16848435
v 0.07254600 0.06407634 0.16741666
v 0.07394072 0.06442863 0.17487054
v 0.07193967 0.06966633 0.17553553
v 0.06967060 0.07478326 0.17627446
v 0.06387661 0.08289111 0.16980310
v 0.06522408 0.08294331 0.17766748
v 0.06099284 0.08713130 0.17053555
v 0.06225916 0.08727469 0.17853954
v 0.05773840 0.09104242 0.17128767
v 0.05889842 0.09129892 0.17943738
v 0.05405209 0.09452916 0.17201322
v 0.05362250 0.08577430 0.08262032
v 0.05495456 0.08405669 0.08264080
v 0.06348080 0.06732404 0.08278669
v 0.05991733 0.07547265 0.08272053
v 0.06035347 0.07655719 0.09392343
v 0.05924413 0.07683037 0.08271001
v 0.05555059 0.08474053 0.09385697
v 0.05659207 0.08160169 0.08266873
v 0.06625320 0.06000794 0.08283820
v 0.06340027 0.07202875 0.10515591
v 0.06773142 0.06108404 0.10520854
v 0.05386817 0.08821786 0.10504620
v 0.05679287 0.08451862 0.10507887
v 0.05981198 0.07951077 0.10511353
v 0.06100620 0.07719735 0.10512749
v 0.04751215 0.10175182 0.20731075
v 0.04903724 0.10297094 0.23135100
v 0.04899665 0.10293270 0.23050199
v 0.06802210 0.06129461 0.10959657
v 0.06129149 0.08007762 0.12549822
v 0.05612989 0.08797464 0.12576219
v 0.05294267 0.09125714 0.12588382
v 0.05345721 0.09180123 0.13721713
v 0.06889721 0.06192501 0.12276051
v 0.06881139 0.06186402 0.12147208
v 0.06547090 0.07119626 0.12520584
v 0.06804293 0.06130946 0.10990985
v 0.05665958 0.08855686 0.13699740
v 0.06976651 0.06255016 0.13571517
v 0.06616303 0.07180701 0.13609996
v 0.06191685 0.08071721 0.13655372
v 0.06947886 0.06001582 0.12281353
v 0.07426975 0.06348737 0.17476010
v 0.07036876 0.06064729 0.13584140
v 0.07152779 0.06143856 0.15210620
v 0.07222393 0.06182156 0.15995808
v 0.07458495 0.06254096 0.17465323
v 0.06677690 0.05808315 0.08284310
v 0.07638642 0.04704712 0.16256274
v 0.07493944 0.04659541 0.15113504
v 0.07281310 0.04569039 0.12821414
v 0.07477916 0.03043345 0.12780139
v 0.07118562 0.02576874 0.08281165
v 0.06940139 0.04196192 0.08282436
v 0.07627933 0.00000263 0.12836754
v 0.07226529 0.00000305 0.08280397
v 0.07211345 0.00967096 0.08280504
v 0.07586542 0.01505685 0.12758034
v 0.07835112 0.01536685 0.15014516
v 0.07877459 0.00000244 0.15056297
v 0.08005220 0.01552253 0.16138887
v 0.08081251 0.00000271 0.16332211
v 0.08080709 0.03402288 0.17245674
v 0.08111741 0.03151099 0.17234205
v 0.07878052 0.03136511 0.16179973
v 0.08223516 0.01908430 0.17192549
v 0.07735620 0.05283327 0.17369707
v 0.07823272 0.04904520 0.17338768
v 0.07948171 0.04270344 0.17294055
v 0.07715978 0.03105454 0.15049127
v 0.08277820 0.00536107 0.17172144
v 0.08282245 0.00000303 0.17170569
v 0.06463876 0.05678542 0.05588149
v 0.06745329 0.04744447 0.06932561
v 0.06719681 0.04068301 0.05588149
v 0.06905880 0.03555486 0.06930971
v 0.07020811 0.02361255 0.06929833
v 0.06891469 0.02451169 0.05588150
v 0.07089444 0.01164068 0.06929154
v 0.06977740 0.00843432 0.05588150
v 0.06989367 0.00000306 0.05588147
v 0.06407833 0.04935068 0.03794413
v 0.06281813 0.05593057 0.03793714
v 0.06513401 0.04229623 0.03794476
v 0.06186017 0.04904349 0.02006544
v 0.06039229 0.05509721 0.02006536
v 0.06176835 0.05552886 0.02934308
v 0.06248457 0.04506153 0.02006563
v 0.06415784 0.03179874 0.02006564
v 0.06676111 0.02813574 0.03794544
v 0.06540062 0.01591551 0.02006565
v 0.06735475 0.00000307 0.03180842
v 0.06581599 0.00000307 0.02006566
v 0.04075076 0.07314585 0.02857811
v 0.06120598 0.05744665 0.02918231
v 0.06144711 0.06017121 0.03631364
v 0.06232220 0.05786281 0.03763561
v 0.05901630 0.06450988 0.03406936
v 0.06023883 0.06819206 0.04946265
v 0.06224990 0.06387746 0.05211610
v 0.06413689 0.05870534 0.05530725
v 0.05812469 0.07118241 0.04761901
v 0.05489280 0.07128719 0.03935325
v 0.05538329 0.07372969 0.04604460
v 0.05033147 0.07363459 0.03793406
v 0.05215748 0.07573099 0.04480833
v 0.04526645 0.07503938 0.03690188
v 0.04803972 0.07742611 0.04376392
v 0.03992432 0.07568895 0.03616851
v 0.04179361 0.07886469 0.04287696
v 0.04369848 0.07853869 0.04307762
v 0.04227630 0.07044250 0.02006179
v 0.04443857 0.06998357 0.02006087
v 0.04608530 0.07233647 0.02946665
v 0.05109306 0.07069848 0.03064161
v 0.05046466 0.06765841 0.02006423
v 0.04678918 0.06928535 0.02006162
v 0.05656978 0.06252490 0.02006539
v 0.05549972 0.06376493 0.02006533
v 0.05551141 0.06808798 0.03216237
v 0.05371365 0.06544632 0.02006468
v 0.05220427 0.06658663 0.02006411
v 0.05876324 0.05910577 0.02006546
v 0.05941373 0.05772777 0.02006621
v 0.05972420 0.05698222 0.02006596
v 0.05027834 0.08875580 0.07921037
v 0.05308349 0.08568032 0.07692562
v 0.05072032 0.08833908 0.07891084
v 0.05536432 0.08227247 0.07408718
v 0.05743945 0.07831118 0.07025171
v 0.05932427 0.07389858 0.06527303
v 0.06117810 0.06835044 0.05822861
v 0.04029220 0.09270974 0.07410376
v 0.05677902 0.07271498 0.04711663
v 0.05806298 0.07297581 0.05212541
v 0.05341521 0.07627774 0.04782426
v 0.04585196 0.09115946 0.07609056
v 0.04993702 0.08842729 0.07507136
v 0.04434413 0.09066863 0.07117890
v 0.04098091 0.08370448 0.05121681
v 0.04538798 0.08172602 0.04987711
v 0.04743744 0.07789015 0.04416088
v 0.06038606 0.06857847 0.05167728
v 0.06105172 0.06835950 0.05680566
v 0.05803245 0.07687910 0.06794127
v 0.05338728 0.08493586 0.07424638
v 0.05550853 0.08114538 0.06850403
v 0.04952804 0.08403865 0.05931407
v 0.04756558 0.08307912 0.05450364
v 0.04319445 0.08530483 0.05572415
v 0.04067510 0.08858722 0.06166854
v 0.05900535 0.07293724 0.05722193
v 0.05510952 0.07692450 0.05271067
v 0.05644277 0.07717659 0.05773956
v 0.05737180 0.07713068 0.06283218
v 0.04957118 0.07927953 0.04873684
v 0.05157558 0.08030482 0.05349287
v 0.05328177 0.08091209 0.05842240
v 0.05457870 0.08117568 0.06344181
v 0.04526095 0.08655650 0.06041164
v 0.05115598 0.08466722 0.06422953
v 0.04709804 0.08751634 0.06521314
v 0.05242584 0.08496988 0.06921145
v 0.04866929 0.08816922 0.07010184
v 0.05647196 0.09430797 0.18310776
v 0.05496984 0.09595741 0.18650600
v 0.06158597 0.08888746 0.18184374
v 0.06249115 0.08771918 0.18159020
v 0.06810635 0.07878499 0.17987567
v 0.07018636 0.07465536 0.17920515
v 0.06202845 0.08867704 0.18481386
v 0.06551274 0.08359804 0.18376900
v 0.06903591 0.07731880 0.18263870
v 0.07052607 0.07428835 0.18215288
v 0.05688625 0.09434471 0.18611328
v 0.05855881 0.09272451 0.18572925
v 0.06091083 0.09008557 0.18512478
v 0.08342803 0.00000303 0.17454349
v 0.07505859 0.06307206 0.18064216
v 0.07790405 0.05355844 0.17966312
v 0.07905991 0.04873783 0.17925566
v 0.08009432 0.04367799 0.17888479
v 0.08108894 0.03781712 0.17852147
v 0.08177899 0.03285929 0.17826489
v 0.08294749 0.02089097 0.17781857
v 0.08362708 0.00000303 0.17754295
v 0.08354358 0.00780283 0.17757899
v 0.05387764 0.09698381 0.19522046
v 0.05382043 0.09711273 0.20755629
v 0.06033151 0.08991395 0.20724510
v 0.06050883 0.09025821 0.19494040
v 0.06596047 0.08217399 0.19460697
v 0.07044298 0.07429717 0.18479675
v 0.06951671 0.07427445 0.20247893
v 0.06505939 0.08082182 0.21898256
v 0.06807420 0.07423174 0.21759607
v 0.06347344 0.08142561 0.23110951
v 0.06627339 0.07412558 0.23085417
v 0.06035021 0.08905292 0.21927248
v 0.06040747 0.08787251 0.23120998
v 0.05713625 0.09339925 0.23120503
v 0.05459694 0.09656576 0.21948741
v 0.05478016 0.09670218 0.23119338
v 0.05044298 0.09989211 0.20752884
v 0.05301314 0.09887347 0.23120619
v 0.06566810 0.08162855 0.20682620
v 0.07620559 0.01786453 0.22823012
v 0.07966190 0.01830391 0.21140096
v 0.07808807 0.03727412 0.21155930
v 0.08063036 0.00000320 0.20703663
v 0.08253814 0.00000303 0.19168933
v 0.08191579 0.01866095 0.19436869
v 0.07356416 0.06546606 0.19411471
v 0.07638786 0.05630636 0.19430581
v 0.07856525 0.04698777 0.19443205
v 0.08016431 0.03758948 0.19447932
v 0.07999188 0.00000305 0.21103813
v 0.07823163 0.00000323 0.22044648
v 0.07527806 0.00000299 0.23287849
v 0.06633388 0.06255973 0.24424204
v 0.06776126 0.05510708 0.24425387
v 0.06983237 0.05547928 0.23682034
v 0.06851002 0.05046459 0.24426010
v 0.07258540 0.03661086 0.23678216
v 0.07006050 0.03809533 0.24427199
v 0.07120875 0.02335224 0.24428138
v 0.06360917 0.07359358 0.24422123
v 0.06432863 0.07377682 0.24115641
v 0.06525836 0.07397413 0.23665483
v 0.06950235 0.06505937 0.22830567
v 0.07476914 0.03687461 0.22844538
v 0.07348350 0.04634533 0.22845578
v 0.07174714 0.05575489 0.22840711
v 0.07201529 0.06530587 0.21126896
v 0.07461395 0.05608227 0.21142948
v 0.07661963 0.04671472 0.21153066
v 0.07177447 0.00694415 0.24428578
v 0.07182527 0.00000301 0.24428631
v 0.06405549 0.07665209 0.23830099
v 0.04932276 0.10306119 0.23986568
v 0.05219867 0.09991010 0.23879398
v 0.05480772 0.09641012 0.23877518
v 0.05919925 0.08869980 0.23867266
v 0.06310337 0.07414503 0.24550067
v 0.06327795 0.07355947 0.24547093
v 0.05964721 0.08428381 0.24591069
v 0.05768400 0.08896808 0.24602009
v 0.05629383 0.09188040 0.24606179
v 0.05283568 0.09788959 0.24609505
v 0.04933237 0.10255969 0.24609147
v 0.05271514 0.09570795 0.25200510
v 0.05730227 0.07981378 0.25749350
v 0.04899444 0.09407233 0.26338020
v 0.05220800 0.08657283 0.26333642
v 0.05448246 0.08754742 0.25776023
v 0.05630747 0.08835170 0.25191972
v 0.05078316 0.08262768 0.26802883
v 0.05381317 0.07193662 0.26802829
v 0.05744782 0.07265443 0.26139677
v 0.06064204 0.07320674 0.25381216
v 0.04801641 0.09011021 0.26802880
v 0.04888722 0.10137144 0.25284100
v 0.04837878 0.10040197 0.25664204
v 0.05108665 0.09498529 0.25783813
v 0.04706125 0.09880373 0.26220214
v 0.04500234 0.09731814 0.26736668
v 0.04467024 0.09712744 0.26802880
v 0.03075879 0.08671810 0.28391144
v 0.03008061 0.09299117 0.28233793
v 0.02509119 0.09237356 0.28445223
v 0.01944047 0.09189241 0.28608558
v 0.01844427 0.07765038 0.29024416
v 0.01753526 0.09177075 0.28649491
v 0.01535847 0.07701907 0.29100865
v 0.01302873 0.09154903 0.28723288
v 0.00501520 0.07834209 0.29180473
v 0.00474837 0.09133569 0.28791267
v 0.00471790 0.07836201 0.29181695
v 0.02513767 0.07890760 0.28815714
v 0.03156784 0.08019767 0.28534862
v 0.03651013 0.08787505 0.28045258
v 0.03449927 0.09375390 0.27971318
v 0.04570864 0.09060769 0.27092731
v 0.04188773 0.09582968 0.27253294
v 0.04155504 0.08918136 0.27608892
v 0.03984646 0.09510994 0.27502671
v 0.03843263 0.09468889 0.27648380
v 0.03755775 0.08152344 0.28170443
v 0.04032953 0.06889860 0.28325659
v 0.04550572 0.07011651 0.27862951
v 0.03458970 0.06748024 0.28724435
v 0.03433390 0.06774186 0.28730765
v 0.03220968 0.06964727 0.28784958
v 0.02020114 0.07582671 0.29035154
v 0.02677448 0.07321727 0.28912869
v 0.04289512 0.08287813 0.27718836
v 0.04741379 0.08423907 0.27189034
v 0.04997702 0.07112001 0.27353615
v 0.05155414 0.01801607 0.28309152
v 0.05375886 0.02446949 0.27943373
v 0.05236970 0.03378738 0.27986050
v 0.05299585 0.05310821 0.27477291
v 0.05672387 0.05387390 0.26918405
v 0.06003147 0.05452266 0.26326820
v 0.05960044 0.03526881 0.26858193
v 0.06126856 0.06429410 0.25719279
v 0.06293711 0.05506092 0.25709289
v 0.06552251 0.03645942 0.25635490
v 0.06738446 0.01778841 0.25506362
v 0.06728973 0.00000319 0.25620437
v 0.07128553 0.00000310 0.24585865
v 0.05214968 0.00000301 0.28297648
v 0.05777714 0.00000235 0.27466628
v 0.05486111 0.01510235 0.27875286
v 0.04386476 0.05272762 0.28470162
v 0.04446191 0.05126725 0.28455225
v 0.04884231 0.05222194 0.27997068
v 0.04683913 0.04439519 0.28399906
v 0.04904414 0.03575225 0.28354749
v 0.06298304 0.00000301 0.26541534
v 0.06171821 0.01653156 0.26727796
v 0.06076742 0.02591124 0.26801705
v 0.05616113 0.03456661 0.27436358
v 0.03990194 0.06050662 0.28577057
v 0.00102654 0.07850065 0.29190367
v 0.00102654 0.09130096 0.28800088
v 0.06208382 0.04400943 0.01493199
v 0.06287935 0.03771907 0.01473237
v 0.06407339 0.02508667 0.01442746
v 0.06473077 0.01240605 0.01423332
v 0.06485555 0.00000307 0.01418422
v 0.06320240 0.03824565 0.01755014
v 0.06447536 0.02543634 0.01738706
v 0.06109031 0.04872014 0.01507118
v 0.05798190 0.05782217 0.01423812
v 0.06022493 0.05221142 0.01469146
v 0.05431925 0.06279075 0.01414586
v 0.04922128 0.06653240 0.01457066
v 0.04330099 0.06886052 0.01548716
v 0.05336765 -0.09620921 0.18064347
v 0.04949663 -0.09859205 0.18127054
v 0.04891046 -0.09714095 0.16421935
v 0.06674469 -0.07570592 0.16102268
v 0.07160637 -0.06372017 0.16009447
v 0.07254600 -0.06407026 0.16741665
v 0.07040083 -0.06299010 0.14497143
v 0.06620113 -0.07364306 0.14554021
v 0.06411944 -0.07806811 0.14580482
v 0.06070422 -0.08409655 0.14621584
v 0.06082249 -0.08595071 0.16230255
v 0.05782380 -0.08807752 0.14654186
v 0.05718650 -0.08883703 0.14661141
v 0.05734602 -0.09028304 0.16298398
v 0.05296181 -0.09295261 0.14703749
v 0.05340309 -0.09405635 0.16364393
v 0.05092265 -0.09447172 0.14721586
v 0.04803316 -0.09619120 0.14743097
v 0.04410082 -0.09925015 0.16460966
v 0.04278305 -0.09820592 0.14769547
v 0.04549293 -0.10028080 0.18172489
v 0.05459034 -0.09407041 0.17191623
v 0.05563887 -0.09442330 0.18019120
v 0.06000333 -0.09006456 0.17915466
v 0.05870131 -0.08996687 0.17107521
v 0.06533717 -0.08275528 0.17763293
v 0.07394072 -0.06442256 0.17487051
v 0.07193967 -0.06966025 0.17553550
v 0.06813258 -0.07499684 0.16865870
v 0.06967060 -0.07477719 0.17627442
v 0.06538478 -0.08033238 0.16940483
v 0.06226838 -0.08534724 0.17021732
v 0.06041059 -0.07643555 0.09392619
v 0.06773142 -0.06107794 0.10520851
v 0.06356846 -0.07163402 0.10515793
v 0.06625320 -0.06000184 0.08283817
v 0.06385927 -0.06636794 0.08279518
v 0.06254596 -0.06960429 0.08277205
v 0.05996798 -0.07536374 0.08272776
v 0.05654759 -0.08166315 0.08267148
v 0.05559896 -0.08466788 0.09385957
v 0.05499960 -0.08398242 0.08264701
v 0.04276538 -0.09320427 0.08247051
v 0.04684532 -0.09143834 0.08252691
v 0.04625079 -0.09273224 0.09374055
v 0.05025047 -0.08914550 0.08257553
v 0.05092337 -0.08975826 0.09379865
v 0.05158662 -0.08796476 0.08259514
v 0.05326629 -0.08619110 0.08262032
v 0.04574028 -0.09391259 0.10495909
v 0.05080626 -0.09099665 0.10501292
v 0.06106389 -0.07707494 0.10512820
v 0.05833310 -0.08210924 0.10509647
v 0.05499412 -0.08691799 0.10505874
v 0.04559072 -0.10135238 0.19916177
v 0.04782053 -0.10304215 0.23135462
v 0.04550795 -0.10029206 0.18191449
v 0.04580856 -0.10051639 0.18571077
v 0.04597676 -0.10063267 0.18771525
v 0.04641498 -0.10094987 0.19316438
v 0.04751151 -0.10174493 0.20729980
v 0.04870072 -0.10266607 0.22497526
v 0.04903724 -0.10296490 0.23135096
v 0.04549445 -0.10028193 0.18174408
v 0.04196682 -0.09742540 0.13525176
v 0.04145438 -0.09685060 0.12615791
v 0.04655685 -0.09525824 0.12607387
v 0.04223313 -0.09770057 0.13962105
v 0.04223188 -0.09769931 0.13960043
v 0.04716236 -0.09586912 0.13756488
v 0.04220761 -0.09767476 0.13921063
v 0.04275613 -0.09818321 0.14733182
v 0.06805043 -0.06130882 0.11002188
v 0.06889721 -0.06191891 0.12276048
v 0.06454631 -0.07333723 0.12527458
v 0.06976592 -0.06254303 0.13571529
v 0.06522669 -0.07396129 0.13620514
v 0.05193428 -0.09302101 0.13731152
v 0.05607564 -0.08921930 0.13703977
v 0.05140674 -0.09247777 0.12593545
v 0.05555271 -0.08864594 0.12578604
v 0.05899939 -0.08399951 0.12562893
v 0.05957872 -0.08462280 0.13676713
v 0.04141783 -0.09690446 0.12700757
v 0.06947886 -0.06000971 0.12281350
v 0.07036876 -0.06064120 0.13584137
v 0.07222393 -0.06181547 0.15995805
v 0.07458495 -0.06253488 0.17465320
v 0.07426975 -0.06348128 0.17476007
v 0.07152779 -0.06143248 0.15210617
v 0.06677690 -0.05807702 0.08284307
v 0.07118564 -0.02576263 0.08281164
v 0.07477916 -0.03042736 0.12780137
v 0.07281310 -0.04568430 0.12821412
v 0.08005220 -0.01551647 0.16138886
v 0.07835112 -0.01536078 0.15014514
v 0.08080477 -0.03401632 0.17245916
v 0.07946363 -0.04280183 0.17294881
v 0.07638642 -0.04704103 0.16256273
v 0.07823366 -0.04903922 0.17338896
v 0.07734967 -0.05285505 0.17370047
v 0.08221471 -0.01940519 0.17193487
v 0.08276952 -0.00583956 0.17172524
v 0.07586542 -0.01505074 0.12758033
v 0.07211346 -0.00966485 0.08280504
v 0.06940142 -0.04195581 0.08282434
v 0.07493944 -0.04658932 0.15113503
v 0.07715978 -0.03104845 0.15049125
v 0.07878052 -0.03135902 0.16179971
v 0.08108717 -0.03174124 0.17235488
v 0.06574840 -0.05742813 0.06934250
v 0.06745329 -0.04743833 0.06932559
v 0.07089444 -0.01163457 0.06929153
v 0.06977194 -0.00862379 0.05588149
v 0.07020811 -0.02360640 0.06929831
v 0.06890590 -0.02461440 0.05588138
v 0.06905880 -0.03554873 0.06930970
v 0.06719401 -0.04069788 0.05588133
v 0.06463876 -0.05677931 0.05588146
v 0.06415781 -0.03179276 0.02006553
v 0.06540061 -0.01590943 0.02006556
v 0.06407833 -0.04934454 0.03794411
v 0.06513401 -0.04229010 0.03794474
v 0.06281813 -0.05592442 0.03793711
v 0.06176835 -0.05552271 0.02934305
v 0.06248448 -0.04505560 0.02006509
v 0.06186017 -0.04903734 0.02006541
v 0.06039229 -0.05509105 0.02006533
v 0.03835436 -0.07925246 0.04263321
v 0.05870114 -0.05922192 0.02006592
v 0.05941655 -0.05772269 0.02006569
v 0.05901630 -0.06450374 0.03406933
v 0.05551140 -0.06808183 0.03216233
v 0.05109306 -0.07069233 0.03064157
v 0.05220439 -0.06658071 0.02006390
v 0.05370702 -0.06544665 0.02006445
v 0.05549975 -0.06375876 0.02006637
v 0.05640599 -0.06272152 0.02006714
v 0.04608529 -0.07233033 0.02946662
v 0.04075076 -0.07313970 0.02857807
v 0.04232106 -0.07042846 0.02006174
v 0.04443869 -0.06997770 0.02006125
v 0.04681350 -0.06927094 0.02006227
v 0.05046454 -0.06765208 0.02006427
v 0.04391894 -0.07848904 0.04310410
v 0.05972420 -0.05697608 0.02006593
v 0.06120598 -0.05744052 0.02918229
v 0.06144711 -0.06016508 0.03631362
v 0.06232220 -0.05785668 0.03763559
v 0.06301629 -0.05815167 0.04369599
v 0.03992432 -0.07568283 0.03616847
v 0.04526645 -0.07503325 0.03690184
v 0.04810959 -0.07739712 0.04377792
v 0.05033147 -0.07362846 0.03793403
v 0.05232750 -0.07563678 0.04486239
v 0.05489280 -0.07128105 0.03935322
v 0.05544502 -0.07367618 0.04607297
v 0.05814800 -0.07115082 0.04763473
v 0.06025198 -0.06816057 0.04947655
v 0.06224990 -0.06387133 0.05211606
v 0.06413689 -0.05869920 0.05530722
v 0.06103030 -0.06885809 0.05890713
v 0.06127988 -0.06985508 0.06743793
v 0.05910008 -0.07446589 0.06595139
v 0.05284426 -0.08598037 0.07716486
v 0.05108759 -0.08796923 0.07865027
v 0.05016590 -0.08885200 0.07928459
v 0.04719800 -0.09109424 0.08087756
v 0.04374965 -0.09283219 0.08217396
v 0.05516390 -0.08260439 0.07438788
v 0.05723576 -0.07873268 0.07069747
v 0.04115846 -0.09299560 0.07675025
v 0.04314609 -0.08001751 0.04547258
v 0.04744936 -0.07789246 0.04418585
v 0.04959561 -0.07928769 0.04879111
v 0.06039972 -0.06856982 0.05176809
v 0.05342253 -0.08492149 0.07445964
v 0.05246537 -0.08496831 0.06939213
v 0.04998375 -0.08842267 0.07528250
v 0.04072256 -0.08861247 0.06177930
v 0.03872421 -0.08176229 0.04693834
v 0.04440319 -0.09068792 0.07135426
v 0.04590923 -0.09116380 0.07629970
v 0.06106540 -0.06834660 0.05692817
v 0.05343641 -0.07628138 0.04788025
v 0.05160896 -0.08031303 0.05357902
v 0.05513675 -0.07692618 0.05279886
v 0.05331761 -0.08091597 0.05854138
v 0.05646934 -0.07717238 0.05786059
v 0.05461136 -0.08117269 0.06359296
v 0.05739462 -0.07711960 0.06298511
v 0.05553681 -0.08113335 0.06868710
v 0.05679565 -0.07271368 0.04717436
v 0.05808282 -0.07297144 0.05221524
v 0.05902370 -0.07292727 0.05734409
v 0.05805355 -0.07686119 0.06812553
v 0.04100718 -0.08371908 0.05126812
v 0.04541404 -0.08173791 0.04992980
v 0.04323273 -0.08532388 0.05580594
v 0.04760274 -0.08309335 0.05458760
v 0.04530761 -0.08657644 0.06052504
v 0.04872042 -0.08817975 0.07027966
v 0.05119914 -0.08467503 0.06437789
v 0.04714920 -0.08753465 0.06535835
v 0.04957106 -0.08405117 0.05943035
v 0.06162055 -0.08919764 0.18492912
v 0.06085560 -0.09014729 0.18513992
v 0.05036857 -0.09887735 0.18725437
v 0.05793795 -0.09334383 0.18587629
v 0.05434075 -0.09642697 0.18662407
v 0.06563266 -0.08339868 0.18373151
v 0.06916288 -0.07706345 0.18259673
v 0.07052607 -0.07428227 0.18215284
v 0.08354368 -0.00777517 0.17757937
v 0.08290467 -0.02147914 0.17783612
v 0.08177998 -0.03285686 0.17826505
v 0.08108999 -0.03781135 0.17852150
v 0.08003520 -0.04398401 0.17890604
v 0.07905953 -0.04873167 0.17925577
v 0.07789629 -0.05358223 0.17966832
v 0.07505859 -0.06306598 0.18064213
v 0.06593756 -0.08220725 0.19460836
v 0.06564634 -0.08166249 0.20682791
v 0.06027455 -0.08998270 0.20724910
v 0.06956138 -0.07427011 0.20186040
v 0.05033353 -0.09996532 0.20752472
v 0.05011060 -0.09947746 0.19525200
v 0.05705555 -0.09351503 0.23120406
v 0.05478016 -0.09669619 0.23119351
v 0.05450943 -0.09665783 0.21948940
v 0.05324146 -0.09860017 0.23120165
v 0.06009104 -0.08845618 0.23121262
v 0.06030045 -0.08912187 0.21927494
v 0.06051208 -0.08766844 0.23120886
v 0.06503988 -0.08085560 0.21898398
v 0.06364874 -0.08100718 0.23109874
v 0.06808980 -0.07422532 0.21744874
v 0.06045164 -0.09032412 0.19494358
v 0.05377669 -0.09705640 0.19522271
v 0.05372431 -0.09719448 0.20755774
v 0.06627339 -0.07411953 0.23085412
v 0.05206907 -0.09993272 0.23122165
v 0.08191579 -0.01865490 0.19436868
v 0.07966190 -0.01829787 0.21140094
v 0.07808807 -0.03726806 0.21155928
v 0.07620559 -0.01785850 0.22823010
v 0.06417051 -0.07373219 0.24185896
v 0.06950235 -0.06505334 0.22830564
v 0.07356416 -0.06546001 0.19411469
v 0.06360917 -0.07358753 0.24422118
v 0.06593271 -0.06439983 0.24423888
v 0.06631679 -0.06263455 0.24424189
v 0.06763379 -0.05583354 0.24425274
v 0.07174714 -0.05574884 0.22840708
v 0.07348350 -0.04633930 0.22845577
v 0.06842058 -0.05104676 0.24425940
v 0.07476914 -0.03686856 0.22844537
v 0.07008854 -0.03781297 0.24427216
v 0.07120086 -0.02348816 0.24428113
v 0.07177410 -0.00696721 0.24428581
v 0.07856525 -0.04698171 0.19443204
v 0.08016431 -0.03758343 0.19447930
v 0.07638786 -0.05630030 0.19430578
v 0.07201529 -0.06529982 0.21126893
v 0.07461395 -0.05607622 0.21142945
v 0.07661963 -0.04670866 0.21153061
v 0.04929819 -0.10308491 0.23868543
v 0.05219867 -0.09990405 0.23879394
v 0.05480771 -0.09640407 0.23877513
v 0.05301630 -0.09760853 0.24609435
v 0.04933237 -0.10255366 0.24609143
v 0.04932293 -0.10305487 0.23988011
v 0.05914381 -0.08554705 0.24594587
v 0.05768408 -0.08896207 0.24602008
v 0.05919924 -0.08869376 0.23867261
v 0.05620058 -0.09205895 0.24606356
v 0.06405549 -0.07664602 0.23830095
v 0.06245825 -0.07623764 0.24560282
v 0.06327795 -0.07355344 0.24547088
v 0.05630747 -0.08834568 0.25191969
v 0.05730227 -0.07980776 0.25749347
v 0.06038475 -0.07316035 0.25450623
v 0.05739678 -0.07263878 0.26150239
v 0.05271514 -0.09570190 0.25200507
v 0.04886288 -0.10131738 0.25305948
v 0.05108665 -0.09497926 0.25783810
v 0.04899444 -0.09406629 0.26338017
v 0.04804286 -0.09004062 0.26802865
v 0.05381317 -0.07193059 0.26802826
v 0.05118658 -0.08136511 0.26802897
v 0.06301095 -0.07352399 0.24643961
v 0.05448245 -0.08754140 0.25776020
v 0.05220799 -0.08656681 0.26333639
v 0.03651012 -0.08786902 0.28045255
v 0.03075879 -0.08671210 0.28391141
v 0.04570864 -0.09060165 0.27092728
v 0.02020114 -0.07582069 0.29035151
v 0.01844426 -0.07764436 0.29024413
v 0.02513767 -0.07890160 0.28815711
v 0.01535846 -0.07701305 0.29100862
v 0.00501520 -0.07833607 0.29180470
v 0.00471790 -0.07835601 0.29181692
v 0.03755774 -0.08151744 0.28170440
v 0.03433390 -0.06773586 0.28730762
v 0.03156784 -0.08019165 0.28534859
v 0.03220968 -0.06964127 0.28784955
v 0.02677447 -0.07321126 0.28912866
v 0.04741378 -0.08423305 0.27189031
v 0.04552234 -0.07011428 0.27861264
v 0.04289512 -0.08287209 0.27718833
v 0.04033181 -0.06889311 0.28325465
v 0.03458970 -0.06747422 0.28724432
v 0.05001144 -0.07112148 0.27349201
v 0.04155504 -0.08917534 0.27608889
v 0.05071445 -0.04303447 0.28002691
v 0.04884231 -0.05221591 0.27997065
v 0.05299585 -0.05310220 0.27477288
v 0.04386476 -0.05272159 0.28470159
v 0.03990194 -0.06050060 0.28577054
v 0.05155414 -0.01801005 0.28309152
v 0.06738446 -0.01778236 0.25506362
v 0.06552251 -0.03645339 0.25635487
v 0.06293711 -0.05505490 0.25709286
v 0.06546789 -0.05549115 0.25071734
v 0.05672387 -0.05386785 0.26918402
v 0.05960044 -0.03526279 0.26858190
v 0.06171821 -0.01652554 0.26727796
v 0.05616113 -0.03456059 0.27436355
v 0.05844526 -0.01583401 0.27312273
v 0.05486111 -0.01509634 0.27875286
v 0.05375886 -0.02446348 0.27943370
v 0.05236970 -0.03378135 0.27986047
v 0.06003147 -0.05451664 0.26326817
v 0.04904414 -0.03574622 0.28354746
v 0.04683913 -0.04438916 0.28399903
v 0.00102654 -0.07849465 0.29190364
v 0.00102654 -0.07703502 0.28921330
v 0.00102067 -0.07834832 0.29142562
v 0.00102191 -0.07777358 0.29160228
v 0.06128216 -0.04880723 0.01493895
v 0.06319333 -0.03831512 0.01755207
v 0.06406267 -0.02523053 0.01443226
v 0.06130905 -0.04881755 0.01510923
v 0.06207897 -0.04404032 0.01493498
v 0.06287100 -0.03778747 0.01473631
v 0.05798190 -0.05781603 0.01423809
v 0.04330098 -0.06885436 0.01548713
v 0.04922127 -0.06652626 0.01457063
v 0.05431925 -0.06278458 0.01414583
v 0.06022493 -0.05220526 0.01469143
v 0.05642815 0.04513114 0.00330306
v 0.05642807 -0.04512605 0.00330407
f 1 2 3
f 3 28 1
f 1 28 29
f 154 29 28
f 154 28 137
f 137 28 135
f 135 136 137
f 135 134 136
f 134 633 136
f 134 635 633
f 635 384 633
f 635 385 384
f 424 385 635
f 385 424 394
f 385 394 386
f 386 394 396
f 386 396 382
f 381 386 382
f 381 382 372
f 382 400 372
f 400 347 372
f 372 347 373
f 372 373 374
f 372 374 383
f 383 374 377
f 383 377 389
f 389 377 379
f 377 378 379
f 378 380 379
f 378 356 380
f 356 355 380
f 380 355 743
f 380 743 751
f 751 743 730
f 730 743 731
f 731 743 742
f 731 742 734
f 734 742 359
f 359 742 354
f 354 358 359
f 359 358 360
f 358 369 360
f 358 351 369
f 357 351 358
f 357 352 351
f 351 352 353
f 353 350 351
f 353 341 350
f 343 350 341
f 341 338 343
f 343 338 294
f 294 338 295
f 295 338 339
f 295 339 296
f 292 295 296
f 292 296 290
f 290 296 297
f 290 297 291
f 297 340 291
f 337 291 340
f 289 291 337
f 289 337 287
f 287 288 289
f 287 286 288
f 271 286 287
f 271 285 286
f 307 286 285
f 305 286 307
f 306 305 307
f 304 305 306
f 304 303 305
f 302 303 304
f 304 469 302
f 304 468 469
f 468 472 469
f 469 472 473
f 301 469 473
f 301 473 300
f 300 473 478
f 300 478 342
f 300 342 299
f 299 342 293
f 345 293 342
f 345 342 346
f 348 345 346
f 349 345 348
f 349 348 364
f 364 348 368
f 364 368 362
f 362 363 364
f 364 363 365
f 360 364 365
f 360 365 361
f 361 365 370
f 361 370 371
f 477 371 370
f 371 477 741
f 741 477 852
f 741 852 740
f 740 852 853
f 881 853 852
f 510 881 852
f 510 852 485
f 486 510 485
f 486 511 510
f 484 511 486
f 483 511 484
f 363 483 484
f 483 515 511
f 515 508 511
f 511 508 507
f 506 507 508
f 508 530 506
f 508 531 530
f 535 531 508
f 535 532 531
f 534 532 535
f 534 529 532
f 521 532 529
f 528 521 529
f 528 529 497
f 496 528 497
f 496 538 528
f 499 538 496
f 499 542 538
f 545 538 542
f 545 542 546
f 551 545 546
f 543 545 551
f 559 543 551
f 559 551 558
f 605 559 558
f 605 558 606
f 520 605 606
f 519 605 520
f 519 544 605
f 526 544 519
f 538 544 526
f 538 526 527
f 543 544 538
f 526 519 527
f 527 519 521
f 519 520 521
f 521 520 522
f 521 522 523
f 523 522 524
f 522 607 524
f 524 607 608
f 621 608 607
f 607 604 621
f 607 603 604
f 606 603 607
f 603 602 604
f 602 622 604
f 602 601 622
f 601 600 622
f 622 600 599
f 598 599 600
f 598 613 599
f 620 599 613
f 620 613 619
f 619 613 612
f 967 619 612
f 965 619 967
f 966 965 967
f 967 968 966
f 966 968 969
f 966 969 970
f 970 953 966
f 970 973 953
f 953 973 956
f 953 956 954
f 953 954 955
f 954 951 955
f 955 951 927
f 946 927 951
f 946 951 947
f 946 947 948
f 948 947 949
f 948 949 941
f 932 948 941
f 952 948 932
f 932 220 952
f 220 218 952
f 952 218 216
f 217 216 218
f 217 218 219
f 215 216 217
f 215 214 216
f 934 216 214
f 934 214 212
f 926 934 212
f 926 928 934
f 928 926 931
f 931 921 928
f 930 921 931
f 930 919 921
f 918 919 930
f 930 924 918
f 918 924 922
f 923 922 924
f 923 924 205
f 205 924 925
f 205 925 203
f 203 925 211
f 203 211 201
f 201 202 203
f 207 203 202
f 206 203 207
f 201 211 212
f 201 212 213
f 211 925 926
f 206 205 203
f 204 205 206
f 204 923 205
f 234 923 204
f 234 909 923
f 235 909 234
f 909 235 910
f 910 235 236
f 910 236 905
f 905 236 694
f 236 172 694
f 171 694 172
f 171 693 694
f 693 699 694
f 694 699 700
f 694 700 701
f 700 880 701
f 905 701 880
f 905 880 906
f 906 880 869
f 906 869 907
f 869 867 907
f 868 867 869
f 878 868 869
f 862 868 878
f 862 871 868
f 861 871 862
f 861 873 871
f 875 873 861
f 861 863 875
f 861 860 863
f 863 860 849
f 860 844 849
f 860 876 844
f 862 876 860
f 862 877 876
f 877 848 876
f 865 848 877
f 865 846 848
f 697 846 865
f 696 846 697
f 696 697 173
f 173 697 698
f 173 698 693
f 173 693 170
f 695 696 173
f 695 640 696
f 702 640 695
f 702 659 640
f 657 640 659
f 176 657 659
f 176 659 173
f 658 657 176
f 657 658 656
f 656 641 657
f 655 641 656
f 655 654 641
f 660 641 654
f 639 641 660
f 639 640 641
f 846 640 639
f 660 661 639
f 661 660 662
f 662 845 661
f 844 845 662
f 661 845 847
f 876 847 845
f 662 660 663
f 662 663 664
f 849 662 664
f 849 664 850
f 850 664 668
f 669 668 664
f 669 664 670
f 670 649 669
f 669 649 642
f 648 642 649
f 648 649 650
f 721 648 650
f 647 648 721
f 715 647 721
f 715 721 713
f 713 721 720
f 713 720 691
f 691 720 719
f 717 719 720
f 716 719 717
f 653 716 717
f 655 716 653
f 655 708 716
f 708 718 716
f 708 705 718
f 703 705 708
f 708 709 703
f 708 707 709
f 709 707 174
f 174 707 706
f 174 706 175
f 175 706 710
f 175 710 176
f 710 706 656
f 656 706 708
f 706 707 708
f 709 174 703
f 703 174 722
f 703 722 704
f 704 722 238
f 704 238 237
f 705 704 237
f 688 705 237
f 688 237 240
f 688 240 239
f 683 688 239
f 683 239 681
f 681 682 683
f 807 682 681
f 806 682 807
f 807 821 806
f 806 821 805
f 805 684 806
f 805 686 684
f 804 686 805
f 804 687 686
f 679 686 687
f 679 687 680
f 678 679 680
f 678 671 679
f 671 691 679
f 679 691 692
f 679 692 689
f 679 689 685
f 685 689 688
f 692 718 689
f 692 719 718
f 671 690 691
f 673 690 671
f 671 672 673
f 672 711 673
f 673 711 713
f 711 712 713
f 713 712 714
f 724 714 712
f 724 645 714
f 715 714 645
f 715 645 646
f 645 643 646
f 646 643 642
f 646 642 647
f 642 643 644
f 643 727 644
f 644 727 665
f 667 644 665
f 665 666 667
f 667 666 668
f 666 851 668
f 666 859 851
f 851 859 887
f 887 859 858
f 887 858 901
f 901 858 899
f 858 857 899
f 739 857 858
f 739 858 726
f 725 739 726
f 725 726 643
f 725 643 728
f 728 737 725
f 728 745 737
f 724 745 728
f 732 745 724
f 732 724 723
f 744 732 723
f 744 723 729
f 729 750 744
f 749 750 729
f 756 750 749
f 756 749 757
f 749 799 757
f 749 674 799
f 674 801 799
f 799 801 800
f 800 801 802
f 822 800 802
f 800 822 798
f 822 814 798
f 798 814 797
f 796 797 814
f 832 796 814
f 831 796 832
f 831 795 796
f 823 795 831
f 823 793 795
f 791 793 823
f 813 791 823
f 813 823 824
f 824 823 825
f 824 825 826
f 826 825 827
f 825 832 827
f 827 832 833
f 827 833 829
f 828 827 829
f 828 829 830
f 816 828 830
f 841 828 816
f 841 826 828
f 843 826 841
f 841 842 843
f 842 839 843
f 843 839 838
f 837 838 839
f 839 247 837
f 839 818 247
f 820 818 839
f 820 248 818
f 249 248 820
f 820 821 249
f 840 821 820
f 817 821 840
f 816 817 840
f 815 817 816
f 815 803 817
f 808 803 815
f 803 808 678
f 678 808 809
f 678 809 677
f 677 809 802
f 677 802 676
f 676 672 677
f 675 672 676
f 676 801 675
f 674 672 675
f 674 729 672
f 809 834 802
f 802 834 833
f 809 830 834
f 808 816 809
f 803 804 817
f 808 815 816
f 840 820 842
f 249 821 810
f 810 250 249
f 810 239 250
f 248 247 818
f 837 247 246
f 837 246 835
f 835 246 819
f 245 819 246
f 245 767 819
f 767 245 244
f 767 244 783
f 811 767 783
f 811 783 812
f 812 783 791
f 783 790 791
f 791 790 792
f 790 777 792
f 792 777 772
f 792 772 794
f 793 792 794
f 794 772 771
f 794 771 770
f 770 771 776
f 771 775 776
f 776 775 987
f 776 987 984
f 984 987 128
f 984 128 127
f 127 125 984
f 126 125 127
f 123 125 126
f 126 51 123
f 126 49 51
f 49 50 51
f 49 48 50
f 79 50 48
f 79 53 50
f 52 50 53
f 52 53 54
f 123 52 54
f 54 108 123
f 108 107 123
f 107 108 109
f 57 109 108
f 59 109 57
f 57 58 59
f 59 58 60
f 59 60 61
f 61 150 59
f 63 150 61
f 61 62 63
f 63 62 64
f 63 64 33
f 33 153 63
f 33 152 153
f 32 152 33
f 32 151 152
f 151 630 152
f 152 630 980
f 630 759 980
f 630 392 759
f 629 392 630
f 155 629 630
f 156 629 155
f 156 628 629
f 628 390 629
f 632 390 628
f 388 390 632
f 631 388 632
f 631 387 388
f 387 383 388
f 387 381 383
f 384 381 387
f 384 387 631
f 631 627 384
f 384 627 626
f 154 626 627
f 154 627 157
f 157 627 628
f 633 626 154
f 631 628 627
f 388 389 390
f 390 389 391
f 390 391 392
f 632 628 631
f 157 628 156
f 156 22 157
f 22 27 157
f 22 26 27
f 22 25 26
f 24 25 22
f 24 89 25
f 25 89 90
f 25 90 91
f 24 88 89
f 37 88 24
f 37 87 88
f 36 87 37
f 35 87 36
f 35 86 87
f 34 86 35
f 34 35 32
f 34 85 86
f 65 85 34
f 33 65 34
f 65 84 85
f 64 84 65
f 64 62 84
f 990 84 62
f 83 84 990
f 83 990 82
f 990 60 82
f 990 62 60
f 32 35 36
f 32 36 23
f 23 36 37
f 23 37 24
f 22 23 24
f 155 23 22
f 151 23 155
f 91 26 25
f 26 91 31
f 31 91 92
f 31 92 30
f 30 92 94
f 30 94 989
f 93 989 94
f 989 93 1
f 1 93 106
f 989 1 30
f 30 27 31
f 30 29 27
f 31 27 26
f 157 27 29
f 155 22 156
f 629 390 392
f 759 392 391
f 752 759 391
f 752 391 380
f 754 759 752
f 754 758 759
f 754 756 758
f 754 755 756
f 754 753 755
f 753 744 755
f 753 730 744
f 758 756 761
f 760 761 756
f 764 761 760
f 764 760 765
f 765 760 763
f 760 762 763
f 787 763 762
f 785 763 787
f 785 766 763
f 784 766 785
f 784 988 766
f 981 766 988
f 981 988 978
f 981 978 982
f 982 765 981
f 982 979 765
f 983 979 982
f 982 150 983
f 983 150 980
f 153 980 150
f 980 758 983
f 983 758 979
f 764 979 758
f 982 978 150
f 978 109 150
f 978 988 107
f 988 124 107
f 988 125 124
f 765 766 981
f 784 984 988
f 769 984 784
f 769 784 770
f 768 769 770
f 769 768 984
f 770 784 785
f 770 785 786
f 796 770 786
f 786 785 787
f 786 787 788
f 797 786 788
f 787 762 788
f 788 762 799
f 798 788 799
f 760 757 762
f 765 763 766
f 765 979 764
f 758 761 764
f 752 753 754
f 752 751 753
f 980 759 758
f 155 630 151
f 23 151 32
f 32 33 34
f 152 980 153
f 33 64 65
f 63 153 150
f 61 60 62
f 82 60 58
f 82 58 81
f 81 58 56
f 81 56 80
f 80 56 55
f 80 55 53
f 54 55 56
f 54 56 57
f 57 56 58
f 150 109 59
f 978 107 109
f 107 124 123
f 57 108 54
f 53 55 54
f 80 53 79
f 48 78 79
f 48 77 78
f 48 71 77
f 46 71 48
f 47 46 48
f 45 46 47
f 47 117 45
f 45 117 43
f 43 44 45
f 43 41 44
f 42 41 43
f 40 41 42
f 40 39 41
f 38 39 40
f 40 116 38
f 40 111 116
f 111 115 116
f 111 114 115
f 110 114 111
f 241 114 110
f 241 110 985
f 241 985 779
f 779 985 780
f 779 780 777
f 777 780 781
f 777 778 779
f 778 243 779
f 779 243 242
f 789 243 778
f 789 778 790
f 244 243 789
f 780 985 781
f 781 985 986
f 119 986 985
f 119 985 113
f 111 119 113
f 111 118 119
f 117 118 111
f 117 122 118
f 117 121 122
f 986 122 121
f 986 121 987
f 987 774 986
f 986 774 773
f 986 773 782
f 772 782 773
f 772 781 782
f 773 774 771
f 987 121 120
f 120 121 117
f 126 120 117
f 128 120 126
f 118 122 986
f 112 111 113
f 985 112 113
f 118 986 119
f 781 986 782
f 779 242 241
f 985 110 112
f 110 111 112
f 115 114 241
f 241 116 115
f 39 76 41
f 76 73 41
f 41 73 72
f 39 75 76
f 74 75 39
f 42 111 40
f 43 111 42
f 41 72 44
f 44 72 46
f 72 70 46
f 43 117 111
f 126 117 47
f 45 44 46
f 46 70 71
f 47 48 49
f 51 50 52
f 47 49 126
f 123 51 52
f 123 124 125
f 984 125 988
f 126 127 128
f 987 120 128
f 984 768 776
f 987 775 774
f 771 774 775
f 770 776 768
f 795 794 770
f 771 772 773
f 777 781 772
f 790 778 777
f 783 789 790
f 811 812 813
f 836 811 813
f 819 811 836
f 836 813 838
f 244 789 783
f 819 767 811
f 835 819 836
f 835 836 837
f 837 836 838
f 838 824 843
f 842 820 839
f 841 840 842
f 816 840 841
f 816 830 809
f 829 834 830
f 829 833 834
f 826 827 828
f 843 824 826
f 838 813 824
f 812 791 813
f 791 792 793
f 793 794 795
f 823 831 825
f 795 770 796
f 825 831 832
f 832 814 833
f 796 786 797
f 797 788 798
f 822 833 814
f 802 833 822
f 676 802 801
f 799 800 798
f 675 801 674
f 762 757 799
f 756 757 760
f 755 750 756
f 729 674 749
f 755 744 750
f 672 729 723
f 730 732 744
f 731 745 732
f 731 746 745
f 745 746 737
f 737 746 747
f 737 747 735
f 735 747 748
f 733 748 747
f 733 747 734
f 361 733 734
f 741 733 361
f 740 748 733
f 748 854 735
f 735 854 855
f 735 855 736
f 736 855 856
f 736 856 738
f 738 856 857
f 737 736 738
f 737 738 739
f 900 856 855
f 899 856 900
f 883 899 900
f 904 899 883
f 895 904 883
f 895 883 884
f 896 895 884
f 896 884 897
f 897 884 898
f 898 884 518
f 898 518 537
f 537 610 898
f 536 610 537
f 525 610 536
f 525 609 610
f 608 609 525
f 620 609 608
f 610 609 959
f 959 609 619
f 610 959 897
f 897 959 960
f 964 960 959
f 971 960 964
f 971 961 960
f 920 961 971
f 971 921 920
f 971 963 921
f 963 927 921
f 920 962 961
f 929 962 920
f 920 919 929
f 929 919 911
f 929 911 916
f 916 917 929
f 916 888 917
f 916 885 888
f 915 885 916
f 915 879 885
f 874 879 915
f 915 913 874
f 874 913 872
f 872 873 874
f 913 870 872
f 913 866 870
f 866 868 870
f 907 866 913
f 913 914 907
f 907 914 908
f 914 922 908
f 909 908 922
f 913 912 914
f 911 912 913
f 912 911 918
f 914 912 918
f 870 871 872
f 915 911 913
f 879 874 875
f 879 875 886
f 886 875 902
f 886 902 892
f 886 892 891
f 890 886 891
f 917 890 891
f 889 890 917
f 889 886 890
f 889 885 886
f 891 892 893
f 892 903 893
f 893 903 904
f 903 901 904
f 891 893 894
f 894 962 891
f 894 960 962
f 896 960 894
f 894 893 895
f 892 902 903
f 902 887 903
f 902 863 887
f 885 879 886
f 888 885 889
f 917 888 889
f 917 891 929
f 916 911 915
f 929 891 962
f 960 961 962
f 964 963 971
f 964 955 963
f 966 955 964
f 964 959 965
f 518 525 536
f 506 525 518
f 517 506 518
f 518 536 537
f 517 518 884
f 884 882 517
f 517 882 516
f 516 882 509
f 509 507 516
f 509 882 881
f 881 882 883
f 516 507 517
f 898 610 897
f 897 960 896
f 894 895 896
f 884 883 882
f 893 904 895
f 883 900 881
f 881 900 854
f 900 855 854
f 748 853 854
f 735 736 737
f 734 747 746
f 725 737 739
f 738 857 739
f 899 857 856
f 904 901 899
f 903 887 901
f 726 858 859
f 726 859 727
f 887 863 851
f 850 851 863
f 665 859 666
f 665 727 859
f 643 726 727
f 667 642 644
f 728 643 645
f 728 645 724
f 712 723 724
f 711 723 712
f 672 723 711
f 677 672 671
f 673 713 690
f 677 671 678
f 678 680 803
f 803 680 687
f 685 686 679
f 803 687 804
f 804 805 817
f 685 684 686
f 683 684 685
f 817 805 821
f 807 810 821
f 806 684 682
f 681 810 807
f 683 682 684
f 681 239 810
f 685 688 683
f 689 705 688
f 703 704 705
f 689 718 705
f 717 651 653
f 651 652 653
f 653 652 654
f 663 654 652
f 663 652 670
f 651 649 652
f 717 650 651
f 716 718 719
f 691 719 692
f 690 713 691
f 717 720 721
f 713 714 715
f 646 647 715
f 721 650 717
f 650 649 651
f 647 642 648
f 669 642 667
f 670 652 649
f 667 668 669
f 850 668 851
f 670 664 663
f 661 847 639
f 639 847 848
f 660 654 663
f 653 654 655
f 656 708 655
f 656 658 710
f 176 710 658
f 657 641 640
f 173 659 702
f 173 702 695
f 696 640 846
f 865 698 697
f 864 698 865
f 699 698 864
f 864 865 878
f 639 848 846
f 878 865 877
f 848 847 876
f 876 845 844
f 844 662 849
f 863 849 850
f 875 863 902
f 875 874 873
f 872 871 873
f 860 861 862
f 870 868 871
f 878 877 862
f 878 869 864
f 866 867 868
f 907 867 866
f 907 908 906
f 906 908 910
f 864 869 880
f 864 880 700
f 700 699 864
f 693 698 699
f 170 693 171
f 905 694 701
f 906 910 905
f 908 909 910
f 909 922 923
f 918 922 914
f 930 925 924
f 918 911 919
f 919 920 921
f 931 925 930
f 921 927 928
f 931 926 925
f 934 928 946
f 934 946 952
f 211 926 212
f 213 212 214
f 213 214 215
f 952 216 934
f 219 218 220
f 220 232 219
f 220 231 232
f 230 231 220
f 230 229 231
f 227 229 230
f 227 228 229
f 225 228 227
f 226 225 227
f 224 225 226
f 936 224 226
f 936 226 937
f 935 936 937
f 936 935 938
f 938 221 936
f 938 208 221
f 208 210 221
f 210 222 221
f 221 222 223
f 221 223 224
f 208 209 210
f 209 208 974
f 974 208 940
f 939 940 208
f 939 208 938
f 937 945 935
f 937 943 945
f 943 944 945
f 943 942 944
f 941 942 943
f 933 941 943
f 941 950 942
f 933 943 937
f 937 227 933
f 221 224 936
f 224 223 225
f 937 226 227
f 933 227 230
f 933 230 220
f 220 932 933
f 932 941 933
f 941 949 950
f 949 957 950
f 949 956 957
f 947 956 949
f 952 946 948
f 928 927 946
f 955 927 963
f 954 947 951
f 954 956 947
f 970 972 973
f 966 953 955
f 969 972 970
f 969 958 972
f 968 958 969
f 968 612 958
f 612 611 958
f 611 612 598
f 964 965 966
f 965 959 619
f 967 612 968
f 619 609 620
f 621 599 620
f 598 612 613
f 600 618 598
f 600 617 618
f 616 617 600
f 616 615 617
f 614 615 616
f 589 614 616
f 589 616 601
f 601 597 589
f 597 596 589
f 597 556 596
f 557 556 597
f 556 557 558
f 558 557 603
f 558 553 556
f 556 553 552
f 556 552 560
f 552 564 560
f 560 564 565
f 564 181 565
f 565 181 182
f 565 182 190
f 565 190 566
f 566 190 191
f 191 583 566
f 582 566 583
f 560 566 582
f 582 596 560
f 582 595 596
f 584 595 582
f 587 595 584
f 589 595 587
f 587 588 589
f 591 588 587
f 590 588 591
f 590 623 588
f 588 623 614
f 591 587 592
f 579 592 587
f 578 592 579
f 578 594 592
f 571 594 578
f 571 578 569
f 569 570 571
f 571 570 572
f 571 572 573
f 573 572 574
f 572 199 574
f 200 574 199
f 189 574 200
f 189 576 574
f 188 576 189
f 188 625 576
f 624 576 625
f 577 576 624
f 575 576 577
f 187 625 188
f 575 574 576
f 573 574 575
f 573 593 571
f 570 199 572
f 570 198 199
f 569 198 570
f 569 197 198
f 196 197 569
f 568 196 569
f 568 195 196
f 581 195 568
f 581 194 195
f 193 194 581
f 581 586 193
f 193 586 192
f 192 586 585
f 584 585 586
f 580 584 586
f 584 583 585
f 192 585 191
f 580 586 581
f 568 580 581
f 567 580 568
f 567 579 580
f 569 579 567
f 567 568 569
f 571 593 594
f 569 578 579
f 579 587 580
f 587 584 580
f 582 583 584
f 191 585 583
f 564 183 181
f 562 183 564
f 563 562 564
f 550 562 563
f 550 561 562
f 549 561 550
f 550 548 549
f 547 548 550
f 555 547 550
f 555 550 554
f 554 551 555
f 554 553 551
f 546 547 555
f 546 541 547
f 547 541 540
f 502 540 541
f 504 540 502
f 504 539 540
f 326 539 504
f 504 327 326
f 504 325 327
f 503 325 504
f 503 254 325
f 255 254 503
f 503 256 255
f 503 257 256
f 488 257 503
f 488 253 257
f 252 253 488
f 488 487 252
f 252 487 465
f 487 474 465
f 465 474 464
f 464 474 475
f 464 475 466
f 284 464 466
f 260 464 284
f 284 262 260
f 263 262 284
f 284 264 263
f 284 265 264
f 309 265 284
f 309 285 265
f 285 266 265
f 308 309 284
f 308 307 309
f 284 466 308
f 308 466 467
f 466 470 467
f 466 476 470
f 490 470 476
f 491 470 490
f 491 471 470
f 491 493 471
f 492 471 493
f 492 472 471
f 492 493 512
f 493 495 512
f 512 495 533
f 495 497 533
f 512 533 513
f 513 533 534
f 513 534 514
f 480 513 514
f 479 513 480
f 367 479 480
f 367 480 368
f 368 480 481
f 366 479 367
f 346 479 366
f 346 478 479
f 348 366 367
f 478 513 479
f 480 514 481
f 481 514 515
f 481 515 482
f 481 482 362
f 362 482 483
f 514 535 515
f 478 512 513
f 494 495 493
f 495 494 496
f 496 494 498
f 489 498 494
f 488 498 489
f 488 501 498
f 500 498 501
f 500 501 502
f 503 502 501
f 499 498 500
f 489 494 505
f 505 491 489
f 505 494 493
f 492 512 478
f 505 493 491
f 489 491 490
f 489 490 487
f 490 476 475
f 467 470 471
f 467 471 468
f 306 467 468
f 308 467 306
f 466 475 476
f 475 474 490
f 464 260 465
f 487 490 474
f 252 465 260
f 487 488 489
f 503 501 488
f 254 259 325
f 325 259 258
f 178 325 258
f 178 258 177
f 177 258 180
f 180 258 251
f 180 251 179
f 327 325 178
f 178 326 327
f 539 326 178
f 178 186 539
f 539 186 185
f 539 185 549
f 548 540 539
f 504 502 503
f 502 541 500
f 500 541 542
f 547 540 548
f 548 539 549
f 185 561 549
f 184 561 185
f 184 562 561
f 554 550 563
f 554 563 552
f 183 562 184
f 560 565 566
f 552 563 564
f 552 553 554
f 602 557 597
f 560 596 556
f 589 596 595
f 588 614 589
f 601 616 600
f 597 601 602
f 622 599 604
f 603 557 602
f 621 604 599
f 620 608 621
f 524 608 525
f 522 606 607
f 523 524 525
f 525 530 523
f 523 531 521
f 520 606 522
f 606 558 603
f 544 559 605
f 558 551 553
f 544 543 559
f 555 551 546
f 546 542 541
f 543 538 545
f 500 542 499
f 496 498 499
f 527 528 538
f 496 497 495
f 533 497 529
f 527 521 528
f 533 529 534
f 514 534 535
f 521 531 532
f 523 530 531
f 506 530 525
f 517 507 506
f 511 507 509
f 515 535 508
f 482 515 483
f 486 370 484
f 509 510 511
f 485 477 486
f 509 881 510
f 881 854 853
f 740 853 748
f 740 733 741
f 477 485 852
f 486 477 370
f 741 361 371
f 484 370 365
f 484 365 363
f 362 483 363
f 368 481 362
f 348 367 368
f 369 349 364
f 344 345 349
f 344 349 343
f 346 366 348
f 344 293 345
f 344 294 293
f 292 293 294
f 293 292 298
f 298 299 293
f 301 299 298
f 301 298 302
f 342 478 346
f 478 473 492
f 300 299 301
f 473 472 492
f 468 471 472
f 302 469 301
f 302 298 303
f 298 290 303
f 303 290 288
f 303 288 305
f 306 468 304
f 306 307 308
f 307 285 309
f 266 285 271
f 261 271 287
f 287 332 261
f 261 332 331
f 330 331 332
f 337 330 332
f 329 330 337
f 329 322 330
f 322 321 330
f 269 321 322
f 269 322 316
f 316 270 269
f 316 272 270
f 311 272 316
f 310 272 311
f 310 274 272
f 273 274 310
f 310 275 273
f 276 275 310
f 276 310 426
f 276 426 277
f 277 426 427
f 277 427 425
f 425 278 277
f 425 281 278
f 279 281 425
f 279 425 437
f 436 279 437
f 437 438 436
f 436 438 283
f 438 282 283
f 432 282 438
f 161 432 438
f 160 432 161
f 159 432 160
f 161 438 163
f 163 438 450
f 163 450 164
f 164 450 449
f 459 449 450
f 447 449 459
f 447 448 449
f 439 449 448
f 439 448 440
f 165 439 440
f 165 440 409
f 409 166 165
f 409 167 166
f 408 167 409
f 393 167 408
f 393 408 413
f 412 393 413
f 411 393 412
f 411 169 393
f 162 169 411
f 162 411 638
f 638 149 162
f 638 146 149
f 638 144 146
f 638 143 144
f 637 143 638
f 637 141 143
f 636 141 637
f 636 140 141
f 636 138 140
f 138 139 140
f 138 132 139
f 130 132 138
f 130 131 132
f 131 133 132
f 132 133 134
f 131 634 133
f 133 634 635
f 131 130 634
f 634 130 138
f 8 139 132
f 8 132 6
f 6 7 8
f 8 7 9
f 9 7 10
f 9 10 11
f 11 10 12
f 10 99 12
f 12 99 14
f 14 99 98
f 14 98 15
f 13 14 15
f 13 15 16
f 16 17 13
f 16 97 17
f 17 97 18
f 17 18 19
f 19 18 20
f 18 96 20
f 20 96 21
f 21 96 95
f 19 20 21
f 18 97 96
f 16 98 97
f 13 17 19
f 13 19 69
f 69 145 13
f 13 145 142
f 13 142 11
f 11 142 139
f 141 139 142
f 144 142 145
f 68 145 69
f 68 129 145
f 145 129 147
f 147 129 162
f 162 148 147
f 147 148 145
f 145 148 149
f 67 129 68
f 19 67 68
f 66 67 19
f 67 66 129
f 69 19 68
f 15 98 16
f 12 14 13
f 10 100 99
f 101 100 10
f 10 102 101
f 11 12 13
f 11 139 9
f 7 102 10
f 7 103 102
f 104 103 7
f 5 104 7
f 2 104 5
f 4 2 5
f 4 5 6
f 2 105 104
f 106 105 2
f 6 5 7
f 132 4 6
f 132 3 4
f 135 3 132
f 9 139 8
f 634 138 636
f 417 634 636
f 417 636 418
f 418 636 420
f 419 418 420
f 419 420 414
f 414 420 421
f 414 421 415
f 637 415 421
f 637 416 415
f 413 415 416
f 414 415 413
f 413 406 414
f 414 406 404
f 405 404 406
f 405 406 407
f 405 407 435
f 435 407 455
f 407 441 455
f 455 441 440
f 455 440 456
f 452 455 456
f 452 456 453
f 453 456 457
f 456 448 457
f 453 457 454
f 454 457 458
f 454 458 444
f 444 458 446
f 458 460 446
f 446 460 462
f 446 462 445
f 445 428 446
f 445 426 428
f 426 311 428
f 428 311 317
f 428 317 429
f 429 317 315
f 429 315 430
f 315 313 430
f 314 313 315
f 312 313 314
f 312 314 318
f 318 314 319
f 314 324 319
f 324 329 319
f 329 335 319
f 319 335 336
f 335 334 336
f 333 334 335
f 339 333 335
f 339 335 340
f 341 334 333
f 341 336 334
f 328 336 341
f 328 341 320
f 328 320 319
f 320 341 347
f 320 347 318
f 319 336 328
f 329 340 335
f 324 323 329
f 314 323 324
f 316 323 314
f 318 319 320
f 431 312 318
f 431 318 400
f 400 399 431
f 399 443 431
f 399 442 443
f 398 442 399
f 396 398 399
f 395 398 396
f 395 397 398
f 397 401 398
f 397 402 401
f 419 402 397
f 419 404 402
f 403 402 404
f 422 419 397
f 422 397 423
f 423 397 394
f 422 423 634
f 634 423 424
f 417 419 422
f 401 402 403
f 401 403 433
f 401 433 434
f 433 435 434
f 434 435 452
f 434 452 451
f 451 443 434
f 434 442 401
f 433 403 435
f 394 397 395
f 401 442 398
f 434 443 442
f 451 431 443
f 430 431 451
f 451 453 430
f 396 399 400
f 430 312 431
f 314 315 316
f 430 313 312
f 429 430 444
f 316 315 317
f 429 446 428
f 445 462 463
f 445 463 437
f 437 427 445
f 462 461 463
f 461 438 463
f 460 461 462
f 460 459 461
f 458 447 460
f 444 446 429
f 430 454 444
f 457 447 458
f 430 453 454
f 451 452 453
f 410 440 441
f 410 441 407
f 435 455 452
f 403 405 435
f 406 410 407
f 406 409 410
f 403 404 405
f 420 637 421
f 414 404 419
f 417 418 419
f 422 634 417
f 140 139 141
f 420 636 637
f 141 142 143
f 638 416 637
f 638 412 416
f 143 142 144
f 144 145 146
f 145 149 146
f 162 149 148
f 169 168 393
f 638 411 412
f 413 416 412
f 413 408 406
f 168 167 393
f 408 409 406
f 409 440 410
f 164 439 165
f 456 440 448
f 457 448 447
f 447 459 460
f 459 450 461
f 164 449 439
f 461 450 438
f 159 282 432
f 158 282 159
f 436 283 280
f 437 463 438
f 436 280 279
f 437 425 427
f 445 427 426
f 426 310 311
f 316 317 311
f 316 322 323
f 268 321 269
f 267 321 268
f 267 331 321
f 323 322 329
f 330 321 331
f 261 331 267
f 305 288 286
f 289 288 290
f 287 337 332
f 337 340 329
f 289 290 291
f 296 340 297
f 298 292 290
f 296 339 340
f 338 333 339
f 294 295 292
f 343 294 344
f 341 333 338
f 343 349 350
f 347 341 353
f 351 350 349
f 375 353 352
f 375 352 376
f 376 352 356
f 374 375 376
f 373 353 375
f 356 352 357
f 356 357 354
f 351 349 369
f 369 364 360
f 359 360 361
f 354 357 358
f 734 359 361
f 734 746 731
f 354 742 743
f 730 731 732
f 751 730 753
f 380 751 752
f 354 743 355
f 354 355 356
f 376 356 378
f 391 379 380
f 377 376 378
f 389 379 391
f 388 383 389
f 374 376 377
f 373 375 374
f 373 347 353
f 318 347 400
f 381 372 383
f 382 396 400
f 394 395 396
f 381 385 386
f 423 394 424
f 634 424 635
f 384 385 381
f 384 626 633
f 133 635 134
f 633 154 136
f 132 134 135
f 137 136 154
f 157 29 154
f 1 29 30
f 135 28 3
f 3 2 4
f 1 106 2
f 209 974 976
f 233 209 976
f 233 976 975
f 975 976 977
f 210 209 233

