# https://github.com/mikedh/trimesh
v -0.00210425 0.02299943 0.00917925
v -0.00182270 0.02194948 0.00917923
v -0.00105390 0.02118097 0.00917920
v -0.00000385 0.02089982 0.00917918
v -0.00182310 0.02404948 0.00917927
v -0.00105459 0.02481828 0.00917927
v -0.00000465 0.02509983 0.00917926
v 0.00181421 0.02405017 0.00917921
v 0.00209575 0.02300023 0.00917919
v 0.00104610 0.02118137 0.00917917
v 0.00181461 0.02195017 0.00917917
v 0.00104541 0.02481868 0.00917924
v 0.00209580 0.02300017 0.01217919
v 0.00181465 0.02195012 0.01217917
v 0.00104614 0.02118132 0.01217917
v -0.00000380 0.02089977 0.01217918
v -0.00182306 0.02404942 0.01217927
v -0.00105386 0.02118092 0.01217920
v -0.00182266 0.02194942 0.01217923
v -0.00210420 0.02299937 0.01217925
v 0.00181425 0.02405011 0.01217921
v -0.00105455 0.02481822 0.01217927
v -0.00000460 0.02509977 0.01217926
v 0.00104545 0.02481862 0.01217924
f 9 13 8
f 8 13 21
f 8 21 12
f 12 21 24
f 12 24 7
f 7 24 23
f 7 23 6
f 6 23 22
f 6 22 5
f 5 22 17
f 5 17 1
f 1 17 20
f 1 20 2
f 2 20 19
f 2 19 3
f 3 19 18
f 3 18 4
f 4 18 16
f 4 16 10
f 10 16 15
f 10 15 11
f 11 15 14
f 11 14 9
f 9 14 13

