# https://github.com/mikedh/trimesh
v 0.01301271 -0.06521720 0.01946629
v 0.01301272 -0.06542387 0.01759519
v 0.01301233 -0.06333021 0.01824678
v 0.01301230 -0.06286564 0.02231620
v 0.01301225 -0.06283453 0.01960877
v 0.01301206 -0.06172423 0.02054043
v 0.01301235 -0.06306589 0.02299020
v 0.01301194 -0.06094847 0.02288581
v 0.01301199 -0.06114872 0.02355982
v 0.01301226 -0.06330170 0.01395461
v 0.01301184 -0.06113043 0.01313839
v 0.01301258 -0.06485425 0.01567802
v 0.01301288 -0.06642944 0.01521002
v 0.01301301 -0.06699906 0.01712719
v 0.01301184 -0.06054091 0.02080280
v 0.01301179 -0.06029689 0.02079215
v 0.01301150 -0.05865690 0.02252614
v 0.01301152 -0.05893488 0.02029645
v 0.01301113 -0.05678752 0.02115280
v 0.01301090 -0.05575927 0.01907354
v 0.01301133 -0.05800321 0.01918617
v 0.01301087 -0.05580259 0.01675433
v 0.01301126 -0.05775150 0.01775881
v 0.01301106 -0.05690771 0.01471490
v 0.01301133 -0.05824721 0.01639682
v 0.01301140 -0.05882705 0.01341228
v 0.01301153 -0.05935748 0.01546516
v 0.01301256 -0.06432033 0.02112138
v 0.01301180 -0.06078485 0.01521344
v 0.01301207 -0.06214683 0.01570914
v 0.01301226 -0.06307850 0.01681941
f 1 2 3
f 2 31 3
f 2 30 31
f 11 30 2
f 12 11 2
f 10 11 12
f 12 2 13
f 13 2 14
f 11 29 30
f 27 29 11
f 26 27 11
f 26 25 27
f 24 25 26
f 24 23 25
f 22 23 24
f 22 21 23
f 20 21 22
f 20 18 21
f 19 18 20
f 17 18 19
f 17 16 18
f 8 16 17
f 8 15 16
f 6 15 8
f 7 6 8
f 7 8 9
f 4 6 7
f 4 5 6
f 5 4 3
f 3 4 28
f 3 28 1

