# https://github.com/mikedh/trimesh
v 0.04369635 -0.09280106 0.12258689
v 0.04424191 -0.09350428 0.13364978
v 0.04449669 -0.09382981 0.13869454
v 0.04449792 -0.09383142 0.13871928
v 0.04353368 -0.09257325 0.11899711
v 0.04369535 -0.09279966 0.12256473
v 0.04457974 -0.09393924 0.14036636
v 0.04457523 -0.09394035 0.14027506
v 0.04449669 -0.09384361 0.13869365
v 0.04369561 -0.09288426 0.12256519
v 0.04448489 -0.09382921 0.13845670
v 0.04429943 -0.09359139 0.13478014
v 0.04370118 -0.09282195 0.12269276
v 0.04370108 -0.09289109 0.12268639
v 0.04353362 -0.09265690 0.11899070
f 7 8 4
f 4 8 9
f 4 9 3
f 9 11 3
f 3 11 12
f 3 12 2
f 2 12 13
f 2 13 1
f 1 13 14
f 1 14 10
f 10 6 1
f 15 6 10
f 5 6 15

