# https://github.com/mikedh/trimesh
v -0.04195620 0.06278366 0.00337737
v -0.04195795 0.06088279 0.00316674
v -0.04483104 0.06101918 0.00318151
v -0.04333079 0.06002675 0.00307528
v -0.04627832 0.05976368 0.00304758
v -0.04446611 0.05910914 0.00297951
v -0.04804417 0.05773517 0.00284040
v -0.04639504 0.05691409 0.00275967
v -0.04847375 0.05712320 0.00278006
v -0.04737459 0.05532350 0.00260822
v -0.04954549 0.05527443 0.00260365
v -0.05084116 0.05184880 0.00229925
v -0.04867929 0.05224182 0.00233274
v -0.05126791 0.04996654 0.00214392
v -0.04954486 0.04852867 0.00203074
v -0.05141875 0.04904360 0.00207073
v -0.05156320 0.04786640 0.00198017
v -0.04982829 0.04449575 0.00173745
v -0.05174026 0.04408646 0.00170960
v -0.04982737 0.04106992 0.00151473
v -0.05163439 0.02532353 0.00076915
v -0.04969569 0.02225016 0.00067198
v -0.05149630 0.00591652 0.00038155
v -0.04957267 0.00000359 0.00036116
v -0.05148474 0.00000285 0.00036116
v -0.04969565 -0.02226935 0.00067269
v -0.05158348 -0.01937856 0.00059417
v -0.05173334 -0.03880231 0.00138020
v -0.04982806 -0.04449992 0.00173805
v -0.05173897 -0.04408322 0.00170969
v -0.05161166 -0.04733773 0.00194083
v -0.04954488 -0.04852115 0.00203051
v -0.05141898 -0.04903756 0.00207061
v -0.04867184 -0.05225728 0.00233443
v -0.05055343 -0.05280067 0.00238136
v -0.04916698 -0.05598433 0.00267081
v -0.04736438 -0.05533521 0.00260974
v -0.04789141 -0.05793260 0.00286063
v -0.04638486 -0.05692129 0.00276086
v -0.04650150 -0.05953501 0.00302429
v -0.04445352 -0.05911340 0.00298055
v -0.04389196 -0.06168266 0.00325476
v -0.04331793 -0.06002878 0.00307613
v -0.04197487 -0.06276806 0.00337625
v -0.04195795 -0.06087558 0.00316663
v -0.04195620 -0.06277697 0.00337726
v -0.04191961 0.06593592 0.00777961
v -0.04192309 0.06241025 0.00736068
v -0.04192309 -0.06240357 0.00736058
v -0.04191961 -0.06592874 0.00777943
v -0.04929335 0.04616491 0.00787034
v -0.04917104 0.04924953 0.00810570
v -0.05060183 0.05016784 0.00817996
v -0.04894073 0.05106224 0.00825420
v -0.04980533 0.05398656 0.00851040
v -0.04848914 0.05303021 0.00842430
v -0.04816896 0.05400954 0.00851250
v -0.04905327 0.05592974 0.00869246
v -0.04760075 0.05536643 0.00863868
v -0.04850088 0.05701712 0.00879861
v -0.04676296 0.05687666 0.00878473
v -0.04754036 0.05851763 0.00895033
v -0.04578733 0.05820873 0.00891859
v -0.04541508 0.06083944 0.00919751
v -0.04517615 0.05888781 0.00898871
v -0.04384357 0.06202273 0.00932953
v -0.04362055 0.06024583 0.00913284
v -0.04282907 0.06262243 0.00939803
v -0.04190739 0.06130591 0.00924906
v -0.04190616 0.06262243 0.00939803
v -0.05080000 0.04623759 0.00787564
v -0.05078466 0.03524944 0.00719588
v -0.04920885 0.02643679 0.00681186
v -0.05078023 0.03459120 0.00716250
v -0.05073705 0.02896173 0.00690830
v -0.05059634 0.01130869 0.00643823
v -0.04905717 0.00434424 0.00637214
v -0.05055783 0.00000321 0.00636116
v -0.04905042 0.00000315 0.00636116
v -0.05064097 -0.01753591 0.00655197
v -0.04918053 -0.02314843 0.00670188
v -0.05079997 -0.04623051 0.00787546
v -0.04930328 -0.04142971 0.00754909
v -0.05078522 -0.03533058 0.00720030
v -0.05078021 -0.03458215 0.00716229
v -0.04190616 -0.06261511 0.00939782
v -0.04190740 -0.06129874 0.00924893
v -0.04282892 -0.06261511 0.00939782
v -0.04295725 -0.06069399 0.00918224
v -0.04543786 -0.06081216 0.00919519
v -0.04427044 -0.05972649 0.00907775
v -0.04517674 -0.05888002 0.00898852
v -0.04756835 -0.05847169 0.00894620
v -0.04629572 -0.05755179 0.00885253
v -0.04846314 -0.05707683 0.00880507
v -0.04707519 -0.05635671 0.00873426
v -0.04760026 -0.05536018 0.00863854
v -0.04981455 -0.05395006 0.00850748
v -0.04834718 -0.05348362 0.00846523
v -0.05018481 -0.05260246 0.00838690
v -0.04894035 -0.05105706 0.00825413
v -0.05073785 -0.04851393 0.00804798
v -0.04910050 -0.04993667 0.00816145
v -0.04929324 -0.04615824 0.00787018
v -0.04194910 0.06133345 0.00423063
v -0.04194746 0.06313838 0.00442860
v -0.04339680 0.06237000 0.00434074
v -0.04533302 0.06100909 0.00418933
v -0.04771204 0.05860397 0.00393482
v -0.04900441 0.05674843 0.00374961
v -0.05048143 0.05361259 0.00345739
v -0.05123295 0.05094185 0.00322775
v -0.05175472 0.04702067 0.00292050
v -0.05183571 0.04448038 0.00273958
v -0.05182434 0.03735112 0.00230198
v -0.05176253 0.02883744 0.00190213
v -0.05158320 0.00000288 0.00136455
v -0.04194746 -0.06313168 0.00442847
v -0.04194910 -0.06132679 0.00423053
v -0.04430369 -0.06177898 0.00427496
v -0.04687251 -0.05956332 0.00403496
v -0.04819719 -0.05796231 0.00387027
v -0.04994227 -0.05494525 0.00357899
v -0.05065871 -0.05308707 0.00341130
v -0.05153988 -0.04916809 0.00308485
v -0.05168573 -0.04789032 0.00298602
v -0.05175461 -0.04701610 0.00292050
v -0.05183566 -0.04447739 0.00273969
v -0.05167014 -0.01795722 0.00156332
v -0.04175163 0.06796516 0.02798969
v -0.04292881 0.06796516 0.02798969
v -0.04182887 0.06536499 0.01869629
v -0.04292059 0.06399630 0.01416194
v -0.04189905 0.06286509 0.01025306
v -0.04318536 0.08722484 0.06640749
v -0.04319062 0.08669470 0.06517520
v -0.04144256 0.08669470 0.06517519
v -0.04319057 0.08398136 0.05961243
v -0.04152933 0.08120042 0.05473547
v -0.04316154 0.08223867 0.05648118
v -0.04153398 0.08085810 0.05417658
v -0.04306240 0.07717155 0.04850352
v -0.04159355 0.07616641 0.04700880
v -0.04306084 0.07646754 0.04745631
v -0.04306590 0.07616641 0.04700880
v -0.04314435 0.09038039 0.07783983
v -0.04314519 0.08982787 0.07459236
v -0.04136429 0.08982787 0.07459237
v -0.04315414 0.08929068 0.07234915
v -0.04318302 0.08747965 0.06702626
v -0.04315416 0.09088616 0.08365766
v -0.04128212 0.09093207 0.08447852
v -0.04315577 0.09093207 0.08447852
v -0.04315652 0.09093992 0.08462863
v -0.04128088 0.09093992 0.08462863
v -0.04112317 0.09198442 0.10360356
v -0.04313044 0.09192742 0.10256205
v -0.04096545 0.09301704 0.12257916
v -0.04310557 0.09301704 0.12257916
v -0.04128151 0.09093590 0.08455292
v -0.04315624 0.09093575 0.08455012
v -0.04151745 0.09867519 0.21196298
v -0.04151845 0.09867442 0.21194838
v -0.04022266 0.09867442 0.21194838
v -0.04145581 0.09893227 0.21693720
v -0.04018117 0.09893236 0.21693914
v -0.04013968 0.09917015 0.22193138
v -0.04140178 0.09917015 0.22193138
v -0.04051162 0.09654251 0.17718117
v -0.04211149 0.09654251 0.17718117
v -0.04073785 0.09471342 0.14996351
v -0.04296236 0.09396851 0.13862306
v -0.04096422 0.09302489 0.12272754
v -0.04310617 0.09302489 0.12272754
v -0.04045514 0.09698886 0.18397707
v -0.04197560 0.09698884 0.18397696
v -0.04039865 0.09742483 0.19077361
v -0.04184965 0.09742483 0.19077361
v -0.04175948 0.07155025 0.02704563
v -0.04181513 0.06969768 0.02034954
v -0.04187373 0.06754877 0.01329909
v -0.04169332 0.07405451 0.03500488
v -0.04172668 0.07267791 0.03099193
v -0.04161186 0.07922392 0.04480597
v -0.04158883 0.08109148 0.04757694
v -0.04142443 0.09171678 0.06735723
v -0.04147920 0.08884335 0.06076658
v -0.04152183 0.08612566 0.05563808
v -0.04128122 0.09483841 0.08458725
v -0.04133076 0.09438282 0.07862661
v -0.04137801 0.09341113 0.07294136
v -0.04166124 0.07572621 0.03886536
v -0.04161961 0.07860428 0.04387386
v -0.04013997 0.09991944 0.22189637
v -0.04031066 0.09807512 0.20135958
v -0.04167227 0.09807500 0.20135747
v -0.04310580 0.09302267 0.12268569
v -0.04168199 0.07057929 0.03636892
v -0.04163631 0.07304233 0.04186404
v -0.04320464 0.07057929 0.03636892
v -0.04319597 0.07302344 0.04182799
v -0.04312040 0.07452321 0.04446211
v -0.04173844 0.06838953 0.02957698
v -0.04292976 0.06797981 0.02804512
v -0.04171658 0.06915717 0.03220724
v -0.04309410 0.06914824 0.03217830
v -0.04194731 0.05969146 0.00444726
v -0.04279413 0.05913739 0.00438095
v -0.04384232 0.05828728 0.00428003
v -0.04477200 0.05733754 0.00416907
v -0.04562654 0.05624637 0.00404388
v -0.04653846 0.05475512 0.00387723
v -0.04706062 0.05368102 0.00375909
v -0.04776033 0.05183643 0.00355949
v -0.04914755 0.04560375 0.00625631
v -0.04883295 0.04442160 0.00283138
v -0.04857007 0.04829518 0.00318667
v -0.04841968 0.04920959 0.00328047
v -0.04195397 0.05977634 0.00364543
v -0.04195134 0.05964662 0.00396179
v -0.04274987 0.05912678 0.00389469
v -0.04194886 0.05964123 0.00426010
v -0.04858992 0.04833129 0.00275655
v -0.04888202 0.04444283 0.00242016
v -0.04195632 0.06005895 0.00336236
v -0.04195508 0.05988161 0.00351233
v -0.04284417 0.05930577 0.00345019
v -0.04195774 0.06045415 0.00319222
v -0.04195744 0.06033023 0.00322783
v -0.04305453 0.05963168 0.00315346
v -0.04379585 0.05828579 0.00379754
v -0.04558390 0.05626228 0.00357049
v -0.04650329 0.05477969 0.00341045
v -0.04774697 0.05187079 0.00310733
v -0.04414926 0.05875142 0.00306072
v -0.04601714 0.05663872 0.00284651
v -0.04697296 0.05509895 0.00269764
v -0.04825916 0.05209674 0.00242359
v -0.04912750 0.04846005 0.00211908
v -0.04942627 0.04448730 0.00182264
v -0.04390685 0.05845365 0.00335657
v -0.04572472 0.05640373 0.00313882
v -0.04665957 0.05490336 0.00298618
v -0.04792550 0.05196396 0.00270081
v -0.04878806 0.04838988 0.00237707
v -0.04909081 0.04446858 0.00206397
v -0.04292781 -0.06795843 0.02799015
v -0.04175163 -0.06795843 0.02799015
v -0.04182887 -0.06535797 0.01869641
v -0.04292727 -0.06613220 0.02128898
v -0.04189905 -0.06285791 0.01025335
v -0.04285029 -0.06285788 0.01025324
v -0.04128214 -0.09092580 0.08447621
v -0.04315577 -0.09092580 0.08447621
v -0.04128193 -0.09092717 0.08450147
v -0.04315584 -0.09092854 0.08452671
v -0.04128172 -0.09092854 0.08452671
v -0.04096578 -0.09438102 0.12253956
v -0.04096578 -0.09687711 0.12253956
v -0.04096598 -0.09687521 0.12251494
v -0.04096985 -0.09685139 0.12204977
v -0.04100563 -0.09662201 0.11774523
v -0.04128122 -0.09243365 0.08458737
v -0.04126567 -0.09493507 0.08645826
v -0.04128122 -0.09483229 0.08458722
v -0.04186600 -0.06782423 0.01422868
v -0.04175948 -0.07154362 0.02704563
v -0.04172631 -0.07268570 0.03103667
v -0.04169332 -0.07404839 0.03500488
v -0.04129361 -0.09474964 0.08309617
v -0.04139935 -0.09272216 0.07037415
v -0.04134977 -0.09406723 0.07633965
v -0.04154987 -0.08411844 0.05226520
v -0.04148947 -0.08821921 0.05953211
v -0.04144434 -0.09075750 0.06496158
v -0.04161186 -0.07921784 0.04480606
v -0.04163869 -0.07716726 0.04157810
v -0.04165177 -0.07629515 0.04000475
v -0.04307199 -0.07574092 0.04637873
v -0.04306396 -0.07616128 0.04701136
v -0.04159353 -0.07616128 0.04701136
v -0.04320290 -0.07278551 0.04137995
v -0.04166954 -0.07117085 0.03786648
v -0.04170856 -0.06945406 0.03317141
v -0.04318719 -0.07023074 0.03545318
v -0.04173498 -0.06849749 0.02999259
v -0.04292959 -0.06797282 0.02804563
v -0.04136597 -0.08977889 0.07439002
v -0.04314214 -0.09043629 0.07831038
v -0.04315153 -0.09088133 0.08365890
v -0.04319531 -0.08653708 0.06483806
v -0.04318220 -0.08773141 0.06767623
v -0.04142177 -0.08773141 0.06767622
v -0.04316451 -0.08862032 0.07013119
v -0.04314787 -0.08997710 0.07538069
v -0.04320224 -0.08392631 0.05953214
v -0.04151601 -0.08214776 0.05633861
v -0.04316322 -0.08214773 0.05633858
v -0.04306518 -0.07646097 0.04746052
v -0.04314200 -0.08132966 0.05495838
v -0.04112299 -0.09190990 0.10362455
v -0.04334322 -0.09234767 0.11216248
v -0.04096426 -0.09288843 0.12272254
v -0.04341401 -0.09288652 0.12268534
v -0.04341460 -0.09288843 0.12272254
v -0.04149576 -0.09360404 0.12268770
v -0.04160060 -0.09357001 0.12268750
v -0.04139059 -0.09363736 0.12268599
v -0.04117791 -0.09370320 0.12268085
v -0.04096457 -0.09376760 0.12268493
v -0.04194731 -0.05968426 0.00444714
v -0.04278224 -0.05913873 0.00438185
v -0.04383070 -0.05829068 0.00428114
v -0.04477191 -0.05733041 0.00416891
v -0.04561710 -0.05625258 0.00404521
v -0.04883276 -0.04441495 0.00283122
v -0.04914659 -0.04560401 0.00625552
v -0.04857009 -0.04828770 0.00318644
v -0.04652892 -0.05476572 0.00387897
v -0.04706050 -0.05367397 0.00375885
v -0.04775335 -0.05185081 0.00356157
v -0.04194617 -0.06144835 0.00458345
v -0.04195429 -0.05979572 0.00360690
v -0.04195507 -0.05987369 0.00351302
v -0.04283213 -0.05930714 0.00345102
v -0.04858994 -0.04832380 0.00275632
v -0.04887593 -0.04445033 0.00242186
v -0.04878809 -0.04838239 0.00237684
v -0.04908461 -0.04447536 0.00206520
v -0.04912752 -0.04845254 0.00211884
v -0.04942021 -0.04449289 0.00182345
v -0.04304213 -0.05963333 0.00315428
v -0.04195740 -0.06030829 0.00323290
v -0.04195607 -0.06000938 0.00339231
v -0.04195215 -0.05966450 0.00386395
v -0.04273801 -0.05912803 0.00389555
v -0.04195139 -0.05964069 0.00395536
v -0.04194971 -0.05962418 0.00415751
v -0.04413710 -0.05875520 0.00306173
v -0.04389504 -0.05845709 0.00335759
v -0.04378423 -0.05828910 0.00379860
v -0.04600723 -0.05664544 0.00284767
v -0.04696295 -0.05511011 0.00269913
v -0.04571504 -0.05641006 0.00314001
v -0.04664975 -0.05491407 0.00298773
v -0.04557439 -0.05626844 0.00357175
v -0.04649364 -0.05479021 0.00341211
v -0.04825176 -0.05211170 0.00242529
v -0.04791818 -0.05197848 0.00270261
v -0.04773980 -0.05188511 0.00310928
v -0.04344186 -0.06774126 0.02812587
v -0.04692463 -0.06572814 0.02883193
v -0.05216981 -0.05888395 0.03135382
v -0.05175246 -0.06007387 0.03090752
v -0.05132733 -0.05484135 0.01887278
v -0.05020776 -0.06266440 0.02993193
v -0.04966914 -0.05880593 0.01753679
v -0.05013387 -0.06275694 0.02989750
v -0.05137466 -0.04844309 0.01447395
v -0.05082532 -0.04632755 0.00815888
v -0.05277133 -0.05467816 0.03290505
v -0.05172553 -0.04974766 0.01870222
v -0.04882605 -0.06416710 0.02938177
v -0.04673782 -0.06210451 0.01645739
v -0.05078932 0.03458785 0.00725885
v -0.05058469 0.00000321 0.00664426
v -0.05071888 0.02368574 0.00699918
v -0.05076500 0.02914348 0.00719549
v -0.05080653 0.03459162 0.00744111
v -0.05083678 0.04276793 0.00791173
v -0.05082533 0.04633433 0.00815890
v -0.05078933 -0.03458177 0.00725885
v -0.05080655 -0.03458561 0.00744134
v -0.05077199 -0.02999745 0.00723097
v -0.05075608 -0.02805690 0.00715289
v -0.05060598 -0.00819833 0.00668401
v -0.04380768 0.06757380 0.02818668
v -0.04692124 0.06573752 0.02883058
v -0.04673778 0.06211181 0.01645716
v -0.05261211 0.05380383 0.03053079
v -0.05156774 0.04915492 0.01677792
v -0.05132725 0.05484886 0.01887247
v -0.05277133 0.05468480 0.03290468
v -0.05233086 0.05826537 0.03158618
v -0.05130328 0.06101856 0.03055300
v -0.04966905 0.05881333 0.01753652
v -0.05020778 0.06267135 0.02993143
v -0.04956147 0.06342813 0.02965183
v 0.00102653 0.08758107 0.28600112
v 0.00102653 0.09187493 0.28600055
v 0.00102653 0.09130214 0.28800064
v 0.00102038 0.07778005 0.29160219
v 0.00102653 0.07704148 0.28921321
v 0.00102067 0.07835445 0.29142562
v 0.00102653 0.08000295 0.28830218
v 0.00102984 0.07850090 0.29190409
v 0.00102653 0.08623269 0.28640676
v 0.00102653 0.08650295 0.28632563
v 0.00102190 -0.07759164 0.29101261
v 0.00102038 -0.07777391 0.29160219
v 0.00102653 -0.08584239 0.28652295
v 0.00102653 -0.08757494 0.28600112
v 0.00102653 -0.09186880 0.28600055
v 0.00102346 -0.07740436 0.29040688
v 0.00102653 -0.07961132 0.28842053
v 0.00102502 -0.07721712 0.28980118
v 0.00102653 -0.07937790 0.28849205
v 0.00102653 -0.07703535 0.28921321
v -0.04342837 -0.09073927 0.08352713
v -0.04398584 -0.09262885 0.12268626
v -0.04791596 -0.09008993 0.12268078
v -0.04686322 -0.09092794 0.12268279
v -0.04534716 -0.08956297 0.08247178
v -0.04579275 -0.08924703 0.08246999
v -0.04742643 -0.08784492 0.08246481
v -0.05139511 -0.08601721 0.12267282
v -0.04833298 -0.08686601 0.08246321
v -0.05063692 -0.08345880 0.08246372
v -0.05215171 -0.07272534 0.05972888
v -0.05220305 -0.07684223 0.06876022
v -0.05007970 -0.08099933 0.06707970
v -0.05162290 -0.08013032 0.07448997
v -0.05047613 -0.08310764 0.07714935
v -0.04948081 -0.08461671 0.07617661
v -0.04626938 -0.08883654 0.08186015
v -0.04569027 -0.08907469 0.07952797
v -0.04854695 -0.08639003 0.07985549
v -0.04806098 -0.08632882 0.07548489
v -0.04640573 -0.08780797 0.07487322
v -0.05297687 -0.06824936 0.05693341
v -0.05349101 -0.06648837 0.05828545
v -0.05317154 -0.07185890 0.06545964
v -0.04984277 -0.07677965 0.05804507
v -0.05002600 -0.07302527 0.05252548
v -0.05183280 -0.07072721 0.05482601
v -0.04829254 -0.07440551 0.05087047
v -0.04655952 -0.07998486 0.05669245
v -0.04683890 -0.07521765 0.04973201
v -0.04685566 -0.08620162 0.07030251
v -0.04700636 -0.08431317 0.06574224
v -0.05256654 -0.07629348 0.07062893
v -0.04688708 -0.07222213 0.04481086
v -0.05014151 -0.06984560 0.04716846
v -0.05328688 -0.05925192 0.04425499
v -0.05236144 -0.06376816 0.04372445
v -0.05144183 -0.06555639 0.04261417
v -0.05019244 -0.06716035 0.04154114
v -0.04689727 -0.06971960 0.03962046
v -0.05234390 -0.06663464 0.04973711
v -0.05302395 -0.06480370 0.05102118
v -0.05348115 -0.06334375 0.05292431
v 0.00102179 -0.07721744 0.28980112
v 0.00102306 -0.07703541 0.28921327
v 0.00101959 -0.07703547 0.28921330
v -0.01241519 0.07656330 0.28893676
v -0.00992965 0.07677636 0.28906199
v -0.01262638 0.07731114 0.29131305
v -0.00752722 0.07766527 0.29153103
v -0.00743254 0.07691990 0.28914639
v -0.00324748 0.07778902 0.29160857
v -0.01335731 0.07723603 0.29126728
v -0.01936931 0.07633886 0.29074213
v -0.02365943 0.07436475 0.28784853
v -0.02545314 0.07485974 0.28996035
v -0.02603589 0.07468727 0.28987575
v -0.03259909 0.07090339 0.28655240
v -0.03201906 0.07254310 0.28892767
v -0.03400373 0.07164089 0.28858069
v -0.04008167 0.06588329 0.28521696
v -0.04131119 0.06688815 0.28714910
v -0.04339880 0.06227680 0.28454924
v -0.04323600 0.06505080 0.28672537
v -0.04004853 0.06591457 0.28522331
v -0.03993564 0.06601712 0.28524476
v -0.03742398 0.06976053 0.28794247
v -0.03786825 0.06771216 0.28563601
v -0.03696056 0.07004455 0.28803170
v -0.03595309 0.06902398 0.28598374
v -0.03310818 0.07064627 0.28646901
v -0.04469229 0.06342149 0.28638935
v -0.04519323 0.06280421 0.28627029
v -0.04607263 0.05821620 0.28397539
v -0.04649022 0.06104495 0.28595266
v -0.04719855 0.05599560 0.28372803
v -0.04893921 0.05685212 0.28531691
v -0.04806524 0.05395639 0.28353804
v -0.04980550 0.04841039 0.28315133
v -0.05090962 0.05204780 0.28477708
v -0.05033528 0.04607664 0.28303093
v -0.05260144 0.04570156 0.28427517
v -0.05047338 0.04539241 0.28299990
v -0.05434791 0.03127970 0.28363881
v -0.05226304 0.02692853 0.28251842
v -0.05361380 0.03951557 0.28393772
v -0.05159935 0.03758375 0.28272516
v -0.05312715 0.04286808 0.28410614
v -0.05096889 0.04255852 0.28288257
v -0.05048231 0.04534674 0.28299734
v -0.05245196 -0.00485034 0.28235883
v -0.05477083 -0.01022337 0.28330386
v -0.05233555 -0.02426325 0.28248411
v -0.05470640 -0.02044789 0.28340939
v -0.05220925 -0.02844028 0.28253958
v -0.05448394 0.02860354 0.28356817
v -0.05472839 0.01866181 0.28338495
v -0.05245019 0.00935651 0.28237197
v -0.05477866 0.00139837 0.28327423
v -0.05245415 0.00000297 0.28235477
v -0.05477901 0.00000306 0.28327373
v -0.05477843 -0.00170673 0.28327450
v -0.05448444 -0.02859725 0.28356707
v -0.05435208 -0.03120737 0.28363627
v -0.05184591 -0.03481264 0.28265750
v -0.05372060 -0.03863113 0.28389841
v -0.05098556 -0.04244430 0.28287864
v -0.05345467 -0.04071094 0.28399417
v -0.05048208 -0.04534055 0.28299719
v -0.05260135 -0.04569541 0.28427511
v -0.05038645 -0.04582201 0.28301913
v -0.04953740 -0.04943959 0.28321177
v -0.05172094 -0.04938142 0.28454372
v -0.04881389 -0.05186458 0.28337285
v -0.04991810 -0.05468334 0.28505251
v -0.04693618 -0.05654483 0.28378555
v -0.04902722 -0.05666561 0.28529352
v -0.04756882 -0.05936064 0.28567797
v -0.04455017 -0.06068708 0.28430498
v -0.04717477 -0.06000011 0.28577930
v -0.04435417 -0.06381364 0.28646916
v -0.04147930 -0.06450377 0.28494227
v -0.04332893 -0.06494577 0.28670517
v -0.04004851 -0.06590842 0.28522328
v -0.04103394 -0.06712140 0.28720832
v -0.03785919 -0.06771271 0.28563774
v -0.03696050 -0.07003839 0.28803161
v -0.03640038 -0.06872888 0.28590447
v -0.03075781 -0.07305323 0.28913984
v -0.02763701 -0.07302566 0.28731009
v -0.03551196 -0.07086407 0.28830504
v -0.03310820 -0.07064010 0.28646898
v -0.03595313 -0.06901790 0.28598371
v -0.00992962 -0.07677014 0.28906184
v -0.01241519 -0.07655717 0.28893676
v -0.01314864 -0.07725142 0.29128093
v -0.01828687 -0.07569502 0.28846961
v -0.01978358 -0.07625215 0.29069561
v -0.02618342 -0.07463513 0.28985468
v -0.00865352 -0.07760419 0.29149714
v -0.00752727 -0.07765932 0.29153094
v -0.00743247 -0.07691391 0.28914645
v -0.00151657 -0.07779692 0.29161757
v -0.00321115 -0.07704039 0.28922158
v 0.00102049 -0.07740499 0.29040676
v 0.00101296 -0.07777406 0.29160219
v 0.00101918 -0.07759254 0.29101238
v 0.00101791 -0.07777508 0.29160178
v -0.00252710 -0.07704903 0.28922668
v -0.00076774 -0.07779570 0.29161665
v -0.00075071 -0.07705502 0.28922874
v 0.00012647 -0.07778816 0.29161158
v 0.00013791 -0.07704858 0.28922328
v 0.00057347 -0.07778199 0.29160738
v 0.00058223 -0.07704286 0.28921884
v 0.00079696 -0.07777859 0.29160476
v 0.00080439 -0.07703932 0.28921619
v 0.00090870 -0.07777672 0.29160333
v 0.00091546 -0.07703738 0.28921473
v 0.00096457 -0.07777567 0.29160261
v 0.00097100 -0.07703637 0.28921399
v 0.00099257 -0.07777514 0.29160225
v 0.00099876 -0.07703586 0.28921360
v 0.00100647 -0.07777469 0.29160210
v 0.00101265 -0.07703559 0.28921342
v -0.05292842 0.04876235 0.03290319
v -0.05315597 0.04747182 0.03553704
v -0.05319515 0.02761211 0.03553777
v -0.05364580 0.00000255 0.04313356
v -0.05506397 0.00033467 0.06442386
v -0.05506501 0.00000306 0.06442233
v -0.05512429 0.04880510 0.06441081
v -0.05520134 0.03142925 0.06441382
v -0.05515886 0.02261733 0.06441579
v -0.05315596 -0.04746647 0.03553703
v -0.05313463 -0.04875951 0.03553706
v -0.05292846 -0.04875551 0.03290398
v -0.05319514 -0.02760564 0.03553776
v -0.05520136 -0.03142373 0.06441414
v -0.05520571 -0.04114740 0.06441239
v -0.05512419 -0.04879774 0.06441136
v -0.04127941 0.09485075 0.08480450
v -0.04128122 0.09243993 0.08458737
v -0.04124047 0.09510612 0.08949032
v -0.04112367 0.09348337 0.10354335
v -0.04101564 0.09656373 0.11654077
v -0.04096611 0.09451495 0.12249994
v -0.04096578 0.09688355 0.12253956
v -0.04096578 0.09451705 0.12253956
v -0.06121983 -0.04564808 0.16747683
v -0.05937602 -0.04565711 0.13600813
v -0.05960791 -0.03627388 0.13598339
v -0.06155998 -0.04564224 0.17380786
v -0.06236198 -0.02272112 0.17704411
v -0.06031052 0.00000356 0.14377178
v -0.05976935 0.00000306 0.13587829
v -0.06347042 -0.02271490 0.20814227
v -0.06245828 -0.04561652 0.19495286
v -0.06233496 -0.04562043 0.19104098
v -0.06290665 -0.02408124 0.23205756
v -0.06228321 -0.04562117 0.23207386
v -0.06243112 -0.04561605 0.22890045
v -0.06270062 -0.04560803 0.21876340
v -0.06273592 -0.04560553 0.21235989
v -0.06361678 0.00000294 0.21605055
v -0.06305602 0.00000306 0.23204945
v -0.06263923 0.00000526 0.17963004
v -0.06348496 0.00000335 0.19968699
v -0.06363090 0.00000303 0.20814033
v -0.05569091 -0.05883487 0.08199549
v -0.05482624 -0.05800615 0.06441180
v -0.05438803 -0.07953690 0.12261140
v -0.05300316 -0.08304678 0.12263972
v -0.05140321 -0.08600719 0.12267274
v -0.05063178 -0.08344389 0.08221012
v -0.05088943 -0.08294870 0.08220199
v -0.05245389 -0.07919742 0.08215744
v -0.05390226 -0.07381009 0.08210639
v -0.05650688 -0.07078151 0.12256590
v -0.05430172 -0.07172467 0.08209082
v -0.05493841 -0.06739651 0.08205732
v -0.05784178 -0.05954401 0.12253053
v -0.05854831 -0.04564865 0.12249642
v -0.04117814 -0.09370355 0.12268784
v -0.04013997 -0.09991319 0.22189637
v -0.04013997 -0.10284062 0.22189637
v -0.04022300 -0.09941714 0.21190692
v -0.04026201 -0.10216023 0.20726927
v -0.04051204 -0.09728475 0.17713137
v -0.04058466 -0.09976198 0.16836955
v -0.04059570 -0.09661095 0.16706529
v -0.04073944 -0.09544615 0.14977109
v -0.05210773 -0.08654399 0.14501734
v -0.05229720 -0.08653887 0.14993708
v -0.04987434 -0.08945914 0.14460601
v -0.05259242 -0.08646478 0.15704541
v -0.05288313 -0.08633740 0.16361311
v -0.05061108 -0.08963014 0.16713801
v -0.04678113 -0.09490670 0.21216364
v -0.04478636 -0.09649421 0.21209179
v -0.04821004 -0.09289683 0.18966205
v -0.04426783 -0.09485812 0.16708876
v -0.05352307 -0.08594035 0.17731245
v -0.05410284 -0.08549558 0.18990961
v -0.05143674 -0.08944242 0.18972494
v -0.05415030 -0.08545552 0.19102201
v -0.04857313 -0.09326337 0.21222340
v -0.05182920 -0.08957036 0.21231984
v -0.05457853 -0.08536930 0.21238877
v -0.05466839 -0.08500330 0.20473824
v -0.05488353 -0.08481358 0.21239518
v -0.05157856 -0.08626257 0.12917989
v -0.04722142 -0.09188055 0.14460546
v -0.04767928 -0.09251575 0.16711128
v -0.05381262 -0.08340313 0.14500436
v -0.05601058 -0.08163671 0.18993005
v -0.05729191 -0.07942371 0.21242620
v -0.05756941 -0.07740672 0.18993972
v -0.05930381 -0.07266711 0.21243148
v -0.05984970 -0.06794231 0.18994227
v -0.06021254 -0.06836645 0.21242650
v -0.06133618 -0.05730326 0.18993829
v -0.06091794 -0.06415205 0.21241780
v -0.06222763 -0.05270182 0.21238391
v -0.06024455 -0.05852716 0.16746387
v -0.05487374 -0.08276604 0.16744249
v -0.05528099 -0.07973297 0.14499518
v -0.05754283 -0.07073863 0.14498673
v -0.05903479 -0.05941607 0.14498740
v -0.05870883 -0.06959160 0.16745356
v -0.05640046 -0.07883160 0.16744646
v -0.04011741 -0.10313086 0.23647024
v -0.04009910 -0.10312541 0.23139100
v -0.04009910 -0.10024945 0.23139103
v -0.04007987 -0.09954058 0.24607085
v -0.04007987 -0.10239671 0.24607085
v -0.04012644 -0.10000621 0.24224459
v -0.04012619 -0.10284446 0.24224456
v -0.04011622 -0.10028596 0.23647027
v -0.04011538 -0.10028772 0.23602672
v -0.04010662 -0.10010763 0.22664271
v -0.04010662 -0.10300477 0.22664247
v -0.04012042 -0.10001956 0.22436424
v -0.04685126 -0.09523098 0.22428043
v -0.04681341 -0.09507655 0.21835943
v -0.04665723 -0.09535004 0.23626567
v -0.04469075 -0.09704261 0.23619471
v -0.05245465 -0.08902846 0.22437195
v -0.04863796 -0.09339710 0.23633601
v -0.04724659 -0.09479778 0.23628666
v -0.05595099 -0.08294971 0.22444563
v -0.05456864 -0.08507796 0.23652728
v -0.05183335 -0.08951856 0.23644589
v -0.05855165 -0.07430340 0.23661073
v -0.05688596 -0.07979251 0.23658286
v -0.05562226 -0.08291478 0.23655488
v -0.05873951 -0.07512821 0.22451650
v -0.06019648 -0.06856133 0.22456060
v -0.05940863 -0.07048894 0.23662652
v -0.06203702 -0.05381335 0.22462972
v -0.06076336 -0.06177138 0.23663796
v -0.06181946 -0.04938535 0.23660822
v -0.06201369 -0.04562791 0.23659141
v -0.06213029 -0.05375199 0.21872722
v -0.06022511 -0.06847771 0.21864320
v -0.05874593 -0.07503067 0.21859781
v -0.05594117 -0.08284132 0.21852641
v -0.05243014 -0.08890660 0.21845691
v -0.00785124 -0.09193040 0.28571382
v -0.01413426 -0.09214090 0.28493053
v -0.02694799 -0.09370296 0.27938059
v -0.02576764 -0.09345807 0.28024411
v -0.02239692 -0.09287648 0.28229925
v -0.01859798 -0.09243451 0.28387088
v -0.01532009 -0.09220363 0.28470239
v -0.02881710 -0.09414090 0.27783835
v -0.03741308 -0.09784149 0.26486388
v -0.03391773 -0.09580700 0.27198711
v -0.03942385 -0.10039605 0.25593930
v -0.03948205 -0.10052212 0.25547430
v -0.03953683 -0.10064460 0.25500867
v -0.03990864 -0.10163285 0.25056836
v -0.06229819 0.00000309 0.24093281
v -0.06201899 -0.02273111 0.24291150
v -0.06043970 0.00000306 0.25363132
v -0.06043956 -0.00004770 0.25363114
v -0.06123372 -0.04564105 0.24567612
v -0.06044326 -0.00322224 0.25363067
v -0.06051734 -0.02738170 0.25367355
v -0.06018692 -0.04565071 0.25369456
v -0.05895505 -0.03566192 0.26160362
v -0.05919208 -0.02354343 0.26060057
v -0.05713401 -0.02300261 0.26885474
v -0.05456167 -0.02228097 0.27686998
v -0.05878017 -0.04563351 0.26112333
v -0.05875080 -0.04563241 0.26125404
v -0.05877862 -0.04563330 0.26113006
v -0.05846848 -0.04562734 0.26247352
v -0.05680530 -0.03519811 0.26988676
v -0.05615724 -0.04556461 0.27053785
v -0.05401579 -0.03444172 0.27784404
v -0.05338620 -0.04546539 0.27748901
v -0.05188226 -0.04540332 0.28051695
v -0.05543556 0.00000306 0.27400622
v -0.05647538 0.00000261 0.27061924
v -0.06040328 0.00000034 0.25383341
v -0.05884906 0.00000246 0.26147872
v -0.05373005 -0.06541817 0.05905790
v -0.05369959 -0.07127859 0.07035599
v -0.02383886 -0.08000101 0.28574461
v -0.01824683 -0.08884613 0.28397718
v -0.02142941 -0.08929016 0.28278384
v -0.01960654 -0.07745932 0.28765184
v -0.01284526 -0.08853026 0.28514475
v -0.01531971 -0.08866446 0.28470245
v -0.00738256 -0.08811690 0.28574950
v -0.02813839 -0.07331432 0.28703627
v -0.03242056 -0.07496779 0.28470513
v -0.02989102 -0.07896836 0.28396413
v -0.02758972 -0.08241667 0.28341672
v -0.02239678 -0.08951379 0.28229928
v 0.00045574 -0.08759217 0.28600422
v -0.03953683 -0.09776507 0.25500867
v -0.03994499 -0.09889014 0.24989517
v -0.03942385 -0.09750979 0.25593930
v -0.03948200 -0.09763865 0.25547412
v -0.05842686 -0.07044305 0.24678342
v -0.05962755 -0.06384088 0.24657948
v -0.06073293 -0.05372812 0.24611978
v -0.05720604 -0.06980224 0.25442860
v -0.05703008 -0.06277795 0.26098168
v -0.05687441 -0.07035775 0.25526372
v -0.05530430 -0.07027493 0.26087034
v -0.05921791 -0.05833782 0.25409290
v -0.05732334 -0.06105389 0.26100326
v -0.05811867 -0.05493765 0.26106602
v -0.05060424 -0.08196606 0.26024577
v -0.05268987 -0.07780646 0.26045835
v -0.05059540 -0.07678317 0.26608402
v -0.04218379 -0.09343038 0.25908023
v -0.03992036 -0.09252806 0.26464626
v -0.04663326 -0.09485288 0.24153246
v -0.05240063 -0.08775340 0.24228920
v -0.03823267 -0.07793789 0.27982709
v -0.03581305 -0.08157276 0.27931720
v -0.04000700 -0.08203642 0.27563834
v -0.03424282 -0.08982156 0.27466175
v -0.03363609 -0.08470018 0.27886072
v -0.02881710 -0.09117426 0.27783835
v -0.04310176 -0.06988786 0.28077462
v -0.05008857 -0.07005246 0.27235809
v -0.04805903 -0.07550980 0.27142212
v -0.04676432 -0.06996028 0.27699104
v -0.04508418 -0.07390560 0.27634874
v -0.05502144 -0.07026072 0.26171833
v -0.05263713 -0.07014830 0.26764283
v -0.05556477 -0.07913111 0.24869655
v -0.05433305 -0.07857727 0.25463134
v -0.05369483 -0.08339848 0.24852146
v -0.05141402 -0.08744191 0.24822862
v -0.04560015 -0.09461068 0.24740110
v -0.04405912 -0.09410842 0.25327104
v -0.03445100 -0.09323259 0.27115467
v -0.03658323 -0.09438302 0.26702178
v -0.03741340 -0.09498505 0.26486295
v -0.03819490 -0.09570624 0.26231012
v -0.03150036 -0.09204860 0.27514184
v -0.03730634 -0.09137450 0.26990932
v -0.04314332 -0.08365481 0.27084094
v -0.04585293 -0.08492322 0.26556012
v -0.04813067 -0.08595322 0.25992644
v -0.05001533 -0.08680393 0.25411224
v -0.04927567 -0.06495704 0.27671465
v -0.04648930 -0.06307878 0.28117168
v -0.05115091 -0.04892008 0.28081721
v -0.05344739 -0.05065320 0.27592406
v -0.05554761 -0.05177523 0.27059856
v -0.05188290 -0.06632604 0.27172956
v -0.05406165 -0.06751315 0.26638460
v -0.05597948 -0.06024252 0.26585403
v -0.05404145 -0.05916603 0.27131790
v -0.05169504 -0.05792601 0.27649063
v -0.04911058 -0.05627148 0.28118974
v -0.03700514 -0.07377882 0.28297818
v -0.02474627 -0.09008260 0.28088564
v -0.06347042 0.02272101 0.20814227
v -0.06236198 0.02272727 0.17704411
v -0.05973796 0.02390589 0.13595362
v -0.06245828 0.04562265 0.19495286
v -0.06273592 0.04561165 0.21235989
v -0.06271821 0.04561488 0.21713628
v -0.06228321 0.04562730 0.23207386
v -0.06292565 0.02271636 0.23205389
v -0.06278517 0.03085058 0.23205812
v -0.06233496 0.04562654 0.19104098
v -0.06219276 0.04563114 0.18719083
v -0.06041404 0.04566257 0.15329264
v -0.05937602 0.04566324 0.13600813
v -0.04534716 0.08956909 0.08247178
v -0.04520814 0.08966655 0.08256280
v -0.04751591 0.08912358 0.10269564
v -0.04794002 0.08731721 0.08246801
v -0.04941678 0.08709766 0.10269441
v -0.05015694 0.08430694 0.08246439
v -0.05063692 0.08346492 0.08246372
v -0.05139511 0.08602333 0.12267282
v -0.04950111 0.08853272 0.12267714
v -0.04779269 0.09020162 0.12268103
v -0.04412559 0.09256849 0.12268616
v -0.04567447 0.09172876 0.12268455
v -0.05242314 0.07929282 0.08215658
v -0.05063178 0.08345002 0.08221012
v -0.05140321 0.08601333 0.12267274
v -0.05300324 0.08305274 0.12263972
v -0.05569091 0.05884100 0.08199549
v -0.05506243 0.06634639 0.08205362
v -0.05784196 0.05954787 0.12253053
v -0.05401001 0.07328928 0.08210259
v -0.05650708 0.07078646 0.12256590
v -0.05438818 0.07954259 0.12261140
v -0.05854831 0.04565477 0.12249642
v -0.05482624 0.05801277 0.06441143
v -0.04013997 0.10284676 0.22189637
v -0.04037782 0.10136245 0.19323535
v -0.04089133 0.09738928 0.13151667
v -0.05415030 0.08546163 0.19102201
v -0.05410281 0.08550175 0.18990886
v -0.05165156 0.08917472 0.18972915
v -0.04505944 0.09439436 0.16709326
v -0.04506996 0.09628837 0.21210401
v -0.05005180 0.08926709 0.14460561
v -0.04763853 0.09156436 0.14460407
v -0.05288313 0.08634351 0.16361311
v -0.05229720 0.08654501 0.14993708
v -0.05200473 0.08653393 0.14222175
v -0.05466839 0.08500943 0.20473824
v -0.05488353 0.08481969 0.21239518
v -0.05204577 0.08928910 0.21232753
v -0.04877906 0.09306543 0.21223216
v -0.04814067 0.09213178 0.16711447
v -0.05080678 0.08940391 0.16713978
v -0.05352307 0.08594647 0.17731245
v -0.05641948 0.08162308 0.21241896
v -0.05601064 0.08164267 0.18992931
v -0.05487373 0.08277206 0.16744065
v -0.05381259 0.08340909 0.14500146
v -0.05903485 0.05942000 0.14498450
v -0.06024468 0.05853121 0.16746204
v -0.06133636 0.05730742 0.18993755
v -0.05984988 0.06794728 0.18994151
v -0.06021804 0.06834313 0.21242647
v -0.06170828 0.05797806 0.21240063
v -0.05850928 0.07570031 0.21243204
v -0.05528101 0.07973869 0.14499228
v -0.05640053 0.07883736 0.16744463
v -0.05756954 0.07741238 0.18993898
v -0.05870896 0.06959665 0.16745172
v -0.05754291 0.07074364 0.14498381
v -0.06264254 0.04719462 0.21236576
v -0.04009910 0.10025558 0.23139103
v -0.04009909 0.10313150 0.23139100
v -0.04011538 0.10029386 0.23602672
v -0.04011738 0.10313702 0.23647024
v -0.04011622 0.10029495 0.23647024
v -0.04012619 0.10285062 0.24224456
v -0.04012643 0.10001144 0.24224468
v -0.04007987 0.10240284 0.24607085
v -0.04007987 0.09954672 0.24607085
v -0.04009923 0.10018963 0.22892167
v -0.04010662 0.10011375 0.22664271
v -0.04685145 0.09523696 0.22428043
v -0.04681360 0.09508252 0.21835943
v -0.05243028 0.08891253 0.21845691
v -0.06213038 0.05375712 0.21872722
v -0.06022524 0.06848313 0.21864320
v -0.05874586 0.07503702 0.21859781
v -0.05594107 0.08284765 0.21852641
v -0.06203710 0.05381849 0.22462972
v -0.06201369 0.04563405 0.23659141
v -0.06111101 0.05857095 0.23663454
v -0.06019660 0.06856674 0.22456060
v -0.05751023 0.07796617 0.23659258
v -0.05940863 0.07049507 0.23662652
v -0.05989673 0.06784920 0.23663329
v -0.05873945 0.07513456 0.22451650
v -0.05595089 0.08295605 0.22444563
v -0.05547997 0.08323319 0.23655073
v -0.05294600 0.08788073 0.23648034
v -0.05245478 0.08903441 0.22437195
v -0.05217499 0.08903964 0.23645677
v -0.04975662 0.09216340 0.23637639
v -0.04606358 0.09589030 0.23624428
v -0.04197599 0.09907457 0.23609744
v -0.02694799 0.09370910 0.27938059
v -0.02881710 0.09414704 0.27783835
v -0.03741308 0.09784761 0.26486388
v -0.03942385 0.10040219 0.25593930
v -0.03391773 0.09581313 0.27198711
v -0.03948205 0.10052826 0.25547430
v -0.03953683 0.10065073 0.25500867
v -0.03990864 0.10163899 0.25056836
v -0.06201899 0.02273725 0.24291150
v -0.06051156 0.02890095 0.25367752
v -0.06018692 0.04565684 0.25369456
v -0.06123372 0.04564719 0.24567612
v -0.05047613 0.08311377 0.07714935
v -0.04935639 0.08520290 0.07888453
v -0.04729752 0.08787394 0.08105896
v -0.05401579 0.03444783 0.27784407
v -0.05895505 0.03566805 0.26160362
v -0.05919208 0.02354957 0.26060057
v -0.05713401 0.02300872 0.26885477
v -0.05456167 0.02228712 0.27687001
v -0.05878017 0.04563963 0.26112333
v -0.05728503 0.04560353 0.26696146
v -0.05680530 0.03520422 0.26988676
v -0.05490007 0.04552761 0.27395710
v -0.05188226 0.04540914 0.28051695
v -0.05350000 0.06645280 0.05831278
v -0.05349101 0.06649506 0.05828492
v -0.05326916 0.07073171 0.06402244
v -0.05478940 0.05835643 0.06416014
v -0.05399226 0.06412108 0.06000256
v -0.05369959 0.07128473 0.07035599
v -0.05267517 0.07568684 0.06995926
v -0.05184471 0.07939957 0.07378989
v -0.05216643 0.07269366 0.05973971
v -0.04988780 0.07672414 0.05806578
v -0.05012157 0.08094276 0.06710102
v -0.04577871 0.08901872 0.07955319
v -0.04952342 0.08456260 0.07619791
v -0.04649235 0.08774681 0.07489865
v -0.04497145 0.07596152 0.04850177
v -0.04665065 0.07992224 0.05671710
v -0.04681751 0.07523495 0.04971538
v -0.04957885 0.07344431 0.05205899
v -0.05019950 0.07285966 0.05271357
v -0.05197901 0.07048234 0.05505360
v -0.05220459 0.07006402 0.05542499
v -0.05299257 0.06821172 0.05696799
v -0.05221683 0.07681026 0.06877194
v -0.04709320 0.08424838 0.06576731
v -0.04694159 0.08613750 0.07032762
v -0.01368754 0.08858401 0.28500852
v -0.01197015 0.08848351 0.28527239
v -0.01960654 0.07746543 0.28765184
v -0.02813839 0.07332043 0.28703627
v -0.02383886 0.08000714 0.28574461
v -0.02758840 0.08242472 0.28341642
v -0.02239678 0.08951992 0.28229928
v -0.03242056 0.07497391 0.28470513
v -0.02989465 0.07896891 0.28396505
v -0.00738256 0.08812304 0.28574950
v -0.02142941 0.08929628 0.28278384
v -0.01854602 0.08887741 0.28388694
v -0.01531979 0.08867104 0.28470245
v -0.00673784 0.08806406 0.28579429
v -0.03974378 0.09828591 0.25291026
v -0.03953683 0.09777121 0.25500867
v -0.03948202 0.09764463 0.25547451
v -0.03942385 0.09751591 0.25593930
v -0.05842686 0.07044917 0.24678342
v -0.05920427 0.06649032 0.24667244
v -0.06036877 0.05781023 0.24632268
v -0.05724166 0.07038496 0.25363699
v -0.05720600 0.06980833 0.25442883
v -0.05877443 0.04576734 0.26112247
v -0.05868214 0.04761519 0.26111475
v -0.05921787 0.05834395 0.25409314
v -0.05826765 0.05340247 0.26107842
v -0.05530430 0.07028106 0.26087034
v -0.05643086 0.06579773 0.26093990
v -0.05774536 0.05815400 0.26103559
v -0.03897346 0.07679278 0.27998227
v -0.04310176 0.06989399 0.28077462
v -0.04508418 0.07391173 0.27634874
v -0.03363485 0.08470805 0.27886048
v -0.03424282 0.08982769 0.27466175
v -0.02881710 0.09118038 0.27783835
v -0.03226813 0.09233223 0.27423194
v -0.04218379 0.09343652 0.25908023
v -0.03741338 0.09498683 0.26486304
v -0.03992036 0.09253420 0.26464626
v -0.03696500 0.09464628 0.26608336
v -0.03730634 0.09138063 0.26990932
v -0.03471797 0.09336048 0.27071372
v -0.03391683 0.09299515 0.27198848
v -0.04405912 0.09411456 0.25327104
v -0.03854539 0.09610723 0.26090610
v -0.04663326 0.09485902 0.24153246
v -0.04560015 0.09461680 0.24740113
v -0.04872163 0.09119394 0.24784125
v -0.04661681 0.06996296 0.27716684
v -0.04976472 0.07004818 0.27287400
v -0.04805903 0.07551593 0.27142212
v -0.05281739 0.07016222 0.26725632
v -0.05059540 0.07678927 0.26608405
v -0.05268987 0.07781258 0.26045835
v -0.05433305 0.07858339 0.25463134
v -0.04000700 0.08204255 0.27563834
v -0.03581650 0.08157381 0.27931795
v -0.03823267 0.07794403 0.27982709
v -0.05556477 0.07913725 0.24869655
v -0.05369483 0.08340462 0.24852146
v -0.05001533 0.08681007 0.25411224
v -0.04314332 0.08366093 0.27084094
v -0.04585293 0.08492936 0.26556012
v -0.04813067 0.08595935 0.25992644
v -0.05141402 0.08744805 0.24822862
v -0.04564456 0.06493568 0.28110301
v -0.04652981 0.06299295 0.28117430
v -0.04927565 0.06496315 0.27671468
v -0.05188289 0.06633215 0.27172959
v -0.05406164 0.06751929 0.26638463
v -0.05554761 0.05178137 0.27059859
v -0.05597947 0.06024866 0.26585403
v -0.05404143 0.05917215 0.27131793
v -0.05344737 0.05065931 0.27592409
v -0.05110614 0.04912040 0.28083190
v -0.05169502 0.05793214 0.27649066
v -0.04913953 0.05619039 0.28118744
v -0.03701562 0.07376871 0.28298077
v -0.02641734 0.09051557 0.27973098
v -0.02576764 0.09346421 0.28024411
v -0.02239692 0.09288262 0.28229925
v -0.05015914 0.06720281 0.04151536
v -0.05140946 0.06561373 0.04258064
v -0.05233447 0.06384134 0.04368373
v -0.04687529 0.06973904 0.03960905
v -0.04686531 0.07224053 0.04479684
v -0.05318526 0.05800718 0.04130889
v -0.05342279 0.06160915 0.04942924
v -0.05231488 0.06670474 0.04969005
v -0.05010856 0.06988606 0.04713766
v -0.01865261 0.09244539 0.28385389
v -0.00645964 0.09191178 0.28581217
v -0.01351553 0.09211779 0.28503746
v -0.01532052 0.09220979 0.28470230
v -0.04890053 0.00000359 0.00479112
v -0.04857742 0.00000326 0.00145853
v -0.04870044 0.02222659 0.00176876
v -0.04883207 0.04100411 0.00260958
v -0.04870040 -0.02224575 0.00176943
v -0.04874641 -0.02225740 0.00135820
v -0.04862342 0.00000368 0.00104703
v -0.04895508 -0.02226607 0.00100078
v -0.04883207 0.00000365 0.00068937
v -0.04929067 -0.02227031 0.00075844
v -0.04916771 0.00000362 0.00044689
v -0.04887813 0.04102933 0.00219899
v -0.04908683 0.04105097 0.00184218
v -0.04942241 0.04106532 0.00160028
v -0.04929070 0.02225112 0.00075773
v -0.04895511 0.02224688 0.00100009
v -0.04874644 0.02223821 0.00135752
f 1 2 3
f 3 2 4
f 4 2 228
f 228 230 4
f 228 229 230
f 105 229 228
f 105 225 229
f 226 225 105
f 225 226 227
f 225 227 230
f 230 227 241
f 230 241 235
f 235 241 242
f 241 232 242
f 242 232 233
f 242 233 243
f 243 233 234
f 243 234 244
f 237 243 244
f 237 244 238
f 238 244 245
f 238 245 239
f 239 245 246
f 245 224 246
f 224 1099 246
f 246 1099 1100
f 1102 1100 1099
f 1102 1099 1103
f 1103 1099 1098
f 1103 1098 1089
f 1089 1098 1090
f 215 1089 1090
f 215 1090 216
f 215 216 217
f 224 217 216
f 223 217 224
f 223 218 217
f 54 217 218
f 54 218 214
f 54 214 56
f 56 214 213
f 234 213 214
f 234 214 223
f 56 213 57
f 57 213 59
f 212 59 213
f 233 212 213
f 212 61 59
f 60 59 61
f 60 61 62
f 62 61 63
f 211 63 61
f 210 63 211
f 210 211 232
f 232 211 212
f 231 210 232
f 231 209 210
f 209 65 210
f 209 67 65
f 208 67 209
f 221 208 209
f 220 208 221
f 222 208 220
f 219 222 220
f 219 105 222
f 105 207 222
f 105 69 207
f 207 69 208
f 48 69 105
f 48 70 69
f 47 70 48
f 47 134 70
f 181 134 47
f 181 132 134
f 180 132 181
f 180 130 132
f 179 130 180
f 179 203 130
f 183 203 179
f 183 205 203
f 198 205 183
f 182 198 183
f 182 199 198
f 192 199 182
f 192 143 199
f 193 143 192
f 184 143 193
f 185 143 184
f 185 141 143
f 188 141 185
f 188 139 141
f 137 139 188
f 188 187 137
f 137 187 186
f 137 186 148
f 148 186 191
f 148 191 190
f 591 148 190
f 152 148 591
f 591 160 152
f 591 155 160
f 593 155 591
f 591 592 593
f 593 592 594
f 593 594 595
f 595 158 593
f 158 156 593
f 595 173 158
f 597 173 595
f 595 596 597
f 596 873 597
f 597 873 171
f 873 169 171
f 873 175 169
f 177 175 873
f 873 195 177
f 194 195 873
f 194 164 195
f 166 164 194
f 194 167 166
f 872 194 873
f 871 194 872
f 871 918 194
f 194 918 168
f 168 918 919
f 919 165 168
f 919 920 165
f 878 165 920
f 878 920 887
f 887 920 921
f 937 921 920
f 934 921 937
f 934 925 921
f 925 885 921
f 921 885 886
f 885 884 886
f 884 885 891
f 891 874 884
f 874 876 884
f 874 875 876
f 892 875 874
f 875 892 890
f 889 875 890
f 881 889 890
f 879 889 881
f 879 888 889
f 888 876 889
f 888 887 876
f 886 876 887
f 877 887 888
f 880 877 888
f 857 877 880
f 857 172 877
f 174 172 857
f 173 172 174
f 197 173 174
f 197 158 173
f 159 158 197
f 159 197 857
f 159 857 849
f 849 857 858
f 849 858 856
f 855 849 856
f 879 855 856
f 879 854 855
f 861 854 879
f 854 861 853
f 853 861 862
f 861 883 862
f 862 883 894
f 882 894 883
f 882 893 894
f 902 894 893
f 902 893 903
f 903 893 892
f 903 892 904
f 904 905 903
f 903 905 906
f 905 895 906
f 906 895 867
f 895 865 867
f 865 866 867
f 867 866 859
f 867 859 868
f 868 859 862
f 902 868 862
f 902 906 868
f 866 974 859
f 859 974 954
f 859 954 860
f 859 860 853
f 853 860 852
f 852 860 850
f 850 851 852
f 850 849 851
f 847 849 850
f 850 956 847
f 847 956 978
f 956 955 978
f 978 955 980
f 955 979 980
f 979 991 980
f 979 990 991
f 977 990 979
f 974 977 979
f 989 977 974
f 989 975 977
f 975 976 977
f 986 976 975
f 986 975 987
f 987 975 988
f 969 988 975
f 968 988 969
f 967 968 969
f 1080 968 967
f 967 971 1080
f 1080 971 970
f 1080 970 870
f 870 1079 1080
f 870 383 1079
f 383 384 1079
f 383 380 384
f 574 380 383
f 574 381 380
f 380 381 382
f 53 382 381
f 53 381 371
f 371 71 53
f 370 71 371
f 370 72 71
f 369 72 370
f 369 365 72
f 72 365 74
f 74 365 75
f 368 75 365
f 367 75 368
f 367 368 576
f 576 368 369
f 576 369 575
f 575 581 576
f 575 580 581
f 869 581 580
f 869 580 865
f 846 869 865
f 865 580 870
f 865 870 863
f 972 863 870
f 972 864 863
f 866 864 972
f 972 973 866
f 972 969 973
f 971 969 972
f 989 973 969
f 863 864 865
f 846 581 869
f 846 582 581
f 578 582 846
f 836 578 846
f 845 836 846
f 846 896 845
f 845 896 844
f 844 896 897
f 898 897 896
f 900 897 898
f 898 899 900
f 922 900 899
f 907 900 922
f 907 843 900
f 907 837 843
f 837 834 843
f 837 838 834
f 834 838 839
f 838 907 839
f 834 839 840
f 842 834 840
f 842 840 927
f 927 841 842
f 927 950 841
f 953 950 927
f 928 953 927
f 928 1012 953
f 1011 1012 928
f 1011 1014 1012
f 1012 1014 1017
f 1012 1017 952
f 952 1017 1018
f 1017 1021 1018
f 1017 1020 1021
f 1021 1020 1062
f 1062 1020 1019
f 1062 1019 1044
f 1045 1044 1019
f 1045 1019 1046
f 1046 1019 1013
f 1013 1019 1014
f 1013 1014 1010
f 1047 1013 1010
f 1051 1047 1010
f 1051 1010 930
f 930 935 1051
f 1051 935 1052
f 936 1052 935
f 1057 1052 936
f 1057 1053 1052
f 1036 1053 1057
f 1040 1036 1057
f 1039 1036 1040
f 1039 1006 1036
f 916 1006 1039
f 1038 916 1039
f 914 916 1038
f 940 914 1038
f 940 1038 939
f 939 1038 1040
f 939 1040 938
f 938 937 939
f 939 937 919
f 936 937 938
f 939 919 940
f 940 919 941
f 941 914 940
f 941 912 914
f 910 912 941
f 910 911 912
f 910 909 911
f 908 909 910
f 908 917 909
f 909 917 918
f 941 918 917
f 908 941 917
f 912 911 913
f 910 941 908
f 912 913 914
f 914 913 915
f 914 915 916
f 916 915 949
f 916 949 1006
f 1006 949 948
f 1006 948 1007
f 1007 948 947
f 1007 947 1008
f 1008 947 945
f 1008 945 1009
f 1036 1008 1009
f 1036 1009 1029
f 1029 1009 1037
f 1029 1037 1030
f 1037 944 1030
f 944 1032 1030
f 944 1034 1032
f 946 1034 944
f 946 1035 1034
f 1026 1034 1035
f 1026 1035 1028
f 1027 1026 1028
f 1025 1026 1027
f 1027 997 1025
f 1025 997 1000
f 996 1000 997
f 996 999 1000
f 995 999 996
f 995 466 999
f 995 463 466
f 994 463 995
f 994 455 463
f 993 455 994
f 992 993 994
f 992 1085 993
f 992 1086 1085
f 1004 1086 992
f 1004 1083 1086
f 1003 1083 1004
f 994 1003 1004
f 996 1003 994
f 996 1002 1003
f 998 1002 996
f 998 1073 1002
f 1071 1073 998
f 1071 1072 1073
f 942 1072 1071
f 1071 943 942
f 1027 943 1071
f 943 1027 946
f 1071 998 997
f 1002 1073 1083
f 1002 1083 1003
f 993 1085 1001
f 1001 1085 1084
f 1001 1084 1005
f 459 1001 1005
f 1005 397 459
f 459 397 395
f 459 395 393
f 1005 398 397
f 389 398 1005
f 1005 390 389
f 1005 1084 390
f 993 1001 459
f 459 456 993
f 994 1004 992
f 993 456 455
f 999 466 479
f 999 479 478
f 999 478 1070
f 1070 1050 999
f 1049 999 1050
f 1048 1049 1050
f 1050 1022 1048
f 1048 1022 1024
f 1022 1023 1024
f 476 1023 1022
f 476 1022 1070
f 474 1023 476
f 474 473 1023
f 1023 473 469
f 1023 469 1058
f 469 471 1058
f 1058 471 482
f 1058 482 1059
f 1058 1059 1060
f 1059 1069 1060
f 1060 1069 1068
f 1060 1068 1065
f 1065 1061 1060
f 1060 1061 1041
f 1060 1041 1023
f 1041 1061 1042
f 1042 1061 1062
f 1024 1041 1042
f 1024 1042 1043
f 1054 1024 1043
f 1054 1043 1055
f 1031 1054 1055
f 1033 1054 1031
f 1033 1048 1054
f 1026 1048 1033
f 1031 1032 1033
f 1031 1055 1029
f 1029 1055 1056
f 1055 1045 1056
f 1055 1043 1045
f 1043 1042 1044
f 1065 1062 1061
f 1064 1062 1065
f 1063 1064 1065
f 1065 1066 1063
f 1063 1066 963
f 1063 963 1016
f 1016 1018 1063
f 1016 963 1015
f 1015 952 1016
f 1015 962 952
f 952 962 958
f 958 951 952
f 958 959 951
f 951 959 733
f 733 950 951
f 731 950 733
f 732 731 733
f 614 731 732
f 614 841 731
f 614 613 841
f 608 613 614
f 608 605 613
f 610 605 608
f 610 611 605
f 611 610 712
f 712 610 708
f 708 610 609
f 710 708 609
f 709 708 710
f 707 708 709
f 707 706 708
f 713 708 706
f 713 706 714
f 667 713 714
f 669 713 667
f 671 713 669
f 671 712 713
f 672 712 671
f 671 670 672
f 672 670 606
f 670 607 606
f 601 607 670
f 602 607 601
f 601 598 602
f 673 598 601
f 598 673 677
f 677 673 678
f 673 668 678
f 678 668 666
f 667 666 668
f 665 666 667
f 665 664 666
f 679 666 664
f 679 664 674
f 674 664 652
f 654 652 664
f 653 652 654
f 651 652 653
f 646 651 653
f 646 653 662
f 662 643 646
f 646 643 642
f 646 642 644
f 663 644 642
f 642 641 663
f 641 621 663
f 660 621 641
f 643 660 641
f 643 411 660
f 661 411 643
f 661 412 411
f 302 411 412
f 302 412 410
f 410 304 302
f 303 302 304
f 303 304 305
f 301 302 303
f 301 256 302
f 257 256 301
f 255 256 257
f 255 254 256
f 253 254 255
f 253 290 254
f 253 289 290
f 288 289 253
f 288 295 289
f 426 289 295
f 413 289 426
f 425 413 426
f 428 425 426
f 428 426 429
f 439 428 429
f 440 428 439
f 440 424 428
f 421 424 440
f 421 422 424
f 422 423 424
f 423 427 424
f 424 427 425
f 427 417 425
f 425 417 415
f 425 415 414
f 411 414 415
f 411 415 416
f 413 414 411
f 413 411 409
f 409 411 256
f 416 415 417
f 416 417 418
f 418 622 416
f 622 660 416
f 418 621 622
f 620 621 418
f 418 625 620
f 418 624 625
f 623 624 418
f 423 624 623
f 417 423 623
f 423 625 624
f 620 625 626
f 422 626 625
f 441 626 422
f 441 757 626
f 432 757 441
f 432 431 757
f 757 431 756
f 451 756 431
f 451 431 450
f 450 444 451
f 450 445 444
f 353 444 445
f 353 445 446
f 449 446 445
f 443 446 449
f 449 435 443
f 443 435 434
f 443 434 436
f 434 433 436
f 436 433 437
f 436 437 438
f 438 437 300
f 437 298 300
f 437 296 298
f 296 297 298
f 296 293 297
f 291 293 296
f 291 292 293
f 293 292 294
f 293 294 288
f 439 294 292
f 292 291 440
f 440 291 437
f 291 296 437
f 297 300 298
f 297 299 300
f 281 299 297
f 281 280 299
f 299 280 438
f 438 280 279
f 438 279 442
f 442 279 282
f 442 282 285
f 285 448 442
f 442 448 447
f 448 363 447
f 447 363 358
f 447 358 356
f 447 356 446
f 446 356 354
f 355 354 356
f 355 356 357
f 357 95 355
f 355 95 98
f 355 98 100
f 359 355 100
f 362 355 359
f 362 353 355
f 361 353 362
f 361 362 585
f 361 585 584
f 583 584 585
f 585 359 583
f 359 586 583
f 359 373 586
f 360 373 359
f 373 360 82
f 82 84 373
f 373 84 372
f 373 372 374
f 374 372 85
f 374 85 375
f 586 374 375
f 586 375 376
f 577 586 376
f 577 376 366
f 376 78 366
f 366 78 76
f 366 76 367
f 376 80 78
f 577 366 367
f 587 586 577
f 577 579 587
f 600 587 579
f 600 579 604
f 603 600 604
f 836 603 604
f 836 615 603
f 603 615 602
f 602 615 616
f 602 616 605
f 605 606 602
f 605 612 606
f 605 616 617
f 834 617 616
f 613 617 834
f 834 616 835
f 835 616 615
f 835 615 836
f 602 600 603
f 604 579 836
f 631 587 600
f 600 599 631
f 598 599 600
f 630 631 599
f 677 630 599
f 676 630 677
f 676 627 630
f 675 627 676
f 675 620 627
f 663 620 675
f 675 674 663
f 676 679 675
f 676 678 679
f 627 629 630
f 629 618 630
f 757 618 629
f 757 629 628
f 630 618 589
f 618 619 589
f 756 619 618
f 584 589 619
f 444 584 619
f 584 588 589
f 589 588 631
f 627 628 629
f 626 628 627
f 630 589 631
f 631 588 587
f 577 578 579
f 577 576 578
f 586 587 588
f 375 80 376
f 375 85 80
f 85 372 84
f 360 102 82
f 359 102 360
f 373 374 586
f 583 586 588
f 583 588 584
f 361 584 444
f 585 362 359
f 359 100 102
f 98 99 100
f 100 99 101
f 100 101 102
f 102 101 103
f 102 103 82
f 82 103 104
f 82 104 83
f 82 83 84
f 84 83 81
f 84 81 85
f 85 81 80
f 79 80 81
f 79 78 80
f 77 78 79
f 77 76 78
f 73 76 77
f 73 75 76
f 74 75 73
f 73 72 74
f 51 72 73
f 51 71 72
f 53 71 51
f 51 52 53
f 53 52 54
f 53 54 55
f 99 321 101
f 101 321 318
f 101 318 103
f 103 318 104
f 318 317 104
f 316 317 318
f 316 83 317
f 316 81 83
f 1091 81 316
f 1091 1087 81
f 1088 1087 1091
f 77 1087 1088
f 79 1087 77
f 77 1088 73
f 73 1088 1089
f 1088 1091 1092
f 1088 1092 1093
f 1093 1103 1088
f 1093 1092 1094
f 327 1094 1092
f 327 1092 316
f 316 326 327
f 327 326 328
f 350 328 326
f 321 350 326
f 347 350 321
f 321 320 347
f 347 320 319
f 347 319 315
f 315 319 97
f 96 315 97
f 95 96 97
f 94 96 95
f 93 94 95
f 93 92 94
f 90 92 93
f 90 93 357
f 357 364 90
f 364 250 90
f 90 250 252
f 250 251 252
f 252 251 86
f 252 86 88
f 86 87 88
f 88 87 89
f 87 311 89
f 89 311 312
f 338 312 311
f 338 336 312
f 336 341 312
f 336 340 341
f 340 344 341
f 340 342 344
f 342 343 344
f 344 343 345
f 344 345 346
f 346 345 347
f 345 349 347
f 345 348 349
f 348 330 349
f 349 330 328
f 329 328 330
f 329 330 331
f 331 330 32
f 331 32 29
f 31 29 32
f 31 32 33
f 33 32 34
f 33 34 35
f 35 34 36
f 36 124 35
f 35 124 125
f 35 125 33
f 33 125 126
f 33 126 127
f 127 31 33
f 127 30 31
f 128 30 127
f 30 128 28
f 28 128 129
f 28 129 27
f 27 129 25
f 129 117 25
f 25 117 23
f 23 117 116
f 23 116 21
f 21 116 115
f 21 115 19
f 19 115 114
f 19 114 17
f 17 114 113
f 17 113 16
f 16 113 14
f 14 113 112
f 14 112 12
f 12 112 111
f 12 111 11
f 11 10 12
f 9 10 11
f 9 8 10
f 7 8 9
f 110 7 9
f 109 7 110
f 109 5 7
f 108 5 109
f 108 3 5
f 5 6 7
f 5 4 6
f 4 235 6
f 6 235 236
f 6 236 8
f 8 236 237
f 110 9 111
f 7 6 8
f 8 237 10
f 12 10 13
f 10 238 13
f 11 111 9
f 12 13 14
f 14 13 15
f 13 239 15
f 15 239 240
f 15 240 18
f 240 20 18
f 19 18 20
f 17 18 19
f 19 20 21
f 21 20 22
f 22 20 1101
f 1097 22 1101
f 1097 1101 1095
f 1095 1096 1097
f 1097 1096 26
f 1097 26 24
f 25 24 26
f 25 26 27
f 27 26 28
f 28 26 29
f 28 29 30
f 23 24 25
f 23 22 24
f 331 26 1096
f 1095 1094 1096
f 329 1096 1094
f 1095 1101 1102
f 1095 1102 1093
f 24 22 1097
f 1101 20 1100
f 21 22 23
f 240 1100 20
f 17 15 18
f 16 15 17
f 14 15 16
f 36 123 124
f 38 123 36
f 38 122 123
f 121 122 38
f 40 121 38
f 38 39 40
f 38 37 39
f 39 37 342
f 339 39 342
f 41 39 339
f 332 41 339
f 43 41 332
f 42 41 43
f 40 41 42
f 42 120 40
f 42 118 120
f 44 118 42
f 44 46 118
f 44 45 46
f 44 43 45
f 42 43 44
f 43 332 45
f 45 332 333
f 332 334 333
f 332 324 334
f 325 324 332
f 323 324 325
f 324 323 322
f 322 323 335
f 322 335 337
f 335 336 337
f 335 325 336
f 337 338 322
f 323 325 335
f 322 334 324
f 322 333 334
f 119 333 322
f 119 45 333
f 118 45 119
f 118 46 45
f 332 339 325
f 325 339 340
f 36 37 38
f 40 39 41
f 40 120 121
f 36 34 37
f 37 34 343
f 343 34 348
f 34 32 348
f 30 29 31
f 29 26 331
f 331 1096 329
f 348 32 330
f 343 348 345
f 342 37 343
f 339 342 340
f 341 344 346
f 341 346 315
f 315 314 341
f 341 314 313
f 92 313 314
f 312 313 92
f 91 312 92
f 94 314 315
f 325 340 336
f 341 313 312
f 337 336 338
f 322 338 311
f 322 311 49
f 89 312 91
f 89 91 90
f 49 311 87
f 49 87 50
f 87 86 50
f 50 86 251
f 50 251 266
f 266 251 249
f 266 249 267
f 248 267 249
f 286 267 248
f 286 268 267
f 284 268 286
f 284 269 268
f 283 269 284
f 283 278 269
f 277 278 283
f 283 281 277
f 281 276 277
f 281 273 276
f 297 273 281
f 297 274 273
f 275 274 297
f 293 275 297
f 293 271 275
f 288 271 293
f 288 272 271
f 270 272 288
f 270 288 263
f 263 288 253
f 263 253 255
f 255 257 263
f 263 257 301
f 263 301 258
f 258 262 263
f 263 262 264
f 263 264 265
f 258 261 262
f 260 261 258
f 258 259 260
f 640 259 258
f 638 259 640
f 639 638 640
f 637 638 639
f 637 636 638
f 635 636 637
f 637 650 635
f 650 648 635
f 693 635 648
f 648 647 693
f 693 647 655
f 693 655 716
f 716 655 656
f 655 653 656
f 655 649 653
f 716 656 715
f 715 699 716
f 716 699 696
f 699 700 696
f 696 700 701
f 696 701 697
f 697 701 791
f 791 790 697
f 791 809 790
f 808 809 791
f 808 810 809
f 810 771 809
f 809 771 772
f 809 772 683
f 772 684 683
f 683 684 685
f 685 684 686
f 685 686 687
f 687 790 685
f 687 695 790
f 688 695 687
f 682 695 688
f 682 692 695
f 689 692 682
f 682 681 689
f 680 681 682
f 689 681 690
f 689 690 691
f 691 690 634
f 691 634 633
f 633 634 635
f 633 692 691
f 693 692 633
f 693 696 692
f 689 691 692
f 692 694 695
f 692 698 694
f 694 698 790
f 692 697 698
f 688 680 682
f 687 680 688
f 694 790 695
f 687 686 680
f 772 730 684
f 685 809 683
f 771 730 772
f 771 729 730
f 774 729 771
f 774 728 729
f 773 728 774
f 773 727 728
f 727 773 725
f 725 773 814
f 725 814 813
f 812 725 813
f 812 726 725
f 811 726 812
f 811 724 726
f 815 724 811
f 815 797 724
f 797 719 724
f 797 720 719
f 833 720 797
f 769 720 833
f 769 833 768
f 768 833 796
f 768 796 767
f 767 758 768
f 767 765 758
f 766 765 767
f 767 793 766
f 766 793 792
f 792 793 794
f 792 794 798
f 802 798 794
f 802 794 800
f 800 801 802
f 800 799 801
f 821 801 799
f 821 799 826
f 826 799 804
f 787 804 799
f 787 803 804
f 786 803 787
f 785 786 787
f 785 806 786
f 785 805 806
f 807 805 785
f 807 703 805
f 704 703 807
f 699 703 704
f 702 703 699
f 699 705 702
f 702 705 706
f 807 808 704
f 807 820 808
f 807 819 820
f 819 788 820
f 820 788 810
f 788 773 810
f 773 788 789
f 819 789 788
f 818 789 819
f 818 816 789
f 816 811 789
f 795 811 816
f 817 795 816
f 794 795 817
f 794 796 795
f 795 796 797
f 817 816 818
f 787 817 818
f 800 817 787
f 785 818 819
f 805 703 702
f 775 805 702
f 775 702 707
f 775 707 776
f 776 782 775
f 778 775 782
f 778 782 779
f 779 782 783
f 779 783 828
f 828 783 784
f 828 784 829
f 829 826 828
f 828 826 827
f 829 784 825
f 829 825 830
f 830 821 829
f 830 822 821
f 831 822 830
f 527 822 831
f 527 831 524
f 524 831 823
f 524 823 522
f 522 523 524
f 523 525 524
f 524 525 526
f 524 526 527
f 526 528 527
f 527 528 529
f 527 529 530
f 530 529 531
f 530 531 532
f 532 531 533
f 532 533 534
f 534 533 535
f 534 535 536
f 535 541 536
f 535 540 541
f 539 540 535
f 539 538 540
f 537 538 539
f 547 538 537
f 546 538 547
f 546 545 538
f 544 545 546
f 544 543 545
f 542 543 544
f 544 548 542
f 542 548 549
f 542 549 550
f 550 549 551
f 550 551 552
f 552 551 557
f 557 551 558
f 557 558 559
f 559 558 560
f 559 560 561
f 561 560 562
f 561 562 563
f 563 562 564
f 563 564 565
f 565 564 566
f 565 566 567
f 567 566 568
f 567 568 569
f 569 568 570
f 569 570 571
f 571 570 572
f 571 572 573
f 573 572 554
f 573 554 454
f 454 554 553
f 454 553 452
f 452 453 454
f 406 453 452
f 406 452 404
f 408 453 406
f 404 452 553
f 404 553 399
f 399 553 555
f 399 555 400
f 400 555 556
f 555 554 556
f 553 554 555
f 522 521 523
f 520 521 522
f 520 518 521
f 519 518 520
f 517 518 519
f 517 516 518
f 515 516 517
f 515 514 516
f 513 514 515
f 513 512 514
f 503 512 513
f 503 511 512
f 502 511 503
f 501 502 503
f 501 500 502
f 499 500 501
f 499 510 500
f 499 509 510
f 508 509 499
f 508 507 509
f 506 507 508
f 506 505 507
f 493 505 506
f 493 504 505
f 492 504 493
f 492 493 494
f 494 493 495
f 494 495 496
f 496 495 497
f 496 497 490
f 490 497 498
f 490 498 491
f 489 490 491
f 489 488 490
f 487 488 489
f 487 485 488
f 486 485 487
f 484 485 486
f 484 483 485
f 482 483 484
f 482 481 483
f 471 481 482
f 471 480 481
f 472 480 471
f 471 470 472
f 469 470 471
f 469 473 470
f 470 473 474
f 470 474 475
f 475 474 476
f 475 476 477
f 477 476 478
f 477 478 468
f 468 478 479
f 468 479 466
f 466 467 468
f 466 465 467
f 463 465 466
f 463 464 465
f 462 464 463
f 455 462 463
f 455 461 462
f 457 461 455
f 455 456 457
f 457 456 458
f 458 456 459
f 458 459 460
f 460 459 393
f 460 393 392
f 1067 486 487
f 1067 487 966
f 966 487 489
f 966 489 491
f 491 498 966
f 498 497 966
f 966 497 957
f 497 495 957
f 495 493 957
f 957 493 961
f 957 961 960
f 964 957 960
f 964 960 958
f 958 963 964
f 964 963 965
f 964 965 966
f 960 961 753
f 961 752 753
f 752 742 753
f 753 742 741
f 742 749 741
f 741 749 747
f 741 747 739
f 739 740 741
f 740 754 741
f 740 736 754
f 754 736 734
f 734 736 732
f 732 736 737
f 732 737 735
f 735 737 738
f 743 738 737
f 738 743 782
f 782 743 784
f 784 743 745
f 745 743 739
f 744 745 739
f 739 746 744
f 784 744 746
f 745 744 784
f 777 738 782
f 739 743 737
f 735 738 777
f 777 710 735
f 735 710 711
f 608 735 711
f 711 609 608
f 608 732 735
f 754 734 733
f 740 737 736
f 741 754 755
f 754 960 755
f 754 959 960
f 739 737 740
f 739 747 746
f 746 747 748
f 825 746 748
f 825 748 750
f 750 824 825
f 750 823 824
f 751 823 750
f 515 751 750
f 517 751 515
f 519 751 517
f 515 750 513
f 513 750 749
f 513 749 503
f 751 519 823
f 823 519 520
f 748 749 750
f 748 747 749
f 742 503 749
f 501 503 742
f 499 501 742
f 741 755 753
f 752 499 742
f 508 499 752
f 752 506 508
f 752 493 506
f 960 753 755
f 961 493 752
f 966 957 964
f 1067 966 965
f 965 1066 1067
f 1067 1066 1068
f 1069 486 1067
f 1069 484 486
f 823 520 522
f 831 824 823
f 530 822 527
f 530 798 822
f 532 798 530
f 532 534 798
f 830 824 831
f 821 822 798
f 830 825 824
f 784 746 825
f 828 827 779
f 779 827 781
f 827 803 781
f 780 779 781
f 781 806 780
f 782 784 783
f 778 779 780
f 780 775 778
f 777 782 776
f 776 709 777
f 780 805 775
f 785 819 807
f 780 806 805
f 786 806 781
f 787 818 785
f 786 781 803
f 827 804 803
f 826 804 827
f 829 821 826
f 798 801 821
f 787 799 800
f 800 794 817
f 801 798 802
f 798 534 792
f 792 534 536
f 792 536 832
f 832 536 541
f 832 541 766
f 541 540 766
f 793 796 794
f 792 832 766
f 766 540 765
f 540 538 765
f 765 538 761
f 545 761 538
f 543 761 545
f 543 762 761
f 761 762 763
f 718 763 762
f 718 762 717
f 764 717 762
f 770 717 764
f 770 403 717
f 402 403 770
f 770 563 402
f 770 561 563
f 559 561 770
f 770 557 559
f 770 552 557
f 402 563 565
f 402 565 401
f 401 565 567
f 401 567 405
f 405 567 569
f 405 569 407
f 407 569 571
f 407 571 573
f 573 454 407
f 407 454 453
f 407 453 408
f 764 552 770
f 764 550 552
f 550 764 542
f 542 764 762
f 723 763 718
f 723 759 763
f 722 759 723
f 722 760 759
f 721 760 722
f 721 769 760
f 758 759 760
f 758 763 759
f 758 761 763
f 542 762 543
f 765 761 758
f 768 758 760
f 767 796 793
f 768 760 769
f 721 720 769
f 833 797 796
f 797 815 795
f 795 815 811
f 811 812 789
f 812 813 789
f 789 813 814
f 789 814 773
f 773 774 810
f 810 774 771
f 820 810 808
f 704 808 791
f 704 791 700
f 685 790 809
f 697 790 698
f 696 697 692
f 700 791 701
f 699 704 700
f 715 705 699
f 714 705 715
f 665 714 715
f 665 715 659
f 665 659 658
f 657 658 659
f 657 654 658
f 656 654 657
f 715 657 659
f 715 656 657
f 716 696 693
f 647 649 655
f 647 648 649
f 633 635 693
f 650 649 648
f 662 649 650
f 650 661 662
f 650 410 661
f 305 410 650
f 307 305 650
f 639 307 650
f 306 307 639
f 640 306 639
f 640 308 306
f 632 308 640
f 640 310 632
f 310 309 632
f 632 309 308
f 635 634 636
f 639 650 637
f 640 258 310
f 310 258 301
f 310 301 303
f 263 265 270
f 88 89 90
f 250 249 251
f 247 249 250
f 351 247 250
f 287 247 351
f 287 351 285
f 285 286 287
f 285 284 286
f 287 286 248
f 287 248 247
f 351 250 352
f 351 352 448
f 247 248 249
f 90 252 88
f 364 352 250
f 363 352 364
f 357 363 364
f 90 91 92
f 92 314 94
f 94 315 96
f 315 346 347
f 97 319 320
f 97 320 99
f 347 349 350
f 349 328 350
f 327 328 329
f 329 1094 327
f 1093 1094 1095
f 1087 79 81
f 316 1092 1091
f 318 326 316
f 317 83 104
f 321 326 318
f 99 320 321
f 98 97 99
f 95 97 98
f 357 93 95
f 353 354 355
f 357 356 358
f 358 363 357
f 448 352 363
f 442 447 443
f 285 351 448
f 282 284 285
f 282 283 284
f 281 283 282
f 279 281 282
f 279 280 281
f 438 300 299
f 438 442 436
f 421 437 433
f 421 433 419
f 419 433 435
f 419 435 430
f 430 431 419
f 419 420 421
f 419 432 420
f 436 442 443
f 433 434 435
f 449 430 435
f 450 430 449
f 443 447 446
f 446 354 353
f 361 444 353
f 449 445 450
f 444 619 451
f 450 431 430
f 451 619 756
f 756 618 757
f 419 431 432
f 432 441 420
f 757 628 626
f 420 441 422
f 620 626 627
f 417 623 418
f 427 423 417
f 422 625 423
f 420 422 421
f 440 437 421
f 439 292 440
f 439 429 294
f 294 429 295
f 424 425 428
f 414 413 425
f 409 289 413
f 426 295 429
f 288 294 295
f 409 290 289
f 254 290 409
f 409 256 254
f 305 304 410
f 256 411 302
f 410 412 661
f 416 660 411
f 660 622 621
f 663 621 620
f 663 674 644
f 674 645 644
f 651 645 674
f 644 645 646
f 641 642 643
f 662 661 643
f 662 653 649
f 645 651 646
f 656 653 654
f 654 664 658
f 674 652 651
f 675 679 674
f 658 664 665
f 678 666 679
f 673 670 668
f 677 678 676
f 677 599 598
f 602 598 600
f 601 670 673
f 602 606 607
f 672 606 612
f 612 611 672
f 671 668 670
f 669 668 671
f 667 668 669
f 667 714 665
f 714 706 705
f 702 706 707
f 776 707 709
f 777 709 710
f 710 609 711
f 712 708 713
f 672 611 712
f 605 611 612
f 608 609 610
f 605 617 613
f 841 613 834
f 614 732 608
f 732 733 734
f 733 959 754
f 958 960 959
f 952 951 953
f 958 962 963
f 963 962 1015
f 1066 965 963
f 1063 1018 1064
f 1065 1068 1066
f 1067 1068 1069
f 1059 484 1069
f 1059 482 484
f 1058 1060 1023
f 1023 1041 1024
f 1048 1024 1054
f 1026 1049 1048
f 1070 1022 1050
f 1070 478 476
f 995 996 994
f 1049 1000 999
f 996 997 998
f 1025 1000 1049
f 1071 997 1027
f 1025 1049 1026
f 946 1027 1028
f 1033 1034 1026
f 946 1028 1035
f 1033 1032 1034
f 1031 1030 1032
f 1037 945 944
f 1029 1030 1031
f 1029 1056 1036
f 1009 945 1037
f 1007 1008 1036
f 1036 1006 1007
f 1038 1039 1040
f 1040 1057 938
f 1036 1056 1053
f 1056 1046 1053
f 1053 1046 1047
f 938 1057 936
f 935 934 936
f 1051 1052 1053
f 930 934 935
f 930 933 934
f 929 933 930
f 930 931 929
f 929 931 932
f 929 932 928
f 928 926 929
f 928 840 926
f 926 923 929
f 929 923 924
f 923 901 924
f 924 901 891
f 901 892 891
f 924 891 925
f 933 924 925
f 923 899 901
f 904 901 899
f 926 922 923
f 839 922 926
f 931 1010 932
f 932 1010 1011
f 929 924 933
f 930 1010 931
f 1053 1047 1051
f 1046 1013 1047
f 1056 1045 1046
f 1043 1044 1045
f 1042 1062 1044
f 1014 1019 1020
f 1064 1021 1062
f 1018 1021 1064
f 952 1018 1016
f 1014 1020 1017
f 1010 1014 1011
f 932 1011 928
f 952 953 1012
f 953 951 950
f 731 841 950
f 927 840 928
f 841 834 842
f 926 840 839
f 843 834 835
f 843 835 844
f 838 837 907
f 839 907 922
f 922 899 923
f 899 898 904
f 900 843 897
f 898 896 905
f 844 897 843
f 844 835 845
f 846 895 896
f 845 835 836
f 836 579 578
f 576 582 578
f 574 580 575
f 574 575 371
f 576 581 582
f 367 576 577
f 367 76 75
f 368 365 369
f 575 369 370
f 575 370 371
f 55 382 53
f 55 386 382
f 385 382 386
f 385 386 387
f 386 388 387
f 1074 387 388
f 1074 1075 387
f 1082 1075 1074
f 1078 1082 1074
f 1078 1074 1077
f 1077 1074 378
f 1077 378 206
f 206 378 377
f 377 378 379
f 379 378 386
f 386 62 379
f 379 62 64
f 379 64 66
f 64 65 66
f 64 63 65
f 133 379 66
f 133 66 68
f 134 133 68
f 134 68 70
f 68 69 70
f 68 67 69
f 132 133 134
f 132 131 133
f 130 131 132
f 131 130 203
f 131 203 204
f 204 377 131
f 204 203 205
f 204 205 206
f 206 205 198
f 206 198 200
f 198 199 200
f 200 199 201
f 199 202 201
f 1078 201 202
f 983 1078 202
f 984 1078 983
f 983 982 984
f 976 984 982
f 985 984 976
f 984 985 1082
f 1082 985 986
f 1082 986 1081
f 1081 1076 1082
f 1080 1076 1081
f 1081 987 1080
f 981 982 983
f 981 142 982
f 142 140 982
f 982 140 138
f 982 138 990
f 990 138 136
f 137 136 138
f 135 136 137
f 137 150 135
f 137 149 150
f 991 150 149
f 148 149 137
f 148 147 149
f 146 147 148
f 146 148 151
f 151 148 152
f 151 152 153
f 848 151 153
f 153 161 848
f 848 161 154
f 848 154 849
f 849 154 157
f 154 156 157
f 154 155 156
f 157 156 158
f 161 155 154
f 161 160 155
f 153 160 161
f 153 152 160
f 848 146 151
f 848 978 146
f 146 980 147
f 980 149 147
f 991 135 150
f 137 138 139
f 990 136 135
f 139 138 140
f 139 140 141
f 141 140 142
f 141 142 143
f 143 142 144
f 143 144 145
f 143 145 199
f 981 145 144
f 144 142 981
f 983 145 981
f 983 202 145
f 199 145 202
f 1077 200 201
f 131 377 133
f 66 67 68
f 377 379 133
f 206 377 204
f 206 200 1077
f 1077 201 1078
f 984 1082 1078
f 1082 1076 1075
f 385 1075 1076
f 385 1076 384
f 1074 388 378
f 386 378 388
f 387 1075 385
f 384 382 385
f 58 386 55
f 58 60 386
f 55 57 58
f 371 381 574
f 580 574 383
f 384 380 382
f 1079 384 1076
f 580 383 870
f 1079 1076 1080
f 970 972 870
f 970 971 972
f 967 969 971
f 1080 988 968
f 1080 987 988
f 1081 986 987
f 985 976 986
f 976 982 977
f 969 975 989
f 974 973 989
f 977 982 990
f 990 135 991
f 980 991 149
f 954 979 955
f 978 980 146
f 847 978 848
f 850 955 956
f 847 848 849
f 854 852 851
f 860 955 850
f 860 954 955
f 974 979 954
f 866 973 974
f 865 864 866
f 865 895 846
f 906 867 868
f 905 896 895
f 904 898 905
f 904 892 901
f 903 906 902
f 881 893 882
f 879 882 883
f 862 894 902
f 853 862 859
f 853 852 854
f 879 883 861
f 854 851 855
f 879 856 880
f 855 851 849
f 880 856 858
f 849 157 159
f 157 158 159
f 171 172 173
f 171 170 172
f 169 170 171
f 170 169 175
f 170 175 176
f 877 170 176
f 176 878 877
f 176 178 878
f 178 196 878
f 878 196 163
f 196 164 163
f 162 163 164
f 162 164 165
f 164 166 165
f 165 166 167
f 196 195 164
f 878 163 162
f 178 195 196
f 178 177 195
f 176 177 178
f 176 175 177
f 857 197 174
f 172 170 877
f 880 858 857
f 880 888 879
f 881 882 879
f 890 893 881
f 890 892 893
f 889 876 875
f 891 892 874
f 886 884 876
f 925 891 885
f 933 925 934
f 936 934 937
f 921 886 887
f 877 878 887
f 162 165 878
f 937 920 919
f 165 167 168
f 941 919 918
f 909 918 871
f 597 171 173
f 595 594 596
f 591 590 592
f 189 590 591
f 593 156 155
f 591 190 189
f 222 207 208
f 219 220 221
f 219 221 227
f 227 221 231
f 208 69 67
f 66 65 67
f 221 209 231
f 210 65 63
f 62 63 64
f 386 60 62
f 58 59 60
f 211 61 212
f 58 57 59
f 55 56 57
f 54 56 55
f 52 217 54
f 223 214 218
f 52 215 217
f 51 215 52
f 215 51 73
f 224 216 1090
f 73 1089 215
f 1090 1098 224
f 1088 1103 1089
f 1093 1102 1103
f 1101 1100 1102
f 246 1100 240
f 224 1098 1099
f 245 223 224
f 239 246 240
f 13 238 239
f 244 223 245
f 10 237 238
f 236 243 237
f 244 234 223
f 233 213 234
f 236 242 243
f 232 212 233
f 241 231 232
f 235 242 236
f 227 231 241
f 227 226 219
f 226 105 219
f 2 105 228
f 2 106 105
f 1 106 2
f 230 229 225
f 4 230 235
f 3 4 5
f 1 3 108
f 107 1 108
f 107 106 1
f 389 390 391
f 391 398 389
f 391 397 398
f 396 397 391
f 396 395 397
f 394 395 396
f 394 393 395
f 392 393 394
f 306 303 307
f 307 303 305
f 306 308 303
f 303 308 309
f 303 309 310
f 167 194 168
f 570 568 566

