# https://github.com/mikedh/trimesh
v -0.04121829 -0.09410198 0.25374985
v -0.04106337 -0.09365316 0.25531501
v -0.04085612 -0.09320412 0.25688103
v -0.04043435 -0.09248444 0.25939026
v -0.04060602 -0.09275486 0.25844771
v -0.04073670 -0.09297952 0.25766429
v -0.04136566 -0.09642435 0.24565025
v -0.04141239 -0.09548777 0.24891677
v -0.04138821 -0.09501927 0.25055078
v -0.04132374 -0.09455056 0.25218540
v -0.04094616 -0.09840555 0.23874021
v -0.04076450 -0.09892324 0.23693462
v -0.04054702 -0.09944073 0.23512959
v -0.04029778 -0.09995808 0.23332508
v -0.04002096 -0.10047530 0.23152098
v -0.04009043 -0.10288360 0.22312172
v -0.04137846 -0.09640034 0.24573402
v -0.04114499 -0.09771812 0.24113788
v -0.04096629 -0.09837388 0.23885074
v -0.04073391 -0.09902687 0.23657314
v -0.04043280 -0.09970650 0.23420259
v -0.04008176 -0.10038359 0.23184088
v -0.04141986 -0.09536830 0.24933350
v -0.04059187 -0.09271668 0.25858080
v -0.04072813 -0.09294754 0.25777575
v -0.04096620 -0.09341072 0.25616059
v -0.04115695 -0.09387584 0.25453842
v -0.04129063 -0.09434341 0.25290784
v -0.04138057 -0.09485479 0.25112441
v -0.04008094 -0.10051495 0.23138282
v -0.04008584 -0.10169838 0.22725539
v -0.04008590 -0.10170190 0.22724305
v -0.04011184 -0.10288224 0.22312652
v -0.04008156 -0.10040981 0.23174948
f 31 30 15
f 31 15 32
f 32 15 16
f 32 16 33
f 30 34 15
f 15 34 22
f 15 22 14
f 14 22 21
f 14 21 13
f 13 21 20
f 13 20 12
f 12 20 19
f 12 19 11
f 11 19 18
f 11 18 7
f 7 18 17
f 7 17 8
f 8 17 23
f 8 23 9
f 9 23 29
f 9 29 10
f 10 29 28
f 10 28 1
f 1 28 27
f 1 27 2
f 2 27 26
f 2 26 3
f 3 26 25
f 3 25 6
f 6 25 5
f 24 5 25
f 24 4 5

