# https://github.com/mikedh/trimesh
v 0.00500199 -0.00790312 0.03312649
v 0.00500214 -0.00887153 0.03087713
v 0.00500270 -0.01220631 0.02553014
v 0.00500274 -0.01199239 0.03134910
v 0.00500265 -0.01144114 0.03245988
v 0.00500259 -0.01105603 0.03292531
v 0.00500248 -0.01049295 0.03314413
v 0.00500237 -0.00989462 0.03306088
v 0.00500218 -0.00895675 0.03267243
v 0.00500212 -0.00864493 0.03261156
v 0.00500206 -0.00833400 0.03267686
v 0.00500202 -0.00807301 0.03285803
v 0.00500267 -0.01199230 0.02614840
v 0.00500267 -0.01204731 0.02582127
f 13 4 5
f 5 6 13
f 13 6 7
f 13 7 14
f 14 7 8
f 14 8 9
f 14 9 10
f 2 14 10
f 2 10 11
f 12 2 11
f 1 2 12
f 3 14 2

