# https://github.com/mikedh/trimesh
v -0.00399453 -0.02800094 0.00917831
v 0.00400547 -0.02799941 0.00917820
v -0.00699663 -0.01700151 0.00917856
v 0.00700337 -0.01699884 0.00917836
v -0.00899701 -0.01500189 0.00917863
v -0.00899548 -0.02300189 0.00917848
v 0.00900299 -0.01499846 0.00917837
v 0.00900451 -0.02299846 0.00917822
v -0.00875047 -0.02454692 0.00917845
v -0.00209548 -0.02300057 0.00917838
v -0.00804001 -0.02594063 0.00917841
v -0.00181394 -0.02405052 0.00917835
v 0.00210451 -0.02299977 0.00917832
v -0.00181434 -0.02195052 0.00917839
v -0.00104583 -0.02118172 0.00917840
v -0.00553966 -0.02775651 0.00917834
v -0.00693364 -0.02704658 0.00917837
v -0.00104514 -0.02481903 0.00917833
v 0.00000492 -0.02510017 0.00917831
v 0.00105486 -0.02481863 0.00917830
v 0.00555051 -0.02775440 0.00917818
v 0.00182337 -0.02404983 0.00917830
v 0.00876009 -0.02454359 0.00917819
v 0.00805016 -0.02593757 0.00917818
v 0.00694421 -0.02704393 0.00917817
v 0.00182297 -0.02194983 0.00917834
v 0.00105417 -0.02118132 0.00917837
v 0.00000411 -0.02090017 0.00917839
f 6 5 3
f 10 6 3
f 10 3 14
f 14 3 15
f 3 28 15
f 3 27 28
f 4 27 3
f 4 26 27
f 13 26 4
f 4 8 13
f 7 8 4
f 8 23 13
f 13 23 24
f 13 24 22
f 22 24 25
f 22 25 21
f 21 20 22
f 2 20 21
f 2 19 20
f 1 19 2
f 1 18 19
f 12 18 1
f 1 16 12
f 12 16 17
f 12 17 11
f 11 10 12
f 9 10 11
f 9 6 10

