# https://github.com/mikedh/trimesh
v 0.00953369 0.09642859 0.14118174
v 0.00953564 0.08619668 0.14118154
v 0.00950408 0.09643081 0.14088519
v 0.00942145 0.08619667 0.14060752
v 0.00944932 0.09643412 0.14068577
v 0.00941950 0.09643585 0.14060770
v 0.00932329 0.09644131 0.14041565
v 0.00909628 0.08619662 0.14012088
v 0.00920582 0.09644780 0.14024575
v 0.00856326 0.09648210 0.13977835
v 0.00883046 0.09646802 0.13991086
v 0.00860964 0.08619653 0.13979574
v 0.00899753 0.09645910 0.14003241
v 0.00909432 0.09645388 0.14012107
v 0.00836494 0.09649243 0.13971879
v 0.00803562 0.08619642 0.13968156
v 0.00806891 0.09650768 0.13968217
v 0.00786151 0.09651823 0.13969167
v 0.00746159 0.08619631 0.13979575
v 0.00757012 0.09653290 0.13975517
v 0.00696721 0.09656245 0.14012693
v 0.00712344 0.09655491 0.13998950
v 0.00697496 0.08619621 0.14012091
v 0.00737722 0.09654247 0.13983303
v 0.00745963 0.09653839 0.13979594
v 0.00677969 0.09657134 0.14035861
v 0.00664981 0.08619614 0.14060755
v 0.00667798 0.09657604 0.14053978
v 0.00653366 0.09658196 0.14118178
v 0.00654192 0.09658185 0.14102459
v 0.00653564 0.08619610 0.14118159
v 0.00657782 0.09658045 0.14082047
v 0.00664784 0.09657740 0.14060774
v 0.00664983 0.08619612 0.14175561
v 0.00697499 0.08619617 0.14224224
v 0.00746163 0.08619626 0.14256738
v 0.00803566 0.08619636 0.14268155
v 0.00860968 0.08619647 0.14256737
v 0.00909631 0.08619657 0.14224221
v 0.00942147 0.08619665 0.14175557
v 0.00948954 0.09643008 0.14154302
v 0.00941951 0.09643327 0.14175576
v 0.00656328 0.09657994 0.14147834
v 0.00661805 0.09657686 0.14167778
v 0.00697303 0.09655808 0.14224245
v 0.00686159 0.09656391 0.14211784
v 0.00674409 0.09657009 0.14194791
v 0.00664785 0.09657524 0.14175580
v 0.00723699 0.09654438 0.14245270
v 0.00706989 0.09655304 0.14233117
v 0.00820582 0.09649440 0.14267184
v 0.00799850 0.09650506 0.14268135
v 0.00770246 0.09652032 0.14264473
v 0.00750418 0.09653056 0.14258520
v 0.00894388 0.09645674 0.14237404
v 0.00910014 0.09644889 0.14223659
v 0.00928765 0.09643961 0.14200491
v 0.00869009 0.09646961 0.14253050
v 0.00860772 0.09647381 0.14256757
v 0.00849721 0.09647946 0.14260834
v 0.00938939 0.09643469 0.14182368
v 0.00952544 0.09642866 0.14133887
v 0.00943153 0.09652849 0.14132863
v 0.00943923 0.09652841 0.14118198
v 0.00803917 0.09660568 0.14118198
v 0.00664675 0.09668171 0.14103527
v 0.00663905 0.09668183 0.14118198
v 0.00807202 0.09660752 0.13978244
v 0.00787844 0.09661809 0.13979131
v 0.00760646 0.09663275 0.13985057
v 0.00742641 0.09664233 0.13992323
v 0.00718954 0.09665478 0.14006926
v 0.00704371 0.09666232 0.14019752
v 0.00686869 0.09667121 0.14041375
v 0.00677375 0.09667591 0.14058283
v 0.00668026 0.09668033 0.14084479
v 0.00924284 0.09654114 0.14046699
v 0.00913320 0.09654763 0.14030842
v 0.00893879 0.09655893 0.14010932
v 0.00878284 0.09656785 0.13999589
v 0.00941159 0.09653064 0.14090522
v 0.00936047 0.09653395 0.14071910
v 0.00853345 0.09658194 0.13987221
v 0.00834833 0.09659228 0.13981661
v 0.00800879 0.09660584 0.14193049
v 0.00930455 0.09653452 0.14178111
v 0.00939802 0.09652991 0.14151916
v 0.00800635 0.09660491 0.14258152
v 0.00819986 0.09659424 0.14257266
v 0.00847184 0.09657930 0.14251339
v 0.00865187 0.09656945 0.14244075
v 0.00888874 0.09655657 0.14229473
v 0.00903458 0.09654872 0.14216645
v 0.00920959 0.09653944 0.14195023
v 0.00713959 0.09665291 0.14225468
v 0.00729556 0.09664424 0.14236811
v 0.00694516 0.09666377 0.14205559
v 0.00666669 0.09667981 0.14145875
v 0.00671782 0.09667673 0.14164488
v 0.00683547 0.09666996 0.14189698
v 0.00754496 0.09663041 0.14249177
v 0.00773003 0.09662017 0.14254734
v 0.00675159 0.09660941 0.14194478
v 0.00849679 0.09651724 0.14260066
v 0.00849183 0.09654941 0.14257997
v 0.00820631 0.09656473 0.14264259
v 0.00848308 0.09657117 0.14254937
v 0.00820380 0.09658642 0.14261049
v 0.00947576 0.09651928 0.14118196
v 0.00950633 0.09649730 0.14118190
v 0.00946786 0.09651937 0.14133249
v 0.00952659 0.09646557 0.14118183
v 0.00949825 0.09649737 0.14133577
v 0.00948274 0.09646708 0.14154090
v 0.00951840 0.09646564 0.14133801
v 0.00943349 0.09652080 0.14152806
v 0.00933761 0.09652551 0.14179698
v 0.00924020 0.09653052 0.14197063
v 0.00906066 0.09653999 0.14219271
v 0.00891100 0.09654800 0.14232451
v 0.00866790 0.09656113 0.14247462
v 0.00946313 0.09649882 0.14153567
v 0.00936517 0.09650355 0.14181055
v 0.00926563 0.09650858 0.14198808
v 0.00908216 0.09651808 0.14221513
v 0.00892922 0.09652613 0.14234993
v 0.00868075 0.09653931 0.14250349
v 0.00938329 0.09647176 0.14181989
v 0.00928224 0.09647676 0.14200008
v 0.00909599 0.09648618 0.14223051
v 0.00894074 0.09649416 0.14236727
v 0.00868853 0.09650724 0.14252307
v 0.00800503 0.09659731 0.14261976
v 0.00772113 0.09661289 0.14258491
v 0.00753091 0.09662334 0.14252797
v 0.00727451 0.09663745 0.14240108
v 0.00711412 0.09664630 0.14228462
v 0.00800307 0.09657566 0.14265215
v 0.00771275 0.09659131 0.14261664
v 0.00751820 0.09660181 0.14255850
v 0.00725593 0.09661599 0.14242885
v 0.00709184 0.09662489 0.14230977
v 0.00820702 0.09653243 0.14266412
v 0.00800078 0.09654327 0.14267379
v 0.00770619 0.09655878 0.14263767
v 0.00750880 0.09656919 0.14257862
v 0.00724272 0.09658325 0.14244699
v 0.00707627 0.09659206 0.14232616
v 0.00691413 0.09665740 0.14208007
v 0.00688721 0.09663603 0.14210062
v 0.00686871 0.09660311 0.14211391
v 0.00677174 0.09664238 0.14193392
v 0.00680129 0.09666371 0.14191708
v 0.00662594 0.09661629 0.14167583
v 0.00664785 0.09664933 0.14166883
v 0.00668023 0.09667063 0.14165792
v 0.00657133 0.09661943 0.14147723
v 0.00659400 0.09665249 0.14147307
v 0.00662761 0.09667378 0.14146656
v 0.00654179 0.09662148 0.14118186
v 0.00656487 0.09665456 0.14118193
v 0.00659915 0.09667584 0.14118196
v 0.00931770 0.09647848 0.14042029
v 0.00757440 0.09657156 0.13976198
v 0.00758284 0.09660420 0.13978258
v 0.00786870 0.09658916 0.13972065
v 0.00759411 0.09662572 0.13981372
v 0.00787362 0.09661075 0.13975306
v 0.00660708 0.09667572 0.14103112
v 0.00657298 0.09665444 0.14102760
v 0.00658580 0.09661994 0.14082202
v 0.00655002 0.09662136 0.14102530
v 0.00664156 0.09667430 0.14083526
v 0.00673775 0.09666979 0.14056592
v 0.00683543 0.09666499 0.14039212
v 0.00701547 0.09665591 0.14016992
v 0.00716545 0.09664821 0.14003816
v 0.00740902 0.09663551 0.13988824
v 0.00660826 0.09665301 0.14082722
v 0.00670671 0.09664848 0.14055170
v 0.00680666 0.09664366 0.14037393
v 0.00699089 0.09663454 0.14014667
v 0.00714433 0.09662680 0.14001197
v 0.00739351 0.09661403 0.13985871
v 0.00668565 0.09661545 0.14054249
v 0.00678703 0.09661067 0.14036213
v 0.00697389 0.09660164 0.14013155
v 0.00712955 0.09659396 0.13999483
v 0.00738232 0.09658131 0.13983929
v 0.00807251 0.09659997 0.13974412
v 0.00835631 0.09658442 0.13977948
v 0.00854638 0.09657387 0.13983673
v 0.00880239 0.09655950 0.13996395
v 0.00896242 0.09655040 0.14008054
v 0.00807209 0.09657834 0.13971160
v 0.00836225 0.09656271 0.13974789
v 0.00855657 0.09655212 0.13980651
v 0.00881824 0.09653769 0.13993667
v 0.00898181 0.09652855 0.14005592
v 0.00786445 0.09655666 0.13969909
v 0.00807082 0.09654593 0.13968985
v 0.00836528 0.09653043 0.13972658
v 0.00856249 0.09651993 0.13978603
v 0.00882808 0.09650562 0.13991807
v 0.00899411 0.09649655 0.14003907
v 0.00916189 0.09653888 0.14028510
v 0.00918565 0.09651697 0.14026511
v 0.00920103 0.09648509 0.14025134
v 0.00930057 0.09651032 0.14043160
v 0.00927437 0.09653226 0.14044794
v 0.00944284 0.09647119 0.14068885
v 0.00942383 0.09650297 0.14069621
v 0.00939501 0.09652493 0.14070679
v 0.00949721 0.09646782 0.14088708
v 0.00947738 0.09649957 0.14089151
v 0.00944743 0.09652155 0.14089786
f 1 2 3
f 62 2 1
f 62 40 2
f 41 40 62
f 41 42 40
f 114 42 41
f 128 42 114
f 128 61 42
f 129 61 128
f 128 124 129
f 128 123 124
f 123 118 124
f 124 118 119
f 118 93 119
f 118 94 93
f 117 94 118
f 117 86 94
f 85 94 86
f 85 86 65
f 65 86 87
f 65 87 63
f 111 63 87
f 109 63 111
f 110 109 111
f 110 111 113
f 113 111 116
f 113 116 122
f 122 116 117
f 122 117 123
f 114 122 123
f 115 122 114
f 114 62 115
f 115 113 122
f 112 113 115
f 115 1 112
f 112 110 113
f 112 214 110
f 112 3 214
f 3 5 214
f 214 5 211
f 5 6 211
f 211 6 163
f 6 7 163
f 7 9 163
f 163 9 208
f 14 208 9
f 205 208 14
f 13 205 14
f 11 205 13
f 12 11 13
f 12 13 8
f 10 11 12
f 10 12 15
f 15 12 16
f 15 16 17
f 17 202 15
f 15 202 203
f 202 197 203
f 203 197 198
f 203 198 204
f 10 203 204
f 204 198 199
f 198 194 199
f 198 193 194
f 193 79 194
f 79 78 194
f 194 78 206
f 77 206 78
f 210 206 77
f 210 207 206
f 209 207 210
f 209 208 207
f 213 209 210
f 213 210 82
f 81 213 82
f 65 81 82
f 64 81 65
f 64 216 81
f 109 216 64
f 109 215 216
f 215 212 216
f 216 212 213
f 215 211 212
f 65 82 77
f 216 213 81
f 212 209 213
f 212 163 209
f 199 206 207
f 199 207 205
f 82 210 77
f 77 78 65
f 65 78 79
f 65 79 80
f 80 83 65
f 65 83 84
f 191 84 83
f 191 83 192
f 196 191 192
f 196 192 197
f 197 192 193
f 192 80 193
f 195 191 196
f 195 190 191
f 166 190 195
f 166 168 190
f 165 168 166
f 165 167 168
f 184 167 165
f 184 165 189
f 189 165 164
f 189 164 20
f 20 25 189
f 189 25 24
f 189 24 22
f 189 22 188
f 188 22 21
f 188 21 187
f 187 183 188
f 187 182 183
f 186 182 187
f 186 181 182
f 185 181 186
f 185 180 181
f 180 175 181
f 181 175 176
f 175 73 176
f 176 73 72
f 65 72 73
f 65 73 74
f 74 75 65
f 65 75 76
f 173 76 75
f 173 75 174
f 179 173 174
f 179 174 180
f 171 179 180
f 172 179 171
f 172 170 179
f 160 170 172
f 160 161 170
f 160 157 161
f 161 157 158
f 161 158 162
f 162 158 159
f 158 155 159
f 159 155 156
f 155 152 156
f 156 152 153
f 152 150 153
f 153 150 149
f 142 149 150
f 142 150 148
f 148 150 151
f 148 151 45
f 45 151 46
f 34 45 46
f 46 47 34
f 47 46 103
f 48 47 103
f 154 48 103
f 154 103 155
f 44 48 154
f 157 44 154
f 43 44 157
f 43 34 44
f 43 31 34
f 29 31 43
f 29 43 160
f 29 30 31
f 172 30 29
f 31 30 32
f 171 32 30
f 171 33 32
f 27 32 33
f 27 33 28
f 26 27 28
f 186 26 28
f 26 23 27
f 21 23 26
f 185 28 33
f 185 33 171
f 31 32 27
f 34 48 44
f 34 47 48
f 35 45 34
f 35 50 45
f 35 49 50
f 36 49 35
f 36 54 49
f 54 147 49
f 49 147 148
f 54 146 147
f 53 146 54
f 53 145 146
f 52 145 53
f 37 52 53
f 37 53 36
f 51 52 37
f 37 60 51
f 60 143 51
f 51 143 144
f 143 138 144
f 144 138 139
f 144 139 145
f 145 139 140
f 139 135 140
f 140 135 136
f 135 96 136
f 136 96 95
f 136 95 137
f 95 97 137
f 95 85 97
f 85 100 97
f 85 99 100
f 99 153 100
f 100 149 97
f 137 97 149
f 141 136 137
f 141 137 142
f 147 141 142
f 95 96 85
f 96 101 85
f 85 101 102
f 85 102 88
f 85 88 89
f 108 89 88
f 108 88 133
f 106 108 133
f 106 133 138
f 138 133 134
f 133 102 134
f 105 108 106
f 104 105 106
f 132 105 104
f 132 104 60
f 60 59 132
f 132 59 58
f 38 58 59
f 38 59 37
f 55 58 38
f 55 38 56
f 131 55 56
f 132 55 131
f 131 127 132
f 131 126 127
f 130 126 131
f 130 125 126
f 125 120 126
f 126 120 121
f 120 91 121
f 91 90 121
f 121 90 107
f 107 90 89
f 121 107 127
f 127 107 105
f 85 90 91
f 85 91 92
f 92 93 85
f 120 92 91
f 119 92 120
f 125 119 120
f 129 125 130
f 130 57 129
f 130 56 57
f 56 39 57
f 39 61 57
f 126 121 127
f 131 56 130
f 56 38 39
f 132 58 55
f 127 105 132
f 104 106 143
f 105 107 108
f 107 89 108
f 89 90 85
f 133 88 102
f 134 102 101
f 134 101 135
f 135 101 96
f 140 136 141
f 146 140 141
f 139 134 135
f 138 134 139
f 143 106 138
f 60 104 143
f 37 59 60
f 51 144 52
f 52 144 145
f 145 140 146
f 146 141 147
f 36 53 54
f 49 148 50
f 103 46 151
f 103 151 152
f 50 148 45
f 147 142 148
f 137 149 142
f 153 149 100
f 152 151 150
f 156 153 99
f 98 156 99
f 65 98 99
f 67 98 65
f 67 159 98
f 66 67 65
f 162 67 66
f 162 66 169
f 169 66 76
f 155 103 152
f 159 156 98
f 158 154 155
f 162 159 67
f 161 162 169
f 157 154 158
f 160 43 157
f 161 169 170
f 170 169 173
f 172 29 160
f 171 30 172
f 170 173 179
f 169 76 173
f 65 76 66
f 174 75 74
f 174 74 175
f 71 72 65
f 65 70 71
f 65 69 70
f 68 69 65
f 168 69 68
f 167 70 69
f 178 70 167
f 71 70 178
f 177 71 178
f 183 177 178
f 183 178 184
f 177 72 71
f 176 72 177
f 182 176 177
f 175 74 73
f 180 174 175
f 171 180 185
f 186 28 185
f 181 176 182
f 187 26 186
f 182 177 183
f 188 183 184
f 187 21 26
f 21 22 23
f 23 22 24
f 23 24 19
f 19 24 25
f 19 25 20
f 18 19 20
f 18 16 19
f 20 200 18
f 18 200 201
f 18 201 17
f 200 195 201
f 20 164 200
f 164 166 200
f 188 184 189
f 178 167 184
f 167 69 168
f 164 165 166
f 168 68 190
f 190 68 84
f 200 166 195
f 201 195 196
f 201 196 202
f 190 84 191
f 65 84 68
f 192 83 80
f 193 80 79
f 194 206 199
f 204 199 205
f 197 193 198
f 202 196 197
f 17 201 202
f 17 16 18
f 15 203 10
f 10 204 11
f 11 204 205
f 8 13 14
f 205 207 208
f 8 14 9
f 163 208 209
f 7 8 9
f 7 4 8
f 6 4 7
f 211 163 212
f 5 4 6
f 214 211 215
f 3 4 5
f 110 214 215
f 110 215 109
f 109 64 63
f 111 87 116
f 63 64 65
f 116 87 86
f 65 99 85
f 116 86 117
f 85 93 94
f 119 93 92
f 124 119 125
f 123 117 118
f 129 124 125
f 129 57 61
f 39 42 61
f 114 123 128
f 40 42 39
f 114 41 62
f 115 62 1
f 1 3 112
f 3 2 4

