# https://github.com/mikedh/trimesh
v -0.00646470 0.08799613 0.14115849
v -0.00657103 0.08799609 0.14237402
v -0.00688682 0.08799601 0.14355263
v -0.00740247 0.08799589 0.14465851
v -0.00810233 0.08799573 0.14565803
v -0.00896511 0.08799555 0.14652084
v -0.00996462 0.08799535 0.14722072
v -0.01107047 0.08799513 0.14773640
v -0.01224907 0.08799490 0.14805223
v -0.01346460 0.08799466 0.14815859
v -0.01946460 0.08799352 0.14815868
v -0.02075085 0.08799328 0.14803950
v -0.02199330 0.08799305 0.14768602
v -0.02314964 0.08799284 0.14711025
v -0.02418050 0.08799266 0.14633182
v -0.02505076 0.08799251 0.14537720
v -0.02573080 0.08799240 0.14427894
v -0.02619746 0.08799233 0.14307442
v -0.02643483 0.08799231 0.14180467
v -0.02643485 0.08799234 0.14051290
v -0.02619751 0.08799241 0.13924314
v -0.02573089 0.08799252 0.13803861
v -0.02505089 0.08799267 0.13694032
v -0.02418065 0.08799285 0.13598569
v -0.02314981 0.08799306 0.13520722
v -0.02199349 0.08799329 0.13463141
v -0.02075105 0.08799354 0.13427788
v -0.01946481 0.08799379 0.13415869
v -0.01346481 0.08799493 0.13415860
v -0.01224927 0.08799516 0.13426492
v -0.01107066 0.08799538 0.13458072
v -0.00996479 0.08799558 0.13509637
v -0.00896527 0.08799575 0.13579622
v -0.00810246 0.08799590 0.13665900
v -0.00740258 0.08799602 0.13765851
v -0.00688689 0.08799610 0.13876435
v -0.00657107 0.08799613 0.13994296
v -0.01013121 0.08799534 0.14614736
v -0.01346462 0.08799468 0.14715859
v -0.01229408 0.08799491 0.14704329
v -0.01116852 0.08799513 0.14670184
v -0.00922200 0.08799552 0.14540116
v -0.00847584 0.08799569 0.14449194
v -0.00792139 0.08799581 0.14345461
v -0.00757998 0.08799589 0.14232905
v -0.00746470 0.08799594 0.14115851
v -0.01346479 0.08799491 0.13515860
v -0.01946479 0.08799377 0.13515867
v -0.02176072 0.08799312 0.14670199
v -0.02445347 0.08799264 0.14449218
v -0.02063533 0.08799354 0.13527399
v -0.02176089 0.08799332 0.13561544
v -0.02279820 0.08799312 0.13616991
v -0.02370741 0.08799293 0.13691610
v -0.02445357 0.08799277 0.13782533
v -0.02500802 0.08799264 0.13886265
v -0.02534943 0.08799256 0.13998823
v -0.02546471 0.08799251 0.14115877
v -0.02534940 0.08799251 0.14232931
v -0.02500795 0.08799256 0.14345486
v -0.02370728 0.08799277 0.14540139
v -0.02279805 0.08799292 0.14614755
v -0.02063516 0.08799332 0.14704341
v -0.01946462 0.08799354 0.14715868
v -0.00758001 0.08799594 0.13998796
v -0.00847594 0.08799581 0.13782510
v -0.00792146 0.08799589 0.13886242
v -0.00922213 0.08799569 0.13691589
v -0.01013136 0.08799553 0.13616973
v -0.01116868 0.08799534 0.13561529
v -0.01229425 0.08799513 0.13527386
f 42 5 43
f 42 6 5
f 42 7 6
f 38 7 42
f 38 8 7
f 41 8 38
f 41 9 8
f 40 9 41
f 40 10 9
f 39 10 40
f 39 11 10
f 64 11 39
f 64 12 11
f 63 12 64
f 63 13 12
f 49 13 63
f 49 14 13
f 62 14 49
f 62 15 14
f 61 15 62
f 61 16 15
f 50 16 61
f 50 17 16
f 60 17 50
f 60 18 17
f 59 18 60
f 59 19 18
f 58 19 59
f 58 20 19
f 21 20 58
f 57 21 58
f 57 22 21
f 56 22 57
f 56 23 22
f 55 23 56
f 55 24 23
f 54 24 55
f 54 25 24
f 53 25 54
f 53 26 25
f 52 26 53
f 52 27 26
f 51 27 52
f 51 28 27
f 48 28 51
f 48 29 28
f 47 29 48
f 47 30 29
f 71 30 47
f 71 31 30
f 70 31 71
f 70 32 31
f 69 32 70
f 69 33 32
f 68 33 69
f 68 34 33
f 35 34 68
f 66 35 68
f 66 36 35
f 67 36 66
f 67 37 36
f 65 37 67
f 65 1 37
f 46 1 65
f 46 2 1
f 45 2 46
f 45 3 2
f 44 3 45
f 44 4 3
f 43 4 44
f 43 5 4

