# https://github.com/mikedh/trimesh
v -0.04645547 0.08038593 0.26365891
v -0.04551190 0.08262820 0.26365894
v -0.04803147 0.07600451 0.26365885
v -0.04994491 0.06889665 0.26365876
v -0.05144042 0.06122968 0.26365861
v -0.05218990 0.05606395 0.26365852
v -0.05310339 0.04577000 0.26365834
v -0.05365704 0.03445122 0.26365814
v -0.05428914 0.02152460 0.26365793
v -0.05534324 -0.00001848 0.26365751
v -0.04548041 -0.08266142 0.26365581
v -0.05378357 -0.03165302 0.26365691
v -0.05301014 -0.04714397 0.26365659
v -0.05286469 -0.04924632 0.26365656
v -0.05167951 -0.05961012 0.26365635
v -0.05031214 -0.06714049 0.26365617
v -0.04819991 -0.07541479 0.26365599
f 7 8 2
f 2 6 7
f 2 5 6
f 1 5 2
f 1 4 5
f 3 4 1
f 2 8 11
f 11 8 9
f 11 9 10
f 10 12 11
f 11 12 13
f 11 13 14
f 14 15 11
f 11 15 16
f 11 16 17

