# https://github.com/mikedh/trimesh
v 0.04879253 0.05310339 0.18125702
v 0.04879136 0.05310491 0.10105702
v 0.04749174 0.05310416 0.12759389
v 0.04749177 0.05310414 0.12902020
v 0.04749202 0.05310380 0.14659390
v 0.04749204 0.05310377 0.14802019
v 0.04770664 0.05310319 0.18125704
v 0.04749230 0.05310344 0.16559389
v 0.04749232 0.05310342 0.16702019
v 0.04749147 0.05310452 0.10859390
v 0.04749149 0.05310449 0.11002019
v 0.04770558 0.05310456 0.10859389
v 0.04770548 0.05310471 0.10105704
v 0.04770644 0.05310346 0.16702019
v 0.04770616 0.05310382 0.14802019
v 0.04770614 0.05310384 0.14659388
v 0.04770588 0.05310418 0.12902018
v 0.04770641 0.05310348 0.16559389
v 0.04770561 0.05310453 0.11002019
v 0.04770586 0.05310420 0.12759389
f 12 13 2
f 19 12 2
f 19 2 20
f 20 2 17
f 20 17 3
f 3 17 4
f 16 17 2
f 15 16 2
f 15 2 18
f 18 2 14
f 2 1 14
f 14 1 7
f 18 14 8
f 8 14 9
f 5 16 15
f 15 6 5
f 10 12 19
f 19 11 10

