# https://github.com/mikedh/trimesh
v -0.01179310 0.08699520 0.13653348
v -0.01179311 0.08699522 0.13560462
v -0.01097023 0.08699535 0.13692021
v -0.01091233 0.08699538 0.13595028
v -0.01020738 0.08699548 0.13747399
v -0.00767986 0.08699591 0.14073701
v -0.00856478 0.08699574 0.14073703
v -0.00782739 0.08699589 0.13979369
v -0.00872612 0.08699572 0.13984223
v -0.00815234 0.08699585 0.13883030
v -0.00906433 0.08699568 0.13896233
v -0.00864053 0.08699577 0.13793845
v -0.00956420 0.08699559 0.13816313
v -0.00927695 0.08699567 0.13714555
v -0.01004206 0.08699553 0.13647597
f 1 2 3
f 3 2 4
f 3 4 5
f 15 5 4
f 14 5 15
f 14 13 5
f 12 13 14
f 12 11 13
f 10 11 12
f 10 9 11
f 8 9 10
f 8 7 9
f 6 7 8

