# https://github.com/mikedh/trimesh
v 0.03202023 0.09377551 0.10930804
v 0.03202206 0.08420157 0.10930786
v 0.03198449 0.09378013 0.10957967
v 0.03188139 0.08420153 0.10983286
v 0.03187957 0.09379341 0.10983304
v 0.03149707 0.08420145 0.11021719
v 0.03149524 0.09383854 0.11021737
v 0.03097207 0.08420134 0.11035787
v 0.03097023 0.09389118 0.11035806
v 0.03044707 0.08420125 0.11021721
v 0.03044522 0.09393350 0.11021739
v 0.03022785 0.09394801 0.11005063
v 0.03006274 0.08420118 0.10983288
v 0.03006088 0.09395795 0.10983307
v 0.02995609 0.09396368 0.10958023
v 0.02992206 0.08420116 0.10930789
v 0.02992020 0.09396554 0.10930807
v 0.03044705 0.08420128 0.10839856
v 0.03006272 0.08420120 0.10878289
v 0.03188138 0.08420154 0.10878286
v 0.03149705 0.08420148 0.10839853
v 0.03097204 0.08420138 0.10825787
v 0.03198432 0.09378016 0.10903579
v 0.03187955 0.09379344 0.10878304
v 0.02995591 0.09396369 0.10903656
v 0.03006086 0.09395798 0.10878307
v 0.03022792 0.09394803 0.10856542
v 0.03044519 0.09393353 0.10839874
v 0.03097020 0.09389122 0.10825805
v 0.03149521 0.09383857 0.10839872
f 1 2 3
f 2 1 20
f 20 1 23
f 20 23 24
f 30 20 24
f 30 21 20
f 29 21 30
f 29 22 21
f 28 22 29
f 28 18 22
f 27 18 28
f 27 19 18
f 26 19 27
f 25 19 26
f 25 16 19
f 17 16 25
f 15 16 17
f 15 13 16
f 14 13 15
f 12 13 14
f 12 10 13
f 11 10 12
f 9 10 11
f 9 8 10
f 7 8 9
f 7 6 8
f 5 6 7
f 5 4 6
f 3 4 5
f 3 2 4

