# https://github.com/mikedh/trimesh
v 0.02752437 0.09019930 0.18336283
v 0.02752440 0.09019927 0.18505327
v -0.00498194 0.09019311 0.18336330
v -0.00498192 0.09019308 0.18505375
v 0.02737071 0.09019899 0.19817793
v -0.00075953 0.09019364 0.19817835
v -0.00488171 0.09019285 0.19817841
v 0.02283094 0.09019813 0.19817801
v 0.02747482 0.09019896 0.20115803
v -0.00498575 0.09019277 0.20115851
v 0.02283075 0.09019838 0.18505335
v -0.00075972 0.09019388 0.18505369
v 0.01024047 0.09019573 0.19817819
v 0.00083095 0.09019393 0.19817832
v 0.00083075 0.09019419 0.18505366
v 0.01183075 0.09019628 0.18505350
v 0.02124028 0.09019807 0.18505336
v 0.02124047 0.09019782 0.19817802
v 0.01183095 0.09019603 0.19817816
v 0.01024028 0.09019598 0.18505353
v 0.02115839 0.09253191 0.18926650
v 0.02116535 0.09233733 0.19816686
v 0.01639431 0.09247938 0.19816619
v 0.01638394 0.09273284 0.18514204
v 0.02115551 0.09261228 0.18513772
v 0.01192412 0.09287871 0.19816417
v 0.01192626 0.09294231 0.19404525
v 0.01193042 0.09306590 0.18515377
v 0.01013977 0.09306373 0.19816323
v 0.01013571 0.09317593 0.18923077
v 0.01013406 0.09322130 0.18515924
v 0.00095817 0.09386297 0.18518184
v 0.00095783 0.09385028 0.19167058
v 0.00095744 0.09383605 0.19815932
v 0.00528870 0.09361543 0.18517311
v 0.00530147 0.09353679 0.19816083
f 10 7 6
f 14 10 6
f 14 6 15
f 12 15 6
f 1 15 12
f 1 20 15
f 16 20 1
f 16 13 20
f 19 13 16
f 19 10 13
f 18 10 19
f 18 8 10
f 8 9 10
f 5 9 8
f 11 8 18
f 17 11 18
f 17 1 11
f 1 2 11
f 16 1 17
f 12 3 1
f 4 3 12
f 13 10 14
f 16 28 19
f 19 28 27
f 19 27 26
f 17 25 16
f 16 25 24
f 16 24 28
f 18 22 17
f 17 22 21
f 17 21 25
f 13 29 20
f 20 29 30
f 20 30 31
f 15 32 14
f 14 32 33
f 14 33 34
f 20 31 15
f 15 31 35
f 15 35 32
f 22 18 23
f 23 18 19
f 23 19 26
f 29 13 36
f 36 13 14
f 36 14 34

