# https://github.com/mikedh/trimesh
v 0.00102067 -0.07834832 0.29142562
v 0.00102067 0.07835445 0.29142562
v 0.00102984 0.07850090 0.29190409
v 0.00102984 -0.07849477 0.29190409
v -0.05331663 -0.04586326 0.28401488
v -0.05333675 -0.04576652 0.28400823
v -0.05301411 -0.04726635 0.28411993
v -0.05298445 -0.04739617 0.28413004
v -0.05040105 -0.05549307 0.28493908
v -0.04934267 -0.05774869 0.28524736
v -0.04888872 -0.05860643 0.28537694
v -0.04446673 -0.06486507 0.28654200
v -0.04473497 -0.06456332 0.28647625
v -0.04681428 -0.06192864 0.28594592
v -0.04182245 -0.06747110 0.28716248
v -0.04129859 -0.06791805 0.28727993
v -0.04240162 -0.06695224 0.28703061
v -0.04261312 -0.06675591 0.28698197
v -0.04296622 -0.06642006 0.28689995
v -0.04415851 -0.06520246 0.28661683
v -0.03705683 -0.07088329 0.28817266
v -0.03736881 -0.07069822 0.28811020
v -0.03853248 -0.06996725 0.28787318
v -0.03872284 -0.06984116 0.28783372
v -0.04076519 -0.06835262 0.28739777
v -0.03663323 -0.07112794 0.28825715
v -0.01789601 -0.07734348 0.29118657
v -0.01989434 -0.07697840 0.29096857
v -0.02848649 -0.07469063 0.28973410
v -0.00939109 -0.07828550 0.29176927
v -0.00588043 -0.07844289 0.29186806
v -0.00315569 -0.07850583 0.29190874
v -0.05394517 -0.04235388 0.28378779
v -0.05483871 -0.03447939 0.28341427
v -0.05537982 -0.02165444 0.28306890
v -0.05546375 0.00000306 0.28289899
v -0.05535610 -0.02295331 0.28309312
v -0.00398945 -0.07834332 0.29142186
v -0.03643550 -0.07092313 0.28784576
v -0.03263124 -0.07283981 0.28855804
v -0.03172275 -0.07323043 0.28871939
v -0.02913764 -0.07423057 0.28916061
v -0.02820271 -0.07455684 0.28931352
v -0.02555854 -0.07539408 0.28972629
v -0.02460515 -0.07566778 0.28986782
v -0.02191746 -0.07636188 0.29024073
v -0.02094808 -0.07658316 0.29036427
v -0.01980891 -0.07682310 0.29050103
v -0.01822084 -0.07712232 0.29067540
v -0.01723752 -0.07728778 0.29077345
v -0.00447811 -0.07833286 0.29141498
v -0.01348697 -0.07779019 0.29107800
v -0.01253745 -0.07788752 0.29113826
v -0.00754340 -0.07823242 0.29135159
v -0.00581574 -0.07829623 0.29139173
v -0.05499802 0.00000306 0.28271741
v -0.05290974 -0.04569773 0.28375685
v -0.05373769 -0.04071151 0.28346527
v -0.05387572 -0.03964044 0.28341272
v -0.05402257 -0.03838192 0.28335506
v -0.05425623 -0.03603767 0.28325811
v -0.05470714 -0.02907766 0.28303489
v -0.05499272 -0.00891413 0.28274047
v -0.05497393 -0.01618491 0.28280115
v -0.05499648 -0.00273923 0.28271899
v -0.05499487 -0.00548200 0.28272542
v -0.05499388 -0.00719811 0.28273198
v -0.04893747 -0.05769144 0.28494519
v -0.05002102 -0.05536799 0.28463918
v -0.03716395 -0.07049353 0.28770262
v -0.03774354 -0.07013427 0.28758711
v -0.03831536 -0.06976341 0.28747153
v -0.03902778 -0.06927676 0.28732508
v -0.04052183 -0.06815414 0.28700873
v -0.04079926 -0.06792863 0.28694868
v -0.04156630 -0.06727593 0.28678003
v -0.04213769 -0.06675966 0.28665215
v -0.04368904 -0.06521483 0.28629443
v -0.04269495 -0.06622989 0.28652549
v -0.04607181 -0.06234343 0.28571111
v -0.04546090 -0.06314711 0.28586504
v -0.04436576 -0.06446724 0.28613329
v -0.05072836 -0.05358656 0.28443438
v -0.05106970 -0.05262943 0.28433380
v -0.05232905 -0.04831056 0.28394780
v -0.05289018 -0.04579420 0.28376314
v -0.05268085 -0.04679115 0.28383315
v -0.05256317 -0.04731958 0.28387192
v -0.04781698 0.06043550 0.28567582
v -0.05124053 0.05337937 0.28468719
v -0.05331663 0.04586938 0.28401488
v -0.05333675 0.04577266 0.28400823
v -0.04289474 0.06649502 0.28691664
v -0.04553869 0.06361672 0.28627574
v -0.03991080 0.06901366 0.28758305
v -0.03663323 0.07113408 0.28825715
v -0.05484387 0.03441949 0.28341180
v -0.05535648 0.02295946 0.28309327
v -0.02878934 0.07436016 0.28921783
v -0.03172268 0.07323642 0.28871933
v -0.03643550 0.07092926 0.28784576
v -0.02094800 0.07658902 0.29036412
v -0.02460506 0.07567365 0.28986770
v -0.02820262 0.07456274 0.28931344
v -0.00447811 0.07833894 0.29141492
v -0.00754340 0.07823846 0.29135153
v -0.01348694 0.07779610 0.29107788
v -0.01723746 0.07729363 0.29077330
v -0.01980920 0.07682909 0.29050076
v -0.05290974 0.04570387 0.28375685
v -0.05387570 0.03964657 0.28341275
v -0.05425621 0.03604379 0.28325814
v -0.05439311 0.03439255 0.28319705
v -0.05470712 0.02908381 0.28303492
v -0.05489527 0.02295391 0.28289929
v -0.05497392 0.01619105 0.28280115
v -0.03967788 0.06881255 0.28718898
v -0.03831535 0.06976953 0.28747153
v -0.03803370 0.06995422 0.28752872
v -0.03774686 0.07013831 0.28758642
v -0.03774354 0.07014041 0.28758711
v -0.03746553 0.07031472 0.28764272
v -0.03717487 0.07049303 0.28770047
v -0.03716395 0.07049966 0.28770262
v -0.04262444 0.06630449 0.28654164
v -0.04213767 0.06676579 0.28665215
v -0.04156628 0.06728202 0.28678003
v -0.04052182 0.06816027 0.28700873
v -0.05289018 0.04580031 0.28376314
v -0.05273127 0.04656421 0.28381637
v -0.05256317 0.04732570 0.28387192
v -0.05106968 0.05263555 0.28433380
v -0.05240616 0.04799862 0.28392297
v -0.05255787 0.04734953 0.28387350
v -0.04607178 0.06234954 0.28571111
v -0.05084705 0.05326791 0.28439951
v -0.04893744 0.05769753 0.28494519
v -0.04747726 0.06027858 0.28534433
v -0.04523236 0.06344089 0.28592181
v -0.04436574 0.06447335 0.28613329
v -0.04269493 0.06623602 0.28652549
v -0.01989467 0.07698444 0.29096848
v -0.00205647 0.07852271 0.29191595
v -0.00449124 0.07848716 0.29189235
v -0.00939160 0.07829154 0.29176909
v -0.00756520 0.07838696 0.29182854
v -0.02738125 0.07505785 0.28991351
v -0.02892746 0.07454637 0.28966105
f 56 36 65
f 116 36 56
f 116 98 36
f 115 98 116
f 114 98 115
f 114 97 98
f 113 97 114
f 112 97 113
f 111 97 112
f 111 92 97
f 110 92 111
f 91 92 110
f 110 129 91
f 91 129 130
f 91 130 131
f 134 91 131
f 133 91 134
f 133 90 91
f 132 90 133
f 132 136 90
f 90 136 137
f 90 137 89
f 89 137 138
f 89 138 135
f 135 94 89
f 135 139 94
f 94 139 140
f 94 140 93
f 93 140 141
f 93 141 125
f 125 126 93
f 93 126 127
f 93 127 95
f 95 127 128
f 95 128 117
f 117 118 95
f 95 118 119
f 95 119 96
f 96 119 120
f 120 121 96
f 96 121 122
f 122 123 96
f 96 123 124
f 96 124 101
f 100 96 101
f 100 148 96
f 99 148 100
f 104 148 99
f 104 147 148
f 103 147 104
f 103 142 147
f 102 142 103
f 102 109 142
f 109 108 142
f 142 108 107
f 142 107 145
f 145 107 106
f 145 106 146
f 146 106 144
f 105 144 106
f 105 143 144
f 2 143 105
f 2 3 143
f 65 36 66
f 36 67 66
f 36 63 67
f 35 63 36
f 35 64 63
f 37 64 35
f 37 62 64
f 34 62 37
f 34 61 62
f 34 60 61
f 33 60 34
f 33 59 60
f 58 59 33
f 33 57 58
f 6 57 33
f 57 6 86
f 86 6 5
f 86 5 87
f 87 5 7
f 87 7 88
f 88 7 85
f 8 85 7
f 8 84 85
f 9 84 8
f 9 83 84
f 69 83 9
f 68 69 9
f 9 10 68
f 68 10 11
f 68 11 80
f 80 11 14
f 80 14 81
f 81 14 13
f 81 13 82
f 82 13 12
f 82 12 78
f 78 12 20
f 78 20 19
f 78 19 79
f 79 19 18
f 79 18 77
f 77 18 17
f 77 17 15
f 15 76 77
f 15 75 76
f 16 75 15
f 16 74 75
f 25 74 16
f 25 73 74
f 24 73 25
f 24 72 73
f 23 72 24
f 23 71 72
f 22 71 23
f 22 70 71
f 21 70 22
f 21 39 70
f 26 39 21
f 26 40 39
f 29 40 26
f 29 41 40
f 42 41 29
f 43 42 29
f 29 44 43
f 29 45 44
f 28 45 29
f 28 46 45
f 47 46 28
f 28 48 47
f 28 49 48
f 27 49 28
f 27 50 49
f 27 52 50
f 30 52 27
f 30 53 52
f 54 53 30
f 30 31 54
f 54 31 55
f 55 31 51
f 51 31 32
f 51 32 38
f 38 32 4
f 38 4 1

