# https://github.com/mikedh/trimesh
v 0.01401743 -0.07000611 0.28073230
v 0.01401745 -0.07018075 0.27964374
v 0.01401754 -0.07073683 0.27869174
v 0.01401769 -0.07159927 0.27800494
v 0.01401829 -0.07475084 0.27821538
v 0.01401845 -0.07551430 0.27901077
v 0.01401857 -0.07596724 0.28113034
v 0.01401851 -0.07559555 0.28216830
v 0.01401839 -0.07487401 0.28300190
v 0.01401800 -0.07280524 0.28364849
v 0.01401821 -0.07390006 0.28351855
v 0.01401762 -0.07084081 0.28273258
v 0.01401749 -0.07023650 0.28181046
v 0.01401810 -0.07375161 0.27774951
v 0.01401855 -0.07593888 0.28002822
v 0.01401780 -0.07173742 0.28337413
v 0.01401789 -0.07265157 0.27767605
v 0.00901855 -0.07593983 0.28002828
v 0.00901845 -0.07551525 0.27901083
v 0.00901857 -0.07600507 0.28057805
v 0.00901857 -0.07596819 0.28113043
v 0.00901851 -0.07559650 0.28216839
v 0.00901830 -0.07475179 0.27821544
v 0.00901810 -0.07375256 0.27774957
v 0.00901754 -0.07073779 0.27869183
v 0.00901769 -0.07160021 0.27800500
v 0.00901745 -0.07018170 0.27964380
v 0.00901743 -0.07000706 0.28073239
v 0.00901789 -0.07265251 0.27767614
v 0.00901749 -0.07023745 0.28181055
v 0.00901762 -0.07084176 0.28273267
v 0.00901821 -0.07390101 0.28351861
v 0.00901839 -0.07487495 0.28300196
v 0.00901780 -0.07173838 0.28337422
v 0.00901800 -0.07280619 0.28364855
f 19 18 15
f 6 19 15
f 6 23 19
f 5 23 6
f 5 24 23
f 14 24 5
f 14 29 24
f 17 29 14
f 17 26 29
f 4 26 17
f 4 25 26
f 3 25 4
f 3 27 25
f 2 27 3
f 2 28 27
f 1 28 2
f 1 30 28
f 13 30 1
f 13 31 30
f 12 31 13
f 12 34 31
f 16 34 12
f 16 35 34
f 10 35 16
f 10 32 35
f 11 32 10
f 11 33 32
f 9 33 11
f 9 22 33
f 8 22 9
f 8 21 22
f 7 21 8
f 7 20 21
f 15 20 7
f 15 18 20

