# https://github.com/mikedh/trimesh
v -0.00351195 0.08403006 0.27831817
v -0.00851195 0.08403008 0.27831852
v -0.00350824 0.06411008 0.27258772
v -0.00850824 0.06410912 0.27258778
v -0.00251188 0.08375435 0.27927935
v -0.00251151 0.08222850 0.28459924
v -0.00312926 0.08400908 0.27839130
v -0.00280482 0.08394932 0.27859965
v -0.00258803 0.08385988 0.27891150
v -0.00250822 0.06411025 0.27362823
v -0.00258435 0.06411024 0.27323005
v -0.00280113 0.06411020 0.27289248
v -0.00312555 0.06411014 0.27266693
v -0.00250794 0.06410987 0.29340303
v -0.00251130 0.08110955 0.28490999
v -0.00251108 0.07999210 0.28522596
v -0.00250885 0.06878338 0.29185465
v -0.00250803 0.06460421 0.29323879
v -0.00250965 0.07290890 0.29052660
v -0.00251046 0.07704356 0.28922701
v -0.00251075 0.07851595 0.28878102
v -0.00251103 0.07999204 0.28834739
f 1 2 3
f 3 2 4
f 13 1 3
f 13 7 1
f 12 7 13
f 12 8 7
f 11 8 12
f 11 9 8
f 10 9 11
f 10 5 9
f 15 5 10
f 15 10 16
f 16 10 21
f 16 21 22
f 10 20 21
f 10 19 20
f 17 19 10
f 17 10 18
f 18 10 14
f 6 5 15

