# https://github.com/mikedh/trimesh
v 0.00358870 0.06439943 0.06613157
v 0.00359042 0.05550137 0.06834666
v 0.00359024 0.05632589 0.06614728
v 0.00358901 0.06264000 0.06457545
v 0.00358944 0.06035853 0.06401692
v 0.00358988 0.05807925 0.06458432
v 0.00359040 0.05579511 0.07067706
v 0.00359017 0.05713967 0.07260302
v 0.00359026 0.05713955 0.07865776
v -0.04414228 0.06331518 0.06500933
v -0.04410196 0.06435375 0.06608003
v -0.04410150 0.06439035 0.06613226
v -0.04421636 0.06216064 0.06436086
v -0.04418324 0.06263070 0.06457603
v -0.04451101 0.05890180 0.06423927
v -0.04435080 0.06054123 0.06402100
v -0.04482741 0.05631677 0.06614785
v -0.04472454 0.05705616 0.06529792
v -0.04467783 0.05743001 0.06498867
v -0.04460180 0.05807007 0.06458502
v -0.04487247 0.05604359 0.06659629
v -0.04499898 0.05551882 0.06815315
v -0.04509590 0.05553751 0.06979240
v -0.04513391 0.05578577 0.07067759
v -0.04515428 0.05609525 0.07133265
v -0.04516486 0.05713038 0.07260373
v -0.04529567 0.05713031 0.07483551
v -0.04551519 0.05713020 0.07865848
f 4 10 1
f 4 14 10
f 4 13 14
f 5 13 4
f 5 16 13
f 5 15 16
f 6 15 5
f 6 20 15
f 6 19 20
f 3 19 6
f 3 18 19
f 17 18 3
f 17 3 21
f 21 3 2
f 21 2 22
f 22 2 23
f 23 2 7
f 23 7 24
f 24 7 25
f 25 7 8
f 25 8 26
f 26 8 27
f 27 8 9
f 27 9 28
f 1 10 11
f 1 11 12

