# https://github.com/mikedh/trimesh
v -0.04350682 0.05618440 0.26613140
v -0.04350681 0.05610258 0.26608416
v -0.04350768 0.06046778 0.26365849
v -0.04350683 0.05610260 0.26465842
v -0.04350690 0.05637534 0.26365840
v -0.04377578 0.06118441 0.26265854
v -0.04355108 0.06118444 0.26324478
v -0.04550703 0.05692046 0.26165849
v -0.04550784 0.06118410 0.26165855
v -0.04498938 0.05690197 0.26172662
v -0.04450784 0.06118428 0.26192650
v -0.04450701 0.05684757 0.26192641
v -0.04377491 0.05664805 0.26265845
v -0.04741424 0.05692010 0.26165852
v -0.04669387 0.06118387 0.26165858
v -0.04731795 0.05711931 0.26092815
v -0.04660277 0.06118390 0.26083779
v -0.04737490 0.05728500 0.26032066
v -0.04668940 0.06118390 0.26021102
v -0.04731838 0.06118383 0.25747129
v -0.04812245 0.05848672 0.25591415
v -0.03400741 0.05848941 0.25591394
v -0.03400683 0.05610441 0.26465830
v -0.03400681 0.05610439 0.26608405
v -0.03400682 0.05618621 0.26613128
v -0.03400790 0.06118637 0.25747111
v -0.03400782 0.06118626 0.26324463
f 1 2 3
f 3 2 4
f 3 4 5
f 13 3 5
f 13 6 3
f 6 7 3
f 27 3 7
f 26 27 7
f 7 6 26
f 26 6 11
f 26 11 20
f 20 11 9
f 20 9 19
f 19 9 17
f 17 18 19
f 21 19 18
f 20 19 21
f 17 16 18
f 15 16 17
f 15 14 16
f 9 15 17
f 26 20 22
f 22 20 21
f 27 1 3
f 25 1 27
f 25 2 1
f 24 2 25
f 24 4 2
f 23 4 24
f 23 5 4
f 23 13 5
f 22 13 23
f 22 12 13
f 22 10 12
f 21 10 22
f 21 18 10
f 10 18 16
f 10 16 8
f 8 16 14
f 12 6 13
f 12 11 6
f 10 11 12
f 10 9 11
f 8 9 10
f 8 14 9
f 9 14 15
f 24 25 23
f 23 25 27
f 23 27 22
f 22 27 26

