# https://github.com/mikedh/trimesh
v 0.03499897 -0.08926816 0.09528615
v 0.03486473 -0.09072970 0.09230447
v 0.03483921 -0.09024443 0.09174076
v 0.03483157 -0.08999757 0.09157246
v 0.03481930 -0.08901591 0.09130462
v 0.03490939 -0.09099758 0.09330450
v 0.03490369 -0.09099358 0.09317806
v 0.03488275 -0.09090730 0.09271042
v 0.03487347 -0.09082776 0.09249765
v 0.03492527 -0.09096700 0.09365284
v 0.03495496 -0.09072972 0.09430447
v 0.03498784 -0.08999760 0.09503657
v 0.03497268 -0.09043182 0.09469844
v 0.03496479 -0.09058366 0.09452308
v 0.03490914 -0.08914182 0.09329540
v 0.03490384 -0.09093821 0.09318161
f 2 9 15
f 15 3 2
f 15 4 3
f 5 4 15
f 15 9 8
f 8 16 15
f 15 16 10
f 16 6 10
f 16 7 6
f 15 10 11
f 14 15 11
f 13 15 14
f 13 1 15
f 12 1 13
f 8 7 16

