# https://github.com/mikedh/trimesh
v -0.01600512 0.08919440 0.13629842
v -0.01596541 0.09149441 0.13635869
v -0.01600506 0.08919432 0.14069878
v -0.01596535 0.09149433 0.14065866
v -0.01692482 0.08919414 0.14069878
v -0.01696541 0.09149414 0.14065868
v -0.01692489 0.08919423 0.13629843
v -0.01696547 0.09149422 0.13635871
v -0.02025506 0.08919351 0.14069884
v -0.02021535 0.09149352 0.14065872
v -0.01267482 0.08919495 0.14069872
v -0.01271541 0.09149495 0.14065862
v -0.02029310 0.08699358 0.13631113
v -0.02029311 0.08699360 0.13541816
v -0.01946459 0.08699375 0.13624083
v -0.01946460 0.08699376 0.13535866
v -0.01346458 0.08699489 0.13624074
v -0.01346460 0.08699490 0.13535857
v -0.01263607 0.08699504 0.13631102
v -0.01263608 0.08699506 0.13541804
v -0.01261843 0.08599507 0.13538527
v -0.01346441 0.08599491 0.13532363
v -0.01946441 0.08599377 0.13532372
v -0.02031038 0.08599360 0.13538538
v -0.01946544 0.09149374 0.13635875
v -0.01346544 0.09149489 0.13635866
v -0.02021541 0.09149360 0.13641770
v -0.01271547 0.09149503 0.13641760
f 8 25 7
f 7 25 15
f 15 25 13
f 13 25 27
f 7 15 1
f 1 15 17
f 1 17 2
f 2 17 26
f 26 17 28
f 28 17 19
f 13 14 15
f 15 14 16
f 15 16 17
f 17 16 18
f 17 18 19
f 19 18 20
f 18 22 20
f 22 18 23
f 23 18 16
f 23 16 24
f 24 16 14
f 20 22 21
f 8 6 25
f 25 6 10
f 25 10 27
f 28 12 26
f 26 12 4
f 26 4 2
f 1 2 3
f 3 2 4
f 5 6 7
f 7 6 8
f 9 10 5
f 5 10 6
f 3 4 11
f 11 4 12

