# https://github.com/mikedh/trimesh
v 0.03202023 0.09377551 0.10930804
v 0.03198449 0.09378013 0.10957967
v 0.03187957 0.09379341 0.10983304
v 0.03149524 0.09383854 0.11021737
v 0.03097023 0.09389118 0.11035806
v 0.03044522 0.09393350 0.11021739
v 0.03022785 0.09394801 0.11005063
v 0.03006088 0.09395795 0.10983307
v 0.02995609 0.09396368 0.10958023
v 0.02992020 0.09396554 0.10930807
v 0.03110755 0.09387842 0.10981515
v 0.03198432 0.09378016 0.10903579
v 0.03187955 0.09379344 0.10878304
v 0.03105492 0.09388342 0.10867423
v 0.02995591 0.09396369 0.10903656
v 0.03006086 0.09395798 0.10878307
v 0.03022792 0.09394803 0.10856542
v 0.03044519 0.09393353 0.10839874
v 0.03097020 0.09389122 0.10825805
v 0.03149521 0.09383857 0.10839872
f 1 2 11
f 2 3 11
f 11 3 4
f 11 4 5
f 6 11 5
f 6 7 11
f 12 11 7
f 12 7 13
f 13 7 8
f 13 8 14
f 14 8 9
f 14 9 10
f 10 15 14
f 14 15 16
f 14 16 17
f 17 18 14
f 14 18 19
f 14 19 13
f 13 19 20
f 1 11 12

