# https://github.com/mikedh/trimesh
v -0.00973902 0.09280065 0.14569943
v -0.01020203 0.09280056 0.14604282
v -0.01013121 0.08799534 0.14614736
v -0.01346553 0.09279992 0.14703286
v -0.01346462 0.08799468 0.14715859
v -0.01288977 0.09280003 0.14700456
v -0.01229408 0.08799491 0.14704329
v -0.01231954 0.09280014 0.14691997
v -0.01176036 0.09280024 0.14677989
v -0.01116852 0.08799513 0.14670184
v -0.01121759 0.09280036 0.14658567
v -0.01069648 0.09280046 0.14633919
v -0.00931189 0.09280074 0.14531229
v -0.00922200 0.08799552 0.14540116
v -0.00892477 0.09280083 0.14488515
v -0.00847584 0.08799569 0.14449194
v -0.00858138 0.09280090 0.14442213
v -0.00828502 0.09280097 0.14392768
v -0.00792139 0.08799581 0.14345461
v -0.00803856 0.09280102 0.14340656
v -0.00757998 0.08799589 0.14232905
v -0.00746470 0.08799594 0.14115851
v -0.00759145 0.09280115 0.14115860
v -0.00761973 0.09280113 0.14173436
v -0.00770430 0.09280111 0.14230460
v -0.00784436 0.09280107 0.14286378
v -0.01346570 0.09280014 0.13528451
v -0.01346479 0.08799491 0.13515860
v -0.01946571 0.09279900 0.13528460
v -0.01946479 0.08799377 0.13515867
v -0.02117072 0.09279846 0.14678003
v -0.02171349 0.09279836 0.14658584
v -0.02176072 0.08799312 0.14670199
v -0.02400636 0.09279795 0.14488538
v -0.02434977 0.09279790 0.14442235
v -0.02445347 0.08799264 0.14449218
v -0.02063533 0.08799354 0.13527399
v -0.02061170 0.09279878 0.13539749
v -0.02004148 0.09279889 0.13531290
v -0.02176089 0.08799332 0.13561544
v -0.02279820 0.08799312 0.13616991
v -0.02272920 0.09279836 0.13627462
v -0.02223476 0.09279846 0.13597825
v -0.02171365 0.09279856 0.13573177
v -0.02117088 0.09279867 0.13553756
v -0.02370741 0.08799293 0.13691610
v -0.02445357 0.08799277 0.13782533
v -0.02434986 0.09279802 0.13789533
v -0.02400647 0.09279809 0.13743231
v -0.02361935 0.09279817 0.13700517
v -0.02319222 0.09279826 0.13661803
v -0.02500802 0.08799264 0.13886265
v -0.02534943 0.08799256 0.13998823
v -0.02522694 0.09279781 0.14001286
v -0.02508688 0.09279785 0.13945366
v -0.02489268 0.09279790 0.13891090
v -0.02464622 0.09279795 0.13838978
v -0.02546471 0.08799251 0.14115877
v -0.02534940 0.08799251 0.14232931
v -0.02522690 0.09279777 0.14230485
v -0.02531150 0.09279776 0.14173463
v -0.02533979 0.09279777 0.14115886
v -0.02531151 0.09279779 0.14058308
v -0.02500795 0.08799256 0.14345486
v -0.02464614 0.09279785 0.14392792
v -0.02489261 0.09279781 0.14340679
v -0.02508683 0.09279779 0.14286403
v -0.02361923 0.09279802 0.14531250
v -0.02370728 0.08799277 0.14540139
v -0.02319209 0.09279809 0.14569962
v -0.02279805 0.08799292 0.14614755
v -0.02272906 0.09279817 0.14604302
v -0.02223461 0.09279826 0.14633937
v -0.02061153 0.09279856 0.14692008
v -0.02063516 0.08799332 0.14704341
v -0.02004130 0.09279867 0.14700466
v -0.01946462 0.08799354 0.14715868
v -0.01946553 0.09279878 0.14703295
v -0.00761974 0.09280115 0.14058283
v -0.00758001 0.08799594 0.13998796
v -0.00770434 0.09280115 0.14001261
v -0.00892488 0.09280097 0.13743208
v -0.00858147 0.09280102 0.13789509
v -0.00847594 0.08799581 0.13782510
v -0.00828511 0.09280107 0.13838954
v -0.00792146 0.08799589 0.13886242
v -0.00803863 0.09280111 0.13891065
v -0.00784441 0.09280113 0.13945343
v -0.00931202 0.09280090 0.13700496
v -0.00922213 0.08799569 0.13691589
v -0.00973915 0.09280083 0.13661784
v -0.01013136 0.08799553 0.13616973
v -0.01020218 0.09280074 0.13627444
v -0.01069663 0.09280065 0.13597809
v -0.01116868 0.08799534 0.13561529
v -0.01121775 0.09280056 0.13573162
v -0.01229425 0.08799513 0.13527386
v -0.01288994 0.09280025 0.13531280
v -0.01231971 0.09280036 0.13539737
v -0.01176052 0.09280046 0.13553743
v -0.01346574 0.09299491 0.13548444
v -0.01946574 0.09299376 0.13548453
v -0.01705865 0.09299415 0.13878013
v -0.00846146 0.09299580 0.13848379
v -0.01239769 0.09299499 0.14176536
v -0.01224522 0.09299501 0.14193462
v -0.00781875 0.09299588 0.14060244
v -0.00790046 0.09299587 0.14005162
v -0.01223486 0.09299502 0.14195387
v -0.00803577 0.09299586 0.13951147
v -0.00822338 0.09299584 0.13898717
v -0.02446993 0.09299275 0.13848403
v -0.02071663 0.09299343 0.14022018
v -0.02069479 0.09299344 0.14016919
v -0.02306542 0.09299305 0.13677259
v -0.02347801 0.09299296 0.13714655
v -0.02065086 0.09299345 0.14012170
v -0.02385196 0.09299289 0.13755915
v -0.02418366 0.09299281 0.13800640
v -0.01726704 0.09299412 0.13884123
v -0.01723415 0.09299412 0.13881560
v -0.01715747 0.09299414 0.13878398
v -0.00779142 0.09299587 0.14115861
v -0.01221054 0.09299502 0.14203402
v -0.00781873 0.09299586 0.14171478
v -0.00907936 0.09299556 0.14475833
v -0.00874765 0.09299564 0.14431106
v -0.01223652 0.09299501 0.14214827
v -0.00846139 0.09299570 0.14383343
v -0.01221468 0.09299502 0.14209728
v -0.01566427 0.09299433 0.14347623
v -0.01569716 0.09299432 0.14350186
v -0.01346557 0.09299469 0.14683293
v -0.01577385 0.09299431 0.14353350
v -0.01587266 0.09299430 0.14353734
v -0.01946557 0.09299354 0.14683302
v -0.02470800 0.09299269 0.13898741
v -0.02489559 0.09299265 0.13951170
v -0.02072078 0.09299343 0.14028344
v -0.02163717 0.09299334 0.13591649
v -0.02214055 0.09299324 0.13615458
v -0.01731707 0.09299410 0.13890813
v -0.02261816 0.09299314 0.13644086
v -0.01734914 0.09299409 0.13901730
v -0.01733769 0.09299409 0.13920748
v -0.00822331 0.09299576 0.14333005
v -0.00803573 0.09299580 0.14280576
v -0.00790043 0.09299584 0.14226560
v -0.00945331 0.09299549 0.14517093
v -0.01228045 0.09299500 0.14219576
v -0.00986589 0.09299540 0.14554489
v -0.01129414 0.09299511 0.14640097
v -0.01079077 0.09299521 0.14616288
v -0.01561425 0.09299435 0.14340933
v -0.01031315 0.09299531 0.14587660
v -0.01558217 0.09299435 0.14330018
v -0.01559362 0.09299435 0.14310998
v -0.02446985 0.09299265 0.14383367
v -0.02053362 0.09299346 0.14055212
v -0.02068610 0.09299344 0.14038284
v -0.02511256 0.09299257 0.14171503
v -0.02503085 0.09299257 0.14226584
v -0.02069646 0.09299343 0.14036359
v -0.02489554 0.09299259 0.14280599
v -0.02470794 0.09299261 0.14333029
v -0.02002191 0.09299365 0.13551186
v -0.02057273 0.09299355 0.13559358
v -0.02111288 0.09299344 0.13572890
v -0.01701582 0.09299416 0.13878796
v -0.01682180 0.09299420 0.13887681
v -0.01290957 0.09299501 0.13551177
v -0.01263739 0.09299494 0.14159004
v -0.01290940 0.09299479 0.14680560
v -0.01235859 0.09299490 0.14672388
v -0.01181843 0.09299500 0.14658858
v -0.02503088 0.09299261 0.14005187
v -0.02511258 0.09299259 0.14060268
v -0.02513990 0.09299257 0.14115886
v -0.00874775 0.09299576 0.13800618
v -0.00907946 0.09299570 0.13755892
v -0.00945342 0.09299564 0.13714634
v -0.00986602 0.09299556 0.13677239
v -0.02418357 0.09299269 0.14431128
v -0.02385185 0.09299275 0.14475854
v -0.02029392 0.09299351 0.14072742
v -0.02058083 0.09299346 0.14008565
v -0.02043466 0.09299349 0.14006504
v -0.02003801 0.09299356 0.14011775
v -0.01733144 0.09299409 0.13923593
v -0.01712415 0.09299411 0.14076805
v -0.01699915 0.09299413 0.14064147
v -0.01031329 0.09299549 0.13644068
v -0.01079091 0.09299540 0.13615441
v -0.01129430 0.09299531 0.13591634
v -0.01235049 0.09299499 0.14223181
v -0.01249666 0.09299496 0.14225242
v -0.01289331 0.09299488 0.14219971
v -0.01559988 0.09299435 0.14308155
v -0.01580716 0.09299434 0.14154941
v -0.01593217 0.09299432 0.14167599
v -0.01181859 0.09299521 0.13572876
v -0.01235875 0.09299511 0.13559346
v -0.02347789 0.09299281 0.14517112
v -0.02306529 0.09299289 0.14554508
v -0.02261803 0.09299296 0.14587678
v -0.02214040 0.09299305 0.14616305
v -0.02163702 0.09299314 0.14640112
v -0.02111272 0.09299324 0.14658871
v -0.01699135 0.09299413 0.14070731
v -0.01707203 0.09299412 0.14077508
v -0.01699488 0.09299413 0.14073467
v -0.01593996 0.09299432 0.14161015
v -0.01585928 0.09299433 0.14154239
v -0.01593643 0.09299432 0.14158280
v -0.01591550 0.09299429 0.14352950
v -0.01610951 0.09299425 0.14344066
v -0.02002175 0.09299344 0.14680570
v -0.02057256 0.09299333 0.14672400
v -0.01702680 0.09299412 0.14076993
v -0.01701072 0.09299413 0.14076193
v -0.01700174 0.09299413 0.14075184
v -0.01590452 0.09299432 0.14154753
v -0.01592060 0.09299432 0.14155553
v -0.01592957 0.09299432 0.14156564
v -0.01599064 0.09279431 0.14146376
v -0.01688674 0.09279416 0.14061490
v -0.01687589 0.09279416 0.14071073
v -0.01688297 0.09279415 0.14076327
v -0.01690299 0.09279415 0.14081176
v -0.01602824 0.09279430 0.14150570
v -0.01694060 0.09279414 0.14085369
v -0.01594013 0.09279432 0.14143771
v -0.01688458 0.09279419 0.13897368
v -0.01721903 0.09279412 0.13920936
v -0.01722450 0.09279412 0.13918447
v -0.01604450 0.09279429 0.14170256
v -0.01605535 0.09279429 0.14160672
v -0.01604826 0.09279430 0.14155419
v -0.01699111 0.09279413 0.14087975
v -0.01604665 0.09279426 0.14334376
v -0.01571221 0.09279433 0.14310810
v -0.01570674 0.09279433 0.14313297
v -0.01585565 0.09279434 0.14142697
v -0.01578197 0.09279435 0.14143671
v -0.01270018 0.09279493 0.14168693
v -0.01286812 0.09279490 0.14208701
v -0.01247274 0.09279497 0.14185308
v -0.01707559 0.09279411 0.14089049
v -0.01714927 0.09279410 0.14088075
v -0.02023106 0.09279352 0.14063053
v -0.02006312 0.09279355 0.14023043
v -0.02045850 0.09279348 0.14046438
v -0.01704279 0.09279416 0.13890022
v -0.01707268 0.09279415 0.13889474
v -0.01713243 0.09279414 0.13889670
v -0.01588844 0.09279429 0.14341724
v -0.01585856 0.09279430 0.14342272
v -0.01579881 0.09279431 0.14342076
v -0.01721434 0.09279412 0.13896093
v -0.01723449 0.09279412 0.13903131
v -0.01718803 0.09279413 0.13892546
v -0.01717177 0.09279414 0.13891280
v -0.01233832 0.09279499 0.14200506
v -0.01249787 0.09279496 0.14213695
v -0.01238686 0.09279498 0.14212222
v -0.01234501 0.09279499 0.14199264
v -0.01571690 0.09279433 0.14335653
v -0.01569675 0.09279433 0.14328615
v -0.01574320 0.09279432 0.14339198
v -0.01575947 0.09279431 0.14340466
v -0.02059292 0.09279346 0.14031239
v -0.02043337 0.09279349 0.14018050
v -0.02054438 0.09279346 0.14019524
v -0.02058623 0.09279346 0.14032482
v -0.01232533 0.09279500 0.14204611
v -0.01232672 0.09279499 0.14206947
v -0.01233395 0.09279499 0.14208636
v -0.01235048 0.09279499 0.14210397
v -0.02060590 0.09279345 0.14027135
v -0.02060452 0.09279345 0.14024799
v -0.02059729 0.09279346 0.14023110
v -0.02058076 0.09279346 0.14021347
v -0.01946555 0.09289655 0.14700444
v -0.02003853 0.09289644 0.14697631
v -0.01946557 0.09296761 0.14693150
v -0.02003139 0.09296751 0.14690371
v -0.02059177 0.09296741 0.14682059
v -0.02114130 0.09296730 0.14668295
v -0.02167470 0.09296720 0.14649211
v -0.02218682 0.09296711 0.14624991
v -0.02267274 0.09296703 0.14595866
v -0.02312776 0.09296694 0.14562121
v -0.02354752 0.09296687 0.14524077
v -0.02392798 0.09296680 0.14482102
v -0.02426545 0.09296675 0.14436600
v -0.02455670 0.09296671 0.14388010
v -0.02479892 0.09296667 0.14336798
v -0.02498978 0.09296664 0.14283459
v -0.02512744 0.09296662 0.14228506
v -0.02521057 0.09296662 0.14172469
v -0.02523838 0.09296662 0.14115886
v -0.02521059 0.09296664 0.14059304
v -0.02512747 0.09296667 0.14003265
v -0.02498983 0.09296671 0.13948312
v -0.02479899 0.09296675 0.13894972
v -0.02455678 0.09296681 0.13843760
v -0.02426554 0.09296687 0.13795169
v -0.02392808 0.09296694 0.13749667
v -0.02354764 0.09296703 0.13707690
v -0.02312789 0.09296712 0.13669646
v -0.02267288 0.09296720 0.13635898
v -0.02218697 0.09296730 0.13606773
v -0.02167486 0.09296741 0.13582550
v -0.02114147 0.09296751 0.13563465
v -0.02059194 0.09296761 0.13549699
v -0.02003156 0.09296773 0.13541386
v -0.01946574 0.09296783 0.13538605
v -0.02060599 0.09289633 0.14689215
v -0.02116246 0.09289623 0.14675276
v -0.02170260 0.09289613 0.14655951
v -0.02222119 0.09289604 0.14631423
v -0.02271325 0.09289595 0.14601932
v -0.02317403 0.09289587 0.14567760
v -0.02359909 0.09289580 0.14529234
v -0.02398435 0.09289573 0.14486730
v -0.02432609 0.09289567 0.14440653
v -0.02462102 0.09289563 0.14391448
v -0.02486631 0.09289559 0.14339590
v -0.02505957 0.09289556 0.14285576
v -0.02519897 0.09289555 0.14229929
v -0.02528316 0.09289555 0.14173183
v -0.02531131 0.09289555 0.14115886
v -0.02528317 0.09289557 0.14058588
v -0.02519900 0.09289559 0.14001842
v -0.02505962 0.09289563 0.13946195
v -0.02486637 0.09289567 0.13892181
v -0.02462110 0.09289573 0.13840322
v -0.02432618 0.09289580 0.13791116
v -0.02398446 0.09289587 0.13745038
v -0.02359921 0.09289595 0.13702531
v -0.02317416 0.09289604 0.13664006
v -0.02271339 0.09289613 0.13629833
v -0.02222134 0.09289623 0.13600339
v -0.02170276 0.09289633 0.13575810
v -0.02116263 0.09289645 0.13556483
v -0.02060616 0.09289655 0.13542543
v -0.02003870 0.09289666 0.13534126
v -0.01946572 0.09289677 0.13531309
v -0.01346574 0.09296898 0.13538596
v -0.01346572 0.09289791 0.13531302
v -0.01346557 0.09296876 0.14693141
v -0.01346555 0.09289769 0.14700435
v -0.01289275 0.09289803 0.13534115
v -0.01289991 0.09296908 0.13541375
v -0.01233953 0.09296919 0.13549687
v -0.01179000 0.09296929 0.13563451
v -0.01125660 0.09296939 0.13582535
v -0.01074448 0.09296948 0.13606755
v -0.01025857 0.09296957 0.13635880
v -0.00980354 0.09296965 0.13669626
v -0.00938378 0.09296972 0.13707669
v -0.00900333 0.09296979 0.13749644
v -0.00866586 0.09296984 0.13795146
v -0.00837460 0.09296989 0.13843738
v -0.00813238 0.09296992 0.13894948
v -0.00794152 0.09296995 0.13948287
v -0.00780387 0.09296997 0.14003240
v -0.00772073 0.09296998 0.14059278
v -0.00769293 0.09296997 0.14115860
v -0.01232529 0.09289813 0.13542531
v -0.01176881 0.09289823 0.13556470
v -0.01122868 0.09289833 0.13575795
v -0.01071008 0.09289843 0.13600323
v -0.01021803 0.09289852 0.13629813
v -0.00975725 0.09289859 0.13663986
v -0.00933218 0.09289867 0.13702512
v -0.00894693 0.09289873 0.13745016
v -0.00860519 0.09289879 0.13791093
v -0.00831026 0.09289884 0.13840298
v -0.00806497 0.09289888 0.13892156
v -0.00787170 0.09289891 0.13946170
v -0.00773231 0.09289892 0.14001817
v -0.00764812 0.09289892 0.14058563
v -0.00761997 0.09289892 0.14115860
v -0.00764811 0.09289890 0.14173158
v -0.00772072 0.09296995 0.14172442
v -0.00780383 0.09296992 0.14228481
v -0.00794148 0.09296989 0.14283434
v -0.00813232 0.09296984 0.14336774
v -0.00837452 0.09296978 0.14387986
v -0.00866576 0.09296972 0.14436577
v -0.00900322 0.09296965 0.14482079
v -0.00938366 0.09296957 0.14524056
v -0.00980341 0.09296948 0.14562102
v -0.01025843 0.09296939 0.14595848
v -0.01074433 0.09296929 0.14624974
v -0.01125645 0.09296919 0.14649196
v -0.01178984 0.09296908 0.14668281
v -0.01233937 0.09296898 0.14682047
v -0.01289974 0.09296887 0.14690360
v -0.00773227 0.09289888 0.14229904
v -0.00787165 0.09289884 0.14285551
v -0.00806491 0.09289879 0.14339565
v -0.00831018 0.09289873 0.14391424
v -0.00860509 0.09289867 0.14440630
v -0.00894682 0.09289859 0.14486708
v -0.00933206 0.09289851 0.14529213
v -0.00975712 0.09289843 0.14567740
v -0.01021789 0.09289833 0.14601913
v -0.01070993 0.09289823 0.14631407
v -0.01122852 0.09289813 0.14655936
v -0.01176865 0.09289802 0.14675263
v -0.01232512 0.09289791 0.14689201
v -0.01289258 0.09289780 0.14697620
f 1 2 3
f 1 3 13
f 13 408 1
f 1 408 409
f 408 395 409
f 409 395 396
f 395 153 396
f 396 153 152
f 152 153 154
f 154 153 155
f 154 155 156
f 156 155 151
f 156 151 157
f 151 196 157
f 157 196 197
f 157 197 198
f 241 157 198
f 242 157 241
f 241 240 242
f 236 240 241
f 236 239 240
f 239 248 240
f 239 219 248
f 239 220 219
f 219 220 210
f 210 220 221
f 231 221 220
f 229 221 231
f 229 211 221
f 228 211 229
f 225 228 229
f 227 228 225
f 225 226 227
f 226 191 227
f 226 189 191
f 189 190 191
f 189 188 190
f 145 188 189
f 145 187 188
f 115 187 145
f 115 186 187
f 273 187 186
f 273 186 282
f 281 273 282
f 282 117 281
f 281 117 114
f 117 118 114
f 114 118 119
f 114 119 112
f 306 112 119
f 306 119 307
f 337 306 307
f 337 307 338
f 338 307 308
f 307 118 308
f 308 118 116
f 308 116 309
f 339 308 309
f 339 309 340
f 340 309 310
f 309 115 310
f 310 115 143
f 310 143 311
f 311 143 141
f 142 141 143
f 140 141 142
f 312 141 140
f 312 140 313
f 343 312 313
f 343 313 344
f 344 313 314
f 313 168 314
f 314 168 167
f 314 167 315
f 315 167 166
f 120 166 167
f 102 166 120
f 120 121 102
f 102 121 122
f 262 122 121
f 262 121 261
f 261 235 262
f 261 260 235
f 260 144 235
f 235 144 145
f 235 145 234
f 234 233 235
f 233 253 235
f 233 170 253
f 170 233 172
f 171 170 172
f 101 170 171
f 101 169 170
f 103 169 101
f 254 169 103
f 254 103 255
f 255 103 122
f 235 254 255
f 253 169 254
f 101 102 103
f 102 101 349
f 102 349 317
f 316 102 317
f 347 316 317
f 347 317 348
f 39 347 348
f 39 348 29
f 348 27 29
f 27 28 29
f 29 28 30
f 97 28 27
f 27 98 97
f 97 98 99
f 97 99 95
f 95 99 100
f 99 371 100
f 99 370 371
f 370 356 371
f 370 355 356
f 353 355 370
f 353 354 355
f 354 202 355
f 354 171 202
f 349 171 354
f 350 349 354
f 355 202 201
f 172 201 202
f 194 201 172
f 356 201 194
f 356 194 357
f 357 194 193
f 357 193 358
f 358 193 192
f 358 192 359
f 373 358 359
f 373 359 374
f 374 359 360
f 359 182 360
f 360 182 181
f 172 181 182
f 172 180 181
f 361 181 180
f 361 180 362
f 362 180 179
f 362 179 363
f 377 362 363
f 377 363 378
f 378 363 364
f 363 104 364
f 364 104 111
f 106 111 104
f 106 110 111
f 109 110 106
f 109 108 110
f 366 110 108
f 366 108 367
f 381 366 367
f 381 367 382
f 382 367 368
f 367 107 368
f 368 107 123
f 368 123 369
f 369 123 125
f 369 125 386
f 386 125 148
f 124 148 125
f 124 147 148
f 130 147 124
f 130 146 147
f 129 146 130
f 128 129 130
f 128 127 129
f 390 129 127
f 390 127 391
f 404 390 391
f 404 391 405
f 405 391 392
f 391 126 392
f 392 126 149
f 392 149 393
f 393 149 151
f 393 151 394
f 407 393 394
f 407 394 408
f 406 393 407
f 15 406 407
f 17 406 15
f 17 405 406
f 18 405 17
f 17 16 18
f 18 16 19
f 18 19 20
f 19 26 20
f 19 25 26
f 25 402 26
f 25 401 402
f 24 401 25
f 24 385 401
f 385 387 401
f 401 387 388
f 387 147 388
f 385 386 387
f 384 386 385
f 23 384 385
f 79 384 23
f 23 22 79
f 21 22 23
f 23 24 21
f 79 22 80
f 79 80 81
f 81 383 79
f 81 382 383
f 88 382 81
f 80 88 81
f 80 87 88
f 87 381 88
f 87 380 381
f 85 380 87
f 86 85 87
f 84 85 86
f 84 83 85
f 83 379 85
f 83 378 379
f 82 378 83
f 82 83 84
f 82 84 89
f 89 84 90
f 89 90 91
f 91 90 92
f 91 92 93
f 93 375 91
f 93 374 375
f 94 374 93
f 91 375 376
f 375 361 376
f 375 360 361
f 93 92 94
f 94 92 95
f 94 95 96
f 96 373 94
f 96 372 373
f 100 372 96
f 91 376 89
f 89 376 377
f 89 377 82
f 85 379 380
f 379 365 380
f 380 365 366
f 379 364 365
f 86 87 80
f 79 383 384
f 383 369 384
f 23 385 24
f 21 24 25
f 401 388 402
f 402 388 389
f 388 146 389
f 402 389 403
f 403 389 390
f 26 402 403
f 21 25 19
f 26 403 20
f 20 403 404
f 20 404 18
f 15 16 17
f 15 14 16
f 13 14 15
f 15 407 13
f 149 150 151
f 150 195 151
f 278 195 150
f 278 150 277
f 277 265 278
f 276 265 277
f 276 263 265
f 275 263 276
f 275 124 263
f 263 124 109
f 263 109 266
f 246 263 266
f 246 266 247
f 266 106 247
f 247 106 105
f 247 105 245
f 245 105 172
f 245 246 247
f 245 244 246
f 233 244 245
f 233 243 244
f 232 243 233
f 232 222 243
f 243 222 213
f 222 223 213
f 213 223 224
f 213 224 214
f 230 214 224
f 238 214 230
f 238 212 214
f 237 212 238
f 231 237 238
f 236 237 231
f 236 200 237
f 200 236 198
f 198 199 200
f 200 199 212
f 212 199 213
f 244 213 199
f 237 200 212
f 231 238 230
f 230 224 225
f 212 213 214
f 225 224 223
f 225 223 232
f 232 223 222
f 226 232 233
f 243 213 244
f 199 246 244
f 197 246 199
f 246 197 264
f 264 263 246
f 123 109 124
f 276 130 275
f 263 264 265
f 264 196 265
f 265 196 195
f 277 128 276
f 277 150 128
f 265 195 278
f 149 128 150
f 406 392 393
f 126 128 149
f 405 392 406
f 18 404 405
f 403 390 404
f 391 127 126
f 389 129 390
f 126 127 128
f 276 128 130
f 389 146 129
f 388 147 146
f 275 130 124
f 387 148 147
f 386 148 387
f 384 369 386
f 123 124 125
f 383 368 369
f 107 109 123
f 382 368 383
f 88 381 382
f 380 366 381
f 367 108 107
f 365 110 366
f 107 108 109
f 266 109 106
f 365 111 110
f 104 105 106
f 104 179 105
f 364 111 365
f 378 364 379
f 82 377 378
f 376 362 377
f 363 179 104
f 105 179 180
f 376 361 362
f 105 180 172
f 182 192 172
f 360 181 361
f 374 360 375
f 94 373 374
f 372 358 373
f 359 192 182
f 172 192 193
f 372 357 358
f 371 357 372
f 172 193 194
f 350 354 353
f 27 350 353
f 98 353 370
f 355 201 356
f 371 356 357
f 100 371 372
f 95 100 96
f 98 370 99
f 27 353 98
f 348 350 27
f 30 39 29
f 30 38 39
f 37 38 30
f 37 45 38
f 45 346 38
f 38 346 347
f 45 345 346
f 44 345 45
f 44 344 345
f 43 344 44
f 40 43 44
f 40 44 37
f 42 43 40
f 40 41 42
f 41 51 42
f 41 50 51
f 46 50 41
f 46 49 50
f 48 49 46
f 48 339 49
f 48 338 339
f 57 338 48
f 47 57 48
f 47 56 57
f 56 337 57
f 56 336 337
f 55 336 56
f 55 335 336
f 335 305 336
f 336 305 306
f 335 304 305
f 304 137 305
f 304 138 137
f 303 138 304
f 303 176 138
f 138 176 139
f 113 138 139
f 279 113 139
f 280 113 279
f 280 114 113
f 279 271 280
f 280 271 273
f 271 272 273
f 272 271 251
f 251 271 274
f 271 163 274
f 271 139 163
f 139 177 163
f 163 177 178
f 301 178 177
f 300 178 301
f 300 161 178
f 299 161 300
f 299 162 161
f 298 162 299
f 298 164 162
f 163 162 164
f 163 164 160
f 160 164 165
f 160 165 158
f 296 158 165
f 296 165 297
f 327 296 297
f 327 297 328
f 328 297 298
f 328 298 329
f 66 328 329
f 66 329 67
f 67 329 330
f 329 299 330
f 67 330 60
f 60 330 331
f 330 300 331
f 60 331 61
f 60 61 58
f 58 59 60
f 58 61 62
f 61 332 62
f 62 332 333
f 62 333 63
f 53 62 63
f 53 63 54
f 63 334 54
f 54 334 335
f 52 53 54
f 54 55 52
f 63 333 334
f 333 303 334
f 333 302 303
f 332 302 333
f 332 301 302
f 331 301 332
f 58 62 53
f 61 331 332
f 59 67 60
f 59 66 67
f 64 66 59
f 64 65 66
f 35 65 64
f 36 35 64
f 34 35 36
f 34 36 68
f 68 325 34
f 68 324 325
f 70 324 68
f 68 69 70
f 70 69 71
f 70 71 72
f 72 323 70
f 72 322 323
f 322 292 323
f 323 292 293
f 292 203 293
f 292 204 203
f 185 203 204
f 185 204 205
f 291 205 204
f 290 205 291
f 290 206 205
f 289 206 290
f 320 289 290
f 319 289 320
f 319 288 289
f 288 207 289
f 288 208 207
f 287 208 288
f 287 218 208
f 218 185 208
f 217 185 218
f 217 216 185
f 136 216 217
f 136 215 216
f 256 216 215
f 256 215 257
f 242 256 257
f 242 257 258
f 257 135 258
f 258 135 134
f 258 134 270
f 270 134 132
f 270 132 269
f 269 242 270
f 269 268 242
f 267 268 269
f 269 131 267
f 267 131 154
f 131 174 154
f 131 173 174
f 133 173 131
f 131 132 133
f 400 173 133
f 400 133 351
f 133 285 351
f 351 285 283
f 283 285 286
f 285 217 286
f 283 286 284
f 78 283 284
f 78 284 76
f 76 77 78
f 76 75 77
f 74 75 76
f 74 33 75
f 31 33 74
f 31 32 33
f 33 32 71
f 71 32 73
f 32 321 73
f 32 320 321
f 73 321 322
f 321 291 322
f 31 320 32
f 74 319 31
f 74 318 319
f 76 318 74
f 78 77 4
f 352 78 4
f 6 352 4
f 4 5 6
f 6 5 7
f 6 7 8
f 8 7 9
f 9 413 8
f 8 413 414
f 413 400 414
f 413 399 400
f 412 399 413
f 412 398 399
f 398 174 399
f 398 175 174
f 397 175 398
f 397 152 175
f 411 397 398
f 410 397 411
f 410 396 397
f 12 410 411
f 2 410 12
f 2 409 410
f 10 2 12
f 10 12 11
f 9 10 11
f 11 412 9
f 11 411 412
f 12 411 11
f 411 398 412
f 9 412 413
f 9 7 10
f 8 414 6
f 6 414 352
f 414 351 352
f 4 77 5
f 76 284 318
f 284 287 318
f 352 283 78
f 284 286 287
f 351 283 352
f 133 136 285
f 133 135 136
f 414 400 351
f 399 173 400
f 399 174 173
f 154 174 175
f 267 154 268
f 268 156 242
f 269 132 131
f 132 134 133
f 133 134 135
f 270 242 258
f 257 215 135
f 240 216 256
f 135 215 136
f 285 136 217
f 240 185 216
f 250 185 240
f 250 159 185
f 252 159 250
f 250 251 252
f 250 249 251
f 249 190 251
f 249 210 190
f 209 190 210
f 209 210 211
f 248 210 249
f 252 160 159
f 274 160 252
f 159 184 185
f 159 183 184
f 158 183 159
f 295 183 158
f 294 183 295
f 325 294 295
f 325 295 326
f 326 295 296
f 294 184 183
f 293 184 294
f 324 293 294
f 240 249 250
f 286 217 218
f 286 218 287
f 318 287 288
f 185 207 208
f 185 206 207
f 318 288 319
f 31 319 320
f 320 290 321
f 289 207 206
f 321 290 291
f 205 206 185
f 184 203 185
f 291 204 292
f 293 203 184
f 323 293 324
f 322 291 292
f 73 322 72
f 71 73 72
f 70 323 324
f 324 294 325
f 34 325 326
f 68 36 69
f 34 326 35
f 35 326 327
f 35 327 65
f 65 328 66
f 65 327 328
f 326 296 327
f 295 158 296
f 158 159 160
f 297 165 164
f 297 164 298
f 329 298 299
f 161 162 163
f 330 299 300
f 331 300 301
f 301 177 302
f 302 177 176
f 163 178 161
f 274 163 160
f 251 274 252
f 251 188 272
f 279 139 271
f 139 176 177
f 302 176 303
f 334 303 304
f 113 137 138
f 112 137 113
f 305 137 112
f 334 304 335
f 54 335 55
f 52 55 56
f 52 56 47
f 46 47 48
f 49 340 50
f 50 340 341
f 50 341 51
f 51 341 342
f 341 311 342
f 342 311 312
f 51 342 42
f 42 342 343
f 42 343 43
f 345 315 346
f 346 315 316
f 37 44 45
f 38 347 39
f 317 350 348
f 346 316 347
f 317 349 350
f 349 101 171
f 172 202 171
f 172 233 245
f 253 170 169
f 235 253 254
f 226 233 234
f 260 142 144
f 259 142 260
f 259 120 142
f 261 120 259
f 259 260 261
f 262 235 255
f 255 122 262
f 102 122 103
f 261 121 120
f 316 166 102
f 120 167 142
f 315 166 316
f 345 314 315
f 142 167 168
f 344 314 345
f 43 343 344
f 342 312 343
f 313 140 168
f 142 168 140
f 142 143 144
f 311 141 312
f 341 310 311
f 144 143 115
f 340 310 341
f 49 339 340
f 309 116 115
f 115 116 117
f 338 308 339
f 57 337 338
f 336 306 337
f 305 112 306
f 112 113 114
f 307 119 118
f 117 116 118
f 281 114 280
f 280 273 281
f 282 186 117
f 272 187 273
f 117 186 115
f 144 115 145
f 272 188 187
f 234 145 189
f 251 190 188
f 191 190 209
f 234 189 226
f 227 191 209
f 225 232 226
f 227 209 228
f 225 229 230
f 228 209 211
f 230 229 231
f 210 221 211
f 231 220 239
f 248 219 210
f 240 248 249
f 231 239 236
f 240 256 242
f 198 236 241
f 198 197 199
f 264 197 196
f 151 195 196
f 242 156 157
f 394 151 155
f 394 155 395
f 268 154 156
f 154 175 152
f 396 152 397
f 395 155 153
f 409 396 410
f 408 394 395
f 13 407 408
f 13 3 14
f 1 409 2
f 3 2 10

