# https://github.com/mikedh/trimesh
v -0.00004424 0.09419487 0.14010349
v -0.00040599 0.08619480 0.14034936
v 0.00027160 0.09419493 0.13986114
v 0.00020330 0.08619493 0.13974005
v 0.00063939 0.09419501 0.13970879
v 0.00103561 0.08619509 0.13951702
v 0.00103409 0.09419508 0.13965681
v -0.00028658 0.09419482 0.14041933
v -0.00043893 0.09419478 0.14078714
v -0.00062900 0.08619474 0.14118169
v -0.00049089 0.09419476 0.14118184
v -0.00043892 0.09419477 0.14157653
v -0.00040597 0.08619477 0.14201400
v -0.00028656 0.09419479 0.14194433
v -0.00004421 0.09419483 0.14226016
v 0.00020334 0.08619487 0.14262329
v 0.00103414 0.09419502 0.14270681
v 0.00103566 0.08619503 0.14284630
v 0.00063944 0.09419496 0.14265485
v 0.00027163 0.09419488 0.14250252
v 0.00235479 0.09419532 0.14041929
v 0.00211244 0.09419528 0.14010346
v 0.00179660 0.09419522 0.13986112
v 0.00142879 0.09419516 0.13970877
v 0.00142884 0.09419511 0.14265485
v 0.00179663 0.09419517 0.14250249
v 0.00211247 0.09419524 0.14226013
v 0.00235482 0.09419529 0.14194429
v 0.00250716 0.09419533 0.14157650
v 0.00255911 0.09419534 0.14118180
v 0.00250715 0.09419534 0.14078709
v 0.00186798 0.08619519 0.14262328
v 0.00247727 0.08619532 0.14201397
v 0.00270028 0.08619537 0.14118163
v 0.00247725 0.08619535 0.14034933
v 0.00186794 0.08619525 0.13974003
f 1 2 3
f 1 8 2
f 2 8 9
f 2 9 10
f 9 11 10
f 10 11 12
f 10 12 13
f 12 14 13
f 13 14 15
f 13 15 16
f 20 16 15
f 19 16 20
f 19 18 16
f 17 18 19
f 32 18 17
f 17 25 32
f 32 25 26
f 32 26 33
f 33 26 27
f 27 28 33
f 33 28 29
f 33 29 34
f 29 30 34
f 34 30 31
f 34 31 35
f 31 21 35
f 35 21 22
f 35 22 36
f 23 36 22
f 24 36 23
f 24 6 36
f 7 6 24
f 5 6 7
f 5 4 6
f 3 4 5
f 3 2 4

