# https://github.com/mikedh/trimesh
v -0.01181021 0.08599500 0.14675412
v -0.00764340 0.08599590 0.14156249
v -0.00779322 0.08599585 0.14253148
v -0.00812010 0.08599577 0.14350069
v -0.00861120 0.08599566 0.14439793
v -0.00925143 0.08599553 0.14519562
v -0.01002112 0.08599536 0.14586926
v -0.01089662 0.08599519 0.14639814
v -0.01179295 0.08699501 0.14671248
v -0.01091218 0.08699518 0.14636679
v -0.01004192 0.08699536 0.14584108
v -0.00767984 0.08699589 0.14157997
v -0.00782735 0.08699584 0.14252329
v -0.00815228 0.08699577 0.14348669
v -0.00864044 0.08699565 0.14437856
v -0.00927684 0.08699552 0.14517148
f 12 2 13
f 13 2 3
f 13 3 14
f 14 3 4
f 14 4 15
f 15 4 5
f 15 5 16
f 16 5 6
f 16 6 11
f 11 6 7
f 11 7 10
f 10 7 8
f 10 8 9
f 9 8 1

