# https://github.com/mikedh/trimesh
v 0.00200917 -0.02500782 0.30236211
v 0.00200928 -0.02500795 0.30965620
v 0.00200901 -0.02433790 0.29986215
v 0.00200863 -0.02250774 0.29803205
v 0.00200815 -0.02000773 0.29736224
v 0.00200053 0.01999230 0.29736298
v 0.00200006 0.02249228 0.29803291
v 0.00199974 0.02432235 0.29986307
v 0.00199965 0.02499220 0.30236307
v 0.00199975 0.02499206 0.30965716
v 0.00200833 -0.02000790 0.30965632
v 0.00200826 -0.02000781 0.30489898
v 0.00200822 -0.01987384 0.30439898
v 0.00200815 -0.01950780 0.30403295
v 0.00200805 -0.01900780 0.30389896
v 0.00200081 0.01899221 0.30389968
v 0.00200064 0.01999218 0.30489972
v 0.00200065 0.01985823 0.30439973
v 0.00200072 0.01949221 0.30403370
v 0.00200071 0.01999209 0.30965707
f 1 2 11
f 11 12 1
f 1 12 13
f 1 13 3
f 3 13 14
f 14 4 3
f 14 5 4
f 15 5 14
f 15 6 5
f 16 6 15
f 16 7 6
f 19 7 16
f 19 8 7
f 18 8 19
f 18 9 8
f 17 9 18
f 17 10 9
f 20 10 17

