# https://github.com/mikedh/trimesh
v -0.00900310 0.01699811 0.00937924
v -0.00932121 0.01699801 0.01138785
v -0.00900306 0.01699806 0.01217924
v -0.01024443 0.01699780 0.01319986
v -0.01168242 0.01699750 0.01463789
v 0.01167637 0.01700195 0.01463755
v 0.01023834 0.01700170 0.01319956
v 0.00899694 0.01700148 0.01217897
v 0.00931506 0.01700156 0.01138758
v 0.00899690 0.01700154 0.00937897
v -0.01550301 0.01699675 0.01587933
v -0.01550299 0.01699672 0.01704304
v -0.01349440 0.01699714 0.01556117
v 0.01549701 0.01700263 0.01704258
v 0.01348838 0.01700228 0.01556078
v 0.01549699 0.01700265 0.01587888
v 0.01550127 -0.00393794 0.03579970
v -0.01549873 -0.00394385 0.03580015
v 0.01550148 -0.00538944 0.03136070
v -0.01549852 -0.00539535 0.03136116
v 0.01550182 -0.00747161 0.02718027
v -0.01549818 -0.00747751 0.02718072
v 0.01550227 -0.01014009 0.02334742
v -0.01549773 -0.01014599 0.02334787
v 0.01550283 -0.01333805 0.01994381
v -0.01549717 -0.01334395 0.01994426
v 0.01550349 -0.01699737 0.01704194
v -0.01549651 -0.01700328 0.01704239
v -0.01550225 0.01333729 0.01994477
v -0.01549653 -0.01700325 0.01587869
v -0.01550159 0.01013920 0.02334826
v -0.01550103 0.00747058 0.02718100
v -0.01550023 0.00393659 0.03580030
v -0.01550057 0.00538825 0.03136136
v 0.01550347 -0.01699735 0.01587824
v 0.01549897 0.00747648 0.02718055
v 0.01549841 0.01014511 0.02334780
v 0.01549775 0.01334320 0.01994432
v 0.01549943 0.00539416 0.03136091
v 0.01549977 0.00394249 0.03579985
v -0.00931473 -0.01700199 0.01138721
v -0.00899662 -0.01700189 0.00937859
v -0.00899658 -0.01700195 0.01217859
v 0.00900342 -0.01699852 0.01217833
v 0.00900337 -0.01699846 0.00937833
v 0.00932154 -0.01699844 0.01138694
v -0.01167594 -0.01700250 0.01463724
v -0.01348792 -0.01700287 0.01556053
v -0.01023796 -0.01700220 0.01319922
v 0.01024482 -0.01699830 0.01319892
v 0.01168285 -0.01699805 0.01463690
v 0.01349485 -0.01699772 0.01556013
v -0.01483322 0.00148361 0.03580024
v -0.01519948 -0.00000357 0.03580022
v -0.01483265 -0.00149062 0.03580019
v 0.01439535 0.00212406 0.03579983
v 0.01510739 0.00076801 0.03579979
v 0.01510768 -0.00076361 0.03579977
v -0.01381779 0.00263024 0.03580025
v -0.01238580 0.00317363 0.03580024
v -0.01086531 0.00298930 0.03580021
v -0.00960465 0.00211948 0.03580018
v 0.00916678 0.00148818 0.03579989
v 0.00880052 0.00000100 0.03579987
v -0.00889261 0.00076344 0.03580014
v 0.00916735 -0.00148605 0.03579984
v 0.01018221 0.00263481 0.03579990
v 0.01161420 0.00317820 0.03579989
v 0.01313469 0.00299388 0.03579986
v 0.01439616 -0.00211993 0.03579975
v 0.01313583 -0.00299023 0.03579975
v 0.01161541 -0.00317513 0.03579977
v -0.00960384 -0.00212450 0.03580010
v -0.00889232 -0.00076818 0.03580011
v 0.01018322 -0.00263229 0.03579980
v -0.01086417 -0.00299480 0.03580010
v -0.01238459 -0.00317971 0.03580012
v -0.01381678 -0.00263686 0.03580015
f 1 2 3
f 3 2 4
f 3 4 5
f 6 3 5
f 6 5 15
f 15 5 14
f 13 14 5
f 13 12 14
f 14 12 38
f 38 12 29
f 38 29 37
f 37 29 31
f 37 31 36
f 36 31 32
f 36 32 39
f 39 32 34
f 39 34 40
f 40 34 33
f 33 60 40
f 33 59 60
f 53 59 33
f 53 33 54
f 54 33 18
f 54 18 55
f 18 78 55
f 18 77 78
f 17 77 18
f 17 18 19
f 19 18 20
f 19 20 21
f 21 20 22
f 21 22 23
f 23 22 24
f 23 24 25
f 25 24 26
f 25 26 27
f 27 26 28
f 48 27 28
f 48 28 30
f 47 27 48
f 47 52 27
f 27 52 35
f 47 51 52
f 44 51 47
f 44 50 51
f 46 50 44
f 44 45 46
f 44 47 43
f 43 47 49
f 43 49 41
f 41 42 43
f 17 76 77
f 73 76 17
f 73 17 74
f 74 17 72
f 74 72 65
f 65 72 75
f 65 75 66
f 64 65 66
f 64 62 65
f 63 62 64
f 63 67 62
f 62 67 68
f 62 68 40
f 40 61 62
f 40 68 69
f 40 69 56
f 56 57 40
f 40 57 58
f 40 58 17
f 58 70 17
f 17 70 71
f 17 71 72
f 40 60 61
f 11 12 13
f 15 14 16
f 8 3 6
f 6 7 8
f 8 7 9
f 8 9 10

