# https://github.com/mikedh/trimesh
v -0.00738106 0.09399358 0.13015862
v -0.00746600 0.09399363 0.13057235
v -0.00746601 0.09399366 0.12974490
v -0.00752173 0.09399359 0.13068362
v -0.00768879 0.09399304 0.13090129
v -0.00790605 0.09399139 0.13106795
v -0.00815913 0.09398816 0.13117281
v -0.00843105 0.09398309 0.13120863
v -0.00895605 0.09396867 0.13106796
v -0.00934038 0.09395423 0.13068365
v -0.00948105 0.09394813 0.13015865
v -0.00944543 0.09394971 0.13042983
v -0.00944535 0.09394972 0.12988715
v -0.00934039 0.09395424 0.12963365
v -0.00895607 0.09396870 0.12924932
v -0.00843108 0.09398314 0.12910864
v -0.00815926 0.09398820 0.12914442
v -0.00790608 0.09399143 0.12924930
v -0.00768841 0.09399307 0.12941636
v -0.00752174 0.09399361 0.12963362
v -0.00850165 0.09398153 0.12989613
v -0.00843125 0.09398310 0.13068363
f 1 2 3
f 22 3 2
f 2 4 22
f 22 4 5
f 22 5 6
f 7 22 6
f 8 22 7
f 8 10 22
f 9 10 8
f 10 20 22
f 10 21 20
f 12 21 10
f 11 21 12
f 13 21 11
f 13 15 21
f 15 16 21
f 21 16 17
f 17 18 21
f 21 18 19
f 14 15 13
f 21 19 20
f 22 20 3

