# https://github.com/mikedh/trimesh
v -0.00737981 0.09399398 0.10930862
v -0.00746631 0.09399403 0.10972596
v -0.00746632 0.09399405 0.10889128
v -0.00737794 0.08419406 0.10930844
v -0.00751861 0.08419402 0.10983343
v -0.00752047 0.09399398 0.10983362
v -0.00768753 0.09399344 0.11005128
v -0.00790293 0.08419394 0.11021776
v -0.00790479 0.09399181 0.11021795
v -0.00815788 0.09398858 0.11032281
v -0.00842793 0.08419384 0.11035845
v -0.00842979 0.09398352 0.11035863
v -0.00895293 0.08419374 0.11021778
v -0.00895479 0.09396911 0.11021797
v -0.00933726 0.08419368 0.10983346
v -0.00933912 0.09395468 0.10983364
v -0.00947794 0.08419366 0.10930847
v -0.00947980 0.09394859 0.10930865
v -0.00944416 0.09395017 0.10957985
v -0.00933728 0.08419370 0.10878346
v -0.00895295 0.08419377 0.10839913
v -0.00842796 0.08419388 0.10825845
v -0.00790295 0.08419397 0.10839912
v -0.00751862 0.08419404 0.10878343
v -0.00944409 0.09395019 0.10903714
v -0.00933913 0.09395470 0.10878365
v -0.00895482 0.09396915 0.10839931
v -0.00842982 0.09398356 0.10825863
v -0.00815801 0.09398861 0.10829442
v -0.00790482 0.09399184 0.10839929
v -0.00768718 0.09399347 0.10856634
v -0.00752049 0.09399401 0.10878362
f 1 4 2
f 3 4 1
f 3 24 4
f 32 24 3
f 31 24 32
f 31 23 24
f 30 23 31
f 29 23 30
f 29 22 23
f 28 22 29
f 27 22 28
f 27 21 22
f 26 21 27
f 26 20 21
f 25 20 26
f 25 17 20
f 18 17 25
f 17 18 15
f 15 18 19
f 15 19 16
f 14 15 16
f 14 13 15
f 12 13 14
f 12 11 13
f 10 11 12
f 10 8 11
f 9 8 10
f 7 8 9
f 7 5 8
f 6 5 7
f 2 5 6
f 2 4 5

