# https://github.com/mikedh/trimesh
v 0.03202070 0.09377491 0.14115793
v 0.03202252 0.08420096 0.14115775
v 0.03198496 0.09377953 0.14142956
v 0.03188186 0.08420093 0.14168276
v 0.03188003 0.09379281 0.14168294
v 0.03149753 0.08420084 0.14206709
v 0.03149570 0.09383793 0.14206727
v 0.03097254 0.08420074 0.14220777
v 0.03097069 0.09389058 0.14220795
v 0.03044754 0.08420064 0.14206710
v 0.03044568 0.09393290 0.14206728
v 0.03022832 0.09394740 0.14190052
v 0.03006320 0.08420058 0.14168277
v 0.03006135 0.09395735 0.14168297
v 0.02995655 0.09396307 0.14143012
v 0.02992252 0.08420056 0.14115778
v 0.02992066 0.09396493 0.14115797
v 0.03044751 0.08420068 0.14024845
v 0.03006319 0.08420060 0.14063278
v 0.03188184 0.08420094 0.14063275
v 0.03149751 0.08420088 0.14024843
v 0.03097251 0.08420078 0.14010777
v 0.02995637 0.09396309 0.14088646
v 0.03006133 0.09395737 0.14063296
v 0.03022838 0.09394743 0.14041531
v 0.03044566 0.09393293 0.14024863
v 0.03097066 0.09389061 0.14010794
v 0.03149567 0.09383797 0.14024861
v 0.03188001 0.09379283 0.14063293
v 0.03198478 0.09377956 0.14088568
f 1 2 3
f 2 1 20
f 20 1 30
f 20 30 29
f 28 20 29
f 28 21 20
f 27 21 28
f 27 22 21
f 26 22 27
f 26 18 22
f 25 18 26
f 25 19 18
f 24 19 25
f 23 19 24
f 23 16 19
f 17 16 23
f 15 16 17
f 15 13 16
f 14 13 15
f 12 13 14
f 12 10 13
f 11 10 12
f 9 10 11
f 9 8 10
f 7 8 9
f 7 6 8
f 5 6 7
f 5 4 6
f 3 4 5
f 3 2 4

