# https://github.com/mikedh/trimesh
v -0.00646432 0.08599613 0.14115845
v -0.00646470 0.08799613 0.14115849
v -0.00657103 0.08799609 0.14237402
v -0.00657065 0.08599608 0.14237399
v -0.00688682 0.08799601 0.14355263
v -0.00688644 0.08599600 0.14355260
v -0.00740247 0.08799589 0.14465851
v -0.00740209 0.08599588 0.14465846
v -0.00810233 0.08799573 0.14565803
v -0.00810195 0.08599573 0.14565799
v -0.00896511 0.08799555 0.14652084
v -0.00896473 0.08599555 0.14652079
v -0.00996462 0.08799535 0.14722072
v -0.00996424 0.08599535 0.14722069
v -0.01107047 0.08799513 0.14773640
v -0.01107009 0.08599513 0.14773637
v -0.01224907 0.08799490 0.14805223
v -0.01224869 0.08599490 0.14805219
v -0.01346460 0.08799466 0.14815859
v -0.01346422 0.08599466 0.14815855
v -0.01946422 0.08599352 0.14815864
v -0.01946460 0.08799352 0.14815868
v -0.02071453 0.08599328 0.14804609
v -0.02075085 0.08799328 0.14803950
v -0.02075047 0.08599328 0.14803948
v -0.02199330 0.08799305 0.14768602
v -0.02199292 0.08599305 0.14768599
v -0.02314964 0.08799284 0.14711025
v -0.02314926 0.08599284 0.14711021
v -0.02418050 0.08799266 0.14633182
v -0.02418012 0.08599266 0.14633177
v -0.02505076 0.08799251 0.14537720
v -0.02505038 0.08599251 0.14537716
v -0.02573080 0.08799240 0.14427894
v -0.02573042 0.08599240 0.14427890
v -0.02619746 0.08799233 0.14307442
v -0.02619708 0.08599234 0.14307438
v -0.02643483 0.08799231 0.14180467
v -0.02643445 0.08599231 0.14180462
v -0.02646432 0.08599232 0.14115874
v -0.02643485 0.08799234 0.14051290
v -0.02643447 0.08599234 0.14051287
v -0.02619751 0.08799241 0.13924314
v -0.02619713 0.08599241 0.13924310
v -0.02573089 0.08799252 0.13803861
v -0.02573051 0.08599252 0.13803856
v -0.02505089 0.08799267 0.13694032
v -0.02505051 0.08599267 0.13694029
v -0.02418065 0.08799285 0.13598569
v -0.02418027 0.08599285 0.13598564
v -0.02314981 0.08799306 0.13520722
v -0.02314943 0.08599307 0.13520718
v -0.02199349 0.08799329 0.13463141
v -0.02199311 0.08599330 0.13463138
v -0.02075105 0.08799354 0.13427788
v -0.02075067 0.08599354 0.13427785
v -0.02071473 0.08599354 0.13427123
v -0.01946481 0.08799379 0.13415869
v -0.01946443 0.08599379 0.13415864
v -0.01346442 0.08599493 0.13415855
v -0.01346481 0.08799493 0.13415860
v -0.01224927 0.08799516 0.13426492
v -0.01224889 0.08599516 0.13426489
v -0.01107066 0.08799538 0.13458072
v -0.01107028 0.08599538 0.13458067
v -0.00996479 0.08799558 0.13509637
v -0.00996441 0.08599558 0.13509633
v -0.00896527 0.08799575 0.13579622
v -0.00896489 0.08599576 0.13579617
v -0.00810246 0.08799590 0.13665900
v -0.00810208 0.08599591 0.13665897
v -0.00740258 0.08799602 0.13765851
v -0.00740220 0.08599602 0.13765846
v -0.00688689 0.08799610 0.13876435
v -0.00688651 0.08599609 0.13876432
v -0.00657107 0.08799613 0.13994296
v -0.00657069 0.08599614 0.13994291
f 1 2 3
f 1 3 4
f 4 3 5
f 4 5 6
f 6 5 7
f 6 7 8
f 8 7 9
f 8 9 10
f 10 9 11
f 10 11 12
f 12 11 13
f 12 13 14
f 14 13 15
f 14 15 16
f 16 15 17
f 16 17 18
f 18 17 19
f 18 19 20
f 19 22 20
f 20 22 21
f 21 22 23
f 23 22 24
f 23 24 25
f 25 24 26
f 25 26 27
f 27 26 28
f 27 28 29
f 29 28 30
f 29 30 31
f 31 30 32
f 31 32 33
f 33 32 34
f 33 34 35
f 35 34 36
f 35 36 37
f 37 36 38
f 37 38 39
f 39 38 40
f 40 38 41
f 40 41 42
f 42 41 43
f 42 43 44
f 44 43 45
f 44 45 46
f 46 45 47
f 46 47 48
f 48 47 49
f 48 49 50
f 50 49 51
f 50 51 52
f 52 51 53
f 52 53 54
f 54 53 55
f 54 55 56
f 56 55 57
f 57 55 58
f 57 58 59
f 58 61 59
f 59 61 60
f 60 61 62
f 60 62 63
f 63 62 64
f 63 64 65
f 65 64 66
f 65 66 67
f 67 66 68
f 67 68 69
f 69 68 70
f 69 70 71
f 71 70 72
f 71 72 73
f 73 72 74
f 73 74 75
f 75 74 76
f 75 76 77
f 77 76 2
f 77 2 1

