# https://github.com/mikedh/trimesh
v -0.04119609 -0.01926076 0.01675782
v -0.04119519 -0.02413678 0.01442889
v -0.04119270 -0.03500867 0.04345994
v -0.04119422 -0.02934314 0.01298205
v -0.04119321 -0.03472164 0.01246127
v -0.04119806 -0.00801952 0.02820918
v -0.04119755 -0.01107781 0.02375426
v -0.04119688 -0.01486323 0.01989808
v -0.04119860 -0.00401000 0.04374697
v -0.04119860 -0.00443110 0.03835975
v -0.04119842 -0.00578128 0.03312749
v -0.04119756 -0.00830655 0.05920785
v -0.04119807 -0.00597762 0.05433183
v -0.04119842 -0.00453078 0.04912547
v -0.04119521 -0.01975791 0.07044909
v -0.04119610 -0.01530299 0.06739080
v -0.04119689 -0.01144681 0.06360538
v -0.04119219 -0.03529570 0.07445861
v -0.04119322 -0.02990848 0.07403751
v -0.04119424 -0.02467622 0.07268733
v -0.04118931 -0.05075658 0.07016206
v -0.04119020 -0.04588056 0.07249099
v -0.04119118 -0.04067421 0.07393783
v -0.04118733 -0.06199782 0.05871070
v -0.04118785 -0.05893953 0.06316562
v -0.04118852 -0.05515411 0.06702179
v -0.04118680 -0.06600734 0.04317291
v -0.04118680 -0.06558625 0.04856013
v -0.04118698 -0.06423606 0.05379239
v -0.04118784 -0.06171079 0.02771202
v -0.04118733 -0.06403972 0.03258805
v -0.04118698 -0.06548656 0.03779440
v -0.04119019 -0.05025943 0.01647079
v -0.04118929 -0.05471435 0.01952908
v -0.04118850 -0.05857053 0.02331450
v -0.04119217 -0.04010886 0.01288236
v -0.04119116 -0.04534112 0.01423255
f 1 2 3
f 3 2 4
f 3 4 5
f 5 36 3
f 3 36 37
f 3 37 33
f 33 34 3
f 3 34 35
f 3 35 30
f 30 31 3
f 3 31 32
f 3 32 27
f 27 28 3
f 3 28 29
f 3 29 24
f 24 25 3
f 3 25 26
f 3 26 21
f 21 22 3
f 3 22 23
f 3 23 18
f 18 19 3
f 3 19 20
f 3 20 15
f 15 16 3
f 3 16 17
f 3 17 12
f 12 13 3
f 3 13 14
f 3 14 9
f 9 10 3
f 3 10 11
f 3 11 6
f 6 7 3
f 3 7 8
f 3 8 1

