# https://github.com/mikedh/trimesh
v 0.02186159 0.09600274 0.13969146
v 0.02206894 0.09600840 0.13968195
v 0.02203562 0.08619909 0.13968135
v 0.02299771 0.09604110 0.14003228
v 0.02309440 0.09604518 0.14012086
v 0.02309628 0.08619928 0.14012069
v 0.02332342 0.09605523 0.14041553
v 0.02341957 0.09605947 0.14060749
v 0.02342145 0.08619934 0.14060731
v 0.02353376 0.09606314 0.14118153
v 0.02353564 0.08619934 0.14118133
v 0.02350416 0.09606287 0.14088503
v 0.02344943 0.09606075 0.14068568
v 0.02320602 0.09605003 0.14024569
v 0.02260964 0.08619919 0.13979553
v 0.02236490 0.09601750 0.13971855
v 0.02256341 0.09602430 0.13977817
v 0.02283060 0.09603433 0.13991070
v 0.02097496 0.08619887 0.14012071
v 0.02096824 0.09598400 0.14012578
v 0.02146159 0.08619898 0.13979554
v 0.02112393 0.09598675 0.13998899
v 0.02137784 0.09599160 0.13983256
v 0.02145973 0.09599330 0.13979574
v 0.02157023 0.09599571 0.13975497
v 0.02057830 0.09597684 0.14081879
v 0.02064795 0.09597840 0.14060754
v 0.02064981 0.08619881 0.14060736
v 0.02067884 0.09597900 0.14053799
v 0.02078043 0.09598080 0.14035745
v 0.02054220 0.09597559 0.14102276
v 0.02053564 0.08619877 0.14118138
v 0.02053378 0.09597471 0.14118156
v 0.02097499 0.08619884 0.14224203
v 0.02064983 0.08619878 0.14175540
v 0.02203566 0.08619903 0.14268136
v 0.02146163 0.08619893 0.14256719
v 0.02260968 0.08619914 0.14256717
v 0.02309631 0.08619924 0.14224200
v 0.02342147 0.08619931 0.14175536
v 0.02056343 0.09597336 0.14147834
v 0.02061833 0.09597267 0.14167805
v 0.02064797 0.09597248 0.14175558
v 0.02097313 0.09597312 0.14224222
v 0.02086246 0.09597250 0.14211856
v 0.02074454 0.09597225 0.14194827
v 0.02150588 0.09597991 0.14258558
v 0.02123858 0.09597577 0.14245342
v 0.02107097 0.09597392 0.14233176
v 0.02170419 0.09598389 0.14264488
v 0.02200014 0.09599127 0.14268117
v 0.02220679 0.09599747 0.14267153
v 0.02249813 0.09600776 0.14260785
v 0.02309960 0.09603516 0.14223701
v 0.02294390 0.09602720 0.14237387
v 0.02269000 0.09601557 0.14253038
v 0.02260782 0.09601212 0.14256735
v 0.02328729 0.09604570 0.14200535
v 0.02338911 0.09605199 0.14182422
v 0.02352547 0.09606192 0.14133906
v 0.02348941 0.09605889 0.14154361
v 0.02341959 0.09605398 0.14175555
v 0.02338791 0.09615877 0.14152038
v 0.02342152 0.09616180 0.14132924
v 0.02202699 0.09610874 0.14125563
v 0.02219203 0.09609740 0.14257406
v 0.02246366 0.09610768 0.14251462
v 0.02264255 0.09611547 0.14244227
v 0.02287929 0.09612711 0.14229609
v 0.02302446 0.09613505 0.14216824
v 0.02319947 0.09614559 0.14195181
v 0.02329440 0.09615187 0.14178258
v 0.02063186 0.09607472 0.14118211
v 0.02065954 0.09607335 0.14145936
v 0.02071076 0.09607267 0.14164592
v 0.02082848 0.09607224 0.14189835
v 0.02093846 0.09607249 0.14205742
v 0.02113292 0.09607389 0.14225656
v 0.02128923 0.09607574 0.14237021
v 0.02153849 0.09607987 0.14249368
v 0.02172341 0.09608383 0.14254910
v 0.02199936 0.09609120 0.14258303
v 0.02067337 0.09607684 0.14084320
v 0.02063971 0.09607558 0.14103375
v 0.02203478 0.09610978 0.14110784
v 0.02076714 0.09607899 0.14058088
v 0.02118229 0.09608673 0.14006802
v 0.02103708 0.09608399 0.14019580
v 0.02086189 0.09608079 0.14041223
v 0.02187021 0.09610269 0.13979007
v 0.02159852 0.09609568 0.13984941
v 0.02141911 0.09609158 0.13992189
v 0.02342925 0.09616302 0.14118204
v 0.02340163 0.09616274 0.14090498
v 0.02335060 0.09616063 0.14071873
v 0.02323311 0.09615511 0.14046635
v 0.02312365 0.09614992 0.14030769
v 0.02292944 0.09614100 0.14010836
v 0.02277364 0.09613424 0.13999481
v 0.02252454 0.09612422 0.13987103
v 0.02233947 0.09611744 0.13981536
v 0.02206354 0.09610835 0.13978119
v 0.02075089 0.09600998 0.14194450
v 0.02249438 0.09604584 0.14260113
v 0.02248652 0.09607817 0.14258109
v 0.02220109 0.09606761 0.14264323
v 0.02247573 0.09609988 0.14255072
v 0.02219666 0.09608938 0.14261159
v 0.02346887 0.09615675 0.14118201
v 0.02350285 0.09613542 0.14118189
v 0.02346091 0.09615549 0.14133333
v 0.02352570 0.09610245 0.14118172
v 0.02349468 0.09613415 0.14133665
v 0.02348145 0.09609809 0.14154242
v 0.02351742 0.09610119 0.14133866
v 0.02342628 0.09615237 0.14152980
v 0.02333000 0.09614527 0.14179924
v 0.02323229 0.09613880 0.14197311
v 0.02305224 0.09612796 0.14219534
v 0.02290294 0.09611980 0.14232658
v 0.02265957 0.09610786 0.14247654
v 0.02345921 0.09613101 0.14153755
v 0.02336063 0.09612386 0.14181307
v 0.02326060 0.09611734 0.14199081
v 0.02307633 0.09610643 0.14221798
v 0.02292355 0.09609821 0.14235209
v 0.02267457 0.09608620 0.14250532
v 0.02338144 0.09609102 0.14182186
v 0.02327996 0.09608459 0.14200217
v 0.02309298 0.09607381 0.14223263
v 0.02293795 0.09606568 0.14236872
v 0.02268525 0.09605379 0.14252423
v 0.02199876 0.09608306 0.14262070
v 0.02171534 0.09607557 0.14258577
v 0.02152544 0.09607156 0.14252883
v 0.02126945 0.09606740 0.14240202
v 0.02110892 0.09606556 0.14228535
v 0.02199869 0.09606127 0.14265251
v 0.02170887 0.09605375 0.14261676
v 0.02151469 0.09604973 0.14255854
v 0.02125294 0.09604556 0.14242893
v 0.02108878 0.09604371 0.14230965
v 0.02220464 0.09603538 0.14266425
v 0.02199918 0.09602908 0.14267372
v 0.02170496 0.09602161 0.14263749
v 0.02150783 0.09601759 0.14257844
v 0.02124211 0.09601344 0.14244694
v 0.02107548 0.09601159 0.14232592
v 0.02090918 0.09606419 0.14208087
v 0.02088453 0.09604235 0.14210066
v 0.02086815 0.09601021 0.14211388
v 0.02076900 0.09604214 0.14193372
v 0.02079620 0.09606397 0.14191754
v 0.02062535 0.09601045 0.14167570
v 0.02064532 0.09604263 0.14166880
v 0.02067526 0.09606445 0.14165835
v 0.02057073 0.09601116 0.14147703
v 0.02059149 0.09604336 0.14147298
v 0.02062264 0.09606516 0.14146678
v 0.02054120 0.09601255 0.14118177
v 0.02056239 0.09604476 0.14118195
v 0.02059418 0.09606656 0.14118207
v 0.02331609 0.09609431 0.14041878
v 0.02157172 0.09603364 0.13976234
v 0.02157760 0.09606589 0.13978283
v 0.02186299 0.09607305 0.13972041
v 0.02158700 0.09608766 0.13981338
v 0.02186607 0.09609479 0.13975236
v 0.02060224 0.09606744 0.14102972
v 0.02057062 0.09604564 0.14102621
v 0.02058545 0.09601469 0.14082085
v 0.02054957 0.09601342 0.14102378
v 0.02063680 0.09606870 0.14083403
v 0.02073311 0.09607086 0.14056465
v 0.02083043 0.09607266 0.14039144
v 0.02101037 0.09607586 0.14016919
v 0.02115951 0.09607862 0.14003795
v 0.02140273 0.09608351 0.13988785
v 0.02060596 0.09604691 0.14082620
v 0.02070445 0.09604906 0.14055082
v 0.02080397 0.09605087 0.14037378
v 0.02098795 0.09605407 0.14014658
v 0.02114046 0.09605683 0.14001243
v 0.02138917 0.09606174 0.13985899
v 0.02068542 0.09601685 0.14054148
v 0.02078643 0.09601865 0.14036186
v 0.02097318 0.09602185 0.14013135
v 0.02112798 0.09602460 0.13999526
v 0.02138044 0.09602950 0.13983959
v 0.02206467 0.09610055 0.13974315
v 0.02234818 0.09610984 0.13977809
v 0.02253837 0.09611680 0.13983515
v 0.02279443 0.09612708 0.13996214
v 0.02295464 0.09613403 0.14007869
v 0.02206609 0.09607884 0.13971095
v 0.02235607 0.09608818 0.13974659
v 0.02255062 0.09609517 0.13980487
v 0.02281260 0.09610552 0.13993461
v 0.02297652 0.09611252 0.14005375
v 0.02186141 0.09604075 0.13969904
v 0.02206759 0.09604649 0.13968948
v 0.02236194 0.09605575 0.13972569
v 0.02255941 0.09606268 0.13978486
v 0.02282531 0.09607292 0.13991654
v 0.02299167 0.09607984 0.14003743
v 0.02315440 0.09614322 0.14028339
v 0.02318096 0.09612177 0.14026301
v 0.02319912 0.09608898 0.14024973
v 0.02329624 0.09612717 0.14042965
v 0.02326703 0.09614857 0.14044638
v 0.02344166 0.09609997 0.14068778
v 0.02342001 0.09613290 0.14069484
v 0.02338794 0.09615427 0.14070575
v 0.02349621 0.09610215 0.14088634
v 0.02347378 0.09613512 0.14089063
v 0.02344047 0.09615646 0.14089720
f 1 2 3
f 3 25 1
f 3 24 25
f 25 24 189
f 189 24 23
f 189 23 22
f 189 22 188
f 188 22 20
f 188 20 187
f 187 183 188
f 187 182 183
f 186 182 187
f 186 181 182
f 185 181 186
f 185 180 181
f 180 175 181
f 181 175 176
f 175 88 176
f 176 88 87
f 176 87 177
f 177 87 92
f 85 92 87
f 85 91 92
f 90 91 85
f 85 102 90
f 85 101 102
f 190 102 101
f 190 101 191
f 195 190 191
f 166 190 195
f 166 168 190
f 165 168 166
f 165 167 168
f 184 167 165
f 184 165 189
f 189 165 164
f 178 167 184
f 183 178 184
f 183 177 178
f 178 91 167
f 167 90 168
f 164 165 166
f 164 166 200
f 25 164 200
f 200 166 195
f 200 195 201
f 1 200 201
f 201 195 196
f 201 196 202
f 2 201 202
f 2 202 16
f 16 202 203
f 202 197 203
f 203 197 198
f 203 198 204
f 17 203 204
f 17 204 18
f 6 17 18
f 6 18 4
f 18 205 4
f 4 205 5
f 205 208 5
f 5 208 14
f 163 14 208
f 7 14 163
f 8 7 163
f 211 8 163
f 13 8 211
f 13 9 8
f 12 9 13
f 12 11 9
f 10 11 12
f 10 12 112
f 112 12 214
f 112 214 110
f 112 110 113
f 110 111 113
f 113 111 116
f 113 116 122
f 122 116 117
f 116 72 117
f 117 72 71
f 117 71 118
f 118 71 70
f 118 70 119
f 124 118 119
f 124 119 125
f 125 119 120
f 125 120 126
f 126 120 121
f 120 68 121
f 68 67 121
f 121 67 107
f 107 67 66
f 66 67 65
f 65 82 66
f 65 81 82
f 80 81 65
f 65 79 80
f 135 80 79
f 135 79 136
f 140 135 136
f 139 135 140
f 139 134 135
f 138 134 139
f 144 138 139
f 144 139 145
f 51 144 145
f 51 145 50
f 50 36 51
f 51 36 52
f 52 36 38
f 52 38 53
f 53 143 52
f 52 143 144
f 53 104 143
f 132 104 53
f 132 105 104
f 104 105 106
f 105 108 106
f 106 108 133
f 108 82 133
f 106 133 138
f 143 106 138
f 105 107 108
f 127 107 105
f 127 105 132
f 131 127 132
f 132 55 131
f 131 55 54
f 54 55 39
f 54 39 58
f 58 39 40
f 58 40 59
f 40 62 59
f 128 59 62
f 128 62 114
f 114 62 61
f 114 61 60
f 114 60 115
f 115 60 10
f 115 122 114
f 114 122 123
f 11 60 61
f 11 61 40
f 114 123 128
f 128 123 124
f 128 124 129
f 129 59 128
f 40 61 62
f 129 58 59
f 130 58 129
f 129 125 130
f 130 54 58
f 39 55 56
f 39 56 38
f 38 56 57
f 132 57 56
f 131 54 130
f 130 126 131
f 132 56 55
f 131 126 127
f 53 57 132
f 104 106 143
f 38 57 53
f 50 37 36
f 47 37 50
f 37 47 48
f 47 147 48
f 47 146 147
f 146 141 147
f 147 141 142
f 147 142 148
f 142 150 148
f 148 150 151
f 152 151 150
f 152 150 153
f 153 150 149
f 153 149 76
f 75 153 76
f 156 153 75
f 74 156 75
f 74 75 65
f 65 73 74
f 73 159 74
f 162 159 73
f 162 158 159
f 161 158 162
f 161 162 169
f 162 84 169
f 169 84 83
f 169 83 173
f 173 83 86
f 173 86 174
f 179 173 174
f 179 174 180
f 171 179 180
f 172 179 171
f 172 170 179
f 160 170 172
f 160 161 170
f 160 157 161
f 160 41 157
f 33 41 160
f 41 33 32
f 31 32 33
f 31 28 32
f 26 28 31
f 26 27 28
f 171 27 26
f 185 27 171
f 185 29 27
f 28 27 29
f 28 29 19
f 19 29 30
f 186 30 29
f 19 30 20
f 19 20 21
f 171 26 31
f 172 31 33
f 41 32 42
f 42 32 35
f 42 35 43
f 35 46 43
f 43 46 103
f 154 43 103
f 154 103 155
f 155 103 152
f 155 152 156
f 159 155 156
f 158 154 155
f 157 154 158
f 157 42 154
f 46 45 103
f 103 45 151
f 44 151 45
f 34 44 45
f 34 45 35
f 34 49 44
f 49 148 44
f 48 148 49
f 34 48 49
f 35 45 46
f 42 43 154
f 41 42 157
f 172 33 160
f 171 31 172
f 170 173 179
f 174 86 89
f 85 89 86
f 85 88 89
f 174 89 175
f 83 85 86
f 170 169 173
f 83 84 85
f 84 64 85
f 85 64 93
f 85 93 94
f 93 216 94
f 216 213 94
f 94 213 95
f 213 210 95
f 95 210 96
f 85 95 96
f 85 96 97
f 96 206 97
f 194 97 206
f 98 97 194
f 193 98 194
f 198 193 194
f 198 194 199
f 193 99 98
f 85 98 99
f 85 99 100
f 192 100 99
f 191 100 192
f 196 191 192
f 196 192 197
f 197 192 193
f 192 99 193
f 194 206 199
f 199 206 207
f 210 207 206
f 209 207 210
f 209 208 207
f 199 207 205
f 204 199 205
f 97 98 85
f 210 206 96
f 213 209 210
f 212 209 213
f 212 163 209
f 216 212 213
f 215 212 216
f 109 215 216
f 110 215 109
f 215 211 212
f 214 211 215
f 109 216 93
f 94 95 85
f 109 93 64
f 109 64 111
f 111 64 63
f 63 64 65
f 65 72 63
f 84 65 64
f 161 169 170
f 161 157 158
f 158 155 159
f 162 73 84
f 73 65 84
f 159 156 74
f 65 75 76
f 65 76 77
f 77 78 65
f 78 77 137
f 136 78 137
f 141 136 137
f 137 77 149
f 137 149 142
f 76 149 77
f 156 152 153
f 103 151 152
f 148 151 44
f 142 149 150
f 141 137 142
f 146 140 141
f 145 140 146
f 48 147 148
f 37 48 34
f 50 146 47
f 50 145 146
f 52 144 51
f 143 138 144
f 138 133 134
f 133 81 134
f 145 139 140
f 140 136 141
f 136 79 78
f 134 80 135
f 65 78 79
f 134 81 80
f 133 82 81
f 108 66 82
f 107 66 108
f 121 107 127
f 67 68 65
f 65 68 69
f 65 69 70
f 120 69 68
f 126 121 127
f 130 125 126
f 119 69 120
f 129 124 125
f 123 118 124
f 119 70 69
f 70 71 65
f 123 117 118
f 65 71 72
f 116 63 72
f 122 117 123
f 115 113 122
f 111 63 116
f 110 109 111
f 112 113 115
f 110 214 215
f 115 10 112
f 10 60 11
f 12 13 214
f 214 13 211
f 211 163 212
f 7 8 9
f 9 14 7
f 163 208 209
f 9 5 14
f 6 5 9
f 205 207 208
f 4 5 6
f 15 17 6
f 15 16 17
f 18 204 205
f 204 198 199
f 197 193 198
f 16 203 17
f 2 16 15
f 202 196 197
f 195 191 196
f 191 101 100
f 168 102 190
f 100 101 85
f 168 90 102
f 167 91 90
f 92 91 178
f 177 92 178
f 182 176 177
f 87 88 85
f 175 89 88
f 180 174 175
f 171 180 185
f 186 29 185
f 181 176 182
f 187 30 186
f 182 177 183
f 188 183 184
f 187 20 30
f 21 20 22
f 188 184 189
f 22 23 21
f 21 23 24
f 189 164 25
f 21 24 3
f 25 200 1
f 1 201 2
f 3 2 15

