# https://github.com/mikedh/trimesh
v 0.00253363 0.09676462 0.14118184
v 0.00253564 0.08619534 0.14118165
v 0.00250398 0.09676569 0.14088513
v 0.00242145 0.08619533 0.14060761
v 0.00244912 0.09676745 0.14068551
v 0.00241943 0.09676837 0.14060782
v 0.00232296 0.09677132 0.14041531
v 0.00209628 0.08619528 0.14012098
v 0.00220519 0.09677485 0.14024515
v 0.00156192 0.09679309 0.13977797
v 0.00182925 0.09678569 0.13991025
v 0.00160964 0.08619519 0.13979584
v 0.00199671 0.09678093 0.14003189
v 0.00209427 0.09677810 0.14012119
v 0.00136348 0.09679842 0.13971858
v 0.00103562 0.08619509 0.13968167
v 0.00106744 0.09680614 0.13968225
v 0.00086037 0.09681135 0.13969190
v 0.00046159 0.08619498 0.13979585
v 0.00056901 0.09681845 0.13975564
v -0.00003273 0.09683213 0.14012691
v 0.00012294 0.09682873 0.13998994
v -0.00002504 0.08619487 0.14012101
v 0.00037674 0.09682297 0.13983335
v 0.00045957 0.09682104 0.13979605
v -0.00022035 0.09683610 0.14035872
v -0.00035019 0.08619481 0.14060766
v -0.00032184 0.09683816 0.14053942
v -0.00046639 0.09684089 0.14118189
v -0.00045809 0.09684078 0.14102426
v -0.00046436 0.08619478 0.14118168
v -0.00042215 0.09684013 0.14082026
v -0.00035222 0.09683876 0.14060786
v -0.00035017 0.08619478 0.14175572
v -0.00002501 0.08619484 0.14224234
v 0.00046163 0.08619493 0.14256749
v 0.00103566 0.08619503 0.14268166
v 0.00160968 0.08619514 0.14256747
v 0.00209631 0.08619524 0.14224231
v 0.00242147 0.08619531 0.14175567
v -0.00043674 0.09684019 0.14147863
v -0.00038186 0.09683899 0.14167830
v -0.00002703 0.09683118 0.14224254
v -0.00013783 0.09683366 0.14211874
v -0.00025567 0.09683625 0.14194851
v -0.00035220 0.09683835 0.14175591
v 0.00023820 0.09682508 0.14245361
v 0.00007068 0.09682895 0.14233197
v 0.00120693 0.09680101 0.14267182
v 0.00099997 0.09680637 0.14268148
v 0.00070393 0.09681384 0.14264518
v 0.00050554 0.09681871 0.14258583
v 0.00210001 0.09677666 0.14223677
v 0.00194431 0.09678102 0.14237377
v 0.00169050 0.09678803 0.14253038
v 0.00160767 0.09679030 0.14256768
v 0.00149830 0.09679326 0.14260808
v 0.00248941 0.09676570 0.14154336
v 0.00241945 0.09676764 0.14175586
v 0.00238915 0.09676849 0.14182417
v 0.00228761 0.09677136 0.14200498
v 0.00252534 0.09676476 0.14133929
v 0.00242885 0.09686469 0.14132884
v 0.00243659 0.09686455 0.14118192
v 0.00103638 0.09690449 0.14118192
v -0.00035617 0.09694077 0.14103484
v -0.00036392 0.09694088 0.14118192
v 0.00106792 0.09690610 0.13978250
v 0.00087461 0.09691132 0.13979152
v 0.00060263 0.09691842 0.13985099
v 0.00042315 0.09692294 0.13992351
v 0.00018622 0.09692871 0.14006966
v 0.00004091 0.09693211 0.14019747
v -0.00013424 0.09693608 0.14041379
v -0.00022899 0.09693815 0.14058241
v -0.00032262 0.09694012 0.14084448
v 0.00223993 0.09687126 0.14046660
v 0.00212999 0.09687479 0.14030780
v 0.00193539 0.09688087 0.14010878
v 0.00177906 0.09688563 0.13999529
v 0.00240891 0.09686563 0.14090504
v 0.00235770 0.09686738 0.14071874
v 0.00152952 0.09689303 0.13987184
v 0.00134427 0.09689838 0.13981642
v 0.00102181 0.09690500 0.14193091
v 0.00230173 0.09686843 0.14178132
v 0.00239532 0.09686563 0.14151926
v 0.00119816 0.09690097 0.14257231
v 0.00147015 0.09689321 0.14251283
v 0.00164957 0.09688799 0.14244033
v 0.00188649 0.09688097 0.14229420
v 0.00203183 0.09687661 0.14216635
v 0.00220695 0.09687130 0.14195004
v 0.00054341 0.09691868 0.14249206
v 0.00072861 0.09691381 0.14254744
v 0.00100497 0.09690634 0.14258133
v -0.00005719 0.09693364 0.14205615
v 0.00013746 0.09692894 0.14225514
v 0.00029385 0.09692505 0.14236864
v -0.00033624 0.09694017 0.14145882
v -0.00028500 0.09693898 0.14164515
v -0.00016720 0.09693624 0.14189729
v -0.00024871 0.09687503 0.14194492
v 0.00149695 0.09683134 0.14260058
v 0.00149114 0.09686368 0.14257987
v 0.00120551 0.09687164 0.14264254
v 0.00148173 0.09688540 0.14254907
v 0.00120236 0.09689332 0.14261030
v 0.00247393 0.09685611 0.14118190
v 0.00250537 0.09683426 0.14118189
v 0.00246600 0.09685626 0.14133278
v 0.00252629 0.09680219 0.14118187
v 0.00249726 0.09683441 0.14133614
v 0.00248235 0.09680329 0.14154133
v 0.00251806 0.09680234 0.14133842
v 0.00243158 0.09685722 0.14152834
v 0.00233552 0.09686008 0.14179745
v 0.00223823 0.09686302 0.14197074
v 0.00205847 0.09686843 0.14219294
v 0.00190926 0.09687289 0.14232431
v 0.00166599 0.09688006 0.14247452
v 0.00246208 0.09683537 0.14153607
v 0.00236390 0.09683824 0.14181121
v 0.00226447 0.09684119 0.14198840
v 0.00208072 0.09684663 0.14221561
v 0.00192820 0.09685112 0.14234996
v 0.00167951 0.09685832 0.14250359
v 0.00238270 0.09680614 0.14182058
v 0.00228178 0.09680906 0.14200041
v 0.00209529 0.09681445 0.14223097
v 0.00194049 0.09681889 0.14236730
v 0.00168811 0.09682603 0.14252320
v 0.00100390 0.09689879 0.14261965
v 0.00071995 0.09690642 0.14258496
v 0.00052965 0.09691139 0.14252813
v 0.00027318 0.09691789 0.14240141
v 0.00011244 0.09692184 0.14228483
v 0.00100258 0.09687714 0.14265217
v 0.00071222 0.09688481 0.14261675
v 0.00051760 0.09688979 0.14255866
v 0.00025531 0.09689632 0.14242911
v 0.00009091 0.09690028 0.14230990
v 0.00120711 0.09683923 0.14266415
v 0.00100120 0.09684468 0.14267388
v 0.00070659 0.09685228 0.14263791
v 0.00050913 0.09685722 0.14257894
v 0.00024301 0.09686369 0.14244746
v 0.00007623 0.09686763 0.14232647
v -0.00008763 0.09692663 0.14208037
v -0.00011372 0.09690510 0.14210083
v -0.00013137 0.09687240 0.14211431
v -0.00022939 0.09690775 0.14193387
v -0.00020072 0.09692927 0.14191712
v -0.00037437 0.09687781 0.14167598
v -0.00035325 0.09691055 0.14166884
v -0.00032182 0.09693206 0.14165799
v -0.00042902 0.09687902 0.14147726
v -0.00040712 0.09691177 0.14147300
v -0.00037449 0.09693328 0.14146651
v -0.00045854 0.09687974 0.14118190
v -0.00043623 0.09691248 0.14118192
v -0.00040294 0.09693399 0.14118192
v 0.00231693 0.09680902 0.14041962
v 0.00057229 0.09685696 0.13976267
v 0.00057984 0.09688953 0.13978331
v 0.00086564 0.09688225 0.13972099
v 0.00059051 0.09691112 0.13981435
v 0.00086998 0.09690388 0.13975336
v -0.00039498 0.09693388 0.14103076
v -0.00042808 0.09691237 0.14102730
v -0.00041450 0.09687896 0.14082196
v -0.00045028 0.09687962 0.14102502
v -0.00036049 0.09693321 0.14083511
v -0.00026424 0.09693122 0.14056577
v -0.00016685 0.09692912 0.14039248
v 0.00001319 0.09692508 0.14017022
v 0.00016256 0.09692161 0.14003891
v 0.00040606 0.09691574 0.13988879
v -0.00039281 0.09691170 0.14082719
v -0.00029435 0.09690969 0.14055172
v -0.00019474 0.09690759 0.14037450
v -0.00001059 0.09690354 0.14014718
v 0.00014217 0.09690005 0.14001289
v 0.00039121 0.09689416 0.13985942
v -0.00031461 0.09687697 0.14054245
v -0.00021356 0.09687488 0.14036262
v -0.00002674 0.09687085 0.14013195
v 0.00012824 0.09686740 0.13999568
v 0.00038091 0.09686156 0.13983992
v 0.00106858 0.09689855 0.13974418
v 0.00135246 0.09689067 0.13977914
v 0.00154271 0.09688522 0.13983616
v 0.00179897 0.09687766 0.13996308
v 0.00195948 0.09687279 0.14007972
v 0.00106872 0.09687690 0.13971165
v 0.00135898 0.09686898 0.13974747
v 0.00155350 0.09686350 0.13980582
v 0.00181547 0.09685590 0.13993566
v 0.00197955 0.09685101 0.14005496
v 0.00086226 0.09684975 0.13969940
v 0.00106832 0.09684444 0.13968991
v 0.00136285 0.09683659 0.13972621
v 0.00156024 0.09683117 0.13978541
v 0.00182609 0.09682364 0.13991712
v 0.00199261 0.09681879 0.14003818
v 0.00215926 0.09686658 0.14028420
v 0.00218376 0.09684478 0.14026405
v 0.00219987 0.09681261 0.14025036
v 0.00229910 0.09684116 0.14043084
v 0.00227211 0.09686297 0.14044730
v 0.00244232 0.09680508 0.14068834
v 0.00242264 0.09683717 0.14069562
v 0.00239298 0.09685901 0.14070629
v 0.00249684 0.09680329 0.14088684
v 0.00247635 0.09683536 0.14089121
v 0.00244554 0.09685721 0.14089759
f 1 2 3
f 1 3 112
f 112 3 214
f 3 5 214
f 3 4 5
f 5 4 6
f 5 6 211
f 211 6 163
f 6 7 163
f 7 9 163
f 163 9 208
f 14 208 9
f 205 208 14
f 13 205 14
f 8 13 14
f 12 13 8
f 12 11 13
f 10 11 12
f 10 204 11
f 11 204 205
f 204 199 205
f 199 207 205
f 199 206 207
f 210 207 206
f 210 206 77
f 77 206 78
f 194 78 206
f 79 78 194
f 65 78 79
f 65 79 80
f 193 80 79
f 192 80 193
f 197 192 193
f 197 193 198
f 203 197 198
f 203 198 204
f 202 197 203
f 15 202 203
f 17 202 15
f 17 201 202
f 18 201 17
f 17 16 18
f 18 16 19
f 18 19 20
f 19 25 20
f 20 25 189
f 189 25 24
f 189 24 22
f 189 22 188
f 188 22 21
f 21 22 23
f 21 23 26
f 26 23 27
f 26 27 28
f 186 26 28
f 187 26 186
f 186 182 187
f 187 182 183
f 187 183 188
f 188 183 184
f 183 178 184
f 178 167 184
f 184 167 165
f 184 165 189
f 189 165 164
f 164 165 166
f 165 168 166
f 166 168 190
f 166 190 195
f 195 190 191
f 190 84 191
f 191 84 83
f 191 83 192
f 196 191 192
f 65 83 84
f 65 84 68
f 68 69 65
f 65 69 70
f 65 70 71
f 71 72 65
f 65 72 73
f 176 73 72
f 176 72 177
f 182 176 177
f 181 176 182
f 181 175 176
f 180 175 181
f 180 174 175
f 179 174 180
f 179 173 174
f 173 75 174
f 173 76 75
f 169 76 173
f 169 66 76
f 162 66 169
f 161 162 169
f 161 158 162
f 162 158 159
f 158 155 159
f 159 155 156
f 155 152 156
f 156 152 153
f 152 150 153
f 153 150 149
f 142 149 150
f 142 150 148
f 148 150 151
f 148 151 43
f 43 151 44
f 34 43 44
f 44 45 34
f 45 44 103
f 46 45 103
f 154 46 103
f 154 103 155
f 42 46 154
f 157 42 154
f 157 154 158
f 41 42 157
f 41 34 42
f 41 31 34
f 29 31 41
f 29 30 31
f 172 30 29
f 172 29 160
f 160 170 172
f 160 161 170
f 160 157 161
f 172 170 179
f 172 179 171
f 171 30 172
f 171 32 30
f 171 33 32
f 185 33 171
f 171 180 185
f 185 28 33
f 27 32 33
f 31 32 27
f 31 30 32
f 29 41 160
f 160 41 157
f 34 46 42
f 34 45 46
f 35 43 34
f 35 48 43
f 35 47 48
f 36 47 35
f 36 52 47
f 52 147 47
f 47 147 148
f 52 146 147
f 51 146 52
f 51 145 146
f 50 145 51
f 37 50 51
f 37 51 36
f 49 50 37
f 49 144 50
f 49 143 144
f 57 143 49
f 57 104 143
f 132 104 57
f 132 105 104
f 104 105 106
f 105 108 106
f 106 108 133
f 108 96 133
f 108 88 96
f 107 88 108
f 107 89 88
f 121 89 107
f 90 89 121
f 120 90 121
f 126 120 121
f 125 120 126
f 125 119 120
f 124 119 125
f 124 118 119
f 118 92 119
f 118 93 92
f 117 93 118
f 117 86 93
f 85 93 86
f 85 86 65
f 65 101 85
f 85 101 102
f 101 153 102
f 85 102 97
f 102 149 97
f 137 97 149
f 98 97 137
f 136 98 137
f 136 99 98
f 135 99 136
f 140 135 136
f 139 135 140
f 139 134 135
f 138 134 139
f 144 138 139
f 144 139 145
f 138 133 134
f 133 95 134
f 134 95 94
f 94 95 85
f 85 95 96
f 85 99 94
f 134 94 135
f 145 139 140
f 140 136 141
f 146 140 141
f 135 94 99
f 85 98 99
f 141 136 137
f 141 137 142
f 147 141 142
f 97 98 85
f 65 100 101
f 67 100 65
f 66 67 65
f 67 159 100
f 100 156 101
f 65 86 87
f 65 87 63
f 63 64 65
f 64 81 65
f 64 216 81
f 109 216 64
f 109 215 216
f 215 212 216
f 216 212 213
f 212 209 213
f 213 209 210
f 213 210 82
f 81 213 82
f 212 163 209
f 215 211 212
f 214 211 215
f 110 214 215
f 110 215 109
f 110 109 111
f 109 63 111
f 110 111 113
f 113 111 116
f 113 116 122
f 122 116 117
f 122 117 123
f 114 122 123
f 114 123 128
f 128 59 114
f 114 59 58
f 58 59 40
f 58 40 62
f 62 40 2
f 40 59 60
f 40 60 39
f 39 60 61
f 39 61 53
f 39 53 38
f 38 53 54
f 131 54 53
f 132 54 131
f 131 127 132
f 131 126 127
f 130 126 131
f 132 55 54
f 132 56 55
f 38 55 56
f 38 56 37
f 37 56 57
f 131 53 130
f 54 55 38
f 130 53 61
f 130 61 129
f 129 125 130
f 129 61 60
f 129 60 128
f 128 124 129
f 114 58 62
f 114 62 115
f 115 62 1
f 128 60 59
f 128 123 124
f 115 122 114
f 115 113 122
f 112 113 115
f 111 87 116
f 112 110 113
f 216 213 81
f 65 81 82
f 65 82 77
f 109 64 63
f 111 63 87
f 116 87 86
f 116 86 117
f 123 117 118
f 85 92 93
f 91 92 85
f 85 90 91
f 119 92 91
f 123 118 124
f 129 124 125
f 119 91 120
f 130 125 126
f 126 121 127
f 120 91 90
f 85 89 90
f 121 107 127
f 127 107 105
f 88 89 85
f 85 96 88
f 133 96 95
f 106 133 138
f 143 106 138
f 105 107 108
f 127 105 132
f 57 56 132
f 104 106 143
f 143 138 144
f 37 57 49
f 50 144 145
f 145 140 146
f 146 141 147
f 36 51 52
f 47 148 48
f 103 44 151
f 103 151 152
f 48 148 43
f 147 142 148
f 137 149 142
f 153 149 102
f 152 151 150
f 156 153 101
f 155 103 152
f 159 156 100
f 158 154 155
f 162 159 67
f 161 157 158
f 161 169 170
f 162 67 66
f 65 76 66
f 170 169 173
f 65 75 76
f 74 75 65
f 174 75 74
f 170 173 179
f 171 179 180
f 174 74 175
f 175 74 73
f 185 180 181
f 185 181 186
f 175 73 176
f 65 73 74
f 177 72 71
f 177 71 178
f 71 70 178
f 167 70 69
f 167 69 168
f 168 69 68
f 190 68 84
f 195 191 196
f 201 195 196
f 200 195 201
f 200 166 195
f 168 68 190
f 164 166 200
f 20 164 200
f 165 167 168
f 178 70 167
f 183 177 178
f 182 177 183
f 186 181 182
f 186 28 185
f 27 33 28
f 187 21 26
f 188 21 187
f 188 184 189
f 23 22 24
f 23 24 19
f 189 164 20
f 19 24 25
f 20 200 18
f 18 200 201
f 201 196 202
f 15 16 17
f 15 12 16
f 15 203 10
f 202 196 197
f 198 193 194
f 198 194 199
f 196 192 197
f 192 83 80
f 80 83 65
f 193 79 194
f 77 78 65
f 82 210 77
f 209 207 210
f 209 208 207
f 194 206 199
f 204 198 199
f 10 203 204
f 10 12 15
f 11 205 13
f 205 207 208
f 8 14 9
f 163 208 209
f 7 8 9
f 7 4 8
f 211 163 212
f 6 4 7
f 214 5 211
f 112 214 110
f 115 1 112
f 3 2 4
f 62 2 1

