# https://github.com/mikedh/trimesh
v 0.00997988 0.08619678 0.14032987
v 0.00952290 0.08619665 0.14269567
v 0.00994044 0.08619674 0.14211872
v 0.01014334 0.08619679 0.14143600
v 0.01010903 0.08619680 0.14072575
v 0.00852829 0.08619653 0.13904910
v 0.00937027 0.08619668 0.13953170
v 0.00984132 0.08619676 0.14006583
v 0.00862109 0.08619646 0.14326641
v 0.00936661 0.08619662 0.14283444
v 0.00884353 0.08929408 0.14321260
v 0.00914405 0.09353483 0.14313892
v 0.00937923 0.09352160 0.14298531
v 0.00989968 0.09349278 0.14243971
v 0.01021058 0.09347665 0.14175273
v 0.01027697 0.09347504 0.14100109
v 0.01009068 0.09348799 0.14026904
v 0.00966704 0.09351420 0.13963369
v 0.00905619 0.09355024 0.13917714
f 11 9 10
f 11 10 13
f 13 12 11
f 13 10 2
f 13 2 14
f 2 3 14
f 14 3 4
f 14 4 15
f 15 4 16
f 16 4 5
f 16 5 17
f 5 1 17
f 17 1 8
f 17 8 18
f 8 7 18
f 18 7 6
f 18 6 19

