# https://github.com/mikedh/trimesh
v 0.02847132 -0.09792491 0.18255445
v 0.02847135 -0.09800261 0.18405445
v 0.02847031 -0.09252154 0.18405455
v 0.02847018 -0.09175750 0.18561961
v 0.02846993 -0.09034820 0.18664286
v 0.02847029 -0.09252151 0.18255456
v 0.02846966 -0.08900057 0.18530463
v 0.02846984 -0.09000055 0.18503666
v 0.02846997 -0.09073260 0.18430459
v 0.02847001 -0.09100050 0.18330459
v 0.02847012 -0.09175741 0.18098955
v 0.02846994 -0.09073257 0.18230459
v 0.02846983 -0.09034807 0.17996636
v 0.02846979 -0.09000049 0.18157256
v 0.02846950 -0.08862337 0.17972444
v 0.02846960 -0.08900049 0.18130463
v 0.02846920 -0.08698694 0.18032041
v 0.02846941 -0.08800048 0.18157260
v 0.02846900 -0.08582176 0.18161483
v 0.02846928 -0.08726846 0.18230467
v 0.02846894 -0.08540053 0.18330470
v 0.02846925 -0.08700053 0.18330467
v 0.02846905 -0.08582181 0.18499456
v 0.02846931 -0.08726850 0.18430467
v 0.02846929 -0.08698706 0.18628891
v 0.02846946 -0.08800055 0.18503670
v 0.02846961 -0.08862351 0.18688484
f 4 5 3
f 3 5 6
f 3 6 2
f 2 6 1
f 5 9 6
f 6 9 10
f 6 10 11
f 11 10 12
f 11 12 13
f 13 12 14
f 13 14 15
f 15 14 16
f 15 16 17
f 17 16 18
f 17 18 19
f 19 18 20
f 19 20 21
f 21 20 22
f 21 22 23
f 23 22 24
f 23 24 25
f 25 24 26
f 25 26 27
f 27 26 7
f 27 7 5
f 7 8 5
f 5 8 9

