# https://github.com/mikedh/trimesh
v 0.01599958 0.00550222 0.04345986
v 0.01600168 -0.00549778 0.04345965
v -0.01599832 -0.00550387 0.04346013
v -0.01600042 0.00549613 0.04346034
v 0.01549949 0.00600213 0.04345989
v 0.01550178 -0.00599787 0.04345966
v 0.00300177 -0.00600025 0.04345984
v -0.01550051 0.00599622 0.04346033
v -0.00600051 0.00599803 0.04346022
v 0.00299949 0.00599975 0.04346006
v 0.00184441 0.00799953 0.04346014
v -0.00484619 0.00799825 0.04346022
v -0.01549822 -0.00600378 0.04346010
v -0.00599822 -0.00600197 0.04345999
v 0.00184746 -0.00800047 0.04345983
v -0.00484314 -0.00800175 0.04345991
v -0.00939937 -0.00000261 0.04346012
v 0.00940064 0.00000097 0.04345987
v 0.01200113 -0.00259854 0.04345978
v 0.01070106 -0.00225045 0.04345979
v 0.00974922 -0.00129897 0.04345985
v 0.00974872 0.00130103 0.04345990
v 0.01070020 0.00225288 0.04345987
v 0.01200014 0.00260146 0.04345988
v 0.01330020 0.00225338 0.04345984
v -0.01329979 0.00224831 0.04346024
v -0.01199986 0.00259689 0.04346021
v -0.01069979 0.00224880 0.04346020
v -0.00974795 0.00129732 0.04346018
v -0.01199887 -0.00260311 0.04346012
v -0.01329894 -0.00225502 0.04346016
v 0.01425205 0.00130189 0.04345981
v 0.01460063 0.00000196 0.04345979
v 0.01425255 -0.00129811 0.04345976
v 0.01330106 -0.00224996 0.04345975
v -0.01069893 -0.00225453 0.04346012
v -0.00974745 -0.00130268 0.04346013
v -0.01425078 -0.00130354 0.04346018
v -0.01459937 -0.00000360 0.04346020
v -0.01425128 0.00129646 0.04346023
f 3 13 14
f 36 3 14
f 30 3 36
f 3 30 31
f 31 38 3
f 3 38 39
f 3 39 4
f 40 4 39
f 26 4 40
f 26 8 4
f 9 8 26
f 26 27 9
f 9 27 28
f 9 28 10
f 10 12 9
f 11 12 10
f 10 28 29
f 10 29 17
f 10 17 18
f 17 21 18
f 17 7 21
f 37 7 17
f 37 14 7
f 14 15 7
f 16 15 14
f 7 20 21
f 7 19 20
f 6 19 7
f 6 35 19
f 6 34 35
f 2 34 6
f 2 33 34
f 1 33 2
f 1 32 33
f 25 32 1
f 5 25 1
f 5 24 25
f 23 24 5
f 10 23 5
f 10 22 23
f 18 22 10
f 36 14 37

