# https://github.com/mikedh/trimesh
v -0.00301023 0.07499117 0.27842167
v -0.00301006 0.07404823 0.27785039
v -0.00300946 0.07094918 0.27846080
v -0.00300932 0.07029333 0.27934700
v -0.00301039 0.07597603 0.28035244
v -0.00301034 0.07566406 0.27929500
v -0.00300925 0.07000190 0.28041029
v -0.00301038 0.07598139 0.28090602
v -0.00301035 0.07588494 0.28145117
v -0.00301025 0.07540309 0.28244281
v -0.00300964 0.07188088 0.27787137
v -0.00300985 0.07296260 0.27765828
v -0.00300925 0.07011425 0.28150705
v -0.00300933 0.07061521 0.28248915
v -0.00300948 0.07143712 0.28322399
v -0.00300967 0.07246897 0.28361228
v -0.00300988 0.07357142 0.28360161
v -0.00301008 0.07459556 0.28319341
v -0.00800925 0.07000095 0.28041035
v -0.00800932 0.07029238 0.27934709
v -0.00800946 0.07094824 0.27846089
v -0.00800964 0.07187993 0.27787143
v -0.00801005 0.07404728 0.27785045
v -0.00801023 0.07499022 0.27842173
v -0.00801034 0.07566310 0.27929509
v -0.00800933 0.07061426 0.28248924
v -0.00800925 0.07011330 0.28150710
v -0.00800985 0.07296164 0.27765837
v -0.00801039 0.07597508 0.28035250
v -0.00801025 0.07540213 0.28244287
v -0.00801008 0.07459461 0.28319347
v -0.00801035 0.07588398 0.28145126
v -0.00801038 0.07598043 0.28090611
v -0.00800967 0.07246802 0.28361234
v -0.00800988 0.07357047 0.28360167
v -0.00800948 0.07143617 0.28322405
f 7 19 13
f 7 20 19
f 4 20 7
f 4 21 20
f 3 21 4
f 3 22 21
f 11 22 3
f 11 28 22
f 12 28 11
f 12 23 28
f 2 23 12
f 2 24 23
f 1 24 2
f 1 25 24
f 6 25 1
f 6 29 25
f 5 29 6
f 5 33 29
f 8 33 5
f 8 32 33
f 9 32 8
f 9 30 32
f 10 30 9
f 10 31 30
f 18 31 10
f 18 35 31
f 17 35 18
f 17 34 35
f 16 34 17
f 16 36 34
f 15 36 16
f 15 26 36
f 14 26 15
f 14 27 26
f 13 27 14
f 13 19 27

