# https://github.com/mikedh/trimesh
v -0.01018059 -0.00105266 0.03800013
v -0.00989945 -0.00000261 0.03800014
v -0.01094910 -0.00182146 0.03800013
v -0.01304910 -0.00182186 0.03800016
v -0.01381790 -0.00105335 0.03800018
v -0.01304979 0.00181545 0.03800023
v -0.01381830 0.00104665 0.03800022
v -0.01018099 0.00104734 0.03800017
v -0.01199905 -0.00210301 0.03800014
v -0.01409945 -0.00000341 0.03800021
v -0.01199985 0.00209699 0.03800021
v -0.01094979 0.00181585 0.03800020
v -0.01304941 -0.00182146 0.01687894
v -0.01199935 -0.00210261 0.01687892
v -0.01018090 -0.00105226 0.01687891
v -0.01094941 -0.00182106 0.01687891
v -0.01305010 0.00181585 0.01687901
v -0.01381861 0.00104705 0.01687901
v -0.01409975 -0.00000301 0.01687899
v -0.01381821 -0.00105295 0.01687897
v -0.00989975 -0.00000221 0.01687893
v -0.01018130 0.00104774 0.01687895
v -0.01095010 0.00181625 0.01687898
v -0.01200015 0.00209739 0.01687900
f 24 11 17
f 24 12 11
f 23 12 24
f 23 8 12
f 22 8 23
f 22 2 8
f 21 2 22
f 21 1 2
f 15 1 21
f 15 3 1
f 16 3 15
f 16 9 3
f 14 9 16
f 14 4 9
f 13 4 14
f 13 5 4
f 20 5 13
f 20 10 5
f 19 10 20
f 19 7 10
f 18 7 19
f 18 6 7
f 17 6 18
f 17 11 6

