# https://github.com/mikedh/trimesh
v 0.01553139 0.08619786 0.13904315
v 0.02154552 0.08619901 0.13903804
v 0.01612134 0.09315768 0.14315157
v 0.01636712 0.09314848 0.14299423
v 0.01752768 0.09310663 0.14315368
v 0.01689165 0.09313132 0.14245151
v 0.01720720 0.09312384 0.14176561
v 0.01986987 0.09307666 0.14056697
v 0.01978849 0.09307306 0.14131783
v 0.02095805 0.09306534 0.14315738
v 0.02036525 0.09306435 0.14269032
v 0.01996032 0.09306825 0.14205347
v 0.02104747 0.09308818 0.13915884
v 0.02072798 0.09308413 0.13934970
v 0.01955082 0.09308645 0.13916010
v 0.02019530 0.09307948 0.13988520
v 0.01727803 0.09312526 0.14101380
v 0.01709585 0.09313493 0.14028051
v 0.01666171 0.09315347 0.13962789
v 0.01603238 0.09318019 0.13916473
f 3 4 5
f 5 4 6
f 5 6 7
f 11 5 7
f 11 7 12
f 12 7 9
f 8 9 7
f 7 17 8
f 8 17 18
f 8 18 15
f 15 18 19
f 15 19 20
f 15 16 8
f 15 14 16
f 13 14 15
f 10 5 11
f 20 1 15
f 15 1 2
f 15 2 13

