# https://github.com/mikedh/trimesh
v -0.02158169 0.05198973 0.19485036
v -0.02098998 0.05198981 0.19658345
v -0.02278199 0.05198953 0.19351007
v -0.01704302 0.05199053 0.19837788
v -0.02112002 0.05198975 0.19837794
v -0.02164694 0.05198978 0.19154404
v -0.01704312 0.05199066 0.19154398
v -0.02086105 0.09184975 0.19816998
v -0.02079042 0.09187289 0.19655785
v -0.01907389 0.09239337 0.19816712
v -0.01726480 0.09285886 0.19816467
v -0.01726489 0.09285898 0.19175874
v -0.02101007 0.09180062 0.19561458
v -0.02141016 0.09166558 0.19474582
v -0.02252178 0.09126712 0.19345847
v -0.02202931 0.09144793 0.19260730
v -0.01941577 0.09229606 0.19175582
v -0.02153468 0.09162273 0.19175231
v -0.02098857 0.07191974 0.19827396
v -0.02265145 0.07162832 0.19348352
f 8 9 10
f 10 9 11
f 11 9 12
f 12 9 13
f 12 13 14
f 14 15 12
f 14 20 15
f 14 1 20
f 1 3 20
f 20 3 6
f 16 20 6
f 16 6 18
f 18 6 17
f 17 6 7
f 17 7 12
f 17 16 18
f 12 16 17
f 15 20 16
f 12 15 16
f 13 1 14
f 13 2 1
f 9 2 13
f 9 19 2
f 19 5 2
f 8 19 9
f 10 11 4
f 19 10 4
f 19 4 5
f 8 10 19

