# https://github.com/mikedh/trimesh
v -0.02025504 0.08919349 0.14161859
v -0.02021533 0.09149350 0.14165878
v -0.02025506 0.08919351 0.14069884
v -0.02021535 0.09149352 0.14065872
v -0.02029310 0.08699358 0.13631113
v -0.02029311 0.08699360 0.13541816
v -0.02031021 0.08599339 0.14693192
v -0.02031030 0.08599349 0.14115866
v -0.02031038 0.08599360 0.13538538
v -0.02021527 0.09149342 0.14589980
v -0.02029296 0.08699340 0.14600621
v -0.02021541 0.09149360 0.13641770
v -0.02029295 0.08699339 0.14689919
f 12 4 5
f 5 4 3
f 9 5 3
f 6 5 9
f 9 3 8
f 8 3 1
f 8 1 7
f 7 1 11
f 1 10 11
f 2 10 1
f 7 11 13

