# https://github.com/mikedh/trimesh
v -0.02350703 0.05198932 0.19715805
v -0.02377497 0.05198925 0.19815806
v -0.02450700 0.05198910 0.19889012
v -0.02550700 0.05198890 0.19915809
v -0.02650701 0.05198872 0.19889015
v -0.02723907 0.05198859 0.19815812
v -0.02750703 0.05198856 0.19715811
v 0.04198935 0.05200393 0.08450849
v 0.04211711 0.05200392 0.08640390
v 0.04303818 0.05200406 0.08811748
v 0.04459097 0.05200434 0.08928948
v 0.04649140 0.05200469 0.08970550
v -0.02750866 0.05199068 0.08515812
v -0.02724070 0.05199071 0.08615811
v -0.02350866 0.05199144 0.08515806
v -0.02377660 0.05199137 0.08615806
v -0.02450864 0.05199122 0.08689012
v -0.02550863 0.05199102 0.08715808
v -0.02650864 0.05199084 0.08689015
v -0.02550860 0.05199097 0.08971038
v -0.02615727 0.05199085 0.08966394
v 0.04849134 0.05200516 0.08515701
v 0.04822340 0.05200509 0.08615701
v 0.04749136 0.05200493 0.08688907
v 0.04649136 0.05200474 0.08715703
v 0.04549136 0.05200455 0.08688910
v 0.04475930 0.05200443 0.08615706
v 0.04449134 0.05200439 0.08515707
v 0.04849297 0.05200304 0.19715701
v 0.04822503 0.05200297 0.19815701
v 0.04749300 0.05200281 0.19888908
v 0.04649300 0.05200262 0.19915703
v 0.04549300 0.05200243 0.19888911
v 0.04476094 0.05200231 0.19815706
v 0.04449297 0.05200227 0.19715707
v 0.04714156 0.05200286 0.19264971
v 0.04497899 0.05200245 0.19286233
v -0.02399117 0.05198931 0.19286437
v -0.02615579 0.05198890 0.19265109
v -0.02672702 0.05198881 0.19155298
v -0.02672717 0.05198901 0.18125811
v -0.02672162 0.05308901 0.18125813
v -0.02672702 0.05198880 0.19215621
v -0.02550872 0.05199113 0.08115809
v -0.02689319 0.05199087 0.08140534
v -0.02833713 0.05199058 0.08232970
v -0.02926145 0.05199037 0.08377367
v -0.02950866 0.05199030 0.08515815
v 0.05049134 0.05200554 0.08515698
v 0.05024408 0.05200552 0.08377251
v 0.04931972 0.05200537 0.08232857
v 0.04787575 0.05200511 0.08140425
v 0.04649128 0.05200485 0.08115704
v 0.05049297 0.05200342 0.19715698
v 0.05049291 0.05200349 0.19335885
v 0.05049289 0.05200352 0.19155186
v 0.05049213 0.05200451 0.13934998
v 0.04787749 0.05200285 0.20090978
v 0.04649303 0.05200258 0.20115703
v 0.04932144 0.05200314 0.19998543
v 0.05024575 0.05200334 0.19854145
v -0.02950703 0.05198818 0.19715814
v -0.02925978 0.05198820 0.19854261
v -0.02833542 0.05198835 0.19998656
v -0.02689144 0.05198861 0.20091087
v -0.02550697 0.05198886 0.20115809
v -0.02950708 0.05198825 0.19336002
v -0.02950787 0.05198927 0.13935114
v -0.02950711 0.05198829 0.19155303
v -0.02248991 0.05198964 0.19026403
v 0.04347695 0.05200221 0.19026081
v 0.03665671 0.05200077 0.19787711
v 0.03665664 0.05200085 0.19335906
v 0.03665661 0.05200089 0.19155206
v 0.03665660 0.05200091 0.19026090
v 0.03605451 0.05200276 0.08647034
v 0.03605447 0.05200281 0.08393727
v -0.01567300 0.05199080 0.19787787
v -0.01567307 0.05199089 0.19335982
v -0.01567309 0.05199092 0.19155282
v -0.01567311 0.05199094 0.19026393
v 0.03495453 0.05200252 0.08805721
v 0.03844610 0.05200319 0.08805715
v 0.03495451 0.05200255 0.08647036
v -0.01744804 0.05199254 0.08805797
v -0.01397178 0.05199320 0.08805792
v -0.01397180 0.05199323 0.08647107
v -0.01507180 0.05199302 0.08647109
v -0.01507184 0.05199307 0.08393802
v -0.00960868 0.05199411 0.08393794
v -0.00960889 0.05309411 0.08394372
v 0.03059111 0.05310177 0.08394314
v 0.03059132 0.05200177 0.08393735
v 0.04412150 0.05200440 0.08115707
v 0.01050015 0.05199800 0.08115757
v -0.02314617 0.05199159 0.08115806
v -0.00960722 0.05309195 0.19837202
v -0.00960701 0.05199195 0.19837777
v -0.01517300 0.05199089 0.19837785
v 0.03615672 0.05200066 0.19837710
v 0.03059299 0.05199960 0.19837718
v 0.03059278 0.05309960 0.19837144
v -0.02314442 0.05198931 0.20115805
v 0.01050190 0.05199572 0.20115755
v 0.04412325 0.05200213 0.20115706
v -0.02780843 0.05199032 0.10105812
v -0.02780864 0.05309032 0.10105814
v -0.02780787 0.05198960 0.13935113
v -0.02780747 0.05308880 0.18125814
v -0.02780726 0.05198880 0.18125813
v 0.03059130 0.05200179 0.08285727
v 0.03059109 0.05310179 0.08285729
v 0.01050017 0.05199796 0.08285756
v -0.00960891 0.05309413 0.08285788
v -0.00960870 0.05199413 0.08285785
v 0.04879274 0.05200339 0.18125701
v 0.04879253 0.05310339 0.18125702
v 0.04879213 0.05200419 0.13935001
v 0.04879136 0.05310491 0.10105702
v 0.04879157 0.05200491 0.10105700
v -0.00960700 0.05199192 0.19945785
v -0.00960721 0.05309192 0.19945787
v 0.01050187 0.05199575 0.19945756
v 0.03059279 0.05309958 0.19945729
v 0.03059300 0.05199958 0.19945727
v -0.02672834 0.05199053 0.10105810
v -0.02672279 0.05309053 0.10105813
v -0.02765843 0.05199035 0.10105812
v 0.04770664 0.05310319 0.18125704
v 0.04771261 0.05200319 0.18125702
v 0.04770548 0.05310471 0.10105704
v 0.04771144 0.05200471 0.10105702
v -0.02765726 0.05198883 0.18125811
v -0.00960869 0.05199413 0.08300786
v 0.03059130 0.05200179 0.08300727
v 0.03742820 0.05200303 0.08647033
v 0.03844608 0.05200322 0.08647031
v -0.02672850 0.05199073 0.09015884
v -0.02765711 0.05198864 0.19155300
v -0.02158169 0.05198973 0.19485036
v -0.02098998 0.05198981 0.19658345
v -0.02278199 0.05198953 0.19351007
v -0.01560601 0.05199081 0.19812787
v -0.01552655 0.05199082 0.19823141
v -0.01704302 0.05199053 0.19837788
v -0.01542300 0.05199084 0.19831087
v -0.02112002 0.05198975 0.19837794
v -0.02314456 0.05198950 0.19155294
v -0.02314454 0.05198946 0.19335993
v -0.02765709 0.05198860 0.19336000
v -0.02633678 0.05198887 0.19264400
v -0.02669883 0.05198880 0.19232172
v -0.02661745 0.05198882 0.19246855
v -0.02655442 0.05198883 0.19253410
v -0.02649205 0.05198884 0.19258018
v -0.02377663 0.05199141 0.08415806
v -0.02314615 0.05199155 0.08300805
v -0.02205267 0.05199166 0.08812112
v -0.02724073 0.05199075 0.08415812
v -0.02765870 0.05199069 0.08300812
v -0.02450869 0.05199128 0.08342602
v -0.02550869 0.05199110 0.08315809
v -0.02650869 0.05199090 0.08342605
v -0.02632510 0.05199082 0.08966825
v -0.02648204 0.05199079 0.08972789
v -0.02669569 0.05199074 0.08998069
v -0.02360668 0.05199134 0.08929401
v -0.02655591 0.05199077 0.08978093
v -0.02661040 0.05199076 0.08983609
v -0.01744806 0.05199257 0.08647113
v -0.01644549 0.05199276 0.08647111
v -0.02099574 0.05199194 0.08432834
v -0.02100283 0.05199193 0.08450934
v -0.02067345 0.05199200 0.08396628
v -0.02082029 0.05199198 0.08404767
v -0.02113082 0.05199187 0.08640624
v -0.01644552 0.05199281 0.08393804
v -0.02050795 0.05199204 0.08393810
v -0.02088584 0.05199196 0.08411071
v -0.02093191 0.05199195 0.08417307
v 0.04412153 0.05200436 0.08300707
v 0.04198505 0.05200393 0.08434065
v 0.04192545 0.05200392 0.08418371
v 0.04167266 0.05200388 0.08397003
v 0.04149446 0.05200385 0.08393720
v 0.03742816 0.05200307 0.08393726
v 0.04187238 0.05200392 0.08410981
v 0.04181724 0.05200391 0.08405534
v 0.04771128 0.05200491 0.09015388
v 0.04768309 0.05200491 0.08998838
v 0.04822337 0.05200512 0.08415701
v 0.04549131 0.05200462 0.08342500
v 0.04649131 0.05200481 0.08315704
v 0.04749131 0.05200500 0.08342497
v 0.04760171 0.05200490 0.08984154
v 0.04753866 0.05200489 0.08977596
v 0.04747631 0.05200488 0.08972991
v 0.04732104 0.05200485 0.08966609
v 0.04713999 0.05200481 0.08965901
v 0.04475927 0.05200446 0.08415706
v 0.04771276 0.05200299 0.19155189
v 0.04730939 0.05200290 0.19264539
v 0.04746633 0.05200293 0.19258575
v 0.04767997 0.05200297 0.19233292
v 0.04771277 0.05200298 0.19215481
v 0.04754018 0.05200294 0.19253270
v 0.04759468 0.05200295 0.19247752
v 0.04412314 0.05200227 0.19335894
v 0.04412311 0.05200231 0.19155195
v 0.04210568 0.05200180 0.19837701
v 0.04197487 0.05200180 0.19658831
v 0.03804674 0.05200102 0.19837707
v 0.03640671 0.05200071 0.19831011
v 0.03651027 0.05200073 0.19823065
v 0.03658972 0.05200075 0.19812711
v 0.03804667 0.05200112 0.19335903
v 0.03804664 0.05200115 0.19156091
v 0.04262247 0.05200202 0.19156085
v 0.04375337 0.05200220 0.19351955
v 0.04256129 0.05200195 0.19485952
v -0.02164694 0.05198978 0.19154404
v -0.01704312 0.05199066 0.19154398
v -0.01704312 0.05199066 0.19155285
v -0.01704310 0.05199062 0.19335984
v -0.02377499 0.05198929 0.19615807
v -0.02450706 0.05198916 0.19542602
v -0.02550706 0.05198898 0.19515809
v -0.02650706 0.05198878 0.19542605
v -0.02723909 0.05198863 0.19615811
v 0.04549294 0.05200250 0.19542500
v 0.04476091 0.05200234 0.19615707
v 0.04822500 0.05200300 0.19615701
v 0.04749294 0.05200288 0.19542497
v 0.04649294 0.05200269 0.19515704
v -0.01726480 0.09285886 0.19816467
v -0.01726489 0.09285898 0.19175874
f 136 137 83
f 82 136 83
f 76 136 82
f 76 186 136
f 77 186 76
f 77 135 186
f 181 186 135
f 181 185 186
f 184 185 181
f 181 188 184
f 181 187 188
f 183 187 181
f 181 182 183
f 181 8 182
f 181 9 8
f 10 9 181
f 28 10 181
f 27 10 28
f 27 11 10
f 26 11 27
f 26 12 11
f 25 12 26
f 25 199 12
f 24 199 25
f 24 198 199
f 197 198 24
f 24 196 197
f 24 195 196
f 190 195 24
f 189 190 24
f 120 189 24
f 132 189 120
f 120 24 49
f 120 49 57
f 57 118 120
f 57 116 118
f 56 116 57
f 56 130 116
f 201 130 56
f 56 205 201
f 56 204 205
f 55 204 56
f 55 207 204
f 55 206 207
f 203 206 55
f 55 202 203
f 202 55 36
f 36 55 208
f 55 233 208
f 208 233 234
f 208 234 230
f 230 231 208
f 231 35 208
f 208 35 105
f 208 105 220
f 220 105 211
f 105 210 211
f 105 212 210
f 105 125 212
f 125 100 212
f 212 100 213
f 212 213 214
f 214 215 212
f 212 215 72
f 212 72 216
f 216 72 73
f 216 73 217
f 217 73 74
f 217 74 218
f 218 74 209
f 218 209 219
f 219 209 208
f 37 208 209
f 37 209 71
f 71 209 74
f 71 74 75
f 125 101 100
f 104 125 105
f 104 123 125
f 121 123 104
f 104 103 121
f 103 145 121
f 121 145 99
f 145 146 99
f 145 144 146
f 143 144 145
f 145 78 143
f 145 79 78
f 224 79 145
f 224 80 79
f 223 80 224
f 223 81 80
f 222 81 223
f 222 70 81
f 221 70 222
f 221 148 70
f 142 148 221
f 142 149 148
f 103 149 142
f 140 103 142
f 140 141 103
f 141 147 103
f 103 1 149
f 2 1 103
f 103 3 2
f 103 4 3
f 66 4 103
f 66 5 4
f 65 5 66
f 65 6 5
f 64 6 65
f 64 7 6
f 150 7 64
f 150 229 7
f 228 229 150
f 150 227 228
f 150 226 227
f 149 226 150
f 149 225 226
f 39 149 150
f 39 150 151
f 150 155 151
f 150 154 155
f 153 154 150
f 150 152 153
f 150 43 152
f 139 43 150
f 139 40 43
f 139 41 40
f 133 41 139
f 110 133 139
f 139 69 110
f 110 69 68
f 110 68 108
f 108 68 106
f 68 48 106
f 106 48 160
f 48 46 160
f 48 47 46
f 160 46 45
f 160 45 157
f 157 162 160
f 160 162 163
f 160 163 159
f 159 13 160
f 128 160 13
f 14 128 13
f 19 128 14
f 19 138 128
f 166 138 19
f 19 169 166
f 19 168 169
f 165 168 19
f 19 164 165
f 19 21 164
f 19 20 21
f 18 20 19
f 18 167 20
f 17 167 18
f 17 158 167
f 16 158 17
f 158 16 15
f 15 157 158
f 158 157 173
f 157 172 173
f 157 180 172
f 157 179 180
f 175 179 157
f 157 174 175
f 157 178 174
f 157 177 178
f 89 177 157
f 134 89 157
f 90 89 134
f 134 157 115
f 115 157 96
f 157 44 96
f 115 96 95
f 95 113 115
f 95 111 113
f 94 111 95
f 94 135 111
f 89 171 177
f 88 171 89
f 88 86 171
f 86 170 171
f 85 170 86
f 87 86 88
f 158 173 176
f 15 156 157
f 156 161 157
f 138 126 128
f 157 161 162
f 157 45 44
f 106 160 128
f 139 67 69
f 150 67 139
f 150 62 67
f 63 62 150
f 38 149 39
f 150 64 63
f 1 225 149
f 38 148 149
f 70 148 38
f 121 99 98
f 103 147 145
f 219 208 220
f 34 105 35
f 33 105 34
f 33 59 105
f 32 59 33
f 32 58 59
f 31 58 32
f 31 60 58
f 30 60 31
f 30 61 60
f 54 61 30
f 30 29 54
f 54 29 55
f 29 232 55
f 55 232 233
f 36 208 37
f 49 24 23
f 49 23 22
f 49 22 50
f 50 22 191
f 50 191 51
f 194 51 191
f 193 51 194
f 193 181 51
f 53 51 181
f 53 181 94
f 52 51 53
f 192 181 193
f 200 181 192
f 28 181 200
f 94 181 135
f 93 135 77
f 82 84 76
f 145 235 224
f 224 235 236
f 224 236 223
f 223 236 222
f 106 107 108
f 108 107 109
f 108 109 110
f 111 112 113
f 113 112 114
f 113 114 115
f 116 117 118
f 118 117 119
f 118 119 120
f 121 122 123
f 123 122 124
f 123 124 125
f 126 127 128
f 128 127 107
f 128 107 106
f 110 109 133
f 133 109 42
f 133 42 41
f 115 114 134
f 134 114 91
f 134 91 90
f 93 92 135
f 135 92 112
f 135 112 111
f 129 117 130
f 130 117 116
f 119 131 120
f 120 131 132
f 97 122 98
f 98 122 121
f 97 102 122
f 122 102 124
f 124 102 125
f 125 102 101

