# https://github.com/mikedh/trimesh
v 0.00399484 0.02800053 0.01217926
v -0.00400516 0.02799901 0.01217937
v -0.00900306 0.01699806 0.01217924
v 0.00899694 0.01700148 0.01217897
v 0.00899580 0.02300148 0.01217909
v -0.00900420 0.02299806 0.01217935
v 0.00209580 0.02300017 0.01217919
v 0.00181465 0.02195012 0.01217917
v 0.00104614 0.02118132 0.01217917
v -0.00000380 0.02089977 0.01217918
v -0.00555019 0.02775400 0.01217939
v -0.00182306 0.02404942 0.01217927
v -0.00105386 0.02118092 0.01217920
v -0.00182266 0.02194942 0.01217923
v -0.00210420 0.02299937 0.01217925
v 0.00875078 0.02454652 0.01217912
v 0.00804032 0.02594023 0.01217916
v 0.00181425 0.02405011 0.01217921
v -0.00694390 0.02704353 0.01217940
v -0.00804985 0.02593716 0.01217939
v -0.00875978 0.02454319 0.01217938
v -0.00105455 0.02481822 0.01217927
v -0.00000460 0.02509977 0.01217926
v 0.00104545 0.02481862 0.01217924
v 0.00553998 0.02775611 0.01217923
v 0.00693395 0.02704618 0.01217919
f 5 7 4
f 5 16 7
f 7 16 17
f 7 17 18
f 26 18 17
f 25 18 26
f 25 24 18
f 1 24 25
f 1 23 24
f 2 23 1
f 2 22 23
f 12 22 2
f 2 11 12
f 11 19 12
f 12 19 20
f 12 20 15
f 15 20 21
f 15 21 6
f 6 14 15
f 3 14 6
f 3 13 14
f 10 13 3
f 4 10 3
f 4 9 10
f 8 9 4
f 4 7 8

