# https://github.com/mikedh/trimesh
v -0.02351590 0.08999144 0.08515877
v -0.02378384 0.08999137 0.08615878
v -0.02451588 0.08999122 0.08689084
v -0.02551587 0.08999102 0.08715881
v -0.02601311 0.08999093 0.08709601
v -0.02598718 0.08999088 0.08988664
v -0.02551583 0.08999097 0.08991007
v -0.02190886 0.08999169 0.08825134
v -0.02066123 0.08999200 0.08430223
v -0.02059635 0.08999202 0.08424219
v -0.02379613 0.08999141 0.08413783
v -0.02044817 0.08999205 0.08416328
v -0.02029056 0.08999208 0.08413779
v -0.02353079 0.08999135 0.08947550
v -0.02601307 0.08999088 0.08988474
v -0.02094671 0.08999190 0.08646151
v -0.02078808 0.08999197 0.08468739
v -0.02378387 0.08999141 0.08415878
v -0.02077646 0.08999197 0.08451991
v -0.02071005 0.08999199 0.08436571
f 1 2 8
f 8 2 14
f 14 2 3
f 14 3 7
f 7 3 4
f 7 4 6
f 6 4 5
f 6 5 15
f 8 16 1
f 1 16 17
f 1 17 18
f 18 17 19
f 18 19 11
f 11 19 20
f 11 20 9
f 9 10 11
f 11 10 12
f 11 12 13

