# https://github.com/mikedh/trimesh
v 0.02135101 0.09026773 0.15615813
v 0.02156387 0.08919869 0.15615810
v 0.01625348 0.08798556 0.15615816
v 0.02128744 0.08798652 0.15615809
v 0.01597659 0.08919762 0.15615818
v 0.01618904 0.09026674 0.15615821
v 0.01679445 0.09117317 0.15615821
v 0.01770066 0.09177893 0.15615821
v 0.02074525 0.09117392 0.15615815
v 0.01983882 0.09177934 0.15615818
v 0.01876970 0.09199179 0.15615819
v 0.01814911 0.08647443 0.15615810
v 0.01702884 0.08701367 0.15615813
v 0.01939239 0.08647467 0.15615809
v 0.02051245 0.08701433 0.15615807
f 1 2 3
f 3 2 4
f 15 3 4
f 14 3 15
f 14 13 3
f 12 13 14
f 10 1 3
f 9 1 10
f 10 3 11
f 11 3 8
f 3 7 8
f 3 6 7
f 5 6 3

