# https://github.com/mikedh/trimesh
v -0.01600512 0.08919440 0.13629842
v -0.01600506 0.08919432 0.14069878
v -0.01692482 0.08919414 0.14069878
v -0.01692489 0.08919423 0.13629843
v -0.01692474 0.08919404 0.14601889
v -0.01692481 0.08919413 0.14161855
v -0.01600504 0.08919431 0.14161853
v -0.01600498 0.08919422 0.14601888
v -0.02025504 0.08919349 0.14161859
v -0.02025506 0.08919351 0.14069884
v -0.01267482 0.08919495 0.14069872
v -0.01267481 0.08919494 0.14161849
f 5 6 8
f 8 6 7
f 3 7 6
f 3 6 10
f 10 6 9
f 2 7 3
f 4 2 3
f 1 2 4
f 2 12 7
f 11 12 2

