# https://github.com/mikedh/trimesh
v 0.01398962 0.07598463 0.28090578
v 0.01398963 0.07587227 0.27980903
v 0.01398971 0.07537132 0.27882692
v 0.01398985 0.07454941 0.27809209
v 0.01399046 0.07139096 0.27812266
v 0.01399062 0.07058344 0.27887326
v 0.01399076 0.07001050 0.28096363
v 0.01399072 0.07032247 0.28202108
v 0.01399060 0.07099535 0.28289440
v 0.01399023 0.07302393 0.28365776
v 0.01399043 0.07193829 0.28346568
v 0.01398983 0.07503734 0.28285527
v 0.01398969 0.07569319 0.28196907
v 0.01399025 0.07241511 0.27771446
v 0.01399073 0.07010159 0.27986491
v 0.01399002 0.07410564 0.28344470
v 0.01399004 0.07351755 0.27770379
v 0.00899073 0.07010064 0.27986497
v 0.00899062 0.07058249 0.27887335
v 0.00899075 0.07000419 0.28041011
v 0.00899076 0.07000954 0.28096369
v 0.00899072 0.07032152 0.28202114
v 0.00899046 0.07139001 0.27812275
v 0.00899025 0.07241415 0.27771455
v 0.00898971 0.07537036 0.27882698
v 0.00898985 0.07454845 0.27809215
v 0.00898963 0.07587132 0.27980909
v 0.00898962 0.07598367 0.28090584
v 0.00899004 0.07351660 0.27770385
v 0.00898969 0.07569224 0.28196913
v 0.00898983 0.07503639 0.28285533
v 0.00899043 0.07193734 0.28346577
v 0.00899060 0.07099441 0.28289446
v 0.00899002 0.07410469 0.28344476
v 0.00899023 0.07302298 0.28365785
f 19 18 15
f 6 19 15
f 6 23 19
f 5 23 6
f 5 24 23
f 14 24 5
f 14 29 24
f 17 29 14
f 17 26 29
f 4 26 17
f 4 25 26
f 3 25 4
f 3 27 25
f 2 27 3
f 2 28 27
f 1 28 2
f 1 30 28
f 13 30 1
f 13 31 30
f 12 31 13
f 12 34 31
f 16 34 12
f 16 35 34
f 10 35 16
f 10 32 35
f 11 32 10
f 11 33 32
f 9 33 11
f 9 22 33
f 8 22 9
f 8 21 22
f 7 21 8
f 7 20 21
f 15 20 7
f 15 18 20

