# https://github.com/mikedh/trimesh
v 0.00362209 -0.09968156 0.21311378
v 0.00362208 -0.09960276 0.21309121
v -0.02801795 -0.09575260 0.23782513
v -0.02698157 -0.09666733 0.23463410
v -0.02904154 -0.09359039 0.24536681
v -0.02436514 -0.09817068 0.22938916
v -0.02156370 -0.09926832 0.22555906
v -0.01836241 -0.10020103 0.22230391
v 0.02705665 -0.08699778 0.26832160
v 0.02552248 -0.08660901 0.26967853
v 0.01622337 -0.08505151 0.27511686
v 0.00558976 -0.08441288 0.27735147
v 0.00300138 -0.08440601 0.27737716
v -0.00447930 -0.08470577 0.27633676
v -0.01437487 -0.08593781 0.27204654
v -0.02228667 -0.08798791 0.26490182
v -0.02735851 -0.09063423 0.25567579
v -0.02832575 -0.10330284 0.24136885
v -0.02801647 -0.10340084 0.24001808
v -0.02897137 -0.10272155 0.24607843
v -0.02891966 -0.10172829 0.25097340
v -0.02805808 -0.10041013 0.25596586
v -0.02735674 -0.09974604 0.25828835
v -0.02228490 -0.09711204 0.26751795
v -0.01437309 -0.09508065 0.27466801
v -0.00447751 -0.09387171 0.27896488
v 0.00202191 -0.09359904 0.27996823
v 0.00300249 -0.09359436 0.28001165
v -0.02080144 -0.10324819 0.22576818
v -0.02167236 -0.10329546 0.22685339
v -0.02451417 -0.10345696 0.23116858
v -0.02671903 -0.10353325 0.23589446
v -0.01914263 -0.10316120 0.22392333
v -0.01791370 -0.10309999 0.22271480
v -0.01785485 -0.10311429 0.22266485
v 0.02627696 -0.10298066 0.22310102
v 0.02582844 -0.10295943 0.22267433
v 0.03591774 -0.10343217 0.23996374
v 0.03431628 -0.10349082 0.23507485
v 0.02958031 -0.10316043 0.22680505
v 0.03342698 -0.10343773 0.23306820
v 0.03200493 -0.10332831 0.23039803
v 0.03125651 -0.10327195 0.22918268
v 0.02699460 -0.10301609 0.22381751
v 0.00186612 -0.10255998 0.21400633
v 0.00070262 -0.10257099 0.21410784
v -0.00329115 -0.10262991 0.21479569
v -0.00410270 -0.10264563 0.21500152
v -0.00874909 -0.10276057 0.21664165
v -0.00961286 -0.10278670 0.21703918
v -0.01337076 -0.10291819 0.21915363
v -0.01392883 -0.10294024 0.21952622
v 0.02189241 -0.10280032 0.21951906
v 0.02141655 -0.10278407 0.21919988
v 0.01805435 -0.10268573 0.21726346
v 0.01706499 -0.10266207 0.21679099
v 0.01240360 -0.10258044 0.21508682
v 0.01160039 -0.10257117 0.21487410
v 0.00757851 -0.10254456 0.21414028
v 0.00677724 -0.10254304 0.21405810
v -0.01336963 -0.09997609 0.21830897
v -0.00850072 -0.09982855 0.21569416
v -0.00329061 -0.09973054 0.21396412
v 0.03688987 -0.10281746 0.24612555
v 0.03665524 -0.10313146 0.24378684
v 0.03625626 -0.10334550 0.24144784
v 0.03593397 -0.10342913 0.24002874
v 0.03583255 -0.10039880 0.25653780
v 0.03593365 -0.10050467 0.25616783
v 0.03632770 -0.10097412 0.25449380
v 0.03682108 -0.10181674 0.25118625
v 0.03689808 -0.10279642 0.24625596
v 0.01622516 -0.09427287 0.27776086
v 0.02552428 -0.09584995 0.27232814
v 0.03247723 -0.09817148 0.26428190
v 0.00559155 -0.09361178 0.27998900
v 0.00202191 -0.09360941 0.27997121
v 0.02277917 -0.09989657 0.21930553
v 0.02700206 -0.10007170 0.22298144
v 0.02916838 -0.10018875 0.22543620
v 0.00757704 -0.09961197 0.21329935
v 0.01293698 -0.09966374 0.21440260
v 0.01805104 -0.09975949 0.21642309
v 0.03247545 -0.08904429 0.26166493
v 0.03632585 -0.09203734 0.25193202
v 0.03665476 -0.09523651 0.24153128
v 0.03342642 -0.09829376 0.23159419
f 18 19 3
f 32 3 19
f 32 4 3
f 6 4 32
f 31 6 32
f 31 7 6
f 30 7 31
f 29 7 30
f 29 8 7
f 33 8 29
f 33 34 8
f 8 34 35
f 8 35 61
f 61 35 52
f 61 52 51
f 62 61 51
f 51 50 62
f 62 50 49
f 62 49 63
f 63 49 48
f 63 48 47
f 63 47 1
f 1 47 46
f 1 46 45
f 60 1 45
f 60 81 1
f 59 81 60
f 59 82 81
f 58 82 59
f 57 82 58
f 57 83 82
f 56 83 57
f 56 55 83
f 83 55 78
f 55 54 78
f 78 54 53
f 78 53 79
f 79 53 37
f 37 36 79
f 79 36 44
f 79 44 80
f 80 44 40
f 80 40 87
f 87 40 43
f 87 43 42
f 42 41 87
f 87 41 39
f 87 39 86
f 86 39 38
f 86 38 67
f 67 66 86
f 86 66 65
f 86 65 64
f 64 72 86
f 86 72 71
f 86 71 85
f 85 71 70
f 85 70 69
f 68 85 69
f 68 84 85
f 75 84 68
f 75 9 84
f 74 9 75
f 74 10 9
f 73 10 74
f 73 11 10
f 76 11 73
f 76 12 11
f 28 12 76
f 28 13 12
f 27 13 28
f 77 27 28
f 27 14 13
f 26 14 27
f 25 14 26
f 25 15 14
f 24 15 25
f 24 16 15
f 23 16 24
f 23 17 16
f 22 17 23
f 22 5 17
f 21 5 22
f 20 5 21
f 20 3 5
f 81 2 1
f 18 3 20

