# https://github.com/mikedh/trimesh
v -0.00508696 0.08419611 0.08410709
v -0.00491780 0.09399386 0.08415858
v -0.00491762 0.09399311 0.09713070
v -0.00498320 0.09019474 0.09726328
v 0.02745785 0.09388952 0.08415753
v 0.02762878 0.08420233 0.08410662
v -0.00524388 0.05309495 0.08394366
v 0.02779755 0.05310124 0.08394318
v -0.00089401 0.09397858 0.08415844
v -0.00290590 0.09398922 0.08415852
v -0.00076119 0.09019579 0.08413855
v -0.00488338 0.09019501 0.08413861
v -0.00488332 0.08249360 0.08409814
v 0.02737192 0.08249975 0.08409767
v 0.02294980 0.09367032 0.08415644
v 0.02282928 0.09020029 0.08413821
v 0.02536806 0.09375609 0.08415686
v 0.02736905 0.09020115 0.08413814
v 0.02747456 0.08239716 0.08115789
v 0.02747307 0.09020123 0.08115804
v -0.00498602 0.08239098 0.08115836
v -0.00076100 0.09019554 0.09726321
v -0.00089355 0.09397071 0.09713145
v -0.00290559 0.09398624 0.09713092
v -0.00089378 0.09397466 0.09064494
f 9 10 11
f 11 10 12
f 10 2 12
f 12 2 1
f 12 1 13
f 13 1 7
f 13 7 14
f 7 8 14
f 14 8 6
f 14 6 18
f 18 6 5
f 18 5 17
f 17 16 18
f 15 16 17
f 25 23 24
f 24 10 25
f 25 10 9
f 24 2 10
f 3 2 24
f 23 22 24
f 24 22 4
f 24 4 3
f 22 23 11
f 11 23 25
f 11 25 9
f 14 18 19
f 19 18 20
f 14 19 13
f 13 19 21

