# https://github.com/mikedh/trimesh
v 0.02745785 0.09388952 0.08415753
v 0.02762878 0.08420233 0.08410662
v 0.02745870 0.09384815 0.09306663
v 0.02762887 0.08420112 0.08845792
v 0.02762963 0.08420014 0.14052647
v 0.02746311 0.09363647 0.14036195
v 0.02746303 0.09364013 0.13915820
v 0.02759431 0.08620016 0.13902780
v 0.02759429 0.08620019 0.13728015
v 0.02745991 0.09381146 0.13253361
v 0.02746012 0.09379607 0.12792003
v 0.02746538 0.09349821 0.12790471
v 0.02752315 0.09020090 0.09895325
v 0.02752312 0.09020093 0.09726280
v 0.02745912 0.09382795 0.09713621
v 0.02747021 0.09320089 0.09905806
v 0.02747063 0.09320035 0.12788935
v 0.02745973 0.09382548 0.13714719
v 0.02780358 0.05200115 0.08845731
v 0.02780352 0.05200123 0.08415731
v 0.02779755 0.05310123 0.08415733
v 0.02779755 0.05310124 0.08394318
v 0.02294980 0.09367032 0.08415644
v 0.02282928 0.09020029 0.08413821
v 0.02536806 0.09375609 0.08415686
v 0.02294476 0.09351968 0.09714700
v 0.02282947 0.09020004 0.09726287
v 0.02294730 0.09359556 0.09065173
v 0.02536165 0.09363800 0.09714285
f 1 2 3
f 3 2 4
f 22 4 2
f 21 4 22
f 21 19 4
f 20 19 21
f 4 15 3
f 4 14 15
f 4 13 14
f 9 13 4
f 5 9 4
f 5 8 9
f 7 8 5
f 5 6 7
f 17 13 9
f 17 9 12
f 12 9 18
f 12 18 10
f 10 11 12
f 16 13 17
f 3 15 29
f 29 1 3
f 29 25 1
f 28 25 29
f 29 26 28
f 28 23 25
f 26 27 28
f 28 27 24
f 28 24 23
f 27 26 14
f 14 26 29
f 14 29 15

