# https://github.com/mikedh/trimesh
v 0.03583100 -0.06453580 0.00358144
v 0.03572097 -0.06125313 0.00320770
v 0.03602861 -0.06453601 0.00358147
v 0.04008327 -0.06095701 0.00317550
v 0.04017839 -0.06436622 0.00356138
v 0.04409674 -0.06359765 0.00347147
v 0.04317448 -0.06034022 0.00310924
v 0.04749894 -0.06219533 0.00331178
v 0.04522430 -0.05958491 0.00302956
v 0.04626884 -0.05906033 0.00297515
v 0.04953441 -0.06092557 0.00317209
v 0.05357801 -0.04969686 0.00212276
v 0.05616260 -0.04725518 0.00195177
v 0.05231897 -0.05284279 0.00238509
v 0.05559444 -0.05324319 0.00242017
v 0.05128717 -0.05454853 0.00253723
v 0.05376351 -0.05658766 0.00272861
v 0.05020690 -0.05591815 0.00266461
v 0.05224023 -0.05851298 0.00291917
v 0.04809567 -0.05786895 0.00285434
v 0.04772947 -0.05813837 0.00288132
v 0.03572100 0.06125629 0.00320743
v 0.03770018 0.06116873 0.00319785
v 0.04051254 0.06090634 0.00316938
v 0.04206884 0.06062788 0.00313938
v 0.04533694 0.05953944 0.00302420
v 0.05365932 0.04942213 0.00210048
v 0.05256404 0.05235832 0.00234267
v 0.05231963 0.05284767 0.00238501
v 0.05081197 0.05519839 0.00259653
v 0.04954053 0.05662540 0.00273168
v 0.04691670 0.05868630 0.00293621
v 0.05363552 0.04705815 0.00080164
v 0.05999747 0.00000307 0.00036128
v 0.05768354 0.00003788 0.00036284
v 0.05729584 0.01229689 0.00045212
v 0.06046686 0.01487396 0.00049576
v 0.06080837 0.00000307 0.00036128
v 0.05713174 0.01536101 0.00050503
v 0.05945700 0.02965045 0.00093141
v 0.05690613 0.01893747 0.00058322
v 0.05550119 0.03448537 0.00114985
v 0.05376686 0.05658877 0.00272815
v 0.05517402 0.05416535 0.00250190
v 0.05610615 0.05195098 0.00230787
v 0.05722303 0.04788824 0.00198180
v 0.05773130 0.04485685 0.00176230
v 0.05851434 0.03869073 0.00137357
v 0.03583100 0.06454170 0.00358144
v 0.03602862 0.06454194 0.00358147
v 0.04091974 0.06428364 0.00355094
v 0.04311450 0.06387113 0.00350258
v 0.04665940 0.06262304 0.00335922
v 0.04883350 0.06141203 0.00322442
v 0.05165887 0.05912717 0.00298143
v 0.05326277 0.05728849 0.00279627
v 0.06072852 -0.00717324 0.00039149
v 0.05773088 -0.04485079 0.00176228
v 0.05574847 -0.03221452 0.00104249
v 0.05940988 -0.03015115 0.00095241
v 0.05651186 -0.02414250 0.00073035
v 0.06044585 -0.01531171 0.00050419
v 0.05744851 -0.00883522 0.00040747
v 0.03602895 0.06485462 0.00463411
v 0.03587848 0.06485449 0.00463422
v 0.03602894 -0.06484863 0.00463401
v 0.03587847 -0.06484857 0.00463412
v 0.04177944 -0.06445590 0.00458411
v 0.04551100 -0.06342903 0.00446302
v 0.04769428 -0.06242174 0.00434751
v 0.03953332 -0.06473783 0.00461851
v 0.05073047 -0.06035339 0.00411947
v 0.05247431 -0.05866143 0.00394196
v 0.05461809 -0.05572113 0.00365219
v 0.05565229 -0.05370730 0.00346682
v 0.05695336 -0.04995590 0.00314820
v 0.05777593 -0.04582774 0.00283527
v 0.05785774 -0.04525327 0.00279470
v 0.05919466 -0.03420037 0.00214105
v 0.06040499 -0.01949754 0.00160230
v 0.06091366 -0.00711628 0.00139669
v 0.06099216 0.00000281 0.00136634
v 0.06089709 0.00784633 0.00140324
v 0.06060963 0.01574219 0.00151795
v 0.05955531 0.03057212 0.00197503
v 0.05763146 0.04675131 0.00290172
v 0.05777587 0.04583429 0.00283547
v 0.05785832 0.04525945 0.00279486
v 0.04019402 0.06468266 0.00461103
v 0.04417853 0.06389308 0.00451666
v 0.04760471 0.06247604 0.00435308
v 0.04968018 0.06117987 0.00420857
v 0.05239204 0.05875856 0.00395144
v 0.05395356 0.05677680 0.00375313
v 0.05579504 0.05338574 0.00343782
v 0.05652808 0.05141743 0.00326801
v 0.05736721 -0.04739201 0.00218183
v 0.06076838 -0.00990271 0.00103095
v 0.06022799 -0.02178532 0.00148957
v 0.05914025 -0.03381422 0.00160211
v 0.05887089 0.03619133 0.00162837
v 0.06058666 0.01595047 0.00145172
v 0.05569171 -0.05351311 0.00326918
v 0.05569882 0.05352974 0.00331605
f 1 2 3
f 3 66 1
f 1 66 67
f 3 71 66
f 5 71 3
f 5 68 71
f 6 68 5
f 6 69 68
f 6 70 69
f 8 70 6
f 6 7 8
f 7 9 8
f 8 9 10
f 8 10 11
f 11 72 8
f 11 73 72
f 19 73 11
f 19 74 73
f 17 74 19
f 18 17 19
f 16 17 18
f 16 15 17
f 14 15 16
f 14 13 15
f 13 97 15
f 97 13 77
f 77 13 58
f 58 13 59
f 58 59 60
f 60 100 58
f 60 99 100
f 62 99 60
f 60 61 62
f 62 61 63
f 62 63 57
f 57 63 35
f 57 35 34
f 34 35 36
f 34 36 37
f 37 36 39
f 37 39 40
f 102 37 40
f 83 37 102
f 83 38 37
f 82 38 83
f 38 82 81
f 81 57 38
f 81 98 57
f 80 98 81
f 80 99 98
f 79 99 80
f 102 84 83
f 102 85 84
f 101 85 102
f 101 88 85
f 47 88 101
f 101 48 47
f 101 40 48
f 42 48 40
f 42 47 48
f 33 47 42
f 33 46 47
f 27 46 33
f 27 45 46
f 46 45 96
f 96 45 104
f 44 104 45
f 43 104 44
f 29 43 44
f 30 43 29
f 30 56 43
f 30 55 56
f 31 55 30
f 31 54 55
f 32 54 31
f 32 53 54
f 53 91 54
f 54 91 92
f 53 90 91
f 52 90 53
f 52 89 90
f 51 89 52
f 25 51 52
f 25 52 26
f 24 51 25
f 24 50 51
f 23 50 24
f 23 49 50
f 65 50 49
f 64 50 65
f 22 49 23
f 50 64 51
f 51 64 89
f 26 52 53
f 26 53 32
f 54 92 55
f 55 92 93
f 55 93 56
f 56 93 94
f 56 94 43
f 29 44 28
f 43 94 104
f 95 104 94
f 28 44 45
f 96 104 95
f 86 46 96
f 46 86 87
f 28 45 27
f 46 87 47
f 40 41 42
f 47 87 88
f 102 40 101
f 40 39 41
f 37 38 34
f 34 38 57
f 57 98 62
f 62 98 99
f 79 100 99
f 58 100 79
f 79 78 58
f 60 59 61
f 77 58 78
f 76 97 77
f 15 97 76
f 15 76 103
f 103 76 75
f 103 75 17
f 12 13 14
f 15 103 17
f 18 19 20
f 17 75 74
f 20 19 11
f 20 11 21
f 21 11 10
f 6 4 7
f 8 72 70
f 5 4 6
f 3 4 5
f 3 2 4

