# https://github.com/mikedh/trimesh
v 0.01599237 0.04559930 0.07259292
v 0.01599339 0.04037950 0.07399049
v 0.01599397 0.03500222 0.04346043
v 0.01599442 0.03499632 0.07446043
v 0.01599544 0.02961332 0.07398845
v 0.01598973 0.05874581 0.06339137
v 0.01599052 0.05492412 0.06721161
v 0.01599140 0.05049711 0.07031017
v 0.01598823 0.06553024 0.04884934
v 0.01598857 0.06413068 0.05406860
v 0.01598908 0.06184606 0.05896554
v 0.01598826 0.06413472 0.03286336
v 0.01598807 0.06553229 0.03808315
v 0.01598806 0.06600222 0.04346633
v 0.01598982 0.05493316 0.01971685
v 0.01598915 0.05875340 0.02353854
v 0.01598863 0.06185196 0.02796554
v 0.01599249 0.04039113 0.01293242
v 0.01599152 0.04561040 0.01433198
v 0.01599062 0.05050734 0.01661660
v 0.01599556 0.02440515 0.01432794
v 0.01599455 0.02962495 0.01293036
v 0.01599351 0.03500813 0.01246043
v 0.01599820 0.01125864 0.02352949
v 0.01599741 0.01508033 0.01970926
v 0.01599653 0.01950734 0.01661069
v 0.01599970 0.00447421 0.03807152
v 0.01599936 0.00587377 0.03285226
v 0.01599885 0.00815839 0.02795532
v 0.01599967 0.00586973 0.05405750
v 0.01599986 0.00447216 0.04883771
v 0.01599987 0.00400223 0.04345452
v 0.01599811 0.01507129 0.06720401
v 0.01599878 0.01125105 0.06338232
v 0.01599931 0.00815249 0.05895532
v 0.01599641 0.02439405 0.07258888
v 0.01599731 0.01949711 0.07030427
f 1 2 3
f 3 8 1
f 3 7 8
f 6 7 3
f 3 11 6
f 3 10 11
f 9 10 3
f 3 14 9
f 3 13 14
f 12 13 3
f 3 17 12
f 3 16 17
f 15 16 3
f 3 20 15
f 3 19 20
f 18 19 3
f 3 23 18
f 3 22 23
f 21 22 3
f 3 26 21
f 3 25 26
f 24 25 3
f 3 29 24
f 3 28 29
f 27 28 3
f 3 32 27
f 3 31 32
f 30 31 3
f 3 35 30
f 3 34 35
f 33 34 3
f 3 37 33
f 3 36 37
f 5 36 3
f 3 4 5
f 3 2 4

