# https://github.com/mikedh/trimesh
v 0.00099866 0.03011037 0.30165729
v 0.00099900 0.02836036 0.30212617
v 0.00099926 0.02707925 0.30340722
v 0.00099938 0.02661031 0.30515721
v 0.00099932 0.02707918 0.30690724
v 0.00099909 0.02836024 0.30818835
v 0.00099876 0.03011024 0.30865729
v 0.00099842 0.03186026 0.30818841
v 0.00099816 0.03314136 0.30690736
v 0.00099805 0.03361031 0.30515733
v 0.00099811 0.03314143 0.30340734
v 0.00099834 0.03186037 0.30212623
v 0.00101013 -0.03012085 0.30162811
v 0.00101047 -0.03187088 0.30209699
v 0.00101074 -0.03315199 0.30337808
v 0.00101085 -0.03362093 0.30512804
v 0.00101079 -0.03315205 0.30687806
v 0.00101056 -0.03187099 0.30815917
v 0.00101024 -0.03012098 0.30862811
v 0.00100990 -0.02837098 0.30815923
v 0.00100963 -0.02708987 0.30687818
v 0.00100952 -0.02662093 0.30512819
v 0.00100958 -0.02708981 0.30337819
v 0.00100981 -0.02837086 0.30209705
v 0.00101125 -0.03531684 0.31016195
v 0.00101157 -0.03730869 0.30625540
v 0.00101219 -0.04078040 0.30357665
v 0.00100928 -0.02500815 0.31016216
v 0.00100917 -0.02500801 0.30236214
v 0.00100901 -0.02433809 0.29986215
v 0.00100863 -0.02250793 0.29803208
v 0.00100815 -0.02000792 0.29736224
v 0.00100053 0.01999210 0.29736301
v 0.00100006 0.02249209 0.29803291
v 0.00099974 0.02432216 0.29986307
v 0.00099965 0.02499200 0.30236310
v 0.00099976 0.02499186 0.31016311
v 0.00099780 0.03529972 0.31016329
v 0.00099666 0.04076339 0.30357885
v 0.00099736 0.03729178 0.30625725
v 0.00099391 0.05472166 0.29707724
v 0.00099403 0.05410014 0.29736364
v 0.00099246 0.06211052 0.29406232
v 0.00101361 -0.04850754 0.29997531
v 0.00101612 -0.06211523 0.29406387
v 0.00101464 -0.05411551 0.29736158
v 0.00099236 0.06211064 0.28765789
v 0.00101603 -0.06211511 0.28765553
f 41 43 47
f 41 47 42
f 42 47 39
f 39 47 11
f 39 11 10
f 10 40 39
f 10 38 40
f 9 38 10
f 9 8 38
f 38 8 7
f 38 7 37
f 37 7 6
f 6 5 37
f 37 5 4
f 37 4 36
f 36 4 3
f 36 3 35
f 35 3 2
f 35 2 34
f 34 2 1
f 34 1 47
f 47 1 12
f 47 33 34
f 48 33 47
f 48 32 33
f 31 32 48
f 48 13 31
f 31 13 24
f 31 24 30
f 30 24 29
f 23 29 24
f 22 29 23
f 22 28 29
f 21 28 22
f 21 20 28
f 28 20 19
f 28 19 25
f 19 18 25
f 25 18 17
f 25 17 26
f 26 17 16
f 26 16 27
f 27 16 15
f 27 15 44
f 44 15 48
f 15 14 48
f 44 48 46
f 46 48 45
f 48 14 13
f 47 12 11

