# https://github.com/mikedh/trimesh
v 0.00744331 0.07202914 0.03832969
v -0.01601342 0.07349620 0.03980162
v 0.00798682 0.07210080 0.03840124
v 0.01598658 0.07350229 0.03980117
v 0.00853036 0.07202934 0.03832968
v -0.00948276 0.07149748 0.03780150
v -0.01601307 0.07149623 0.03780159
v -0.00906313 0.07181621 0.03812014
v 0.01598693 0.07150233 0.03780111
v 0.00945662 0.07150108 0.03780120
v 0.00903688 0.07181966 0.03811989
v 0.00693687 0.07181925 0.03811990
v 0.00651724 0.07150052 0.03780127
v -0.00654337 0.07149804 0.03780146
v -0.00696313 0.07181661 0.03812011
v -0.00746964 0.07202630 0.03832992
v -0.00801318 0.07209775 0.03840148
v -0.00855668 0.07202609 0.03832993
v 0.01598663 0.07350222 0.04346115
v 0.01598792 0.06630233 0.03780101
v -0.01601337 0.07349613 0.04346163
v -0.01601207 0.06629623 0.03780149
v 0.00980567 0.07105115 0.03780120
v -0.00619433 0.07104810 0.03780144
v 0.00616836 0.07105046 0.03780125
v -0.00591278 0.06999816 0.03780141
v 0.00588722 0.07000041 0.03780124
v -0.00619393 0.06894810 0.03780140
v -0.00983163 0.07104741 0.03780149
v -0.01011278 0.06999736 0.03780147
v -0.00983123 0.06894741 0.03780145
v -0.00906244 0.06817891 0.03780142
v -0.00801238 0.06789776 0.03780141
v 0.00798762 0.06790081 0.03780118
v 0.00693756 0.06818195 0.03780118
v 0.00903756 0.06818236 0.03780117
v 0.00980607 0.06895115 0.03780117
v 0.01008722 0.07000121 0.03780118
v 0.00616876 0.06895046 0.03780122
v -0.00696243 0.06817931 0.03780139
f 1 2 3
f 3 2 4
f 3 4 5
f 4 11 5
f 4 10 11
f 9 10 4
f 23 10 9
f 9 38 23
f 9 37 38
f 20 37 9
f 20 36 37
f 34 36 20
f 20 22 34
f 34 22 35
f 35 22 39
f 39 22 33
f 39 33 27
f 27 33 40
f 27 40 28
f 26 27 28
f 26 25 27
f 24 25 26
f 24 13 25
f 14 13 24
f 12 13 14
f 14 15 12
f 12 15 16
f 12 16 1
f 1 16 17
f 22 32 33
f 22 31 32
f 30 31 22
f 7 30 22
f 7 29 30
f 6 29 7
f 6 7 8
f 8 7 2
f 2 18 8
f 2 17 18
f 2 21 4
f 4 21 19
f 1 17 2

