# https://github.com/mikedh/trimesh
v -0.02528524 0.08599255 0.14075470
v -0.02111843 0.08599345 0.13556309
v -0.02513542 0.08599260 0.13978572
v -0.02480855 0.08599268 0.13881651
v -0.02431745 0.08599279 0.13791928
v -0.02367721 0.08599292 0.13712159
v -0.02290753 0.08599309 0.13644795
v -0.02203203 0.08599326 0.13591906
v -0.02113608 0.08699344 0.13560475
v -0.02201685 0.08699326 0.13595045
v -0.02288711 0.08699309 0.13647616
v -0.02524919 0.08699255 0.14073727
v -0.02510167 0.08699261 0.13979395
v -0.02477675 0.08699268 0.13883054
v -0.02428859 0.08699279 0.13793868
v -0.02365219 0.08699293 0.13714576
f 12 1 13
f 13 1 3
f 13 3 14
f 14 3 4
f 14 4 15
f 15 4 5
f 15 5 16
f 16 5 6
f 16 6 11
f 11 6 7
f 11 7 10
f 10 7 8
f 10 8 9
f 9 8 2

