# https://github.com/mikedh/trimesh
v -0.02654614 0.08798983 0.13985743
v -0.02654610 0.08798978 0.14246015
v -0.02424248 0.08799016 0.14496894
v -0.02570307 0.08798990 0.14475352
v -0.02542254 0.08798999 0.14251861
v -0.02542258 0.08799004 0.13979892
v -0.02424259 0.08799031 0.13734856
v -0.00868682 0.08799313 0.14496872
v -0.00869063 0.08799310 0.14654824
v -0.01081313 0.08799269 0.14666444
v -0.01091176 0.08799265 0.14789079
v -0.01346461 0.08799218 0.14726967
v -0.01346460 0.08799215 0.14835860
v -0.01946462 0.08799104 0.14726976
v -0.01946460 0.08799101 0.14835867
v -0.02211612 0.08799054 0.14666460
v -0.02192905 0.08799055 0.14792381
v -0.02409579 0.08799016 0.14667167
v -0.00868693 0.08799328 0.13734834
v -0.00708993 0.08799357 0.13781162
v -0.00750687 0.08799345 0.13979867
v -0.00632516 0.08799367 0.14022756
v -0.00750683 0.08799341 0.14251834
v -0.00632513 0.08799364 0.14208943
v -0.00708983 0.08799344 0.14450538
v -0.02570317 0.08799003 0.13756403
v -0.02409595 0.08799037 0.13564582
v -0.02211628 0.08799075 0.13565284
v -0.02192925 0.08799081 0.13439362
v -0.01946479 0.08799127 0.13504761
v -0.01946481 0.08799129 0.13395868
v -0.01346479 0.08799241 0.13504753
v -0.01346481 0.08799243 0.13395859
v -0.01081329 0.08799290 0.13565268
v -0.01091195 0.08799291 0.13442633
v -0.00869079 0.08799330 0.13576882
f 3 4 5
f 3 18 4
f 3 17 18
f 16 17 3
f 16 15 17
f 14 15 16
f 14 13 15
f 12 13 14
f 12 11 13
f 10 11 12
f 10 9 11
f 8 9 10
f 8 25 9
f 8 24 25
f 23 24 8
f 23 22 24
f 21 22 23
f 21 20 22
f 19 20 21
f 19 36 20
f 19 35 36
f 34 35 19
f 34 33 35
f 32 33 34
f 32 31 33
f 30 31 32
f 30 29 31
f 28 29 30
f 28 27 29
f 7 27 28
f 7 26 27
f 1 26 7
f 6 1 7
f 6 2 1
f 5 2 6
f 5 4 2

