# https://github.com/mikedh/trimesh
v -0.00737898 0.09399290 0.16630861
v -0.00746547 0.09399296 0.16672596
v -0.00746549 0.09399297 0.16589127
v -0.00751964 0.09399290 0.16683362
v -0.00768670 0.09399236 0.16705129
v -0.00790396 0.09399073 0.16721795
v -0.00815705 0.09398749 0.16732281
v -0.00842896 0.09398244 0.16735864
v -0.00895396 0.09396803 0.16721797
v -0.00933829 0.09395360 0.16683364
v -0.00947897 0.09394751 0.16630864
v -0.00944333 0.09394909 0.16657986
v -0.00944326 0.09394911 0.16603714
v -0.00933830 0.09395362 0.16578364
v -0.00895398 0.09396807 0.16539931
v -0.00842899 0.09398248 0.16525863
v -0.00815718 0.09398753 0.16529442
v -0.00790399 0.09399076 0.16539930
v -0.00768635 0.09399239 0.16556634
v -0.00751966 0.09399293 0.16578361
v -0.00849956 0.09398089 0.16604613
v -0.00842916 0.09398245 0.16683364
f 1 2 3
f 22 3 2
f 2 4 22
f 22 4 5
f 22 5 6
f 7 22 6
f 8 22 7
f 8 10 22
f 10 20 22
f 10 21 20
f 21 19 20
f 21 18 19
f 17 18 21
f 21 16 17
f 15 16 21
f 13 15 21
f 13 21 11
f 11 21 12
f 14 15 13
f 12 21 10
f 9 10 8
f 22 20 3

