# https://github.com/mikedh/trimesh
v -0.00298239 -0.07113946 0.27830863
v -0.00298221 -0.07211342 0.27779198
v -0.00298162 -0.07517266 0.27857795
v -0.00298149 -0.07577696 0.27950007
v -0.00298257 -0.07004623 0.28018019
v -0.00298252 -0.07041793 0.27914223
v -0.00298143 -0.07600736 0.28057823
v -0.00298257 -0.07000934 0.28073257
v -0.00298255 -0.07007459 0.28128231
v -0.00298246 -0.07049917 0.28229979
v -0.00298180 -0.07427604 0.27793640
v -0.00298201 -0.07320823 0.27766207
v -0.00298145 -0.07583272 0.28166679
v -0.00298154 -0.07527664 0.28261879
v -0.00298170 -0.07441420 0.28330559
v -0.00298189 -0.07336190 0.28363448
v -0.00298210 -0.07226186 0.28356102
v -0.00298230 -0.07126263 0.28309515
v -0.00798143 -0.07600831 0.28057829
v -0.00798149 -0.07577792 0.27950013
v -0.00798162 -0.07517361 0.27857801
v -0.00798180 -0.07427700 0.27793646
v -0.00798221 -0.07211436 0.27779207
v -0.00798239 -0.07114042 0.27830872
v -0.00798252 -0.07041887 0.27914229
v -0.00798154 -0.07527759 0.28261885
v -0.00798145 -0.07583367 0.28166687
v -0.00798201 -0.07320918 0.27766213
v -0.00798257 -0.07004718 0.28018025
v -0.00798246 -0.07050012 0.28229985
v -0.00798230 -0.07126358 0.28309524
v -0.00798255 -0.07007554 0.28128240
v -0.00798257 -0.07001030 0.28073263
v -0.00798189 -0.07336286 0.28363454
v -0.00798210 -0.07226281 0.28356111
v -0.00798170 -0.07441515 0.28330567
f 7 19 13
f 13 19 27
f 13 27 14
f 14 27 26
f 14 26 15
f 15 26 36
f 15 36 16
f 16 36 34
f 16 34 17
f 17 34 35
f 17 35 18
f 18 35 31
f 18 31 10
f 10 31 30
f 10 30 9
f 9 30 32
f 9 32 8
f 8 32 33
f 8 33 5
f 5 33 29
f 5 29 6
f 6 29 25
f 6 25 1
f 1 25 24
f 1 24 2
f 2 24 23
f 2 23 12
f 12 23 28
f 12 28 11
f 11 28 22
f 11 22 3
f 3 22 21
f 3 21 4
f 4 21 20
f 4 20 7
f 7 20 19

