# https://github.com/mikedh/trimesh
v 0.00199866 0.03011056 0.30165726
v 0.00099866 0.03011037 0.30165729
v 0.00199900 0.02836055 0.30212614
v 0.00099900 0.02836036 0.30212617
v 0.00199926 0.02707944 0.30340722
v 0.00099926 0.02707925 0.30340722
v 0.00199938 0.02661050 0.30515718
v 0.00099938 0.02661031 0.30515721
v 0.00199932 0.02707937 0.30690724
v 0.00099932 0.02707918 0.30690724
v 0.00199909 0.02836043 0.30818832
v 0.00099909 0.02836024 0.30818835
v 0.00199876 0.03011043 0.30865726
v 0.00099876 0.03011024 0.30865729
v 0.00199842 0.03186045 0.30818841
v 0.00099842 0.03186026 0.30818841
v 0.00199816 0.03314155 0.30690733
v 0.00099816 0.03314136 0.30690736
v 0.00199805 0.03361050 0.30515733
v 0.00099805 0.03361031 0.30515733
v 0.00199811 0.03314162 0.30340731
v 0.00099811 0.03314143 0.30340734
v 0.00199834 0.03186056 0.30212623
v 0.00099834 0.03186037 0.30212623
f 1 2 3
f 3 2 4
f 3 4 5
f 5 4 6
f 5 6 7
f 7 6 8
f 7 8 9
f 9 8 10
f 9 10 11
f 11 10 12
f 11 12 13
f 13 12 14
f 13 14 15
f 15 14 16
f 15 16 17
f 17 16 18
f 17 18 19
f 19 18 20
f 19 20 21
f 21 20 22
f 21 22 23
f 23 22 24
f 23 24 1
f 1 24 2

