# https://github.com/mikedh/trimesh
v -0.01181038 0.08599522 0.13556296
v -0.00764341 0.08599591 0.14075445
v -0.01181030 0.08599512 0.14075451
v -0.01179310 0.08699520 0.13653348
v -0.01179311 0.08699522 0.13560462
v -0.01097023 0.08699535 0.13692021
v -0.01020738 0.08699548 0.13747399
v -0.00767986 0.08699591 0.14073701
v -0.00856478 0.08699574 0.14073703
v -0.00872612 0.08699572 0.13984223
v -0.00906433 0.08699568 0.13896233
v -0.00956420 0.08699559 0.13816313
v -0.01171541 0.09149522 0.13668902
v -0.01103085 0.09149534 0.13702185
v -0.01028628 0.09149547 0.13756236
v -0.00965851 0.09149557 0.13823499
v -0.00917062 0.09149566 0.13901505
v -0.00884052 0.09149570 0.13987386
v -0.00869149 0.09149572 0.14065856
v -0.01171535 0.09149514 0.14065860
f 13 4 14
f 14 4 6
f 14 6 15
f 15 6 7
f 15 7 16
f 16 7 12
f 16 12 17
f 17 12 11
f 17 11 18
f 18 11 10
f 18 10 19
f 19 10 9
f 13 14 20
f 20 14 15
f 20 15 16
f 16 17 20
f 20 17 18
f 20 18 19
f 8 2 9
f 9 2 3
f 9 3 19
f 19 3 20
f 1 5 4
f 4 3 1
f 4 20 3
f 13 20 4

