# https://github.com/mikedh/trimesh
v 0.00745101 0.08619624 0.14326540
v 0.00162064 0.08619513 0.14326034
v 0.00354206 0.09381891 0.14312908
v 0.00691707 0.09365934 0.14313480
v 0.00721865 0.08941598 0.14320906
v 0.00216491 0.09387013 0.14312699
v 0.00186338 0.08957826 0.14320156
v 0.00236988 0.09386320 0.14299230
v 0.00289362 0.09384478 0.14244865
v 0.00320798 0.09383348 0.14176241
v 0.00327764 0.09383152 0.14101063
v 0.00309445 0.09383922 0.14027783
v 0.00267914 0.09385503 0.13964672
v 0.00207840 0.09387590 0.13918880
v 0.00554158 0.09373564 0.13918339
v 0.00700507 0.09366242 0.13918085
v 0.00633414 0.09369071 0.14265554
v 0.00622178 0.09370132 0.13984847
v 0.00676414 0.09367467 0.13932458
v 0.00588283 0.09371699 0.14052284
v 0.00578599 0.09372053 0.14127077
v 0.00594239 0.09371160 0.14201009
f 13 14 15
f 15 18 13
f 13 18 20
f 13 20 12
f 12 20 11
f 11 20 21
f 11 21 10
f 10 21 22
f 10 22 17
f 3 10 17
f 9 10 3
f 9 3 8
f 8 3 6
f 3 17 4
f 15 19 18
f 16 19 15
f 3 4 5
f 7 3 5
f 7 5 2
f 2 5 1
f 6 3 7

