# https://github.com/mikedh/trimesh
v -0.01267482 0.08919495 0.14069872
v -0.01271541 0.09149495 0.14065862
v -0.01267481 0.08919494 0.14161849
v -0.01271540 0.09149493 0.14165868
v -0.01263607 0.08699504 0.13631102
v -0.01263608 0.08699506 0.13541804
v -0.01261827 0.08599485 0.14693181
v -0.01261835 0.08599496 0.14115854
v -0.01261843 0.08599507 0.13538527
v -0.01271547 0.09149503 0.13641760
v -0.01271533 0.09149485 0.14589970
v -0.01263592 0.08699486 0.14600611
v -0.01263591 0.08699484 0.14689907
f 2 10 1
f 1 10 5
f 9 1 5
f 9 5 6
f 8 1 9
f 8 3 1
f 7 3 8
f 7 12 3
f 13 12 7
f 12 4 3
f 11 4 12

