# https://github.com/mikedh/trimesh
v 0.00358392 0.09059678 0.08065840
v 0.00358474 0.08629678 0.08065832
v 0.00358389 0.09059682 0.07865839
v 0.00358468 0.08629686 0.07665832
v 0.00358356 0.09233751 0.07865842
v 0.00358359 0.09200928 0.07665842
v 0.03298474 0.08630238 0.08065788
v 0.03298471 0.08630242 0.07865788
v 0.03899188 0.08630356 0.07865779
v 0.03864767 0.08630354 0.07665780
v 0.00505920 0.09199058 0.07665840
v 0.03697879 0.08821209 0.07665786
v 0.03684260 0.08836105 0.07665787
v 0.03635617 0.08915147 0.07665789
v 0.03612386 0.09089397 0.07665793
v 0.03516458 0.09101880 0.07665794
v 0.03008620 0.09144276 0.07665803
v 0.02053117 0.09176172 0.07665817
v 0.00513604 0.09231984 0.07865840
v 0.03707278 0.08851976 0.07865787
v 0.01607217 0.09216473 0.07865824
v 0.01743959 0.09213888 0.07865822
v 0.03621427 0.09118248 0.07865793
v 0.03645115 0.08945026 0.07865789
v 0.03693691 0.08866742 0.07865787
v 0.01060223 0.09225147 0.07865832
v 0.01333725 0.09221102 0.07865828
v 0.01880696 0.09211096 0.07865820
v 0.02017429 0.09208078 0.07865818
v 0.02290876 0.09201271 0.07865813
v 0.02427588 0.09197409 0.07865812
v 0.02564285 0.09193081 0.07865810
v 0.03110801 0.09167617 0.07865801
v 0.03383502 0.09145962 0.07865797
v 0.03621395 0.08995531 0.07766722
v 0.03616576 0.09103741 0.07758691
v 0.03689290 0.08853655 0.07773127
v 0.03645879 0.08920108 0.07770909
v 0.02076939 0.09199132 0.07812781
v 0.03064747 0.09152590 0.07738744
f 11 6 4
f 4 18 11
f 4 17 18
f 14 17 4
f 14 16 17
f 40 17 16
f 40 16 15
f 40 15 36
f 34 40 36
f 33 40 34
f 33 32 40
f 40 32 31
f 40 31 39
f 39 31 30
f 39 30 29
f 29 28 39
f 39 28 22
f 39 22 21
f 27 39 21
f 26 39 27
f 26 11 39
f 19 11 26
f 19 6 11
f 5 6 19
f 11 18 39
f 39 18 17
f 34 36 23
f 36 24 23
f 35 24 36
f 36 15 35
f 35 15 14
f 35 14 38
f 38 14 13
f 38 13 37
f 37 24 38
f 37 25 24
f 20 25 37
f 37 12 20
f 10 20 12
f 9 20 10
f 37 13 12
f 38 24 35
f 39 17 40
f 15 16 14
f 4 13 14
f 4 12 13
f 10 12 4
f 1 2 3
f 3 2 4
f 3 4 5
f 5 4 6
f 9 10 8
f 8 10 4
f 8 4 7
f 7 4 2

