# https://github.com/mikedh/trimesh
v -0.00029891 -0.04796474 -0.03325681
v -0.00029901 -0.06253205 -0.03325681
v -0.00029885 -0.04765772 -0.02826506
v -0.00029884 -0.04815768 -0.02776506
v -0.00029892 -0.05931034 -0.02776506
v -0.00030880 -0.06629591 -0.03919290
v -0.00029911 -0.06377639 -0.04027446
v -0.00030242 -0.06547517 -0.03422404
v -0.00029891 -0.04765773 -0.03294980
v -0.00029904 -0.06051784 -0.02809363
v -0.00029893 -0.06075352 -0.02824103
v -0.00029899 -0.06427718 -0.03084897
v -0.00029886 -0.06441534 -0.03096390
v -0.00029928 -0.06744836 -0.05140000
v -0.00029927 -0.06516121 -0.05140000
v -0.00029928 -0.06772146 -0.05110095
v -0.00029923 -0.06490690 -0.04891152
v -0.00031004 -0.06709264 -0.04511041
v -0.00029921 -0.06472778 -0.04731662
v -0.00029913 -0.06396868 -0.04154693
v -0.00029875 -0.06462710 -0.03119251
v -0.00029876 -0.06485520 -0.03153145
v -0.00029881 -0.06493881 -0.03169550
v -0.00029888 -0.06500734 -0.03186209
v -0.00029901 -0.06507693 -0.03210943
v -0.00029895 -0.05967673 -0.02780129
v -0.00029903 -0.06010052 -0.02791316
v -0.00029906 -0.06030492 -0.02799165
v -0.00029891 -0.05935603 -0.02776572
f 3 4 5
f 3 5 2
f 2 5 29
f 2 29 26
f 26 27 2
f 2 27 28
f 2 28 10
f 10 11 2
f 2 11 12
f 2 12 13
f 13 21 2
f 2 21 22
f 2 22 23
f 23 24 2
f 2 24 25
f 2 25 8
f 8 7 2
f 6 7 8
f 6 20 7
f 6 19 20
f 18 19 6
f 18 17 19
f 16 17 18
f 16 15 17
f 14 15 16
f 2 9 3
f 1 9 2

