# https://github.com/mikedh/trimesh
v -0.02106949 0.00554967 0.02449116
v -0.02106901 0.00554966 0.02583259
v -0.01617187 0.00554964 0.03117708
v -0.01722926 0.00554964 0.03088365
v -0.01814986 0.00554964 0.03043714
v -0.01942779 0.00554964 0.02941883
v -0.02078502 0.00554965 0.02714251
v 0.02202581 0.00554970 0.03338958
v 0.02197372 0.00554970 0.03368437
v 0.02111086 0.00554969 0.03397546
v 0.02196130 0.00554970 0.03375464
v -0.02103001 0.00554966 0.02526877
v -0.02084417 0.00554966 0.02589261
v -0.02052813 0.00554966 0.02646166
v 0.01961344 0.00554993 0.03680220
v 0.01849069 0.00554976 0.03712092
v 0.02018034 0.00554969 0.03453627
v 0.01730931 0.00554967 0.03709355
v -0.01859838 0.00554965 0.02768388
v -0.01957048 0.00554966 0.02733214
v 0.02189378 0.00554965 0.03406687
v 0.02139690 0.00554971 0.03523245
v 0.02066164 0.00554974 0.03611468
f 8 9 10
f 10 9 11
f 11 21 10
f 10 21 22
f 10 22 17
f 17 22 23
f 17 23 15
f 15 16 17
f 17 16 18
f 17 18 19
f 19 18 3
f 19 3 4
f 5 19 4
f 6 19 5
f 6 20 19
f 14 20 6
f 7 14 6
f 7 13 14
f 2 13 7
f 2 12 13
f 1 12 2

