# https://github.com/mikedh/trimesh
v 0.02562034 0.02621250 -0.05067579
v 0.02562033 0.02971250 -0.05067580
v 0.02313713 0.02621250 -0.04945749
v 0.02313712 0.02971250 -0.04945749
v 0.01039669 0.02621247 -0.04906046
v 0.00706808 0.02621247 -0.04981426
v -0.00687199 0.02621243 -0.10275316
v 0.00125162 0.02621245 -0.10854691
v 0.00604490 0.02621245 -0.11055730
v 0.03479744 0.02621253 -0.05548349
v 0.01778631 0.02621249 -0.04866498
v 0.01892076 0.02621249 -0.04875617
v 0.01464854 0.02621248 -0.04862303
v 0.01237845 0.02621248 -0.04878505
v -0.00663433 0.02621244 -0.10287528
v 0.03040790 0.02621251 -0.05269978
v -0.00600786 0.02621244 -0.10334244
v -0.00314581 0.02621244 -0.10577565
v 0.01110353 0.02621248 -0.11175207
v 0.01628977 0.02621249 -0.11209869
v 0.02146241 0.02621250 -0.11158774
v 0.00624107 0.02621247 -0.05006063
v 0.00200692 0.02621246 -0.05172320
v -0.00763476 0.02621243 -0.10229570
v -0.00824676 0.02621243 -0.10172676
v 0.04445612 0.02621254 -0.06754465
v 0.02648060 0.02621251 -0.11023311
v 0.04191850 0.02621254 -0.06300838
v 0.03866945 0.02621254 -0.05895118
v -0.01120425 0.02621243 -0.09778704
v -0.00266039 0.02621245 -0.05445734
v -0.00680051 0.02621244 -0.05793854
v -0.01029514 0.02621243 -0.06206733
v -0.01304441 0.02621242 -0.06672575
v -0.01496978 0.02621242 -0.07178068
v 0.03120770 0.02621252 -0.10807171
v 0.03551502 0.02621252 -0.10516236
v 0.03928526 0.02621253 -0.10158431
v 0.04241577 0.02621254 -0.09743495
v 0.04482130 0.02621255 -0.09282728
v 0.04643638 0.02621255 -0.08788676
v -0.01601623 0.02621241 -0.07708768
v -0.01615385 0.02621241 -0.08249512
v -0.01371299 0.02621241 -0.09299481
v -0.01537873 0.02621241 -0.08784848
v 0.04721700 0.02621255 -0.08274790
v 0.04714194 0.02621256 -0.07755063
v 0.04621321 0.02621254 -0.07243647
v 0.03479744 0.02971253 -0.05548349
v 0.03866944 0.02971254 -0.05895118
v 0.01110353 0.02971248 -0.11175207
v 0.00604489 0.02971245 -0.11055730
v 0.03551501 0.02971252 -0.10516237
v 0.03120770 0.02971251 -0.10807171
v 0.02648059 0.02971251 -0.11023312
v 0.02146240 0.02971250 -0.11158774
v 0.01628977 0.02971249 -0.11209869
v 0.03040789 0.02971251 -0.05269977
v 0.01778630 0.02971249 -0.04866498
v 0.01237844 0.02971248 -0.04878505
v 0.00706807 0.02971247 -0.04981426
v 0.03928525 0.02971253 -0.10158431
v 0.04241576 0.02971254 -0.09743495
v 0.04482130 0.02971255 -0.09282728
v 0.04643637 0.02971255 -0.08788676
v 0.04721700 0.02971255 -0.08274790
v 0.04714192 0.02971256 -0.07755063
v 0.04621320 0.02971254 -0.07243647
v 0.04445611 0.02971254 -0.06754465
v 0.04191849 0.02971254 -0.06300838
v -0.00752179 0.02971244 -0.05868112
v -0.00680052 0.02971244 -0.05793853
v -0.00266040 0.02971245 -0.05445734
v 0.00200692 0.02971246 -0.05172321
v 0.00624106 0.02971246 -0.05006063
v 0.00125161 0.02971245 -0.10854691
v -0.00314582 0.02971244 -0.10577566
v -0.00811247 0.02971243 -0.10175455
v -0.00874937 0.02971243 -0.10114074
v -0.01120426 0.02971243 -0.09778704
v -0.01371300 0.02971241 -0.09299480
v -0.01537873 0.02971241 -0.08784848
v -0.01615386 0.02971241 -0.08249512
v -0.01601624 0.02971241 -0.07708768
v -0.01496979 0.02971242 -0.07178067
v -0.01304442 0.02971242 -0.06672574
v -0.01029514 0.02971243 -0.06206733
v -0.00655161 0.02971243 -0.10280844
v -0.00694765 0.02971243 -0.10247065
v -0.00740052 0.02971243 -0.10219908
v -0.00628252 0.02796207 -0.10307593
v -0.00850090 0.02796207 -0.10143401
v -0.00850090 0.02796207 -0.10143402
f 1 2 3
f 16 2 1
f 16 58 2
f 10 58 16
f 10 49 58
f 29 49 10
f 29 50 49
f 28 50 29
f 28 70 50
f 26 70 28
f 26 69 70
f 48 69 26
f 48 68 69
f 47 68 48
f 47 67 68
f 46 67 47
f 46 66 67
f 41 66 46
f 41 65 66
f 40 65 41
f 40 64 65
f 39 64 40
f 39 63 64
f 38 63 39
f 38 62 63
f 37 62 38
f 37 53 62
f 36 53 37
f 36 54 53
f 27 54 36
f 27 55 54
f 21 55 27
f 21 56 55
f 20 56 21
f 20 57 56
f 19 57 20
f 19 51 57
f 9 51 19
f 9 52 51
f 8 52 9
f 8 76 52
f 18 76 8
f 18 77 76
f 91 77 18
f 91 88 77
f 91 15 88
f 88 15 89
f 89 15 7
f 89 7 90
f 90 7 24
f 90 24 78
f 78 24 25
f 78 25 92
f 92 79 78
f 17 15 91
f 18 17 91
f 3 2 4
f 3 4 12
f 12 4 59
f 59 11 12
f 59 13 11
f 60 13 59
f 60 14 13
f 5 14 60
f 5 60 6
f 6 60 61
f 6 61 22
f 22 61 75
f 22 75 23
f 75 74 23
f 23 74 73
f 23 73 31
f 31 73 72
f 31 72 32
f 32 72 71
f 32 71 33
f 71 87 33
f 33 87 86
f 33 86 34
f 34 86 85
f 34 85 35
f 35 85 84
f 35 84 42
f 42 84 83
f 42 83 43
f 43 83 82
f 43 82 45
f 45 82 81
f 45 81 44
f 44 81 80
f 44 80 30
f 30 80 79
f 30 79 93
f 93 25 30

