# https://github.com/mikedh/trimesh
v 0.00800000 -0.05045405 -0.03520000
v 0.00700000 -0.05060249 -0.03520000
v 0.00350829 -0.05096377 -0.03520000
v 0.00000001 -0.05108439 -0.03520000
v -0.00350826 -0.05096377 -0.03520000
v -0.00699997 -0.05060249 -0.03520000
v -0.00799997 -0.05045405 -0.03520000
v 0.00800000 -0.05045405 -0.02776506
v 0.00000001 -0.05108439 -0.02776506
v 0.00350829 -0.05096377 -0.02776506
v 0.00700000 -0.05060249 -0.02776506
v -0.00799997 -0.05045405 -0.02776506
v -0.00350826 -0.05096377 -0.02776506
v -0.00699997 -0.05060249 -0.02776506
f 9 4 3
f 4 9 13
f 4 13 5
f 5 13 14
f 5 14 6
f 14 12 6
f 6 12 7
f 9 3 10
f 10 3 2
f 10 2 11
f 2 1 11
f 11 1 8

