# https://github.com/mikedh/trimesh
v -0.07442658 -0.04426992 -0.20129785
v -0.09860480 -0.04415584 -0.16334523
v -0.08573414 -0.04423175 -0.21146582
v -0.11259883 -0.04410497 -0.16929625
v -0.10914713 -0.04411872 -0.17006148
v -0.11005625 -0.04411541 -0.17041503
v -0.11103147 -0.04411162 -0.17039375
v -0.11192430 -0.04410795 -0.17000088
v -0.08496890 -0.04423282 -0.20801409
v -0.08567353 -0.04423047 -0.20868863
v -0.08606640 -0.04422944 -0.20958146
v -0.08608767 -0.04422989 -0.21055669
f 3 4 12
f 12 4 11
f 11 4 10
f 10 4 8
f 10 8 7
f 7 6 10
f 10 6 5
f 10 5 9
f 9 5 1
f 5 2 1

