# https://github.com/mikedh/trimesh
v -0.00048023 0.04328860 -0.00052774
v -0.00050597 0.04200720 -0.01352707
v -0.00081670 -0.04375206 -0.00048311
v -0.00083258 -0.04248384 -0.01348376
v -0.00591902 -0.04361226 -0.00048335
v -0.00901522 -0.04348507 -0.00048351
v -0.02749551 -0.04153644 -0.00048513
v -0.02466030 -0.04203903 -0.00048478
v -0.02354508 -0.04220801 -0.00048465
v -0.05145704 -0.00003532 -0.00050721
v -0.05141911 -0.00437469 -0.00050498
v -0.05126983 -0.00853241 -0.00050284
v -0.05099453 -0.01250521 -0.00050079
v -0.01880096 -0.04278689 -0.00048419
v -0.01311026 -0.04325582 -0.00048377
v -0.05057316 -0.01629064 -0.00049885
v -0.05018354 -0.01879309 -0.00049754
v -0.04966575 -0.02135880 -0.00049622
v -0.03722939 -0.03848292 -0.00048701
v -0.03661299 -0.03877113 -0.00048684
v -0.04903094 -0.02380293 -0.00049494
v -0.04826374 -0.02612193 -0.00049371
v -0.04734264 -0.02831450 -0.00049256
v -0.04702763 -0.02895849 -0.00049223
v -0.04600352 -0.03077509 -0.00049125
v -0.04525568 -0.03188976 -0.00049066
v -0.04483297 -0.03245724 -0.00049036
v -0.04350645 -0.03400236 -0.00048952
v -0.04268741 -0.03481242 -0.00048907
v -0.03401031 -0.03980885 -0.00048623
v -0.03110762 -0.04070080 -0.00048568
v -0.04104899 -0.03618140 -0.00048833
v -0.03923484 -0.03740093 -0.00048764
v -0.05137557 0.00463340 -0.00050960
v -0.00536610 0.04319420 -0.00052784
v -0.02818093 0.04107951 -0.00052753
v -0.02948251 0.04079401 -0.00052741
v -0.03071483 0.04049211 -0.00052730
v -0.01004258 0.04302770 -0.00052792
v -0.01450706 0.04277917 -0.00052793
v -0.01875679 0.04243544 -0.00052791
v -0.04848029 0.02486207 -0.00051987
v -0.04860811 0.02447666 -0.00051969
v -0.04757569 0.02722230 -0.00052106
v -0.04940164 0.02168374 -0.00051828
v -0.04981213 0.01987040 -0.00051737
v -0.05008046 0.01848247 -0.00051666
v -0.02278880 0.04197848 -0.00052780
v -0.02659595 0.04138693 -0.00052763
v -0.05064108 0.01476735 -0.00051477
v -0.05110342 0.00999320 -0.00051233
v -0.03312251 0.03979525 -0.00052703
v -0.03540016 0.03897134 -0.00052667
v -0.03754207 0.03800297 -0.00052625
v -0.03824537 0.03763333 -0.00052609
v -0.04002360 0.03655473 -0.00052559
v -0.04141631 0.03553250 -0.00052512
v -0.04166324 0.03533148 -0.00052503
v -0.04316116 0.03395437 -0.00052436
v -0.04398682 0.03305753 -0.00052393
v -0.04534111 0.03130273 -0.00052308
v -0.04653161 0.02936522 -0.00052213
v -0.03506345 0.03885179 -0.00559064
v -0.03743761 0.03788517 -0.00512938
v -0.03013675 0.04022749 -0.00655669
v -0.05102394 0.01897123 -0.01351694
v -0.05002811 0.01977383 -0.00268644
v -0.04872068 0.02472706 -0.00294952
v -0.05166627 -0.00003550 -0.00257939
v -0.05131361 0.00968822 -0.00241176
v -0.05261562 -0.00003752 -0.01350725
v -0.05254251 0.00420514 -0.01350943
v -0.05227849 0.00942047 -0.01351209
v -0.05083535 0.01475202 -0.00251684
v -0.05199863 0.01256694 -0.01351370
v -0.04968519 0.02394974 -0.01351945
v -0.04781344 0.02710862 -0.00312787
v -0.04818254 0.02754886 -0.01352125
v -0.04668836 0.02939817 -0.00334646
v -0.04531486 0.03155010 -0.00361172
v -0.04624813 0.03071110 -0.01352280
v -0.04367942 0.03350943 -0.00392642
v -0.04179306 0.03523084 -0.00428890
v -0.04374541 0.03349682 -0.01352415
v -0.04264734 0.03442975 -0.01352459
v -0.03719582 0.03757348 -0.01352603
v -0.04093168 0.03564368 -0.01352515
v -0.03969457 0.03668832 -0.00469296
v -0.03089068 0.03953950 -0.01352682
v -0.03303896 0.03899699 -0.01352662
v -0.03586826 0.03809291 -0.01352625
v -0.01314650 0.04165044 -0.01352731
v -0.00995845 0.04207364 -0.01061712
v -0.02066913 0.04110363 -0.01352728
v -0.02006609 0.04160640 -0.00856679
v -0.02144998 0.04102482 -0.01352727
v -0.02512803 0.04107994 -0.00755158
v -0.00049308 0.04265172 -0.00702779
v -0.02791946 0.04013868 -0.01352703
v -0.02098815 -0.04142440 -0.01348497
v -0.01346998 -0.04202935 -0.01348441
v -0.05235162 -0.00949783 -0.01350239
v -0.02176836 -0.04133955 -0.01348504
v -0.02823080 -0.04040345 -0.01348573
v -0.03119730 -0.03978130 -0.01348615
v -0.03334132 -0.03922220 -0.01348651
v -0.03616356 -0.03829627 -0.01348708
v -0.03748706 -0.03776659 -0.01348740
v -0.05209609 -0.01264636 -0.01350076
v -0.04291410 -0.03458081 -0.01348921
v -0.04400493 -0.03363942 -0.01348973
v -0.01028529 -0.04247422 -0.01057375
v -0.02038900 -0.04192674 -0.00852396
v -0.03044868 -0.04046796 -0.00651533
v -0.03536460 -0.03905320 -0.00555069
v -0.03773122 -0.03806779 -0.00509043
v -0.03997885 -0.03685309 -0.00465525
v -0.04120788 -0.03580798 -0.01348852
v -0.04206600 -0.03537901 -0.00425270
v -0.04393900 -0.03364271 -0.00389199
v -0.04555924 -0.03167045 -0.00357930
v -0.04648605 -0.03083444 -0.01349125
v -0.04691606 -0.02950770 -0.00331626
v -0.04839595 -0.02765732 -0.01349294
v -0.05257532 -0.00428061 -0.01350507
v -0.05138880 -0.00976164 -0.00240178
v -0.05094970 -0.01482909 -0.00250167
v -0.04802341 -0.02720930 -0.00310001
v -0.04891222 -0.02482061 -0.00292411
v -0.05018131 -0.01985716 -0.00266612
v -0.04987073 -0.02404671 -0.01349485
v -0.05117095 -0.01905801 -0.01349745
v -0.02544671 -0.04136012 -0.00750930
v -0.00082465 -0.04312177 -0.00698380
f 52 63 64
f 64 53 52
f 64 54 53
f 88 54 64
f 64 87 88
f 64 86 87
f 85 88 87
f 83 88 85
f 84 83 85
f 82 83 84
f 82 59 83
f 83 59 58
f 83 58 57
f 57 56 83
f 82 60 59
f 61 60 82
f 82 80 61
f 61 80 79
f 61 79 62
f 62 79 77
f 62 77 44
f 44 77 68
f 76 68 77
f 76 77 78
f 66 68 76
f 66 67 68
f 75 67 66
f 74 67 75
f 73 74 75
f 73 70 74
f 70 50 74
f 70 51 50
f 34 51 70
f 69 34 70
f 69 10 34
f 69 11 10
f 69 12 11
f 126 12 69
f 69 125 126
f 69 71 125
f 71 69 72
f 102 126 125
f 109 126 102
f 109 127 126
f 132 127 109
f 132 130 127
f 131 130 132
f 131 129 130
f 124 129 131
f 124 128 129
f 128 21 129
f 128 22 21
f 23 22 128
f 123 23 128
f 24 23 123
f 24 123 25
f 25 123 121
f 122 121 123
f 122 123 124
f 111 121 122
f 111 120 121
f 120 28 121
f 121 28 27
f 121 27 26
f 120 29 28
f 119 29 120
f 110 119 120
f 118 119 110
f 118 117 119
f 117 32 119
f 117 33 32
f 116 33 117
f 108 116 117
f 107 116 108
f 107 115 116
f 106 115 107
f 114 115 106
f 114 30 115
f 114 31 30
f 114 7 31
f 133 7 114
f 133 8 7
f 9 8 133
f 133 113 9
f 133 104 113
f 104 103 113
f 113 103 100
f 113 100 101
f 101 112 113
f 4 112 101
f 134 112 4
f 134 5 112
f 5 6 112
f 112 6 15
f 3 5 134
f 112 15 113
f 113 15 14
f 113 14 9
f 114 104 133
f 114 105 104
f 115 30 20
f 106 105 114
f 115 20 116
f 116 20 19
f 116 19 33
f 108 117 118
f 119 32 29
f 110 120 111
f 25 121 26
f 129 21 18
f 123 128 124
f 129 18 130
f 130 18 17
f 130 17 127
f 127 17 16
f 127 16 13
f 127 13 126
f 126 13 12
f 72 69 70
f 72 70 73
f 74 50 67
f 50 47 67
f 67 47 46
f 67 46 45
f 67 45 68
f 68 45 43
f 68 43 42
f 44 68 42
f 77 79 78
f 78 79 80
f 78 80 81
f 82 81 80
f 84 81 82
f 83 56 88
f 56 55 88
f 88 55 54
f 52 38 63
f 63 38 65
f 63 65 89
f 89 65 97
f 65 49 97
f 97 49 48
f 97 48 41
f 97 41 95
f 95 96 97
f 95 94 96
f 93 94 95
f 95 40 93
f 93 40 39
f 93 39 35
f 98 93 35
f 98 35 1
f 2 93 98
f 2 92 93
f 93 92 94
f 99 97 96
f 95 41 40
f 65 36 49
f 37 36 65
f 89 97 99
f 89 90 63
f 63 90 91
f 63 91 86
f 38 37 65
f 63 86 64

