# https://github.com/mikedh/trimesh
v -0.00000001 -0.00553584 0.00425350
v -0.00000001 -0.00546217 0.00409552
v -0.00000001 -0.00536219 0.00395273
v -0.00000001 -0.00523893 0.00382947
v -0.00000001 -0.00509615 0.00372949
v -0.00000000 -0.00459614 0.00359552
v -0.00000000 -0.00468330 0.00359932
v -0.00000001 -0.00476979 0.00361071
v -0.00000001 -0.00485497 0.00362959
v -0.00000001 -0.00546217 0.00509552
v -0.00000001 -0.00536219 0.00523831
v -0.00000001 -0.00553584 0.00493754
v -0.00000001 -0.00558095 0.00476917
v -0.00000001 -0.00559615 0.00459552
v -0.00000001 -0.00501876 0.00368921
v -0.00000001 -0.00493817 0.00365583
v -0.00000001 -0.00433733 0.00556144
v -0.00000001 -0.00442250 0.00558033
v -0.00000001 -0.00459614 0.00559552
v -0.00000001 -0.00468330 0.00559171
v -0.00000001 -0.00383010 0.00395273
v -0.00000001 -0.00395336 0.00382947
v -0.00000001 -0.00409615 0.00372949
v -0.00000001 -0.00365645 0.00493754
v -0.00000001 -0.00373012 0.00509552
v -0.00000001 -0.00383010 0.00523831
v -0.00000001 -0.00395336 0.00536156
v -0.00000001 -0.00409615 0.00546154
v -0.00000001 -0.00417353 0.00550183
v -0.00000001 -0.00425413 0.00553521
v -0.00000001 -0.00476979 0.00558033
v -0.00000001 -0.00485497 0.00556144
v -0.00000001 -0.00493817 0.00553521
v -0.00000001 -0.00558095 0.00442187
v -0.00000001 -0.00523893 0.00536156
v -0.00000001 -0.00509615 0.00546154
v -0.00000001 -0.00501876 0.00550183
v -0.00000001 -0.00373012 0.00409552
v -0.00000001 -0.00365645 0.00425350
v -0.00000001 -0.00361134 0.00442187
v -0.00000000 -0.00450899 0.00359932
v -0.00000000 -0.00442250 0.00361071
v -0.00000001 -0.00359615 0.00459552
v -0.00000001 -0.00361134 0.00476917
v -0.00000000 -0.00433733 0.00362959
v -0.00000000 -0.00425413 0.00365583
v -0.00000001 -0.00417353 0.00368921
v 0.06113236 -0.00425413 0.00365501
v 0.06113236 -0.00442250 0.00360990
v 0.06113236 -0.00459614 0.00359470
v 0.06113236 -0.00476979 0.00360990
v 0.06113236 -0.00383010 0.00395192
v 0.06113236 -0.00395336 0.00382866
v 0.06113236 -0.00409615 0.00372868
v 0.06113236 -0.00361134 0.00442106
v 0.06113236 -0.00365645 0.00425268
v 0.06113236 -0.00373012 0.00409470
v 0.06113237 -0.00365645 0.00493672
v 0.06113237 -0.00361134 0.00476835
v 0.06113237 -0.00359615 0.00459470
v 0.06113238 -0.00395336 0.00536075
v 0.06113238 -0.00383010 0.00523749
v 0.06113238 -0.00373012 0.00509470
v 0.06113238 -0.00442250 0.00557951
v 0.06113238 -0.00425413 0.00553440
v 0.06113238 -0.00409615 0.00546073
v 0.06113238 -0.00493817 0.00553440
v 0.06113239 -0.00476979 0.00557951
v 0.06113239 -0.00459614 0.00559470
v 0.06113238 -0.00536219 0.00523749
v 0.06113238 -0.00523893 0.00536075
v 0.06113238 -0.00509615 0.00546073
v 0.06113237 -0.00558095 0.00476835
v 0.06113237 -0.00553584 0.00493672
v 0.06113238 -0.00546217 0.00509470
v 0.06113236 -0.00553584 0.00425268
v 0.06113237 -0.00558095 0.00442106
v 0.06113237 -0.00559614 0.00459470
v 0.06113236 -0.00523893 0.00382866
v 0.06113236 -0.00536219 0.00395192
v 0.06113236 -0.00546217 0.00409470
v 0.06113236 -0.00493817 0.00365501
v 0.06113236 -0.00509615 0.00372868
f 31 20 68
f 31 68 32
f 32 68 67
f 32 67 33
f 33 67 37
f 37 67 72
f 37 72 36
f 36 72 71
f 36 71 35
f 35 71 70
f 35 70 11
f 11 70 75
f 11 75 10
f 10 75 74
f 10 74 12
f 12 74 73
f 12 73 13
f 13 73 78
f 13 78 14
f 14 78 77
f 14 77 34
f 34 77 76
f 34 76 1
f 1 76 81
f 1 81 2
f 2 81 80
f 2 80 3
f 3 80 79
f 3 79 4
f 4 79 83
f 4 83 5
f 83 15 5
f 83 16 15
f 82 16 83
f 82 9 16
f 8 9 82
f 82 51 8
f 51 7 8
f 51 6 7
f 50 6 51
f 50 41 6
f 42 41 50
f 50 49 42
f 49 45 42
f 49 46 45
f 48 46 49
f 48 47 46
f 23 47 48
f 54 23 48
f 53 23 54
f 53 22 23
f 52 22 53
f 52 21 22
f 57 21 52
f 57 38 21
f 56 38 57
f 56 39 38
f 55 39 56
f 55 40 39
f 60 40 55
f 60 43 40
f 59 43 60
f 59 44 43
f 58 44 59
f 58 24 44
f 63 24 58
f 63 25 24
f 62 25 63
f 62 26 25
f 61 26 62
f 61 27 26
f 66 27 61
f 66 28 27
f 66 29 28
f 65 29 66
f 65 30 29
f 65 17 30
f 64 17 65
f 64 18 17
f 69 18 64
f 69 19 18
f 20 19 69
f 68 20 69

