# https://github.com/mikedh/trimesh
v 0.06113224 -0.00425413 -0.00553738
v 0.06113224 -0.00442250 -0.00558249
v 0.06113224 -0.00459614 -0.00459768
v 0.06113224 -0.00459614 -0.00559768
v 0.06113224 -0.00476979 -0.00558249
v 0.06113224 -0.00383010 -0.00524047
v 0.06113224 -0.00395336 -0.00536373
v 0.06113224 -0.00409615 -0.00546371
v 0.06113224 -0.00361134 -0.00477133
v 0.06113224 -0.00365645 -0.00493970
v 0.06113224 -0.00373012 -0.00509768
v 0.06113225 -0.00365645 -0.00425566
v 0.06113224 -0.00361134 -0.00442404
v 0.06113224 -0.00359615 -0.00459768
v 0.06113226 -0.00395336 -0.00383164
v 0.06113225 -0.00383010 -0.00395490
v 0.06113225 -0.00373012 -0.00409768
v 0.06113226 -0.00442250 -0.00361288
v 0.06113226 -0.00425413 -0.00365799
v 0.06113226 -0.00409615 -0.00373166
v 0.06113226 -0.00493817 -0.00365799
v 0.06113226 -0.00476979 -0.00361288
v 0.06113226 -0.00459614 -0.00359768
v 0.06113226 -0.00536219 -0.00395490
v 0.06113226 -0.00523893 -0.00383164
v 0.06113226 -0.00509615 -0.00373166
v 0.06113225 -0.00558095 -0.00442404
v 0.06113225 -0.00553584 -0.00425566
v 0.06113225 -0.00546217 -0.00409768
v 0.06113224 -0.00553584 -0.00493970
v 0.06113224 -0.00558095 -0.00477133
v 0.06113224 -0.00559614 -0.00459768
v 0.06113224 -0.00523893 -0.00536373
v 0.06113224 -0.00536219 -0.00524047
v 0.06113224 -0.00546217 -0.00509768
v 0.06113224 -0.00493817 -0.00553738
v 0.06113224 -0.00509615 -0.00546371
f 1 2 3
f 3 8 1
f 3 7 8
f 6 7 3
f 3 11 6
f 3 10 11
f 9 10 3
f 3 14 9
f 3 13 14
f 12 13 3
f 3 17 12
f 3 16 17
f 15 16 3
f 3 20 15
f 3 19 20
f 18 19 3
f 3 23 18
f 3 22 23
f 21 22 3
f 3 26 21
f 3 25 26
f 24 25 3
f 3 29 24
f 3 28 29
f 27 28 3
f 3 32 27
f 3 31 32
f 30 31 3
f 3 35 30
f 3 34 35
f 33 34 3
f 3 37 33
f 3 36 37
f 5 36 3
f 3 4 5
f 3 2 4

