# https://github.com/mikedh/trimesh
v -0.01928331 -0.01693524 0.07956474
v -0.01938157 -0.01578428 0.07969902
v -0.01997302 -0.01619256 0.07669444
v 0.01872288 -0.00037986 0.08186782
v 0.01916026 -0.00014862 0.07669147
v 0.01943913 0.01530364 0.07669196
v 0.01869391 0.00625876 0.05546084
v 0.01844793 -0.00509541 0.04566578
v 0.01824988 0.00207438 0.05124207
v 0.01858597 -0.00809574 0.04110819
v 0.02016319 -0.01639523 0.04050561
v 0.02009459 -0.01290080 0.03020381
v 0.02128402 -0.00945685 0.02396896
v 0.01947522 -0.00741832 0.02941936
v 0.02552667 -0.00726580 0.00566356
v 0.02545779 0.00163779 0.00548114
v 0.02498752 -0.00188668 0.01045199
v 0.02375386 -0.01706368 0.00545725
v 0.02370224 -0.01681295 0.00543287
v 0.02494161 -0.01088371 0.00543248
v 0.01820292 0.02621860 0.00543131
v 0.00597573 0.03135304 0.00544257
v 0.01287743 0.02999590 0.01079618
v 0.01964327 0.02454606 0.01109851
v 0.02302451 0.01731026 0.00543424
v 0.02026024 -0.01835449 0.07666846
v 0.01876796 -0.00465535 0.07972664
v 0.01991748 -0.01693382 0.07956508
v 0.01994215 -0.01711581 0.07951161
v 0.01998738 -0.01744938 0.07941362
v 0.02012186 -0.01835449 0.07898784
v 0.01880573 -0.00132649 0.08081661
v 0.01872820 -0.00044315 0.08179560
v 0.01883609 -0.00218673 0.08030173
v 0.01884789 -0.00254797 0.08009623
v 0.01829193 0.00372722 0.08613214
v 0.01829800 0.01178382 0.08682384
v 0.01832538 0.00305381 0.08580638
v 0.01834359 0.00268733 0.08562910
v 0.01837541 0.00226857 0.08533157
v 0.01846323 0.00145080 0.08451448
v 0.01849264 0.00124752 0.08423900
v 0.01896791 0.01543282 0.08179817
v 0.01913582 0.02722613 0.08345837
v 0.01874588 0.02175979 0.08417636
v 0.01873851 0.02159503 0.08422431
v 0.01866538 0.02055716 0.08472647
v 0.01865143 0.02040997 0.08482371
v 0.01854797 0.01937752 0.08553227
v 0.01846441 0.01835720 0.08607104
v 0.01844601 0.01802747 0.08617956
v -0.01828452 0.02300631 0.08172603
v -0.01799225 0.02055343 0.08472884
v -0.01793067 0.02158573 0.08422756
v -0.01791718 0.02175989 0.08417666
v -0.01794767 0.02990885 0.08383382
v -0.01804247 0.01937752 0.08553227
v -0.01799748 0.02040997 0.08482371
v -0.01909239 0.01865168 0.08179614
v -0.01855329 0.01691753 0.08644006
v -0.01812475 0.01852951 0.08598344
v -0.01936748 0.00260361 0.08181418
v -0.01844227 0.00281969 0.08570004
v -0.02042148 0.00794114 0.08182289
v -0.01846323 0.00305193 0.08580968
v -0.01979559 0.01015315 0.08685485
v -0.01897870 -0.00127670 0.08085201
v -0.01883661 -0.00037847 0.08186976
v -0.01850615 0.00124752 0.08423900
v -0.01846846 0.00149271 0.08456667
v -0.01842387 0.00229642 0.08535343
v -0.01843525 0.00274196 0.08566333
v -0.01904718 -0.00218660 0.08030143
v -0.02050316 0.00236214 0.07669950
v -0.01957822 -0.00838439 0.07946531
v -0.01907521 -0.00261388 0.08007255
v -0.01907188 -0.00254089 0.08009924
v -0.02039084 -0.01835449 0.07260311
v -0.01915408 -0.01835449 0.07898784
v -0.01923816 -0.01744505 0.07941514
v -0.01926731 -0.01711585 0.07951175
v -0.02158714 -0.01833788 0.06542052
v -0.02261752 -0.02035082 0.03015492
v -0.02269910 -0.01986950 0.03041205
v -0.02313169 -0.01681222 0.03020230
v -0.02275114 -0.01956252 0.03057605
v -0.02285265 -0.01896380 0.03113243
v -0.02288837 -0.01876491 0.03148561
v -0.02294977 -0.01844572 0.03224784
v -0.02259741 -0.02046893 0.03011573
v -0.02312277 -0.01689657 0.02512752
v -0.02247629 -0.02162199 0.02995561
v 0.02046969 -0.01848685 0.03210079
v 0.02048812 -0.01852504 0.03198494
v 0.02057965 -0.01878440 0.03149693
v 0.02063631 -0.01894494 0.03119486
v 0.02077644 -0.01948974 0.03060376
v 0.02084554 -0.01985933 0.03039525
v 0.02086839 -0.01982907 0.03020351
v 0.02084678 -0.01986681 0.03039205
v 0.02123552 -0.02275629 0.02979402
v 0.02035420 -0.01835449 0.03298205
v 0.02046002 -0.01831074 0.06265104
v 0.01918281 -0.00651651 0.07596801
v 0.00071771 0.04340063 0.08388240
v 0.01116392 0.04194590 0.05603866
v 0.00187310 0.04319544 0.04414383
v -0.01506032 0.04225770 0.05273100
v -0.00031277 0.04264943 0.03658591
v -0.00687992 0.04252405 0.08393274
v -0.01572504 0.04036569 0.08374774
v -0.01238909 0.04143750 0.08394425
v -0.01926354 0.03998458 0.05109893
v -0.02153938 0.03595201 0.04858588
v -0.02073958 0.03672537 0.06600299
v -0.01986127 0.02279911 0.07409927
v -0.01692177 0.03781099 0.08394655
v -0.02278249 0.00916684 0.07096535
v -0.02254959 -0.01831009 0.05740339
v -0.02289404 0.01720367 0.05888333
v 0.01586576 0.04081163 0.08394448
v 0.01601783 0.04025833 0.06209015
v 0.01788693 0.03909515 0.06612004
v 0.02012965 0.03405527 0.08328802
v 0.01981550 0.01552068 0.06961776
v 0.02049733 -0.01835449 0.06060727
v 0.02005066 -0.01835496 0.04691081
v 0.01957867 0.01319084 0.06320690
v 0.01983546 0.02418889 0.06499965
v 0.01915475 0.03557764 0.06471872
v -0.02322577 -0.01828376 0.03572395
v -0.02492066 0.01024801 0.01812351
v -0.01917447 -0.02406926 0.00542821
v -0.00683157 -0.03046163 0.00541093
v -0.01295658 -0.03954627 0.02997423
v 0.02052470 -0.03144006 0.02228942
v 0.02056462 -0.03489372 0.02997683
v 0.01732688 -0.03299608 0.01817066
v 0.01162814 -0.04067424 0.02996795
v 0.00376633 -0.03093778 0.00542688
v 0.02089117 -0.02236634 0.00310757
v 0.02199765 -0.02536318 0.01505534
v 0.01629202 -0.02773958 0.00542911
v 0.02168486 -0.02771528 0.02172509
v 0.02278981 -0.02173128 0.01682755
v 0.02432520 -0.00581706 0.01393162
v 0.02419474 0.01511125 0.00578499
v 0.00657194 0.03361211 0.01514626
v 0.00880012 0.03192252 0.01167389
v 0.00584156 0.03529371 0.01899521
v -0.01845096 -0.03472815 0.02996382
v -0.02364909 -0.01337553 0.00543375
v -0.01059244 0.03796655 0.02836035
v -0.02457489 0.00928136 0.04651592
v -0.00817040 0.02967362 0.00542535
v -0.01540985 0.02575046 0.00544760
v -0.02212570 0.02840555 0.02946956
v -0.02222814 0.03147003 0.05345144
v -0.01779815 0.03779715 0.03839997
v -0.01448353 0.03879177 0.03465933
v -0.00398508 -0.04149533 0.02997925
v -0.00828507 -0.04095157 0.02997876
v -0.01617395 -0.03721637 0.02998028
v -0.02456224 0.00438106 0.00543865
v -0.02328278 0.01377627 0.00544111
v -0.02309282 -0.01835434 0.04971059
v 0.02322252 -0.01775203 0.00543309
v 0.02585933 0.00424032 0.00594601
v 0.02472371 -0.01044130 0.00543309
v 0.02507298 -0.00470565 0.00543309
v 0.01891108 0.03370029 0.06091322
v 0.01631423 0.03919942 0.05900441
v 0.01848089 0.03703890 0.06350653
v 0.01101438 0.02870600 0.03944483
v 0.01949807 0.03056863 0.06252574
v 0.01354170 0.01452891 0.04431482
v 0.01973733 0.01812791 0.06504427
v 0.01476857 -0.00148640 0.03554210
v 0.02077525 0.01584792 0.01788753
v 0.01428867 0.01616106 0.03427958
v 0.01410416 0.00386196 0.04002523
v 0.01621793 -0.00300363 0.03251863
v 0.01710850 -0.00117030 0.02529178
v 0.01798417 -0.00716162 0.03721445
v 0.01508324 -0.00127173 0.04050172
v 0.01695779 0.02577388 0.01569893
v 0.01523412 0.02869791 0.01129095
v 0.01459659 0.00985340 0.04890210
v 0.00613184 0.04169754 0.04301609
v 0.00881991 0.03355266 0.02284347
v 0.01407641 0.02189621 0.03028137
v 0.01561871 -0.00013678 0.04349187
v 0.02132005 0.02038702 0.01339071
v 0.02349448 0.01223935 0.01283161
v 0.02476167 0.00332248 0.01061099
v 0.02477224 -0.00038306 0.01089693
v 0.02148826 -0.00620080 0.02057603
v 0.02393521 0.01197438 0.01158368
v 0.02219667 0.01860488 0.01283384
v 0.00488661 0.04080163 0.03596436
v 0.00764811 0.04237289 0.04992459
v 0.01976771 0.02214351 0.06483517
v 0.01967162 0.01570500 0.06456893
v 0.02063706 -0.00746055 0.02449406
v 0.02493865 -0.00039381 0.01037172
v 0.00353085 0.03234522 -0.00000000
v 0.02516868 0.01590100 0.00000000
v 0.00666210 -0.03100247 -0.00000000
v -0.01857002 -0.02488960 -0.00000000
v -0.02370972 0.01736929 -0.00000000
f 1 2 3
f 4 5 6
f 7 8 9
f 10 8 11
f 12 13 14
f 12 14 11
f 15 16 17
f 18 19 20
f 21 22 23
f 24 25 21
f 26 27 28
f 28 29 26
f 26 29 30
f 26 30 31
f 32 5 33
f 33 5 4
f 5 32 34
f 5 34 35
f 36 6 37
f 36 38 6
f 6 38 39
f 6 39 40
f 40 41 6
f 6 41 42
f 6 42 4
f 43 44 45
f 45 46 43
f 43 46 47
f 43 47 48
f 48 49 43
f 43 49 50
f 43 50 51
f 51 37 43
f 52 53 54
f 54 55 52
f 52 55 56
f 57 58 59
f 59 60 61
f 59 61 57
f 62 63 64
f 64 63 65
f 65 66 64
f 67 68 62
f 62 68 69
f 62 69 70
f 70 71 62
f 62 71 72
f 62 72 63
f 73 67 74
f 75 76 74
f 74 76 77
f 74 77 73
f 3 2 75
f 78 79 80
f 78 80 3
f 3 80 81
f 3 81 1
f 75 82 78
f 83 84 85
f 85 84 86
f 85 86 87
f 85 87 88
f 85 88 89
f 90 91 92
f 93 94 12
f 12 94 95
f 95 96 12
f 12 96 97
f 97 98 99
f 99 98 100
f 99 100 101
f 12 11 102
f 12 102 93
f 103 104 26
f 26 104 27
f 44 43 6
f 6 43 37
f 105 106 107
f 108 105 109
f 109 105 107
f 108 110 105
f 111 112 110
f 113 114 111
f 111 114 115
f 66 60 59
f 66 59 116
f 117 111 115
f 117 115 56
f 56 116 52
f 74 67 62
f 74 62 118
f 118 62 64
f 118 64 66
f 11 8 7
f 75 119 82
f 66 120 118
f 118 75 74
f 113 111 108
f 108 111 110
f 106 105 121
f 106 121 122
f 122 121 123
f 124 123 121
f 125 44 6
f 125 6 5
f 125 5 103
f 126 127 103
f 104 103 5
f 104 5 27
f 27 5 35
f 127 11 103
f 103 11 7
f 103 7 125
f 125 7 128
f 125 129 44
f 44 129 124
f 124 130 123
f 89 131 85
f 85 131 132
f 133 134 135
f 136 137 138
f 138 137 139
f 140 139 134
f 141 18 142
f 142 143 141
f 136 144 137
f 137 144 101
f 97 99 12
f 12 99 101
f 12 101 13
f 13 101 145
f 13 145 146
f 146 145 142
f 146 142 15
f 15 142 18
f 15 18 20
f 25 24 147
f 148 149 22
f 109 150 148
f 109 148 22
f 145 101 144
f 145 144 136
f 145 136 142
f 142 136 143
f 143 136 138
f 143 138 139
f 143 139 140
f 133 151 152
f 153 109 22
f 90 83 91
f 91 83 85
f 91 85 132
f 120 154 118
f 118 154 75
f 22 155 153
f 153 155 156
f 153 156 157
f 154 119 75
f 3 75 78
f 120 66 116
f 154 120 115
f 115 158 154
f 154 158 114
f 114 113 157
f 157 159 153
f 153 159 160
f 58 53 59
f 59 53 52
f 59 52 116
f 120 116 56
f 120 56 115
f 158 115 114
f 157 113 159
f 159 113 160
f 160 113 108
f 160 108 153
f 153 108 109
f 134 139 161
f 134 161 162
f 134 162 135
f 133 135 163
f 133 163 151
f 152 151 92
f 152 92 91
f 152 91 132
f 152 132 164
f 164 132 165
f 156 165 157
f 132 157 165
f 114 157 154
f 154 157 132
f 154 132 131
f 154 131 166
f 154 166 119
f 167 18 141
f 18 167 19
f 147 168 25
f 169 20 19
f 169 19 167
f 15 170 16
f 170 15 20
f 170 20 169
f 171 172 173
f 174 172 171
f 175 176 171
f 176 175 177
f 171 176 174
f 178 179 180
f 178 180 181
f 178 182 183
f 178 184 182
f 182 14 183
f 181 185 178
f 178 183 179
f 186 187 148
f 7 188 176
f 189 174 190
f 172 174 189
f 190 191 186
f 191 190 180
f 180 190 174
f 188 192 176
f 176 192 185
f 176 185 181
f 176 181 180
f 176 180 174
f 191 180 179
f 191 179 186
f 186 179 193
f 194 179 183
f 194 183 195
f 195 183 196
f 196 183 197
f 151 162 161
f 101 161 139
f 137 101 139
f 161 92 151
f 161 101 92
f 162 151 135
f 135 151 163
f 168 195 16
f 195 168 194
f 198 168 147
f 179 147 199
f 147 24 199
f 24 193 199
f 199 193 179
f 24 186 193
f 24 187 186
f 187 24 21
f 187 21 23
f 23 22 149
f 150 186 148
f 150 190 186
f 150 109 200
f 200 109 107
f 200 189 190
f 200 107 189
f 189 107 201
f 201 107 106
f 172 122 173
f 173 122 123
f 130 171 123
f 123 171 173
f 130 124 175
f 175 171 130
f 129 175 124
f 202 177 175
f 202 175 129
f 177 129 125
f 177 125 203
f 177 203 176
f 203 128 176
f 128 203 125
f 188 7 9
f 9 192 188
f 11 184 178
f 178 10 11
f 11 14 182
f 11 182 184
f 204 183 14
f 204 197 183
f 168 198 194
f 194 198 147
f 194 147 179
f 187 23 149
f 187 149 148
f 150 200 190
f 189 201 172
f 172 201 106
f 172 106 122
f 202 129 177
f 128 7 176
f 9 8 192
f 192 8 10
f 192 10 185
f 185 10 178
f 14 13 204
f 204 13 197
f 13 146 197
f 196 197 146
f 196 146 17
f 17 146 15
f 196 17 205
f 205 17 16
f 205 16 195
f 205 195 196
f 29 80 30
f 30 80 79
f 30 79 31
f 28 27 2
f 28 2 1
f 28 1 29
f 29 1 81
f 29 81 80
f 27 75 2
f 32 33 73
f 4 68 33
f 33 68 67
f 33 67 73
f 76 35 77
f 77 35 34
f 77 34 73
f 73 34 32
f 75 27 76
f 76 27 35
f 42 69 4
f 4 69 68
f 37 66 36
f 36 66 65
f 36 65 38
f 65 63 38
f 38 63 72
f 38 72 39
f 39 72 71
f 69 42 70
f 70 42 41
f 70 41 71
f 71 41 40
f 71 40 39
f 37 60 66
f 49 57 50
f 50 57 61
f 50 61 51
f 61 60 51
f 51 60 37
f 57 49 58
f 58 49 48
f 53 58 48
f 44 56 45
f 45 56 55
f 45 55 46
f 46 55 47
f 47 55 54
f 47 54 48
f 48 54 53
f 56 44 124
f 56 124 121
f 56 112 111
f 121 105 56
f 117 56 111
f 105 110 56
f 56 110 112
f 206 155 22
f 206 22 21
f 206 21 207
f 207 21 25
f 207 25 168
f 207 168 16
f 207 16 170
f 207 170 169
f 207 169 167
f 207 167 141
f 141 143 208
f 208 143 140
f 208 140 134
f 208 134 209
f 209 134 133
f 209 133 152
f 209 152 210
f 210 152 164
f 210 164 165
f 210 165 156
f 210 156 206
f 206 156 155
f 207 210 206
f 207 141 210
f 210 141 208
f 208 209 210
f 11 131 102
f 127 166 131
f 127 131 11
f 31 79 26
f 26 79 78
f 26 78 103
f 82 127 126
f 78 82 103
f 103 82 126
f 82 119 127
f 127 119 166
f 102 131 89
f 102 89 93
f 93 89 88
f 93 88 94
f 94 88 95
f 95 88 87
f 84 97 96
f 84 96 86
f 86 96 95
f 86 95 87
f 83 98 84
f 84 98 97
f 92 101 100
f 92 100 90
f 90 100 98
f 90 98 83

