v -0.011566084466620939 0.018714317783744879 0
v 0.011566084466620939 0.018714317783744879 0
v -0.011566084466620939 -0.018714317783744879 0
v 0.011566084466620939 -0.018714317783744879 0
v 0 -0.0097951186284411049 0.025519524250561199
v 0 0.0097951186284411049 0.025519524250561199
v 0 -0.013337050304800771 -0.025519524250561199
v 0 0.013337050304800771 -0.025519524250561199
v 0.020485283621924713 0 -0.015771933363574006
v 0.016943351945565045 0 0.015771933363574006
v -0.020485283621924713 0 -0.015771933363574006
v -0.016943351945565045 0 0.015771933363574006
v -0.016808373876248846 0.010388146351137606 0.009270509831248424
v -0.0093981463511376047 0.0058083738762488429 0.02427050983124842
v -0.0061865202273864465 0.016196520227386445 0.014999999999999999
v 0.0061865202273864465 0.016196520227386445 0.014999999999999999
v 0 0.021999999999999999 0
v 0.0074102275251112393 0.019400227525111238 -0.014999999999999999
v -0.0074102275251112393 0.019400227525111238 -0.014999999999999999
v -0.012601853648862394 0.0077883738762488412 -0.02427050983124842
v -0.018788373876248845 0.011611853648862398 -0.009270509831248424
v -0.021999999999999999 0 0
v 0.0093981463511376047 0.0058083738762488429 0.02427050983124842
v 0.016808373876248846 0.010388146351137606 0.009270509831248424
v -0.0093981463511376047 -0.0058083738762488429 0.02427050983124842
v 0 0 0.029999999999999999
v -0.018788373876248845 -0.011611853648862398 -0.009270509831248424
v -0.016808373876248846 -0.010388146351137606 0.009270509831248424
v 0 0 -0.029999999999999999
v -0.012601853648862394 -0.0077883738762488412 -0.02427050983124842
v 0.018788373876248845 0.011611853648862398 -0.009270509831248424
v 0.012601853648862394 0.0077883738762488412 -0.02427050983124842
v 0.016808373876248846 -0.010388146351137606 0.009270509831248424
v 0.0093981463511376047 -0.0058083738762488429 0.02427050983124842
v 0.0061865202273864465 -0.016196520227386445 0.014999999999999999
v -0.0061865202273864465 -0.016196520227386445 0.014999999999999999
v 0 -0.021999999999999999 0
v -0.0074102275251112393 -0.019400227525111238 -0.014999999999999999
v 0.0074102275251112393 -0.019400227525111238 -0.014999999999999999
v 0.012601853648862394 -0.0077883738762488412 -0.02427050983124842
v 0.018788373876248845 -0.011611853648862398 -0.009270509831248424
v 0.021999999999999999 0 0
v -0.014821882233261335 0.014998475833943384 0.0048186610692006939
v -0.011941275550434408 0.013981088935865469 0.012759762125280598
v -0.0090990024690270829 0.01809087234495535 0.0077967573902326314
v -0.013516239958878956 0.0030923965110119648 0.020813414326813478
v -0.013538347476320512 0.0083671588918724383 0.017633557568774192
v -0.017496470694091666 0.0052710761350383949 0.013016656936580844
v -0.0030871388329483064 0.013334388680133251 0.021061393343284891
v -0.0081980467025550025 0.011329421901572011 0.020645728807067602
v -0.00482978786196985 0.008063312545094856 0.025880054412485583
v -0.0034050044692445314 0.019933243358493381 0.0078859666817870031
v -0.0060118636360787766 0.021162643871246181 0
v 0.0030871388329483064 0.013334388680133251 0.021061393343284891
v 0 0.016943351945565045 0.015771933363574006
v 0.0060118636360787766 0.021162643871246181 0
v 0.0034050044692445314 0.019933243358493381 0.0078859666817870031
v 0.0090990024690270829 0.01809087234495535 0.0077967573902326314
v -0.0037432288478794068 0.021913243358493383 -0.0078859666817870031
v -0.0099920943712914854 0.019866540793356841 -0.0077967573902326314
v 0.0099920943712914854 0.019866540793356841 -0.0077967573902326314
v 0.0037432288478794068 0.021913243358493383 -0.0078859666817870031
v -0.0039802307352127114 0.017191952332526517 -0.021061393343284891
v 0 0.02048528362192471 -0.015771933363574006
v 0.0039802307352127114 0.017191952332526517 -0.021061393343284891
v -0.013921275550434408 0.016299313314500345 -0.012759762125280598
v -0.015704458779398425 0.015891567736207788 -0.0048186610692006939
v -0.0066054563103713423 0.011027784295223712 -0.025880054412485583
v -0.010516271081189877 0.014533129199296802 -0.020645728807067602
v -0.020460942444220521 0.0061641680373027983 -0.013016656936580844
v -0.016742054774045306 0.010347158891872439 -0.017633557568774192
v -0.017373803611272221 0.0039749730571490534 -0.020813414326813478
v -0.018714317783744876 0.011566084466620941 0
v -0.022203591473242069 0 -0.0081979958673801517
v -0.021535097007355775 0.0059521544226279078 -0.0048737954434935954
v -0.020311389709630982 0.0056139300439930328 0.0048737954434935954
v -0.020121696269250301 0 0.0081979958673801517
v 0.011941275550434408 0.013981088935865469 0.012759762125280598
v 0.014821882233261335 0.014998475833943384 0.0048186610692006939
v 0.00482978786196985 0.008063312545094856 0.025880054412485583
v 0.0081980467025550025 0.011329421901572011 0.020645728807067602
v 0.017496470694091666 0.0052710761350383949 0.013016656936580844
v 0.013538347476320512 0.0083671588918724383 0.017633557568774192
v 0.013516239958878956 0.0030923965110119648 0.020813414326813478
v -0.004793042233310469 0.0029622630096995733 0.028531695488854609
v 0 0.0049709160340828916 0.028858150733517524
v -0.013516239958878956 -0.0030923965110119648 0.020813414326813478
v -0.0097951186284411049 0 0.025519524250561195
v 0 -0.0049709160340828916 0.028858150733517524
v -0.004793042233310469 -0.0029622630096995733 0.028531695488854609
v -0.00482978786196985 -0.008063312545094856 0.025880054412485583
v -0.020311389709630982 -0.0056139300439930328 0.0048737954434935954
v -0.017496470694091666 -0.0052710761350383949 0.013016656936580844
v -0.020460942444220521 -0.0061641680373027983 -0.013016656936580844
v -0.021535097007355775 -0.0059521544226279078 -0.0048737954434935954
v -0.014821882233261335 -0.014998475833943384 0.0048186610692006939
v -0.018714317783744876 -0.011566084466620941 0
v -0.015704458779398425 -0.015891567736207788 -0.0048186610692006939
v -0.013337050304800771 0 -0.025519524250561195
v -0.017373803611272221 -0.0039749730571490534 -0.020813414326813478
v 0 0.0070528112380746607 -0.028858150733517524
v -0.006773042233310469 0.0041859703074243644 -0.028531695488854609
v -0.0066054563103713423 -0.011027784295223712 -0.025880054412485583
v -0.006773042233310469 -0.0041859703074243644 -0.028531695488854609
v 0 -0.0070528112380746607 -0.028858150733517524
v 0.010516271081189877 0.014533129199296802 -0.020645728807067602
v 0.0066054563103713423 0.011027784295223712 -0.025880054412485583
v 0.015704458779398425 0.015891567736207788 -0.0048186610692006939
v 0.013921275550434408 0.016299313314500345 -0.012759762125280598
v 0.017373803611272221 0.0039749730571490534 -0.020813414326813478
v 0.016742054774045306 0.010347158891872439 -0.017633557568774192
v 0.020460942444220521 0.0061641680373027983 -0.013016656936580844
v 0.014821882233261335 -0.014998475833943384 0.0048186610692006939
v 0.011941275550434408 -0.013981088935865469 0.012759762125280598
v 0.0090990024690270829 -0.01809087234495535 0.0077967573902326314
v 0.013516239958878956 -0.0030923965110119648 0.020813414326813478
v 0.013538347476320512 -0.0083671588918724383 0.017633557568774192
v 0.017496470694091666 -0.0052710761350383949 0.013016656936580844
v 0.0030871388329483064 -0.013334388680133251 0.021061393343284891
v 0.0081980467025550025 -0.011329421901572011 0.020645728807067602
v 0.00482978786196985 -0.008063312545094856 0.025880054412485583
v 0.0034050044692445314 -0.019933243358493381 0.0078859666817870031
v 0.0060118636360787766 -0.021162643871246181 0
v -0.0030871388329483064 -0.013334388680133251 0.021061393343284891
v 0 -0.016943351945565045 0.015771933363574006
v -0.0060118636360787766 -0.021162643871246181 0
v -0.0034050044692445314 -0.019933243358493381 0.0078859666817870031
v -0.0090990024690270829 -0.01809087234495535 0.0077967573902326314
v 0.0037432288478794068 -0.021913243358493383 -0.0078859666817870031
v 0.0099920943712914854 -0.019866540793356841 -0.0077967573902326314
v -0.0099920943712914854 -0.019866540793356841 -0.0077967573902326314
v -0.0037432288478794068 -0.021913243358493383 -0.0078859666817870031
v 0.0039802307352127114 -0.017191952332526517 -0.021061393343284891
v 0 -0.02048528362192471 -0.015771933363574006
v -0.0039802307352127114 -0.017191952332526517 -0.021061393343284891
v 0.013921275550434408 -0.016299313314500345 -0.012759762125280598
v 0.015704458779398425 -0.015891567736207788 -0.0048186610692006939
v 0.0066054563103713423 -0.011027784295223712 -0.025880054412485583
v 0.010516271081189877 -0.014533129199296802 -0.020645728807067602
v 0.020460942444220521 -0.0061641680373027983 -0.013016656936580844
v 0.016742054774045306 -0.010347158891872439 -0.017633557568774192
v 0.017373803611272221 -0.0039749730571490534 -0.020813414326813478
v 0.018714317783744876 -0.011566084466620941 0
v 0.022203591473242069 0 -0.0081979958673801517
v 0.021535097007355775 -0.0059521544226279078 -0.0048737954434935954
v 0.020311389709630982 -0.0056139300439930328 0.0048737954434935954
v 0.020121696269250301 0 0.0081979958673801517
v 0.004793042233310469 -0.0029622630096995733 0.028531695488854609
v 0.0097951186284411049 0 0.025519524250561195
v 0.004793042233310469 0.0029622630096995733 0.028531695488854609
v -0.011941275550434408 -0.013981088935865469 0.012759762125280598
v -0.0081980467025550025 -0.011329421901572011 0.020645728807067602
v -0.013538347476320512 -0.0083671588918724383 0.017633557568774192
v -0.010516271081189877 -0.014533129199296802 -0.020645728807067602
v -0.013921275550434408 -0.016299313314500345 -0.012759762125280598
v -0.016742054774045306 -0.010347158891872439 -0.017633557568774192
v 0.013337050304800771 0 -0.025519524250561195
v 0.006773042233310469 -0.0041859703074243644 -0.028531695488854609
v 0.006773042233310469 0.0041859703074243644 -0.028531695488854609
v 0.020311389709630982 0.0056139300439930328 0.0048737954434935954
v 0.021535097007355775 0.0059521544226279078 -0.0048737954434935954
v 0.018714317783744876 0.011566084466620941 0
f 1 43 45
f 13 44 43
f 15 45 44
f 43 44 45
f 12 46 48
f 14 47 46
f 13 48 47
f 46 47 48
f 6 49 51
f 15 50 49
f 14 51 50
f 49 50 51
f 13 47 44
f 14 50 47
f 15 44 50
f 47 50 44
f 1 45 53
f 15 52 45
f 17 53 52
f 45 52 53
f 6 54 49
f 16 55 54
f 15 49 55
f 54 55 49
f 2 56 58
f 17 57 56
f 16 58 57
f 56 57 58
f 15 55 52
f 16 57 55
f 17 52 57
f 55 57 52
f 1 53 60
f 17 59 53
f 19 60 59
f 53 59 60
f 2 61 56
f 18 62 61
f 17 56 62
f 61 62 56
f 8 63 65
f 19 64 63
f 18 65 64
f 63 64 65
f 17 62 59
f 18 64 62
f 19 59 64
f 62 64 59
f 1 60 67
f 19 66 60
f 21 67 66
f 60 66 67
f 8 68 63
f 20 69 68
f 19 63 69
f 68 69 63
f 11 70 72
f 21 71 70
f 20 72 71
f 70 71 72
f 19 69 66
f 20 71 69
f 21 66 71
f 69 71 66
f 1 67 43
f 21 73 67
f 13 43 73
f 67 73 43
f 11 74 70
f 22 75 74
f 21 70 75
f 74 75 70
f 12 48 77
f 13 76 48
f 22 77 76
f 48 76 77
f 21 75 73
f 22 76 75
f 13 73 76
f 75 76 73
f 2 58 79
f 16 78 58
f 24 79 78
f 58 78 79
f 6 80 54
f 23 81 80
f 16 54 81
f 80 81 54
f 10 82 84
f 24 83 82
f 23 84 83
f 82 83 84
f 16 81 78
f 23 83 81
f 24 78 83
f 81 83 78
f 6 51 86
f 14 85 51
f 26 86 85
f 51 85 86
f 12 87 46
f 25 88 87
f 14 46 88
f 87 88 46
f 5 89 91
f 26 90 89
f 25 91 90
f 89 90 91
f 14 88 85
f 25 90 88
f 26 85 90
f 88 90 85
f 12 77 93
f 22 92 77
f 28 93 92
f 77 92 93
f 11 94 74
f 27 95 94
f 22 74 95
f 94 95 74
f 3 96 98
f 28 97 96
f 27 98 97
f 96 97 98
f 22 95 92
f 27 97 95
f 28 92 97
f 95 97 92
f 11 72 100
f 20 99 72
f 30 100 99
f 72 99 100
f 8 101 68
f 29 102 101
f 20 68 102
f 101 102 68
f 7 103 105
f 30 104 103
f 29 105 104
f 103 104 105
f 20 102 99
f 29 104 102
f 30 99 104
f 102 104 99
f 8 65 107
f 18 106 65
f 32 107 106
f 65 106 107
f 2 108 61
f 31 109 108
f 18 61 109
f 108 109 61
f 9 110 112
f 32 111 110
f 31 112 111
f 110 111 112
f 18 109 106
f 31 111 109
f 32 106 111
f 109 111 106
f 4 113 115
f 33 114 113
f 35 115 114
f 113 114 115
f 10 116 118
f 34 117 116
f 33 118 117
f 116 117 118
f 5 119 121
f 35 120 119
f 34 121 120
f 119 120 121
f 33 117 114
f 34 120 117
f 35 114 120
f 117 120 114
f 4 115 123
f 35 122 115
f 37 123 122
f 115 122 123
f 5 124 119
f 36 125 124
f 35 119 125
f 124 125 119
f 3 126 128
f 37 127 126
f 36 128 127
f 126 127 128
f 35 125 122
f 36 127 125
f 37 122 127
f 125 127 122
f 4 123 130
f 37 129 123
f 39 130 129
f 123 129 130
f 3 131 126
f 38 132 131
f 37 126 132
f 131 132 126
f 7 133 135
f 39 134 133
f 38 135 134
f 133 134 135
f 37 132 129
f 38 134 132
f 39 129 134
f 132 134 129
f 4 130 137
f 39 136 130
f 41 137 136
f 130 136 137
f 7 138 133
f 40 139 138
f 39 133 139
f 138 139 133
f 9 140 142
f 41 141 140
f 40 142 141
f 140 141 142
f 39 139 136
f 40 141 139
f 41 136 141
f 139 141 136
f 4 137 113
f 41 143 137
f 33 113 143
f 137 143 113
f 9 144 140
f 42 145 144
f 41 140 145
f 144 145 140
f 10 118 147
f 33 146 118
f 42 147 146
f 118 146 147
f 41 145 143
f 42 146 145
f 33 143 146
f 145 146 143
f 5 121 89
f 34 148 121
f 26 89 148
f 121 148 89
f 10 84 116
f 23 149 84
f 34 116 149
f 84 149 116
f 6 86 80
f 26 150 86
f 23 80 150
f 86 150 80
f 34 149 148
f 23 150 149
f 26 148 150
f 149 150 148
f 3 128 96
f 36 151 128
f 28 96 151
f 128 151 96
f 5 91 124
f 25 152 91
f 36 124 152
f 91 152 124
f 12 93 87
f 28 153 93
f 25 87 153
f 93 153 87
f 36 152 151
f 25 153 152
f 28 151 153
f 152 153 151
f 7 135 103
f 38 154 135
f 30 103 154
f 135 154 103
f 3 98 131
f 27 155 98
f 38 131 155
f 98 155 131
f 11 100 94
f 30 156 100
f 27 94 156
f 100 156 94
f 38 155 154
f 27 156 155
f 30 154 156
f 155 156 154
f 9 142 110
f 40 157 142
f 32 110 157
f 142 157 110
f 7 105 138
f 29 158 105
f 40 138 158
f 105 158 138
f 8 107 101
f 32 159 107
f 29 101 159
f 107 159 101
f 40 158 157
f 29 159 158
f 32 157 159
f 158 159 157
f 10 147 82
f 42 160 147
f 24 82 160
f 147 160 82
f 9 112 144
f 31 161 112
f 42 144 161
f 112 161 144
f 2 79 108
f 24 162 79
f 31 108 162
f 79 162 108
f 42 161 160
f 31 162 161
f 24 160 162
f 161 162 160
