# https://github.com/mikedh/trimesh
v 0.01578302 0.02047599 -0.10551801
v 0.00931255 0.02047598 -0.10466617
v 0.00328302 0.02047599 -0.10216865
v -0.00189465 0.02047599 -0.09819569
v -0.00586761 0.02047598 -0.09301801
v -0.00836512 0.02047598 -0.08698849
v -0.00921698 0.02047598 -0.08051801
v -0.00836512 0.02047599 -0.07404754
v -0.00586761 0.02047599 -0.06801801
v -0.00189464 0.02047598 -0.06284034
v 0.00328302 0.02047599 -0.05886738
v 0.00931255 0.02047598 -0.05636987
v 0.01578302 0.02047599 -0.05551801
v 0.02225350 0.02047598 -0.05636987
v 0.02828302 0.02047599 -0.05886738
v 0.03346070 0.02047599 -0.06284034
v 0.03743366 0.02047598 -0.06801801
v 0.03993117 0.02047599 -0.07404754
v 0.04078303 0.02047598 -0.08051801
v 0.03993117 0.02047599 -0.08698849
v 0.03743366 0.02047599 -0.09301802
v 0.03346070 0.02047599 -0.09819569
v 0.02828302 0.02047599 -0.10216865
v 0.02225350 0.02047599 -0.10466616
v 0.01578302 0.02047598 -0.08051801
f 5 6 25
f 25 4 5
f 25 3 4
f 2 3 25
f 25 1 2
f 25 24 1
f 23 24 25
f 25 22 23
f 25 21 22
f 20 21 25
f 25 19 20
f 25 18 19
f 17 18 25
f 25 16 17
f 25 15 16
f 14 15 25
f 25 13 14
f 25 12 13
f 11 12 25
f 25 10 11
f 25 9 10
f 8 9 25
f 25 7 8
f 25 6 7

