# https://github.com/mikedh/trimesh
v 0.01063091 -0.02971247 -0.05443186
v 0.01100752 -0.02971247 -0.05325415
v 0.01079754 -0.02971247 -0.05203565
v 0.03283957 -0.02971252 -0.05714383
v 0.03341609 -0.02971253 -0.05779768
v 0.03365971 -0.02971253 -0.05863466
v 0.03352415 -0.02971252 -0.05949579
v 0.03335289 -0.02971252 -0.06068032
v 0.02887665 -0.02971250 -0.05472327
v 0.02457818 -0.02971250 -0.05296626
v 0.02005437 -0.02971249 -0.05191789
v 0.01542123 -0.02971248 -0.05160501
v 0.03571247 -0.02971253 -0.06303991
v 0.03689701 -0.02971253 -0.06286864
v 0.03457671 -0.02971253 -0.06266239
v 0.03373040 -0.02971252 -0.06181608
v 0.00975287 -0.02971247 -0.05530241
v 0.00857199 -0.02971247 -0.05566896
v 0.00735533 -0.02971246 -0.05544857
v 0.00637805 -0.02971246 -0.05469111
v 0.03571247 -0.02971253 -0.09816542
v 0.03457671 -0.02971252 -0.09854293
v 0.03373040 -0.02971252 -0.09938924
v 0.03775812 -0.02971253 -0.09847225
v 0.03689700 -0.02971253 -0.09833668
v 0.03352415 -0.02971252 -0.10170953
v 0.03335289 -0.02971252 -0.10052500
v 0.00964669 -0.02971246 -0.10584246
v 0.00849061 -0.02971246 -0.10553268
v 0.01054151 -0.02971246 -0.10663728
v 0.00731826 -0.02971246 -0.10577362
v 0.01098546 -0.02971246 -0.10774876
v 0.00637805 -0.02971246 -0.10651421
v 0.01129861 -0.02971248 -0.10856229
v 0.01192809 -0.02971248 -0.10916533
v 0.03365971 -0.02971252 -0.10257065
v 0.03859511 -0.02971253 -0.09822863
v 0.03924895 -0.02971253 -0.09765211
v 0.04191682 -0.02971254 -0.09318821
v 0.04374454 -0.02971255 -0.08831961
v 0.04467333 -0.02971255 -0.08320285
v 0.04467333 -0.02971255 -0.07800248
v 0.04374453 -0.02971254 -0.07288572
v 0.04191682 -0.02971254 -0.06801711
v 0.03924896 -0.02971253 -0.06355322
v 0.03859511 -0.02971253 -0.06297670
v 0.03775812 -0.02971253 -0.06273308
v 0.03341609 -0.02971252 -0.10340764
v 0.03283957 -0.02971252 -0.10406149
v 0.02922813 -0.02971251 -0.10630130
v 0.02532812 -0.02971250 -0.10798927
v 0.02122330 -0.02971250 -0.10908917
v 0.01700180 -0.02971249 -0.10957734
v 0.01275429 -0.02971248 -0.10944332
v 0.00570008 -0.02971246 -0.05414315
v 0.00485342 -0.02971246 -0.05393564
v 0.00399891 -0.02971246 -0.05410800
v -0.00048778 -0.02971245 -0.05660205
v -0.00446445 -0.02971244 -0.05984810
v -0.00446445 -0.02971244 -0.10135722
v -0.00048778 -0.02971244 -0.10460328
v 0.00399891 -0.02971245 -0.10709733
v 0.00485342 -0.02971245 -0.10726968
v 0.00570008 -0.02971246 -0.10706217
v -0.00780649 -0.02971243 -0.06374445
v -0.01040918 -0.02971243 -0.06816900
v -0.01219099 -0.02971242 -0.07298313
v -0.01309607 -0.02971242 -0.07803601
v -0.01309607 -0.02971242 -0.08316931
v -0.01219099 -0.02971242 -0.08822218
v -0.01040918 -0.02971242 -0.09303632
v -0.00780649 -0.02971243 -0.09746088
v 0.02383591 -0.03984266 -0.05331402
v 0.02338537 -0.04031299 -0.05282985
v 0.01855601 -0.04129551 -0.06632908
v 0.02331748 -0.04037979 -0.05277557
v 0.02315546 -0.04053633 -0.05265949
v 0.02281436 -0.04085476 -0.05246621
v 0.02246362 -0.04115755 -0.05238097
v 0.02243060 -0.04118396 -0.05238264
v 0.02228355 -0.04129552 -0.05241770
v 0.02091890 -0.03924288 -0.06696221
v 0.02415467 -0.03924289 -0.05488617
v 0.02421123 -0.03930585 -0.05438516
v 0.02418653 -0.03937806 -0.05414479
v 0.02413218 -0.03947202 -0.05391502
v 0.02388961 -0.03978179 -0.05339395
v 0.02084942 -0.04141249 -0.07345628
v 0.02006217 -0.04141248 -0.07280637
v 0.01924903 -0.04141249 -0.08864649
v 0.01736098 -0.04141249 -0.08921659
v 0.00924991 -0.04141247 -0.05605888
v 0.01840957 -0.04141248 -0.07026763
v -0.00820942 -0.04141243 -0.09005232
v -0.00427430 -0.04141243 -0.06439485
v -0.00623058 -0.04141244 -0.06717275
v 0.00819250 -0.04141247 -0.05616586
v 0.00773731 -0.04141247 -0.05609907
v 0.00949565 -0.04141247 -0.09592254
v 0.00534165 -0.04141247 -0.05702082
v 0.00292091 -0.04141246 -0.05824966
v 0.01130360 -0.04141248 -0.05195180
v 0.01150373 -0.04141248 -0.05282454
v 0.01542120 -0.04141248 -0.05160502
v 0.02005435 -0.04141250 -0.05191788
v 0.01937458 -0.04141248 -0.07203501
v 0.01882894 -0.04141248 -0.07119562
v 0.01813821 -0.04141248 -0.06928513
v 0.01801928 -0.04141248 -0.06825986
v 0.01020904 -0.04141247 -0.05560102
v 0.01805535 -0.04141248 -0.06725249
v 0.01095715 -0.04141248 -0.05484611
v 0.01824571 -0.04141248 -0.06624535
v 0.01140631 -0.04141248 -0.05388287
v 0.02190980 -0.04141250 -0.05257081
v 0.02136644 -0.04141250 -0.05214384
v 0.01114509 -0.04141248 -0.09314351
v 0.01174498 -0.04141248 -0.09211106
v 0.01251258 -0.04141248 -0.09120709
v 0.01342745 -0.04141248 -0.09045602
v 0.01446360 -0.04141248 -0.08987930
v 0.01559080 -0.04141248 -0.08949067
v 0.01659841 -0.04141249 -0.08932126
v 0.02145749 -0.04141249 -0.07392822
v 0.02096158 -0.04141250 -0.08766830
v 0.02241176 -0.04141250 -0.08633163
v 0.00997150 -0.04141247 -0.09577115
v 0.01038051 -0.04141247 -0.09538192
v 0.01052572 -0.04141247 -0.09505676
v 0.01073821 -0.04141247 -0.09426371
v -0.00780476 -0.04141244 -0.07018366
v -0.00896953 -0.04141243 -0.07337537
v -0.00970468 -0.04141243 -0.07669249
v -0.00999744 -0.04141243 -0.08007745
v -0.00984274 -0.04141243 -0.08347153
v -0.00924327 -0.04141242 -0.08681583
v -0.00675914 -0.04141243 -0.09312484
v -0.00491758 -0.04141243 -0.09598008
v -0.00436819 -0.04141243 -0.09654272
v -0.00280310 -0.04141243 -0.09699855
v -0.00196987 -0.04141244 -0.06189820
v 0.00064274 -0.04141244 -0.05972611
v -0.00374814 -0.04141243 -0.09688111
v -0.00308863 -0.04141243 -0.09700606
v 0.02352599 -0.04141250 -0.08470429
v 0.02380155 -0.04141251 -0.07706937
v 0.02280753 -0.04141250 -0.07536595
v 0.02424774 -0.04141250 -0.08286887
v 0.02454040 -0.04141250 -0.08091848
v 0.02438911 -0.04141251 -0.07895206
v -0.00096297 -0.03823774 -0.09979367
v -0.00087201 -0.03830702 -0.09977344
v -0.00338917 -0.03924282 -0.09982803
v -0.00073820 -0.03839161 -0.09974676
v 0.00983428 -0.03853882 -0.09879575
v 0.00973687 -0.03924285 -0.09867965
v -0.00044722 -0.03853879 -0.09969526
v -0.00058966 -0.03847093 -0.09971973
v -0.00470651 -0.03894264 -0.09999642
v -0.00486268 -0.03886823 -0.10002325
v -0.00504463 -0.03471243 -0.10077475
v -0.00519074 -0.03868461 -0.10008445
v -0.00561100 -0.03839289 -0.10017285
v -0.00408904 -0.03915657 -0.09990453
v 0.02303543 -0.03727200 -0.05252232
v 0.02371012 -0.03732390 -0.05284305
v 0.02304011 -0.03719546 -0.05252354
v 0.02449895 -0.03751925 -0.05421894
v 0.02429803 -0.03839302 -0.05493015
v 0.02444262 -0.03754273 -0.05496980
v 0.02424662 -0.03744211 -0.05344663
v 0.02349446 -0.03471250 -0.05264478
v 0.02395315 -0.03477068 -0.05283588
v 0.02475073 -0.03559969 -0.05395612
v 0.02458338 -0.03519467 -0.05347434
v 0.02432505 -0.03493947 -0.05312463
v 0.02415512 -0.03484365 -0.05297229
v 0.02459540 -0.03664718 -0.05500972
v 0.02467806 -0.03642613 -0.05480438
v 0.02473493 -0.03621306 -0.05459863
v 0.02477302 -0.03591815 -0.05429992
v 0.02476311 -0.03567645 -0.05404130
v 0.04178381 -0.03769732 -0.08060266
v 0.04170727 -0.03771253 -0.08060266
v 0.04148649 -0.03771254 -0.08397834
v 0.03981350 -0.03769730 -0.07067547
v 0.03974276 -0.03771253 -0.07070470
v 0.04082792 -0.03771253 -0.07390881
v 0.03457862 -0.03770327 -0.06266358
v 0.03431628 -0.03771253 -0.06247865
v 0.03637363 -0.03771253 -0.06485408
v 0.03643442 -0.03769730 -0.09639775
v 0.03455631 -0.03770521 -0.09855565
v 0.03457862 -0.03770327 -0.09854174
v 0.03637363 -0.03771253 -0.09635124
v 0.03431628 -0.03771253 -0.09872668
v 0.03643442 -0.03769730 -0.06480758
v 0.03824952 -0.03771253 -0.06766921
v 0.03831584 -0.03769730 -0.06763103
v 0.04148649 -0.03771253 -0.07722698
v 0.04090185 -0.03769732 -0.07388905
v 0.04156237 -0.03769732 -0.07721701
v 0.04082792 -0.03771254 -0.08729650
v 0.04156237 -0.03769732 -0.08398830
v 0.04090185 -0.03769732 -0.08731627
v 0.03831585 -0.03769731 -0.09357430
v 0.03824952 -0.03771254 -0.09353610
v 0.03981350 -0.03769731 -0.09052985
v 0.03974276 -0.03771254 -0.09050062
v 0.03917136 -0.03765396 -0.06909757
v 0.03837208 -0.03765396 -0.06759865
v 0.03715336 -0.03765395 -0.06568082
v 0.03648595 -0.03765395 -0.06476815
v 0.03481087 -0.03765395 -0.06279085
v 0.03987346 -0.03765396 -0.07065069
v 0.04064716 -0.03765396 -0.07278110
v 0.04177517 -0.03765396 -0.07864654
v 0.04162671 -0.03765396 -0.07720856
v 0.04154656 -0.03765396 -0.07664600
v 0.04096454 -0.03765396 -0.07387230
v 0.04184869 -0.03765396 -0.08060266
v 0.04177517 -0.03765396 -0.08255878
v 0.04064716 -0.03765396 -0.08842422
v 0.04096454 -0.03765395 -0.08733303
v 0.04117543 -0.03765395 -0.08648782
v 0.04162671 -0.03765395 -0.08399675
v 0.03987346 -0.03765396 -0.09055463
v 0.03917135 -0.03765396 -0.09210775
v 0.03837208 -0.03765396 -0.09360668
v 0.03715336 -0.03765396 -0.09552449
v 0.03648595 -0.03765395 -0.09643718
v 0.03481087 -0.03765395 -0.09841447
v 0.03153941 -0.03769729 -0.10128193
v 0.03149303 -0.03771252 -0.10122103
v 0.02869455 -0.03771251 -0.10307875
v 0.03157872 -0.03765394 -0.10133354
v 0.03360192 -0.03765395 -0.09962341
v 0.03391413 -0.03771253 -0.09912883
v 0.03374310 -0.03770521 -0.09936886
v 0.03372920 -0.03770327 -0.09939116
v 0.01249045 -0.03769726 -0.10638607
v 0.00962547 -0.03770515 -0.10583116
v 0.00964866 -0.03770322 -0.10584352
v 0.01250017 -0.03771247 -0.10631016
v 0.00935734 -0.03771246 -0.10570880
v 0.02567932 -0.03771251 -0.10455893
v 0.02873266 -0.03769729 -0.10314512
v 0.02570852 -0.03769728 -0.10462967
v 0.01585277 -0.03769726 -0.10659628
v 0.01585258 -0.03771247 -0.10651974
v 0.01921403 -0.03769727 -0.10636987
v 0.01920395 -0.03771250 -0.10629400
v 0.02251777 -0.03769727 -0.10571064
v 0.02249797 -0.03771250 -0.10563671
v 0.03086610 -0.03765394 -0.10185741
v 0.02430852 -0.03765393 -0.10522960
v 0.02573328 -0.03765393 -0.10468965
v 0.02770719 -0.03765393 -0.10377663
v 0.02876497 -0.03765394 -0.10320139
v 0.02253457 -0.03765393 -0.10577331
v 0.02073846 -0.03765391 -0.10618710
v 0.01922257 -0.03765390 -0.10643419
v 0.01706884 -0.03765390 -0.10662985
v 0.01585292 -0.03765390 -0.10666116
v 0.01337350 -0.03765389 -0.10654894
v 0.01248222 -0.03765389 -0.10645044
v 0.00987502 -0.03765389 -0.10598102
v -0.00093273 -0.03776880 -0.10040236
v -0.00096005 -0.03775766 -0.10041478
v -0.00062830 -0.03769722 -0.10075478
v -0.00066928 -0.03765387 -0.10080509
v -0.00109171 -0.03801379 -0.09997854
v -0.00110487 -0.03796985 -0.10002534
v -0.00105869 -0.03797805 -0.10004291
v -0.00110438 -0.03783455 -0.10020474
v -0.00098517 -0.03770766 -0.10047320
v -0.00081966 -0.03828672 -0.09980308
v -0.00085098 -0.03830301 -0.09978495
v -0.00086741 -0.03818455 -0.09986804
v -0.00099764 -0.03798378 -0.10004450
v -0.00090673 -0.03813796 -0.09990239
v -0.00100321 -0.03786678 -0.10019673
v -0.00096523 -0.03780685 -0.10030340
v -0.00090698 -0.03776672 -0.10039786
v -0.00057996 -0.03771245 -0.10069545
v 0.00848833 -0.03770322 -0.10553262
v 0.00851460 -0.03770515 -0.10553350
v 0.00630216 -0.03769724 -0.10480288
v 0.00880799 -0.03771246 -0.10556161
v 0.00633010 -0.03771246 -0.10473163
v 0.00822356 -0.03765389 -0.10553851
v 0.00389158 -0.03771245 -0.10362709
v 0.00385644 -0.03769723 -0.10369508
v 0.00158001 -0.03771245 -0.10227688
v 0.00153804 -0.03769722 -0.10234089
v 0.00066528 -0.03765387 -0.10182267
v 0.00150247 -0.03765387 -0.10239515
v 0.00382665 -0.03765388 -0.10375272
v 0.00544881 -0.03765388 -0.10452142
v 0.00627847 -0.03765388 -0.10486329
v 0.02461179 -0.03775777 -0.05628473
v 0.02491214 -0.03771250 -0.05634389
v 0.02493928 -0.03769704 -0.05627172
v 0.02411686 -0.03800553 -0.05628854
v 0.02398672 -0.03807377 -0.05630945
v 0.02396449 -0.03812353 -0.05635851
v 0.02481522 -0.03766343 -0.05616701
v 0.02439562 -0.03779219 -0.05615256
v 0.02450784 -0.03778496 -0.05620910
v 0.02496191 -0.03765392 -0.05621152
v 0.02430054 -0.03790247 -0.05635355
v 0.02451271 -0.03779269 -0.05629188
v 0.02451304 -0.03779257 -0.05625097
v 0.02389240 -0.03829319 -0.05662479
v 0.02389771 -0.03826964 -0.05667882
v 0.02400699 -0.03814435 -0.05655721
v 0.02372686 -0.03853885 -0.05696241
v 0.02379068 -0.03843838 -0.05679268
v 0.02386065 -0.03832136 -0.05661127
v 0.02387287 -0.03829993 -0.05658026
v 0.02416988 -0.03799574 -0.05642537
v 0.02416451 -0.03800675 -0.05637907
v 0.02414645 -0.03801037 -0.05633151
v 0.02393165 -0.03819082 -0.05643525
v 0.02978010 -0.03769705 -0.05869417
v 0.02745170 -0.03765393 -0.05729907
v 0.02742291 -0.03769705 -0.05735659
v 0.03198519 -0.03769705 -0.06026990
v 0.03148040 -0.03765393 -0.05979726
v 0.02981471 -0.03765393 -0.05863996
v 0.03372919 -0.03770327 -0.06181415
v 0.03360167 -0.03765374 -0.06158139
v 0.03202526 -0.03765393 -0.06021960
v 0.03374200 -0.03770506 -0.06183471
v 0.03193715 -0.03771252 -0.06033021
v 0.03391413 -0.03771253 -0.06207649
v 0.02973860 -0.03771251 -0.05875915
v 0.02738841 -0.03771250 -0.05742555
v 0.02094713 -0.04138286 -0.07331771
v 0.02017879 -0.04138353 -0.07268509
v 0.01951683 -0.04138401 -0.07194562
v 0.01897445 -0.04138431 -0.07111567
v 0.01856493 -0.04138441 -0.07021143
v 0.01830086 -0.04138431 -0.06925356
v 0.01818634 -0.04138401 -0.06826631
v 0.01822220 -0.04138353 -0.06727114
v 0.01840942 -0.04138286 -0.06628953
v 0.01837190 -0.04129806 -0.06728783
v 0.01833596 -0.04129991 -0.06826030
v 0.01844730 -0.04130104 -0.06922507
v 0.01870504 -0.04130143 -0.07016074
v 0.01910522 -0.04130105 -0.07104386
v 0.01963567 -0.04129992 -0.07185454
v 0.02028321 -0.04129807 -0.07257655
v 0.02103464 -0.04129551 -0.07319363
v 0.02191406 -0.04141248 -0.05256916
v 0.02214580 -0.04136924 -0.05247600
v 0.01661368 -0.04138312 -0.08948940
v 0.01739184 -0.04138197 -0.08938579
v 0.02106316 -0.04138198 -0.08780709
v 0.01931697 -0.04138197 -0.08880450
v 0.02254183 -0.04138198 -0.08644416
v 0.02367795 -0.04138198 -0.08478487
v 0.02441388 -0.04138198 -0.08291339
v 0.02471228 -0.04138198 -0.08092468
v 0.02455802 -0.04138199 -0.07891963
v 0.02395892 -0.04138199 -0.07699998
v 0.02294538 -0.04138198 -0.07526310
v 0.02156881 -0.04138198 -0.07379711
v 0.02408970 -0.04129552 -0.07692631
v 0.02382206 -0.04129552 -0.07637339
v 0.02176712 -0.04129551 -0.07377081
v 0.02279027 -0.04129551 -0.07482368
v 0.02324140 -0.04129551 -0.07541835
v 0.02460829 -0.04129552 -0.07844893
v 0.02476129 -0.04129552 -0.07921822
v 0.02481777 -0.04129553 -0.08155148
v 0.02486746 -0.04129553 -0.08062462
v 0.02480270 -0.04129553 -0.07952005
v 0.02380994 -0.04129553 -0.08485486
v 0.02425721 -0.04129553 -0.08387482
v 0.02426749 -0.04129553 -0.08384810
v 0.02455819 -0.04129553 -0.08295206
v 0.02252501 -0.04129552 -0.08668871
v 0.02308500 -0.04129552 -0.08600482
v 0.02321505 -0.04129552 -0.08582465
v 0.02380045 -0.04129553 -0.08487271
v 0.02164270 -0.04129552 -0.08754139
v 0.01743511 -0.04129551 -0.08952975
v 0.01886678 -0.04129552 -0.08914274
v 0.01963313 -0.04129552 -0.08882641
v 0.02084710 -0.04129552 -0.08814094
v 0.01662749 -0.04129551 -0.08964134
v 0.02209020 -0.04128871 -0.05229526
v 0.02189632 -0.04134207 -0.05225281
v 0.01378051 -0.04138454 -0.09042498
v 0.01297085 -0.04138464 -0.09101082
v 0.01226494 -0.04138452 -0.09171578
v 0.01167722 -0.04138422 -0.09252058
v 0.01121576 -0.04138373 -0.09340647
v 0.01090340 -0.04138231 -0.09430798
v 0.01562235 -0.04138378 -0.08965570
v 0.01467115 -0.04138426 -0.08997045
v 0.01548690 -0.04129834 -0.08984611
v 0.01340869 -0.04130074 -0.09085550
v 0.01439619 -0.04130001 -0.09025751
v 0.01474928 -0.04129958 -0.09009885
v 0.01309462 -0.04130078 -0.09110324
v 0.01254302 -0.04130060 -0.09162774
v 0.01183975 -0.04129959 -0.09253582
v 0.01136811 -0.04129793 -0.09342292
v 0.01104866 -0.04129550 -0.09434690
v 0.01062766 -0.04140116 -0.09508474
v 0.01083566 -0.04129550 -0.09514183
v 0.00951055 -0.04138231 -0.09609291
v 0.00989925 -0.04138353 -0.09599055
v 0.00997150 -0.04141246 -0.09577115
v 0.01024574 -0.04138394 -0.09577920
v 0.01051737 -0.04138353 -0.09547733
v 0.01058062 -0.04130021 -0.09564677
v 0.01016066 -0.04130058 -0.09602568
v 0.01034716 -0.04130089 -0.09589195
v 0.00996301 -0.04129964 -0.09612733
v 0.00962517 -0.04129672 -0.09622817
v 0.00952366 -0.04129548 -0.09624273
v -0.00278820 -0.04138229 -0.09716891
v -0.00277509 -0.04129546 -0.09731872
v -0.00507120 -0.04137437 -0.09609415
v -0.00461298 -0.04137913 -0.09656721
v -0.00345108 -0.04138358 -0.09712848
v -0.00406535 -0.04138278 -0.09691878
v -0.00353474 -0.04130656 -0.09726066
v -0.00489172 -0.04128242 -0.09652770
v -0.00424873 -0.04130276 -0.09699502
v -0.00409190 -0.04130513 -0.09707321
v -0.00520143 -0.04126599 -0.09619086
v -0.01031741 -0.04126598 -0.08202896
v -0.01019410 -0.04126598 -0.08351085
v -0.01003290 -0.04137437 -0.08349282
v -0.00776540 -0.04126598 -0.09195056
v -0.00706823 -0.04126598 -0.09329649
v -0.00692642 -0.04137437 -0.09321773
v -0.00568336 -0.04126599 -0.09551999
v -0.00797980 -0.04137436 -0.07010636
v -0.01018874 -0.04137437 -0.08007356
v -0.00838746 -0.04137437 -0.09012242
v -0.00942898 -0.04137437 -0.08686192
v -0.00989381 -0.04137437 -0.07666348
v -0.00915321 -0.04137436 -0.07332176
v -0.00639394 -0.04137437 -0.06707312
v -0.00442315 -0.04137437 -0.06427462
v -0.00210162 -0.04137438 -0.06175945
v 0.00053037 -0.04137438 -0.05957124
v -0.00853839 -0.04126598 -0.09018185
v -0.00925913 -0.04126598 -0.08809751
v -0.01012716 -0.04126598 -0.08405697
v -0.00976803 -0.04126598 -0.08611796
v -0.00958641 -0.04126598 -0.08690100
v -0.01035092 -0.04126598 -0.08007026
v -0.01021675 -0.04126598 -0.07790444
v -0.00886297 -0.04126598 -0.07189276
v -0.00930892 -0.04126598 -0.07327631
v -0.00946854 -0.04126598 -0.07384711
v -0.01005414 -0.04126598 -0.07663889
v -0.00812819 -0.04126599 -0.07004084
v -0.00718279 -0.04126599 -0.06811736
v -0.00360242 -0.04126600 -0.06306509
v -0.00454933 -0.04126599 -0.06417269
v -0.00492885 -0.04126599 -0.06465394
v -0.00653243 -0.04126599 -0.06698865
v -0.00221331 -0.04126600 -0.06164182
v -0.00060231 -0.04126601 -0.06023294
v 0.00043511 -0.04126601 -0.05943994
v 0.00282544 -0.04137439 -0.05808382
v 0.00773701 -0.04141242 -0.05609282
v 0.00772774 -0.04136480 -0.05587802
v 0.00526414 -0.04137439 -0.05684588
v 0.00772281 -0.04126602 -0.05573189
v 0.00519843 -0.04126602 -0.05669758
v 0.00464983 -0.04126602 -0.05694825
v 0.00274451 -0.04126601 -0.05794325
v 0.01082122 -0.04106360 -0.05203151
v 0.01079752 -0.04091247 -0.05203566
v 0.01100535 -0.04091247 -0.05286475
v 0.00820616 -0.04137440 -0.05597501
v 0.00770256 -0.04119996 -0.05566900
v 0.00821773 -0.04126602 -0.05581321
v 0.00822547 -0.04110381 -0.05570510
v 0.00762600 -0.04110166 -0.05559055
v 0.00822819 -0.04091246 -0.05566714
v 0.00739725 -0.04091246 -0.05546683
v 0.01104328 -0.04110381 -0.05286168
v 0.01083613 -0.04110392 -0.05202894
v 0.01115132 -0.04126603 -0.05285296
v 0.01094598 -0.04126612 -0.05201010
v 0.01089589 -0.04120854 -0.05201864
v 0.01116786 -0.04139412 -0.05197339
v 0.01100750 -0.04091247 -0.05325414
v 0.01096038 -0.04110381 -0.05376230
v 0.01092364 -0.04091247 -0.05375237
v 0.01054693 -0.04091247 -0.05456025
v 0.01057815 -0.04110381 -0.05458201
v 0.00991948 -0.04091246 -0.05519340
v 0.00994152 -0.04110381 -0.05522443
v 0.00975285 -0.04091246 -0.05530242
v 0.00912531 -0.04110381 -0.05561406
v 0.00911505 -0.04091246 -0.05557740
v 0.00857197 -0.04091246 -0.05566896
v 0.00915455 -0.04126602 -0.05571843
v 0.01000429 -0.04126602 -0.05531279
v 0.01066708 -0.04126603 -0.05464398
v 0.01106501 -0.04126603 -0.05379060
v 0.00919830 -0.04137440 -0.05587462
v 0.01009823 -0.04137440 -0.05544503
v 0.01080017 -0.04137440 -0.05473671
v 0.01122160 -0.04137440 -0.05383294
v 0.01131300 -0.04137440 -0.05283993
v 0.01101485 -0.04132299 -0.05199853
v 0.00992012 -0.03771247 -0.09977680
v 0.00988282 -0.03780864 -0.09935055
v 0.00986445 -0.03794297 -0.09914058
v 0.00984427 -0.03821972 -0.09890994
v 0.00984901 -0.03813414 -0.09896411
v 0.01130955 -0.03850719 -0.09836963
v 0.01101058 -0.03851151 -0.09850939
v 0.01105576 -0.03820117 -0.09861825
v 0.01369820 -0.03776537 -0.09673539
v 0.01388248 -0.03771247 -0.09710171
v 0.01424721 -0.03771248 -0.09614594
v 0.01336460 -0.03776455 -0.09735379
v 0.01332928 -0.03771247 -0.09796094
v 0.01244671 -0.03776390 -0.09839404
v 0.01265838 -0.03771247 -0.09864629
v 0.01087322 -0.03771247 -0.09959892
v 0.01181759 -0.03771247 -0.09921464
v 0.01126288 -0.03776455 -0.09911734
v 0.01224823 -0.03793135 -0.09815750
v 0.01059594 -0.03776537 -0.09933849
v 0.01114405 -0.03793424 -0.09883101
v 0.01202514 -0.03850242 -0.09789164
v 0.01210080 -0.03819501 -0.09798180
v 0.01340669 -0.03821972 -0.09592072
v 0.01329596 -0.03853883 -0.09589105
v 0.01323307 -0.03853253 -0.09610540
v 0.01290905 -0.03820117 -0.09706315
v 0.01347242 -0.03811531 -0.09593833
v 0.01310325 -0.03793425 -0.09718704
v 0.01363032 -0.03794298 -0.09598064
v 0.01381371 -0.03781884 -0.09602978
v 0.01280970 -0.03851152 -0.09699976
v 0.01252850 -0.03850571 -0.09738494
v 0.01446040 -0.03771248 -0.09535031
v 0.01402690 -0.03781884 -0.09523415
v 0.01383952 -0.03794644 -0.09518394
v 0.01368561 -0.03811532 -0.09514270
v 0.01361864 -0.03822200 -0.09512476
v 0.01350915 -0.03853883 -0.09509542
v 0.01460847 -0.03771248 -0.09492701
v 0.01482208 -0.03771248 -0.09452636
v 0.01455049 -0.03776706 -0.09435493
v 0.01499873 -0.03771248 -0.09427740
v 0.01556485 -0.03771248 -0.09373177
v 0.01520006 -0.03776639 -0.09361883
v 0.01694007 -0.03822201 -0.09230743
v 0.01582371 -0.03820376 -0.09260768
v 0.01694685 -0.03811532 -0.09237643
v 0.01591328 -0.03793776 -0.09281836
v 0.01625525 -0.03771248 -0.09335588
v 0.01702528 -0.03771248 -0.09317470
v 0.01603216 -0.03776706 -0.09309979
v 0.01698140 -0.03781885 -0.09272806
v 0.01696243 -0.03794644 -0.09253500
v 0.01485605 -0.03819767 -0.09321265
v 0.01500411 -0.03793486 -0.09338748
v 0.01409930 -0.03820372 -0.09406845
v 0.01429240 -0.03793774 -0.09419144
v 0.01399832 -0.03851204 -0.09400330
v 0.01477657 -0.03850315 -0.09311877
v 0.01577608 -0.03851209 -0.09249736
v 0.01692899 -0.03853884 -0.09219462
v 0.02263839 -0.03822202 -0.07104103
v 0.02257239 -0.03853885 -0.07113317
v 0.02371481 -0.03853885 -0.07206629
v 0.02277154 -0.03794645 -0.07085512
v 0.02267876 -0.03811534 -0.07098465
v 0.02383910 -0.03811534 -0.07193241
v 0.01850434 -0.03781885 -0.09248026
v 0.01842563 -0.03811532 -0.09213582
v 0.01860432 -0.03771248 -0.09291778
v 0.01998375 -0.03781885 -0.09204197
v 0.02013823 -0.03771249 -0.09246334
v 0.02150461 -0.03781886 -0.09136318
v 0.02171511 -0.03771249 -0.09175955
v 0.02291870 -0.03781886 -0.09048333
v 0.02318129 -0.03771250 -0.09084729
v 0.02419958 -0.03781886 -0.08941885
v 0.02450935 -0.03771250 -0.08974360
v 0.02532332 -0.03781886 -0.08818964
v 0.02567449 -0.03771250 -0.08846911
v 0.02626893 -0.03781887 -0.08681865
v 0.02665493 -0.03771250 -0.08704762
v 0.02701874 -0.03781887 -0.08533152
v 0.02743236 -0.03771250 -0.08550572
v 0.02755874 -0.03781887 -0.08375603
v 0.02799224 -0.03771251 -0.08387219
v 0.02787883 -0.03781887 -0.08212162
v 0.02832413 -0.03771251 -0.08217757
v 0.02797304 -0.03781887 -0.08045882
v 0.02842180 -0.03771251 -0.08045352
v 0.02783960 -0.03781887 -0.07879871
v 0.02828345 -0.03771251 -0.07873226
v 0.02748101 -0.03781887 -0.07717231
v 0.02791165 -0.03771251 -0.07704595
v 0.02690396 -0.03781887 -0.07561000
v 0.02731335 -0.03771251 -0.07542609
v 0.02611925 -0.03781887 -0.07414100
v 0.02649974 -0.03771251 -0.07390297
v 0.02514154 -0.03781887 -0.07279272
v 0.02548601 -0.03771251 -0.07250503
v 0.02407948 -0.03781887 -0.07167346
v 0.02438483 -0.03771250 -0.07134455
v 0.02288450 -0.03781887 -0.07069740
v 0.02314582 -0.03771250 -0.07033254
v 0.02487035 -0.03811534 -0.07301921
v 0.02581971 -0.03811534 -0.07432838
v 0.02658167 -0.03811534 -0.07575479
v 0.02714197 -0.03811534 -0.07727179
v 0.02749017 -0.03811534 -0.07885103
v 0.02761973 -0.03811534 -0.08046299
v 0.02752826 -0.03811534 -0.08207757
v 0.02721745 -0.03811534 -0.08366459
v 0.02669312 -0.03811534 -0.08519439
v 0.02596505 -0.03811534 -0.08663840
v 0.02504686 -0.03811534 -0.08796962
v 0.02395571 -0.03811533 -0.08916318
v 0.02271197 -0.03811533 -0.09019680
v 0.02133889 -0.03811533 -0.09105112
v 0.01986214 -0.03811533 -0.09171022
v 0.02473013 -0.03853885 -0.07313631
v 0.02566483 -0.03853885 -0.07442527
v 0.02641502 -0.03853885 -0.07582965
v 0.02696668 -0.03853885 -0.07732322
v 0.02730949 -0.03853887 -0.07887807
v 0.02743706 -0.03853887 -0.08046515
v 0.02734700 -0.03853887 -0.08205479
v 0.02704099 -0.03853886 -0.08361731
v 0.02652475 -0.03853886 -0.08512348
v 0.02580793 -0.03853886 -0.08654519
v 0.02490392 -0.03853886 -0.08785586
v 0.02382961 -0.03853885 -0.08903100
v 0.02260508 -0.03853885 -0.09004864
v 0.02125321 -0.03853885 -0.09088978
v 0.01979926 -0.03853885 -0.09153870
v 0.01838493 -0.03853884 -0.09195771
v 0.02280174 -0.03771250 -0.07004494
v 0.02250193 -0.03771250 -0.06970397
v 0.02224589 -0.03776707 -0.06989783
v 0.02233111 -0.03771250 -0.06945099
v 0.02201968 -0.03771250 -0.06872902
v 0.02178556 -0.03776640 -0.06903074
v 0.02191089 -0.03771250 -0.06795049
v 0.02201238 -0.03771250 -0.06716596
v 0.02159265 -0.03776708 -0.06806917
v 0.02159907 -0.03780866 -0.06705523
v 0.02128737 -0.03793778 -0.06808137
v 0.02139149 -0.03794645 -0.06699961
v 0.02105864 -0.03820379 -0.06809104
v 0.02122437 -0.03813416 -0.06695483
v 0.02128428 -0.03819770 -0.06920973
v 0.02150005 -0.03793488 -0.06913272
v 0.02181892 -0.03820372 -0.07021929
v 0.02200201 -0.03793775 -0.07008185
v 0.02172238 -0.03851202 -0.07029086
v 0.02116842 -0.03850316 -0.06925105
v 0.02093863 -0.03851214 -0.06809677
v 0.02106112 -0.03853884 -0.06691108
v -0.00588321 -0.03841244 -0.09987096
v -0.00309404 -0.04027960 -0.09856191
v 0.00464182 -0.03851523 -0.05394248
v 0.00485914 -0.03859217 -0.05393576
v 0.00528584 -0.03880372 -0.05399214
v 0.00579972 -0.03917923 -0.05419609
v 0.00595728 -0.03932778 -0.05429554
v 0.00637803 -0.03984445 -0.05469112
v 0.00519943 -0.03875417 -0.05397308
v 0.00399889 -0.03841246 -0.05410800
v 0.00414851 -0.03841849 -0.05404850
v 0.00399890 -0.03471246 -0.10709733
v 0.00451539 -0.03477991 -0.10724797
v 0.00556008 -0.03528559 -0.10712497
v 0.00502301 -0.03496374 -0.10725895
v 0.00637804 -0.03614444 -0.10651421
v 0.00626582 -0.03598439 -0.10664366
v 0.00612710 -0.03581138 -0.10677700
v 0.00563595 -0.03534310 -0.10709254
v 0.01211473 -0.03481525 -0.10926521
v 0.01192318 -0.03489218 -0.10916235
v 0.01158182 -0.03510373 -0.10890018
v 0.01123876 -0.03547924 -0.10846662
v 0.01115204 -0.03562779 -0.10830171
v 0.01098544 -0.03614445 -0.10774876
v 0.01164713 -0.03505419 -0.10895989
v 0.01275428 -0.03471247 -0.10944332
v 0.01259496 -0.03471851 -0.10942003
v 0.03283956 -0.03471252 -0.10406148
v 0.03322827 -0.03477997 -0.10368952
v 0.03364409 -0.03528566 -0.10272329
v 0.03349159 -0.03496381 -0.10325540
v 0.03352414 -0.03614450 -0.10170954
v 0.03358014 -0.03598445 -0.10187145
v 0.03362625 -0.03581145 -0.10205825
v 0.03365394 -0.03534316 -0.10264137
v 0.03877492 -0.03481530 -0.09811691
v 0.03859007 -0.03489223 -0.09823138
v 0.03819234 -0.03510380 -0.09839591
v 0.03764533 -0.03547931 -0.09847623
v 0.03745916 -0.03562786 -0.09846887
v 0.03689699 -0.03614451 -0.09833668
v 0.03827671 -0.03505426 -0.09836920
v 0.03924895 -0.03471253 -0.09765210
v 0.03914912 -0.03471856 -0.09777844
v 0.03924894 -0.03471253 -0.06355322
v 0.03887698 -0.03477998 -0.06316450
v 0.03791075 -0.03528567 -0.06274869
v 0.03844286 -0.03496382 -0.06290119
v 0.03689699 -0.03614451 -0.06286865
v 0.03705890 -0.03598446 -0.06281263
v 0.03724570 -0.03581146 -0.06276652
v 0.03782883 -0.03534317 -0.06273884
v 0.03330437 -0.03481529 -0.05761787
v 0.03341884 -0.03489223 -0.05780272
v 0.03358337 -0.03510379 -0.05820043
v 0.03366369 -0.03547930 -0.05874744
v 0.03365633 -0.03562785 -0.05893362
v 0.03352414 -0.03614451 -0.05949579
v 0.03355667 -0.03505425 -0.05811607
v 0.03283956 -0.03471252 -0.05714384
v 0.03296589 -0.03471855 -0.05724366
v 0.03538535 -0.03736503 -0.06298969
v 0.03653306 -0.03649579 -0.06298220
v 0.03624624 -0.03674646 -0.06303234
v 0.03559336 -0.03723446 -0.06302654
v 0.03531548 -0.03740601 -0.09823199
v 0.03515612 -0.03749372 -0.09827702
v 0.03591970 -0.03700493 -0.09815530
v 0.03627026 -0.03672631 -0.09817593
v 0.04404086 -0.03471254 -0.08715213
v 0.04445388 -0.03471255 -0.07619939
v 0.04467331 -0.03471255 -0.07800248
v 0.03956480 -0.03471253 -0.09720883
v 0.04076559 -0.03471253 -0.09534124
v 0.04374452 -0.03471254 -0.08831961
v 0.04181057 -0.03471253 -0.09340642
v 0.04191681 -0.03471253 -0.09318821
v 0.04271633 -0.03471254 -0.09137202
v 0.04445388 -0.03471255 -0.08500593
v 0.04467332 -0.03471255 -0.08320285
v 0.04470830 -0.03471255 -0.08277958
v 0.04479012 -0.03471255 -0.08060266
v 0.04470830 -0.03471255 -0.07842574
v 0.04374453 -0.03471255 -0.07288572
v 0.04271633 -0.03471255 -0.06983329
v 0.04191681 -0.03471253 -0.06801711
v 0.04181057 -0.03471253 -0.06779891
v 0.04076559 -0.03471253 -0.06586408
v 0.03956479 -0.03471253 -0.06399649
v 0.03336044 -0.03674645 -0.10105878
v 0.03336623 -0.03723445 -0.10040590
v 0.03340309 -0.03736503 -0.10019790
v 0.03341058 -0.03649578 -0.10134560
v 0.01028536 -0.03740595 -0.10632678
v 0.01016666 -0.03749367 -0.10621130
v 0.01065387 -0.03700487 -0.10681172
v 0.01081129 -0.03672625 -0.10712562
v 0.01517010 -0.03471248 -0.10959604
v 0.01700179 -0.03471248 -0.10957734
v 0.01923877 -0.03471249 -0.10939688
v 0.02122329 -0.03471249 -0.10908916
v 0.02129702 -0.03471249 -0.10907499
v 0.02328354 -0.03471250 -0.10861780
v 0.02527006 -0.03471250 -0.10800943
v 0.02532811 -0.03471250 -0.10798928
v 0.02717694 -0.03471250 -0.10727363
v 0.02922812 -0.03471251 -0.10630130
v 0.03084050 -0.03471251 -0.10539148
v 0.02429107 -0.03736053 -0.05565953
v 0.02647222 -0.03471251 -0.05364171
v 0.02462176 -0.03471251 -0.05298017
v 0.02457817 -0.03471251 -0.05296627
v 0.03165090 -0.03471252 -0.05632437
v 0.03334276 -0.03700493 -0.06047307
v 0.03336338 -0.03672631 -0.06012252
v 0.03346451 -0.03749378 -0.06123675
v 0.03341943 -0.03740599 -0.06107729
v 0.02887664 -0.03471252 -0.05472327
v 0.02824909 -0.03471251 -0.05441537
v -0.00780651 -0.03841243 -0.06374444
v 0.00713369 -0.04070487 -0.05533683
v 0.00684041 -0.04042625 -0.05514369
v 0.00138891 -0.03841245 -0.05543114
v -0.00048780 -0.03841245 -0.05660204
v -0.00239133 -0.03841244 -0.05800985
v -0.00571887 -0.03841244 -0.06115108
v -0.00348377 -0.03841244 -0.05893431
v -0.00446447 -0.03841244 -0.05984810
v -0.00968998 -0.03841243 -0.06675475
v -0.01040920 -0.03841243 -0.06816901
v -0.01155354 -0.03841242 -0.07094218
v -0.01219101 -0.03841242 -0.07298314
v -0.01222520 -0.03841242 -0.07310983
v -0.01273412 -0.03841242 -0.07537119
v -0.01309608 -0.03841241 -0.08316931
v -0.01320169 -0.03841241 -0.07991322
v -0.01309608 -0.03841242 -0.07803602
v -0.01305506 -0.03841242 -0.07760997
v -0.01219100 -0.03841241 -0.08822218
v -0.01255737 -0.03841241 -0.08671989
v -0.01295569 -0.03841241 -0.08443396
v -0.01124221 -0.03841241 -0.09110283
v -0.01040920 -0.03841243 -0.09303632
v -0.01033618 -0.03841243 -0.09318904
v -0.00925398 -0.03841243 -0.09522434
v -0.00802692 -0.03841243 -0.09714803
v -0.00780651 -0.03841243 -0.09746088
v 0.00762663 -0.03736498 -0.10565356
v -0.00446446 -0.03471243 -0.10135722
v -0.00437948 -0.03471243 -0.10143982
v -0.00419548 -0.03471243 -0.10161637
v -0.00266728 -0.03471244 -0.10297059
v -0.00104197 -0.03471244 -0.10421792
v -0.00048780 -0.03471244 -0.10460328
v 0.00065713 -0.03471244 -0.10534114
v 0.00244609 -0.03471246 -0.10635022
v 0.00742806 -0.03723438 -0.10572564
v 0.00663643 -0.03649573 -0.10623390
v 0.00685976 -0.03674639 -0.10604707
v 0.02077759 -0.03929304 -0.06780803
v 0.02077352 -0.03930746 -0.06815150
v 0.02244790 -0.03924331 -0.07119703
v 0.02178076 -0.03929450 -0.07061700
v 0.02150925 -0.03931162 -0.07028602
v 0.02108642 -0.03932917 -0.06954842
v 0.02099976 -0.03933001 -0.06933031
v 0.02092684 -0.03932917 -0.06910783
v 0.02077932 -0.03931171 -0.06827186
v 0.01694872 -0.03924286 -0.09206789
v 0.01685316 -0.03924286 -0.09207714
v 0.01836525 -0.03924288 -0.09183487
v 0.01969591 -0.03924288 -0.09144419
v 0.01975653 -0.03924288 -0.09142215
v 0.02480679 -0.03924289 -0.08777855
v 0.02333383 -0.03924289 -0.08931392
v 0.02253245 -0.03924289 -0.08994797
v 0.02100419 -0.03924289 -0.09087920
v 0.02595914 -0.03924289 -0.08602343
v 0.02641034 -0.03924290 -0.08507530
v 0.02697063 -0.03924288 -0.08339368
v 0.02722383 -0.03924289 -0.08203932
v 0.02722437 -0.03924289 -0.08203495
v 0.02731370 -0.03924289 -0.08063053
v 0.02723148 -0.03924289 -0.07922830
v 0.02718672 -0.03924289 -0.07889646
v 0.02698468 -0.03924289 -0.07786853
v 0.02630178 -0.03924289 -0.07588052
v 0.02337786 -0.03924288 -0.07192972
v 0.02463485 -0.03924288 -0.07321588
v 0.02524944 -0.03924289 -0.07402124
v 0.01601100 -0.03929321 -0.09223786
v 0.01568725 -0.03930765 -0.09235321
v 0.01557680 -0.03931188 -0.09240021
v 0.01484387 -0.03932921 -0.09282843
v 0.01466562 -0.03933000 -0.09296963
v 0.01448628 -0.03932910 -0.09313057
v 0.01394091 -0.03931143 -0.09378294
v 0.01372473 -0.03929434 -0.09415203
v 0.01341155 -0.03924285 -0.09498003
v 0.01319855 -0.03924285 -0.09577496
v 0.01287354 -0.03929386 -0.09658162
v 0.01262469 -0.03931240 -0.09698661
v 0.01168291 -0.03932898 -0.09794178
v 0.01205126 -0.03932995 -0.09764145
v 0.01048239 -0.03928867 -0.09853261
v 0.01092608 -0.03930852 -0.09837142
v 0.01118467 -0.03931762 -0.09824866
v 0.01105038 -0.04116246 -0.05199261
f 73 74 75
f 74 76 75
f 76 74 166
f 165 76 166
f 165 166 167
f 11 165 167
f 172 11 167
f 172 10 11
f 789 10 172
f 789 788 10
f 789 177 788
f 789 173 177
f 166 177 173
f 166 176 177
f 171 176 166
f 166 73 171
f 171 73 87
f 171 87 86
f 75 86 87
f 85 86 75
f 75 84 85
f 75 83 84
f 82 83 75
f 82 75 837
f 837 676 82
f 837 675 676
f 838 675 837
f 837 348 838
f 838 348 349
f 348 345 349
f 348 346 345
f 75 346 348
f 347 346 75
f 347 75 81
f 75 80 81
f 80 394 81
f 81 394 395
f 394 165 395
f 395 165 116
f 165 105 116
f 116 115 395
f 103 115 116
f 103 116 105
f 104 103 105
f 102 103 104
f 103 102 497
f 517 103 497
f 516 103 517
f 516 114 103
f 515 114 516
f 511 515 516
f 511 516 512
f 502 511 512
f 502 512 499
f 499 512 494
f 499 494 492
f 492 498 499
f 498 500 499
f 2 500 498
f 2 498 484
f 484 3 2
f 483 3 484
f 482 483 484
f 482 484 492
f 492 493 482
f 492 496 493
f 1 500 2
f 1 501 500
f 1 503 501
f 17 503 1
f 17 505 503
f 17 507 505
f 18 507 17
f 18 508 507
f 490 508 18
f 19 490 18
f 19 491 490
f 798 491 19
f 491 798 479
f 479 798 799
f 479 799 684
f 684 683 479
f 479 683 682
f 20 682 683
f 55 682 20
f 681 682 55
f 55 685 681
f 55 680 685
f 480 685 680
f 480 680 679
f 679 687 480
f 56 687 679
f 56 686 687
f 57 686 56
f 686 57 800
f 481 686 800
f 481 800 473
f 473 800 801
f 473 801 472
f 472 453 473
f 473 453 474
f 101 474 453
f 101 453 142
f 452 142 453
f 141 142 452
f 451 141 452
f 451 452 467
f 467 468 451
f 467 803 468
f 467 805 803
f 803 805 59
f 59 805 804
f 471 804 805
f 802 804 471
f 58 804 802
f 801 58 802
f 472 802 471
f 471 452 472
f 59 804 58
f 59 797 803
f 65 797 59
f 65 806 797
f 66 806 65
f 66 807 806
f 465 806 807
f 465 807 461
f 461 807 808
f 461 808 462
f 461 462 449
f 449 462 463
f 449 463 448
f 448 132 449
f 133 132 448
f 94 132 133
f 133 134 94
f 94 134 135
f 135 134 439
f 447 135 439
f 439 457 447
f 447 457 458
f 817 458 457
f 816 458 817
f 816 455 458
f 454 455 816
f 446 455 454
f 446 447 455
f 136 447 446
f 446 94 136
f 442 94 446
f 442 446 440
f 440 441 442
f 443 442 441
f 428 442 443
f 428 137 442
f 138 137 428
f 95 137 138
f 95 138 139
f 139 143 95
f 95 143 144
f 144 143 430
f 426 144 430
f 426 430 427
f 427 430 432
f 678 427 432
f 678 425 427
f 678 156 425
f 425 156 424
f 424 156 882
f 156 155 882
f 155 156 157
f 155 157 522
f 526 155 522
f 525 155 526
f 524 525 526
f 524 526 540
f 880 524 540
f 884 524 880
f 421 884 880
f 421 880 422
f 421 422 418
f 418 422 420
f 879 420 422
f 878 420 879
f 878 414 420
f 420 414 413
f 412 413 414
f 401 413 412
f 401 129 413
f 130 129 401
f 97 129 130
f 97 130 117
f 117 118 97
f 399 118 117
f 399 117 400
f 410 399 400
f 409 399 410
f 409 398 399
f 408 398 409
f 408 397 398
f 397 119 398
f 398 119 118
f 397 120 119
f 396 120 397
f 405 396 397
f 403 396 405
f 405 406 403
f 871 406 405
f 871 405 872
f 872 405 408
f 872 408 873
f 578 872 873
f 578 873 577
f 577 873 874
f 577 874 875
f 874 410 875
f 875 410 411
f 875 411 876
f 876 411 412
f 876 557 875
f 557 876 543
f 543 876 877
f 543 877 544
f 544 877 878
f 878 550 544
f 878 551 550
f 545 550 551
f 541 545 551
f 541 551 540
f 879 540 551
f 881 540 879
f 537 545 541
f 537 547 545
f 546 545 547
f 546 547 548
f 548 554 546
f 546 554 555
f 546 555 542
f 542 555 556
f 555 575 556
f 556 575 557
f 557 575 577
f 577 575 573
f 573 575 574
f 567 573 574
f 567 574 570
f 570 574 563
f 570 563 568
f 568 569 570
f 235 569 568
f 235 589 569
f 591 589 235
f 235 593 591
f 593 235 595
f 595 235 234
f 595 234 597
f 596 595 597
f 596 597 598
f 598 634 596
f 598 633 634
f 600 633 598
f 598 599 600
f 600 599 601
f 600 601 602
f 602 632 600
f 602 631 632
f 631 646 632
f 632 646 647
f 632 647 633
f 633 647 648
f 647 856 648
f 648 856 855
f 648 855 649
f 649 855 851
f 386 851 855
f 386 855 387
f 855 380 387
f 363 387 380
f 380 381 363
f 363 381 382
f 856 382 381
f 383 382 856
f 364 382 383
f 364 383 377
f 383 858 377
f 858 859 377
f 645 859 858
f 860 859 645
f 644 860 645
f 644 861 860
f 378 860 861
f 378 861 379
f 366 378 379
f 366 379 376
f 375 366 376
f 375 367 366
f 370 367 375
f 864 370 375
f 864 371 370
f 867 371 864
f 867 374 371
f 374 368 371
f 367 371 368
f 367 368 146
f 150 367 146
f 146 149 150
f 149 366 150
f 149 365 366
f 148 365 149
f 148 364 365
f 145 364 148
f 145 148 146
f 145 146 126
f 126 363 145
f 126 362 363
f 125 362 126
f 124 125 126
f 126 147 124
f 147 369 124
f 124 369 339
f 372 339 369
f 372 369 373
f 865 372 373
f 865 373 866
f 639 865 866
f 639 866 640
f 640 866 867
f 640 867 641
f 626 640 641
f 626 641 627
f 627 641 642
f 627 642 628
f 628 642 643
f 628 643 629
f 608 628 629
f 608 629 606
f 606 607 608
f 606 605 607
f 605 203 607
f 607 203 185
f 607 185 609
f 609 185 184
f 183 184 185
f 185 204 183
f 183 204 222
f 183 222 221
f 217 183 221
f 221 759 217
f 217 759 760
f 217 760 749
f 42 749 760
f 748 749 42
f 748 218 749
f 748 219 218
f 202 218 219
f 202 219 201
f 201 200 202
f 188 200 201
f 613 200 188
f 613 188 615
f 615 188 187
f 186 187 188
f 199 187 186
f 199 186 210
f 210 211 199
f 210 764 211
f 210 763 764
f 215 763 210
f 215 762 763
f 761 762 215
f 215 216 761
f 761 216 220
f 761 220 748
f 43 761 748
f 201 220 216
f 186 201 216
f 186 216 215
f 762 761 43
f 44 762 43
f 44 763 762
f 764 763 44
f 44 765 764
f 44 766 765
f 45 766 44
f 45 722 766
f 722 45 723
f 723 45 46
f 46 725 723
f 723 725 212
f 212 725 724
f 212 724 213
f 213 724 729
f 213 729 728
f 47 728 729
f 14 728 47
f 14 727 728
f 726 727 14
f 213 727 726
f 213 726 740
f 740 741 213
f 740 13 741
f 740 14 13
f 741 13 742
f 742 13 739
f 213 742 739
f 739 214 213
f 189 213 214
f 197 213 189
f 189 191 197
f 197 191 198
f 197 198 199
f 199 212 197
f 198 191 619
f 617 198 619
f 618 617 619
f 618 619 620
f 620 619 621
f 620 621 622
f 622 584 620
f 622 657 584
f 584 657 672
f 660 672 657
f 670 672 660
f 670 671 672
f 585 672 671
f 585 671 581
f 585 581 586
f 584 585 586
f 586 581 583
f 581 582 583
f 582 839 583
f 839 582 840
f 840 582 673
f 673 841 840
f 673 842 841
f 674 842 673
f 673 669 674
f 674 669 667
f 674 667 675
f 675 667 668
f 667 666 668
f 666 321 668
f 668 321 316
f 668 316 315
f 314 315 316
f 318 315 314
f 318 314 319
f 318 319 83
f 83 319 320
f 83 320 324
f 304 324 320
f 304 320 323
f 323 320 314
f 323 314 322
f 322 313 323
f 323 313 309
f 313 301 309
f 309 301 303
f 301 302 303
f 338 303 302
f 302 662 338
f 338 662 661
f 338 661 337
f 337 327 338
f 337 325 327
f 335 325 337
f 655 335 337
f 623 335 655
f 623 336 335
f 335 336 334
f 334 328 335
f 334 331 328
f 16 331 334
f 334 336 16
f 16 336 190
f 16 190 15
f 15 190 189
f 16 332 331
f 793 332 16
f 332 793 333
f 333 793 794
f 333 794 791
f 329 333 791
f 791 792 329
f 329 792 735
f 735 792 8
f 8 7 735
f 7 734 735
f 7 733 734
f 734 733 329
f 329 733 732
f 329 732 736
f 6 736 732
f 6 731 736
f 5 731 6
f 730 731 5
f 329 731 730
f 329 730 738
f 737 329 738
f 737 330 329
f 325 329 330
f 325 330 326
f 330 796 326
f 326 796 787
f 9 787 796
f 10 787 9
f 9 796 795
f 790 9 795
f 790 795 330
f 790 4 9
f 737 4 790
f 4 737 5
f 326 787 310
f 310 787 181
f 787 182 181
f 171 181 182
f 171 182 174
f 174 175 171
f 175 174 787
f 787 788 175
f 788 176 175
f 168 181 171
f 168 180 181
f 307 181 180
f 307 180 179
f 178 307 179
f 178 308 307
f 786 308 178
f 786 305 308
f 304 308 305
f 304 305 306
f 83 306 305
f 83 305 169
f 168 83 169
f 168 169 170
f 170 178 168
f 170 786 178
f 170 305 786
f 169 305 170
f 304 309 308
f 307 308 309
f 307 309 310
f 168 178 179
f 179 180 168
f 787 174 182
f 310 181 307
f 327 326 310
f 327 310 303
f 330 795 796
f 328 329 325
f 790 330 737
f 5 737 738
f 5 738 730
f 736 731 329
f 732 733 6
f 6 733 7
f 329 735 734
f 8 792 791
f 8 791 16
f 328 333 329
f 16 791 794
f 16 794 793
f 331 332 333
f 328 331 333
f 621 336 623
f 621 190 336
f 623 655 622
f 655 337 656
f 655 656 657
f 658 657 656
f 656 337 658
f 337 659 658
f 658 659 660
f 661 660 659
f 663 660 661
f 335 328 325
f 325 326 327
f 337 661 659
f 661 662 663
f 663 662 664
f 662 301 664
f 664 301 312
f 664 312 666
f 665 664 666
f 666 312 311
f 311 312 313
f 663 664 665
f 665 670 663
f 665 669 670
f 338 327 303
f 662 302 301
f 309 303 310
f 313 312 301
f 322 311 313
f 321 311 322
f 323 309 304
f 306 324 304
f 324 306 83
f 83 317 318
f 83 676 317
f 317 676 315
f 319 314 320
f 317 315 318
f 322 314 316
f 315 676 668
f 322 316 321
f 666 311 321
f 665 666 667
f 675 844 674
f 674 844 843
f 350 843 844
f 350 844 349
f 349 844 845
f 349 344 350
f 350 344 343
f 93 343 344
f 93 344 108
f 108 344 345
f 108 345 109
f 92 108 109
f 92 109 110
f 513 92 110
f 485 92 513
f 485 97 92
f 475 97 485
f 485 476 475
f 476 485 487
f 487 478 476
f 477 476 478
f 478 479 477
f 478 486 479
f 479 486 489
f 486 488 489
f 489 488 490
f 486 487 488
f 488 487 509
f 488 509 506
f 506 507 488
f 506 509 510
f 506 510 504
f 504 510 511
f 504 505 506
f 509 514 510
f 510 514 515
f 514 112 515
f 514 110 112
f 110 111 112
f 112 111 113
f 113 111 347
f 356 113 347
f 356 347 357
f 395 356 357
f 115 113 356
f 114 113 115
f 112 113 114
f 509 513 514
f 487 513 509
f 477 479 480
f 477 480 474
f 474 480 481
f 100 477 474
f 475 477 100
f 100 98 475
f 99 98 100
f 97 98 99
f 99 100 101
f 681 480 479
f 486 478 487
f 475 476 477
f 475 98 97
f 97 122 92
f 97 121 122
f 121 402 122
f 122 402 358
f 122 358 123
f 358 359 123
f 389 359 358
f 389 358 393
f 847 389 393
f 847 393 868
f 868 393 404
f 868 404 869
f 869 579 868
f 869 870 579
f 579 870 871
f 579 871 578
f 578 565 579
f 579 565 564
f 579 564 580
f 580 564 588
f 566 588 564
f 587 588 566
f 572 587 566
f 567 572 566
f 567 571 572
f 566 565 567
f 572 571 587
f 571 569 587
f 587 638 588
f 590 638 587
f 590 637 638
f 592 637 590
f 590 591 592
f 592 636 637
f 636 651 637
f 636 650 651
f 635 650 636
f 635 649 650
f 634 649 635
f 594 635 636
f 596 635 594
f 650 852 651
f 651 852 853
f 651 853 652
f 652 853 854
f 652 854 653
f 653 854 850
f 854 391 850
f 390 850 391
f 390 849 850
f 389 849 390
f 389 848 849
f 654 849 848
f 653 849 654
f 588 653 654
f 654 848 580
f 580 848 846
f 580 846 847
f 846 848 389
f 389 390 361
f 361 390 391
f 361 391 360
f 360 391 392
f 360 392 388
f 852 388 392
f 851 388 852
f 851 384 388
f 362 388 384
f 384 385 362
f 362 385 386
f 385 384 851
f 362 360 388
f 853 392 391
f 360 90 361
f 125 90 360
f 90 91 361
f 361 91 359
f 91 90 92
f 92 123 91
f 92 90 93
f 90 107 93
f 90 106 107
f 106 342 107
f 107 342 343
f 351 343 342
f 351 342 352
f 352 342 341
f 352 341 353
f 353 841 352
f 353 341 340
f 89 340 341
f 89 341 106
f 88 340 89
f 88 339 340
f 354 340 339
f 354 339 355
f 355 839 354
f 839 355 372
f 88 89 90
f 88 90 124
f 353 340 354
f 354 840 353
f 352 842 351
f 351 842 843
f 106 341 342
f 89 106 90
f 653 850 849
f 638 652 653
f 853 391 854
f 852 392 853
f 650 851 852
f 637 651 652
f 594 636 592
f 592 593 594
f 637 652 638
f 587 589 590
f 638 653 588
f 588 654 580
f 564 565 566
f 578 573 565
f 869 407 870
f 870 407 406
f 868 579 580
f 869 404 407
f 403 407 404
f 402 403 404
f 868 580 847
f 846 389 847
f 358 404 393
f 361 359 389
f 123 359 91
f 402 404 358
f 121 403 402
f 121 120 403
f 120 121 97
f 92 122 123
f 487 485 513
f 513 110 514
f 110 109 111
f 109 346 111
f 93 108 92
f 107 343 93
f 350 343 351
f 351 843 350
f 675 845 844
f 667 669 665
f 673 671 669
f 674 843 842
f 352 841 842
f 353 840 841
f 582 671 673
f 354 839 840
f 583 839 865
f 586 583 624
f 624 583 639
f 624 639 625
f 616 624 625
f 616 625 614
f 614 615 616
f 616 615 617
f 614 625 626
f 614 626 612
f 612 613 614
f 612 611 613
f 610 611 612
f 610 609 611
f 608 609 610
f 612 627 610
f 618 624 616
f 618 586 624
f 581 671 582
f 669 671 670
f 663 670 660
f 660 657 658
f 584 672 585
f 622 655 657
f 620 584 586
f 622 621 623
f 619 190 621
f 620 586 618
f 616 617 618
f 617 187 198
f 619 191 190
f 189 190 191
f 15 189 214
f 739 15 214
f 739 13 15
f 213 741 742
f 726 14 740
f 728 727 213
f 47 729 724
f 47 724 46
f 197 212 213
f 46 724 725
f 212 722 723
f 212 766 722
f 212 765 766
f 211 765 212
f 211 764 765
f 199 211 212
f 210 186 215
f 198 187 199
f 615 187 617
f 614 613 615
f 611 200 613
f 611 184 200
f 188 201 186
f 200 184 202
f 201 219 220
f 217 218 202
f 748 220 219
f 43 748 42
f 42 760 41
f 749 218 217
f 41 760 759
f 41 759 758
f 758 757 41
f 757 756 41
f 226 756 757
f 226 757 222
f 747 756 226
f 226 225 747
f 747 225 752
f 747 752 40
f 40 752 755
f 223 755 752
f 223 752 224
f 223 224 205
f 205 208 223
f 205 209 208
f 207 208 209
f 207 206 208
f 195 206 207
f 195 192 206
f 230 206 192
f 230 192 231
f 231 192 194
f 192 193 194
f 22 194 193
f 193 196 22
f 22 196 23
f 23 196 238
f 23 238 239
f 239 240 23
f 239 233 240
f 240 233 237
f 233 236 237
f 233 255 236
f 255 712 236
f 236 712 711
f 236 711 710
f 710 709 236
f 709 710 26
f 709 26 770
f 770 26 27
f 770 27 767
f 27 768 767
f 767 768 236
f 236 768 769
f 27 769 768
f 23 769 27
f 23 237 769
f 236 770 767
f 236 709 770
f 26 710 711
f 26 711 36
f 36 711 712
f 36 712 707
f 36 707 48
f 48 707 708
f 48 708 706
f 706 708 255
f 255 705 706
f 255 785 705
f 259 785 255
f 259 784 785
f 784 50 785
f 783 50 784
f 783 51 50
f 782 51 783
f 781 51 782
f 256 781 782
f 256 782 257
f 256 257 248
f 248 257 258
f 248 258 247
f 247 246 248
f 246 254 248
f 528 254 246
f 531 254 528
f 528 530 531
f 528 527 530
f 527 528 529
f 529 528 235
f 235 552 529
f 235 558 552
f 552 558 553
f 553 558 560
f 558 559 560
f 561 560 559
f 563 560 561
f 563 576 560
f 554 560 576
f 561 562 563
f 235 562 561
f 235 561 559
f 553 560 554
f 549 552 553
f 549 553 548
f 548 527 549
f 559 558 235
f 529 552 549
f 549 527 529
f 530 527 547
f 531 530 532
f 537 532 530
f 536 532 537
f 536 533 532
f 535 533 536
f 535 250 533
f 533 250 252
f 250 251 252
f 250 249 251
f 244 249 250
f 244 241 249
f 265 249 241
f 265 241 266
f 266 241 243
f 241 242 243
f 28 243 242
f 28 267 243
f 772 267 28
f 28 771 772
f 28 773 771
f 771 773 266
f 266 773 774
f 266 774 701
f 701 700 266
f 32 700 701
f 30 32 701
f 32 699 700
f 34 699 32
f 698 699 34
f 34 702 698
f 34 697 702
f 35 697 34
f 696 697 35
f 35 704 696
f 35 703 704
f 54 703 35
f 703 54 775
f 264 703 775
f 265 703 264
f 264 775 263
f 263 249 264
f 263 775 776
f 263 776 262
f 776 777 262
f 262 777 778
f 262 778 261
f 261 778 779
f 261 779 260
f 260 253 261
f 261 253 251
f 256 253 260
f 260 780 256
f 260 779 780
f 779 52 780
f 780 52 51
f 779 778 52
f 261 251 262
f 52 778 777
f 52 777 53
f 776 53 777
f 262 251 263
f 775 53 776
f 775 54 53
f 265 704 703
f 696 704 265
f 265 697 696
f 702 697 265
f 265 698 702
f 265 699 698
f 266 700 699
f 701 774 30
f 30 774 773
f 30 773 28
f 771 266 772
f 772 266 267
f 242 245 28
f 28 245 29
f 29 245 289
f 29 289 287
f 287 286 29
f 286 287 288
f 287 290 288
f 288 290 292
f 519 292 290
f 519 294 292
f 293 292 294
f 293 294 295
f 295 298 293
f 293 298 299
f 293 299 288
f 288 299 300
f 299 835 300
f 300 835 836
f 300 836 834
f 31 834 836
f 31 825 834
f 29 825 31
f 29 291 825
f 825 291 300
f 825 300 834
f 835 31 836
f 835 33 31
f 692 33 835
f 692 693 33
f 693 692 299
f 299 694 693
f 299 695 694
f 690 695 299
f 691 690 299
f 299 689 691
f 63 691 689
f 689 62 63
f 688 62 689
f 833 62 688
f 298 833 688
f 297 833 298
f 297 832 833
f 831 832 297
f 296 831 297
f 296 830 831
f 271 830 296
f 296 270 271
f 295 270 296
f 295 285 270
f 284 270 285
f 285 519 284
f 284 519 520
f 520 283 284
f 520 282 283
f 282 269 283
f 283 269 268
f 268 269 270
f 282 274 269
f 274 275 269
f 269 275 276
f 269 276 271
f 271 276 828
f 828 829 271
f 60 829 828
f 828 827 60
f 60 827 826
f 60 826 72
f 72 826 161
f 72 161 163
f 161 162 163
f 163 162 434
f 163 434 677
f 677 434 433
f 677 433 436
f 436 824 677
f 677 824 72
f 823 72 824
f 822 72 823
f 443 822 823
f 443 823 436
f 822 71 72
f 821 71 822
f 821 820 71
f 71 820 819
f 454 819 820
f 454 820 440
f 71 819 70
f 819 816 70
f 440 820 821
f 441 821 822
f 436 823 824
f 433 428 436
f 433 429 428
f 431 429 433
f 431 139 429
f 433 434 431
f 431 434 435
f 434 160 435
f 435 160 159
f 435 159 432
f 432 159 164
f 432 164 153
f 161 153 164
f 151 153 161
f 151 152 153
f 274 152 151
f 274 151 272
f 272 273 274
f 828 273 272
f 275 273 828
f 828 272 151
f 278 152 274
f 274 281 278
f 274 280 281
f 521 281 280
f 521 280 282
f 523 281 521
f 523 279 281
f 522 279 523
f 539 522 523
f 539 523 521
f 520 539 521
f 520 538 539
f 534 538 520
f 534 535 538
f 534 244 535
f 534 245 244
f 519 245 534
f 519 289 245
f 244 245 242
f 538 536 539
f 278 281 279
f 278 279 277
f 277 279 158
f 279 157 158
f 157 153 158
f 158 153 154
f 277 158 154
f 277 154 278
f 278 154 152
f 153 152 154
f 161 164 159
f 159 160 161
f 431 435 432
f 434 162 160
f 161 160 162
f 677 72 163
f 161 826 151
f 151 826 827
f 151 827 828
f 60 830 829
f 61 830 60
f 828 276 275
f 274 273 275
f 280 274 282
f 521 282 520
f 283 268 284
f 520 519 534
f 284 268 270
f 270 269 271
f 271 829 830
f 61 831 830
f 296 297 295
f 832 831 61
f 832 61 833
f 833 61 62
f 299 688 689
f 63 690 691
f 64 690 63
f 64 695 690
f 64 694 695
f 33 694 64
f 33 693 694
f 299 692 835
f 288 300 291
f 298 688 299
f 295 297 298
f 294 285 295
f 285 294 519
f 290 289 519
f 288 292 293
f 287 289 290
f 286 288 291
f 286 291 29
f 266 243 267
f 266 699 265
f 264 249 265
f 242 241 244
f 263 251 249
f 252 251 253
f 252 253 254
f 533 252 531
f 535 244 250
f 538 535 536
f 539 536 537
f 539 537 526
f 531 532 533
f 531 252 254
f 528 246 235
f 248 254 253
f 235 246 247
f 235 247 233
f 247 258 259
f 257 783 258
f 248 253 256
f 780 781 256
f 780 51 781
f 257 782 783
f 258 783 784
f 49 785 50
f 258 784 259
f 247 259 255
f 705 785 49
f 705 49 706
f 706 49 48
f 708 707 255
f 255 707 712
f 233 247 255
f 236 769 237
f 239 234 233
f 238 234 239
f 240 237 23
f 22 232 194
f 744 232 22
f 22 743 744
f 22 745 743
f 21 745 22
f 21 746 745
f 231 745 746
f 231 746 718
f 718 717 231
f 25 717 718
f 25 716 717
f 24 716 25
f 715 716 24
f 230 716 715
f 230 715 719
f 719 714 230
f 24 714 719
f 37 714 24
f 713 714 37
f 37 721 713
f 37 720 721
f 721 720 230
f 230 720 750
f 720 38 750
f 750 38 39
f 750 39 751
f 751 39 753
f 751 753 228
f 228 753 754
f 228 754 227
f 227 208 228
f 227 754 755
f 39 755 754
f 229 751 228
f 228 206 229
f 39 754 753
f 229 750 751
f 230 750 229
f 38 720 37
f 230 713 721
f 230 714 713
f 24 719 715
f 21 25 718
f 231 717 716
f 718 746 21
f 743 745 231
f 743 231 744
f 744 231 232
f 231 194 232
f 231 716 230
f 229 206 230
f 193 192 195
f 195 196 193
f 599 196 195
f 597 196 599
f 597 238 196
f 601 195 207
f 601 207 603
f 228 208 206
f 603 207 209
f 603 209 605
f 604 603 605
f 602 603 604
f 203 209 205
f 204 203 205
f 205 225 204
f 223 208 227
f 205 224 225
f 227 755 223
f 40 755 39
f 41 747 40
f 224 752 225
f 204 225 226
f 41 756 747
f 222 757 758
f 221 758 759
f 202 183 217
f 222 758 221
f 204 226 222
f 202 184 183
f 609 184 611
f 185 203 204
f 605 209 203
f 604 605 606
f 606 630 604
f 604 630 631
f 630 645 631
f 608 607 609
f 606 629 630
f 629 644 630
f 610 628 608
f 629 643 644
f 642 863 643
f 643 863 862
f 375 862 863
f 643 862 861
f 376 861 862
f 642 864 863
f 610 627 628
f 641 864 642
f 612 626 627
f 625 640 626
f 625 639 640
f 583 865 639
f 866 373 374
f 839 372 865
f 373 369 368
f 355 339 372
f 124 339 88
f 147 368 369
f 124 90 125
f 125 360 362
f 362 386 363
f 126 146 147
f 145 363 364
f 146 148 149
f 146 368 147
f 373 368 374
f 866 374 867
f 641 867 864
f 375 863 864
f 370 371 367
f 150 366 367
f 376 862 375
f 365 378 366
f 365 377 378
f 379 861 376
f 377 860 378
f 643 861 644
f 630 644 645
f 645 858 646
f 646 858 857
f 377 859 860
f 383 857 858
f 364 377 365
f 856 857 383
f 363 382 364
f 855 381 380
f 363 386 387
f 385 851 386
f 649 851 650
f 634 648 649
f 856 381 855
f 647 857 856
f 646 857 647
f 631 645 646
f 604 631 602
f 602 601 603
f 599 195 601
f 600 632 633
f 633 648 634
f 596 634 635
f 598 597 599
f 594 595 596
f 234 238 597
f 233 234 235
f 594 593 595
f 592 591 593
f 590 589 591
f 587 569 589
f 568 562 235
f 570 569 571
f 568 563 562
f 574 576 563
f 570 571 567
f 565 573 567
f 574 575 576
f 555 576 575
f 542 556 543
f 554 576 555
f 548 553 554
f 548 547 527
f 542 545 546
f 542 544 545
f 530 547 537
f 526 537 541
f 545 544 550
f 542 543 544
f 877 876 414
f 543 556 557
f 875 557 577
f 873 409 874
f 577 573 578
f 578 871 872
f 870 406 871
f 403 406 407
f 403 120 396
f 97 119 120
f 405 397 408
f 873 408 409
f 874 409 410
f 410 400 411
f 411 400 401
f 398 118 399
f 97 118 119
f 400 117 130
f 99 129 97
f 99 128 129
f 127 128 99
f 400 130 401
f 128 413 129
f 419 413 128
f 417 419 128
f 417 418 419
f 416 418 417
f 423 418 416
f 423 416 424
f 424 416 415
f 415 416 99
f 99 140 415
f 415 140 426
f 415 426 425
f 141 140 99
f 95 140 141
f 99 416 417
f 411 401 412
f 414 876 412
f 419 420 413
f 877 414 878
f 879 551 878
f 422 881 879
f 418 420 419
f 421 418 423
f 423 883 421
f 423 882 883
f 882 525 883
f 883 525 884
f 422 880 881
f 421 883 884
f 880 540 881
f 526 541 540
f 884 525 524
f 526 522 539
f 522 157 279
f 157 156 153
f 882 155 525
f 424 882 423
f 424 415 425
f 153 156 678
f 678 432 153
f 430 431 432
f 425 426 427
f 140 144 426
f 430 143 431
f 95 144 140
f 143 139 431
f 138 429 139
f 94 137 95
f 94 95 96
f 96 131 94
f 444 131 96
f 96 450 444
f 444 450 466
f 444 466 465
f 450 470 466
f 450 469 470
f 451 469 450
f 450 95 451
f 797 470 469
f 470 797 466
f 449 131 444
f 96 95 450
f 428 429 138
f 443 436 428
f 441 822 443
f 440 821 441
f 137 94 442
f 440 446 454
f 816 819 454
f 70 816 817
f 70 817 69
f 817 818 69
f 69 818 812
f 69 812 68
f 68 812 813
f 812 437 813
f 813 437 459
f 437 445 459
f 439 445 437
f 437 438 439
f 438 456 439
f 812 456 438
f 445 460 459
f 445 448 460
f 448 464 460
f 464 811 460
f 464 810 811
f 463 810 464
f 463 809 810
f 810 809 67
f 67 809 808
f 67 808 66
f 810 67 811
f 811 67 68
f 811 68 815
f 815 68 814
f 814 460 815
f 815 460 811
f 814 459 460
f 813 459 814
f 812 438 437
f 68 813 814
f 818 456 812
f 818 457 456
f 817 457 818
f 447 458 455
f 439 456 457
f 136 135 447
f 439 134 445
f 94 135 136
f 445 134 133
f 94 131 132
f 133 448 445
f 132 131 449
f 448 463 464
f 462 809 463
f 449 444 461
f 462 808 809
f 461 444 465
f 466 806 465
f 808 807 66
f 466 797 806
f 797 469 803
f 471 805 467
f 468 803 469
f 451 468 469
f 467 452 471
f 95 141 451
f 141 99 142
f 142 99 101
f 100 474 101
f 472 452 453
f 472 801 802
f 800 58 801
f 474 481 473
f 480 686 481
f 800 57 58
f 480 687 686
f 679 680 56
f 56 680 55
f 681 685 480
f 479 682 681
f 20 683 684
f 20 684 19
f 19 684 799
f 479 489 491
f 19 799 798
f 489 490 491
f 488 508 490
f 488 507 508
f 506 505 507
f 504 503 505
f 502 503 504
f 502 501 503
f 499 500 501
f 492 484 498
f 492 494 496
f 494 495 496
f 494 518 495
f 494 517 518
f 512 517 494
f 499 501 502
f 504 511 502
f 510 515 511
f 515 112 114
f 512 516 517
f 517 497 518
f 114 115 103
f 395 115 356
f 394 78 165
f 165 78 77
f 75 77 78
f 78 79 75
f 79 78 394
f 81 395 357
f 80 79 394
f 75 79 80
f 357 347 81
f 347 111 346
f 109 345 346
f 349 345 344
f 349 845 838
f 838 845 675
f 675 668 676
f 837 75 348
f 82 676 83
f 84 83 168
f 168 85 84
f 168 86 85
f 171 86 168
f 171 175 176
f 788 177 176
f 10 788 787
f 172 173 789
f 172 167 173
f 11 105 165
f 12 105 11
f 12 104 105
f 102 104 12
f 3 102 12
f 3 885 102
f 102 885 497
f 497 885 518
f 885 495 518
f 885 496 495
f 493 496 885
f 493 885 482
f 482 885 483
f 483 885 3
f 173 167 166
f 77 76 165
f 75 76 77
f 166 74 73
f 75 87 73

