# https://github.com/mikedh/trimesh
v -0.00586761 0.02247817 -0.06801801
v -0.00189465 0.02247817 -0.06284034
v -0.00836512 0.02247817 -0.08698849
v -0.00921698 0.02247817 -0.08051801
v 0.01578302 0.02247817 -0.10551801
v 0.00931255 0.02247817 -0.10466617
v 0.02225350 0.02247817 -0.10466616
v 0.03346070 0.02247817 -0.09819569
v 0.02828302 0.02247817 -0.10216865
v 0.00328302 0.02247817 -0.05886738
v 0.00931255 0.02247817 -0.05636987
v -0.00836512 0.02247817 -0.07404754
v 0.01578302 0.02247817 -0.05551801
v -0.00586761 0.02247817 -0.09301802
v -0.00189464 0.02247817 -0.09819569
v 0.00328302 0.02247817 -0.10216866
v 0.02225350 0.02247817 -0.05636987
v 0.02828302 0.02247817 -0.05886738
v 0.03346070 0.02247817 -0.06284034
v 0.03743366 0.02247817 -0.06801801
v 0.03993117 0.02247817 -0.07404754
v 0.04078303 0.02247817 -0.08051801
v 0.03993117 0.02247817 -0.08698849
v 0.03743366 0.02247817 -0.09301802
v 0.01578302 0.02047599 -0.10551801
v 0.00931255 0.02047598 -0.10466617
v 0.00328302 0.02047599 -0.10216865
v -0.00189465 0.02047599 -0.09819569
v -0.00586761 0.02047598 -0.09301801
v -0.00836512 0.02047598 -0.08698849
v -0.00921698 0.02047598 -0.08051801
v -0.00836512 0.02047599 -0.07404754
v -0.00586761 0.02047599 -0.06801801
v -0.00189464 0.02047598 -0.06284034
v 0.00328302 0.02047599 -0.05886738
v 0.00931255 0.02047598 -0.05636987
v 0.01578302 0.02047599 -0.05551801
v 0.02225350 0.02047598 -0.05636987
v 0.02828302 0.02047599 -0.05886738
v 0.03346070 0.02047599 -0.06284034
v 0.03743366 0.02047598 -0.06801801
v 0.03993117 0.02047599 -0.07404754
v 0.04078303 0.02047598 -0.08051801
v 0.03993117 0.02047599 -0.08698849
v 0.03743366 0.02047599 -0.09301802
v 0.03346070 0.02047599 -0.09819569
v 0.02828302 0.02047599 -0.10216865
v 0.02225350 0.02047599 -0.10466616
f 25 5 26
f 26 5 6
f 26 6 27
f 27 6 16
f 27 16 28
f 28 16 15
f 28 15 29
f 29 15 14
f 29 14 30
f 30 14 3
f 30 3 31
f 31 3 4
f 31 4 32
f 32 4 12
f 32 12 33
f 33 12 1
f 33 1 34
f 34 1 2
f 34 2 35
f 35 2 10
f 35 10 36
f 36 10 11
f 36 11 37
f 37 11 13
f 37 13 38
f 38 13 17
f 38 17 39
f 39 17 18
f 39 18 40
f 40 18 19
f 40 19 41
f 41 19 20
f 41 20 42
f 42 20 21
f 42 21 43
f 43 21 22
f 43 22 44
f 44 22 23
f 44 23 45
f 45 23 24
f 45 24 46
f 46 24 8
f 46 8 47
f 47 8 9
f 47 9 48
f 48 9 7
f 48 7 25
f 25 7 5

