# https://github.com/mikedh/trimesh
v 0.02313713 -0.02621250 -0.04945749
v 0.02313712 -0.02971250 -0.04945749
v 0.02562034 -0.02621250 -0.05067579
v 0.02562033 -0.02971250 -0.05067580
v 0.03479744 -0.02621253 -0.05548349
v -0.00600786 -0.02621244 -0.10334244
v 0.03040790 -0.02621251 -0.05269978
v -0.00663433 -0.02621244 -0.10287528
v -0.00687199 -0.02621243 -0.10275316
v 0.00706808 -0.02621247 -0.04981426
v 0.01039669 -0.02621247 -0.04906046
v 0.02146241 -0.02621250 -0.11158774
v 0.03866945 -0.02621254 -0.05895118
v 0.01628977 -0.02621249 -0.11209869
v 0.01110353 -0.02621248 -0.11175207
v 0.00604490 -0.02621245 -0.11055730
v 0.01237845 -0.02621248 -0.04878505
v 0.01464854 -0.02621248 -0.04862303
v 0.01778631 -0.02621249 -0.04866498
v 0.01892076 -0.02621249 -0.04875617
v 0.03928526 -0.02621253 -0.10158431
v 0.03551502 -0.02621252 -0.10516236
v 0.04445612 -0.02621254 -0.06754465
v 0.03120770 -0.02621252 -0.10807171
v 0.00125162 -0.02621245 -0.10854691
v -0.00314581 -0.02621244 -0.10577565
v 0.04191850 -0.02621254 -0.06300838
v 0.02648060 -0.02621251 -0.11023311
v -0.00763476 -0.02621243 -0.10229570
v 0.00200692 -0.02621246 -0.05172320
v 0.00624107 -0.02621247 -0.05006063
v -0.00680051 -0.02621244 -0.05793854
v -0.01120425 -0.02621243 -0.09778704
v -0.01371299 -0.02621241 -0.09299481
v -0.00824676 -0.02621243 -0.10172676
v -0.00266039 -0.02621245 -0.05445734
v 0.04241577 -0.02621254 -0.09743495
v 0.04621321 -0.02621254 -0.07243647
v 0.04714194 -0.02621256 -0.07755063
v 0.04721700 -0.02621255 -0.08274790
v 0.04643638 -0.02621255 -0.08788676
v 0.04482130 -0.02621255 -0.09282728
v -0.01496978 -0.02621242 -0.07178068
v -0.01304441 -0.02621242 -0.06672575
v -0.01601623 -0.02621241 -0.07708768
v -0.01615385 -0.02621241 -0.08249512
v -0.01537873 -0.02621241 -0.08784848
v -0.01029514 -0.02621243 -0.06206733
v 0.03479744 -0.02971253 -0.05548349
v 0.03866944 -0.02971254 -0.05895118
v 0.03040789 -0.02971251 -0.05269977
v 0.01778630 -0.02971249 -0.04866498
v 0.01237844 -0.02971248 -0.04878505
v 0.00706807 -0.02971247 -0.04981426
v 0.00604489 -0.02971245 -0.11055730
v 0.01110353 -0.02971248 -0.11175207
v 0.03551501 -0.02971252 -0.10516237
v 0.03928525 -0.02971253 -0.10158431
v 0.04241576 -0.02971254 -0.09743495
v 0.04482130 -0.02971255 -0.09282728
v 0.04643637 -0.02971255 -0.08788676
v 0.04721700 -0.02971255 -0.08274790
v 0.04714192 -0.02971256 -0.07755063
v 0.04621320 -0.02971254 -0.07243647
v 0.04445611 -0.02971254 -0.06754465
v 0.04191849 -0.02971254 -0.06300838
v 0.03120770 -0.02971251 -0.10807171
v 0.02648059 -0.02971251 -0.11023312
v 0.02146240 -0.02971250 -0.11158774
v 0.01628977 -0.02971249 -0.11209869
v 0.00624106 -0.02971246 -0.05006063
v 0.00200692 -0.02971246 -0.05172321
v -0.00266040 -0.02971245 -0.05445734
v -0.00655161 -0.02971243 -0.10280844
v -0.00314582 -0.02971244 -0.10577566
v 0.00125161 -0.02971245 -0.10854691
v -0.00680052 -0.02971244 -0.05793853
v -0.00752179 -0.02971244 -0.05868112
v -0.01029514 -0.02971243 -0.06206733
v -0.01304442 -0.02971242 -0.06672574
v -0.01496979 -0.02971242 -0.07178067
v -0.01601624 -0.02971241 -0.07708768
v -0.01615386 -0.02971241 -0.08249512
v -0.01537873 -0.02971241 -0.08784848
v -0.01371300 -0.02971241 -0.09299480
v -0.01120426 -0.02971243 -0.09778704
v -0.00874937 -0.02971243 -0.10114074
v -0.00811247 -0.02971243 -0.10175455
v -0.00740052 -0.02971243 -0.10219908
v -0.00694765 -0.02971243 -0.10247065
v -0.00628252 -0.02796207 -0.10307593
v -0.00850090 -0.02796207 -0.10143401
v -0.00850090 -0.02796207 -0.10143402
f 1 2 3
f 3 2 4
f 51 3 4
f 51 7 3
f 49 7 51
f 49 5 7
f 50 5 49
f 50 13 5
f 66 13 50
f 66 27 13
f 65 27 66
f 65 23 27
f 64 23 65
f 64 38 23
f 63 38 64
f 63 39 38
f 62 39 63
f 62 40 39
f 61 40 62
f 61 41 40
f 60 41 61
f 60 42 41
f 59 42 60
f 59 37 42
f 58 37 59
f 58 21 37
f 57 21 58
f 57 22 21
f 67 22 57
f 67 24 22
f 68 24 67
f 68 28 24
f 69 28 68
f 69 12 28
f 70 12 69
f 70 14 12
f 56 14 70
f 56 15 14
f 55 15 56
f 55 16 15
f 76 16 55
f 76 25 16
f 75 25 76
f 75 26 25
f 91 26 75
f 75 74 91
f 8 91 74
f 6 91 8
f 8 74 90
f 90 9 8
f 89 9 90
f 9 89 88
f 9 88 29
f 29 88 92
f 29 92 35
f 88 87 92
f 91 6 26
f 52 2 1
f 1 20 52
f 52 20 19
f 52 19 53
f 53 19 18
f 53 18 17
f 11 53 17
f 11 54 53
f 10 54 11
f 10 71 54
f 31 71 10
f 31 72 71
f 30 72 31
f 36 72 30
f 36 73 72
f 32 73 36
f 32 77 73
f 78 77 32
f 48 78 32
f 48 79 78
f 44 79 48
f 44 80 79
f 43 80 44
f 43 81 80
f 45 81 43
f 45 82 81
f 46 82 45
f 46 83 82
f 47 83 46
f 47 84 83
f 34 84 47
f 34 85 84
f 33 85 34
f 33 86 85
f 93 86 33
f 33 35 93
f 93 87 86

