# https://github.com/mikedh/trimesh
v 0.00000095 -0.02400000 -0.00000001
v 0.00000084 0.02400000 0.00000000
v 0.00577724 0.02329427 -0.00000001
v 0.01121477 0.02121860 0.00000000
v 0.01599274 0.01789504 0.00000000
v 0.01983017 0.01351905 0.00000000
v 0.02250136 0.00834798 -0.00000001
v 0.02384923 0.00268597 0.00000000
v 0.02379449 -0.00313401 0.00000000
v 0.02234039 -0.00876967 0.00000001
v 0.01957241 -0.01388958 0.00000000
v 0.01565337 -0.01819264 -0.00000001
v 0.01081374 -0.02142576 0.00000000
v 0.00533814 -0.02339881 0.00000001
f 2 1 14
f 14 3 2
f 14 4 3
f 5 4 14
f 14 13 5
f 5 13 12
f 5 12 6
f 6 12 7
f 12 8 7
f 12 11 8
f 8 11 10
f 8 10 9

