# https://github.com/mikedh/trimesh
v 0.01578302 -0.02247817 -0.10551801
v 0.02225350 -0.02247817 -0.10466616
v -0.00836512 -0.02247817 -0.07404754
v -0.00921698 -0.02247817 -0.08051801
v 0.00931255 -0.02247817 -0.10466617
v 0.00328302 -0.02247817 -0.10216866
v -0.00586761 -0.02247817 -0.09301802
v -0.00189464 -0.02247817 -0.09819569
v -0.00836512 -0.02247817 -0.08698849
v 0.01578302 -0.02247817 -0.05551801
v 0.00931255 -0.02247817 -0.05636987
v -0.00586761 -0.02247817 -0.06801801
v 0.00328302 -0.02247817 -0.05886738
v -0.00189465 -0.02247817 -0.06284034
v 0.03743366 -0.02247817 -0.06801801
v 0.03346070 -0.02247817 -0.06284034
v 0.02828302 -0.02247817 -0.05886738
v 0.02225350 -0.02247817 -0.05636987
v 0.02828302 -0.02247817 -0.10216865
v 0.03743366 -0.02247817 -0.09301802
v 0.03346070 -0.02247817 -0.09819569
v 0.03993117 -0.02247817 -0.08698849
v 0.04078303 -0.02247817 -0.08051801
v 0.03993117 -0.02247817 -0.07404754
v 0.01578302 -0.02047599 -0.10551801
v 0.02225350 -0.02047599 -0.10466616
v 0.02828302 -0.02047599 -0.10216865
v 0.03346070 -0.02047599 -0.09819569
v 0.03743366 -0.02047599 -0.09301802
v 0.03993117 -0.02047599 -0.08698849
v 0.04078303 -0.02047598 -0.08051801
v 0.03993117 -0.02047599 -0.07404754
v 0.03743366 -0.02047598 -0.06801801
v 0.03346070 -0.02047599 -0.06284034
v 0.02828302 -0.02047599 -0.05886738
v 0.02225350 -0.02047598 -0.05636987
v 0.01578302 -0.02047599 -0.05551801
v 0.00931255 -0.02047598 -0.05636987
v 0.00328302 -0.02047599 -0.05886738
v -0.00189464 -0.02047598 -0.06284034
v -0.00586761 -0.02047599 -0.06801801
v -0.00836512 -0.02047599 -0.07404754
v -0.00921698 -0.02047598 -0.08051801
v -0.00836512 -0.02047598 -0.08698849
v -0.00586761 -0.02047598 -0.09301801
v -0.00189465 -0.02047599 -0.09819569
v 0.00328302 -0.02047599 -0.10216865
v 0.00931255 -0.02047598 -0.10466617
f 25 1 26
f 25 5 1
f 48 5 25
f 48 6 5
f 47 6 48
f 47 8 6
f 46 8 47
f 46 7 8
f 45 7 46
f 45 9 7
f 44 9 45
f 44 4 9
f 43 4 44
f 43 3 4
f 42 3 43
f 42 12 3
f 41 12 42
f 41 14 12
f 40 14 41
f 40 13 14
f 39 13 40
f 39 11 13
f 38 11 39
f 38 10 11
f 37 10 38
f 37 18 10
f 36 18 37
f 36 17 18
f 35 17 36
f 35 16 17
f 34 16 35
f 34 15 16
f 33 15 34
f 33 24 15
f 32 24 33
f 32 23 24
f 31 23 32
f 31 22 23
f 30 22 31
f 30 20 22
f 29 20 30
f 29 21 20
f 28 21 29
f 28 19 21
f 27 19 28
f 27 2 19
f 26 2 27
f 26 1 2

