# https://github.com/mikedh/trimesh
v 0.00007621 -0.02247830 -0.05359251
v 0.00007611 0.02621239 -0.05359276
v 0.00001033 0.02621239 -0.05258964
v 0.00001044 -0.02247830 -0.05258963
v -0.00000297 0.02621250 -0.05125485
v -0.00000284 -0.02247830 -0.05125489
v -0.00000277 -0.02249058 -0.05026204
v 0.00000169 -0.03198625 0.03157387
v 0.00000350 -0.03310637 0.02928302
v 0.00000328 -0.02400000 0.03157385
v 0.00000269 -0.03290650 0.02336478
v 0.00000095 -0.02400000 -0.00000001
v 0.00000156 -0.03249504 0.00810894
v 0.00000337 -0.03234475 0.00392301
v 0.00000441 -0.02428053 -0.03615730
v -0.00000205 -0.02335083 -0.04056416
v -0.00000145 0.02691651 -0.03086734
v 0.00000014 0.03048444 -0.00933775
v 0.00000500 0.03100986 -0.00421864
v 0.00000084 0.02400000 0.00000000
v 0.00000081 0.03131653 -0.00013985
v 0.00000393 0.03157469 0.00392394
v -0.00000240 -0.02275261 -0.04528696
v 0.00000298 0.03214986 0.02928299
v 0.00000219 0.03096011 0.03157370
v 0.00000283 0.03213740 0.02717006
v 0.00000317 0.02400000 0.03157372
v 0.00000172 0.03189926 0.01217855
v 0.00000136 0.03172886 0.00723837
v -0.00000238 0.02620392 -0.04352662
v -0.00000200 0.02628404 -0.03837300
v 0.00000534 0.02641084 -0.03615721
v -0.00000135 0.02708941 -0.02958210
v -0.00000087 0.02818152 -0.02303301
v -0.00000149 -0.02510881 -0.03305470
v -0.00000039 0.02937996 -0.01653835
v -0.00000097 -0.02721107 -0.02601618
v -0.00000075 -0.02810775 -0.02303666
v -0.00000063 -0.02854504 -0.02152744
v 0.00000078 -0.03195464 -0.00244758
v 0.00000036 -0.03137446 -0.00819925
v 0.00000027 -0.03121774 -0.00933844
v -0.00000013 -0.03024084 -0.01479712
v -0.00000055 -0.02884244 -0.02046653
f 1 2 3
f 1 3 4
f 4 3 5
f 4 5 6
f 7 6 5
f 7 5 23
f 5 30 23
f 23 30 31
f 23 31 16
f 16 31 32
f 16 32 17
f 15 16 17
f 17 33 15
f 15 33 34
f 15 34 35
f 35 34 36
f 35 36 37
f 37 36 18
f 37 18 38
f 38 18 39
f 18 44 39
f 18 43 44
f 20 43 18
f 20 42 43
f 41 42 20
f 12 41 20
f 12 40 41
f 14 40 12
f 12 13 14
f 12 11 13
f 10 11 12
f 10 9 11
f 8 9 10
f 18 19 20
f 20 19 21
f 20 21 22
f 29 20 22
f 28 20 29
f 28 27 20
f 26 27 28
f 26 25 27
f 24 25 26

