#
# File generated by Libuipc
# Vertices 188
# Edges 188
# Faces 0
#
v 0.0030788569408151355 -0.002287417441340698 -0.0004744975738333331
v 0.002342649084972835 -0.0029600665030874314 -0.0004725605724799556
v 0.001486852797978558 -0.003472013564822317 -0.00047438890316975465
v 0.0005259225204459569 -0.0037385950512310523 -0.0004693517839829676
v -0.0004710743559407858 -0.0037456176175029838 -0.000489650760281483
v -0.0014442028855328145 -0.0035327049512097505 -0.0004432494359051666
v -0.002385197724147159 -0.0032559179976256766 -0.00026325782154243025
v -0.0032307617793655057 -0.002731650955332322 -0.00019511634067282898
v -0.0038554307208829523 -0.001962647256491814 -0.0003086982268164231
v -0.0041866258503279125 -0.0010282898065103502 -0.00041709058449503105
v -0.004265853772994565 -3.61707389422919e-05 -0.00035463827562100947
v -0.003864402291270413 0.0008753742580675608 -0.00040348273320575336
v -0.0033159097835363358 0.0017074809770511272 -0.00043857944169658743
v -0.0026252923195147905 0.002426274748455127 -0.00040950050801541146
v -0.0018482545240927602 0.003051313924944961 -0.0004135897194161522
v -0.001024167656864249 0.003602516719604063 -0.0003061988518594008
v -7.391500853844584e-05 0.0038173257913531426 -9.323761600729173e-05
v 0.0009176165298912562 0.0037492285342323513 -1.1441157747060968e-05
v 0.0017582314178572114 0.003213304594573261 -3.645266898864383e-05
v 0.0023699144457726986 0.0024340480856482934 -0.00015074621807509108
v 0.002887512987759915 0.001593823899468343 -0.0002942372353620519
v 0.003225388515567986 0.0006593828204139235 -0.00037870209036208795
v 0.0032659183250196276 -0.00033701940024074043 -0.00037833912590806517
v 0.00302818464988851 -0.0013054597928633153 -0.0003864334115538349
v 0.0024970129192424806 -0.0021492806806733145 -0.0004036669827456138
v 0.001712695685771456 -0.0027650326088777956 -0.00039062960229048667
v 0.0007988006828181618 -0.003161965459007616 -0.00034922835167706674
v -0.00016508533129114245 -0.0033507183516993506 -0.0001767324055789723
v -0.001143584650149359 -0.0034062697724749347 7.460493093594632e-06
v -0.0021172339247710744 -0.003297846940327428 0.00019380833775103673
v -0.0029946855181800947 -0.0029673205953259997 0.0005333758345602072
v -0.0037095794287329 -0.002355808213498695 0.0008642114427452528
v -0.004160018774899802 -0.0014891448842338601 0.0010653967098327088
v -0.0043234075778244285 -0.0005092299150892354 0.0011521683118774254
v -0.004063478195327846 0.00045353170167537944 0.0011518970142595105
v -0.0036607845537740837 0.001365804477722718 0.0011435834166931536
v -0.0031720271668858402 0.002234952963179118 0.0011305464829697094
v -0.0025052918089318887 0.002976241568640437 0.0011102291641673413
v -0.0016627099010805572 0.003509203379540777 0.0010883345496390656
v -0.0007197433249416279 0.0038296609995525956 0.0010372703329649645
v 0.00027282302510645066 0.0038680510110048693 0.0009488955988408501
v 0.0012322509005417881 0.003686195206991777 0.0007467007368220122
v 0.0020903277997084105 0.003232199198584231 0.0005185286349033606
v 0.002751131694206569 0.0024884734341999097 0.0004499972936581287
v 0.0032861779420934223 0.0016474531670800702 0.0004203109338070623
v 0.003587651068287115 0.0006968935520331793 0.00042282287242605864
v 0.00363289763616908 -0.0002992715590345674 0.00041581973961252427
v 0.003403797301904804 -0.0012698370137336171 0.0004171715570297138
v 0.002942812267621011 -0.00215409262755797 0.00042465145560181627
v 0.0022837973339299776 -0.0029025352459468514 0.0004265854738324438
v 0.0014400386530827127 -0.00343380489665434 0.0004432900364374157
v 0.0004745434106508431 -0.0036833859068145353 0.00043968808299395354
v -0.0005219191835642899 -0.0037197267611202237 0.0004542256649157369
v -0.0015000211253556857 -0.0035808470291083436 0.0005902361031386825
v -0.0023443419101785664 -0.0031013674248153707 0.0008175921620125807
v -0.0030440918128361843 -0.0024164301759393683 0.0010064876909790335
v -0.003561171173059379 -0.0015641510222244878 0.0010335256582759392
v -0.0038263513786669094 -0.0006040154437901309 0.0009857711692137581
v -0.0038524729758661826 0.0003363889725391113 0.0006550029517667541
v -0.00363220087856341 0.0013056799691344215 0.0005749234141614488
v -0.0031198792202497667 0.0021593967836491964 0.0005187182052293148
v -0.0024793752335952788 0.0029226636179315777 0.0005594343893525086
v -0.0016565787267607225 0.0034853259061773255 0.0005890190519439977
v -0.0007041814175349576 0.003776461604775842 0.0005378222929558926
v 0.0002869346033355038 0.0037261236738382344 0.0004397421966801104
v 0.001171749144217973 0.0032680939764457686 0.00039760328916056865
v 0.001896187829063593 0.0025877604947127384 0.00031510378338692847
v 0.0025850120645653516 0.001867447465268761 0.0002815332027928812
v 0.0030069766731268535 0.0009640457627464794 0.0002645094509209049
v 0.0031504326796665378 -2.271725787369638e-05 0.0002513095468229658
v 0.002982596582146436 -0.0010057165950912177 0.00025356550260167835
v 0.002544564633952148 -0.0019015580290029483 0.0002476984076446229
v 0.001848103377325056 -0.0026144137575666937 0.00028311372242550064
v 0.0009608158444453383 -0.0030695754986858263 0.0002846034361438045
v -2.3916369460262473e-05 -0.003226750515104314 0.00029235040703840724
v -0.0010081275629989968 -0.00312251849963749 0.00041449226871460425
v -0.001966088217293367 -0.00284641851679955 0.0003912045579657941
v -0.0028768585294193833 -0.0024455861374222125 0.00045671815776009465
v -0.003637528747883323 -0.0018097297169662994 0.00056414691277446
v -0.004204822484541998 -0.000995537607873842 0.00046551917265114995
v -0.00431407472071511 -9.100977021736909e-06 0.0003682123657796584
v -0.004005891373017209 0.0009155619935901061 0.0001572845336798114
v -0.003508045822813712 0.0017697175718756873 2.687027931471322e-05
v -0.002943753407834087 0.0025900965649452556 -2.8027835977371316e-05
v -0.0021311664101509695 0.0031605086569201474 6.562694310207025e-05
v -0.0011532606809600493 0.003328114171995662 0.00016605220959625615
v -0.00015870294360592903 0.0033131411325334034 0.0002373169987470661
v 0.0007927536239420893 0.0032380467371035614 -5.173720666142716e-05
v 0.0016159408615617377 0.0027980021158183375 -0.00040271726596248514
v 0.0022120958923618353 0.0020112162741960514 -0.0005441947967637414
v 0.002617979081073984 0.0011042529688139908 -0.0006286485289990205
v 0.002830714397401607 0.00013030791724994567 -0.0006534631356241311
v 0.0027069668331062557 -0.0008592040731237382 -0.000654259797976948
v 0.00224525057250866 -0.001743099657144786 -0.0006527749412035467
v 0.001493828372726202 -0.0023987051337119943 -0.0006535277268143291
v 0.0005749680673381104 -0.002783063669441255 -0.000604356835140658
v -0.00038982468077295595 -0.0030127694538292812 -0.0005002520688240112
v -0.001381650266997934 -0.003031111891484199 -0.00039834728445621315
v -0.0023214541724147705 -0.002702150161023224 -0.00034344532189702217
v -0.0032076986364543885 -0.0023763712263126357 -0.0006642146619739893
v -0.003712707277008213 -0.001589540336775601 -0.0010110929634523477
v -0.0041054836997922155 -0.0006742414729750383 -0.001060017397935112
v -0.0037101804166256775 7.375755324826591e-06 -0.00044879055534431526
v -0.0032850558631204825 0.0008903308354547611 -0.00026414168016130284
v -0.0028068874344133812 0.00174279825348524 -6.638320032624167e-05
v -0.0022818649150662318 0.0025235010886612017 0.00026426126785509803
v -0.0013712803873054545 0.0028891194308045074 0.0004419643261055957
v -0.00039445400178784204 0.002999653474793139 0.000609446266795539
v 0.0005773774979116355 0.002776034133585789 0.0006105897187287812
v 0.0015032646917194279 0.0024062000946616074 0.0006305008508809898
v 0.002242393298474702 0.0017371298865282978 0.0006528747077136297
v 0.0027088155467662276 0.0008557233211468077 0.0006531048240480306
v 0.0028329725106105404 -0.00013375793195518658 0.000653494136424063
v 0.0026052745301504026 -0.0011046238642108742 0.000653223812534959
v 0.002070893820287789 -0.0019465848280757437 0.0006531366281240674
v 0.0012665871734836365 -0.002536123900191097 0.0006527075191228246
v 0.00031310585123313047 -0.0028282373383353254 0.0006532283992420538
v -0.0006800081043134376 -0.00273786298247384 0.0006526757639756578
v -0.0016073929145158277 -0.0024319102833512698 0.0004505944106914967
v -0.0025069874742866378 -0.002123187747242448 0.00015087119688350411
v -0.003456263248427202 -0.001843281926873769 2.8287893553756634e-05
v -0.003952254120823336 -0.0009781703868574259 2.6362745901540402e-05
v -0.003894289598673799 1.6763143690187364e-06 1.4972528728885818e-05
v -0.0033802721097664903 0.0008289659254299802 0.00022903763812047383
v -0.0028061615499844306 0.0016114993669717375 0.00041919075837544567
v -0.002036435023464397 0.0022011633006821505 0.0006521724936217367
v -0.0011517826533494577 0.0025937379143622613 0.0008924800093220602
v -0.0002024199636849711 0.002819334521109673 0.0010980590183657744
v 0.0007909241345469077 0.0027341738041749644 0.0011199169746801028
v 0.0016797909237517563 0.0022831432586773253 0.0011499984868164612
v 0.0023264782863608607 0.0016286155659769402 0.0011515686005771633
v 0.002743035313684853 0.0007225583509404348 0.001151531181961567
v 0.0028198065318747034 -0.0002717083503931671 0.0011517039155824918
v 0.0025607279156784728 -0.0012346953870889985 0.0011516975193854484
v 0.001974822588132791 -0.0020416470345343035 0.0011516269281078198
v 0.0011456272731348628 -0.002595616995493764 0.0011513563094500507
v 0.00017528064266447195 -0.0028256004017096475 0.0011515504270676845
v -0.0008171234045963237 -0.0027275513823918052 0.0011508802546894683
v -0.0016827070679252961 -0.0022733595833836105 0.0009620425592520758
v -0.002355900851280243 -0.0017248928468929278 0.00047168037105892527
v -0.0032378579366010947 -0.0015296230867556007 0.00038631173854099764
v -0.003741472772670796 -0.0006753788507841275 0.0004917184795145915
v -0.003223386774743867 0.00010392515727210318 0.0001471735303164016
v -0.002719987895776712 0.0008621874055181136 -0.0002604206122107298
v -0.0022577708307195254 0.0017350811557536971 -0.0003976998877584698
v -0.0016796898746610654 0.002547563909025084 -0.00038424649093110076
v -0.0008709735616093372 0.0031094192728248976 -0.00026974113431595326
v 8.13726513739104e-05 0.003392170551388425 -0.0003566078285183821
v 0.0008822196874813559 0.002873451997687407 -0.0005858961359221536
v 0.0016461156175327204 0.0023073695151159816 -0.0008866553601273551
v 0.0023354251174103344 0.001617067594052393 -0.0010935980671455655
v 0.002742968107167867 0.0007086638868518313 -0.0011498716730063726
v 0.0028197529582505844 -0.00028560438072425254 -0.0011516970001291596
v 0.002552799671068645 -0.0012464416017469707 -0.0011518203536062803
v 0.0019647643198497148 -0.0020518337344415305 -0.0011514864844933495
v 0.001130548129513962 -0.002598235142596244 -0.0011509203767632687
v 0.00019849623224665603 -0.0028196441298402827 -0.0010716736388383058
v -0.0007763491006447751 -0.002729174811138287 -0.0008820240689030205
v -0.001686736485489294 -0.0023808355271887887 -0.0006747964774225446
v -0.002585536747514923 -0.0020828254483598986 -0.0003620357569065968
v -0.003465391113372557 -0.0016234046661777132 -0.0004582425726902591
v -0.0037030720485276784 -0.0006554372813457793 -0.0004266848099293458
v -0.0027521314236656808 -0.000560175158922509 -0.00014189188141720582
v -0.0024080203464230034 -0.0014961246742390708 -0.0001506187340906878
v -0.001737164465711754 -0.002229986376166819 -0.0001097544300064547
v -0.0008662437788132131 -0.0027009392914986575 -6.760217078501986e-05
v 0.00012252442607484478 -0.002828531327324602 -4.448242201354451e-05
v 0.0010940175237807521 -0.002604347367176368 -6.634170357805441e-05
v 0.0019344494007674136 -0.0020698143646570464 -0.00011579810924235876
v 0.0025309745985088302 -0.001271575205465468 -0.0001545395780136617
v 0.0028122199314911493 -0.00031482351478872065 -0.0001564460554867797
v 0.0027460873515768877 0.000680034958031323 -0.00013672280468080496
v 0.002339065370294944 0.0015889222914303338 -8.412801890371437e-05
v 0.0016584930151919623 0.0023129807451560433 -3.1294822190129255e-05
v 0.0006822769625450049 0.00273955901497189 -2.2992662407168084e-05
v -0.0001848077719050895 0.0028060083580358263 -0.00041713291878391843
v -0.0011067150356218905 0.002608883638675898 -0.0007422843484251449
v -0.0018874824912166524 0.0021011939314286372 -0.0008896254046307153
v -0.0025135862686317904 0.001325019866714816 -0.0008944062698931584
v -0.0027983115892161446 0.00039642786040858214 -0.0008230588466595416
v -0.0027806888740578664 -0.0005974544836984002 -0.0007434291249163009
v -0.00303915678525008 -0.0012916109931099898 -0.00037266005901963464
v -0.0031334913252997884 -0.0007125662885441029 0.00043371235135741923
v -0.0028333171099670013 8.562741024780567e-05 0.0005545043542541594
v -0.002648615844016537 0.0010071127729839669 0.00022100521010762
v -0.0021415008401552316 0.0018404388800076395 0.00010050016641484343
v -0.0013762947299731383 0.002479726577639634 8.499646556577523e-05
v -0.000443825545300081 0.0028299151591879824 0.00011560880928627604
l 2 1
l 3 2
l 4 3
l 5 4
l 6 5
l 7 6
l 8 7
l 9 8
l 10 9
l 11 10
l 12 11
l 13 12
l 14 13
l 15 14
l 16 15
l 17 16
l 18 17
l 19 18
l 20 19
l 21 20
l 22 21
l 23 22
l 24 23
l 25 24
l 26 25
l 27 26
l 28 27
l 29 28
l 30 29
l 31 30
l 32 31
l 33 32
l 34 33
l 35 34
l 36 35
l 37 36
l 38 37
l 39 38
l 40 39
l 41 40
l 42 41
l 43 42
l 44 43
l 45 44
l 46 45
l 47 46
l 48 47
l 49 48
l 50 49
l 51 50
l 52 51
l 53 52
l 54 53
l 55 54
l 56 55
l 57 56
l 58 57
l 59 58
l 60 59
l 61 60
l 62 61
l 63 62
l 64 63
l 65 64
l 66 65
l 67 66
l 68 67
l 69 68
l 70 69
l 71 70
l 72 71
l 73 72
l 74 73
l 75 74
l 76 75
l 77 76
l 78 77
l 79 78
l 80 79
l 81 80
l 82 81
l 83 82
l 84 83
l 85 84
l 86 85
l 87 86
l 88 87
l 89 88
l 90 89
l 91 90
l 92 91
l 93 92
l 94 93
l 95 94
l 96 95
l 97 96
l 98 97
l 99 98
l 100 99
l 101 100
l 102 101
l 103 102
l 104 103
l 105 104
l 106 105
l 107 106
l 108 107
l 109 108
l 110 109
l 111 110
l 112 111
l 113 112
l 114 113
l 115 114
l 116 115
l 117 116
l 118 117
l 119 118
l 120 119
l 121 120
l 122 121
l 123 122
l 124 123
l 125 124
l 126 125
l 127 126
l 128 127
l 129 128
l 130 129
l 131 130
l 132 131
l 133 132
l 134 133
l 135 134
l 136 135
l 137 136
l 138 137
l 139 138
l 140 139
l 141 140
l 142 141
l 143 142
l 144 143
l 145 144
l 146 145
l 147 146
l 148 147
l 149 148
l 150 149
l 151 150
l 152 151
l 153 152
l 154 153
l 155 154
l 156 155
l 157 156
l 158 157
l 159 158
l 160 159
l 161 160
l 162 161
l 163 162
l 164 163
l 165 164
l 166 165
l 167 166
l 168 167
l 169 168
l 170 169
l 171 170
l 172 171
l 173 172
l 174 173
l 175 174
l 176 175
l 177 176
l 178 177
l 179 178
l 180 179
l 181 180
l 182 181
l 183 182
l 184 183
l 185 184
l 186 185
l 187 186
l 188 187
l 175 188
