#
# File generated by Libuipc
# Vertices 76
# Edges 76
# Faces 0
#
v 0.025576902337949518 0.033247807976829295 0.0012985732233192374
v 0.024644636998995842 0.03149035012094374 0.001302533168692124
v 0.023723659486065075 0.02972690614615083 0.0013066858637981852
v 0.022817733581547272 0.027955837009577284 0.0013107228908376984
v 0.021908768606441927 0.026186305225635288 0.0013151509368184067
v 0.0210088170708237 0.024412185349363853 0.001319522301752988
v 0.02011337866731971 0.0226357522956015 0.0013239078880756426
v 0.019237417191807885 0.0208496545791967 0.0013284754474562606
v 0.018393512300131584 0.019048014047007976 0.0013300324554520254
v 0.017449123454687618 0.017297124487643898 0.0013346139124802857
v 0.016609743384606832 0.015493414982472035 0.0013372636930265578
v 0.015778991217357964 0.013685854508463572 0.0013357185052781768
v 0.014969917274065029 0.01186848062198905 0.0013308161112367345
v 0.014103645557939339 0.010077695080259434 0.0013221238665708662
v 0.012988447374953783 0.008437832289989835 0.0011623763634941815
v 0.012147394115207833 0.00663504578179424 0.0011617297764684458
v 0.011292859566989336 0.004838635435930956 0.00117308621332195
v 0.010434033008784 0.0030442683932085167 0.0011844297536126914
v 0.00956398682941854 0.0012553248685532065 0.0011958702629263735
v 0.008699326483670326 -0.0005362207948283993 0.0012094514957380002
v 0.007841900185857145 -0.0023312520880402103 0.0012215068571469593
v 0.00696597350098336 -0.004116914411346365 0.0011816675943902453
v 0.005696875718538569 -0.005647374525336176 0.001114361378731859
v 0.004079835072027148 -0.006805281403173649 0.001069492197968134
v 0.002278078900747602 -0.007648310861427681 0.0010902106071657336
v 0.0003456528046439313 -0.008109355842771088 0.0011936062464927965
v -0.0016407367785663918 -0.008007056931240522 0.0012288822903304582
v -0.0032911392414971237 -0.006948267178068733 0.0008934747705653973
v -0.00471786316831136 -0.005586919867433645 0.0006315380294662589
v -0.0059824357670427136 -0.004052458263651438 0.0005706876188278431
v -0.006871430484259797 -0.0022728089322131186 0.0005749598641157396
v -0.007231213538170946 -0.0003163051232400358 0.0005834178024885056
v -0.007039591351937592 0.0016637562615084622 0.0005725340089261451
v -0.006360009569549369 0.003533097593976038 0.0006068850669036568
v -0.005161214545800423 0.005120614067800316 0.0006005125057593097
v -0.0035613609132249574 0.00630280606156419 0.0005830330894954267
v -0.0017215592108559496 0.007059427115780672 0.0005944830999042426
v 0.0002576169334148139 0.0072600748128067456 0.0006002334092570223
v 0.002211668289198436 0.006887983066497399 0.0005742398911772955
v 0.003996861404908799 0.006010224568647855 0.0005646016130237746
v 0.005504620646855596 0.00471266565986996 0.0005839368343910688
v 0.006589076436714324 0.0030449380660101362 0.0005951088690432015
v 0.007164268170139768 0.0011405868266250313 0.0005895299366481992
v 0.007211181817970031 -0.0007567200119769504 0.0005943976342306759
v 0.006769242034346705 -0.002696279712686309 0.000609851741529418
v 0.005816595748849728 -0.0044324047623926855 0.000420542635360496
v 0.00453567049086046 -0.0059372504662543405 0.00019233644460434182
v 0.003034284728082647 -0.007227130214158791 6.01491352483558e-05
v 0.0014963701014616498 -0.008485243857049903 0.00015776004953761236
v -0.00044930049183897176 -0.00889944875118026 0.00014437703681525945
v -0.0011512222239832357 -0.0071892216215782775 -0.0005904063264556356
v 0.0005390189130448401 -0.0065051368454326144 -0.00013070149574485177
v 0.0024403736957043353 -0.005940154258268272 2.1083956111330243e-05
v 0.0041409670087834 -0.00490803197390264 6.624218760682638e-06
v 0.005408351717508863 -0.003374730828149874 -5.709347546474241e-06
v 0.006189984488260501 -0.0016551432542966204 9.528093572709482e-08
v 0.00637997883066395 0.00032509830334675365 -3.747814335414365e-07
v 0.005983081907910997 0.002274422937669528 7.379548197687686e-08
v 0.005001277929665819 0.004004603497268862 -6.415132603638447e-07
v 0.0035168249450160467 0.005328938769330101 2.3912672124479587e-07
v 0.0017931270429436474 0.006139334243718088 -9.961517197193188e-07
v -0.00017737199432398817 0.006412469802666892 4.902175349397478e-07
v -0.0021280152572848146 0.006022003490603917 -9.535618558213568e-07
v -0.0038742092409111196 0.005069009462170326 2.119545095072889e-06
v -0.005197539289981978 0.003758319893235326 -3.691270649638053e-06
v -0.006062904725201187 0.001967082197649468 4.873453059397633e-06
v -0.00638901802205025 4.6953738392044505e-06 -6.188386838157689e-06
v -0.006091678225582863 -0.001962227869064133 1.0305390499476309e-05
v -0.0051983979683763 -0.0037395693734165016 -1.4231890561592759e-05
v -0.0043637292058278316 -0.005013882252007078 -0.00018146552538925737
v -0.0035204916863922514 -0.0070656884774799415 -0.0010320504432757287
v -0.0019545298127461946 -0.008106594193066276 -0.0013583390024493208
v -0.00011594549250615008 -0.008133314403306242 -0.0012055854675084247
v 0.00045811060635769026 -0.007619517788550274 0.00028981270148423926
v -0.0013883226438209716 -0.007152573407121503 0.000665637362136001
v -0.0023007388236255108 -0.006285401286295361 0.00022475205223867047
l 2 1
l 3 2
l 4 3
l 5 4
l 6 5
l 7 6
l 8 7
l 9 8
l 10 9
l 11 10
l 12 11
l 13 12
l 14 13
l 15 14
l 16 15
l 17 16
l 18 17
l 19 18
l 20 19
l 21 20
l 22 21
l 23 22
l 24 23
l 25 24
l 26 25
l 27 26
l 28 27
l 29 28
l 30 29
l 31 30
l 32 31
l 33 32
l 34 33
l 35 34
l 36 35
l 37 36
l 38 37
l 39 38
l 40 39
l 41 40
l 42 41
l 43 42
l 44 43
l 45 44
l 46 45
l 47 46
l 48 47
l 49 48
l 50 49
l 51 50
l 52 51
l 53 52
l 54 53
l 55 54
l 56 55
l 57 56
l 58 57
l 59 58
l 60 59
l 61 60
l 62 61
l 63 62
l 64 63
l 65 64
l 66 65
l 67 66
l 68 67
l 69 68
l 70 69
l 71 70
l 72 71
l 73 72
l 74 73
l 75 74
l 76 75
l 70 76
