# File exported by Houdini 20.5.445 (www.sidefx.com)
# 80 points
# 240 vertices
# 42 primitives
# Bounds: [-0.00190000003, -0.00190000003, -0.00949999969] to [0.00190000003, 0.00190000003, 0.00949999969]
g 
v 0.00190000003 0 0.00949999969
v 0.001876608 0.000297225517 0.00949999969
v 0.00180700747 0.000587132352 0.00949999969
v 0.00169291242 0.000862582005 0.00949999969
v 0.00153713231 0.00111679197 0.00949999969
v 0.0013435029 0.0013435029 0.00949999969
v 0.00111679197 0.00153713231 0.00949999969
v 0.000862582005 0.00169291242 0.00949999969
v 0.000587132294 0.00180700747 0.00949999969
v 0.000297225313 0.001876608 0.00949999969
v -8.3051635e-11 0.00190000003 0.00949999969
v -0.000297225459 0.001876608 0.00949999969
v -0.00058713241 0.00180700736 0.00949999969
v -0.000862582179 0.00169291231 0.00949999969
v -0.00111679186 0.00153713231 0.00949999969
v -0.0013435029 0.0013435029 0.00949999969
v -0.00153713243 0.00111679186 0.00949999969
v -0.00169291254 0.000862581714 0.00949999969
v -0.00180700759 0.000587131944 0.00949999969
v -0.001876608 0.000297225459 0.00949999969
v -0.00190000003 -1.6610327e-10 0.00949999969
v -0.00187660777 -0.000297225779 0.00949999969
v -0.00180700747 -0.000587132294 0.00949999969
v -0.00169291242 -0.000862582063 0.00949999969
v -0.00153713231 -0.00111679221 0.00949999969
v -0.00134350266 -0.00134350313 0.00949999969
v -0.00111679162 -0.00153713254 0.00949999969
v -0.000862581481 -0.00169291266 0.00949999969
v -0.000587132527 -0.00180700736 0.00949999969
v -0.000297225604 -0.00187660777 0.00949999969
v 2.26572736e-11 -0.00190000003 0.00949999969
v 0.000297225633 -0.00187660777 0.00949999969
v 0.000587132527 -0.00180700736 0.00949999969
v 0.000862582296 -0.00169291219 0.00949999969
v 0.00111679244 -0.00153713208 0.00949999969
v 0.00134350336 -0.00134350243 0.00949999969
v 0.00153713278 -0.00111679139 0.00949999969
v 0.00169291242 -0.000862582005 0.00949999969
v 0.00180700747 -0.000587132236 0.00949999969
v 0.001876608 -0.000297225284 0.00949999969
v 0.00190000003 0 -0.00949999969
v 0.001876608 0.000297225517 -0.00949999969
v 0.00180700747 0.000587132352 -0.00949999969
v 0.00169291242 0.000862582005 -0.00949999969
v 0.00153713231 0.00111679197 -0.00949999969
v 0.0013435029 0.0013435029 -0.00949999969
v 0.00111679197 0.00153713231 -0.00949999969
v 0.000862582005 0.00169291242 -0.00949999969
v 0.000587132294 0.00180700747 -0.00949999969
v 0.000297225313 0.001876608 -0.00949999969
v -8.3051635e-11 0.00190000003 -0.00949999969
v -0.000297225459 0.001876608 -0.00949999969
v -0.00058713241 0.00180700736 -0.00949999969
v -0.000862582179 0.00169291231 -0.00949999969
v -0.00111679186 0.00153713231 -0.00949999969
v -0.0013435029 0.0013435029 -0.00949999969
v -0.00153713243 0.00111679186 -0.00949999969
v -0.00169291254 0.000862581714 -0.00949999969
v -0.00180700759 0.000587131944 -0.00949999969
v -0.001876608 0.000297225459 -0.00949999969
v -0.00190000003 -1.6610327e-10 -0.00949999969
v -0.00187660777 -0.000297225779 -0.00949999969
v -0.00180700747 -0.000587132294 -0.00949999969
v -0.00169291242 -0.000862582063 -0.00949999969
v -0.00153713231 -0.00111679221 -0.00949999969
v -0.00134350266 -0.00134350313 -0.00949999969
v -0.00111679162 -0.00153713254 -0.00949999969
v -0.000862581481 -0.00169291266 -0.00949999969
v -0.000587132527 -0.00180700736 -0.00949999969
v -0.000297225604 -0.00187660777 -0.00949999969
v 2.26572736e-11 -0.00190000003 -0.00949999969
v 0.000297225633 -0.00187660777 -0.00949999969
v 0.000587132527 -0.00180700736 -0.00949999969
v 0.000862582296 -0.00169291219 -0.00949999969
v 0.00111679244 -0.00153713208 -0.00949999969
v 0.00134350336 -0.00134350243 -0.00949999969
v 0.00153713278 -0.00111679139 -0.00949999969
v 0.00169291242 -0.000862582005 -0.00949999969
v 0.00180700747 -0.000587132236 -0.00949999969
v 0.001876608 -0.000297225284 -0.00949999969
g 
f 40 1 2 3 4 5 6 7 8 9 10 11 12 13 14 15 16 17 18 19 20 21 22 23 24 25 26 27 28 29 30 31 32 33 34 35 36 37 38 39
f 41 80 79 78 77 76 75 74 73 72 71 70 69 68 67 66 65 64 63 62 61 60 59 58 57 56 55 54 53 52 51 50 49 48 47 46 45 44 43 42
f 1 41 42 2
f 2 42 43 3
f 3 43 44 4
f 4 44 45 5
f 5 45 46 6
f 6 46 47 7
f 7 47 48 8
f 8 48 49 9
f 9 49 50 10
f 10 50 51 11
f 11 51 52 12
f 12 52 53 13
f 13 53 54 14
f 14 54 55 15
f 15 55 56 16
f 16 56 57 17
f 17 57 58 18
f 18 58 59 19
f 19 59 60 20
f 20 60 61 21
f 21 61 62 22
f 22 62 63 23
f 23 63 64 24
f 24 64 65 25
f 25 65 66 26
f 26 66 67 27
f 27 67 68 28
f 28 68 69 29
f 29 69 70 30
f 30 70 71 31
f 31 71 72 32
f 32 72 73 33
f 33 73 74 34
f 34 74 75 35
f 35 75 76 36
f 36 76 77 37
f 37 77 78 38
f 38 78 79 39
f 39 79 80 40
f 40 80 41 1
