# https://github.com/mikedh/trimesh
v 0.02441838 0.04015521 -0.08038660
v 0.02239130 0.04007040 -0.08038680
v 0.02097199 0.03995392 -0.08038697
v 0.01925479 0.03974458 -0.08038732
v 0.01795085 0.03953489 -0.08038761
v 0.01778886 0.03950574 -0.08038800
v 0.01575473 0.03908059 -0.08041862
v 0.01398111 0.03861849 -0.08068226
v 0.01263922 0.03821036 -0.08106858
v 0.01237053 0.03812242 -0.08116679
v 0.01110490 0.03767961 -0.08173221
v -0.01504134 0.00016999 -0.12388871
v -0.01478258 -0.00440628 -0.12388874
v -0.01433551 -0.00733325 -0.12388878
v -0.01367429 -0.01021485 -0.12388889
v -0.01280999 -0.01301700 -0.12388901
v -0.01174307 -0.01574750 -0.12388916
v -0.01049136 -0.01836897 -0.12388936
v -0.00744697 -0.02328832 -0.12388981
v -0.00567162 -0.02556346 -0.12389008
v -0.00905076 -0.02089580 -0.12388957
v 0.00502552 -0.03451570 -0.12389176
v 0.00264867 -0.03303687 -0.12389138
v 0.00035697 -0.03137664 -0.12389102
v -0.00182538 -0.02954611 -0.12389068
v -0.00381875 -0.02762011 -0.12389038
v 0.01264601 -0.03789315 -0.12389296
v 0.01527503 -0.03864520 -0.12389337
v 0.00750869 -0.03582891 -0.12389215
v 0.01004152 -0.03694999 -0.12389255
v 0.01795332 -0.03921661 -0.12389380
v 0.02063025 -0.03959971 -0.12389422
v 0.02435413 -0.03983566 -0.12389482
v 0.02332571 -0.03980101 -0.12389466
v -0.01478258 0.00474625 -0.12388878
v -0.01433590 0.00767117 -0.12388887
v -0.01367429 0.01055482 -0.12388898
v -0.01281082 0.01335458 -0.12388914
v -0.01174307 0.01608748 -0.12388932
v -0.01048717 0.01871695 -0.12388954
v 0.00502951 0.03485796 -0.12389211
v 0.00264867 0.03337684 -0.12389172
v -0.00905076 0.02123578 -0.12388979
v -0.00745003 0.02362408 -0.12389005
v 0.00035144 0.03171229 -0.12389134
v -0.00182539 0.02988608 -0.12389098
v 0.01264601 0.03823313 -0.12389334
v 0.01003928 0.03728906 -0.12389293
v 0.00750870 0.03616887 -0.12389252
v -0.00381595 0.02796299 -0.12389065
v -0.00567162 0.02590342 -0.12389034
v 0.01527487 0.03898514 -0.12389377
v 0.01795332 0.03955659 -0.12389420
v 0.02063023 0.03993968 -0.12389463
v 0.02332571 0.04014098 -0.12389506
v 0.02435412 0.04017563 -0.12389524
v -0.01504427 0.00017014 -0.09528837
v -0.01496022 -0.00244342 -0.09524236
v -0.01478254 -0.00440622 -0.09514956
v -0.01451042 -0.00635527 -0.09500788
v 0.01182687 -0.03759762 -0.08138781
v -0.01367596 -0.01019992 -0.09457422
v -0.01280952 -0.01300805 -0.09412445
v -0.01174479 -0.01573207 -0.09357204
v -0.01048731 -0.01836431 -0.09291986
v -0.00905256 -0.02087967 -0.09217594
v -0.00743963 -0.02328447 -0.09133978
v -0.00567352 -0.02554643 -0.09042440
v -0.00381523 -0.02760827 -0.08946133
v -0.00182740 -0.02952807 -0.08843128
v 0.00035912 -0.03136132 -0.08729837
v 0.00264653 -0.03301764 -0.08611328
v 0.00502826 -0.03449870 -0.08487943
v 0.00750641 -0.03580840 -0.08359574
v 0.01110490 -0.03733921 -0.08173182
v 0.01532512 -0.03863618 -0.08045783
v 0.01703474 -0.03902055 -0.08038736
v 0.01263456 -0.03786844 -0.08106983
v 0.01341966 -0.03811356 -0.08082297
v 0.01508532 -0.03857595 -0.08048648
v 0.02127134 -0.03964230 -0.08038653
v 0.02441838 -0.03981479 -0.08038619
v 0.02441778 -0.03981576 -0.08079852
v 0.01795085 -0.03919447 -0.08038721
v 0.01911157 -0.03938328 -0.08038697
v -0.01499721 0.00214237 -0.09526183
v -0.01485100 0.00410847 -0.09518530
v -0.01478415 0.00473245 -0.09515045
v -0.01451042 0.00669554 -0.09500794
v 0.02441778 0.04015618 -0.08079893
v -0.01367596 0.01054020 -0.09457434
v -0.01280917 0.01334934 -0.09412440
v -0.01174479 0.01607236 -0.09357219
v -0.01048978 0.01869988 -0.09292132
v -0.00905256 0.02121996 -0.09217615
v -0.00743656 0.02362899 -0.09133843
v -0.00567353 0.02588675 -0.09042466
v -0.00381735 0.02794639 -0.08946272
v -0.00182740 0.02986841 -0.08843158
v 0.00036406 0.03170551 -0.08729613
v 0.00264652 0.03335800 -0.08611362
v 0.00503512 0.03484301 -0.08487623
v 0.00750641 0.03614878 -0.08359610
f 13 12 57
f 57 58 13
f 13 58 59
f 13 59 14
f 14 59 60
f 14 60 15
f 15 60 62
f 15 62 16
f 16 62 63
f 16 63 17
f 17 63 64
f 17 64 18
f 18 64 65
f 18 65 21
f 21 65 66
f 21 66 19
f 19 66 67
f 19 67 20
f 20 67 68
f 20 68 26
f 26 68 69
f 26 69 25
f 25 69 70
f 25 70 24
f 24 70 71
f 24 71 23
f 23 71 72
f 23 72 22
f 22 72 73
f 22 73 29
f 29 73 74
f 29 74 30
f 30 74 75
f 30 75 61
f 61 27 30
f 61 78 27
f 27 78 79
f 27 79 28
f 28 79 80
f 28 80 76
f 76 77 28
f 28 77 31
f 77 84 31
f 31 84 85
f 31 85 32
f 32 85 81
f 32 81 34
f 34 81 83
f 81 82 83
f 34 83 33
f 57 12 86
f 86 12 35
f 35 87 86
f 35 88 87
f 89 88 35
f 35 36 89
f 89 36 37
f 89 37 91
f 91 37 92
f 37 38 92
f 92 38 39
f 92 39 93
f 93 39 40
f 93 40 94
f 94 40 43
f 94 43 95
f 95 43 44
f 95 44 96
f 96 44 51
f 96 51 97
f 97 51 50
f 97 50 98
f 98 50 46
f 98 46 99
f 99 46 45
f 99 45 100
f 100 45 42
f 100 42 101
f 101 42 41
f 101 41 102
f 102 41 49
f 102 49 103
f 103 49 11
f 11 49 48
f 11 48 10
f 10 48 47
f 10 47 9
f 9 47 8
f 8 47 52
f 8 52 7
f 7 52 6
f 6 52 53
f 6 53 5
f 53 4 5
f 53 3 4
f 54 3 53
f 54 2 3
f 55 2 54
f 55 90 2
f 56 90 55
f 90 1 2

