# https://github.com/mikedh/trimesh
v 0.02441838 0.04015521 -0.08038660
v 0.02441840 0.04532277 -0.08038402
v 0.02435509 0.04542688 -0.12339018
v 0.02435434 0.04492664 -0.12389389
v 0.02435412 0.04017563 -0.12389524
v 0.02441778 0.04015618 -0.08079893
v 0.02440447 0.04683713 -0.08984548
v 0.02438292 0.04569134 -0.10448679
v 0.02441778 0.04743084 -0.08079897
v 0.02441840 0.04745578 -0.08038294
v 0.02436184 0.04530621 -0.11881409
v 0.02436857 0.04527546 -0.11423907
v 0.02437575 0.04540494 -0.10936007
f 1 6 2
f 2 6 9
f 7 9 6
f 6 8 7
f 6 13 8
f 5 13 6
f 5 12 13
f 11 12 5
f 5 3 11
f 4 3 5
f 2 9 10

