# https://github.com/mikedh/trimesh
v -0.00513030 0.05945248 -0.08860462
v -0.00260472 0.05945248 -0.08792789
v -0.00000000 0.05945248 -0.10270001
v -0.00000000 0.05945248 -0.08770001
v 0.00260472 0.05945248 -0.08792789
v -0.01149067 0.05945248 -0.09305819
v -0.00964181 0.05945248 -0.09120934
v -0.00750000 0.05945248 -0.08970962
v -0.01477212 0.05945248 -0.10009529
v -0.01409539 0.05945248 -0.09756970
v -0.01299038 0.05945248 -0.09520001
v -0.01409539 0.05945248 -0.10783031
v -0.01477212 0.05945248 -0.10530473
v -0.01500000 0.05945248 -0.10270001
v -0.00964181 0.05945248 -0.11419068
v -0.01149067 0.05945248 -0.11234182
v -0.01299038 0.05945248 -0.11020001
v -0.00260472 0.05945248 -0.11747213
v -0.00513030 0.05945248 -0.11679540
v -0.00750000 0.05945248 -0.11569039
v 0.00513030 0.05945248 -0.11679540
v 0.00260472 0.05945248 -0.11747213
v -0.00000000 0.05945248 -0.11770001
v 0.01149067 0.05945248 -0.11234182
v 0.00964181 0.05945248 -0.11419068
v 0.00750000 0.05945248 -0.11569039
v 0.01477212 0.05945248 -0.10530473
v 0.01409539 0.05945248 -0.10783031
v 0.01299038 0.05945248 -0.11020001
v 0.01409539 0.05945248 -0.09756970
v 0.01477212 0.05945248 -0.10009529
v 0.01500000 0.05945248 -0.10270001
v 0.00964181 0.05945248 -0.09120934
v 0.01149067 0.05945248 -0.09305819
v 0.01299038 0.05945248 -0.09520001
v 0.00513030 0.05945248 -0.08860462
v 0.00750000 0.05945248 -0.08970962
f 1 2 3
f 3 2 4
f 3 4 5
f 5 36 3
f 3 36 37
f 3 37 33
f 33 34 3
f 3 34 35
f 3 35 30
f 30 31 3
f 3 31 32
f 3 32 27
f 27 28 3
f 3 28 29
f 3 29 24
f 24 25 3
f 3 25 26
f 3 26 21
f 21 22 3
f 3 22 23
f 3 23 18
f 18 19 3
f 3 19 20
f 3 20 15
f 15 16 3
f 3 16 17
f 3 17 12
f 12 13 3
f 3 13 14
f 3 14 9
f 9 10 3
f 3 10 11
f 3 11 6
f 6 7 3
f 3 7 8
f 3 8 1

