# https://github.com/mikedh/trimesh
v -0.00799997 0.05044891 -0.03520000
v -0.00699997 0.05059734 -0.03520000
v -0.00350826 0.05095862 -0.03520000
v 0.00000001 0.05107924 -0.03520000
v 0.00350829 0.05095862 -0.03520000
v 0.00800000 0.05044891 -0.03520000
v 0.00700000 0.05059734 -0.03520000
v 0.00800000 0.05044891 -0.02776506
v 0.00000001 0.05107924 -0.02776506
v 0.00350829 0.05095862 -0.02776506
v 0.00700000 0.05059734 -0.02776506
v -0.00799997 0.05044891 -0.02776506
v -0.00350826 0.05095862 -0.02776506
v -0.00699997 0.05059734 -0.02776506
f 4 9 10
f 4 10 5
f 5 10 11
f 5 11 7
f 11 8 7
f 7 8 6
f 9 4 3
f 9 3 13
f 13 3 2
f 13 2 14
f 2 1 14
f 14 1 12

