# https://github.com/mikedh/trimesh
v 0.04775000 -0.00489509 -0.03520000
v 0.04775000 -0.00000257 -0.03520000
v -0.04775000 -0.00000257 -0.03520000
v -0.04775000 -0.00489484 -0.03520000
v 0.04775000 0.00488994 -0.03520000
v -0.04775000 0.00488969 -0.03520000
v 0.04716216 0.00892653 -0.03520000
v -0.03666055 0.03098124 -0.03520000
v -0.02230155 0.04250193 -0.03520000
v -0.01666455 0.04501170 -0.03520000
v -0.04562696 0.01490297 -0.03520000
v -0.04716214 0.00892653 -0.03520000
v -0.04333778 0.02063310 -0.03520000
v -0.04033243 0.02602221 -0.03520000
v -0.00799997 0.05044891 -0.03520000
v -0.02757000 0.03928975 -0.03520000
v -0.01075216 0.04677758 -0.03520000
v -0.00799997 0.04732598 -0.03520000
v 0.00800000 0.04732598 -0.03520000
v 0.01075219 0.04677758 -0.03520000
v 0.00800000 0.05044891 -0.03520000
v 0.04033245 0.02602221 -0.03520000
v 0.04333781 0.02063310 -0.03520000
v 0.04562699 0.01490297 -0.03520000
v -0.03238285 0.03542826 -0.03520000
v 0.02757003 0.03928975 -0.03520000
v 0.01666458 0.04501170 -0.03520000
v 0.02230157 0.04250193 -0.03520000
v 0.03238288 0.03542826 -0.03520000
v 0.03666058 0.03098124 -0.03520000
v 0.03666058 -0.03098639 -0.03520000
v 0.03238288 -0.03543340 -0.03520000
v 0.01075219 -0.04678273 -0.03520000
v 0.00800000 -0.04733113 -0.03520000
v 0.00800000 -0.05045405 -0.03520000
v -0.03666055 -0.03098639 -0.03520000
v 0.02230157 -0.04250708 -0.03520000
v 0.02757003 -0.03929490 -0.03520000
v -0.03238285 -0.03543340 -0.03520000
v -0.00799997 -0.05045405 -0.03520000
v -0.00799997 -0.04733113 -0.03520000
v -0.01075216 -0.04678273 -0.03520000
v 0.01666458 -0.04501684 -0.03520000
v 0.04562699 -0.01490812 -0.03520000
v 0.04716216 -0.00893167 -0.03520000
v 0.04033245 -0.02602735 -0.03520000
v -0.02757000 -0.03929490 -0.03520000
v -0.02230155 -0.04250708 -0.03520000
v -0.04033243 -0.02602735 -0.03520000
v -0.04333778 -0.02063824 -0.03520000
v -0.04562696 -0.01490812 -0.03520000
v -0.04716214 -0.00893167 -0.03520000
v -0.01666455 -0.04501684 -0.03520000
v 0.04333781 -0.02063824 -0.03520000
v 0.01500001 -0.00000257 0.00250000
v 0.01477213 0.00260215 0.00250000
v 0.01409540 0.00512773 0.00250000
v 0.01299039 0.00749743 0.00250000
v 0.01149068 0.00963924 0.00250000
v 0.00964183 0.01148809 0.00250000
v 0.00750001 0.01298781 0.00250000
v 0.00513031 0.01409282 0.00250000
v 0.00260474 0.01476954 0.00250000
v 0.00000001 0.01499743 0.00250000
v -0.00260471 0.01476954 0.00250000
v -0.00513029 0.01409282 0.00250000
v -0.00749999 0.01298781 0.00250000
v -0.00964180 0.01148809 0.00250000
v -0.01149065 0.00963924 0.00250000
v -0.01299037 0.00749743 0.00250000
v -0.01409538 0.00512773 0.00250000
v -0.01477210 0.00260215 0.00250000
v -0.01499999 -0.00000257 0.00250000
v -0.01477210 -0.00260730 0.00250000
v -0.01409538 -0.00513288 0.00250000
v -0.01299037 -0.00750257 0.00250000
v -0.01149065 -0.00964439 0.00250000
v -0.00964180 -0.01149324 0.00250000
v -0.00749999 -0.01299295 0.00250000
v -0.00513029 -0.01409796 0.00250000
v -0.00260471 -0.01477469 0.00250000
v 0.00000001 -0.01500257 0.00250000
v 0.00260474 -0.01477469 0.00250000
v 0.00513031 -0.01409796 0.00250000
v 0.00750001 -0.01299295 0.00250000
v 0.00964183 -0.01149324 0.00250000
v 0.01149068 -0.00964439 0.00250000
v 0.01299039 -0.00750257 0.00250000
v 0.01409540 -0.00513288 0.00250000
v 0.01477213 -0.00260730 0.00250000
v 0.00401408 -0.04783542 -0.00299697
v 0.00800000 -0.04733118 -0.00299703
v 0.00844932 -0.04658934 -0.00234400
v 0.01238628 -0.04222584 0.00100000
v 0.01196419 -0.04078688 0.00250000
v 0.01083769 -0.04264915 0.00100000
v 0.00808838 -0.04172900 0.00250000
v 0.00406171 -0.04231089 0.00250000
v 0.00000001 -0.04250570 0.00250000
v 0.00000001 -0.04800261 -0.00299691
v 0.00800000 -0.04733113 -0.02530000
v 0.00401408 -0.04783542 -0.02776506
v 0.00800000 -0.04733113 -0.02776506
v 0.00000001 -0.04800471 -0.02776506
v 0.01083738 -0.04264800 -0.02330000
v 0.02550135 -0.03400530 0.00250000
v 0.02891788 -0.03115159 0.00250000
v 0.01605499 -0.03935662 0.00250000
v 0.02094974 -0.03698382 0.00250000
v 0.04250306 -0.00000257 0.00250000
v 0.04228523 -0.00430018 0.00250000
v 0.03904275 -0.01680053 0.00250000
v 0.04029096 -0.01353573 0.00250000
v 0.04147103 -0.00931182 0.00250000
v 0.03146511 -0.02857621 0.00250000
v 0.03441978 -0.02493820 0.00250000
v 0.03695593 -0.02099700 0.00250000
v 0.04732396 -0.00803010 -0.02530000
v 0.04791796 -0.00280767 -0.02530000
v 0.04391094 -0.00284178 -0.02330032
v 0.04800246 -0.00000257 -0.02530000
v 0.04400304 -0.00000257 -0.02330000
v 0.04371218 -0.00504190 -0.02330000
v 0.04345030 -0.00693873 -0.02330033
v 0.04716216 -0.00893167 -0.02530000
v 0.04329228 -0.00786253 -0.02330033
v 0.04643239 -0.01216936 -0.02530000
v 0.04269108 -0.01065252 -0.02330031
v 0.04562699 -0.01490812 -0.02530000
v 0.04190985 -0.01340282 -0.02330030
v 0.04517954 -0.01621388 -0.02530000
v 0.04137097 -0.01498638 -0.02330000
v 0.04357538 -0.02013172 -0.02530000
v 0.04073404 -0.01664011 -0.02330000
v 0.04333781 -0.02063824 -0.02530000
v 0.03895867 -0.02045488 -0.02330000
v 0.04163219 -0.02389308 -0.02530000
v 0.03792633 -0.02231122 -0.02330000
v 0.04033245 -0.02602735 -0.02530000
v 0.03679925 -0.02412536 -0.02330000
v 0.03936474 -0.02746915 -0.02530000
v 0.03515403 -0.02646418 -0.02330066
v 0.03666058 -0.03098639 -0.02530000
v 0.03336147 -0.02869231 -0.02330040
v 0.03393118 -0.03395356 -0.02530000
v 0.03248969 -0.02967665 -0.02330028
v 0.03143112 -0.03079631 -0.02330015
v 0.03238288 -0.03543340 -0.02530000
v 0.03024584 -0.03195996 -0.02330000
v 0.03080754 -0.03681139 -0.02530000
v 0.02812338 -0.03384441 -0.02330006
v 0.02757003 -0.03929490 -0.02530000
v 0.02713237 -0.03464368 -0.02330009
v 0.02588073 -0.03558811 -0.02330012
v 0.02386691 -0.04164827 -0.02530000
v 0.02352333 -0.03718804 -0.02330019
v 0.02206064 -0.03807397 -0.02330000
v 0.02230157 -0.04250708 -0.02530000
v 0.02102562 -0.03865489 -0.02330020
v 0.02010403 -0.04358951 -0.02530000
v 0.01954762 -0.03942287 -0.02330016
v 0.01666458 -0.04501684 -0.02530000
v 0.01695213 -0.04060679 -0.02330010
v 0.01428641 -0.04161951 -0.02330004
v 0.01213963 -0.04644202 -0.02530000
v 0.01268591 -0.04213436 -0.02330000
v 0.01075219 -0.04678273 -0.02530000
v 0.00800000 -0.05045405 -0.02776506
v 0.04800000 -0.00000257 -0.03520000
v 0.04791796 -0.00280767 -0.03520000
v 0.02778844 -0.03412100 0.00100012
v 0.02993809 -0.03225052 0.00100017
v 0.03024696 -0.03196086 0.00100039
v 0.02206102 -0.03807465 0.00100001
v 0.02314772 -0.03742511 0.00100003
v 0.02552161 -0.03584823 0.00100007
v 0.02633252 -0.03525682 0.00100009
v 0.01268640 -0.04213550 0.00100001
v 0.04400306 -0.00000257 0.00100000
v 0.04377754 -0.00445185 0.00100000
v 0.04371344 -0.00504210 0.00100000
v 0.04234064 -0.00938681 -0.02330000
v 0.04152033 -0.01369770 -0.02330000
v 0.04137217 -0.01498656 0.00100026
v 0.04148919 -0.01393820 0.00123598
v 0.04200706 -0.01084024 0.00162046
v 0.04369015 -0.00509933 0.00101662
v 0.04272432 -0.00797087 0.00154202
v 0.04234099 -0.00938542 0.00163489
v 0.01775670 -0.03956883 -0.02330000
v 0.01380898 -0.04148513 -0.02330000
v 0.01381511 -0.04148274 0.00128272
v 0.01545914 -0.04061732 0.00154562
v 0.01713219 -0.03983629 0.00164129
v 0.02164188 -0.03819503 0.00110499
v 0.02054025 -0.03853574 0.00133714
v 0.01883159 -0.03914011 0.00157057
v 0.01775757 -0.03956899 0.00163442
v 0.03137683 -0.03027151 -0.02330000
v 0.03130246 -0.03037879 0.00138468
v 0.03258727 -0.02865137 -0.02330000
v 0.03241559 -0.02887304 0.00159478
v 0.03387212 -0.02710745 -0.02330000
v 0.03357891 -0.02744830 0.00163469
v 0.03523780 -0.02563317 -0.02330000
v 0.03479647 -0.02609401 0.00151097
v 0.03607267 -0.02480709 0.00122515
v 0.03680078 -0.02412605 0.00100030
v 0.03828500 -0.02169359 0.00100028
v 0.03960883 -0.01916985 0.00100026
v 0.04073600 -0.01664062 0.00100024
v 0.04076652 -0.01656570 0.00100024
v 0.01196419 0.04078174 0.00250000
v 0.01238628 0.04222069 0.00100000
v 0.00902686 0.04153107 0.00250000
v 0.01083769 0.04264401 0.00100000
v 0.00399005 0.04783229 -0.00299695
v 0.00000001 0.04799746 -0.00299691
v 0.00000001 0.04250055 0.00250000
v 0.00846180 0.04656383 -0.00232590
v 0.00800000 0.04732604 -0.00299703
v 0.00604349 0.04206845 0.00250000
v 0.00302943 0.04239222 0.00250000
v 0.00800000 0.04732598 -0.02530000
v 0.00800000 0.04732598 -0.02776506
v 0.00399005 0.04783229 -0.02776506
v 0.00000001 0.04799956 -0.02776506
v 0.01083738 0.04264285 -0.02330000
v 0.03441978 0.02493305 0.00250000
v 0.03146511 0.02857106 0.00250000
v 0.04147103 0.00930668 0.00250000
v 0.04228523 0.00429503 0.00250000
v 0.02891788 0.03114644 0.00250000
v 0.02550136 0.03400015 0.00250000
v 0.02094974 0.03697867 0.00250000
v 0.04029096 0.01353058 0.00250000
v 0.03904275 0.01679538 0.00250000
v 0.03695593 0.02099185 0.00250000
v 0.01605499 0.03935147 0.00250000
v 0.04387876 0.00330253 -0.02330000
v 0.04791796 0.00280252 -0.02530000
v 0.04371218 0.00503675 -0.02330000
v 0.04732392 0.00802521 -0.02530000
v 0.04345148 0.00693387 -0.02330000
v 0.04329247 0.00786634 -0.02330000
v 0.04716216 0.00892653 -0.02530000
v 0.04269267 0.01065116 -0.02330000
v 0.04643233 0.01216447 -0.02530000
v 0.04191415 0.01338788 -0.02330000
v 0.04562699 0.01490297 -0.02530000
v 0.04170393 0.01402832 -0.02330000
v 0.04517945 0.01620898 -0.02530000
v 0.04137097 0.01498123 -0.02330000
v 0.04333781 0.02063310 -0.02530000
v 0.04039498 0.01744206 -0.02330000
v 0.04073404 0.01663496 -0.02330000
v 0.03515645 0.02645822 -0.02330000
v 0.03936452 0.02746432 -0.02530000
v 0.03484104 0.02687238 -0.02330000
v 0.03666058 0.03098124 -0.02530000
v 0.03337231 0.02867608 -0.02330000
v 0.03679925 0.02412021 -0.02330000
v 0.03695167 0.02388604 -0.02330000
v 0.04033245 0.02602221 -0.02530000
v 0.03792633 0.02230607 -0.02330000
v 0.04163199 0.02388830 -0.02530000
v 0.03880735 0.02073544 -0.02330000
v 0.03895867 0.02044973 -0.02330000
v 0.03248976 0.02967183 -0.02330000
v 0.03393087 0.03394872 -0.02530000
v 0.03144936 0.03077164 -0.02330000
v 0.03238288 0.03542826 -0.02530000
v 0.03024584 0.03195481 -0.02330000
v 0.03080724 0.03680649 -0.02530000
v 0.02757003 0.03928975 -0.02530000
v 0.02713255 0.03463972 -0.02330000
v 0.02010380 0.04358447 -0.02530000
v 0.01666458 0.04501170 -0.02530000
v 0.01774422 0.04026185 -0.02330000
v 0.01954466 0.03941952 -0.02330000
v 0.02102565 0.03864991 -0.02330000
v 0.02230157 0.04250193 -0.02530000
v 0.02206064 0.03806882 -0.02330000
v 0.02386661 0.04164329 -0.02530000
v 0.02416290 0.03677266 -0.02330000
v 0.02633249 0.03525170 -0.02330000
v 0.01075219 0.04677758 -0.02530000
v 0.01268591 0.04212921 -0.02330000
v 0.01213952 0.04643689 -0.02530000
v 0.01428936 0.04161253 -0.02330000
v 0.01695350 0.04060093 -0.02330000
v 0.00800000 0.05044891 -0.02776506
v 0.04791796 0.00280252 -0.03520000
v 0.02206102 0.03806951 0.00100001
v 0.02314771 0.03741996 0.00100001
v 0.02552158 0.03584306 0.00100004
v 0.02633246 0.03525167 0.00100005
v 0.02778840 0.03411580 0.00100006
v 0.02993809 0.03224537 0.00100017
v 0.03024696 0.03195572 0.00100039
v 0.01268640 0.04213035 0.00100001
v 0.04371344 0.00503696 0.00100000
v 0.04377754 0.00444670 0.00100000
v 0.04152033 0.01369256 -0.02330000
v 0.04234064 0.00938166 -0.02330000
v 0.04137295 0.01498085 0.00100040
v 0.04369015 0.00509418 0.00101662
v 0.04272432 0.00796572 0.00154202
v 0.04148919 0.01393305 0.00123598
v 0.04200706 0.01083509 0.00162046
v 0.04231299 0.00949289 0.00163771
v 0.01775670 0.03956368 -0.02330000
v 0.01380898 0.04147998 -0.02330000
v 0.01324209 0.04180178 0.00114935
v 0.02160838 0.03819917 0.00111216
v 0.01994595 0.03873036 0.00143481
v 0.01823848 0.03936684 0.00161290
v 0.01488520 0.04090218 0.00147252
v 0.01655623 0.04008827 0.00162672
v 0.01775682 0.03956363 0.00163368
v 0.03680078 0.02412090 0.00100030
v 0.03606734 0.02480740 0.00122600
v 0.03523780 0.02562802 -0.02330000
v 0.03478384 0.02610297 0.00151041
v 0.03387212 0.02710230 -0.02330000
v 0.03356405 0.02745996 0.00163215
v 0.03258727 0.02864622 -0.02330000
v 0.03240197 0.02888551 0.00159019
v 0.03137683 0.03026637 -0.02330000
v 0.03129306 0.03038774 0.00138019
v 0.04073591 0.01663543 0.00100030
v 0.04042030 0.01738806 0.00100030
v 0.03896037 0.02045032 0.00100030
v 0.03792795 0.02230671 0.00100030
v -0.01196417 -0.04078688 0.00250000
v -0.01238625 -0.04222584 0.00100000
v -0.00902684 -0.04153622 0.00250000
v -0.01083766 -0.04264915 0.00100000
v -0.00399002 -0.04783744 -0.00299695
v -0.00846177 -0.04656898 -0.00232590
v -0.00799997 -0.04733118 -0.00299703
v -0.00604347 -0.04207360 0.00250000
v -0.00302940 -0.04239737 0.00250000
v -0.00799997 -0.04733113 -0.02530000
v -0.00799997 -0.04733113 -0.02776506
v -0.00399002 -0.04783744 -0.02776506
v -0.01083736 -0.04264800 -0.02330000
v -0.04147101 -0.00931182 0.00250000
v -0.04228520 -0.00430018 0.00250000
v -0.04250304 -0.00000257 0.00250000
v -0.03441975 -0.02493820 0.00250000
v -0.03146508 -0.02857621 0.00250000
v -0.04029094 -0.01353573 0.00250000
v -0.03904273 -0.01680053 0.00250000
v -0.03695591 -0.02099700 0.00250000
v -0.02891785 -0.03115159 0.00250000
v -0.02550133 -0.03400530 0.00250000
v -0.02094972 -0.03698382 0.00250000
v -0.01605497 -0.03935662 0.00250000
v -0.04400302 -0.00000257 -0.02330000
v -0.04800244 -0.00000257 -0.02530000
v -0.04387873 -0.00330767 -0.02330000
v -0.04791794 -0.00280767 -0.02530000
v -0.04371215 -0.00504190 -0.02330000
v -0.04732389 -0.00803035 -0.02530000
v -0.04345146 -0.00693902 -0.02330000
v -0.04329245 -0.00787149 -0.02330000
v -0.04716214 -0.00893167 -0.02530000
v -0.04269264 -0.01065631 -0.02330000
v -0.04643230 -0.01216961 -0.02530000
v -0.04191412 -0.01339303 -0.02330000
v -0.04562696 -0.01490812 -0.02530000
v -0.04170391 -0.01403347 -0.02330000
v -0.04517943 -0.01621413 -0.02530000
v -0.04137094 -0.01498638 -0.02330000
v -0.04333778 -0.02063824 -0.02530000
v -0.04039495 -0.01744721 -0.02330000
v -0.04073402 -0.01664011 -0.02330000
v -0.03515643 -0.02646337 -0.02330000
v -0.03936449 -0.02746947 -0.02530000
v -0.03484102 -0.02687752 -0.02330000
v -0.03666055 -0.03098639 -0.02530000
v -0.03337229 -0.02868123 -0.02330000
v -0.03679922 -0.02412536 -0.02330000
v -0.03695164 -0.02389119 -0.02330000
v -0.04033243 -0.02602735 -0.02530000
v -0.03792631 -0.02231122 -0.02330000
v -0.04163196 -0.02389345 -0.02530000
v -0.03880733 -0.02074058 -0.02330000
v -0.03895864 -0.02045488 -0.02330000
v -0.03248973 -0.02967698 -0.02330000
v -0.03393084 -0.03395387 -0.02530000
v -0.03144933 -0.03077679 -0.02330000
v -0.03238285 -0.03543340 -0.02530000
v -0.03024582 -0.03195996 -0.02330000
v -0.03080722 -0.03681164 -0.02530000
v -0.02757000 -0.03929490 -0.02530000
v -0.02713253 -0.03464487 -0.02330000
v -0.02010377 -0.04358961 -0.02530000
v -0.01666455 -0.04501684 -0.02530000
v -0.01774419 -0.04026700 -0.02330000
v -0.01954463 -0.03942466 -0.02330000
v -0.02102562 -0.03865506 -0.02330000
v -0.02230155 -0.04250708 -0.02530000
v -0.02206062 -0.03807397 -0.02330000
v -0.02386659 -0.04164844 -0.02530000
v -0.02416288 -0.03677781 -0.02330000
v -0.02633246 -0.03525685 -0.02330000
v -0.01075216 -0.04678273 -0.02530000
v -0.01268589 -0.04213436 -0.02330000
v -0.01213950 -0.04644204 -0.02530000
v -0.01428934 -0.04161768 -0.02330000
v -0.01695348 -0.04060607 -0.02330000
v -0.00799997 -0.05045405 -0.02776506
v -0.04799997 -0.00000257 -0.03520000
v -0.04791794 -0.00280767 -0.03520000
v -0.02206100 -0.03807465 0.00100001
v -0.02314769 -0.03742510 0.00100001
v -0.02552156 -0.03584820 0.00100004
v -0.02633243 -0.03525681 0.00100005
v -0.02778837 -0.03412095 0.00100006
v -0.02993807 -0.03225052 0.00100017
v -0.03024693 -0.03196086 0.00100039
v -0.01268637 -0.04213550 0.00100001
v -0.04371341 -0.00504210 0.00100000
v -0.04377751 -0.00445185 0.00100000
v -0.04400304 -0.00000257 0.00100000
v -0.04152031 -0.01369770 -0.02330000
v -0.04234061 -0.00938681 -0.02330000
v -0.04137293 -0.01498600 0.00100040
v -0.04369012 -0.00509933 0.00101662
v -0.04272429 -0.00797087 0.00154202
v -0.04148917 -0.01393820 0.00123598
v -0.04200704 -0.01084024 0.00162046
v -0.04231296 -0.00949803 0.00163771
v -0.01775667 -0.03956883 -0.02330000
v -0.01380895 -0.04148513 -0.02330000
v -0.01324207 -0.04180693 0.00114935
v -0.02160835 -0.03820431 0.00111216
v -0.01994593 -0.03873551 0.00143481
v -0.01823845 -0.03937198 0.00161290
v -0.01488518 -0.04090732 0.00147252
v -0.01655621 -0.04009341 0.00162672
v -0.01775679 -0.03956878 0.00163368
v -0.03680075 -0.02412605 0.00100030
v -0.03606732 -0.02481255 0.00122600
v -0.03523778 -0.02563317 -0.02330000
v -0.03478382 -0.02610811 0.00151041
v -0.03387209 -0.02710745 -0.02330000
v -0.03356403 -0.02746511 0.00163215
v -0.03258725 -0.02865137 -0.02330000
v -0.03240195 -0.02889066 0.00159019
v -0.03137681 -0.03027151 -0.02330000
v -0.03129304 -0.03039289 0.00138019
v -0.04073588 -0.01664058 0.00100030
v -0.04042028 -0.01739321 0.00100030
v -0.03896035 -0.02045547 0.00100030
v -0.03792793 -0.02231186 0.00100030
v -0.00401405 0.04783027 -0.00299697
v -0.00799997 0.04732604 -0.00299703
v -0.00844930 0.04658419 -0.00234400
v -0.01238625 0.04222069 0.00100000
v -0.01196417 0.04078174 0.00250000
v -0.01083766 0.04264401 0.00100000
v -0.00808835 0.04172385 0.00250000
v -0.00406169 0.04230574 0.00250000
v -0.00799997 0.04732598 -0.02530000
v -0.00401405 0.04783027 -0.02776506
v -0.00799997 0.04732598 -0.02776506
v -0.01083736 0.04264285 -0.02330000
v -0.01605496 0.03935147 0.00250000
v -0.04227946 0.00435115 0.00250000
v -0.03900091 0.01689225 0.00250000
v -0.04029094 0.01353058 0.00250000
v -0.04146527 0.00933218 0.00250000
v -0.02094971 0.03697867 0.00250000
v -0.02550133 0.03400015 0.00250000
v -0.02891785 0.03114644 0.00250000
v -0.03145055 0.02858706 0.00250000
v -0.03439064 0.02497318 0.00250000
v -0.03691754 0.02105924 0.00250000
v -0.04732394 0.00802495 -0.02530000
v -0.04791794 0.00280252 -0.02530000
v -0.04391092 0.00283663 -0.02330032
v -0.04371215 0.00503675 -0.02330000
v -0.04345027 0.00693358 -0.02330033
v -0.04716214 0.00892653 -0.02530000
v -0.04329226 0.00785738 -0.02330033
v -0.04643237 0.01216421 -0.02530000
v -0.04269106 0.01064737 -0.02330031
v -0.04562696 0.01490297 -0.02530000
v -0.04190983 0.01339767 -0.02330030
v -0.04517952 0.01620873 -0.02530000
v -0.04137094 0.01498123 -0.02330000
v -0.04357536 0.02012658 -0.02530000
v -0.04073402 0.01663496 -0.02330000
v -0.04333778 0.02063310 -0.02530000
v -0.03895864 0.02044973 -0.02330000
v -0.04163217 0.02388794 -0.02530000
v -0.03792631 0.02230607 -0.02330000
v -0.04033243 0.02602221 -0.02530000
v -0.03679922 0.02412021 -0.02330000
v -0.03936471 0.02746400 -0.02530000
v -0.03515401 0.02645903 -0.02330066
v -0.03666055 0.03098124 -0.02530000
v -0.03336145 0.02868716 -0.02330040
v -0.03393115 0.03394841 -0.02530000
v -0.03248966 0.02967150 -0.02330028
v -0.03143109 0.03079117 -0.02330015
v -0.03238285 0.03542826 -0.02530000
v -0.03024582 0.03195481 -0.02330000
v -0.03080752 0.03680624 -0.02530000
v -0.02812335 0.03383926 -0.02330006
v -0.02757000 0.03928975 -0.02530000
v -0.02713235 0.03463854 -0.02330009
v -0.02588071 0.03558296 -0.02330012
v -0.02386688 0.04164312 -0.02530000
v -0.02352330 0.03718289 -0.02330019
v -0.02206062 0.03806882 -0.02330000
v -0.02230155 0.04250193 -0.02530000
v -0.02102560 0.03864975 -0.02330020
v -0.02010401 0.04358436 -0.02530000
v -0.01954759 0.03941773 -0.02330016
v -0.01666455 0.04501170 -0.02530000
v -0.01695210 0.04060164 -0.02330010
v -0.01428639 0.04161436 -0.02330004
v -0.01213960 0.04643687 -0.02530000
v -0.01268589 0.04212921 -0.02330000
v -0.01075216 0.04677758 -0.02530000
v -0.00799997 0.05044891 -0.02776506
v -0.04791794 0.00280252 -0.03520000
v -0.02778841 0.03411585 0.00100012
v -0.02993807 0.03224537 0.00100017
v -0.03024693 0.03195572 0.00100039
v -0.02206100 0.03806951 0.00100001
v -0.02314770 0.03741996 0.00100003
v -0.02552158 0.03584309 0.00100007
v -0.02633250 0.03525167 0.00100009
v -0.01268637 0.04213035 0.00100001
v -0.04377157 0.00450480 0.00100000
v -0.04371294 0.00503687 0.00100029
v -0.04241435 0.00909185 -0.02330000
v -0.04153202 0.01360498 -0.02330000
v -0.04137214 0.01498141 0.00100026
v -0.04142630 0.01445836 0.00112526
v -0.04148917 0.01393305 0.00123598
v -0.04200704 0.01083509 0.00162046
v -0.04202012 0.01077279 0.00162332
v -0.04230662 0.00951861 0.00163826
v -0.04274188 0.00790567 0.00153569
v -0.01803314 0.03944978 -0.02330000
v -0.01388616 0.04143709 -0.02330000
v -0.01430029 0.04121430 0.00137581
v -0.01595920 0.04037816 0.00158294
v -0.01766678 0.03961407 0.00162563
v -0.02163934 0.03819026 0.00110590
v -0.02112298 0.03834641 0.00122142
v -0.01940276 0.03892929 0.00150404
v -0.01803831 0.03945959 0.00161355
v -0.03127912 0.03041281 0.00137411
v -0.03240107 0.02888421 -0.02330000
v -0.03238633 0.02892104 0.00158123
v -0.03367531 0.02732824 -0.02330000
v -0.03356937 0.02747180 0.00162392
v -0.03503041 0.02584190 -0.02330000
v -0.03481336 0.02608075 0.00150231
v -0.03608898 0.02478781 0.00121969
v -0.03680075 0.02412090 0.00100030
v -0.03828496 0.02168844 0.00100029
v -0.03960878 0.01916469 0.00100028
v -0.04073594 0.01663546 0.00100027
v -0.04076646 0.01656054 0.00100027
f 91 92 93
f 101 92 91
f 101 91 102
f 102 91 100
f 91 99 100
f 91 98 99
f 99 98 82
f 82 98 83
f 98 97 83
f 83 97 95
f 96 95 97
f 96 97 93
f 93 105 96
f 96 105 94
f 94 105 166
f 94 166 178
f 94 178 95
f 95 178 192
f 95 192 108
f 108 192 193
f 108 193 194
f 108 194 198
f 190 198 194
f 190 197 198
f 109 198 197
f 109 197 196
f 196 195 109
f 195 174 109
f 190 174 195
f 157 174 190
f 174 157 175
f 175 157 156
f 175 156 176
f 106 175 176
f 106 176 177
f 176 154 177
f 177 154 171
f 154 153 171
f 152 153 154
f 152 154 155
f 155 38 152
f 152 38 150
f 150 151 152
f 150 149 151
f 172 151 149
f 172 149 173
f 172 173 107
f 172 107 171
f 171 107 106
f 86 106 107
f 85 106 86
f 85 109 106
f 85 108 109
f 84 108 85
f 86 107 87
f 107 115 87
f 87 115 116
f 115 202 116
f 116 202 204
f 202 203 204
f 204 203 205
f 204 205 206
f 206 205 207
f 207 205 140
f 207 140 208
f 208 140 138
f 208 138 209
f 209 138 136
f 137 136 138
f 137 138 139
f 139 46 137
f 137 46 54
f 137 54 135
f 135 54 133
f 133 54 44
f 133 44 131
f 44 129 131
f 129 130 131
f 129 128 130
f 127 128 129
f 127 126 128
f 125 126 127
f 45 125 127
f 45 127 44
f 45 118 125
f 118 124 125
f 118 123 124
f 120 123 118
f 118 119 120
f 1 119 118
f 170 119 1
f 170 121 119
f 169 121 170
f 241 121 169
f 169 293 241
f 241 293 5
f 241 5 243
f 243 5 7
f 243 7 246
f 245 243 246
f 245 246 247
f 305 245 247
f 305 247 304
f 304 247 249
f 304 249 251
f 249 250 251
f 251 250 252
f 251 252 253
f 252 256 253
f 252 255 256
f 254 255 252
f 23 254 252
f 266 254 23
f 22 266 23
f 22 264 266
f 258 264 22
f 258 263 264
f 264 263 265
f 321 265 263
f 321 263 262
f 321 262 322
f 322 262 323
f 322 323 324
f 324 323 325
f 324 325 326
f 326 325 327
f 326 327 328
f 328 327 329
f 328 329 330
f 330 329 273
f 330 273 300
f 233 330 300
f 300 299 233
f 233 299 234
f 234 299 298
f 273 298 299
f 276 298 273
f 276 297 298
f 286 297 276
f 275 286 276
f 275 285 286
f 284 285 275
f 284 283 285
f 285 283 294
f 294 283 315
f 315 283 312
f 315 312 316
f 316 312 317
f 317 239 316
f 316 239 235
f 235 239 62
f 61 235 62
f 61 234 235
f 296 235 234
f 296 234 297
f 295 235 296
f 315 235 295
f 285 295 296
f 60 234 61
f 62 239 213
f 62 213 63
f 63 213 215
f 63 215 222
f 215 221 222
f 222 221 217
f 222 217 223
f 223 217 219
f 219 64 223
f 223 64 63
f 466 64 219
f 459 466 219
f 459 219 218
f 468 459 218
f 467 459 468
f 468 469 467
f 467 469 529
f 529 470 467
f 529 528 470
f 462 470 528
f 462 528 539
f 462 539 463
f 462 463 464
f 464 463 465
f 463 65 465
f 463 66 65
f 471 66 463
f 67 66 471
f 471 476 67
f 471 559 476
f 471 555 559
f 471 554 555
f 471 553 554
f 553 552 554
f 554 552 551
f 539 552 553
f 554 551 555
f 551 559 555
f 551 558 559
f 557 558 551
f 551 556 557
f 551 535 556
f 519 535 551
f 535 519 536
f 536 519 518
f 536 518 537
f 477 536 537
f 477 537 538
f 537 516 538
f 538 516 532
f 516 515 532
f 514 515 516
f 514 516 517
f 517 16 514
f 514 16 512
f 512 513 514
f 512 511 513
f 533 513 511
f 533 511 534
f 534 511 560
f 478 534 560
f 478 560 479
f 478 479 69
f 68 478 69
f 68 477 478
f 532 478 477
f 533 478 532
f 67 477 68
f 69 479 480
f 479 562 480
f 480 562 564
f 480 564 566
f 564 565 566
f 566 565 567
f 567 565 502
f 567 502 568
f 567 568 569
f 568 500 569
f 569 500 498
f 499 498 500
f 499 500 501
f 501 14 499
f 499 14 13
f 499 13 497
f 497 13 495
f 495 13 11
f 495 11 493
f 11 491 493
f 491 492 493
f 491 490 492
f 542 492 490
f 542 490 488
f 489 488 490
f 487 488 489
f 12 487 489
f 12 482 487
f 482 486 487
f 482 485 486
f 484 485 482
f 482 483 484
f 6 483 482
f 531 483 6
f 531 361 483
f 415 361 531
f 363 361 415
f 415 416 363
f 363 416 4
f 363 4 365
f 364 363 365
f 364 365 366
f 366 365 367
f 366 367 429
f 429 367 369
f 367 368 369
f 369 368 370
f 369 370 371
f 371 370 372
f 371 372 373
f 373 372 374
f 373 374 375
f 373 375 428
f 374 378 375
f 455 375 378
f 455 378 456
f 455 456 354
f 354 456 355
f 355 456 457
f 355 457 458
f 445 355 458
f 458 387 445
f 445 387 385
f 386 385 387
f 386 387 388
f 49 386 388
f 49 388 50
f 388 376 50
f 388 389 376
f 376 389 390
f 376 390 377
f 377 390 457
f 376 377 374
f 457 390 389
f 50 376 374
f 50 374 51
f 380 386 49
f 36 380 49
f 36 382 380
f 392 382 36
f 39 392 36
f 39 394 392
f 396 394 39
f 47 396 39
f 47 397 396
f 395 396 397
f 395 397 398
f 398 421 395
f 395 421 422
f 395 422 423
f 454 395 423
f 454 453 395
f 452 453 454
f 452 451 453
f 450 451 452
f 450 449 451
f 448 449 450
f 448 447 449
f 446 447 448
f 446 448 351
f 446 351 445
f 445 384 446
f 446 384 447
f 351 448 450
f 351 450 352
f 77 351 352
f 77 352 78
f 352 356 78
f 352 452 356
f 78 356 357
f 356 422 357
f 78 357 79
f 79 357 358
f 79 358 80
f 80 358 359
f 440 359 358
f 440 358 439
f 439 436 440
f 439 405 436
f 417 405 439
f 439 418 417
f 417 418 407
f 407 418 419
f 418 358 419
f 407 419 408
f 397 407 408
f 406 407 397
f 406 405 407
f 404 405 406
f 404 403 405
f 405 403 436
f 436 403 402
f 402 401 436
f 436 401 413
f 400 413 401
f 399 400 401
f 53 400 399
f 411 400 53
f 42 411 53
f 42 409 411
f 41 409 42
f 345 409 41
f 345 344 409
f 344 347 409
f 344 341 347
f 347 341 340
f 337 340 341
f 337 341 342
f 81 337 342
f 81 335 337
f 80 335 81
f 335 336 337
f 337 336 338
f 410 338 336
f 410 336 424
f 424 438 410
f 410 438 437
f 438 442 437
f 335 442 438
f 335 443 442
f 359 443 335
f 359 444 443
f 441 444 359
f 436 444 441
f 436 443 444
f 437 443 436
f 437 442 443
f 424 336 438
f 347 338 410
f 438 336 335
f 343 81 342
f 342 339 343
f 343 339 99
f 343 82 81
f 342 341 339
f 341 346 339
f 339 346 104
f 339 104 100
f 338 340 337
f 347 340 338
f 344 346 341
f 409 347 410
f 344 345 346
f 41 40 345
f 345 40 414
f 409 410 411
f 411 410 412
f 437 412 410
f 437 413 412
f 411 412 400
f 53 399 48
f 399 404 48
f 400 412 413
f 436 413 437
f 401 402 399
f 399 402 403
f 399 403 404
f 48 404 406
f 48 406 47
f 408 419 420
f 419 357 420
f 357 421 420
f 408 420 398
f 407 405 417
f 440 436 441
f 439 358 418
f 441 359 440
f 80 359 335
f 419 358 357
f 76 351 77
f 76 355 351
f 352 450 452
f 356 452 454
f 356 454 423
f 423 422 356
f 357 422 421
f 398 420 421
f 397 408 398
f 406 397 47
f 394 396 395
f 393 394 395
f 453 393 395
f 453 391 393
f 451 391 453
f 451 383 391
f 383 382 391
f 381 382 383
f 451 381 383
f 449 381 451
f 449 379 381
f 447 379 449
f 447 384 379
f 379 384 380
f 380 384 385
f 379 380 381
f 391 392 393
f 393 392 394
f 391 382 392
f 381 380 382
f 388 387 389
f 380 385 386
f 445 385 384
f 458 389 387
f 445 351 355
f 457 389 458
f 456 377 457
f 76 354 355
f 75 354 76
f 75 353 354
f 348 353 75
f 75 74 348
f 348 74 349
f 349 431 348
f 348 431 432
f 348 432 435
f 429 435 432
f 429 434 435
f 428 434 429
f 428 433 434
f 430 433 428
f 428 375 430
f 430 353 433
f 433 353 434
f 434 348 435
f 431 429 432
f 431 364 429
f 425 364 431
f 364 425 426
f 426 425 349
f 426 349 427
f 427 349 350
f 350 540 427
f 472 540 350
f 350 73 472
f 472 73 72
f 72 475 472
f 549 472 475
f 549 475 548
f 548 542 549
f 549 542 550
f 550 542 485
f 550 485 541
f 550 541 472
f 485 540 541
f 548 543 542
f 547 543 548
f 546 543 547
f 545 543 546
f 474 545 546
f 474 544 545
f 473 544 474
f 71 473 474
f 71 474 72
f 70 473 71
f 70 481 473
f 481 569 473
f 473 569 570
f 473 570 571
f 570 496 571
f 571 496 572
f 572 496 494
f 495 494 496
f 572 494 544
f 570 498 496
f 497 496 498
f 571 572 473
f 70 480 481
f 473 572 544
f 544 494 545
f 474 546 475
f 545 494 543
f 475 546 547
f 548 475 547
f 550 472 549
f 72 474 475
f 472 541 540
f 484 427 540
f 360 427 484
f 484 361 360
f 360 361 362
f 362 427 360
f 349 73 350
f 362 426 427
f 364 426 362
f 349 425 431
f 349 74 73
f 434 353 348
f 430 354 353
f 455 354 430
f 456 378 377
f 430 375 455
f 374 377 378
f 374 372 51
f 428 371 373
f 51 372 370
f 51 370 52
f 428 369 371
f 368 52 370
f 365 52 368
f 429 369 428
f 367 365 368
f 429 364 366
f 362 363 364
f 365 4 52
f 362 361 363
f 484 483 361
f 484 540 485
f 486 485 542
f 6 482 12
f 12 489 11
f 487 486 488
f 486 542 488
f 543 492 542
f 543 494 492
f 489 490 491
f 493 492 494
f 11 489 491
f 493 494 495
f 495 496 497
f 503 14 501
f 501 502 503
f 503 502 504
f 565 504 502
f 565 506 504
f 505 504 506
f 505 506 507
f 507 8 505
f 507 25 8
f 510 25 507
f 512 25 510
f 507 509 510
f 507 508 509
f 509 508 561
f 561 511 509
f 561 508 506
f 561 506 563
f 510 509 511
f 505 8 503
f 506 508 507
f 563 506 565
f 503 504 505
f 503 8 14
f 501 500 502
f 497 498 499
f 569 498 570
f 481 567 569
f 568 502 500
f 566 567 481
f 564 563 565
f 481 480 566
f 562 563 564
f 562 561 563
f 560 561 562
f 69 480 70
f 479 560 562
f 560 511 561
f 533 534 478
f 532 513 533
f 510 511 512
f 512 16 25
f 517 9 16
f 520 9 517
f 522 9 520
f 522 10 9
f 524 10 522
f 522 523 524
f 523 525 524
f 551 525 523
f 551 526 525
f 552 526 551
f 552 528 526
f 527 526 528
f 524 526 527
f 521 551 523
f 521 519 551
f 520 519 521
f 524 525 526
f 522 521 523
f 527 10 524
f 527 17 10
f 529 17 527
f 520 521 522
f 517 519 520
f 516 518 517
f 513 515 514
f 532 515 513
f 532 477 538
f 476 536 477
f 537 518 516
f 517 518 519
f 476 535 536
f 556 535 476
f 557 556 476
f 476 558 557
f 476 559 558
f 67 476 477
f 463 553 471
f 465 65 466
f 461 465 466
f 464 465 461
f 461 470 464
f 463 539 553
f 528 552 539
f 464 470 462
f 527 528 529
f 461 467 470
f 460 467 461
f 459 460 461
f 529 469 17
f 469 18 17
f 18 469 15
f 15 469 530
f 467 460 459
f 468 218 227
f 217 227 218
f 217 226 227
f 461 466 459
f 466 65 64
f 217 218 219
f 221 226 217
f 224 226 221
f 224 225 226
f 225 224 287
f 224 228 287
f 287 228 288
f 287 288 289
f 289 288 290
f 313 290 288
f 313 291 290
f 278 290 291
f 278 291 279
f 277 278 279
f 279 280 277
f 277 280 281
f 312 281 280
f 283 281 312
f 282 281 283
f 277 281 282
f 277 282 28
f 27 277 28
f 28 282 284
f 28 284 26
f 280 279 312
f 27 278 277
f 289 278 27
f 20 289 27
f 312 279 291
f 312 291 313
f 289 290 278
f 20 287 289
f 19 287 20
f 228 216 288
f 228 220 216
f 228 221 220
f 216 220 215
f 215 214 216
f 288 216 214
f 288 214 301
f 301 314 288
f 288 314 313
f 314 318 313
f 313 318 319
f 313 319 312
f 312 319 320
f 239 320 319
f 213 319 318
f 213 318 314
f 314 214 213
f 301 214 314
f 225 287 19
f 19 21 225
f 225 21 292
f 224 221 228
f 215 220 221
f 223 63 222
f 213 214 215
f 239 319 213
f 317 320 239
f 312 320 317
f 316 235 315
f 315 295 294
f 294 295 285
f 282 283 284
f 284 275 26
f 26 275 274
f 26 274 29
f 274 272 29
f 29 272 270
f 29 270 30
f 270 260 30
f 269 260 270
f 269 270 271
f 329 269 271
f 329 271 273
f 271 272 273
f 327 269 329
f 327 261 269
f 327 259 261
f 325 259 327
f 325 257 259
f 323 257 325
f 323 262 257
f 257 262 258
f 257 258 259
f 259 258 260
f 259 260 261
f 261 260 269
f 30 260 258
f 271 270 272
f 272 274 273
f 273 274 275
f 285 296 286
f 286 296 297
f 273 275 276
f 234 298 297
f 60 233 234
f 230 233 60
f 230 328 233
f 59 230 60
f 59 229 230
f 58 229 59
f 58 238 229
f 321 229 238
f 321 238 334
f 238 333 334
f 333 267 334
f 333 268 267
f 255 268 333
f 332 255 333
f 254 267 268
f 334 267 265
f 266 265 267
f 238 332 333
f 237 332 238
f 331 332 237
f 331 237 306
f 306 237 236
f 57 236 237
f 231 236 57
f 310 236 231
f 309 236 310
f 304 309 310
f 304 310 305
f 305 310 311
f 305 311 308
f 231 308 311
f 231 307 308
f 232 307 231
f 231 56 232
f 232 56 55
f 232 55 110
f 179 232 110
f 110 180 179
f 111 180 110
f 111 187 180
f 188 187 111
f 114 188 111
f 90 114 111
f 90 113 114
f 113 185 114
f 185 113 184
f 184 113 112
f 184 112 212
f 212 112 211
f 112 210 211
f 112 209 210
f 117 209 112
f 88 117 112
f 88 112 89
f 88 116 117
f 116 207 117
f 210 134 211
f 210 136 134
f 135 134 136
f 134 212 211
f 134 184 212
f 132 184 134
f 133 132 134
f 89 112 113
f 184 132 185
f 185 132 183
f 185 183 186
f 186 183 182
f 182 189 186
f 114 186 189
f 182 188 189
f 114 185 186
f 89 113 90
f 111 55 90
f 114 189 188
f 187 188 182
f 182 181 187
f 123 181 182
f 123 180 181
f 187 181 180
f 120 179 180
f 122 179 120
f 240 179 122
f 122 121 240
f 240 303 179
f 242 303 240
f 242 302 303
f 303 302 232
f 302 242 307
f 307 242 305
f 240 241 242
f 120 121 122
f 303 232 179
f 110 55 111
f 232 302 307
f 307 305 308
f 306 309 304
f 304 253 306
f 310 231 311
f 57 56 231
f 57 237 58
f 306 236 309
f 306 253 331
f 331 256 332
f 58 237 238
f 229 326 230
f 273 299 300
f 233 328 330
f 230 326 328
f 229 324 326
f 322 324 229
f 322 229 321
f 334 265 321
f 258 262 263
f 30 258 22
f 264 265 266
f 266 267 254
f 23 252 24
f 254 268 255
f 332 256 255
f 331 253 256
f 252 250 24
f 24 250 248
f 24 248 7
f 249 248 250
f 251 253 304
f 247 248 249
f 244 245 305
f 305 242 244
f 242 243 244
f 247 246 248
f 244 243 245
f 246 7 248
f 242 241 243
f 240 121 241
f 120 119 121
f 120 180 123
f 124 123 182
f 124 182 126
f 1 118 45
f 125 124 126
f 182 128 126
f 182 130 128
f 183 130 182
f 183 132 130
f 131 130 132
f 44 127 129
f 131 132 133
f 133 134 135
f 141 46 139
f 139 140 141
f 141 140 142
f 205 142 140
f 205 144 142
f 143 142 144
f 143 144 145
f 145 31 143
f 145 32 31
f 148 32 145
f 150 32 148
f 145 147 148
f 145 146 147
f 146 201 147
f 147 201 199
f 147 199 149
f 144 201 146
f 203 201 144
f 148 147 149
f 143 31 141
f 144 146 145
f 203 144 205
f 141 142 143
f 141 31 46
f 135 136 137
f 209 136 210
f 117 208 209
f 139 138 140
f 207 208 117
f 116 206 207
f 202 201 203
f 200 201 202
f 200 199 201
f 173 199 200
f 116 204 206
f 115 200 202
f 87 116 88
f 107 200 115
f 107 173 200
f 173 149 199
f 171 151 172
f 148 149 150
f 150 38 32
f 155 37 38
f 158 37 155
f 160 37 158
f 160 43 37
f 162 43 160
f 160 161 162
f 161 163 162
f 162 163 164
f 190 164 163
f 191 164 190
f 191 166 164
f 165 164 166
f 165 166 167
f 167 33 165
f 165 33 43
f 167 103 33
f 101 103 167
f 167 105 101
f 103 34 33
f 34 103 35
f 35 103 168
f 162 164 165
f 190 163 161
f 159 190 161
f 159 157 190
f 158 157 159
f 160 159 161
f 165 43 162
f 158 159 160
f 155 157 158
f 154 156 155
f 151 153 152
f 171 153 151
f 171 106 177
f 109 175 106
f 176 156 154
f 155 156 157
f 109 174 175
f 190 195 196
f 196 197 190
f 108 198 109
f 193 190 194
f 193 191 190
f 192 191 193
f 84 95 108
f 178 191 192
f 166 191 178
f 167 166 105
f 93 101 105
f 94 95 96
f 83 95 84
f 93 97 98
f 99 82 343
f 339 100 99
f 102 100 104
f 102 103 101
f 92 101 93
f 93 98 91
f 1 2 170
f 170 2 169
f 169 2 293
f 293 2 5
f 415 3 416
f 531 3 415
f 6 3 531
f 416 3 4

