# https://github.com/mikedh/trimesh
v 0.03800025 0.02897392 0.00106567
v 0.03800025 0.02867628 0.00423307
v 0.03800025 0.02873183 0.00384537
v 0.03800025 0.02878209 0.00345707
v 0.03800025 0.02882705 0.00306817
v 0.03800025 0.02886672 0.00267868
v 0.03800025 0.02891362 0.00212831
v 0.03800025 0.02826518 0.00640030
v 0.03800025 0.02830833 0.00620960
v 0.03800025 0.02835017 0.00601859
v 0.03800025 0.02842995 0.00563571
v 0.03800025 0.02846789 0.00544383
v 0.03800025 0.02850453 0.00525166
v 0.03800025 0.02812549 0.00698329
v 0.03800025 0.02817497 0.00678083
v 0.03800025 0.02891612 0.00210995
v 0.03800025 0.02866258 0.00433493
v 0.03800025 0.02874663 0.00374858
v 0.03800025 0.02831565 0.00618236
v 0.03800025 0.02822347 0.00658351
v 0.03800025 0.02888267 0.00252032
v 0.03800025 0.02884327 0.00293022
v 0.03800025 0.02879793 0.00333964
v 0.03800025 0.02857735 0.00485657
v 0.03800025 0.02848261 0.00537595
v 0.03800025 0.02840203 0.00577984
f 16 1 7
f 16 7 21
f 21 7 6
f 21 6 22
f 22 6 5
f 22 5 23
f 23 5 4
f 23 4 18
f 18 4 3
f 18 3 2
f 2 17 18
f 17 2 24
f 24 2 13
f 24 13 25
f 13 12 25
f 25 12 11
f 25 11 26
f 26 11 10
f 26 10 19
f 19 10 9
f 19 9 8
f 19 8 20
f 20 8 15
f 20 15 14

