#
# File generated by Libuipc
# Vertices 114
# Edges 114
# Faces 0
#
v 0.005879162213866459 0.061237926355393706 -0.0008635290837152832
v 0.005891929966952103 0.05924864095212487 -0.0008560738578085373
v 0.005904650264942281 0.05725937103986777 -0.0008484116329017185
v 0.00591724711670781 0.0552700862529973 -0.0008405127777467001
v 0.005929656941605307 0.05328081739105993 -0.0008323435120893604
v 0.00594181835566897 0.05129153227214231 -0.0008238662312971759
v 0.0059536749091128665 0.04930226183029472 -0.0008150397621262923
v 0.0059651739485268055 0.04731297609545589 -0.0008058178412746239
v 0.005976269412424363 0.04532370517697427 -0.0007961490455106768
v 0.005986925721041997 0.04333442038992125 -0.0007859748389615181
v 0.0059971096255947345 0.04134515011123823 -0.000775230792025797
v 0.006006799244629907 0.03935586593744912 -0.0007638436306748643
v 0.00601598026187923 0.037366584641177744 -0.0007517316097013524
v 0.006024654764132888 0.03537732019444944 -0.0007388028099363878
v 0.006044749250260035 0.03338811198858511 -0.0007282243978488902
v 0.006052134652748417 0.031398855852500296 -0.0007428768441351123
v 0.006058737404201592 0.029409576117039538 -0.0007567049846268391
v 0.00606458640660231 0.027420304808227682 -0.0007697596092724683
v 0.006069734526383895 0.025431013034539696 -0.000782144459793112
v 0.006074245215921027 0.023441724475541905 -0.0007939682500062728
v 0.006078191265903776 0.02145243209835944 -0.0008053414120915947
v 0.006081662367399568 0.019463136911959028 -0.0008163752900944579
v 0.006084743223250502 0.017473831829177246 -0.0008271818944660454
v 0.00608753888920099 0.01548453370139519 -0.0008378736422796982
v 0.0060901612767296906 0.013495235297791881 -0.000848563054247405
v 0.006092699941015124 0.011505922360224347 -0.0008593619984823941
v 0.006095261707768983 0.009516625594071508 -0.0008703783168415197
v 0.006097972407768333 0.007527330566152274 -0.0008816805702827557
v 0.006111984606985318 0.005538072967036191 -0.0008705921941726231
v 0.006156194879549298 0.003549286757206882 -0.0008569177808940379
v 0.00620025729002084 0.0015604940374618352 -0.0008437835805743951
v 0.006243084566092448 -0.0004283274512987556 -0.0008309183787911671
v 0.005795345125012993 -0.0023665701336479865 -0.000843405047887285
v 0.004797890904446219 -0.004086667166736505 -0.000905008757337224
v 0.003269805474789305 -0.005360341694693816 -0.0009144203506362325
v 0.0014280842924633123 -0.006112140686943425 -0.00089708702209813
v -0.0005303380536062719 -0.006454746662716825 -0.0009649961493996028
v -0.002500467854220458 -0.0067013701563957825 -0.0008415712986873123
v -0.0042712378453642775 -0.005866536074383952 -0.000488339470026541
v -0.005148148553036175 -0.0040900655488557095 -0.0003078030317897145
v -0.005835383677378514 -0.002243252657414535 -0.0005807280337252554
v -0.005978957135619001 -0.0002591270038441169 -0.0005840520452566957
v -0.0055406927281287524 0.0016783937364942228 -0.0004774312500408124
v -0.004541791444903159 0.0033984758765463943 -0.00044731155292353924
v -0.0029582224648635126 0.004602510344655025 -0.00044925033863687586
v -0.0011071165289415217 0.005331088703809377 -0.00044791043622028086
v 0.0008821155305036939 0.0053488616404668045 -0.000448071855444768
v 0.0027597301188639557 0.004691563688429469 -0.0004477007792471269
v 0.0042641157922862155 0.0033899690940855727 -0.00044978877974747894
v 0.005193662582765102 0.0016311827972379372 -0.00044932742970583517
v 0.005428185721415032 -0.0003442772096886507 -0.0004477107098896378
v 0.0049254417398269645 -0.0022690197720318227 -0.0004477757438323887
v 0.003802303025538549 -0.003910960864334693 -0.0004494084132408826
v 0.002133244466006246 -0.00499334992941577 -0.0004418002770441364
v 0.00021693830284680773 -0.005522013529631625 -0.0003665190029781832
v -0.0017450696845861425 -0.005749960848669158 -0.0006030433258232017
v -0.003622350011121129 -0.005407064316204335 -0.0011648480640511576
v -0.004907953690769066 -0.0038890376504513865 -0.0011789989503468595
v -0.005165807759666028 -0.0019187550751448815 -0.0012734988520716833
v -0.005434582739489447 5.142624685093974e-05 -0.0013330422196175928
v -0.005068320161425986 0.0020067365605239444 -0.0013344816903071485
v -0.003978084072293126 0.0036706995488732384 -0.001336184525197404
v -0.0024063609183392932 0.004890134308080999 -0.0013437563058480279
v -0.0004886526292124922 0.00541913966829396 -0.0013424490114822278
v 0.0014925638119915978 0.005239677843328243 -0.0013419640301779747
v 0.0032643856937028095 0.004335252586445092 -0.0013429807960300365
v 0.004612568319933285 0.002872445794442791 -0.0013433309778596212
v 0.005348204123714423 0.0010241381384283501 -0.0013419483125387537
v 0.005356814285804837 -0.000965181398992702 -0.0013411565019983548
v 0.004644659855039708 -0.0028226647665885053 -0.0013424711448963822
v 0.003311455516164311 -0.004299160180962843 -0.001342286746056449
v 0.0015452156304609328 -0.005214465555049081 -0.0013347712808816782
v -0.0004307124268763245 -0.005444809640520869 -0.001336276028102306
v -0.00233912037144197 -0.004883221661787947 -0.001338606256784745
v -0.003914540243481762 -0.0037822792922969574 -0.000825342490098046
v -0.004950654665588403 -0.0021850103230122895 -0.00024862336339419376
v -0.005429050212411555 -0.0002986602485931321 0.00016396056840386756
v -0.005182590451138502 0.0016649590107666317 0.0003661801290375638
v -0.0042377390012748335 0.003414257679557449 0.00043367230343132067
v -0.0027276253895611832 0.004709186210350311 0.0004471686319487373
v -0.0008446309096696623 0.005350853927213411 0.0004472292913115556
v 0.001053140105963863 0.005329819752527132 0.00044689758747063873
v 0.0029067535294456715 0.0046076412458311245 0.0004479634385167791
v 0.004361098802376533 0.003250309496753634 0.0004450579207171444
v 0.005241269672213698 0.001466306319723841 0.00044524206013502157
v 0.0053920932526982275 -0.0005117204405194685 0.00044649602863158143
v 0.00487878440107185 -0.002433686754077688 0.0004466201406111638
v 0.003665804920203442 -0.00401040734911352 0.0004465392650853688
v 0.0020465195178440685 -0.005165992648298764 0.00045230889034472135
v 0.0003376427750693622 -0.005950732415694193 0.0004401466379291159
v -0.00147123966043842 -0.006652794037293948 1.4758278571861735e-06
v -0.0032120715598412883 -0.005690208916175469 2.077825232796625e-05
v -0.0018649027257778856 -0.005050903082240804 0.001337495656665859
v -2.864815911232231e-05 -0.005493594030109923 0.0013260541569079577
v 0.0019129087247224822 -0.005060415886593486 0.001338229895936284
v 0.003640140746998009 -0.004073491865194844 0.0013425147601322921
v 0.004843402512825896 -0.0024893192458528336 0.0013420260363986804
v 0.005396570405517579 -0.0005784423844215894 0.0013416399141399633
v 0.005258419756787653 0.001321229857892709 0.0013392579075394721
v 0.004442545877172071 0.003135559559272644 0.0013399859002899087
v 0.0030271195484366693 0.004533417774608236 0.0013434546248529522
v 0.0011897597758968085 0.005295972981743596 0.0013421530489736851
v -0.000670049737543636 0.005397144903155473 0.0013426223118004575
v -0.002560726322351235 0.004778445523550244 0.001343089561890204
v -0.004121868637426464 0.003545488246930967 0.0013350208225304174
v -0.005130564235731615 0.0018315356363428831 0.0012864748867818098
v -0.005427098728549255 -0.00012554446286835565 0.0010880358978615405
v -0.005191131053530164 -0.0016297238669242102 0.0009140884467827312
v -0.004130411879735156 -0.0036267212396098344 0.00018517564627594684
v -0.00262720343795143 -0.004690511063301235 -0.00031568838976611587
v -0.0012114902844093701 -0.005592463590072905 0.00045024643627224637
v -0.002464160766481644 -0.0064401856547687784 0.0011863837769372323
v -0.00394785282226807 -0.005188442091035771 0.0011657727266866263
v -0.0044632732614665535 -0.003958856169032287 0.0012023040766100095
l 2 1
l 3 2
l 4 3
l 5 4
l 6 5
l 7 6
l 8 7
l 9 8
l 10 9
l 11 10
l 12 11
l 13 12
l 14 13
l 15 14
l 16 15
l 17 16
l 18 17
l 19 18
l 20 19
l 21 20
l 22 21
l 23 22
l 24 23
l 25 24
l 26 25
l 27 26
l 28 27
l 29 28
l 30 29
l 31 30
l 32 31
l 33 32
l 34 33
l 35 34
l 36 35
l 37 36
l 38 37
l 39 38
l 40 39
l 41 40
l 42 41
l 43 42
l 44 43
l 45 44
l 46 45
l 47 46
l 48 47
l 49 48
l 50 49
l 51 50
l 52 51
l 53 52
l 54 53
l 55 54
l 56 55
l 57 56
l 58 57
l 59 58
l 60 59
l 61 60
l 62 61
l 63 62
l 64 63
l 65 64
l 66 65
l 67 66
l 68 67
l 69 68
l 70 69
l 71 70
l 72 71
l 73 72
l 74 73
l 75 74
l 76 75
l 77 76
l 78 77
l 79 78
l 80 79
l 81 80
l 82 81
l 83 82
l 84 83
l 85 84
l 86 85
l 87 86
l 88 87
l 89 88
l 90 89
l 91 90
l 92 91
l 93 92
l 94 93
l 95 94
l 96 95
l 97 96
l 98 97
l 99 98
l 100 99
l 101 100
l 102 101
l 103 102
l 104 103
l 105 104
l 106 105
l 107 106
l 108 107
l 109 108
l 110 109
l 111 110
l 112 111
l 113 112
l 114 113
l 108 114
