#
# File generated by Libuipc
# Vertices 150
# Edges 150
# Faces 0
#
v 0.009439732733243654 0.06602633386950646 0.0011310456905679377
v 0.009408863071343122 0.064030598070315 0.0011320946702090546
v 0.009379225001647623 0.06203485944349889 0.0011331153448497625
v 0.009356567260035307 0.06003901339347038 0.0011340481125612196
v 0.009326218822271741 0.05804326759831272 0.001135122706315614
v 0.009304434487905255 0.05604741238283537 0.0011360190660930705
v 0.00928458917175502 0.054051550109319293 0.001136891102824207
v 0.009267156944046187 0.05205565167937563 0.0011377195249449397
v 0.0092535710135333 0.05005972192190189 0.0011385034520170758
v 0.009243957058155627 0.04806378457382058 0.0011392587192902077
v 0.009236349433722457 0.04606782392036317 0.0011399806899928182
v 0.009230822430256226 0.044071854814957866 0.0011406640612918175
v 0.009192335878980707 0.042076267247315974 0.001142186397502418
v 0.009156839396177452 0.040080609910418376 0.0011432662289799591
v 0.009118806028013099 0.03808499833255479 0.0011446844869207056
v 0.009080959630693471 0.0360891994967591 0.0011462108160006398
v 0.009023361348935893 0.0340940552497298 0.0011471859836588267
v 0.008715418879767197 0.03211996579970404 0.0011454843173189296
v 0.008694314626326317 0.030123976121688694 0.0011493272194350388
v 0.008659320523075015 0.028128307321111195 0.001152374095389331
v 0.008623079247759948 0.02613267490391705 0.0011537840730955731
v 0.008614278852835201 0.02413664452801731 0.0011535268387187188
v 0.008357762126705146 0.022157219012150328 0.001136972746485536
v 0.008319912869236258 0.020161592965149588 0.00113966741421581
v 0.008268560496099446 0.018165975800752337 0.0011264259038237239
v 0.00826044188450247 0.01617002028702482 0.0011305452064336106
v 0.008218968536945915 0.014174457377693656 0.0011367982156073038
v 0.007878909460787958 0.012207592915730307 0.0011362687347003595
v 0.007849990137982807 0.010211751595321297 0.0011399820915025147
v 0.007819054607559543 0.008215960282283795 0.0011426449744341195
v 0.007769951465516824 0.006220073498005211 0.0011578826940591253
v 0.007712045067581981 0.004225521182032788 0.0012060292828825188
v 0.007637539070228024 0.002231736760811304 0.0012693170697161405
v 0.007573278266466461 0.0002377755091262874 0.001332185140633787
v 0.007113714380406021 -0.0017045892771352469 0.0013067792657546838
v 0.00597386426943793 -0.0033367027475996523 0.0011614797702726182
v 0.004508091351067577 -0.004691377781020892 0.0011786113167740822
v 0.002773503002034726 -0.005672449366948971 0.0010665472110564845
v 0.000856288492065892 -0.006211275954455634 0.0009326414569005745
v -0.001138781493523516 -0.006151686254958962 0.0009314377390464902
v -0.0030256450910791832 -0.005502215823397848 0.0008885032403998335
v -0.0046002224470365095 -0.004275606172874555 0.0008813806657981695
v -0.005713453987067988 -0.0026189470059116765 0.0008881216366027571
v -0.0062535830868389744 -0.0006974439395294918 0.0008931475026492189
v -0.006158816246840584 0.0012962788418272675 0.0008962934248195213
v -0.005442624096258401 0.0031591275539053307 0.0009232959789268214
v -0.004157202072995542 0.004686085899708489 0.0009202983255101681
v -0.002460373227204346 0.005737125921114907 0.0009185509275572966
v -0.0005320045162381126 0.006251816209872358 0.0009002779134806781
v 0.001458517576042238 0.006104891342961227 0.0008882821457640242
v 0.0032849523028473785 0.005299916351832162 0.0008805595380975885
v 0.004849445594137803 0.004068933718740597 0.00073602901387517
v 0.006217249793515832 0.0026449910464753793 0.0004436805250371732
v 0.007279956878714501 0.0009585651148866713 0.0003413194162769994
v 0.006955648072645653 -0.001006466529507404 0.00047330204970211627
v 0.005782372478124087 -0.0026205707424523795 0.00042857459822187084
v 0.004680752258869401 -0.004279549999559751 0.0002937201327771743
v 0.0031592399320084174 -0.005567280145955092 0.00019053863084779745
v 0.0012603562181976653 -0.006143410843182336 -2.4360671723200074e-05
v -0.0007346884605759219 -0.006198913813809321 -1.5732841142510837e-07
v -0.002656257180989138 -0.005659028432794112 -4.851034531552007e-06
v -0.004311344557448585 -0.004543475801567878 -1.7498691442876148e-05
v -0.005555074343791375 -0.0029823972814769107 -1.1705017109887513e-05
v -0.0062128443477522804 -0.00109793950288463 -6.445935694781807e-06
v -0.006229732270877251 0.0008979636904801767 -3.0105678165705662e-06
v -0.005632968861310086 0.0028026308594323113 -9.597322123285688e-06
v -0.004430273350666381 0.004395366897306199 -3.372802795046376e-05
v -0.002814088224215207 0.005565347529429738 2.0672427826587533e-05
v -0.0009210836370962766 0.006197953366359699 6.141748650419677e-06
v 0.0010744582439870679 0.00616598398364444 -2.0071599888869717e-05
v 0.0030115022247901037 0.005685084822692893 1.440245503871421e-06
v 0.004777627761201257 0.004755210322020176 -6.217277220039667e-06
v 0.006211548510924847 0.0033992105365993077 -0.0003046516453178137
v 0.007027708560832062 0.0016035981687094474 -0.0006105726867487546
v 0.007092394911345973 -0.00039125523757830964 -0.0006241206658887665
v 0.00647007194308089 -0.002272329885702543 -0.00038288802903615495
v 0.005078261312146326 -0.003687745867317513 -0.0005912054553995937
v 0.00333426176536038 -0.004650761052812983 -0.0004687574087429508
v 0.0014340350448029623 -0.005261105575269895 -0.0004467750463881395
v -0.0005561122448285259 -0.005413326136304312 -0.00044831907857854306
v -0.002468510038350754 -0.004841845768045212 -0.0004475168834809988
v -0.004043449282157265 -0.003615679807319325 -0.0004474824786848241
v -0.005095929744388019 -0.0019197606406016346 -0.0004478772806859223
v -0.005440620305068212 4.622649442733595e-05 -0.00044716612719344727
v -0.00506192850764085 0.0020059331573137225 -0.0004481088328807948
v -0.003973357869420989 0.003678915156249357 -0.0004468594206043404
v -0.002392511720057383 0.004897455566778555 -0.0004481001542114076
v -0.0004639818041236194 0.005411934374545261 -0.0004474626976454062
v 0.0015248674084481812 0.005243416314499219 -0.00044797344096551996
v 0.003409547405631952 0.004586456715090308 -0.00043545669529484126
v 0.005050249961720793 0.0034767367395000808 -0.000681622373320654
v 0.006192546621503215 0.0019117535857762608 -0.0011610441864694915
v 0.006373798535031309 -7.590683874509245e-05 -0.0011757201040838645
v 0.0060208310956286395 -0.0020403558151537824 -0.0011591714880409877
v 0.004583527236518626 -0.0034141556025498346 -0.0013341992301246827
v 0.002951386691524916 -0.00456309639907092 -0.0013400840921898344
v 0.0011109011053118275 -0.005335412194601859 -0.0013417840225148244
v -0.0008850501705341602 -0.005341388019476855 -0.0013435900937246374
v -0.0027719745265908347 -0.004690670339542745 -0.0013424981904791443
v -0.004270309767891695 -0.003371993132732684 -0.0013421901064103717
v -0.005206125588573988 -0.00160901984543066 -0.0013431700721972502
v -0.005411573972911828 0.00037633775848615076 -0.0013419661581491771
v -0.004921766368224667 0.002311295018501381 -0.001343219565878914
v -0.003763518109438096 0.003936813786759023 -0.001341476943490968
v -0.0020921135867252717 0.00502780139412218 -0.0013436752348632269
v -0.00013845008450848165 0.005436594409808204 -0.0013425701323259204
v 0.001829819215671375 0.005105377059171648 -0.0013413061029879814
v 0.0035677374839759037 0.004123807572608229 -0.001337901508270275
v 0.004794558036033937 0.002549371329017315 -0.0013324320961490294
v 0.005420834514942766 0.0006542185740468377 -0.0013374235217320652
v 0.0052370488534623175 -0.0013270991550235894 -0.0011811529316465928
v 0.004559094214181323 -0.0029237084521146913 -0.0001936325561280416
v 0.003276921306267761 -0.004319047313860455 0.00043319744663378515
v 0.0015049404352844157 -0.005237580190937822 0.00044858135840387784
v -0.0004832045833517632 -0.005414192403859558 0.0004475105836651268
v -0.002409061187479084 -0.004889855160688127 0.0004482688593401691
v -0.0039848548759586705 -0.003664789000137483 0.000447806237625802
v -0.005022502424007387 -0.002070679959928139 0.00044772045095670045
v -0.0054445284035427146 -0.00011985249840383513 0.0004482435752113885
v -0.005119357921088309 0.0018494522751308765 0.0004477337255951294
v -0.004101464863358551 0.0035663453658425 0.00044801896148314213
v -0.002579174511253889 0.004763010560591156 0.0004471908542878309
v -0.0006886198360131504 0.005403133806946932 0.0004481365433505125
v 0.0013053903992823516 0.005315037945563417 0.00044837033281160035
v 0.0030957331205127736 0.004432697552644435 0.0004387118666282457
v 0.0046232021095247286 0.003247103795363778 0.00014462220944564403
v 0.00597864524479284 0.0018351953046513208 -0.00024669371258476537
v 0.006357076735171105 -0.00011859588938289631 -9.357172330555558e-05
v 0.005303794788668921 0.000787292480713677 0.0013395186728834784
v 0.004842290848787366 0.0026375100774354908 0.0013320632331341716
v 0.0035487526832600393 0.004157608276118296 0.0013344185327437167
v 0.0017949676726595034 0.005110507237024596 0.0013413355396120923
v -0.00017305975745770353 0.005443182561405636 0.0013429200695965807
v -0.0021212282817206704 0.005008920785905221 0.001343133692511685
v -0.003708684597437901 0.003986082031431915 0.0013415502559559894
v -0.004894580672799949 0.002380626642052542 0.0013430006971960982
v -0.005418605302959987 0.00045469261339586587 0.0013420345410628143
v -0.005213476781926241 -0.0015306907508157938 0.0013430115410208682
v -0.004381272399364015 -0.003216366080541571 0.0013420879609329025
v -0.002935159613587466 -0.0045920741521206145 0.0013427160360292036
v -0.0010803415365132987 -0.005329274647124437 0.0013428509608376443
v 0.0009154880881186814 -0.005353587794460329 0.0013420953351232574
v 0.002790368124790904 -0.0046690275099642705 0.0013380041453675056
v 0.003977793433110119 -0.0036495354138499554 0.0013329644695703948
v 0.005158976810735681 -0.00194818177240012 0.00020337086956514856
v 0.005364592998446854 -0.00014844585592548466 -0.000375547332987024
v 0.005223418516733723 0.0015546737752182272 0.0003349832616435929
v 0.0066251353284829334 0.0011634003527087797 0.0011767035518353282
v 0.006425662672447257 -0.0007671348190497748 0.0011674082643694096
v 0.005718996156756267 -0.0019110548812443448 0.00120959402346806
l 2 1
l 3 2
l 4 3
l 5 4
l 6 5
l 7 6
l 8 7
l 9 8
l 10 9
l 11 10
l 12 11
l 13 12
l 14 13
l 15 14
l 16 15
l 17 16
l 18 17
l 19 18
l 20 19
l 21 20
l 22 21
l 23 22
l 24 23
l 25 24
l 26 25
l 27 26
l 28 27
l 29 28
l 30 29
l 31 30
l 32 31
l 33 32
l 34 33
l 35 34
l 36 35
l 37 36
l 38 37
l 39 38
l 40 39
l 41 40
l 42 41
l 43 42
l 44 43
l 45 44
l 46 45
l 47 46
l 48 47
l 49 48
l 50 49
l 51 50
l 52 51
l 53 52
l 54 53
l 55 54
l 56 55
l 57 56
l 58 57
l 59 58
l 60 59
l 61 60
l 62 61
l 63 62
l 64 63
l 65 64
l 66 65
l 67 66
l 68 67
l 69 68
l 70 69
l 71 70
l 72 71
l 73 72
l 74 73
l 75 74
l 76 75
l 77 76
l 78 77
l 79 78
l 80 79
l 81 80
l 82 81
l 83 82
l 84 83
l 85 84
l 86 85
l 87 86
l 88 87
l 89 88
l 90 89
l 91 90
l 92 91
l 93 92
l 94 93
l 95 94
l 96 95
l 97 96
l 98 97
l 99 98
l 100 99
l 101 100
l 102 101
l 103 102
l 104 103
l 105 104
l 106 105
l 107 106
l 108 107
l 109 108
l 110 109
l 111 110
l 112 111
l 113 112
l 114 113
l 115 114
l 116 115
l 117 116
l 118 117
l 119 118
l 120 119
l 121 120
l 122 121
l 123 122
l 124 123
l 125 124
l 126 125
l 127 126
l 128 127
l 129 128
l 130 129
l 131 130
l 132 131
l 133 132
l 134 133
l 135 134
l 136 135
l 137 136
l 138 137
l 139 138
l 140 139
l 141 140
l 142 141
l 143 142
l 144 143
l 145 144
l 146 145
l 147 146
l 148 147
l 149 148
l 150 149
l 144 150
