# File exported by Houdini 20.5.445 (www.sidefx.com)
# 150 points
# 720 vertices
# 240 primitives
# Bounds: [-0.613606811, 1.04421628, -0.064930439] to [-0.524957716, 1.13304055, 0.177762359]
g 
v -0.556622505 1.09668374 0.163089454
v -0.56181848 1.10188007 0.163089454
v -0.5689165 1.0895865 0.163089439
v -0.554720581 1.0895865 0.163089454
v -0.556622505 1.0824883 0.163089454
v -0.56181848 1.07729197 0.163089454
v -0.5689165 1.07539034 0.163089439
v -0.576014519 1.07729197 0.163089439
v -0.581210494 1.0824883 0.163089454
v -0.583112359 1.0895865 0.163089424
v -0.581210494 1.09668374 0.163089454
v -0.576014459 1.10188007 0.163089439
v -0.5689165 1.1037817 0.163089439
v -0.56181848 1.10188031 -0.0649304166
v -0.556622505 1.09668374 -0.064930439
v -0.5689165 1.0895865 -0.0649304315
v -0.554720581 1.0895865 -0.064930439
v -0.556622505 1.08248842 -0.064930439
v -0.56181848 1.07729197 -0.0649304166
v -0.5689165 1.07539034 -0.0649304315
v -0.576014519 1.07729197 -0.064930439
v -0.581210494 1.08248842 -0.064930439
v -0.583112359 1.0895865 -0.064930439
v -0.581210494 1.09668374 -0.064930439
v -0.576014459 1.10188031 -0.064930439
v -0.5689165 1.10378182 -0.0649304315
v -0.554722071 1.11417198 0.149993718
v -0.544331074 1.10378027 0.149993718
v -0.544331074 1.10378027 -0.0518346988
v -0.554722071 1.11417198 -0.0518346988
v -0.540527642 1.0895865 0.149993777
v -0.540527642 1.0895865 -0.0518346988
v -0.544331014 1.07539201 0.149993718
v -0.544331014 1.07539201 -0.0518346988
v -0.554722071 1.06500077 0.149993718
v -0.554722071 1.06500089 -0.0518346988
v -0.56891644 1.06119728 0.149993733
v -0.56891644 1.06119716 -0.0518347286
v -0.56891644 1.06119728 0.149993733
v -0.583110869 1.06500077 0.149993718
v -0.583110869 1.06500089 -0.0518347584
v -0.56891644 1.06119716 -0.0518347286
v -0.593501925 1.07539201 0.149993718
v -0.593501925 1.07539201 -0.0518346988
v -0.597305298 1.0895865 0.149993658
v -0.597305298 1.0895865 -0.0518346988
v -0.593501925 1.10378027 0.149993718
v -0.593501925 1.10378027 -0.0518346988
v -0.583110929 1.11417198 0.149993718
v -0.583110929 1.11417198 -0.0518347584
v -0.56891644 1.11797476 0.149993733
v -0.56891644 1.11797476 -0.0518347286
v -0.554722071 1.11417198 0.149993718
v -0.556800485 1.11057115 0.156860501
v -0.547931075 1.1017015 0.15686053
v -0.544331074 1.10378027 0.149993718
v -0.544684649 1.0895865 0.156860471
v -0.540527642 1.0895865 0.149993777
v -0.547931135 1.07747054 0.15686053
v -0.544331014 1.07539201 0.149993718
v -0.556800604 1.06860089 0.156860501
v -0.554722071 1.06500077 0.149993718
v -0.5689165 1.06535459 0.156860515
v -0.56891644 1.06119728 0.149993733
v -0.581032395 1.06860089 0.156860501
v -0.583110869 1.06500077 0.149993718
v -0.589901805 1.07747054 0.15686053
v -0.593501925 1.07539201 0.149993718
v -0.593148291 1.0895865 0.156860501
v -0.597305298 1.0895865 0.149993658
v -0.589901805 1.1017015 0.15686053
v -0.593501925 1.10378027 0.149993718
v -0.581032395 1.11057115 0.156860501
v -0.583110929 1.11417198 0.149993718
v -0.56891644 1.11381793 0.156860515
v -0.56891644 1.11797476 0.149993733
v -0.554722071 1.11417198 -0.0518346988
v -0.556800485 1.11057115 -0.0587014891
v -0.56891644 1.11381769 -0.0587014817
v -0.56891644 1.11797476 -0.0518347286
v -0.547931075 1.10170162 -0.0587015189
v -0.544331074 1.10378027 -0.0518346988
v -0.544684649 1.0895865 -0.0587015189
v -0.540527642 1.0895865 -0.0518346988
v -0.547931135 1.07747054 -0.0587015189
v -0.544331014 1.07539201 -0.0518346988
v -0.556800604 1.06860113 -0.0587014891
v -0.554722071 1.06500089 -0.0518346988
v -0.5689165 1.06535447 -0.0587014817
v -0.56891644 1.06119716 -0.0518347286
v -0.581032395 1.06860113 -0.0587014593
v -0.583110869 1.06500089 -0.0518347584
v -0.589901805 1.07747054 -0.0587014593
v -0.593501925 1.07539201 -0.0518346988
v -0.593148291 1.0895865 -0.0587014593
v -0.597305298 1.0895865 -0.0518346988
v -0.589901805 1.10170162 -0.0587014593
v -0.593501925 1.10378027 -0.0518346988
v -0.581032395 1.11057115 -0.0587014593
v -0.583110929 1.11417198 -0.0518347584
v -0.524957716 1.08862841 0.147762358
v -0.526355743 1.07756174 0.147762358
v -0.530462086 1.06719041 0.147762358
v -0.537018597 1.05816603 0.147762358
v -0.545613408 1.05105579 0.147762358
v -0.555706441 1.04630637 0.147762358
v -0.566663563 1.04421628 0.147762358
v -0.577796161 1.04491663 0.147762358
v -0.588404894 1.04836357 0.147762358
v -0.597823083 1.0543406 0.147762358
v -0.605458975 1.06247199 0.147762358
v -0.610832751 1.07224691 0.147762358
v -0.613606811 1.08305109 0.147762358
v -0.613606811 1.09420574 0.147762358
v -0.610832751 1.10500991 0.147762358
v -0.605458975 1.11478484 0.147762358
v -0.597823083 1.12291622 0.147762358
v -0.588404894 1.12889326 0.147762358
v -0.577796161 1.13234019 0.147762358
v -0.566663504 1.13304055 0.147762358
v -0.555706441 1.13095045 0.147762358
v -0.545613408 1.12620103 0.147762358
v -0.537018597 1.1190908 0.147762358
v -0.530462027 1.11006641 0.147762358
v -0.526355743 1.09969509 0.147762358
v -0.524957716 1.08862841 0.177762359
v -0.526355743 1.07756174 0.177762359
v -0.530462086 1.06719041 0.177762359
v -0.537018597 1.05816603 0.177762359
v -0.545613408 1.05105579 0.177762359
v -0.555706441 1.04630637 0.177762359
v -0.566663563 1.04421628 0.177762359
v -0.577796161 1.04491663 0.177762359
v -0.588404894 1.04836357 0.177762359
v -0.597823083 1.0543406 0.177762359
v -0.605458975 1.06247199 0.177762359
v -0.610832751 1.07224691 0.177762359
v -0.613606811 1.08305109 0.177762359
v -0.613606811 1.09420574 0.177762359
v -0.610832751 1.10500991 0.177762359
v -0.605458975 1.11478484 0.177762359
v -0.597823083 1.12291622 0.177762359
v -0.588404894 1.12889326 0.177762359
v -0.577796161 1.13234019 0.177762359
v -0.566663504 1.13304055 0.177762359
v -0.555706441 1.13095045 0.177762359
v -0.545613408 1.12620103 0.177762359
v -0.537018597 1.1190908 0.177762359
v -0.530462027 1.11006641 0.177762359
v -0.526355743 1.09969509 0.177762359
vn 0.354883671 0.204897344 0.912181377
vn 0.204897627 0.354888022 0.91217953
vn -1.89999994e-07 0 1
vn 0.409787476 -4.70000003e-07 0.912181079
vn 0.354887366 -0.204888165 0.912181914
vn 0.204895869 -0.35488978 0.912179291
vn -9.40000007e-07 -0.409785897 0.912181735
vn -0.204894423 -0.354888946 0.912180007
vn -0.35488686 -0.20488809 0.912182093
vn -0.409787387 7.79999993e-07 0.912181139
vn -0.354885131 0.204901531 0.912179768
vn -0.204900652 0.354892194 0.912177265
vn -1.33000003e-06 0.409784287 0.91218257
vn 0.204899102 0.354894549 -0.912176609
vn 0.354884565 0.204897285 -0.91218096
vn 4.3e-07 0 -1
vn 0.409787536 -9.40000007e-07 -0.912181079
vn 0.354884773 -0.204888746 -0.912182868
vn 0.204898506 -0.354890317 -0.912178457
vn -9.99999994e-09 -0.409786135 -0.912181675
vn -0.204900816 -0.3548944 -0.91217643
vn -0.354891121 -0.204891458 -0.912179708
vn -0.409791082 8.39999984e-07 -0.91217953
vn -0.354888618 0.20490092 -0.912178576
vn -0.204902187 0.354898274 -0.912174523
vn -4.00000005e-07 0.409792781 -0.912178755
vn 0.499930501 0.865899503 0.0169641897
vn 0.865900993 0.49992767 0.0169637296
vn 0.865900874 0.499927908 -0.0169636905
vn 0.499930233 0.865899503 -0.0169643499
vn 0.999856174 1.24999997e-06 0.0169633292
vn 0.999856174 1.24999997e-06 -0.0169633105
vn 0.865902722 -0.499924719 0.0169634502
vn 0.865902603 -0.499925047 -0.0169636309
vn 0.499937683 -0.865895331 0.0169637408
vn 0.499937743 -0.865895271 -0.0169638805
vn -1.00000001e-07 -0.999856174 0.0169638097
vn -3.79999989e-07 -0.999856174 -0.0169638097
vn -1.00000001e-07 -0.999856174 0.0169638097
vn -0.499937505 -0.865895391 0.0169635899
vn -0.499937534 -0.865895331 -0.0169639494
vn -3.79999989e-07 -0.999856174 -0.0169638097
vn -0.865902066 -0.499926001 0.01696348
vn -0.865902007 -0.49992615 -0.0169635396
vn -0.999856174 0 0.0169632901
vn -0.999856174 9.99999994e-09 -0.0169634297
vn -0.865901291 0.499927163 0.0169641804
vn -0.865901291 0.499927193 -0.0169640593
vn -0.499929845 0.865899742 0.0169646908
vn -0.499929637 0.865899861 -0.0169648398
vn -1.00000001e-07 0.999856174 0.0169648491
vn -4.3e-07 0.999856114 -0.0169652402
vn 0.499930501 0.865899503 0.0169641897
vn 0.362280816 0.627463579 0.689233005
vn 0.627475083 0.362276465 0.68922478
vn 0.865900993 0.49992767 0.0169637296
vn 0.724550545 -8.29999976e-07 0.68922174
vn 0.999856174 1.24999997e-06 0.0169633292
vn 0.627481699 -0.362271667 0.689221323
vn 0.865902722 -0.499924719 0.0169634502
vn 0.362278551 -0.627477288 0.68922174
vn 0.499937683 -0.865895331 0.0169637408
vn -8.10000017e-07 -0.72454989 0.689222455
vn -1.00000001e-07 -0.999856174 0.0169638097
vn -0.36227867 -0.627477705 0.689221263
vn -0.499937505 -0.865895391 0.0169635899
vn -0.627483308 -0.362269312 0.689221144
vn -0.865902066 -0.499926001 0.01696348
vn -0.724551857 -1.50000005e-07 0.689220369
vn -0.999856174 0 0.0169632901
vn -0.627473772 0.362276167 0.689226151
vn -0.865901291 0.499927163 0.0169641804
vn -0.362278998 0.627462149 0.68923521
vn -0.499929845 0.865899742 0.0169646908
vn 3.00000011e-07 0.724539161 0.689233661
vn -1.00000001e-07 0.999856174 0.0169648491
vn 0.499930233 0.865899503 -0.0169643499
vn 0.362279326 0.627466679 -0.689230919
vn 2.79999995e-07 0.724542379 -0.689230263
vn -4.3e-07 0.999856114 -0.0169652402
vn 0.627478123 0.362278908 -0.689220786
vn 0.865900874 0.499927908 -0.0169636905
vn 0.724551678 -9.69999974e-07 -0.689220548
vn 0.999856174 1.24999997e-06 -0.0169633105
vn 0.627479196 -0.36227271 -0.689223051
vn 0.865902603 -0.499925047 -0.0169636309
vn 0.362281621 -0.62747252 -0.689224422
vn 0.499937743 -0.865895271 -0.0169638805
vn -2.69999987e-07 -0.724548995 -0.689223349
vn -3.79999989e-07 -0.999856174 -0.0169638097
vn -0.362281471 -0.627473712 -0.689223468
vn -0.499937534 -0.865895331 -0.0169639494
vn -0.627480507 -0.362271518 -0.689222455
vn -0.865902007 -0.49992615 -0.0169635396
vn -0.724550605 7.99999995e-08 -0.689221621
vn -0.999856174 9.99999994e-09 -0.0169634297
vn -0.627474248 0.362277597 -0.689225018
vn -0.865901291 0.499927193 -0.0169640593
vn -0.362276852 0.627466857 -0.689232051
vn -0.499929637 0.865899861 -0.0169648398
vn 0.733253419 0 -0.679955482
vn 0.710217476 -0.182353601 -0.679954588
vn 0.64255476 -0.353246391 -0.679956138
vn 0.534520864 -0.501945615 -0.67995435
vn 0.392896742 -0.61910677 -0.679955125
vn 0.226585373 -0.697367311 -0.67995435
vn 0.0460401326 -0.731805682 -0.679956317
vn -0.137394935 -0.720266402 -0.679955065
vn -0.312205017 -0.66346848 -0.679954112
vn -0.467394412 -0.564980149 -0.679955781
vn -0.593215406 -0.430995405 -0.679954827
vn -0.681761861 -0.269928217 -0.679955542
vn -0.727471948 -0.0919016898 -0.679955006
vn -0.727471948 0.0919016898 -0.679955006
vn -0.681761861 0.269928217 -0.679955542
vn -0.593215406 0.430995405 -0.679954827
vn -0.467394412 0.564980149 -0.679955781
vn -0.312205017 0.66346848 -0.679954112
vn -0.137394831 0.720266402 -0.679955006
vn 0.0460406281 0.731805682 -0.679956198
vn 0.226585656 0.697367072 -0.679954469
vn 0.392896742 0.61910677 -0.679955125
vn 0.534519494 0.501946568 -0.679954886
vn 0.642555714 0.353246629 -0.679955244
vn 0.710217476 0.182351723 -0.679955065
vn 0.733253419 0 0.679955482
vn 0.710217476 -0.182353601 0.679954588
vn 0.64255476 -0.353246391 0.679956138
vn 0.534520864 -0.501945615 0.67995435
vn 0.392896742 -0.61910677 0.679955125
vn 0.226585373 -0.697367311 0.67995435
vn 0.0460401326 -0.731805682 0.679956317
vn -0.137394935 -0.720266402 0.679955065
vn -0.312205017 -0.66346848 0.679954112
vn -0.467394412 -0.564980149 0.679955781
vn -0.593215406 -0.430995405 0.679954827
vn -0.681761861 -0.269928217 0.679955542
vn -0.727471948 -0.0919016898 0.679955006
vn -0.727471948 0.0919016898 0.679955006
vn -0.681761861 0.269928217 0.679955542
vn -0.593215406 0.430995405 0.679954827
vn -0.467394412 0.564980149 0.679955781
vn -0.312205017 0.66346848 0.679954112
vn -0.137394831 0.720266402 0.679955006
vn 0.0460406281 0.731805682 0.679956198
vn 0.226585656 0.697367072 0.679954469
vn 0.392896742 0.61910677 0.679955125
vn 0.534519494 0.501946568 0.679954886
vn 0.642555714 0.353246629 0.679955244
vn 0.710217476 0.182351723 0.679955065
g 
f 1//1 2//2 3//3
f 4//4 1//1 3//3
f 5//5 4//4 3//3
f 6//6 5//5 3//3
f 7//7 6//6 3//3
f 8//8 7//7 3//3
f 9//9 8//8 3//3
f 10//10 9//9 3//3
f 11//11 10//10 3//3
f 12//12 11//11 3//3
f 13//13 12//12 3//3
f 2//2 13//13 3//3
f 14//14 15//15 16//16
f 15//15 17//17 16//16
f 17//17 18//18 16//16
f 18//18 19//19 16//16
f 19//19 20//20 16//16
f 20//20 21//21 16//16
f 21//21 22//22 16//16
f 22//22 23//23 16//16
f 23//23 24//24 16//16
f 24//24 25//25 16//16
f 25//25 26//26 16//16
f 26//26 14//14 16//16
f 27//27 28//28 29//29
f 27//27 29//29 30//30
f 28//28 31//31 32//32
f 28//28 32//32 29//29
f 31//31 33//33 34//34
f 31//31 34//34 32//32
f 33//33 35//35 36//36
f 33//33 36//36 34//34
f 35//35 37//37 38//38
f 35//35 38//38 36//36
f 39//39 40//40 41//41
f 39//39 41//41 42//42
f 40//40 43//43 44//44
f 40//40 44//44 41//41
f 43//43 45//45 46//46
f 43//43 46//46 44//44
f 45//45 47//47 48//48
f 45//45 48//48 46//46
f 47//47 49//49 50//50
f 47//47 50//50 48//48
f 49//49 51//51 52//52
f 49//49 52//52 50//50
f 51//51 27//27 30//30
f 51//51 30//30 52//52
f 53//53 54//54 55//55
f 53//53 55//55 56//56
f 54//54 2//2 1//1
f 54//54 1//1 55//55
f 56//56 55//55 57//57
f 56//56 57//57 58//58
f 55//55 1//1 4//4
f 55//55 4//4 57//57
f 58//58 57//57 59//59
f 58//58 59//59 60//60
f 57//57 4//4 5//5
f 57//57 5//5 59//59
f 60//60 59//59 61//61
f 60//60 61//61 62//62
f 59//59 5//5 6//6
f 59//59 6//6 61//61
f 62//62 61//61 63//63
f 62//62 63//63 64//64
f 61//61 6//6 7//7
f 61//61 7//7 63//63
f 64//64 63//63 65//65
f 64//64 65//65 66//66
f 63//63 7//7 8//8
f 63//63 8//8 65//65
f 66//66 65//65 67//67
f 66//66 67//67 68//68
f 65//65 8//8 9//9
f 65//65 9//9 67//67
f 68//68 67//67 69//69
f 68//68 69//69 70//70
f 67//67 9//9 10//10
f 67//67 10//10 69//69
f 70//70 69//69 71//71
f 70//70 71//71 72//72
f 69//69 10//10 11//11
f 69//69 11//11 71//71
f 72//72 71//71 73//73
f 72//72 73//73 74//74
f 71//71 11//11 12//12
f 71//71 12//12 73//73
f 74//74 73//73 75//75
f 74//74 75//75 76//76
f 73//73 12//12 13//13
f 73//73 13//13 75//75
f 2//2 54//54 75//75
f 2//2 75//75 13//13
f 54//54 53//53 76//76
f 54//54 76//76 75//75
f 77//77 78//78 79//79
f 77//77 79//79 80//80
f 78//78 14//14 26//26
f 78//78 26//26 79//79
f 14//14 78//78 81//81
f 14//14 81//81 15//15
f 78//78 77//77 82//82
f 78//78 82//82 81//81
f 15//15 81//81 83//83
f 15//15 83//83 17//17
f 81//81 82//82 84//84
f 81//81 84//84 83//83
f 17//17 83//83 85//85
f 17//17 85//85 18//18
f 83//83 84//84 86//86
f 83//83 86//86 85//85
f 18//18 85//85 87//87
f 18//18 87//87 19//19
f 85//85 86//86 88//88
f 85//85 88//88 87//87
f 19//19 87//87 89//89
f 19//19 89//89 20//20
f 87//87 88//88 90//90
f 87//87 90//90 89//89
f 20//20 89//89 91//91
f 20//20 91//91 21//21
f 89//89 90//90 92//92
f 89//89 92//92 91//91
f 21//21 91//91 93//93
f 21//21 93//93 22//22
f 91//91 92//92 94//94
f 91//91 94//94 93//93
f 22//22 93//93 95//95
f 22//22 95//95 23//23
f 93//93 94//94 96//96
f 93//93 96//96 95//95
f 23//23 95//95 97//97
f 23//23 97//97 24//24
f 95//95 96//96 98//98
f 95//95 98//98 97//97
f 24//24 97//97 99//99
f 24//24 99//99 25//25
f 97//97 98//98 100//100
f 97//97 100//100 99//99
f 25//25 99//99 79//79
f 25//25 79//79 26//26
f 99//99 100//100 80//80
f 99//99 80//80 79//79
f 113//113 111//111 112//112
f 138//138 140//140 139//139
f 101//101 127//127 102//102
f 102//102 128//128 103//103
f 103//103 129//129 104//104
f 104//104 130//130 105//105
f 105//105 131//131 106//106
f 106//106 132//132 107//107
f 107//107 133//133 108//108
f 108//108 134//134 109//109
f 109//109 135//135 110//110
f 110//110 136//136 111//111
f 111//111 137//137 112//112
f 112//112 138//138 113//113
f 113//113 139//139 114//114
f 114//114 140//140 115//115
f 115//115 141//141 116//116
f 116//116 142//142 117//117
f 117//117 143//143 118//118
f 118//118 144//144 119//119
f 119//119 145//145 120//120
f 120//120 146//146 121//121
f 121//121 147//147 122//122
f 122//122 148//148 123//123
f 123//123 149//149 124//124
f 124//124 150//150 125//125
f 125//125 126//126 101//101
f 126//126 125//125 150//150
f 150//150 124//124 149//149
f 149//149 123//123 148//148
f 148//148 122//122 147//147
f 147//147 121//121 146//146
f 146//146 120//120 145//145
f 145//145 119//119 144//144
f 144//144 118//118 143//143
f 143//143 117//117 142//142
f 142//142 116//116 141//141
f 141//141 115//115 140//140
f 140//140 114//114 139//139
f 139//139 113//113 138//138
f 138//138 112//112 137//137
f 137//137 111//111 136//136
f 136//136 110//110 135//135
f 135//135 109//109 134//134
f 134//134 108//108 133//133
f 133//133 107//107 132//132
f 132//132 106//106 131//131
f 131//131 105//105 130//130
f 130//130 104//104 129//129
f 129//129 103//103 128//128
f 128//128 102//102 127//127
f 127//127 101//101 126//126
f 126//126 150//150 127//127
f 127//127 150//150 128//128
f 128//128 150//150 149//149
f 128//128 149//149 129//129
f 129//129 149//149 148//148
f 129//129 148//148 130//130
f 130//130 148//148 147//147
f 130//130 147//147 131//131
f 131//131 147//147 146//146
f 131//131 146//146 132//132
f 132//132 146//146 145//145
f 132//132 145//145 133//133
f 133//133 145//145 144//144
f 133//133 144//144 134//134
f 134//134 144//144 143//143
f 134//134 143//143 135//135
f 135//135 143//143 142//142
f 135//135 142//142 136//136
f 136//136 142//142 141//141
f 136//136 141//141 137//137
f 137//137 141//141 140//140
f 137//137 140//140 138//138
f 125//125 101//101 124//124
f 124//124 101//101 123//123
f 123//123 101//101 102//102
f 123//123 102//102 122//122
f 122//122 102//102 103//103
f 122//122 103//103 121//121
f 121//121 103//103 104//104
f 121//121 104//104 120//120
f 120//120 104//104 105//105
f 120//120 105//105 119//119
f 119//119 105//105 106//106
f 119//119 106//106 118//118
f 118//118 106//106 107//107
f 118//118 107//107 117//117
f 117//117 107//107 108//108
f 117//117 108//108 116//116
f 116//116 108//108 109//109
f 116//116 109//109 115//115
f 115//115 109//109 110//110
f 115//115 110//110 114//114
f 114//114 110//110 111//111
f 114//114 111//111 113//113
