# File exported by Houdini 20.5.445 (www.sidefx.com)
# 554 points
# 3444 vertices
# 1148 primitives
# Bounds: [-0.768112063, -0.828398943, 0.0563368313] to [0.621797502, 0.561510324, 0.147706836]
g 
v -0.103300437 -0.136629999 0.0565919019
v -0.103300437 -0.133647993 0.0566438287
v -0.161382943 -0.134040713 0.0568257011
v -0.156880617 -0.161274552 0.0563368611
v -0.101683751 -0.142926604 0.0564770103
v 0.0105658202 -0.105614074 0.147706822
v -0.0450035632 -0.124085695 0.147565708
v -0.0467209294 -0.119748116 0.147565961
v 0.00518155005 -0.0928586721 0.147706822
v -0.0491720028 -0.115768954 0.147400916
v -0.0021319401 -0.0811042786 0.147217944
v -0.0472477935 -0.118417405 0.147516131
v -0.055667039 -0.109025247 0.147566587
v -0.0217819791 -0.0617169105 0.147706822
v -0.0516679361 -0.112333596 0.147474855
v -0.0336351991 -0.0545641184 0.147706822
v -0.0574621931 -0.107540168 0.147567421
v -0.0596601479 -0.106505886 0.147566825
v -0.0641146228 -0.104409769 0.147401899
v -0.0464612804 -0.0493515693 0.147217944
v -0.0737536028 -0.0452178717 0.147706822
v -0.0716532841 -0.102929205 0.147537708
v -0.0733628422 -0.103036761 0.147567496
v -0.0781347081 -0.103336982 0.147567749
v -0.0875478983 -0.0463982783 0.147706822
v -0.0827552825 -0.104570076 0.147398934
v -0.100987673 -0.0497204103 0.147217944
v -0.0791584253 -0.103401385 0.147532046
v -0.0912663043 -0.108870327 0.147567779
v -0.12549752 -0.0624185801 0.147706822
v -0.0863103718 -0.105725192 0.147464022
v -0.0948283449 -0.112063959 0.14756757
v -0.135963857 -0.0714803934 0.147706822
v -0.0926597118 -0.109754607 0.14756836
v -0.144883931 -0.0820689201 0.147217944
v -0.0979163125 -0.115434356 0.147406235
v -0.102057546 -0.124269255 0.147567287
v -0.157249063 -0.106747627 0.147706836
v -0.101430289 -0.121826261 0.147523433
v -0.160390139 -0.120231628 0.147706836
v -0.103271842 -0.128998637 0.147563547
v -0.161382943 -0.134040713 0.147217944
v -0.103300437 -0.133647993 0.147399828
v -0.156880617 -0.161274552 0.147706836
v -0.103300437 -0.136629999 0.147451758
v -0.101683743 -0.142926618 0.147566661
v -0.151496202 -0.174028993 0.147706822
v -0.101430297 -0.143913731 0.147567019
v -0.0996426865 -0.147165388 0.147566095
v -0.14418292 -0.185784101 0.147217944
v -0.097500667 -0.150830314 0.147416204
v -0.0926597267 -0.1559854 0.147517845
v -0.0903519168 -0.157449976 0.147565365
v -0.1245327 -0.205170631 0.147706822
v -0.0863710642 -0.159976304 0.147563115
v -0.112679601 -0.212324262 0.147706822
v -0.0998535529 -0.217535853 0.147217944
v -0.0820337385 -0.161404371 0.147402361
v -0.0725611374 -0.221669555 0.147706822
v -0.0791584402 -0.162338614 0.147455007
v -0.0729594454 -0.162728623 0.147564784
v -0.0587668382 -0.220490098 0.147706822
v -0.0716532916 -0.162810802 0.147565246
v -0.0684048682 -0.162191138 0.147564426
v -0.0453271307 -0.217167497 0.147217944
v -0.0640924945 -0.161319822 0.147409141
v -0.0208173394 -0.204469323 0.147706822
v -0.0574621968 -0.158199847 0.147528678
v -0.0558793247 -0.156890377 0.147564396
v -0.0520093888 -0.153688878 0.147549212
v -0.0103510004 -0.195407271 0.147706822
v -0.0494841039 -0.150400609 0.147403032
v -0.00143101998 -0.184819579 0.147217944
v -0.047247801 -0.14732261 0.147469282
v -0.0452595241 -0.142300814 0.147564754
v 0.0109341098 -0.160140395 0.147706836
v -0.0441642962 -0.137835592 0.147564888
v 0.0140750697 -0.146656752 0.147706836
v -0.0444795042 -0.140330702 0.147565514
v -0.0435606316 -0.133057088 0.14740479
v 0.0150681697 -0.132847428 0.147217944
v -0.0444795042 -0.12540932 0.147540957
v -0.0435606316 -0.133057088 0.0566388667
v 0.0150681697 -0.132847428 0.0568257086
v 0.0105658202 -0.105614074 0.0563368611
v -0.0450035706 -0.12408568 0.0564779565
v -0.0444795042 -0.12540932 0.0565027073
v 0.0140750697 -0.146656752 0.0563368499
v -0.0441643 -0.137835592 0.0564787835
v -0.0444795042 -0.140330702 0.0564781576
v -0.0452595316 -0.142300829 0.0564789139
v 0.0109341098 -0.160140395 0.0563368499
v -0.047247801 -0.14732261 0.0565743707
v -0.0494841076 -0.150400624 0.056640625
v -0.00143105001 -0.18481946 0.0568257086
v -0.0520094037 -0.153688893 0.0564944446
v -0.0103510004 -0.195407271 0.0563368611
v -0.0208173394 -0.204469323 0.0563368611
v -0.0558793619 -0.156890407 0.0564792678
v -0.0640925169 -0.161319837 0.0566345081
v -0.0453271307 -0.217167377 0.0568257086
v -0.0574621968 -0.158199847 0.0565149821
v -0.0684049278 -0.162191153 0.0564792268
v -0.0587668382 -0.220490098 0.0563368313
v -0.0716532916 -0.162810802 0.0564784035
v -0.072959505 -0.162728623 0.0564788692
v -0.0725611374 -0.221669674 0.0563368313
v -0.0791584402 -0.162338614 0.0565886497
v -0.0820337906 -0.161404356 0.0566412993
v -0.0998535529 -0.217535853 0.0568257086
v -0.112679601 -0.212324262 0.0563368313
v -0.086371094 -0.159976274 0.0564805344
v -0.0903519616 -0.157449946 0.0564782843
v -0.1245327 -0.205170631 0.0563368313
v -0.0926597267 -0.1559854 0.0565258078
v -0.0975006819 -0.150830299 0.0566274449
v -0.14418292 -0.185784101 0.0568257086
v -0.0996427014 -0.147165358 0.056477569
v -0.151496202 -0.174028993 0.0563368611
v -0.101430297 -0.143913731 0.0564766452
v -0.103271842 -0.128998652 0.0564801246
v -0.160390139 -0.120231628 0.0563368499
v -0.102057539 -0.124269232 0.0564763807
v -0.157249033 -0.106747508 0.0563368499
v -0.0979163125 -0.115434356 0.0566374213
v -0.144883931 -0.0820688009 0.0568257086
v -0.101430289 -0.121826261 0.0565202311
v -0.0948283747 -0.112063989 0.0564760901
v -0.135963857 -0.0714803934 0.0563368611
v -0.0926597118 -0.109754607 0.0564752966
v -0.0912663862 -0.108870372 0.0564758815
v -0.12549758 -0.0624186993 0.0563368313
v -0.100987673 -0.049720291 0.0568257086
v -0.0863103718 -0.105725192 0.0565796271
v -0.0827553272 -0.104570091 0.0566447191
v -0.0791584253 -0.103401385 0.056511607
v -0.0781347677 -0.103336982 0.0564759038
v -0.0875478983 -0.0463982783 0.0563368313
v -0.0737536475 -0.0452181101 0.0563368313
v -0.0733629167 -0.103036769 0.0564761646
v -0.0641146451 -0.104409762 0.0566417612
v -0.04646134 -0.0493518114 0.0568257086
v -0.0716532841 -0.102929205 0.0565059483
v -0.0336351991 -0.0545641184 0.0563368313
v -0.0596601963 -0.106505863 0.0564768314
v -0.0574621931 -0.107540168 0.0564762279
v -0.0556670763 -0.109025218 0.0564770587
v -0.0217819791 -0.0617169105 0.0563368313
v -0.0516679361 -0.112333596 0.056568794
v -0.0491720214 -0.115768932 0.0566427372
v -0.0021319401 -0.0811042786 0.0568257086
v -0.0472477935 -0.118417405 0.0565275215
v -0.0467209406 -0.119748086 0.0564777032
v 0.00518155005 -0.0928586721 0.0563368611
v 0.548474967 -0.133867383 0.0682513267
v 0.548474967 -0.133867383 0.13579233
v 0.540887415 -0.0366172791 0.13579227
v 0.540887415 -0.0366172791 0.0682513863
v 0.610566854 -0.00769304996 0.0783096701
v 0.610566854 -0.00769304996 0.125733986
v 0.593404949 0.0640085936 0.125733986
v 0.593404949 0.0640085936 0.0783096701
v 0.518180311 0.0582493506 0.0682512671
v 0.518180311 0.0582493506 0.13579239
v 0.480912626 0.148394942 0.13579239
v 0.480912626 0.148394942 0.0682512671
v 0.538244426 0.197434902 0.125733986
v 0.49976486 0.260323286 0.125733986
v 0.538243473 0.197435021 0.0783096701
v 0.49976486 0.260323167 0.0783096701
v 0.366701603 0.305818558 0.13579239
v 0.430001676 0.231599808 0.0682512671
v 0.430001676 0.231599808 0.13579239
v 0.366701603 0.305818558 0.0682512671
v 0.35004288 0.418094516 0.125733986
v 0.406072378 0.370174646 0.0783096701
v 0.406072378 0.370174646 0.125733986
v 0.35004288 0.418094516 0.0783096701
v 0.209434152 0.420243263 0.13579239
v 0.292570233 0.369217396 0.0682512671
v 0.292570233 0.369217396 0.13579239
v 0.209434152 0.420243263 0.0682512671
v 0.158895552 0.521877289 0.125733986
v 0.226990461 0.493614674 0.0783096701
v 0.226990461 0.493614793 0.125733986
v 0.158895552 0.521877289 0.0783096701
v 0.0245046597 0.480468273 0.13579239
v 0.119339474 0.457632303 0.0682512671
v 0.119339474 0.457632303 0.13579239
v 0.0245046597 0.480468273 0.0682512671
v -0.0549673997 0.561510324 0.125733986
v 0.0185284 0.555677414 0.0783096701
v 0.0185284 0.555677414 0.125733986
v -0.0549673997 0.561510324 0.0783096701
v -0.0727347732 0.488187671 0.13579239
v -0.1699844 0.480601788 0.13579239
v -0.0727347732 0.488187671 0.0682512671
v -0.16998446 0.480601549 0.0682512671
v -0.198908865 0.550281048 0.125733986
v -0.270610034 0.533119321 0.125733986
v -0.198908865 0.550281048 0.0783096701
v -0.270610034 0.533119321 0.0783096701
v -0.264850497 0.457892418 0.13579239
v -0.354995549 0.420626879 0.13579239
v -0.264850378 0.457892418 0.0682512671
v -0.354995549 0.420626879 0.0682512671
v -0.404036522 0.47795856 0.125733986
v -0.466925025 0.439479232 0.125733986
v -0.404036522 0.47795856 0.0783096701
v -0.466925085 0.439477205 0.0783096701
v -0.438201606 0.369714379 0.13579239
v -0.512418628 0.306414962 0.13579239
v -0.438201368 0.369714379 0.0682512671
v -0.512418628 0.306414962 0.0682512671
v -0.57677573 0.345786691 0.125733986
v -0.624695718 0.289756179 0.125733986
v -0.57677573 0.345786691 0.0783096701
v -0.624695718 0.289756179 0.0783096701
v -0.57581979 0.23228395 0.13579239
v -0.626843393 0.149148345 0.13579227
v -0.57581979 0.23228395 0.0682512671
v -0.626843393 0.149148345 0.0682513863
v -0.728477299 0.0986076593 0.125733986
v -0.700217485 0.166702986 0.0783096701
v -0.700217485 0.166702986 0.125733986
v -0.728477299 0.0986076593 0.0783096701
v -0.664233804 0.0590516292 0.13579233
v -0.687069535 -0.0357824601 0.1357923
v -0.664233744 0.0590517484 0.0682513267
v -0.687069535 -0.0357825793 0.0682513267
v -0.768112063 -0.115254097 0.125733986
v -0.762277126 -0.0417588912 0.0783096477
v -0.762277126 -0.0417588912 0.125733972
v -0.768112063 -0.115254156 0.0783096701
v -0.687201858 -0.230271637 0.13579227
v -0.694788992 -0.133021772 0.0682513267
v -0.694788992 -0.133021772 0.13579233
v -0.687201858 -0.230271637 0.0682513863
v -0.756881833 -0.259196043 0.0783096701
v -0.756881833 -0.259195983 0.125733986
v -0.739719689 -0.330897391 0.125733986
v -0.739719629 -0.330897272 0.0783096701
v -0.664494872 -0.325137556 0.13579239
v -0.627226949 -0.415282905 0.13579239
v -0.664494872 -0.325137556 0.0682512671
v -0.627226949 -0.415282905 0.0682512671
v -0.684558451 -0.464323997 0.125733986
v -0.646079123 -0.527212381 0.125733986
v -0.684558451 -0.464323938 0.0783096701
v -0.646079123 -0.527212381 0.0783096701
v -0.576316118 -0.498488247 0.13579239
v -0.513015985 -0.572705328 0.13579239
v -0.576316118 -0.498488247 0.0682512671
v -0.513015866 -0.572705448 0.0682512671
v -0.55238682 -0.637061834 0.125733986
v -0.496357352 -0.684981644 0.125733986
v -0.55238682 -0.637061775 0.0783096701
v -0.496357232 -0.684981644 0.0783096701
v -0.355748534 -0.687130511 0.13579239
v -0.438884854 -0.636106551 0.0682512671
v -0.438884974 -0.63610661 0.13579239
v -0.355748534 -0.687130511 0.0682512671
v -0.373304933 -0.760503531 0.125733986
v -0.305209637 -0.788764358 0.125733986
v -0.373304933 -0.760503531 0.0783096701
v -0.305209637 -0.788764298 0.0783096701
v -0.265653551 -0.724519551 0.13579239
v -0.170818806 -0.747355282 0.13579239
v -0.265653551 -0.724519551 0.0682512671
v -0.170818806 -0.747355282 0.0682512671
v -0.164842546 -0.822563171 0.125733986
v -0.0913473368 -0.828398943 0.125733986
v -0.164842546 -0.822563171 0.0783096701
v -0.0913473368 -0.828398883 0.0783096701
v 0.0236702599 -0.747488797 0.13579239
v -0.0735794008 -0.755074918 0.0682512671
v -0.0735794008 -0.755074918 0.13579239
v 0.0236702599 -0.747488797 0.0682512671
v 0.12429598 -0.80000633 0.125733986
v 0.0525948703 -0.817168176 0.0783096701
v 0.0525948703 -0.817168176 0.125733986
v 0.12429598 -0.80000627 0.0783096701
v 0.118535817 -0.724781752 0.13579239
v 0.208681375 -0.687513769 0.13579239
v 0.118535846 -0.724781573 0.0682512671
v 0.208681375 -0.687513709 0.0682512671
v 0.257722586 -0.744845569 0.125733986
v 0.320610613 -0.706366003 0.125733986
v 0.257722586 -0.74484551 0.0783096701
v 0.320610613 -0.706365943 0.0783096701
v 0.291887164 -0.636602938 0.13579239
v 0.366104037 -0.573302925 0.13579239
v 0.291886479 -0.6366027 0.0682512671
v 0.366104037 -0.573302925 0.0682512671
v 0.47838062 -0.55664438 0.125733986
v 0.430460244 -0.612673998 0.0783096701
v 0.430460244 -0.612673998 0.125733986
v 0.47838062 -0.55664438 0.0783096701
v 0.480529189 -0.416035473 0.13579227
v 0.429505169 -0.499172032 0.0682512671
v 0.429505169 -0.499172091 0.13579239
v 0.480529189 -0.416035473 0.0682513863
v 0.553902268 -0.433592081 0.0783096701
v 0.553902209 -0.433592141 0.125733986
v 0.582162738 -0.365496874 0.125733986
v 0.582162738 -0.365496814 0.0783096105
v 0.517918348 -0.32594043 0.0682513267
v 0.517918348 -0.32594043 0.13579233
v 0.540754199 -0.231105804 0.1357923
v 0.540754199 -0.231105924 0.0682513267
v 0.615962207 -0.225129485 0.0783096105
v 0.615962207 -0.225129485 0.125733986
v 0.621797502 -0.151635051 0.125733986
v 0.621797442 -0.151635408 0.0783096701
v 0.454459906 -0.0502458811 0.138019219
v 0.460979879 -0.133806348 0.138019219
v 0.434948862 0.0312672891 0.138019219
v 0.402927041 0.10872519 0.138019219
v 0.359181643 0.180219293 0.138019219
v 0.304791212 0.243990779 0.138019219
v 0.241094172 0.298468113 0.138019219
v 0.169659197 0.342309833 0.138019219
v 0.0922452211 0.374437213 0.138019219
v 0.0107585201 0.394058704 0.138019219
v -0.0727943778 0.400691867 0.138019219
v -0.156356156 0.394172668 0.138019219
v -0.237869382 0.374662042 0.138019219
v -0.31532681 0.342639685 0.138019219
v -0.38682133 0.298894405 0.138019219
v -0.450592339 0.244503856 0.138019219
v -0.505069733 0.180806518 0.138019219
v -0.548911929 0.109371662 0.138019219
v -0.581039131 0.0319590606 0.138019219
v -0.60066098 -0.0495283604 0.138019219
v -0.607293963 -0.133081913 0.138019219
v -0.600774646 -0.216643155 0.138019219
v -0.581263602 -0.298156321 0.138019219
v -0.549241245 -0.375613749 0.138019219
v -0.505496144 -0.447108269 0.138019219
v -0.451105624 -0.51087898 0.138019219
v -0.387408555 -0.565356433 0.138019219
v -0.31597358 -0.60919863 0.138019219
v -0.238559693 -0.64132607 0.138019219
v -0.157073021 -0.66094768 0.138019219
v -0.0735200867 -0.667580724 0.138019219
v 0.0100415098 -0.661061466 0.138019219
v 0.0915548801 -0.641550481 0.138019219
v 0.16901195 -0.609528005 0.138019219
v 0.240506619 -0.565783203 0.138019219
v 0.30427748 -0.511392295 0.138019219
v 0.358754784 -0.447695374 0.138019219
v 0.402597189 -0.376260519 0.138019219
v 0.43472451 -0.298847198 0.138019219
v 0.454346329 -0.21736002 0.138019219
v 0.460979879 -0.133806348 0.0660244375
v 0.454459906 -0.0502458811 0.0660244375
v 0.434948623 0.0312672891 0.0660244375
v 0.402927041 0.10872519 0.0660244375
v 0.359181404 0.180219173 0.0660244375
v 0.304791212 0.243990779 0.0660244375
v 0.241094172 0.298468113 0.0660244375
v 0.169659197 0.342309833 0.0660244375
v 0.0922452211 0.374437213 0.0660244375
v 0.0107585201 0.394058824 0.0660244375
v -0.0727943778 0.400691867 0.0660244375
v -0.156356156 0.394172668 0.0660244375
v -0.237869382 0.374662042 0.0660244375
v -0.31532681 0.342639685 0.0660244375
v -0.38682133 0.298894405 0.0660244375
v -0.450592339 0.244503856 0.0660244375
v -0.505069792 0.180806398 0.0660244375
v -0.548911929 0.109371662 0.0660244375
v -0.581039131 0.0319590606 0.0660244375
v -0.60066098 -0.0495283604 0.0660244077
v -0.607293963 -0.133081794 0.0660244375
v -0.600774646 -0.216643095 0.0660244375
v -0.581263602 -0.298156261 0.0660244375
v -0.549241245 -0.375613689 0.0660244375
v -0.505496144 -0.447108269 0.0660244375
v -0.451105505 -0.510878921 0.0660244375
v -0.387408435 -0.565356493 0.0660244375
v -0.31597358 -0.609198689 0.0660244375
v -0.238559693 -0.64132607 0.0660244375
v -0.157073021 -0.66094768 0.0660244375
v -0.0735200867 -0.667580724 0.0660244375
v 0.01004148 -0.661061525 0.0660244375
v 0.0915548801 -0.641550422 0.0660244375
v 0.16901195 -0.609527946 0.0660244375
v 0.240506649 -0.565783143 0.0660244375
v 0.304277241 -0.511392236 0.0660244375
v 0.358754784 -0.447695374 0.0660244375
v 0.402597189 -0.376260519 0.0660244375
v 0.43472451 -0.298847198 0.0660244375
v 0.454346329 -0.21736002 0.0660244077
v 0.366202593 -0.104467392 0.140096143
v 0.35626018 -0.036092639 0.140367046
v 0.217026949 0.19772017 0.140366927
v 0.265260339 0.148247838 0.140096083
v -0.0330466591 0.305040598 0.140366927
v 0.0350534283 0.293367267 0.140096083
v -0.298441529 0.244872689 0.140366927
v -0.236486197 0.275456905 0.140096083
v -0.477785408 0.0402017795 0.140366986
v -0.44563967 0.101362467 0.140096202
v -0.502574861 -0.23079592 0.140367046
v -0.512517452 -0.162422359 0.140096143
v -0.363341928 -0.464609146 0.140366927
v -0.411574572 -0.415136695 0.140096083
v -0.113267571 -0.571928084 0.140366927
v -0.181367844 -0.560255349 0.140096083
v 0.152127028 -0.511761665 0.140366927
v 0.0901716575 -0.542346239 0.140096083
v 0.331470758 -0.307090104 0.140366986
v 0.299325019 -0.368250668 0.140096202
v 0.0942685604 -0.103574283 0.0580118708
v 0.0875346735 -0.0777511597 0.0578203313
v 0.0241094809 0.00606501009 0.0578203313
v 0.0447360314 -0.01086831 0.0580119006
v 0.074179709 0.0718683004 0.0589423291
v 0.104483783 0.046292901 0.0591980293
v -0.0764681697 0.0365931988 0.0578203313
v -0.0498276912 0.0350176096 0.0580119006
v -0.0746389627 0.11926043 0.0589423291
v -0.0350890793 0.116379738 0.0591980293
v -0.17578131 0.00217283005 0.0578203313
v -0.15330267 0.0165570993 0.0580119006
v -0.222891808 0.0701261833 0.0589423291
v -0.189202785 0.0910435915 0.0591980293
v -0.235895514 -0.084048748 0.0578203499
v -0.226164818 -0.0591992103 0.0580118708
v -0.313951075 -0.0567640103 0.0589423291
v -0.298991024 -0.0200399198 0.0591980293
v -0.233849227 -0.189137459 0.0578203313
v -0.240583181 -0.163314462 0.0580118708
v -0.31303519 -0.212943673 0.0589423291
v -0.322518319 -0.174440145 0.0591980293
v -0.170424074 -0.272953451 0.0578203313
v -0.191050649 -0.256019711 0.0580119006
v -0.220494002 -0.338757277 0.0589423291
v -0.250798106 -0.313180566 0.0591980293
v -0.0698464811 -0.303481519 0.0578203313
v -0.0964869633 -0.30190587 0.0580119006
v -0.0716755092 -0.386148453 0.0589423291
v -0.111225434 -0.383268833 0.0591980293
v 0.0294665098 -0.269061387 0.0578203313
v 0.00698796008 -0.283445358 0.0580117814
v 0.0765768588 -0.33701539 0.0589423291
v 0.0428881012 -0.35793221 0.0591980293
v 0.0895807967 -0.18283987 0.0578203499
v 0.0798501074 -0.207689524 0.0580118708
v 0.167636484 -0.210125327 0.0589423403
v 0.152676344 -0.246849298 0.0591980293
v 0.152676523 -0.246849775 0.14484562
v 0.0895807967 -0.18283987 0.146223292
v 0.167636484 -0.210125327 0.145101294
v 0.0798500776 -0.207689762 0.146031782
v 0.0428881012 -0.357932389 0.14484562
v 0.0294665098 -0.269061387 0.146223322
v 0.076576978 -0.33701539 0.145101324
v 0.00698796008 -0.283445418 0.146031812
v -0.0698464811 -0.303481579 0.146223322
v -0.0716755092 -0.386148453 0.145101324
v -0.111225434 -0.383268833 0.14484562
v -0.0964869931 -0.30190593 0.146031752
v -0.250798106 -0.313180625 0.14484562
v -0.170424074 -0.272953451 0.146223322
v -0.220493972 -0.338757217 0.145101324
v -0.191050649 -0.256019771 0.146031812
v -0.322518319 -0.174440145 0.14484562
v -0.233849227 -0.189137459 0.146223292
v -0.31303519 -0.212943673 0.145101324
v -0.240583181 -0.163314581 0.146031782
v -0.235895514 -0.084048748 0.146223307
v -0.313951075 -0.0567640103 0.145101294
v -0.298991024 -0.0200399198 0.14484562
v -0.226164818 -0.0591992103 0.146031812
v -0.222891867 0.0701261833 0.145101324
v -0.189202785 0.0910435915 0.14484562
v -0.17578131 0.00217283005 0.146223262
v -0.15330267 0.0165570993 0.146031752
v -0.0350890793 0.116379984 0.14484562
v -0.0764681697 0.0365931988 0.146223322
v -0.0746389627 0.11926043 0.145101205
v -0.0498276912 0.0350178517 0.146031752
v 0.0241094809 0.00606501009 0.146223322
v 0.074179709 0.0718683004 0.145101324
v 0.104483783 0.046292901 0.14484562
v 0.0447360314 -0.01086831 0.146031752
v 0.0875346735 -0.0777512789 0.146223322
v 0.0942684412 -0.103574283 0.146031752
v 0.299325049 -0.368250549 0.0639474466
v 0.331470758 -0.307090163 0.0636766106
v 0.152127028 -0.511761546 0.0636767298
v 0.0901716873 -0.542345941 0.0639475733
v -0.181367844 -0.560255349 0.0639475733
v -0.113267541 -0.571928024 0.0636767298
v -0.411574572 -0.415136635 0.0639475733
v -0.363341779 -0.464609027 0.0636767298
v -0.512517452 -0.162422359 0.0639475137
v -0.502574801 -0.23079586 0.0636766106
v -0.44563961 0.101362593 0.0639474466
v -0.477785408 0.0402017795 0.0636766106
v -0.236486077 0.275456905 0.0639475733
v -0.298441648 0.244872689 0.0636767298
v 0.0350534283 0.293367267 0.0639475733
v -0.0330466591 0.305040598 0.0636767298
v 0.265260339 0.148247838 0.0639475733
v 0.217026949 0.19772017 0.0636767298
v 0.366202831 -0.104467392 0.0639475137
v 0.35626018 -0.036092639 0.0636766106
v 0.229614675 -0.301965475 0.142463937
v 0.252249032 -0.252526879 0.142762765
v 0.0727360025 -0.44774586 0.142463818
v 0.120107472 -0.42105341 0.142762795
v -0.139868915 -0.47347331 0.142463818
v -0.0858552828 -0.479723454 0.142762795
v -0.326992065 -0.369321525 0.142463937
v -0.286967695 -0.406126142 0.142762795
v -0.4171592 -0.175071836 0.142463937
v -0.406411916 -0.228374064 0.142762795
v -0.375929296 0.035076499 0.142463937
v -0.398564279 -0.0143622197 0.142762795
v -0.219050527 0.180857539 0.142463818
v -0.266422033 0.15416491 0.142762795
v -0.00644577015 0.206584454 0.142463818
v -0.0604592003 0.212834001 0.142762795
v 0.180677414 0.102432489 0.142463818
v 0.140653193 0.139237881 0.142762795
v 0.260097384 -0.0385150909 0.142762795
v 0.270844579 -0.0918164328 0.142463937
v 0.176203728 -0.0924493074 0.14484562
v 0.166720629 -0.0539456606 0.145101324
v 0.252249032 -0.252526879 0.0612808913
v 0.229614705 -0.301965296 0.0615797192
v 0.120107204 -0.421053529 0.0612808615
v 0.0727360174 -0.44774574 0.0615798309
v -0.0858552828 -0.479723334 0.0612808615
v -0.139868915 -0.473473251 0.0615798309
v -0.286967695 -0.406126142 0.0612808615
v -0.326992065 -0.369321525 0.0615798309
v -0.406411916 -0.228374004 0.0612808615
v -0.41715923 -0.175071895 0.0615797192
v -0.398564279 -0.0143622197 0.0612809211
v -0.375929296 0.035076499 0.0615797192
v -0.266422033 0.15416491 0.0612808615
v -0.219050527 0.180857539 0.0615798309
v -0.0604592003 0.212834001 0.0612808615
v -0.00644577015 0.206584215 0.0615798309
v 0.140653133 0.139237761 0.0612808615
v 0.180677414 0.102432489 0.0615798309
v 0.270844579 -0.0918164328 0.0615797192
v 0.260097384 -0.0385150909 0.0612808615
v 0.176203728 -0.0924494267 0.0591980293
v 0.166720629 -0.0539457798 0.0589423291
vn 0.725525141 0.104820751 -0.680166245
vn 0.738944709 -0.00838841312 -0.673713863
vn -0.431476146 0.30922088 -0.847473085
vn -0.00134190999 0.0116750896 -0.999930978
vn 0.229014203 0.084585689 -0.637955606
vn 0.186229229 0.390895396 0.90139854
vn -0.654401302 -0.265499681 0.708003402
vn -0.220791459 -0.103619598 0.573882222
vn -0.0102850497 0.0146144899 0.999840379
vn -0.198059067 -0.138747886 0.574137032
vn 0.00199439004 0.00257126009 0.999994755
vn -0.429114819 -0.234254315 0.147956416
vn -0.143787265 -0.19623439 0.573901713
vn 0.00794840045 -0.00865720026 0.999931037
vn -0.355807185 -0.334917784 0.148075402
vn 0.311786592 0.648290277 0.694628537
vn -0.393232375 -0.61971283 0.679208517
vn -0.31078732 -0.631890357 0.710018098
vn -0.21853213 -0.646085262 0.731312156
vn 0.428016424 0.314024329 0.847461343
vn -0.315193892 0.296787322 0.901426733
vn -0.0350515321 -0.733359575 0.678936839
vn 0.0502852686 -0.704415977 0.708003998
vn 0.0335211121 -0.241827443 0.573879004
vn -0.0170769002 -0.00526534999 0.999840379
vn 0.0746835545 -0.229948103 0.574139655
vn -0.00182801997 0.00269189011 0.999994695
vn 0.0899936929 -0.480591804 0.1479121
vn 0.14691107 -0.194405198 0.573899746
vn 0.0106900102 0.00488424022 0.999930978
vn 0.208493829 -0.441895962 0.148104653
vn 0.411252201 -0.401587099 0.818290532
vn -0.5202263 0.496872634 0.694609404
vn 0.467861444 -0.565489292 0.67921102
vn -0.166381583 0.504123628 0.847452998
vn 0.550482571 -0.404185861 0.730481088
vn 0.685273349 -0.170109838 0.708140552
vn -0.379651636 -0.208032086 0.90143621
vn 0.68493706 -0.257765025 0.681482494
vn -0.712910831 0.0962065607 0.694623947
vn 0.666690469 -0.100980051 0.738462508
vn -0.430879742 0.310029596 0.847481191
vn 0.738940835 -0.00838905945 0.673718035
vn -0.00134157005 0.0116759399 0.999931037
vn 0.725524426 0.104821958 0.680166602
vn 0.229014263 0.0845860243 0.573901594
vn -0.633307338 -0.341223419 0.694613814
vn 0.68238759 0.270216465 0.679212868
vn 0.393562257 0.204548717 0.896252573
vn -0.530913234 -0.00245974073 0.847422659
vn 0.553298295 0.402967751 0.729025304
vn 0.456028819 0.569885671 0.683570147
vn 0.373515129 0.599315524 0.708030522
vn 0.0805363953 -0.42536065 0.901433408
vn 0.301149547 0.602929711 0.738772392
vn -0.311794758 -0.648291826 0.69462347
vn -0.428010941 -0.313983738 0.847479045
vn 0.231366768 0.687325537 0.688515067
vn -0.0115189496 0.00233184011 0.999930978
vn 0.124508739 0.722406566 0.680166364
vn -0.00725429878 0.243782103 0.573904455
vn 0.128811836 -0.707755089 0.694615066
vn -0.0461220518 0.732491791 0.679211736
vn -0.099307701 0.581204712 0.807675064
vn -0.161719918 -0.505636811 0.847453892
vn -0.207354128 0.650539219 0.730618179
vn 0.429425985 -0.0548543185 0.90143466
vn -0.402839333 0.611323833 0.681177914
vn -0.453618854 0.540753484 0.708389401
vn -0.476824939 0.481048197 0.735683799
vn 0.520149946 -0.49688074 0.694660783
vn -0.669099212 0.506314158 0.54401499
vn 0.166352153 -0.504090965 0.847478151
vn -0.648571312 0.341648936 0.68017
vn -0.231661841 0.0745716915 0.573904574
vn -0.00577775994 -0.0102349501 0.999930918
vn -0.697045207 0.100222543 0.709988296
vn 0.712921262 -0.0962004289 0.694614232
vn -0.710901558 0.182486251 0.679203749
vn -0.682043612 0.00830349792 0.731264472
vn 0.431519359 -0.309195578 0.847460508
vn -0.708424747 -0.193069041 0.678865671
vn -0.682042956 0.00830292422 -0.731264889
vn 0.431518614 -0.309195817 -0.847460687
vn 0.186228767 0.390895993 -0.90139842
vn -0.654401541 -0.265499353 -0.708003342
vn -0.708423972 -0.193068817 -0.678866446
vn 0.712921381 -0.0962012559 -0.694613874
vn -0.697069585 0.100223839 -0.709964216
vn -0.710899711 0.182486132 -0.679205656
vn -0.231661677 0.0745719299 -0.637958527
vn -0.00577718997 -0.0102343904 -0.999930978
vn -0.648574769 0.341650933 -0.680165648
vn -0.669108629 0.506320953 -0.54399699
vn 0.167311594 -0.503784895 -0.847471237
vn -0.476824582 0.481048256 -0.735683918
vn 0.520151734 -0.496880323 -0.69465971
vn 0.429320157 -0.0563160442 -0.901394904
vn -0.453628629 0.540765584 -0.708374023
vn -0.207353309 0.650538802 -0.730618834
vn -0.160762906 -0.505953193 -0.847447157
vn -0.402838618 0.611324131 -0.681178272
vn -0.0993068367 0.581204295 -0.80767554
vn 0.128817186 -0.707754254 -0.694615006
vn -0.0461236089 0.732495904 -0.679207146
vn -0.00725385686 0.243782088 -0.637958467
vn -0.0115191098 0.00233186991 -0.999931037
vn 0.124508128 0.722406805 -0.680166364
vn 0.231378093 0.687354445 -0.688482404
vn -0.427426457 -0.314801812 -0.847470582
vn -0.311794758 -0.648291826 -0.69462347
vn 0.301151633 0.602929413 -0.738771915
vn 0.373500258 0.59929496 -0.708055854
vn 0.0791128427 -0.425711483 -0.90139389
vn 0.456026614 0.569884062 -0.683572888
vn 0.553297341 0.402967721 -0.72902596
vn -0.530921221 -0.00346450065 -0.847414076
vn 0.393557757 0.204547673 -0.896254718
vn -0.633307934 -0.341222525 -0.694613636
vn 0.682393551 0.27022326 -0.679204166
vn 0.666690946 -0.100978985 -0.73846215
vn -0.712911069 0.0962076485 -0.694623649
vn 0.68527782 -0.170111403 -0.708135962
vn -0.38042441 -0.206787199 -0.901396811
vn 0.550482452 -0.404185802 -0.730481207
vn -0.167339697 0.503822505 -0.847443461
vn 0.684937239 -0.2577658 -0.681482077
vn 0.411241084 -0.401577473 -0.818300903
vn -0.520224631 0.496874988 -0.694608986
vn 0.467864931 -0.565491021 -0.679207146
vn 0.146911517 -0.1944049 -0.637953818
vn 0.0106892399 0.00488376012 -0.999930978
vn -0.00182868005 0.00269184005 -0.999994695
vn 0.208493754 -0.441896051 -0.276212573
vn 0.0746837631 -0.229947999 -0.638193667
vn 0.0899935961 -0.480591804 -0.27602005
vn 0.0335214399 -0.241827443 -0.637932956
vn -0.0170775391 -0.00526541006 -0.999840379
vn -0.314242393 0.29790777 -0.901389301
vn 0.0502839237 -0.704416871 -0.708002985
vn -0.218532071 -0.64608562 -0.731311977
vn 0.427425057 0.314843595 -0.84745574
vn -0.0350520238 -0.733363509 -0.678932488
vn 0.311782122 0.648294032 -0.694627047
vn -0.310787022 -0.63188678 -0.710021555
vn -0.393234879 -0.619713366 -0.679206729
vn -0.143786937 -0.196234643 -0.637955666
vn 0.00794859044 -0.00865724031 -0.999931037
vn -0.355807155 -0.334917784 -0.276183307
vn -0.198058739 -0.138748214 -0.638190985
vn 0.00199512998 0.00257064006 -0.999994695
vn -0.429114729 -0.234254375 -0.276064396
vn -0.220791176 -0.103620015 -0.637936294
vn -0.0102842199 0.0146136703 -0.999840438
vn 0.996970236 0.0777845234 0
vn 0.996970236 0.0777845234 0
vn 0.996970236 0.0777845234 0
vn 0.996970236 0.0777845234 0
vn 0.972530365 0.232776329 0
vn 0.972530365 0.232776329 0
vn 0.972530365 0.232776329 0
vn 0.972530365 0.232776329 0
vn 0.924139857 0.382054657 0
vn 0.924139857 0.382054657 0
vn 0.924139857 0.382054657 0
vn 0.924139857 0.382054657 0
vn 0.852995813 0.52191782 -8.51999994e-06
vn 0.852995813 0.52191776 -8.51999994e-06
vn 0.852995872 0.52191782 -8.51999994e-06
vn 0.852995872 0.52191776 -8.51999994e-06
vn 0.760855138 0.648921907 0
vn 0.760855138 0.648921907 0
vn 0.760855138 0.648921907 0
vn 0.760855138 0.648921907 0
vn 0.649966598 0.759962916 0
vn 0.649966598 0.759962916 0
vn 0.649966598 0.759962916 0
vn 0.649966598 0.759962916 0
vn 0.523094893 0.852274537 0
vn 0.523094893 0.852274537 0
vn 0.523094893 0.852274537 0
vn 0.523094893 0.852274537 0
vn 0.383340001 0.923607349 -2.12999998e-06
vn 0.383339971 0.92360729 -2.12999998e-06
vn 0.383340061 0.923607349 -2.12999998e-06
vn 0.383340001 0.923607349 -2.12999998e-06
vn 0.234105885 0.972211123 0
vn 0.234105885 0.972211123 0
vn 0.234105885 0.972211123 0
vn 0.234105885 0.972211123 0
vn 0.0791150928 0.996865511 0
vn 0.0791150928 0.996865511 0
vn 0.0791150928 0.996865511 0
vn 0.0791150928 0.996865511 0
vn -0.0777691901 0.996971488 -2.08999995e-06
vn -0.0777691901 0.996971488 -2.08999995e-06
vn -0.0777691901 0.996971488 -2.08999995e-06
vn -0.0777691901 0.996971428 -2.08999995e-06
vn -0.232775822 0.972530425 0
vn -0.232775822 0.972530425 0
vn -0.232775822 0.972530425 0
vn -0.232775822 0.972530425 0
vn -0.382037759 0.924146831 -5.69999997e-07
vn -0.382037759 0.924146831 -5.69999997e-07
vn -0.382037729 0.924146831 -5.69999997e-07
vn -0.382037759 0.924146831 -5.69999997e-07
vn -0.52192831 0.852989376 -1.815e-05
vn -0.52192831 0.852989316 -1.815e-05
vn -0.52192831 0.852989376 -1.815e-05
vn -0.52192837 0.852989376 -1.815e-05
vn -0.648926318 0.760851324 -8.49999992e-07
vn -0.648926318 0.760851324 -8.49999992e-07
vn -0.648926258 0.760851264 -8.49999992e-07
vn -0.648926318 0.760851324 -8.49999992e-07
vn -0.759967804 0.649960876 0
vn -0.759967804 0.649960876 0
vn -0.759967804 0.649960876 0
vn -0.759967804 0.649960876 0
vn -0.852283955 0.523079515 0
vn -0.852283895 0.523079574 0
vn -0.852283955 0.523079515 0
vn -0.852283895 0.523079574 0
vn -0.923621237 0.383306354 0
vn -0.923621237 0.383306354 0
vn -0.923621237 0.383306354 0
vn -0.923621237 0.383306354 0
vn -0.97221154 0.234104514 -4.3e-07
vn -0.97221148 0.234104484 -4.3e-07
vn -0.97221148 0.234104469 -4.3e-07
vn -0.97221154 0.234104499 -4.3e-07
vn -0.996863365 0.0791431293 -5.00000006e-08
vn -0.996863365 0.0791431293 -5.00000006e-08
vn -0.996863306 0.0791431293 -5.00000006e-08
vn -0.996863365 0.0791431293 -5.00000006e-08
vn -0.996970534 -0.077780202 0
vn -0.996970534 -0.077780202 0
vn -0.996970534 -0.077780202 0
vn -0.996970534 -0.077780202 0
vn -0.972529113 -0.232781366 -8.49999992e-07
vn -0.972529113 -0.232781366 -8.49999992e-07
vn -0.972529113 -0.232781366 -8.49999992e-07
vn -0.972529173 -0.23278138 -8.49999992e-07
vn -0.924138606 -0.382057428 0
vn -0.924138606 -0.382057428 0
vn -0.924138606 -0.382057428 0
vn -0.924138606 -0.382057428 0
vn -0.852994978 -0.521919191 0
vn -0.852994978 -0.521919191 0
vn -0.852994978 -0.521919131 0
vn -0.852994978 -0.521919191 0
vn -0.76084733 -0.648930907 -1.80000001e-07
vn -0.760847449 -0.648930907 -1.80000001e-07
vn -0.76084733 -0.648930907 -1.80000001e-07
vn -0.76084733 -0.648930907 -1.80000001e-07
vn -0.6499663 -0.759963155 -9.79999982e-07
vn -0.6499663 -0.759963095 -9.79999982e-07
vn -0.64996624 -0.759963095 -9.79999982e-07
vn -0.6499663 -0.759963036 -9.79999982e-07
vn -0.523078918 -0.852284312 -1.69999998e-06
vn -0.523078918 -0.852284253 -1.69999998e-06
vn -0.523078978 -0.852284312 -1.69999998e-06
vn -0.523078918 -0.852284312 -1.69999998e-06
vn -0.383317888 -0.923616469 -1.07000005e-06
vn -0.383317918 -0.923616529 -1.07000005e-06
vn -0.383317888 -0.923616469 -1.07000005e-06
vn -0.383317888 -0.923616469 -1.07000005e-06
vn -0.234103709 -0.972211659 0
vn -0.234103709 -0.972211659 0
vn -0.234103709 -0.972211659 0
vn -0.234103709 -0.972211659 0
vn -0.0791539028 -0.996862471 0
vn -0.0791538879 -0.996862411 0
vn -0.0791539028 -0.996862471 0
vn -0.0791539028 -0.996862471 0
vn 0.0777703971 -0.996971309 0
vn 0.0777703971 -0.996971309 0
vn 0.0777703971 -0.996971309 0
vn 0.0777703971 -0.996971309 0
vn 0.232777953 -0.972529888 -1.07000005e-06
vn 0.232777938 -0.972529948 -1.07000005e-06
vn 0.232777938 -0.972529948 -1.07000005e-06
vn 0.232777953 -0.972529948 -1.07000005e-06
vn 0.382057011 -0.924138784 -1.12999999e-06
vn 0.382057011 -0.924138784 -1.12999999e-06
vn 0.382057011 -0.924138844 -1.12999999e-06
vn 0.382057071 -0.924138844 -1.12999999e-06
vn 0.52192384 -0.852992117 -1.07000005e-06
vn 0.5219239 -0.852992117 -1.07000005e-06
vn 0.5219239 -0.852992117 -1.07000005e-06
vn 0.52192384 -0.852992117 -1.07000005e-06
vn 0.648928583 -0.760849416 -4.51999995e-06
vn 0.648928583 -0.760849357 -4.51999995e-06
vn 0.648928583 -0.760849357 -4.51999995e-06
vn 0.648928583 -0.760849357 -4.51999995e-06
vn 0.759959936 -0.649969935 0
vn 0.759959936 -0.649969935 0
vn 0.759959936 -0.649969935 0
vn 0.759959936 -0.649969935 0
vn 0.852284491 -0.523078561 -2.79999995e-07
vn 0.852284551 -0.523078561 -2.79999995e-07
vn 0.852284551 -0.52307862 -2.79999995e-07
vn 0.852284491 -0.523078561 -2.79999995e-07
vn 0.923618019 -0.383314341 2.69999987e-07
vn 0.923617959 -0.383314282 2.69999987e-07
vn 0.923618019 -0.383314312 2.69999987e-07
vn 0.923618019 -0.383314282 2.69999987e-07
vn 0.972211301 -0.234105259 2.09999996e-07
vn 0.972211242 -0.234105214 2.09999996e-07
vn 0.972211301 -0.234105259 2.09999996e-07
vn 0.972211242 -0.234105244 2.09999996e-07
vn 0.996862888 -0.0791483596 -3.49999993e-07
vn 0.996862888 -0.0791483596 -3.49999993e-07
vn 0.996862948 -0.0791483596 -3.49999993e-07
vn 0.996862888 -0.0791483521 -3.49999993e-07
vn 0.0242754705 0.00135789998 0.999704421
vn 0.0245118607 0.00148477999 0.99969846
vn 0.0248208195 0.00594044011 0.999674261
vn 0.0235851295 0.00975040998 0.99967438
vn 0.0217693597 0.0133201303 0.999674261
vn 0.0188405495 0.0153665496 0.99970448
vn 0.0165877901 0.0193954092 0.999674261
vn 0.0133497398 0.0217512194 0.999674261
vn 0.0097822696 0.0235717092 0.99967438
vn 0.00620999001 0.0235062093 0.99970448
vn 0.00201970991 0.0254409909 0.99967432
vn -0.00198486005 0.0254435893 0.99967432
vn -0.00594118005 0.0248199701 0.99967432
vn -0.00879244041 0.0226669796 0.999704421
vn -0.0133202197 0.0217692796 0.99967432
vn -0.0165613499 0.0194177907 0.99967432
vn -0.0193950906 0.0165878292 0.99967432
vn -0.0204375908 0.0131698204 0.99970448
vn -0.0235726908 0.00978325028 0.99967432
vn -0.0248128194 0.00597470999 0.99967432
vn -0.0254420899 0.00201992993 0.999674261
vn -0.0242755804 -0.00135780999 0.999704421
vn -0.0248209592 -0.00594046013 0.99967432
vn -0.0235851295 -0.00975058973 0.999674261
vn -0.0217696 -0.0133200502 0.99967432
vn -0.0188406203 -0.01536672 0.99970448
vn -0.0165880192 -0.0193952303 0.999674261
vn -0.01334967 -0.0217513405 0.999674261
vn -0.00978242978 -0.0235721208 0.99967432
vn -0.00621001981 -0.0235063508 0.999704421
vn -0.00201974995 -0.0254415199 0.99967432
vn 0.00198502 -0.0254440699 0.99967432
vn 0.00594088016 -0.0248201303 0.999674261
vn 0.00879264995 -0.0226670299 0.99970448
vn 0.0133199003 -0.0217695199 0.999674261
vn 0.0165614597 -0.0194177497 0.999674261
vn 0.01939518 -0.0165878907 0.999674261
vn 0.0204377193 -0.01316984 0.99970448
vn 0.0235729497 -0.00978319999 0.999674261
vn 0.0248131491 -0.00597473001 0.99967432
vn 0.0245119203 0.00148480001 -0.9996984
vn 0.0242755506 0.00135792 -0.999704421
vn 0.02482084 0.00594046013 -0.99967432
vn 0.0235851798 0.00975036994 -0.99967432
vn 0.0217693001 0.0133201499 -0.99967438
vn 0.0188406091 0.0153665198 -0.99970448
vn 0.0165877305 0.0193954092 -0.999674261
vn 0.0133496802 0.0217512194 -0.99967438
vn 0.00978233013 0.0235717203 -0.99967438
vn 0.00620999001 0.0235062093 -0.99970448
vn 0.00201965007 0.0254410002 -0.999674261
vn -0.00198487006 0.0254436396 -0.99967432
vn -0.00594114 0.0248199999 -0.99967438
vn -0.00879236963 0.0226669796 -0.99970448
vn -0.0133201797 0.0217692703 -0.99967438
vn -0.0165614001 0.0194178205 -0.999674261
vn -0.0193951707 0.0165878292 -0.99967432
vn -0.0204376895 0.0131700402 -0.99970448
vn -0.0235727504 0.00978325959 -0.99967432
vn -0.0248128809 0.00597498985 -0.99967432
vn -0.0254421607 0.00201965007 -0.99967432
vn -0.0242756102 -0.00135780999 -0.99970448
vn -0.0248210002 -0.00594044989 -0.999674261
vn -0.0235850997 -0.00975058973 -0.999674261
vn -0.0217695907 -0.0133200502 -0.999674261
vn -0.0188405793 -0.0153667396 -0.99970448
vn -0.0165878497 -0.0193952397 -0.999674261
vn -0.0133496504 -0.0217513591 -0.99967432
vn -0.00978249032 -0.0235721394 -0.99967432
vn -0.00621001981 -0.0235063508 -0.99970448
vn -0.00201974995 -0.0254415199 -0.99967432
vn 0.0019849001 -0.0254440792 -0.999674261
vn 0.00594094023 -0.0248201508 -0.999674261
vn 0.00879262015 -0.0226670206 -0.99970448
vn 0.0133200902 -0.0217695404 -0.999674261
vn 0.0165615901 -0.0194178298 -0.999674261
vn 0.0193950497 -0.0165878795 -0.99967438
vn 0.0204376895 -0.01317007 -0.999704421
vn 0.0235729106 -0.00978318974 -0.999674261
vn 0.0248131398 -0.0059750299 -0.99967432
vn 0.0236841496 0.000317110011 0.999719441
vn 0.0239893608 0.000112640002 0.999712229
vn 0.0193414893 0.0141913798 0.999712288
vn 0.0189742092 0.0141774202 0.99971956
vn 0.00730607985 0.0228497498 0.999712288
vn 0.00701719988 0.0226226896 0.999719501
vn -0.00752016017 0.0227802601 0.999712288
vn -0.00762035977 0.0224265996 0.99971956
vn -0.0194746796 0.0140087903 0.999712288
vn -0.0193479806 0.0136640603 0.999719441
vn -0.0239893608 -0.00011262 0.999712288
vn -0.0236841999 -0.000317080005 0.999719501
vn -0.0193414502 -0.0141920401 0.999712288
vn -0.0189741794 -0.01417787 0.999719441
vn -0.00730609987 -0.0228498392 0.999712229
vn -0.00701713003 -0.0226226691 0.999719501
vn 0.00752021 -0.0227802601 0.999712288
vn 0.00762041984 -0.0224266499 0.999719501
vn 0.0194745492 -0.0140086301 0.999712288
vn 0.0193478893 -0.0136639597 0.999719501
vn 0.0173341092 -0.00556600979 -0.999834359
vn 0.0172433406 -0.00547232991 -0.999836385
vn 0.0171674192 0.00570785999 -0.999836445
vn 0.0172959305 0.00568541 -0.999834359
vn 0.0180647708 0.0112286303 -0.99977386
vn 0.0184127707 0.0116546499 -0.999762535
vn 0.0105337799 0.0147084603 -0.999836385
vn 0.0106509598 0.0147658503 -0.999834359
vn 0.00801507011 0.0197024792 -0.9997738
vn 0.00804619025 0.0202513803 -0.999762535
vn -0.000123659993 0.0180909 -0.999836445
vn -6.25899993e-05 0.0182062108 -0.999834299
vn -0.00509676011 0.0206504092 -0.9997738
vn -0.00539432978 0.0211129207 -0.999762595
vn -0.0107337702 0.0145625202 -0.999836445
vn -0.0107521303 0.0146917095 -0.999834299
vn -0.0162619092 0.01370956 -0.9997738
vn -0.0167744905 0.0139087597 -0.999762654
vn -0.0172434002 0.00547224982 -0.999836385
vn -0.0173341706 0.00556595018 -0.999834299
vn -0.0212143697 0.00153321004 -0.9997738
vn -0.0217461791 0.00139307999 -0.999762654
vn -0.0171671305 -0.00570786977 -0.999836385
vn -0.0172956996 -0.00568541978 -0.999834359
vn -0.0180647597 -0.0112285502 -0.9997738
vn -0.0184126608 -0.0116544496 -0.999762595
vn -0.01053371 -0.0147084203 -0.999836385
vn -0.0106509104 -0.0147658102 -0.999834299
vn -0.00801484007 -0.0197023302 -0.99977386
vn -0.00804596022 -0.0202513803 -0.999762535
vn 0.000125170001 -0.01808968 -0.999836445
vn 6.40900034e-05 -0.0182049703 -0.999834299
vn 0.00509727979 -0.0206504297 -0.9997738
vn 0.00539472979 -0.0211129095 -0.999762535
vn 0.0107338196 -0.01456236 -0.999836445
vn 0.0107521797 -0.0146915196 -0.999834299
vn 0.0162618607 -0.0137095004 -0.99977386
vn 0.0167744309 -0.0139087103 -0.999762654
vn 0.0167745203 -0.0139083499 0.999762654
vn 0.0107340701 -0.0145621505 0.999836385
vn 0.0162618905 -0.0137091 0.99977386
vn 0.0107524302 -0.01469131 0.999834359
vn 0.00539444992 -0.0211129505 0.999762535
vn 0.000124419996 -0.0180903804 0.999836445
vn 0.00509695988 -0.0206504595 0.9997738
vn 6.33399977e-05 -0.01820568 0.999834299
vn -0.0105337799 -0.0147084203 0.999836445
vn -0.00801475998 -0.0197023209 0.99977386
vn -0.00804589037 -0.0202513598 0.999762535
vn -0.0106509998 -0.0147658102 0.999834359
vn -0.0184115991 -0.0116550904 0.999762654
vn -0.0171662308 -0.00570853008 0.999836385
vn -0.0180637203 -0.0112292096 0.99977386
vn -0.0172947794 -0.00568606984 0.999834359
vn -0.0217460301 0.00139294995 0.999762654
vn -0.0172435492 0.00547213992 0.999836445
vn -0.0212142207 0.00153304997 0.99977386
vn -0.0173343308 0.00556585006 0.999834359
vn -0.0107341204 0.01456213 0.999836385
vn -0.0162617508 0.0137093402 0.9997738
vn -0.01677428 0.0139085799 0.999762654
vn -0.0107524795 0.0146913398 0.999834299
vn -0.00509701017 0.0206501205 0.9997738
vn -0.00539455004 0.0211126599 0.999762535
vn -0.000124579994 0.0180903208 0.999836385
vn -6.35300021e-05 0.0182056408 0.999834299
vn 0.00804468989 0.0202514902 0.999762654
vn 0.0105327396 0.0147089995 0.999836445
vn 0.00801356044 0.0197026096 0.99977386
vn 0.0106499102 0.0147663597 0.999834359
vn 0.0171673205 0.00570785999 0.999836385
vn 0.0180647206 0.0112286098 0.99977386
vn 0.0184127409 0.0116546303 0.999762535
vn 0.0172958393 0.00568541 0.999834299
vn 0.0172435902 -0.00547304982 0.999836445
vn 0.0173343793 -0.00556675997 0.999834359
vn 0.0193477795 -0.0136643499 -0.999719441
vn 0.0194743797 -0.0140089896 -0.999712229
vn 0.00752014015 -0.0227802806 -0.999712229
vn 0.00762034021 -0.0224266592 -0.99971956
vn -0.00701711001 -0.0226226803 -0.999719501
vn -0.00730605004 -0.0228498597 -0.999712229
vn -0.0189742092 -0.01417749 -0.99971956
vn -0.0193415005 -0.0141914301 -0.999712229
vn -0.0236842502 -0.000317099999 -0.999719501
vn -0.0239894092 -0.000112649999 -0.999712229
vn -0.0193477999 0.0136642698 -0.999719441
vn -0.0194743704 0.0140088703 -0.999712288
vn -0.00762024987 0.0224266108 -0.999719501
vn -0.00752006983 0.0227802694 -0.999712288
vn 0.00701719988 0.0226226803 -0.99971956
vn 0.00730611989 0.0228497405 -0.999712229
vn 0.0189742092 0.0141774202 -0.999719501
vn 0.0193415098 0.01419139 -0.999712229
vn 0.0236842502 0.000317149999 -0.999719501
vn 0.0239894409 0.000112679998 -0.999712229
vn 0.0199052598 -0.0150442598 0.999688685
vn 0.0199295208 -0.01506765 0.99968791
vn 0.00725944014 -0.0238722004 0.999688685
vn 0.0072652502 -0.0239053909 0.99968785
vn -0.00815889984 -0.0235799905 0.999688745
vn -0.00817367993 -0.0236102808 0.99968785
vn -0.0204600599 -0.0142819099 0.999688745
vn -0.0204896796 -0.0142976502 0.99968785
vn -0.02494663 0.000472109998 0.999688745
vn -0.0249799397 0.000476729998 0.99968791
vn -0.0199051909 0.01504457 0.999688685
vn -0.0199293606 0.0150679499 0.99968785
vn -0.00725953002 0.02387226 0.999688685
vn -0.00726538012 0.0239054207 0.99968785
vn 0.00815835968 0.0235796794 0.999688685
vn 0.00817302987 0.0236099903 0.99968785
vn 0.0204605795 0.0142809702 0.999688745
vn 0.0204903409 0.0142968101 0.99968791
vn 0.0249801092 -0.000476749992 0.99968785
vn 0.0249467995 -0.000472140004 0.999688685
vn 0.0217461195 -0.00139327999 0.999762654
vn 0.0212143008 -0.00153342995 0.9997738
vn 0.0199292898 -0.0150679303 -0.99968785
vn 0.0199050009 -0.0150445504 -0.999688685
vn 0.00726525998 -0.0239054505 -0.99968785
vn 0.0072594299 -0.02387226 -0.999688685
vn -0.00817359984 -0.0236103106 -0.99968785
vn -0.00815881044 -0.0235800296 -0.999688745
vn -0.0204903502 -0.0142967701 -0.99968785
vn -0.0204606 -0.0142809497 -0.999688685
vn -0.0249800291 0.000476699992 -0.99968785
vn -0.0249467101 0.000472079992 -0.999688685
vn -0.0199292805 0.0150677804 -0.99968785
vn -0.0199049693 0.0150443697 -0.999688685
vn -0.00726532983 0.02390543 -0.99968791
vn -0.00725948019 0.0238722805 -0.999688685
vn 0.00817376003 0.0236101393 -0.99968791
vn 0.00815895014 0.0235797893 -0.999688685
vn 0.0204903707 0.0142968502 -0.99968791
vn 0.0204606205 0.0142810103 -0.999688685
vn 0.0249467604 -0.000472120009 -0.999688685
vn 0.0249800701 -0.000476729998 -0.99968785
vn 0.0217461009 -0.00139312004 -0.999762595
vn 0.0212142896 -0.00153323996 -0.9997738
g 
f 2//2 4//4 3//3
f 6//6 8//8 7//7
f 11//11 8//8 9//9
f 14//14 10//10 11//11
f 16//16 13//13 14//14
f 18//18 20//20 19//19
f 20//20 22//22 19//19
f 21//21 24//24 23//23
f 26//26 25//25 27//27
f 29//29 27//27 30//30
f 32//32 30//30 33//33
f 35//35 32//32 33//33
f 37//37 35//35 38//38
f 40//40 37//37 38//38
f 42//42 41//41 40//40
f 44//44 43//43 42//42
f 47//47 46//46 44//44
f 50//50 49//49 47//47
f 54//54 51//51 50//50
f 53//53 56//56 55//55
f 57//57 55//55 56//56
f 59//59 58//58 57//57
f 59//59 63//63 61//61
f 65//65 64//64 62//62
f 65//65 68//68 66//66
f 67//67 70//70 69//69
f 71//71 72//72 70//70
f 73//73 74//74 72//72
f 76//76 79//79 75//75
f 77//77 81//81 80//80
f 82//82 6//6 7//7
f 85//85 87//87 86//86
f 88//88 83//83 84//84
f 90//90 92//92 91//91
f 93//93 95//95 94//94
f 96//96 95//95 97//97
f 98//98 96//96 97//97
f 101//101 99//99 98//98
f 103//103 101//101 104//104
f 105//105 107//107 106//106
f 107//107 108//108 106//106
f 111//111 109//109 110//110
f 113//113 111//111 114//114
f 114//114 115//115 113//113
f 117//117 118//118 116//116
f 5//5 119//119 4//4
f 3//3 121//121 2//2
f 121//121 124//124 123//123
f 126//126 123//123 124//124
f 128//128 126//126 129//129
f 132//132 128//128 129//129
f 133//133 131//131 132//132
f 138//138 135//135 133//133
f 139//139 137//137 138//138
f 142//142 140//140 139//139
f 144//144 141//141 142//142
f 147//147 144//144 148//148
f 150//150 148//148 151//151
f 153//153 151//151 154//154
f 86//86 154//154 85//85
f 155//155 157//157 156//156
f 157//157 155//155 158//158
f 159//159 161//161 160//160
f 161//161 159//159 162//162
f 163//163 165//165 164//164
f 165//165 163//163 166//166
f 167//167 169//169 168//168
f 168//168 169//169 170//170
f 171//171 173//173 172//172
f 174//174 171//171 172//172
f 175//175 177//177 176//176
f 178//178 175//175 176//176
f 179//179 181//181 180//180
f 182//182 179//179 180//180
f 183//183 185//185 184//184
f 186//186 183//183 184//184
f 187//187 189//189 188//188
f 190//190 187//187 188//188
f 191//191 193//193 192//192
f 194//194 191//191 192//192
f 195//195 197//197 196//196
f 197//197 198//198 196//196
f 199//199 201//201 200//200
f 201//201 202//202 200//200
f 203//203 205//205 204//204
f 205//205 206//206 204//204
f 207//207 209//209 208//208
f 209//209 210//210 208//208
f 211//211 213//213 212//212
f 213//213 214//214 212//212
f 215//215 217//217 216//216
f 217//217 218//218 216//216
f 219//219 221//221 220//220
f 221//221 222//222 220//220
f 223//223 225//225 224//224
f 224//224 226//226 223//223
f 227//227 229//229 228//228
f 229//229 230//230 228//228
f 231//231 233//233 232//232
f 232//232 234//234 231//231
f 235//235 237//237 236//236
f 236//236 238//238 235//235
f 239//239 241//241 240//240
f 239//239 242//242 241//241
f 243//243 245//245 244//244
f 245//245 246//246 244//244
f 247//247 249//249 248//248
f 249//249 250//250 248//248
f 251//251 253//253 252//252
f 253//253 254//254 252//252
f 255//255 257//257 256//256
f 257//257 258//258 256//256
f 259//259 261//261 260//260
f 260//260 262//262 259//259
f 263//263 265//265 264//264
f 264//264 265//265 266//266
f 267//267 269//269 268//268
f 269//269 270//270 268//268
f 271//271 273//273 272//272
f 272//272 273//273 274//274
f 275//275 277//277 276//276
f 278//278 275//275 276//276
f 279//279 281//281 280//280
f 280//280 282//282 279//279
f 283//283 285//285 284//284
f 285//285 286//286 284//284
f 287//287 289//289 288//288
f 289//289 290//290 288//288
f 291//291 293//293 292//292
f 294//294 292//292 293//293
f 295//295 297//297 296//296
f 298//298 295//295 296//296
f 299//299 301//301 300//300
f 302//302 299//299 300//300
f 303//303 305//305 304//304
f 303//303 306//306 305//305
f 307//307 309//309 308//308
f 310//310 309//309 307//307
f 311//311 313//313 312//312
f 313//313 311//311 314//314
f 164//164 157//157 160//160
f 161//161 164//164 160//160
f 159//159 157//157 158//158
f 157//157 159//159 160//160
f 163//163 162//162 158//158
f 162//162 159//159 158//158
f 164//164 161//161 163//163
f 163//163 161//161 162//162
f 173//173 165//165 167//167
f 168//168 173//173 167//167
f 169//169 165//165 166//166
f 169//169 167//167 165//165
f 172//172 170//170 166//166
f 170//170 169//169 166//166
f 173//173 168//168 172//172
f 172//172 168//168 170//170
f 181//181 171//171 177//177
f 175//175 181//181 177//177
f 176//176 171//171 174//174
f 171//171 176//176 177//177
f 180//180 178//178 174//174
f 178//178 176//176 174//174
f 181//181 175//175 180//180
f 180//180 175//175 178//178
f 185//185 189//189 179//179
f 183//183 189//189 185//185
f 179//179 182//182 184//184
f 185//185 179//179 184//184
f 188//188 186//186 182//182
f 186//186 184//184 182//182
f 189//189 183//183 188//188
f 188//188 183//183 186//186
f 193//193 195//195 187//187
f 191//191 195//195 193//193
f 187//187 190//190 192//192
f 193//193 187//187 192//192
f 197//197 194//194 190//190
f 190//190 194//194 192//192
f 195//195 191//191 197//197
f 197//197 191//191 194//194
f 199//199 203//203 196//196
f 203//203 199//199 200//200
f 198//198 201//201 196//196
f 196//196 201//201 199//199
f 205//205 202//202 198//198
f 198//198 202//202 201//201
f 203//203 200//200 205//205
f 205//205 200//200 202//202
f 207//207 211//211 204//204
f 211//211 207//207 208//208
f 209//209 204//204 206//206
f 204//204 209//209 207//207
f 213//213 210//210 206//206
f 206//206 210//210 209//209
f 211//211 208//208 213//213
f 210//210 213//213 208//208
f 219//219 212//212 215//215
f 216//216 219//219 215//215
f 217//217 212//212 214//214
f 212//212 217//217 215//215
f 221//221 218//218 214//214
f 218//218 217//217 214//214
f 219//219 216//216 221//221
f 221//221 216//216 218//218
f 227//227 220//220 225//225
f 223//223 227//227 225//225
f 224//224 220//220 222//222
f 220//220 224//224 225//225
f 229//229 226//226 222//222
f 226//226 224//224 222//222
f 227//227 223//223 229//229
f 229//229 223//223 226//226
f 237//237 228//228 233//233
f 231//231 237//237 233//233
f 230//230 232//232 228//228
f 228//228 232//232 233//233
f 236//236 234//234 230//230
f 234//234 232//232 230//230
f 237//237 231//231 236//236
f 234//234 236//236 231//231
f 240//240 243//243 235//235
f 241//241 243//243 240//240
f 238//238 239//239 235//235
f 239//239 240//240 235//235
f 245//245 242//242 238//238
f 242//242 239//239 238//238
f 241//241 245//245 243//243
f 241//241 242//242 245//245
f 247//247 251//251 244//244
f 248//248 251//251 247//247
f 246//246 249//249 244//244
f 247//247 244//244 249//249
f 253//253 250//250 246//246
f 246//246 250//250 249//249
f 248//248 253//253 251//251
f 250//250 253//253 248//248
f 255//255 261//261 252//252
f 261//261 255//255 256//256
f 254//254 257//257 252//252
f 255//255 252//252 257//257
f 260//260 258//258 254//254
f 254//254 258//258 257//257
f 260//260 261//261 256//256
f 258//258 260//260 256//256
f 263//263 267//267 259//259
f 267//267 263//263 264//264
f 262//262 265//265 259//259
f 265//265 263//263 259//259
f 269//269 266//266 262//262
f 266//266 265//265 262//262
f 264//264 269//269 267//267
f 269//269 264//264 266//266
f 271//271 277//277 268//268
f 277//277 271//271 272//272
f 270//270 273//273 268//268
f 273//273 271//271 268//268
f 276//276 274//274 270//270
f 274//274 273//273 270//270
f 272//272 276//276 277//277
f 276//276 272//272 274//274
f 283//283 275//275 281//281
f 279//279 283//283 281//281
f 278//278 280//280 275//275
f 280//280 281//281 275//275
f 285//285 282//282 278//278
f 282//282 280//280 278//278
f 279//279 285//285 283//283
f 282//282 285//285 279//279
f 291//291 284//284 287//287
f 288//288 291//291 287//287
f 286//286 289//289 284//284
f 289//289 287//287 284//284
f 293//293 290//290 286//286
f 290//290 289//289 286//286
f 291//291 288//288 293//293
f 290//290 293//293 288//288
f 297//297 301//301 292//292
f 295//295 301//301 297//297
f 294//294 296//296 292//292
f 296//296 297//297 292//292
f 300//300 298//298 294//294
f 294//294 298//298 296//296
f 295//295 300//300 301//301
f 298//298 300//300 295//295
f 304//304 308//308 299//299
f 308//308 304//304 305//305
f 302//302 303//303 299//299
f 299//299 303//303 304//304
f 307//307 306//306 302//302
f 302//302 306//306 303//303
f 305//305 307//307 308//308
f 306//306 307//307 305//305
f 312//312 156//156 309//309
f 156//156 312//312 313//313
f 309//309 310//310 311//311
f 312//312 309//309 311//311
f 155//155 314//314 310//310
f 310//310 314//314 311//311
f 313//313 155//155 156//156
f 155//155 313//313 314//314
f 315//315 156//156 157//157
f 316//316 156//156 315//315
f 317//317 157//157 164//164
f 315//315 157//157 317//317
f 318//318 164//164 165//165
f 317//317 164//164 318//318
f 319//319 165//165 173//173
f 318//318 165//165 319//319
f 320//320 173//173 171//171
f 319//319 173//173 320//320
f 321//321 171//171 181//181
f 171//171 321//321 320//320
f 322//322 181//181 179//179
f 181//181 322//322 321//321
f 323//323 179//179 189//189
f 179//179 323//323 322//322
f 324//324 189//189 187//187
f 189//189 324//324 323//323
f 187//187 195//195 325//325
f 324//324 187//187 325//325
f 195//195 196//196 326//326
f 325//325 195//195 326//326
f 196//196 203//203 327//327
f 326//326 196//196 327//327
f 203//203 204//204 328//328
f 327//327 203//203 328//328
f 204//204 211//211 329//329
f 328//328 204//204 329//329
f 330//330 211//211 212//212
f 329//329 211//211 330//330
f 331//331 212//212 219//219
f 330//330 212//212 331//331
f 332//332 219//219 220//220
f 219//219 332//332 331//331
f 333//333 220//220 227//227
f 220//220 333//333 332//332
f 334//334 227//227 228//228
f 227//227 334//334 333//333
f 335//335 228//228 237//237
f 228//228 335//335 334//334
f 336//336 237//237 235//235
f 237//237 336//336 335//335
f 235//235 243//243 337//337
f 336//336 235//235 337//337
f 243//243 244//244 338//338
f 337//337 243//243 338//338
f 244//244 251//251 339//339
f 338//338 244//244 339//339
f 251//251 252//252 340//340
f 339//339 251//251 340//340
f 252//252 261//261 341//341
f 340//340 252//252 341//341
f 342//342 261//261 259//259
f 341//341 261//261 342//342
f 343//343 259//259 267//267
f 342//342 259//259 343//343
f 344//344 267//267 268//268
f 343//343 267//267 344//344
f 345//345 268//268 277//277
f 344//344 268//268 345//345
f 346//346 277//277 275//275
f 345//345 277//277 346//346
f 347//347 275//275 283//283
f 275//275 347//347 346//346
f 348//348 283//283 284//284
f 283//283 348//348 347//347
f 349//349 284//284 291//291
f 284//284 349//349 348//348
f 350//350 291//291 292//292
f 291//291 350//350 349//349
f 292//292 301//301 351//351
f 350//350 292//292 351//351
f 301//301 299//299 352//352
f 351//351 301//301 352//352
f 299//299 308//308 353//353
f 352//352 299//299 353//353
f 308//308 309//309 354//354
f 353//353 308//308 354//354
f 309//309 156//156 316//316
f 354//354 309//309 316//316
f 155//155 355//355 158//158
f 355//355 356//356 158//158
f 158//158 356//356 163//163
f 356//356 357//357 163//163
f 163//163 357//357 166//166
f 357//357 358//358 166//166
f 166//166 358//358 172//172
f 358//358 359//359 172//172
f 172//172 359//359 174//174
f 174//174 359//359 360//360
f 174//174 360//360 180//180
f 180//180 360//360 361//361
f 180//180 361//361 182//182
f 361//361 362//362 182//182
f 182//182 362//362 188//188
f 362//362 363//363 188//188
f 188//188 363//363 190//190
f 363//363 364//364 190//190
f 190//190 364//364 197//197
f 364//364 365//365 197//197
f 197//197 365//365 198//198
f 365//365 366//366 198//198
f 198//198 366//366 205//205
f 366//366 367//367 205//205
f 205//205 367//367 206//206
f 367//367 368//368 206//206
f 206//206 368//368 213//213
f 368//368 369//369 213//213
f 213//213 369//369 214//214
f 369//369 370//370 214//214
f 214//214 370//370 221//221
f 221//221 370//370 371//371
f 221//221 371//371 222//222
f 222//222 371//371 372//372
f 222//222 372//372 229//229
f 229//229 372//372 373//373
f 229//229 373//373 230//230
f 230//230 373//373 374//374
f 230//230 374//374 236//236
f 236//236 374//374 375//375
f 236//236 375//375 238//238
f 375//375 376//376 238//238
f 238//238 376//376 245//245
f 376//376 377//377 245//245
f 245//245 377//377 246//246
f 377//377 378//378 246//246
f 246//246 378//378 253//253
f 378//378 379//379 253//253
f 253//253 379//379 254//254
f 379//379 380//380 254//254
f 254//254 380//380 260//260
f 380//380 381//381 260//260
f 260//260 381//381 262//262
f 381//381 382//382 262//262
f 262//262 382//382 269//269
f 382//382 383//383 269//269
f 269//269 383//383 270//270
f 383//383 384//384 270//270
f 270//270 384//384 276//276
f 384//384 385//385 276//276
f 276//276 385//385 278//278
f 278//278 385//385 386//386
f 278//278 386//386 285//285
f 285//285 386//386 387//387
f 285//285 387//387 286//286
f 286//286 387//387 388//388
f 286//286 388//388 293//293
f 293//293 388//388 389//389
f 293//293 389//389 294//294
f 389//389 390//390 294//294
f 294//294 390//390 300//300
f 390//390 391//391 300//300
f 300//300 391//391 302//302
f 391//391 392//392 302//302
f 302//302 392//392 307//307
f 392//392 393//393 307//307
f 307//307 393//393 310//310
f 393//393 394//394 310//310
f 310//310 394//394 155//155
f 394//394 355//355 155//155
f 395//395 316//316 396//396
f 315//315 396//396 316//316
f 320//320 397//397 319//319
f 398//398 319//319 397//397
f 324//324 399//399 323//323
f 323//323 399//399 400//400
f 328//328 401//401 327//327
f 402//402 327//327 401//401
f 332//332 403//403 331//331
f 404//404 331//331 403//403
f 336//336 405//405 335//335
f 335//335 405//405 406//406
f 340//340 407//407 339//339
f 408//408 339//339 407//407
f 344//344 409//409 343//343
f 410//410 343//343 409//409
f 348//348 411//411 347//347
f 347//347 411//411 412//412
f 352//352 413//413 351//351
f 414//414 351//351 413//413
f 415//415 84//84 416//416
f 84//84 85//85 416//416
f 417//417 419//419 418//418
f 419//419 420//420 418//418
f 421//421 423//423 422//422
f 423//423 424//424 422//422
f 425//425 427//427 426//426
f 426//426 427//427 428//428
f 429//429 431//431 430//430
f 431//431 432//432 430//430
f 433//433 435//435 434//434
f 435//435 436//436 434//434
f 437//437 439//439 438//438
f 438//438 439//439 440//440
f 441//441 443//443 442//442
f 443//443 444//444 442//442
f 445//445 447//447 446//446
f 447//447 448//448 446//446
f 449//449 451//451 450//450
f 450//450 451//451 452//452
f 453//453 455//455 454//454
f 456//456 453//453 454//454
f 457//457 459//459 458//458
f 460//460 457//457 458//458
f 461//461 463//463 462//462
f 464//464 463//463 461//461
f 465//465 467//467 466//466
f 468//468 465//465 466//466
f 469//469 471//471 470//470
f 472//472 469//469 470//470
f 473//473 475//475 474//474
f 475//475 473//473 476//476
f 477//477 479//479 478//478
f 480//480 478//478 479//479
f 481//481 483//483 482//482
f 484//484 481//481 482//482
f 485//485 487//487 486//486
f 487//487 485//485 488//488
f 489//489 81//81 490//490
f 81//81 489//489 6//6
f 491//491 492//492 392//392
f 491//491 392//392 391//391
f 388//388 494//494 493//493
f 494//494 388//388 387//387
f 495//495 496//496 384//384
f 384//384 383//383 495//495
f 497//497 498//498 380//380
f 497//497 380//380 379//379
f 499//499 500//500 376//376
f 499//499 376//376 375//375
f 501//501 502//502 372//372
f 372//372 371//371 501//501
f 503//503 504//504 368//368
f 367//367 503//503 368//368
f 505//505 506//506 364//364
f 505//505 364//364 363//363
f 507//507 508//508 360//360
f 360//360 359//359 507//507
f 509//509 510//510 355//355
f 356//356 355//355 510//510
f 511//511 413//413 512//512
f 413//413 511//511 414//414
f 453//453 512//512 455//455
f 511//511 512//512 453//453
f 513//513 411//411 514//514
f 411//411 513//513 412//412
f 457//457 514//514 459//459
f 457//457 513//513 514//514
f 409//409 516//516 515//515
f 409//409 515//515 410//410
f 463//463 516//516 462//462
f 463//463 515//515 516//516
f 517//517 407//407 518//518
f 407//407 517//517 408//408
f 465//465 518//518 467//467
f 465//465 517//517 518//518
f 519//519 405//405 520//520
f 405//405 519//519 406//406
f 469//469 520//520 471//471
f 469//469 519//519 520//520
f 521//521 403//403 522//522
f 403//403 521//521 404//404
f 475//475 522//522 474//474
f 475//475 521//521 522//522
f 523//523 401//401 524//524
f 401//401 523//523 402//402
f 478//478 524//524 477//477
f 523//523 524//524 478//478
f 525//525 399//399 526//526
f 399//399 525//525 400//400
f 481//481 526//526 483//483
f 481//481 525//525 526//526
f 397//397 528//528 527//527
f 397//397 527//527 398//398
f 487//487 528//528 486//486
f 487//487 527//527 528//528
f 529//529 531//531 530//530
f 531//531 529//529 532//532
f 396//396 530//530 395//395
f 396//396 529//529 530//530
f 533//533 534//534 451//451
f 452//452 451//451 534//534
f 533//533 492//492 491//491
f 533//533 491//491 534//534
f 535//535 536//536 447//447
f 536//536 448//448 447//447
f 493//493 494//494 535//535
f 536//536 535//535 494//494
f 537//537 538//538 443//443
f 538//538 444//444 443//443
f 496//496 495//495 537//537
f 537//537 495//495 538//538
f 539//539 540//540 439//439
f 440//440 439//439 540//540
f 539//539 498//498 497//497
f 539//539 497//497 540//540
f 541//541 542//542 435//435
f 436//436 435//435 542//542
f 541//541 500//500 499//499
f 541//541 499//499 542//542
f 543//543 544//544 431//431
f 544//544 432//432 431//431
f 502//502 501//501 543//543
f 543//543 501//501 544//544
f 545//545 546//546 427//427
f 428//428 427//427 546//546
f 545//545 504//504 503//503
f 545//545 503//503 546//546
f 547//547 548//548 423//423
f 424//424 423//423 548//548
f 547//547 506//506 505//505
f 547//547 505//505 548//548
f 549//549 550//550 419//419
f 550//550 420//420 419//419
f 508//508 507//507 549//549
f 549//549 507//507 550//550
f 551//551 552//552 509//509
f 510//510 509//509 552//552
f 553//553 554//554 551//551
f 552//552 551//551 554//554
f 329//329 330//330 370//370
f 369//369 329//329 370//370
f 371//371 330//330 331//331
f 330//330 371//371 370//370
f 501//501 331//331 404//404
f 331//331 501//501 371//371
f 404//404 521//521 544//544
f 404//404 544//544 501//501
f 521//521 475//475 432//432
f 521//521 432//432 544//544
f 475//475 476//476 430//430
f 475//475 430//430 432//432
f 33//33 129//129 35//35
f 35//35 129//129 126//126
f 33//33 30//30 132//132
f 129//129 33//33 132//132
f 479//479 477//477 425//425
f 425//425 477//477 427//427
f 524//524 545//545 477//477
f 545//545 427//427 477//477
f 504//504 524//524 401//401
f 545//545 524//524 504//504
f 401//401 328//328 368//368
f 401//401 368//368 504//504
f 329//329 369//369 328//328
f 368//368 328//328 369//369
f 325//325 326//326 366//366
f 365//365 325//325 366//366
f 326//326 327//327 367//367
f 326//326 367//367 366//366
f 503//503 327//327 402//402
f 327//327 503//503 367//367
f 402//402 523//523 546//546
f 402//402 546//546 503//503
f 523//523 478//478 428//428
f 523//523 428//428 546//546
f 478//478 480//480 426//426
f 478//478 426//426 428//428
f 25//25 138//138 27//27
f 27//27 138//138 133//133
f 25//25 21//21 139//139
f 138//138 25//25 139//139
f 482//482 483//483 421//421
f 421//421 483//483 423//423
f 526//526 547//547 483//483
f 423//423 483//483 547//547
f 399//399 506//506 526//526
f 547//547 526//526 506//506
f 364//364 399//399 324//324
f 506//506 399//399 364//364
f 365//365 324//324 325//325
f 324//324 365//365 364//364
f 322//322 362//362 321//321
f 362//362 361//361 321//321
f 323//323 363//363 322//322
f 362//362 322//322 363//363
f 323//323 400//400 505//505
f 363//363 323//323 505//505
f 548//548 400//400 525//525
f 400//400 548//548 505//505
f 424//424 525//525 481//481
f 525//525 424//424 548//548
f 422//422 481//481 484//484
f 481//481 422//422 424//424
f 20//20 16//16 144//144
f 144//144 142//142 20//20
f 16//16 14//14 148//148
f 16//16 148//148 144//144
f 485//485 486//486 417//417
f 417//417 486//486 419//419
f 486//486 528//528 549//549
f 419//419 486//486 549//549
f 397//397 508//508 528//528
f 508//508 549//549 528//528
f 320//320 360//360 397//397
f 508//508 397//397 360//360
f 361//361 320//320 321//321
f 320//320 361//361 360//360
f 318//318 358//358 317//317
f 357//357 317//317 358//358
f 359//359 318//318 319//319
f 358//358 318//318 359//359
f 319//319 398//398 507//507
f 359//359 319//319 507//507
f 398//398 527//527 550//550
f 398//398 550//550 507//507
f 527//527 487//487 420//420
f 527//527 420//420 550//550
f 487//487 488//488 418//418
f 487//487 418//418 420//420
f 11//11 9//9 154//154
f 151//151 11//11 154//154
f 9//9 6//6 85//85
f 9//9 85//85 154//154
f 416//416 6//6 489//489
f 416//416 85//85 6//6
f 529//529 552//552 532//532
f 552//552 554//554 532//532
f 396//396 510//510 529//529
f 552//552 529//529 510//510
f 396//396 315//315 356//356
f 396//396 356//356 510//510
f 357//357 315//315 317//317
f 315//315 357//357 356//356
f 354//354 394//394 353//353
f 394//394 393//393 353//353
f 316//316 355//355 354//354
f 394//394 354//354 355//355
f 316//316 395//395 509//509
f 509//509 355//355 316//316
f 530//530 551//551 395//395
f 395//395 551//551 509//509
f 553//553 530//530 531//531
f 530//530 553//553 551//551
f 81//81 415//415 490//490
f 84//84 415//415 81//81
f 81//81 78//78 88//88
f 84//84 81//81 88//88
f 78//78 76//76 92//92
f 78//78 92//92 88//88
f 455//455 449//449 454//454
f 451//451 449//449 455//455
f 455//455 512//512 533//533
f 455//455 533//533 451//451
f 512//512 413//413 492//492
f 512//512 492//492 533//533
f 413//413 352//352 392//392
f 492//492 413//413 392//392
f 393//393 352//352 353//353
f 352//352 393//393 392//392
f 333//333 334//334 374//374
f 373//373 333//333 374//374
f 334//334 335//335 375//375
f 334//334 375//375 374//374
f 335//335 406//406 499//499
f 335//335 499//499 375//375
f 406//406 519//519 542//542
f 406//406 542//542 499//499
f 469//469 436//436 519//519
f 436//436 542//542 519//519
f 434//434 469//469 472//472
f 436//436 469//469 434//434
f 40//40 122//122 42//42
f 122//122 3//3 42//42
f 38//38 124//124 40//40
f 122//122 40//40 124//124
f 473//473 474//474 429//429
f 429//429 474//474 431//431
f 522//522 543//543 474//474
f 431//431 474//474 543//543
f 403//403 502//502 522//522
f 543//543 522//522 502//502
f 332//332 372//372 403//403
f 502//502 403//403 372//372
f 333//333 373//373 332//332
f 372//372 332//332 373//373
f 378//378 337//337 338//338
f 337//337 378//378 377//377
f 338//338 339//339 379//379
f 338//338 379//379 378//378
f 497//497 339//339 408//408
f 497//497 379//379 339//339
f 517//517 540//540 408//408
f 408//408 540//540 497//497
f 440//440 517//517 465//465
f 540//540 517//517 440//440
f 438//438 465//465 468//468
f 465//465 438//438 440//440
f 47//47 119//119 50//50
f 119//119 117//117 50//50
f 44//44 4//4 47//47
f 119//119 47//47 4//4
f 471//471 433//433 470//470
f 435//435 433//433 471//471
f 520//520 541//541 471//471
f 471//471 541//541 435//435
f 405//405 500//500 520//520
f 541//541 520//520 500//500
f 336//336 376//376 405//405
f 405//405 376//376 500//500
f 336//336 337//337 377//377
f 377//377 376//376 336//336
f 342//342 382//382 341//341
f 381//381 341//341 382//382
f 342//342 343//343 383//383
f 383//383 382//382 342//342
f 410//410 495//495 343//343
f 495//495 383//383 343//343
f 538//538 410//410 515//515
f 495//495 410//410 538//538
f 463//463 444//444 515//515
f 515//515 444//444 538//538
f 464//464 442//442 463//463
f 444//444 463//463 442//442
f 56//56 111//111 57//57
f 111//111 110//110 57//57
f 54//54 114//114 56//56
f 111//111 56//56 114//114
f 467//467 437//437 466//466
f 439//439 437//437 467//467
f 467//467 518//518 539//539
f 467//467 539//539 439//439
f 407//407 498//498 518//518
f 518//518 498//498 539//539
f 380//380 407//407 340//340
f 407//407 380//380 498//498
f 381//381 340//340 341//341
f 340//340 381//381 380//380
f 345//345 346//346 386//386
f 386//386 385//385 345//345
f 387//387 346//346 347//347
f 387//387 386//386 346//346
f 412//412 494//494 347//347
f 494//494 387//387 347//347
f 513//513 536//536 412//412
f 536//536 494//494 412//412
f 457//457 448//448 513//513
f 448//448 536//536 513//513
f 460//460 446//446 457//457
f 446//446 448//448 457//457
f 65//65 62//62 104//104
f 104//104 101//101 65//65
f 107//107 62//62 59//59
f 62//62 107//107 104//104
f 461//461 462//462 441//441
f 443//443 441//441 462//462
f 462//462 516//516 537//537
f 462//462 537//537 443//443
f 496//496 516//516 409//409
f 496//496 537//537 516//516
f 409//409 344//344 384//384
f 409//409 384//384 496//496
f 345//345 385//385 344//344
f 385//385 384//384 344//344
f 390//390 349//349 350//350
f 389//389 349//349 390//390
f 351//351 391//391 350//350
f 350//350 391//391 390//390
f 414//414 491//491 351//351
f 491//491 391//391 351//351
f 511//511 534//534 414//414
f 534//534 491//491 414//414
f 453//453 452//452 511//511
f 511//511 452//452 534//534
f 456//456 450//450 453//453
f 452//452 453//453 450//450
f 73//73 71//71 97//97
f 97//97 95//95 73//73
f 71//71 67//67 98//98
f 71//71 98//98 97//97
f 459//459 445//445 458//458
f 459//459 447//447 445//445
f 514//514 535//535 459//459
f 459//459 535//535 447//447
f 493//493 514//514 411//411
f 514//514 493//493 535//535
f 388//388 411//411 348//348
f 411//411 388//388 493//493
f 389//389 348//348 349//349
f 389//389 388//388 348//348
f 133//133 132//132 425//425
f 426//426 133//133 425//425
f 30//30 479//479 425//425
f 425//425 132//132 30//30
f 479//479 30//30 480//480
f 27//27 480//480 30//30
f 480//480 27//27 426//426
f 133//133 426//426 27//27
f 142//142 139//139 421//421
f 422//422 142//142 421//421
f 21//21 482//482 421//421
f 421//421 139//139 21//21
f 482//482 21//21 484//484
f 20//20 484//484 21//21
f 422//422 484//484 20//20
f 20//20 142//142 422//422
f 417//417 151//151 148//148
f 151//151 417//417 418//418
f 14//14 485//485 417//417
f 14//14 417//417 148//148
f 485//485 14//14 488//488
f 488//488 14//14 11//11
f 488//488 11//11 418//418
f 151//151 418//418 11//11
f 531//531 490//490 415//415
f 531//531 415//415 553//553
f 490//490 531//531 489//489
f 532//532 489//489 531//531
f 489//489 532//532 416//416
f 416//416 532//532 554//554
f 553//553 415//415 554//554
f 554//554 415//415 416//416
f 95//95 92//92 449//449
f 450//450 95//95 449//449
f 449//449 76//76 454//454
f 449//449 92//92 76//76
f 454//454 76//76 456//456
f 73//73 456//456 76//76
f 456//456 73//73 450//450
f 73//73 95//95 450//450
f 445//445 101//101 98//98
f 101//101 445//445 446//446
f 445//445 67//67 458//458
f 445//445 98//98 67//67
f 458//458 67//67 460//460
f 65//65 460//460 67//67
f 65//65 446//446 460//460
f 65//65 101//101 446//446
f 441//441 110//110 107//107
f 110//110 441//441 442//442
f 441//441 59//59 461//461
f 59//59 441//441 107//107
f 461//461 59//59 464//464
f 464//464 59//59 57//57
f 57//57 442//442 464//464
f 57//57 110//110 442//442
f 117//117 114//114 437//437
f 438//438 117//117 437//437
f 437//437 54//54 466//466
f 437//437 114//114 54//54
f 466//466 54//54 468//468
f 50//50 468//468 54//54
f 468//468 50//50 438//438
f 50//50 117//117 438//438
f 3//3 4//4 433//433
f 3//3 433//433 434//434
f 433//433 44//44 470//470
f 433//433 4//4 44//44
f 470//470 44//44 472//472
f 42//42 472//472 44//44
f 472//472 42//42 434//434
f 42//42 3//3 434//434
f 429//429 126//126 124//124
f 126//126 429//429 430//430
f 38//38 473//473 429//429
f 38//38 429//429 124//124
f 473//473 38//38 476//476
f 35//35 476//476 38//38
f 476//476 35//35 430//430
f 126//126 430//430 35//35
f 89//89 80//80 83//83
f 91//91 79//79 90//90
f 70//70 94//94 96//96
f 102//102 96//96 99//99
f 66//66 102//102 100//100
f 103//103 66//66 100//100
f 63//63 60//60 61//61
f 108//108 58//58 60//60
f 53//53 115//115 52//52
f 116//116 52//52 115//115
f 51//51 48//48 49//49
f 48//48 45//45 46//46
f 2//2 45//45 1//1
f 41//41 39//39 37//37
f 36//36 127//127 125//125
f 36//36 34//34 32//32
f 34//34 31//31 29//29
f 135//135 31//31 134//134
f 140//140 136//136 137//137
f 19//19 143//143 141//141
f 145//145 19//19 141//141
f 147//147 17//17 146//146
f 150//150 15//15 149//149
f 86//86 152//152 153//153
f 83//83 82//82 87//87
f 82//82 83//83 80//80
f 7//7 8//8 82//82
f 82//82 8//8 87//87
f 87//87 8//8 12//12
f 87//87 12//12 86//86
f 86//86 12//12 152//152
f 12//12 10//10 152//152
f 152//152 10//10 150//150
f 150//150 10//10 15//15
f 15//15 13//13 149//149
f 149//149 13//13 147//147
f 147//147 13//13 17//17
f 17//17 18//18 146//146
f 146//146 18//18 145//145
f 145//145 18//18 19//19
f 143//143 19//19 22//22
f 23//23 24//24 22//22
f 22//22 24//24 143//143
f 143//143 24//24 28//28
f 143//143 28//28 140//140
f 140//140 28//28 136//136
f 135//135 136//136 26//26
f 26//26 136//136 28//28
f 135//135 26//26 31//31
f 131//131 134//134 130//130
f 130//130 134//134 34//34
f 34//34 134//134 31//31
f 128//128 130//130 125//125
f 125//125 130//130 36//36
f 36//36 130//130 34//34
f 127//127 36//36 39//39
f 123//123 127//127 121//121
f 121//121 127//127 41//41
f 41//41 127//127 39//39
f 2//2 121//121 43//43
f 43//43 121//121 41//41
f 2//2 43//43 45//45
f 5//5 1//1 120//120
f 120//120 1//1 48//48
f 48//48 1//1 45//45
f 118//118 120//120 116//116
f 116//116 120//120 51//51
f 51//51 120//120 48//48
f 52//52 116//116 51//51
f 112//112 113//113 55//55
f 55//55 113//113 53//53
f 53//53 113//113 115//115
f 109//109 112//112 55//55
f 109//109 55//55 58//58
f 109//109 58//58 108//108
f 106//106 108//108 105//105
f 105//105 108//108 63//63
f 63//63 108//108 60//60
f 63//63 64//64 105//105
f 105//105 64//64 103//103
f 103//103 64//64 66//66
f 102//102 66//66 68//68
f 69//69 70//70 68//68
f 68//68 70//70 102//102
f 102//102 70//70 96//96
f 70//70 72//72 94//94
f 94//94 72//72 93//93
f 93//93 72//72 74//74
f 74//74 75//75 93//93
f 93//93 75//75 91//91
f 91//91 75//75 79//79
f 79//79 77//77 90//90
f 90//90 77//77 89//89
f 89//89 77//77 80//80
f 154//154 86//86 153//153
f 152//152 150//150 151//151
f 152//152 151//151 153//153
f 149//149 147//147 148//148
f 149//149 148//148 150//150
f 145//145 144//144 146//146
f 146//146 144//144 147//147
f 141//141 144//144 145//145
f 141//141 143//143 142//142
f 142//142 143//143 140//140
f 137//137 139//139 140//140
f 136//136 135//135 138//138
f 136//136 138//138 137//137
f 133//133 135//135 134//134
f 133//133 134//134 131//131
f 130//130 128//128 132//132
f 130//130 132//132 131//131
f 126//126 128//128 125//125
f 125//125 127//127 126//126
f 126//126 127//127 123//123
f 124//124 121//121 122//122
f 121//121 3//3 122//122
f 120//120 118//118 119//119
f 120//120 119//119 5//5
f 118//118 117//117 119//119
f 114//114 117//117 116//116
f 114//114 116//116 115//115
f 111//111 113//113 112//112
f 109//109 111//111 112//112
f 107//107 110//110 109//109
f 107//107 109//109 108//108
f 105//105 103//103 104//104
f 105//105 104//104 107//107
f 101//101 103//103 100//100
f 100//100 102//102 101//101
f 101//101 102//102 99//99
f 96//96 98//98 99//99
f 95//95 96//96 94//94
f 91//91 92//92 95//95
f 91//91 95//95 93//93
f 90//90 89//89 92//92
f 92//92 89//89 88//88
f 83//83 88//88 89//89
f 83//83 87//87 85//85
f 83//83 85//85 84//84
f 81//81 6//6 80//80
f 80//80 6//6 82//82
f 81//81 77//77 78//78
f 77//77 79//79 76//76
f 77//77 76//76 78//78
f 73//73 76//76 75//75
f 73//73 75//75 74//74
f 72//72 71//71 73//73
f 70//70 67//67 71//71
f 67//67 69//69 65//65
f 65//65 69//69 68//68
f 64//64 65//65 66//66
f 62//62 64//64 63//63
f 62//62 63//63 59//59
f 59//59 61//61 60//60
f 59//59 60//60 58//58
f 55//55 57//57 58//58
f 56//56 53//53 54//54
f 52//52 51//51 54//54
f 52//52 54//54 53//53
f 49//49 50//50 51//51
f 47//47 49//49 48//48
f 47//47 48//48 46//46
f 44//44 46//46 45//45
f 44//44 45//45 43//43
f 41//41 42//42 43//43
f 37//37 40//40 41//41
f 37//37 39//39 35//35
f 35//35 39//39 36//36
f 32//32 35//35 36//36
f 32//32 34//34 30//30
f 30//30 34//34 29//29
f 29//29 31//31 27//27
f 27//27 31//31 26//26
f 26//26 28//28 25//25
f 25//25 28//28 24//24
f 24//24 21//21 25//25
f 21//21 23//23 20//20
f 20//20 23//23 22//22
f 20//20 18//18 16//16
f 16//16 18//18 17//17
f 16//16 17//17 13//13
f 13//13 15//15 14//14
f 14//14 15//15 10//10
f 10//10 12//12 11//11
f 11//11 12//12 8//8
f 8//8 6//6 9//9
f 1//1 5//5 4//4
f 1//1 4//4 2//2
