# File exported by Houdini 20.5.445 (www.sidefx.com)
# 581 points
# 3606 vertices
# 1202 primitives
# Bounds: [-1.25685155, 0.397208452, 0.05200845] to [0.122633025, 1.77775049, 0.143378451]
g 
v 0.0458164215 1.18607712 0.0639229417
v 0.0458164215 1.18607712 0.131463945
v 0.0230445899 1.28092742 0.131463885
v 0.0230445899 1.28092742 0.0639230013
v -0.0652518272 1.45421982 0.131464005
v -0.0142846098 1.37104869 0.0639228821
v -0.0142846098 1.37104869 0.131464005
v -0.0652518272 1.45421982 0.0639228821
v -0.20277667 1.59174538 0.131464005
v -0.128602505 1.52839303 0.0639228821
v -0.128602505 1.52839303 0.131464005
v -0.20277667 1.59174538 0.0639228821
v -0.376067877 1.68004155 0.131464005
v -0.2859478 1.64271045 0.0639228821
v -0.2859478 1.64271045 0.131464005
v -0.376067877 1.68004155 0.0639228821
v -0.56816256 1.71046519 0.131464005
v -0.470917821 1.70281196 0.0639228821
v -0.470917821 1.70281196 0.131464005
v -0.56816256 1.71046519 0.0639228821
v -0.66540724 1.70281196 0.131464005
v -0.760257423 1.68004179 0.131464005
v -0.66540724 1.70281196 0.0639228821
v -0.760257423 1.68004155 0.0639228821
v -0.850377679 1.64271045 0.131464005
v -0.933548689 1.59174538 0.131464005
v -0.85037756 1.64271045 0.0639228821
v -0.933548689 1.59174538 0.0639228821
v -1.00772285 1.52839303 0.131464005
v -1.07107353 1.45421982 0.131464005
v -1.00772262 1.52839303 0.0639228821
v -1.07107353 1.45421982 0.0639228821
v -1.15936995 1.28092933 0.131463885
v -1.12204099 1.37104869 0.0639228821
v -1.12204099 1.37104869 0.131464005
v -1.15936995 1.28092933 0.0639230013
v -1.1821413 1.18607736 0.0639229417
v -1.1821413 1.18607724 0.131463945
v -1.18979454 1.08883321 0.131463915
v -1.18979454 1.08883309 0.0639229491
v -1.1821413 0.991588652 0.131463945
v -1.15936995 0.89673847 0.131463885
v -1.1821413 0.991588652 0.0639229417
v -1.15936995 0.89673847 0.0639230013
v -1.12204099 0.806618035 0.131464005
v -1.07107353 0.723447025 0.131464005
v -1.12204099 0.806618035 0.0639228821
v -1.07107353 0.723447025 0.0639228821
v -1.00772285 0.649273336 0.131464005
v -0.933548927 0.585922658 0.131464005
v -1.00772285 0.649273336 0.0639228821
v -0.933548808 0.585922658 0.0639228821
v -0.760257602 0.497626007 0.131464005
v -0.850377679 0.534955204 0.0639228821
v -0.850377798 0.534955144 0.131464005
v -0.760257602 0.497626007 0.0639228821
v -0.665407419 0.474855721 0.131464005
v -0.568162739 0.467202604 0.131464005
v -0.665407419 0.474855721 0.0639228821
v -0.568162739 0.467202604 0.0639228821
v -0.376067877 0.497626007 0.131464005
v -0.470918059 0.474855721 0.0639228821
v -0.470918059 0.474855721 0.131464005
v -0.376067877 0.497626007 0.0639228821
v -0.2859478 0.534955025 0.131464005
v -0.20277667 0.585922539 0.131464005
v -0.2859478 0.534955204 0.0639228821
v -0.20277667 0.585922599 0.0639228821
v -0.128602505 0.649273217 0.131464005
v -0.0652520731 0.723447025 0.131464005
v -0.12860322 0.649273336 0.0639228821
v -0.0652520731 0.723447025 0.0639228821
v 0.0230445899 0.89673835 0.131463885
v -0.0142846098 0.806618035 0.0639228821
v -0.0142846098 0.806617975 0.131464005
v 0.0230445899 0.89673835 0.0639230013
v 0.045814991 0.991588652 0.0639229417
v 0.045814991 0.991588652 0.131463945
v 0.0534682311 1.08883321 0.131463915
v 0.0534682311 1.08883309 0.0639229491
v -0.060168501 1.25388992 0.133690834
v -0.0406017303 1.17239141 0.133690834
v -0.092243433 1.33132553 0.133690834
v -0.136036634 1.40279078 0.133690834
v -0.190470934 1.46652436 0.133690834
v -0.25420475 1.5209589 0.133690834
v -0.325669527 1.56475258 0.133690834
v -0.40310514 1.59682703 0.133690834
v -0.484605193 1.61639333 0.133690834
v -0.56816262 1.62296915 0.133690834
v -0.651720047 1.61639333 0.133690834
v -0.733219922 1.59682703 0.133690834
v -0.810655713 1.56475258 0.133690834
v -0.882120371 1.5209589 0.133690834
v -0.945854425 1.4665246 0.133690834
v -1.00028849 1.40279078 0.133690834
v -1.04408216 1.33132577 0.133690834
v -1.07615709 1.25389016 0.133690834
v -1.09572339 1.17239141 0.133690834
v -1.10229945 1.08883321 0.133690834
v -1.09572339 1.00527525 0.133690834
v -1.07615709 0.923775852 0.133690834
v -1.04408216 0.846340239 0.133690834
v -1.00028849 0.774875581 0.133690834
v -0.945854425 0.711141467 0.133690834
v -0.882120609 0.656707704 0.133690834
v -0.810655832 0.612913907 0.133690834
v -0.7332201 0.580838978 0.133690834
v -0.651720166 0.56127274 0.133690834
v -0.568162739 0.554696679 0.133690834
v -0.484605312 0.56127274 0.133690834
v -0.403105617 0.580838978 0.133690834
v -0.325669765 0.612913907 0.133690834
v -0.254205465 0.656707585 0.133690834
v -0.190471172 0.711141407 0.133690834
v -0.13603735 0.774875581 0.133690834
v -0.0922436714 0.846340179 0.133690834
v -0.060168501 0.923775792 0.133690834
v -0.0406022109 1.00527525 0.133690834
v -0.0340261497 1.08883321 0.133690834
v -0.0406017303 1.17239141 0.0616960488
v -0.060168501 1.25388992 0.0616960488
v -0.0922436714 1.33132553 0.0616960488
v -0.136036634 1.40279078 0.0616960488
v -0.190471172 1.46652424 0.0616960488
v -0.25420475 1.5209589 0.0616960488
v -0.325669527 1.56475258 0.0616960488
v -0.40310514 1.59682703 0.0616960488
v -0.484605193 1.61639333 0.0616960488
v -0.56816262 1.62296927 0.0616960488
v -0.651720047 1.61639333 0.0616960488
v -0.733219922 1.59682703 0.0616960488
v -0.810655713 1.56475258 0.0616960488
v -0.882120371 1.5209589 0.0616960488
v -0.945854425 1.4665246 0.0616960488
v -1.00028849 1.40279078 0.0616960488
v -1.04408216 1.33132565 0.0616960488
v -1.07615709 1.25389016 0.0616960488
v -1.09572339 1.17239141 0.0616960488
v -1.10229945 1.08883321 0.061696019
v -1.09572339 1.00527537 0.0616960488
v -1.07615709 0.923775911 0.0616960488
v -1.04408216 0.846340299 0.0616960488
v -1.00028849 0.774875641 0.0616960488
v -0.945854425 0.711141467 0.0616960488
v -0.88212049 0.656707764 0.0616960488
v -0.810655713 0.612913966 0.0616960488
v -0.7332201 0.580838919 0.0616960488
v -0.651720166 0.56127274 0.0616960488
v -0.568162739 0.554696679 0.0616960488
v -0.484605312 0.56127274 0.0616960488
v -0.403105617 0.580838919 0.0616960488
v -0.325669765 0.612913966 0.0616960488
v -0.254205465 0.656707644 0.0616960488
v -0.190471172 0.711141467 0.0616960488
v -0.136037588 0.774875641 0.0616960488
v -0.0922436714 0.846340179 0.0616960488
v -0.060168501 0.923775792 0.0616960488
v -0.0406022109 1.00527525 0.0616960488
v -0.0340261497 1.08883321 0.061696019
v -0.13881135 1.18647599 0.135767758
v -0.15937233 1.25243962 0.136038661
v -0.333609819 1.46147466 0.136038542
v -0.278203011 1.42019439 0.135767698
v -0.597438574 1.5281744 0.136038542
v -0.528350234 1.52734494 0.135767698
v -0.85008502 1.4270587 0.136038542
v -0.793704033 1.46699667 0.135767698
v -0.995046854 1.1967535 0.136038601
v -0.972908974 1.262205 0.135767817
v -0.976953268 0.925226629 0.136038661
v -0.997514248 0.991189063 0.135767758
v -0.802716017 0.716191173 0.136038542
v -0.85812211 0.757471681 0.135767698
v -0.538886726 0.649492919 0.136038542
v -0.607975185 0.650321782 0.135767698
v -0.286240339 0.750607133 0.136038542
v -0.342621326 0.710668802 0.135767698
v -0.141278744 0.980912983 0.136038601
v -0.163416624 0.9154616 0.135767817
v -0.407508731 1.14463568 0.0536834896
v -0.41821599 1.16908026 0.05349195
v -0.481126666 1.10328329 0.0524973311
v -0.489851594 1.12947106 0.0520084798
v -0.494021535 1.24189115 0.05349195
v -0.470990777 1.22840858 0.0536835194
v -0.454911113 1.31474352 0.0546139516
v -0.420965314 1.29424667 0.0548696518
v -0.598146319 1.25623894 0.05349195
v -0.571589112 1.25886822 0.0536835194
v -0.609327316 1.33816695 0.0546139516
v -0.569815993 1.34153557 0.0548696518
v -0.690818548 1.20664334 0.05349195
v -0.670878887 1.22438049 0.0536835194
v -0.748019874 1.26635146 0.0546139516
v -0.71803546 1.29230189 0.0548696518
v -0.736640334 1.11204815 0.0534919612
v -0.730934501 1.13811791 0.0536834896
v -0.818013191 1.12673116 0.0546139516
v -0.809008479 1.16534948 0.0548696518
v -0.718109488 1.00858593 0.05349195
v -0.728816748 1.03303039 0.0536834896
v -0.792572021 0.972634792 0.0546139516
v -0.807986498 1.00917041 0.0548696518
v -0.642304003 0.93577522 0.05349195
v -0.665334821 0.949258208 0.0536835194
v -0.681414008 0.862922311 0.0546139516
v -0.715360045 0.883420467 0.0548696518
v -0.538179278 0.921427548 0.05349195
v -0.564736485 0.918798327 0.0536835194
v -0.526998162 0.839499831 0.0546139516
v -0.566509366 0.836130261 0.0548696518
v -0.445507169 0.971022904 0.05349195
v -0.46544677 0.953286052 0.0536834002
v -0.388305902 0.911314011 0.0546139516
v -0.418290138 0.885364294 0.0548696518
v -0.399685264 1.06561804 0.0534919612
v -0.405391097 1.03954816 0.0536834896
v -0.318312168 1.05093431 0.054613959
v -0.327316999 1.01231611 0.0548696518
v -0.318312168 1.05093431 0.140772909
v -0.327316761 1.01231563 0.140517235
v -0.399685264 1.06561804 0.141894907
v -0.405391097 1.03954792 0.141703397
v -0.418290138 0.885364115 0.140517235
v -0.445507169 0.971022904 0.141894937
v -0.388305783 0.911314011 0.140772939
v -0.46544677 0.953285992 0.141703427
v -0.538179278 0.921427488 0.141894937
v -0.526998162 0.839499831 0.140772939
v -0.566509366 0.836130261 0.140517235
v -0.564736485 0.918798268 0.141703367
v -0.642304003 0.93577522 0.141894937
v -0.681414008 0.86292237 0.140772939
v -0.715360045 0.883420408 0.140517235
v -0.665334821 0.949258149 0.141703427
v -0.807986498 1.00917041 0.140517235
v -0.718109488 1.00858593 0.141894907
v -0.792572021 0.972634792 0.140772939
v -0.728816748 1.03303027 0.141703397
v -0.809008479 1.16534948 0.140517235
v -0.736640334 1.11204815 0.141894922
v -0.818013191 1.12673116 0.140772909
v -0.730934501 1.13811791 0.141703427
v -0.690818548 1.20664334 0.141894877
v -0.748019934 1.26635146 0.140772939
v -0.71803546 1.29230189 0.140517235
v -0.670878887 1.22438049 0.141703367
v -0.569816053 1.34153581 0.140517235
v -0.598146319 1.25623894 0.141894937
v -0.609327316 1.33816695 0.14077282
v -0.571589172 1.25886846 0.141703367
v -0.494021535 1.24189115 0.141894937
v -0.454911113 1.31474352 0.140772939
v -0.420965314 1.29424667 0.140517235
v -0.470990777 1.22840858 0.141703367
v -0.41821599 1.16908014 0.141894937
v -0.40750885 1.14463568 0.141703367
v -0.481126666 1.10328329 0.142889559
v -0.489851594 1.12947106 0.143378437
v -0.163416624 0.915461719 0.0596190691
v -0.141278744 0.980912924 0.0593482293
v -0.286240339 0.750607252 0.0593483411
v -0.342621326 0.7106691 0.0596191883
v -0.607975185 0.650321782 0.0596191883
v -0.538886726 0.649492979 0.0593483411
v -0.85812211 0.75747174 0.0596191883
v -0.802715898 0.716191292 0.0593483411
v -0.997514248 0.991189063 0.0596191287
v -0.976953268 0.925226688 0.0593482293
v -0.995046854 1.1967535 0.0593482293
v -0.972908974 1.26220512 0.0596190691
v -0.793703914 1.46699667 0.0596191883
v -0.850085139 1.4270587 0.0593483411
v -0.528350234 1.52734494 0.0596191883
v -0.597438574 1.5281744 0.0593483411
v -0.278203011 1.42019439 0.0596191883
v -0.333609819 1.46147466 0.0593483411
v -0.138811111 1.18647599 0.0596191287
v -0.15937233 1.25243962 0.0593482293
v -0.242675066 0.969971776 0.138135552
v -0.228088856 1.02235246 0.13843438
v -0.374702692 0.801355183 0.138135433
v -0.332113028 0.835158467 0.13843441
v -0.580625534 0.742545843 0.138135433
v -0.526300728 0.744859219 0.13843441
v -0.781787753 0.816006243 0.138135552
v -0.736478209 0.785946727 0.13843441
v -0.901352882 0.993677974 0.138135552
v -0.882364988 0.942726076 0.13843441
v -0.893650413 1.20769405 0.138135552
v -0.908237219 1.15531325 0.13843441
v -0.761622787 1.3763113 0.138135433
v -0.804212451 1.34250784 0.13843441
v -0.555700004 1.43512011 0.138135433
v -0.610024571 1.43280625 0.13843441
v -0.354537725 1.36165953 0.138135433
v -0.399847269 1.39171982 0.13843441
v -0.253960371 1.23493958 0.13843441
v -0.234972715 1.18398857 0.138135552
v -0.328338861 1.16849494 0.140517235
v -0.343753338 1.20503068 0.140772939
v -0.228088856 1.02235246 0.05695251
v -0.242675066 0.969971955 0.0572513305
v -0.332113266 0.835158348 0.0569524802
v -0.374702692 0.801355302 0.0572514497
v -0.526300728 0.744859338 0.0569524802
v -0.580625534 0.742545903 0.0572514497
v -0.736478209 0.785946727 0.0569524802
v -0.781787753 0.816006243 0.0572514497
v -0.882364988 0.942726135 0.0569524802
v -0.901352882 0.993677914 0.0572513305
v -0.908237219 1.15531325 0.0569525398
v -0.893650413 1.20769405 0.0572513305
v -0.761622787 1.3763113 0.0572514497
v -0.804212451 1.34250784 0.0569524802
v -0.610024571 1.43280625 0.0569524802
v -0.555700004 1.43511987 0.0572514497
v -0.399847269 1.3917197 0.0569524802
v -0.354537725 1.36165953 0.0572514497
v -0.234972715 1.18398857 0.0572513305
v -0.253960371 1.23493958 0.0569524802
v -0.328338861 1.16849482 0.0548696518
v -0.343753338 1.20503056 0.0546139516
v -0.639924228 1.14016032 0.143378437
v -0.64707005 1.12830186 0.142889559
v -0.639924228 1.14016032 0.0520084798
v -0.64707005 1.12830198 0.0524973311
v -0.631011546 1.15075386 0.143378437
v -0.631011546 1.15075374 0.05200845
v -0.596050024 1.17253733 0.143378437
v -0.608801007 1.16714501 0.142889559
v -0.596050024 1.17253733 0.05200845
v -0.608801007 1.16714513 0.0524973311
v -0.582612514 1.1758703 0.143378437
v -0.582612514 1.17586994 0.05200845
v -0.555009663 1.1760757 0.142889559
v -0.541523933 1.17294288 0.05200845
v -0.541523933 1.17294288 0.143378437
v -0.555009723 1.17607546 0.0524973311
v -0.528694153 1.16774106 0.05200845
v -0.528694153 1.16774106 0.143378437
v -0.506242335 1.15168166 0.142889559
v -0.497172952 1.14122224 0.0520084798
v -0.497172952 1.14122224 0.143378437
v -0.506242335 1.15168166 0.0524973311
v -0.479937911 1.08948946 0.0520084612
v -0.479937911 1.08948946 0.143378451
v -0.480921507 1.07567978 0.0520084612
v -0.480921507 1.07567978 0.143378451
v -0.656388104 1.08817697 0.143378451
v -0.655199111 1.07438338 0.142889559
v -0.656388104 1.08817697 0.0520084612
v -0.655199111 1.07438338 0.0524973199
v -0.655404449 1.10198712 0.0520084612
v -0.655404449 1.101987 0.143378451
v -0.639152765 1.0364449 0.143378437
v -0.630083501 1.02598476 0.142889559
v -0.639152765 1.0364449 0.0520084798
v -0.630083501 1.02598476 0.0524973311
v -0.646474123 1.04819512 0.143378451
v -0.646474123 1.04819512 0.0520084798
v -0.594801784 1.00472355 0.143378437
v -0.581316233 1.00159168 0.142889559
v -0.594801784 1.00472355 0.05200845
v -0.581316233 1.00159168 0.0524973311
v -0.607631564 1.00992608 0.143378437
v -0.607631564 1.00992608 0.05200845
v -0.527524829 1.01052189 0.142889559
v -0.540275633 1.0051291 0.05200845
v -0.540275633 1.0051291 0.143378437
v -0.527524829 1.01052201 0.0524973311
v -0.553713322 1.00179696 0.05200845
v -0.553713322 1.00179708 0.143378437
v -0.489255846 1.04936445 0.142889559
v -0.496401668 1.03750682 0.0520084798
v -0.496401668 1.03750682 0.143378437
v -0.489255905 1.04936457 0.0524973311
v -0.50531435 1.02691293 0.0520084798
v -0.50531435 1.02691293 0.143378437
v -0.596713424 1.07829797 0.0522149839
v -0.598140538 1.08385634 0.0523162112
v -0.594882548 1.07496762 0.0521485284
v -0.542530894 1.10379434 0.143237531
v -0.544401288 1.10636866 0.143236995
v -0.541985691 1.10241723 0.14323689
v -0.547082603 1.10998702 0.143078297
v -0.552745283 1.11467159 0.143198997
v -0.554763734 1.11562133 0.143238008
v -0.559295356 1.11775374 0.143228918
v -0.563666165 1.11865878 0.143071383
v -0.566936374 1.1192826 0.143128976
v -0.573153019 1.11889148 0.143239245
v -0.574441552 1.11881042 0.143239811
v -0.577787876 1.11772311 0.143239215
v -0.58193934 1.11626709 0.143084064
v -0.587942839 1.11245716 0.14318803
v -0.589960277 1.11030877 0.143239558
v -0.593152285 1.10686314 0.143240109
v -0.595536947 1.10252547 0.143069983
v -0.596713424 1.10038555 0.143112242
v -0.59854424 1.0932548 0.143239856
v -0.598583579 1.08860695 0.143239141
v -0.598583579 1.08558178 0.143132612
v -0.598140538 1.08385623 0.143070668
v -0.596713424 1.07829797 0.143171906
v -0.594882488 1.0749675 0.143238381
v -0.593090653 1.0717082 0.143238857
v -0.592385709 1.07095754 0.143238366
v -0.589159489 1.06752193 0.143072143
v -0.587942839 1.06622636 0.143102899
v -0.58154726 1.06218195 0.143236846
v -0.577064991 1.06072557 0.143236876
v -0.574441552 1.0598731 0.14313975
v -0.572547078 1.05975389 0.143073738
v -0.566936433 1.05940092 0.14317292
v -0.563388884 1.06007767 0.143236071
v -0.559237063 1.06095719 0.143236428
v -0.554784417 1.06305242 0.14307487
v -0.552745342 1.06401193 0.143113866
v -0.547191262 1.06860662 0.143236101
v -0.544629216 1.0720011 0.143235549
v -0.542530894 1.07488918 0.143109843
v -0.542159736 1.07582664 0.143074781
v -0.539762616 1.08188105 0.143189669
v -0.539431632 1.08450139 0.143235847
v -0.538838506 1.08919644 0.143231392
v -0.539359987 1.09361517 0.143074408
v -0.539762616 1.09680247 0.14312999
v -0.541985691 1.10241723 0.0521499999
v -0.539762616 1.09680247 0.0522569083
v -0.539359987 1.09361517 0.0523124859
v -0.538838506 1.08919644 0.0521555059
v -0.539431632 1.08450139 0.052151043
v -0.539762616 1.08188105 0.0521972291
v -0.542159736 1.07582664 0.0523121022
v -0.542530894 1.07488918 0.0522770472
v -0.544629276 1.07200098 0.0521513447
v -0.547191262 1.06860662 0.0521508008
v -0.552745342 1.06401193 0.0522730239
v -0.554784477 1.06305242 0.0523120128
v -0.559237123 1.06095719 0.0521504655
v -0.563389003 1.06007767 0.0521508157
v -0.566936433 1.05940092 0.0522139706
v -0.572547197 1.05975389 0.0523131453
v -0.574441552 1.0598731 0.052247148
v -0.577065051 1.06072557 0.0521500111
v -0.58154732 1.06218195 0.0521500334
v -0.587942839 1.06622636 0.0522839911
v -0.589159489 1.06752193 0.0523147397
v -0.592385709 1.07095754 0.0521485247
v -0.593090653 1.0717082 0.0521480367
v -0.598583579 1.08558178 0.0522542708
v -0.598583579 1.08860695 0.0521477535
v -0.59854424 1.09325492 0.0521470532
v -0.596713424 1.10038555 0.0522746518
v -0.595536947 1.10252547 0.0523169041
v -0.593152285 1.10686314 0.0521467924
v -0.589960337 1.11030877 0.0521473214
v -0.587942839 1.11245716 0.0521988571
v -0.58193934 1.11626709 0.0523028262
v -0.577787936 1.11772311 0.052147679
v -0.574441552 1.11881042 0.0521470755
v -0.573153079 1.11889148 0.0521476343
v -0.566936374 1.1192826 0.0522579141
v -0.563666224 1.11865878 0.0523155071
v -0.559295416 1.11775374 0.0521579795
v -0.554763794 1.11562145 0.0521488823
v -0.552745283 1.11467159 0.0521878898
v -0.547082663 1.10998702 0.0523085892
v -0.544401288 1.10636878 0.0521499068
v -0.542530894 1.10379434 0.0521493591
v -1.01087475 1.62367547 0.121405602
v -1.01087475 1.62367547 0.0908041596
v -1.01087487 1.62367463 0.0739812925
v 0.0778017491 1.32517815 0.122347385
v 0.0811728537 1.31666374 0.122366786
v 0.0532608964 1.38716137 0.12220607
v 0.0811728537 1.31666374 0.0730201006
v 0.053260915 1.38716137 0.0731808245
v -0.0211185049 1.50604272 0.122388929
v -0.066214487 1.56650078 0.12171746
v -0.0632801056 1.5640732 0.121629059
v -0.0211189073 1.5060432 0.0729980618
v -0.0662143752 1.56650066 0.0736694559
v -0.0632801056 1.5640732 0.0737578496
v -0.175793827 1.65715265 0.122030787
v -0.240819782 1.69539583 0.122215547
v -0.197223991 1.67488122 0.121501699
v -0.175793827 1.65715265 0.0733560994
v -0.240819797 1.69539583 0.0731713325
v -0.197223991 1.67488122 0.073885195
v -0.370512486 1.75194895 0.121848375
v -0.444604069 1.76608264 0.122328378
v -0.370512456 1.75194895 0.0735385269
v -0.444604069 1.76608264 0.0730584934
v -0.592309654 1.77725399 0.122218765
v -0.584418476 1.77775049 0.122235529
v -0.659781158 1.77300906 0.122075185
v -0.584418476 1.77775049 0.0731513649
v -0.659781158 1.77300906 0.0733117163
v -0.796401799 1.73883343 0.122262932
v -0.867539585 1.71465337 0.121603645
v -0.864097714 1.71683764 0.121509016
v -0.796401739 1.73883331 0.0731239393
v -0.867539585 1.71465337 0.0737832487
v -0.864097714 1.71683764 0.0738778785
v -0.991703928 1.63585627 0.121836029
v -0.98806107 1.6381681 0.121918112
v -1.04423273 1.58816671 0.122126125
v -0.98806107 1.6381681 0.073468782
v -1.04423344 1.58816624 0.0732609853
v -1.0399642 1.59271252 0.0733533725
v -1.13815999 1.48189557 0.121788785
v -1.17442894 1.41592264 0.122267567
v -1.13815999 1.48189557 0.0735981092
v -1.17442894 1.41592264 0.0731193274
v -1.22860384 1.2862761 0.122206166
v -1.24736547 1.21320415 0.12204612
v -1.22860384 1.2862761 0.0731807351
v -1.24736547 1.21320415 0.0733407736
v -1.25685155 1.07263219 0.122266613
v -1.2555815 0.997474849 0.121641502
v -1.25685155 1.00242162 0.121522941
v -1.25685155 1.07263219 0.0731202364
v -1.2555815 0.99747479 0.0737453997
v -1.25685155 1.00242162 0.0738639459
v -1.22012639 0.859386563 0.121955551
v -1.18967187 0.790484309 0.122194372
v -1.21361995 0.834045708 0.12145786
v -1.22012639 0.859386504 0.0734313428
v -1.18967187 0.790484369 0.0731925294
v -1.21361995 0.834045708 0.0739290342
v -1.1176765 0.668722689 0.121881008
v -1.06598997 0.613682091 0.122361206
v -1.1176765 0.668722749 0.0735058933
v -1.06598997 0.613682091 0.0730256885
v -0.952354133 0.517851532 0.122301079
v -0.95970583 0.522517085 0.122319542
v -0.895781696 0.481949568 0.122159004
v -0.959705889 0.522517085 0.0730673671
v -0.895781636 0.481949538 0.0732278973
v -0.757102847 0.427077621 0.122301497
v -0.765497088 0.42980507 0.122395009
v -0.693303764 0.407779932 0.121778943
v -0.698769033 0.408123791 0.121651828
v -0.765497088 0.42980507 0.0729918852
v -0.693303764 0.407779932 0.0736079589
v -0.698769033 0.408123791 0.0737350658
v -0.551653206 0.398868054 0.122091435
v -0.476394147 0.406532943 0.122326061
v -0.525274873 0.397208452 0.1215887
v -0.551653206 0.398868054 0.0732954517
v -0.476394147 0.406532943 0.0730608329
v -0.525274873 0.397208452 0.0737981945
v -0.338881493 0.43713966 0.121997714
v -0.270310611 0.469406664 0.122479789
v -0.338881493 0.43713966 0.0733891726
v -0.279261649 0.465194613 0.0729700327
v -0.270310581 0.469406694 0.0729071125
v -0.151124358 0.541935623 0.122418992
v -0.0926079229 0.590344608 0.122257888
v -0.151124343 0.541935623 0.0729679093
v -0.0926079378 0.590344608 0.0731290206
v -0.00289357617 0.69772172 0.122470528
v 0.0406189598 0.759588778 0.121825881
v 0.0388986468 0.755243778 0.121717401
v -0.00289357663 0.69772172 0.0729163587
v 0.0406189598 0.759588778 0.0735610127
v 0.0388986468 0.755243778 0.0736694932
v 0.092787005 0.89135021 0.122138061
v 0.109010786 0.965305507 0.122339129
v 0.102892399 0.916873515 0.121615864
v 0.0927870274 0.891350269 0.0732488334
v 0.109010793 0.965305567 0.073047705
v 0.102892399 0.916873515 0.0737710074
v 0.122633025 1.10554338 0.12197759
v 0.11314097 1.18068087 0.122459389
v 0.122633025 1.10554338 0.0734092444
v 0.114357315 1.17105258 0.0729892477
v 0.113141008 1.18068063 0.0729275122
vn 0.972369254 0.233448192 -1.3293257e-16
vn 0.972369254 0.233448192 2.89529467e-16
vn 0.972369313 0.233448192 -5.30544486e-16
vn 0.972369313 0.233448192 5.79882779e-16
vn 0.852640808 0.522497714 -5.37499527e-16
vn 0.852640808 0.522497714 1.06025348e-15
vn 0.852640808 0.522497714 -5.92000168e-16
vn 0.852640808 0.522497714 5.7589426e-16
vn 0.649457693 0.760397851 1.06108749e-15
vn 0.649457693 0.760397851 0
vn 0.649457693 0.760397851 -1.15217191e-15
vn 0.649457693 0.760397851 2.30697534e-15
vn 0.382702172 0.923871756 0
vn 0.382702172 0.923871756 -1.06823867e-15
vn 0.382702172 0.923871756 -1.15346003e-15
vn 0.382702172 0.923871756 -1.16742231e-15
vn 0.0784581825 0.996917427 2.11535848e-15
vn 0.0784581825 0.996917427 0
vn 0.0784581825 0.996917427 -1.15425603e-15
vn 0.0784581825 0.996917427 2.31177907e-15
vn -0.23343347 0.97237289 -2.25999997e-06
vn -0.233433455 0.97237289 -2.25999997e-06
vn -0.23343347 0.97237289 -2.25999997e-06
vn -0.233433425 0.97237283 -2.25999997e-06
vn -0.522481918 0.852650404 4.59562977e-15
vn -0.522481918 0.852650404 -5.28371794e-16
vn -0.522481918 0.852650404 -2.08387003e-15
vn -0.0108812805 0.515739918 -0.856676042
vn -0.507686496 0.0914352164 0.856676102
vn -0.760401309 0.649453521 -1.12999999e-06
vn -0.760401368 0.64945358 -1.12999999e-06
vn -0.760401309 0.649453521 -1.12999999e-06
vn -0.923878729 0.382685632 2.12052538e-15
vn -0.923878729 0.382685661 1.05847429e-15
vn -0.923878729 0.382685661 -1.1525032e-15
vn -0.923878729 0.382685632 0
vn -0.996917307 0.0784596577 -1.05554588e-15
vn -0.996917367 0.0784596577 -1.16211226e-15
vn -0.996917307 0.0784596577 2.14046285e-15
vn -0.996917367 0.0784596577 -2.29672031e-15
vn -0.972370207 -0.233444124 1.14944467e-15
vn -0.972370267 -0.233444139 -1.58728172e-15
vn -0.972370207 -0.233444124 0
vn -0.972370267 -0.233444139 2.88045349e-15
vn -0.852639318 -0.522499979 -5.80564852e-16
vn -0.852639318 -0.522499979 0
vn -0.852639318 -0.522499979 1.58986718e-15
vn -0.852639318 -0.522499979 5.77194455e-16
vn -0.649448812 -0.760405421 -7.09999995e-07
vn -0.649448812 -0.760405421 -7.09999995e-07
vn -0.649448812 -0.760405421 -7.09999995e-07
vn -0.649448752 -0.760405481 -7.09999995e-07
vn -0.382685125 -0.923878849 -1.12999999e-06
vn -0.382685155 -0.923878849 -1.12999999e-06
vn -0.382685155 -0.923878849 -1.12999999e-06
vn -0.382685125 -0.923878849 -1.12999999e-06
vn -0.0784570128 -0.996917605 2.92956853e-16
vn -0.0784570128 -0.996917605 -5.31717998e-16
vn -0.0784570128 -0.996917605 2.60650355e-16
vn -0.0784570128 -0.996917605 -1.16874866e-15
vn 0.233433455 -0.97237289 0
vn 0.233433455 -0.97237289 1.05989857e-15
vn 0.233433455 -0.97237289 0
vn 0.233433455 -0.97237289 -1.17386633e-15
vn 0.522499561 -0.852639675 -1.69999998e-06
vn 0.522499502 -0.852639616 -1.69999998e-06
vn 0.522499561 -0.852639556 -1.69999998e-06
vn 0.522499561 -0.852639675 -1.69999998e-06
vn 0.760403752 -0.649450719 -4.51999995e-06
vn 0.760403812 -0.649450719 -4.51999995e-06
vn 0.760403752 -0.64945066 -4.51999995e-06
vn 0.760403812 -0.649450719 -4.51999995e-06
vn 0.923879087 -0.382684529 2.66309832e-16
vn 0.923879147 -0.382684559 0
vn 0.923879087 -0.382684529 -2.88693763e-16
vn 0.923879087 -0.382684529 0
vn 0.996917427 -0.0784583464 1.39999997e-07
vn 0.996917486 -0.0784583613 1.39999997e-07
vn 0.996917486 -0.0784583464 1.39999997e-07
vn 0.996917427 -0.0784583464 1.39999997e-07
vn 0.0237606298 0.00515484018 0.99970448
vn 0.0239741392 0.00531728985 0.9996984
vn 0.0235794 0.00976615027 0.999674261
vn 0.0217603892 0.0133346897 0.99967438
vn 0.0194063094 0.0165748503 0.99967432
vn 0.0161924902 0.0181356892 0.99970448
vn 0.0133345798 0.0217605699 0.999674261
vn 0.00976676028 0.0235783998 0.999674261
vn 0.0059576598 0.02481585 0.99967432
vn 0.00243988005 0.0241899192 0.99970448
vn -0.00200228998 0.0254423991 0.99967438
vn -0.00595765002 0.0248158108 0.99967432
vn -0.00976684969 0.02357837 0.99967432
vn -0.0122444397 0.0210041702 0.99970448
vn -0.0165748708 0.0194062609 0.999674261
vn -0.0194064695 0.0165747907 0.99967432
vn -0.0217602309 0.0133347502 0.99967432
vn -0.0222529396 0.00979540963 0.999704421
vn -0.0248170495 0.00595834013 0.999674261
vn -0.0254435204 0.00200224994 0.999674261
vn -0.0254434496 -0.00200224994 0.999674261
vn -0.0237608291 -0.00515478011 0.999704421
vn -0.0235794298 -0.00976619031 0.999674261
vn -0.0217604209 -0.0133348303 0.999674261
vn -0.0194065105 -0.0165747795 0.99967432
vn -0.0161924902 -0.0181358308 0.99970448
vn -0.0133347502 -0.0217604693 0.999674261
vn -0.00976669043 -0.0235785302 0.999674261
vn -0.00595752988 -0.0248162802 0.999674261
vn -0.00244000996 -0.0241900496 0.99970448
vn 0.00200244994 -0.0254429094 0.99967432
vn 0.00595752988 -0.0248162504 0.999674261
vn 0.00976669043 -0.0235785395 0.999674261
vn 0.01224453 -0.0210041702 0.99970448
vn 0.0165747199 -0.0194065403 0.999674261
vn 0.0194065403 -0.0165746901 0.999674261
vn 0.0217603091 -0.0133348098 0.99967432
vn 0.0222529396 -0.00979543012 0.999704421
vn 0.0248171296 -0.00595826004 0.99967432
vn 0.0254436899 -0.00200226996 0.999674261
vn 0.0239742305 0.00531730987 -0.99969852
vn 0.0237607304 0.00515486998 -0.999704421
vn 0.0235793795 0.00976616982 -0.999674261
vn 0.0217603799 0.0133346301 -0.999674261
vn 0.0194064006 0.0165748298 -0.999674261
vn 0.0161924809 0.0181356706 -0.999704421
vn 0.0133345202 0.0217605699 -0.999674261
vn 0.0097667696 0.0235783998 -0.999674261
vn 0.0059575499 0.0248158593 -0.99967438
vn 0.00243994012 0.0241899304 -0.99970448
vn -0.0020023 0.0254424699 -0.99967438
vn -0.0059575499 0.0248158593 -0.99967438
vn -0.00976676028 0.0235784296 -0.999674261
vn -0.0122442301 0.0210041497 -0.99970448
vn -0.0165748093 0.0194062702 -0.99967438
vn -0.0194064099 0.0165748298 -0.99967432
vn -0.0217603594 0.01333474 -0.99967438
vn -0.0222529508 0.00979563966 -0.999704421
vn -0.0248170402 0.00595834991 -0.999674261
vn -0.0254435092 0.00200254004 -0.99967432
vn -0.0254434794 -0.00200255006 -0.999674261
vn -0.0237608105 -0.00515476987 -0.999704421
vn -0.0235794801 -0.00976619963 -0.99967432
vn -0.0217604507 -0.01333482 -0.999674261
vn -0.0194064807 -0.0165747497 -0.999674261
vn -0.0161924195 -0.0181358494 -0.999704421
vn -0.0133348498 -0.0217604507 -0.99967432
vn -0.0097666597 -0.0235785507 -0.99967432
vn -0.00595758995 -0.0248162895 -0.99967432
vn -0.00243992009 -0.0241900403 -0.99970448
vn 0.0020023901 -0.0254429094 -0.99967432
vn 0.00595760019 -0.0248162802 -0.99967432
vn 0.00976664014 -0.0235785507 -0.99967432
vn 0.01224453 -0.0210041702 -0.99970448
vn 0.0165748093 -0.0194065496 -0.99967432
vn 0.01940649 -0.0165747609 -0.99967432
vn 0.0217603706 -0.0133348303 -0.99967432
vn 0.0222529508 -0.00979564991 -0.999704421
vn 0.0248171706 -0.00595826004 -0.99967432
vn 0.0254436396 -0.00200257008 -0.99967432
vn 0.0233401805 0.00403408008 0.999719441
vn 0.0236737393 0.00388009008 0.999712288
vn 0.0168718193 0.0170538202 0.999712229
vn 0.0165112596 0.01698233 0.99971956
vn 0.00362553005 0.0237138402 0.999712288
vn 0.00337584992 0.0234442092 0.999719501
vn -0.0110056996 0.0213159304 0.999712229
vn -0.0110491198 0.0209509097 0.99971956
vn -0.0214336794 0.0107752401 0.999712229
vn -0.0212543998 0.0104547003 0.999719501
vn -0.0236738306 -0.00388010009 0.999712288
vn -0.02334035 -0.00403408008 0.999719501
vn -0.0168715809 -0.0170544405 0.999712229
vn -0.0165111497 -0.0169827398 0.999719441
vn -0.00362551003 -0.0237138998 0.999712288
vn -0.00337585993 -0.0234441496 0.999719501
vn 0.0110056903 -0.0213159192 0.999712288
vn 0.0110491198 -0.02095096 0.999719501
vn 0.0214335602 -0.01077508 0.999712288
vn 0.0212542992 -0.0104545997 0.999719441
vn 0.0179932993 -0.00277360994 -0.999834359
vn 0.0178889595 -0.00269533996 -0.999836385
vn 0.4746975 -0.237601623 -0.847471416
vn 0.0031594499 -0.0113192396 -0.999930978
vn 0.0160573702 0.0083340602 -0.999836445
vn 0.0161878094 0.00833208021 -0.999834299
vn 0.0160763096 0.0139272399 -0.99977386
vn 0.0163530707 0.0144026401 -0.999762535
vn 0.0080921296 0.0161807295 -0.999836385
vn 0.00819884986 0.0162558202 -0.999834299
vn 0.00482005998 0.0207170099 -0.9997738
vn 0.0047645499 0.0212639794 -0.999762535
vn -0.00296433992 0.0178468004 -0.999836445
vn -0.00292214006 0.0179702695 -0.999834359
vn -0.00827779993 0.0195932202 -0.9997738
vn -0.00864433963 0.0200032294 -0.999762595
vn -0.0128883803 0.01269536 -0.999836445
vn -0.0129268104 0.0128200604 -0.999834299
vn -0.0182139296 0.0109845102 -0.9997738
vn -0.0187514499 0.0111007001 -0.999762595
vn -0.0178889409 0.00269527012 -0.999836445
vn -0.0179932993 0.00277354009 -0.999834359
vn -0.0211917292 -0.00181872002 -0.9997738
vn -0.0216949191 -0.00204065 -0.999762595
vn -0.0160572603 -0.0083340304 -0.999836385
vn -0.0161877703 -0.00833205041 -0.999834299
vn -0.0160764009 -0.0139272101 -0.99977386
vn -0.0163530596 -0.0144024696 -0.999762595
vn -0.00809200015 -0.0161806792 -0.999836385
vn -0.00819872972 -0.0162557792 -0.999834359
vn -0.00481999014 -0.0207168292 -0.9997738
vn -0.00476448005 -0.0212639403 -0.999762595
vn 0.00296573993 -0.0178453997 -0.999836385
vn 0.00292353006 -0.0179688502 -0.999834359
vn 0.00827828981 -0.0195931997 -0.9997738
vn 0.00864467956 -0.0200031996 -0.999762535
vn 0.01288829 -0.0126951504 -0.999836385
vn 0.0129267098 -0.0128198201 -0.999834359
vn 0.0182136893 -0.0109844301 -0.9997738
vn 0.0187511891 -0.0111006396 -0.999762595
vn 0.0182137992 -0.0109840296 0.9997738
vn 0.0187513605 -0.0111002699 0.999762654
vn 0.01288848 -0.0126949698 0.999836445
vn 0.0129268998 -0.0128196403 0.999834359
vn 0.00864441041 -0.0200032592 0.999762535
vn 0.00296482001 -0.0178462304 0.999836445
vn 0.00827793963 -0.0195932593 0.9997738
vn 0.00292261993 -0.0179696903 0.999834299
vn -0.00809235964 -0.0161806606 0.999836385
vn -0.00481997011 -0.0207168292 0.9997738
vn -0.00476441998 -0.0212639403 0.999762535
vn -0.00819910038 -0.0162557606 0.999834359
vn -0.0160565991 -0.00833455008 0.999836445
vn -0.0160754193 -0.0139276898 0.9997738
vn -0.0163520295 -0.0144029399 0.999762654
vn -0.0161870793 -0.00833255984 0.999834359
vn -0.0216948707 -0.00204077992 0.999762595
vn -0.0178890191 0.00269511994 0.999836445
vn -0.0211916603 -0.00181886996 0.99977386
vn -0.0179933906 0.00277339993 0.999834299
vn -0.0187511705 0.0111005502 0.999762654
vn -0.0128886402 0.0126948897 0.999836445
vn -0.0182137303 0.0109842997 0.9997738
vn -0.01292706 0.0128196003 0.999834299
vn -0.00296497997 0.0178461 0.999836385
vn -0.00827793032 0.0195929091 0.99977386
vn -0.00864445977 0.0200029593 0.999762535
vn -0.0029227999 0.0179695804 0.999834359
vn 0.00476319017 0.0212638695 0.999762595
vn 0.00809109025 0.0161810908 0.999836445
vn 0.00481866021 0.0207169093 0.99977386
vn 0.00819780026 0.0162561499 0.999834299
vn 0.0160575006 0.0083340602 0.999836445
vn 0.0160764195 0.0139272604 0.99977386
vn 0.0163531806 0.0144026596 0.999762535
vn 0.0161879398 0.00833208021 0.999834299
vn 0.0178892892 -0.00269600004 0.999836445
vn 0.01799367 -0.00277428003 0.999834359
vn 0.474697948 -0.237601429 0.847471237
vn 0.00315946992 -0.0113198897 0.999931037
vn 0.0212541893 -0.0104550198 -0.999719501
vn 0.0214333702 -0.0107754804 -0.999712288
vn 0.0110056102 -0.0213159304 -0.999712229
vn 0.0110490397 -0.02095096 -0.999719501
vn -0.00337579008 -0.0234441292 -0.999719501
vn -0.00362545997 -0.0237138793 -0.999712288
vn -0.0165112205 -0.0169823505 -0.99971956
vn -0.0168717597 -0.0170538295 -0.999712229
vn -0.0233402904 -0.00403408008 -0.999719501
vn -0.0236737896 -0.0038801101 -0.999712288
vn -0.0214333609 0.0107753696 -0.999712229
vn -0.0212542098 0.0104549304 -0.999719441
vn -0.0110488897 0.0209508799 -0.99971956
vn -0.0110055199 0.0213159006 -0.999712288
vn 0.00337594002 0.0234441701 -0.99971956
vn 0.00362558989 0.0237137992 -0.999712229
vn 0.0165112708 0.0169823393 -0.999719501
vn 0.0168718006 0.0170538295 -0.999712229
vn 0.0233402699 0.00403412012 -0.999719501
vn 0.0236737803 0.00388012989 -0.999712229
vn 0.0220216792 -0.0117301997 0.999688685
vn 0.0220493209 -0.0117494902 0.99968785
vn 0.0109197404 -0.0224352591 0.999688685
vn 0.0109307198 -0.0224671308 0.99968785
vn -0.00435288996 -0.0245689806 0.999688625
vn -0.00436272006 -0.0246012099 0.99968785
vn -0.0179621093 -0.0173189491 0.999688745
vn -0.0179888904 -0.0173391607 0.99968785
vn -0.0247110799 -0.00345303002 0.999688745
vn -0.0247447193 -0.00345370988 0.99968791
vn -0.0220215507 0.0117305303 0.999688685
vn -0.0220490992 0.0117498301 0.99968791
vn -0.0109198196 0.0224353205 0.999688685
vn -0.0109308297 0.0224671401 0.99968791
vn 0.00435265992 0.0245686192 0.999688685
vn 0.00436238991 0.0246008504 0.99968785
vn 0.0179630108 0.0173181109 0.999688685
vn 0.0179899 0.0173384305 0.99968785
vn 0.0247447491 0.00345365005 0.99968785
vn 0.0247111395 0.00345297996 0.999688685
vn 0.0216948707 0.00204043998 0.999762654
vn 0.0211916808 0.00181848998 0.99977386
vn 0.0220490005 -0.0117498096 -0.99968785
vn 0.0220213402 -0.0117305303 -0.999688685
vn 0.0109306099 -0.0224671699 -0.99968791
vn 0.0109196398 -0.0224353094 -0.999688625
vn -0.00436284998 -0.0246011894 -0.99968785
vn -0.00435299007 -0.0245689601 -0.999688745
vn -0.0179898106 -0.0173383802 -0.99968791
vn -0.0179629102 -0.0173180699 -0.999688685
vn -0.0247446895 -0.00345370988 -0.99968785
vn -0.0247110594 -0.00345304003 -0.999688745
vn -0.0220490899 0.0117496597 -0.99968785
vn -0.0220213905 0.0117303599 -0.999688745
vn -0.0109197795 0.0224353001 -0.999688745
vn -0.0109307701 0.0224671196 -0.99968785
vn 0.00436291005 0.0246010609 -0.99968785
vn 0.00435307017 0.0245687701 -0.999688685
vn 0.0179897901 0.0173384398 -0.99968791
vn 0.0179628897 0.0173181295 -0.999688685
vn 0.0247110892 0.00345299998 -0.999688745
vn 0.0247447193 0.00345368008 -0.99968791
vn 0.0216949694 0.00204061996 -0.999762595
vn 0.0211917907 0.00181868998 -0.9997738
vn -0.591825962 0.408952415 0.694622219
vn -0.243486717 0.471686393 0.847482145
vn -0.59182471 0.408955216 -0.694621563
vn -0.244385898 0.471238166 -0.847472727
vn -0.432706952 -0.0132892374 0.901436687
vn -0.43283084 -0.0118277641 -0.901397645
vn -0.238413051 0.67871505 0.694625914
vn 0.0802824646 0.52481854 0.847419798
vn -0.23840344 0.678719699 -0.694624603
vn 0.079292804 0.524985194 -0.847409666
vn 0.0117426002 -0.000493119995 0.999931037
vn 0.0117425397 -0.000493169995 -0.999930918
vn 0.373390675 0.377323985 0.847470462
vn 0.206086114 0.689188421 -0.69465661
vn 0.20609118 0.689185441 0.694658041
vn 0.372678012 0.378039986 -0.847465098
vn -0.145026699 0.408005655 -0.901387036
vn -0.146377355 0.407435745 0.901426435
vn 0.523868203 0.0858294517 0.847464085
vn 0.571841359 0.436487347 -0.694605231
vn 0.571840703 0.436487645 0.69460547
vn 0.523718357 0.0868229195 -0.847455561
vn 0.71916759 0.0169802308 -0.694629073
vn 0.719167411 0.0169807617 0.694629431
vn 0.343215704 0.263986945 -0.9013955
vn 0.342256039 0.265094995 0.901435196
vn -0.719183445 -0.0170042105 0.694612026
vn -0.00294390996 -0.00138733 0.999994695
vn -0.719183862 -0.0170036145 -0.694611728
vn -0.00294370996 -0.00138767995 -0.999994755
vn -0.343200892 -0.263982713 -0.901402354
vn -0.342242122 -0.265090674 0.901441753
vn 0.01245311 -0.0128178596 0.999840319
vn -0.523845077 -0.0858076438 0.847480595
vn 0.01245239 -0.01281673 -0.999840379
vn -0.523695171 -0.086801298 -0.847472072
vn -0.00315966993 0.0113201104 0.999931037
vn -0.00315954001 0.0113191996 -0.999930978
vn -0.206065297 -0.689234853 0.694616735
vn 0.000409659988 -0.00322842994 0.999994695
vn -0.206065193 -0.689234853 -0.694616795
vn 0.000409609987 -0.00322838011 -0.999994755
vn 0.146368384 -0.407424152 0.90143317
vn 0.14501752 -0.407994241 -0.901393712
vn -0.0802743882 -0.524725199 0.84747833
vn 0.238440186 -0.678681076 -0.694649816
vn 0.238435164 -0.678682923 0.694649756
vn -0.0792797208 -0.524887323 -0.847471476
vn 0.357129902 -0.244840503 -0.901394129
vn 0.357884556 -0.243586123 0.90143466
vn 0.00319701992 -0.000608399976 0.999994695
vn 0.591822207 -0.408972263 -0.694613636
vn 0.591820359 -0.408973277 0.694614708
vn 0.00319686998 -0.00060833001 -0.999994755
vn 0.432814389 0.0118401358 -0.901405275
vn 0.43268925 0.0133004226 0.901444972
vn 0.454150558 0.180679381 -0.264572769
vn 0.238205358 0.0443724357 -0.632422686
vn 0.211618483 0.119684644 -0.632184565
vn -0.643115819 -0.353663743 0.679208398
vn -0.496260792 -0.346691012 0.7959463
vn -0.217923209 -0.109052002 0.579674542
vn -0.500896335 -0.46393916 0.730659485
vn -0.381553173 -0.624847651 0.681162596
vn -0.295826703 -0.641469359 0.707816005
vn -0.22773616 -0.636420727 0.736956537
vn -0.160526037 -0.775520504 0.610573113
vn -0.033002343 -0.732150078 0.68034327
vn 0.0380054154 -0.240862682 0.579670966
vn 0.137627676 -0.720932305 0.679201961
vn 0.135594547 -0.450372338 0.882484555
vn 0.290806055 -0.619394243 0.729234278
vn 0.4745498 -0.554787874 0.683383405
vn 0.416728914 -0.378865212 0.826315939
vn 0.538992584 -0.405574858 0.738238454
vn 0.610458016 -0.343075722 0.713890731
vn 0.686464787 -0.257930279 0.679881036
vn 0.671790719 -0.0809735879 0.736302018
vn 0.615193307 -0.0164554305 0.788204551
vn 0.730176747 0.065984346 0.680064738
vn 0.238205031 0.0443734862 0.579910219
vn 0.454150528 0.18067944 0.159548044
vn 0.211617947 0.119685769 0.579672277
vn 0.396516234 0.286459774 0.159358546
vn 0.194827497 0.1468658 0.579651594
vn 0.515230119 0.474411339 0.713772893
vn 0.456683934 0.573421836 0.680167019
vn 0.280925632 0.614585519 0.737133324
vn 0.229460821 0.665955245 0.709824979
vn 0.162894353 0.71483922 0.680051744
vn 0.0304559618 0.240342334 0.579906285
vn -0.059096694 0.731151462 0.679650784
vn -0.0762883797 0.337762296 0.938134789
vn -0.20323661 0.645188808 0.736495972
vn -0.292854458 0.636395037 0.713608921
vn -0.403858542 0.612604558 0.679421782
vn -0.494472831 0.463811457 0.735102355
vn -0.405343622 0.318881512 0.856744468
vn -0.629518092 0.375806272 0.680056274
vn -0.216506734 0.109977625 0.579904854
vn -0.713632703 0.169733256 0.679646254
vn -0.70142138 0.0828036293 0.707920492
vn -0.674597383 0.0171016194 0.737987697
vn -0.746460974 -0.0846548453 0.660022378
vn -0.706517816 -0.194859803 0.680339813
vn -0.217923164 -0.109051891 -0.63218689
vn -0.706515133 -0.194859222 -0.680342853
vn -0.74646312 -0.0846550316 -0.660019934
vn -0.674597621 0.0171019118 -0.737987518
vn -0.701420903 0.0828031376 -0.707921267
vn -0.71362716 0.169731483 -0.679652512
vn -0.216506764 0.109977625 -0.632417262
vn -0.629515409 0.375798315 -0.680063248
vn -0.405250251 0.318811595 -0.856814682
vn -0.494472295 0.463813514 -0.735101402
vn -0.403852701 0.612606585 -0.679423332
vn -0.292817026 0.636327386 -0.713684499
vn -0.203235909 0.645189345 -0.736495614
vn -0.0763176233 0.337907583 -0.938079953
vn -0.0590992793 0.731147945 -0.67965436
vn 0.0304569546 0.240342304 -0.632418633
vn 0.162890762 0.714828432 -0.680063963
vn 0.22944051 0.665890694 -0.709891975
vn 0.280926466 0.61458379 -0.737134397
vn 0.456681311 0.573414981 -0.680174649
vn 0.515231252 0.4744111 -0.713772357
vn 0.194827363 0.146866053 -0.632163942
vn 0.396516174 0.286459833 -0.264383256
vn 0.730182052 0.065992564 -0.6800583
vn 0.61519438 -0.0164526384 -0.788203835
vn 0.671790421 -0.0809743553 -0.736302078
vn 0.686461926 -0.257932633 -0.679883003
vn 0.610458553 -0.343075991 -0.713890195
vn 0.538995683 -0.405574054 -0.738236725
vn 0.416406125 -0.37856406 -0.826616585
vn 0.474544138 -0.554787934 -0.683387399
vn 0.290808052 -0.619393945 -0.729233682
vn 0.135561049 -0.450278997 -0.882537305
vn 0.137623042 -0.720928133 -0.679207206
vn 0.0380059294 -0.240862682 -0.632183254
vn -0.033002954 -0.732148826 -0.680344641
vn -0.160524085 -0.775506079 -0.610591769
vn -0.227730229 -0.636426449 -0.736953497
vn -0.295368016 -0.640498459 -0.708886147
vn -0.381567091 -0.624838889 -0.681162953
vn -0.500893354 -0.463948429 -0.73065567
vn -0.495837182 -0.346372664 -0.79634887
vn -0.643122017 -0.353656471 -0.679206312
vn -0.49649474 0.598057687 0.629142165
vn -0.637512028 0.7704404 0
vn -0.496464193 0.598072052 -0.629152775
vn 0.839370966 0.346964091 -0.0574366488
vn 0.84809494 0.325728536 -0.0574617721
vn 0.83138895 0.367499977 -0.0572536103
vn 0.84809494 0.325728536 0.00304859621
vn 0.83138895 0.367499888 0.00624156464
vn 0.699260771 0.588644207 -0.055619847
vn 0.681783438 0.60342896 -0.0566262901
vn 0.608993351 0.551935017 -0.113015376
vn 0.706088305 0.570762992 0.00320239668
vn 0.681783736 0.603428841 0.00560322404
vn 0.610498011 0.550173402 0.010985692
vn 0.484377205 0.775448203 -0.0538029522
vn 0.456430078 0.785848677 -0.0572658814
vn 0.43565321 0.69717741 -0.1126827
vn 0.492113471 0.764724016 0.00330131804
vn 0.456430048 0.785848737 0.0062538432
vn 0.436502725 0.696656764 0.0106585817
vn 0.22142525 0.880581677 -0.0585689694
vn 0.189321876 0.878295958 -0.0673471168
vn 0.229810476 0.878580868 0.00176705292
vn 0.196384922 0.87735641 -0.00311785098
vn -0.0696796104 0.894152939 -0.0688226148
vn -0.0499294512 0.895409763 -0.069084622
vn -0.0915229917 0.900232017 -0.0613149516
vn -0.0497733429 0.897891045 -0.00702678226
vn -0.0915229917 0.900232017 0.00184119784
vn -0.343064487 0.84671706 -0.0557927191
vn -0.361950368 0.835031331 -0.0560318865
vn -0.336173654 0.750028849 -0.112701617
vn -0.326845318 0.847585678 0.00199898076
vn -0.361577958 0.837267876 0.0059446129
vn -0.335183024 0.750439167 0.0106775267
vn -0.414090365 0.628448665 0.658468962
vn 0.0328626446 0.833131611 0.552097499
vn -0.828327537 0.109916195 0.549355268
vn 0.0848446488 0.987574935 -0.0581779592
vn -0.828333497 0.109829217 -0.549364448
vn -0.54188782 0.522462845 -0.658323705
vn -0.770676494 0.483490765 -0.0567131564
vn -0.785939157 0.455444336 -0.0573332496
vn -0.766744077 0.489907771 0.00379918003
vn -0.78263855 0.461325437 0.00627876027
vn -0.881693482 0.218441486 -0.0572537705
vn -0.888436794 0.192702219 -0.0570464842
vn -0.878209293 0.232954368 0.00624165917
vn -0.888436794 0.192702249 0.00603440404
vn -0.911362946 -0.064980492 -0.0557375588
vn -0.90627104 -0.0871021152 -0.0565224029
vn -0.81719178 -0.0880208537 -0.112737693
vn -0.907102525 -0.0492355078 0.00217980379
vn -0.906270862 -0.0871021003 0.00551037723
vn -0.817287207 -0.0868079364 0.0107136173
vn -0.84494853 -0.341706395 -0.0556172617
vn -0.831009924 -0.367758662 -0.0572387986
vn -0.762345076 -0.307754546 -0.11256931
vn -0.847235382 -0.330725282 0.00350362458
vn -0.831009924 -0.367758662 0.00622606277
vn -0.76255244 -0.307253957 0.0105448766
vn -0.697299004 -0.584214747 -0.056833297
vn -0.67513293 -0.607634366 -0.0574552119
vn -0.70328337 -0.577207863 0.0058198669
vn -0.67513293 -0.607634366 0.00644180179
vn -0.47520864 -0.774070203 -0.0573774874
vn -0.493788004 -0.762610614 -0.057401374
vn -0.456586778 -0.786052644 -0.0571935251
vn -0.493787855 -0.762610614 0.00638771616
vn -0.461405873 -0.783004224 0.00619314285
vn -0.21278958 -0.883111894 -0.0573774986
vn -0.234737948 -0.877512991 -0.0574986823
vn -0.195672348 -0.889062881 -0.0567007549
vn -0.168151304 -0.804500341 -0.113071732
vn -0.234737933 -0.877513111 0.00302449218
vn -0.195076123 -0.893199563 0.00536907604
vn -0.170633733 -0.803904355 0.0110473037
vn 0.0648876056 -0.912677824 -0.0534493439
vn 0.0943248048 -0.903764307 -0.0574093498
vn 0.057781864 -0.820028543 -0.112908214
vn 0.0512124933 -0.907963097 0.00310160359
vn 0.0897904932 -0.905756414 0.00616748631
vn 0.0558893681 -0.820177495 0.0108837979
vn 0.341148257 -0.84319365 -0.0569841303
vn 0.370279074 -0.829339504 -0.057608556
vn 0.330030501 -0.847798645 0.00386974029
vn 0.347166389 -0.839146376 0.00651426101
vn 0.370279074 -0.829339504 0.00659564137
vn 0.586017013 -0.693791151 -0.0575303249
vn 0.607072115 -0.676534116 -0.057321623
vn 0.571041822 -0.706581056 0.00307993358
vn 0.607071996 -0.676534176 0.00630775047
vn 0.776876092 -0.482983679 -0.0556300431
vn 0.785200298 -0.460659176 -0.0567612052
vn 0.713318527 -0.408221751 -0.113241397
vn 0.761370242 -0.49531877 0.00124169467
vn 0.785200357 -0.460659176 0.00574916089
vn 0.711629331 -0.410978287 0.0112172663
vn 0.888259649 -0.220396414 -0.0533160977
vn 0.888660371 -0.189757705 -0.0574262477
vn 0.797772229 -0.198304951 -0.112978585
vn 0.879069567 -0.232657537 0.00298064179
vn 0.892003298 -0.198611334 0.00744023547
vn 0.797263324 -0.200424805 0.0109542115
vn 0.90745008 0.0629684627 -0.0569578707
vn 0.903248727 0.0953164473 -0.057581868
vn 0.908308566 0.0520603023 0.00386101962
vn 0.905391932 0.0707800984 0.00648953533
vn 0.903248727 0.0953163505 0.00656947494
g 
f 1//1 3//3 2//2
f 3//3 1//1 4//4
f 5//5 7//7 6//6
f 8//8 5//5 6//6
f 9//9 11//11 10//10
f 12//12 9//9 10//10
f 13//13 15//15 14//14
f 16//16 13//13 14//14
f 17//17 19//19 18//18
f 20//20 17//17 18//18
f 21//21 23//23 22//22
f 23//23 24//24 22//22
f 25//25 27//27 26//26
f 27//27 28//28 26//26
f 29//29 31//31 30//30
f 31//31 32//32 30//30
f 33//33 35//35 34//34
f 34//34 36//36 33//33
f 37//37 39//39 38//38
f 37//37 40//40 39//39
f 41//41 43//43 42//42
f 43//43 44//44 42//42
f 45//45 47//47 46//46
f 47//47 48//48 46//46
f 49//49 51//51 50//50
f 51//51 52//52 50//50
f 53//53 55//55 54//54
f 54//54 56//56 53//53
f 57//57 59//59 58//58
f 59//59 60//60 58//58
f 61//61 63//63 62//62
f 64//64 61//61 62//62
f 65//65 67//67 66//66
f 67//67 68//68 66//66
f 69//69 71//71 70//70
f 72//72 70//70 71//71
f 73//73 75//75 74//74
f 74//74 76//76 73//73
f 77//77 79//79 78//78
f 80//80 79//79 77//77
f 81//81 2//2 3//3
f 82//82 2//2 81//81
f 83//83 3//3 7//7
f 81//81 3//3 83//83
f 84//84 7//7 5//5
f 83//83 7//7 84//84
f 85//85 5//5 11//11
f 84//84 5//5 85//85
f 86//86 11//11 9//9
f 11//11 86//86 85//85
f 87//87 9//9 15//15
f 9//9 87//87 86//86
f 88//88 15//15 13//13
f 15//15 88//88 87//87
f 89//89 13//13 19//19
f 13//13 89//89 88//88
f 19//19 17//17 90//90
f 89//89 19//19 90//90
f 17//17 21//21 91//91
f 90//90 17//17 91//91
f 21//21 22//22 92//92
f 91//91 21//21 92//92
f 22//22 25//25 93//93
f 92//92 22//22 93//93
f 25//25 26//26 94//94
f 93//93 25//25 94//94
f 95//95 26//26 29//29
f 94//94 26//26 95//95
f 96//96 29//29 30//30
f 95//95 29//29 96//96
f 97//97 30//30 35//35
f 30//30 97//97 96//96
f 98//98 35//35 33//33
f 35//35 98//98 97//97
f 99//99 33//33 38//38
f 33//33 99//99 98//98
f 100//100 38//38 39//39
f 38//38 100//100 99//99
f 101//101 39//39 41//41
f 39//39 101//101 100//100
f 41//41 42//42 102//102
f 101//101 41//41 102//102
f 42//42 45//45 103//103
f 102//102 42//42 103//103
f 45//45 46//46 104//104
f 103//103 45//45 104//104
f 46//46 49//49 105//105
f 104//104 46//46 105//105
f 49//49 50//50 106//106
f 105//105 49//49 106//106
f 107//107 50//50 55//55
f 106//106 50//50 107//107
f 108//108 55//55 53//53
f 107//107 55//55 108//108
f 109//109 53//53 57//57
f 108//108 53//53 109//109
f 110//110 57//57 58//58
f 109//109 57//57 110//110
f 111//111 58//58 63//63
f 110//110 58//58 111//111
f 112//112 63//63 61//61
f 63//63 112//112 111//111
f 113//113 61//61 65//65
f 61//61 113//113 112//112
f 114//114 65//65 66//66
f 65//65 114//114 113//113
f 115//115 66//66 69//69
f 66//66 115//115 114//114
f 69//69 70//70 116//116
f 115//115 69//69 116//116
f 70//70 75//75 117//117
f 116//116 70//70 117//117
f 75//75 73//73 118//118
f 117//117 75//75 118//118
f 73//73 78//78 119//119
f 118//118 73//73 119//119
f 78//78 79//79 120//120
f 119//119 78//78 120//120
f 82//82 79//79 2//2
f 120//120 79//79 82//82
f 1//1 121//121 4//4
f 121//121 122//122 4//4
f 4//4 122//122 6//6
f 122//122 123//123 6//6
f 6//6 123//123 8//8
f 123//123 124//124 8//8
f 8//8 124//124 10//10
f 10//10 124//124 125//125
f 10//10 125//125 12//12
f 12//12 125//125 126//126
f 12//12 126//126 14//14
f 126//126 127//127 14//14
f 14//14 127//127 16//16
f 127//127 128//128 16//16
f 16//16 128//128 18//18
f 128//128 129//129 18//18
f 18//18 129//129 20//20
f 129//129 130//130 20//20
f 20//20 130//130 23//23
f 130//130 131//131 23//23
f 23//23 131//131 24//24
f 131//131 132//132 24//24
f 24//24 132//132 27//27
f 132//132 133//133 27//27
f 27//27 133//133 28//28
f 133//133 134//134 28//28
f 28//28 134//134 31//31
f 134//134 135//135 31//31
f 31//31 135//135 32//32
f 32//32 135//135 136//136
f 32//32 136//136 34//34
f 34//34 136//136 137//137
f 34//34 137//137 36//36
f 36//36 137//137 138//138
f 36//36 138//138 37//37
f 37//37 138//138 139//139
f 37//37 139//139 40//40
f 40//40 139//139 140//140
f 40//40 140//140 43//43
f 140//140 141//141 43//43
f 43//43 141//141 44//44
f 141//141 142//142 44//44
f 44//44 142//142 47//47
f 142//142 143//143 47//47
f 47//47 143//143 48//48
f 143//143 144//144 48//48
f 48//48 144//144 51//51
f 144//144 145//145 51//51
f 51//51 145//145 52//52
f 145//145 146//146 52//52
f 52//52 146//146 54//54
f 146//146 147//147 54//54
f 54//54 147//147 56//56
f 147//147 148//148 56//56
f 56//56 148//148 59//59
f 148//148 149//149 59//59
f 59//59 149//149 60//60
f 149//149 150//150 60//60
f 60//60 150//150 62//62
f 62//62 150//150 151//151
f 62//62 151//151 64//64
f 64//64 151//151 152//152
f 64//64 152//152 67//67
f 67//67 152//152 153//153
f 67//67 153//153 68//68
f 68//68 153//153 154//154
f 68//68 154//154 71//71
f 154//154 155//155 71//71
f 71//71 155//155 72//72
f 155//155 156//156 72//72
f 72//72 156//156 74//74
f 156//156 157//157 74//74
f 74//74 157//157 76//76
f 157//157 158//158 76//76
f 76//76 158//158 77//77
f 158//158 159//159 77//77
f 77//77 159//159 80//80
f 159//159 160//160 80//80
f 80//80 160//160 1//1
f 160//160 121//121 1//1
f 161//161 82//82 162//162
f 81//81 162//162 82//82
f 86//86 163//163 85//85
f 164//164 85//85 163//163
f 90//90 165//165 89//89
f 89//89 165//165 166//166
f 94//94 167//167 93//93
f 168//168 93//93 167//167
f 98//98 169//169 97//97
f 170//170 97//97 169//169
f 102//102 171//171 101//101
f 172//172 101//101 171//171
f 106//106 173//173 105//105
f 174//174 105//105 173//173
f 110//110 175//175 109//109
f 176//176 109//109 175//175
f 114//114 177//177 113//113
f 113//113 177//177 178//178
f 118//118 179//179 117//117
f 180//180 117//117 179//179
f 181//181 183//183 182//182
f 183//183 184//184 182//182
f 185//185 187//187 186//186
f 187//187 188//188 186//186
f 189//189 191//191 190//190
f 191//191 192//192 190//190
f 193//193 195//195 194//194
f 195//195 196//196 194//194
f 197//197 199//199 198//198
f 199//199 200//200 198//198
f 201//201 203//203 202//202
f 203//203 204//204 202//202
f 205//205 207//207 206//206
f 207//207 208//208 206//206
f 209//209 211//211 210//210
f 211//211 212//212 210//210
f 213//213 215//215 214//214
f 215//215 216//216 214//214
f 217//217 219//219 218//218
f 218//218 219//219 220//220
f 221//221 223//223 222//222
f 224//224 222//222 223//223
f 225//225 227//227 226//226
f 228//228 225//225 226//226
f 229//229 231//231 230//230
f 232//232 231//231 229//229
f 233//233 235//235 234//234
f 236//236 235//235 233//233
f 237//237 239//239 238//238
f 240//240 237//237 238//238
f 241//241 243//243 242//242
f 244//244 241//241 242//242
f 245//245 247//247 246//246
f 248//248 247//247 245//245
f 249//249 251//251 250//250
f 252//252 249//249 250//250
f 253//253 255//255 254//254
f 255//255 253//253 256//256
f 257//257 259//259 258//258
f 259//259 257//257 260//260
f 261//261 262//262 158//158
f 261//261 158//158 157//157
f 154//154 264//264 263//263
f 264//264 154//154 153//153
f 265//265 266//266 150//150
f 150//150 149//149 265//265
f 267//267 268//268 146//146
f 267//267 146//146 145//145
f 269//269 270//270 142//142
f 269//269 142//142 141//141
f 138//138 272//272 271//271
f 138//138 137//137 272//272
f 273//273 274//274 134//134
f 133//133 273//273 134//134
f 275//275 276//276 130//130
f 275//275 130//130 129//129
f 277//277 278//278 126//126
f 126//126 125//125 277//277
f 279//279 280//280 121//121
f 122//122 121//121 280//280
f 281//281 179//179 282//282
f 179//179 281//281 180//180
f 222//222 282//282 221//221
f 281//281 282//282 222//222
f 283//283 177//177 284//284
f 177//177 283//283 178//178
f 225//225 284//284 227//227
f 225//225 283//283 284//284
f 175//175 286//286 285//285
f 175//175 285//285 176//176
f 231//231 286//286 230//230
f 231//231 285//285 286//286
f 287//287 173//173 288//288
f 173//173 287//287 174//174
f 235//235 288//288 234//234
f 235//235 287//287 288//288
f 289//289 171//171 290//290
f 171//171 289//289 172//172
f 237//237 290//290 239//239
f 237//237 289//289 290//290
f 291//291 169//169 292//292
f 169//169 291//291 170//170
f 241//241 292//292 243//243
f 241//241 291//291 292//292
f 167//167 294//294 293//293
f 167//167 293//293 168//168
f 247//247 294//294 246//246
f 293//293 294//294 247//247
f 295//295 165//165 296//296
f 165//165 295//295 166//166
f 249//249 296//296 251//251
f 249//249 295//295 296//296
f 297//297 163//163 298//298
f 163//163 297//297 164//164
f 255//255 298//298 254//254
f 255//255 297//297 298//298
f 299//299 301//301 300//300
f 301//301 299//299 302//302
f 162//162 300//300 161//161
f 162//162 299//299 300//300
f 303//303 304//304 219//219
f 220//220 219//219 304//304
f 303//303 262//262 261//261
f 303//303 261//261 304//304
f 305//305 306//306 215//215
f 216//216 215//215 306//306
f 263//263 264//264 305//305
f 306//306 305//305 264//264
f 307//307 308//308 211//211
f 308//308 212//212 211//211
f 266//266 265//265 307//307
f 307//307 265//265 308//308
f 309//309 310//310 207//207
f 208//208 207//207 310//310
f 268//268 267//267 309//309
f 309//309 267//267 310//310
f 311//311 312//312 203//203
f 204//204 203//203 312//312
f 311//311 270//270 269//269
f 311//311 269//269 312//312
f 313//313 314//314 199//199
f 314//314 200//200 199//199
f 271//271 272//272 313//313
f 314//314 313//313 272//272
f 195//195 316//316 315//315
f 315//315 196//196 195//195
f 316//316 274//274 273//273
f 316//316 273//273 315//315
f 317//317 318//318 191//191
f 192//192 191//191 318//318
f 317//317 276//276 275//275
f 317//317 275//275 318//318
f 319//319 320//320 187//187
f 188//188 187//187 320//320
f 278//278 277//277 319//319
f 319//319 277//277 320//320
f 321//321 322//322 279//279
f 280//280 279//279 322//322
f 323//323 324//324 321//321
f 322//322 321//321 324//324
f 95//95 96//96 136//136
f 135//135 95//95 136//136
f 137//137 96//96 97//97
f 96//96 137//137 136//136
f 272//272 97//97 170//170
f 97//97 272//272 137//137
f 170//170 291//291 314//314
f 170//170 314//314 272//272
f 291//291 241//241 200//200
f 291//291 200//200 314//314
f 241//241 244//244 198//198
f 241//241 198//198 200//200
f 325//325 327//327 326//326
f 326//326 327//327 328//328
f 329//329 330//330 325//325
f 327//327 325//325 330//330
f 245//245 246//246 193//193
f 193//193 246//246 195//195
f 294//294 316//316 246//246
f 316//316 195//195 246//246
f 274//274 294//294 167//167
f 316//316 294//294 274//274
f 167//167 94//94 134//134
f 167//167 134//134 274//274
f 95//95 135//135 94//94
f 134//134 94//94 135//135
f 91//91 92//92 132//132
f 131//131 91//91 132//132
f 92//92 93//93 133//133
f 92//92 133//133 132//132
f 273//273 93//93 168//168
f 93//93 273//273 133//133
f 168//168 293//293 315//315
f 168//168 315//315 273//273
f 293//293 247//247 196//196
f 293//293 196//196 315//315
f 247//247 248//248 194//194
f 247//247 194//194 196//196
f 331//331 333//333 332//332
f 332//332 333//333 334//334
f 335//335 336//336 331//331
f 333//333 331//331 336//336
f 250//250 251//251 189//189
f 189//189 251//251 191//191
f 296//296 317//317 251//251
f 191//191 251//251 317//317
f 165//165 276//276 296//296
f 317//317 296//296 276//276
f 130//130 165//165 90//90
f 130//130 276//276 165//165
f 91//91 131//131 90//90
f 90//90 131//131 130//130
f 88//88 128//128 87//87
f 128//128 127//127 87//87
f 89//89 129//129 88//88
f 128//128 88//88 129//129
f 89//89 166//166 275//275
f 129//129 89//89 275//275
f 318//318 166//166 295//295
f 166//166 318//318 275//275
f 192//192 295//295 249//249
f 295//295 192//192 318//318
f 190//190 249//249 252//252
f 249//249 190//190 192//192
f 337//337 339//339 338//338
f 338//338 340//340 337//337
f 339//339 342//342 341//341
f 339//339 341//341 338//338
f 253//253 254//254 185//185
f 185//185 254//254 187//187
f 254//254 298//298 319//319
f 187//187 254//254 319//319
f 163//163 278//278 298//298
f 298//298 278//278 319//319
f 86//86 126//126 163//163
f 278//278 163//163 126//126
f 127//127 86//86 87//87
f 86//86 127//127 126//126
f 84//84 124//124 83//83
f 123//123 83//83 124//124
f 125//125 84//84 85//85
f 124//124 84//84 125//125
f 85//85 164//164 277//277
f 85//85 277//277 125//125
f 164//164 297//297 320//320
f 164//164 320//320 277//277
f 297//297 255//255 188//188
f 297//297 188//188 320//320
f 255//255 256//256 186//186
f 255//255 186//186 188//188
f 343//343 345//345 344//344
f 346//346 343//343 344//344
f 345//345 260//260 184//184
f 345//345 184//184 344//344
f 182//182 260//260 257//257
f 182//182 184//184 260//260
f 299//299 322//322 302//302
f 322//322 324//324 302//302
f 162//162 280//280 299//299
f 322//322 299//299 280//280
f 81//81 122//122 162//162
f 280//280 162//162 122//122
f 123//123 81//81 83//83
f 81//81 123//123 122//122
f 120//120 160//160 119//119
f 160//160 159//159 119//119
f 82//82 121//121 120//120
f 160//160 120//120 121//121
f 82//82 161//161 279//279
f 279//279 121//121 82//82
f 161//161 300//300 321//321
f 161//161 321//321 279//279
f 323//323 300//300 301//301
f 300//300 323//323 321//321
f 259//259 181//181 258//258
f 183//183 181//181 259//259
f 259//259 348//348 347//347
f 183//183 259//259 347//347
f 348//348 350//350 349//349
f 348//348 349//349 347//347
f 221//221 217//217 223//223
f 219//219 217//217 221//221
f 221//221 282//282 303//303
f 221//221 303//303 219//219
f 282//282 179//179 262//262
f 282//282 262//262 303//303
f 179//179 118//118 158//158
f 158//158 262//262 179//179
f 159//159 118//118 119//119
f 118//118 159//159 158//158
f 99//99 100//100 140//140
f 139//139 99//99 140//140
f 141//141 100//100 101//101
f 100//100 141//141 140//140
f 101//101 172//172 269//269
f 101//101 269//269 141//141
f 289//289 312//312 172//172
f 269//269 172//172 312//312
f 237//237 204//204 289//289
f 204//204 312//312 289//289
f 202//202 237//237 240//240
f 204//204 237//237 202//202
f 351//351 353//353 352//352
f 353//353 354//354 352//352
f 355//355 351//351 356//356
f 353//353 351//351 355//355
f 242//242 243//243 197//197
f 197//197 243//243 199//199
f 292//292 313//313 243//243
f 199//199 243//243 313//313
f 169//169 271//271 292//292
f 313//313 292//292 271//271
f 98//98 138//138 169//169
f 271//271 169//169 138//138
f 99//99 139//139 98//98
f 138//138 98//98 139//139
f 144//144 103//103 104//104
f 103//103 144//144 143//143
f 104//104 105//105 145//145
f 104//104 145//145 144//144
f 267//267 105//105 174//174
f 267//267 145//145 105//105
f 287//287 310//310 174//174
f 174//174 310//310 267//267
f 208//208 287//287 235//235
f 310//310 287//287 208//208
f 206//206 235//235 236//236
f 235//235 206//206 208//208
f 357//357 359//359 358//358
f 359//359 360//360 358//358
f 361//361 362//362 357//357
f 359//359 357//357 362//362
f 239//239 201//201 238//238
f 203//203 201//201 239//239
f 290//290 311//311 239//239
f 239//239 311//311 203//203
f 171//171 270//270 290//290
f 311//311 290//290 270//270
f 102//102 142//142 171//171
f 270//270 171//171 142//142
f 102//102 103//103 143//143
f 143//143 142//142 102//102
f 108//108 148//148 107//107
f 147//147 107//107 148//148
f 108//108 109//109 149//149
f 149//149 148//148 108//108
f 176//176 265//265 109//109
f 265//265 149//149 109//109
f 308//308 176//176 285//285
f 265//265 176//176 308//308
f 231//231 212//212 285//285
f 285//285 212//212 308//308
f 210//210 231//231 232//232
f 212//212 231//231 210//210
f 363//363 365//365 364//364
f 365//365 366//366 364//364
f 367//367 368//368 363//363
f 365//365 363//363 368//368
f 234//234 205//205 233//233
f 207//207 205//205 234//234
f 234//234 288//288 309//309
f 234//234 309//309 207//207
f 268//268 288//288 173//173
f 288//288 268//268 309//309
f 146//146 173//173 106//106
f 173//173 146//146 268//268
f 147//147 106//106 107//107
f 146//146 106//106 147//147
f 111//111 112//112 152//152
f 152//152 151//151 111//111
f 153//153 112//112 113//113
f 153//153 152//152 112//112
f 178//178 264//264 113//113
f 264//264 153//153 113//113
f 283//283 306//306 178//178
f 306//306 264//264 178//178
f 225//225 216//216 283//283
f 216//216 306//306 283//283
f 228//228 214//214 225//225
f 214//214 216//216 225//225
f 369//369 371//371 370//370
f 370//370 372//372 369//369
f 373//373 371//371 374//374
f 371//371 373//373 370//370
f 230//230 209//209 229//229
f 211//211 209//209 230//230
f 307//307 230//230 286//286
f 230//230 307//307 211//211
f 286//286 175//175 266//266
f 266//266 307//307 286//286
f 150//150 175//175 110//110
f 150//150 266//266 175//175
f 151//151 110//110 111//111
f 110//110 151//151 150//150
f 156//156 115//115 116//116
f 155//155 115//115 156//156
f 117//117 157//157 116//116
f 116//116 157//157 156//156
f 180//180 261//261 117//117
f 261//261 157//157 117//117
f 281//281 304//304 180//180
f 180//180 304//304 261//261
f 222//222 220//220 281//281
f 281//281 220//220 304//304
f 224//224 218//218 222//222
f 220//220 222//222 218//218
f 375//375 377//377 376//376
f 376//376 378//378 375//375
f 377//377 380//380 379//379
f 377//377 379//379 376//376
f 227//227 213//213 226//226
f 227//227 215//215 213//213
f 284//284 305//305 227//227
f 227//227 305//305 215//215
f 263//263 284//284 177//177
f 284//284 263//263 305//305
f 154//154 177//177 114//114
f 177//177 154//154 263//263
f 115//115 155//155 114//114
f 154//154 114//114 155//155
f 334//334 330//330 193//193
f 193//193 194//194 334//334
f 329//329 245//245 193//193
f 193//193 330//330 329//329
f 245//245 329//329 248//248
f 332//332 248//248 329//329
f 248//248 332//332 194//194
f 334//334 194//194 332//332
f 340//340 336//336 189//189
f 190//190 340//340 189//189
f 335//335 250//250 189//189
f 189//189 336//336 335//335
f 250//250 335//335 252//252
f 337//337 252//252 335//335
f 252//252 337//337 190//190
f 337//337 340//340 190//190
f 346//346 341//341 185//185
f 346//346 185//185 186//186
f 342//342 253//253 185//185
f 342//342 185//185 341//341
f 253//253 342//342 256//256
f 343//343 256//256 342//342
f 256//256 343//343 186//186
f 346//346 186//186 343//343
f 301//301 258//258 181//181
f 301//301 181//181 323//323
f 258//258 301//301 257//257
f 302//302 257//257 301//301
f 257//257 302//302 182//182
f 182//182 302//302 324//324
f 323//323 181//181 324//324
f 324//324 181//181 182//182
f 378//378 349//349 217//217
f 218//218 378//378 217//217
f 217//217 350//350 223//223
f 217//217 349//349 350//350
f 223//223 350//350 224//224
f 375//375 224//224 350//350
f 224//224 375//375 218//218
f 375//375 378//378 218//218
f 213//213 372//372 379//379
f 372//372 213//213 214//214
f 213//213 380//380 226//226
f 213//213 379//379 380//380
f 226//226 380//380 228//228
f 369//369 228//228 380//380
f 369//369 214//214 228//228
f 369//369 372//372 214//214
f 209//209 366//366 373//373
f 366//366 209//209 210//210
f 209//209 374//374 229//229
f 374//374 209//209 373//373
f 229//229 374//374 232//232
f 232//232 374//374 364//364
f 364//364 210//210 232//232
f 364//364 366//366 210//210
f 360//360 368//368 205//205
f 205//205 206//206 360//360
f 205//205 367//367 233//233
f 205//205 368//368 367//367
f 233//233 367//367 236//236
f 358//358 236//236 367//367
f 236//236 358//358 206//206
f 358//358 360//360 206//206
f 354//354 362//362 201//201
f 354//354 201//201 202//202
f 201//201 361//361 238//238
f 201//201 362//362 361//361
f 238//238 361//361 240//240
f 352//352 240//240 361//361
f 240//240 352//352 202//202
f 352//352 354//354 202//202
f 197//197 328//328 355//355
f 328//328 197//197 198//198
f 356//356 242//242 197//197
f 356//356 197//197 355//355
f 242//242 356//356 244//244
f 326//326 244//244 356//356
f 244//244 326//326 198//198
f 328//328 198//198 326//326
f 382//382 362//362 354//354
f 384//384 345//345 385//385
f 345//345 387//387 385//385
f 388//388 342//342 389//389
f 342//342 390//390 389//389
f 390//390 337//337 391//391
f 393//393 337//337 335//335
f 395//395 335//335 331//331
f 331//331 396//396 395//395
f 332//332 397//397 396//396
f 329//329 399//399 398//398
f 400//400 325//325 326//326
f 402//402 326//326 356//356
f 402//402 351//351 403//403
f 404//404 352//352 405//405
f 406//406 361//361 407//407
f 408//408 357//357 409//409
f 358//358 409//409 357//357
f 411//411 367//367 412//412
f 413//413 367//367 363//363
f 414//414 364//364 415//415
f 416//416 374//374 417//417
f 374//374 418//418 417//417
f 419//419 371//371 369//369
f 421//421 369//369 380//380
f 421//421 377//377 422//422
f 377//377 423//423 422//422
f 375//375 425//425 424//424
f 426//426 348//348 427//427
f 427//427 259//259 428//428
f 429//429 260//260 386//386
f 184//184 431//431 430//430
f 183//183 433//433 432//432
f 349//349 433//433 347//347
f 435//435 378//378 436//436
f 437//437 376//376 438//438
f 376//376 439//439 438//438
f 440//440 372//372 441//441
f 441//441 370//370 442//442
f 442//442 373//373 443//443
f 445//445 373//373 366//366
f 447//447 366//366 365//365
f 448//448 365//365 368//368
f 450//450 368//368 360//360
f 450//450 359//359 451//451
f 383//383 359//359 362//362
f 454//454 354//354 353//353
f 353//353 455//455 454//454
f 456//456 328//328 457//457
f 327//327 457//457 328//328
f 458//458 330//330 459//459
f 334//334 459//459 330//330
f 461//461 333//333 462//462
f 463//463 336//336 464//464
f 465//465 340//340 466//466
f 340//340 467//467 466//466
f 341//341 467//467 338//338
f 470//470 341//341 346//346
f 470//470 344//344 471//471
f 344//344 472//472 471//471
f 435//435 433//433 434//434
f 424//424 437//437 423//423
f 439//439 437//437 438//438
f 421//421 440//440 420//420
f 418//418 441//441 442//442
f 444//444 442//442 443//443
f 415//415 446//446 414//414
f 447//447 414//414 446//446
f 448//448 411//411 412//412
f 409//409 452//452 408//408
f 452//452 407//407 408//408
f 404//404 382//382 453//453
f 453//453 403//403 404//404
f 456//456 402//402 455//455
f 400//400 458//458 399//399
f 458//458 398//398 399//399
f 461//461 397//397 460//460
f 461//461 395//395 396//396
f 463//463 393//393 394//394
f 466//466 392//392 465//465
f 388//388 468//468 469//469
f 470//470 388//388 469//469
f 472//472 470//470 471//471
f 431//431 472//472 430//430
f 428//428 433//433 427//427
f 3//3 476//476 7//7
f 7//7 476//476 478//478
f 4//4 479//479 3//3
f 479//479 477//477 3//3
f 480//480 4//4 6//6
f 480//480 479//479 4//4
f 478//478 6//6 7//7
f 6//6 478//478 480//480
f 482//482 481//481 483//483
f 8//8 484//484 5//5
f 5//5 484//484 481//481
f 485//485 8//8 10//10
f 8//8 486//486 484//484
f 482//482 485//485 10//10
f 488//488 487//487 489//489
f 12//12 490//490 9//9
f 490//490 487//487 9//9
f 491//491 12//12 14//14
f 491//491 490//490 12//12
f 14//14 488//488 491//491
f 19//19 493//493 494//494
f 16//16 495//495 13//13
f 493//493 13//13 495//495
f 18//18 496//496 16//16
f 16//16 496//496 495//495
f 18//18 494//494 496//496
f 17//17 497//497 21//21
f 21//21 497//497 499//499
f 20//20 500//500 17//17
f 498//498 17//17 500//500
f 501//501 20//20 23//23
f 20//20 501//501 500//500
f 21//21 499//499 23//23
f 23//23 499//499 501//501
f 502//502 503//503 25//25
f 505//505 502//502 22//22
f 27//27 506//506 24//24
f 505//505 506//506 507//507
f 25//25 503//503 27//27
f 27//27 503//503 506//506
f 29//29 509//509 508//508
f 473//473 29//29 508//508
f 28//28 511//511 26//26
f 511//511 509//509 26//26
f 512//512 28//28 31//31
f 475//475 28//28 513//513
f 29//29 510//510 31//31
f 31//31 510//510 512//512
f 35//35 514//514 515//515
f 32//32 516//516 30//30
f 516//516 514//514 30//30
f 34//34 517//517 32//32
f 32//32 517//517 516//516
f 34//34 515//515 517//517
f 518//518 519//519 38//38
f 520//520 33//33 36//36
f 33//33 520//520 518//518
f 521//521 36//36 37//37
f 521//521 520//520 36//36
f 37//37 519//519 521//521
f 522//522 523//523 41//41
f 39//39 525//525 522//522
f 526//526 40//40 43//43
f 40//40 527//527 525//525
f 43//43 523//523 526//526
f 528//528 529//529 45//45
f 42//42 531//531 528//528
f 532//532 44//44 47//47
f 532//532 531//531 44//44
f 532//532 47//47 529//529
f 49//49 534//534 535//535
f 534//534 46//46 536//536
f 537//537 48//48 51//51
f 48//48 537//537 536//536
f 535//535 537//537 51//51
f 50//50 538//538 55//55
f 55//55 538//538 540//540
f 541//541 50//50 52//52
f 50//50 541//541 539//539
f 542//542 541//541 52//52
f 55//55 540//540 54//54
f 54//54 540//540 542//542
f 53//53 543//543 57//57
f 545//545 543//543 546//546
f 547//547 544//544 53//53
f 56//56 549//549 547//547
f 545//545 548//548 59//59
f 550//550 551//551 63//63
f 58//58 553//553 550//550
f 554//554 553//553 60//60
f 63//63 551//551 62//62
f 551//551 554//554 62//62
f 556//556 557//557 65//65
f 61//61 558//558 556//556
f 67//67 559//559 64//64
f 64//64 559//559 558//558
f 67//67 557//557 560//560
f 69//69 561//561 562//562
f 66//66 563//563 561//561
f 564//564 68//68 71//71
f 564//564 563//563 68//68
f 71//71 562//562 564//564
f 565//565 566//566 75//75
f 70//70 568//568 565//565
f 569//569 72//72 74//74
f 568//568 569//569 570//570
f 75//75 566//566 74//74
f 74//74 566//566 569//569
f 572//572 571//571 573//573
f 571//571 73//73 574//574
f 77//77 575//575 76//76
f 574//574 575//575 576//576
f 572//572 575//575 77//77
f 2//2 577//577 578//578
f 579//579 577//577 79//79
f 1//1 580//580 80//80
f 80//80 580//580 579//579
f 578//578 581//581 1//1
f 575//575 573//573 576//576
f 550//550 555//555 552//552
f 522//522 527//527 524//524
f 510//510 513//513 512//512
f 474//474 511//511 475//475
f 502//502 507//507 504//504
f 579//579 580//580 577//577
f 577//577 580//580 578//578
f 578//578 580//580 581//581
f 476//476 477//477 480//480
f 476//476 480//480 478//478
f 480//480 477//477 479//479
f 481//481 484//484 486//486
f 481//481 486//486 483//483
f 486//486 485//485 483//483
f 483//483 485//485 482//482
f 489//489 487//487 492//492
f 492//492 487//487 490//490
f 489//489 492//492 488//488
f 488//488 492//492 491//491
f 496//496 494//494 493//493
f 496//496 493//493 495//495
f 497//497 498//498 500//500
f 497//497 500//500 501//501
f 497//497 501//501 499//499
f 505//505 507//507 502//502
f 507//507 506//506 504//504
f 504//504 506//506 503//503
f 474//474 473//473 508//508
f 474//474 508//508 511//511
f 511//511 508//508 509//509
f 474//474 475//475 473//473
f 473//473 475//475 513//513
f 473//473 513//513 510//510
f 515//515 514//514 517//517
f 517//517 514//514 516//516
f 521//521 519//519 518//518
f 521//521 518//518 520//520
f 522//522 525//525 527//527
f 526//526 523//523 524//524
f 526//526 524//524 527//527
f 531//531 533//533 528//528
f 528//528 533//533 530//530
f 533//533 532//532 530//530
f 530//530 532//532 529//529
f 537//537 534//534 536//536
f 534//534 537//537 535//535
f 541//541 542//542 539//539
f 539//539 542//542 538//538
f 538//538 542//542 540//540
f 549//549 546//546 543//543
f 549//549 543//543 544//544
f 549//549 544//544 547//547
f 549//549 548//548 546//546
f 546//546 548//548 545//545
f 553//553 555//555 550//550
f 555//555 554//554 552//552
f 552//552 554//554 551//551
f 557//557 556//556 559//559
f 557//557 559//559 560//560
f 559//559 556//556 558//558
f 563//563 564//564 561//561
f 561//561 564//564 562//562
f 565//565 568//568 570//570
f 565//565 570//570 567//567
f 570//570 569//569 567//567
f 567//567 569//569 566//566
f 573//573 571//571 576//576
f 576//576 571//571 574//574
f 575//575 572//572 573//573
f 2//2 578//578 1//1
f 580//580 1//1 581//581
f 80//80 579//579 79//79
f 577//577 2//2 79//79
f 78//78 572//572 77//77
f 575//575 574//574 76//76
f 76//76 574//574 73//73
f 571//571 572//572 78//78
f 571//571 78//78 73//73
f 569//569 568//568 72//72
f 72//72 568//568 70//70
f 566//566 565//565 567//567
f 565//565 75//75 70//70
f 69//69 562//562 71//71
f 68//68 563//563 66//66
f 561//561 69//69 66//66
f 557//557 67//67 65//65
f 559//559 67//67 560//560
f 64//64 558//558 61//61
f 556//556 65//65 61//61
f 553//553 554//554 555//555
f 62//62 554//554 60//60
f 60//60 553//553 58//58
f 551//551 550//550 552//552
f 550//550 63//63 58//58
f 545//545 59//59 57//57
f 549//549 56//56 548//548
f 59//59 548//548 56//56
f 56//56 547//547 53//53
f 543//543 545//545 57//57
f 543//543 53//53 544//544
f 54//54 542//542 52//52
f 538//538 50//50 539//539
f 535//535 51//51 49//49
f 48//48 536//536 46//46
f 534//534 49//49 46//46
f 529//529 47//47 45//45
f 531//531 532//532 533//533
f 44//44 531//531 42//42
f 529//529 528//528 530//530
f 528//528 45//45 42//42
f 41//41 523//523 43//43
f 527//527 40//40 526//526
f 40//40 525//525 39//39
f 523//523 522//522 524//524
f 522//522 41//41 39//39
f 519//519 37//37 38//38
f 518//518 38//38 33//33
f 35//35 515//515 34//34
f 514//514 35//35 30//30
f 28//28 475//475 511//511
f 28//28 512//512 513//513
f 29//29 473//473 510//510
f 509//509 29//29 26//26
f 506//506 505//505 24//24
f 24//24 505//505 22//22
f 503//503 502//502 504//504
f 502//502 25//25 22//22
f 497//497 17//17 498//498
f 19//19 494//494 18//18
f 493//493 19//19 13//13
f 15//15 488//488 14//14
f 490//490 491//491 492//492
f 487//487 488//488 15//15
f 487//487 15//15 9//9
f 11//11 482//482 10//10
f 486//486 8//8 485//485
f 481//481 482//482 11//11
f 481//481 11//11 5//5
f 476//476 3//3 477//477
f 428//428 429//429 432//432
f 432//432 429//429 431//431
f 428//428 432//432 433//433
f 386//386 384//384 429//429
f 429//429 384//384 431//431
f 431//431 384//384 472//472
f 385//385 387//387 384//384
f 384//384 387//387 472//472
f 472//472 387//387 470//470
f 388//388 470//470 387//387
f 390//390 467//467 389//389
f 389//389 467//467 388//388
f 388//388 467//467 468//468
f 391//391 392//392 466//466
f 391//391 466//466 467//467
f 391//391 467//467 390//390
f 465//465 392//392 464//464
f 464//464 392//392 463//463
f 463//463 392//392 393//393
f 463//463 394//394 462//462
f 462//462 394//394 461//461
f 461//461 394//394 395//395
f 397//397 461//461 396//396
f 460//460 397//397 459//459
f 459//459 397//397 458//458
f 458//458 397//397 398//398
f 456//456 457//457 401//401
f 401//401 457//457 400//400
f 400//400 457//457 458//458
f 402//402 456//456 401//401
f 455//455 402//402 454//454
f 454//454 402//402 453//453
f 453//453 402//402 403//403
f 381//381 382//382 406//406
f 406//406 382//382 405//405
f 405//405 382//382 404//404
f 381//381 406//406 383//383
f 383//383 406//406 452//452
f 452//452 406//406 407//407
f 449//449 450//450 411//411
f 411//411 450//450 410//410
f 410//410 450//450 451//451
f 410//410 451//451 409//409
f 409//409 451//451 452//452
f 411//411 448//448 449//449
f 412//412 413//413 448//448
f 448//448 413//413 447//447
f 447//447 413//413 414//414
f 444//444 445//445 415//415
f 444//444 415//415 416//416
f 415//415 445//445 446//446
f 417//417 418//418 416//416
f 416//416 418//418 444//444
f 444//444 418//418 442//442
f 440//440 441//441 419//419
f 440//440 419//419 420//420
f 419//419 441//441 418//418
f 440//440 421//421 439//439
f 422//422 423//423 421//421
f 421//421 423//423 439//439
f 439//439 423//423 437//437
f 435//435 436//436 425//425
f 425//425 436//436 424//424
f 424//424 436//436 437//437
f 426//426 427//427 425//425
f 425//425 427//427 435//435
f 435//435 427//427 433//433
f 344//344 184//184 430//430
f 344//344 430//430 472//472
f 344//344 470//470 346//346
f 469//469 468//468 341//341
f 469//469 341//341 470//470
f 467//467 341//341 468//468
f 467//467 340//340 338//338
f 336//336 340//340 464//464
f 464//464 340//340 465//465
f 333//333 336//336 462//462
f 462//462 336//336 463//463
f 333//333 461//461 334//334
f 460//460 459//459 334//334
f 460//460 334//334 461//461
f 330//330 458//458 327//327
f 457//457 327//327 458//458
f 355//355 328//328 455//455
f 455//455 328//328 456//456
f 455//455 353//353 355//355
f 453//453 382//382 354//354
f 453//453 354//354 454//454
f 452//452 451//451 359//359
f 452//452 359//359 383//383
f 359//359 450//450 360//360
f 449//449 448//448 368//368
f 449//449 368//368 450//450
f 365//365 448//448 447//447
f 446//446 445//445 366//366
f 446//446 366//366 447//447
f 444//444 443//443 373//373
f 444//444 373//373 445//445
f 373//373 442//442 370//370
f 370//370 441//441 372//372
f 379//379 372//372 439//439
f 439//439 372//372 440//440
f 439//439 376//376 379//379
f 437//437 436//436 376//376
f 376//376 436//436 378//378
f 435//435 434//434 378//378
f 378//378 434//434 349//349
f 433//433 349//349 434//434
f 433//433 183//183 347//347
f 184//184 183//183 432//432
f 184//184 432//432 431//431
f 429//429 428//428 260//260
f 260//260 428//428 259//259
f 259//259 427//427 348//348
f 348//348 426//426 350//350
f 375//375 350//350 426//426
f 375//375 426//426 425//425
f 377//377 375//375 424//424
f 377//377 424//424 423//423
f 377//377 421//421 380//380
f 420//420 419//419 369//369
f 420//420 369//369 421//421
f 371//371 419//419 418//418
f 418//418 374//374 371//371
f 364//364 374//374 415//415
f 415//415 374//374 416//416
f 363//363 364//364 413//413
f 413//413 364//364 414//414
f 367//367 413//413 412//412
f 358//358 367//367 410//410
f 410//410 367//367 411//411
f 409//409 358//358 410//410
f 361//361 357//357 407//407
f 407//407 357//357 408//408
f 352//352 361//361 405//405
f 405//405 361//361 406//406
f 351//351 352//352 403//403
f 403//403 352//352 404//404
f 351//351 402//402 356//356
f 401//401 400//400 326//326
f 401//401 326//326 402//402
f 325//325 400//400 399//399
f 399//399 329//329 325//325
f 332//332 329//329 398//398
f 332//332 398//398 397//397
f 396//396 331//331 332//332
f 394//394 393//393 335//335
f 394//394 335//335 395//395
f 392//392 391//391 337//337
f 392//392 337//337 393//393
f 337//337 390//390 339//339
f 390//390 342//342 339//339
f 343//343 342//342 387//387
f 387//387 342//342 388//388
f 387//387 345//345 343//343
f 384//384 386//386 345//345
f 345//345 386//386 260//260
f 381//381 383//383 362//362
f 381//381 362//362 382//382
