# File exported by Houdini 20.5.445 (www.sidefx.com)
# 510 points
# 2424 vertices
# 808 primitives
# Bounds: [-1.09428608, -0.177282423, -0.548684776] to [0.946465373, 0.107475147, 0.548684776]
g 
v 0.868653774 0.103820957 -0.325598389
v 0.859468341 0.103820957 -0.332271963
v 0.853791475 0.107475147 -0.314800292
v 0.84811461 0.103820957 -0.332271963
v 0.838929176 0.103820957 -0.325598389
v 0.835420668 0.103820957 -0.314800292
v 0.838929176 0.103820957 -0.304002196
v 0.84811461 0.103820957 -0.297328621
v 0.859468341 0.103820957 -0.297328621
v 0.868653774 0.103820957 -0.304002196
v 0.872162282 0.103820957 -0.314800292
v -0.985136986 0.103820957 -0.325598389
v -0.994322419 0.103820957 -0.332271963
v -0.999999285 0.107475147 -0.314800292
v -1.00567615 0.103820957 -0.332271963
v -1.01486158 0.103820957 -0.325598389
v -1.01837015 0.103820957 -0.314800292
v -1.01486158 0.103820957 -0.304002196
v -1.00567615 0.103820957 -0.297328621
v -0.994322419 0.103820957 -0.297328621
v -0.985136986 0.103820957 -0.304002196
v -0.981628478 0.103820957 -0.314800292
v 0.730473578 0.103820957 -0.460502803
v 0.721288145 0.103820957 -0.467176378
v 0.715611279 0.107475147 -0.449704707
v 0.709934413 0.103820957 -0.467176378
v 0.70074898 0.103820957 -0.460502803
v 0.697240472 0.103820957 -0.449704707
v 0.70074898 0.103820957 -0.43890661
v 0.709934413 0.103820957 -0.432233036
v 0.721288145 0.103820957 -0.432233036
v 0.730473578 0.103820957 -0.43890661
v 0.733982086 0.103820957 -0.449704707
v -0.0582950711 0.103820957 -0.460502803
v -0.0674804822 0.103820957 -0.467176378
v -0.0731573701 0.107475147 -0.449704707
v -0.0788342729 0.103820957 -0.467176378
v -0.0880196691 0.103820957 -0.460502803
v -0.0915281773 0.103820957 -0.449704707
v -0.0880196616 0.103820957 -0.43890661
v -0.078834258 0.103820957 -0.432233036
v -0.0674804673 0.103820957 -0.432233036
v -0.0582950711 0.103820957 -0.43890661
v -0.0547865592 0.103820957 -0.449704707
v -0.463060498 0.103820957 -0.460502803
v -0.472245902 0.103820957 -0.467176378
v -0.477922797 0.107475147 -0.449704707
v -0.483599693 0.103820957 -0.467176378
v -0.492785096 0.103820957 -0.460502803
v -0.496293604 0.103820957 -0.449704707
v -0.492785096 0.103820957 -0.43890661
v -0.483599693 0.103820957 -0.432233036
v -0.472245902 0.103820957 -0.432233036
v -0.463060498 0.103820957 -0.43890661
v -0.45955199 0.103820957 -0.449704707
v -0.859011948 0.103820957 -0.460502803
v -0.868197381 0.103820957 -0.467176378
v -0.873874247 0.107475147 -0.449704707
v -0.879551113 0.103820957 -0.467176378
v -0.888736546 0.103820957 -0.460502803
v -0.892245054 0.103820957 -0.449704707
v -0.888736546 0.103820957 -0.43890661
v -0.879551113 0.103820957 -0.432233036
v -0.868197381 0.103820957 -0.432233036
v -0.859011948 0.103820957 -0.43890661
v -0.85550344 0.103820957 -0.449704707
v 0.329286575 0.103820957 -0.460502803
v 0.320101172 0.103820957 -0.467176378
v 0.314424276 0.107475147 -0.449704707
v 0.308747381 0.103820957 -0.467176378
v 0.299561977 0.103820957 -0.460502803
v 0.296053469 0.103820957 -0.449704707
v 0.299561977 0.103820957 -0.43890661
v 0.308747381 0.103820957 -0.432233036
v 0.320101172 0.103820957 -0.432233036
v 0.329286575 0.103820957 -0.43890661
v 0.332795084 0.103820957 -0.449704707
v 0.730473578 0.103820957 0.437469602
v 0.721288145 0.103820957 0.430796027
v 0.715611279 0.107475147 0.448267698
v 0.709934413 0.103820957 0.430796027
v 0.70074898 0.103820957 0.437469602
v 0.697240472 0.103820957 0.448267698
v 0.70074898 0.103820957 0.459065795
v 0.709934413 0.103820957 0.465739369
v 0.721288145 0.103820957 0.465739369
v 0.730473578 0.103820957 0.459065795
v 0.733982086 0.103820957 0.448267698
v -0.985136986 0.103820957 0.310607165
v -0.994322419 0.103820957 0.303933591
v -0.999999285 0.107475147 0.321405262
v -1.00567615 0.103820957 0.303933591
v -1.01486158 0.103820957 0.310607165
v -1.01837015 0.103820957 0.321405262
v -1.01486158 0.103820957 0.332203358
v -1.00567615 0.103820957 0.338876933
v -0.994322419 0.103820957 0.338876933
v -0.985136986 0.103820957 0.332203358
v -0.981628478 0.103820957 0.321405262
v 0.868653774 0.103820957 0.310607165
v 0.859468341 0.103820957 0.303933591
v 0.853791475 0.107475147 0.321405262
v 0.84811461 0.103820957 0.303933591
v 0.838929176 0.103820957 0.310607165
v 0.835420668 0.103820957 0.321405262
v 0.838929176 0.103820957 0.332203358
v 0.84811461 0.103820957 0.338876933
v 0.859468341 0.103820957 0.338876933
v 0.868653774 0.103820957 0.332203358
v 0.872162282 0.103820957 0.321405262
v -0.859011948 0.103820957 0.437469602
v -0.868197381 0.103820957 0.430796027
v -0.873874247 0.107475147 0.448267698
v -0.879551113 0.103820957 0.430796027
v -0.888736546 0.103820957 0.437469602
v -0.892245054 0.103820957 0.448267698
v -0.888736546 0.103820957 0.459065795
v -0.879551113 0.103820957 0.465739369
v -0.868197381 0.103820957 0.465739369
v -0.859011948 0.103820957 0.459065795
v -0.85550344 0.103820957 0.448267698
v -0.0582950711 0.103820957 0.437469602
v -0.0674804822 0.103820957 0.430796027
v -0.0731573701 0.107475147 0.448267698
v -0.0788342729 0.103820957 0.430796027
v -0.0880196691 0.103820957 0.437469602
v -0.0915281773 0.103820957 0.448267698
v -0.0880196616 0.103820957 0.459065795
v -0.078834258 0.103820957 0.465739369
v -0.0674804673 0.103820957 0.465739369
v -0.0582950711 0.103820957 0.459065795
v -0.0547865592 0.103820957 0.448267698
v 0.329286575 0.103820957 0.437469602
v 0.320101172 0.103820957 0.430796027
v 0.314424276 0.107475147 0.448267698
v 0.308747381 0.103820957 0.430796027
v 0.299561977 0.103820957 0.437469602
v 0.296053469 0.103820957 0.448267698
v 0.299561977 0.103820957 0.459065795
v 0.308747381 0.103820957 0.465739369
v 0.320101172 0.103820957 0.465739369
v 0.329286575 0.103820957 0.459065795
v 0.332795084 0.103820957 0.448267698
v -0.463060498 0.103820957 0.437469602
v -0.472245902 0.103820957 0.430796027
v -0.477922797 0.107475147 0.448267698
v -0.483599693 0.103820957 0.430796027
v -0.492785096 0.103820957 0.437469602
v -0.496293604 0.103820957 0.448267698
v -0.492785096 0.103820957 0.459065795
v -0.483599693 0.103820957 0.465739369
v -0.472245902 0.103820957 0.465739369
v -0.463060498 0.103820957 0.459065795
v -0.45955199 0.103820957 0.448267698
v 0.868653774 0.103820957 -0.0107981199
v 0.859468341 0.103820957 -0.0174717102
v 0.853791475 0.107475147 -2.99999989e-08
v 0.84811461 0.103820957 -0.0174717009
v 0.838929176 0.103820957 -0.0107981199
v 0.835420668 0.103820957 -2.99999989e-08
v 0.838929176 0.103820957 0.0107980603
v 0.84811461 0.103820957 0.0174716506
v 0.859468341 0.103820957 0.0174716506
v 0.868653774 0.103820957 0.0107980603
v 0.872162282 0.103820957 -2.99999989e-08
v -0.985136986 0.103820957 -0.0107981199
v -0.994322419 0.103820957 -0.0174717102
v -0.999999285 0.107475147 -2.99999989e-08
v -1.00567615 0.103820957 -0.0174717009
v -1.01486158 0.103820957 -0.0107981199
v -1.01837015 0.103820957 -2.99999989e-08
v -1.01486158 0.103820957 0.0107980603
v -1.00567615 0.103820957 0.0174716506
v -0.994322419 0.103820957 0.0174716506
v -0.985136986 0.103820957 0.0107980603
v -0.981628478 0.103820957 -2.99999989e-08
v 0.881253421 0.0934147537 -0.33475256
v 0.864280999 0.0934147537 -0.347083747
v 0.843301952 0.0934147537 -0.347083747
v 0.826329529 0.0934147537 -0.33475256
v 0.81984663 0.0934147537 -0.314800292
v 0.826329529 0.0934147537 -0.294848025
v 0.843301952 0.0934147537 -0.282516837
v 0.864280999 0.0934147537 -0.282516837
v 0.881253421 0.0934147537 -0.294848025
v 0.88773632 0.0934147537 -0.314800292
v -0.972537339 0.0934147537 -0.33475256
v -0.989509761 0.0934147537 -0.347083747
v -1.01048887 0.0934147537 -0.347083747
v -1.02746117 0.0934147537 -0.33475256
v -1.03394413 0.0934147537 -0.314800292
v -1.02746117 0.0934147537 -0.294848025
v -1.01048887 0.0934147537 -0.282516837
v -0.989509761 0.0934147537 -0.282516837
v -0.972537339 0.0934147537 -0.294848025
v -0.96605444 0.0934147537 -0.314800292
v 0.743073225 0.0934147537 -0.469656974
v 0.726100802 0.0934147537 -0.481988162
v 0.705121756 0.0934147537 -0.481988162
v 0.688149333 0.0934147537 -0.469656974
v 0.681666434 0.0934147537 -0.449704707
v 0.688149333 0.0934147537 -0.429752439
v 0.705121756 0.0934147537 -0.417421252
v 0.726100802 0.0934147537 -0.417421281
v 0.743073225 0.0934147537 -0.429752439
v 0.749556124 0.0934147537 -0.449704707
v -0.0456954315 0.0934147537 -0.469656974
v -0.0626678467 0.0934147537 -0.481988162
v -0.083646901 0.0934147537 -0.481988162
v -0.100619324 0.0934147537 -0.469656974
v -0.107102193 0.0934147537 -0.449704707
v -0.100619309 0.0934147537 -0.429752439
v -0.0836468935 0.0934147537 -0.417421252
v -0.0626678467 0.0934147537 -0.417421281
v -0.0456954315 0.0934147537 -0.429752439
v -0.039212551 0.0934147537 -0.449704707
v -0.450460851 0.0934147537 -0.469656974
v -0.467433274 0.0934147537 -0.481988162
v -0.488412321 0.0934147537 -0.481988162
v -0.505384743 0.0934147537 -0.469656974
v -0.511867642 0.0934147537 -0.449704707
v -0.505384743 0.0934147537 -0.429752439
v -0.488412321 0.0934147537 -0.417421252
v -0.467433274 0.0934147537 -0.417421281
v -0.450460851 0.0934147537 -0.429752439
v -0.443977982 0.0934147537 -0.449704707
v -0.846412301 0.0934147537 -0.469656974
v -0.863384724 0.0934147537 -0.481988162
v -0.88436377 0.0934147537 -0.481988162
v -0.901336193 0.0934147537 -0.469656974
v -0.907819092 0.0934147537 -0.449704707
v -0.901336193 0.0934147537 -0.429752439
v -0.88436377 0.0934147537 -0.417421252
v -0.863384724 0.0934147537 -0.417421281
v -0.846412301 0.0934147537 -0.429752439
v -0.839929402 0.0934147537 -0.449704707
v 0.341886222 0.0934147537 -0.469656974
v 0.3249138 0.0934147537 -0.481988162
v 0.303934753 0.0934147537 -0.481988162
v 0.28696233 0.0934147537 -0.469656974
v 0.280479461 0.0934147537 -0.449704707
v 0.28696233 0.0934147537 -0.429752439
v 0.303934753 0.0934147537 -0.417421252
v 0.3249138 0.0934147537 -0.417421281
v 0.341886222 0.0934147537 -0.429752439
v 0.348369092 0.0934147537 -0.449704707
v 0.743073225 0.0934147537 0.428315431
v 0.726100802 0.0934147537 0.415984243
v 0.705121756 0.0934147537 0.415984243
v 0.688149333 0.0934147537 0.428315431
v 0.681666434 0.0934147537 0.448267698
v 0.688149333 0.0934147537 0.468219966
v 0.705121756 0.0934147537 0.480551153
v 0.726100802 0.0934147537 0.480551124
v 0.743073225 0.0934147537 0.468219966
v 0.749556124 0.0934147537 0.448267698
v -0.972537339 0.0934147537 0.301452994
v -0.989509761 0.0934147537 0.289121807
v -1.01048887 0.0934147537 0.289121807
v -1.02746117 0.0934147537 0.301452994
v -1.03394413 0.0934147537 0.321405262
v -1.02746117 0.0934147537 0.341357529
v -1.01048887 0.0934147537 0.353688717
v -0.989509761 0.0934147537 0.353688717
v -0.972537339 0.0934147537 0.341357529
v -0.96605444 0.0934147537 0.321405262
v 0.881253421 0.0934147537 0.301452994
v 0.864280999 0.0934147537 0.289121807
v 0.843301952 0.0934147537 0.289121807
v 0.826329529 0.0934147537 0.301452994
v 0.81984663 0.0934147537 0.321405262
v 0.826329529 0.0934147537 0.341357529
v 0.843301952 0.0934147537 0.353688717
v 0.864280999 0.0934147537 0.353688717
v 0.881253421 0.0934147537 0.341357529
v 0.88773632 0.0934147537 0.321405262
v -0.846412301 0.0934147537 0.428315431
v -0.863384724 0.0934147537 0.415984243
v -0.88436377 0.0934147537 0.415984243
v -0.901336193 0.0934147537 0.428315431
v -0.907819092 0.0934147537 0.448267698
v -0.901336193 0.0934147537 0.468219966
v -0.88436377 0.0934147537 0.480551153
v -0.863384724 0.0934147537 0.480551124
v -0.846412301 0.0934147537 0.468219966
v -0.839929402 0.0934147537 0.448267698
v -0.0456954315 0.0934147537 0.428315431
v -0.0626678467 0.0934147537 0.415984243
v -0.083646901 0.0934147537 0.415984243
v -0.100619324 0.0934147537 0.428315431
v -0.107102193 0.0934147537 0.448267698
v -0.100619309 0.0934147537 0.468219966
v -0.0836468935 0.0934147537 0.480551153
v -0.0626678467 0.0934147537 0.480551124
v -0.0456954315 0.0934147537 0.468219966
v -0.039212551 0.0934147537 0.448267698
v 0.341886222 0.0934147537 0.428315431
v 0.3249138 0.0934147537 0.415984243
v 0.303934753 0.0934147537 0.415984243
v 0.28696233 0.0934147537 0.428315431
v 0.280479461 0.0934147537 0.448267698
v 0.28696233 0.0934147537 0.468219966
v 0.303934753 0.0934147537 0.480551153
v 0.3249138 0.0934147537 0.480551124
v 0.341886222 0.0934147537 0.468219966
v 0.348369092 0.0934147537 0.448267698
v -0.450460851 0.0934147537 0.428315431
v -0.467433274 0.0934147537 0.415984243
v -0.488412321 0.0934147537 0.415984243
v -0.505384743 0.0934147537 0.428315431
v -0.511867642 0.0934147537 0.448267698
v -0.505384743 0.0934147537 0.468219966
v -0.488412321 0.0934147537 0.480551153
v -0.467433274 0.0934147537 0.480551124
v -0.450460851 0.0934147537 0.468219966
v -0.443977982 0.0934147537 0.448267698
v 0.881253421 0.0934147537 -0.0199522991
v 0.864280999 0.0934147537 -0.0322834812
v 0.843301952 0.0934147537 -0.03228347
v 0.826329529 0.0934147537 -0.0199522898
v 0.81984663 0.0934147537 -2.99999989e-08
v 0.826329529 0.0934147537 0.0199522395
v 0.843301952 0.0934147537 0.0322834104
v 0.864280999 0.0934147537 0.0322834104
v 0.881253421 0.0934147537 0.0199522395
v 0.88773632 0.0934147537 -2.99999989e-08
v -0.972537339 0.0934147537 -0.0199522991
v -0.989509761 0.0934147537 -0.0322834812
v -1.01048887 0.0934147537 -0.03228347
v -1.02746117 0.0934147537 -0.0199522898
v -1.03394413 0.0934147537 -2.99999989e-08
v -1.02746117 0.0934147537 0.0199522395
v -1.01048887 0.0934147537 0.0322834104
v -0.989509761 0.0934147537 0.0322834104
v -0.972537339 0.0934147537 0.0199522395
v -0.96605444 0.0934147537 -2.99999989e-08
v -1.09428608 -0.0433843695 0.548684776
v 0.946465373 -0.0433843695 0.548684776
v 0.903919816 0.0939419866 0.5
v -1.05174053 0.0939419866 0.5
v -1.05174053 0.0939419866 -0.5
v 0.903919816 0.0939419866 -0.5
v 0.946465373 -0.0433843695 -0.548684776
v -1.09428608 -0.0433843695 -0.548684776
v 0.803331017 0.0939419866 0.398509771
v -0.951151729 0.0939419866 0.398509771
v 0.803331017 0.0939419866 -0.398509771
v -0.951151729 0.0939419866 -0.398509771
v 0.781512618 0.0698139518 0.373356074
v -0.929333329 0.0698139518 0.373356074
v 0.781512618 0.0698139518 -0.373356074
v -0.929333329 0.0698139518 -0.373356074
v 0.622814953 0.0698139518 0.164586231
v -0.770635664 0.0698139518 0.164586231
v 0.622814953 0.0698139518 0.04898322
v -0.770635664 0.0698139518 0.04898322
v 0.622814953 0.00384604 0.164586231
v -0.770635664 0.00384604 0.164586231
v 0.622814953 0.00384604 0.04898322
v -0.770635664 0.00384604 0.04898322
v -0.0445369855 -0.132870227 -0.131999999
v -0.0454480723 -0.14008224 -0.131999999
v -0.0481240898 -0.146841079 -0.131999999
v -0.0523968972 -0.15272209 -0.131999999
v -0.057998009 -0.157355741 -0.131999999
v -0.0645754933 -0.160450861 -0.131999999
v -0.0717160627 -0.161813006 -0.131999999
v -0.0789710432 -0.161356553 -0.131999999
v -0.085884586 -0.159110203 -0.131999999
v -0.0920222849 -0.155215114 -0.131999999
v -0.0969984829 -0.149915993 -0.131999999
v -0.100500502 -0.143545836 -0.131999999
v -0.102308311 -0.136504889 -0.131999999
v -0.102308311 -0.129235566 -0.131999999
v -0.100500494 -0.122194611 -0.131999999
v -0.0969984755 -0.115824454 -0.131999999
v -0.0920222774 -0.11052534 -0.131999999
v -0.0858845785 -0.106630236 -0.131999999
v -0.0789710283 -0.104383893 -0.131999999
v -0.0717160553 -0.103927448 -0.131999999
v -0.0645754859 -0.105289593 -0.131999999
v -0.0579980016 -0.108384721 -0.131999999
v -0.0523968861 -0.113018371 -0.131999999
v -0.0481240861 -0.118899383 -0.131999999
v -0.0454480723 -0.125658229 -0.131999999
v -0.0445369855 -0.132870227 0.287999988
v -0.0454480723 -0.14008224 0.287999988
v -0.0481240898 -0.146841079 0.287999988
v -0.0523968972 -0.15272209 0.287999988
v -0.057998009 -0.157355741 0.287999988
v -0.0645754933 -0.160450861 0.287999988
v -0.0717160627 -0.161813006 0.287999988
v -0.0789710432 -0.161356553 0.287999988
v -0.085884586 -0.159110203 0.287999988
v -0.0920222849 -0.155215114 0.287999988
v -0.0969984829 -0.149915993 0.287999988
v -0.100500502 -0.143545836 0.287999988
v -0.102308311 -0.136504889 0.287999988
v -0.102308311 -0.129235566 0.287999988
v -0.100500494 -0.122194611 0.287999988
v -0.0969984755 -0.115824454 0.287999988
v -0.0920222774 -0.11052534 0.287999988
v -0.0858845785 -0.106630236 0.287999988
v -0.0789710283 -0.104383893 0.287999988
v -0.0717160553 -0.103927448 0.287999988
v -0.0645754859 -0.105289593 0.287999988
v -0.0579980016 -0.108384721 0.287999988
v -0.0523968861 -0.113018371 0.287999988
v -0.0481240861 -0.118899383 0.287999988
v -0.0454480723 -0.125658229 0.287999988
v -0.0290369838 -0.132870227 0.0246611163
v -0.0304350331 -0.143936932 0.0246611163
v -0.0345413387 -0.154308259 0.0246611163
v -0.0410978831 -0.163332582 0.0246611163
v -0.0496926941 -0.17044282 0.0246611163
v -0.0597857311 -0.175192237 0.0246611163
v -0.0707428157 -0.177282423 0.0246611163
v -0.0818754584 -0.176582009 0.0246611163
v -0.0924841687 -0.173135027 0.0246611163
v -0.101902358 -0.167158067 0.0246611163
v -0.109538242 -0.159026667 0.0246611163
v -0.114912041 -0.149251759 0.0246611163
v -0.117686093 -0.138447538 0.0246611163
v -0.117686093 -0.127292886 0.0246611163
v -0.114912033 -0.116488673 0.0246611163
v -0.109538242 -0.106713779 0.0246611163
v -0.101902343 -0.098582387 0.0246611163
v -0.0924841538 -0.092605412 0.0246611163
v -0.081875436 -0.0891584381 0.0246611163
v -0.0707428083 -0.0884580314 0.0246611163
v -0.0597857237 -0.0905482173 0.0246611163
v -0.0496926829 -0.0952976346 0.0246611163
v -0.0410978682 -0.102407895 0.0246611163
v -0.0345413275 -0.11143221 0.0246611163
v -0.0304350294 -0.121803552 0.0246611163
v -0.0290369838 -0.132870227 0.0546611175
v -0.0304350331 -0.143936932 0.0546611175
v -0.0345413387 -0.154308259 0.0546611175
v -0.0410978831 -0.163332582 0.0546611175
v -0.0496926941 -0.17044282 0.0546611175
v -0.0597857311 -0.175192237 0.0546611175
v -0.0707428157 -0.177282423 0.0546611175
v -0.0818754584 -0.176582009 0.0546611175
v -0.0924841687 -0.173135027 0.0546611175
v -0.101902358 -0.167158067 0.0546611175
v -0.109538242 -0.159026667 0.0546611175
v -0.114912041 -0.149251759 0.0546611175
v -0.117686093 -0.138447538 0.0546611175
v -0.117686093 -0.127292886 0.0546611175
v -0.114912033 -0.116488673 0.0546611175
v -0.109538242 -0.106713779 0.0546611175
v -0.101902343 -0.098582387 0.0546611175
v -0.0924841538 -0.092605412 0.0546611175
v -0.081875436 -0.0891584381 0.0546611175
v -0.0707428083 -0.0884580314 0.0546611175
v -0.0597857237 -0.0905482173 0.0546611175
v -0.0496926829 -0.0952976346 0.0546611175
v -0.0410978682 -0.102407895 0.0546611175
v -0.0345413275 -0.11143221 0.0546611175
v -0.0304350294 -0.121803552 0.0546611175
v -0.0290369838 -0.132870227 0.150099963
v -0.0304350331 -0.143936932 0.150099963
v -0.0345413387 -0.154308259 0.150099963
v -0.0410978831 -0.163332582 0.150099963
v -0.0496926941 -0.17044282 0.150099963
v -0.0597857311 -0.175192237 0.150099963
v -0.0707428157 -0.177282423 0.150099963
v -0.0818754584 -0.176582009 0.150099963
v -0.0924841687 -0.173135027 0.150099963
v -0.101902358 -0.167158067 0.150099963
v -0.109538242 -0.159026667 0.150099963
v -0.114912041 -0.149251759 0.150099963
v -0.117686093 -0.138447538 0.150099963
v -0.117686093 -0.127292886 0.150099963
v -0.114912033 -0.116488673 0.150099963
v -0.109538242 -0.106713779 0.150099963
v -0.101902343 -0.098582387 0.150099963
v -0.0924841538 -0.092605412 0.150099963
v -0.081875436 -0.0891584381 0.150099963
v -0.0707428083 -0.0884580314 0.150099963
v -0.0597857237 -0.0905482173 0.150099963
v -0.0496926829 -0.0952976346 0.150099963
v -0.0410978682 -0.102407895 0.150099963
v -0.0345413275 -0.11143221 0.150099963
v -0.0304350294 -0.121803552 0.150099963
v -0.0290369838 -0.132870227 0.180099964
v -0.0304350331 -0.143936932 0.180099964
v -0.0345413387 -0.154308259 0.180099964
v -0.0410978831 -0.163332582 0.180099964
v -0.0496926941 -0.17044282 0.180099964
v -0.0597857311 -0.175192237 0.180099964
v -0.0707428157 -0.177282423 0.180099964
v -0.0818754584 -0.176582009 0.180099964
v -0.0924841687 -0.173135027 0.180099964
v -0.101902358 -0.167158067 0.180099964
v -0.109538242 -0.159026667 0.180099964
v -0.114912041 -0.149251759 0.180099964
v -0.117686093 -0.138447538 0.180099964
v -0.117686093 -0.127292886 0.180099964
v -0.114912033 -0.116488673 0.180099964
v -0.109538242 -0.106713779 0.180099964
v -0.101902343 -0.098582387 0.180099964
v -0.0924841538 -0.092605412 0.180099964
v -0.081875436 -0.0891584381 0.180099964
v -0.0707428083 -0.0884580314 0.180099964
v -0.0597857237 -0.0905482173 0.180099964
v -0.0496926829 -0.0952976346 0.180099964
v -0.0410978682 -0.102407895 0.180099964
v -0.0345413275 -0.11143221 0.180099964
v -0.0304350294 -0.121803552 0.180099964
vn 0.397372812 0.871058285 -0.28870818
vn 0.151782975 0.871058702 -0.467138767
vn -0 1 3.0999999e-07
vn -0.151783094 0.871058822 -0.467138708
vn -0.397372514 0.871058345 -0.288708031
vn -0.491178155 0.871059239 -1.00000001e-07
vn -0.397372276 0.871058583 0.28870815
vn -0.151783273 0.871058702 0.467138857
vn 0.151783586 0.871058345 0.467139423
vn 0.39737311 0.871057928 0.288708955
vn 0.49117893 0.871058762 9.99999994e-09
vn 0.397372425 0.871058464 -0.28870815
vn 0.151783466 0.871057928 -0.467140079
vn 9.99999994e-09 1 3.0999999e-07
vn -0.151783288 0.871058226 -0.467139721
vn -0.397372395 0.871058464 -0.288708121
vn -0.491179258 0.871058643 -0
vn -0.397372097 0.871058583 0.28870821
vn -0.151783332 0.871058345 0.467139542
vn 0.151783451 0.871057987 0.467140108
vn 0.397372395 0.871058464 0.28870821
vn 0.49117893 0.871058762 9.99999994e-09
vn 0.397372335 0.871058464 -0.288708389
vn 0.151782423 0.871058404 -0.467139602
vn 0 1 -1.59999999e-07
vn -0.151782289 0.871058762 -0.467139095
vn -0.397371709 0.871058822 -0.288708121
vn -0.491179794 0.871058285 0
vn -0.397371739 0.871058881 0.288708031
vn -0.151781812 0.871058524 0.467139602
vn 0.151781783 0.871058464 0.46713981
vn 0.397372216 0.871058524 0.288708299
vn 0.49118036 0.871057987 1.00000001e-07
vn 0.397372276 0.871058464 -0.28870821
vn 0.151782393 0.871058464 -0.467139393
vn -0 1 -2.90000003e-07
vn -0.151782379 0.871058702 -0.467139095
vn -0.397372216 0.871058583 -0.288707942
vn -0.491180032 0.871058106 6.99999987e-08
vn -0.397372127 0.871058583 0.28870824
vn -0.151781768 0.871058524 0.467139602
vn 0.151781917 0.871058524 0.467139632
vn 0.397372454 0.871058464 0.288708061
vn 0.491180003 0.871058106 -1.00000001e-07
vn 0.397372514 0.871058404 -0.288708389
vn 0.151782468 0.871058464 -0.467139661
vn -0 1 0
vn -0.151782438 0.871058643 -0.467139184
vn -0.397371739 0.871058881 -0.288707823
vn -0.491178691 0.871058822 -9.99999994e-09
vn -0.397371709 0.871058941 0.288707972
vn -0.151781768 0.871058583 0.467139542
vn 0.151781857 0.871058345 0.46713987
vn 0.397372633 0.871058404 0.28870821
vn 0.491180003 0.871058166 0
vn 0.397371322 0.87105912 -0.288707674
vn 0.151782185 0.871058822 -0.467139006
vn 0 1 -0
vn -0.151782796 0.871058226 -0.467139959
vn -0.397372633 0.871058106 -0.288709015
vn -0.491181135 0.87105751 0
vn -0.397372335 0.871058524 0.28870821
vn -0.151781574 0.871058702 0.467139453
vn 0.151782438 0.871057808 0.467140704
vn 0.397372633 0.871058106 0.288709104
vn 0.491179585 0.871058345 9.99999994e-09
vn 0.397372186 0.871058583 -0.28870815
vn 0.151782319 0.871058583 -0.467139274
vn 0 1 -0
vn -0.151782453 0.871058583 -0.467139274
vn -0.397372484 0.871058404 -0.28870818
vn -0.491180867 0.871057689 -9.99999994e-09
vn -0.397372454 0.871058404 0.288708359
vn -0.151781768 0.871058583 0.467139453
vn 0.151781991 0.871058285 0.4671399
vn 0.397372842 0.871058106 0.288708508
vn 0.491180569 0.871057808 -9.99999994e-09
vn 0.397372246 0.871058464 -0.288708419
vn 0.151781768 0.871058583 -0.467139632
vn 0 1 -1.59999999e-07
vn -0.151781648 0.871058822 -0.467139125
vn -0.39737162 0.871058881 -0.288708091
vn -0.491179705 0.871058285 -0
vn -0.397371709 0.871058822 0.288708031
vn -0.151782453 0.871058404 0.467139542
vn 0.151782438 0.871058404 0.467139781
vn 0.397372216 0.871058524 0.288708299
vn 0.491180271 0.871058047 9.00000003e-08
vn 0.397372425 0.871058464 -0.28870815
vn 0.151783466 0.871057928 -0.467140079
vn 9.99999994e-09 1 3.0999999e-07
vn -0.151783288 0.871058226 -0.467139721
vn -0.397372395 0.871058464 -0.288708121
vn -0.491179287 0.871058524 -9.99999994e-09
vn -0.397372216 0.871058583 0.28870821
vn -0.151783332 0.871058345 0.467139542
vn 0.151783451 0.871057987 0.467140108
vn 0.397372425 0.871058345 0.28870818
vn 0.491179019 0.871058702 9.99999994e-09
vn 0.397372812 0.871058285 -0.28870818
vn 0.151782975 0.871058702 -0.467138767
vn -0 1 3.0999999e-07
vn -0.151783094 0.871058822 -0.467138708
vn -0.397372514 0.871058345 -0.288708031
vn -0.491178215 0.87105912 -1.00000001e-07
vn -0.397372335 0.871058524 0.288708121
vn -0.151783273 0.871058702 0.467138857
vn 0.151783586 0.871058345 0.467139423
vn 0.397373199 0.871057928 0.288708955
vn 0.491179019 0.871058702 9.99999994e-09
vn 0.397371233 0.87105912 -0.288707674
vn 0.151781529 0.871058881 -0.467139035
vn -0 1 -0
vn -0.15178214 0.871058226 -0.467140049
vn -0.397372574 0.871058106 -0.288709015
vn -0.491181046 0.87105757 0
vn -0.397372276 0.871058524 0.28870824
vn -0.151782215 0.871058643 0.467139393
vn 0.151783079 0.871057689 0.467140645
vn 0.397372633 0.871058106 0.288709104
vn 0.491179496 0.871058404 0
vn 0.397372186 0.871058464 -0.28870821
vn 0.151781768 0.871058583 -0.467139453
vn 0 1 -2.90000003e-07
vn -0.151781723 0.871058762 -0.467139184
vn -0.397372186 0.871058643 -0.288707972
vn -0.491179943 0.871058226 9.00000003e-08
vn -0.397372127 0.871058524 0.28870824
vn -0.151782423 0.871058524 0.467139512
vn 0.151782572 0.871058464 0.467139602
vn 0.397372514 0.871058464 0.288708061
vn 0.491179943 0.871058226 -1.10000002e-07
vn 0.397372186 0.871058643 -0.28870818
vn 0.151781693 0.871058702 -0.467139333
vn -0 1 -9.99999994e-09
vn -0.151781812 0.871058643 -0.467139363
vn -0.397372365 0.871058404 -0.28870824
vn -0.491180748 0.871057689 0
vn -0.397372484 0.871058404 0.288708359
vn -0.151782438 0.871058524 0.467139423
vn 0.151782647 0.871058285 0.4671399
vn 0.397372842 0.871058226 0.288708508
vn 0.49118048 0.871057928 9.99999994e-09
vn 0.397372484 0.871058404 -0.288708389
vn 0.151781812 0.871058524 -0.467139691
vn -0 1 0
vn -0.151781783 0.871058762 -0.467139214
vn -0.39737165 0.871058881 -0.288707852
vn -0.491178632 0.871058941 -9.99999994e-09
vn -0.397371709 0.871058941 0.288707912
vn -0.151782408 0.871058464 0.467139482
vn 0.151782498 0.871058226 0.46713981
vn 0.397372633 0.871058404 0.28870821
vn 0.491179913 0.871058226 9.99999994e-09
vn 0.397372633 0.871058404 -0.28870815
vn 0.15178217 0.87105906 -0.467138559
vn 0 1 0
vn -0.151782483 0.871058941 -0.467138529
vn -0.397372931 0.871058106 -0.288708419
vn -0.491179198 0.871058643 -1.30000004e-07
vn -0.397372246 0.871058583 0.288708061
vn -0.151782602 0.871058583 0.467139304
vn 0.151782975 0.871058166 0.467139989
vn 0.397372812 0.871057987 0.288708836
vn 0.491178989 0.871058702 9.99999994e-09
vn 0.397372305 0.871058583 -0.288707912
vn 0.151782453 0.871058464 -0.467139542
vn 5.99999979e-08 1 3.19999998e-07
vn -0.151783109 0.871057928 -0.467140228
vn -0.39737311 0.871057928 -0.288708925
vn -0.49118039 0.871057987 -9.99999994e-09
vn -0.397371948 0.871058702 0.28870824
vn -0.151782796 0.871058404 0.467139602
vn 0.151782662 0.871058404 0.467139632
vn 0.397372067 0.871058583 0.28870824
vn 0.491180509 0.871057808 9.99999994e-09
vn 0.44946605 0.831469595 -0.326555848
vn 0.171681046 0.83147037 -0.528377473
vn -0.171681255 0.831470311 -0.528377414
vn -0.449465692 0.831469774 -0.326555759
vn -0.555568337 0.831470847 -1.30000004e-07
vn -0.449465662 0.831469715 0.326555818
vn -0.171681374 0.831470072 0.528377712
vn 0.171681732 0.831469834 0.52837801
vn 0.449466377 0.831468999 0.326556653
vn 0.55556953 0.831470132 9.99999994e-09
vn 0.44946593 0.831469595 -0.326556057
vn 0.171681464 0.831469655 -0.528378487
vn -0.171682 0.831469536 -0.528378487
vn -0.449466407 0.831468999 -0.326556832
vn -0.55556947 0.831470132 -9.99999994e-09
vn -0.449466377 0.83146894 0.326556891
vn -0.171681955 0.831469536 0.528378546
vn 0.171681434 0.831469595 0.528378487
vn 0.44946593 0.831469476 0.326556027
vn 0.55556953 0.831470132 9.99999994e-09
vn 0.449465364 0.831469893 -0.326556057
vn 0.171680465 0.831469536 -0.528378963
vn -0.171680346 0.831470013 -0.528378308
vn -0.449464411 0.831470668 -0.32655552
vn -0.555569947 0.831469834 0
vn -0.449464411 0.831470668 0.32655552
vn -0.171679839 0.831469595 0.528378963
vn 0.171679825 0.831469655 0.528379023
vn 0.449465126 0.831470132 0.326555759
vn 0.55557102 0.831469119 1.19999996e-07
vn 0.449465275 0.831470013 -0.326555818
vn 0.171680078 0.831469893 -0.528378427
vn -0.171680033 0.831470072 -0.528378189
vn -0.449465215 0.831470072 -0.326555699
vn -0.555570602 0.831469476 1.89999994e-07
vn -0.449465156 0.831469893 0.326556087
vn -0.171679378 0.831469953 0.528378725
vn 0.171679482 0.831469893 0.528378785
vn 0.449465662 0.831469774 0.326555878
vn 0.555570602 0.831469476 1.99999999e-08
vn 0.449465603 0.831469595 -0.326556176
vn 0.171679869 0.831470072 -0.528378367
vn -0.171680063 0.831470132 -0.528378129
vn -0.449464679 0.83147037 -0.32655558
vn -0.555568397 0.831470907 0
vn -0.449464709 0.831470311 0.32655564
vn -0.171679288 0.831469893 0.528378785
vn 0.171679333 0.831470013 0.528378546
vn 0.449465752 0.831469715 0.326555997
vn 0.555570662 0.831469417 0
vn 0.449464202 0.831470907 -0.326555192
vn 0.171680212 0.831470013 -0.528378248
vn -0.171680778 0.831469476 -0.528378844
vn -0.449465752 0.831469297 -0.326556772
vn -0.555572152 0.831468403 0
vn -0.449465424 0.831469834 0.326555938
vn -0.171679407 0.831470072 0.528378367
vn 0.171680614 0.831468701 0.528380275
vn 0.449465722 0.831469417 0.326556832
vn 0.555569172 0.83147037 1.99999999e-08
vn 0.449465543 0.831469774 -0.326556116
vn 0.171679825 0.831470191 -0.528378189
vn -0.171680003 0.831470132 -0.528378129
vn -0.449465752 0.831469595 -0.326556176
vn -0.555571735 0.831468701 -9.99999994e-09
vn -0.449465781 0.831469536 0.326556385
vn -0.171679243 0.831470191 0.528378367
vn 0.171679556 0.831469834 0.528378904
vn 0.449466199 0.831469238 0.326556474
vn 0.555571377 0.831468821 9.99999994e-09
vn 0.449465394 0.831469893 -0.326556057
vn 0.171679676 0.831469655 -0.528379083
vn -0.171679556 0.831470072 -0.528378308
vn -0.449464411 0.831470668 -0.32655552
vn -0.555569947 0.831469834 0
vn -0.449464411 0.831470668 0.32655552
vn -0.171680629 0.831469536 0.528378904
vn 0.171680599 0.831469476 0.528378904
vn 0.449465126 0.831470132 0.326555759
vn 0.55557102 0.831469178 1.10000002e-07
vn 0.44946593 0.831469595 -0.326556057
vn 0.171681464 0.831469655 -0.528378487
vn -0.171682 0.831469536 -0.528378487
vn -0.449466407 0.831468999 -0.326556832
vn -0.55556947 0.831470132 -9.99999994e-09
vn -0.449466377 0.83146894 0.326556891
vn -0.171681955 0.831469536 0.528378546
vn 0.171681434 0.831469595 0.528378487
vn 0.44946593 0.831469476 0.326556027
vn 0.55556953 0.831470132 9.99999994e-09
vn 0.44946605 0.831469595 -0.326555848
vn 0.171681046 0.83147037 -0.528377473
vn -0.171681255 0.831470311 -0.528377414
vn -0.449465692 0.831469774 -0.326555759
vn -0.555568337 0.831470847 -1.30000004e-07
vn -0.449465662 0.831469715 0.326555818
vn -0.171681374 0.831470072 0.528377712
vn 0.171681732 0.831469834 0.52837801
vn 0.449466377 0.831468999 0.326556653
vn 0.55556953 0.831470132 9.99999994e-09
vn 0.449464202 0.831470907 -0.326555192
vn 0.171679437 0.831470132 -0.528378367
vn -0.171680003 0.831469595 -0.528378963
vn -0.449465752 0.831469297 -0.326556772
vn -0.555572152 0.831468403 0
vn -0.449465454 0.831469893 0.326555967
vn -0.171680197 0.831470013 0.528378308
vn 0.171681404 0.831468582 0.528380215
vn 0.449465752 0.831469357 0.326556861
vn 0.555569172 0.83147037 0
vn 0.449465275 0.831470013 -0.326555848
vn 0.171679288 0.831470013 -0.528378487
vn -0.171679258 0.831470251 -0.528378248
vn -0.449465215 0.831470072 -0.326555699
vn -0.555570602 0.831469476 1.89999994e-07
vn -0.449465156 0.831469893 0.326556116
vn -0.171680152 0.831469774 0.528378606
vn 0.171680287 0.831469655 0.528378725
vn 0.449465573 0.831469774 0.326555848
vn 0.555570602 0.831469476 0
vn 0.449465483 0.831469774 -0.326556116
vn 0.17167905 0.831470251 -0.528378248
vn -0.171679199 0.831470251 -0.528378189
vn -0.449465752 0.831469595 -0.326556206
vn -0.555571735 0.831468701 0
vn -0.449465752 0.831469536 0.326556355
vn -0.171680033 0.831470013 0.528378308
vn 0.171680316 0.831469595 0.528378785
vn 0.449466228 0.831469238 0.326556444
vn 0.555571377 0.83146894 0
vn 0.449465632 0.831469595 -0.326556176
vn 0.17167908 0.831470132 -0.528378427
vn -0.171679243 0.831470251 -0.528378129
vn -0.449464679 0.83147037 -0.32655555
vn -0.555568397 0.831470907 -9.99999994e-09
vn -0.449464738 0.831470311 0.32655564
vn -0.171680063 0.831469774 0.528378665
vn 0.171680108 0.831469834 0.528378487
vn 0.449465692 0.831469774 0.326555967
vn 0.555570662 0.831469297 0
vn 0.449465811 0.831469715 -0.326555938
vn 0.171680182 0.83147043 -0.528377533
vn -0.17168051 0.83147049 -0.528377473
vn -0.44946605 0.831469417 -0.326556057
vn -0.55556953 0.831470191 -1.50000005e-07
vn -0.449465185 0.831470072 0.326555669
vn -0.171680763 0.831469774 0.528378606
vn 0.171681046 0.831469476 0.528378844
vn 0.44946605 0.831469238 0.326556653
vn 0.555569947 0.831469774 0
vn 0.449465752 0.831469655 -0.326555938
vn 0.171680257 0.831470251 -0.52837795
vn -0.171681806 0.831469178 -0.528379202
vn -0.449467212 0.831468165 -0.326557726
vn -0.555570722 0.831469297 0
vn -0.449465871 0.831469178 0.326556951
vn -0.171681359 0.831469595 0.528378546
vn 0.171680465 0.831470251 0.528377831
vn 0.449465513 0.831469715 0.326556146
vn 0.555571496 0.83146888 -9.99999994e-09
vn -0.63345778 0.425397038 0.646350205
vn 0.63345778 0.425397038 0.646350205
vn 0.485842437 0.737767756 0.46867457
vn -0.485842407 0.737767756 0.46867463
vn -0.485842437 0.737767756 -0.46867457
vn 0.485842407 0.737767756 -0.46867463
vn 0.63345778 0.425397038 -0.646350205
vn -0.63345778 0.425397038 -0.646350205
vn -0.110379711 0.987308741 -0.114182651
vn 0.110379703 0.9873088 -0.114182651
vn -0.110379703 0.987308741 0.114182651
vn 0.110379711 0.987308741 0.114182651
vn -0.323641866 0.901075423 -0.288650393
vn 0.323641837 0.901075482 -0.288650393
vn -0.323641837 0.901075482 0.288650393
vn 0.323641866 0.901075423 0.288650393
vn -0.301511317 0.904534042 -0.301511317
vn 0.301511317 0.904534042 -0.301511288
vn -0.301511347 0.904534042 0.301511317
vn 0.301511347 0.904534042 0.301511347
vn -0.707106829 0 -0.707106769
vn 0.707106829 0 -0.707106829
vn -0.707106829 0 0.707106829
vn 0.707106829 0 0.707106769
vn 0.733253717 9.46512628e-08 -0.679955184
vn 0.710217237 -0.182352871 -0.679955065
vn 0.642554998 -0.353247941 -0.679955065
vn 0.534519017 -0.501946509 -0.679955304
vn 0.39289698 -0.61910677 -0.679954946
vn 0.226587787 -0.697365522 -0.679955363
vn 0.0460414328 -0.731807053 -0.679954946
vn -0.137398615 -0.720265687 -0.679955184
vn -0.312203854 -0.663467765 -0.679955244
vn -0.467393517 -0.564982116 -0.679954827
vn -0.593214989 -0.430995345 -0.679955125
vn -0.681762099 -0.269928575 -0.679955244
vn -0.727471828 -0.0919011012 -0.679955125
vn -0.727471828 0.0919013768 -0.679955006
vn -0.68176192 0.269928753 -0.679955244
vn -0.593214929 0.430995554 -0.679955006
vn -0.467393637 0.564981639 -0.679955125
vn -0.312204123 0.663468003 -0.679955006
vn -0.137397781 0.720265746 -0.679955244
vn 0.0460417755 0.731806874 -0.679955006
vn 0.22658813 0.697365463 -0.679955244
vn 0.392897099 0.61910665 -0.679955065
vn 0.534519255 0.50194639 -0.679955125
vn 0.642555356 0.353247374 -0.679955125
vn 0.710217297 0.182352647 -0.679955125
vn 0.733253717 9.46512628e-08 0.679955184
vn 0.710217237 -0.182352871 0.679955065
vn 0.642554998 -0.353247941 0.679955065
vn 0.534519017 -0.501946509 0.679955304
vn 0.39289698 -0.61910677 0.679954946
vn 0.226587787 -0.697365522 0.679955363
vn 0.0460414328 -0.731807053 0.679954946
vn -0.137398615 -0.720265687 0.679955184
vn -0.312203854 -0.663467765 0.679955244
vn -0.467393517 -0.564982116 0.679954827
vn -0.593214989 -0.430995345 0.679955125
vn -0.681762099 -0.269928575 0.679955244
vn -0.727471828 -0.0919011012 0.679955125
vn -0.727471828 0.0919013768 0.679955006
vn -0.68176192 0.269928753 0.679955244
vn -0.593214929 0.430995554 0.679955006
vn -0.467393637 0.564981639 0.679955125
vn -0.312204123 0.663468003 0.679955006
vn -0.137397781 0.720265746 0.679955244
vn 0.0460417755 0.731806874 0.679955006
vn 0.22658813 0.697365463 0.679955244
vn 0.392897099 0.61910665 0.679955065
vn 0.534519255 0.50194639 0.679955125
vn 0.642555356 0.353247374 0.679955125
vn 0.710217297 0.182352647 0.679955125
vn 0.733253717 7.01120451e-09 -0.679955125
vn 0.710217178 -0.182352975 -0.679955125
vn 0.642555118 -0.353247613 -0.679955304
vn 0.534519136 -0.501946747 -0.679955006
vn 0.392896682 -0.619106829 -0.679955125
vn 0.226587996 -0.697365582 -0.679955244
vn 0.0460414737 -0.731806993 -0.679954886
vn -0.137398347 -0.720265746 -0.679955184
vn -0.312204212 -0.663467824 -0.679955184
vn -0.467393637 -0.564981699 -0.679955006
vn -0.593214869 -0.430995494 -0.679955125
vn -0.681762099 -0.269928604 -0.679955125
vn -0.727471828 -0.0919010565 -0.679955125
vn -0.727471828 0.0919013619 -0.679955065
vn -0.68176192 0.269928873 -0.679955244
vn -0.593214631 0.430995941 -0.679955006
vn -0.467393398 0.564981639 -0.679955304
vn -0.312204361 0.663467884 -0.679954946
vn -0.137397841 0.720265746 -0.679955184
vn 0.0460416824 0.731806874 -0.679955006
vn 0.226587936 0.697365522 -0.679955244
vn 0.392897129 0.61910665 -0.679955006
vn 0.534519255 0.50194639 -0.679955125
vn 0.642555356 0.353247344 -0.679955125
vn 0.710217297 0.182352558 -0.679955184
vn 0.733253717 7.01120451e-09 0.679955125
vn 0.710217178 -0.182352975 0.679955125
vn 0.642555118 -0.353247613 0.679955304
vn 0.534519136 -0.501946747 0.679955006
vn 0.392896682 -0.619106829 0.679955125
vn 0.226587996 -0.697365582 0.679955244
vn 0.0460414737 -0.731806993 0.679954886
vn -0.137398347 -0.720265746 0.679955184
vn -0.312204212 -0.663467824 0.679955184
vn -0.467393637 -0.564981699 0.679955006
vn -0.593214869 -0.430995494 0.679955125
vn -0.681762099 -0.269928604 0.679955125
vn -0.727471828 -0.0919010565 0.679955125
vn -0.727471828 0.0919013619 0.679955065
vn -0.68176192 0.269928873 0.679955244
vn -0.593214631 0.430995941 0.679955006
vn -0.467393398 0.564981639 0.679955304
vn -0.312204361 0.663467884 0.679954946
vn -0.137397841 0.720265746 0.679955184
vn 0.0460416824 0.731806874 0.679955006
vn 0.226587936 0.697365522 0.679955244
vn 0.392897129 0.61910665 0.679955006
vn 0.534519255 0.50194639 0.679955125
vn 0.642555356 0.353247344 0.679955125
vn 0.710217297 0.182352558 0.679955184
vn 0.733253717 7.01120451e-09 -0.679955125
vn 0.710217178 -0.182352975 -0.679955125
vn 0.642555118 -0.353247613 -0.679955304
vn 0.534519136 -0.501946747 -0.679955006
vn 0.392896682 -0.619106829 -0.679955125
vn 0.226587996 -0.697365582 -0.679955244
vn 0.0460414737 -0.731806993 -0.679954886
vn -0.137398347 -0.720265746 -0.679955184
vn -0.312204212 -0.663467824 -0.679955184
vn -0.467393637 -0.564981699 -0.679955006
vn -0.593214869 -0.430995494 -0.679955125
vn -0.681762099 -0.269928604 -0.679955125
vn -0.727471828 -0.0919010565 -0.679955125
vn -0.727471828 0.0919013619 -0.679955065
vn -0.68176192 0.269928873 -0.679955244
vn -0.593214631 0.430995941 -0.679955006
vn -0.467393398 0.564981639 -0.679955304
vn -0.312204361 0.663467884 -0.679954946
vn -0.137397841 0.720265746 -0.679955184
vn 0.0460416824 0.731806874 -0.679955006
vn 0.226587936 0.697365522 -0.679955244
vn 0.392897129 0.61910665 -0.679955006
vn 0.534519255 0.50194639 -0.679955125
vn 0.642555356 0.353247344 -0.679955125
vn 0.710217297 0.182352558 -0.679955184
vn 0.733253717 7.01120451e-09 0.679955125
vn 0.710217178 -0.182352975 0.679955125
vn 0.642555118 -0.353247613 0.679955304
vn 0.534519136 -0.501946747 0.679955006
vn 0.392896682 -0.619106829 0.679955125
vn 0.226587996 -0.697365582 0.679955244
vn 0.0460414737 -0.731806993 0.679954886
vn -0.137398347 -0.720265746 0.679955184
vn -0.312204212 -0.663467824 0.679955184
vn -0.467393637 -0.564981699 0.679955006
vn -0.593214869 -0.430995494 0.679955125
vn -0.681762099 -0.269928604 0.679955125
vn -0.727471828 -0.0919010565 0.679955125
vn -0.727471828 0.0919013619 0.679955065
vn -0.68176192 0.269928873 0.679955244
vn -0.593214631 0.430995941 0.679955006
vn -0.467393398 0.564981639 0.679955304
vn -0.312204361 0.663467884 0.679954946
vn -0.137397841 0.720265746 0.679955184
vn 0.0460416824 0.731806874 0.679955006
vn 0.226587936 0.697365522 0.679955244
vn 0.392897129 0.61910665 0.679955006
vn 0.534519255 0.50194639 0.679955125
vn 0.642555356 0.353247344 0.679955125
vn 0.710217297 0.182352558 0.679955184
g 
f 1//1 2//2 3//3
f 2//2 4//4 3//3
f 4//4 5//5 3//3
f 5//5 6//6 3//3
f 6//6 7//7 3//3
f 7//7 8//8 3//3
f 8//8 9//9 3//3
f 9//9 10//10 3//3
f 10//10 11//11 3//3
f 11//11 1//1 3//3
f 12//12 13//13 14//14
f 13//13 15//15 14//14
f 15//15 16//16 14//14
f 16//16 17//17 14//14
f 17//17 18//18 14//14
f 18//18 19//19 14//14
f 19//19 20//20 14//14
f 20//20 21//21 14//14
f 21//21 22//22 14//14
f 22//22 12//12 14//14
f 23//23 24//24 25//25
f 24//24 26//26 25//25
f 26//26 27//27 25//25
f 27//27 28//28 25//25
f 28//28 29//29 25//25
f 29//29 30//30 25//25
f 30//30 31//31 25//25
f 31//31 32//32 25//25
f 32//32 33//33 25//25
f 33//33 23//23 25//25
f 34//34 35//35 36//36
f 35//35 37//37 36//36
f 37//37 38//38 36//36
f 38//38 39//39 36//36
f 39//39 40//40 36//36
f 40//40 41//41 36//36
f 41//41 42//42 36//36
f 42//42 43//43 36//36
f 43//43 44//44 36//36
f 44//44 34//34 36//36
f 45//45 46//46 47//47
f 46//46 48//48 47//47
f 48//48 49//49 47//47
f 49//49 50//50 47//47
f 50//50 51//51 47//47
f 51//51 52//52 47//47
f 52//52 53//53 47//47
f 53//53 54//54 47//47
f 54//54 55//55 47//47
f 55//55 45//45 47//47
f 56//56 57//57 58//58
f 57//57 59//59 58//58
f 59//59 60//60 58//58
f 60//60 61//61 58//58
f 61//61 62//62 58//58
f 62//62 63//63 58//58
f 63//63 64//64 58//58
f 64//64 65//65 58//58
f 65//65 66//66 58//58
f 66//66 56//56 58//58
f 67//67 68//68 69//69
f 68//68 70//70 69//69
f 70//70 71//71 69//69
f 71//71 72//72 69//69
f 72//72 73//73 69//69
f 73//73 74//74 69//69
f 74//74 75//75 69//69
f 75//75 76//76 69//69
f 76//76 77//77 69//69
f 77//77 67//67 69//69
f 78//78 79//79 80//80
f 79//79 81//81 80//80
f 81//81 82//82 80//80
f 82//82 83//83 80//80
f 83//83 84//84 80//80
f 84//84 85//85 80//80
f 85//85 86//86 80//80
f 86//86 87//87 80//80
f 87//87 88//88 80//80
f 88//88 78//78 80//80
f 89//89 90//90 91//91
f 90//90 92//92 91//91
f 92//92 93//93 91//91
f 93//93 94//94 91//91
f 94//94 95//95 91//91
f 95//95 96//96 91//91
f 96//96 97//97 91//91
f 97//97 98//98 91//91
f 98//98 99//99 91//91
f 99//99 89//89 91//91
f 100//100 101//101 102//102
f 101//101 103//103 102//102
f 103//103 104//104 102//102
f 104//104 105//105 102//102
f 105//105 106//106 102//102
f 106//106 107//107 102//102
f 107//107 108//108 102//102
f 108//108 109//109 102//102
f 109//109 110//110 102//102
f 110//110 100//100 102//102
f 111//111 112//112 113//113
f 112//112 114//114 113//113
f 114//114 115//115 113//113
f 115//115 116//116 113//113
f 116//116 117//117 113//113
f 117//117 118//118 113//113
f 118//118 119//119 113//113
f 119//119 120//120 113//113
f 120//120 121//121 113//113
f 121//121 111//111 113//113
f 122//122 123//123 124//124
f 123//123 125//125 124//124
f 125//125 126//126 124//124
f 126//126 127//127 124//124
f 127//127 128//128 124//124
f 128//128 129//129 124//124
f 129//129 130//130 124//124
f 130//130 131//131 124//124
f 131//131 132//132 124//124
f 132//132 122//122 124//124
f 133//133 134//134 135//135
f 134//134 136//136 135//135
f 136//136 137//137 135//135
f 137//137 138//138 135//135
f 138//138 139//139 135//135
f 139//139 140//140 135//135
f 140//140 141//141 135//135
f 141//141 142//142 135//135
f 142//142 143//143 135//135
f 143//143 133//133 135//135
f 144//144 145//145 146//146
f 145//145 147//147 146//146
f 147//147 148//148 146//146
f 148//148 149//149 146//146
f 149//149 150//150 146//146
f 150//150 151//151 146//146
f 151//151 152//152 146//146
f 152//152 153//153 146//146
f 153//153 154//154 146//146
f 154//154 144//144 146//146
f 155//155 156//156 157//157
f 156//156 158//158 157//157
f 158//158 159//159 157//157
f 159//159 160//160 157//157
f 160//160 161//161 157//157
f 161//161 162//162 157//157
f 162//162 163//163 157//157
f 163//163 164//164 157//157
f 164//164 165//165 157//157
f 165//165 155//155 157//157
f 166//166 167//167 168//168
f 167//167 169//169 168//168
f 169//169 170//170 168//168
f 170//170 171//171 168//168
f 171//171 172//172 168//168
f 172//172 173//173 168//168
f 173//173 174//174 168//168
f 174//174 175//175 168//168
f 175//175 176//176 168//168
f 176//176 166//166 168//168
f 177//177 178//178 2//2
f 177//177 2//2 1//1
f 178//178 179//179 4//4
f 178//178 4//4 2//2
f 179//179 180//180 5//5
f 179//179 5//5 4//4
f 180//180 181//181 6//6
f 180//180 6//6 5//5
f 181//181 182//182 7//7
f 181//181 7//7 6//6
f 182//182 183//183 8//8
f 182//182 8//8 7//7
f 183//183 184//184 9//9
f 183//183 9//9 8//8
f 184//184 185//185 10//10
f 184//184 10//10 9//9
f 185//185 186//186 11//11
f 185//185 11//11 10//10
f 186//186 177//177 1//1
f 186//186 1//1 11//11
f 187//187 188//188 13//13
f 187//187 13//13 12//12
f 188//188 189//189 15//15
f 188//188 15//15 13//13
f 189//189 190//190 16//16
f 189//189 16//16 15//15
f 190//190 191//191 17//17
f 190//190 17//17 16//16
f 191//191 192//192 18//18
f 191//191 18//18 17//17
f 192//192 193//193 19//19
f 192//192 19//19 18//18
f 193//193 194//194 20//20
f 193//193 20//20 19//19
f 194//194 195//195 21//21
f 194//194 21//21 20//20
f 195//195 196//196 22//22
f 195//195 22//22 21//21
f 196//196 187//187 12//12
f 196//196 12//12 22//22
f 197//197 198//198 24//24
f 197//197 24//24 23//23
f 198//198 199//199 26//26
f 198//198 26//26 24//24
f 199//199 200//200 27//27
f 199//199 27//27 26//26
f 200//200 201//201 28//28
f 200//200 28//28 27//27
f 201//201 202//202 29//29
f 201//201 29//29 28//28
f 202//202 203//203 30//30
f 202//202 30//30 29//29
f 203//203 204//204 31//31
f 203//203 31//31 30//30
f 204//204 205//205 32//32
f 204//204 32//32 31//31
f 205//205 206//206 33//33
f 205//205 33//33 32//32
f 206//206 197//197 23//23
f 206//206 23//23 33//33
f 207//207 208//208 35//35
f 207//207 35//35 34//34
f 208//208 209//209 37//37
f 208//208 37//37 35//35
f 209//209 210//210 38//38
f 209//209 38//38 37//37
f 210//210 211//211 39//39
f 210//210 39//39 38//38
f 211//211 212//212 40//40
f 211//211 40//40 39//39
f 212//212 213//213 41//41
f 212//212 41//41 40//40
f 213//213 214//214 42//42
f 213//213 42//42 41//41
f 214//214 215//215 43//43
f 214//214 43//43 42//42
f 215//215 216//216 44//44
f 215//215 44//44 43//43
f 216//216 207//207 34//34
f 216//216 34//34 44//44
f 217//217 218//218 46//46
f 217//217 46//46 45//45
f 218//218 219//219 48//48
f 218//218 48//48 46//46
f 219//219 220//220 49//49
f 219//219 49//49 48//48
f 220//220 221//221 50//50
f 220//220 50//50 49//49
f 221//221 222//222 51//51
f 221//221 51//51 50//50
f 222//222 223//223 52//52
f 222//222 52//52 51//51
f 223//223 224//224 53//53
f 223//223 53//53 52//52
f 224//224 225//225 54//54
f 224//224 54//54 53//53
f 225//225 226//226 55//55
f 225//225 55//55 54//54
f 226//226 217//217 45//45
f 226//226 45//45 55//55
f 227//227 228//228 57//57
f 227//227 57//57 56//56
f 228//228 229//229 59//59
f 228//228 59//59 57//57
f 229//229 230//230 60//60
f 229//229 60//60 59//59
f 230//230 231//231 61//61
f 230//230 61//61 60//60
f 231//231 232//232 62//62
f 231//231 62//62 61//61
f 232//232 233//233 63//63
f 232//232 63//63 62//62
f 233//233 234//234 64//64
f 233//233 64//64 63//63
f 234//234 235//235 65//65
f 234//234 65//65 64//64
f 235//235 236//236 66//66
f 235//235 66//66 65//65
f 236//236 227//227 56//56
f 236//236 56//56 66//66
f 237//237 238//238 68//68
f 237//237 68//68 67//67
f 238//238 239//239 70//70
f 238//238 70//70 68//68
f 239//239 240//240 71//71
f 239//239 71//71 70//70
f 240//240 241//241 72//72
f 240//240 72//72 71//71
f 241//241 242//242 73//73
f 241//241 73//73 72//72
f 242//242 243//243 74//74
f 242//242 74//74 73//73
f 243//243 244//244 75//75
f 243//243 75//75 74//74
f 244//244 245//245 76//76
f 244//244 76//76 75//75
f 245//245 246//246 77//77
f 245//245 77//77 76//76
f 246//246 237//237 67//67
f 246//246 67//67 77//77
f 247//247 248//248 79//79
f 247//247 79//79 78//78
f 248//248 249//249 81//81
f 248//248 81//81 79//79
f 249//249 250//250 82//82
f 249//249 82//82 81//81
f 250//250 251//251 83//83
f 250//250 83//83 82//82
f 251//251 252//252 84//84
f 251//251 84//84 83//83
f 252//252 253//253 85//85
f 252//252 85//85 84//84
f 253//253 254//254 86//86
f 253//253 86//86 85//85
f 254//254 255//255 87//87
f 254//254 87//87 86//86
f 255//255 256//256 88//88
f 255//255 88//88 87//87
f 256//256 247//247 78//78
f 256//256 78//78 88//88
f 257//257 258//258 90//90
f 257//257 90//90 89//89
f 258//258 259//259 92//92
f 258//258 92//92 90//90
f 259//259 260//260 93//93
f 259//259 93//93 92//92
f 260//260 261//261 94//94
f 260//260 94//94 93//93
f 261//261 262//262 95//95
f 261//261 95//95 94//94
f 262//262 263//263 96//96
f 262//262 96//96 95//95
f 263//263 264//264 97//97
f 263//263 97//97 96//96
f 264//264 265//265 98//98
f 264//264 98//98 97//97
f 265//265 266//266 99//99
f 265//265 99//99 98//98
f 266//266 257//257 89//89
f 266//266 89//89 99//99
f 267//267 268//268 101//101
f 267//267 101//101 100//100
f 268//268 269//269 103//103
f 268//268 103//103 101//101
f 269//269 270//270 104//104
f 269//269 104//104 103//103
f 270//270 271//271 105//105
f 270//270 105//105 104//104
f 271//271 272//272 106//106
f 271//271 106//106 105//105
f 272//272 273//273 107//107
f 272//272 107//107 106//106
f 273//273 274//274 108//108
f 273//273 108//108 107//107
f 274//274 275//275 109//109
f 274//274 109//109 108//108
f 275//275 276//276 110//110
f 275//275 110//110 109//109
f 276//276 267//267 100//100
f 276//276 100//100 110//110
f 277//277 278//278 112//112
f 277//277 112//112 111//111
f 278//278 279//279 114//114
f 278//278 114//114 112//112
f 279//279 280//280 115//115
f 279//279 115//115 114//114
f 280//280 281//281 116//116
f 280//280 116//116 115//115
f 281//281 282//282 117//117
f 281//281 117//117 116//116
f 282//282 283//283 118//118
f 282//282 118//118 117//117
f 283//283 284//284 119//119
f 283//283 119//119 118//118
f 284//284 285//285 120//120
f 284//284 120//120 119//119
f 285//285 286//286 121//121
f 285//285 121//121 120//120
f 286//286 277//277 111//111
f 286//286 111//111 121//121
f 287//287 288//288 123//123
f 287//287 123//123 122//122
f 288//288 289//289 125//125
f 288//288 125//125 123//123
f 289//289 290//290 126//126
f 289//289 126//126 125//125
f 290//290 291//291 127//127
f 290//290 127//127 126//126
f 291//291 292//292 128//128
f 291//291 128//128 127//127
f 292//292 293//293 129//129
f 292//292 129//129 128//128
f 293//293 294//294 130//130
f 293//293 130//130 129//129
f 294//294 295//295 131//131
f 294//294 131//131 130//130
f 295//295 296//296 132//132
f 295//295 132//132 131//131
f 296//296 287//287 122//122
f 296//296 122//122 132//132
f 297//297 298//298 134//134
f 297//297 134//134 133//133
f 298//298 299//299 136//136
f 298//298 136//136 134//134
f 299//299 300//300 137//137
f 299//299 137//137 136//136
f 300//300 301//301 138//138
f 300//300 138//138 137//137
f 301//301 302//302 139//139
f 301//301 139//139 138//138
f 302//302 303//303 140//140
f 302//302 140//140 139//139
f 303//303 304//304 141//141
f 303//303 141//141 140//140
f 304//304 305//305 142//142
f 304//304 142//142 141//141
f 305//305 306//306 143//143
f 305//305 143//143 142//142
f 306//306 297//297 133//133
f 306//306 133//133 143//143
f 307//307 308//308 145//145
f 307//307 145//145 144//144
f 308//308 309//309 147//147
f 308//308 147//147 145//145
f 309//309 310//310 148//148
f 309//309 148//148 147//147
f 310//310 311//311 149//149
f 310//310 149//149 148//148
f 311//311 312//312 150//150
f 311//311 150//150 149//149
f 312//312 313//313 151//151
f 312//312 151//151 150//150
f 313//313 314//314 152//152
f 313//313 152//152 151//151
f 314//314 315//315 153//153
f 314//314 153//153 152//152
f 315//315 316//316 154//154
f 315//315 154//154 153//153
f 316//316 307//307 144//144
f 316//316 144//144 154//154
f 317//317 318//318 156//156
f 317//317 156//156 155//155
f 318//318 319//319 158//158
f 318//318 158//158 156//156
f 319//319 320//320 159//159
f 319//319 159//159 158//158
f 320//320 321//321 160//160
f 320//320 160//160 159//159
f 321//321 322//322 161//161
f 321//321 161//161 160//160
f 322//322 323//323 162//162
f 322//322 162//162 161//161
f 323//323 324//324 163//163
f 323//323 163//163 162//162
f 324//324 325//325 164//164
f 324//324 164//164 163//163
f 325//325 326//326 165//165
f 325//325 165//165 164//164
f 326//326 317//317 155//155
f 326//326 155//155 165//165
f 327//327 328//328 167//167
f 327//327 167//167 166//166
f 328//328 329//329 169//169
f 328//328 169//169 167//167
f 329//329 330//330 170//170
f 329//329 170//170 169//169
f 330//330 331//331 171//171
f 330//330 171//171 170//170
f 331//331 332//332 172//172
f 331//331 172//172 171//171
f 332//332 333//333 173//173
f 332//332 173//173 172//172
f 333//333 334//334 174//174
f 333//333 174//174 173//173
f 334//334 335//335 175//175
f 334//334 175//175 174//174
f 335//335 336//336 176//176
f 335//335 176//176 175//175
f 336//336 327//327 166//166
f 336//336 166//166 176//176
f 337//337 338//338 339//339
f 337//337 339//339 340//340
f 341//341 342//342 343//343
f 341//341 343//343 344//344
f 338//338 343//343 342//342
f 338//338 342//342 339//339
f 344//344 337//337 340//340
f 344//344 340//340 341//341
f 340//340 339//339 345//345
f 340//340 345//345 346//346
f 339//339 342//342 347//347
f 339//339 347//347 345//345
f 342//342 341//341 348//348
f 342//342 348//348 347//347
f 341//341 340//340 346//346
f 341//341 346//346 348//348
f 346//346 345//345 349//349
f 346//346 349//349 350//350
f 345//345 347//347 351//351
f 345//345 351//351 349//349
f 347//347 348//348 352//352
f 347//347 352//352 351//351
f 348//348 346//346 350//350
f 348//348 350//350 352//352
f 350//350 349//349 353//353
f 350//350 353//353 354//354
f 349//349 351//351 355//355
f 349//349 355//355 353//353
f 351//351 352//352 356//356
f 351//351 356//356 355//355
f 352//352 350//350 354//354
f 352//352 354//354 356//356
f 354//354 353//353 357//357
f 354//354 357//357 358//358
f 353//353 355//355 359//359
f 353//353 359//359 357//357
f 355//355 356//356 360//360
f 355//355 360//360 359//359
f 356//356 354//354 358//358
f 356//356 358//358 360//360
f 373//373 371//371 372//372
f 398//398 400//400 399//399
f 361//361 387//387 362//362
f 362//362 388//388 363//363
f 363//363 389//389 364//364
f 364//364 390//390 365//365
f 365//365 391//391 366//366
f 366//366 392//392 367//367
f 367//367 393//393 368//368
f 368//368 394//394 369//369
f 369//369 395//395 370//370
f 370//370 396//396 371//371
f 371//371 397//397 372//372
f 372//372 398//398 373//373
f 373//373 399//399 374//374
f 374//374 400//400 375//375
f 375//375 401//401 376//376
f 376//376 402//402 377//377
f 377//377 403//403 378//378
f 378//378 404//404 379//379
f 379//379 405//405 380//380
f 380//380 406//406 381//381
f 381//381 407//407 382//382
f 382//382 408//408 383//383
f 383//383 409//409 384//384
f 384//384 410//410 385//385
f 385//385 386//386 361//361
f 423//423 421//421 422//422
f 448//448 450//450 449//449
f 411//411 437//437 412//412
f 412//412 438//438 413//413
f 413//413 439//439 414//414
f 414//414 440//440 415//415
f 415//415 441//441 416//416
f 416//416 442//442 417//417
f 417//417 443//443 418//418
f 418//418 444//444 419//419
f 419//419 445//445 420//420
f 420//420 446//446 421//421
f 421//421 447//447 422//422
f 422//422 448//448 423//423
f 423//423 449//449 424//424
f 424//424 450//450 425//425
f 425//425 451//451 426//426
f 426//426 452//452 427//427
f 427//427 453//453 428//428
f 428//428 454//454 429//429
f 429//429 455//455 430//430
f 430//430 456//456 431//431
f 431//431 457//457 432//432
f 432//432 458//458 433//433
f 433//433 459//459 434//434
f 434//434 460//460 435//435
f 435//435 436//436 411//411
f 473//473 471//471 472//472
f 498//498 500//500 499//499
f 461//461 487//487 462//462
f 462//462 488//488 463//463
f 463//463 489//489 464//464
f 464//464 490//490 465//465
f 465//465 491//491 466//466
f 466//466 492//492 467//467
f 467//467 493//493 468//468
f 468//468 494//494 469//469
f 469//469 495//495 470//470
f 470//470 496//496 471//471
f 471//471 497//497 472//472
f 472//472 498//498 473//473
f 473//473 499//499 474//474
f 474//474 500//500 475//475
f 475//475 501//501 476//476
f 476//476 502//502 477//477
f 477//477 503//503 478//478
f 478//478 504//504 479//479
f 479//479 505//505 480//480
f 480//480 506//506 481//481
f 481//481 507//507 482//482
f 482//482 508//508 483//483
f 483//483 509//509 484//484
f 484//484 510//510 485//485
f 485//485 486//486 461//461
f 486//486 485//485 510//510
f 510//510 484//484 509//509
f 509//509 483//483 508//508
f 508//508 482//482 507//507
f 507//507 481//481 506//506
f 506//506 480//480 505//505
f 505//505 479//479 504//504
f 504//504 478//478 503//503
f 503//503 477//477 502//502
f 502//502 476//476 501//501
f 501//501 475//475 500//500
f 500//500 474//474 499//499
f 499//499 473//473 498//498
f 498//498 472//472 497//497
f 497//497 471//471 496//496
f 496//496 470//470 495//495
f 495//495 469//469 494//494
f 494//494 468//468 493//493
f 493//493 467//467 492//492
f 492//492 466//466 491//491
f 491//491 465//465 490//490
f 490//490 464//464 489//489
f 489//489 463//463 488//488
f 488//488 462//462 487//487
f 487//487 461//461 486//486
f 486//486 510//510 487//487
f 487//487 510//510 488//488
f 488//488 510//510 509//509
f 488//488 509//509 489//489
f 489//489 509//509 508//508
f 489//489 508//508 490//490
f 490//490 508//508 507//507
f 490//490 507//507 491//491
f 491//491 507//507 506//506
f 491//491 506//506 492//492
f 492//492 506//506 505//505
f 492//492 505//505 493//493
f 493//493 505//505 504//504
f 493//493 504//504 494//494
f 494//494 504//504 503//503
f 494//494 503//503 495//495
f 495//495 503//503 502//502
f 495//495 502//502 496//496
f 496//496 502//502 501//501
f 496//496 501//501 497//497
f 497//497 501//501 500//500
f 497//497 500//500 498//498
f 485//485 461//461 484//484
f 484//484 461//461 483//483
f 483//483 461//461 462//462
f 483//483 462//462 482//482
f 482//482 462//462 463//463
f 482//482 463//463 481//481
f 481//481 463//463 464//464
f 481//481 464//464 480//480
f 480//480 464//464 465//465
f 480//480 465//465 479//479
f 479//479 465//465 466//466
f 479//479 466//466 478//478
f 478//478 466//466 467//467
f 478//478 467//467 477//477
f 477//477 467//467 468//468
f 477//477 468//468 476//476
f 476//476 468//468 469//469
f 476//476 469//469 475//475
f 475//475 469//469 470//470
f 475//475 470//470 474//474
f 474//474 470//470 471//471
f 474//474 471//471 473//473
f 436//436 435//435 460//460
f 460//460 434//434 459//459
f 459//459 433//433 458//458
f 458//458 432//432 457//457
f 457//457 431//431 456//456
f 456//456 430//430 455//455
f 455//455 429//429 454//454
f 454//454 428//428 453//453
f 453//453 427//427 452//452
f 452//452 426//426 451//451
f 451//451 425//425 450//450
f 450//450 424//424 449//449
f 449//449 423//423 448//448
f 448//448 422//422 447//447
f 447//447 421//421 446//446
f 446//446 420//420 445//445
f 445//445 419//419 444//444
f 444//444 418//418 443//443
f 443//443 417//417 442//442
f 442//442 416//416 441//441
f 441//441 415//415 440//440
f 440//440 414//414 439//439
f 439//439 413//413 438//438
f 438//438 412//412 437//437
f 437//437 411//411 436//436
f 436//436 460//460 437//437
f 437//437 460//460 438//438
f 438//438 460//460 459//459
f 438//438 459//459 439//439
f 439//439 459//459 458//458
f 439//439 458//458 440//440
f 440//440 458//458 457//457
f 440//440 457//457 441//441
f 441//441 457//457 456//456
f 441//441 456//456 442//442
f 442//442 456//456 455//455
f 442//442 455//455 443//443
f 443//443 455//455 454//454
f 443//443 454//454 444//444
f 444//444 454//454 453//453
f 444//444 453//453 445//445
f 445//445 453//453 452//452
f 445//445 452//452 446//446
f 446//446 452//452 451//451
f 446//446 451//451 447//447
f 447//447 451//451 450//450
f 447//447 450//450 448//448
f 435//435 411//411 434//434
f 434//434 411//411 433//433
f 433//433 411//411 412//412
f 433//433 412//412 432//432
f 432//432 412//412 413//413
f 432//432 413//413 431//431
f 431//431 413//413 414//414
f 431//431 414//414 430//430
f 430//430 414//414 415//415
f 430//430 415//415 429//429
f 429//429 415//415 416//416
f 429//429 416//416 428//428
f 428//428 416//416 417//417
f 428//428 417//417 427//427
f 427//427 417//417 418//418
f 427//427 418//418 426//426
f 426//426 418//418 419//419
f 426//426 419//419 425//425
f 425//425 419//419 420//420
f 425//425 420//420 424//424
f 424//424 420//420 421//421
f 424//424 421//421 423//423
f 386//386 385//385 410//410
f 410//410 384//384 409//409
f 409//409 383//383 408//408
f 408//408 382//382 407//407
f 407//407 381//381 406//406
f 406//406 380//380 405//405
f 405//405 379//379 404//404
f 404//404 378//378 403//403
f 403//403 377//377 402//402
f 402//402 376//376 401//401
f 401//401 375//375 400//400
f 400//400 374//374 399//399
f 399//399 373//373 398//398
f 398//398 372//372 397//397
f 397//397 371//371 396//396
f 396//396 370//370 395//395
f 395//395 369//369 394//394
f 394//394 368//368 393//393
f 393//393 367//367 392//392
f 392//392 366//366 391//391
f 391//391 365//365 390//390
f 390//390 364//364 389//389
f 389//389 363//363 388//388
f 388//388 362//362 387//387
f 387//387 361//361 386//386
f 386//386 410//410 387//387
f 387//387 410//410 388//388
f 388//388 410//410 409//409
f 388//388 409//409 389//389
f 389//389 409//409 408//408
f 389//389 408//408 390//390
f 390//390 408//408 407//407
f 390//390 407//407 391//391
f 391//391 407//407 406//406
f 391//391 406//406 392//392
f 392//392 406//406 405//405
f 392//392 405//405 393//393
f 393//393 405//405 404//404
f 393//393 404//404 394//394
f 394//394 404//404 403//403
f 394//394 403//403 395//395
f 395//395 403//403 402//402
f 395//395 402//402 396//396
f 396//396 402//402 401//401
f 396//396 401//401 397//397
f 397//397 401//401 400//400
f 397//397 400//400 398//398
f 385//385 361//361 384//384
f 384//384 361//361 383//383
f 383//383 361//361 362//362
f 383//383 362//362 382//382
f 382//382 362//362 363//363
f 382//382 363//363 381//381
f 381//381 363//363 364//364
f 381//381 364//364 380//380
f 380//380 364//364 365//365
f 380//380 365//365 379//379
f 379//379 365//365 366//366
f 379//379 366//366 378//378
f 378//378 366//366 367//367
f 378//378 367//367 377//377
f 377//377 367//367 368//368
f 377//377 368//368 376//376
f 376//376 368//368 369//369
f 376//376 369//369 375//375
f 375//375 369//369 370//370
f 375//375 370//370 374//374
f 374//374 370//370 371//371
f 374//374 371//371 373//373
