# https://github.com/mikedh/trimesh
v -0.06635039 -0.05910609 0.27338570
v -0.07032614 -0.05952541 0.27351797
v -0.06762727 -0.07450835 0.27993685
v -0.06374399 -0.07357991 0.27969646
v -0.06796736 -0.07374350 0.27686930
v -0.06407103 -0.07285507 0.27669966
v -0.06390759 -0.07323504 0.27826837
v -0.06905962 -0.06812672 0.27688757
v -0.06516098 -0.06720511 0.27671501
v -0.06477567 -0.06942613 0.27670905
v -0.06999137 -0.06137756 0.27689171
v -0.06601613 -0.06096712 0.27671596
v -0.06595786 -0.06146631 0.27672702
v -0.06629076 -0.05934695 0.27436066
v -0.07020152 -0.06001247 0.27549905
v -0.07020173 -0.06001166 0.27549574
v -0.06622755 -0.05958746 0.27533498
v -0.07020363 -0.06000466 0.27546731
v -0.06620347 -0.05968193 0.27567497
v -0.07019799 -0.06002549 0.27555168
v -0.07020082 -0.06001506 0.27550957
v -0.06617657 -0.05981199 0.27598065
v -0.07016333 -0.06017134 0.27601033
v -0.07018636 -0.06007002 0.27571943
v -0.06614842 -0.05997617 0.27622080
v -0.07013744 -0.06030978 0.27626690
v -0.07014704 -0.06025559 0.27617973
v -0.06603694 -0.06079326 0.27669290
v -0.07001533 -0.06117875 0.27685988
v -0.06607211 -0.06051231 0.27661210
v -0.07003892 -0.06099049 0.27680513
v -0.06609534 -0.06033785 0.27652571
v -0.07007333 -0.06073213 0.27667677
v -0.06612809 -0.06010807 0.27635682
v -0.07009555 -0.06057600 0.27656260
v -0.07012679 -0.06037329 0.27635378
v -0.06583311 -0.06249936 0.27672553
v -0.06987771 -0.06234471 0.27690470
v -0.06997390 -0.06152601 0.27690253
v -0.06539312 -0.06571660 0.27671877
v -0.06944912 -0.06560261 0.27689481
v -0.06576275 -0.06305540 0.27672461
v -0.06979591 -0.06301440 0.27690256
v -0.06981676 -0.06284604 0.27690309
v -0.06434982 -0.07158295 0.27670315
v -0.06826087 -0.07240374 0.27687401
v -0.06869779 -0.07019321 0.27688131
f 5 6 3
f 3 6 7
f 3 7 4
f 6 5 45
f 45 5 46
f 45 46 10
f 10 46 47
f 10 47 8
f 8 9 10
f 9 8 40
f 40 8 41
f 40 41 42
f 42 41 43
f 42 43 37
f 37 43 44
f 37 44 38
f 37 38 13
f 13 38 39
f 13 39 11
f 11 12 13
f 12 11 28
f 28 11 29
f 28 29 30
f 30 29 31
f 30 31 32
f 32 31 33
f 32 33 34
f 34 33 35
f 34 35 25
f 25 35 36
f 25 36 26
f 25 26 22
f 22 26 27
f 22 27 23
f 22 23 19
f 19 23 24
f 19 24 20
f 19 20 17
f 17 20 21
f 17 21 15
f 15 16 17
f 17 16 14
f 14 16 18
f 14 18 2
f 2 1 14

