# https://github.com/mikedh/trimesh
v -0.07128047 0.04133019 0.27894020
v -0.06729098 0.04118071 0.27869219
v -0.06726033 0.04138016 0.27906102
v -0.07124951 0.04153058 0.27931368
v -0.06723020 0.04167971 0.27935520
v -0.07121908 0.04183197 0.27961141
v -0.07128108 0.04132513 0.27893344
v -0.06729157 0.04117569 0.27868551
v -0.07145442 0.04043002 0.27653977
v -0.06746304 0.04028378 0.27632183
v -0.07136834 0.04088565 0.27775839
v -0.06768330 0.03894864 0.27278733
v -0.07167730 0.03908866 0.27295589
v -0.06787209 0.03753663 0.26904950
v -0.07186775 0.03767271 0.26917681
v -0.06723399 0.05210337 0.26300615
v -0.07122102 0.05242319 0.26304266
v -0.07091210 0.04815769 0.28000206
v -0.06692534 0.04794963 0.27975199
v -0.07107309 0.04912075 0.27615434
v -0.06708553 0.04889838 0.27592871
v -0.07113496 0.04963037 0.27412209
v -0.06714577 0.04938861 0.27395490
v -0.07118098 0.05012162 0.27216747
v -0.06719225 0.04987685 0.27199072
v -0.07123390 0.05114697 0.26809606
v -0.06724454 0.05085812 0.26803979
v -0.07123643 0.05127072 0.26760536
v -0.06724752 0.05099205 0.26749963
v -0.06724931 0.05154812 0.26525301
v -0.07101662 0.04602171 0.28000689
v -0.06702901 0.04583622 0.27975285
v -0.06697764 0.04691624 0.27975208
v -0.06709644 0.04433404 0.27975333
v -0.07108472 0.04450029 0.28001046
v -0.06714540 0.04317818 0.27975014
v -0.07112260 0.04360553 0.28001177
v -0.06715240 0.04301619 0.27974421
v -0.07114954 0.04298074 0.27999040
v -0.06716042 0.04283689 0.27973244
v -0.06717508 0.04253085 0.27969524
v -0.07116928 0.04257814 0.27993375
v -0.06718749 0.04229781 0.27964592
v -0.07117602 0.04245436 0.27990511
v -0.06719732 0.04213005 0.27959555
v -0.07118994 0.04222166 0.27983057
v -0.06721216 0.04190401 0.27950177
v -0.07120129 0.04205404 0.27975526
f 1 2 3
f 1 3 4
f 4 3 5
f 4 5 6
f 47 6 5
f 47 48 6
f 46 48 47
f 45 46 47
f 45 44 46
f 43 44 45
f 43 42 44
f 41 42 43
f 41 39 42
f 40 39 41
f 38 39 40
f 38 37 39
f 36 37 38
f 36 35 37
f 34 35 36
f 34 31 35
f 32 31 34
f 31 32 18
f 18 32 33
f 18 33 19
f 18 19 20
f 20 19 21
f 20 21 22
f 22 21 23
f 22 23 24
f 24 23 25
f 24 25 26
f 26 25 27
f 26 27 28
f 28 27 29
f 28 29 17
f 17 29 30
f 17 30 16
f 1 7 2
f 2 7 8
f 11 8 7
f 11 10 8
f 9 10 11
f 10 9 12
f 12 9 13
f 12 13 14
f 14 13 15

