# https://github.com/mikedh/trimesh
v 0.06834375 0.01960533 0.27558935
v 0.06835008 0.01966604 0.27555653
v 0.06833455 0.01942694 0.27565023
v 0.06833494 0.01919612 0.27568266
v 0.06834114 0.01898902 0.27568948
v 0.06834305 0.01893725 0.27568978
v 0.06834354 0.01892432 0.27568984
v 0.06834366 0.01892107 0.27568984
v 0.06834529 0.01887816 0.27568984
v 0.06842098 0.01670974 0.27569053
v 0.06844287 0.01599895 0.27569088
v 0.06849587 0.01404941 0.27569193
v 0.06837807 0.01981520 0.27542940
v 0.06837875 0.01981738 0.27542654
v 0.06835256 0.01968675 0.27554423
v 0.06843878 0.01995262 0.27518061
v 0.06844003 0.01995411 0.27517569
v 0.06838921 0.01985481 0.27538162
v 0.06924148 0.01901516 0.27221483
v 0.06916840 0.01927718 0.27246577
v 0.06912926 0.01937276 0.27260628
v 0.06911642 0.01939922 0.27265301
v 0.06904215 0.01951652 0.27292794
v 0.06895825 0.01960530 0.27324331
v 0.06890105 0.01965898 0.27345815
v 0.06864683 0.01989465 0.27440163
v 0.06872618 0.01982158 0.27410910
v 0.06854337 0.01997268 0.27478287
v 0.06849811 0.01998338 0.27495241
v 0.06940550 0.01611298 0.27195194
v 0.06948140 0.01313647 0.27195311
v 0.06925327 0.01896059 0.27217606
v 0.06928220 0.01879885 0.27208474
v 0.06935933 0.01756906 0.27195165
v 0.06934493 0.01798671 0.27195162
v 0.06932516 0.01839989 0.27197164
v 0.06931299 0.01854890 0.27199858
v 0.06948972 0.01313355 0.27191979
v 0.07140358 0.01783421 0.26287711
v 0.07143461 0.01792055 0.26271066
v 0.07037325 0.01517066 0.26800600
v 0.07088349 0.01644423 0.26555529
v 0.07114118 0.02428859 0.26271370
v 0.07113440 0.02440512 0.26271376
v 0.07522219 0.02464330 0.26354465
v 0.07130706 0.02108746 0.26271167
v 0.06988224 0.02061158 0.26930556
v 0.06985687 0.02054217 0.26942602
v 0.07391987 0.02071791 0.27038431
v 0.07494816 0.02374181 0.26511475
v 0.07086544 0.02351921 0.26425511
v 0.07394574 0.02078834 0.27026156
v 0.06979972 0.02179953 0.26942638
v 0.06979548 0.02188691 0.26942667
v 0.06977713 0.02223381 0.26943323
v 0.06976000 0.02250355 0.26944926
v 0.06972606 0.02291262 0.26950520
v 0.06967986 0.02331057 0.26961300
v 0.06965216 0.02349946 0.26968756
v 0.06964476 0.02354565 0.26970840
v 0.06964289 0.02355712 0.26971370
v 0.06964226 0.02356091 0.26971546
v 0.06938694 0.02459508 0.27054355
v 0.06959940 0.02379855 0.26984185
v 0.06955354 0.02401593 0.26998448
v 0.06947468 0.02432406 0.27024254
v 0.06933769 0.02472242 0.27071714
v 0.06855500 0.02566298 0.27363145
v 0.06804952 0.02611920 0.27545330
v 0.06796197 0.02619356 0.27576271
v 0.06790359 0.02623719 0.27596936
v 0.06763010 0.02628526 0.27696046
v 0.06770811 0.02631342 0.27667040
v 0.06775876 0.02630820 0.27648637
v 0.06782226 0.02628523 0.27625856
v 0.06928694 0.02483728 0.27089903
v 0.06919330 0.02500495 0.27124313
v 0.06913425 0.02508992 0.27146363
v 0.06899785 0.02524736 0.27197805
v 0.06894846 0.02529591 0.27216488
v 0.06893609 0.02530768 0.27221164
v 0.06893300 0.02531060 0.27222335
v 0.06893221 0.02531132 0.27222627
v 0.06878886 0.02544614 0.27276504
v 0.06758553 0.02624562 0.27713069
v 0.06758475 0.02624469 0.27713370
v 0.06760821 0.02626869 0.27704346
v 0.06736870 0.02532210 0.27810442
v 0.06737187 0.02538609 0.27807993
v 0.06739186 0.02562370 0.27795932
v 0.06737346 0.02462965 0.27822798
v 0.06737104 0.02469980 0.27822256
v 0.06736413 0.02502724 0.27818108
v 0.06740274 0.02400505 0.27824628
v 0.06745493 0.02301406 0.27824605
v 0.06752234 0.02163496 0.27824596
v 0.06771912 0.01661494 0.27824757
v 0.06789300 0.00875437 0.27825385
v 0.06740830 0.02574676 0.27787474
v 0.06742621 0.02584868 0.27778921
v 0.06745773 0.02598136 0.27764809
v 0.06748200 0.02605766 0.27754459
v 0.06751385 0.02613484 0.27741343
v 0.06755649 0.02620920 0.27724361
v 0.06907255 0.00766888 0.27390951
v 0.07042828 0.00628536 0.26837584
v 0.07165176 0.00487843 0.26275274
v 0.07159895 0.01081949 0.26275125
v 0.06855901 0.01399177 0.27546105
v 0.07113540 0.01136300 0.26492879
v 0.06992734 0.01266911 0.27016208
v 0.06926096 0.01333168 0.27281657
v 0.06854074 0.02101221 0.27462313
v 0.06976908 0.01560097 0.27052748
v 0.06954403 0.02112817 0.27062714
v 0.07047050 0.02123838 0.26660973
v 0.07083356 0.01018613 0.26639980
v 0.06991199 0.01006943 0.27041209
v 0.06891655 0.00994786 0.27440366
f 26 28 113
f 28 29 113
f 113 29 17
f 113 17 96
f 96 95 113
f 113 95 94
f 113 94 91
f 91 92 113
f 113 92 93
f 113 93 88
f 88 89 113
f 113 89 90
f 113 90 99
f 99 100 113
f 113 100 101
f 113 101 102
f 102 103 113
f 113 103 104
f 113 104 86
f 86 85 113
f 113 85 87
f 113 87 72
f 72 73 113
f 113 73 74
f 113 74 75
f 75 71 113
f 113 71 70
f 113 70 69
f 69 68 113
f 113 68 84
f 84 83 113
f 113 83 82
f 113 82 81
f 81 80 113
f 113 80 79
f 113 79 78
f 78 77 113
f 113 77 76
f 113 76 115
f 115 76 67
f 115 67 63
f 63 66 115
f 115 66 65
f 115 65 64
f 64 62 115
f 115 62 61
f 61 60 115
f 115 60 59
f 115 59 58
f 58 57 115
f 115 57 56
f 115 56 55
f 55 54 115
f 115 54 53
f 115 53 48
f 41 115 48
f 114 115 41
f 114 35 115
f 115 35 36
f 115 36 37
f 37 33 115
f 33 32 115
f 115 32 19
f 115 19 20
f 20 21 115
f 115 21 22
f 115 22 23
f 23 24 115
f 115 24 25
f 114 34 35
f 30 34 114
f 114 31 30
f 114 38 31
f 41 38 114
f 41 48 47
f 47 42 41
f 47 116 42
f 42 116 39
f 39 116 46
f 51 46 116
f 43 46 51
f 51 44 43
f 39 46 40
f 51 116 47
f 115 25 113
f 113 25 27
f 96 17 16
f 16 18 96
f 96 18 14
f 96 14 13
f 13 15 96
f 96 15 2
f 96 2 1
f 1 3 96
f 96 3 4
f 96 4 97
f 4 5 97
f 97 5 6
f 97 6 7
f 7 8 97
f 97 8 9
f 9 10 97
f 97 10 11
f 97 11 98
f 12 98 11
f 119 98 12
f 119 105 98
f 118 105 119
f 119 112 118
f 119 109 112
f 118 112 111
f 118 111 110
f 118 110 117
f 117 106 118
f 117 108 106
f 106 108 107
f 117 110 108
f 118 106 105
f 12 109 119
f 113 27 26
f 47 48 49
f 52 47 49
f 50 47 52
f 50 51 47
f 44 51 50
f 50 45 44

