# https://github.com/mikedh/trimesh
v 0.07396327 -0.03678847 0.26457736
v 0.07396656 -0.03678311 0.26456401
v 0.07401671 -0.03668655 0.26436889
v 0.07406526 -0.03656501 0.26419464
v 0.07413988 -0.03631715 0.26395866
v 0.07396042 -0.03679148 0.26458973
v 0.07396181 -0.03678847 0.26458451
v 0.07396264 -0.03678793 0.26458070
v 0.07154380 -0.04021133 0.27367896
v 0.07280613 -0.03849588 0.26911756
v 0.07340880 -0.04273219 0.26357368
v 0.07337999 -0.04268662 0.26375625
v 0.07252463 -0.04144130 0.26874685
v 0.07246079 -0.04873896 0.26356608
v 0.07247955 -0.04863111 0.26356623
v 0.07327253 -0.04367644 0.26357260
v 0.06950641 -0.04479135 0.27936986
v 0.06957278 -0.04486168 0.27908781
v 0.07063396 -0.04607571 0.27422380
v 0.07115062 -0.04673989 0.27156472
v 0.07153602 -0.04727475 0.26942402
v 0.07185773 -0.04775179 0.26751518
v 0.07233114 -0.04851494 0.26446217
v 0.07032029 -0.03888548 0.27900061
v 0.07028522 -0.03900076 0.27908272
v 0.07028265 -0.03901006 0.27908838
v 0.07027251 -0.03904767 0.27911034
v 0.07023418 -0.03920487 0.27918714
v 0.07016949 -0.03953258 0.27929074
v 0.07011983 -0.03984765 0.27934328
v 0.07004894 -0.04039899 0.27937371
v 0.07002062 -0.04064194 0.27937505
v 0.06986897 -0.04192824 0.27937359
v 0.06976158 -0.04280559 0.27937248
v 0.07054146 -0.03841624 0.27837503
v 0.07053722 -0.03842149 0.27838862
v 0.07047446 -0.03851420 0.27858308
v 0.07041424 -0.03863267 0.27875724
v 0.07054368 -0.03841154 0.27836874
v 0.07054252 -0.03841401 0.27837202
v 0.07314947 -0.03499267 0.26927587
v 0.06909287 -0.03458614 0.26836157
v 0.07310612 -0.03505457 0.26944029
v 0.07241304 -0.03601909 0.27200401
v 0.07169608 -0.03697041 0.27453387
v 0.07082935 -0.03247855 0.27938196
v 0.06682007 -0.03214303 0.27825487
v 0.07087631 -0.03252349 0.27920115
v 0.06686600 -0.03218681 0.27807817
v 0.07210772 -0.03378145 0.27414215
v 0.06807116 -0.03341068 0.27312928
v 0.07126629 -0.02648298 0.27938440
v 0.06725360 -0.02623168 0.27824757
v 0.07478490 -0.03040940 0.26358342
v 0.07372942 -0.02905960 0.26901034
v 0.07319454 -0.02844182 0.27149564
v 0.07253326 -0.02772740 0.27437136
v 0.07416893 -0.03620175 0.26387665
v 0.07417184 -0.03618908 0.26386896
v 0.07418332 -0.03613773 0.26383954
v 0.07422642 -0.03592093 0.26374149
v 0.07428378 -0.03556523 0.26364526
v 0.07433642 -0.03515998 0.26359591
v 0.07438006 -0.03476623 0.26358205
v 0.07440139 -0.03456015 0.26358095
v 0.07451847 -0.03337846 0.26358175
v 0.07462705 -0.03222061 0.26358241
v 0.07137142 -0.03752754 0.27558360
v 0.07234427 -0.03764579 0.27156264
v 0.07071580 -0.04304598 0.27559945
v 0.07380572 -0.03222832 0.26749948
v 0.07428808 -0.03537468 0.26372522
v 0.07253633 -0.04327220 0.26753023
v 0.07166477 -0.04316512 0.27157161
v 0.07323898 -0.03775419 0.26752681
v 0.07190590 -0.03200141 0.27554563
v 0.07289489 -0.03211877 0.27153054
f 45 68 69
f 9 69 68
f 10 69 9
f 10 75 69
f 6 75 10
f 6 71 75
f 71 41 75
f 75 41 43
f 77 41 71
f 71 56 77
f 77 56 57
f 77 57 76
f 76 57 46
f 57 52 46
f 76 46 48
f 48 50 76
f 76 50 41
f 71 55 56
f 54 55 71
f 71 67 54
f 7 67 71
f 8 67 7
f 8 66 67
f 8 65 66
f 72 65 8
f 72 64 65
f 63 64 72
f 72 62 63
f 72 61 62
f 60 61 72
f 72 59 60
f 72 58 59
f 5 58 72
f 72 4 5
f 72 3 4
f 2 3 72
f 72 1 2
f 8 1 72
f 76 41 77
f 7 71 6
f 75 43 69
f 69 43 44
f 9 68 70
f 74 9 70
f 74 70 20
f 20 70 19
f 19 70 18
f 18 70 34
f 33 34 70
f 70 32 33
f 70 31 32
f 30 31 70
f 70 29 30
f 70 28 29
f 27 28 70
f 70 26 27
f 70 25 26
f 24 25 70
f 70 38 24
f 70 37 38
f 36 37 70
f 70 35 36
f 70 40 35
f 39 40 70
f 18 34 17
f 73 74 20
f 21 73 20
f 22 73 21
f 22 16 73
f 23 16 22
f 23 15 16
f 14 15 23
f 16 12 73
f 12 13 73
f 73 13 9
f 16 11 12
f 73 9 74
f 70 68 39
f 69 44 45
f 68 45 39
f 46 47 48
f 48 47 49
f 48 49 50
f 50 49 51
f 50 51 41
f 41 51 42
f 46 53 47
f 52 53 46

