# https://github.com/mikedh/trimesh
v 0.07177769 -0.01510686 0.27938414
v 0.07179254 -0.01512021 0.27933022
v 0.07220139 -0.01549367 0.27782124
v 0.07257975 -0.01585010 0.27638167
v 0.06854399 -0.01572902 0.27530688
v 0.07195371 0.00599822 0.27938375
v 0.07196809 0.00016099 0.27938074
v 0.07196804 -0.00009966 0.27938074
v 0.07196710 -0.00114224 0.27938092
v 0.07194870 -0.00531260 0.27938181
v 0.07188155 -0.01064060 0.27938321
v 0.07277329 0.00525450 0.27638099
v 0.07277826 -0.00230119 0.27637890
v 0.07682295 -0.00687385 0.25790289
v 0.07609034 -0.00590110 0.26183087
v 0.07572185 -0.00544215 0.26368460
v 0.07524962 -0.00487957 0.26595736
v 0.07440940 -0.00394050 0.26975206
v 0.07407583 -0.00358710 0.27118045
v 0.07317270 -0.00267822 0.27485445
v 0.07674325 -0.01286206 0.25790289
v 0.07273608 -0.00828538 0.27638003
v 0.06869709 -0.00823624 0.27531171
v 0.07365805 -0.00919021 0.27272362
v 0.07416791 -0.00972125 0.27057841
v 0.07452597 -0.01010895 0.26901278
v 0.07466334 -0.01026118 0.26839808
v 0.07547335 -0.01120228 0.26459906
v 0.07576241 -0.01155818 0.26316276
v 0.07649904 -0.01252193 0.25927472
v 0.07268266 -0.01167313 0.27638084
v 0.07574035 -0.01083649 0.26332992
v 0.07462800 -0.00518466 0.26877233
v 0.07330152 -0.00502363 0.27430785
f 29 32 28
f 14 32 29
f 14 29 30
f 30 21 14
f 15 32 14
f 15 28 32
f 16 28 15
f 16 27 28
f 17 27 16
f 17 26 27
f 33 26 17
f 18 33 17
f 33 18 34
f 19 34 18
f 20 34 19
f 20 10 34
f 10 22 34
f 34 22 24
f 10 11 22
f 22 11 1
f 1 2 22
f 22 2 3
f 22 3 31
f 31 3 4
f 13 10 20
f 13 9 10
f 8 9 13
f 13 7 8
f 13 6 7
f 12 6 13
f 34 24 33
f 24 25 33
f 33 25 26
f 4 5 31
f 31 5 23
f 31 23 22

