# https://github.com/mikedh/trimesh
v -0.06552141 0.06404741 0.27973181
v -0.06948006 0.06457648 0.27995870
v -0.07073159 0.05129589 0.27999350
v -0.06674698 0.05104245 0.27975118
v -0.06842817 0.07109645 0.27994561
v -0.06450723 0.07034151 0.27970973
v -0.06843463 0.07188568 0.27683893
v -0.06451596 0.07111976 0.27658620
v -0.06841636 0.07226466 0.27535418
v -0.06450064 0.07146025 0.27521530
v -0.06838116 0.07267315 0.27375725
v -0.06446465 0.07188796 0.27348694
v -0.06832568 0.07311464 0.27203435
v -0.06441452 0.07228795 0.27186379
v -0.06816876 0.07398492 0.26864770
v -0.06425980 0.07313968 0.26838842
v -0.06804025 0.07454409 0.26648149
v -0.06415220 0.07360455 0.26648664
v -0.06803923 0.07454821 0.26646608
v -0.06804004 0.07454491 0.26647845
v -0.06803603 0.07456121 0.26641664
v -0.06412258 0.07372305 0.26596704
v -0.06802373 0.07461083 0.26621833
v -0.06410070 0.07380731 0.26549602
v -0.06799082 0.07473993 0.26560700
v -0.06798285 0.07477000 0.26541507
v -0.06409068 0.07384226 0.26509038
v -0.06797410 0.07480009 0.26503739
v -0.06409023 0.07384175 0.26494375
v -0.06797775 0.07477911 0.26467320
v -0.06409334 0.07382534 0.26472154
v -0.06798066 0.07476574 0.26458737
v -0.06410615 0.07376762 0.26441476
v -0.06798968 0.07472572 0.26440719
v -0.06799966 0.07468237 0.26426744
v -0.06413108 0.07365981 0.26410800
v -0.06802730 0.07456391 0.26400107
v -0.06415150 0.07357256 0.26393965
v -0.06806888 0.07438684 0.26373580
v -0.06416798 0.07350229 0.26382995
v -0.06417350 0.07347877 0.26379693
v -0.06811033 0.07421016 0.26354915
v -0.06422285 0.07326826 0.26355872
v -0.06811804 0.07417722 0.26352003
v -0.06427505 0.07304437 0.26338166
v -0.06818154 0.07390471 0.26332569
v -0.06823006 0.07369466 0.26321784
v -0.06431139 0.07288751 0.26328748
v -0.06434400 0.07274573 0.26321849
v -0.06831141 0.07333819 0.26309517
v -0.06439384 0.07252747 0.26313764
v -0.06442663 0.07238264 0.26309887
v -0.06841319 0.07288381 0.26301900
v -0.06448344 0.07212932 0.26305279
v -0.06455778 0.07179266 0.26301703
v -0.06855922 0.07221273 0.26297981
v -0.06472157 0.07102779 0.26299450
v -0.06863638 0.07184824 0.26297769
v -0.06864852 0.07179017 0.26297796
v -0.06645922 0.05996436 0.26300555
v -0.07037731 0.06089456 0.26301578
v -0.06614494 0.06250861 0.26300231
v -0.07011035 0.06303340 0.26301035
v -0.06607239 0.06305315 0.26300162
v -0.06997961 0.06400399 0.26300749
v -0.06564326 0.06597665 0.26299888
v -0.06954870 0.06688812 0.26299736
v -0.06550679 0.06681842 0.26299831
v -0.06934166 0.06813321 0.26299244
v -0.06520073 0.06857790 0.26299697
v -0.06888391 0.07062715 0.26298255
v -0.06869677 0.07155780 0.26297885
v -0.07058849 0.05904929 0.26302084
v -0.07058287 0.05910025 0.26302058
v -0.06660524 0.05867770 0.26300681
v -0.07058147 0.05911298 0.26302052
v -0.07058102 0.05911697 0.26302049
v -0.07061084 0.05884547 0.26302305
v -0.06666080 0.05816920 0.26301467
v -0.07067715 0.05822996 0.26305231
v -0.06671213 0.05768883 0.26304790
v -0.07069822 0.05803068 0.26307374
v -0.07074542 0.05757609 0.26315558
v -0.06675969 0.05723261 0.26312131
v -0.07076539 0.05737999 0.26320809
v -0.06678638 0.05697125 0.26318845
v -0.07078909 0.05714415 0.26328731
v -0.06680387 0.05679752 0.26324514
v -0.06681471 0.05668876 0.26328591
v -0.07082786 0.05674915 0.26346540
v -0.06685463 0.05627996 0.26348078
v -0.07086562 0.05635059 0.26371068
v -0.06689069 0.05589660 0.26373023
v -0.07088343 0.05615651 0.26385793
v -0.06691021 0.05568176 0.26390415
v -0.07089831 0.05599047 0.26400170
v -0.06693890 0.05535188 0.26423377
v -0.07091896 0.05575232 0.26424199
v -0.07092809 0.05564341 0.26436773
v -0.07094323 0.05545580 0.26461408
v -0.06696190 0.05506876 0.26459932
v -0.07096010 0.05523002 0.26498172
v -0.06697223 0.05493197 0.26481771
v -0.07096145 0.05521069 0.26501811
v -0.06698681 0.05471696 0.26524988
v -0.07096956 0.05508836 0.26527226
v -0.07098075 0.05488442 0.26581681
v -0.06699755 0.05451384 0.26581502
v -0.07098465 0.05478716 0.26614469
v -0.06700051 0.05443628 0.26608551
v -0.07098792 0.05466988 0.26659361
v -0.06700267 0.05436070 0.26637709
v -0.07098582 0.05378542 0.27009264
v -0.06700654 0.05380082 0.26864105
v -0.06699702 0.05338080 0.27033737
v -0.07095823 0.05318193 0.27248505
v -0.06694026 0.05247753 0.27397770
v -0.06682543 0.05151670 0.27784252
v -0.07079540 0.05167901 0.27846587
v -0.06689595 0.05204798 0.27570581
v -0.07082693 0.05189261 0.27761421
v -0.07093640 0.05288063 0.27368125
v -0.06919695 0.06657697 0.27995449
v -0.06505825 0.06720556 0.27972153
v -0.06888107 0.06857255 0.27995068
f 5 6 7
f 125 6 5
f 125 124 6
f 123 124 125
f 123 1 124
f 2 1 123
f 7 6 8
f 7 8 9
f 9 8 10
f 9 10 11
f 11 10 12
f 11 12 13
f 13 12 14
f 13 14 15
f 15 14 16
f 15 16 17
f 17 16 18
f 18 20 17
f 19 20 18
f 19 18 21
f 21 18 22
f 21 22 23
f 23 22 24
f 23 24 25
f 25 24 26
f 26 24 27
f 26 27 28
f 28 27 29
f 28 29 30
f 30 29 31
f 30 31 32
f 32 31 33
f 32 33 34
f 34 33 35
f 35 33 36
f 35 36 37
f 37 36 38
f 37 38 39
f 38 40 39
f 39 40 41
f 39 41 42
f 42 41 43
f 42 43 44
f 44 43 45
f 44 45 46
f 46 45 47
f 45 48 47
f 47 48 49
f 47 49 50
f 49 51 50
f 50 51 52
f 50 52 53
f 52 54 53
f 53 54 55
f 53 55 56
f 56 55 57
f 56 57 58
f 58 57 59
f 57 72 59
f 57 71 72
f 70 71 57
f 70 69 71
f 68 69 70
f 68 67 69
f 66 67 68
f 66 65 67
f 64 65 66
f 64 63 65
f 62 63 64
f 62 61 63
f 60 61 62
f 60 77 61
f 75 77 60
f 75 76 77
f 74 76 75
f 73 74 75
f 73 75 78
f 78 75 79
f 78 79 80
f 80 79 81
f 80 81 82
f 82 81 83
f 83 81 84
f 83 84 85
f 85 84 86
f 85 86 87
f 86 88 87
f 87 88 89
f 87 89 90
f 90 89 91
f 90 91 92
f 92 91 93
f 92 93 94
f 94 93 95
f 94 95 96
f 96 95 97
f 96 97 98
f 98 97 99
f 99 97 100
f 100 97 101
f 100 101 102
f 102 101 103
f 102 103 104
f 104 103 105
f 104 105 106
f 106 105 107
f 107 105 108
f 107 108 109
f 109 108 110
f 109 110 111
f 111 110 112
f 111 112 113
f 112 114 113
f 113 114 115
f 113 115 116
f 116 115 117
f 117 122 116
f 117 121 122
f 120 121 117
f 120 119 121
f 118 119 120
f 118 3 119
f 4 3 118

