# https://github.com/mikedh/trimesh
v 0.06994201 0.03246477 0.26555648
v 0.07401206 0.03283549 0.26642498
v 0.06951030 0.03291422 0.26735172
v 0.06927703 0.03315074 0.26829576
v 0.07333574 0.03352615 0.26921394
v 0.07327379 0.03359206 0.26946023
v 0.06921820 0.03321373 0.26852944
v 0.07318842 0.03371824 0.26978308
v 0.06913324 0.03333918 0.26885083
v 0.07313967 0.03382152 0.26995376
v 0.06908450 0.03344250 0.26902148
v 0.07312771 0.03385119 0.26999372
v 0.06907254 0.03347222 0.26906142
v 0.07312474 0.03385885 0.27000356
v 0.06906958 0.03347990 0.26907125
v 0.07312400 0.03386077 0.27000600
v 0.06906883 0.03348183 0.26907369
v 0.07305752 0.03406107 0.27021307
v 0.06900339 0.03367929 0.26927736
v 0.06893536 0.03395983 0.26945668
v 0.07298845 0.03434600 0.27039504
v 0.07295058 0.03455597 0.27047178
v 0.06890237 0.03413957 0.26952493
v 0.07291347 0.03482742 0.27051866
v 0.06882558 0.03476914 0.26959175
v 0.07287729 0.03516915 0.27053028
v 0.07287778 0.03516413 0.27053028
v 0.06886245 0.03442429 0.26957849
v 0.06885935 0.03445042 0.26958084
v 0.07288577 0.03508389 0.27052993
v 0.07287937 0.03514808 0.27053025
v 0.06881558 0.03486965 0.26959199
v 0.07286718 0.03527143 0.27053022
v 0.07262271 0.03761957 0.27052829
v 0.06857331 0.03717912 0.26959786
v 0.07223371 0.04094901 0.27052495
v 0.06818877 0.04044447 0.26960784
v 0.06748133 0.04556708 0.26962760
v 0.07151826 0.04617279 0.27051836
v 0.07375944 0.03309793 0.26748461
v 0.07352788 0.03333374 0.26843691
v 0.06675503 0.04625961 0.27236959
v 0.06674141 0.04627229 0.27241972
v 0.07076734 0.04687474 0.27336100
v 0.07116519 0.04650724 0.27187246
v 0.06713335 0.04590287 0.27095798
v 0.07078117 0.04686214 0.27330992
f 3 4 5
f 5 4 6
f 6 4 7
f 6 7 8
f 8 7 9
f 8 9 10
f 10 9 11
f 10 11 12
f 12 11 13
f 12 13 14
f 14 13 15
f 14 15 16
f 16 15 17
f 16 17 18
f 17 19 18
f 18 19 20
f 18 20 21
f 21 20 22
f 22 20 23
f 22 23 24
f 23 28 24
f 24 28 29
f 24 29 30
f 30 29 25
f 30 25 31
f 31 25 27
f 25 26 27
f 26 25 32
f 26 32 33
f 33 32 34
f 34 32 35
f 34 35 36
f 35 37 36
f 36 37 38
f 36 38 39
f 45 39 38
f 38 46 45
f 45 46 42
f 45 42 47
f 47 42 44
f 42 43 44
f 41 3 5
f 40 3 41
f 40 1 3
f 2 1 40

