# https://github.com/mikedh/trimesh
v 0.06558208 -0.06604610 0.27932352
v 0.06583491 -0.06499053 0.27932665
v 0.06669667 -0.06116069 0.27933714
v 0.06691092 -0.06014610 0.27933973
v 0.06693348 -0.06003759 0.27934000
v 0.07026444 -0.05710674 0.26653221
v 0.07021359 -0.05676142 0.26720712
v 0.07021295 -0.05675996 0.26721215
v 0.07014166 -0.05662409 0.26774222
v 0.07007495 -0.05650339 0.26822367
v 0.07000153 -0.05637322 0.26874322
v 0.06992085 -0.05623315 0.26930210
v 0.06983239 -0.05608303 0.26990104
v 0.06973570 -0.05592284 0.27054033
v 0.06899974 -0.05481658 0.27495673
v 0.06813969 -0.05371586 0.27935448
v 0.07020217 -0.05673678 0.26729581
v 0.07022589 -0.05679176 0.26710689
v 0.07021610 -0.05676732 0.26718703
v 0.07026424 -0.05704911 0.26660147
v 0.07025640 -0.05692015 0.26679504
v 0.07025368 -0.05690027 0.26683280
v 0.07022718 -0.05754609 0.26620725
v 0.07022833 -0.05753771 0.26621115
v 0.07022861 -0.05753563 0.26621214
v 0.07023868 -0.05745713 0.26625243
v 0.07022242 -0.05757979 0.26619226
v 0.07020053 -0.05771855 0.26614246
v 0.07014233 -0.05802260 0.26608676
v 0.07009608 -0.05823574 0.26607576
v 0.07006788 -0.05836061 0.26607463
v 0.06978337 -0.05959038 0.26607195
v 0.06937484 -0.06128741 0.26606810
v 0.06918517 -0.06204993 0.26606625
v 0.06926403 -0.06173474 0.26606700
v 0.06918065 -0.06206797 0.26606619
v 0.06918409 -0.06205422 0.26606625
v 0.06916680 -0.06212289 0.26606619
v 0.06911009 -0.06234223 0.26607347
v 0.06904075 -0.06258927 0.26611125
v 0.06900930 -0.06269083 0.26614323
v 0.06896976 -0.06280700 0.26620018
v 0.06888375 -0.06301159 0.26639470
v 0.06894121 -0.06288252 0.26625356
v 0.06896271 -0.06282625 0.26621243
v 0.06896808 -0.06281162 0.26620302
v 0.06887425 -0.06302945 0.26642314
v 0.06882805 -0.06309871 0.26658764
v 0.06877401 -0.06312940 0.26685423
v 0.06881290 -0.06311411 0.26665235
v 0.06882417 -0.06310309 0.26660362
v 0.06882709 -0.06309984 0.26659161
v 0.06874748 -0.06311376 0.26702973
v 0.06872889 -0.06308753 0.26717475
v 0.06870533 -0.06303886 0.26738009
v 0.06867477 -0.06297065 0.26765171
v 0.06831644 -0.06223015 0.27060068
v 0.06779964 -0.06131209 0.27425826
v 0.06705051 -0.06019498 0.27871215
v 0.06863772 -0.05073554 0.27936023
v 0.06909957 -0.04771296 0.27936542
v 0.06621120 -0.06711207 0.27508089
v 0.06675570 -0.06827436 0.27045915
v 0.06687336 -0.06857098 0.26928028
v 0.06700986 -0.06894372 0.26779899
v 0.06707930 -0.06914739 0.26698977
v 0.06709415 -0.06919239 0.26681086
v 0.06709553 -0.06919653 0.26679438
v 0.06721327 -0.06941886 0.26560655
v 0.06716639 -0.06936602 0.26601487
v 0.06712373 -0.06927557 0.26646408
v 0.06710102 -0.06921292 0.26672846
v 0.06724446 -0.06942696 0.26538673
v 0.06730535 -0.06939564 0.26504987
v 0.06735379 -0.06934427 0.26483402
v 0.06735479 -0.06934304 0.26482984
v 0.06753688 -0.06904037 0.26423666
v 0.06744698 -0.06920833 0.26449254
v 0.06737524 -0.06931720 0.26474705
v 0.06735881 -0.06933818 0.26481318
v 0.06761505 -0.06887228 0.26405799
v 0.06772190 -0.06861616 0.26386523
v 0.06772292 -0.06861357 0.26386368
v 0.06792594 -0.06805504 0.26363444
v 0.06780903 -0.06838758 0.26374611
v 0.06774341 -0.06856111 0.26383325
v 0.06772701 -0.06860314 0.26385748
v 0.06803830 -0.06770904 0.26357469
v 0.06811477 -0.06746305 0.26355147
v 0.06822741 -0.06708930 0.26353395
v 0.06833554 -0.06672038 0.26353014
v 0.06843872 -0.06636266 0.26353109
v 0.06969506 -0.06171845 0.26354226
v 0.07038784 -0.05889074 0.26354837
v 0.07081868 -0.05701477 0.26355213
v 0.07085785 -0.05683924 0.26355249
v 0.07097050 -0.05632932 0.26355344
v 0.07126530 -0.05495832 0.26355600
v 0.07126684 -0.05495102 0.26355600
v 0.07127296 -0.05492187 0.26355615
v 0.07129737 -0.05480526 0.26355696
v 0.07139242 -0.05433837 0.26357043
v 0.07147606 -0.05389641 0.26361164
v 0.07154685 -0.05347613 0.26369300
v 0.07160366 -0.05307708 0.26382181
v 0.07162581 -0.05289320 0.26390120
v 0.07162628 -0.05288885 0.26390326
v 0.07162821 -0.05287141 0.26391166
v 0.07163560 -0.05280218 0.26394629
v 0.07166041 -0.05253286 0.26410052
v 0.07168176 -0.05217806 0.26435968
v 0.07168657 -0.05186141 0.26466173
v 0.07168121 -0.05168013 0.26487502
v 0.07168105 -0.05167664 0.26487941
v 0.07168049 -0.05166552 0.26489365
v 0.07167797 -0.05162183 0.26495114
v 0.07166343 -0.05145974 0.26519042
v 0.07163523 -0.05128355 0.26551265
v 0.07162474 -0.05123655 0.26561344
v 0.07156550 -0.05104972 0.26610136
v 0.07154401 -0.05100022 0.26625922
v 0.07145706 -0.05084069 0.26685303
v 0.07135680 -0.05067698 0.26750737
v 0.07135418 -0.05067278 0.26752424
v 0.07134745 -0.05066193 0.26756760
v 0.07068566 -0.04966799 0.27154157
v 0.07048241 -0.04938785 0.27266204
v 0.06946623 -0.04812340 0.27772188
v 0.07053466 -0.05055944 0.27153727
v 0.06963944 -0.05044091 0.27553892
v 0.06840846 -0.06419601 0.26736274
v 0.07030419 -0.05609930 0.26747486
v 0.07004829 -0.05328177 0.27151898
v 0.07085043 -0.05338414 0.26750231
v 0.06917319 -0.05316342 0.27552518
v 0.06768762 -0.06687108 0.26731664
v 0.06626309 -0.06667752 0.27538657
v 0.06700820 -0.06678519 0.27135450
v 0.06692642 -0.06399245 0.27542338
v 0.06754785 -0.06129677 0.27545571
v 0.06770115 -0.06410453 0.27139646
f 126 129 125
f 130 129 126
f 130 126 127
f 127 128 130
f 60 130 128
f 60 128 61
f 16 130 60
f 16 135 130
f 15 135 16
f 15 14 135
f 135 14 133
f 133 14 134
f 134 125 133
f 134 124 125
f 123 124 134
f 122 123 134
f 122 134 121
f 134 120 121
f 134 119 120
f 118 119 134
f 134 117 118
f 134 116 117
f 115 116 134
f 134 114 115
f 134 113 114
f 134 112 113
f 134 111 112
f 110 111 134
f 134 109 110
f 134 108 109
f 107 108 134
f 134 106 107
f 105 106 134
f 134 104 105
f 134 103 104
f 102 103 134
f 134 101 102
f 134 100 101
f 132 100 134
f 132 99 100
f 98 99 132
f 132 97 98
f 18 97 132
f 19 18 132
f 19 132 7
f 132 8 7
f 132 17 8
f 132 9 17
f 132 10 9
f 11 10 132
f 132 12 11
f 132 13 12
f 18 22 97
f 22 21 97
f 97 21 20
f 97 20 6
f 6 26 97
f 97 26 25
f 97 25 96
f 96 25 24
f 24 23 96
f 96 23 27
f 96 27 95
f 27 28 95
f 95 28 29
f 95 29 94
f 94 29 30
f 94 30 31
f 94 31 32
f 94 32 93
f 93 32 33
f 93 33 35
f 35 34 93
f 93 34 37
f 36 93 37
f 36 38 93
f 38 39 93
f 93 39 40
f 93 40 92
f 92 40 41
f 92 41 42
f 92 42 46
f 92 46 45
f 45 44 92
f 44 43 92
f 92 43 47
f 92 47 48
f 92 48 52
f 52 51 92
f 92 51 50
f 92 50 131
f 131 91 92
f 131 136 91
f 141 136 131
f 141 138 136
f 138 63 136
f 137 63 138
f 137 62 63
f 1 62 137
f 1 137 139
f 1 139 2
f 2 139 140
f 58 140 139
f 59 140 58
f 59 3 140
f 4 3 59
f 59 5 4
f 58 139 141
f 141 57 58
f 141 56 57
f 2 140 3
f 139 137 138
f 63 64 136
f 64 65 136
f 136 65 66
f 136 66 67
f 136 67 68
f 68 72 136
f 136 72 71
f 136 71 70
f 70 69 136
f 136 69 73
f 136 73 74
f 74 75 136
f 75 76 136
f 136 76 80
f 136 80 79
f 79 78 136
f 136 78 77
f 136 77 81
f 81 82 136
f 136 82 83
f 83 87 136
f 136 87 86
f 136 86 85
f 85 84 136
f 136 84 88
f 136 88 89
f 89 90 136
f 139 138 141
f 131 56 141
f 131 55 56
f 54 55 131
f 131 53 54
f 131 49 53
f 136 90 91
f 50 49 131
f 134 13 132
f 134 14 13
f 135 133 130
f 133 129 130
f 133 125 129

