# https://github.com/mikedh/trimesh
v 0.06694149 0.05337714 0.26563337
v 0.07096924 0.05418175 0.26639932
v 0.06630954 0.05402707 0.26820773
v 0.06626666 0.05407028 0.26837865
v 0.07028724 0.05487002 0.26918632
v 0.07022627 0.05493383 0.26942608
v 0.06620850 0.05413203 0.26860654
v 0.07017303 0.05500149 0.26962283
v 0.06615370 0.05420217 0.26880860
v 0.07013422 0.05506125 0.26975563
v 0.06611617 0.05426019 0.26893675
v 0.07007947 0.05516263 0.26992550
v 0.06606143 0.05436159 0.26910663
v 0.07006558 0.05519162 0.26996541
v 0.06604753 0.05439056 0.26914653
v 0.07006210 0.05519908 0.26997522
v 0.06604405 0.05439803 0.26915634
v 0.07006123 0.05520096 0.26997763
v 0.06604318 0.05439990 0.26915875
v 0.07004648 0.05523397 0.27001768
v 0.06602859 0.05443249 0.26919842
v 0.06591934 0.05471854 0.26945311
v 0.06993587 0.05552454 0.27027461
v 0.06988467 0.05568635 0.27036589
v 0.06586879 0.05487743 0.26954412
v 0.06982992 0.05588372 0.27043864
v 0.06580070 0.05512564 0.26963168
v 0.06976395 0.05615908 0.27048773
v 0.06573457 0.05540838 0.26967365
v 0.06970706 0.05642512 0.27049965
v 0.06569002 0.05561748 0.26968196
v 0.06969329 0.05649176 0.27049994
v 0.06567912 0.05566983 0.26968259
v 0.06968985 0.05650842 0.27049994
v 0.06567641 0.05568291 0.26968274
v 0.06968877 0.05651362 0.27049994
v 0.06567556 0.05568701 0.26968277
v 0.06962438 0.05682559 0.27049932
v 0.06560317 0.05603439 0.26968503
v 0.06557605 0.05616368 0.26968589
v 0.06951242 0.05736144 0.27049816
v 0.06424849 0.06197962 0.26972869
v 0.06938683 0.05795309 0.27049682
v 0.06537802 0.05709328 0.26969218
v 0.06550175 0.05651533 0.26968825
v 0.06308080 0.06643781 0.26976687
v 0.06705078 0.06753296 0.27047193
v 0.06313335 0.06624796 0.26976511
v 0.06710424 0.06733831 0.27047253
v 0.06823939 0.06295861 0.27048466
v 0.07033058 0.05482716 0.26901272
v 0.06237369 0.06715069 0.27256611
v 0.06633989 0.06823234 0.27331221
f 3 4 5
f 5 4 6
f 6 4 7
f 6 7 8
f 8 7 9
f 8 9 10
f 10 9 11
f 10 11 12
f 12 11 13
f 12 13 14
f 14 13 15
f 14 15 16
f 16 15 17
f 16 17 18
f 18 17 19
f 18 19 20
f 19 21 20
f 20 21 22
f 20 22 23
f 23 22 24
f 24 22 25
f 24 25 26
f 26 25 27
f 26 27 28
f 28 27 29
f 28 29 30
f 30 29 31
f 30 31 32
f 32 31 33
f 32 33 34
f 34 33 35
f 34 35 36
f 36 35 37
f 36 37 38
f 37 39 38
f 38 39 40
f 38 40 41
f 45 41 40
f 44 41 45
f 44 43 41
f 42 43 44
f 42 50 43
f 42 49 50
f 48 49 42
f 48 47 49
f 46 47 48
f 46 53 47
f 52 53 46
f 5 51 3
f 3 51 2
f 3 2 1

