# https://github.com/mikedh/trimesh
v 0.06079627 0.06864719 0.27841109
v 0.06078207 0.06866006 0.27846116
v 0.06155429 0.06794446 0.27567145
v 0.06119081 0.06828523 0.27700105
v 0.06333883 0.05764384 0.27836663
v 0.06366518 0.05597031 0.27835476
v 0.06409161 0.05365647 0.27833939
v 0.06411579 0.05352048 0.27833855
v 0.06414424 0.05336107 0.27833670
v 0.06417353 0.05319868 0.27833310
v 0.06427901 0.05264844 0.27829260
v 0.06438085 0.05219043 0.27819973
v 0.06439756 0.05212247 0.27817947
v 0.06446380 0.05187043 0.27808669
v 0.06448554 0.05179332 0.27805233
v 0.06449105 0.05177423 0.27804336
v 0.06449242 0.05176948 0.27804109
v 0.06457882 0.05148717 0.27788773
v 0.06463291 0.05132620 0.27778071
v 0.06487654 0.05073018 0.27720892
v 0.06481329 0.05086618 0.27737045
v 0.06475250 0.05100879 0.27751732
v 0.06496666 0.05055725 0.27696422
v 0.06501833 0.05046955 0.27681577
v 0.06514645 0.05028543 0.27642390
v 0.06527712 0.05013805 0.27599427
v 0.06541311 0.05001129 0.27552533
v 0.06569996 0.04975446 0.27451378
v 0.06725743 0.04827936 0.26868495
v 0.06791312 0.04761393 0.26604483
v 0.06794340 0.04758289 0.26591960
v 0.06796752 0.04755880 0.26581916
v 0.06810649 0.04743634 0.26522252
v 0.06819554 0.04738706 0.26481152
v 0.06826803 0.04739470 0.26443329
v 0.06830899 0.04743984 0.26418284
v 0.06831817 0.04745599 0.26412129
v 0.06838168 0.04817052 0.26314759
v 0.06838637 0.04806882 0.26321611
v 0.06838907 0.04792643 0.26333168
v 0.06838463 0.04776813 0.26349807
v 0.06836521 0.04760042 0.26374945
v 0.06834053 0.04750608 0.26396126
v 0.06832112 0.04746174 0.26410094
v 0.06832040 0.04746031 0.26410595
v 0.06821136 0.04946701 0.26283026
v 0.06829204 0.04897298 0.26287332
v 0.06830519 0.04888488 0.26288685
v 0.06834802 0.04855919 0.26296556
v 0.06837580 0.04826124 0.26309514
v 0.06811193 0.05002127 0.26282063
v 0.06807094 0.05024200 0.26282170
v 0.06795596 0.05085304 0.26282459
v 0.06695022 0.05575640 0.26285082
v 0.06683715 0.05626510 0.26285380
v 0.06583769 0.06046679 0.26288059
v 0.06470657 0.06470251 0.26291144
v 0.06220585 0.06292288 0.27840835
v 0.06106066 0.06760245 0.27845082
v 0.06406976 0.06539831 0.26566711
v 0.06405789 0.06541106 0.26571754
v 0.06440040 0.06503968 0.26424789
v 0.06694149 0.05337714 0.26563337
v 0.06466674 0.06317875 0.26569945
v 0.06528904 0.06075148 0.26568115
v 0.06587416 0.05831321 0.26566401
v 0.06634410 0.05622672 0.26565042
v 0.06642604 0.05584977 0.26564810
v 0.06630954 0.05402707 0.26820773
v 0.06626666 0.05407028 0.26837865
v 0.06620850 0.05413203 0.26860654
v 0.06615370 0.05420217 0.26880860
v 0.06611617 0.05426019 0.26893675
v 0.06606143 0.05436159 0.26910663
v 0.06604753 0.05439056 0.26914653
v 0.06604405 0.05439803 0.26915634
v 0.06604318 0.05439990 0.26915875
v 0.06602859 0.05443249 0.26919842
v 0.06591934 0.05471854 0.26945311
v 0.06586879 0.05487743 0.26954412
v 0.06580070 0.05512564 0.26963168
v 0.06573457 0.05540838 0.26967365
v 0.06569002 0.05561748 0.26968196
v 0.06567912 0.05566983 0.26968259
v 0.06567641 0.05568291 0.26968274
v 0.06567556 0.05568701 0.26968277
v 0.06560317 0.05603439 0.26968503
v 0.06557605 0.05616368 0.26968589
v 0.06424849 0.06197962 0.26972869
v 0.06537802 0.05709328 0.26969218
v 0.06550175 0.05651533 0.26968825
v 0.06308080 0.06643781 0.26976687
v 0.06313335 0.06624796 0.26976511
v 0.06237369 0.06715069 0.27256611
v 0.06633989 0.06823234 0.27331221
v 0.06500258 0.05611205 0.27247602
v 0.06520475 0.05510689 0.27246925
v 0.06921335 0.05589566 0.27334449
v 0.06412309 0.06018047 0.27250588
v 0.06811722 0.06108670 0.27333233
v 0.06687606 0.06621119 0.27331832
v 0.06290080 0.06518120 0.27254790
v 0.06488077 0.05541072 0.27366480
v 0.06471203 0.05556674 0.27427813
v 0.06464786 0.05562910 0.27450675
v 0.06454740 0.05575786 0.27483615
v 0.06448884 0.05585910 0.27500483
v 0.06447407 0.05588800 0.27504447
v 0.06447037 0.05589544 0.27505422
v 0.06446945 0.05589732 0.27505666
v 0.06441224 0.05602461 0.27519667
v 0.06428836 0.05636993 0.27543858
v 0.06428662 0.05637557 0.27544135
v 0.06426872 0.05643526 0.27546769
v 0.06419855 0.05669899 0.27554488
v 0.06418131 0.05677165 0.27555677
v 0.06411772 0.05706411 0.27557844
v 0.06409890 0.05715584 0.27557996
v 0.06409423 0.05717880 0.27558014
v 0.06409278 0.05718596 0.27558023
v 0.06403919 0.05744836 0.27558208
v 0.06383843 0.05841491 0.27558926
v 0.06271448 0.06340238 0.27562952
v 0.06469081 0.05529074 0.27460659
v 0.06368668 0.06354205 0.27063805
v 0.06434757 0.06083059 0.27064699
v 0.06553894 0.05537188 0.27065694
v 0.06607136 0.05262874 0.27065751
v 0.06686989 0.05269949 0.26669529
v 0.06298101 0.06623790 0.27062669
v 0.06496471 0.05810630 0.27065334
v 0.06520206 0.05254408 0.27460158
v 0.06567498 0.04978969 0.27459392
v 0.06656343 0.04987752 0.27065498
v 0.06738003 0.04995237 0.26669762
f 106 105 124
f 104 124 105
f 103 124 104
f 103 132 124
f 97 132 103
f 97 128 132
f 128 133 132
f 132 133 27
f 27 133 28
f 28 133 134
f 28 134 29
f 29 134 135
f 129 135 134
f 52 135 129
f 52 51 135
f 135 51 46
f 135 46 47
f 47 48 135
f 135 48 49
f 135 49 50
f 50 38 135
f 135 38 39
f 135 39 40
f 40 41 135
f 135 41 42
f 135 42 43
f 43 44 135
f 44 45 135
f 135 45 37
f 135 37 36
f 36 35 135
f 135 35 34
f 135 34 33
f 33 32 135
f 135 32 31
f 135 31 30
f 52 129 53
f 53 129 63
f 63 129 69
f 69 129 128
f 69 128 70
f 70 128 71
f 128 72 71
f 128 73 72
f 74 73 128
f 75 74 128
f 75 128 76
f 128 77 76
f 128 78 77
f 128 79 78
f 80 79 128
f 81 80 128
f 127 81 128
f 82 81 127
f 83 82 127
f 83 127 84
f 127 85 84
f 127 86 85
f 87 86 127
f 127 88 87
f 127 91 88
f 90 91 127
f 127 131 90
f 90 131 126
f 99 126 131
f 99 131 96
f 102 126 99
f 102 125 126
f 89 126 125
f 89 125 130
f 130 93 89
f 130 92 93
f 94 92 130
f 130 102 94
f 130 125 102
f 90 126 89
f 127 96 131
f 97 96 127
f 53 63 54
f 54 63 68
f 54 68 55
f 55 68 67
f 55 67 56
f 56 67 66
f 66 65 56
f 56 65 64
f 56 64 57
f 64 62 57
f 64 60 62
f 61 60 64
f 129 134 128
f 29 135 30
f 132 27 26
f 25 132 26
f 24 132 25
f 24 23 132
f 132 23 20
f 132 20 21
f 21 22 132
f 132 22 19
f 132 19 18
f 18 17 132
f 132 17 16
f 16 15 132
f 132 15 14
f 132 14 13
f 13 12 132
f 132 12 11
f 132 11 10
f 9 132 10
f 8 132 9
f 128 134 133
f 127 128 97
f 8 124 132
f 7 124 8
f 7 106 124
f 107 106 7
f 108 107 7
f 108 7 109
f 7 110 109
f 7 111 110
f 7 112 111
f 113 112 7
f 7 114 113
f 6 114 7
f 6 115 114
f 116 115 6
f 6 117 116
f 6 118 117
f 5 118 6
f 5 119 118
f 120 119 5
f 120 5 121
f 121 5 122
f 122 5 58
f 122 58 123
f 123 58 59
f 123 59 3
f 59 4 3
f 59 1 4
f 2 1 59
f 96 97 98
f 96 98 99
f 98 100 99
f 99 100 101
f 99 101 102
f 102 101 95
f 102 95 94

