# https://github.com/mikedh/trimesh
v -0.07128047 0.04133019 0.27894020
v -0.07124951 0.04153058 0.27931368
v -0.07121908 0.04183197 0.27961141
v -0.07128108 0.04132513 0.27893344
v -0.07145442 0.04043002 0.27653977
v -0.07136834 0.04088565 0.27775839
v -0.07167730 0.03908866 0.27295589
v -0.07186775 0.03767271 0.26917681
v -0.07160357 0.03584055 0.27654332
v -0.07176739 0.03681430 0.27262571
v -0.07141071 0.03497599 0.28002632
v -0.07154967 0.02856552 0.28003436
v -0.07160623 0.02878129 0.27916265
v -0.07175759 0.02942870 0.27654639
v -0.07216415 0.03277239 0.26307517
v -0.07210523 0.03179779 0.26699579
v -0.07199890 0.03082443 0.27091572
v -0.07183305 0.02980426 0.27503005
v -0.07195051 0.03909376 0.26347426
v -0.07196609 0.03876422 0.26327801
v -0.07198253 0.03837463 0.26315528
v -0.07201358 0.03755477 0.26307327
v -0.07202567 0.03721337 0.26307034
v -0.07208087 0.03556692 0.26307228
v -0.07192008 0.03959795 0.26413712
v -0.07193425 0.03939257 0.26376981
v -0.07191971 0.03960134 0.26415068
v -0.07191996 0.03959792 0.26414436
v -0.07192003 0.03959745 0.26414099
v -0.07147205 0.04325656 0.27389732
v -0.07173107 0.04143022 0.26902369
v -0.07164352 0.04596410 0.26305830
v -0.07156764 0.04412017 0.27043784
v -0.07162362 0.04498447 0.26697809
v -0.07163969 0.04603636 0.26305822
v -0.07151570 0.04822327 0.26305425
v -0.07122102 0.05242319 0.26304266
v -0.07091210 0.04815769 0.28000206
v -0.07107309 0.04912075 0.27615434
v -0.07113496 0.04963037 0.27412209
v -0.07118098 0.05012162 0.27216747
v -0.07123390 0.05114697 0.26809606
v -0.07123643 0.05127072 0.26760536
v -0.07101662 0.04602171 0.28000689
v -0.07108472 0.04450029 0.28001046
v -0.07112260 0.04360553 0.28001177
v -0.07114954 0.04298074 0.27999040
v -0.07116928 0.04257814 0.27993375
v -0.07117602 0.04245436 0.27990511
v -0.07118994 0.04222166 0.27983057
v -0.07120129 0.04205404 0.27975526
v -0.07194292 0.03769798 0.26644999
v -0.07121793 0.04602559 0.27653289
v -0.07141540 0.04603165 0.27209896
v -0.07156219 0.04603345 0.26730990
v -0.07137895 0.04921554 0.26736885
v -0.07117919 0.04923601 0.27362669
f 24 15 16
f 16 52 24
f 16 8 52
f 17 8 16
f 17 10 8
f 18 10 17
f 18 9 10
f 14 9 18
f 13 9 14
f 13 11 9
f 12 11 13
f 8 27 52
f 52 27 28
f 52 28 26
f 26 19 52
f 52 19 20
f 52 20 21
f 22 52 21
f 52 22 23
f 26 28 29
f 26 29 25
f 8 31 27
f 8 30 31
f 7 30 8
f 7 5 30
f 30 5 53
f 5 6 53
f 53 6 4
f 53 4 1
f 1 2 53
f 53 2 3
f 53 3 51
f 51 50 53
f 53 50 49
f 53 49 48
f 48 47 53
f 53 47 46
f 53 46 45
f 45 44 53
f 44 38 53
f 53 38 39
f 53 39 54
f 53 54 33
f 33 54 55
f 33 55 34
f 34 55 35
f 55 36 35
f 55 56 36
f 36 56 37
f 37 56 43
f 56 42 43
f 56 41 42
f 57 41 56
f 57 40 41
f 39 40 57
f 54 57 56
f 34 35 32
f 54 56 55
f 39 57 54
f 30 53 33
f 24 52 23

