# https://github.com/mikedh/trimesh
v -0.06823995 0.02976414 0.26301059
v -0.07223829 0.02985762 0.26307777
v -0.07112739 0.01774490 0.28617293
v -0.06714993 0.01772591 0.28574935
v -0.06742080 0.01841646 0.28296906
v -0.07140531 0.01844769 0.28331968
v -0.06764964 0.01910841 0.28018600
v -0.07163989 0.01915135 0.28046343
v -0.06769300 0.01925519 0.27959597
v -0.07168374 0.01929861 0.27986586
v -0.06790414 0.02007281 0.27631196
v -0.07189693 0.02011588 0.27654830
v -0.06829307 0.02732226 0.26301041
v -0.07229165 0.02740296 0.26307958
v -0.07230945 0.02649557 0.26308021
v -0.06831080 0.02641925 0.26301035
v -0.07230955 0.02649116 0.26308021
v -0.06831090 0.02641347 0.26301038
v -0.07230981 0.02647704 0.26308024
v -0.06831125 0.02639490 0.26301041
v -0.07231089 0.02642053 0.26308048
v -0.06831266 0.02632066 0.26301065
v -0.07231509 0.02619460 0.26308322
v -0.06831817 0.02602374 0.26301530
v -0.06832556 0.02559507 0.26304159
v -0.07232343 0.02571892 0.26310772
v -0.07233001 0.02529233 0.26316807
v -0.06833170 0.02519101 0.26310247
v -0.07233340 0.02503466 0.26323032
v -0.06833466 0.02496519 0.26315784
v -0.07233483 0.02491176 0.26326835
v -0.06833611 0.02484068 0.26319626
v -0.07233824 0.02455261 0.26341510
v -0.06833957 0.02447524 0.26334551
v -0.07233909 0.02443227 0.26347724
v -0.07234054 0.02409300 0.26369178
v -0.06834153 0.02413278 0.26354113
v -0.07234068 0.02395156 0.26380104
v -0.06834197 0.02394357 0.26367679
v -0.07234041 0.02378505 0.26394761
v -0.06834142 0.02364331 0.26394236
v -0.07233962 0.02362874 0.26410612
v -0.06834006 0.02345311 0.26415130
v -0.07233866 0.02351576 0.26423609
v -0.06833927 0.02338183 0.26424050
v -0.07233687 0.02337357 0.26442304
v -0.06833733 0.02325248 0.26442206
v -0.07233234 0.02315864 0.26477474
v -0.06833416 0.02310913 0.26466209
v -0.06833245 0.02304997 0.26477686
v -0.07232913 0.02305758 0.26498115
v -0.06833089 0.02300372 0.26487431
v -0.07232081 0.02288270 0.26543730
v -0.06826241 0.02219426 0.26778764
v -0.07230773 0.02271085 0.26604936
v -0.06831218 0.02268362 0.26582614
v -0.06832245 0.02282440 0.26533857
v -0.06804118 0.02073395 0.27365535
v -0.07209268 0.02109101 0.27259874
v -0.06820232 0.02171778 0.26970199
v -0.07218661 0.02168116 0.27021110
v -0.07223836 0.02206772 0.26864806
f 4 3 5
f 5 3 6
f 5 6 7
f 7 6 8
f 7 8 9
f 9 8 10
f 9 10 11
f 11 10 12
f 11 12 58
f 58 12 59
f 58 59 60
f 60 59 61
f 60 61 54
f 54 61 62
f 54 62 55
f 54 55 56
f 56 55 53
f 56 53 57
f 57 53 52
f 51 52 53
f 51 50 52
f 48 50 51
f 48 49 50
f 47 49 48
f 46 47 48
f 46 45 47
f 44 45 46
f 44 43 45
f 42 43 44
f 42 41 43
f 40 41 42
f 40 39 41
f 38 39 40
f 38 37 39
f 36 37 38
f 36 34 37
f 35 34 36
f 33 34 35
f 33 32 34
f 31 32 33
f 31 30 32
f 29 30 31
f 29 28 30
f 27 28 29
f 27 25 28
f 26 25 27
f 23 25 26
f 23 24 25
f 22 24 23
f 21 22 23
f 21 20 22
f 19 20 21
f 19 18 20
f 17 18 19
f 17 16 18
f 15 16 17
f 15 13 16
f 14 13 15
f 2 13 14
f 1 13 2

