# https://github.com/mikedh/trimesh
v -0.06625727 0.05738826 0.27974394
v -0.06634519 0.05813098 0.27676284
v -0.06638162 0.05861365 0.27482265
v -0.06640491 0.05952261 0.27115944
v -0.06638758 0.06014948 0.26862800
v -0.06637585 0.06036390 0.26776224
v -0.06636430 0.06053841 0.26705793
v -0.06635658 0.06063516 0.26672411
v -0.06635362 0.06066808 0.26663443
v -0.06634337 0.06077295 0.26641297
v -0.06632509 0.06094430 0.26617342
v -0.06631084 0.06107173 0.26604497
v -0.06629287 0.06122780 0.26592636
v -0.06628390 0.06130431 0.26588002
v -0.06626348 0.06147559 0.26579738
v -0.06624328 0.06164193 0.26574281
v -0.06622905 0.06175732 0.26571801
v -0.06620750 0.06192994 0.26569617
v -0.06616440 0.06226900 0.26568562
v -0.06577986 0.06504793 0.26568335
v -0.06561171 0.06614608 0.26568267
v -0.06554709 0.06655122 0.26570040
v -0.06549519 0.06686869 0.26578748
v -0.06550938 0.06678265 0.26575240
v -0.06552499 0.06668730 0.26572475
v -0.06546685 0.06703858 0.26589894
v -0.06546254 0.06706418 0.26592287
v -0.06544191 0.06718491 0.26608297
v -0.06543880 0.06720273 0.26611814
v -0.06542704 0.06726795 0.26633692
v -0.06542448 0.06727615 0.26659459
v -0.06542610 0.06726287 0.26671255
v -0.06543688 0.06718543 0.26707941
v -0.06543960 0.06716605 0.26715812
v -0.06552574 0.06642718 0.27015379
v -0.06545752 0.06703393 0.26769426
v -0.06552141 0.06404741 0.27973181
v -0.06556836 0.06470778 0.27708110
v -0.06558052 0.06519220 0.27513570
v -0.06557679 0.06556435 0.27363834
v -0.06674698 0.05104245 0.27975118
v -0.06450723 0.07034151 0.27970973
v -0.06451596 0.07111976 0.27658620
v -0.06450064 0.07146025 0.27521530
v -0.06446465 0.07188796 0.27348694
v -0.06441452 0.07228795 0.27186379
v -0.06425980 0.07313968 0.26838842
v -0.06415220 0.07360455 0.26648664
v -0.06412258 0.07372305 0.26596704
v -0.06410070 0.07380731 0.26549602
v -0.06409068 0.07384226 0.26509038
v -0.06409023 0.07384175 0.26494375
v -0.06409334 0.07382534 0.26472154
v -0.06410615 0.07376762 0.26441476
v -0.06413108 0.07365981 0.26410800
v -0.06415150 0.07357256 0.26393965
v -0.06416798 0.07350229 0.26382995
v -0.06417350 0.07347877 0.26379693
v -0.06422285 0.07326826 0.26355872
v -0.06427505 0.07304437 0.26338166
v -0.06431139 0.07288751 0.26328748
v -0.06434400 0.07274573 0.26321849
v -0.06439384 0.07252747 0.26313764
v -0.06442663 0.07238264 0.26309887
v -0.06448344 0.07212932 0.26305279
v -0.06455778 0.07179266 0.26301703
v -0.06472157 0.07102779 0.26299450
v -0.06645922 0.05996436 0.26300555
v -0.06614494 0.06250861 0.26300231
v -0.06607239 0.06305315 0.26300162
v -0.06564326 0.06597665 0.26299888
v -0.06550679 0.06681842 0.26299831
v -0.06520073 0.06857790 0.26299697
v -0.06660524 0.05867770 0.26300681
v -0.06666080 0.05816920 0.26301467
v -0.06671213 0.05768883 0.26304790
v -0.06675969 0.05723261 0.26312131
v -0.06678638 0.05697125 0.26318845
v -0.06680387 0.05679752 0.26324514
v -0.06681471 0.05668876 0.26328591
v -0.06685463 0.05627996 0.26348078
v -0.06689069 0.05589660 0.26373023
v -0.06691021 0.05568176 0.26390415
v -0.06693890 0.05535188 0.26423377
v -0.06696190 0.05506876 0.26459932
v -0.06697223 0.05493197 0.26481771
v -0.06698681 0.05471696 0.26524988
v -0.06699755 0.05451384 0.26581502
v -0.06700051 0.05443628 0.26608551
v -0.06700267 0.05436070 0.26637709
v -0.06700654 0.05380082 0.26864105
v -0.06699702 0.05338080 0.27033737
v -0.06694026 0.05247753 0.27397770
v -0.06682543 0.05151670 0.27784252
v -0.06689595 0.05204798 0.27570581
v -0.06505825 0.06720556 0.27972153
v -0.06652232 0.05675812 0.27568030
v -0.06667677 0.05674398 0.27143186
v -0.06677278 0.05671234 0.26717687
v -0.06453433 0.07123041 0.27557683
v -0.06464746 0.07122897 0.27134189
v -0.06469357 0.07118949 0.26708907
v -0.06524096 0.06833170 0.26710865
v -0.06551902 0.06549001 0.27562472
v -0.06506557 0.06837119 0.27560171
v -0.06518586 0.06836800 0.27136302
f 3 97 98
f 98 4 3
f 98 5 4
f 99 5 98
f 98 91 99
f 98 92 91
f 98 93 92
f 99 91 90
f 99 90 89
f 99 89 88
f 88 87 99
f 99 87 86
f 99 86 85
f 85 84 99
f 99 84 83
f 99 83 82
f 81 99 82
f 80 99 81
f 80 8 99
f 9 8 80
f 9 80 10
f 10 80 79
f 10 79 78
f 10 78 11
f 11 78 77
f 11 77 76
f 75 11 76
f 75 12 11
f 74 12 75
f 74 13 12
f 14 13 74
f 68 14 74
f 68 15 14
f 16 15 68
f 68 17 16
f 68 18 17
f 69 18 68
f 69 19 18
f 70 19 69
f 70 20 19
f 71 20 70
f 71 21 20
f 22 21 71
f 72 22 71
f 72 25 22
f 24 25 72
f 73 24 72
f 73 23 24
f 26 23 73
f 73 27 26
f 73 28 27
f 29 28 73
f 73 30 29
f 103 30 73
f 103 73 67
f 102 103 67
f 102 67 66
f 66 65 102
f 102 65 64
f 102 64 63
f 63 62 102
f 102 62 61
f 102 61 60
f 60 59 102
f 102 59 58
f 102 58 57
f 57 56 102
f 102 56 55
f 102 55 54
f 54 53 102
f 102 53 52
f 102 52 51
f 51 50 102
f 102 50 49
f 102 49 48
f 47 102 48
f 47 101 102
f 46 101 47
f 45 101 46
f 45 100 101
f 100 106 101
f 100 105 106
f 105 40 106
f 106 40 35
f 106 35 103
f 103 35 36
f 103 36 34
f 34 33 103
f 103 33 32
f 32 31 103
f 105 104 40
f 96 104 105
f 43 96 105
f 42 96 43
f 96 38 104
f 37 38 96
f 39 104 38
f 40 104 39
f 43 105 100
f 44 43 100
f 101 106 103
f 44 100 45
f 101 103 102
f 103 31 30
f 8 7 99
f 7 6 99
f 99 6 5
f 97 93 98
f 97 95 93
f 94 95 97
f 1 94 97
f 41 94 1
f 1 97 2
f 2 97 3

