# https://github.com/mikedh/trimesh
v -0.06874283 -0.07104216 0.26601699
v -0.06482177 -0.07025184 0.26601461
v -0.06888859 -0.07028387 0.26298288
v -0.06496319 -0.06951538 0.26299599
v -0.07069570 -0.05389035 0.27691293
v -0.07069532 -0.05389179 0.27691871
v -0.06671167 -0.05358622 0.27672577
v -0.06762727 -0.07450835 0.27993685
v -0.06374399 -0.07357991 0.27969646
v -0.06785788 -0.07351447 0.27993950
v -0.06423645 -0.07137424 0.27970475
v -0.06833117 -0.07127396 0.27994469
v -0.06448360 -0.07014442 0.27970946
v -0.06866305 -0.06951244 0.27994826
v -0.06469125 -0.06903694 0.27971357
v -0.06908949 -0.06696150 0.27995282
v -0.06510987 -0.06656126 0.27972245
v -0.06931054 -0.06548230 0.27995560
v -0.06525240 -0.06563143 0.27972561
v -0.06967598 -0.06272007 0.27996218
v -0.06562641 -0.06292344 0.27973345
v -0.06981506 -0.06153689 0.27996570
v -0.06579528 -0.06153614 0.27973640
v -0.07009130 -0.05893082 0.27997351
v -0.06594745 -0.06018103 0.27973893
v -0.07016810 -0.05813796 0.27997565
v -0.06622251 -0.05744446 0.27974361
v -0.07023060 -0.05746902 0.27997571
v -0.06627160 -0.05691532 0.27973855
v -0.07028375 -0.05689827 0.27994999
v -0.06631669 -0.05643488 0.27970511
v -0.07029534 -0.05677618 0.27993715
v -0.06632525 -0.05634562 0.27969357
v -0.07033661 -0.05635516 0.27986237
v -0.06634984 -0.05609478 0.27964902
v -0.07036466 -0.05608333 0.27978265
v -0.06639154 -0.05569033 0.27953136
v -0.07037836 -0.05595497 0.27973503
v -0.06643363 -0.05530951 0.27935937
v -0.07039987 -0.05575923 0.27964899
v -0.07044307 -0.05538765 0.27943552
v -0.06645187 -0.05515287 0.27926853
v -0.06649456 -0.05480654 0.27901810
v -0.07048526 -0.05505164 0.27917585
v -0.07050575 -0.05489890 0.27903038
v -0.06653553 -0.05450205 0.27872586
v -0.07054660 -0.05461694 0.27869871
v -0.06655151 -0.05439137 0.27859667
v -0.07058504 -0.05438183 0.27833116
v -0.06659119 -0.05413822 0.27823651
v -0.07059918 -0.05430396 0.27818003
v -0.06662127 -0.05397002 0.27792001
v -0.06662820 -0.05393449 0.27784115
v -0.07063671 -0.05412144 0.27773377
v -0.06663991 -0.05387715 0.27770263
v -0.07065623 -0.05403913 0.27747649
v -0.06668327 -0.05369175 0.27713549
v -0.07068236 -0.05393890 0.27710870
v -0.06677803 -0.05333797 0.27572057
v -0.07070357 -0.05386171 0.27679643
v -0.07069729 -0.05388463 0.27688962
v -0.06697001 -0.05253244 0.27246416
v -0.07082301 -0.05340318 0.27493277
v -0.07072840 -0.05377001 0.27642378
v -0.07122944 -0.05134506 0.26656842
v -0.06724077 -0.05105311 0.26649621
v -0.07122991 -0.05134190 0.26655605
v -0.07123177 -0.05132945 0.26650643
v -0.07122934 -0.05134586 0.26657155
v -0.06721441 -0.05122406 0.26718572
v -0.06714385 -0.05164707 0.26889166
v -0.07113288 -0.05193538 0.26896471
v -0.07106231 -0.05231667 0.27051413
v -0.07123898 -0.05128209 0.26630726
v -0.06725901 -0.05093417 0.26598197
v -0.07125906 -0.05115838 0.26568583
v -0.06727331 -0.05084903 0.26551521
v -0.07126410 -0.05113161 0.26550174
v -0.06728289 -0.05081246 0.26508749
v -0.07127225 -0.05110515 0.26511371
v -0.06728408 -0.05081225 0.26501191
v -0.07127591 -0.05113164 0.26473856
v -0.06728701 -0.05083234 0.26471743
v -0.07127607 -0.05114201 0.26467490
v -0.06728686 -0.05089230 0.26441377
v -0.07127555 -0.05118556 0.26448065
v -0.07127433 -0.05122555 0.26435113
v -0.06728265 -0.05100197 0.26411113
v -0.07126869 -0.05134863 0.26407230
v -0.06727955 -0.05106307 0.26399204
v -0.07125814 -0.05152977 0.26380324
v -0.06727393 -0.05116177 0.26383734
v -0.06727219 -0.05119062 0.26379827
v -0.07124747 -0.05169392 0.26362741
v -0.06725814 -0.05140758 0.26356158
v -0.07124353 -0.05175171 0.26357582
v -0.06724248 -0.05163036 0.26339075
v -0.07122421 -0.05202264 0.26338467
v -0.06723095 -0.05178706 0.26329985
v -0.07120659 -0.05225671 0.26326865
v -0.06721992 -0.05193258 0.26323166
v -0.07117733 -0.05262846 0.26314884
v -0.06720230 -0.05215869 0.26315081
v -0.07114214 -0.05305619 0.26307863
v -0.06717074 -0.05254836 0.26306605
v -0.07113785 -0.05310742 0.26307347
v -0.06714096 -0.05290330 0.26302904
v -0.07112622 -0.05324472 0.26306203
v -0.06712627 -0.05307478 0.26301917
v -0.07107709 -0.05381165 0.26303762
v -0.06707424 -0.05366782 0.26300722
v -0.07105827 -0.05402366 0.26303616
v -0.07105742 -0.05403314 0.26303613
v -0.07105807 -0.05402593 0.26303616
v -0.06699529 -0.05453191 0.26300755
v -0.07104450 -0.05417723 0.26303563
v -0.07105485 -0.05406196 0.26303604
v -0.07048222 -0.05967603 0.26301822
v -0.07078561 -0.05687166 0.26302651
v -0.06680563 -0.05647234 0.26300779
v -0.07082508 -0.05648161 0.26302776
v -0.07100251 -0.05463827 0.26303405
v -0.06664614 -0.05798516 0.26300725
v -0.06634057 -0.06064091 0.26300445
v -0.07011126 -0.06270698 0.26301041
v -0.06613332 -0.06227750 0.26300210
v -0.06995815 -0.06383915 0.26300710
v -0.06600546 -0.06322090 0.26300102
v -0.06563058 -0.06573702 0.26299894
v -0.06521447 -0.06818299 0.26299721
v -0.06915086 -0.06889368 0.26298836
v -0.06957587 -0.06639905 0.26299810
f 1 3 2
f 2 3 4
f 4 3 130
f 130 3 131
f 130 131 129
f 129 131 132
f 129 132 127
f 127 128 129
f 127 126 128
f 125 126 127
f 125 124 126
f 118 124 125
f 118 123 124
f 120 123 118
f 118 119 120
f 120 119 121
f 120 121 115
f 115 121 122
f 115 122 116
f 115 116 111
f 111 116 117
f 111 117 113
f 113 114 111
f 111 114 112
f 110 111 112
f 110 109 111
f 108 109 110
f 108 107 109
f 106 107 108
f 106 105 107
f 104 105 106
f 104 103 105
f 102 103 104
f 102 101 103
f 100 101 102
f 100 99 101
f 98 99 100
f 98 97 99
f 96 97 98
f 96 95 97
f 94 95 96
f 94 93 95
f 91 93 94
f 91 92 93
f 90 92 91
f 89 90 91
f 89 88 90
f 87 88 89
f 87 85 88
f 86 85 87
f 84 85 86
f 84 83 85
f 82 83 84
f 82 81 83
f 80 81 82
f 80 79 81
f 78 79 80
f 78 77 79
f 76 77 78
f 76 75 77
f 74 75 76
f 74 66 75
f 68 66 74
f 67 66 68
f 65 66 67
f 65 69 66
f 66 69 70
f 70 69 71
f 71 69 72
f 71 72 62
f 62 72 73
f 62 73 63
f 62 63 59
f 59 63 64
f 59 64 60
f 59 60 7
f 7 60 61
f 7 61 5
f 5 6 7
f 58 7 6
f 58 57 7
f 56 57 58
f 56 55 57
f 54 55 56
f 54 53 55
f 51 53 54
f 51 52 53
f 50 52 51
f 49 50 51
f 49 48 50
f 47 48 49
f 47 46 48
f 45 46 47
f 45 43 46
f 44 43 45
f 41 43 44
f 41 42 43
f 39 42 41
f 40 39 41
f 38 39 40
f 38 37 39
f 36 37 38
f 36 35 37
f 34 35 36
f 34 33 35
f 32 33 34
f 32 31 33
f 30 31 32
f 30 29 31
f 28 29 30
f 28 27 29
f 26 27 28
f 26 25 27
f 24 25 26
f 24 23 25
f 22 23 24
f 22 21 23
f 20 21 22
f 20 19 21
f 18 19 20
f 18 17 19
f 16 17 18
f 16 15 17
f 14 15 16
f 14 13 15
f 12 13 14
f 12 11 13
f 10 11 12
f 10 9 11
f 8 9 10

