# https://github.com/mikedh/trimesh
v -0.07163818 -0.02799747 0.27881154
v -0.07160816 -0.02775443 0.27932036
v -0.07159693 -0.02757082 0.27952924
v -0.07158854 -0.02734680 0.27970415
v -0.07158120 -0.02683500 0.27992722
v -0.07158358 -0.02630383 0.28001186
v -0.07159857 -0.02517892 0.28003782
v -0.07161978 -0.02362374 0.28003880
v -0.07163359 -0.02250684 0.28003991
v -0.07167888 -0.01804028 0.28004298
v -0.07173223 -0.00911093 0.28004616
v -0.07164996 -0.02804182 0.27862126
v -0.07173412 -0.02794731 0.27731851
v -0.07178332 -0.02776099 0.27654546
v -0.07171828 -0.02799711 0.27756181
v -0.07169999 -0.02804211 0.27784210
v -0.07165245 -0.02804927 0.27858126
v -0.07167141 -0.02807305 0.27828267
v -0.07169255 -0.02805559 0.27795643
v -0.07204692 -0.02635831 0.27178141
v -0.07202964 -0.02654899 0.27210346
v -0.07201883 -0.02664498 0.27231058
v -0.07200697 -0.02673531 0.27254036
v -0.07199573 -0.02680958 0.27275896
v -0.07197711 -0.02691481 0.27312100
v -0.07195763 -0.02701030 0.27349612
v -0.07189510 -0.02729428 0.27464962
v -0.07217417 -0.02182988 0.27037343
v -0.07215673 -0.02308885 0.27037290
v -0.07215523 -0.02319173 0.27037284
v -0.07214735 -0.02370096 0.27038145
v -0.07213592 -0.02429742 0.27043980
v -0.07212034 -0.02488855 0.27059722
v -0.07209945 -0.02545715 0.27088690
v -0.07207469 -0.02595306 0.27128822
v -0.07231306 -0.02602703 0.26303631
v -0.07241951 -0.01899589 0.26303947
v -0.07213422 -0.01382325 0.27310100
v -0.07236321 -0.01733116 0.26627445
v -0.07227366 -0.01566810 0.26950920
v -0.07213243 -0.01382641 0.27313745
v -0.07188090 -0.02121446 0.27654740
v -0.07189658 -0.02121723 0.27627528
v -0.07191683 -0.02115468 0.27593386
v -0.07200222 -0.02078632 0.27444124
v -0.07201970 -0.02068937 0.27412331
v -0.07203373 -0.02057377 0.27387261
v -0.07204719 -0.02041042 0.27364048
v -0.07205612 -0.02026237 0.27349371
v -0.07206047 -0.02017597 0.27342510
v -0.07206994 -0.01994506 0.27328423
v -0.07207777 -0.01966456 0.27318701
v -0.07208297 -0.01937280 0.27314550
v -0.07208668 -0.01906398 0.27313709
v -0.07208991 -0.01875658 0.27313712
v -0.07187406 -0.02119047 0.27666897
v -0.07185916 -0.02104253 0.27694416
v -0.07185229 -0.02087883 0.27708691
v -0.07189930 -0.01481331 0.27723429
v -0.07186957 -0.01836870 0.27723375
v -0.07185221 -0.02007261 0.27723333
v -0.07185135 -0.02015520 0.27723280
v -0.07184877 -0.02052823 0.27720797
v -0.07184935 -0.02070764 0.27716616
v -0.07194304 -0.01464505 0.27654833
v -0.07248601 -0.01132513 0.26308474
v -0.07236623 -0.01242170 0.26752993
v -0.07234602 -0.01256762 0.26812145
v -0.07228231 -0.01298595 0.26981783
v -0.07217183 -0.01360679 0.27233574
v -0.07251336 -0.00493503 0.26308471
v -0.07197803 -0.00825313 0.27654865
v -0.07219043 -0.00728784 0.27263093
v -0.07235551 -0.00632188 0.26871106
v -0.07248726 -0.00523112 0.26428562
v -0.07186265 -0.00868229 0.27829796
v -0.07220693 -0.02084095 0.26985249
v -0.07231825 -0.02084530 0.26644439
f 47 77 46
f 47 48 77
f 77 48 49
f 77 49 50
f 50 51 77
f 77 51 52
f 77 52 53
f 54 77 53
f 55 77 54
f 55 38 77
f 38 40 77
f 77 40 39
f 77 39 78
f 28 77 78
f 28 78 36
f 78 37 36
f 45 77 28
f 45 28 44
f 44 28 29
f 29 30 44
f 44 30 31
f 44 31 32
f 32 33 44
f 44 33 34
f 44 34 35
f 35 20 44
f 44 20 21
f 44 21 22
f 22 23 44
f 44 23 24
f 44 24 25
f 25 26 44
f 44 26 27
f 44 27 43
f 43 27 14
f 43 14 42
f 42 14 56
f 56 14 13
f 13 15 56
f 56 15 16
f 56 16 19
f 19 18 56
f 56 18 17
f 56 17 12
f 12 1 56
f 1 2 56
f 56 2 3
f 56 3 4
f 4 5 56
f 56 5 6
f 56 6 57
f 57 6 7
f 57 7 8
f 8 58 57
f 9 58 8
f 9 64 58
f 63 64 9
f 9 62 63
f 9 61 62
f 10 61 9
f 10 60 61
f 59 60 10
f 11 59 10
f 11 65 59
f 76 65 11
f 76 72 65
f 72 70 65
f 73 70 72
f 73 69 70
f 74 69 73
f 74 68 69
f 67 68 74
f 75 67 74
f 75 66 67
f 71 66 75
f 78 39 37
f 41 38 55
f 46 77 45

