# https://github.com/mikedh/trimesh
v 0.06506934 0.04775209 0.27825603
v 0.06505421 0.04776482 0.27830604
v 0.06905260 0.04835538 0.27936491
v 0.06949520 0.04798835 0.27787569
v 0.06988781 0.04765422 0.27652046
v 0.06587553 0.04705722 0.27551931
v 0.06548933 0.04739426 0.27684748
v 0.06906799 0.04834279 0.27931383
v 0.06821670 0.03417524 0.27237865
v 0.07225652 0.03455582 0.27337471
v 0.07132470 0.03604300 0.27647591
v 0.06730608 0.03562051 0.27541274
v 0.06726090 0.03593090 0.27546835
v 0.06734172 0.03543949 0.27534416
v 0.07136570 0.03583091 0.27639851
v 0.06740179 0.03520478 0.27520153
v 0.07142668 0.03559288 0.27625358
v 0.06748777 0.03496094 0.27496162
v 0.07151409 0.03534589 0.27600935
v 0.06748858 0.03495901 0.27495921
v 0.07151491 0.03534397 0.27600691
v 0.06749184 0.03495137 0.27494946
v 0.07151818 0.03533637 0.27599713
v 0.06750499 0.03492178 0.27490979
v 0.07153133 0.03530690 0.27595741
v 0.06755875 0.03481879 0.27474046
v 0.07158511 0.03520423 0.27578792
v 0.06765346 0.03469298 0.27441999
v 0.07168041 0.03507791 0.27546537
v 0.06771991 0.03462928 0.27418473
v 0.07175049 0.03501144 0.27521700
v 0.06781743 0.03454136 0.27383515
v 0.07124937 0.03664884 0.27653378
v 0.07125098 0.03663288 0.27653378
v 0.06722622 0.03624954 0.27547929
v 0.07125747 0.03656904 0.27653340
v 0.07128578 0.03631404 0.27652234
v 0.07122117 0.03692855 0.27653354
v 0.07124887 0.03665383 0.27653378
v 0.06719872 0.03651978 0.27548000
v 0.06712462 0.03723347 0.27548191
v 0.07114652 0.03765414 0.27653295
v 0.06703170 0.03810054 0.27548441
v 0.07105291 0.03853586 0.27653208
v 0.06691825 0.03912043 0.27548757
v 0.07093862 0.03957319 0.27653104
v 0.06660181 0.04177332 0.27549669
v 0.07061980 0.04227258 0.27652800
v 0.07184985 0.03492325 0.27486032
f 1 2 3
f 8 1 3
f 4 1 8
f 4 7 1
f 6 7 4
f 4 5 6
f 48 6 5
f 48 47 6
f 46 47 48
f 46 45 47
f 44 45 46
f 44 43 45
f 42 43 44
f 42 41 43
f 38 41 42
f 38 40 41
f 35 40 38
f 38 39 35
f 35 39 33
f 33 34 35
f 35 34 36
f 35 36 13
f 13 36 37
f 13 37 11
f 11 12 13
f 12 11 14
f 14 11 15
f 14 15 16
f 16 15 17
f 16 17 18
f 18 17 19
f 18 19 20
f 20 19 21
f 20 21 22
f 22 21 23
f 22 23 24
f 24 23 25
f 24 25 26
f 26 25 27
f 26 27 28
f 28 27 29
f 28 29 30
f 30 29 31
f 30 31 32
f 31 49 32
f 32 49 10
f 32 10 9

