# https://github.com/mikedh/trimesh
v -0.07163818 -0.02799747 0.27881154
v -0.06764761 -0.02792607 0.27854642
v -0.07160816 -0.02775443 0.27932036
v -0.06761811 -0.02768485 0.27904707
v -0.07159693 -0.02757082 0.27952924
v -0.06760710 -0.02750240 0.27925247
v -0.07158854 -0.02734680 0.27970415
v -0.06759890 -0.02727968 0.27942428
v -0.07158120 -0.02683500 0.27992722
v -0.06759184 -0.02677048 0.27964294
v -0.07158358 -0.02630383 0.28001186
v -0.06759435 -0.02624170 0.27972528
v -0.07159857 -0.02517892 0.28003782
v -0.06760941 -0.02512140 0.27974918
v -0.07161978 -0.02362374 0.28003880
v -0.06763074 -0.02357209 0.27974734
v -0.07163359 -0.02250684 0.28003991
v -0.06764466 -0.02245915 0.27974638
v -0.07167888 -0.01804028 0.28004298
v -0.06769034 -0.01800612 0.27974230
v -0.07173223 -0.00911093 0.28004616
v -0.06774441 -0.00909576 0.27973455
v -0.07164996 -0.02804182 0.27862126
v -0.06765920 -0.02796993 0.27835909
v -0.07173412 -0.02794731 0.27731851
v -0.07178332 -0.02776099 0.27654546
v -0.06779069 -0.02768809 0.27631405
v -0.06776612 -0.02778698 0.27670464
v -0.06775352 -0.02783490 0.27690029
v -0.07171828 -0.02799711 0.27756181
v -0.06771806 -0.02794707 0.27744541
v -0.07169999 -0.02804211 0.27784210
v -0.06770187 -0.02798129 0.27769354
v -0.06766222 -0.02797884 0.27831060
v -0.07165245 -0.02804927 0.27858126
v -0.06768098 -0.02800045 0.27801573
v -0.07167141 -0.02807305 0.27828267
v -0.07169255 -0.02805559 0.27795643
v -0.07204692 -0.02635831 0.27178141
v -0.06805117 -0.02628804 0.27161083
v -0.07202964 -0.02654899 0.27210346
v -0.06803374 -0.02648160 0.27193543
v -0.07201883 -0.02664498 0.27231058
v -0.06802338 -0.02657402 0.27213356
v -0.07200697 -0.02673531 0.27254036
v -0.06801174 -0.02666325 0.27235883
v -0.07199573 -0.02680958 0.27275896
v -0.06798148 -0.02684716 0.27294615
v -0.07197711 -0.02691481 0.27312100
v -0.07195763 -0.02701030 0.27349612
v -0.06794971 -0.02700160 0.27355295
v -0.07189510 -0.02729428 0.27464962
v -0.06787317 -0.02734441 0.27493376
v -0.07217417 -0.02182988 0.27037343
v -0.06817758 -0.02177677 0.27021691
v -0.07215673 -0.02308885 0.27037290
v -0.06816018 -0.02303103 0.27021718
v -0.07215523 -0.02319173 0.27037284
v -0.06815868 -0.02313352 0.27021721
v -0.07214735 -0.02370096 0.27038145
v -0.06815083 -0.02364076 0.27022603
v -0.07213592 -0.02429742 0.27043980
v -0.06813945 -0.02423487 0.27028409
v -0.07212034 -0.02488855 0.27059722
v -0.06812396 -0.02482367 0.27043998
v -0.07209945 -0.02545715 0.27088690
v -0.06810323 -0.02539012 0.27072653
v -0.07207469 -0.02595306 0.27128822
v -0.06807867 -0.02588410 0.27112347
v -0.07251336 -0.00493503 0.26308471
v -0.06851412 -0.00492484 0.26300701
v -0.07197803 -0.00825313 0.27654865
v -0.06798524 -0.00823785 0.27630901
v -0.07219043 -0.00728784 0.27263093
v -0.06819537 -0.00727183 0.27243260
v -0.07235551 -0.00632188 0.26871106
v -0.06831664 -0.00658173 0.26966229
v -0.06848925 -0.00521029 0.26415393
v -0.07248726 -0.00523112 0.26428562
v -0.06835860 -0.00630570 0.26855397
v -0.07186265 -0.00868229 0.27829796
f 1 2 3
f 1 24 2
f 23 24 1
f 24 23 34
f 34 23 35
f 34 35 36
f 36 35 37
f 36 37 33
f 33 37 38
f 33 38 32
f 32 31 33
f 30 31 32
f 30 29 31
f 25 29 30
f 25 28 29
f 27 28 25
f 25 26 27
f 52 27 26
f 52 53 27
f 51 53 52
f 50 51 52
f 50 48 51
f 49 48 50
f 47 48 49
f 47 46 48
f 45 46 47
f 45 44 46
f 43 44 45
f 43 42 44
f 41 42 43
f 41 40 42
f 39 40 41
f 39 69 40
f 68 69 39
f 68 67 69
f 66 67 68
f 66 65 67
f 64 65 66
f 64 63 65
f 62 63 64
f 62 61 63
f 60 61 62
f 60 59 61
f 58 59 60
f 58 57 59
f 56 57 58
f 56 55 57
f 54 55 56
f 3 2 4
f 3 4 5
f 5 4 6
f 5 6 7
f 7 6 8
f 7 8 9
f 9 8 10
f 9 10 11
f 11 10 12
f 11 12 13
f 13 12 14
f 13 14 15
f 15 14 16
f 15 16 17
f 17 16 18
f 17 18 19
f 19 18 20
f 19 20 21
f 21 20 22
f 21 22 81
f 81 22 73
f 81 73 72
f 72 73 74
f 74 73 75
f 74 75 76
f 76 75 77
f 80 76 77
f 80 79 76
f 78 79 80
f 78 70 79
f 71 70 78

