# https://github.com/mikedh/trimesh
v -0.06713815 -0.04957119 0.27338931
v -0.07112712 -0.04982103 0.27354956
v -0.07128309 -0.04907078 0.27050102
v -0.06729267 -0.04882438 0.27037513
v -0.06739024 -0.04716609 0.27037585
v -0.07138178 -0.04739166 0.27050495
v -0.06747907 -0.04550735 0.27037668
v -0.07147167 -0.04571212 0.27050838
v -0.06794940 -0.03529743 0.26857093
v -0.07197767 -0.03520922 0.26783684
v -0.06798119 -0.03508634 0.26772258
v -0.07203559 -0.03478614 0.26612064
v -0.06803858 -0.03466407 0.26602542
v -0.06793321 -0.03539986 0.26898271
v -0.07192922 -0.03552333 0.26911154
v -0.07194558 -0.03542069 0.26869497
v -0.07192893 -0.03552509 0.26911882
v -0.07188476 -0.03594730 0.27004313
v -0.07189637 -0.03579748 0.26984328
v -0.06790473 -0.03562699 0.26962870
v -0.07190952 -0.03566337 0.26957846
v -0.06791385 -0.03553952 0.26943976
v -0.07190971 -0.03566182 0.26957455
v -0.06791898 -0.03549734 0.26932502
v -0.07192449 -0.03555293 0.26922956
v -0.07192805 -0.03553057 0.26914102
v -0.06789201 -0.03578058 0.26985881
v -0.06788299 -0.03591342 0.26999775
v -0.07187159 -0.03615475 0.27023223
v -0.06786969 -0.03614462 0.27016717
v -0.07185987 -0.03637404 0.27036545
v -0.06786156 -0.03630636 0.27025011
v -0.07184783 -0.03663880 0.27046388
v -0.06784959 -0.03658137 0.27033657
v -0.07184046 -0.03682540 0.27050003
v -0.06784215 -0.03677667 0.27036583
v -0.07182690 -0.03721154 0.27052248
v -0.06756049 -0.04385395 0.27037746
v -0.07156526 -0.04379845 0.27051198
v -0.06776959 -0.03885246 0.27037928
v -0.07177284 -0.03876773 0.27052045
v -0.06782654 -0.03723163 0.27037933
v -0.06783709 -0.03691942 0.27037573
f 3 4 2
f 4 3 5
f 5 3 6
f 5 6 7
f 7 6 8
f 7 8 38
f 38 8 39
f 38 39 40
f 40 39 41
f 40 41 42
f 42 41 37
f 42 37 43
f 43 37 36
f 35 36 37
f 35 34 36
f 33 34 35
f 33 32 34
f 31 32 33
f 31 30 32
f 29 30 31
f 29 28 30
f 18 28 29
f 18 27 28
f 20 27 18
f 18 19 20
f 20 19 21
f 20 21 22
f 22 21 23
f 22 23 24
f 24 23 25
f 24 25 14
f 14 25 26
f 14 26 17
f 17 15 14
f 14 15 9
f 9 15 16
f 9 16 10
f 9 10 11
f 11 10 12
f 11 12 13
f 2 4 1

