# https://github.com/mikedh/trimesh
v 0.07263207 -0.01277793 0.25716230
v 0.07674325 -0.01286206 0.25790289
v 0.07273608 -0.00828538 0.27638003
v 0.06869709 -0.00823624 0.27531171
v 0.07365805 -0.00919021 0.27272362
v 0.06961060 -0.00914661 0.27168673
v 0.07416791 -0.00972125 0.27057841
v 0.07010169 -0.00966511 0.26961935
v 0.07452597 -0.01010895 0.26901278
v 0.07047024 -0.01006932 0.26800615
v 0.07466334 -0.01026118 0.26839808
v 0.07060228 -0.01021752 0.26741436
v 0.07547335 -0.01120228 0.26459906
v 0.07140441 -0.01116056 0.26364467
v 0.07576241 -0.01155818 0.26316276
v 0.07167446 -0.01149634 0.26230067
v 0.07649904 -0.01252193 0.25927472
v 0.07240453 -0.01245910 0.25844184
f 3 4 5
f 5 4 6
f 5 6 7
f 7 6 8
f 7 8 9
f 9 8 10
f 9 10 11
f 11 10 12
f 11 12 13
f 13 12 14
f 13 14 15
f 15 14 16
f 15 16 17
f 16 18 17
f 17 18 1
f 17 1 2

