# https://github.com/mikedh/trimesh
v -0.07101661 -0.04570300 0.28000697
v -0.06702899 -0.04551748 0.27975294
v -0.06706864 -0.04464711 0.27975312
v -0.06710675 -0.04377667 0.27975333
v -0.06714328 -0.04290614 0.27975360
v -0.07123403 -0.04039574 0.28001747
v -0.06717826 -0.04203556 0.27975380
v -0.06721175 -0.04116491 0.27975395
v -0.06722794 -0.04072956 0.27975398
v -0.06724378 -0.04029421 0.27975404
v -0.06725927 -0.03985883 0.27975407
v -0.07129395 -0.03864325 0.28002039
v -0.06731777 -0.03811724 0.27975407
v -0.07130165 -0.03840563 0.28002080
v -0.07130925 -0.03816799 0.28002116
v -0.07131677 -0.03793038 0.28002152
v -0.06734516 -0.03724173 0.27975401
v -0.07134584 -0.03697980 0.28002304
v -0.06737322 -0.03629855 0.27975395
v -0.07136378 -0.03636742 0.28002390
v -0.06739734 -0.03544623 0.27975389
v -0.07137997 -0.03579614 0.28002477
v -0.07139456 -0.03526497 0.28002551
v -0.06739781 -0.03542951 0.27975386
v -0.07140774 -0.03477187 0.28002602
v -0.06741797 -0.03468124 0.27975425
v -0.06742204 -0.03453109 0.27975267
v -0.07142031 -0.03431232 0.28001708
v -0.06743865 -0.03395445 0.27972689
v -0.07143375 -0.03388006 0.27998129
v -0.06744162 -0.03386194 0.27971762
v -0.07144914 -0.03347037 0.27990472
v -0.06745660 -0.03344781 0.27964967
v -0.07146242 -0.03317717 0.27981481
v -0.06747419 -0.03305403 0.27953243
v -0.07147946 -0.03285817 0.27967629
v -0.06749038 -0.03275321 0.27940002
v -0.07148290 -0.03280009 0.27964595
v -0.06751315 -0.03239647 0.27918684
v -0.07150608 -0.03244741 0.27942467
v -0.07151784 -0.03229073 0.27930304
v -0.06752015 -0.03229890 0.27911618
v -0.07154431 -0.03198243 0.27900997
v -0.06754576 -0.03198157 0.27884096
v -0.06755179 -0.03191478 0.27877253
v -0.07155735 -0.03185052 0.27885655
v -0.06756685 -0.03176010 0.27859634
v -0.07157192 -0.03171710 0.27867854
v -0.06757917 -0.03164554 0.27844650
v -0.06758527 -0.03159264 0.27837047
v -0.07158350 -0.03162099 0.27853233
v -0.06761395 -0.03137586 0.27799740
v -0.07169934 -0.03101430 0.27686393
v -0.07169286 -0.03103916 0.27696508
v -0.06770076 -0.03095064 0.27673003
v -0.07167404 -0.03111208 0.27725476
v -0.06765509 -0.03114239 0.27741951
v -0.07164976 -0.03121591 0.27761826
v -0.06761952 -0.03133938 0.27792194
v -0.07161524 -0.03139911 0.27811030
v -0.07160041 -0.03149549 0.27831119
v -0.06771764 -0.03088490 0.27646604
v -0.06772701 -0.03084735 0.27631536
v -0.07171949 -0.03093559 0.27654397
v -0.06694798 -0.04719055 0.27975214
v -0.07088804 -0.04829393 0.28000095
v -0.06671981 -0.05114491 0.27975109
v -0.07070401 -0.05140514 0.27999252
v -0.06746979 -0.04774628 0.26602095
v -0.07146188 -0.04798488 0.26610050
v -0.07155557 -0.04723189 0.26305568
v -0.06756260 -0.04700003 0.26300597
v -0.06760449 -0.04626203 0.26300630
v -0.07159849 -0.04647527 0.26305702
v -0.06764572 -0.04550347 0.26300675
v -0.07163970 -0.04571671 0.26305830
v -0.06798024 -0.02970038 0.27170905
v -0.07196150 -0.02985985 0.27217421
v -0.06815842 -0.02861900 0.26736724
v -0.07214430 -0.02878518 0.26781297
v -0.07218497 -0.02848802 0.26660791
v -0.06818729 -0.02840320 0.26650080
v -0.07218846 -0.02846119 0.26649806
v -0.06819075 -0.02837647 0.26639220
v -0.06821918 -0.02818704 0.26541987
v -0.07221715 -0.02827198 0.26551479
v -0.06823036 -0.02816326 0.26495799
v -0.07222846 -0.02824775 0.26504767
v -0.06823897 -0.02822033 0.26450726
v -0.07223716 -0.02830589 0.26459190
v -0.06824449 -0.02837283 0.26407847
v -0.07224277 -0.02845941 0.26415816
v -0.06824618 -0.02863175 0.26369876
v -0.07224449 -0.02872018 0.26377404
v -0.06824397 -0.02897022 0.26340726
v -0.07224229 -0.02906076 0.26347917
v -0.06823844 -0.02936617 0.26320595
v -0.07223678 -0.02945889 0.26327485
v -0.06823011 -0.02980644 0.26308766
v -0.07222839 -0.02990184 0.26315546
v -0.06821908 -0.03030068 0.26303092
v -0.07221733 -0.03039891 0.26309764
v -0.07219909 -0.03113902 0.26307642
v -0.06820095 -0.03103650 0.26301065
v -0.07219851 -0.03116182 0.26307642
v -0.06820080 -0.03104229 0.26301065
v -0.06820022 -0.03106544 0.26301065
v -0.07219616 -0.03125299 0.26307634
v -0.06814745 -0.03300933 0.26301062
v -0.07218666 -0.03161774 0.26307604
v -0.06818817 -0.03152830 0.26301065
v -0.06819782 -0.03115801 0.26301065
v -0.06772445 -0.04397652 0.26300770
v -0.07172871 -0.04398254 0.26306087
v -0.06794792 -0.03893251 0.26300982
v -0.07195136 -0.03891141 0.26306790
v -0.06798654 -0.03791953 0.26301003
v -0.07202455 -0.03692598 0.26307037
v -0.07214664 -0.03307668 0.26307464
f 1 2 3
f 3 4 1
f 1 4 5
f 1 5 6
f 5 7 6
f 6 7 8
f 6 8 9
f 9 10 6
f 6 10 11
f 6 11 12
f 12 11 13
f 12 13 14
f 14 13 15
f 15 13 16
f 16 13 17
f 16 17 18
f 18 17 19
f 18 19 20
f 20 19 21
f 20 21 22
f 22 21 23
f 23 21 24
f 23 24 25
f 24 26 25
f 25 26 27
f 25 27 28
f 28 27 29
f 28 29 30
f 30 29 31
f 30 31 32
f 32 31 33
f 32 33 34
f 34 33 35
f 34 35 36
f 36 35 37
f 36 37 38
f 38 37 39
f 38 39 40
f 40 39 41
f 41 39 42
f 41 42 43
f 42 44 43
f 43 44 45
f 43 45 46
f 46 45 47
f 46 47 48
f 47 49 48
f 48 49 50
f 48 50 51
f 51 50 52
f 52 61 51
f 52 60 61
f 59 60 52
f 59 58 60
f 57 58 59
f 57 56 58
f 55 56 57
f 55 54 56
f 53 54 55
f 55 62 53
f 53 62 63
f 53 63 64
f 64 63 77
f 64 77 78
f 78 77 79
f 78 79 80
f 80 79 81
f 81 79 82
f 81 82 83
f 82 84 83
f 83 84 85
f 83 85 86
f 86 85 87
f 86 87 88
f 88 87 89
f 88 89 90
f 90 89 91
f 90 91 92
f 92 91 93
f 92 93 94
f 94 93 95
f 94 95 96
f 96 95 97
f 96 97 98
f 98 97 99
f 98 99 100
f 100 99 101
f 100 101 102
f 102 101 103
f 103 101 104
f 103 104 105
f 104 106 105
f 105 106 107
f 105 107 108
f 112 108 107
f 111 108 112
f 111 110 108
f 109 110 111
f 109 119 110
f 109 118 119
f 117 118 109
f 117 116 118
f 115 116 117
f 115 114 116
f 113 114 115
f 113 76 114
f 75 76 113
f 75 74 76
f 73 74 75
f 73 71 74
f 72 71 73
f 71 72 70
f 70 72 69
f 2 1 65
f 65 1 66
f 65 66 67
f 67 66 68

