# https://github.com/mikedh/trimesh
v -0.06729098 0.04118071 0.27869219
v -0.06723020 0.04167971 0.27935520
v -0.06729157 0.04117569 0.27868551
v -0.06746304 0.04028378 0.27632183
v -0.06768330 0.03894864 0.27278733
v -0.06787209 0.03753663 0.26904950
v -0.07186775 0.03767271 0.26917681
v -0.07160357 0.03584055 0.27654332
v -0.06761148 0.03572604 0.27631947
v -0.06777349 0.03669212 0.27244115
v -0.07176739 0.03681430 0.27262571
v -0.07141071 0.03497599 0.28002632
v -0.06742140 0.03487138 0.27975363
v -0.06752181 0.03529857 0.27803686
v -0.07154967 0.02856552 0.28003436
v -0.06756036 0.02849489 0.27975073
v -0.06761603 0.02870842 0.27889231
v -0.06776502 0.02934955 0.27631608
v -0.06816620 0.03266205 0.26301059
v -0.06810786 0.03169587 0.26689208
v -0.06783736 0.02971144 0.27486315
v -0.06800256 0.03072990 0.27077267
v -0.06803632 0.03099499 0.26970771
v -0.06795394 0.03894034 0.26341185
v -0.06796941 0.03861312 0.26321724
v -0.06798573 0.03822626 0.26309568
v -0.06801655 0.03741243 0.26301330
v -0.06802858 0.03707349 0.26301014
v -0.06806971 0.03586016 0.26301035
v -0.06792374 0.03944134 0.26406839
v -0.06793780 0.03923717 0.26370466
v -0.06792337 0.03944473 0.26408184
v -0.06792362 0.03944133 0.26407555
v -0.06792369 0.03944084 0.26407221
v -0.06747977 0.04308278 0.27371961
v -0.06773631 0.04126486 0.26890314
v -0.06764950 0.04575154 0.26300672
v -0.06762964 0.04478433 0.26688835
v -0.06757424 0.04393343 0.27030414
v -0.06764766 0.04578627 0.26300672
v -0.06764571 0.04582311 0.26300672
v -0.06752421 0.04796669 0.26300561
v -0.06723399 0.05210337 0.26300615
v -0.06692534 0.04794963 0.27975199
v -0.06708553 0.04889838 0.27592871
v -0.06714577 0.04938861 0.27395490
v -0.06719225 0.04987685 0.27199072
v -0.06724454 0.05085812 0.26803979
v -0.06724752 0.05099205 0.26749963
v -0.06724931 0.05154812 0.26525301
v -0.06702901 0.04583622 0.27975285
v -0.06697764 0.04691624 0.27975208
v -0.06709644 0.04433404 0.27975333
v -0.06714540 0.04317818 0.27975014
v -0.06715240 0.04301619 0.27974421
v -0.06716042 0.04283689 0.27973244
v -0.06717508 0.04253085 0.27969524
v -0.06718749 0.04229781 0.27964592
v -0.06719732 0.04213005 0.27959555
v -0.06721216 0.04190401 0.27950177
v -0.06755625 0.04582511 0.26772329
v -0.06794702 0.03755907 0.26633170
v -0.06740732 0.04582832 0.27236503
v -0.06736396 0.04582895 0.27342698
v -0.06722804 0.04583236 0.27632445
v -0.06726032 0.04138016 0.27906102
v -0.06738663 0.04896552 0.26732880
v -0.06719168 0.04899843 0.27341229
f 40 41 61
f 61 37 40
f 61 38 37
f 63 38 61
f 63 39 38
f 35 39 63
f 63 64 35
f 35 64 65
f 64 52 65
f 65 52 51
f 65 51 53
f 53 54 65
f 65 54 55
f 65 55 56
f 56 57 65
f 65 57 58
f 65 58 59
f 59 60 65
f 65 60 2
f 65 2 66
f 66 1 65
f 65 1 3
f 65 3 4
f 64 45 52
f 68 45 64
f 68 46 45
f 68 47 46
f 67 47 68
f 67 48 47
f 49 48 67
f 49 67 50
f 50 67 42
f 61 42 67
f 50 42 43
f 63 67 68
f 45 44 52
f 35 65 4
f 5 35 4
f 5 36 35
f 6 36 5
f 6 32 36
f 62 32 6
f 6 20 62
f 62 20 19
f 62 19 29
f 29 28 62
f 62 28 27
f 62 27 34
f 34 27 26
f 34 26 25
f 25 24 34
f 34 24 31
f 34 31 30
f 34 33 62
f 6 23 20
f 10 23 6
f 10 22 23
f 22 10 21
f 21 10 9
f 21 9 18
f 18 9 14
f 18 14 17
f 17 14 13
f 17 13 16
f 62 33 32
f 63 68 64
f 61 67 63
f 41 42 61
f 8 9 10
f 8 14 9
f 8 13 14
f 12 13 8
f 12 15 13
f 13 15 16
f 8 10 11
f 11 10 6
f 11 6 7

