# https://github.com/mikedh/trimesh
v 0.06079627 0.06864719 0.27841109
v 0.06078207 0.06866006 0.27846116
v 0.06473610 0.06970736 0.27931321
v 0.06514855 0.06934167 0.27782410
v 0.06551497 0.06900889 0.27646974
v 0.06155429 0.06794446 0.27567145
v 0.06119081 0.06828523 0.27700105
v 0.06475043 0.06969481 0.27926210
v 0.06520475 0.05510689 0.27246925
v 0.06921335 0.05589566 0.27334449
v 0.06488077 0.05541072 0.27366480
v 0.06471203 0.05556674 0.27427813
v 0.06871462 0.05634935 0.27518582
v 0.06864717 0.05641354 0.27542731
v 0.06464786 0.05562910 0.27450675
v 0.06854690 0.05654104 0.27575687
v 0.06454740 0.05575786 0.27483615
v 0.06448884 0.05585910 0.27500483
v 0.06848837 0.05664188 0.27592582
v 0.06447407 0.05588800 0.27504447
v 0.06847361 0.05667068 0.27596554
v 0.06846990 0.05667812 0.27597526
v 0.06447037 0.05589544 0.27505422
v 0.06846897 0.05667998 0.27597767
v 0.06446945 0.05589732 0.27505666
v 0.06841106 0.05680875 0.27611950
v 0.06441224 0.05602461 0.27519667
v 0.06428836 0.05636993 0.27543858
v 0.06828572 0.05715938 0.27636337
v 0.06828394 0.05716512 0.27636614
v 0.06428662 0.05637557 0.27544135
v 0.06426872 0.05643526 0.27546769
v 0.06822027 0.05739246 0.27644676
v 0.06419855 0.05669899 0.27554488
v 0.06818794 0.05752368 0.27647367
v 0.06418131 0.05677165 0.27555677
v 0.06811839 0.05784188 0.27649909
v 0.06411772 0.05706411 0.27557844
v 0.06809538 0.05795498 0.27650020
v 0.06409890 0.05715584 0.27557996
v 0.06808967 0.05798328 0.27650017
v 0.06409423 0.05717880 0.27558014
v 0.06808789 0.05799212 0.27650017
v 0.06409278 0.05718596 0.27558023
v 0.06803373 0.05826033 0.27649954
v 0.06403919 0.05744836 0.27558208
v 0.06383843 0.05841491 0.27558926
v 0.06783067 0.05924850 0.27649719
v 0.06271448 0.06340238 0.27562952
v 0.06669257 0.06435223 0.27648371
v 0.06888545 0.05619551 0.27456132
f 1 2 3
f 8 1 3
f 4 1 8
f 4 7 1
f 6 7 4
f 4 5 6
f 50 6 5
f 50 49 6
f 48 49 50
f 48 47 49
f 45 47 48
f 45 46 47
f 44 46 45
f 43 44 45
f 43 42 44
f 41 42 43
f 41 40 42
f 39 40 41
f 39 38 40
f 37 38 39
f 37 36 38
f 35 36 37
f 35 34 36
f 33 34 35
f 33 32 34
f 30 32 33
f 30 31 32
f 28 31 30
f 29 28 30
f 26 28 29
f 26 27 28
f 25 27 26
f 24 25 26
f 24 23 25
f 22 23 24
f 22 20 23
f 21 20 22
f 19 20 21
f 19 18 20
f 16 18 19
f 16 17 18
f 15 17 16
f 14 15 16
f 14 12 15
f 13 12 14
f 11 12 13
f 13 51 11
f 11 51 10
f 11 10 9

