# https://github.com/mikedh/trimesh
v 0.03649651 -0.02300389 -0.12412407
v 0.04426261 -0.02300388 -0.12412407
v 0.04934727 -0.01753304 -0.12412407
v 0.05292291 -0.01097570 -0.12412407
v 0.05476791 -0.00373832 -0.12412407
v 0.05476791 0.00373055 -0.12412407
v 0.05292291 0.01096794 -0.12412408
v 0.04934727 0.01752528 -0.12412408
v 0.04426261 0.02299612 -0.12412407
v 0.00573989 0.02299611 -0.12412407
v 0.00065523 0.01752529 -0.12412407
v -0.00292041 0.01096793 -0.12412407
v -0.00476541 0.00373055 -0.12412407
v -0.00476541 -0.00373831 -0.12412407
v -0.00292041 -0.01097571 -0.12412407
v 0.00065523 -0.01753303 -0.12412407
v 0.00573989 -0.02300388 -0.12412407
v 0.01350614 -0.02300396 -0.12412407
f 11 10 9
f 9 12 11
f 9 13 12
f 14 13 9
f 9 15 14
f 9 16 15
f 17 16 9
f 9 18 17
f 1 18 9
f 1 9 8
f 8 7 1
f 1 7 6
f 1 6 5
f 5 4 1
f 1 4 3
f 1 3 2

