# https://github.com/mikedh/trimesh
v 0.04828454 0.04729722 -0.01128094
v 0.04810600 0.04727978 -0.01106309
v 0.04948333 0.04702218 -0.00990872
v 0.04960183 0.04735400 -0.01290955
v 0.05211082 0.04700341 -0.01291194
v 0.05060938 0.04729977 -0.01417395
v 0.05366570 0.04593801 -0.00569561
v 0.05711710 0.04446560 -0.00106187
v 0.05646659 0.04570251 -0.00834349
v 0.05863459 0.04433465 -0.00221130
v 0.05700811 0.04548072 -0.00766556
v 0.06008228 0.04394867 -0.00339586
v 0.05443203 0.04641091 -0.01067601
v 0.05060938 -0.04764132 -0.01417443
v 0.05211088 -0.04734532 -0.01291242
v 0.04960183 -0.04769555 -0.01291002
v 0.05197533 -0.04735984 -0.01275381
v 0.04810601 -0.04762135 -0.01106359
v 0.04948291 -0.04736316 -0.00990886
v 0.05489691 -0.04660911 -0.01017513
v 0.05899680 -0.04460253 -0.00258193
v 0.05691523 -0.04470582 -0.00120502
v 0.05581892 -0.04529881 -0.00283162
v 0.06008236 -0.04429054 -0.00339630
v 0.05833102 -0.04522209 -0.00591604
v 0.05731675 -0.04569065 -0.00726975
v 0.05448485 -0.04589725 -0.00461741
v 0.05167585 -0.04683798 -0.00782201
v 0.06593809 0.03440665 0.01570945
v 0.06448942 0.03499921 0.01646602
v 0.06456805 0.03465676 0.01689202
v 0.06749386 0.03064258 0.01794304
v 0.06701273 0.03343411 0.01472366
v 0.06650187 0.03106769 0.01954608
v 0.06697367 0.02722106 0.02288781
v 0.06787681 0.02750331 0.02084626
v 0.06732925 0.02294152 0.02567069
v 0.06818323 0.02406337 0.02334300
v 0.06840581 0.02047605 0.02534331
v 0.06815942 0.01809424 0.02719747
v 0.06853078 0.01783668 0.02648679
v 0.06589264 0.02227543 0.02712289
v 0.06607138 0.01860764 0.02876988
v 0.06757955 0.01831299 0.02783214
v 0.06567591 0.02557890 0.02519875
v 0.06549825 0.02765935 0.02373397
v 0.06501024 0.03189307 0.02000876
v 0.06537856 0.02884949 0.02279621
v 0.06332919 0.03796815 0.01217481
v 0.06476542 0.03752704 0.01124563
v 0.06164751 0.04044942 0.00774318
v 0.06311240 0.04015872 0.00668453
v 0.05958888 0.04260179 0.00329977
v 0.06108662 0.04243792 0.00214977
v 0.06626324 0.03580082 0.01150350
v 0.06556742 0.03739440 0.00908021
v 0.06468235 0.03903413 0.00639215
v 0.06281286 0.04162244 0.00168703
v 0.06614717 -0.03445297 0.01538623
v 0.06701291 -0.03377600 0.01472337
v 0.06712372 -0.03062358 0.01932552
v 0.06744773 -0.03131835 0.01759086
v 0.06486093 -0.03144014 0.02055671
v 0.06470346 -0.03233935 0.01961631
v 0.06645112 -0.03103548 0.01978191
v 0.06410186 -0.03504203 0.01636578
v 0.06474792 -0.03496625 0.01607926
v 0.06557604 -0.02615214 0.02497933
v 0.06745605 -0.02103177 0.02682406
v 0.06586780 -0.02266868 0.02707995
v 0.06757347 -0.01870182 0.02781797
v 0.06607137 -0.01894962 0.02876967
v 0.06704402 -0.02643205 0.02366969
v 0.06766320 -0.02606311 0.02313416
v 0.06760632 -0.03013541 0.01879696
v 0.06783934 -0.02818806 0.02056094
v 0.06815261 -0.02481321 0.02307698
v 0.06838454 -0.02122365 0.02514311
v 0.06804271 -0.02074146 0.02622067
v 0.06518468 -0.02937855 0.02248831
v 0.06853072 -0.01817863 0.02648659
v 0.06815510 -0.01845459 0.02719433
v 0.06886102 -0.01154326 0.02821058
v 0.06851023 -0.01166540 0.02900123
v 0.06793667 -0.01177929 0.02970511
v 0.06639951 -0.01192869 0.03074964
v 0.05731164 -0.04446337 -0.00057618
v 0.06348811 -0.04113892 0.00325756
v 0.06414235 -0.04022638 0.00491394
v 0.06280293 -0.04086427 0.00576769
v 0.05924166 -0.04300625 0.00286555
v 0.06079242 -0.04299189 0.00179399
v 0.06095068 -0.04113312 0.00663425
v 0.06176944 -0.04303466 -0.00048903
v 0.06446406 -0.03793167 0.01098473
v 0.06521790 -0.03758514 0.01051898
v 0.06270646 -0.04084504 0.00595243
v 0.06567833 -0.03750288 0.00944594
v 0.06326582 -0.03723964 0.01323033
v 0.06626712 -0.03612933 0.01152218
v 0.06672584 -0.03481769 0.01336437
v 0.06780431 0.01381503 0.02921143
v 0.06861538 0.00909944 0.02933129
v 0.06869400 0.01432027 0.02758622
v 0.06838009 0.01367002 0.02853546
v 0.06910698 0.00444518 0.02887930
v 0.06908368 0.00543621 0.02882585
v 0.06876320 0.00446771 0.02974570
v 0.06906228 0.00621955 0.02877409
v 0.06886104 0.01120129 0.02821069
v 0.06915325 0.00119846 0.02897296
v 0.06865626 -0.00017129 0.03014087
v 0.06915858 -0.00017099 0.02898054
v 0.06660412 0.00541964 0.03160495
v 0.06666210 -0.00017101 0.03184425
v 0.06776738 -0.00017114 0.03113675
v 0.06819269 0.00451877 0.03052405
v 0.06804318 0.00919394 0.03006116
v 0.06644081 0.01064133 0.03092509
v 0.06636612 0.01228556 0.03060855
v 0.06622897 0.01503777 0.02994517
v 0.06902850 0.01688655 0.02510766
v 0.06893151 0.01456639 0.02657471
v 0.06895751 0.02508710 0.01934469
v 0.06891436 0.02817308 0.01599309
v 0.06880218 0.02158696 0.02304362
v 0.06867578 0.03071925 0.01328314
v 0.06917374 0.01990959 0.02270743
v 0.07002252 0.02755017 0.01182293
v 0.06985430 0.02676026 0.01358749
v 0.06957126 0.02488450 0.01688798
v 0.06934863 0.02257590 0.01996073
v 0.07064649 0.02923108 0.00627374
v 0.07088036 0.02953364 0.00449522
v 0.07057975 0.02981982 0.00565856
v 0.07376325 0.02744553 -0.01256495
v 0.07452089 0.02774246 -0.02164451
v 0.07260206 0.03308709 -0.02162390
v 0.06730705 0.03642679 0.00573415
v 0.06481467 0.03913211 0.00560677
v 0.07177271 0.03055577 -0.00340414
v 0.07030576 0.03402686 -0.00335595
v 0.06984951 0.03782172 -0.02166449
v 0.06835881 0.03721425 -0.00337883
v 0.06627547 0.04159033 -0.02178011
v 0.06591702 0.03999364 -0.00348306
v 0.06358925 0.04346998 -0.02189898
v 0.06309286 0.04229476 -0.00364829
v 0.06143136 0.04460029 -0.02200253
v 0.06082944 0.04443196 -0.01268469
v 0.07242993 0.02932076 -0.00533794
v 0.07207943 0.02961983 -0.00334732
v 0.07145467 0.02982767 0.00052850
v 0.07277074 0.02892707 -0.00717046
v 0.07350250 0.02777575 -0.01084372
v 0.07426650 0.02615902 -0.01438577
v 0.07469213 0.02507222 -0.01625983
v 0.07502568 0.02411966 -0.01769025
v 0.07577458 0.02209598 -0.02169874
v 0.07575711 0.02166246 -0.02071946
v 0.07600299 0.02070137 -0.02171331
v 0.07040942 0.02877213 0.00822369
v 0.06921478 0.03327889 0.00574608
v 0.06649976 0.04163497 -0.02526123
v 0.06710263 0.04166913 -0.03637598
v 0.06731891 0.04163261 -0.04138219
v 0.06974020 0.03945258 -0.04190108
v 0.07054001 0.03799855 -0.03260650
v 0.07110339 0.03790147 -0.04218823
v 0.07197974 0.03674017 -0.04237145
v 0.07341840 0.03329540 -0.03254429
v 0.07373847 0.03388184 -0.04273535
v 0.07671584 0.02242212 -0.03257035
v 0.07650802 0.02676479 -0.04328710
v 0.07542145 0.02800797 -0.03253968
v 0.07523969 0.03060723 -0.04303786
v 0.07412332 0.03313346 -0.04281380
v 0.07827369 0.01694394 -0.04360374
v 0.07761499 0.02168421 -0.04349050
v 0.07750170 0.02233272 -0.04347134
v 0.07801942 0.01102229 -0.03266026
v 0.07879842 0.01111354 -0.04369650
v 0.07890105 0.00947940 -0.04371590
v 0.07876345 -0.00017028 -0.03766192
v 0.07916136 -0.00017083 -0.04377144
v 0.07761420 0.01116189 -0.02807052
v 0.07804670 0.00561416 -0.02976042
v 0.07819521 -0.00017068 -0.03033323
v 0.07691898 0.01625266 -0.02534626
v 0.06983205 -0.02842274 0.01205455
v 0.07002251 -0.02789197 0.01182267
v 0.06970494 -0.02621974 0.01526365
v 0.06851815 -0.03136247 0.01343234
v 0.06891436 -0.02851494 0.01599280
v 0.06895752 -0.02542898 0.01934445
v 0.06880217 -0.02192888 0.02304339
v 0.06925674 -0.02163614 0.02136934
v 0.06910025 -0.01881886 0.02392302
v 0.06902850 -0.01722848 0.02510749
v 0.06945414 -0.02413355 0.01844295
v 0.06890363 -0.01398942 0.02707541
v 0.06910695 -0.00478783 0.02887923
v 0.06873504 -0.00596670 0.02967311
v 0.06816415 -0.00602794 0.03044112
v 0.06915348 -0.00150561 0.02897337
v 0.06915788 -0.00057247 0.02898025
v 0.06906068 -0.00661615 0.02877011
v 0.06908359 -0.00578213 0.02882554
v 0.06660420 -0.00575705 0.03160531
v 0.06643797 -0.01105978 0.03091126
v 0.07801941 -0.01136365 -0.03266038
v 0.07883999 -0.01083484 -0.04370432
v 0.07891919 -0.00948744 -0.04371963
v 0.07804669 -0.00595555 -0.02976050
v 0.07832009 -0.01686900 -0.04360953
v 0.07671585 -0.02276347 -0.03257059
v 0.07753536 -0.02249499 -0.04347690
v 0.07542145 -0.02834933 -0.03253997
v 0.07655531 -0.02693386 -0.04329730
v 0.07530566 -0.03077808 -0.04305222
v 0.07341840 -0.03363675 -0.03254464
v 0.07412428 -0.03347496 -0.04281427
v 0.07054000 -0.03833991 -0.03260688
v 0.07206006 -0.03696984 -0.04239080
v 0.07380658 -0.03409714 -0.04274967
v 0.06731892 -0.04197429 -0.04138263
v 0.06777276 -0.04161303 -0.04148125
v 0.07005628 -0.03945949 -0.04197104
v 0.07110423 -0.03824334 -0.04219170
v 0.06984951 -0.03816319 -0.02166488
v 0.06889543 -0.03936164 -0.02169050
v 0.06715095 -0.04200529 -0.03742729
v 0.06627546 -0.04193179 -0.02178053
v 0.07193036 -0.03481139 -0.02162839
v 0.07260206 -0.03342856 -0.02162423
v 0.07426316 -0.02896841 -0.02163842
v 0.07600299 -0.02104283 -0.02171353
v 0.07761420 -0.01150329 -0.02807064
v 0.07691897 -0.01659409 -0.02534644
v 0.07456378 -0.02575613 -0.01570107
v 0.07380417 -0.02752902 -0.01227396
v 0.07376325 -0.02778709 -0.01256523
v 0.07305100 -0.02887528 -0.00861581
v 0.07233202 -0.02975731 -0.00479434
v 0.07177271 -0.03089743 -0.00340445
v 0.07168234 -0.03014829 -0.00093155
v 0.07530086 -0.02360033 -0.01884575
v 0.07261273 -0.03136664 -0.01251302
v 0.07109571 -0.03479787 -0.01249802
v 0.06835882 -0.03755589 -0.00337923
v 0.06591701 -0.04033530 -0.00348346
v 0.06309287 -0.04263641 -0.00364873
v 0.06438842 -0.04331499 -0.02186270
v 0.06082542 -0.04477157 -0.01262934
v 0.06143136 -0.04494175 -0.02200300
v 0.06481468 -0.03947386 0.00560638
v 0.06730705 -0.03676852 0.00573379
v 0.06921479 -0.03362064 0.00574573
v 0.07057975 -0.03016157 0.00565825
v 0.07145467 -0.03016936 0.00052820
v 0.07089765 -0.02989284 0.00436808
v 0.07064649 -0.02957283 0.00627346
v 0.07042354 -0.02914636 0.00810239
v 0.07030577 -0.03436853 -0.00335632
v 0.07353262 -0.02806149 -0.01098880
v 0.06925192 -0.00017099 0.02852219
v 0.06949418 -0.00017098 0.02700022
v 0.06950784 0.00345977 0.02675603
v 0.06928778 0.00419495 0.02803670
v 0.06937460 0.00827711 0.02678709
v 0.06914756 0.00860156 0.02783221
v 0.06954716 0.00701955 0.02602514
v 0.06961209 0.01044973 0.02482536
v 0.06970622 0.01367363 0.02318188
v 0.06975707 0.01498346 0.02234719
v 0.06990444 0.01783543 0.02011970
v 0.07074628 0.02463901 0.01065297
v 0.07064156 0.02419481 0.01163375
v 0.07034688 0.02252690 0.01462415
v 0.07009766 0.02036520 0.01753023
v 0.07207874 0.02682259 0.00059548
v 0.07161636 0.02657153 0.00372243
v 0.07134324 0.02621644 0.00572045
v 0.07114638 0.02583742 0.00725106
v 0.07578728 0.02058096 -0.01961515
v 0.07274080 0.02788550 -0.00501490
v 0.07376242 0.02636405 -0.01040156
v 0.07482523 0.02382292 -0.01542041
v 0.07597694 0.01853709 -0.01946695
v 0.07579555 0.01932111 -0.01868187
v 0.07516669 0.02165199 -0.01589810
v 0.07487851 0.02255470 -0.01457899
v 0.07450629 0.02358722 -0.01282765
v 0.07393428 0.02490241 -0.01001580
v 0.07327873 0.02601644 -0.00657176
v 0.07294533 0.02641477 -0.00470851
v 0.07265561 0.02665962 -0.00301538
v 0.07780846 -0.00017071 -0.02699913
v 0.07776281 0.00299741 -0.02681244
v 0.07768553 0.00498865 -0.02650155
v 0.07759921 0.00652745 -0.02615494
v 0.07731996 0.00994746 -0.02503142
v 0.07699829 0.01271112 -0.02372767
v 0.07673622 0.01451798 -0.02265370
v 0.07652757 0.01577127 -0.02178987
v 0.07074634 -0.02498052 0.01065261
v 0.07108739 -0.02604153 0.00772661
v 0.07134327 -0.02655796 0.00572013
v 0.07155029 -0.02684320 0.00419362
v 0.07207876 -0.02716417 0.00059520
v 0.06975710 -0.01532526 0.02234687
v 0.06979737 -0.01620851 0.02172172
v 0.06994764 -0.01883544 0.01951003
v 0.07041761 -0.02333754 0.01386858
v 0.07015356 -0.02127559 0.01684107
v 0.06964806 -0.01218416 0.02418234
v 0.06937460 -0.00861908 0.02678699
v 0.06914736 -0.00894380 0.02783296
v 0.06928777 -0.00453692 0.02803665
v 0.06952131 -0.00531966 0.02650558
v 0.06949706 -0.00172852 0.02695549
v 0.06957141 -0.00883326 0.02557296
v 0.07364722 -0.00017084 0.00002377
v 0.07341390 0.01080169 0.00010881
v 0.07281376 0.01997138 0.00032735
v 0.07597694 -0.01887859 -0.01946716
v 0.07645901 -0.01649613 -0.02150427
v 0.07673622 -0.01485945 -0.02265387
v 0.07693656 -0.01350638 -0.02347580
v 0.07731997 -0.01028891 -0.02503152
v 0.07757494 -0.00723873 -0.02605748
v 0.07768553 -0.00533007 -0.02650161
v 0.07775044 -0.00373535 -0.02676267
v 0.07274082 -0.02822713 -0.00501517
v 0.07578729 -0.02092244 -0.01961535
v 0.07482522 -0.02416444 -0.01542065
v 0.07376242 -0.02670561 -0.01040184
v 0.07225143 -0.02716562 -0.00051857
v 0.07284644 -0.02685094 -0.00413918
v 0.07536548 -0.02131361 -0.01679153
v 0.07471459 -0.02336877 -0.01381492
v 0.07404769 -0.02500857 -0.01058648
v 0.07348474 -0.02605381 -0.00768332
v 0.07294532 -0.02675632 -0.00470876
v 0.07298333 -0.01826873 0.00026541
v 0.07349274 -0.00915417 0.00008000
v 0.07328167 -0.01379215 0.00015684
v 0.07328090 -0.01380589 0.00015710
v 0.03623215 -0.04266152 -0.12389726
v 0.03816415 -0.04238748 -0.12389757
v 0.04171189 -0.04199455 -0.12389813
v 0.04356341 -0.04185747 -0.12389845
v 0.04713529 -0.04154992 -0.12389901
v 0.05292632 -0.04074860 -0.12389995
v 0.05737457 -0.03974921 -0.12390065
v 0.05871028 -0.03935423 -0.12390086
v 0.06098217 -0.03854470 -0.12390123
v 0.06243359 -0.03791385 -0.12390146
v 0.06841289 -0.03367922 -0.12390240
v 0.06813018 -0.03397231 -0.12390236
v 0.06748499 -0.03459316 -0.12390226
v 0.06514936 -0.03640255 -0.12390188
v 0.07139125 -0.02945012 -0.12390286
v 0.06991536 -0.03185395 -0.12390263
v 0.07250747 -0.02698128 -0.12390301
v 0.07355296 -0.02378649 -0.12390317
v 0.07536613 -0.01208047 -0.12390339
v 0.07481336 -0.01742292 -0.12390333
v 0.07434168 -0.02033032 -0.12390327
v 0.07565561 -0.00632980 -0.12390339
v 0.07574043 -0.00017036 -0.12390337
v 0.02535917 -0.04495103 -0.12389553
v 0.02535556 -0.04495100 -0.12389546
v 0.02535556 -0.04376062 -0.12389545
v 0.06163712 0.03930156 -0.12390085
v 0.06568426 0.03722704 -0.12390152
v 0.06407575 0.03671990 -0.12390125
v 0.03087368 -0.04468501 -0.12389641
v 0.02890722 -0.04365787 -0.12389609
v 0.03641010 -0.04387671 -0.12389729
v 0.04364898 -0.04311035 -0.12389847
v 0.05236800 -0.04212165 -0.12389986
v 0.05906998 -0.04056462 -0.12390094
v 0.06348842 -0.03880874 -0.12390164
v 0.06732472 -0.03640036 -0.12390223
v 0.06907383 -0.03482919 -0.12390251
v 0.06922053 0.03433681 -0.12390210
v 0.06846186 0.03328608 -0.12390198
v 0.06641687 0.03515433 -0.12390164
v 0.07061611 -0.03305399 -0.12390275
v 0.07288759 -0.02932139 -0.12390310
v 0.07392637 0.02651120 -0.12390291
v 0.07539625 0.02126667 -0.12390317
v 0.07369511 0.02290970 -0.12390289
v 0.06183388 0.03784594 -0.12390088
v 0.05872673 0.03900807 -0.12390038
v 0.05584285 0.04109374 -0.12389991
v 0.03087368 0.04434354 -0.12389585
v 0.02906486 0.04330562 -0.12389557
v 0.02535917 0.04460956 -0.12389495
v 0.02535556 0.04341964 -0.12389497
v 0.02535557 0.04460953 -0.12389496
v 0.07464132 -0.02465915 -0.12390335
v 0.07589796 -0.01886382 -0.12390351
v 0.07245295 0.02677919 -0.12390267
v 0.07224929 0.02727905 -0.12390264
v 0.07184740 0.03090567 -0.12390254
v 0.07085785 0.03006782 -0.12390240
v 0.06916859 0.03248189 -0.12390210
v 0.04364895 0.04276890 -0.12389793
v 0.04787638 0.04239256 -0.12389860
v 0.04897454 0.04100112 -0.12389880
v 0.05535243 0.03991573 -0.12389983
v 0.05399298 0.04020537 -0.12389961
v 0.05102183 0.04072146 -0.12389912
v 0.07669164 -0.01160216 -0.12390360
v 0.04356341 0.04151653 -0.12389792
v 0.04161751 0.04166154 -0.12389760
v 0.03641010 0.04353526 -0.12389674
v 0.03623215 0.04232056 -0.12389673
v 0.03272490 0.04287910 -0.12389615
v 0.07703114 -0.00017045 -0.12390357
v 0.07694608 0.00595109 -0.12390353
v 0.07554019 0.00890442 -0.12390327
v 0.07640316 0.01463794 -0.12390339
v 0.07496964 0.01587287 -0.12390314
v 0.07462186 0.01837384 -0.12390308
v 0.03489711 0.04844887 -0.01818336
v 0.03495792 0.04802272 -0.01157138
v 0.03927575 0.04825127 -0.01645970
v 0.04332018 0.04792324 -0.01436247
v 0.04698306 0.04746296 -0.01193133
v 0.03497716 0.04728027 -0.00500269
v 0.02535639 0.04511005 -0.12339107
v 0.03507507 0.04424237 -0.12342771
v 0.03648244 0.04403030 -0.12342558
v 0.03410859 0.04439500 -0.12342574
v 0.03428427 0.04436694 -0.12342659
v 0.03445997 0.04433900 -0.12342720
v 0.03463568 0.04431120 -0.12342758
v 0.03349378 0.04449341 -0.12342093
v 0.03358161 0.04447940 -0.12342177
v 0.03305444 0.04456248 -0.12341656
v 0.03323021 0.04453509 -0.12341832
v 0.03331808 0.04452126 -0.12341922
v 0.03120350 0.04481473 -0.12340313
v 0.03261470 0.04462894 -0.12341229
v 0.03296652 0.04457603 -0.12341566
v 0.03375728 0.04445130 -0.12342329
v 0.03384510 0.04443722 -0.12342399
v 0.03402076 0.04440906 -0.12342522
v 0.03481142 0.04428354 -0.12342778
v 0.03489930 0.04426977 -0.12342781
v 0.02982546 0.04495212 -0.12340065
v 0.04231307 0.04336282 -0.12344393
v 0.04368414 0.04326529 -0.12344691
v 0.04368415 -0.04360661 -0.12344745
v 0.03784385 -0.04418241 -0.12342822
v 0.03648244 -0.04437177 -0.12342613
v 0.03649581 0.04505139 -0.10832373
v 0.04368495 0.04464585 -0.10888455
v 0.04368644 0.04501829 -0.10470881
v 0.03649917 0.04537493 -0.10448837
v 0.04368659 0.04503708 -0.10448948
v 0.06059832 0.04023201 -0.12345593
v 0.07751052 0.00251581 -0.12347909
v 0.07752185 0.00117269 -0.12347908
v 0.07752550 -0.00017046 -0.12347879
v 0.07723214 0.01057026 -0.12347741
v 0.07746173 0.00520173 -0.12347827
v 0.07651673 0.01775235 -0.12347417
v 0.07714710 0.01181807 -0.12347782
v 0.07486761 0.02527820 -0.12347375
v 0.07594208 0.02107373 -0.12347405
v 0.07227058 0.03116220 -0.12347044
v 0.07306391 0.02973984 -0.12347033
v 0.07346951 0.02891042 -0.12347063
v 0.07439123 0.02668103 -0.12347271
v 0.06956925 0.03469145 -0.12346493
v 0.06993998 0.03429552 -0.12346539
v 0.07147171 0.03238383 -0.12346985
v 0.06595252 0.03764496 -0.12346112
v 0.06648572 0.03729135 -0.12346224
v 0.06877025 0.03547382 -0.12346488
v 0.06391608 0.03880934 -0.12345787
v 0.04956539 0.04269384 -0.12344863
v 0.05337823 0.04210877 -0.12344962
v 0.05712036 0.04129436 -0.12345272
v 0.05245006 -0.04261212 -0.12345028
v 0.05036695 -0.04292880 -0.12344976
v 0.04600383 -0.04342061 -0.12344795
v 0.04502347 -0.04350482 -0.12344782
v 0.05566061 -0.04198751 -0.12345111
v 0.05907287 -0.04108340 -0.12345562
v 0.06267811 -0.03974000 -0.12345725
v 0.06371006 -0.03925439 -0.12345813
v 0.06579659 -0.03808561 -0.12346128
v 0.06665426 -0.03751616 -0.12346308
v 0.06894088 -0.03565570 -0.12346528
v 0.07091500 -0.03347756 -0.12346856
v 0.06994016 -0.03463677 -0.12346583
v 0.07401653 -0.02799513 -0.12347205
v 0.07333450 -0.02953674 -0.12347086
v 0.07277577 -0.03062581 -0.12347071
v 0.07115438 -0.03316302 -0.12346938
v 0.07512504 -0.02476572 -0.12347441
v 0.07596920 -0.02128152 -0.12347428
v 0.07612505 -0.02047616 -0.12347401
v 0.07675993 -0.01624057 -0.12347627
v 0.07638838 -0.01894152 -0.12347388
v 0.07752191 -0.00150377 -0.12347911
v 0.07751075 -0.00283699 -0.12347914
v 0.07746276 -0.00550267 -0.12347837
v 0.07723757 -0.01082481 -0.12347752
v 0.04368660 -0.04537875 -0.10448995
v 0.03649198 -0.04494150 -0.11395249
v 0.03649723 -0.04553304 -0.10664231
v 0.03649918 -0.04571660 -0.10448883
v 0.02535639 -0.04545100 -0.12339166
v 0.03093115 -0.04518669 -0.12340289
v 0.02766873 -0.04542383 -0.12340137
v 0.02571217 -0.04545285 -0.12339608
v 0.03489711 -0.04879000 -0.01818388
v 0.03663370 -0.04872943 -0.01756035
v 0.03495793 -0.04836429 -0.01157184
v 0.04079364 -0.04848783 -0.01573644
v 0.03497716 -0.04762154 -0.00500316
v 0.04460850 -0.04812371 -0.01357221
v 0.03497116 -0.04643778 0.00214233
v 0.03495943 -0.04521192 0.00763388
v 0.03495629 -0.04481145 0.00916833
v 0.03494829 -0.04311832 0.01470358
v 0.03494667 -0.04168125 0.01853250
v 0.02535910 -0.04542219 -0.12173153
v 0.03093845 -0.04527216 -0.11394783
v 0.03094604 -0.04577753 -0.10448789
v 0.02660821 -0.04573320 -0.10448713
v 0.02537183 -0.04527278 -0.11394165
v 0.02537510 -0.04531663 -0.11193510
v 0.02538727 -0.04570974 -0.10448695
v 0.05218382 -0.04462282 -0.10241953
v 0.06174437 -0.04520797 -0.04012634
v 0.06334457 -0.04420195 -0.06094109
v 0.06581319 -0.04290070 -0.06135001
v 0.03431490 -0.04911655 -0.03675843
v 0.03376760 -0.04907939 -0.04398788
v 0.03591152 -0.04906746 -0.04509316
v 0.02961690 -0.04859026 -0.06125973
v 0.03593455 -0.04769462 -0.07896036
v 0.03070083 -0.04869803 -0.05897056
v 0.03593761 -0.04880297 -0.05638524
v 0.02818226 -0.04846433 -0.06340591
v 0.02724005 -0.04838277 -0.06456334
v 0.02675370 -0.04833713 -0.06522793
v 0.02591673 -0.04823041 -0.06690528
v 0.02566689 -0.04818265 -0.06773960
v 0.02544424 -0.04808651 -0.06960085
v 0.03351435 -0.04905233 -0.04634321
v 0.03283913 -0.04895848 -0.05103348
v 0.03181301 -0.04882421 -0.05566186
v 0.04156195 -0.04857424 -0.05729956
v 0.03955975 -0.04903735 -0.03526987
v 0.03444924 -0.04910221 -0.03419678
v 0.04472251 -0.04873243 -0.03637161
v 0.04714681 -0.04808713 -0.05821988
v 0.04663521 -0.04855244 -0.03678416
v 0.05267322 -0.04728503 -0.05914131
v 0.05279175 -0.04767815 -0.03812830
v 0.05810611 -0.04607071 -0.06005665
v 0.05797723 -0.04649469 -0.03928034
v 0.06058467 -0.04566390 -0.03986570
v 0.06454591 -0.04383054 -0.04075718
v 0.07024079 -0.03948933 -0.06205738
v 0.07211820 -0.03739944 -0.06234555
v 0.07373687 -0.03509755 -0.06258901
v 0.07839486 -0.02191461 -0.06325093
v 0.07711665 -0.02738212 -0.06308186
v 0.07509632 -0.03263110 -0.06279036
v 0.08016039 -0.00017001 -0.07603986
v 0.07998945 -0.00017031 -0.06346256
v 0.07966734 -0.01078781 -0.06341160
v 0.07990225 -0.00017040 -0.06029854
v 0.07941736 -0.00016986 -0.10407665
v 0.07839896 -0.01025151 -0.11392791
v 0.07852328 -0.00017013 -0.11542511
v 0.07718695 -0.02077558 -0.11389632
v 0.07591715 -0.02592503 -0.11386586
v 0.07389788 -0.03083339 -0.11381556
v 0.07087918 -0.03520117 -0.11374059
v 0.06684443 -0.03865920 -0.11363743
v 0.05701901 -0.04268898 -0.11336322
v 0.06210884 -0.04109257 -0.11350840
v 0.04677654 -0.04532656 -0.10211384
v 0.02541303 -0.04694626 -0.08871502
v 0.03584324 -0.04599009 -0.10150445
v 0.08000083 -0.00016981 -0.09012634
v 0.07981075 -0.01063087 -0.08363253
v 0.07932787 -0.01611904 -0.08358851
v 0.07852740 -0.02157707 -0.08352425
v 0.07722586 -0.02694757 -0.08341118
v 0.07517315 -0.03209050 -0.08321681
v 0.07378900 -0.03449594 -0.08308273
v 0.07213991 -0.03672878 -0.08292069
v 0.07022978 -0.03874147 -0.08272900
v 0.06808607 -0.04050026 -0.08250761
v 0.06812662 -0.04132963 -0.06172445
v 0.06327149 -0.04322714 -0.08198696
v 0.04710446 -0.04696225 -0.08017907
v 0.05803528 -0.04501706 -0.08139929
v 0.05261488 -0.04618796 -0.08079118
v 0.07317105 -0.03361902 -0.10356499
v 0.07914194 -0.01039202 -0.10384714
v 0.07868023 -0.01574860 -0.10382351
v 0.07789171 -0.02107157 -0.10378961
v 0.07660034 -0.02630210 -0.10373131
v 0.07455645 -0.03129604 -0.10363263
v 0.07151692 -0.03576136 -0.10348350
v 0.06960133 -0.03767540 -0.10338736
v 0.06745730 -0.03933125 -0.10327654
v 0.06267437 -0.04186983 -0.10301639
v 0.05751225 -0.04353811 -0.10272308
v 0.03466728 -0.04904915 -0.02865994
v 0.03446481 -0.04910029 -0.03386366
v 0.04456205 -0.04872541 -0.03260094
v 0.03480624 -0.04895098 -0.02345619
v 0.04257225 -0.04870116 -0.02300895
v 0.04408111 -0.04859421 -0.02292587
v 0.04891551 -0.04810223 -0.02266356
v 0.05436883 -0.04719642 -0.02237034
v 0.05412840 -0.04739600 -0.03215567
v 0.05803859 -0.04623989 -0.02217482
v 0.06031155 -0.04568105 -0.03186899
v 0.06466628 -0.04356692 -0.03167025
v 0.05976062 -0.04564232 -0.02208652
v 0.06486646 -0.04357921 -0.03647281
v 0.06049011 -0.04567880 -0.03666877
v 0.05430325 -0.04738198 -0.03695738
v 0.03482773 -0.04891443 -0.02241391
v 0.03486579 -0.04885456 -0.02029885
v 0.03494664 -0.04090756 0.02034927
v 0.03941053 -0.04879775 -0.02075659
v 0.04368021 -0.04852745 -0.01874393
v 0.04229121 -0.04854351 -0.01746156
v 0.04203293 -0.04852710 -0.01698536
v 0.04322441 -0.04843052 -0.01634252
v 0.04348261 -0.04844731 -0.01681872
v 0.04769136 -0.04809830 -0.01632910
v 0.05447921 -0.04690425 -0.01296029
v 0.05780815 -0.04598874 -0.01278071
v 0.03494718 0.01865574 0.04311823
v 0.03494705 0.02791765 0.03762867
v 0.03494707 0.02672995 0.03855669
v 0.03494708 0.02599493 0.03909278
v 0.03494713 0.02261944 0.04121919
v 0.03494700 0.02980921 0.03598068
v 0.03494693 0.03262619 0.03307161
v 0.03494686 0.03518989 0.02984083
v 0.03891981 0.04847693 -0.02095588
v 0.03482773 0.04857334 -0.02241340
v 0.04229119 0.04820200 -0.01746102
v 0.03486580 0.04851307 -0.02029836
v 0.04203293 0.04818558 -0.01698488
v 0.04348260 0.04810580 -0.01681821
v 0.04701019 0.04784401 -0.01677993
v 0.04311151 0.04823190 -0.01904190
v 0.04322442 0.04808899 -0.01634203
v 0.03480624 0.04860990 -0.02345568
v 0.05438966 0.04685050 -0.02236831
v 0.04933531 0.04770621 -0.02264049
v 0.04408111 0.04825276 -0.02292540
v 0.04260803 0.04835741 -0.02300650
v 0.05976064 0.04530086 -0.02208642
v 0.05834205 0.04580122 -0.02215941
v 0.05781244 0.04564924 -0.01283605
v 0.05448385 0.04656499 -0.01301557
v 0.05749234 0.04628649 -0.03916834
v 0.05430325 0.04704067 -0.03695689
v 0.06049012 0.04533748 -0.03666833
v 0.04456205 0.04838406 -0.03260044
v 0.03446481 0.04875896 -0.03386319
v 0.03466728 0.04870774 -0.02865943
v 0.03444925 0.04876075 -0.03419628
v 0.03962918 0.04869175 -0.03528430
v 0.04472237 0.04838964 -0.03637143
v 0.05412840 0.04705464 -0.03215518
v 0.05252345 0.04738390 -0.03806866
v 0.04652025 0.04822118 -0.03675910
v 0.06142992 0.04499395 -0.04005567
v 0.06486659 0.04323781 -0.03647233
v 0.06441937 0.04356004 -0.04073117
v 0.06466642 0.04322549 -0.03166980
v 0.06031155 0.04533968 -0.03186851
v 0.03494671 -0.03926682 0.02375269
v 0.03494677 -0.03796235 0.02610521
v 0.03494681 -0.03685595 0.02789906
v 0.03494690 -0.03417335 0.03163083
v 0.03494698 -0.03119386 0.03497226
v 0.03494705 -0.02790218 0.03791604
v 0.05072785 -0.01897299 0.03584211
v 0.03494711 -0.02463939 0.04022721
v 0.03494715 -0.02111906 0.04217511
v 0.03494718 -0.01899766 0.04311799
v 0.02535910 0.04508070 -0.12173096
v 0.02537182 0.04493123 -0.11394115
v 0.02537510 0.04497505 -0.11193464
v 0.02544424 0.04774538 -0.06960033
v 0.02541303 0.04660445 -0.08871448
v 0.02538726 0.04536834 -0.10448652
v 0.02724006 0.04804153 -0.06456283
v 0.02623495 0.04793483 -0.06614552
v 0.02590070 0.04788571 -0.06694972
v 0.02548800 0.04778565 -0.06877772
v 0.03250351 0.04857042 -0.05279179
v 0.03376760 0.04873818 -0.04398738
v 0.03308528 0.04865073 -0.04953267
v 0.03161633 0.04845838 -0.05634308
v 0.03052131 0.04833714 -0.05940092
v 0.02936444 0.04822478 -0.06169927
v 0.02818228 0.04812225 -0.06340539
v 0.02754603 0.04806844 -0.06418697
v 0.03431490 0.04877420 -0.03675793
v 0.03497116 0.04609711 0.00214330
v 0.03495629 0.04446500 0.00916752
v 0.03494819 0.04272600 0.01483954
v 0.03494663 0.04057502 0.02032866
v 0.03494663 0.04056634 0.02034970
v 0.03494721 0.01436419 0.04457954
v 0.03494722 0.01231900 0.04510363
v 0.03494724 0.00974660 0.04562965
v 0.03494725 0.00487325 0.04626811
v 0.03494726 -0.00017098 0.04648477
v 0.03494726 -0.00469253 0.04631081
v 0.03494724 -0.00905610 0.04580242
v 0.03494722 -0.01324085 0.04496498
v 0.03494674 0.03849142 0.02456593
v 0.03494683 0.03612597 0.02849018
v 0.03494719 -0.01722310 0.04378744
v 0.05070701 0.01230236 0.03783292
v 0.05069523 0.00530426 0.03895982
v 0.05069525 -0.00564611 0.03895976
v 0.05070704 -0.01264421 0.03783282
v 0.03093843 0.04492896 -0.11400301
v 0.02681625 0.04539668 -0.10448681
v 0.06327128 0.04288539 -0.08198568
v 0.05803509 0.04467528 -0.08139798
v 0.05810589 0.04572869 -0.06005513
v 0.07966728 0.01044627 -0.06341054
v 0.07981073 0.01028951 -0.08363164
v 0.04646255 0.04403545 -0.11306067
v 0.05177545 0.04337803 -0.11321202
v 0.03591145 0.04872521 -0.04509149
v 0.03593754 0.04846086 -0.05638368
v 0.03593449 0.04735276 -0.07895900
v 0.04677642 0.04498494 -0.10211270
v 0.03584318 0.04564846 -0.10150331
v 0.05701884 0.04234751 -0.11336224
v 0.06210864 0.04075113 -0.11350741
v 0.06684424 0.03831781 -0.11363648
v 0.07087900 0.03485985 -0.11373968
v 0.07389775 0.03049216 -0.11381472
v 0.07591707 0.02558384 -0.11386507
v 0.07718693 0.02043444 -0.11389559
v 0.07839898 0.00991044 -0.11392728
v 0.07839477 0.02157297 -0.06324975
v 0.07711652 0.02704044 -0.06308062
v 0.07509615 0.03228936 -0.06278905
v 0.07373668 0.03475578 -0.06258767
v 0.07211798 0.03705763 -0.06234417
v 0.07024056 0.03914748 -0.06205599
v 0.06812639 0.04098773 -0.06172302
v 0.06581295 0.04255877 -0.06134855
v 0.06334433 0.04385998 -0.06093963
v 0.04714667 0.04774505 -0.05821834
v 0.05267305 0.04694298 -0.05913978
v 0.04156184 0.04823214 -0.05729800
v 0.05218368 0.04428121 -0.10241842
v 0.05751207 0.04319654 -0.10272198
v 0.06267419 0.04152829 -0.10301531
v 0.05261471 0.04584614 -0.08078986
v 0.04710433 0.04662042 -0.08017775
v 0.06808584 0.04015858 -0.08250637
v 0.07022956 0.03839983 -0.08272777
v 0.07213971 0.03638719 -0.08291949
v 0.07378882 0.03415439 -0.08308157
v 0.07517300 0.03174898 -0.08321568
v 0.07722574 0.02660610 -0.08341011
v 0.07852732 0.02123564 -0.08352324
v 0.07932784 0.01577765 -0.08358756
v 0.07914194 0.01005085 -0.10384641
v 0.07868021 0.01540739 -0.10382275
v 0.07317089 0.03327766 -0.10356401
v 0.07455631 0.03095471 -0.10363169
v 0.07660025 0.02596083 -0.10373043
v 0.07789166 0.02073034 -0.10378878
v 0.06745709 0.03898978 -0.10327549
v 0.06960113 0.03733395 -0.10338634
v 0.07151674 0.03541996 -0.10348251
f 1 2 3
f 2 1 432
f 432 433 2
f 432 429 433
f 431 429 432
f 430 429 431
f 662 430 431
f 662 428 430
f 661 428 662
f 660 661 662
f 660 659 661
f 658 659 660
f 660 665 658
f 660 663 665
f 663 664 665
f 664 669 665
f 665 669 670
f 685 670 669
f 685 669 668
f 673 685 668
f 673 692 685
f 692 678 685
f 685 678 677
f 685 677 686
f 686 677 676
f 774 686 676
f 773 686 774
f 774 779 773
f 773 779 780
f 776 780 779
f 754 780 776
f 754 753 780
f 775 780 753
f 775 753 752
f 752 683 775
f 775 683 684
f 775 684 773
f 773 684 687
f 679 687 684
f 679 686 687
f 683 679 684
f 683 680 679
f 679 680 681
f 681 671 679
f 681 667 671
f 658 671 667
f 658 670 671
f 679 671 670
f 682 680 683
f 751 682 683
f 751 721 682
f 714 721 751
f 715 714 751
f 715 751 752
f 752 713 715
f 716 713 752
f 752 717 716
f 752 751 683
f 752 753 717
f 753 718 717
f 753 719 718
f 720 719 753
f 753 709 720
f 753 710 709
f 711 710 753
f 753 712 711
f 706 712 753
f 755 706 753
f 707 706 755
f 755 463 707
f 707 463 743
f 707 743 708
f 743 705 708
f 743 742 705
f 742 704 705
f 742 703 704
f 454 703 742
f 742 446 454
f 742 447 446
f 446 447 398
f 398 447 448
f 398 448 443
f 443 448 460
f 444 443 460
f 444 460 445
f 398 444 445
f 398 445 441
f 441 442 398
f 460 442 441
f 449 442 460
f 460 450 449
f 398 449 450
f 398 450 419
f 419 420 398
f 398 420 421
f 398 421 399
f 398 399 400
f 400 434 398
f 398 434 454
f 400 402 434
f 400 401 402
f 400 399 401
f 419 418 420
f 410 418 419
f 419 436 410
f 435 436 419
f 419 453 435
f 419 452 453
f 460 453 452
f 460 452 440
f 440 439 460
f 419 439 440
f 419 438 439
f 437 438 419
f 460 438 437
f 437 451 460
f 419 451 437
f 460 439 438
f 440 452 419
f 435 453 460
f 460 436 435
f 455 436 460
f 461 455 460
f 461 460 462
f 461 462 754
f 754 462 464
f 462 463 464
f 754 464 755
f 749 461 754
f 749 754 750
f 456 749 750
f 750 486 456
f 750 487 486
f 488 487 750
f 397 487 488
f 397 488 465
f 465 375 397
f 375 396 397
f 396 413 397
f 397 413 414
f 397 414 411
f 411 414 415
f 411 415 412
f 410 411 412
f 412 417 410
f 411 410 456
f 410 455 456
f 375 395 396
f 377 395 375
f 375 376 377
f 376 389 377
f 376 388 389
f 387 388 376
f 376 483 387
f 387 483 484
f 387 484 479
f 759 479 484
f 480 479 759
f 759 481 480
f 407 480 481
f 407 481 475
f 475 476 407
f 760 476 475
f 760 475 759
f 759 791 760
f 760 791 792
f 791 784 792
f 792 784 785
f 784 767 785
f 784 768 767
f 783 768 784
f 783 769 768
f 169 768 769
f 170 768 169
f 172 768 170
f 170 171 172
f 170 168 171
f 168 138 171
f 168 143 138
f 165 143 168
f 164 143 165
f 164 145 143
f 144 143 145
f 144 145 146
f 146 145 147
f 146 147 148
f 148 58 146
f 146 58 140
f 57 140 58
f 54 57 58
f 52 57 54
f 52 56 57
f 56 139 57
f 56 55 139
f 50 55 56
f 33 55 50
f 33 50 29
f 32 33 29
f 29 34 32
f 32 34 35
f 34 47 35
f 34 31 47
f 31 656 47
f 47 656 48
f 655 48 656
f 655 46 48
f 651 46 655
f 651 45 46
f 42 45 651
f 42 37 45
f 42 43 37
f 37 43 44
f 121 44 43
f 738 121 43
f 738 43 650
f 650 727 738
f 738 727 728
f 738 728 729
f 738 729 739
f 739 114 738
f 739 115 114
f 731 115 739
f 739 730 731
f 740 115 731
f 731 732 740
f 740 732 733
f 740 733 741
f 741 733 734
f 741 734 737
f 699 741 737
f 699 737 702
f 701 699 702
f 701 70 699
f 70 72 699
f 699 72 86
f 71 86 72
f 71 85 86
f 85 210 86
f 210 741 86
f 85 204 210
f 204 209 210
f 204 115 209
f 116 115 204
f 203 116 204
f 203 112 116
f 202 112 203
f 202 205 112
f 319 205 202
f 319 320 205
f 320 321 205
f 321 267 205
f 205 267 266
f 266 267 268
f 268 267 323
f 323 272 268
f 269 268 272
f 269 272 270
f 270 272 122
f 272 273 122
f 122 273 274
f 122 274 275
f 324 275 274
f 324 276 275
f 325 276 324
f 325 280 276
f 279 280 325
f 279 131 280
f 280 131 132
f 131 124 132
f 132 124 128
f 124 126 128
f 128 126 41
f 128 41 122
f 276 128 122
f 122 41 123
f 271 122 123
f 271 123 110
f 123 104 110
f 103 110 104
f 103 104 105
f 105 104 41
f 41 40 105
f 39 40 41
f 39 37 40
f 38 37 39
f 39 126 38
f 36 37 38
f 36 38 124
f 36 124 125
f 36 125 32
f 32 125 127
f 130 127 125
f 129 127 130
f 278 129 130
f 278 130 279
f 277 129 278
f 277 162 129
f 284 162 277
f 284 277 325
f 325 283 284
f 283 133 284
f 283 134 133
f 133 134 135
f 135 162 133
f 135 127 162
f 163 127 135
f 163 33 127
f 139 33 163
f 142 139 163
f 144 139 142
f 144 140 139
f 142 163 141
f 141 138 142
f 152 138 141
f 152 141 153
f 152 153 281
f 152 281 151
f 151 281 286
f 154 151 286
f 154 286 155
f 138 154 155
f 138 155 136
f 136 137 138
f 136 156 137
f 156 157 137
f 137 157 158
f 288 158 157
f 288 160 158
f 159 158 160
f 159 160 161
f 173 159 161
f 173 161 189
f 161 289 189
f 289 161 290
f 324 289 290
f 305 289 324
f 324 304 305
f 324 303 304
f 303 189 304
f 303 186 189
f 181 189 186
f 186 187 181
f 302 187 186
f 301 187 302
f 323 301 302
f 323 302 324
f 324 273 323
f 300 301 323
f 300 323 299
f 299 187 300
f 299 188 187
f 298 188 299
f 188 298 214
f 184 188 214
f 213 184 214
f 213 214 211
f 211 212 213
f 212 211 215
f 215 576 212
f 212 576 581
f 598 581 576
f 598 576 599
f 599 614 598
f 598 614 613
f 586 613 614
f 584 613 586
f 584 612 613
f 583 612 584
f 596 612 583
f 583 748 596
f 789 748 583
f 789 788 748
f 788 747 748
f 788 764 747
f 747 764 178
f 764 179 178
f 764 180 179
f 174 180 764
f 764 765 174
f 174 765 766
f 786 766 765
f 786 765 787
f 794 786 787
f 794 787 790
f 762 794 790
f 790 763 762
f 472 762 763
f 471 762 472
f 425 471 472
f 425 472 469
f 425 469 423
f 423 424 425
f 425 424 426
f 425 426 393
f 393 426 427
f 393 427 394
f 392 393 394
f 394 405 392
f 392 405 406
f 392 406 407
f 407 406 408
f 407 408 387
f 387 408 409
f 407 477 392
f 392 477 478
f 392 478 473
f 478 761 473
f 473 761 474
f 474 761 762
f 761 793 762
f 761 792 793
f 393 473 474
f 393 474 471
f 478 760 761
f 477 760 478
f 392 473 393
f 423 371 424
f 422 371 423
f 423 466 422
f 423 470 466
f 763 466 470
f 763 470 469
f 585 466 763
f 789 585 763
f 585 467 466
f 468 467 585
f 585 511 468
f 585 512 511
f 513 512 585
f 422 512 513
f 422 513 416
f 416 513 514
f 416 514 509
f 416 509 404
f 404 368 416
f 368 367 416
f 416 367 370
f 404 369 368
f 366 369 404
f 403 366 404
f 507 403 404
f 507 404 508
f 404 510 508
f 508 510 586
f 586 510 509
f 586 507 508
f 586 506 507
f 587 506 586
f 587 502 506
f 587 503 502
f 502 503 391
f 391 503 504
f 588 504 503
f 505 504 588
f 390 504 505
f 390 505 500
f 500 505 589
f 589 501 500
f 589 499 501
f 589 498 499
f 498 386 499
f 498 385 386
f 385 362 386
f 385 358 362
f 384 358 385
f 497 384 385
f 496 384 497
f 590 496 497
f 590 497 498
f 592 496 590
f 592 495 496
f 591 495 592
f 592 620 591
f 592 619 620
f 605 620 619
f 605 619 604
f 604 619 618
f 604 618 603
f 603 618 617
f 603 617 602
f 602 617 611
f 611 617 589
f 589 588 611
f 588 616 611
f 588 615 616
f 600 616 615
f 600 615 599
f 601 616 600
f 600 577 601
f 601 577 578
f 601 578 602
f 602 578 575
f 578 220 575
f 220 222 575
f 220 221 222
f 220 218 221
f 235 221 218
f 235 218 236
f 236 218 216
f 217 216 218
f 217 218 219
f 576 217 219
f 576 219 577
f 577 219 220
f 215 216 217
f 236 216 237
f 216 239 237
f 216 238 239
f 211 238 216
f 330 239 238
f 329 239 330
f 328 239 329
f 327 239 328
f 348 327 328
f 348 328 347
f 347 316 348
f 348 316 311
f 348 311 345
f 345 311 312
f 345 312 313
f 312 198 313
f 312 199 198
f 81 198 199
f 81 197 198
f 196 197 81
f 81 78 196
f 196 78 77
f 196 77 76
f 74 76 77
f 61 76 74
f 61 75 76
f 62 75 61
f 61 60 62
f 59 60 61
f 59 101 60
f 59 100 101
f 257 101 100
f 257 258 101
f 250 258 257
f 251 250 257
f 231 250 251
f 231 251 233
f 233 251 252
f 233 252 253
f 633 233 253
f 633 253 255
f 633 255 632
f 632 255 634
f 632 634 631
f 631 630 632
f 629 630 631
f 628 630 629
f 624 630 628
f 624 566 630
f 637 630 566
f 637 566 568
f 636 637 568
f 568 570 636
f 568 569 570
f 568 567 569
f 610 569 567
f 610 567 608
f 608 567 565
f 608 565 561
f 561 565 564
f 564 565 566
f 561 564 562
f 624 562 564
f 624 563 562
f 623 563 624
f 622 623 624
f 626 622 624
f 626 624 627
f 627 642 626
f 627 647 642
f 628 647 627
f 628 14 647
f 646 647 14
f 646 14 16
f 14 15 16
f 629 15 14
f 629 648 15
f 15 648 20
f 20 648 649
f 20 649 26
f 26 649 25
f 25 649 254
f 25 254 24
f 24 21 25
f 25 21 23
f 21 22 23
f 531 23 22
f 22 87 531
f 531 87 91
f 21 91 87
f 21 92 91
f 91 92 93
f 93 92 90
f 93 90 97
f 93 97 95
f 95 99 93
f 95 59 99
f 59 95 96
f 95 98 96
f 96 98 100
f 99 59 67
f 99 67 66
f 65 66 67
f 65 64 66
f 696 66 64
f 695 66 696
f 696 64 697
f 697 64 63
f 697 63 698
f 63 80 698
f 698 80 68
f 698 68 700
f 700 68 70
f 68 69 70
f 73 69 68
f 74 69 73
f 74 79 69
f 79 82 69
f 69 82 71
f 82 84 71
f 82 83 84
f 81 83 82
f 83 81 201
f 318 83 201
f 318 207 83
f 208 207 318
f 203 207 208
f 318 317 208
f 208 317 319
f 318 199 317
f 199 316 317
f 316 322 317
f 317 322 320
f 346 320 322
f 323 320 346
f 331 323 346
f 346 330 331
f 331 332 323
f 323 332 333
f 214 333 332
f 323 333 298
f 331 214 332
f 331 238 214
f 346 322 347
f 347 329 346
f 83 207 203
f 201 199 318
f 83 203 84
f 79 81 82
f 78 79 74
f 73 68 65
f 65 61 73
f 70 69 71
f 65 68 80
f 65 80 63
f 63 64 65
f 695 99 66
f 694 99 695
f 693 99 694
f 640 99 693
f 67 59 65
f 640 93 99
f 533 93 640
f 532 93 533
f 95 97 98
f 97 89 98
f 256 98 89
f 89 251 256
f 256 257 98
f 97 90 89
f 88 89 90
f 88 252 89
f 88 94 252
f 252 94 24
f 88 90 94
f 94 90 92
f 532 91 93
f 94 92 21
f 531 91 532
f 530 23 531
f 530 27 23
f 23 27 26
f 26 27 28
f 28 27 530
f 529 28 530
f 529 19 28
f 20 28 19
f 20 19 17
f 18 17 19
f 527 18 19
f 527 528 18
f 527 526 528
f 526 645 528
f 16 528 645
f 526 644 645
f 646 645 644
f 646 644 643
f 643 642 646
f 641 642 643
f 643 638 641
f 626 641 638
f 638 625 626
f 643 644 638
f 644 639 638
f 639 644 526
f 524 639 526
f 525 524 526
f 523 524 525
f 524 523 639
f 525 526 527
f 18 528 16
f 16 17 18
f 527 19 529
f 87 22 21
f 21 24 94
f 252 24 254
f 634 254 649
f 25 23 26
f 26 28 20
f 631 649 648
f 17 15 20
f 16 15 17
f 16 645 646
f 646 642 647
f 626 642 641
f 625 622 626
f 547 562 563
f 547 563 545
f 545 546 547
f 546 558 547
f 547 558 551
f 547 551 561
f 561 551 549
f 550 549 551
f 551 560 550
f 551 559 560
f 548 549 550
f 548 552 549
f 549 552 553
f 549 553 554
f 554 555 549
f 549 555 556
f 549 556 557
f 557 594 549
f 549 594 595
f 594 536 595
f 595 536 518
f 536 517 518
f 517 515 518
f 593 518 515
f 593 515 457
f 457 492 593
f 381 492 457
f 381 457 380
f 380 457 458
f 380 458 459
f 459 458 516
f 535 459 516
f 520 459 535
f 538 520 535
f 538 535 539
f 539 535 537
f 535 536 537
f 539 537 540
f 540 537 594
f 534 520 538
f 534 521 520
f 522 521 534
f 372 521 522
f 372 522 519
f 519 373 372
f 372 373 374
f 372 374 378
f 372 378 520
f 520 378 380
f 378 379 380
f 379 349 380
f 380 349 350
f 378 374 379
f 534 519 522
f 520 521 372
f 535 516 536
f 516 458 515
f 520 380 459
f 380 350 381
f 381 350 351
f 381 351 352
f 352 353 381
f 381 353 382
f 382 353 354
f 382 354 383
f 493 382 383
f 493 383 494
f 493 494 591
f 541 493 591
f 591 621 541
f 609 541 621
f 609 621 607
f 607 621 620
f 607 543 609
f 607 544 543
f 606 544 607
f 606 227 544
f 573 227 606
f 573 228 227
f 227 228 223
f 223 228 229
f 223 229 224
f 223 224 221
f 234 223 221
f 230 223 234
f 223 230 231
f 232 223 231
f 226 223 232
f 232 572 226
f 544 226 572
f 544 572 542
f 635 542 572
f 635 571 542
f 636 571 635
f 635 632 636
f 569 542 571
f 543 542 569
f 635 572 232
f 232 633 635
f 234 249 230
f 230 249 250
f 249 264 250
f 249 245 264
f 248 245 249
f 248 243 245
f 242 243 248
f 236 242 248
f 240 242 236
f 236 247 240
f 247 336 240
f 240 336 241
f 241 336 337
f 241 337 265
f 241 265 242
f 337 243 265
f 337 244 243
f 334 244 337
f 246 244 334
f 310 246 334
f 310 334 338
f 338 334 339
f 334 344 339
f 334 343 344
f 344 343 345
f 345 343 342
f 345 342 341
f 341 340 345
f 345 340 326
f 326 340 335
f 335 237 326
f 326 237 327
f 237 335 247
f 335 340 341
f 335 341 336
f 336 341 342
f 337 342 343
f 345 339 344
f 345 338 339
f 310 338 345
f 345 309 310
f 309 261 310
f 309 262 261
f 259 261 262
f 259 262 193
f 193 262 263
f 308 263 262
f 307 263 308
f 307 308 345
f 345 306 307
f 306 191 307
f 192 191 306
f 190 191 192
f 190 263 191
f 190 192 193
f 194 193 192
f 194 192 195
f 75 194 195
f 195 192 200
f 192 315 200
f 192 314 315
f 315 314 345
f 200 315 313
f 200 313 197
f 195 200 197
f 62 193 194
f 306 314 192
f 345 314 306
f 307 191 263
f 193 263 190
f 60 259 193
f 60 258 259
f 258 264 259
f 260 261 259
f 259 245 260
f 260 245 246
f 308 262 309
f 310 261 260
f 345 308 309
f 260 246 310
f 245 244 246
f 337 343 334
f 336 342 337
f 247 335 336
f 240 241 242
f 242 265 243
f 243 244 245
f 235 248 249
f 259 264 245
f 235 249 234
f 221 224 225
f 575 225 224
f 224 574 575
f 224 573 574
f 604 574 573
f 603 575 574
f 229 573 224
f 226 227 223
f 229 228 573
f 605 573 606
f 227 226 544
f 605 606 607
f 542 543 544
f 609 543 569
f 610 541 609
f 610 593 541
f 593 491 541
f 541 491 490
f 541 490 489
f 489 490 382
f 382 490 491
f 489 493 541
f 494 383 495
f 495 383 384
f 383 356 384
f 383 355 356
f 384 356 357
f 489 382 493
f 354 355 383
f 382 491 381
f 381 491 492
f 593 492 491
f 458 457 515
f 516 515 517
f 536 516 517
f 595 518 593
f 608 595 593
f 594 537 536
f 549 595 608
f 558 559 551
f 561 562 547
f 561 549 608
f 566 565 567
f 608 593 610
f 609 569 610
f 569 571 570
f 636 570 571
f 566 567 568
f 636 630 637
f 564 566 624
f 627 624 628
f 629 14 628
f 631 648 629
f 636 632 630
f 634 649 631
f 255 254 634
f 635 633 632
f 253 254 255
f 232 233 633
f 253 252 254
f 89 252 251
f 232 231 233
f 230 250 231
f 251 257 256
f 250 264 258
f 257 100 98
f 96 100 59
f 101 258 60
f 65 59 61
f 62 60 193
f 62 194 75
f 75 195 76
f 73 61 74
f 76 195 196
f 74 77 78
f 78 81 79
f 196 195 197
f 201 81 199
f 197 313 198
f 345 313 315
f 311 199 312
f 345 326 348
f 199 311 316
f 347 322 316
f 326 327 348
f 347 328 329
f 346 329 330
f 330 238 331
f 327 237 239
f 237 247 236
f 236 248 235
f 234 221 235
f 219 218 220
f 221 225 222
f 575 222 225
f 577 220 578
f 600 576 577
f 587 615 588
f 587 614 615
f 601 611 616
f 602 611 601
f 602 575 603
f 589 617 618
f 589 618 590
f 603 574 604
f 590 618 619
f 604 573 605
f 607 620 605
f 591 620 621
f 591 494 495
f 590 619 592
f 495 384 496
f 384 357 358
f 386 362 361
f 361 360 386
f 386 360 359
f 386 359 390
f 390 359 364
f 390 364 391
f 364 363 391
f 391 363 365
f 391 365 403
f 506 391 403
f 497 385 498
f 590 498 589
f 386 501 499
f 386 500 501
f 390 500 386
f 589 505 588
f 391 504 390
f 588 503 587
f 502 391 506
f 506 403 507
f 403 365 366
f 404 509 510
f 584 509 514
f 584 514 513
f 416 370 422
f 585 584 513
f 511 512 422
f 422 468 511
f 422 467 468
f 422 466 467
f 422 370 371
f 423 469 470
f 393 471 425
f 474 762 471
f 472 763 469
f 789 763 790
f 762 793 794
f 790 787 788
f 793 786 794
f 793 785 786
f 785 766 786
f 174 766 176
f 175 174 176
f 175 176 171
f 171 176 177
f 171 137 175
f 175 137 159
f 173 174 175
f 176 766 177
f 177 766 767
f 177 767 172
f 787 765 764
f 173 180 174
f 173 179 180
f 178 179 173
f 178 173 181
f 181 182 178
f 182 181 183
f 183 181 184
f 183 184 185
f 185 582 183
f 213 582 185
f 213 581 582
f 581 580 582
f 582 580 747
f 579 580 581
f 597 579 581
f 596 579 597
f 748 580 579
f 183 582 747
f 183 747 182
f 182 747 178
f 787 764 788
f 748 747 580
f 790 788 789
f 583 585 789
f 579 596 748
f 597 612 596
f 583 584 585
f 597 613 612
f 586 509 584
f 586 614 587
f 598 613 597
f 599 615 614
f 599 576 600
f 597 581 598
f 215 217 576
f 215 211 216
f 212 581 213
f 211 214 238
f 185 184 213
f 181 188 184
f 214 298 333
f 299 323 298
f 300 187 301
f 181 187 188
f 302 186 303
f 324 302 303
f 189 305 304
f 290 161 285
f 290 285 291
f 291 285 288
f 291 288 292
f 292 288 293
f 292 293 325
f 325 293 294
f 325 294 295
f 294 287 295
f 294 288 287
f 156 287 288
f 155 287 156
f 295 287 286
f 295 286 296
f 286 297 296
f 325 296 297
f 325 297 281
f 281 282 325
f 295 296 325
f 293 288 294
f 325 291 292
f 325 290 291
f 189 289 305
f 181 173 189
f 175 159 173
f 160 285 161
f 285 160 288
f 137 158 159
f 156 288 157
f 136 155 156
f 155 286 287
f 151 154 138
f 286 281 297
f 281 153 282
f 282 153 134
f 141 135 153
f 151 138 152
f 141 163 135
f 153 135 134
f 282 134 283
f 325 282 283
f 284 133 162
f 325 277 278
f 127 129 162
f 130 125 131
f 36 35 37
f 105 40 102
f 40 44 102
f 105 102 103
f 103 102 118
f 103 118 108
f 108 118 117
f 108 117 112
f 111 108 112
f 106 108 111
f 269 106 111
f 269 107 106
f 271 107 269
f 271 109 107
f 108 107 109
f 111 266 269
f 113 266 111
f 206 266 113
f 112 206 113
f 106 107 108
f 111 112 113
f 114 117 118
f 114 118 119
f 119 118 120
f 738 119 120
f 116 117 114
f 108 109 103
f 120 118 102
f 120 102 121
f 103 109 110
f 110 109 271
f 123 41 104
f 41 126 39
f 124 38 126
f 276 132 128
f 131 125 124
f 279 130 131
f 325 278 279
f 280 132 276
f 324 290 325
f 122 275 276
f 324 274 273
f 270 122 271
f 269 270 271
f 323 273 272
f 266 268 269
f 205 266 206
f 267 321 323
f 323 321 320
f 317 320 319
f 208 319 202
f 112 205 206
f 203 208 202
f 112 117 116
f 84 203 204
f 209 740 210
f 84 204 85
f 71 84 85
f 70 71 72
f 700 70 701
f 86 741 699
f 210 740 741
f 209 115 740
f 114 115 116
f 738 114 119
f 739 729 730
f 120 121 738
f 121 102 44
f 37 44 40
f 650 43 42
f 42 654 650
f 42 653 654
f 652 653 42
f 45 37 35
f 651 652 42
f 45 35 46
f 35 48 46
f 31 657 656
f 30 657 31
f 657 30 736
f 736 30 49
f 736 49 735
f 735 49 726
f 726 49 51
f 726 51 725
f 725 51 53
f 725 53 724
f 724 53 8
f 724 8 723
f 7 723 8
f 7 8 9
f 7 9 3
f 3 9 13
f 3 13 5
f 4 3 5
f 4 5 6
f 6 666 4
f 6 663 666
f 662 666 663
f 431 4 666
f 6 5 675
f 675 668 6
f 674 668 675
f 675 13 674
f 6 668 664
f 675 5 13
f 674 13 9
f 674 9 11
f 150 674 11
f 150 11 12
f 11 10 12
f 10 58 12
f 150 12 148
f 148 149 150
f 150 149 672
f 149 692 672
f 149 691 692
f 147 691 149
f 147 164 691
f 691 689 692
f 691 165 689
f 690 689 165
f 690 165 166
f 166 165 167
f 167 770 166
f 166 770 771
f 781 771 770
f 744 771 781
f 744 772 771
f 746 772 744
f 744 745 746
f 778 745 744
f 777 745 778
f 777 779 745
f 757 777 778
f 756 777 757
f 756 776 777
f 750 776 756
f 488 756 757
f 757 778 758
f 778 795 758
f 758 795 796
f 758 796 759
f 759 796 797
f 796 782 797
f 796 781 782
f 797 782 783
f 797 783 791
f 795 781 796
f 758 482 757
f 757 482 485
f 757 485 465
f 376 465 485
f 376 485 482
f 758 483 482
f 778 744 795
f 746 745 774
f 746 688 772
f 690 772 688
f 676 688 746
f 676 678 688
f 688 678 689
f 690 771 772
f 795 744 781
f 781 770 782
f 782 770 769
f 167 769 770
f 166 771 690
f 688 689 690
f 672 674 150
f 672 673 674
f 9 10 11
f 3 722 7
f 3 433 722
f 9 8 10
f 8 54 10
f 7 722 723
f 53 54 8
f 51 52 53
f 51 50 52
f 49 50 51
f 29 49 30
f 29 30 31
f 35 47 48
f 32 35 36
f 29 31 34
f 32 127 33
f 29 50 49
f 139 55 33
f 50 56 52
f 53 52 54
f 54 58 10
f 57 139 140
f 148 12 58
f 148 147 149
f 146 140 144
f 142 143 144
f 145 164 147
f 164 165 691
f 167 165 168
f 167 168 169
f 142 138 143
f 171 138 137
f 171 177 172
f 169 168 170
f 169 769 167
f 782 769 783
f 172 767 768
f 785 767 766
f 792 785 793
f 791 783 784
f 760 792 761
f 759 797 791
f 477 476 760
f 407 476 477
f 387 480 407
f 759 475 481
f 759 484 758
f 387 479 480
f 758 484 483
f 376 482 483
f 387 409 388
f 375 465 376
f 488 757 465
f 411 487 397
f 750 756 488
f 411 486 487
f 456 486 411
f 456 461 749
f 462 460 463
f 456 455 461
f 410 436 455
f 410 417 418
f 419 450 451
f 460 451 450
f 442 449 398
f 460 441 445
f 460 448 742
f 443 444 398
f 448 447 742
f 398 454 446
f 454 434 703
f 460 742 743
f 743 463 460
f 755 464 463
f 755 753 754
f 750 754 776
f 776 779 777
f 773 780 775
f 774 745 779
f 773 687 686
f 774 676 746
f 685 686 679
f 676 677 678
f 692 689 678
f 672 692 673
f 674 673 668
f 679 670 685
f 664 668 669
f 664 663 6
f 665 670 658
f 667 659 658
f 662 663 660
f 431 666 662
f 428 429 430
f 432 4 431
f 432 1 4
f 1 3 4
f 2 433 3

