# https://github.com/mikedh/trimesh
v 0.03550125 -0.02300000 -0.01157854
v 0.03550125 -0.01897243 -0.01741003
v 0.03550125 -0.01350769 -0.02192270
v 0.03550125 -0.00701972 -0.02477469
v 0.03550125 0.00000000 -0.02575000
v 0.03550125 0.00701972 -0.02477469
v 0.03550125 0.01350769 -0.02192269
v 0.03550125 0.01897243 -0.01741005
v 0.03550125 0.02299999 -0.01157854
v 0.03550125 0.02299999 0.01157853
v 0.03550125 0.01897244 0.01741002
v 0.03550125 0.01350769 0.02192269
v 0.03550125 0.00701972 0.02477471
v 0.03550125 -0.00000001 0.02574999
v 0.03550125 -0.00701972 0.02477471
v 0.03550125 -0.01350769 0.02192271
v 0.03550125 -0.01897243 0.01741003
v 0.03550125 -0.02299999 0.01157853
v 0.07549267 -0.01494050 -0.12122937
v 0.07482427 -0.01975704 -0.12122939
v 0.03550125 0.03733868 -0.12122922
v 0.07613184 -0.00017044 -0.12122932
v 0.07600649 -0.00741699 -0.12122934
v 0.07557666 -0.01410448 -0.12122937
v 0.07544753 0.01501778 -0.12122928
v 0.07597400 0.00787769 -0.12122931
v 0.04009593 0.04203912 -0.12122919
v 0.04356018 0.04177934 -0.12122919
v 0.07170181 0.02928017 -0.12122924
v 0.07312436 0.02602348 -0.12122925
v 0.07424065 0.02223868 -0.12122926
v 0.07468268 0.02018200 -0.12122927
v 0.03626644 0.04246464 -0.12122921
v 0.03550125 0.04256579 -0.12122919
v 0.04702779 -0.04182509 -0.12122945
v 0.04356016 -0.04212035 -0.12122945
v 0.03972416 -0.04241443 -0.12122944
v 0.03550125 -0.03983157 -0.12122944
v 0.03626645 -0.04280563 -0.12122945
v 0.03550125 -0.04290678 -0.12122945
v 0.07426298 -0.02248595 -0.12122939
v 0.07338484 -0.02561051 -0.12122940
v 0.07225756 -0.02849231 -0.12122940
v 0.04981264 0.04116024 -0.12122921
v 0.05079316 0.04102400 -0.12122920
v 0.05477016 0.04032317 -0.12122921
v 0.06258052 0.03783669 -0.12122921
v 0.06464296 0.03674838 -0.12122922
v 0.06698757 0.03511440 -0.12122922
v 0.06763218 0.03456406 -0.12122922
v 0.05846571 0.03938698 -0.12122920
v 0.06201921 0.03809061 -0.12122922
v 0.06958951 0.03250701 -0.12122923
v 0.07122842 0.03013155 -0.12122924
v 0.05849382 -0.03971949 -0.12122944
v 0.05384842 -0.04085065 -0.12122945
v 0.04838282 -0.04167848 -0.12122945
v 0.07099911 -0.03085406 -0.12122941
v 0.07083441 -0.03111678 -0.12122943
v 0.07039349 -0.03177813 -0.12122943
v 0.06859937 -0.03397093 -0.12122943
v 0.06650656 -0.03583403 -0.12122943
v 0.06586641 -0.03630042 -0.12122943
v 0.06309558 -0.03793011 -0.12122944
v 0.05987601 -0.03927028 -0.12122944
v 0.03550125 -0.03620121 -0.07300273
v 0.03550125 -0.03623441 -0.07310349
v 0.03550125 -0.04124679 -0.07310352
v 0.03550125 -0.04688847 -0.06225670
v 0.03550125 -0.04605061 -0.07813827
v 0.03550125 -0.04124676 -0.07840352
v 0.03550125 0.03875323 -0.07840309
v 0.03550125 0.04530333 -0.08422678
v 0.03550125 0.03733882 -0.07840311
v 0.03550125 0.04370268 -0.10434128
v 0.03550125 0.04277772 -0.11680827
v 0.03550125 0.03374104 -0.07310313
v 0.03550125 0.03369743 -0.07290312
v 0.03550125 0.03875321 -0.07310311
v 0.03550125 0.04667478 -0.05899521
v 0.03550125 0.04579750 -0.07671805
v 0.03550125 -0.04723963 -0.05180601
v 0.03550125 -0.03619096 -0.06280349
v 0.03550125 -0.03619091 -0.06680349
v 0.03550125 -0.03619082 -0.07290350
v 0.03550125 -0.04346106 -0.11168467
v 0.03550125 -0.04404385 -0.10434173
v 0.03550125 -0.03983214 -0.07840350
v 0.03550125 -0.04541500 -0.08742777
v 0.03550125 -0.04568123 -0.08370398
v 0.03550125 -0.02691182 0.03613871
v 0.03550125 -0.02371912 0.03839411
v 0.03550125 0.04559893 -0.00552398
v 0.03550125 0.04636493 -0.01239100
v 0.03550125 -0.04737598 -0.03107051
v 0.03550125 -0.04740754 -0.03442870
v 0.03550125 -0.04734433 -0.04680781
v 0.03550125 -0.04724638 -0.02346172
v 0.03550125 -0.04720985 -0.02224737
v 0.03550125 0.03369748 -0.06280312
v 0.03550125 -0.03702991 0.02396500
v 0.03550125 -0.03467872 0.02774302
v 0.03550125 -0.03419518 0.02842836
v 0.03550125 -0.04720793 -0.02009133
v 0.03550125 -0.04707277 -0.01803100
v 0.03550125 -0.04664014 -0.01164454
v 0.03550125 -0.04407736 0.00479081
v 0.03550125 -0.04317871 0.00837852
v 0.03550125 -0.04150167 0.01383606
v 0.03550125 -0.03936949 0.01927907
v 0.03550125 -0.04594110 -0.00552444
v 0.03550125 -0.04480628 0.00135658
v 0.03550125 0.04690439 -0.02346126
v 0.03550125 0.04706006 -0.03372861
v 0.03550125 0.03949421 0.01820038
v 0.03550125 0.04147679 0.01289780
v 0.03550125 0.04283639 0.00837895
v 0.03550125 0.04446558 0.00134913
v 0.03550125 0.02271651 0.03879613
v 0.03550125 0.02593879 0.03662835
v 0.03550125 -0.01458973 0.04242336
v 0.03550125 -0.01840616 0.04110617
v 0.03550125 -0.02030281 0.04026903
v 0.03550125 -0.03157977 0.03170317
v 0.03550125 -0.03082125 0.03253419
v 0.03550125 -0.02793990 0.03528999
v 0.03550125 0.04673074 -0.01803053
v 0.03550125 0.04686899 -0.02018089
v 0.03550125 0.04686780 -0.02224555
v 0.03550125 0.03369746 -0.06680312
v 0.03550125 0.04689795 -0.05180516
v 0.03550125 0.04694519 -0.04979456
v 0.03550125 0.04706567 -0.03442821
v 0.03550124 0.03385266 0.02842871
v 0.03550125 0.03627907 0.02468019
v 0.03550125 0.03696061 0.02347194
v 0.03550125 0.03914079 0.01902192
v 0.03550125 -0.00390083 0.04423564
v 0.03550125 -0.00876898 0.04370027
v 0.03550125 -0.01366006 0.04268062
v 0.03550125 0.02706767 0.03573551
v 0.03550125 0.03005929 0.03297396
v 0.03550125 0.03279929 0.02983004
v 0.03550125 0.01806352 0.04110636
v 0.03550125 0.01806981 0.04110468
v 0.03550125 0.02159507 0.03943399
v 0.03550125 0.00965232 0.04349351
v 0.03550125 0.00470115 0.04414934
v 0.03550125 -0.00017133 0.04435628
v 0.03550125 0.01189948 0.04303167
v 0.03550125 0.01371189 0.04257434
v 0.03550125 0.01753213 0.04131731
v 0.03497693 -0.04594110 -0.00528239
v 0.03495891 -0.04663995 -0.01139210
v 0.03495758 -0.04666203 -0.01163314
v 0.03516170 -0.04708339 -0.01814616
v 0.03489643 -0.04709126 -0.01823528
v 0.03489921 -0.04708325 -0.01802493
v 0.03990271 -0.04228686 -0.12254695
v 0.03623215 -0.04266152 -0.12389726
v 0.03816415 -0.04238748 -0.12389757
v 0.04172475 -0.04212529 -0.12251905
v 0.04171189 -0.04199455 -0.12389813
v 0.04356138 -0.04199507 -0.12250729
v 0.04356341 -0.04185747 -0.12389845
v 0.04713529 -0.04154992 -0.12389901
v 0.05292632 -0.04074860 -0.12389995
v 0.05737457 -0.03974921 -0.12390065
v 0.05871028 -0.03935423 -0.12390086
v 0.06098217 -0.03854470 -0.12390123
v 0.06243359 -0.03791385 -0.12390146
v 0.06841289 -0.03367922 -0.12390240
v 0.06813018 -0.03397231 -0.12390236
v 0.06748499 -0.03459316 -0.12390226
v 0.06514936 -0.03640255 -0.12390188
v 0.07139125 -0.02945012 -0.12390286
v 0.06991536 -0.03185395 -0.12390263
v 0.07250747 -0.02698128 -0.12390301
v 0.07355296 -0.02378649 -0.12390317
v 0.07536613 -0.01208047 -0.12390339
v 0.07481336 -0.01742292 -0.12390333
v 0.07434168 -0.02033032 -0.12390327
v 0.07565561 -0.00632980 -0.12390339
v 0.07574043 -0.00017036 -0.12390337
v 0.02535556 -0.04495100 -0.12389546
v 0.02535556 -0.04376062 -0.12389545
v 0.06407575 0.03671990 -0.12390125
v 0.02890722 -0.04365787 -0.12389609
v 0.06846186 0.03328608 -0.12390198
v 0.06641687 0.03515433 -0.12390164
v 0.07369511 0.02290970 -0.12390289
v 0.06183388 0.03784594 -0.12390088
v 0.05872673 0.03900807 -0.12390038
v 0.02906486 0.04330562 -0.12389557
v 0.02535556 0.04341964 -0.12389497
v 0.02535557 0.04460953 -0.12389496
v 0.07245295 0.02677919 -0.12390267
v 0.07224929 0.02727905 -0.12390264
v 0.07085785 0.03006782 -0.12390240
v 0.06916859 0.03248189 -0.12390210
v 0.04897454 0.04100112 -0.12389880
v 0.05535243 0.03991573 -0.12389983
v 0.05399298 0.04020537 -0.12389961
v 0.05102183 0.04072146 -0.12389912
v 0.04356341 0.04151653 -0.12389792
v 0.04161751 0.04166154 -0.12389760
v 0.03623215 0.04232056 -0.12389673
v 0.03272490 0.04287910 -0.12389615
v 0.07554019 0.00890442 -0.12390327
v 0.07496964 0.01587287 -0.12390314
v 0.07462186 0.01837384 -0.12390308
v 0.03990271 0.04194587 -0.12254655
v 0.04172475 0.04178431 -0.12251867
v 0.03489711 0.04844887 -0.01818336
v 0.03495792 0.04802272 -0.01157138
v 0.03497716 0.04728027 -0.00500269
v 0.02535639 0.04511005 -0.12339107
v 0.02535639 -0.04545100 -0.12339166
v 0.03489711 -0.04879000 -0.01818388
v 0.03495793 -0.04836429 -0.01157184
v 0.03497716 -0.04762154 -0.00500316
v 0.03497116 -0.04643778 0.00214233
v 0.03495943 -0.04521192 0.00763388
v 0.03495629 -0.04481145 0.00916833
v 0.03494829 -0.04311832 0.01470358
v 0.03494667 -0.04168125 0.01853250
v 0.02535910 -0.04542219 -0.12173153
v 0.02537183 -0.04527278 -0.11394165
v 0.02537510 -0.04531663 -0.11193510
v 0.02538727 -0.04570974 -0.10448695
v 0.03431490 -0.04911655 -0.03675843
v 0.03376760 -0.04907939 -0.04398788
v 0.02961690 -0.04859026 -0.06125973
v 0.03070083 -0.04869803 -0.05897056
v 0.02818226 -0.04846433 -0.06340591
v 0.02724005 -0.04838277 -0.06456334
v 0.02675370 -0.04833713 -0.06522793
v 0.02591673 -0.04823041 -0.06690528
v 0.02566689 -0.04818265 -0.06773960
v 0.02544424 -0.04808651 -0.06960085
v 0.03351435 -0.04905233 -0.04634321
v 0.03283913 -0.04895848 -0.05103348
v 0.03181301 -0.04882421 -0.05566186
v 0.03444924 -0.04910221 -0.03419678
v 0.02541303 -0.04694626 -0.08871502
v 0.03466728 -0.04904915 -0.02865994
v 0.03446481 -0.04910029 -0.03386366
v 0.03480624 -0.04895098 -0.02345619
v 0.03488125 -0.04716952 -0.01931009
v 0.03482673 -0.04721896 -0.02246432
v 0.03480515 -0.04725463 -0.02350661
v 0.03495736 -0.04317855 0.00863031
v 0.03446481 -0.04740077 -0.03386366
v 0.03466646 -0.04734985 -0.02868517
v 0.03482773 -0.04891443 -0.02241391
v 0.03486579 -0.04885456 -0.02029885
v 0.03497193 -0.04478032 0.00173373
v 0.03494664 -0.04090756 0.02034927
v 0.03494664 -0.03900526 0.02034927
v 0.03494773 -0.04101250 0.01547900
v 0.03494841 -0.04134327 0.01455800
v 0.03444875 -0.04740318 -0.03420711
v 0.03376760 -0.04738349 -0.04398787
v 0.03431430 -0.04741603 -0.03676874
v 0.03303165 -0.04728448 -0.04987725
v 0.03278210 -0.04724952 -0.05135382
v 0.03232845 -0.04718817 -0.05360258
v 0.03131358 -0.04706365 -0.05730274
v 0.03106400 -0.04703552 -0.05802210
v 0.02822733 -0.04676526 -0.06335021
v 0.02818229 -0.04676152 -0.06340587
v 0.02724006 -0.04668053 -0.06456332
v 0.02994004 -0.04691891 -0.06064989
v 0.02906340 -0.04683725 -0.06218658
v 0.02840429 -0.04678008 -0.06312501
v 0.02544424 -0.04638343 -0.06960081
v 0.02548800 -0.04642369 -0.06877816
v 0.02590070 -0.04652401 -0.06695019
v 0.02623496 -0.04657328 -0.06614599
v 0.02537801 -0.04367471 -0.11015314
v 0.02537146 -0.04356811 -0.11416372
v 0.02536898 -0.04355891 -0.11568652
v 0.02536338 -0.04362951 -0.11911044
v 0.02541865 -0.04547905 -0.08527230
v 0.02538750 -0.04401490 -0.10434379
v 0.02537947 -0.04371208 -0.10925792
v 0.03081722 -0.04356749 -0.11418298
v 0.03088984 -0.04408431 -0.10434260
v 0.02624757 -0.04403333 -0.10434367
v 0.03494718 0.01865574 0.04311823
v 0.03494705 0.02791765 0.03762867
v 0.03494707 0.02672995 0.03855669
v 0.03494708 0.02599493 0.03909278
v 0.03494713 0.02261944 0.04121919
v 0.03494700 0.02980921 0.03598068
v 0.03494693 0.03262619 0.03307161
v 0.03494686 0.03518989 0.02984083
v 0.03482773 0.04857334 -0.02241340
v 0.03486580 0.04851307 -0.02029836
v 0.03480624 0.04860990 -0.02345568
v 0.03446481 0.04875896 -0.03386319
v 0.03466728 0.04870774 -0.02865943
v 0.03444925 0.04876075 -0.03419628
v 0.03494671 -0.03926682 0.02375269
v 0.03494677 -0.03796235 0.02610521
v 0.03494681 -0.03685595 0.02789906
v 0.03494690 -0.03417335 0.03163083
v 0.03494698 -0.03119386 0.03497226
v 0.03494705 -0.02790218 0.03791604
v 0.03494711 -0.02463939 0.04022721
v 0.03494715 -0.02111906 0.04217511
v 0.03494718 -0.01899766 0.04311799
v 0.03489643 0.04674922 -0.01823480
v 0.03516170 0.04674136 -0.01814568
v 0.03489921 0.04674120 -0.01802445
v 0.03493879 0.04653729 -0.01431792
v 0.03495906 0.04629548 -0.01136600
v 0.03497693 0.04559894 -0.00528193
v 0.03497197 0.04444371 0.00170539
v 0.03495736 0.04283624 0.00863077
v 0.02537389 0.04325467 -0.11267434
v 0.02537146 0.04322705 -0.11416327
v 0.03081724 0.04322643 -0.11418249
v 0.02536338 0.04328850 -0.11910999
v 0.02536366 0.04328184 -0.11894123
v 0.02537947 0.04337098 -0.10925748
v 0.03088986 0.04374315 -0.10434216
v 0.02538750 0.04367373 -0.10434335
v 0.02535910 0.04508070 -0.12173096
v 0.02537182 0.04493123 -0.11394115
v 0.02537510 0.04497505 -0.11193464
v 0.02544424 0.04604191 -0.06960035
v 0.02544424 0.04774538 -0.06960033
v 0.02541306 0.04490081 -0.08869387
v 0.02541303 0.04660445 -0.08871448
v 0.02538726 0.04536834 -0.10448652
v 0.02675373 0.04629219 -0.06522739
v 0.02724006 0.04633897 -0.06456284
v 0.02724006 0.04804153 -0.06456283
v 0.02591674 0.04618513 -0.06690475
v 0.02623495 0.04793483 -0.06614552
v 0.02590070 0.04788571 -0.06694972
v 0.02566691 0.04613724 -0.06773908
v 0.02548800 0.04778565 -0.06877772
v 0.03229815 0.04684251 -0.05373592
v 0.03292872 0.04692829 -0.05050982
v 0.03250351 0.04857042 -0.05279179
v 0.03376760 0.04704171 -0.04398739
v 0.03376760 0.04873818 -0.04398738
v 0.03308528 0.04865073 -0.04953267
v 0.03126068 0.04671597 -0.05745978
v 0.03161633 0.04845838 -0.05634308
v 0.03000107 0.04658326 -0.06052792
v 0.03052131 0.04833714 -0.05940092
v 0.02936444 0.04822478 -0.06169927
v 0.02795628 0.04640104 -0.06368303
v 0.02818228 0.04812225 -0.06340539
v 0.02754603 0.04806844 -0.06418697
v 0.02813708 0.04641619 -0.06346092
v 0.02818229 0.04641993 -0.06340540
v 0.02957707 0.04654263 -0.06133070
v 0.03399285 0.04706456 -0.04143217
v 0.03444875 0.04706130 -0.03420662
v 0.03446481 0.04705890 -0.03386319
v 0.03431490 0.04877420 -0.03675793
v 0.03466642 0.04700794 -0.02868596
v 0.03480515 0.04691266 -0.02350614
v 0.03482673 0.04687696 -0.02246382
v 0.03484711 0.04689146 -0.02138579
v 0.03497116 0.04609711 0.00214330
v 0.03495629 0.04446500 0.00916752
v 0.03494841 0.04100090 0.01455843
v 0.03494819 0.04272600 0.01483954
v 0.03494773 0.04067011 0.01547942
v 0.03494663 0.04057502 0.02032866
v 0.03494664 0.03866282 0.02034967
v 0.03494663 0.04056634 0.02034970
v 0.03527350 -0.03212590 0.03117911
v 0.03494713 -0.01840724 0.04136238
v 0.03512534 -0.01840699 0.04128025
v 0.03512538 -0.01841295 0.04127780
v 0.03494712 -0.01970658 0.04080270
v 0.03514688 -0.02120827 0.03998353
v 0.03494708 -0.02316675 0.03898759
v 0.03517172 -0.02388798 0.03844016
v 0.03494706 -0.02438607 0.03822283
v 0.03519979 -0.02644010 0.03664623
v 0.03494700 -0.02750679 0.03591126
v 0.03522906 -0.02883685 0.03462096
v 0.03494697 -0.02885968 0.03473028
v 0.03494684 -0.03419861 0.02867955
v 0.03494691 -0.03166204 0.03186604
v 0.03524252 -0.02984659 0.03365388
v 0.03527350 0.03178336 0.03117944
v 0.03494693 0.03048248 0.03278642
v 0.03494685 0.03318676 0.02958432
v 0.03494683 0.03385609 0.02867989
v 0.03524252 0.02950402 0.03365417
v 0.03494695 0.02955311 0.03374203
v 0.03522906 0.02849428 0.03462126
v 0.03494702 0.02657353 0.03639144
v 0.03519980 0.02609750 0.03664650
v 0.03494705 0.02490047 0.03764137
v 0.03517172 0.02354536 0.03844039
v 0.03494710 0.02159653 0.03968899
v 0.03514688 0.02086565 0.03998374
v 0.03494713 0.01807058 0.04136017
v 0.03512539 0.01807030 0.04127798
v 0.03512534 0.01806434 0.04128046
v 0.03494714 0.01806459 0.04136257
v 0.03494665 -0.03867571 0.02105015
v 0.03494714 0.01721081 0.04169632
v 0.03494721 0.01436419 0.04457954
v 0.03494717 0.01336628 0.04292355
v 0.03494722 0.01231900 0.04510363
v 0.03494674 -0.03682877 0.02458024
v 0.03494673 -0.03681540 0.02460361
v 0.03494673 -0.03680060 0.02462943
v 0.03494724 0.00974660 0.04562965
v 0.03494720 0.00852529 0.04394053
v 0.03494725 0.00487325 0.04626811
v 0.03494721 0.00471883 0.04440358
v 0.03494726 -0.00017098 0.04648477
v 0.03494721 -0.00017134 0.04461204
v 0.03494726 -0.00469253 0.04631081
v 0.03494721 -0.00511115 0.04439922
v 0.03494724 -0.00905610 0.04580242
v 0.03494719 -0.01001270 0.04374595
v 0.03494722 -0.01324085 0.04496498
v 0.03494674 0.03648630 0.02458060
v 0.03494674 0.03849142 0.02456593
v 0.03494665 0.03833328 0.02105054
v 0.03494683 0.03612597 0.02849018
v 0.03494674 0.03645812 0.02462979
v 0.03494674 0.03647292 0.02460397
v 0.03494718 -0.01224268 0.04328715
v 0.03494717 -0.01447067 0.04271332
v 0.03494719 -0.01722310 0.04378744
v 0.03521373 -0.01224256 0.04316416
v 0.03519005 -0.00535579 0.04426530
v 0.03519005 0.00501311 0.04426533
v 0.03521373 0.01189990 0.04316429
v 0.03521892 0.04153078 0.01286996
v 0.03520604 0.03993547 0.01726997
v 0.03517644 0.03647068 0.02450028
v 0.03517658 0.03648405 0.02447686
v 0.03519369 0.03833041 0.02093846
v 0.03517644 -0.03681315 0.02449992
v 0.03519369 -0.03867286 0.02093807
v 0.03517658 -0.03682652 0.02447647
v 0.03521893 -0.04187314 0.01286954
v 0.03520604 -0.04027786 0.01726956
f 66 67 68
f 68 85 66
f 68 84 85
f 69 84 68
f 69 68 70
f 70 68 71
f 71 90 70
f 71 89 90
f 88 89 71
f 88 87 89
f 38 87 88
f 38 86 87
f 40 86 38
f 69 83 84
f 82 83 69
f 82 3 83
f 83 3 4
f 83 4 100
f 100 4 5
f 100 5 6
f 100 6 7
f 131 100 7
f 131 7 132
f 132 7 8
f 132 8 133
f 133 8 114
f 113 114 8
f 8 129 113
f 8 128 129
f 9 128 8
f 9 127 128
f 94 127 9
f 93 94 9
f 9 118 93
f 9 117 118
f 10 117 9
f 10 116 117
f 115 116 10
f 10 137 115
f 10 136 137
f 447 137 136
f 447 136 446
f 446 432 447
f 447 432 376
f 447 376 444
f 444 376 374
f 444 374 443
f 443 116 444
f 443 117 116
f 320 117 443
f 319 117 320
f 319 118 117
f 319 93 118
f 318 93 319
f 317 93 318
f 317 94 93
f 316 94 317
f 316 127 94
f 315 127 316
f 315 314 127
f 313 314 315
f 314 313 128
f 128 313 369
f 128 369 129
f 129 369 368
f 129 368 113
f 113 368 367
f 366 113 367
f 366 114 113
f 364 114 366
f 364 133 114
f 363 133 364
f 362 133 363
f 132 133 362
f 362 348 132
f 132 348 346
f 132 346 131
f 131 346 345
f 131 345 80
f 80 345 351
f 80 351 353
f 81 80 353
f 353 361 81
f 81 361 360
f 81 360 359
f 359 356 81
f 81 356 338
f 81 338 337
f 337 340 81
f 81 340 343
f 81 343 332
f 81 332 73
f 73 332 334
f 73 334 328
f 327 73 328
f 327 75 73
f 327 76 75
f 323 76 327
f 326 323 327
f 321 323 326
f 321 322 323
f 325 323 322
f 324 323 325
f 324 194 323
f 195 194 324
f 194 208 323
f 323 208 76
f 208 34 76
f 208 33 34
f 207 33 208
f 207 27 33
f 212 27 207
f 212 213 27
f 206 213 212
f 206 28 213
f 205 28 206
f 28 205 44
f 44 205 201
f 44 201 45
f 45 201 204
f 45 204 46
f 46 204 203
f 46 203 202
f 193 46 202
f 193 51 46
f 52 51 193
f 192 52 193
f 192 47 52
f 48 47 192
f 187 48 192
f 187 49 48
f 190 49 187
f 190 50 49
f 189 50 190
f 189 53 50
f 200 53 189
f 200 54 53
f 199 54 200
f 199 29 54
f 198 29 199
f 198 30 29
f 197 30 198
f 191 30 197
f 191 31 30
f 211 31 191
f 211 32 31
f 210 32 211
f 210 25 32
f 209 25 210
f 209 26 25
f 22 26 209
f 209 184 22
f 183 22 184
f 183 23 22
f 24 23 183
f 180 24 183
f 180 19 24
f 20 19 180
f 180 181 20
f 20 181 182
f 20 182 179
f 20 179 41
f 41 179 178
f 41 178 42
f 42 178 43
f 176 43 178
f 176 58 43
f 59 58 176
f 176 177 59
f 177 60 59
f 177 61 60
f 172 61 177
f 172 173 61
f 61 173 174
f 61 174 62
f 62 174 175
f 62 175 63
f 63 175 171
f 63 171 64
f 64 171 65
f 170 65 171
f 170 55 65
f 169 55 170
f 168 55 169
f 168 56 55
f 167 56 168
f 166 56 167
f 166 57 56
f 165 57 166
f 164 57 165
f 164 35 57
f 36 35 164
f 162 36 164
f 162 164 163
f 161 162 163
f 161 159 162
f 160 159 161
f 159 160 39
f 39 37 159
f 159 37 36
f 39 160 40
f 40 160 188
f 40 188 86
f 86 188 287
f 287 188 186
f 287 186 283
f 283 282 287
f 287 282 281
f 287 281 280
f 287 280 288
f 288 280 286
f 288 286 289
f 284 288 289
f 284 289 285
f 89 288 284
f 89 87 288
f 86 288 87
f 90 89 284
f 90 284 70
f 70 284 276
f 70 276 277
f 70 277 278
f 278 279 70
f 70 279 272
f 70 272 271
f 271 270 70
f 70 270 275
f 70 275 69
f 69 275 274
f 69 274 273
f 273 269 69
f 69 269 268
f 69 268 82
f 82 268 267
f 82 267 266
f 82 266 265
f 82 265 97
f 97 265 263
f 97 263 96
f 96 263 264
f 96 264 262
f 253 96 262
f 253 95 96
f 254 95 253
f 254 98 95
f 251 98 254
f 98 251 99
f 99 251 250
f 250 104 99
f 249 104 250
f 249 156 104
f 156 105 104
f 158 105 156
f 156 157 158
f 158 106 105
f 155 106 158
f 154 106 155
f 154 111 106
f 153 111 154
f 257 111 153
f 257 112 111
f 107 112 257
f 257 252 107
f 107 252 108
f 451 108 252
f 252 261 451
f 451 261 260
f 225 260 261
f 226 260 225
f 226 259 260
f 258 259 226
f 411 259 258
f 411 258 416
f 416 258 304
f 416 304 305
f 416 305 417
f 417 305 418
f 418 305 391
f 391 305 306
f 391 306 392
f 392 306 307
f 392 307 390
f 390 307 308
f 390 308 388
f 388 389 390
f 389 393 390
f 390 393 392
f 378 392 393
f 125 378 393
f 124 378 125
f 103 378 124
f 103 124 17
f 17 102 103
f 103 102 391
f 391 102 448
f 448 102 101
f 450 448 101
f 450 101 449
f 449 101 110
f 449 110 452
f 452 110 109
f 452 109 451
f 18 109 110
f 108 109 18
f 18 107 108
f 1 107 18
f 1 112 107
f 1 111 112
f 106 111 1
f 1 105 106
f 1 104 105
f 99 104 1
f 2 99 1
f 2 98 99
f 95 98 2
f 95 2 96
f 96 2 97
f 97 2 82
f 452 259 449
f 452 260 259
f 18 110 101
f 18 101 17
f 449 416 450
f 417 448 450
f 17 101 102
f 103 391 378
f 17 124 125
f 17 125 16
f 16 125 126
f 16 126 91
f 91 92 16
f 385 92 91
f 383 92 385
f 384 383 385
f 384 385 386
f 386 310 384
f 384 310 382
f 382 310 311
f 382 311 379
f 312 379 311
f 438 379 312
f 438 437 379
f 380 379 437
f 437 439 380
f 437 436 439
f 439 436 428
f 428 436 429
f 427 428 429
f 427 426 428
f 440 428 426
f 440 426 424
f 425 424 426
f 423 424 425
f 423 422 424
f 421 422 423
f 421 420 422
f 441 422 420
f 441 420 442
f 442 420 414
f 419 414 420
f 415 414 419
f 413 414 415
f 413 412 414
f 290 412 413
f 290 410 412
f 409 412 410
f 407 409 410
f 407 408 409
f 408 144 409
f 144 152 409
f 12 152 144
f 144 145 12
f 12 145 146
f 406 146 145
f 406 145 408
f 404 146 406
f 405 404 406
f 405 406 407
f 407 290 405
f 405 290 294
f 405 294 403
f 294 293 403
f 403 293 292
f 403 292 401
f 401 292 291
f 401 291 399
f 399 291 295
f 399 295 395
f 395 398 399
f 395 394 398
f 394 395 396
f 134 394 396
f 134 396 397
f 396 297 397
f 397 297 433
f 397 433 434
f 445 397 434
f 434 435 445
f 434 431 435
f 435 431 430
f 430 431 432
f 432 431 377
f 445 435 430
f 445 430 446
f 446 135 445
f 445 135 397
f 434 433 431
f 396 296 297
f 395 296 396
f 135 134 397
f 134 135 11
f 11 143 134
f 11 142 143
f 12 142 11
f 12 141 142
f 120 141 12
f 402 141 120
f 400 141 402
f 401 400 402
f 399 400 401
f 402 120 119
f 402 119 404
f 403 402 404
f 12 119 120
f 400 142 141
f 398 142 400
f 394 143 142
f 11 135 136
f 143 394 134
f 398 394 142
f 399 398 400
f 395 295 296
f 401 402 403
f 403 404 405
f 404 119 146
f 12 146 119
f 12 151 152
f 13 151 12
f 13 150 151
f 147 150 13
f 442 150 147
f 147 13 148
f 148 441 147
f 148 424 441
f 149 424 148
f 148 14 149
f 149 14 138
f 138 14 139
f 139 14 15
f 139 15 140
f 140 15 121
f 439 140 121
f 121 15 122
f 380 121 122
f 380 122 381
f 381 122 123
f 122 16 123
f 381 123 383
f 382 381 383
f 122 15 16
f 140 439 139
f 139 439 440
f 139 440 138
f 138 424 149
f 148 13 14
f 442 151 150
f 409 151 442
f 409 152 151
f 408 145 144
f 406 408 407
f 407 410 290
f 409 414 412
f 442 414 409
f 147 441 442
f 419 420 421
f 424 422 441
f 138 440 424
f 425 426 427
f 439 428 440
f 429 436 437
f 380 439 121
f 379 380 381
f 429 437 438
f 379 381 382
f 386 309 310
f 388 309 386
f 386 385 387
f 386 387 388
f 382 383 384
f 383 123 92
f 385 91 387
f 123 16 92
f 387 91 126
f 387 126 389
f 125 393 126
f 389 126 393
f 388 387 389
f 388 308 309
f 378 391 392
f 391 448 418
f 418 448 417
f 450 416 417
f 449 411 416
f 449 259 411
f 225 261 252
f 252 224 225
f 252 223 224
f 252 222 223
f 257 222 252
f 153 222 257
f 153 221 222
f 220 221 153
f 153 154 220
f 220 154 155
f 220 155 219
f 158 219 155
f 157 219 158
f 157 256 219
f 249 256 157
f 249 255 256
f 250 255 249
f 250 248 255
f 251 248 250
f 251 246 248
f 254 246 251
f 254 247 246
f 253 247 254
f 253 244 247
f 262 244 253
f 262 231 244
f 264 231 262
f 264 232 231
f 263 232 264
f 241 232 263
f 241 263 242
f 263 265 242
f 242 265 266
f 242 266 243
f 266 267 243
f 243 267 268
f 243 268 234
f 234 268 269
f 234 269 233
f 269 273 233
f 233 273 274
f 233 274 235
f 235 274 275
f 235 275 270
f 270 271 235
f 235 271 272
f 235 272 236
f 272 237 236
f 279 237 272
f 279 238 237
f 278 238 279
f 278 239 238
f 277 239 278
f 277 240 239
f 276 240 277
f 240 276 245
f 245 276 284
f 245 284 230
f 230 284 285
f 230 285 229
f 229 285 286
f 229 286 280
f 228 229 280
f 280 281 228
f 228 281 282
f 228 282 227
f 227 282 283
f 227 283 186
f 186 218 227
f 185 218 186
f 451 260 452
f 451 109 108
f 157 156 249
f 289 286 285
f 287 288 86
f 159 36 162
f 163 164 165
f 28 27 213
f 206 212 207
f 326 327 328
f 128 127 314
f 443 372 320
f 443 374 372
f 373 372 374
f 373 374 375
f 375 374 376
f 375 376 377
f 371 372 373
f 371 320 372
f 370 320 371
f 370 319 320
f 216 319 370
f 216 318 319
f 317 318 216
f 215 317 216
f 215 316 317
f 315 316 215
f 215 214 315
f 214 313 315
f 214 369 313
f 299 369 214
f 299 368 369
f 298 368 299
f 298 367 368
f 300 367 298
f 300 366 367
f 302 366 300
f 302 364 366
f 301 364 302
f 363 364 301
f 301 303 363
f 363 303 365
f 363 365 362
f 362 365 349
f 362 349 348
f 348 349 346
f 346 349 350
f 346 350 347
f 345 346 347
f 345 347 351
f 351 347 352
f 351 352 353
f 353 352 354
f 353 354 355
f 355 361 353
f 355 360 361
f 357 360 355
f 357 359 360
f 356 359 357
f 356 357 338
f 338 357 358
f 338 358 339
f 337 338 339
f 337 339 340
f 339 341 340
f 340 341 342
f 340 342 343
f 343 342 344
f 343 344 332
f 332 344 333
f 332 333 334
f 334 333 335
f 334 335 328
f 328 335 336
f 328 336 326
f 326 336 331
f 326 331 321
f 321 331 322
f 330 322 331
f 330 325 322
f 329 325 330
f 329 324 325
f 195 324 329
f 329 196 195
f 217 196 329
f 432 377 376
f 446 430 432
f 446 136 135
f 444 137 447
f 444 115 137
f 11 136 10
f 116 115 444
f 80 100 131
f 80 130 100
f 78 130 80
f 79 78 80
f 77 78 79
f 79 80 72
f 72 80 81
f 72 81 73
f 72 73 74
f 74 73 75
f 74 75 21
f 21 75 76
f 21 76 34
f 82 2 3

