# https://github.com/mikedh/trimesh
v 0.03550125 0.03733868 -0.12122922
v 0.03550125 -0.03983157 -0.12122944
v 0.03030811 0.03839397 -0.12122921
v -0.00631681 -0.02618575 -0.12122940
v 0.00001680 -0.03251947 -0.12122942
v 0.00760100 -0.03728503 -0.12122943
v 0.01605548 -0.04024347 -0.12122944
v 0.02495631 -0.04124644 -0.12122945
v 0.03030776 -0.04088690 -0.12122944
v -0.01108224 -0.01860147 -0.12122938
v -0.01404052 -0.01014693 -0.12122936
v -0.01504333 -0.00124608 -0.12122932
v -0.01404036 0.00765475 -0.12122929
v -0.01108192 0.01610923 -0.12122928
v -0.00631636 0.02369343 -0.12122925
v 0.00001737 0.03002704 -0.12122924
v 0.00760165 0.03479246 -0.12122922
v 0.01605619 0.03775075 -0.12122922
v 0.02495703 0.03875356 -0.12122922
v 0.03550125 -0.04124676 -0.07840352
v 0.03550125 0.03875323 -0.07840309
v 0.03550125 0.03733882 -0.07840311
v 0.03550125 -0.03983214 -0.07840350
v 0.02495831 0.03875334 -0.07840279
v 0.03030939 0.03839374 -0.07840296
v 0.03030903 -0.04088712 -0.07840336
v 0.02495758 -0.04124666 -0.07840321
v 0.01605676 -0.04024370 -0.07840293
v 0.00760227 -0.03728526 -0.07840267
v 0.00001807 -0.03251969 -0.07840241
v -0.00631554 -0.02618597 -0.07840219
v -0.01108097 -0.01860168 -0.07840202
v -0.01403925 -0.01014714 -0.07840189
v -0.01504205 -0.00124630 -0.07840181
v -0.01403909 0.00765453 -0.07840180
v -0.01108065 0.01610901 -0.07840184
v -0.00631509 0.02369321 -0.07840193
v 0.00001864 0.03002683 -0.07840209
v 0.00760292 0.03479224 -0.07840229
v 0.01605746 0.03775053 -0.07840253
f 19 24 25
f 19 25 3
f 3 25 22
f 3 22 1
f 18 24 19
f 18 40 24
f 17 40 18
f 17 39 40
f 16 39 17
f 16 38 39
f 15 38 16
f 15 37 38
f 14 37 15
f 14 36 37
f 13 36 14
f 13 35 36
f 12 35 13
f 12 34 35
f 11 34 12
f 11 33 34
f 10 33 11
f 10 32 33
f 4 32 10
f 4 31 32
f 5 31 4
f 5 30 31
f 6 30 5
f 6 29 30
f 7 29 6
f 7 28 29
f 8 28 7
f 8 27 28
f 9 27 8
f 9 26 27
f 23 26 9
f 9 2 23
f 24 21 25
f 25 21 22
f 23 20 26
f 26 20 27

