# https://github.com/mikedh/trimesh
v 0.03550125 -0.03620121 -0.07300273
v 0.03550125 -0.03623441 -0.07310349
v 0.03550125 -0.04124679 -0.07310352
v 0.03550125 0.03374104 -0.07310313
v 0.03550125 0.03369743 -0.07290312
v 0.03550125 0.03875321 -0.07310311
v 0.03550125 -0.03619096 -0.06280349
v 0.03550125 -0.03619091 -0.06680349
v 0.03550125 -0.03619082 -0.07290350
v 0.03550125 0.03369748 -0.06280312
v 0.03550125 0.03369746 -0.06680312
v 0.02870730 0.03506023 -0.06280292
v 0.02870718 0.03506025 -0.06680292
v 0.02163149 0.03510135 -0.06680270
v 0.02163162 0.03510133 -0.06280271
v 0.01447139 0.03371432 -0.06680251
v 0.01447150 0.03371430 -0.06280249
v 0.00772201 0.03092719 -0.06680232
v 0.00772214 0.03092716 -0.06280232
v 0.00170556 0.02688796 -0.06680217
v 0.00170568 0.02688794 -0.06280215
v 0.00149680 0.02671411 -0.06680216
v 0.00080585 0.02611935 -0.06280214
v 0.00080573 0.02611938 -0.06680214
v 0.00051664 0.02569769 -0.06680212
v 0.00051676 0.02569768 -0.06280213
v 0.00045853 0.02536177 -0.06680214
v 0.00045865 0.02536175 -0.06280212
v 0.00145115 0.02289907 -0.07303510
v 0.00145115 0.02286770 -0.07310218
v 0.00145117 0.02535084 -0.07310216
v 0.00145133 0.02292294 -0.06680217
v 0.00145115 0.02292297 -0.07290217
v 0.00145090 -0.02541596 -0.06680242
v 0.00145072 -0.02541593 -0.07290242
v 0.00145069 -0.02784380 -0.07310244
v 0.00145071 -0.02540868 -0.07297602
v 0.00145071 -0.02536066 -0.07310243
v 0.01552800 0.03297433 -0.07310254
v 0.01137445 0.03154795 -0.07310242
v 0.00742882 0.02961962 -0.07310231
v 0.03550125 0.03264795 -0.07310314
v 0.03438872 0.03297418 -0.07310310
v 0.03550125 -0.03514132 -0.07310349
v 0.03438820 -0.03546770 -0.07310345
v 0.01137387 -0.03404110 -0.07310276
v 0.00742828 -0.03211269 -0.07310264
v 0.01552741 -0.03546754 -0.07310289
v 0.00583466 -0.03115151 -0.07310259
v 0.00583521 0.02865849 -0.07310227
v 0.00593488 -0.03121946 -0.07310258
v 0.00593543 0.02872643 -0.07310227
v 0.00078946 -0.02623959 -0.07310241
v 0.00056134 -0.02729198 -0.07310241
v 0.00059318 -0.02729199 -0.07300144
v 0.00082747 -0.02625686 -0.07290241
v 0.00060309 -0.02729199 -0.07290241
v 0.00732143 -0.03205575 -0.07310263
v 0.01564321 -0.03550283 -0.07310289
v 0.03427238 -0.03550300 -0.07310345
v 0.03427300 0.03300944 -0.07310309
v 0.01564382 0.03300961 -0.07310253
v 0.00732199 0.02956268 -0.07310232
v 0.00082529 0.02376972 -0.07290215
v 0.00060357 0.02479905 -0.07290214
v 0.00056182 0.02479904 -0.07310213
v 0.00078724 0.02375253 -0.07310215
v 0.01771475 -0.03706335 -0.07310297
v 0.01772106 -0.03703214 -0.07300200
v 0.01188923 -0.03537151 -0.07310279
v 0.01190061 -0.03534178 -0.07300182
v 0.00642385 -0.03273925 -0.07310261
v 0.00644001 -0.03271181 -0.07300165
v 0.00146927 -0.02923907 -0.07310244
v 0.00148973 -0.02921469 -0.07300148
v 0.02979861 -0.03746641 -0.07310333
v 0.02979439 -0.03743486 -0.07300237
v 0.02373989 -0.03776813 -0.07310314
v 0.02374096 -0.03773631 -0.07300219
v 0.00149611 -0.02920710 -0.07290244
v 0.00644503 -0.03270327 -0.07290260
v 0.01190416 -0.03533254 -0.07290278
v 0.01419623 -0.03612408 -0.07290285
v 0.01772303 -0.03702243 -0.07290297
v 0.02131888 -0.03756482 -0.07290308
v 0.02979309 -0.03742504 -0.07290333
v 0.02374129 -0.03772641 -0.07290316
v 0.03213205 0.03454135 -0.07290303
v 0.03214025 0.03458229 -0.07310302
v 0.02859235 0.03511389 -0.07310291
v 0.02858590 0.03507257 -0.07290292
v 0.02495465 0.03529505 -0.07310281
v 0.02495466 0.03525330 -0.07290281
v 0.02131670 0.03511316 -0.07310269
v 0.02131914 0.03507146 -0.07290269
v 0.01776887 0.03458087 -0.07310259
v 0.01777710 0.03453995 -0.07290260
v 0.01418541 0.03367103 -0.07310250
v 0.01419661 0.03363081 -0.07290250
v 0.01079559 0.03243894 -0.07310239
v 0.01081177 0.03240046 -0.07290240
v 0.00748117 0.03084467 -0.07310230
v 0.00750064 0.03080774 -0.07290231
v 0.00438732 0.02895499 -0.07310223
v 0.00441082 0.02892049 -0.07290222
v 0.00146977 0.02674613 -0.07310215
v 0.00149661 0.02671414 -0.07290214
v 0.00070860 0.02551604 -0.07290214
v 0.00083781 0.02585558 -0.07290214
v 0.00097997 0.02619575 -0.07310215
v 0.00066860 0.02552802 -0.07310213
v 0.00101486 0.02617281 -0.07290214
v 0.00079947 -0.02836617 -0.07310242
v 0.00082833 -0.02835272 -0.07300145
v 0.00083732 -0.02834853 -0.07290243
v 0.02810176 -0.03660723 -0.07310327
v 0.02037730 -0.03644990 -0.07310305
v 0.02037762 0.03395656 -0.07310268
v 0.02810192 0.03411383 -0.07310291
v 0.00082765 -0.02625689 -0.06680240
v 0.00060327 -0.02729202 -0.06680240
v 0.00060375 0.02479900 -0.06680214
v 0.00082547 0.02376969 -0.06680215
v 0.03476664 -0.03640417 -0.06680347
v 0.02808443 -0.03761261 -0.06680328
v 0.02113107 -0.03754552 -0.06680307
v 0.01820406 -0.03711636 -0.06680299
v 0.01419642 -0.03612411 -0.06680286
v 0.01119514 -0.03505242 -0.06680276
v 0.00149629 -0.02920713 -0.06680244
v 0.00474308 -0.03163743 -0.06680255
v 0.00750036 -0.03330090 -0.06680264
v 0.00083798 0.02585555 -0.06680214
v 0.00083749 -0.02834857 -0.06680242
v 0.00775309 -0.04124653 -0.07310269
v 0.00554737 -0.04073369 -0.07310262
v 0.00554809 0.03824066 -0.07310221
v -0.00199805 0.03352925 -0.07310202
v -0.00844225 0.02739623 -0.07310186
v -0.01352107 0.02009231 -0.07310174
v -0.01702691 0.01191610 -0.07310168
v -0.01881645 0.00320178 -0.07310168
v -0.01881653 -0.00569438 -0.07310171
v -0.01702715 -0.01440871 -0.07310182
v -0.01352146 -0.02258500 -0.07310196
v -0.00844276 -0.02988900 -0.07310215
v -0.00199867 -0.03602215 -0.07310238
v 0.00775381 0.03875346 -0.07310228
v 0.03476676 -0.03640420 -0.06280348
v 0.02808455 -0.03761263 -0.06280328
v 0.02113119 -0.03754554 -0.06280307
v 0.00117216 -0.02893183 -0.06280243
v 0.00474319 -0.03163745 -0.06280255
v 0.01119526 -0.03505244 -0.06280275
v 0.01820417 -0.03711638 -0.06280298
v 0.00045817 -0.02785480 -0.06280240
v 0.00057457 -0.02832304 -0.06280240
v 0.00117204 -0.02893182 -0.06680244
v 0.00057445 -0.02832302 -0.06680241
v 0.00045805 -0.02785477 -0.06680241
f 12 10 11
f 11 13 12
f 12 13 14
f 12 14 15
f 15 14 16
f 15 16 17
f 17 16 18
f 17 18 19
f 19 18 20
f 103 20 18
f 18 101 103
f 18 99 101
f 99 100 101
f 101 100 102
f 148 102 100
f 137 102 148
f 137 104 102
f 138 104 137
f 138 106 104
f 105 104 106
f 105 106 107
f 110 107 106
f 110 112 107
f 109 112 110
f 109 110 108
f 108 110 111
f 139 111 110
f 66 111 139
f 140 66 139
f 140 67 66
f 141 67 140
f 141 30 67
f 29 67 30
f 64 67 29
f 29 33 64
f 123 64 33
f 123 33 32
f 122 64 123
f 122 65 64
f 65 66 64
f 66 65 108
f 65 122 108
f 108 122 133
f 38 30 141
f 38 117 30
f 59 117 38
f 38 48 59
f 38 46 48
f 47 46 38
f 38 58 47
f 38 51 58
f 49 51 38
f 38 36 49
f 116 30 117
f 116 50 30
f 60 50 116
f 45 50 60
f 45 52 50
f 63 52 45
f 45 41 63
f 45 40 41
f 39 40 45
f 62 39 45
f 45 118 62
f 45 119 118
f 61 119 45
f 45 43 61
f 45 42 43
f 44 42 45
f 50 31 30
f 141 142 38
f 38 142 143
f 38 143 53
f 53 143 144
f 53 144 145
f 145 54 53
f 146 54 145
f 146 113 54
f 113 114 54
f 54 114 55
f 114 115 55
f 55 115 57
f 121 57 115
f 121 115 134
f 134 115 80
f 134 80 130
f 130 80 131
f 131 80 81
f 131 81 132
f 132 81 129
f 82 129 81
f 81 73 82
f 82 73 71
f 82 71 83
f 83 71 69
f 83 69 84
f 84 127 83
f 84 126 127
f 85 126 84
f 87 126 85
f 87 125 126
f 125 151 126
f 125 150 151
f 124 150 125
f 124 149 150
f 7 149 124
f 124 8 7
f 9 8 124
f 9 124 86
f 77 9 86
f 77 86 79
f 79 86 87
f 78 77 79
f 76 77 78
f 3 76 78
f 3 78 135
f 135 78 68
f 135 68 70
f 68 69 70
f 68 79 69
f 69 79 85
f 135 70 136
f 136 70 72
f 70 71 72
f 136 72 147
f 147 72 74
f 72 73 74
f 74 73 75
f 74 75 113
f 147 74 146
f 2 76 3
f 2 1 76
f 76 1 77
f 78 79 68
f 1 9 77
f 86 124 125
f 126 151 155
f 86 125 87
f 79 87 85
f 126 155 127
f 127 155 128
f 154 128 155
f 154 129 128
f 83 127 128
f 69 85 84
f 70 69 71
f 83 128 82
f 72 71 73
f 81 75 73
f 82 128 129
f 132 129 154
f 153 132 154
f 153 131 132
f 80 75 81
f 75 80 114
f 130 131 153
f 152 130 153
f 152 158 130
f 157 158 152
f 157 159 158
f 156 159 157
f 156 160 159
f 160 156 27
f 27 156 28
f 26 27 28
f 26 25 27
f 23 25 26
f 23 24 25
f 22 24 23
f 21 22 23
f 21 20 22
f 105 22 20
f 120 57 121
f 120 56 57
f 35 56 120
f 120 34 35
f 35 53 56
f 56 53 55
f 37 53 35
f 56 55 57
f 114 80 115
f 113 75 114
f 74 113 146
f 53 54 55
f 37 38 53
f 64 66 67
f 139 110 138
f 108 111 66
f 108 133 109
f 109 133 112
f 22 112 133
f 107 112 22
f 107 22 105
f 103 104 105
f 110 106 138
f 103 102 104
f 148 100 98
f 148 98 96
f 97 96 98
f 97 98 99
f 16 97 99
f 95 97 16
f 95 96 97
f 95 94 96
f 93 94 95
f 93 92 94
f 91 92 93
f 14 91 93
f 91 90 92
f 6 92 90
f 6 90 89
f 89 4 6
f 4 89 88
f 88 5 4
f 5 88 13
f 13 88 91
f 88 89 90
f 148 92 6
f 88 90 91
f 148 94 92
f 14 93 95
f 96 94 148
f 99 98 100
f 101 102 103
f 105 20 103
f 19 20 21
f 16 99 18
f 16 14 95
f 13 91 14
f 13 11 5

