# https://github.com/mikedh/trimesh
v 0.01237053 -0.03812242 -0.08116679
v 0.01110490 -0.03767961 -0.08173221
v 0.01263922 -0.03821036 -0.08106858
v 0.01795085 -0.03953489 -0.08038761
v 0.01778886 -0.03950574 -0.08038800
v 0.01575473 -0.03908059 -0.08041862
v 0.01398111 -0.03861849 -0.08068226
v 0.02441838 -0.04015521 -0.08038660
v 0.02239130 -0.04007040 -0.08038680
v 0.02097199 -0.03995392 -0.08038697
v 0.01925479 -0.03974458 -0.08038732
v -0.01478258 0.00440628 -0.12388874
v -0.01504134 -0.00016999 -0.12388871
v -0.01280999 0.01301700 -0.12388901
v -0.01174307 0.01574750 -0.12388916
v -0.01433551 0.00733325 -0.12388878
v -0.01367429 0.01021485 -0.12388889
v -0.00905076 0.02089580 -0.12388957
v -0.01049136 0.01836897 -0.12388936
v -0.00744697 0.02328832 -0.12388981
v 0.01264601 0.03789315 -0.12389296
v 0.01004152 0.03694999 -0.12389255
v 0.00750869 0.03582891 -0.12389215
v 0.00502552 0.03451570 -0.12389176
v 0.00264867 0.03303687 -0.12389138
v 0.00035697 0.03137664 -0.12389102
v -0.00182538 0.02954611 -0.12389068
v -0.00381875 0.02762011 -0.12389038
v -0.00567162 0.02556346 -0.12389008
v 0.01527503 0.03864520 -0.12389337
v 0.02435413 0.03983566 -0.12389482
v 0.02332571 0.03980101 -0.12389466
v 0.02063025 0.03959971 -0.12389422
v 0.01795332 0.03921661 -0.12389380
v -0.01478258 -0.00474625 -0.12388878
v 0.02435412 -0.04017563 -0.12389524
v -0.01433590 -0.00767117 -0.12388887
v -0.01367429 -0.01055482 -0.12388898
v -0.01281082 -0.01335458 -0.12388914
v -0.01174307 -0.01608748 -0.12388932
v -0.01048717 -0.01871695 -0.12388954
v -0.00905076 -0.02123578 -0.12388979
v -0.00745003 -0.02362408 -0.12389005
v -0.00567162 -0.02590342 -0.12389034
v -0.00381595 -0.02796299 -0.12389065
v -0.00182539 -0.02988608 -0.12389098
v 0.01264601 -0.03823313 -0.12389334
v 0.01003928 -0.03728906 -0.12389293
v 0.00750870 -0.03616887 -0.12389252
v 0.00502951 -0.03485796 -0.12389211
v 0.00264867 -0.03337684 -0.12389172
v 0.00035144 -0.03171229 -0.12389134
v 0.02063023 -0.03993968 -0.12389463
v 0.01795332 -0.03955659 -0.12389420
v 0.01527487 -0.03898514 -0.12389377
v -0.01504427 -0.00017014 -0.09528837
v -0.01496022 0.00244342 -0.09524236
v -0.01478254 0.00440622 -0.09514956
v -0.01451042 0.00635527 -0.09500788
v 0.02441778 0.03981576 -0.08079852
v 0.02441838 0.03981479 -0.08038619
v 0.02127134 0.03964230 -0.08038653
v -0.01367596 0.01019992 -0.09457422
v -0.01280952 0.01300805 -0.09412445
v -0.01174479 0.01573207 -0.09357204
v -0.01048731 0.01836431 -0.09291986
v -0.00905256 0.02087967 -0.09217594
v -0.00743963 0.02328447 -0.09133978
v -0.00567352 0.02554643 -0.09042440
v -0.00381523 0.02760827 -0.08946133
v -0.00182740 0.02952807 -0.08843128
v 0.00035912 0.03136132 -0.08729837
v 0.00264653 0.03301764 -0.08611328
v 0.00502826 0.03449870 -0.08487943
v 0.00750641 0.03580840 -0.08359574
v 0.01110490 0.03733921 -0.08173182
v 0.01182687 0.03759762 -0.08138781
v 0.01263456 0.03786844 -0.08106983
v 0.01341966 0.03811356 -0.08082297
v 0.01508532 0.03857595 -0.08048648
v 0.01703474 0.03902055 -0.08038736
v 0.01532512 0.03863618 -0.08045783
v 0.01911157 0.03938328 -0.08038697
v 0.01795085 0.03919447 -0.08038721
v -0.01451042 -0.00669554 -0.09500794
v -0.01478415 -0.00473245 -0.09515045
v -0.01485100 -0.00410847 -0.09518530
v -0.01499721 -0.00214237 -0.09526183
v 0.02441778 -0.04015618 -0.08079893
v -0.01367596 -0.01054020 -0.09457434
v -0.01280917 -0.01334934 -0.09412440
v -0.01174479 -0.01607236 -0.09357219
v -0.01048978 -0.01869988 -0.09292132
v -0.00905256 -0.02121996 -0.09217615
v -0.00743656 -0.02362899 -0.09133843
v -0.00567353 -0.02588675 -0.09042466
v -0.00381735 -0.02794639 -0.08946272
v -0.00182740 -0.02986841 -0.08843158
v 0.00036406 -0.03170551 -0.08729613
v 0.00264652 -0.03335800 -0.08611362
v 0.00503512 -0.03484301 -0.08487623
v 0.00750641 -0.03614878 -0.08359610
f 60 61 62
f 32 60 62
f 31 60 32
f 32 62 33
f 33 62 83
f 33 83 34
f 34 83 84
f 34 84 81
f 34 81 30
f 30 81 82
f 30 82 80
f 79 30 80
f 79 21 30
f 78 21 79
f 77 21 78
f 77 22 21
f 76 22 77
f 76 23 22
f 75 23 76
f 74 23 75
f 74 24 23
f 73 24 74
f 73 25 24
f 72 25 73
f 72 26 25
f 71 26 72
f 71 27 26
f 70 27 71
f 70 28 27
f 69 28 70
f 69 29 28
f 68 29 69
f 68 20 29
f 67 20 68
f 67 18 20
f 66 18 67
f 66 19 18
f 65 19 66
f 65 15 19
f 64 15 65
f 64 14 15
f 17 14 64
f 63 17 64
f 59 17 63
f 59 16 17
f 12 16 59
f 58 12 59
f 57 12 58
f 57 13 12
f 56 13 57
f 13 56 35
f 35 56 88
f 88 87 35
f 35 87 86
f 35 86 37
f 37 86 85
f 37 85 38
f 38 85 90
f 38 90 39
f 39 90 91
f 39 91 40
f 40 91 92
f 40 92 41
f 41 92 93
f 41 93 42
f 42 93 94
f 42 94 43
f 43 94 95
f 43 95 44
f 44 95 96
f 44 96 45
f 45 96 97
f 45 97 46
f 46 97 98
f 46 98 52
f 52 98 99
f 52 99 51
f 51 99 100
f 51 100 50
f 50 100 101
f 50 101 49
f 49 101 102
f 49 102 48
f 48 102 2
f 48 2 1
f 1 47 48
f 1 3 47
f 47 3 7
f 47 7 55
f 55 7 6
f 55 6 5
f 5 54 55
f 4 54 5
f 11 54 4
f 10 54 11
f 10 53 54
f 9 53 10
f 9 89 53
f 8 89 9
f 89 36 53

