# File exported by Houdini 21.0.559 (www.sidefx.com)
# 183 points
# 702 vertices
# 182 primitives
# Bounds: [-0.209272563, -0.104999997, -0.207746729] to [0.209272563, 0.0399999991, 0.207746759]
g 
v 0.0413436778 -0.101168938 0
v 0.0401423089 -0.101168938 -0.00989419036
v 4.25361186e-08 -0.104999997 1.04841433e-08
v 0.0366080105 -0.101168938 -0.0192133654
v 0.0309461895 -0.101168938 -0.0274159312
v 0.0234858878 -0.101168938 -0.0340251811
v 0.0146606704 -0.101168938 -0.0386570133
v 0.00498343026 -0.101168938 -0.0410422347
v -0.00498342887 -0.101168938 -0.0410422347
v -0.0146606695 -0.101168938 -0.0386570133
v -0.0234858841 -0.101168938 -0.0340251811
v -0.0309461895 -0.101168938 -0.0274159312
v -0.0366080105 -0.101168938 -0.0192133598
v -0.0401423126 -0.101168938 -0.00989418104
v -0.0413436778 -0.101168938 1.34714808e-08
v -0.0401423052 -0.101168938 0.00989420712
v -0.0366080031 -0.101168938 0.0192133859
v -0.0309461728 -0.101168938 0.0274159499
v -0.0234858617 -0.101168938 0.0340251997
v -0.0146606388 -0.101168938 0.0386570208
v -0.00498339208 -0.101168938 0.0410422422
v 0.00498347171 -0.101168938 0.041042231
v 0.0146607123 -0.101168938 0.0386569947
v 0.0234859288 -0.101168938 0.034025155
v 0.0309462231 -0.101168938 0.0274158902
v 0.0366080366 -0.101168938 0.0192133151
v 0.0401423201 -0.101168938 0.00989412982
v 0.201411754 0.0197089016 0
v 0.195559084 0.0197089016 -0.0482009836
v 0.174336389 -0.0155927613 -0.0429700576
v 0.179553896 -0.0155927613 0
v 0.178341255 0.0197089016 -0.0936007127
v 0.158987075 -0.0155927613 -0.0834428594
v 0.150758862 0.0197089016 -0.133560687
v 0.134398013 -0.0155927613 -0.119066261
v 0.114414923 0.0197089016 -0.165758625
v 0.10199824 -0.0155927613 -0.147769958
v 0.071421586 0.0197089016 -0.188323274
v 0.0636706874 -0.0155927613 -0.16788581
v 0.0242775045 0.0197089016 -0.19994323
v 0.0216428302 -0.0155927613 -0.17824474
v -0.0242774971 0.0197089016 -0.19994323
v -0.0216428265 -0.0155927613 -0.17824474
v -0.0714215785 0.0197089016 -0.188323274
v -0.0636706799 -0.0155927613 -0.16788581
v -0.114414908 0.0197089016 -0.16575864
v -0.101998225 -0.0155927613 -0.147769973
v -0.150758862 0.0197089016 -0.133560687
v -0.134398013 -0.0155927613 -0.119066261
v -0.178341269 0.0197089016 -0.0936006829
v -0.15898709 -0.0155927613 -0.0834428295
v -0.195559099 0.0197089016 -0.0482009426
v -0.174336389 -0.0155927613 -0.0429700203
v -0.201411754 0.0197089016 6.5628285e-08
v -0.179553896 -0.0155927613 5.85060889e-08
v -0.19555907 0.0197089016 0.0482010692
v -0.174336359 -0.0155927613 0.0429701321
v -0.178341195 0.0197089016 0.0936008021
v -0.15898703 -0.0155927613 0.0834429339
v -0.150758788 0.0197089016 0.133560792
v -0.134397954 -0.0155927613 0.119066343
v -0.114414796 0.0197089016 0.165758699
v -0.101998128 -0.0155927613 0.147770032
v -0.071421437 0.0197089016 0.188323304
v -0.0636705533 -0.0155927613 0.167885855
v -0.0242773201 0.0197089016 0.199943259
v -0.0216426663 -0.0155927613 0.178244755
v 0.0242777076 0.0197089016 0.1999432
v 0.0216430128 -0.0155927613 0.178244725
v 0.071421802 0.0197089016 0.18832317
v 0.0636708736 -0.0155927613 0.167885736
v 0.114415124 0.0197089016 0.165758491
v 0.101998419 -0.0155927613 0.147769839
v 0.150759041 0.0197089016 0.133560494
v 0.134398162 -0.0155927613 0.119066082
v 0.178341374 0.0197089016 0.0936004519
v 0.158987194 -0.0155927613 0.0834426284
v 0.195559174 0.0197089016 0.048200693
v 0.174336448 -0.0155927613 0.0429697968
v 0.147176862 -0.0462769791 -0.0362758413
v 0.151581556 -0.0462769791 0
v 0.134218797 -0.0462769791 -0.0704434589
v 0.113460429 -0.0462769791 -0.100517161
v 0.0861081332 -0.0462769791 -0.124749176
v 0.0537515581 -0.0462769791 -0.141731218
v 0.018271137 -0.0462769791 -0.150476351
v -0.0182711333 -0.0462769791 -0.150476351
v -0.0537515506 -0.0462769791 -0.141731218
v -0.0861081257 -0.0462769791 -0.124749176
v -0.113460429 -0.0462769791 -0.100517161
v -0.134218812 -0.0462769791 -0.070443444
v -0.147176877 -0.0462769791 -0.0362758078
v -0.151581556 -0.0462769791 4.9391538e-08
v -0.147176862 -0.0462769791 0.0362759046
v -0.134218767 -0.0462769791 0.0704435334
v -0.113460362 -0.0462769791 0.100517236
v -0.0861080438 -0.0462769791 0.124749228
v -0.0537514426 -0.0462769791 0.141731262
v -0.0182709992 -0.0462769791 0.150476381
v 0.0182712898 -0.0462769791 0.150476336
v 0.0537517145 -0.0462769791 0.141731158
v 0.0861082897 -0.0462769791 0.124749072
v 0.113460548 -0.0462769791 0.100517012
v 0.134218901 -0.0462769791 0.0704432726
v 0.147176921 -0.0462769791 0.0362756178
v 0.115005396 -0.0712988302 -0.0283462852
v 0.118447259 -0.0712988302 0
v 0.104879841 -0.0712988302 -0.0550451875
v 0.0886590481 -0.0712988302 -0.0785450637
v 0.0672857091 -0.0712988302 -0.0974801853
v 0.0420019738 -0.0712988302 -0.110750116
v 0.0142772403 -0.0712988302 -0.11758364
v -0.0142772356 -0.0712988302 -0.11758364
v -0.0420019701 -0.0712988302 -0.110750116
v -0.0672857091 -0.0712988302 -0.0974801928
v -0.0886590481 -0.0712988302 -0.0785450637
v -0.104879849 -0.0712988302 -0.0550451688
v -0.115005411 -0.0712988302 -0.0283462573
v -0.118447259 -0.0712988302 3.85950187e-08
v -0.115005381 -0.0712988302 0.0283463318
v -0.104879811 -0.0712988302 0.0550452396
v -0.0886590034 -0.0712988302 0.0785451159
v -0.067285642 -0.0712988302 0.09748023
v -0.0420018882 -0.0712988302 0.110750146
v -0.0142771313 -0.0712988302 0.117583655
v 0.0142773595 -0.0712988302 0.117583625
v 0.0420020968 -0.0712988302 0.110750064
v 0.0672858357 -0.0712988302 0.0974801034
v 0.0886591524 -0.0712988302 0.078544952
v 0.104879916 -0.0712988302 0.0550450347
v 0.115005448 -0.0712988302 0.0283461101
v 0.0789175779 -0.0898062363 -0.0194514338
v 0.0812794045 -0.0898062363 0
v 0.0719693378 -0.0898062363 -0.0377724208
v 0.0608385131 -0.0898062363 -0.053898219
v 0.0461719669 -0.0898062363 -0.0668916404
v 0.0288220719 -0.0898062363 -0.0759975687
v 0.00979715027 -0.0898062363 -0.0806867853
v -0.00979714748 -0.0898062363 -0.0806867853
v -0.0288220719 -0.0898062363 -0.0759975687
v -0.0461719595 -0.0898062363 -0.0668916404
v -0.0608385131 -0.0898062363 -0.053898219
v -0.0719693452 -0.0898062363 -0.0377724171
v -0.0789175779 -0.0898062363 -0.019451417
v -0.0812794045 -0.0898062363 2.64841926e-08
v -0.0789175704 -0.0898062363 0.0194514673
v -0.0719693154 -0.0898062363 0.0377724618
v -0.0608384795 -0.0898062363 0.0538982563
v -0.0461719185 -0.0898062363 0.0668916777
v -0.0288220122 -0.0898062363 0.075997591
v -0.00979707576 -0.0898062363 0.0806868002
v 0.00979723129 -0.0898062363 0.0806867778
v 0.0288221594 -0.0898062363 0.0759975314
v 0.0461720489 -0.0898062363 0.0668915883
v 0.0608385801 -0.0898062363 0.0538981371
v 0.0719693899 -0.0898062363 0.0377723202
v 0.0789176077 -0.0898062363 0.0194513164
v 0.203191474 0.0399999991 -0.0500821993
v 0.209272563 0.0399999991 0
v 0.185301661 0.0399999991 -0.0972538143
v 0.156642765 0.0399999991 -0.138773367
v 0.118880369 0.0399999991 -0.172227949
v 0.0742090642 0.0399999991 -0.195673257
v 0.0252250209 0.0399999991 -0.207746729
v -0.0252250135 0.0399999991 -0.207746729
v -0.0742090568 0.0399999991 -0.195673257
v -0.118880354 0.0399999991 -0.172227949
v -0.156642765 0.0399999991 -0.138773367
v -0.185301676 0.0399999991 -0.0972537845
v -0.203191489 0.0399999991 -0.0500821583
v -0.209272563 0.0399999991 6.81896566e-08
v -0.203191459 0.0399999991 0.0500822887
v -0.185301602 0.0399999991 0.0972539037
v -0.15664269 0.0399999991 0.138773471
v -0.118880235 0.0399999991 0.172228023
v -0.0742089152 0.0399999991 0.195673287
v -0.0252248291 0.0399999991 0.207746759
v 0.0252252314 0.0399999991 0.207746699
v 0.0742092878 0.0399999991 0.195673153
v 0.118880577 0.0399999991 0.1722278
v 0.156642944 0.0399999991 0.138773173
v 0.185301781 0.0399999991 0.0972535461
v 0.203191563 0.0399999991 0.0500818938
g 
f 1 3 2
f 2 3 4
f 4 3 5
f 5 3 6
f 6 3 7
f 7 3 8
f 8 3 9
f 9 3 10
f 10 3 11
f 11 3 12
f 12 3 13
f 13 3 14
f 14 3 15
f 15 3 16
f 16 3 17
f 17 3 18
f 18 3 19
f 19 3 20
f 20 3 21
f 21 3 22
f 22 3 23
f 23 3 24
f 24 3 25
f 25 3 26
f 26 3 27
f 27 3 1
f 28 31 30 29
f 29 30 33 32
f 32 33 35 34
f 34 35 37 36
f 36 37 39 38
f 38 39 41 40
f 40 41 43 42
f 42 43 45 44
f 44 45 47 46
f 46 47 49 48
f 48 49 51 50
f 50 51 53 52
f 52 53 55 54
f 54 55 57 56
f 56 57 59 58
f 58 59 61 60
f 60 61 63 62
f 62 63 65 64
f 64 65 67 66
f 66 67 69 68
f 68 69 71 70
f 70 71 73 72
f 72 73 75 74
f 74 75 77 76
f 76 77 79 78
f 78 79 31 28
f 31 81 80 30
f 30 80 82 33
f 33 82 83 35
f 35 83 84 37
f 37 84 85 39
f 39 85 86 41
f 41 86 87 43
f 43 87 88 45
f 45 88 89 47
f 47 89 90 49
f 49 90 91 51
f 51 91 92 53
f 53 92 93 55
f 55 93 94 57
f 57 94 95 59
f 59 95 96 61
f 61 96 97 63
f 63 97 98 65
f 65 98 99 67
f 67 99 100 69
f 69 100 101 71
f 71 101 102 73
f 73 102 103 75
f 75 103 104 77
f 77 104 105 79
f 79 105 81 31
f 81 107 106 80
f 80 106 108 82
f 82 108 109 83
f 83 109 110 84
f 84 110 111 85
f 85 111 112 86
f 86 112 113 87
f 87 113 114 88
f 88 114 115 89
f 89 115 116 90
f 90 116 117 91
f 91 117 118 92
f 92 118 119 93
f 93 119 120 94
f 94 120 121 95
f 95 121 122 96
f 96 122 123 97
f 97 123 124 98
f 98 124 125 99
f 99 125 126 100
f 100 126 127 101
f 101 127 128 102
f 102 128 129 103
f 103 129 130 104
f 104 130 131 105
f 105 131 107 81
f 107 133 132 106
f 106 132 134 108
f 108 134 135 109
f 109 135 136 110
f 110 136 137 111
f 111 137 138 112
f 112 138 139 113
f 113 139 140 114
f 114 140 141 115
f 115 141 142 116
f 116 142 143 117
f 117 143 144 118
f 118 144 145 119
f 119 145 146 120
f 120 146 147 121
f 121 147 148 122
f 122 148 149 123
f 123 149 150 124
f 124 150 151 125
f 125 151 152 126
f 126 152 153 127
f 127 153 154 128
f 128 154 155 129
f 129 155 156 130
f 130 156 157 131
f 131 157 133 107
f 133 1 2 132
f 132 2 4 134
f 134 4 5 135
f 135 5 6 136
f 136 6 7 137
f 137 7 8 138
f 138 8 9 139
f 139 9 10 140
f 140 10 11 141
f 141 11 12 142
f 142 12 13 143
f 143 13 14 144
f 144 14 15 145
f 145 15 16 146
f 146 16 17 147
f 147 17 18 148
f 148 18 19 149
f 149 19 20 150
f 150 20 21 151
f 151 21 22 152
f 152 22 23 153
f 153 23 24 154
f 154 24 25 155
f 155 25 26 156
f 156 26 27 157
f 157 27 1 133
f 158 159 28 29
f 160 158 29 32
f 161 160 32 34
f 162 161 34 36
f 163 162 36 38
f 164 163 38 40
f 165 164 40 42
f 166 165 42 44
f 167 166 44 46
f 168 167 46 48
f 169 168 48 50
f 170 169 50 52
f 54 171 170 52
f 172 171 54 56
f 173 172 56 58
f 174 173 58 60
f 175 174 60 62
f 176 175 62 64
f 177 176 64 66
f 178 177 66 68
f 70 179 178 68
f 72 180 179 70
f 74 181 180 72
f 76 182 181 74
f 78 183 182 76
f 28 159 183 78
