# File exported by Houdini 21.0.559 (www.sidefx.com)
# 83 points
# 498 vertices
# 166 primitives
# Bounds: [-0.423033506, 0.0224465653, -0.0496069044] to [-0.129116744, 0.223219454, 0.0564861819]
g 
v -0.273978919 0.0951829776 -0.0205842443
v -0.129512548 0.0351206437 -0.0496069044
v -0.136418238 0.0423107669 -0.0418160409
v -0.278910816 0.0926335081 -0.0264001135
v -0.280035704 0.0935691372 -0.0252554622
v -0.279065996 0.0967822596 -0.0197661314
v -0.274486393 0.0877095982 0.0426144674
v -0.279862314 0.0841403157 0.0475204512
v -0.129605621 0.0224465653 0.0564861819
v -0.136419207 0.0312225036 0.0506480187
v -0.279073805 0.0894309431 0.041987665
v -0.129116744 0.03445803 -0.0454133451
v -0.28067556 0.0864452571 0.0406090915
v -0.273022056 0.0971397758 -0.0176239461
v -0.271339744 0.0940958336 -0.0195134692
v -0.419938207 0.222185314 0.0278386828
v -0.417987764 0.223219454 0.0208959989
v -0.41610232 0.22093904 0.0146726714
v -0.408208072 0.218393147 0.0107516088
v -0.407137156 0.216147691 0.00974851102
v -0.417259157 0.223120689 0.0278238244
v -0.410038948 0.220410675 0.0130830593
v -0.40757823 0.21253559 0.0416017324
v -0.415209472 0.217937946 0.0384538807
v -0.417806268 0.220448464 0.0344674513
v -0.411299258 0.218102634 0.0390375704
v -0.406437099 0.214107424 0.0406110585
v -0.282679945 0.136643171 0.0290215444
v -0.281097502 0.138136715 0.0265347771
v -0.280046016 0.136688054 0.0278374013
v -0.286447108 0.127930224 0.0261832736
v -0.285759449 0.123808526 0.0215184819
v -0.280914545 0.0948313698 -0.0180672836
v -0.285965353 0.127100617 0.00601594802
v -0.286761135 0.131916925 0.00352091389
v -0.286381423 0.13651976 0.00268224999
v -0.285533696 0.122667529 0.017802855
v -0.285521686 0.123305708 0.0118231578
v -0.285626531 0.124373175 0.0090623945
v -0.27919364 0.135236129 0.0266241785
v -0.283198059 0.139640003 0.00308638532
v -0.286745429 0.132474989 0.0284456331
v -0.285356998 0.135286838 0.0290834848
v -0.27126351 0.0867862552 0.0410822704
v -0.279564112 0.13966848 0.00567873055
v -0.280391127 0.139244407 0.00378779182
v -0.42224887 0.218183398 0.022183815
v -0.416702807 0.214265972 0.012210777
v -0.409819037 0.213536203 0.00938990526
v -0.422241211 0.217773229 0.0289854631
v -0.423033506 0.211068392 0.025553491
v -0.41879642 0.205671936 0.0197104868
v -0.410088181 0.209927589 0.00969938003
v -0.41311875 0.20787096 0.0114198849
v -0.413014561 0.205130339 0.0133752637
v -0.419954002 0.208620667 0.0176111795
v -0.421541929 0.214187711 0.018379828
v -0.272973984 0.0897454098 0.0397326201
v -0.396855056 0.191794932 0.0207746718
v -0.397160858 0.191339523 0.0262087435
v -0.409895301 0.198950946 0.0304397084
v -0.414826065 0.202900633 0.0343409926
v -0.409232736 0.208394557 0.0410752632
v -0.412364781 0.204755425 0.0385383442
v -0.404492199 0.196398064 0.0327425823
v -0.399462521 0.192741483 0.0305185504
v -0.417753428 0.203911379 0.0299043823
v -0.388125539 0.205163568 0.0260889698
v -0.389534026 0.205542475 0.0302729402
v -0.388785899 0.206262872 0.0203704461
v -0.400903583 0.21240285 0.0323432982
v -0.400121272 0.213628203 0.018047547
v -0.395416617 0.208717048 0.0344712585
v -0.403086483 0.214219451 0.0285768323
v -0.394404143 0.210310131 0.0159066804
v -0.40320757 0.214973658 0.0229090098
v -0.420512587 0.2150096 0.0344715118
v -0.416951448 0.210512072 0.0386117548
v -0.412297428 0.201105118 0.0238345526
v -0.409616917 0.200412452 0.0172629766
v -0.399797916 0.194805235 0.0155680161
v -0.405047864 0.198760748 0.0147691229
v -0.421982706 0.210287422 0.0309524871
g 
f 1 3 2
f 2 4 1
f 1 4 5
f 6 1 5
f 8 9 7
f 10 7 9
f 7 11 8
f 2 3 12
f 1 14 15
f 18 22 19
f 18 17 22
f 17 21 22
f 16 21 17
f 16 25 21
f 25 26 21
f 25 24 26
f 24 27 26
f 24 23 27
f 26 27 29
f 29 27 30
f 23 28 27
f 28 30 27
f 31 32 13
f 33 34 35
f 32 37 13
f 13 37 33
f 37 38 33
f 33 38 39
f 33 39 34
f 28 11 7
f 41 1 6
f 8 11 13
f 42 31 13
f 13 11 42
f 42 11 43
f 11 28 43
f 6 36 41
f 6 33 36
f 36 33 35
f 10 44 7
f 1 15 3
f 3 15 10
f 15 44 10
f 2 12 4
f 4 12 8
f 12 9 8
f 45 14 46
f 14 1 46
f 46 1 41
f 49 53 48
f 48 53 54
f 54 55 56
f 56 55 52
f 48 54 56
f 57 48 56
f 18 48 57
f 47 18 57
f 51 57 56
f 47 57 51
f 51 56 52
f 15 14 44
f 44 14 58
f 38 37 59
f 59 37 60
f 43 63 42
f 42 63 31
f 63 64 31
f 31 64 32
f 64 62 32
f 62 65 32
f 65 66 32
f 32 66 37
f 60 37 66
f 61 65 62
f 67 61 62
f 40 45 30
f 29 30 45
f 45 40 14
f 40 58 14
f 33 5 13
f 13 5 8
f 5 4 8
f 43 28 23
f 63 43 23
f 68 69 29
f 45 70 29
f 70 68 29
f 73 71 26
f 74 26 71
f 72 75 22
f 69 73 29
f 22 75 45
f 75 70 45
f 29 73 26
f 21 26 74
f 76 21 74
f 21 76 22
f 72 22 76
f 16 50 25
f 50 77 25
f 77 24 25
f 24 78 23
f 78 63 23
f 61 67 79
f 67 52 79
f 79 52 80
f 50 16 47
f 16 17 47
f 47 17 18
f 18 19 48
f 48 19 49
f 19 20 49
f 61 74 71
f 71 73 61
f 61 73 65
f 73 66 65
f 69 66 73
f 69 60 66
f 70 75 81
f 82 81 75
f 72 82 75
f 80 82 72
f 76 80 72
f 61 79 74
f 74 79 76
f 76 79 80
f 81 59 70
f 70 59 68
f 59 60 68
f 68 60 69
f 3 10 12
f 10 9 12
f 20 19 46
f 46 41 20
f 46 19 45
f 19 22 45
f 5 33 6
f 59 81 38
f 81 39 38
f 81 82 39
f 80 52 82
f 52 55 82
f 82 55 39
f 39 55 34
f 55 54 34
f 34 54 35
f 54 53 35
f 35 53 36
f 53 49 36
f 51 50 47
f 50 51 83
f 51 52 67
f 77 50 83
f 83 51 67
f 77 83 78
f 83 67 62
f 24 77 78
f 78 83 62
f 78 62 64
f 63 78 64
f 49 20 36
f 20 41 36
f 40 30 58
f 58 30 7
f 30 28 7
f 44 58 7
