v 0.65425872 0.07957138 0.87016012
v 0.65151687 0.07945018 0.86654237
v 0.64781804 0.07705628 0.86498856
v 0.64523557 0.07680545 0.86100982
v 0.64220875 0.07789993 0.85777986
v 0.63835256 0.07847495 0.85545179
v 0.63563861 0.08144157 0.85739531
v 0.63371655 0.08538947 0.85868499
v 0.63652597 0.08802247 0.86145243
v 0.63762349 0.08812436 0.86584235
v 0.63866922 0.08636152 0.86982106
v 0.64156634 0.08575518 0.87352493
v 0.64550705 0.08623290 0.87572546
v 0.64834437 0.08692258 0.87912687
v 0.64628614 0.08657039 0.88307714
v 0.64180401 0.08754364 0.88248709
v 0.64116243 0.09123220 0.88002653
v 0.64335880 0.09494123 0.87862343
v 0.64381009 0.09952717 0.87811764
v 0.64030382 0.10245572 0.87918082
v 0.63601631 0.10100758 0.87867702
v 0.63406385 0.09712216 0.87764802
v 0.63181437 0.09329602 0.87710726
v 0.62791122 0.09087069 0.87620531
v 0.62369795 0.09014029 0.87470637
v 0.61922412 0.08933357 0.87420068
v 0.61560158 0.09016722 0.87710442
v 0.61526288 0.09258469 0.88110985
v 0.61574795 0.09541688 0.88464235
l 1 2
l 2 3
l 3 4
l 4 5
l 5 6
l 6 7
l 7 8
l 8 9
l 9 10
l 10 11
l 11 12
l 12 13
l 13 14
l 14 15
l 15 16
l 16 17
l 17 18
l 18 19
l 19 20
l 20 21
l 21 22
l 22 23
l 23 24
l 24 25
l 25 26
l 26 27
l 27 28
l 28 29
