v 0.64202517 0.06616769 0.85398600
v 0.63909530 0.06396524 0.85136779
v 0.63512434 0.06316900 0.84916020
v 0.63287547 0.06684273 0.85110769
v 0.63346618 0.07086573 0.85355744
v 0.63056288 0.07150948 0.85718128
v 0.62997190 0.06748882 0.85960607
v 0.62829171 0.06590390 0.86342697
v 0.62526140 0.06709221 0.86668175
v 0.62524934 0.07138298 0.86838335
v 0.62529405 0.07498374 0.87121001
v 0.62138553 0.07626787 0.87381365
v 0.61730108 0.07466467 0.87205829
v 0.61486945 0.07279291 0.86876097
v 0.61440855 0.07577662 0.86544529
v 0.61687113 0.07764790 0.86201222
v 0.61999242 0.07857173 0.86523073
v 0.61758224 0.07686363 0.86911927
v 0.61318187 0.07523872 0.86932992
v 0.61010058 0.07285220 0.86711224
v 0.60900834 0.06901016 0.86507855
v 0.60655820 0.06564074 0.86325907
v 0.60272414 0.06759908 0.86131319
v 0.60450432 0.07162784 0.86309835
v 0.60703142 0.07017944 0.86665279
v 0.60757512 0.06624937 0.86885514
v 0.60635108 0.06233278 0.87079913
v 0.60365852 0.05887073 0.87184222
v 0.60052231 0.05556460 0.87229864
l 1 2
l 2 3
l 3 4
l 4 5
l 5 6
l 6 7
l 7 8
l 8 9
l 9 10
l 10 11
l 11 12
l 12 13
l 13 14
l 14 15
l 15 16
l 16 17
l 17 18
l 18 19
l 19 20
l 20 21
l 21 22
l 22 23
l 23 24
l 24 25
l 25 26
l 26 27
l 27 28
l 28 29
