v 0.63325031 0.08308286 0.85395049
v 0.63217342 0.07929811 0.85167452
v 0.62890864 0.07603106 0.85050346
v 0.62626854 0.07709240 0.85411361
v 0.62812433 0.08055431 0.85646546
v 0.62984199 0.08489814 0.85592517
v 0.62780004 0.08735457 0.85268750
v 0.62492639 0.08376346 0.85332421
v 0.62428471 0.07941986 0.85217118
v 0.61978048 0.07873017 0.85327880
v 0.61897219 0.08222948 0.85611433
v 0.61847781 0.08651820 0.85739612
v 0.62149217 0.08858434 0.86033841
v 0.62442589 0.09184009 0.86192262
v 0.62873475 0.09103544 0.86372363
v 0.63207015 0.08800550 0.86441374
v 0.63326098 0.08699076 0.86868511
v 0.63066916 0.08982589 0.87117400
v 0.62732733 0.09215467 0.86874199
v 0.62390103 0.09461036 0.86677688
v 0.62097949 0.09692580 0.86937143
v 0.61904006 0.09396747 0.87212105
v 0.61871857 0.08940613 0.87174886
v 0.61692730 0.08574324 0.86966429
v 0.61450328 0.08249571 0.86745893
v 0.61273209 0.07849600 0.86842026
v 0.61035744 0.07563295 0.87090986
v 0.60771874 0.07418154 0.87437821
v 0.60530833 0.07381677 0.87833381
l 1 2
l 2 3
l 3 4
l 4 5
l 5 6
l 6 7
l 7 8
l 8 9
l 9 10
l 10 11
l 11 12
l 12 13
l 13 14
l 14 15
l 15 16
l 16 17
l 17 18
l 18 19
l 19 20
l 20 21
l 21 22
l 22 23
l 23 24
l 24 25
l 25 26
l 26 27
l 27 28
l 28 29
