v 0.59412420 0.06912878 0.84800913
v 0.59010815 0.06694758 0.84935691
v 0.58563590 0.06785596 0.85082031
v 0.58200013 0.06520459 0.85204479
v 0.57788261 0.06388278 0.85341364
v 0.57349486 0.06461456 0.85485390
v 0.57001454 0.06718947 0.85597117
v 0.56906082 0.07156526 0.85623448
v 0.57104866 0.07559875 0.85580118
v 0.57509793 0.07374331 0.85640812
v 0.57563726 0.06922738 0.85684330
v 0.57308359 0.06733032 0.86019815
v 0.56945293 0.06919213 0.86235761
v 0.56579217 0.07179607 0.86237254
v 0.56197557 0.07165561 0.85993664
v 0.55791216 0.06966745 0.85992022
v 0.55426500 0.07230469 0.86108723
v 0.55605368 0.07614697 0.86307610
v 0.55865095 0.07907139 0.86566578
v 0.56270906 0.07853938 0.86745890
v 0.56482762 0.07462707 0.86816190
v 0.56419025 0.07017489 0.86824601
v 0.56072379 0.06699705 0.86709939
v 0.55630939 0.06802521 0.86606252
v 0.55413226 0.07183078 0.86501349
v 0.55421414 0.07643608 0.86477567
v 0.55574275 0.08066257 0.86547302
v 0.55853786 0.08398428 0.86666360
v 0.56175034 0.08701505 0.86732426
l 1 2
l 2 3
l 3 4
l 4 5
l 5 6
l 6 7
l 7 8
l 8 9
l 9 10
l 10 11
l 11 12
l 12 13
l 13 14
l 14 15
l 15 16
l 16 17
l 17 18
l 18 19
l 19 20
l 20 21
l 21 22
l 22 23
l 23 24
l 24 25
l 25 26
l 26 27
l 27 28
l 28 29
