v 0.63890337 0.06139949 0.85061711
v 0.63495391 0.06058671 0.84868739
v 0.63071847 0.06148821 0.84727641
v 0.62639584 0.06297523 0.84633569
v 0.62197286 0.06157865 0.84617827
v 0.62253610 0.05834331 0.84964424
v 0.62132634 0.05634841 0.85356611
v 0.61936293 0.05419554 0.85716711
v 0.61626123 0.05095743 0.85822698
v 0.61360378 0.04839820 0.85541571
v 0.60979818 0.05098838 0.85475584
v 0.60941503 0.05542075 0.85401845
v 0.61147797 0.05907020 0.85563215
v 0.61495219 0.05647647 0.85760739
v 0.61381290 0.05212438 0.85770355
v 0.61096230 0.04837554 0.85760850
v 0.60651790 0.04777579 0.85831058
v 0.60424716 0.05164258 0.85694214
v 0.60650797 0.05523150 0.85553934
v 0.61073820 0.05499835 0.85736873
v 0.61122741 0.05365129 0.86171563
v 0.60780297 0.05184609 0.86406255
v 0.60345832 0.05149870 0.86207899
v 0.59894894 0.05131140 0.86196033
v 0.59555084 0.04899329 0.86386499
v 0.59394445 0.04527862 0.86583038
v 0.59491000 0.04142688 0.86810824
v 0.59717783 0.03744596 0.86889624
v 0.59930826 0.03351749 0.86895851
l 1 2
l 2 3
l 3 4
l 4 5
l 5 6
l 6 7
l 7 8
l 8 9
l 9 10
l 10 11
l 11 12
l 12 13
l 13 14
l 14 15
l 15 16
l 16 17
l 17 18
l 18 19
l 19 20
l 20 21
l 21 22
l 22 23
l 23 24
l 24 25
l 25 26
l 26 27
l 27 28
l 28 29
