v 0.59923850 0.08094785 0.86666274
v 0.59469717 0.08193374 0.86737477
v 0.59052441 0.08397944 0.86718848
v 0.58752291 0.08685580 0.86490354
v 0.58752335 0.08772411 0.86044903
v 0.58803954 0.09040920 0.85680611
v 0.58637846 0.09465831 0.85625453
v 0.58326731 0.09781607 0.85555839
v 0.57893756 0.09963682 0.85548510
v 0.57454797 0.10106766 0.85486729
v 0.57010681 0.10102744 0.85612645
v 0.56888945 0.10408531 0.85930911
v 0.57134042 0.10778216 0.86011003
v 0.57518429 0.11004140 0.85966371
v 0.57963158 0.10968686 0.85903059
v 0.58298460 0.10686928 0.85777301
v 0.58165348 0.10307285 0.85567123
v 0.57831901 0.10091323 0.85774120
v 0.57466755 0.10097888 0.86053376
v 0.57056211 0.10233373 0.86180239
v 0.56597453 0.10286032 0.86062950
v 0.56164841 0.10280646 0.85873880
v 0.55740011 0.10202247 0.86011799
v 0.55649861 0.10099797 0.86444256
v 0.55947030 0.09986396 0.86802294
v 0.56312352 0.09668427 0.86802673
v 0.56480444 0.09282850 0.86639388
v 0.56489264 0.08852796 0.86506429
v 0.56419028 0.08433654 0.86308681
l 1 2
l 2 3
l 3 4
l 4 5
l 5 6
l 6 7
l 7 8
l 8 9
l 9 10
l 10 11
l 11 12
l 12 13
l 13 14
l 14 15
l 15 16
l 16 17
l 17 18
l 18 19
l 19 20
l 20 21
l 21 22
l 22 23
l 23 24
l 24 25
l 25 26
l 26 27
l 27 28
l 28 29
