v 0.59847965 0.01188224 0.84726768
v 0.59730738 0.01578068 0.84977483
v 0.59546690 0.01991773 0.85081483
v 0.59159380 0.01819985 0.84929074
v 0.58874075 0.01477552 0.85025236
v 0.58930261 0.01050106 0.85196589
v 0.59128603 0.00647425 0.85293982
v 0.59409009 0.00299440 0.85298449
v 0.59792390 0.00510313 0.85166647
v 0.59595283 0.00942094 0.85108191
v 0.59330983 0.01316418 0.85134047
v 0.58950833 0.01503183 0.85283109
v 0.58599157 0.01454818 0.85559104
v 0.58451316 0.01015851 0.85659312
v 0.58340574 0.00594612 0.85505933
v 0.58363533 0.00128103 0.85428429
v 0.58483816 -0.00283582 0.85279534
v 0.58276942 -0.00698028 0.85245501
v 0.57857752 -0.00585120 0.85373715
v 0.57802188 -0.00112953 0.85389419
v 0.57992126 0.00297207 0.85364467
v 0.58144359 0.00630720 0.85670778
v 0.58213748 0.01072733 0.85731432
v 0.58332769 0.01475391 0.85512718
v 0.58002887 0.01822486 0.85497085
v 0.57687128 0.01895714 0.85814766
v 0.57762450 0.01781782 0.86247238
v 0.58142284 0.01776705 0.86546252
v 0.58574876 0.01789475 0.86730047
l 1 2
l 2 3
l 3 4
l 4 5
l 5 6
l 6 7
l 7 8
l 8 9
l 9 10
l 10 11
l 11 12
l 12 13
l 13 14
l 14 15
l 15 16
l 16 17
l 17 18
l 18 19
l 19 20
l 20 21
l 21 22
l 22 23
l 23 24
l 24 25
l 25 26
l 26 27
l 27 28
l 28 29
