v 0.61030809 0.07529108 0.84853249
v 0.60708305 0.07155260 0.84824493
v 0.60750561 0.06920681 0.85232313
v 0.60923208 0.07260756 0.85466457
v 0.61019956 0.07540273 0.85120418
v 0.60660248 0.07755532 0.84961193
v 0.60348196 0.07495452 0.85148129
v 0.60150330 0.07101829 0.84996647
v 0.59781322 0.06860646 0.85152562
v 0.59689247 0.07115639 0.85532716
v 0.59968143 0.07465847 0.85500564
v 0.60234624 0.07833119 0.85532223
v 0.60596620 0.07845984 0.85795564
v 0.60617166 0.07472523 0.86051564
v 0.60332051 0.07123800 0.86024273
v 0.60055639 0.06788479 0.85920205
v 0.59660897 0.06573681 0.85843491
v 0.59304384 0.06481906 0.86098966
v 0.59230469 0.06150004 0.86391584
v 0.59490152 0.05815960 0.86547297
v 0.59863240 0.05826576 0.86799573
v 0.59948775 0.06199825 0.87092575
v 0.59786501 0.06619092 0.87118945
v 0.59503367 0.06969340 0.87016994
v 0.59208384 0.07278671 0.86878590
v 0.58908758 0.07604719 0.86760875
v 0.58566044 0.07931405 0.86734499
v 0.58173115 0.08132159 0.86652227
v 0.57777002 0.08335620 0.86538829
l 1 2
l 2 3
l 3 4
l 4 5
l 5 6
l 6 7
l 7 8
l 8 9
l 9 10
l 10 11
l 11 12
l 12 13
l 13 14
l 14 15
l 15 16
l 16 17
l 17 18
l 18 19
l 19 20
l 20 21
l 21 22
l 22 23
l 23 24
l 24 25
l 25 26
l 26 27
l 27 28
l 28 29
