v 0.59603980 -0.01496514 0.85089070
v 0.59569687 -0.01333496 0.85506680
v 0.59383036 -0.01159183 0.85878077
v 0.59409201 -0.00711090 0.85818062
v 0.59632946 -0.00770326 0.85404405
v 0.59835096 -0.01186385 0.85427278
v 0.59796147 -0.01624917 0.85629360
v 0.59985142 -0.02024321 0.85788764
v 0.60061675 -0.02475151 0.85919477
v 0.60280422 -0.02877960 0.86028293
v 0.60592397 -0.03138108 0.86226635
v 0.60660892 -0.03483884 0.86504609
v 0.60369548 -0.03802711 0.86678582
v 0.59931051 -0.03890264 0.86688865
v 0.59488453 -0.03815447 0.86600389
v 0.59043283 -0.03735565 0.86592530
v 0.58612558 -0.03639181 0.86678373
v 0.58287897 -0.03418492 0.86459345
v 0.58168770 -0.03112293 0.86124531
v 0.58048946 -0.02812425 0.85810985
v 0.57984514 -0.02399246 0.85603667
v 0.58042773 -0.01958711 0.85648802
v 0.58414166 -0.01851153 0.85880985
v 0.58490970 -0.02244672 0.86078322
v 0.58064619 -0.02409415 0.86025957
v 0.57726810 -0.02204881 0.85813697
v 0.57546765 -0.01855338 0.85572908
v 0.57562263 -0.01406248 0.85488748
v 0.57697434 -0.00975452 0.85428784
l 1 2
l 2 3
l 3 4
l 4 5
l 5 6
l 6 7
l 7 8
l 8 9
l 9 10
l 10 11
l 11 12
l 12 13
l 13 14
l 14 15
l 15 16
l 16 17
l 17 18
l 18 19
l 19 20
l 20 21
l 21 22
l 22 23
l 23 24
l 24 25
l 25 26
l 26 27
l 27 28
l 28 29
