v 0.64784914 0.06942154 0.86320540
v 0.64427299 0.07064089 0.86054057
v 0.64170472 0.07465140 0.85942180
v 0.64312532 0.07739986 0.86305919
v 0.64637040 0.07866591 0.86626004
v 0.64841792 0.08100049 0.86967513
v 0.64718507 0.08328544 0.87353133
v 0.64439565 0.08680706 0.87231104
v 0.64085405 0.08795727 0.86955311
v 0.64124899 0.08454511 0.86662249
v 0.64364035 0.08239964 0.86983549
v 0.64410080 0.08353304 0.87426930
v 0.64720069 0.08394623 0.87751410
v 0.64949214 0.08475826 0.88144867
v 0.64787107 0.08617742 0.88540698
v 0.64344519 0.08711648 0.88591762
v 0.64070395 0.09004088 0.88374368
v 0.64068628 0.09381500 0.88133093
v 0.64359688 0.09726973 0.88087168
v 0.64798481 0.09666121 0.88148821
v 0.64921261 0.09367091 0.88462606
v 0.64654027 0.09278965 0.88822066
v 0.64181579 0.09314869 0.88821154
v 0.63872728 0.09266984 0.88475285
v 0.63698474 0.09113231 0.88092538
v 0.63427586 0.08938950 0.87779406
v 0.63017202 0.08847664 0.87628390
v 0.62568535 0.08826820 0.87678216
v 0.62125166 0.08949102 0.87710860
l 1 2
l 2 3
l 3 4
l 4 5
l 5 6
l 6 7
l 7 8
l 8 9
l 9 10
l 10 11
l 11 12
l 12 13
l 13 14
l 14 15
l 15 16
l 16 17
l 17 18
l 18 19
l 19 20
l 20 21
l 21 22
l 22 23
l 23 24
l 24 25
l 25 26
l 26 27
l 27 28
l 28 29
