v 0.61941195 0.10268020 0.85682908
v 0.61514378 0.10403296 0.85596608
v 0.61074363 0.10490726 0.85543503
v 0.60791921 0.10843272 0.85668041
v 0.60360691 0.10717742 0.85530726
v 0.60620570 0.10331839 0.85525803
v 0.61033219 0.10284761 0.85708310
v 0.61140488 0.10649824 0.85948503
v 0.60958774 0.10885505 0.86282407
v 0.60976375 0.11150519 0.86651147
v 0.61272659 0.11358874 0.86913008
v 0.61525967 0.11109482 0.87225653
v 0.61642168 0.10662121 0.87285924
v 0.61645713 0.10348568 0.86962935
v 0.61585610 0.10005830 0.86673375
v 0.61635801 0.09589009 0.86853276
v 0.61800190 0.09641991 0.87267506
v 0.61707380 0.10031965 0.87537446
v 0.61374498 0.10369962 0.87544893
v 0.61003927 0.10568851 0.87387272
v 0.60672635 0.10688913 0.87098768
v 0.60304100 0.10757941 0.86797362
v 0.59862724 0.10804045 0.86715538
v 0.59425301 0.10900389 0.86664203
v 0.59085014 0.11013739 0.86386120
v 0.58836653 0.10814959 0.86069366
v 0.58655411 0.10405498 0.85975448
v 0.58465803 0.10003638 0.86085478
v 0.58430237 0.09542631 0.86174574
l 1 2
l 2 3
l 3 4
l 4 5
l 5 6
l 6 7
l 7 8
l 8 9
l 9 10
l 10 11
l 11 12
l 12 13
l 13 14
l 14 15
l 15 16
l 16 17
l 17 18
l 18 19
l 19 20
l 20 21
l 21 22
l 22 23
l 23 24
l 24 25
l 25 26
l 26 27
l 27 28
l 28 29
