v 0.57701951 0.04887604 0.85384540
v 0.57430263 0.05231644 0.85470277
v 0.57240944 0.05638222 0.85529231
v 0.57008309 0.06012687 0.85602486
v 0.56899375 0.06363601 0.85866418
v 0.56953924 0.06804539 0.85941282
v 0.56701153 0.07187531 0.85990601
v 0.56304688 0.06998956 0.85823079
v 0.55934715 0.06754045 0.85947417
v 0.55574835 0.06513879 0.86068294
v 0.55208230 0.06273532 0.86191154
v 0.54777351 0.06163470 0.86333484
v 0.54397120 0.06375725 0.86455436
v 0.54230660 0.06789743 0.86505043
v 0.54329810 0.07248466 0.86467476
v 0.54715173 0.07465193 0.86338958
v 0.55117731 0.07314717 0.86208845
v 0.55188290 0.06864781 0.86191063
v 0.54817816 0.06658208 0.86372744
v 0.54521800 0.06887535 0.86623545
v 0.54383822 0.07312465 0.86731539
v 0.54337857 0.07783100 0.86691484
v 0.54542709 0.08189775 0.86643105
v 0.54997936 0.08222117 0.86583872
v 0.55224818 0.07810863 0.86614406
v 0.55188304 0.07360284 0.86612496
v 0.55061025 0.06922982 0.86610237
v 0.54805444 0.06520865 0.86639730
v 0.54525731 0.06144541 0.86649458
l 1 2
l 2 3
l 3 4
l 4 5
l 5 6
l 6 7
l 7 8
l 8 9
l 9 10
l 10 11
l 11 12
l 12 13
l 13 14
l 14 15
l 15 16
l 16 17
l 17 18
l 18 19
l 19 20
l 20 21
l 21 22
l 22 23
l 23 24
l 24 25
l 25 26
l 26 27
l 27 28
l 28 29
