v 0.60234600 0.09172161 0.84939490
v 0.59954562 0.09538853 0.85039006
v 0.59490700 0.09516046 0.85036498
v 0.59290855 0.09107651 0.84986458
v 0.59345800 0.08669275 0.84901511
v 0.59416044 0.08228621 0.84926301
v 0.59599692 0.07826868 0.85041082
v 0.59588518 0.07365048 0.85020147
v 0.59184211 0.07232489 0.85156870
v 0.58737790 0.07253926 0.85183001
v 0.58356032 0.07376238 0.85408604
v 0.58345356 0.07585261 0.85807347
v 0.58597959 0.07912082 0.86023086
v 0.58659805 0.08363395 0.85891424
v 0.58740769 0.08677212 0.85558306
v 0.58573575 0.08799863 0.85162536
v 0.58145635 0.08669511 0.85199766
v 0.57938471 0.08430646 0.85522836
v 0.58117698 0.08409903 0.85956912
v 0.58490184 0.08667624 0.86040507
v 0.58542862 0.09103148 0.85923455
v 0.58270249 0.09459810 0.86001415
v 0.57855144 0.09633587 0.86115115
v 0.57402538 0.09487988 0.86207656
v 0.57091198 0.09162973 0.86226088
v 0.56951948 0.08741510 0.86284935
v 0.57051199 0.08310685 0.86400655
v 0.57313621 0.07991908 0.86572443
v 0.57612422 0.07666268 0.86693971
l 1 2
l 2 3
l 3 4
l 4 5
l 5 6
l 6 7
l 7 8
l 8 9
l 9 10
l 10 11
l 11 12
l 12 13
l 13 14
l 14 15
l 15 16
l 16 17
l 17 18
l 18 19
l 19 20
l 20 21
l 21 22
l 22 23
l 23 24
l 24 25
l 25 26
l 26 27
l 27 28
l 28 29
