v 0.65177189 0.06639630 0.86075078
v 0.64823065 0.06509184 0.85795468
v 0.64450732 0.06461078 0.85539578
v 0.64040138 0.06295565 0.85416908
v 0.63600905 0.06205250 0.85520445
v 0.63335526 0.06102765 0.85883100
v 0.63154014 0.05936642 0.86278135
v 0.63181600 0.06137759 0.86694295
v 0.62821209 0.06029726 0.86966505
v 0.62444902 0.05783966 0.86884299
v 0.62096946 0.05523575 0.86764221
v 0.61701806 0.05260343 0.86790703
v 0.61534168 0.04905156 0.87025657
v 0.61753490 0.04588827 0.87253997
v 0.62201280 0.04509823 0.87395581
v 0.62423905 0.04835116 0.87605687
v 0.62321304 0.05279477 0.87610156
v 0.62041857 0.05593962 0.87417315
v 0.61684074 0.05739810 0.87173877
v 0.61248873 0.05868125 0.87057677
v 0.60951696 0.06219411 0.86976503
v 0.60980165 0.06666613 0.87012269
v 0.61270768 0.06939770 0.87214342
v 0.61675853 0.06775848 0.87339308
v 0.61853568 0.06359606 0.87397888
v 0.61713817 0.05937320 0.87445679
v 0.61369515 0.05658196 0.87343714
v 0.61001280 0.05534974 0.87115504
v 0.60596449 0.05467625 0.86874543
l 1 2
l 2 3
l 3 4
l 4 5
l 5 6
l 6 7
l 7 8
l 8 9
l 9 10
l 10 11
l 11 12
l 12 13
l 13 14
l 14 15
l 15 16
l 16 17
l 17 18
l 18 19
l 19 20
l 20 21
l 21 22
l 22 23
l 23 24
l 24 25
l 25 26
l 26 27
l 27 28
l 28 29
