v 0.60755207 0.11066576 0.85774010
v 0.60357242 0.11271570 0.85824760
v 0.60045729 0.11610165 0.85966634
v 0.59673126 0.11843029 0.86069777
v 0.59272070 0.11658984 0.85923211
v 0.58825287 0.11697230 0.85931320
v 0.58646110 0.12065248 0.86142322
v 0.58351409 0.12359375 0.86335003
v 0.58037267 0.12628972 0.86524394
v 0.57695721 0.12857298 0.86706874
v 0.57306818 0.12667561 0.86590439
v 0.57419777 0.12282220 0.86338557
v 0.57744773 0.12028209 0.86152367
v 0.57889730 0.11659766 0.85927801
v 0.58221064 0.11389037 0.85769845
v 0.58591156 0.11622205 0.85886301
v 0.58406478 0.11973561 0.86094942
v 0.58023748 0.12169579 0.86219334
v 0.57666056 0.12196778 0.86502373
v 0.57242772 0.12175939 0.86643543
v 0.56788441 0.12045228 0.86692082
v 0.56496084 0.11692608 0.86664966
v 0.56234818 0.11336098 0.86586369
v 0.55850488 0.11100080 0.86629067
v 0.55404467 0.11036419 0.86697787
v 0.54956244 0.11081090 0.86749588
v 0.54499434 0.11132712 0.86736023
v 0.54046355 0.11155791 0.86734000
v 0.53610089 0.11162392 0.86829818
l 1 2
l 2 3
l 3 4
l 4 5
l 5 6
l 6 7
l 7 8
l 8 9
l 9 10
l 10 11
l 11 12
l 12 13
l 13 14
l 14 15
l 15 16
l 16 17
l 17 18
l 18 19
l 19 20
l 20 21
l 21 22
l 22 23
l 23 24
l 24 25
l 25 26
l 26 27
l 27 28
l 28 29
