v 0.61526725 0.09347123 0.85143944
v 0.61521446 0.09768055 0.85313371
v 0.61555201 0.10080971 0.85656335
v 0.61704795 0.09692332 0.85822542
v 0.61685534 0.09462465 0.85430472
v 0.61779075 0.09121705 0.85119540
v 0.61725495 0.08683064 0.85183877
v 0.61404775 0.08372878 0.85269476
v 0.60948969 0.08378321 0.85226673
v 0.60657100 0.08324837 0.85562082
v 0.60903598 0.08306473 0.85948461
v 0.61108892 0.08515148 0.86315405
v 0.61246605 0.08880094 0.86571078
v 0.61424176 0.08971521 0.86983923
v 0.61260902 0.08880758 0.87394266
v 0.61044160 0.08661491 0.87720111
v 0.60705968 0.08376662 0.87835227
v 0.60307954 0.08138097 0.87722212
v 0.59958911 0.07902082 0.87523702
v 0.59795143 0.07559251 0.87280787
v 0.59774614 0.07125736 0.87396891
v 0.59660525 0.07034130 0.87822541
v 0.59372775 0.07371607 0.87963520
v 0.59196817 0.07687807 0.87683393
v 0.59076481 0.07918213 0.87281494
v 0.58914955 0.08223373 0.86985988
v 0.58646436 0.08532857 0.86788727
v 0.58280942 0.08745188 0.86603356
v 0.57942989 0.08817008 0.86320593
l 1 2
l 2 3
l 3 4
l 4 5
l 5 6
l 6 7
l 7 8
l 8 9
l 9 10
l 10 11
l 11 12
l 12 13
l 13 14
l 14 15
l 15 16
l 16 17
l 17 18
l 18 19
l 19 20
l 20 21
l 21 22
l 22 23
l 23 24
l 24 25
l 25 26
l 26 27
l 27 28
l 28 29
