v 0.62218443 0.09625068 0.85433771
v 0.61777946 0.09675388 0.85333822
v 0.61790533 0.10096557 0.85525696
v 0.62208398 0.09943698 0.85603522
v 0.62213209 0.09567467 0.85869398
v 0.61970652 0.09212147 0.85737427
v 0.62229080 0.09031552 0.85403210
v 0.62124235 0.08633072 0.85171366
v 0.61763842 0.08569558 0.85445047
v 0.61669524 0.08952412 0.85664402
v 0.61740718 0.09157530 0.86059298
v 0.61541305 0.08995468 0.86426758
v 0.61415167 0.08595878 0.86581481
v 0.61152646 0.08267562 0.86429177
v 0.60889109 0.07904614 0.86427927
v 0.60510435 0.07676434 0.86533650
v 0.60106188 0.07633375 0.86727637
v 0.60011589 0.07756589 0.87167952
v 0.60291649 0.07843338 0.87544128
v 0.60742281 0.07801765 0.87466286
v 0.60806707 0.07693747 0.87026695
v 0.60505677 0.07503747 0.86750606
v 0.60092926 0.07328773 0.86775853
v 0.59678525 0.07351437 0.86952942
v 0.59292733 0.07576145 0.86951117
v 0.58937426 0.07863983 0.86891533
v 0.58608809 0.08204689 0.86845333
v 0.58283162 0.08525699 0.86835003
v 0.57954052 0.08839544 0.86809682
l 1 2
l 2 3
l 3 4
l 4 5
l 5 6
l 6 7
l 7 8
l 8 9
l 9 10
l 10 11
l 11 12
l 12 13
l 13 14
l 14 15
l 15 16
l 16 17
l 17 18
l 18 19
l 19 20
l 20 21
l 21 22
l 22 23
l 23 24
l 24 25
l 25 26
l 26 27
l 27 28
l 28 29
