v 0.62099260 0.02690382 0.84434290
v 0.61932281 0.02264581 0.84451650
v 0.61650108 0.01900092 0.84459110
v 0.61324092 0.01959722 0.84760881
v 0.60890493 0.02063471 0.84726390
v 0.60728857 0.01648578 0.84764963
v 0.60610744 0.01206292 0.84817918
v 0.60181697 0.01177793 0.84646401
v 0.59906027 0.01548099 0.84696002
v 0.59843376 0.01915508 0.84954999
v 0.59924013 0.02360275 0.85001405
v 0.60036774 0.02794573 0.85057351
v 0.60437039 0.02744241 0.85251644
v 0.60523859 0.02306819 0.85316081
v 0.60228464 0.02014826 0.85105302
v 0.59940823 0.01670684 0.85117661
v 0.59884851 0.01218191 0.85166837
v 0.59560634 0.00987773 0.85403688
v 0.59381266 0.01332340 0.85662897
v 0.59611803 0.01727504 0.85576571
v 0.59838455 0.02121952 0.85460752
v 0.59823038 0.02564602 0.85554830
v 0.59496609 0.02807231 0.85765797
v 0.59111090 0.02625831 0.85955578
v 0.58787956 0.02307947 0.86051701
v 0.58368060 0.02131668 0.86129723
v 0.57951523 0.02232247 0.86319492
v 0.57611867 0.02507079 0.86416347
v 0.57306541 0.02843419 0.86473362
l 1 2
l 2 3
l 3 4
l 4 5
l 5 6
l 6 7
l 7 8
l 8 9
l 9 10
l 10 11
l 11 12
l 12 13
l 13 14
l 14 15
l 15 16
l 16 17
l 17 18
l 18 19
l 19 20
l 20 21
l 21 22
l 22 23
l 23 24
l 24 25
l 25 26
l 26 27
l 27 28
l 28 29
