v 0.62574149 0.01013106 0.84762329
v 0.62666754 0.01445773 0.84699483
v 0.62720735 0.01900041 0.84647583
v 0.62755432 0.02343171 0.84592939
v 0.62432595 0.02620960 0.84727204
v 0.62032562 0.02354780 0.84749074
v 0.61662007 0.02152896 0.84951278
v 0.61454792 0.01757239 0.84889721
v 0.61524710 0.01333381 0.84732243
v 0.61554121 0.00906092 0.84591355
v 0.61595275 0.00484847 0.84747525
v 0.61598568 0.00657953 0.85177809
v 0.61580931 0.01116308 0.85156694
v 0.61238279 0.01393180 0.85032114
v 0.60845143 0.01186606 0.84899603
v 0.60794542 0.00741245 0.84851964
v 0.60936173 0.00313263 0.84840278
v 0.60776525 0.00098147 0.85224421
v 0.60651376 0.00416895 0.85531600
v 0.60794790 0.00855858 0.85488413
v 0.60839659 0.01289904 0.85603001
v 0.60500101 0.01483620 0.85838169
v 0.60295217 0.01121116 0.86046394
v 0.60345159 0.00696153 0.85915598
v 0.60132800 0.00746897 0.85501025
v 0.60086163 0.01214807 0.85433172
v 0.60020993 0.01492109 0.85788252
v 0.59797057 0.01723357 0.86102793
v 0.59411171 0.01968450 0.86163061
l 1 2
l 2 3
l 3 4
l 4 5
l 5 6
l 6 7
l 7 8
l 8 9
l 9 10
l 10 11
l 11 12
l 12 13
l 13 14
l 14 15
l 15 16
l 16 17
l 17 18
l 18 19
l 19 20
l 20 21
l 21 22
l 22 23
l 23 24
l 24 25
l 25 26
l 26 27
l 27 28
l 28 29
