v 0.64934792 0.05643113 0.85713465
v 0.64748987 0.05263931 0.85519993
v 0.64383632 0.05065367 0.85342352
v 0.63950756 0.04913829 0.85363159
v 0.63636854 0.04587840 0.85300508
v 0.63194949 0.04700710 0.85177961
v 0.63081744 0.04938175 0.84801589
v 0.62832887 0.05311466 0.84842057
v 0.62717932 0.05654929 0.85111697
v 0.62809902 0.05847547 0.85540683
v 0.62659208 0.05609331 0.85907578
v 0.62430534 0.05252771 0.85735423
v 0.62242784 0.04933430 0.86005847
v 0.62506541 0.04727850 0.86319299
v 0.62544517 0.04832120 0.86776258
v 0.62151537 0.04821324 0.87029397
v 0.61755261 0.04613699 0.86952037
v 0.61461301 0.04276639 0.87017888
v 0.61300047 0.03838259 0.87002121
v 0.61364752 0.03429753 0.87217005
v 0.61596240 0.03285011 0.87588933
v 0.61845023 0.03572769 0.87868955
v 0.61921233 0.04007141 0.87796496
v 0.61773720 0.04321346 0.87508331
v 0.61465936 0.04480464 0.87211803
v 0.61099569 0.04579167 0.86974135
v 0.60673134 0.04674389 0.86877281
v 0.60230145 0.04712460 0.86970657
v 0.59816491 0.04697122 0.87217298
l 1 2
l 2 3
l 3 4
l 4 5
l 5 6
l 6 7
l 7 8
l 8 9
l 9 10
l 10 11
l 11 12
l 12 13
l 13 14
l 14 15
l 15 16
l 16 17
l 17 18
l 18 19
l 19 20
l 20 21
l 21 22
l 22 23
l 23 24
l 24 25
l 25 26
l 26 27
l 27 28
l 28 29
