v 0.64258433 0.05878352 0.85276307
v 0.63965381 0.05643502 0.85028805
v 0.63704444 0.05287369 0.84857927
v 0.63303742 0.05470219 0.84730888
v 0.63233617 0.05707348 0.85118766
v 0.63382529 0.05983071 0.85446456
v 0.62948823 0.06132785 0.85385560
v 0.62581868 0.05923328 0.85206816
v 0.62369357 0.05585290 0.85424033
v 0.62171106 0.05351994 0.85774116
v 0.62138644 0.05121060 0.86164475
v 0.62334322 0.05000498 0.86558673
v 0.62085179 0.05057744 0.86961166
v 0.61710939 0.04833269 0.86830820
v 0.61630186 0.04590393 0.86428589
v 0.61245040 0.04370393 0.86343528
v 0.60979383 0.04519496 0.86673733
v 0.61028866 0.04958791 0.86749814
v 0.61389550 0.05171279 0.86580051
v 0.61795152 0.05388351 0.86518633
v 0.61850892 0.05793213 0.86706764
v 0.61432676 0.05942585 0.86780452
v 0.60993537 0.05833256 0.86812164
v 0.60542668 0.05760894 0.86776430
v 0.60188640 0.05520859 0.86628324
v 0.59907943 0.05171813 0.86689195
v 0.59769742 0.04804357 0.86907007
v 0.59850523 0.04366016 0.87007684
v 0.59969254 0.03932923 0.87019354
l 1 2
l 2 3
l 3 4
l 4 5
l 5 6
l 6 7
l 7 8
l 8 9
l 9 10
l 10 11
l 11 12
l 12 13
l 13 14
l 14 15
l 15 16
l 16 17
l 17 18
l 18 19
l 19 20
l 20 21
l 21 22
l 22 23
l 23 24
l 24 25
l 25 26
l 26 27
l 27 28
l 28 29
