v 0.64752010 0.06065244 0.86071072
v 0.64338423 0.06196363 0.85962695
v 0.63863325 0.06188247 0.85982729
v 0.63494723 0.05913200 0.85966360
v 0.63472688 0.05539251 0.86247181
v 0.63553746 0.05215081 0.86583978
v 0.63336701 0.05181801 0.86972955
v 0.62902535 0.05277854 0.86849749
v 0.63094420 0.05608913 0.86611062
v 0.63526278 0.05482303 0.86672763
v 0.63944695 0.05323597 0.86746653
v 0.64019512 0.05522901 0.87139931
v 0.63601717 0.05662122 0.87216994
v 0.63175434 0.05628899 0.87350822
v 0.63164046 0.05156182 0.87400604
v 0.63584924 0.05037934 0.87246490
v 0.64034432 0.05041859 0.87242456
v 0.64253611 0.05184961 0.87612296
v 0.64012456 0.05306289 0.87982398
v 0.63590689 0.05355575 0.88137478
v 0.63152341 0.05450467 0.88167076
v 0.62763407 0.05671429 0.88083481
v 0.62521951 0.05978269 0.87836914
v 0.62423640 0.06337598 0.87589190
v 0.62255399 0.06761957 0.87558677
v 0.61991882 0.07104036 0.87739865
v 0.61647779 0.07347371 0.87922456
v 0.61277138 0.07591224 0.88022141
v 0.60903105 0.07835749 0.87982387
l 1 2
l 2 3
l 3 4
l 4 5
l 5 6
l 6 7
l 7 8
l 8 9
l 9 10
l 10 11
l 11 12
l 12 13
l 13 14
l 14 15
l 15 16
l 16 17
l 17 18
l 18 19
l 19 20
l 20 21
l 21 22
l 22 23
l 23 24
l 24 25
l 25 26
l 26 27
l 27 28
l 28 29
