v 0.60917994 0.03390867 0.84404452
v 0.60515059 0.03215633 0.84502046
v 0.60199581 0.03353405 0.84786458
v 0.60154564 0.03796092 0.84894910
v 0.60603053 0.03845838 0.84846890
v 0.60748022 0.03420970 0.84959530
v 0.60682969 0.02973386 0.85045047
v 0.60777474 0.02578749 0.84849742
v 0.60544844 0.02297105 0.84586944
v 0.60097027 0.02382237 0.84620437
v 0.59704820 0.02462379 0.84856269
v 0.59722167 0.02658894 0.85266104
v 0.59740211 0.03107136 0.85302756
v 0.59640169 0.03545026 0.85282710
v 0.59349299 0.03896123 0.85246250
v 0.58916962 0.03777381 0.85249307
v 0.58783494 0.03425144 0.85508006
v 0.58810840 0.02971952 0.85542917
v 0.59239313 0.02901726 0.85438122
v 0.59533628 0.03235902 0.85474111
v 0.59412595 0.03647336 0.85613525
v 0.59040252 0.03501480 0.85853463
v 0.58865506 0.03090408 0.85812903
v 0.58701655 0.02671164 0.85750948
v 0.58395299 0.02439632 0.86001824
v 0.58179537 0.02682153 0.86319266
v 0.58215554 0.03108137 0.86475184
v 0.58364888 0.03537376 0.86524112
v 0.58584223 0.03927163 0.86543013
l 1 2
l 2 3
l 3 4
l 4 5
l 5 6
l 6 7
l 7 8
l 8 9
l 9 10
l 10 11
l 11 12
l 12 13
l 13 14
l 14 15
l 15 16
l 16 17
l 17 18
l 18 19
l 19 20
l 20 21
l 21 22
l 22 23
l 23 24
l 24 25
l 25 26
l 26 27
l 27 28
l 28 29
