v 0.64079457 0.08045118 0.85781326
v 0.63843927 0.08426891 0.85776598
v 0.63638838 0.08846438 0.85849461
v 0.63360171 0.09201329 0.85845539
v 0.62955950 0.09300617 0.85658359
v 0.62898715 0.08905676 0.85415259
v 0.63232253 0.08719826 0.85647428
v 0.63357579 0.08900256 0.86049598
v 0.63478018 0.08782943 0.86480057
v 0.63593471 0.08753752 0.86927644
v 0.63781294 0.08981613 0.87294450
v 0.63696613 0.09434282 0.87330105
v 0.63306080 0.09607289 0.87195019
v 0.62984246 0.09509555 0.86896821
v 0.62943664 0.09161130 0.86613985
v 0.63366006 0.08989199 0.86584662
v 0.63616388 0.09057563 0.86953312
v 0.63317472 0.09311200 0.87195708
v 0.62867670 0.09278675 0.87172545
v 0.62507627 0.09559531 0.87200729
v 0.62615937 0.10041221 0.87105691
v 0.62877628 0.10256230 0.87427159
v 0.63174198 0.10112187 0.87753850
v 0.63243361 0.09709929 0.87968402
v 0.63032478 0.09310123 0.87973598
v 0.62639654 0.09102557 0.87928210
v 0.62192133 0.09067514 0.87921235
v 0.61779535 0.09271267 0.87895496
v 0.61452511 0.09573547 0.87861098
l 1 2
l 2 3
l 3 4
l 4 5
l 5 6
l 6 7
l 7 8
l 8 9
l 9 10
l 10 11
l 11 12
l 12 13
l 13 14
l 14 15
l 15 16
l 16 17
l 17 18
l 18 19
l 19 20
l 20 21
l 21 22
l 22 23
l 23 24
l 24 25
l 25 26
l 26 27
l 27 28
l 28 29
