v 0.63123662 0.03146362 0.84630846
v 0.63517352 0.03358224 0.84752499
v 0.63879341 0.03124572 0.84902494
v 0.63690516 0.02753670 0.85069558
v 0.63282218 0.02537673 0.85025685
v 0.62881585 0.02439507 0.84820536
v 0.62519420 0.02407006 0.85082028
v 0.62338619 0.02014763 0.85225685
v 0.62190589 0.01592474 0.85254667
v 0.61752577 0.01654240 0.85148699
v 0.61924118 0.02049671 0.85003889
v 0.62212927 0.02297681 0.85264483
v 0.62514956 0.02361957 0.85591830
v 0.62415263 0.02157465 0.85989618
v 0.62307312 0.01831383 0.86285028
v 0.61949123 0.01573900 0.86171875
v 0.61618522 0.01627036 0.85870750
v 0.61335680 0.01975128 0.85825674
v 0.61089799 0.02351905 0.85773131
v 0.60703727 0.02371652 0.85538863
v 0.60560283 0.01948283 0.85498754
v 0.60856575 0.01638667 0.85636931
v 0.61026543 0.01545932 0.86039386
v 0.60750012 0.01323240 0.86319834
v 0.60336615 0.01179371 0.86413542
v 0.59895001 0.01239100 0.86361116
v 0.59520059 0.01462837 0.86255327
v 0.59231386 0.01804028 0.86245399
v 0.59021649 0.02209752 0.86262171
l 1 2
l 2 3
l 3 4
l 4 5
l 5 6
l 6 7
l 7 8
l 8 9
l 9 10
l 10 11
l 11 12
l 12 13
l 13 14
l 14 15
l 15 16
l 16 17
l 17 18
l 18 19
l 19 20
l 20 21
l 21 22
l 22 23
l 23 24
l 24 25
l 25 26
l 26 27
l 27 28
l 28 29
