v 0.62944700 0.02788555 0.84609109
v 0.63375917 0.02871129 0.84736348
v 0.63499775 0.02448354 0.84823201
v 0.63211087 0.02101709 0.84760676
v 0.62774726 0.02098426 0.84872454
v 0.62376282 0.02301839 0.84871642
v 0.62080401 0.02507511 0.85136913
v 0.61847011 0.02411427 0.85514454
v 0.61851354 0.02039277 0.85761545
v 0.61624771 0.01673795 0.85610489
v 0.61730878 0.01420559 0.85249864
v 0.61884526 0.01022206 0.85104954
v 0.61783256 0.00664078 0.85385764
v 0.61394143 0.00787614 0.85566957
v 0.61270153 0.01142454 0.85321579
v 0.61440357 0.01558932 0.85343552
v 0.61332931 0.01598662 0.85775221
v 0.60994951 0.01303117 0.85799840
v 0.60624975 0.01437221 0.86064317
v 0.60727767 0.01798239 0.86335057
v 0.61095011 0.02042734 0.86411346
v 0.61120957 0.02318315 0.86058374
v 0.60736266 0.02184283 0.85865365
v 0.60502982 0.01862044 0.86070465
v 0.60261557 0.01489242 0.86122411
v 0.60002408 0.01111034 0.86132797
v 0.59614940 0.00916301 0.85978994
v 0.59191756 0.01069265 0.86033753
v 0.58926002 0.01397345 0.86193361
l 1 2
l 2 3
l 3 4
l 4 5
l 5 6
l 6 7
l 7 8
l 8 9
l 9 10
l 10 11
l 11 12
l 12 13
l 13 14
l 14 15
l 15 16
l 16 17
l 17 18
l 18 19
l 19 20
l 20 21
l 21 22
l 22 23
l 23 24
l 24 25
l 25 26
l 26 27
l 27 28
l 28 29
