v 0.64750423 0.04920581 0.85497072
v 0.64396336 0.04814467 0.85234701
v 0.64045508 0.04956697 0.84993815
v 0.63599132 0.04789790 0.85061007
v 0.63266543 0.04496231 0.84893708
v 0.62833242 0.04693023 0.84941855
v 0.62931277 0.05121951 0.85087637
v 0.62650842 0.05438580 0.85238095
v 0.62273285 0.05145617 0.85196246
v 0.62111939 0.04727310 0.85122341
v 0.61889483 0.04344914 0.85027682
v 0.61573227 0.04237356 0.85324526
v 0.61784017 0.04124449 0.85702329
v 0.62048406 0.04421678 0.85908125
v 0.62135977 0.04628834 0.86306926
v 0.61891865 0.04550674 0.86688183
v 0.61485422 0.04363786 0.86754628
v 0.61195034 0.04009123 0.86800226
v 0.61084185 0.03569644 0.86736017
v 0.61233088 0.03190156 0.86535523
v 0.61584827 0.02901432 0.86532616
v 0.61843583 0.02690550 0.86837480
v 0.61673909 0.02464407 0.87184240
v 0.61249311 0.02295590 0.87151443
v 0.60906868 0.02208941 0.86876233
v 0.60502550 0.02152529 0.86625574
v 0.60053132 0.02151749 0.86529141
v 0.59622778 0.02249273 0.86451727
v 0.59218636 0.02442667 0.86505058
l 1 2
l 2 3
l 3 4
l 4 5
l 5 6
l 6 7
l 7 8
l 8 9
l 9 10
l 10 11
l 11 12
l 12 13
l 13 14
l 14 15
l 15 16
l 16 17
l 17 18
l 18 19
l 19 20
l 20 21
l 21 22
l 22 23
l 23 24
l 24 25
l 25 26
l 26 27
l 27 28
l 28 29
