v 0.64798986 0.06766525 0.85849922
v 0.64425581 0.06802728 0.85603578
v 0.64050283 0.06895826 0.85370616
v 0.63734678 0.06635155 0.85189443
v 0.63320730 0.06510676 0.85328434
v 0.63191129 0.06788144 0.85675899
v 0.63388265 0.07191125 0.85830721
v 0.63311816 0.07636110 0.85872606
v 0.63244508 0.08004338 0.86125633
v 0.63076119 0.08349259 0.86392155
v 0.62789715 0.08132726 0.86686340
v 0.62536816 0.07869353 0.86948412
v 0.62144340 0.07688112 0.87102837
v 0.61920953 0.07487435 0.86763343
v 0.62153343 0.07668643 0.86427871
v 0.62422000 0.08046730 0.86492550
v 0.62587640 0.08307966 0.86830337
v 0.62771388 0.08057052 0.87162482
v 0.62555599 0.07809892 0.87475220
v 0.62098992 0.07820542 0.87548127
v 0.61690594 0.07717768 0.87392504
v 0.61358965 0.07468459 0.87173810
v 0.61034119 0.07159990 0.87127354
v 0.60824517 0.06771307 0.87199472
v 0.60827462 0.06317142 0.87240897
v 0.60818826 0.05870299 0.87243624
v 0.60634758 0.05458139 0.87195393
v 0.60289761 0.05160172 0.87141869
v 0.59884281 0.04942879 0.87103856
l 1 2
l 2 3
l 3 4
l 4 5
l 5 6
l 6 7
l 7 8
l 8 9
l 9 10
l 10 11
l 11 12
l 12 13
l 13 14
l 14 15
l 15 16
l 16 17
l 17 18
l 18 19
l 19 20
l 20 21
l 21 22
l 22 23
l 23 24
l 24 25
l 25 26
l 26 27
l 27 28
l 28 29
