v 0.57584841 0.01062290 0.85453439
v 0.57164819 0.01250921 0.85590388
v 0.56747822 0.01375492 0.85726703
v 0.56329090 0.01451786 0.85863888
v 0.56068461 0.01825664 0.85946928
v 0.56300319 0.02209938 0.85885038
v 0.56762113 0.02223795 0.85922688
v 0.56949174 0.01811808 0.85921172
v 0.56730851 0.01427634 0.85993503
v 0.56327846 0.01210123 0.86142946
v 0.55904203 0.01309256 0.86297206
v 0.55604977 0.01642547 0.86153017
v 0.55513755 0.02096332 0.86127797
v 0.55427486 0.02561442 0.86153181
v 0.55422158 0.03034397 0.86169633
v 0.55807576 0.03251273 0.86277485
v 0.56118904 0.02924939 0.86330736
v 0.55951875 0.02519031 0.86417877
v 0.55536424 0.02325693 0.86406545
v 0.55108839 0.02190634 0.86318435
v 0.54662102 0.02164413 0.86406714
v 0.54236185 0.02313299 0.86544758
v 0.54079898 0.02755438 0.86593485
v 0.54380020 0.03099877 0.86533658
v 0.54828433 0.03019317 0.86478474
v 0.55078522 0.02644620 0.86509783
v 0.55173601 0.02208403 0.86591137
v 0.55373176 0.01788438 0.86631885
v 0.55614124 0.01399977 0.86594266
l 1 2
l 2 3
l 3 4
l 4 5
l 5 6
l 6 7
l 7 8
l 8 9
l 9 10
l 10 11
l 11 12
l 12 13
l 13 14
l 14 15
l 15 16
l 16 17
l 17 18
l 18 19
l 19 20
l 20 21
l 21 22
l 22 23
l 23 24
l 24 25
l 25 26
l 26 27
l 27 28
l 28 29
