v 0.59899383 -0.00932676 0.84944526
v 0.59819653 -0.01360774 0.85045378
v 0.59930257 -0.01631423 0.85394868
v 0.60138980 -0.01989167 0.85591949
v 0.60440190 -0.02268851 0.85769898
v 0.60814057 -0.02496520 0.85885618
v 0.61088399 -0.02780118 0.86138524
v 0.60831498 -0.03010252 0.86450529
v 0.60394806 -0.02926980 0.86375576
v 0.59964595 -0.02906722 0.86153159
v 0.59620479 -0.03215562 0.86144246
v 0.59736044 -0.03600539 0.86368719
v 0.60141992 -0.03571133 0.86557852
v 0.60277946 -0.03128417 0.86620310
v 0.60137473 -0.02721102 0.86502751
v 0.59954565 -0.02344360 0.86341274
v 0.59684794 -0.02005477 0.86198313
v 0.59261062 -0.01847722 0.86084854
v 0.58879849 -0.02017448 0.85835318
v 0.58457038 -0.02059022 0.85620926
v 0.58113026 -0.01884087 0.85393919
v 0.57796406 -0.01535878 0.85436923
v 0.57910256 -0.01097083 0.85369784
v 0.58346183 -0.01128366 0.85254715
v 0.58541585 -0.01540894 0.85245908
v 0.58632461 -0.01810582 0.85612685
v 0.58392764 -0.01529556 0.85864294
v 0.58132559 -0.01180400 0.85749114
v 0.57933371 -0.00855308 0.85481402
l 1 2
l 2 3
l 3 4
l 4 5
l 5 6
l 6 7
l 7 8
l 8 9
l 9 10
l 10 11
l 11 12
l 12 13
l 13 14
l 14 15
l 15 16
l 16 17
l 17 18
l 18 19
l 19 20
l 20 21
l 21 22
l 22 23
l 23 24
l 24 25
l 25 26
l 26 27
l 27 28
l 28 29
