v 0.65055330 0.05381312 0.85752384
v 0.64953956 0.04946140 0.85644522
v 0.64677270 0.04693260 0.85927134
v 0.64340695 0.04931041 0.85738873
v 0.63916872 0.04836501 0.85618087
v 0.63483157 0.04681396 0.85511597
v 0.63049923 0.04756860 0.85393915
v 0.63220298 0.05168068 0.85487367
v 0.63656441 0.05082309 0.85593044
v 0.63726617 0.04900064 0.86002589
v 0.63299366 0.04824441 0.85839761
v 0.62949576 0.05013658 0.85617897
v 0.62583663 0.05027088 0.85881257
v 0.62489340 0.05091385 0.86315841
v 0.62583754 0.05285336 0.86719364
v 0.62571022 0.05048274 0.87097693
v 0.62319666 0.04670932 0.87195185
v 0.61954116 0.04433214 0.87006254
v 0.61628025 0.04132441 0.86860363
v 0.61566415 0.03714982 0.87025131
v 0.61756421 0.03524683 0.87400941
v 0.62064957 0.03665685 0.87695450
v 0.62316523 0.03995474 0.87884328
v 0.62391364 0.04436210 0.87954978
v 0.62215073 0.04853803 0.87907895
v 0.61855475 0.05113380 0.87715136
v 0.61585807 0.05212211 0.87335451
v 0.61444363 0.05296086 0.86904801
v 0.61328605 0.05506962 0.86518293
l 1 2
l 2 3
l 3 4
l 4 5
l 5 6
l 6 7
l 7 8
l 8 9
l 9 10
l 10 11
l 11 12
l 12 13
l 13 14
l 14 15
l 15 16
l 16 17
l 17 18
l 18 19
l 19 20
l 20 21
l 21 22
l 22 23
l 23 24
l 24 25
l 25 26
l 26 27
l 27 28
l 28 29
