v 0.64075573 0.00049096 0.85757125
v 0.63800271 0.00284277 0.85489283
v 0.63434050 0.00351672 0.85216981
v 0.63016607 0.00236641 0.85084125
v 0.62590928 0.00219442 0.84949770
v 0.62203148 0.00428026 0.84847833
v 0.62002332 0.00828188 0.84827030
v 0.61935365 0.01271603 0.84912226
v 0.62373183 0.01322721 0.84823666
v 0.62383842 0.00889354 0.84969838
v 0.62380475 0.00464944 0.85125923
v 0.62054494 0.00476507 0.85432664
v 0.61957285 0.00898632 0.85580880
v 0.61810927 0.01014642 0.85988823
v 0.61440929 0.00763661 0.86011992
v 0.61313111 0.00544318 0.85643999
v 0.61366481 0.00564161 0.85170505
v 0.61175100 0.00231101 0.84923344
v 0.60946294 -0.00108111 0.85166757
v 0.60847943 -0.00498700 0.85381760
v 0.60622745 -0.00510974 0.85783699
v 0.60665928 -0.00088879 0.85961366
v 0.60814087 0.00198167 0.85651557
v 0.61083051 0.00457882 0.85395808
v 0.61093500 0.00899710 0.85556971
v 0.60855255 0.01092971 0.85898022
v 0.60687807 0.00804465 0.86241650
v 0.60555977 0.00392054 0.86120437
v 0.60507397 0.00129338 0.85744034
l 1 2
l 2 3
l 3 4
l 4 5
l 5 6
l 6 7
l 7 8
l 8 9
l 9 10
l 10 11
l 11 12
l 12 13
l 13 14
l 14 15
l 15 16
l 16 17
l 17 18
l 18 19
l 19 20
l 20 21
l 21 22
l 22 23
l 23 24
l 24 25
l 25 26
l 26 27
l 27 28
l 28 29
