# https://github.com/mikedh/trimesh
v -0.01849999 -0.00095207 -0.01162493
v -0.01849999 -0.00266113 -0.01215211
v -0.01850000 -0.00413886 -0.01315961
v -0.01849999 -0.00525398 -0.01455792
v -0.01850000 -0.00590740 -0.01622279
v -0.01849999 -0.00604105 -0.01800630
v -0.01849999 -0.00564307 -0.01974996
v -0.01849998 -0.00474881 -0.02129886
v -0.01849999 -0.00343774 -0.02251535
v -0.01849999 -0.00182635 -0.02329135
v -0.01849999 -0.00005782 -0.02355792
v -0.01849999 0.00171071 -0.02329135
v -0.01849999 0.00332209 -0.02251536
v -0.01849999 0.00463316 -0.02129886
v -0.01849999 0.00552742 -0.01974997
v -0.01850000 0.00592541 -0.01800629
v -0.01850000 0.00579174 -0.01622279
v -0.01849999 0.00513833 -0.01455792
v -0.01849999 0.00402322 -0.01315961
v -0.01850000 0.00254549 -0.01215210
v -0.01849999 0.00083643 -0.01162493
v -0.01849998 -0.00597043 -0.01485772
v -0.01849999 -0.00649166 -0.01663288
v -0.01849999 -0.00649166 -0.01848296
v -0.01849999 -0.00597043 -0.02025812
v -0.01849999 -0.00497019 -0.02181452
v -0.01849998 -0.00357199 -0.02302606
v -0.01849998 -0.00188908 -0.02379462
v -0.01849998 -0.00005782 -0.02405791
v -0.01849999 0.00177345 -0.02379462
v -0.01849999 0.00345634 -0.02302606
v -0.01849999 0.00485455 -0.02181451
v -0.01849999 0.00585479 -0.02025812
v -0.01849999 0.00637602 -0.01848297
v -0.01849999 0.00637602 -0.01663286
v -0.01849999 -0.00497020 -0.01330132
v -0.01849999 -0.00357199 -0.01208976
v -0.01849999 -0.00188908 -0.01132121
v -0.01849999 -0.00005782 -0.01105792
v -0.01850000 0.00177344 -0.01132122
v -0.01849999 0.00345635 -0.01208977
v -0.01849999 0.00485455 -0.01330133
v -0.01849998 0.00585479 -0.01485772
f 37 38 1
f 2 37 1
f 2 36 37
f 3 36 2
f 3 22 36
f 4 22 3
f 4 23 22
f 5 23 4
f 5 24 23
f 6 24 5
f 6 25 24
f 7 25 6
f 7 26 25
f 8 26 7
f 8 27 26
f 9 27 8
f 9 28 27
f 10 28 9
f 10 29 28
f 11 29 10
f 11 30 29
f 12 30 11
f 12 31 30
f 13 31 12
f 13 32 31
f 14 32 13
f 14 33 32
f 15 33 14
f 15 34 33
f 16 34 15
f 16 35 34
f 17 35 16
f 17 43 35
f 18 43 17
f 18 42 43
f 19 42 18
f 19 41 42
f 20 41 19
f 20 40 41
f 21 40 20
f 21 39 40
f 1 39 21
f 1 38 39

