# https://github.com/mikedh/trimesh
v 0.00871725 -0.00405782 -0.00223819
v 0.00900000 -0.00405782 0.00000002
v 0.00788677 -0.00405783 -0.00433577
v 0.00656072 -0.00405782 -0.00616092
v 0.00482244 -0.00405782 -0.00759895
v 0.00278117 -0.00405783 -0.00855950
v 0.00056512 -0.00405782 -0.00898224
v -0.00168642 -0.00405783 -0.00884059
v -0.00383200 -0.00405782 -0.00814345
v -0.00573681 -0.00405782 -0.00693463
v -0.00728115 -0.00405782 -0.00529007
v -0.00836798 -0.00405782 -0.00331313
v -0.00892903 -0.00405782 -0.00112801
v -0.00900000 -0.00405782 -0.00000001
v -0.00892903 -0.00405782 0.00112799
v -0.00836799 -0.00405782 0.00331311
v -0.00728115 -0.00405783 0.00529006
v -0.00573683 -0.00405782 0.00693461
v -0.00383202 -0.00405782 0.00814344
v -0.00168644 -0.00405782 0.00884057
v 0.00056510 -0.00405782 0.00898223
v 0.00278113 -0.00405783 0.00855951
v 0.00482243 -0.00405782 0.00759895
v 0.00656071 -0.00405782 0.00616093
v 0.00788675 -0.00405782 0.00433579
v 0.00871724 -0.00405782 0.00223822
v -0.01163846 -0.00405782 -0.01023701
v -0.01231613 -0.00405783 -0.00973557
v -0.01314020 -0.00405783 -0.00955791
v -0.01749999 -0.00405783 -0.01055792
v -0.01742388 -0.00405783 -0.01017523
v -0.01720711 -0.00405782 -0.00985080
v -0.01688267 -0.00405782 -0.00963403
v -0.01649999 -0.00405782 -0.00955791
v -0.01749999 -0.00405782 -0.00246188
v 0.00650002 -0.00405783 -0.01621532
v 0.00637050 -0.00405783 -0.01560558
v 0.00484484 -0.00405783 -0.01472337
v 0.00233384 -0.00405782 -0.01532329
v -0.00024192 -0.00405783 -0.01549812
v -0.00281096 -0.00405782 -0.01524298
v -0.00530203 -0.00405783 -0.01456496
v -0.00764601 -0.00405782 -0.01348289
v -0.00977787 -0.00405782 -0.01202678
v 0.01150000 -0.00405782 0.00288998
v 0.01124927 -0.00405782 0.00511518
v 0.01050969 -0.00405782 0.00722882
v 0.00931831 -0.00405782 0.00912488
v 0.00546470 -0.00405783 -0.01478911
v 0.00600431 -0.00405783 -0.01510115
v 0.00650000 -0.00405782 -0.01036989
v 0.01150000 -0.00405782 -0.00655607
v 0.01150000 -0.00405782 -0.01036988
v -0.00501925 -0.00405782 0.01121048
v -0.01304700 -0.00405783 0.00585864
v 0.00149998 -0.00405783 0.01288997
v 0.00052774 -0.00405783 0.01288997
v -0.01456515 -0.00405782 0.00461510
v -0.00329264 -0.00405783 0.01213144
v -0.00141974 -0.00405782 0.01269851
v 0.00773489 -0.00405783 0.01070829
v 0.00583883 -0.00405782 0.01189966
v 0.00372520 -0.00405782 0.01263926
v -0.01581121 -0.00405782 0.00309904
v -0.01673719 -0.00405783 0.00136883
v -0.01730744 -0.00405782 -0.00050892
v 0.01150001 -0.00405783 -0.01455789
v 0.01136170 -0.00405781 -0.01621530
f 45 46 25
f 25 26 45
f 45 26 2
f 45 2 52
f 52 2 1
f 52 1 53
f 53 1 51
f 51 1 3
f 51 3 49
f 49 3 4
f 49 4 38
f 4 5 38
f 38 5 6
f 38 6 39
f 39 6 7
f 7 40 39
f 7 41 40
f 8 41 7
f 8 42 41
f 9 42 8
f 9 43 42
f 9 44 43
f 10 44 9
f 10 27 44
f 11 27 10
f 11 28 27
f 29 28 11
f 12 29 11
f 34 29 12
f 12 33 34
f 12 35 33
f 35 32 33
f 35 31 32
f 30 31 35
f 13 35 12
f 13 66 35
f 14 66 13
f 14 65 66
f 15 65 14
f 15 64 65
f 58 64 15
f 16 58 15
f 16 55 58
f 17 55 16
f 54 55 17
f 17 18 54
f 54 18 19
f 54 19 59
f 59 19 20
f 59 20 60
f 60 20 57
f 21 57 20
f 21 56 57
f 22 56 21
f 22 63 56
f 22 62 63
f 23 62 22
f 23 61 62
f 48 61 23
f 24 48 23
f 24 47 48
f 25 47 24
f 49 50 51
f 51 50 37
f 51 37 36
f 67 51 36
f 67 36 68
f 53 51 67
f 25 46 47

