v 0.59026140 0.11899852 0.86048080
v 0.59453976 0.11930956 0.86206737
v 0.59762828 0.12028141 0.86545564
v 0.60118997 0.12108680 0.86804098
v 0.60553074 0.12091587 0.86917657
v 0.60878092 0.11805697 0.86797927
v 0.60754164 0.11507169 0.86478134
v 0.60313482 0.11604706 0.86434700
v 0.60084832 0.11825613 0.86756013
v 0.59895867 0.11973868 0.87133786
v 0.59820712 0.12348618 0.87366647
v 0.59727726 0.12785957 0.87260483
v 0.59408343 0.12847598 0.86935609
v 0.59288665 0.12449023 0.86761056
v 0.59479993 0.12082901 0.86582967
v 0.59219703 0.11752167 0.86432614
v 0.58783036 0.11852369 0.86546243
v 0.58565007 0.12254456 0.86543263
v 0.58369286 0.12658465 0.86549479
v 0.58034075 0.12902786 0.86721978
v 0.57799410 0.13116922 0.87041651
v 0.57993179 0.13209333 0.87444036
v 0.58446544 0.13141821 0.87475812
v 0.58759515 0.12915660 0.87249849
v 0.58920433 0.12557425 0.86989806
v 0.58983243 0.12120448 0.86828178
v 0.58948010 0.11682956 0.86734601
v 0.58840709 0.11248036 0.86651246
v 0.58686684 0.10822947 0.86601691
l 1 2
l 2 3
l 3 4
l 4 5
l 5 6
l 6 7
l 7 8
l 8 9
l 9 10
l 10 11
l 11 12
l 12 13
l 13 14
l 14 15
l 15 16
l 16 17
l 17 18
l 18 19
l 19 20
l 20 21
l 21 22
l 22 23
l 23 24
l 24 25
l 25 26
l 26 27
l 27 28
l 28 29
