v 0.60735309 0.06582608 0.84504323
v 0.60437211 0.06919461 0.84556347
v 0.60432724 0.07364973 0.84606805
v 0.60488767 0.07805412 0.84653576
v 0.60218514 0.08165193 0.84730348
v 0.60073445 0.07924959 0.85095278
v 0.60122200 0.07488781 0.84950526
v 0.59976572 0.07093570 0.84749529
v 0.59625742 0.06798012 0.84736187
v 0.59384129 0.06427427 0.84821712
v 0.59327632 0.06345408 0.85259895
v 0.59517558 0.06621438 0.85564450
v 0.59489978 0.06884025 0.85947158
v 0.59335970 0.07264962 0.86131490
v 0.59199503 0.07698754 0.86184117
v 0.58830581 0.07960864 0.86238566
v 0.58463777 0.07704340 0.86273723
v 0.58587350 0.07278390 0.86208436
v 0.58858316 0.06920775 0.86098364
v 0.58822882 0.06493622 0.86263083
v 0.58394378 0.06471547 0.86387798
v 0.58172715 0.06874706 0.86359508
v 0.58201488 0.07325918 0.86352114
v 0.58222220 0.07754615 0.86201364
v 0.58039621 0.08153191 0.86034444
v 0.57584269 0.08249048 0.86134563
v 0.57363398 0.07903755 0.86329098
v 0.57475043 0.07495493 0.86515629
v 0.57602454 0.07076360 0.86642506
l 1 2
l 2 3
l 3 4
l 4 5
l 5 6
l 6 7
l 7 8
l 8 9
l 9 10
l 10 11
l 11 12
l 12 13
l 13 14
l 14 15
l 15 16
l 16 17
l 17 18
l 18 19
l 19 20
l 20 21
l 21 22
l 22 23
l 23 24
l 24 25
l 25 26
l 26 27
l 27 28
l 28 29
