v 0.59307879 -0.01437557 0.85115035
v 0.59086851 -0.01809939 0.85225319
v 0.58908034 -0.02208839 0.85343997
v 0.59030355 -0.02617355 0.85491371
v 0.59062556 -0.03035199 0.85652919
v 0.59152263 -0.03420970 0.85864242
v 0.59052875 -0.03822514 0.86087094
v 0.58751917 -0.04112381 0.86257155
v 0.58447161 -0.04396808 0.86443097
v 0.58368406 -0.04760839 0.86714617
v 0.58598284 -0.05045013 0.86987633
v 0.58906599 -0.05242835 0.87266490
v 0.58683490 -0.05466451 0.87625978
v 0.58275827 -0.05249438 0.87533372
v 0.58336756 -0.04920631 0.87198105
v 0.58547434 -0.04615742 0.86930833
v 0.58493188 -0.04263842 0.86651521
v 0.58058302 -0.04138079 0.86633324
v 0.57818072 -0.04359151 0.86986799
v 0.58004797 -0.04636121 0.87328295
v 0.58403795 -0.04825575 0.87446440
v 0.58806822 -0.04879113 0.87259658
v 0.58995868 -0.04617669 0.86950124
v 0.58809668 -0.04229982 0.86803204
v 0.58428270 -0.03949742 0.86756779
v 0.58009639 -0.03771231 0.86824613
v 0.57646597 -0.03519077 0.86890381
v 0.57394810 -0.03145043 0.86956836
v 0.57209831 -0.02735729 0.86997817
l 1 2
l 2 3
l 3 4
l 4 5
l 5 6
l 6 7
l 7 8
l 8 9
l 9 10
l 10 11
l 11 12
l 12 13
l 13 14
l 14 15
l 15 16
l 16 17
l 17 18
l 18 19
l 19 20
l 20 21
l 21 22
l 22 23
l 23 24
l 24 25
l 25 26
l 26 27
l 27 28
l 28 29
