v 0.61075573 0.02455084 0.84430415
v 0.60643039 0.02555142 0.84486997
v 0.60293075 0.02796184 0.84687989
v 0.60020633 0.03048893 0.84981870
v 0.59609961 0.02881396 0.85053631
v 0.59369151 0.02499964 0.85106406
v 0.59121405 0.02153119 0.84939325
v 0.58841289 0.01817528 0.85034092
v 0.58551010 0.01583161 0.85279607
v 0.58304658 0.01870376 0.85520845
v 0.58338697 0.02306459 0.85639814
v 0.58335916 0.02735880 0.85795928
v 0.58214697 0.03169975 0.85888565
v 0.57754369 0.03084934 0.85872605
v 0.57800511 0.02683925 0.85678783
v 0.57860417 0.02239625 0.85574688
v 0.57598368 0.01897134 0.85443322
v 0.57164644 0.01876156 0.85586049
v 0.56858888 0.02196228 0.85684510
v 0.56794299 0.02650132 0.85702695
v 0.57070982 0.02988101 0.85806761
v 0.57520405 0.02878047 0.85734609
v 0.57591226 0.02420065 0.85697225
v 0.57466098 0.01987680 0.85744109
v 0.57194501 0.01627300 0.85853909
v 0.56962210 0.01513343 0.86225539
v 0.56690789 0.01845706 0.86400379
v 0.56706125 0.02315824 0.86347892
v 0.56832636 0.02779836 0.86407534
l 1 2
l 2 3
l 3 4
l 4 5
l 5 6
l 6 7
l 7 8
l 8 9
l 9 10
l 10 11
l 11 12
l 12 13
l 13 14
l 14 15
l 15 16
l 16 17
l 17 18
l 18 19
l 19 20
l 20 21
l 21 22
l 22 23
l 23 24
l 24 25
l 25 26
l 26 27
l 27 28
l 28 29
