v 0.58956332 0.06240026 0.85594760
v 0.58675441 0.06615970 0.85632056
v 0.58412693 0.06931712 0.85432131
v 0.58095427 0.07231342 0.85328832
v 0.57788697 0.07572035 0.85328977
v 0.57490840 0.07922462 0.85423113
v 0.57391072 0.08139902 0.85802614
v 0.57504713 0.07832644 0.86106333
v 0.57786384 0.07530051 0.85926403
v 0.58085674 0.07585834 0.85597567
v 0.58412420 0.07799449 0.85373045
v 0.58585412 0.08093770 0.85061351
v 0.58886022 0.08430633 0.84992000
v 0.58800584 0.08880326 0.85039684
v 0.58545801 0.09256094 0.85128527
v 0.58234468 0.09554314 0.85260092
v 0.58016694 0.09639414 0.85655979
v 0.57649459 0.09889490 0.85731195
v 0.57177953 0.09951691 0.85771454
v 0.56834756 0.09763097 0.86036434
v 0.56452261 0.09862003 0.86293292
v 0.56042221 0.09906975 0.86521955
v 0.55762231 0.09612475 0.86724412
v 0.55823352 0.09186601 0.86883604
v 0.56179457 0.08910643 0.86889769
v 0.56610921 0.08966407 0.86774534
v 0.56859852 0.09322041 0.86646075
v 0.57032494 0.09726515 0.86512642
v 0.57206424 0.10127994 0.86382927
l 1 2
l 2 3
l 3 4
l 4 5
l 5 6
l 6 7
l 7 8
l 8 9
l 9 10
l 10 11
l 11 12
l 12 13
l 13 14
l 14 15
l 15 16
l 16 17
l 17 18
l 18 19
l 19 20
l 20 21
l 21 22
l 22 23
l 23 24
l 24 25
l 25 26
l 26 27
l 27 28
l 28 29
