v 0.61089611 0.07774264 0.84646697
v 0.60946207 0.07337908 0.84561301
v 0.60937688 0.06891251 0.84517227
v 0.61046478 0.06455032 0.84527320
v 0.60688779 0.06437267 0.84805495
v 0.60457537 0.06824085 0.84798702
v 0.60351170 0.07258744 0.84838289
v 0.60350391 0.07740922 0.84862138
v 0.60315544 0.07953159 0.85271314
v 0.60113287 0.08187416 0.85601434
v 0.59824993 0.07926516 0.85864248
v 0.59770363 0.07454913 0.85886680
v 0.59603837 0.07026019 0.85758206
v 0.59948066 0.06746740 0.85636501
v 0.60233182 0.07091200 0.85516859
v 0.60215391 0.07511184 0.85692553
v 0.59980564 0.07663866 0.86047616
v 0.59751473 0.07314133 0.86218065
v 0.59544701 0.06913609 0.86216784
v 0.59131636 0.06793549 0.86358991
v 0.58664787 0.06898964 0.86418402
v 0.58354426 0.06623727 0.86641867
v 0.58417794 0.06182265 0.86682183
v 0.58729361 0.05857180 0.86627716
v 0.58987240 0.05488959 0.86523579
v 0.58823120 0.05087669 0.86405619
v 0.58384101 0.05006175 0.86398949
v 0.58082424 0.05342924 0.86401596
v 0.58077751 0.05822079 0.86478704
l 1 2
l 2 3
l 3 4
l 4 5
l 5 6
l 6 7
l 7 8
l 8 9
l 9 10
l 10 11
l 11 12
l 12 13
l 13 14
l 14 15
l 15 16
l 16 17
l 17 18
l 18 19
l 19 20
l 20 21
l 21 22
l 22 23
l 23 24
l 24 25
l 25 26
l 26 27
l 27 28
l 28 29
