v 0.61981261 0.06025450 0.84595573
v 0.61533194 0.05969404 0.84653135
v 0.61097920 0.06108905 0.84696464
v 0.60702309 0.06274154 0.84497953
v 0.60375267 0.06574613 0.84549367
v 0.60145673 0.06855703 0.84820869
v 0.59908256 0.06616567 0.85139565
v 0.59731517 0.06236168 0.84966883
v 0.59955866 0.05853843 0.84903980
v 0.60004069 0.05392278 0.84890524
v 0.59694929 0.05047674 0.84938762
v 0.59343800 0.05184570 0.85190494
v 0.59095934 0.05575471 0.85206307
v 0.58971923 0.05888419 0.85514390
v 0.59359489 0.05805082 0.85796040
v 0.59341960 0.05351315 0.85941070
v 0.59305907 0.04871333 0.85881126
v 0.58907963 0.04639796 0.85785901
v 0.58539308 0.04893481 0.85672637
v 0.58468027 0.05340345 0.85635199
v 0.58214615 0.05658947 0.85830013
v 0.57983745 0.05986327 0.86060814
v 0.57832506 0.06382562 0.86202814
v 0.57623830 0.06681144 0.86462418
v 0.57534190 0.06486291 0.86855125
v 0.57650579 0.06055704 0.86908302
v 0.57728100 0.05638888 0.86727048
v 0.57692212 0.05215238 0.86556958
v 0.57754200 0.04771996 0.86388763
l 1 2
l 2 3
l 3 4
l 4 5
l 5 6
l 6 7
l 7 8
l 8 9
l 9 10
l 10 11
l 11 12
l 12 13
l 13 14
l 14 15
l 15 16
l 16 17
l 17 18
l 18 19
l 19 20
l 20 21
l 21 22
l 22 23
l 23 24
l 24 25
l 25 26
l 26 27
l 27 28
l 28 29
