v 0.61910068 0.03819939 0.84468280
v 0.62009552 0.03510743 0.84797108
v 0.62143644 0.03121515 0.84970664
v 0.62186692 0.02760090 0.84703215
v 0.61822907 0.02492554 0.84654901
v 0.61377454 0.02598874 0.84695771
v 0.61169898 0.02952888 0.84887537
v 0.61358159 0.02842752 0.85281611
v 0.61611684 0.02566372 0.85038166
v 0.61406561 0.02202909 0.84879271
v 0.60996177 0.02299362 0.84727776
v 0.60673304 0.02317006 0.85036569
v 0.60679542 0.01933055 0.85278783
v 0.61027799 0.01654642 0.85333782
v 0.61430077 0.01847514 0.85423517
v 0.61414980 0.02304823 0.85462406
v 0.61100855 0.02580092 0.85638044
v 0.60663124 0.02637163 0.85535074
v 0.60249290 0.02857366 0.85475461
v 0.60135108 0.03299799 0.85391961
v 0.60255810 0.03530669 0.85810671
v 0.60212547 0.03229662 0.86158882
v 0.60238382 0.02786627 0.86228590
v 0.60187690 0.02359096 0.86087218
v 0.59825588 0.02104596 0.85941395
v 0.59400620 0.02309752 0.85934941
v 0.59405513 0.02719686 0.86115873
v 0.59416460 0.03164671 0.86198409
v 0.59359838 0.03595118 0.86407076
l 1 2
l 2 3
l 3 4
l 4 5
l 5 6
l 6 7
l 7 8
l 8 9
l 9 10
l 10 11
l 11 12
l 12 13
l 13 14
l 14 15
l 15 16
l 16 17
l 17 18
l 18 19
l 19 20
l 20 21
l 21 22
l 22 23
l 23 24
l 24 25
l 25 26
l 26 27
l 27 28
l 28 29
