v 0.65158495 0.06654260 0.86377455
v 0.64843613 0.06477722 0.86111769
v 0.64492996 0.06362652 0.85834521
v 0.64076678 0.06428077 0.85679080
v 0.63679776 0.06538394 0.85466858
v 0.63264108 0.06377094 0.85636621
v 0.63057881 0.06179249 0.86024147
v 0.62927058 0.06119706 0.86461082
v 0.62678519 0.06196477 0.86838264
v 0.62406418 0.06420014 0.87137192
v 0.62166321 0.06772597 0.87319359
v 0.61988645 0.07151901 0.87481952
v 0.62073802 0.07574384 0.87616565
v 0.62506102 0.07644779 0.87712570
v 0.62669555 0.07223022 0.87680206
v 0.62473379 0.06817818 0.87691639
v 0.62294820 0.06511871 0.87981301
v 0.62173914 0.06645454 0.88402249
v 0.62132082 0.07090935 0.88441436
v 0.62077174 0.07374080 0.88100359
v 0.61847865 0.07500898 0.87732111
v 0.61521243 0.07779859 0.87608042
v 0.61377019 0.08198450 0.87667310
v 0.61606798 0.08600749 0.87714303
v 0.62062921 0.08707957 0.87729725
v 0.62484202 0.08549187 0.87879102
v 0.62589666 0.08138122 0.88019984
v 0.62307103 0.07789863 0.88023850
v 0.61860103 0.07665226 0.87980534
l 1 2
l 2 3
l 3 4
l 4 5
l 5 6
l 6 7
l 7 8
l 8 9
l 9 10
l 10 11
l 11 12
l 12 13
l 13 14
l 14 15
l 15 16
l 16 17
l 17 18
l 18 19
l 19 20
l 20 21
l 21 22
l 22 23
l 23 24
l 24 25
l 25 26
l 26 27
l 27 28
l 28 29
