v 0.59768256 0.08554459 0.84878766
v 0.59992365 0.08249505 0.85123192
v 0.59991793 0.07911799 0.85425561
v 0.59703047 0.07531205 0.85538671
v 0.59380794 0.07189112 0.85541842
v 0.58950293 0.07165340 0.85670964
v 0.58634631 0.07485498 0.85712447
v 0.58459852 0.07915114 0.85595815
v 0.58630724 0.08221498 0.85289562
v 0.58211886 0.08386069 0.85256413
v 0.57995310 0.08135396 0.85596692
v 0.58361791 0.07982400 0.85866844
v 0.58622625 0.08262906 0.85627297
v 0.58776484 0.08528710 0.85282566
v 0.59141752 0.08828521 0.85211556
v 0.59020271 0.09270717 0.85321009
v 0.58587724 0.09395067 0.85384585
v 0.58151075 0.09344386 0.85555191
v 0.58016784 0.09000724 0.85807025
v 0.57861958 0.08573657 0.85850924
v 0.57417455 0.08622244 0.85956497
v 0.57487906 0.09079241 0.85998521
v 0.57647649 0.09486211 0.85889116
v 0.57397108 0.09860882 0.85994650
v 0.57002998 0.09985456 0.86204436
v 0.56706986 0.09738138 0.86431824
v 0.56603562 0.09303041 0.86387118
v 0.56693785 0.08866734 0.86355119
v 0.56778797 0.08431573 0.86434209
l 1 2
l 2 3
l 3 4
l 4 5
l 5 6
l 6 7
l 7 8
l 8 9
l 9 10
l 10 11
l 11 12
l 12 13
l 13 14
l 14 15
l 15 16
l 16 17
l 17 18
l 18 19
l 19 20
l 20 21
l 21 22
l 22 23
l 23 24
l 24 25
l 25 26
l 26 27
l 27 28
l 28 29
