v 0.56521539 -0.02714992 0.85927685
v 0.56536062 -0.03160387 0.86045536
v 0.56407772 -0.03560444 0.86206593
v 0.56039567 -0.03750921 0.86377029
v 0.55602438 -0.03672640 0.86442563
v 0.55252172 -0.03379159 0.86452469
v 0.55028410 -0.02993769 0.86409637
v 0.55209229 -0.02583689 0.86297179
v 0.55657089 -0.02588914 0.86158331
v 0.55870342 -0.02989195 0.86167418
v 0.55939301 -0.03378623 0.86381005
v 0.55641733 -0.03549287 0.86675314
v 0.55216939 -0.03408424 0.86715222
v 0.54983386 -0.03004607 0.86668677
v 0.54935048 -0.02540975 0.86620189
v 0.55018454 -0.02092253 0.86584065
v 0.55174192 -0.01680536 0.86501727
v 0.55132465 -0.01262083 0.86332906
v 0.55064650 -0.00819687 0.86291927
v 0.55005279 -0.00366628 0.86305173
v 0.54910486 0.00098115 0.86337226
v 0.54784472 0.00550236 0.86375757
v 0.54685317 0.01002241 0.86405761
v 0.54913783 0.01391823 0.86328869
v 0.55346871 0.01352486 0.86187066
v 0.55532038 0.00929977 0.86128685
v 0.55481713 0.00464719 0.86148075
v 0.55352190 0.00033635 0.86193019
v 0.55256728 -0.00404635 0.86226772
l 1 2
l 2 3
l 3 4
l 4 5
l 5 6
l 6 7
l 7 8
l 8 9
l 9 10
l 10 11
l 11 12
l 12 13
l 13 14
l 14 15
l 15 16
l 16 17
l 17 18
l 18 19
l 19 20
l 20 21
l 21 22
l 22 23
l 23 24
l 24 25
l 25 26
l 26 27
l 27 28
l 28 29
