v 0.58256405 -0.03943642 0.86157764
v 0.57886486 -0.04176789 0.86325462
v 0.57507580 -0.04382780 0.86478561
v 0.57139591 -0.04599122 0.86664398
v 0.56793020 -0.04833230 0.86861115
v 0.56473799 -0.05079032 0.87110365
v 0.56129429 -0.05291216 0.87340556
v 0.55710689 -0.05374373 0.87509330
v 0.55286212 -0.05233925 0.87501112
v 0.55108722 -0.04881000 0.87278065
v 0.55359244 -0.04580313 0.87038830
v 0.55818996 -0.04462590 0.86996935
v 0.56220373 -0.04239523 0.86927961
v 0.56284521 -0.03793966 0.86853668
v 0.56031870 -0.03428264 0.86932788
v 0.55704425 -0.03151776 0.87096023
v 0.55257956 -0.03169737 0.87121613
v 0.54940702 -0.03486637 0.87093109
v 0.54945650 -0.03939288 0.87012372
v 0.55297965 -0.04200274 0.86907226
v 0.55741049 -0.04121091 0.86948956
v 0.56009030 -0.03800837 0.87110278
v 0.56082647 -0.03341960 0.87205394
v 0.56061948 -0.02899912 0.87113588
v 0.55993343 -0.02477524 0.86974239
v 0.55898098 -0.02044287 0.86806773
v 0.55803761 -0.01626179 0.86645367
v 0.55721787 -0.01177407 0.86523871
v 0.55607413 -0.00707978 0.86452546
l 1 2
l 2 3
l 3 4
l 4 5
l 5 6
l 6 7
l 7 8
l 8 9
l 9 10
l 10 11
l 11 12
l 12 13
l 13 14
l 14 15
l 15 16
l 16 17
l 17 18
l 18 19
l 19 20
l 20 21
l 21 22
l 22 23
l 23 24
l 24 25
l 25 26
l 26 27
l 27 28
l 28 29
