v 0.59497671 0.02147725 0.84815605
v 0.59435983 0.02597421 0.84831802
v 0.59116391 0.02900461 0.84934807
v 0.58697427 0.02763621 0.85073863
v 0.58384908 0.02460951 0.85179668
v 0.57971754 0.02361433 0.85316722
v 0.57571824 0.02592440 0.85446928
v 0.57361462 0.02988589 0.85513412
v 0.56979141 0.03190926 0.85637812
v 0.56643985 0.02930640 0.85820356
v 0.56701591 0.02515338 0.86001687
v 0.57045475 0.02265703 0.86152751
v 0.57396978 0.02537606 0.86221571
v 0.57171975 0.02963421 0.86233148
v 0.56882589 0.03234800 0.86015735
v 0.56476501 0.03153520 0.85841181
v 0.56281091 0.02752789 0.85871225
v 0.56094306 0.02342067 0.85935432
v 0.55859439 0.01976171 0.86125655
v 0.55593486 0.01982220 0.86488724
v 0.55378359 0.02321676 0.86696107
v 0.55341002 0.02768745 0.86740781
v 0.55425180 0.03233983 0.86783566
v 0.55587210 0.03648367 0.86859396
v 0.55776612 0.04044625 0.86951441
v 0.55956746 0.04447372 0.87030590
v 0.56104222 0.04889403 0.86987916
v 0.56146298 0.05335286 0.86919692
v 0.56114952 0.05792940 0.86837729
l 1 2
l 2 3
l 3 4
l 4 5
l 5 6
l 6 7
l 7 8
l 8 9
l 9 10
l 10 11
l 11 12
l 12 13
l 13 14
l 14 15
l 15 16
l 16 17
l 17 18
l 18 19
l 19 20
l 20 21
l 21 22
l 22 23
l 23 24
l 24 25
l 25 26
l 26 27
l 27 28
l 28 29
