v 0.62587348 -0.01471097 0.85566930
v 0.62190234 -0.01280284 0.85335766
v 0.61851626 -0.01031943 0.85149901
v 0.61568194 -0.00664417 0.85158028
v 0.61308244 -0.00362054 0.85376630
v 0.61663137 -0.00073265 0.85535409
v 0.61776419 -0.00267229 0.85131841
v 0.61400211 -0.00460562 0.84977709
v 0.61071444 -0.00626688 0.85241300
v 0.60785940 -0.00913843 0.85431781
v 0.60572545 -0.01191898 0.85724024
v 0.60421097 -0.01575165 0.85953080
v 0.60608934 -0.01990768 0.85982054
v 0.60804977 -0.02342393 0.86216984
v 0.60689445 -0.02770258 0.86110063
v 0.60366749 -0.02551877 0.85875642
v 0.60383904 -0.02182220 0.86141160
v 0.60570786 -0.01777285 0.86261983
v 0.60502977 -0.01357937 0.86119243
v 0.60049066 -0.01315095 0.86052039
v 0.59626432 -0.01127848 0.85939058
v 0.59789039 -0.00811229 0.85627616
v 0.60044118 -0.00444564 0.85585332
v 0.60378686 -0.00328260 0.85888545
v 0.60466926 -0.00779160 0.85991698
v 0.60044976 -0.00937108 0.85958722
v 0.59708341 -0.00625491 0.85845139
v 0.59364611 -0.00333970 0.85738482
v 0.59080776 0.00008876 0.85640649
l 1 2
l 2 3
l 3 4
l 4 5
l 5 6
l 6 7
l 7 8
l 8 9
l 9 10
l 10 11
l 11 12
l 12 13
l 13 14
l 14 15
l 15 16
l 16 17
l 17 18
l 18 19
l 19 20
l 20 21
l 21 22
l 22 23
l 23 24
l 24 25
l 25 26
l 26 27
l 27 28
l 28 29
