v 0.60190076 0.06991777 0.84605391
v 0.60184473 0.07455927 0.84638461
v 0.59761007 0.07571009 0.84730911
v 0.59448666 0.07236622 0.84794913
v 0.59187709 0.06983705 0.85054445
v 0.58972644 0.06659919 0.85285677
v 0.58681091 0.06300521 0.85288447
v 0.58288721 0.06104595 0.85402320
v 0.57944849 0.06270977 0.85661166
v 0.57815473 0.06700305 0.85671248
v 0.57807850 0.07156231 0.85759184
v 0.57461266 0.07192673 0.86055464
v 0.57057109 0.07092827 0.85860821
v 0.56880657 0.07509582 0.85860112
v 0.57052534 0.07729449 0.86213826
v 0.57237012 0.07422937 0.86521994
v 0.57357866 0.06982651 0.86580511
v 0.57343327 0.06538713 0.86524692
v 0.57129854 0.06098706 0.86400588
v 0.56686848 0.06029101 0.86229985
v 0.56366993 0.06322216 0.86121579
v 0.56165136 0.06754532 0.86161304
v 0.56132725 0.07201207 0.86265911
v 0.56468509 0.07498236 0.86302874
v 0.56827268 0.07367405 0.86539105
v 0.56961345 0.06986853 0.86733210
v 0.56785566 0.06583572 0.86891872
v 0.56446987 0.06282668 0.86897919
v 0.56055995 0.06050126 0.86908027
l 1 2
l 2 3
l 3 4
l 4 5
l 5 6
l 6 7
l 7 8
l 8 9
l 9 10
l 10 11
l 11 12
l 12 13
l 13 14
l 14 15
l 15 16
l 16 17
l 17 18
l 18 19
l 19 20
l 20 21
l 21 22
l 22 23
l 23 24
l 24 25
l 25 26
l 26 27
l 27 28
l 28 29
