v 0.63183948 0.06622459 0.84853794
v 0.63252557 0.07051822 0.84957791
v 0.63153645 0.07296096 0.85333958
v 0.62873593 0.07358564 0.85695119
v 0.62784863 0.07555178 0.86115439
v 0.62690923 0.07753807 0.86505303
v 0.62463480 0.07599970 0.86875569
v 0.62109095 0.07333739 0.86975746
v 0.61713303 0.07185736 0.86764799
v 0.61538616 0.07381756 0.86400136
v 0.61422023 0.07492401 0.85969409
v 0.61144310 0.07251951 0.85691783
v 0.60739913 0.07484814 0.85721000
v 0.60970820 0.07826125 0.85963634
v 0.61300052 0.07662559 0.86258133
v 0.61266497 0.07260269 0.86517104
v 0.61159959 0.06913467 0.86780189
v 0.60956586 0.06482815 0.86747280
v 0.60752950 0.06284839 0.86355648
v 0.60620018 0.06455520 0.85961832
v 0.60754589 0.06891095 0.85984025
v 0.60830608 0.07272513 0.86215480
v 0.60505826 0.07409191 0.86512051
v 0.60155394 0.07129607 0.86539347
v 0.60137634 0.06710868 0.86335841
v 0.60138773 0.06277019 0.86211957
v 0.60054827 0.05869604 0.86421836
v 0.59932041 0.05574447 0.86734578
v 0.59691475 0.05369664 0.87051369
l 1 2
l 2 3
l 3 4
l 4 5
l 5 6
l 6 7
l 7 8
l 8 9
l 9 10
l 10 11
l 11 12
l 12 13
l 13 14
l 14 15
l 15 16
l 16 17
l 17 18
l 18 19
l 19 20
l 20 21
l 21 22
l 22 23
l 23 24
l 24 25
l 25 26
l 26 27
l 27 28
l 28 29
