v 0.61351721 0.10190338 0.85462419
v 0.61286931 0.10164233 0.85913355
v 0.61239483 0.10296714 0.86353981
v 0.61280796 0.10440482 0.86779359
v 0.61399600 0.10647255 0.87188265
v 0.61116342 0.10796631 0.87503083
v 0.60711787 0.10929578 0.87327255
v 0.60567253 0.10965564 0.86881964
v 0.60359174 0.10896112 0.86489357
v 0.59915692 0.10824338 0.86468750
v 0.59455107 0.10814160 0.86351034
v 0.59117911 0.10751632 0.86055817
v 0.58853801 0.10634222 0.85709788
v 0.58799398 0.10380835 0.85340728
v 0.58383714 0.10148674 0.85326961
v 0.58215473 0.10043259 0.85729427
v 0.57976137 0.10165304 0.86089166
v 0.57566311 0.10344343 0.86078200
v 0.57156824 0.10501364 0.86170285
v 0.57046669 0.10795148 0.86488112
v 0.57326707 0.11082123 0.86696691
v 0.57758826 0.11248525 0.86747959
v 0.58216045 0.11289966 0.86649742
v 0.58598083 0.11141356 0.86439905
v 0.58730894 0.10737986 0.86291519
v 0.58662212 0.10290544 0.86258319
v 0.58364034 0.09965334 0.86361405
v 0.57986830 0.09786356 0.86534624
v 0.57563810 0.09710709 0.86682728
l 1 2
l 2 3
l 3 4
l 4 5
l 5 6
l 6 7
l 7 8
l 8 9
l 9 10
l 10 11
l 11 12
l 12 13
l 13 14
l 14 15
l 15 16
l 16 17
l 17 18
l 18 19
l 19 20
l 20 21
l 21 22
l 22 23
l 23 24
l 24 25
l 25 26
l 26 27
l 27 28
l 28 29
