v 0.64624229 0.04551453 0.85380335
v 0.64257930 0.04577679 0.85120189
v 0.63914931 0.04261285 0.85016349
v 0.63520788 0.04038853 0.84988231
v 0.63134690 0.04281130 0.84872567
v 0.62723736 0.04481064 0.84867357
v 0.62287987 0.04592568 0.84995190
v 0.62494838 0.04990857 0.85062019
v 0.62714198 0.05185487 0.85410906
v 0.62583737 0.04802708 0.85636054
v 0.62271677 0.04490372 0.85543561
v 0.62136243 0.04137711 0.85796966
v 0.61932665 0.03863208 0.85506266
v 0.61893891 0.04294305 0.85365943
v 0.62062052 0.04613594 0.85651340
v 0.62336763 0.04620968 0.86021292
v 0.62401158 0.04429014 0.86432694
v 0.62038611 0.04143458 0.86499224
v 0.61668151 0.03900988 0.86393719
v 0.61365646 0.03702914 0.86682164
v 0.61330347 0.03344298 0.86981460
v 0.61581564 0.02979192 0.87097468
v 0.61903993 0.02685459 0.87211391
v 0.61951894 0.02247003 0.87316186
v 0.61613824 0.01917862 0.87304398
v 0.61181965 0.01817898 0.87139461
v 0.60783836 0.01862165 0.86909408
v 0.60393119 0.01913366 0.86694620
v 0.59957113 0.01890643 0.86486454
l 1 2
l 2 3
l 3 4
l 4 5
l 5 6
l 6 7
l 7 8
l 8 9
l 9 10
l 10 11
l 11 12
l 12 13
l 13 14
l 14 15
l 15 16
l 16 17
l 17 18
l 18 19
l 19 20
l 20 21
l 21 22
l 22 23
l 23 24
l 24 25
l 25 26
l 26 27
l 27 28
l 28 29
