v 0.61277161 0.10897043 0.85803569
v 0.60860578 0.10923009 0.85964563
v 0.60542940 0.11174349 0.86153628
v 0.60198178 0.11454681 0.86235298
v 0.59795975 0.11651954 0.86274372
v 0.59428571 0.11490118 0.86074803
v 0.59261019 0.11273552 0.85715989
v 0.59325952 0.10831887 0.85613577
v 0.59530836 0.10737165 0.86012041
v 0.59888267 0.10912064 0.86220232
v 0.60174645 0.11198666 0.86427322
v 0.59986411 0.11604511 0.86525204
v 0.59739454 0.11886019 0.86772875
v 0.59605754 0.12255747 0.87011214
v 0.59324791 0.12600778 0.87131408
v 0.58989147 0.12871047 0.86956931
v 0.58554939 0.12959326 0.86804047
v 0.58148226 0.13107635 0.86920405
v 0.58045767 0.13409234 0.87256207
v 0.58310065 0.13634659 0.87545005
v 0.58751325 0.13675345 0.87640571
v 0.59173924 0.13529825 0.87570429
v 0.59453466 0.13192512 0.87476361
v 0.59529005 0.12740886 0.87409870
v 0.59468293 0.12311513 0.87299330
v 0.59218888 0.11951262 0.87115630
v 0.58901458 0.11652387 0.86978747
v 0.58532839 0.11393440 0.86880241
v 0.58146099 0.11163077 0.86893794
l 1 2
l 2 3
l 3 4
l 4 5
l 5 6
l 6 7
l 7 8
l 8 9
l 9 10
l 10 11
l 11 12
l 12 13
l 13 14
l 14 15
l 15 16
l 16 17
l 17 18
l 18 19
l 19 20
l 20 21
l 21 22
l 22 23
l 23 24
l 24 25
l 25 26
l 26 27
l 27 28
l 28 29
