v 0.61795209 0.05186332 0.84377293
v 0.61520678 0.04822428 0.84359513
v 0.61150284 0.04758192 0.84606627
v 0.60904764 0.05129669 0.84673827
v 0.60462376 0.05103057 0.84768333
v 0.60316016 0.04744169 0.84535699
v 0.60458180 0.04326258 0.84614380
v 0.60853485 0.04270131 0.84858918
v 0.60898118 0.04637362 0.85134036
v 0.60668358 0.04997590 0.84981410
v 0.60310021 0.05196329 0.85170111
v 0.60079663 0.04838833 0.85375447
v 0.59969380 0.04411721 0.85449441
v 0.60221903 0.04235050 0.85803247
v 0.60325458 0.04601279 0.86060711
v 0.60141743 0.04935793 0.85826950
v 0.59889558 0.04992462 0.85454520
v 0.59659074 0.04850349 0.85098931
v 0.59277717 0.04620847 0.85136482
v 0.59387319 0.04346003 0.85504539
v 0.59679810 0.04709293 0.85647788
v 0.59507193 0.05129181 0.85614710
v 0.59599567 0.05494558 0.85874582
v 0.59558845 0.05407499 0.86332357
v 0.59353693 0.05028681 0.86458379
v 0.59110685 0.04633942 0.86517478
v 0.58774669 0.04341932 0.86595082
v 0.58395387 0.04094390 0.86598408
v 0.58011207 0.03856820 0.86613126
l 1 2
l 2 3
l 3 4
l 4 5
l 5 6
l 6 7
l 7 8
l 8 9
l 9 10
l 10 11
l 11 12
l 12 13
l 13 14
l 14 15
l 15 16
l 16 17
l 17 18
l 18 19
l 19 20
l 20 21
l 21 22
l 22 23
l 23 24
l 24 25
l 25 26
l 26 27
l 27 28
l 28 29
