v 0.60484097 0.08922946 0.84877465
v 0.60811998 0.08613475 0.84814798
v 0.61093032 0.08269119 0.84747728
v 0.60868370 0.07890489 0.84653369
v 0.60485402 0.07996291 0.84915584
v 0.60296279 0.08407349 0.84934150
v 0.59958212 0.08628634 0.85132301
v 0.59935452 0.08290447 0.85432540
v 0.59735868 0.07920850 0.85601829
v 0.59521203 0.07535719 0.85785343
v 0.59539214 0.07445061 0.86226768
v 0.59352310 0.07747460 0.86513137
v 0.59157444 0.08161775 0.86539757
v 0.58810487 0.08409765 0.86354655
v 0.58435575 0.08264980 0.86082794
v 0.58235329 0.08302801 0.85657562
v 0.58388947 0.08646967 0.85413874
v 0.58546071 0.09013860 0.85624123
v 0.58388788 0.09418656 0.85739578
v 0.58155711 0.09797026 0.85817433
v 0.57795139 0.09971855 0.86078327
v 0.57391160 0.09856403 0.86278621
v 0.57091878 0.09513628 0.86347767
v 0.56881146 0.09117500 0.86456950
v 0.57071070 0.08720870 0.86568096
v 0.57517605 0.08673811 0.86587458
v 0.57901645 0.08910923 0.86576035
v 0.58155519 0.09281862 0.86538660
v 0.58343127 0.09699160 0.86518391
l 1 2
l 2 3
l 3 4
l 4 5
l 5 6
l 6 7
l 7 8
l 8 9
l 9 10
l 10 11
l 11 12
l 12 13
l 13 14
l 14 15
l 15 16
l 16 17
l 17 18
l 18 19
l 19 20
l 20 21
l 21 22
l 22 23
l 23 24
l 24 25
l 25 26
l 26 27
l 27 28
l 28 29
