v 0.63709702 0.06848303 0.86005487
v 0.63428484 0.06618701 0.86272687
v 0.63155806 0.06402194 0.86591603
v 0.62880840 0.06301830 0.86940920
v 0.62606317 0.06505928 0.87260901
v 0.62616506 0.06944818 0.87384020
v 0.62837137 0.07330573 0.87438508
v 0.63040831 0.07696840 0.87595591
v 0.63205654 0.08022153 0.87862888
v 0.63482053 0.08156638 0.88195971
v 0.63865639 0.08177788 0.88427194
v 0.64287703 0.08131534 0.88618267
v 0.64695121 0.07941576 0.88732425
v 0.65073646 0.07672742 0.88726278
v 0.65506629 0.07515373 0.88615028
v 0.65861071 0.07713764 0.88399365
v 0.65931200 0.08170314 0.88371758
v 0.65849373 0.08558938 0.88576853
v 0.65676051 0.08858973 0.88860879
v 0.65359055 0.09154154 0.89059467
v 0.64976120 0.09381714 0.89097411
v 0.64548595 0.09525609 0.88999484
v 0.64146653 0.09572979 0.88764539
v 0.63843104 0.09510167 0.88420991
v 0.63613495 0.09354922 0.88053626
v 0.63268423 0.09134691 0.87864785
v 0.62876136 0.08909873 0.87885544
v 0.62453499 0.08790962 0.88001969
v 0.61998050 0.08684658 0.88071375
l 1 2
l 2 3
l 3 4
l 4 5
l 5 6
l 6 7
l 7 8
l 8 9
l 9 10
l 10 11
l 11 12
l 12 13
l 13 14
l 14 15
l 15 16
l 16 17
l 17 18
l 18 19
l 19 20
l 20 21
l 21 22
l 22 23
l 23 24
l 24 25
l 25 26
l 26 27
l 27 28
l 28 29
