v 0.59103215 0.00892505 0.84954687
v 0.58721246 0.00684373 0.85080950
v 0.58288648 0.00733014 0.85223861
v 0.57877345 0.00573192 0.85359769
v 0.57600262 0.00230591 0.85453880
v 0.57215057 0.00421817 0.85579016
v 0.57039293 0.00840055 0.85634145
v 0.56693484 0.01131770 0.85746225
v 0.56270406 0.01067889 0.85885738
v 0.55969787 0.00735509 0.85986283
v 0.55705984 0.00381639 0.86074943
v 0.55573451 -0.00069631 0.86121052
v 0.55877717 -0.00423795 0.86023413
v 0.56295970 -0.00257752 0.85885269
v 0.56613157 0.00043960 0.85779195
v 0.56929287 0.00364289 0.85739207
v 0.57165868 0.00711048 0.85913812
v 0.57123117 0.01134889 0.86127945
v 0.56896533 0.01372165 0.86456800
v 0.56524453 0.01456940 0.86694875
v 0.56066012 0.01523588 0.86759420
v 0.55707980 0.01786934 0.86811801
v 0.55556462 0.02203022 0.86870593
v 0.55670634 0.02675804 0.86765066
v 0.56060696 0.02855119 0.86615617
v 0.56449753 0.02646575 0.86522770
v 0.56676663 0.02255556 0.86604342
v 0.56825609 0.01827429 0.86660406
v 0.56916958 0.01399539 0.86799982
l 1 2
l 2 3
l 3 4
l 4 5
l 5 6
l 6 7
l 7 8
l 8 9
l 9 10
l 10 11
l 11 12
l 12 13
l 13 14
l 14 15
l 15 16
l 16 17
l 17 18
l 18 19
l 19 20
l 20 21
l 21 22
l 22 23
l 23 24
l 24 25
l 25 26
l 26 27
l 27 28
l 28 29
