v 0.64057771 0.04692960 0.84984479
v 0.63755730 0.04369460 0.84830038
v 0.63324875 0.04405492 0.84667577
v 0.62910707 0.04528475 0.84551242
v 0.62709692 0.04877633 0.84780985
v 0.62608447 0.05263198 0.84987763
v 0.62149392 0.05213351 0.84921026
v 0.61899503 0.04869993 0.85071429
v 0.61785150 0.04604631 0.85429932
v 0.61590370 0.04344305 0.85741016
v 0.61413770 0.03924868 0.85782817
v 0.61405060 0.03468058 0.85755941
v 0.61500653 0.03062406 0.85579241
v 0.61588106 0.02647830 0.85758781
v 0.61575767 0.02547195 0.86205244
v 0.61391763 0.02722773 0.86577759
v 0.61040268 0.02924146 0.86770345
v 0.60598575 0.03049555 0.86820040
v 0.60367228 0.03368389 0.86600757
v 0.60531787 0.03797408 0.86460658
v 0.60818949 0.04075433 0.86692413
v 0.61030795 0.03874352 0.87031291
v 0.61117480 0.03439690 0.87112651
v 0.61101955 0.02986518 0.87085875
v 0.60886972 0.02637427 0.86898483
v 0.60566780 0.02527727 0.86595655
v 0.60162154 0.02464598 0.86380655
v 0.59740941 0.02617094 0.86377447
v 0.59374631 0.02871713 0.86396042
l 1 2
l 2 3
l 3 4
l 4 5
l 5 6
l 6 7
l 7 8
l 8 9
l 9 10
l 10 11
l 11 12
l 12 13
l 13 14
l 14 15
l 15 16
l 16 17
l 17 18
l 18 19
l 19 20
l 20 21
l 21 22
l 22 23
l 23 24
l 24 25
l 25 26
l 26 27
l 27 28
l 28 29
