v 0.63028868 0.06420305 0.84761610
v 0.63269867 0.06303605 0.85131006
v 0.63699488 0.06172814 0.85241138
v 0.63682565 0.05767106 0.85456277
v 0.63329433 0.05862884 0.85726308
v 0.62975574 0.06162881 0.85685029
v 0.62573926 0.06033202 0.85475855
v 0.62426536 0.05665042 0.85691270
v 0.62224581 0.05478590 0.86064355
v 0.62077326 0.05264060 0.86433432
v 0.61718669 0.05054667 0.86602586
v 0.61334426 0.04877218 0.86776294
v 0.61265996 0.04756447 0.87216869
v 0.61669576 0.04850668 0.87421573
v 0.61970304 0.05089945 0.87194119
v 0.62042942 0.05499120 0.87021377
v 0.61911737 0.05915290 0.86923836
v 0.61545946 0.06190999 0.86861179
v 0.61095621 0.06182203 0.86752417
v 0.60747400 0.05923278 0.86577939
v 0.60734810 0.05545854 0.86337505
v 0.60342112 0.05394189 0.86156110
v 0.60176665 0.05811391 0.86179433
v 0.60479083 0.06118687 0.86303670
v 0.60699730 0.06202871 0.86695855
v 0.60670197 0.05899695 0.87036745
v 0.60389307 0.05552323 0.87086503
v 0.60015709 0.05268424 0.87016490
v 0.59619587 0.05053505 0.86974524
l 1 2
l 2 3
l 3 4
l 4 5
l 5 6
l 6 7
l 7 8
l 8 9
l 9 10
l 10 11
l 11 12
l 12 13
l 13 14
l 14 15
l 15 16
l 16 17
l 17 18
l 18 19
l 19 20
l 20 21
l 21 22
l 22 23
l 23 24
l 24 25
l 25 26
l 26 27
l 27 28
l 28 29
