v 0.61555353 0.00153230 0.84736222
v 0.61118619 0.00048799 0.84725239
v 0.60683956 -0.00153458 0.84744534
v 0.60292318 -0.00214461 0.85019111
v 0.60048938 0.00176857 0.85049605
v 0.60035509 0.00490967 0.84712796
v 0.60302435 0.00881966 0.84630395
v 0.60699957 0.01123169 0.84568413
v 0.61003384 0.01434752 0.84758258
v 0.60820464 0.01687867 0.85082159
v 0.60409857 0.01527630 0.84926640
v 0.60109389 0.01163634 0.84898774
v 0.59850429 0.00827551 0.84746342
v 0.59770669 0.00388038 0.84787147
v 0.59818805 0.00204681 0.85191663
v 0.60139574 0.00516094 0.85318664
v 0.60321328 0.00909365 0.85208613
v 0.60447885 0.01350790 0.85250064
v 0.60214557 0.01728429 0.85359656
v 0.59766973 0.01612053 0.85417323
v 0.59836422 0.01133068 0.85525169
v 0.59895265 0.00690813 0.85395540
v 0.59448626 0.00610321 0.85402908
v 0.59250533 0.00959494 0.85637196
v 0.59245839 0.01322105 0.85921535
v 0.59037983 0.01659273 0.86155706
v 0.58609174 0.01787041 0.86270927
v 0.58179835 0.01648851 0.86292314
v 0.57783580 0.01449427 0.86231640
l 1 2
l 2 3
l 3 4
l 4 5
l 5 6
l 6 7
l 7 8
l 8 9
l 9 10
l 10 11
l 11 12
l 12 13
l 13 14
l 14 15
l 15 16
l 16 17
l 17 18
l 18 19
l 19 20
l 20 21
l 21 22
l 22 23
l 23 24
l 24 25
l 25 26
l 26 27
l 27 28
l 28 29
