v 0.65492119 0.06466508 0.86384452
v 0.65093538 0.06317451 0.86238801
v 0.64656062 0.06207561 0.86270963
v 0.64275880 0.06396149 0.86129445
v 0.64074939 0.06748411 0.85912971
v 0.63678920 0.06609464 0.85727017
v 0.63369008 0.06336532 0.85962102
v 0.63076542 0.06375000 0.86313393
v 0.62742839 0.06405749 0.86626466
v 0.62457247 0.06583620 0.86938770
v 0.62413516 0.06946887 0.87194808
v 0.62556586 0.07359506 0.87333275
v 0.62752020 0.07685377 0.87581037
v 0.62930409 0.07943913 0.87904179
v 0.63183541 0.08090367 0.88257248
v 0.63509489 0.08173691 0.88559331
v 0.63894951 0.08230852 0.88781920
v 0.64354697 0.08284936 0.88838663
v 0.64705087 0.08351579 0.88553904
v 0.64639789 0.08424941 0.88109161
v 0.64303928 0.08674522 0.87942578
v 0.63863957 0.08760262 0.88033994
v 0.63432156 0.08677715 0.88169369
v 0.62986511 0.08633942 0.88225976
v 0.62532401 0.08504687 0.88189825
v 0.62155302 0.08281985 0.88073987
v 0.61796534 0.08007373 0.87951599
v 0.61445377 0.07750062 0.87848069
v 0.61121477 0.07492374 0.87643404
l 1 2
l 2 3
l 3 4
l 4 5
l 5 6
l 6 7
l 7 8
l 8 9
l 9 10
l 10 11
l 11 12
l 12 13
l 13 14
l 14 15
l 15 16
l 16 17
l 17 18
l 18 19
l 19 20
l 20 21
l 21 22
l 22 23
l 23 24
l 24 25
l 25 26
l 26 27
l 27 28
l 28 29
