v 0.60098465 0.02127873 0.84628063
v 0.59671739 0.01974878 0.84758766
v 0.59356979 0.01648787 0.84865247
v 0.59099883 0.01269004 0.84953084
v 0.59280543 0.00902181 0.85231288
v 0.59428126 0.00509309 0.85073043
v 0.59230213 0.00098705 0.84986492
v 0.58891743 -0.00219149 0.85045178
v 0.58507713 0.00050225 0.85155590
v 0.58525053 0.00498480 0.85305843
v 0.58666445 0.00819924 0.85590255
v 0.58667359 0.01225448 0.85380717
v 0.58309655 0.01435284 0.85212088
v 0.57912709 0.01632004 0.85340986
v 0.57607128 0.01695958 0.85663380
v 0.57323903 0.01401816 0.85880817
v 0.57185749 0.00985603 0.85775665
v 0.57560101 0.00748109 0.85669746
v 0.57923885 0.01013416 0.85617530
v 0.58014330 0.01455141 0.85556275
v 0.57738695 0.01623322 0.85874471
v 0.57515521 0.01233889 0.85998443
v 0.57486470 0.00776435 0.85945003
v 0.57215125 0.00488512 0.86182004
v 0.57102537 0.00828889 0.86487309
v 0.57258748 0.01246903 0.86384491
v 0.57335430 0.01622840 0.86153420
v 0.57397101 0.02040199 0.85985241
v 0.57494149 0.02488790 0.85939491
l 1 2
l 2 3
l 3 4
l 4 5
l 5 6
l 6 7
l 7 8
l 8 9
l 9 10
l 10 11
l 11 12
l 12 13
l 13 14
l 14 15
l 15 16
l 16 17
l 17 18
l 18 19
l 19 20
l 20 21
l 21 22
l 22 23
l 23 24
l 24 25
l 25 26
l 26 27
l 27 28
l 28 29
