v 0.62311732 0.06459639 0.84570491
v 0.61847675 0.06470223 0.84564623
v 0.61436125 0.06307297 0.84659739
v 0.61062058 0.06302817 0.84907726
v 0.60647731 0.06149625 0.84785109
v 0.60301740 0.05853141 0.84800378
v 0.60032228 0.06203392 0.84882261
v 0.60349732 0.06518972 0.84834175
v 0.60599320 0.06197611 0.85038484
v 0.60325703 0.05814231 0.85048171
v 0.60052610 0.05470222 0.85136915
v 0.59613043 0.05446223 0.85242278
v 0.59296407 0.05624243 0.85510919
v 0.58918658 0.05566096 0.85756043
v 0.58751185 0.05149186 0.85656285
v 0.58849800 0.04753127 0.85455172
v 0.58952728 0.04359763 0.85643730
v 0.59137801 0.04508919 0.86023325
v 0.59239043 0.04932212 0.86156192
v 0.59140930 0.05368205 0.86099640
v 0.58740584 0.05524288 0.85951147
v 0.58390811 0.05253570 0.85887209
v 0.58401909 0.04802839 0.85878143
v 0.58788198 0.04610645 0.86003149
v 0.58966590 0.05007362 0.86155945
v 0.58732971 0.05397112 0.86195677
v 0.58377650 0.05678274 0.86238652
v 0.57936804 0.05772163 0.86197728
v 0.57490097 0.05755980 0.86253253
l 1 2
l 2 3
l 3 4
l 4 5
l 5 6
l 6 7
l 7 8
l 8 9
l 9 10
l 10 11
l 11 12
l 12 13
l 13 14
l 14 15
l 15 16
l 16 17
l 17 18
l 18 19
l 19 20
l 20 21
l 21 22
l 22 23
l 23 24
l 24 25
l 25 26
l 26 27
l 27 28
l 28 29
