v 0.62502309 0.04190267 0.84428375
v 0.62597439 0.04605558 0.84573560
v 0.62192485 0.04537669 0.84771637
v 0.61793048 0.04311867 0.84780375
v 0.61523418 0.03980962 0.84630967
v 0.61713478 0.03575224 0.84600047
v 0.61959699 0.03190022 0.84702500
v 0.61887663 0.02744567 0.84865355
v 0.61833027 0.02366040 0.85102308
v 0.61708491 0.01958112 0.85262928
v 0.61340220 0.01741716 0.85121057
v 0.60997211 0.02047270 0.85193101
v 0.61201974 0.02442878 0.85232271
v 0.61658671 0.02465305 0.85291293
v 0.61673498 0.02053378 0.85493210
v 0.61496527 0.02168339 0.85888866
v 0.61275918 0.02573249 0.85981315
v 0.60861719 0.02714908 0.85874674
v 0.60539110 0.02438240 0.85715704
v 0.60382688 0.02016975 0.85672084
v 0.60619698 0.01698858 0.85880016
v 0.60998583 0.01812863 0.86098973
v 0.61390036 0.01953374 0.86270000
v 0.61392363 0.02245154 0.86615777
v 0.60944550 0.02388593 0.86697969
v 0.60583001 0.02298739 0.86438764
v 0.60337948 0.02145745 0.86095027
v 0.60224784 0.01762445 0.85886641
v 0.60304182 0.01362978 0.85636258
l 1 2
l 2 3
l 3 4
l 4 5
l 5 6
l 6 7
l 7 8
l 8 9
l 9 10
l 10 11
l 11 12
l 12 13
l 13 14
l 14 15
l 15 16
l 16 17
l 17 18
l 18 19
l 19 20
l 20 21
l 21 22
l 22 23
l 23 24
l 24 25
l 25 26
l 26 27
l 27 28
l 28 29
