v 0.65920516 0.06836431 0.87111367
v 0.65707012 0.06672729 0.86754276
v 0.65318560 0.06497859 0.86578871
v 0.64881133 0.06421480 0.86489783
v 0.64554870 0.06536525 0.86203264
v 0.64358648 0.06633661 0.85812892
v 0.63996726 0.06703787 0.85542830
v 0.63654910 0.06966681 0.85679974
v 0.63389811 0.06878844 0.86028299
v 0.63059710 0.07194759 0.85995009
v 0.63055341 0.07654034 0.86059732
v 0.63034733 0.07980472 0.86375384
v 0.63254912 0.08207319 0.86706227
v 0.63433468 0.08310414 0.87110875
v 0.63658587 0.08328703 0.87512443
v 0.63760755 0.08365930 0.87945479
v 0.63573348 0.08428088 0.88351840
v 0.63101284 0.08365535 0.88357372
v 0.63060488 0.08440164 0.87909410
v 0.63489563 0.08555095 0.87795331
v 0.63948335 0.08660023 0.87767183
v 0.63974172 0.09136709 0.87717823
v 0.63584491 0.09113548 0.87498693
v 0.63304535 0.08745387 0.87505778
v 0.63052980 0.08382423 0.87663162
v 0.62657794 0.08187845 0.87736874
v 0.62224111 0.08310847 0.87702620
v 0.61816205 0.08435864 0.87562422
v 0.61404398 0.08396713 0.87368075
l 1 2
l 2 3
l 3 4
l 4 5
l 5 6
l 6 7
l 7 8
l 8 9
l 9 10
l 10 11
l 11 12
l 12 13
l 13 14
l 14 15
l 15 16
l 16 17
l 17 18
l 18 19
l 19 20
l 20 21
l 21 22
l 22 23
l 23 24
l 24 25
l 25 26
l 26 27
l 27 28
l 28 29
