v 0.57743301 -0.04006391 0.86229828
v 0.57369032 -0.04206439 0.86377857
v 0.56994443 -0.04420456 0.86564929
v 0.56585816 -0.04573193 0.86722361
v 0.56135588 -0.04458410 0.86730638
v 0.55740167 -0.04235869 0.86678794
v 0.55403993 -0.03941933 0.86627138
v 0.55109571 -0.03594544 0.86558302
v 0.54885506 -0.03209198 0.86514930
v 0.54526863 -0.02922331 0.86550296
v 0.54153435 -0.03102878 0.86723329
v 0.54234670 -0.03542590 0.86824444
v 0.54635482 -0.03772508 0.86771604
v 0.55084931 -0.03751674 0.86799077
v 0.55453037 -0.03519864 0.86961792
v 0.55668435 -0.03133411 0.86829586
v 0.55609280 -0.02679831 0.86744138
v 0.55418043 -0.02274616 0.86727840
v 0.55119818 -0.01941281 0.86802979
v 0.54764423 -0.01669035 0.86782799
v 0.54448679 -0.01350606 0.86805109
v 0.54326454 -0.00909955 0.86839776
v 0.54541692 -0.00514822 0.86767234
v 0.54978485 -0.00445454 0.86629928
v 0.55341719 -0.00704596 0.86568292
v 0.55511563 -0.01108673 0.86692121
v 0.55608899 -0.01563512 0.86783059
v 0.55623716 -0.02004516 0.86860278
v 0.55536906 -0.02427014 0.86989702
l 1 2
l 2 3
l 3 4
l 4 5
l 5 6
l 6 7
l 7 8
l 8 9
l 9 10
l 10 11
l 11 12
l 12 13
l 13 14
l 14 15
l 15 16
l 16 17
l 17 18
l 18 19
l 19 20
l 20 21
l 21 22
l 22 23
l 23 24
l 24 25
l 25 26
l 26 27
l 27 28
l 28 29
