v 0.62994180 0.10018355 0.86097014
v 0.62897023 0.10417537 0.86290160
v 0.62496705 0.10623195 0.86218087
v 0.62104974 0.10584654 0.85984900
v 0.61752051 0.10665108 0.86249665
v 0.61529453 0.11040369 0.86438972
v 0.61320595 0.11404756 0.86629699
v 0.61341185 0.11748334 0.86922048
v 0.61587387 0.11970681 0.87249193
v 0.61945771 0.12025620 0.87526129
v 0.62279318 0.12029832 0.87831597
v 0.62397930 0.12220712 0.88218551
v 0.62042654 0.12399553 0.88434979
v 0.61643602 0.12323601 0.88232564
v 0.61513804 0.12098179 0.87845963
v 0.61368054 0.11748979 0.87564174
v 0.61467491 0.11340399 0.87359504
v 0.61913679 0.11265850 0.87307372
v 0.62187741 0.11545720 0.87538091
v 0.62048204 0.11795889 0.87884413
v 0.61658681 0.11913463 0.88085238
v 0.61200549 0.11930578 0.88089538
v 0.60761046 0.11826116 0.87950456
v 0.60360527 0.11659101 0.87769242
v 0.59993444 0.11493131 0.87539213
v 0.59702545 0.11355388 0.87222106
v 0.59400917 0.11174177 0.86946338
v 0.59094129 0.10929123 0.86718645
v 0.58840004 0.10630882 0.86501727
l 1 2
l 2 3
l 3 4
l 4 5
l 5 6
l 6 7
l 7 8
l 8 9
l 9 10
l 10 11
l 11 12
l 12 13
l 13 14
l 14 15
l 15 16
l 16 17
l 17 18
l 18 19
l 19 20
l 20 21
l 21 22
l 22 23
l 23 24
l 24 25
l 25 26
l 26 27
l 27 28
l 28 29
