v 0.62064726 -0.00880968 0.85150591
v 0.62063675 -0.00451336 0.85008487
v 0.61776214 -0.00136474 0.84843893
v 0.61313666 -0.00159448 0.84786094
v 0.61088444 -0.00561179 0.84865238
v 0.61094013 -0.00949017 0.85129182
v 0.60732005 -0.01153935 0.85318875
v 0.60385734 -0.00973507 0.85076804
v 0.60526049 -0.00576697 0.84919934
v 0.60721522 -0.00194653 0.85059915
v 0.60564179 0.00223514 0.84953859
v 0.60320357 0.00594422 0.84857601
v 0.60340611 0.01055615 0.84938738
v 0.60776765 0.01021887 0.85133823
v 0.60783023 0.00555921 0.85142799
v 0.60471202 0.00230474 0.85204647
v 0.60503214 -0.00228402 0.85201136
v 0.60276045 -0.00640157 0.85110008
v 0.59875171 -0.00735184 0.85297573
v 0.59729698 -0.00349454 0.85502586
v 0.60113108 -0.00117344 0.85561927
v 0.60062067 0.00324361 0.85517102
v 0.59636891 0.00215740 0.85431705
v 0.59282240 -0.00087891 0.85428281
v 0.59043667 -0.00490044 0.85468004
v 0.58966602 -0.00941110 0.85424821
v 0.58592558 -0.01219547 0.85488080
v 0.58244247 -0.00924428 0.85516047
v 0.58347806 -0.00502198 0.85642958
l 1 2
l 2 3
l 3 4
l 4 5
l 5 6
l 6 7
l 7 8
l 8 9
l 9 10
l 10 11
l 11 12
l 12 13
l 13 14
l 14 15
l 15 16
l 16 17
l 17 18
l 18 19
l 19 20
l 20 21
l 21 22
l 22 23
l 23 24
l 24 25
l 25 26
l 26 27
l 27 28
l 28 29
