v 0.58078489 0.06742844 0.85242314
v 0.58423811 0.07004651 0.85125909
v 0.58225038 0.07417289 0.85186682
v 0.57948386 0.07759512 0.85274983
v 0.57659967 0.08097489 0.85365854
v 0.57472870 0.08500950 0.85423064
v 0.57046168 0.08540024 0.85562561
v 0.56622498 0.08485867 0.85702327
v 0.56218087 0.08632402 0.85833292
v 0.55886004 0.08913733 0.85939300
v 0.55665661 0.09309273 0.86006501
v 0.55911713 0.09683176 0.86086345
v 0.56359982 0.09732078 0.86090914
v 0.56607585 0.09599653 0.85742742
v 0.56830170 0.09225859 0.85625747
v 0.56849952 0.08856184 0.85879900
v 0.56812166 0.08505722 0.86161582
v 0.56593574 0.08126679 0.86253340
v 0.56148610 0.08083957 0.86160684
v 0.55795633 0.08366946 0.86182446
v 0.55502657 0.08679869 0.86336048
v 0.55100909 0.08838448 0.86455104
v 0.54639158 0.08784059 0.86487395
v 0.54301695 0.08455588 0.86467880
v 0.54173047 0.08018316 0.86509847
v 0.54098358 0.07575890 0.86539344
v 0.54023975 0.07124861 0.86568856
v 0.53981628 0.06677333 0.86587736
v 0.54006226 0.06199468 0.86585212
l 1 2
l 2 3
l 3 4
l 4 5
l 5 6
l 6 7
l 7 8
l 8 9
l 9 10
l 10 11
l 11 12
l 12 13
l 13 14
l 14 15
l 15 16
l 16 17
l 17 18
l 18 19
l 19 20
l 20 21
l 21 22
l 22 23
l 23 24
l 24 25
l 25 26
l 26 27
l 27 28
l 28 29
