v 0.59454383 -0.01808590 0.85190924
v 0.59356641 -0.02234076 0.85338925
v 0.59283304 -0.02656965 0.85492486
v 0.59324475 -0.03060991 0.85680993
v 0.59415373 -0.03451000 0.85894849
v 0.59455287 -0.03851322 0.86127750
v 0.59215144 -0.04152966 0.86376355
v 0.58812148 -0.03975733 0.86475372
v 0.58809608 -0.03548068 0.86312302
v 0.59266890 -0.03432335 0.86273887
v 0.59567900 -0.03783911 0.86347325
v 0.59663333 -0.04226976 0.86460712
v 0.59572530 -0.04586747 0.86716759
v 0.59275480 -0.04866208 0.86929206
v 0.58826514 -0.04947278 0.86914939
v 0.58646092 -0.04650525 0.86623429
v 0.58898790 -0.04273006 0.86554529
v 0.59210457 -0.04070447 0.86803342
v 0.59471373 -0.03691278 0.86870464
v 0.59439585 -0.03335971 0.86597036
v 0.59177548 -0.03004921 0.86439333
v 0.58866752 -0.02711538 0.86289961
v 0.58492575 -0.02495601 0.86154468
v 0.58063400 -0.02652075 0.86123356
v 0.57941260 -0.03069695 0.86252673
v 0.58023786 -0.03474655 0.86428208
v 0.57957129 -0.03430788 0.86873851
v 0.57666244 -0.03075289 0.86990063
v 0.57438347 -0.02675156 0.86890839
l 1 2
l 2 3
l 3 4
l 4 5
l 5 6
l 6 7
l 7 8
l 8 9
l 9 10
l 10 11
l 11 12
l 12 13
l 13 14
l 14 15
l 15 16
l 16 17
l 17 18
l 18 19
l 19 20
l 20 21
l 21 22
l 22 23
l 23 24
l 24 25
l 25 26
l 26 27
l 27 28
l 28 29
