v 0.63954474 0.09004176 0.86996153
v 0.63713765 0.09228090 0.86693899
v 0.63488555 0.09354314 0.86326745
v 0.63391937 0.09793449 0.86197562
v 0.63000889 0.09795524 0.85971114
v 0.62818004 0.09379093 0.85851540
v 0.62576479 0.09420393 0.86226387
v 0.62839421 0.09710634 0.86470007
v 0.62917109 0.10150465 0.86480595
v 0.62674518 0.10533679 0.86570822
v 0.62316764 0.10424170 0.86323859
v 0.62520362 0.10227582 0.85961682
v 0.62645437 0.09800677 0.86144370
v 0.62599755 0.09907205 0.86604617
v 0.62925292 0.10208265 0.86771438
v 0.63059415 0.10612770 0.86960743
v 0.63022936 0.10964650 0.87247960
v 0.62946444 0.11276725 0.87595229
v 0.62513577 0.11283891 0.87747842
v 0.62303540 0.10934072 0.87542172
v 0.62603433 0.10604265 0.87513506
v 0.63032860 0.10665686 0.87653143
v 0.63340319 0.10782394 0.87963975
v 0.63472460 0.11196226 0.88112366
v 0.63219733 0.11564031 0.88073851
v 0.62798960 0.11648363 0.87946651
v 0.62395794 0.11494088 0.87817445
v 0.62020628 0.11288182 0.87671335
v 0.61631522 0.11117761 0.87512306
l 1 2
l 2 3
l 3 4
l 4 5
l 5 6
l 6 7
l 7 8
l 8 9
l 9 10
l 10 11
l 11 12
l 12 13
l 13 14
l 14 15
l 15 16
l 16 17
l 17 18
l 18 19
l 19 20
l 20 21
l 21 22
l 22 23
l 23 24
l 24 25
l 25 26
l 26 27
l 27 28
l 28 29
