v 0.64297124 0.06600250 0.86289018
v 0.64165258 0.06997817 0.86046070
v 0.63956209 0.07353898 0.85864766
v 0.63823270 0.07781921 0.85824301
v 0.63888099 0.08046005 0.86184711
v 0.64248422 0.08022246 0.86447759
v 0.64467565 0.07916359 0.86827978
v 0.64517393 0.08054669 0.87250232
v 0.64316185 0.08153701 0.87670823
v 0.64078238 0.08460397 0.87923719
v 0.64219919 0.08460390 0.88377937
v 0.64545854 0.08160618 0.88457860
v 0.64942582 0.07952594 0.88465366
v 0.65241948 0.07616049 0.88426336
v 0.65654736 0.07423897 0.88288669
v 0.65931305 0.07679731 0.88034068
v 0.65862990 0.08132731 0.88009969
v 0.65654544 0.08469221 0.88282350
v 0.65623771 0.08846387 0.88547800
v 0.65563974 0.09217096 0.88802660
v 0.65395846 0.09614675 0.88967736
v 0.65137687 0.10004660 0.88985682
v 0.64842955 0.10350197 0.88905654
v 0.64520871 0.10668425 0.88799617
v 0.64104603 0.10907994 0.88762545
v 0.63668461 0.11024981 0.88732347
v 0.63228774 0.11023597 0.88574228
v 0.62910246 0.10927549 0.88271755
v 0.62637003 0.10718729 0.87982957
l 1 2
l 2 3
l 3 4
l 4 5
l 5 6
l 6 7
l 7 8
l 8 9
l 9 10
l 10 11
l 11 12
l 12 13
l 13 14
l 14 15
l 15 16
l 16 17
l 17 18
l 18 19
l 19 20
l 20 21
l 21 22
l 22 23
l 23 24
l 24 25
l 25 26
l 26 27
l 27 28
l 28 29
