v 0.60002991 0.03410307 0.84638046
v 0.59566466 0.03491000 0.84782814
v 0.59122814 0.03499652 0.84927311
v 0.58747282 0.03469766 0.85167704
v 0.58543596 0.03171674 0.85435132
v 0.58424471 0.02763502 0.85288664
v 0.57979529 0.02641586 0.85311680
v 0.57680276 0.02909313 0.85533555
v 0.57672340 0.03322557 0.85720453
v 0.57693365 0.03787672 0.85681576
v 0.57653331 0.04241221 0.85826510
v 0.57467754 0.04611916 0.85994252
v 0.57110629 0.04863232 0.86088526
v 0.56667188 0.04797036 0.86239477
v 0.56547529 0.04353057 0.86412852
v 0.56571831 0.03901353 0.86450597
v 0.56700460 0.03597219 0.86148643
v 0.57106505 0.03609682 0.85951358
v 0.57439921 0.03902970 0.86001203
v 0.57738336 0.04232444 0.86079645
v 0.57588776 0.04634598 0.86220102
v 0.57185381 0.04831412 0.86327450
v 0.56846168 0.04529849 0.86420622
v 0.56852716 0.04083860 0.86457627
v 0.56843711 0.03614632 0.86459353
v 0.56558841 0.03269420 0.86428159
v 0.56097343 0.03246605 0.86444269
v 0.55714725 0.03508374 0.86514803
v 0.55452266 0.03834062 0.86682462
l 1 2
l 2 3
l 3 4
l 4 5
l 5 6
l 6 7
l 7 8
l 8 9
l 9 10
l 10 11
l 11 12
l 12 13
l 13 14
l 14 15
l 15 16
l 16 17
l 17 18
l 18 19
l 19 20
l 20 21
l 21 22
l 22 23
l 23 24
l 24 25
l 25 26
l 26 27
l 27 28
l 28 29
