v 0.61206608 0.04637742 0.85507016
v 0.61003119 0.04890959 0.85193240
v 0.61000899 0.05338460 0.85181677
v 0.61154824 0.05772579 0.85184697
v 0.61091202 0.06227441 0.85184956
v 0.60729652 0.06459302 0.85054271
v 0.60321678 0.06512763 0.85299824
v 0.59994858 0.06813668 0.85356106
v 0.59992096 0.07255145 0.85288780
v 0.60176859 0.07660730 0.85256244
v 0.60574267 0.07725039 0.85464180
v 0.60461532 0.07452630 0.85802164
v 0.60321230 0.07010899 0.85752922
v 0.60186675 0.06572325 0.85711163
v 0.59774064 0.06364223 0.85679821
v 0.59387020 0.06285784 0.85913629
v 0.59181587 0.06001313 0.86196265
v 0.59180529 0.05614996 0.86428399
v 0.59453096 0.05537685 0.86778714
v 0.59659643 0.05888861 0.86978767
v 0.59627974 0.06357082 0.86998025
v 0.59377089 0.06754029 0.86945728
v 0.59047721 0.07069691 0.86927548
v 0.58612734 0.07176089 0.86903994
v 0.58239334 0.06975630 0.86704688
v 0.58069450 0.06581828 0.86528322
v 0.57920533 0.06158051 0.86431747
v 0.57790146 0.05731616 0.86469386
v 0.57762540 0.05302441 0.86333492
l 1 2
l 2 3
l 3 4
l 4 5
l 5 6
l 6 7
l 7 8
l 8 9
l 9 10
l 10 11
l 11 12
l 12 13
l 13 14
l 14 15
l 15 16
l 16 17
l 17 18
l 18 19
l 19 20
l 20 21
l 21 22
l 22 23
l 23 24
l 24 25
l 25 26
l 26 27
l 27 28
l 28 29
