v 0.64846092 0.04635519 0.85610577
v 0.64388564 0.04760953 0.85555755
v 0.64068795 0.04708081 0.85248438
v 0.63737291 0.04414220 0.85127404
v 0.63275535 0.04388852 0.85122059
v 0.62816622 0.04481988 0.85113169
v 0.62833380 0.04897731 0.85334481
v 0.63051141 0.05302508 0.85362208
v 0.62693430 0.05561313 0.85480517
v 0.62363560 0.05210440 0.85487295
v 0.62276443 0.04828926 0.85709075
v 0.62594426 0.04780555 0.86035756
v 0.62882496 0.05011433 0.86290910
v 0.62782678 0.05078119 0.86753702
v 0.62817787 0.04930789 0.87186302
v 0.62616296 0.04568552 0.87354037
v 0.62335894 0.04368190 0.87070216
v 0.62032649 0.04320541 0.86738971
v 0.61719122 0.03966657 0.86674403
v 0.61605413 0.03558599 0.86823219
v 0.61662418 0.03275153 0.87165100
v 0.61780126 0.02902349 0.87416860
v 0.61716813 0.02456420 0.87444528
v 0.61423713 0.02119410 0.87360402
v 0.60998386 0.02041563 0.87190176
v 0.60599151 0.02171299 0.86981268
v 0.60288427 0.02444016 0.86779538
v 0.60062885 0.02729278 0.86512950
v 0.59867938 0.02950847 0.86171562
l 1 2
l 2 3
l 3 4
l 4 5
l 5 6
l 6 7
l 7 8
l 8 9
l 9 10
l 10 11
l 11 12
l 12 13
l 13 14
l 14 15
l 15 16
l 16 17
l 17 18
l 18 19
l 19 20
l 20 21
l 21 22
l 22 23
l 23 24
l 24 25
l 25 26
l 26 27
l 27 28
l 28 29
