v 0.59698045 0.08248212 0.84792729
v 0.59626933 0.07790649 0.84773844
v 0.59285191 0.07459938 0.84845347
v 0.58992364 0.07107850 0.84937148
v 0.58791871 0.06858958 0.85262087
v 0.58537914 0.06493917 0.85381214
v 0.58080760 0.06492889 0.85508047
v 0.57891246 0.06890901 0.85435468
v 0.57699831 0.07300849 0.85361099
v 0.57415049 0.07637687 0.85451261
v 0.57059980 0.07888635 0.85565162
v 0.56828592 0.08220941 0.85792358
v 0.57058077 0.08607374 0.85879919
v 0.57126437 0.09037089 0.85773127
v 0.57037709 0.09434734 0.85584730
v 0.57231106 0.09857219 0.85530828
v 0.57700123 0.09803385 0.85394902
v 0.57880852 0.09419445 0.85561441
v 0.57545740 0.09125293 0.85608653
v 0.57230986 0.09268719 0.85913033
v 0.56956821 0.09543502 0.86139591
v 0.56491204 0.09517033 0.86168021
v 0.56045258 0.09417204 0.86220065
v 0.55783094 0.09099940 0.86400738
v 0.55811116 0.08648050 0.86425920
v 0.55993383 0.08227142 0.86420521
v 0.56180475 0.07812604 0.86410692
v 0.56362479 0.07416286 0.86555979
v 0.56678457 0.07094237 0.86537182
l 1 2
l 2 3
l 3 4
l 4 5
l 5 6
l 6 7
l 7 8
l 8 9
l 9 10
l 10 11
l 11 12
l 12 13
l 13 14
l 14 15
l 15 16
l 16 17
l 17 18
l 18 19
l 19 20
l 20 21
l 21 22
l 22 23
l 23 24
l 24 25
l 25 26
l 26 27
l 27 28
l 28 29
