v 0.57490299 -0.03889311 0.86167510
v 0.57019131 -0.03853665 0.86226775
v 0.56676125 -0.03540658 0.86147411
v 0.56802116 -0.03142730 0.85975701
v 0.56868043 -0.02705087 0.85843967
v 0.56536997 -0.02403584 0.85873817
v 0.56162415 -0.02655428 0.86010072
v 0.56285598 -0.03039048 0.86210836
v 0.56451077 -0.03398917 0.86422812
v 0.56769446 -0.03720011 0.86423347
v 0.56910172 -0.04146115 0.86420231
v 0.56544584 -0.04355778 0.86580278
v 0.56204919 -0.04062179 0.86638437
v 0.56236983 -0.03613458 0.86549591
v 0.56137313 -0.03187297 0.86424364
v 0.56009183 -0.02770867 0.86273694
v 0.55966360 -0.02364448 0.86059932
v 0.55859550 -0.01926576 0.86037844
v 0.55528619 -0.01638732 0.86144650
v 0.55143566 -0.01870319 0.86272082
v 0.55177586 -0.02316979 0.86445646
v 0.55560356 -0.02582928 0.86490099
v 0.55964897 -0.02385125 0.86386451
v 0.56077359 -0.01980947 0.86208699
v 0.56095386 -0.01603698 0.85958853
v 0.56003272 -0.01166710 0.85986328
v 0.55826779 -0.00739059 0.86048024
v 0.55427826 -0.00798724 0.86284050
v 0.55273829 -0.01180467 0.86529647
l 1 2
l 2 3
l 3 4
l 4 5
l 5 6
l 6 7
l 7 8
l 8 9
l 9 10
l 10 11
l 11 12
l 12 13
l 13 14
l 14 15
l 15 16
l 16 17
l 17 18
l 18 19
l 19 20
l 20 21
l 21 22
l 22 23
l 23 24
l 24 25
l 25 26
l 26 27
l 27 28
l 28 29
