v 0.60915271 0.05480042 0.84416254
v 0.60473757 0.05437259 0.84503705
v 0.60327804 0.05862024 0.84544679
v 0.60044316 0.06205528 0.84618800
v 0.59656150 0.05983814 0.84729328
v 0.59726681 0.05646285 0.85013226
v 0.59387594 0.05336641 0.84967388
v 0.59025534 0.05619045 0.84941507
v 0.58765163 0.05815082 0.85246951
v 0.58486635 0.05968731 0.85564508
v 0.58240530 0.06295752 0.85752359
v 0.58072418 0.06733838 0.85779528
v 0.58384607 0.07037768 0.85902623
v 0.58749968 0.06778115 0.85910349
v 0.58843032 0.06339800 0.85858405
v 0.58911045 0.05893355 0.85781138
v 0.58615159 0.05654354 0.85545280
v 0.58196108 0.05774281 0.85435816
v 0.57908660 0.06020057 0.85686327
v 0.57672622 0.06113658 0.86053811
v 0.57544685 0.05939509 0.86456294
v 0.57260381 0.05604074 0.86558305
v 0.56812957 0.05539971 0.86540844
v 0.56494735 0.05859576 0.86556531
v 0.56583648 0.06291392 0.86663226
v 0.56979069 0.06537732 0.86689770
v 0.57357978 0.06294781 0.86752307
v 0.57447104 0.05845541 0.86754715
v 0.57487894 0.05376076 0.86747597
l 1 2
l 2 3
l 3 4
l 4 5
l 5 6
l 6 7
l 7 8
l 8 9
l 9 10
l 10 11
l 11 12
l 12 13
l 13 14
l 14 15
l 15 16
l 16 17
l 17 18
l 18 19
l 19 20
l 20 21
l 21 22
l 22 23
l 23 24
l 24 25
l 25 26
l 26 27
l 27 28
l 28 29
