v 0.63090838 0.07316438 0.84966067
v 0.62908492 0.07494604 0.85355651
v 0.62687189 0.07600661 0.85728918
v 0.62455955 0.07989357 0.85696842
v 0.62693265 0.08326936 0.85487103
v 0.62668315 0.08707005 0.85731311
v 0.62252735 0.08601386 0.85862443
v 0.61904106 0.08454726 0.86110229
v 0.61457611 0.08520390 0.86123994
v 0.61350658 0.08097043 0.86029619
v 0.61776585 0.07972590 0.86091926
v 0.62098611 0.08255512 0.86218930
v 0.62269355 0.08680177 0.86210254
v 0.62388475 0.09064040 0.86416731
v 0.62195959 0.09108256 0.86824485
v 0.61917916 0.08756719 0.86855923
v 0.61730968 0.08381012 0.86639521
v 0.61558023 0.07943144 0.86548412
v 0.61165964 0.07709352 0.86485017
v 0.60832930 0.07440822 0.86618183
v 0.60475766 0.07177307 0.86757154
v 0.60302317 0.06779668 0.86584556
v 0.60314856 0.06363103 0.86420624
v 0.60265779 0.05934160 0.86545612
v 0.60096065 0.05699523 0.86888547
v 0.59729578 0.05654581 0.87152990
v 0.59305146 0.05795930 0.87166758
v 0.58940121 0.06039670 0.87003430
v 0.58616588 0.06301636 0.86803698
l 1 2
l 2 3
l 3 4
l 4 5
l 5 6
l 6 7
l 7 8
l 8 9
l 9 10
l 10 11
l 11 12
l 12 13
l 13 14
l 14 15
l 15 16
l 16 17
l 17 18
l 18 19
l 19 20
l 20 21
l 21 22
l 22 23
l 23 24
l 24 25
l 25 26
l 26 27
l 27 28
l 28 29
