v 0.59737298 0.09289536 0.84962598
v 0.59560611 0.08869459 0.85012020
v 0.59586429 0.08406247 0.85072990
v 0.59833991 0.08014459 0.85009572
v 0.59860111 0.07569416 0.84965739
v 0.59801056 0.07126373 0.84954526
v 0.59434482 0.06858911 0.85056279
v 0.59145709 0.06523281 0.85152488
v 0.58897695 0.06128397 0.85245365
v 0.58674665 0.06096731 0.85673867
v 0.58464131 0.06506120 0.85708562
v 0.58183700 0.06837721 0.85546112
v 0.57949471 0.07226634 0.85552335
v 0.57666821 0.07577033 0.85641334
v 0.57281255 0.07752468 0.85782885
v 0.57109766 0.08161047 0.85851471
v 0.57327708 0.08563021 0.85730233
v 0.57767910 0.08653456 0.85589634
v 0.58186807 0.08806524 0.85472492
v 0.58303627 0.09030380 0.85848134
v 0.58040925 0.09285867 0.86105161
v 0.57617927 0.09305479 0.86255625
v 0.57296311 0.08983960 0.86226485
v 0.57132335 0.08573784 0.86118879
v 0.56903786 0.08191244 0.86063629
v 0.56807846 0.07814400 0.86312398
v 0.56959060 0.07549611 0.86649088
v 0.57235501 0.07461666 0.86994358
v 0.57574133 0.07501788 0.87289426
l 1 2
l 2 3
l 3 4
l 4 5
l 5 6
l 6 7
l 7 8
l 8 9
l 9 10
l 10 11
l 11 12
l 12 13
l 13 14
l 14 15
l 15 16
l 16 17
l 17 18
l 18 19
l 19 20
l 20 21
l 21 22
l 22 23
l 23 24
l 24 25
l 25 26
l 26 27
l 27 28
l 28 29
