v 0.61428848 0.05117969 0.84372832
v 0.61002409 0.04985314 0.84391452
v 0.60711678 0.04627449 0.84443712
v 0.60657622 0.04178904 0.84456943
v 0.60436580 0.03784481 0.84511938
v 0.60022934 0.03939892 0.84627150
v 0.59593820 0.04068799 0.84768609
v 0.59208046 0.03878483 0.84894319
v 0.58792472 0.03764848 0.85029034
v 0.58438062 0.03597536 0.85265181
v 0.58323781 0.03322562 0.85642166
v 0.58538428 0.02942937 0.85768328
v 0.58561088 0.02828465 0.86203521
v 0.58606999 0.03229296 0.86396045
v 0.58640928 0.03623650 0.86179217
v 0.58629747 0.03915370 0.85831580
v 0.58954030 0.03854625 0.85524230
v 0.59210483 0.03485950 0.85472827
v 0.59284969 0.03093834 0.85696154
v 0.59022951 0.02723714 0.85734544
v 0.58797976 0.02327906 0.85772221
v 0.58379441 0.02183719 0.85863031
v 0.57987665 0.02301998 0.86050589
v 0.57898238 0.02685529 0.86278155
v 0.58022041 0.03124600 0.86304217
v 0.58204034 0.03543704 0.86318355
v 0.58286100 0.03992858 0.86342717
v 0.58166014 0.04451628 0.86411216
v 0.57928414 0.04839886 0.86579758
l 1 2
l 2 3
l 3 4
l 4 5
l 5 6
l 6 7
l 7 8
l 8 9
l 9 10
l 10 11
l 11 12
l 12 13
l 13 14
l 14 15
l 15 16
l 16 17
l 17 18
l 18 19
l 19 20
l 20 21
l 21 22
l 22 23
l 23 24
l 24 25
l 25 26
l 26 27
l 27 28
l 28 29
