v 0.64898985 0.08732453 0.87467379
v 0.64620436 0.09056473 0.87327516
v 0.64297497 0.09368508 0.87183426
v 0.63935954 0.09650606 0.87013817
v 0.63575570 0.09675696 0.86748997
v 0.63223395 0.09406460 0.86596510
v 0.63358272 0.09086553 0.86312625
v 0.63782207 0.09055483 0.86449928
v 0.64116946 0.09094025 0.86774066
v 0.64318679 0.08971277 0.87169759
v 0.64502105 0.08869133 0.87564095
v 0.64809841 0.09181192 0.87666522
v 0.64630394 0.09568578 0.87838602
v 0.64431384 0.09354364 0.88218644
v 0.64677807 0.08997309 0.88327962
v 0.65134143 0.09032633 0.88434466
v 0.65185685 0.09476813 0.88472583
v 0.64901181 0.09813176 0.88381258
v 0.64569362 0.10043758 0.88148416
v 0.64232396 0.10349524 0.88036299
v 0.63944227 0.10685177 0.88130955
v 0.63729052 0.11060284 0.88293378
v 0.63559528 0.11484001 0.88301915
v 0.63184152 0.11726392 0.88291962
v 0.62756567 0.11595952 0.88215776
v 0.62470133 0.11227846 0.88164099
v 0.62234046 0.10838343 0.88084909
v 0.61930692 0.10533989 0.87896478
v 0.61525171 0.10302260 0.87785013
l 1 2
l 2 3
l 3 4
l 4 5
l 5 6
l 6 7
l 7 8
l 8 9
l 9 10
l 10 11
l 11 12
l 12 13
l 13 14
l 14 15
l 15 16
l 16 17
l 17 18
l 18 19
l 19 20
l 20 21
l 21 22
l 22 23
l 23 24
l 24 25
l 25 26
l 26 27
l 27 28
l 28 29
