v 0.64178832 0.00285212 0.85746082
v 0.64071322 0.00682874 0.85536650
v 0.63844103 0.00990977 0.85276592
v 0.63446283 0.00875935 0.85103805
v 0.63174937 0.00565310 0.85290801
v 0.63078188 0.00128530 0.85471789
v 0.62670475 0.00123319 0.85246568
v 0.62614100 0.00585203 0.85188404
v 0.62396834 0.00924314 0.85419622
v 0.62042309 0.01142327 0.85635633
v 0.61826660 0.01350892 0.85983604
v 0.62252869 0.01357708 0.86180334
v 0.62334934 0.01076787 0.85832433
v 0.62034740 0.00740160 0.85823219
v 0.61789979 0.00399938 0.85595309
v 0.61635278 0.00092155 0.85307583
v 0.61224324 -0.00136248 0.85292005
v 0.61014429 -0.00120136 0.85701463
v 0.61049118 0.00368455 0.85822730
v 0.61158761 0.00833340 0.85838013
v 0.61019898 0.01152613 0.86133672
v 0.60688766 0.01037346 0.86410762
v 0.60459171 0.00662926 0.86540998
v 0.60264884 0.00239343 0.86537905
v 0.59914418 -0.00066447 0.86520876
v 0.59461379 -0.00044009 0.86470163
v 0.59214722 0.00318455 0.86352133
v 0.59329303 0.00740763 0.86255289
v 0.59611942 0.01092164 0.86238335
l 1 2
l 2 3
l 3 4
l 4 5
l 5 6
l 6 7
l 7 8
l 8 9
l 9 10
l 10 11
l 11 12
l 12 13
l 13 14
l 14 15
l 15 16
l 16 17
l 17 18
l 18 19
l 19 20
l 20 21
l 21 22
l 22 23
l 23 24
l 24 25
l 25 26
l 26 27
l 27 28
l 28 29
