v 0.63040481 0.08163100 0.85168208
v 0.62762801 0.07858874 0.84991280
v 0.62566188 0.07468677 0.84834771
v 0.62172250 0.07513841 0.85052346
v 0.61777355 0.07734926 0.85055351
v 0.61850488 0.08145804 0.84832463
v 0.62222503 0.08318968 0.85031439
v 0.62276475 0.08529073 0.85433358
v 0.62636899 0.08795282 0.85477946
v 0.62772177 0.09124236 0.85764374
v 0.62418734 0.09301667 0.85973221
v 0.62183184 0.09623885 0.86186089
v 0.61913553 0.10010189 0.86232992
v 0.61754985 0.10278577 0.86596574
v 0.61783923 0.10600088 0.86908456
v 0.62211009 0.10597207 0.87075910
v 0.62325264 0.10214198 0.86856225
v 0.62227702 0.09855921 0.86591428
v 0.62118715 0.09424053 0.86497308
v 0.62012893 0.09000977 0.86594759
v 0.61618261 0.08769221 0.86717504
v 0.61391758 0.08693211 0.87098620
v 0.61358920 0.08612298 0.87574595
v 0.61312894 0.08794336 0.87984133
v 0.61267913 0.09206020 0.88159885
v 0.61327220 0.09651179 0.88063935
v 0.61312489 0.10061590 0.87851400
v 0.61140127 0.10459465 0.87716303
v 0.60801549 0.10736027 0.87598788
l 1 2
l 2 3
l 3 4
l 4 5
l 5 6
l 6 7
l 7 8
l 8 9
l 9 10
l 10 11
l 11 12
l 12 13
l 13 14
l 14 15
l 15 16
l 16 17
l 17 18
l 18 19
l 19 20
l 20 21
l 21 22
l 22 23
l 23 24
l 24 25
l 25 26
l 26 27
l 27 28
l 28 29
