v 0.58845639 0.07408022 0.84983069
v 0.58437599 0.07539027 0.85115298
v 0.58138817 0.07908777 0.85210106
v 0.57848396 0.08259312 0.85301679
v 0.57659882 0.08666366 0.85359524
v 0.57650468 0.09116103 0.85362097
v 0.57962248 0.09445631 0.85297645
v 0.58300179 0.09139541 0.85304253
v 0.57936797 0.08976790 0.85548405
v 0.57493958 0.08851802 0.85658294
v 0.57055608 0.08791425 0.85556593
v 0.56606763 0.08755575 0.85704350
v 0.56218055 0.08952725 0.85829938
v 0.56033754 0.09365735 0.85885372
v 0.56198639 0.09782713 0.85826311
v 0.56628760 0.09930763 0.85709660
v 0.56954089 0.09606175 0.85768608
v 0.56854632 0.09205701 0.85950686
v 0.56605262 0.08873082 0.86121864
v 0.56209147 0.08689745 0.86259655
v 0.55775544 0.08843884 0.86153530
v 0.55441785 0.09135777 0.86089505
v 0.55427130 0.09593543 0.86135472
v 0.55797734 0.09817061 0.86292422
v 0.56182995 0.09615456 0.86407610
v 0.56236798 0.09196896 0.86556172
v 0.55971506 0.08849143 0.86677281
v 0.55643706 0.08545672 0.86668368
v 0.55313097 0.08263415 0.86556958
l 1 2
l 2 3
l 3 4
l 4 5
l 5 6
l 6 7
l 7 8
l 8 9
l 9 10
l 10 11
l 11 12
l 12 13
l 13 14
l 14 15
l 15 16
l 16 17
l 17 18
l 18 19
l 19 20
l 20 21
l 21 22
l 22 23
l 23 24
l 24 25
l 25 26
l 26 27
l 27 28
l 28 29
