v 0.64085461 0.08457523 0.85942711
v 0.63875877 0.08850282 0.85999817
v 0.63607640 0.09232877 0.86015613
v 0.63222932 0.09447519 0.86090290
v 0.63149420 0.09650712 0.86541564
v 0.63463191 0.09913089 0.86784218
v 0.63761431 0.09993354 0.87127154
v 0.64095285 0.09919949 0.87434964
v 0.64437629 0.09667202 0.87605685
v 0.64475088 0.09205480 0.87563326
v 0.64119215 0.09076394 0.87314586
v 0.63818762 0.09281080 0.87043049
v 0.63483296 0.09577187 0.86968620
v 0.63198991 0.09929746 0.86952721
v 0.62867197 0.10214943 0.87041810
v 0.62789205 0.10662816 0.87096297
v 0.62895231 0.10870556 0.87496302
v 0.63292789 0.10951306 0.87686890
v 0.63698236 0.10792717 0.87865544
v 0.64010154 0.10471499 0.87792180
v 0.63950680 0.10147353 0.87480637
v 0.63575934 0.10233182 0.87248175
v 0.63258302 0.10395776 0.87552773
v 0.62878700 0.10439963 0.87817341
v 0.62457053 0.10594807 0.87804146
v 0.62051020 0.10742621 0.87680891
v 0.61593841 0.10860674 0.87620530
v 0.61161290 0.10871145 0.87737553
v 0.60750773 0.10808778 0.87941240
l 1 2
l 2 3
l 3 4
l 4 5
l 5 6
l 6 7
l 7 8
l 8 9
l 9 10
l 10 11
l 11 12
l 12 13
l 13 14
l 14 15
l 15 16
l 16 17
l 17 18
l 18 19
l 19 20
l 20 21
l 21 22
l 22 23
l 23 24
l 24 25
l 25 26
l 26 27
l 27 28
l 28 29
