v 0.62684284 0.08995661 0.85323744
v 0.62733908 0.09378286 0.85573917
v 0.62734063 0.09766902 0.85799450
v 0.62343734 0.09986685 0.85877557
v 0.61884954 0.10033073 0.85848745
v 0.61522358 0.10314390 0.85845376
v 0.61244574 0.10529533 0.86145518
v 0.61154091 0.10821942 0.86470601
v 0.61348469 0.11124371 0.86757138
v 0.61744906 0.11174186 0.86959822
v 0.61937657 0.10787968 0.86787862
v 0.61702522 0.10558776 0.86483296
v 0.61505788 0.10296550 0.86174242
v 0.61557702 0.09861820 0.85994461
v 0.61753273 0.09591372 0.86296056
v 0.61890403 0.09571225 0.86729350
v 0.61841577 0.09953631 0.86998049
v 0.61902286 0.10395608 0.87137083
v 0.62121031 0.10560137 0.87495940
v 0.62277002 0.10280339 0.87826258
v 0.62318515 0.09833892 0.87791930
v 0.62033466 0.09537186 0.87601479
v 0.61557713 0.09552135 0.87607355
v 0.61221345 0.09879691 0.87658909
v 0.60989748 0.10266532 0.87618785
v 0.60686330 0.10579100 0.87438831
v 0.60337748 0.10670168 0.87144710
v 0.59945623 0.10624526 0.86923455
v 0.59527238 0.10602116 0.86767882
l 1 2
l 2 3
l 3 4
l 4 5
l 5 6
l 6 7
l 7 8
l 8 9
l 9 10
l 10 11
l 11 12
l 12 13
l 13 14
l 14 15
l 15 16
l 16 17
l 17 18
l 18 19
l 19 20
l 20 21
l 21 22
l 22 23
l 23 24
l 24 25
l 25 26
l 26 27
l 27 28
l 28 29
