v 0.65532049 0.03074475 0.86057575
v 0.65159785 0.03096852 0.85784943
v 0.64785372 0.03126870 0.85513017
v 0.64405777 0.03170308 0.85278537
v 0.63933802 0.03218371 0.85183864
v 0.63507996 0.03066908 0.85098692
v 0.63130699 0.02804183 0.85090115
v 0.62859083 0.02443523 0.85146540
v 0.62894836 0.01985904 0.85088509
v 0.62660774 0.01600874 0.85139029
v 0.62505248 0.01277015 0.85408118
v 0.62456203 0.01348002 0.85853976
v 0.62291236 0.01761378 0.85914322
v 0.62153657 0.01634335 0.85498434
v 0.61844372 0.01311090 0.85490423
v 0.61606459 0.01180629 0.85854628
v 0.61675023 0.01226142 0.86293751
v 0.62122884 0.01290504 0.86422758
v 0.62488868 0.01563473 0.86443714
v 0.62529329 0.02009119 0.86405269
v 0.62283679 0.02335394 0.86214520
v 0.61921385 0.02218393 0.85969484
v 0.61587862 0.01915819 0.86044986
v 0.61400348 0.01566885 0.86265376
v 0.61197616 0.01392527 0.86650003
v 0.60808887 0.01311951 0.86887195
v 0.60380098 0.01449816 0.86870549
v 0.60031031 0.01742392 0.86769536
v 0.59750213 0.02105436 0.86705089
l 1 2
l 2 3
l 3 4
l 4 5
l 5 6
l 6 7
l 7 8
l 8 9
l 9 10
l 10 11
l 11 12
l 12 13
l 13 14
l 14 15
l 15 16
l 16 17
l 17 18
l 18 19
l 19 20
l 20 21
l 21 22
l 22 23
l 23 24
l 24 25
l 25 26
l 26 27
l 27 28
l 28 29
