v 0.63647137 0.01895027 0.84956047
v 0.63381332 0.01537725 0.84916046
v 0.63356307 0.01082715 0.84995930
v 0.63183963 0.01207047 0.85408460
v 0.63138693 0.01634698 0.85259576
v 0.62909825 0.01729415 0.84870986
v 0.62877277 0.01280601 0.84789452
v 0.62864768 0.00974750 0.85123982
v 0.62733295 0.00693596 0.85478558
v 0.62446318 0.00322165 0.85422412
v 0.62345839 0.00107102 0.85040608
v 0.61937324 -0.00059073 0.85197752
v 0.61968865 0.00208869 0.85578545
v 0.62237318 0.00530614 0.85741310
v 0.62403045 0.00850451 0.86014444
v 0.62011125 0.01069231 0.86203548
v 0.61588284 0.00933861 0.86288077
v 0.61517459 0.00999243 0.86724684
v 0.61887615 0.01090388 0.86983315
v 0.62288203 0.01271343 0.87064461
v 0.62374292 0.01707634 0.87015150
v 0.61989287 0.01902391 0.86825047
v 0.61633648 0.01663362 0.86640031
v 0.61470118 0.01271049 0.86493867
v 0.61060067 0.01072691 0.86534220
v 0.60649220 0.01001490 0.86698698
v 0.60203578 0.00945513 0.86640724
v 0.59758239 0.00893461 0.86539031
v 0.59268123 0.00828784 0.86489414
l 1 2
l 2 3
l 3 4
l 4 5
l 5 6
l 6 7
l 7 8
l 8 9
l 9 10
l 10 11
l 11 12
l 12 13
l 13 14
l 14 15
l 15 16
l 16 17
l 17 18
l 18 19
l 19 20
l 20 21
l 21 22
l 22 23
l 23 24
l 24 25
l 25 26
l 26 27
l 27 28
l 28 29
