v 0.61812407 0.05436879 0.85442391
v 0.61713836 0.05045470 0.85238872
v 0.61542915 0.04721009 0.84928402
v 0.61182514 0.05005052 0.84826499
v 0.61259344 0.05325057 0.85156991
v 0.61547635 0.05515553 0.85459851
v 0.61842118 0.05722281 0.85767358
v 0.61849009 0.05715952 0.86256975
v 0.61546026 0.05700365 0.86584608
v 0.61088137 0.05832860 0.86514010
v 0.60770504 0.06052889 0.86266883
v 0.60774059 0.06205958 0.85835524
v 0.60674674 0.06383322 0.85408013
v 0.60374186 0.06720143 0.85518648
v 0.60225867 0.07030428 0.85230458
v 0.60404734 0.07446449 0.85394661
v 0.60689791 0.07221697 0.85718822
v 0.60468321 0.06859901 0.85968927
v 0.60454764 0.06484318 0.85699798
v 0.60219589 0.06126033 0.85468961
v 0.59829693 0.05876160 0.85515862
v 0.59476731 0.06024017 0.85768271
v 0.59544246 0.06040240 0.86211686
v 0.59772110 0.05708262 0.86459178
v 0.59711794 0.05326671 0.86694495
v 0.59310042 0.05252168 0.86897904
v 0.59018905 0.05602604 0.86864521
v 0.58985543 0.05992910 0.86637661
v 0.58991863 0.06320930 0.86329321
l 1 2
l 2 3
l 3 4
l 4 5
l 5 6
l 6 7
l 7 8
l 8 9
l 9 10
l 10 11
l 11 12
l 12 13
l 13 14
l 14 15
l 15 16
l 16 17
l 17 18
l 18 19
l 19 20
l 20 21
l 21 22
l 22 23
l 23 24
l 24 25
l 25 26
l 26 27
l 27 28
l 28 29
