v 0.64791749 0.07008509 0.85912284
v 0.64405292 0.07049070 0.85657324
v 0.64012662 0.07146392 0.85414104
v 0.63607493 0.07001853 0.85256940
v 0.63486325 0.06757140 0.85623133
v 0.63300762 0.06627841 0.86009964
v 0.63056980 0.06710747 0.86399402
v 0.62751778 0.07050800 0.86552195
v 0.62704248 0.07452387 0.86842701
v 0.62847046 0.07891894 0.86940912
v 0.63046871 0.08286600 0.86874238
v 0.63300215 0.08581922 0.87097637
v 0.63494738 0.08536445 0.87538486
v 0.63259528 0.08170330 0.87670638
v 0.62912488 0.08157408 0.87389162
v 0.62665712 0.08471818 0.87129435
v 0.62560601 0.08607403 0.86714674
v 0.62346362 0.08378978 0.86390930
v 0.62122058 0.08052464 0.86619437
v 0.62184271 0.07979515 0.87078243
v 0.62453678 0.08059086 0.87452212
v 0.62752711 0.08409334 0.87508317
v 0.62839183 0.08764592 0.87202806
v 0.62424569 0.08779413 0.87021761
v 0.62150996 0.08483057 0.87230206
v 0.61818658 0.08212796 0.87421824
v 0.61469577 0.07899283 0.87372529
v 0.61182570 0.07531355 0.87383071
v 0.61022930 0.07107234 0.87388492
l 1 2
l 2 3
l 3 4
l 4 5
l 5 6
l 6 7
l 7 8
l 8 9
l 9 10
l 10 11
l 11 12
l 12 13
l 13 14
l 14 15
l 15 16
l 16 17
l 17 18
l 18 19
l 19 20
l 20 21
l 21 22
l 22 23
l 23 24
l 24 25
l 25 26
l 26 27
l 27 28
l 28 29
