v 0.62902472 0.07298290 0.86206766
v 0.62635180 0.07474101 0.86530478
v 0.62308989 0.07267716 0.86763780
v 0.61982152 0.06930911 0.86836528
v 0.61925937 0.06477339 0.86861583
v 0.62071989 0.06057810 0.86792785
v 0.62141751 0.05670270 0.86555136
v 0.61875637 0.05444659 0.86274376
v 0.61420261 0.05430805 0.86275488
v 0.61064477 0.05701458 0.86248733
v 0.60912271 0.05957371 0.85916028
v 0.60953253 0.06077471 0.85484917
v 0.60882739 0.05750959 0.85164411
v 0.60647749 0.05374231 0.85283576
v 0.60733541 0.05093258 0.85624907
v 0.61052459 0.05046387 0.85959610
v 0.61411941 0.05318037 0.86050948
v 0.61251170 0.05723883 0.85909260
v 0.60800752 0.05738626 0.85736117
v 0.60532940 0.06118863 0.85785158
v 0.60175513 0.06379274 0.85901288
v 0.59824399 0.06140942 0.86068949
v 0.59843703 0.05710338 0.86196469
v 0.59882904 0.05302743 0.86377449
v 0.59602777 0.05028643 0.86630779
v 0.59180508 0.05051524 0.86791434
v 0.58779207 0.05239748 0.86701144
v 0.58505291 0.05586474 0.86547851
v 0.58281232 0.05968356 0.86484803
l 1 2
l 2 3
l 3 4
l 4 5
l 5 6
l 6 7
l 7 8
l 8 9
l 9 10
l 10 11
l 11 12
l 12 13
l 13 14
l 14 15
l 15 16
l 16 17
l 17 18
l 18 19
l 19 20
l 20 21
l 21 22
l 22 23
l 23 24
l 24 25
l 25 26
l 26 27
l 27 28
l 28 29
