v 0.58834732 -0.03156410 0.85706114
v 0.58865221 -0.03553615 0.85930859
v 0.58633903 -0.03903522 0.86133528
v 0.58328719 -0.04194590 0.86309796
v 0.57925516 -0.04411072 0.86467630
v 0.57540243 -0.04620783 0.86628655
v 0.57376293 -0.04947540 0.86893341
v 0.57457280 -0.05293903 0.87186330
v 0.57803938 -0.05490888 0.87415318
v 0.58243463 -0.05405429 0.87339193
v 0.58350316 -0.05108982 0.87018579
v 0.58122556 -0.04775383 0.86824487
v 0.57717930 -0.04563805 0.86883868
v 0.57263056 -0.04558829 0.86922132
v 0.56826327 -0.04400680 0.86874170
v 0.56607419 -0.04011887 0.86817901
v 0.56640209 -0.03582472 0.86941288
v 0.56840170 -0.03176365 0.86904137
v 0.57209688 -0.02976129 0.86747484
v 0.57599317 -0.03166525 0.86616685
v 0.57781102 -0.03581096 0.86571771
v 0.57823098 -0.04009343 0.86698771
v 0.57559110 -0.04311077 0.86897986
v 0.57136369 -0.04304942 0.87058388
v 0.56733609 -0.04079760 0.87123669
v 0.56448978 -0.03726106 0.87106262
v 0.56261068 -0.03327742 0.86999099
v 0.56051623 -0.02958619 0.86849470
v 0.55826728 -0.02568083 0.86794580
l 1 2
l 2 3
l 3 4
l 4 5
l 5 6
l 6 7
l 7 8
l 8 9
l 9 10
l 10 11
l 11 12
l 12 13
l 13 14
l 14 15
l 15 16
l 16 17
l 17 18
l 18 19
l 19 20
l 20 21
l 21 22
l 22 23
l 23 24
l 24 25
l 25 26
l 26 27
l 27 28
l 28 29
