v 0.58197799 0.05074239 0.85218752
v 0.57903207 0.04753536 0.85319244
v 0.57667252 0.04355850 0.85400913
v 0.57305820 0.04120838 0.85522073
v 0.56899927 0.03985632 0.85657717
v 0.56470324 0.04042837 0.85798545
v 0.56176660 0.04375680 0.85892719
v 0.55942062 0.04752874 0.85966458
v 0.55868639 0.05202078 0.85985918
v 0.56155847 0.05552756 0.86034791
v 0.56526489 0.05299694 0.86077815
v 0.56431451 0.04862174 0.86107373
v 0.56294585 0.04436634 0.86118243
v 0.56126964 0.04021600 0.86174162
v 0.55739511 0.03965655 0.86394537
v 0.55508400 0.04365576 0.86320064
v 0.55229364 0.04722795 0.86248284
v 0.54809495 0.04878595 0.86337532
v 0.54385357 0.04903636 0.86476481
v 0.54012300 0.04685284 0.86600345
v 0.53920565 0.04249066 0.86634735
v 0.54214629 0.03892881 0.86627615
v 0.54671635 0.03941033 0.86646361
v 0.54937254 0.04299881 0.86625825
v 0.54944638 0.04747786 0.86617889
v 0.54699985 0.05117883 0.86567099
v 0.54326377 0.05396515 0.86541263
v 0.53950067 0.05629550 0.86609910
v 0.53583027 0.05877145 0.86726749
l 1 2
l 2 3
l 3 4
l 4 5
l 5 6
l 6 7
l 7 8
l 8 9
l 9 10
l 10 11
l 11 12
l 12 13
l 13 14
l 14 15
l 15 16
l 16 17
l 17 18
l 18 19
l 19 20
l 20 21
l 21 22
l 22 23
l 23 24
l 24 25
l 25 26
l 26 27
l 27 28
l 28 29
