v 0.61203480 0.10693500 0.85671780
v 0.61644028 0.10556665 0.85791831
v 0.61499909 0.10621639 0.86209690
v 0.61301665 0.11013519 0.86311749
v 0.60993724 0.11335478 0.86429144
v 0.60935605 0.11512433 0.86841807
v 0.61302865 0.11586846 0.87122925
v 0.61696065 0.11656929 0.87341601
v 0.61831797 0.11885810 0.87711850
v 0.61840293 0.12279597 0.87922525
v 0.61632742 0.12625906 0.88116073
v 0.61277450 0.12895972 0.88232632
v 0.60861007 0.13060007 0.88169141
v 0.60539891 0.13044820 0.87821228
v 0.60597277 0.12739057 0.87472575
v 0.60964648 0.12481539 0.87468185
v 0.61202964 0.12169741 0.87697045
v 0.61214444 0.11735308 0.87887772
v 0.60945150 0.11363612 0.87903779
v 0.60541224 0.11312804 0.87700337
v 0.60246495 0.11487259 0.87407109
v 0.59907398 0.11665788 0.87168637
v 0.59515158 0.11677073 0.86950806
v 0.59198067 0.11579235 0.86639514
v 0.58881367 0.11444278 0.86322201
v 0.58572982 0.11153018 0.86171808
v 0.58252062 0.10838000 0.86199131
v 0.57942486 0.10508847 0.86303807
v 0.57629667 0.10160986 0.86348297
l 1 2
l 2 3
l 3 4
l 4 5
l 5 6
l 6 7
l 7 8
l 8 9
l 9 10
l 10 11
l 11 12
l 12 13
l 13 14
l 14 15
l 15 16
l 16 17
l 17 18
l 18 19
l 19 20
l 20 21
l 21 22
l 22 23
l 23 24
l 24 25
l 25 26
l 26 27
l 27 28
l 28 29
