v 0.64901738 0.06028735 0.85757204
v 0.64695912 0.05686127 0.85552325
v 0.64460120 0.05370480 0.85331165
v 0.64110059 0.05165677 0.85126959
v 0.63662238 0.05195801 0.85087004
v 0.63533293 0.05647884 0.85208248
v 0.63283808 0.05636312 0.85595951
v 0.63010523 0.05280040 0.85629218
v 0.62960314 0.05097293 0.86039279
v 0.63276968 0.05390411 0.86167982
v 0.63207691 0.05810113 0.85947513
v 0.62922272 0.05577403 0.85642236
v 0.62737138 0.05261085 0.85906251
v 0.62428997 0.05343477 0.86221693
v 0.62260093 0.05340481 0.86656776
v 0.62247571 0.05221987 0.87118666
v 0.62562967 0.05041219 0.87435983
v 0.62912474 0.04766464 0.87560289
v 0.62976731 0.04342879 0.87685833
v 0.62620662 0.04049560 0.87684600
v 0.62189971 0.04214250 0.87638273
v 0.62031486 0.04661874 0.87613998
v 0.62020696 0.05105781 0.87504735
v 0.61789070 0.05433461 0.87246015
v 0.61416731 0.05553717 0.86997946
v 0.61005099 0.05423944 0.86844034
v 0.60598646 0.05242249 0.86678075
v 0.60264464 0.04935365 0.86592088
v 0.60034634 0.04567445 0.86477671
l 1 2
l 2 3
l 3 4
l 4 5
l 5 6
l 6 7
l 7 8
l 8 9
l 9 10
l 10 11
l 11 12
l 12 13
l 13 14
l 14 15
l 15 16
l 16 17
l 17 18
l 18 19
l 19 20
l 20 21
l 21 22
l 22 23
l 23 24
l 24 25
l 25 26
l 26 27
l 27 28
l 28 29
