v 0.61957088 0.03569351 0.84371918
v 0.62057155 0.03129365 0.84401810
v 0.62354676 0.02773913 0.84458847
v 0.62409207 0.02320396 0.84499355
v 0.62210492 0.02052092 0.84808854
v 0.61751502 0.01997899 0.84711978
v 0.61455216 0.02325961 0.84647677
v 0.61037480 0.02189707 0.84451491
v 0.60798339 0.01811780 0.84494444
v 0.60361031 0.01774786 0.84578976
v 0.60362927 0.02168196 0.84798867
v 0.60527437 0.02543297 0.84983133
v 0.60853997 0.02597340 0.85299933
v 0.61095905 0.02257287 0.85497775
v 0.61172359 0.01812354 0.85691416
v 0.61046586 0.01421694 0.85494929
v 0.60655421 0.01490217 0.85248998
v 0.60411267 0.01885419 0.85300781
v 0.60124297 0.02145739 0.85561658
v 0.59835046 0.02358382 0.85828037
v 0.59738374 0.02789831 0.85915968
v 0.60129685 0.02989104 0.85777316
v 0.60310340 0.02592785 0.85677093
v 0.60202107 0.02156420 0.85838143
v 0.59882933 0.01839869 0.85840049
v 0.59441674 0.01871804 0.85904400
v 0.58998421 0.01949609 0.86037993
v 0.58650144 0.02105726 0.86302307
v 0.58307071 0.02332676 0.86511254
l 1 2
l 2 3
l 3 4
l 4 5
l 5 6
l 6 7
l 7 8
l 8 9
l 9 10
l 10 11
l 11 12
l 12 13
l 13 14
l 14 15
l 15 16
l 16 17
l 17 18
l 18 19
l 19 20
l 20 21
l 21 22
l 22 23
l 23 24
l 24 25
l 25 26
l 26 27
l 27 28
l 28 29
