v 0.62414083 0.03795317 0.84423260
v 0.62658185 0.03423983 0.84480425
v 0.62904984 0.03039112 0.84576401
v 0.62524022 0.02907307 0.84822326
v 0.62204111 0.03230633 0.84669608
v 0.62235060 0.03695406 0.84644865
v 0.61997515 0.04004339 0.84874043
v 0.61633926 0.04033896 0.85147907
v 0.61619678 0.03894058 0.85582983
v 0.61691149 0.03447576 0.85582209
v 0.62010672 0.03192660 0.85313369
v 0.62260210 0.02780557 0.85379938
v 0.62124987 0.02382726 0.85534307
v 0.61997531 0.01965287 0.85421991
v 0.61916156 0.01610483 0.85718923
v 0.62090363 0.01866451 0.86042954
v 0.62207100 0.02226438 0.85792382
v 0.61857710 0.02526906 0.85754701
v 0.61867387 0.02814208 0.86124391
v 0.62123389 0.02553606 0.86388297
v 0.62321288 0.02140975 0.86556239
v 0.62038990 0.01746768 0.86458035
v 0.61568387 0.01787914 0.86411485
v 0.61090267 0.01723341 0.86491604
v 0.60682729 0.01526743 0.86457218
v 0.60247302 0.01450584 0.86376577
v 0.59817713 0.01574909 0.86325125
v 0.59464477 0.01846934 0.86390485
v 0.59180047 0.02184257 0.86473334
l 1 2
l 2 3
l 3 4
l 4 5
l 5 6
l 6 7
l 7 8
l 8 9
l 9 10
l 10 11
l 11 12
l 12 13
l 13 14
l 14 15
l 15 16
l 16 17
l 17 18
l 18 19
l 19 20
l 20 21
l 21 22
l 22 23
l 23 24
l 24 25
l 25 26
l 26 27
l 27 28
l 28 29
