v 0.62110956 0.07406538 0.84825750
v 0.61701811 0.07581285 0.84873384
v 0.61258207 0.07688664 0.84908591
v 0.60991717 0.07973882 0.85139817
v 0.61229014 0.08207197 0.85442292
v 0.61646904 0.08326211 0.85565884
v 0.61764500 0.08348034 0.85126569
v 0.61441042 0.08039098 0.85051085
v 0.61173090 0.07809775 0.85325861
v 0.60721850 0.07719237 0.85260085
v 0.60503395 0.08100797 0.85161844
v 0.60410188 0.08271867 0.85569197
v 0.60278294 0.07954807 0.85855923
v 0.60338597 0.07535750 0.86003301
v 0.60054170 0.07177246 0.85963218
v 0.59729170 0.06862818 0.86017727
v 0.59604592 0.06468720 0.86216555
v 0.59681737 0.06220699 0.86581845
v 0.60029830 0.06294599 0.86871088
v 0.60289887 0.06668454 0.86940280
v 0.60105541 0.07075440 0.86960320
v 0.59669870 0.07102697 0.86860217
v 0.59297196 0.07194094 0.86599254
v 0.59137666 0.07601524 0.86485037
v 0.58841428 0.07956568 0.86505232
v 0.58495650 0.08228742 0.86599734
v 0.58111505 0.08459003 0.86629357
v 0.57684611 0.08561383 0.86768191
v 0.57254905 0.08604443 0.86928117
l 1 2
l 2 3
l 3 4
l 4 5
l 5 6
l 6 7
l 7 8
l 8 9
l 9 10
l 10 11
l 11 12
l 12 13
l 13 14
l 14 15
l 15 16
l 16 17
l 17 18
l 18 19
l 19 20
l 20 21
l 21 22
l 22 23
l 23 24
l 24 25
l 25 26
l 26 27
l 27 28
l 28 29
