v 0.57827806 -0.01933561 0.85460811
v 0.57736386 -0.02368788 0.85579215
v 0.57624195 -0.02783210 0.85702915
v 0.57387864 -0.03135601 0.85852195
v 0.57075905 -0.03435710 0.86026557
v 0.56793664 -0.03390449 0.86407776
v 0.56496877 -0.03088150 0.86553320
v 0.56211654 -0.02746865 0.86444016
v 0.56186263 -0.02360430 0.86205023
v 0.56638740 -0.02402851 0.86111770
v 0.56852077 -0.02803030 0.86135945
v 0.57123679 -0.03160012 0.86191026
v 0.57105669 -0.03456922 0.86525028
v 0.56676461 -0.03571096 0.86681017
v 0.56267168 -0.03402533 0.86760508
v 0.55862790 -0.03193192 0.86643844
v 0.55858582 -0.02750946 0.86515702
v 0.56222537 -0.02559720 0.86692069
v 0.56671586 -0.02656199 0.86762011
v 0.57088660 -0.02710661 0.86566737
v 0.57156603 -0.02790067 0.86113285
v 0.57022976 -0.02465050 0.85820043
v 0.56662202 -0.02193044 0.85817494
v 0.56335170 -0.01929130 0.86008649
v 0.56333707 -0.01591718 0.86302793
v 0.56441463 -0.01145616 0.86426095
v 0.56576797 -0.00676391 0.86467853
v 0.56535105 -0.00210555 0.86557594
v 0.56386624 0.00216386 0.86670342
l 1 2
l 2 3
l 3 4
l 4 5
l 5 6
l 6 7
l 7 8
l 8 9
l 9 10
l 10 11
l 11 12
l 12 13
l 13 14
l 14 15
l 15 16
l 16 17
l 17 18
l 18 19
l 19 20
l 20 21
l 21 22
l 22 23
l 23 24
l 24 25
l 25 26
l 26 27
l 27 28
l 28 29
