v 0.58951917 -0.01547800 0.85188781
v 0.58672955 -0.01884519 0.85300862
v 0.58732262 -0.02264462 0.85581298
v 0.59053523 -0.02561413 0.85748982
v 0.59334105 -0.02894502 0.85878753
v 0.59245201 -0.03288238 0.86070713
v 0.58797633 -0.03316499 0.86115354
v 0.58516684 -0.03171695 0.85777128
v 0.58063894 -0.03111768 0.85760334
v 0.57646532 -0.03252239 0.85866300
v 0.57337387 -0.03456511 0.86125388
v 0.57065072 -0.03688045 0.86413803
v 0.57092646 -0.04068223 0.86649654
v 0.57551619 -0.04138754 0.86590852
v 0.57631217 -0.03694363 0.86400487
v 0.57414512 -0.03282464 0.86471475
v 0.57065068 -0.03002435 0.86524771
v 0.56702599 -0.02754143 0.86427628
v 0.56410640 -0.02412468 0.86411307
v 0.56119999 -0.02069720 0.86508493
v 0.55979375 -0.01646426 0.86469340
v 0.56182890 -0.01309404 0.86203055
v 0.56413933 -0.01593100 0.85942378
v 0.56700278 -0.01939797 0.86010590
v 0.56853585 -0.02311190 0.86206936
v 0.56743282 -0.02422967 0.86626648
v 0.56331170 -0.02323567 0.86770064
v 0.55921589 -0.02255923 0.86604493
v 0.55527949 -0.02133334 0.86394081
l 1 2
l 2 3
l 3 4
l 4 5
l 5 6
l 6 7
l 7 8
l 8 9
l 9 10
l 10 11
l 11 12
l 12 13
l 13 14
l 14 15
l 15 16
l 16 17
l 17 18
l 18 19
l 19 20
l 20 21
l 21 22
l 22 23
l 23 24
l 24 25
l 25 26
l 26 27
l 27 28
l 28 29
