# https://github.com/mikedh/trimesh
v 0.04571702 -0.01174339 0.46488357
v 0.04551401 -0.02179676 0.46453786
v 0.04399724 -0.03909316 0.46126932
v 0.04396823 -0.03894403 0.46118808
v 0.04394473 -0.03878627 0.46112135
v 0.04391026 -0.03846017 0.46102148
v 0.04430527 -0.03954898 0.46207419
v 0.04427329 -0.03955510 0.46199533
v 0.04424104 -0.03955150 0.46191481
v 0.04420862 -0.03953774 0.46183276
v 0.04417697 -0.03951423 0.46175161
v 0.04414827 -0.03948336 0.46167722
v 0.04412210 -0.03944550 0.46160859
v 0.04409790 -0.03940090 0.46154433
v 0.04407514 -0.03934978 0.46148312
v 0.04405325 -0.03929238 0.46142361
v 0.04403275 -0.03922988 0.46136743
v 0.04401412 -0.03916331 0.46131611
v 0.04388588 -0.03814536 0.46095017
v 0.04376468 -0.03597657 0.46058068
v 0.04365080 -0.03292558 0.46021059
v 0.04351825 -0.02734378 0.45974293
v 0.04339185 -0.01762801 0.45925441
v 0.04333319 -0.00790540 0.45901093
v 0.04332111 0.00182013 0.45895773
v 0.04432080 0.03959362 0.46211210
v 0.04359572 0.03097219 0.46002084
v 0.04406315 0.03937003 0.46145055
v 0.04404179 0.03930918 0.46139213
v 0.04402225 0.03924389 0.46133840
v 0.04408547 0.03942497 0.46151099
v 0.04410896 0.03947342 0.46157381
v 0.04413416 0.03951515 0.46164033
v 0.04416165 0.03954994 0.46171200
v 0.04419196 0.03957756 0.46179014
v 0.04422442 0.03959673 0.46187288
v 0.04425680 0.03960552 0.46195430
v 0.04428896 0.03960433 0.46203408
v 0.04394894 0.03886864 0.46113339
v 0.04397385 0.03902664 0.46120381
v 0.04400449 0.03917473 0.46128929
v 0.04375497 0.03580752 0.46055016
v 0.04388745 0.03821190 0.46095413
v 0.04391246 0.03853777 0.46102804
v 0.04334857 0.01154448 0.45907632
v 0.04342834 0.02126503 0.45940030
v 0.04505621 0.03349613 0.46370056
v 0.04529332 0.02847720 0.46414560
v 0.04485295 0.03661000 0.46329632
v 0.04473011 0.03806774 0.46304050
v 0.04435223 0.03957384 0.46218824
v 0.04438319 0.03954543 0.46226233
v 0.04441357 0.03950885 0.46233422
v 0.04444325 0.03946460 0.46240371
v 0.04447103 0.03941495 0.46246812
v 0.04449660 0.03936064 0.46252683
v 0.04452027 0.03930136 0.46258068
v 0.04454239 0.03923677 0.46263051
v 0.04458155 0.03910067 0.46271801
v 0.04461400 0.03896153 0.46278992
v 0.04466326 0.03867460 0.46289754
v 0.04559847 0.01843119 0.46468332
v 0.04575618 0.00837502 0.46494851
v 0.04579287 -0.00168494 0.46500823
v 0.04463441 -0.03880534 0.46283475
v 0.04460624 -0.03894658 0.46277276
v 0.04457221 -0.03908491 0.46269718
v 0.04453132 -0.03921943 0.46260566
v 0.04450852 -0.03928101 0.46255404
v 0.04448400 -0.03933756 0.46249798
v 0.04445741 -0.03938938 0.46243662
v 0.04442856 -0.03943658 0.46236941
v 0.04439862 -0.03947695 0.46229896
v 0.04436803 -0.03950944 0.46222615
v 0.04514015 -0.03183156 0.46386072
v 0.04433688 -0.03953361 0.46215117
v 0.04483194 -0.03682194 0.46325311
v 0.04472646 -0.03806062 0.46303266
v 0.04465785 -0.03866133 0.46288583
v 0.04530481 -0.03814550 0.46046841
v 0.04532703 -0.03846058 0.46053430
v 0.04535917 -0.03878560 0.46062776
v 0.04538106 -0.03894302 0.46068987
v 0.04540795 -0.03909234 0.46076500
v 0.04542354 -0.03916287 0.46080804
v 0.04544068 -0.03923004 0.46085510
v 0.04545950 -0.03929344 0.46090642
v 0.04547960 -0.03935161 0.46096089
v 0.04550062 -0.03940293 0.46101731
v 0.04552304 -0.03944735 0.46107680
v 0.04554731 -0.03948484 0.46114045
v 0.04557393 -0.03951534 0.46120939
v 0.04560324 -0.03953869 0.46128440
v 0.04563324 -0.03955239 0.46136019
v 0.04566307 -0.03955594 0.46143457
v 0.04569265 -0.03954978 0.46150738
v 0.04572188 -0.03953438 0.46157852
v 0.04575068 -0.03951018 0.46164775
v 0.04577896 -0.03947762 0.46171498
v 0.04580664 -0.03943716 0.46178007
v 0.04583330 -0.03938981 0.46184209
v 0.04585785 -0.03933776 0.46189865
v 0.04588050 -0.03928103 0.46195036
v 0.04590157 -0.03921944 0.46199808
v 0.04593946 -0.03908547 0.46208304
v 0.04597108 -0.03894754 0.46215335
v 0.04599733 -0.03880653 0.46221107
v 0.04601920 -0.03866260 0.46225864
v 0.04608288 -0.03806135 0.46239424
v 0.04618055 -0.03682248 0.46259788
v 0.04646671 -0.03183194 0.46316111
v 0.04681415 -0.02179684 0.46378943
v 0.04700337 -0.01174344 0.46411142
v 0.04707415 -0.00168493 0.46422747
v 0.04703979 0.00837503 0.46417162
v 0.04689260 0.01843122 0.46392420
v 0.04660825 0.02847717 0.46342364
v 0.04638714 0.03349562 0.46300909
v 0.04620054 0.03661069 0.46263844
v 0.04608686 0.03806886 0.46240264
v 0.04602426 0.03867585 0.46226951
v 0.04597834 0.03896263 0.46216938
v 0.04594818 0.03910144 0.46210250
v 0.04591185 0.03923698 0.46202120
v 0.04589137 0.03930139 0.46197501
v 0.04586949 0.03936077 0.46192530
v 0.04584588 0.03941529 0.46187115
v 0.04582022 0.03946513 0.46181172
v 0.04579277 0.03950946 0.46174756
v 0.04576468 0.03954613 0.46168116
v 0.04573607 0.03957463 0.46161273
v 0.04570700 0.03959449 0.46154243
v 0.04567756 0.03960527 0.46147037
v 0.04564782 0.03960650 0.46139666
v 0.04561786 0.03959773 0.46132147
v 0.04558782 0.03957856 0.46124503
v 0.04555973 0.03955115 0.46117270
v 0.04553423 0.03951674 0.46110624
v 0.04551086 0.03947534 0.46104458
v 0.04548912 0.03942697 0.46098652
v 0.04546854 0.03937167 0.46093097
v 0.04544891 0.03930997 0.46087760
v 0.04543092 0.03924402 0.46082839
v 0.04541454 0.03917439 0.46078330
v 0.04538620 0.03902586 0.46070448
v 0.04536304 0.03886792 0.46063909
v 0.04532898 0.03853798 0.46054050
v 0.04530575 0.03821279 0.46047136
v 0.04518316 0.03580811 0.46009681
v 0.04503597 0.03097250 0.45960674
v 0.04488134 0.02126506 0.45903218
v 0.04480737 0.01154449 0.45873117
v 0.04478195 0.00182013 0.45862076
v 0.04479316 -0.00790540 0.45867035
v 0.04484763 -0.01762801 0.45889691
v 0.04496475 -0.02734378 0.45935085
v 0.04508705 -0.03292561 0.45978451
v 0.04519236 -0.03597670 0.46012676
f 80 19 81
f 81 19 6
f 81 6 82
f 82 6 5
f 82 5 83
f 83 5 4
f 83 4 84
f 84 4 3
f 84 3 85
f 85 3 18
f 85 18 86
f 86 18 17
f 86 17 87
f 87 17 16
f 87 16 88
f 88 16 15
f 88 15 89
f 89 15 14
f 89 14 90
f 90 14 13
f 90 13 91
f 91 13 12
f 91 12 92
f 92 12 11
f 92 11 93
f 93 11 10
f 93 10 94
f 94 10 9
f 94 9 95
f 95 9 8
f 95 8 96
f 96 8 7
f 96 7 97
f 97 7 76
f 97 76 98
f 98 76 74
f 98 74 99
f 99 74 73
f 99 73 100
f 100 73 72
f 100 72 101
f 101 72 71
f 101 71 102
f 102 71 70
f 102 70 103
f 103 70 69
f 103 69 104
f 104 69 68
f 104 68 105
f 105 68 67
f 105 67 106
f 106 67 66
f 106 66 107
f 107 66 65
f 107 65 108
f 108 65 79
f 108 79 109
f 109 79 78
f 109 78 110
f 110 78 77
f 110 77 111
f 111 77 75
f 111 75 112
f 112 75 2
f 112 2 113
f 113 2 1
f 113 1 114
f 114 1 64
f 114 64 115
f 115 64 63
f 115 63 116
f 116 63 62
f 116 62 117
f 117 62 48
f 117 48 118
f 118 48 47
f 118 47 119
f 119 47 49
f 119 49 120
f 120 49 50
f 120 50 121
f 121 50 61
f 121 61 122
f 122 61 60
f 122 60 123
f 123 60 59
f 123 59 124
f 124 59 58
f 124 58 125
f 125 58 57
f 125 57 126
f 126 57 56
f 126 56 127
f 127 56 55
f 127 55 128
f 128 55 54
f 128 54 129
f 129 54 53
f 129 53 130
f 130 53 52
f 130 52 131
f 131 52 51
f 131 51 132
f 132 51 26
f 132 26 133
f 133 26 38
f 133 38 134
f 134 38 37
f 134 37 135
f 135 37 36
f 135 36 136
f 136 36 35
f 136 35 137
f 137 35 34
f 137 34 138
f 138 34 33
f 138 33 139
f 139 33 32
f 139 32 140
f 140 32 31
f 140 31 141
f 141 31 28
f 141 28 142
f 142 28 29
f 142 29 143
f 143 29 30
f 143 30 144
f 144 30 41
f 144 41 145
f 145 41 40
f 145 40 146
f 146 40 39
f 146 39 147
f 147 39 44
f 147 44 148
f 148 44 43
f 148 43 149
f 149 43 42
f 149 42 150
f 150 42 27
f 150 27 151
f 151 27 46
f 151 46 152
f 152 46 45
f 152 45 153
f 153 45 25
f 153 25 154
f 154 25 24
f 154 24 155
f 155 24 23
f 155 23 156
f 156 23 22
f 156 22 157
f 157 22 21
f 157 21 158
f 158 21 20
f 158 20 80
f 80 20 19

