# https://github.com/mikedh/trimesh
v 0.04807160 -0.00431878 0.38518533
v 0.04802721 -0.00648931 0.38546285
v 0.04764142 -0.00714694 0.38521186
v 0.04796823 -0.00862171 0.38586888
v 0.04645063 0.00886253 0.38442484
v 0.04721893 0.00876650 0.38515583
v 0.04652972 0.00603865 0.38392606
v 0.04731242 0.00461604 0.38448754
v 0.04655725 0.00452399 0.38375264
v 0.04657701 0.00292210 0.38362843
v 0.04734189 0.00207894 0.38430279
v 0.04659066 -0.00013524 0.38354298
v 0.04734887 -0.00047174 0.38426074
v 0.04659020 -0.00053860 0.38354596
v 0.04733521 -0.00282051 0.38434473
v 0.04656300 -0.00408928 0.38371778
v 0.04654411 -0.00526926 0.38383681
v 0.04725877 -0.00718798 0.38484743
v 0.04650358 -0.00709610 0.38409188
v 0.04721894 -0.00871553 0.38515586
v 0.04645063 -0.00881158 0.38442484
v 0.04796821 0.00867269 0.38586888
v 0.04802466 0.00664295 0.38547918
v 0.04769536 0.00458916 0.38485080
v 0.04806972 0.00447388 0.38519564
v 0.04772497 0.00206687 0.38466492
v 0.04810873 0.00007807 0.38497746
v 0.04773198 -0.00046882 0.38462257
v 0.04771828 -0.00280384 0.38470718
v 0.04631839 0.01246537 0.38544855
v 0.04609654 0.01670616 0.38721621
v 0.04762791 0.01622443 0.38853666
v 0.04614275 0.01593476 0.38684487
v 0.04766496 0.01560738 0.38824248
v 0.04622462 0.01443974 0.38619018
v 0.04775843 0.01389454 0.38750058
v 0.04630048 0.01286943 0.38558942
v 0.04782664 0.01247187 0.38696679
v 0.04496820 0.02834190 0.39621559
v 0.04658268 0.02735127 0.39692247
v 0.04664441 0.02688941 0.39643168
v 0.04523104 0.02633846 0.39412060
v 0.04669320 0.02651309 0.39604300
v 0.04525857 0.02611167 0.39390036
v 0.04690711 0.02473203 0.39433175
v 0.04536200 0.02522711 0.39307225
v 0.04696667 0.02419336 0.39385357
v 0.04551502 0.02381292 0.39184520
v 0.04703720 0.02352785 0.39328641
v 0.04565974 0.02233911 0.39068493
v 0.04720796 0.02177510 0.39191091
v 0.04573834 0.02147378 0.39005667
v 0.04736001 0.02000907 0.39068514
v 0.04592697 0.01916941 0.38856000
v 0.04741924 0.01925669 0.39020821
v 0.04760179 0.01664307 0.38874477
v 0.04638497 0.02873350 0.39848694
v 0.04479222 0.02953982 0.39760745
v 0.04622639 0.02974744 0.39973277
v 0.04464111 0.03049058 0.39879435
v 0.04617981 0.03003092 0.40009707
v 0.04603907 0.03085137 0.40119338
v 0.04427030 0.03256582 0.40166584
v 0.04565223 0.03286094 0.40416959
v 0.04423042 0.03276997 0.40197098
v 0.04560740 0.03307330 0.40451089
v 0.04376669 0.03491982 0.40546745
v 0.04522440 0.03473071 0.40737906
v 0.04361560 0.03554189 0.40658575
v 0.04498052 0.03565504 0.40915936
v 0.04324665 0.03692737 0.40927762
v 0.04475644 0.03643272 0.41077250
v 0.04288614 0.03812008 0.41184422
v 0.04422192 0.03808564 0.41456997
v 0.04266134 0.03880536 0.41342479
v 0.04401200 0.03868127 0.41605368
v 0.04240751 0.03954928 0.41522473
v 0.04382573 0.03919405 0.41737106
v 0.04212613 0.04033620 0.41723245
v 0.04308797 0.04106094 0.42265692
v 0.04035875 0.04443071 0.42995158
v 0.04035687 0.04443333 0.42996293
v 0.04199627 0.04338021 0.43052143
v 0.04036046 0.04442726 0.42993909
v 0.04038478 0.04437814 0.42976126
v 0.04037088 0.04440622 0.42986286
v 0.04036393 0.04442025 0.42991367
v 0.04058013 0.04398053 0.42834312
v 0.04056786 0.04400569 0.42843175
v 0.04228443 0.04279503 0.42839926
v 0.04046834 0.04420882 0.42915267
v 0.04041261 0.04432186 0.42955822
v 0.04139141 0.04220861 0.42252275
v 0.04138346 0.04222738 0.42258000
v 0.04080455 0.04351409 0.42673010
v 0.04546089 -0.03368933 0.40561989
v 0.04398592 -0.03390856 0.40383694
v 0.04413183 -0.03321500 0.40273085
v 0.04056663 -0.04395341 0.42841980
v 0.04138939 -0.04215847 0.42252010
v 0.04291880 -0.04140041 0.42387322
v 0.04247507 -0.04235568 0.42703906
v 0.04223268 -0.04284836 0.42877221
v 0.04046029 -0.04417048 0.42919049
v 0.04211190 -0.04309008 0.42964396
v 0.04040727 -0.04427801 0.42957652
v 0.04203099 -0.04325128 0.43023244
v 0.04199629 -0.04332956 0.43052143
v 0.04035693 -0.04438263 0.42996305
v 0.04199889 -0.04331586 0.43046987
v 0.04035658 -0.04438145 0.42995301
v 0.04035784 -0.04437820 0.42993906
v 0.04036111 -0.04437155 0.42991489
v 0.04036769 -0.04435821 0.42986649
v 0.04038086 -0.04433152 0.42976978
v 0.04382570 -0.03914304 0.41737121
v 0.04363949 -0.03963806 0.41869813
v 0.04212564 -0.04028531 0.41723186
v 0.04149818 -0.04189853 0.42173696
v 0.04301291 -0.04118504 0.42319721
v 0.04293545 -0.04136264 0.42375368
v 0.04240659 -0.03949655 0.41522557
v 0.04251597 -0.03918122 0.41445020
v 0.04450658 -0.03718404 0.41255376
v 0.04265513 -0.03877134 0.41346619
v 0.04501665 -0.03547258 0.40889749
v 0.04320198 -0.03702992 0.40959406
v 0.04332080 -0.03661472 0.40874416
v 0.04369474 -0.03518487 0.40602216
v 0.04688881 -0.02484261 0.39447868
v 0.04660112 -0.02716397 0.39677608
v 0.04502716 -0.02790646 0.39579582
v 0.04658266 -0.02730048 0.39692274
v 0.04487084 -0.02899694 0.39702684
v 0.04646834 -0.02811677 0.39782879
v 0.04454448 -0.03102556 0.39956802
v 0.04625475 -0.02952079 0.39951068
v 0.04452272 -0.03115052 0.39973611
v 0.04597294 -0.03116823 0.40170616
v 0.04586136 -0.03176506 0.40256751
v 0.04569774 -0.02193240 0.39042756
v 0.04716783 -0.02215586 0.39223447
v 0.04545516 -0.02438964 0.39238083
v 0.04690418 -0.02470705 0.39435533
v 0.04543221 -0.02460188 0.39256510
v 0.04517976 -0.02675083 0.39458445
v 0.04752479 -0.01775560 0.38936046
v 0.04745028 -0.01879487 0.38995868
v 0.04591048 -0.01936773 0.38871136
v 0.04739545 -0.01951291 0.39039981
v 0.04723899 -0.02138112 0.39166075
v 0.04634520 -0.01178042 0.38523838
v 0.04758995 -0.01677766 0.38883927
v 0.04609643 -0.01665539 0.38721621
v 0.04766496 -0.01555647 0.38824251
v 0.04614272 -0.01588388 0.38684487
v 0.04774269 -0.01415884 0.38762960
v 0.04621021 -0.01466450 0.38630465
v 0.04775875 -0.01384364 0.38750097
v 0.04631190 -0.01256196 0.38549933
v 0.04783840 -0.01215404 0.38687435
v 0.04788692 -0.01097745 0.38649505
v 0.04151423 0.04427659 0.43401316
v 0.03950228 0.04598877 0.43612000
v 0.04115788 0.04489404 0.43673781
v 0.03870733 0.04727527 0.44236943
v 0.04043466 0.04602386 0.44247767
v 0.05013695 0.01495245 0.38516104
v 0.05002472 0.01680803 0.38595137
v 0.04997984 0.01747922 0.38626602
v 0.04993573 0.01810602 0.38657430
v 0.04977949 0.02011571 0.38766101
v 0.04971109 0.02091189 0.38813508
v 0.04965044 0.02158323 0.38855496
v 0.04944830 0.02362571 0.38995257
v 0.04933550 0.02466026 0.39073366
v 0.04925081 0.02539490 0.39132032
v 0.04901323 0.02729383 0.39296889
v 0.04877114 0.02902685 0.39465541
v 0.04865198 0.02981768 0.39548865
v 0.04825306 0.03222021 0.39829683
v 0.04783064 0.03442853 0.40130746
v 0.04757088 0.03564555 0.40318024
v 0.04739468 0.03641850 0.40446147
v 0.04690454 0.03837107 0.40807107
v 0.04652479 0.03969793 0.41089672
v 0.04594810 0.04147765 0.41522285
v 0.04577022 0.04199499 0.41657951
v 0.04522259 0.04345768 0.42069599
v 0.04493871 0.04414848 0.42282853
v 0.04452243 0.04509343 0.42597848
v 0.04398755 0.04621429 0.43002561
v 0.05038244 0.00930609 0.38341525
v 0.05028401 0.01195886 0.38411805
v 0.05021758 0.01341260 0.38459009
v 0.05038245 -0.00925527 0.38341528
v 0.05045081 -0.00642535 0.38288784
v 0.05045718 0.00612673 0.38283792
v 0.05049676 0.00307206 0.38252801
v 0.05051022 0.00002541 0.38242921
v 0.05051019 -0.00009253 0.38242933
v 0.05049431 -0.00327919 0.38254571
v 0.05028139 -0.01195356 0.38413131
v 0.05013583 -0.01490202 0.38516000
v 0.05024530 -0.01275605 0.38438472
v 0.04855633 -0.03036751 0.39614838
v 0.04922736 -0.02551316 0.39145628
v 0.04910123 -0.02654141 0.39233413
v 0.05003827 -0.01649811 0.38583106
v 0.04996124 -0.01764299 0.38636687
v 0.04984951 -0.01914513 0.38714173
v 0.04975235 -0.02033226 0.38781455
v 0.04950831 -0.02295458 0.38950485
v 0.04949599 -0.02307594 0.38959035
v 0.04946027 -0.02342229 0.38983807
v 0.04870483 -0.02940938 0.39510468
v 0.04891006 -0.02798655 0.39366773
v 0.04906538 -0.02682220 0.39258388
v 0.04827873 -0.03202035 0.39810896
v 0.04815931 -0.03268228 0.39895639
v 0.04798082 -0.03362301 0.40022808
v 0.04775650 -0.03473030 0.40183550
v 0.04733234 -0.03662484 0.40490621
v 0.04688058 -0.03839623 0.40822437
v 0.04641081 -0.04000780 0.41173151
v 0.04576930 -0.04194500 0.41657925
v 0.04311531 -0.04451573 0.42938989
v 0.04323358 -0.04427448 0.42851266
v 0.04466658 -0.04472697 0.42489511
v 0.04488221 -0.04423090 0.42325413
v 0.04493830 -0.04409804 0.42282826
v 0.04537969 -0.04299803 0.41949973
v 0.04299794 -0.04475521 0.43027213
v 0.04398768 -0.04616381 0.43002561
v 0.04402751 -0.04608395 0.42973900
v 0.04422471 -0.04568022 0.42825747
v 0.04187183 -0.04357432 0.43143144
v 0.03959392 -0.04578431 0.43546534
v 0.04125853 -0.04466814 0.43592757
v 0.03885296 -0.04700432 0.44121751
v 0.04043466 -0.04597311 0.44247767
v 0.03870733 -0.04722452 0.44236943
v 0.06973195 -0.01461489 0.49412861
v 0.06986818 -0.01342979 0.49426204
v 0.06927199 -0.01379632 0.49612853
v 0.05806159 -0.04403077 0.48505571
v 0.05633935 -0.04534495 0.48334211
v 0.05717875 -0.04412704 0.48172531
v 0.05849492 -0.04318761 0.48303396
v 0.05892729 -0.04283862 0.48346311
v 0.05961428 -0.04254806 0.48659748
v 0.06072414 -0.04112239 0.48524415
v 0.06029446 -0.04178905 0.48727217
v 0.06103085 -0.04087847 0.48800218
v 0.06237943 -0.03906764 0.48688209
v 0.06194144 -0.03960437 0.48890433
v 0.06232300 -0.03901453 0.48928219
v 0.06376912 -0.03686139 0.48825613
v 0.06349847 -0.03694552 0.49044594
v 0.06505945 -0.03425550 0.48953184
v 0.06456292 -0.03465559 0.49149862
v 0.06625210 -0.03113026 0.49070862
v 0.06551603 -0.03213105 0.49243909
v 0.06627262 -0.03106823 0.49072886
v 0.06637783 -0.02931548 0.49328753
v 0.06727473 -0.02768161 0.49171573
v 0.06724732 -0.02591491 0.49414223
v 0.06824642 -0.02362503 0.49267080
v 0.06777675 -0.02348560 0.49466223
v 0.06907082 -0.01925948 0.49348024
v 0.06877705 -0.01771094 0.49564371
v 0.06839491 -0.02015736 0.49526894
v 0.06807343 -0.02196730 0.49495348
v 0.07059270 0.00002506 0.49496984
v 0.07001137 0.00002507 0.49685052
v 0.07049634 -0.00490953 0.49487659
v 0.06995976 -0.00364648 0.49680078
v 0.07041203 -0.00673213 0.49479425
v 0.06982369 -0.00698213 0.49666804
v 0.07020861 -0.00980931 0.49459523
v 0.06973040 -0.00854091 0.49657688
v 0.06933276 -0.01322584 0.49618798
v 0.07003613 0.01184087 0.49442640
v 0.06931366 0.01345789 0.49616933
v 0.07039101 0.00716388 0.49477369
v 0.06984525 0.00661815 0.49668911
v 0.07057162 0.00232064 0.49494985
v 0.06986820 0.01348000 0.49426204
v 0.06952062 0.01631672 0.49392146
v 0.06845697 0.01983433 0.49532986
v 0.06894634 0.02004601 0.49335805
v 0.06885445 0.02056900 0.49326783
v 0.06727653 0.02583874 0.49417096
v 0.06805621 0.02454416 0.49248397
v 0.06675129 0.02798091 0.49365497
v 0.06717528 0.02810003 0.49161780
v 0.06610051 0.03032682 0.49301463
v 0.06539740 0.03252607 0.49232224
v 0.06627309 0.03111710 0.49072930
v 0.06625214 0.03118046 0.49070862
v 0.06597187 0.03199586 0.49043238
v 0.06500853 0.03442169 0.48948145
v 0.06416140 0.03562466 0.49110183
v 0.06393608 0.03660911 0.48842114
v 0.06279072 0.03828998 0.48974538
v 0.06154829 0.04022623 0.48851499
v 0.06275532 0.03857119 0.48725367
v 0.06219925 0.03936850 0.48670378
v 0.06125379 0.04063259 0.48822320
v 0.06145964 0.04032475 0.48597211
v 0.05951016 0.04270786 0.48649427
v 0.06066553 0.04123632 0.48518601
v 0.06003366 0.04188718 0.48456004
v 0.05772667 0.04436035 0.48472220
v 0.05898816 0.04283803 0.48352334
v 0.05849492 0.04323800 0.48303396
v 0.05638588 0.04536368 0.48338827
v 0.05717875 0.04417743 0.48172531
v 0.05633935 0.04539534 0.48334211
v 0.05188239 0.04658076 0.47646368
v 0.05107637 0.04680615 0.47564611
v 0.05079588 0.04804736 0.47782940
v 0.04871909 0.04861315 0.47569486
v 0.04009636 0.04649343 0.44524115
v 0.03828414 0.04789441 0.44593436
v 0.03982154 0.04690371 0.44807342
v 0.03822035 0.04799220 0.44656727
v 0.03978823 0.04696290 0.44853717
v 0.03974882 0.04704084 0.44917858
v 0.03797771 0.04846469 0.45011872
v 0.03967266 0.04729882 0.45160481
v 0.03795803 0.04854240 0.45081633
v 0.03972558 0.04750236 0.45400980
v 0.03796969 0.04878320 0.45326275
v 0.03976035 0.04754519 0.45459741
v 0.03808787 0.04895468 0.45533860
v 0.04001590 0.04770176 0.45707738
v 0.03814518 0.04900107 0.45596039
v 0.03830836 0.04909466 0.45730910
v 0.04013674 0.04774260 0.45785081
v 0.03852915 0.04917816 0.45864990
v 0.04050842 0.04782260 0.45965421
v 0.03890933 0.04927066 0.46036431
v 0.04081681 0.04786178 0.46079469
v 0.03913684 0.04930947 0.46119094
v 0.04119137 0.04789083 0.46193716
v 0.03983060 0.04938690 0.46320683
v 0.04142309 0.04790068 0.46254936
v 0.04201682 0.04790174 0.46388751
v 0.04061551 0.04942650 0.46495166
v 0.04274934 0.04787837 0.46525875
v 0.04126019 0.04943477 0.46614185
v 0.04316456 0.04785825 0.46595019
v 0.04179475 0.04943017 0.46702671
v 0.04466304 0.04776588 0.46817738
v 0.04295431 0.04938822 0.46875903
v 0.04353416 0.04935572 0.46956819
v 0.04685516 0.04757266 0.47100556
v 0.04480703 0.04925141 0.47123051
v 0.04668190 0.04900858 0.47346470
v 0.04790818 0.04743741 0.47223893
v 0.04931572 0.04720260 0.47379941
v 0.04853365 0.04865514 0.47549823
v 0.04866362 0.04862589 0.47563624
v 0.05330856 0.04610551 0.47788817
v 0.05260717 0.04739124 0.47963709
v 0.05463871 0.04556030 0.47920722
v 0.05346811 0.04701568 0.48049179
v 0.05536627 0.04521420 0.47992763
v 0.05499725 0.04623005 0.48200798
v 0.04021752 -0.04627378 0.44419983
v 0.03828383 -0.04784227 0.44592345
v 0.03980514 -0.04688112 0.44829208
v 0.03807980 -0.04817774 0.44821674
v 0.03974828 -0.04699033 0.44917852
v 0.03795758 -0.04849107 0.45080605
v 0.03967263 -0.04723724 0.45148537
v 0.03972540 -0.04745160 0.45400977
v 0.03801151 -0.04881825 0.45425063
v 0.03974767 -0.04748029 0.45440114
v 0.03808662 -0.04890361 0.45532966
v 0.04000933 -0.04764837 0.45703238
v 0.03830805 -0.04904404 0.45730907
v 0.03856461 -0.04913860 0.45883709
v 0.04013649 -0.04769180 0.45785084
v 0.03890828 -0.04922079 0.46036449
v 0.04045409 -0.04776310 0.45942837
v 0.03926004 -0.04927864 0.46160433
v 0.04081699 -0.04781125 0.46079463
v 0.04106680 -0.04783254 0.46157926
v 0.03988827 -0.04934365 0.46335915
v 0.04142307 -0.04784996 0.46254924
v 0.04012785 -0.04935822 0.46392283
v 0.04164699 -0.04785394 0.46308717
v 0.04186205 -0.04785367 0.46356377
v 0.04126428 -0.04938267 0.46614587
v 0.05334144 -0.04604427 0.47792491
v 0.05038766 -0.04812266 0.47741809
v 0.05188103 -0.04653195 0.47646561
v 0.04852233 -0.04860732 0.47548664
v 0.05118975 -0.04672651 0.47576413
v 0.04667768 -0.04895895 0.47346079
v 0.04889692 -0.04722917 0.47334513
v 0.04480703 -0.04920088 0.47123048
v 0.04658625 -0.04755167 0.47068000
v 0.04361624 -0.04929883 0.46967831
v 0.04438348 -0.04773433 0.46778476
v 0.04295450 -0.04933742 0.46875921
v 0.04290099 -0.04782050 0.46551663
v 0.04273713 -0.04782832 0.46523827
v 0.05463757 -0.04551122 0.47920910
v 0.05472234 -0.04633303 0.48173511
v 0.05260717 -0.04734081 0.47963709
v 0.05531464 -0.04518997 0.47987857
v 0.05950385 0.04670001 0.48103291
v 0.05757916 0.04778040 0.47905305
v 0.05677614 0.04815319 0.47823036
v 0.05557254 0.04863807 0.47699809
v 0.05387685 0.04918998 0.47525552
v 0.05340334 0.04931992 0.47476363
v 0.05109813 0.04982119 0.47229499
v 0.05032732 0.04994545 0.47143051
v 0.04878190 0.05014132 0.46961442
v 0.04740563 0.05026893 0.46787673
v 0.04651878 0.05034022 0.46668324
v 0.04550745 0.05042175 0.46523443
v 0.04489778 0.05047203 0.46428952
v 0.04388219 0.05053980 0.46245283
v 0.04307042 0.05054201 0.46044454
v 0.04185372 0.05022360 0.45335197
v 0.04208744 0.05038517 0.45598495
v 0.04229730 0.05044951 0.45734644
v 0.04249856 0.05048796 0.45834789
v 0.04197782 0.04960378 0.44716838
v 0.04186061 0.04982311 0.44896701
v 0.04181172 0.04997203 0.45037219
v 0.04249377 0.04884215 0.44222173
v 0.04242617 0.04894159 0.44280297
v 0.04237799 0.04901185 0.44321838
v 0.04387357 0.04643565 0.43085411
v 0.04327743 0.04754757 0.43548399
v 0.04337558 -0.04731758 0.43465978
v 0.04320774 -0.04762460 0.43608928
v 0.04275468 -0.04839109 0.43997169
v 0.04249290 -0.04879336 0.44223043
v 0.05950385 -0.04664981 0.48103285
v 0.05764262 -0.04769845 0.47911590
v 0.05677764 -0.04810125 0.47822839
v 0.05553844 -0.04859861 0.47695827
v 0.05387877 -0.04913749 0.47525311
v 0.05325297 -0.04930764 0.47460333
v 0.05117998 -0.04975617 0.47238398
v 0.05032817 -0.04989465 0.47142968
v 0.04491128 -0.05042148 0.46431273
v 0.04550699 -0.05037284 0.46523502
v 0.04630506 -0.05030694 0.46638501
v 0.04740543 -0.05021910 0.46787691
v 0.04861024 -0.05010881 0.46940342
v 0.04383335 -0.05049057 0.46234009
v 0.04308682 -0.05049134 0.46047384
v 0.04250641 -0.05043858 0.45838127
v 0.04229706 -0.05039899 0.45734647
v 0.04207025 -0.05032775 0.45585290
v 0.04187315 -0.05019711 0.45369336
v 0.04183651 -0.05014595 0.45297188
v 0.04183137 -0.04985259 0.44970351
v 0.04186191 -0.04977219 0.44896710
v 0.04203768 -0.04945629 0.44645408
v 0.07023743 -0.02899708 0.49232128
v 0.06919423 -0.03263834 0.49120209
v 0.06929134 -0.03233433 0.49130601
v 0.06931258 -0.03226691 0.49132872
v 0.06931436 -0.03226126 0.49133059
v 0.06894214 -0.03339705 0.49093175
v 0.06820642 -0.03539192 0.49013880
v 0.06752276 -0.03699913 0.48939985
v 0.06715380 -0.03778232 0.48900166
v 0.06347490 -0.04328805 0.48513794
v 0.06489907 -0.04155295 0.48661128
v 0.06616350 -0.03963531 0.48793936
v 0.06670938 -0.03865600 0.48852351
v 0.06093496 -0.04564210 0.48251304
v 0.06200283 -0.04475167 0.48361680
v 0.07056171 -0.02767650 0.49267107
v 0.07114214 -0.02501895 0.49330330
v 0.07138862 -0.02375350 0.49357367
v 0.07189333 -0.02082573 0.49412981
v 0.07231929 -0.01785701 0.49460241
v 0.07247186 -0.01663360 0.49477240
v 0.07266998 -0.01487185 0.49499330
v 0.07341331 -0.00225371 0.49582735
v 0.07343119 0.00002510 0.49584723
v 0.07325959 -0.00711654 0.49565431
v 0.07293376 -0.01207953 0.49528804
v 0.06093499 0.04569224 0.48251298
v 0.06140852 0.04531381 0.48300245
v 0.06248765 0.04435249 0.48411763
v 0.06338610 0.04343530 0.48504612
v 0.06378096 0.04299460 0.48545423
v 0.06489909 0.04160313 0.48661125
v 0.06535238 0.04096690 0.48708287
v 0.06642558 0.03922799 0.48821911
v 0.06670944 0.03870625 0.48852348
v 0.06754822 0.03699295 0.48942742
v 0.06805796 0.03580960 0.48997837
v 0.06848583 0.03471971 0.49044055
v 0.06931139 0.03232123 0.49132735
v 0.06931318 0.03231555 0.49132925
v 0.06977375 0.03077065 0.49182308
v 0.07056163 0.02772672 0.49267104
v 0.07065255 0.02733747 0.49276939
v 0.07124290 0.02456344 0.49341366
v 0.07150459 0.02317286 0.49370140
v 0.07212992 0.01929496 0.49439225
v 0.07219124 0.01885933 0.49446023
v 0.07266910 0.01493244 0.49499214
v 0.07271162 0.01452184 0.49503967
v 0.07293014 0.01216743 0.49528438
v 0.07309896 0.00993854 0.49547389
v 0.07334477 0.00511620 0.49574950
f 1 2 3
f 3 2 4
f 4 20 3
f 3 20 18
f 3 18 29
f 29 18 15
f 29 15 28
f 28 1 29
f 28 27 1
f 26 27 28
f 28 13 26
f 26 13 11
f 26 11 24
f 24 25 26
f 24 23 25
f 22 23 24
f 24 8 22
f 22 8 6
f 7 6 8
f 5 6 7
f 6 5 30
f 7 8 9
f 9 8 10
f 10 8 11
f 10 11 12
f 30 22 6
f 30 38 22
f 37 38 30
f 37 36 38
f 35 36 37
f 35 34 36
f 33 34 35
f 33 32 34
f 31 32 33
f 31 56 32
f 31 55 56
f 54 55 31
f 54 53 55
f 52 53 54
f 52 51 53
f 50 51 52
f 50 49 51
f 48 49 50
f 48 47 49
f 46 47 48
f 46 45 47
f 44 45 46
f 44 43 45
f 42 43 44
f 42 41 43
f 39 41 42
f 39 40 41
f 40 39 57
f 57 39 58
f 57 58 59
f 59 58 60
f 59 60 61
f 61 60 62
f 62 60 63
f 62 63 64
f 64 63 65
f 64 65 66
f 66 65 67
f 66 67 68
f 68 67 69
f 68 69 70
f 70 69 71
f 70 71 72
f 72 71 73
f 72 73 74
f 74 73 75
f 74 75 76
f 76 75 77
f 76 77 78
f 78 77 79
f 78 79 80
f 79 93 80
f 80 93 94
f 80 94 90
f 90 94 95
f 90 95 88
f 88 89 90
f 90 89 91
f 90 91 83
f 83 91 92
f 83 92 85
f 85 86 83
f 83 86 87
f 83 87 84
f 81 83 84
f 81 82 83
f 83 82 163
f 163 82 164
f 163 164 165
f 165 164 166
f 165 166 167
f 167 166 324
f 324 166 325
f 324 325 326
f 326 325 327
f 326 327 328
f 328 327 329
f 329 327 330
f 329 330 331
f 331 330 332
f 331 332 333
f 333 332 334
f 333 334 335
f 335 334 336
f 335 336 337
f 336 338 337
f 337 338 339
f 337 339 340
f 340 339 341
f 340 341 342
f 342 341 343
f 342 343 344
f 344 343 345
f 344 345 346
f 346 345 347
f 346 347 348
f 348 347 349
f 349 347 350
f 349 350 351
f 351 350 352
f 351 352 353
f 353 352 354
f 353 354 355
f 354 356 355
f 355 356 357
f 355 357 358
f 357 359 358
f 358 359 360
f 358 360 361
f 361 360 362
f 362 360 363
f 362 363 321
f 321 363 364
f 321 364 323
f 322 321 323
f 320 321 322
f 320 322 365
f 365 322 366
f 365 366 367
f 367 366 368
f 367 368 369
f 368 370 369
f 369 370 319
f 369 319 318
f 317 318 319
f 317 316 318
f 314 316 317
f 314 315 316
f 313 315 314
f 311 313 314
f 311 312 313
f 310 312 311
f 309 310 311
f 309 308 310
f 306 308 309
f 306 307 308
f 304 307 306
f 305 304 306
f 303 304 305
f 303 302 304
f 298 302 303
f 298 301 302
f 300 301 298
f 298 299 300
f 298 296 299
f 297 296 298
f 295 296 297
f 295 294 296
f 293 294 295
f 293 292 294
f 290 292 293
f 290 291 292
f 289 291 290
f 284 289 290
f 284 288 289
f 283 288 284
f 283 284 285
f 285 284 286
f 285 286 287
f 287 286 275
f 287 275 274
f 274 275 276
f 276 275 277
f 276 277 278
f 278 277 279
f 278 279 280
f 280 279 281
f 280 281 244
f 244 281 282
f 244 282 245
f 243 244 245
f 243 245 270
f 245 271 270
f 270 271 272
f 270 272 268
f 268 272 273
f 268 273 269
f 267 268 269
f 267 266 268
f 265 266 267
f 265 264 266
f 263 264 265
f 263 262 264
f 261 262 263
f 261 260 262
f 259 260 261
f 259 258 260
f 257 258 259
f 257 255 258
f 256 255 257
f 254 255 256
f 254 252 255
f 253 252 254
f 251 252 253
f 251 250 252
f 246 250 251
f 246 249 250
f 248 249 246
f 246 247 248
f 412 248 247
f 412 414 248
f 411 414 412
f 411 412 397
f 397 412 413
f 397 413 398
f 397 398 399
f 399 398 400
f 399 400 401
f 401 400 402
f 401 402 403
f 403 402 404
f 403 404 405
f 405 404 406
f 405 406 407
f 407 406 408
f 407 408 409
f 409 408 396
f 409 396 410
f 410 396 395
f 393 395 396
f 393 394 395
f 392 394 393
f 391 392 393
f 391 390 392
f 388 390 391
f 388 389 390
f 387 389 388
f 386 387 388
f 386 385 387
f 384 385 386
f 384 382 385
f 383 382 384
f 381 382 383
f 381 380 382
f 379 380 381
f 379 378 380
f 376 378 379
f 376 377 378
f 375 377 376
f 374 375 376
f 374 373 375
f 372 373 374
f 372 371 373
f 242 371 372
f 242 241 371
f 240 241 242
f 240 239 241
f 238 239 240
f 238 237 239
f 109 237 238
f 109 108 237
f 108 109 110
f 110 109 111
f 110 111 112
f 112 113 110
f 110 113 114
f 110 114 107
f 107 114 115
f 107 115 106
f 106 105 107
f 104 105 106
f 104 103 105
f 99 103 104
f 99 102 103
f 101 102 99
f 99 100 101
f 100 121 101
f 100 120 121
f 119 120 100
f 119 117 120
f 118 117 119
f 116 117 118
f 118 122 116
f 116 122 123
f 116 123 124
f 124 123 125
f 124 125 126
f 125 127 126
f 126 127 128
f 126 128 96
f 96 128 129
f 96 129 97
f 96 97 98
f 98 140 96
f 98 139 140
f 138 139 98
f 138 137 139
f 136 137 138
f 136 135 137
f 134 135 136
f 134 133 135
f 132 133 134
f 132 131 133
f 130 131 132
f 146 130 132
f 145 130 146
f 145 144 130
f 143 144 145
f 143 142 144
f 141 142 143
f 141 151 142
f 141 150 151
f 149 150 141
f 149 148 150
f 147 148 149
f 147 149 153
f 153 149 154
f 153 154 155
f 155 154 156
f 155 156 157
f 157 156 158
f 157 158 159
f 159 158 160
f 159 160 161
f 161 160 152
f 161 152 162
f 162 152 20
f 152 21 20
f 19 20 21
f 23 22 193
f 193 198 23
f 23 198 199
f 23 199 25
f 25 199 200
f 25 200 27
f 27 200 201
f 27 201 1
f 1 201 202
f 1 202 197
f 197 2 1
f 197 4 2
f 196 4 197
f 4 196 203
f 203 162 4
f 203 161 162
f 205 161 203
f 205 159 161
f 204 159 205
f 157 159 204
f 157 204 155
f 155 204 209
f 155 209 153
f 153 209 210
f 153 210 147
f 147 210 211
f 147 211 148
f 148 211 212
f 148 212 150
f 150 212 213
f 150 213 151
f 151 213 214
f 151 214 142
f 142 214 215
f 142 215 207
f 142 207 144
f 144 207 208
f 144 208 130
f 218 130 208
f 217 130 218
f 217 131 130
f 216 131 217
f 216 133 131
f 135 133 216
f 206 135 216
f 137 135 206
f 206 219 137
f 137 219 220
f 137 220 139
f 139 220 221
f 139 221 140
f 140 221 222
f 140 222 96
f 222 223 96
f 96 223 224
f 96 224 126
f 126 224 225
f 126 225 124
f 124 225 226
f 124 226 116
f 226 117 116
f 232 117 226
f 232 120 117
f 231 120 232
f 231 121 120
f 230 121 231
f 230 101 121
f 229 101 230
f 229 102 101
f 229 228 102
f 236 228 229
f 236 227 228
f 235 227 236
f 235 233 227
f 234 233 235
f 442 233 234
f 442 108 233
f 108 110 233
f 233 110 107
f 237 108 442
f 237 442 239
f 239 442 443
f 239 443 241
f 241 443 444
f 241 444 445
f 468 241 445
f 468 371 241
f 373 371 468
f 467 373 468
f 467 375 373
f 466 375 467
f 466 377 375
f 465 377 466
f 465 378 377
f 464 378 465
f 464 380 378
f 463 380 464
f 463 382 380
f 385 382 463
f 462 385 463
f 462 387 385
f 461 387 462
f 461 389 387
f 460 389 461
f 460 390 389
f 459 390 460
f 459 392 390
f 394 392 459
f 394 459 395
f 395 459 454
f 395 454 410
f 410 454 409
f 454 455 409
f 409 455 456
f 409 456 407
f 407 456 457
f 407 457 405
f 405 457 458
f 405 458 453
f 453 403 405
f 452 403 453
f 452 401 403
f 451 401 452
f 451 399 401
f 450 399 451
f 450 397 399
f 449 397 450
f 449 411 397
f 448 411 449
f 448 414 411
f 447 414 448
f 447 248 414
f 446 248 447
f 248 446 249
f 249 446 482
f 249 482 250
f 250 482 483
f 250 483 478
f 250 478 252
f 252 478 479
f 252 479 255
f 255 479 480
f 255 480 258
f 258 480 481
f 258 481 477
f 476 258 477
f 476 260 258
f 475 260 476
f 474 260 475
f 474 262 260
f 470 262 474
f 470 471 262
f 262 471 472
f 262 472 264
f 264 472 473
f 264 473 469
f 469 266 264
f 469 484 266
f 266 484 485
f 266 485 268
f 268 485 486
f 268 486 270
f 486 487 270
f 270 487 488
f 270 488 243
f 243 488 489
f 243 489 490
f 490 244 243
f 490 280 244
f 494 280 490
f 493 280 494
f 493 278 280
f 491 278 493
f 491 276 278
f 274 276 491
f 491 492 274
f 520 274 492
f 520 287 274
f 285 287 520
f 519 285 520
f 519 283 285
f 518 283 519
f 518 288 283
f 517 288 518
f 517 289 288
f 516 289 517
f 516 291 289
f 515 291 516
f 514 291 515
f 514 292 291
f 513 292 514
f 513 294 292
f 512 294 513
f 511 294 512
f 511 296 294
f 510 296 511
f 509 296 510
f 509 299 296
f 508 299 509
f 508 300 299
f 507 300 508
f 507 301 300
f 506 301 507
f 506 302 301
f 505 302 506
f 504 302 505
f 504 304 302
f 503 304 504
f 502 304 503
f 502 307 304
f 501 307 502
f 501 308 307
f 500 308 501
f 500 310 308
f 499 310 500
f 499 312 310
f 498 312 499
f 498 313 312
f 497 313 498
f 497 315 313
f 496 315 497
f 496 316 315
f 495 316 496
f 495 318 316
f 415 318 495
f 318 415 369
f 369 415 416
f 369 416 367
f 367 416 417
f 367 417 365
f 365 417 418
f 365 418 320
f 320 418 419
f 320 419 321
f 321 419 420
f 321 420 362
f 362 420 421
f 362 421 361
f 361 421 422
f 361 422 358
f 358 422 423
f 358 423 355
f 423 424 355
f 355 424 425
f 355 425 353
f 353 425 426
f 353 426 351
f 351 426 427
f 351 427 349
f 349 427 428
f 428 348 349
f 428 346 348
f 429 346 428
f 429 344 346
f 429 342 344
f 433 342 429
f 433 340 342
f 432 340 433
f 432 337 340
f 431 337 432
f 431 335 337
f 430 335 431
f 430 333 335
f 430 331 333
f 436 331 430
f 436 329 331
f 435 329 436
f 435 328 329
f 434 328 435
f 434 326 328
f 324 326 434
f 439 324 434
f 438 324 439
f 438 167 324
f 437 167 438
f 441 167 437
f 441 165 167
f 163 165 441
f 440 163 441
f 440 83 163
f 192 83 440
f 191 83 192
f 191 90 83
f 190 90 191
f 190 80 90
f 189 80 190
f 188 80 189
f 188 78 80
f 76 78 188
f 187 76 188
f 187 74 76
f 186 74 187
f 186 72 74
f 70 72 186
f 185 70 186
f 185 68 70
f 184 68 185
f 184 66 68
f 183 66 184
f 183 64 66
f 62 64 183
f 182 62 183
f 181 62 182
f 181 61 62
f 59 61 181
f 181 57 59
f 180 57 181
f 180 40 57
f 41 40 180
f 179 41 180
f 179 43 41
f 45 43 179
f 178 45 179
f 178 47 45
f 177 47 178
f 177 49 47
f 176 49 177
f 176 51 49
f 175 51 176
f 175 53 51
f 174 53 175
f 174 55 53
f 173 55 174
f 172 55 173
f 172 56 55
f 171 56 172
f 171 32 56
f 170 32 171
f 170 34 32
f 169 34 170
f 169 36 34
f 168 36 169
f 38 36 168
f 195 38 168
f 194 38 195
f 194 22 38
f 233 107 227
f 227 107 105
f 227 105 103
f 227 103 228
f 228 103 102
f 193 22 194
f 24 11 8
f 12 11 13
f 12 13 14
f 14 13 15
f 14 15 16
f 16 15 17
f 26 25 27
f 28 15 13
f 17 15 18
f 17 18 19
f 19 18 20
f 162 20 4
f 29 1 3

