# https://github.com/mikedh/trimesh
v 0.04571702 -0.01174339 0.46488357
v 0.04551401 -0.02179676 0.46453786
v 0.04498862 -0.02061697 0.46356854
v 0.04399724 -0.03909316 0.46126932
v 0.04396823 -0.03894403 0.46118808
v 0.04408745 -0.03884718 0.46151641
v 0.04394473 -0.03878627 0.46112135
v 0.04391026 -0.03846017 0.46102148
v 0.04430527 -0.03954898 0.46207419
v 0.04427329 -0.03955510 0.46199533
v 0.04424104 -0.03955150 0.46191481
v 0.04420862 -0.03953774 0.46183276
v 0.04417697 -0.03951423 0.46175161
v 0.04414827 -0.03948336 0.46167722
v 0.04412210 -0.03944550 0.46160859
v 0.04409790 -0.03940090 0.46154433
v 0.04407514 -0.03934978 0.46148312
v 0.04405325 -0.03929238 0.46142361
v 0.04403275 -0.03922988 0.46136743
v 0.04401412 -0.03916331 0.46131611
v 0.04388588 -0.03814536 0.46095017
v 0.04376468 -0.03597657 0.46058068
v 0.04365080 -0.03292558 0.46021059
v 0.04351825 -0.02734378 0.45974293
v 0.04339185 -0.01762801 0.45925441
v 0.04333319 -0.00790540 0.45901093
v 0.04332111 0.00182013 0.45895773
v 0.04409540 0.03890273 0.46153766
v 0.04432080 0.03959362 0.46211210
v 0.04393079 0.03528288 0.46108112
v 0.04376053 0.02070685 0.46056792
v 0.04359572 0.03097219 0.46002084
v 0.04406315 0.03937003 0.46145055
v 0.04404179 0.03930918 0.46139213
v 0.04402225 0.03924389 0.46133840
v 0.04408547 0.03942497 0.46151099
v 0.04410896 0.03947342 0.46157381
v 0.04413416 0.03951515 0.46164033
v 0.04416165 0.03954994 0.46171200
v 0.04419196 0.03957756 0.46179014
v 0.04422442 0.03959673 0.46187288
v 0.04425680 0.03960552 0.46195430
v 0.04428896 0.03960433 0.46203408
v 0.04394894 0.03886864 0.46113339
v 0.04397385 0.03902664 0.46120381
v 0.04400449 0.03917473 0.46128929
v 0.04375497 0.03580752 0.46055016
v 0.04388745 0.03821190 0.46095413
v 0.04391246 0.03853777 0.46102804
v 0.04334857 0.01154448 0.45907632
v 0.04342834 0.02126503 0.45940030
v 0.04505621 0.03349613 0.46370056
v 0.04529332 0.02847720 0.46414560
v 0.04485295 0.03661000 0.46329632
v 0.04473011 0.03806774 0.46304050
v 0.04435223 0.03957384 0.46218824
v 0.04438319 0.03954543 0.46226233
v 0.04441357 0.03950885 0.46233422
v 0.04444325 0.03946460 0.46240371
v 0.04447103 0.03941495 0.46246812
v 0.04449660 0.03936064 0.46252683
v 0.04452027 0.03930136 0.46258068
v 0.04463505 0.03865225 0.46283609
v 0.04454239 0.03923677 0.46263051
v 0.04458155 0.03910067 0.46271801
v 0.04461400 0.03896153 0.46278992
v 0.04466326 0.03867460 0.46289754
v 0.04559847 0.01843119 0.46468332
v 0.04575618 0.00837502 0.46494851
v 0.04579287 -0.00168494 0.46500823
v 0.04463441 -0.03880534 0.46283475
v 0.04460624 -0.03894658 0.46277276
v 0.04450961 -0.03880481 0.46255651
v 0.04457221 -0.03908491 0.46269718
v 0.04453132 -0.03921943 0.46260566
v 0.04450852 -0.03928101 0.46255404
v 0.04448400 -0.03933756 0.46249798
v 0.04445741 -0.03938938 0.46243662
v 0.04442856 -0.03943658 0.46236941
v 0.04439862 -0.03947695 0.46229896
v 0.04436803 -0.03950944 0.46222615
v 0.04514015 -0.03183156 0.46386072
v 0.04470068 -0.03569028 0.46297795
v 0.04433688 -0.03953361 0.46215117
v 0.04483194 -0.03682194 0.46325311
v 0.04472646 -0.03806062 0.46303266
v 0.04465785 -0.03866133 0.46288583
f 1 2 3
f 2 82 3
f 3 82 83
f 3 83 9
f 9 29 3
f 9 31 29
f 30 29 31
f 30 31 32
f 31 51 32
f 31 50 51
f 27 50 31
f 32 47 30
f 30 47 48
f 30 48 28
f 28 48 49
f 28 49 44
f 44 45 28
f 28 45 46
f 28 46 35
f 34 28 35
f 33 28 34
f 33 36 28
f 28 36 37
f 28 37 38
f 38 39 28
f 28 39 40
f 28 40 41
f 41 42 28
f 28 42 43
f 28 43 29
f 28 29 30
f 27 31 9
f 9 26 27
f 9 25 26
f 24 25 9
f 9 23 24
f 9 22 23
f 6 22 9
f 6 21 22
f 8 21 6
f 6 7 8
f 6 5 7
f 4 5 6
f 6 20 4
f 6 19 20
f 18 19 6
f 6 17 18
f 6 16 17
f 15 16 6
f 6 14 15
f 6 13 14
f 12 13 6
f 6 11 12
f 6 10 11
f 9 10 6
f 3 29 70
f 29 69 70
f 29 68 69
f 53 68 29
f 52 53 29
f 52 29 54
f 54 29 55
f 55 29 56
f 55 56 57
f 57 58 55
f 55 58 59
f 55 59 60
f 60 61 55
f 55 61 62
f 55 62 63
f 63 67 55
f 63 66 67
f 65 66 63
f 63 64 65
f 63 62 64
f 9 83 73
f 9 73 84
f 84 73 81
f 73 80 81
f 73 79 80
f 78 79 73
f 73 77 78
f 73 76 77
f 75 76 73
f 73 74 75
f 73 72 74
f 71 72 73
f 73 87 71
f 73 86 87
f 83 86 73
f 83 85 86
f 82 85 83
f 3 70 1

