v 0.50170296 0.09428507 0.86996421
v 0.49973033 0.09583538 0.86799105
v 0.50320799 0.09765812 0.86711273
v 0.50469263 0.09539593 0.87009034
v 0.49973033 0.09583538 0.86799105
v 0.49807297 0.09805829 0.86703118
v 0.50121608 0.10032971 0.86595911
v 0.50320799 0.09765812 0.86711273
v 0.49807297 0.09805829 0.86703118
v 0.49673085 0.10095379 0.86708460
v 0.49871690 0.10341073 0.86662949
v 0.50121608 0.10032971 0.86595911
v 0.50469263 0.09539593 0.87009034
v 0.50320799 0.09765812 0.86711273
v 0.50579395 0.09992431 0.86789578
v 0.50684428 0.09728151 0.87074188
v 0.50320799 0.09765812 0.86711273
v 0.50121608 0.10032971 0.86595911
v 0.50380205 0.10259590 0.86674216
v 0.50579395 0.09992431 0.86789578
v 0.50121608 0.10032971 0.86595911
v 0.49871690 0.10341073 0.86662949
v 0.50086855 0.10529631 0.86728102
v 0.50380205 0.10259590 0.86674216
v 0.50684428 0.09728151 0.87074188
v 0.50579395 0.09992431 0.86789578
v 0.50748822 0.10263394 0.87034019
v 0.50815791 0.09994182 0.87191882
v 0.50579395 0.09992431 0.86789578
v 0.50380205 0.10259590 0.86674216
v 0.50583085 0.10485685 0.86938032
v 0.50748822 0.10263394 0.87034019
v 0.50380205 0.10259590 0.86674216
v 0.50086855 0.10529631 0.86728102
v 0.50318580 0.10661054 0.86903921
v 0.50583085 0.10485685 0.86938032
v 0.49673085 0.10095379 0.86708460
v 0.49446715 0.10139178 0.86929182
v 0.49608395 0.10507424 0.86917667
v 0.49871690 0.10341073 0.86662949
v 0.49446715 0.10139178 0.86929182
v 0.49335672 0.10172764 0.87198694
v 0.49474938 0.10547789 0.87241580
v 0.49608395 0.10507424 0.86917667
v 0.49335672 0.10172764 0.87198694
v 0.49339957 0.10196136 0.87516995
v 0.49471319 0.10462167 0.87634688
v 0.49474938 0.10547789 0.87241580
v 0.49871690 0.10341073 0.86662949
v 0.49608395 0.10507424 0.86917667
v 0.49866992 0.10734043 0.86995972
v 0.50086855 0.10529631 0.86728102
v 0.49608395 0.10507424 0.86917667
v 0.49474938 0.10547789 0.87241580
v 0.49733535 0.10774408 0.87319885
v 0.49866992 0.10734043 0.86995972
v 0.49474938 0.10547789 0.87241580
v 0.49471319 0.10462167 0.87634688
v 0.49686485 0.10650726 0.87699842
v 0.49733535 0.10774408 0.87319885
v 0.50086855 0.10529631 0.86728102
v 0.49866992 0.10734043 0.86995972
v 0.50222503 0.10819034 0.87164096
v 0.50318580 0.10661054 0.86903921
v 0.49866992 0.10734043 0.86995972
v 0.49733535 0.10774408 0.87319885
v 0.50111460 0.10852620 0.87433608
v 0.50222503 0.10819034 0.87164096
v 0.49733535 0.10774408 0.87319885
v 0.49686485 0.10650726 0.87699842
v 0.49985453 0.10761811 0.87712456
v 0.50111460 0.10852620 0.87433608
v 0.49339957 0.10196136 0.87516995
v 0.49406926 0.09926924 0.87674858
v 0.49576354 0.10197887 0.87919298
v 0.49471319 0.10462167 0.87634688
v 0.49406926 0.09926924 0.87674858
v 0.49572663 0.09704633 0.87770845
v 0.49775545 0.09930728 0.88034660
v 0.49576354 0.10197887 0.87919298
v 0.49572663 0.09704633 0.87770845
v 0.49837168 0.09529264 0.87804956
v 0.50068892 0.09660688 0.87980774
v 0.49775545 0.09930728 0.88034660
v 0.49471319 0.10462167 0.87634688
v 0.49576354 0.10197887 0.87919298
v 0.49834951 0.10424506 0.87997603
v 0.49686485 0.10650726 0.87699842
v 0.49576354 0.10197887 0.87919298
v 0.49775545 0.09930728 0.88034660
v 0.50034141 0.10157347 0.88112965
v 0.49834951 0.10424506 0.87997603
v 0.49775545 0.09930728 0.88034660
v 0.50068892 0.09660688 0.87980774
v 0.50284058 0.09849246 0.88045928
v 0.50034141 0.10157347 0.88112965
v 0.49686485 0.10650726 0.87699842
v 0.49834951 0.10424506 0.87997603
v 0.50182715 0.10606780 0.87909772
v 0.49985453 0.10761811 0.87712456
v 0.49834951 0.10424506 0.87997603
v 0.50034141 0.10157347 0.88112965
v 0.50348452 0.10384489 0.88005759
v 0.50182715 0.10606780 0.87909772
v 0.50034141 0.10157347 0.88112965
v 0.50284058 0.09849246 0.88045928
v 0.50482663 0.10094939 0.88000417
v 0.50348452 0.10384489 0.88005759
v 0.49837168 0.09529264 0.87804956
v 0.49933245 0.09371284 0.87544780
v 0.50288757 0.09456275 0.87712905
v 0.50068892 0.09660688 0.87980774
v 0.49933245 0.09371284 0.87544780
v 0.50044288 0.09337698 0.87275268
v 0.50422214 0.09415910 0.87388992
v 0.50288757 0.09456275 0.87712905
v 0.50044288 0.09337698 0.87275268
v 0.50170296 0.09428507 0.86996421
v 0.50469263 0.09539593 0.87009034
v 0.50422214 0.09415910 0.87388992
v 0.50068892 0.09660688 0.87980774
v 0.50288757 0.09456275 0.87712905
v 0.50547354 0.09682894 0.87791210
v 0.50284058 0.09849246 0.88045928
v 0.50288757 0.09456275 0.87712905
v 0.50422214 0.09415910 0.87388992
v 0.50680811 0.09642529 0.87467297
v 0.50547354 0.09682894 0.87791210
v 0.50422214 0.09415910 0.87388992
v 0.50469263 0.09539593 0.87009034
v 0.50684428 0.09728151 0.87074188
v 0.50680811 0.09642529 0.87467297
v 0.50284058 0.09849246 0.88045928
v 0.50547354 0.09682894 0.87791210
v 0.50709033 0.10051140 0.87779694
v 0.50482663 0.10094939 0.88000417
v 0.50547354 0.09682894 0.87791210
v 0.50680811 0.09642529 0.87467297
v 0.50820076 0.10017555 0.87510182
v 0.50709033 0.10051140 0.87779694
v 0.50680811 0.09642529 0.87467297
v 0.50684428 0.09728151 0.87074188
v 0.50815791 0.09994182 0.87191882
v 0.50820076 0.10017555 0.87510182
v 0.49837168 0.09529264 0.87804956
v 0.49572663 0.09704633 0.87770845
v 0.49582477 0.09518822 0.87414114
v 0.49933245 0.09371284 0.87544780
v 0.49572663 0.09704633 0.87770845
v 0.49406926 0.09926924 0.87674858
v 0.49383287 0.09785981 0.87298752
v 0.49582477 0.09518822 0.87414114
v 0.49406926 0.09926924 0.87674858
v 0.49339957 0.10196136 0.87516995
v 0.49335672 0.10172764 0.87198694
v 0.49383287 0.09785981 0.87298752
v 0.49933245 0.09371284 0.87544780
v 0.49582477 0.09518822 0.87414114
v 0.49715934 0.09478457 0.87090201
v 0.50044288 0.09337698 0.87275268
v 0.49582477 0.09518822 0.87414114
v 0.49383287 0.09785981 0.87298752
v 0.49516744 0.09745617 0.86974839
v 0.49715934 0.09478457 0.87090201
v 0.49383287 0.09785981 0.87298752
v 0.49335672 0.10172764 0.87198694
v 0.49446715 0.10139178 0.86929182
v 0.49516744 0.09745617 0.86974839
v 0.50044288 0.09337698 0.87275268
v 0.49715934 0.09478457 0.87090201
v 0.49973033 0.09583538 0.86799105
v 0.50170296 0.09428507 0.86996421
v 0.49715934 0.09478457 0.87090201
v 0.49516744 0.09745617 0.86974839
v 0.49807297 0.09805829 0.86703118
v 0.49973033 0.09583538 0.86799105
v 0.49516744 0.09745617 0.86974839
v 0.49446715 0.10139178 0.86929182
v 0.49673085 0.10095379 0.86708460
v 0.49807297 0.09805829 0.86703118
v 0.50815791 0.09994182 0.87191882
v 0.50748822 0.10263394 0.87034019
v 0.50772461 0.10404336 0.87410125
v 0.50820076 0.10017555 0.87510182
v 0.50748822 0.10263394 0.87034019
v 0.50583085 0.10485685 0.86938032
v 0.50573271 0.10671496 0.87294763
v 0.50772461 0.10404336 0.87410125
v 0.50583085 0.10485685 0.86938032
v 0.50318580 0.10661054 0.86903921
v 0.50222503 0.10819034 0.87164096
v 0.50573271 0.10671496 0.87294763
v 0.50820076 0.10017555 0.87510182
v 0.50772461 0.10404336 0.87410125
v 0.50639004 0.10444701 0.87734038
v 0.50709033 0.10051140 0.87779694
v 0.50772461 0.10404336 0.87410125
v 0.50573271 0.10671496 0.87294763
v 0.50439814 0.10711860 0.87618676
v 0.50639004 0.10444701 0.87734038
v 0.50573271 0.10671496 0.87294763
v 0.50222503 0.10819034 0.87164096
v 0.50111460 0.10852620 0.87433608
v 0.50439814 0.10711860 0.87618676
v 0.50709033 0.10051140 0.87779694
v 0.50639004 0.10444701 0.87734038
v 0.50348452 0.10384489 0.88005759
v 0.50482663 0.10094939 0.88000417
v 0.50639004 0.10444701 0.87734038
v 0.50439814 0.10711860 0.87618676
v 0.50182715 0.10606780 0.87909772
v 0.50348452 0.10384489 0.88005759
v 0.50439814 0.10711860 0.87618676
v 0.50111460 0.10852620 0.87433608
v 0.49985453 0.10761811 0.87712456
v 0.50182715 0.10606780 0.87909772
v 0.50468687 0.08735080 0.87969981
v 0.50352678 0.09066611 0.87741681
v 0.50870028 0.09160980 0.87789460
v 0.50866516 0.08734794 0.88101218
v 0.50352678 0.09066611 0.87741681
v 0.50263058 0.09434600 0.87672016
v 0.50762318 0.09603248 0.87705734
v 0.50870028 0.09160980 0.87789460
v 0.50263058 0.09434600 0.87672016
v 0.50199826 0.09839048 0.87760985
v 0.50543385 0.10061597 0.87850037
v 0.50762318 0.09603248 0.87705734
v 0.50866516 0.08734794 0.88101218
v 0.50870028 0.09160980 0.87789460
v 0.51236349 0.09297135 0.88037418
v 0.51171315 0.08848082 0.88307532
v 0.50870028 0.09160980 0.87789460
v 0.50762318 0.09603248 0.87705734
v 0.51128640 0.09739403 0.87953691
v 0.51236349 0.09297135 0.88037418
v 0.50762318 0.09603248 0.87705734
v 0.50543385 0.10061597 0.87850037
v 0.50848183 0.10174886 0.88056350
v 0.51128640 0.09739403 0.87953691
v 0.51171315 0.08848082 0.88307532
v 0.51236349 0.09297135 0.88037418
v 0.51451642 0.09475079 0.88485553
v 0.51383081 0.09074947 0.88588919
v 0.51236349 0.09297135 0.88037418
v 0.51128640 0.09739403 0.87953691
v 0.51362022 0.09843068 0.88415887
v 0.51451642 0.09475079 0.88485553
v 0.51128640 0.09739403 0.87953691
v 0.50848183 0.10174886 0.88056350
v 0.51114219 0.10178913 0.88379923
v 0.51362022 0.09843068 0.88415887
v 0.50199826 0.09839048 0.87760985
v 0.49862766 0.09923291 0.87995046
v 0.50192586 0.10298796 0.88165499
v 0.50543385 0.10061597 0.87850037
v 0.49862766 0.09923291 0.87995046
v 0.49645124 0.09930416 0.88312666
v 0.49931015 0.10307359 0.88547231
v 0.50192586 0.10298796 0.88165499
v 0.49645124 0.09930416 0.88312666
v 0.49546904 0.09860424 0.88713846
v 0.49758671 0.10087289 0.88995233
v 0.49931015 0.10307359 0.88547231
v 0.50543385 0.10061597 0.87850037
v 0.50192586 0.10298796 0.88165499
v 0.50558908 0.10434951 0.88413456
v 0.50848183 0.10174886 0.88056350
v 0.50192586 0.10298796 0.88165499
v 0.49931015 0.10307359 0.88547231
v 0.50297336 0.10443515 0.88795189
v 0.50558908 0.10434951 0.88413456
v 0.49931015 0.10307359 0.88547231
v 0.49758671 0.10087289 0.88995233
v 0.50063469 0.10200577 0.89201547
v 0.50297336 0.10443515 0.88795189
v 0.50848183 0.10174886 0.88056350
v 0.50558908 0.10434951 0.88413456
v 0.50961729 0.10331758 0.88738917
v 0.51114219 0.10178913 0.88379923
v 0.50558908 0.10434951 0.88413456
v 0.50297336 0.10443515 0.88795189
v 0.50744089 0.10338883 0.89056537
v 0.50961729 0.10331758 0.88738917
v 0.50297336 0.10443515 0.88795189
v 0.50063469 0.10200577 0.89201547
v 0.50461297 0.10200290 0.89332784
v 0.50744089 0.10338883 0.89056537
v 0.49546904 0.09860424 0.88713846
v 0.49478342 0.09460291 0.88817212
v 0.49693635 0.09638236 0.89265347
v 0.49758671 0.10087289 0.88995233
v 0.49478342 0.09460291 0.88817212
v 0.49567963 0.09092303 0.88886878
v 0.49801345 0.09195968 0.89349075
v 0.49693635 0.09638236 0.89265347
v 0.49567963 0.09092303 0.88886878
v 0.49815765 0.08756458 0.88922842
v 0.50081801 0.08760486 0.89246415
v 0.49801345 0.09195968 0.89349075
v 0.49758671 0.10087289 0.88995233
v 0.49693635 0.09638236 0.89265347
v 0.50059957 0.09774391 0.89513304
v 0.50063469 0.10200577 0.89201547
v 0.49693635 0.09638236 0.89265347
v 0.49801345 0.09195968 0.89349075
v 0.50167666 0.09332124 0.89597032
v 0.50059957 0.09774391 0.89513304
v 0.49801345 0.09195968 0.89349075
v 0.50081801 0.08760486 0.89246415
v 0.50386599 0.08873774 0.89452728
v 0.50167666 0.09332124 0.89597032
v 0.50063469 0.10200577 0.89201547
v 0.50059957 0.09774391 0.89513304
v 0.50577307 0.09868760 0.89561084
v 0.50461297 0.10200290 0.89332784
v 0.50059957 0.09774391 0.89513304
v 0.50167666 0.09332124 0.89597032
v 0.50666927 0.09500770 0.89630749
v 0.50577307 0.09868760 0.89561084
v 0.50167666 0.09332124 0.89597032
v 0.50386599 0.08873774 0.89452728
v 0.50730158 0.09096323 0.89541780
v 0.50666927 0.09500770 0.89630749
v 0.49815765 0.08756458 0.88922842
v 0.49968255 0.08603613 0.88563848
v 0.50371077 0.08500420 0.88889309
v 0.50081801 0.08760486 0.89246415
v 0.49968255 0.08603613 0.88563848
v 0.50185896 0.08596487 0.88246228
v 0.50632649 0.08491856 0.88507578
v 0.50371077 0.08500420 0.88889309
v 0.50185896 0.08596487 0.88246228
v 0.50468687 0.08735080 0.87969981
v 0.50866516 0.08734794 0.88101218
v 0.50632649 0.08491856 0.88507578
v 0.50081801 0.08760486 0.89246415
v 0.50371077 0.08500420 0.88889309
v 0.50737399 0.08636576 0.89137266
v 0.50386599 0.08873774 0.89452728
v 0.50371077 0.08500420 0.88889309
v 0.50632649 0.08491856 0.88507578
v 0.50998970 0.08628012 0.88755534
v 0.50737399 0.08636576 0.89137266
v 0.50632649 0.08491856 0.88507578
v 0.50866516 0.08734794 0.88101218
v 0.51171315 0.08848082 0.88307532
v 0.50998970 0.08628012 0.88755534
v 0.50386599 0.08873774 0.89452728
v 0.50737399 0.08636576 0.89137266
v 0.51067219 0.09012080 0.89307720
v 0.50730158 0.09096323 0.89541780
v 0.50737399 0.08636576 0.89137266
v 0.50998970 0.08628012 0.88755534
v 0.51284860 0.09004955 0.88990099
v 0.51067219 0.09012080 0.89307720
v 0.50998970 0.08628012 0.88755534
v 0.51171315 0.08848082 0.88307532
v 0.51383081 0.09074947 0.88588919
v 0.51284860 0.09004955 0.88990099
v 0.49815765 0.08756458 0.88922842
v 0.49567963 0.09092303 0.88886878
v 0.49639736 0.08972693 0.88377583
v 0.49968255 0.08603613 0.88563848
v 0.49567963 0.09092303 0.88886878
v 0.49478342 0.09460291 0.88817212
v 0.49532026 0.09414961 0.88293855
v 0.49639736 0.08972693 0.88377583
v 0.49478342 0.09460291 0.88817212
v 0.49546904 0.09860424 0.88713846
v 0.49645124 0.09930416 0.88312666
v 0.49532026 0.09414961 0.88293855
v 0.49968255 0.08603613 0.88563848
v 0.49639736 0.08972693 0.88377583
v 0.49901308 0.08964128 0.87995851
v 0.50185896 0.08596487 0.88246228
v 0.49639736 0.08972693 0.88377583
v 0.49532026 0.09414961 0.88293855
v 0.49793598 0.09406397 0.87912123
v 0.49901308 0.08964128 0.87995851
v 0.49532026 0.09414961 0.88293855
v 0.49645124 0.09930416 0.88312666
v 0.49862766 0.09923291 0.87995046
v 0.49793598 0.09406397 0.87912123
v 0.50185896 0.08596487 0.88246228
v 0.49901308 0.08964128 0.87995851
v 0.50352678 0.09066611 0.87741681
v 0.50468687 0.08735080 0.87969981
v 0.49901308 0.08964128 0.87995851
v 0.49793598 0.09406397 0.87912123
v 0.50263058 0.09434600 0.87672016
v 0.50352678 0.09066611 0.87741681
v 0.49793598 0.09406397 0.87912123
v 0.49862766 0.09923291 0.87995046
v 0.50199826 0.09839048 0.87760985
v 0.50263058 0.09434600 0.87672016
v 0.51383081 0.09074947 0.88588919
v 0.51451642 0.09475079 0.88485553
v 0.51397958 0.09520410 0.89008910
v 0.51284860 0.09004955 0.88990099
v 0.51451642 0.09475079 0.88485553
v 0.51362022 0.09843068 0.88415887
v 0.51290248 0.09962678 0.88925183
v 0.51397958 0.09520410 0.89008910
v 0.51362022 0.09843068 0.88415887
v 0.51114219 0.10178913 0.88379923
v 0.50961729 0.10331758 0.88738917
v 0.51290248 0.09962678 0.88925183
v 0.51284860 0.09004955 0.88990099
v 0.51397958 0.09520410 0.89008910
v 0.51136386 0.09528974 0.89390642
v 0.51067219 0.09012080 0.89307720
v 0.51397958 0.09520410 0.89008910
v 0.51290248 0.09962678 0.88925183
v 0.51028676 0.09971242 0.89306915
v 0.51136386 0.09528974 0.89390642
v 0.51290248 0.09962678 0.88925183
v 0.50961729 0.10331758 0.88738917
v 0.50744089 0.10338883 0.89056537
v 0.51028676 0.09971242 0.89306915
v 0.51067219 0.09012080 0.89307720
v 0.51136386 0.09528974 0.89390642
v 0.50666927 0.09500770 0.89630749
v 0.50730158 0.09096323 0.89541780
v 0.51136386 0.09528974 0.89390642
v 0.51028676 0.09971242 0.89306915
v 0.50577307 0.09868760 0.89561084
v 0.50666927 0.09500770 0.89630749
v 0.51028676 0.09971242 0.89306915
v 0.50744089 0.10338883 0.89056537
v 0.50461297 0.10200290 0.89332784
v 0.50577307 0.09868760 0.89561084
v 0.51227122 0.08527116 0.86567826
v 0.51125458 0.08817651 0.86367757
v 0.51578835 0.08900349 0.86409629
v 0.51575757 0.08526865 0.86682836
v 0.51125458 0.08817651 0.86367757
v 0.51046921 0.09140136 0.86306707
v 0.51484444 0.09287928 0.86336255
v 0.51578835 0.08900349 0.86409629
v 0.51046921 0.09140136 0.86306707
v 0.50991508 0.09494570 0.86384674
v 0.51292584 0.09689601 0.86462714
v 0.51484444 0.09287928 0.86336255
v 0.51575757 0.08526865 0.86682836
v 0.51578835 0.08900349 0.86409629
v 0.51899858 0.09019669 0.86626924
v 0.51842865 0.08626144 0.86863637
v 0.51578835 0.08900349 0.86409629
v 0.51484444 0.09287928 0.86336255
v 0.51805467 0.09407247 0.86553551
v 0.51899858 0.09019669 0.86626924
v 0.51484444 0.09287928 0.86336255
v 0.51292584 0.09689601 0.86462714
v 0.51559692 0.09788880 0.86643515
v 0.51805467 0.09407247 0.86553551
v 0.51842865 0.08626144 0.86863637
v 0.51899858 0.09019669 0.86626924
v 0.52088528 0.09175609 0.87019644
v 0.52028445 0.08824955 0.87110229
v 0.51899858 0.09019669 0.86626924
v 0.51805467 0.09407247 0.86553551
v 0.52009991 0.09498094 0.86958593
v 0.52088528 0.09175609 0.87019644
v 0.51805467 0.09407247 0.86553551
v 0.51559692 0.09788880 0.86643515
v 0.51792831 0.09792408 0.86927077
v 0.52009991 0.09498094 0.86958593
v 0.50991508 0.09494570 0.86384674
v 0.50696127 0.09568396 0.86589792
v 0.50985164 0.09897467 0.86739168
v 0.51292584 0.09689601 0.86462714
v 0.50696127 0.09568396 0.86589792
v 0.50505400 0.09574640 0.86868136
v 0.50755937 0.09904971 0.87073696
v 0.50985164 0.09897467 0.86739168
v 0.50505400 0.09574640 0.86868136
v 0.50419325 0.09513303 0.87219708
v 0.50604905 0.09712114 0.87466300
v 0.50755937 0.09904971 0.87073696
v 0.51292584 0.09689601 0.86462714
v 0.50985164 0.09897467 0.86739168
v 0.51306187 0.10016786 0.86956463
v 0.51559692 0.09788880 0.86643515
v 0.50985164 0.09897467 0.86739168
v 0.50755937 0.09904971 0.87073696
v 0.51076960 0.10024291 0.87290991
v 0.51306187 0.10016786 0.86956463
v 0.50755937 0.09904971 0.87073696
v 0.50604905 0.09712114 0.87466300
v 0.50872013 0.09811393 0.87647101
v 0.51076960 0.10024291 0.87290991
v 0.51559692 0.09788880 0.86643515
v 0.51306187 0.10016786 0.86956463
v 0.51659197 0.09926354 0.87241679
v 0.51792831 0.09792408 0.86927077
v 0.51306187 0.10016786 0.86956463
v 0.51076960 0.10024291 0.87290991
v 0.51468469 0.09932598 0.87520023
v 0.51659197 0.09926354 0.87241679
v 0.51076960 0.10024291 0.87290991
v 0.50872013 0.09811393 0.87647101
v 0.51220647 0.09811142 0.87762110
v 0.51468469 0.09932598 0.87520023
v 0.50419325 0.09513303 0.87219708
v 0.50359241 0.09162650 0.87310293
v 0.50547912 0.09318590 0.87703012
v 0.50604905 0.09712114 0.87466300
v 0.50359241 0.09162650 0.87310293
v 0.50437780 0.08840166 0.87371343
v 0.50642302 0.08931011 0.87776385
v 0.50547912 0.09318590 0.87703012
v 0.50437780 0.08840166 0.87371343
v 0.50654939 0.08545850 0.87402859
v 0.50888078 0.08549379 0.87686421
v 0.50642302 0.08931011 0.87776385
v 0.50604905 0.09712114 0.87466300
v 0.50547912 0.09318590 0.87703012
v 0.50868935 0.09437909 0.87920308
v 0.50872013 0.09811393 0.87647101
v 0.50547912 0.09318590 0.87703012
v 0.50642302 0.08931011 0.87776385
v 0.50963326 0.09050331 0.87993681
v 0.50868935 0.09437909 0.87920308
v 0.50642302 0.08931011 0.87776385
v 0.50888078 0.08549379 0.87686421
v 0.51155186 0.08648658 0.87867222
v 0.50963326 0.09050331 0.87993681
v 0.50872013 0.09811393 0.87647101
v 0.50868935 0.09437909 0.87920308
v 0.51322311 0.09520608 0.87962179
v 0.51220647 0.09811142 0.87762110
v 0.50868935 0.09437909 0.87920308
v 0.50963326 0.09050331 0.87993681
v 0.51400849 0.09198123 0.88023230
v 0.51322311 0.09520608 0.87962179
v 0.50963326 0.09050331 0.87993681
v 0.51155186 0.08648658 0.87867222
v 0.51456261 0.08843688 0.87945262
v 0.51400849 0.09198123 0.88023230
v 0.50654939 0.08545850 0.87402859
v 0.50788572 0.08411905 0.87088258
v 0.51141582 0.08321473 0.87373474
v 0.50888078 0.08549379 0.87686421
v 0.50788572 0.08411905 0.87088258
v 0.50979300 0.08405661 0.86809913
v 0.51370810 0.08313968 0.87038945
v 0.51141582 0.08321473 0.87373474
v 0.50979300 0.08405661 0.86809913
v 0.51227122 0.08527116 0.86567826
v 0.51575757 0.08526865 0.86682836
v 0.51370810 0.08313968 0.87038945
v 0.50888078 0.08549379 0.87686421
v 0.51141582 0.08321473 0.87373474
v 0.51462606 0.08440792 0.87590769
v 0.51155186 0.08648658 0.87867222
v 0.51141582 0.08321473 0.87373474
v 0.51370810 0.08313968 0.87038945
v 0.51691833 0.08433287 0.87256241
v 0.51462606 0.08440792 0.87590769
v 0.51370810 0.08313968 0.87038945
v 0.51575757 0.08526865 0.86682836
v 0.51842865 0.08626144 0.86863637
v 0.51691833 0.08433287 0.87256241
v 0.51155186 0.08648658 0.87867222
v 0.51462606 0.08440792 0.87590769
v 0.51751642 0.08769863 0.87740145
v 0.51456261 0.08843688 0.87945262
v 0.51462606 0.08440792 0.87590769
v 0.51691833 0.08433287 0.87256241
v 0.51942370 0.08763619 0.87461800
v 0.51751642 0.08769863 0.87740145
v 0.51691833 0.08433287 0.87256241
v 0.51842865 0.08626144 0.86863637
v 0.52028445 0.08824955 0.87110229
v 0.51942370 0.08763619 0.87461800
v 0.50654939 0.08545850 0.87402859
v 0.50437780 0.08840166 0.87371343
v 0.50500677 0.08735346 0.86925025
v 0.50788572 0.08411905 0.87088258
v 0.50437780 0.08840166 0.87371343
v 0.50359241 0.09162650 0.87310293
v 0.50406286 0.09122924 0.86851652
v 0.50500677 0.08735346 0.86925025
v 0.50359241 0.09162650 0.87310293
v 0.50419325 0.09513303 0.87219708
v 0.50505400 0.09574640 0.86868136
v 0.50406286 0.09122924 0.86851652
v 0.50788572 0.08411905 0.87088258
v 0.50500677 0.08735346 0.86925025
v 0.50729903 0.08727841 0.86590497
v 0.50979300 0.08405661 0.86809913
v 0.50500677 0.08735346 0.86925025
v 0.50406286 0.09122924 0.86851652
v 0.50635512 0.09115419 0.86517124
v 0.50729903 0.08727841 0.86590497
v 0.50406286 0.09122924 0.86851652
v 0.50505400 0.09574640 0.86868136
v 0.50696127 0.09568396 0.86589792
v 0.50635512 0.09115419 0.86517124
v 0.50979300 0.08405661 0.86809913
v 0.50729903 0.08727841 0.86590497
v 0.51125458 0.08817651 0.86367757
v 0.51227122 0.08527116 0.86567826
v 0.50729903 0.08727841 0.86590497
v 0.50635512 0.09115419 0.86517124
v 0.51046921 0.09140136 0.86306707
v 0.51125458 0.08817651 0.86367757
v 0.50635512 0.09115419 0.86517124
v 0.50696127 0.09568396 0.86589792
v 0.50991508 0.09494570 0.86384674
v 0.51046921 0.09140136 0.86306707
v 0.52028445 0.08824955 0.87110229
v 0.52088528 0.09175609 0.87019644
v 0.52041483 0.09215335 0.87478284
v 0.51942370 0.08763619 0.87461800
v 0.52088528 0.09175609 0.87019644
v 0.52009991 0.09498094 0.86958593
v 0.51947093 0.09602913 0.87404911
v 0.52041483 0.09215335 0.87478284
v 0.52009991 0.09498094 0.86958593
v 0.51792831 0.09792408 0.86927077
v 0.51659197 0.09926354 0.87241679
v 0.51947093 0.09602913 0.87404911
v 0.51942370 0.08763619 0.87461800
v 0.52041483 0.09215335 0.87478284
v 0.51812257 0.09222839 0.87812812
v 0.51751642 0.08769863 0.87740145
v 0.52041483 0.09215335 0.87478284
v 0.51947093 0.09602913 0.87404911
v 0.51717866 0.09610417 0.87739439
v 0.51812257 0.09222839 0.87812812
v 0.51947093 0.09602913 0.87404911
v 0.51659197 0.09926354 0.87241679
v 0.51468469 0.09932598 0.87520023
v 0.51717866 0.09610417 0.87739439
v 0.51751642 0.08769863 0.87740145
v 0.51812257 0.09222839 0.87812812
v 0.51400849 0.09198123 0.88023230
v 0.51456261 0.08843688 0.87945262
v 0.51812257 0.09222839 0.87812812
v 0.51717866 0.09610417 0.87739439
v 0.51322311 0.09520608 0.87962179
v 0.51400849 0.09198123 0.88023230
v 0.51717866 0.09610417 0.87739439
v 0.51468469 0.09932598 0.87520023
v 0.51220647 0.09811142 0.87762110
v 0.51322311 0.09520608 0.87962179
v 0.51074162 0.08014725 0.87951721
v 0.50990264 0.08254487 0.87786615
v 0.51364412 0.08322735 0.87821170
v 0.51361871 0.08014517 0.88046633
v 0.50990264 0.08254487 0.87786615
v 0.50925451 0.08520616 0.87736234
v 0.51286516 0.08642582 0.87760617
v 0.51364412 0.08322735 0.87821170
v 0.50925451 0.08520616 0.87736234
v 0.50879723 0.08813113 0.87800576
v 0.51128183 0.08974059 0.87864978
v 0.51286516 0.08642582 0.87760617
v 0.51361871 0.08014517 0.88046633
v 0.51364412 0.08322735 0.87821170
v 0.51629335 0.08421201 0.88000492
v 0.51582301 0.08096446 0.88195838
v 0.51364412 0.08322735 0.87821170
v 0.51286516 0.08642582 0.87760617
v 0.51551438 0.08741049 0.87939940
v 0.51629335 0.08421201 0.88000492
v 0.51286516 0.08642582 0.87760617
v 0.51128183 0.08974059 0.87864978
v 0.51348613 0.09055990 0.88014183
v 0.51551438 0.08741049 0.87939940
v 0.51582301 0.08096446 0.88195838
v 0.51629335 0.08421201 0.88000492
v 0.51785034 0.08549890 0.88324582
v 0.51735450 0.08260515 0.88399337
v 0.51629335 0.08421201 0.88000492
v 0.51551438 0.08741049 0.87939940
v 0.51720220 0.08816019 0.88274200
v 0.51785034 0.08549890 0.88324582
v 0.51551438 0.08741049 0.87939940
v 0.51348613 0.09055990 0.88014183
v 0.51541011 0.09058902 0.88248190
v 0.51720220 0.08816019 0.88274200
v 0.50879723 0.08813113 0.87800576
v 0.50635960 0.08874037 0.87969848
v 0.50874486 0.09145602 0.88093120
v 0.51128183 0.08974059 0.87864978
v 0.50635960 0.08874037 0.87969848
v 0.50478563 0.08879190 0.88199551
v 0.50685318 0.09151794 0.88369187
v 0.50874486 0.09145602 0.88093120
v 0.50478563 0.08879190 0.88199551
v 0.50407531 0.08828572 0.88489684
v 0.50560680 0.08992640 0.88693182
v 0.50685318 0.09151794 0.88369187
v 0.51128183 0.08974059 0.87864978
v 0.50874486 0.09145602 0.88093120
v 0.51139410 0.09244068 0.88272442
v 0.51348613 0.09055990 0.88014183
v 0.50874486 0.09145602 0.88093120
v 0.50685318 0.09151794 0.88369187
v 0.50950242 0.09250262 0.88548510
v 0.51139410 0.09244068 0.88272442
v 0.50685318 0.09151794 0.88369187
v 0.50560680 0.08992640 0.88693182
v 0.50781109 0.09074570 0.88842387
v 0.50950242 0.09250262 0.88548510
v 0.51348613 0.09055990 0.88014183
v 0.51139410 0.09244068 0.88272442
v 0.51430730 0.09169440 0.88507815
v 0.51541011 0.09058902 0.88248190
v 0.51139410 0.09244068 0.88272442
v 0.50950242 0.09250262 0.88548510
v 0.51273333 0.09174593 0.88737517
v 0.51430730 0.09169440 0.88507815
v 0.50950242 0.09250262 0.88548510
v 0.50781109 0.09074570 0.88842387
v 0.51068818 0.09074362 0.88937299
v 0.51273333 0.09174593 0.88737517
v 0.50407531 0.08828572 0.88489684
v 0.50357947 0.08539196 0.88564439
v 0.50513646 0.08667885 0.88888529
v 0.50560680 0.08992640 0.88693182
v 0.50357947 0.08539196 0.88564439
v 0.50422760 0.08273067 0.88614820
v 0.50591542 0.08348038 0.88949080
v 0.50513646 0.08667885 0.88888529
v 0.50422760 0.08273067 0.88614820
v 0.50601970 0.08030184 0.88640829
v 0.50794367 0.08033097 0.88874837
v 0.50591542 0.08348038 0.88949080
v 0.50560680 0.08992640 0.88693182
v 0.50513646 0.08667885 0.88888529
v 0.50778569 0.08766353 0.89067851
v 0.50781109 0.09074570 0.88842387
v 0.50513646 0.08667885 0.88888529
v 0.50591542 0.08348038 0.88949080
v 0.50856465 0.08446505 0.89128402
v 0.50778569 0.08766353 0.89067851
v 0.50591542 0.08348038 0.88949080
v 0.50794367 0.08033097 0.88874837
v 0.51014797 0.08115028 0.89024042
v 0.50856465 0.08446505 0.89128402
v 0.50781109 0.09074570 0.88842387
v 0.50778569 0.08766353 0.89067851
v 0.51152716 0.08834600 0.89102404
v 0.51068818 0.09074362 0.88937299
v 0.50778569 0.08766353 0.89067851
v 0.50856465 0.08446505 0.89128402
v 0.51217530 0.08568471 0.89152787
v 0.51152716 0.08834600 0.89102404
v 0.50856465 0.08446505 0.89128402
v 0.51014797 0.08115028 0.89024042
v 0.51263257 0.08275974 0.89088444
v 0.51217530 0.08568471 0.89152787
v 0.50601970 0.08030184 0.88640829
v 0.50712251 0.07919647 0.88381205
v 0.51003571 0.07845018 0.88616579
v 0.50794367 0.08033097 0.88874837
v 0.50712251 0.07919647 0.88381205
v 0.50869648 0.07914495 0.88151503
v 0.51192739 0.07838825 0.88340510
v 0.51003571 0.07845018 0.88616579
v 0.50869648 0.07914495 0.88151503
v 0.51074162 0.08014725 0.87951721
v 0.51361871 0.08014517 0.88046633
v 0.51192739 0.07838825 0.88340510
v 0.50794367 0.08033097 0.88874837
v 0.51003571 0.07845018 0.88616579
v 0.51268495 0.07943486 0.88795900
v 0.51014797 0.08115028 0.89024042
v 0.51003571 0.07845018 0.88616579
v 0.51192739 0.07838825 0.88340510
v 0.51457662 0.07937292 0.88519832
v 0.51268495 0.07943486 0.88795900
v 0.51192739 0.07838825 0.88340510
v 0.51361871 0.08014517 0.88046633
v 0.51582301 0.08096446 0.88195838
v 0.51457662 0.07937292 0.88519832
v 0.51014797 0.08115028 0.89024042
v 0.51268495 0.07943486 0.88795900
v 0.51507020 0.08215050 0.88919172
v 0.51263257 0.08275974 0.89088444
v 0.51268495 0.07943486 0.88795900
v 0.51457662 0.07937292 0.88519832
v 0.51664417 0.08209897 0.88689469
v 0.51507020 0.08215050 0.88919172
v 0.51457662 0.07937292 0.88519832
v 0.51582301 0.08096446 0.88195838
v 0.51735450 0.08260515 0.88399337
v 0.51664417 0.08209897 0.88689469
v 0.50601970 0.08030184 0.88640829
v 0.50422760 0.08273067 0.88614820
v 0.50474667 0.08186565 0.88246498
v 0.50712251 0.07919647 0.88381205
v 0.50422760 0.08273067 0.88614820
v 0.50357947 0.08539196 0.88564439
v 0.50396770 0.08506413 0.88185946
v 0.50474667 0.08186565 0.88246498
v 0.50357947 0.08539196 0.88564439
v 0.50407531 0.08828572 0.88489684
v 0.50478563 0.08879190 0.88199551
v 0.50396770 0.08506413 0.88185946
v 0.50712251 0.07919647 0.88381205
v 0.50474667 0.08186565 0.88246498
v 0.50663834 0.08180372 0.87970430
v 0.50869648 0.07914495 0.88151503
v 0.50474667 0.08186565 0.88246498
v 0.50396770 0.08506413 0.88185946
v 0.50585939 0.08500219 0.87909879
v 0.50663834 0.08180372 0.87970430
v 0.50396770 0.08506413 0.88185946
v 0.50478563 0.08879190 0.88199551
v 0.50635960 0.08874037 0.87969848
v 0.50585939 0.08500219 0.87909879
v 0.50869648 0.07914495 0.88151503
v 0.50663834 0.08180372 0.87970430
v 0.50990264 0.08254487 0.87786615
v 0.51074162 0.08014725 0.87951721
v 0.50663834 0.08180372 0.87970430
v 0.50585939 0.08500219 0.87909879
v 0.50925451 0.08520616 0.87736234
v 0.50990264 0.08254487 0.87786615
v 0.50585939 0.08500219 0.87909879
v 0.50635960 0.08874037 0.87969848
v 0.50879723 0.08813113 0.87800576
v 0.50925451 0.08520616 0.87736234
v 0.51735450 0.08260515 0.88399337
v 0.51785034 0.08549890 0.88324582
v 0.51746210 0.08582673 0.88703073
v 0.51664417 0.08209897 0.88689469
v 0.51785034 0.08549890 0.88324582
v 0.51720220 0.08816019 0.88274200
v 0.51668314 0.08902521 0.88642521
v 0.51746210 0.08582673 0.88703073
v 0.51720220 0.08816019 0.88274200
v 0.51541011 0.09058902 0.88248190
v 0.51430730 0.09169440 0.88507815
v 0.51668314 0.08902521 0.88642521
v 0.51664417 0.08209897 0.88689469
v 0.51746210 0.08582673 0.88703073
v 0.51557042 0.08588867 0.88979142
v 0.51507020 0.08215050 0.88919172
v 0.51746210 0.08582673 0.88703073
v 0.51668314 0.08902521 0.88642521
v 0.51479146 0.08908715 0.88918590
v 0.51557042 0.08588867 0.88979142
v 0.51668314 0.08902521 0.88642521
v 0.51430730 0.09169440 0.88507815
v 0.51273333 0.09174593 0.88737517
v 0.51479146 0.08908715 0.88918590
v 0.51507020 0.08215050 0.88919172
v 0.51557042 0.08588867 0.88979142
v 0.51217530 0.08568471 0.89152787
v 0.51263257 0.08275974 0.89088444
v 0.51557042 0.08588867 0.88979142
v 0.51479146 0.08908715 0.88918590
v 0.51152716 0.08834600 0.89102404
v 0.51217530 0.08568471 0.89152787
v 0.51479146 0.08908715 0.88918590
v 0.51273333 0.09174593 0.88737517
v 0.51068818 0.09074362 0.88937299
v 0.51152716 0.08834600 0.89102404
v 0.50727116 0.09619082 0.87200326
v 0.50647879 0.09845525 0.87044393
v 0.51001241 0.09909980 0.87077027
v 0.50998842 0.09618886 0.87289965
v 0.50647879 0.09845525 0.87044393
v 0.50586667 0.10096870 0.86996810
v 0.50927672 0.10212059 0.87019839
v 0.51001241 0.09909980 0.87077027
v 0.50586667 0.10096870 0.86996810
v 0.50543478 0.10373117 0.87057577
v 0.50778137 0.10525123 0.87118401
v 0.50927672 0.10212059 0.87019839
v 0.50998842 0.09618886 0.87289965
v 0.51001241 0.09909980 0.87077027
v 0.51251448 0.10002978 0.87246387
v 0.51207027 0.09696265 0.87430881
v 0.51001241 0.09909980 0.87077027
v 0.50927672 0.10212059 0.87019839
v 0.51177879 0.10305057 0.87189200
v 0.51251448 0.10002978 0.87246387
v 0.50927672 0.10212059 0.87019839
v 0.50778137 0.10525123 0.87118401
v 0.50986322 0.10602501 0.87259318
v 0.51177879 0.10305057 0.87189200
v 0.51207027 0.09696265 0.87430881
v 0.51251448 0.10002978 0.87246387
v 0.51398497 0.10124517 0.87552474
v 0.51351668 0.09851217 0.87623075
v 0.51251448 0.10002978 0.87246387
v 0.51177879 0.10305057 0.87189200
v 0.51337284 0.10375862 0.87504891
v 0.51398497 0.10124517 0.87552474
v 0.51177879 0.10305057 0.87189200
v 0.50986322 0.10602501 0.87259318
v 0.51168030 0.10605252 0.87480327
v 0.51337284 0.10375862 0.87504891
v 0.50543478 0.10373117 0.87057577
v 0.50313258 0.10430657 0.87217446
v 0.50538533 0.10687135 0.87333870
v 0.50778137 0.10525123 0.87118401
v 0.50313258 0.10430657 0.87217446
v 0.50164605 0.10435524 0.87434389
v 0.50359873 0.10692984 0.87594601
v 0.50538533 0.10687135 0.87333870
v 0.50164605 0.10435524 0.87434389
v 0.50097518 0.10387717 0.87708403
v 0.50242160 0.10542671 0.87900597
v 0.50359873 0.10692984 0.87594601
v 0.50778137 0.10525123 0.87118401
v 0.50538533 0.10687135 0.87333870
v 0.50788739 0.10780131 0.87503231
v 0.50986322 0.10602501 0.87259318
v 0.50538533 0.10687135 0.87333870
v 0.50359873 0.10692984 0.87594601
v 0.50610080 0.10785981 0.87763962
v 0.50788739 0.10780131 0.87503231
v 0.50359873 0.10692984 0.87594601
v 0.50242160 0.10542671 0.87900597
v 0.50450344 0.10620049 0.88041514
v 0.50610080 0.10785981 0.87763962
v 0.50986322 0.10602501 0.87259318
v 0.50788739 0.10780131 0.87503231
v 0.51063876 0.10709648 0.87725528
v 0.51168030 0.10605252 0.87480327
v 0.50788739 0.10780131 0.87503231
v 0.50610080 0.10785981 0.87763962
v 0.50915222 0.10714515 0.87942470
v 0.51063876 0.10709648 0.87725528
v 0.50610080 0.10785981 0.87763962
v 0.50450344 0.10620049 0.88041514
v 0.50722068 0.10619853 0.88131152
v 0.50915222 0.10714515 0.87942470
v 0.50097518 0.10387717 0.87708403
v 0.50050689 0.10114418 0.87779005
v 0.50197739 0.10235957 0.88085091
v 0.50242160 0.10542671 0.87900597
v 0.50050689 0.10114418 0.87779005
v 0.50111902 0.09863072 0.87826588
v 0.50271307 0.09933879 0.88142279
v 0.50197739 0.10235957 0.88085091
v 0.50111902 0.09863072 0.87826588
v 0.50281156 0.09633683 0.87851153
v 0.50462864 0.09636434 0.88072161
v 0.50271307 0.09933879 0.88142279
v 0.50242160 0.10542671 0.87900597
v 0.50197739 0.10235957 0.88085091
v 0.50447945 0.10328955 0.88254451
v 0.50450344 0.10620049 0.88041514
v 0.50197739 0.10235957 0.88085091
v 0.50271307 0.09933879 0.88142279
v 0.50521514 0.10026876 0.88311640
v 0.50447945 0.10328955 0.88254451
v 0.50271307 0.09933879 0.88142279
v 0.50462864 0.09636434 0.88072161
v 0.50671049 0.09713813 0.88213076
v 0.50521514 0.10026876 0.88311640
v 0.50450344 0.10620049 0.88041514
v 0.50447945 0.10328955 0.88254451
v 0.50801306 0.10393410 0.88287086
v 0.50722068 0.10619853 0.88131152
v 0.50447945 0.10328955 0.88254451
v 0.50521514 0.10026876 0.88311640
v 0.50862519 0.10142064 0.88334669
v 0.50801306 0.10393410 0.88287086
v 0.50521514 0.10026876 0.88311640
v 0.50671049 0.09713813 0.88213076
v 0.50905707 0.09865818 0.88273901
v 0.50862519 0.10142064 0.88334669
v 0.50281156 0.09633683 0.87851153
v 0.50385310 0.09529286 0.87605951
v 0.50660447 0.09458804 0.87828248
v 0.50462864 0.09636434 0.88072161
v 0.50385310 0.09529286 0.87605951
v 0.50533964 0.09524419 0.87389009
v 0.50839106 0.09452954 0.87567517
v 0.50660447 0.09458804 0.87828248
v 0.50533964 0.09524419 0.87389009
v 0.50727116 0.09619082 0.87200326
v 0.50998842 0.09618886 0.87289965
v 0.50839106 0.09452954 0.87567517
v 0.50462864 0.09636434 0.88072161
v 0.50660447 0.09458804 0.87828248
v 0.50910653 0.09551801 0.87997609
v 0.50671049 0.09713813 0.88213076
v 0.50660447 0.09458804 0.87828248
v 0.50839106 0.09452954 0.87567517
v 0.51089312 0.09545952 0.87736877
v 0.50910653 0.09551801 0.87997609
v 0.50839106 0.09452954 0.87567517
v 0.50998842 0.09618886 0.87289965
v 0.51207027 0.09696265 0.87430881
v 0.51089312 0.09545952 0.87736877
v 0.50671049 0.09713813 0.88213076
v 0.50910653 0.09551801 0.87997609
v 0.51135927 0.09808279 0.88114033
v 0.50905707 0.09865818 0.88273901
v 0.50910653 0.09551801 0.87997609
v 0.51089312 0.09545952 0.87736877
v 0.51284581 0.09803411 0.87897090
v 0.51135927 0.09808279 0.88114033
v 0.51089312 0.09545952 0.87736877
v 0.51207027 0.09696265 0.87430881
v 0.51351668 0.09851217 0.87623075
v 0.51284581 0.09803411 0.87897090
v 0.50281156 0.09633683 0.87851153
v 0.50111902 0.09863072 0.87826588
v 0.50160925 0.09781376 0.87478728
v 0.50385310 0.09529286 0.87605951
v 0.50111902 0.09863072 0.87826588
v 0.50050689 0.10114418 0.87779005
v 0.50087356 0.10083456 0.87421540
v 0.50160925 0.09781376 0.87478728
v 0.50050689 0.10114418 0.87779005
v 0.50097518 0.10387717 0.87708403
v 0.50164605 0.10435524 0.87434389
v 0.50087356 0.10083456 0.87421540
v 0.50385310 0.09529286 0.87605951
v 0.50160925 0.09781376 0.87478728
v 0.50339583 0.09775527 0.87217996
v 0.50533964 0.09524419 0.87389009
v 0.50160925 0.09781376 0.87478728
v 0.50087356 0.10083456 0.87421540
v 0.50266016 0.10077606 0.87160808
v 0.50339583 0.09775527 0.87217996
v 0.50087356 0.10083456 0.87421540
v 0.50164605 0.10435524 0.87434389
v 0.50313258 0.10430657 0.87217446
v 0.50266016 0.10077606 0.87160808
v 0.50533964 0.09524419 0.87389009
v 0.50339583 0.09775527 0.87217996
v 0.50647879 0.09845525 0.87044393
v 0.50727116 0.09619082 0.87200326
v 0.50339583 0.09775527 0.87217996
v 0.50266016 0.10077606 0.87160808
v 0.50586667 0.10096870 0.86996810
v 0.50647879 0.09845525 0.87044393
v 0.50266016 0.10077606 0.87160808
v 0.50313258 0.10430657 0.87217446
v 0.50543478 0.10373117 0.87057577
v 0.50586667 0.10096870 0.86996810
v 0.51351668 0.09851217 0.87623075
v 0.51398497 0.10124517 0.87552474
v 0.51361830 0.10155480 0.87909939
v 0.51284581 0.09803411 0.87897090
v 0.51398497 0.10124517 0.87552474
v 0.51337284 0.10375862 0.87504891
v 0.51288262 0.10457559 0.87852751
v 0.51361830 0.10155480 0.87909939
v 0.51337284 0.10375862 0.87504891
v 0.51168030 0.10605252 0.87480327
v 0.51063876 0.10709648 0.87725528
v 0.51288262 0.10457559 0.87852751
v 0.51284581 0.09803411 0.87897090
v 0.51361830 0.10155480 0.87909939
v 0.51183171 0.10161329 0.88170670
v 0.51135927 0.09808279 0.88114033
v 0.51361830 0.10155480 0.87909939
v 0.51288262 0.10457559 0.87852751
v 0.51109603 0.10463408 0.88113483
v 0.51183171 0.10161329 0.88170670
v 0.51288262 0.10457559 0.87852751
v 0.51063876 0.10709648 0.87725528
v 0.50915222 0.10714515 0.87942470
v 0.51109603 0.10463408 0.88113483
v 0.51135927 0.09808279 0.88114033
v 0.51183171 0.10161329 0.88170670
v 0.50862519 0.10142064 0.88334669
v 0.50905707 0.09865818 0.88273901
v 0.51183171 0.10161329 0.88170670
v 0.51109603 0.10463408 0.88113483
v 0.50801306 0.10393410 0.88287086
v 0.50862519 0.10142064 0.88334669
v 0.51109603 0.10463408 0.88113483
v 0.50915222 0.10714515 0.87942470
v 0.50722068 0.10619853 0.88131152
v 0.50801306 0.10393410 0.88287086
v 0.49611585 0.09736808 0.87850877
v 0.49569413 0.09857327 0.87767884
v 0.49757483 0.09891633 0.87785253
v 0.49756206 0.09736704 0.87898585
v 0.49569413 0.09857327 0.87767884
v 0.49536834 0.09991100 0.87742559
v 0.49718327 0.10052407 0.87754816
v 0.49757483 0.09891633 0.87785253
v 0.49536834 0.09991100 0.87742559
v 0.49513847 0.10138127 0.87774901
v 0.49638739 0.10219028 0.87807274
v 0.49718327 0.10052407 0.87754816
v 0.49756206 0.09736704 0.87898585
v 0.49757483 0.09891633 0.87785253
v 0.49890649 0.09941128 0.87875391
v 0.49867007 0.09777886 0.87973584
v 0.49757483 0.09891633 0.87785253
v 0.49718327 0.10052407 0.87754816
v 0.49851494 0.10101903 0.87844954
v 0.49890649 0.09941128 0.87875391
v 0.49718327 0.10052407 0.87754816
v 0.49638739 0.10219028 0.87807274
v 0.49749541 0.10260212 0.87882273
v 0.49851494 0.10101903 0.87844954
v 0.49867007 0.09777886 0.87973584
v 0.49890649 0.09941128 0.87875391
v 0.49968913 0.10005815 0.88038299
v 0.49943989 0.09860357 0.88075876
v 0.49890649 0.09941128 0.87875391
v 0.49851494 0.10101903 0.87844954
v 0.49936333 0.10139587 0.88012974
v 0.49968913 0.10005815 0.88038299
v 0.49851494 0.10101903 0.87844954
v 0.49749541 0.10260212 0.87882273
v 0.49846252 0.10261676 0.87999900
v 0.49936333 0.10139587 0.88012974
v 0.49513847 0.10138127 0.87774901
v 0.49391318 0.10168751 0.87859988
v 0.49511216 0.10305256 0.87921952
v 0.49638739 0.10219028 0.87807274
v 0.49391318 0.10168751 0.87859988
v 0.49312200 0.10171341 0.87975451
v 0.49416128 0.10308369 0.88060721
v 0.49511216 0.10305256 0.87921952
v 0.49312200 0.10171341 0.87975451
v 0.49276495 0.10145898 0.88121290
v 0.49353477 0.10228367 0.88223580
v 0.49416128 0.10308369 0.88060721
v 0.49638739 0.10219028 0.87807274
v 0.49511216 0.10305256 0.87921952
v 0.49644382 0.10354752 0.88012090
v 0.49749541 0.10260212 0.87882273
v 0.49511216 0.10305256 0.87921952
v 0.49416128 0.10308369 0.88060721
v 0.49549295 0.10357865 0.88150859
v 0.49644382 0.10354752 0.88012090
v 0.49416128 0.10308369 0.88060721
v 0.49353477 0.10228367 0.88223580
v 0.49464279 0.10269551 0.88298580
v 0.49549295 0.10357865 0.88150859
v 0.49749541 0.10260212 0.87882273
v 0.49644382 0.10354752 0.88012090
v 0.49790818 0.10317239 0.88130403
v 0.49846252 0.10261676 0.87999900
v 0.49644382 0.10354752 0.88012090
v 0.49549295 0.10357865 0.88150859
v 0.49711700 0.10319829 0.88245866
v 0.49790818 0.10317239 0.88130403
v 0.49549295 0.10357865 0.88150859
v 0.49464279 0.10269551 0.88298580
v 0.49608898 0.10269447 0.88346288
v 0.49711700 0.10319829 0.88245866
v 0.49276495 0.10145898 0.88121290
v 0.49251571 0.10000439 0.88158865
v 0.49329835 0.10065126 0.88321773
v 0.49353477 0.10228367 0.88223580
v 0.49251571 0.10000439 0.88158865
v 0.49284150 0.09866667 0.88184190
v 0.49368990 0.09904352 0.88352210
v 0.49329835 0.10065126 0.88321773
v 0.49284150 0.09866667 0.88184190
v 0.49374233 0.09744579 0.88197264
v 0.49470943 0.09746044 0.88314891
v 0.49368990 0.09904352 0.88352210
v 0.49353477 0.10228367 0.88223580
v 0.49329835 0.10065126 0.88321773
v 0.49463002 0.10114622 0.88411912
v 0.49464279 0.10269551 0.88298580
v 0.49329835 0.10065126 0.88321773
v 0.49368990 0.09904352 0.88352210
v 0.49502157 0.09953848 0.88442348
v 0.49463002 0.10114622 0.88411912
v 0.49368990 0.09904352 0.88352210
v 0.49470943 0.09746044 0.88314891
v 0.49581744 0.09787226 0.88389890
v 0.49502157 0.09953848 0.88442348
v 0.49464279 0.10269551 0.88298580
v 0.49463002 0.10114622 0.88411912
v 0.49651071 0.10148928 0.88429281
v 0.49608898 0.10269447 0.88346288
v 0.49463002 0.10114622 0.88411912
v 0.49502157 0.09953848 0.88442348
v 0.49683650 0.10015155 0.88454606
v 0.49651071 0.10148928 0.88429281
v 0.49502157 0.09953848 0.88442348
v 0.49581744 0.09787226 0.88389890
v 0.49706636 0.09868128 0.88422263
v 0.49683650 0.10015155 0.88454606
v 0.49374233 0.09744579 0.88197264
v 0.49429666 0.09689016 0.88066761
v 0.49576102 0.09651503 0.88185075
v 0.49470943 0.09746044 0.88314891
v 0.49429666 0.09689016 0.88066761
v 0.49508784 0.09686425 0.87951298
v 0.49671189 0.09648390 0.88046305
v 0.49576102 0.09651503 0.88185075
v 0.49508784 0.09686425 0.87951298
v 0.49611585 0.09736808 0.87850877
v 0.49756206 0.09736704 0.87898585
v 0.49671189 0.09648390 0.88046305
v 0.49470943 0.09746044 0.88314891
v 0.49576102 0.09651503 0.88185075
v 0.49709268 0.09700999 0.88275213
v 0.49581744 0.09787226 0.88389890
v 0.49576102 0.09651503 0.88185075
v 0.49671189 0.09648390 0.88046305
v 0.49804356 0.09697886 0.88136443
v 0.49709268 0.09700999 0.88275213
v 0.49671189 0.09648390 0.88046305
v 0.49756206 0.09736704 0.87898585
v 0.49867007 0.09777886 0.87973584
v 0.49804356 0.09697886 0.88136443
v 0.49581744 0.09787226 0.88389890
v 0.49709268 0.09700999 0.88275213
v 0.49829166 0.09837504 0.88337176
v 0.49706636 0.09868128 0.88422263
v 0.49709268 0.09700999 0.88275213
v 0.49804356 0.09697886 0.88136443
v 0.49908284 0.09834914 0.88221714
v 0.49829166 0.09837504 0.88337176
v 0.49804356 0.09697886 0.88136443
v 0.49867007 0.09777886 0.87973584
v 0.49943989 0.09860357 0.88075876
v 0.49908284 0.09834914 0.88221714
v 0.49374233 0.09744579 0.88197264
v 0.49284150 0.09866667 0.88184190
v 0.49310241 0.09823185 0.87999049
v 0.49429666 0.09689016 0.88066761
v 0.49284150 0.09866667 0.88184190
v 0.49251571 0.10000439 0.88158865
v 0.49271087 0.09983960 0.87968613
v 0.49310241 0.09823185 0.87999049
v 0.49251571 0.10000439 0.88158865
v 0.49276495 0.10145898 0.88121290
v 0.49312200 0.10171341 0.87975451
v 0.49271087 0.09983960 0.87968613
v 0.49429666 0.09689016 0.88066761
v 0.49310241 0.09823185 0.87999049
v 0.49405330 0.09820072 0.87860280
v 0.49508784 0.09686425 0.87951298
v 0.49310241 0.09823185 0.87999049
v 0.49271087 0.09983960 0.87968613
v 0.49366174 0.09980848 0.87829843
v 0.49405330 0.09820072 0.87860280
v 0.49271087 0.09983960 0.87968613
v 0.49312200 0.10171341 0.87975451
v 0.49391318 0.10168751 0.87859988
v 0.49366174 0.09980848 0.87829843
v 0.49508784 0.09686425 0.87951298
v 0.49405330 0.09820072 0.87860280
v 0.49569413 0.09857327 0.87767884
v 0.49611585 0.09736808 0.87850877
v 0.49405330 0.09820072 0.87860280
v 0.49366174 0.09980848 0.87829843
v 0.49536834 0.09991100 0.87742559
v 0.49569413 0.09857327 0.87767884
v 0.49366174 0.09980848 0.87829843
v 0.49391318 0.10168751 0.87859988
v 0.49513847 0.10138127 0.87774901
v 0.49536834 0.09991100 0.87742559
v 0.49943989 0.09860357 0.88075876
v 0.49968913 0.10005815 0.88038299
v 0.49949398 0.10022294 0.88228552
v 0.49908284 0.09834914 0.88221714
v 0.49968913 0.10005815 0.88038299
v 0.49936333 0.10139587 0.88012974
v 0.49910242 0.10183069 0.88198115
v 0.49949398 0.10022294 0.88228552
v 0.49936333 0.10139587 0.88012974
v 0.49846252 0.10261676 0.87999900
v 0.49790818 0.10317239 0.88130403
v 0.49910242 0.10183069 0.88198115
v 0.49908284 0.09834914 0.88221714
v 0.49949398 0.10022294 0.88228552
v 0.49854311 0.10025407 0.88367320
v 0.49829166 0.09837504 0.88337176
v 0.49949398 0.10022294 0.88228552
v 0.49910242 0.10183069 0.88198115
v 0.49815155 0.10186182 0.88336883
v 0.49854311 0.10025407 0.88367320
v 0.49910242 0.10183069 0.88198115
v 0.49790818 0.10317239 0.88130403
v 0.49711700 0.10319829 0.88245866
v 0.49815155 0.10186182 0.88336883
v 0.49829166 0.09837504 0.88337176
v 0.49854311 0.10025407 0.88367320
v 0.49683650 0.10015155 0.88454606
v 0.49706636 0.09868128 0.88422263
v 0.49854311 0.10025407 0.88367320
v 0.49815155 0.10186182 0.88336883
v 0.49651071 0.10148928 0.88429281
v 0.49683650 0.10015155 0.88454606
v 0.49815155 0.10186182 0.88336883
v 0.49711700 0.10319829 0.88245866
v 0.49608898 0.10269447 0.88346288
v 0.49651071 0.10148928 0.88429281
v 0.51344102 0.08901105 0.87533250
v 0.51234920 0.09213130 0.87318384
v 0.51721829 0.09301944 0.87363352
v 0.51718524 0.08900834 0.87656767
v 0.51234920 0.09213130 0.87318384
v 0.51150572 0.09559466 0.87252817
v 0.51620458 0.09718190 0.87284552
v 0.51721829 0.09301944 0.87363352
v 0.51150572 0.09559466 0.87252817
v 0.51091061 0.09940116 0.87336552
v 0.51414405 0.10149571 0.87420363
v 0.51620458 0.09718190 0.87284552
v 0.51718524 0.08900834 0.87656767
v 0.51721829 0.09301944 0.87363352
v 0.52066597 0.09430089 0.87596720
v 0.52005388 0.09007457 0.87850940
v 0.51721829 0.09301944 0.87363352
v 0.51620458 0.09718190 0.87284552
v 0.51965224 0.09846334 0.87517919
v 0.52066597 0.09430089 0.87596720
v 0.51620458 0.09718190 0.87284552
v 0.51414405 0.10149571 0.87420363
v 0.51701270 0.10256194 0.87614538
v 0.51965224 0.09846334 0.87517919
v 0.52005388 0.09007457 0.87850940
v 0.52066597 0.09430089 0.87596720
v 0.52269222 0.09597562 0.88018487
v 0.52204695 0.09220973 0.88115772
v 0.52066597 0.09430089 0.87596720
v 0.51965224 0.09846334 0.87517919
v 0.52184875 0.09943900 0.87952921
v 0.52269222 0.09597562 0.88018487
v 0.51965224 0.09846334 0.87517919
v 0.51701270 0.10256194 0.87614538
v 0.51951653 0.10259984 0.87919072
v 0.52184875 0.09943900 0.87952921
v 0.51091061 0.09940116 0.87336552
v 0.50773832 0.10019402 0.87556840
v 0.51084247 0.10372812 0.87717265
v 0.51414405 0.10149571 0.87420363
v 0.50773832 0.10019402 0.87556840
v 0.50568998 0.10026109 0.87855774
v 0.50838065 0.10380873 0.88076537
v 0.51084247 0.10372812 0.87717265
v 0.50568998 0.10026109 0.87855774
v 0.50476557 0.09960236 0.88233349
v 0.50675862 0.10173751 0.88498179
v 0.50838065 0.10380873 0.88076537
v 0.51414405 0.10149571 0.87420363
v 0.51084247 0.10372812 0.87717265
v 0.51429014 0.10500957 0.87950633
v 0.51701270 0.10256194 0.87614538
v 0.51084247 0.10372812 0.87717265
v 0.50838065 0.10380873 0.88076537
v 0.51182833 0.10509017 0.88309905
v 0.51429014 0.10500957 0.87950633
v 0.50838065 0.10380873 0.88076537
v 0.50675862 0.10173751 0.88498179
v 0.50962726 0.10280374 0.88692354
v 0.51182833 0.10509017 0.88309905
v 0.51701270 0.10256194 0.87614538
v 0.51429014 0.10500957 0.87950633
v 0.51808136 0.10403837 0.88256944
v 0.51951653 0.10259984 0.87919072
v 0.51429014 0.10500957 0.87950633
v 0.51182833 0.10509017 0.88309905
v 0.51603301 0.10410543 0.88555876
v 0.51808136 0.10403837 0.88256944
v 0.51182833 0.10509017 0.88309905
v 0.50962726 0.10280374 0.88692354
v 0.51337148 0.10280103 0.88815870
v 0.51603301 0.10410543 0.88555876
v 0.50476557 0.09960236 0.88233349
v 0.50412029 0.09583647 0.88330633
v 0.50614653 0.09751119 0.88752401
v 0.50675862 0.10173751 0.88498179
v 0.50412029 0.09583647 0.88330633
v 0.50496376 0.09237309 0.88396199
v 0.50716026 0.09334874 0.88831202
v 0.50614653 0.09751119 0.88752401
v 0.50496376 0.09237309 0.88396199
v 0.50729599 0.08921224 0.88430048
v 0.50979980 0.08925015 0.88734583
v 0.50716026 0.09334874 0.88831202
v 0.50675862 0.10173751 0.88498179
v 0.50614653 0.09751119 0.88752401
v 0.50959422 0.09879265 0.88985769
v 0.50962726 0.10280374 0.88692354
v 0.50614653 0.09751119 0.88752401
v 0.50716026 0.09334874 0.88831202
v 0.51060794 0.09463018 0.89064570
v 0.50959422 0.09879265 0.88985769
v 0.50716026 0.09334874 0.88831202
v 0.50979980 0.08925015 0.88734583
v 0.51266845 0.09031637 0.88928756
v 0.51060794 0.09463018 0.89064570
v 0.50962726 0.10280374 0.88692354
v 0.50959422 0.09879265 0.88985769
v 0.51446332 0.09968080 0.89030737
v 0.51337148 0.10280103 0.88815870
v 0.50959422 0.09879265 0.88985769
v 0.51060794 0.09463018 0.89064570
v 0.51530678 0.09621742 0.89096303
v 0.51446332 0.09968080 0.89030737
v 0.51060794 0.09463018 0.89064570
v 0.51266845 0.09031637 0.88928756
v 0.51590190 0.09241092 0.89012568
v 0.51530678 0.09621742 0.89096303
v 0.50729599 0.08921224 0.88430048
v 0.50873116 0.08777372 0.88092176
v 0.51252237 0.08680252 0.88398487
v 0.50979980 0.08925015 0.88734583
v 0.50873116 0.08777372 0.88092176
v 0.51077951 0.08770665 0.87793244
v 0.51498418 0.08672191 0.88039216
v 0.51252237 0.08680252 0.88398487
v 0.51077951 0.08770665 0.87793244
v 0.51344102 0.08901105 0.87533250
v 0.51718524 0.08900834 0.87656767
v 0.51498418 0.08672191 0.88039216
v 0.50979980 0.08925015 0.88734583
v 0.51252237 0.08680252 0.88398487
v 0.51597004 0.08808396 0.88631855
v 0.51266845 0.09031637 0.88928756
v 0.51252237 0.08680252 0.88398487
v 0.51498418 0.08672191 0.88039216
v 0.51843185 0.08800335 0.88272584
v 0.51597004 0.08808396 0.88631855
v 0.51498418 0.08672191 0.88039216
v 0.51718524 0.08900834 0.87656767
v 0.52005388 0.09007457 0.87850940
v 0.51843185 0.08800335 0.88272584
v 0.51266845 0.09031637 0.88928756
v 0.51597004 0.08808396 0.88631855
v 0.51907419 0.09161805 0.88792280
v 0.51590190 0.09241092 0.89012568
v 0.51597004 0.08808396 0.88631855
v 0.51843185 0.08800335 0.88272584
v 0.52112254 0.09155101 0.88493348
v 0.51907419 0.09161805 0.88792280
v 0.51843185 0.08800335 0.88272584
v 0.52005388 0.09007457 0.87850940
v 0.52204695 0.09220973 0.88115772
v 0.52112254 0.09155101 0.88493348
v 0.50729599 0.08921224 0.88430048
v 0.50496376 0.09237309 0.88396199
v 0.50563927 0.09124737 0.87916870
v 0.50873116 0.08777372 0.88092176
v 0.50496376 0.09237309 0.88396199
v 0.50412029 0.09583647 0.88330633
v 0.50462553 0.09540982 0.87838069
v 0.50563927 0.09124737 0.87916870
v 0.50412029 0.09583647 0.88330633
v 0.50476557 0.09960236 0.88233349
v 0.50568998 0.10026109 0.87855774
v 0.50462553 0.09540982 0.87838069
v 0.50873116 0.08777372 0.88092176
v 0.50563927 0.09124737 0.87916870
v 0.50810107 0.09116677 0.87557598
v 0.51077951 0.08770665 0.87793244
v 0.50563927 0.09124737 0.87916870
v 0.50462553 0.09540982 0.87838069
v 0.50708734 0.09532921 0.87478798
v 0.50810107 0.09116677 0.87557598
v 0.50462553 0.09540982 0.87838069
v 0.50568998 0.10026109 0.87855774
v 0.50773832 0.10019402 0.87556840
v 0.50708734 0.09532921 0.87478798
v 0.51077951 0.08770665 0.87793244
v 0.50810107 0.09116677 0.87557598
v 0.51234920 0.09213130 0.87318384
v 0.51344102 0.08901105 0.87533250
v 0.50810107 0.09116677 0.87557598
v 0.50708734 0.09532921 0.87478798
v 0.51150572 0.09559466 0.87252817
v 0.51234920 0.09213130 0.87318384
v 0.50708734 0.09532921 0.87478798
v 0.50773832 0.10019402 0.87556840
v 0.51091061 0.09940116 0.87336552
v 0.51150572 0.09559466 0.87252817
v 0.52204695 0.09220973 0.88115772
v 0.52269222 0.09597562 0.88018487
v 0.52218697 0.09640226 0.88511051
v 0.52112254 0.09155101 0.88493348
v 0.52269222 0.09597562 0.88018487
v 0.52184875 0.09943900 0.87952921
v 0.52117325 0.10056473 0.88432250
v 0.52218697 0.09640226 0.88511051
v 0.52184875 0.09943900 0.87952921
v 0.51951653 0.10259984 0.87919072
v 0.51808136 0.10403837 0.88256944
v 0.52117325 0.10056473 0.88432250
v 0.52112254 0.09155101 0.88493348
v 0.52218697 0.09640226 0.88511051
v 0.51972517 0.09648288 0.88870322
v 0.51907419 0.09161805 0.88792280
v 0.52218697 0.09640226 0.88511051
v 0.52117325 0.10056473 0.88432250
v 0.51871143 0.10064532 0.88791522
v 0.51972517 0.09648288 0.88870322
v 0.52117325 0.10056473 0.88432250
v 0.51808136 0.10403837 0.88256944
v 0.51603301 0.10410543 0.88555876
v 0.51871143 0.10064532 0.88791522
v 0.51907419 0.09161805 0.88792280
v 0.51972517 0.09648288 0.88870322
v 0.51530678 0.09621742 0.89096303
v 0.51590190 0.09241092 0.89012568
v 0.51972517 0.09648288 0.88870322
v 0.51871143 0.10064532 0.88791522
v 0.51446332 0.09968080 0.89030737
v 0.51530678 0.09621742 0.89096303
v 0.51871143 0.10064532 0.88791522
v 0.51603301 0.10410543 0.88555876
v 0.51337148 0.10280103 0.88815870
v 0.51446332 0.09968080 0.89030737
v 0.49382721 0.07720769 0.86911226
v 0.49370625 0.07863222 0.86772289
v 0.49593986 0.08172180 0.87041913
v 0.49613098 0.08074084 0.87180582
v 0.48929773 0.07598940 0.87411178
v 0.49091104 0.07561470 0.87317621
v 0.49478781 0.08002653 0.87622236
v 0.49362095 0.08084446 0.87713474
v 0.48542553 0.08118290 0.87186918
v 0.48592958 0.07974397 0.87295845
v 0.49028793 0.08460463 0.87651541
v 0.49017476 0.08615734 0.87499439
v 0.48995500 0.08240119 0.86686967
v 0.48842166 0.08263441 0.86788731
v 0.49166528 0.08589171 0.87095250
v 0.49336486 0.08543871 0.86993712
v 0.49236444 0.07552294 0.87207648
v 0.49556263 0.07979026 0.87500073
v 0.49478781 0.08002653 0.87622236
v 0.49091104 0.07561470 0.87317621
v 0.48642354 0.07833383 0.87402592
v 0.49104179 0.08343310 0.87736347
v 0.49028793 0.08460463 0.87651541
v 0.48592958 0.07974397 0.87295845
v 0.48688831 0.08286765 0.86890497
v 0.49070056 0.08693553 0.87277636
v 0.49166528 0.08589171 0.87095250
v 0.48842166 0.08263441 0.86788731
v 0.49530349 0.08355271 0.86974402
v 0.49336486 0.08543871 0.86993712
v 0.49700041 0.08847971 0.87127688
v 0.49842434 0.08712654 0.87085410
v 0.49593986 0.08172180 0.87041913
v 0.49530349 0.08355271 0.86974402
v 0.49842434 0.08712654 0.87085410
v 0.49866824 0.08411236 0.87160723
v 0.49478781 0.08002653 0.87622236
v 0.49556263 0.07979026 0.87500073
v 0.50001216 0.08264146 0.87768126
v 0.49821064 0.08235099 0.87835438
v 0.49028793 0.08460463 0.87651541
v 0.49104179 0.08343310 0.87736347
v 0.49483302 0.08733925 0.88086011
v 0.49262642 0.08819152 0.87910836
v 0.49166528 0.08589171 0.87095250
v 0.49070056 0.08693553 0.87277636
v 0.49336100 0.09104228 0.87551426
v 0.49416466 0.08894411 0.87227771
v 0.49556263 0.07979026 0.87500073
v 0.49613098 0.08074084 0.87180582
v 0.49887309 0.08323620 0.87309892
v 0.50001216 0.08264146 0.87768126
v 0.49104179 0.08343310 0.87736347
v 0.49362095 0.08084446 0.87713474
v 0.49862404 0.08409107 0.88017096
v 0.49483302 0.08733925 0.88086011
v 0.49070056 0.08693553 0.87277636
v 0.49017476 0.08615734 0.87499439
v 0.49324250 0.09052291 0.87664806
v 0.49336100 0.09104228 0.87551426
v 0.49866824 0.08411236 0.87160723
v 0.49842434 0.08712654 0.87085410
v 0.50688289 0.08982349 0.86968741
v 0.50789572 0.08871161 0.87023294
v 0.49821064 0.08235099 0.87835438
v 0.50001216 0.08264146 0.87768126
v 0.50849693 0.08511756 0.88229096
v 0.50774647 0.08528368 0.88399516
v 0.50774647 0.08528368 0.88399516
v 0.50849693 0.08511756 0.88229096
v 0.50796738 0.08654889 0.88155378
v 0.50702677 0.08776209 0.88220640
v 0.49262642 0.08819152 0.87910836
v 0.49483302 0.08733925 0.88086011
v 0.49808062 0.09430415 0.88592193
v 0.49694859 0.09573908 0.88541509
v 0.49416466 0.08894411 0.87227771
v 0.49336100 0.09104228 0.87551426
v 0.49877300 0.09987300 0.87256303
v 0.49925618 0.09994424 0.87079982
v 0.49925618 0.09994424 0.87079982
v 0.49877300 0.09987300 0.87256303
v 0.49959405 0.09866092 0.87360392
v 0.50060329 0.09772476 0.87320658
v 0.50789572 0.08871161 0.87023294
v 0.50688289 0.08982349 0.86968741
v 0.50638244 0.09061353 0.87118421
v 0.50681971 0.08994269 0.87238674
v 0.49694859 0.09573908 0.88541509
v 0.49808062 0.09430415 0.88592193
v 0.49931589 0.09465309 0.88498213
v 0.49967450 0.09572362 0.88395282
v 0.49537160 0.08647780 0.87644133
v 0.49967450 0.09572362 0.88395282
v 0.49931589 0.09465309 0.88498213
v 0.49632095 0.08682573 0.87839900
v 0.49542486 0.08686425 0.87485089
v 0.50060329 0.09772476 0.87320658
v 0.49959405 0.09866092 0.87360392
v 0.49499922 0.08921586 0.87630847
v 0.49664982 0.08564823 0.87500787
v 0.50681971 0.08994269 0.87238674
v 0.50638244 0.09061353 0.87118421
v 0.49735553 0.08740149 0.87320567
v 0.49632236 0.08537019 0.87635581
v 0.50702677 0.08776209 0.88220640
v 0.50796738 0.08654889 0.88155378
v 0.49832797 0.08513700 0.87689564
v 0.49483302 0.08733925 0.88086011
v 0.49862404 0.08409107 0.88017096
v 0.49784394 0.08577338 0.87811031
v 0.49632095 0.08682573 0.87839900
v 0.49336100 0.09104228 0.87551426
v 0.49324250 0.09052291 0.87664806
v 0.49529281 0.08800207 0.87704240
v 0.49499922 0.08921586 0.87630847
v 0.49842434 0.08712654 0.87085410
v 0.49700041 0.08847971 0.87127688
v 0.49693669 0.08778414 0.87335009
v 0.49735553 0.08740149 0.87320567
v 0.50001216 0.08264146 0.87768126
v 0.49887309 0.08323620 0.87309892
v 0.49813733 0.08557016 0.87476745
v 0.49832797 0.08513700 0.87689564
v 0.50809166 0.08785000 0.87170973
v 0.50739515 0.08896014 0.87287851
v 0.49813733 0.08557016 0.87476745
v 0.49887309 0.08323620 0.87309892
v 0.50688289 0.08982349 0.86968741
v 0.49842434 0.08712654 0.87085410
v 0.49735553 0.08740149 0.87320567
v 0.50638244 0.09061353 0.87118421
v 0.50849693 0.08511756 0.88229096
v 0.50001216 0.08264146 0.87768126
v 0.49832797 0.08513700 0.87689564
v 0.50796738 0.08654889 0.88155378
v 0.50665659 0.08661862 0.88485577
v 0.50642555 0.08780649 0.88370258
v 0.49784394 0.08577338 0.87811031
v 0.49862404 0.08409107 0.88017096
v 0.49808062 0.09430415 0.88592193
v 0.49483302 0.08733925 0.88086011
v 0.49632095 0.08682573 0.87839900
v 0.49931589 0.09465309 0.88498213
v 0.49728558 0.09718125 0.88414063
v 0.49872354 0.09680649 0.88365589
v 0.49529281 0.08800207 0.87704240
v 0.49324250 0.09052291 0.87664806
v 0.49877300 0.09987300 0.87256303
v 0.49336100 0.09104228 0.87551426
v 0.49499922 0.08921586 0.87630847
v 0.49959405 0.09866092 0.87360392
v 0.50039715 0.09893174 0.87021180
v 0.50095476 0.09787234 0.87163406
v 0.49693669 0.08778414 0.87335009
v 0.49700041 0.08847971 0.87127688
v 0.49784394 0.08577338 0.87811031
v 0.49632236 0.08537019 0.87635581
v 0.49642806 0.08650788 0.87580223
v 0.49529281 0.08800207 0.87704240
v 0.49537160 0.08647780 0.87644133
v 0.49642806 0.08650788 0.87580223
v 0.49693669 0.08778414 0.87335009
v 0.49542486 0.08686425 0.87485089
v 0.49642806 0.08650788 0.87580223
v 0.49832797 0.08513700 0.87689564
v 0.49813733 0.08557016 0.87476745
v 0.49642806 0.08650788 0.87580223
v 0.49499922 0.08921586 0.87630847
v 0.49529281 0.08800207 0.87704240
v 0.49642806 0.08650788 0.87580223
v 0.49632095 0.08682573 0.87839900
v 0.49784394 0.08577338 0.87811031
v 0.49642806 0.08650788 0.87580223
v 0.49735553 0.08740149 0.87320567
v 0.49693669 0.08778414 0.87335009
v 0.49642806 0.08650788 0.87580223
v 0.49813733 0.08557016 0.87476745
v 0.49664982 0.08564823 0.87500787
v 0.49642806 0.08650788 0.87580223
v 0.49784394 0.08577338 0.87811031
v 0.50642555 0.08780649 0.88370258
v 0.50702677 0.08776209 0.88220640
v 0.49632236 0.08537019 0.87635581
v 0.50665659 0.08661862 0.88485577
v 0.50642555 0.08780649 0.88370258
v 0.49862404 0.08409107 0.88017096
v 0.49821064 0.08235099 0.87835438
v 0.50774647 0.08528368 0.88399516
v 0.50665659 0.08661862 0.88485577
v 0.49362095 0.08084446 0.87713474
v 0.49478781 0.08002653 0.87622236
v 0.49821064 0.08235099 0.87835438
v 0.49862404 0.08409107 0.88017096
v 0.49813733 0.08557016 0.87476745
v 0.50739515 0.08896014 0.87287851
v 0.50681971 0.08994269 0.87238674
v 0.49664982 0.08564823 0.87500787
v 0.50809166 0.08785000 0.87170973
v 0.50789572 0.08871161 0.87023294
v 0.50681971 0.08994269 0.87238674
v 0.50739515 0.08896014 0.87287851
v 0.49887309 0.08323620 0.87309892
v 0.49866824 0.08411236 0.87160723
v 0.50789572 0.08871161 0.87023294
v 0.50809166 0.08785000 0.87170973
v 0.49613098 0.08074084 0.87180582
v 0.49593986 0.08172180 0.87041913
v 0.49866824 0.08411236 0.87160723
v 0.49887309 0.08323620 0.87309892
v 0.49529281 0.08800207 0.87704240
v 0.49872354 0.09680649 0.88365589
v 0.49967450 0.09572362 0.88395282
v 0.49537160 0.08647780 0.87644133
v 0.49728558 0.09718125 0.88414063
v 0.49694859 0.09573908 0.88541509
v 0.49967450 0.09572362 0.88395282
v 0.49872354 0.09680649 0.88365589
v 0.49324250 0.09052291 0.87664806
v 0.49262642 0.08819152 0.87910836
v 0.49694859 0.09573908 0.88541509
v 0.49728558 0.09718125 0.88414063
v 0.49017476 0.08615734 0.87499439
v 0.49028793 0.08460463 0.87651541
v 0.49262642 0.08819152 0.87910836
v 0.49324250 0.09052291 0.87664806
v 0.49693669 0.08778414 0.87335009
v 0.50095476 0.09787234 0.87163406
v 0.50060329 0.09772476 0.87320658
v 0.49542486 0.08686425 0.87485089
v 0.50039715 0.09893174 0.87021180
v 0.50095476 0.09787234 0.87163406
v 0.49700041 0.08847971 0.87127688
v 0.49416466 0.08894411 0.87227771
v 0.49925618 0.09994424 0.87079982
v 0.50039715 0.09893174 0.87021180
v 0.49336486 0.08543871 0.86993712
v 0.49166528 0.08589171 0.87095250
v 0.49416466 0.08894411 0.87227771
v 0.49700041 0.08847971 0.87127688
v 0.49642806 0.08650788 0.87580223
v 0.49542486 0.08686425 0.87485089
v 0.49499922 0.08921586 0.87630847
v 0.49642806 0.08650788 0.87580223
v 0.49632236 0.08537019 0.87635581
v 0.49832797 0.08513700 0.87689564
v 0.49642806 0.08650788 0.87580223
v 0.49664982 0.08564823 0.87500787
v 0.49735553 0.08740149 0.87320567
v 0.49642806 0.08650788 0.87580223
v 0.49537160 0.08647780 0.87644133
v 0.49632095 0.08682573 0.87839900
v 0.48995500 0.08240119 0.86686967
v 0.49282920 0.08005675 0.86695553
v 0.48966495 0.07918231 0.87047255
v 0.49370625 0.07863222 0.86772289
v 0.49382721 0.07720769 0.86911226
v 0.48929773 0.07598940 0.87411178
v 0.48642354 0.07833383 0.87402592
v 0.49236444 0.07552294 0.87207648
v 0.49091104 0.07561470 0.87317621
v 0.48842166 0.08263441 0.86788731
v 0.48542553 0.08118290 0.87186918
v 0.48688831 0.08286765 0.86890497
v 0.48592958 0.07974397 0.87295845
v 0.48542553 0.08118290 0.87186918
v 0.49017476 0.08615734 0.87499439
v 0.49070056 0.08693553 0.87277636
v 0.48688831 0.08286765 0.86890497
v 0.48929773 0.07598940 0.87411178
v 0.49362095 0.08084446 0.87713474
v 0.49104179 0.08343310 0.87736347
v 0.48642354 0.07833383 0.87402592
v 0.49282920 0.08005675 0.86695553
v 0.49530349 0.08355271 0.86974402
v 0.49593986 0.08172180 0.87041913
v 0.49370625 0.07863222 0.86772289
v 0.49382721 0.07720769 0.86911226
v 0.49613098 0.08074084 0.87180582
v 0.49556263 0.07979026 0.87500073
v 0.49236444 0.07552294 0.87207648
v 0.48995500 0.08240119 0.86686967
v 0.49336486 0.08543871 0.86993712
v 0.49530349 0.08355271 0.86974402
v 0.49282920 0.08005675 0.86695553
f 2 4 1
f 4 2 3
f 6 8 5
f 8 6 7
f 10 12 9
f 12 10 11
f 14 16 13
f 16 14 15
f 18 20 17
f 20 18 19
f 22 24 21
f 24 22 23
f 26 28 25
f 28 26 27
f 30 32 29
f 32 30 31
f 34 36 33
f 36 34 35
f 38 40 37
f 40 38 39
f 42 44 41
f 44 42 43
f 46 48 45
f 48 46 47
f 50 52 49
f 52 50 51
f 54 56 53
f 56 54 55
f 58 60 57
f 60 58 59
f 62 64 61
f 64 62 63
f 66 68 65
f 68 66 67
f 70 72 69
f 72 70 71
f 75 76 73
f 73 74 75
f 79 80 77
f 77 78 79
f 83 84 81
f 81 82 83
f 87 88 85
f 85 86 87
f 91 92 89
f 89 90 91
f 95 96 93
f 93 94 95
f 99 100 97
f 97 98 99
f 103 104 101
f 101 102 103
f 107 108 105
f 105 106 107
f 111 112 109
f 109 110 111
f 115 116 113
f 113 114 115
f 119 120 117
f 117 118 119
f 123 124 121
f 121 122 123
f 127 128 125
f 125 126 127
f 131 132 129
f 129 130 131
f 135 136 133
f 133 134 135
f 139 140 137
f 137 138 139
f 143 144 141
f 141 142 143
f 147 148 145
f 145 146 147
f 151 152 149
f 149 150 151
f 155 156 153
f 153 154 155
f 159 160 157
f 157 158 159
f 163 164 161
f 161 162 163
f 167 168 165
f 165 166 167
f 171 172 169
f 169 170 171
f 175 176 173
f 173 174 175
f 179 180 177
f 177 178 179
f 182 184 181
f 184 182 183
f 186 188 185
f 188 186 187
f 190 192 189
f 192 190 191
f 194 196 193
f 196 194 195
f 198 200 197
f 200 198 199
f 202 204 201
f 204 202 203
f 206 208 205
f 208 206 207
f 210 212 209
f 212 210 211
f 214 216 213
f 216 214 215
f 218 220 217
f 220 218 219
f 222 224 221
f 224 222 223
f 226 228 225
f 228 226 227
f 230 232 229
f 232 230 231
f 234 236 233
f 236 234 235
f 238 240 237
f 240 238 239
f 242 244 241
f 244 242 243
f 246 248 245
f 248 246 247
f 250 252 249
f 252 250 251
f 254 256 253
f 256 254 255
f 258 260 257
f 260 258 259
f 262 264 261
f 264 262 263
f 266 268 265
f 268 266 267
f 270 272 269
f 272 270 271
f 274 276 273
f 276 274 275
f 278 280 277
f 280 278 279
f 282 284 281
f 284 282 283
f 287 288 285
f 285 286 287
f 291 292 289
f 289 290 291
f 295 296 293
f 293 294 295
f 299 300 297
f 297 298 299
f 303 304 301
f 301 302 303
f 307 308 305
f 305 306 307
f 311 312 309
f 309 310 311
f 315 316 313
f 313 314 315
f 319 320 317
f 317 318 319
f 323 324 321
f 321 322 323
f 327 328 325
f 325 326 327
f 331 332 329
f 329 330 331
f 334 336 333
f 336 334 335
f 339 340 337
f 337 338 339
f 343 344 341
f 341 342 343
f 347 348 345
f 345 346 347
f 351 352 349
f 349 350 351
f 355 356 353
f 353 354 355
f 359 360 357
f 357 358 359
f 363 364 361
f 361 362 363
f 367 368 365
f 365 366 367
f 370 372 369
f 372 370 371
f 375 376 373
f 373 374 375
f 379 380 377
f 377 378 379
f 382 384 381
f 384 382 383
f 387 388 385
f 385 386 387
f 391 392 389
f 389 390 391
f 394 396 393
f 396 394 395
f 399 400 397
f 397 398 399
f 402 404 401
f 404 402 403
f 406 408 405
f 408 406 407
f 411 412 409
f 409 410 411
f 414 416 413
f 416 414 415
f 418 420 417
f 420 418 419
f 423 424 421
f 421 422 423
f 426 428 425
f 428 426 427
f 430 432 429
f 432 430 431
f 434 436 433
f 436 434 435
f 438 440 437
f 440 438 439
f 442 444 441
f 444 442 443
f 446 448 445
f 448 446 447
f 450 452 449
f 452 450 451
f 454 456 453
f 456 454 455
f 458 460 457
f 460 458 459
f 462 464 461
f 464 462 463
f 466 468 465
f 468 466 467
f 470 472 469
f 472 470 471
f 474 476 473
f 476 474 475
f 478 480 477
f 480 478 479
f 482 484 481
f 484 482 483
f 486 488 485
f 488 486 487
f 490 492 489
f 492 490 491
f 494 496 493
f 496 494 495
f 498 500 497
f 500 498 499
f 503 504 501
f 501 502 503
f 507 508 505
f 505 506 507
f 511 512 509
f 509 510 511
f 515 516 513
f 513 514 515
f 519 520 517
f 517 518 519
f 523 524 521
f 521 522 523
f 527 528 525
f 525 526 527
f 531 532 529
f 529 530 531
f 535 536 533
f 533 534 535
f 539 540 537
f 537 538 539
f 543 544 541
f 541 542 543
f 547 548 545
f 545 546 547
f 550 552 549
f 552 550 551
f 555 556 553
f 553 554 555
f 559 560 557
f 557 558 559
f 563 564 561
f 561 562 563
f 567 568 565
f 565 566 567
f 571 572 569
f 569 570 571
f 575 576 573
f 573 574 575
f 579 580 577
f 577 578 579
f 583 584 581
f 581 582 583
f 586 588 585
f 588 586 587
f 591 592 589
f 589 590 591
f 595 596 593
f 593 594 595
f 598 600 597
f 600 598 599
f 603 604 601
f 601 602 603
f 607 608 605
f 605 606 607
f 610 612 609
f 612 610 611
f 615 616 613
f 613 614 615
f 618 620 617
f 620 618 619
f 622 624 621
f 624 622 623
f 627 628 625
f 625 626 627
f 630 632 629
f 632 630 631
f 634 636 633
f 636 634 635
f 639 640 637
f 637 638 639
f 642 644 641
f 644 642 643
f 646 648 645
f 648 646 647
f 650 652 649
f 652 650 651
f 654 656 653
f 656 654 655
f 658 660 657
f 660 658 659
f 662 664 661
f 664 662 663
f 666 668 665
f 668 666 667
f 670 672 669
f 672 670 671
f 674 676 673
f 676 674 675
f 678 680 677
f 680 678 679
f 682 684 681
f 684 682 683
f 686 688 685
f 688 686 687
f 690 692 689
f 692 690 691
f 694 696 693
f 696 694 695
f 698 700 697
f 700 698 699
f 702 704 701
f 704 702 703
f 706 708 705
f 708 706 707
f 710 712 709
f 712 710 711
f 714 716 713
f 716 714 715
f 719 720 717
f 717 718 719
f 723 724 721
f 721 722 723
f 727 728 725
f 725 726 727
f 731 732 729
f 729 730 731
f 735 736 733
f 733 734 735
f 739 740 737
f 737 738 739
f 743 744 741
f 741 742 743
f 747 748 745
f 745 746 747
f 751 752 749
f 749 750 751
f 755 756 753
f 753 754 755
f 759 760 757
f 757 758 759
f 763 764 761
f 761 762 763
f 766 768 765
f 768 766 767
f 771 772 769
f 769 770 771
f 775 776 773
f 773 774 775
f 779 780 777
f 777 778 779
f 783 784 781
f 781 782 783
f 787 788 785
f 785 786 787
f 791 792 789
f 789 790 791
f 795 796 793
f 793 794 795
f 799 800 797
f 797 798 799
f 802 804 801
f 804 802 803
f 807 808 805
f 805 806 807
f 811 812 809
f 809 810 811
f 814 816 813
f 816 814 815
f 819 820 817
f 817 818 819
f 823 824 821
f 821 822 823
f 826 828 825
f 828 826 827
f 831 832 829
f 829 830 831
f 834 836 833
f 836 834 835
f 838 840 837
f 840 838 839
f 843 844 841
f 841 842 843
f 846 848 845
f 848 846 847
f 850 852 849
f 852 850 851
f 855 856 853
f 853 854 855
f 858 860 857
f 860 858 859
f 862 864 861
f 864 862 863
f 866 868 865
f 868 866 867
f 870 872 869
f 872 870 871
f 874 876 873
f 876 874 875
f 878 880 877
f 880 878 879
f 882 884 881
f 884 882 883
f 886 888 885
f 888 886 887
f 890 892 889
f 892 890 891
f 894 896 893
f 896 894 895
f 898 900 897
f 900 898 899
f 902 904 901
f 904 902 903
f 906 908 905
f 908 906 907
f 910 912 909
f 912 910 911
f 914 916 913
f 916 914 915
f 918 920 917
f 920 918 919
f 922 924 921
f 924 922 923
f 926 928 925
f 928 926 927
f 930 932 929
f 932 930 931
f 935 936 933
f 933 934 935
f 939 940 937
f 937 938 939
f 943 944 941
f 941 942 943
f 947 948 945
f 945 946 947
f 951 952 949
f 949 950 951
f 955 956 953
f 953 954 955
f 959 960 957
f 957 958 959
f 963 964 961
f 961 962 963
f 967 968 965
f 965 966 967
f 971 972 969
f 969 970 971
f 975 976 973
f 973 974 975
f 979 980 977
f 977 978 979
f 982 984 981
f 984 982 983
f 987 988 985
f 985 986 987
f 991 992 989
f 989 990 991
f 995 996 993
f 993 994 995
f 999 1000 997
f 997 998 999
f 1003 1004 1001
f 1001 1002 1003
f 1007 1008 1005
f 1005 1006 1007
f 1011 1012 1009
f 1009 1010 1011
f 1015 1016 1013
f 1013 1014 1015
f 1018 1020 1017
f 1020 1018 1019
f 1023 1024 1021
f 1021 1022 1023
f 1027 1028 1025
f 1025 1026 1027
f 1030 1032 1029
f 1032 1030 1031
f 1035 1036 1033
f 1033 1034 1035
f 1039 1040 1037
f 1037 1038 1039
f 1042 1044 1041
f 1044 1042 1043
f 1047 1048 1045
f 1045 1046 1047
f 1050 1052 1049
f 1052 1050 1051
f 1054 1056 1053
f 1056 1054 1055
f 1059 1060 1057
f 1057 1058 1059
f 1062 1064 1061
f 1064 1062 1063
f 1066 1068 1065
f 1068 1066 1067
f 1071 1072 1069
f 1069 1070 1071
f 1074 1076 1073
f 1076 1074 1075
f 1078 1080 1077
f 1080 1078 1079
f 1082 1084 1081
f 1084 1082 1083
f 1086 1088 1085
f 1088 1086 1087
f 1090 1092 1089
f 1092 1090 1091
f 1094 1096 1093
f 1096 1094 1095
f 1098 1100 1097
f 1100 1098 1099
f 1102 1104 1101
f 1104 1102 1103
f 1106 1108 1105
f 1108 1106 1107
f 1110 1112 1109
f 1112 1110 1111
f 1114 1116 1113
f 1116 1114 1115
f 1118 1120 1117
f 1120 1118 1119
f 1122 1124 1121
f 1124 1122 1123
f 1126 1128 1125
f 1128 1126 1127
f 1130 1132 1129
f 1132 1130 1131
f 1134 1136 1133
f 1136 1134 1135
f 1138 1140 1137
f 1140 1138 1139
f 1142 1144 1141
f 1144 1142 1143
f 1146 1148 1145
f 1148 1146 1147
f 1151 1152 1149
f 1149 1150 1151
f 1155 1156 1153
f 1153 1154 1155
f 1159 1160 1157
f 1157 1158 1159
f 1163 1164 1161
f 1161 1162 1163
f 1167 1168 1165
f 1165 1166 1167
f 1171 1172 1169
f 1169 1170 1171
f 1175 1176 1173
f 1173 1174 1175
f 1179 1180 1177
f 1177 1178 1179
f 1183 1184 1181
f 1181 1182 1183
f 1187 1188 1185
f 1185 1186 1187
f 1191 1192 1189
f 1189 1190 1191
f 1195 1196 1193
f 1193 1194 1195
f 1198 1200 1197
f 1200 1198 1199
f 1203 1204 1201
f 1201 1202 1203
f 1207 1208 1205
f 1205 1206 1207
f 1211 1212 1209
f 1209 1210 1211
f 1215 1216 1213
f 1213 1214 1215
f 1219 1220 1217
f 1217 1218 1219
f 1223 1224 1221
f 1221 1222 1223
f 1227 1228 1225
f 1225 1226 1227
f 1231 1232 1229
f 1229 1230 1231
f 1234 1236 1233
f 1236 1234 1235
f 1239 1240 1237
f 1237 1238 1239
f 1243 1244 1241
f 1241 1242 1243
f 1246 1248 1245
f 1248 1246 1247
f 1251 1252 1249
f 1249 1250 1251
f 1255 1256 1253
f 1253 1254 1255
f 1258 1260 1257
f 1260 1258 1259
f 1263 1264 1261
f 1261 1262 1263
f 1266 1268 1265
f 1268 1266 1267
f 1270 1272 1269
f 1272 1270 1271
f 1275 1276 1273
f 1273 1274 1275
f 1278 1280 1277
f 1280 1278 1279
f 1282 1284 1281
f 1284 1282 1283
f 1287 1288 1285
f 1285 1286 1287
f 1290 1292 1289
f 1292 1290 1291
f 1294 1296 1293
f 1296 1294 1295
f 1298 1300 1297
f 1300 1298 1299
f 1302 1304 1301
f 1304 1302 1303
f 1306 1308 1305
f 1308 1306 1307
f 1310 1312 1309
f 1312 1310 1311
f 1314 1316 1313
f 1316 1314 1315
f 1318 1320 1317
f 1320 1318 1319
f 1322 1324 1321
f 1324 1322 1323
f 1326 1328 1325
f 1328 1326 1327
f 1330 1332 1329
f 1332 1330 1331
f 1334 1336 1333
f 1336 1334 1335
f 1338 1340 1337
f 1340 1338 1339
f 1342 1344 1341
f 1344 1342 1343
f 1346 1348 1345
f 1348 1346 1347
f 1350 1352 1349
f 1352 1350 1351
f 1354 1356 1353
f 1356 1354 1355
f 1358 1360 1357
f 1360 1358 1359
f 1362 1364 1361
f 1364 1362 1363
f 1367 1368 1365
f 1365 1366 1367
f 1371 1372 1369
f 1369 1370 1371
f 1375 1376 1373
f 1373 1374 1375
f 1379 1380 1377
f 1377 1378 1379
f 1383 1384 1381
f 1381 1382 1383
f 1387 1388 1385
f 1385 1386 1387
f 1391 1392 1389
f 1389 1390 1391
f 1395 1396 1393
f 1393 1394 1395
f 1399 1400 1397
f 1397 1398 1399
f 1403 1404 1401
f 1401 1402 1403
f 1407 1408 1405
f 1405 1406 1407
f 1411 1412 1409
f 1409 1410 1411
f 1414 1416 1413
f 1416 1414 1415
f 1419 1420 1417
f 1417 1418 1419
f 1423 1424 1421
f 1421 1422 1423
f 1427 1428 1425
f 1425 1426 1427
f 1431 1432 1429
f 1429 1430 1431
f 1435 1436 1433
f 1433 1434 1435
f 1439 1440 1437
f 1437 1438 1439
f 1443 1444 1441
f 1441 1442 1443
f 1447 1448 1445
f 1445 1446 1447
f 1450 1452 1449
f 1452 1450 1451
f 1455 1456 1453
f 1453 1454 1455
f 1459 1460 1457
f 1457 1458 1459
f 1462 1464 1461
f 1464 1462 1463
f 1467 1468 1465
f 1465 1466 1467
f 1471 1472 1469
f 1469 1470 1471
f 1474 1476 1473
f 1476 1474 1475
f 1479 1480 1477
f 1477 1478 1479
f 1482 1484 1481
f 1484 1482 1483
f 1486 1488 1485
f 1488 1486 1487
f 1491 1492 1489
f 1489 1490 1491
f 1494 1496 1493
f 1496 1494 1495
f 1498 1500 1497
f 1500 1498 1499
f 1503 1504 1501
f 1501 1502 1503
f 1506 1508 1505
f 1508 1506 1507
f 1510 1512 1509
f 1512 1510 1511
f 1514 1516 1513
f 1516 1514 1515
f 1519 1520 1517
f 1517 1518 1519
f 1523 1524 1521
f 1521 1522 1523
f 1526 1528 1525
f 1528 1526 1527
f 1531 1532 1529
f 1529 1530 1531
f 1535 1536 1533
f 1533 1534 1535
f 1538 1540 1537
f 1540 1538 1539
f 1542 1544 1541
f 1544 1542 1543
f 1546 1548 1545
f 1548 1546 1547
f 1551 1552 1549
f 1549 1550 1551
f 1555 1556 1553
f 1553 1554 1555
f 1558 1560 1557
f 1560 1558 1559
f 1563 1564 1561
f 1561 1562 1563
f 1567 1568 1565
f 1565 1566 1567
f 1570 1572 1569
f 1572 1570 1571
f 1574 1576 1573
f 1576 1574 1575
f 1579 1580 1577
f 1577 1578 1579
f 1582 1584 1581
f 1584 1582 1583
f 1587 1588 1585
f 1585 1586 1587
f 1590 1592 1589
f 1592 1590 1591
f 1594 1596 1593
f 1596 1594 1595
f 1598 1600 1597
f 1600 1598 1599
f 1602 1604 1601
f 1604 1602 1603
f 1606 1608 1605
f 1608 1606 1607
f 1611 1612 1609
f 1609 1610 1611
f 1615 1616 1613
f 1613 1614 1615
f 1618 1620 1617
f 1620 1618 1619
f 1622 1624 1621
f 1624 1622 1623
f 1626 1628 1625
f 1628 1626 1627
f 1630 1632 1629
f 1632 1630 1631
f 1634 1636 1633
f 1636 1634 1635
f 1639 1640 1637
f 1637 1638 1639
f 1642 1644 1641
f 1644 1642 1643
f 1646 1648 1645
f 1648 1646 1647
f 1651 1652 1649
f 1649 1650 1651
f 1655 1656 1653
f 1653 1654 1655
f 1658 1660 1657
f 1660 1658 1659
f 1663 1664 1661
f 1661 1662 1663
f 1667 1668 1665
f 1665 1666 1667
f 1669 1670 1671
f 1672 1673 1674
f 1675 1676 1677
f 1678 1679 1680
f 1681 1682 1683
f 1684 1685 1686
f 1687 1688 1689
f 1690 1691 1692
f 1694 1696 1693
f 1696 1694 1695
f 1581 1698 1697
f 1698 1581 1584
f 1701 1702 1699
f 1699 1700 1701
f 1705 1706 1703
f 1703 1704 1705
f 1709 1710 1707
f 1707 1708 1709
f 1712 1714 1711
f 1714 1712 1713
f 1716 1718 1715
f 1718 1716 1717
f 1720 1722 1719
f 1722 1720 1721
f 1724 1726 1723
f 1726 1724 1725
f 1728 1730 1727
f 1730 1728 1729
f 1732 1734 1731
f 1734 1732 1733
f 1736 1738 1735
f 1738 1736 1737
f 1741 1742 1739
f 1739 1740 1741
f 1593 1744 1743
f 1744 1593 1596
f 1746 1748 1745
f 1748 1746 1747
f 1750 1752 1749
f 1752 1750 1751
f 1753 1754 1755
f 1756 1757 1758
f 1759 1760 1761
f 1762 1763 1764
f 1765 1766 1767
f 1768 1769 1767
f 1770 1771 1767
f 1772 1773 1767
f 1774 1765 1767
f 1773 1770 1767
f 1775 1776 1767
f 1771 1777 1767
f 1769 1772 1767
f 1766 1768 1767
f 1777 1775 1767
f 1776 1774 1767
f 1779 1781 1778
f 1781 1779 1780
f 1784 1785 1782
f 1782 1783 1784
f 1787 1789 1786
f 1789 1787 1788
f 1792 1793 1790
f 1790 1791 1792
f 1795 1797 1794
f 1797 1795 1796
