#
# File generated by Libuipc
# Vertices 114
# Edges 114
# Faces 0
#
v 0.005044842360518062 0.025037972431621622 -0.0010884722528157924
v 0.0052370090319460265 0.02304851364014968 -0.0010876817240210257
v 0.005366194020666554 0.02105389579717761 -0.0010868974386071656
v 0.005349656883589171 0.019049858498110674 -0.0010850994479053996
v 0.0053221965201484004 0.01705191775329283 -0.0010845887605090143
v 0.00544418293163304 0.015057513894363397 -0.0010842251964063932
v 0.005803330005153945 0.013091899784063629 -0.0010836968945561274
v 0.0059173916266404844 0.011096819905969862 -0.0010830045311526907
v 0.006036353735935131 0.009102235488413945 -0.0010825270819018952
v 0.006098045226584579 0.007104377773856202 -0.0010816443489882156
v 0.006774180123835355 0.005219861953124349 -0.0010816254785465753
v 0.0069609239149422296 0.003230412891576375 -0.0010814090610867147
v 0.007043789330875855 0.0012278792506509085 -0.0010802202010195586
v 0.007193887448699779 -0.000764616984280976 -0.0010827723893063674
v 0.007310235576049514 -0.0027593835333503945 -0.0010939552319547804
v 0.006722810005682094 -0.004670499121014111 -0.001252655324566307
v 0.004791254547448385 -0.005210675350948265 -0.0012198992138427467
v 0.0028670133319001574 -0.005757115811156041 -0.001134748054491324
v 0.0008990917243048323 -0.006099082542729522 -0.0011990883256431876
v -0.0010968431737335943 -0.006191937157380474 -0.0011823378453513546
v -0.002980688880581932 -0.005525982115908135 -0.0011762394127084895
v -0.004565903873619539 -0.004309608942863797 -0.0011989756117841814
v -0.005673418528162325 -0.002646648679895223 -0.0011682061410609934
v -0.005889646594266107 -0.0006667803768945737 -0.0013316371864711318
v -0.005372370496977348 0.00126321793171599 -0.0013324498149085127
v -0.0045027939179693634 0.0030621454013839383 -0.0013288095067727945
v -0.0031257602896939338 0.0045104041677705 -0.0013275984947003295
v -0.0013181020021208346 0.005361701744994083 -0.0013315580782812585
v 0.0006247205894435604 0.005828329635198178 -0.001332030975099039
v 0.0026109198693259512 0.005858082559236002 -0.0011159215401437155
v 0.004196178585984999 0.004642323383403415 -0.001076187419600928
v 0.005548378386566464 0.003165894701147754 -0.0010221135021066577
v 0.006294761524913973 0.0013117120309599035 -0.0009723005787988549
v 0.006380378840778735 -0.0007000575011732764 -0.0009491617356273469
v 0.006524236702996872 -0.0026667005215810094 -0.0012730228763925724
v 0.005516944546975225 -0.004330862222067079 -0.0007768441504950404
v 0.0036453162345349423 -0.004929629966826508 -0.0004110395872092478
v 0.0019825657022280794 -0.006036133626413028 -0.0003344653570578874
v -9.866572601494425e-06 -0.006136531503260898 -0.00018908969124870393
v -0.001866966583292647 -0.005398363378515815 -0.00021368910298262184
v -0.00357056294618045 -0.004354531595576262 -0.0002460288001089121
v -0.004998168078898742 -0.002957173659432393 -0.00019499954612571928
v -0.005878587085985594 -0.0011664123634222085 -9.291893505689428e-05
v -0.006024079321456293 0.0008250363179874678 -2.0012079584027706e-05
v -0.005449469427331564 0.0027385571075629117 6.478800958731175e-06
v -0.004276220795187727 0.004355390714724104 -3.458453675243827e-05
v -0.0026520288435345468 0.005518542795983406 3.900662908863114e-06
v -0.0007374675138733712 0.006090067752355359 1.7894773787040656e-05
v 0.0012494841401230802 0.005896669471030841 -6.580825357539341e-05
v 0.002993722418552209 0.0049319358687009065 -0.00020493339595284822
v 0.004299102084633924 0.0034207623396808953 -0.0002734516072618387
v 0.005155553216220969 0.0016155280482327142 -0.00027176282578707993
v 0.005728742099059271 -0.00029848672724083736 -0.000253562263984639
v 0.006163954661475062 -0.00224922735319338 -0.0002499052071142602
v 0.005813496992508945 -0.004203009991858914 -1.4802080469756623e-05
v 0.004096033799325521 -0.005177261819709891 0.00029342483698885304
v 0.002203469934642338 -0.005771000238089292 0.0005456283393502958
v 0.00021073758536561935 -0.0056193692734797995 0.0005411493106806222
v -0.0017281811179702823 -0.00513654628225819 0.0005282627260245497
v -0.0034846940243622834 -0.004184189431776666 0.0005324831175861121
v -0.0047580960885603325 -0.0026444435854563342 0.000530883579982712
v -0.005396923120292514 -0.0007512157927641861 0.0005343413138986049
v -0.005284840950678251 0.001243719877528052 0.0005302288588209867
v -0.0044816652657279545 0.003073265417842205 0.0005276286472992844
v -0.0030809886512742648 0.004498208156898675 0.0005302923742652719
v -0.0012511882552872465 0.005300809086198026 0.0005263823220664519
v 0.0007448689815871293 0.0053911264861826 0.0005291570459384703
v 0.0026334019985608526 0.004738650436161174 0.0005346642773335138
v 0.0041916024811951185 0.0034878823036349825 0.0005354750822877527
v 0.005153230271654637 0.0017364334293545399 0.0005307501534664213
v 0.005542316921546293 -0.0002235098982540945 0.0005334463137542668
v 0.005922470131560331 -0.0021846564150385175 0.0005781631853201176
v 0.005970552176368265 -0.004173164657311996 0.0007711161886095023
v 0.004262032591397791 -0.005160834331303645 0.0010860874497473053
v 0.002279280127400064 -0.005311565397556071 0.0012845117246337698
v 0.0002858605427685637 -0.005441957827511431 0.0013290756095304564
v -0.001692008568529526 -0.005158476389404726 0.001330374443371329
v -0.0034462649697088667 -0.004201943664266506 0.0013320683319005162
v -0.004746677703230849 -0.002684950496224414 0.0013306276070158077
v -0.005380618933641553 -0.0007901001199667228 0.0013344811971013062
v -0.005325960179049068 0.0011436355145876794 0.0013306697354848157
v -0.004532240961492073 0.0029643644858243557 0.001329617309612388
v -0.0031753632138395178 0.004431067825250251 0.0013313459411781038
v -0.0013600925350871946 0.005266031622377974 0.0013283821654549483
v 0.000482291920094767 0.005415618338661349 0.001329832472338331
v 0.0024103062748759532 0.004891099422088426 0.0013335429576124811
v 0.003986213468861879 0.003662744590263199 0.0013337521172541904
v 0.005075010224102139 0.001987374648931045 0.0013310124597476355
v 0.005441589975931053 3.130414297367391e-05 0.0013314006196116827
v 0.005570150668353649 -0.0017781345878122913 0.001330673222184172
v 0.005241688693515951 -0.0037396809921546336 0.0011362313157347848
v 0.004253503840059623 -0.0032503940823097838 -0.0005300532032589646
v 0.005258360192919134 -0.0016495703494764128 -0.0010055523327675135
v 0.005425538477032912 0.0002946453782001045 -0.0010494163029782578
v 0.004944578412620256 0.0022337850788689516 -0.0010788912416914034
v 0.003813048559033804 0.0038804912594207755 -0.0010543511513281102
v 0.0021612163969878264 0.004989656316885566 -0.0008706483045254865
v 0.0003942084981640822 0.005419444281592308 -0.0006068190134236709
v -0.0015905091197437372 0.0052072572968765015 -0.0005157382459938703
v -0.0033485053741767355 0.004257611425268074 -0.0005253002306949152
v -0.0046854059192288295 0.002772640058120638 -0.0005331292884798623
v -0.005345769604305293 0.0009553766093463102 -0.0005301655442759798
v -0.005351818126930703 -0.0009716554997313935 -0.0006757867206419469
v -0.004647125390125311 -0.002825711109086812 -0.0009172632427145645
v -0.0032987154354806878 -0.004296831941897304 -0.0010182291513179216
v -0.0015304185709024774 -0.00522516759296034 -0.0009561647021792194
v 0.0003358617734824837 -0.005404236461820674 -0.0008482356540669219
v 0.0023040846770859473 -0.004969282163082486 -0.0012063861455901667
v 0.003995678119138118 -0.004381191859379696 -0.0012687332459153336
v 0.005348563054749971 -0.0032056594122532346 -0.0006760417790018558
v 0.004883701164859716 -0.0024196158328520486 0.0006990977607629773
v 0.0038165069634849987 -0.0038149516446873664 0.001151582845431859
v 0.002531944144209932 -0.004782863761957425 0.0004488757088779667
v 0.001078813571704244 -0.005266009530822954 -0.00017385513500744603
l 2 1
l 3 2
l 4 3
l 5 4
l 6 5
l 7 6
l 8 7
l 9 8
l 10 9
l 11 10
l 12 11
l 13 12
l 14 13
l 15 14
l 16 15
l 17 16
l 18 17
l 19 18
l 20 19
l 21 20
l 22 21
l 23 22
l 24 23
l 25 24
l 26 25
l 27 26
l 28 27
l 29 28
l 30 29
l 31 30
l 32 31
l 33 32
l 34 33
l 35 34
l 36 35
l 37 36
l 38 37
l 39 38
l 40 39
l 41 40
l 42 41
l 43 42
l 44 43
l 45 44
l 46 45
l 47 46
l 48 47
l 49 48
l 50 49
l 51 50
l 52 51
l 53 52
l 54 53
l 55 54
l 56 55
l 57 56
l 58 57
l 59 58
l 60 59
l 61 60
l 62 61
l 63 62
l 64 63
l 65 64
l 66 65
l 67 66
l 68 67
l 69 68
l 70 69
l 71 70
l 72 71
l 73 72
l 74 73
l 75 74
l 76 75
l 77 76
l 78 77
l 79 78
l 80 79
l 81 80
l 82 81
l 83 82
l 84 83
l 85 84
l 86 85
l 87 86
l 88 87
l 89 88
l 90 89
l 91 90
l 92 91
l 93 92
l 94 93
l 95 94
l 96 95
l 97 96
l 98 97
l 99 98
l 100 99
l 101 100
l 102 101
l 103 102
l 104 103
l 105 104
l 106 105
l 107 106
l 108 107
l 109 108
l 110 109
l 111 110
l 112 111
l 113 112
l 114 113
l 107 114
