#
# File generated by Libuipc
# Vertices 114
# Edges 114
# Faces 0
#
v 0.013597160171089579 0.032187856866452924 0.0009238277403142873
v 0.01305268126202567 0.030265380212185118 0.0009397629094521633
v 0.012512892584373306 0.028341545851957407 0.0009555186903996717
v 0.01198421095360904 0.026414668921364234 0.0009710605309613132
v 0.011505565972622856 0.024474796952569187 0.0009856107803668597
v 0.010974422116595474 0.022548632057498887 0.0010010632361028666
v 0.010459331951657505 0.020618102937987916 0.0010163174512453465
v 0.009931379590905993 0.01869104957057958 0.0010315989717740123
v 0.009432502465508814 0.016756280393508134 0.001046485373504914
v 0.008895619490054067 0.01483168841146865 0.001061597098794922
v 0.008394806076460705 0.012897399156687474 0.0010763486045042767
v 0.007868528006016706 0.01096982781416474 0.0010912223437768518
v 0.007366028215734134 0.009035955861590965 0.0011057822770797932
v 0.00685682830197077 0.007103813357154374 0.0011202080391407932
v 0.00639108877447231 0.005160793434089756 0.0011340498351093565
v 0.005868230689483885 0.003232382546332829 0.0011553134932870215
v 0.005388896219954872 0.001293644352149093 0.0012182755481875802
v 0.004847879452570017 -0.0006265588556525795 0.0013308869386978858
v 0.0042319122086791625 -0.0025273341729751897 0.0013360362028292801
v 0.0028681218672796734 -0.003987617498739719 0.0013372889906120235
v 0.0009958961811064016 -0.0046856416866417165 0.00133714694423408
v -0.0009956247769791443 -0.004847450537246489 0.0013333467656587768
v -0.002962514498277143 -0.00449569930506976 0.001338052894731999
v -0.004300914958858788 -0.0030272946461228434 0.001126235931694556
v -0.004925513561589862 -0.0012353387095718274 0.0005008260545896527
v -0.004848586222664164 0.0007369929741416966 0.00019041870107431468
v -0.004085568710037623 0.0025821067138397215 0.0002662776987588984
v -0.002517214681393445 0.0038164565608696335 0.000171229173556999
v -0.0006456994447138396 0.004492756227928993 0.00035118174822535813
v 0.0013297239363843235 0.004426799226895709 0.0006441031780370263
v 0.002938879755246117 0.003246459473917146 0.0005453993769532634
v 0.004080017629357343 0.001606888619318952 0.0005901680311211358
v 0.004313724166551488 -0.0003683732781159945 0.0007800326276781023
v 0.0035740438020699715 -0.0022173803976332797 0.00094272726341291
v 0.0021054536855690665 -0.003571071970637214 0.0008868951611808839
v 0.00035154656662059793 -0.0044781395544321555 0.0005812185316063607
v -0.001547011774667901 -0.004937308411297669 0.00016053350325593806
v -0.0032701424348695607 -0.00398386160619167 -0.00017738220913583947
v -0.0039183225098031235 -0.002167778964117134 0.00034612607954875375
v -0.004174425998600565 -0.00021795125671239798 0.0006997188317898874
v -0.0038064914646082884 0.0017437527558333346 0.0007929887770291613
v -0.0026007244683000034 0.0033322354589082805 0.0009166744490514534
v -0.0008414098825135064 0.004258612417949469 0.0011142239715322539
v 0.0011295345790060646 0.0040171391265764 0.0013366824688698597
v 0.002921041023922345 0.0031322940689255964 0.0013422572324896355
v 0.0037743660910125936 0.001325585602021291 0.0013402458909050757
v 0.003495139993175186 -0.0006529062505041022 0.001339820833191987
v 0.0024346312015592476 -0.002346340268324085 0.001334785563155782
v 0.0007798504638990969 -0.0034661984042558243 0.001330189325459829
v -0.0011425484334253464 -0.004010954886791529 0.0013367365429294033
v -0.00300142031863974 -0.0032781758967830718 0.0013362905891625425
v -0.003971037159029687 -0.0015311002560261097 0.0013378643516601678
v -0.003521635603665997 0.00041579428745388983 0.0013429256117252614
v -0.0026531100468290617 0.002215251369379742 0.0013431056957055184
v -0.000984134224492163 0.0033092417854394744 0.0012427689205152391
v 0.000992234379341966 0.003310011742622034 0.0009489348079576415
v 0.0026585537535597868 0.0022109599680138255 0.0008602442159990927
v 0.003431764426255785 0.00039087929420392577 0.0005742771436296348
v 0.00307064624238234 -0.0015739584457951587 0.0005368424229892923
v 0.0020910162233056576 -0.0032602124468870753 0.00010181041206035624
v 0.0005910891847644274 -0.004539879580498541 -0.00022234094087872523
v -0.001382291475758881 -0.004502833526810364 -0.000533525636348298
v -0.002889542208177801 -0.003191187133344507 -0.0005226475595891977
v -0.0038261359986215193 -0.0014383669834895105 -0.00031578883493216145
v -0.004138139439976802 0.0005293031660162619 -0.000163028049353627
v -0.0032169037527062976 0.002293143806536998 1.743823248737303e-05
v -0.0015475750569277035 0.0033304568022026336 0.0003776975916272389
v 0.00041840404597533236 0.0036828123546745434 0.00032171451121194904
v 0.0023295149943309613 0.0034338256465752726 -0.0002056623052591441
v 0.003780666183655889 0.002227171258944088 -0.0008617969034530689
v 0.004326791875801853 0.00033895651547364815 -0.0012206439874368178
v 0.003923703676520183 -0.0016142087748124406 -0.0010979600544031253
v 0.0026736980220129314 -0.0031568835007549857 -0.0008742795095839683
v 0.0009600777826992398 -0.004178509364168768 -0.000984880385988172
v -0.0010145261701754332 -0.00426887179713975 -0.0012767413327516553
v -0.0027923444748219365 -0.0033587841976989363 -0.0013354735267217398
v -0.003928966238065668 -0.0017154734451616102 -0.0013345955785803217
v -0.0039405834376730385 0.00028259486088187707 -0.0013389041575844853
v -0.0029059916523053956 0.001991978034047534 -0.001344279767278635
v -0.0013162169228790196 0.003202297135619712 -0.0013328678429302243
v 0.0006071044224445594 0.0034098967291152577 -0.0013424898879049604
v 0.002409772039953873 0.0025759435000194727 -0.0013416201081039127
v 0.0033921455632556228 0.0008360359464913841 -0.0013341941255107664
v 0.0032173985514086637 -0.0011527233964246726 -0.0012522552517188323
v 0.0021878004860916367 -0.0026853629711436258 -0.0013402309676252672
v 0.0003360962053490252 -0.0034315456350197263 -0.0012577131181910044
v -0.0016264791045062653 -0.003061429694013986 -0.0013186347011727
v -0.003024685306528272 -0.0016373882658797037 -0.0012210833875599336
v -0.0034456198394563885 0.0002291884908297964 -0.0006739502903070191
v -0.002773033008037843 0.0019090975973255222 -0.0005509209496623569
v -0.0014267895879244178 0.003385585953011339 -0.0005451762550267257
v 0.0005709126489532068 0.0034250938835804355 -0.0005458023203842795
v 0.0022683474153932155 0.00246755310976133 -0.0005596421159845887
v 0.0035193526164641106 0.0009694450329055392 -0.0005379533954249777
v 0.0035961740318209354 -0.0010257519255621962 -0.000462440590115185
v 0.0022741594312026795 -0.002522294350632168 -0.0005334806630017934
v 0.0005930926584837482 -0.0036015907929211723 -0.0004944369393889608
v -0.0009581466711523188 -0.003977773980977037 0.00041588525923703766
v -0.002940656704690558 -0.003849949763840931 0.0006296774306903124
v -0.00188743469836921 -0.002200981297320344 0.00022484610209754793
v -7.596520311588099e-05 -0.0029480217196248978 -0.00016626108381552636
v 0.0017279142304415396 -0.002310186464349398 0.00011262655557800201
v 0.0028535902765663697 -0.0007624655414911276 -0.00015602954184952916
v 0.0026324189590136125 0.0012129505401084028 4.704429419304012e-05
v 0.0013093824605956248 0.0027029336151049603 0.00019560540476598249
v -0.0006730610244887659 0.002786902293889097 -3.958787584698276e-05
v -0.0022991772030251283 0.0018666988955151893 0.00014946694736345608
v -0.0029022457873383958 -7.103509576630293e-05 -0.00012008292535822756
v -0.002718954984121135 -0.001822026793436894 -0.000445160291984866
v -0.001552351662782747 -0.0033008943828630073 -0.0005347288238169083
v -0.0015613752913363468 -0.0030331907381617534 0.001094094938859613
v -0.0029195645740851843 -0.0018324464953600828 0.0011519414742601631
v -0.0033756817068084366 -0.00024025418899939642 0.0005710581655021955
v -0.0030975316652996064 0.001389168892237546 0.0005500384011818947
l 2 1
l 3 2
l 4 3
l 5 4
l 6 5
l 7 6
l 8 7
l 9 8
l 10 9
l 11 10
l 12 11
l 13 12
l 14 13
l 15 14
l 16 15
l 17 16
l 18 17
l 19 18
l 20 19
l 21 20
l 22 21
l 23 22
l 24 23
l 25 24
l 26 25
l 27 26
l 28 27
l 29 28
l 30 29
l 31 30
l 32 31
l 33 32
l 34 33
l 35 34
l 36 35
l 37 36
l 38 37
l 39 38
l 40 39
l 41 40
l 42 41
l 43 42
l 44 43
l 45 44
l 46 45
l 47 46
l 48 47
l 49 48
l 50 49
l 51 50
l 52 51
l 53 52
l 54 53
l 55 54
l 56 55
l 57 56
l 58 57
l 59 58
l 60 59
l 61 60
l 62 61
l 63 62
l 64 63
l 65 64
l 66 65
l 67 66
l 68 67
l 69 68
l 70 69
l 71 70
l 72 71
l 73 72
l 74 73
l 75 74
l 76 75
l 77 76
l 78 77
l 79 78
l 80 79
l 81 80
l 82 81
l 83 82
l 84 83
l 85 84
l 86 85
l 87 86
l 88 87
l 89 88
l 90 89
l 91 90
l 92 91
l 93 92
l 94 93
l 95 94
l 96 95
l 97 96
l 98 97
l 99 98
l 100 99
l 101 100
l 102 101
l 103 102
l 104 103
l 105 104
l 106 105
l 107 106
l 108 107
l 109 108
l 110 109
l 111 110
l 112 111
l 113 112
l 114 113
l 107 114
